<?xml version="1.0" encoding="utf-8" standalone="no"?>
<!DOCTYPE svg PUBLIC "-//W3C//DTD SVG 1.1//EN"
  "http://www.w3.org/Graphics/SVG/1.1/DTD/svg11.dtd">
<svg xmlns:xlink="http://www.w3.org/1999/xlink" width="460.8pt" height="345.6pt" viewBox="0 0 460.8 345.6" xmlns="http://www.w3.org/2000/svg" version="1.1">
 <metadata>
  <rdf:RDF xmlns:dc="http://purl.org/dc/elements/1.1/" xmlns:cc="http://creativecommons.org/ns#" xmlns:rdf="http://www.w3.org/1999/02/22-rdf-syntax-ns#">
   <cc:Work>
    <dc:type rdf:resource="http://purl.org/dc/dcmitype/StillImage"/>
    <dc:date>2025-07-13T04:43:23.224778</dc:date>
    <dc:format>image/svg+xml</dc:format>
    <dc:creator>
     <cc:Agent>
      <dc:title>Matplotlib v3.9.1, https://matplotlib.org/</dc:title>
     </cc:Agent>
    </dc:creator>
   </cc:Work>
  </rdf:RDF>
 </metadata>
 <defs>
  <style type="text/css">*{stroke-linejoin: round; stroke-linecap: butt}</style>
 </defs>
 <g id="figure_1">
  <g id="patch_1">
   <path d="M 0 345.6 
L 460.8 345.6 
L 460.8 0 
L 0 0 
z
" style="fill: #ffffff"/>
  </g>
  <g id="axes_1">
   <g id="patch_2">
    <path d="M 57.6 307.584 
L 414.72 307.584 
L 414.72 41.472 
L 57.6 41.472 
z
" style="fill: #ffffff"/>
   </g>
   <g id="matplotlib.axis_1">
    <g id="xtick_1">
     <g id="line2d_1">
      <defs>
       <path id="m13806f2f40" d="M 0 0 
L 0 3.5 
" style="stroke: #000000; stroke-width: 0.8"/>
      </defs>
      <g>
       <use xlink:href="#m13806f2f40" x="73.832727" y="307.584" style="stroke: #000000; stroke-width: 0.8"/>
      </g>
     </g>
     <g id="text_1">
      <!-- 1 -->
      <g transform="translate(70.651477 322.182437) scale(0.1 -0.1)">
       <defs>
        <path id="DejaVuSans-31" d="M 794 531 
L 1825 531 
L 1825 4091 
L 703 3866 
L 703 4441 
L 1819 4666 
L 2450 4666 
L 2450 531 
L 3481 531 
L 3481 0 
L 794 0 
L 794 531 
z
" transform="scale(0.015625)"/>
       </defs>
       <use xlink:href="#DejaVuSans-31"/>
      </g>
     </g>
    </g>
    <g id="xtick_2">
     <g id="line2d_2">
      <g>
       <use xlink:href="#m13806f2f40" x="109.664165" y="307.584" style="stroke: #000000; stroke-width: 0.8"/>
      </g>
     </g>
     <g id="text_2">
      <!-- 34 -->
      <g transform="translate(103.301665 322.182437) scale(0.1 -0.1)">
       <defs>
        <path id="DejaVuSans-33" d="M 2597 2516 
Q 3050 2419 3304 2112 
Q 3559 1806 3559 1356 
Q 3559 666 3084 287 
Q 2609 -91 1734 -91 
Q 1441 -91 1130 -33 
Q 819 25 488 141 
L 488 750 
Q 750 597 1062 519 
Q 1375 441 1716 441 
Q 2309 441 2620 675 
Q 2931 909 2931 1356 
Q 2931 1769 2642 2001 
Q 2353 2234 1838 2234 
L 1294 2234 
L 1294 2753 
L 1863 2753 
Q 2328 2753 2575 2939 
Q 2822 3125 2822 3475 
Q 2822 3834 2567 4026 
Q 2313 4219 1838 4219 
Q 1578 4219 1281 4162 
Q 984 4106 628 3988 
L 628 4550 
Q 988 4650 1302 4700 
Q 1616 4750 1894 4750 
Q 2613 4750 3031 4423 
Q 3450 4097 3450 3541 
Q 3450 3153 3228 2886 
Q 3006 2619 2597 2516 
z
" transform="scale(0.015625)"/>
        <path id="DejaVuSans-34" d="M 2419 4116 
L 825 1625 
L 2419 1625 
L 2419 4116 
z
M 2253 4666 
L 3047 4666 
L 3047 1625 
L 3713 1625 
L 3713 1100 
L 3047 1100 
L 3047 0 
L 2419 0 
L 2419 1100 
L 313 1100 
L 313 1709 
L 2253 4666 
z
" transform="scale(0.015625)"/>
       </defs>
       <use xlink:href="#DejaVuSans-33"/>
       <use xlink:href="#DejaVuSans-34" x="63.623047"/>
      </g>
     </g>
    </g>
    <g id="xtick_3">
     <g id="line2d_3">
      <g>
       <use xlink:href="#m13806f2f40" x="145.495604" y="307.584" style="stroke: #000000; stroke-width: 0.8"/>
      </g>
     </g>
     <g id="text_3">
      <!-- 67 -->
      <g transform="translate(139.133104 322.182437) scale(0.1 -0.1)">
       <defs>
        <path id="DejaVuSans-36" d="M 2113 2584 
Q 1688 2584 1439 2293 
Q 1191 2003 1191 1497 
Q 1191 994 1439 701 
Q 1688 409 2113 409 
Q 2538 409 2786 701 
Q 3034 994 3034 1497 
Q 3034 2003 2786 2293 
Q 2538 2584 2113 2584 
z
M 3366 4563 
L 3366 3988 
Q 3128 4100 2886 4159 
Q 2644 4219 2406 4219 
Q 1781 4219 1451 3797 
Q 1122 3375 1075 2522 
Q 1259 2794 1537 2939 
Q 1816 3084 2150 3084 
Q 2853 3084 3261 2657 
Q 3669 2231 3669 1497 
Q 3669 778 3244 343 
Q 2819 -91 2113 -91 
Q 1303 -91 875 529 
Q 447 1150 447 2328 
Q 447 3434 972 4092 
Q 1497 4750 2381 4750 
Q 2619 4750 2861 4703 
Q 3103 4656 3366 4563 
z
" transform="scale(0.015625)"/>
        <path id="DejaVuSans-37" d="M 525 4666 
L 3525 4666 
L 3525 4397 
L 1831 0 
L 1172 0 
L 2766 4134 
L 525 4134 
L 525 4666 
z
" transform="scale(0.015625)"/>
       </defs>
       <use xlink:href="#DejaVuSans-36"/>
       <use xlink:href="#DejaVuSans-37" x="63.623047"/>
      </g>
     </g>
    </g>
    <g id="xtick_4">
     <g id="line2d_4">
      <g>
       <use xlink:href="#m13806f2f40" x="181.327042" y="307.584" style="stroke: #000000; stroke-width: 0.8"/>
      </g>
     </g>
     <g id="text_4">
      <!-- 100 -->
      <g transform="translate(171.783292 322.182437) scale(0.1 -0.1)">
       <defs>
        <path id="DejaVuSans-30" d="M 2034 4250 
Q 1547 4250 1301 3770 
Q 1056 3291 1056 2328 
Q 1056 1369 1301 889 
Q 1547 409 2034 409 
Q 2525 409 2770 889 
Q 3016 1369 3016 2328 
Q 3016 3291 2770 3770 
Q 2525 4250 2034 4250 
z
M 2034 4750 
Q 2819 4750 3233 4129 
Q 3647 3509 3647 2328 
Q 3647 1150 3233 529 
Q 2819 -91 2034 -91 
Q 1250 -91 836 529 
Q 422 1150 422 2328 
Q 422 3509 836 4129 
Q 1250 4750 2034 4750 
z
" transform="scale(0.015625)"/>
       </defs>
       <use xlink:href="#DejaVuSans-31"/>
       <use xlink:href="#DejaVuSans-30" x="63.623047"/>
       <use xlink:href="#DejaVuSans-30" x="127.246094"/>
      </g>
     </g>
    </g>
    <g id="xtick_5">
     <g id="line2d_5">
      <g>
       <use xlink:href="#m13806f2f40" x="217.15848" y="307.584" style="stroke: #000000; stroke-width: 0.8"/>
      </g>
     </g>
     <g id="text_5">
      <!-- 133 -->
      <g transform="translate(207.61473 322.182437) scale(0.1 -0.1)">
       <use xlink:href="#DejaVuSans-31"/>
       <use xlink:href="#DejaVuSans-33" x="63.623047"/>
       <use xlink:href="#DejaVuSans-33" x="127.246094"/>
      </g>
     </g>
    </g>
    <g id="xtick_6">
     <g id="line2d_6">
      <g>
       <use xlink:href="#m13806f2f40" x="254.075719" y="307.584" style="stroke: #000000; stroke-width: 0.8"/>
      </g>
     </g>
     <g id="text_6">
      <!-- 167 -->
      <g transform="translate(244.531969 322.182437) scale(0.1 -0.1)">
       <use xlink:href="#DejaVuSans-31"/>
       <use xlink:href="#DejaVuSans-36" x="63.623047"/>
       <use xlink:href="#DejaVuSans-37" x="127.246094"/>
      </g>
     </g>
    </g>
    <g id="xtick_7">
     <g id="line2d_7">
      <g>
       <use xlink:href="#m13806f2f40" x="289.907157" y="307.584" style="stroke: #000000; stroke-width: 0.8"/>
      </g>
     </g>
     <g id="text_7">
      <!-- 200 -->
      <g transform="translate(280.363407 322.182437) scale(0.1 -0.1)">
       <defs>
        <path id="DejaVuSans-32" d="M 1228 531 
L 3431 531 
L 3431 0 
L 469 0 
L 469 531 
Q 828 903 1448 1529 
Q 2069 2156 2228 2338 
Q 2531 2678 2651 2914 
Q 2772 3150 2772 3378 
Q 2772 3750 2511 3984 
Q 2250 4219 1831 4219 
Q 1534 4219 1204 4116 
Q 875 4013 500 3803 
L 500 4441 
Q 881 4594 1212 4672 
Q 1544 4750 1819 4750 
Q 2544 4750 2975 4387 
Q 3406 4025 3406 3419 
Q 3406 3131 3298 2873 
Q 3191 2616 2906 2266 
Q 2828 2175 2409 1742 
Q 1991 1309 1228 531 
z
" transform="scale(0.015625)"/>
       </defs>
       <use xlink:href="#DejaVuSans-32"/>
       <use xlink:href="#DejaVuSans-30" x="63.623047"/>
       <use xlink:href="#DejaVuSans-30" x="127.246094"/>
      </g>
     </g>
    </g>
    <g id="xtick_8">
     <g id="line2d_8">
      <g>
       <use xlink:href="#m13806f2f40" x="325.738595" y="307.584" style="stroke: #000000; stroke-width: 0.8"/>
      </g>
     </g>
     <g id="text_8">
      <!-- 233 -->
      <g transform="translate(316.194845 322.182437) scale(0.1 -0.1)">
       <use xlink:href="#DejaVuSans-32"/>
       <use xlink:href="#DejaVuSans-33" x="63.623047"/>
       <use xlink:href="#DejaVuSans-33" x="127.246094"/>
      </g>
     </g>
    </g>
    <g id="xtick_9">
     <g id="line2d_9">
      <g>
       <use xlink:href="#m13806f2f40" x="361.570033" y="307.584" style="stroke: #000000; stroke-width: 0.8"/>
      </g>
     </g>
     <g id="text_9">
      <!-- 266 -->
      <g transform="translate(352.026283 322.182437) scale(0.1 -0.1)">
       <use xlink:href="#DejaVuSans-32"/>
       <use xlink:href="#DejaVuSans-36" x="63.623047"/>
       <use xlink:href="#DejaVuSans-36" x="127.246094"/>
      </g>
     </g>
    </g>
    <g id="xtick_10">
     <g id="line2d_10">
      <g>
       <use xlink:href="#m13806f2f40" x="398.487273" y="307.584" style="stroke: #000000; stroke-width: 0.8"/>
      </g>
     </g>
     <g id="text_10">
      <!-- 300 -->
      <g transform="translate(388.943523 322.182437) scale(0.1 -0.1)">
       <use xlink:href="#DejaVuSans-33"/>
       <use xlink:href="#DejaVuSans-30" x="63.623047"/>
       <use xlink:href="#DejaVuSans-30" x="127.246094"/>
      </g>
     </g>
    </g>
    <g id="text_11">
     <!-- Epochs -->
     <g transform="translate(218.244375 335.860562) scale(0.1 -0.1)">
      <defs>
       <path id="DejaVuSans-45" d="M 628 4666 
L 3578 4666 
L 3578 4134 
L 1259 4134 
L 1259 2753 
L 3481 2753 
L 3481 2222 
L 1259 2222 
L 1259 531 
L 3634 531 
L 3634 0 
L 628 0 
L 628 4666 
z
" transform="scale(0.015625)"/>
       <path id="DejaVuSans-70" d="M 1159 525 
L 1159 -1331 
L 581 -1331 
L 581 3500 
L 1159 3500 
L 1159 2969 
Q 1341 3281 1617 3432 
Q 1894 3584 2278 3584 
Q 2916 3584 3314 3078 
Q 3713 2572 3713 1747 
Q 3713 922 3314 415 
Q 2916 -91 2278 -91 
Q 1894 -91 1617 61 
Q 1341 213 1159 525 
z
M 3116 1747 
Q 3116 2381 2855 2742 
Q 2594 3103 2138 3103 
Q 1681 3103 1420 2742 
Q 1159 2381 1159 1747 
Q 1159 1113 1420 752 
Q 1681 391 2138 391 
Q 2594 391 2855 752 
Q 3116 1113 3116 1747 
z
" transform="scale(0.015625)"/>
       <path id="DejaVuSans-6f" d="M 1959 3097 
Q 1497 3097 1228 2736 
Q 959 2375 959 1747 
Q 959 1119 1226 758 
Q 1494 397 1959 397 
Q 2419 397 2687 759 
Q 2956 1122 2956 1747 
Q 2956 2369 2687 2733 
Q 2419 3097 1959 3097 
z
M 1959 3584 
Q 2709 3584 3137 3096 
Q 3566 2609 3566 1747 
Q 3566 888 3137 398 
Q 2709 -91 1959 -91 
Q 1206 -91 779 398 
Q 353 888 353 1747 
Q 353 2609 779 3096 
Q 1206 3584 1959 3584 
z
" transform="scale(0.015625)"/>
       <path id="DejaVuSans-63" d="M 3122 3366 
L 3122 2828 
Q 2878 2963 2633 3030 
Q 2388 3097 2138 3097 
Q 1578 3097 1268 2742 
Q 959 2388 959 1747 
Q 959 1106 1268 751 
Q 1578 397 2138 397 
Q 2388 397 2633 464 
Q 2878 531 3122 666 
L 3122 134 
Q 2881 22 2623 -34 
Q 2366 -91 2075 -91 
Q 1284 -91 818 406 
Q 353 903 353 1747 
Q 353 2603 823 3093 
Q 1294 3584 2113 3584 
Q 2378 3584 2631 3529 
Q 2884 3475 3122 3366 
z
" transform="scale(0.015625)"/>
       <path id="DejaVuSans-68" d="M 3513 2113 
L 3513 0 
L 2938 0 
L 2938 2094 
Q 2938 2591 2744 2837 
Q 2550 3084 2163 3084 
Q 1697 3084 1428 2787 
Q 1159 2491 1159 1978 
L 1159 0 
L 581 0 
L 581 4863 
L 1159 4863 
L 1159 2956 
Q 1366 3272 1645 3428 
Q 1925 3584 2291 3584 
Q 2894 3584 3203 3211 
Q 3513 2838 3513 2113 
z
" transform="scale(0.015625)"/>
       <path id="DejaVuSans-73" d="M 2834 3397 
L 2834 2853 
Q 2591 2978 2328 3040 
Q 2066 3103 1784 3103 
Q 1356 3103 1142 2972 
Q 928 2841 928 2578 
Q 928 2378 1081 2264 
Q 1234 2150 1697 2047 
L 1894 2003 
Q 2506 1872 2764 1633 
Q 3022 1394 3022 966 
Q 3022 478 2636 193 
Q 2250 -91 1575 -91 
Q 1294 -91 989 -36 
Q 684 19 347 128 
L 347 722 
Q 666 556 975 473 
Q 1284 391 1588 391 
Q 1994 391 2212 530 
Q 2431 669 2431 922 
Q 2431 1156 2273 1281 
Q 2116 1406 1581 1522 
L 1381 1569 
Q 847 1681 609 1914 
Q 372 2147 372 2553 
Q 372 3047 722 3315 
Q 1072 3584 1716 3584 
Q 2034 3584 2315 3537 
Q 2597 3491 2834 3397 
z
" transform="scale(0.015625)"/>
      </defs>
      <use xlink:href="#DejaVuSans-45"/>
      <use xlink:href="#DejaVuSans-70" x="63.183594"/>
      <use xlink:href="#DejaVuSans-6f" x="126.660156"/>
      <use xlink:href="#DejaVuSans-63" x="187.841797"/>
      <use xlink:href="#DejaVuSans-68" x="242.822266"/>
      <use xlink:href="#DejaVuSans-73" x="306.201172"/>
     </g>
    </g>
   </g>
   <g id="matplotlib.axis_2">
    <g id="ytick_1">
     <g id="line2d_11">
      <defs>
       <path id="ma62665575c" d="M 0 0 
L -3.5 0 
" style="stroke: #000000; stroke-width: 0.8"/>
      </defs>
      <g>
       <use xlink:href="#ma62665575c" x="57.6" y="283.399794" style="stroke: #000000; stroke-width: 0.8"/>
      </g>
     </g>
     <g id="text_12">
      <!-- 10 -->
      <g transform="translate(37.875 287.199013) scale(0.1 -0.1)">
       <use xlink:href="#DejaVuSans-31"/>
       <use xlink:href="#DejaVuSans-30" x="63.623047"/>
      </g>
     </g>
    </g>
    <g id="ytick_2">
     <g id="line2d_12">
      <g>
       <use xlink:href="#ma62665575c" x="57.6" y="252.224536" style="stroke: #000000; stroke-width: 0.8"/>
      </g>
     </g>
     <g id="text_13">
      <!-- 20 -->
      <g transform="translate(37.875 256.023755) scale(0.1 -0.1)">
       <use xlink:href="#DejaVuSans-32"/>
       <use xlink:href="#DejaVuSans-30" x="63.623047"/>
      </g>
     </g>
    </g>
    <g id="ytick_3">
     <g id="line2d_13">
      <g>
       <use xlink:href="#ma62665575c" x="57.6" y="221.049278" style="stroke: #000000; stroke-width: 0.8"/>
      </g>
     </g>
     <g id="text_14">
      <!-- 30 -->
      <g transform="translate(37.875 224.848497) scale(0.1 -0.1)">
       <use xlink:href="#DejaVuSans-33"/>
       <use xlink:href="#DejaVuSans-30" x="63.623047"/>
      </g>
     </g>
    </g>
    <g id="ytick_4">
     <g id="line2d_14">
      <g>
       <use xlink:href="#ma62665575c" x="57.6" y="189.874021" style="stroke: #000000; stroke-width: 0.8"/>
      </g>
     </g>
     <g id="text_15">
      <!-- 40 -->
      <g transform="translate(37.875 193.673239) scale(0.1 -0.1)">
       <use xlink:href="#DejaVuSans-34"/>
       <use xlink:href="#DejaVuSans-30" x="63.623047"/>
      </g>
     </g>
    </g>
    <g id="ytick_5">
     <g id="line2d_15">
      <g>
       <use xlink:href="#ma62665575c" x="57.6" y="158.698763" style="stroke: #000000; stroke-width: 0.8"/>
      </g>
     </g>
     <g id="text_16">
      <!-- 50 -->
      <g transform="translate(37.875 162.497982) scale(0.1 -0.1)">
       <defs>
        <path id="DejaVuSans-35" d="M 691 4666 
L 3169 4666 
L 3169 4134 
L 1269 4134 
L 1269 2991 
Q 1406 3038 1543 3061 
Q 1681 3084 1819 3084 
Q 2600 3084 3056 2656 
Q 3513 2228 3513 1497 
Q 3513 744 3044 326 
Q 2575 -91 1722 -91 
Q 1428 -91 1123 -41 
Q 819 9 494 109 
L 494 744 
Q 775 591 1075 516 
Q 1375 441 1709 441 
Q 2250 441 2565 725 
Q 2881 1009 2881 1497 
Q 2881 1984 2565 2268 
Q 2250 2553 1709 2553 
Q 1456 2553 1204 2497 
Q 953 2441 691 2322 
L 691 4666 
z
" transform="scale(0.015625)"/>
       </defs>
       <use xlink:href="#DejaVuSans-35"/>
       <use xlink:href="#DejaVuSans-30" x="63.623047"/>
      </g>
     </g>
    </g>
    <g id="ytick_6">
     <g id="line2d_16">
      <g>
       <use xlink:href="#ma62665575c" x="57.6" y="127.523505" style="stroke: #000000; stroke-width: 0.8"/>
      </g>
     </g>
     <g id="text_17">
      <!-- 60 -->
      <g transform="translate(37.875 131.322724) scale(0.1 -0.1)">
       <use xlink:href="#DejaVuSans-36"/>
       <use xlink:href="#DejaVuSans-30" x="63.623047"/>
      </g>
     </g>
    </g>
    <g id="ytick_7">
     <g id="line2d_17">
      <g>
       <use xlink:href="#ma62665575c" x="57.6" y="96.348247" style="stroke: #000000; stroke-width: 0.8"/>
      </g>
     </g>
     <g id="text_18">
      <!-- 70 -->
      <g transform="translate(37.875 100.147466) scale(0.1 -0.1)">
       <use xlink:href="#DejaVuSans-37"/>
       <use xlink:href="#DejaVuSans-30" x="63.623047"/>
      </g>
     </g>
    </g>
    <g id="ytick_8">
     <g id="line2d_18">
      <g>
       <use xlink:href="#ma62665575c" x="57.6" y="65.17299" style="stroke: #000000; stroke-width: 0.8"/>
      </g>
     </g>
     <g id="text_19">
      <!-- 80 -->
      <g transform="translate(37.875 68.972208) scale(0.1 -0.1)">
       <defs>
        <path id="DejaVuSans-38" d="M 2034 2216 
Q 1584 2216 1326 1975 
Q 1069 1734 1069 1313 
Q 1069 891 1326 650 
Q 1584 409 2034 409 
Q 2484 409 2743 651 
Q 3003 894 3003 1313 
Q 3003 1734 2745 1975 
Q 2488 2216 2034 2216 
z
M 1403 2484 
Q 997 2584 770 2862 
Q 544 3141 544 3541 
Q 544 4100 942 4425 
Q 1341 4750 2034 4750 
Q 2731 4750 3128 4425 
Q 3525 4100 3525 3541 
Q 3525 3141 3298 2862 
Q 3072 2584 2669 2484 
Q 3125 2378 3379 2068 
Q 3634 1759 3634 1313 
Q 3634 634 3220 271 
Q 2806 -91 2034 -91 
Q 1263 -91 848 271 
Q 434 634 434 1313 
Q 434 1759 690 2068 
Q 947 2378 1403 2484 
z
M 1172 3481 
Q 1172 3119 1398 2916 
Q 1625 2713 2034 2713 
Q 2441 2713 2670 2916 
Q 2900 3119 2900 3481 
Q 2900 3844 2670 4047 
Q 2441 4250 2034 4250 
Q 1625 4250 1398 4047 
Q 1172 3844 1172 3481 
z
" transform="scale(0.015625)"/>
       </defs>
       <use xlink:href="#DejaVuSans-38"/>
       <use xlink:href="#DejaVuSans-30" x="63.623047"/>
      </g>
     </g>
    </g>
    <g id="text_20">
     <!-- Accuracy -->
     <g transform="translate(31.795312 197.356125) rotate(-90) scale(0.1 -0.1)">
      <defs>
       <path id="DejaVuSans-41" d="M 2188 4044 
L 1331 1722 
L 3047 1722 
L 2188 4044 
z
M 1831 4666 
L 2547 4666 
L 4325 0 
L 3669 0 
L 3244 1197 
L 1141 1197 
L 716 0 
L 50 0 
L 1831 4666 
z
" transform="scale(0.015625)"/>
       <path id="DejaVuSans-75" d="M 544 1381 
L 544 3500 
L 1119 3500 
L 1119 1403 
Q 1119 906 1312 657 
Q 1506 409 1894 409 
Q 2359 409 2629 706 
Q 2900 1003 2900 1516 
L 2900 3500 
L 3475 3500 
L 3475 0 
L 2900 0 
L 2900 538 
Q 2691 219 2414 64 
Q 2138 -91 1772 -91 
Q 1169 -91 856 284 
Q 544 659 544 1381 
z
M 1991 3584 
L 1991 3584 
z
" transform="scale(0.015625)"/>
       <path id="DejaVuSans-72" d="M 2631 2963 
Q 2534 3019 2420 3045 
Q 2306 3072 2169 3072 
Q 1681 3072 1420 2755 
Q 1159 2438 1159 1844 
L 1159 0 
L 581 0 
L 581 3500 
L 1159 3500 
L 1159 2956 
Q 1341 3275 1631 3429 
Q 1922 3584 2338 3584 
Q 2397 3584 2469 3576 
Q 2541 3569 2628 3553 
L 2631 2963 
z
" transform="scale(0.015625)"/>
       <path id="DejaVuSans-61" d="M 2194 1759 
Q 1497 1759 1228 1600 
Q 959 1441 959 1056 
Q 959 750 1161 570 
Q 1363 391 1709 391 
Q 2188 391 2477 730 
Q 2766 1069 2766 1631 
L 2766 1759 
L 2194 1759 
z
M 3341 1997 
L 3341 0 
L 2766 0 
L 2766 531 
Q 2569 213 2275 61 
Q 1981 -91 1556 -91 
Q 1019 -91 701 211 
Q 384 513 384 1019 
Q 384 1609 779 1909 
Q 1175 2209 1959 2209 
L 2766 2209 
L 2766 2266 
Q 2766 2663 2505 2880 
Q 2244 3097 1772 3097 
Q 1472 3097 1187 3025 
Q 903 2953 641 2809 
L 641 3341 
Q 956 3463 1253 3523 
Q 1550 3584 1831 3584 
Q 2591 3584 2966 3190 
Q 3341 2797 3341 1997 
z
" transform="scale(0.015625)"/>
       <path id="DejaVuSans-79" d="M 2059 -325 
Q 1816 -950 1584 -1140 
Q 1353 -1331 966 -1331 
L 506 -1331 
L 506 -850 
L 844 -850 
Q 1081 -850 1212 -737 
Q 1344 -625 1503 -206 
L 1606 56 
L 191 3500 
L 800 3500 
L 1894 763 
L 2988 3500 
L 3597 3500 
L 2059 -325 
z
" transform="scale(0.015625)"/>
      </defs>
      <use xlink:href="#DejaVuSans-41"/>
      <use xlink:href="#DejaVuSans-63" x="66.658203"/>
      <use xlink:href="#DejaVuSans-63" x="121.638672"/>
      <use xlink:href="#DejaVuSans-75" x="176.619141"/>
      <use xlink:href="#DejaVuSans-72" x="239.998047"/>
      <use xlink:href="#DejaVuSans-61" x="281.111328"/>
      <use xlink:href="#DejaVuSans-63" x="342.390625"/>
      <use xlink:href="#DejaVuSans-79" x="397.371094"/>
     </g>
    </g>
   </g>
   <g id="line2d_19">
    <path d="M 73.832727 295.488 
L 74.918528 275.66833 
L 76.00433 252.863629 
L 77.090131 233.402474 
L 78.175932 216.754887 
L 80.347534 190.341649 
L 83.604938 165.861278 
L 84.690739 158.75332 
L 85.77654 156.196948 
L 87.948142 146.06499 
L 89.033943 141.357526 
L 90.119745 139.019381 
L 91.205546 134.670433 
L 92.291347 132.418021 
L 93.377148 132.589485 
L 94.462949 130.212371 
L 95.54875 159.026103 
L 96.634552 159.353443 
L 97.720353 153.508082 
L 98.806154 151.037443 
L 99.891955 147.748454 
L 100.977756 143.469649 
L 102.063557 140.811959 
L 103.149358 139.837732 
L 105.320961 133.197402 
L 106.406762 131.817897 
L 107.492563 129.846062 
L 109.664165 124.741113 
L 110.749967 122.925155 
L 111.835768 120.345402 
L 112.921569 118.490474 
L 114.00737 115.146928 
L 116.178972 113.12833 
L 117.264773 111.725443 
L 119.436376 106.035959 
L 120.522177 105.724206 
L 121.607978 102.97299 
L 122.693779 102.170227 
L 123.77958 100.221773 
L 124.865382 98.974763 
L 125.951183 96.589856 
L 127.036984 95.085649 
L 128.122785 95.467546 
L 129.208586 92.233113 
L 130.294387 92.731918 
L 131.380189 90.043052 
L 132.46599 89.731299 
L 133.551791 88.60899 
L 134.637592 89.474103 
L 135.723393 87.712701 
L 136.809194 89.154557 
L 137.894995 87.416536 
L 138.980797 113.627134 
L 140.066598 119.792041 
L 141.152399 117.99167 
L 142.2382 119.168536 
L 143.324001 116.495258 
L 144.409802 117.290227 
L 145.495604 115.287216 
L 146.581405 114.70268 
L 147.667206 114.663711 
L 148.753007 112.43468 
L 149.838808 111.281196 
L 150.924609 112.723052 
L 152.01041 109.332742 
L 153.096212 108.600124 
L 154.182013 110.080948 
L 155.267814 106.090515 
L 156.353615 106.168454 
L 157.439416 106.371093 
L 158.525217 104.227794 
L 159.611019 103.160041 
L 160.69682 103.588701 
L 161.782621 102.746969 
L 162.868422 101.609072 
L 163.954223 100.993361 
L 165.040024 100.845278 
L 166.125825 99.185196 
L 167.211627 99.278722 
L 169.383229 97.228948 
L 170.46903 95.015505 
L 171.554831 96.262515 
L 172.640632 93.939959 
L 173.726434 94.080247 
L 175.898036 91.609608 
L 176.983837 91.703134 
L 178.069638 91.562845 
L 180.24124 87.619175 
L 181.327042 88.102392 
L 182.412843 86.372165 
L 183.498644 85.109567 
L 184.584445 86.247464 
L 185.670246 84.813402 
L 186.756047 82.56099 
L 187.841849 82.412907 
L 188.92765 80.854144 
L 190.013451 80.815175 
L 191.099252 80.433278 
L 192.185053 78.469237 
L 193.270854 78.102928 
L 194.356656 77.876907 
L 195.442457 76.193443 
L 196.528258 76.271381 
L 197.614059 74.494392 
L 198.69986 73.886474 
L 199.785661 74.065732 
L 200.871462 72.826515 
L 201.957264 73.426639 
L 203.043065 71.096289 
L 204.128866 69.303711 
L 205.214667 70.067505 
L 206.300468 69.927216 
L 207.386269 70.394845 
L 208.472071 68.695794 
L 209.557872 67.674804 
L 210.643673 67.791711 
L 211.729474 66.91101 
L 212.815275 66.677196 
L 213.901076 66.069278 
L 214.986877 65.601649 
L 216.072679 65.749732 
L 217.15848 66.349856 
L 218.244281 65.56268 
L 219.330082 65.726351 
L 220.415883 64.557278 
L 221.501684 62.694557 
L 222.587486 65.50033 
L 223.673287 64.526103 
L 224.759088 63.762309 
L 225.844889 93.254103 
L 226.93069 99.457979 
L 228.016491 99.138433 
L 229.102292 99.94899 
L 230.188094 98.701979 
L 231.273895 98.320082 
L 232.359696 98.062887 
L 233.445497 97.010722 
L 234.531298 99.224165 
L 235.617099 98.00833 
L 236.702901 95.958557 
L 237.788702 97.657608 
L 238.874503 97.408206 
L 239.960304 95.015505 
L 241.046105 96.246928 
L 242.131906 94.82066 
L 243.217708 94.945361 
L 244.303509 94.454351 
L 245.38931 94.898598 
L 246.475111 92.708536 
L 247.560912 91.936948 
L 248.646713 92.085031 
L 249.732514 93.160577 
L 250.818316 91.570639 
L 252.989918 92.131794 
L 254.075719 91.562845 
L 255.16152 90.728907 
L 256.247321 90.385979 
L 257.333123 89.793649 
L 258.418924 89.918351 
L 259.504725 90.947134 
L 260.590526 88.811629 
L 261.676327 87.806227 
L 262.762128 89.255876 
L 263.847929 87.860784 
L 264.933731 86.722887 
L 266.019532 88.344 
L 267.105333 87.346392 
L 268.191134 86.114969 
L 269.276935 86.40334 
L 270.362736 85.491464 
L 271.448538 85.343381 
L 272.534339 85.772041 
L 273.62014 86.060412 
L 274.705941 83.854763 
L 275.791742 83.48066 
L 276.877543 83.667711 
L 277.963344 85.047216 
L 279.049146 84.46268 
L 280.134947 82.436289 
L 281.220748 81.882928 
L 282.306549 83.348165 
L 283.39235 81.352948 
L 284.478151 82.45967 
L 285.563953 79.957856 
L 286.649754 80.776206 
L 287.735555 79.583753 
L 288.821356 78.84334 
L 289.907157 79.186268 
L 290.992958 79.653897 
L 292.07876 79.911093 
L 293.164561 78.18866 
L 294.250362 77.479423 
L 295.336163 77.806763 
L 296.421964 75.98301 
L 297.507765 76.583134 
L 299.679368 75.850515 
L 300.765169 76.170062 
L 301.85097 75.203629 
L 302.936771 74.556742 
L 304.022572 75.437443 
L 305.108373 73.894268 
L 306.194175 75.289361 
L 307.279976 73.621485 
L 308.365777 72.413443 
L 309.451578 72.951216 
L 310.537379 72.14066 
L 311.62318 71.641856 
L 312.708981 71.641856 
L 313.794783 71.236577 
L 314.880584 70.09868 
L 315.966385 69.911629 
L 317.052186 70.581897 
L 318.137987 70.09868 
L 319.223788 69.864866 
L 320.30959 68.446392 
L 321.395391 68.773732 
L 322.481192 67.939794 
L 323.566993 68.19699 
L 324.652794 66.373237 
L 325.738595 66.934392 
L 326.824396 66.108247 
L 327.910198 65.726351 
L 328.995999 65.024907 
L 330.0818 65.126227 
L 331.167601 64.64301 
L 332.253402 63.980536 
L 333.339203 64.424784 
L 334.425005 64.245526 
L 335.510806 63.037485 
L 336.596607 63.107629 
L 337.682408 62.133402 
L 338.768209 62.437361 
L 339.85401 61.657979 
L 340.939811 61.166969 
L 342.025613 60.987711 
L 343.111414 61.252701 
L 344.197215 59.506887 
L 345.283016 58.976907 
L 346.368817 59.693938 
L 347.454618 58.314433 
L 348.54042 57.690928 
L 349.626221 58.688536 
L 350.712022 57.231093 
L 351.797823 57.215505 
L 352.883624 56.802433 
L 353.969425 57.589608 
L 355.055227 55.874969 
L 356.141028 56.147753 
L 357.226829 55.711299 
L 358.31263 55.025443 
L 359.398431 54.48767 
L 360.484232 55.009856 
L 362.655835 53.614763 
L 363.741636 53.981072 
L 364.827437 53.630351 
L 365.913238 53.73167 
L 366.999039 53.568 
L 368.08484 53.630351 
L 369.170642 54.557814 
L 370.256443 54.285031 
L 371.342244 56.950515 
L 373.513846 56.623175 
L 374.599647 57.418144 
L 375.685448 57.846804 
L 376.77125 56.669938 
L 378.942852 57.955918 
L 380.028653 57.67534 
L 381.114454 57.901361 
L 382.200255 57.402557 
L 383.286057 57.519464 
L 385.457659 56.794639 
L 386.54346 56.794639 
L 388.715062 58.306639 
L 389.800863 57.160948 
L 390.886665 57.02066 
L 391.972466 58.454722 
L 393.058267 56.584206 
L 394.144068 56.85699 
L 395.229869 56.638763 
L 396.31567 56.833608 
L 398.487273 57.690928 
L 398.487273 57.690928 
" clip-path="url(#p284e454416)" style="fill: none; stroke: #1f77b4; stroke-width: 1.5; stroke-linecap: square"/>
   </g>
   <g id="line2d_20">
    <path d="M 73.832727 282.215134 
L 74.918528 267.593938 
L 76.00433 236.605732 
L 77.090131 223.449773 
L 78.175932 197.979588 
L 79.261733 189.188165 
L 80.347534 175.782804 
L 81.433335 173.226433 
L 82.519137 172.540577 
L 83.604938 153.492495 
L 84.690739 147.008041 
L 85.77654 147.943299 
L 86.862341 144.576371 
L 87.948142 133.883258 
L 89.033943 127.928784 
L 90.119745 124.250103 
L 91.205546 123.688948 
L 92.291347 121.381979 
L 93.377148 121.288454 
L 94.462949 120.322021 
L 95.54875 159.696371 
L 96.634552 145.418103 
L 97.720353 141.36532 
L 98.806154 145.075175 
L 99.891955 135.504371 
L 100.977756 137.655464 
L 102.063557 133.758557 
L 103.149358 132.729773 
L 104.23516 124.904784 
L 105.320961 122.410763 
L 106.406762 123.22132 
L 107.492563 121.724907 
L 109.664165 114.118144 
L 110.749967 114.959876 
L 111.835768 114.991052 
L 112.921569 107.602515 
L 114.00737 106.791959 
L 115.093171 106.760784 
L 117.264773 101.305113 
L 118.350575 100.681608 
L 119.436376 97.158804 
L 120.522177 95.849443 
L 121.607978 95.849443 
L 122.693779 96.722351 
L 123.77958 92.295464 
L 124.865382 93.386598 
L 125.951183 91.079629 
L 129.208586 86.93332 
L 130.294387 87.400948 
L 131.380189 85.592784 
L 132.46599 85.21868 
L 133.551791 84.314598 
L 134.637592 84.813402 
L 135.723393 84.470474 
L 136.809194 83.90932 
L 137.894995 83.846969 
L 138.980797 106.137278 
L 140.066598 109.036577 
L 141.152399 108.381897 
L 142.2382 108.974227 
L 143.324001 108.974227 
L 144.409802 110.190062 
L 145.495604 109.753608 
L 146.581405 103.456206 
L 147.667206 107.290763 
L 148.753007 106.449031 
L 149.838808 104.017361 
L 150.924609 105.451423 
L 152.01041 101.149237 
L 153.096212 98.031711 
L 154.182013 103.95501 
L 156.353615 96.815876 
L 158.525217 99.684 
L 159.611019 95.568866 
L 160.69682 94.134804 
L 161.782621 93.511299 
L 162.868422 92.731918 
L 163.954223 96.504124 
L 166.125825 89.022062 
L 167.211627 93.573649 
L 168.297428 88.866186 
L 169.383229 92.046062 
L 170.46903 88.741485 
L 171.554831 87.962103 
L 172.640632 88.398557 
L 173.726434 90.237897 
L 174.812235 86.777443 
L 178.069638 83.348165 
L 179.155439 87.338598 
L 180.24124 81.633526 
L 181.327042 83.348165 
L 182.412843 80.230639 
L 183.498644 80.916495 
L 184.584445 80.324165 
L 185.670246 78.703052 
L 186.756047 80.448866 
L 187.841849 77.33134 
L 188.92765 76.988412 
L 190.013451 77.393691 
L 191.099252 77.611918 
L 192.185053 76.863711 
L 193.270854 74.681443 
L 194.356656 75.242598 
L 195.442457 73.71501 
L 196.528258 74.463216 
L 197.614059 73.71501 
L 198.69986 71.595093 
L 199.785661 71.906845 
L 200.871462 70.441608 
L 201.957264 70.940412 
L 203.043065 71.096289 
L 204.128866 69.288124 
L 205.214667 69.662227 
L 206.300468 69.506351 
L 208.472071 68.477567 
L 209.557872 67.542309 
L 210.643673 68.508742 
L 211.729474 67.479959 
L 212.815275 67.947588 
L 213.901076 66.139423 
L 214.986877 65.82767 
L 216.072679 66.326474 
L 217.15848 66.607052 
L 218.244281 66.170598 
L 219.330082 66.045897 
L 220.415883 65.266515 
L 221.501684 66.357649 
L 222.587486 65.82767 
L 223.673287 65.890021 
L 224.759088 66.482351 
L 225.844889 91.983711 
L 226.93069 93.791876 
L 228.016491 93.885402 
L 229.102292 91.578433 
L 230.188094 92.856619 
L 231.273895 93.636 
L 232.359696 90.986103 
L 233.445497 91.297856 
L 234.531298 93.480124 
L 235.617099 90.362598 
L 236.702901 89.240289 
L 237.788702 89.645567 
L 238.874503 89.520866 
L 239.960304 87.619175 
L 241.046105 91.890186 
L 242.131906 92.201938 
L 243.217708 85.81101 
L 244.303509 90.456124 
L 245.38931 86.496866 
L 246.475111 85.21868 
L 247.560912 87.058021 
L 248.646713 84.875753 
L 249.732514 86.902144 
L 250.818316 83.722268 
L 251.904117 86.839794 
L 252.989918 85.21868 
L 254.075719 82.631134 
L 255.16152 89.240289 
L 256.247321 88.024454 
L 257.333123 83.348165 
L 258.418924 81.54 
L 259.504725 85.998062 
L 260.590526 83.37934 
L 261.676327 83.31699 
L 262.762128 81.882928 
L 263.847929 82.880536 
L 264.933731 84.906928 
L 266.019532 86.465691 
L 267.105333 81.54 
L 268.191134 81.384124 
L 269.276935 79.607134 
L 270.362736 81.041196 
L 271.448538 81.352948 
L 272.534339 80.043588 
L 273.62014 80.88532 
L 274.705941 79.981237 
L 275.791742 81.477649 
L 276.877543 78.640701 
L 277.963344 79.950062 
L 279.049146 77.830144 
L 280.134947 79.233031 
L 281.220748 78.422474 
L 282.306549 80.168289 
L 283.39235 79.139505 
L 284.478151 78.921278 
L 285.563953 75.180247 
L 286.649754 79.451258 
L 287.735555 76.458433 
L 288.821356 78.391299 
L 289.907157 76.988412 
L 290.992958 80.261814 
L 292.07876 77.86132 
L 293.164561 74.650268 
L 294.250362 77.424866 
L 295.336163 76.645485 
L 296.421964 74.432041 
L 297.507765 73.902062 
L 298.593566 75.242598 
L 299.679368 75.367299 
L 300.765169 75.304948 
L 301.85097 74.276165 
L 302.936771 72.405649 
L 304.022572 73.995588 
L 305.108373 73.683835 
L 306.194175 72.468 
L 307.279976 72.530351 
L 308.365777 71.408041 
L 309.451578 72.810928 
L 310.537379 72.623876 
L 311.62318 70.535134 
L 312.708981 72.779753 
L 313.794783 72.561526 
L 314.880584 72.093897 
L 315.966385 69.256948 
L 317.052186 70.472784 
L 318.137987 70.192206 
L 319.223788 70.535134 
L 320.30959 70.753361 
L 321.395391 72.686227 
L 322.481192 67.947588 
L 323.566993 69.506351 
L 324.652794 67.66701 
L 325.738595 66.794103 
L 326.824396 67.168206 
L 327.910198 69.693402 
L 328.995999 66.918804 
L 330.0818 67.635835 
L 331.167601 66.139423 
L 333.339203 67.511134 
L 334.425005 66.887629 
L 335.510806 65.952371 
L 336.596607 65.640619 
L 337.682408 66.451175 
L 338.768209 65.360041 
L 339.85401 66.139423 
L 340.939811 65.110639 
L 342.025613 65.547093 
L 343.111414 64.892412 
L 344.197215 63.832454 
L 345.283016 62.959546 
L 346.368817 63.832454 
L 347.454618 62.74132 
L 348.54042 63.271299 
L 349.626221 61.899588 
L 350.712022 63.832454 
L 351.797823 64.175381 
L 352.883624 62.242515 
L 353.969425 61.993113 
L 355.055227 61.930763 
L 356.141028 61.587835 
L 357.226829 61.494309 
L 358.31263 61.743711 
L 359.398431 60.995505 
L 360.484232 59.748495 
L 361.570033 60.434351 
L 363.741636 60.278474 
L 364.827437 60.029072 
L 365.913238 60.340825 
L 366.999039 59.935546 
L 368.08484 60.060247 
L 369.170642 60.933155 
L 370.256443 59.654969 
L 371.342244 63.021897 
L 372.428045 62.304866 
L 373.513846 62.585443 
L 374.599647 62.336041 
L 375.685448 63.115423 
L 376.77125 63.053072 
L 377.857051 63.333649 
L 378.942852 62.959546 
L 380.028653 63.427175 
L 381.114454 62.772495 
L 382.200255 61.899588 
L 383.286057 64.362433 
L 384.371858 61.338433 
L 385.457659 62.21134 
L 387.629261 62.772495 
L 389.800863 62.055464 
L 390.886665 63.271299 
L 391.972466 63.053072 
L 394.144068 62.304866 
L 395.229869 61.774887 
L 396.31567 64.019505 
L 397.401472 61.806062 
L 398.487273 61.961938 
L 398.487273 61.961938 
" clip-path="url(#p284e454416)" style="fill: none; stroke: #ff7f0e; stroke-width: 1.5; stroke-linecap: square"/>
   </g>
   <g id="line2d_21">
    <path d="M 73.832727 284.259801 
L 74.918528 274.047216 
L 76.00433 251.687032 
L 77.090131 244.699474 
L 78.175932 219.221763 
L 79.261733 216.104237 
L 80.347534 210.514191 
L 81.433335 208.256673 
L 82.519137 206.966662 
L 84.690739 185.573985 
L 85.77654 190.94903 
L 86.862341 182.133957 
L 87.948142 176.54391 
L 89.033943 168.373843 
L 91.205546 167.621337 
L 92.291347 168.803846 
L 93.377148 165.57882 
L 94.462949 165.686321 
L 95.54875 204.494141 
L 96.634552 184.068973 
L 97.720353 182.133957 
L 98.806154 186.433992 
L 99.891955 178.693928 
L 100.977756 181.058948 
L 102.063557 174.931397 
L 103.149358 178.586427 
L 104.23516 171.491369 
L 105.320961 165.686321 
L 106.406762 166.331326 
L 108.578364 168.266342 
L 109.664165 159.881273 
L 110.749967 162.676296 
L 111.835768 167.298834 
L 112.921569 155.796239 
L 114.00737 159.021266 
L 115.093171 156.656246 
L 116.178972 150.206193 
L 117.264773 148.486178 
L 118.350575 151.173701 
L 119.436376 146.873665 
L 120.522177 144.401145 
L 121.607978 145.691155 
L 122.693779 146.443662 
L 123.77958 143.971141 
L 124.865382 144.831148 
L 125.951183 139.671106 
L 127.036984 135.586072 
L 128.122785 139.563605 
L 129.208586 137.306086 
L 130.294387 137.091084 
L 131.380189 136.446079 
L 132.46599 133.543555 
L 133.551791 133.113551 
L 134.637592 133.973558 
L 135.723393 132.361045 
L 136.809194 132.576047 
L 137.894995 131.823541 
L 138.980797 156.118742 
L 140.066598 160.74128 
L 141.152399 158.483761 
L 142.2382 159.021266 
L 143.324001 154.183726 
L 144.409802 158.806264 
L 145.495604 158.913765 
L 146.581405 154.398727 
L 147.667206 155.581237 
L 148.753007 155.473736 
L 149.838808 152.463711 
L 150.924609 155.688738 
L 152.01041 152.463711 
L 153.096212 150.851198 
L 154.182013 152.571212 
L 155.267814 147.948674 
L 156.353615 148.378678 
L 157.439416 145.368653 
L 158.525217 147.626171 
L 159.611019 145.476154 
L 160.69682 146.121159 
L 161.782621 139.993608 
L 162.868422 142.896132 
L 163.954223 142.788631 
L 165.040024 136.123576 
L 166.125825 141.928624 
L 167.211627 143.003633 
L 168.297428 138.918599 
L 169.383229 142.57363 
L 170.46903 136.983583 
L 171.554831 142.143626 
L 172.640632 140.853615 
L 173.726434 140.531113 
L 174.812235 135.263569 
L 175.898036 137.951091 
L 176.983837 135.156068 
L 178.069638 130.426029 
L 179.155439 135.263569 
L 180.24124 131.286036 
L 181.327042 131.178535 
L 182.412843 132.791049 
L 183.498644 130.748532 
L 184.584445 127.846008 
L 185.670246 127.523505 
L 186.756047 128.921017 
L 187.841849 128.16851 
L 188.92765 129.566022 
L 190.013451 128.06101 
L 191.099252 131.071034 
L 192.185053 123.975976 
L 193.270854 127.523505 
L 194.356656 126.233494 
L 195.442457 122.900967 
L 196.528258 124.190978 
L 197.614059 123.22347 
L 198.69986 123.438471 
L 199.785661 119.568439 
L 200.871462 120.320946 
L 201.957264 117.848425 
L 203.043065 118.170928 
L 205.214667 116.343413 
L 206.300468 118.493431 
L 207.386269 118.170928 
L 208.472071 115.268404 
L 209.557872 116.665915 
L 210.643673 116.02091 
L 211.729474 114.623399 
L 212.815275 115.160903 
L 213.901076 113.655891 
L 214.986877 114.730899 
L 216.072679 114.515898 
L 217.15848 114.8384 
L 218.244281 114.085894 
L 219.330082 114.085894 
L 220.415883 113.655891 
L 221.501684 112.473381 
L 222.587486 112.688383 
L 224.759088 113.655891 
L 225.844889 142.788631 
L 226.93069 151.281202 
L 228.016491 145.906157 
L 229.102292 143.648638 
L 230.188094 144.401145 
L 231.273895 145.691155 
L 232.359696 140.20861 
L 233.445497 145.04615 
L 234.531298 143.756139 
L 235.617099 140.20861 
L 236.702901 139.778606 
L 237.788702 143.648638 
L 238.874503 140.101109 
L 239.960304 139.886107 
L 241.046105 144.831148 
L 242.131906 142.57363 
L 243.217708 137.951091 
L 244.303509 144.186143 
L 245.38931 135.048567 
L 246.475111 137.091084 
L 247.560912 135.37107 
L 248.646713 133.866058 
L 249.732514 136.231077 
L 250.818316 135.801074 
L 251.904117 138.918599 
L 252.989918 135.908574 
L 254.075719 132.146043 
L 255.16152 137.84359 
L 257.333123 135.156068 
L 258.418924 132.89855 
L 259.504725 135.048567 
L 260.590526 129.673523 
L 261.676327 131.931042 
L 262.762128 131.931042 
L 263.847929 138.488596 
L 264.933731 134.081059 
L 266.019532 134.296061 
L 267.105333 129.136018 
L 268.191134 134.726065 
L 269.276935 133.651056 
L 270.362736 138.166093 
L 271.448538 127.201002 
L 272.534339 128.706015 
L 273.62014 135.048567 
L 274.705941 130.318528 
L 275.791742 134.726065 
L 276.877543 132.791049 
L 277.963344 130.211027 
L 279.049146 129.673523 
L 280.134947 127.523505 
L 281.220748 131.71604 
L 282.306549 129.673523 
L 283.39235 126.448496 
L 284.478151 126.8785 
L 285.563953 131.071034 
L 286.649754 129.566022 
L 287.735555 124.943484 
L 288.821356 127.631006 
L 289.907157 125.373487 
L 290.992958 129.566022 
L 292.07876 125.373487 
L 293.164561 120.535947 
L 294.250362 123.33097 
L 295.336163 126.8785 
L 296.421964 121.288454 
L 297.507765 120.643448 
L 298.593566 128.598514 
L 299.679368 127.846008 
L 300.765169 122.255962 
L 301.85097 126.018493 
L 302.936771 121.718457 
L 304.022572 121.395954 
L 305.108373 124.620981 
L 306.194175 117.740924 
L 307.279976 119.460938 
L 308.365777 122.578464 
L 309.451578 124.298478 
L 310.537379 120.965951 
L 311.62318 121.933459 
L 312.708981 121.503455 
L 313.794783 121.610956 
L 314.880584 118.493431 
L 315.966385 117.633423 
L 317.052186 120.105944 
L 318.137987 118.815933 
L 319.223788 115.805908 
L 320.30959 116.450914 
L 321.395391 118.493431 
L 323.566993 117.20342 
L 324.652794 114.623399 
L 325.738595 113.763391 
L 326.824396 114.515898 
L 327.910198 120.320946 
L 328.995999 116.558415 
L 330.0818 117.20342 
L 331.167601 113.118386 
L 332.253402 115.160903 
L 333.339203 118.923434 
L 334.425005 114.515898 
L 335.510806 111.613374 
L 336.596607 107.313338 
L 337.682408 113.655891 
L 338.768209 113.118386 
L 339.85401 115.483406 
L 340.939811 110.323363 
L 342.025613 111.290871 
L 343.111414 109.033352 
L 344.197215 113.54839 
L 345.283016 108.065844 
L 346.368817 112.36588 
L 347.454618 109.785859 
L 348.54042 111.398372 
L 350.712022 107.313338 
L 351.797823 110.753367 
L 352.883624 110.108361 
L 353.969425 110.753367 
L 355.055227 109.785859 
L 356.141028 110.00086 
L 357.226829 106.775834 
L 358.31263 105.270821 
L 359.398431 108.280846 
L 360.484232 106.238329 
L 361.570033 105.593324 
L 362.655835 105.16332 
L 363.741636 108.71085 
L 364.827437 106.668333 
L 365.913238 107.205837 
L 368.08484 106.668333 
L 369.170642 106.238329 
L 370.256443 108.603349 
L 371.342244 112.36588 
L 372.428045 110.645866 
L 373.513846 112.473381 
L 374.599647 108.818351 
L 375.685448 107.743342 
L 376.77125 111.613374 
L 377.857051 110.753367 
L 378.942852 110.753367 
L 380.028653 113.010885 
L 381.114454 111.398372 
L 383.286057 111.290871 
L 384.371858 110.430864 
L 385.457659 109.140853 
L 386.54346 106.34583 
L 387.629261 108.495848 
L 388.715062 109.570857 
L 389.800863 110.860867 
L 390.886665 109.893359 
L 391.972466 112.580882 
L 393.058267 109.785859 
L 394.144068 109.463356 
L 395.229869 110.215862 
L 396.31567 108.818351 
L 397.401472 110.215862 
L 398.487273 108.495848 
L 398.487273 108.495848 
" clip-path="url(#p284e454416)" style="fill: none; stroke: #2ca02c; stroke-width: 1.5; stroke-linecap: square"/>
   </g>
   <g id="line2d_22">
    <path d="M 368.08484 59.374392 
L 369.170642 59.748495 
L 370.256443 59.499093 
L 371.342244 59.623794 
L 372.428045 59.966722 
L 373.513846 60.465526 
L 374.599647 59.71732 
L 375.685448 60.527876 
L 376.77125 61.02668 
L 377.857051 61.681361 
L 378.942852 61.712536 
L 380.028653 61.307258 
L 381.114454 60.590227 
L 382.200255 61.681361 
L 383.286057 61.743711 
L 384.371858 63.302474 
L 385.457659 62.80367 
L 386.54346 62.928371 
L 387.629261 62.304866 
L 388.715062 61.837237 
L 389.800863 65.890021 
L 391.972466 62.710144 
L 393.058267 62.616619 
L 394.144068 63.396 
L 395.229869 64.954763 
L 396.31567 65.702969 
L 397.401472 65.079464 
L 398.487273 65.82767 
L 398.487273 65.82767 
" clip-path="url(#p284e454416)" style="fill: none; stroke: #d62728; stroke-width: 1.5; stroke-linecap: square"/>
   </g>
   <g id="line2d_23">
    <path d="M 368.08484 104.948319 
L 369.170642 106.023327 
L 370.256443 106.560832 
L 371.342244 108.173345 
L 372.428045 109.248354 
L 373.513846 107.743342 
L 374.599647 107.098336 
L 375.685448 107.635841 
L 376.77125 106.453331 
L 377.857051 108.603349 
L 378.942852 111.398372 
L 380.028653 106.238329 
L 381.114454 107.743342 
L 382.200255 104.948319 
L 383.286057 105.16332 
L 385.457659 108.495848 
L 386.54346 106.668333 
L 387.629261 107.313338 
L 388.715062 106.668333 
L 389.800863 111.720875 
L 390.886665 108.925851 
L 391.972466 106.990835 
L 393.058267 107.205837 
L 394.144068 110.538365 
L 395.229869 110.108361 
L 396.31567 111.505873 
L 397.401472 108.388347 
L 398.487273 111.505873 
L 398.487273 111.505873 
" clip-path="url(#p284e454416)" style="fill: none; stroke: #9467bd; stroke-width: 1.5; stroke-linecap: square"/>
   </g>
   <g id="patch_3">
    <path d="M 57.6 307.584 
L 57.6 41.472 
" style="fill: none; stroke: #000000; stroke-width: 0.8; stroke-linejoin: miter; stroke-linecap: square"/>
   </g>
   <g id="patch_4">
    <path d="M 414.72 307.584 
L 414.72 41.472 
" style="fill: none; stroke: #000000; stroke-width: 0.8; stroke-linejoin: miter; stroke-linecap: square"/>
   </g>
   <g id="patch_5">
    <path d="M 57.6 307.584 
L 414.72 307.584 
" style="fill: none; stroke: #000000; stroke-width: 0.8; stroke-linejoin: miter; stroke-linecap: square"/>
   </g>
   <g id="patch_6">
    <path d="M 57.6 41.472 
L 414.72 41.472 
" style="fill: none; stroke: #000000; stroke-width: 0.8; stroke-linejoin: miter; stroke-linecap: square"/>
   </g>
   <g id="text_21">
    <!-- Learning Curves -->
    <g transform="translate(187.37625 35.472) scale(0.12 -0.12)">
     <defs>
      <path id="DejaVuSans-4c" d="M 628 4666 
L 1259 4666 
L 1259 531 
L 3531 531 
L 3531 0 
L 628 0 
L 628 4666 
z
" transform="scale(0.015625)"/>
      <path id="DejaVuSans-65" d="M 3597 1894 
L 3597 1613 
L 953 1613 
Q 991 1019 1311 708 
Q 1631 397 2203 397 
Q 2534 397 2845 478 
Q 3156 559 3463 722 
L 3463 178 
Q 3153 47 2828 -22 
Q 2503 -91 2169 -91 
Q 1331 -91 842 396 
Q 353 884 353 1716 
Q 353 2575 817 3079 
Q 1281 3584 2069 3584 
Q 2775 3584 3186 3129 
Q 3597 2675 3597 1894 
z
M 3022 2063 
Q 3016 2534 2758 2815 
Q 2500 3097 2075 3097 
Q 1594 3097 1305 2825 
Q 1016 2553 972 2059 
L 3022 2063 
z
" transform="scale(0.015625)"/>
      <path id="DejaVuSans-6e" d="M 3513 2113 
L 3513 0 
L 2938 0 
L 2938 2094 
Q 2938 2591 2744 2837 
Q 2550 3084 2163 3084 
Q 1697 3084 1428 2787 
Q 1159 2491 1159 1978 
L 1159 0 
L 581 0 
L 581 3500 
L 1159 3500 
L 1159 2956 
Q 1366 3272 1645 3428 
Q 1925 3584 2291 3584 
Q 2894 3584 3203 3211 
Q 3513 2838 3513 2113 
z
" transform="scale(0.015625)"/>
      <path id="DejaVuSans-69" d="M 603 3500 
L 1178 3500 
L 1178 0 
L 603 0 
L 603 3500 
z
M 603 4863 
L 1178 4863 
L 1178 4134 
L 603 4134 
L 603 4863 
z
" transform="scale(0.015625)"/>
      <path id="DejaVuSans-67" d="M 2906 1791 
Q 2906 2416 2648 2759 
Q 2391 3103 1925 3103 
Q 1463 3103 1205 2759 
Q 947 2416 947 1791 
Q 947 1169 1205 825 
Q 1463 481 1925 481 
Q 2391 481 2648 825 
Q 2906 1169 2906 1791 
z
M 3481 434 
Q 3481 -459 3084 -895 
Q 2688 -1331 1869 -1331 
Q 1566 -1331 1297 -1286 
Q 1028 -1241 775 -1147 
L 775 -588 
Q 1028 -725 1275 -790 
Q 1522 -856 1778 -856 
Q 2344 -856 2625 -561 
Q 2906 -266 2906 331 
L 2906 616 
Q 2728 306 2450 153 
Q 2172 0 1784 0 
Q 1141 0 747 490 
Q 353 981 353 1791 
Q 353 2603 747 3093 
Q 1141 3584 1784 3584 
Q 2172 3584 2450 3431 
Q 2728 3278 2906 2969 
L 2906 3500 
L 3481 3500 
L 3481 434 
z
" transform="scale(0.015625)"/>
      <path id="DejaVuSans-20" transform="scale(0.015625)"/>
      <path id="DejaVuSans-43" d="M 4122 4306 
L 4122 3641 
Q 3803 3938 3442 4084 
Q 3081 4231 2675 4231 
Q 1875 4231 1450 3742 
Q 1025 3253 1025 2328 
Q 1025 1406 1450 917 
Q 1875 428 2675 428 
Q 3081 428 3442 575 
Q 3803 722 4122 1019 
L 4122 359 
Q 3791 134 3420 21 
Q 3050 -91 2638 -91 
Q 1578 -91 968 557 
Q 359 1206 359 2328 
Q 359 3453 968 4101 
Q 1578 4750 2638 4750 
Q 3056 4750 3426 4639 
Q 3797 4528 4122 4306 
z
" transform="scale(0.015625)"/>
      <path id="DejaVuSans-76" d="M 191 3500 
L 800 3500 
L 1894 563 
L 2988 3500 
L 3597 3500 
L 2284 0 
L 1503 0 
L 191 3500 
z
" transform="scale(0.015625)"/>
     </defs>
     <use xlink:href="#DejaVuSans-4c"/>
     <use xlink:href="#DejaVuSans-65" x="53.962891"/>
     <use xlink:href="#DejaVuSans-61" x="115.486328"/>
     <use xlink:href="#DejaVuSans-72" x="176.765625"/>
     <use xlink:href="#DejaVuSans-6e" x="216.128906"/>
     <use xlink:href="#DejaVuSans-69" x="279.507812"/>
     <use xlink:href="#DejaVuSans-6e" x="307.291016"/>
     <use xlink:href="#DejaVuSans-67" x="370.669922"/>
     <use xlink:href="#DejaVuSans-20" x="434.146484"/>
     <use xlink:href="#DejaVuSans-43" x="465.933594"/>
     <use xlink:href="#DejaVuSans-75" x="535.757812"/>
     <use xlink:href="#DejaVuSans-72" x="599.136719"/>
     <use xlink:href="#DejaVuSans-76" x="640.25"/>
     <use xlink:href="#DejaVuSans-65" x="699.429688"/>
     <use xlink:href="#DejaVuSans-73" x="760.953125"/>
    </g>
   </g>
   <g id="legend_1">
    <g id="patch_7">
     <path d="M 214.18875 302.584 
L 407.72 302.584 
Q 409.72 302.584 409.72 300.584 
L 409.72 228.193375 
Q 409.72 226.193375 407.72 226.193375 
L 214.18875 226.193375 
Q 212.18875 226.193375 212.18875 228.193375 
L 212.18875 300.584 
Q 212.18875 302.584 214.18875 302.584 
z
" style="fill: #ffffff; opacity: 0.8; stroke: #cccccc; stroke-linejoin: miter"/>
    </g>
    <g id="line2d_24">
     <path d="M 216.18875 234.291812 
L 226.18875 234.291812 
L 236.18875 234.291812 
" style="fill: none; stroke: #1f77b4; stroke-width: 1.5; stroke-linecap: square"/>
    </g>
    <g id="text_22">
     <!-- Train Accuracy -->
     <g transform="translate(244.18875 237.791812) scale(0.1 -0.1)">
      <defs>
       <path id="DejaVuSans-54" d="M -19 4666 
L 3928 4666 
L 3928 4134 
L 2272 4134 
L 2272 0 
L 1638 0 
L 1638 4134 
L -19 4134 
L -19 4666 
z
" transform="scale(0.015625)"/>
      </defs>
      <use xlink:href="#DejaVuSans-54"/>
      <use xlink:href="#DejaVuSans-72" x="46.333984"/>
      <use xlink:href="#DejaVuSans-61" x="87.447266"/>
      <use xlink:href="#DejaVuSans-69" x="148.726562"/>
      <use xlink:href="#DejaVuSans-6e" x="176.509766"/>
      <use xlink:href="#DejaVuSans-20" x="239.888672"/>
      <use xlink:href="#DejaVuSans-41" x="271.675781"/>
      <use xlink:href="#DejaVuSans-63" x="338.333984"/>
      <use xlink:href="#DejaVuSans-63" x="393.314453"/>
      <use xlink:href="#DejaVuSans-75" x="448.294922"/>
      <use xlink:href="#DejaVuSans-72" x="511.673828"/>
      <use xlink:href="#DejaVuSans-61" x="552.787109"/>
      <use xlink:href="#DejaVuSans-63" x="614.066406"/>
      <use xlink:href="#DejaVuSans-79" x="669.046875"/>
     </g>
    </g>
    <g id="line2d_25">
     <path d="M 216.18875 248.969937 
L 226.18875 248.969937 
L 236.18875 248.969937 
" style="fill: none; stroke: #ff7f0e; stroke-width: 1.5; stroke-linecap: square"/>
    </g>
    <g id="text_23">
     <!-- Validation Accuracy -->
     <g transform="translate(244.18875 252.469937) scale(0.1 -0.1)">
      <defs>
       <path id="DejaVuSans-56" d="M 1831 0 
L 50 4666 
L 709 4666 
L 2188 738 
L 3669 4666 
L 4325 4666 
L 2547 0 
L 1831 0 
z
" transform="scale(0.015625)"/>
       <path id="DejaVuSans-6c" d="M 603 4863 
L 1178 4863 
L 1178 0 
L 603 0 
L 603 4863 
z
" transform="scale(0.015625)"/>
       <path id="DejaVuSans-64" d="M 2906 2969 
L 2906 4863 
L 3481 4863 
L 3481 0 
L 2906 0 
L 2906 525 
Q 2725 213 2448 61 
Q 2172 -91 1784 -91 
Q 1150 -91 751 415 
Q 353 922 353 1747 
Q 353 2572 751 3078 
Q 1150 3584 1784 3584 
Q 2172 3584 2448 3432 
Q 2725 3281 2906 2969 
z
M 947 1747 
Q 947 1113 1208 752 
Q 1469 391 1925 391 
Q 2381 391 2643 752 
Q 2906 1113 2906 1747 
Q 2906 2381 2643 2742 
Q 2381 3103 1925 3103 
Q 1469 3103 1208 2742 
Q 947 2381 947 1747 
z
" transform="scale(0.015625)"/>
       <path id="DejaVuSans-74" d="M 1172 4494 
L 1172 3500 
L 2356 3500 
L 2356 3053 
L 1172 3053 
L 1172 1153 
Q 1172 725 1289 603 
Q 1406 481 1766 481 
L 2356 481 
L 2356 0 
L 1766 0 
Q 1100 0 847 248 
Q 594 497 594 1153 
L 594 3053 
L 172 3053 
L 172 3500 
L 594 3500 
L 594 4494 
L 1172 4494 
z
" transform="scale(0.015625)"/>
      </defs>
      <use xlink:href="#DejaVuSans-56"/>
      <use xlink:href="#DejaVuSans-61" x="60.658203"/>
      <use xlink:href="#DejaVuSans-6c" x="121.9375"/>
      <use xlink:href="#DejaVuSans-69" x="149.720703"/>
      <use xlink:href="#DejaVuSans-64" x="177.503906"/>
      <use xlink:href="#DejaVuSans-61" x="240.980469"/>
      <use xlink:href="#DejaVuSans-74" x="302.259766"/>
      <use xlink:href="#DejaVuSans-69" x="341.46875"/>
      <use xlink:href="#DejaVuSans-6f" x="369.251953"/>
      <use xlink:href="#DejaVuSans-6e" x="430.433594"/>
      <use xlink:href="#DejaVuSans-20" x="493.8125"/>
      <use xlink:href="#DejaVuSans-41" x="525.599609"/>
      <use xlink:href="#DejaVuSans-63" x="592.257812"/>
      <use xlink:href="#DejaVuSans-63" x="647.238281"/>
      <use xlink:href="#DejaVuSans-75" x="702.21875"/>
      <use xlink:href="#DejaVuSans-72" x="765.597656"/>
      <use xlink:href="#DejaVuSans-61" x="806.710938"/>
      <use xlink:href="#DejaVuSans-63" x="867.990234"/>
      <use xlink:href="#DejaVuSans-79" x="922.970703"/>
     </g>
    </g>
    <g id="line2d_26">
     <path d="M 216.18875 263.648062 
L 226.18875 263.648062 
L 236.18875 263.648062 
" style="fill: none; stroke: #2ca02c; stroke-width: 1.5; stroke-linecap: square"/>
    </g>
    <g id="text_24">
     <!-- Robust Validation Accuracy -->
     <g transform="translate(244.18875 267.148062) scale(0.1 -0.1)">
      <defs>
       <path id="DejaVuSans-52" d="M 2841 2188 
Q 3044 2119 3236 1894 
Q 3428 1669 3622 1275 
L 4263 0 
L 3584 0 
L 2988 1197 
Q 2756 1666 2539 1819 
Q 2322 1972 1947 1972 
L 1259 1972 
L 1259 0 
L 628 0 
L 628 4666 
L 2053 4666 
Q 2853 4666 3247 4331 
Q 3641 3997 3641 3322 
Q 3641 2881 3436 2590 
Q 3231 2300 2841 2188 
z
M 1259 4147 
L 1259 2491 
L 2053 2491 
Q 2509 2491 2742 2702 
Q 2975 2913 2975 3322 
Q 2975 3731 2742 3939 
Q 2509 4147 2053 4147 
L 1259 4147 
z
" transform="scale(0.015625)"/>
       <path id="DejaVuSans-62" d="M 3116 1747 
Q 3116 2381 2855 2742 
Q 2594 3103 2138 3103 
Q 1681 3103 1420 2742 
Q 1159 2381 1159 1747 
Q 1159 1113 1420 752 
Q 1681 391 2138 391 
Q 2594 391 2855 752 
Q 3116 1113 3116 1747 
z
M 1159 2969 
Q 1341 3281 1617 3432 
Q 1894 3584 2278 3584 
Q 2916 3584 3314 3078 
Q 3713 2572 3713 1747 
Q 3713 922 3314 415 
Q 2916 -91 2278 -91 
Q 1894 -91 1617 61 
Q 1341 213 1159 525 
L 1159 0 
L 581 0 
L 581 4863 
L 1159 4863 
L 1159 2969 
z
" transform="scale(0.015625)"/>
      </defs>
      <use xlink:href="#DejaVuSans-52"/>
      <use xlink:href="#DejaVuSans-6f" x="64.982422"/>
      <use xlink:href="#DejaVuSans-62" x="126.164062"/>
      <use xlink:href="#DejaVuSans-75" x="189.640625"/>
      <use xlink:href="#DejaVuSans-73" x="253.019531"/>
      <use xlink:href="#DejaVuSans-74" x="305.119141"/>
      <use xlink:href="#DejaVuSans-20" x="344.328125"/>
      <use xlink:href="#DejaVuSans-56" x="376.115234"/>
      <use xlink:href="#DejaVuSans-61" x="436.773438"/>
      <use xlink:href="#DejaVuSans-6c" x="498.052734"/>
      <use xlink:href="#DejaVuSans-69" x="525.835938"/>
      <use xlink:href="#DejaVuSans-64" x="553.619141"/>
      <use xlink:href="#DejaVuSans-61" x="617.095703"/>
      <use xlink:href="#DejaVuSans-74" x="678.375"/>
      <use xlink:href="#DejaVuSans-69" x="717.583984"/>
      <use xlink:href="#DejaVuSans-6f" x="745.367188"/>
      <use xlink:href="#DejaVuSans-6e" x="806.548828"/>
      <use xlink:href="#DejaVuSans-20" x="869.927734"/>
      <use xlink:href="#DejaVuSans-41" x="901.714844"/>
      <use xlink:href="#DejaVuSans-63" x="968.373047"/>
      <use xlink:href="#DejaVuSans-63" x="1023.353516"/>
      <use xlink:href="#DejaVuSans-75" x="1078.333984"/>
      <use xlink:href="#DejaVuSans-72" x="1141.712891"/>
      <use xlink:href="#DejaVuSans-61" x="1182.826172"/>
      <use xlink:href="#DejaVuSans-63" x="1244.105469"/>
      <use xlink:href="#DejaVuSans-79" x="1299.085938"/>
     </g>
    </g>
    <g id="line2d_27">
     <path d="M 216.18875 278.326188 
L 226.18875 278.326188 
L 236.18875 278.326188 
" style="fill: none; stroke: #d62728; stroke-width: 1.5; stroke-linecap: square"/>
    </g>
    <g id="text_25">
     <!-- SWA Validation Accuracy -->
     <g transform="translate(244.18875 281.826188) scale(0.1 -0.1)">
      <defs>
       <path id="DejaVuSans-53" d="M 3425 4513 
L 3425 3897 
Q 3066 4069 2747 4153 
Q 2428 4238 2131 4238 
Q 1616 4238 1336 4038 
Q 1056 3838 1056 3469 
Q 1056 3159 1242 3001 
Q 1428 2844 1947 2747 
L 2328 2669 
Q 3034 2534 3370 2195 
Q 3706 1856 3706 1288 
Q 3706 609 3251 259 
Q 2797 -91 1919 -91 
Q 1588 -91 1214 -16 
Q 841 59 441 206 
L 441 856 
Q 825 641 1194 531 
Q 1563 422 1919 422 
Q 2459 422 2753 634 
Q 3047 847 3047 1241 
Q 3047 1584 2836 1778 
Q 2625 1972 2144 2069 
L 1759 2144 
Q 1053 2284 737 2584 
Q 422 2884 422 3419 
Q 422 4038 858 4394 
Q 1294 4750 2059 4750 
Q 2388 4750 2728 4690 
Q 3069 4631 3425 4513 
z
" transform="scale(0.015625)"/>
       <path id="DejaVuSans-57" d="M 213 4666 
L 850 4666 
L 1831 722 
L 2809 4666 
L 3519 4666 
L 4500 722 
L 5478 4666 
L 6119 4666 
L 4947 0 
L 4153 0 
L 3169 4050 
L 2175 0 
L 1381 0 
L 213 4666 
z
" transform="scale(0.015625)"/>
      </defs>
      <use xlink:href="#DejaVuSans-53"/>
      <use xlink:href="#DejaVuSans-57" x="63.476562"/>
      <use xlink:href="#DejaVuSans-41" x="156.853516"/>
      <use xlink:href="#DejaVuSans-20" x="225.261719"/>
      <use xlink:href="#DejaVuSans-56" x="257.048828"/>
      <use xlink:href="#DejaVuSans-61" x="317.707031"/>
      <use xlink:href="#DejaVuSans-6c" x="378.986328"/>
      <use xlink:href="#DejaVuSans-69" x="406.769531"/>
      <use xlink:href="#DejaVuSans-64" x="434.552734"/>
      <use xlink:href="#DejaVuSans-61" x="498.029297"/>
      <use xlink:href="#DejaVuSans-74" x="559.308594"/>
      <use xlink:href="#DejaVuSans-69" x="598.517578"/>
      <use xlink:href="#DejaVuSans-6f" x="626.300781"/>
      <use xlink:href="#DejaVuSans-6e" x="687.482422"/>
      <use xlink:href="#DejaVuSans-20" x="750.861328"/>
      <use xlink:href="#DejaVuSans-41" x="782.648438"/>
      <use xlink:href="#DejaVuSans-63" x="849.306641"/>
      <use xlink:href="#DejaVuSans-63" x="904.287109"/>
      <use xlink:href="#DejaVuSans-75" x="959.267578"/>
      <use xlink:href="#DejaVuSans-72" x="1022.646484"/>
      <use xlink:href="#DejaVuSans-61" x="1063.759766"/>
      <use xlink:href="#DejaVuSans-63" x="1125.039062"/>
      <use xlink:href="#DejaVuSans-79" x="1180.019531"/>
     </g>
    </g>
    <g id="line2d_28">
     <path d="M 216.18875 293.004312 
L 226.18875 293.004312 
L 236.18875 293.004312 
" style="fill: none; stroke: #9467bd; stroke-width: 1.5; stroke-linecap: square"/>
    </g>
    <g id="text_26">
     <!-- SWA Robust Validation Accuracy -->
     <g transform="translate(244.18875 296.504312) scale(0.1 -0.1)">
      <use xlink:href="#DejaVuSans-53"/>
      <use xlink:href="#DejaVuSans-57" x="63.476562"/>
      <use xlink:href="#DejaVuSans-41" x="156.853516"/>
      <use xlink:href="#DejaVuSans-20" x="225.261719"/>
      <use xlink:href="#DejaVuSans-52" x="257.048828"/>
      <use xlink:href="#DejaVuSans-6f" x="322.03125"/>
      <use xlink:href="#DejaVuSans-62" x="383.212891"/>
      <use xlink:href="#DejaVuSans-75" x="446.689453"/>
      <use xlink:href="#DejaVuSans-73" x="510.068359"/>
      <use xlink:href="#DejaVuSans-74" x="562.167969"/>
      <use xlink:href="#DejaVuSans-20" x="601.376953"/>
      <use xlink:href="#DejaVuSans-56" x="633.164062"/>
      <use xlink:href="#DejaVuSans-61" x="693.822266"/>
      <use xlink:href="#DejaVuSans-6c" x="755.101562"/>
      <use xlink:href="#DejaVuSans-69" x="782.884766"/>
      <use xlink:href="#DejaVuSans-64" x="810.667969"/>
      <use xlink:href="#DejaVuSans-61" x="874.144531"/>
      <use xlink:href="#DejaVuSans-74" x="935.423828"/>
      <use xlink:href="#DejaVuSans-69" x="974.632812"/>
      <use xlink:href="#DejaVuSans-6f" x="1002.416016"/>
      <use xlink:href="#DejaVuSans-6e" x="1063.597656"/>
      <use xlink:href="#DejaVuSans-20" x="1126.976562"/>
      <use xlink:href="#DejaVuSans-41" x="1158.763672"/>
      <use xlink:href="#DejaVuSans-63" x="1225.421875"/>
      <use xlink:href="#DejaVuSans-63" x="1280.402344"/>
      <use xlink:href="#DejaVuSans-75" x="1335.382812"/>
      <use xlink:href="#DejaVuSans-72" x="1398.761719"/>
      <use xlink:href="#DejaVuSans-61" x="1439.875"/>
      <use xlink:href="#DejaVuSans-63" x="1501.154297"/>
      <use xlink:href="#DejaVuSans-79" x="1556.134766"/>
     </g>
    </g>
   </g>
  </g>
 </g>
 <defs>
  <clipPath id="p284e454416">
   <rect x="57.6" y="41.472" width="357.12" height="266.112"/>
  </clipPath>
 </defs>
</svg>
