<?xml version="1.0" encoding="utf-8" standalone="no"?>
<!DOCTYPE svg PUBLIC "-//W3C//DTD SVG 1.1//EN"
  "http://www.w3.org/Graphics/SVG/1.1/DTD/svg11.dtd">
<svg xmlns:xlink="http://www.w3.org/1999/xlink" width="460.8pt" height="345.6pt" viewBox="0 0 460.8 345.6" xmlns="http://www.w3.org/2000/svg" version="1.1">
 <metadata>
  <rdf:RDF xmlns:dc="http://purl.org/dc/elements/1.1/" xmlns:cc="http://creativecommons.org/ns#" xmlns:rdf="http://www.w3.org/1999/02/22-rdf-syntax-ns#">
   <cc:Work>
    <dc:type rdf:resource="http://purl.org/dc/dcmitype/StillImage"/>
    <dc:date>2025-08-14T12:52:00.811287</dc:date>
    <dc:format>image/svg+xml</dc:format>
    <dc:creator>
     <cc:Agent>
      <dc:title>Matplotlib v3.9.1, https://matplotlib.org/</dc:title>
     </cc:Agent>
    </dc:creator>
   </cc:Work>
  </rdf:RDF>
 </metadata>
 <defs>
  <style type="text/css">*{stroke-linejoin: round; stroke-linecap: butt}</style>
 </defs>
 <g id="figure_1">
  <g id="patch_1">
   <path d="M 0 345.6 
L 460.8 345.6 
L 460.8 0 
L 0 0 
z
" style="fill: #ffffff"/>
  </g>
  <g id="axes_1">
   <g id="patch_2">
    <path d="M 57.6 307.584 
L 414.72 307.584 
L 414.72 41.472 
L 57.6 41.472 
z
" style="fill: #ffffff"/>
   </g>
   <g id="matplotlib.axis_1">
    <g id="xtick_1">
     <g id="line2d_1">
      <defs>
       <path id="m03213c9072" d="M 0 0 
L 0 3.5 
" style="stroke: #000000; stroke-width: 0.8"/>
      </defs>
      <g>
       <use xlink:href="#m03213c9072" x="73.832727" y="307.584" style="stroke: #000000; stroke-width: 0.8"/>
      </g>
     </g>
     <g id="text_1">
      <!-- 1 -->
      <g transform="translate(70.651477 322.182437) scale(0.1 -0.1)">
       <defs>
        <path id="DejaVuSans-31" d="M 794 531 
L 1825 531 
L 1825 4091 
L 703 3866 
L 703 4441 
L 1819 4666 
L 2450 4666 
L 2450 531 
L 3481 531 
L 3481 0 
L 794 0 
L 794 531 
z
" transform="scale(0.015625)"/>
       </defs>
       <use xlink:href="#DejaVuSans-31"/>
      </g>
     </g>
    </g>
    <g id="xtick_2">
     <g id="line2d_2">
      <g>
       <use xlink:href="#m03213c9072" x="109.664165" y="307.584" style="stroke: #000000; stroke-width: 0.8"/>
      </g>
     </g>
     <g id="text_2">
      <!-- 34 -->
      <g transform="translate(103.301665 322.182437) scale(0.1 -0.1)">
       <defs>
        <path id="DejaVuSans-33" d="M 2597 2516 
Q 3050 2419 3304 2112 
Q 3559 1806 3559 1356 
Q 3559 666 3084 287 
Q 2609 -91 1734 -91 
Q 1441 -91 1130 -33 
Q 819 25 488 141 
L 488 750 
Q 750 597 1062 519 
Q 1375 441 1716 441 
Q 2309 441 2620 675 
Q 2931 909 2931 1356 
Q 2931 1769 2642 2001 
Q 2353 2234 1838 2234 
L 1294 2234 
L 1294 2753 
L 1863 2753 
Q 2328 2753 2575 2939 
Q 2822 3125 2822 3475 
Q 2822 3834 2567 4026 
Q 2313 4219 1838 4219 
Q 1578 4219 1281 4162 
Q 984 4106 628 3988 
L 628 4550 
Q 988 4650 1302 4700 
Q 1616 4750 1894 4750 
Q 2613 4750 3031 4423 
Q 3450 4097 3450 3541 
Q 3450 3153 3228 2886 
Q 3006 2619 2597 2516 
z
" transform="scale(0.015625)"/>
        <path id="DejaVuSans-34" d="M 2419 4116 
L 825 1625 
L 2419 1625 
L 2419 4116 
z
M 2253 4666 
L 3047 4666 
L 3047 1625 
L 3713 1625 
L 3713 1100 
L 3047 1100 
L 3047 0 
L 2419 0 
L 2419 1100 
L 313 1100 
L 313 1709 
L 2253 4666 
z
" transform="scale(0.015625)"/>
       </defs>
       <use xlink:href="#DejaVuSans-33"/>
       <use xlink:href="#DejaVuSans-34" x="63.623047"/>
      </g>
     </g>
    </g>
    <g id="xtick_3">
     <g id="line2d_3">
      <g>
       <use xlink:href="#m03213c9072" x="145.495604" y="307.584" style="stroke: #000000; stroke-width: 0.8"/>
      </g>
     </g>
     <g id="text_3">
      <!-- 67 -->
      <g transform="translate(139.133104 322.182437) scale(0.1 -0.1)">
       <defs>
        <path id="DejaVuSans-36" d="M 2113 2584 
Q 1688 2584 1439 2293 
Q 1191 2003 1191 1497 
Q 1191 994 1439 701 
Q 1688 409 2113 409 
Q 2538 409 2786 701 
Q 3034 994 3034 1497 
Q 3034 2003 2786 2293 
Q 2538 2584 2113 2584 
z
M 3366 4563 
L 3366 3988 
Q 3128 4100 2886 4159 
Q 2644 4219 2406 4219 
Q 1781 4219 1451 3797 
Q 1122 3375 1075 2522 
Q 1259 2794 1537 2939 
Q 1816 3084 2150 3084 
Q 2853 3084 3261 2657 
Q 3669 2231 3669 1497 
Q 3669 778 3244 343 
Q 2819 -91 2113 -91 
Q 1303 -91 875 529 
Q 447 1150 447 2328 
Q 447 3434 972 4092 
Q 1497 4750 2381 4750 
Q 2619 4750 2861 4703 
Q 3103 4656 3366 4563 
z
" transform="scale(0.015625)"/>
        <path id="DejaVuSans-37" d="M 525 4666 
L 3525 4666 
L 3525 4397 
L 1831 0 
L 1172 0 
L 2766 4134 
L 525 4134 
L 525 4666 
z
" transform="scale(0.015625)"/>
       </defs>
       <use xlink:href="#DejaVuSans-36"/>
       <use xlink:href="#DejaVuSans-37" x="63.623047"/>
      </g>
     </g>
    </g>
    <g id="xtick_4">
     <g id="line2d_4">
      <g>
       <use xlink:href="#m03213c9072" x="181.327042" y="307.584" style="stroke: #000000; stroke-width: 0.8"/>
      </g>
     </g>
     <g id="text_4">
      <!-- 100 -->
      <g transform="translate(171.783292 322.182437) scale(0.1 -0.1)">
       <defs>
        <path id="DejaVuSans-30" d="M 2034 4250 
Q 1547 4250 1301 3770 
Q 1056 3291 1056 2328 
Q 1056 1369 1301 889 
Q 1547 409 2034 409 
Q 2525 409 2770 889 
Q 3016 1369 3016 2328 
Q 3016 3291 2770 3770 
Q 2525 4250 2034 4250 
z
M 2034 4750 
Q 2819 4750 3233 4129 
Q 3647 3509 3647 2328 
Q 3647 1150 3233 529 
Q 2819 -91 2034 -91 
Q 1250 -91 836 529 
Q 422 1150 422 2328 
Q 422 3509 836 4129 
Q 1250 4750 2034 4750 
z
" transform="scale(0.015625)"/>
       </defs>
       <use xlink:href="#DejaVuSans-31"/>
       <use xlink:href="#DejaVuSans-30" x="63.623047"/>
       <use xlink:href="#DejaVuSans-30" x="127.246094"/>
      </g>
     </g>
    </g>
    <g id="xtick_5">
     <g id="line2d_5">
      <g>
       <use xlink:href="#m03213c9072" x="217.15848" y="307.584" style="stroke: #000000; stroke-width: 0.8"/>
      </g>
     </g>
     <g id="text_5">
      <!-- 133 -->
      <g transform="translate(207.61473 322.182437) scale(0.1 -0.1)">
       <use xlink:href="#DejaVuSans-31"/>
       <use xlink:href="#DejaVuSans-33" x="63.623047"/>
       <use xlink:href="#DejaVuSans-33" x="127.246094"/>
      </g>
     </g>
    </g>
    <g id="xtick_6">
     <g id="line2d_6">
      <g>
       <use xlink:href="#m03213c9072" x="254.075719" y="307.584" style="stroke: #000000; stroke-width: 0.8"/>
      </g>
     </g>
     <g id="text_6">
      <!-- 167 -->
      <g transform="translate(244.531969 322.182437) scale(0.1 -0.1)">
       <use xlink:href="#DejaVuSans-31"/>
       <use xlink:href="#DejaVuSans-36" x="63.623047"/>
       <use xlink:href="#DejaVuSans-37" x="127.246094"/>
      </g>
     </g>
    </g>
    <g id="xtick_7">
     <g id="line2d_7">
      <g>
       <use xlink:href="#m03213c9072" x="289.907157" y="307.584" style="stroke: #000000; stroke-width: 0.8"/>
      </g>
     </g>
     <g id="text_7">
      <!-- 200 -->
      <g transform="translate(280.363407 322.182437) scale(0.1 -0.1)">
       <defs>
        <path id="DejaVuSans-32" d="M 1228 531 
L 3431 531 
L 3431 0 
L 469 0 
L 469 531 
Q 828 903 1448 1529 
Q 2069 2156 2228 2338 
Q 2531 2678 2651 2914 
Q 2772 3150 2772 3378 
Q 2772 3750 2511 3984 
Q 2250 4219 1831 4219 
Q 1534 4219 1204 4116 
Q 875 4013 500 3803 
L 500 4441 
Q 881 4594 1212 4672 
Q 1544 4750 1819 4750 
Q 2544 4750 2975 4387 
Q 3406 4025 3406 3419 
Q 3406 3131 3298 2873 
Q 3191 2616 2906 2266 
Q 2828 2175 2409 1742 
Q 1991 1309 1228 531 
z
" transform="scale(0.015625)"/>
       </defs>
       <use xlink:href="#DejaVuSans-32"/>
       <use xlink:href="#DejaVuSans-30" x="63.623047"/>
       <use xlink:href="#DejaVuSans-30" x="127.246094"/>
      </g>
     </g>
    </g>
    <g id="xtick_8">
     <g id="line2d_8">
      <g>
       <use xlink:href="#m03213c9072" x="325.738595" y="307.584" style="stroke: #000000; stroke-width: 0.8"/>
      </g>
     </g>
     <g id="text_8">
      <!-- 233 -->
      <g transform="translate(316.194845 322.182437) scale(0.1 -0.1)">
       <use xlink:href="#DejaVuSans-32"/>
       <use xlink:href="#DejaVuSans-33" x="63.623047"/>
       <use xlink:href="#DejaVuSans-33" x="127.246094"/>
      </g>
     </g>
    </g>
    <g id="xtick_9">
     <g id="line2d_9">
      <g>
       <use xlink:href="#m03213c9072" x="361.570033" y="307.584" style="stroke: #000000; stroke-width: 0.8"/>
      </g>
     </g>
     <g id="text_9">
      <!-- 266 -->
      <g transform="translate(352.026283 322.182437) scale(0.1 -0.1)">
       <use xlink:href="#DejaVuSans-32"/>
       <use xlink:href="#DejaVuSans-36" x="63.623047"/>
       <use xlink:href="#DejaVuSans-36" x="127.246094"/>
      </g>
     </g>
    </g>
    <g id="xtick_10">
     <g id="line2d_10">
      <g>
       <use xlink:href="#m03213c9072" x="398.487273" y="307.584" style="stroke: #000000; stroke-width: 0.8"/>
      </g>
     </g>
     <g id="text_10">
      <!-- 300 -->
      <g transform="translate(388.943523 322.182437) scale(0.1 -0.1)">
       <use xlink:href="#DejaVuSans-33"/>
       <use xlink:href="#DejaVuSans-30" x="63.623047"/>
       <use xlink:href="#DejaVuSans-30" x="127.246094"/>
      </g>
     </g>
    </g>
    <g id="text_11">
     <!-- Epochs -->
     <g transform="translate(218.244375 335.860562) scale(0.1 -0.1)">
      <defs>
       <path id="DejaVuSans-45" d="M 628 4666 
L 3578 4666 
L 3578 4134 
L 1259 4134 
L 1259 2753 
L 3481 2753 
L 3481 2222 
L 1259 2222 
L 1259 531 
L 3634 531 
L 3634 0 
L 628 0 
L 628 4666 
z
" transform="scale(0.015625)"/>
       <path id="DejaVuSans-70" d="M 1159 525 
L 1159 -1331 
L 581 -1331 
L 581 3500 
L 1159 3500 
L 1159 2969 
Q 1341 3281 1617 3432 
Q 1894 3584 2278 3584 
Q 2916 3584 3314 3078 
Q 3713 2572 3713 1747 
Q 3713 922 3314 415 
Q 2916 -91 2278 -91 
Q 1894 -91 1617 61 
Q 1341 213 1159 525 
z
M 3116 1747 
Q 3116 2381 2855 2742 
Q 2594 3103 2138 3103 
Q 1681 3103 1420 2742 
Q 1159 2381 1159 1747 
Q 1159 1113 1420 752 
Q 1681 391 2138 391 
Q 2594 391 2855 752 
Q 3116 1113 3116 1747 
z
" transform="scale(0.015625)"/>
       <path id="DejaVuSans-6f" d="M 1959 3097 
Q 1497 3097 1228 2736 
Q 959 2375 959 1747 
Q 959 1119 1226 758 
Q 1494 397 1959 397 
Q 2419 397 2687 759 
Q 2956 1122 2956 1747 
Q 2956 2369 2687 2733 
Q 2419 3097 1959 3097 
z
M 1959 3584 
Q 2709 3584 3137 3096 
Q 3566 2609 3566 1747 
Q 3566 888 3137 398 
Q 2709 -91 1959 -91 
Q 1206 -91 779 398 
Q 353 888 353 1747 
Q 353 2609 779 3096 
Q 1206 3584 1959 3584 
z
" transform="scale(0.015625)"/>
       <path id="DejaVuSans-63" d="M 3122 3366 
L 3122 2828 
Q 2878 2963 2633 3030 
Q 2388 3097 2138 3097 
Q 1578 3097 1268 2742 
Q 959 2388 959 1747 
Q 959 1106 1268 751 
Q 1578 397 2138 397 
Q 2388 397 2633 464 
Q 2878 531 3122 666 
L 3122 134 
Q 2881 22 2623 -34 
Q 2366 -91 2075 -91 
Q 1284 -91 818 406 
Q 353 903 353 1747 
Q 353 2603 823 3093 
Q 1294 3584 2113 3584 
Q 2378 3584 2631 3529 
Q 2884 3475 3122 3366 
z
" transform="scale(0.015625)"/>
       <path id="DejaVuSans-68" d="M 3513 2113 
L 3513 0 
L 2938 0 
L 2938 2094 
Q 2938 2591 2744 2837 
Q 2550 3084 2163 3084 
Q 1697 3084 1428 2787 
Q 1159 2491 1159 1978 
L 1159 0 
L 581 0 
L 581 4863 
L 1159 4863 
L 1159 2956 
Q 1366 3272 1645 3428 
Q 1925 3584 2291 3584 
Q 2894 3584 3203 3211 
Q 3513 2838 3513 2113 
z
" transform="scale(0.015625)"/>
       <path id="DejaVuSans-73" d="M 2834 3397 
L 2834 2853 
Q 2591 2978 2328 3040 
Q 2066 3103 1784 3103 
Q 1356 3103 1142 2972 
Q 928 2841 928 2578 
Q 928 2378 1081 2264 
Q 1234 2150 1697 2047 
L 1894 2003 
Q 2506 1872 2764 1633 
Q 3022 1394 3022 966 
Q 3022 478 2636 193 
Q 2250 -91 1575 -91 
Q 1294 -91 989 -36 
Q 684 19 347 128 
L 347 722 
Q 666 556 975 473 
Q 1284 391 1588 391 
Q 1994 391 2212 530 
Q 2431 669 2431 922 
Q 2431 1156 2273 1281 
Q 2116 1406 1581 1522 
L 1381 1569 
Q 847 1681 609 1914 
Q 372 2147 372 2553 
Q 372 3047 722 3315 
Q 1072 3584 1716 3584 
Q 2034 3584 2315 3537 
Q 2597 3491 2834 3397 
z
" transform="scale(0.015625)"/>
      </defs>
      <use xlink:href="#DejaVuSans-45"/>
      <use xlink:href="#DejaVuSans-70" x="63.183594"/>
      <use xlink:href="#DejaVuSans-6f" x="126.660156"/>
      <use xlink:href="#DejaVuSans-63" x="187.841797"/>
      <use xlink:href="#DejaVuSans-68" x="242.822266"/>
      <use xlink:href="#DejaVuSans-73" x="306.201172"/>
     </g>
    </g>
   </g>
   <g id="matplotlib.axis_2">
    <g id="ytick_1">
     <g id="line2d_11">
      <defs>
       <path id="mb60a8bdb37" d="M 0 0 
L -3.5 0 
" style="stroke: #000000; stroke-width: 0.8"/>
      </defs>
      <g>
       <use xlink:href="#mb60a8bdb37" x="57.6" y="281.383863" style="stroke: #000000; stroke-width: 0.8"/>
      </g>
     </g>
     <g id="text_12">
      <!-- 10 -->
      <g transform="translate(37.875 285.183082) scale(0.1 -0.1)">
       <use xlink:href="#DejaVuSans-31"/>
       <use xlink:href="#DejaVuSans-30" x="63.623047"/>
      </g>
     </g>
    </g>
    <g id="ytick_2">
     <g id="line2d_12">
      <g>
       <use xlink:href="#mb60a8bdb37" x="57.6" y="250.138545" style="stroke: #000000; stroke-width: 0.8"/>
      </g>
     </g>
     <g id="text_13">
      <!-- 20 -->
      <g transform="translate(37.875 253.937764) scale(0.1 -0.1)">
       <use xlink:href="#DejaVuSans-32"/>
       <use xlink:href="#DejaVuSans-30" x="63.623047"/>
      </g>
     </g>
    </g>
    <g id="ytick_3">
     <g id="line2d_13">
      <g>
       <use xlink:href="#mb60a8bdb37" x="57.6" y="218.893227" style="stroke: #000000; stroke-width: 0.8"/>
      </g>
     </g>
     <g id="text_14">
      <!-- 30 -->
      <g transform="translate(37.875 222.692446) scale(0.1 -0.1)">
       <use xlink:href="#DejaVuSans-33"/>
       <use xlink:href="#DejaVuSans-30" x="63.623047"/>
      </g>
     </g>
    </g>
    <g id="ytick_4">
     <g id="line2d_14">
      <g>
       <use xlink:href="#mb60a8bdb37" x="57.6" y="187.647909" style="stroke: #000000; stroke-width: 0.8"/>
      </g>
     </g>
     <g id="text_15">
      <!-- 40 -->
      <g transform="translate(37.875 191.447128) scale(0.1 -0.1)">
       <use xlink:href="#DejaVuSans-34"/>
       <use xlink:href="#DejaVuSans-30" x="63.623047"/>
      </g>
     </g>
    </g>
    <g id="ytick_5">
     <g id="line2d_15">
      <g>
       <use xlink:href="#mb60a8bdb37" x="57.6" y="156.402591" style="stroke: #000000; stroke-width: 0.8"/>
      </g>
     </g>
     <g id="text_16">
      <!-- 50 -->
      <g transform="translate(37.875 160.20181) scale(0.1 -0.1)">
       <defs>
        <path id="DejaVuSans-35" d="M 691 4666 
L 3169 4666 
L 3169 4134 
L 1269 4134 
L 1269 2991 
Q 1406 3038 1543 3061 
Q 1681 3084 1819 3084 
Q 2600 3084 3056 2656 
Q 3513 2228 3513 1497 
Q 3513 744 3044 326 
Q 2575 -91 1722 -91 
Q 1428 -91 1123 -41 
Q 819 9 494 109 
L 494 744 
Q 775 591 1075 516 
Q 1375 441 1709 441 
Q 2250 441 2565 725 
Q 2881 1009 2881 1497 
Q 2881 1984 2565 2268 
Q 2250 2553 1709 2553 
Q 1456 2553 1204 2497 
Q 953 2441 691 2322 
L 691 4666 
z
" transform="scale(0.015625)"/>
       </defs>
       <use xlink:href="#DejaVuSans-35"/>
       <use xlink:href="#DejaVuSans-30" x="63.623047"/>
      </g>
     </g>
    </g>
    <g id="ytick_6">
     <g id="line2d_16">
      <g>
       <use xlink:href="#mb60a8bdb37" x="57.6" y="125.157273" style="stroke: #000000; stroke-width: 0.8"/>
      </g>
     </g>
     <g id="text_17">
      <!-- 60 -->
      <g transform="translate(37.875 128.956492) scale(0.1 -0.1)">
       <use xlink:href="#DejaVuSans-36"/>
       <use xlink:href="#DejaVuSans-30" x="63.623047"/>
      </g>
     </g>
    </g>
    <g id="ytick_7">
     <g id="line2d_17">
      <g>
       <use xlink:href="#mb60a8bdb37" x="57.6" y="93.911955" style="stroke: #000000; stroke-width: 0.8"/>
      </g>
     </g>
     <g id="text_18">
      <!-- 70 -->
      <g transform="translate(37.875 97.711173) scale(0.1 -0.1)">
       <use xlink:href="#DejaVuSans-37"/>
       <use xlink:href="#DejaVuSans-30" x="63.623047"/>
      </g>
     </g>
    </g>
    <g id="ytick_8">
     <g id="line2d_18">
      <g>
       <use xlink:href="#mb60a8bdb37" x="57.6" y="62.666637" style="stroke: #000000; stroke-width: 0.8"/>
      </g>
     </g>
     <g id="text_19">
      <!-- 80 -->
      <g transform="translate(37.875 66.465855) scale(0.1 -0.1)">
       <defs>
        <path id="DejaVuSans-38" d="M 2034 2216 
Q 1584 2216 1326 1975 
Q 1069 1734 1069 1313 
Q 1069 891 1326 650 
Q 1584 409 2034 409 
Q 2484 409 2743 651 
Q 3003 894 3003 1313 
Q 3003 1734 2745 1975 
Q 2488 2216 2034 2216 
z
M 1403 2484 
Q 997 2584 770 2862 
Q 544 3141 544 3541 
Q 544 4100 942 4425 
Q 1341 4750 2034 4750 
Q 2731 4750 3128 4425 
Q 3525 4100 3525 3541 
Q 3525 3141 3298 2862 
Q 3072 2584 2669 2484 
Q 3125 2378 3379 2068 
Q 3634 1759 3634 1313 
Q 3634 634 3220 271 
Q 2806 -91 2034 -91 
Q 1263 -91 848 271 
Q 434 634 434 1313 
Q 434 1759 690 2068 
Q 947 2378 1403 2484 
z
M 1172 3481 
Q 1172 3119 1398 2916 
Q 1625 2713 2034 2713 
Q 2441 2713 2670 2916 
Q 2900 3119 2900 3481 
Q 2900 3844 2670 4047 
Q 2441 4250 2034 4250 
Q 1625 4250 1398 4047 
Q 1172 3844 1172 3481 
z
" transform="scale(0.015625)"/>
       </defs>
       <use xlink:href="#DejaVuSans-38"/>
       <use xlink:href="#DejaVuSans-30" x="63.623047"/>
      </g>
     </g>
    </g>
    <g id="text_20">
     <!-- Accuracy -->
     <g transform="translate(31.795312 197.356125) rotate(-90) scale(0.1 -0.1)">
      <defs>
       <path id="DejaVuSans-41" d="M 2188 4044 
L 1331 1722 
L 3047 1722 
L 2188 4044 
z
M 1831 4666 
L 2547 4666 
L 4325 0 
L 3669 0 
L 3244 1197 
L 1141 1197 
L 716 0 
L 50 0 
L 1831 4666 
z
" transform="scale(0.015625)"/>
       <path id="DejaVuSans-75" d="M 544 1381 
L 544 3500 
L 1119 3500 
L 1119 1403 
Q 1119 906 1312 657 
Q 1506 409 1894 409 
Q 2359 409 2629 706 
Q 2900 1003 2900 1516 
L 2900 3500 
L 3475 3500 
L 3475 0 
L 2900 0 
L 2900 538 
Q 2691 219 2414 64 
Q 2138 -91 1772 -91 
Q 1169 -91 856 284 
Q 544 659 544 1381 
z
M 1991 3584 
L 1991 3584 
z
" transform="scale(0.015625)"/>
       <path id="DejaVuSans-72" d="M 2631 2963 
Q 2534 3019 2420 3045 
Q 2306 3072 2169 3072 
Q 1681 3072 1420 2755 
Q 1159 2438 1159 1844 
L 1159 0 
L 581 0 
L 581 3500 
L 1159 3500 
L 1159 2956 
Q 1341 3275 1631 3429 
Q 1922 3584 2338 3584 
Q 2397 3584 2469 3576 
Q 2541 3569 2628 3553 
L 2631 2963 
z
" transform="scale(0.015625)"/>
       <path id="DejaVuSans-61" d="M 2194 1759 
Q 1497 1759 1228 1600 
Q 959 1441 959 1056 
Q 959 750 1161 570 
Q 1363 391 1709 391 
Q 2188 391 2477 730 
Q 2766 1069 2766 1631 
L 2766 1759 
L 2194 1759 
z
M 3341 1997 
L 3341 0 
L 2766 0 
L 2766 531 
Q 2569 213 2275 61 
Q 1981 -91 1556 -91 
Q 1019 -91 701 211 
Q 384 513 384 1019 
Q 384 1609 779 1909 
Q 1175 2209 1959 2209 
L 2766 2209 
L 2766 2266 
Q 2766 2663 2505 2880 
Q 2244 3097 1772 3097 
Q 1472 3097 1187 3025 
Q 903 2953 641 2809 
L 641 3341 
Q 956 3463 1253 3523 
Q 1550 3584 1831 3584 
Q 2591 3584 2966 3190 
Q 3341 2797 3341 1997 
z
" transform="scale(0.015625)"/>
       <path id="DejaVuSans-79" d="M 2059 -325 
Q 1816 -950 1584 -1140 
Q 1353 -1331 966 -1331 
L 506 -1331 
L 506 -850 
L 844 -850 
Q 1081 -850 1212 -737 
Q 1344 -625 1503 -206 
L 1606 56 
L 191 3500 
L 800 3500 
L 1894 763 
L 2988 3500 
L 3597 3500 
L 2059 -325 
z
" transform="scale(0.015625)"/>
      </defs>
      <use xlink:href="#DejaVuSans-41"/>
      <use xlink:href="#DejaVuSans-63" x="66.658203"/>
      <use xlink:href="#DejaVuSans-63" x="121.638672"/>
      <use xlink:href="#DejaVuSans-75" x="176.619141"/>
      <use xlink:href="#DejaVuSans-72" x="239.998047"/>
      <use xlink:href="#DejaVuSans-61" x="281.111328"/>
      <use xlink:href="#DejaVuSans-63" x="342.390625"/>
      <use xlink:href="#DejaVuSans-79" x="397.371094"/>
     </g>
    </g>
   </g>
   <g id="line2d_19">
    <path d="M 73.832727 295.488 
L 74.918528 280.390262 
L 76.00433 262.049261 
L 77.090131 247.226482 
L 79.261733 222.917624 
L 82.519137 196.440342 
L 85.77654 178.474284 
L 89.033943 163.701497 
L 90.119745 160.776935 
L 91.205546 157.127482 
L 92.291347 154.846574 
L 94.462949 151.697046 
L 95.54875 179.205424 
L 96.634552 178.018102 
L 97.720353 174.02495 
L 98.806154 170.931664 
L 99.891955 166.476082 
L 100.977756 163.788984 
L 102.063557 160.564467 
L 103.149358 156.908765 
L 104.23516 155.365246 
L 105.320961 152.253213 
L 106.406762 148.347548 
L 107.492563 146.004149 
L 108.578364 143.223316 
L 110.749967 139.423885 
L 111.835768 135.724439 
L 112.921569 133.556014 
L 114.00737 130.306501 
L 115.093171 128.375541 
L 117.264773 124.03869 
L 118.350575 121.951503 
L 119.436376 119.295651 
L 120.522177 117.239709 
L 121.607978 113.871464 
L 122.693779 112.002994 
L 123.77958 109.509618 
L 125.951183 107.322445 
L 127.036984 105.603953 
L 128.122785 101.854515 
L 129.208586 102.135722 
L 130.294387 99.873561 
L 131.380189 98.636247 
L 132.46599 98.117575 
L 133.551791 96.799022 
L 135.723393 96.105376 
L 136.809194 95.068032 
L 137.894995 95.717934 
L 138.980797 126.057138 
L 140.066598 130.962653 
L 141.152399 129.65035 
L 142.2382 128.51302 
L 143.324001 127.57566 
L 144.409802 127.219464 
L 145.495604 126.725788 
L 146.581405 125.857168 
L 147.667206 123.657498 
L 148.753007 122.832621 
L 149.838808 121.520318 
L 150.924609 118.789477 
L 152.01041 120.120528 
L 153.096212 116.552312 
L 154.182013 116.933505 
L 155.267814 116.064885 
L 157.439416 113.277803 
L 158.525217 112.834119 
L 159.611019 111.421831 
L 160.69682 110.740683 
L 161.782621 109.434629 
L 162.868422 108.878462 
L 163.954223 107.597404 
L 165.040024 107.028739 
L 166.125825 105.460224 
L 167.211627 103.635498 
L 168.297428 103.42303 
L 171.554831 100.204762 
L 173.726434 98.380035 
L 174.812235 96.530312 
L 175.898036 96.217859 
L 176.983837 94.01194 
L 178.069638 93.624498 
L 179.155439 91.724782 
L 180.24124 91.287348 
L 181.327042 89.418878 
L 182.412843 88.412779 
L 183.498644 87.900356 
L 184.584445 87.06923 
L 185.670246 87.106724 
L 186.756047 85.119522 
L 187.841849 83.738479 
L 188.92765 83.269799 
L 190.013451 81.576303 
L 191.099252 80.751427 
L 192.185053 80.763925 
L 193.270854 78.333039 
L 194.356656 77.85811 
L 195.442457 75.802168 
L 196.528258 76.914502 
L 197.614059 75.114771 
L 198.69986 74.577352 
L 199.785661 72.771373 
L 200.871462 72.502663 
L 201.957264 70.996638 
L 203.043065 71.502813 
L 204.128866 70.990389 
L 205.214667 69.71558 
L 206.300468 69.128168 
L 207.386269 67.397178 
L 208.472071 67.190959 
L 209.557872 67.228453 
L 211.729474 66.559803 
L 212.815275 65.684934 
L 213.901076 65.078775 
L 214.986877 65.272496 
L 216.072679 64.616344 
L 217.15848 63.616494 
L 218.244281 64.516359 
L 219.330082 63.810215 
L 220.415883 62.91035 
L 221.501684 63.354034 
L 222.587486 62.822863 
L 223.673287 64.122668 
L 224.759088 63.466517 
L 225.844889 96.861513 
L 226.93069 102.198213 
L 229.102292 105.066533 
L 230.188094 104.335393 
L 232.359696 103.854215 
L 233.445497 103.910457 
L 234.531298 103.08558 
L 235.617099 104.010442 
L 236.702901 102.385685 
L 237.788702 103.248056 
L 238.874503 101.498318 
L 239.960304 102.135722 
L 241.046105 101.442076 
L 242.131906 101.473322 
L 243.217708 100.810921 
L 244.303509 100.917155 
L 245.38931 99.742331 
L 246.475111 99.998543 
L 247.560912 99.486119 
L 248.646713 99.717335 
L 249.732514 97.830118 
L 250.818316 98.392533 
L 252.989918 97.905106 
L 255.16152 95.705436 
L 256.247321 96.330342 
L 258.418924 95.88041 
L 259.504725 94.574355 
L 260.590526 94.218159 
L 261.676327 94.443125 
L 262.762128 93.736981 
L 263.847929 93.393282 
L 264.933731 92.649644 
L 266.019532 91.106125 
L 267.105333 91.87476 
L 268.191134 92.337191 
L 269.276935 91.749779 
L 270.362736 91.649794 
L 271.448538 90.449973 
L 272.534339 89.962547 
L 274.705941 89.175165 
L 275.791742 89.562606 
L 276.877543 88.025337 
L 277.963344 87.800371 
L 279.049146 88.225307 
L 280.134947 87.612899 
L 281.220748 86.513063 
L 282.306549 86.650543 
L 283.39235 85.207009 
L 284.478151 84.475869 
L 285.563953 84.807069 
L 286.649754 84.219657 
L 287.735555 84.432125 
L 288.821356 82.73238 
L 289.907157 83.669739 
L 290.992958 82.232455 
L 292.07876 82.188711 
L 293.164561 81.495065 
L 294.250362 81.095125 
L 295.336163 80.320241 
L 296.421964 81.257601 
L 297.507765 79.420376 
L 298.593566 78.932949 
L 299.679368 78.183062 
L 300.765169 77.714382 
L 302.936771 77.108223 
L 304.022572 77.383181 
L 305.108373 76.214607 
L 306.194175 76.095874 
L 307.279976 75.289745 
L 308.365777 75.108522 
L 309.451578 75.102273 
L 310.537379 74.027434 
L 311.62318 73.483766 
L 312.708981 73.540007 
L 313.794783 72.983841 
L 314.880584 73.271298 
L 315.966385 70.884155 
L 317.052186 71.734028 
L 318.137987 70.615446 
L 319.223788 70.671687 
L 320.30959 69.696833 
L 321.395391 69.353135 
L 322.481192 69.928049 
L 323.566993 68.403277 
L 324.652794 68.009586 
L 325.738595 68.009586 
L 326.824396 66.859758 
L 328.995999 66.84726 
L 330.0818 65.697432 
L 331.167601 65.753674 
L 333.339203 64.635092 
L 334.425005 64.547605 
L 335.510806 63.916449 
L 336.596607 62.860358 
L 337.682408 63.11032 
L 338.768209 63.716479 
L 339.85401 62.329187 
L 340.939811 61.922998 
L 342.025613 61.298092 
L 343.111414 61.335586 
L 344.197215 59.44212 
L 345.283016 59.998286 
L 346.368817 59.654588 
L 347.454618 59.185908 
L 350.712022 58.848459 
L 351.797823 59.142165 
L 353.969425 57.311189 
L 355.055227 56.767521 
L 356.141028 55.861406 
L 357.226829 56.917498 
L 358.31263 55.348983 
L 359.398431 55.892652 
L 360.484232 55.523957 
L 361.570033 54.486612 
L 362.655835 55.161511 
L 363.741636 54.092921 
L 364.827437 53.742974 
L 366.999039 54.086672 
L 368.08484 53.568 
L 369.170642 54.261646 
L 370.256443 54.542854 
L 371.342244 55.780169 
L 372.428045 56.698781 
L 373.513846 57.048728 
L 374.599647 56.961242 
L 375.685448 57.379929 
L 376.77125 57.029981 
L 377.857051 57.329936 
L 378.942852 56.348833 
L 380.028653 57.467416 
L 381.114454 57.167461 
L 382.200255 57.529906 
L 383.286057 56.611294 
L 384.371858 56.698781 
L 385.457659 56.898751 
L 386.54346 56.979989 
L 387.629261 57.542404 
L 388.715062 57.529906 
L 389.800863 56.780019 
L 390.886665 57.011234 
L 391.972466 56.898751 
L 393.058267 57.242449 
L 394.144068 56.298841 
L 395.229869 57.242449 
L 396.31567 57.073725 
L 397.401472 56.623792 
L 398.487273 56.630041 
L 398.487273 56.630041 
" clip-path="url(#p0f775ad4ad)" style="fill: none; stroke: #1f77b4; stroke-width: 1.5; stroke-linecap: square"/>
   </g>
   <g id="line2d_20">
    <path d="M 73.832727 281.790053 
L 74.918528 273.760006 
L 76.00433 262.074257 
L 77.090131 235.453246 
L 78.175932 213.831486 
L 79.261733 197.333958 
L 80.347534 189.803836 
L 81.433335 175.930915 
L 82.519137 175.96216 
L 83.604938 151.590812 
L 84.690739 161.120634 
L 85.77654 149.153677 
L 86.862341 145.560466 
L 87.948142 132.562413 
L 89.033943 133.499773 
L 92.291347 121.720288 
L 93.377148 120.43923 
L 94.462949 121.126627 
L 95.54875 162.714145 
L 96.634552 148.278808 
L 97.720353 143.52952 
L 98.806154 141.717291 
L 99.891955 141.467329 
L 100.977756 127.594408 
L 102.063557 134.218415 
L 103.149358 121.43908 
L 104.23516 125.282254 
L 105.320961 118.127076 
L 106.406762 120.689192 
L 107.492563 117.939604 
L 108.578364 109.940803 
L 109.664165 109.15967 
L 110.749967 110.534464 
L 111.835768 105.75393 
L 112.921569 102.504417 
L 114.00737 102.379436 
L 115.093171 100.567208 
L 116.178972 99.161168 
L 117.264773 96.380335 
L 118.350575 95.786674 
L 119.436376 91.881009 
L 120.522177 89.162666 
L 121.607978 89.756327 
L 122.693779 91.443575 
L 123.77958 88.287797 
L 124.865382 86.60055 
L 125.951183 86.006889 
L 127.036984 85.569455 
L 128.122785 81.882507 
L 129.208586 82.538659 
L 130.294387 80.257751 
L 131.380189 80.945148 
L 132.46599 78.851711 
L 133.551791 80.788921 
L 135.723393 80.19526 
L 136.809194 80.382732 
L 137.894995 79.945298 
L 138.980797 103.098078 
L 140.066598 105.066533 
L 141.152399 104.2854 
L 142.2382 103.316795 
L 143.324001 104.629099 
L 144.409802 102.379436 
L 145.495604 97.848865 
L 146.581405 102.223209 
L 147.667206 98.598752 
L 148.753007 95.442975 
L 149.838808 98.692488 
L 150.924609 99.973546 
L 152.01041 93.974445 
L 153.096212 95.88041 
L 154.182013 95.724183 
L 155.267814 92.47467 
L 156.353615 96.536561 
L 157.439416 95.88041 
L 158.525217 95.817919 
L 159.611019 88.943949 
L 160.69682 92.00599 
L 161.782621 87.475419 
L 162.868422 89.53761 
L 163.954223 87.725382 
L 165.040024 89.193912 
L 167.211627 88.037835 
L 168.297428 86.194361 
L 169.383229 86.475569 
L 170.46903 85.756927 
L 171.554831 84.13217 
L 172.640632 85.6007 
L 173.726434 82.351187 
L 174.812235 85.381983 
L 175.898036 82.913603 
L 176.983837 82.726131 
L 178.069638 80.757676 
L 179.155439 80.257751 
L 180.24124 81.570054 
L 181.327042 82.351187 
L 182.412843 79.851562 
L 183.498644 79.757826 
L 184.584445 78.039333 
L 185.670246 78.789221 
L 186.756047 79.226655 
L 187.841849 78.476768 
L 188.92765 76.758275 
L 190.013451 77.601899 
L 191.099252 76.820766 
L 192.185053 75.32099 
L 193.270854 75.008537 
L 194.356656 73.508762 
L 195.442457 73.32129 
L 196.528258 74.508612 
L 197.614059 72.383931 
L 198.69986 74.633593 
L 199.785661 73.477517 
L 200.871462 71.946496 
L 201.957264 72.85261 
L 203.043065 73.540007 
L 204.128866 72.821365 
L 205.214667 71.134118 
L 206.300468 71.32159 
L 207.386269 70.946646 
L 208.472071 69.196908 
L 209.557872 70.352985 
L 211.729474 69.103172 
L 212.815275 68.790719 
L 213.901076 69.009436 
L 214.986877 69.603097 
L 216.072679 69.446871 
L 217.15848 69.071927 
L 218.244281 69.571852 
L 219.330082 68.946946 
L 220.415883 70.134268 
L 221.501684 69.571852 
L 222.587486 68.634492 
L 224.759088 69.071927 
L 225.844889 100.567208 
L 226.93069 91.974745 
L 228.016491 94.693088 
L 229.102292 89.725082 
L 230.188094 94.568106 
L 231.273895 92.287198 
L 232.359696 88.225307 
L 233.445497 90.599951 
L 234.531298 88.912704 
L 235.617099 91.318593 
L 236.702901 88.194062 
L 237.788702 95.380485 
L 238.874503 89.975045 
L 239.960304 85.944399 
L 242.131906 87.006739 
L 243.217708 87.912854 
L 244.303509 89.631346 
L 245.38931 86.163116 
L 246.475111 86.881758 
L 247.560912 88.162816 
L 248.646713 85.538209 
L 249.732514 83.975944 
L 251.904117 86.725532 
L 252.989918 86.631796 
L 254.075719 87.444174 
L 255.16152 82.913603 
L 256.247321 83.757226 
L 257.333123 85.007039 
L 258.418924 85.6007 
L 259.504725 83.163565 
L 260.590526 86.319342 
L 261.676327 81.944998 
L 262.762128 81.601299 
L 263.847929 81.538809 
L 264.933731 83.351037 
L 267.105333 84.007189 
L 268.191134 83.850962 
L 269.276935 85.381983 
L 270.362736 80.882657 
L 271.448538 83.819717 
L 272.534339 85.413228 
L 273.62014 84.288397 
L 274.705941 80.507713 
L 275.791742 79.320391 
L 276.877543 80.882657 
L 277.963344 85.257002 
L 279.049146 81.66379 
L 280.134947 82.13247 
L 281.220748 80.66394 
L 282.306549 79.976543 
L 283.39235 81.66379 
L 284.478151 77.945597 
L 285.563953 81.19511 
L 286.649754 80.132769 
L 287.735555 77.820616 
L 288.821356 81.382582 
L 289.907157 76.508313 
L 290.992958 77.945597 
L 292.07876 80.851412 
L 293.164561 75.883406 
L 294.250362 75.664689 
L 295.336163 79.789071 
L 296.421964 80.288996 
L 297.507765 78.851711 
L 298.593566 77.976843 
L 299.679368 78.820466 
L 300.765169 77.2582 
L 301.85097 76.914502 
L 302.936771 77.601899 
L 304.022572 77.320691 
L 305.108373 76.25835 
L 306.194175 77.008238 
L 307.279976 76.352086 
L 308.365777 76.352086 
L 309.451578 75.352236 
L 310.537379 75.008537 
L 311.62318 78.445522 
L 312.708981 73.883706 
L 313.794783 73.508762 
L 314.880584 75.071028 
L 315.966385 75.102273 
L 317.052186 74.196159 
L 318.137987 75.2585 
L 319.223788 72.758874 
L 320.30959 72.821365 
L 321.395391 75.2585 
L 322.481192 73.664989 
L 323.566993 71.759024 
L 324.652794 72.415176 
L 325.738595 74.289895 
L 326.824396 73.258799 
L 327.910198 73.383781 
L 328.995999 72.633893 
L 330.0818 72.508912 
L 331.167601 73.071328 
L 332.253402 73.165064 
L 333.339203 70.228004 
L 334.425005 70.415476 
L 335.510806 70.165513 
L 336.596607 68.978191 
L 337.682408 71.259099 
L 338.768209 72.040232 
L 340.939811 68.634492 
L 342.025613 68.44702 
L 343.111414 68.946946 
L 344.197215 70.259249 
L 345.283016 70.477966 
L 346.368817 69.790569 
L 347.454618 68.509511 
L 348.54042 69.978041 
L 349.626221 67.572152 
L 350.712022 69.85306 
L 351.797823 69.728079 
L 352.883624 68.603247 
L 353.969425 67.259698 
L 355.055227 69.134417 
L 356.141028 67.509661 
L 357.226829 67.728378 
L 358.31263 66.947245 
L 359.398431 68.197058 
L 360.484232 68.009586 
L 361.570033 66.947245 
L 362.655835 66.884755 
L 363.741636 66.572301 
L 364.827437 66.541056 
L 366.999039 66.259848 
L 368.08484 67.884605 
L 369.170642 68.38453 
L 370.256443 68.134567 
L 371.342244 69.134417 
L 372.428045 68.509511 
L 373.513846 69.228153 
L 374.599647 68.665738 
L 375.685448 69.571852 
L 376.77125 67.759623 
L 377.857051 69.665588 
L 378.942852 68.85321 
L 380.028653 70.040532 
L 381.114454 69.91555 
L 382.200255 71.227854 
L 383.286057 69.665588 
L 384.371858 68.884455 
L 385.457659 70.821665 
L 386.54346 68.478266 
L 387.629261 68.85321 
L 388.715062 69.696833 
L 389.800863 69.509361 
L 390.886665 69.509361 
L 391.972466 68.165813 
L 393.058267 69.196908 
L 394.144068 68.634492 
L 395.229869 69.228153 
L 396.31567 68.603247 
L 397.401472 68.322039 
L 398.487273 69.91555 
L 398.487273 69.91555 
" clip-path="url(#p0f775ad4ad)" style="fill: none; stroke: #ff7f0e; stroke-width: 1.5; stroke-linecap: square"/>
   </g>
   <g id="line2d_21">
    <path d="M 73.832727 287.740723 
L 74.918528 277.095756 
L 76.00433 273.28164 
L 77.090131 250.267901 
L 79.261733 223.396927 
L 80.347534 220.315514 
L 81.433335 209.56275 
L 82.519137 208.097345 
L 83.604938 188.057223 
L 84.690739 199.370215 
L 85.77654 187.281714 
L 86.862341 185.406995 
L 87.948142 174.287724 
L 89.033943 176.356476 
L 90.119745 172.219283 
L 91.205546 169.331591 
L 92.291347 165.582153 
L 93.377148 164.009264 
L 94.462949 164.84945 
L 95.54875 203.981712 
L 96.634552 193.336744 
L 97.720353 185.622275 
L 98.806154 184.868013 
L 99.891955 185.837868 
L 100.977756 173.253503 
L 102.063557 172.369886 
L 103.149358 168.512964 
L 104.23516 171.659055 
L 105.320961 164.526374 
L 106.406762 162.048307 
L 107.492563 164.978806 
L 108.578364 157.867996 
L 109.664165 155.993277 
L 110.749967 159.979555 
L 111.835768 152.890305 
L 112.921569 152.976229 
L 114.00737 151.877332 
L 115.093171 150.175087 
L 116.178972 147.69702 
L 117.264773 143.49515 
L 118.350575 143.279557 
L 119.436376 141.749474 
L 120.522177 143.387354 
L 121.607978 140.629017 
L 122.693779 141.727915 
L 123.77958 135.242012 
L 124.865382 137.418248 
L 125.951183 132.63459 
L 127.036984 136.556502 
L 128.122785 133.1517 
L 129.208586 131.966565 
L 130.294387 130.156524 
L 131.380189 130.997023 
L 132.46599 128.777355 
L 133.551791 131.535692 
L 134.637592 131.104507 
L 135.723393 130.285879 
L 136.809194 130.415235 
L 137.894995 130.199642 
L 138.980797 151.855772 
L 140.066598 153.170263 
L 141.152399 155.346812 
L 142.2382 153.881406 
L 143.324001 154.506313 
L 144.409802 153.213381 
L 145.495604 143.430472 
L 146.581405 153.040907 
L 147.667206 144.2491 
L 148.753007 149.722654 
L 149.838808 152.825627 
L 150.924609 147.632343 
L 152.01041 143.969142 
L 153.096212 148.278808 
L 154.182013 145.736064 
L 155.267814 145.520472 
L 156.353615 150.929349 
L 157.439416 147.41675 
L 158.525217 147.223029 
L 159.611019 142.18066 
L 160.69682 142.094422 
L 161.782621 138.043154 
L 162.868422 138.948331 
L 163.954223 135.737562 
L 165.040024 137.159849 
L 166.125825 138.883654 
L 167.211627 140.155026 
L 168.297428 138.818976 
L 169.383229 138.969891 
L 170.46903 140.413737 
L 171.554831 133.905962 
L 172.640632 134.832698 
L 173.726434 134.530868 
L 174.812235 134.617105 
L 175.898036 134.832698 
L 178.069638 133.582885 
L 179.155439 133.862843 
L 180.24124 135.586648 
L 181.327042 130.221202 
L 182.412843 131.923446 
L 183.498644 125.631264 
L 184.584445 126.79484 
L 185.670246 127.61378 
L 186.756047 128.94983 
L 187.841849 128.475838 
L 188.92765 128.971389 
L 190.013451 125.846857 
L 191.099252 126.816399 
L 192.185053 126.363967 
L 193.270854 124.769518 
L 194.356656 126.191493 
L 195.442457 124.575485 
L 196.528258 122.032741 
L 197.614059 124.683281 
L 198.69986 121.77403 
L 201.957264 121.343157 
L 203.043065 123.002283 
L 204.128866 119.511556 
L 205.214667 120.632013 
L 206.300468 120.696691 
L 207.386269 118.692617 
L 208.472071 117.830871 
L 209.557872 119.576213 
L 210.643673 118.908209 
L 211.729474 118.412594 
L 212.815275 116.667166 
L 213.901076 118.412594 
L 214.986877 118.412594 
L 216.072679 118.024721 
L 217.15848 118.089366 
L 218.244281 117.723042 
L 219.330082 115.589741 
L 220.415883 116.645617 
L 221.501684 115.675935 
L 222.587486 116.75336 
L 223.673287 115.438901 
L 224.759088 116.839554 
L 225.844889 157.84634 
L 226.93069 148.774424 
L 228.016491 146.188604 
L 229.102292 138.732825 
L 230.188094 144.184594 
L 231.273895 147.24448 
L 232.359696 140.866126 
L 233.445497 142.52536 
L 234.531298 141.038514 
L 235.617099 142.051293 
L 236.702901 137.116688 
L 237.788702 143.775173 
L 238.874503 137.461464 
L 239.960304 137.181333 
L 241.046105 135.80223 
L 242.131906 135.888423 
L 243.217708 140.866126 
L 244.303509 139.939541 
L 245.38931 139.637862 
L 246.475111 134.336932 
L 247.560912 139.767153 
L 248.646713 134.94029 
L 249.732514 133.410347 
L 250.818316 135.069581 
L 251.904117 137.504561 
L 252.989918 140.672189 
L 254.075719 140.262768 
L 255.16152 131.233949 
L 256.247321 141.857357 
L 257.333123 135.780681 
L 258.418924 138.151015 
L 259.504725 129.553166 
L 260.590526 135.37126 
L 261.676327 133.410347 
L 262.762128 129.05755 
L 263.847929 130.673688 
L 264.933731 137.310624 
L 266.019532 135.004935 
L 267.105333 137.676949 
L 268.191134 136.901203 
L 269.276935 138.926761 
L 270.362736 132.462213 
L 272.534339 138.732825 
L 273.62014 136.9443 
L 274.705941 132.268276 
L 275.791742 133.776671 
L 276.877543 130.458203 
L 277.963344 138.603534 
L 279.049146 131.018464 
L 280.134947 132.806989 
L 281.220748 132.182082 
L 282.306549 131.277046 
L 283.39235 133.108668 
L 284.478151 128.49729 
L 285.563953 130.759882 
L 286.649754 129.466972 
L 287.735555 129.531617 
L 288.821356 132.656149 
L 289.907157 124.726303 
L 290.992958 126.450183 
L 292.07876 132.182082 
L 293.164561 125.868373 
L 294.250362 123.842815 
L 295.336163 132.440664 
L 296.421964 134.681708 
L 297.507765 129.273035 
L 298.593566 125.502049 
L 299.679368 131.255497 
L 300.765169 131.018464 
L 301.85097 128.195611 
L 302.936771 126.601022 
L 304.022572 124.0583 
L 305.108373 123.62733 
L 306.194175 121.817256 
L 307.279976 126.77341 
L 308.365777 127.506059 
L 309.451578 124.597012 
L 310.537379 123.691975 
L 311.62318 130.07033 
L 312.708981 121.989644 
L 313.794783 123.864363 
L 314.880584 123.47649 
L 317.052186 125.954567 
L 318.137987 123.972106 
L 319.223788 123.131714 
L 320.30959 120.869122 
L 321.395391 125.803728 
L 322.481192 124.640109 
L 323.566993 119.834795 
L 324.652794 124.33843 
L 325.738595 119.964085 
L 326.824396 120.222667 
L 327.910198 121.321641 
L 328.995999 117.74459 
L 330.0818 118.865112 
L 331.167601 120.76138 
L 332.253402 118.498788 
L 333.339203 116.624069 
L 334.425005 118.908209 
L 335.510806 118.132463 
L 336.596607 118.261754 
L 337.682408 121.170801 
L 338.768209 120.869122 
L 339.85401 119.102146 
L 340.939811 118.60653 
L 342.025613 115.912968 
L 343.111414 118.520336 
L 344.197215 119.985634 
L 346.368817 119.231437 
L 347.454618 115.266514 
L 348.54042 117.809236 
L 349.626221 114.490768 
L 350.712022 117.055039 
L 351.797823 118.154012 
L 352.883624 115.395805 
L 353.969425 114.469219 
L 356.141028 116.688714 
L 357.226829 115.719032 
L 358.31263 113.908958 
L 359.398431 115.309611 
L 361.570033 112.443661 
L 363.741636 113.45644 
L 364.827437 113.477988 
L 365.913238 111.495527 
L 366.999039 110.935266 
L 368.08484 114.512316 
L 369.170642 115.309611 
L 370.256443 114.857092 
L 371.342244 116.17155 
L 372.428045 115.74058 
L 373.513846 116.32239 
L 374.599647 115.719032 
L 375.685448 116.60252 
L 376.77125 114.770898 
L 377.857051 117.270524 
L 378.942852 116.17155 
L 380.028653 116.365487 
L 381.114454 115.89142 
L 382.200255 116.365487 
L 383.286057 116.645617 
L 385.457659 118.003172 
L 387.629261 115.352708 
L 388.715062 115.589741 
L 390.886665 117.529106 
L 391.972466 117.809236 
L 393.058267 115.374256 
L 394.144068 116.60252 
L 395.229869 114.684704 
L 396.31567 118.929758 
L 397.401472 115.805226 
L 398.487273 115.783677 
L 398.487273 115.783677 
" clip-path="url(#p0f775ad4ad)" style="fill: none; stroke: #2ca02c; stroke-width: 1.5; stroke-linecap: square"/>
   </g>
   <g id="line2d_22">
    <path d="M 368.08484 66.791019 
L 369.170642 66.853509 
L 370.256443 68.040831 
L 371.342244 67.947095 
L 372.428045 68.759474 
L 373.513846 70.85291 
L 374.599647 68.103322 
L 375.685448 68.759474 
L 376.77125 68.103322 
L 377.857051 70.071777 
L 378.942852 69.446871 
L 380.028653 67.040981 
L 381.114454 70.415476 
L 382.200255 69.85306 
L 383.286057 68.9157 
L 384.371858 67.603397 
L 385.457659 68.884455 
L 386.54346 70.915401 
L 387.629261 70.696683 
L 389.800863 71.196608 
L 390.886665 69.290644 
L 391.972466 72.008987 
L 393.058267 71.32159 
L 394.144068 72.352685 
L 395.229869 74.102423 
L 396.31567 72.196459 
L 397.401472 70.759174 
L 398.487273 73.946196 
L 398.487273 73.946196 
" clip-path="url(#p0f775ad4ad)" style="fill: none; stroke: #d62728; stroke-width: 1.5; stroke-linecap: square"/>
   </g>
   <g id="line2d_23">
    <path d="M 368.08484 113.499537 
L 369.170642 115.007932 
L 370.256443 117.529106 
L 371.342244 115.762129 
L 372.428045 117.550654 
L 373.513846 116.106905 
L 374.599647 115.546644 
L 375.685448 114.727801 
L 376.77125 115.632838 
L 377.857051 116.085356 
L 378.942852 114.102895 
L 380.028653 115.18032 
L 381.114454 117.292072 
L 382.200255 114.900189 
L 383.286057 113.650376 
L 384.371858 112.120433 
L 385.457659 114.383025 
L 386.54346 116.257744 
L 387.629261 115.719032 
L 388.715062 117.787687 
L 389.800863 118.628079 
L 390.886665 115.762129 
L 391.972466 114.792447 
L 393.058267 114.921738 
L 394.144068 118.649627 
L 395.229869 119.791698 
L 397.401472 115.309611 
L 398.487273 119.102146 
L 398.487273 119.102146 
" clip-path="url(#p0f775ad4ad)" style="fill: none; stroke: #9467bd; stroke-width: 1.5; stroke-linecap: square"/>
   </g>
   <g id="patch_3">
    <path d="M 57.6 307.584 
L 57.6 41.472 
" style="fill: none; stroke: #000000; stroke-width: 0.8; stroke-linejoin: miter; stroke-linecap: square"/>
   </g>
   <g id="patch_4">
    <path d="M 414.72 307.584 
L 414.72 41.472 
" style="fill: none; stroke: #000000; stroke-width: 0.8; stroke-linejoin: miter; stroke-linecap: square"/>
   </g>
   <g id="patch_5">
    <path d="M 57.6 307.584 
L 414.72 307.584 
" style="fill: none; stroke: #000000; stroke-width: 0.8; stroke-linejoin: miter; stroke-linecap: square"/>
   </g>
   <g id="patch_6">
    <path d="M 57.6 41.472 
L 414.72 41.472 
" style="fill: none; stroke: #000000; stroke-width: 0.8; stroke-linejoin: miter; stroke-linecap: square"/>
   </g>
   <g id="text_21">
    <!-- Learning Curves -->
    <g transform="translate(187.37625 35.472) scale(0.12 -0.12)">
     <defs>
      <path id="DejaVuSans-4c" d="M 628 4666 
L 1259 4666 
L 1259 531 
L 3531 531 
L 3531 0 
L 628 0 
L 628 4666 
z
" transform="scale(0.015625)"/>
      <path id="DejaVuSans-65" d="M 3597 1894 
L 3597 1613 
L 953 1613 
Q 991 1019 1311 708 
Q 1631 397 2203 397 
Q 2534 397 2845 478 
Q 3156 559 3463 722 
L 3463 178 
Q 3153 47 2828 -22 
Q 2503 -91 2169 -91 
Q 1331 -91 842 396 
Q 353 884 353 1716 
Q 353 2575 817 3079 
Q 1281 3584 2069 3584 
Q 2775 3584 3186 3129 
Q 3597 2675 3597 1894 
z
M 3022 2063 
Q 3016 2534 2758 2815 
Q 2500 3097 2075 3097 
Q 1594 3097 1305 2825 
Q 1016 2553 972 2059 
L 3022 2063 
z
" transform="scale(0.015625)"/>
      <path id="DejaVuSans-6e" d="M 3513 2113 
L 3513 0 
L 2938 0 
L 2938 2094 
Q 2938 2591 2744 2837 
Q 2550 3084 2163 3084 
Q 1697 3084 1428 2787 
Q 1159 2491 1159 1978 
L 1159 0 
L 581 0 
L 581 3500 
L 1159 3500 
L 1159 2956 
Q 1366 3272 1645 3428 
Q 1925 3584 2291 3584 
Q 2894 3584 3203 3211 
Q 3513 2838 3513 2113 
z
" transform="scale(0.015625)"/>
      <path id="DejaVuSans-69" d="M 603 3500 
L 1178 3500 
L 1178 0 
L 603 0 
L 603 3500 
z
M 603 4863 
L 1178 4863 
L 1178 4134 
L 603 4134 
L 603 4863 
z
" transform="scale(0.015625)"/>
      <path id="DejaVuSans-67" d="M 2906 1791 
Q 2906 2416 2648 2759 
Q 2391 3103 1925 3103 
Q 1463 3103 1205 2759 
Q 947 2416 947 1791 
Q 947 1169 1205 825 
Q 1463 481 1925 481 
Q 2391 481 2648 825 
Q 2906 1169 2906 1791 
z
M 3481 434 
Q 3481 -459 3084 -895 
Q 2688 -1331 1869 -1331 
Q 1566 -1331 1297 -1286 
Q 1028 -1241 775 -1147 
L 775 -588 
Q 1028 -725 1275 -790 
Q 1522 -856 1778 -856 
Q 2344 -856 2625 -561 
Q 2906 -266 2906 331 
L 2906 616 
Q 2728 306 2450 153 
Q 2172 0 1784 0 
Q 1141 0 747 490 
Q 353 981 353 1791 
Q 353 2603 747 3093 
Q 1141 3584 1784 3584 
Q 2172 3584 2450 3431 
Q 2728 3278 2906 2969 
L 2906 3500 
L 3481 3500 
L 3481 434 
z
" transform="scale(0.015625)"/>
      <path id="DejaVuSans-20" transform="scale(0.015625)"/>
      <path id="DejaVuSans-43" d="M 4122 4306 
L 4122 3641 
Q 3803 3938 3442 4084 
Q 3081 4231 2675 4231 
Q 1875 4231 1450 3742 
Q 1025 3253 1025 2328 
Q 1025 1406 1450 917 
Q 1875 428 2675 428 
Q 3081 428 3442 575 
Q 3803 722 4122 1019 
L 4122 359 
Q 3791 134 3420 21 
Q 3050 -91 2638 -91 
Q 1578 -91 968 557 
Q 359 1206 359 2328 
Q 359 3453 968 4101 
Q 1578 4750 2638 4750 
Q 3056 4750 3426 4639 
Q 3797 4528 4122 4306 
z
" transform="scale(0.015625)"/>
      <path id="DejaVuSans-76" d="M 191 3500 
L 800 3500 
L 1894 563 
L 2988 3500 
L 3597 3500 
L 2284 0 
L 1503 0 
L 191 3500 
z
" transform="scale(0.015625)"/>
     </defs>
     <use xlink:href="#DejaVuSans-4c"/>
     <use xlink:href="#DejaVuSans-65" x="53.962891"/>
     <use xlink:href="#DejaVuSans-61" x="115.486328"/>
     <use xlink:href="#DejaVuSans-72" x="176.765625"/>
     <use xlink:href="#DejaVuSans-6e" x="216.128906"/>
     <use xlink:href="#DejaVuSans-69" x="279.507812"/>
     <use xlink:href="#DejaVuSans-6e" x="307.291016"/>
     <use xlink:href="#DejaVuSans-67" x="370.669922"/>
     <use xlink:href="#DejaVuSans-20" x="434.146484"/>
     <use xlink:href="#DejaVuSans-43" x="465.933594"/>
     <use xlink:href="#DejaVuSans-75" x="535.757812"/>
     <use xlink:href="#DejaVuSans-72" x="599.136719"/>
     <use xlink:href="#DejaVuSans-76" x="640.25"/>
     <use xlink:href="#DejaVuSans-65" x="699.429688"/>
     <use xlink:href="#DejaVuSans-73" x="760.953125"/>
    </g>
   </g>
   <g id="legend_1">
    <g id="patch_7">
     <path d="M 214.18875 302.584 
L 407.72 302.584 
Q 409.72 302.584 409.72 300.584 
L 409.72 228.193375 
Q 409.72 226.193375 407.72 226.193375 
L 214.18875 226.193375 
Q 212.18875 226.193375 212.18875 228.193375 
L 212.18875 300.584 
Q 212.18875 302.584 214.18875 302.584 
z
" style="fill: #ffffff; opacity: 0.8; stroke: #cccccc; stroke-linejoin: miter"/>
    </g>
    <g id="line2d_24">
     <path d="M 216.18875 234.291812 
L 226.18875 234.291812 
L 236.18875 234.291812 
" style="fill: none; stroke: #1f77b4; stroke-width: 1.5; stroke-linecap: square"/>
    </g>
    <g id="text_22">
     <!-- Train Accuracy -->
     <g transform="translate(244.18875 237.791812) scale(0.1 -0.1)">
      <defs>
       <path id="DejaVuSans-54" d="M -19 4666 
L 3928 4666 
L 3928 4134 
L 2272 4134 
L 2272 0 
L 1638 0 
L 1638 4134 
L -19 4134 
L -19 4666 
z
" transform="scale(0.015625)"/>
      </defs>
      <use xlink:href="#DejaVuSans-54"/>
      <use xlink:href="#DejaVuSans-72" x="46.333984"/>
      <use xlink:href="#DejaVuSans-61" x="87.447266"/>
      <use xlink:href="#DejaVuSans-69" x="148.726562"/>
      <use xlink:href="#DejaVuSans-6e" x="176.509766"/>
      <use xlink:href="#DejaVuSans-20" x="239.888672"/>
      <use xlink:href="#DejaVuSans-41" x="271.675781"/>
      <use xlink:href="#DejaVuSans-63" x="338.333984"/>
      <use xlink:href="#DejaVuSans-63" x="393.314453"/>
      <use xlink:href="#DejaVuSans-75" x="448.294922"/>
      <use xlink:href="#DejaVuSans-72" x="511.673828"/>
      <use xlink:href="#DejaVuSans-61" x="552.787109"/>
      <use xlink:href="#DejaVuSans-63" x="614.066406"/>
      <use xlink:href="#DejaVuSans-79" x="669.046875"/>
     </g>
    </g>
    <g id="line2d_25">
     <path d="M 216.18875 248.969937 
L 226.18875 248.969937 
L 236.18875 248.969937 
" style="fill: none; stroke: #ff7f0e; stroke-width: 1.5; stroke-linecap: square"/>
    </g>
    <g id="text_23">
     <!-- Validation Accuracy -->
     <g transform="translate(244.18875 252.469937) scale(0.1 -0.1)">
      <defs>
       <path id="DejaVuSans-56" d="M 1831 0 
L 50 4666 
L 709 4666 
L 2188 738 
L 3669 4666 
L 4325 4666 
L 2547 0 
L 1831 0 
z
" transform="scale(0.015625)"/>
       <path id="DejaVuSans-6c" d="M 603 4863 
L 1178 4863 
L 1178 0 
L 603 0 
L 603 4863 
z
" transform="scale(0.015625)"/>
       <path id="DejaVuSans-64" d="M 2906 2969 
L 2906 4863 
L 3481 4863 
L 3481 0 
L 2906 0 
L 2906 525 
Q 2725 213 2448 61 
Q 2172 -91 1784 -91 
Q 1150 -91 751 415 
Q 353 922 353 1747 
Q 353 2572 751 3078 
Q 1150 3584 1784 3584 
Q 2172 3584 2448 3432 
Q 2725 3281 2906 2969 
z
M 947 1747 
Q 947 1113 1208 752 
Q 1469 391 1925 391 
Q 2381 391 2643 752 
Q 2906 1113 2906 1747 
Q 2906 2381 2643 2742 
Q 2381 3103 1925 3103 
Q 1469 3103 1208 2742 
Q 947 2381 947 1747 
z
" transform="scale(0.015625)"/>
       <path id="DejaVuSans-74" d="M 1172 4494 
L 1172 3500 
L 2356 3500 
L 2356 3053 
L 1172 3053 
L 1172 1153 
Q 1172 725 1289 603 
Q 1406 481 1766 481 
L 2356 481 
L 2356 0 
L 1766 0 
Q 1100 0 847 248 
Q 594 497 594 1153 
L 594 3053 
L 172 3053 
L 172 3500 
L 594 3500 
L 594 4494 
L 1172 4494 
z
" transform="scale(0.015625)"/>
      </defs>
      <use xlink:href="#DejaVuSans-56"/>
      <use xlink:href="#DejaVuSans-61" x="60.658203"/>
      <use xlink:href="#DejaVuSans-6c" x="121.9375"/>
      <use xlink:href="#DejaVuSans-69" x="149.720703"/>
      <use xlink:href="#DejaVuSans-64" x="177.503906"/>
      <use xlink:href="#DejaVuSans-61" x="240.980469"/>
      <use xlink:href="#DejaVuSans-74" x="302.259766"/>
      <use xlink:href="#DejaVuSans-69" x="341.46875"/>
      <use xlink:href="#DejaVuSans-6f" x="369.251953"/>
      <use xlink:href="#DejaVuSans-6e" x="430.433594"/>
      <use xlink:href="#DejaVuSans-20" x="493.8125"/>
      <use xlink:href="#DejaVuSans-41" x="525.599609"/>
      <use xlink:href="#DejaVuSans-63" x="592.257812"/>
      <use xlink:href="#DejaVuSans-63" x="647.238281"/>
      <use xlink:href="#DejaVuSans-75" x="702.21875"/>
      <use xlink:href="#DejaVuSans-72" x="765.597656"/>
      <use xlink:href="#DejaVuSans-61" x="806.710938"/>
      <use xlink:href="#DejaVuSans-63" x="867.990234"/>
      <use xlink:href="#DejaVuSans-79" x="922.970703"/>
     </g>
    </g>
    <g id="line2d_26">
     <path d="M 216.18875 263.648062 
L 226.18875 263.648062 
L 236.18875 263.648062 
" style="fill: none; stroke: #2ca02c; stroke-width: 1.5; stroke-linecap: square"/>
    </g>
    <g id="text_24">
     <!-- Robust Validation Accuracy -->
     <g transform="translate(244.18875 267.148062) scale(0.1 -0.1)">
      <defs>
       <path id="DejaVuSans-52" d="M 2841 2188 
Q 3044 2119 3236 1894 
Q 3428 1669 3622 1275 
L 4263 0 
L 3584 0 
L 2988 1197 
Q 2756 1666 2539 1819 
Q 2322 1972 1947 1972 
L 1259 1972 
L 1259 0 
L 628 0 
L 628 4666 
L 2053 4666 
Q 2853 4666 3247 4331 
Q 3641 3997 3641 3322 
Q 3641 2881 3436 2590 
Q 3231 2300 2841 2188 
z
M 1259 4147 
L 1259 2491 
L 2053 2491 
Q 2509 2491 2742 2702 
Q 2975 2913 2975 3322 
Q 2975 3731 2742 3939 
Q 2509 4147 2053 4147 
L 1259 4147 
z
" transform="scale(0.015625)"/>
       <path id="DejaVuSans-62" d="M 3116 1747 
Q 3116 2381 2855 2742 
Q 2594 3103 2138 3103 
Q 1681 3103 1420 2742 
Q 1159 2381 1159 1747 
Q 1159 1113 1420 752 
Q 1681 391 2138 391 
Q 2594 391 2855 752 
Q 3116 1113 3116 1747 
z
M 1159 2969 
Q 1341 3281 1617 3432 
Q 1894 3584 2278 3584 
Q 2916 3584 3314 3078 
Q 3713 2572 3713 1747 
Q 3713 922 3314 415 
Q 2916 -91 2278 -91 
Q 1894 -91 1617 61 
Q 1341 213 1159 525 
L 1159 0 
L 581 0 
L 581 4863 
L 1159 4863 
L 1159 2969 
z
" transform="scale(0.015625)"/>
      </defs>
      <use xlink:href="#DejaVuSans-52"/>
      <use xlink:href="#DejaVuSans-6f" x="64.982422"/>
      <use xlink:href="#DejaVuSans-62" x="126.164062"/>
      <use xlink:href="#DejaVuSans-75" x="189.640625"/>
      <use xlink:href="#DejaVuSans-73" x="253.019531"/>
      <use xlink:href="#DejaVuSans-74" x="305.119141"/>
      <use xlink:href="#DejaVuSans-20" x="344.328125"/>
      <use xlink:href="#DejaVuSans-56" x="376.115234"/>
      <use xlink:href="#DejaVuSans-61" x="436.773438"/>
      <use xlink:href="#DejaVuSans-6c" x="498.052734"/>
      <use xlink:href="#DejaVuSans-69" x="525.835938"/>
      <use xlink:href="#DejaVuSans-64" x="553.619141"/>
      <use xlink:href="#DejaVuSans-61" x="617.095703"/>
      <use xlink:href="#DejaVuSans-74" x="678.375"/>
      <use xlink:href="#DejaVuSans-69" x="717.583984"/>
      <use xlink:href="#DejaVuSans-6f" x="745.367188"/>
      <use xlink:href="#DejaVuSans-6e" x="806.548828"/>
      <use xlink:href="#DejaVuSans-20" x="869.927734"/>
      <use xlink:href="#DejaVuSans-41" x="901.714844"/>
      <use xlink:href="#DejaVuSans-63" x="968.373047"/>
      <use xlink:href="#DejaVuSans-63" x="1023.353516"/>
      <use xlink:href="#DejaVuSans-75" x="1078.333984"/>
      <use xlink:href="#DejaVuSans-72" x="1141.712891"/>
      <use xlink:href="#DejaVuSans-61" x="1182.826172"/>
      <use xlink:href="#DejaVuSans-63" x="1244.105469"/>
      <use xlink:href="#DejaVuSans-79" x="1299.085938"/>
     </g>
    </g>
    <g id="line2d_27">
     <path d="M 216.18875 278.326188 
L 226.18875 278.326188 
L 236.18875 278.326188 
" style="fill: none; stroke: #d62728; stroke-width: 1.5; stroke-linecap: square"/>
    </g>
    <g id="text_25">
     <!-- SWA Validation Accuracy -->
     <g transform="translate(244.18875 281.826188) scale(0.1 -0.1)">
      <defs>
       <path id="DejaVuSans-53" d="M 3425 4513 
L 3425 3897 
Q 3066 4069 2747 4153 
Q 2428 4238 2131 4238 
Q 1616 4238 1336 4038 
Q 1056 3838 1056 3469 
Q 1056 3159 1242 3001 
Q 1428 2844 1947 2747 
L 2328 2669 
Q 3034 2534 3370 2195 
Q 3706 1856 3706 1288 
Q 3706 609 3251 259 
Q 2797 -91 1919 -91 
Q 1588 -91 1214 -16 
Q 841 59 441 206 
L 441 856 
Q 825 641 1194 531 
Q 1563 422 1919 422 
Q 2459 422 2753 634 
Q 3047 847 3047 1241 
Q 3047 1584 2836 1778 
Q 2625 1972 2144 2069 
L 1759 2144 
Q 1053 2284 737 2584 
Q 422 2884 422 3419 
Q 422 4038 858 4394 
Q 1294 4750 2059 4750 
Q 2388 4750 2728 4690 
Q 3069 4631 3425 4513 
z
" transform="scale(0.015625)"/>
       <path id="DejaVuSans-57" d="M 213 4666 
L 850 4666 
L 1831 722 
L 2809 4666 
L 3519 4666 
L 4500 722 
L 5478 4666 
L 6119 4666 
L 4947 0 
L 4153 0 
L 3169 4050 
L 2175 0 
L 1381 0 
L 213 4666 
z
" transform="scale(0.015625)"/>
      </defs>
      <use xlink:href="#DejaVuSans-53"/>
      <use xlink:href="#DejaVuSans-57" x="63.476562"/>
      <use xlink:href="#DejaVuSans-41" x="156.853516"/>
      <use xlink:href="#DejaVuSans-20" x="225.261719"/>
      <use xlink:href="#DejaVuSans-56" x="257.048828"/>
      <use xlink:href="#DejaVuSans-61" x="317.707031"/>
      <use xlink:href="#DejaVuSans-6c" x="378.986328"/>
      <use xlink:href="#DejaVuSans-69" x="406.769531"/>
      <use xlink:href="#DejaVuSans-64" x="434.552734"/>
      <use xlink:href="#DejaVuSans-61" x="498.029297"/>
      <use xlink:href="#DejaVuSans-74" x="559.308594"/>
      <use xlink:href="#DejaVuSans-69" x="598.517578"/>
      <use xlink:href="#DejaVuSans-6f" x="626.300781"/>
      <use xlink:href="#DejaVuSans-6e" x="687.482422"/>
      <use xlink:href="#DejaVuSans-20" x="750.861328"/>
      <use xlink:href="#DejaVuSans-41" x="782.648438"/>
      <use xlink:href="#DejaVuSans-63" x="849.306641"/>
      <use xlink:href="#DejaVuSans-63" x="904.287109"/>
      <use xlink:href="#DejaVuSans-75" x="959.267578"/>
      <use xlink:href="#DejaVuSans-72" x="1022.646484"/>
      <use xlink:href="#DejaVuSans-61" x="1063.759766"/>
      <use xlink:href="#DejaVuSans-63" x="1125.039062"/>
      <use xlink:href="#DejaVuSans-79" x="1180.019531"/>
     </g>
    </g>
    <g id="line2d_28">
     <path d="M 216.18875 293.004312 
L 226.18875 293.004312 
L 236.18875 293.004312 
" style="fill: none; stroke: #9467bd; stroke-width: 1.5; stroke-linecap: square"/>
    </g>
    <g id="text_26">
     <!-- SWA Robust Validation Accuracy -->
     <g transform="translate(244.18875 296.504312) scale(0.1 -0.1)">
      <use xlink:href="#DejaVuSans-53"/>
      <use xlink:href="#DejaVuSans-57" x="63.476562"/>
      <use xlink:href="#DejaVuSans-41" x="156.853516"/>
      <use xlink:href="#DejaVuSans-20" x="225.261719"/>
      <use xlink:href="#DejaVuSans-52" x="257.048828"/>
      <use xlink:href="#DejaVuSans-6f" x="322.03125"/>
      <use xlink:href="#DejaVuSans-62" x="383.212891"/>
      <use xlink:href="#DejaVuSans-75" x="446.689453"/>
      <use xlink:href="#DejaVuSans-73" x="510.068359"/>
      <use xlink:href="#DejaVuSans-74" x="562.167969"/>
      <use xlink:href="#DejaVuSans-20" x="601.376953"/>
      <use xlink:href="#DejaVuSans-56" x="633.164062"/>
      <use xlink:href="#DejaVuSans-61" x="693.822266"/>
      <use xlink:href="#DejaVuSans-6c" x="755.101562"/>
      <use xlink:href="#DejaVuSans-69" x="782.884766"/>
      <use xlink:href="#DejaVuSans-64" x="810.667969"/>
      <use xlink:href="#DejaVuSans-61" x="874.144531"/>
      <use xlink:href="#DejaVuSans-74" x="935.423828"/>
      <use xlink:href="#DejaVuSans-69" x="974.632812"/>
      <use xlink:href="#DejaVuSans-6f" x="1002.416016"/>
      <use xlink:href="#DejaVuSans-6e" x="1063.597656"/>
      <use xlink:href="#DejaVuSans-20" x="1126.976562"/>
      <use xlink:href="#DejaVuSans-41" x="1158.763672"/>
      <use xlink:href="#DejaVuSans-63" x="1225.421875"/>
      <use xlink:href="#DejaVuSans-63" x="1280.402344"/>
      <use xlink:href="#DejaVuSans-75" x="1335.382812"/>
      <use xlink:href="#DejaVuSans-72" x="1398.761719"/>
      <use xlink:href="#DejaVuSans-61" x="1439.875"/>
      <use xlink:href="#DejaVuSans-63" x="1501.154297"/>
      <use xlink:href="#DejaVuSans-79" x="1556.134766"/>
     </g>
    </g>
   </g>
  </g>
 </g>
 <defs>
  <clipPath id="p0f775ad4ad">
   <rect x="57.6" y="41.472" width="357.12" height="266.112"/>
  </clipPath>
 </defs>
</svg>
