<?xml version="1.0" encoding="utf-8" standalone="no"?>
<!DOCTYPE svg PUBLIC "-//W3C//DTD SVG 1.1//EN"
  "http://www.w3.org/Graphics/SVG/1.1/DTD/svg11.dtd">
<svg xmlns:xlink="http://www.w3.org/1999/xlink" width="460.8pt" height="345.6pt" viewBox="0 0 460.8 345.6" xmlns="http://www.w3.org/2000/svg" version="1.1">
 <metadata>
  <rdf:RDF xmlns:dc="http://purl.org/dc/elements/1.1/" xmlns:cc="http://creativecommons.org/ns#" xmlns:rdf="http://www.w3.org/1999/02/22-rdf-syntax-ns#">
   <cc:Work>
    <dc:type rdf:resource="http://purl.org/dc/dcmitype/StillImage"/>
    <dc:date>2025-08-14T14:47:18.389783</dc:date>
    <dc:format>image/svg+xml</dc:format>
    <dc:creator>
     <cc:Agent>
      <dc:title>Matplotlib v3.9.1, https://matplotlib.org/</dc:title>
     </cc:Agent>
    </dc:creator>
   </cc:Work>
  </rdf:RDF>
 </metadata>
 <defs>
  <style type="text/css">*{stroke-linejoin: round; stroke-linecap: butt}</style>
 </defs>
 <g id="figure_1">
  <g id="patch_1">
   <path d="M 0 345.6 
L 460.8 345.6 
L 460.8 0 
L 0 0 
z
" style="fill: #ffffff"/>
  </g>
  <g id="axes_1">
   <g id="patch_2">
    <path d="M 57.6 307.584 
L 414.72 307.584 
L 414.72 41.472 
L 57.6 41.472 
z
" style="fill: #ffffff"/>
   </g>
   <g id="matplotlib.axis_1">
    <g id="xtick_1">
     <g id="line2d_1">
      <defs>
       <path id="m182134cf0b" d="M 0 0 
L 0 3.5 
" style="stroke: #000000; stroke-width: 0.8"/>
      </defs>
      <g>
       <use xlink:href="#m182134cf0b" x="73.832727" y="307.584" style="stroke: #000000; stroke-width: 0.8"/>
      </g>
     </g>
     <g id="text_1">
      <!-- 1 -->
      <g transform="translate(70.651477 322.182437) scale(0.1 -0.1)">
       <defs>
        <path id="DejaVuSans-31" d="M 794 531 
L 1825 531 
L 1825 4091 
L 703 3866 
L 703 4441 
L 1819 4666 
L 2450 4666 
L 2450 531 
L 3481 531 
L 3481 0 
L 794 0 
L 794 531 
z
" transform="scale(0.015625)"/>
       </defs>
       <use xlink:href="#DejaVuSans-31"/>
      </g>
     </g>
    </g>
    <g id="xtick_2">
     <g id="line2d_2">
      <g>
       <use xlink:href="#m182134cf0b" x="109.664165" y="307.584" style="stroke: #000000; stroke-width: 0.8"/>
      </g>
     </g>
     <g id="text_2">
      <!-- 34 -->
      <g transform="translate(103.301665 322.182437) scale(0.1 -0.1)">
       <defs>
        <path id="DejaVuSans-33" d="M 2597 2516 
Q 3050 2419 3304 2112 
Q 3559 1806 3559 1356 
Q 3559 666 3084 287 
Q 2609 -91 1734 -91 
Q 1441 -91 1130 -33 
Q 819 25 488 141 
L 488 750 
Q 750 597 1062 519 
Q 1375 441 1716 441 
Q 2309 441 2620 675 
Q 2931 909 2931 1356 
Q 2931 1769 2642 2001 
Q 2353 2234 1838 2234 
L 1294 2234 
L 1294 2753 
L 1863 2753 
Q 2328 2753 2575 2939 
Q 2822 3125 2822 3475 
Q 2822 3834 2567 4026 
Q 2313 4219 1838 4219 
Q 1578 4219 1281 4162 
Q 984 4106 628 3988 
L 628 4550 
Q 988 4650 1302 4700 
Q 1616 4750 1894 4750 
Q 2613 4750 3031 4423 
Q 3450 4097 3450 3541 
Q 3450 3153 3228 2886 
Q 3006 2619 2597 2516 
z
" transform="scale(0.015625)"/>
        <path id="DejaVuSans-34" d="M 2419 4116 
L 825 1625 
L 2419 1625 
L 2419 4116 
z
M 2253 4666 
L 3047 4666 
L 3047 1625 
L 3713 1625 
L 3713 1100 
L 3047 1100 
L 3047 0 
L 2419 0 
L 2419 1100 
L 313 1100 
L 313 1709 
L 2253 4666 
z
" transform="scale(0.015625)"/>
       </defs>
       <use xlink:href="#DejaVuSans-33"/>
       <use xlink:href="#DejaVuSans-34" x="63.623047"/>
      </g>
     </g>
    </g>
    <g id="xtick_3">
     <g id="line2d_3">
      <g>
       <use xlink:href="#m182134cf0b" x="145.495604" y="307.584" style="stroke: #000000; stroke-width: 0.8"/>
      </g>
     </g>
     <g id="text_3">
      <!-- 67 -->
      <g transform="translate(139.133104 322.182437) scale(0.1 -0.1)">
       <defs>
        <path id="DejaVuSans-36" d="M 2113 2584 
Q 1688 2584 1439 2293 
Q 1191 2003 1191 1497 
Q 1191 994 1439 701 
Q 1688 409 2113 409 
Q 2538 409 2786 701 
Q 3034 994 3034 1497 
Q 3034 2003 2786 2293 
Q 2538 2584 2113 2584 
z
M 3366 4563 
L 3366 3988 
Q 3128 4100 2886 4159 
Q 2644 4219 2406 4219 
Q 1781 4219 1451 3797 
Q 1122 3375 1075 2522 
Q 1259 2794 1537 2939 
Q 1816 3084 2150 3084 
Q 2853 3084 3261 2657 
Q 3669 2231 3669 1497 
Q 3669 778 3244 343 
Q 2819 -91 2113 -91 
Q 1303 -91 875 529 
Q 447 1150 447 2328 
Q 447 3434 972 4092 
Q 1497 4750 2381 4750 
Q 2619 4750 2861 4703 
Q 3103 4656 3366 4563 
z
" transform="scale(0.015625)"/>
        <path id="DejaVuSans-37" d="M 525 4666 
L 3525 4666 
L 3525 4397 
L 1831 0 
L 1172 0 
L 2766 4134 
L 525 4134 
L 525 4666 
z
" transform="scale(0.015625)"/>
       </defs>
       <use xlink:href="#DejaVuSans-36"/>
       <use xlink:href="#DejaVuSans-37" x="63.623047"/>
      </g>
     </g>
    </g>
    <g id="xtick_4">
     <g id="line2d_4">
      <g>
       <use xlink:href="#m182134cf0b" x="181.327042" y="307.584" style="stroke: #000000; stroke-width: 0.8"/>
      </g>
     </g>
     <g id="text_4">
      <!-- 100 -->
      <g transform="translate(171.783292 322.182437) scale(0.1 -0.1)">
       <defs>
        <path id="DejaVuSans-30" d="M 2034 4250 
Q 1547 4250 1301 3770 
Q 1056 3291 1056 2328 
Q 1056 1369 1301 889 
Q 1547 409 2034 409 
Q 2525 409 2770 889 
Q 3016 1369 3016 2328 
Q 3016 3291 2770 3770 
Q 2525 4250 2034 4250 
z
M 2034 4750 
Q 2819 4750 3233 4129 
Q 3647 3509 3647 2328 
Q 3647 1150 3233 529 
Q 2819 -91 2034 -91 
Q 1250 -91 836 529 
Q 422 1150 422 2328 
Q 422 3509 836 4129 
Q 1250 4750 2034 4750 
z
" transform="scale(0.015625)"/>
       </defs>
       <use xlink:href="#DejaVuSans-31"/>
       <use xlink:href="#DejaVuSans-30" x="63.623047"/>
       <use xlink:href="#DejaVuSans-30" x="127.246094"/>
      </g>
     </g>
    </g>
    <g id="xtick_5">
     <g id="line2d_5">
      <g>
       <use xlink:href="#m182134cf0b" x="217.15848" y="307.584" style="stroke: #000000; stroke-width: 0.8"/>
      </g>
     </g>
     <g id="text_5">
      <!-- 133 -->
      <g transform="translate(207.61473 322.182437) scale(0.1 -0.1)">
       <use xlink:href="#DejaVuSans-31"/>
       <use xlink:href="#DejaVuSans-33" x="63.623047"/>
       <use xlink:href="#DejaVuSans-33" x="127.246094"/>
      </g>
     </g>
    </g>
    <g id="xtick_6">
     <g id="line2d_6">
      <g>
       <use xlink:href="#m182134cf0b" x="254.075719" y="307.584" style="stroke: #000000; stroke-width: 0.8"/>
      </g>
     </g>
     <g id="text_6">
      <!-- 167 -->
      <g transform="translate(244.531969 322.182437) scale(0.1 -0.1)">
       <use xlink:href="#DejaVuSans-31"/>
       <use xlink:href="#DejaVuSans-36" x="63.623047"/>
       <use xlink:href="#DejaVuSans-37" x="127.246094"/>
      </g>
     </g>
    </g>
    <g id="xtick_7">
     <g id="line2d_7">
      <g>
       <use xlink:href="#m182134cf0b" x="289.907157" y="307.584" style="stroke: #000000; stroke-width: 0.8"/>
      </g>
     </g>
     <g id="text_7">
      <!-- 200 -->
      <g transform="translate(280.363407 322.182437) scale(0.1 -0.1)">
       <defs>
        <path id="DejaVuSans-32" d="M 1228 531 
L 3431 531 
L 3431 0 
L 469 0 
L 469 531 
Q 828 903 1448 1529 
Q 2069 2156 2228 2338 
Q 2531 2678 2651 2914 
Q 2772 3150 2772 3378 
Q 2772 3750 2511 3984 
Q 2250 4219 1831 4219 
Q 1534 4219 1204 4116 
Q 875 4013 500 3803 
L 500 4441 
Q 881 4594 1212 4672 
Q 1544 4750 1819 4750 
Q 2544 4750 2975 4387 
Q 3406 4025 3406 3419 
Q 3406 3131 3298 2873 
Q 3191 2616 2906 2266 
Q 2828 2175 2409 1742 
Q 1991 1309 1228 531 
z
" transform="scale(0.015625)"/>
       </defs>
       <use xlink:href="#DejaVuSans-32"/>
       <use xlink:href="#DejaVuSans-30" x="63.623047"/>
       <use xlink:href="#DejaVuSans-30" x="127.246094"/>
      </g>
     </g>
    </g>
    <g id="xtick_8">
     <g id="line2d_8">
      <g>
       <use xlink:href="#m182134cf0b" x="325.738595" y="307.584" style="stroke: #000000; stroke-width: 0.8"/>
      </g>
     </g>
     <g id="text_8">
      <!-- 233 -->
      <g transform="translate(316.194845 322.182437) scale(0.1 -0.1)">
       <use xlink:href="#DejaVuSans-32"/>
       <use xlink:href="#DejaVuSans-33" x="63.623047"/>
       <use xlink:href="#DejaVuSans-33" x="127.246094"/>
      </g>
     </g>
    </g>
    <g id="xtick_9">
     <g id="line2d_9">
      <g>
       <use xlink:href="#m182134cf0b" x="361.570033" y="307.584" style="stroke: #000000; stroke-width: 0.8"/>
      </g>
     </g>
     <g id="text_9">
      <!-- 266 -->
      <g transform="translate(352.026283 322.182437) scale(0.1 -0.1)">
       <use xlink:href="#DejaVuSans-32"/>
       <use xlink:href="#DejaVuSans-36" x="63.623047"/>
       <use xlink:href="#DejaVuSans-36" x="127.246094"/>
      </g>
     </g>
    </g>
    <g id="xtick_10">
     <g id="line2d_10">
      <g>
       <use xlink:href="#m182134cf0b" x="398.487273" y="307.584" style="stroke: #000000; stroke-width: 0.8"/>
      </g>
     </g>
     <g id="text_10">
      <!-- 300 -->
      <g transform="translate(388.943523 322.182437) scale(0.1 -0.1)">
       <use xlink:href="#DejaVuSans-33"/>
       <use xlink:href="#DejaVuSans-30" x="63.623047"/>
       <use xlink:href="#DejaVuSans-30" x="127.246094"/>
      </g>
     </g>
    </g>
    <g id="text_11">
     <!-- Epochs -->
     <g transform="translate(218.244375 335.860562) scale(0.1 -0.1)">
      <defs>
       <path id="DejaVuSans-45" d="M 628 4666 
L 3578 4666 
L 3578 4134 
L 1259 4134 
L 1259 2753 
L 3481 2753 
L 3481 2222 
L 1259 2222 
L 1259 531 
L 3634 531 
L 3634 0 
L 628 0 
L 628 4666 
z
" transform="scale(0.015625)"/>
       <path id="DejaVuSans-70" d="M 1159 525 
L 1159 -1331 
L 581 -1331 
L 581 3500 
L 1159 3500 
L 1159 2969 
Q 1341 3281 1617 3432 
Q 1894 3584 2278 3584 
Q 2916 3584 3314 3078 
Q 3713 2572 3713 1747 
Q 3713 922 3314 415 
Q 2916 -91 2278 -91 
Q 1894 -91 1617 61 
Q 1341 213 1159 525 
z
M 3116 1747 
Q 3116 2381 2855 2742 
Q 2594 3103 2138 3103 
Q 1681 3103 1420 2742 
Q 1159 2381 1159 1747 
Q 1159 1113 1420 752 
Q 1681 391 2138 391 
Q 2594 391 2855 752 
Q 3116 1113 3116 1747 
z
" transform="scale(0.015625)"/>
       <path id="DejaVuSans-6f" d="M 1959 3097 
Q 1497 3097 1228 2736 
Q 959 2375 959 1747 
Q 959 1119 1226 758 
Q 1494 397 1959 397 
Q 2419 397 2687 759 
Q 2956 1122 2956 1747 
Q 2956 2369 2687 2733 
Q 2419 3097 1959 3097 
z
M 1959 3584 
Q 2709 3584 3137 3096 
Q 3566 2609 3566 1747 
Q 3566 888 3137 398 
Q 2709 -91 1959 -91 
Q 1206 -91 779 398 
Q 353 888 353 1747 
Q 353 2609 779 3096 
Q 1206 3584 1959 3584 
z
" transform="scale(0.015625)"/>
       <path id="DejaVuSans-63" d="M 3122 3366 
L 3122 2828 
Q 2878 2963 2633 3030 
Q 2388 3097 2138 3097 
Q 1578 3097 1268 2742 
Q 959 2388 959 1747 
Q 959 1106 1268 751 
Q 1578 397 2138 397 
Q 2388 397 2633 464 
Q 2878 531 3122 666 
L 3122 134 
Q 2881 22 2623 -34 
Q 2366 -91 2075 -91 
Q 1284 -91 818 406 
Q 353 903 353 1747 
Q 353 2603 823 3093 
Q 1294 3584 2113 3584 
Q 2378 3584 2631 3529 
Q 2884 3475 3122 3366 
z
" transform="scale(0.015625)"/>
       <path id="DejaVuSans-68" d="M 3513 2113 
L 3513 0 
L 2938 0 
L 2938 2094 
Q 2938 2591 2744 2837 
Q 2550 3084 2163 3084 
Q 1697 3084 1428 2787 
Q 1159 2491 1159 1978 
L 1159 0 
L 581 0 
L 581 4863 
L 1159 4863 
L 1159 2956 
Q 1366 3272 1645 3428 
Q 1925 3584 2291 3584 
Q 2894 3584 3203 3211 
Q 3513 2838 3513 2113 
z
" transform="scale(0.015625)"/>
       <path id="DejaVuSans-73" d="M 2834 3397 
L 2834 2853 
Q 2591 2978 2328 3040 
Q 2066 3103 1784 3103 
Q 1356 3103 1142 2972 
Q 928 2841 928 2578 
Q 928 2378 1081 2264 
Q 1234 2150 1697 2047 
L 1894 2003 
Q 2506 1872 2764 1633 
Q 3022 1394 3022 966 
Q 3022 478 2636 193 
Q 2250 -91 1575 -91 
Q 1294 -91 989 -36 
Q 684 19 347 128 
L 347 722 
Q 666 556 975 473 
Q 1284 391 1588 391 
Q 1994 391 2212 530 
Q 2431 669 2431 922 
Q 2431 1156 2273 1281 
Q 2116 1406 1581 1522 
L 1381 1569 
Q 847 1681 609 1914 
Q 372 2147 372 2553 
Q 372 3047 722 3315 
Q 1072 3584 1716 3584 
Q 2034 3584 2315 3537 
Q 2597 3491 2834 3397 
z
" transform="scale(0.015625)"/>
      </defs>
      <use xlink:href="#DejaVuSans-45"/>
      <use xlink:href="#DejaVuSans-70" x="63.183594"/>
      <use xlink:href="#DejaVuSans-6f" x="126.660156"/>
      <use xlink:href="#DejaVuSans-63" x="187.841797"/>
      <use xlink:href="#DejaVuSans-68" x="242.822266"/>
      <use xlink:href="#DejaVuSans-73" x="306.201172"/>
     </g>
    </g>
   </g>
   <g id="matplotlib.axis_2">
    <g id="ytick_1">
     <g id="line2d_11">
      <defs>
       <path id="ma80bd5e3cd" d="M 0 0 
L -3.5 0 
" style="stroke: #000000; stroke-width: 0.8"/>
      </defs>
      <g>
       <use xlink:href="#ma80bd5e3cd" x="57.6" y="276.95378" style="stroke: #000000; stroke-width: 0.8"/>
      </g>
     </g>
     <g id="text_12">
      <!-- 10 -->
      <g transform="translate(37.875 280.752999) scale(0.1 -0.1)">
       <use xlink:href="#DejaVuSans-31"/>
       <use xlink:href="#DejaVuSans-30" x="63.623047"/>
      </g>
     </g>
    </g>
    <g id="ytick_2">
     <g id="line2d_12">
      <g>
       <use xlink:href="#ma80bd5e3cd" x="57.6" y="244.664199" style="stroke: #000000; stroke-width: 0.8"/>
      </g>
     </g>
     <g id="text_13">
      <!-- 20 -->
      <g transform="translate(37.875 248.463418) scale(0.1 -0.1)">
       <use xlink:href="#DejaVuSans-32"/>
       <use xlink:href="#DejaVuSans-30" x="63.623047"/>
      </g>
     </g>
    </g>
    <g id="ytick_3">
     <g id="line2d_13">
      <g>
       <use xlink:href="#ma80bd5e3cd" x="57.6" y="212.374618" style="stroke: #000000; stroke-width: 0.8"/>
      </g>
     </g>
     <g id="text_14">
      <!-- 30 -->
      <g transform="translate(37.875 216.173837) scale(0.1 -0.1)">
       <use xlink:href="#DejaVuSans-33"/>
       <use xlink:href="#DejaVuSans-30" x="63.623047"/>
      </g>
     </g>
    </g>
    <g id="ytick_4">
     <g id="line2d_14">
      <g>
       <use xlink:href="#ma80bd5e3cd" x="57.6" y="180.085037" style="stroke: #000000; stroke-width: 0.8"/>
      </g>
     </g>
     <g id="text_15">
      <!-- 40 -->
      <g transform="translate(37.875 183.884256) scale(0.1 -0.1)">
       <use xlink:href="#DejaVuSans-34"/>
       <use xlink:href="#DejaVuSans-30" x="63.623047"/>
      </g>
     </g>
    </g>
    <g id="ytick_5">
     <g id="line2d_15">
      <g>
       <use xlink:href="#ma80bd5e3cd" x="57.6" y="147.795456" style="stroke: #000000; stroke-width: 0.8"/>
      </g>
     </g>
     <g id="text_16">
      <!-- 50 -->
      <g transform="translate(37.875 151.594675) scale(0.1 -0.1)">
       <defs>
        <path id="DejaVuSans-35" d="M 691 4666 
L 3169 4666 
L 3169 4134 
L 1269 4134 
L 1269 2991 
Q 1406 3038 1543 3061 
Q 1681 3084 1819 3084 
Q 2600 3084 3056 2656 
Q 3513 2228 3513 1497 
Q 3513 744 3044 326 
Q 2575 -91 1722 -91 
Q 1428 -91 1123 -41 
Q 819 9 494 109 
L 494 744 
Q 775 591 1075 516 
Q 1375 441 1709 441 
Q 2250 441 2565 725 
Q 2881 1009 2881 1497 
Q 2881 1984 2565 2268 
Q 2250 2553 1709 2553 
Q 1456 2553 1204 2497 
Q 953 2441 691 2322 
L 691 4666 
z
" transform="scale(0.015625)"/>
       </defs>
       <use xlink:href="#DejaVuSans-35"/>
       <use xlink:href="#DejaVuSans-30" x="63.623047"/>
      </g>
     </g>
    </g>
    <g id="ytick_6">
     <g id="line2d_16">
      <g>
       <use xlink:href="#ma80bd5e3cd" x="57.6" y="115.505875" style="stroke: #000000; stroke-width: 0.8"/>
      </g>
     </g>
     <g id="text_17">
      <!-- 60 -->
      <g transform="translate(37.875 119.305093) scale(0.1 -0.1)">
       <use xlink:href="#DejaVuSans-36"/>
       <use xlink:href="#DejaVuSans-30" x="63.623047"/>
      </g>
     </g>
    </g>
    <g id="ytick_7">
     <g id="line2d_17">
      <g>
       <use xlink:href="#ma80bd5e3cd" x="57.6" y="83.216293" style="stroke: #000000; stroke-width: 0.8"/>
      </g>
     </g>
     <g id="text_18">
      <!-- 70 -->
      <g transform="translate(37.875 87.015512) scale(0.1 -0.1)">
       <use xlink:href="#DejaVuSans-37"/>
       <use xlink:href="#DejaVuSans-30" x="63.623047"/>
      </g>
     </g>
    </g>
    <g id="ytick_8">
     <g id="line2d_18">
      <g>
       <use xlink:href="#ma80bd5e3cd" x="57.6" y="50.926712" style="stroke: #000000; stroke-width: 0.8"/>
      </g>
     </g>
     <g id="text_19">
      <!-- 80 -->
      <g transform="translate(37.875 54.725931) scale(0.1 -0.1)">
       <defs>
        <path id="DejaVuSans-38" d="M 2034 2216 
Q 1584 2216 1326 1975 
Q 1069 1734 1069 1313 
Q 1069 891 1326 650 
Q 1584 409 2034 409 
Q 2484 409 2743 651 
Q 3003 894 3003 1313 
Q 3003 1734 2745 1975 
Q 2488 2216 2034 2216 
z
M 1403 2484 
Q 997 2584 770 2862 
Q 544 3141 544 3541 
Q 544 4100 942 4425 
Q 1341 4750 2034 4750 
Q 2731 4750 3128 4425 
Q 3525 4100 3525 3541 
Q 3525 3141 3298 2862 
Q 3072 2584 2669 2484 
Q 3125 2378 3379 2068 
Q 3634 1759 3634 1313 
Q 3634 634 3220 271 
Q 2806 -91 2034 -91 
Q 1263 -91 848 271 
Q 434 634 434 1313 
Q 434 1759 690 2068 
Q 947 2378 1403 2484 
z
M 1172 3481 
Q 1172 3119 1398 2916 
Q 1625 2713 2034 2713 
Q 2441 2713 2670 2916 
Q 2900 3119 2900 3481 
Q 2900 3844 2670 4047 
Q 2441 4250 2034 4250 
Q 1625 4250 1398 4047 
Q 1172 3844 1172 3481 
z
" transform="scale(0.015625)"/>
       </defs>
       <use xlink:href="#DejaVuSans-38"/>
       <use xlink:href="#DejaVuSans-30" x="63.623047"/>
      </g>
     </g>
    </g>
    <g id="text_20">
     <!-- Accuracy -->
     <g transform="translate(31.795312 197.356125) rotate(-90) scale(0.1 -0.1)">
      <defs>
       <path id="DejaVuSans-41" d="M 2188 4044 
L 1331 1722 
L 3047 1722 
L 2188 4044 
z
M 1831 4666 
L 2547 4666 
L 4325 0 
L 3669 0 
L 3244 1197 
L 1141 1197 
L 716 0 
L 50 0 
L 1831 4666 
z
" transform="scale(0.015625)"/>
       <path id="DejaVuSans-75" d="M 544 1381 
L 544 3500 
L 1119 3500 
L 1119 1403 
Q 1119 906 1312 657 
Q 1506 409 1894 409 
Q 2359 409 2629 706 
Q 2900 1003 2900 1516 
L 2900 3500 
L 3475 3500 
L 3475 0 
L 2900 0 
L 2900 538 
Q 2691 219 2414 64 
Q 2138 -91 1772 -91 
Q 1169 -91 856 284 
Q 544 659 544 1381 
z
M 1991 3584 
L 1991 3584 
z
" transform="scale(0.015625)"/>
       <path id="DejaVuSans-72" d="M 2631 2963 
Q 2534 3019 2420 3045 
Q 2306 3072 2169 3072 
Q 1681 3072 1420 2755 
Q 1159 2438 1159 1844 
L 1159 0 
L 581 0 
L 581 3500 
L 1159 3500 
L 1159 2956 
Q 1341 3275 1631 3429 
Q 1922 3584 2338 3584 
Q 2397 3584 2469 3576 
Q 2541 3569 2628 3553 
L 2631 2963 
z
" transform="scale(0.015625)"/>
       <path id="DejaVuSans-61" d="M 2194 1759 
Q 1497 1759 1228 1600 
Q 959 1441 959 1056 
Q 959 750 1161 570 
Q 1363 391 1709 391 
Q 2188 391 2477 730 
Q 2766 1069 2766 1631 
L 2766 1759 
L 2194 1759 
z
M 3341 1997 
L 3341 0 
L 2766 0 
L 2766 531 
Q 2569 213 2275 61 
Q 1981 -91 1556 -91 
Q 1019 -91 701 211 
Q 384 513 384 1019 
Q 384 1609 779 1909 
Q 1175 2209 1959 2209 
L 2766 2209 
L 2766 2266 
Q 2766 2663 2505 2880 
Q 2244 3097 1772 3097 
Q 1472 3097 1187 3025 
Q 903 2953 641 2809 
L 641 3341 
Q 956 3463 1253 3523 
Q 1550 3584 1831 3584 
Q 2591 3584 2966 3190 
Q 3341 2797 3341 1997 
z
" transform="scale(0.015625)"/>
       <path id="DejaVuSans-79" d="M 2059 -325 
Q 1816 -950 1584 -1140 
Q 1353 -1331 966 -1331 
L 506 -1331 
L 506 -850 
L 844 -850 
Q 1081 -850 1212 -737 
Q 1344 -625 1503 -206 
L 1606 56 
L 191 3500 
L 800 3500 
L 1894 763 
L 2988 3500 
L 3597 3500 
L 2059 -325 
z
" transform="scale(0.015625)"/>
      </defs>
      <use xlink:href="#DejaVuSans-41"/>
      <use xlink:href="#DejaVuSans-63" x="66.658203"/>
      <use xlink:href="#DejaVuSans-63" x="121.638672"/>
      <use xlink:href="#DejaVuSans-75" x="176.619141"/>
      <use xlink:href="#DejaVuSans-72" x="239.998047"/>
      <use xlink:href="#DejaVuSans-61" x="281.111328"/>
      <use xlink:href="#DejaVuSans-63" x="342.390625"/>
      <use xlink:href="#DejaVuSans-79" x="397.371094"/>
     </g>
    </g>
   </g>
   <g id="line2d_19">
    <path d="M 73.832727 295.488 
L 74.918528 280.05358 
L 77.090131 241.971248 
L 79.261733 209.778536 
L 80.347534 199.859176 
L 81.433335 188.267217 
L 83.604938 172.994245 
L 84.690739 165.438483 
L 85.77654 160.801699 
L 86.862341 154.395446 
L 87.948142 149.093497 
L 91.205546 139.690771 
L 93.377148 136.384318 
L 94.462949 135.958095 
L 95.54875 161.415201 
L 96.634552 158.515597 
L 97.720353 154.388988 
L 98.806154 151.863943 
L 99.891955 148.654359 
L 100.977756 146.213266 
L 103.149358 138.250656 
L 104.23516 138.689794 
L 105.320961 133.052033 
L 106.406762 131.237359 
L 107.492563 128.363586 
L 108.578364 126.05811 
L 109.664165 124.514668 
L 110.749967 122.099407 
L 111.835768 119.994126 
L 112.921569 117.643445 
L 115.093171 114.046386 
L 116.178972 112.412533 
L 117.264773 109.616255 
L 118.350575 107.549722 
L 119.436376 106.742482 
L 120.522177 104.675949 
L 121.607978 103.126049 
L 122.693779 100.14895 
L 123.77958 99.767933 
L 125.951183 97.8241 
L 127.036984 95.744651 
L 128.122785 94.517647 
L 129.208586 94.285162 
L 130.294387 91.572837 
L 131.380189 91.973228 
L 132.46599 90.287712 
L 133.551791 90.739766 
L 134.637592 88.854054 
L 135.723393 88.763643 
L 136.809194 88.983213 
L 137.894995 88.027441 
L 138.980797 113.742863 
L 140.066598 116.545599 
L 141.152399 116.82329 
L 142.2382 115.409006 
L 143.324001 115.421922 
L 144.409802 114.685719 
L 145.495604 113.432883 
L 146.581405 113.697658 
L 147.667206 111.495509 
L 148.753007 110.739932 
L 149.838808 109.551676 
L 152.01041 109.629171 
L 153.096212 107.646591 
L 156.353615 105.657552 
L 157.439416 103.636225 
L 158.525217 104.469296 
L 159.611019 101.931335 
L 160.69682 101.950708 
L 161.782621 100.775368 
L 162.868422 101.311375 
L 163.954223 100.052081 
L 165.040024 99.290047 
L 166.125825 98.708834 
L 167.211627 97.223514 
L 168.297428 96.881244 
L 169.383229 96.377527 
L 170.46903 95.402381 
L 171.554831 94.149546 
L 172.640632 93.219606 
L 173.726434 93.038784 
L 175.898036 92.08947 
L 176.983837 90.474991 
L 178.069638 89.080081 
L 179.155439 88.195347 
L 180.24124 88.447206 
L 182.412843 86.57441 
L 183.498644 84.733904 
L 184.584445 85.321574 
L 185.670246 83.732927 
L 187.841849 82.647997 
L 188.92765 81.420993 
L 191.099252 80.439389 
L 192.185053 79.955046 
L 193.270854 78.715126 
L 194.356656 75.918848 
L 195.442457 76.893993 
L 196.528258 76.190081 
L 197.614059 74.058968 
L 198.69986 74.155837 
L 199.785661 73.903978 
L 200.871462 72.857796 
L 201.957264 72.34762 
L 204.128866 70.965626 
L 205.214667 71.269148 
L 207.386269 68.376002 
L 208.472071 67.42023 
L 209.557872 68.053106 
L 210.643673 67.7625 
L 211.729474 67.949779 
L 212.815275 67.194203 
L 213.901076 66.122189 
L 214.986877 65.90262 
L 216.072679 66.716317 
L 217.15848 65.599098 
L 218.244281 65.334323 
L 219.330082 66.296553 
L 220.415883 65.366613 
L 221.501684 65.289118 
L 222.587486 64.391468 
L 223.673287 65.605556 
L 224.759088 66.419253 
L 225.844889 93.058158 
L 226.93069 96.635843 
L 228.016491 97.649736 
L 229.102292 99.154431 
L 230.188094 97.869305 
L 231.273895 97.972632 
L 232.359696 97.649736 
L 233.445497 100.006876 
L 234.531298 97.843474 
L 235.617099 98.360107 
L 236.702901 97.346214 
L 237.788702 96.816665 
L 239.960304 97.184766 
L 241.046105 96.758544 
L 242.131906 95.111775 
L 243.217708 95.105317 
L 244.303509 96.209621 
L 245.38931 94.072051 
L 246.475111 96.493769 
L 247.560912 94.375573 
L 248.646713 93.994556 
L 249.732514 94.562852 
L 250.818316 93.542501 
L 251.904117 92.257376 
L 252.989918 93.445633 
L 254.075719 92.677141 
L 255.16152 93.406885 
L 256.247321 91.456595 
L 257.333123 92.754636 
L 259.504725 91.753659 
L 260.590526 90.113348 
L 261.676327 91.010998 
L 262.762128 90.546028 
L 263.847929 89.76462 
L 266.019532 90.236048 
L 267.105333 89.02196 
L 268.191134 87.323528 
L 269.276935 89.235071 
L 270.362736 89.325482 
L 271.448538 86.955427 
L 272.534339 87.556013 
L 273.62014 86.412962 
L 274.705941 87.200828 
L 275.791742 87.071669 
L 276.877543 86.180477 
L 277.963344 86.425878 
L 279.049146 83.739385 
L 280.134947 85.638012 
L 281.220748 84.314139 
L 282.306549 85.005136 
L 283.39235 85.45719 
L 284.478151 84.113944 
L 285.563953 83.255041 
L 286.649754 82.195943 
L 287.735555 82.983808 
L 288.821356 82.505923 
L 289.907157 82.247606 
L 290.992958 81.698683 
L 292.07876 82.292811 
L 293.164561 81.827841 
L 294.250362 80.68479 
L 295.336163 80.232736 
L 296.421964 80.058372 
L 297.507765 78.992816 
L 298.593566 78.844284 
L 299.679368 78.928237 
L 300.765169 78.895947 
L 301.85097 78.411604 
L 302.936771 78.353483 
L 304.022572 78.463267 
L 305.108373 76.635677 
L 306.194175 76.590471 
L 308.365777 76.028633 
L 311.62318 74.588517 
L 312.708981 75.143898 
L 313.794783 74.272079 
L 314.880584 73.703783 
L 315.966385 72.735095 
L 317.052186 72.218462 
L 318.137987 72.586563 
L 319.223788 72.231378 
L 320.30959 72.618853 
L 321.395391 71.036663 
L 322.481192 71.559755 
L 323.566993 70.416703 
L 324.652794 69.738622 
L 325.738595 68.124143 
L 326.824396 69.577174 
L 327.910198 69.674043 
L 328.995999 68.621403 
L 330.0818 67.743126 
L 331.167601 67.065045 
L 332.253402 67.465436 
L 333.339203 65.650761 
L 334.425005 65.947825 
L 335.510806 66.115731 
L 336.596607 64.914559 
L 337.682408 65.15996 
L 338.768209 64.217104 
L 339.85401 63.009474 
L 340.939811 64.113777 
L 342.025613 62.240982 
L 343.111414 63.371117 
L 344.197215 61.517695 
L 345.283016 62.111823 
L 346.368817 61.175425 
L 347.454618 60.568381 
L 348.54042 60.78795 
L 349.626221 60.78795 
L 350.712022 60.613587 
L 351.797823 59.774057 
L 352.883624 58.107915 
L 355.055227 59.186387 
L 356.141028 58.547053 
L 357.226829 56.674258 
L 358.31263 56.661342 
L 359.398431 57.25547 
L 360.484232 56.157624 
L 361.570033 56.396567 
L 362.655835 57.042359 
L 363.741636 55.544122 
L 364.827437 54.601267 
L 365.913238 55.046863 
L 366.999039 53.568 
L 368.08484 55.447254 
L 369.170642 55.757234 
L 370.256443 56.338446 
L 371.342244 57.817309 
L 372.428045 58.288737 
L 373.513846 57.507329 
L 374.599647 58.540595 
L 375.685448 58.643922 
L 376.77125 59.128266 
L 377.857051 58.521222 
L 378.942852 58.908697 
L 380.028653 58.237073 
L 381.114454 57.823767 
L 382.200255 59.360751 
L 383.286057 57.836683 
L 384.371858 56.893827 
L 385.457659 58.631006 
L 386.54346 58.417895 
L 387.629261 58.702043 
L 388.715062 59.677189 
L 389.800863 57.41046 
L 390.886665 58.082083 
L 391.972466 57.675235 
L 393.058267 58.191868 
L 394.144068 57.694608 
L 395.229869 58.798912 
L 396.31567 59.018481 
L 397.401472 58.043336 
L 398.487273 57.746272 
L 398.487273 57.746272 
" clip-path="url(#p1f2ff6dad3)" style="fill: none; stroke: #1f77b4; stroke-width: 1.5; stroke-linecap: square"/>
   </g>
   <g id="line2d_20">
    <path d="M 73.832727 285.381361 
L 74.918528 263.198419 
L 76.00433 231.845236 
L 77.090131 225.387319 
L 78.175932 200.750369 
L 79.261733 187.899116 
L 80.347534 179.923589 
L 81.433335 170.301294 
L 82.519137 156.965697 
L 83.604938 155.674114 
L 84.690739 141.33754 
L 85.77654 140.045956 
L 87.948142 131.230901 
L 89.033943 124.772984 
L 90.119745 121.99608 
L 91.205546 117.927593 
L 92.291347 118.670254 
L 93.377148 116.571431 
L 94.462949 116.991195 
L 95.54875 144.308181 
L 96.634552 137.979423 
L 97.720353 139.044979 
L 98.806154 131.812113 
L 99.891955 137.591948 
L 100.977756 124.869853 
L 102.063557 121.963791 
L 103.149358 119.929547 
L 104.23516 117.314091 
L 105.320961 108.983379 
L 106.406762 109.306275 
L 107.492563 108.466746 
L 108.578364 103.978494 
L 109.664165 106.755398 
L 110.749967 101.879671 
L 111.835768 102.299436 
L 112.921569 95.906099 
L 114.00737 94.227041 
L 115.093171 92.935457 
L 116.178972 92.580272 
L 117.264773 89.706499 
L 118.350575 90.707476 
L 119.436376 90.38458 
L 120.522177 86.703568 
L 121.607978 84.120402 
L 122.693779 85.218247 
L 123.77958 80.923733 
L 124.865382 80.37481 
L 125.951183 80.37481 
L 127.036984 80.084204 
L 128.122785 78.792621 
L 129.208586 76.435481 
L 130.294387 74.950161 
L 131.380189 76.952115 
L 133.551791 74.078342 
L 134.637592 73.884604 
L 135.723393 74.562686 
L 136.809194 73.820025 
L 137.894995 74.368948 
L 138.980797 99.393374 
L 140.066598 101.621355 
L 141.152399 96.519601 
L 142.2382 95.550913 
L 143.324001 98.715292 
L 144.409802 96.002968 
L 145.495604 96.390443 
L 146.581405 97.423709 
L 147.667206 92.515693 
L 148.753007 100.491219 
L 149.838808 93.452091 
L 150.924609 91.837612 
L 152.01041 98.456976 
L 153.096212 92.70943 
L 154.182013 88.09202 
L 155.267814 88.834681 
L 157.439416 84.669325 
L 158.525217 85.185958 
L 159.611019 84.055823 
L 160.69682 86.865016 
L 161.782621 84.023533 
L 162.868422 81.763262 
L 163.954223 83.668348 
L 165.040024 81.117471 
L 166.125825 80.600837 
L 167.211627 80.697706 
L 168.297428 78.82491 
L 169.383229 78.211408 
L 170.46903 78.695752 
L 171.554831 77.630196 
L 172.640632 76.338613 
L 173.726434 78.11454 
L 174.812235 78.405146 
L 175.898036 74.401238 
L 176.983837 77.081273 
L 178.069638 73.916894 
L 179.155439 72.819048 
L 180.24124 74.465817 
L 181.327042 71.91494 
L 182.412843 71.785782 
L 183.498644 72.044098 
L 184.584445 69.912986 
L 185.670246 71.204569 
L 186.756047 69.073457 
L 187.841849 69.073457 
L 188.92765 68.266217 
L 190.013451 68.459955 
L 192.185053 66.52258 
L 193.270854 65.295576 
L 194.356656 66.296553 
L 195.442457 66.005947 
L 196.528258 62.841568 
L 197.614059 65.069549 
L 198.69986 64.778943 
L 199.785661 63.164464 
L 200.871462 61.937459 
L 201.957264 62.518672 
L 204.128866 61.259378 
L 205.214667 62.034328 
L 206.300468 60.775035 
L 207.386269 60.904193 
L 208.472071 60.032374 
L 209.557872 59.354293 
L 210.643673 58.966818 
L 211.729474 59.709478 
L 212.815275 59.451162 
L 213.901076 58.80537 
L 214.986877 58.902239 
L 216.072679 59.838637 
L 217.15848 58.579343 
L 218.244281 58.03042 
L 219.330082 58.966818 
L 220.415883 58.676212 
L 221.501684 59.54803 
L 222.587486 58.643922 
L 223.673287 58.385606 
L 224.759088 58.353316 
L 225.844889 85.734881 
L 226.93069 80.600837 
L 228.016491 87.155622 
L 229.102292 88.673233 
L 230.188094 81.892421 
L 232.359696 83.571479 
L 233.445497 83.894375 
L 234.531298 85.508854 
L 235.617099 83.571479 
L 236.702901 84.927641 
L 237.788702 87.34936 
L 238.874503 84.604745 
L 239.960304 87.284781 
L 241.046105 79.922756 
L 242.131906 81.601814 
L 244.303509 79.083227 
L 245.38931 80.665417 
L 246.475111 80.342521 
L 247.560912 83.829795 
L 248.646713 83.313162 
L 249.732514 80.277942 
L 250.818316 76.887536 
L 251.904117 79.180096 
L 252.989918 77.113563 
L 254.075719 80.277942 
L 255.16152 77.145852 
L 256.247321 79.664439 
L 257.333123 78.469725 
L 258.418924 76.693798 
L 259.504725 80.665417 
L 260.590526 75.240767 
L 262.762128 76.629219 
L 263.847929 77.888513 
L 264.933731 75.499084 
L 266.019532 76.370902 
L 267.105333 76.661508 
L 268.191134 77.145852 
L 269.276935 75.499084 
L 270.362736 74.368948 
L 271.448538 73.658577 
L 272.534339 74.724134 
L 273.62014 72.915917 
L 274.705941 75.208477 
L 275.791742 73.852315 
L 276.877543 74.433527 
L 277.963344 74.110632 
L 279.049146 69.816117 
L 280.134947 73.981473 
L 281.220748 71.688913 
L 283.39235 75.111609 
L 284.478151 70.332751 
L 285.563953 72.528442 
L 286.649754 72.076388 
L 287.735555 68.589113 
L 288.821356 71.043121 
L 289.907157 72.076388 
L 290.992958 70.042144 
L 292.07876 70.558778 
L 293.164561 71.236859 
L 294.250362 70.655646 
L 295.336163 70.461909 
L 296.421964 69.686959 
L 297.507765 68.621403 
L 298.593566 68.298507 
L 299.679368 66.458001 
L 300.765169 70.720226 
L 302.936771 64.326888 
L 304.022572 65.101838 
L 305.108373 65.198707 
L 306.194175 66.49029 
L 307.279976 67.362109 
L 308.365777 66.974634 
L 309.451578 64.778943 
L 310.537379 65.586182 
L 311.62318 65.457024 
L 312.708981 65.876788 
L 313.794783 64.778943 
L 314.880584 61.582274 
L 315.966385 63.551938 
L 317.052186 64.456047 
L 319.223788 63.325911 
L 320.30959 63.229043 
L 321.395391 63.42278 
L 322.481192 62.002039 
L 323.566993 63.196753 
L 324.652794 62.938436 
L 325.738595 63.584228 
L 326.824396 61.420826 
L 327.910198 61.194799 
L 328.995999 60.549007 
L 330.0818 59.61261 
L 331.167601 59.806347 
L 333.339203 59.903216 
L 334.425005 60.484428 
L 335.510806 59.418872 
L 336.596607 59.644899 
L 337.682408 62.583251 
L 338.768209 57.933551 
L 339.85401 59.418872 
L 340.939811 57.223181 
L 342.025613 58.547053 
L 343.111414 56.803416 
L 344.197215 57.158601 
L 345.283016 59.160555 
L 346.368817 58.288737 
L 347.454618 55.382674 
L 348.54042 56.028466 
L 349.626221 56.48052 
L 350.712022 55.285806 
L 351.797823 56.771126 
L 352.883624 57.061733 
L 353.969425 56.157624 
L 355.055227 55.931597 
L 356.141028 57.223181 
L 357.226829 56.093045 
L 358.31263 54.801462 
L 359.398431 55.221227 
L 360.484232 54.413987 
L 361.570033 54.446277 
L 362.655835 54.091091 
L 363.741636 54.317118 
L 364.827437 53.768195 
L 365.913238 55.027489 
L 366.999039 53.800485 
L 368.08484 54.672304 
L 369.170642 55.124358 
L 370.256443 54.833752 
L 371.342244 54.091091 
L 372.428045 57.28776 
L 373.513846 55.318095 
L 374.599647 54.769172 
L 375.685448 56.803416 
L 376.77125 55.802439 
L 377.857051 56.609679 
L 378.942852 56.674258 
L 380.028653 54.866041 
L 381.114454 56.448231 
L 382.200255 55.350385 
L 383.286057 57.061733 
L 384.371858 58.256447 
L 385.457659 55.770149 
L 386.54346 56.964864 
L 387.629261 56.48052 
L 388.715062 54.607725 
L 389.800863 55.576412 
L 390.886665 55.318095 
L 391.972466 57.190891 
L 393.058267 56.932574 
L 395.229869 55.640991 
L 396.31567 56.609679 
L 398.487273 55.770149 
L 398.487273 55.770149 
" clip-path="url(#p1f2ff6dad3)" style="fill: none; stroke: #ff7f0e; stroke-width: 1.5; stroke-linecap: square"/>
   </g>
   <g id="line2d_21">
    <path d="M 73.832727 287.73172 
L 74.918528 269.827793 
L 76.00433 249.051062 
L 77.090131 243.328056 
L 78.175932 222.506766 
L 79.261733 208.455309 
L 80.347534 208.722666 
L 81.433335 201.529839 
L 82.519137 185.407329 
L 83.604938 186.142239 
L 84.690739 173.315203 
L 85.77654 178.013983 
L 86.862341 167.837276 
L 87.948142 168.527627 
L 89.033943 160.867247 
L 90.119745 160.53305 
L 91.205546 153.6967 
L 92.291347 156.146187 
L 93.377148 154.943723 
L 94.462949 157.014777 
L 95.54875 179.817679 
L 96.634552 172.84765 
L 97.720353 178.481536 
L 98.806154 171.622906 
L 99.891955 175.787294 
L 100.977756 167.146925 
L 102.063557 162.359026 
L 103.149358 162.047431 
L 104.23516 158.506556 
L 105.320961 148.352128 
L 106.406762 148.17389 
L 107.492563 147.372462 
L 108.578364 146.860027 
L 109.664165 148.97564 
L 110.749967 144.521938 
L 111.835768 142.540004 
L 112.921569 137.752427 
L 114.00737 137.150872 
L 115.093171 134.612266 
L 116.178972 133.766279 
L 117.264773 130.715236 
L 118.350575 131.383307 
L 119.436376 132.652611 
L 120.522177 127.619957 
L 121.607978 128.622225 
L 122.693779 127.263803 
L 123.77958 125.482386 
L 124.865382 122.787821 
L 125.951183 122.676422 
L 127.036984 123.077136 
L 128.122785 123.344493 
L 129.208586 119.603422 
L 130.294387 119.157826 
L 131.380189 119.692542 
L 132.46599 118.913071 
L 133.551791 117.42097 
L 134.637592 117.287291 
L 135.723393 116.641499 
L 136.809194 117.153612 
L 137.894995 118.467475 
L 138.980797 141.22614 
L 140.066598 147.194224 
L 141.152399 140.246475 
L 143.324001 141.538058 
L 144.409802 142.361765 
L 145.495604 135.636814 
L 146.581405 135.480855 
L 147.667206 137.841224 
L 148.753007 147.372462 
L 149.838808 137.128916 
L 150.924609 137.663308 
L 152.01041 145.011771 
L 153.096212 143.475433 
L 154.182013 133.877678 
L 155.267814 129.089778 
L 156.353615 133.165047 
L 157.439416 127.352922 
L 158.525217 133.921914 
L 159.611019 131.427867 
L 160.69682 134.501189 
L 161.782621 131.183112 
L 162.868422 132.71945 
L 163.954223 133.409802 
L 165.040024 125.12591 
L 166.125825 129.223457 
L 167.211627 123.722927 
L 168.297428 126.77397 
L 169.383229 123.834326 
L 170.46903 125.482386 
L 171.554831 125.793981 
L 172.640632 119.892737 
L 173.726434 124.480118 
L 174.812235 120.40485 
L 175.898036 120.805886 
L 176.983837 123.233094 
L 178.069638 123.656088 
L 179.155439 117.843963 
L 180.24124 121.518517 
L 181.327042 117.309571 
L 182.412843 116.57466 
L 183.498644 118.757113 
L 184.584445 116.953339 
L 185.670246 118.757101 
L 186.756047 117.59913 
L 187.841849 115.928979 
L 188.92765 115.038232 
L 191.099252 112.076498 
L 192.185053 113.768918 
L 193.270854 113.189932 
L 195.442457 111.341632 
L 196.528258 107.711838 
L 197.614059 110.87399 
L 198.69986 110.36181 
L 199.785661 108.290823 
L 200.871462 107.422345 
L 201.957264 107.756375 
L 203.043065 108.379898 
L 204.128866 109.738287 
L 205.214667 107.066046 
L 206.300468 104.794641 
L 207.386269 105.952612 
L 208.472071 108.090405 
L 209.557872 103.859357 
L 210.643673 103.992969 
L 212.815275 104.705566 
L 213.901076 103.213565 
L 214.986877 103.324908 
L 216.072679 104.349268 
L 218.244281 103.436252 
L 219.330082 103.079953 
L 220.415883 104.282462 
L 221.501684 104.416074 
L 222.587486 103.770282 
L 223.673287 104.30473 
L 224.759088 103.035416 
L 225.844889 135.837176 
L 226.93069 129.846902 
L 229.102292 138.732104 
L 230.188094 128.265826 
L 231.273895 133.610309 
L 232.359696 131.07168 
L 233.445497 128.889349 
L 234.531298 134.122488 
L 235.617099 127.508691 
L 236.702901 135.837176 
L 237.788702 140.936703 
L 238.874503 128.844812 
L 239.960304 139.199747 
L 241.046105 124.591495 
L 242.131906 123.901166 
L 243.217708 125.972153 
L 244.303509 127.107855 
L 245.38931 125.68266 
L 246.475111 126.796094 
L 247.560912 129.913708 
L 248.646713 128.555319 
L 249.732514 131.784277 
L 250.818316 121.696567 
L 251.904117 125.281824 
L 252.989918 123.366717 
L 254.075719 126.751556 
L 255.16152 121.852447 
L 256.247321 127.174661 
L 257.333123 124.791913 
L 258.418924 120.761282 
L 259.504725 130.960336 
L 260.590526 123.032687 
L 261.676327 122.565045 
L 262.762128 123.054956 
L 263.847929 120.828088 
L 264.933731 121.562955 
L 266.019532 121.317999 
L 268.191134 127.998602 
L 269.276935 119.336087 
L 270.362736 116.819727 
L 271.448538 121.13985 
L 273.62014 122.364627 
L 274.705941 122.698657 
L 275.791742 123.633942 
L 276.877543 118.979788 
L 277.963344 123.299911 
L 279.049146 119.358356 
L 280.134947 122.676388 
L 281.220748 119.825998 
L 282.306549 121.340268 
L 283.39235 119.714654 
L 284.478151 115.661755 
L 285.563953 122.765463 
L 286.649754 115.08277 
L 287.735555 114.370172 
L 288.821356 118.757101 
L 289.907157 117.443249 
L 290.992958 118.066772 
L 292.07876 116.26301 
L 293.164561 117.176025 
L 294.250362 119.892804 
L 295.336163 119.781461 
L 296.421964 115.483606 
L 297.507765 116.218472 
L 298.593566 112.744559 
L 299.679368 112.05423 
L 300.765169 117.755011 
L 301.85097 112.900439 
L 302.936771 112.878171 
L 304.022572 112.121036 
L 305.108373 111.787006 
L 306.194175 110.940796 
L 307.279976 113.100858 
L 308.365777 113.590768 
L 309.451578 111.965155 
L 310.537379 112.499603 
L 311.62318 113.679843 
L 312.708981 111.965155 
L 313.794783 113.590768 
L 314.880584 108.869809 
L 315.966385 110.584497 
L 317.052186 111.519781 
L 318.137987 109.18157 
L 319.223788 108.69166 
L 320.30959 110.272736 
L 321.395391 107.466882 
L 322.481192 108.357629 
L 323.566993 110.69584 
L 324.652794 107.600494 
L 325.738595 109.560138 
L 326.824396 107.645032 
L 327.910198 108.892078 
L 328.995999 106.33118 
L 330.0818 105.440433 
L 331.167601 102.256012 
L 332.253402 103.30264 
L 333.339203 106.509329 
L 334.425005 103.102222 
L 335.510806 103.258102 
L 336.596607 107.422345 
L 337.682408 107.422345 
L 338.768209 104.705566 
L 339.85401 105.841269 
L 340.939811 104.193387 
L 342.025613 104.527417 
L 343.111414 103.859357 
L 344.197215 102.256012 
L 345.283016 103.725745 
L 346.368817 101.209384 
L 349.626221 100.585861 
L 350.712022 99.784189 
L 351.797823 99.672845 
L 352.883624 100.185025 
L 353.969425 98.782098 
L 355.055227 98.693024 
L 356.141028 102.500967 
L 357.226829 99.316547 
L 358.31263 98.715292 
L 359.398431 99.205203 
L 360.484232 97.223291 
L 361.570033 98.514874 
L 362.655835 98.069501 
L 363.741636 97.935889 
L 364.827437 96.310275 
L 365.913238 97.557321 
L 366.999039 96.310275 
L 368.08484 97.869083 
L 369.170642 100.519055 
L 370.256443 100.474518 
L 371.342244 97.757739 
L 373.513846 101.164847 
L 374.599647 101.075772 
L 375.685448 103.903894 
L 376.77125 101.721564 
L 377.857051 102.256012 
L 378.942852 100.94216 
L 380.028653 101.387534 
L 381.114454 100.630399 
L 382.200255 101.899713 
L 383.286057 103.413983 
L 384.371858 98.693024 
L 385.457659 101.899713 
L 386.54346 102.478699 
L 387.629261 102.389624 
L 388.715062 100.764011 
L 389.800863 99.561502 
L 390.886665 99.873264 
L 391.972466 101.498877 
L 393.058267 101.098041 
L 394.144068 105.106403 
L 395.229869 102.256012 
L 396.31567 102.634579 
L 397.401472 100.60813 
L 398.487273 102.322818 
L 398.487273 102.322818 
" clip-path="url(#p1f2ff6dad3)" style="fill: none; stroke: #2ca02c; stroke-width: 1.5; stroke-linecap: square"/>
   </g>
   <g id="line2d_22">
    <path d="M 368.08484 53.832775 
L 369.170642 53.735906 
L 370.256443 54.704593 
L 371.342244 54.22025 
L 373.513846 58.385606 
L 374.599647 54.736883 
L 375.685448 54.543145 
L 376.77125 56.545099 
L 377.857051 56.351362 
L 378.942852 56.738837 
L 380.028653 56.157624 
L 381.114454 55.350385 
L 382.200255 57.804393 
L 384.371858 56.028466 
M 386.54346 56.674258 
L 387.629261 56.577389 
L 388.715062 55.73786 
L 389.800863 53.865064 
L 390.886665 58.159578 
L 391.972466 57.449208 
L 393.058267 55.770149 
L 394.144068 59.322003 
L 395.229869 57.449208 
L 396.31567 62.131197 
L 398.487273 58.256447 
L 398.487273 58.256447 
" clip-path="url(#p1f2ff6dad3)" style="fill: none; stroke: #d62728; stroke-width: 1.5; stroke-linecap: square"/>
   </g>
   <g id="line2d_23">
    <path d="M 368.08484 96.354813 
L 370.256443 100.385443 
L 371.342244 99.873264 
L 372.428045 98.537143 
L 373.513846 103.681207 
L 374.599647 98.492606 
L 375.685448 99.650577 
L 376.77125 99.316547 
L 377.857051 100.719473 
L 378.942852 102.590042 
L 380.028653 99.984607 
L 381.114454 99.249741 
L 382.200255 102.701386 
L 383.286057 99.962338 
L 384.371858 99.672845 
L 385.457659 101.61022 
L 386.54346 102.189206 
L 387.629261 98.75983 
L 389.800863 100.830817 
L 390.886665 101.142578 
L 391.972466 102.322818 
L 393.058267 101.521146 
L 394.144068 105.574045 
L 395.229869 106.865628 
L 396.31567 107.533688 
L 397.401472 102.612311 
L 398.487273 104.371536 
L 398.487273 104.371536 
" clip-path="url(#p1f2ff6dad3)" style="fill: none; stroke: #9467bd; stroke-width: 1.5; stroke-linecap: square"/>
   </g>
   <g id="patch_3">
    <path d="M 57.6 307.584 
L 57.6 41.472 
" style="fill: none; stroke: #000000; stroke-width: 0.8; stroke-linejoin: miter; stroke-linecap: square"/>
   </g>
   <g id="patch_4">
    <path d="M 414.72 307.584 
L 414.72 41.472 
" style="fill: none; stroke: #000000; stroke-width: 0.8; stroke-linejoin: miter; stroke-linecap: square"/>
   </g>
   <g id="patch_5">
    <path d="M 57.6 307.584 
L 414.72 307.584 
" style="fill: none; stroke: #000000; stroke-width: 0.8; stroke-linejoin: miter; stroke-linecap: square"/>
   </g>
   <g id="patch_6">
    <path d="M 57.6 41.472 
L 414.72 41.472 
" style="fill: none; stroke: #000000; stroke-width: 0.8; stroke-linejoin: miter; stroke-linecap: square"/>
   </g>
   <g id="text_21">
    <!-- Learning Curves -->
    <g transform="translate(187.37625 35.472) scale(0.12 -0.12)">
     <defs>
      <path id="DejaVuSans-4c" d="M 628 4666 
L 1259 4666 
L 1259 531 
L 3531 531 
L 3531 0 
L 628 0 
L 628 4666 
z
" transform="scale(0.015625)"/>
      <path id="DejaVuSans-65" d="M 3597 1894 
L 3597 1613 
L 953 1613 
Q 991 1019 1311 708 
Q 1631 397 2203 397 
Q 2534 397 2845 478 
Q 3156 559 3463 722 
L 3463 178 
Q 3153 47 2828 -22 
Q 2503 -91 2169 -91 
Q 1331 -91 842 396 
Q 353 884 353 1716 
Q 353 2575 817 3079 
Q 1281 3584 2069 3584 
Q 2775 3584 3186 3129 
Q 3597 2675 3597 1894 
z
M 3022 2063 
Q 3016 2534 2758 2815 
Q 2500 3097 2075 3097 
Q 1594 3097 1305 2825 
Q 1016 2553 972 2059 
L 3022 2063 
z
" transform="scale(0.015625)"/>
      <path id="DejaVuSans-6e" d="M 3513 2113 
L 3513 0 
L 2938 0 
L 2938 2094 
Q 2938 2591 2744 2837 
Q 2550 3084 2163 3084 
Q 1697 3084 1428 2787 
Q 1159 2491 1159 1978 
L 1159 0 
L 581 0 
L 581 3500 
L 1159 3500 
L 1159 2956 
Q 1366 3272 1645 3428 
Q 1925 3584 2291 3584 
Q 2894 3584 3203 3211 
Q 3513 2838 3513 2113 
z
" transform="scale(0.015625)"/>
      <path id="DejaVuSans-69" d="M 603 3500 
L 1178 3500 
L 1178 0 
L 603 0 
L 603 3500 
z
M 603 4863 
L 1178 4863 
L 1178 4134 
L 603 4134 
L 603 4863 
z
" transform="scale(0.015625)"/>
      <path id="DejaVuSans-67" d="M 2906 1791 
Q 2906 2416 2648 2759 
Q 2391 3103 1925 3103 
Q 1463 3103 1205 2759 
Q 947 2416 947 1791 
Q 947 1169 1205 825 
Q 1463 481 1925 481 
Q 2391 481 2648 825 
Q 2906 1169 2906 1791 
z
M 3481 434 
Q 3481 -459 3084 -895 
Q 2688 -1331 1869 -1331 
Q 1566 -1331 1297 -1286 
Q 1028 -1241 775 -1147 
L 775 -588 
Q 1028 -725 1275 -790 
Q 1522 -856 1778 -856 
Q 2344 -856 2625 -561 
Q 2906 -266 2906 331 
L 2906 616 
Q 2728 306 2450 153 
Q 2172 0 1784 0 
Q 1141 0 747 490 
Q 353 981 353 1791 
Q 353 2603 747 3093 
Q 1141 3584 1784 3584 
Q 2172 3584 2450 3431 
Q 2728 3278 2906 2969 
L 2906 3500 
L 3481 3500 
L 3481 434 
z
" transform="scale(0.015625)"/>
      <path id="DejaVuSans-20" transform="scale(0.015625)"/>
      <path id="DejaVuSans-43" d="M 4122 4306 
L 4122 3641 
Q 3803 3938 3442 4084 
Q 3081 4231 2675 4231 
Q 1875 4231 1450 3742 
Q 1025 3253 1025 2328 
Q 1025 1406 1450 917 
Q 1875 428 2675 428 
Q 3081 428 3442 575 
Q 3803 722 4122 1019 
L 4122 359 
Q 3791 134 3420 21 
Q 3050 -91 2638 -91 
Q 1578 -91 968 557 
Q 359 1206 359 2328 
Q 359 3453 968 4101 
Q 1578 4750 2638 4750 
Q 3056 4750 3426 4639 
Q 3797 4528 4122 4306 
z
" transform="scale(0.015625)"/>
      <path id="DejaVuSans-76" d="M 191 3500 
L 800 3500 
L 1894 563 
L 2988 3500 
L 3597 3500 
L 2284 0 
L 1503 0 
L 191 3500 
z
" transform="scale(0.015625)"/>
     </defs>
     <use xlink:href="#DejaVuSans-4c"/>
     <use xlink:href="#DejaVuSans-65" x="53.962891"/>
     <use xlink:href="#DejaVuSans-61" x="115.486328"/>
     <use xlink:href="#DejaVuSans-72" x="176.765625"/>
     <use xlink:href="#DejaVuSans-6e" x="216.128906"/>
     <use xlink:href="#DejaVuSans-69" x="279.507812"/>
     <use xlink:href="#DejaVuSans-6e" x="307.291016"/>
     <use xlink:href="#DejaVuSans-67" x="370.669922"/>
     <use xlink:href="#DejaVuSans-20" x="434.146484"/>
     <use xlink:href="#DejaVuSans-43" x="465.933594"/>
     <use xlink:href="#DejaVuSans-75" x="535.757812"/>
     <use xlink:href="#DejaVuSans-72" x="599.136719"/>
     <use xlink:href="#DejaVuSans-76" x="640.25"/>
     <use xlink:href="#DejaVuSans-65" x="699.429688"/>
     <use xlink:href="#DejaVuSans-73" x="760.953125"/>
    </g>
   </g>
   <g id="legend_1">
    <g id="patch_7">
     <path d="M 214.18875 302.584 
L 407.72 302.584 
Q 409.72 302.584 409.72 300.584 
L 409.72 228.193375 
Q 409.72 226.193375 407.72 226.193375 
L 214.18875 226.193375 
Q 212.18875 226.193375 212.18875 228.193375 
L 212.18875 300.584 
Q 212.18875 302.584 214.18875 302.584 
z
" style="fill: #ffffff; opacity: 0.8; stroke: #cccccc; stroke-linejoin: miter"/>
    </g>
    <g id="line2d_24">
     <path d="M 216.18875 234.291812 
L 226.18875 234.291812 
L 236.18875 234.291812 
" style="fill: none; stroke: #1f77b4; stroke-width: 1.5; stroke-linecap: square"/>
    </g>
    <g id="text_22">
     <!-- Train Accuracy -->
     <g transform="translate(244.18875 237.791812) scale(0.1 -0.1)">
      <defs>
       <path id="DejaVuSans-54" d="M -19 4666 
L 3928 4666 
L 3928 4134 
L 2272 4134 
L 2272 0 
L 1638 0 
L 1638 4134 
L -19 4134 
L -19 4666 
z
" transform="scale(0.015625)"/>
      </defs>
      <use xlink:href="#DejaVuSans-54"/>
      <use xlink:href="#DejaVuSans-72" x="46.333984"/>
      <use xlink:href="#DejaVuSans-61" x="87.447266"/>
      <use xlink:href="#DejaVuSans-69" x="148.726562"/>
      <use xlink:href="#DejaVuSans-6e" x="176.509766"/>
      <use xlink:href="#DejaVuSans-20" x="239.888672"/>
      <use xlink:href="#DejaVuSans-41" x="271.675781"/>
      <use xlink:href="#DejaVuSans-63" x="338.333984"/>
      <use xlink:href="#DejaVuSans-63" x="393.314453"/>
      <use xlink:href="#DejaVuSans-75" x="448.294922"/>
      <use xlink:href="#DejaVuSans-72" x="511.673828"/>
      <use xlink:href="#DejaVuSans-61" x="552.787109"/>
      <use xlink:href="#DejaVuSans-63" x="614.066406"/>
      <use xlink:href="#DejaVuSans-79" x="669.046875"/>
     </g>
    </g>
    <g id="line2d_25">
     <path d="M 216.18875 248.969937 
L 226.18875 248.969937 
L 236.18875 248.969937 
" style="fill: none; stroke: #ff7f0e; stroke-width: 1.5; stroke-linecap: square"/>
    </g>
    <g id="text_23">
     <!-- Validation Accuracy -->
     <g transform="translate(244.18875 252.469937) scale(0.1 -0.1)">
      <defs>
       <path id="DejaVuSans-56" d="M 1831 0 
L 50 4666 
L 709 4666 
L 2188 738 
L 3669 4666 
L 4325 4666 
L 2547 0 
L 1831 0 
z
" transform="scale(0.015625)"/>
       <path id="DejaVuSans-6c" d="M 603 4863 
L 1178 4863 
L 1178 0 
L 603 0 
L 603 4863 
z
" transform="scale(0.015625)"/>
       <path id="DejaVuSans-64" d="M 2906 2969 
L 2906 4863 
L 3481 4863 
L 3481 0 
L 2906 0 
L 2906 525 
Q 2725 213 2448 61 
Q 2172 -91 1784 -91 
Q 1150 -91 751 415 
Q 353 922 353 1747 
Q 353 2572 751 3078 
Q 1150 3584 1784 3584 
Q 2172 3584 2448 3432 
Q 2725 3281 2906 2969 
z
M 947 1747 
Q 947 1113 1208 752 
Q 1469 391 1925 391 
Q 2381 391 2643 752 
Q 2906 1113 2906 1747 
Q 2906 2381 2643 2742 
Q 2381 3103 1925 3103 
Q 1469 3103 1208 2742 
Q 947 2381 947 1747 
z
" transform="scale(0.015625)"/>
       <path id="DejaVuSans-74" d="M 1172 4494 
L 1172 3500 
L 2356 3500 
L 2356 3053 
L 1172 3053 
L 1172 1153 
Q 1172 725 1289 603 
Q 1406 481 1766 481 
L 2356 481 
L 2356 0 
L 1766 0 
Q 1100 0 847 248 
Q 594 497 594 1153 
L 594 3053 
L 172 3053 
L 172 3500 
L 594 3500 
L 594 4494 
L 1172 4494 
z
" transform="scale(0.015625)"/>
      </defs>
      <use xlink:href="#DejaVuSans-56"/>
      <use xlink:href="#DejaVuSans-61" x="60.658203"/>
      <use xlink:href="#DejaVuSans-6c" x="121.9375"/>
      <use xlink:href="#DejaVuSans-69" x="149.720703"/>
      <use xlink:href="#DejaVuSans-64" x="177.503906"/>
      <use xlink:href="#DejaVuSans-61" x="240.980469"/>
      <use xlink:href="#DejaVuSans-74" x="302.259766"/>
      <use xlink:href="#DejaVuSans-69" x="341.46875"/>
      <use xlink:href="#DejaVuSans-6f" x="369.251953"/>
      <use xlink:href="#DejaVuSans-6e" x="430.433594"/>
      <use xlink:href="#DejaVuSans-20" x="493.8125"/>
      <use xlink:href="#DejaVuSans-41" x="525.599609"/>
      <use xlink:href="#DejaVuSans-63" x="592.257812"/>
      <use xlink:href="#DejaVuSans-63" x="647.238281"/>
      <use xlink:href="#DejaVuSans-75" x="702.21875"/>
      <use xlink:href="#DejaVuSans-72" x="765.597656"/>
      <use xlink:href="#DejaVuSans-61" x="806.710938"/>
      <use xlink:href="#DejaVuSans-63" x="867.990234"/>
      <use xlink:href="#DejaVuSans-79" x="922.970703"/>
     </g>
    </g>
    <g id="line2d_26">
     <path d="M 216.18875 263.648062 
L 226.18875 263.648062 
L 236.18875 263.648062 
" style="fill: none; stroke: #2ca02c; stroke-width: 1.5; stroke-linecap: square"/>
    </g>
    <g id="text_24">
     <!-- Robust Validation Accuracy -->
     <g transform="translate(244.18875 267.148062) scale(0.1 -0.1)">
      <defs>
       <path id="DejaVuSans-52" d="M 2841 2188 
Q 3044 2119 3236 1894 
Q 3428 1669 3622 1275 
L 4263 0 
L 3584 0 
L 2988 1197 
Q 2756 1666 2539 1819 
Q 2322 1972 1947 1972 
L 1259 1972 
L 1259 0 
L 628 0 
L 628 4666 
L 2053 4666 
Q 2853 4666 3247 4331 
Q 3641 3997 3641 3322 
Q 3641 2881 3436 2590 
Q 3231 2300 2841 2188 
z
M 1259 4147 
L 1259 2491 
L 2053 2491 
Q 2509 2491 2742 2702 
Q 2975 2913 2975 3322 
Q 2975 3731 2742 3939 
Q 2509 4147 2053 4147 
L 1259 4147 
z
" transform="scale(0.015625)"/>
       <path id="DejaVuSans-62" d="M 3116 1747 
Q 3116 2381 2855 2742 
Q 2594 3103 2138 3103 
Q 1681 3103 1420 2742 
Q 1159 2381 1159 1747 
Q 1159 1113 1420 752 
Q 1681 391 2138 391 
Q 2594 391 2855 752 
Q 3116 1113 3116 1747 
z
M 1159 2969 
Q 1341 3281 1617 3432 
Q 1894 3584 2278 3584 
Q 2916 3584 3314 3078 
Q 3713 2572 3713 1747 
Q 3713 922 3314 415 
Q 2916 -91 2278 -91 
Q 1894 -91 1617 61 
Q 1341 213 1159 525 
L 1159 0 
L 581 0 
L 581 4863 
L 1159 4863 
L 1159 2969 
z
" transform="scale(0.015625)"/>
      </defs>
      <use xlink:href="#DejaVuSans-52"/>
      <use xlink:href="#DejaVuSans-6f" x="64.982422"/>
      <use xlink:href="#DejaVuSans-62" x="126.164062"/>
      <use xlink:href="#DejaVuSans-75" x="189.640625"/>
      <use xlink:href="#DejaVuSans-73" x="253.019531"/>
      <use xlink:href="#DejaVuSans-74" x="305.119141"/>
      <use xlink:href="#DejaVuSans-20" x="344.328125"/>
      <use xlink:href="#DejaVuSans-56" x="376.115234"/>
      <use xlink:href="#DejaVuSans-61" x="436.773438"/>
      <use xlink:href="#DejaVuSans-6c" x="498.052734"/>
      <use xlink:href="#DejaVuSans-69" x="525.835938"/>
      <use xlink:href="#DejaVuSans-64" x="553.619141"/>
      <use xlink:href="#DejaVuSans-61" x="617.095703"/>
      <use xlink:href="#DejaVuSans-74" x="678.375"/>
      <use xlink:href="#DejaVuSans-69" x="717.583984"/>
      <use xlink:href="#DejaVuSans-6f" x="745.367188"/>
      <use xlink:href="#DejaVuSans-6e" x="806.548828"/>
      <use xlink:href="#DejaVuSans-20" x="869.927734"/>
      <use xlink:href="#DejaVuSans-41" x="901.714844"/>
      <use xlink:href="#DejaVuSans-63" x="968.373047"/>
      <use xlink:href="#DejaVuSans-63" x="1023.353516"/>
      <use xlink:href="#DejaVuSans-75" x="1078.333984"/>
      <use xlink:href="#DejaVuSans-72" x="1141.712891"/>
      <use xlink:href="#DejaVuSans-61" x="1182.826172"/>
      <use xlink:href="#DejaVuSans-63" x="1244.105469"/>
      <use xlink:href="#DejaVuSans-79" x="1299.085938"/>
     </g>
    </g>
    <g id="line2d_27">
     <path d="M 216.18875 278.326188 
L 226.18875 278.326188 
L 236.18875 278.326188 
" style="fill: none; stroke: #d62728; stroke-width: 1.5; stroke-linecap: square"/>
    </g>
    <g id="text_25">
     <!-- SWA Validation Accuracy -->
     <g transform="translate(244.18875 281.826188) scale(0.1 -0.1)">
      <defs>
       <path id="DejaVuSans-53" d="M 3425 4513 
L 3425 3897 
Q 3066 4069 2747 4153 
Q 2428 4238 2131 4238 
Q 1616 4238 1336 4038 
Q 1056 3838 1056 3469 
Q 1056 3159 1242 3001 
Q 1428 2844 1947 2747 
L 2328 2669 
Q 3034 2534 3370 2195 
Q 3706 1856 3706 1288 
Q 3706 609 3251 259 
Q 2797 -91 1919 -91 
Q 1588 -91 1214 -16 
Q 841 59 441 206 
L 441 856 
Q 825 641 1194 531 
Q 1563 422 1919 422 
Q 2459 422 2753 634 
Q 3047 847 3047 1241 
Q 3047 1584 2836 1778 
Q 2625 1972 2144 2069 
L 1759 2144 
Q 1053 2284 737 2584 
Q 422 2884 422 3419 
Q 422 4038 858 4394 
Q 1294 4750 2059 4750 
Q 2388 4750 2728 4690 
Q 3069 4631 3425 4513 
z
" transform="scale(0.015625)"/>
       <path id="DejaVuSans-57" d="M 213 4666 
L 850 4666 
L 1831 722 
L 2809 4666 
L 3519 4666 
L 4500 722 
L 5478 4666 
L 6119 4666 
L 4947 0 
L 4153 0 
L 3169 4050 
L 2175 0 
L 1381 0 
L 213 4666 
z
" transform="scale(0.015625)"/>
      </defs>
      <use xlink:href="#DejaVuSans-53"/>
      <use xlink:href="#DejaVuSans-57" x="63.476562"/>
      <use xlink:href="#DejaVuSans-41" x="156.853516"/>
      <use xlink:href="#DejaVuSans-20" x="225.261719"/>
      <use xlink:href="#DejaVuSans-56" x="257.048828"/>
      <use xlink:href="#DejaVuSans-61" x="317.707031"/>
      <use xlink:href="#DejaVuSans-6c" x="378.986328"/>
      <use xlink:href="#DejaVuSans-69" x="406.769531"/>
      <use xlink:href="#DejaVuSans-64" x="434.552734"/>
      <use xlink:href="#DejaVuSans-61" x="498.029297"/>
      <use xlink:href="#DejaVuSans-74" x="559.308594"/>
      <use xlink:href="#DejaVuSans-69" x="598.517578"/>
      <use xlink:href="#DejaVuSans-6f" x="626.300781"/>
      <use xlink:href="#DejaVuSans-6e" x="687.482422"/>
      <use xlink:href="#DejaVuSans-20" x="750.861328"/>
      <use xlink:href="#DejaVuSans-41" x="782.648438"/>
      <use xlink:href="#DejaVuSans-63" x="849.306641"/>
      <use xlink:href="#DejaVuSans-63" x="904.287109"/>
      <use xlink:href="#DejaVuSans-75" x="959.267578"/>
      <use xlink:href="#DejaVuSans-72" x="1022.646484"/>
      <use xlink:href="#DejaVuSans-61" x="1063.759766"/>
      <use xlink:href="#DejaVuSans-63" x="1125.039062"/>
      <use xlink:href="#DejaVuSans-79" x="1180.019531"/>
     </g>
    </g>
    <g id="line2d_28">
     <path d="M 216.18875 293.004312 
L 226.18875 293.004312 
L 236.18875 293.004312 
" style="fill: none; stroke: #9467bd; stroke-width: 1.5; stroke-linecap: square"/>
    </g>
    <g id="text_26">
     <!-- SWA Robust Validation Accuracy -->
     <g transform="translate(244.18875 296.504312) scale(0.1 -0.1)">
      <use xlink:href="#DejaVuSans-53"/>
      <use xlink:href="#DejaVuSans-57" x="63.476562"/>
      <use xlink:href="#DejaVuSans-41" x="156.853516"/>
      <use xlink:href="#DejaVuSans-20" x="225.261719"/>
      <use xlink:href="#DejaVuSans-52" x="257.048828"/>
      <use xlink:href="#DejaVuSans-6f" x="322.03125"/>
      <use xlink:href="#DejaVuSans-62" x="383.212891"/>
      <use xlink:href="#DejaVuSans-75" x="446.689453"/>
      <use xlink:href="#DejaVuSans-73" x="510.068359"/>
      <use xlink:href="#DejaVuSans-74" x="562.167969"/>
      <use xlink:href="#DejaVuSans-20" x="601.376953"/>
      <use xlink:href="#DejaVuSans-56" x="633.164062"/>
      <use xlink:href="#DejaVuSans-61" x="693.822266"/>
      <use xlink:href="#DejaVuSans-6c" x="755.101562"/>
      <use xlink:href="#DejaVuSans-69" x="782.884766"/>
      <use xlink:href="#DejaVuSans-64" x="810.667969"/>
      <use xlink:href="#DejaVuSans-61" x="874.144531"/>
      <use xlink:href="#DejaVuSans-74" x="935.423828"/>
      <use xlink:href="#DejaVuSans-69" x="974.632812"/>
      <use xlink:href="#DejaVuSans-6f" x="1002.416016"/>
      <use xlink:href="#DejaVuSans-6e" x="1063.597656"/>
      <use xlink:href="#DejaVuSans-20" x="1126.976562"/>
      <use xlink:href="#DejaVuSans-41" x="1158.763672"/>
      <use xlink:href="#DejaVuSans-63" x="1225.421875"/>
      <use xlink:href="#DejaVuSans-63" x="1280.402344"/>
      <use xlink:href="#DejaVuSans-75" x="1335.382812"/>
      <use xlink:href="#DejaVuSans-72" x="1398.761719"/>
      <use xlink:href="#DejaVuSans-61" x="1439.875"/>
      <use xlink:href="#DejaVuSans-63" x="1501.154297"/>
      <use xlink:href="#DejaVuSans-79" x="1556.134766"/>
     </g>
    </g>
   </g>
  </g>
 </g>
 <defs>
  <clipPath id="p1f2ff6dad3">
   <rect x="57.6" y="41.472" width="357.12" height="266.112"/>
  </clipPath>
 </defs>
</svg>
