<?xml version="1.0" encoding="utf-8" standalone="no"?>
<!DOCTYPE svg PUBLIC "-//W3C//DTD SVG 1.1//EN"
  "http://www.w3.org/Graphics/SVG/1.1/DTD/svg11.dtd">
<svg xmlns:xlink="http://www.w3.org/1999/xlink" width="460.8pt" height="345.6pt" viewBox="0 0 460.8 345.6" xmlns="http://www.w3.org/2000/svg" version="1.1">
 <metadata>
  <rdf:RDF xmlns:dc="http://purl.org/dc/elements/1.1/" xmlns:cc="http://creativecommons.org/ns#" xmlns:rdf="http://www.w3.org/1999/02/22-rdf-syntax-ns#">
   <cc:Work>
    <dc:type rdf:resource="http://purl.org/dc/dcmitype/StillImage"/>
    <dc:date>2025-07-13T23:12:23.878531</dc:date>
    <dc:format>image/svg+xml</dc:format>
    <dc:creator>
     <cc:Agent>
      <dc:title>Matplotlib v3.9.1, https://matplotlib.org/</dc:title>
     </cc:Agent>
    </dc:creator>
   </cc:Work>
  </rdf:RDF>
 </metadata>
 <defs>
  <style type="text/css">*{stroke-linejoin: round; stroke-linecap: butt}</style>
 </defs>
 <g id="figure_1">
  <g id="patch_1">
   <path d="M 0 345.6 
L 460.8 345.6 
L 460.8 0 
L 0 0 
z
" style="fill: #ffffff"/>
  </g>
  <g id="axes_1">
   <g id="patch_2">
    <path d="M 57.6 307.584 
L 414.72 307.584 
L 414.72 41.472 
L 57.6 41.472 
z
" style="fill: #ffffff"/>
   </g>
   <g id="matplotlib.axis_1">
    <g id="xtick_1">
     <g id="line2d_1">
      <defs>
       <path id="m152262df73" d="M 0 0 
L 0 3.5 
" style="stroke: #000000; stroke-width: 0.8"/>
      </defs>
      <g>
       <use xlink:href="#m152262df73" x="73.832727" y="307.584" style="stroke: #000000; stroke-width: 0.8"/>
      </g>
     </g>
     <g id="text_1">
      <!-- 1 -->
      <g transform="translate(70.651477 322.182437) scale(0.1 -0.1)">
       <defs>
        <path id="DejaVuSans-31" d="M 794 531 
L 1825 531 
L 1825 4091 
L 703 3866 
L 703 4441 
L 1819 4666 
L 2450 4666 
L 2450 531 
L 3481 531 
L 3481 0 
L 794 0 
L 794 531 
z
" transform="scale(0.015625)"/>
       </defs>
       <use xlink:href="#DejaVuSans-31"/>
      </g>
     </g>
    </g>
    <g id="xtick_2">
     <g id="line2d_2">
      <g>
       <use xlink:href="#m152262df73" x="109.664165" y="307.584" style="stroke: #000000; stroke-width: 0.8"/>
      </g>
     </g>
     <g id="text_2">
      <!-- 34 -->
      <g transform="translate(103.301665 322.182437) scale(0.1 -0.1)">
       <defs>
        <path id="DejaVuSans-33" d="M 2597 2516 
Q 3050 2419 3304 2112 
Q 3559 1806 3559 1356 
Q 3559 666 3084 287 
Q 2609 -91 1734 -91 
Q 1441 -91 1130 -33 
Q 819 25 488 141 
L 488 750 
Q 750 597 1062 519 
Q 1375 441 1716 441 
Q 2309 441 2620 675 
Q 2931 909 2931 1356 
Q 2931 1769 2642 2001 
Q 2353 2234 1838 2234 
L 1294 2234 
L 1294 2753 
L 1863 2753 
Q 2328 2753 2575 2939 
Q 2822 3125 2822 3475 
Q 2822 3834 2567 4026 
Q 2313 4219 1838 4219 
Q 1578 4219 1281 4162 
Q 984 4106 628 3988 
L 628 4550 
Q 988 4650 1302 4700 
Q 1616 4750 1894 4750 
Q 2613 4750 3031 4423 
Q 3450 4097 3450 3541 
Q 3450 3153 3228 2886 
Q 3006 2619 2597 2516 
z
" transform="scale(0.015625)"/>
        <path id="DejaVuSans-34" d="M 2419 4116 
L 825 1625 
L 2419 1625 
L 2419 4116 
z
M 2253 4666 
L 3047 4666 
L 3047 1625 
L 3713 1625 
L 3713 1100 
L 3047 1100 
L 3047 0 
L 2419 0 
L 2419 1100 
L 313 1100 
L 313 1709 
L 2253 4666 
z
" transform="scale(0.015625)"/>
       </defs>
       <use xlink:href="#DejaVuSans-33"/>
       <use xlink:href="#DejaVuSans-34" x="63.623047"/>
      </g>
     </g>
    </g>
    <g id="xtick_3">
     <g id="line2d_3">
      <g>
       <use xlink:href="#m152262df73" x="145.495604" y="307.584" style="stroke: #000000; stroke-width: 0.8"/>
      </g>
     </g>
     <g id="text_3">
      <!-- 67 -->
      <g transform="translate(139.133104 322.182437) scale(0.1 -0.1)">
       <defs>
        <path id="DejaVuSans-36" d="M 2113 2584 
Q 1688 2584 1439 2293 
Q 1191 2003 1191 1497 
Q 1191 994 1439 701 
Q 1688 409 2113 409 
Q 2538 409 2786 701 
Q 3034 994 3034 1497 
Q 3034 2003 2786 2293 
Q 2538 2584 2113 2584 
z
M 3366 4563 
L 3366 3988 
Q 3128 4100 2886 4159 
Q 2644 4219 2406 4219 
Q 1781 4219 1451 3797 
Q 1122 3375 1075 2522 
Q 1259 2794 1537 2939 
Q 1816 3084 2150 3084 
Q 2853 3084 3261 2657 
Q 3669 2231 3669 1497 
Q 3669 778 3244 343 
Q 2819 -91 2113 -91 
Q 1303 -91 875 529 
Q 447 1150 447 2328 
Q 447 3434 972 4092 
Q 1497 4750 2381 4750 
Q 2619 4750 2861 4703 
Q 3103 4656 3366 4563 
z
" transform="scale(0.015625)"/>
        <path id="DejaVuSans-37" d="M 525 4666 
L 3525 4666 
L 3525 4397 
L 1831 0 
L 1172 0 
L 2766 4134 
L 525 4134 
L 525 4666 
z
" transform="scale(0.015625)"/>
       </defs>
       <use xlink:href="#DejaVuSans-36"/>
       <use xlink:href="#DejaVuSans-37" x="63.623047"/>
      </g>
     </g>
    </g>
    <g id="xtick_4">
     <g id="line2d_4">
      <g>
       <use xlink:href="#m152262df73" x="181.327042" y="307.584" style="stroke: #000000; stroke-width: 0.8"/>
      </g>
     </g>
     <g id="text_4">
      <!-- 100 -->
      <g transform="translate(171.783292 322.182437) scale(0.1 -0.1)">
       <defs>
        <path id="DejaVuSans-30" d="M 2034 4250 
Q 1547 4250 1301 3770 
Q 1056 3291 1056 2328 
Q 1056 1369 1301 889 
Q 1547 409 2034 409 
Q 2525 409 2770 889 
Q 3016 1369 3016 2328 
Q 3016 3291 2770 3770 
Q 2525 4250 2034 4250 
z
M 2034 4750 
Q 2819 4750 3233 4129 
Q 3647 3509 3647 2328 
Q 3647 1150 3233 529 
Q 2819 -91 2034 -91 
Q 1250 -91 836 529 
Q 422 1150 422 2328 
Q 422 3509 836 4129 
Q 1250 4750 2034 4750 
z
" transform="scale(0.015625)"/>
       </defs>
       <use xlink:href="#DejaVuSans-31"/>
       <use xlink:href="#DejaVuSans-30" x="63.623047"/>
       <use xlink:href="#DejaVuSans-30" x="127.246094"/>
      </g>
     </g>
    </g>
    <g id="xtick_5">
     <g id="line2d_5">
      <g>
       <use xlink:href="#m152262df73" x="217.15848" y="307.584" style="stroke: #000000; stroke-width: 0.8"/>
      </g>
     </g>
     <g id="text_5">
      <!-- 133 -->
      <g transform="translate(207.61473 322.182437) scale(0.1 -0.1)">
       <use xlink:href="#DejaVuSans-31"/>
       <use xlink:href="#DejaVuSans-33" x="63.623047"/>
       <use xlink:href="#DejaVuSans-33" x="127.246094"/>
      </g>
     </g>
    </g>
    <g id="xtick_6">
     <g id="line2d_6">
      <g>
       <use xlink:href="#m152262df73" x="254.075719" y="307.584" style="stroke: #000000; stroke-width: 0.8"/>
      </g>
     </g>
     <g id="text_6">
      <!-- 167 -->
      <g transform="translate(244.531969 322.182437) scale(0.1 -0.1)">
       <use xlink:href="#DejaVuSans-31"/>
       <use xlink:href="#DejaVuSans-36" x="63.623047"/>
       <use xlink:href="#DejaVuSans-37" x="127.246094"/>
      </g>
     </g>
    </g>
    <g id="xtick_7">
     <g id="line2d_7">
      <g>
       <use xlink:href="#m152262df73" x="289.907157" y="307.584" style="stroke: #000000; stroke-width: 0.8"/>
      </g>
     </g>
     <g id="text_7">
      <!-- 200 -->
      <g transform="translate(280.363407 322.182437) scale(0.1 -0.1)">
       <defs>
        <path id="DejaVuSans-32" d="M 1228 531 
L 3431 531 
L 3431 0 
L 469 0 
L 469 531 
Q 828 903 1448 1529 
Q 2069 2156 2228 2338 
Q 2531 2678 2651 2914 
Q 2772 3150 2772 3378 
Q 2772 3750 2511 3984 
Q 2250 4219 1831 4219 
Q 1534 4219 1204 4116 
Q 875 4013 500 3803 
L 500 4441 
Q 881 4594 1212 4672 
Q 1544 4750 1819 4750 
Q 2544 4750 2975 4387 
Q 3406 4025 3406 3419 
Q 3406 3131 3298 2873 
Q 3191 2616 2906 2266 
Q 2828 2175 2409 1742 
Q 1991 1309 1228 531 
z
" transform="scale(0.015625)"/>
       </defs>
       <use xlink:href="#DejaVuSans-32"/>
       <use xlink:href="#DejaVuSans-30" x="63.623047"/>
       <use xlink:href="#DejaVuSans-30" x="127.246094"/>
      </g>
     </g>
    </g>
    <g id="xtick_8">
     <g id="line2d_8">
      <g>
       <use xlink:href="#m152262df73" x="325.738595" y="307.584" style="stroke: #000000; stroke-width: 0.8"/>
      </g>
     </g>
     <g id="text_8">
      <!-- 233 -->
      <g transform="translate(316.194845 322.182437) scale(0.1 -0.1)">
       <use xlink:href="#DejaVuSans-32"/>
       <use xlink:href="#DejaVuSans-33" x="63.623047"/>
       <use xlink:href="#DejaVuSans-33" x="127.246094"/>
      </g>
     </g>
    </g>
    <g id="xtick_9">
     <g id="line2d_9">
      <g>
       <use xlink:href="#m152262df73" x="361.570033" y="307.584" style="stroke: #000000; stroke-width: 0.8"/>
      </g>
     </g>
     <g id="text_9">
      <!-- 266 -->
      <g transform="translate(352.026283 322.182437) scale(0.1 -0.1)">
       <use xlink:href="#DejaVuSans-32"/>
       <use xlink:href="#DejaVuSans-36" x="63.623047"/>
       <use xlink:href="#DejaVuSans-36" x="127.246094"/>
      </g>
     </g>
    </g>
    <g id="xtick_10">
     <g id="line2d_10">
      <g>
       <use xlink:href="#m152262df73" x="398.487273" y="307.584" style="stroke: #000000; stroke-width: 0.8"/>
      </g>
     </g>
     <g id="text_10">
      <!-- 300 -->
      <g transform="translate(388.943523 322.182437) scale(0.1 -0.1)">
       <use xlink:href="#DejaVuSans-33"/>
       <use xlink:href="#DejaVuSans-30" x="63.623047"/>
       <use xlink:href="#DejaVuSans-30" x="127.246094"/>
      </g>
     </g>
    </g>
    <g id="text_11">
     <!-- Epochs -->
     <g transform="translate(218.244375 335.860562) scale(0.1 -0.1)">
      <defs>
       <path id="DejaVuSans-45" d="M 628 4666 
L 3578 4666 
L 3578 4134 
L 1259 4134 
L 1259 2753 
L 3481 2753 
L 3481 2222 
L 1259 2222 
L 1259 531 
L 3634 531 
L 3634 0 
L 628 0 
L 628 4666 
z
" transform="scale(0.015625)"/>
       <path id="DejaVuSans-70" d="M 1159 525 
L 1159 -1331 
L 581 -1331 
L 581 3500 
L 1159 3500 
L 1159 2969 
Q 1341 3281 1617 3432 
Q 1894 3584 2278 3584 
Q 2916 3584 3314 3078 
Q 3713 2572 3713 1747 
Q 3713 922 3314 415 
Q 2916 -91 2278 -91 
Q 1894 -91 1617 61 
Q 1341 213 1159 525 
z
M 3116 1747 
Q 3116 2381 2855 2742 
Q 2594 3103 2138 3103 
Q 1681 3103 1420 2742 
Q 1159 2381 1159 1747 
Q 1159 1113 1420 752 
Q 1681 391 2138 391 
Q 2594 391 2855 752 
Q 3116 1113 3116 1747 
z
" transform="scale(0.015625)"/>
       <path id="DejaVuSans-6f" d="M 1959 3097 
Q 1497 3097 1228 2736 
Q 959 2375 959 1747 
Q 959 1119 1226 758 
Q 1494 397 1959 397 
Q 2419 397 2687 759 
Q 2956 1122 2956 1747 
Q 2956 2369 2687 2733 
Q 2419 3097 1959 3097 
z
M 1959 3584 
Q 2709 3584 3137 3096 
Q 3566 2609 3566 1747 
Q 3566 888 3137 398 
Q 2709 -91 1959 -91 
Q 1206 -91 779 398 
Q 353 888 353 1747 
Q 353 2609 779 3096 
Q 1206 3584 1959 3584 
z
" transform="scale(0.015625)"/>
       <path id="DejaVuSans-63" d="M 3122 3366 
L 3122 2828 
Q 2878 2963 2633 3030 
Q 2388 3097 2138 3097 
Q 1578 3097 1268 2742 
Q 959 2388 959 1747 
Q 959 1106 1268 751 
Q 1578 397 2138 397 
Q 2388 397 2633 464 
Q 2878 531 3122 666 
L 3122 134 
Q 2881 22 2623 -34 
Q 2366 -91 2075 -91 
Q 1284 -91 818 406 
Q 353 903 353 1747 
Q 353 2603 823 3093 
Q 1294 3584 2113 3584 
Q 2378 3584 2631 3529 
Q 2884 3475 3122 3366 
z
" transform="scale(0.015625)"/>
       <path id="DejaVuSans-68" d="M 3513 2113 
L 3513 0 
L 2938 0 
L 2938 2094 
Q 2938 2591 2744 2837 
Q 2550 3084 2163 3084 
Q 1697 3084 1428 2787 
Q 1159 2491 1159 1978 
L 1159 0 
L 581 0 
L 581 4863 
L 1159 4863 
L 1159 2956 
Q 1366 3272 1645 3428 
Q 1925 3584 2291 3584 
Q 2894 3584 3203 3211 
Q 3513 2838 3513 2113 
z
" transform="scale(0.015625)"/>
       <path id="DejaVuSans-73" d="M 2834 3397 
L 2834 2853 
Q 2591 2978 2328 3040 
Q 2066 3103 1784 3103 
Q 1356 3103 1142 2972 
Q 928 2841 928 2578 
Q 928 2378 1081 2264 
Q 1234 2150 1697 2047 
L 1894 2003 
Q 2506 1872 2764 1633 
Q 3022 1394 3022 966 
Q 3022 478 2636 193 
Q 2250 -91 1575 -91 
Q 1294 -91 989 -36 
Q 684 19 347 128 
L 347 722 
Q 666 556 975 473 
Q 1284 391 1588 391 
Q 1994 391 2212 530 
Q 2431 669 2431 922 
Q 2431 1156 2273 1281 
Q 2116 1406 1581 1522 
L 1381 1569 
Q 847 1681 609 1914 
Q 372 2147 372 2553 
Q 372 3047 722 3315 
Q 1072 3584 1716 3584 
Q 2034 3584 2315 3537 
Q 2597 3491 2834 3397 
z
" transform="scale(0.015625)"/>
      </defs>
      <use xlink:href="#DejaVuSans-45"/>
      <use xlink:href="#DejaVuSans-70" x="63.183594"/>
      <use xlink:href="#DejaVuSans-6f" x="126.660156"/>
      <use xlink:href="#DejaVuSans-63" x="187.841797"/>
      <use xlink:href="#DejaVuSans-68" x="242.822266"/>
      <use xlink:href="#DejaVuSans-73" x="306.201172"/>
     </g>
    </g>
   </g>
   <g id="matplotlib.axis_2">
    <g id="ytick_1">
     <g id="line2d_11">
      <defs>
       <path id="mf34c9cc89c" d="M 0 0 
L -3.5 0 
" style="stroke: #000000; stroke-width: 0.8"/>
      </defs>
      <g>
       <use xlink:href="#mf34c9cc89c" x="57.6" y="286.497285" style="stroke: #000000; stroke-width: 0.8"/>
      </g>
     </g>
     <g id="text_12">
      <!-- 10 -->
      <g transform="translate(37.875 290.296503) scale(0.1 -0.1)">
       <use xlink:href="#DejaVuSans-31"/>
       <use xlink:href="#DejaVuSans-30" x="63.623047"/>
      </g>
     </g>
    </g>
    <g id="ytick_2">
     <g id="line2d_12">
      <g>
       <use xlink:href="#mf34c9cc89c" x="57.6" y="255.494818" style="stroke: #000000; stroke-width: 0.8"/>
      </g>
     </g>
     <g id="text_13">
      <!-- 20 -->
      <g transform="translate(37.875 259.294036) scale(0.1 -0.1)">
       <use xlink:href="#DejaVuSans-32"/>
       <use xlink:href="#DejaVuSans-30" x="63.623047"/>
      </g>
     </g>
    </g>
    <g id="ytick_3">
     <g id="line2d_13">
      <g>
       <use xlink:href="#mf34c9cc89c" x="57.6" y="224.492351" style="stroke: #000000; stroke-width: 0.8"/>
      </g>
     </g>
     <g id="text_14">
      <!-- 30 -->
      <g transform="translate(37.875 228.29157) scale(0.1 -0.1)">
       <use xlink:href="#DejaVuSans-33"/>
       <use xlink:href="#DejaVuSans-30" x="63.623047"/>
      </g>
     </g>
    </g>
    <g id="ytick_4">
     <g id="line2d_14">
      <g>
       <use xlink:href="#mf34c9cc89c" x="57.6" y="193.489884" style="stroke: #000000; stroke-width: 0.8"/>
      </g>
     </g>
     <g id="text_15">
      <!-- 40 -->
      <g transform="translate(37.875 197.289103) scale(0.1 -0.1)">
       <use xlink:href="#DejaVuSans-34"/>
       <use xlink:href="#DejaVuSans-30" x="63.623047"/>
      </g>
     </g>
    </g>
    <g id="ytick_5">
     <g id="line2d_15">
      <g>
       <use xlink:href="#mf34c9cc89c" x="57.6" y="162.487417" style="stroke: #000000; stroke-width: 0.8"/>
      </g>
     </g>
     <g id="text_16">
      <!-- 50 -->
      <g transform="translate(37.875 166.286636) scale(0.1 -0.1)">
       <defs>
        <path id="DejaVuSans-35" d="M 691 4666 
L 3169 4666 
L 3169 4134 
L 1269 4134 
L 1269 2991 
Q 1406 3038 1543 3061 
Q 1681 3084 1819 3084 
Q 2600 3084 3056 2656 
Q 3513 2228 3513 1497 
Q 3513 744 3044 326 
Q 2575 -91 1722 -91 
Q 1428 -91 1123 -41 
Q 819 9 494 109 
L 494 744 
Q 775 591 1075 516 
Q 1375 441 1709 441 
Q 2250 441 2565 725 
Q 2881 1009 2881 1497 
Q 2881 1984 2565 2268 
Q 2250 2553 1709 2553 
Q 1456 2553 1204 2497 
Q 953 2441 691 2322 
L 691 4666 
z
" transform="scale(0.015625)"/>
       </defs>
       <use xlink:href="#DejaVuSans-35"/>
       <use xlink:href="#DejaVuSans-30" x="63.623047"/>
      </g>
     </g>
    </g>
    <g id="ytick_6">
     <g id="line2d_16">
      <g>
       <use xlink:href="#mf34c9cc89c" x="57.6" y="131.48495" style="stroke: #000000; stroke-width: 0.8"/>
      </g>
     </g>
     <g id="text_17">
      <!-- 60 -->
      <g transform="translate(37.875 135.284169) scale(0.1 -0.1)">
       <use xlink:href="#DejaVuSans-36"/>
       <use xlink:href="#DejaVuSans-30" x="63.623047"/>
      </g>
     </g>
    </g>
    <g id="ytick_7">
     <g id="line2d_17">
      <g>
       <use xlink:href="#mf34c9cc89c" x="57.6" y="100.482483" style="stroke: #000000; stroke-width: 0.8"/>
      </g>
     </g>
     <g id="text_18">
      <!-- 70 -->
      <g transform="translate(37.875 104.281702) scale(0.1 -0.1)">
       <use xlink:href="#DejaVuSans-37"/>
       <use xlink:href="#DejaVuSans-30" x="63.623047"/>
      </g>
     </g>
    </g>
    <g id="ytick_8">
     <g id="line2d_18">
      <g>
       <use xlink:href="#mf34c9cc89c" x="57.6" y="69.480016" style="stroke: #000000; stroke-width: 0.8"/>
      </g>
     </g>
     <g id="text_19">
      <!-- 80 -->
      <g transform="translate(37.875 73.279235) scale(0.1 -0.1)">
       <defs>
        <path id="DejaVuSans-38" d="M 2034 2216 
Q 1584 2216 1326 1975 
Q 1069 1734 1069 1313 
Q 1069 891 1326 650 
Q 1584 409 2034 409 
Q 2484 409 2743 651 
Q 3003 894 3003 1313 
Q 3003 1734 2745 1975 
Q 2488 2216 2034 2216 
z
M 1403 2484 
Q 997 2584 770 2862 
Q 544 3141 544 3541 
Q 544 4100 942 4425 
Q 1341 4750 2034 4750 
Q 2731 4750 3128 4425 
Q 3525 4100 3525 3541 
Q 3525 3141 3298 2862 
Q 3072 2584 2669 2484 
Q 3125 2378 3379 2068 
Q 3634 1759 3634 1313 
Q 3634 634 3220 271 
Q 2806 -91 2034 -91 
Q 1263 -91 848 271 
Q 434 634 434 1313 
Q 434 1759 690 2068 
Q 947 2378 1403 2484 
z
M 1172 3481 
Q 1172 3119 1398 2916 
Q 1625 2713 2034 2713 
Q 2441 2713 2670 2916 
Q 2900 3119 2900 3481 
Q 2900 3844 2670 4047 
Q 2441 4250 2034 4250 
Q 1625 4250 1398 4047 
Q 1172 3844 1172 3481 
z
" transform="scale(0.015625)"/>
       </defs>
       <use xlink:href="#DejaVuSans-38"/>
       <use xlink:href="#DejaVuSans-30" x="63.623047"/>
      </g>
     </g>
    </g>
    <g id="text_20">
     <!-- Accuracy -->
     <g transform="translate(31.795312 197.356125) rotate(-90) scale(0.1 -0.1)">
      <defs>
       <path id="DejaVuSans-41" d="M 2188 4044 
L 1331 1722 
L 3047 1722 
L 2188 4044 
z
M 1831 4666 
L 2547 4666 
L 4325 0 
L 3669 0 
L 3244 1197 
L 1141 1197 
L 716 0 
L 50 0 
L 1831 4666 
z
" transform="scale(0.015625)"/>
       <path id="DejaVuSans-75" d="M 544 1381 
L 544 3500 
L 1119 3500 
L 1119 1403 
Q 1119 906 1312 657 
Q 1506 409 1894 409 
Q 2359 409 2629 706 
Q 2900 1003 2900 1516 
L 2900 3500 
L 3475 3500 
L 3475 0 
L 2900 0 
L 2900 538 
Q 2691 219 2414 64 
Q 2138 -91 1772 -91 
Q 1169 -91 856 284 
Q 544 659 544 1381 
z
M 1991 3584 
L 1991 3584 
z
" transform="scale(0.015625)"/>
       <path id="DejaVuSans-72" d="M 2631 2963 
Q 2534 3019 2420 3045 
Q 2306 3072 2169 3072 
Q 1681 3072 1420 2755 
Q 1159 2438 1159 1844 
L 1159 0 
L 581 0 
L 581 3500 
L 1159 3500 
L 1159 2956 
Q 1341 3275 1631 3429 
Q 1922 3584 2338 3584 
Q 2397 3584 2469 3576 
Q 2541 3569 2628 3553 
L 2631 2963 
z
" transform="scale(0.015625)"/>
       <path id="DejaVuSans-61" d="M 2194 1759 
Q 1497 1759 1228 1600 
Q 959 1441 959 1056 
Q 959 750 1161 570 
Q 1363 391 1709 391 
Q 2188 391 2477 730 
Q 2766 1069 2766 1631 
L 2766 1759 
L 2194 1759 
z
M 3341 1997 
L 3341 0 
L 2766 0 
L 2766 531 
Q 2569 213 2275 61 
Q 1981 -91 1556 -91 
Q 1019 -91 701 211 
Q 384 513 384 1019 
Q 384 1609 779 1909 
Q 1175 2209 1959 2209 
L 2766 2209 
L 2766 2266 
Q 2766 2663 2505 2880 
Q 2244 3097 1772 3097 
Q 1472 3097 1187 3025 
Q 903 2953 641 2809 
L 641 3341 
Q 956 3463 1253 3523 
Q 1550 3584 1831 3584 
Q 2591 3584 2966 3190 
Q 3341 2797 3341 1997 
z
" transform="scale(0.015625)"/>
       <path id="DejaVuSans-79" d="M 2059 -325 
Q 1816 -950 1584 -1140 
Q 1353 -1331 966 -1331 
L 506 -1331 
L 506 -850 
L 844 -850 
Q 1081 -850 1212 -737 
Q 1344 -625 1503 -206 
L 1606 56 
L 191 3500 
L 800 3500 
L 1894 763 
L 2988 3500 
L 3597 3500 
L 2059 -325 
z
" transform="scale(0.015625)"/>
      </defs>
      <use xlink:href="#DejaVuSans-41"/>
      <use xlink:href="#DejaVuSans-63" x="66.658203"/>
      <use xlink:href="#DejaVuSans-63" x="121.638672"/>
      <use xlink:href="#DejaVuSans-75" x="176.619141"/>
      <use xlink:href="#DejaVuSans-72" x="239.998047"/>
      <use xlink:href="#DejaVuSans-61" x="281.111328"/>
      <use xlink:href="#DejaVuSans-63" x="342.390625"/>
      <use xlink:href="#DejaVuSans-79" x="397.371094"/>
     </g>
    </g>
   </g>
   <g id="line2d_19">
    <path d="M 73.832727 295.488 
L 77.090131 219.803228 
L 78.175932 200.395683 
L 79.261733 188.42098 
L 80.347534 173.160016 
L 82.519137 158.37959 
L 86.862341 135.980308 
L 87.948142 130.85715 
L 89.033943 127.384874 
L 91.205546 121.757926 
L 92.291347 117.378828 
L 93.377148 118.983205 
L 94.462949 115.224156 
L 95.54875 144.296719 
L 96.634552 144.05645 
L 97.720353 141.692512 
L 98.806154 136.817374 
L 99.891955 135.437765 
L 102.063557 129.679056 
L 103.149358 126.842331 
L 104.23516 124.408637 
L 105.320961 120.572082 
L 106.406762 119.820272 
L 107.492563 116.890539 
L 108.578364 116.394499 
L 109.664165 113.898801 
L 110.749967 111.914643 
L 111.835768 108.574127 
L 115.093171 105.745152 
L 116.178972 103.117693 
L 118.350575 98.978863 
L 119.436376 98.234804 
L 120.522177 94.66177 
L 121.607978 96.04138 
L 122.693779 92.228076 
L 123.77958 91.52277 
L 124.865382 90.429933 
L 125.951183 90.112158 
L 127.036984 88.073746 
L 128.122785 87.12817 
L 129.208586 85.190516 
L 130.294387 85.314526 
L 131.380189 83.47763 
L 132.46599 82.811077 
L 133.551791 83.066847 
L 134.637592 81.423717 
L 135.723393 82.904084 
L 136.809194 79.95885 
L 137.894995 80.904425 
L 138.980797 105.047596 
L 140.066598 108.426865 
L 141.152399 108.512122 
L 142.2382 107.318527 
L 143.324001 107.326278 
L 144.409802 107.124762 
L 145.495604 105.055347 
L 146.581405 105.427377 
L 147.667206 104.745322 
L 148.753007 104.636814 
L 149.838808 102.784416 
L 150.924609 102.900675 
L 152.01041 101.621824 
L 153.096212 99.629915 
L 154.182013 100.614244 
L 155.267814 98.002286 
L 156.353615 99.482654 
L 157.439416 96.909449 
L 158.525217 96.948202 
L 159.611019 94.762528 
L 160.69682 95.723604 
L 161.782621 96.087883 
L 162.868422 94.475755 
L 163.954223 93.243407 
L 165.040024 91.538271 
L 167.211627 92.762869 
L 168.297428 91.491768 
L 169.383229 89.833136 
L 170.46903 88.531032 
L 171.554831 88.399272 
L 173.726434 86.384111 
L 174.812235 87.941985 
L 175.898036 86.585627 
L 176.983837 85.60905 
L 178.069638 84.120931 
L 179.155439 83.128852 
L 180.24124 83.795405 
L 181.327042 81.96626 
L 182.412843 82.22203 
L 183.498644 80.819168 
L 184.584445 80.594401 
L 185.670246 80.028606 
L 186.756047 78.57924 
L 187.841849 76.750095 
L 190.013451 76.1843 
L 191.099252 76.1843 
L 192.185053 74.43266 
L 193.270854 74.81244 
L 194.356656 73.890117 
L 195.442457 74.285399 
L 196.528258 71.975715 
L 198.69986 71.998967 
L 199.785661 68.449184 
L 200.871462 71.262658 
L 201.957264 69.867547 
L 203.043065 66.790552 
L 204.128866 67.89114 
L 205.214667 66.953315 
L 206.300468 67.01532 
L 208.472071 66.503779 
L 210.643673 65.147421 
L 212.815275 64.759891 
L 213.901076 63.000501 
L 214.986877 63.961577 
L 216.072679 62.884241 
L 217.15848 62.721478 
L 218.244281 63.643802 
L 219.330082 62.155683 
L 220.415883 62.775733 
L 221.501684 61.644143 
L 222.587486 62.147933 
L 223.673287 63.775562 
L 224.759088 63.969328 
L 225.844889 88.7558 
L 226.93069 90.987978 
L 228.016491 92.669861 
L 229.102292 93.623187 
L 230.188094 91.298002 
L 231.273895 91.453015 
L 232.359696 93.630938 
L 233.445497 89.096827 
L 234.531298 90.530691 
L 235.617099 90.677953 
L 236.702901 91.313503 
L 237.788702 91.484017 
L 238.874503 89.391351 
L 239.960304 88.7558 
L 241.046105 89.027072 
L 242.131906 89.027072 
L 243.217708 88.670543 
L 244.303509 87.786973 
L 245.38931 88.096998 
L 246.475111 88.600788 
L 247.560912 88.639541 
L 248.646713 87.174674 
L 249.732514 88.104748 
L 250.818316 87.283183 
L 251.904117 85.500541 
L 252.989918 84.756482 
L 254.075719 86.275603 
L 255.16152 84.919245 
L 256.247321 85.11301 
L 257.333123 85.756311 
L 258.418924 84.694477 
L 259.504725 83.888413 
L 260.590526 84.244941 
L 261.676327 83.260613 
L 262.762128 83.686897 
L 263.847929 83.22961 
L 264.933731 83.214109 
L 266.019532 82.361541 
L 267.105333 83.415625 
L 268.191134 81.113692 
L 269.276935 81.237702 
L 270.362736 82.105771 
L 271.448538 79.889094 
L 272.534339 81.501223 
L 273.62014 79.920097 
L 274.705941 80.067359 
L 275.791742 79.927847 
L 276.877543 80.96643 
L 277.963344 79.121783 
L 279.049146 79.850341 
L 280.134947 79.571319 
L 281.220748 77.94369 
L 282.306549 77.773176 
L 283.39235 78.114203 
L 284.478151 77.95144 
L 285.563953 78.230462 
L 286.649754 76.912858 
L 287.735555 77.587161 
L 288.821356 75.781268 
L 289.907157 76.56408 
L 290.992958 75.509996 
L 292.07876 75.913028 
L 293.164561 75.068211 
L 294.250362 76.091292 
L 296.421964 73.828112 
L 297.507765 75.316231 
L 298.593566 73.463833 
L 299.679368 74.719433 
L 300.765169 74.471413 
L 301.85097 73.456083 
L 302.936771 72.805031 
L 304.022572 71.239406 
L 305.108373 72.828283 
L 306.194175 71.774199 
L 307.279976 71.1619 
L 308.365777 71.084394 
L 309.451578 71.41767 
L 310.537379 70.975885 
L 311.62318 71.247157 
L 312.708981 69.890799 
L 314.880584 69.580774 
L 315.966385 68.549942 
L 317.052186 68.511189 
L 318.137987 68.883219 
L 319.223788 67.689624 
L 320.30959 67.13933 
L 321.395391 67.922142 
L 322.481192 67.573364 
L 323.566993 67.650871 
L 324.652794 66.38752 
L 325.738595 66.232508 
L 326.824396 64.899402 
L 327.910198 65.937984 
L 328.995999 65.790723 
L 330.0818 65.023412 
L 331.167601 64.00033 
L 332.253402 63.659303 
L 333.339203 63.031503 
L 334.425005 62.899743 
L 335.510806 61.99292 
L 336.596607 62.519962 
L 337.682408 62.760231 
L 338.768209 61.698397 
L 340.939811 61.543385 
L 342.025613 61.744901 
L 343.111414 60.272283 
L 344.197215 61.419375 
L 345.283016 59.737491 
L 346.368817 59.807246 
L 347.454618 58.435387 
L 348.54042 58.962429 
L 349.626221 57.691328 
L 350.712022 58.559397 
L 351.797823 58.055607 
L 352.883624 58.202869 
L 353.969425 57.381303 
L 356.141028 56.389224 
L 357.226829 57.040276 
L 358.31263 56.319469 
L 359.398431 56.389224 
L 361.570033 54.645336 
L 362.655835 54.932109 
L 364.827437 53.847022 
L 365.913238 55.412647 
L 366.999039 53.847022 
L 368.08484 53.568 
L 369.170642 56.117953 
L 370.256443 55.559908 
L 371.342244 56.141205 
L 372.428045 56.055948 
L 373.513846 57.931597 
L 374.599647 58.698908 
L 375.685448 58.303627 
L 376.77125 56.815508 
L 377.857051 57.815338 
L 378.942852 56.528736 
L 380.028653 56.908516 
L 381.114454 56.451229 
L 382.200255 56.675997 
L 384.371858 57.985852 
L 385.457659 58.047856 
L 386.54346 57.427807 
L 387.629261 57.203039 
L 388.715062 57.939348 
L 389.800863 57.420057 
L 390.886665 58.613651 
L 391.972466 56.598491 
L 393.058267 58.001353 
L 394.144068 57.350301 
L 395.229869 57.683577 
L 396.31567 57.079029 
L 397.401472 57.195289 
L 398.487273 58.381133 
L 398.487273 58.381133 
" clip-path="url(#pafad0d581b)" style="fill: none; stroke: #1f77b4; stroke-width: 1.5; stroke-linecap: square"/>
   </g>
   <g id="line2d_20">
    <path d="M 73.832727 283.397038 
L 74.918528 253.293643 
L 76.00433 226.538514 
L 77.090131 213.486475 
L 78.175932 195.505044 
L 79.261733 196.745143 
L 80.347534 181.088897 
L 81.433335 168.966932 
L 82.519137 164.378567 
L 83.604938 157.465017 
L 84.690739 154.61279 
L 86.862341 139.142559 
L 87.948142 134.306174 
L 89.033943 137.654441 
L 90.119745 132.539034 
L 91.205546 124.726412 
L 92.291347 127.051597 
L 93.377148 125.873503 
L 94.462949 126.121523 
L 95.54875 151.977581 
L 96.634552 153.341689 
L 97.720353 151.450539 
L 98.806154 140.692683 
L 99.891955 138.429503 
L 100.977756 141.560752 
L 102.063557 139.731606 
L 104.23516 130.337859 
L 105.320961 123.455311 
L 106.406762 127.175607 
L 107.492563 118.649929 
L 108.578364 121.316141 
L 109.664165 123.331301 
L 110.749967 118.432911 
L 111.835768 114.89863 
L 112.921569 110.868309 
L 114.00737 115.735697 
L 115.093171 109.938235 
L 116.178972 108.667134 
L 117.264773 108.760142 
L 118.350575 105.256863 
L 119.436376 104.698819 
L 120.522177 101.133535 
L 121.607978 102.125614 
L 122.693779 99.366394 
L 123.77958 96.948202 
L 124.865382 95.677101 
L 125.951183 96.514167 
L 127.036984 95.832113 
L 128.122785 93.506928 
L 130.294387 92.762869 
L 131.380189 91.708785 
L 132.46599 89.25959 
L 133.551791 90.189664 
L 134.637592 89.290593 
L 135.723393 88.701546 
L 136.809194 89.662622 
L 137.894995 89.104578 
L 138.980797 115.363667 
L 140.066598 118.091884 
L 141.152399 114.402591 
L 142.2382 115.208655 
L 143.324001 113.441514 
L 144.409802 113.286502 
L 145.495604 115.735697 
L 146.581405 111.953396 
L 147.667206 112.449435 
L 148.753007 108.977159 
L 149.838808 116.541761 
L 150.924609 108.977159 
L 152.01041 106.620972 
L 153.096212 109.380191 
L 154.182013 104.884833 
L 155.267814 106.031925 
L 156.353615 102.311629 
L 157.439416 102.032606 
L 158.525217 100.265466 
L 160.69682 103.2107 
L 161.782621 99.738424 
L 162.868422 101.722582 
L 163.954223 98.622335 
L 165.040024 99.180379 
L 166.125825 95.274069 
L 167.211627 95.553091 
L 168.297428 97.568251 
L 169.383229 93.103896 
L 170.46903 93.692943 
L 171.554831 92.080815 
L 172.640632 93.320913 
L 174.812235 93.010889 
L 175.898036 92.359837 
L 176.983837 93.041891 
L 178.069638 92.514849 
L 179.155439 90.158662 
L 180.24124 87.337437 
L 181.327042 85.973329 
L 182.412843 86.469368 
L 183.498644 87.24443 
L 184.584445 85.973329 
L 185.670246 86.686385 
L 186.756047 84.299195 
L 188.92765 82.067018 
L 190.013451 81.881003 
L 191.099252 79.338801 
L 192.185053 81.167946 
L 193.270854 78.656746 
L 194.356656 79.276796 
L 195.442457 78.842761 
L 196.528258 78.687749 
L 197.614059 78.284717 
L 198.69986 77.292638 
L 199.785661 77.013616 
L 200.871462 77.416648 
L 201.957264 76.207551 
L 203.043065 75.587502 
L 204.128866 74.316401 
L 205.214667 75.618505 
L 206.300468 74.440411 
L 207.386269 74.254396 
L 208.472071 74.81244 
L 209.557872 72.952292 
L 210.643673 74.161389 
L 211.729474 71.836204 
L 212.815275 72.54926 
L 213.901076 72.053221 
L 214.986877 72.363246 
L 216.072679 71.588184 
L 217.15848 71.154149 
L 218.244281 71.185152 
L 219.330082 71.898209 
L 220.415883 71.619186 
L 221.501684 71.464174 
L 222.587486 71.650189 
L 223.673287 71.340164 
L 224.759088 72.084223 
L 225.844889 99.397397 
L 226.93069 95.801111 
L 228.016491 97.599254 
L 229.102292 97.723264 
L 230.188094 99.459402 
L 231.273895 100.141456 
L 232.359696 96.080133 
L 233.445497 94.871037 
L 234.531298 96.948202 
L 235.617099 91.832795 
L 236.702901 97.568251 
L 237.788702 91.832795 
L 238.874503 101.257545 
L 239.960304 93.103896 
L 241.046105 94.933041 
L 242.131906 97.661259 
L 243.217708 93.506928 
L 244.303509 93.382918 
L 245.38931 94.064972 
L 246.475111 93.227906 
L 247.560912 91.64678 
L 248.646713 95.584093 
L 249.732514 96.576172 
L 250.818316 91.491768 
L 251.904117 90.561694 
L 252.989918 94.064972 
L 255.16152 90.282671 
L 256.247321 90.468686 
L 257.333123 94.933041 
L 258.418924 93.165901 
L 259.504725 91.863797 
L 260.590526 89.25959 
L 261.676327 88.019491 
L 262.762128 88.236509 
L 263.847929 87.926484 
L 266.019532 88.019491 
L 267.105333 89.414602 
L 268.191134 91.64678 
L 269.276935 86.686385 
L 270.362736 87.864479 
L 271.448538 87.554454 
L 272.534339 86.066336 
L 273.62014 88.391521 
L 274.705941 89.879639 
L 275.791742 89.352597 
L 276.877543 85.911324 
L 277.963344 84.330198 
L 279.049146 84.578218 
L 280.134947 86.159343 
L 281.220748 86.407363 
L 282.306549 84.671225 
L 283.39235 83.152104 
L 284.478151 83.431126 
L 285.563953 84.640222 
L 286.649754 84.60922 
L 287.735555 85.694306 
L 288.821356 83.648144 
L 289.907157 84.175185 
L 290.992958 82.160025 
L 292.07876 86.438366 
L 293.164561 84.082178 
L 294.250362 80.826919 
L 295.336163 82.501052 
L 296.421964 82.315037 
L 297.507765 81.260954 
L 298.593566 80.702909 
L 299.679368 81.539976 
L 300.765169 79.214791 
L 301.85097 80.051857 
L 302.936771 79.493813 
L 304.022572 82.284035 
L 305.108373 78.997773 
L 306.194175 78.687749 
L 307.279976 79.896845 
L 308.365777 77.81968 
L 309.451578 78.129704 
L 310.537379 79.400806 
L 311.62318 81.384963 
L 312.708981 77.540658 
L 313.794783 76.362564 
L 315.966385 77.230633 
L 317.052186 75.122465 
L 318.137987 76.021537 
L 319.223788 73.975374 
L 320.30959 75.742514 
L 321.395391 74.285399 
L 322.481192 75.773517 
L 323.566993 74.254396 
L 324.652794 72.952292 
L 325.738595 74.471413 
L 326.824396 73.882366 
L 327.910198 73.0453 
L 328.995999 72.890288 
L 330.0818 74.93645 
L 331.167601 71.557181 
L 332.253402 70.65811 
L 333.339203 70.937132 
L 334.425005 72.890288 
L 335.510806 70.751117 
L 336.596607 70.720115 
L 337.682408 70.441093 
L 338.768209 69.449014 
L 339.85401 70.5341 
L 340.939811 70.069063 
L 342.025613 69.076984 
L 343.111414 71.061142 
L 344.197215 69.790041 
L 345.283016 68.735957 
L 346.368817 68.890969 
L 347.454618 68.487937 
L 348.54042 68.456935 
L 349.626221 67.960895 
L 350.712022 67.650871 
L 351.797823 67.960895 
L 352.883624 67.960895 
L 353.969425 68.239917 
L 355.055227 66.286762 
L 356.141028 67.495858 
L 358.31263 65.325686 
L 359.398431 65.75972 
L 360.484232 65.790723 
L 361.570033 65.5117 
L 362.655835 66.100747 
L 363.741636 64.302604 
L 364.827437 64.922654 
L 365.913238 64.736639 
L 366.999039 64.891651 
L 368.08484 65.356688 
L 369.170642 65.015661 
L 370.256443 66.875809 
L 371.342244 65.976737 
L 372.428045 67.991898 
L 373.513846 67.402851 
L 375.685448 67.77488 
L 376.77125 65.356688 
L 377.857051 67.557863 
L 378.942852 67.526861 
L 380.028653 68.797962 
L 381.114454 68.0229 
L 382.200255 68.64295 
L 383.286057 67.030821 
L 384.371858 67.216836 
L 385.457659 66.999819 
L 386.54346 66.472777 
L 387.629261 66.720797 
L 388.715062 66.348767 
L 389.800863 69.480016 
L 390.886665 67.681873 
L 393.058267 68.332925 
L 394.144068 68.053903 
L 395.229869 67.123829 
L 396.31567 69.573024 
L 397.401472 67.526861 
L 398.487273 68.208915 
L 398.487273 68.208915 
" clip-path="url(#pafad0d581b)" style="fill: none; stroke: #ff7f0e; stroke-width: 1.5; stroke-linecap: square"/>
   </g>
   <g id="line2d_21">
    <path d="M 73.832727 288.849196 
L 74.918528 267.575089 
L 76.00433 250.149565 
L 77.090131 237.320958 
L 78.175932 228.234028 
L 79.261733 227.806408 
L 80.347534 215.512326 
L 81.433335 207.601352 
L 82.519137 206.532301 
L 83.604938 201.293953 
L 84.690739 199.155852 
L 85.77654 193.596789 
L 86.862341 188.892966 
L 87.948142 184.830574 
L 89.033943 186.327245 
L 90.119745 180.447467 
L 91.205546 176.171264 
L 92.291347 175.957454 
L 93.377148 174.033163 
L 94.462949 175.529834 
L 95.54875 194.558934 
L 96.634552 200.224903 
L 97.720353 198.407517 
L 98.806154 188.144631 
L 99.891955 188.037726 
L 100.977756 194.238219 
L 102.063557 188.679156 
L 103.149358 184.509859 
L 104.23516 184.402954 
L 105.320961 174.246973 
L 106.406762 178.416271 
L 107.492563 169.756961 
L 108.578364 177.98865 
L 109.664165 177.240315 
L 110.749967 175.102214 
L 111.835768 168.90172 
L 112.921569 167.83267 
L 114.00737 168.367195 
L 115.093171 161.632176 
L 116.178972 160.135506 
L 117.264773 159.17336 
L 118.350575 161.739082 
L 119.436376 158.74574 
L 120.522177 154.041917 
L 121.607978 158.852645 
L 122.693779 153.400487 
L 123.77958 150.941671 
L 124.865382 150.30024 
L 125.951183 149.23119 
L 127.036984 149.445 
L 128.122785 146.130943 
L 129.208586 144.954987 
L 130.294387 145.489513 
L 131.380189 143.779032 
L 132.46599 143.137601 
L 133.551791 143.137601 
L 134.637592 141.21331 
L 135.723393 142.709981 
L 136.809194 142.282361 
L 137.894995 141.640931 
L 138.980797 166.549809 
L 140.066598 172.643397 
L 141.152399 164.197898 
L 142.2382 166.229094 
L 143.324001 167.084334 
L 144.409802 166.870524 
L 145.495604 163.021942 
L 146.581405 164.518613 
L 147.667206 168.04648 
L 148.753007 158.53193 
L 149.838808 169.329341 
L 150.924609 163.770278 
L 152.01041 162.915037 
L 153.096212 161.525271 
L 154.182013 157.890499 
L 155.267814 159.494075 
L 156.353615 159.60098 
L 157.439416 154.683348 
L 158.525217 152.652152 
L 159.611019 155.217873 
L 160.69682 156.714544 
L 161.782621 150.941671 
L 162.868422 156.928354 
L 163.954223 153.507392 
L 165.040024 155.324778 
L 166.125825 145.168797 
L 167.211627 148.589759 
L 168.297428 146.879278 
L 169.383229 148.910474 
L 170.46903 149.65881 
L 171.554831 141.961646 
L 172.640632 149.445 
L 173.726434 148.162139 
L 174.812235 142.175456 
L 175.898036 146.986183 
L 176.983837 143.885937 
L 178.069638 147.948329 
L 179.155439 144.206652 
L 180.24124 137.150918 
L 181.327042 137.364728 
L 182.412843 141.854741 
L 183.498644 138.006159 
L 184.584445 140.464975 
L 185.670246 140.35807 
L 186.756047 139.075209 
L 187.841849 136.723298 
L 188.92765 132.874716 
L 190.013451 135.868057 
L 191.099252 130.308994 
L 192.185053 135.119722 
L 193.270854 133.729956 
L 194.356656 131.48495 
L 195.442457 132.12638 
L 196.528258 130.308994 
L 197.614059 128.170893 
L 198.69986 129.560659 
L 199.785661 126.674222 
L 200.871462 128.277798 
L 201.957264 126.888032 
L 203.043065 124.856836 
L 204.128866 123.360166 
L 205.214667 126.781127 
L 206.300468 124.322311 
L 207.386269 122.718735 
L 208.472071 124.963741 
L 209.557872 121.9704 
L 210.643673 122.82564 
L 211.729474 122.932545 
L 212.815275 121.328969 
L 213.901076 121.54278 
L 216.072679 120.794444 
L 217.15848 120.473729 
L 218.244281 121.328969 
L 219.330082 121.328969 
L 220.415883 121.863495 
L 221.501684 119.190868 
L 222.587486 120.580634 
L 223.673287 120.153014 
L 224.759088 121.328969 
L 225.844889 153.828107 
L 226.93069 150.407145 
L 228.016491 149.23119 
L 229.102292 148.696664 
L 230.188094 155.110968 
L 231.273895 159.280265 
L 233.445497 143.779032 
L 234.531298 149.445 
L 235.617099 142.603076 
L 236.702901 151.369291 
L 237.788702 143.565222 
L 238.874503 149.23119 
L 239.960304 150.834766 
L 241.046105 149.65881 
L 242.131906 148.910474 
L 243.217708 151.048576 
L 244.303509 142.068551 
L 245.38931 150.834766 
L 246.475111 149.765715 
L 247.560912 145.275703 
L 248.646713 149.01738 
L 249.732514 148.696664 
L 250.818316 146.130943 
L 251.904117 148.269044 
L 252.989918 145.489513 
L 254.075719 146.344753 
L 255.16152 144.206652 
L 256.247321 142.389266 
L 257.333123 150.08643 
L 258.418924 148.910474 
L 259.504725 146.772373 
L 260.590526 140.9995 
L 261.676327 139.609734 
L 262.762128 142.175456 
L 263.847929 145.275703 
L 264.933731 144.634272 
L 266.019532 138.433779 
L 267.105333 144.099747 
L 268.191134 148.055234 
L 269.276935 136.402583 
L 270.362736 140.037355 
L 271.448538 140.892595 
L 272.534339 138.540684 
L 273.62014 139.823545 
L 274.705941 140.678785 
L 275.791742 143.244506 
L 276.877543 137.899253 
L 277.963344 140.037355 
L 279.049146 140.892595 
L 280.134947 138.861399 
L 281.220748 137.685443 
L 282.306549 136.081867 
L 283.39235 134.799007 
L 284.478151 134.264482 
L 285.563953 133.195431 
L 286.649754 139.395924 
L 287.735555 135.440437 
L 288.821356 135.547342 
L 289.907157 136.402583 
L 290.992958 139.075209 
L 292.07876 134.692102 
L 293.164561 134.692102 
L 294.250362 129.881374 
L 295.336163 131.48495 
L 296.421964 137.471633 
L 297.507765 132.554001 
L 298.593566 130.736615 
L 299.679368 132.12638 
L 300.765169 132.981621 
L 301.85097 126.567317 
L 302.936771 127.529463 
L 304.022572 127.315653 
L 305.108373 129.453754 
L 306.194175 123.894691 
L 307.279976 127.208748 
L 308.365777 131.591855 
L 309.451578 131.91257 
L 310.537379 133.943766 
L 311.62318 129.133039 
L 312.708981 124.856836 
L 313.794783 129.667564 
L 314.880584 127.850178 
L 315.966385 128.919229 
L 317.052186 121.9704 
L 318.137987 125.925887 
L 319.223788 128.063988 
L 320.30959 125.605172 
L 321.395391 125.391362 
L 322.481192 124.856836 
L 323.566993 126.353507 
L 324.652794 122.82564 
L 325.738595 123.894691 
L 326.824396 123.146355 
L 327.910198 124.108501 
L 328.995999 122.61183 
L 330.0818 124.215406 
L 331.167601 122.291115 
L 332.253402 121.9704 
L 333.339203 121.863495 
L 335.510806 119.832299 
L 336.596607 121.328969 
L 337.682408 121.75659 
L 338.768209 115.876811 
L 339.85401 119.832299 
L 342.025613 118.870153 
L 343.111414 119.725394 
L 344.197215 120.153014 
L 345.283016 118.656343 
L 346.368817 119.190868 
L 347.454618 117.373482 
L 348.54042 118.228723 
L 349.626221 115.556096 
L 350.712022 117.801103 
L 351.797823 116.304432 
L 352.883624 116.411337 
L 353.969425 118.014913 
L 355.055227 112.88347 
L 356.141028 113.845615 
L 357.226829 113.09728 
L 358.31263 111.600609 
L 359.398431 115.021571 
L 360.484232 113.73871 
L 361.570033 112.028229 
L 362.655835 113.631805 
L 363.741636 112.135134 
L 364.827437 111.493704 
L 365.913238 111.600609 
L 368.08484 111.279894 
L 369.170642 110.959179 
L 370.256443 114.273236 
L 371.342244 114.487046 
L 372.428045 118.656343 
L 373.513846 116.838957 
L 374.599647 116.197527 
L 376.77125 114.059425 
L 377.857051 115.556096 
L 378.942852 119.404678 
L 380.028653 118.335628 
L 381.114454 116.411337 
L 382.200255 119.190868 
L 383.286057 116.411337 
L 384.371858 118.656343 
L 385.457659 118.228723 
L 386.54346 113.631805 
L 387.629261 111.707514 
L 389.800863 120.046109 
L 390.886665 114.487046 
L 391.972466 116.945862 
L 393.058267 115.235381 
L 394.144068 113.845615 
L 395.229869 115.021571 
L 396.31567 118.977058 
L 397.401472 116.197527 
L 398.487273 116.732052 
L 398.487273 116.732052 
" clip-path="url(#pafad0d581b)" style="fill: none; stroke: #2ca02c; stroke-width: 1.5; stroke-linecap: square"/>
   </g>
   <g id="line2d_22">
    <path d="M 368.08484 64.054584 
L 369.170642 64.736639 
L 370.256443 65.728718 
L 371.342244 64.922654 
L 372.428045 68.239917 
L 373.513846 64.922654 
L 374.599647 66.503779 
L 375.685448 67.371848 
L 376.77125 66.844806 
L 377.857051 66.441774 
L 378.942852 66.844806 
L 380.028653 65.573705 
L 381.114454 67.309843 
L 382.200255 65.790723 
L 383.286057 65.945735 
L 384.371858 66.627789 
L 385.457659 65.697715 
L 386.54346 67.154831 
L 387.629261 67.340846 
L 388.715062 67.154831 
L 389.800863 64.798644 
L 390.886665 67.340846 
L 391.972466 66.503779 
L 393.058267 67.743878 
L 394.144068 66.689794 
L 395.229869 66.534782 
L 396.31567 66.968816 
L 397.401472 69.076984 
L 398.487273 69.759038 
L 398.487273 69.759038 
" clip-path="url(#pafad0d581b)" style="fill: none; stroke: #d62728; stroke-width: 1.5; stroke-linecap: square"/>
   </g>
   <g id="line2d_23">
    <path d="M 369.170642 110.638464 
L 370.256443 110.638464 
L 371.342244 111.600609 
L 372.428045 112.776565 
L 373.513846 109.890128 
L 374.599647 115.663001 
L 375.685448 115.983717 
L 376.77125 110.424653 
L 377.857051 115.235381 
L 378.942852 111.279894 
L 380.028653 112.45585 
L 381.114454 113.845615 
L 382.200255 111.279894 
L 383.286057 111.493704 
L 384.371858 111.493704 
L 386.54346 110.531559 
L 387.629261 112.562755 
L 388.715062 110.852274 
L 389.800863 108.714173 
L 390.886665 112.242039 
L 391.972466 109.676318 
L 393.058267 110.638464 
L 394.144068 110.103938 
L 395.229869 112.88347 
L 396.31567 112.135134 
L 397.401472 116.411337 
L 398.487273 118.656343 
L 398.487273 118.656343 
" clip-path="url(#pafad0d581b)" style="fill: none; stroke: #9467bd; stroke-width: 1.5; stroke-linecap: square"/>
   </g>
   <g id="patch_3">
    <path d="M 57.6 307.584 
L 57.6 41.472 
" style="fill: none; stroke: #000000; stroke-width: 0.8; stroke-linejoin: miter; stroke-linecap: square"/>
   </g>
   <g id="patch_4">
    <path d="M 414.72 307.584 
L 414.72 41.472 
" style="fill: none; stroke: #000000; stroke-width: 0.8; stroke-linejoin: miter; stroke-linecap: square"/>
   </g>
   <g id="patch_5">
    <path d="M 57.6 307.584 
L 414.72 307.584 
" style="fill: none; stroke: #000000; stroke-width: 0.8; stroke-linejoin: miter; stroke-linecap: square"/>
   </g>
   <g id="patch_6">
    <path d="M 57.6 41.472 
L 414.72 41.472 
" style="fill: none; stroke: #000000; stroke-width: 0.8; stroke-linejoin: miter; stroke-linecap: square"/>
   </g>
   <g id="text_21">
    <!-- Learning Curves -->
    <g transform="translate(187.37625 35.472) scale(0.12 -0.12)">
     <defs>
      <path id="DejaVuSans-4c" d="M 628 4666 
L 1259 4666 
L 1259 531 
L 3531 531 
L 3531 0 
L 628 0 
L 628 4666 
z
" transform="scale(0.015625)"/>
      <path id="DejaVuSans-65" d="M 3597 1894 
L 3597 1613 
L 953 1613 
Q 991 1019 1311 708 
Q 1631 397 2203 397 
Q 2534 397 2845 478 
Q 3156 559 3463 722 
L 3463 178 
Q 3153 47 2828 -22 
Q 2503 -91 2169 -91 
Q 1331 -91 842 396 
Q 353 884 353 1716 
Q 353 2575 817 3079 
Q 1281 3584 2069 3584 
Q 2775 3584 3186 3129 
Q 3597 2675 3597 1894 
z
M 3022 2063 
Q 3016 2534 2758 2815 
Q 2500 3097 2075 3097 
Q 1594 3097 1305 2825 
Q 1016 2553 972 2059 
L 3022 2063 
z
" transform="scale(0.015625)"/>
      <path id="DejaVuSans-6e" d="M 3513 2113 
L 3513 0 
L 2938 0 
L 2938 2094 
Q 2938 2591 2744 2837 
Q 2550 3084 2163 3084 
Q 1697 3084 1428 2787 
Q 1159 2491 1159 1978 
L 1159 0 
L 581 0 
L 581 3500 
L 1159 3500 
L 1159 2956 
Q 1366 3272 1645 3428 
Q 1925 3584 2291 3584 
Q 2894 3584 3203 3211 
Q 3513 2838 3513 2113 
z
" transform="scale(0.015625)"/>
      <path id="DejaVuSans-69" d="M 603 3500 
L 1178 3500 
L 1178 0 
L 603 0 
L 603 3500 
z
M 603 4863 
L 1178 4863 
L 1178 4134 
L 603 4134 
L 603 4863 
z
" transform="scale(0.015625)"/>
      <path id="DejaVuSans-67" d="M 2906 1791 
Q 2906 2416 2648 2759 
Q 2391 3103 1925 3103 
Q 1463 3103 1205 2759 
Q 947 2416 947 1791 
Q 947 1169 1205 825 
Q 1463 481 1925 481 
Q 2391 481 2648 825 
Q 2906 1169 2906 1791 
z
M 3481 434 
Q 3481 -459 3084 -895 
Q 2688 -1331 1869 -1331 
Q 1566 -1331 1297 -1286 
Q 1028 -1241 775 -1147 
L 775 -588 
Q 1028 -725 1275 -790 
Q 1522 -856 1778 -856 
Q 2344 -856 2625 -561 
Q 2906 -266 2906 331 
L 2906 616 
Q 2728 306 2450 153 
Q 2172 0 1784 0 
Q 1141 0 747 490 
Q 353 981 353 1791 
Q 353 2603 747 3093 
Q 1141 3584 1784 3584 
Q 2172 3584 2450 3431 
Q 2728 3278 2906 2969 
L 2906 3500 
L 3481 3500 
L 3481 434 
z
" transform="scale(0.015625)"/>
      <path id="DejaVuSans-20" transform="scale(0.015625)"/>
      <path id="DejaVuSans-43" d="M 4122 4306 
L 4122 3641 
Q 3803 3938 3442 4084 
Q 3081 4231 2675 4231 
Q 1875 4231 1450 3742 
Q 1025 3253 1025 2328 
Q 1025 1406 1450 917 
Q 1875 428 2675 428 
Q 3081 428 3442 575 
Q 3803 722 4122 1019 
L 4122 359 
Q 3791 134 3420 21 
Q 3050 -91 2638 -91 
Q 1578 -91 968 557 
Q 359 1206 359 2328 
Q 359 3453 968 4101 
Q 1578 4750 2638 4750 
Q 3056 4750 3426 4639 
Q 3797 4528 4122 4306 
z
" transform="scale(0.015625)"/>
      <path id="DejaVuSans-76" d="M 191 3500 
L 800 3500 
L 1894 563 
L 2988 3500 
L 3597 3500 
L 2284 0 
L 1503 0 
L 191 3500 
z
" transform="scale(0.015625)"/>
     </defs>
     <use xlink:href="#DejaVuSans-4c"/>
     <use xlink:href="#DejaVuSans-65" x="53.962891"/>
     <use xlink:href="#DejaVuSans-61" x="115.486328"/>
     <use xlink:href="#DejaVuSans-72" x="176.765625"/>
     <use xlink:href="#DejaVuSans-6e" x="216.128906"/>
     <use xlink:href="#DejaVuSans-69" x="279.507812"/>
     <use xlink:href="#DejaVuSans-6e" x="307.291016"/>
     <use xlink:href="#DejaVuSans-67" x="370.669922"/>
     <use xlink:href="#DejaVuSans-20" x="434.146484"/>
     <use xlink:href="#DejaVuSans-43" x="465.933594"/>
     <use xlink:href="#DejaVuSans-75" x="535.757812"/>
     <use xlink:href="#DejaVuSans-72" x="599.136719"/>
     <use xlink:href="#DejaVuSans-76" x="640.25"/>
     <use xlink:href="#DejaVuSans-65" x="699.429688"/>
     <use xlink:href="#DejaVuSans-73" x="760.953125"/>
    </g>
   </g>
   <g id="legend_1">
    <g id="patch_7">
     <path d="M 214.18875 302.584 
L 407.72 302.584 
Q 409.72 302.584 409.72 300.584 
L 409.72 228.193375 
Q 409.72 226.193375 407.72 226.193375 
L 214.18875 226.193375 
Q 212.18875 226.193375 212.18875 228.193375 
L 212.18875 300.584 
Q 212.18875 302.584 214.18875 302.584 
z
" style="fill: #ffffff; opacity: 0.8; stroke: #cccccc; stroke-linejoin: miter"/>
    </g>
    <g id="line2d_24">
     <path d="M 216.18875 234.291812 
L 226.18875 234.291812 
L 236.18875 234.291812 
" style="fill: none; stroke: #1f77b4; stroke-width: 1.5; stroke-linecap: square"/>
    </g>
    <g id="text_22">
     <!-- Train Accuracy -->
     <g transform="translate(244.18875 237.791812) scale(0.1 -0.1)">
      <defs>
       <path id="DejaVuSans-54" d="M -19 4666 
L 3928 4666 
L 3928 4134 
L 2272 4134 
L 2272 0 
L 1638 0 
L 1638 4134 
L -19 4134 
L -19 4666 
z
" transform="scale(0.015625)"/>
      </defs>
      <use xlink:href="#DejaVuSans-54"/>
      <use xlink:href="#DejaVuSans-72" x="46.333984"/>
      <use xlink:href="#DejaVuSans-61" x="87.447266"/>
      <use xlink:href="#DejaVuSans-69" x="148.726562"/>
      <use xlink:href="#DejaVuSans-6e" x="176.509766"/>
      <use xlink:href="#DejaVuSans-20" x="239.888672"/>
      <use xlink:href="#DejaVuSans-41" x="271.675781"/>
      <use xlink:href="#DejaVuSans-63" x="338.333984"/>
      <use xlink:href="#DejaVuSans-63" x="393.314453"/>
      <use xlink:href="#DejaVuSans-75" x="448.294922"/>
      <use xlink:href="#DejaVuSans-72" x="511.673828"/>
      <use xlink:href="#DejaVuSans-61" x="552.787109"/>
      <use xlink:href="#DejaVuSans-63" x="614.066406"/>
      <use xlink:href="#DejaVuSans-79" x="669.046875"/>
     </g>
    </g>
    <g id="line2d_25">
     <path d="M 216.18875 248.969937 
L 226.18875 248.969937 
L 236.18875 248.969937 
" style="fill: none; stroke: #ff7f0e; stroke-width: 1.5; stroke-linecap: square"/>
    </g>
    <g id="text_23">
     <!-- Validation Accuracy -->
     <g transform="translate(244.18875 252.469937) scale(0.1 -0.1)">
      <defs>
       <path id="DejaVuSans-56" d="M 1831 0 
L 50 4666 
L 709 4666 
L 2188 738 
L 3669 4666 
L 4325 4666 
L 2547 0 
L 1831 0 
z
" transform="scale(0.015625)"/>
       <path id="DejaVuSans-6c" d="M 603 4863 
L 1178 4863 
L 1178 0 
L 603 0 
L 603 4863 
z
" transform="scale(0.015625)"/>
       <path id="DejaVuSans-64" d="M 2906 2969 
L 2906 4863 
L 3481 4863 
L 3481 0 
L 2906 0 
L 2906 525 
Q 2725 213 2448 61 
Q 2172 -91 1784 -91 
Q 1150 -91 751 415 
Q 353 922 353 1747 
Q 353 2572 751 3078 
Q 1150 3584 1784 3584 
Q 2172 3584 2448 3432 
Q 2725 3281 2906 2969 
z
M 947 1747 
Q 947 1113 1208 752 
Q 1469 391 1925 391 
Q 2381 391 2643 752 
Q 2906 1113 2906 1747 
Q 2906 2381 2643 2742 
Q 2381 3103 1925 3103 
Q 1469 3103 1208 2742 
Q 947 2381 947 1747 
z
" transform="scale(0.015625)"/>
       <path id="DejaVuSans-74" d="M 1172 4494 
L 1172 3500 
L 2356 3500 
L 2356 3053 
L 1172 3053 
L 1172 1153 
Q 1172 725 1289 603 
Q 1406 481 1766 481 
L 2356 481 
L 2356 0 
L 1766 0 
Q 1100 0 847 248 
Q 594 497 594 1153 
L 594 3053 
L 172 3053 
L 172 3500 
L 594 3500 
L 594 4494 
L 1172 4494 
z
" transform="scale(0.015625)"/>
      </defs>
      <use xlink:href="#DejaVuSans-56"/>
      <use xlink:href="#DejaVuSans-61" x="60.658203"/>
      <use xlink:href="#DejaVuSans-6c" x="121.9375"/>
      <use xlink:href="#DejaVuSans-69" x="149.720703"/>
      <use xlink:href="#DejaVuSans-64" x="177.503906"/>
      <use xlink:href="#DejaVuSans-61" x="240.980469"/>
      <use xlink:href="#DejaVuSans-74" x="302.259766"/>
      <use xlink:href="#DejaVuSans-69" x="341.46875"/>
      <use xlink:href="#DejaVuSans-6f" x="369.251953"/>
      <use xlink:href="#DejaVuSans-6e" x="430.433594"/>
      <use xlink:href="#DejaVuSans-20" x="493.8125"/>
      <use xlink:href="#DejaVuSans-41" x="525.599609"/>
      <use xlink:href="#DejaVuSans-63" x="592.257812"/>
      <use xlink:href="#DejaVuSans-63" x="647.238281"/>
      <use xlink:href="#DejaVuSans-75" x="702.21875"/>
      <use xlink:href="#DejaVuSans-72" x="765.597656"/>
      <use xlink:href="#DejaVuSans-61" x="806.710938"/>
      <use xlink:href="#DejaVuSans-63" x="867.990234"/>
      <use xlink:href="#DejaVuSans-79" x="922.970703"/>
     </g>
    </g>
    <g id="line2d_26">
     <path d="M 216.18875 263.648062 
L 226.18875 263.648062 
L 236.18875 263.648062 
" style="fill: none; stroke: #2ca02c; stroke-width: 1.5; stroke-linecap: square"/>
    </g>
    <g id="text_24">
     <!-- Robust Validation Accuracy -->
     <g transform="translate(244.18875 267.148062) scale(0.1 -0.1)">
      <defs>
       <path id="DejaVuSans-52" d="M 2841 2188 
Q 3044 2119 3236 1894 
Q 3428 1669 3622 1275 
L 4263 0 
L 3584 0 
L 2988 1197 
Q 2756 1666 2539 1819 
Q 2322 1972 1947 1972 
L 1259 1972 
L 1259 0 
L 628 0 
L 628 4666 
L 2053 4666 
Q 2853 4666 3247 4331 
Q 3641 3997 3641 3322 
Q 3641 2881 3436 2590 
Q 3231 2300 2841 2188 
z
M 1259 4147 
L 1259 2491 
L 2053 2491 
Q 2509 2491 2742 2702 
Q 2975 2913 2975 3322 
Q 2975 3731 2742 3939 
Q 2509 4147 2053 4147 
L 1259 4147 
z
" transform="scale(0.015625)"/>
       <path id="DejaVuSans-62" d="M 3116 1747 
Q 3116 2381 2855 2742 
Q 2594 3103 2138 3103 
Q 1681 3103 1420 2742 
Q 1159 2381 1159 1747 
Q 1159 1113 1420 752 
Q 1681 391 2138 391 
Q 2594 391 2855 752 
Q 3116 1113 3116 1747 
z
M 1159 2969 
Q 1341 3281 1617 3432 
Q 1894 3584 2278 3584 
Q 2916 3584 3314 3078 
Q 3713 2572 3713 1747 
Q 3713 922 3314 415 
Q 2916 -91 2278 -91 
Q 1894 -91 1617 61 
Q 1341 213 1159 525 
L 1159 0 
L 581 0 
L 581 4863 
L 1159 4863 
L 1159 2969 
z
" transform="scale(0.015625)"/>
      </defs>
      <use xlink:href="#DejaVuSans-52"/>
      <use xlink:href="#DejaVuSans-6f" x="64.982422"/>
      <use xlink:href="#DejaVuSans-62" x="126.164062"/>
      <use xlink:href="#DejaVuSans-75" x="189.640625"/>
      <use xlink:href="#DejaVuSans-73" x="253.019531"/>
      <use xlink:href="#DejaVuSans-74" x="305.119141"/>
      <use xlink:href="#DejaVuSans-20" x="344.328125"/>
      <use xlink:href="#DejaVuSans-56" x="376.115234"/>
      <use xlink:href="#DejaVuSans-61" x="436.773438"/>
      <use xlink:href="#DejaVuSans-6c" x="498.052734"/>
      <use xlink:href="#DejaVuSans-69" x="525.835938"/>
      <use xlink:href="#DejaVuSans-64" x="553.619141"/>
      <use xlink:href="#DejaVuSans-61" x="617.095703"/>
      <use xlink:href="#DejaVuSans-74" x="678.375"/>
      <use xlink:href="#DejaVuSans-69" x="717.583984"/>
      <use xlink:href="#DejaVuSans-6f" x="745.367188"/>
      <use xlink:href="#DejaVuSans-6e" x="806.548828"/>
      <use xlink:href="#DejaVuSans-20" x="869.927734"/>
      <use xlink:href="#DejaVuSans-41" x="901.714844"/>
      <use xlink:href="#DejaVuSans-63" x="968.373047"/>
      <use xlink:href="#DejaVuSans-63" x="1023.353516"/>
      <use xlink:href="#DejaVuSans-75" x="1078.333984"/>
      <use xlink:href="#DejaVuSans-72" x="1141.712891"/>
      <use xlink:href="#DejaVuSans-61" x="1182.826172"/>
      <use xlink:href="#DejaVuSans-63" x="1244.105469"/>
      <use xlink:href="#DejaVuSans-79" x="1299.085938"/>
     </g>
    </g>
    <g id="line2d_27">
     <path d="M 216.18875 278.326188 
L 226.18875 278.326188 
L 236.18875 278.326188 
" style="fill: none; stroke: #d62728; stroke-width: 1.5; stroke-linecap: square"/>
    </g>
    <g id="text_25">
     <!-- SWA Validation Accuracy -->
     <g transform="translate(244.18875 281.826188) scale(0.1 -0.1)">
      <defs>
       <path id="DejaVuSans-53" d="M 3425 4513 
L 3425 3897 
Q 3066 4069 2747 4153 
Q 2428 4238 2131 4238 
Q 1616 4238 1336 4038 
Q 1056 3838 1056 3469 
Q 1056 3159 1242 3001 
Q 1428 2844 1947 2747 
L 2328 2669 
Q 3034 2534 3370 2195 
Q 3706 1856 3706 1288 
Q 3706 609 3251 259 
Q 2797 -91 1919 -91 
Q 1588 -91 1214 -16 
Q 841 59 441 206 
L 441 856 
Q 825 641 1194 531 
Q 1563 422 1919 422 
Q 2459 422 2753 634 
Q 3047 847 3047 1241 
Q 3047 1584 2836 1778 
Q 2625 1972 2144 2069 
L 1759 2144 
Q 1053 2284 737 2584 
Q 422 2884 422 3419 
Q 422 4038 858 4394 
Q 1294 4750 2059 4750 
Q 2388 4750 2728 4690 
Q 3069 4631 3425 4513 
z
" transform="scale(0.015625)"/>
       <path id="DejaVuSans-57" d="M 213 4666 
L 850 4666 
L 1831 722 
L 2809 4666 
L 3519 4666 
L 4500 722 
L 5478 4666 
L 6119 4666 
L 4947 0 
L 4153 0 
L 3169 4050 
L 2175 0 
L 1381 0 
L 213 4666 
z
" transform="scale(0.015625)"/>
      </defs>
      <use xlink:href="#DejaVuSans-53"/>
      <use xlink:href="#DejaVuSans-57" x="63.476562"/>
      <use xlink:href="#DejaVuSans-41" x="156.853516"/>
      <use xlink:href="#DejaVuSans-20" x="225.261719"/>
      <use xlink:href="#DejaVuSans-56" x="257.048828"/>
      <use xlink:href="#DejaVuSans-61" x="317.707031"/>
      <use xlink:href="#DejaVuSans-6c" x="378.986328"/>
      <use xlink:href="#DejaVuSans-69" x="406.769531"/>
      <use xlink:href="#DejaVuSans-64" x="434.552734"/>
      <use xlink:href="#DejaVuSans-61" x="498.029297"/>
      <use xlink:href="#DejaVuSans-74" x="559.308594"/>
      <use xlink:href="#DejaVuSans-69" x="598.517578"/>
      <use xlink:href="#DejaVuSans-6f" x="626.300781"/>
      <use xlink:href="#DejaVuSans-6e" x="687.482422"/>
      <use xlink:href="#DejaVuSans-20" x="750.861328"/>
      <use xlink:href="#DejaVuSans-41" x="782.648438"/>
      <use xlink:href="#DejaVuSans-63" x="849.306641"/>
      <use xlink:href="#DejaVuSans-63" x="904.287109"/>
      <use xlink:href="#DejaVuSans-75" x="959.267578"/>
      <use xlink:href="#DejaVuSans-72" x="1022.646484"/>
      <use xlink:href="#DejaVuSans-61" x="1063.759766"/>
      <use xlink:href="#DejaVuSans-63" x="1125.039062"/>
      <use xlink:href="#DejaVuSans-79" x="1180.019531"/>
     </g>
    </g>
    <g id="line2d_28">
     <path d="M 216.18875 293.004312 
L 226.18875 293.004312 
L 236.18875 293.004312 
" style="fill: none; stroke: #9467bd; stroke-width: 1.5; stroke-linecap: square"/>
    </g>
    <g id="text_26">
     <!-- SWA Robust Validation Accuracy -->
     <g transform="translate(244.18875 296.504312) scale(0.1 -0.1)">
      <use xlink:href="#DejaVuSans-53"/>
      <use xlink:href="#DejaVuSans-57" x="63.476562"/>
      <use xlink:href="#DejaVuSans-41" x="156.853516"/>
      <use xlink:href="#DejaVuSans-20" x="225.261719"/>
      <use xlink:href="#DejaVuSans-52" x="257.048828"/>
      <use xlink:href="#DejaVuSans-6f" x="322.03125"/>
      <use xlink:href="#DejaVuSans-62" x="383.212891"/>
      <use xlink:href="#DejaVuSans-75" x="446.689453"/>
      <use xlink:href="#DejaVuSans-73" x="510.068359"/>
      <use xlink:href="#DejaVuSans-74" x="562.167969"/>
      <use xlink:href="#DejaVuSans-20" x="601.376953"/>
      <use xlink:href="#DejaVuSans-56" x="633.164062"/>
      <use xlink:href="#DejaVuSans-61" x="693.822266"/>
      <use xlink:href="#DejaVuSans-6c" x="755.101562"/>
      <use xlink:href="#DejaVuSans-69" x="782.884766"/>
      <use xlink:href="#DejaVuSans-64" x="810.667969"/>
      <use xlink:href="#DejaVuSans-61" x="874.144531"/>
      <use xlink:href="#DejaVuSans-74" x="935.423828"/>
      <use xlink:href="#DejaVuSans-69" x="974.632812"/>
      <use xlink:href="#DejaVuSans-6f" x="1002.416016"/>
      <use xlink:href="#DejaVuSans-6e" x="1063.597656"/>
      <use xlink:href="#DejaVuSans-20" x="1126.976562"/>
      <use xlink:href="#DejaVuSans-41" x="1158.763672"/>
      <use xlink:href="#DejaVuSans-63" x="1225.421875"/>
      <use xlink:href="#DejaVuSans-63" x="1280.402344"/>
      <use xlink:href="#DejaVuSans-75" x="1335.382812"/>
      <use xlink:href="#DejaVuSans-72" x="1398.761719"/>
      <use xlink:href="#DejaVuSans-61" x="1439.875"/>
      <use xlink:href="#DejaVuSans-63" x="1501.154297"/>
      <use xlink:href="#DejaVuSans-79" x="1556.134766"/>
     </g>
    </g>
   </g>
  </g>
 </g>
 <defs>
  <clipPath id="pafad0d581b">
   <rect x="57.6" y="41.472" width="357.12" height="266.112"/>
  </clipPath>
 </defs>
</svg>
