<?xml version="1.0" encoding="utf-8" standalone="no"?>
<!DOCTYPE svg PUBLIC "-//W3C//DTD SVG 1.1//EN"
  "http://www.w3.org/Graphics/SVG/1.1/DTD/svg11.dtd">
<svg xmlns:xlink="http://www.w3.org/1999/xlink" width="460.8pt" height="345.6pt" viewBox="0 0 460.8 345.6" xmlns="http://www.w3.org/2000/svg" version="1.1">
 <metadata>
  <rdf:RDF xmlns:dc="http://purl.org/dc/elements/1.1/" xmlns:cc="http://creativecommons.org/ns#" xmlns:rdf="http://www.w3.org/1999/02/22-rdf-syntax-ns#">
   <cc:Work>
    <dc:type rdf:resource="http://purl.org/dc/dcmitype/StillImage"/>
    <dc:date>2025-07-12T22:06:31.835215</dc:date>
    <dc:format>image/svg+xml</dc:format>
    <dc:creator>
     <cc:Agent>
      <dc:title>Matplotlib v3.9.1, https://matplotlib.org/</dc:title>
     </cc:Agent>
    </dc:creator>
   </cc:Work>
  </rdf:RDF>
 </metadata>
 <defs>
  <style type="text/css">*{stroke-linejoin: round; stroke-linecap: butt}</style>
 </defs>
 <g id="figure_1">
  <g id="patch_1">
   <path d="M 0 345.6 
L 460.8 345.6 
L 460.8 0 
L 0 0 
z
" style="fill: #ffffff"/>
  </g>
  <g id="axes_1">
   <g id="patch_2">
    <path d="M 57.6 307.584 
L 414.72 307.584 
L 414.72 41.472 
L 57.6 41.472 
z
" style="fill: #ffffff"/>
   </g>
   <g id="matplotlib.axis_1">
    <g id="xtick_1">
     <g id="line2d_1">
      <defs>
       <path id="m4d85558766" d="M 0 0 
L 0 3.5 
" style="stroke: #000000; stroke-width: 0.8"/>
      </defs>
      <g>
       <use xlink:href="#m4d85558766" x="73.832727" y="307.584" style="stroke: #000000; stroke-width: 0.8"/>
      </g>
     </g>
     <g id="text_1">
      <!-- 1 -->
      <g transform="translate(70.651477 322.182437) scale(0.1 -0.1)">
       <defs>
        <path id="DejaVuSans-31" d="M 794 531 
L 1825 531 
L 1825 4091 
L 703 3866 
L 703 4441 
L 1819 4666 
L 2450 4666 
L 2450 531 
L 3481 531 
L 3481 0 
L 794 0 
L 794 531 
z
" transform="scale(0.015625)"/>
       </defs>
       <use xlink:href="#DejaVuSans-31"/>
      </g>
     </g>
    </g>
    <g id="xtick_2">
     <g id="line2d_2">
      <g>
       <use xlink:href="#m4d85558766" x="109.664165" y="307.584" style="stroke: #000000; stroke-width: 0.8"/>
      </g>
     </g>
     <g id="text_2">
      <!-- 34 -->
      <g transform="translate(103.301665 322.182437) scale(0.1 -0.1)">
       <defs>
        <path id="DejaVuSans-33" d="M 2597 2516 
Q 3050 2419 3304 2112 
Q 3559 1806 3559 1356 
Q 3559 666 3084 287 
Q 2609 -91 1734 -91 
Q 1441 -91 1130 -33 
Q 819 25 488 141 
L 488 750 
Q 750 597 1062 519 
Q 1375 441 1716 441 
Q 2309 441 2620 675 
Q 2931 909 2931 1356 
Q 2931 1769 2642 2001 
Q 2353 2234 1838 2234 
L 1294 2234 
L 1294 2753 
L 1863 2753 
Q 2328 2753 2575 2939 
Q 2822 3125 2822 3475 
Q 2822 3834 2567 4026 
Q 2313 4219 1838 4219 
Q 1578 4219 1281 4162 
Q 984 4106 628 3988 
L 628 4550 
Q 988 4650 1302 4700 
Q 1616 4750 1894 4750 
Q 2613 4750 3031 4423 
Q 3450 4097 3450 3541 
Q 3450 3153 3228 2886 
Q 3006 2619 2597 2516 
z
" transform="scale(0.015625)"/>
        <path id="DejaVuSans-34" d="M 2419 4116 
L 825 1625 
L 2419 1625 
L 2419 4116 
z
M 2253 4666 
L 3047 4666 
L 3047 1625 
L 3713 1625 
L 3713 1100 
L 3047 1100 
L 3047 0 
L 2419 0 
L 2419 1100 
L 313 1100 
L 313 1709 
L 2253 4666 
z
" transform="scale(0.015625)"/>
       </defs>
       <use xlink:href="#DejaVuSans-33"/>
       <use xlink:href="#DejaVuSans-34" x="63.623047"/>
      </g>
     </g>
    </g>
    <g id="xtick_3">
     <g id="line2d_3">
      <g>
       <use xlink:href="#m4d85558766" x="145.495604" y="307.584" style="stroke: #000000; stroke-width: 0.8"/>
      </g>
     </g>
     <g id="text_3">
      <!-- 67 -->
      <g transform="translate(139.133104 322.182437) scale(0.1 -0.1)">
       <defs>
        <path id="DejaVuSans-36" d="M 2113 2584 
Q 1688 2584 1439 2293 
Q 1191 2003 1191 1497 
Q 1191 994 1439 701 
Q 1688 409 2113 409 
Q 2538 409 2786 701 
Q 3034 994 3034 1497 
Q 3034 2003 2786 2293 
Q 2538 2584 2113 2584 
z
M 3366 4563 
L 3366 3988 
Q 3128 4100 2886 4159 
Q 2644 4219 2406 4219 
Q 1781 4219 1451 3797 
Q 1122 3375 1075 2522 
Q 1259 2794 1537 2939 
Q 1816 3084 2150 3084 
Q 2853 3084 3261 2657 
Q 3669 2231 3669 1497 
Q 3669 778 3244 343 
Q 2819 -91 2113 -91 
Q 1303 -91 875 529 
Q 447 1150 447 2328 
Q 447 3434 972 4092 
Q 1497 4750 2381 4750 
Q 2619 4750 2861 4703 
Q 3103 4656 3366 4563 
z
" transform="scale(0.015625)"/>
        <path id="DejaVuSans-37" d="M 525 4666 
L 3525 4666 
L 3525 4397 
L 1831 0 
L 1172 0 
L 2766 4134 
L 525 4134 
L 525 4666 
z
" transform="scale(0.015625)"/>
       </defs>
       <use xlink:href="#DejaVuSans-36"/>
       <use xlink:href="#DejaVuSans-37" x="63.623047"/>
      </g>
     </g>
    </g>
    <g id="xtick_4">
     <g id="line2d_4">
      <g>
       <use xlink:href="#m4d85558766" x="181.327042" y="307.584" style="stroke: #000000; stroke-width: 0.8"/>
      </g>
     </g>
     <g id="text_4">
      <!-- 100 -->
      <g transform="translate(171.783292 322.182437) scale(0.1 -0.1)">
       <defs>
        <path id="DejaVuSans-30" d="M 2034 4250 
Q 1547 4250 1301 3770 
Q 1056 3291 1056 2328 
Q 1056 1369 1301 889 
Q 1547 409 2034 409 
Q 2525 409 2770 889 
Q 3016 1369 3016 2328 
Q 3016 3291 2770 3770 
Q 2525 4250 2034 4250 
z
M 2034 4750 
Q 2819 4750 3233 4129 
Q 3647 3509 3647 2328 
Q 3647 1150 3233 529 
Q 2819 -91 2034 -91 
Q 1250 -91 836 529 
Q 422 1150 422 2328 
Q 422 3509 836 4129 
Q 1250 4750 2034 4750 
z
" transform="scale(0.015625)"/>
       </defs>
       <use xlink:href="#DejaVuSans-31"/>
       <use xlink:href="#DejaVuSans-30" x="63.623047"/>
       <use xlink:href="#DejaVuSans-30" x="127.246094"/>
      </g>
     </g>
    </g>
    <g id="xtick_5">
     <g id="line2d_5">
      <g>
       <use xlink:href="#m4d85558766" x="217.15848" y="307.584" style="stroke: #000000; stroke-width: 0.8"/>
      </g>
     </g>
     <g id="text_5">
      <!-- 133 -->
      <g transform="translate(207.61473 322.182437) scale(0.1 -0.1)">
       <use xlink:href="#DejaVuSans-31"/>
       <use xlink:href="#DejaVuSans-33" x="63.623047"/>
       <use xlink:href="#DejaVuSans-33" x="127.246094"/>
      </g>
     </g>
    </g>
    <g id="xtick_6">
     <g id="line2d_6">
      <g>
       <use xlink:href="#m4d85558766" x="254.075719" y="307.584" style="stroke: #000000; stroke-width: 0.8"/>
      </g>
     </g>
     <g id="text_6">
      <!-- 167 -->
      <g transform="translate(244.531969 322.182437) scale(0.1 -0.1)">
       <use xlink:href="#DejaVuSans-31"/>
       <use xlink:href="#DejaVuSans-36" x="63.623047"/>
       <use xlink:href="#DejaVuSans-37" x="127.246094"/>
      </g>
     </g>
    </g>
    <g id="xtick_7">
     <g id="line2d_7">
      <g>
       <use xlink:href="#m4d85558766" x="289.907157" y="307.584" style="stroke: #000000; stroke-width: 0.8"/>
      </g>
     </g>
     <g id="text_7">
      <!-- 200 -->
      <g transform="translate(280.363407 322.182437) scale(0.1 -0.1)">
       <defs>
        <path id="DejaVuSans-32" d="M 1228 531 
L 3431 531 
L 3431 0 
L 469 0 
L 469 531 
Q 828 903 1448 1529 
Q 2069 2156 2228 2338 
Q 2531 2678 2651 2914 
Q 2772 3150 2772 3378 
Q 2772 3750 2511 3984 
Q 2250 4219 1831 4219 
Q 1534 4219 1204 4116 
Q 875 4013 500 3803 
L 500 4441 
Q 881 4594 1212 4672 
Q 1544 4750 1819 4750 
Q 2544 4750 2975 4387 
Q 3406 4025 3406 3419 
Q 3406 3131 3298 2873 
Q 3191 2616 2906 2266 
Q 2828 2175 2409 1742 
Q 1991 1309 1228 531 
z
" transform="scale(0.015625)"/>
       </defs>
       <use xlink:href="#DejaVuSans-32"/>
       <use xlink:href="#DejaVuSans-30" x="63.623047"/>
       <use xlink:href="#DejaVuSans-30" x="127.246094"/>
      </g>
     </g>
    </g>
    <g id="xtick_8">
     <g id="line2d_8">
      <g>
       <use xlink:href="#m4d85558766" x="325.738595" y="307.584" style="stroke: #000000; stroke-width: 0.8"/>
      </g>
     </g>
     <g id="text_8">
      <!-- 233 -->
      <g transform="translate(316.194845 322.182437) scale(0.1 -0.1)">
       <use xlink:href="#DejaVuSans-32"/>
       <use xlink:href="#DejaVuSans-33" x="63.623047"/>
       <use xlink:href="#DejaVuSans-33" x="127.246094"/>
      </g>
     </g>
    </g>
    <g id="xtick_9">
     <g id="line2d_9">
      <g>
       <use xlink:href="#m4d85558766" x="361.570033" y="307.584" style="stroke: #000000; stroke-width: 0.8"/>
      </g>
     </g>
     <g id="text_9">
      <!-- 266 -->
      <g transform="translate(352.026283 322.182437) scale(0.1 -0.1)">
       <use xlink:href="#DejaVuSans-32"/>
       <use xlink:href="#DejaVuSans-36" x="63.623047"/>
       <use xlink:href="#DejaVuSans-36" x="127.246094"/>
      </g>
     </g>
    </g>
    <g id="xtick_10">
     <g id="line2d_10">
      <g>
       <use xlink:href="#m4d85558766" x="398.487273" y="307.584" style="stroke: #000000; stroke-width: 0.8"/>
      </g>
     </g>
     <g id="text_10">
      <!-- 300 -->
      <g transform="translate(388.943523 322.182437) scale(0.1 -0.1)">
       <use xlink:href="#DejaVuSans-33"/>
       <use xlink:href="#DejaVuSans-30" x="63.623047"/>
       <use xlink:href="#DejaVuSans-30" x="127.246094"/>
      </g>
     </g>
    </g>
    <g id="text_11">
     <!-- Epochs -->
     <g transform="translate(218.244375 335.860562) scale(0.1 -0.1)">
      <defs>
       <path id="DejaVuSans-45" d="M 628 4666 
L 3578 4666 
L 3578 4134 
L 1259 4134 
L 1259 2753 
L 3481 2753 
L 3481 2222 
L 1259 2222 
L 1259 531 
L 3634 531 
L 3634 0 
L 628 0 
L 628 4666 
z
" transform="scale(0.015625)"/>
       <path id="DejaVuSans-70" d="M 1159 525 
L 1159 -1331 
L 581 -1331 
L 581 3500 
L 1159 3500 
L 1159 2969 
Q 1341 3281 1617 3432 
Q 1894 3584 2278 3584 
Q 2916 3584 3314 3078 
Q 3713 2572 3713 1747 
Q 3713 922 3314 415 
Q 2916 -91 2278 -91 
Q 1894 -91 1617 61 
Q 1341 213 1159 525 
z
M 3116 1747 
Q 3116 2381 2855 2742 
Q 2594 3103 2138 3103 
Q 1681 3103 1420 2742 
Q 1159 2381 1159 1747 
Q 1159 1113 1420 752 
Q 1681 391 2138 391 
Q 2594 391 2855 752 
Q 3116 1113 3116 1747 
z
" transform="scale(0.015625)"/>
       <path id="DejaVuSans-6f" d="M 1959 3097 
Q 1497 3097 1228 2736 
Q 959 2375 959 1747 
Q 959 1119 1226 758 
Q 1494 397 1959 397 
Q 2419 397 2687 759 
Q 2956 1122 2956 1747 
Q 2956 2369 2687 2733 
Q 2419 3097 1959 3097 
z
M 1959 3584 
Q 2709 3584 3137 3096 
Q 3566 2609 3566 1747 
Q 3566 888 3137 398 
Q 2709 -91 1959 -91 
Q 1206 -91 779 398 
Q 353 888 353 1747 
Q 353 2609 779 3096 
Q 1206 3584 1959 3584 
z
" transform="scale(0.015625)"/>
       <path id="DejaVuSans-63" d="M 3122 3366 
L 3122 2828 
Q 2878 2963 2633 3030 
Q 2388 3097 2138 3097 
Q 1578 3097 1268 2742 
Q 959 2388 959 1747 
Q 959 1106 1268 751 
Q 1578 397 2138 397 
Q 2388 397 2633 464 
Q 2878 531 3122 666 
L 3122 134 
Q 2881 22 2623 -34 
Q 2366 -91 2075 -91 
Q 1284 -91 818 406 
Q 353 903 353 1747 
Q 353 2603 823 3093 
Q 1294 3584 2113 3584 
Q 2378 3584 2631 3529 
Q 2884 3475 3122 3366 
z
" transform="scale(0.015625)"/>
       <path id="DejaVuSans-68" d="M 3513 2113 
L 3513 0 
L 2938 0 
L 2938 2094 
Q 2938 2591 2744 2837 
Q 2550 3084 2163 3084 
Q 1697 3084 1428 2787 
Q 1159 2491 1159 1978 
L 1159 0 
L 581 0 
L 581 4863 
L 1159 4863 
L 1159 2956 
Q 1366 3272 1645 3428 
Q 1925 3584 2291 3584 
Q 2894 3584 3203 3211 
Q 3513 2838 3513 2113 
z
" transform="scale(0.015625)"/>
       <path id="DejaVuSans-73" d="M 2834 3397 
L 2834 2853 
Q 2591 2978 2328 3040 
Q 2066 3103 1784 3103 
Q 1356 3103 1142 2972 
Q 928 2841 928 2578 
Q 928 2378 1081 2264 
Q 1234 2150 1697 2047 
L 1894 2003 
Q 2506 1872 2764 1633 
Q 3022 1394 3022 966 
Q 3022 478 2636 193 
Q 2250 -91 1575 -91 
Q 1294 -91 989 -36 
Q 684 19 347 128 
L 347 722 
Q 666 556 975 473 
Q 1284 391 1588 391 
Q 1994 391 2212 530 
Q 2431 669 2431 922 
Q 2431 1156 2273 1281 
Q 2116 1406 1581 1522 
L 1381 1569 
Q 847 1681 609 1914 
Q 372 2147 372 2553 
Q 372 3047 722 3315 
Q 1072 3584 1716 3584 
Q 2034 3584 2315 3537 
Q 2597 3491 2834 3397 
z
" transform="scale(0.015625)"/>
      </defs>
      <use xlink:href="#DejaVuSans-45"/>
      <use xlink:href="#DejaVuSans-70" x="63.183594"/>
      <use xlink:href="#DejaVuSans-6f" x="126.660156"/>
      <use xlink:href="#DejaVuSans-63" x="187.841797"/>
      <use xlink:href="#DejaVuSans-68" x="242.822266"/>
      <use xlink:href="#DejaVuSans-73" x="306.201172"/>
     </g>
    </g>
   </g>
   <g id="matplotlib.axis_2">
    <g id="ytick_1">
     <g id="line2d_11">
      <defs>
       <path id="m5a09100c5d" d="M 0 0 
L -3.5 0 
" style="stroke: #000000; stroke-width: 0.8"/>
      </defs>
      <g>
       <use xlink:href="#m5a09100c5d" x="57.6" y="284.059997" style="stroke: #000000; stroke-width: 0.8"/>
      </g>
     </g>
     <g id="text_12">
      <!-- 10 -->
      <g transform="translate(37.875 287.859216) scale(0.1 -0.1)">
       <use xlink:href="#DejaVuSans-31"/>
       <use xlink:href="#DejaVuSans-30" x="63.623047"/>
      </g>
     </g>
    </g>
    <g id="ytick_2">
     <g id="line2d_12">
      <g>
       <use xlink:href="#m5a09100c5d" x="57.6" y="252.899797" style="stroke: #000000; stroke-width: 0.8"/>
      </g>
     </g>
     <g id="text_13">
      <!-- 20 -->
      <g transform="translate(37.875 256.699016) scale(0.1 -0.1)">
       <use xlink:href="#DejaVuSans-32"/>
       <use xlink:href="#DejaVuSans-30" x="63.623047"/>
      </g>
     </g>
    </g>
    <g id="ytick_3">
     <g id="line2d_13">
      <g>
       <use xlink:href="#m5a09100c5d" x="57.6" y="221.739597" style="stroke: #000000; stroke-width: 0.8"/>
      </g>
     </g>
     <g id="text_14">
      <!-- 30 -->
      <g transform="translate(37.875 225.538816) scale(0.1 -0.1)">
       <use xlink:href="#DejaVuSans-33"/>
       <use xlink:href="#DejaVuSans-30" x="63.623047"/>
      </g>
     </g>
    </g>
    <g id="ytick_4">
     <g id="line2d_14">
      <g>
       <use xlink:href="#m5a09100c5d" x="57.6" y="190.579398" style="stroke: #000000; stroke-width: 0.8"/>
      </g>
     </g>
     <g id="text_15">
      <!-- 40 -->
      <g transform="translate(37.875 194.378617) scale(0.1 -0.1)">
       <use xlink:href="#DejaVuSans-34"/>
       <use xlink:href="#DejaVuSans-30" x="63.623047"/>
      </g>
     </g>
    </g>
    <g id="ytick_5">
     <g id="line2d_15">
      <g>
       <use xlink:href="#m5a09100c5d" x="57.6" y="159.419198" style="stroke: #000000; stroke-width: 0.8"/>
      </g>
     </g>
     <g id="text_16">
      <!-- 50 -->
      <g transform="translate(37.875 163.218417) scale(0.1 -0.1)">
       <defs>
        <path id="DejaVuSans-35" d="M 691 4666 
L 3169 4666 
L 3169 4134 
L 1269 4134 
L 1269 2991 
Q 1406 3038 1543 3061 
Q 1681 3084 1819 3084 
Q 2600 3084 3056 2656 
Q 3513 2228 3513 1497 
Q 3513 744 3044 326 
Q 2575 -91 1722 -91 
Q 1428 -91 1123 -41 
Q 819 9 494 109 
L 494 744 
Q 775 591 1075 516 
Q 1375 441 1709 441 
Q 2250 441 2565 725 
Q 2881 1009 2881 1497 
Q 2881 1984 2565 2268 
Q 2250 2553 1709 2553 
Q 1456 2553 1204 2497 
Q 953 2441 691 2322 
L 691 4666 
z
" transform="scale(0.015625)"/>
       </defs>
       <use xlink:href="#DejaVuSans-35"/>
       <use xlink:href="#DejaVuSans-30" x="63.623047"/>
      </g>
     </g>
    </g>
    <g id="ytick_6">
     <g id="line2d_16">
      <g>
       <use xlink:href="#m5a09100c5d" x="57.6" y="128.258999" style="stroke: #000000; stroke-width: 0.8"/>
      </g>
     </g>
     <g id="text_17">
      <!-- 60 -->
      <g transform="translate(37.875 132.058217) scale(0.1 -0.1)">
       <use xlink:href="#DejaVuSans-36"/>
       <use xlink:href="#DejaVuSans-30" x="63.623047"/>
      </g>
     </g>
    </g>
    <g id="ytick_7">
     <g id="line2d_17">
      <g>
       <use xlink:href="#m5a09100c5d" x="57.6" y="97.098799" style="stroke: #000000; stroke-width: 0.8"/>
      </g>
     </g>
     <g id="text_18">
      <!-- 70 -->
      <g transform="translate(37.875 100.898018) scale(0.1 -0.1)">
       <use xlink:href="#DejaVuSans-37"/>
       <use xlink:href="#DejaVuSans-30" x="63.623047"/>
      </g>
     </g>
    </g>
    <g id="ytick_8">
     <g id="line2d_18">
      <g>
       <use xlink:href="#m5a09100c5d" x="57.6" y="65.938599" style="stroke: #000000; stroke-width: 0.8"/>
      </g>
     </g>
     <g id="text_19">
      <!-- 80 -->
      <g transform="translate(37.875 69.737818) scale(0.1 -0.1)">
       <defs>
        <path id="DejaVuSans-38" d="M 2034 2216 
Q 1584 2216 1326 1975 
Q 1069 1734 1069 1313 
Q 1069 891 1326 650 
Q 1584 409 2034 409 
Q 2484 409 2743 651 
Q 3003 894 3003 1313 
Q 3003 1734 2745 1975 
Q 2488 2216 2034 2216 
z
M 1403 2484 
Q 997 2584 770 2862 
Q 544 3141 544 3541 
Q 544 4100 942 4425 
Q 1341 4750 2034 4750 
Q 2731 4750 3128 4425 
Q 3525 4100 3525 3541 
Q 3525 3141 3298 2862 
Q 3072 2584 2669 2484 
Q 3125 2378 3379 2068 
Q 3634 1759 3634 1313 
Q 3634 634 3220 271 
Q 2806 -91 2034 -91 
Q 1263 -91 848 271 
Q 434 634 434 1313 
Q 434 1759 690 2068 
Q 947 2378 1403 2484 
z
M 1172 3481 
Q 1172 3119 1398 2916 
Q 1625 2713 2034 2713 
Q 2441 2713 2670 2916 
Q 2900 3119 2900 3481 
Q 2900 3844 2670 4047 
Q 2441 4250 2034 4250 
Q 1625 4250 1398 4047 
Q 1172 3844 1172 3481 
z
" transform="scale(0.015625)"/>
       </defs>
       <use xlink:href="#DejaVuSans-38"/>
       <use xlink:href="#DejaVuSans-30" x="63.623047"/>
      </g>
     </g>
    </g>
    <g id="text_20">
     <!-- Accuracy -->
     <g transform="translate(31.795312 197.356125) rotate(-90) scale(0.1 -0.1)">
      <defs>
       <path id="DejaVuSans-41" d="M 2188 4044 
L 1331 1722 
L 3047 1722 
L 2188 4044 
z
M 1831 4666 
L 2547 4666 
L 4325 0 
L 3669 0 
L 3244 1197 
L 1141 1197 
L 716 0 
L 50 0 
L 1831 4666 
z
" transform="scale(0.015625)"/>
       <path id="DejaVuSans-75" d="M 544 1381 
L 544 3500 
L 1119 3500 
L 1119 1403 
Q 1119 906 1312 657 
Q 1506 409 1894 409 
Q 2359 409 2629 706 
Q 2900 1003 2900 1516 
L 2900 3500 
L 3475 3500 
L 3475 0 
L 2900 0 
L 2900 538 
Q 2691 219 2414 64 
Q 2138 -91 1772 -91 
Q 1169 -91 856 284 
Q 544 659 544 1381 
z
M 1991 3584 
L 1991 3584 
z
" transform="scale(0.015625)"/>
       <path id="DejaVuSans-72" d="M 2631 2963 
Q 2534 3019 2420 3045 
Q 2306 3072 2169 3072 
Q 1681 3072 1420 2755 
Q 1159 2438 1159 1844 
L 1159 0 
L 581 0 
L 581 3500 
L 1159 3500 
L 1159 2956 
Q 1341 3275 1631 3429 
Q 1922 3584 2338 3584 
Q 2397 3584 2469 3576 
Q 2541 3569 2628 3553 
L 2631 2963 
z
" transform="scale(0.015625)"/>
       <path id="DejaVuSans-61" d="M 2194 1759 
Q 1497 1759 1228 1600 
Q 959 1441 959 1056 
Q 959 750 1161 570 
Q 1363 391 1709 391 
Q 2188 391 2477 730 
Q 2766 1069 2766 1631 
L 2766 1759 
L 2194 1759 
z
M 3341 1997 
L 3341 0 
L 2766 0 
L 2766 531 
Q 2569 213 2275 61 
Q 1981 -91 1556 -91 
Q 1019 -91 701 211 
Q 384 513 384 1019 
Q 384 1609 779 1909 
Q 1175 2209 1959 2209 
L 2766 2209 
L 2766 2266 
Q 2766 2663 2505 2880 
Q 2244 3097 1772 3097 
Q 1472 3097 1187 3025 
Q 903 2953 641 2809 
L 641 3341 
Q 956 3463 1253 3523 
Q 1550 3584 1831 3584 
Q 2591 3584 2966 3190 
Q 3341 2797 3341 1997 
z
" transform="scale(0.015625)"/>
       <path id="DejaVuSans-79" d="M 2059 -325 
Q 1816 -950 1584 -1140 
Q 1353 -1331 966 -1331 
L 506 -1331 
L 506 -850 
L 844 -850 
Q 1081 -850 1212 -737 
Q 1344 -625 1503 -206 
L 1606 56 
L 191 3500 
L 800 3500 
L 1894 763 
L 2988 3500 
L 3597 3500 
L 2059 -325 
z
" transform="scale(0.015625)"/>
      </defs>
      <use xlink:href="#DejaVuSans-41"/>
      <use xlink:href="#DejaVuSans-63" x="66.658203"/>
      <use xlink:href="#DejaVuSans-63" x="121.638672"/>
      <use xlink:href="#DejaVuSans-75" x="176.619141"/>
      <use xlink:href="#DejaVuSans-72" x="239.998047"/>
      <use xlink:href="#DejaVuSans-61" x="281.111328"/>
      <use xlink:href="#DejaVuSans-63" x="342.390625"/>
      <use xlink:href="#DejaVuSans-79" x="397.371094"/>
     </g>
    </g>
   </g>
   <g id="line2d_19">
    <path d="M 73.832727 295.488 
L 74.918528 276.067406 
L 76.00433 253.935874 
L 77.090131 234.164727 
L 78.175932 217.50181 
L 79.261733 203.573201 
L 80.347534 192.059507 
L 81.433335 184.051336 
L 82.519137 174.820127 
L 83.604938 166.882066 
L 84.690739 162.067815 
L 85.77654 155.796825 
L 89.033943 141.712415 
L 90.119745 140.684128 
L 91.205546 135.028552 
L 93.377148 132.138443 
L 94.462949 130.159771 
L 95.54875 157.783288 
L 96.634552 157.682017 
L 97.720353 154.706218 
L 98.806154 150.26589 
L 99.891955 148.115836 
L 102.063557 141.899376 
L 103.149358 140.341366 
L 104.23516 136.609932 
L 105.320961 134.529989 
L 106.406762 132.777227 
L 107.492563 129.458666 
L 108.578364 129.372976 
L 109.664165 125.462371 
L 110.749967 122.3074 
L 111.835768 120.554639 
L 112.921569 119.487402 
L 114.00737 117.874862 
L 115.093171 114.166798 
L 116.178972 111.892104 
L 117.264773 112.593208 
L 119.436376 106.719511 
L 120.522177 106.836361 
L 121.607978 105.683434 
L 122.693779 102.614154 
L 123.77958 100.604321 
L 124.865382 100.027858 
L 127.036984 96.779407 
L 128.122785 95.494049 
L 129.208586 93.406315 
L 130.294387 92.58836 
L 131.380189 91.256261 
L 133.551791 89.113998 
L 134.637592 89.744992 
L 135.723393 88.257092 
L 136.809194 88.965987 
L 137.894995 89.53466 
L 138.980797 115.124974 
L 140.066598 118.069613 
L 141.152399 118.871988 
L 142.2382 118.046243 
L 143.324001 117.851492 
L 144.409802 116.854365 
L 145.495604 117.859282 
L 147.667206 115.163925 
L 148.753007 114.096688 
L 149.838808 114.268069 
L 150.924609 111.806413 
L 152.01041 110.411994 
L 153.096212 111.167629 
L 154.182013 108.028239 
L 155.267814 107.537466 
L 156.353615 107.171333 
L 157.439416 107.031113 
L 159.611019 105.699014 
L 160.69682 103.54896 
L 161.782621 102.956916 
L 162.868422 101.819569 
L 163.954223 101.850729 
L 165.040024 100.144708 
L 166.125825 99.186532 
L 167.211627 99.809736 
L 168.297428 99.241063 
L 169.383229 97.862224 
L 170.46903 96.904048 
L 171.554831 95.439518 
L 172.640632 94.847474 
L 173.726434 94.870845 
L 174.812235 93.086923 
L 175.898036 92.767531 
L 176.983837 92.152117 
L 178.069638 89.861843 
L 179.155439 89.877423 
L 181.327042 89.121788 
L 182.412843 87.158695 
L 183.498644 86.013558 
L 184.584445 86.161569 
L 185.670246 86.044718 
L 186.756047 82.593726 
L 187.841849 82.913118 
L 188.92765 81.830301 
L 190.013451 80.926655 
L 191.099252 80.950025 
L 192.185053 79.150524 
L 193.270854 78.909032 
L 194.356656 78.963563 
L 195.442457 77.148481 
L 197.614059 76.065664 
L 198.69986 75.294449 
L 199.785661 74.344063 
L 200.871462 74.414174 
L 201.957264 73.222296 
L 203.043065 72.567932 
L 204.128866 72.910694 
L 205.214667 71.376054 
L 206.300468 70.262077 
L 208.472071 69.1481 
L 209.557872 69.436332 
L 210.643673 68.852078 
L 212.815275 67.192797 
L 213.901076 67.223957 
L 214.986877 66.935726 
L 216.072679 67.021416 
L 217.15848 66.335892 
L 218.244281 65.829539 
L 219.330082 66.709814 
L 220.415883 64.933683 
L 221.501684 66.164511 
L 223.673287 64.598711 
L 224.759088 65.626997 
L 225.844889 94.317751 
L 226.93069 99.248853 
L 228.016491 100.822443 
L 229.102292 99.973327 
L 230.188094 99.692886 
L 231.273895 98.719129 
L 232.359696 99.762996 
L 233.445497 98.80482 
L 234.531298 99.202112 
L 235.617099 98.524378 
L 236.702901 97.488301 
L 237.788702 96.179573 
L 239.960304 97.636312 
L 241.046105 96.241893 
L 242.131906 96.358744 
L 243.217708 95.67322 
L 245.38931 95.805651 
L 246.475111 94.302171 
L 247.560912 94.855265 
L 248.646713 94.14637 
L 249.732514 93.297255 
L 250.818316 93.032393 
L 251.904117 91.941786 
L 252.989918 92.798691 
L 255.16152 92.245598 
L 256.247321 91.318582 
L 257.333123 90.181235 
L 258.418924 90.609687 
L 259.504725 88.350573 
L 260.590526 90.781068 
L 261.676327 89.768362 
L 262.762128 87.766319 
L 263.847929 88.405103 
L 264.933731 88.311623 
L 266.019532 87.797479 
L 267.105333 88.740075 
L 268.191134 86.761403 
L 269.276935 87.189855 
L 270.362736 86.33295 
L 271.448538 87.026264 
L 272.534339 86.37969 
L 273.62014 84.884001 
L 274.705941 86.005768 
L 275.791742 83.949195 
L 276.877543 84.79052 
L 277.963344 84.8061 
L 279.049146 84.073835 
L 280.134947 82.694997 
L 281.220748 82.585936 
L 282.306549 82.694997 
L 283.39235 83.458422 
L 284.478151 82.196433 
L 285.563953 82.694997 
L 286.649754 81.417428 
L 287.735555 80.879915 
L 288.821356 80.15544 
L 289.907157 80.879915 
L 290.992958 79.859418 
L 292.07876 79.758148 
L 293.164561 78.659751 
L 294.250362 78.426049 
L 295.336163 78.901242 
L 296.421964 78.963563 
L 298.593566 77.179641 
L 299.679368 77.795055 
L 300.765169 76.579807 
L 301.85097 75.995554 
L 302.936771 77.086161 
L 304.022572 75.47362 
L 305.108373 75.520361 
L 306.194175 73.432627 
L 308.365777 74.803676 
L 309.451578 74.055831 
L 310.537379 72.941854 
L 312.708981 73.526108 
L 313.794783 71.298154 
L 314.880584 72.108319 
L 315.966385 70.963181 
L 317.052186 72.178429 
L 318.137987 70.76064 
L 320.30959 69.880365 
L 321.395391 69.15589 
L 322.481192 69.483072 
L 324.652794 67.777051 
L 325.738595 67.932852 
L 326.824396 67.021416 
L 327.910198 66.561803 
L 328.995999 66.881195 
L 331.167601 65.330975 
L 332.253402 65.432246 
L 333.339203 64.661031 
L 334.425005 65.089484 
L 335.510806 63.141971 
L 336.596607 63.920976 
L 337.682408 63.508104 
L 338.768209 62.425287 
L 339.85401 62.573298 
L 340.939811 61.677442 
L 342.025613 62.573298 
L 343.111414 62.051364 
L 344.197215 59.605289 
L 345.283016 60.314183 
L 346.368817 60.111642 
L 347.454618 59.239156 
L 348.54042 58.943134 
L 349.626221 59.652029 
L 350.712022 59.153466 
L 351.797823 57.907058 
L 353.969425 58.382251 
L 355.055227 57.844737 
L 356.141028 55.671313 
L 357.226829 55.375292 
L 359.398431 56.341258 
L 360.484232 55.422032 
L 361.570033 55.546673 
L 362.655835 54.923469 
L 363.741636 55.289601 
L 364.827437 53.754961 
L 365.913238 53.568 
L 366.999039 54.308055 
L 368.08484 53.786121 
L 369.170642 54.985789 
L 370.256443 55.943965 
L 372.428045 56.870981 
L 373.513846 56.909931 
L 374.599647 57.260484 
L 376.77125 58.569212 
L 377.857051 57.688936 
L 378.942852 58.545842 
L 380.028653 59.207996 
L 381.114454 58.475731 
L 382.200255 58.24203 
L 384.371858 58.24982 
L 385.457659 57.860318 
L 386.54346 56.902141 
L 387.629261 57.416285 
L 388.715062 58.366671 
L 389.800863 57.540925 
L 390.886665 57.782417 
L 391.972466 57.852527 
L 393.058267 57.501975 
L 394.144068 57.369544 
L 395.229869 58.623742 
L 396.31567 57.922638 
L 397.401472 57.042362 
L 398.487273 57.984958 
L 398.487273 57.984958 
" clip-path="url(#p2aec56ed5c)" style="fill: none; stroke: #1f77b4; stroke-width: 1.5; stroke-linecap: square"/>
   </g>
   <g id="line2d_20">
    <path d="M 73.832727 283.218671 
L 74.918528 263.338464 
L 76.00433 237.72478 
L 77.090131 217.813412 
L 78.175932 208.278391 
L 79.261733 202.139832 
L 80.347534 185.375645 
L 81.433335 175.715983 
L 82.519137 162.84682 
L 83.604938 160.073562 
L 84.690739 148.481968 
L 85.77654 143.558657 
L 86.862341 140.567277 
L 87.948142 134.678 
L 89.033943 131.780101 
L 90.119745 127.137231 
L 91.205546 123.304527 
L 92.291347 124.208173 
L 93.377148 123.398007 
L 94.462949 121.746517 
L 95.54875 147.952245 
L 96.634552 149.042852 
L 97.720353 143.527496 
L 98.806154 141.626724 
L 99.891955 137.077335 
L 100.977756 138.074461 
L 102.063557 130.315572 
L 103.149358 126.264746 
L 104.23516 124.052372 
L 105.320961 122.961765 
L 106.406762 123.148726 
L 107.492563 122.026959 
L 108.578364 121.123313 
L 109.664165 111.931054 
L 110.749967 111.401331 
L 111.835768 112.055695 
L 114.00737 112.149175 
L 115.093171 105.730174 
L 116.178972 103.954043 
L 117.264773 104.327965 
L 118.350575 98.095925 
L 119.436376 97.129959 
L 120.522177 97.503882 
L 121.607978 94.730624 
L 122.693779 93.484216 
L 123.77958 93.172614 
L 124.865382 91.521123 
L 127.036984 88.685545 
L 128.122785 88.000021 
L 130.294387 84.85284 
L 131.380189 84.541238 
L 132.46599 84.977481 
L 133.551791 84.603559 
L 134.637592 84.042675 
L 135.723393 83.17019 
L 136.809194 84.136156 
L 137.894995 83.450631 
L 138.980797 111.681772 
L 140.066598 110.497685 
L 141.152399 108.441112 
L 142.2382 108.316471 
L 143.324001 108.347631 
L 144.409802 105.387412 
L 145.495604 107.942548 
L 146.581405 105.169291 
L 147.667206 110.217243 
L 148.753007 102.146751 
L 149.838808 107.662107 
L 150.924609 101.398906 
L 152.01041 101.95979 
L 153.096212 103.081557 
L 154.182013 101.866309 
L 155.267814 102.458353 
L 157.439416 95.166867 
L 158.525217 99.311173 
L 159.611019 94.232061 
L 160.69682 94.855265 
L 161.782621 94.668303 
L 162.868422 97.036479 
L 163.954223 95.63427 
L 165.040024 94.045099 
L 166.125825 94.263221 
L 167.211627 91.334162 
L 168.297428 92.019686 
L 169.383229 93.141454 
L 170.46903 91.676924 
L 171.554831 88.093501 
L 172.640632 88.124661 
L 173.726434 87.096375 
L 174.812235 84.697039 
L 175.898036 87.127535 
L 176.983837 86.628972 
L 178.069638 85.164442 
L 179.155439 85.818807 
L 180.24124 83.388311 
L 181.327042 81.892621 
L 182.412843 81.61218 
L 183.498644 83.481792 
L 184.584445 81.830301 
L 185.670246 82.796267 
L 186.756047 80.272291 
L 187.841849 79.524446 
L 188.92765 79.088204 
L 190.013451 79.337485 
L 191.099252 79.773728 
L 192.185053 77.249752 
L 193.270854 78.184558 
L 194.356656 76.626548 
L 195.442457 77.966436 
L 196.528258 75.286659 
L 197.614059 74.725776 
L 198.69986 73.354727 
L 199.785661 74.164892 
L 200.871462 73.759809 
L 201.957264 71.547435 
L 203.043065 73.230086 
L 204.128866 73.385887 
L 205.214667 71.235833 
L 206.300468 72.856164 
L 207.386269 70.73727 
L 208.472071 70.238707 
L 209.557872 71.485115 
L 210.643673 71.204673 
L 211.729474 69.17926 
L 212.815275 69.615503 
L 213.901076 70.550309 
L 214.986877 69.366221 
L 216.072679 68.587216 
L 217.15848 68.649537 
L 218.244281 68.057493 
L 219.330082 68.306774 
L 220.415883 68.992299 
L 221.501684 67.964012 
L 222.587486 68.462575 
L 223.673287 68.244454 
L 224.759088 69.24158 
L 225.844889 96.818357 
L 226.93069 95.384988 
L 228.016491 95.821231 
L 229.102292 98.002445 
L 230.188094 92.268968 
L 232.359696 95.852391 
L 233.445497 96.132833 
L 234.531298 93.047973 
L 235.617099 93.858138 
L 236.702901 90.617477 
L 237.788702 93.172614 
L 238.874503 91.365322 
L 239.960304 90.866759 
L 241.046105 89.900793 
L 242.131906 90.617477 
L 243.217708 92.331288 
L 244.303509 92.206648 
L 245.38931 91.240681 
L 246.475111 88.841346 
L 247.560912 91.552283 
L 248.646713 92.300128 
L 249.732514 86.036928 
L 250.818316 88.436263 
L 251.904117 86.442011 
L 252.989918 87.252176 
L 254.075719 87.781899 
L 255.16152 88.186982 
L 256.247321 87.407977 
L 257.333123 88.280462 
L 258.418924 86.41085 
L 259.504725 88.872506 
L 260.590526 84.75936 
L 261.676327 84.011515 
L 262.762128 89.028307 
L 263.847929 88.529744 
L 264.933731 87.158695 
L 266.019532 82.328864 
L 267.105333 84.416598 
L 268.191134 87.657258 
L 269.276935 83.668753 
L 270.362736 83.388311 
L 271.448538 84.75936 
L 272.534339 83.045549 
L 273.62014 79.867209 
L 274.705941 82.640466 
L 275.791742 79.275165 
L 277.963344 84.82168 
L 279.049146 83.855714 
L 280.134947 77.125111 
L 281.220748 80.926655 
L 282.306549 79.524446 
L 283.39235 80.708534 
L 284.478151 78.059917 
L 285.563953 79.898369 
L 286.649754 80.770854 
L 287.735555 78.52732 
L 288.821356 79.929529 
L 289.907157 78.807762 
L 292.07876 77.343232 
L 293.164561 79.555607 
L 294.250362 78.402679 
L 295.336163 79.057043 
L 296.421964 78.246878 
L 297.507765 78.371519 
L 298.593566 76.190305 
L 299.679368 77.156271 
L 300.765169 76.346106 
L 301.85097 75.193179 
L 302.936771 75.941023 
L 304.022572 74.850416 
L 305.108373 78.58964 
L 306.194175 76.096824 
L 307.279976 75.941023 
L 308.365777 72.139479 
L 309.451578 74.040251 
L 310.537379 73.136605 
L 311.62318 73.230086 
L 312.708981 74.632295 
L 313.794783 72.731523 
L 314.880584 73.541688 
L 315.966385 72.388761 
L 317.052186 72.544562 
L 318.137987 75.037378 
L 319.223788 74.414174 
L 320.30959 70.020585 
L 321.395391 72.3576 
L 322.481192 71.859037 
L 323.566993 71.080032 
L 324.652794 69.615503 
L 325.738595 70.519149 
L 326.824396 68.026333 
L 327.910198 70.487988 
L 328.995999 68.182134 
L 330.0818 70.207547 
L 331.167601 69.708983 
L 332.253402 68.244454 
L 333.339203 69.17926 
L 334.425005 69.24158 
L 335.510806 67.153847 
L 336.596607 67.839371 
L 338.768209 67.964012 
L 339.85401 66.811085 
L 340.939811 66.530643 
L 342.025613 67.122687 
L 343.111414 66.998046 
L 344.197215 64.318269 
L 345.283016 64.941473 
L 346.368817 67.309648 
L 347.454618 65.626997 
L 348.54042 64.56755 
L 349.626221 65.564677 
L 350.712022 64.193628 
L 351.797823 64.224788 
L 352.883624 62.542137 
L 353.969425 64.100147 
L 355.055227 63.445783 
L 356.141028 63.321142 
L 357.226829 63.321142 
L 358.31263 61.825453 
L 360.484232 62.760259 
L 361.570033 63.819706 
L 362.655835 61.856613 
L 363.741636 61.856613 
L 364.827437 62.043574 
L 365.913238 61.825453 
L 366.999039 60.859487 
L 368.08484 62.043574 
L 369.170642 62.479817 
L 370.256443 61.046448 
L 371.342244 63.788545 
L 372.428045 64.847992 
L 373.513846 63.445783 
L 374.599647 63.663905 
L 375.685448 62.510977 
L 376.77125 64.224788 
L 378.942852 64.380589 
L 380.028653 64.006667 
L 381.114454 64.47407 
L 382.200255 62.760259 
L 383.286057 64.068987 
L 384.371858 64.224788 
L 385.457659 64.754512 
L 386.54346 64.53639 
L 387.629261 65.159594 
L 388.715062 65.034953 
L 389.800863 65.751638 
L 390.886665 65.284235 
L 391.972466 65.221915 
L 393.058267 63.913186 
L 394.144068 66.779925 
L 395.229869 63.944346 
L 396.31567 64.255948 
L 397.401472 64.349429 
L 398.487273 64.598711 
L 398.487273 64.598711 
" clip-path="url(#p2aec56ed5c)" style="fill: none; stroke: #ff7f0e; stroke-width: 1.5; stroke-linecap: square"/>
   </g>
   <g id="line2d_21">
    <path d="M 73.832727 285.671602 
L 74.918528 271.595917 
L 77.090131 236.137791 
L 78.175932 234.525874 
L 79.261733 230.657958 
L 80.347534 221.094893 
L 81.433335 214.003143 
L 82.519137 203.688182 
L 83.604938 202.613779 
L 84.690739 193.158216 
L 85.77654 185.099565 
L 86.862341 183.380457 
L 87.948142 180.479131 
L 89.033943 175.214303 
L 90.119745 172.850179 
L 91.205546 168.445062 
L 92.291347 171.131071 
L 93.377148 168.337559 
L 94.462949 167.370346 
L 95.54875 192.083812 
L 96.634552 192.943211 
L 97.720353 182.950446 
L 98.806154 186.711171 
L 99.891955 183.057949 
L 100.977756 182.305742 
L 102.063557 175.751505 
L 103.149358 175.321494 
L 104.23516 171.668273 
L 105.320961 170.701372 
L 106.406762 170.378864 
L 107.492563 176.825909 
L 108.578364 171.023568 
L 109.664165 163.93213 
L 110.749967 160.923613 
L 111.835768 166.18844 
L 112.921569 162.750224 
L 114.00737 163.609622 
L 115.093171 158.129789 
L 116.178972 157.807593 
L 117.264773 153.831863 
L 119.436376 150.930848 
L 120.522177 148.889232 
L 121.607978 147.277315 
L 122.693779 145.343513 
L 123.77958 146.632922 
L 124.865382 143.301897 
L 125.951183 141.904985 
L 127.036984 143.516902 
L 128.122785 140.723078 
L 129.208586 139.218664 
L 130.294387 137.284862 
L 131.380189 137.499556 
L 132.46599 137.069857 
L 133.551791 135.135743 
L 134.637592 137.392053 
L 135.723393 134.168842 
L 136.809194 136.425152 
L 137.894995 136.425152 
L 138.980797 167.262844 
L 140.066598 167.262844 
L 141.152399 159.848897 
L 142.2382 163.502119 
L 143.324001 162.964917 
L 144.409802 156.088173 
L 145.495604 158.989499 
L 147.667206 161.245809 
L 148.753007 155.980982 
L 149.838808 161.998016 
L 150.924609 155.013769 
L 152.01041 157.162888 
L 153.096212 154.261562 
L 154.182013 151.038039 
L 155.267814 154.58407 
L 156.353615 149.426434 
L 157.439416 151.253045 
L 158.525217 151.897749 
L 159.611019 147.49232 
L 160.69682 149.318931 
L 161.782621 150.715843 
L 162.868422 149.641439 
L 163.954223 150.823346 
L 165.040024 145.880715 
L 166.125825 147.922019 
L 167.211627 141.904985 
L 168.297428 144.161295 
L 169.383229 142.012487 
L 170.46903 149.211428 
L 171.554831 140.938084 
L 172.640632 143.839098 
L 173.726434 138.359266 
L 174.812235 141.904985 
L 175.898036 141.797482 
L 176.983837 138.896468 
L 178.069638 140.293379 
L 179.155439 142.872197 
L 180.24124 136.532655 
L 181.327042 136.102644 
L 182.412843 135.88795 
L 183.498644 137.284862 
L 184.584445 137.714561 
L 185.670246 135.02824 
L 186.756047 134.491038 
L 187.841849 132.879433 
L 188.92765 132.449422 
L 190.013451 130.837817 
L 191.099252 131.697215 
L 192.185053 128.903703 
L 193.270854 132.127226 
L 194.356656 129.65591 
L 195.442457 130.193112 
L 196.528258 129.763413 
L 197.614059 122.886669 
L 198.69986 127.721797 
L 199.785661 127.506791 
L 200.871462 123.85357 
L 201.957264 126.002688 
L 203.043065 125.357984 
L 204.128866 123.316368 
L 205.214667 123.316368 
L 206.300468 122.241964 
L 207.386269 124.390771 
L 208.472071 123.531373 
L 209.557872 120.73755 
L 210.643673 122.456658 
L 211.729474 122.99386 
L 212.815275 119.87784 
L 213.901076 120.630047 
L 214.986877 120.522544 
L 216.072679 120.73755 
L 217.15848 121.811953 
L 218.244281 119.87784 
L 219.330082 120.630047 
L 221.501684 119.555643 
L 222.587486 120.092845 
L 223.673287 119.340638 
L 224.759088 121.382254 
L 225.844889 154.476567 
L 226.93069 146.847616 
L 228.016491 151.682744 
L 229.102292 150.071138 
L 230.188094 149.533936 
L 231.273895 148.35203 
L 232.359696 149.104237 
L 233.445497 152.864962 
L 234.531298 145.773212 
L 235.617099 143.086891 
L 236.702901 144.698808 
L 237.788702 146.525322 
L 238.874503 143.731649 
L 239.960304 146.202976 
L 241.046105 144.913588 
L 242.131906 149.318996 
L 243.217708 152.435016 
L 244.303509 140.830527 
L 245.38931 150.608383 
L 246.475111 142.549711 
L 247.560912 144.913588 
L 248.646713 147.599812 
L 249.732514 136.640018 
L 250.818316 140.937976 
L 251.904117 139.863487 
L 252.989918 138.359201 
L 255.16152 138.574099 
L 256.247321 139.970936 
L 257.333123 142.65716 
L 258.418924 138.46665 
L 259.504725 146.74022 
L 260.590526 135.995324 
L 261.676327 141.260323 
L 262.762128 138.359201 
L 263.847929 141.475221 
L 264.933731 146.202976 
L 266.019532 138.144303 
L 267.105333 137.929405 
L 268.191134 141.367772 
L 269.276935 137.714507 
L 270.362736 135.672977 
L 271.448538 145.450833 
L 272.534339 135.780426 
L 273.62014 131.482467 
L 274.705941 135.458079 
L 275.791742 130.730325 
L 276.877543 135.780426 
L 277.963344 136.854916 
L 279.049146 132.127161 
L 280.134947 130.300529 
L 281.220748 140.078385 
L 282.306549 134.168692 
L 283.39235 139.756038 
L 284.478151 127.936652 
L 285.563953 130.515427 
L 286.649754 137.929405 
L 287.735555 129.870733 
L 288.821356 134.598487 
L 289.907157 133.201651 
L 290.992958 130.622876 
L 292.07876 131.26757 
L 293.164561 133.3091 
L 294.250362 131.375019 
L 295.336163 130.515427 
L 296.421964 135.887875 
L 297.507765 135.887875 
L 298.593566 130.19308 
L 299.679368 130.19308 
L 300.765169 129.655835 
L 301.85097 126.754713 
L 302.936771 128.044101 
L 304.022572 126.217468 
L 305.108373 130.515427 
L 306.194175 126.862162 
L 307.279976 129.978182 
L 308.365777 127.399407 
L 309.451578 124.498285 
L 310.537379 126.969611 
L 311.62318 122.026959 
L 312.708981 127.506856 
L 313.794783 123.853591 
L 314.880584 127.291958 
L 315.966385 126.00257 
L 317.052186 123.208897 
L 318.137987 122.993999 
L 319.223788 127.07706 
L 320.30959 123.101448 
L 321.395391 124.390836 
L 322.481192 125.03553 
L 323.566993 123.853591 
L 324.652794 120.84502 
L 325.738595 119.985428 
L 326.824396 115.902368 
L 327.910198 120.630122 
L 328.995999 117.836449 
L 330.0818 121.274816 
L 331.167601 119.877979 
L 332.253402 118.158796 
L 333.339203 121.489714 
L 334.425005 122.88655 
L 335.510806 120.737571 
L 336.596607 114.61298 
L 337.682408 114.398082 
L 338.768209 114.61298 
L 339.85401 120.092877 
L 340.939811 116.224715 
L 342.025613 114.935327 
L 343.111414 115.257674 
L 344.197215 111.926756 
L 345.283016 114.398082 
L 346.368817 114.398082 
L 347.454618 115.150225 
L 348.54042 115.042776 
L 349.626221 115.902368 
L 350.712022 115.257674 
L 351.797823 115.472572 
L 352.883624 113.968286 
L 353.969425 115.68747 
L 355.055227 113.645939 
L 356.141028 112.356552 
L 357.226829 112.249103 
L 358.31263 109.240532 
L 359.398431 111.067164 
L 360.484232 110.529919 
L 361.570033 114.720429 
L 362.655835 109.777777 
L 363.741636 111.174613 
L 364.827437 113.860837 
L 365.913238 115.042776 
L 366.999039 110.959715 
L 368.08484 113.001246 
L 369.170642 108.918185 
L 371.342244 115.794919 
L 372.428045 116.547061 
L 373.513846 113.323593 
L 374.599647 112.034205 
L 375.685448 114.720429 
L 376.77125 116.332164 
L 377.857051 111.389511 
L 378.942852 112.356552 
L 380.028653 114.290633 
L 381.114454 114.935327 
L 382.200255 117.621551 
L 383.286057 110.852266 
L 384.371858 114.505531 
L 385.457659 113.108695 
L 386.54346 115.580021 
L 387.629261 115.365123 
L 388.715062 115.472572 
L 389.800863 117.084306 
L 390.886665 116.009817 
L 391.972466 117.621551 
L 393.058267 114.290633 
L 394.144068 113.53849 
L 395.229869 114.075735 
L 396.31567 115.257674 
L 397.401472 114.720429 
L 398.487273 114.720429 
L 398.487273 114.720429 
" clip-path="url(#p2aec56ed5c)" style="fill: none; stroke: #2ca02c; stroke-width: 1.5; stroke-linecap: square"/>
   </g>
   <g id="line2d_22">
    <path d="M 368.08484 60.797166 
L 369.170642 60.797166 
L 370.256443 59.924681 
L 371.342244 63.00954 
L 372.428045 61.981254 
M 374.599647 62.261696 
L 375.685448 63.071861 
L 376.77125 62.604458 
L 377.857051 63.289982 
L 378.942852 62.573298 
L 380.028653 63.757385 
L 381.114454 63.445783 
L 382.200255 63.788545 
L 383.286057 64.255948 
L 384.371858 62.760259 
L 385.457659 62.292856 
L 386.54346 63.570424 
L 387.629261 62.666778 
L 388.715062 63.601584 
L 389.800863 66.343682 
L 390.886665 65.845119 
L 391.972466 63.944346 
L 393.058267 66.374842 
L 394.144068 64.53639 
L 395.229869 65.221915 
L 396.31567 65.315395 
L 397.401472 65.907439 
L 398.487273 64.972633 
L 398.487273 64.972633 
" clip-path="url(#p2aec56ed5c)" style="fill: none; stroke: #d62728; stroke-width: 1.5; stroke-linecap: square"/>
   </g>
   <g id="line2d_23">
    <path d="M 368.08484 108.273491 
L 369.170642 110.100124 
L 370.256443 109.670328 
L 371.342244 111.174613 
L 372.428045 108.058593 
L 373.513846 114.61298 
L 374.599647 113.216144 
L 375.685448 112.464001 
L 376.77125 112.356552 
L 377.857051 110.959715 
L 378.942852 110.852266 
L 380.028653 113.860837 
L 381.114454 112.356552 
L 382.200255 114.61298 
L 383.286057 111.067164 
L 384.371858 109.025634 
L 385.457659 111.174613 
L 386.54346 110.744817 
L 387.629261 109.992675 
L 388.715062 112.464001 
L 389.800863 109.347981 
L 390.886665 117.729 
L 391.972466 108.810736 
L 393.058267 112.678899 
L 394.144068 112.249103 
L 395.229869 118.051347 
L 396.31567 113.001246 
L 397.401472 111.49696 
L 398.487273 112.034205 
L 398.487273 112.034205 
" clip-path="url(#p2aec56ed5c)" style="fill: none; stroke: #9467bd; stroke-width: 1.5; stroke-linecap: square"/>
   </g>
   <g id="patch_3">
    <path d="M 57.6 307.584 
L 57.6 41.472 
" style="fill: none; stroke: #000000; stroke-width: 0.8; stroke-linejoin: miter; stroke-linecap: square"/>
   </g>
   <g id="patch_4">
    <path d="M 414.72 307.584 
L 414.72 41.472 
" style="fill: none; stroke: #000000; stroke-width: 0.8; stroke-linejoin: miter; stroke-linecap: square"/>
   </g>
   <g id="patch_5">
    <path d="M 57.6 307.584 
L 414.72 307.584 
" style="fill: none; stroke: #000000; stroke-width: 0.8; stroke-linejoin: miter; stroke-linecap: square"/>
   </g>
   <g id="patch_6">
    <path d="M 57.6 41.472 
L 414.72 41.472 
" style="fill: none; stroke: #000000; stroke-width: 0.8; stroke-linejoin: miter; stroke-linecap: square"/>
   </g>
   <g id="text_21">
    <!-- Learning Curves -->
    <g transform="translate(187.37625 35.472) scale(0.12 -0.12)">
     <defs>
      <path id="DejaVuSans-4c" d="M 628 4666 
L 1259 4666 
L 1259 531 
L 3531 531 
L 3531 0 
L 628 0 
L 628 4666 
z
" transform="scale(0.015625)"/>
      <path id="DejaVuSans-65" d="M 3597 1894 
L 3597 1613 
L 953 1613 
Q 991 1019 1311 708 
Q 1631 397 2203 397 
Q 2534 397 2845 478 
Q 3156 559 3463 722 
L 3463 178 
Q 3153 47 2828 -22 
Q 2503 -91 2169 -91 
Q 1331 -91 842 396 
Q 353 884 353 1716 
Q 353 2575 817 3079 
Q 1281 3584 2069 3584 
Q 2775 3584 3186 3129 
Q 3597 2675 3597 1894 
z
M 3022 2063 
Q 3016 2534 2758 2815 
Q 2500 3097 2075 3097 
Q 1594 3097 1305 2825 
Q 1016 2553 972 2059 
L 3022 2063 
z
" transform="scale(0.015625)"/>
      <path id="DejaVuSans-6e" d="M 3513 2113 
L 3513 0 
L 2938 0 
L 2938 2094 
Q 2938 2591 2744 2837 
Q 2550 3084 2163 3084 
Q 1697 3084 1428 2787 
Q 1159 2491 1159 1978 
L 1159 0 
L 581 0 
L 581 3500 
L 1159 3500 
L 1159 2956 
Q 1366 3272 1645 3428 
Q 1925 3584 2291 3584 
Q 2894 3584 3203 3211 
Q 3513 2838 3513 2113 
z
" transform="scale(0.015625)"/>
      <path id="DejaVuSans-69" d="M 603 3500 
L 1178 3500 
L 1178 0 
L 603 0 
L 603 3500 
z
M 603 4863 
L 1178 4863 
L 1178 4134 
L 603 4134 
L 603 4863 
z
" transform="scale(0.015625)"/>
      <path id="DejaVuSans-67" d="M 2906 1791 
Q 2906 2416 2648 2759 
Q 2391 3103 1925 3103 
Q 1463 3103 1205 2759 
Q 947 2416 947 1791 
Q 947 1169 1205 825 
Q 1463 481 1925 481 
Q 2391 481 2648 825 
Q 2906 1169 2906 1791 
z
M 3481 434 
Q 3481 -459 3084 -895 
Q 2688 -1331 1869 -1331 
Q 1566 -1331 1297 -1286 
Q 1028 -1241 775 -1147 
L 775 -588 
Q 1028 -725 1275 -790 
Q 1522 -856 1778 -856 
Q 2344 -856 2625 -561 
Q 2906 -266 2906 331 
L 2906 616 
Q 2728 306 2450 153 
Q 2172 0 1784 0 
Q 1141 0 747 490 
Q 353 981 353 1791 
Q 353 2603 747 3093 
Q 1141 3584 1784 3584 
Q 2172 3584 2450 3431 
Q 2728 3278 2906 2969 
L 2906 3500 
L 3481 3500 
L 3481 434 
z
" transform="scale(0.015625)"/>
      <path id="DejaVuSans-20" transform="scale(0.015625)"/>
      <path id="DejaVuSans-43" d="M 4122 4306 
L 4122 3641 
Q 3803 3938 3442 4084 
Q 3081 4231 2675 4231 
Q 1875 4231 1450 3742 
Q 1025 3253 1025 2328 
Q 1025 1406 1450 917 
Q 1875 428 2675 428 
Q 3081 428 3442 575 
Q 3803 722 4122 1019 
L 4122 359 
Q 3791 134 3420 21 
Q 3050 -91 2638 -91 
Q 1578 -91 968 557 
Q 359 1206 359 2328 
Q 359 3453 968 4101 
Q 1578 4750 2638 4750 
Q 3056 4750 3426 4639 
Q 3797 4528 4122 4306 
z
" transform="scale(0.015625)"/>
      <path id="DejaVuSans-76" d="M 191 3500 
L 800 3500 
L 1894 563 
L 2988 3500 
L 3597 3500 
L 2284 0 
L 1503 0 
L 191 3500 
z
" transform="scale(0.015625)"/>
     </defs>
     <use xlink:href="#DejaVuSans-4c"/>
     <use xlink:href="#DejaVuSans-65" x="53.962891"/>
     <use xlink:href="#DejaVuSans-61" x="115.486328"/>
     <use xlink:href="#DejaVuSans-72" x="176.765625"/>
     <use xlink:href="#DejaVuSans-6e" x="216.128906"/>
     <use xlink:href="#DejaVuSans-69" x="279.507812"/>
     <use xlink:href="#DejaVuSans-6e" x="307.291016"/>
     <use xlink:href="#DejaVuSans-67" x="370.669922"/>
     <use xlink:href="#DejaVuSans-20" x="434.146484"/>
     <use xlink:href="#DejaVuSans-43" x="465.933594"/>
     <use xlink:href="#DejaVuSans-75" x="535.757812"/>
     <use xlink:href="#DejaVuSans-72" x="599.136719"/>
     <use xlink:href="#DejaVuSans-76" x="640.25"/>
     <use xlink:href="#DejaVuSans-65" x="699.429688"/>
     <use xlink:href="#DejaVuSans-73" x="760.953125"/>
    </g>
   </g>
   <g id="legend_1">
    <g id="patch_7">
     <path d="M 214.18875 302.584 
L 407.72 302.584 
Q 409.72 302.584 409.72 300.584 
L 409.72 228.193375 
Q 409.72 226.193375 407.72 226.193375 
L 214.18875 226.193375 
Q 212.18875 226.193375 212.18875 228.193375 
L 212.18875 300.584 
Q 212.18875 302.584 214.18875 302.584 
z
" style="fill: #ffffff; opacity: 0.8; stroke: #cccccc; stroke-linejoin: miter"/>
    </g>
    <g id="line2d_24">
     <path d="M 216.18875 234.291812 
L 226.18875 234.291812 
L 236.18875 234.291812 
" style="fill: none; stroke: #1f77b4; stroke-width: 1.5; stroke-linecap: square"/>
    </g>
    <g id="text_22">
     <!-- Train Accuracy -->
     <g transform="translate(244.18875 237.791812) scale(0.1 -0.1)">
      <defs>
       <path id="DejaVuSans-54" d="M -19 4666 
L 3928 4666 
L 3928 4134 
L 2272 4134 
L 2272 0 
L 1638 0 
L 1638 4134 
L -19 4134 
L -19 4666 
z
" transform="scale(0.015625)"/>
      </defs>
      <use xlink:href="#DejaVuSans-54"/>
      <use xlink:href="#DejaVuSans-72" x="46.333984"/>
      <use xlink:href="#DejaVuSans-61" x="87.447266"/>
      <use xlink:href="#DejaVuSans-69" x="148.726562"/>
      <use xlink:href="#DejaVuSans-6e" x="176.509766"/>
      <use xlink:href="#DejaVuSans-20" x="239.888672"/>
      <use xlink:href="#DejaVuSans-41" x="271.675781"/>
      <use xlink:href="#DejaVuSans-63" x="338.333984"/>
      <use xlink:href="#DejaVuSans-63" x="393.314453"/>
      <use xlink:href="#DejaVuSans-75" x="448.294922"/>
      <use xlink:href="#DejaVuSans-72" x="511.673828"/>
      <use xlink:href="#DejaVuSans-61" x="552.787109"/>
      <use xlink:href="#DejaVuSans-63" x="614.066406"/>
      <use xlink:href="#DejaVuSans-79" x="669.046875"/>
     </g>
    </g>
    <g id="line2d_25">
     <path d="M 216.18875 248.969937 
L 226.18875 248.969937 
L 236.18875 248.969937 
" style="fill: none; stroke: #ff7f0e; stroke-width: 1.5; stroke-linecap: square"/>
    </g>
    <g id="text_23">
     <!-- Validation Accuracy -->
     <g transform="translate(244.18875 252.469937) scale(0.1 -0.1)">
      <defs>
       <path id="DejaVuSans-56" d="M 1831 0 
L 50 4666 
L 709 4666 
L 2188 738 
L 3669 4666 
L 4325 4666 
L 2547 0 
L 1831 0 
z
" transform="scale(0.015625)"/>
       <path id="DejaVuSans-6c" d="M 603 4863 
L 1178 4863 
L 1178 0 
L 603 0 
L 603 4863 
z
" transform="scale(0.015625)"/>
       <path id="DejaVuSans-64" d="M 2906 2969 
L 2906 4863 
L 3481 4863 
L 3481 0 
L 2906 0 
L 2906 525 
Q 2725 213 2448 61 
Q 2172 -91 1784 -91 
Q 1150 -91 751 415 
Q 353 922 353 1747 
Q 353 2572 751 3078 
Q 1150 3584 1784 3584 
Q 2172 3584 2448 3432 
Q 2725 3281 2906 2969 
z
M 947 1747 
Q 947 1113 1208 752 
Q 1469 391 1925 391 
Q 2381 391 2643 752 
Q 2906 1113 2906 1747 
Q 2906 2381 2643 2742 
Q 2381 3103 1925 3103 
Q 1469 3103 1208 2742 
Q 947 2381 947 1747 
z
" transform="scale(0.015625)"/>
       <path id="DejaVuSans-74" d="M 1172 4494 
L 1172 3500 
L 2356 3500 
L 2356 3053 
L 1172 3053 
L 1172 1153 
Q 1172 725 1289 603 
Q 1406 481 1766 481 
L 2356 481 
L 2356 0 
L 1766 0 
Q 1100 0 847 248 
Q 594 497 594 1153 
L 594 3053 
L 172 3053 
L 172 3500 
L 594 3500 
L 594 4494 
L 1172 4494 
z
" transform="scale(0.015625)"/>
      </defs>
      <use xlink:href="#DejaVuSans-56"/>
      <use xlink:href="#DejaVuSans-61" x="60.658203"/>
      <use xlink:href="#DejaVuSans-6c" x="121.9375"/>
      <use xlink:href="#DejaVuSans-69" x="149.720703"/>
      <use xlink:href="#DejaVuSans-64" x="177.503906"/>
      <use xlink:href="#DejaVuSans-61" x="240.980469"/>
      <use xlink:href="#DejaVuSans-74" x="302.259766"/>
      <use xlink:href="#DejaVuSans-69" x="341.46875"/>
      <use xlink:href="#DejaVuSans-6f" x="369.251953"/>
      <use xlink:href="#DejaVuSans-6e" x="430.433594"/>
      <use xlink:href="#DejaVuSans-20" x="493.8125"/>
      <use xlink:href="#DejaVuSans-41" x="525.599609"/>
      <use xlink:href="#DejaVuSans-63" x="592.257812"/>
      <use xlink:href="#DejaVuSans-63" x="647.238281"/>
      <use xlink:href="#DejaVuSans-75" x="702.21875"/>
      <use xlink:href="#DejaVuSans-72" x="765.597656"/>
      <use xlink:href="#DejaVuSans-61" x="806.710938"/>
      <use xlink:href="#DejaVuSans-63" x="867.990234"/>
      <use xlink:href="#DejaVuSans-79" x="922.970703"/>
     </g>
    </g>
    <g id="line2d_26">
     <path d="M 216.18875 263.648062 
L 226.18875 263.648062 
L 236.18875 263.648062 
" style="fill: none; stroke: #2ca02c; stroke-width: 1.5; stroke-linecap: square"/>
    </g>
    <g id="text_24">
     <!-- Robust Validation Accuracy -->
     <g transform="translate(244.18875 267.148062) scale(0.1 -0.1)">
      <defs>
       <path id="DejaVuSans-52" d="M 2841 2188 
Q 3044 2119 3236 1894 
Q 3428 1669 3622 1275 
L 4263 0 
L 3584 0 
L 2988 1197 
Q 2756 1666 2539 1819 
Q 2322 1972 1947 1972 
L 1259 1972 
L 1259 0 
L 628 0 
L 628 4666 
L 2053 4666 
Q 2853 4666 3247 4331 
Q 3641 3997 3641 3322 
Q 3641 2881 3436 2590 
Q 3231 2300 2841 2188 
z
M 1259 4147 
L 1259 2491 
L 2053 2491 
Q 2509 2491 2742 2702 
Q 2975 2913 2975 3322 
Q 2975 3731 2742 3939 
Q 2509 4147 2053 4147 
L 1259 4147 
z
" transform="scale(0.015625)"/>
       <path id="DejaVuSans-62" d="M 3116 1747 
Q 3116 2381 2855 2742 
Q 2594 3103 2138 3103 
Q 1681 3103 1420 2742 
Q 1159 2381 1159 1747 
Q 1159 1113 1420 752 
Q 1681 391 2138 391 
Q 2594 391 2855 752 
Q 3116 1113 3116 1747 
z
M 1159 2969 
Q 1341 3281 1617 3432 
Q 1894 3584 2278 3584 
Q 2916 3584 3314 3078 
Q 3713 2572 3713 1747 
Q 3713 922 3314 415 
Q 2916 -91 2278 -91 
Q 1894 -91 1617 61 
Q 1341 213 1159 525 
L 1159 0 
L 581 0 
L 581 4863 
L 1159 4863 
L 1159 2969 
z
" transform="scale(0.015625)"/>
      </defs>
      <use xlink:href="#DejaVuSans-52"/>
      <use xlink:href="#DejaVuSans-6f" x="64.982422"/>
      <use xlink:href="#DejaVuSans-62" x="126.164062"/>
      <use xlink:href="#DejaVuSans-75" x="189.640625"/>
      <use xlink:href="#DejaVuSans-73" x="253.019531"/>
      <use xlink:href="#DejaVuSans-74" x="305.119141"/>
      <use xlink:href="#DejaVuSans-20" x="344.328125"/>
      <use xlink:href="#DejaVuSans-56" x="376.115234"/>
      <use xlink:href="#DejaVuSans-61" x="436.773438"/>
      <use xlink:href="#DejaVuSans-6c" x="498.052734"/>
      <use xlink:href="#DejaVuSans-69" x="525.835938"/>
      <use xlink:href="#DejaVuSans-64" x="553.619141"/>
      <use xlink:href="#DejaVuSans-61" x="617.095703"/>
      <use xlink:href="#DejaVuSans-74" x="678.375"/>
      <use xlink:href="#DejaVuSans-69" x="717.583984"/>
      <use xlink:href="#DejaVuSans-6f" x="745.367188"/>
      <use xlink:href="#DejaVuSans-6e" x="806.548828"/>
      <use xlink:href="#DejaVuSans-20" x="869.927734"/>
      <use xlink:href="#DejaVuSans-41" x="901.714844"/>
      <use xlink:href="#DejaVuSans-63" x="968.373047"/>
      <use xlink:href="#DejaVuSans-63" x="1023.353516"/>
      <use xlink:href="#DejaVuSans-75" x="1078.333984"/>
      <use xlink:href="#DejaVuSans-72" x="1141.712891"/>
      <use xlink:href="#DejaVuSans-61" x="1182.826172"/>
      <use xlink:href="#DejaVuSans-63" x="1244.105469"/>
      <use xlink:href="#DejaVuSans-79" x="1299.085938"/>
     </g>
    </g>
    <g id="line2d_27">
     <path d="M 216.18875 278.326188 
L 226.18875 278.326188 
L 236.18875 278.326188 
" style="fill: none; stroke: #d62728; stroke-width: 1.5; stroke-linecap: square"/>
    </g>
    <g id="text_25">
     <!-- SWA Validation Accuracy -->
     <g transform="translate(244.18875 281.826188) scale(0.1 -0.1)">
      <defs>
       <path id="DejaVuSans-53" d="M 3425 4513 
L 3425 3897 
Q 3066 4069 2747 4153 
Q 2428 4238 2131 4238 
Q 1616 4238 1336 4038 
Q 1056 3838 1056 3469 
Q 1056 3159 1242 3001 
Q 1428 2844 1947 2747 
L 2328 2669 
Q 3034 2534 3370 2195 
Q 3706 1856 3706 1288 
Q 3706 609 3251 259 
Q 2797 -91 1919 -91 
Q 1588 -91 1214 -16 
Q 841 59 441 206 
L 441 856 
Q 825 641 1194 531 
Q 1563 422 1919 422 
Q 2459 422 2753 634 
Q 3047 847 3047 1241 
Q 3047 1584 2836 1778 
Q 2625 1972 2144 2069 
L 1759 2144 
Q 1053 2284 737 2584 
Q 422 2884 422 3419 
Q 422 4038 858 4394 
Q 1294 4750 2059 4750 
Q 2388 4750 2728 4690 
Q 3069 4631 3425 4513 
z
" transform="scale(0.015625)"/>
       <path id="DejaVuSans-57" d="M 213 4666 
L 850 4666 
L 1831 722 
L 2809 4666 
L 3519 4666 
L 4500 722 
L 5478 4666 
L 6119 4666 
L 4947 0 
L 4153 0 
L 3169 4050 
L 2175 0 
L 1381 0 
L 213 4666 
z
" transform="scale(0.015625)"/>
      </defs>
      <use xlink:href="#DejaVuSans-53"/>
      <use xlink:href="#DejaVuSans-57" x="63.476562"/>
      <use xlink:href="#DejaVuSans-41" x="156.853516"/>
      <use xlink:href="#DejaVuSans-20" x="225.261719"/>
      <use xlink:href="#DejaVuSans-56" x="257.048828"/>
      <use xlink:href="#DejaVuSans-61" x="317.707031"/>
      <use xlink:href="#DejaVuSans-6c" x="378.986328"/>
      <use xlink:href="#DejaVuSans-69" x="406.769531"/>
      <use xlink:href="#DejaVuSans-64" x="434.552734"/>
      <use xlink:href="#DejaVuSans-61" x="498.029297"/>
      <use xlink:href="#DejaVuSans-74" x="559.308594"/>
      <use xlink:href="#DejaVuSans-69" x="598.517578"/>
      <use xlink:href="#DejaVuSans-6f" x="626.300781"/>
      <use xlink:href="#DejaVuSans-6e" x="687.482422"/>
      <use xlink:href="#DejaVuSans-20" x="750.861328"/>
      <use xlink:href="#DejaVuSans-41" x="782.648438"/>
      <use xlink:href="#DejaVuSans-63" x="849.306641"/>
      <use xlink:href="#DejaVuSans-63" x="904.287109"/>
      <use xlink:href="#DejaVuSans-75" x="959.267578"/>
      <use xlink:href="#DejaVuSans-72" x="1022.646484"/>
      <use xlink:href="#DejaVuSans-61" x="1063.759766"/>
      <use xlink:href="#DejaVuSans-63" x="1125.039062"/>
      <use xlink:href="#DejaVuSans-79" x="1180.019531"/>
     </g>
    </g>
    <g id="line2d_28">
     <path d="M 216.18875 293.004312 
L 226.18875 293.004312 
L 236.18875 293.004312 
" style="fill: none; stroke: #9467bd; stroke-width: 1.5; stroke-linecap: square"/>
    </g>
    <g id="text_26">
     <!-- SWA Robust Validation Accuracy -->
     <g transform="translate(244.18875 296.504312) scale(0.1 -0.1)">
      <use xlink:href="#DejaVuSans-53"/>
      <use xlink:href="#DejaVuSans-57" x="63.476562"/>
      <use xlink:href="#DejaVuSans-41" x="156.853516"/>
      <use xlink:href="#DejaVuSans-20" x="225.261719"/>
      <use xlink:href="#DejaVuSans-52" x="257.048828"/>
      <use xlink:href="#DejaVuSans-6f" x="322.03125"/>
      <use xlink:href="#DejaVuSans-62" x="383.212891"/>
      <use xlink:href="#DejaVuSans-75" x="446.689453"/>
      <use xlink:href="#DejaVuSans-73" x="510.068359"/>
      <use xlink:href="#DejaVuSans-74" x="562.167969"/>
      <use xlink:href="#DejaVuSans-20" x="601.376953"/>
      <use xlink:href="#DejaVuSans-56" x="633.164062"/>
      <use xlink:href="#DejaVuSans-61" x="693.822266"/>
      <use xlink:href="#DejaVuSans-6c" x="755.101562"/>
      <use xlink:href="#DejaVuSans-69" x="782.884766"/>
      <use xlink:href="#DejaVuSans-64" x="810.667969"/>
      <use xlink:href="#DejaVuSans-61" x="874.144531"/>
      <use xlink:href="#DejaVuSans-74" x="935.423828"/>
      <use xlink:href="#DejaVuSans-69" x="974.632812"/>
      <use xlink:href="#DejaVuSans-6f" x="1002.416016"/>
      <use xlink:href="#DejaVuSans-6e" x="1063.597656"/>
      <use xlink:href="#DejaVuSans-20" x="1126.976562"/>
      <use xlink:href="#DejaVuSans-41" x="1158.763672"/>
      <use xlink:href="#DejaVuSans-63" x="1225.421875"/>
      <use xlink:href="#DejaVuSans-63" x="1280.402344"/>
      <use xlink:href="#DejaVuSans-75" x="1335.382812"/>
      <use xlink:href="#DejaVuSans-72" x="1398.761719"/>
      <use xlink:href="#DejaVuSans-61" x="1439.875"/>
      <use xlink:href="#DejaVuSans-63" x="1501.154297"/>
      <use xlink:href="#DejaVuSans-79" x="1556.134766"/>
     </g>
    </g>
   </g>
  </g>
 </g>
 <defs>
  <clipPath id="p2aec56ed5c">
   <rect x="57.6" y="41.472" width="357.12" height="266.112"/>
  </clipPath>
 </defs>
</svg>
