<?xml version="1.0" encoding="utf-8" standalone="no"?>
<!DOCTYPE svg PUBLIC "-//W3C//DTD SVG 1.1//EN"
  "http://www.w3.org/Graphics/SVG/1.1/DTD/svg11.dtd">
<svg xmlns:xlink="http://www.w3.org/1999/xlink" width="460.8pt" height="345.6pt" viewBox="0 0 460.8 345.6" xmlns="http://www.w3.org/2000/svg" version="1.1">
 <metadata>
  <rdf:RDF xmlns:dc="http://purl.org/dc/elements/1.1/" xmlns:cc="http://creativecommons.org/ns#" xmlns:rdf="http://www.w3.org/1999/02/22-rdf-syntax-ns#">
   <cc:Work>
    <dc:type rdf:resource="http://purl.org/dc/dcmitype/StillImage"/>
    <dc:date>2025-08-14T11:45:13.116607</dc:date>
    <dc:format>image/svg+xml</dc:format>
    <dc:creator>
     <cc:Agent>
      <dc:title>Matplotlib v3.9.1, https://matplotlib.org/</dc:title>
     </cc:Agent>
    </dc:creator>
   </cc:Work>
  </rdf:RDF>
 </metadata>
 <defs>
  <style type="text/css">*{stroke-linejoin: round; stroke-linecap: butt}</style>
 </defs>
 <g id="figure_1">
  <g id="patch_1">
   <path d="M 0 345.6 
L 460.8 345.6 
L 460.8 0 
L 0 0 
z
" style="fill: #ffffff"/>
  </g>
  <g id="axes_1">
   <g id="patch_2">
    <path d="M 57.6 307.584 
L 414.72 307.584 
L 414.72 41.472 
L 57.6 41.472 
z
" style="fill: #ffffff"/>
   </g>
   <g id="matplotlib.axis_1">
    <g id="xtick_1">
     <g id="line2d_1">
      <defs>
       <path id="med1c5cca7c" d="M 0 0 
L 0 3.5 
" style="stroke: #000000; stroke-width: 0.8"/>
      </defs>
      <g>
       <use xlink:href="#med1c5cca7c" x="73.832727" y="307.584" style="stroke: #000000; stroke-width: 0.8"/>
      </g>
     </g>
     <g id="text_1">
      <!-- 1 -->
      <g transform="translate(70.651477 322.182437) scale(0.1 -0.1)">
       <defs>
        <path id="DejaVuSans-31" d="M 794 531 
L 1825 531 
L 1825 4091 
L 703 3866 
L 703 4441 
L 1819 4666 
L 2450 4666 
L 2450 531 
L 3481 531 
L 3481 0 
L 794 0 
L 794 531 
z
" transform="scale(0.015625)"/>
       </defs>
       <use xlink:href="#DejaVuSans-31"/>
      </g>
     </g>
    </g>
    <g id="xtick_2">
     <g id="line2d_2">
      <g>
       <use xlink:href="#med1c5cca7c" x="109.664165" y="307.584" style="stroke: #000000; stroke-width: 0.8"/>
      </g>
     </g>
     <g id="text_2">
      <!-- 34 -->
      <g transform="translate(103.301665 322.182437) scale(0.1 -0.1)">
       <defs>
        <path id="DejaVuSans-33" d="M 2597 2516 
Q 3050 2419 3304 2112 
Q 3559 1806 3559 1356 
Q 3559 666 3084 287 
Q 2609 -91 1734 -91 
Q 1441 -91 1130 -33 
Q 819 25 488 141 
L 488 750 
Q 750 597 1062 519 
Q 1375 441 1716 441 
Q 2309 441 2620 675 
Q 2931 909 2931 1356 
Q 2931 1769 2642 2001 
Q 2353 2234 1838 2234 
L 1294 2234 
L 1294 2753 
L 1863 2753 
Q 2328 2753 2575 2939 
Q 2822 3125 2822 3475 
Q 2822 3834 2567 4026 
Q 2313 4219 1838 4219 
Q 1578 4219 1281 4162 
Q 984 4106 628 3988 
L 628 4550 
Q 988 4650 1302 4700 
Q 1616 4750 1894 4750 
Q 2613 4750 3031 4423 
Q 3450 4097 3450 3541 
Q 3450 3153 3228 2886 
Q 3006 2619 2597 2516 
z
" transform="scale(0.015625)"/>
        <path id="DejaVuSans-34" d="M 2419 4116 
L 825 1625 
L 2419 1625 
L 2419 4116 
z
M 2253 4666 
L 3047 4666 
L 3047 1625 
L 3713 1625 
L 3713 1100 
L 3047 1100 
L 3047 0 
L 2419 0 
L 2419 1100 
L 313 1100 
L 313 1709 
L 2253 4666 
z
" transform="scale(0.015625)"/>
       </defs>
       <use xlink:href="#DejaVuSans-33"/>
       <use xlink:href="#DejaVuSans-34" x="63.623047"/>
      </g>
     </g>
    </g>
    <g id="xtick_3">
     <g id="line2d_3">
      <g>
       <use xlink:href="#med1c5cca7c" x="145.495604" y="307.584" style="stroke: #000000; stroke-width: 0.8"/>
      </g>
     </g>
     <g id="text_3">
      <!-- 67 -->
      <g transform="translate(139.133104 322.182437) scale(0.1 -0.1)">
       <defs>
        <path id="DejaVuSans-36" d="M 2113 2584 
Q 1688 2584 1439 2293 
Q 1191 2003 1191 1497 
Q 1191 994 1439 701 
Q 1688 409 2113 409 
Q 2538 409 2786 701 
Q 3034 994 3034 1497 
Q 3034 2003 2786 2293 
Q 2538 2584 2113 2584 
z
M 3366 4563 
L 3366 3988 
Q 3128 4100 2886 4159 
Q 2644 4219 2406 4219 
Q 1781 4219 1451 3797 
Q 1122 3375 1075 2522 
Q 1259 2794 1537 2939 
Q 1816 3084 2150 3084 
Q 2853 3084 3261 2657 
Q 3669 2231 3669 1497 
Q 3669 778 3244 343 
Q 2819 -91 2113 -91 
Q 1303 -91 875 529 
Q 447 1150 447 2328 
Q 447 3434 972 4092 
Q 1497 4750 2381 4750 
Q 2619 4750 2861 4703 
Q 3103 4656 3366 4563 
z
" transform="scale(0.015625)"/>
        <path id="DejaVuSans-37" d="M 525 4666 
L 3525 4666 
L 3525 4397 
L 1831 0 
L 1172 0 
L 2766 4134 
L 525 4134 
L 525 4666 
z
" transform="scale(0.015625)"/>
       </defs>
       <use xlink:href="#DejaVuSans-36"/>
       <use xlink:href="#DejaVuSans-37" x="63.623047"/>
      </g>
     </g>
    </g>
    <g id="xtick_4">
     <g id="line2d_4">
      <g>
       <use xlink:href="#med1c5cca7c" x="181.327042" y="307.584" style="stroke: #000000; stroke-width: 0.8"/>
      </g>
     </g>
     <g id="text_4">
      <!-- 100 -->
      <g transform="translate(171.783292 322.182437) scale(0.1 -0.1)">
       <defs>
        <path id="DejaVuSans-30" d="M 2034 4250 
Q 1547 4250 1301 3770 
Q 1056 3291 1056 2328 
Q 1056 1369 1301 889 
Q 1547 409 2034 409 
Q 2525 409 2770 889 
Q 3016 1369 3016 2328 
Q 3016 3291 2770 3770 
Q 2525 4250 2034 4250 
z
M 2034 4750 
Q 2819 4750 3233 4129 
Q 3647 3509 3647 2328 
Q 3647 1150 3233 529 
Q 2819 -91 2034 -91 
Q 1250 -91 836 529 
Q 422 1150 422 2328 
Q 422 3509 836 4129 
Q 1250 4750 2034 4750 
z
" transform="scale(0.015625)"/>
       </defs>
       <use xlink:href="#DejaVuSans-31"/>
       <use xlink:href="#DejaVuSans-30" x="63.623047"/>
       <use xlink:href="#DejaVuSans-30" x="127.246094"/>
      </g>
     </g>
    </g>
    <g id="xtick_5">
     <g id="line2d_5">
      <g>
       <use xlink:href="#med1c5cca7c" x="217.15848" y="307.584" style="stroke: #000000; stroke-width: 0.8"/>
      </g>
     </g>
     <g id="text_5">
      <!-- 133 -->
      <g transform="translate(207.61473 322.182437) scale(0.1 -0.1)">
       <use xlink:href="#DejaVuSans-31"/>
       <use xlink:href="#DejaVuSans-33" x="63.623047"/>
       <use xlink:href="#DejaVuSans-33" x="127.246094"/>
      </g>
     </g>
    </g>
    <g id="xtick_6">
     <g id="line2d_6">
      <g>
       <use xlink:href="#med1c5cca7c" x="254.075719" y="307.584" style="stroke: #000000; stroke-width: 0.8"/>
      </g>
     </g>
     <g id="text_6">
      <!-- 167 -->
      <g transform="translate(244.531969 322.182437) scale(0.1 -0.1)">
       <use xlink:href="#DejaVuSans-31"/>
       <use xlink:href="#DejaVuSans-36" x="63.623047"/>
       <use xlink:href="#DejaVuSans-37" x="127.246094"/>
      </g>
     </g>
    </g>
    <g id="xtick_7">
     <g id="line2d_7">
      <g>
       <use xlink:href="#med1c5cca7c" x="289.907157" y="307.584" style="stroke: #000000; stroke-width: 0.8"/>
      </g>
     </g>
     <g id="text_7">
      <!-- 200 -->
      <g transform="translate(280.363407 322.182437) scale(0.1 -0.1)">
       <defs>
        <path id="DejaVuSans-32" d="M 1228 531 
L 3431 531 
L 3431 0 
L 469 0 
L 469 531 
Q 828 903 1448 1529 
Q 2069 2156 2228 2338 
Q 2531 2678 2651 2914 
Q 2772 3150 2772 3378 
Q 2772 3750 2511 3984 
Q 2250 4219 1831 4219 
Q 1534 4219 1204 4116 
Q 875 4013 500 3803 
L 500 4441 
Q 881 4594 1212 4672 
Q 1544 4750 1819 4750 
Q 2544 4750 2975 4387 
Q 3406 4025 3406 3419 
Q 3406 3131 3298 2873 
Q 3191 2616 2906 2266 
Q 2828 2175 2409 1742 
Q 1991 1309 1228 531 
z
" transform="scale(0.015625)"/>
       </defs>
       <use xlink:href="#DejaVuSans-32"/>
       <use xlink:href="#DejaVuSans-30" x="63.623047"/>
       <use xlink:href="#DejaVuSans-30" x="127.246094"/>
      </g>
     </g>
    </g>
    <g id="xtick_8">
     <g id="line2d_8">
      <g>
       <use xlink:href="#med1c5cca7c" x="325.738595" y="307.584" style="stroke: #000000; stroke-width: 0.8"/>
      </g>
     </g>
     <g id="text_8">
      <!-- 233 -->
      <g transform="translate(316.194845 322.182437) scale(0.1 -0.1)">
       <use xlink:href="#DejaVuSans-32"/>
       <use xlink:href="#DejaVuSans-33" x="63.623047"/>
       <use xlink:href="#DejaVuSans-33" x="127.246094"/>
      </g>
     </g>
    </g>
    <g id="xtick_9">
     <g id="line2d_9">
      <g>
       <use xlink:href="#med1c5cca7c" x="361.570033" y="307.584" style="stroke: #000000; stroke-width: 0.8"/>
      </g>
     </g>
     <g id="text_9">
      <!-- 266 -->
      <g transform="translate(352.026283 322.182437) scale(0.1 -0.1)">
       <use xlink:href="#DejaVuSans-32"/>
       <use xlink:href="#DejaVuSans-36" x="63.623047"/>
       <use xlink:href="#DejaVuSans-36" x="127.246094"/>
      </g>
     </g>
    </g>
    <g id="xtick_10">
     <g id="line2d_10">
      <g>
       <use xlink:href="#med1c5cca7c" x="398.487273" y="307.584" style="stroke: #000000; stroke-width: 0.8"/>
      </g>
     </g>
     <g id="text_10">
      <!-- 300 -->
      <g transform="translate(388.943523 322.182437) scale(0.1 -0.1)">
       <use xlink:href="#DejaVuSans-33"/>
       <use xlink:href="#DejaVuSans-30" x="63.623047"/>
       <use xlink:href="#DejaVuSans-30" x="127.246094"/>
      </g>
     </g>
    </g>
    <g id="text_11">
     <!-- Epochs -->
     <g transform="translate(218.244375 335.860562) scale(0.1 -0.1)">
      <defs>
       <path id="DejaVuSans-45" d="M 628 4666 
L 3578 4666 
L 3578 4134 
L 1259 4134 
L 1259 2753 
L 3481 2753 
L 3481 2222 
L 1259 2222 
L 1259 531 
L 3634 531 
L 3634 0 
L 628 0 
L 628 4666 
z
" transform="scale(0.015625)"/>
       <path id="DejaVuSans-70" d="M 1159 525 
L 1159 -1331 
L 581 -1331 
L 581 3500 
L 1159 3500 
L 1159 2969 
Q 1341 3281 1617 3432 
Q 1894 3584 2278 3584 
Q 2916 3584 3314 3078 
Q 3713 2572 3713 1747 
Q 3713 922 3314 415 
Q 2916 -91 2278 -91 
Q 1894 -91 1617 61 
Q 1341 213 1159 525 
z
M 3116 1747 
Q 3116 2381 2855 2742 
Q 2594 3103 2138 3103 
Q 1681 3103 1420 2742 
Q 1159 2381 1159 1747 
Q 1159 1113 1420 752 
Q 1681 391 2138 391 
Q 2594 391 2855 752 
Q 3116 1113 3116 1747 
z
" transform="scale(0.015625)"/>
       <path id="DejaVuSans-6f" d="M 1959 3097 
Q 1497 3097 1228 2736 
Q 959 2375 959 1747 
Q 959 1119 1226 758 
Q 1494 397 1959 397 
Q 2419 397 2687 759 
Q 2956 1122 2956 1747 
Q 2956 2369 2687 2733 
Q 2419 3097 1959 3097 
z
M 1959 3584 
Q 2709 3584 3137 3096 
Q 3566 2609 3566 1747 
Q 3566 888 3137 398 
Q 2709 -91 1959 -91 
Q 1206 -91 779 398 
Q 353 888 353 1747 
Q 353 2609 779 3096 
Q 1206 3584 1959 3584 
z
" transform="scale(0.015625)"/>
       <path id="DejaVuSans-63" d="M 3122 3366 
L 3122 2828 
Q 2878 2963 2633 3030 
Q 2388 3097 2138 3097 
Q 1578 3097 1268 2742 
Q 959 2388 959 1747 
Q 959 1106 1268 751 
Q 1578 397 2138 397 
Q 2388 397 2633 464 
Q 2878 531 3122 666 
L 3122 134 
Q 2881 22 2623 -34 
Q 2366 -91 2075 -91 
Q 1284 -91 818 406 
Q 353 903 353 1747 
Q 353 2603 823 3093 
Q 1294 3584 2113 3584 
Q 2378 3584 2631 3529 
Q 2884 3475 3122 3366 
z
" transform="scale(0.015625)"/>
       <path id="DejaVuSans-68" d="M 3513 2113 
L 3513 0 
L 2938 0 
L 2938 2094 
Q 2938 2591 2744 2837 
Q 2550 3084 2163 3084 
Q 1697 3084 1428 2787 
Q 1159 2491 1159 1978 
L 1159 0 
L 581 0 
L 581 4863 
L 1159 4863 
L 1159 2956 
Q 1366 3272 1645 3428 
Q 1925 3584 2291 3584 
Q 2894 3584 3203 3211 
Q 3513 2838 3513 2113 
z
" transform="scale(0.015625)"/>
       <path id="DejaVuSans-73" d="M 2834 3397 
L 2834 2853 
Q 2591 2978 2328 3040 
Q 2066 3103 1784 3103 
Q 1356 3103 1142 2972 
Q 928 2841 928 2578 
Q 928 2378 1081 2264 
Q 1234 2150 1697 2047 
L 1894 2003 
Q 2506 1872 2764 1633 
Q 3022 1394 3022 966 
Q 3022 478 2636 193 
Q 2250 -91 1575 -91 
Q 1294 -91 989 -36 
Q 684 19 347 128 
L 347 722 
Q 666 556 975 473 
Q 1284 391 1588 391 
Q 1994 391 2212 530 
Q 2431 669 2431 922 
Q 2431 1156 2273 1281 
Q 2116 1406 1581 1522 
L 1381 1569 
Q 847 1681 609 1914 
Q 372 2147 372 2553 
Q 372 3047 722 3315 
Q 1072 3584 1716 3584 
Q 2034 3584 2315 3537 
Q 2597 3491 2834 3397 
z
" transform="scale(0.015625)"/>
      </defs>
      <use xlink:href="#DejaVuSans-45"/>
      <use xlink:href="#DejaVuSans-70" x="63.183594"/>
      <use xlink:href="#DejaVuSans-6f" x="126.660156"/>
      <use xlink:href="#DejaVuSans-63" x="187.841797"/>
      <use xlink:href="#DejaVuSans-68" x="242.822266"/>
      <use xlink:href="#DejaVuSans-73" x="306.201172"/>
     </g>
    </g>
   </g>
   <g id="matplotlib.axis_2">
    <g id="ytick_1">
     <g id="line2d_11">
      <defs>
       <path id="m31a85a564c" d="M 0 0 
L -3.5 0 
" style="stroke: #000000; stroke-width: 0.8"/>
      </defs>
      <g>
       <use xlink:href="#m31a85a564c" x="57.6" y="257.408923" style="stroke: #000000; stroke-width: 0.8"/>
      </g>
     </g>
     <g id="text_12">
      <!-- 20 -->
      <g transform="translate(37.875 261.208142) scale(0.1 -0.1)">
       <use xlink:href="#DejaVuSans-32"/>
       <use xlink:href="#DejaVuSans-30" x="63.623047"/>
      </g>
     </g>
    </g>
    <g id="ytick_2">
     <g id="line2d_12">
      <g>
       <use xlink:href="#m31a85a564c" x="57.6" y="206.42575" style="stroke: #000000; stroke-width: 0.8"/>
      </g>
     </g>
     <g id="text_13">
      <!-- 40 -->
      <g transform="translate(37.875 210.224968) scale(0.1 -0.1)">
       <use xlink:href="#DejaVuSans-34"/>
       <use xlink:href="#DejaVuSans-30" x="63.623047"/>
      </g>
     </g>
    </g>
    <g id="ytick_3">
     <g id="line2d_13">
      <g>
       <use xlink:href="#m31a85a564c" x="57.6" y="155.442577" style="stroke: #000000; stroke-width: 0.8"/>
      </g>
     </g>
     <g id="text_14">
      <!-- 60 -->
      <g transform="translate(37.875 159.241795) scale(0.1 -0.1)">
       <use xlink:href="#DejaVuSans-36"/>
       <use xlink:href="#DejaVuSans-30" x="63.623047"/>
      </g>
     </g>
    </g>
    <g id="ytick_4">
     <g id="line2d_14">
      <g>
       <use xlink:href="#m31a85a564c" x="57.6" y="104.459403" style="stroke: #000000; stroke-width: 0.8"/>
      </g>
     </g>
     <g id="text_15">
      <!-- 80 -->
      <g transform="translate(37.875 108.258622) scale(0.1 -0.1)">
       <defs>
        <path id="DejaVuSans-38" d="M 2034 2216 
Q 1584 2216 1326 1975 
Q 1069 1734 1069 1313 
Q 1069 891 1326 650 
Q 1584 409 2034 409 
Q 2484 409 2743 651 
Q 3003 894 3003 1313 
Q 3003 1734 2745 1975 
Q 2488 2216 2034 2216 
z
M 1403 2484 
Q 997 2584 770 2862 
Q 544 3141 544 3541 
Q 544 4100 942 4425 
Q 1341 4750 2034 4750 
Q 2731 4750 3128 4425 
Q 3525 4100 3525 3541 
Q 3525 3141 3298 2862 
Q 3072 2584 2669 2484 
Q 3125 2378 3379 2068 
Q 3634 1759 3634 1313 
Q 3634 634 3220 271 
Q 2806 -91 2034 -91 
Q 1263 -91 848 271 
Q 434 634 434 1313 
Q 434 1759 690 2068 
Q 947 2378 1403 2484 
z
M 1172 3481 
Q 1172 3119 1398 2916 
Q 1625 2713 2034 2713 
Q 2441 2713 2670 2916 
Q 2900 3119 2900 3481 
Q 2900 3844 2670 4047 
Q 2441 4250 2034 4250 
Q 1625 4250 1398 4047 
Q 1172 3844 1172 3481 
z
" transform="scale(0.015625)"/>
       </defs>
       <use xlink:href="#DejaVuSans-38"/>
       <use xlink:href="#DejaVuSans-30" x="63.623047"/>
      </g>
     </g>
    </g>
    <g id="ytick_5">
     <g id="line2d_15">
      <g>
       <use xlink:href="#m31a85a564c" x="57.6" y="53.47623" style="stroke: #000000; stroke-width: 0.8"/>
      </g>
     </g>
     <g id="text_16">
      <!-- 100 -->
      <g transform="translate(31.5125 57.275449) scale(0.1 -0.1)">
       <use xlink:href="#DejaVuSans-31"/>
       <use xlink:href="#DejaVuSans-30" x="63.623047"/>
       <use xlink:href="#DejaVuSans-30" x="127.246094"/>
      </g>
     </g>
    </g>
    <g id="text_17">
     <!-- Accuracy -->
     <g transform="translate(25.432812 197.356125) rotate(-90) scale(0.1 -0.1)">
      <defs>
       <path id="DejaVuSans-41" d="M 2188 4044 
L 1331 1722 
L 3047 1722 
L 2188 4044 
z
M 1831 4666 
L 2547 4666 
L 4325 0 
L 3669 0 
L 3244 1197 
L 1141 1197 
L 716 0 
L 50 0 
L 1831 4666 
z
" transform="scale(0.015625)"/>
       <path id="DejaVuSans-75" d="M 544 1381 
L 544 3500 
L 1119 3500 
L 1119 1403 
Q 1119 906 1312 657 
Q 1506 409 1894 409 
Q 2359 409 2629 706 
Q 2900 1003 2900 1516 
L 2900 3500 
L 3475 3500 
L 3475 0 
L 2900 0 
L 2900 538 
Q 2691 219 2414 64 
Q 2138 -91 1772 -91 
Q 1169 -91 856 284 
Q 544 659 544 1381 
z
M 1991 3584 
L 1991 3584 
z
" transform="scale(0.015625)"/>
       <path id="DejaVuSans-72" d="M 2631 2963 
Q 2534 3019 2420 3045 
Q 2306 3072 2169 3072 
Q 1681 3072 1420 2755 
Q 1159 2438 1159 1844 
L 1159 0 
L 581 0 
L 581 3500 
L 1159 3500 
L 1159 2956 
Q 1341 3275 1631 3429 
Q 1922 3584 2338 3584 
Q 2397 3584 2469 3576 
Q 2541 3569 2628 3553 
L 2631 2963 
z
" transform="scale(0.015625)"/>
       <path id="DejaVuSans-61" d="M 2194 1759 
Q 1497 1759 1228 1600 
Q 959 1441 959 1056 
Q 959 750 1161 570 
Q 1363 391 1709 391 
Q 2188 391 2477 730 
Q 2766 1069 2766 1631 
L 2766 1759 
L 2194 1759 
z
M 3341 1997 
L 3341 0 
L 2766 0 
L 2766 531 
Q 2569 213 2275 61 
Q 1981 -91 1556 -91 
Q 1019 -91 701 211 
Q 384 513 384 1019 
Q 384 1609 779 1909 
Q 1175 2209 1959 2209 
L 2766 2209 
L 2766 2266 
Q 2766 2663 2505 2880 
Q 2244 3097 1772 3097 
Q 1472 3097 1187 3025 
Q 903 2953 641 2809 
L 641 3341 
Q 956 3463 1253 3523 
Q 1550 3584 1831 3584 
Q 2591 3584 2966 3190 
Q 3341 2797 3341 1997 
z
" transform="scale(0.015625)"/>
       <path id="DejaVuSans-79" d="M 2059 -325 
Q 1816 -950 1584 -1140 
Q 1353 -1331 966 -1331 
L 506 -1331 
L 506 -850 
L 844 -850 
Q 1081 -850 1212 -737 
Q 1344 -625 1503 -206 
L 1606 56 
L 191 3500 
L 800 3500 
L 1894 763 
L 2988 3500 
L 3597 3500 
L 2059 -325 
z
" transform="scale(0.015625)"/>
      </defs>
      <use xlink:href="#DejaVuSans-41"/>
      <use xlink:href="#DejaVuSans-63" x="66.658203"/>
      <use xlink:href="#DejaVuSans-63" x="121.638672"/>
      <use xlink:href="#DejaVuSans-75" x="176.619141"/>
      <use xlink:href="#DejaVuSans-72" x="239.998047"/>
      <use xlink:href="#DejaVuSans-61" x="281.111328"/>
      <use xlink:href="#DejaVuSans-63" x="342.390625"/>
      <use xlink:href="#DejaVuSans-79" x="397.371094"/>
     </g>
    </g>
   </g>
   <g id="line2d_16">
    <path d="M 73.832727 281.921633 
L 76.00433 226.217418 
L 77.090131 207.720722 
L 78.175932 193.317976 
L 79.261733 180.867885 
L 81.433335 162.845333 
L 83.604938 149.03909 
L 85.77654 136.216822 
L 86.862341 130.256889 
L 87.948142 126.127252 
L 89.033943 120.422235 
L 90.119745 115.58903 
L 92.291347 109.068282 
L 93.377148 106.896399 
L 94.462949 106.340683 
L 95.54875 139.755054 
L 96.634552 138.108298 
L 97.720353 133.861399 
L 98.806154 130.766721 
L 99.891955 126.34648 
L 100.977756 123.491422 
L 103.149358 115.701193 
L 104.23516 112.876725 
L 106.406762 105.968505 
L 107.492563 103.205217 
L 109.664165 96.664076 
L 110.749967 94.28826 
L 114.00737 84.41282 
L 116.178972 79.401174 
L 117.264773 75.653911 
L 120.522177 69.357489 
L 122.693779 64.340744 
L 124.865382 61.786488 
L 125.951183 59.99188 
L 127.036984 58.941626 
L 129.208586 57.26428 
L 130.294387 56.484238 
L 131.380189 56.137552 
L 132.46599 55.648113 
L 133.551791 55.551245 
L 135.723393 54.903759 
L 137.894995 54.796694 
L 138.980797 82.363296 
L 140.066598 85.906627 
L 141.152399 84.693227 
L 142.2382 83.841808 
L 144.409802 81.476189 
L 145.495604 79.814138 
L 146.581405 79.803941 
L 147.667206 78.182676 
L 148.753007 77.004965 
L 149.838808 75.266438 
L 150.924609 74.537379 
L 152.01041 73.543207 
L 153.096212 72.982392 
L 154.182013 71.891352 
L 155.267814 71.264259 
L 156.353615 70.122236 
L 158.525217 68.919033 
L 159.611019 67.715831 
L 160.69682 67.726027 
L 161.782621 66.14045 
L 162.868422 65.844748 
L 163.954223 64.707823 
L 165.040024 64.157205 
L 166.125825 63.948174 
L 167.211627 62.71948 
L 168.297428 62.337106 
L 170.46903 61.179788 
L 171.554831 60.955462 
L 172.640632 60.068355 
L 173.726434 59.568719 
L 175.898036 59.171051 
L 176.983837 58.452188 
L 181.327042 56.953283 
L 182.412843 56.728957 
L 183.498644 56.17324 
L 188.92765 54.985332 
L 190.013451 55.036315 
L 191.099252 54.766105 
L 198.69986 54.042144 
L 203.043065 53.761736 
L 206.300468 53.639376 
L 208.472071 53.65977 
L 213.901076 53.583295 
L 218.244281 53.578197 
L 224.759088 53.568 
L 225.844889 64.284663 
L 226.93069 67.914665 
L 228.016491 67.522094 
L 230.188094 67.246785 
L 231.273895 66.461644 
L 232.359696 67.078541 
L 233.445497 66.018091 
L 234.531298 66.099664 
L 235.617099 66.563611 
L 236.702901 65.661209 
L 237.788702 65.329818 
L 238.874503 65.523554 
L 239.960304 64.916854 
L 241.046105 64.84038 
L 242.131906 64.646644 
L 243.217708 64.610955 
L 244.303509 63.881896 
L 247.560912 63.734045 
L 248.646713 62.974395 
L 250.818316 62.806151 
L 251.904117 62.846938 
L 254.075719 62.056698 
L 255.16152 62.286123 
L 256.247321 61.954732 
L 258.418924 61.613145 
L 259.504725 61.159394 
L 261.676327 61.174689 
L 262.762128 60.904479 
L 263.847929 60.833102 
L 264.933731 60.573088 
L 266.019532 60.02247 
L 267.105333 60.56799 
L 269.276935 59.691079 
L 271.448538 59.726767 
L 273.62014 59.339295 
L 275.791742 58.80907 
L 277.963344 58.834562 
L 279.049146 58.503171 
L 281.220748 58.457286 
L 282.306549 58.023929 
L 283.39235 58.034126 
L 284.478151 58.171781 
L 285.563953 57.794505 
L 286.649754 57.651752 
L 287.735555 57.361148 
L 288.821356 57.519196 
L 295.336163 56.489336 
L 296.421964 56.616794 
L 297.507765 56.351681 
L 298.593566 56.443451 
L 299.679368 56.300698 
L 300.765169 56.035586 
L 301.85097 56.035586 
L 304.022572 55.714392 
L 305.108373 55.775571 
L 307.279976 55.479869 
L 308.365777 55.347313 
L 310.537379 55.454377 
L 312.708981 55.102594 
L 323.566993 54.383731 
L 325.738595 54.409222 
L 328.995999 54.108422 
L 330.0818 54.184896 
L 335.510806 53.945275 
L 338.768209 53.884096 
L 339.85401 53.904489 
L 342.025613 53.771933 
L 348.54042 53.664868 
L 350.712022 53.639376 
L 352.883624 53.639376 
L 372.428045 53.593492 
L 374.599647 53.65977 
L 383.286057 53.705655 
L 386.54346 53.69036 
L 394.144068 53.680163 
L 396.31567 53.69036 
L 398.487273 53.705655 
L 398.487273 53.705655 
" clip-path="url(#p5a65d3c8d5)" style="fill: none; stroke: #1f77b4; stroke-width: 1.5; stroke-linecap: square"/>
   </g>
   <g id="line2d_17">
    <path d="M 73.832727 294.065824 
L 76.00433 223.93847 
L 78.175932 204.513881 
L 79.261733 204.131507 
L 80.347534 182.97349 
L 81.433335 188.071807 
L 82.519137 168.392303 
L 83.604938 166.811824 
L 84.690739 159.342789 
L 86.862341 151.389414 
L 87.948142 151.389414 
L 89.033943 145.551841 
L 90.119745 143.28309 
L 91.205546 142.518342 
L 92.291347 140.784914 
L 93.377148 141.167288 
L 94.462949 139.510335 
L 95.54875 174.969132 
L 96.634552 171.859158 
L 97.720353 158.781974 
L 98.806154 152.358095 
L 99.891955 154.907253 
L 100.977756 148.355916 
L 102.063557 148.636323 
L 103.149358 149.859919 
L 104.23516 142.875224 
L 105.320961 146.622488 
L 106.406762 141.03983 
L 107.492563 137.802399 
L 108.578364 135.100291 
L 109.664165 136.37487 
L 110.749967 134.972833 
L 111.835768 138.771079 
L 112.921569 134.13161 
L 114.00737 131.811876 
L 115.093171 132.474657 
L 116.178972 129.517633 
L 117.264773 129.95099 
L 118.350575 129.772549 
L 119.436376 131.149095 
L 120.522177 129.084276 
L 121.607978 127.937155 
L 122.693779 127.682239 
L 123.77958 127.121424 
L 124.865382 124.878164 
L 127.036984 124.903656 
L 128.122785 126.331185 
L 129.208586 125.005622 
L 130.294387 122.991787 
L 131.380189 123.705551 
L 132.46599 123.731043 
L 133.551791 124.215383 
L 134.637592 123.144736 
L 135.723393 124.036942 
L 136.809194 123.374161 
L 137.894995 123.552602 
L 138.980797 143.155632 
L 140.066598 136.349378 
L 141.152399 140.504507 
L 142.2382 134.921849 
L 143.324001 138.873045 
L 144.409802 134.539476 
L 145.495604 137.34355 
L 146.581405 137.82789 
L 147.667206 137.190601 
L 149.838808 134.412018 
L 150.924609 135.89053 
L 152.01041 138.643621 
L 153.096212 133.621778 
L 154.182013 133.570795 
L 155.267814 134.029644 
L 156.353615 132.449165 
L 157.439416 132.831539 
L 158.525217 133.825711 
L 159.611019 137.318059 
L 160.69682 132.219741 
L 161.782621 133.723745 
L 162.868422 130.817704 
L 163.954223 132.347199 
L 165.040024 130.868687 
L 166.125825 132.449165 
L 167.211627 132.0413 
L 168.297428 129.3137 
L 169.383229 135.023816 
L 170.46903 129.823532 
L 171.554831 131.658926 
L 172.640632 133.264896 
L 173.726434 131.021637 
L 174.812235 129.670583 
L 175.898036 128.523461 
L 176.983837 129.645091 
L 178.069638 131.07262 
L 179.155439 130.613771 
L 180.24124 128.880343 
L 181.327042 129.568616 
L 182.412843 128.064613 
L 183.498644 127.962646 
L 184.584445 128.523461 
L 185.670246 127.37634 
L 186.756047 129.262717 
L 187.841849 127.86068 
L 188.92765 125.668403 
L 190.013451 125.668403 
L 191.099252 127.682239 
L 192.185053 127.401831 
L 193.270854 125.235046 
L 194.356656 126.917491 
L 195.442457 126.458643 
L 196.528258 125.005622 
L 197.614059 124.750706 
L 198.69986 125.974303 
L 199.785661 126.331185 
L 200.871462 123.221211 
L 201.957264 124.444807 
L 203.043065 123.323178 
L 204.128866 123.807518 
L 205.214667 122.583921 
L 206.300468 122.55843 
L 207.386269 121.538766 
L 208.472071 122.507447 
L 209.557872 121.258359 
L 210.643673 122.481955 
L 211.729474 122.278022 
L 212.815275 121.615241 
L 214.986877 122.329006 
L 216.072679 121.130901 
L 217.15848 121.411309 
L 219.330082 120.901477 
L 220.415883 121.717208 
L 221.501684 121.717208 
L 222.587486 120.723036 
L 223.673287 121.793682 
L 224.759088 121.232867 
L 225.844889 138.363214 
L 226.93069 136.502328 
L 228.016491 138.006331 
L 229.102292 136.757244 
L 230.188094 136.425853 
L 231.273895 134.743408 
L 232.359696 134.947341 
L 233.445497 144.226278 
L 234.531298 133.774728 
L 235.617099 137.98084 
L 236.702901 136.553311 
L 237.788702 137.063143 
L 238.874503 139.58681 
L 239.960304 133.239405 
L 241.046105 135.686597 
L 242.131906 135.584631 
L 243.217708 136.068971 
L 244.303509 133.16293 
L 245.38931 132.321708 
L 246.475111 136.476836 
L 247.560912 135.380698 
L 248.646713 133.137438 
L 249.732514 135.916021 
L 250.818316 134.157102 
L 251.904117 132.67859 
L 252.989918 134.564967 
L 254.075719 136.043479 
L 255.16152 131.429502 
L 256.247321 132.602115 
L 257.333123 132.19425 
L 258.418924 132.500149 
L 259.504725 134.794391 
L 260.590526 132.474657 
L 261.676327 137.878873 
L 262.762128 131.709909 
L 263.847929 130.91967 
L 264.933731 132.576623 
L 266.019532 131.07262 
L 267.105333 133.366863 
L 268.191134 130.91967 
L 269.276935 135.559139 
L 270.362736 137.012159 
L 271.448538 133.570795 
L 273.62014 130.409839 
L 274.705941 131.098111 
L 275.791742 132.627607 
L 276.877543 131.964825 
L 277.963344 130.613771 
L 279.049146 130.690246 
L 280.134947 133.290388 
L 281.220748 133.519812 
L 282.306549 131.480485 
L 283.39235 131.225569 
L 284.478151 131.607943 
L 285.563953 132.398182 
L 286.649754 130.843196 
L 287.735555 128.396003 
L 288.821356 130.129431 
L 289.907157 132.117775 
L 290.992958 129.594108 
L 292.07876 131.174586 
L 293.164561 129.619599 
L 294.250362 129.237226 
L 295.336163 133.927678 
L 296.421964 130.333364 
L 297.507765 129.160751 
L 298.593566 128.192071 
L 299.679368 130.537297 
L 300.765169 130.358855 
L 301.85097 130.91967 
L 302.936771 131.990317 
L 304.022572 129.849024 
L 305.108373 130.129431 
L 306.194175 129.619599 
L 307.279976 128.34502 
L 308.365777 129.747057 
L 309.451578 128.82936 
L 310.537379 129.390175 
L 311.62318 129.390175 
L 312.708981 128.370512 
L 313.794783 129.645091 
L 314.880584 129.415667 
L 315.966385 128.956818 
L 317.052186 129.568616 
L 319.223788 127.937155 
L 320.30959 128.650919 
L 321.395391 126.917491 
L 322.481192 127.044949 
L 323.566993 128.039121 
L 324.652794 126.611592 
L 325.738595 126.942983 
L 326.824396 127.733222 
L 327.910198 127.478306 
L 328.995999 126.713559 
L 330.0818 126.152744 
L 331.167601 127.197899 
L 332.253402 126.509626 
L 333.339203 126.841016 
L 334.425005 125.082097 
L 335.510806 125.311521 
L 336.596607 126.484134 
L 337.682408 124.572265 
L 338.768209 125.235046 
L 339.85401 127.172407 
L 340.939811 124.878164 
L 342.025613 124.878164 
L 343.111414 124.546774 
L 344.197215 123.705551 
L 345.283016 123.603585 
L 346.368817 122.736871 
L 347.454618 123.654568 
L 348.54042 124.725215 
L 349.626221 123.068262 
L 350.712022 124.368333 
L 351.797823 123.04277 
L 353.969425 124.64874 
L 355.055227 122.150565 
L 356.141028 121.640733 
L 357.226829 122.711379 
L 358.31263 121.385817 
L 360.484232 121.232867 
L 361.570033 121.946632 
L 362.655835 121.462292 
L 363.741636 121.640733 
L 364.827437 121.946632 
L 365.913238 120.060254 
L 366.999039 121.105409 
L 368.08484 120.595578 
L 369.170642 121.895649 
L 370.256443 121.207376 
L 371.342244 121.487783 
L 372.428045 124.215383 
L 373.513846 123.425144 
L 374.599647 123.425144 
L 375.685448 123.093753 
L 376.77125 124.189891 
L 377.857051 123.501619 
L 378.942852 125.005622 
L 380.028653 125.311521 
L 381.114454 125.260538 
L 383.286057 123.19572 
L 384.371858 124.266366 
L 385.457659 123.985959 
L 386.54346 123.934976 
L 387.629261 125.362504 
L 388.715062 124.725215 
L 389.800863 125.999794 
L 390.886665 124.521282 
L 391.972466 124.444807 
L 393.058267 125.031114 
L 394.144068 124.444807 
L 395.229869 124.699723 
L 397.401472 124.01145 
L 398.487273 125.642912 
L 398.487273 125.642912 
" clip-path="url(#p5a65d3c8d5)" style="fill: none; stroke: #ff7f0e; stroke-width: 1.5; stroke-linecap: square"/>
   </g>
   <g id="line2d_18">
    <path d="M 73.832727 295.488 
L 74.918528 266.990191 
L 76.00433 246.755224 
L 77.090131 243.116045 
L 78.175932 235.697229 
L 79.261733 239.93393 
L 80.347534 221.21087 
L 81.433335 228.823168 
L 82.519137 217.308108 
L 83.604938 215.62031 
L 84.690739 210.961468 
L 85.77654 205.757615 
L 86.862341 206.126988 
L 87.948142 205.300551 
L 89.033943 204.685184 
L 90.119745 199.586867 
L 91.205546 199.077035 
L 93.377148 197.459849 
L 94.462949 197.846556 
L 95.54875 224.885227 
L 96.634552 223.51378 
L 98.806154 202.839338 
L 99.891955 211.190127 
L 100.977756 203.085587 
L 102.063557 202.80416 
L 103.149358 206.847635 
L 104.23516 201.133951 
L 105.320961 206.953171 
L 106.406762 199.569278 
L 108.578364 196.580644 
L 109.664165 198.110139 
L 110.749967 195.350165 
L 111.835768 198.409156 
L 112.921569 195.350165 
L 114.00737 189.935242 
L 115.093171 192.18564 
L 116.178972 189.566124 
L 117.264773 189.214595 
L 118.350575 189.900064 
L 119.436376 193.293249 
L 120.522177 191.62304 
L 121.607978 188.687174 
L 122.693779 186.92902 
L 123.77958 187.860737 
L 124.865382 187.016966 
L 125.951183 187.122501 
L 127.036984 186.823484 
L 128.122785 186.753383 
L 129.208586 187.210447 
L 130.294387 185.979713 
L 131.380189 186.718204 
L 132.46599 186.788561 
L 133.551791 185.083174 
L 134.637592 186.243551 
L 135.723393 188.01904 
L 136.809194 185.118352 
L 137.894995 184.94246 
L 138.980797 201.081184 
L 140.066598 193.855848 
L 141.152399 200.712066 
L 142.2382 197.125654 
L 143.324001 196.563055 
L 144.409802 193.873438 
L 145.495604 199.305695 
L 147.667206 194.998381 
L 148.753007 193.486475 
L 149.838808 196.053223 
L 150.924609 195.930354 
L 152.01041 191.95698 
L 153.096212 195.420522 
L 154.182013 192.853774 
L 155.267814 192.466812 
L 156.353615 190.867215 
L 157.439416 196.018045 
L 158.525217 191.570273 
L 159.611019 197.653075 
L 160.69682 193.855848 
L 161.782621 193.27566 
L 162.868422 192.062515 
L 163.954223 194.558906 
L 165.040024 191.218744 
L 166.125825 192.044926 
L 167.211627 195.051149 
L 168.297428 190.392307 
L 169.383229 197.565129 
L 170.46903 188.405747 
L 171.554831 187.860737 
L 172.640632 188.528872 
L 173.726434 191.236333 
L 174.812235 188.880401 
L 175.898036 188.493693 
L 176.983837 189.407821 
L 178.069638 191.798932 
L 179.155439 189.829962 
L 180.24124 190.691323 
L 181.327042 191.07803 
L 182.412843 188.423336 
L 183.498644 190.040778 
L 184.584445 188.177343 
L 185.670246 187.087322 
L 186.756047 190.550609 
L 187.841849 191.007673 
L 188.92765 187.421262 
L 190.013451 187.614743 
L 191.099252 186.401599 
L 192.185053 188.862811 
L 193.270854 186.190783 
L 194.356656 190.53302 
L 195.442457 185.751308 
L 196.528258 186.138016 
L 197.614059 187.280803 
L 198.69986 187.649922 
L 199.785661 184.415039 
L 200.871462 184.643699 
L 201.957264 184.62611 
L 203.043065 184.977639 
L 204.128866 184.06351 
L 205.214667 184.116278 
L 206.300468 184.415039 
L 207.386269 183.395376 
L 208.472071 183.430554 
L 209.557872 181.426406 
L 210.643673 183.131793 
L 211.729474 182.42848 
L 212.815275 181.057288 
L 213.901076 181.936237 
L 214.986877 181.918648 
L 216.072679 181.356049 
L 217.15848 182.076951 
L 218.244281 181.391227 
L 219.330082 182.832777 
L 221.501684 182.164897 
L 222.587486 181.426406 
L 223.673287 182.358123 
L 224.759088 181.655065 
L 225.844889 196.211526 
L 226.93069 196.633412 
L 228.016491 196.176348 
L 229.102292 196.33465 
L 230.188094 195.560981 
L 231.273895 195.191862 
L 232.359696 195.666516 
L 233.445497 203.437116 
L 234.531298 190.761609 
L 235.617099 194.664459 
L 236.702901 196.668625 
L 237.788702 193.011901 
L 238.874503 197.196037 
L 239.960304 193.627215 
L 241.046105 198.409085 
L 242.131906 198.321183 
L 243.217708 195.613801 
L 244.303509 195.596221 
L 245.38931 193.644796 
L 246.475111 197.723449 
L 247.560912 195.033648 
L 248.646713 192.994321 
L 249.732514 197.266359 
L 250.818316 197.846512 
L 252.989918 192.449328 
L 254.075719 194.664459 
L 255.16152 191.535147 
L 256.247321 189.320016 
L 257.333123 192.484489 
L 258.418924 192.695454 
L 259.504725 196.791688 
L 260.590526 194.172208 
L 261.676327 197.899254 
L 262.762128 192.818517 
L 263.847929 191.939496 
L 264.933731 191.886755 
L 266.019532 191.060476 
L 267.105333 191.886755 
L 268.191134 191.271441 
L 269.276935 196.791688 
L 270.362736 195.57864 
L 271.448538 197.864093 
L 273.62014 192.132881 
L 274.705941 191.429665 
L 275.791742 191.464825 
L 276.877543 192.255944 
L 277.963344 193.803019 
L 279.049146 189.425499 
L 280.134947 194.172208 
L 281.220748 194.330431 
L 282.306549 190.445162 
L 283.39235 191.64063 
L 284.478151 190.497903 
L 285.563953 190.462742 
L 286.649754 189.601303 
L 288.821356 190.33968 
L 289.907157 193.41625 
L 290.992958 186.243445 
L 292.07876 191.271441 
L 293.164561 191.165959 
L 294.250362 188.265192 
L 295.336163 197.688289 
L 296.421964 188.862926 
L 297.507765 189.355177 
L 298.593566 190.35726 
L 299.679368 189.900169 
L 300.765169 189.777107 
L 301.85097 192.677873 
L 302.936771 191.23628 
L 304.022572 187.913584 
L 305.108373 187.544395 
L 306.194175 186.331347 
L 307.279976 188.792604 
L 308.365777 189.355177 
L 310.537379 189.847428 
L 311.62318 188.159709 
L 312.708981 187.227948 
L 313.794783 189.601303 
L 314.880584 190.445162 
L 315.966385 186.823599 
L 317.052186 189.302436 
L 318.137987 189.636463 
L 319.223788 189.548561 
L 320.30959 189.689205 
L 321.395391 187.456493 
L 322.481192 187.526815 
L 323.566993 190.146295 
L 324.652794 186.700536 
L 325.738595 185.786355 
L 326.824396 187.509234 
L 327.910198 188.317933 
L 328.995999 187.087305 
L 330.0818 186.085222 
L 331.167601 190.480323 
L 332.253402 187.016983 
L 333.339203 188.669541 
L 334.425005 186.243445 
L 335.510806 187.438913 
L 336.596607 188.950828 
L 337.682408 186.718116 
L 338.768209 185.57539 
L 339.85401 188.440996 
L 340.939811 186.313767 
L 342.025613 187.649878 
L 343.111414 185.839096 
L 344.197215 184.626048 
L 345.283016 184.590887 
L 346.368817 185.012817 
L 347.454618 184.924915 
L 348.54042 185.522649 
L 349.626221 185.452327 
L 350.712022 185.99732 
L 351.797823 183.043812 
L 352.883624 184.590887 
L 353.969425 183.957993 
L 355.055227 182.358176 
L 356.141028 183.623965 
L 357.226829 184.362342 
L 358.31263 180.899002 
L 359.398431 181.408834 
L 360.484232 181.742862 
L 361.570033 183.184455 
L 362.655835 181.373673 
L 363.741636 182.129631 
L 364.827437 181.320932 
L 365.913238 180.758359 
L 366.999039 183.254777 
L 368.08484 179.281605 
L 369.170642 181.865925 
L 370.256443 182.674623 
L 371.342244 182.129631 
L 372.428045 184.415083 
L 373.513846 183.413 
L 375.685448 184.362342 
L 376.77125 184.608468 
L 377.857051 184.186538 
L 378.942852 188.230031 
L 381.114454 183.782189 
L 382.200255 182.903168 
L 383.286057 184.309601 
L 384.371858 185.487488 
L 385.457659 185.15346 
L 386.54346 182.99107 
L 387.629261 185.962159 
L 388.715062 184.69637 
L 389.800863 187.526815 
L 390.886665 185.083139 
L 391.972466 185.540229 
L 393.058267 187.685039 
L 394.144068 182.815266 
L 395.229869 186.542312 
L 396.31567 184.520566 
L 397.401472 183.729447 
L 398.487273 184.520566 
L 398.487273 184.520566 
" clip-path="url(#p5a65d3c8d5)" style="fill: none; stroke: #2ca02c; stroke-width: 1.5; stroke-linecap: square"/>
   </g>
   <g id="line2d_19">
    <path d="M 368.08484 120.825002 
L 369.170642 121.054426 
L 370.256443 121.079918 
L 371.342244 120.748527 
L 372.428045 122.609413 
L 373.513846 122.099581 
L 374.599647 121.385817 
L 375.685448 123.603585 
L 376.77125 123.501619 
L 377.857051 121.972123 
L 378.942852 124.036942 
L 380.028653 124.215383 
L 381.114454 124.546774 
L 382.200255 123.323178 
L 383.286057 123.272194 
L 384.371858 123.629077 
L 385.457659 124.266366 
L 386.54346 126.73905 
L 387.629261 125.719387 
L 388.715062 126.127252 
L 389.800863 128.701902 
L 390.886665 127.580272 
L 391.972466 127.019458 
L 393.058267 126.866508 
L 394.144068 127.733222 
L 395.229869 124.929147 
L 396.31567 127.37634 
L 397.401472 130.792212 
L 398.487273 128.880343 
L 398.487273 128.880343 
" clip-path="url(#p5a65d3c8d5)" style="fill: none; stroke: #d62728; stroke-width: 1.5; stroke-linecap: square"/>
   </g>
   <g id="line2d_20">
    <path d="M 368.08484 179.404668 
L 369.170642 182.217533 
L 370.256443 181.426414 
L 371.342244 181.285771 
L 372.428045 182.621882 
L 373.513846 182.727364 
L 374.599647 183.448161 
L 375.685448 183.149294 
L 376.77125 184.063475 
L 377.857051 181.057226 
L 378.942852 182.410917 
L 380.028653 185.382006 
L 381.114454 182.199952 
L 382.200255 182.252694 
L 383.286057 183.957993 
L 384.371858 183.325098 
L 385.457659 181.707701 
L 386.54346 185.821516 
L 387.629261 185.768774 
L 388.715062 186.665375 
L 389.800863 186.87634 
L 390.886665 186.085222 
L 391.972466 186.841179 
L 393.058267 186.43683 
L 394.144068 186.770857 
L 395.229869 183.711867 
L 396.31567 185.733614 
L 397.401472 186.735697 
L 398.487273 188.581639 
L 398.487273 188.581639 
" clip-path="url(#p5a65d3c8d5)" style="fill: none; stroke: #9467bd; stroke-width: 1.5; stroke-linecap: square"/>
   </g>
   <g id="patch_3">
    <path d="M 57.6 307.584 
L 57.6 41.472 
" style="fill: none; stroke: #000000; stroke-width: 0.8; stroke-linejoin: miter; stroke-linecap: square"/>
   </g>
   <g id="patch_4">
    <path d="M 414.72 307.584 
L 414.72 41.472 
" style="fill: none; stroke: #000000; stroke-width: 0.8; stroke-linejoin: miter; stroke-linecap: square"/>
   </g>
   <g id="patch_5">
    <path d="M 57.6 307.584 
L 414.72 307.584 
" style="fill: none; stroke: #000000; stroke-width: 0.8; stroke-linejoin: miter; stroke-linecap: square"/>
   </g>
   <g id="patch_6">
    <path d="M 57.6 41.472 
L 414.72 41.472 
" style="fill: none; stroke: #000000; stroke-width: 0.8; stroke-linejoin: miter; stroke-linecap: square"/>
   </g>
   <g id="text_18">
    <!-- Learning Curves -->
    <g transform="translate(187.37625 35.472) scale(0.12 -0.12)">
     <defs>
      <path id="DejaVuSans-4c" d="M 628 4666 
L 1259 4666 
L 1259 531 
L 3531 531 
L 3531 0 
L 628 0 
L 628 4666 
z
" transform="scale(0.015625)"/>
      <path id="DejaVuSans-65" d="M 3597 1894 
L 3597 1613 
L 953 1613 
Q 991 1019 1311 708 
Q 1631 397 2203 397 
Q 2534 397 2845 478 
Q 3156 559 3463 722 
L 3463 178 
Q 3153 47 2828 -22 
Q 2503 -91 2169 -91 
Q 1331 -91 842 396 
Q 353 884 353 1716 
Q 353 2575 817 3079 
Q 1281 3584 2069 3584 
Q 2775 3584 3186 3129 
Q 3597 2675 3597 1894 
z
M 3022 2063 
Q 3016 2534 2758 2815 
Q 2500 3097 2075 3097 
Q 1594 3097 1305 2825 
Q 1016 2553 972 2059 
L 3022 2063 
z
" transform="scale(0.015625)"/>
      <path id="DejaVuSans-6e" d="M 3513 2113 
L 3513 0 
L 2938 0 
L 2938 2094 
Q 2938 2591 2744 2837 
Q 2550 3084 2163 3084 
Q 1697 3084 1428 2787 
Q 1159 2491 1159 1978 
L 1159 0 
L 581 0 
L 581 3500 
L 1159 3500 
L 1159 2956 
Q 1366 3272 1645 3428 
Q 1925 3584 2291 3584 
Q 2894 3584 3203 3211 
Q 3513 2838 3513 2113 
z
" transform="scale(0.015625)"/>
      <path id="DejaVuSans-69" d="M 603 3500 
L 1178 3500 
L 1178 0 
L 603 0 
L 603 3500 
z
M 603 4863 
L 1178 4863 
L 1178 4134 
L 603 4134 
L 603 4863 
z
" transform="scale(0.015625)"/>
      <path id="DejaVuSans-67" d="M 2906 1791 
Q 2906 2416 2648 2759 
Q 2391 3103 1925 3103 
Q 1463 3103 1205 2759 
Q 947 2416 947 1791 
Q 947 1169 1205 825 
Q 1463 481 1925 481 
Q 2391 481 2648 825 
Q 2906 1169 2906 1791 
z
M 3481 434 
Q 3481 -459 3084 -895 
Q 2688 -1331 1869 -1331 
Q 1566 -1331 1297 -1286 
Q 1028 -1241 775 -1147 
L 775 -588 
Q 1028 -725 1275 -790 
Q 1522 -856 1778 -856 
Q 2344 -856 2625 -561 
Q 2906 -266 2906 331 
L 2906 616 
Q 2728 306 2450 153 
Q 2172 0 1784 0 
Q 1141 0 747 490 
Q 353 981 353 1791 
Q 353 2603 747 3093 
Q 1141 3584 1784 3584 
Q 2172 3584 2450 3431 
Q 2728 3278 2906 2969 
L 2906 3500 
L 3481 3500 
L 3481 434 
z
" transform="scale(0.015625)"/>
      <path id="DejaVuSans-20" transform="scale(0.015625)"/>
      <path id="DejaVuSans-43" d="M 4122 4306 
L 4122 3641 
Q 3803 3938 3442 4084 
Q 3081 4231 2675 4231 
Q 1875 4231 1450 3742 
Q 1025 3253 1025 2328 
Q 1025 1406 1450 917 
Q 1875 428 2675 428 
Q 3081 428 3442 575 
Q 3803 722 4122 1019 
L 4122 359 
Q 3791 134 3420 21 
Q 3050 -91 2638 -91 
Q 1578 -91 968 557 
Q 359 1206 359 2328 
Q 359 3453 968 4101 
Q 1578 4750 2638 4750 
Q 3056 4750 3426 4639 
Q 3797 4528 4122 4306 
z
" transform="scale(0.015625)"/>
      <path id="DejaVuSans-76" d="M 191 3500 
L 800 3500 
L 1894 563 
L 2988 3500 
L 3597 3500 
L 2284 0 
L 1503 0 
L 191 3500 
z
" transform="scale(0.015625)"/>
     </defs>
     <use xlink:href="#DejaVuSans-4c"/>
     <use xlink:href="#DejaVuSans-65" x="53.962891"/>
     <use xlink:href="#DejaVuSans-61" x="115.486328"/>
     <use xlink:href="#DejaVuSans-72" x="176.765625"/>
     <use xlink:href="#DejaVuSans-6e" x="216.128906"/>
     <use xlink:href="#DejaVuSans-69" x="279.507812"/>
     <use xlink:href="#DejaVuSans-6e" x="307.291016"/>
     <use xlink:href="#DejaVuSans-67" x="370.669922"/>
     <use xlink:href="#DejaVuSans-20" x="434.146484"/>
     <use xlink:href="#DejaVuSans-43" x="465.933594"/>
     <use xlink:href="#DejaVuSans-75" x="535.757812"/>
     <use xlink:href="#DejaVuSans-72" x="599.136719"/>
     <use xlink:href="#DejaVuSans-76" x="640.25"/>
     <use xlink:href="#DejaVuSans-65" x="699.429688"/>
     <use xlink:href="#DejaVuSans-73" x="760.953125"/>
    </g>
   </g>
   <g id="legend_1">
    <g id="patch_7">
     <path d="M 214.18875 302.584 
L 407.72 302.584 
Q 409.72 302.584 409.72 300.584 
L 409.72 228.193375 
Q 409.72 226.193375 407.72 226.193375 
L 214.18875 226.193375 
Q 212.18875 226.193375 212.18875 228.193375 
L 212.18875 300.584 
Q 212.18875 302.584 214.18875 302.584 
z
" style="fill: #ffffff; opacity: 0.8; stroke: #cccccc; stroke-linejoin: miter"/>
    </g>
    <g id="line2d_21">
     <path d="M 216.18875 234.291812 
L 226.18875 234.291812 
L 236.18875 234.291812 
" style="fill: none; stroke: #1f77b4; stroke-width: 1.5; stroke-linecap: square"/>
    </g>
    <g id="text_19">
     <!-- Train Accuracy -->
     <g transform="translate(244.18875 237.791812) scale(0.1 -0.1)">
      <defs>
       <path id="DejaVuSans-54" d="M -19 4666 
L 3928 4666 
L 3928 4134 
L 2272 4134 
L 2272 0 
L 1638 0 
L 1638 4134 
L -19 4134 
L -19 4666 
z
" transform="scale(0.015625)"/>
      </defs>
      <use xlink:href="#DejaVuSans-54"/>
      <use xlink:href="#DejaVuSans-72" x="46.333984"/>
      <use xlink:href="#DejaVuSans-61" x="87.447266"/>
      <use xlink:href="#DejaVuSans-69" x="148.726562"/>
      <use xlink:href="#DejaVuSans-6e" x="176.509766"/>
      <use xlink:href="#DejaVuSans-20" x="239.888672"/>
      <use xlink:href="#DejaVuSans-41" x="271.675781"/>
      <use xlink:href="#DejaVuSans-63" x="338.333984"/>
      <use xlink:href="#DejaVuSans-63" x="393.314453"/>
      <use xlink:href="#DejaVuSans-75" x="448.294922"/>
      <use xlink:href="#DejaVuSans-72" x="511.673828"/>
      <use xlink:href="#DejaVuSans-61" x="552.787109"/>
      <use xlink:href="#DejaVuSans-63" x="614.066406"/>
      <use xlink:href="#DejaVuSans-79" x="669.046875"/>
     </g>
    </g>
    <g id="line2d_22">
     <path d="M 216.18875 248.969937 
L 226.18875 248.969937 
L 236.18875 248.969937 
" style="fill: none; stroke: #ff7f0e; stroke-width: 1.5; stroke-linecap: square"/>
    </g>
    <g id="text_20">
     <!-- Validation Accuracy -->
     <g transform="translate(244.18875 252.469937) scale(0.1 -0.1)">
      <defs>
       <path id="DejaVuSans-56" d="M 1831 0 
L 50 4666 
L 709 4666 
L 2188 738 
L 3669 4666 
L 4325 4666 
L 2547 0 
L 1831 0 
z
" transform="scale(0.015625)"/>
       <path id="DejaVuSans-6c" d="M 603 4863 
L 1178 4863 
L 1178 0 
L 603 0 
L 603 4863 
z
" transform="scale(0.015625)"/>
       <path id="DejaVuSans-64" d="M 2906 2969 
L 2906 4863 
L 3481 4863 
L 3481 0 
L 2906 0 
L 2906 525 
Q 2725 213 2448 61 
Q 2172 -91 1784 -91 
Q 1150 -91 751 415 
Q 353 922 353 1747 
Q 353 2572 751 3078 
Q 1150 3584 1784 3584 
Q 2172 3584 2448 3432 
Q 2725 3281 2906 2969 
z
M 947 1747 
Q 947 1113 1208 752 
Q 1469 391 1925 391 
Q 2381 391 2643 752 
Q 2906 1113 2906 1747 
Q 2906 2381 2643 2742 
Q 2381 3103 1925 3103 
Q 1469 3103 1208 2742 
Q 947 2381 947 1747 
z
" transform="scale(0.015625)"/>
       <path id="DejaVuSans-74" d="M 1172 4494 
L 1172 3500 
L 2356 3500 
L 2356 3053 
L 1172 3053 
L 1172 1153 
Q 1172 725 1289 603 
Q 1406 481 1766 481 
L 2356 481 
L 2356 0 
L 1766 0 
Q 1100 0 847 248 
Q 594 497 594 1153 
L 594 3053 
L 172 3053 
L 172 3500 
L 594 3500 
L 594 4494 
L 1172 4494 
z
" transform="scale(0.015625)"/>
      </defs>
      <use xlink:href="#DejaVuSans-56"/>
      <use xlink:href="#DejaVuSans-61" x="60.658203"/>
      <use xlink:href="#DejaVuSans-6c" x="121.9375"/>
      <use xlink:href="#DejaVuSans-69" x="149.720703"/>
      <use xlink:href="#DejaVuSans-64" x="177.503906"/>
      <use xlink:href="#DejaVuSans-61" x="240.980469"/>
      <use xlink:href="#DejaVuSans-74" x="302.259766"/>
      <use xlink:href="#DejaVuSans-69" x="341.46875"/>
      <use xlink:href="#DejaVuSans-6f" x="369.251953"/>
      <use xlink:href="#DejaVuSans-6e" x="430.433594"/>
      <use xlink:href="#DejaVuSans-20" x="493.8125"/>
      <use xlink:href="#DejaVuSans-41" x="525.599609"/>
      <use xlink:href="#DejaVuSans-63" x="592.257812"/>
      <use xlink:href="#DejaVuSans-63" x="647.238281"/>
      <use xlink:href="#DejaVuSans-75" x="702.21875"/>
      <use xlink:href="#DejaVuSans-72" x="765.597656"/>
      <use xlink:href="#DejaVuSans-61" x="806.710938"/>
      <use xlink:href="#DejaVuSans-63" x="867.990234"/>
      <use xlink:href="#DejaVuSans-79" x="922.970703"/>
     </g>
    </g>
    <g id="line2d_23">
     <path d="M 216.18875 263.648062 
L 226.18875 263.648062 
L 236.18875 263.648062 
" style="fill: none; stroke: #2ca02c; stroke-width: 1.5; stroke-linecap: square"/>
    </g>
    <g id="text_21">
     <!-- Robust Validation Accuracy -->
     <g transform="translate(244.18875 267.148062) scale(0.1 -0.1)">
      <defs>
       <path id="DejaVuSans-52" d="M 2841 2188 
Q 3044 2119 3236 1894 
Q 3428 1669 3622 1275 
L 4263 0 
L 3584 0 
L 2988 1197 
Q 2756 1666 2539 1819 
Q 2322 1972 1947 1972 
L 1259 1972 
L 1259 0 
L 628 0 
L 628 4666 
L 2053 4666 
Q 2853 4666 3247 4331 
Q 3641 3997 3641 3322 
Q 3641 2881 3436 2590 
Q 3231 2300 2841 2188 
z
M 1259 4147 
L 1259 2491 
L 2053 2491 
Q 2509 2491 2742 2702 
Q 2975 2913 2975 3322 
Q 2975 3731 2742 3939 
Q 2509 4147 2053 4147 
L 1259 4147 
z
" transform="scale(0.015625)"/>
       <path id="DejaVuSans-62" d="M 3116 1747 
Q 3116 2381 2855 2742 
Q 2594 3103 2138 3103 
Q 1681 3103 1420 2742 
Q 1159 2381 1159 1747 
Q 1159 1113 1420 752 
Q 1681 391 2138 391 
Q 2594 391 2855 752 
Q 3116 1113 3116 1747 
z
M 1159 2969 
Q 1341 3281 1617 3432 
Q 1894 3584 2278 3584 
Q 2916 3584 3314 3078 
Q 3713 2572 3713 1747 
Q 3713 922 3314 415 
Q 2916 -91 2278 -91 
Q 1894 -91 1617 61 
Q 1341 213 1159 525 
L 1159 0 
L 581 0 
L 581 4863 
L 1159 4863 
L 1159 2969 
z
" transform="scale(0.015625)"/>
      </defs>
      <use xlink:href="#DejaVuSans-52"/>
      <use xlink:href="#DejaVuSans-6f" x="64.982422"/>
      <use xlink:href="#DejaVuSans-62" x="126.164062"/>
      <use xlink:href="#DejaVuSans-75" x="189.640625"/>
      <use xlink:href="#DejaVuSans-73" x="253.019531"/>
      <use xlink:href="#DejaVuSans-74" x="305.119141"/>
      <use xlink:href="#DejaVuSans-20" x="344.328125"/>
      <use xlink:href="#DejaVuSans-56" x="376.115234"/>
      <use xlink:href="#DejaVuSans-61" x="436.773438"/>
      <use xlink:href="#DejaVuSans-6c" x="498.052734"/>
      <use xlink:href="#DejaVuSans-69" x="525.835938"/>
      <use xlink:href="#DejaVuSans-64" x="553.619141"/>
      <use xlink:href="#DejaVuSans-61" x="617.095703"/>
      <use xlink:href="#DejaVuSans-74" x="678.375"/>
      <use xlink:href="#DejaVuSans-69" x="717.583984"/>
      <use xlink:href="#DejaVuSans-6f" x="745.367188"/>
      <use xlink:href="#DejaVuSans-6e" x="806.548828"/>
      <use xlink:href="#DejaVuSans-20" x="869.927734"/>
      <use xlink:href="#DejaVuSans-41" x="901.714844"/>
      <use xlink:href="#DejaVuSans-63" x="968.373047"/>
      <use xlink:href="#DejaVuSans-63" x="1023.353516"/>
      <use xlink:href="#DejaVuSans-75" x="1078.333984"/>
      <use xlink:href="#DejaVuSans-72" x="1141.712891"/>
      <use xlink:href="#DejaVuSans-61" x="1182.826172"/>
      <use xlink:href="#DejaVuSans-63" x="1244.105469"/>
      <use xlink:href="#DejaVuSans-79" x="1299.085938"/>
     </g>
    </g>
    <g id="line2d_24">
     <path d="M 216.18875 278.326188 
L 226.18875 278.326188 
L 236.18875 278.326188 
" style="fill: none; stroke: #d62728; stroke-width: 1.5; stroke-linecap: square"/>
    </g>
    <g id="text_22">
     <!-- SWA Validation Accuracy -->
     <g transform="translate(244.18875 281.826188) scale(0.1 -0.1)">
      <defs>
       <path id="DejaVuSans-53" d="M 3425 4513 
L 3425 3897 
Q 3066 4069 2747 4153 
Q 2428 4238 2131 4238 
Q 1616 4238 1336 4038 
Q 1056 3838 1056 3469 
Q 1056 3159 1242 3001 
Q 1428 2844 1947 2747 
L 2328 2669 
Q 3034 2534 3370 2195 
Q 3706 1856 3706 1288 
Q 3706 609 3251 259 
Q 2797 -91 1919 -91 
Q 1588 -91 1214 -16 
Q 841 59 441 206 
L 441 856 
Q 825 641 1194 531 
Q 1563 422 1919 422 
Q 2459 422 2753 634 
Q 3047 847 3047 1241 
Q 3047 1584 2836 1778 
Q 2625 1972 2144 2069 
L 1759 2144 
Q 1053 2284 737 2584 
Q 422 2884 422 3419 
Q 422 4038 858 4394 
Q 1294 4750 2059 4750 
Q 2388 4750 2728 4690 
Q 3069 4631 3425 4513 
z
" transform="scale(0.015625)"/>
       <path id="DejaVuSans-57" d="M 213 4666 
L 850 4666 
L 1831 722 
L 2809 4666 
L 3519 4666 
L 4500 722 
L 5478 4666 
L 6119 4666 
L 4947 0 
L 4153 0 
L 3169 4050 
L 2175 0 
L 1381 0 
L 213 4666 
z
" transform="scale(0.015625)"/>
      </defs>
      <use xlink:href="#DejaVuSans-53"/>
      <use xlink:href="#DejaVuSans-57" x="63.476562"/>
      <use xlink:href="#DejaVuSans-41" x="156.853516"/>
      <use xlink:href="#DejaVuSans-20" x="225.261719"/>
      <use xlink:href="#DejaVuSans-56" x="257.048828"/>
      <use xlink:href="#DejaVuSans-61" x="317.707031"/>
      <use xlink:href="#DejaVuSans-6c" x="378.986328"/>
      <use xlink:href="#DejaVuSans-69" x="406.769531"/>
      <use xlink:href="#DejaVuSans-64" x="434.552734"/>
      <use xlink:href="#DejaVuSans-61" x="498.029297"/>
      <use xlink:href="#DejaVuSans-74" x="559.308594"/>
      <use xlink:href="#DejaVuSans-69" x="598.517578"/>
      <use xlink:href="#DejaVuSans-6f" x="626.300781"/>
      <use xlink:href="#DejaVuSans-6e" x="687.482422"/>
      <use xlink:href="#DejaVuSans-20" x="750.861328"/>
      <use xlink:href="#DejaVuSans-41" x="782.648438"/>
      <use xlink:href="#DejaVuSans-63" x="849.306641"/>
      <use xlink:href="#DejaVuSans-63" x="904.287109"/>
      <use xlink:href="#DejaVuSans-75" x="959.267578"/>
      <use xlink:href="#DejaVuSans-72" x="1022.646484"/>
      <use xlink:href="#DejaVuSans-61" x="1063.759766"/>
      <use xlink:href="#DejaVuSans-63" x="1125.039062"/>
      <use xlink:href="#DejaVuSans-79" x="1180.019531"/>
     </g>
    </g>
    <g id="line2d_25">
     <path d="M 216.18875 293.004312 
L 226.18875 293.004312 
L 236.18875 293.004312 
" style="fill: none; stroke: #9467bd; stroke-width: 1.5; stroke-linecap: square"/>
    </g>
    <g id="text_23">
     <!-- SWA Robust Validation Accuracy -->
     <g transform="translate(244.18875 296.504312) scale(0.1 -0.1)">
      <use xlink:href="#DejaVuSans-53"/>
      <use xlink:href="#DejaVuSans-57" x="63.476562"/>
      <use xlink:href="#DejaVuSans-41" x="156.853516"/>
      <use xlink:href="#DejaVuSans-20" x="225.261719"/>
      <use xlink:href="#DejaVuSans-52" x="257.048828"/>
      <use xlink:href="#DejaVuSans-6f" x="322.03125"/>
      <use xlink:href="#DejaVuSans-62" x="383.212891"/>
      <use xlink:href="#DejaVuSans-75" x="446.689453"/>
      <use xlink:href="#DejaVuSans-73" x="510.068359"/>
      <use xlink:href="#DejaVuSans-74" x="562.167969"/>
      <use xlink:href="#DejaVuSans-20" x="601.376953"/>
      <use xlink:href="#DejaVuSans-56" x="633.164062"/>
      <use xlink:href="#DejaVuSans-61" x="693.822266"/>
      <use xlink:href="#DejaVuSans-6c" x="755.101562"/>
      <use xlink:href="#DejaVuSans-69" x="782.884766"/>
      <use xlink:href="#DejaVuSans-64" x="810.667969"/>
      <use xlink:href="#DejaVuSans-61" x="874.144531"/>
      <use xlink:href="#DejaVuSans-74" x="935.423828"/>
      <use xlink:href="#DejaVuSans-69" x="974.632812"/>
      <use xlink:href="#DejaVuSans-6f" x="1002.416016"/>
      <use xlink:href="#DejaVuSans-6e" x="1063.597656"/>
      <use xlink:href="#DejaVuSans-20" x="1126.976562"/>
      <use xlink:href="#DejaVuSans-41" x="1158.763672"/>
      <use xlink:href="#DejaVuSans-63" x="1225.421875"/>
      <use xlink:href="#DejaVuSans-63" x="1280.402344"/>
      <use xlink:href="#DejaVuSans-75" x="1335.382812"/>
      <use xlink:href="#DejaVuSans-72" x="1398.761719"/>
      <use xlink:href="#DejaVuSans-61" x="1439.875"/>
      <use xlink:href="#DejaVuSans-63" x="1501.154297"/>
      <use xlink:href="#DejaVuSans-79" x="1556.134766"/>
     </g>
    </g>
   </g>
  </g>
 </g>
 <defs>
  <clipPath id="p5a65d3c8d5">
   <rect x="57.6" y="41.472" width="357.12" height="266.112"/>
  </clipPath>
 </defs>
</svg>
