<?xml version="1.0" encoding="utf-8" standalone="no"?>
<!DOCTYPE svg PUBLIC "-//W3C//DTD SVG 1.1//EN"
  "http://www.w3.org/Graphics/SVG/1.1/DTD/svg11.dtd">
<svg xmlns:xlink="http://www.w3.org/1999/xlink" width="460.8pt" height="345.6pt" viewBox="0 0 460.8 345.6" xmlns="http://www.w3.org/2000/svg" version="1.1">
 <metadata>
  <rdf:RDF xmlns:dc="http://purl.org/dc/elements/1.1/" xmlns:cc="http://creativecommons.org/ns#" xmlns:rdf="http://www.w3.org/1999/02/22-rdf-syntax-ns#">
   <cc:Work>
    <dc:type rdf:resource="http://purl.org/dc/dcmitype/StillImage"/>
    <dc:date>2025-04-30T05:12:03.059562</dc:date>
    <dc:format>image/svg+xml</dc:format>
    <dc:creator>
     <cc:Agent>
      <dc:title>Matplotlib v3.9.1, https://matplotlib.org/</dc:title>
     </cc:Agent>
    </dc:creator>
   </cc:Work>
  </rdf:RDF>
 </metadata>
 <defs>
  <style type="text/css">*{stroke-linejoin: round; stroke-linecap: butt}</style>
 </defs>
 <g id="figure_1">
  <g id="patch_1">
   <path d="M 0 345.6 
L 460.8 345.6 
L 460.8 0 
L 0 0 
z
" style="fill: #ffffff"/>
  </g>
  <g id="axes_1">
   <g id="patch_2">
    <path d="M 57.6 307.584 
L 414.72 307.584 
L 414.72 41.472 
L 57.6 41.472 
z
" style="fill: #ffffff"/>
   </g>
   <g id="matplotlib.axis_1">
    <g id="xtick_1">
     <g id="line2d_1">
      <defs>
       <path id="m072a2ec9ff" d="M 0 0 
L 0 3.5 
" style="stroke: #000000; stroke-width: 0.8"/>
      </defs>
      <g>
       <use xlink:href="#m072a2ec9ff" x="73.832727" y="307.584" style="stroke: #000000; stroke-width: 0.8"/>
      </g>
     </g>
     <g id="text_1">
      <!-- 1 -->
      <g transform="translate(70.651477 322.182437) scale(0.1 -0.1)">
       <defs>
        <path id="DejaVuSans-31" d="M 794 531 
L 1825 531 
L 1825 4091 
L 703 3866 
L 703 4441 
L 1819 4666 
L 2450 4666 
L 2450 531 
L 3481 531 
L 3481 0 
L 794 0 
L 794 531 
z
" transform="scale(0.015625)"/>
       </defs>
       <use xlink:href="#DejaVuSans-31"/>
      </g>
     </g>
    </g>
    <g id="xtick_2">
     <g id="line2d_2">
      <g>
       <use xlink:href="#m072a2ec9ff" x="109.664165" y="307.584" style="stroke: #000000; stroke-width: 0.8"/>
      </g>
     </g>
     <g id="text_2">
      <!-- 34 -->
      <g transform="translate(103.301665 322.182437) scale(0.1 -0.1)">
       <defs>
        <path id="DejaVuSans-33" d="M 2597 2516 
Q 3050 2419 3304 2112 
Q 3559 1806 3559 1356 
Q 3559 666 3084 287 
Q 2609 -91 1734 -91 
Q 1441 -91 1130 -33 
Q 819 25 488 141 
L 488 750 
Q 750 597 1062 519 
Q 1375 441 1716 441 
Q 2309 441 2620 675 
Q 2931 909 2931 1356 
Q 2931 1769 2642 2001 
Q 2353 2234 1838 2234 
L 1294 2234 
L 1294 2753 
L 1863 2753 
Q 2328 2753 2575 2939 
Q 2822 3125 2822 3475 
Q 2822 3834 2567 4026 
Q 2313 4219 1838 4219 
Q 1578 4219 1281 4162 
Q 984 4106 628 3988 
L 628 4550 
Q 988 4650 1302 4700 
Q 1616 4750 1894 4750 
Q 2613 4750 3031 4423 
Q 3450 4097 3450 3541 
Q 3450 3153 3228 2886 
Q 3006 2619 2597 2516 
z
" transform="scale(0.015625)"/>
        <path id="DejaVuSans-34" d="M 2419 4116 
L 825 1625 
L 2419 1625 
L 2419 4116 
z
M 2253 4666 
L 3047 4666 
L 3047 1625 
L 3713 1625 
L 3713 1100 
L 3047 1100 
L 3047 0 
L 2419 0 
L 2419 1100 
L 313 1100 
L 313 1709 
L 2253 4666 
z
" transform="scale(0.015625)"/>
       </defs>
       <use xlink:href="#DejaVuSans-33"/>
       <use xlink:href="#DejaVuSans-34" x="63.623047"/>
      </g>
     </g>
    </g>
    <g id="xtick_3">
     <g id="line2d_3">
      <g>
       <use xlink:href="#m072a2ec9ff" x="145.495604" y="307.584" style="stroke: #000000; stroke-width: 0.8"/>
      </g>
     </g>
     <g id="text_3">
      <!-- 67 -->
      <g transform="translate(139.133104 322.182437) scale(0.1 -0.1)">
       <defs>
        <path id="DejaVuSans-36" d="M 2113 2584 
Q 1688 2584 1439 2293 
Q 1191 2003 1191 1497 
Q 1191 994 1439 701 
Q 1688 409 2113 409 
Q 2538 409 2786 701 
Q 3034 994 3034 1497 
Q 3034 2003 2786 2293 
Q 2538 2584 2113 2584 
z
M 3366 4563 
L 3366 3988 
Q 3128 4100 2886 4159 
Q 2644 4219 2406 4219 
Q 1781 4219 1451 3797 
Q 1122 3375 1075 2522 
Q 1259 2794 1537 2939 
Q 1816 3084 2150 3084 
Q 2853 3084 3261 2657 
Q 3669 2231 3669 1497 
Q 3669 778 3244 343 
Q 2819 -91 2113 -91 
Q 1303 -91 875 529 
Q 447 1150 447 2328 
Q 447 3434 972 4092 
Q 1497 4750 2381 4750 
Q 2619 4750 2861 4703 
Q 3103 4656 3366 4563 
z
" transform="scale(0.015625)"/>
        <path id="DejaVuSans-37" d="M 525 4666 
L 3525 4666 
L 3525 4397 
L 1831 0 
L 1172 0 
L 2766 4134 
L 525 4134 
L 525 4666 
z
" transform="scale(0.015625)"/>
       </defs>
       <use xlink:href="#DejaVuSans-36"/>
       <use xlink:href="#DejaVuSans-37" x="63.623047"/>
      </g>
     </g>
    </g>
    <g id="xtick_4">
     <g id="line2d_4">
      <g>
       <use xlink:href="#m072a2ec9ff" x="181.327042" y="307.584" style="stroke: #000000; stroke-width: 0.8"/>
      </g>
     </g>
     <g id="text_4">
      <!-- 100 -->
      <g transform="translate(171.783292 322.182437) scale(0.1 -0.1)">
       <defs>
        <path id="DejaVuSans-30" d="M 2034 4250 
Q 1547 4250 1301 3770 
Q 1056 3291 1056 2328 
Q 1056 1369 1301 889 
Q 1547 409 2034 409 
Q 2525 409 2770 889 
Q 3016 1369 3016 2328 
Q 3016 3291 2770 3770 
Q 2525 4250 2034 4250 
z
M 2034 4750 
Q 2819 4750 3233 4129 
Q 3647 3509 3647 2328 
Q 3647 1150 3233 529 
Q 2819 -91 2034 -91 
Q 1250 -91 836 529 
Q 422 1150 422 2328 
Q 422 3509 836 4129 
Q 1250 4750 2034 4750 
z
" transform="scale(0.015625)"/>
       </defs>
       <use xlink:href="#DejaVuSans-31"/>
       <use xlink:href="#DejaVuSans-30" x="63.623047"/>
       <use xlink:href="#DejaVuSans-30" x="127.246094"/>
      </g>
     </g>
    </g>
    <g id="xtick_5">
     <g id="line2d_5">
      <g>
       <use xlink:href="#m072a2ec9ff" x="217.15848" y="307.584" style="stroke: #000000; stroke-width: 0.8"/>
      </g>
     </g>
     <g id="text_5">
      <!-- 133 -->
      <g transform="translate(207.61473 322.182437) scale(0.1 -0.1)">
       <use xlink:href="#DejaVuSans-31"/>
       <use xlink:href="#DejaVuSans-33" x="63.623047"/>
       <use xlink:href="#DejaVuSans-33" x="127.246094"/>
      </g>
     </g>
    </g>
    <g id="xtick_6">
     <g id="line2d_6">
      <g>
       <use xlink:href="#m072a2ec9ff" x="254.075719" y="307.584" style="stroke: #000000; stroke-width: 0.8"/>
      </g>
     </g>
     <g id="text_6">
      <!-- 167 -->
      <g transform="translate(244.531969 322.182437) scale(0.1 -0.1)">
       <use xlink:href="#DejaVuSans-31"/>
       <use xlink:href="#DejaVuSans-36" x="63.623047"/>
       <use xlink:href="#DejaVuSans-37" x="127.246094"/>
      </g>
     </g>
    </g>
    <g id="xtick_7">
     <g id="line2d_7">
      <g>
       <use xlink:href="#m072a2ec9ff" x="289.907157" y="307.584" style="stroke: #000000; stroke-width: 0.8"/>
      </g>
     </g>
     <g id="text_7">
      <!-- 200 -->
      <g transform="translate(280.363407 322.182437) scale(0.1 -0.1)">
       <defs>
        <path id="DejaVuSans-32" d="M 1228 531 
L 3431 531 
L 3431 0 
L 469 0 
L 469 531 
Q 828 903 1448 1529 
Q 2069 2156 2228 2338 
Q 2531 2678 2651 2914 
Q 2772 3150 2772 3378 
Q 2772 3750 2511 3984 
Q 2250 4219 1831 4219 
Q 1534 4219 1204 4116 
Q 875 4013 500 3803 
L 500 4441 
Q 881 4594 1212 4672 
Q 1544 4750 1819 4750 
Q 2544 4750 2975 4387 
Q 3406 4025 3406 3419 
Q 3406 3131 3298 2873 
Q 3191 2616 2906 2266 
Q 2828 2175 2409 1742 
Q 1991 1309 1228 531 
z
" transform="scale(0.015625)"/>
       </defs>
       <use xlink:href="#DejaVuSans-32"/>
       <use xlink:href="#DejaVuSans-30" x="63.623047"/>
       <use xlink:href="#DejaVuSans-30" x="127.246094"/>
      </g>
     </g>
    </g>
    <g id="xtick_8">
     <g id="line2d_8">
      <g>
       <use xlink:href="#m072a2ec9ff" x="325.738595" y="307.584" style="stroke: #000000; stroke-width: 0.8"/>
      </g>
     </g>
     <g id="text_8">
      <!-- 233 -->
      <g transform="translate(316.194845 322.182437) scale(0.1 -0.1)">
       <use xlink:href="#DejaVuSans-32"/>
       <use xlink:href="#DejaVuSans-33" x="63.623047"/>
       <use xlink:href="#DejaVuSans-33" x="127.246094"/>
      </g>
     </g>
    </g>
    <g id="xtick_9">
     <g id="line2d_9">
      <g>
       <use xlink:href="#m072a2ec9ff" x="361.570033" y="307.584" style="stroke: #000000; stroke-width: 0.8"/>
      </g>
     </g>
     <g id="text_9">
      <!-- 266 -->
      <g transform="translate(352.026283 322.182437) scale(0.1 -0.1)">
       <use xlink:href="#DejaVuSans-32"/>
       <use xlink:href="#DejaVuSans-36" x="63.623047"/>
       <use xlink:href="#DejaVuSans-36" x="127.246094"/>
      </g>
     </g>
    </g>
    <g id="xtick_10">
     <g id="line2d_10">
      <g>
       <use xlink:href="#m072a2ec9ff" x="398.487273" y="307.584" style="stroke: #000000; stroke-width: 0.8"/>
      </g>
     </g>
     <g id="text_10">
      <!-- 300 -->
      <g transform="translate(388.943523 322.182437) scale(0.1 -0.1)">
       <use xlink:href="#DejaVuSans-33"/>
       <use xlink:href="#DejaVuSans-30" x="63.623047"/>
       <use xlink:href="#DejaVuSans-30" x="127.246094"/>
      </g>
     </g>
    </g>
    <g id="text_11">
     <!-- Epochs -->
     <g transform="translate(218.244375 335.860562) scale(0.1 -0.1)">
      <defs>
       <path id="DejaVuSans-45" d="M 628 4666 
L 3578 4666 
L 3578 4134 
L 1259 4134 
L 1259 2753 
L 3481 2753 
L 3481 2222 
L 1259 2222 
L 1259 531 
L 3634 531 
L 3634 0 
L 628 0 
L 628 4666 
z
" transform="scale(0.015625)"/>
       <path id="DejaVuSans-70" d="M 1159 525 
L 1159 -1331 
L 581 -1331 
L 581 3500 
L 1159 3500 
L 1159 2969 
Q 1341 3281 1617 3432 
Q 1894 3584 2278 3584 
Q 2916 3584 3314 3078 
Q 3713 2572 3713 1747 
Q 3713 922 3314 415 
Q 2916 -91 2278 -91 
Q 1894 -91 1617 61 
Q 1341 213 1159 525 
z
M 3116 1747 
Q 3116 2381 2855 2742 
Q 2594 3103 2138 3103 
Q 1681 3103 1420 2742 
Q 1159 2381 1159 1747 
Q 1159 1113 1420 752 
Q 1681 391 2138 391 
Q 2594 391 2855 752 
Q 3116 1113 3116 1747 
z
" transform="scale(0.015625)"/>
       <path id="DejaVuSans-6f" d="M 1959 3097 
Q 1497 3097 1228 2736 
Q 959 2375 959 1747 
Q 959 1119 1226 758 
Q 1494 397 1959 397 
Q 2419 397 2687 759 
Q 2956 1122 2956 1747 
Q 2956 2369 2687 2733 
Q 2419 3097 1959 3097 
z
M 1959 3584 
Q 2709 3584 3137 3096 
Q 3566 2609 3566 1747 
Q 3566 888 3137 398 
Q 2709 -91 1959 -91 
Q 1206 -91 779 398 
Q 353 888 353 1747 
Q 353 2609 779 3096 
Q 1206 3584 1959 3584 
z
" transform="scale(0.015625)"/>
       <path id="DejaVuSans-63" d="M 3122 3366 
L 3122 2828 
Q 2878 2963 2633 3030 
Q 2388 3097 2138 3097 
Q 1578 3097 1268 2742 
Q 959 2388 959 1747 
Q 959 1106 1268 751 
Q 1578 397 2138 397 
Q 2388 397 2633 464 
Q 2878 531 3122 666 
L 3122 134 
Q 2881 22 2623 -34 
Q 2366 -91 2075 -91 
Q 1284 -91 818 406 
Q 353 903 353 1747 
Q 353 2603 823 3093 
Q 1294 3584 2113 3584 
Q 2378 3584 2631 3529 
Q 2884 3475 3122 3366 
z
" transform="scale(0.015625)"/>
       <path id="DejaVuSans-68" d="M 3513 2113 
L 3513 0 
L 2938 0 
L 2938 2094 
Q 2938 2591 2744 2837 
Q 2550 3084 2163 3084 
Q 1697 3084 1428 2787 
Q 1159 2491 1159 1978 
L 1159 0 
L 581 0 
L 581 4863 
L 1159 4863 
L 1159 2956 
Q 1366 3272 1645 3428 
Q 1925 3584 2291 3584 
Q 2894 3584 3203 3211 
Q 3513 2838 3513 2113 
z
" transform="scale(0.015625)"/>
       <path id="DejaVuSans-73" d="M 2834 3397 
L 2834 2853 
Q 2591 2978 2328 3040 
Q 2066 3103 1784 3103 
Q 1356 3103 1142 2972 
Q 928 2841 928 2578 
Q 928 2378 1081 2264 
Q 1234 2150 1697 2047 
L 1894 2003 
Q 2506 1872 2764 1633 
Q 3022 1394 3022 966 
Q 3022 478 2636 193 
Q 2250 -91 1575 -91 
Q 1294 -91 989 -36 
Q 684 19 347 128 
L 347 722 
Q 666 556 975 473 
Q 1284 391 1588 391 
Q 1994 391 2212 530 
Q 2431 669 2431 922 
Q 2431 1156 2273 1281 
Q 2116 1406 1581 1522 
L 1381 1569 
Q 847 1681 609 1914 
Q 372 2147 372 2553 
Q 372 3047 722 3315 
Q 1072 3584 1716 3584 
Q 2034 3584 2315 3537 
Q 2597 3491 2834 3397 
z
" transform="scale(0.015625)"/>
      </defs>
      <use xlink:href="#DejaVuSans-45"/>
      <use xlink:href="#DejaVuSans-70" x="63.183594"/>
      <use xlink:href="#DejaVuSans-6f" x="126.660156"/>
      <use xlink:href="#DejaVuSans-63" x="187.841797"/>
      <use xlink:href="#DejaVuSans-68" x="242.822266"/>
      <use xlink:href="#DejaVuSans-73" x="306.201172"/>
     </g>
    </g>
   </g>
   <g id="matplotlib.axis_2">
    <g id="ytick_1">
     <g id="line2d_11">
      <defs>
       <path id="m69b098f8f8" d="M 0 0 
L -3.5 0 
" style="stroke: #000000; stroke-width: 0.8"/>
      </defs>
      <g>
       <use xlink:href="#m69b098f8f8" x="57.6" y="279.061032" style="stroke: #000000; stroke-width: 0.8"/>
      </g>
     </g>
     <g id="text_12">
      <!-- 10 -->
      <g transform="translate(37.875 282.860251) scale(0.1 -0.1)">
       <use xlink:href="#DejaVuSans-31"/>
       <use xlink:href="#DejaVuSans-30" x="63.623047"/>
      </g>
     </g>
    </g>
    <g id="ytick_2">
     <g id="line2d_12">
      <g>
       <use xlink:href="#m69b098f8f8" x="57.6" y="246.564559" style="stroke: #000000; stroke-width: 0.8"/>
      </g>
     </g>
     <g id="text_13">
      <!-- 20 -->
      <g transform="translate(37.875 250.363777) scale(0.1 -0.1)">
       <use xlink:href="#DejaVuSans-32"/>
       <use xlink:href="#DejaVuSans-30" x="63.623047"/>
      </g>
     </g>
    </g>
    <g id="ytick_3">
     <g id="line2d_13">
      <g>
       <use xlink:href="#m69b098f8f8" x="57.6" y="214.068085" style="stroke: #000000; stroke-width: 0.8"/>
      </g>
     </g>
     <g id="text_14">
      <!-- 30 -->
      <g transform="translate(37.875 217.867303) scale(0.1 -0.1)">
       <use xlink:href="#DejaVuSans-33"/>
       <use xlink:href="#DejaVuSans-30" x="63.623047"/>
      </g>
     </g>
    </g>
    <g id="ytick_4">
     <g id="line2d_14">
      <g>
       <use xlink:href="#m69b098f8f8" x="57.6" y="181.571611" style="stroke: #000000; stroke-width: 0.8"/>
      </g>
     </g>
     <g id="text_15">
      <!-- 40 -->
      <g transform="translate(37.875 185.370829) scale(0.1 -0.1)">
       <use xlink:href="#DejaVuSans-34"/>
       <use xlink:href="#DejaVuSans-30" x="63.623047"/>
      </g>
     </g>
    </g>
    <g id="ytick_5">
     <g id="line2d_15">
      <g>
       <use xlink:href="#m69b098f8f8" x="57.6" y="149.075137" style="stroke: #000000; stroke-width: 0.8"/>
      </g>
     </g>
     <g id="text_16">
      <!-- 50 -->
      <g transform="translate(37.875 152.874356) scale(0.1 -0.1)">
       <defs>
        <path id="DejaVuSans-35" d="M 691 4666 
L 3169 4666 
L 3169 4134 
L 1269 4134 
L 1269 2991 
Q 1406 3038 1543 3061 
Q 1681 3084 1819 3084 
Q 2600 3084 3056 2656 
Q 3513 2228 3513 1497 
Q 3513 744 3044 326 
Q 2575 -91 1722 -91 
Q 1428 -91 1123 -41 
Q 819 9 494 109 
L 494 744 
Q 775 591 1075 516 
Q 1375 441 1709 441 
Q 2250 441 2565 725 
Q 2881 1009 2881 1497 
Q 2881 1984 2565 2268 
Q 2250 2553 1709 2553 
Q 1456 2553 1204 2497 
Q 953 2441 691 2322 
L 691 4666 
z
" transform="scale(0.015625)"/>
       </defs>
       <use xlink:href="#DejaVuSans-35"/>
       <use xlink:href="#DejaVuSans-30" x="63.623047"/>
      </g>
     </g>
    </g>
    <g id="ytick_6">
     <g id="line2d_16">
      <g>
       <use xlink:href="#m69b098f8f8" x="57.6" y="116.578663" style="stroke: #000000; stroke-width: 0.8"/>
      </g>
     </g>
     <g id="text_17">
      <!-- 60 -->
      <g transform="translate(37.875 120.377882) scale(0.1 -0.1)">
       <use xlink:href="#DejaVuSans-36"/>
       <use xlink:href="#DejaVuSans-30" x="63.623047"/>
      </g>
     </g>
    </g>
    <g id="ytick_7">
     <g id="line2d_17">
      <g>
       <use xlink:href="#m69b098f8f8" x="57.6" y="84.082189" style="stroke: #000000; stroke-width: 0.8"/>
      </g>
     </g>
     <g id="text_18">
      <!-- 70 -->
      <g transform="translate(37.875 87.881408) scale(0.1 -0.1)">
       <use xlink:href="#DejaVuSans-37"/>
       <use xlink:href="#DejaVuSans-30" x="63.623047"/>
      </g>
     </g>
    </g>
    <g id="ytick_8">
     <g id="line2d_18">
      <g>
       <use xlink:href="#m69b098f8f8" x="57.6" y="51.585715" style="stroke: #000000; stroke-width: 0.8"/>
      </g>
     </g>
     <g id="text_19">
      <!-- 80 -->
      <g transform="translate(37.875 55.384934) scale(0.1 -0.1)">
       <defs>
        <path id="DejaVuSans-38" d="M 2034 2216 
Q 1584 2216 1326 1975 
Q 1069 1734 1069 1313 
Q 1069 891 1326 650 
Q 1584 409 2034 409 
Q 2484 409 2743 651 
Q 3003 894 3003 1313 
Q 3003 1734 2745 1975 
Q 2488 2216 2034 2216 
z
M 1403 2484 
Q 997 2584 770 2862 
Q 544 3141 544 3541 
Q 544 4100 942 4425 
Q 1341 4750 2034 4750 
Q 2731 4750 3128 4425 
Q 3525 4100 3525 3541 
Q 3525 3141 3298 2862 
Q 3072 2584 2669 2484 
Q 3125 2378 3379 2068 
Q 3634 1759 3634 1313 
Q 3634 634 3220 271 
Q 2806 -91 2034 -91 
Q 1263 -91 848 271 
Q 434 634 434 1313 
Q 434 1759 690 2068 
Q 947 2378 1403 2484 
z
M 1172 3481 
Q 1172 3119 1398 2916 
Q 1625 2713 2034 2713 
Q 2441 2713 2670 2916 
Q 2900 3119 2900 3481 
Q 2900 3844 2670 4047 
Q 2441 4250 2034 4250 
Q 1625 4250 1398 4047 
Q 1172 3844 1172 3481 
z
" transform="scale(0.015625)"/>
       </defs>
       <use xlink:href="#DejaVuSans-38"/>
       <use xlink:href="#DejaVuSans-30" x="63.623047"/>
      </g>
     </g>
    </g>
    <g id="text_20">
     <!-- Accuracy -->
     <g transform="translate(31.795312 197.356125) rotate(-90) scale(0.1 -0.1)">
      <defs>
       <path id="DejaVuSans-41" d="M 2188 4044 
L 1331 1722 
L 3047 1722 
L 2188 4044 
z
M 1831 4666 
L 2547 4666 
L 4325 0 
L 3669 0 
L 3244 1197 
L 1141 1197 
L 716 0 
L 50 0 
L 1831 4666 
z
" transform="scale(0.015625)"/>
       <path id="DejaVuSans-75" d="M 544 1381 
L 544 3500 
L 1119 3500 
L 1119 1403 
Q 1119 906 1312 657 
Q 1506 409 1894 409 
Q 2359 409 2629 706 
Q 2900 1003 2900 1516 
L 2900 3500 
L 3475 3500 
L 3475 0 
L 2900 0 
L 2900 538 
Q 2691 219 2414 64 
Q 2138 -91 1772 -91 
Q 1169 -91 856 284 
Q 544 659 544 1381 
z
M 1991 3584 
L 1991 3584 
z
" transform="scale(0.015625)"/>
       <path id="DejaVuSans-72" d="M 2631 2963 
Q 2534 3019 2420 3045 
Q 2306 3072 2169 3072 
Q 1681 3072 1420 2755 
Q 1159 2438 1159 1844 
L 1159 0 
L 581 0 
L 581 3500 
L 1159 3500 
L 1159 2956 
Q 1341 3275 1631 3429 
Q 1922 3584 2338 3584 
Q 2397 3584 2469 3576 
Q 2541 3569 2628 3553 
L 2631 2963 
z
" transform="scale(0.015625)"/>
       <path id="DejaVuSans-61" d="M 2194 1759 
Q 1497 1759 1228 1600 
Q 959 1441 959 1056 
Q 959 750 1161 570 
Q 1363 391 1709 391 
Q 2188 391 2477 730 
Q 2766 1069 2766 1631 
L 2766 1759 
L 2194 1759 
z
M 3341 1997 
L 3341 0 
L 2766 0 
L 2766 531 
Q 2569 213 2275 61 
Q 1981 -91 1556 -91 
Q 1019 -91 701 211 
Q 384 513 384 1019 
Q 384 1609 779 1909 
Q 1175 2209 1959 2209 
L 2766 2209 
L 2766 2266 
Q 2766 2663 2505 2880 
Q 2244 3097 1772 3097 
Q 1472 3097 1187 3025 
Q 903 2953 641 2809 
L 641 3341 
Q 956 3463 1253 3523 
Q 1550 3584 1831 3584 
Q 2591 3584 2966 3190 
Q 3341 2797 3341 1997 
z
" transform="scale(0.015625)"/>
       <path id="DejaVuSans-79" d="M 2059 -325 
Q 1816 -950 1584 -1140 
Q 1353 -1331 966 -1331 
L 506 -1331 
L 506 -850 
L 844 -850 
Q 1081 -850 1212 -737 
Q 1344 -625 1503 -206 
L 1606 56 
L 191 3500 
L 800 3500 
L 1894 763 
L 2988 3500 
L 3597 3500 
L 2059 -325 
z
" transform="scale(0.015625)"/>
      </defs>
      <use xlink:href="#DejaVuSans-41"/>
      <use xlink:href="#DejaVuSans-63" x="66.658203"/>
      <use xlink:href="#DejaVuSans-63" x="121.638672"/>
      <use xlink:href="#DejaVuSans-75" x="176.619141"/>
      <use xlink:href="#DejaVuSans-72" x="239.998047"/>
      <use xlink:href="#DejaVuSans-61" x="281.111328"/>
      <use xlink:href="#DejaVuSans-63" x="342.390625"/>
      <use xlink:href="#DejaVuSans-79" x="397.371094"/>
     </g>
    </g>
   </g>
   <g id="line2d_19">
    <path d="M 73.832727 295.488 
L 76.00433 269.442076 
L 77.090131 255.728564 
L 79.261733 232.81855 
L 82.519137 208.94989 
L 83.604938 201.345715 
L 84.690739 196.170652 
L 85.77654 191.734883 
L 86.862341 184.780638 
L 89.033943 175.795362 
L 90.119745 172.009523 
L 91.205546 169.198578 
L 92.291347 167.078183 
L 93.377148 165.242133 
L 94.462949 164.551583 
L 95.54875 193.310962 
L 96.634552 190.84123 
L 97.720353 187.689072 
L 98.806154 182.08343 
L 99.891955 177.631413 
L 100.977756 175.827859 
L 102.063557 173.642471 
L 103.149358 170.530934 
L 104.23516 165.883938 
L 106.406762 162.691159 
L 107.492563 159.084051 
L 108.578364 156.00501 
L 109.664165 154.120214 
L 111.835768 146.613529 
L 112.921569 146.849128 
L 115.093171 140.845405 
L 116.178972 138.44879 
L 117.264773 137.027069 
L 118.350575 132.461315 
L 119.436376 131.941371 
L 120.522177 129.130426 
L 121.607978 127.61934 
L 122.693779 124.296575 
L 123.77958 122.143684 
L 124.865382 119.568339 
L 125.951183 117.99226 
L 127.036984 117.334206 
L 128.122785 114.636999 
L 129.208586 113.37776 
L 130.294387 111.265489 
L 131.380189 111.111131 
L 132.46599 109.575673 
L 133.551791 109.055729 
L 134.637592 108.072711 
L 135.723393 106.553501 
L 136.809194 105.806082 
L 137.894995 107.0247 
L 138.980797 140.52044 
L 140.066598 144.005687 
L 141.152399 143.404502 
L 142.2382 143.412626 
L 143.324001 141.568451 
L 144.409802 139.464305 
L 145.495604 140.114234 
L 146.581405 138.538155 
L 147.667206 136.547746 
L 149.838808 134.435475 
L 150.924609 134.102386 
L 152.01041 132.664417 
L 153.096212 130.609016 
L 154.182013 130.65776 
L 155.267814 129.65037 
L 156.353615 127.627464 
L 157.439416 127.375616 
L 158.525217 126.295109 
L 159.611019 124.572795 
L 160.69682 124.272203 
L 161.782621 122.41178 
L 163.954223 119.527718 
L 165.040024 118.40659 
L 166.125825 116.416181 
L 167.211627 114.921343 
L 169.383229 114.913219 
L 170.46903 113.385884 
L 171.554831 113.353388 
L 173.726434 109.762528 
L 174.812235 107.146561 
L 175.898036 107.601512 
L 176.983837 106.47226 
L 178.069638 104.985546 
L 179.155439 104.213755 
L 180.24124 104.286872 
L 181.327042 101.71965 
L 182.412843 100.444164 
L 183.498644 98.518748 
L 184.584445 97.389495 
L 185.670246 97.194516 
L 187.841849 95.382838 
L 188.92765 93.189326 
L 190.013451 92.929354 
L 191.099252 91.361399 
L 192.185053 91.1258 
L 193.270854 88.745433 
L 194.356656 89.379114 
L 195.442457 86.421935 
L 196.528258 86.048226 
L 197.614059 85.170821 
L 198.69986 85.065207 
L 199.785661 84.155306 
L 200.871462 82.294883 
L 201.957264 81.084389 
L 203.043065 80.117619 
L 204.128866 80.491329 
L 205.214667 79.947013 
L 206.300468 78.354685 
L 207.386269 78.427803 
L 208.472071 75.608733 
L 209.557872 76.364276 
L 210.643673 75.36501 
L 211.729474 74.008282 
L 212.815275 74.9913 
L 213.901076 73.455842 
L 214.986877 73.139001 
L 216.072679 73.090257 
L 217.15848 74.057027 
L 218.244281 71.822894 
L 219.330082 71.327323 
L 220.415883 71.457309 
L 221.501684 72.732795 
L 222.587486 71.595419 
L 223.673287 70.092457 
L 224.759088 71.839142 
L 225.844889 108.625151 
L 226.93069 115.051329 
L 228.016491 115.693134 
L 229.102292 115.213811 
L 230.188094 113.922076 
L 231.273895 115.498155 
L 232.359696 114.685743 
L 233.445497 114.287661 
L 234.531298 112.459735 
L 235.617099 111.696068 
L 236.702901 112.841568 
L 239.960304 111.436096 
L 241.046105 110.33934 
L 242.131906 110.209354 
L 243.217708 109.51068 
L 244.303509 108.121456 
L 245.38931 108.056463 
L 246.475111 108.698268 
L 247.560912 107.89398 
L 248.646713 107.34154 
L 252.989918 104.156886 
L 254.075719 104.018776 
L 255.16152 104.790567 
L 256.247321 103.685687 
L 257.333123 102.393952 
L 259.504725 102.190849 
L 260.590526 100.452288 
L 261.676327 100.33855 
L 262.762128 100.387295 
L 263.847929 100.013585 
L 264.933731 98.340017 
L 266.019532 98.039425 
L 267.105333 98.738099 
L 268.191134 97.43824 
L 269.276935 97.235137 
L 270.362736 96.47147 
L 271.448538 96.763938 
L 272.534339 95.001004 
L 273.62014 94.497309 
L 274.705941 94.399819 
L 275.791742 94.749157 
L 276.877543 93.181202 
L 277.963344 93.717394 
L 279.049146 92.458155 
L 280.134947 93.847379 
L 281.220748 92.027577 
L 282.306549 90.825207 
L 283.39235 91.142048 
L 284.478151 89.346618 
L 285.563953 89.419735 
L 286.649754 88.615447 
L 287.735555 89.151639 
L 288.821356 88.371724 
L 289.907157 87.811159 
L 290.992958 87.835532 
L 292.07876 87.478071 
L 294.250362 84.927097 
L 295.336163 85.707013 
L 297.507765 84.187803 
L 298.593566 84.098437 
L 299.679368 84.309664 
L 300.765169 82.701089 
L 301.85097 83.180412 
L 302.936771 81.482471 
L 304.022572 80.653811 
L 307.279976 79.947013 
L 308.365777 80.9869 
L 309.451578 78.167831 
L 310.537379 79.069608 
L 311.62318 77.972852 
L 312.708981 77.087323 
L 313.794783 77.144192 
L 314.880584 76.981709 
L 315.966385 77.030454 
L 317.052186 76.315532 
L 318.137987 75.771216 
L 319.223788 73.8458 
L 320.30959 73.602076 
L 321.395391 74.292626 
L 322.481192 73.918917 
L 323.566993 72.773416 
L 324.652794 72.635306 
L 325.738595 71.904135 
L 326.824396 70.726138 
L 327.910198 70.539283 
L 328.995999 71.936632 
L 330.0818 69.897478 
L 331.167601 69.873106 
L 332.253402 69.458776 
L 333.339203 68.492006 
L 334.425005 67.71209 
L 335.510806 65.518578 
L 336.596607 67.29776 
L 337.682408 64.876773 
L 338.768209 65.876039 
L 339.85401 67.346505 
L 340.939811 65.356096 
L 342.025613 65.217986 
L 343.111414 63.74752 
L 344.197215 64.02374 
L 345.283016 64.478691 
L 346.368817 62.894488 
L 347.454618 62.244559 
L 348.54042 62.212062 
L 349.626221 62.675137 
L 350.712022 60.302894 
L 351.797823 61.334657 
L 352.883624 60.676604 
L 353.969425 60.384135 
L 355.055227 60.359763 
L 356.141028 59.457986 
L 357.226829 59.799199 
L 358.31263 58.036265 
L 361.570033 57.898155 
L 362.655835 58.182499 
L 363.741636 57.199481 
L 364.827437 57.483825 
L 365.913238 56.84202 
L 366.999039 55.91587 
L 369.170642 57.776293 
L 370.256443 57.9469 
L 371.342244 59.547351 
L 372.428045 60.15666 
L 373.513846 59.839819 
L 374.599647 60.782217 
L 375.685448 61.472767 
L 376.77125 61.667746 
L 377.857051 60.302894 
L 378.942852 60.497873 
L 380.028653 61.391526 
L 381.114454 60.879707 
L 382.200255 59.945433 
L 383.286057 60.587238 
L 385.457659 61.139678 
L 386.54346 59.18989 
L 387.629261 60.327267 
L 388.715062 61.180299 
L 389.800863 60.595362 
L 390.886665 60.554742 
L 391.972466 60.887831 
L 393.058267 61.058437 
L 394.144068 61.39965 
L 395.229869 61.115306 
L 396.31567 61.375278 
L 397.401472 60.700976 
L 398.487273 60.579114 
L 398.487273 60.579114 
" clip-path="url(#p6d0c9d0cc9)" style="fill: none; stroke: #1f77b4; stroke-width: 1.5; stroke-linecap: square"/>
   </g>
   <g id="line2d_20">
    <path d="M 73.832727 281.498268 
L 76.00433 251.211554 
L 77.090131 230.966251 
L 78.175932 215.627915 
L 79.261733 194.700186 
L 80.347534 200.354573 
L 81.433335 169.937873 
L 82.519137 172.63508 
L 83.604938 164.088508 
L 84.690739 148.685179 
L 85.77654 150.342499 
L 86.862341 137.993839 
L 87.948142 138.968733 
L 89.033943 133.119368 
L 90.119745 128.179904 
L 91.205546 126.392598 
L 92.291347 123.175447 
L 93.377148 123.24044 
L 94.462949 123.89037 
L 95.54875 152.064812 
L 96.634552 152.097309 
L 97.720353 145.760496 
L 98.806154 137.051441 
L 99.891955 133.899283 
L 100.977756 132.989382 
L 102.063557 138.611272 
L 103.149358 126.10013 
L 104.23516 124.150341 
L 105.320961 119.990793 
L 106.406762 125.222725 
L 107.492563 115.083825 
L 108.578364 113.264023 
L 109.664165 112.939058 
L 110.749967 107.739622 
L 111.835768 104.684953 
L 112.921569 107.252175 
L 114.00737 101.045348 
L 115.093171 100.947859 
L 116.178972 96.138381 
L 118.350575 91.16642 
L 119.436376 92.856237 
L 120.522177 89.346618 
L 121.607978 88.306731 
L 122.693779 87.461822 
L 123.77958 87.396829 
L 125.951183 81.02752 
L 128.122785 79.890144 
L 129.208586 78.557788 
L 130.294387 78.070341 
L 131.380189 78.167831 
L 132.46599 75.958071 
L 133.551791 77.842866 
L 134.637592 76.218042 
L 135.723393 75.470623 
L 136.809194 74.983176 
L 137.894995 75.795588 
L 138.980797 100.947859 
L 140.066598 101.467803 
L 141.152399 103.710059 
L 142.2382 102.897647 
L 143.324001 102.605179 
L 144.409802 105.107408 
L 145.495604 95.78092 
L 146.581405 104.554968 
L 147.667206 93.766138 
L 148.753007 95.358465 
L 149.838808 92.888733 
L 150.924609 88.599199 
L 152.01041 98.250652 
L 153.096212 90.808959 
L 154.182013 92.2713 
L 155.267814 89.671583 
L 156.353615 87.949269 
L 157.439416 92.758748 
L 158.525217 88.599199 
L 159.611019 86.779396 
L 160.69682 83.854714 
L 161.782621 85.414544 
L 162.868422 82.619848 
L 163.954223 80.540073 
L 165.040024 80.117619 
L 166.125825 80.345094 
L 167.211627 78.330313 
L 168.297428 79.3702 
L 169.383229 78.232824 
L 170.46903 80.052626 
L 171.554831 79.955137 
L 172.640632 75.145659 
L 173.726434 73.29336 
L 174.812235 78.460299 
L 175.898036 76.802979 
L 176.983837 76.478014 
L 178.069638 74.625715 
L 179.155439 72.480948 
L 180.24124 73.325856 
L 181.327042 73.715814 
L 182.412843 71.018606 
L 183.498644 72.383458 
L 184.584445 70.401173 
L 185.670246 71.181089 
L 186.756047 68.418889 
L 187.841849 67.216519 
L 188.92765 69.003825 
L 190.013451 67.768959 
L 191.099252 66.274121 
L 192.185053 67.931441 
L 193.270854 65.754178 
L 194.356656 66.371611 
L 195.442457 64.746787 
L 196.528258 65.299227 
L 197.614059 63.089467 
L 198.69986 65.169241 
L 199.785661 62.991977 
L 200.871462 62.991977 
L 201.957264 64.25934 
L 203.043065 62.796999 
L 204.128866 61.659622 
L 205.214667 61.367154 
L 206.300468 63.771893 
L 207.386269 59.677337 
L 208.472071 61.074685 
L 209.557872 60.749721 
L 210.643673 60.9447 
L 211.729474 59.969805 
L 212.815275 59.417365 
L 213.901076 60.554742 
L 216.072679 59.612344 
L 217.15848 59.74233 
L 218.244281 58.734939 
L 219.330082 58.832429 
L 220.415883 59.807323 
L 221.501684 58.767436 
L 223.673287 58.702443 
L 224.759088 58.507464 
L 225.844889 87.754291 
L 226.93069 84.634629 
L 228.016491 84.699622 
L 229.102292 85.08958 
L 230.188094 87.754291 
L 231.273895 83.594742 
L 232.359696 82.22989 
L 233.445497 82.684841 
L 234.531298 81.774939 
L 235.617099 79.857647 
L 236.702901 82.587351 
L 237.788702 80.832542 
L 238.874503 82.034911 
L 239.960304 80.150116 
L 241.046105 81.319989 
L 242.131906 79.630172 
L 243.217708 78.525292 
L 244.303509 75.665602 
L 245.38931 79.435193 
L 246.475111 81.417478 
L 247.560912 80.540073 
L 248.646713 74.138268 
L 249.732514 80.410087 
L 250.818316 83.042302 
L 251.904117 76.153049 
L 252.989918 77.615391 
L 254.075719 74.690708 
L 255.16152 74.690708 
L 256.247321 75.535616 
L 257.333123 76.218042 
L 258.418924 78.752767 
L 259.504725 75.210652 
L 260.590526 73.455842 
L 261.676327 77.842866 
L 262.762128 70.98611 
L 263.847929 75.535616 
L 264.933731 72.220976 
L 266.019532 73.098381 
L 267.105333 76.802979 
L 268.191134 71.343571 
L 269.276935 78.232824 
L 270.362736 77.387915 
L 271.448538 72.058494 
L 272.534339 71.668536 
L 273.62014 71.766025 
L 274.705941 70.953614 
L 275.791742 70.401173 
L 277.963344 77.550398 
L 279.049146 69.133811 
L 280.134947 71.993501 
L 281.220748 72.253472 
L 282.306549 72.220976 
L 283.39235 70.596152 
L 284.478151 72.220976 
L 285.563953 69.166307 
L 286.649754 72.155983 
L 287.735555 69.718748 
L 288.821356 70.303684 
L 289.907157 70.531159 
L 290.992958 68.841343 
L 292.07876 68.77635 
L 293.164561 70.043712 
L 294.250362 68.22391 
L 295.336163 67.508987 
L 296.421964 71.473557 
L 297.507765 68.061427 
L 298.593566 70.596152 
L 299.679368 69.296293 
L 300.765169 68.191413 
L 302.936771 67.833952 
L 304.022572 68.191413 
L 305.108373 67.11903 
L 306.194175 64.421822 
L 307.279976 66.56659 
L 308.365777 66.924051 
L 309.451578 65.36422 
L 310.537379 65.851667 
L 311.62318 64.291836 
L 312.708981 65.786674 
L 314.880584 65.104248 
L 315.966385 65.819171 
L 317.052186 63.414432 
L 318.137987 65.494206 
L 319.223788 63.544417 
L 320.30959 62.699509 
L 321.395391 63.121963 
L 322.481192 62.407041 
L 323.566993 62.342048 
L 324.652794 62.472034 
L 325.738595 61.49714 
L 326.824396 61.627126 
L 327.910198 62.179566 
L 328.995999 60.554742 
L 330.0818 62.796999 
L 331.167601 60.814714 
L 332.253402 61.627126 
L 333.339203 60.39226 
L 334.425005 59.839819 
L 335.510806 60.457252 
L 336.596607 60.457252 
L 337.682408 58.832429 
L 338.768209 62.959481 
L 339.85401 57.955024 
L 340.939811 59.677337 
L 343.111414 59.417365 
L 344.197215 59.872316 
L 345.283016 57.077619 
L 346.368817 58.864925 
L 347.454618 57.467577 
L 348.54042 58.474968 
L 349.626221 57.955024 
L 350.712022 56.817647 
L 351.797823 58.279989 
L 352.883624 56.42769 
L 353.969425 56.232711 
L 355.055227 58.117506 
L 356.141028 55.517788 
L 357.226829 55.972739 
L 358.31263 55.290313 
L 359.398431 54.997845 
L 360.484232 54.867859 
L 361.570033 55.485292 
L 362.655835 55.615278 
L 363.741636 54.997845 
L 364.827437 54.997845 
L 365.913238 55.550285 
L 366.999039 53.568 
L 368.08484 56.232711 
L 369.170642 56.42769 
L 370.256443 56.460186 
L 371.342244 55.810257 
L 372.428045 57.240102 
L 373.513846 59.157394 
L 374.599647 60.29477 
L 375.685448 59.74233 
L 376.77125 58.832429 
L 377.857051 59.449862 
L 380.028653 55.517788 
L 381.114454 58.832429 
L 382.200255 56.492683 
L 383.286057 57.207605 
L 384.371858 58.117506 
L 385.457659 57.43508 
L 386.54346 55.972739 
L 387.629261 60.164784 
L 388.715062 57.825038 
L 389.800863 58.08501 
L 390.886665 56.42769 
L 391.972466 58.344982 
L 393.058267 57.370087 
L 394.144068 56.947633 
L 395.229869 57.272598 
L 396.31567 56.655165 
L 397.401472 58.669946 
L 398.487273 57.402584 
L 398.487273 57.402584 
" clip-path="url(#p6d0c9d0cc9)" style="fill: none; stroke: #ff7f0e; stroke-width: 1.5; stroke-linecap: square"/>
   </g>
   <g id="line2d_21">
    <path d="M 73.832727 284.327702 
L 74.918528 272.561738 
L 77.090131 251.270944 
L 78.175932 238.048241 
L 79.261733 222.584402 
L 80.347534 229.30781 
L 81.433335 207.120563 
L 82.519137 209.697869 
L 83.604938 199.724813 
L 84.690739 193.001405 
L 85.77654 191.43261 
L 86.862341 184.933315 
L 87.948142 184.373031 
L 89.033943 178.546077 
L 90.119745 176.753168 
L 91.205546 180.451043 
L 92.291347 173.951748 
L 93.377148 173.391464 
L 94.462949 175.29643 
L 95.54875 197.819848 
L 96.634552 198.156018 
L 97.720353 194.009916 
L 98.806154 189.30353 
L 99.891955 180.226929 
L 100.977756 175.072316 
L 102.063557 181.683668 
L 104.23516 173.391464 
L 105.320961 171.598555 
L 106.406762 182.580122 
L 107.492563 167.228339 
L 108.578364 166.219828 
L 109.664165 167.452453 
L 110.749967 159.944647 
L 111.835768 157.815568 
L 112.921569 158.824079 
L 114.00737 155.686488 
L 115.093171 157.143227 
L 116.178972 149.971591 
L 117.264773 150.419818 
L 118.350575 148.402796 
L 119.436376 144.929035 
L 120.522177 142.687899 
L 121.607978 142.575842 
L 122.693779 143.808467 
L 123.77958 141.343217 
L 124.865382 137.533286 
L 125.951183 137.757399 
L 127.036984 135.404206 
L 128.122785 134.171582 
L 129.208586 132.602786 
L 130.294387 132.042502 
L 131.380189 131.146048 
L 132.46599 130.921934 
L 133.551791 132.266616 
L 134.637592 130.137537 
L 135.723393 128.568741 
L 136.809194 129.801366 
L 137.894995 129.801366 
L 138.980797 158.824079 
L 140.066598 157.703511 
L 141.152399 162.409897 
L 142.2382 157.143227 
L 143.324001 161.177272 
L 144.409802 163.978692 
L 145.495604 147.842512 
L 146.581405 162.63401 
L 147.667206 148.62691 
L 148.753007 146.721944 
L 149.838808 151.540387 
L 150.924609 144.368751 
L 152.01041 146.273717 
L 153.096212 149.971591 
L 154.182013 148.514853 
L 156.353615 138.541797 
L 157.439416 148.738966 
L 158.525217 149.523364 
L 159.611019 146.49783 
L 160.69682 138.765911 
L 161.782621 144.816978 
L 162.868422 139.886479 
L 163.954223 134.283638 
L 165.040024 139.886479 
L 166.125825 134.283638 
L 167.211627 132.266616 
L 168.297428 137.533286 
L 169.383229 136.076547 
L 170.46903 138.877967 
L 171.554831 136.748888 
L 172.640632 131.482218 
L 173.726434 128.792855 
L 174.812235 134.171582 
L 175.898036 131.258105 
L 176.983837 138.317683 
L 178.069638 129.353139 
L 179.155439 129.465196 
L 180.24124 128.680798 
L 181.327042 130.921934 
L 183.498644 124.870867 
L 184.584445 124.982923 
L 185.670246 126.551719 
L 186.756047 121.060935 
L 187.841849 124.646753 
L 188.92765 125.991435 
L 190.013451 125.879378 
L 191.099252 121.621219 
L 192.185053 121.172992 
L 193.270854 122.517674 
L 194.356656 121.397106 
L 195.442457 119.380083 
L 196.528258 121.172992 
L 197.614059 115.233981 
L 198.69986 117.811288 
L 199.785661 118.931856 
L 200.871462 117.923345 
L 201.957264 120.612708 
L 203.043065 116.466606 
L 204.128866 114.897811 
L 205.214667 115.906322 
L 206.300468 114.337527 
L 207.386269 115.794265 
L 208.472071 113.777243 
L 209.557872 115.794265 
L 210.643673 113.216959 
L 211.729474 111.536107 
L 212.815275 113.216959 
L 213.901076 114.113413 
L 214.986877 112.768731 
L 217.15848 111.984334 
L 218.244281 110.639652 
L 220.415883 111.42405 
L 222.587486 109.855255 
L 223.673287 109.407027 
L 224.759088 110.415539 
L 225.844889 144.929035 
L 226.93069 139.886479 
L 228.016491 137.309172 
L 229.102292 145.825489 
L 230.188094 143.36024 
L 231.273895 142.463785 
L 232.359696 138.541797 
L 233.445497 142.799956 
L 234.531298 146.049603 
L 235.617099 139.214138 
L 236.702901 139.438251 
L 237.788702 131.482218 
L 238.874503 138.990024 
L 239.960304 136.076547 
L 241.046105 139.774422 
L 242.131906 132.266616 
L 243.217708 140.446763 
L 244.303509 130.02548 
L 245.38931 136.188604 
L 246.475111 136.636831 
L 247.560912 141.119104 
L 248.646713 129.801366 
L 249.732514 135.29215 
L 250.818316 142.463785 
L 251.904117 134.843922 
L 252.989918 139.102081 
L 254.075719 134.171582 
L 255.16152 127.448173 
L 256.247321 133.387184 
L 257.333123 132.8269 
L 258.418924 135.180093 
L 259.504725 132.042502 
L 260.590526 132.154559 
L 261.676327 134.731866 
L 262.762128 126.775832 
L 263.847929 132.154559 
L 264.933731 125.207037 
L 266.019532 124.982923 
L 267.105333 128.792855 
L 268.191134 127.8964 
L 269.276935 132.266616 
L 270.362736 131.930445 
L 271.448538 127.672287 
L 272.534339 131.258105 
L 273.62014 129.689309 
L 274.705941 129.353139 
L 275.791742 124.422639 
L 277.963344 133.499241 
L 279.049146 130.137537 
L 280.134947 124.982923 
L 281.220748 124.534696 
L 282.306549 126.439662 
L 283.39235 126.663775 
L 284.478151 127.784344 
L 285.563953 126.663775 
L 286.649754 125.991435 
L 287.735555 127.112003 
L 288.821356 127.56023 
L 289.907157 121.172992 
L 290.992958 117.251004 
L 292.07876 122.181503 
L 293.164561 126.103491 
L 294.250362 125.431151 
L 295.336163 126.775832 
L 296.421964 126.103491 
L 297.507765 126.439662 
L 298.593566 122.405617 
L 299.679368 119.49214 
L 300.765169 122.29356 
L 301.85097 124.534696 
L 302.936771 118.931856 
L 304.022572 124.422639 
L 305.108373 123.414128 
L 306.194175 123.190014 
L 307.279976 123.750299 
L 308.365777 119.043913 
L 309.451578 112.656675 
L 310.537379 119.604197 
L 311.62318 119.155969 
L 312.708981 115.682208 
L 313.794783 123.414128 
L 314.880584 119.82831 
L 315.966385 117.811288 
L 317.052186 118.259515 
L 318.137987 119.49214 
L 319.223788 116.466606 
L 320.30959 116.578663 
L 321.395391 117.811288 
L 322.481192 115.682208 
L 323.566993 114.337527 
L 324.652794 115.682208 
L 325.738595 116.354549 
L 326.824396 114.113413 
L 327.910198 115.009868 
L 328.995999 117.363061 
L 330.0818 114.785754 
L 331.167601 117.923345 
L 332.253402 117.138947 
L 333.339203 113.8893 
L 334.425005 107.950289 
L 335.510806 110.639652 
L 336.596607 110.639652 
L 337.682408 116.354549 
L 339.85401 110.639652 
L 340.939811 112.208447 
L 342.025613 108.62263 
L 343.111414 110.975823 
L 344.197215 111.648163 
L 345.283016 107.726175 
L 346.368817 111.536107 
L 347.454618 108.062346 
L 348.54042 107.838232 
L 349.626221 110.751709 
L 350.712022 110.527595 
L 351.797823 107.277948 
L 352.883624 105.821209 
L 353.969425 108.9588 
L 355.055227 108.062346 
L 356.141028 106.829721 
L 357.226829 104.588585 
L 358.31263 105.148869 
L 359.398431 106.381494 
L 360.484232 103.35596 
L 361.570033 108.286459 
L 363.741636 107.277948 
L 364.827437 105.372982 
L 365.913238 105.933266 
L 366.999039 104.588585 
L 368.08484 106.045323 
L 370.256443 105.821209 
L 371.342244 106.381494 
L 372.428045 106.15738 
L 373.513846 105.597096 
L 374.599647 110.415539 
L 375.685448 110.751709 
L 376.77125 109.631141 
L 377.857051 111.311993 
L 378.942852 109.070857 
L 380.028653 106.15738 
L 381.114454 108.510573 
L 382.200255 105.260925 
L 383.286057 109.407027 
L 384.371858 108.846743 
L 385.457659 109.631141 
L 386.54346 106.15738 
L 387.629261 109.070857 
L 388.715062 108.510573 
L 389.800863 109.29497 
L 390.886665 109.070857 
L 391.972466 109.407027 
L 393.058267 111.872277 
L 394.144068 104.700641 
L 395.229869 111.984334 
L 396.31567 108.734686 
L 397.401472 111.087879 
L 398.487273 108.286459 
L 398.487273 108.286459 
" clip-path="url(#p6d0c9d0cc9)" style="fill: none; stroke: #2ca02c; stroke-width: 1.5; stroke-linecap: square"/>
   </g>
   <g id="line2d_22">
    <path d="M 368.08484 54.152937 
L 369.170642 53.665489 
L 370.256443 54.705377 
L 371.342244 55.420299 
L 372.428045 56.687661 
L 373.513846 56.88264 
L 374.599647 56.88264 
L 375.685448 55.030341 
L 376.77125 57.110116 
L 377.857051 56.395193 
L 378.942852 57.662556 
L 380.028653 61.204671 
L 381.114454 60.164784 
L 382.200255 59.319876 
L 383.286057 58.08501 
L 384.371858 61.724615 
L 385.457659 58.247492 
L 386.54346 60.684728 
L 387.629261 58.344982 
L 388.715062 58.08501 
L 390.886665 61.042189 
L 391.972466 60.814714 
L 393.058267 62.796999 
L 394.144068 62.244559 
L 395.229869 59.547351 
L 396.31567 60.814714 
L 397.401472 61.334657 
L 398.487273 61.269664 
L 398.487273 61.269664 
" clip-path="url(#p6d0c9d0cc9)" style="fill: none; stroke: #d62728; stroke-width: 1.5; stroke-linecap: square"/>
   </g>
   <g id="line2d_23">
    <path d="M 368.08484 104.140357 
L 369.170642 103.019789 
L 370.256443 108.174402 
L 371.342244 105.821209 
L 372.428045 108.398516 
L 373.513846 105.821209 
L 374.599647 104.700641 
L 375.685448 105.933266 
L 376.77125 103.916244 
L 377.857051 102.907733 
L 378.942852 103.131846 
L 380.028653 109.29497 
L 381.114454 109.407027 
L 382.200255 108.9588 
L 383.286057 107.053834 
L 384.371858 111.536107 
L 385.457659 105.372982 
L 386.54346 107.502062 
L 387.629261 105.597096 
L 388.715062 110.079368 
L 389.800863 106.49355 
L 390.886665 110.415539 
L 391.972466 107.950289 
L 393.058267 110.863766 
L 394.144068 109.407027 
L 395.229869 109.070857 
L 396.31567 109.631141 
L 397.401472 109.743198 
L 398.487273 110.975823 
L 398.487273 110.975823 
" clip-path="url(#p6d0c9d0cc9)" style="fill: none; stroke: #9467bd; stroke-width: 1.5; stroke-linecap: square"/>
   </g>
   <g id="patch_3">
    <path d="M 57.6 307.584 
L 57.6 41.472 
" style="fill: none; stroke: #000000; stroke-width: 0.8; stroke-linejoin: miter; stroke-linecap: square"/>
   </g>
   <g id="patch_4">
    <path d="M 414.72 307.584 
L 414.72 41.472 
" style="fill: none; stroke: #000000; stroke-width: 0.8; stroke-linejoin: miter; stroke-linecap: square"/>
   </g>
   <g id="patch_5">
    <path d="M 57.6 307.584 
L 414.72 307.584 
" style="fill: none; stroke: #000000; stroke-width: 0.8; stroke-linejoin: miter; stroke-linecap: square"/>
   </g>
   <g id="patch_6">
    <path d="M 57.6 41.472 
L 414.72 41.472 
" style="fill: none; stroke: #000000; stroke-width: 0.8; stroke-linejoin: miter; stroke-linecap: square"/>
   </g>
   <g id="text_21">
    <!-- Learning Curves -->
    <g transform="translate(187.37625 35.472) scale(0.12 -0.12)">
     <defs>
      <path id="DejaVuSans-4c" d="M 628 4666 
L 1259 4666 
L 1259 531 
L 3531 531 
L 3531 0 
L 628 0 
L 628 4666 
z
" transform="scale(0.015625)"/>
      <path id="DejaVuSans-65" d="M 3597 1894 
L 3597 1613 
L 953 1613 
Q 991 1019 1311 708 
Q 1631 397 2203 397 
Q 2534 397 2845 478 
Q 3156 559 3463 722 
L 3463 178 
Q 3153 47 2828 -22 
Q 2503 -91 2169 -91 
Q 1331 -91 842 396 
Q 353 884 353 1716 
Q 353 2575 817 3079 
Q 1281 3584 2069 3584 
Q 2775 3584 3186 3129 
Q 3597 2675 3597 1894 
z
M 3022 2063 
Q 3016 2534 2758 2815 
Q 2500 3097 2075 3097 
Q 1594 3097 1305 2825 
Q 1016 2553 972 2059 
L 3022 2063 
z
" transform="scale(0.015625)"/>
      <path id="DejaVuSans-6e" d="M 3513 2113 
L 3513 0 
L 2938 0 
L 2938 2094 
Q 2938 2591 2744 2837 
Q 2550 3084 2163 3084 
Q 1697 3084 1428 2787 
Q 1159 2491 1159 1978 
L 1159 0 
L 581 0 
L 581 3500 
L 1159 3500 
L 1159 2956 
Q 1366 3272 1645 3428 
Q 1925 3584 2291 3584 
Q 2894 3584 3203 3211 
Q 3513 2838 3513 2113 
z
" transform="scale(0.015625)"/>
      <path id="DejaVuSans-69" d="M 603 3500 
L 1178 3500 
L 1178 0 
L 603 0 
L 603 3500 
z
M 603 4863 
L 1178 4863 
L 1178 4134 
L 603 4134 
L 603 4863 
z
" transform="scale(0.015625)"/>
      <path id="DejaVuSans-67" d="M 2906 1791 
Q 2906 2416 2648 2759 
Q 2391 3103 1925 3103 
Q 1463 3103 1205 2759 
Q 947 2416 947 1791 
Q 947 1169 1205 825 
Q 1463 481 1925 481 
Q 2391 481 2648 825 
Q 2906 1169 2906 1791 
z
M 3481 434 
Q 3481 -459 3084 -895 
Q 2688 -1331 1869 -1331 
Q 1566 -1331 1297 -1286 
Q 1028 -1241 775 -1147 
L 775 -588 
Q 1028 -725 1275 -790 
Q 1522 -856 1778 -856 
Q 2344 -856 2625 -561 
Q 2906 -266 2906 331 
L 2906 616 
Q 2728 306 2450 153 
Q 2172 0 1784 0 
Q 1141 0 747 490 
Q 353 981 353 1791 
Q 353 2603 747 3093 
Q 1141 3584 1784 3584 
Q 2172 3584 2450 3431 
Q 2728 3278 2906 2969 
L 2906 3500 
L 3481 3500 
L 3481 434 
z
" transform="scale(0.015625)"/>
      <path id="DejaVuSans-20" transform="scale(0.015625)"/>
      <path id="DejaVuSans-43" d="M 4122 4306 
L 4122 3641 
Q 3803 3938 3442 4084 
Q 3081 4231 2675 4231 
Q 1875 4231 1450 3742 
Q 1025 3253 1025 2328 
Q 1025 1406 1450 917 
Q 1875 428 2675 428 
Q 3081 428 3442 575 
Q 3803 722 4122 1019 
L 4122 359 
Q 3791 134 3420 21 
Q 3050 -91 2638 -91 
Q 1578 -91 968 557 
Q 359 1206 359 2328 
Q 359 3453 968 4101 
Q 1578 4750 2638 4750 
Q 3056 4750 3426 4639 
Q 3797 4528 4122 4306 
z
" transform="scale(0.015625)"/>
      <path id="DejaVuSans-76" d="M 191 3500 
L 800 3500 
L 1894 563 
L 2988 3500 
L 3597 3500 
L 2284 0 
L 1503 0 
L 191 3500 
z
" transform="scale(0.015625)"/>
     </defs>
     <use xlink:href="#DejaVuSans-4c"/>
     <use xlink:href="#DejaVuSans-65" x="53.962891"/>
     <use xlink:href="#DejaVuSans-61" x="115.486328"/>
     <use xlink:href="#DejaVuSans-72" x="176.765625"/>
     <use xlink:href="#DejaVuSans-6e" x="216.128906"/>
     <use xlink:href="#DejaVuSans-69" x="279.507812"/>
     <use xlink:href="#DejaVuSans-6e" x="307.291016"/>
     <use xlink:href="#DejaVuSans-67" x="370.669922"/>
     <use xlink:href="#DejaVuSans-20" x="434.146484"/>
     <use xlink:href="#DejaVuSans-43" x="465.933594"/>
     <use xlink:href="#DejaVuSans-75" x="535.757812"/>
     <use xlink:href="#DejaVuSans-72" x="599.136719"/>
     <use xlink:href="#DejaVuSans-76" x="640.25"/>
     <use xlink:href="#DejaVuSans-65" x="699.429688"/>
     <use xlink:href="#DejaVuSans-73" x="760.953125"/>
    </g>
   </g>
   <g id="legend_1">
    <g id="patch_7">
     <path d="M 214.18875 302.584 
L 407.72 302.584 
Q 409.72 302.584 409.72 300.584 
L 409.72 228.193375 
Q 409.72 226.193375 407.72 226.193375 
L 214.18875 226.193375 
Q 212.18875 226.193375 212.18875 228.193375 
L 212.18875 300.584 
Q 212.18875 302.584 214.18875 302.584 
z
" style="fill: #ffffff; opacity: 0.8; stroke: #cccccc; stroke-linejoin: miter"/>
    </g>
    <g id="line2d_24">
     <path d="M 216.18875 234.291812 
L 226.18875 234.291812 
L 236.18875 234.291812 
" style="fill: none; stroke: #1f77b4; stroke-width: 1.5; stroke-linecap: square"/>
    </g>
    <g id="text_22">
     <!-- Train Accuracy -->
     <g transform="translate(244.18875 237.791812) scale(0.1 -0.1)">
      <defs>
       <path id="DejaVuSans-54" d="M -19 4666 
L 3928 4666 
L 3928 4134 
L 2272 4134 
L 2272 0 
L 1638 0 
L 1638 4134 
L -19 4134 
L -19 4666 
z
" transform="scale(0.015625)"/>
      </defs>
      <use xlink:href="#DejaVuSans-54"/>
      <use xlink:href="#DejaVuSans-72" x="46.333984"/>
      <use xlink:href="#DejaVuSans-61" x="87.447266"/>
      <use xlink:href="#DejaVuSans-69" x="148.726562"/>
      <use xlink:href="#DejaVuSans-6e" x="176.509766"/>
      <use xlink:href="#DejaVuSans-20" x="239.888672"/>
      <use xlink:href="#DejaVuSans-41" x="271.675781"/>
      <use xlink:href="#DejaVuSans-63" x="338.333984"/>
      <use xlink:href="#DejaVuSans-63" x="393.314453"/>
      <use xlink:href="#DejaVuSans-75" x="448.294922"/>
      <use xlink:href="#DejaVuSans-72" x="511.673828"/>
      <use xlink:href="#DejaVuSans-61" x="552.787109"/>
      <use xlink:href="#DejaVuSans-63" x="614.066406"/>
      <use xlink:href="#DejaVuSans-79" x="669.046875"/>
     </g>
    </g>
    <g id="line2d_25">
     <path d="M 216.18875 248.969937 
L 226.18875 248.969937 
L 236.18875 248.969937 
" style="fill: none; stroke: #ff7f0e; stroke-width: 1.5; stroke-linecap: square"/>
    </g>
    <g id="text_23">
     <!-- Validation Accuracy -->
     <g transform="translate(244.18875 252.469937) scale(0.1 -0.1)">
      <defs>
       <path id="DejaVuSans-56" d="M 1831 0 
L 50 4666 
L 709 4666 
L 2188 738 
L 3669 4666 
L 4325 4666 
L 2547 0 
L 1831 0 
z
" transform="scale(0.015625)"/>
       <path id="DejaVuSans-6c" d="M 603 4863 
L 1178 4863 
L 1178 0 
L 603 0 
L 603 4863 
z
" transform="scale(0.015625)"/>
       <path id="DejaVuSans-64" d="M 2906 2969 
L 2906 4863 
L 3481 4863 
L 3481 0 
L 2906 0 
L 2906 525 
Q 2725 213 2448 61 
Q 2172 -91 1784 -91 
Q 1150 -91 751 415 
Q 353 922 353 1747 
Q 353 2572 751 3078 
Q 1150 3584 1784 3584 
Q 2172 3584 2448 3432 
Q 2725 3281 2906 2969 
z
M 947 1747 
Q 947 1113 1208 752 
Q 1469 391 1925 391 
Q 2381 391 2643 752 
Q 2906 1113 2906 1747 
Q 2906 2381 2643 2742 
Q 2381 3103 1925 3103 
Q 1469 3103 1208 2742 
Q 947 2381 947 1747 
z
" transform="scale(0.015625)"/>
       <path id="DejaVuSans-74" d="M 1172 4494 
L 1172 3500 
L 2356 3500 
L 2356 3053 
L 1172 3053 
L 1172 1153 
Q 1172 725 1289 603 
Q 1406 481 1766 481 
L 2356 481 
L 2356 0 
L 1766 0 
Q 1100 0 847 248 
Q 594 497 594 1153 
L 594 3053 
L 172 3053 
L 172 3500 
L 594 3500 
L 594 4494 
L 1172 4494 
z
" transform="scale(0.015625)"/>
      </defs>
      <use xlink:href="#DejaVuSans-56"/>
      <use xlink:href="#DejaVuSans-61" x="60.658203"/>
      <use xlink:href="#DejaVuSans-6c" x="121.9375"/>
      <use xlink:href="#DejaVuSans-69" x="149.720703"/>
      <use xlink:href="#DejaVuSans-64" x="177.503906"/>
      <use xlink:href="#DejaVuSans-61" x="240.980469"/>
      <use xlink:href="#DejaVuSans-74" x="302.259766"/>
      <use xlink:href="#DejaVuSans-69" x="341.46875"/>
      <use xlink:href="#DejaVuSans-6f" x="369.251953"/>
      <use xlink:href="#DejaVuSans-6e" x="430.433594"/>
      <use xlink:href="#DejaVuSans-20" x="493.8125"/>
      <use xlink:href="#DejaVuSans-41" x="525.599609"/>
      <use xlink:href="#DejaVuSans-63" x="592.257812"/>
      <use xlink:href="#DejaVuSans-63" x="647.238281"/>
      <use xlink:href="#DejaVuSans-75" x="702.21875"/>
      <use xlink:href="#DejaVuSans-72" x="765.597656"/>
      <use xlink:href="#DejaVuSans-61" x="806.710938"/>
      <use xlink:href="#DejaVuSans-63" x="867.990234"/>
      <use xlink:href="#DejaVuSans-79" x="922.970703"/>
     </g>
    </g>
    <g id="line2d_26">
     <path d="M 216.18875 263.648062 
L 226.18875 263.648062 
L 236.18875 263.648062 
" style="fill: none; stroke: #2ca02c; stroke-width: 1.5; stroke-linecap: square"/>
    </g>
    <g id="text_24">
     <!-- Robust Validation Accuracy -->
     <g transform="translate(244.18875 267.148062) scale(0.1 -0.1)">
      <defs>
       <path id="DejaVuSans-52" d="M 2841 2188 
Q 3044 2119 3236 1894 
Q 3428 1669 3622 1275 
L 4263 0 
L 3584 0 
L 2988 1197 
Q 2756 1666 2539 1819 
Q 2322 1972 1947 1972 
L 1259 1972 
L 1259 0 
L 628 0 
L 628 4666 
L 2053 4666 
Q 2853 4666 3247 4331 
Q 3641 3997 3641 3322 
Q 3641 2881 3436 2590 
Q 3231 2300 2841 2188 
z
M 1259 4147 
L 1259 2491 
L 2053 2491 
Q 2509 2491 2742 2702 
Q 2975 2913 2975 3322 
Q 2975 3731 2742 3939 
Q 2509 4147 2053 4147 
L 1259 4147 
z
" transform="scale(0.015625)"/>
       <path id="DejaVuSans-62" d="M 3116 1747 
Q 3116 2381 2855 2742 
Q 2594 3103 2138 3103 
Q 1681 3103 1420 2742 
Q 1159 2381 1159 1747 
Q 1159 1113 1420 752 
Q 1681 391 2138 391 
Q 2594 391 2855 752 
Q 3116 1113 3116 1747 
z
M 1159 2969 
Q 1341 3281 1617 3432 
Q 1894 3584 2278 3584 
Q 2916 3584 3314 3078 
Q 3713 2572 3713 1747 
Q 3713 922 3314 415 
Q 2916 -91 2278 -91 
Q 1894 -91 1617 61 
Q 1341 213 1159 525 
L 1159 0 
L 581 0 
L 581 4863 
L 1159 4863 
L 1159 2969 
z
" transform="scale(0.015625)"/>
      </defs>
      <use xlink:href="#DejaVuSans-52"/>
      <use xlink:href="#DejaVuSans-6f" x="64.982422"/>
      <use xlink:href="#DejaVuSans-62" x="126.164062"/>
      <use xlink:href="#DejaVuSans-75" x="189.640625"/>
      <use xlink:href="#DejaVuSans-73" x="253.019531"/>
      <use xlink:href="#DejaVuSans-74" x="305.119141"/>
      <use xlink:href="#DejaVuSans-20" x="344.328125"/>
      <use xlink:href="#DejaVuSans-56" x="376.115234"/>
      <use xlink:href="#DejaVuSans-61" x="436.773438"/>
      <use xlink:href="#DejaVuSans-6c" x="498.052734"/>
      <use xlink:href="#DejaVuSans-69" x="525.835938"/>
      <use xlink:href="#DejaVuSans-64" x="553.619141"/>
      <use xlink:href="#DejaVuSans-61" x="617.095703"/>
      <use xlink:href="#DejaVuSans-74" x="678.375"/>
      <use xlink:href="#DejaVuSans-69" x="717.583984"/>
      <use xlink:href="#DejaVuSans-6f" x="745.367188"/>
      <use xlink:href="#DejaVuSans-6e" x="806.548828"/>
      <use xlink:href="#DejaVuSans-20" x="869.927734"/>
      <use xlink:href="#DejaVuSans-41" x="901.714844"/>
      <use xlink:href="#DejaVuSans-63" x="968.373047"/>
      <use xlink:href="#DejaVuSans-63" x="1023.353516"/>
      <use xlink:href="#DejaVuSans-75" x="1078.333984"/>
      <use xlink:href="#DejaVuSans-72" x="1141.712891"/>
      <use xlink:href="#DejaVuSans-61" x="1182.826172"/>
      <use xlink:href="#DejaVuSans-63" x="1244.105469"/>
      <use xlink:href="#DejaVuSans-79" x="1299.085938"/>
     </g>
    </g>
    <g id="line2d_27">
     <path d="M 216.18875 278.326188 
L 226.18875 278.326188 
L 236.18875 278.326188 
" style="fill: none; stroke: #d62728; stroke-width: 1.5; stroke-linecap: square"/>
    </g>
    <g id="text_25">
     <!-- SWA Validation Accuracy -->
     <g transform="translate(244.18875 281.826188) scale(0.1 -0.1)">
      <defs>
       <path id="DejaVuSans-53" d="M 3425 4513 
L 3425 3897 
Q 3066 4069 2747 4153 
Q 2428 4238 2131 4238 
Q 1616 4238 1336 4038 
Q 1056 3838 1056 3469 
Q 1056 3159 1242 3001 
Q 1428 2844 1947 2747 
L 2328 2669 
Q 3034 2534 3370 2195 
Q 3706 1856 3706 1288 
Q 3706 609 3251 259 
Q 2797 -91 1919 -91 
Q 1588 -91 1214 -16 
Q 841 59 441 206 
L 441 856 
Q 825 641 1194 531 
Q 1563 422 1919 422 
Q 2459 422 2753 634 
Q 3047 847 3047 1241 
Q 3047 1584 2836 1778 
Q 2625 1972 2144 2069 
L 1759 2144 
Q 1053 2284 737 2584 
Q 422 2884 422 3419 
Q 422 4038 858 4394 
Q 1294 4750 2059 4750 
Q 2388 4750 2728 4690 
Q 3069 4631 3425 4513 
z
" transform="scale(0.015625)"/>
       <path id="DejaVuSans-57" d="M 213 4666 
L 850 4666 
L 1831 722 
L 2809 4666 
L 3519 4666 
L 4500 722 
L 5478 4666 
L 6119 4666 
L 4947 0 
L 4153 0 
L 3169 4050 
L 2175 0 
L 1381 0 
L 213 4666 
z
" transform="scale(0.015625)"/>
      </defs>
      <use xlink:href="#DejaVuSans-53"/>
      <use xlink:href="#DejaVuSans-57" x="63.476562"/>
      <use xlink:href="#DejaVuSans-41" x="156.853516"/>
      <use xlink:href="#DejaVuSans-20" x="225.261719"/>
      <use xlink:href="#DejaVuSans-56" x="257.048828"/>
      <use xlink:href="#DejaVuSans-61" x="317.707031"/>
      <use xlink:href="#DejaVuSans-6c" x="378.986328"/>
      <use xlink:href="#DejaVuSans-69" x="406.769531"/>
      <use xlink:href="#DejaVuSans-64" x="434.552734"/>
      <use xlink:href="#DejaVuSans-61" x="498.029297"/>
      <use xlink:href="#DejaVuSans-74" x="559.308594"/>
      <use xlink:href="#DejaVuSans-69" x="598.517578"/>
      <use xlink:href="#DejaVuSans-6f" x="626.300781"/>
      <use xlink:href="#DejaVuSans-6e" x="687.482422"/>
      <use xlink:href="#DejaVuSans-20" x="750.861328"/>
      <use xlink:href="#DejaVuSans-41" x="782.648438"/>
      <use xlink:href="#DejaVuSans-63" x="849.306641"/>
      <use xlink:href="#DejaVuSans-63" x="904.287109"/>
      <use xlink:href="#DejaVuSans-75" x="959.267578"/>
      <use xlink:href="#DejaVuSans-72" x="1022.646484"/>
      <use xlink:href="#DejaVuSans-61" x="1063.759766"/>
      <use xlink:href="#DejaVuSans-63" x="1125.039062"/>
      <use xlink:href="#DejaVuSans-79" x="1180.019531"/>
     </g>
    </g>
    <g id="line2d_28">
     <path d="M 216.18875 293.004312 
L 226.18875 293.004312 
L 236.18875 293.004312 
" style="fill: none; stroke: #9467bd; stroke-width: 1.5; stroke-linecap: square"/>
    </g>
    <g id="text_26">
     <!-- SWA Robust Validation Accuracy -->
     <g transform="translate(244.18875 296.504312) scale(0.1 -0.1)">
      <use xlink:href="#DejaVuSans-53"/>
      <use xlink:href="#DejaVuSans-57" x="63.476562"/>
      <use xlink:href="#DejaVuSans-41" x="156.853516"/>
      <use xlink:href="#DejaVuSans-20" x="225.261719"/>
      <use xlink:href="#DejaVuSans-52" x="257.048828"/>
      <use xlink:href="#DejaVuSans-6f" x="322.03125"/>
      <use xlink:href="#DejaVuSans-62" x="383.212891"/>
      <use xlink:href="#DejaVuSans-75" x="446.689453"/>
      <use xlink:href="#DejaVuSans-73" x="510.068359"/>
      <use xlink:href="#DejaVuSans-74" x="562.167969"/>
      <use xlink:href="#DejaVuSans-20" x="601.376953"/>
      <use xlink:href="#DejaVuSans-56" x="633.164062"/>
      <use xlink:href="#DejaVuSans-61" x="693.822266"/>
      <use xlink:href="#DejaVuSans-6c" x="755.101562"/>
      <use xlink:href="#DejaVuSans-69" x="782.884766"/>
      <use xlink:href="#DejaVuSans-64" x="810.667969"/>
      <use xlink:href="#DejaVuSans-61" x="874.144531"/>
      <use xlink:href="#DejaVuSans-74" x="935.423828"/>
      <use xlink:href="#DejaVuSans-69" x="974.632812"/>
      <use xlink:href="#DejaVuSans-6f" x="1002.416016"/>
      <use xlink:href="#DejaVuSans-6e" x="1063.597656"/>
      <use xlink:href="#DejaVuSans-20" x="1126.976562"/>
      <use xlink:href="#DejaVuSans-41" x="1158.763672"/>
      <use xlink:href="#DejaVuSans-63" x="1225.421875"/>
      <use xlink:href="#DejaVuSans-63" x="1280.402344"/>
      <use xlink:href="#DejaVuSans-75" x="1335.382812"/>
      <use xlink:href="#DejaVuSans-72" x="1398.761719"/>
      <use xlink:href="#DejaVuSans-61" x="1439.875"/>
      <use xlink:href="#DejaVuSans-63" x="1501.154297"/>
      <use xlink:href="#DejaVuSans-79" x="1556.134766"/>
     </g>
    </g>
   </g>
  </g>
 </g>
 <defs>
  <clipPath id="p6d0c9d0cc9">
   <rect x="57.6" y="41.472" width="357.12" height="266.112"/>
  </clipPath>
 </defs>
</svg>
