<?xml version="1.0" encoding="utf-8" standalone="no"?>
<!DOCTYPE svg PUBLIC "-//W3C//DTD SVG 1.1//EN"
  "http://www.w3.org/Graphics/SVG/1.1/DTD/svg11.dtd">
<svg xmlns:xlink="http://www.w3.org/1999/xlink" width="460.8pt" height="345.6pt" viewBox="0 0 460.8 345.6" xmlns="http://www.w3.org/2000/svg" version="1.1">
 <metadata>
  <rdf:RDF xmlns:dc="http://purl.org/dc/elements/1.1/" xmlns:cc="http://creativecommons.org/ns#" xmlns:rdf="http://www.w3.org/1999/02/22-rdf-syntax-ns#">
   <cc:Work>
    <dc:type rdf:resource="http://purl.org/dc/dcmitype/StillImage"/>
    <dc:date>2025-05-05T20:16:13.998533</dc:date>
    <dc:format>image/svg+xml</dc:format>
    <dc:creator>
     <cc:Agent>
      <dc:title>Matplotlib v3.9.1, https://matplotlib.org/</dc:title>
     </cc:Agent>
    </dc:creator>
   </cc:Work>
  </rdf:RDF>
 </metadata>
 <defs>
  <style type="text/css">*{stroke-linejoin: round; stroke-linecap: butt}</style>
 </defs>
 <g id="figure_1">
  <g id="patch_1">
   <path d="M 0 345.6 
L 460.8 345.6 
L 460.8 0 
L 0 0 
z
" style="fill: #ffffff"/>
  </g>
  <g id="axes_1">
   <g id="patch_2">
    <path d="M 57.6 307.584 
L 414.72 307.584 
L 414.72 41.472 
L 57.6 41.472 
z
" style="fill: #ffffff"/>
   </g>
   <g id="matplotlib.axis_1">
    <g id="xtick_1">
     <g id="line2d_1">
      <defs>
       <path id="m4b54d931bf" d="M 0 0 
L 0 3.5 
" style="stroke: #000000; stroke-width: 0.8"/>
      </defs>
      <g>
       <use xlink:href="#m4b54d931bf" x="73.832727" y="307.584" style="stroke: #000000; stroke-width: 0.8"/>
      </g>
     </g>
     <g id="text_1">
      <!-- 1 -->
      <g transform="translate(70.651477 322.182437) scale(0.1 -0.1)">
       <defs>
        <path id="DejaVuSans-31" d="M 794 531 
L 1825 531 
L 1825 4091 
L 703 3866 
L 703 4441 
L 1819 4666 
L 2450 4666 
L 2450 531 
L 3481 531 
L 3481 0 
L 794 0 
L 794 531 
z
" transform="scale(0.015625)"/>
       </defs>
       <use xlink:href="#DejaVuSans-31"/>
      </g>
     </g>
    </g>
    <g id="xtick_2">
     <g id="line2d_2">
      <g>
       <use xlink:href="#m4b54d931bf" x="109.664165" y="307.584" style="stroke: #000000; stroke-width: 0.8"/>
      </g>
     </g>
     <g id="text_2">
      <!-- 34 -->
      <g transform="translate(103.301665 322.182437) scale(0.1 -0.1)">
       <defs>
        <path id="DejaVuSans-33" d="M 2597 2516 
Q 3050 2419 3304 2112 
Q 3559 1806 3559 1356 
Q 3559 666 3084 287 
Q 2609 -91 1734 -91 
Q 1441 -91 1130 -33 
Q 819 25 488 141 
L 488 750 
Q 750 597 1062 519 
Q 1375 441 1716 441 
Q 2309 441 2620 675 
Q 2931 909 2931 1356 
Q 2931 1769 2642 2001 
Q 2353 2234 1838 2234 
L 1294 2234 
L 1294 2753 
L 1863 2753 
Q 2328 2753 2575 2939 
Q 2822 3125 2822 3475 
Q 2822 3834 2567 4026 
Q 2313 4219 1838 4219 
Q 1578 4219 1281 4162 
Q 984 4106 628 3988 
L 628 4550 
Q 988 4650 1302 4700 
Q 1616 4750 1894 4750 
Q 2613 4750 3031 4423 
Q 3450 4097 3450 3541 
Q 3450 3153 3228 2886 
Q 3006 2619 2597 2516 
z
" transform="scale(0.015625)"/>
        <path id="DejaVuSans-34" d="M 2419 4116 
L 825 1625 
L 2419 1625 
L 2419 4116 
z
M 2253 4666 
L 3047 4666 
L 3047 1625 
L 3713 1625 
L 3713 1100 
L 3047 1100 
L 3047 0 
L 2419 0 
L 2419 1100 
L 313 1100 
L 313 1709 
L 2253 4666 
z
" transform="scale(0.015625)"/>
       </defs>
       <use xlink:href="#DejaVuSans-33"/>
       <use xlink:href="#DejaVuSans-34" x="63.623047"/>
      </g>
     </g>
    </g>
    <g id="xtick_3">
     <g id="line2d_3">
      <g>
       <use xlink:href="#m4b54d931bf" x="145.495604" y="307.584" style="stroke: #000000; stroke-width: 0.8"/>
      </g>
     </g>
     <g id="text_3">
      <!-- 67 -->
      <g transform="translate(139.133104 322.182437) scale(0.1 -0.1)">
       <defs>
        <path id="DejaVuSans-36" d="M 2113 2584 
Q 1688 2584 1439 2293 
Q 1191 2003 1191 1497 
Q 1191 994 1439 701 
Q 1688 409 2113 409 
Q 2538 409 2786 701 
Q 3034 994 3034 1497 
Q 3034 2003 2786 2293 
Q 2538 2584 2113 2584 
z
M 3366 4563 
L 3366 3988 
Q 3128 4100 2886 4159 
Q 2644 4219 2406 4219 
Q 1781 4219 1451 3797 
Q 1122 3375 1075 2522 
Q 1259 2794 1537 2939 
Q 1816 3084 2150 3084 
Q 2853 3084 3261 2657 
Q 3669 2231 3669 1497 
Q 3669 778 3244 343 
Q 2819 -91 2113 -91 
Q 1303 -91 875 529 
Q 447 1150 447 2328 
Q 447 3434 972 4092 
Q 1497 4750 2381 4750 
Q 2619 4750 2861 4703 
Q 3103 4656 3366 4563 
z
" transform="scale(0.015625)"/>
        <path id="DejaVuSans-37" d="M 525 4666 
L 3525 4666 
L 3525 4397 
L 1831 0 
L 1172 0 
L 2766 4134 
L 525 4134 
L 525 4666 
z
" transform="scale(0.015625)"/>
       </defs>
       <use xlink:href="#DejaVuSans-36"/>
       <use xlink:href="#DejaVuSans-37" x="63.623047"/>
      </g>
     </g>
    </g>
    <g id="xtick_4">
     <g id="line2d_4">
      <g>
       <use xlink:href="#m4b54d931bf" x="181.327042" y="307.584" style="stroke: #000000; stroke-width: 0.8"/>
      </g>
     </g>
     <g id="text_4">
      <!-- 100 -->
      <g transform="translate(171.783292 322.182437) scale(0.1 -0.1)">
       <defs>
        <path id="DejaVuSans-30" d="M 2034 4250 
Q 1547 4250 1301 3770 
Q 1056 3291 1056 2328 
Q 1056 1369 1301 889 
Q 1547 409 2034 409 
Q 2525 409 2770 889 
Q 3016 1369 3016 2328 
Q 3016 3291 2770 3770 
Q 2525 4250 2034 4250 
z
M 2034 4750 
Q 2819 4750 3233 4129 
Q 3647 3509 3647 2328 
Q 3647 1150 3233 529 
Q 2819 -91 2034 -91 
Q 1250 -91 836 529 
Q 422 1150 422 2328 
Q 422 3509 836 4129 
Q 1250 4750 2034 4750 
z
" transform="scale(0.015625)"/>
       </defs>
       <use xlink:href="#DejaVuSans-31"/>
       <use xlink:href="#DejaVuSans-30" x="63.623047"/>
       <use xlink:href="#DejaVuSans-30" x="127.246094"/>
      </g>
     </g>
    </g>
    <g id="xtick_5">
     <g id="line2d_5">
      <g>
       <use xlink:href="#m4b54d931bf" x="217.15848" y="307.584" style="stroke: #000000; stroke-width: 0.8"/>
      </g>
     </g>
     <g id="text_5">
      <!-- 133 -->
      <g transform="translate(207.61473 322.182437) scale(0.1 -0.1)">
       <use xlink:href="#DejaVuSans-31"/>
       <use xlink:href="#DejaVuSans-33" x="63.623047"/>
       <use xlink:href="#DejaVuSans-33" x="127.246094"/>
      </g>
     </g>
    </g>
    <g id="xtick_6">
     <g id="line2d_6">
      <g>
       <use xlink:href="#m4b54d931bf" x="254.075719" y="307.584" style="stroke: #000000; stroke-width: 0.8"/>
      </g>
     </g>
     <g id="text_6">
      <!-- 167 -->
      <g transform="translate(244.531969 322.182437) scale(0.1 -0.1)">
       <use xlink:href="#DejaVuSans-31"/>
       <use xlink:href="#DejaVuSans-36" x="63.623047"/>
       <use xlink:href="#DejaVuSans-37" x="127.246094"/>
      </g>
     </g>
    </g>
    <g id="xtick_7">
     <g id="line2d_7">
      <g>
       <use xlink:href="#m4b54d931bf" x="289.907157" y="307.584" style="stroke: #000000; stroke-width: 0.8"/>
      </g>
     </g>
     <g id="text_7">
      <!-- 200 -->
      <g transform="translate(280.363407 322.182437) scale(0.1 -0.1)">
       <defs>
        <path id="DejaVuSans-32" d="M 1228 531 
L 3431 531 
L 3431 0 
L 469 0 
L 469 531 
Q 828 903 1448 1529 
Q 2069 2156 2228 2338 
Q 2531 2678 2651 2914 
Q 2772 3150 2772 3378 
Q 2772 3750 2511 3984 
Q 2250 4219 1831 4219 
Q 1534 4219 1204 4116 
Q 875 4013 500 3803 
L 500 4441 
Q 881 4594 1212 4672 
Q 1544 4750 1819 4750 
Q 2544 4750 2975 4387 
Q 3406 4025 3406 3419 
Q 3406 3131 3298 2873 
Q 3191 2616 2906 2266 
Q 2828 2175 2409 1742 
Q 1991 1309 1228 531 
z
" transform="scale(0.015625)"/>
       </defs>
       <use xlink:href="#DejaVuSans-32"/>
       <use xlink:href="#DejaVuSans-30" x="63.623047"/>
       <use xlink:href="#DejaVuSans-30" x="127.246094"/>
      </g>
     </g>
    </g>
    <g id="xtick_8">
     <g id="line2d_8">
      <g>
       <use xlink:href="#m4b54d931bf" x="325.738595" y="307.584" style="stroke: #000000; stroke-width: 0.8"/>
      </g>
     </g>
     <g id="text_8">
      <!-- 233 -->
      <g transform="translate(316.194845 322.182437) scale(0.1 -0.1)">
       <use xlink:href="#DejaVuSans-32"/>
       <use xlink:href="#DejaVuSans-33" x="63.623047"/>
       <use xlink:href="#DejaVuSans-33" x="127.246094"/>
      </g>
     </g>
    </g>
    <g id="xtick_9">
     <g id="line2d_9">
      <g>
       <use xlink:href="#m4b54d931bf" x="361.570033" y="307.584" style="stroke: #000000; stroke-width: 0.8"/>
      </g>
     </g>
     <g id="text_9">
      <!-- 266 -->
      <g transform="translate(352.026283 322.182437) scale(0.1 -0.1)">
       <use xlink:href="#DejaVuSans-32"/>
       <use xlink:href="#DejaVuSans-36" x="63.623047"/>
       <use xlink:href="#DejaVuSans-36" x="127.246094"/>
      </g>
     </g>
    </g>
    <g id="xtick_10">
     <g id="line2d_10">
      <g>
       <use xlink:href="#m4b54d931bf" x="398.487273" y="307.584" style="stroke: #000000; stroke-width: 0.8"/>
      </g>
     </g>
     <g id="text_10">
      <!-- 300 -->
      <g transform="translate(388.943523 322.182437) scale(0.1 -0.1)">
       <use xlink:href="#DejaVuSans-33"/>
       <use xlink:href="#DejaVuSans-30" x="63.623047"/>
       <use xlink:href="#DejaVuSans-30" x="127.246094"/>
      </g>
     </g>
    </g>
    <g id="text_11">
     <!-- Epochs -->
     <g transform="translate(218.244375 335.860562) scale(0.1 -0.1)">
      <defs>
       <path id="DejaVuSans-45" d="M 628 4666 
L 3578 4666 
L 3578 4134 
L 1259 4134 
L 1259 2753 
L 3481 2753 
L 3481 2222 
L 1259 2222 
L 1259 531 
L 3634 531 
L 3634 0 
L 628 0 
L 628 4666 
z
" transform="scale(0.015625)"/>
       <path id="DejaVuSans-70" d="M 1159 525 
L 1159 -1331 
L 581 -1331 
L 581 3500 
L 1159 3500 
L 1159 2969 
Q 1341 3281 1617 3432 
Q 1894 3584 2278 3584 
Q 2916 3584 3314 3078 
Q 3713 2572 3713 1747 
Q 3713 922 3314 415 
Q 2916 -91 2278 -91 
Q 1894 -91 1617 61 
Q 1341 213 1159 525 
z
M 3116 1747 
Q 3116 2381 2855 2742 
Q 2594 3103 2138 3103 
Q 1681 3103 1420 2742 
Q 1159 2381 1159 1747 
Q 1159 1113 1420 752 
Q 1681 391 2138 391 
Q 2594 391 2855 752 
Q 3116 1113 3116 1747 
z
" transform="scale(0.015625)"/>
       <path id="DejaVuSans-6f" d="M 1959 3097 
Q 1497 3097 1228 2736 
Q 959 2375 959 1747 
Q 959 1119 1226 758 
Q 1494 397 1959 397 
Q 2419 397 2687 759 
Q 2956 1122 2956 1747 
Q 2956 2369 2687 2733 
Q 2419 3097 1959 3097 
z
M 1959 3584 
Q 2709 3584 3137 3096 
Q 3566 2609 3566 1747 
Q 3566 888 3137 398 
Q 2709 -91 1959 -91 
Q 1206 -91 779 398 
Q 353 888 353 1747 
Q 353 2609 779 3096 
Q 1206 3584 1959 3584 
z
" transform="scale(0.015625)"/>
       <path id="DejaVuSans-63" d="M 3122 3366 
L 3122 2828 
Q 2878 2963 2633 3030 
Q 2388 3097 2138 3097 
Q 1578 3097 1268 2742 
Q 959 2388 959 1747 
Q 959 1106 1268 751 
Q 1578 397 2138 397 
Q 2388 397 2633 464 
Q 2878 531 3122 666 
L 3122 134 
Q 2881 22 2623 -34 
Q 2366 -91 2075 -91 
Q 1284 -91 818 406 
Q 353 903 353 1747 
Q 353 2603 823 3093 
Q 1294 3584 2113 3584 
Q 2378 3584 2631 3529 
Q 2884 3475 3122 3366 
z
" transform="scale(0.015625)"/>
       <path id="DejaVuSans-68" d="M 3513 2113 
L 3513 0 
L 2938 0 
L 2938 2094 
Q 2938 2591 2744 2837 
Q 2550 3084 2163 3084 
Q 1697 3084 1428 2787 
Q 1159 2491 1159 1978 
L 1159 0 
L 581 0 
L 581 4863 
L 1159 4863 
L 1159 2956 
Q 1366 3272 1645 3428 
Q 1925 3584 2291 3584 
Q 2894 3584 3203 3211 
Q 3513 2838 3513 2113 
z
" transform="scale(0.015625)"/>
       <path id="DejaVuSans-73" d="M 2834 3397 
L 2834 2853 
Q 2591 2978 2328 3040 
Q 2066 3103 1784 3103 
Q 1356 3103 1142 2972 
Q 928 2841 928 2578 
Q 928 2378 1081 2264 
Q 1234 2150 1697 2047 
L 1894 2003 
Q 2506 1872 2764 1633 
Q 3022 1394 3022 966 
Q 3022 478 2636 193 
Q 2250 -91 1575 -91 
Q 1294 -91 989 -36 
Q 684 19 347 128 
L 347 722 
Q 666 556 975 473 
Q 1284 391 1588 391 
Q 1994 391 2212 530 
Q 2431 669 2431 922 
Q 2431 1156 2273 1281 
Q 2116 1406 1581 1522 
L 1381 1569 
Q 847 1681 609 1914 
Q 372 2147 372 2553 
Q 372 3047 722 3315 
Q 1072 3584 1716 3584 
Q 2034 3584 2315 3537 
Q 2597 3491 2834 3397 
z
" transform="scale(0.015625)"/>
      </defs>
      <use xlink:href="#DejaVuSans-45"/>
      <use xlink:href="#DejaVuSans-70" x="63.183594"/>
      <use xlink:href="#DejaVuSans-6f" x="126.660156"/>
      <use xlink:href="#DejaVuSans-63" x="187.841797"/>
      <use xlink:href="#DejaVuSans-68" x="242.822266"/>
      <use xlink:href="#DejaVuSans-73" x="306.201172"/>
     </g>
    </g>
   </g>
   <g id="matplotlib.axis_2">
    <g id="ytick_1">
     <g id="line2d_11">
      <defs>
       <path id="m222ef486bf" d="M 0 0 
L -3.5 0 
" style="stroke: #000000; stroke-width: 0.8"/>
      </defs>
      <g>
       <use xlink:href="#m222ef486bf" x="57.6" y="280.292784" style="stroke: #000000; stroke-width: 0.8"/>
      </g>
     </g>
     <g id="text_12">
      <!-- 10 -->
      <g transform="translate(37.875 284.092003) scale(0.1 -0.1)">
       <use xlink:href="#DejaVuSans-31"/>
       <use xlink:href="#DejaVuSans-30" x="63.623047"/>
      </g>
     </g>
    </g>
    <g id="ytick_2">
     <g id="line2d_12">
      <g>
       <use xlink:href="#m222ef486bf" x="57.6" y="248.622888" style="stroke: #000000; stroke-width: 0.8"/>
      </g>
     </g>
     <g id="text_13">
      <!-- 20 -->
      <g transform="translate(37.875 252.422107) scale(0.1 -0.1)">
       <use xlink:href="#DejaVuSans-32"/>
       <use xlink:href="#DejaVuSans-30" x="63.623047"/>
      </g>
     </g>
    </g>
    <g id="ytick_3">
     <g id="line2d_13">
      <g>
       <use xlink:href="#m222ef486bf" x="57.6" y="216.952992" style="stroke: #000000; stroke-width: 0.8"/>
      </g>
     </g>
     <g id="text_14">
      <!-- 30 -->
      <g transform="translate(37.875 220.752211) scale(0.1 -0.1)">
       <use xlink:href="#DejaVuSans-33"/>
       <use xlink:href="#DejaVuSans-30" x="63.623047"/>
      </g>
     </g>
    </g>
    <g id="ytick_4">
     <g id="line2d_14">
      <g>
       <use xlink:href="#m222ef486bf" x="57.6" y="185.283097" style="stroke: #000000; stroke-width: 0.8"/>
      </g>
     </g>
     <g id="text_15">
      <!-- 40 -->
      <g transform="translate(37.875 189.082315) scale(0.1 -0.1)">
       <use xlink:href="#DejaVuSans-34"/>
       <use xlink:href="#DejaVuSans-30" x="63.623047"/>
      </g>
     </g>
    </g>
    <g id="ytick_5">
     <g id="line2d_15">
      <g>
       <use xlink:href="#m222ef486bf" x="57.6" y="153.613201" style="stroke: #000000; stroke-width: 0.8"/>
      </g>
     </g>
     <g id="text_16">
      <!-- 50 -->
      <g transform="translate(37.875 157.41242) scale(0.1 -0.1)">
       <defs>
        <path id="DejaVuSans-35" d="M 691 4666 
L 3169 4666 
L 3169 4134 
L 1269 4134 
L 1269 2991 
Q 1406 3038 1543 3061 
Q 1681 3084 1819 3084 
Q 2600 3084 3056 2656 
Q 3513 2228 3513 1497 
Q 3513 744 3044 326 
Q 2575 -91 1722 -91 
Q 1428 -91 1123 -41 
Q 819 9 494 109 
L 494 744 
Q 775 591 1075 516 
Q 1375 441 1709 441 
Q 2250 441 2565 725 
Q 2881 1009 2881 1497 
Q 2881 1984 2565 2268 
Q 2250 2553 1709 2553 
Q 1456 2553 1204 2497 
Q 953 2441 691 2322 
L 691 4666 
z
" transform="scale(0.015625)"/>
       </defs>
       <use xlink:href="#DejaVuSans-35"/>
       <use xlink:href="#DejaVuSans-30" x="63.623047"/>
      </g>
     </g>
    </g>
    <g id="ytick_6">
     <g id="line2d_16">
      <g>
       <use xlink:href="#m222ef486bf" x="57.6" y="121.943305" style="stroke: #000000; stroke-width: 0.8"/>
      </g>
     </g>
     <g id="text_17">
      <!-- 60 -->
      <g transform="translate(37.875 125.742524) scale(0.1 -0.1)">
       <use xlink:href="#DejaVuSans-36"/>
       <use xlink:href="#DejaVuSans-30" x="63.623047"/>
      </g>
     </g>
    </g>
    <g id="ytick_7">
     <g id="line2d_17">
      <g>
       <use xlink:href="#m222ef486bf" x="57.6" y="90.273409" style="stroke: #000000; stroke-width: 0.8"/>
      </g>
     </g>
     <g id="text_18">
      <!-- 70 -->
      <g transform="translate(37.875 94.072628) scale(0.1 -0.1)">
       <use xlink:href="#DejaVuSans-37"/>
       <use xlink:href="#DejaVuSans-30" x="63.623047"/>
      </g>
     </g>
    </g>
    <g id="ytick_8">
     <g id="line2d_18">
      <g>
       <use xlink:href="#m222ef486bf" x="57.6" y="58.603513" style="stroke: #000000; stroke-width: 0.8"/>
      </g>
     </g>
     <g id="text_19">
      <!-- 80 -->
      <g transform="translate(37.875 62.402732) scale(0.1 -0.1)">
       <defs>
        <path id="DejaVuSans-38" d="M 2034 2216 
Q 1584 2216 1326 1975 
Q 1069 1734 1069 1313 
Q 1069 891 1326 650 
Q 1584 409 2034 409 
Q 2484 409 2743 651 
Q 3003 894 3003 1313 
Q 3003 1734 2745 1975 
Q 2488 2216 2034 2216 
z
M 1403 2484 
Q 997 2584 770 2862 
Q 544 3141 544 3541 
Q 544 4100 942 4425 
Q 1341 4750 2034 4750 
Q 2731 4750 3128 4425 
Q 3525 4100 3525 3541 
Q 3525 3141 3298 2862 
Q 3072 2584 2669 2484 
Q 3125 2378 3379 2068 
Q 3634 1759 3634 1313 
Q 3634 634 3220 271 
Q 2806 -91 2034 -91 
Q 1263 -91 848 271 
Q 434 634 434 1313 
Q 434 1759 690 2068 
Q 947 2378 1403 2484 
z
M 1172 3481 
Q 1172 3119 1398 2916 
Q 1625 2713 2034 2713 
Q 2441 2713 2670 2916 
Q 2900 3119 2900 3481 
Q 2900 3844 2670 4047 
Q 2441 4250 2034 4250 
Q 1625 4250 1398 4047 
Q 1172 3844 1172 3481 
z
" transform="scale(0.015625)"/>
       </defs>
       <use xlink:href="#DejaVuSans-38"/>
       <use xlink:href="#DejaVuSans-30" x="63.623047"/>
      </g>
     </g>
    </g>
    <g id="text_20">
     <!-- Accuracy -->
     <g transform="translate(31.795312 197.356125) rotate(-90) scale(0.1 -0.1)">
      <defs>
       <path id="DejaVuSans-41" d="M 2188 4044 
L 1331 1722 
L 3047 1722 
L 2188 4044 
z
M 1831 4666 
L 2547 4666 
L 4325 0 
L 3669 0 
L 3244 1197 
L 1141 1197 
L 716 0 
L 50 0 
L 1831 4666 
z
" transform="scale(0.015625)"/>
       <path id="DejaVuSans-75" d="M 544 1381 
L 544 3500 
L 1119 3500 
L 1119 1403 
Q 1119 906 1312 657 
Q 1506 409 1894 409 
Q 2359 409 2629 706 
Q 2900 1003 2900 1516 
L 2900 3500 
L 3475 3500 
L 3475 0 
L 2900 0 
L 2900 538 
Q 2691 219 2414 64 
Q 2138 -91 1772 -91 
Q 1169 -91 856 284 
Q 544 659 544 1381 
z
M 1991 3584 
L 1991 3584 
z
" transform="scale(0.015625)"/>
       <path id="DejaVuSans-72" d="M 2631 2963 
Q 2534 3019 2420 3045 
Q 2306 3072 2169 3072 
Q 1681 3072 1420 2755 
Q 1159 2438 1159 1844 
L 1159 0 
L 581 0 
L 581 3500 
L 1159 3500 
L 1159 2956 
Q 1341 3275 1631 3429 
Q 1922 3584 2338 3584 
Q 2397 3584 2469 3576 
Q 2541 3569 2628 3553 
L 2631 2963 
z
" transform="scale(0.015625)"/>
       <path id="DejaVuSans-61" d="M 2194 1759 
Q 1497 1759 1228 1600 
Q 959 1441 959 1056 
Q 959 750 1161 570 
Q 1363 391 1709 391 
Q 2188 391 2477 730 
Q 2766 1069 2766 1631 
L 2766 1759 
L 2194 1759 
z
M 3341 1997 
L 3341 0 
L 2766 0 
L 2766 531 
Q 2569 213 2275 61 
Q 1981 -91 1556 -91 
Q 1019 -91 701 211 
Q 384 513 384 1019 
Q 384 1609 779 1909 
Q 1175 2209 1959 2209 
L 2766 2209 
L 2766 2266 
Q 2766 2663 2505 2880 
Q 2244 3097 1772 3097 
Q 1472 3097 1187 3025 
Q 903 2953 641 2809 
L 641 3341 
Q 956 3463 1253 3523 
Q 1550 3584 1831 3584 
Q 2591 3584 2966 3190 
Q 3341 2797 3341 1997 
z
" transform="scale(0.015625)"/>
       <path id="DejaVuSans-79" d="M 2059 -325 
Q 1816 -950 1584 -1140 
Q 1353 -1331 966 -1331 
L 506 -1331 
L 506 -850 
L 844 -850 
Q 1081 -850 1212 -737 
Q 1344 -625 1503 -206 
L 1606 56 
L 191 3500 
L 800 3500 
L 1894 763 
L 2988 3500 
L 3597 3500 
L 2059 -325 
z
" transform="scale(0.015625)"/>
      </defs>
      <use xlink:href="#DejaVuSans-41"/>
      <use xlink:href="#DejaVuSans-63" x="66.658203"/>
      <use xlink:href="#DejaVuSans-63" x="121.638672"/>
      <use xlink:href="#DejaVuSans-75" x="176.619141"/>
      <use xlink:href="#DejaVuSans-72" x="239.998047"/>
      <use xlink:href="#DejaVuSans-61" x="281.111328"/>
      <use xlink:href="#DejaVuSans-63" x="342.390625"/>
      <use xlink:href="#DejaVuSans-79" x="397.371094"/>
     </g>
    </g>
   </g>
   <g id="line2d_19">
    <path d="M 73.832727 295.488 
L 74.918528 285.087606 
L 76.00433 272.806021 
L 77.090131 261.94958 
L 78.175932 256.55303 
L 80.347534 242.231903 
L 82.519137 230.754733 
L 84.690739 222.67891 
L 85.77654 214.394065 
L 86.862341 212.892912 
L 87.948142 211.10673 
L 89.033943 202.220157 
L 90.119745 202.688871 
L 91.205546 200.471979 
L 92.291347 195.31612 
L 93.377148 196.031859 
L 94.462949 195.09443 
L 95.54875 218.403474 
L 96.634552 214.552414 
L 97.720353 214.121704 
L 99.891955 207.002311 
L 100.977756 209.466229 
L 102.063557 203.588296 
L 103.149358 199.528216 
L 104.23516 200.231287 
L 105.320961 194.961417 
L 106.406762 193.719957 
L 107.492563 190.540299 
L 108.578364 190.077919 
L 109.664165 187.195958 
L 110.749967 185.365438 
L 111.835768 185.802483 
L 112.921569 183.990965 
L 114.00737 182.914188 
L 115.093171 174.268307 
L 116.178972 178.037024 
L 117.264773 175.813798 
L 118.350575 172.355445 
L 119.436376 174.242971 
L 120.522177 164.057932 
L 121.607978 168.270029 
L 122.693779 163.893249 
L 123.77958 161.752364 
L 124.865382 165.521082 
L 125.951183 161.315319 
L 127.036984 159.440462 
L 128.122785 158.76906 
L 129.208586 157.096889 
L 130.294387 153.974238 
L 131.380189 156.501495 
L 133.551791 157.096889 
L 134.637592 155.861763 
L 135.723393 154.347942 
L 136.809194 149.667132 
L 137.894995 152.00437 
L 138.980797 175.14873 
L 140.066598 178.702092 
L 141.152399 181.147008 
L 142.2382 181.35603 
L 143.324001 179.664857 
L 144.409802 178.733762 
L 145.495604 176.865238 
L 146.581405 180.716298 
L 147.667206 173.850264 
L 148.753007 174.230303 
L 149.838808 172.615138 
L 150.924609 174.369651 
L 152.01041 173.78059 
L 153.096212 170.34124 
L 154.182013 171.018976 
L 155.267814 162.582115 
L 156.353615 169.650836 
L 157.439416 166.984231 
L 158.525217 166.046802 
L 159.611019 161.365991 
L 160.69682 164.951024 
L 161.782621 164.957357 
L 162.868422 162.89248 
L 163.954223 168.175019 
L 165.040024 162.506108 
L 166.125825 163.633556 
L 167.211627 155.532397 
L 168.297428 158.496699 
L 169.383229 152.68844 
L 170.46903 155.79209 
L 171.554831 153.005139 
L 172.640632 158.122994 
L 173.726434 156.697849 
L 174.812235 150.838918 
L 175.898036 154.436618 
L 176.983837 151.579994 
L 178.069638 151.928362 
L 179.155439 151.51032 
L 180.24124 151.991702 
L 181.327042 150.154848 
L 182.412843 146.487474 
L 183.498644 150.009167 
L 184.584445 145.930084 
L 185.670246 143.934881 
L 186.756047 143.618182 
L 187.841849 142.839102 
L 188.92765 140.742555 
L 190.013451 144.181906 
L 191.099252 140.36885 
L 192.185053 142.826434 
L 193.270854 138.10762 
L 194.356656 137.556564 
L 195.442457 137.866929 
L 196.528258 134.528922 
L 197.614059 128.562313 
L 198.69986 133.414141 
L 199.785661 136.144086 
L 200.871462 137.448886 
L 201.957264 132.014332 
L 203.043065 136.270766 
L 204.128866 131.171913 
L 205.214667 123.501464 
L 206.300468 137.5819 
L 207.386269 128.581315 
L 208.472071 130.937555 
L 209.557872 130.81721 
L 211.729474 125.433328 
L 212.815275 132.546386 
L 213.901076 126.712791 
L 214.986877 126.554442 
L 216.072679 125.667685 
L 217.15848 126.99782 
L 218.244281 123.982846 
L 219.330082 126.269413 
L 220.415883 129.879781 
L 221.501684 123.900505 
L 222.587486 127.422197 
L 223.673287 126.953483 
L 224.759088 131.076903 
L 225.844889 154.056579 
L 226.93069 156.393818 
L 228.016491 161.106298 
L 229.102292 156.583837 
L 230.188094 159.510135 
L 231.273895 158.990749 
L 232.359696 158.731056 
L 233.445497 156.013779 
L 234.531298 159.275778 
L 235.617099 159.193436 
L 236.702901 158.617044 
L 237.788702 160.023188 
L 238.874503 158.534703 
L 239.960304 150.648899 
L 241.046105 151.979034 
L 242.131906 159.750827 
L 243.217708 155.811092 
L 244.303509 157.514932 
L 245.38931 154.702645 
L 246.475111 153.106482 
L 247.560912 154.772319 
L 248.646713 146.348127 
L 249.732514 156.210132 
L 250.818316 152.276731 
L 251.904117 154.98134 
L 252.989918 152.853123 
L 254.075719 157.065219 
L 255.16152 154.151589 
L 256.247321 148.723369 
L 257.333123 150.572891 
L 258.418924 153.974238 
L 259.504725 147.551583 
L 260.590526 150.636231 
L 261.676327 147.697264 
L 262.762128 148.913388 
L 263.847929 147.646592 
L 264.933731 154.088249 
L 266.019532 143.846205 
L 267.105333 145.163673 
L 268.191134 146.709164 
L 269.276935 145.695727 
L 270.362736 148.691699 
L 271.448538 147.811276 
L 272.534339 145.360026 
L 273.62014 142.522403 
L 275.791742 147.640258 
L 276.877543 144.802636 
L 277.963344 145.803405 
L 279.049146 143.250811 
L 280.134947 141.977681 
L 281.220748 143.282481 
L 282.306549 145.999758 
L 283.39235 140.489196 
L 284.478151 136.910498 
L 285.563953 144.770966 
L 286.649754 138.17096 
L 287.735555 142.345052 
L 288.821356 141.781328 
L 289.907157 140.660213 
L 290.992958 144.688624 
L 292.07876 137.341208 
L 293.164561 140.660213 
L 294.250362 137.9176 
L 295.336163 139.171728 
L 296.421964 133.414141 
L 297.507765 139.589771 
L 298.593566 138.10762 
L 299.679368 139.919138 
L 300.765169 132.039668 
L 301.85097 141.724322 
L 302.936771 142.668085 
L 305.108373 134.313566 
L 306.194175 133.686502 
L 307.279976 136.24543 
L 308.365777 133.027769 
L 309.451578 135.757714 
L 310.537379 133.306464 
L 311.62318 134.801283 
L 312.708981 132.153679 
L 313.794783 137.32854 
L 314.880584 133.135446 
L 315.966385 132.141011 
L 317.052186 125.826034 
L 318.137987 129.354061 
L 319.223788 130.981893 
L 320.30959 137.436218 
L 321.395391 130.19648 
L 322.481192 132.527384 
L 323.566993 126.921813 
L 324.652794 133.711838 
L 325.738595 133.293796 
L 326.824396 121.683612 
L 327.910198 132.419707 
L 328.995999 128.467304 
L 330.0818 125.94638 
L 331.167601 127.143502 
L 332.253402 129.094367 
L 333.339203 129.411066 
L 334.425005 124.166532 
L 335.510806 124.058854 
L 336.596607 121.081884 
L 338.768209 123.849833 
L 339.85401 123.00108 
L 340.939811 120.049445 
L 342.025613 123.824497 
L 344.197215 118.852323 
L 345.283016 121.962307 
L 346.368817 122.069985 
L 347.454618 127.080162 
L 348.54042 121.050214 
L 349.626221 118.934665 
L 350.712022 122.678047 
L 351.797823 122.912404 
L 352.883624 114.431206 
L 353.969425 113.639458 
L 355.055227 111.960954 
L 356.141028 113.823144 
L 357.226829 118.440615 
L 358.31263 115.52065 
L 359.398431 110.71316 
L 360.484232 116.850786 
L 361.570033 115.134277 
L 362.655835 117.47785 
L 364.827437 111.017191 
L 365.913238 110.295117 
L 366.999039 111.219878 
L 369.170642 115.736005 
L 370.256443 112.372663 
L 371.342244 111.808938 
L 372.428045 118.782649 
L 373.513846 116.73044 
L 374.599647 113.759804 
L 375.685448 122.424687 
L 376.77125 115.501648 
L 377.857051 123.894171 
L 378.942852 125.439662 
L 380.028653 117.465182 
L 381.114454 122.646377 
L 382.200255 116.350401 
L 383.286057 119.099348 
L 384.371858 125.19897 
L 385.457659 115.482646 
L 386.54346 118.586296 
L 387.629261 124.882271 
L 388.715062 118.59263 
L 389.800863 125.528337 
L 390.886665 116.622763 
L 391.972466 121.233899 
L 393.058267 117.769213 
L 394.144068 116.021035 
L 395.229869 116.20472 
L 396.31567 117.965566 
L 397.401472 117.623531 
L 398.487273 114.46921 
L 398.487273 114.46921 
" clip-path="url(#p71ad46672e)" style="fill: none; stroke: #1f77b4; stroke-width: 1.5; stroke-linecap: square"/>
   </g>
   <g id="line2d_20">
    <path d="M 73.832727 282.192978 
L 74.918528 265.027894 
L 76.00433 245.17087 
L 77.090131 233.00963 
L 79.261733 204.158355 
L 80.347534 198.204414 
L 81.433335 187.30997 
L 82.519137 184.523019 
L 83.604938 175.1804 
L 84.690739 167.706304 
L 85.77654 159.028753 
L 86.862341 151.459648 
L 87.948142 154.911667 
L 89.033943 144.71396 
L 90.119745 144.587281 
L 91.205546 138.189962 
L 92.291347 137.493224 
L 93.377148 134.231225 
L 94.462949 135.814719 
L 95.54875 166.15448 
L 96.634552 161.308985 
L 97.720353 162.82914 
L 98.806154 146.867513 
L 99.891955 145.917416 
L 100.977756 141.198602 
L 102.063557 144.587281 
L 103.149358 135.308001 
L 104.23516 129.734099 
L 105.320961 127.485537 
L 106.406762 132.014332 
L 107.492563 124.445227 
L 108.578364 122.608373 
L 109.664165 117.002801 
L 110.749967 115.387637 
L 111.835768 120.233131 
L 112.921569 114.43754 
L 114.00737 109.655385 
L 115.093171 106.235037 
L 116.178972 107.280143 
L 117.264773 104.239833 
L 118.350575 102.783018 
L 119.436376 102.33964 
L 120.522177 101.294533 
L 121.607978 99.26766 
L 123.77958 92.078593 
L 124.865382 91.793564 
L 125.951183 90.653448 
L 127.036984 89.861701 
L 128.122785 90.336749 
L 129.208586 86.88473 
L 130.294387 85.966303 
L 131.380189 84.889527 
L 132.46599 85.396245 
L 133.551791 84.161119 
L 134.637592 84.287799 
L 135.723393 84.161119 
L 136.809194 84.287799 
L 137.894995 83.464382 
L 138.980797 110.225444 
L 140.066598 112.822375 
L 141.152399 108.546939 
L 142.2382 112.315657 
L 143.324001 110.637152 
L 144.409802 109.560376 
L 145.495604 103.258067 
L 146.581405 106.583406 
L 147.667206 101.801251 
L 148.753007 104.461523 
L 149.838808 102.24463 
L 150.924609 103.606435 
L 152.01041 100.217757 
L 153.096212 98.855951 
L 154.182013 99.711038 
L 155.267814 101.167853 
L 156.353615 98.380903 
L 157.439416 95.118903 
L 158.525217 95.372262 
L 159.611019 94.675525 
L 160.69682 96.639058 
L 161.782621 94.612185 
L 162.868422 94.960554 
L 165.040024 92.458632 
L 166.125825 89.703351 
L 167.211627 88.911604 
L 168.297428 90.716788 
L 169.383229 90.906807 
L 170.46903 86.726381 
L 171.554831 83.622731 
L 172.640632 87.296439 
L 173.726434 79.188946 
L 174.812235 81.089139 
L 175.898036 81.564188 
L 176.983837 82.165916 
L 178.069638 81.880887 
L 179.155439 79.632324 
L 180.24124 79.030596 
L 181.327042 76.623684 
L 182.412843 79.695664 
L 183.498644 77.098733 
L 185.670246 74.88184 
L 186.756047 75.863607 
L 187.841849 78.492208 
L 188.92765 76.845373 
L 190.013451 72.284908 
L 191.099252 73.361685 
L 192.185053 73.963413 
L 193.270854 72.348248 
L 194.356656 73.330015 
L 195.442457 71.334812 
L 197.614059 68.80122 
L 198.69986 68.136152 
L 199.785661 68.959569 
L 200.871462 65.69757 
L 201.957264 66.204288 
L 203.043065 67.344405 
L 204.128866 66.489317 
L 205.214667 66.742677 
L 206.300468 65.69757 
L 207.386269 64.874153 
L 208.472071 63.575687 
L 209.557872 62.78394 
L 210.643673 63.037299 
L 211.729474 62.81561 
L 212.815275 62.467241 
L 213.901076 62.530581 
L 214.986877 61.675493 
L 216.072679 62.68893 
L 217.15848 61.643823 
L 218.244281 62.878949 
L 219.330082 61.865513 
L 220.415883 62.182212 
L 221.501684 62.62559 
L 222.587486 62.150542 
L 223.673287 61.833843 
L 224.759088 61.833843 
L 225.844889 88.974943 
L 226.93069 95.118903 
L 228.016491 92.268613 
L 229.102292 94.295486 
L 230.188094 89.481662 
L 231.273895 91.508535 
L 232.359696 89.196633 
L 233.445497 97.114107 
L 234.531298 87.328109 
L 235.617099 87.803157 
L 236.702901 96.417369 
L 237.788702 87.10642 
L 238.874503 90.906807 
L 239.960304 86.821391 
L 241.046105 83.781081 
L 242.131906 86.283002 
L 243.217708 84.287799 
L 245.38931 86.94807 
L 246.475111 82.039236 
L 247.560912 86.536362 
L 248.646713 82.957663 
L 249.732514 83.274362 
L 250.818316 82.862654 
L 251.904117 84.509488 
L 252.989918 83.464382 
L 254.075719 83.654401 
L 256.247321 85.364575 
L 257.333123 79.917353 
L 258.418924 80.89912 
L 259.504725 76.940383 
L 260.590526 79.347295 
L 261.676327 83.90776 
L 262.762128 80.234052 
L 263.847929 82.070906 
L 264.933731 81.659198 
L 266.019532 78.112169 
L 267.105333 77.162072 
L 268.191134 78.903917 
L 269.276935 78.492208 
L 270.362736 79.632324 
L 271.448538 79.695664 
L 272.534339 77.352092 
L 273.62014 76.592014 
L 274.705941 79.062266 
L 275.791742 75.958616 
L 276.877543 76.465335 
L 277.963344 77.82714 
L 279.049146 74.75516 
L 280.134947 77.98549 
L 281.220748 78.143839 
L 282.306549 76.813704 
L 283.39235 77.700461 
L 284.478151 74.311782 
L 285.563953 73.615044 
L 286.649754 70.828093 
L 287.735555 73.773394 
L 288.821356 77.668791 
L 289.907157 71.619841 
L 290.992958 73.551704 
L 292.07876 70.986443 
L 293.164561 74.375122 
L 294.250362 72.443258 
L 295.336163 69.592967 
L 296.421964 73.805063 
L 297.507765 73.710054 
L 298.593566 71.493161 
L 299.679368 74.75516 
L 300.765169 69.181259 
L 301.85097 71.77819 
L 302.936771 70.479724 
L 304.022572 67.914463 
L 305.108373 69.941336 
L 307.279976 70.289705 
L 308.365777 70.859763 
L 309.451578 70.986443 
L 310.537379 66.932696 
L 311.62318 67.724443 
L 312.708981 65.507551 
L 314.880584 65.63423 
L 315.966385 66.109279 
L 317.052186 69.941336 
L 318.137987 64.842483 
L 319.223788 64.177415 
L 320.30959 65.159182 
L 321.395391 64.557454 
L 322.481192 65.6659 
L 324.652794 65.190852 
L 325.738595 67.534424 
L 326.824396 66.647667 
L 327.910198 64.082405 
L 328.995999 62.150542 
L 330.0818 61.105435 
L 331.167601 63.765706 
L 332.253402 61.105435 
L 333.339203 61.485474 
L 334.425005 64.747473 
L 335.510806 59.015222 
L 336.596607 59.046892 
L 337.682408 63.258988 
L 338.768209 60.187008 
L 339.85401 61.263785 
L 340.939811 60.091999 
L 342.025613 59.74363 
L 343.111414 58.476834 
L 344.197215 59.268581 
L 345.283016 58.825203 
L 346.368817 58.666853 
L 347.454618 59.64862 
L 348.54042 59.363591 
L 349.626221 58.191805 
L 350.712022 60.060329 
L 351.797823 58.983552 
L 352.883624 57.051689 
L 353.969425 57.811766 
L 355.055227 55.721553 
L 356.141028 56.228271 
L 357.226829 57.336718 
L 358.31263 56.259941 
L 359.398431 56.418291 
L 360.484232 54.423087 
L 361.570033 55.056485 
L 362.655835 54.138058 
L 363.741636 55.151495 
L 365.913238 54.201398 
L 366.999039 54.676446 
L 368.08484 54.581437 
L 369.170642 54.359747 
L 371.342244 56.449961 
L 372.428045 58.001785 
L 373.513846 57.115028 
L 374.599647 57.051689 
L 375.685448 58.191805 
L 376.77125 58.128465 
L 377.857051 57.178368 
L 378.942852 58.318484 
L 380.028653 58.065125 
L 381.114454 57.938446 
L 382.200255 57.685086 
L 383.286057 59.55361 
L 384.371858 58.983552 
L 385.457659 59.141902 
L 386.54346 58.001785 
L 387.629261 55.594873 
L 388.715062 59.490271 
L 389.800863 57.748426 
L 390.886665 58.096795 
L 391.972466 57.906776 
L 393.058267 58.413494 
L 394.144068 58.413494 
L 395.229869 57.400057 
L 396.31567 56.766659 
L 398.487273 59.71196 
L 398.487273 59.71196 
" clip-path="url(#p71ad46672e)" style="fill: none; stroke: #ff7f0e; stroke-width: 1.5; stroke-linecap: square"/>
   </g>
   <g id="line2d_21">
    <path d="M 73.832727 289.335173 
L 76.00433 257.293789 
L 77.090131 248.972207 
L 78.175932 235.867521 
L 79.261733 231.586701 
L 80.347534 224.444506 
L 81.433335 215.380265 
L 82.519137 214.375696 
L 83.604938 208.544002 
L 84.690739 204.874728 
L 85.77654 194.980735 
L 86.862341 190.983678 
L 87.948142 195.897896 
L 89.033943 184.649699 
L 90.119745 182.815062 
L 91.205546 179.953687 
L 92.291347 179.255049 
L 93.377148 175.061321 
L 94.462949 177.070776 
L 95.54875 202.559658 
L 96.634552 195.723394 
L 97.720353 203.957567 
L 98.806154 188.209712 
L 99.891955 185.479767 
L 100.977756 186.135017 
L 102.063557 189.454655 
L 104.23516 171.413899 
L 105.320961 173.051866 
L 106.406762 180.805607 
L 107.492563 173.030014 
L 108.578364 172.309207 
L 109.664165 160.755396 
L 110.749967 164.665044 
L 111.835768 167.373137 
L 112.921569 161.301385 
L 114.00737 158.265509 
L 115.093171 154.61777 
L 116.178972 155.92827 
L 117.264773 151.865973 
L 118.350575 151.669303 
L 119.436376 153.809871 
L 120.522177 153.372826 
L 121.607978 147.519596 
L 122.693779 145.160506 
L 123.77958 143.828153 
L 124.865382 142.124629 
L 125.951183 142.714323 
L 129.208586 138.848379 
L 130.294387 136.708127 
L 131.380189 136.926333 
L 132.46599 135.004287 
L 133.551791 135.441331 
L 134.637592 134.851638 
L 135.723393 135.725094 
L 136.809194 135.244661 
L 137.894995 133.322615 
L 138.980797 161.891078 
L 140.066598 163.223431 
L 142.2382 167.351285 
L 143.324001 163.201578 
L 144.409802 160.733543 
L 145.495604 154.508825 
L 146.581405 156.758338 
L 147.667206 154.202894 
L 148.753007 153.482087 
L 149.838808 153.001655 
L 150.924609 157.086122 
L 152.01041 153.831723 
L 153.096212 149.113859 
L 154.182013 150.577325 
L 155.267814 155.338577 
L 156.353615 151.713007 
L 157.439416 145.073097 
L 159.611019 142.889141 
L 160.69682 148.502313 
L 161.782621 147.978176 
L 162.868422 148.021881 
L 163.954223 145.007857 
L 165.040024 144.636369 
L 166.125825 142.015368 
L 167.211627 143.391425 
L 168.297428 141.513084 
L 169.383229 139.940673 
L 170.46903 139.896969 
L 171.554831 137.123003 
L 172.640632 139.678447 
L 173.726434 131.77174 
L 174.812235 136.314787 
L 175.898036 135.222809 
L 176.983837 133.890457 
L 178.069638 137.254116 
L 179.155439 135.899911 
L 180.24124 135.1354 
L 181.327042 126.835671 
L 182.412843 132.143228 
L 183.498644 130.679762 
L 184.584445 129.871547 
L 185.670246 130.00266 
L 186.756047 129.980808 
L 187.841849 127.753147 
L 188.92765 129.500376 
L 190.013451 124.739123 
L 191.099252 123.275658 
L 192.185053 126.748262 
L 193.270854 125.568875 
L 194.356656 127.337955 
L 195.442457 123.275658 
L 196.528258 119.715645 
L 197.614059 120.043111 
L 198.69986 119.409713 
L 199.785661 120.436135 
L 200.871462 115.805996 
L 201.957264 117.531372 
L 203.043065 120.32719 
L 204.128866 118.448849 
L 205.214667 116.11161 
L 206.300468 117.334702 
L 207.386269 115.565621 
L 208.472071 115.325247 
L 209.557872 113.993211 
L 210.643673 113.359813 
L 212.815275 113.88395 
L 213.901076 113.272404 
L 214.986877 111.022575 
L 216.072679 114.015063 
L 217.15848 112.639006 
L 219.330082 113.03203 
L 220.415883 112.333075 
L 221.501684 112.682711 
L 222.587486 112.551597 
L 223.673287 112.57345 
L 224.759088 112.333075 
L 225.844889 142.168334 
L 226.93069 150.07504 
L 228.016491 144.811187 
L 230.188094 144.418163 
L 231.273895 142.080925 
L 232.359696 144.74563 
L 233.445497 153.154621 
L 234.531298 142.343086 
L 235.617099 142.932801 
L 236.702901 149.113891 
L 237.788702 138.433492 
L 238.874503 150.053068 
L 239.960304 139.700288 
L 241.046105 140.246321 
L 242.131906 138.608223 
L 243.217708 141.163656 
L 244.303509 140.290003 
L 245.38931 141.949943 
L 246.475111 134.39285 
L 247.560912 137.406951 
L 248.646713 134.043389 
L 250.818316 135.135455 
L 251.904117 135.856218 
L 252.989918 141.949943 
L 254.075719 135.72517 
L 255.16152 137.254062 
L 256.247321 138.171396 
L 257.333123 131.269543 
L 258.418924 137.23222 
L 259.504725 128.866999 
L 260.590526 131.8811 
L 261.676327 137.319585 
L 262.762128 133.999707 
L 263.847929 132.514498 
L 264.933731 137.974825 
L 266.019532 129.893541 
L 267.105333 130.832717 
L 268.191134 132.361609 
L 269.276935 133.082372 
L 270.362736 132.20872 
L 271.448538 130.810876 
L 272.534339 128.954365 
L 273.62014 131.968465 
L 274.705941 129.784334 
L 276.877543 129.019889 
L 277.963344 133.8905 
L 279.049146 126.486297 
L 280.134947 127.20706 
L 281.220748 126.595504 
L 282.306549 130.832717 
L 283.39235 132.05583 
L 284.478151 124.673468 
L 285.563953 127.250743 
L 286.649754 123.166418 
L 287.735555 125.787375 
L 288.821356 132.077672 
L 289.907157 122.904323 
L 290.992958 123.625086 
L 292.07876 127.381791 
L 294.250362 122.838799 
L 295.336163 118.863681 
L 296.421964 125.656327 
L 297.507765 125.306866 
L 298.593566 120.479937 
L 299.679368 124.760834 
L 300.765169 119.84654 
L 301.85097 121.02597 
L 302.936771 125.394232 
L 304.022572 122.489338 
L 305.108373 125.219501 
L 306.194175 120.632827 
L 307.279976 125.153977 
L 308.365777 122.554862 
L 309.451578 124.258484 
L 310.537379 119.890222 
L 311.62318 118.601585 
L 312.708981 117.575044 
L 313.794783 115.980628 
L 314.880584 117.400313 
L 315.966385 115.67485 
L 317.052186 121.877781 
L 318.137987 117.203741 
L 319.223788 114.648308 
L 320.30959 116.810598 
L 321.395391 117.465837 
L 322.481192 119.300507 
L 323.566993 118.208441 
L 324.652794 118.405013 
L 325.738595 119.453396 
L 326.824396 120.043111 
L 327.910198 113.425195 
L 330.0818 111.066334 
L 331.167601 114.408054 
L 332.253402 113.51256 
L 333.339203 111.721573 
L 334.425005 115.259865 
L 335.510806 109.734014 
L 336.596607 107.287788 
L 337.682408 113.032052 
L 338.768209 109.209823 
L 339.85401 113.206782 
L 340.939811 110.804238 
L 342.025613 109.013251 
L 343.111414 108.401694 
L 344.197215 108.576425 
L 345.283016 109.974269 
L 346.368817 108.860362 
L 347.454618 107.33147 
L 348.54042 110.695032 
L 349.626221 106.217564 
L 350.712022 109.16614 
L 351.797823 108.074075 
L 352.883624 109.056934 
L 353.969425 106.632549 
L 355.055227 105.365753 
L 356.141028 106.348612 
L 357.226829 104.295529 
L 358.31263 104.797879 
L 359.398431 104.972609 
L 360.484232 102.832161 
L 361.570033 106.042833 
L 362.655835 106.435977 
L 363.741636 103.334511 
L 364.827437 103.574765 
L 365.913238 102.722954 
L 366.999039 101.696413 
L 368.08484 103.465559 
L 369.170642 104.404735 
L 370.256443 106.15204 
L 371.342244 106.217564 
L 372.428045 109.231664 
L 373.513846 106.414135 
L 374.599647 104.972609 
L 375.685448 108.685631 
L 376.77125 107.921186 
L 377.857051 107.549883 
L 378.942852 110.127158 
L 380.028653 108.598266 
L 381.114454 108.816679 
L 382.200255 109.908745 
L 383.286057 108.16144 
L 384.371858 110.520301 
L 385.457659 109.908745 
L 386.54346 109.646649 
L 387.629261 106.108357 
L 388.715062 110.629508 
L 389.800863 107.375153 
L 390.886665 106.414135 
L 391.972466 108.685631 
L 393.058267 106.588866 
L 394.144068 107.724614 
L 395.229869 107.244105 
L 396.31567 106.457818 
L 397.401472 108.641949 
L 398.487273 112.049193 
L 398.487273 112.049193 
" clip-path="url(#p71ad46672e)" style="fill: none; stroke: #2ca02c; stroke-width: 1.5; stroke-linecap: square"/>
   </g>
   <g id="line2d_22">
    <path d="M 368.08484 53.789689 
L 369.170642 53.726349 
L 370.256443 53.789689 
L 371.342244 53.568 
L 372.428045 53.821359 
L 373.513846 55.626543 
L 374.599647 53.979709 
L 375.685448 53.821359 
L 376.77125 55.753223 
L 377.857051 54.834796 
L 378.942852 55.658213 
L 380.028653 55.246504 
L 381.114454 57.083358 
L 382.200255 54.296408 
L 383.286057 58.571844 
L 384.371858 57.178368 
L 385.457659 57.431727 
L 386.54346 56.956679 
L 387.629261 55.911572 
L 388.715062 56.63998 
L 389.800863 59.078562 
L 390.886665 58.191805 
L 391.972466 56.73499 
L 393.058267 58.350154 
L 394.144068 57.590077 
L 395.229869 58.065125 
L 396.31567 57.716756 
L 397.401472 58.318484 
L 398.487273 58.540174 
L 398.487273 58.540174 
" clip-path="url(#p71ad46672e)" style="fill: none; stroke: #d62728; stroke-width: 1.5; stroke-linecap: square"/>
   </g>
   <g id="line2d_23">
    <path d="M 368.08484 100.779078 
L 369.170642 102.439017 
L 370.256443 102.701113 
L 371.342244 105.606007 
L 372.428045 102.351652 
L 373.513846 107.003851 
L 374.599647 103.836861 
L 375.685448 99.861743 
L 376.77125 105.540483 
L 377.857051 101.041174 
L 378.942852 101.718254 
L 380.028653 102.613748 
L 381.114454 105.387594 
L 382.200255 103.159781 
L 383.286057 107.811979 
L 384.371858 104.885244 
L 386.54346 102.067715 
L 387.629261 102.701113 
L 388.715062 104.754196 
L 389.800863 107.768296 
L 390.886665 106.130198 
L 391.972466 104.99445 
L 393.058267 107.069375 
L 394.144068 103.421876 
L 396.31567 104.754196 
L 397.401472 103.858702 
L 398.487273 105.409435 
L 398.487273 105.409435 
" clip-path="url(#p71ad46672e)" style="fill: none; stroke: #9467bd; stroke-width: 1.5; stroke-linecap: square"/>
   </g>
   <g id="patch_3">
    <path d="M 57.6 307.584 
L 57.6 41.472 
" style="fill: none; stroke: #000000; stroke-width: 0.8; stroke-linejoin: miter; stroke-linecap: square"/>
   </g>
   <g id="patch_4">
    <path d="M 414.72 307.584 
L 414.72 41.472 
" style="fill: none; stroke: #000000; stroke-width: 0.8; stroke-linejoin: miter; stroke-linecap: square"/>
   </g>
   <g id="patch_5">
    <path d="M 57.6 307.584 
L 414.72 307.584 
" style="fill: none; stroke: #000000; stroke-width: 0.8; stroke-linejoin: miter; stroke-linecap: square"/>
   </g>
   <g id="patch_6">
    <path d="M 57.6 41.472 
L 414.72 41.472 
" style="fill: none; stroke: #000000; stroke-width: 0.8; stroke-linejoin: miter; stroke-linecap: square"/>
   </g>
   <g id="text_21">
    <!-- Learning Curves -->
    <g transform="translate(187.37625 35.472) scale(0.12 -0.12)">
     <defs>
      <path id="DejaVuSans-4c" d="M 628 4666 
L 1259 4666 
L 1259 531 
L 3531 531 
L 3531 0 
L 628 0 
L 628 4666 
z
" transform="scale(0.015625)"/>
      <path id="DejaVuSans-65" d="M 3597 1894 
L 3597 1613 
L 953 1613 
Q 991 1019 1311 708 
Q 1631 397 2203 397 
Q 2534 397 2845 478 
Q 3156 559 3463 722 
L 3463 178 
Q 3153 47 2828 -22 
Q 2503 -91 2169 -91 
Q 1331 -91 842 396 
Q 353 884 353 1716 
Q 353 2575 817 3079 
Q 1281 3584 2069 3584 
Q 2775 3584 3186 3129 
Q 3597 2675 3597 1894 
z
M 3022 2063 
Q 3016 2534 2758 2815 
Q 2500 3097 2075 3097 
Q 1594 3097 1305 2825 
Q 1016 2553 972 2059 
L 3022 2063 
z
" transform="scale(0.015625)"/>
      <path id="DejaVuSans-6e" d="M 3513 2113 
L 3513 0 
L 2938 0 
L 2938 2094 
Q 2938 2591 2744 2837 
Q 2550 3084 2163 3084 
Q 1697 3084 1428 2787 
Q 1159 2491 1159 1978 
L 1159 0 
L 581 0 
L 581 3500 
L 1159 3500 
L 1159 2956 
Q 1366 3272 1645 3428 
Q 1925 3584 2291 3584 
Q 2894 3584 3203 3211 
Q 3513 2838 3513 2113 
z
" transform="scale(0.015625)"/>
      <path id="DejaVuSans-69" d="M 603 3500 
L 1178 3500 
L 1178 0 
L 603 0 
L 603 3500 
z
M 603 4863 
L 1178 4863 
L 1178 4134 
L 603 4134 
L 603 4863 
z
" transform="scale(0.015625)"/>
      <path id="DejaVuSans-67" d="M 2906 1791 
Q 2906 2416 2648 2759 
Q 2391 3103 1925 3103 
Q 1463 3103 1205 2759 
Q 947 2416 947 1791 
Q 947 1169 1205 825 
Q 1463 481 1925 481 
Q 2391 481 2648 825 
Q 2906 1169 2906 1791 
z
M 3481 434 
Q 3481 -459 3084 -895 
Q 2688 -1331 1869 -1331 
Q 1566 -1331 1297 -1286 
Q 1028 -1241 775 -1147 
L 775 -588 
Q 1028 -725 1275 -790 
Q 1522 -856 1778 -856 
Q 2344 -856 2625 -561 
Q 2906 -266 2906 331 
L 2906 616 
Q 2728 306 2450 153 
Q 2172 0 1784 0 
Q 1141 0 747 490 
Q 353 981 353 1791 
Q 353 2603 747 3093 
Q 1141 3584 1784 3584 
Q 2172 3584 2450 3431 
Q 2728 3278 2906 2969 
L 2906 3500 
L 3481 3500 
L 3481 434 
z
" transform="scale(0.015625)"/>
      <path id="DejaVuSans-20" transform="scale(0.015625)"/>
      <path id="DejaVuSans-43" d="M 4122 4306 
L 4122 3641 
Q 3803 3938 3442 4084 
Q 3081 4231 2675 4231 
Q 1875 4231 1450 3742 
Q 1025 3253 1025 2328 
Q 1025 1406 1450 917 
Q 1875 428 2675 428 
Q 3081 428 3442 575 
Q 3803 722 4122 1019 
L 4122 359 
Q 3791 134 3420 21 
Q 3050 -91 2638 -91 
Q 1578 -91 968 557 
Q 359 1206 359 2328 
Q 359 3453 968 4101 
Q 1578 4750 2638 4750 
Q 3056 4750 3426 4639 
Q 3797 4528 4122 4306 
z
" transform="scale(0.015625)"/>
      <path id="DejaVuSans-76" d="M 191 3500 
L 800 3500 
L 1894 563 
L 2988 3500 
L 3597 3500 
L 2284 0 
L 1503 0 
L 191 3500 
z
" transform="scale(0.015625)"/>
     </defs>
     <use xlink:href="#DejaVuSans-4c"/>
     <use xlink:href="#DejaVuSans-65" x="53.962891"/>
     <use xlink:href="#DejaVuSans-61" x="115.486328"/>
     <use xlink:href="#DejaVuSans-72" x="176.765625"/>
     <use xlink:href="#DejaVuSans-6e" x="216.128906"/>
     <use xlink:href="#DejaVuSans-69" x="279.507812"/>
     <use xlink:href="#DejaVuSans-6e" x="307.291016"/>
     <use xlink:href="#DejaVuSans-67" x="370.669922"/>
     <use xlink:href="#DejaVuSans-20" x="434.146484"/>
     <use xlink:href="#DejaVuSans-43" x="465.933594"/>
     <use xlink:href="#DejaVuSans-75" x="535.757812"/>
     <use xlink:href="#DejaVuSans-72" x="599.136719"/>
     <use xlink:href="#DejaVuSans-76" x="640.25"/>
     <use xlink:href="#DejaVuSans-65" x="699.429688"/>
     <use xlink:href="#DejaVuSans-73" x="760.953125"/>
    </g>
   </g>
   <g id="legend_1">
    <g id="patch_7">
     <path d="M 214.18875 302.584 
L 407.72 302.584 
Q 409.72 302.584 409.72 300.584 
L 409.72 228.193375 
Q 409.72 226.193375 407.72 226.193375 
L 214.18875 226.193375 
Q 212.18875 226.193375 212.18875 228.193375 
L 212.18875 300.584 
Q 212.18875 302.584 214.18875 302.584 
z
" style="fill: #ffffff; opacity: 0.8; stroke: #cccccc; stroke-linejoin: miter"/>
    </g>
    <g id="line2d_24">
     <path d="M 216.18875 234.291812 
L 226.18875 234.291812 
L 236.18875 234.291812 
" style="fill: none; stroke: #1f77b4; stroke-width: 1.5; stroke-linecap: square"/>
    </g>
    <g id="text_22">
     <!-- Train Accuracy -->
     <g transform="translate(244.18875 237.791812) scale(0.1 -0.1)">
      <defs>
       <path id="DejaVuSans-54" d="M -19 4666 
L 3928 4666 
L 3928 4134 
L 2272 4134 
L 2272 0 
L 1638 0 
L 1638 4134 
L -19 4134 
L -19 4666 
z
" transform="scale(0.015625)"/>
      </defs>
      <use xlink:href="#DejaVuSans-54"/>
      <use xlink:href="#DejaVuSans-72" x="46.333984"/>
      <use xlink:href="#DejaVuSans-61" x="87.447266"/>
      <use xlink:href="#DejaVuSans-69" x="148.726562"/>
      <use xlink:href="#DejaVuSans-6e" x="176.509766"/>
      <use xlink:href="#DejaVuSans-20" x="239.888672"/>
      <use xlink:href="#DejaVuSans-41" x="271.675781"/>
      <use xlink:href="#DejaVuSans-63" x="338.333984"/>
      <use xlink:href="#DejaVuSans-63" x="393.314453"/>
      <use xlink:href="#DejaVuSans-75" x="448.294922"/>
      <use xlink:href="#DejaVuSans-72" x="511.673828"/>
      <use xlink:href="#DejaVuSans-61" x="552.787109"/>
      <use xlink:href="#DejaVuSans-63" x="614.066406"/>
      <use xlink:href="#DejaVuSans-79" x="669.046875"/>
     </g>
    </g>
    <g id="line2d_25">
     <path d="M 216.18875 248.969937 
L 226.18875 248.969937 
L 236.18875 248.969937 
" style="fill: none; stroke: #ff7f0e; stroke-width: 1.5; stroke-linecap: square"/>
    </g>
    <g id="text_23">
     <!-- Validation Accuracy -->
     <g transform="translate(244.18875 252.469937) scale(0.1 -0.1)">
      <defs>
       <path id="DejaVuSans-56" d="M 1831 0 
L 50 4666 
L 709 4666 
L 2188 738 
L 3669 4666 
L 4325 4666 
L 2547 0 
L 1831 0 
z
" transform="scale(0.015625)"/>
       <path id="DejaVuSans-6c" d="M 603 4863 
L 1178 4863 
L 1178 0 
L 603 0 
L 603 4863 
z
" transform="scale(0.015625)"/>
       <path id="DejaVuSans-64" d="M 2906 2969 
L 2906 4863 
L 3481 4863 
L 3481 0 
L 2906 0 
L 2906 525 
Q 2725 213 2448 61 
Q 2172 -91 1784 -91 
Q 1150 -91 751 415 
Q 353 922 353 1747 
Q 353 2572 751 3078 
Q 1150 3584 1784 3584 
Q 2172 3584 2448 3432 
Q 2725 3281 2906 2969 
z
M 947 1747 
Q 947 1113 1208 752 
Q 1469 391 1925 391 
Q 2381 391 2643 752 
Q 2906 1113 2906 1747 
Q 2906 2381 2643 2742 
Q 2381 3103 1925 3103 
Q 1469 3103 1208 2742 
Q 947 2381 947 1747 
z
" transform="scale(0.015625)"/>
       <path id="DejaVuSans-74" d="M 1172 4494 
L 1172 3500 
L 2356 3500 
L 2356 3053 
L 1172 3053 
L 1172 1153 
Q 1172 725 1289 603 
Q 1406 481 1766 481 
L 2356 481 
L 2356 0 
L 1766 0 
Q 1100 0 847 248 
Q 594 497 594 1153 
L 594 3053 
L 172 3053 
L 172 3500 
L 594 3500 
L 594 4494 
L 1172 4494 
z
" transform="scale(0.015625)"/>
      </defs>
      <use xlink:href="#DejaVuSans-56"/>
      <use xlink:href="#DejaVuSans-61" x="60.658203"/>
      <use xlink:href="#DejaVuSans-6c" x="121.9375"/>
      <use xlink:href="#DejaVuSans-69" x="149.720703"/>
      <use xlink:href="#DejaVuSans-64" x="177.503906"/>
      <use xlink:href="#DejaVuSans-61" x="240.980469"/>
      <use xlink:href="#DejaVuSans-74" x="302.259766"/>
      <use xlink:href="#DejaVuSans-69" x="341.46875"/>
      <use xlink:href="#DejaVuSans-6f" x="369.251953"/>
      <use xlink:href="#DejaVuSans-6e" x="430.433594"/>
      <use xlink:href="#DejaVuSans-20" x="493.8125"/>
      <use xlink:href="#DejaVuSans-41" x="525.599609"/>
      <use xlink:href="#DejaVuSans-63" x="592.257812"/>
      <use xlink:href="#DejaVuSans-63" x="647.238281"/>
      <use xlink:href="#DejaVuSans-75" x="702.21875"/>
      <use xlink:href="#DejaVuSans-72" x="765.597656"/>
      <use xlink:href="#DejaVuSans-61" x="806.710938"/>
      <use xlink:href="#DejaVuSans-63" x="867.990234"/>
      <use xlink:href="#DejaVuSans-79" x="922.970703"/>
     </g>
    </g>
    <g id="line2d_26">
     <path d="M 216.18875 263.648062 
L 226.18875 263.648062 
L 236.18875 263.648062 
" style="fill: none; stroke: #2ca02c; stroke-width: 1.5; stroke-linecap: square"/>
    </g>
    <g id="text_24">
     <!-- Robust Validation Accuracy -->
     <g transform="translate(244.18875 267.148062) scale(0.1 -0.1)">
      <defs>
       <path id="DejaVuSans-52" d="M 2841 2188 
Q 3044 2119 3236 1894 
Q 3428 1669 3622 1275 
L 4263 0 
L 3584 0 
L 2988 1197 
Q 2756 1666 2539 1819 
Q 2322 1972 1947 1972 
L 1259 1972 
L 1259 0 
L 628 0 
L 628 4666 
L 2053 4666 
Q 2853 4666 3247 4331 
Q 3641 3997 3641 3322 
Q 3641 2881 3436 2590 
Q 3231 2300 2841 2188 
z
M 1259 4147 
L 1259 2491 
L 2053 2491 
Q 2509 2491 2742 2702 
Q 2975 2913 2975 3322 
Q 2975 3731 2742 3939 
Q 2509 4147 2053 4147 
L 1259 4147 
z
" transform="scale(0.015625)"/>
       <path id="DejaVuSans-62" d="M 3116 1747 
Q 3116 2381 2855 2742 
Q 2594 3103 2138 3103 
Q 1681 3103 1420 2742 
Q 1159 2381 1159 1747 
Q 1159 1113 1420 752 
Q 1681 391 2138 391 
Q 2594 391 2855 752 
Q 3116 1113 3116 1747 
z
M 1159 2969 
Q 1341 3281 1617 3432 
Q 1894 3584 2278 3584 
Q 2916 3584 3314 3078 
Q 3713 2572 3713 1747 
Q 3713 922 3314 415 
Q 2916 -91 2278 -91 
Q 1894 -91 1617 61 
Q 1341 213 1159 525 
L 1159 0 
L 581 0 
L 581 4863 
L 1159 4863 
L 1159 2969 
z
" transform="scale(0.015625)"/>
      </defs>
      <use xlink:href="#DejaVuSans-52"/>
      <use xlink:href="#DejaVuSans-6f" x="64.982422"/>
      <use xlink:href="#DejaVuSans-62" x="126.164062"/>
      <use xlink:href="#DejaVuSans-75" x="189.640625"/>
      <use xlink:href="#DejaVuSans-73" x="253.019531"/>
      <use xlink:href="#DejaVuSans-74" x="305.119141"/>
      <use xlink:href="#DejaVuSans-20" x="344.328125"/>
      <use xlink:href="#DejaVuSans-56" x="376.115234"/>
      <use xlink:href="#DejaVuSans-61" x="436.773438"/>
      <use xlink:href="#DejaVuSans-6c" x="498.052734"/>
      <use xlink:href="#DejaVuSans-69" x="525.835938"/>
      <use xlink:href="#DejaVuSans-64" x="553.619141"/>
      <use xlink:href="#DejaVuSans-61" x="617.095703"/>
      <use xlink:href="#DejaVuSans-74" x="678.375"/>
      <use xlink:href="#DejaVuSans-69" x="717.583984"/>
      <use xlink:href="#DejaVuSans-6f" x="745.367188"/>
      <use xlink:href="#DejaVuSans-6e" x="806.548828"/>
      <use xlink:href="#DejaVuSans-20" x="869.927734"/>
      <use xlink:href="#DejaVuSans-41" x="901.714844"/>
      <use xlink:href="#DejaVuSans-63" x="968.373047"/>
      <use xlink:href="#DejaVuSans-63" x="1023.353516"/>
      <use xlink:href="#DejaVuSans-75" x="1078.333984"/>
      <use xlink:href="#DejaVuSans-72" x="1141.712891"/>
      <use xlink:href="#DejaVuSans-61" x="1182.826172"/>
      <use xlink:href="#DejaVuSans-63" x="1244.105469"/>
      <use xlink:href="#DejaVuSans-79" x="1299.085938"/>
     </g>
    </g>
    <g id="line2d_27">
     <path d="M 216.18875 278.326188 
L 226.18875 278.326188 
L 236.18875 278.326188 
" style="fill: none; stroke: #d62728; stroke-width: 1.5; stroke-linecap: square"/>
    </g>
    <g id="text_25">
     <!-- SWA Validation Accuracy -->
     <g transform="translate(244.18875 281.826188) scale(0.1 -0.1)">
      <defs>
       <path id="DejaVuSans-53" d="M 3425 4513 
L 3425 3897 
Q 3066 4069 2747 4153 
Q 2428 4238 2131 4238 
Q 1616 4238 1336 4038 
Q 1056 3838 1056 3469 
Q 1056 3159 1242 3001 
Q 1428 2844 1947 2747 
L 2328 2669 
Q 3034 2534 3370 2195 
Q 3706 1856 3706 1288 
Q 3706 609 3251 259 
Q 2797 -91 1919 -91 
Q 1588 -91 1214 -16 
Q 841 59 441 206 
L 441 856 
Q 825 641 1194 531 
Q 1563 422 1919 422 
Q 2459 422 2753 634 
Q 3047 847 3047 1241 
Q 3047 1584 2836 1778 
Q 2625 1972 2144 2069 
L 1759 2144 
Q 1053 2284 737 2584 
Q 422 2884 422 3419 
Q 422 4038 858 4394 
Q 1294 4750 2059 4750 
Q 2388 4750 2728 4690 
Q 3069 4631 3425 4513 
z
" transform="scale(0.015625)"/>
       <path id="DejaVuSans-57" d="M 213 4666 
L 850 4666 
L 1831 722 
L 2809 4666 
L 3519 4666 
L 4500 722 
L 5478 4666 
L 6119 4666 
L 4947 0 
L 4153 0 
L 3169 4050 
L 2175 0 
L 1381 0 
L 213 4666 
z
" transform="scale(0.015625)"/>
      </defs>
      <use xlink:href="#DejaVuSans-53"/>
      <use xlink:href="#DejaVuSans-57" x="63.476562"/>
      <use xlink:href="#DejaVuSans-41" x="156.853516"/>
      <use xlink:href="#DejaVuSans-20" x="225.261719"/>
      <use xlink:href="#DejaVuSans-56" x="257.048828"/>
      <use xlink:href="#DejaVuSans-61" x="317.707031"/>
      <use xlink:href="#DejaVuSans-6c" x="378.986328"/>
      <use xlink:href="#DejaVuSans-69" x="406.769531"/>
      <use xlink:href="#DejaVuSans-64" x="434.552734"/>
      <use xlink:href="#DejaVuSans-61" x="498.029297"/>
      <use xlink:href="#DejaVuSans-74" x="559.308594"/>
      <use xlink:href="#DejaVuSans-69" x="598.517578"/>
      <use xlink:href="#DejaVuSans-6f" x="626.300781"/>
      <use xlink:href="#DejaVuSans-6e" x="687.482422"/>
      <use xlink:href="#DejaVuSans-20" x="750.861328"/>
      <use xlink:href="#DejaVuSans-41" x="782.648438"/>
      <use xlink:href="#DejaVuSans-63" x="849.306641"/>
      <use xlink:href="#DejaVuSans-63" x="904.287109"/>
      <use xlink:href="#DejaVuSans-75" x="959.267578"/>
      <use xlink:href="#DejaVuSans-72" x="1022.646484"/>
      <use xlink:href="#DejaVuSans-61" x="1063.759766"/>
      <use xlink:href="#DejaVuSans-63" x="1125.039062"/>
      <use xlink:href="#DejaVuSans-79" x="1180.019531"/>
     </g>
    </g>
    <g id="line2d_28">
     <path d="M 216.18875 293.004312 
L 226.18875 293.004312 
L 236.18875 293.004312 
" style="fill: none; stroke: #9467bd; stroke-width: 1.5; stroke-linecap: square"/>
    </g>
    <g id="text_26">
     <!-- SWA Robust Validation Accuracy -->
     <g transform="translate(244.18875 296.504312) scale(0.1 -0.1)">
      <use xlink:href="#DejaVuSans-53"/>
      <use xlink:href="#DejaVuSans-57" x="63.476562"/>
      <use xlink:href="#DejaVuSans-41" x="156.853516"/>
      <use xlink:href="#DejaVuSans-20" x="225.261719"/>
      <use xlink:href="#DejaVuSans-52" x="257.048828"/>
      <use xlink:href="#DejaVuSans-6f" x="322.03125"/>
      <use xlink:href="#DejaVuSans-62" x="383.212891"/>
      <use xlink:href="#DejaVuSans-75" x="446.689453"/>
      <use xlink:href="#DejaVuSans-73" x="510.068359"/>
      <use xlink:href="#DejaVuSans-74" x="562.167969"/>
      <use xlink:href="#DejaVuSans-20" x="601.376953"/>
      <use xlink:href="#DejaVuSans-56" x="633.164062"/>
      <use xlink:href="#DejaVuSans-61" x="693.822266"/>
      <use xlink:href="#DejaVuSans-6c" x="755.101562"/>
      <use xlink:href="#DejaVuSans-69" x="782.884766"/>
      <use xlink:href="#DejaVuSans-64" x="810.667969"/>
      <use xlink:href="#DejaVuSans-61" x="874.144531"/>
      <use xlink:href="#DejaVuSans-74" x="935.423828"/>
      <use xlink:href="#DejaVuSans-69" x="974.632812"/>
      <use xlink:href="#DejaVuSans-6f" x="1002.416016"/>
      <use xlink:href="#DejaVuSans-6e" x="1063.597656"/>
      <use xlink:href="#DejaVuSans-20" x="1126.976562"/>
      <use xlink:href="#DejaVuSans-41" x="1158.763672"/>
      <use xlink:href="#DejaVuSans-63" x="1225.421875"/>
      <use xlink:href="#DejaVuSans-63" x="1280.402344"/>
      <use xlink:href="#DejaVuSans-75" x="1335.382812"/>
      <use xlink:href="#DejaVuSans-72" x="1398.761719"/>
      <use xlink:href="#DejaVuSans-61" x="1439.875"/>
      <use xlink:href="#DejaVuSans-63" x="1501.154297"/>
      <use xlink:href="#DejaVuSans-79" x="1556.134766"/>
     </g>
    </g>
   </g>
  </g>
 </g>
 <defs>
  <clipPath id="p71ad46672e">
   <rect x="57.6" y="41.472" width="357.12" height="266.112"/>
  </clipPath>
 </defs>
</svg>
