<?xml version="1.0" encoding="utf-8" standalone="no"?>
<!DOCTYPE svg PUBLIC "-//W3C//DTD SVG 1.1//EN"
  "http://www.w3.org/Graphics/SVG/1.1/DTD/svg11.dtd">
<svg xmlns:xlink="http://www.w3.org/1999/xlink" width="460.8pt" height="345.6pt" viewBox="0 0 460.8 345.6" xmlns="http://www.w3.org/2000/svg" version="1.1">
 <metadata>
  <rdf:RDF xmlns:dc="http://purl.org/dc/elements/1.1/" xmlns:cc="http://creativecommons.org/ns#" xmlns:rdf="http://www.w3.org/1999/02/22-rdf-syntax-ns#">
   <cc:Work>
    <dc:type rdf:resource="http://purl.org/dc/dcmitype/StillImage"/>
    <dc:date>2025-07-13T01:25:01.539507</dc:date>
    <dc:format>image/svg+xml</dc:format>
    <dc:creator>
     <cc:Agent>
      <dc:title>Matplotlib v3.9.1, https://matplotlib.org/</dc:title>
     </cc:Agent>
    </dc:creator>
   </cc:Work>
  </rdf:RDF>
 </metadata>
 <defs>
  <style type="text/css">*{stroke-linejoin: round; stroke-linecap: butt}</style>
 </defs>
 <g id="figure_1">
  <g id="patch_1">
   <path d="M 0 345.6 
L 460.8 345.6 
L 460.8 0 
L 0 0 
z
" style="fill: #ffffff"/>
  </g>
  <g id="axes_1">
   <g id="patch_2">
    <path d="M 57.6 307.584 
L 414.72 307.584 
L 414.72 41.472 
L 57.6 41.472 
z
" style="fill: #ffffff"/>
   </g>
   <g id="matplotlib.axis_1">
    <g id="xtick_1">
     <g id="line2d_1">
      <defs>
       <path id="m78f2613a8f" d="M 0 0 
L 0 3.5 
" style="stroke: #000000; stroke-width: 0.8"/>
      </defs>
      <g>
       <use xlink:href="#m78f2613a8f" x="73.832727" y="307.584" style="stroke: #000000; stroke-width: 0.8"/>
      </g>
     </g>
     <g id="text_1">
      <!-- 1 -->
      <g transform="translate(70.651477 322.182437) scale(0.1 -0.1)">
       <defs>
        <path id="DejaVuSans-31" d="M 794 531 
L 1825 531 
L 1825 4091 
L 703 3866 
L 703 4441 
L 1819 4666 
L 2450 4666 
L 2450 531 
L 3481 531 
L 3481 0 
L 794 0 
L 794 531 
z
" transform="scale(0.015625)"/>
       </defs>
       <use xlink:href="#DejaVuSans-31"/>
      </g>
     </g>
    </g>
    <g id="xtick_2">
     <g id="line2d_2">
      <g>
       <use xlink:href="#m78f2613a8f" x="109.664165" y="307.584" style="stroke: #000000; stroke-width: 0.8"/>
      </g>
     </g>
     <g id="text_2">
      <!-- 34 -->
      <g transform="translate(103.301665 322.182437) scale(0.1 -0.1)">
       <defs>
        <path id="DejaVuSans-33" d="M 2597 2516 
Q 3050 2419 3304 2112 
Q 3559 1806 3559 1356 
Q 3559 666 3084 287 
Q 2609 -91 1734 -91 
Q 1441 -91 1130 -33 
Q 819 25 488 141 
L 488 750 
Q 750 597 1062 519 
Q 1375 441 1716 441 
Q 2309 441 2620 675 
Q 2931 909 2931 1356 
Q 2931 1769 2642 2001 
Q 2353 2234 1838 2234 
L 1294 2234 
L 1294 2753 
L 1863 2753 
Q 2328 2753 2575 2939 
Q 2822 3125 2822 3475 
Q 2822 3834 2567 4026 
Q 2313 4219 1838 4219 
Q 1578 4219 1281 4162 
Q 984 4106 628 3988 
L 628 4550 
Q 988 4650 1302 4700 
Q 1616 4750 1894 4750 
Q 2613 4750 3031 4423 
Q 3450 4097 3450 3541 
Q 3450 3153 3228 2886 
Q 3006 2619 2597 2516 
z
" transform="scale(0.015625)"/>
        <path id="DejaVuSans-34" d="M 2419 4116 
L 825 1625 
L 2419 1625 
L 2419 4116 
z
M 2253 4666 
L 3047 4666 
L 3047 1625 
L 3713 1625 
L 3713 1100 
L 3047 1100 
L 3047 0 
L 2419 0 
L 2419 1100 
L 313 1100 
L 313 1709 
L 2253 4666 
z
" transform="scale(0.015625)"/>
       </defs>
       <use xlink:href="#DejaVuSans-33"/>
       <use xlink:href="#DejaVuSans-34" x="63.623047"/>
      </g>
     </g>
    </g>
    <g id="xtick_3">
     <g id="line2d_3">
      <g>
       <use xlink:href="#m78f2613a8f" x="145.495604" y="307.584" style="stroke: #000000; stroke-width: 0.8"/>
      </g>
     </g>
     <g id="text_3">
      <!-- 67 -->
      <g transform="translate(139.133104 322.182437) scale(0.1 -0.1)">
       <defs>
        <path id="DejaVuSans-36" d="M 2113 2584 
Q 1688 2584 1439 2293 
Q 1191 2003 1191 1497 
Q 1191 994 1439 701 
Q 1688 409 2113 409 
Q 2538 409 2786 701 
Q 3034 994 3034 1497 
Q 3034 2003 2786 2293 
Q 2538 2584 2113 2584 
z
M 3366 4563 
L 3366 3988 
Q 3128 4100 2886 4159 
Q 2644 4219 2406 4219 
Q 1781 4219 1451 3797 
Q 1122 3375 1075 2522 
Q 1259 2794 1537 2939 
Q 1816 3084 2150 3084 
Q 2853 3084 3261 2657 
Q 3669 2231 3669 1497 
Q 3669 778 3244 343 
Q 2819 -91 2113 -91 
Q 1303 -91 875 529 
Q 447 1150 447 2328 
Q 447 3434 972 4092 
Q 1497 4750 2381 4750 
Q 2619 4750 2861 4703 
Q 3103 4656 3366 4563 
z
" transform="scale(0.015625)"/>
        <path id="DejaVuSans-37" d="M 525 4666 
L 3525 4666 
L 3525 4397 
L 1831 0 
L 1172 0 
L 2766 4134 
L 525 4134 
L 525 4666 
z
" transform="scale(0.015625)"/>
       </defs>
       <use xlink:href="#DejaVuSans-36"/>
       <use xlink:href="#DejaVuSans-37" x="63.623047"/>
      </g>
     </g>
    </g>
    <g id="xtick_4">
     <g id="line2d_4">
      <g>
       <use xlink:href="#m78f2613a8f" x="181.327042" y="307.584" style="stroke: #000000; stroke-width: 0.8"/>
      </g>
     </g>
     <g id="text_4">
      <!-- 100 -->
      <g transform="translate(171.783292 322.182437) scale(0.1 -0.1)">
       <defs>
        <path id="DejaVuSans-30" d="M 2034 4250 
Q 1547 4250 1301 3770 
Q 1056 3291 1056 2328 
Q 1056 1369 1301 889 
Q 1547 409 2034 409 
Q 2525 409 2770 889 
Q 3016 1369 3016 2328 
Q 3016 3291 2770 3770 
Q 2525 4250 2034 4250 
z
M 2034 4750 
Q 2819 4750 3233 4129 
Q 3647 3509 3647 2328 
Q 3647 1150 3233 529 
Q 2819 -91 2034 -91 
Q 1250 -91 836 529 
Q 422 1150 422 2328 
Q 422 3509 836 4129 
Q 1250 4750 2034 4750 
z
" transform="scale(0.015625)"/>
       </defs>
       <use xlink:href="#DejaVuSans-31"/>
       <use xlink:href="#DejaVuSans-30" x="63.623047"/>
       <use xlink:href="#DejaVuSans-30" x="127.246094"/>
      </g>
     </g>
    </g>
    <g id="xtick_5">
     <g id="line2d_5">
      <g>
       <use xlink:href="#m78f2613a8f" x="217.15848" y="307.584" style="stroke: #000000; stroke-width: 0.8"/>
      </g>
     </g>
     <g id="text_5">
      <!-- 133 -->
      <g transform="translate(207.61473 322.182437) scale(0.1 -0.1)">
       <use xlink:href="#DejaVuSans-31"/>
       <use xlink:href="#DejaVuSans-33" x="63.623047"/>
       <use xlink:href="#DejaVuSans-33" x="127.246094"/>
      </g>
     </g>
    </g>
    <g id="xtick_6">
     <g id="line2d_6">
      <g>
       <use xlink:href="#m78f2613a8f" x="254.075719" y="307.584" style="stroke: #000000; stroke-width: 0.8"/>
      </g>
     </g>
     <g id="text_6">
      <!-- 167 -->
      <g transform="translate(244.531969 322.182437) scale(0.1 -0.1)">
       <use xlink:href="#DejaVuSans-31"/>
       <use xlink:href="#DejaVuSans-36" x="63.623047"/>
       <use xlink:href="#DejaVuSans-37" x="127.246094"/>
      </g>
     </g>
    </g>
    <g id="xtick_7">
     <g id="line2d_7">
      <g>
       <use xlink:href="#m78f2613a8f" x="289.907157" y="307.584" style="stroke: #000000; stroke-width: 0.8"/>
      </g>
     </g>
     <g id="text_7">
      <!-- 200 -->
      <g transform="translate(280.363407 322.182437) scale(0.1 -0.1)">
       <defs>
        <path id="DejaVuSans-32" d="M 1228 531 
L 3431 531 
L 3431 0 
L 469 0 
L 469 531 
Q 828 903 1448 1529 
Q 2069 2156 2228 2338 
Q 2531 2678 2651 2914 
Q 2772 3150 2772 3378 
Q 2772 3750 2511 3984 
Q 2250 4219 1831 4219 
Q 1534 4219 1204 4116 
Q 875 4013 500 3803 
L 500 4441 
Q 881 4594 1212 4672 
Q 1544 4750 1819 4750 
Q 2544 4750 2975 4387 
Q 3406 4025 3406 3419 
Q 3406 3131 3298 2873 
Q 3191 2616 2906 2266 
Q 2828 2175 2409 1742 
Q 1991 1309 1228 531 
z
" transform="scale(0.015625)"/>
       </defs>
       <use xlink:href="#DejaVuSans-32"/>
       <use xlink:href="#DejaVuSans-30" x="63.623047"/>
       <use xlink:href="#DejaVuSans-30" x="127.246094"/>
      </g>
     </g>
    </g>
    <g id="xtick_8">
     <g id="line2d_8">
      <g>
       <use xlink:href="#m78f2613a8f" x="325.738595" y="307.584" style="stroke: #000000; stroke-width: 0.8"/>
      </g>
     </g>
     <g id="text_8">
      <!-- 233 -->
      <g transform="translate(316.194845 322.182437) scale(0.1 -0.1)">
       <use xlink:href="#DejaVuSans-32"/>
       <use xlink:href="#DejaVuSans-33" x="63.623047"/>
       <use xlink:href="#DejaVuSans-33" x="127.246094"/>
      </g>
     </g>
    </g>
    <g id="xtick_9">
     <g id="line2d_9">
      <g>
       <use xlink:href="#m78f2613a8f" x="361.570033" y="307.584" style="stroke: #000000; stroke-width: 0.8"/>
      </g>
     </g>
     <g id="text_9">
      <!-- 266 -->
      <g transform="translate(352.026283 322.182437) scale(0.1 -0.1)">
       <use xlink:href="#DejaVuSans-32"/>
       <use xlink:href="#DejaVuSans-36" x="63.623047"/>
       <use xlink:href="#DejaVuSans-36" x="127.246094"/>
      </g>
     </g>
    </g>
    <g id="xtick_10">
     <g id="line2d_10">
      <g>
       <use xlink:href="#m78f2613a8f" x="398.487273" y="307.584" style="stroke: #000000; stroke-width: 0.8"/>
      </g>
     </g>
     <g id="text_10">
      <!-- 300 -->
      <g transform="translate(388.943523 322.182437) scale(0.1 -0.1)">
       <use xlink:href="#DejaVuSans-33"/>
       <use xlink:href="#DejaVuSans-30" x="63.623047"/>
       <use xlink:href="#DejaVuSans-30" x="127.246094"/>
      </g>
     </g>
    </g>
    <g id="text_11">
     <!-- Epochs -->
     <g transform="translate(218.244375 335.860562) scale(0.1 -0.1)">
      <defs>
       <path id="DejaVuSans-45" d="M 628 4666 
L 3578 4666 
L 3578 4134 
L 1259 4134 
L 1259 2753 
L 3481 2753 
L 3481 2222 
L 1259 2222 
L 1259 531 
L 3634 531 
L 3634 0 
L 628 0 
L 628 4666 
z
" transform="scale(0.015625)"/>
       <path id="DejaVuSans-70" d="M 1159 525 
L 1159 -1331 
L 581 -1331 
L 581 3500 
L 1159 3500 
L 1159 2969 
Q 1341 3281 1617 3432 
Q 1894 3584 2278 3584 
Q 2916 3584 3314 3078 
Q 3713 2572 3713 1747 
Q 3713 922 3314 415 
Q 2916 -91 2278 -91 
Q 1894 -91 1617 61 
Q 1341 213 1159 525 
z
M 3116 1747 
Q 3116 2381 2855 2742 
Q 2594 3103 2138 3103 
Q 1681 3103 1420 2742 
Q 1159 2381 1159 1747 
Q 1159 1113 1420 752 
Q 1681 391 2138 391 
Q 2594 391 2855 752 
Q 3116 1113 3116 1747 
z
" transform="scale(0.015625)"/>
       <path id="DejaVuSans-6f" d="M 1959 3097 
Q 1497 3097 1228 2736 
Q 959 2375 959 1747 
Q 959 1119 1226 758 
Q 1494 397 1959 397 
Q 2419 397 2687 759 
Q 2956 1122 2956 1747 
Q 2956 2369 2687 2733 
Q 2419 3097 1959 3097 
z
M 1959 3584 
Q 2709 3584 3137 3096 
Q 3566 2609 3566 1747 
Q 3566 888 3137 398 
Q 2709 -91 1959 -91 
Q 1206 -91 779 398 
Q 353 888 353 1747 
Q 353 2609 779 3096 
Q 1206 3584 1959 3584 
z
" transform="scale(0.015625)"/>
       <path id="DejaVuSans-63" d="M 3122 3366 
L 3122 2828 
Q 2878 2963 2633 3030 
Q 2388 3097 2138 3097 
Q 1578 3097 1268 2742 
Q 959 2388 959 1747 
Q 959 1106 1268 751 
Q 1578 397 2138 397 
Q 2388 397 2633 464 
Q 2878 531 3122 666 
L 3122 134 
Q 2881 22 2623 -34 
Q 2366 -91 2075 -91 
Q 1284 -91 818 406 
Q 353 903 353 1747 
Q 353 2603 823 3093 
Q 1294 3584 2113 3584 
Q 2378 3584 2631 3529 
Q 2884 3475 3122 3366 
z
" transform="scale(0.015625)"/>
       <path id="DejaVuSans-68" d="M 3513 2113 
L 3513 0 
L 2938 0 
L 2938 2094 
Q 2938 2591 2744 2837 
Q 2550 3084 2163 3084 
Q 1697 3084 1428 2787 
Q 1159 2491 1159 1978 
L 1159 0 
L 581 0 
L 581 4863 
L 1159 4863 
L 1159 2956 
Q 1366 3272 1645 3428 
Q 1925 3584 2291 3584 
Q 2894 3584 3203 3211 
Q 3513 2838 3513 2113 
z
" transform="scale(0.015625)"/>
       <path id="DejaVuSans-73" d="M 2834 3397 
L 2834 2853 
Q 2591 2978 2328 3040 
Q 2066 3103 1784 3103 
Q 1356 3103 1142 2972 
Q 928 2841 928 2578 
Q 928 2378 1081 2264 
Q 1234 2150 1697 2047 
L 1894 2003 
Q 2506 1872 2764 1633 
Q 3022 1394 3022 966 
Q 3022 478 2636 193 
Q 2250 -91 1575 -91 
Q 1294 -91 989 -36 
Q 684 19 347 128 
L 347 722 
Q 666 556 975 473 
Q 1284 391 1588 391 
Q 1994 391 2212 530 
Q 2431 669 2431 922 
Q 2431 1156 2273 1281 
Q 2116 1406 1581 1522 
L 1381 1569 
Q 847 1681 609 1914 
Q 372 2147 372 2553 
Q 372 3047 722 3315 
Q 1072 3584 1716 3584 
Q 2034 3584 2315 3537 
Q 2597 3491 2834 3397 
z
" transform="scale(0.015625)"/>
      </defs>
      <use xlink:href="#DejaVuSans-45"/>
      <use xlink:href="#DejaVuSans-70" x="63.183594"/>
      <use xlink:href="#DejaVuSans-6f" x="126.660156"/>
      <use xlink:href="#DejaVuSans-63" x="187.841797"/>
      <use xlink:href="#DejaVuSans-68" x="242.822266"/>
      <use xlink:href="#DejaVuSans-73" x="306.201172"/>
     </g>
    </g>
   </g>
   <g id="matplotlib.axis_2">
    <g id="ytick_1">
     <g id="line2d_11">
      <defs>
       <path id="mdf09dee863" d="M 0 0 
L -3.5 0 
" style="stroke: #000000; stroke-width: 0.8"/>
      </defs>
      <g>
       <use xlink:href="#mdf09dee863" x="57.6" y="283.599982" style="stroke: #000000; stroke-width: 0.8"/>
      </g>
     </g>
     <g id="text_12">
      <!-- 10 -->
      <g transform="translate(37.875 287.399201) scale(0.1 -0.1)">
       <use xlink:href="#DejaVuSans-31"/>
       <use xlink:href="#DejaVuSans-30" x="63.623047"/>
      </g>
     </g>
    </g>
    <g id="ytick_2">
     <g id="line2d_12">
      <g>
       <use xlink:href="#mdf09dee863" x="57.6" y="252.49987" style="stroke: #000000; stroke-width: 0.8"/>
      </g>
     </g>
     <g id="text_13">
      <!-- 20 -->
      <g transform="translate(37.875 256.299088) scale(0.1 -0.1)">
       <use xlink:href="#DejaVuSans-32"/>
       <use xlink:href="#DejaVuSans-30" x="63.623047"/>
      </g>
     </g>
    </g>
    <g id="ytick_3">
     <g id="line2d_13">
      <g>
       <use xlink:href="#mdf09dee863" x="57.6" y="221.399757" style="stroke: #000000; stroke-width: 0.8"/>
      </g>
     </g>
     <g id="text_14">
      <!-- 30 -->
      <g transform="translate(37.875 225.198976) scale(0.1 -0.1)">
       <use xlink:href="#DejaVuSans-33"/>
       <use xlink:href="#DejaVuSans-30" x="63.623047"/>
      </g>
     </g>
    </g>
    <g id="ytick_4">
     <g id="line2d_14">
      <g>
       <use xlink:href="#mdf09dee863" x="57.6" y="190.299645" style="stroke: #000000; stroke-width: 0.8"/>
      </g>
     </g>
     <g id="text_15">
      <!-- 40 -->
      <g transform="translate(37.875 194.098863) scale(0.1 -0.1)">
       <use xlink:href="#DejaVuSans-34"/>
       <use xlink:href="#DejaVuSans-30" x="63.623047"/>
      </g>
     </g>
    </g>
    <g id="ytick_5">
     <g id="line2d_15">
      <g>
       <use xlink:href="#mdf09dee863" x="57.6" y="159.199532" style="stroke: #000000; stroke-width: 0.8"/>
      </g>
     </g>
     <g id="text_16">
      <!-- 50 -->
      <g transform="translate(37.875 162.998751) scale(0.1 -0.1)">
       <defs>
        <path id="DejaVuSans-35" d="M 691 4666 
L 3169 4666 
L 3169 4134 
L 1269 4134 
L 1269 2991 
Q 1406 3038 1543 3061 
Q 1681 3084 1819 3084 
Q 2600 3084 3056 2656 
Q 3513 2228 3513 1497 
Q 3513 744 3044 326 
Q 2575 -91 1722 -91 
Q 1428 -91 1123 -41 
Q 819 9 494 109 
L 494 744 
Q 775 591 1075 516 
Q 1375 441 1709 441 
Q 2250 441 2565 725 
Q 2881 1009 2881 1497 
Q 2881 1984 2565 2268 
Q 2250 2553 1709 2553 
Q 1456 2553 1204 2497 
Q 953 2441 691 2322 
L 691 4666 
z
" transform="scale(0.015625)"/>
       </defs>
       <use xlink:href="#DejaVuSans-35"/>
       <use xlink:href="#DejaVuSans-30" x="63.623047"/>
      </g>
     </g>
    </g>
    <g id="ytick_6">
     <g id="line2d_16">
      <g>
       <use xlink:href="#mdf09dee863" x="57.6" y="128.09942" style="stroke: #000000; stroke-width: 0.8"/>
      </g>
     </g>
     <g id="text_17">
      <!-- 60 -->
      <g transform="translate(37.875 131.898638) scale(0.1 -0.1)">
       <use xlink:href="#DejaVuSans-36"/>
       <use xlink:href="#DejaVuSans-30" x="63.623047"/>
      </g>
     </g>
    </g>
    <g id="ytick_7">
     <g id="line2d_17">
      <g>
       <use xlink:href="#mdf09dee863" x="57.6" y="96.999307" style="stroke: #000000; stroke-width: 0.8"/>
      </g>
     </g>
     <g id="text_18">
      <!-- 70 -->
      <g transform="translate(37.875 100.798526) scale(0.1 -0.1)">
       <use xlink:href="#DejaVuSans-37"/>
       <use xlink:href="#DejaVuSans-30" x="63.623047"/>
      </g>
     </g>
    </g>
    <g id="ytick_8">
     <g id="line2d_18">
      <g>
       <use xlink:href="#mdf09dee863" x="57.6" y="65.899195" style="stroke: #000000; stroke-width: 0.8"/>
      </g>
     </g>
     <g id="text_19">
      <!-- 80 -->
      <g transform="translate(37.875 69.698413) scale(0.1 -0.1)">
       <defs>
        <path id="DejaVuSans-38" d="M 2034 2216 
Q 1584 2216 1326 1975 
Q 1069 1734 1069 1313 
Q 1069 891 1326 650 
Q 1584 409 2034 409 
Q 2484 409 2743 651 
Q 3003 894 3003 1313 
Q 3003 1734 2745 1975 
Q 2488 2216 2034 2216 
z
M 1403 2484 
Q 997 2584 770 2862 
Q 544 3141 544 3541 
Q 544 4100 942 4425 
Q 1341 4750 2034 4750 
Q 2731 4750 3128 4425 
Q 3525 4100 3525 3541 
Q 3525 3141 3298 2862 
Q 3072 2584 2669 2484 
Q 3125 2378 3379 2068 
Q 3634 1759 3634 1313 
Q 3634 634 3220 271 
Q 2806 -91 2034 -91 
Q 1263 -91 848 271 
Q 434 634 434 1313 
Q 434 1759 690 2068 
Q 947 2378 1403 2484 
z
M 1172 3481 
Q 1172 3119 1398 2916 
Q 1625 2713 2034 2713 
Q 2441 2713 2670 2916 
Q 2900 3119 2900 3481 
Q 2900 3844 2670 4047 
Q 2441 4250 2034 4250 
Q 1625 4250 1398 4047 
Q 1172 3844 1172 3481 
z
" transform="scale(0.015625)"/>
       </defs>
       <use xlink:href="#DejaVuSans-38"/>
       <use xlink:href="#DejaVuSans-30" x="63.623047"/>
      </g>
     </g>
    </g>
    <g id="text_20">
     <!-- Accuracy -->
     <g transform="translate(31.795312 197.356125) rotate(-90) scale(0.1 -0.1)">
      <defs>
       <path id="DejaVuSans-41" d="M 2188 4044 
L 1331 1722 
L 3047 1722 
L 2188 4044 
z
M 1831 4666 
L 2547 4666 
L 4325 0 
L 3669 0 
L 3244 1197 
L 1141 1197 
L 716 0 
L 50 0 
L 1831 4666 
z
" transform="scale(0.015625)"/>
       <path id="DejaVuSans-75" d="M 544 1381 
L 544 3500 
L 1119 3500 
L 1119 1403 
Q 1119 906 1312 657 
Q 1506 409 1894 409 
Q 2359 409 2629 706 
Q 2900 1003 2900 1516 
L 2900 3500 
L 3475 3500 
L 3475 0 
L 2900 0 
L 2900 538 
Q 2691 219 2414 64 
Q 2138 -91 1772 -91 
Q 1169 -91 856 284 
Q 544 659 544 1381 
z
M 1991 3584 
L 1991 3584 
z
" transform="scale(0.015625)"/>
       <path id="DejaVuSans-72" d="M 2631 2963 
Q 2534 3019 2420 3045 
Q 2306 3072 2169 3072 
Q 1681 3072 1420 2755 
Q 1159 2438 1159 1844 
L 1159 0 
L 581 0 
L 581 3500 
L 1159 3500 
L 1159 2956 
Q 1341 3275 1631 3429 
Q 1922 3584 2338 3584 
Q 2397 3584 2469 3576 
Q 2541 3569 2628 3553 
L 2631 2963 
z
" transform="scale(0.015625)"/>
       <path id="DejaVuSans-61" d="M 2194 1759 
Q 1497 1759 1228 1600 
Q 959 1441 959 1056 
Q 959 750 1161 570 
Q 1363 391 1709 391 
Q 2188 391 2477 730 
Q 2766 1069 2766 1631 
L 2766 1759 
L 2194 1759 
z
M 3341 1997 
L 3341 0 
L 2766 0 
L 2766 531 
Q 2569 213 2275 61 
Q 1981 -91 1556 -91 
Q 1019 -91 701 211 
Q 384 513 384 1019 
Q 384 1609 779 1909 
Q 1175 2209 1959 2209 
L 2766 2209 
L 2766 2266 
Q 2766 2663 2505 2880 
Q 2244 3097 1772 3097 
Q 1472 3097 1187 3025 
Q 903 2953 641 2809 
L 641 3341 
Q 956 3463 1253 3523 
Q 1550 3584 1831 3584 
Q 2591 3584 2966 3190 
Q 3341 2797 3341 1997 
z
" transform="scale(0.015625)"/>
       <path id="DejaVuSans-79" d="M 2059 -325 
Q 1816 -950 1584 -1140 
Q 1353 -1331 966 -1331 
L 506 -1331 
L 506 -850 
L 844 -850 
Q 1081 -850 1212 -737 
Q 1344 -625 1503 -206 
L 1606 56 
L 191 3500 
L 800 3500 
L 1894 763 
L 2988 3500 
L 3597 3500 
L 2059 -325 
z
" transform="scale(0.015625)"/>
      </defs>
      <use xlink:href="#DejaVuSans-41"/>
      <use xlink:href="#DejaVuSans-63" x="66.658203"/>
      <use xlink:href="#DejaVuSans-63" x="121.638672"/>
      <use xlink:href="#DejaVuSans-75" x="176.619141"/>
      <use xlink:href="#DejaVuSans-72" x="239.998047"/>
      <use xlink:href="#DejaVuSans-61" x="281.111328"/>
      <use xlink:href="#DejaVuSans-63" x="342.390625"/>
      <use xlink:href="#DejaVuSans-79" x="397.371094"/>
     </g>
    </g>
   </g>
   <g id="line2d_19">
    <path d="M 73.832727 295.488 
L 76.00433 256.651735 
L 78.175932 217.916544 
L 80.347534 191.947951 
L 81.433335 183.62867 
L 82.519137 177.540823 
L 83.604938 168.459591 
L 84.690739 161.726416 
L 85.77654 156.143946 
L 86.862341 152.481908 
L 87.948142 145.647658 
L 89.033943 142.794223 
L 90.119745 140.70274 
L 91.205546 135.687847 
L 92.291347 134.474943 
L 93.377148 131.155006 
L 94.462949 131.046155 
L 95.54875 158.880756 
L 96.634552 158.390929 
L 98.806154 153.127235 
L 99.891955 146.308535 
L 100.977756 143.284049 
L 102.063557 142.459897 
L 104.23516 136.986277 
L 105.320961 134.964769 
L 106.406762 131.777008 
L 107.492563 130.96063 
L 108.578364 127.982794 
L 110.749967 125.074934 
L 111.835768 122.198173 
L 114.00737 117.540931 
L 115.093171 114.695271 
L 116.178972 113.381291 
L 117.264773 111.655235 
L 118.350575 111.188733 
L 119.436376 106.912468 
L 121.607978 105.373012 
L 124.865382 99.23074 
L 125.951183 98.655388 
L 128.122785 95.1022 
L 129.208586 95.063325 
L 130.294387 91.642313 
L 131.380189 91.727838 
L 132.46599 92.015514 
L 133.551791 89.830731 
L 135.723393 89.947357 
L 136.809194 89.099879 
L 137.894995 88.889953 
L 138.980797 117.051105 
L 140.066598 119.010412 
L 141.152399 119.819015 
L 143.324001 117.362106 
L 144.409802 117.424306 
L 145.495604 115.6516 
L 146.581405 115.068472 
L 147.667206 114.858547 
L 148.753007 113.583442 
L 149.838808 111.375334 
L 150.924609 111.974011 
L 152.01041 110.761107 
L 154.182013 109.128351 
L 155.267814 108.91065 
L 156.353615 109.688153 
L 157.439416 106.212715 
L 158.525217 106.492616 
L 159.611019 103.965732 
L 160.69682 103.748031 
L 161.782621 104.502209 
L 162.868422 101.726524 
L 163.954223 103.39038 
L 165.040024 102.465152 
L 166.125825 100.956796 
L 167.211627 100.070443 
L 168.297428 97.652409 
L 169.383229 97.68351 
L 170.46903 97.450259 
L 171.554831 96.377305 
L 172.640632 96.019654 
L 173.726434 94.565723 
L 174.812235 93.446119 
L 175.898036 93.656045 
L 176.983837 93.057368 
L 178.069638 90.133957 
L 179.155439 90.88036 
L 180.24124 89.714106 
L 181.327042 88.267951 
L 182.412843 88.0347 
L 183.498644 85.414515 
L 184.584445 86.207568 
L 186.756047 85.041314 
L 187.841849 83.672909 
L 188.92765 82.62328 
L 190.013451 82.54553 
L 191.099252 82.009053 
L 192.185053 80.306322 
L 193.270854 79.007892 
L 194.356656 78.58804 
L 195.442457 77.507312 
L 196.528258 78.315915 
L 197.614059 76.861984 
L 198.69986 76.473233 
L 199.785661 74.988202 
L 200.871462 73.059996 
L 201.957264 73.534272 
L 203.043065 73.176621 
L 204.128866 71.435015 
L 205.214667 71.683816 
L 206.300468 70.121035 
L 207.386269 69.444607 
L 208.472071 69.918884 
L 209.557872 68.014002 
L 210.643673 67.951802 
L 211.729474 68.620454 
L 212.815275 68.612679 
L 213.901076 66.653372 
L 214.986877 66.902173 
L 216.072679 66.412346 
L 217.15848 66.357921 
L 218.244281 66.513422 
L 219.330082 64.981741 
L 220.415883 65.93807 
L 221.501684 64.896216 
L 222.587486 65.945845 
L 223.673287 64.445264 
L 224.759088 65.564868 
L 225.844889 95.444301 
L 226.93069 98.577638 
L 228.016491 98.981939 
L 229.102292 99.518416 
L 230.188094 98.943064 
L 231.273895 99.23074 
L 232.359696 99.005264 
L 233.445497 98.282187 
L 234.531298 98.017836 
L 235.617099 97.574659 
L 236.702901 97.947861 
L 237.788702 97.419159 
L 238.874503 97.737935 
L 239.960304 97.442484 
L 241.046105 97.403609 
L 244.303509 94.231397 
L 245.38931 94.853399 
L 246.475111 96.237354 
L 247.560912 94.9778 
L 249.732514 93.593845 
L 250.818316 94.176972 
L 251.904117 92.544216 
L 252.989918 92.482016 
L 254.075719 91.735613 
L 256.247321 91.440162 
L 257.333123 90.102857 
L 258.418924 91.424612 
L 259.504725 89.270929 
L 260.590526 88.781102 
L 261.676327 91.206911 
L 262.762128 87.840324 
L 264.933731 89.41088 
L 266.019532 88.944378 
L 267.105333 87.575973 
L 268.191134 88.283501 
L 269.276935 87.047271 
L 270.362736 86.969521 
L 271.448538 85.150164 
L 272.534339 86.650745 
L 273.62014 86.969521 
L 274.705941 85.041314 
L 275.791742 85.087964 
L 276.877543 84.769188 
L 279.049146 84.668112 
L 280.134947 83.95281 
L 281.220748 84.123861 
L 282.306549 82.428904 
L 283.39235 82.62328 
L 284.478151 83.183082 
L 285.563953 81.10715 
L 286.649754 81.363726 
L 287.735555 81.394826 
L 288.821356 82.405579 
L 289.907157 80.695073 
L 290.992958 79.816495 
L 292.07876 79.108967 
L 294.250362 78.580265 
L 295.336163 79.311118 
L 296.421964 78.44809 
L 297.507765 77.095235 
L 298.593566 77.639487 
L 299.679368 77.577287 
L 300.765169 76.823109 
L 301.85097 76.628733 
L 305.108373 75.291429 
L 306.194175 75.174803 
L 307.279976 74.047424 
L 308.365777 74.692751 
L 309.451578 74.062974 
L 310.537379 74.094074 
L 311.62318 72.873395 
L 312.708981 71.481665 
L 313.794783 72.173642 
L 314.880584 70.719712 
L 315.966385 69.848909 
L 317.052186 71.061813 
L 318.137987 71.64494 
L 319.223788 69.949984 
L 320.30959 70.587537 
L 321.395391 68.72153 
L 322.481192 69.600108 
L 323.566993 69.149156 
L 324.652794 69.382407 
L 325.738595 67.897377 
L 326.824396 66.886623 
L 327.910198 67.944027 
L 328.995999 66.746673 
L 330.0818 66.443447 
L 331.167601 66.272396 
L 332.253402 65.347168 
L 333.339203 64.779591 
L 334.425005 64.935091 
L 335.510806 64.009863 
L 336.596607 64.950641 
L 337.682408 63.753287 
L 338.768209 64.942866 
L 339.85401 62.563708 
L 340.939811 62.408207 
L 342.025613 61.770655 
L 343.111414 60.635501 
L 344.197215 61.249728 
L 345.283016 59.640297 
L 346.368817 60.658826 
L 347.454618 59.274871 
L 348.54042 59.756922 
L 349.626221 58.015316 
L 350.712022 58.131942 
L 351.797823 58.730619 
L 352.883624 57.984216 
L 355.055227 56.934587 
L 356.141028 56.576936 
L 357.226829 56.483636 
L 358.31263 56.856837 
L 359.398431 55.706133 
L 360.484232 54.91308 
L 362.655835 56.28926 
L 363.741636 54.586529 
L 364.827437 55.060805 
L 366.999039 53.568 
L 368.08484 55.480657 
L 369.170642 55.014155 
L 370.256443 56.219285 
L 371.342244 56.063784 
L 372.428045 57.673215 
L 373.513846 57.183388 
L 374.599647 57.999766 
L 375.685448 59.274871 
L 376.77125 58.380742 
L 377.857051 58.816144 
L 378.942852 58.139717 
L 380.028653 58.668418 
L 381.114454 56.957912 
L 382.200255 58.637318 
L 383.286057 58.831694 
L 384.371858 58.544018 
L 385.457659 57.377764 
L 386.54346 56.849062 
L 387.629261 58.536243 
L 388.715062 57.509939 
L 389.800863 57.85204 
L 390.886665 58.683969 
L 391.972466 60.137899 
L 393.058267 57.80539 
L 394.144068 58.544018 
L 395.229869 57.914241 
L 396.31567 57.999766 
L 397.401472 58.442943 
L 398.487273 57.906466 
L 398.487273 57.906466 
" clip-path="url(#pfca2430fd7)" style="fill: none; stroke: #1f77b4; stroke-width: 1.5; stroke-linecap: square"/>
   </g>
   <g id="line2d_20">
    <path d="M 73.832727 284.781786 
L 76.00433 242.112432 
L 77.090131 220.155753 
L 78.175932 209.364013 
L 79.261733 188.215937 
L 80.347534 178.201701 
L 81.433335 173.318983 
L 82.519137 160.381336 
L 83.604938 160.567937 
L 84.690739 156.929224 
L 85.77654 146.603987 
L 86.862341 141.130367 
L 87.948142 141.472468 
L 89.033943 131.396031 
L 90.119745 130.587429 
L 91.205546 127.570718 
L 92.291347 123.714304 
L 93.377148 124.305206 
L 94.462949 123.310002 
L 95.54875 153.19721 
L 96.634552 154.503415 
L 97.720353 149.247496 
L 98.806154 141.254767 
L 99.891955 139.38876 
L 100.977756 140.819366 
L 102.063557 127.912819 
L 103.149358 135.065845 
L 104.23516 125.269309 
L 105.320961 121.164094 
L 106.406762 119.515789 
L 107.492563 121.443996 
L 108.578364 119.671289 
L 109.664165 112.051762 
L 110.749967 115.441674 
L 111.835768 111.67856 
L 112.921569 109.501552 
L 114.00737 108.070947 
L 115.093171 105.769539 
L 116.178972 105.054236 
L 117.264773 102.286326 
L 118.350575 101.913125 
L 119.436376 98.927514 
L 120.522177 96.377305 
L 121.607978 96.439505 
L 122.693779 98.367712 
L 123.77958 93.484994 
L 124.865382 91.307987 
L 128.122785 88.197975 
L 129.208586 88.664477 
L 130.294387 86.145368 
L 131.380189 85.336765 
L 132.46599 84.372661 
L 133.551791 85.678866 
L 134.637592 84.745863 
L 135.723393 84.714763 
L 136.809194 84.310461 
L 137.894995 84.652562 
L 138.980797 106.11164 
L 140.066598 113.202466 
L 141.152399 106.453741 
L 142.2382 107.728846 
L 143.324001 108.133147 
L 144.409802 106.04944 
L 145.495604 111.61636 
L 147.667206 104.898736 
L 148.753007 107.355645 
L 149.838808 102.068625 
L 150.924609 101.726524 
L 152.01041 100.66912 
L 153.096212 100.886821 
L 154.182013 100.762421 
L 155.267814 96.221804 
L 156.353615 98.492112 
L 157.439416 101.260022 
L 158.525217 96.221804 
L 159.611019 94.169197 
L 160.69682 93.920396 
L 161.782621 92.738592 
L 162.868422 96.252904 
L 163.954223 91.121386 
L 165.040024 92.738592 
L 166.125825 91.650088 
L 167.211627 93.298394 
L 168.297428 92.769692 
L 169.383229 89.59748 
L 170.46903 90.063982 
L 171.554831 89.908481 
L 172.640632 87.016171 
L 173.726434 85.616666 
L 174.812235 87.544873 
L 176.983837 85.087964 
L 178.069638 86.176468 
L 179.155439 83.750659 
L 180.24124 82.599955 
L 181.327042 82.910956 
L 182.412843 82.009053 
L 183.498644 81.511451 
L 184.584445 81.884652 
L 187.841849 77.219636 
L 188.92765 77.934938 
L 190.013451 78.308139 
L 191.099252 75.135928 
L 192.185053 77.188535 
L 193.270854 75.540229 
L 194.356656 76.690934 
L 195.442457 76.877534 
L 196.528258 72.741219 
L 197.614059 75.415829 
L 198.69986 73.612022 
L 199.785661 72.181417 
L 200.871462 72.119217 
L 201.957264 71.683816 
L 203.043065 71.901516 
L 204.128866 71.590515 
L 205.214667 70.28431 
L 206.300468 70.25321 
L 207.386269 68.915906 
L 208.472071 69.755609 
L 209.557872 70.19101 
L 210.643673 68.604904 
L 211.729474 68.387204 
L 212.815275 67.671901 
L 214.986877 67.640801 
L 216.072679 67.703001 
L 217.15848 67.951802 
L 218.244281 67.2987 
L 219.330082 67.889602 
L 220.415883 66.987699 
L 221.501684 67.765201 
L 222.587486 66.925498 
L 223.673287 67.889602 
L 224.759088 67.547501 
L 225.844889 93.422794 
L 226.93069 97.83901 
L 228.016491 91.618988 
L 229.102292 92.769692 
L 230.188094 94.573498 
L 231.273895 92.956292 
L 232.359696 96.128504 
L 233.445497 92.956292 
L 234.531298 89.41088 
L 235.617099 88.042475 
L 236.702901 89.939582 
L 237.788702 90.126182 
L 238.874503 88.726677 
L 239.960304 92.24099 
L 241.046105 92.987393 
L 242.131906 91.401287 
L 243.217708 90.965885 
L 244.303509 91.339087 
L 245.38931 86.052067 
L 246.475111 89.255379 
L 247.560912 90.374983 
L 248.646713 86.331969 
L 249.732514 92.30319 
L 250.818316 89.348679 
L 251.904117 84.06166 
L 254.075719 86.114268 
L 255.16152 88.571177 
L 256.247321 89.193179 
L 257.333123 85.834367 
L 258.418924 89.099879 
L 259.504725 85.150164 
L 260.590526 85.896567 
L 261.676327 86.79847 
L 262.762128 84.279361 
L 263.847929 85.678866 
L 264.933731 86.487469 
L 266.019532 83.190857 
L 267.105333 82.973156 
L 268.191134 82.568855 
L 269.276935 80.018646 
L 270.362736 83.159757 
L 271.448538 85.865467 
L 272.534339 81.480351 
L 273.62014 78.961242 
L 274.705941 85.274565 
L 275.791742 83.812859 
L 276.877543 82.662155 
L 277.963344 82.506655 
L 279.049146 83.84396 
L 280.134947 82.568855 
L 281.220748 77.623937 
L 282.306549 77.966038 
L 283.39235 79.116742 
L 284.478151 78.308139 
L 285.563953 81.822452 
L 286.649754 76.566533 
L 287.735555 78.277039 
L 288.821356 77.841638 
L 289.907157 78.650241 
L 290.992958 77.095235 
L 292.07876 77.592837 
L 293.164561 75.882331 
L 294.250362 78.152639 
L 295.336163 77.468436 
L 296.421964 80.547348 
L 297.507765 76.628733 
L 298.593566 73.363222 
L 299.679368 74.513926 
L 300.765169 76.970835 
L 301.85097 76.504333 
L 302.936771 72.025917 
L 304.022572 75.75793 
L 305.108373 72.80342 
L 307.279976 76.348832 
L 308.365777 77.126335 
L 309.451578 70.346511 
L 310.537379 72.86562 
L 311.62318 70.346511 
L 312.708981 74.140724 
L 313.794783 71.528315 
L 314.880584 71.994817 
L 315.966385 71.714916 
L 317.052186 72.616819 
L 318.137987 70.657512 
L 319.223788 72.99002 
L 320.30959 70.03551 
L 321.395391 69.724508 
L 322.481192 71.217314 
L 323.566993 71.714916 
L 324.652794 71.403915 
L 325.738595 68.511604 
L 326.824396 68.729305 
L 327.910198 69.164706 
L 328.995999 67.982902 
L 330.0818 66.396796 
L 331.167601 66.272396 
L 332.253402 66.801098 
L 333.339203 67.920702 
L 334.425005 67.3609 
L 335.510806 66.987699 
L 336.596607 67.080999 
L 337.682408 67.4231 
L 338.768209 66.707798 
L 339.85401 65.712594 
L 340.939811 64.903991 
L 342.025613 65.370493 
L 343.111414 65.339393 
L 344.197215 66.396796 
L 345.283016 63.815487 
L 346.368817 65.588193 
L 347.454618 64.56189 
L 348.54042 63.348985 
L 349.626221 63.877687 
L 350.712022 63.535586 
L 352.883624 64.095388 
L 353.969425 63.659987 
L 355.055227 62.353782 
L 356.141028 62.509282 
L 357.226829 61.482979 
L 359.398431 62.975784 
L 360.484232 61.265278 
L 361.570033 61.94948 
L 362.655835 61.389678 
L 363.741636 61.265278 
L 364.827437 61.76288 
L 365.913238 60.985377 
L 366.999039 59.523672 
L 368.08484 61.545179 
L 369.170642 63.162385 
L 370.256443 61.638479 
L 371.342244 62.415982 
L 372.428045 63.846587 
L 373.513846 64.406389 
L 374.599647 64.74849 
L 375.685448 64.437489 
L 376.77125 63.317885 
L 380.028653 63.504486 
L 381.114454 64.903991 
L 382.200255 63.535586 
L 383.286057 63.504486 
L 384.371858 63.162385 
L 385.457659 63.784387 
L 386.54346 66.645597 
L 387.629261 63.131285 
L 388.715062 64.49969 
L 389.800863 64.375289 
L 390.886665 65.090592 
L 391.972466 64.219789 
L 393.058267 64.002088 
L 394.144068 64.53079 
L 395.229869 63.380085 
L 396.31567 62.944684 
L 397.401472 63.193485 
L 398.487273 63.908787 
L 398.487273 63.908787 
" clip-path="url(#pfca2430fd7)" style="fill: none; stroke: #ff7f0e; stroke-width: 1.5; stroke-linecap: square"/>
   </g>
   <g id="line2d_21">
    <path d="M 73.832727 288.211378 
L 76.00433 257.111266 
L 77.090131 237.164297 
L 78.175932 230.408065 
L 79.261733 214.643526 
L 80.347534 208.423503 
L 81.433335 209.710404 
L 82.519137 195.018282 
L 83.604938 194.803799 
L 84.690739 192.551722 
L 85.77654 184.186864 
L 86.862341 179.360984 
L 87.948142 183.650655 
L 89.033943 172.283028 
L 90.119745 170.245434 
L 91.205546 167.457148 
L 92.291347 165.205071 
L 93.377148 164.990587 
L 94.462949 165.312313 
L 95.54875 191.908271 
L 96.634552 191.908271 
L 97.720353 195.018282 
L 98.806154 180.004435 
L 99.891955 179.253743 
L 100.977756 184.723073 
L 102.063557 173.248204 
L 103.149358 179.468226 
L 104.23516 167.457148 
L 105.320961 170.781643 
L 106.406762 167.886115 
L 107.492563 170.245434 
L 108.578364 166.063005 
L 109.664165 162.73851 
L 110.749967 164.025412 
L 111.835768 164.56162 
L 112.921569 158.341598 
L 114.00737 162.73851 
L 115.093171 155.017103 
L 116.178972 151.907092 
L 117.264773 151.692608 
L 118.350575 155.660554 
L 119.436376 155.660554 
L 120.522177 145.472586 
L 121.607978 148.046388 
L 122.693779 154.373653 
L 123.77958 143.971201 
L 124.865382 145.150861 
L 125.951183 142.6843 
L 127.036984 142.362575 
L 128.122785 143.220509 
L 129.208586 139.788772 
L 130.294387 138.394629 
L 131.380189 138.287387 
L 132.46599 137.107728 
L 133.551791 137.965662 
L 134.637592 135.928069 
L 136.809194 133.890475 
L 137.894995 136.357036 
L 138.980797 159.950224 
L 140.066598 162.845752 
L 141.152399 156.732971 
L 142.2382 158.019873 
L 143.324001 164.347137 
L 144.409802 160.057466 
L 145.495604 161.129884 
L 146.581405 160.379191 
L 147.667206 152.97951 
L 148.753007 161.558851 
L 149.838808 150.941916 
L 150.924609 156.196763 
L 152.01041 154.695378 
L 153.096212 155.982279 
L 154.182013 152.014334 
L 155.267814 151.049158 
L 156.353615 153.837444 
L 157.439416 151.478125 
L 158.525217 147.188454 
L 159.611019 145.687069 
L 160.69682 143.220509 
L 162.868422 147.402938 
L 163.954223 141.397399 
L 165.040024 146.008795 
L 166.125825 147.831905 
L 167.211627 148.368114 
L 168.297428 148.046388 
L 169.383229 137.429453 
L 170.46903 142.791542 
L 171.554831 142.040849 
L 172.640632 139.788772 
L 174.812235 140.003256 
L 175.898036 141.397399 
L 176.983837 137.429453 
L 178.069638 140.003256 
L 179.155439 138.501871 
L 180.24124 136.03531 
L 181.327042 140.110497 
L 182.412843 134.748409 
L 183.498644 135.928069 
L 184.584445 134.641167 
L 185.670246 137.000486 
L 186.756047 135.820827 
L 187.841849 129.064595 
L 188.92765 131.209431 
L 190.013451 135.820827 
L 191.099252 132.496332 
L 192.185053 130.137013 
L 193.270854 128.74287 
L 194.356656 128.528387 
L 195.442457 128.635628 
L 196.528258 126.383551 
L 197.614059 130.137013 
L 198.69986 127.455969 
L 200.871462 123.702507 
L 201.957264 126.812518 
L 203.043065 125.954584 
L 204.128866 123.809749 
L 205.214667 122.093881 
L 206.300468 124.560441 
L 207.386269 119.841803 
L 208.472071 123.380782 
L 209.557872 123.059057 
L 210.643673 123.059057 
L 211.729474 121.128705 
L 212.815275 121.235946 
L 213.901076 118.554902 
L 214.986877 120.806979 
L 216.072679 121.343188 
L 217.15848 119.841803 
L 218.244281 119.412836 
L 219.330082 120.163529 
L 220.415883 118.662144 
L 221.501684 119.305595 
L 222.587486 118.447661 
L 223.673287 119.949045 
L 224.759088 118.983869 
L 225.844889 146.866729 
L 226.93069 148.582597 
L 228.016491 141.719124 
L 229.102292 147.188454 
L 230.188094 141.826366 
L 231.273895 149.118806 
L 232.359696 149.011564 
L 233.445497 145.579828 
L 234.531298 146.759487 
L 235.617099 148.475355 
L 236.702901 142.791542 
L 237.788702 146.008795 
L 238.874503 137.536695 
L 239.960304 142.791542 
L 241.046105 142.040849 
L 242.131906 144.614652 
L 243.217708 143.434992 
L 244.303509 144.078443 
L 245.38931 135.284618 
L 246.475111 142.791542 
L 247.560912 144.614652 
L 248.646713 138.930838 
L 249.732514 142.898783 
L 250.818316 145.365344 
L 251.904117 134.855651 
L 252.989918 138.394629 
L 254.075719 138.823596 
L 255.16152 137.751179 
L 256.247321 141.075673 
L 257.333123 140.646706 
L 258.418924 139.467047 
L 259.504725 136.249794 
L 260.590526 135.928069 
L 261.676327 141.182915 
L 262.762128 136.678761 
L 263.847929 137.536695 
L 264.933731 134.426684 
L 266.019532 134.426684 
L 267.105333 131.74564 
L 268.191134 136.893244 
L 269.276935 128.421145 
L 270.362736 135.39186 
L 271.448538 139.359805 
L 272.534339 133.032541 
L 273.62014 127.455969 
L 274.705941 131.960123 
L 275.791742 132.710816 
L 276.877543 131.74564 
L 277.963344 136.464277 
L 279.049146 133.56875 
L 280.134947 133.461508 
L 281.220748 130.458738 
L 282.306549 130.673222 
L 283.39235 130.244255 
L 284.478151 128.206661 
L 285.563953 129.493563 
L 286.649754 127.027002 
L 287.735555 133.461508 
L 288.821356 127.777694 
L 289.907157 125.203892 
L 290.992958 133.354266 
L 293.164561 127.241485 
L 294.250362 130.458738 
L 295.336163 131.102189 
L 296.421964 132.603574 
L 297.507765 129.92253 
L 298.593566 122.308364 
L 299.679368 122.630089 
L 300.765169 130.56598 
L 301.85097 128.206661 
L 302.936771 124.345958 
L 304.022572 126.91976 
L 305.108373 125.525617 
L 306.194175 125.311134 
L 307.279976 128.850112 
L 308.365777 127.884936 
L 309.451578 122.951815 
L 310.537379 123.809749 
L 311.62318 118.554902 
L 312.708981 128.313903 
L 313.794783 125.954584 
L 314.880584 121.45043 
L 315.966385 122.308364 
L 317.052186 125.311134 
L 318.137987 122.844573 
L 319.223788 122.951815 
L 320.30959 124.453199 
L 322.481192 119.520078 
L 323.566993 123.059057 
L 324.652794 122.308364 
L 325.738595 118.447661 
L 326.824396 120.699738 
L 327.910198 119.520078 
L 328.995999 121.343188 
L 330.0818 115.337649 
L 331.167601 115.123166 
L 332.253402 116.839034 
L 333.339203 118.125935 
L 334.425005 118.233177 
L 335.510806 117.482485 
L 336.596607 116.517309 
L 337.682408 115.873858 
L 338.768209 120.699738 
L 339.85401 114.908682 
L 340.939811 113.729023 
L 342.025613 115.337649 
L 343.111414 117.160759 
L 344.197215 115.444891 
L 345.283016 110.619012 
L 346.368817 114.050748 
L 347.454618 116.410067 
L 348.54042 115.123166 
L 349.626221 116.839034 
L 350.712022 114.908682 
L 351.797823 110.940737 
L 352.883624 114.479715 
L 353.969425 117.053518 
L 355.055227 113.085572 
L 356.141028 113.300056 
L 357.226829 110.619012 
L 358.31263 111.691429 
L 359.398431 113.300056 
L 361.570033 108.259693 
L 362.655835 110.833495 
L 363.741636 110.297286 
L 364.827437 111.584187 
L 365.913238 108.581418 
L 366.999039 109.653836 
L 368.08484 110.940737 
L 369.170642 112.013154 
L 370.256443 110.297286 
L 371.342244 115.9811 
L 372.428045 114.265232 
L 373.513846 116.410067 
L 374.599647 117.80421 
L 375.685448 111.798671 
L 376.77125 112.763847 
L 377.857051 112.656605 
L 378.942852 115.766616 
L 380.028653 112.120396 
L 381.114454 114.586957 
L 382.200255 112.442122 
L 384.371858 111.584187 
L 385.457659 111.584187 
L 386.54346 116.195583 
L 387.629261 115.123166 
L 388.715062 112.227638 
L 389.800863 110.297286 
L 390.886665 115.015924 
L 391.972466 114.050748 
L 393.058267 112.33488 
L 394.144068 115.015924 
L 395.229869 111.369704 
L 396.31567 111.15522 
L 397.401472 113.514539 
L 398.487273 113.729023 
L 398.487273 113.729023 
" clip-path="url(#pfca2430fd7)" style="fill: none; stroke: #2ca02c; stroke-width: 1.5; stroke-linecap: square"/>
   </g>
   <g id="line2d_22">
    <path d="M 368.08484 60.301174 
L 369.170642 61.234178 
L 370.256443 61.451879 
L 371.342244 59.803573 
L 373.513846 63.753287 
L 374.599647 62.695883 
L 375.685448 61.171978 
L 376.77125 61.265278 
L 377.857051 60.705476 
L 378.942852 62.415982 
L 380.028653 61.109777 
L 381.114454 61.638479 
L 382.200255 62.664783 
L 383.286057 61.79398 
L 384.371858 62.073881 
L 385.457659 62.695883 
L 386.54346 62.695883 
L 387.629261 60.923177 
L 388.715062 64.406389 
L 389.800863 64.250889 
L 390.886665 62.198281 
L 391.972466 65.246092 
L 393.058267 65.090592 
L 394.144068 65.650394 
L 395.229869 66.458997 
L 396.31567 66.676697 
L 397.401472 65.152792 
L 398.487273 65.308292 
L 398.487273 65.308292 
" clip-path="url(#pfca2430fd7)" style="fill: none; stroke: #d62728; stroke-width: 1.5; stroke-linecap: square"/>
   </g>
   <g id="line2d_23">
    <path d="M 368.08484 108.152451 
L 369.170642 110.833495 
L 370.256443 111.476946 
L 371.342244 109.868319 
L 372.428045 114.586957 
L 373.513846 115.873858 
L 374.599647 115.230408 
L 375.685448 113.085572 
L 376.77125 108.68866 
L 377.857051 110.404528 
L 378.942852 110.619012 
L 381.114454 108.795901 
L 382.200255 112.33488 
L 383.286057 108.581418 
L 384.371858 108.68866 
L 385.457659 108.045209 
L 386.54346 109.117627 
L 387.629261 107.937967 
L 388.715062 112.871089 
L 389.800863 108.474176 
L 390.886665 109.868319 
L 391.972466 110.833495 
L 393.058267 112.549363 
L 394.144068 111.798671 
L 395.229869 112.763847 
L 396.31567 114.586957 
L 397.401472 108.68866 
L 398.487273 109.224869 
L 398.487273 109.224869 
" clip-path="url(#pfca2430fd7)" style="fill: none; stroke: #9467bd; stroke-width: 1.5; stroke-linecap: square"/>
   </g>
   <g id="patch_3">
    <path d="M 57.6 307.584 
L 57.6 41.472 
" style="fill: none; stroke: #000000; stroke-width: 0.8; stroke-linejoin: miter; stroke-linecap: square"/>
   </g>
   <g id="patch_4">
    <path d="M 414.72 307.584 
L 414.72 41.472 
" style="fill: none; stroke: #000000; stroke-width: 0.8; stroke-linejoin: miter; stroke-linecap: square"/>
   </g>
   <g id="patch_5">
    <path d="M 57.6 307.584 
L 414.72 307.584 
" style="fill: none; stroke: #000000; stroke-width: 0.8; stroke-linejoin: miter; stroke-linecap: square"/>
   </g>
   <g id="patch_6">
    <path d="M 57.6 41.472 
L 414.72 41.472 
" style="fill: none; stroke: #000000; stroke-width: 0.8; stroke-linejoin: miter; stroke-linecap: square"/>
   </g>
   <g id="text_21">
    <!-- Learning Curves -->
    <g transform="translate(187.37625 35.472) scale(0.12 -0.12)">
     <defs>
      <path id="DejaVuSans-4c" d="M 628 4666 
L 1259 4666 
L 1259 531 
L 3531 531 
L 3531 0 
L 628 0 
L 628 4666 
z
" transform="scale(0.015625)"/>
      <path id="DejaVuSans-65" d="M 3597 1894 
L 3597 1613 
L 953 1613 
Q 991 1019 1311 708 
Q 1631 397 2203 397 
Q 2534 397 2845 478 
Q 3156 559 3463 722 
L 3463 178 
Q 3153 47 2828 -22 
Q 2503 -91 2169 -91 
Q 1331 -91 842 396 
Q 353 884 353 1716 
Q 353 2575 817 3079 
Q 1281 3584 2069 3584 
Q 2775 3584 3186 3129 
Q 3597 2675 3597 1894 
z
M 3022 2063 
Q 3016 2534 2758 2815 
Q 2500 3097 2075 3097 
Q 1594 3097 1305 2825 
Q 1016 2553 972 2059 
L 3022 2063 
z
" transform="scale(0.015625)"/>
      <path id="DejaVuSans-6e" d="M 3513 2113 
L 3513 0 
L 2938 0 
L 2938 2094 
Q 2938 2591 2744 2837 
Q 2550 3084 2163 3084 
Q 1697 3084 1428 2787 
Q 1159 2491 1159 1978 
L 1159 0 
L 581 0 
L 581 3500 
L 1159 3500 
L 1159 2956 
Q 1366 3272 1645 3428 
Q 1925 3584 2291 3584 
Q 2894 3584 3203 3211 
Q 3513 2838 3513 2113 
z
" transform="scale(0.015625)"/>
      <path id="DejaVuSans-69" d="M 603 3500 
L 1178 3500 
L 1178 0 
L 603 0 
L 603 3500 
z
M 603 4863 
L 1178 4863 
L 1178 4134 
L 603 4134 
L 603 4863 
z
" transform="scale(0.015625)"/>
      <path id="DejaVuSans-67" d="M 2906 1791 
Q 2906 2416 2648 2759 
Q 2391 3103 1925 3103 
Q 1463 3103 1205 2759 
Q 947 2416 947 1791 
Q 947 1169 1205 825 
Q 1463 481 1925 481 
Q 2391 481 2648 825 
Q 2906 1169 2906 1791 
z
M 3481 434 
Q 3481 -459 3084 -895 
Q 2688 -1331 1869 -1331 
Q 1566 -1331 1297 -1286 
Q 1028 -1241 775 -1147 
L 775 -588 
Q 1028 -725 1275 -790 
Q 1522 -856 1778 -856 
Q 2344 -856 2625 -561 
Q 2906 -266 2906 331 
L 2906 616 
Q 2728 306 2450 153 
Q 2172 0 1784 0 
Q 1141 0 747 490 
Q 353 981 353 1791 
Q 353 2603 747 3093 
Q 1141 3584 1784 3584 
Q 2172 3584 2450 3431 
Q 2728 3278 2906 2969 
L 2906 3500 
L 3481 3500 
L 3481 434 
z
" transform="scale(0.015625)"/>
      <path id="DejaVuSans-20" transform="scale(0.015625)"/>
      <path id="DejaVuSans-43" d="M 4122 4306 
L 4122 3641 
Q 3803 3938 3442 4084 
Q 3081 4231 2675 4231 
Q 1875 4231 1450 3742 
Q 1025 3253 1025 2328 
Q 1025 1406 1450 917 
Q 1875 428 2675 428 
Q 3081 428 3442 575 
Q 3803 722 4122 1019 
L 4122 359 
Q 3791 134 3420 21 
Q 3050 -91 2638 -91 
Q 1578 -91 968 557 
Q 359 1206 359 2328 
Q 359 3453 968 4101 
Q 1578 4750 2638 4750 
Q 3056 4750 3426 4639 
Q 3797 4528 4122 4306 
z
" transform="scale(0.015625)"/>
      <path id="DejaVuSans-76" d="M 191 3500 
L 800 3500 
L 1894 563 
L 2988 3500 
L 3597 3500 
L 2284 0 
L 1503 0 
L 191 3500 
z
" transform="scale(0.015625)"/>
     </defs>
     <use xlink:href="#DejaVuSans-4c"/>
     <use xlink:href="#DejaVuSans-65" x="53.962891"/>
     <use xlink:href="#DejaVuSans-61" x="115.486328"/>
     <use xlink:href="#DejaVuSans-72" x="176.765625"/>
     <use xlink:href="#DejaVuSans-6e" x="216.128906"/>
     <use xlink:href="#DejaVuSans-69" x="279.507812"/>
     <use xlink:href="#DejaVuSans-6e" x="307.291016"/>
     <use xlink:href="#DejaVuSans-67" x="370.669922"/>
     <use xlink:href="#DejaVuSans-20" x="434.146484"/>
     <use xlink:href="#DejaVuSans-43" x="465.933594"/>
     <use xlink:href="#DejaVuSans-75" x="535.757812"/>
     <use xlink:href="#DejaVuSans-72" x="599.136719"/>
     <use xlink:href="#DejaVuSans-76" x="640.25"/>
     <use xlink:href="#DejaVuSans-65" x="699.429688"/>
     <use xlink:href="#DejaVuSans-73" x="760.953125"/>
    </g>
   </g>
   <g id="legend_1">
    <g id="patch_7">
     <path d="M 214.18875 302.584 
L 407.72 302.584 
Q 409.72 302.584 409.72 300.584 
L 409.72 228.193375 
Q 409.72 226.193375 407.72 226.193375 
L 214.18875 226.193375 
Q 212.18875 226.193375 212.18875 228.193375 
L 212.18875 300.584 
Q 212.18875 302.584 214.18875 302.584 
z
" style="fill: #ffffff; opacity: 0.8; stroke: #cccccc; stroke-linejoin: miter"/>
    </g>
    <g id="line2d_24">
     <path d="M 216.18875 234.291812 
L 226.18875 234.291812 
L 236.18875 234.291812 
" style="fill: none; stroke: #1f77b4; stroke-width: 1.5; stroke-linecap: square"/>
    </g>
    <g id="text_22">
     <!-- Train Accuracy -->
     <g transform="translate(244.18875 237.791812) scale(0.1 -0.1)">
      <defs>
       <path id="DejaVuSans-54" d="M -19 4666 
L 3928 4666 
L 3928 4134 
L 2272 4134 
L 2272 0 
L 1638 0 
L 1638 4134 
L -19 4134 
L -19 4666 
z
" transform="scale(0.015625)"/>
      </defs>
      <use xlink:href="#DejaVuSans-54"/>
      <use xlink:href="#DejaVuSans-72" x="46.333984"/>
      <use xlink:href="#DejaVuSans-61" x="87.447266"/>
      <use xlink:href="#DejaVuSans-69" x="148.726562"/>
      <use xlink:href="#DejaVuSans-6e" x="176.509766"/>
      <use xlink:href="#DejaVuSans-20" x="239.888672"/>
      <use xlink:href="#DejaVuSans-41" x="271.675781"/>
      <use xlink:href="#DejaVuSans-63" x="338.333984"/>
      <use xlink:href="#DejaVuSans-63" x="393.314453"/>
      <use xlink:href="#DejaVuSans-75" x="448.294922"/>
      <use xlink:href="#DejaVuSans-72" x="511.673828"/>
      <use xlink:href="#DejaVuSans-61" x="552.787109"/>
      <use xlink:href="#DejaVuSans-63" x="614.066406"/>
      <use xlink:href="#DejaVuSans-79" x="669.046875"/>
     </g>
    </g>
    <g id="line2d_25">
     <path d="M 216.18875 248.969937 
L 226.18875 248.969937 
L 236.18875 248.969937 
" style="fill: none; stroke: #ff7f0e; stroke-width: 1.5; stroke-linecap: square"/>
    </g>
    <g id="text_23">
     <!-- Validation Accuracy -->
     <g transform="translate(244.18875 252.469937) scale(0.1 -0.1)">
      <defs>
       <path id="DejaVuSans-56" d="M 1831 0 
L 50 4666 
L 709 4666 
L 2188 738 
L 3669 4666 
L 4325 4666 
L 2547 0 
L 1831 0 
z
" transform="scale(0.015625)"/>
       <path id="DejaVuSans-6c" d="M 603 4863 
L 1178 4863 
L 1178 0 
L 603 0 
L 603 4863 
z
" transform="scale(0.015625)"/>
       <path id="DejaVuSans-64" d="M 2906 2969 
L 2906 4863 
L 3481 4863 
L 3481 0 
L 2906 0 
L 2906 525 
Q 2725 213 2448 61 
Q 2172 -91 1784 -91 
Q 1150 -91 751 415 
Q 353 922 353 1747 
Q 353 2572 751 3078 
Q 1150 3584 1784 3584 
Q 2172 3584 2448 3432 
Q 2725 3281 2906 2969 
z
M 947 1747 
Q 947 1113 1208 752 
Q 1469 391 1925 391 
Q 2381 391 2643 752 
Q 2906 1113 2906 1747 
Q 2906 2381 2643 2742 
Q 2381 3103 1925 3103 
Q 1469 3103 1208 2742 
Q 947 2381 947 1747 
z
" transform="scale(0.015625)"/>
       <path id="DejaVuSans-74" d="M 1172 4494 
L 1172 3500 
L 2356 3500 
L 2356 3053 
L 1172 3053 
L 1172 1153 
Q 1172 725 1289 603 
Q 1406 481 1766 481 
L 2356 481 
L 2356 0 
L 1766 0 
Q 1100 0 847 248 
Q 594 497 594 1153 
L 594 3053 
L 172 3053 
L 172 3500 
L 594 3500 
L 594 4494 
L 1172 4494 
z
" transform="scale(0.015625)"/>
      </defs>
      <use xlink:href="#DejaVuSans-56"/>
      <use xlink:href="#DejaVuSans-61" x="60.658203"/>
      <use xlink:href="#DejaVuSans-6c" x="121.9375"/>
      <use xlink:href="#DejaVuSans-69" x="149.720703"/>
      <use xlink:href="#DejaVuSans-64" x="177.503906"/>
      <use xlink:href="#DejaVuSans-61" x="240.980469"/>
      <use xlink:href="#DejaVuSans-74" x="302.259766"/>
      <use xlink:href="#DejaVuSans-69" x="341.46875"/>
      <use xlink:href="#DejaVuSans-6f" x="369.251953"/>
      <use xlink:href="#DejaVuSans-6e" x="430.433594"/>
      <use xlink:href="#DejaVuSans-20" x="493.8125"/>
      <use xlink:href="#DejaVuSans-41" x="525.599609"/>
      <use xlink:href="#DejaVuSans-63" x="592.257812"/>
      <use xlink:href="#DejaVuSans-63" x="647.238281"/>
      <use xlink:href="#DejaVuSans-75" x="702.21875"/>
      <use xlink:href="#DejaVuSans-72" x="765.597656"/>
      <use xlink:href="#DejaVuSans-61" x="806.710938"/>
      <use xlink:href="#DejaVuSans-63" x="867.990234"/>
      <use xlink:href="#DejaVuSans-79" x="922.970703"/>
     </g>
    </g>
    <g id="line2d_26">
     <path d="M 216.18875 263.648062 
L 226.18875 263.648062 
L 236.18875 263.648062 
" style="fill: none; stroke: #2ca02c; stroke-width: 1.5; stroke-linecap: square"/>
    </g>
    <g id="text_24">
     <!-- Robust Validation Accuracy -->
     <g transform="translate(244.18875 267.148062) scale(0.1 -0.1)">
      <defs>
       <path id="DejaVuSans-52" d="M 2841 2188 
Q 3044 2119 3236 1894 
Q 3428 1669 3622 1275 
L 4263 0 
L 3584 0 
L 2988 1197 
Q 2756 1666 2539 1819 
Q 2322 1972 1947 1972 
L 1259 1972 
L 1259 0 
L 628 0 
L 628 4666 
L 2053 4666 
Q 2853 4666 3247 4331 
Q 3641 3997 3641 3322 
Q 3641 2881 3436 2590 
Q 3231 2300 2841 2188 
z
M 1259 4147 
L 1259 2491 
L 2053 2491 
Q 2509 2491 2742 2702 
Q 2975 2913 2975 3322 
Q 2975 3731 2742 3939 
Q 2509 4147 2053 4147 
L 1259 4147 
z
" transform="scale(0.015625)"/>
       <path id="DejaVuSans-62" d="M 3116 1747 
Q 3116 2381 2855 2742 
Q 2594 3103 2138 3103 
Q 1681 3103 1420 2742 
Q 1159 2381 1159 1747 
Q 1159 1113 1420 752 
Q 1681 391 2138 391 
Q 2594 391 2855 752 
Q 3116 1113 3116 1747 
z
M 1159 2969 
Q 1341 3281 1617 3432 
Q 1894 3584 2278 3584 
Q 2916 3584 3314 3078 
Q 3713 2572 3713 1747 
Q 3713 922 3314 415 
Q 2916 -91 2278 -91 
Q 1894 -91 1617 61 
Q 1341 213 1159 525 
L 1159 0 
L 581 0 
L 581 4863 
L 1159 4863 
L 1159 2969 
z
" transform="scale(0.015625)"/>
      </defs>
      <use xlink:href="#DejaVuSans-52"/>
      <use xlink:href="#DejaVuSans-6f" x="64.982422"/>
      <use xlink:href="#DejaVuSans-62" x="126.164062"/>
      <use xlink:href="#DejaVuSans-75" x="189.640625"/>
      <use xlink:href="#DejaVuSans-73" x="253.019531"/>
      <use xlink:href="#DejaVuSans-74" x="305.119141"/>
      <use xlink:href="#DejaVuSans-20" x="344.328125"/>
      <use xlink:href="#DejaVuSans-56" x="376.115234"/>
      <use xlink:href="#DejaVuSans-61" x="436.773438"/>
      <use xlink:href="#DejaVuSans-6c" x="498.052734"/>
      <use xlink:href="#DejaVuSans-69" x="525.835938"/>
      <use xlink:href="#DejaVuSans-64" x="553.619141"/>
      <use xlink:href="#DejaVuSans-61" x="617.095703"/>
      <use xlink:href="#DejaVuSans-74" x="678.375"/>
      <use xlink:href="#DejaVuSans-69" x="717.583984"/>
      <use xlink:href="#DejaVuSans-6f" x="745.367188"/>
      <use xlink:href="#DejaVuSans-6e" x="806.548828"/>
      <use xlink:href="#DejaVuSans-20" x="869.927734"/>
      <use xlink:href="#DejaVuSans-41" x="901.714844"/>
      <use xlink:href="#DejaVuSans-63" x="968.373047"/>
      <use xlink:href="#DejaVuSans-63" x="1023.353516"/>
      <use xlink:href="#DejaVuSans-75" x="1078.333984"/>
      <use xlink:href="#DejaVuSans-72" x="1141.712891"/>
      <use xlink:href="#DejaVuSans-61" x="1182.826172"/>
      <use xlink:href="#DejaVuSans-63" x="1244.105469"/>
      <use xlink:href="#DejaVuSans-79" x="1299.085938"/>
     </g>
    </g>
    <g id="line2d_27">
     <path d="M 216.18875 278.326188 
L 226.18875 278.326188 
L 236.18875 278.326188 
" style="fill: none; stroke: #d62728; stroke-width: 1.5; stroke-linecap: square"/>
    </g>
    <g id="text_25">
     <!-- SWA Validation Accuracy -->
     <g transform="translate(244.18875 281.826188) scale(0.1 -0.1)">
      <defs>
       <path id="DejaVuSans-53" d="M 3425 4513 
L 3425 3897 
Q 3066 4069 2747 4153 
Q 2428 4238 2131 4238 
Q 1616 4238 1336 4038 
Q 1056 3838 1056 3469 
Q 1056 3159 1242 3001 
Q 1428 2844 1947 2747 
L 2328 2669 
Q 3034 2534 3370 2195 
Q 3706 1856 3706 1288 
Q 3706 609 3251 259 
Q 2797 -91 1919 -91 
Q 1588 -91 1214 -16 
Q 841 59 441 206 
L 441 856 
Q 825 641 1194 531 
Q 1563 422 1919 422 
Q 2459 422 2753 634 
Q 3047 847 3047 1241 
Q 3047 1584 2836 1778 
Q 2625 1972 2144 2069 
L 1759 2144 
Q 1053 2284 737 2584 
Q 422 2884 422 3419 
Q 422 4038 858 4394 
Q 1294 4750 2059 4750 
Q 2388 4750 2728 4690 
Q 3069 4631 3425 4513 
z
" transform="scale(0.015625)"/>
       <path id="DejaVuSans-57" d="M 213 4666 
L 850 4666 
L 1831 722 
L 2809 4666 
L 3519 4666 
L 4500 722 
L 5478 4666 
L 6119 4666 
L 4947 0 
L 4153 0 
L 3169 4050 
L 2175 0 
L 1381 0 
L 213 4666 
z
" transform="scale(0.015625)"/>
      </defs>
      <use xlink:href="#DejaVuSans-53"/>
      <use xlink:href="#DejaVuSans-57" x="63.476562"/>
      <use xlink:href="#DejaVuSans-41" x="156.853516"/>
      <use xlink:href="#DejaVuSans-20" x="225.261719"/>
      <use xlink:href="#DejaVuSans-56" x="257.048828"/>
      <use xlink:href="#DejaVuSans-61" x="317.707031"/>
      <use xlink:href="#DejaVuSans-6c" x="378.986328"/>
      <use xlink:href="#DejaVuSans-69" x="406.769531"/>
      <use xlink:href="#DejaVuSans-64" x="434.552734"/>
      <use xlink:href="#DejaVuSans-61" x="498.029297"/>
      <use xlink:href="#DejaVuSans-74" x="559.308594"/>
      <use xlink:href="#DejaVuSans-69" x="598.517578"/>
      <use xlink:href="#DejaVuSans-6f" x="626.300781"/>
      <use xlink:href="#DejaVuSans-6e" x="687.482422"/>
      <use xlink:href="#DejaVuSans-20" x="750.861328"/>
      <use xlink:href="#DejaVuSans-41" x="782.648438"/>
      <use xlink:href="#DejaVuSans-63" x="849.306641"/>
      <use xlink:href="#DejaVuSans-63" x="904.287109"/>
      <use xlink:href="#DejaVuSans-75" x="959.267578"/>
      <use xlink:href="#DejaVuSans-72" x="1022.646484"/>
      <use xlink:href="#DejaVuSans-61" x="1063.759766"/>
      <use xlink:href="#DejaVuSans-63" x="1125.039062"/>
      <use xlink:href="#DejaVuSans-79" x="1180.019531"/>
     </g>
    </g>
    <g id="line2d_28">
     <path d="M 216.18875 293.004312 
L 226.18875 293.004312 
L 236.18875 293.004312 
" style="fill: none; stroke: #9467bd; stroke-width: 1.5; stroke-linecap: square"/>
    </g>
    <g id="text_26">
     <!-- SWA Robust Validation Accuracy -->
     <g transform="translate(244.18875 296.504312) scale(0.1 -0.1)">
      <use xlink:href="#DejaVuSans-53"/>
      <use xlink:href="#DejaVuSans-57" x="63.476562"/>
      <use xlink:href="#DejaVuSans-41" x="156.853516"/>
      <use xlink:href="#DejaVuSans-20" x="225.261719"/>
      <use xlink:href="#DejaVuSans-52" x="257.048828"/>
      <use xlink:href="#DejaVuSans-6f" x="322.03125"/>
      <use xlink:href="#DejaVuSans-62" x="383.212891"/>
      <use xlink:href="#DejaVuSans-75" x="446.689453"/>
      <use xlink:href="#DejaVuSans-73" x="510.068359"/>
      <use xlink:href="#DejaVuSans-74" x="562.167969"/>
      <use xlink:href="#DejaVuSans-20" x="601.376953"/>
      <use xlink:href="#DejaVuSans-56" x="633.164062"/>
      <use xlink:href="#DejaVuSans-61" x="693.822266"/>
      <use xlink:href="#DejaVuSans-6c" x="755.101562"/>
      <use xlink:href="#DejaVuSans-69" x="782.884766"/>
      <use xlink:href="#DejaVuSans-64" x="810.667969"/>
      <use xlink:href="#DejaVuSans-61" x="874.144531"/>
      <use xlink:href="#DejaVuSans-74" x="935.423828"/>
      <use xlink:href="#DejaVuSans-69" x="974.632812"/>
      <use xlink:href="#DejaVuSans-6f" x="1002.416016"/>
      <use xlink:href="#DejaVuSans-6e" x="1063.597656"/>
      <use xlink:href="#DejaVuSans-20" x="1126.976562"/>
      <use xlink:href="#DejaVuSans-41" x="1158.763672"/>
      <use xlink:href="#DejaVuSans-63" x="1225.421875"/>
      <use xlink:href="#DejaVuSans-63" x="1280.402344"/>
      <use xlink:href="#DejaVuSans-75" x="1335.382812"/>
      <use xlink:href="#DejaVuSans-72" x="1398.761719"/>
      <use xlink:href="#DejaVuSans-61" x="1439.875"/>
      <use xlink:href="#DejaVuSans-63" x="1501.154297"/>
      <use xlink:href="#DejaVuSans-79" x="1556.134766"/>
     </g>
    </g>
   </g>
  </g>
 </g>
 <defs>
  <clipPath id="pfca2430fd7">
   <rect x="57.6" y="41.472" width="357.12" height="266.112"/>
  </clipPath>
 </defs>
</svg>
