<?xml version="1.0" encoding="utf-8" standalone="no"?>
<!DOCTYPE svg PUBLIC "-//W3C//DTD SVG 1.1//EN"
  "http://www.w3.org/Graphics/SVG/1.1/DTD/svg11.dtd">
<svg xmlns:xlink="http://www.w3.org/1999/xlink" width="460.8pt" height="345.6pt" viewBox="0 0 460.8 345.6" xmlns="http://www.w3.org/2000/svg" version="1.1">
 <metadata>
  <rdf:RDF xmlns:dc="http://purl.org/dc/elements/1.1/" xmlns:cc="http://creativecommons.org/ns#" xmlns:rdf="http://www.w3.org/1999/02/22-rdf-syntax-ns#">
   <cc:Work>
    <dc:type rdf:resource="http://purl.org/dc/dcmitype/StillImage"/>
    <dc:date>2025-07-13T08:00:49.974344</dc:date>
    <dc:format>image/svg+xml</dc:format>
    <dc:creator>
     <cc:Agent>
      <dc:title>Matplotlib v3.9.1, https://matplotlib.org/</dc:title>
     </cc:Agent>
    </dc:creator>
   </cc:Work>
  </rdf:RDF>
 </metadata>
 <defs>
  <style type="text/css">*{stroke-linejoin: round; stroke-linecap: butt}</style>
 </defs>
 <g id="figure_1">
  <g id="patch_1">
   <path d="M 0 345.6 
L 460.8 345.6 
L 460.8 0 
L 0 0 
z
" style="fill: #ffffff"/>
  </g>
  <g id="axes_1">
   <g id="patch_2">
    <path d="M 57.6 307.584 
L 414.72 307.584 
L 414.72 41.472 
L 57.6 41.472 
z
" style="fill: #ffffff"/>
   </g>
   <g id="matplotlib.axis_1">
    <g id="xtick_1">
     <g id="line2d_1">
      <defs>
       <path id="m3070e1b6e1" d="M 0 0 
L 0 3.5 
" style="stroke: #000000; stroke-width: 0.8"/>
      </defs>
      <g>
       <use xlink:href="#m3070e1b6e1" x="73.832727" y="307.584" style="stroke: #000000; stroke-width: 0.8"/>
      </g>
     </g>
     <g id="text_1">
      <!-- 1 -->
      <g transform="translate(70.651477 322.182437) scale(0.1 -0.1)">
       <defs>
        <path id="DejaVuSans-31" d="M 794 531 
L 1825 531 
L 1825 4091 
L 703 3866 
L 703 4441 
L 1819 4666 
L 2450 4666 
L 2450 531 
L 3481 531 
L 3481 0 
L 794 0 
L 794 531 
z
" transform="scale(0.015625)"/>
       </defs>
       <use xlink:href="#DejaVuSans-31"/>
      </g>
     </g>
    </g>
    <g id="xtick_2">
     <g id="line2d_2">
      <g>
       <use xlink:href="#m3070e1b6e1" x="109.664165" y="307.584" style="stroke: #000000; stroke-width: 0.8"/>
      </g>
     </g>
     <g id="text_2">
      <!-- 34 -->
      <g transform="translate(103.301665 322.182437) scale(0.1 -0.1)">
       <defs>
        <path id="DejaVuSans-33" d="M 2597 2516 
Q 3050 2419 3304 2112 
Q 3559 1806 3559 1356 
Q 3559 666 3084 287 
Q 2609 -91 1734 -91 
Q 1441 -91 1130 -33 
Q 819 25 488 141 
L 488 750 
Q 750 597 1062 519 
Q 1375 441 1716 441 
Q 2309 441 2620 675 
Q 2931 909 2931 1356 
Q 2931 1769 2642 2001 
Q 2353 2234 1838 2234 
L 1294 2234 
L 1294 2753 
L 1863 2753 
Q 2328 2753 2575 2939 
Q 2822 3125 2822 3475 
Q 2822 3834 2567 4026 
Q 2313 4219 1838 4219 
Q 1578 4219 1281 4162 
Q 984 4106 628 3988 
L 628 4550 
Q 988 4650 1302 4700 
Q 1616 4750 1894 4750 
Q 2613 4750 3031 4423 
Q 3450 4097 3450 3541 
Q 3450 3153 3228 2886 
Q 3006 2619 2597 2516 
z
" transform="scale(0.015625)"/>
        <path id="DejaVuSans-34" d="M 2419 4116 
L 825 1625 
L 2419 1625 
L 2419 4116 
z
M 2253 4666 
L 3047 4666 
L 3047 1625 
L 3713 1625 
L 3713 1100 
L 3047 1100 
L 3047 0 
L 2419 0 
L 2419 1100 
L 313 1100 
L 313 1709 
L 2253 4666 
z
" transform="scale(0.015625)"/>
       </defs>
       <use xlink:href="#DejaVuSans-33"/>
       <use xlink:href="#DejaVuSans-34" x="63.623047"/>
      </g>
     </g>
    </g>
    <g id="xtick_3">
     <g id="line2d_3">
      <g>
       <use xlink:href="#m3070e1b6e1" x="145.495604" y="307.584" style="stroke: #000000; stroke-width: 0.8"/>
      </g>
     </g>
     <g id="text_3">
      <!-- 67 -->
      <g transform="translate(139.133104 322.182437) scale(0.1 -0.1)">
       <defs>
        <path id="DejaVuSans-36" d="M 2113 2584 
Q 1688 2584 1439 2293 
Q 1191 2003 1191 1497 
Q 1191 994 1439 701 
Q 1688 409 2113 409 
Q 2538 409 2786 701 
Q 3034 994 3034 1497 
Q 3034 2003 2786 2293 
Q 2538 2584 2113 2584 
z
M 3366 4563 
L 3366 3988 
Q 3128 4100 2886 4159 
Q 2644 4219 2406 4219 
Q 1781 4219 1451 3797 
Q 1122 3375 1075 2522 
Q 1259 2794 1537 2939 
Q 1816 3084 2150 3084 
Q 2853 3084 3261 2657 
Q 3669 2231 3669 1497 
Q 3669 778 3244 343 
Q 2819 -91 2113 -91 
Q 1303 -91 875 529 
Q 447 1150 447 2328 
Q 447 3434 972 4092 
Q 1497 4750 2381 4750 
Q 2619 4750 2861 4703 
Q 3103 4656 3366 4563 
z
" transform="scale(0.015625)"/>
        <path id="DejaVuSans-37" d="M 525 4666 
L 3525 4666 
L 3525 4397 
L 1831 0 
L 1172 0 
L 2766 4134 
L 525 4134 
L 525 4666 
z
" transform="scale(0.015625)"/>
       </defs>
       <use xlink:href="#DejaVuSans-36"/>
       <use xlink:href="#DejaVuSans-37" x="63.623047"/>
      </g>
     </g>
    </g>
    <g id="xtick_4">
     <g id="line2d_4">
      <g>
       <use xlink:href="#m3070e1b6e1" x="181.327042" y="307.584" style="stroke: #000000; stroke-width: 0.8"/>
      </g>
     </g>
     <g id="text_4">
      <!-- 100 -->
      <g transform="translate(171.783292 322.182437) scale(0.1 -0.1)">
       <defs>
        <path id="DejaVuSans-30" d="M 2034 4250 
Q 1547 4250 1301 3770 
Q 1056 3291 1056 2328 
Q 1056 1369 1301 889 
Q 1547 409 2034 409 
Q 2525 409 2770 889 
Q 3016 1369 3016 2328 
Q 3016 3291 2770 3770 
Q 2525 4250 2034 4250 
z
M 2034 4750 
Q 2819 4750 3233 4129 
Q 3647 3509 3647 2328 
Q 3647 1150 3233 529 
Q 2819 -91 2034 -91 
Q 1250 -91 836 529 
Q 422 1150 422 2328 
Q 422 3509 836 4129 
Q 1250 4750 2034 4750 
z
" transform="scale(0.015625)"/>
       </defs>
       <use xlink:href="#DejaVuSans-31"/>
       <use xlink:href="#DejaVuSans-30" x="63.623047"/>
       <use xlink:href="#DejaVuSans-30" x="127.246094"/>
      </g>
     </g>
    </g>
    <g id="xtick_5">
     <g id="line2d_5">
      <g>
       <use xlink:href="#m3070e1b6e1" x="217.15848" y="307.584" style="stroke: #000000; stroke-width: 0.8"/>
      </g>
     </g>
     <g id="text_5">
      <!-- 133 -->
      <g transform="translate(207.61473 322.182437) scale(0.1 -0.1)">
       <use xlink:href="#DejaVuSans-31"/>
       <use xlink:href="#DejaVuSans-33" x="63.623047"/>
       <use xlink:href="#DejaVuSans-33" x="127.246094"/>
      </g>
     </g>
    </g>
    <g id="xtick_6">
     <g id="line2d_6">
      <g>
       <use xlink:href="#m3070e1b6e1" x="254.075719" y="307.584" style="stroke: #000000; stroke-width: 0.8"/>
      </g>
     </g>
     <g id="text_6">
      <!-- 167 -->
      <g transform="translate(244.531969 322.182437) scale(0.1 -0.1)">
       <use xlink:href="#DejaVuSans-31"/>
       <use xlink:href="#DejaVuSans-36" x="63.623047"/>
       <use xlink:href="#DejaVuSans-37" x="127.246094"/>
      </g>
     </g>
    </g>
    <g id="xtick_7">
     <g id="line2d_7">
      <g>
       <use xlink:href="#m3070e1b6e1" x="289.907157" y="307.584" style="stroke: #000000; stroke-width: 0.8"/>
      </g>
     </g>
     <g id="text_7">
      <!-- 200 -->
      <g transform="translate(280.363407 322.182437) scale(0.1 -0.1)">
       <defs>
        <path id="DejaVuSans-32" d="M 1228 531 
L 3431 531 
L 3431 0 
L 469 0 
L 469 531 
Q 828 903 1448 1529 
Q 2069 2156 2228 2338 
Q 2531 2678 2651 2914 
Q 2772 3150 2772 3378 
Q 2772 3750 2511 3984 
Q 2250 4219 1831 4219 
Q 1534 4219 1204 4116 
Q 875 4013 500 3803 
L 500 4441 
Q 881 4594 1212 4672 
Q 1544 4750 1819 4750 
Q 2544 4750 2975 4387 
Q 3406 4025 3406 3419 
Q 3406 3131 3298 2873 
Q 3191 2616 2906 2266 
Q 2828 2175 2409 1742 
Q 1991 1309 1228 531 
z
" transform="scale(0.015625)"/>
       </defs>
       <use xlink:href="#DejaVuSans-32"/>
       <use xlink:href="#DejaVuSans-30" x="63.623047"/>
       <use xlink:href="#DejaVuSans-30" x="127.246094"/>
      </g>
     </g>
    </g>
    <g id="xtick_8">
     <g id="line2d_8">
      <g>
       <use xlink:href="#m3070e1b6e1" x="325.738595" y="307.584" style="stroke: #000000; stroke-width: 0.8"/>
      </g>
     </g>
     <g id="text_8">
      <!-- 233 -->
      <g transform="translate(316.194845 322.182437) scale(0.1 -0.1)">
       <use xlink:href="#DejaVuSans-32"/>
       <use xlink:href="#DejaVuSans-33" x="63.623047"/>
       <use xlink:href="#DejaVuSans-33" x="127.246094"/>
      </g>
     </g>
    </g>
    <g id="xtick_9">
     <g id="line2d_9">
      <g>
       <use xlink:href="#m3070e1b6e1" x="361.570033" y="307.584" style="stroke: #000000; stroke-width: 0.8"/>
      </g>
     </g>
     <g id="text_9">
      <!-- 266 -->
      <g transform="translate(352.026283 322.182437) scale(0.1 -0.1)">
       <use xlink:href="#DejaVuSans-32"/>
       <use xlink:href="#DejaVuSans-36" x="63.623047"/>
       <use xlink:href="#DejaVuSans-36" x="127.246094"/>
      </g>
     </g>
    </g>
    <g id="xtick_10">
     <g id="line2d_10">
      <g>
       <use xlink:href="#m3070e1b6e1" x="398.487273" y="307.584" style="stroke: #000000; stroke-width: 0.8"/>
      </g>
     </g>
     <g id="text_10">
      <!-- 300 -->
      <g transform="translate(388.943523 322.182437) scale(0.1 -0.1)">
       <use xlink:href="#DejaVuSans-33"/>
       <use xlink:href="#DejaVuSans-30" x="63.623047"/>
       <use xlink:href="#DejaVuSans-30" x="127.246094"/>
      </g>
     </g>
    </g>
    <g id="text_11">
     <!-- Epochs -->
     <g transform="translate(218.244375 335.860562) scale(0.1 -0.1)">
      <defs>
       <path id="DejaVuSans-45" d="M 628 4666 
L 3578 4666 
L 3578 4134 
L 1259 4134 
L 1259 2753 
L 3481 2753 
L 3481 2222 
L 1259 2222 
L 1259 531 
L 3634 531 
L 3634 0 
L 628 0 
L 628 4666 
z
" transform="scale(0.015625)"/>
       <path id="DejaVuSans-70" d="M 1159 525 
L 1159 -1331 
L 581 -1331 
L 581 3500 
L 1159 3500 
L 1159 2969 
Q 1341 3281 1617 3432 
Q 1894 3584 2278 3584 
Q 2916 3584 3314 3078 
Q 3713 2572 3713 1747 
Q 3713 922 3314 415 
Q 2916 -91 2278 -91 
Q 1894 -91 1617 61 
Q 1341 213 1159 525 
z
M 3116 1747 
Q 3116 2381 2855 2742 
Q 2594 3103 2138 3103 
Q 1681 3103 1420 2742 
Q 1159 2381 1159 1747 
Q 1159 1113 1420 752 
Q 1681 391 2138 391 
Q 2594 391 2855 752 
Q 3116 1113 3116 1747 
z
" transform="scale(0.015625)"/>
       <path id="DejaVuSans-6f" d="M 1959 3097 
Q 1497 3097 1228 2736 
Q 959 2375 959 1747 
Q 959 1119 1226 758 
Q 1494 397 1959 397 
Q 2419 397 2687 759 
Q 2956 1122 2956 1747 
Q 2956 2369 2687 2733 
Q 2419 3097 1959 3097 
z
M 1959 3584 
Q 2709 3584 3137 3096 
Q 3566 2609 3566 1747 
Q 3566 888 3137 398 
Q 2709 -91 1959 -91 
Q 1206 -91 779 398 
Q 353 888 353 1747 
Q 353 2609 779 3096 
Q 1206 3584 1959 3584 
z
" transform="scale(0.015625)"/>
       <path id="DejaVuSans-63" d="M 3122 3366 
L 3122 2828 
Q 2878 2963 2633 3030 
Q 2388 3097 2138 3097 
Q 1578 3097 1268 2742 
Q 959 2388 959 1747 
Q 959 1106 1268 751 
Q 1578 397 2138 397 
Q 2388 397 2633 464 
Q 2878 531 3122 666 
L 3122 134 
Q 2881 22 2623 -34 
Q 2366 -91 2075 -91 
Q 1284 -91 818 406 
Q 353 903 353 1747 
Q 353 2603 823 3093 
Q 1294 3584 2113 3584 
Q 2378 3584 2631 3529 
Q 2884 3475 3122 3366 
z
" transform="scale(0.015625)"/>
       <path id="DejaVuSans-68" d="M 3513 2113 
L 3513 0 
L 2938 0 
L 2938 2094 
Q 2938 2591 2744 2837 
Q 2550 3084 2163 3084 
Q 1697 3084 1428 2787 
Q 1159 2491 1159 1978 
L 1159 0 
L 581 0 
L 581 4863 
L 1159 4863 
L 1159 2956 
Q 1366 3272 1645 3428 
Q 1925 3584 2291 3584 
Q 2894 3584 3203 3211 
Q 3513 2838 3513 2113 
z
" transform="scale(0.015625)"/>
       <path id="DejaVuSans-73" d="M 2834 3397 
L 2834 2853 
Q 2591 2978 2328 3040 
Q 2066 3103 1784 3103 
Q 1356 3103 1142 2972 
Q 928 2841 928 2578 
Q 928 2378 1081 2264 
Q 1234 2150 1697 2047 
L 1894 2003 
Q 2506 1872 2764 1633 
Q 3022 1394 3022 966 
Q 3022 478 2636 193 
Q 2250 -91 1575 -91 
Q 1294 -91 989 -36 
Q 684 19 347 128 
L 347 722 
Q 666 556 975 473 
Q 1284 391 1588 391 
Q 1994 391 2212 530 
Q 2431 669 2431 922 
Q 2431 1156 2273 1281 
Q 2116 1406 1581 1522 
L 1381 1569 
Q 847 1681 609 1914 
Q 372 2147 372 2553 
Q 372 3047 722 3315 
Q 1072 3584 1716 3584 
Q 2034 3584 2315 3537 
Q 2597 3491 2834 3397 
z
" transform="scale(0.015625)"/>
      </defs>
      <use xlink:href="#DejaVuSans-45"/>
      <use xlink:href="#DejaVuSans-70" x="63.183594"/>
      <use xlink:href="#DejaVuSans-6f" x="126.660156"/>
      <use xlink:href="#DejaVuSans-63" x="187.841797"/>
      <use xlink:href="#DejaVuSans-68" x="242.822266"/>
      <use xlink:href="#DejaVuSans-73" x="306.201172"/>
     </g>
    </g>
   </g>
   <g id="matplotlib.axis_2">
    <g id="ytick_1">
     <g id="line2d_11">
      <defs>
       <path id="m277d75d456" d="M 0 0 
L -3.5 0 
" style="stroke: #000000; stroke-width: 0.8"/>
      </defs>
      <g>
       <use xlink:href="#m277d75d456" x="57.6" y="285.943297" style="stroke: #000000; stroke-width: 0.8"/>
      </g>
     </g>
     <g id="text_12">
      <!-- 10 -->
      <g transform="translate(37.875 289.742516) scale(0.1 -0.1)">
       <use xlink:href="#DejaVuSans-31"/>
       <use xlink:href="#DejaVuSans-30" x="63.623047"/>
      </g>
     </g>
    </g>
    <g id="ytick_2">
     <g id="line2d_12">
      <g>
       <use xlink:href="#m277d75d456" x="57.6" y="254.416614" style="stroke: #000000; stroke-width: 0.8"/>
      </g>
     </g>
     <g id="text_13">
      <!-- 20 -->
      <g transform="translate(37.875 258.215833) scale(0.1 -0.1)">
       <use xlink:href="#DejaVuSans-32"/>
       <use xlink:href="#DejaVuSans-30" x="63.623047"/>
      </g>
     </g>
    </g>
    <g id="ytick_3">
     <g id="line2d_13">
      <g>
       <use xlink:href="#m277d75d456" x="57.6" y="222.889931" style="stroke: #000000; stroke-width: 0.8"/>
      </g>
     </g>
     <g id="text_14">
      <!-- 30 -->
      <g transform="translate(37.875 226.68915) scale(0.1 -0.1)">
       <use xlink:href="#DejaVuSans-33"/>
       <use xlink:href="#DejaVuSans-30" x="63.623047"/>
      </g>
     </g>
    </g>
    <g id="ytick_4">
     <g id="line2d_14">
      <g>
       <use xlink:href="#m277d75d456" x="57.6" y="191.363249" style="stroke: #000000; stroke-width: 0.8"/>
      </g>
     </g>
     <g id="text_15">
      <!-- 40 -->
      <g transform="translate(37.875 195.162467) scale(0.1 -0.1)">
       <use xlink:href="#DejaVuSans-34"/>
       <use xlink:href="#DejaVuSans-30" x="63.623047"/>
      </g>
     </g>
    </g>
    <g id="ytick_5">
     <g id="line2d_15">
      <g>
       <use xlink:href="#m277d75d456" x="57.6" y="159.836566" style="stroke: #000000; stroke-width: 0.8"/>
      </g>
     </g>
     <g id="text_16">
      <!-- 50 -->
      <g transform="translate(37.875 163.635785) scale(0.1 -0.1)">
       <defs>
        <path id="DejaVuSans-35" d="M 691 4666 
L 3169 4666 
L 3169 4134 
L 1269 4134 
L 1269 2991 
Q 1406 3038 1543 3061 
Q 1681 3084 1819 3084 
Q 2600 3084 3056 2656 
Q 3513 2228 3513 1497 
Q 3513 744 3044 326 
Q 2575 -91 1722 -91 
Q 1428 -91 1123 -41 
Q 819 9 494 109 
L 494 744 
Q 775 591 1075 516 
Q 1375 441 1709 441 
Q 2250 441 2565 725 
Q 2881 1009 2881 1497 
Q 2881 1984 2565 2268 
Q 2250 2553 1709 2553 
Q 1456 2553 1204 2497 
Q 953 2441 691 2322 
L 691 4666 
z
" transform="scale(0.015625)"/>
       </defs>
       <use xlink:href="#DejaVuSans-35"/>
       <use xlink:href="#DejaVuSans-30" x="63.623047"/>
      </g>
     </g>
    </g>
    <g id="ytick_6">
     <g id="line2d_16">
      <g>
       <use xlink:href="#m277d75d456" x="57.6" y="128.309883" style="stroke: #000000; stroke-width: 0.8"/>
      </g>
     </g>
     <g id="text_17">
      <!-- 60 -->
      <g transform="translate(37.875 132.109102) scale(0.1 -0.1)">
       <use xlink:href="#DejaVuSans-36"/>
       <use xlink:href="#DejaVuSans-30" x="63.623047"/>
      </g>
     </g>
    </g>
    <g id="ytick_7">
     <g id="line2d_17">
      <g>
       <use xlink:href="#m277d75d456" x="57.6" y="96.7832" style="stroke: #000000; stroke-width: 0.8"/>
      </g>
     </g>
     <g id="text_18">
      <!-- 70 -->
      <g transform="translate(37.875 100.582419) scale(0.1 -0.1)">
       <use xlink:href="#DejaVuSans-37"/>
       <use xlink:href="#DejaVuSans-30" x="63.623047"/>
      </g>
     </g>
    </g>
    <g id="ytick_8">
     <g id="line2d_18">
      <g>
       <use xlink:href="#m277d75d456" x="57.6" y="65.256518" style="stroke: #000000; stroke-width: 0.8"/>
      </g>
     </g>
     <g id="text_19">
      <!-- 80 -->
      <g transform="translate(37.875 69.055736) scale(0.1 -0.1)">
       <defs>
        <path id="DejaVuSans-38" d="M 2034 2216 
Q 1584 2216 1326 1975 
Q 1069 1734 1069 1313 
Q 1069 891 1326 650 
Q 1584 409 2034 409 
Q 2484 409 2743 651 
Q 3003 894 3003 1313 
Q 3003 1734 2745 1975 
Q 2488 2216 2034 2216 
z
M 1403 2484 
Q 997 2584 770 2862 
Q 544 3141 544 3541 
Q 544 4100 942 4425 
Q 1341 4750 2034 4750 
Q 2731 4750 3128 4425 
Q 3525 4100 3525 3541 
Q 3525 3141 3298 2862 
Q 3072 2584 2669 2484 
Q 3125 2378 3379 2068 
Q 3634 1759 3634 1313 
Q 3634 634 3220 271 
Q 2806 -91 2034 -91 
Q 1263 -91 848 271 
Q 434 634 434 1313 
Q 434 1759 690 2068 
Q 947 2378 1403 2484 
z
M 1172 3481 
Q 1172 3119 1398 2916 
Q 1625 2713 2034 2713 
Q 2441 2713 2670 2916 
Q 2900 3119 2900 3481 
Q 2900 3844 2670 4047 
Q 2441 4250 2034 4250 
Q 1625 4250 1398 4047 
Q 1172 3844 1172 3481 
z
" transform="scale(0.015625)"/>
       </defs>
       <use xlink:href="#DejaVuSans-38"/>
       <use xlink:href="#DejaVuSans-30" x="63.623047"/>
      </g>
     </g>
    </g>
    <g id="text_20">
     <!-- Accuracy -->
     <g transform="translate(31.795312 197.356125) rotate(-90) scale(0.1 -0.1)">
      <defs>
       <path id="DejaVuSans-41" d="M 2188 4044 
L 1331 1722 
L 3047 1722 
L 2188 4044 
z
M 1831 4666 
L 2547 4666 
L 4325 0 
L 3669 0 
L 3244 1197 
L 1141 1197 
L 716 0 
L 50 0 
L 1831 4666 
z
" transform="scale(0.015625)"/>
       <path id="DejaVuSans-75" d="M 544 1381 
L 544 3500 
L 1119 3500 
L 1119 1403 
Q 1119 906 1312 657 
Q 1506 409 1894 409 
Q 2359 409 2629 706 
Q 2900 1003 2900 1516 
L 2900 3500 
L 3475 3500 
L 3475 0 
L 2900 0 
L 2900 538 
Q 2691 219 2414 64 
Q 2138 -91 1772 -91 
Q 1169 -91 856 284 
Q 544 659 544 1381 
z
M 1991 3584 
L 1991 3584 
z
" transform="scale(0.015625)"/>
       <path id="DejaVuSans-72" d="M 2631 2963 
Q 2534 3019 2420 3045 
Q 2306 3072 2169 3072 
Q 1681 3072 1420 2755 
Q 1159 2438 1159 1844 
L 1159 0 
L 581 0 
L 581 3500 
L 1159 3500 
L 1159 2956 
Q 1341 3275 1631 3429 
Q 1922 3584 2338 3584 
Q 2397 3584 2469 3576 
Q 2541 3569 2628 3553 
L 2631 2963 
z
" transform="scale(0.015625)"/>
       <path id="DejaVuSans-61" d="M 2194 1759 
Q 1497 1759 1228 1600 
Q 959 1441 959 1056 
Q 959 750 1161 570 
Q 1363 391 1709 391 
Q 2188 391 2477 730 
Q 2766 1069 2766 1631 
L 2766 1759 
L 2194 1759 
z
M 3341 1997 
L 3341 0 
L 2766 0 
L 2766 531 
Q 2569 213 2275 61 
Q 1981 -91 1556 -91 
Q 1019 -91 701 211 
Q 384 513 384 1019 
Q 384 1609 779 1909 
Q 1175 2209 1959 2209 
L 2766 2209 
L 2766 2266 
Q 2766 2663 2505 2880 
Q 2244 3097 1772 3097 
Q 1472 3097 1187 3025 
Q 903 2953 641 2809 
L 641 3341 
Q 956 3463 1253 3523 
Q 1550 3584 1831 3584 
Q 2591 3584 2966 3190 
Q 3341 2797 3341 1997 
z
" transform="scale(0.015625)"/>
       <path id="DejaVuSans-79" d="M 2059 -325 
Q 1816 -950 1584 -1140 
Q 1353 -1331 966 -1331 
L 506 -1331 
L 506 -850 
L 844 -850 
Q 1081 -850 1212 -737 
Q 1344 -625 1503 -206 
L 1606 56 
L 191 3500 
L 800 3500 
L 1894 763 
L 2988 3500 
L 3597 3500 
L 2059 -325 
z
" transform="scale(0.015625)"/>
      </defs>
      <use xlink:href="#DejaVuSans-41"/>
      <use xlink:href="#DejaVuSans-63" x="66.658203"/>
      <use xlink:href="#DejaVuSans-63" x="121.638672"/>
      <use xlink:href="#DejaVuSans-75" x="176.619141"/>
      <use xlink:href="#DejaVuSans-72" x="239.998047"/>
      <use xlink:href="#DejaVuSans-61" x="281.111328"/>
      <use xlink:href="#DejaVuSans-63" x="342.390625"/>
      <use xlink:href="#DejaVuSans-79" x="397.371094"/>
     </g>
    </g>
   </g>
   <g id="line2d_19">
    <path d="M 73.832727 295.488 
L 76.00433 248.560533 
L 77.090131 228.950936 
L 78.175932 213.297938 
L 79.261733 201.735527 
L 80.347534 187.40665 
L 81.433335 178.390019 
L 82.519137 171.477793 
L 83.604938 165.322209 
L 84.690739 159.962673 
L 85.77654 153.807088 
L 86.862341 149.637684 
L 87.948142 144.585533 
L 90.119745 137.909758 
L 91.205546 133.007359 
L 92.291347 129.965034 
L 93.377148 130.950243 
L 94.462949 129.626122 
L 95.54875 157.511473 
L 96.634552 158.189297 
L 97.720353 155.430712 
L 98.806154 150.039649 
L 99.891955 146.161867 
L 102.063557 140.431893 
L 103.149358 138.39054 
L 104.23516 136.664454 
L 105.320961 134.031976 
L 106.406762 133.566957 
L 107.492563 129.515779 
L 108.578364 126.851774 
L 109.664165 125.771985 
L 110.749967 123.549354 
L 111.835768 119.135618 
L 112.921569 118.252871 
L 114.00737 117.015449 
L 115.093171 113.405644 
L 116.178972 112.96427 
L 117.264773 110.386964 
L 118.350575 108.731813 
L 119.436376 107.344639 
L 120.522177 106.493419 
L 121.607978 103.553555 
L 122.693779 101.323043 
L 123.77958 100.432414 
L 124.865382 97.453142 
L 125.951183 97.390089 
L 127.036984 96.21572 
L 128.122785 93.827574 
L 129.208586 94.032497 
L 130.294387 93.220685 
L 131.380189 91.794103 
L 133.551791 88.71237 
L 134.637592 88.90153 
L 135.723393 89.689697 
L 136.809194 86.702544 
L 137.894995 88.397103 
L 138.980797 115.202665 
L 140.066598 119.506057 
L 141.152399 119.915904 
L 144.409802 117.094266 
L 145.495604 115.93566 
L 146.581405 115.502168 
L 147.667206 114.564249 
L 149.838808 113.326827 
L 150.924609 112.049996 
L 152.01041 110.962326 
L 153.096212 109.47269 
L 154.182013 109.780075 
L 156.353615 106.800804 
L 157.439416 107.699314 
L 158.525217 107.076662 
L 159.611019 104.318078 
L 162.868422 102.702335 
L 163.954223 101.843233 
L 165.040024 99.56543 
L 166.125825 99.730945 
L 167.211627 99.076767 
L 168.297428 97.555604 
L 169.383229 97.957569 
L 170.46903 95.766465 
L 171.554831 95.120168 
L 172.640632 95.608831 
L 173.726434 92.802957 
L 174.812235 94.647268 
L 175.898036 93.126105 
L 178.069638 88.85424 
L 179.155439 89.965555 
L 180.24124 89.957674 
L 181.327042 88.144889 
L 182.412843 87.979374 
L 183.498644 85.685808 
L 184.584445 85.591228 
L 185.670246 84.645428 
L 186.756047 84.740008 
L 187.841849 82.730182 
L 188.92765 83.045448 
L 190.013451 80.586367 
L 191.099252 78.797228 
L 192.185053 79.979478 
L 193.270854 78.75782 
L 194.356656 77.890836 
L 195.442457 77.291829 
L 196.528258 75.723376 
L 197.614059 75.778548 
L 198.69986 76.038643 
L 199.785661 73.469218 
L 200.871462 73.469218 
L 203.043065 71.585499 
L 204.128866 72.610116 
L 206.300468 70.31655 
L 207.386269 70.300787 
L 208.472071 69.756952 
L 210.643673 67.967812 
L 212.815275 67.092947 
L 213.901076 66.25749 
L 214.986877 66.848615 
L 216.072679 66.091975 
L 217.15848 66.084093 
L 218.244281 65.477204 
L 219.330082 64.562931 
L 220.415883 66.139265 
L 221.501684 64.941251 
L 222.587486 65.295926 
L 223.673287 65.280163 
L 224.759088 66.241726 
L 225.844889 94.797019 
L 226.93069 97.090586 
L 228.016491 98.540813 
L 229.102292 99.344743 
L 230.188094 100.542757 
L 231.273895 97.862989 
L 232.359696 98.38318 
L 233.445497 97.240337 
L 234.531298 99.147702 
L 235.617099 97.468906 
L 236.702901 97.539841 
L 237.788702 98.737855 
L 239.960304 95.135931 
L 241.046105 95.8374 
L 242.131906 94.702439 
L 243.217708 95.522133 
L 244.303509 94.718203 
L 245.38931 94.245302 
L 246.475111 94.702439 
L 247.560912 93.465017 
L 249.732514 94.631504 
L 250.818316 92.9133 
L 251.904117 91.518244 
L 252.989918 92.590152 
L 254.075719 92.53498 
L 255.16152 91.612824 
L 256.247321 91.045344 
L 257.333123 90.265059 
L 258.418924 90.856184 
L 259.504725 91.218741 
L 260.590526 90.643379 
L 261.676327 88.94882 
L 262.762128 89.366548 
L 263.847929 88.523209 
L 264.933731 87.0651 
L 266.019532 88.334049 
L 267.105333 88.373458 
L 268.191134 86.663135 
L 269.276935 86.726189 
L 270.362736 86.489738 
L 271.448538 86.836532 
L 272.534339 85.50453 
L 273.62014 84.960694 
L 274.705941 86.095655 
L 275.791742 84.164646 
L 276.877543 84.669073 
L 277.963344 82.115411 
L 279.049146 84.038539 
L 280.134947 84.038539 
L 281.220748 83.00604 
L 282.306549 82.785353 
L 283.39235 82.036595 
L 284.478151 82.730182 
L 285.563953 81.461233 
L 286.649754 81.532168 
L 287.735555 81.035622 
L 289.907157 79.3253 
L 290.992958 78.891808 
L 292.07876 78.970625 
L 293.164561 78.284919 
L 294.250362 79.538105 
L 296.421964 78.237629 
L 297.507765 78.876045 
L 298.593566 77.725321 
L 299.679368 77.946007 
L 300.765169 76.046525 
L 301.85097 76.424845 
L 304.022572 74.217977 
L 305.108373 74.493836 
L 306.194175 74.651469 
L 307.279976 72.712578 
L 308.365777 73.831775 
L 309.451578 72.996318 
L 310.537379 73.090898 
L 311.62318 73.737195 
L 312.708981 72.208151 
L 313.794783 71.837713 
L 314.880584 72.515536 
L 319.223788 69.51262 
L 320.30959 69.536265 
L 321.395391 68.527411 
L 322.481192 67.888996 
L 323.566993 68.621991 
L 324.652794 66.911668 
L 325.738595 66.194436 
L 326.824396 67.384569 
L 328.995999 66.273253 
L 330.0818 65.185583 
L 331.167601 64.531404 
L 332.253402 65.248636 
L 333.339203 65.492968 
L 334.425005 63.688065 
L 335.510806 62.947188 
L 336.596607 63.467378 
L 337.682408 63.057532 
L 338.768209 62.356063 
L 339.85401 62.647685 
L 340.939811 62.71862 
L 342.025613 63.293982 
L 343.111414 61.181694 
L 344.197215 59.896982 
L 345.283016 59.69994 
L 346.368817 59.93639 
L 347.454618 59.431963 
L 349.626221 59.297975 
L 350.712022 57.839866 
L 351.797823 57.910801 
L 352.883624 56.736432 
L 353.969425 56.531508 
L 355.055227 57.193569 
L 356.141028 55.223151 
L 357.226829 56.854657 
L 358.31263 55.885211 
L 359.398431 55.806394 
L 361.570033 54.797541 
L 362.655835 55.199506 
L 363.741636 54.616262 
L 364.827437 53.70987 
L 365.913238 54.5138 
L 366.999039 53.733515 
L 368.08484 53.568 
L 369.170642 54.293114 
L 371.342244 56.82313 
L 372.428045 57.138397 
L 373.513846 57.839866 
L 374.599647 58.155132 
L 375.685448 57.406374 
L 376.77125 57.776812 
L 377.857051 58.281239 
L 378.942852 57.05958 
L 380.028653 58.297002 
L 381.114454 56.87042 
L 382.200255 57.225095 
L 383.286057 57.083225 
L 384.371858 57.39061 
L 385.457659 57.288149 
L 386.54346 57.611297 
L 387.629261 57.784694 
L 388.715062 57.839866 
L 389.800863 57.508835 
L 390.886665 56.91771 
L 391.972466 56.673378 
L 393.058267 57.67435 
L 394.144068 57.34332 
L 395.229869 58.289121 
L 396.31567 57.028053 
L 397.401472 56.886183 
L 398.487273 57.240859 
L 398.487273 57.240859 
" clip-path="url(#p052d2445d3)" style="fill: none; stroke: #1f77b4; stroke-width: 1.5; stroke-linecap: square"/>
   </g>
   <g id="line2d_20">
    <path d="M 73.832727 285.974823 
L 74.918528 267.311027 
L 76.00433 231.402136 
L 77.090131 223.236725 
L 78.175932 192.119889 
L 79.261733 184.206692 
L 80.347534 184.994859 
L 81.433335 163.304501 
L 82.519137 157.976492 
L 83.604938 161.160687 
L 84.690739 145.996352 
L 85.77654 143.064371 
L 86.862341 134.962013 
L 87.948142 133.858579 
L 90.119745 124.652788 
L 91.205546 124.053781 
L 92.291347 121.657753 
L 93.377148 120.396686 
L 94.462949 120.554319 
L 95.54875 151.324362 
L 96.634552 155.738097 
L 97.720353 140.100862 
L 98.806154 137.389568 
L 99.891955 149.464287 
L 100.977756 136.948194 
L 102.063557 135.056593 
L 103.149358 139.470329 
L 104.23516 125.850802 
L 105.320961 128.183776 
L 106.406762 118.757298 
L 107.492563 119.009512 
L 108.578364 115.32089 
L 109.664165 116.26669 
L 110.749967 117.464704 
L 111.835768 108.920973 
L 112.921569 106.903266 
L 114.00737 103.687544 
L 115.093171 105.358458 
L 116.178972 102.30037 
L 117.264773 103.05701 
L 118.350575 98.800908 
L 119.436376 95.45908 
L 120.522177 97.508314 
L 121.607978 98.359535 
L 122.693779 93.914272 
L 123.77958 92.527098 
L 124.865382 90.41481 
L 125.951183 90.32023 
L 127.036984 88.61779 
L 128.122785 88.144889 
L 129.208586 85.339015 
L 130.294387 85.181381 
L 131.380189 83.731154 
L 132.46599 83.825734 
L 133.551791 83.6681 
L 134.637592 83.699627 
L 135.723393 84.109474 
L 136.809194 83.163673 
L 137.894995 83.47894 
L 138.980797 107.029372 
L 140.066598 111.537688 
L 141.152399 110.339674 
L 142.2382 106.587999 
L 143.324001 111.789901 
L 144.409802 109.51998 
L 145.495604 105.925938 
L 146.581405 101.795943 
L 147.667206 104.696398 
L 148.753007 105.106245 
L 149.838808 103.813651 
L 150.924609 98.990068 
L 152.01041 99.336862 
L 153.096212 102.58411 
L 154.182013 102.331897 
L 155.267814 97.949688 
L 156.353615 96.467934 
L 158.525217 95.55366 
L 159.611019 94.923126 
L 160.69682 96.625567 
L 161.782621 95.900453 
L 162.868422 94.450226 
L 163.954223 92.054198 
L 165.040024 92.180305 
L 166.125825 92.653205 
L 167.211627 88.61779 
L 168.297428 87.356722 
L 169.383229 89.18527 
L 170.46903 88.428629 
L 171.554831 86.442448 
L 172.640632 85.339015 
L 173.726434 87.608936 
L 174.812235 84.645428 
L 175.898036 84.235581 
L 176.983837 85.086801 
L 178.069638 83.163673 
L 179.155439 80.610012 
L 181.327042 84.330161 
L 182.412843 81.934133 
L 183.498644 78.907571 
L 184.584445 80.168639 
L 185.670246 79.979478 
L 186.756047 79.380471 
L 187.841849 76.92139 
L 188.92765 76.25933 
L 190.013451 74.840629 
L 191.099252 74.525362 
L 192.185053 74.651469 
L 193.270854 74.998263 
L 194.356656 74.052462 
L 195.442457 73.264295 
L 196.528258 73.138188 
L 197.614059 73.138188 
L 198.69986 70.332314 
L 199.785661 69.953993 
L 200.871462 71.152007 
L 201.957264 68.220026 
L 203.043065 70.553 
L 204.128866 69.953993 
L 205.214667 69.6072 
L 206.300468 67.747126 
L 207.386269 68.220026 
L 208.472071 67.873232 
L 209.557872 67.368805 
L 210.643673 68.661399 
L 211.729474 67.810179 
L 212.815275 67.873232 
L 214.986877 66.486058 
L 216.072679 66.927432 
L 217.15848 66.958958 
L 218.244281 66.643692 
L 219.330082 67.053539 
L 220.415883 66.769798 
L 221.501684 66.107738 
L 223.673287 66.107738 
L 224.759088 65.729418 
L 225.844889 92.747785 
L 226.93069 95.112286 
L 228.016491 93.283739 
L 229.102292 92.243358 
L 230.188094 91.644351 
L 231.273895 88.365576 
L 232.359696 88.207943 
L 233.445497 90.698551 
L 234.531298 91.455191 
L 235.617099 95.26992 
L 236.702901 90.099544 
L 237.788702 89.09069 
L 238.874503 88.460156 
L 239.960304 91.202978 
L 241.046105 84.046421 
L 242.131906 86.537028 
L 243.217708 87.356722 
L 244.303509 88.523209 
L 245.38931 86.726189 
L 246.475111 89.342903 
L 247.560912 88.586263 
L 248.646713 88.113363 
L 249.732514 85.118328 
L 250.818316 86.127182 
L 251.904117 86.158708 
L 252.989918 87.608936 
L 254.075719 86.505502 
L 255.16152 82.470086 
L 256.247321 85.023748 
L 257.333123 87.104509 
L 258.418924 81.744973 
L 259.504725 81.934133 
L 260.590526 81.934133 
L 261.676327 80.294745 
L 262.762128 84.676954 
L 263.847929 83.132147 
L 264.933731 82.974513 
L 266.019532 80.767646 
L 267.105333 79.727265 
L 268.191134 82.753827 
L 269.276935 77.520397 
L 270.362736 82.942987 
L 271.448538 79.065205 
L 272.534339 81.051386 
L 273.62014 79.128258 
L 274.705941 79.096731 
L 275.791742 83.258253 
L 276.877543 78.340091 
L 277.963344 82.974513 
L 279.049146 79.254365 
L 280.134947 80.420852 
L 281.220748 79.096731 
L 282.306549 81.082912 
L 283.39235 77.678031 
L 284.478151 77.678031 
L 285.563953 74.304676 
L 286.649754 79.002151 
L 287.735555 77.678031 
L 288.821356 78.024824 
L 289.907157 73.894829 
L 290.992958 79.002151 
L 292.07876 79.222838 
L 293.164561 76.35391 
L 294.250362 76.606123 
L 295.336163 75.345056 
L 296.421964 73.831775 
L 297.507765 77.268184 
L 298.593566 75.912536 
L 299.679368 72.066281 
L 300.765169 75.97559 
L 301.85097 78.403144 
L 302.936771 75.187423 
L 304.022572 73.674142 
L 305.108373 74.367729 
L 306.194175 74.304676 
L 307.279976 72.854448 
L 308.365777 71.971701 
L 309.451578 72.413075 
L 310.537379 73.957882 
L 311.62318 72.885975 
L 312.708981 73.043608 
L 313.794783 69.575673 
L 314.880584 71.467274 
L 315.966385 70.83674 
L 317.052186 69.1343 
L 318.137987 69.764833 
L 319.223788 72.160861 
L 320.30959 70.931321 
L 321.395391 69.197353 
L 322.481192 69.22888 
L 323.566993 69.008193 
L 324.652794 67.589492 
L 325.738595 69.165826 
L 326.824396 68.692926 
L 327.910198 69.638727 
L 328.995999 68.125446 
L 330.0818 67.053539 
L 331.167601 68.629873 
L 332.253402 66.958958 
L 333.339203 67.652546 
L 334.425005 66.549112 
L 335.510806 64.720564 
L 336.596607 66.265371 
L 337.682408 64.121557 
L 338.768209 65.351098 
L 340.939811 64.689037 
L 342.025613 64.216137 
L 343.111414 64.121557 
L 344.197215 64.909724 
L 345.283016 63.90087 
L 346.368817 63.99545 
L 347.454618 64.815144 
L 348.54042 63.018123 
L 349.626221 61.536369 
L 350.712022 62.450643 
L 351.797823 63.71171 
L 352.883624 62.95507 
L 353.969425 61.567896 
L 355.055227 62.229956 
L 356.141028 60.590569 
L 357.226829 60.653622 
L 358.31263 60.495989 
L 359.398431 60.590569 
L 360.484232 60.842782 
L 361.570033 61.504842 
L 362.655835 60.401408 
L 363.741636 60.905835 
L 364.827437 59.928508 
L 366.999039 59.266448 
L 368.08484 60.748202 
L 369.170642 59.455608 
L 370.256443 60.748202 
L 371.342244 62.57675 
L 372.428045 62.86049 
L 373.513846 62.48217 
L 374.599647 62.608276 
L 375.685448 62.293009 
L 376.77125 61.536369 
L 377.857051 62.608276 
L 378.942852 63.99545 
L 380.028653 64.468351 
L 381.114454 63.14423 
L 382.200255 63.364917 
L 383.286057 63.23881 
L 384.371858 61.158049 
L 385.457659 62.545223 
L 386.54346 62.57675 
L 387.629261 62.76591 
L 388.715062 62.229956 
L 389.800863 62.009269 
L 390.886665 63.554077 
L 391.972466 63.491023 
L 393.058267 62.198429 
L 394.144068 62.86049 
L 395.229869 62.639803 
L 396.31567 62.229956 
L 397.401472 63.207283 
L 398.487273 62.293009 
L 398.487273 62.293009 
" clip-path="url(#p052d2445d3)" style="fill: none; stroke: #ff7f0e; stroke-width: 1.5; stroke-linecap: square"/>
   </g>
   <g id="line2d_21">
    <path d="M 73.832727 291.052794 
L 74.918528 275.18074 
L 76.00433 252.24236 
L 77.090131 244.306333 
L 78.175932 226.912301 
L 79.261733 220.172114 
L 80.347534 219.62855 
L 81.433335 202.451944 
L 82.519137 200.603828 
L 83.604938 201.256104 
L 84.690739 192.667801 
L 85.77654 187.993155 
L 86.862341 182.448807 
L 87.948142 179.73099 
L 89.033943 173.751791 
L 90.119745 171.142687 
L 92.291347 169.946847 
L 93.377148 169.403283 
L 94.462949 165.924477 
L 95.54875 195.603044 
L 96.634552 210.931534 
L 97.720353 182.448807 
L 98.806154 185.38405 
L 99.891955 197.777298 
L 102.063557 181.144255 
L 103.149358 187.014741 
L 104.23516 170.49041 
L 105.320961 174.621493 
L 106.406762 168.424869 
L 107.492563 174.186642 
L 108.578364 169.511996 
L 109.664165 169.620709 
L 110.749967 172.773377 
L 111.835768 156.683898 
L 112.921569 158.097163 
L 114.00737 156.575185 
L 115.093171 154.835782 
L 116.178972 155.488058 
L 117.264773 158.205875 
L 118.350575 152.987666 
L 119.436376 152.661528 
L 120.522177 153.639942 
L 121.607978 152.878953 
L 122.693779 146.899755 
L 123.77958 144.508075 
L 124.865382 145.703915 
L 125.951183 143.420948 
L 127.036984 139.289866 
L 128.122785 141.89897 
L 129.208586 139.616004 
L 130.294387 138.311451 
L 131.380189 138.420164 
L 132.46599 137.224324 
L 133.551791 136.463336 
L 134.637592 137.767888 
L 135.723393 135.811059 
L 136.809194 137.224324 
L 137.894995 134.941358 
L 138.980797 163.532798 
L 140.066598 166.03319 
L 141.152399 167.66388 
L 142.2382 158.640726 
L 143.324001 168.751007 
L 144.409802 160.597555 
L 145.495604 165.924477 
L 146.581405 154.183505 
L 147.667206 160.706267 
L 149.838808 160.162704 
L 150.924609 155.922909 
L 152.01041 158.966864 
L 153.096212 159.510428 
L 154.182013 157.771025 
L 155.267814 150.487274 
L 156.353615 155.379345 
L 157.439416 152.77024 
L 158.525217 152.009252 
L 159.611019 146.573617 
L 160.69682 151.356975 
L 161.782621 158.423301 
L 162.868422 148.204307 
L 163.954223 148.747871 
L 165.040024 147.334605 
L 166.125825 146.899755 
L 167.211627 145.377777 
L 168.297428 139.724717 
L 169.383229 146.356191 
L 170.46903 147.552031 
L 171.554831 143.420948 
L 172.640632 135.919772 
L 173.726434 145.051639 
L 174.812235 140.26828 
L 175.898036 139.616004 
L 176.983837 138.420164 
L 178.069638 139.833429 
L 179.155439 133.854231 
L 180.24124 138.963728 
L 181.327042 138.63759 
L 182.412843 135.05007 
L 183.498644 132.006115 
L 184.584445 134.289082 
L 185.670246 137.006899 
L 186.756047 133.745518 
L 187.841849 128.20117 
L 188.92765 131.897402 
L 190.013451 129.831861 
L 191.099252 129.940574 
L 192.185053 126.461767 
L 193.270854 128.309883 
L 194.356656 131.027701 
L 195.442457 124.613651 
L 196.528258 124.178801 
L 197.614059 129.179585 
L 198.69986 123.200386 
L 199.785661 123.526524 
L 200.871462 124.287513 
L 201.957264 118.090889 
L 203.043065 122.874248 
L 204.128866 119.830293 
L 205.214667 120.047718 
L 206.300468 118.52574 
L 207.386269 118.308315 
L 208.472071 118.960591 
L 209.557872 116.460199 
L 210.643673 119.504154 
L 211.729474 120.047718 
L 212.815275 117.221188 
L 213.901076 118.52574 
L 214.986877 116.677624 
L 216.072679 116.89505 
L 217.15848 116.351486 
L 218.244281 116.786337 
L 219.330082 116.025348 
L 220.415883 116.351486 
L 221.501684 116.460199 
L 222.587486 115.590497 
L 223.673287 116.351486 
L 224.759088 115.046934 
L 225.844889 152.444102 
L 226.93069 151.13955 
L 228.016491 145.92134 
L 229.102292 148.31302 
L 230.188094 148.204307 
L 231.273895 148.965296 
L 232.359696 145.595202 
L 233.445497 147.008467 
L 234.531298 146.791042 
L 235.617099 156.683898 
L 236.702901 148.530445 
L 237.788702 144.29065 
L 238.874503 147.008467 
L 239.960304 148.639158 
L 241.046105 148.204307 
L 242.131906 142.877385 
L 243.217708 145.703915 
L 244.303509 149.182721 
L 245.38931 139.724717 
L 246.475111 145.051639 
L 247.560912 143.420948 
L 248.646713 142.877385 
L 249.732514 139.833429 
L 251.904117 145.051639 
L 252.989918 146.899755 
L 254.075719 141.790258 
L 255.16152 140.811844 
L 256.247321 140.811844 
L 257.333123 146.573617 
L 258.418924 141.89897 
L 259.504725 136.354623 
L 260.590526 137.006899 
L 261.676327 134.61522 
L 262.762128 145.595202 
L 263.847929 137.985313 
L 264.933731 140.594418 
L 266.019532 133.854231 
L 267.105333 137.224324 
L 268.191134 142.659959 
L 269.276935 133.310667 
L 270.362736 136.028485 
L 271.448538 137.550463 
L 273.62014 136.354623 
L 274.705941 136.463336 
L 275.791742 133.962943 
L 276.877543 131.136413 
L 277.963344 137.333037 
L 280.134947 139.07244 
L 281.220748 132.332253 
L 282.306549 139.07244 
L 283.39235 134.071656 
L 284.478151 133.201955 
L 285.563953 129.179585 
L 286.649754 135.376209 
L 287.735555 134.289082 
L 288.821356 134.61522 
L 289.907157 134.723932 
L 290.992958 129.179585 
L 292.07876 139.07244 
L 293.164561 131.679977 
L 294.250362 128.853447 
L 295.336163 132.767104 
L 296.421964 125.37464 
L 297.507765 128.309883 
L 298.593566 129.505723 
L 299.679368 125.37464 
L 300.765169 129.505723 
L 301.85097 134.180369 
L 302.936771 130.59285 
L 304.022572 124.613651 
L 305.108373 125.918204 
L 306.194175 131.679977 
L 307.279976 133.201955 
L 308.365777 126.135629 
L 310.537379 127.114043 
L 311.62318 128.853447 
L 312.708981 126.679193 
L 313.794783 126.244342 
L 314.880584 127.005331 
L 318.137987 121.134845 
L 319.223788 128.418596 
L 321.395391 119.72158 
L 322.481192 122.765535 
L 323.566993 126.461767 
L 324.652794 121.35227 
L 325.738595 122.113259 
L 327.910198 121.35227 
L 328.995999 119.286729 
L 330.0818 117.982177 
L 331.167601 120.591281 
L 332.253402 115.916635 
L 333.339203 119.830293 
L 335.510806 114.394658 
L 336.596607 117.873464 
L 337.682408 115.155647 
L 338.768209 118.52574 
L 339.85401 119.286729 
L 340.939811 118.199602 
L 342.025613 112.87268 
L 343.111414 114.394658 
L 344.197215 115.046934 
L 345.283016 112.329116 
L 346.368817 118.851878 
L 347.454618 117.221188 
L 348.54042 113.416243 
L 349.626221 111.350702 
L 350.712022 110.263575 
L 351.797823 111.67684 
L 352.883624 114.829508 
L 353.969425 110.589713 
L 355.055227 112.437829 
L 356.141028 107.65447 
L 357.226829 110.807139 
L 358.31263 112.763967 
L 359.398431 113.633669 
L 360.484232 111.459415 
L 361.570033 109.828724 
L 362.655835 109.611299 
L 363.741636 110.154862 
L 364.827437 108.85031 
L 365.913238 110.154862 
L 366.999039 108.306746 
L 368.08484 107.219619 
L 369.170642 109.067735 
L 370.256443 110.154862 
L 371.342244 111.894266 
L 372.428045 111.241989 
L 373.513846 117.003762 
L 374.599647 113.633669 
L 375.685448 112.329116 
L 376.77125 113.198818 
L 377.857051 115.046934 
L 378.942852 116.134061 
L 380.028653 115.481785 
L 381.114454 113.633669 
L 382.200255 113.851094 
L 383.286057 118.851878 
L 384.371858 113.959807 
L 385.457659 114.177232 
L 386.54346 114.938221 
L 387.629261 117.221188 
L 388.715062 113.090105 
L 389.800863 114.612083 
L 390.886665 115.264359 
L 391.972466 116.786337 
L 393.058267 114.720796 
L 394.144068 115.155647 
L 395.229869 116.89505 
L 396.31567 113.198818 
L 397.401472 113.851094 
L 398.487273 114.285945 
L 398.487273 114.285945 
" clip-path="url(#p052d2445d3)" style="fill: none; stroke: #2ca02c; stroke-width: 1.5; stroke-linecap: square"/>
   </g>
   <g id="line2d_22">
    <path d="M 368.08484 58.667441 
L 369.170642 58.446754 
L 370.256443 59.266448 
L 371.342244 59.676295 
L 372.428045 60.495989 
L 373.513846 60.905835 
L 374.599647 61.820109 
L 375.685448 60.685149 
L 376.77125 61.410262 
L 377.857051 61.662476 
L 378.942852 61.662476 
L 380.028653 62.166903 
L 381.114454 62.261483 
L 382.200255 61.757056 
L 383.286057 63.301863 
L 384.371858 61.347209 
L 385.457659 62.892016 
L 386.54346 61.094996 
L 387.629261 63.018123 
L 388.715062 62.797436 
L 389.800863 63.33339 
L 390.886665 62.67133 
L 391.972466 61.788583 
L 393.058267 66.391478 
L 394.144068 64.625984 
L 395.229869 63.71171 
L 396.31567 65.981631 
L 397.401472 66.296898 
L 398.487273 66.265371 
L 398.487273 66.265371 
" clip-path="url(#p052d2445d3)" style="fill: none; stroke: #d62728; stroke-width: 1.5; stroke-linecap: square"/>
   </g>
   <g id="line2d_23">
    <path d="M 368.08484 106.567343 
L 369.170642 104.719227 
L 370.256443 105.588929 
L 371.342244 111.459415 
L 372.428045 106.784769 
L 373.513846 113.742381 
L 374.599647 112.546542 
L 375.685448 108.415459 
L 376.77125 111.459415 
L 377.857051 110.372288 
L 380.028653 113.090105 
L 381.114454 110.04615 
L 382.200255 112.87268 
L 383.286057 110.372288 
L 384.371858 110.481 
L 386.54346 110.372288 
L 387.629261 113.633669 
L 388.715062 111.133277 
L 389.800863 111.894266 
L 390.886665 111.024564 
L 391.972466 112.87268 
L 393.058267 115.046934 
L 394.144068 111.459415 
L 395.229869 112.220404 
L 396.31567 114.720796 
L 397.401472 117.982177 
L 398.487273 114.612083 
L 398.487273 114.612083 
" clip-path="url(#p052d2445d3)" style="fill: none; stroke: #9467bd; stroke-width: 1.5; stroke-linecap: square"/>
   </g>
   <g id="patch_3">
    <path d="M 57.6 307.584 
L 57.6 41.472 
" style="fill: none; stroke: #000000; stroke-width: 0.8; stroke-linejoin: miter; stroke-linecap: square"/>
   </g>
   <g id="patch_4">
    <path d="M 414.72 307.584 
L 414.72 41.472 
" style="fill: none; stroke: #000000; stroke-width: 0.8; stroke-linejoin: miter; stroke-linecap: square"/>
   </g>
   <g id="patch_5">
    <path d="M 57.6 307.584 
L 414.72 307.584 
" style="fill: none; stroke: #000000; stroke-width: 0.8; stroke-linejoin: miter; stroke-linecap: square"/>
   </g>
   <g id="patch_6">
    <path d="M 57.6 41.472 
L 414.72 41.472 
" style="fill: none; stroke: #000000; stroke-width: 0.8; stroke-linejoin: miter; stroke-linecap: square"/>
   </g>
   <g id="text_21">
    <!-- Learning Curves -->
    <g transform="translate(187.37625 35.472) scale(0.12 -0.12)">
     <defs>
      <path id="DejaVuSans-4c" d="M 628 4666 
L 1259 4666 
L 1259 531 
L 3531 531 
L 3531 0 
L 628 0 
L 628 4666 
z
" transform="scale(0.015625)"/>
      <path id="DejaVuSans-65" d="M 3597 1894 
L 3597 1613 
L 953 1613 
Q 991 1019 1311 708 
Q 1631 397 2203 397 
Q 2534 397 2845 478 
Q 3156 559 3463 722 
L 3463 178 
Q 3153 47 2828 -22 
Q 2503 -91 2169 -91 
Q 1331 -91 842 396 
Q 353 884 353 1716 
Q 353 2575 817 3079 
Q 1281 3584 2069 3584 
Q 2775 3584 3186 3129 
Q 3597 2675 3597 1894 
z
M 3022 2063 
Q 3016 2534 2758 2815 
Q 2500 3097 2075 3097 
Q 1594 3097 1305 2825 
Q 1016 2553 972 2059 
L 3022 2063 
z
" transform="scale(0.015625)"/>
      <path id="DejaVuSans-6e" d="M 3513 2113 
L 3513 0 
L 2938 0 
L 2938 2094 
Q 2938 2591 2744 2837 
Q 2550 3084 2163 3084 
Q 1697 3084 1428 2787 
Q 1159 2491 1159 1978 
L 1159 0 
L 581 0 
L 581 3500 
L 1159 3500 
L 1159 2956 
Q 1366 3272 1645 3428 
Q 1925 3584 2291 3584 
Q 2894 3584 3203 3211 
Q 3513 2838 3513 2113 
z
" transform="scale(0.015625)"/>
      <path id="DejaVuSans-69" d="M 603 3500 
L 1178 3500 
L 1178 0 
L 603 0 
L 603 3500 
z
M 603 4863 
L 1178 4863 
L 1178 4134 
L 603 4134 
L 603 4863 
z
" transform="scale(0.015625)"/>
      <path id="DejaVuSans-67" d="M 2906 1791 
Q 2906 2416 2648 2759 
Q 2391 3103 1925 3103 
Q 1463 3103 1205 2759 
Q 947 2416 947 1791 
Q 947 1169 1205 825 
Q 1463 481 1925 481 
Q 2391 481 2648 825 
Q 2906 1169 2906 1791 
z
M 3481 434 
Q 3481 -459 3084 -895 
Q 2688 -1331 1869 -1331 
Q 1566 -1331 1297 -1286 
Q 1028 -1241 775 -1147 
L 775 -588 
Q 1028 -725 1275 -790 
Q 1522 -856 1778 -856 
Q 2344 -856 2625 -561 
Q 2906 -266 2906 331 
L 2906 616 
Q 2728 306 2450 153 
Q 2172 0 1784 0 
Q 1141 0 747 490 
Q 353 981 353 1791 
Q 353 2603 747 3093 
Q 1141 3584 1784 3584 
Q 2172 3584 2450 3431 
Q 2728 3278 2906 2969 
L 2906 3500 
L 3481 3500 
L 3481 434 
z
" transform="scale(0.015625)"/>
      <path id="DejaVuSans-20" transform="scale(0.015625)"/>
      <path id="DejaVuSans-43" d="M 4122 4306 
L 4122 3641 
Q 3803 3938 3442 4084 
Q 3081 4231 2675 4231 
Q 1875 4231 1450 3742 
Q 1025 3253 1025 2328 
Q 1025 1406 1450 917 
Q 1875 428 2675 428 
Q 3081 428 3442 575 
Q 3803 722 4122 1019 
L 4122 359 
Q 3791 134 3420 21 
Q 3050 -91 2638 -91 
Q 1578 -91 968 557 
Q 359 1206 359 2328 
Q 359 3453 968 4101 
Q 1578 4750 2638 4750 
Q 3056 4750 3426 4639 
Q 3797 4528 4122 4306 
z
" transform="scale(0.015625)"/>
      <path id="DejaVuSans-76" d="M 191 3500 
L 800 3500 
L 1894 563 
L 2988 3500 
L 3597 3500 
L 2284 0 
L 1503 0 
L 191 3500 
z
" transform="scale(0.015625)"/>
     </defs>
     <use xlink:href="#DejaVuSans-4c"/>
     <use xlink:href="#DejaVuSans-65" x="53.962891"/>
     <use xlink:href="#DejaVuSans-61" x="115.486328"/>
     <use xlink:href="#DejaVuSans-72" x="176.765625"/>
     <use xlink:href="#DejaVuSans-6e" x="216.128906"/>
     <use xlink:href="#DejaVuSans-69" x="279.507812"/>
     <use xlink:href="#DejaVuSans-6e" x="307.291016"/>
     <use xlink:href="#DejaVuSans-67" x="370.669922"/>
     <use xlink:href="#DejaVuSans-20" x="434.146484"/>
     <use xlink:href="#DejaVuSans-43" x="465.933594"/>
     <use xlink:href="#DejaVuSans-75" x="535.757812"/>
     <use xlink:href="#DejaVuSans-72" x="599.136719"/>
     <use xlink:href="#DejaVuSans-76" x="640.25"/>
     <use xlink:href="#DejaVuSans-65" x="699.429688"/>
     <use xlink:href="#DejaVuSans-73" x="760.953125"/>
    </g>
   </g>
   <g id="legend_1">
    <g id="patch_7">
     <path d="M 214.18875 302.584 
L 407.72 302.584 
Q 409.72 302.584 409.72 300.584 
L 409.72 228.193375 
Q 409.72 226.193375 407.72 226.193375 
L 214.18875 226.193375 
Q 212.18875 226.193375 212.18875 228.193375 
L 212.18875 300.584 
Q 212.18875 302.584 214.18875 302.584 
z
" style="fill: #ffffff; opacity: 0.8; stroke: #cccccc; stroke-linejoin: miter"/>
    </g>
    <g id="line2d_24">
     <path d="M 216.18875 234.291812 
L 226.18875 234.291812 
L 236.18875 234.291812 
" style="fill: none; stroke: #1f77b4; stroke-width: 1.5; stroke-linecap: square"/>
    </g>
    <g id="text_22">
     <!-- Train Accuracy -->
     <g transform="translate(244.18875 237.791812) scale(0.1 -0.1)">
      <defs>
       <path id="DejaVuSans-54" d="M -19 4666 
L 3928 4666 
L 3928 4134 
L 2272 4134 
L 2272 0 
L 1638 0 
L 1638 4134 
L -19 4134 
L -19 4666 
z
" transform="scale(0.015625)"/>
      </defs>
      <use xlink:href="#DejaVuSans-54"/>
      <use xlink:href="#DejaVuSans-72" x="46.333984"/>
      <use xlink:href="#DejaVuSans-61" x="87.447266"/>
      <use xlink:href="#DejaVuSans-69" x="148.726562"/>
      <use xlink:href="#DejaVuSans-6e" x="176.509766"/>
      <use xlink:href="#DejaVuSans-20" x="239.888672"/>
      <use xlink:href="#DejaVuSans-41" x="271.675781"/>
      <use xlink:href="#DejaVuSans-63" x="338.333984"/>
      <use xlink:href="#DejaVuSans-63" x="393.314453"/>
      <use xlink:href="#DejaVuSans-75" x="448.294922"/>
      <use xlink:href="#DejaVuSans-72" x="511.673828"/>
      <use xlink:href="#DejaVuSans-61" x="552.787109"/>
      <use xlink:href="#DejaVuSans-63" x="614.066406"/>
      <use xlink:href="#DejaVuSans-79" x="669.046875"/>
     </g>
    </g>
    <g id="line2d_25">
     <path d="M 216.18875 248.969937 
L 226.18875 248.969937 
L 236.18875 248.969937 
" style="fill: none; stroke: #ff7f0e; stroke-width: 1.5; stroke-linecap: square"/>
    </g>
    <g id="text_23">
     <!-- Validation Accuracy -->
     <g transform="translate(244.18875 252.469937) scale(0.1 -0.1)">
      <defs>
       <path id="DejaVuSans-56" d="M 1831 0 
L 50 4666 
L 709 4666 
L 2188 738 
L 3669 4666 
L 4325 4666 
L 2547 0 
L 1831 0 
z
" transform="scale(0.015625)"/>
       <path id="DejaVuSans-6c" d="M 603 4863 
L 1178 4863 
L 1178 0 
L 603 0 
L 603 4863 
z
" transform="scale(0.015625)"/>
       <path id="DejaVuSans-64" d="M 2906 2969 
L 2906 4863 
L 3481 4863 
L 3481 0 
L 2906 0 
L 2906 525 
Q 2725 213 2448 61 
Q 2172 -91 1784 -91 
Q 1150 -91 751 415 
Q 353 922 353 1747 
Q 353 2572 751 3078 
Q 1150 3584 1784 3584 
Q 2172 3584 2448 3432 
Q 2725 3281 2906 2969 
z
M 947 1747 
Q 947 1113 1208 752 
Q 1469 391 1925 391 
Q 2381 391 2643 752 
Q 2906 1113 2906 1747 
Q 2906 2381 2643 2742 
Q 2381 3103 1925 3103 
Q 1469 3103 1208 2742 
Q 947 2381 947 1747 
z
" transform="scale(0.015625)"/>
       <path id="DejaVuSans-74" d="M 1172 4494 
L 1172 3500 
L 2356 3500 
L 2356 3053 
L 1172 3053 
L 1172 1153 
Q 1172 725 1289 603 
Q 1406 481 1766 481 
L 2356 481 
L 2356 0 
L 1766 0 
Q 1100 0 847 248 
Q 594 497 594 1153 
L 594 3053 
L 172 3053 
L 172 3500 
L 594 3500 
L 594 4494 
L 1172 4494 
z
" transform="scale(0.015625)"/>
      </defs>
      <use xlink:href="#DejaVuSans-56"/>
      <use xlink:href="#DejaVuSans-61" x="60.658203"/>
      <use xlink:href="#DejaVuSans-6c" x="121.9375"/>
      <use xlink:href="#DejaVuSans-69" x="149.720703"/>
      <use xlink:href="#DejaVuSans-64" x="177.503906"/>
      <use xlink:href="#DejaVuSans-61" x="240.980469"/>
      <use xlink:href="#DejaVuSans-74" x="302.259766"/>
      <use xlink:href="#DejaVuSans-69" x="341.46875"/>
      <use xlink:href="#DejaVuSans-6f" x="369.251953"/>
      <use xlink:href="#DejaVuSans-6e" x="430.433594"/>
      <use xlink:href="#DejaVuSans-20" x="493.8125"/>
      <use xlink:href="#DejaVuSans-41" x="525.599609"/>
      <use xlink:href="#DejaVuSans-63" x="592.257812"/>
      <use xlink:href="#DejaVuSans-63" x="647.238281"/>
      <use xlink:href="#DejaVuSans-75" x="702.21875"/>
      <use xlink:href="#DejaVuSans-72" x="765.597656"/>
      <use xlink:href="#DejaVuSans-61" x="806.710938"/>
      <use xlink:href="#DejaVuSans-63" x="867.990234"/>
      <use xlink:href="#DejaVuSans-79" x="922.970703"/>
     </g>
    </g>
    <g id="line2d_26">
     <path d="M 216.18875 263.648062 
L 226.18875 263.648062 
L 236.18875 263.648062 
" style="fill: none; stroke: #2ca02c; stroke-width: 1.5; stroke-linecap: square"/>
    </g>
    <g id="text_24">
     <!-- Robust Validation Accuracy -->
     <g transform="translate(244.18875 267.148062) scale(0.1 -0.1)">
      <defs>
       <path id="DejaVuSans-52" d="M 2841 2188 
Q 3044 2119 3236 1894 
Q 3428 1669 3622 1275 
L 4263 0 
L 3584 0 
L 2988 1197 
Q 2756 1666 2539 1819 
Q 2322 1972 1947 1972 
L 1259 1972 
L 1259 0 
L 628 0 
L 628 4666 
L 2053 4666 
Q 2853 4666 3247 4331 
Q 3641 3997 3641 3322 
Q 3641 2881 3436 2590 
Q 3231 2300 2841 2188 
z
M 1259 4147 
L 1259 2491 
L 2053 2491 
Q 2509 2491 2742 2702 
Q 2975 2913 2975 3322 
Q 2975 3731 2742 3939 
Q 2509 4147 2053 4147 
L 1259 4147 
z
" transform="scale(0.015625)"/>
       <path id="DejaVuSans-62" d="M 3116 1747 
Q 3116 2381 2855 2742 
Q 2594 3103 2138 3103 
Q 1681 3103 1420 2742 
Q 1159 2381 1159 1747 
Q 1159 1113 1420 752 
Q 1681 391 2138 391 
Q 2594 391 2855 752 
Q 3116 1113 3116 1747 
z
M 1159 2969 
Q 1341 3281 1617 3432 
Q 1894 3584 2278 3584 
Q 2916 3584 3314 3078 
Q 3713 2572 3713 1747 
Q 3713 922 3314 415 
Q 2916 -91 2278 -91 
Q 1894 -91 1617 61 
Q 1341 213 1159 525 
L 1159 0 
L 581 0 
L 581 4863 
L 1159 4863 
L 1159 2969 
z
" transform="scale(0.015625)"/>
      </defs>
      <use xlink:href="#DejaVuSans-52"/>
      <use xlink:href="#DejaVuSans-6f" x="64.982422"/>
      <use xlink:href="#DejaVuSans-62" x="126.164062"/>
      <use xlink:href="#DejaVuSans-75" x="189.640625"/>
      <use xlink:href="#DejaVuSans-73" x="253.019531"/>
      <use xlink:href="#DejaVuSans-74" x="305.119141"/>
      <use xlink:href="#DejaVuSans-20" x="344.328125"/>
      <use xlink:href="#DejaVuSans-56" x="376.115234"/>
      <use xlink:href="#DejaVuSans-61" x="436.773438"/>
      <use xlink:href="#DejaVuSans-6c" x="498.052734"/>
      <use xlink:href="#DejaVuSans-69" x="525.835938"/>
      <use xlink:href="#DejaVuSans-64" x="553.619141"/>
      <use xlink:href="#DejaVuSans-61" x="617.095703"/>
      <use xlink:href="#DejaVuSans-74" x="678.375"/>
      <use xlink:href="#DejaVuSans-69" x="717.583984"/>
      <use xlink:href="#DejaVuSans-6f" x="745.367188"/>
      <use xlink:href="#DejaVuSans-6e" x="806.548828"/>
      <use xlink:href="#DejaVuSans-20" x="869.927734"/>
      <use xlink:href="#DejaVuSans-41" x="901.714844"/>
      <use xlink:href="#DejaVuSans-63" x="968.373047"/>
      <use xlink:href="#DejaVuSans-63" x="1023.353516"/>
      <use xlink:href="#DejaVuSans-75" x="1078.333984"/>
      <use xlink:href="#DejaVuSans-72" x="1141.712891"/>
      <use xlink:href="#DejaVuSans-61" x="1182.826172"/>
      <use xlink:href="#DejaVuSans-63" x="1244.105469"/>
      <use xlink:href="#DejaVuSans-79" x="1299.085938"/>
     </g>
    </g>
    <g id="line2d_27">
     <path d="M 216.18875 278.326188 
L 226.18875 278.326188 
L 236.18875 278.326188 
" style="fill: none; stroke: #d62728; stroke-width: 1.5; stroke-linecap: square"/>
    </g>
    <g id="text_25">
     <!-- SWA Validation Accuracy -->
     <g transform="translate(244.18875 281.826188) scale(0.1 -0.1)">
      <defs>
       <path id="DejaVuSans-53" d="M 3425 4513 
L 3425 3897 
Q 3066 4069 2747 4153 
Q 2428 4238 2131 4238 
Q 1616 4238 1336 4038 
Q 1056 3838 1056 3469 
Q 1056 3159 1242 3001 
Q 1428 2844 1947 2747 
L 2328 2669 
Q 3034 2534 3370 2195 
Q 3706 1856 3706 1288 
Q 3706 609 3251 259 
Q 2797 -91 1919 -91 
Q 1588 -91 1214 -16 
Q 841 59 441 206 
L 441 856 
Q 825 641 1194 531 
Q 1563 422 1919 422 
Q 2459 422 2753 634 
Q 3047 847 3047 1241 
Q 3047 1584 2836 1778 
Q 2625 1972 2144 2069 
L 1759 2144 
Q 1053 2284 737 2584 
Q 422 2884 422 3419 
Q 422 4038 858 4394 
Q 1294 4750 2059 4750 
Q 2388 4750 2728 4690 
Q 3069 4631 3425 4513 
z
" transform="scale(0.015625)"/>
       <path id="DejaVuSans-57" d="M 213 4666 
L 850 4666 
L 1831 722 
L 2809 4666 
L 3519 4666 
L 4500 722 
L 5478 4666 
L 6119 4666 
L 4947 0 
L 4153 0 
L 3169 4050 
L 2175 0 
L 1381 0 
L 213 4666 
z
" transform="scale(0.015625)"/>
      </defs>
      <use xlink:href="#DejaVuSans-53"/>
      <use xlink:href="#DejaVuSans-57" x="63.476562"/>
      <use xlink:href="#DejaVuSans-41" x="156.853516"/>
      <use xlink:href="#DejaVuSans-20" x="225.261719"/>
      <use xlink:href="#DejaVuSans-56" x="257.048828"/>
      <use xlink:href="#DejaVuSans-61" x="317.707031"/>
      <use xlink:href="#DejaVuSans-6c" x="378.986328"/>
      <use xlink:href="#DejaVuSans-69" x="406.769531"/>
      <use xlink:href="#DejaVuSans-64" x="434.552734"/>
      <use xlink:href="#DejaVuSans-61" x="498.029297"/>
      <use xlink:href="#DejaVuSans-74" x="559.308594"/>
      <use xlink:href="#DejaVuSans-69" x="598.517578"/>
      <use xlink:href="#DejaVuSans-6f" x="626.300781"/>
      <use xlink:href="#DejaVuSans-6e" x="687.482422"/>
      <use xlink:href="#DejaVuSans-20" x="750.861328"/>
      <use xlink:href="#DejaVuSans-41" x="782.648438"/>
      <use xlink:href="#DejaVuSans-63" x="849.306641"/>
      <use xlink:href="#DejaVuSans-63" x="904.287109"/>
      <use xlink:href="#DejaVuSans-75" x="959.267578"/>
      <use xlink:href="#DejaVuSans-72" x="1022.646484"/>
      <use xlink:href="#DejaVuSans-61" x="1063.759766"/>
      <use xlink:href="#DejaVuSans-63" x="1125.039062"/>
      <use xlink:href="#DejaVuSans-79" x="1180.019531"/>
     </g>
    </g>
    <g id="line2d_28">
     <path d="M 216.18875 293.004312 
L 226.18875 293.004312 
L 236.18875 293.004312 
" style="fill: none; stroke: #9467bd; stroke-width: 1.5; stroke-linecap: square"/>
    </g>
    <g id="text_26">
     <!-- SWA Robust Validation Accuracy -->
     <g transform="translate(244.18875 296.504312) scale(0.1 -0.1)">
      <use xlink:href="#DejaVuSans-53"/>
      <use xlink:href="#DejaVuSans-57" x="63.476562"/>
      <use xlink:href="#DejaVuSans-41" x="156.853516"/>
      <use xlink:href="#DejaVuSans-20" x="225.261719"/>
      <use xlink:href="#DejaVuSans-52" x="257.048828"/>
      <use xlink:href="#DejaVuSans-6f" x="322.03125"/>
      <use xlink:href="#DejaVuSans-62" x="383.212891"/>
      <use xlink:href="#DejaVuSans-75" x="446.689453"/>
      <use xlink:href="#DejaVuSans-73" x="510.068359"/>
      <use xlink:href="#DejaVuSans-74" x="562.167969"/>
      <use xlink:href="#DejaVuSans-20" x="601.376953"/>
      <use xlink:href="#DejaVuSans-56" x="633.164062"/>
      <use xlink:href="#DejaVuSans-61" x="693.822266"/>
      <use xlink:href="#DejaVuSans-6c" x="755.101562"/>
      <use xlink:href="#DejaVuSans-69" x="782.884766"/>
      <use xlink:href="#DejaVuSans-64" x="810.667969"/>
      <use xlink:href="#DejaVuSans-61" x="874.144531"/>
      <use xlink:href="#DejaVuSans-74" x="935.423828"/>
      <use xlink:href="#DejaVuSans-69" x="974.632812"/>
      <use xlink:href="#DejaVuSans-6f" x="1002.416016"/>
      <use xlink:href="#DejaVuSans-6e" x="1063.597656"/>
      <use xlink:href="#DejaVuSans-20" x="1126.976562"/>
      <use xlink:href="#DejaVuSans-41" x="1158.763672"/>
      <use xlink:href="#DejaVuSans-63" x="1225.421875"/>
      <use xlink:href="#DejaVuSans-63" x="1280.402344"/>
      <use xlink:href="#DejaVuSans-75" x="1335.382812"/>
      <use xlink:href="#DejaVuSans-72" x="1398.761719"/>
      <use xlink:href="#DejaVuSans-61" x="1439.875"/>
      <use xlink:href="#DejaVuSans-63" x="1501.154297"/>
      <use xlink:href="#DejaVuSans-79" x="1556.134766"/>
     </g>
    </g>
   </g>
  </g>
 </g>
 <defs>
  <clipPath id="p052d2445d3">
   <rect x="57.6" y="41.472" width="357.12" height="266.112"/>
  </clipPath>
 </defs>
</svg>
