<?xml version="1.0" encoding="utf-8" standalone="no"?>
<!DOCTYPE svg PUBLIC "-//W3C//DTD SVG 1.1//EN"
  "http://www.w3.org/Graphics/SVG/1.1/DTD/svg11.dtd">
<svg xmlns:xlink="http://www.w3.org/1999/xlink" width="460.8pt" height="345.6pt" viewBox="0 0 460.8 345.6" xmlns="http://www.w3.org/2000/svg" version="1.1">
 <metadata>
  <rdf:RDF xmlns:dc="http://purl.org/dc/elements/1.1/" xmlns:cc="http://creativecommons.org/ns#" xmlns:rdf="http://www.w3.org/1999/02/22-rdf-syntax-ns#">
   <cc:Work>
    <dc:type rdf:resource="http://purl.org/dc/dcmitype/StillImage"/>
    <dc:date>2025-07-12T15:21:32.170681</dc:date>
    <dc:format>image/svg+xml</dc:format>
    <dc:creator>
     <cc:Agent>
      <dc:title>Matplotlib v3.9.1, https://matplotlib.org/</dc:title>
     </cc:Agent>
    </dc:creator>
   </cc:Work>
  </rdf:RDF>
 </metadata>
 <defs>
  <style type="text/css">*{stroke-linejoin: round; stroke-linecap: butt}</style>
 </defs>
 <g id="figure_1">
  <g id="patch_1">
   <path d="M 0 345.6 
L 460.8 345.6 
L 460.8 0 
L 0 0 
z
" style="fill: #ffffff"/>
  </g>
  <g id="axes_1">
   <g id="patch_2">
    <path d="M 57.6 307.584 
L 414.72 307.584 
L 414.72 41.472 
L 57.6 41.472 
z
" style="fill: #ffffff"/>
   </g>
   <g id="matplotlib.axis_1">
    <g id="xtick_1">
     <g id="line2d_1">
      <defs>
       <path id="m77771bf694" d="M 0 0 
L 0 3.5 
" style="stroke: #000000; stroke-width: 0.8"/>
      </defs>
      <g>
       <use xlink:href="#m77771bf694" x="73.832727" y="307.584" style="stroke: #000000; stroke-width: 0.8"/>
      </g>
     </g>
     <g id="text_1">
      <!-- 1 -->
      <g transform="translate(70.651477 322.182437) scale(0.1 -0.1)">
       <defs>
        <path id="DejaVuSans-31" d="M 794 531 
L 1825 531 
L 1825 4091 
L 703 3866 
L 703 4441 
L 1819 4666 
L 2450 4666 
L 2450 531 
L 3481 531 
L 3481 0 
L 794 0 
L 794 531 
z
" transform="scale(0.015625)"/>
       </defs>
       <use xlink:href="#DejaVuSans-31"/>
      </g>
     </g>
    </g>
    <g id="xtick_2">
     <g id="line2d_2">
      <g>
       <use xlink:href="#m77771bf694" x="109.664165" y="307.584" style="stroke: #000000; stroke-width: 0.8"/>
      </g>
     </g>
     <g id="text_2">
      <!-- 34 -->
      <g transform="translate(103.301665 322.182437) scale(0.1 -0.1)">
       <defs>
        <path id="DejaVuSans-33" d="M 2597 2516 
Q 3050 2419 3304 2112 
Q 3559 1806 3559 1356 
Q 3559 666 3084 287 
Q 2609 -91 1734 -91 
Q 1441 -91 1130 -33 
Q 819 25 488 141 
L 488 750 
Q 750 597 1062 519 
Q 1375 441 1716 441 
Q 2309 441 2620 675 
Q 2931 909 2931 1356 
Q 2931 1769 2642 2001 
Q 2353 2234 1838 2234 
L 1294 2234 
L 1294 2753 
L 1863 2753 
Q 2328 2753 2575 2939 
Q 2822 3125 2822 3475 
Q 2822 3834 2567 4026 
Q 2313 4219 1838 4219 
Q 1578 4219 1281 4162 
Q 984 4106 628 3988 
L 628 4550 
Q 988 4650 1302 4700 
Q 1616 4750 1894 4750 
Q 2613 4750 3031 4423 
Q 3450 4097 3450 3541 
Q 3450 3153 3228 2886 
Q 3006 2619 2597 2516 
z
" transform="scale(0.015625)"/>
        <path id="DejaVuSans-34" d="M 2419 4116 
L 825 1625 
L 2419 1625 
L 2419 4116 
z
M 2253 4666 
L 3047 4666 
L 3047 1625 
L 3713 1625 
L 3713 1100 
L 3047 1100 
L 3047 0 
L 2419 0 
L 2419 1100 
L 313 1100 
L 313 1709 
L 2253 4666 
z
" transform="scale(0.015625)"/>
       </defs>
       <use xlink:href="#DejaVuSans-33"/>
       <use xlink:href="#DejaVuSans-34" x="63.623047"/>
      </g>
     </g>
    </g>
    <g id="xtick_3">
     <g id="line2d_3">
      <g>
       <use xlink:href="#m77771bf694" x="145.495604" y="307.584" style="stroke: #000000; stroke-width: 0.8"/>
      </g>
     </g>
     <g id="text_3">
      <!-- 67 -->
      <g transform="translate(139.133104 322.182437) scale(0.1 -0.1)">
       <defs>
        <path id="DejaVuSans-36" d="M 2113 2584 
Q 1688 2584 1439 2293 
Q 1191 2003 1191 1497 
Q 1191 994 1439 701 
Q 1688 409 2113 409 
Q 2538 409 2786 701 
Q 3034 994 3034 1497 
Q 3034 2003 2786 2293 
Q 2538 2584 2113 2584 
z
M 3366 4563 
L 3366 3988 
Q 3128 4100 2886 4159 
Q 2644 4219 2406 4219 
Q 1781 4219 1451 3797 
Q 1122 3375 1075 2522 
Q 1259 2794 1537 2939 
Q 1816 3084 2150 3084 
Q 2853 3084 3261 2657 
Q 3669 2231 3669 1497 
Q 3669 778 3244 343 
Q 2819 -91 2113 -91 
Q 1303 -91 875 529 
Q 447 1150 447 2328 
Q 447 3434 972 4092 
Q 1497 4750 2381 4750 
Q 2619 4750 2861 4703 
Q 3103 4656 3366 4563 
z
" transform="scale(0.015625)"/>
        <path id="DejaVuSans-37" d="M 525 4666 
L 3525 4666 
L 3525 4397 
L 1831 0 
L 1172 0 
L 2766 4134 
L 525 4134 
L 525 4666 
z
" transform="scale(0.015625)"/>
       </defs>
       <use xlink:href="#DejaVuSans-36"/>
       <use xlink:href="#DejaVuSans-37" x="63.623047"/>
      </g>
     </g>
    </g>
    <g id="xtick_4">
     <g id="line2d_4">
      <g>
       <use xlink:href="#m77771bf694" x="181.327042" y="307.584" style="stroke: #000000; stroke-width: 0.8"/>
      </g>
     </g>
     <g id="text_4">
      <!-- 100 -->
      <g transform="translate(171.783292 322.182437) scale(0.1 -0.1)">
       <defs>
        <path id="DejaVuSans-30" d="M 2034 4250 
Q 1547 4250 1301 3770 
Q 1056 3291 1056 2328 
Q 1056 1369 1301 889 
Q 1547 409 2034 409 
Q 2525 409 2770 889 
Q 3016 1369 3016 2328 
Q 3016 3291 2770 3770 
Q 2525 4250 2034 4250 
z
M 2034 4750 
Q 2819 4750 3233 4129 
Q 3647 3509 3647 2328 
Q 3647 1150 3233 529 
Q 2819 -91 2034 -91 
Q 1250 -91 836 529 
Q 422 1150 422 2328 
Q 422 3509 836 4129 
Q 1250 4750 2034 4750 
z
" transform="scale(0.015625)"/>
       </defs>
       <use xlink:href="#DejaVuSans-31"/>
       <use xlink:href="#DejaVuSans-30" x="63.623047"/>
       <use xlink:href="#DejaVuSans-30" x="127.246094"/>
      </g>
     </g>
    </g>
    <g id="xtick_5">
     <g id="line2d_5">
      <g>
       <use xlink:href="#m77771bf694" x="217.15848" y="307.584" style="stroke: #000000; stroke-width: 0.8"/>
      </g>
     </g>
     <g id="text_5">
      <!-- 133 -->
      <g transform="translate(207.61473 322.182437) scale(0.1 -0.1)">
       <use xlink:href="#DejaVuSans-31"/>
       <use xlink:href="#DejaVuSans-33" x="63.623047"/>
       <use xlink:href="#DejaVuSans-33" x="127.246094"/>
      </g>
     </g>
    </g>
    <g id="xtick_6">
     <g id="line2d_6">
      <g>
       <use xlink:href="#m77771bf694" x="254.075719" y="307.584" style="stroke: #000000; stroke-width: 0.8"/>
      </g>
     </g>
     <g id="text_6">
      <!-- 167 -->
      <g transform="translate(244.531969 322.182437) scale(0.1 -0.1)">
       <use xlink:href="#DejaVuSans-31"/>
       <use xlink:href="#DejaVuSans-36" x="63.623047"/>
       <use xlink:href="#DejaVuSans-37" x="127.246094"/>
      </g>
     </g>
    </g>
    <g id="xtick_7">
     <g id="line2d_7">
      <g>
       <use xlink:href="#m77771bf694" x="289.907157" y="307.584" style="stroke: #000000; stroke-width: 0.8"/>
      </g>
     </g>
     <g id="text_7">
      <!-- 200 -->
      <g transform="translate(280.363407 322.182437) scale(0.1 -0.1)">
       <defs>
        <path id="DejaVuSans-32" d="M 1228 531 
L 3431 531 
L 3431 0 
L 469 0 
L 469 531 
Q 828 903 1448 1529 
Q 2069 2156 2228 2338 
Q 2531 2678 2651 2914 
Q 2772 3150 2772 3378 
Q 2772 3750 2511 3984 
Q 2250 4219 1831 4219 
Q 1534 4219 1204 4116 
Q 875 4013 500 3803 
L 500 4441 
Q 881 4594 1212 4672 
Q 1544 4750 1819 4750 
Q 2544 4750 2975 4387 
Q 3406 4025 3406 3419 
Q 3406 3131 3298 2873 
Q 3191 2616 2906 2266 
Q 2828 2175 2409 1742 
Q 1991 1309 1228 531 
z
" transform="scale(0.015625)"/>
       </defs>
       <use xlink:href="#DejaVuSans-32"/>
       <use xlink:href="#DejaVuSans-30" x="63.623047"/>
       <use xlink:href="#DejaVuSans-30" x="127.246094"/>
      </g>
     </g>
    </g>
    <g id="xtick_8">
     <g id="line2d_8">
      <g>
       <use xlink:href="#m77771bf694" x="325.738595" y="307.584" style="stroke: #000000; stroke-width: 0.8"/>
      </g>
     </g>
     <g id="text_8">
      <!-- 233 -->
      <g transform="translate(316.194845 322.182437) scale(0.1 -0.1)">
       <use xlink:href="#DejaVuSans-32"/>
       <use xlink:href="#DejaVuSans-33" x="63.623047"/>
       <use xlink:href="#DejaVuSans-33" x="127.246094"/>
      </g>
     </g>
    </g>
    <g id="xtick_9">
     <g id="line2d_9">
      <g>
       <use xlink:href="#m77771bf694" x="361.570033" y="307.584" style="stroke: #000000; stroke-width: 0.8"/>
      </g>
     </g>
     <g id="text_9">
      <!-- 266 -->
      <g transform="translate(352.026283 322.182437) scale(0.1 -0.1)">
       <use xlink:href="#DejaVuSans-32"/>
       <use xlink:href="#DejaVuSans-36" x="63.623047"/>
       <use xlink:href="#DejaVuSans-36" x="127.246094"/>
      </g>
     </g>
    </g>
    <g id="xtick_10">
     <g id="line2d_10">
      <g>
       <use xlink:href="#m77771bf694" x="398.487273" y="307.584" style="stroke: #000000; stroke-width: 0.8"/>
      </g>
     </g>
     <g id="text_10">
      <!-- 300 -->
      <g transform="translate(388.943523 322.182437) scale(0.1 -0.1)">
       <use xlink:href="#DejaVuSans-33"/>
       <use xlink:href="#DejaVuSans-30" x="63.623047"/>
       <use xlink:href="#DejaVuSans-30" x="127.246094"/>
      </g>
     </g>
    </g>
    <g id="text_11">
     <!-- Epochs -->
     <g transform="translate(218.244375 335.860562) scale(0.1 -0.1)">
      <defs>
       <path id="DejaVuSans-45" d="M 628 4666 
L 3578 4666 
L 3578 4134 
L 1259 4134 
L 1259 2753 
L 3481 2753 
L 3481 2222 
L 1259 2222 
L 1259 531 
L 3634 531 
L 3634 0 
L 628 0 
L 628 4666 
z
" transform="scale(0.015625)"/>
       <path id="DejaVuSans-70" d="M 1159 525 
L 1159 -1331 
L 581 -1331 
L 581 3500 
L 1159 3500 
L 1159 2969 
Q 1341 3281 1617 3432 
Q 1894 3584 2278 3584 
Q 2916 3584 3314 3078 
Q 3713 2572 3713 1747 
Q 3713 922 3314 415 
Q 2916 -91 2278 -91 
Q 1894 -91 1617 61 
Q 1341 213 1159 525 
z
M 3116 1747 
Q 3116 2381 2855 2742 
Q 2594 3103 2138 3103 
Q 1681 3103 1420 2742 
Q 1159 2381 1159 1747 
Q 1159 1113 1420 752 
Q 1681 391 2138 391 
Q 2594 391 2855 752 
Q 3116 1113 3116 1747 
z
" transform="scale(0.015625)"/>
       <path id="DejaVuSans-6f" d="M 1959 3097 
Q 1497 3097 1228 2736 
Q 959 2375 959 1747 
Q 959 1119 1226 758 
Q 1494 397 1959 397 
Q 2419 397 2687 759 
Q 2956 1122 2956 1747 
Q 2956 2369 2687 2733 
Q 2419 3097 1959 3097 
z
M 1959 3584 
Q 2709 3584 3137 3096 
Q 3566 2609 3566 1747 
Q 3566 888 3137 398 
Q 2709 -91 1959 -91 
Q 1206 -91 779 398 
Q 353 888 353 1747 
Q 353 2609 779 3096 
Q 1206 3584 1959 3584 
z
" transform="scale(0.015625)"/>
       <path id="DejaVuSans-63" d="M 3122 3366 
L 3122 2828 
Q 2878 2963 2633 3030 
Q 2388 3097 2138 3097 
Q 1578 3097 1268 2742 
Q 959 2388 959 1747 
Q 959 1106 1268 751 
Q 1578 397 2138 397 
Q 2388 397 2633 464 
Q 2878 531 3122 666 
L 3122 134 
Q 2881 22 2623 -34 
Q 2366 -91 2075 -91 
Q 1284 -91 818 406 
Q 353 903 353 1747 
Q 353 2603 823 3093 
Q 1294 3584 2113 3584 
Q 2378 3584 2631 3529 
Q 2884 3475 3122 3366 
z
" transform="scale(0.015625)"/>
       <path id="DejaVuSans-68" d="M 3513 2113 
L 3513 0 
L 2938 0 
L 2938 2094 
Q 2938 2591 2744 2837 
Q 2550 3084 2163 3084 
Q 1697 3084 1428 2787 
Q 1159 2491 1159 1978 
L 1159 0 
L 581 0 
L 581 4863 
L 1159 4863 
L 1159 2956 
Q 1366 3272 1645 3428 
Q 1925 3584 2291 3584 
Q 2894 3584 3203 3211 
Q 3513 2838 3513 2113 
z
" transform="scale(0.015625)"/>
       <path id="DejaVuSans-73" d="M 2834 3397 
L 2834 2853 
Q 2591 2978 2328 3040 
Q 2066 3103 1784 3103 
Q 1356 3103 1142 2972 
Q 928 2841 928 2578 
Q 928 2378 1081 2264 
Q 1234 2150 1697 2047 
L 1894 2003 
Q 2506 1872 2764 1633 
Q 3022 1394 3022 966 
Q 3022 478 2636 193 
Q 2250 -91 1575 -91 
Q 1294 -91 989 -36 
Q 684 19 347 128 
L 347 722 
Q 666 556 975 473 
Q 1284 391 1588 391 
Q 1994 391 2212 530 
Q 2431 669 2431 922 
Q 2431 1156 2273 1281 
Q 2116 1406 1581 1522 
L 1381 1569 
Q 847 1681 609 1914 
Q 372 2147 372 2553 
Q 372 3047 722 3315 
Q 1072 3584 1716 3584 
Q 2034 3584 2315 3537 
Q 2597 3491 2834 3397 
z
" transform="scale(0.015625)"/>
      </defs>
      <use xlink:href="#DejaVuSans-45"/>
      <use xlink:href="#DejaVuSans-70" x="63.183594"/>
      <use xlink:href="#DejaVuSans-6f" x="126.660156"/>
      <use xlink:href="#DejaVuSans-63" x="187.841797"/>
      <use xlink:href="#DejaVuSans-68" x="242.822266"/>
      <use xlink:href="#DejaVuSans-73" x="306.201172"/>
     </g>
    </g>
   </g>
   <g id="matplotlib.axis_2">
    <g id="ytick_1">
     <g id="line2d_11">
      <defs>
       <path id="m5e017136bb" d="M 0 0 
L -3.5 0 
" style="stroke: #000000; stroke-width: 0.8"/>
      </defs>
      <g>
       <use xlink:href="#m5e017136bb" x="57.6" y="283.957057" style="stroke: #000000; stroke-width: 0.8"/>
      </g>
     </g>
     <g id="text_12">
      <!-- 10 -->
      <g transform="translate(37.875 287.756276) scale(0.1 -0.1)">
       <use xlink:href="#DejaVuSans-31"/>
       <use xlink:href="#DejaVuSans-30" x="63.623047"/>
      </g>
     </g>
    </g>
    <g id="ytick_2">
     <g id="line2d_12">
      <g>
       <use xlink:href="#m5e017136bb" x="57.6" y="252.531067" style="stroke: #000000; stroke-width: 0.8"/>
      </g>
     </g>
     <g id="text_13">
      <!-- 20 -->
      <g transform="translate(37.875 256.330286) scale(0.1 -0.1)">
       <use xlink:href="#DejaVuSans-32"/>
       <use xlink:href="#DejaVuSans-30" x="63.623047"/>
      </g>
     </g>
    </g>
    <g id="ytick_3">
     <g id="line2d_13">
      <g>
       <use xlink:href="#m5e017136bb" x="57.6" y="221.105076" style="stroke: #000000; stroke-width: 0.8"/>
      </g>
     </g>
     <g id="text_14">
      <!-- 30 -->
      <g transform="translate(37.875 224.904295) scale(0.1 -0.1)">
       <use xlink:href="#DejaVuSans-33"/>
       <use xlink:href="#DejaVuSans-30" x="63.623047"/>
      </g>
     </g>
    </g>
    <g id="ytick_4">
     <g id="line2d_14">
      <g>
       <use xlink:href="#m5e017136bb" x="57.6" y="189.679086" style="stroke: #000000; stroke-width: 0.8"/>
      </g>
     </g>
     <g id="text_15">
      <!-- 40 -->
      <g transform="translate(37.875 193.478305) scale(0.1 -0.1)">
       <use xlink:href="#DejaVuSans-34"/>
       <use xlink:href="#DejaVuSans-30" x="63.623047"/>
      </g>
     </g>
    </g>
    <g id="ytick_5">
     <g id="line2d_15">
      <g>
       <use xlink:href="#m5e017136bb" x="57.6" y="158.253096" style="stroke: #000000; stroke-width: 0.8"/>
      </g>
     </g>
     <g id="text_16">
      <!-- 50 -->
      <g transform="translate(37.875 162.052314) scale(0.1 -0.1)">
       <defs>
        <path id="DejaVuSans-35" d="M 691 4666 
L 3169 4666 
L 3169 4134 
L 1269 4134 
L 1269 2991 
Q 1406 3038 1543 3061 
Q 1681 3084 1819 3084 
Q 2600 3084 3056 2656 
Q 3513 2228 3513 1497 
Q 3513 744 3044 326 
Q 2575 -91 1722 -91 
Q 1428 -91 1123 -41 
Q 819 9 494 109 
L 494 744 
Q 775 591 1075 516 
Q 1375 441 1709 441 
Q 2250 441 2565 725 
Q 2881 1009 2881 1497 
Q 2881 1984 2565 2268 
Q 2250 2553 1709 2553 
Q 1456 2553 1204 2497 
Q 953 2441 691 2322 
L 691 4666 
z
" transform="scale(0.015625)"/>
       </defs>
       <use xlink:href="#DejaVuSans-35"/>
       <use xlink:href="#DejaVuSans-30" x="63.623047"/>
      </g>
     </g>
    </g>
    <g id="ytick_6">
     <g id="line2d_16">
      <g>
       <use xlink:href="#m5e017136bb" x="57.6" y="126.827105" style="stroke: #000000; stroke-width: 0.8"/>
      </g>
     </g>
     <g id="text_17">
      <!-- 60 -->
      <g transform="translate(37.875 130.626324) scale(0.1 -0.1)">
       <use xlink:href="#DejaVuSans-36"/>
       <use xlink:href="#DejaVuSans-30" x="63.623047"/>
      </g>
     </g>
    </g>
    <g id="ytick_7">
     <g id="line2d_17">
      <g>
       <use xlink:href="#m5e017136bb" x="57.6" y="95.401115" style="stroke: #000000; stroke-width: 0.8"/>
      </g>
     </g>
     <g id="text_18">
      <!-- 70 -->
      <g transform="translate(37.875 99.200334) scale(0.1 -0.1)">
       <use xlink:href="#DejaVuSans-37"/>
       <use xlink:href="#DejaVuSans-30" x="63.623047"/>
      </g>
     </g>
    </g>
    <g id="ytick_8">
     <g id="line2d_18">
      <g>
       <use xlink:href="#m5e017136bb" x="57.6" y="63.975125" style="stroke: #000000; stroke-width: 0.8"/>
      </g>
     </g>
     <g id="text_19">
      <!-- 80 -->
      <g transform="translate(37.875 67.774343) scale(0.1 -0.1)">
       <defs>
        <path id="DejaVuSans-38" d="M 2034 2216 
Q 1584 2216 1326 1975 
Q 1069 1734 1069 1313 
Q 1069 891 1326 650 
Q 1584 409 2034 409 
Q 2484 409 2743 651 
Q 3003 894 3003 1313 
Q 3003 1734 2745 1975 
Q 2488 2216 2034 2216 
z
M 1403 2484 
Q 997 2584 770 2862 
Q 544 3141 544 3541 
Q 544 4100 942 4425 
Q 1341 4750 2034 4750 
Q 2731 4750 3128 4425 
Q 3525 4100 3525 3541 
Q 3525 3141 3298 2862 
Q 3072 2584 2669 2484 
Q 3125 2378 3379 2068 
Q 3634 1759 3634 1313 
Q 3634 634 3220 271 
Q 2806 -91 2034 -91 
Q 1263 -91 848 271 
Q 434 634 434 1313 
Q 434 1759 690 2068 
Q 947 2378 1403 2484 
z
M 1172 3481 
Q 1172 3119 1398 2916 
Q 1625 2713 2034 2713 
Q 2441 2713 2670 2916 
Q 2900 3119 2900 3481 
Q 2900 3844 2670 4047 
Q 2441 4250 2034 4250 
Q 1625 4250 1398 4047 
Q 1172 3844 1172 3481 
z
" transform="scale(0.015625)"/>
       </defs>
       <use xlink:href="#DejaVuSans-38"/>
       <use xlink:href="#DejaVuSans-30" x="63.623047"/>
      </g>
     </g>
    </g>
    <g id="text_20">
     <!-- Accuracy -->
     <g transform="translate(31.795312 197.356125) rotate(-90) scale(0.1 -0.1)">
      <defs>
       <path id="DejaVuSans-41" d="M 2188 4044 
L 1331 1722 
L 3047 1722 
L 2188 4044 
z
M 1831 4666 
L 2547 4666 
L 4325 0 
L 3669 0 
L 3244 1197 
L 1141 1197 
L 716 0 
L 50 0 
L 1831 4666 
z
" transform="scale(0.015625)"/>
       <path id="DejaVuSans-75" d="M 544 1381 
L 544 3500 
L 1119 3500 
L 1119 1403 
Q 1119 906 1312 657 
Q 1506 409 1894 409 
Q 2359 409 2629 706 
Q 2900 1003 2900 1516 
L 2900 3500 
L 3475 3500 
L 3475 0 
L 2900 0 
L 2900 538 
Q 2691 219 2414 64 
Q 2138 -91 1772 -91 
Q 1169 -91 856 284 
Q 544 659 544 1381 
z
M 1991 3584 
L 1991 3584 
z
" transform="scale(0.015625)"/>
       <path id="DejaVuSans-72" d="M 2631 2963 
Q 2534 3019 2420 3045 
Q 2306 3072 2169 3072 
Q 1681 3072 1420 2755 
Q 1159 2438 1159 1844 
L 1159 0 
L 581 0 
L 581 3500 
L 1159 3500 
L 1159 2956 
Q 1341 3275 1631 3429 
Q 1922 3584 2338 3584 
Q 2397 3584 2469 3576 
Q 2541 3569 2628 3553 
L 2631 2963 
z
" transform="scale(0.015625)"/>
       <path id="DejaVuSans-61" d="M 2194 1759 
Q 1497 1759 1228 1600 
Q 959 1441 959 1056 
Q 959 750 1161 570 
Q 1363 391 1709 391 
Q 2188 391 2477 730 
Q 2766 1069 2766 1631 
L 2766 1759 
L 2194 1759 
z
M 3341 1997 
L 3341 0 
L 2766 0 
L 2766 531 
Q 2569 213 2275 61 
Q 1981 -91 1556 -91 
Q 1019 -91 701 211 
Q 384 513 384 1019 
Q 384 1609 779 1909 
Q 1175 2209 1959 2209 
L 2766 2209 
L 2766 2266 
Q 2766 2663 2505 2880 
Q 2244 3097 1772 3097 
Q 1472 3097 1187 3025 
Q 903 2953 641 2809 
L 641 3341 
Q 956 3463 1253 3523 
Q 1550 3584 1831 3584 
Q 2591 3584 2966 3190 
Q 3341 2797 3341 1997 
z
" transform="scale(0.015625)"/>
       <path id="DejaVuSans-79" d="M 2059 -325 
Q 1816 -950 1584 -1140 
Q 1353 -1331 966 -1331 
L 506 -1331 
L 506 -850 
L 844 -850 
Q 1081 -850 1212 -737 
Q 1344 -625 1503 -206 
L 1606 56 
L 191 3500 
L 800 3500 
L 1894 763 
L 2988 3500 
L 3597 3500 
L 2059 -325 
z
" transform="scale(0.015625)"/>
      </defs>
      <use xlink:href="#DejaVuSans-41"/>
      <use xlink:href="#DejaVuSans-63" x="66.658203"/>
      <use xlink:href="#DejaVuSans-63" x="121.638672"/>
      <use xlink:href="#DejaVuSans-75" x="176.619141"/>
      <use xlink:href="#DejaVuSans-72" x="239.998047"/>
      <use xlink:href="#DejaVuSans-61" x="281.111328"/>
      <use xlink:href="#DejaVuSans-63" x="342.390625"/>
      <use xlink:href="#DejaVuSans-79" x="397.371094"/>
     </g>
    </g>
   </g>
   <g id="line2d_19">
    <path d="M 73.832727 295.488 
L 76.00433 253.604518 
L 78.175932 217.875279 
L 79.261733 207.61296 
L 80.347534 194.722103 
L 81.433335 187.466077 
L 82.519137 179.438803 
L 85.77654 161.314478 
L 86.862341 156.584682 
L 87.948142 150.532747 
L 89.033943 148.344921 
L 91.205546 141.962452 
L 92.291347 138.735802 
L 93.377148 137.657629 
L 94.462949 137.728458 
L 95.54875 165.092018 
L 96.634552 163.502303 
L 97.720353 159.842811 
L 98.806154 158.780377 
L 100.977756 150.225822 
L 102.063557 147.81764 
L 103.149358 144.032229 
L 104.23516 143.048494 
L 105.320961 140.671792 
L 106.406762 137.948815 
L 107.492563 135.66655 
L 108.578364 132.219545 
L 109.664165 131.731612 
L 110.749967 128.835498 
L 111.835768 126.490275 
L 112.921569 124.751032 
L 114.00737 122.484507 
L 115.093171 122.051664 
L 116.178972 118.541699 
L 117.264773 115.787243 
L 118.350575 115.212742 
L 119.436376 112.340237 
L 122.693779 105.611493 
L 124.865382 103.108872 
L 125.951183 99.945182 
L 127.036984 100.960396 
L 129.208586 96.458826 
L 130.294387 96.765751 
L 131.380189 95.58527 
L 132.46599 93.153478 
L 133.551791 92.547498 
L 134.637592 92.185483 
L 135.723393 92.358621 
L 136.809194 90.241624 
L 137.894995 90.265234 
L 138.980797 120.776744 
L 140.066598 124.050613 
L 141.152399 123.680729 
L 142.2382 123.893215 
L 143.324001 122.460898 
L 144.409802 121.390595 
L 145.495604 120.957751 
L 146.581405 119.16342 
L 147.667206 119.541174 
L 148.753007 118.069507 
L 149.838808 115.393749 
L 150.924609 115.220612 
L 152.01041 115.661325 
L 153.096212 113.497109 
L 155.267814 112.426805 
L 156.353615 110.341288 
L 157.439416 109.522821 
L 158.525217 109.814007 
L 160.69682 108.240031 
L 161.782621 106.791974 
L 162.868422 106.500789 
L 163.954223 105.076341 
L 165.040024 102.990824 
L 166.125825 103.785681 
L 167.211627 101.826082 
L 168.297428 102.164487 
L 169.383229 100.141928 
L 170.46903 98.678131 
L 171.554831 98.497124 
L 172.640632 96.84445 
L 173.726434 96.569005 
L 174.812235 96.931019 
L 175.898036 96.569005 
L 176.983837 93.712239 
L 178.069638 92.342881 
L 179.155439 93.161348 
L 180.24124 90.847604 
L 181.327042 89.974048 
L 182.412843 90.123576 
L 183.498644 88.006579 
L 184.584445 87.660304 
L 185.670246 86.188638 
L 186.756047 85.472479 
L 187.841849 85.740055 
L 188.92765 83.717496 
L 192.185053 80.829252 
L 193.270854 80.663984 
L 194.356656 80.860731 
L 195.442457 78.712255 
L 196.528258 78.059055 
L 197.614059 76.563779 
L 198.69986 76.681827 
L 199.785661 74.320864 
L 200.871462 73.754233 
L 201.957264 73.651925 
L 203.043065 72.754759 
L 204.128866 72.707539 
L 205.214667 72.951506 
L 206.300468 71.511318 
L 208.472071 70.330837 
L 209.557872 68.992958 
L 210.643673 69.166095 
L 211.729474 68.449936 
L 212.815275 66.388029 
L 213.901076 68.001353 
L 214.986877 67.348154 
L 216.072679 65.239027 
L 217.15848 66.718563 
L 218.244281 66.033884 
L 220.415883 66.427378 
L 222.587486 65.860747 
L 223.673287 66.041754 
L 224.759088 66.537556 
L 225.844889 96.85232 
L 226.93069 101.770993 
L 228.016491 101.676554 
L 229.102292 101.2988 
L 230.188094 103.108872 
L 231.273895 101.589986 
L 232.359696 102.361234 
L 233.445497 100.921046 
L 234.531298 100.291456 
L 235.617099 100.747909 
L 236.702901 100.850217 
L 237.788702 99.205413 
L 238.874503 98.654522 
L 239.960304 97.387472 
L 241.046105 98.418426 
L 242.131906 99.772044 
L 243.217708 98.13511 
L 244.303509 97.702267 
L 245.38931 97.678657 
L 246.475111 97.450431 
L 247.560912 94.365439 
L 248.646713 96.20699 
L 249.732514 95.042249 
L 250.818316 95.813496 
L 251.904117 94.585796 
L 252.989918 94.869111 
L 255.16152 93.003951 
L 256.247321 92.335011 
L 257.333123 91.374886 
L 258.418924 92.098915 
L 259.504725 92.161874 
L 260.590526 91.13879 
L 262.762128 90.5092 
L 263.847929 89.84026 
L 264.933731 89.549075 
L 266.019532 88.691258 
L 267.105333 90.241624 
L 268.191134 89.171321 
L 269.276935 86.369645 
L 270.362736 87.266811 
L 271.448538 85.991891 
L 272.534339 87.495037 
L 273.62014 85.724315 
L 274.705941 87.534386 
L 275.791742 85.700705 
L 276.877543 86.298816 
L 277.963344 84.535964 
L 280.134947 84.284128 
L 281.220748 84.614662 
L 282.306549 83.567969 
L 283.39235 83.166605 
L 284.478151 84.229038 
L 285.563953 84.386436 
L 286.649754 82.182871 
L 287.735555 82.639323 
L 288.821356 82.670803 
L 289.907157 80.648245 
L 290.992958 79.971435 
L 292.07876 79.05853 
L 293.164561 79.876997 
L 294.250362 79.790428 
L 295.336163 78.767344 
L 296.421964 78.452549 
L 297.507765 77.76787 
L 298.593566 78.877522 
L 299.679368 78.428939 
L 300.765169 76.949403 
L 302.936771 76.729046 
L 304.022572 75.422647 
L 305.108373 75.005543 
L 306.194175 74.045418 
L 307.279976 75.21016 
L 309.451578 72.495053 
L 310.537379 73.101033 
L 311.62318 74.013939 
L 312.708981 71.715935 
L 313.794783 71.912682 
L 314.880584 71.330311 
L 315.966385 72.04647 
L 317.052186 70.291487 
L 318.137987 70.315097 
L 320.30959 69.213314 
L 321.395391 68.394847 
L 323.566993 69.583198 
L 324.652794 66.395899 
L 325.738595 66.655604 
L 326.824396 67.088448 
L 327.910198 65.459383 
L 328.995999 66.466727 
L 330.0818 66.018144 
L 331.167601 65.152458 
L 332.253402 63.893278 
L 333.339203 64.444169 
L 334.425005 64.538608 
L 335.510806 62.712796 
L 336.596607 63.971977 
L 337.682408 63.279427 
L 339.85401 61.445746 
L 340.939811 61.548055 
L 342.025613 61.917939 
L 343.111414 60.54858 
L 344.197215 60.367573 
L 345.283016 59.675024 
L 347.454618 59.407448 
L 348.54042 58.714899 
L 349.626221 58.376494 
L 350.712022 59.037564 
L 351.797823 57.841343 
L 352.883624 57.99874 
L 353.969425 56.235888 
L 355.055227 56.936307 
L 356.141028 56.361806 
L 357.226829 56.74743 
L 361.570033 54.111021 
L 362.655835 53.874925 
L 363.741636 54.630433 
L 364.827437 53.835576 
L 365.913238 55.220674 
L 366.999039 53.568 
L 369.170642 53.638829 
L 370.256443 54.347118 
L 371.342244 57.148794 
L 373.513846 55.724346 
L 374.599647 57.605247 
L 375.685448 57.857083 
L 376.77125 57.164534 
L 377.857051 57.038615 
L 378.942852 57.188143 
L 380.028653 57.628856 
L 381.114454 56.786779 
L 382.200255 57.636726 
L 383.286057 57.337671 
L 385.457659 57.211753 
L 386.54346 56.928437 
L 387.629261 58.195487 
L 388.715062 56.471984 
L 389.800863 57.36915 
L 390.886665 57.762644 
L 391.972466 57.070095 
L 393.058267 57.133054 
L 394.144068 58.01448 
L 395.229869 57.683945 
L 396.31567 57.581637 
L 397.401472 55.700736 
L 398.487273 57.306191 
L 398.487273 57.306191 
" clip-path="url(#p979f2311ae)" style="fill: none; stroke: #1f77b4; stroke-width: 1.5; stroke-linecap: square"/>
   </g>
   <g id="line2d_20">
    <path d="M 73.832727 283.705649 
L 74.918528 258.282023 
L 76.00433 238.735057 
L 77.090131 216.61116 
L 78.175932 205.612063 
L 79.261733 191.816053 
L 80.347534 176.00878 
L 81.433335 174.186073 
L 82.519137 167.775171 
L 83.604938 152.282157 
L 84.690739 148.228205 
L 85.77654 142.288693 
L 87.948142 133.646545 
L 89.033943 132.263802 
L 90.119745 128.304127 
L 91.205546 125.130102 
L 92.291347 123.307394 
L 93.377148 122.898856 
L 94.462949 122.144633 
L 95.54875 152.219305 
L 96.634552 149.422392 
L 98.806154 140.968801 
L 99.891955 138.549 
L 100.977756 127.581329 
L 102.063557 132.20095 
L 103.149358 124.59586 
L 104.23516 127.958441 
L 105.320961 127.487051 
L 106.406762 128.335553 
L 107.492563 124.721564 
L 108.578364 118.813478 
L 109.664165 115.796583 
L 110.749967 114.728099 
L 111.835768 113.219651 
L 112.921569 108.882865 
L 114.00737 109.071421 
L 115.093171 106.148804 
L 117.264773 98.10375 
L 118.350575 98.040898 
L 119.436376 96.783858 
L 120.522177 99.077956 
L 121.607978 94.489761 
L 122.693779 91.975682 
L 123.77958 91.158606 
L 124.865382 94.018371 
L 125.951183 89.178769 
L 127.036984 86.853246 
L 128.122785 88.267415 
L 129.208586 84.999112 
L 130.294387 84.276314 
L 131.380189 85.439076 
L 132.46599 82.830719 
L 133.551791 83.962054 
L 134.637592 83.773498 
L 135.723393 83.364961 
L 136.809194 83.113553 
L 137.894995 83.113553 
L 138.980797 106.085952 
L 140.066598 109.794218 
L 141.152399 105.86597 
L 142.2382 104.29467 
L 143.324001 110.17133 
L 144.409802 106.525915 
L 145.495604 103.760428 
L 146.581405 107.280139 
L 147.667206 107.028731 
L 148.753007 102.943353 
L 149.838808 104.106114 
L 150.924609 103.037631 
L 152.01041 98.795122 
L 153.096212 99.36079 
L 154.182013 99.04653 
L 155.267814 95.401115 
L 156.353615 93.955519 
L 157.439416 96.469599 
L 158.525217 90.027271 
L 159.611019 93.861241 
L 160.69682 94.144075 
L 161.782621 96.186765 
L 162.868422 92.918462 
L 163.954223 90.875772 
L 165.040024 89.273047 
L 166.125825 88.487397 
L 168.297428 89.053065 
L 169.383229 89.210195 
L 170.46903 93.01274 
L 171.554831 85.501928 
L 172.640632 84.087758 
L 173.726434 83.647795 
L 174.812235 86.319004 
L 175.898036 83.616369 
L 176.983837 83.050701 
L 178.069638 80.096658 
L 179.155439 80.850881 
L 180.24124 81.856513 
L 181.327042 80.599473 
L 182.412843 79.625268 
L 183.498644 79.091026 
L 184.584445 76.639799 
L 185.670246 78.368228 
L 186.756047 78.336802 
L 187.841849 75.351333 
L 188.92765 78.808192 
L 190.013451 76.262687 
L 191.099252 77.676856 
L 192.185053 73.874311 
L 193.270854 74.754239 
L 195.442457 70.857416 
L 196.528258 71.077398 
L 197.614059 72.900106 
L 198.69986 69.600377 
L 199.785661 70.417453 
L 200.871462 68.500467 
L 201.957264 69.757507 
L 203.043065 68.940431 
L 204.128866 67.746243 
L 205.214667 68.217633 
L 207.386269 66.457778 
L 208.472071 66.20637 
L 209.557872 65.640702 
L 210.643673 65.703554 
L 211.729474 65.10646 
L 212.815275 65.389294 
L 214.986877 64.886478 
L 217.15848 64.666496 
L 219.330082 64.226532 
L 221.501684 64.415088 
L 222.587486 64.132254 
L 223.673287 64.47794 
L 224.759088 64.006551 
L 225.844889 89.775863 
L 226.93069 91.252884 
L 228.016491 91.472866 
L 229.102292 91.504292 
L 230.188094 85.030538 
L 231.273895 91.724274 
L 232.359696 88.393119 
L 233.445497 91.252884 
L 234.531298 91.944256 
L 235.617099 89.870141 
L 236.702901 89.398751 
L 237.788702 89.524455 
L 238.874503 89.964419 
L 239.960304 89.367325 
L 241.046105 88.424545 
L 242.131906 87.858877 
L 243.217708 86.916097 
L 244.303509 86.444708 
L 245.38931 85.784762 
L 246.475111 86.853246 
L 247.560912 83.899202 
L 248.646713 82.296477 
L 249.732514 84.496296 
L 250.818316 85.816188 
L 251.904117 86.66469 
L 252.989918 81.322271 
L 254.075719 83.207831 
L 255.16152 84.653426 
L 256.247321 81.102289 
L 257.333123 86.758968 
L 258.418924 83.176405 
L 259.504725 82.893571 
L 260.590526 83.773498 
L 261.676327 87.796025 
L 262.762128 83.427813 
L 263.847929 81.856513 
L 264.933731 81.887939 
L 266.019532 79.122452 
L 267.105333 80.756603 
L 268.191134 79.028174 
L 269.276935 80.31664 
L 270.362736 80.536621 
L 272.534339 82.579311 
L 273.62014 81.636531 
L 274.705941 76.545521 
L 275.791742 79.53099 
L 276.877543 81.856513 
L 277.963344 78.871044 
L 279.049146 76.294113 
L 280.134947 77.142614 
L 281.220748 80.348066 
L 282.306549 76.702651 
L 283.39235 78.713914 
L 284.478151 77.896838 
L 285.563953 78.053968 
L 286.649754 74.502831 
L 287.735555 76.545521 
L 288.821356 76.514095 
L 289.907157 75.571315 
L 290.992958 76.734077 
L 292.07876 75.005647 
L 293.164561 72.742976 
L 294.250362 72.491568 
L 295.336163 76.482669 
L 296.421964 76.828355 
L 297.507765 73.34007 
L 298.593566 72.617272 
L 299.679368 72.271586 
L 300.765169 72.837254 
L 301.85097 74.754239 
L 304.022572 72.585846 
L 305.108373 74.125719 
L 306.194175 73.748608 
L 307.279976 69.883211 
L 308.365777 71.045972 
L 309.451578 72.71155 
L 310.537379 73.18294 
L 311.62318 70.323175 
L 312.708981 69.946063 
L 313.794783 69.191839 
L 314.880584 70.543157 
L 315.966385 69.977489 
L 317.052186 68.689023 
L 318.137987 73.4972 
L 319.223788 70.071767 
L 320.30959 71.76877 
L 322.481192 67.620539 
L 323.566993 71.108824 
L 324.652794 68.971857 
L 325.738595 67.14915 
L 326.824396 70.008915 
L 327.910198 65.609276 
L 328.995999 68.909005 
L 330.0818 67.212002 
L 331.167601 66.394926 
L 332.253402 64.94933 
L 333.339203 65.514998 
L 334.425005 64.94933 
L 335.510806 68.657597 
L 336.596607 66.04924 
L 337.682408 63.817995 
L 338.768209 63.943699 
L 339.85401 64.32081 
L 340.939811 63.315179 
L 342.025613 63.252327 
L 343.111414 63.315179 
L 344.197215 62.686659 
L 345.283016 62.278121 
L 347.454618 62.686659 
L 348.54042 62.372399 
L 349.626221 61.115359 
L 350.712022 62.026713 
L 351.797823 62.780937 
L 352.883624 60.32971 
L 353.969425 60.392562 
L 355.055227 61.461045 
L 357.226829 60.518266 
L 358.31263 61.209637 
L 359.398431 61.555323 
L 360.484232 59.449782 
L 361.570033 59.38693 
L 362.655835 59.54406 
L 363.741636 59.481208 
L 364.827437 60.361136 
L 365.913238 58.726984 
L 366.999039 59.041244 
L 368.08484 59.921172 
L 369.170642 58.75841 
L 370.256443 60.706822 
L 371.342244 60.832525 
L 372.428045 62.152417 
L 373.513846 63.220901 
L 374.599647 61.743879 
L 375.685448 62.120991 
L 376.77125 63.032345 
L 377.857051 62.592381 
L 378.942852 62.403825 
L 380.028653 62.749511 
L 381.114454 60.612544 
L 382.200255 62.969493 
L 383.286057 61.146785 
L 384.371858 62.780937 
L 385.457659 62.309547 
L 386.54346 60.581118 
L 387.629261 62.843789 
L 388.715062 62.466677 
L 389.800863 63.817995 
L 390.886665 63.472309 
L 391.972466 61.429619 
L 393.058267 62.309547 
L 394.144068 63.660865 
L 395.229869 63.723717 
L 396.31567 62.466677 
L 397.401472 63.032345 
L 398.487273 61.649601 
L 398.487273 61.649601 
" clip-path="url(#p979f2311ae)" style="fill: none; stroke: #ff7f0e; stroke-width: 1.5; stroke-linecap: square"/>
   </g>
   <g id="line2d_21">
    <path d="M 73.832727 287.533118 
L 74.918528 265.209828 
L 76.00433 258.274437 
L 77.090131 242.886539 
L 78.175932 233.675473 
L 80.347534 210.593624 
L 81.433335 211.135452 
L 82.519137 206.909198 
L 83.604938 198.890152 
L 84.690739 192.71332 
L 85.77654 188.161969 
L 86.862341 186.211391 
L 87.948142 182.852061 
L 89.033943 182.63533 
L 90.119745 178.30071 
L 91.205546 177.867248 
L 92.291347 172.55734 
L 93.377148 172.015512 
L 94.462949 172.990801 
L 95.54875 197.481401 
L 96.634552 194.447167 
L 98.806154 190.220913 
L 99.891955 187.620142 
L 100.977756 178.842538 
L 102.063557 180.684751 
L 103.149358 176.783593 
L 105.320961 181.226578 
L 106.406762 182.201868 
L 107.492563 175.699939 
L 108.578364 170.173299 
L 109.664165 165.296852 
L 110.749967 168.872913 
L 111.835768 160.420405 
L 112.921569 164.755025 
L 114.00737 166.705603 
L 115.093171 160.31204 
L 116.178972 162.370984 
L 117.264773 152.292994 
L 118.350575 152.726456 
L 119.436376 150.992608 
L 120.522177 154.893766 
L 121.607978 147.850009 
L 122.693779 148.391837 
L 123.77958 147.741644 
L 124.865382 151.534436 
L 125.951183 145.465969 
L 127.036984 142.973562 
L 128.122785 141.781542 
L 129.208586 139.505867 
L 130.294387 137.98875 
L 131.380189 139.397501 
L 132.46599 134.521055 
L 133.551791 136.038171 
L 134.637592 134.954517 
L 135.723393 134.846151 
L 136.809194 134.521055 
L 137.894995 134.62942 
L 138.980797 158.253096 
L 140.066598 164.104832 
L 141.152399 163.454639 
L 142.2382 160.528771 
L 143.324001 164.213197 
L 144.409802 158.578192 
L 145.495604 162.045888 
L 146.581405 166.705603 
L 147.667206 164.971756 
L 148.753007 158.469827 
L 149.838808 159.986943 
L 150.924609 158.903289 
L 152.01041 150.125684 
L 153.096212 154.677035 
L 154.182013 161.612426 
L 155.267814 150.775877 
L 156.353615 153.268283 
L 157.439416 154.026842 
L 158.525217 142.323369 
L 159.611019 148.933664 
L 160.69682 148.283471 
L 161.782621 155.110497 
L 162.868422 149.583857 
L 163.954223 148.608568 
L 165.040024 149.150395 
L 166.125825 140.697887 
L 167.211627 143.081928 
L 168.297428 142.215004 
L 169.383229 144.490679 
L 170.46903 148.391837 
L 171.554831 142.756831 
L 172.640632 141.34808 
L 173.726434 140.589522 
L 174.812235 141.564811 
L 175.898036 137.98875 
L 176.983837 139.289136 
L 178.069638 136.905095 
L 179.155439 138.313847 
L 180.24124 137.663654 
L 181.327042 136.688364 
L 182.412843 132.678841 
L 183.498644 129.644608 
L 184.584445 132.678841 
L 185.670246 131.703552 
L 186.756047 130.944994 
L 187.841849 132.787207 
L 188.92765 136.146537 
L 190.013451 130.186435 
L 191.099252 131.595187 
L 192.185053 126.502009 
L 193.270854 126.393643 
L 194.356656 126.827105 
L 195.442457 122.925948 
L 196.528258 122.817582 
L 197.614059 125.309988 
L 198.69986 124.009603 
L 199.785661 122.38412 
L 200.871462 121.950658 
L 201.957264 122.817582 
L 203.043065 121.950658 
L 204.128866 122.059024 
L 205.214667 121.300466 
L 206.300468 117.290943 
L 207.386269 117.290943 
L 208.472071 117.074212 
L 209.557872 117.616039 
L 210.643673 119.349887 
L 211.729474 116.532384 
L 212.815275 117.182577 
L 213.901076 116.315653 
L 214.986877 117.507674 
L 216.072679 118.482963 
L 217.15848 118.808059 
L 218.244281 116.424019 
L 219.330082 113.498151 
L 220.415883 116.532384 
L 221.501684 116.749115 
L 222.587486 117.724405 
L 223.673287 116.315653 
L 224.759088 115.231998 
L 225.844889 146.116161 
L 226.93069 147.416547 
L 228.016491 149.367126 
L 229.102292 147.091451 
L 230.188094 142.106639 
L 231.273895 147.199816 
L 232.359696 140.481156 
L 233.445497 148.716933 
L 234.531298 144.382314 
L 235.617099 148.391837 
L 236.702901 147.091451 
L 237.788702 142.756831 
L 238.874503 146.87472 
L 239.960304 144.70741 
L 241.046105 144.599045 
L 242.131906 144.70741 
L 243.217708 145.032507 
L 244.303509 141.998273 
L 245.38931 139.830963 
L 246.475111 140.806253 
L 247.560912 142.431735 
L 248.646713 137.338557 
L 249.732514 139.614232 
L 250.818316 141.131349 
L 251.904117 139.072405 
L 252.989918 135.713075 
L 254.075719 136.471633 
L 255.16152 142.973562 
L 256.247321 137.663654 
L 257.333123 143.081928 
L 258.418924 132.570476 
L 259.504725 140.589522 
L 260.590526 134.846151 
L 261.676327 148.825299 
L 262.762128 138.313847 
L 263.847929 134.087593 
L 264.933731 140.15606 
L 266.019532 134.846151 
L 267.105333 138.205481 
L 268.191134 131.161725 
L 269.276935 131.703552 
L 270.362736 132.895572 
L 271.448538 131.595187 
L 272.534339 134.304324 
L 273.62014 132.353745 
L 274.705941 132.137014 
L 275.791742 133.870862 
L 276.877543 131.920283 
L 277.963344 133.003938 
L 279.049146 130.944994 
L 280.134947 138.097116 
L 281.220748 133.654131 
L 282.306549 137.230192 
L 283.39235 133.4374 
L 284.478151 132.028649 
L 285.563953 132.137014 
L 286.649754 129.536242 
L 287.735555 133.654131 
L 288.821356 131.486821 
L 289.907157 130.294801 
L 290.992958 133.654131 
L 292.07876 132.678841 
L 293.164561 124.55143 
L 294.250362 126.502009 
L 295.336163 133.112303 
L 296.421964 133.329034 
L 297.507765 129.861339 
L 298.593566 127.694029 
L 299.679368 126.176912 
L 300.765169 127.368933 
L 301.85097 128.886049 
L 302.936771 127.91076 
L 304.022572 125.309988 
L 305.108373 127.260567 
L 306.194175 127.694029 
L 307.279976 125.093258 
L 308.365777 124.334699 
L 309.451578 130.511532 
L 310.537379 124.659796 
L 311.62318 119.891714 
L 312.708981 124.443065 
L 313.794783 120.541907 
L 314.880584 122.059024 
L 315.966385 122.600851 
L 317.052186 117.83277 
L 318.137987 124.984892 
L 319.223788 122.492486 
L 320.30959 124.334699 
L 321.395391 125.093258 
L 322.481192 116.64075 
L 323.566993 125.309988 
L 324.652794 119.241521 
L 325.738595 119.674983 
L 326.824396 122.925948 
L 327.910198 114.906902 
L 328.995999 121.1921 
L 330.0818 118.916425 
L 331.167601 119.02479 
L 332.253402 116.315653 
L 333.339203 117.182577 
L 334.425005 113.823247 
L 335.510806 123.142679 
L 336.596607 118.374598 
L 337.682408 115.231998 
L 338.768209 114.690171 
L 339.85401 113.28142 
L 340.939811 112.631227 
L 342.025613 113.606516 
L 344.197215 113.714882 
L 345.283016 111.11411 
L 346.368817 112.30613 
L 347.454618 117.941136 
L 348.54042 108.513338 
L 349.626221 112.089399 
L 350.712022 110.355552 
L 351.797823 109.488628 
L 352.883624 109.163531 
L 353.969425 107.104587 
L 355.055227 107.863146 
L 356.141028 109.705359 
L 357.226829 105.479105 
L 358.31263 107.538049 
L 359.398431 110.680648 
L 360.484232 108.9468 
L 361.570033 107.646415 
L 362.655835 109.596993 
L 363.741636 108.513338 
L 364.827437 106.020932 
L 365.913238 106.129298 
L 366.999039 106.56276 
L 368.08484 109.055166 
L 369.170642 109.055166 
L 370.256443 110.572283 
L 371.342244 108.9468 
L 372.428045 110.138821 
L 373.513846 111.981034 
L 374.599647 111.764303 
L 375.685448 108.730069 
L 376.77125 110.247186 
L 377.857051 113.389785 
L 378.942852 113.173054 
L 380.028653 115.340364 
L 381.114454 106.020932 
L 382.200255 111.547572 
L 383.286057 114.148344 
L 384.371858 107.971511 
L 385.457659 113.931613 
L 386.54346 110.247186 
L 387.629261 111.005745 
L 388.715062 114.581806 
L 389.800863 115.990557 
L 390.886665 113.28142 
L 391.972466 116.098922 
L 393.058267 109.163531 
L 394.144068 112.739592 
L 395.229869 113.823247 
L 396.31567 109.92209 
L 397.401472 112.739592 
L 398.487273 113.823247 
L 398.487273 113.823247 
" clip-path="url(#p979f2311ae)" style="fill: none; stroke: #2ca02c; stroke-width: 1.5; stroke-linecap: square"/>
   </g>
   <g id="line2d_22">
    <path d="M 368.08484 59.70119 
L 369.170642 58.507002 
L 370.256443 58.821262 
L 371.342244 60.141154 
L 373.513846 60.235432 
L 374.599647 59.764042 
L 375.685448 61.052507 
L 376.77125 61.901009 
L 377.857051 60.266858 
L 378.942852 60.706822 
L 380.028653 63.000919 
L 381.114454 63.535161 
L 382.200255 62.215269 
L 383.286057 62.215269 
L 384.371858 63.880847 
L 385.457659 62.152417 
L 386.54346 63.095197 
L 387.629261 62.403825 
L 388.715062 63.629439 
L 389.800863 62.215269 
L 390.886665 63.786569 
L 391.972466 65.703554 
L 393.058267 64.823626 
L 394.144068 64.257958 
L 395.229869 65.232164 
L 396.31567 67.557687 
L 397.401472 65.326442 
L 398.487273 66.017814 
L 398.487273 66.017814 
" clip-path="url(#p979f2311ae)" style="fill: none; stroke: #d62728; stroke-width: 1.5; stroke-linecap: square"/>
   </g>
   <g id="line2d_23">
    <path d="M 368.08484 108.621704 
L 369.170642 105.479105 
L 370.256443 107.538049 
L 371.342244 106.454394 
L 372.428045 109.705359 
L 373.513846 110.355552 
L 374.599647 103.745257 
L 375.685448 109.380262 
L 376.77125 112.631227 
L 377.857051 108.838435 
L 378.942852 110.030455 
L 380.028653 109.596993 
L 381.114454 112.847958 
L 382.200255 113.498151 
L 383.286057 113.823247 
L 384.371858 111.330841 
L 385.457659 110.247186 
L 386.54346 110.463917 
L 387.629261 111.764303 
L 388.715062 106.346029 
L 390.886665 109.488628 
L 391.972466 114.256709 
L 393.058267 110.680648 
L 394.144068 108.730069 
L 395.229869 111.005745 
L 396.31567 114.581806 
L 397.401472 112.089399 
L 398.487273 111.11411 
L 398.487273 111.11411 
" clip-path="url(#p979f2311ae)" style="fill: none; stroke: #9467bd; stroke-width: 1.5; stroke-linecap: square"/>
   </g>
   <g id="patch_3">
    <path d="M 57.6 307.584 
L 57.6 41.472 
" style="fill: none; stroke: #000000; stroke-width: 0.8; stroke-linejoin: miter; stroke-linecap: square"/>
   </g>
   <g id="patch_4">
    <path d="M 414.72 307.584 
L 414.72 41.472 
" style="fill: none; stroke: #000000; stroke-width: 0.8; stroke-linejoin: miter; stroke-linecap: square"/>
   </g>
   <g id="patch_5">
    <path d="M 57.6 307.584 
L 414.72 307.584 
" style="fill: none; stroke: #000000; stroke-width: 0.8; stroke-linejoin: miter; stroke-linecap: square"/>
   </g>
   <g id="patch_6">
    <path d="M 57.6 41.472 
L 414.72 41.472 
" style="fill: none; stroke: #000000; stroke-width: 0.8; stroke-linejoin: miter; stroke-linecap: square"/>
   </g>
   <g id="text_21">
    <!-- Learning Curves -->
    <g transform="translate(187.37625 35.472) scale(0.12 -0.12)">
     <defs>
      <path id="DejaVuSans-4c" d="M 628 4666 
L 1259 4666 
L 1259 531 
L 3531 531 
L 3531 0 
L 628 0 
L 628 4666 
z
" transform="scale(0.015625)"/>
      <path id="DejaVuSans-65" d="M 3597 1894 
L 3597 1613 
L 953 1613 
Q 991 1019 1311 708 
Q 1631 397 2203 397 
Q 2534 397 2845 478 
Q 3156 559 3463 722 
L 3463 178 
Q 3153 47 2828 -22 
Q 2503 -91 2169 -91 
Q 1331 -91 842 396 
Q 353 884 353 1716 
Q 353 2575 817 3079 
Q 1281 3584 2069 3584 
Q 2775 3584 3186 3129 
Q 3597 2675 3597 1894 
z
M 3022 2063 
Q 3016 2534 2758 2815 
Q 2500 3097 2075 3097 
Q 1594 3097 1305 2825 
Q 1016 2553 972 2059 
L 3022 2063 
z
" transform="scale(0.015625)"/>
      <path id="DejaVuSans-6e" d="M 3513 2113 
L 3513 0 
L 2938 0 
L 2938 2094 
Q 2938 2591 2744 2837 
Q 2550 3084 2163 3084 
Q 1697 3084 1428 2787 
Q 1159 2491 1159 1978 
L 1159 0 
L 581 0 
L 581 3500 
L 1159 3500 
L 1159 2956 
Q 1366 3272 1645 3428 
Q 1925 3584 2291 3584 
Q 2894 3584 3203 3211 
Q 3513 2838 3513 2113 
z
" transform="scale(0.015625)"/>
      <path id="DejaVuSans-69" d="M 603 3500 
L 1178 3500 
L 1178 0 
L 603 0 
L 603 3500 
z
M 603 4863 
L 1178 4863 
L 1178 4134 
L 603 4134 
L 603 4863 
z
" transform="scale(0.015625)"/>
      <path id="DejaVuSans-67" d="M 2906 1791 
Q 2906 2416 2648 2759 
Q 2391 3103 1925 3103 
Q 1463 3103 1205 2759 
Q 947 2416 947 1791 
Q 947 1169 1205 825 
Q 1463 481 1925 481 
Q 2391 481 2648 825 
Q 2906 1169 2906 1791 
z
M 3481 434 
Q 3481 -459 3084 -895 
Q 2688 -1331 1869 -1331 
Q 1566 -1331 1297 -1286 
Q 1028 -1241 775 -1147 
L 775 -588 
Q 1028 -725 1275 -790 
Q 1522 -856 1778 -856 
Q 2344 -856 2625 -561 
Q 2906 -266 2906 331 
L 2906 616 
Q 2728 306 2450 153 
Q 2172 0 1784 0 
Q 1141 0 747 490 
Q 353 981 353 1791 
Q 353 2603 747 3093 
Q 1141 3584 1784 3584 
Q 2172 3584 2450 3431 
Q 2728 3278 2906 2969 
L 2906 3500 
L 3481 3500 
L 3481 434 
z
" transform="scale(0.015625)"/>
      <path id="DejaVuSans-20" transform="scale(0.015625)"/>
      <path id="DejaVuSans-43" d="M 4122 4306 
L 4122 3641 
Q 3803 3938 3442 4084 
Q 3081 4231 2675 4231 
Q 1875 4231 1450 3742 
Q 1025 3253 1025 2328 
Q 1025 1406 1450 917 
Q 1875 428 2675 428 
Q 3081 428 3442 575 
Q 3803 722 4122 1019 
L 4122 359 
Q 3791 134 3420 21 
Q 3050 -91 2638 -91 
Q 1578 -91 968 557 
Q 359 1206 359 2328 
Q 359 3453 968 4101 
Q 1578 4750 2638 4750 
Q 3056 4750 3426 4639 
Q 3797 4528 4122 4306 
z
" transform="scale(0.015625)"/>
      <path id="DejaVuSans-76" d="M 191 3500 
L 800 3500 
L 1894 563 
L 2988 3500 
L 3597 3500 
L 2284 0 
L 1503 0 
L 191 3500 
z
" transform="scale(0.015625)"/>
     </defs>
     <use xlink:href="#DejaVuSans-4c"/>
     <use xlink:href="#DejaVuSans-65" x="53.962891"/>
     <use xlink:href="#DejaVuSans-61" x="115.486328"/>
     <use xlink:href="#DejaVuSans-72" x="176.765625"/>
     <use xlink:href="#DejaVuSans-6e" x="216.128906"/>
     <use xlink:href="#DejaVuSans-69" x="279.507812"/>
     <use xlink:href="#DejaVuSans-6e" x="307.291016"/>
     <use xlink:href="#DejaVuSans-67" x="370.669922"/>
     <use xlink:href="#DejaVuSans-20" x="434.146484"/>
     <use xlink:href="#DejaVuSans-43" x="465.933594"/>
     <use xlink:href="#DejaVuSans-75" x="535.757812"/>
     <use xlink:href="#DejaVuSans-72" x="599.136719"/>
     <use xlink:href="#DejaVuSans-76" x="640.25"/>
     <use xlink:href="#DejaVuSans-65" x="699.429688"/>
     <use xlink:href="#DejaVuSans-73" x="760.953125"/>
    </g>
   </g>
   <g id="legend_1">
    <g id="patch_7">
     <path d="M 214.18875 302.584 
L 407.72 302.584 
Q 409.72 302.584 409.72 300.584 
L 409.72 228.193375 
Q 409.72 226.193375 407.72 226.193375 
L 214.18875 226.193375 
Q 212.18875 226.193375 212.18875 228.193375 
L 212.18875 300.584 
Q 212.18875 302.584 214.18875 302.584 
z
" style="fill: #ffffff; opacity: 0.8; stroke: #cccccc; stroke-linejoin: miter"/>
    </g>
    <g id="line2d_24">
     <path d="M 216.18875 234.291812 
L 226.18875 234.291812 
L 236.18875 234.291812 
" style="fill: none; stroke: #1f77b4; stroke-width: 1.5; stroke-linecap: square"/>
    </g>
    <g id="text_22">
     <!-- Train Accuracy -->
     <g transform="translate(244.18875 237.791812) scale(0.1 -0.1)">
      <defs>
       <path id="DejaVuSans-54" d="M -19 4666 
L 3928 4666 
L 3928 4134 
L 2272 4134 
L 2272 0 
L 1638 0 
L 1638 4134 
L -19 4134 
L -19 4666 
z
" transform="scale(0.015625)"/>
      </defs>
      <use xlink:href="#DejaVuSans-54"/>
      <use xlink:href="#DejaVuSans-72" x="46.333984"/>
      <use xlink:href="#DejaVuSans-61" x="87.447266"/>
      <use xlink:href="#DejaVuSans-69" x="148.726562"/>
      <use xlink:href="#DejaVuSans-6e" x="176.509766"/>
      <use xlink:href="#DejaVuSans-20" x="239.888672"/>
      <use xlink:href="#DejaVuSans-41" x="271.675781"/>
      <use xlink:href="#DejaVuSans-63" x="338.333984"/>
      <use xlink:href="#DejaVuSans-63" x="393.314453"/>
      <use xlink:href="#DejaVuSans-75" x="448.294922"/>
      <use xlink:href="#DejaVuSans-72" x="511.673828"/>
      <use xlink:href="#DejaVuSans-61" x="552.787109"/>
      <use xlink:href="#DejaVuSans-63" x="614.066406"/>
      <use xlink:href="#DejaVuSans-79" x="669.046875"/>
     </g>
    </g>
    <g id="line2d_25">
     <path d="M 216.18875 248.969937 
L 226.18875 248.969937 
L 236.18875 248.969937 
" style="fill: none; stroke: #ff7f0e; stroke-width: 1.5; stroke-linecap: square"/>
    </g>
    <g id="text_23">
     <!-- Validation Accuracy -->
     <g transform="translate(244.18875 252.469937) scale(0.1 -0.1)">
      <defs>
       <path id="DejaVuSans-56" d="M 1831 0 
L 50 4666 
L 709 4666 
L 2188 738 
L 3669 4666 
L 4325 4666 
L 2547 0 
L 1831 0 
z
" transform="scale(0.015625)"/>
       <path id="DejaVuSans-6c" d="M 603 4863 
L 1178 4863 
L 1178 0 
L 603 0 
L 603 4863 
z
" transform="scale(0.015625)"/>
       <path id="DejaVuSans-64" d="M 2906 2969 
L 2906 4863 
L 3481 4863 
L 3481 0 
L 2906 0 
L 2906 525 
Q 2725 213 2448 61 
Q 2172 -91 1784 -91 
Q 1150 -91 751 415 
Q 353 922 353 1747 
Q 353 2572 751 3078 
Q 1150 3584 1784 3584 
Q 2172 3584 2448 3432 
Q 2725 3281 2906 2969 
z
M 947 1747 
Q 947 1113 1208 752 
Q 1469 391 1925 391 
Q 2381 391 2643 752 
Q 2906 1113 2906 1747 
Q 2906 2381 2643 2742 
Q 2381 3103 1925 3103 
Q 1469 3103 1208 2742 
Q 947 2381 947 1747 
z
" transform="scale(0.015625)"/>
       <path id="DejaVuSans-74" d="M 1172 4494 
L 1172 3500 
L 2356 3500 
L 2356 3053 
L 1172 3053 
L 1172 1153 
Q 1172 725 1289 603 
Q 1406 481 1766 481 
L 2356 481 
L 2356 0 
L 1766 0 
Q 1100 0 847 248 
Q 594 497 594 1153 
L 594 3053 
L 172 3053 
L 172 3500 
L 594 3500 
L 594 4494 
L 1172 4494 
z
" transform="scale(0.015625)"/>
      </defs>
      <use xlink:href="#DejaVuSans-56"/>
      <use xlink:href="#DejaVuSans-61" x="60.658203"/>
      <use xlink:href="#DejaVuSans-6c" x="121.9375"/>
      <use xlink:href="#DejaVuSans-69" x="149.720703"/>
      <use xlink:href="#DejaVuSans-64" x="177.503906"/>
      <use xlink:href="#DejaVuSans-61" x="240.980469"/>
      <use xlink:href="#DejaVuSans-74" x="302.259766"/>
      <use xlink:href="#DejaVuSans-69" x="341.46875"/>
      <use xlink:href="#DejaVuSans-6f" x="369.251953"/>
      <use xlink:href="#DejaVuSans-6e" x="430.433594"/>
      <use xlink:href="#DejaVuSans-20" x="493.8125"/>
      <use xlink:href="#DejaVuSans-41" x="525.599609"/>
      <use xlink:href="#DejaVuSans-63" x="592.257812"/>
      <use xlink:href="#DejaVuSans-63" x="647.238281"/>
      <use xlink:href="#DejaVuSans-75" x="702.21875"/>
      <use xlink:href="#DejaVuSans-72" x="765.597656"/>
      <use xlink:href="#DejaVuSans-61" x="806.710938"/>
      <use xlink:href="#DejaVuSans-63" x="867.990234"/>
      <use xlink:href="#DejaVuSans-79" x="922.970703"/>
     </g>
    </g>
    <g id="line2d_26">
     <path d="M 216.18875 263.648062 
L 226.18875 263.648062 
L 236.18875 263.648062 
" style="fill: none; stroke: #2ca02c; stroke-width: 1.5; stroke-linecap: square"/>
    </g>
    <g id="text_24">
     <!-- Robust Validation Accuracy -->
     <g transform="translate(244.18875 267.148062) scale(0.1 -0.1)">
      <defs>
       <path id="DejaVuSans-52" d="M 2841 2188 
Q 3044 2119 3236 1894 
Q 3428 1669 3622 1275 
L 4263 0 
L 3584 0 
L 2988 1197 
Q 2756 1666 2539 1819 
Q 2322 1972 1947 1972 
L 1259 1972 
L 1259 0 
L 628 0 
L 628 4666 
L 2053 4666 
Q 2853 4666 3247 4331 
Q 3641 3997 3641 3322 
Q 3641 2881 3436 2590 
Q 3231 2300 2841 2188 
z
M 1259 4147 
L 1259 2491 
L 2053 2491 
Q 2509 2491 2742 2702 
Q 2975 2913 2975 3322 
Q 2975 3731 2742 3939 
Q 2509 4147 2053 4147 
L 1259 4147 
z
" transform="scale(0.015625)"/>
       <path id="DejaVuSans-62" d="M 3116 1747 
Q 3116 2381 2855 2742 
Q 2594 3103 2138 3103 
Q 1681 3103 1420 2742 
Q 1159 2381 1159 1747 
Q 1159 1113 1420 752 
Q 1681 391 2138 391 
Q 2594 391 2855 752 
Q 3116 1113 3116 1747 
z
M 1159 2969 
Q 1341 3281 1617 3432 
Q 1894 3584 2278 3584 
Q 2916 3584 3314 3078 
Q 3713 2572 3713 1747 
Q 3713 922 3314 415 
Q 2916 -91 2278 -91 
Q 1894 -91 1617 61 
Q 1341 213 1159 525 
L 1159 0 
L 581 0 
L 581 4863 
L 1159 4863 
L 1159 2969 
z
" transform="scale(0.015625)"/>
      </defs>
      <use xlink:href="#DejaVuSans-52"/>
      <use xlink:href="#DejaVuSans-6f" x="64.982422"/>
      <use xlink:href="#DejaVuSans-62" x="126.164062"/>
      <use xlink:href="#DejaVuSans-75" x="189.640625"/>
      <use xlink:href="#DejaVuSans-73" x="253.019531"/>
      <use xlink:href="#DejaVuSans-74" x="305.119141"/>
      <use xlink:href="#DejaVuSans-20" x="344.328125"/>
      <use xlink:href="#DejaVuSans-56" x="376.115234"/>
      <use xlink:href="#DejaVuSans-61" x="436.773438"/>
      <use xlink:href="#DejaVuSans-6c" x="498.052734"/>
      <use xlink:href="#DejaVuSans-69" x="525.835938"/>
      <use xlink:href="#DejaVuSans-64" x="553.619141"/>
      <use xlink:href="#DejaVuSans-61" x="617.095703"/>
      <use xlink:href="#DejaVuSans-74" x="678.375"/>
      <use xlink:href="#DejaVuSans-69" x="717.583984"/>
      <use xlink:href="#DejaVuSans-6f" x="745.367188"/>
      <use xlink:href="#DejaVuSans-6e" x="806.548828"/>
      <use xlink:href="#DejaVuSans-20" x="869.927734"/>
      <use xlink:href="#DejaVuSans-41" x="901.714844"/>
      <use xlink:href="#DejaVuSans-63" x="968.373047"/>
      <use xlink:href="#DejaVuSans-63" x="1023.353516"/>
      <use xlink:href="#DejaVuSans-75" x="1078.333984"/>
      <use xlink:href="#DejaVuSans-72" x="1141.712891"/>
      <use xlink:href="#DejaVuSans-61" x="1182.826172"/>
      <use xlink:href="#DejaVuSans-63" x="1244.105469"/>
      <use xlink:href="#DejaVuSans-79" x="1299.085938"/>
     </g>
    </g>
    <g id="line2d_27">
     <path d="M 216.18875 278.326188 
L 226.18875 278.326188 
L 236.18875 278.326188 
" style="fill: none; stroke: #d62728; stroke-width: 1.5; stroke-linecap: square"/>
    </g>
    <g id="text_25">
     <!-- SWA Validation Accuracy -->
     <g transform="translate(244.18875 281.826188) scale(0.1 -0.1)">
      <defs>
       <path id="DejaVuSans-53" d="M 3425 4513 
L 3425 3897 
Q 3066 4069 2747 4153 
Q 2428 4238 2131 4238 
Q 1616 4238 1336 4038 
Q 1056 3838 1056 3469 
Q 1056 3159 1242 3001 
Q 1428 2844 1947 2747 
L 2328 2669 
Q 3034 2534 3370 2195 
Q 3706 1856 3706 1288 
Q 3706 609 3251 259 
Q 2797 -91 1919 -91 
Q 1588 -91 1214 -16 
Q 841 59 441 206 
L 441 856 
Q 825 641 1194 531 
Q 1563 422 1919 422 
Q 2459 422 2753 634 
Q 3047 847 3047 1241 
Q 3047 1584 2836 1778 
Q 2625 1972 2144 2069 
L 1759 2144 
Q 1053 2284 737 2584 
Q 422 2884 422 3419 
Q 422 4038 858 4394 
Q 1294 4750 2059 4750 
Q 2388 4750 2728 4690 
Q 3069 4631 3425 4513 
z
" transform="scale(0.015625)"/>
       <path id="DejaVuSans-57" d="M 213 4666 
L 850 4666 
L 1831 722 
L 2809 4666 
L 3519 4666 
L 4500 722 
L 5478 4666 
L 6119 4666 
L 4947 0 
L 4153 0 
L 3169 4050 
L 2175 0 
L 1381 0 
L 213 4666 
z
" transform="scale(0.015625)"/>
      </defs>
      <use xlink:href="#DejaVuSans-53"/>
      <use xlink:href="#DejaVuSans-57" x="63.476562"/>
      <use xlink:href="#DejaVuSans-41" x="156.853516"/>
      <use xlink:href="#DejaVuSans-20" x="225.261719"/>
      <use xlink:href="#DejaVuSans-56" x="257.048828"/>
      <use xlink:href="#DejaVuSans-61" x="317.707031"/>
      <use xlink:href="#DejaVuSans-6c" x="378.986328"/>
      <use xlink:href="#DejaVuSans-69" x="406.769531"/>
      <use xlink:href="#DejaVuSans-64" x="434.552734"/>
      <use xlink:href="#DejaVuSans-61" x="498.029297"/>
      <use xlink:href="#DejaVuSans-74" x="559.308594"/>
      <use xlink:href="#DejaVuSans-69" x="598.517578"/>
      <use xlink:href="#DejaVuSans-6f" x="626.300781"/>
      <use xlink:href="#DejaVuSans-6e" x="687.482422"/>
      <use xlink:href="#DejaVuSans-20" x="750.861328"/>
      <use xlink:href="#DejaVuSans-41" x="782.648438"/>
      <use xlink:href="#DejaVuSans-63" x="849.306641"/>
      <use xlink:href="#DejaVuSans-63" x="904.287109"/>
      <use xlink:href="#DejaVuSans-75" x="959.267578"/>
      <use xlink:href="#DejaVuSans-72" x="1022.646484"/>
      <use xlink:href="#DejaVuSans-61" x="1063.759766"/>
      <use xlink:href="#DejaVuSans-63" x="1125.039062"/>
      <use xlink:href="#DejaVuSans-79" x="1180.019531"/>
     </g>
    </g>
    <g id="line2d_28">
     <path d="M 216.18875 293.004312 
L 226.18875 293.004312 
L 236.18875 293.004312 
" style="fill: none; stroke: #9467bd; stroke-width: 1.5; stroke-linecap: square"/>
    </g>
    <g id="text_26">
     <!-- SWA Robust Validation Accuracy -->
     <g transform="translate(244.18875 296.504312) scale(0.1 -0.1)">
      <use xlink:href="#DejaVuSans-53"/>
      <use xlink:href="#DejaVuSans-57" x="63.476562"/>
      <use xlink:href="#DejaVuSans-41" x="156.853516"/>
      <use xlink:href="#DejaVuSans-20" x="225.261719"/>
      <use xlink:href="#DejaVuSans-52" x="257.048828"/>
      <use xlink:href="#DejaVuSans-6f" x="322.03125"/>
      <use xlink:href="#DejaVuSans-62" x="383.212891"/>
      <use xlink:href="#DejaVuSans-75" x="446.689453"/>
      <use xlink:href="#DejaVuSans-73" x="510.068359"/>
      <use xlink:href="#DejaVuSans-74" x="562.167969"/>
      <use xlink:href="#DejaVuSans-20" x="601.376953"/>
      <use xlink:href="#DejaVuSans-56" x="633.164062"/>
      <use xlink:href="#DejaVuSans-61" x="693.822266"/>
      <use xlink:href="#DejaVuSans-6c" x="755.101562"/>
      <use xlink:href="#DejaVuSans-69" x="782.884766"/>
      <use xlink:href="#DejaVuSans-64" x="810.667969"/>
      <use xlink:href="#DejaVuSans-61" x="874.144531"/>
      <use xlink:href="#DejaVuSans-74" x="935.423828"/>
      <use xlink:href="#DejaVuSans-69" x="974.632812"/>
      <use xlink:href="#DejaVuSans-6f" x="1002.416016"/>
      <use xlink:href="#DejaVuSans-6e" x="1063.597656"/>
      <use xlink:href="#DejaVuSans-20" x="1126.976562"/>
      <use xlink:href="#DejaVuSans-41" x="1158.763672"/>
      <use xlink:href="#DejaVuSans-63" x="1225.421875"/>
      <use xlink:href="#DejaVuSans-63" x="1280.402344"/>
      <use xlink:href="#DejaVuSans-75" x="1335.382812"/>
      <use xlink:href="#DejaVuSans-72" x="1398.761719"/>
      <use xlink:href="#DejaVuSans-61" x="1439.875"/>
      <use xlink:href="#DejaVuSans-63" x="1501.154297"/>
      <use xlink:href="#DejaVuSans-79" x="1556.134766"/>
     </g>
    </g>
   </g>
  </g>
 </g>
 <defs>
  <clipPath id="p979f2311ae">
   <rect x="57.6" y="41.472" width="357.12" height="266.112"/>
  </clipPath>
 </defs>
</svg>
