<?xml version="1.0" encoding="utf-8" standalone="no"?>
<!DOCTYPE svg PUBLIC "-//W3C//DTD SVG 1.1//EN"
  "http://www.w3.org/Graphics/SVG/1.1/DTD/svg11.dtd">
<svg xmlns:xlink="http://www.w3.org/1999/xlink" width="460.8pt" height="345.6pt" viewBox="0 0 460.8 345.6" xmlns="http://www.w3.org/2000/svg" version="1.1">
 <metadata>
  <rdf:RDF xmlns:dc="http://purl.org/dc/elements/1.1/" xmlns:cc="http://creativecommons.org/ns#" xmlns:rdf="http://www.w3.org/1999/02/22-rdf-syntax-ns#">
   <cc:Work>
    <dc:type rdf:resource="http://purl.org/dc/dcmitype/StillImage"/>
    <dc:date>2025-03-09T21:34:39.057955</dc:date>
    <dc:format>image/svg+xml</dc:format>
    <dc:creator>
     <cc:Agent>
      <dc:title>Matplotlib v3.9.1, https://matplotlib.org/</dc:title>
     </cc:Agent>
    </dc:creator>
   </cc:Work>
  </rdf:RDF>
 </metadata>
 <defs>
  <style type="text/css">*{stroke-linejoin: round; stroke-linecap: butt}</style>
 </defs>
 <g id="figure_1">
  <g id="patch_1">
   <path d="M 0 345.6 
L 460.8 345.6 
L 460.8 0 
L 0 0 
z
" style="fill: #ffffff"/>
  </g>
  <g id="axes_1">
   <g id="patch_2">
    <path d="M 57.6 307.584 
L 414.72 307.584 
L 414.72 41.472 
L 57.6 41.472 
z
" style="fill: #ffffff"/>
   </g>
   <g id="matplotlib.axis_1">
    <g id="xtick_1">
     <g id="line2d_1">
      <defs>
       <path id="md32554f22a" d="M 0 0 
L 0 3.5 
" style="stroke: #000000; stroke-width: 0.8"/>
      </defs>
      <g>
       <use xlink:href="#md32554f22a" x="73.832727" y="307.584" style="stroke: #000000; stroke-width: 0.8"/>
      </g>
     </g>
     <g id="text_1">
      <!-- 1 -->
      <g transform="translate(70.651477 322.182437) scale(0.1 -0.1)">
       <defs>
        <path id="DejaVuSans-31" d="M 794 531 
L 1825 531 
L 1825 4091 
L 703 3866 
L 703 4441 
L 1819 4666 
L 2450 4666 
L 2450 531 
L 3481 531 
L 3481 0 
L 794 0 
L 794 531 
z
" transform="scale(0.015625)"/>
       </defs>
       <use xlink:href="#DejaVuSans-31"/>
      </g>
     </g>
    </g>
    <g id="xtick_2">
     <g id="line2d_2">
      <g>
       <use xlink:href="#md32554f22a" x="109.664165" y="307.584" style="stroke: #000000; stroke-width: 0.8"/>
      </g>
     </g>
     <g id="text_2">
      <!-- 34 -->
      <g transform="translate(103.301665 322.182437) scale(0.1 -0.1)">
       <defs>
        <path id="DejaVuSans-33" d="M 2597 2516 
Q 3050 2419 3304 2112 
Q 3559 1806 3559 1356 
Q 3559 666 3084 287 
Q 2609 -91 1734 -91 
Q 1441 -91 1130 -33 
Q 819 25 488 141 
L 488 750 
Q 750 597 1062 519 
Q 1375 441 1716 441 
Q 2309 441 2620 675 
Q 2931 909 2931 1356 
Q 2931 1769 2642 2001 
Q 2353 2234 1838 2234 
L 1294 2234 
L 1294 2753 
L 1863 2753 
Q 2328 2753 2575 2939 
Q 2822 3125 2822 3475 
Q 2822 3834 2567 4026 
Q 2313 4219 1838 4219 
Q 1578 4219 1281 4162 
Q 984 4106 628 3988 
L 628 4550 
Q 988 4650 1302 4700 
Q 1616 4750 1894 4750 
Q 2613 4750 3031 4423 
Q 3450 4097 3450 3541 
Q 3450 3153 3228 2886 
Q 3006 2619 2597 2516 
z
" transform="scale(0.015625)"/>
        <path id="DejaVuSans-34" d="M 2419 4116 
L 825 1625 
L 2419 1625 
L 2419 4116 
z
M 2253 4666 
L 3047 4666 
L 3047 1625 
L 3713 1625 
L 3713 1100 
L 3047 1100 
L 3047 0 
L 2419 0 
L 2419 1100 
L 313 1100 
L 313 1709 
L 2253 4666 
z
" transform="scale(0.015625)"/>
       </defs>
       <use xlink:href="#DejaVuSans-33"/>
       <use xlink:href="#DejaVuSans-34" x="63.623047"/>
      </g>
     </g>
    </g>
    <g id="xtick_3">
     <g id="line2d_3">
      <g>
       <use xlink:href="#md32554f22a" x="145.495604" y="307.584" style="stroke: #000000; stroke-width: 0.8"/>
      </g>
     </g>
     <g id="text_3">
      <!-- 67 -->
      <g transform="translate(139.133104 322.182437) scale(0.1 -0.1)">
       <defs>
        <path id="DejaVuSans-36" d="M 2113 2584 
Q 1688 2584 1439 2293 
Q 1191 2003 1191 1497 
Q 1191 994 1439 701 
Q 1688 409 2113 409 
Q 2538 409 2786 701 
Q 3034 994 3034 1497 
Q 3034 2003 2786 2293 
Q 2538 2584 2113 2584 
z
M 3366 4563 
L 3366 3988 
Q 3128 4100 2886 4159 
Q 2644 4219 2406 4219 
Q 1781 4219 1451 3797 
Q 1122 3375 1075 2522 
Q 1259 2794 1537 2939 
Q 1816 3084 2150 3084 
Q 2853 3084 3261 2657 
Q 3669 2231 3669 1497 
Q 3669 778 3244 343 
Q 2819 -91 2113 -91 
Q 1303 -91 875 529 
Q 447 1150 447 2328 
Q 447 3434 972 4092 
Q 1497 4750 2381 4750 
Q 2619 4750 2861 4703 
Q 3103 4656 3366 4563 
z
" transform="scale(0.015625)"/>
        <path id="DejaVuSans-37" d="M 525 4666 
L 3525 4666 
L 3525 4397 
L 1831 0 
L 1172 0 
L 2766 4134 
L 525 4134 
L 525 4666 
z
" transform="scale(0.015625)"/>
       </defs>
       <use xlink:href="#DejaVuSans-36"/>
       <use xlink:href="#DejaVuSans-37" x="63.623047"/>
      </g>
     </g>
    </g>
    <g id="xtick_4">
     <g id="line2d_4">
      <g>
       <use xlink:href="#md32554f22a" x="181.327042" y="307.584" style="stroke: #000000; stroke-width: 0.8"/>
      </g>
     </g>
     <g id="text_4">
      <!-- 100 -->
      <g transform="translate(171.783292 322.182437) scale(0.1 -0.1)">
       <defs>
        <path id="DejaVuSans-30" d="M 2034 4250 
Q 1547 4250 1301 3770 
Q 1056 3291 1056 2328 
Q 1056 1369 1301 889 
Q 1547 409 2034 409 
Q 2525 409 2770 889 
Q 3016 1369 3016 2328 
Q 3016 3291 2770 3770 
Q 2525 4250 2034 4250 
z
M 2034 4750 
Q 2819 4750 3233 4129 
Q 3647 3509 3647 2328 
Q 3647 1150 3233 529 
Q 2819 -91 2034 -91 
Q 1250 -91 836 529 
Q 422 1150 422 2328 
Q 422 3509 836 4129 
Q 1250 4750 2034 4750 
z
" transform="scale(0.015625)"/>
       </defs>
       <use xlink:href="#DejaVuSans-31"/>
       <use xlink:href="#DejaVuSans-30" x="63.623047"/>
       <use xlink:href="#DejaVuSans-30" x="127.246094"/>
      </g>
     </g>
    </g>
    <g id="xtick_5">
     <g id="line2d_5">
      <g>
       <use xlink:href="#md32554f22a" x="217.15848" y="307.584" style="stroke: #000000; stroke-width: 0.8"/>
      </g>
     </g>
     <g id="text_5">
      <!-- 133 -->
      <g transform="translate(207.61473 322.182437) scale(0.1 -0.1)">
       <use xlink:href="#DejaVuSans-31"/>
       <use xlink:href="#DejaVuSans-33" x="63.623047"/>
       <use xlink:href="#DejaVuSans-33" x="127.246094"/>
      </g>
     </g>
    </g>
    <g id="xtick_6">
     <g id="line2d_6">
      <g>
       <use xlink:href="#md32554f22a" x="254.075719" y="307.584" style="stroke: #000000; stroke-width: 0.8"/>
      </g>
     </g>
     <g id="text_6">
      <!-- 167 -->
      <g transform="translate(244.531969 322.182437) scale(0.1 -0.1)">
       <use xlink:href="#DejaVuSans-31"/>
       <use xlink:href="#DejaVuSans-36" x="63.623047"/>
       <use xlink:href="#DejaVuSans-37" x="127.246094"/>
      </g>
     </g>
    </g>
    <g id="xtick_7">
     <g id="line2d_7">
      <g>
       <use xlink:href="#md32554f22a" x="289.907157" y="307.584" style="stroke: #000000; stroke-width: 0.8"/>
      </g>
     </g>
     <g id="text_7">
      <!-- 200 -->
      <g transform="translate(280.363407 322.182437) scale(0.1 -0.1)">
       <defs>
        <path id="DejaVuSans-32" d="M 1228 531 
L 3431 531 
L 3431 0 
L 469 0 
L 469 531 
Q 828 903 1448 1529 
Q 2069 2156 2228 2338 
Q 2531 2678 2651 2914 
Q 2772 3150 2772 3378 
Q 2772 3750 2511 3984 
Q 2250 4219 1831 4219 
Q 1534 4219 1204 4116 
Q 875 4013 500 3803 
L 500 4441 
Q 881 4594 1212 4672 
Q 1544 4750 1819 4750 
Q 2544 4750 2975 4387 
Q 3406 4025 3406 3419 
Q 3406 3131 3298 2873 
Q 3191 2616 2906 2266 
Q 2828 2175 2409 1742 
Q 1991 1309 1228 531 
z
" transform="scale(0.015625)"/>
       </defs>
       <use xlink:href="#DejaVuSans-32"/>
       <use xlink:href="#DejaVuSans-30" x="63.623047"/>
       <use xlink:href="#DejaVuSans-30" x="127.246094"/>
      </g>
     </g>
    </g>
    <g id="xtick_8">
     <g id="line2d_8">
      <g>
       <use xlink:href="#md32554f22a" x="325.738595" y="307.584" style="stroke: #000000; stroke-width: 0.8"/>
      </g>
     </g>
     <g id="text_8">
      <!-- 233 -->
      <g transform="translate(316.194845 322.182437) scale(0.1 -0.1)">
       <use xlink:href="#DejaVuSans-32"/>
       <use xlink:href="#DejaVuSans-33" x="63.623047"/>
       <use xlink:href="#DejaVuSans-33" x="127.246094"/>
      </g>
     </g>
    </g>
    <g id="xtick_9">
     <g id="line2d_9">
      <g>
       <use xlink:href="#md32554f22a" x="361.570033" y="307.584" style="stroke: #000000; stroke-width: 0.8"/>
      </g>
     </g>
     <g id="text_9">
      <!-- 266 -->
      <g transform="translate(352.026283 322.182437) scale(0.1 -0.1)">
       <use xlink:href="#DejaVuSans-32"/>
       <use xlink:href="#DejaVuSans-36" x="63.623047"/>
       <use xlink:href="#DejaVuSans-36" x="127.246094"/>
      </g>
     </g>
    </g>
    <g id="xtick_10">
     <g id="line2d_10">
      <g>
       <use xlink:href="#md32554f22a" x="398.487273" y="307.584" style="stroke: #000000; stroke-width: 0.8"/>
      </g>
     </g>
     <g id="text_10">
      <!-- 300 -->
      <g transform="translate(388.943523 322.182437) scale(0.1 -0.1)">
       <use xlink:href="#DejaVuSans-33"/>
       <use xlink:href="#DejaVuSans-30" x="63.623047"/>
       <use xlink:href="#DejaVuSans-30" x="127.246094"/>
      </g>
     </g>
    </g>
    <g id="text_11">
     <!-- Epochs -->
     <g transform="translate(218.244375 335.860562) scale(0.1 -0.1)">
      <defs>
       <path id="DejaVuSans-45" d="M 628 4666 
L 3578 4666 
L 3578 4134 
L 1259 4134 
L 1259 2753 
L 3481 2753 
L 3481 2222 
L 1259 2222 
L 1259 531 
L 3634 531 
L 3634 0 
L 628 0 
L 628 4666 
z
" transform="scale(0.015625)"/>
       <path id="DejaVuSans-70" d="M 1159 525 
L 1159 -1331 
L 581 -1331 
L 581 3500 
L 1159 3500 
L 1159 2969 
Q 1341 3281 1617 3432 
Q 1894 3584 2278 3584 
Q 2916 3584 3314 3078 
Q 3713 2572 3713 1747 
Q 3713 922 3314 415 
Q 2916 -91 2278 -91 
Q 1894 -91 1617 61 
Q 1341 213 1159 525 
z
M 3116 1747 
Q 3116 2381 2855 2742 
Q 2594 3103 2138 3103 
Q 1681 3103 1420 2742 
Q 1159 2381 1159 1747 
Q 1159 1113 1420 752 
Q 1681 391 2138 391 
Q 2594 391 2855 752 
Q 3116 1113 3116 1747 
z
" transform="scale(0.015625)"/>
       <path id="DejaVuSans-6f" d="M 1959 3097 
Q 1497 3097 1228 2736 
Q 959 2375 959 1747 
Q 959 1119 1226 758 
Q 1494 397 1959 397 
Q 2419 397 2687 759 
Q 2956 1122 2956 1747 
Q 2956 2369 2687 2733 
Q 2419 3097 1959 3097 
z
M 1959 3584 
Q 2709 3584 3137 3096 
Q 3566 2609 3566 1747 
Q 3566 888 3137 398 
Q 2709 -91 1959 -91 
Q 1206 -91 779 398 
Q 353 888 353 1747 
Q 353 2609 779 3096 
Q 1206 3584 1959 3584 
z
" transform="scale(0.015625)"/>
       <path id="DejaVuSans-63" d="M 3122 3366 
L 3122 2828 
Q 2878 2963 2633 3030 
Q 2388 3097 2138 3097 
Q 1578 3097 1268 2742 
Q 959 2388 959 1747 
Q 959 1106 1268 751 
Q 1578 397 2138 397 
Q 2388 397 2633 464 
Q 2878 531 3122 666 
L 3122 134 
Q 2881 22 2623 -34 
Q 2366 -91 2075 -91 
Q 1284 -91 818 406 
Q 353 903 353 1747 
Q 353 2603 823 3093 
Q 1294 3584 2113 3584 
Q 2378 3584 2631 3529 
Q 2884 3475 3122 3366 
z
" transform="scale(0.015625)"/>
       <path id="DejaVuSans-68" d="M 3513 2113 
L 3513 0 
L 2938 0 
L 2938 2094 
Q 2938 2591 2744 2837 
Q 2550 3084 2163 3084 
Q 1697 3084 1428 2787 
Q 1159 2491 1159 1978 
L 1159 0 
L 581 0 
L 581 4863 
L 1159 4863 
L 1159 2956 
Q 1366 3272 1645 3428 
Q 1925 3584 2291 3584 
Q 2894 3584 3203 3211 
Q 3513 2838 3513 2113 
z
" transform="scale(0.015625)"/>
       <path id="DejaVuSans-73" d="M 2834 3397 
L 2834 2853 
Q 2591 2978 2328 3040 
Q 2066 3103 1784 3103 
Q 1356 3103 1142 2972 
Q 928 2841 928 2578 
Q 928 2378 1081 2264 
Q 1234 2150 1697 2047 
L 1894 2003 
Q 2506 1872 2764 1633 
Q 3022 1394 3022 966 
Q 3022 478 2636 193 
Q 2250 -91 1575 -91 
Q 1294 -91 989 -36 
Q 684 19 347 128 
L 347 722 
Q 666 556 975 473 
Q 1284 391 1588 391 
Q 1994 391 2212 530 
Q 2431 669 2431 922 
Q 2431 1156 2273 1281 
Q 2116 1406 1581 1522 
L 1381 1569 
Q 847 1681 609 1914 
Q 372 2147 372 2553 
Q 372 3047 722 3315 
Q 1072 3584 1716 3584 
Q 2034 3584 2315 3537 
Q 2597 3491 2834 3397 
z
" transform="scale(0.015625)"/>
      </defs>
      <use xlink:href="#DejaVuSans-45"/>
      <use xlink:href="#DejaVuSans-70" x="63.183594"/>
      <use xlink:href="#DejaVuSans-6f" x="126.660156"/>
      <use xlink:href="#DejaVuSans-63" x="187.841797"/>
      <use xlink:href="#DejaVuSans-68" x="242.822266"/>
      <use xlink:href="#DejaVuSans-73" x="306.201172"/>
     </g>
    </g>
   </g>
   <g id="matplotlib.axis_2">
    <g id="ytick_1">
     <g id="line2d_11">
      <defs>
       <path id="m0be1e043b9" d="M 0 0 
L -3.5 0 
" style="stroke: #000000; stroke-width: 0.8"/>
      </defs>
      <g>
       <use xlink:href="#m0be1e043b9" x="57.6" y="266.542847" style="stroke: #000000; stroke-width: 0.8"/>
      </g>
     </g>
     <g id="text_12">
      <!-- 20 -->
      <g transform="translate(37.875 270.342066) scale(0.1 -0.1)">
       <use xlink:href="#DejaVuSans-32"/>
       <use xlink:href="#DejaVuSans-30" x="63.623047"/>
      </g>
     </g>
    </g>
    <g id="ytick_2">
     <g id="line2d_12">
      <g>
       <use xlink:href="#m0be1e043b9" x="57.6" y="213.280826" style="stroke: #000000; stroke-width: 0.8"/>
      </g>
     </g>
     <g id="text_13">
      <!-- 40 -->
      <g transform="translate(37.875 217.080045) scale(0.1 -0.1)">
       <use xlink:href="#DejaVuSans-34"/>
       <use xlink:href="#DejaVuSans-30" x="63.623047"/>
      </g>
     </g>
    </g>
    <g id="ytick_3">
     <g id="line2d_13">
      <g>
       <use xlink:href="#m0be1e043b9" x="57.6" y="160.018806" style="stroke: #000000; stroke-width: 0.8"/>
      </g>
     </g>
     <g id="text_14">
      <!-- 60 -->
      <g transform="translate(37.875 163.818025) scale(0.1 -0.1)">
       <use xlink:href="#DejaVuSans-36"/>
       <use xlink:href="#DejaVuSans-30" x="63.623047"/>
      </g>
     </g>
    </g>
    <g id="ytick_4">
     <g id="line2d_14">
      <g>
       <use xlink:href="#m0be1e043b9" x="57.6" y="106.756785" style="stroke: #000000; stroke-width: 0.8"/>
      </g>
     </g>
     <g id="text_15">
      <!-- 80 -->
      <g transform="translate(37.875 110.556004) scale(0.1 -0.1)">
       <defs>
        <path id="DejaVuSans-38" d="M 2034 2216 
Q 1584 2216 1326 1975 
Q 1069 1734 1069 1313 
Q 1069 891 1326 650 
Q 1584 409 2034 409 
Q 2484 409 2743 651 
Q 3003 894 3003 1313 
Q 3003 1734 2745 1975 
Q 2488 2216 2034 2216 
z
M 1403 2484 
Q 997 2584 770 2862 
Q 544 3141 544 3541 
Q 544 4100 942 4425 
Q 1341 4750 2034 4750 
Q 2731 4750 3128 4425 
Q 3525 4100 3525 3541 
Q 3525 3141 3298 2862 
Q 3072 2584 2669 2484 
Q 3125 2378 3379 2068 
Q 3634 1759 3634 1313 
Q 3634 634 3220 271 
Q 2806 -91 2034 -91 
Q 1263 -91 848 271 
Q 434 634 434 1313 
Q 434 1759 690 2068 
Q 947 2378 1403 2484 
z
M 1172 3481 
Q 1172 3119 1398 2916 
Q 1625 2713 2034 2713 
Q 2441 2713 2670 2916 
Q 2900 3119 2900 3481 
Q 2900 3844 2670 4047 
Q 2441 4250 2034 4250 
Q 1625 4250 1398 4047 
Q 1172 3844 1172 3481 
z
" transform="scale(0.015625)"/>
       </defs>
       <use xlink:href="#DejaVuSans-38"/>
       <use xlink:href="#DejaVuSans-30" x="63.623047"/>
      </g>
     </g>
    </g>
    <g id="ytick_5">
     <g id="line2d_15">
      <g>
       <use xlink:href="#m0be1e043b9" x="57.6" y="53.494765" style="stroke: #000000; stroke-width: 0.8"/>
      </g>
     </g>
     <g id="text_16">
      <!-- 100 -->
      <g transform="translate(31.5125 57.293983) scale(0.1 -0.1)">
       <use xlink:href="#DejaVuSans-31"/>
       <use xlink:href="#DejaVuSans-30" x="63.623047"/>
       <use xlink:href="#DejaVuSans-30" x="127.246094"/>
      </g>
     </g>
    </g>
    <g id="text_17">
     <!-- Accuracy -->
     <g transform="translate(25.432812 197.356125) rotate(-90) scale(0.1 -0.1)">
      <defs>
       <path id="DejaVuSans-41" d="M 2188 4044 
L 1331 1722 
L 3047 1722 
L 2188 4044 
z
M 1831 4666 
L 2547 4666 
L 4325 0 
L 3669 0 
L 3244 1197 
L 1141 1197 
L 716 0 
L 50 0 
L 1831 4666 
z
" transform="scale(0.015625)"/>
       <path id="DejaVuSans-75" d="M 544 1381 
L 544 3500 
L 1119 3500 
L 1119 1403 
Q 1119 906 1312 657 
Q 1506 409 1894 409 
Q 2359 409 2629 706 
Q 2900 1003 2900 1516 
L 2900 3500 
L 3475 3500 
L 3475 0 
L 2900 0 
L 2900 538 
Q 2691 219 2414 64 
Q 2138 -91 1772 -91 
Q 1169 -91 856 284 
Q 544 659 544 1381 
z
M 1991 3584 
L 1991 3584 
z
" transform="scale(0.015625)"/>
       <path id="DejaVuSans-72" d="M 2631 2963 
Q 2534 3019 2420 3045 
Q 2306 3072 2169 3072 
Q 1681 3072 1420 2755 
Q 1159 2438 1159 1844 
L 1159 0 
L 581 0 
L 581 3500 
L 1159 3500 
L 1159 2956 
Q 1341 3275 1631 3429 
Q 1922 3584 2338 3584 
Q 2397 3584 2469 3576 
Q 2541 3569 2628 3553 
L 2631 2963 
z
" transform="scale(0.015625)"/>
       <path id="DejaVuSans-61" d="M 2194 1759 
Q 1497 1759 1228 1600 
Q 959 1441 959 1056 
Q 959 750 1161 570 
Q 1363 391 1709 391 
Q 2188 391 2477 730 
Q 2766 1069 2766 1631 
L 2766 1759 
L 2194 1759 
z
M 3341 1997 
L 3341 0 
L 2766 0 
L 2766 531 
Q 2569 213 2275 61 
Q 1981 -91 1556 -91 
Q 1019 -91 701 211 
Q 384 513 384 1019 
Q 384 1609 779 1909 
Q 1175 2209 1959 2209 
L 2766 2209 
L 2766 2266 
Q 2766 2663 2505 2880 
Q 2244 3097 1772 3097 
Q 1472 3097 1187 3025 
Q 903 2953 641 2809 
L 641 3341 
Q 956 3463 1253 3523 
Q 1550 3584 1831 3584 
Q 2591 3584 2966 3190 
Q 3341 2797 3341 1997 
z
" transform="scale(0.015625)"/>
       <path id="DejaVuSans-79" d="M 2059 -325 
Q 1816 -950 1584 -1140 
Q 1353 -1331 966 -1331 
L 506 -1331 
L 506 -850 
L 844 -850 
Q 1081 -850 1212 -737 
Q 1344 -625 1503 -206 
L 1606 56 
L 191 3500 
L 800 3500 
L 1894 763 
L 2988 3500 
L 3597 3500 
L 2059 -325 
z
" transform="scale(0.015625)"/>
      </defs>
      <use xlink:href="#DejaVuSans-41"/>
      <use xlink:href="#DejaVuSans-63" x="66.658203"/>
      <use xlink:href="#DejaVuSans-63" x="121.638672"/>
      <use xlink:href="#DejaVuSans-75" x="176.619141"/>
      <use xlink:href="#DejaVuSans-72" x="239.998047"/>
      <use xlink:href="#DejaVuSans-61" x="281.111328"/>
      <use xlink:href="#DejaVuSans-63" x="342.390625"/>
      <use xlink:href="#DejaVuSans-79" x="397.371094"/>
     </g>
    </g>
   </g>
   <g id="line2d_16">
    <path d="M 73.832727 292.281718 
L 74.918528 261.709318 
L 76.00433 237.275367 
L 77.090131 218.993178 
L 78.175932 204.046523 
L 79.261733 191.516633 
L 80.347534 181.330272 
L 82.519137 163.793751 
L 84.690739 149.439637 
L 85.77654 143.367767 
L 86.862341 135.504961 
L 89.033943 124.712744 
L 90.119745 120.571622 
L 91.205546 115.052345 
L 92.291347 111.743442 
L 93.377148 109.253442 
L 94.462949 107.535742 
L 95.54875 146.483595 
L 97.720353 141.709986 
L 99.891955 132.994988 
L 100.977756 128.434428 
L 102.063557 125.34523 
L 104.23516 118.061649 
L 105.320961 115.145553 
L 109.664165 101.810075 
L 110.749967 97.822081 
L 111.835768 94.985879 
L 112.921569 91.364061 
L 114.00737 88.487912 
L 116.178972 82.356122 
L 117.264773 79.373449 
L 118.350575 77.50262 
L 119.436376 74.373477 
L 122.693779 66.643826 
L 123.77958 65.818265 
L 124.865382 63.667811 
L 125.951183 61.963426 
L 127.036984 60.512036 
L 130.294387 57.789015 
L 133.551791 56.104604 
L 137.894995 55.505406 
L 138.980797 87.116415 
L 140.066598 91.690291 
L 141.152399 90.085773 
L 142.2382 89.712939 
L 144.409802 86.710292 
L 146.581405 83.028555 
L 147.667206 82.882085 
L 149.838808 80.059197 
L 150.924609 78.534572 
L 152.01041 77.316203 
L 153.096212 76.82353 
L 154.182013 75.225669 
L 158.525217 70.984681 
L 159.611019 69.50666 
L 160.69682 69.173772 
L 161.782621 68.361526 
L 162.868422 67.149815 
L 163.954223 67.023318 
L 167.211627 64.247035 
L 168.297428 64.120538 
L 169.383229 63.061955 
L 170.46903 62.66249 
L 171.554831 61.344255 
L 172.640632 61.390859 
L 173.726434 60.804977 
L 174.812235 59.992731 
L 175.898036 59.939469 
L 176.983837 59.213774 
L 179.155439 58.255058 
L 180.24124 57.968774 
L 182.412843 56.883561 
L 183.498644 56.763721 
L 184.584445 56.064657 
L 185.670246 55.991422 
L 186.756047 55.318989 
L 187.841849 55.092625 
L 188.92765 55.032706 
L 190.013451 54.566663 
L 191.099252 54.793026 
L 195.442457 53.960807 
L 206.300468 53.667866 
L 224.759088 53.574658 
L 225.844889 63.867543 
L 226.93069 69.306927 
L 228.016491 70.199066 
L 229.102292 70.318905 
L 230.188094 69.926098 
L 231.273895 68.701072 
L 232.359696 69.100537 
L 233.445497 68.248344 
L 234.531298 68.554601 
L 235.617099 68.288291 
L 236.702901 66.943425 
L 237.788702 67.029976 
L 238.874503 66.663799 
L 239.960304 66.084575 
L 241.046105 65.904816 
L 242.131906 65.165805 
L 243.217708 65.232382 
L 244.303509 64.899495 
L 245.38931 64.693105 
L 246.475111 64.666474 
L 247.560912 63.947436 
L 249.732514 63.58126 
L 250.818316 63.761019 
L 251.904117 62.808961 
L 254.075719 62.442784 
L 255.16152 62.429469 
L 256.247321 62.243052 
L 257.333123 62.389522 
L 259.504725 61.53733 
L 263.847929 60.951448 
L 264.933731 60.565298 
L 266.019532 60.751715 
L 267.105333 60.065967 
L 268.191134 60.265699 
L 269.276935 59.626555 
L 270.362736 60.219095 
L 271.448538 60.006047 
L 272.534339 59.366902 
L 273.62014 59.653186 
L 274.705941 58.940806 
L 275.791742 59.233747 
L 279.049146 58.501395 
L 281.220748 58.767705 
L 282.306549 58.075298 
L 283.39235 57.722438 
L 284.478151 57.98209 
L 285.563953 57.835619 
L 286.649754 57.32963 
L 287.735555 57.149871 
L 288.821356 57.476101 
L 290.992958 56.710459 
L 292.07876 56.816983 
L 294.250362 56.723775 
L 295.336163 56.384229 
L 297.507765 56.14455 
L 298.593566 56.437491 
L 299.679368 55.958133 
L 300.765169 55.99808 
L 302.936771 55.571984 
L 305.108373 55.678508 
L 307.279976 54.966128 
L 308.365777 55.01939 
L 309.451578 55.232438 
L 311.62318 54.806342 
L 317.052186 54.240433 
L 319.223788 54.16054 
L 320.30959 54.320326 
L 321.395391 54.067331 
L 332.253402 53.767733 
L 334.425005 53.734444 
L 335.510806 53.654551 
L 337.682408 53.681182 
L 339.85401 53.654551 
L 343.111414 53.661209 
L 346.368817 53.667866 
L 350.712022 53.587973 
L 353.969425 53.654551 
L 356.141028 53.587973 
L 359.398431 53.621262 
L 385.457659 53.721128 
L 387.629261 53.721128 
L 394.144068 53.741102 
L 395.229869 53.814337 
L 396.31567 53.694497 
L 398.487273 53.714471 
L 398.487273 53.714471 
" clip-path="url(#p3982be8c06)" style="fill: none; stroke: #1f77b4; stroke-width: 1.5; stroke-linecap: square"/>
   </g>
   <g id="line2d_17">
    <path d="M 73.832727 284.998137 
L 74.918528 252.961032 
L 77.090131 223.773444 
L 79.261733 209.818795 
L 80.347534 193.733665 
L 81.433335 194.985322 
L 82.519137 183.560619 
L 83.604938 174.239765 
L 84.690739 172.961477 
L 86.862341 164.705864 
L 87.948142 158.607362 
L 89.033943 155.997523 
L 91.205546 152.375706 
L 92.291347 152.375706 
L 94.462949 150.990893 
L 95.54875 175.438161 
L 96.634552 173.707145 
L 98.806154 167.741799 
L 99.891955 168.780408 
L 100.977756 161.45688 
L 102.063557 173.57399 
L 103.149358 159.139982 
L 104.23516 154.559449 
L 105.320961 151.470251 
L 106.406762 155.012176 
L 107.492563 156.423619 
L 108.578364 148.940305 
L 109.664165 153.707256 
L 110.749967 149.446295 
L 111.835768 144.226617 
L 112.921569 147.235921 
L 114.00737 144.83913 
L 115.093171 141.696671 
L 116.178972 141.563516 
L 117.264773 140.658061 
L 118.350575 138.793891 
L 119.436376 139.486297 
L 120.522177 140.311858 
L 122.693779 137.302554 
L 123.77958 136.66341 
L 124.865382 136.956351 
L 125.951183 137.835174 
L 127.036984 133.281271 
L 128.122785 135.678062 
L 129.208586 133.813892 
L 131.380189 134.186726 
L 132.46599 134.106833 
L 133.551791 133.121485 
L 134.637592 132.855175 
L 135.723393 133.680737 
L 136.809194 133.361164 
L 137.894995 134.053571 
L 138.980797 147.662017 
L 140.066598 153.893673 
L 141.152399 144.30651 
L 142.2382 147.076135 
L 143.324001 152.642016 
L 144.409802 146.330466 
L 145.495604 150.724583 
L 146.581405 147.315814 
L 147.667206 148.247899 
L 148.753007 144.705975 
L 149.838808 148.860412 
L 150.924609 144.732606 
L 152.01041 144.519558 
L 154.182013 141.989612 
L 155.267814 142.628756 
L 156.353615 142.096136 
L 157.439416 143.667365 
L 158.525217 139.699345 
L 159.611019 147.528862 
L 160.69682 141.110788 
L 161.782621 141.057526 
L 162.868422 139.459666 
L 163.954223 137.648757 
L 165.040024 137.089506 
L 166.125825 141.510254 
L 167.211627 138.101484 
L 168.297428 135.305228 
L 169.383229 139.113463 
L 170.46903 137.542233 
L 171.554831 136.503624 
L 172.640632 139.56619 
L 173.726434 136.184052 
L 174.812235 133.627475 
L 175.898036 135.331859 
L 176.983837 135.598169 
L 178.069638 134.959025 
L 179.155439 138.101484 
L 180.24124 132.775282 
L 181.327042 135.571538 
L 182.412843 133.49432 
L 183.498644 132.668758 
L 184.584445 131.523625 
L 185.670246 131.017636 
L 186.756047 128.674107 
L 187.841849 129.765978 
L 188.92765 130.61817 
L 190.013451 129.526299 
L 191.099252 131.470363 
L 192.185053 128.301273 
L 193.270854 126.889829 
L 194.356656 130.005657 
L 195.442457 126.783305 
L 196.528258 128.967048 
L 197.614059 127.608866 
L 198.69986 125.664803 
L 199.785661 125.584909 
L 200.871462 125.025658 
L 201.957264 126.011006 
L 203.043065 124.413145 
L 204.128866 124.945765 
L 205.214667 124.945765 
L 206.300468 124.306621 
L 207.386269 124.759348 
L 208.472071 123.880525 
L 209.557872 123.827263 
L 210.643673 124.093573 
L 211.729474 123.48106 
L 212.815275 123.48106 
L 213.901076 123.081595 
L 214.986877 124.599562 
L 216.072679 123.667477 
L 217.15848 123.880525 
L 218.244281 123.907156 
L 219.330082 124.093573 
L 220.415883 123.933787 
L 221.501684 123.560953 
L 222.587486 122.921808 
L 223.673287 124.413145 
L 224.759088 122.921808 
L 225.844889 145.132071 
L 226.93069 141.829826 
L 228.016491 142.016243 
L 229.102292 144.626082 
L 230.188094 140.737954 
L 231.273895 142.868435 
L 232.359696 142.548863 
L 233.445497 140.844478 
L 234.531298 141.909719 
L 235.617099 144.0402 
L 236.702901 141.616778 
L 237.788702 140.018917 
L 238.874503 138.208008 
L 239.960304 140.338489 
L 242.131906 142.389077 
L 243.217708 140.524906 
L 244.303509 138.021591 
L 245.38931 140.951002 
L 246.475111 138.76726 
L 247.560912 139.006939 
L 248.646713 137.249292 
L 249.732514 139.459666 
L 250.818316 135.678062 
L 251.904117 141.962981 
L 252.989918 142.362446 
L 254.075719 137.755281 
L 255.16152 138.394425 
L 256.247321 137.116137 
L 257.333123 137.622126 
L 258.418924 136.982982 
L 259.504725 135.465014 
L 260.590526 137.009613 
L 261.676327 141.430361 
L 262.762128 139.699345 
L 263.847929 136.050897 
L 264.933731 136.503624 
L 266.019532 136.743303 
L 267.105333 134.479667 
L 268.191134 137.968329 
L 269.276935 137.648757 
L 270.362736 137.142768 
L 271.448538 136.476993 
L 272.534339 134.852501 
L 273.62014 139.56619 
L 274.705941 135.598169 
L 275.791742 140.391751 
L 276.877543 140.338489 
L 277.963344 135.251966 
L 279.049146 134.29325 
L 280.134947 134.133464 
L 281.220748 136.237314 
L 282.306549 135.731324 
L 283.39235 136.876458 
L 284.478151 134.346512 
L 285.563953 135.35849 
L 286.649754 133.600844 
L 287.735555 132.642127 
L 288.821356 134.639453 
L 289.907157 133.680737 
L 290.992958 134.346512 
L 292.07876 134.55956 
L 293.164561 132.216031 
L 294.250362 136.077528 
L 295.336163 133.733999 
L 296.421964 134.080202 
L 297.507765 133.014961 
L 298.593566 134.852501 
L 299.679368 130.058919 
L 300.765169 135.438383 
L 301.85097 134.879132 
L 302.936771 131.869828 
L 304.022572 133.387795 
L 305.108373 134.612822 
L 306.194175 133.094854 
L 307.279976 130.538277 
L 308.365777 130.964374 
L 309.451578 129.925764 
L 310.537379 132.668758 
L 311.62318 131.337208 
L 312.708981 126.863198 
L 313.794783 130.218705 
L 314.880584 128.248011 
L 315.966385 128.967048 
L 317.052186 127.528973 
L 318.137987 127.742021 
L 319.223788 124.999027 
L 320.30959 125.052289 
L 321.395391 126.783305 
L 322.481192 125.584909 
L 323.566993 125.664803 
L 324.652794 126.037637 
L 325.738595 127.768652 
L 326.824396 124.706086 
L 327.910198 125.931113 
L 328.995999 125.638172 
L 330.0818 124.466407 
L 331.167601 123.640846 
L 332.253402 123.640846 
L 333.339203 122.495712 
L 334.425005 123.507691 
L 335.510806 122.362557 
L 336.596607 123.028333 
L 337.682408 123.321274 
L 338.768209 121.750044 
L 339.85401 123.188119 
L 340.939811 121.1109 
L 342.025613 122.229402 
L 343.111414 123.933787 
L 344.197215 122.495712 
L 345.283016 122.282664 
L 346.368817 122.415819 
L 347.454618 123.614215 
L 348.54042 122.016354 
L 349.626221 122.628867 
L 350.712022 122.762022 
L 351.797823 122.202771 
L 352.883624 121.137531 
L 353.969425 121.670151 
L 355.055227 122.628867 
L 356.141028 121.856568 
L 357.226829 121.829937 
L 358.31263 121.057638 
L 359.398431 120.871221 
L 360.484232 121.723413 
L 361.570033 120.445125 
L 362.655835 121.057638 
L 363.741636 121.1109 
L 364.827437 121.64352 
L 365.913238 120.3386 
L 366.999039 120.125552 
L 368.08484 121.723413 
L 369.170642 121.031007 
L 370.256443 120.951114 
L 371.342244 121.90983 
L 372.428045 122.655498 
L 373.513846 122.309295 
L 375.685448 123.108226 
L 376.77125 122.97507 
L 377.857051 121.37721 
L 378.942852 122.256033 
L 380.028653 123.827263 
L 381.114454 123.640846 
L 382.200255 123.188119 
L 383.286057 123.987049 
L 384.371858 122.415819 
L 385.457659 124.892503 
L 386.54346 123.560953 
L 387.629261 123.694108 
L 388.715062 124.386514 
L 390.886665 122.389188 
L 391.972466 123.74737 
L 393.058267 123.268012 
L 394.144068 124.945765 
L 395.229869 123.907156 
L 396.31567 124.493038 
L 397.401472 124.413145 
L 398.487273 123.374536 
L 398.487273 123.374536 
" clip-path="url(#p3982be8c06)" style="fill: none; stroke: #ff7f0e; stroke-width: 1.5; stroke-linecap: square"/>
   </g>
   <g id="line2d_18">
    <path d="M 73.832727 295.488 
L 74.918528 271.832316 
L 77.090131 244.944179 
L 78.175932 244.521756 
L 79.261733 247.533815 
L 80.347534 245.256405 
L 81.433335 247.386886 
L 82.519137 233.722422 
L 83.604938 230.783828 
L 85.77654 234.144845 
L 86.862341 226.26574 
L 87.948142 229.792053 
L 89.033943 222.849624 
L 90.119745 217.266295 
L 91.205546 221.710918 
L 92.291347 218.147873 
L 93.377148 218.992719 
L 94.462949 218.221338 
L 95.54875 227.275881 
L 96.634552 238.130314 
L 97.720353 236.183495 
L 98.806154 241.968852 
L 99.891955 232.014365 
L 100.977756 228.047262 
L 102.063557 238.350708 
L 103.149358 225.182133 
L 104.23516 227.294248 
L 105.320961 224.116893 
L 106.406762 228.414587 
L 107.492563 227.71667 
L 108.578364 222.408835 
L 109.664165 222.923089 
L 110.749967 222.482299 
L 111.835768 221.766017 
L 112.921569 220.553847 
L 114.00737 223.033286 
L 115.093171 221.031369 
L 116.178972 212.454347 
L 117.264773 217.431591 
L 118.350575 211.609501 
L 119.436376 219.066184 
L 120.522177 221.398693 
L 121.607978 215.429673 
L 122.693779 219.7641 
L 123.77958 215.099081 
L 124.865382 211.389106 
L 125.951183 212.87677 
L 127.036984 214.162405 
L 128.122785 213.501221 
L 129.208586 212.619643 
L 130.294387 213.831813 
L 131.380189 212.656375 
L 132.46599 212.399248 
L 133.551791 212.638009 
L 134.637592 212.58291 
L 135.723393 212.142121 
L 136.809194 212.068656 
L 137.894995 211.848262 
L 138.980797 226.467768 
L 140.066598 225.604556 
L 141.152399 223.308779 
L 142.2382 218.515197 
L 143.324001 223.345512 
L 144.409802 220.406917 
L 145.495604 227.47791 
L 146.581405 228.947207 
L 148.753007 221.343594 
L 149.838808 221.251763 
L 150.924609 228.028896 
L 152.01041 222.206806 
L 153.096212 226.816726 
L 154.182013 217.890746 
L 155.267814 220.44365 
L 156.353615 218.919254 
L 157.439416 226.394303 
L 158.525217 224.631147 
L 159.611019 224.061794 
L 160.69682 224.282188 
L 162.868422 215.815364 
L 163.954223 215.264377 
L 165.040024 215.337842 
L 166.125825 218.882522 
L 167.211627 220.278354 
L 168.297428 217.156097 
L 169.383229 217.211196 
L 170.46903 222.317004 
L 171.554831 216.788773 
L 172.640632 221.894581 
L 173.726434 220.994636 
L 174.812235 219.727367 
L 175.898036 214.070573 
L 176.983837 217.688718 
L 178.069638 213.758348 
L 179.155439 219.929396 
L 180.24124 211.866628 
L 181.327042 216.531646 
L 182.412843 213.923644 
L 183.498644 217.082633 
L 184.584445 210.966683 
L 185.670246 206.705722 
L 186.756047 212.58291 
L 187.841849 215.741899 
L 188.92765 215.190913 
L 190.013451 212.840037 
L 191.099252 216.696942 
L 193.270854 208.211751 
L 194.356656 213.023699 
L 195.442457 208.358681 
L 196.528258 213.850179 
L 197.614059 209.442288 
L 198.69986 208.11992 
L 199.785661 208.65254 
L 200.871462 208.909667 
L 201.957264 209.295358 
L 203.043065 207.017947 
L 204.128866 208.248484 
L 205.214667 207.917892 
L 206.300468 207.422004 
L 207.386269 207.73423 
L 208.472071 207.422004 
L 209.557872 206.834285 
L 210.643673 206.724088 
L 211.729474 206.90775 
L 212.815275 206.834285 
L 213.901076 206.90775 
L 214.986877 206.76082 
L 216.072679 207.770962 
L 217.15848 207.403638 
L 218.244281 206.871018 
L 219.330082 206.852651 
L 220.415883 207.679131 
L 221.501684 207.311807 
L 222.587486 205.273157 
L 223.673287 206.889384 
L 224.759088 207.109778 
L 225.844889 226.192275 
L 226.93069 221.50889 
L 228.016491 221.453791 
L 229.102292 216.476547 
L 230.188094 219.7641 
L 231.273895 224.925006 
L 232.359696 228.83701 
L 233.445497 220.186523 
L 235.617099 221.013002 
L 236.702901 224.539315 
L 237.788702 215.870462 
L 238.874503 215.943927 
L 239.960304 224.557682 
L 241.046105 224.686245 
L 242.131906 223.54754 
L 243.217708 225.990246 
L 244.303509 215.778631 
L 245.38931 222.629229 
L 246.475111 222.739426 
L 247.560912 216.476547 
L 248.646713 223.363878 
L 249.732514 215.337842 
L 250.818316 223.93323 
L 251.904117 221.1232 
L 252.989918 221.527256 
L 254.075719 218.607028 
L 255.16152 221.637454 
L 256.247321 216.641843 
L 258.418924 226.008613 
L 259.504725 213.133897 
L 260.590526 215.741899 
L 261.676327 210.966683 
L 262.762128 225.108668 
L 264.933731 212.564544 
L 266.019532 216.715308 
L 267.105333 219.47024 
L 268.191134 218.735592 
L 269.276935 215.30111 
L 270.362736 215.025617 
L 271.448538 214.566461 
L 272.534339 213.758348 
L 273.62014 215.6868 
L 274.705941 218.441732 
L 275.791742 217.376492 
L 276.877543 220.810974 
L 277.963344 214.529729 
L 279.049146 213.556319 
L 280.134947 212.013558 
L 281.220748 216.219421 
L 282.306549 218.074408 
L 283.39235 216.237787 
L 284.478151 216.862238 
L 285.563953 214.584827 
L 286.649754 211.921726 
L 287.735555 214.805222 
L 288.821356 214.070573 
L 289.907157 209.166794 
L 293.164561 220.590579 
L 294.250362 210.746289 
L 295.336163 214.713391 
L 296.421964 214.750123 
L 297.507765 215.668434 
L 298.593566 214.658292 
L 299.679368 218.845789 
L 300.765169 218.717226 
L 301.85097 214.107306 
L 302.936771 213.721615 
L 304.022572 210.727923 
L 305.108373 213.11553 
L 306.194175 209.47902 
L 307.279976 212.931868 
L 308.365777 212.325783 
L 309.451578 205.54865 
L 311.62318 214.511363 
L 312.708981 209.607583 
L 313.794783 214.217503 
L 314.880584 208.79947 
L 315.966385 208.689273 
L 317.052186 208.872935 
L 318.137987 208.505611 
L 319.223788 206.687355 
L 320.30959 202.187633 
L 321.395391 209.570851 
L 322.481192 206.393496 
L 323.566993 205.860876 
L 324.652794 214.713391 
L 325.738595 205.84251 
L 326.824396 205.456819 
L 327.910198 213.170629 
L 328.995999 207.330173 
L 330.0818 212.270684 
L 332.253402 206.264933 
L 333.339203 208.175019 
L 334.425005 202.29783 
L 335.510806 202.959014 
L 336.596607 203.234507 
L 337.682408 202.701887 
L 338.768209 206.209834 
L 339.85401 205.769045 
L 340.939811 206.062904 
L 342.025613 208.248484 
L 343.111414 209.295358 
L 344.197215 207.366905 
L 345.283016 203.840592 
L 346.368817 206.062904 
L 347.454618 203.252873 
L 348.54042 204.134452 
L 349.626221 209.717781 
L 350.712022 205.107861 
L 351.797823 204.060987 
L 352.883624 201.61828 
L 353.969425 206.191468 
L 355.055227 204.685438 
L 356.141028 205.824143 
L 357.226829 205.199692 
L 358.31263 202.150901 
L 359.398431 202.279464 
L 360.484232 202.665155 
L 361.570033 204.593607 
L 362.655835 203.546733 
L 363.741636 206.2282 
L 364.827437 204.630339 
L 365.913238 204.465044 
L 366.999039 203.307972 
L 368.08484 204.722171 
L 369.170642 204.48341 
L 370.256443 207.311807 
L 371.342244 204.33648 
L 372.428045 203.216141 
L 373.513846 203.344705 
L 374.599647 202.279464 
L 375.685448 206.320031 
L 376.77125 205.530284 
L 377.857051 207.679131 
L 378.942852 208.964766 
L 380.028653 210.066739 
L 381.114454 207.568934 
L 383.286057 209.552485 
L 384.371858 206.191468 
L 385.457659 208.046455 
L 386.54346 204.740537 
L 388.715062 211.756431 
L 389.800863 207.73423 
L 390.886665 206.411862 
L 391.972466 204.207917 
L 393.058267 210.066739 
L 394.144068 209.662682 
L 395.229869 208.928034 
L 396.31567 210.98505 
L 397.401472 204.8691 
L 398.487273 210.195302 
L 398.487273 210.195302 
" clip-path="url(#p3982be8c06)" style="fill: none; stroke: #2ca02c; stroke-width: 1.5; stroke-linecap: square"/>
   </g>
   <g id="line2d_19">
    <path d="M 368.08484 120.897852 
L 369.170642 121.430472 
L 370.256443 121.696782 
L 371.342244 121.217424 
L 372.428045 122.548974 
L 373.513846 122.495712 
L 374.599647 123.933787 
L 375.685448 123.853894 
L 376.77125 124.253359 
L 377.857051 125.584909 
L 378.942852 123.054964 
L 380.028653 125.691434 
L 381.114454 126.277316 
L 382.200255 128.354535 
L 383.286057 127.848545 
L 384.371858 128.061593 
L 385.457659 130.911112 
L 386.54346 131.337208 
L 387.629261 131.417101 
L 388.715062 128.833893 
L 389.800863 131.92309 
L 390.886665 132.242662 
L 391.972466 133.201378 
L 393.058267 133.893785 
L 394.144068 135.09218 
L 395.229869 140.604799 
L 396.31567 139.752607 
L 397.401472 136.823196 
L 398.487273 139.646083 
L 398.487273 139.646083 
" clip-path="url(#p3982be8c06)" style="fill: none; stroke: #d62728; stroke-width: 1.5; stroke-linecap: square"/>
   </g>
   <g id="line2d_20">
    <path d="M 368.08484 204.593607 
L 369.170642 205.787411 
L 370.256443 208.615808 
L 371.342244 207.422004 
L 372.428045 207.422004 
L 373.513846 207.679131 
L 374.599647 205.787411 
L 375.685448 207.715863 
L 376.77125 204.648706 
L 377.857051 205.493552 
L 378.942852 204.520142 
L 380.028653 205.603749 
L 381.114454 207.219976 
L 382.200255 211.829895 
L 383.286057 210.856486 
L 384.371858 208.248484 
L 385.457659 208.634174 
L 386.54346 209.919809 
L 387.629261 210.617725 
L 388.715062 207.936258 
L 389.800863 209.607583 
L 390.886665 212.252318 
L 391.972466 213.629784 
L 393.058267 213.225728 
L 394.144068 216.550012 
L 395.229869 215.760265 
L 396.31567 221.857848 
L 397.401472 218.037676 
L 398.487273 222.096609 
L 398.487273 222.096609 
" clip-path="url(#p3982be8c06)" style="fill: none; stroke: #9467bd; stroke-width: 1.5; stroke-linecap: square"/>
   </g>
   <g id="patch_3">
    <path d="M 57.6 307.584 
L 57.6 41.472 
" style="fill: none; stroke: #000000; stroke-width: 0.8; stroke-linejoin: miter; stroke-linecap: square"/>
   </g>
   <g id="patch_4">
    <path d="M 414.72 307.584 
L 414.72 41.472 
" style="fill: none; stroke: #000000; stroke-width: 0.8; stroke-linejoin: miter; stroke-linecap: square"/>
   </g>
   <g id="patch_5">
    <path d="M 57.6 307.584 
L 414.72 307.584 
" style="fill: none; stroke: #000000; stroke-width: 0.8; stroke-linejoin: miter; stroke-linecap: square"/>
   </g>
   <g id="patch_6">
    <path d="M 57.6 41.472 
L 414.72 41.472 
" style="fill: none; stroke: #000000; stroke-width: 0.8; stroke-linejoin: miter; stroke-linecap: square"/>
   </g>
   <g id="text_18">
    <!-- Learning Curves -->
    <g transform="translate(187.37625 35.472) scale(0.12 -0.12)">
     <defs>
      <path id="DejaVuSans-4c" d="M 628 4666 
L 1259 4666 
L 1259 531 
L 3531 531 
L 3531 0 
L 628 0 
L 628 4666 
z
" transform="scale(0.015625)"/>
      <path id="DejaVuSans-65" d="M 3597 1894 
L 3597 1613 
L 953 1613 
Q 991 1019 1311 708 
Q 1631 397 2203 397 
Q 2534 397 2845 478 
Q 3156 559 3463 722 
L 3463 178 
Q 3153 47 2828 -22 
Q 2503 -91 2169 -91 
Q 1331 -91 842 396 
Q 353 884 353 1716 
Q 353 2575 817 3079 
Q 1281 3584 2069 3584 
Q 2775 3584 3186 3129 
Q 3597 2675 3597 1894 
z
M 3022 2063 
Q 3016 2534 2758 2815 
Q 2500 3097 2075 3097 
Q 1594 3097 1305 2825 
Q 1016 2553 972 2059 
L 3022 2063 
z
" transform="scale(0.015625)"/>
      <path id="DejaVuSans-6e" d="M 3513 2113 
L 3513 0 
L 2938 0 
L 2938 2094 
Q 2938 2591 2744 2837 
Q 2550 3084 2163 3084 
Q 1697 3084 1428 2787 
Q 1159 2491 1159 1978 
L 1159 0 
L 581 0 
L 581 3500 
L 1159 3500 
L 1159 2956 
Q 1366 3272 1645 3428 
Q 1925 3584 2291 3584 
Q 2894 3584 3203 3211 
Q 3513 2838 3513 2113 
z
" transform="scale(0.015625)"/>
      <path id="DejaVuSans-69" d="M 603 3500 
L 1178 3500 
L 1178 0 
L 603 0 
L 603 3500 
z
M 603 4863 
L 1178 4863 
L 1178 4134 
L 603 4134 
L 603 4863 
z
" transform="scale(0.015625)"/>
      <path id="DejaVuSans-67" d="M 2906 1791 
Q 2906 2416 2648 2759 
Q 2391 3103 1925 3103 
Q 1463 3103 1205 2759 
Q 947 2416 947 1791 
Q 947 1169 1205 825 
Q 1463 481 1925 481 
Q 2391 481 2648 825 
Q 2906 1169 2906 1791 
z
M 3481 434 
Q 3481 -459 3084 -895 
Q 2688 -1331 1869 -1331 
Q 1566 -1331 1297 -1286 
Q 1028 -1241 775 -1147 
L 775 -588 
Q 1028 -725 1275 -790 
Q 1522 -856 1778 -856 
Q 2344 -856 2625 -561 
Q 2906 -266 2906 331 
L 2906 616 
Q 2728 306 2450 153 
Q 2172 0 1784 0 
Q 1141 0 747 490 
Q 353 981 353 1791 
Q 353 2603 747 3093 
Q 1141 3584 1784 3584 
Q 2172 3584 2450 3431 
Q 2728 3278 2906 2969 
L 2906 3500 
L 3481 3500 
L 3481 434 
z
" transform="scale(0.015625)"/>
      <path id="DejaVuSans-20" transform="scale(0.015625)"/>
      <path id="DejaVuSans-43" d="M 4122 4306 
L 4122 3641 
Q 3803 3938 3442 4084 
Q 3081 4231 2675 4231 
Q 1875 4231 1450 3742 
Q 1025 3253 1025 2328 
Q 1025 1406 1450 917 
Q 1875 428 2675 428 
Q 3081 428 3442 575 
Q 3803 722 4122 1019 
L 4122 359 
Q 3791 134 3420 21 
Q 3050 -91 2638 -91 
Q 1578 -91 968 557 
Q 359 1206 359 2328 
Q 359 3453 968 4101 
Q 1578 4750 2638 4750 
Q 3056 4750 3426 4639 
Q 3797 4528 4122 4306 
z
" transform="scale(0.015625)"/>
      <path id="DejaVuSans-76" d="M 191 3500 
L 800 3500 
L 1894 563 
L 2988 3500 
L 3597 3500 
L 2284 0 
L 1503 0 
L 191 3500 
z
" transform="scale(0.015625)"/>
     </defs>
     <use xlink:href="#DejaVuSans-4c"/>
     <use xlink:href="#DejaVuSans-65" x="53.962891"/>
     <use xlink:href="#DejaVuSans-61" x="115.486328"/>
     <use xlink:href="#DejaVuSans-72" x="176.765625"/>
     <use xlink:href="#DejaVuSans-6e" x="216.128906"/>
     <use xlink:href="#DejaVuSans-69" x="279.507812"/>
     <use xlink:href="#DejaVuSans-6e" x="307.291016"/>
     <use xlink:href="#DejaVuSans-67" x="370.669922"/>
     <use xlink:href="#DejaVuSans-20" x="434.146484"/>
     <use xlink:href="#DejaVuSans-43" x="465.933594"/>
     <use xlink:href="#DejaVuSans-75" x="535.757812"/>
     <use xlink:href="#DejaVuSans-72" x="599.136719"/>
     <use xlink:href="#DejaVuSans-76" x="640.25"/>
     <use xlink:href="#DejaVuSans-65" x="699.429688"/>
     <use xlink:href="#DejaVuSans-73" x="760.953125"/>
    </g>
   </g>
   <g id="legend_1">
    <g id="patch_7">
     <path d="M 214.18875 302.584 
L 407.72 302.584 
Q 409.72 302.584 409.72 300.584 
L 409.72 228.193375 
Q 409.72 226.193375 407.72 226.193375 
L 214.18875 226.193375 
Q 212.18875 226.193375 212.18875 228.193375 
L 212.18875 300.584 
Q 212.18875 302.584 214.18875 302.584 
z
" style="fill: #ffffff; opacity: 0.8; stroke: #cccccc; stroke-linejoin: miter"/>
    </g>
    <g id="line2d_21">
     <path d="M 216.18875 234.291812 
L 226.18875 234.291812 
L 236.18875 234.291812 
" style="fill: none; stroke: #1f77b4; stroke-width: 1.5; stroke-linecap: square"/>
    </g>
    <g id="text_19">
     <!-- Train Accuracy -->
     <g transform="translate(244.18875 237.791812) scale(0.1 -0.1)">
      <defs>
       <path id="DejaVuSans-54" d="M -19 4666 
L 3928 4666 
L 3928 4134 
L 2272 4134 
L 2272 0 
L 1638 0 
L 1638 4134 
L -19 4134 
L -19 4666 
z
" transform="scale(0.015625)"/>
      </defs>
      <use xlink:href="#DejaVuSans-54"/>
      <use xlink:href="#DejaVuSans-72" x="46.333984"/>
      <use xlink:href="#DejaVuSans-61" x="87.447266"/>
      <use xlink:href="#DejaVuSans-69" x="148.726562"/>
      <use xlink:href="#DejaVuSans-6e" x="176.509766"/>
      <use xlink:href="#DejaVuSans-20" x="239.888672"/>
      <use xlink:href="#DejaVuSans-41" x="271.675781"/>
      <use xlink:href="#DejaVuSans-63" x="338.333984"/>
      <use xlink:href="#DejaVuSans-63" x="393.314453"/>
      <use xlink:href="#DejaVuSans-75" x="448.294922"/>
      <use xlink:href="#DejaVuSans-72" x="511.673828"/>
      <use xlink:href="#DejaVuSans-61" x="552.787109"/>
      <use xlink:href="#DejaVuSans-63" x="614.066406"/>
      <use xlink:href="#DejaVuSans-79" x="669.046875"/>
     </g>
    </g>
    <g id="line2d_22">
     <path d="M 216.18875 248.969937 
L 226.18875 248.969937 
L 236.18875 248.969937 
" style="fill: none; stroke: #ff7f0e; stroke-width: 1.5; stroke-linecap: square"/>
    </g>
    <g id="text_20">
     <!-- Validation Accuracy -->
     <g transform="translate(244.18875 252.469937) scale(0.1 -0.1)">
      <defs>
       <path id="DejaVuSans-56" d="M 1831 0 
L 50 4666 
L 709 4666 
L 2188 738 
L 3669 4666 
L 4325 4666 
L 2547 0 
L 1831 0 
z
" transform="scale(0.015625)"/>
       <path id="DejaVuSans-6c" d="M 603 4863 
L 1178 4863 
L 1178 0 
L 603 0 
L 603 4863 
z
" transform="scale(0.015625)"/>
       <path id="DejaVuSans-64" d="M 2906 2969 
L 2906 4863 
L 3481 4863 
L 3481 0 
L 2906 0 
L 2906 525 
Q 2725 213 2448 61 
Q 2172 -91 1784 -91 
Q 1150 -91 751 415 
Q 353 922 353 1747 
Q 353 2572 751 3078 
Q 1150 3584 1784 3584 
Q 2172 3584 2448 3432 
Q 2725 3281 2906 2969 
z
M 947 1747 
Q 947 1113 1208 752 
Q 1469 391 1925 391 
Q 2381 391 2643 752 
Q 2906 1113 2906 1747 
Q 2906 2381 2643 2742 
Q 2381 3103 1925 3103 
Q 1469 3103 1208 2742 
Q 947 2381 947 1747 
z
" transform="scale(0.015625)"/>
       <path id="DejaVuSans-74" d="M 1172 4494 
L 1172 3500 
L 2356 3500 
L 2356 3053 
L 1172 3053 
L 1172 1153 
Q 1172 725 1289 603 
Q 1406 481 1766 481 
L 2356 481 
L 2356 0 
L 1766 0 
Q 1100 0 847 248 
Q 594 497 594 1153 
L 594 3053 
L 172 3053 
L 172 3500 
L 594 3500 
L 594 4494 
L 1172 4494 
z
" transform="scale(0.015625)"/>
      </defs>
      <use xlink:href="#DejaVuSans-56"/>
      <use xlink:href="#DejaVuSans-61" x="60.658203"/>
      <use xlink:href="#DejaVuSans-6c" x="121.9375"/>
      <use xlink:href="#DejaVuSans-69" x="149.720703"/>
      <use xlink:href="#DejaVuSans-64" x="177.503906"/>
      <use xlink:href="#DejaVuSans-61" x="240.980469"/>
      <use xlink:href="#DejaVuSans-74" x="302.259766"/>
      <use xlink:href="#DejaVuSans-69" x="341.46875"/>
      <use xlink:href="#DejaVuSans-6f" x="369.251953"/>
      <use xlink:href="#DejaVuSans-6e" x="430.433594"/>
      <use xlink:href="#DejaVuSans-20" x="493.8125"/>
      <use xlink:href="#DejaVuSans-41" x="525.599609"/>
      <use xlink:href="#DejaVuSans-63" x="592.257812"/>
      <use xlink:href="#DejaVuSans-63" x="647.238281"/>
      <use xlink:href="#DejaVuSans-75" x="702.21875"/>
      <use xlink:href="#DejaVuSans-72" x="765.597656"/>
      <use xlink:href="#DejaVuSans-61" x="806.710938"/>
      <use xlink:href="#DejaVuSans-63" x="867.990234"/>
      <use xlink:href="#DejaVuSans-79" x="922.970703"/>
     </g>
    </g>
    <g id="line2d_23">
     <path d="M 216.18875 263.648062 
L 226.18875 263.648062 
L 236.18875 263.648062 
" style="fill: none; stroke: #2ca02c; stroke-width: 1.5; stroke-linecap: square"/>
    </g>
    <g id="text_21">
     <!-- Robust Validation Accuracy -->
     <g transform="translate(244.18875 267.148062) scale(0.1 -0.1)">
      <defs>
       <path id="DejaVuSans-52" d="M 2841 2188 
Q 3044 2119 3236 1894 
Q 3428 1669 3622 1275 
L 4263 0 
L 3584 0 
L 2988 1197 
Q 2756 1666 2539 1819 
Q 2322 1972 1947 1972 
L 1259 1972 
L 1259 0 
L 628 0 
L 628 4666 
L 2053 4666 
Q 2853 4666 3247 4331 
Q 3641 3997 3641 3322 
Q 3641 2881 3436 2590 
Q 3231 2300 2841 2188 
z
M 1259 4147 
L 1259 2491 
L 2053 2491 
Q 2509 2491 2742 2702 
Q 2975 2913 2975 3322 
Q 2975 3731 2742 3939 
Q 2509 4147 2053 4147 
L 1259 4147 
z
" transform="scale(0.015625)"/>
       <path id="DejaVuSans-62" d="M 3116 1747 
Q 3116 2381 2855 2742 
Q 2594 3103 2138 3103 
Q 1681 3103 1420 2742 
Q 1159 2381 1159 1747 
Q 1159 1113 1420 752 
Q 1681 391 2138 391 
Q 2594 391 2855 752 
Q 3116 1113 3116 1747 
z
M 1159 2969 
Q 1341 3281 1617 3432 
Q 1894 3584 2278 3584 
Q 2916 3584 3314 3078 
Q 3713 2572 3713 1747 
Q 3713 922 3314 415 
Q 2916 -91 2278 -91 
Q 1894 -91 1617 61 
Q 1341 213 1159 525 
L 1159 0 
L 581 0 
L 581 4863 
L 1159 4863 
L 1159 2969 
z
" transform="scale(0.015625)"/>
      </defs>
      <use xlink:href="#DejaVuSans-52"/>
      <use xlink:href="#DejaVuSans-6f" x="64.982422"/>
      <use xlink:href="#DejaVuSans-62" x="126.164062"/>
      <use xlink:href="#DejaVuSans-75" x="189.640625"/>
      <use xlink:href="#DejaVuSans-73" x="253.019531"/>
      <use xlink:href="#DejaVuSans-74" x="305.119141"/>
      <use xlink:href="#DejaVuSans-20" x="344.328125"/>
      <use xlink:href="#DejaVuSans-56" x="376.115234"/>
      <use xlink:href="#DejaVuSans-61" x="436.773438"/>
      <use xlink:href="#DejaVuSans-6c" x="498.052734"/>
      <use xlink:href="#DejaVuSans-69" x="525.835938"/>
      <use xlink:href="#DejaVuSans-64" x="553.619141"/>
      <use xlink:href="#DejaVuSans-61" x="617.095703"/>
      <use xlink:href="#DejaVuSans-74" x="678.375"/>
      <use xlink:href="#DejaVuSans-69" x="717.583984"/>
      <use xlink:href="#DejaVuSans-6f" x="745.367188"/>
      <use xlink:href="#DejaVuSans-6e" x="806.548828"/>
      <use xlink:href="#DejaVuSans-20" x="869.927734"/>
      <use xlink:href="#DejaVuSans-41" x="901.714844"/>
      <use xlink:href="#DejaVuSans-63" x="968.373047"/>
      <use xlink:href="#DejaVuSans-63" x="1023.353516"/>
      <use xlink:href="#DejaVuSans-75" x="1078.333984"/>
      <use xlink:href="#DejaVuSans-72" x="1141.712891"/>
      <use xlink:href="#DejaVuSans-61" x="1182.826172"/>
      <use xlink:href="#DejaVuSans-63" x="1244.105469"/>
      <use xlink:href="#DejaVuSans-79" x="1299.085938"/>
     </g>
    </g>
    <g id="line2d_24">
     <path d="M 216.18875 278.326188 
L 226.18875 278.326188 
L 236.18875 278.326188 
" style="fill: none; stroke: #d62728; stroke-width: 1.5; stroke-linecap: square"/>
    </g>
    <g id="text_22">
     <!-- SWA Validation Accuracy -->
     <g transform="translate(244.18875 281.826188) scale(0.1 -0.1)">
      <defs>
       <path id="DejaVuSans-53" d="M 3425 4513 
L 3425 3897 
Q 3066 4069 2747 4153 
Q 2428 4238 2131 4238 
Q 1616 4238 1336 4038 
Q 1056 3838 1056 3469 
Q 1056 3159 1242 3001 
Q 1428 2844 1947 2747 
L 2328 2669 
Q 3034 2534 3370 2195 
Q 3706 1856 3706 1288 
Q 3706 609 3251 259 
Q 2797 -91 1919 -91 
Q 1588 -91 1214 -16 
Q 841 59 441 206 
L 441 856 
Q 825 641 1194 531 
Q 1563 422 1919 422 
Q 2459 422 2753 634 
Q 3047 847 3047 1241 
Q 3047 1584 2836 1778 
Q 2625 1972 2144 2069 
L 1759 2144 
Q 1053 2284 737 2584 
Q 422 2884 422 3419 
Q 422 4038 858 4394 
Q 1294 4750 2059 4750 
Q 2388 4750 2728 4690 
Q 3069 4631 3425 4513 
z
" transform="scale(0.015625)"/>
       <path id="DejaVuSans-57" d="M 213 4666 
L 850 4666 
L 1831 722 
L 2809 4666 
L 3519 4666 
L 4500 722 
L 5478 4666 
L 6119 4666 
L 4947 0 
L 4153 0 
L 3169 4050 
L 2175 0 
L 1381 0 
L 213 4666 
z
" transform="scale(0.015625)"/>
      </defs>
      <use xlink:href="#DejaVuSans-53"/>
      <use xlink:href="#DejaVuSans-57" x="63.476562"/>
      <use xlink:href="#DejaVuSans-41" x="156.853516"/>
      <use xlink:href="#DejaVuSans-20" x="225.261719"/>
      <use xlink:href="#DejaVuSans-56" x="257.048828"/>
      <use xlink:href="#DejaVuSans-61" x="317.707031"/>
      <use xlink:href="#DejaVuSans-6c" x="378.986328"/>
      <use xlink:href="#DejaVuSans-69" x="406.769531"/>
      <use xlink:href="#DejaVuSans-64" x="434.552734"/>
      <use xlink:href="#DejaVuSans-61" x="498.029297"/>
      <use xlink:href="#DejaVuSans-74" x="559.308594"/>
      <use xlink:href="#DejaVuSans-69" x="598.517578"/>
      <use xlink:href="#DejaVuSans-6f" x="626.300781"/>
      <use xlink:href="#DejaVuSans-6e" x="687.482422"/>
      <use xlink:href="#DejaVuSans-20" x="750.861328"/>
      <use xlink:href="#DejaVuSans-41" x="782.648438"/>
      <use xlink:href="#DejaVuSans-63" x="849.306641"/>
      <use xlink:href="#DejaVuSans-63" x="904.287109"/>
      <use xlink:href="#DejaVuSans-75" x="959.267578"/>
      <use xlink:href="#DejaVuSans-72" x="1022.646484"/>
      <use xlink:href="#DejaVuSans-61" x="1063.759766"/>
      <use xlink:href="#DejaVuSans-63" x="1125.039062"/>
      <use xlink:href="#DejaVuSans-79" x="1180.019531"/>
     </g>
    </g>
    <g id="line2d_25">
     <path d="M 216.18875 293.004312 
L 226.18875 293.004312 
L 236.18875 293.004312 
" style="fill: none; stroke: #9467bd; stroke-width: 1.5; stroke-linecap: square"/>
    </g>
    <g id="text_23">
     <!-- SWA Robust Validation Accuracy -->
     <g transform="translate(244.18875 296.504312) scale(0.1 -0.1)">
      <use xlink:href="#DejaVuSans-53"/>
      <use xlink:href="#DejaVuSans-57" x="63.476562"/>
      <use xlink:href="#DejaVuSans-41" x="156.853516"/>
      <use xlink:href="#DejaVuSans-20" x="225.261719"/>
      <use xlink:href="#DejaVuSans-52" x="257.048828"/>
      <use xlink:href="#DejaVuSans-6f" x="322.03125"/>
      <use xlink:href="#DejaVuSans-62" x="383.212891"/>
      <use xlink:href="#DejaVuSans-75" x="446.689453"/>
      <use xlink:href="#DejaVuSans-73" x="510.068359"/>
      <use xlink:href="#DejaVuSans-74" x="562.167969"/>
      <use xlink:href="#DejaVuSans-20" x="601.376953"/>
      <use xlink:href="#DejaVuSans-56" x="633.164062"/>
      <use xlink:href="#DejaVuSans-61" x="693.822266"/>
      <use xlink:href="#DejaVuSans-6c" x="755.101562"/>
      <use xlink:href="#DejaVuSans-69" x="782.884766"/>
      <use xlink:href="#DejaVuSans-64" x="810.667969"/>
      <use xlink:href="#DejaVuSans-61" x="874.144531"/>
      <use xlink:href="#DejaVuSans-74" x="935.423828"/>
      <use xlink:href="#DejaVuSans-69" x="974.632812"/>
      <use xlink:href="#DejaVuSans-6f" x="1002.416016"/>
      <use xlink:href="#DejaVuSans-6e" x="1063.597656"/>
      <use xlink:href="#DejaVuSans-20" x="1126.976562"/>
      <use xlink:href="#DejaVuSans-41" x="1158.763672"/>
      <use xlink:href="#DejaVuSans-63" x="1225.421875"/>
      <use xlink:href="#DejaVuSans-63" x="1280.402344"/>
      <use xlink:href="#DejaVuSans-75" x="1335.382812"/>
      <use xlink:href="#DejaVuSans-72" x="1398.761719"/>
      <use xlink:href="#DejaVuSans-61" x="1439.875"/>
      <use xlink:href="#DejaVuSans-63" x="1501.154297"/>
      <use xlink:href="#DejaVuSans-79" x="1556.134766"/>
     </g>
    </g>
   </g>
  </g>
 </g>
 <defs>
  <clipPath id="p3982be8c06">
   <rect x="57.6" y="41.472" width="357.12" height="266.112"/>
  </clipPath>
 </defs>
</svg>
