<?xml version="1.0" encoding="utf-8" standalone="no"?>
<!DOCTYPE svg PUBLIC "-//W3C//DTD SVG 1.1//EN"
  "http://www.w3.org/Graphics/SVG/1.1/DTD/svg11.dtd">
<svg xmlns:xlink="http://www.w3.org/1999/xlink" width="460.8pt" height="345.6pt" viewBox="0 0 460.8 345.6" xmlns="http://www.w3.org/2000/svg" version="1.1">
 <metadata>
  <rdf:RDF xmlns:dc="http://purl.org/dc/elements/1.1/" xmlns:cc="http://creativecommons.org/ns#" xmlns:rdf="http://www.w3.org/1999/02/22-rdf-syntax-ns#">
   <cc:Work>
    <dc:type rdf:resource="http://purl.org/dc/dcmitype/StillImage"/>
    <dc:date>2025-07-17T07:20:35.472753</dc:date>
    <dc:format>image/svg+xml</dc:format>
    <dc:creator>
     <cc:Agent>
      <dc:title>Matplotlib v3.9.1, https://matplotlib.org/</dc:title>
     </cc:Agent>
    </dc:creator>
   </cc:Work>
  </rdf:RDF>
 </metadata>
 <defs>
  <style type="text/css">*{stroke-linejoin: round; stroke-linecap: butt}</style>
 </defs>
 <g id="figure_1">
  <g id="patch_1">
   <path d="M 0 345.6 
L 460.8 345.6 
L 460.8 0 
L 0 0 
z
" style="fill: #ffffff"/>
  </g>
  <g id="axes_1">
   <g id="patch_2">
    <path d="M 57.6 307.584 
L 414.72 307.584 
L 414.72 41.472 
L 57.6 41.472 
z
" style="fill: #ffffff"/>
   </g>
   <g id="matplotlib.axis_1">
    <g id="xtick_1">
     <g id="line2d_1">
      <defs>
       <path id="me0c6baf076" d="M 0 0 
L 0 3.5 
" style="stroke: #000000; stroke-width: 0.8"/>
      </defs>
      <g>
       <use xlink:href="#me0c6baf076" x="73.832727" y="307.584" style="stroke: #000000; stroke-width: 0.8"/>
      </g>
     </g>
     <g id="text_1">
      <!-- 1 -->
      <g transform="translate(70.651477 322.182437) scale(0.1 -0.1)">
       <defs>
        <path id="DejaVuSans-31" d="M 794 531 
L 1825 531 
L 1825 4091 
L 703 3866 
L 703 4441 
L 1819 4666 
L 2450 4666 
L 2450 531 
L 3481 531 
L 3481 0 
L 794 0 
L 794 531 
z
" transform="scale(0.015625)"/>
       </defs>
       <use xlink:href="#DejaVuSans-31"/>
      </g>
     </g>
    </g>
    <g id="xtick_2">
     <g id="line2d_2">
      <g>
       <use xlink:href="#me0c6baf076" x="109.664165" y="307.584" style="stroke: #000000; stroke-width: 0.8"/>
      </g>
     </g>
     <g id="text_2">
      <!-- 34 -->
      <g transform="translate(103.301665 322.182437) scale(0.1 -0.1)">
       <defs>
        <path id="DejaVuSans-33" d="M 2597 2516 
Q 3050 2419 3304 2112 
Q 3559 1806 3559 1356 
Q 3559 666 3084 287 
Q 2609 -91 1734 -91 
Q 1441 -91 1130 -33 
Q 819 25 488 141 
L 488 750 
Q 750 597 1062 519 
Q 1375 441 1716 441 
Q 2309 441 2620 675 
Q 2931 909 2931 1356 
Q 2931 1769 2642 2001 
Q 2353 2234 1838 2234 
L 1294 2234 
L 1294 2753 
L 1863 2753 
Q 2328 2753 2575 2939 
Q 2822 3125 2822 3475 
Q 2822 3834 2567 4026 
Q 2313 4219 1838 4219 
Q 1578 4219 1281 4162 
Q 984 4106 628 3988 
L 628 4550 
Q 988 4650 1302 4700 
Q 1616 4750 1894 4750 
Q 2613 4750 3031 4423 
Q 3450 4097 3450 3541 
Q 3450 3153 3228 2886 
Q 3006 2619 2597 2516 
z
" transform="scale(0.015625)"/>
        <path id="DejaVuSans-34" d="M 2419 4116 
L 825 1625 
L 2419 1625 
L 2419 4116 
z
M 2253 4666 
L 3047 4666 
L 3047 1625 
L 3713 1625 
L 3713 1100 
L 3047 1100 
L 3047 0 
L 2419 0 
L 2419 1100 
L 313 1100 
L 313 1709 
L 2253 4666 
z
" transform="scale(0.015625)"/>
       </defs>
       <use xlink:href="#DejaVuSans-33"/>
       <use xlink:href="#DejaVuSans-34" x="63.623047"/>
      </g>
     </g>
    </g>
    <g id="xtick_3">
     <g id="line2d_3">
      <g>
       <use xlink:href="#me0c6baf076" x="145.495604" y="307.584" style="stroke: #000000; stroke-width: 0.8"/>
      </g>
     </g>
     <g id="text_3">
      <!-- 67 -->
      <g transform="translate(139.133104 322.182437) scale(0.1 -0.1)">
       <defs>
        <path id="DejaVuSans-36" d="M 2113 2584 
Q 1688 2584 1439 2293 
Q 1191 2003 1191 1497 
Q 1191 994 1439 701 
Q 1688 409 2113 409 
Q 2538 409 2786 701 
Q 3034 994 3034 1497 
Q 3034 2003 2786 2293 
Q 2538 2584 2113 2584 
z
M 3366 4563 
L 3366 3988 
Q 3128 4100 2886 4159 
Q 2644 4219 2406 4219 
Q 1781 4219 1451 3797 
Q 1122 3375 1075 2522 
Q 1259 2794 1537 2939 
Q 1816 3084 2150 3084 
Q 2853 3084 3261 2657 
Q 3669 2231 3669 1497 
Q 3669 778 3244 343 
Q 2819 -91 2113 -91 
Q 1303 -91 875 529 
Q 447 1150 447 2328 
Q 447 3434 972 4092 
Q 1497 4750 2381 4750 
Q 2619 4750 2861 4703 
Q 3103 4656 3366 4563 
z
" transform="scale(0.015625)"/>
        <path id="DejaVuSans-37" d="M 525 4666 
L 3525 4666 
L 3525 4397 
L 1831 0 
L 1172 0 
L 2766 4134 
L 525 4134 
L 525 4666 
z
" transform="scale(0.015625)"/>
       </defs>
       <use xlink:href="#DejaVuSans-36"/>
       <use xlink:href="#DejaVuSans-37" x="63.623047"/>
      </g>
     </g>
    </g>
    <g id="xtick_4">
     <g id="line2d_4">
      <g>
       <use xlink:href="#me0c6baf076" x="181.327042" y="307.584" style="stroke: #000000; stroke-width: 0.8"/>
      </g>
     </g>
     <g id="text_4">
      <!-- 100 -->
      <g transform="translate(171.783292 322.182437) scale(0.1 -0.1)">
       <defs>
        <path id="DejaVuSans-30" d="M 2034 4250 
Q 1547 4250 1301 3770 
Q 1056 3291 1056 2328 
Q 1056 1369 1301 889 
Q 1547 409 2034 409 
Q 2525 409 2770 889 
Q 3016 1369 3016 2328 
Q 3016 3291 2770 3770 
Q 2525 4250 2034 4250 
z
M 2034 4750 
Q 2819 4750 3233 4129 
Q 3647 3509 3647 2328 
Q 3647 1150 3233 529 
Q 2819 -91 2034 -91 
Q 1250 -91 836 529 
Q 422 1150 422 2328 
Q 422 3509 836 4129 
Q 1250 4750 2034 4750 
z
" transform="scale(0.015625)"/>
       </defs>
       <use xlink:href="#DejaVuSans-31"/>
       <use xlink:href="#DejaVuSans-30" x="63.623047"/>
       <use xlink:href="#DejaVuSans-30" x="127.246094"/>
      </g>
     </g>
    </g>
    <g id="xtick_5">
     <g id="line2d_5">
      <g>
       <use xlink:href="#me0c6baf076" x="217.15848" y="307.584" style="stroke: #000000; stroke-width: 0.8"/>
      </g>
     </g>
     <g id="text_5">
      <!-- 133 -->
      <g transform="translate(207.61473 322.182437) scale(0.1 -0.1)">
       <use xlink:href="#DejaVuSans-31"/>
       <use xlink:href="#DejaVuSans-33" x="63.623047"/>
       <use xlink:href="#DejaVuSans-33" x="127.246094"/>
      </g>
     </g>
    </g>
    <g id="xtick_6">
     <g id="line2d_6">
      <g>
       <use xlink:href="#me0c6baf076" x="254.075719" y="307.584" style="stroke: #000000; stroke-width: 0.8"/>
      </g>
     </g>
     <g id="text_6">
      <!-- 167 -->
      <g transform="translate(244.531969 322.182437) scale(0.1 -0.1)">
       <use xlink:href="#DejaVuSans-31"/>
       <use xlink:href="#DejaVuSans-36" x="63.623047"/>
       <use xlink:href="#DejaVuSans-37" x="127.246094"/>
      </g>
     </g>
    </g>
    <g id="xtick_7">
     <g id="line2d_7">
      <g>
       <use xlink:href="#me0c6baf076" x="289.907157" y="307.584" style="stroke: #000000; stroke-width: 0.8"/>
      </g>
     </g>
     <g id="text_7">
      <!-- 200 -->
      <g transform="translate(280.363407 322.182437) scale(0.1 -0.1)">
       <defs>
        <path id="DejaVuSans-32" d="M 1228 531 
L 3431 531 
L 3431 0 
L 469 0 
L 469 531 
Q 828 903 1448 1529 
Q 2069 2156 2228 2338 
Q 2531 2678 2651 2914 
Q 2772 3150 2772 3378 
Q 2772 3750 2511 3984 
Q 2250 4219 1831 4219 
Q 1534 4219 1204 4116 
Q 875 4013 500 3803 
L 500 4441 
Q 881 4594 1212 4672 
Q 1544 4750 1819 4750 
Q 2544 4750 2975 4387 
Q 3406 4025 3406 3419 
Q 3406 3131 3298 2873 
Q 3191 2616 2906 2266 
Q 2828 2175 2409 1742 
Q 1991 1309 1228 531 
z
" transform="scale(0.015625)"/>
       </defs>
       <use xlink:href="#DejaVuSans-32"/>
       <use xlink:href="#DejaVuSans-30" x="63.623047"/>
       <use xlink:href="#DejaVuSans-30" x="127.246094"/>
      </g>
     </g>
    </g>
    <g id="xtick_8">
     <g id="line2d_8">
      <g>
       <use xlink:href="#me0c6baf076" x="325.738595" y="307.584" style="stroke: #000000; stroke-width: 0.8"/>
      </g>
     </g>
     <g id="text_8">
      <!-- 233 -->
      <g transform="translate(316.194845 322.182437) scale(0.1 -0.1)">
       <use xlink:href="#DejaVuSans-32"/>
       <use xlink:href="#DejaVuSans-33" x="63.623047"/>
       <use xlink:href="#DejaVuSans-33" x="127.246094"/>
      </g>
     </g>
    </g>
    <g id="xtick_9">
     <g id="line2d_9">
      <g>
       <use xlink:href="#me0c6baf076" x="361.570033" y="307.584" style="stroke: #000000; stroke-width: 0.8"/>
      </g>
     </g>
     <g id="text_9">
      <!-- 266 -->
      <g transform="translate(352.026283 322.182437) scale(0.1 -0.1)">
       <use xlink:href="#DejaVuSans-32"/>
       <use xlink:href="#DejaVuSans-36" x="63.623047"/>
       <use xlink:href="#DejaVuSans-36" x="127.246094"/>
      </g>
     </g>
    </g>
    <g id="xtick_10">
     <g id="line2d_10">
      <g>
       <use xlink:href="#me0c6baf076" x="398.487273" y="307.584" style="stroke: #000000; stroke-width: 0.8"/>
      </g>
     </g>
     <g id="text_10">
      <!-- 300 -->
      <g transform="translate(388.943523 322.182437) scale(0.1 -0.1)">
       <use xlink:href="#DejaVuSans-33"/>
       <use xlink:href="#DejaVuSans-30" x="63.623047"/>
       <use xlink:href="#DejaVuSans-30" x="127.246094"/>
      </g>
     </g>
    </g>
    <g id="text_11">
     <!-- Epochs -->
     <g transform="translate(218.244375 335.860562) scale(0.1 -0.1)">
      <defs>
       <path id="DejaVuSans-45" d="M 628 4666 
L 3578 4666 
L 3578 4134 
L 1259 4134 
L 1259 2753 
L 3481 2753 
L 3481 2222 
L 1259 2222 
L 1259 531 
L 3634 531 
L 3634 0 
L 628 0 
L 628 4666 
z
" transform="scale(0.015625)"/>
       <path id="DejaVuSans-70" d="M 1159 525 
L 1159 -1331 
L 581 -1331 
L 581 3500 
L 1159 3500 
L 1159 2969 
Q 1341 3281 1617 3432 
Q 1894 3584 2278 3584 
Q 2916 3584 3314 3078 
Q 3713 2572 3713 1747 
Q 3713 922 3314 415 
Q 2916 -91 2278 -91 
Q 1894 -91 1617 61 
Q 1341 213 1159 525 
z
M 3116 1747 
Q 3116 2381 2855 2742 
Q 2594 3103 2138 3103 
Q 1681 3103 1420 2742 
Q 1159 2381 1159 1747 
Q 1159 1113 1420 752 
Q 1681 391 2138 391 
Q 2594 391 2855 752 
Q 3116 1113 3116 1747 
z
" transform="scale(0.015625)"/>
       <path id="DejaVuSans-6f" d="M 1959 3097 
Q 1497 3097 1228 2736 
Q 959 2375 959 1747 
Q 959 1119 1226 758 
Q 1494 397 1959 397 
Q 2419 397 2687 759 
Q 2956 1122 2956 1747 
Q 2956 2369 2687 2733 
Q 2419 3097 1959 3097 
z
M 1959 3584 
Q 2709 3584 3137 3096 
Q 3566 2609 3566 1747 
Q 3566 888 3137 398 
Q 2709 -91 1959 -91 
Q 1206 -91 779 398 
Q 353 888 353 1747 
Q 353 2609 779 3096 
Q 1206 3584 1959 3584 
z
" transform="scale(0.015625)"/>
       <path id="DejaVuSans-63" d="M 3122 3366 
L 3122 2828 
Q 2878 2963 2633 3030 
Q 2388 3097 2138 3097 
Q 1578 3097 1268 2742 
Q 959 2388 959 1747 
Q 959 1106 1268 751 
Q 1578 397 2138 397 
Q 2388 397 2633 464 
Q 2878 531 3122 666 
L 3122 134 
Q 2881 22 2623 -34 
Q 2366 -91 2075 -91 
Q 1284 -91 818 406 
Q 353 903 353 1747 
Q 353 2603 823 3093 
Q 1294 3584 2113 3584 
Q 2378 3584 2631 3529 
Q 2884 3475 3122 3366 
z
" transform="scale(0.015625)"/>
       <path id="DejaVuSans-68" d="M 3513 2113 
L 3513 0 
L 2938 0 
L 2938 2094 
Q 2938 2591 2744 2837 
Q 2550 3084 2163 3084 
Q 1697 3084 1428 2787 
Q 1159 2491 1159 1978 
L 1159 0 
L 581 0 
L 581 4863 
L 1159 4863 
L 1159 2956 
Q 1366 3272 1645 3428 
Q 1925 3584 2291 3584 
Q 2894 3584 3203 3211 
Q 3513 2838 3513 2113 
z
" transform="scale(0.015625)"/>
       <path id="DejaVuSans-73" d="M 2834 3397 
L 2834 2853 
Q 2591 2978 2328 3040 
Q 2066 3103 1784 3103 
Q 1356 3103 1142 2972 
Q 928 2841 928 2578 
Q 928 2378 1081 2264 
Q 1234 2150 1697 2047 
L 1894 2003 
Q 2506 1872 2764 1633 
Q 3022 1394 3022 966 
Q 3022 478 2636 193 
Q 2250 -91 1575 -91 
Q 1294 -91 989 -36 
Q 684 19 347 128 
L 347 722 
Q 666 556 975 473 
Q 1284 391 1588 391 
Q 1994 391 2212 530 
Q 2431 669 2431 922 
Q 2431 1156 2273 1281 
Q 2116 1406 1581 1522 
L 1381 1569 
Q 847 1681 609 1914 
Q 372 2147 372 2553 
Q 372 3047 722 3315 
Q 1072 3584 1716 3584 
Q 2034 3584 2315 3537 
Q 2597 3491 2834 3397 
z
" transform="scale(0.015625)"/>
      </defs>
      <use xlink:href="#DejaVuSans-45"/>
      <use xlink:href="#DejaVuSans-70" x="63.183594"/>
      <use xlink:href="#DejaVuSans-6f" x="126.660156"/>
      <use xlink:href="#DejaVuSans-63" x="187.841797"/>
      <use xlink:href="#DejaVuSans-68" x="242.822266"/>
      <use xlink:href="#DejaVuSans-73" x="306.201172"/>
     </g>
    </g>
   </g>
   <g id="matplotlib.axis_2">
    <g id="ytick_1">
     <g id="line2d_11">
      <defs>
       <path id="madc4147449" d="M 0 0 
L -3.5 0 
" style="stroke: #000000; stroke-width: 0.8"/>
      </defs>
      <g>
       <use xlink:href="#madc4147449" x="57.6" y="285.681564" style="stroke: #000000; stroke-width: 0.8"/>
      </g>
     </g>
     <g id="text_12">
      <!-- 10 -->
      <g transform="translate(37.875 289.480782) scale(0.1 -0.1)">
       <use xlink:href="#DejaVuSans-31"/>
       <use xlink:href="#DejaVuSans-30" x="63.623047"/>
      </g>
     </g>
    </g>
    <g id="ytick_2">
     <g id="line2d_12">
      <g>
       <use xlink:href="#madc4147449" x="57.6" y="255.783892" style="stroke: #000000; stroke-width: 0.8"/>
      </g>
     </g>
     <g id="text_13">
      <!-- 20 -->
      <g transform="translate(37.875 259.583111) scale(0.1 -0.1)">
       <use xlink:href="#DejaVuSans-32"/>
       <use xlink:href="#DejaVuSans-30" x="63.623047"/>
      </g>
     </g>
    </g>
    <g id="ytick_3">
     <g id="line2d_13">
      <g>
       <use xlink:href="#madc4147449" x="57.6" y="225.88622" style="stroke: #000000; stroke-width: 0.8"/>
      </g>
     </g>
     <g id="text_14">
      <!-- 30 -->
      <g transform="translate(37.875 229.685439) scale(0.1 -0.1)">
       <use xlink:href="#DejaVuSans-33"/>
       <use xlink:href="#DejaVuSans-30" x="63.623047"/>
      </g>
     </g>
    </g>
    <g id="ytick_4">
     <g id="line2d_14">
      <g>
       <use xlink:href="#madc4147449" x="57.6" y="195.988549" style="stroke: #000000; stroke-width: 0.8"/>
      </g>
     </g>
     <g id="text_15">
      <!-- 40 -->
      <g transform="translate(37.875 199.787767) scale(0.1 -0.1)">
       <use xlink:href="#DejaVuSans-34"/>
       <use xlink:href="#DejaVuSans-30" x="63.623047"/>
      </g>
     </g>
    </g>
    <g id="ytick_5">
     <g id="line2d_15">
      <g>
       <use xlink:href="#madc4147449" x="57.6" y="166.090877" style="stroke: #000000; stroke-width: 0.8"/>
      </g>
     </g>
     <g id="text_16">
      <!-- 50 -->
      <g transform="translate(37.875 169.890096) scale(0.1 -0.1)">
       <defs>
        <path id="DejaVuSans-35" d="M 691 4666 
L 3169 4666 
L 3169 4134 
L 1269 4134 
L 1269 2991 
Q 1406 3038 1543 3061 
Q 1681 3084 1819 3084 
Q 2600 3084 3056 2656 
Q 3513 2228 3513 1497 
Q 3513 744 3044 326 
Q 2575 -91 1722 -91 
Q 1428 -91 1123 -41 
Q 819 9 494 109 
L 494 744 
Q 775 591 1075 516 
Q 1375 441 1709 441 
Q 2250 441 2565 725 
Q 2881 1009 2881 1497 
Q 2881 1984 2565 2268 
Q 2250 2553 1709 2553 
Q 1456 2553 1204 2497 
Q 953 2441 691 2322 
L 691 4666 
z
" transform="scale(0.015625)"/>
       </defs>
       <use xlink:href="#DejaVuSans-35"/>
       <use xlink:href="#DejaVuSans-30" x="63.623047"/>
      </g>
     </g>
    </g>
    <g id="ytick_6">
     <g id="line2d_16">
      <g>
       <use xlink:href="#madc4147449" x="57.6" y="136.193205" style="stroke: #000000; stroke-width: 0.8"/>
      </g>
     </g>
     <g id="text_17">
      <!-- 60 -->
      <g transform="translate(37.875 139.992424) scale(0.1 -0.1)">
       <use xlink:href="#DejaVuSans-36"/>
       <use xlink:href="#DejaVuSans-30" x="63.623047"/>
      </g>
     </g>
    </g>
    <g id="ytick_7">
     <g id="line2d_17">
      <g>
       <use xlink:href="#madc4147449" x="57.6" y="106.295534" style="stroke: #000000; stroke-width: 0.8"/>
      </g>
     </g>
     <g id="text_18">
      <!-- 70 -->
      <g transform="translate(37.875 110.094752) scale(0.1 -0.1)">
       <use xlink:href="#DejaVuSans-37"/>
       <use xlink:href="#DejaVuSans-30" x="63.623047"/>
      </g>
     </g>
    </g>
    <g id="ytick_8">
     <g id="line2d_18">
      <g>
       <use xlink:href="#madc4147449" x="57.6" y="76.397862" style="stroke: #000000; stroke-width: 0.8"/>
      </g>
     </g>
     <g id="text_19">
      <!-- 80 -->
      <g transform="translate(37.875 80.197081) scale(0.1 -0.1)">
       <defs>
        <path id="DejaVuSans-38" d="M 2034 2216 
Q 1584 2216 1326 1975 
Q 1069 1734 1069 1313 
Q 1069 891 1326 650 
Q 1584 409 2034 409 
Q 2484 409 2743 651 
Q 3003 894 3003 1313 
Q 3003 1734 2745 1975 
Q 2488 2216 2034 2216 
z
M 1403 2484 
Q 997 2584 770 2862 
Q 544 3141 544 3541 
Q 544 4100 942 4425 
Q 1341 4750 2034 4750 
Q 2731 4750 3128 4425 
Q 3525 4100 3525 3541 
Q 3525 3141 3298 2862 
Q 3072 2584 2669 2484 
Q 3125 2378 3379 2068 
Q 3634 1759 3634 1313 
Q 3634 634 3220 271 
Q 2806 -91 2034 -91 
Q 1263 -91 848 271 
Q 434 634 434 1313 
Q 434 1759 690 2068 
Q 947 2378 1403 2484 
z
M 1172 3481 
Q 1172 3119 1398 2916 
Q 1625 2713 2034 2713 
Q 2441 2713 2670 2916 
Q 2900 3119 2900 3481 
Q 2900 3844 2670 4047 
Q 2441 4250 2034 4250 
Q 1625 4250 1398 4047 
Q 1172 3844 1172 3481 
z
" transform="scale(0.015625)"/>
       </defs>
       <use xlink:href="#DejaVuSans-38"/>
       <use xlink:href="#DejaVuSans-30" x="63.623047"/>
      </g>
     </g>
    </g>
    <g id="ytick_9">
     <g id="line2d_19">
      <g>
       <use xlink:href="#madc4147449" x="57.6" y="46.50019" style="stroke: #000000; stroke-width: 0.8"/>
      </g>
     </g>
     <g id="text_20">
      <!-- 90 -->
      <g transform="translate(37.875 50.299409) scale(0.1 -0.1)">
       <defs>
        <path id="DejaVuSans-39" d="M 703 97 
L 703 672 
Q 941 559 1184 500 
Q 1428 441 1663 441 
Q 2288 441 2617 861 
Q 2947 1281 2994 2138 
Q 2813 1869 2534 1725 
Q 2256 1581 1919 1581 
Q 1219 1581 811 2004 
Q 403 2428 403 3163 
Q 403 3881 828 4315 
Q 1253 4750 1959 4750 
Q 2769 4750 3195 4129 
Q 3622 3509 3622 2328 
Q 3622 1225 3098 567 
Q 2575 -91 1691 -91 
Q 1453 -91 1209 -44 
Q 966 3 703 97 
z
M 1959 2075 
Q 2384 2075 2632 2365 
Q 2881 2656 2881 3163 
Q 2881 3666 2632 3958 
Q 2384 4250 1959 4250 
Q 1534 4250 1286 3958 
Q 1038 3666 1038 3163 
Q 1038 2656 1286 2365 
Q 1534 2075 1959 2075 
z
" transform="scale(0.015625)"/>
       </defs>
       <use xlink:href="#DejaVuSans-39"/>
       <use xlink:href="#DejaVuSans-30" x="63.623047"/>
      </g>
     </g>
    </g>
    <g id="text_21">
     <!-- Accuracy -->
     <g transform="translate(31.795312 197.356125) rotate(-90) scale(0.1 -0.1)">
      <defs>
       <path id="DejaVuSans-41" d="M 2188 4044 
L 1331 1722 
L 3047 1722 
L 2188 4044 
z
M 1831 4666 
L 2547 4666 
L 4325 0 
L 3669 0 
L 3244 1197 
L 1141 1197 
L 716 0 
L 50 0 
L 1831 4666 
z
" transform="scale(0.015625)"/>
       <path id="DejaVuSans-75" d="M 544 1381 
L 544 3500 
L 1119 3500 
L 1119 1403 
Q 1119 906 1312 657 
Q 1506 409 1894 409 
Q 2359 409 2629 706 
Q 2900 1003 2900 1516 
L 2900 3500 
L 3475 3500 
L 3475 0 
L 2900 0 
L 2900 538 
Q 2691 219 2414 64 
Q 2138 -91 1772 -91 
Q 1169 -91 856 284 
Q 544 659 544 1381 
z
M 1991 3584 
L 1991 3584 
z
" transform="scale(0.015625)"/>
       <path id="DejaVuSans-72" d="M 2631 2963 
Q 2534 3019 2420 3045 
Q 2306 3072 2169 3072 
Q 1681 3072 1420 2755 
Q 1159 2438 1159 1844 
L 1159 0 
L 581 0 
L 581 3500 
L 1159 3500 
L 1159 2956 
Q 1341 3275 1631 3429 
Q 1922 3584 2338 3584 
Q 2397 3584 2469 3576 
Q 2541 3569 2628 3553 
L 2631 2963 
z
" transform="scale(0.015625)"/>
       <path id="DejaVuSans-61" d="M 2194 1759 
Q 1497 1759 1228 1600 
Q 959 1441 959 1056 
Q 959 750 1161 570 
Q 1363 391 1709 391 
Q 2188 391 2477 730 
Q 2766 1069 2766 1631 
L 2766 1759 
L 2194 1759 
z
M 3341 1997 
L 3341 0 
L 2766 0 
L 2766 531 
Q 2569 213 2275 61 
Q 1981 -91 1556 -91 
Q 1019 -91 701 211 
Q 384 513 384 1019 
Q 384 1609 779 1909 
Q 1175 2209 1959 2209 
L 2766 2209 
L 2766 2266 
Q 2766 2663 2505 2880 
Q 2244 3097 1772 3097 
Q 1472 3097 1187 3025 
Q 903 2953 641 2809 
L 641 3341 
Q 956 3463 1253 3523 
Q 1550 3584 1831 3584 
Q 2591 3584 2966 3190 
Q 3341 2797 3341 1997 
z
" transform="scale(0.015625)"/>
       <path id="DejaVuSans-79" d="M 2059 -325 
Q 1816 -950 1584 -1140 
Q 1353 -1331 966 -1331 
L 506 -1331 
L 506 -850 
L 844 -850 
Q 1081 -850 1212 -737 
Q 1344 -625 1503 -206 
L 1606 56 
L 191 3500 
L 800 3500 
L 1894 763 
L 2988 3500 
L 3597 3500 
L 2059 -325 
z
" transform="scale(0.015625)"/>
      </defs>
      <use xlink:href="#DejaVuSans-41"/>
      <use xlink:href="#DejaVuSans-63" x="66.658203"/>
      <use xlink:href="#DejaVuSans-63" x="121.638672"/>
      <use xlink:href="#DejaVuSans-75" x="176.619141"/>
      <use xlink:href="#DejaVuSans-72" x="239.998047"/>
      <use xlink:href="#DejaVuSans-61" x="281.111328"/>
      <use xlink:href="#DejaVuSans-63" x="342.390625"/>
      <use xlink:href="#DejaVuSans-79" x="397.371094"/>
     </g>
    </g>
   </g>
   <g id="line2d_20">
    <path d="M 73.832727 295.488 
L 74.918528 275.008095 
L 76.00433 256.96186 
L 77.090131 241.16991 
L 79.261733 216.845164 
L 81.433335 200.012775 
L 82.519137 195.922774 
L 83.604938 188.466295 
L 84.690739 183.323895 
L 85.77654 177.266627 
L 86.862341 172.447122 
L 87.948142 168.978992 
L 89.033943 164.829195 
L 90.119745 162.138405 
L 91.205546 159.064924 
L 92.291347 157.013944 
L 93.377148 155.471224 
L 94.462949 153.354469 
L 95.54875 181.051672 
L 96.634552 180.124844 
L 97.720353 175.867416 
L 98.806154 173.816435 
L 99.891955 170.109124 
L 100.977756 168.058144 
L 102.063557 164.368771 
L 103.149358 163.537616 
L 104.23516 159.280187 
L 105.320961 158.317482 
L 106.406762 155.357613 
L 107.492563 153.246837 
L 109.664165 147.464628 
L 110.749967 146.352434 
L 111.835768 143.231117 
L 112.921569 143.643705 
L 114.00737 139.452052 
L 116.178972 135.798556 
L 117.264773 131.816186 
L 118.350575 128.670951 
L 119.436376 128.407852 
L 120.522177 125.531696 
L 121.607978 126.279137 
L 122.693779 123.869385 
L 123.77958 120.502907 
L 124.865382 119.091737 
L 125.951183 116.430844 
L 127.036984 114.314089 
L 129.208586 111.126997 
L 131.380189 109.123853 
L 132.46599 107.575154 
L 133.551791 107.306075 
L 134.637592 106.265636 
L 135.723393 104.9322 
L 136.809194 105.57201 
L 137.894995 104.657141 
L 138.980797 138.555121 
L 141.152399 141.090444 
L 142.2382 141.628602 
L 143.324001 139.661335 
L 144.409802 139.924435 
L 145.495604 136.970545 
L 147.667206 134.21398 
L 148.753007 132.444037 
L 149.838808 132.216815 
L 150.924609 129.669533 
L 152.01041 130.530586 
L 153.096212 127.863714 
L 154.182013 127.690308 
L 155.267814 128.312179 
L 156.353615 126.619971 
L 157.439416 126.051915 
L 158.525217 123.67804 
L 159.611019 123.187718 
L 160.69682 120.783945 
L 162.868422 119.04988 
L 166.125825 115.874748 
L 167.211627 113.985215 
L 168.297428 113.441077 
L 169.383229 111.772787 
L 170.46903 113.321487 
L 171.554831 110.804103 
L 172.640632 108.878693 
L 173.726434 110.295842 
L 174.812235 107.276177 
L 175.898036 104.627244 
L 176.983837 103.485153 
L 178.069638 105.093647 
L 179.155439 102.205532 
L 180.24124 101.697272 
L 181.327042 99.484844 
L 182.412843 98.755341 
L 183.498644 99.401131 
L 185.670246 96.608688 
L 186.756047 95.586188 
L 187.841849 93.12262 
L 188.92765 91.131435 
L 190.013451 90.868335 
L 191.099252 90.073057 
L 192.185053 89.0087 
L 193.270854 90.461727 
L 194.356656 86.359766 
L 195.442457 86.030892 
L 196.528258 85.564488 
L 197.614059 82.580701 
L 198.69986 82.544823 
L 199.785661 83.549385 
L 200.871462 80.978185 
L 201.957264 80.164969 
L 203.043065 78.72988 
L 204.128866 78.538535 
L 205.214667 77.701401 
L 206.300468 78.389047 
L 207.386269 74.047905 
L 209.557872 74.400698 
L 210.643673 73.545624 
L 211.729474 73.683153 
L 212.815275 72.254045 
L 213.901076 72.44539 
L 214.986877 71.42289 
L 216.072679 73.426034 
L 217.15848 69.479541 
L 218.244281 69.712743 
L 219.330082 71.135872 
L 220.415883 71.937129 
L 221.501684 70.430287 
L 222.587486 69.916047 
L 223.673287 68.684263 
L 224.759088 69.521398 
L 225.844889 108.179087 
L 226.93069 114.194499 
L 228.016491 114.864206 
L 230.188094 115.527935 
L 231.273895 112.89096 
L 232.359696 114.314089 
L 233.445497 114.272233 
L 234.531298 113.447057 
L 235.617099 111.174834 
L 236.702901 113.871604 
L 237.788702 110.57688 
L 238.874503 111.850521 
L 239.960304 109.404892 
L 241.046105 109.871295 
L 242.131906 108.932508 
L 243.217708 107.431645 
L 244.303509 108.454146 
L 245.38931 108.436207 
L 246.475111 106.654306 
L 247.560912 108.167128 
L 248.646713 105.673662 
L 249.732514 105.261074 
L 250.818316 106.289554 
L 251.904117 104.059188 
L 252.989918 103.921659 
L 254.075719 102.474611 
L 255.16152 105.57799 
L 256.247321 102.929056 
L 257.333123 102.606161 
L 258.418924 101.625517 
L 259.504725 102.941015 
L 260.590526 99.843616 
L 261.676327 98.934727 
L 262.762128 99.975166 
L 263.847929 98.695546 
L 264.933731 98.599873 
L 266.019532 99.371233 
L 267.105333 98.420487 
L 268.191134 99.293499 
L 269.276935 98.563996 
L 270.362736 96.626627 
L 271.448538 97.643148 
L 272.534339 94.079345 
L 273.62014 93.798307 
L 274.705941 92.853541 
L 275.791742 95.024112 
L 276.877543 93.541187 
L 277.963344 94.13914 
L 279.049146 92.871479 
L 280.134947 89.893671 
L 281.220748 94.115222 
L 282.306549 91.508145 
L 283.39235 89.762121 
L 284.478151 89.116332 
L 285.563953 89.00272 
L 286.649754 91.095557 
L 287.735555 88.022077 
L 288.821356 86.844109 
L 289.907157 85.983056 
L 290.992958 88.153627 
L 292.07876 87.573612 
L 293.164561 85.941199 
L 294.250362 85.020351 
L 295.336163 85.845526 
L 296.421964 85.068187 
L 297.507765 85.66614 
L 298.593566 84.225073 
L 299.679368 82.281724 
L 300.765169 85.678099 
L 301.85097 83.387938 
L 302.936771 80.828697 
L 304.022572 82.485028 
L 305.108373 80.780861 
L 306.194175 80.5357 
L 307.279976 78.502658 
L 308.365777 78.951123 
L 309.451578 81.04994 
L 310.537379 78.143886 
L 311.62318 78.460801 
L 312.708981 77.83893 
L 313.794783 75.608564 
L 314.880584 76.409821 
L 315.966385 76.774573 
L 317.052186 74.077803 
L 318.137987 75.955377 
L 319.223788 72.935712 
L 321.395391 74.687715 
L 322.481192 74.173475 
L 323.566993 73.294484 
L 324.652794 70.107392 
L 325.738595 69.383868 
L 326.824396 72.098577 
L 327.910198 72.236106 
L 328.995999 69.676865 
L 330.0818 67.727537 
L 332.253402 68.857669 
L 333.339203 67.912903 
L 334.425005 67.261134 
L 335.510806 65.6347 
L 336.596607 65.042726 
L 337.682408 66.848546 
L 338.768209 62.668851 
L 339.85401 64.396937 
L 340.939811 62.537301 
L 342.025613 64.917156 
L 343.111414 62.465547 
L 344.197215 62.650913 
L 345.283016 60.809216 
L 346.368817 61.801819 
L 347.454618 61.502842 
L 348.54042 59.631248 
L 349.626221 61.263661 
L 350.712022 61.179947 
L 351.797823 61.736044 
L 352.883624 59.404026 
L 353.969425 58.937622 
L 355.055227 59.027315 
L 356.141028 56.569726 
L 357.226829 57.813469 
L 358.31263 58.459259 
L 359.398431 56.886642 
L 360.484232 55.648878 
L 361.570033 57.950999 
L 362.655835 54.769886 
L 363.741636 54.33338 
L 364.827437 53.568 
L 365.913238 54.148015 
L 366.999039 56.402299 
L 368.08484 55.027006 
L 369.170642 56.701276 
L 370.256443 55.559185 
L 371.342244 56.163118 
L 372.428045 59.099069 
L 373.513846 58.656584 
L 374.599647 60.486321 
L 375.685448 58.883806 
L 376.77125 60.151467 
L 378.942852 58.178221 
L 380.028653 60.809216 
L 382.200255 59.720941 
L 383.286057 58.471218 
L 384.371858 58.794113 
L 385.457659 59.320312 
L 386.54346 58.214098 
L 387.629261 57.693879 
L 388.715062 58.602768 
L 389.800863 57.867285 
L 390.886665 58.806072 
L 391.972466 58.309771 
L 393.058267 59.649186 
L 395.229869 58.160282 
L 396.31567 59.134946 
L 397.401472 58.656584 
L 398.487273 59.128967 
L 398.487273 59.128967 
" clip-path="url(#p339831f3a3)" style="fill: none; stroke: #1f77b4; stroke-width: 1.5; stroke-linecap: square"/>
   </g>
   <g id="line2d_21">
    <path d="M 73.832727 286.638289 
L 74.918528 259.909771 
L 76.00433 244.153698 
L 77.090131 221.192286 
L 78.175932 210.99718 
L 80.347534 183.850094 
L 81.433335 177.691174 
L 82.519137 173.475602 
L 83.604938 170.097165 
L 84.690739 160.858785 
L 86.862341 151.441018 
L 87.948142 142.501614 
L 89.033943 139.09328 
L 90.119745 138.31594 
L 91.205546 134.399345 
L 92.291347 133.05395 
L 93.377148 130.662136 
L 94.462949 132.336406 
L 95.54875 155.835976 
L 96.634552 159.692775 
L 97.720353 150.065725 
L 98.806154 148.33166 
L 99.891955 153.743139 
L 100.977756 141.305707 
L 102.063557 140.139698 
L 103.149358 145.311995 
L 104.23516 141.813968 
L 105.320961 132.306508 
L 106.406762 131.409578 
L 107.492563 127.582676 
L 108.578364 126.566155 
L 109.664165 127.343495 
L 110.749967 125.788816 
L 111.835768 123.068128 
L 112.921569 121.513449 
L 114.00737 117.865933 
L 115.093171 119.659793 
L 116.178972 117.38757 
L 117.264773 113.41118 
L 118.350575 113.979235 
L 119.436376 112.275068 
L 120.522177 109.55438 
L 121.607978 107.939906 
L 122.693779 106.08625 
L 123.77958 105.308911 
L 124.865382 103.754232 
L 125.951183 104.262492 
L 127.036984 103.365562 
L 128.122785 102.827404 
L 129.208586 103.00679 
L 130.294387 100.734567 
L 131.380189 100.286102 
L 132.46599 97.834493 
L 133.551791 98.821116 
L 134.637592 98.073674 
L 136.809194 98.043776 
L 137.894995 97.445823 
L 138.980797 130.811624 
L 140.066598 121.423756 
L 141.152399 119.5701 
L 142.2382 123.456797 
L 143.324001 122.021709 
L 144.409802 124.413523 
L 145.495604 117.746342 
L 146.581405 119.749486 
L 147.667206 115.653505 
L 148.753007 118.972147 
L 149.838808 117.178286 
L 150.924609 117.77624 
L 152.01041 117.417468 
L 153.096212 114.039031 
L 154.182013 113.769952 
L 155.267814 111.049264 
L 156.353615 107.999701 
L 157.439416 113.710156 
L 158.525217 110.301822 
L 159.611019 113.829747 
L 160.69682 108.388371 
L 161.782621 108.059496 
L 162.868422 109.614175 
L 163.954223 108.567757 
L 165.040024 105.249115 
L 166.125825 108.119292 
L 167.211627 107.312055 
L 168.297428 105.57799 
L 169.383229 105.57799 
L 170.46903 105.996557 
L 171.554831 103.365562 
L 172.640632 101.33252 
L 173.726434 102.648018 
L 174.812235 100.04692 
L 175.898036 99.777841 
L 176.983837 101.601599 
L 178.069638 98.043776 
L 179.155439 100.136613 
L 180.24124 96.668483 
L 181.327042 98.64173 
L 182.412843 97.087051 
L 183.498644 99.419069 
L 184.584445 97.565414 
L 185.670246 95.024112 
L 186.756047 95.263293 
L 187.841849 95.263293 
L 188.92765 94.246772 
L 190.013451 92.871479 
L 191.099252 94.575646 
L 192.185053 91.286903 
L 194.356656 93.828205 
L 195.442457 93.349842 
L 196.528258 91.585879 
L 197.614059 91.974549 
L 198.69986 92.034344 
L 199.785661 92.303423 
L 200.871462 91.496186 
L 201.957264 90.449768 
L 203.043065 89.074475 
L 204.128866 90.001303 
L 206.300468 88.865191 
L 208.472071 88.715703 
L 209.557872 89.702326 
L 210.643673 87.938363 
L 211.729474 87.370308 
L 212.815275 86.592968 
L 213.901076 87.908466 
L 214.986877 87.071331 
L 216.072679 86.772354 
L 217.15848 87.489898 
L 218.244281 86.832149 
L 219.330082 86.832149 
L 220.415883 86.234196 
L 221.501684 87.190922 
L 222.587486 86.56307 
L 223.673287 86.712559 
L 224.759088 86.56307 
L 225.844889 107.969803 
L 226.93069 111.258547 
L 228.016491 116.191663 
L 229.102292 112.24517 
L 230.188094 111.408036 
L 231.273895 108.986324 
L 232.359696 110.152333 
L 233.445497 107.192464 
L 234.531298 109.285301 
L 235.617099 107.37185 
L 236.702901 105.159422 
L 237.788702 109.883254 
L 238.874503 107.611031 
L 239.960304 106.564613 
L 241.046105 105.847069 
L 242.131906 108.298678 
L 243.217708 109.404892 
L 244.303509 105.966659 
L 245.38931 105.966659 
L 246.475111 103.843925 
L 247.560912 109.404892 
L 248.646713 104.591366 
L 249.732514 101.362418 
L 250.818316 105.548092 
L 252.989918 102.498529 
L 254.075719 106.325431 
L 255.16152 104.830548 
L 256.247321 105.219218 
L 257.333123 103.604743 
L 258.418924 102.289246 
L 259.504725 107.013078 
L 260.590526 105.398604 
L 261.676327 102.588222 
L 262.762128 104.621264 
L 263.847929 102.528427 
L 264.933731 103.784129 
L 266.019532 103.365562 
L 268.191134 101.422213 
L 269.276935 101.601599 
L 270.362736 99.688148 
L 271.448538 102.61812 
L 272.534339 100.704669 
L 273.62014 103.156278 
L 274.705941 103.335664 
L 275.791742 101.153134 
L 276.877543 103.305767 
L 277.963344 99.239683 
L 279.049146 101.72119 
L 280.134947 99.837637 
L 281.220748 104.113004 
L 282.306549 103.933618 
L 283.39235 100.884055 
L 284.478151 104.113004 
L 285.563953 101.272725 
L 286.649754 102.050064 
L 287.735555 99.807739 
L 288.821356 100.345897 
L 289.907157 99.419069 
L 290.992958 96.429302 
L 292.07876 101.242827 
L 293.164561 100.674771 
L 294.250362 99.897432 
L 295.336163 98.462344 
L 296.421964 99.000502 
L 297.507765 97.625209 
L 298.593566 96.817972 
L 299.679368 98.731423 
L 300.765169 97.954083 
L 301.85097 95.711758 
L 302.936771 98.432446 
L 304.022572 98.611832 
L 305.108373 99.209786 
L 306.194175 97.35613 
L 307.279976 96.429302 
L 308.365777 98.223162 
L 309.451578 97.445823 
L 310.537379 98.312855 
L 311.62318 95.293191 
L 312.708981 97.326232 
L 313.794783 97.206642 
L 315.966385 95.442679 
L 317.052186 99.060297 
L 318.137987 96.07053 
L 319.223788 93.947795 
L 320.30959 97.655107 
L 321.395391 94.27667 
L 322.481192 94.097284 
L 323.566993 96.518995 
L 324.652794 93.888 
L 325.738595 94.695237 
L 326.824396 94.844725 
L 327.910198 94.067386 
L 328.995999 93.589023 
L 330.0818 93.768409 
L 331.167601 92.99107 
L 332.253402 94.605544 
L 333.339203 94.306567 
L 334.425005 93.050865 
L 335.510806 93.200354 
L 336.596607 91.944651 
L 337.682408 91.765265 
L 338.768209 92.423014 
L 339.85401 92.572502 
L 340.939811 92.004447 
L 342.025613 93.140558 
L 343.111414 91.735368 
L 344.197215 92.512707 
L 345.283016 91.944651 
L 346.368817 90.210586 
L 347.454618 91.615777 
L 348.54042 90.629154 
L 349.626221 91.675572 
L 350.712022 91.914754 
L 351.797823 90.778642 
L 352.883624 90.001303 
L 353.969425 91.615777 
L 355.055227 89.792019 
L 356.141028 91.346698 
L 357.226829 90.569358 
L 358.31263 89.971405 
L 359.398431 90.569358 
L 360.484232 88.566214 
L 361.570033 89.433247 
L 362.655835 88.386828 
L 363.741636 89.313656 
L 364.827437 89.313656 
L 365.913238 88.655907 
L 366.999039 88.476521 
L 368.08484 89.493042 
L 369.170642 89.552838 
L 370.256443 92.781786 
L 371.342244 89.612633 
L 372.428045 92.751888 
L 373.513846 90.838437 
L 374.599647 91.884856 
L 375.685448 91.346698 
L 376.77125 92.303423 
L 377.857051 92.034344 
L 378.942852 93.917898 
L 380.028653 90.240484 
L 382.200255 94.456056 
L 383.286057 92.482809 
L 384.371858 91.555982 
L 385.457659 91.3168 
L 386.54346 89.91161 
L 387.629261 92.99107 
L 388.715062 92.751888 
L 389.800863 92.243628 
L 390.886665 93.738512 
L 393.058267 90.868335 
L 394.144068 93.020968 
L 395.229869 92.064242 
L 396.31567 91.526084 
L 397.401472 94.456056 
L 398.487273 93.349842 
L 398.487273 93.349842 
" clip-path="url(#p339831f3a3)" style="fill: none; stroke: #ff7f0e; stroke-width: 1.5; stroke-linecap: square"/>
   </g>
   <g id="line2d_22">
    <path d="M 73.832727 290.980627 
L 74.918528 266.093506 
L 76.00433 257.948782 
L 77.090131 239.330007 
L 78.175932 234.443233 
L 79.261733 228.051111 
L 81.433335 209.081636 
L 82.519137 208.421794 
L 83.604938 209.617701 
L 84.690739 205.988722 
L 85.77654 197.060679 
L 86.862341 197.844297 
L 87.948142 188.544925 
L 89.033943 185.905858 
L 90.119745 183.761298 
L 91.205546 184.070739 
L 92.291347 181.596408 
L 93.377148 179.431517 
L 94.462949 182.709797 
L 95.54875 197.926815 
L 96.634552 204.483673 
L 97.720353 194.462871 
L 98.806154 194.1328 
L 99.891955 202.916437 
L 100.977756 191.204921 
L 102.063557 190.627597 
L 103.149358 195.431854 
L 104.23516 189.534837 
L 105.320961 179.431517 
L 106.406762 184.75121 
L 107.492563 177.90554 
L 108.578364 181.555149 
L 109.664165 176.152938 
L 110.749967 177.596398 
L 111.835768 174.400337 
L 112.921569 172.1323 
L 114.00737 174.070566 
L 115.093171 172.50333 
L 116.178972 167.822849 
L 117.264773 164.049464 
L 118.350575 167.987884 
L 119.436376 163.328033 
L 120.522177 163.657805 
L 121.607978 160.58552 
L 122.693779 159.389613 
L 123.77958 157.616382 
L 124.865382 158.77103 
L 125.951183 158.4 
L 127.036984 157.760788 
L 128.122785 158.420629 
L 129.208586 160.131972 
L 130.294387 155.801892 
L 131.380189 156.95654 
L 132.46599 151.657477 
L 133.551791 154.667874 
L 134.637592 154.750391 
L 135.723393 154.605985 
L 136.809194 153.121566 
L 137.894995 153.637002 
L 138.980797 181.946808 
L 140.066598 175.987903 
L 141.152399 168.029143 
L 142.2382 175.34899 
L 143.324001 171.493087 
L 144.409802 177.328216 
L 145.495604 172.4827 
L 146.581405 176.359232 
L 147.667206 167.905367 
L 148.753007 171.802229 
L 149.838808 170.709469 
L 150.924609 173.802384 
L 152.01041 168.915609 
L 153.096212 167.307413 
L 154.182013 170.668211 
L 155.267814 163.369292 
L 156.353615 163.389921 
L 157.439416 165.348518 
L 158.525217 164.626788 
L 159.611019 165.6167 
L 160.69682 161.327879 
L 162.868422 164.441423 
L 163.954223 160.21449 
L 165.040024 159.039212 
L 166.125825 162.461898 
L 167.211627 158.915436 
L 168.297428 158.647254 
L 169.383229 160.070084 
L 170.46903 164.626788 
L 171.554831 160.998108 
L 172.640632 156.771175 
L 173.726434 156.482363 
L 174.812235 154.688503 
L 175.898036 153.430708 
L 176.983837 156.234811 
L 178.069638 149.636992 
L 179.155439 154.709132 
L 180.24124 153.204084 
L 181.327042 152.234801 
L 182.412843 154.276214 
L 183.498644 155.822522 
L 184.584445 153.451337 
L 185.670246 147.471803 
L 186.756047 149.492587 
L 187.841849 150.585347 
L 190.013451 146.894479 
L 191.099252 149.719211 
L 192.185053 147.20392 
L 193.270854 145.141878 
L 194.356656 148.502675 
L 195.442457 149.513216 
L 196.528258 148.791486 
L 197.614059 143.636829 
L 198.69986 147.389285 
L 199.785661 146.997626 
L 201.957264 143.471794 
L 203.043065 141.05935 
L 204.128866 142.997616 
L 205.214667 143.616199 
L 206.300468 144.832736 
L 207.386269 143.533682 
L 208.472071 141.121239 
L 209.557872 143.389276 
L 210.643673 140.461397 
L 211.729474 140.420138 
L 212.815275 141.863598 
L 213.901076 140.275732 
L 214.986877 140.420138 
L 216.072679 140.193215 
L 217.15848 142.646917 
L 219.330082 140.007849 
L 220.415883 139.884073 
L 221.501684 140.997462 
L 222.587486 139.63652 
L 223.673287 140.72928 
L 224.759088 140.069738 
L 225.844889 162.276233 
L 226.93069 167.946626 
L 228.016491 170.194034 
L 229.102292 163.224886 
L 230.188094 164.214499 
L 231.273895 162.049609 
L 232.359696 165.431035 
L 233.445497 160.977478 
L 234.531298 163.987875 
L 235.617099 160.255748 
L 236.702901 160.853702 
L 237.788702 163.699063 
L 238.874503 161.245361 
L 239.960304 161.719538 
L 241.046105 156.97717 
L 242.131906 166.895124 
L 243.217708 166.730089 
L 244.303509 159.430872 
L 245.38931 157.760788 
L 246.475111 162.400009 
L 247.560912 161.410397 
L 248.646713 159.348354 
L 249.732514 158.338112 
L 250.818316 156.25544 
L 251.904117 159.142359 
L 252.989918 155.575268 
L 254.075719 164.833082 
L 255.16152 154.296844 
L 256.247321 160.461743 
L 257.333123 157.286611 
L 258.418924 156.25544 
L 260.590526 158.647254 
L 261.676327 152.090395 
L 262.762128 157.30724 
L 263.847929 155.843151 
L 264.933731 155.51338 
L 266.019532 157.162834 
L 267.105333 155.245198 
L 268.191134 152.255431 
L 269.276935 151.162671 
L 270.362736 151.368965 
L 271.448538 156.812434 
L 272.534339 158.647254 
L 273.62014 157.410387 
L 274.705941 156.812434 
L 275.791742 155.49275 
L 276.877543 151.348335 
L 277.963344 151.203929 
L 279.049146 154.379361 
L 280.134947 151.389594 
L 281.220748 155.080163 
L 282.306549 155.905039 
L 283.39235 154.46158 
L 284.478151 158.688513 
L 285.563953 152.131654 
L 286.649754 152.791496 
L 287.735555 151.8844 
L 288.821356 151.739995 
L 289.907157 150.956377 
L 290.992958 151.080153 
L 292.07876 154.853538 
L 293.164561 151.224559 
L 294.250362 151.719365 
L 295.336163 147.636838 
L 296.421964 153.080307 
L 297.507765 150.85323 
L 298.593566 148.007868 
L 299.679368 151.719365 
L 300.765169 145.38943 
L 301.85097 149.348181 
L 302.936771 149.616363 
L 304.022572 149.203775 
L 305.108373 152.874013 
L 306.194175 151.389594 
L 307.279976 147.94598 
L 309.451578 148.193533 
L 310.537379 153.306932 
L 311.62318 146.440931 
L 312.708981 149.224405 
L 313.794783 145.430689 
L 314.880584 147.57495 
L 315.966385 146.688185 
L 317.052186 147.430544 
L 319.223788 143.430535 
L 320.30959 147.801873 
L 321.395391 147.636838 
L 322.481192 141.883928 
L 323.566993 144.832736 
L 324.652794 142.89447 
L 325.738595 148.770857 
L 326.824396 146.935738 
L 327.910198 142.89447 
L 328.995999 144.647071 
L 330.0818 140.440768 
L 331.167601 145.306913 
L 332.253402 144.523295 
L 333.339203 144.791477 
L 334.425005 141.657304 
L 335.510806 139.615891 
L 336.596607 140.461397 
L 337.682408 137.182818 
L 338.768209 142.585029 
L 339.85401 144.482036 
L 340.939811 143.121094 
L 342.025613 142.502511 
L 343.111414 140.647062 
L 344.197215 141.018092 
L 345.283016 139.389266 
L 346.368817 136.584865 
L 347.454618 140.811798 
L 348.54042 136.007541 
L 349.626221 139.471784 
L 350.712022 140.007849 
L 351.797823 138.54376 
L 352.883624 137.657294 
L 353.969425 141.100609 
L 355.055227 139.306749 
L 356.141028 139.739667 
L 357.226829 139.409896 
L 358.31263 139.471784 
L 359.398431 137.512889 
L 360.484232 136.37887 
L 361.570033 135.038557 
L 362.655835 134.914781 
L 363.741636 137.925178 
L 364.827437 136.997453 
L 365.913238 135.698399 
L 366.999039 137.595406 
L 368.08484 137.636665 
L 369.170642 136.853047 
L 370.256443 140.832427 
L 371.342244 139.884073 
L 372.428045 140.028479 
L 373.513846 140.378879 
L 374.599647 141.327234 
L 375.685448 139.533497 
L 376.77125 140.935595 
L 377.857051 140.688166 
L 378.942852 140.564451 
L 380.028653 139.203592 
L 381.114454 142.461407 
L 382.200255 144.626411 
L 383.286057 142.090263 
L 384.371858 142.234597 
L 385.457659 141.94593 
L 386.54346 138.873686 
L 388.715062 141.987168 
L 389.800863 141.100547 
L 390.886665 144.090315 
L 391.972466 141.409834 
L 393.058267 137.904589 
L 394.144068 142.110882 
L 395.229869 142.296454 
L 396.31567 139.69845 
L 397.401472 144.131553 
L 398.487273 141.471691 
L 398.487273 141.471691 
" clip-path="url(#p339831f3a3)" style="fill: none; stroke: #2ca02c; stroke-width: 1.5; stroke-linecap: square"/>
   </g>
   <g id="line2d_23">
    <path d="M 368.08484 88.147647 
L 369.170642 87.878568 
L 370.256443 91.406493 
L 371.342244 90.180689 
L 372.428045 92.692093 
L 373.513846 93.349842 
L 374.599647 92.423014 
L 375.685448 94.78493 
L 376.77125 94.216874 
L 377.857051 94.964316 
L 378.942852 93.947795 
L 380.028653 94.964316 
L 381.114454 92.423014 
L 382.200255 94.366363 
L 383.286057 98.402548 
L 384.371858 94.007591 
L 385.457659 92.871479 
L 386.54346 94.336465 
L 387.629261 92.751888 
L 388.715062 94.78493 
L 389.800863 94.904521 
L 390.886665 96.160223 
L 391.972466 98.223162 
L 393.058267 99.987125 
L 394.144068 100.196409 
L 395.229869 96.608688 
L 396.31567 101.751088 
L 397.401472 103.39546 
L 398.487273 102.648018 
L 398.487273 102.648018 
" clip-path="url(#p339831f3a3)" style="fill: none; stroke: #d62728; stroke-width: 1.5; stroke-linecap: square"/>
   </g>
   <g id="line2d_24">
    <path d="M 368.08484 136.399499 
L 369.170642 136.296352 
L 370.256443 141.409751 
L 371.342244 139.512744 
L 373.513846 143.141723 
L 374.599647 141.018092 
L 375.685448 143.9666 
L 376.77125 140.378879 
L 377.857051 143.677933 
L 378.942852 142.956265 
L 380.028653 139.01802 
L 381.114454 136.584968 
L 382.200255 136.791159 
L 383.286057 142.915027 
L 384.371858 142.358311 
L 385.457659 140.58507 
L 386.54346 139.347925 
L 387.629261 136.275682 
L 388.715062 140.028355 
L 389.800863 140.35826 
L 390.886665 143.389266 
L 391.972466 141.368595 
L 393.058267 143.451123 
L 394.144068 143.801647 
L 395.229869 140.028355 
L 396.31567 145.884175 
L 397.401472 144.915078 
L 398.487273 148.23475 
L 398.487273 148.23475 
" clip-path="url(#p339831f3a3)" style="fill: none; stroke: #9467bd; stroke-width: 1.5; stroke-linecap: square"/>
   </g>
   <g id="patch_3">
    <path d="M 57.6 307.584 
L 57.6 41.472 
" style="fill: none; stroke: #000000; stroke-width: 0.8; stroke-linejoin: miter; stroke-linecap: square"/>
   </g>
   <g id="patch_4">
    <path d="M 414.72 307.584 
L 414.72 41.472 
" style="fill: none; stroke: #000000; stroke-width: 0.8; stroke-linejoin: miter; stroke-linecap: square"/>
   </g>
   <g id="patch_5">
    <path d="M 57.6 307.584 
L 414.72 307.584 
" style="fill: none; stroke: #000000; stroke-width: 0.8; stroke-linejoin: miter; stroke-linecap: square"/>
   </g>
   <g id="patch_6">
    <path d="M 57.6 41.472 
L 414.72 41.472 
" style="fill: none; stroke: #000000; stroke-width: 0.8; stroke-linejoin: miter; stroke-linecap: square"/>
   </g>
   <g id="text_22">
    <!-- Learning Curves -->
    <g transform="translate(187.37625 35.472) scale(0.12 -0.12)">
     <defs>
      <path id="DejaVuSans-4c" d="M 628 4666 
L 1259 4666 
L 1259 531 
L 3531 531 
L 3531 0 
L 628 0 
L 628 4666 
z
" transform="scale(0.015625)"/>
      <path id="DejaVuSans-65" d="M 3597 1894 
L 3597 1613 
L 953 1613 
Q 991 1019 1311 708 
Q 1631 397 2203 397 
Q 2534 397 2845 478 
Q 3156 559 3463 722 
L 3463 178 
Q 3153 47 2828 -22 
Q 2503 -91 2169 -91 
Q 1331 -91 842 396 
Q 353 884 353 1716 
Q 353 2575 817 3079 
Q 1281 3584 2069 3584 
Q 2775 3584 3186 3129 
Q 3597 2675 3597 1894 
z
M 3022 2063 
Q 3016 2534 2758 2815 
Q 2500 3097 2075 3097 
Q 1594 3097 1305 2825 
Q 1016 2553 972 2059 
L 3022 2063 
z
" transform="scale(0.015625)"/>
      <path id="DejaVuSans-6e" d="M 3513 2113 
L 3513 0 
L 2938 0 
L 2938 2094 
Q 2938 2591 2744 2837 
Q 2550 3084 2163 3084 
Q 1697 3084 1428 2787 
Q 1159 2491 1159 1978 
L 1159 0 
L 581 0 
L 581 3500 
L 1159 3500 
L 1159 2956 
Q 1366 3272 1645 3428 
Q 1925 3584 2291 3584 
Q 2894 3584 3203 3211 
Q 3513 2838 3513 2113 
z
" transform="scale(0.015625)"/>
      <path id="DejaVuSans-69" d="M 603 3500 
L 1178 3500 
L 1178 0 
L 603 0 
L 603 3500 
z
M 603 4863 
L 1178 4863 
L 1178 4134 
L 603 4134 
L 603 4863 
z
" transform="scale(0.015625)"/>
      <path id="DejaVuSans-67" d="M 2906 1791 
Q 2906 2416 2648 2759 
Q 2391 3103 1925 3103 
Q 1463 3103 1205 2759 
Q 947 2416 947 1791 
Q 947 1169 1205 825 
Q 1463 481 1925 481 
Q 2391 481 2648 825 
Q 2906 1169 2906 1791 
z
M 3481 434 
Q 3481 -459 3084 -895 
Q 2688 -1331 1869 -1331 
Q 1566 -1331 1297 -1286 
Q 1028 -1241 775 -1147 
L 775 -588 
Q 1028 -725 1275 -790 
Q 1522 -856 1778 -856 
Q 2344 -856 2625 -561 
Q 2906 -266 2906 331 
L 2906 616 
Q 2728 306 2450 153 
Q 2172 0 1784 0 
Q 1141 0 747 490 
Q 353 981 353 1791 
Q 353 2603 747 3093 
Q 1141 3584 1784 3584 
Q 2172 3584 2450 3431 
Q 2728 3278 2906 2969 
L 2906 3500 
L 3481 3500 
L 3481 434 
z
" transform="scale(0.015625)"/>
      <path id="DejaVuSans-20" transform="scale(0.015625)"/>
      <path id="DejaVuSans-43" d="M 4122 4306 
L 4122 3641 
Q 3803 3938 3442 4084 
Q 3081 4231 2675 4231 
Q 1875 4231 1450 3742 
Q 1025 3253 1025 2328 
Q 1025 1406 1450 917 
Q 1875 428 2675 428 
Q 3081 428 3442 575 
Q 3803 722 4122 1019 
L 4122 359 
Q 3791 134 3420 21 
Q 3050 -91 2638 -91 
Q 1578 -91 968 557 
Q 359 1206 359 2328 
Q 359 3453 968 4101 
Q 1578 4750 2638 4750 
Q 3056 4750 3426 4639 
Q 3797 4528 4122 4306 
z
" transform="scale(0.015625)"/>
      <path id="DejaVuSans-76" d="M 191 3500 
L 800 3500 
L 1894 563 
L 2988 3500 
L 3597 3500 
L 2284 0 
L 1503 0 
L 191 3500 
z
" transform="scale(0.015625)"/>
     </defs>
     <use xlink:href="#DejaVuSans-4c"/>
     <use xlink:href="#DejaVuSans-65" x="53.962891"/>
     <use xlink:href="#DejaVuSans-61" x="115.486328"/>
     <use xlink:href="#DejaVuSans-72" x="176.765625"/>
     <use xlink:href="#DejaVuSans-6e" x="216.128906"/>
     <use xlink:href="#DejaVuSans-69" x="279.507812"/>
     <use xlink:href="#DejaVuSans-6e" x="307.291016"/>
     <use xlink:href="#DejaVuSans-67" x="370.669922"/>
     <use xlink:href="#DejaVuSans-20" x="434.146484"/>
     <use xlink:href="#DejaVuSans-43" x="465.933594"/>
     <use xlink:href="#DejaVuSans-75" x="535.757812"/>
     <use xlink:href="#DejaVuSans-72" x="599.136719"/>
     <use xlink:href="#DejaVuSans-76" x="640.25"/>
     <use xlink:href="#DejaVuSans-65" x="699.429688"/>
     <use xlink:href="#DejaVuSans-73" x="760.953125"/>
    </g>
   </g>
   <g id="legend_1">
    <g id="patch_7">
     <path d="M 214.18875 302.584 
L 407.72 302.584 
Q 409.72 302.584 409.72 300.584 
L 409.72 228.193375 
Q 409.72 226.193375 407.72 226.193375 
L 214.18875 226.193375 
Q 212.18875 226.193375 212.18875 228.193375 
L 212.18875 300.584 
Q 212.18875 302.584 214.18875 302.584 
z
" style="fill: #ffffff; opacity: 0.8; stroke: #cccccc; stroke-linejoin: miter"/>
    </g>
    <g id="line2d_25">
     <path d="M 216.18875 234.291812 
L 226.18875 234.291812 
L 236.18875 234.291812 
" style="fill: none; stroke: #1f77b4; stroke-width: 1.5; stroke-linecap: square"/>
    </g>
    <g id="text_23">
     <!-- Train Accuracy -->
     <g transform="translate(244.18875 237.791812) scale(0.1 -0.1)">
      <defs>
       <path id="DejaVuSans-54" d="M -19 4666 
L 3928 4666 
L 3928 4134 
L 2272 4134 
L 2272 0 
L 1638 0 
L 1638 4134 
L -19 4134 
L -19 4666 
z
" transform="scale(0.015625)"/>
      </defs>
      <use xlink:href="#DejaVuSans-54"/>
      <use xlink:href="#DejaVuSans-72" x="46.333984"/>
      <use xlink:href="#DejaVuSans-61" x="87.447266"/>
      <use xlink:href="#DejaVuSans-69" x="148.726562"/>
      <use xlink:href="#DejaVuSans-6e" x="176.509766"/>
      <use xlink:href="#DejaVuSans-20" x="239.888672"/>
      <use xlink:href="#DejaVuSans-41" x="271.675781"/>
      <use xlink:href="#DejaVuSans-63" x="338.333984"/>
      <use xlink:href="#DejaVuSans-63" x="393.314453"/>
      <use xlink:href="#DejaVuSans-75" x="448.294922"/>
      <use xlink:href="#DejaVuSans-72" x="511.673828"/>
      <use xlink:href="#DejaVuSans-61" x="552.787109"/>
      <use xlink:href="#DejaVuSans-63" x="614.066406"/>
      <use xlink:href="#DejaVuSans-79" x="669.046875"/>
     </g>
    </g>
    <g id="line2d_26">
     <path d="M 216.18875 248.969937 
L 226.18875 248.969937 
L 236.18875 248.969937 
" style="fill: none; stroke: #ff7f0e; stroke-width: 1.5; stroke-linecap: square"/>
    </g>
    <g id="text_24">
     <!-- Validation Accuracy -->
     <g transform="translate(244.18875 252.469937) scale(0.1 -0.1)">
      <defs>
       <path id="DejaVuSans-56" d="M 1831 0 
L 50 4666 
L 709 4666 
L 2188 738 
L 3669 4666 
L 4325 4666 
L 2547 0 
L 1831 0 
z
" transform="scale(0.015625)"/>
       <path id="DejaVuSans-6c" d="M 603 4863 
L 1178 4863 
L 1178 0 
L 603 0 
L 603 4863 
z
" transform="scale(0.015625)"/>
       <path id="DejaVuSans-64" d="M 2906 2969 
L 2906 4863 
L 3481 4863 
L 3481 0 
L 2906 0 
L 2906 525 
Q 2725 213 2448 61 
Q 2172 -91 1784 -91 
Q 1150 -91 751 415 
Q 353 922 353 1747 
Q 353 2572 751 3078 
Q 1150 3584 1784 3584 
Q 2172 3584 2448 3432 
Q 2725 3281 2906 2969 
z
M 947 1747 
Q 947 1113 1208 752 
Q 1469 391 1925 391 
Q 2381 391 2643 752 
Q 2906 1113 2906 1747 
Q 2906 2381 2643 2742 
Q 2381 3103 1925 3103 
Q 1469 3103 1208 2742 
Q 947 2381 947 1747 
z
" transform="scale(0.015625)"/>
       <path id="DejaVuSans-74" d="M 1172 4494 
L 1172 3500 
L 2356 3500 
L 2356 3053 
L 1172 3053 
L 1172 1153 
Q 1172 725 1289 603 
Q 1406 481 1766 481 
L 2356 481 
L 2356 0 
L 1766 0 
Q 1100 0 847 248 
Q 594 497 594 1153 
L 594 3053 
L 172 3053 
L 172 3500 
L 594 3500 
L 594 4494 
L 1172 4494 
z
" transform="scale(0.015625)"/>
      </defs>
      <use xlink:href="#DejaVuSans-56"/>
      <use xlink:href="#DejaVuSans-61" x="60.658203"/>
      <use xlink:href="#DejaVuSans-6c" x="121.9375"/>
      <use xlink:href="#DejaVuSans-69" x="149.720703"/>
      <use xlink:href="#DejaVuSans-64" x="177.503906"/>
      <use xlink:href="#DejaVuSans-61" x="240.980469"/>
      <use xlink:href="#DejaVuSans-74" x="302.259766"/>
      <use xlink:href="#DejaVuSans-69" x="341.46875"/>
      <use xlink:href="#DejaVuSans-6f" x="369.251953"/>
      <use xlink:href="#DejaVuSans-6e" x="430.433594"/>
      <use xlink:href="#DejaVuSans-20" x="493.8125"/>
      <use xlink:href="#DejaVuSans-41" x="525.599609"/>
      <use xlink:href="#DejaVuSans-63" x="592.257812"/>
      <use xlink:href="#DejaVuSans-63" x="647.238281"/>
      <use xlink:href="#DejaVuSans-75" x="702.21875"/>
      <use xlink:href="#DejaVuSans-72" x="765.597656"/>
      <use xlink:href="#DejaVuSans-61" x="806.710938"/>
      <use xlink:href="#DejaVuSans-63" x="867.990234"/>
      <use xlink:href="#DejaVuSans-79" x="922.970703"/>
     </g>
    </g>
    <g id="line2d_27">
     <path d="M 216.18875 263.648062 
L 226.18875 263.648062 
L 236.18875 263.648062 
" style="fill: none; stroke: #2ca02c; stroke-width: 1.5; stroke-linecap: square"/>
    </g>
    <g id="text_25">
     <!-- Robust Validation Accuracy -->
     <g transform="translate(244.18875 267.148062) scale(0.1 -0.1)">
      <defs>
       <path id="DejaVuSans-52" d="M 2841 2188 
Q 3044 2119 3236 1894 
Q 3428 1669 3622 1275 
L 4263 0 
L 3584 0 
L 2988 1197 
Q 2756 1666 2539 1819 
Q 2322 1972 1947 1972 
L 1259 1972 
L 1259 0 
L 628 0 
L 628 4666 
L 2053 4666 
Q 2853 4666 3247 4331 
Q 3641 3997 3641 3322 
Q 3641 2881 3436 2590 
Q 3231 2300 2841 2188 
z
M 1259 4147 
L 1259 2491 
L 2053 2491 
Q 2509 2491 2742 2702 
Q 2975 2913 2975 3322 
Q 2975 3731 2742 3939 
Q 2509 4147 2053 4147 
L 1259 4147 
z
" transform="scale(0.015625)"/>
       <path id="DejaVuSans-62" d="M 3116 1747 
Q 3116 2381 2855 2742 
Q 2594 3103 2138 3103 
Q 1681 3103 1420 2742 
Q 1159 2381 1159 1747 
Q 1159 1113 1420 752 
Q 1681 391 2138 391 
Q 2594 391 2855 752 
Q 3116 1113 3116 1747 
z
M 1159 2969 
Q 1341 3281 1617 3432 
Q 1894 3584 2278 3584 
Q 2916 3584 3314 3078 
Q 3713 2572 3713 1747 
Q 3713 922 3314 415 
Q 2916 -91 2278 -91 
Q 1894 -91 1617 61 
Q 1341 213 1159 525 
L 1159 0 
L 581 0 
L 581 4863 
L 1159 4863 
L 1159 2969 
z
" transform="scale(0.015625)"/>
      </defs>
      <use xlink:href="#DejaVuSans-52"/>
      <use xlink:href="#DejaVuSans-6f" x="64.982422"/>
      <use xlink:href="#DejaVuSans-62" x="126.164062"/>
      <use xlink:href="#DejaVuSans-75" x="189.640625"/>
      <use xlink:href="#DejaVuSans-73" x="253.019531"/>
      <use xlink:href="#DejaVuSans-74" x="305.119141"/>
      <use xlink:href="#DejaVuSans-20" x="344.328125"/>
      <use xlink:href="#DejaVuSans-56" x="376.115234"/>
      <use xlink:href="#DejaVuSans-61" x="436.773438"/>
      <use xlink:href="#DejaVuSans-6c" x="498.052734"/>
      <use xlink:href="#DejaVuSans-69" x="525.835938"/>
      <use xlink:href="#DejaVuSans-64" x="553.619141"/>
      <use xlink:href="#DejaVuSans-61" x="617.095703"/>
      <use xlink:href="#DejaVuSans-74" x="678.375"/>
      <use xlink:href="#DejaVuSans-69" x="717.583984"/>
      <use xlink:href="#DejaVuSans-6f" x="745.367188"/>
      <use xlink:href="#DejaVuSans-6e" x="806.548828"/>
      <use xlink:href="#DejaVuSans-20" x="869.927734"/>
      <use xlink:href="#DejaVuSans-41" x="901.714844"/>
      <use xlink:href="#DejaVuSans-63" x="968.373047"/>
      <use xlink:href="#DejaVuSans-63" x="1023.353516"/>
      <use xlink:href="#DejaVuSans-75" x="1078.333984"/>
      <use xlink:href="#DejaVuSans-72" x="1141.712891"/>
      <use xlink:href="#DejaVuSans-61" x="1182.826172"/>
      <use xlink:href="#DejaVuSans-63" x="1244.105469"/>
      <use xlink:href="#DejaVuSans-79" x="1299.085938"/>
     </g>
    </g>
    <g id="line2d_28">
     <path d="M 216.18875 278.326188 
L 226.18875 278.326188 
L 236.18875 278.326188 
" style="fill: none; stroke: #d62728; stroke-width: 1.5; stroke-linecap: square"/>
    </g>
    <g id="text_26">
     <!-- SWA Validation Accuracy -->
     <g transform="translate(244.18875 281.826188) scale(0.1 -0.1)">
      <defs>
       <path id="DejaVuSans-53" d="M 3425 4513 
L 3425 3897 
Q 3066 4069 2747 4153 
Q 2428 4238 2131 4238 
Q 1616 4238 1336 4038 
Q 1056 3838 1056 3469 
Q 1056 3159 1242 3001 
Q 1428 2844 1947 2747 
L 2328 2669 
Q 3034 2534 3370 2195 
Q 3706 1856 3706 1288 
Q 3706 609 3251 259 
Q 2797 -91 1919 -91 
Q 1588 -91 1214 -16 
Q 841 59 441 206 
L 441 856 
Q 825 641 1194 531 
Q 1563 422 1919 422 
Q 2459 422 2753 634 
Q 3047 847 3047 1241 
Q 3047 1584 2836 1778 
Q 2625 1972 2144 2069 
L 1759 2144 
Q 1053 2284 737 2584 
Q 422 2884 422 3419 
Q 422 4038 858 4394 
Q 1294 4750 2059 4750 
Q 2388 4750 2728 4690 
Q 3069 4631 3425 4513 
z
" transform="scale(0.015625)"/>
       <path id="DejaVuSans-57" d="M 213 4666 
L 850 4666 
L 1831 722 
L 2809 4666 
L 3519 4666 
L 4500 722 
L 5478 4666 
L 6119 4666 
L 4947 0 
L 4153 0 
L 3169 4050 
L 2175 0 
L 1381 0 
L 213 4666 
z
" transform="scale(0.015625)"/>
      </defs>
      <use xlink:href="#DejaVuSans-53"/>
      <use xlink:href="#DejaVuSans-57" x="63.476562"/>
      <use xlink:href="#DejaVuSans-41" x="156.853516"/>
      <use xlink:href="#DejaVuSans-20" x="225.261719"/>
      <use xlink:href="#DejaVuSans-56" x="257.048828"/>
      <use xlink:href="#DejaVuSans-61" x="317.707031"/>
      <use xlink:href="#DejaVuSans-6c" x="378.986328"/>
      <use xlink:href="#DejaVuSans-69" x="406.769531"/>
      <use xlink:href="#DejaVuSans-64" x="434.552734"/>
      <use xlink:href="#DejaVuSans-61" x="498.029297"/>
      <use xlink:href="#DejaVuSans-74" x="559.308594"/>
      <use xlink:href="#DejaVuSans-69" x="598.517578"/>
      <use xlink:href="#DejaVuSans-6f" x="626.300781"/>
      <use xlink:href="#DejaVuSans-6e" x="687.482422"/>
      <use xlink:href="#DejaVuSans-20" x="750.861328"/>
      <use xlink:href="#DejaVuSans-41" x="782.648438"/>
      <use xlink:href="#DejaVuSans-63" x="849.306641"/>
      <use xlink:href="#DejaVuSans-63" x="904.287109"/>
      <use xlink:href="#DejaVuSans-75" x="959.267578"/>
      <use xlink:href="#DejaVuSans-72" x="1022.646484"/>
      <use xlink:href="#DejaVuSans-61" x="1063.759766"/>
      <use xlink:href="#DejaVuSans-63" x="1125.039062"/>
      <use xlink:href="#DejaVuSans-79" x="1180.019531"/>
     </g>
    </g>
    <g id="line2d_29">
     <path d="M 216.18875 293.004312 
L 226.18875 293.004312 
L 236.18875 293.004312 
" style="fill: none; stroke: #9467bd; stroke-width: 1.5; stroke-linecap: square"/>
    </g>
    <g id="text_27">
     <!-- SWA Robust Validation Accuracy -->
     <g transform="translate(244.18875 296.504312) scale(0.1 -0.1)">
      <use xlink:href="#DejaVuSans-53"/>
      <use xlink:href="#DejaVuSans-57" x="63.476562"/>
      <use xlink:href="#DejaVuSans-41" x="156.853516"/>
      <use xlink:href="#DejaVuSans-20" x="225.261719"/>
      <use xlink:href="#DejaVuSans-52" x="257.048828"/>
      <use xlink:href="#DejaVuSans-6f" x="322.03125"/>
      <use xlink:href="#DejaVuSans-62" x="383.212891"/>
      <use xlink:href="#DejaVuSans-75" x="446.689453"/>
      <use xlink:href="#DejaVuSans-73" x="510.068359"/>
      <use xlink:href="#DejaVuSans-74" x="562.167969"/>
      <use xlink:href="#DejaVuSans-20" x="601.376953"/>
      <use xlink:href="#DejaVuSans-56" x="633.164062"/>
      <use xlink:href="#DejaVuSans-61" x="693.822266"/>
      <use xlink:href="#DejaVuSans-6c" x="755.101562"/>
      <use xlink:href="#DejaVuSans-69" x="782.884766"/>
      <use xlink:href="#DejaVuSans-64" x="810.667969"/>
      <use xlink:href="#DejaVuSans-61" x="874.144531"/>
      <use xlink:href="#DejaVuSans-74" x="935.423828"/>
      <use xlink:href="#DejaVuSans-69" x="974.632812"/>
      <use xlink:href="#DejaVuSans-6f" x="1002.416016"/>
      <use xlink:href="#DejaVuSans-6e" x="1063.597656"/>
      <use xlink:href="#DejaVuSans-20" x="1126.976562"/>
      <use xlink:href="#DejaVuSans-41" x="1158.763672"/>
      <use xlink:href="#DejaVuSans-63" x="1225.421875"/>
      <use xlink:href="#DejaVuSans-63" x="1280.402344"/>
      <use xlink:href="#DejaVuSans-75" x="1335.382812"/>
      <use xlink:href="#DejaVuSans-72" x="1398.761719"/>
      <use xlink:href="#DejaVuSans-61" x="1439.875"/>
      <use xlink:href="#DejaVuSans-63" x="1501.154297"/>
      <use xlink:href="#DejaVuSans-79" x="1556.134766"/>
     </g>
    </g>
   </g>
  </g>
 </g>
 <defs>
  <clipPath id="p339831f3a3">
   <rect x="57.6" y="41.472" width="357.12" height="266.112"/>
  </clipPath>
 </defs>
</svg>
