<?xml version="1.0" encoding="utf-8" standalone="no"?>
<!DOCTYPE svg PUBLIC "-//W3C//DTD SVG 1.1//EN"
  "http://www.w3.org/Graphics/SVG/1.1/DTD/svg11.dtd">
<svg xmlns:xlink="http://www.w3.org/1999/xlink" width="460.8pt" height="345.6pt" viewBox="0 0 460.8 345.6" xmlns="http://www.w3.org/2000/svg" version="1.1">
 <metadata>
  <rdf:RDF xmlns:dc="http://purl.org/dc/elements/1.1/" xmlns:cc="http://creativecommons.org/ns#" xmlns:rdf="http://www.w3.org/1999/02/22-rdf-syntax-ns#">
   <cc:Work>
    <dc:type rdf:resource="http://purl.org/dc/dcmitype/StillImage"/>
    <dc:date>2025-07-16T12:30:42.962069</dc:date>
    <dc:format>image/svg+xml</dc:format>
    <dc:creator>
     <cc:Agent>
      <dc:title>Matplotlib v3.9.1, https://matplotlib.org/</dc:title>
     </cc:Agent>
    </dc:creator>
   </cc:Work>
  </rdf:RDF>
 </metadata>
 <defs>
  <style type="text/css">*{stroke-linejoin: round; stroke-linecap: butt}</style>
 </defs>
 <g id="figure_1">
  <g id="patch_1">
   <path d="M 0 345.6 
L 460.8 345.6 
L 460.8 0 
L 0 0 
z
" style="fill: #ffffff"/>
  </g>
  <g id="axes_1">
   <g id="patch_2">
    <path d="M 57.6 307.584 
L 414.72 307.584 
L 414.72 41.472 
L 57.6 41.472 
z
" style="fill: #ffffff"/>
   </g>
   <g id="matplotlib.axis_1">
    <g id="xtick_1">
     <g id="line2d_1">
      <defs>
       <path id="m4d8d55c2c4" d="M 0 0 
L 0 3.5 
" style="stroke: #000000; stroke-width: 0.8"/>
      </defs>
      <g>
       <use xlink:href="#m4d8d55c2c4" x="73.832727" y="307.584" style="stroke: #000000; stroke-width: 0.8"/>
      </g>
     </g>
     <g id="text_1">
      <!-- 1 -->
      <g transform="translate(70.651477 322.182437) scale(0.1 -0.1)">
       <defs>
        <path id="DejaVuSans-31" d="M 794 531 
L 1825 531 
L 1825 4091 
L 703 3866 
L 703 4441 
L 1819 4666 
L 2450 4666 
L 2450 531 
L 3481 531 
L 3481 0 
L 794 0 
L 794 531 
z
" transform="scale(0.015625)"/>
       </defs>
       <use xlink:href="#DejaVuSans-31"/>
      </g>
     </g>
    </g>
    <g id="xtick_2">
     <g id="line2d_2">
      <g>
       <use xlink:href="#m4d8d55c2c4" x="109.664165" y="307.584" style="stroke: #000000; stroke-width: 0.8"/>
      </g>
     </g>
     <g id="text_2">
      <!-- 34 -->
      <g transform="translate(103.301665 322.182437) scale(0.1 -0.1)">
       <defs>
        <path id="DejaVuSans-33" d="M 2597 2516 
Q 3050 2419 3304 2112 
Q 3559 1806 3559 1356 
Q 3559 666 3084 287 
Q 2609 -91 1734 -91 
Q 1441 -91 1130 -33 
Q 819 25 488 141 
L 488 750 
Q 750 597 1062 519 
Q 1375 441 1716 441 
Q 2309 441 2620 675 
Q 2931 909 2931 1356 
Q 2931 1769 2642 2001 
Q 2353 2234 1838 2234 
L 1294 2234 
L 1294 2753 
L 1863 2753 
Q 2328 2753 2575 2939 
Q 2822 3125 2822 3475 
Q 2822 3834 2567 4026 
Q 2313 4219 1838 4219 
Q 1578 4219 1281 4162 
Q 984 4106 628 3988 
L 628 4550 
Q 988 4650 1302 4700 
Q 1616 4750 1894 4750 
Q 2613 4750 3031 4423 
Q 3450 4097 3450 3541 
Q 3450 3153 3228 2886 
Q 3006 2619 2597 2516 
z
" transform="scale(0.015625)"/>
        <path id="DejaVuSans-34" d="M 2419 4116 
L 825 1625 
L 2419 1625 
L 2419 4116 
z
M 2253 4666 
L 3047 4666 
L 3047 1625 
L 3713 1625 
L 3713 1100 
L 3047 1100 
L 3047 0 
L 2419 0 
L 2419 1100 
L 313 1100 
L 313 1709 
L 2253 4666 
z
" transform="scale(0.015625)"/>
       </defs>
       <use xlink:href="#DejaVuSans-33"/>
       <use xlink:href="#DejaVuSans-34" x="63.623047"/>
      </g>
     </g>
    </g>
    <g id="xtick_3">
     <g id="line2d_3">
      <g>
       <use xlink:href="#m4d8d55c2c4" x="145.495604" y="307.584" style="stroke: #000000; stroke-width: 0.8"/>
      </g>
     </g>
     <g id="text_3">
      <!-- 67 -->
      <g transform="translate(139.133104 322.182437) scale(0.1 -0.1)">
       <defs>
        <path id="DejaVuSans-36" d="M 2113 2584 
Q 1688 2584 1439 2293 
Q 1191 2003 1191 1497 
Q 1191 994 1439 701 
Q 1688 409 2113 409 
Q 2538 409 2786 701 
Q 3034 994 3034 1497 
Q 3034 2003 2786 2293 
Q 2538 2584 2113 2584 
z
M 3366 4563 
L 3366 3988 
Q 3128 4100 2886 4159 
Q 2644 4219 2406 4219 
Q 1781 4219 1451 3797 
Q 1122 3375 1075 2522 
Q 1259 2794 1537 2939 
Q 1816 3084 2150 3084 
Q 2853 3084 3261 2657 
Q 3669 2231 3669 1497 
Q 3669 778 3244 343 
Q 2819 -91 2113 -91 
Q 1303 -91 875 529 
Q 447 1150 447 2328 
Q 447 3434 972 4092 
Q 1497 4750 2381 4750 
Q 2619 4750 2861 4703 
Q 3103 4656 3366 4563 
z
" transform="scale(0.015625)"/>
        <path id="DejaVuSans-37" d="M 525 4666 
L 3525 4666 
L 3525 4397 
L 1831 0 
L 1172 0 
L 2766 4134 
L 525 4134 
L 525 4666 
z
" transform="scale(0.015625)"/>
       </defs>
       <use xlink:href="#DejaVuSans-36"/>
       <use xlink:href="#DejaVuSans-37" x="63.623047"/>
      </g>
     </g>
    </g>
    <g id="xtick_4">
     <g id="line2d_4">
      <g>
       <use xlink:href="#m4d8d55c2c4" x="181.327042" y="307.584" style="stroke: #000000; stroke-width: 0.8"/>
      </g>
     </g>
     <g id="text_4">
      <!-- 100 -->
      <g transform="translate(171.783292 322.182437) scale(0.1 -0.1)">
       <defs>
        <path id="DejaVuSans-30" d="M 2034 4250 
Q 1547 4250 1301 3770 
Q 1056 3291 1056 2328 
Q 1056 1369 1301 889 
Q 1547 409 2034 409 
Q 2525 409 2770 889 
Q 3016 1369 3016 2328 
Q 3016 3291 2770 3770 
Q 2525 4250 2034 4250 
z
M 2034 4750 
Q 2819 4750 3233 4129 
Q 3647 3509 3647 2328 
Q 3647 1150 3233 529 
Q 2819 -91 2034 -91 
Q 1250 -91 836 529 
Q 422 1150 422 2328 
Q 422 3509 836 4129 
Q 1250 4750 2034 4750 
z
" transform="scale(0.015625)"/>
       </defs>
       <use xlink:href="#DejaVuSans-31"/>
       <use xlink:href="#DejaVuSans-30" x="63.623047"/>
       <use xlink:href="#DejaVuSans-30" x="127.246094"/>
      </g>
     </g>
    </g>
    <g id="xtick_5">
     <g id="line2d_5">
      <g>
       <use xlink:href="#m4d8d55c2c4" x="217.15848" y="307.584" style="stroke: #000000; stroke-width: 0.8"/>
      </g>
     </g>
     <g id="text_5">
      <!-- 133 -->
      <g transform="translate(207.61473 322.182437) scale(0.1 -0.1)">
       <use xlink:href="#DejaVuSans-31"/>
       <use xlink:href="#DejaVuSans-33" x="63.623047"/>
       <use xlink:href="#DejaVuSans-33" x="127.246094"/>
      </g>
     </g>
    </g>
    <g id="xtick_6">
     <g id="line2d_6">
      <g>
       <use xlink:href="#m4d8d55c2c4" x="254.075719" y="307.584" style="stroke: #000000; stroke-width: 0.8"/>
      </g>
     </g>
     <g id="text_6">
      <!-- 167 -->
      <g transform="translate(244.531969 322.182437) scale(0.1 -0.1)">
       <use xlink:href="#DejaVuSans-31"/>
       <use xlink:href="#DejaVuSans-36" x="63.623047"/>
       <use xlink:href="#DejaVuSans-37" x="127.246094"/>
      </g>
     </g>
    </g>
    <g id="xtick_7">
     <g id="line2d_7">
      <g>
       <use xlink:href="#m4d8d55c2c4" x="289.907157" y="307.584" style="stroke: #000000; stroke-width: 0.8"/>
      </g>
     </g>
     <g id="text_7">
      <!-- 200 -->
      <g transform="translate(280.363407 322.182437) scale(0.1 -0.1)">
       <defs>
        <path id="DejaVuSans-32" d="M 1228 531 
L 3431 531 
L 3431 0 
L 469 0 
L 469 531 
Q 828 903 1448 1529 
Q 2069 2156 2228 2338 
Q 2531 2678 2651 2914 
Q 2772 3150 2772 3378 
Q 2772 3750 2511 3984 
Q 2250 4219 1831 4219 
Q 1534 4219 1204 4116 
Q 875 4013 500 3803 
L 500 4441 
Q 881 4594 1212 4672 
Q 1544 4750 1819 4750 
Q 2544 4750 2975 4387 
Q 3406 4025 3406 3419 
Q 3406 3131 3298 2873 
Q 3191 2616 2906 2266 
Q 2828 2175 2409 1742 
Q 1991 1309 1228 531 
z
" transform="scale(0.015625)"/>
       </defs>
       <use xlink:href="#DejaVuSans-32"/>
       <use xlink:href="#DejaVuSans-30" x="63.623047"/>
       <use xlink:href="#DejaVuSans-30" x="127.246094"/>
      </g>
     </g>
    </g>
    <g id="xtick_8">
     <g id="line2d_8">
      <g>
       <use xlink:href="#m4d8d55c2c4" x="325.738595" y="307.584" style="stroke: #000000; stroke-width: 0.8"/>
      </g>
     </g>
     <g id="text_8">
      <!-- 233 -->
      <g transform="translate(316.194845 322.182437) scale(0.1 -0.1)">
       <use xlink:href="#DejaVuSans-32"/>
       <use xlink:href="#DejaVuSans-33" x="63.623047"/>
       <use xlink:href="#DejaVuSans-33" x="127.246094"/>
      </g>
     </g>
    </g>
    <g id="xtick_9">
     <g id="line2d_9">
      <g>
       <use xlink:href="#m4d8d55c2c4" x="361.570033" y="307.584" style="stroke: #000000; stroke-width: 0.8"/>
      </g>
     </g>
     <g id="text_9">
      <!-- 266 -->
      <g transform="translate(352.026283 322.182437) scale(0.1 -0.1)">
       <use xlink:href="#DejaVuSans-32"/>
       <use xlink:href="#DejaVuSans-36" x="63.623047"/>
       <use xlink:href="#DejaVuSans-36" x="127.246094"/>
      </g>
     </g>
    </g>
    <g id="xtick_10">
     <g id="line2d_10">
      <g>
       <use xlink:href="#m4d8d55c2c4" x="398.487273" y="307.584" style="stroke: #000000; stroke-width: 0.8"/>
      </g>
     </g>
     <g id="text_10">
      <!-- 300 -->
      <g transform="translate(388.943523 322.182437) scale(0.1 -0.1)">
       <use xlink:href="#DejaVuSans-33"/>
       <use xlink:href="#DejaVuSans-30" x="63.623047"/>
       <use xlink:href="#DejaVuSans-30" x="127.246094"/>
      </g>
     </g>
    </g>
    <g id="text_11">
     <!-- Epochs -->
     <g transform="translate(218.244375 335.860562) scale(0.1 -0.1)">
      <defs>
       <path id="DejaVuSans-45" d="M 628 4666 
L 3578 4666 
L 3578 4134 
L 1259 4134 
L 1259 2753 
L 3481 2753 
L 3481 2222 
L 1259 2222 
L 1259 531 
L 3634 531 
L 3634 0 
L 628 0 
L 628 4666 
z
" transform="scale(0.015625)"/>
       <path id="DejaVuSans-70" d="M 1159 525 
L 1159 -1331 
L 581 -1331 
L 581 3500 
L 1159 3500 
L 1159 2969 
Q 1341 3281 1617 3432 
Q 1894 3584 2278 3584 
Q 2916 3584 3314 3078 
Q 3713 2572 3713 1747 
Q 3713 922 3314 415 
Q 2916 -91 2278 -91 
Q 1894 -91 1617 61 
Q 1341 213 1159 525 
z
M 3116 1747 
Q 3116 2381 2855 2742 
Q 2594 3103 2138 3103 
Q 1681 3103 1420 2742 
Q 1159 2381 1159 1747 
Q 1159 1113 1420 752 
Q 1681 391 2138 391 
Q 2594 391 2855 752 
Q 3116 1113 3116 1747 
z
" transform="scale(0.015625)"/>
       <path id="DejaVuSans-6f" d="M 1959 3097 
Q 1497 3097 1228 2736 
Q 959 2375 959 1747 
Q 959 1119 1226 758 
Q 1494 397 1959 397 
Q 2419 397 2687 759 
Q 2956 1122 2956 1747 
Q 2956 2369 2687 2733 
Q 2419 3097 1959 3097 
z
M 1959 3584 
Q 2709 3584 3137 3096 
Q 3566 2609 3566 1747 
Q 3566 888 3137 398 
Q 2709 -91 1959 -91 
Q 1206 -91 779 398 
Q 353 888 353 1747 
Q 353 2609 779 3096 
Q 1206 3584 1959 3584 
z
" transform="scale(0.015625)"/>
       <path id="DejaVuSans-63" d="M 3122 3366 
L 3122 2828 
Q 2878 2963 2633 3030 
Q 2388 3097 2138 3097 
Q 1578 3097 1268 2742 
Q 959 2388 959 1747 
Q 959 1106 1268 751 
Q 1578 397 2138 397 
Q 2388 397 2633 464 
Q 2878 531 3122 666 
L 3122 134 
Q 2881 22 2623 -34 
Q 2366 -91 2075 -91 
Q 1284 -91 818 406 
Q 353 903 353 1747 
Q 353 2603 823 3093 
Q 1294 3584 2113 3584 
Q 2378 3584 2631 3529 
Q 2884 3475 3122 3366 
z
" transform="scale(0.015625)"/>
       <path id="DejaVuSans-68" d="M 3513 2113 
L 3513 0 
L 2938 0 
L 2938 2094 
Q 2938 2591 2744 2837 
Q 2550 3084 2163 3084 
Q 1697 3084 1428 2787 
Q 1159 2491 1159 1978 
L 1159 0 
L 581 0 
L 581 4863 
L 1159 4863 
L 1159 2956 
Q 1366 3272 1645 3428 
Q 1925 3584 2291 3584 
Q 2894 3584 3203 3211 
Q 3513 2838 3513 2113 
z
" transform="scale(0.015625)"/>
       <path id="DejaVuSans-73" d="M 2834 3397 
L 2834 2853 
Q 2591 2978 2328 3040 
Q 2066 3103 1784 3103 
Q 1356 3103 1142 2972 
Q 928 2841 928 2578 
Q 928 2378 1081 2264 
Q 1234 2150 1697 2047 
L 1894 2003 
Q 2506 1872 2764 1633 
Q 3022 1394 3022 966 
Q 3022 478 2636 193 
Q 2250 -91 1575 -91 
Q 1294 -91 989 -36 
Q 684 19 347 128 
L 347 722 
Q 666 556 975 473 
Q 1284 391 1588 391 
Q 1994 391 2212 530 
Q 2431 669 2431 922 
Q 2431 1156 2273 1281 
Q 2116 1406 1581 1522 
L 1381 1569 
Q 847 1681 609 1914 
Q 372 2147 372 2553 
Q 372 3047 722 3315 
Q 1072 3584 1716 3584 
Q 2034 3584 2315 3537 
Q 2597 3491 2834 3397 
z
" transform="scale(0.015625)"/>
      </defs>
      <use xlink:href="#DejaVuSans-45"/>
      <use xlink:href="#DejaVuSans-70" x="63.183594"/>
      <use xlink:href="#DejaVuSans-6f" x="126.660156"/>
      <use xlink:href="#DejaVuSans-63" x="187.841797"/>
      <use xlink:href="#DejaVuSans-68" x="242.822266"/>
      <use xlink:href="#DejaVuSans-73" x="306.201172"/>
     </g>
    </g>
   </g>
   <g id="matplotlib.axis_2">
    <g id="ytick_1">
     <g id="line2d_11">
      <defs>
       <path id="mde3682b1b5" d="M 0 0 
L -3.5 0 
" style="stroke: #000000; stroke-width: 0.8"/>
      </defs>
      <g>
       <use xlink:href="#mde3682b1b5" x="57.6" y="268.979382" style="stroke: #000000; stroke-width: 0.8"/>
      </g>
     </g>
     <g id="text_12">
      <!-- 20 -->
      <g transform="translate(37.875 272.778601) scale(0.1 -0.1)">
       <use xlink:href="#DejaVuSans-32"/>
       <use xlink:href="#DejaVuSans-30" x="63.623047"/>
      </g>
     </g>
    </g>
    <g id="ytick_2">
     <g id="line2d_12">
      <g>
       <use xlink:href="#mde3682b1b5" x="57.6" y="211.251556" style="stroke: #000000; stroke-width: 0.8"/>
      </g>
     </g>
     <g id="text_13">
      <!-- 40 -->
      <g transform="translate(37.875 215.050775) scale(0.1 -0.1)">
       <use xlink:href="#DejaVuSans-34"/>
       <use xlink:href="#DejaVuSans-30" x="63.623047"/>
      </g>
     </g>
    </g>
    <g id="ytick_3">
     <g id="line2d_13">
      <g>
       <use xlink:href="#mde3682b1b5" x="57.6" y="153.523731" style="stroke: #000000; stroke-width: 0.8"/>
      </g>
     </g>
     <g id="text_14">
      <!-- 60 -->
      <g transform="translate(37.875 157.322949) scale(0.1 -0.1)">
       <use xlink:href="#DejaVuSans-36"/>
       <use xlink:href="#DejaVuSans-30" x="63.623047"/>
      </g>
     </g>
    </g>
    <g id="ytick_4">
     <g id="line2d_14">
      <g>
       <use xlink:href="#mde3682b1b5" x="57.6" y="95.795905" style="stroke: #000000; stroke-width: 0.8"/>
      </g>
     </g>
     <g id="text_15">
      <!-- 80 -->
      <g transform="translate(37.875 99.595123) scale(0.1 -0.1)">
       <defs>
        <path id="DejaVuSans-38" d="M 2034 2216 
Q 1584 2216 1326 1975 
Q 1069 1734 1069 1313 
Q 1069 891 1326 650 
Q 1584 409 2034 409 
Q 2484 409 2743 651 
Q 3003 894 3003 1313 
Q 3003 1734 2745 1975 
Q 2488 2216 2034 2216 
z
M 1403 2484 
Q 997 2584 770 2862 
Q 544 3141 544 3541 
Q 544 4100 942 4425 
Q 1341 4750 2034 4750 
Q 2731 4750 3128 4425 
Q 3525 4100 3525 3541 
Q 3525 3141 3298 2862 
Q 3072 2584 2669 2484 
Q 3125 2378 3379 2068 
Q 3634 1759 3634 1313 
Q 3634 634 3220 271 
Q 2806 -91 2034 -91 
Q 1263 -91 848 271 
Q 434 634 434 1313 
Q 434 1759 690 2068 
Q 947 2378 1403 2484 
z
M 1172 3481 
Q 1172 3119 1398 2916 
Q 1625 2713 2034 2713 
Q 2441 2713 2670 2916 
Q 2900 3119 2900 3481 
Q 2900 3844 2670 4047 
Q 2441 4250 2034 4250 
Q 1625 4250 1398 4047 
Q 1172 3844 1172 3481 
z
" transform="scale(0.015625)"/>
       </defs>
       <use xlink:href="#DejaVuSans-38"/>
       <use xlink:href="#DejaVuSans-30" x="63.623047"/>
      </g>
     </g>
    </g>
    <g id="text_16">
     <!-- Accuracy -->
     <g transform="translate(31.795312 197.356125) rotate(-90) scale(0.1 -0.1)">
      <defs>
       <path id="DejaVuSans-41" d="M 2188 4044 
L 1331 1722 
L 3047 1722 
L 2188 4044 
z
M 1831 4666 
L 2547 4666 
L 4325 0 
L 3669 0 
L 3244 1197 
L 1141 1197 
L 716 0 
L 50 0 
L 1831 4666 
z
" transform="scale(0.015625)"/>
       <path id="DejaVuSans-75" d="M 544 1381 
L 544 3500 
L 1119 3500 
L 1119 1403 
Q 1119 906 1312 657 
Q 1506 409 1894 409 
Q 2359 409 2629 706 
Q 2900 1003 2900 1516 
L 2900 3500 
L 3475 3500 
L 3475 0 
L 2900 0 
L 2900 538 
Q 2691 219 2414 64 
Q 2138 -91 1772 -91 
Q 1169 -91 856 284 
Q 544 659 544 1381 
z
M 1991 3584 
L 1991 3584 
z
" transform="scale(0.015625)"/>
       <path id="DejaVuSans-72" d="M 2631 2963 
Q 2534 3019 2420 3045 
Q 2306 3072 2169 3072 
Q 1681 3072 1420 2755 
Q 1159 2438 1159 1844 
L 1159 0 
L 581 0 
L 581 3500 
L 1159 3500 
L 1159 2956 
Q 1341 3275 1631 3429 
Q 1922 3584 2338 3584 
Q 2397 3584 2469 3576 
Q 2541 3569 2628 3553 
L 2631 2963 
z
" transform="scale(0.015625)"/>
       <path id="DejaVuSans-61" d="M 2194 1759 
Q 1497 1759 1228 1600 
Q 959 1441 959 1056 
Q 959 750 1161 570 
Q 1363 391 1709 391 
Q 2188 391 2477 730 
Q 2766 1069 2766 1631 
L 2766 1759 
L 2194 1759 
z
M 3341 1997 
L 3341 0 
L 2766 0 
L 2766 531 
Q 2569 213 2275 61 
Q 1981 -91 1556 -91 
Q 1019 -91 701 211 
Q 384 513 384 1019 
Q 384 1609 779 1909 
Q 1175 2209 1959 2209 
L 2766 2209 
L 2766 2266 
Q 2766 2663 2505 2880 
Q 2244 3097 1772 3097 
Q 1472 3097 1187 3025 
Q 903 2953 641 2809 
L 641 3341 
Q 956 3463 1253 3523 
Q 1550 3584 1831 3584 
Q 2591 3584 2966 3190 
Q 3341 2797 3341 1997 
z
" transform="scale(0.015625)"/>
       <path id="DejaVuSans-79" d="M 2059 -325 
Q 1816 -950 1584 -1140 
Q 1353 -1331 966 -1331 
L 506 -1331 
L 506 -850 
L 844 -850 
Q 1081 -850 1212 -737 
Q 1344 -625 1503 -206 
L 1606 56 
L 191 3500 
L 800 3500 
L 1894 763 
L 2988 3500 
L 3597 3500 
L 2059 -325 
z
" transform="scale(0.015625)"/>
      </defs>
      <use xlink:href="#DejaVuSans-41"/>
      <use xlink:href="#DejaVuSans-63" x="66.658203"/>
      <use xlink:href="#DejaVuSans-63" x="121.638672"/>
      <use xlink:href="#DejaVuSans-75" x="176.619141"/>
      <use xlink:href="#DejaVuSans-72" x="239.998047"/>
      <use xlink:href="#DejaVuSans-61" x="281.111328"/>
      <use xlink:href="#DejaVuSans-63" x="342.390625"/>
      <use xlink:href="#DejaVuSans-79" x="397.371094"/>
     </g>
    </g>
   </g>
   <g id="line2d_15">
    <path d="M 73.832727 295.488 
L 74.918528 249.704061 
L 76.00433 215.205913 
L 77.090131 190.879407 
L 78.175932 175.414122 
L 79.261733 161.628717 
L 82.519137 137.83908 
L 83.604938 134.877643 
L 84.690739 127.702074 
L 85.77654 122.581616 
L 86.862341 118.708079 
L 87.948142 116.300828 
L 89.033943 111.336235 
L 90.119745 108.784665 
L 92.291347 102.942609 
L 93.377148 102.417286 
L 94.462949 100.212083 
L 95.54875 127.373025 
L 96.634552 128.308216 
L 97.720353 124.070994 
L 98.806154 122.304522 
L 99.891955 121.640652 
L 100.977756 117.96339 
L 102.063557 116.774197 
L 103.149358 114.632494 
L 104.23516 112.005878 
L 105.320961 110.926368 
L 106.406762 108.305525 
L 107.492563 107.104786 
L 108.578364 105.528816 
L 110.749967 101.078001 
L 111.835768 100.183219 
L 112.921569 98.214701 
L 114.00737 97.250646 
L 116.178972 93.04806 
L 117.264773 92.4881 
L 118.350575 89.295751 
L 119.436376 88.129649 
L 120.522177 87.794828 
L 121.607978 85.687762 
L 122.693779 84.019428 
L 123.77958 83.950155 
L 124.865382 81.317766 
L 125.951183 80.959853 
L 127.036984 78.852788 
L 128.122785 77.525048 
L 129.208586 76.693767 
L 130.294387 75.493028 
L 131.380189 74.979251 
L 132.46599 73.334008 
L 133.551791 73.056914 
L 134.637592 73.258961 
L 135.723393 71.769584 
L 136.809194 72.543136 
L 137.894995 71.5964 
L 138.980797 97.412284 
L 140.066598 99.432758 
L 141.152399 99.79067 
L 142.2382 99.149891 
L 143.324001 99.121027 
L 144.409802 98.716933 
L 145.495604 97.827924 
L 147.667206 97.07169 
L 148.753007 96.044134 
L 149.838808 95.218626 
L 150.924609 93.983251 
L 152.01041 94.866487 
L 153.096212 93.29629 
L 154.182013 91.5125 
L 155.267814 90.762038 
L 156.353615 90.738947 
L 157.439416 90.381035 
L 158.525217 89.266888 
L 159.611019 89.670982 
L 160.69682 86.576771 
L 161.782621 86.986638 
L 162.868422 85.664671 
L 163.954223 85.664671 
L 165.040024 84.642889 
L 166.125825 84.163748 
L 167.211627 84.186839 
L 168.297428 82.720552 
L 169.383229 83.245875 
L 171.554831 81.358175 
L 172.640632 80.174755 
L 173.726434 80.197846 
L 175.898036 79.799524 
L 176.983837 77.663595 
L 178.069638 76.930451 
L 181.327042 75.920214 
L 182.412843 74.91575 
L 183.498644 73.507191 
L 184.584445 73.287825 
L 185.670246 72.687456 
L 186.756047 71.694537 
L 187.841849 71.706083 
L 188.92765 69.876111 
L 190.013451 69.021739 
L 191.099252 69.483562 
L 192.185053 67.526588 
L 193.270854 67.46886 
L 194.356656 67.041675 
L 196.528258 65.76589 
L 197.614059 65.338704 
L 198.69986 63.676142 
L 199.785661 64.513196 
L 200.871462 64.091783 
L 201.957264 62.567768 
L 203.043065 62.55045 
L 204.128866 61.597941 
L 205.214667 60.980253 
L 206.300468 61.107254 
L 207.386269 59.964243 
L 208.472071 59.433147 
L 209.557872 59.236873 
L 210.643673 60.085472 
L 211.729474 58.209317 
L 212.815275 58.803914 
L 214.986877 58.116953 
L 216.072679 58.301682 
L 217.15848 56.968169 
L 218.244281 57.106716 
L 219.330082 58.168908 
L 220.415883 57.331854 
L 221.501684 57.360718 
L 222.587486 56.737258 
L 223.673287 57.395355 
L 224.759088 56.714167 
L 225.844889 81.796907 
L 226.93069 86.189994 
L 228.016491 86.825001 
L 229.102292 87.240641 
L 230.188094 86.686454 
L 231.273895 85.918674 
L 233.445497 85.878264 
L 234.531298 85.630035 
L 235.617099 85.572307 
L 236.702901 85.860946 
L 237.788702 83.8982 
L 238.874503 84.452387 
L 239.960304 84.140657 
L 242.131906 83.840472 
L 245.38931 82.443459 
L 246.475111 82.657051 
L 247.560912 82.166365 
L 248.646713 82.304912 
L 249.732514 81.65836 
L 250.818316 80.873262 
L 252.989918 80.590395 
L 254.075719 81.589087 
L 256.247321 79.655205 
L 257.333123 79.141427 
L 258.418924 79.10679 
L 259.504725 78.09078 
L 260.590526 78.829697 
L 262.762128 77.963779 
L 263.847929 77.81946 
L 264.933731 76.993952 
L 266.019532 78.275509 
L 267.105333 77.992643 
L 268.191134 75.562302 
L 269.276935 76.295445 
L 271.448538 75.764349 
L 272.534339 76.872723 
L 273.62014 75.279435 
L 274.705941 75.423755 
L 275.791742 74.315381 
L 276.877543 75.383345 
L 277.963344 74.182607 
L 279.049146 73.605328 
L 280.134947 73.524509 
L 281.220748 73.570692 
L 282.306549 73.807376 
L 283.39235 72.918367 
L 284.478151 73.23587 
L 285.563953 72.219861 
L 287.735555 72.329543 
L 288.821356 71.34817 
L 289.907157 71.890812 
L 290.992958 70.718937 
L 292.07876 71.209624 
L 293.164561 70.389888 
L 295.336163 69.714473 
L 296.421964 70.37257 
L 297.507765 69.316151 
L 298.593566 69.321924 
L 299.679368 68.611871 
L 300.765169 68.438688 
L 301.85097 69.039057 
L 302.936771 68.7966 
L 304.022572 68.946693 
L 305.108373 66.891582 
L 306.194175 67.555452 
L 307.279976 65.887118 
L 308.365777 66.787672 
L 309.451578 66.654898 
L 310.537379 66.729944 
L 311.62318 65.575388 
L 312.708981 66.175757 
L 313.794783 66.233485 
L 314.880584 65.211702 
L 315.966385 64.738334 
L 317.052186 63.462549 
L 318.137987 64.576696 
L 319.223788 63.785825 
L 320.30959 64.60556 
L 321.395391 62.688996 
L 322.481192 63.77428 
L 323.566993 63.035363 
L 325.738595 61.898125 
L 327.910198 61.823079 
L 328.995999 60.737796 
L 330.0818 60.928298 
L 331.167601 59.68715 
L 332.253402 60.512657 
L 333.339203 60.743569 
L 334.425005 60.172063 
L 335.510806 60.10279 
L 336.596607 59.288828 
L 337.682408 59.652513 
L 338.768209 58.821232 
L 339.85401 59.410056 
L 340.939811 58.451774 
L 343.111414 57.481947 
L 347.454618 56.997033 
L 348.54042 57.424219 
L 349.626221 56.217707 
L 350.712022 56.22348 
L 351.797823 55.675066 
L 352.883624 55.501882 
L 353.969425 55.773203 
L 355.055227 55.894431 
L 356.141028 54.993877 
L 357.226829 54.312689 
L 358.31263 55.120879 
L 360.484232 54.012504 
L 361.570033 54.532055 
L 362.655835 53.92014 
L 363.741636 53.839321 
L 364.827437 53.637273 
L 366.999039 53.568 
L 368.08484 53.700774 
L 369.170642 54.156824 
L 371.342244 55.761657 
L 372.428045 55.825158 
L 373.513846 56.004114 
L 374.599647 56.004114 
L 375.685448 56.529437 
L 376.77125 55.727021 
L 377.857051 55.519201 
L 378.942852 56.587165 
L 380.028653 56.454391 
L 381.114454 55.76743 
L 382.200255 56.806531 
L 383.286057 56.177298 
L 384.371858 55.877113 
L 385.457659 56.188843 
L 386.54346 55.830931 
L 387.629261 56.442846 
L 388.715062 56.413982 
L 389.800863 56.696848 
L 390.886665 56.465937 
L 391.972466 56.581393 
L 393.058267 56.021433 
L 394.144068 56.286981 
L 395.229869 56.32739 
L 396.31567 55.836704 
L 398.487273 56.714167 
L 398.487273 56.714167 
" clip-path="url(#p6c4c84d64b)" style="fill: none; stroke: #1f77b4; stroke-width: 1.5; stroke-linecap: square"/>
   </g>
   <g id="line2d_16">
    <path d="M 73.832727 280.294036 
L 74.918528 254.662882 
L 76.00433 224.875323 
L 77.090131 204.612856 
L 78.175932 192.69206 
L 79.261733 187.236781 
L 80.347534 178.837382 
L 81.433335 167.08977 
L 82.519137 173.670742 
L 83.604938 170.091617 
L 84.690739 160.422206 
L 85.77654 155.832844 
L 86.862341 152.571221 
L 87.948142 150.666203 
L 89.033943 144.777965 
L 90.119745 143.738864 
L 91.205546 144.085231 
L 92.291347 139.322685 
L 93.377148 138.918591 
L 94.462949 136.955845 
L 95.54875 162.471544 
L 96.634552 168.244326 
L 97.720353 156.929672 
L 98.806154 151.301209 
L 99.891955 150.3487 
L 100.977756 152.282582 
L 102.063557 146.856167 
L 103.149358 147.000486 
L 104.23516 145.066604 
L 105.320961 138.658815 
L 106.406762 136.320838 
L 107.492563 140.996792 
L 108.578364 138.312448 
L 109.664165 134.617868 
L 110.749967 137.100164 
L 111.835768 131.471701 
L 112.921569 132.222163 
L 114.00737 129.711002 
L 115.093171 131.183062 
L 116.178972 124.255723 
L 117.264773 123.505261 
L 118.350575 124.342315 
L 119.436376 121.513651 
L 120.522177 120.994101 
L 121.607978 119.14681 
L 122.693779 118.656124 
L 123.77958 115.856324 
L 125.951183 114.701768 
L 127.036984 113.864714 
L 128.122785 112.219471 
L 129.208586 113.604939 
L 130.294387 110.862867 
L 131.380189 111.901968 
L 132.46599 110.805139 
L 134.637592 109.592855 
L 135.723393 109.679447 
L 136.809194 110.343317 
L 137.894995 110.429909 
L 138.980797 140.621561 
L 140.066598 136.522886 
L 141.152399 137.244484 
L 142.2382 132.626258 
L 143.324001 129.855322 
L 145.495604 132.799441 
L 146.581405 128.527582 
L 147.667206 131.183062 
L 148.753007 128.210079 
L 149.838808 131.413973 
L 150.924609 124.659818 
L 152.01041 128.036895 
L 153.096212 125.237096 
L 154.182013 123.620717 
L 155.267814 125.78551 
L 156.353615 125.496871 
L 157.439416 126.420516 
L 158.525217 123.678445 
L 159.611019 121.715698 
L 160.69682 120.965237 
L 161.782621 123.534125 
L 162.868422 124.082539 
L 163.954223 119.695225 
L 166.125825 117.905662 
L 167.211627 120.965237 
L 168.297428 121.28274 
L 169.383229 118.136573 
L 170.46903 115.82746 
L 171.554831 114.672904 
L 172.640632 115.019271 
L 173.726434 118.829307 
L 174.812235 113.229708 
L 175.898036 115.250182 
L 176.983837 112.50811 
L 178.069638 113.547211 
L 179.155439 111.093779 
L 180.24124 110.631956 
L 181.327042 112.883341 
L 182.412843 111.642193 
L 183.498644 109.131032 
L 184.584445 109.304216 
L 185.670246 110.545364 
L 186.756047 109.015577 
L 187.841849 109.131032 
L 190.013451 107.630109 
L 191.099252 108.091932 
L 192.185053 104.570534 
L 193.270854 104.368487 
L 194.356656 105.234404 
L 195.442457 107.543517 
L 196.528258 103.589161 
L 197.614059 104.339623 
L 198.69986 104.137575 
L 199.785661 105.061221 
L 200.871462 102.954155 
L 201.957264 101.915054 
L 203.043065 101.251184 
L 204.128866 100.212083 
L 205.214667 100.933681 
L 206.300468 99.692533 
L 207.386269 100.125492 
L 208.472071 99.144119 
L 209.557872 100.010036 
L 211.729474 99.288438 
L 212.815275 99.288438 
L 213.901076 99.692533 
L 214.986877 98.56684 
L 216.072679 98.797752 
L 217.15848 98.509112 
L 218.244281 99.288438 
L 219.330082 98.162746 
L 220.415883 97.729787 
L 221.501684 98.422521 
L 222.587486 98.162746 
L 223.673287 98.393657 
L 224.759088 97.729787 
L 225.844889 126.016422 
L 226.93069 123.245486 
L 228.016491 121.051828 
L 229.102292 121.686835 
L 230.188094 122.841391 
L 231.273895 118.136573 
L 232.359696 122.985711 
L 233.445497 125.814374 
L 234.531298 120.792053 
L 235.617099 118.62726 
L 236.702901 117.501567 
L 237.788702 122.552752 
L 238.874503 122.899119 
L 239.960304 124.890729 
L 241.046105 119.752952 
L 242.131906 118.742715 
L 243.217708 122.841391 
L 244.303509 117.472703 
L 245.38931 117.674751 
L 246.475111 120.994101 
L 247.560912 122.062065 
L 248.646713 118.021118 
L 249.732514 122.523888 
L 250.818316 120.47455 
L 251.904117 116.433602 
L 252.989918 119.983864 
L 254.075719 119.204538 
L 255.16152 118.136573 
L 256.247321 121.484787 
L 257.333123 117.068608 
L 258.418924 117.039745 
L 259.504725 116.404738 
L 260.590526 117.530431 
L 261.676327 116.751105 
L 262.762128 115.134726 
L 263.847929 115.394502 
L 264.933731 117.241792 
L 266.019532 117.270656 
L 267.105333 113.864714 
L 268.191134 118.049982 
L 269.276935 114.64404 
L 271.448538 114.961543 
L 272.534339 113.518347 
L 273.62014 113.518347 
L 274.705941 111.98856 
L 275.791742 113.229708 
L 276.877543 114.297673 
L 277.963344 113.749259 
L 279.049146 112.277199 
L 280.134947 116.029508 
L 281.220748 112.998797 
L 282.306549 111.555601 
L 283.39235 112.594702 
L 285.563953 113.633803 
L 286.649754 113.778122 
L 287.735555 114.066762 
L 288.821356 112.132879 
L 289.907157 111.699921 
L 290.992958 112.132879 
L 292.07876 114.701768 
L 293.164561 109.18876 
L 294.250362 111.930832 
L 295.336163 107.485789 
L 296.421964 114.672904 
L 297.507765 114.586312 
L 298.593566 110.256725 
L 299.679368 111.584465 
L 300.765169 111.873104 
L 301.85097 107.687837 
L 302.936771 110.401045 
L 304.022572 110.054678 
L 306.194175 108.813529 
L 307.279976 107.86102 
L 308.365777 107.572381 
L 309.451578 108.293979 
L 310.537379 107.543517 
L 311.62318 106.446689 
L 312.708981 110.66082 
L 313.794783 107.976476 
L 314.880584 108.091932 
L 315.966385 106.042594 
L 317.052186 107.428062 
L 318.137987 105.494179 
L 319.223788 108.409435 
L 320.30959 106.01373 
L 321.395391 106.475552 
L 322.481192 106.360097 
L 323.566993 104.628262 
L 324.652794 104.772582 
L 325.738595 103.156202 
L 326.824396 102.665516 
L 327.910198 105.465315 
L 328.995999 103.156202 
L 330.0818 103.964392 
L 332.253402 104.743718 
L 333.339203 106.475552 
L 334.425005 104.599398 
L 335.510806 104.281895 
L 336.596607 101.193456 
L 338.768209 102.376877 
L 339.85401 101.22232 
L 340.939811 102.145965 
L 342.025613 101.308912 
L 343.111414 102.607788 
L 345.283016 99.201846 
L 346.368817 102.69438 
L 347.454618 100.327539 
L 348.54042 99.259574 
L 349.626221 99.028663 
L 350.712022 99.259574 
L 351.797823 100.240947 
L 352.883624 98.855479 
L 353.969425 100.0389 
L 355.055227 99.634805 
L 356.141028 98.509112 
L 357.226829 98.999799 
L 358.31263 98.076154 
L 359.398431 99.086391 
L 360.484232 99.346166 
L 361.570033 96.777278 
L 362.655835 98.191609 
L 363.741636 98.105018 
L 365.913238 97.354556 
L 366.999039 97.527739 
L 368.08484 97.585467 
L 369.170642 96.690686 
L 370.256443 98.855479 
L 371.342244 100.0389 
L 372.428045 100.904817 
L 373.513846 99.779125 
L 374.599647 102.376877 
L 375.685448 99.490486 
L 376.77125 102.954155 
L 377.857051 99.172982 
L 378.942852 101.424368 
L 380.028653 102.088238 
L 381.114454 101.280048 
L 383.286057 100.356403 
L 384.371858 100.500722 
L 385.457659 101.655279 
L 386.54346 102.405741 
L 387.629261 103.35825 
L 388.715062 100.991409 
L 389.800863 99.807989 
L 390.886665 100.183219 
L 391.972466 99.634805 
L 393.058267 102.232557 
L 394.144068 101.741871 
L 395.229869 101.713007 
L 396.31567 102.117102 
L 398.487273 100.442995 
L 398.487273 100.442995 
" clip-path="url(#p6c4c84d64b)" style="fill: none; stroke: #ff7f0e; stroke-width: 1.5; stroke-linecap: square"/>
   </g>
   <g id="line2d_17">
    <path d="M 73.832727 286.138481 
L 74.918528 267.307266 
L 76.00433 246.385906 
L 77.090131 233.526535 
L 78.175932 227.136662 
L 79.261733 224.668299 
L 80.347534 218.358051 
L 81.433335 209.738689 
L 82.519137 214.575883 
L 83.604938 213.6602 
L 84.690739 206.573612 
L 87.948142 199.76571 
L 89.033943 192.121749 
L 90.119745 194.868798 
L 91.205546 192.699028 
L 92.291347 189.434419 
L 93.377148 190.529258 
L 94.462949 188.220145 
L 95.54875 208.265634 
L 96.634552 212.167239 
L 97.720353 203.408535 
L 98.806154 200.004583 
L 99.891955 201.597075 
L 100.977756 205.020932 
L 102.063557 192.898089 
L 103.149358 199.825428 
L 104.23516 198.292655 
L 105.320961 195.94373 
L 106.406762 189.693199 
L 107.492563 193.61471 
L 108.578364 196.461289 
L 109.664165 193.117057 
L 110.749967 190.688507 
L 111.835768 184.8361 
L 112.921569 185.154598 
L 114.00737 183.363045 
L 115.093171 182.009427 
L 116.178972 182.40755 
L 117.264773 181.073838 
L 118.350575 181.88999 
L 119.436376 178.16754 
L 120.522177 177.132421 
L 121.607978 178.107822 
L 122.693779 176.435706 
L 123.77958 175.141806 
L 125.951183 171.240201 
L 127.036984 171.897104 
L 128.122785 168.413528 
L 129.208586 173.887719 
L 130.294387 168.771839 
L 131.380189 170.483768 
L 132.46599 167.537658 
L 133.551791 166.860849 
L 134.637592 166.821037 
L 135.723393 167.199253 
L 136.809194 166.741412 
L 137.894995 166.96038 
L 138.980797 193.714241 
L 140.066598 194.809079 
L 141.152399 192.48006 
L 143.324001 187.324368 
L 144.409802 186.966057 
L 145.495604 188.299769 
L 146.581405 188.777517 
L 148.753007 185.851313 
L 149.838808 187.742397 
L 150.924609 185.891125 
L 152.01041 185.293941 
L 153.096212 185.353659 
L 154.182013 183.303326 
L 155.267814 186.906339 
L 156.353615 184.298634 
L 157.439416 184.238915 
L 158.525217 180.695621 
L 159.611019 181.671022 
L 160.69682 181.292805 
L 161.782621 183.900511 
L 162.868422 183.820886 
L 163.954223 178.904068 
L 165.040024 177.948573 
L 166.125825 177.968479 
L 167.211627 179.700314 
L 168.297428 178.824443 
L 169.383229 175.141806 
L 170.46903 170.722641 
L 171.554831 172.514195 
L 172.640632 177.371294 
L 173.726434 177.709699 
L 174.812235 173.230816 
L 175.898036 176.017677 
L 176.983837 174.305748 
L 178.069638 174.246029 
L 179.155439 172.056353 
L 180.24124 171.280014 
L 181.327042 171.160577 
L 182.412843 174.226123 
L 183.498644 168.811651 
L 184.584445 169.468554 
L 185.670246 169.38893 
L 186.756047 170.304612 
L 187.841849 169.13015 
L 188.92765 169.846771 
L 190.013451 166.621975 
L 191.099252 168.075124 
L 192.185053 171.29992 
L 193.270854 164.850328 
L 194.356656 165.547043 
L 195.442457 164.989671 
L 196.528258 162.143092 
L 197.614059 161.884312 
L 198.69986 161.247316 
L 199.785661 164.233238 
L 200.871462 161.705157 
L 201.957264 160.311727 
L 203.043065 160.570507 
L 204.128866 160.948723 
L 205.214667 158.559986 
L 206.300468 158.2813 
L 207.386269 159.615011 
L 208.472071 160.371445 
L 209.557872 158.042426 
L 210.643673 157.564678 
L 211.729474 158.699329 
L 212.815275 158.579892 
L 213.901076 158.12205 
L 214.986877 157.405429 
L 216.072679 159.196982 
L 217.15848 157.544772 
L 218.244281 157.644303 
L 219.330082 156.151342 
L 220.415883 157.962801 
L 221.501684 157.564678 
L 222.587486 156.887869 
L 223.673287 157.146649 
L 224.759088 156.390216 
L 225.844889 185.71197 
L 226.93069 180.974307 
L 228.016491 179.222566 
L 229.102292 183.920417 
L 231.273895 179.620689 
L 232.359696 181.850178 
L 233.445497 183.502388 
L 234.531298 179.103129 
L 235.617099 178.028197 
L 236.702901 175.042275 
L 237.788702 179.063317 
L 238.874503 181.511773 
L 239.960304 185.473096 
L 241.046105 176.236644 
L 242.131906 179.580877 
L 243.217708 180.934495 
L 244.303509 174.246029 
L 245.38931 176.953265 
L 246.475111 178.267071 
L 247.560912 182.845485 
L 248.646713 181.153462 
L 249.732514 184.258821 
L 250.818316 177.55045 
L 251.904117 173.887719 
L 252.989918 174.883026 
L 254.075719 177.729605 
L 255.16152 178.505945 
L 256.247321 178.446226 
L 257.333123 177.729605 
L 258.418924 176.336175 
L 259.504725 172.514195 
L 260.590526 173.370159 
L 261.676327 178.127728 
L 262.762128 173.967343 
L 263.847929 177.450919 
L 264.933731 178.286977 
L 266.019532 180.377123 
L 267.105333 176.833829 
L 268.191134 177.470825 
L 269.276935 174.703871 
L 270.362736 176.634767 
L 271.448538 177.092608 
L 272.534339 175.798709 
L 273.62014 174.126593 
L 274.705941 174.504809 
L 275.791742 176.933359 
L 276.877543 172.69335 
L 277.963344 170.702735 
L 279.049146 172.056353 
L 280.134947 173.191004 
L 281.220748 171.598512 
L 282.306549 169.090337 
L 283.39235 169.22968 
L 284.478151 177.012984 
L 285.563953 170.662923 
L 286.649754 175.261243 
L 287.735555 171.857292 
L 288.821356 172.494289 
L 289.907157 172.852599 
L 290.992958 171.120764 
L 292.07876 170.662923 
L 293.164561 167.020098 
L 294.250362 167.497846 
L 295.336163 169.189868 
L 296.421964 174.206217 
L 297.507765 172.872505 
L 298.593566 166.522444 
L 299.679368 166.741412 
L 300.765169 169.787053 
L 301.85097 166.104415 
L 302.936771 171.29992 
L 304.022572 169.528273 
L 305.108373 166.303477 
L 306.194175 170.961515 
L 307.279976 167.497846 
L 308.365777 165.129014 
L 309.451578 171.100858 
L 310.537379 167.557564 
L 311.62318 162.819901 
L 312.708981 166.522444 
L 313.794783 167.657095 
L 314.880584 169.010713 
L 315.966385 165.965072 
L 317.052186 166.562257 
L 318.137987 165.686386 
L 319.223788 170.324518 
L 320.30959 164.870234 
L 321.395391 164.810516 
L 322.481192 169.189868 
L 324.652794 163.954552 
L 325.738595 163.038869 
L 326.824396 164.492017 
L 327.910198 167.119629 
L 328.995999 162.72037 
L 330.0818 166.223852 
L 331.167601 164.810516 
L 332.253402 161.924125 
L 333.339203 164.750797 
L 334.425005 164.551736 
L 335.510806 162.441684 
L 336.596607 158.261393 
L 337.682408 162.282435 
L 338.768209 160.252008 
L 339.85401 160.670037 
L 340.939811 162.46159 
L 342.025613 158.420643 
L 343.111414 158.719235 
L 344.197215 160.092759 
L 345.283016 160.331633 
L 346.368817 161.167691 
L 347.454618 158.241487 
L 348.54042 154.797724 
L 349.626221 156.947588 
L 350.712022 157.962801 
L 351.797823 155.554158 
L 352.883624 155.355096 
L 353.969425 156.270779 
L 355.055227 154.260258 
L 356.141028 158.12205 
L 357.226829 154.578756 
L 358.31263 154.140821 
L 359.398431 154.120915 
L 360.484232 154.81763 
L 361.570033 152.070582 
L 362.655835 154.797724 
L 363.741636 154.678287 
L 364.827437 153.145514 
L 365.913238 152.010863 
L 366.999039 152.90664 
L 369.170642 153.205232 
L 370.256443 155.33519 
L 371.342244 156.171248 
L 372.428045 155.414814 
L 373.513846 157.524866 
L 374.599647 160.013134 
L 375.685448 155.892562 
L 376.77125 159.615011 
L 377.857051 158.221581 
L 378.942852 156.549465 
L 380.028653 164.253144 
L 381.114454 158.559986 
L 382.200255 158.739141 
L 383.286057 156.509653 
L 384.371858 155.315284 
L 385.457659 159.316419 
L 386.54346 162.740277 
L 388.715062 158.221581 
L 389.800863 158.400737 
L 390.886665 157.047119 
L 391.972466 157.684115 
L 393.058267 159.893698 
L 394.144068 159.037733 
L 395.229869 159.256701 
L 396.31567 158.2813 
L 397.401472 160.490882 
L 398.487273 155.872656 
L 398.487273 155.872656 
" clip-path="url(#p6c4c84d64b)" style="fill: none; stroke: #2ca02c; stroke-width: 1.5; stroke-linecap: square"/>
   </g>
   <g id="line2d_18">
    <path d="M 368.08484 97.123645 
L 369.170642 97.181372 
L 370.256443 97.037053 
L 371.342244 98.018426 
L 372.428045 97.123645 
L 373.513846 99.952308 
L 374.599647 100.183219 
L 375.685448 103.8778 
L 376.77125 101.713007 
L 377.857051 100.529586 
L 378.942852 101.655279 
L 380.028653 100.067764 
L 381.114454 98.913207 
L 382.200255 99.346166 
L 383.286057 100.125492 
L 384.371858 101.972782 
L 385.457659 101.020273 
L 386.54346 101.020273 
L 387.629261 101.943918 
L 388.715062 102.290285 
L 389.800863 102.290285 
L 390.886665 103.646889 
L 391.972466 106.042594 
L 393.058267 102.521196 
L 394.144068 102.809835 
L 395.229869 107.052831 
L 396.31567 104.570534 
L 397.401472 103.589161 
L 398.487273 107.658973 
L 398.487273 107.658973 
" clip-path="url(#p6c4c84d64b)" style="fill: none; stroke: #d62728; stroke-width: 1.5; stroke-linecap: square"/>
   </g>
   <g id="line2d_19">
    <path d="M 368.08484 151.951145 
L 370.256443 153.503824 
L 371.342244 152.667766 
L 372.428045 154.021384 
L 373.513846 155.673594 
L 374.599647 160.052947 
L 375.685448 161.446377 
L 376.77125 154.479226 
L 377.857051 156.071717 
L 378.942852 155.474533 
L 380.028653 157.485054 
L 381.114454 157.285992 
L 382.200255 153.006171 
L 383.286057 154.976879 
L 384.371858 158.559986 
L 385.457659 157.524866 
L 386.54346 157.027212 
L 387.629261 156.151342 
L 388.715062 158.02252 
L 389.800863 155.713407 
L 390.886665 159.973322 
L 391.972466 160.789474 
L 393.058267 159.973322 
L 394.144068 157.24618 
L 395.229869 161.048254 
L 396.31567 161.346846 
L 397.401472 158.261393 
L 398.487273 163.476804 
L 398.487273 163.476804 
" clip-path="url(#p6c4c84d64b)" style="fill: none; stroke: #9467bd; stroke-width: 1.5; stroke-linecap: square"/>
   </g>
   <g id="patch_3">
    <path d="M 57.6 307.584 
L 57.6 41.472 
" style="fill: none; stroke: #000000; stroke-width: 0.8; stroke-linejoin: miter; stroke-linecap: square"/>
   </g>
   <g id="patch_4">
    <path d="M 414.72 307.584 
L 414.72 41.472 
" style="fill: none; stroke: #000000; stroke-width: 0.8; stroke-linejoin: miter; stroke-linecap: square"/>
   </g>
   <g id="patch_5">
    <path d="M 57.6 307.584 
L 414.72 307.584 
" style="fill: none; stroke: #000000; stroke-width: 0.8; stroke-linejoin: miter; stroke-linecap: square"/>
   </g>
   <g id="patch_6">
    <path d="M 57.6 41.472 
L 414.72 41.472 
" style="fill: none; stroke: #000000; stroke-width: 0.8; stroke-linejoin: miter; stroke-linecap: square"/>
   </g>
   <g id="text_17">
    <!-- Learning Curves -->
    <g transform="translate(187.37625 35.472) scale(0.12 -0.12)">
     <defs>
      <path id="DejaVuSans-4c" d="M 628 4666 
L 1259 4666 
L 1259 531 
L 3531 531 
L 3531 0 
L 628 0 
L 628 4666 
z
" transform="scale(0.015625)"/>
      <path id="DejaVuSans-65" d="M 3597 1894 
L 3597 1613 
L 953 1613 
Q 991 1019 1311 708 
Q 1631 397 2203 397 
Q 2534 397 2845 478 
Q 3156 559 3463 722 
L 3463 178 
Q 3153 47 2828 -22 
Q 2503 -91 2169 -91 
Q 1331 -91 842 396 
Q 353 884 353 1716 
Q 353 2575 817 3079 
Q 1281 3584 2069 3584 
Q 2775 3584 3186 3129 
Q 3597 2675 3597 1894 
z
M 3022 2063 
Q 3016 2534 2758 2815 
Q 2500 3097 2075 3097 
Q 1594 3097 1305 2825 
Q 1016 2553 972 2059 
L 3022 2063 
z
" transform="scale(0.015625)"/>
      <path id="DejaVuSans-6e" d="M 3513 2113 
L 3513 0 
L 2938 0 
L 2938 2094 
Q 2938 2591 2744 2837 
Q 2550 3084 2163 3084 
Q 1697 3084 1428 2787 
Q 1159 2491 1159 1978 
L 1159 0 
L 581 0 
L 581 3500 
L 1159 3500 
L 1159 2956 
Q 1366 3272 1645 3428 
Q 1925 3584 2291 3584 
Q 2894 3584 3203 3211 
Q 3513 2838 3513 2113 
z
" transform="scale(0.015625)"/>
      <path id="DejaVuSans-69" d="M 603 3500 
L 1178 3500 
L 1178 0 
L 603 0 
L 603 3500 
z
M 603 4863 
L 1178 4863 
L 1178 4134 
L 603 4134 
L 603 4863 
z
" transform="scale(0.015625)"/>
      <path id="DejaVuSans-67" d="M 2906 1791 
Q 2906 2416 2648 2759 
Q 2391 3103 1925 3103 
Q 1463 3103 1205 2759 
Q 947 2416 947 1791 
Q 947 1169 1205 825 
Q 1463 481 1925 481 
Q 2391 481 2648 825 
Q 2906 1169 2906 1791 
z
M 3481 434 
Q 3481 -459 3084 -895 
Q 2688 -1331 1869 -1331 
Q 1566 -1331 1297 -1286 
Q 1028 -1241 775 -1147 
L 775 -588 
Q 1028 -725 1275 -790 
Q 1522 -856 1778 -856 
Q 2344 -856 2625 -561 
Q 2906 -266 2906 331 
L 2906 616 
Q 2728 306 2450 153 
Q 2172 0 1784 0 
Q 1141 0 747 490 
Q 353 981 353 1791 
Q 353 2603 747 3093 
Q 1141 3584 1784 3584 
Q 2172 3584 2450 3431 
Q 2728 3278 2906 2969 
L 2906 3500 
L 3481 3500 
L 3481 434 
z
" transform="scale(0.015625)"/>
      <path id="DejaVuSans-20" transform="scale(0.015625)"/>
      <path id="DejaVuSans-43" d="M 4122 4306 
L 4122 3641 
Q 3803 3938 3442 4084 
Q 3081 4231 2675 4231 
Q 1875 4231 1450 3742 
Q 1025 3253 1025 2328 
Q 1025 1406 1450 917 
Q 1875 428 2675 428 
Q 3081 428 3442 575 
Q 3803 722 4122 1019 
L 4122 359 
Q 3791 134 3420 21 
Q 3050 -91 2638 -91 
Q 1578 -91 968 557 
Q 359 1206 359 2328 
Q 359 3453 968 4101 
Q 1578 4750 2638 4750 
Q 3056 4750 3426 4639 
Q 3797 4528 4122 4306 
z
" transform="scale(0.015625)"/>
      <path id="DejaVuSans-76" d="M 191 3500 
L 800 3500 
L 1894 563 
L 2988 3500 
L 3597 3500 
L 2284 0 
L 1503 0 
L 191 3500 
z
" transform="scale(0.015625)"/>
     </defs>
     <use xlink:href="#DejaVuSans-4c"/>
     <use xlink:href="#DejaVuSans-65" x="53.962891"/>
     <use xlink:href="#DejaVuSans-61" x="115.486328"/>
     <use xlink:href="#DejaVuSans-72" x="176.765625"/>
     <use xlink:href="#DejaVuSans-6e" x="216.128906"/>
     <use xlink:href="#DejaVuSans-69" x="279.507812"/>
     <use xlink:href="#DejaVuSans-6e" x="307.291016"/>
     <use xlink:href="#DejaVuSans-67" x="370.669922"/>
     <use xlink:href="#DejaVuSans-20" x="434.146484"/>
     <use xlink:href="#DejaVuSans-43" x="465.933594"/>
     <use xlink:href="#DejaVuSans-75" x="535.757812"/>
     <use xlink:href="#DejaVuSans-72" x="599.136719"/>
     <use xlink:href="#DejaVuSans-76" x="640.25"/>
     <use xlink:href="#DejaVuSans-65" x="699.429688"/>
     <use xlink:href="#DejaVuSans-73" x="760.953125"/>
    </g>
   </g>
   <g id="legend_1">
    <g id="patch_7">
     <path d="M 214.18875 302.584 
L 407.72 302.584 
Q 409.72 302.584 409.72 300.584 
L 409.72 228.193375 
Q 409.72 226.193375 407.72 226.193375 
L 214.18875 226.193375 
Q 212.18875 226.193375 212.18875 228.193375 
L 212.18875 300.584 
Q 212.18875 302.584 214.18875 302.584 
z
" style="fill: #ffffff; opacity: 0.8; stroke: #cccccc; stroke-linejoin: miter"/>
    </g>
    <g id="line2d_20">
     <path d="M 216.18875 234.291812 
L 226.18875 234.291812 
L 236.18875 234.291812 
" style="fill: none; stroke: #1f77b4; stroke-width: 1.5; stroke-linecap: square"/>
    </g>
    <g id="text_18">
     <!-- Train Accuracy -->
     <g transform="translate(244.18875 237.791812) scale(0.1 -0.1)">
      <defs>
       <path id="DejaVuSans-54" d="M -19 4666 
L 3928 4666 
L 3928 4134 
L 2272 4134 
L 2272 0 
L 1638 0 
L 1638 4134 
L -19 4134 
L -19 4666 
z
" transform="scale(0.015625)"/>
      </defs>
      <use xlink:href="#DejaVuSans-54"/>
      <use xlink:href="#DejaVuSans-72" x="46.333984"/>
      <use xlink:href="#DejaVuSans-61" x="87.447266"/>
      <use xlink:href="#DejaVuSans-69" x="148.726562"/>
      <use xlink:href="#DejaVuSans-6e" x="176.509766"/>
      <use xlink:href="#DejaVuSans-20" x="239.888672"/>
      <use xlink:href="#DejaVuSans-41" x="271.675781"/>
      <use xlink:href="#DejaVuSans-63" x="338.333984"/>
      <use xlink:href="#DejaVuSans-63" x="393.314453"/>
      <use xlink:href="#DejaVuSans-75" x="448.294922"/>
      <use xlink:href="#DejaVuSans-72" x="511.673828"/>
      <use xlink:href="#DejaVuSans-61" x="552.787109"/>
      <use xlink:href="#DejaVuSans-63" x="614.066406"/>
      <use xlink:href="#DejaVuSans-79" x="669.046875"/>
     </g>
    </g>
    <g id="line2d_21">
     <path d="M 216.18875 248.969937 
L 226.18875 248.969937 
L 236.18875 248.969937 
" style="fill: none; stroke: #ff7f0e; stroke-width: 1.5; stroke-linecap: square"/>
    </g>
    <g id="text_19">
     <!-- Validation Accuracy -->
     <g transform="translate(244.18875 252.469937) scale(0.1 -0.1)">
      <defs>
       <path id="DejaVuSans-56" d="M 1831 0 
L 50 4666 
L 709 4666 
L 2188 738 
L 3669 4666 
L 4325 4666 
L 2547 0 
L 1831 0 
z
" transform="scale(0.015625)"/>
       <path id="DejaVuSans-6c" d="M 603 4863 
L 1178 4863 
L 1178 0 
L 603 0 
L 603 4863 
z
" transform="scale(0.015625)"/>
       <path id="DejaVuSans-64" d="M 2906 2969 
L 2906 4863 
L 3481 4863 
L 3481 0 
L 2906 0 
L 2906 525 
Q 2725 213 2448 61 
Q 2172 -91 1784 -91 
Q 1150 -91 751 415 
Q 353 922 353 1747 
Q 353 2572 751 3078 
Q 1150 3584 1784 3584 
Q 2172 3584 2448 3432 
Q 2725 3281 2906 2969 
z
M 947 1747 
Q 947 1113 1208 752 
Q 1469 391 1925 391 
Q 2381 391 2643 752 
Q 2906 1113 2906 1747 
Q 2906 2381 2643 2742 
Q 2381 3103 1925 3103 
Q 1469 3103 1208 2742 
Q 947 2381 947 1747 
z
" transform="scale(0.015625)"/>
       <path id="DejaVuSans-74" d="M 1172 4494 
L 1172 3500 
L 2356 3500 
L 2356 3053 
L 1172 3053 
L 1172 1153 
Q 1172 725 1289 603 
Q 1406 481 1766 481 
L 2356 481 
L 2356 0 
L 1766 0 
Q 1100 0 847 248 
Q 594 497 594 1153 
L 594 3053 
L 172 3053 
L 172 3500 
L 594 3500 
L 594 4494 
L 1172 4494 
z
" transform="scale(0.015625)"/>
      </defs>
      <use xlink:href="#DejaVuSans-56"/>
      <use xlink:href="#DejaVuSans-61" x="60.658203"/>
      <use xlink:href="#DejaVuSans-6c" x="121.9375"/>
      <use xlink:href="#DejaVuSans-69" x="149.720703"/>
      <use xlink:href="#DejaVuSans-64" x="177.503906"/>
      <use xlink:href="#DejaVuSans-61" x="240.980469"/>
      <use xlink:href="#DejaVuSans-74" x="302.259766"/>
      <use xlink:href="#DejaVuSans-69" x="341.46875"/>
      <use xlink:href="#DejaVuSans-6f" x="369.251953"/>
      <use xlink:href="#DejaVuSans-6e" x="430.433594"/>
      <use xlink:href="#DejaVuSans-20" x="493.8125"/>
      <use xlink:href="#DejaVuSans-41" x="525.599609"/>
      <use xlink:href="#DejaVuSans-63" x="592.257812"/>
      <use xlink:href="#DejaVuSans-63" x="647.238281"/>
      <use xlink:href="#DejaVuSans-75" x="702.21875"/>
      <use xlink:href="#DejaVuSans-72" x="765.597656"/>
      <use xlink:href="#DejaVuSans-61" x="806.710938"/>
      <use xlink:href="#DejaVuSans-63" x="867.990234"/>
      <use xlink:href="#DejaVuSans-79" x="922.970703"/>
     </g>
    </g>
    <g id="line2d_22">
     <path d="M 216.18875 263.648062 
L 226.18875 263.648062 
L 236.18875 263.648062 
" style="fill: none; stroke: #2ca02c; stroke-width: 1.5; stroke-linecap: square"/>
    </g>
    <g id="text_20">
     <!-- Robust Validation Accuracy -->
     <g transform="translate(244.18875 267.148062) scale(0.1 -0.1)">
      <defs>
       <path id="DejaVuSans-52" d="M 2841 2188 
Q 3044 2119 3236 1894 
Q 3428 1669 3622 1275 
L 4263 0 
L 3584 0 
L 2988 1197 
Q 2756 1666 2539 1819 
Q 2322 1972 1947 1972 
L 1259 1972 
L 1259 0 
L 628 0 
L 628 4666 
L 2053 4666 
Q 2853 4666 3247 4331 
Q 3641 3997 3641 3322 
Q 3641 2881 3436 2590 
Q 3231 2300 2841 2188 
z
M 1259 4147 
L 1259 2491 
L 2053 2491 
Q 2509 2491 2742 2702 
Q 2975 2913 2975 3322 
Q 2975 3731 2742 3939 
Q 2509 4147 2053 4147 
L 1259 4147 
z
" transform="scale(0.015625)"/>
       <path id="DejaVuSans-62" d="M 3116 1747 
Q 3116 2381 2855 2742 
Q 2594 3103 2138 3103 
Q 1681 3103 1420 2742 
Q 1159 2381 1159 1747 
Q 1159 1113 1420 752 
Q 1681 391 2138 391 
Q 2594 391 2855 752 
Q 3116 1113 3116 1747 
z
M 1159 2969 
Q 1341 3281 1617 3432 
Q 1894 3584 2278 3584 
Q 2916 3584 3314 3078 
Q 3713 2572 3713 1747 
Q 3713 922 3314 415 
Q 2916 -91 2278 -91 
Q 1894 -91 1617 61 
Q 1341 213 1159 525 
L 1159 0 
L 581 0 
L 581 4863 
L 1159 4863 
L 1159 2969 
z
" transform="scale(0.015625)"/>
      </defs>
      <use xlink:href="#DejaVuSans-52"/>
      <use xlink:href="#DejaVuSans-6f" x="64.982422"/>
      <use xlink:href="#DejaVuSans-62" x="126.164062"/>
      <use xlink:href="#DejaVuSans-75" x="189.640625"/>
      <use xlink:href="#DejaVuSans-73" x="253.019531"/>
      <use xlink:href="#DejaVuSans-74" x="305.119141"/>
      <use xlink:href="#DejaVuSans-20" x="344.328125"/>
      <use xlink:href="#DejaVuSans-56" x="376.115234"/>
      <use xlink:href="#DejaVuSans-61" x="436.773438"/>
      <use xlink:href="#DejaVuSans-6c" x="498.052734"/>
      <use xlink:href="#DejaVuSans-69" x="525.835938"/>
      <use xlink:href="#DejaVuSans-64" x="553.619141"/>
      <use xlink:href="#DejaVuSans-61" x="617.095703"/>
      <use xlink:href="#DejaVuSans-74" x="678.375"/>
      <use xlink:href="#DejaVuSans-69" x="717.583984"/>
      <use xlink:href="#DejaVuSans-6f" x="745.367188"/>
      <use xlink:href="#DejaVuSans-6e" x="806.548828"/>
      <use xlink:href="#DejaVuSans-20" x="869.927734"/>
      <use xlink:href="#DejaVuSans-41" x="901.714844"/>
      <use xlink:href="#DejaVuSans-63" x="968.373047"/>
      <use xlink:href="#DejaVuSans-63" x="1023.353516"/>
      <use xlink:href="#DejaVuSans-75" x="1078.333984"/>
      <use xlink:href="#DejaVuSans-72" x="1141.712891"/>
      <use xlink:href="#DejaVuSans-61" x="1182.826172"/>
      <use xlink:href="#DejaVuSans-63" x="1244.105469"/>
      <use xlink:href="#DejaVuSans-79" x="1299.085938"/>
     </g>
    </g>
    <g id="line2d_23">
     <path d="M 216.18875 278.326188 
L 226.18875 278.326188 
L 236.18875 278.326188 
" style="fill: none; stroke: #d62728; stroke-width: 1.5; stroke-linecap: square"/>
    </g>
    <g id="text_21">
     <!-- SWA Validation Accuracy -->
     <g transform="translate(244.18875 281.826188) scale(0.1 -0.1)">
      <defs>
       <path id="DejaVuSans-53" d="M 3425 4513 
L 3425 3897 
Q 3066 4069 2747 4153 
Q 2428 4238 2131 4238 
Q 1616 4238 1336 4038 
Q 1056 3838 1056 3469 
Q 1056 3159 1242 3001 
Q 1428 2844 1947 2747 
L 2328 2669 
Q 3034 2534 3370 2195 
Q 3706 1856 3706 1288 
Q 3706 609 3251 259 
Q 2797 -91 1919 -91 
Q 1588 -91 1214 -16 
Q 841 59 441 206 
L 441 856 
Q 825 641 1194 531 
Q 1563 422 1919 422 
Q 2459 422 2753 634 
Q 3047 847 3047 1241 
Q 3047 1584 2836 1778 
Q 2625 1972 2144 2069 
L 1759 2144 
Q 1053 2284 737 2584 
Q 422 2884 422 3419 
Q 422 4038 858 4394 
Q 1294 4750 2059 4750 
Q 2388 4750 2728 4690 
Q 3069 4631 3425 4513 
z
" transform="scale(0.015625)"/>
       <path id="DejaVuSans-57" d="M 213 4666 
L 850 4666 
L 1831 722 
L 2809 4666 
L 3519 4666 
L 4500 722 
L 5478 4666 
L 6119 4666 
L 4947 0 
L 4153 0 
L 3169 4050 
L 2175 0 
L 1381 0 
L 213 4666 
z
" transform="scale(0.015625)"/>
      </defs>
      <use xlink:href="#DejaVuSans-53"/>
      <use xlink:href="#DejaVuSans-57" x="63.476562"/>
      <use xlink:href="#DejaVuSans-41" x="156.853516"/>
      <use xlink:href="#DejaVuSans-20" x="225.261719"/>
      <use xlink:href="#DejaVuSans-56" x="257.048828"/>
      <use xlink:href="#DejaVuSans-61" x="317.707031"/>
      <use xlink:href="#DejaVuSans-6c" x="378.986328"/>
      <use xlink:href="#DejaVuSans-69" x="406.769531"/>
      <use xlink:href="#DejaVuSans-64" x="434.552734"/>
      <use xlink:href="#DejaVuSans-61" x="498.029297"/>
      <use xlink:href="#DejaVuSans-74" x="559.308594"/>
      <use xlink:href="#DejaVuSans-69" x="598.517578"/>
      <use xlink:href="#DejaVuSans-6f" x="626.300781"/>
      <use xlink:href="#DejaVuSans-6e" x="687.482422"/>
      <use xlink:href="#DejaVuSans-20" x="750.861328"/>
      <use xlink:href="#DejaVuSans-41" x="782.648438"/>
      <use xlink:href="#DejaVuSans-63" x="849.306641"/>
      <use xlink:href="#DejaVuSans-63" x="904.287109"/>
      <use xlink:href="#DejaVuSans-75" x="959.267578"/>
      <use xlink:href="#DejaVuSans-72" x="1022.646484"/>
      <use xlink:href="#DejaVuSans-61" x="1063.759766"/>
      <use xlink:href="#DejaVuSans-63" x="1125.039062"/>
      <use xlink:href="#DejaVuSans-79" x="1180.019531"/>
     </g>
    </g>
    <g id="line2d_24">
     <path d="M 216.18875 293.004312 
L 226.18875 293.004312 
L 236.18875 293.004312 
" style="fill: none; stroke: #9467bd; stroke-width: 1.5; stroke-linecap: square"/>
    </g>
    <g id="text_22">
     <!-- SWA Robust Validation Accuracy -->
     <g transform="translate(244.18875 296.504312) scale(0.1 -0.1)">
      <use xlink:href="#DejaVuSans-53"/>
      <use xlink:href="#DejaVuSans-57" x="63.476562"/>
      <use xlink:href="#DejaVuSans-41" x="156.853516"/>
      <use xlink:href="#DejaVuSans-20" x="225.261719"/>
      <use xlink:href="#DejaVuSans-52" x="257.048828"/>
      <use xlink:href="#DejaVuSans-6f" x="322.03125"/>
      <use xlink:href="#DejaVuSans-62" x="383.212891"/>
      <use xlink:href="#DejaVuSans-75" x="446.689453"/>
      <use xlink:href="#DejaVuSans-73" x="510.068359"/>
      <use xlink:href="#DejaVuSans-74" x="562.167969"/>
      <use xlink:href="#DejaVuSans-20" x="601.376953"/>
      <use xlink:href="#DejaVuSans-56" x="633.164062"/>
      <use xlink:href="#DejaVuSans-61" x="693.822266"/>
      <use xlink:href="#DejaVuSans-6c" x="755.101562"/>
      <use xlink:href="#DejaVuSans-69" x="782.884766"/>
      <use xlink:href="#DejaVuSans-64" x="810.667969"/>
      <use xlink:href="#DejaVuSans-61" x="874.144531"/>
      <use xlink:href="#DejaVuSans-74" x="935.423828"/>
      <use xlink:href="#DejaVuSans-69" x="974.632812"/>
      <use xlink:href="#DejaVuSans-6f" x="1002.416016"/>
      <use xlink:href="#DejaVuSans-6e" x="1063.597656"/>
      <use xlink:href="#DejaVuSans-20" x="1126.976562"/>
      <use xlink:href="#DejaVuSans-41" x="1158.763672"/>
      <use xlink:href="#DejaVuSans-63" x="1225.421875"/>
      <use xlink:href="#DejaVuSans-63" x="1280.402344"/>
      <use xlink:href="#DejaVuSans-75" x="1335.382812"/>
      <use xlink:href="#DejaVuSans-72" x="1398.761719"/>
      <use xlink:href="#DejaVuSans-61" x="1439.875"/>
      <use xlink:href="#DejaVuSans-63" x="1501.154297"/>
      <use xlink:href="#DejaVuSans-79" x="1556.134766"/>
     </g>
    </g>
   </g>
  </g>
 </g>
 <defs>
  <clipPath id="p6c4c84d64b">
   <rect x="57.6" y="41.472" width="357.12" height="266.112"/>
  </clipPath>
 </defs>
</svg>
