<?xml version="1.0" encoding="utf-8" standalone="no"?>
<!DOCTYPE svg PUBLIC "-//W3C//DTD SVG 1.1//EN"
  "http://www.w3.org/Graphics/SVG/1.1/DTD/svg11.dtd">
<svg xmlns:xlink="http://www.w3.org/1999/xlink" width="460.8pt" height="345.6pt" viewBox="0 0 460.8 345.6" xmlns="http://www.w3.org/2000/svg" version="1.1">
 <metadata>
  <rdf:RDF xmlns:dc="http://purl.org/dc/elements/1.1/" xmlns:cc="http://creativecommons.org/ns#" xmlns:rdf="http://www.w3.org/1999/02/22-rdf-syntax-ns#">
   <cc:Work>
    <dc:type rdf:resource="http://purl.org/dc/dcmitype/StillImage"/>
    <dc:date>2025-07-16T06:57:52.021949</dc:date>
    <dc:format>image/svg+xml</dc:format>
    <dc:creator>
     <cc:Agent>
      <dc:title>Matplotlib v3.9.1, https://matplotlib.org/</dc:title>
     </cc:Agent>
    </dc:creator>
   </cc:Work>
  </rdf:RDF>
 </metadata>
 <defs>
  <style type="text/css">*{stroke-linejoin: round; stroke-linecap: butt}</style>
 </defs>
 <g id="figure_1">
  <g id="patch_1">
   <path d="M 0 345.6 
L 460.8 345.6 
L 460.8 0 
L 0 0 
z
" style="fill: #ffffff"/>
  </g>
  <g id="axes_1">
   <g id="patch_2">
    <path d="M 57.6 307.584 
L 414.72 307.584 
L 414.72 41.472 
L 57.6 41.472 
z
" style="fill: #ffffff"/>
   </g>
   <g id="matplotlib.axis_1">
    <g id="xtick_1">
     <g id="line2d_1">
      <defs>
       <path id="md633f2bbf1" d="M 0 0 
L 0 3.5 
" style="stroke: #000000; stroke-width: 0.8"/>
      </defs>
      <g>
       <use xlink:href="#md633f2bbf1" x="73.832727" y="307.584" style="stroke: #000000; stroke-width: 0.8"/>
      </g>
     </g>
     <g id="text_1">
      <!-- 1 -->
      <g transform="translate(70.651477 322.182437) scale(0.1 -0.1)">
       <defs>
        <path id="DejaVuSans-31" d="M 794 531 
L 1825 531 
L 1825 4091 
L 703 3866 
L 703 4441 
L 1819 4666 
L 2450 4666 
L 2450 531 
L 3481 531 
L 3481 0 
L 794 0 
L 794 531 
z
" transform="scale(0.015625)"/>
       </defs>
       <use xlink:href="#DejaVuSans-31"/>
      </g>
     </g>
    </g>
    <g id="xtick_2">
     <g id="line2d_2">
      <g>
       <use xlink:href="#md633f2bbf1" x="109.664165" y="307.584" style="stroke: #000000; stroke-width: 0.8"/>
      </g>
     </g>
     <g id="text_2">
      <!-- 34 -->
      <g transform="translate(103.301665 322.182437) scale(0.1 -0.1)">
       <defs>
        <path id="DejaVuSans-33" d="M 2597 2516 
Q 3050 2419 3304 2112 
Q 3559 1806 3559 1356 
Q 3559 666 3084 287 
Q 2609 -91 1734 -91 
Q 1441 -91 1130 -33 
Q 819 25 488 141 
L 488 750 
Q 750 597 1062 519 
Q 1375 441 1716 441 
Q 2309 441 2620 675 
Q 2931 909 2931 1356 
Q 2931 1769 2642 2001 
Q 2353 2234 1838 2234 
L 1294 2234 
L 1294 2753 
L 1863 2753 
Q 2328 2753 2575 2939 
Q 2822 3125 2822 3475 
Q 2822 3834 2567 4026 
Q 2313 4219 1838 4219 
Q 1578 4219 1281 4162 
Q 984 4106 628 3988 
L 628 4550 
Q 988 4650 1302 4700 
Q 1616 4750 1894 4750 
Q 2613 4750 3031 4423 
Q 3450 4097 3450 3541 
Q 3450 3153 3228 2886 
Q 3006 2619 2597 2516 
z
" transform="scale(0.015625)"/>
        <path id="DejaVuSans-34" d="M 2419 4116 
L 825 1625 
L 2419 1625 
L 2419 4116 
z
M 2253 4666 
L 3047 4666 
L 3047 1625 
L 3713 1625 
L 3713 1100 
L 3047 1100 
L 3047 0 
L 2419 0 
L 2419 1100 
L 313 1100 
L 313 1709 
L 2253 4666 
z
" transform="scale(0.015625)"/>
       </defs>
       <use xlink:href="#DejaVuSans-33"/>
       <use xlink:href="#DejaVuSans-34" x="63.623047"/>
      </g>
     </g>
    </g>
    <g id="xtick_3">
     <g id="line2d_3">
      <g>
       <use xlink:href="#md633f2bbf1" x="145.495604" y="307.584" style="stroke: #000000; stroke-width: 0.8"/>
      </g>
     </g>
     <g id="text_3">
      <!-- 67 -->
      <g transform="translate(139.133104 322.182437) scale(0.1 -0.1)">
       <defs>
        <path id="DejaVuSans-36" d="M 2113 2584 
Q 1688 2584 1439 2293 
Q 1191 2003 1191 1497 
Q 1191 994 1439 701 
Q 1688 409 2113 409 
Q 2538 409 2786 701 
Q 3034 994 3034 1497 
Q 3034 2003 2786 2293 
Q 2538 2584 2113 2584 
z
M 3366 4563 
L 3366 3988 
Q 3128 4100 2886 4159 
Q 2644 4219 2406 4219 
Q 1781 4219 1451 3797 
Q 1122 3375 1075 2522 
Q 1259 2794 1537 2939 
Q 1816 3084 2150 3084 
Q 2853 3084 3261 2657 
Q 3669 2231 3669 1497 
Q 3669 778 3244 343 
Q 2819 -91 2113 -91 
Q 1303 -91 875 529 
Q 447 1150 447 2328 
Q 447 3434 972 4092 
Q 1497 4750 2381 4750 
Q 2619 4750 2861 4703 
Q 3103 4656 3366 4563 
z
" transform="scale(0.015625)"/>
        <path id="DejaVuSans-37" d="M 525 4666 
L 3525 4666 
L 3525 4397 
L 1831 0 
L 1172 0 
L 2766 4134 
L 525 4134 
L 525 4666 
z
" transform="scale(0.015625)"/>
       </defs>
       <use xlink:href="#DejaVuSans-36"/>
       <use xlink:href="#DejaVuSans-37" x="63.623047"/>
      </g>
     </g>
    </g>
    <g id="xtick_4">
     <g id="line2d_4">
      <g>
       <use xlink:href="#md633f2bbf1" x="181.327042" y="307.584" style="stroke: #000000; stroke-width: 0.8"/>
      </g>
     </g>
     <g id="text_4">
      <!-- 100 -->
      <g transform="translate(171.783292 322.182437) scale(0.1 -0.1)">
       <defs>
        <path id="DejaVuSans-30" d="M 2034 4250 
Q 1547 4250 1301 3770 
Q 1056 3291 1056 2328 
Q 1056 1369 1301 889 
Q 1547 409 2034 409 
Q 2525 409 2770 889 
Q 3016 1369 3016 2328 
Q 3016 3291 2770 3770 
Q 2525 4250 2034 4250 
z
M 2034 4750 
Q 2819 4750 3233 4129 
Q 3647 3509 3647 2328 
Q 3647 1150 3233 529 
Q 2819 -91 2034 -91 
Q 1250 -91 836 529 
Q 422 1150 422 2328 
Q 422 3509 836 4129 
Q 1250 4750 2034 4750 
z
" transform="scale(0.015625)"/>
       </defs>
       <use xlink:href="#DejaVuSans-31"/>
       <use xlink:href="#DejaVuSans-30" x="63.623047"/>
       <use xlink:href="#DejaVuSans-30" x="127.246094"/>
      </g>
     </g>
    </g>
    <g id="xtick_5">
     <g id="line2d_5">
      <g>
       <use xlink:href="#md633f2bbf1" x="217.15848" y="307.584" style="stroke: #000000; stroke-width: 0.8"/>
      </g>
     </g>
     <g id="text_5">
      <!-- 133 -->
      <g transform="translate(207.61473 322.182437) scale(0.1 -0.1)">
       <use xlink:href="#DejaVuSans-31"/>
       <use xlink:href="#DejaVuSans-33" x="63.623047"/>
       <use xlink:href="#DejaVuSans-33" x="127.246094"/>
      </g>
     </g>
    </g>
    <g id="xtick_6">
     <g id="line2d_6">
      <g>
       <use xlink:href="#md633f2bbf1" x="254.075719" y="307.584" style="stroke: #000000; stroke-width: 0.8"/>
      </g>
     </g>
     <g id="text_6">
      <!-- 167 -->
      <g transform="translate(244.531969 322.182437) scale(0.1 -0.1)">
       <use xlink:href="#DejaVuSans-31"/>
       <use xlink:href="#DejaVuSans-36" x="63.623047"/>
       <use xlink:href="#DejaVuSans-37" x="127.246094"/>
      </g>
     </g>
    </g>
    <g id="xtick_7">
     <g id="line2d_7">
      <g>
       <use xlink:href="#md633f2bbf1" x="289.907157" y="307.584" style="stroke: #000000; stroke-width: 0.8"/>
      </g>
     </g>
     <g id="text_7">
      <!-- 200 -->
      <g transform="translate(280.363407 322.182437) scale(0.1 -0.1)">
       <defs>
        <path id="DejaVuSans-32" d="M 1228 531 
L 3431 531 
L 3431 0 
L 469 0 
L 469 531 
Q 828 903 1448 1529 
Q 2069 2156 2228 2338 
Q 2531 2678 2651 2914 
Q 2772 3150 2772 3378 
Q 2772 3750 2511 3984 
Q 2250 4219 1831 4219 
Q 1534 4219 1204 4116 
Q 875 4013 500 3803 
L 500 4441 
Q 881 4594 1212 4672 
Q 1544 4750 1819 4750 
Q 2544 4750 2975 4387 
Q 3406 4025 3406 3419 
Q 3406 3131 3298 2873 
Q 3191 2616 2906 2266 
Q 2828 2175 2409 1742 
Q 1991 1309 1228 531 
z
" transform="scale(0.015625)"/>
       </defs>
       <use xlink:href="#DejaVuSans-32"/>
       <use xlink:href="#DejaVuSans-30" x="63.623047"/>
       <use xlink:href="#DejaVuSans-30" x="127.246094"/>
      </g>
     </g>
    </g>
    <g id="xtick_8">
     <g id="line2d_8">
      <g>
       <use xlink:href="#md633f2bbf1" x="325.738595" y="307.584" style="stroke: #000000; stroke-width: 0.8"/>
      </g>
     </g>
     <g id="text_8">
      <!-- 233 -->
      <g transform="translate(316.194845 322.182437) scale(0.1 -0.1)">
       <use xlink:href="#DejaVuSans-32"/>
       <use xlink:href="#DejaVuSans-33" x="63.623047"/>
       <use xlink:href="#DejaVuSans-33" x="127.246094"/>
      </g>
     </g>
    </g>
    <g id="xtick_9">
     <g id="line2d_9">
      <g>
       <use xlink:href="#md633f2bbf1" x="361.570033" y="307.584" style="stroke: #000000; stroke-width: 0.8"/>
      </g>
     </g>
     <g id="text_9">
      <!-- 266 -->
      <g transform="translate(352.026283 322.182437) scale(0.1 -0.1)">
       <use xlink:href="#DejaVuSans-32"/>
       <use xlink:href="#DejaVuSans-36" x="63.623047"/>
       <use xlink:href="#DejaVuSans-36" x="127.246094"/>
      </g>
     </g>
    </g>
    <g id="xtick_10">
     <g id="line2d_10">
      <g>
       <use xlink:href="#md633f2bbf1" x="398.487273" y="307.584" style="stroke: #000000; stroke-width: 0.8"/>
      </g>
     </g>
     <g id="text_10">
      <!-- 300 -->
      <g transform="translate(388.943523 322.182437) scale(0.1 -0.1)">
       <use xlink:href="#DejaVuSans-33"/>
       <use xlink:href="#DejaVuSans-30" x="63.623047"/>
       <use xlink:href="#DejaVuSans-30" x="127.246094"/>
      </g>
     </g>
    </g>
    <g id="text_11">
     <!-- Epochs -->
     <g transform="translate(218.244375 335.860562) scale(0.1 -0.1)">
      <defs>
       <path id="DejaVuSans-45" d="M 628 4666 
L 3578 4666 
L 3578 4134 
L 1259 4134 
L 1259 2753 
L 3481 2753 
L 3481 2222 
L 1259 2222 
L 1259 531 
L 3634 531 
L 3634 0 
L 628 0 
L 628 4666 
z
" transform="scale(0.015625)"/>
       <path id="DejaVuSans-70" d="M 1159 525 
L 1159 -1331 
L 581 -1331 
L 581 3500 
L 1159 3500 
L 1159 2969 
Q 1341 3281 1617 3432 
Q 1894 3584 2278 3584 
Q 2916 3584 3314 3078 
Q 3713 2572 3713 1747 
Q 3713 922 3314 415 
Q 2916 -91 2278 -91 
Q 1894 -91 1617 61 
Q 1341 213 1159 525 
z
M 3116 1747 
Q 3116 2381 2855 2742 
Q 2594 3103 2138 3103 
Q 1681 3103 1420 2742 
Q 1159 2381 1159 1747 
Q 1159 1113 1420 752 
Q 1681 391 2138 391 
Q 2594 391 2855 752 
Q 3116 1113 3116 1747 
z
" transform="scale(0.015625)"/>
       <path id="DejaVuSans-6f" d="M 1959 3097 
Q 1497 3097 1228 2736 
Q 959 2375 959 1747 
Q 959 1119 1226 758 
Q 1494 397 1959 397 
Q 2419 397 2687 759 
Q 2956 1122 2956 1747 
Q 2956 2369 2687 2733 
Q 2419 3097 1959 3097 
z
M 1959 3584 
Q 2709 3584 3137 3096 
Q 3566 2609 3566 1747 
Q 3566 888 3137 398 
Q 2709 -91 1959 -91 
Q 1206 -91 779 398 
Q 353 888 353 1747 
Q 353 2609 779 3096 
Q 1206 3584 1959 3584 
z
" transform="scale(0.015625)"/>
       <path id="DejaVuSans-63" d="M 3122 3366 
L 3122 2828 
Q 2878 2963 2633 3030 
Q 2388 3097 2138 3097 
Q 1578 3097 1268 2742 
Q 959 2388 959 1747 
Q 959 1106 1268 751 
Q 1578 397 2138 397 
Q 2388 397 2633 464 
Q 2878 531 3122 666 
L 3122 134 
Q 2881 22 2623 -34 
Q 2366 -91 2075 -91 
Q 1284 -91 818 406 
Q 353 903 353 1747 
Q 353 2603 823 3093 
Q 1294 3584 2113 3584 
Q 2378 3584 2631 3529 
Q 2884 3475 3122 3366 
z
" transform="scale(0.015625)"/>
       <path id="DejaVuSans-68" d="M 3513 2113 
L 3513 0 
L 2938 0 
L 2938 2094 
Q 2938 2591 2744 2837 
Q 2550 3084 2163 3084 
Q 1697 3084 1428 2787 
Q 1159 2491 1159 1978 
L 1159 0 
L 581 0 
L 581 4863 
L 1159 4863 
L 1159 2956 
Q 1366 3272 1645 3428 
Q 1925 3584 2291 3584 
Q 2894 3584 3203 3211 
Q 3513 2838 3513 2113 
z
" transform="scale(0.015625)"/>
       <path id="DejaVuSans-73" d="M 2834 3397 
L 2834 2853 
Q 2591 2978 2328 3040 
Q 2066 3103 1784 3103 
Q 1356 3103 1142 2972 
Q 928 2841 928 2578 
Q 928 2378 1081 2264 
Q 1234 2150 1697 2047 
L 1894 2003 
Q 2506 1872 2764 1633 
Q 3022 1394 3022 966 
Q 3022 478 2636 193 
Q 2250 -91 1575 -91 
Q 1294 -91 989 -36 
Q 684 19 347 128 
L 347 722 
Q 666 556 975 473 
Q 1284 391 1588 391 
Q 1994 391 2212 530 
Q 2431 669 2431 922 
Q 2431 1156 2273 1281 
Q 2116 1406 1581 1522 
L 1381 1569 
Q 847 1681 609 1914 
Q 372 2147 372 2553 
Q 372 3047 722 3315 
Q 1072 3584 1716 3584 
Q 2034 3584 2315 3537 
Q 2597 3491 2834 3397 
z
" transform="scale(0.015625)"/>
      </defs>
      <use xlink:href="#DejaVuSans-45"/>
      <use xlink:href="#DejaVuSans-70" x="63.183594"/>
      <use xlink:href="#DejaVuSans-6f" x="126.660156"/>
      <use xlink:href="#DejaVuSans-63" x="187.841797"/>
      <use xlink:href="#DejaVuSans-68" x="242.822266"/>
      <use xlink:href="#DejaVuSans-73" x="306.201172"/>
     </g>
    </g>
   </g>
   <g id="matplotlib.axis_2">
    <g id="ytick_1">
     <g id="line2d_11">
      <defs>
       <path id="mfcb95551e4" d="M 0 0 
L -3.5 0 
" style="stroke: #000000; stroke-width: 0.8"/>
      </defs>
      <g>
       <use xlink:href="#mfcb95551e4" x="57.6" y="275.544091" style="stroke: #000000; stroke-width: 0.8"/>
      </g>
     </g>
     <g id="text_12">
      <!-- 20 -->
      <g transform="translate(37.875 279.34331) scale(0.1 -0.1)">
       <use xlink:href="#DejaVuSans-32"/>
       <use xlink:href="#DejaVuSans-30" x="63.623047"/>
      </g>
     </g>
    </g>
    <g id="ytick_2">
     <g id="line2d_12">
      <g>
       <use xlink:href="#mfcb95551e4" x="57.6" y="243.424848" style="stroke: #000000; stroke-width: 0.8"/>
      </g>
     </g>
     <g id="text_13">
      <!-- 30 -->
      <g transform="translate(37.875 247.224066) scale(0.1 -0.1)">
       <use xlink:href="#DejaVuSans-33"/>
       <use xlink:href="#DejaVuSans-30" x="63.623047"/>
      </g>
     </g>
    </g>
    <g id="ytick_3">
     <g id="line2d_13">
      <g>
       <use xlink:href="#mfcb95551e4" x="57.6" y="211.305604" style="stroke: #000000; stroke-width: 0.8"/>
      </g>
     </g>
     <g id="text_14">
      <!-- 40 -->
      <g transform="translate(37.875 215.104823) scale(0.1 -0.1)">
       <use xlink:href="#DejaVuSans-34"/>
       <use xlink:href="#DejaVuSans-30" x="63.623047"/>
      </g>
     </g>
    </g>
    <g id="ytick_4">
     <g id="line2d_14">
      <g>
       <use xlink:href="#mfcb95551e4" x="57.6" y="179.186361" style="stroke: #000000; stroke-width: 0.8"/>
      </g>
     </g>
     <g id="text_15">
      <!-- 50 -->
      <g transform="translate(37.875 182.98558) scale(0.1 -0.1)">
       <defs>
        <path id="DejaVuSans-35" d="M 691 4666 
L 3169 4666 
L 3169 4134 
L 1269 4134 
L 1269 2991 
Q 1406 3038 1543 3061 
Q 1681 3084 1819 3084 
Q 2600 3084 3056 2656 
Q 3513 2228 3513 1497 
Q 3513 744 3044 326 
Q 2575 -91 1722 -91 
Q 1428 -91 1123 -41 
Q 819 9 494 109 
L 494 744 
Q 775 591 1075 516 
Q 1375 441 1709 441 
Q 2250 441 2565 725 
Q 2881 1009 2881 1497 
Q 2881 1984 2565 2268 
Q 2250 2553 1709 2553 
Q 1456 2553 1204 2497 
Q 953 2441 691 2322 
L 691 4666 
z
" transform="scale(0.015625)"/>
       </defs>
       <use xlink:href="#DejaVuSans-35"/>
       <use xlink:href="#DejaVuSans-30" x="63.623047"/>
      </g>
     </g>
    </g>
    <g id="ytick_5">
     <g id="line2d_15">
      <g>
       <use xlink:href="#mfcb95551e4" x="57.6" y="147.067118" style="stroke: #000000; stroke-width: 0.8"/>
      </g>
     </g>
     <g id="text_16">
      <!-- 60 -->
      <g transform="translate(37.875 150.866336) scale(0.1 -0.1)">
       <use xlink:href="#DejaVuSans-36"/>
       <use xlink:href="#DejaVuSans-30" x="63.623047"/>
      </g>
     </g>
    </g>
    <g id="ytick_6">
     <g id="line2d_16">
      <g>
       <use xlink:href="#mfcb95551e4" x="57.6" y="114.947874" style="stroke: #000000; stroke-width: 0.8"/>
      </g>
     </g>
     <g id="text_17">
      <!-- 70 -->
      <g transform="translate(37.875 118.747093) scale(0.1 -0.1)">
       <use xlink:href="#DejaVuSans-37"/>
       <use xlink:href="#DejaVuSans-30" x="63.623047"/>
      </g>
     </g>
    </g>
    <g id="ytick_7">
     <g id="line2d_17">
      <g>
       <use xlink:href="#mfcb95551e4" x="57.6" y="82.828631" style="stroke: #000000; stroke-width: 0.8"/>
      </g>
     </g>
     <g id="text_18">
      <!-- 80 -->
      <g transform="translate(37.875 86.627849) scale(0.1 -0.1)">
       <defs>
        <path id="DejaVuSans-38" d="M 2034 2216 
Q 1584 2216 1326 1975 
Q 1069 1734 1069 1313 
Q 1069 891 1326 650 
Q 1584 409 2034 409 
Q 2484 409 2743 651 
Q 3003 894 3003 1313 
Q 3003 1734 2745 1975 
Q 2488 2216 2034 2216 
z
M 1403 2484 
Q 997 2584 770 2862 
Q 544 3141 544 3541 
Q 544 4100 942 4425 
Q 1341 4750 2034 4750 
Q 2731 4750 3128 4425 
Q 3525 4100 3525 3541 
Q 3525 3141 3298 2862 
Q 3072 2584 2669 2484 
Q 3125 2378 3379 2068 
Q 3634 1759 3634 1313 
Q 3634 634 3220 271 
Q 2806 -91 2034 -91 
Q 1263 -91 848 271 
Q 434 634 434 1313 
Q 434 1759 690 2068 
Q 947 2378 1403 2484 
z
M 1172 3481 
Q 1172 3119 1398 2916 
Q 1625 2713 2034 2713 
Q 2441 2713 2670 2916 
Q 2900 3119 2900 3481 
Q 2900 3844 2670 4047 
Q 2441 4250 2034 4250 
Q 1625 4250 1398 4047 
Q 1172 3844 1172 3481 
z
" transform="scale(0.015625)"/>
       </defs>
       <use xlink:href="#DejaVuSans-38"/>
       <use xlink:href="#DejaVuSans-30" x="63.623047"/>
      </g>
     </g>
    </g>
    <g id="ytick_8">
     <g id="line2d_18">
      <g>
       <use xlink:href="#mfcb95551e4" x="57.6" y="50.709387" style="stroke: #000000; stroke-width: 0.8"/>
      </g>
     </g>
     <g id="text_19">
      <!-- 90 -->
      <g transform="translate(37.875 54.508606) scale(0.1 -0.1)">
       <defs>
        <path id="DejaVuSans-39" d="M 703 97 
L 703 672 
Q 941 559 1184 500 
Q 1428 441 1663 441 
Q 2288 441 2617 861 
Q 2947 1281 2994 2138 
Q 2813 1869 2534 1725 
Q 2256 1581 1919 1581 
Q 1219 1581 811 2004 
Q 403 2428 403 3163 
Q 403 3881 828 4315 
Q 1253 4750 1959 4750 
Q 2769 4750 3195 4129 
Q 3622 3509 3622 2328 
Q 3622 1225 3098 567 
Q 2575 -91 1691 -91 
Q 1453 -91 1209 -44 
Q 966 3 703 97 
z
M 1959 2075 
Q 2384 2075 2632 2365 
Q 2881 2656 2881 3163 
Q 2881 3666 2632 3958 
Q 2384 4250 1959 4250 
Q 1534 4250 1286 3958 
Q 1038 3666 1038 3163 
Q 1038 2656 1286 2365 
Q 1534 2075 1959 2075 
z
" transform="scale(0.015625)"/>
       </defs>
       <use xlink:href="#DejaVuSans-39"/>
       <use xlink:href="#DejaVuSans-30" x="63.623047"/>
      </g>
     </g>
    </g>
    <g id="text_20">
     <!-- Accuracy -->
     <g transform="translate(31.795312 197.356125) rotate(-90) scale(0.1 -0.1)">
      <defs>
       <path id="DejaVuSans-41" d="M 2188 4044 
L 1331 1722 
L 3047 1722 
L 2188 4044 
z
M 1831 4666 
L 2547 4666 
L 4325 0 
L 3669 0 
L 3244 1197 
L 1141 1197 
L 716 0 
L 50 0 
L 1831 4666 
z
" transform="scale(0.015625)"/>
       <path id="DejaVuSans-75" d="M 544 1381 
L 544 3500 
L 1119 3500 
L 1119 1403 
Q 1119 906 1312 657 
Q 1506 409 1894 409 
Q 2359 409 2629 706 
Q 2900 1003 2900 1516 
L 2900 3500 
L 3475 3500 
L 3475 0 
L 2900 0 
L 2900 538 
Q 2691 219 2414 64 
Q 2138 -91 1772 -91 
Q 1169 -91 856 284 
Q 544 659 544 1381 
z
M 1991 3584 
L 1991 3584 
z
" transform="scale(0.015625)"/>
       <path id="DejaVuSans-72" d="M 2631 2963 
Q 2534 3019 2420 3045 
Q 2306 3072 2169 3072 
Q 1681 3072 1420 2755 
Q 1159 2438 1159 1844 
L 1159 0 
L 581 0 
L 581 3500 
L 1159 3500 
L 1159 2956 
Q 1341 3275 1631 3429 
Q 1922 3584 2338 3584 
Q 2397 3584 2469 3576 
Q 2541 3569 2628 3553 
L 2631 2963 
z
" transform="scale(0.015625)"/>
       <path id="DejaVuSans-61" d="M 2194 1759 
Q 1497 1759 1228 1600 
Q 959 1441 959 1056 
Q 959 750 1161 570 
Q 1363 391 1709 391 
Q 2188 391 2477 730 
Q 2766 1069 2766 1631 
L 2766 1759 
L 2194 1759 
z
M 3341 1997 
L 3341 0 
L 2766 0 
L 2766 531 
Q 2569 213 2275 61 
Q 1981 -91 1556 -91 
Q 1019 -91 701 211 
Q 384 513 384 1019 
Q 384 1609 779 1909 
Q 1175 2209 1959 2209 
L 2766 2209 
L 2766 2266 
Q 2766 2663 2505 2880 
Q 2244 3097 1772 3097 
Q 1472 3097 1187 3025 
Q 903 2953 641 2809 
L 641 3341 
Q 956 3463 1253 3523 
Q 1550 3584 1831 3584 
Q 2591 3584 2966 3190 
Q 3341 2797 3341 1997 
z
" transform="scale(0.015625)"/>
       <path id="DejaVuSans-79" d="M 2059 -325 
Q 1816 -950 1584 -1140 
Q 1353 -1331 966 -1331 
L 506 -1331 
L 506 -850 
L 844 -850 
Q 1081 -850 1212 -737 
Q 1344 -625 1503 -206 
L 1606 56 
L 191 3500 
L 800 3500 
L 1894 763 
L 2988 3500 
L 3597 3500 
L 2059 -325 
z
" transform="scale(0.015625)"/>
      </defs>
      <use xlink:href="#DejaVuSans-41"/>
      <use xlink:href="#DejaVuSans-63" x="66.658203"/>
      <use xlink:href="#DejaVuSans-63" x="121.638672"/>
      <use xlink:href="#DejaVuSans-75" x="176.619141"/>
      <use xlink:href="#DejaVuSans-72" x="239.998047"/>
      <use xlink:href="#DejaVuSans-61" x="281.111328"/>
      <use xlink:href="#DejaVuSans-63" x="342.390625"/>
      <use xlink:href="#DejaVuSans-79" x="397.371094"/>
     </g>
    </g>
   </g>
   <g id="line2d_19">
    <path d="M 73.832727 295.488 
L 74.918528 237.193715 
L 76.00433 198.869033 
L 77.090131 175.293509 
L 78.175932 161.353757 
L 79.261733 150.570256 
L 80.347534 144.21707 
L 81.433335 136.223661 
L 82.519137 130.360828 
L 83.604938 126.887668 
L 84.690739 120.986292 
L 86.862341 112.682397 
L 87.948142 110.202791 
L 89.033943 106.802434 
L 90.119745 104.740379 
L 92.291347 99.46854 
L 93.377148 99.256553 
L 94.462949 97.517831 
L 95.54875 121.528036 
L 96.634552 121.68435 
L 97.720353 118.134103 
L 98.806154 116.759399 
L 99.891955 115.75942 
L 100.977756 112.885819 
L 102.063557 112.125663 
L 103.149358 109.243497 
L 104.23516 107.971574 
L 105.320961 106.513361 
L 106.406762 104.536957 
L 107.492563 102.898875 
L 108.578364 101.802538 
L 109.664165 99.607723 
L 110.749967 97.943947 
L 111.835768 96.817632 
L 112.921569 95.502884 
L 114.00737 94.582133 
L 115.093171 92.789879 
L 117.264773 90.378794 
L 118.350575 88.158284 
L 119.436376 86.323204 
L 120.522177 86.278237 
L 121.607978 84.790046 
L 122.693779 82.34256 
L 123.77958 83.068454 
L 124.865382 80.548164 
L 125.951183 79.745183 
L 130.294387 75.758115 
L 131.380189 75.451911 
L 132.46599 73.726037 
L 133.551791 73.899481 
L 135.723393 72.657537 
L 136.809194 73.008707 
L 137.894995 71.912371 
L 138.980797 94.642088 
L 140.066598 97.434321 
L 141.152399 97.292997 
L 142.2382 96.370104 
L 143.324001 95.875467 
L 144.409802 96.331561 
L 145.495604 95.597101 
L 146.581405 94.05966 
L 147.667206 94.956857 
L 148.753007 93.791999 
L 149.838808 91.950496 
L 150.924609 91.387338 
L 152.01041 91.391621 
L 153.096212 90.747095 
L 154.182013 89.468749 
L 155.267814 88.894885 
L 156.353615 88.847777 
L 157.439416 88.509454 
L 158.525217 88.291043 
L 159.611019 87.548018 
L 160.69682 85.2804 
L 161.782621 86.053403 
L 162.868422 84.869273 
L 163.954223 84.417463 
L 165.040024 83.792208 
L 166.125825 83.620905 
L 167.211627 83.169095 
L 168.297428 82.235495 
L 169.383229 82.909999 
L 170.46903 81.017105 
L 171.554831 80.642381 
L 172.640632 80.064235 
L 175.898036 79.023571 
L 176.983837 78.192753 
L 178.069638 76.875864 
L 179.155439 76.224914 
L 180.24124 76.706703 
L 181.327042 76.190654 
L 182.412843 75.886592 
L 183.498644 74.246369 
L 184.584445 73.659657 
L 185.670246 73.287074 
L 186.756047 72.141488 
L 187.841849 71.634004 
L 188.92765 71.364202 
L 190.013451 70.873848 
L 191.099252 70.912391 
L 192.185053 69.128703 
L 193.270854 69.359961 
L 194.356656 68.113735 
L 195.442457 68.066626 
L 196.528258 67.666207 
L 197.614059 66.426404 
L 198.69986 66.302209 
L 199.785661 66.629826 
L 200.871462 66.171591 
L 201.957264 65.081678 
L 203.043065 64.726225 
L 205.214667 62.901852 
L 206.300468 63.503553 
L 207.386269 62.01322 
L 208.472071 61.991807 
L 209.557872 61.505736 
L 210.643673 61.700592 
L 211.729474 60.041098 
L 212.815275 60.880481 
L 213.901076 60.529311 
L 214.986877 60.336595 
L 216.072679 59.788427 
L 217.15848 59.107499 
L 218.244281 59.216704 
L 219.330082 60.525028 
L 220.415883 59.120347 
L 221.501684 59.512201 
L 222.587486 59.728471 
L 223.673287 58.998293 
L 224.759088 58.854827 
L 225.844889 81.57598 
L 226.93069 85.042717 
L 228.016491 85.515941 
L 229.102292 85.306095 
L 230.188094 84.854284 
L 231.273895 84.959207 
L 232.359696 84.470995 
L 233.445497 85.051282 
L 234.531298 84.265432 
L 235.617099 84.781481 
L 236.702901 84.507397 
L 237.788702 82.378961 
L 238.874503 82.751545 
L 239.960304 83.486005 
L 241.046105 83.274018 
L 242.131906 82.486025 
L 243.217708 82.69373 
L 244.303509 81.762272 
L 245.38931 81.802956 
L 246.475111 81.650925 
L 247.560912 81.620947 
L 248.646713 80.967856 
L 249.732514 80.653087 
L 250.818316 80.702337 
L 252.989918 79.374741 
L 254.075719 80.477502 
L 255.16152 79.411143 
L 256.247321 78.927213 
L 257.333123 78.858692 
L 258.418924 79.28909 
L 259.504725 77.946506 
L 260.590526 78.089972 
L 261.676327 78.017168 
L 263.847929 77.501119 
L 264.933731 77.291273 
L 266.019532 77.807322 
L 267.105333 77.173503 
L 269.276935 76.293435 
L 270.362736 76.456173 
L 271.448538 75.805223 
L 272.534339 76.713127 
L 273.62014 75.237783 
L 274.705941 75.738843 
L 275.791742 74.753853 
L 276.877543 75.751691 
L 277.963344 75.417651 
L 279.049146 74.111468 
L 281.220748 73.402703 
L 282.306549 74.267782 
L 283.39235 73.537604 
L 284.478151 74.105044 
L 285.563953 73.327759 
L 286.649754 73.374867 
L 287.735555 72.970164 
L 288.821356 71.908088 
L 289.907157 72.584733 
L 290.992958 71.790317 
L 292.07876 72.173607 
L 293.164561 71.201465 
L 294.250362 70.92738 
L 295.336163 71.030162 
L 296.421964 71.646851 
L 297.507765 70.100845 
L 299.679368 69.681154 
L 300.765169 70.098704 
L 301.85097 69.734686 
L 302.936771 69.580513 
L 304.022572 69.306429 
L 305.108373 68.901727 
L 306.194175 68.653338 
L 307.279976 67.287199 
L 308.365777 68.167267 
L 309.451578 68.293602 
L 310.537379 67.355721 
L 311.62318 67.415676 
L 312.708981 67.124462 
L 313.794783 67.165146 
L 314.880584 66.867508 
L 315.966385 65.781878 
L 317.052186 65.030287 
L 318.137987 65.893224 
L 319.223788 64.95106 
L 320.30959 65.642694 
L 321.395391 64.379337 
L 322.481192 65.032429 
L 323.566993 64.589183 
L 324.652794 63.623464 
L 325.738595 63.152382 
L 326.824396 63.39863 
L 327.910198 62.869733 
L 330.0818 63.385782 
L 331.167601 61.919003 
L 332.253402 61.522866 
L 333.339203 61.687745 
L 334.425005 61.075338 
L 335.510806 61.640637 
L 336.596607 60.737015 
L 337.682408 60.998252 
L 338.768209 60.319465 
L 339.85401 60.01112 
L 340.939811 59.430833 
L 342.025613 59.623548 
L 343.111414 58.831273 
L 344.197215 59.2424 
L 345.283016 57.743502 
L 346.368817 58.049705 
L 348.54042 58.216725 
L 349.626221 57.758491 
L 350.712022 57.13966 
L 351.797823 57.362353 
L 352.883624 56.647165 
L 353.969425 56.593633 
L 355.055227 56.368798 
L 357.226829 55.058333 
L 358.31263 55.910563 
L 359.398431 55.696435 
L 360.484232 54.707162 
L 361.570033 54.311025 
L 363.741636 54.555131 
L 364.827437 53.807824 
L 365.913238 53.568 
L 366.999039 54.028376 
L 368.08484 54.05193 
L 369.170642 54.728575 
L 370.256443 55.679305 
L 371.342244 55.786369 
L 373.513846 57.242441 
L 374.599647 56.979064 
L 375.685448 57.492972 
L 376.77125 56.80562 
L 377.857051 56.381646 
L 378.942852 57.133236 
L 381.114454 56.949086 
L 382.200255 57.514384 
L 383.286057 56.95551 
L 386.54346 56.407341 
L 387.629261 57.077563 
L 388.715062 56.964075 
L 389.800863 56.985487 
L 390.886665 56.771359 
L 391.972466 56.824891 
L 393.058267 56.458732 
L 395.229869 56.927673 
L 396.31567 57.113964 
L 397.401472 56.458732 
L 398.487273 57.203898 
L 398.487273 57.203898 
" clip-path="url(#p96c1b15ed6)" style="fill: none; stroke: #1f77b4; stroke-width: 1.5; stroke-linecap: square"/>
   </g>
   <g id="line2d_20">
    <path d="M 73.832727 276.604026 
L 74.918528 220.170516 
L 76.00433 197.397972 
L 77.090131 188.436703 
L 78.175932 166.627737 
L 79.261733 165.053894 
L 80.347534 151.435335 
L 81.433335 152.49527 
L 82.519137 140.707507 
L 83.604938 138.45916 
L 86.862341 127.217425 
L 87.948142 124.551528 
L 89.033943 123.459474 
L 90.119745 120.408146 
L 91.205546 119.605164 
L 92.291347 115.686617 
L 93.377148 115.686617 
L 94.462949 115.55814 
L 95.54875 139.069426 
L 97.720353 135.279355 
L 98.806154 131.585642 
L 99.891955 127.185306 
L 100.977756 126.061132 
L 102.063557 125.836298 
L 104.23516 121.628677 
L 105.320961 120.247549 
L 106.406762 119.316091 
L 107.492563 118.159798 
L 108.578364 115.429663 
L 109.664165 113.759462 
L 110.749967 113.598866 
L 111.835768 111.768069 
L 112.921569 109.423364 
L 114.00737 111.896546 
L 116.178972 106.853825 
L 118.350575 104.862432 
L 119.436376 104.605478 
L 120.522177 103.898854 
L 121.607978 99.787591 
L 122.693779 102.003819 
L 123.77958 96.543548 
L 124.865382 97.346529 
L 125.951183 97.892556 
L 127.036984 96.254474 
L 128.122785 95.098182 
L 129.208586 94.32732 
L 130.294387 93.010431 
L 131.380189 92.625 
L 132.46599 92.753477 
L 133.551791 92.368046 
L 134.637592 91.75778 
L 135.723393 91.468707 
L 136.809194 91.693542 
L 137.894995 91.725661 
L 138.980797 115.526021 
L 140.066598 115.044232 
L 141.152399 118.93066 
L 142.2382 112.699527 
L 143.324001 112.025023 
L 144.409802 115.14059 
L 145.495604 113.502508 
L 146.581405 108.299191 
L 147.667206 112.603169 
L 148.753007 107.239256 
L 149.838808 109.294887 
L 150.924609 108.074356 
L 152.01041 106.404155 
L 153.096212 105.37634 
L 154.182013 102.903158 
L 155.267814 107.656806 
L 156.353615 105.922367 
L 157.439416 105.922367 
L 158.525217 106.500513 
L 159.611019 105.34422 
L 160.69682 104.990909 
L 161.782621 102.8068 
L 162.868422 102.132296 
L 163.954223 101.265076 
L 165.040024 102.485608 
L 166.125825 101.008123 
L 167.211627 100.108784 
L 168.297428 101.843223 
L 169.383229 99.048849 
L 170.46903 98.438583 
L 171.554831 96.896859 
L 172.640632 100.076664 
L 173.726434 100.205141 
L 174.812235 96.511428 
L 175.898036 98.888252 
L 176.983837 95.740567 
L 178.069638 95.226659 
L 179.155439 92.335927 
L 180.24124 92.881954 
L 181.327042 94.905466 
L 182.412843 94.905466 
L 183.498644 93.652816 
L 184.584445 91.918377 
L 185.670246 93.235266 
L 186.756047 90.055461 
L 188.92765 92.528642 
L 190.013451 90.633607 
L 191.099252 90.633607 
L 192.185053 89.541553 
L 193.270854 88.899168 
L 194.356656 87.807113 
L 195.442457 88.288902 
L 196.528258 87.999829 
L 197.614059 86.233271 
L 198.69986 85.976317 
L 199.785661 86.490224 
L 200.871462 86.201151 
L 201.957264 86.136913 
L 203.043065 84.787905 
L 204.128866 83.824327 
L 205.214667 85.109097 
L 206.300468 83.374658 
L 207.386269 83.085585 
L 209.557872 81.832934 
L 210.643673 82.4432 
L 211.729474 81.672338 
L 212.815275 81.447503 
L 213.901076 82.186246 
L 214.986877 80.772999 
L 216.072679 81.286907 
L 217.15848 80.387568 
L 218.244281 79.87366 
L 219.330082 80.226972 
L 220.415883 81.094192 
L 222.587486 79.90578 
L 223.673287 80.74088 
L 224.759088 80.034257 
L 225.844889 107.753164 
L 226.93069 108.299191 
L 228.016491 108.524025 
L 229.102292 107.721044 
L 230.188094 103.609781 
L 231.273895 107.142898 
L 232.359696 104.637597 
L 233.445497 105.215743 
L 234.531298 105.440578 
L 235.617099 101.586269 
L 236.702901 101.875342 
L 237.788702 103.898854 
L 238.874503 104.444882 
L 239.960304 103.67402 
L 241.046105 103.384947 
L 242.131906 100.879646 
L 243.217708 101.457792 
L 244.303509 104.059451 
L 245.38931 103.095873 
L 246.475111 99.40216 
L 247.560912 100.815407 
L 248.646713 101.939581 
L 249.732514 100.590572 
L 250.818316 103.22435 
L 251.904117 102.357131 
L 252.989918 102.549846 
L 254.075719 102.292892 
L 255.16152 98.56706 
L 256.247321 100.462095 
L 257.333123 101.329315 
L 258.418924 98.342225 
L 259.504725 95.869044 
L 260.590526 98.342225 
L 261.676327 96.543548 
L 262.762128 102.485608 
L 263.847929 100.301499 
L 264.933731 95.066062 
L 266.019532 94.937585 
L 267.105333 99.080968 
L 268.191134 97.442886 
L 269.276935 98.534941 
L 270.362736 98.14951 
L 271.448538 96.672025 
L 272.534339 98.631298 
L 273.62014 96.896859 
L 274.705941 97.250171 
L 275.791742 96.093878 
L 276.877543 98.695537 
L 277.963344 94.423678 
L 279.049146 96.575667 
L 280.134947 95.804805 
L 281.220748 94.166724 
L 282.306549 95.547851 
L 283.39235 97.507125 
L 284.478151 94.776989 
L 285.563953 96.639905 
L 286.649754 93.49222 
L 287.735555 96.125998 
L 288.821356 94.680632 
L 289.907157 92.849835 
L 290.992958 94.584274 
L 292.07876 92.20745 
L 293.164561 95.033943 
L 294.250362 95.57997 
L 295.336163 93.363743 
L 296.421964 93.620697 
L 297.507765 93.652816 
L 298.593566 92.014734 
L 299.679368 92.946192 
L 300.765169 91.211753 
L 301.85097 91.500826 
L 302.936771 89.477314 
L 304.022572 91.34023 
L 305.108373 91.822019 
L 306.194175 89.702149 
L 307.279976 88.80281 
L 308.365777 88.738572 
L 309.451578 92.303808 
L 310.537379 91.918377 
L 311.62318 91.211753 
L 312.708981 90.119699 
L 313.794783 90.216057 
L 314.880584 87.068371 
L 315.966385 86.201151 
L 317.052186 86.26539 
L 318.137987 86.747178 
L 319.223788 86.072674 
L 320.30959 87.357444 
L 323.566993 86.843536 
L 324.652794 87.261086 
L 325.738595 85.623005 
L 326.824396 84.852143 
L 327.910198 88.288902 
L 328.995999 84.402474 
L 330.0818 85.301812 
L 331.167601 84.241877 
L 332.253402 85.301812 
L 333.339203 85.076978 
L 334.425005 85.301812 
L 335.510806 85.976317 
L 337.682408 83.406777 
L 338.768209 81.768696 
L 339.85401 83.824327 
L 340.939811 82.571677 
L 342.025613 82.668035 
L 343.111414 81.832934 
L 344.197215 79.841541 
L 345.283016 81.094192 
L 346.368817 80.772999 
L 347.454618 81.929292 
L 348.54042 80.644522 
L 349.626221 80.965715 
L 350.712022 82.218365 
L 351.797823 80.548164 
L 352.883624 81.190549 
L 353.969425 79.87366 
L 355.055227 79.199156 
L 356.141028 79.295514 
L 357.226829 79.745183 
L 358.31263 78.042863 
L 359.398431 79.552468 
L 361.570033 77.657433 
L 362.655835 77.689552 
L 363.741636 77.528956 
L 364.827437 78.20346 
L 365.913238 77.625313 
L 366.999039 78.396175 
L 368.08484 79.327633 
L 369.170642 78.749487 
L 370.256443 79.134918 
L 371.342244 79.648826 
L 372.428045 79.263395 
L 373.513846 81.351146 
L 375.685448 81.704457 
L 376.77125 81.094192 
L 377.857051 81.897173 
L 378.942852 82.282604 
L 380.028653 80.772999 
L 381.114454 83.760089 
L 382.200255 81.062072 
L 383.286057 82.218365 
L 384.371858 82.989227 
L 385.457659 81.897173 
L 386.54346 81.99353 
L 387.629261 80.933595 
L 388.715062 82.02565 
L 389.800863 81.768696 
L 390.886665 81.094192 
L 391.972466 81.929292 
L 393.058267 82.989227 
L 395.229869 84.659428 
L 396.31567 83.663731 
L 397.401472 81.768696 
L 398.487273 84.049162 
L 398.487273 84.049162 
" clip-path="url(#p96c1b15ed6)" style="fill: none; stroke: #ff7f0e; stroke-width: 1.5; stroke-linecap: square"/>
   </g>
   <g id="line2d_21">
    <path d="M 73.832727 287.882311 
L 74.918528 247.611425 
L 76.00433 229.934766 
L 77.090131 231.596106 
L 78.175932 209.334147 
L 79.261733 207.5399 
L 80.347534 197.372498 
L 81.433335 195.689007 
L 82.519137 190.018299 
L 83.604938 190.062601 
L 84.690739 181.578691 
L 85.77654 176.506065 
L 86.862341 174.645364 
L 87.948142 176.328856 
L 89.033943 172.319488 
L 90.119745 167.601282 
L 91.205546 166.82599 
L 92.291347 164.98744 
L 93.377148 164.920987 
L 94.462949 163.70267 
L 95.54875 191.70179 
L 96.634552 181.00276 
L 97.720353 185.233639 
L 98.806154 181.822354 
L 99.891955 175.885832 
L 100.977756 175.974437 
L 102.063557 172.208732 
L 103.149358 169.683495 
L 104.23516 170.680299 
L 105.320961 171.965069 
L 106.406762 168.509481 
L 107.492563 165.474767 
L 108.578364 166.914595 
L 109.664165 163.370402 
L 110.749967 162.927378 
L 112.921569 158.408533 
L 114.00737 159.516093 
L 115.093171 158.009811 
L 116.178972 158.076265 
L 117.264773 154.310561 
L 118.350575 156.126959 
L 119.436376 156.215564 
L 120.522177 150.655612 
L 121.607978 150.943578 
L 122.693779 151.630265 
L 123.77958 146.867757 
L 124.865382 148.019619 
L 125.951183 145.893104 
L 127.036984 145.937406 
L 128.122785 143.102052 
L 129.208586 143.78874 
L 131.380189 141.640073 
L 132.46599 143.168506 
L 133.551791 141.174898 
L 134.637592 141.462863 
L 135.723393 141.130595 
L 136.809194 141.77298 
L 137.894995 140.621118 
L 138.980797 163.813427 
L 140.066598 165.053894 
L 141.152399 170.901811 
L 142.2382 159.848361 
L 143.324001 160.446444 
L 144.409802 165.807035 
L 146.581405 158.364231 
L 147.667206 161.709062 
L 148.753007 154.687131 
L 149.838808 162.063482 
L 150.924609 159.737605 
L 152.01041 156.8801 
L 153.096212 155.351667 
L 154.182013 153.00364 
L 155.267814 158.851557 
L 156.353615 154.687131 
L 158.525217 157.212368 
L 159.611019 154.509922 
L 160.69682 158.054114 
L 161.782621 152.671372 
L 162.868422 152.782128 
L 165.040024 152.715674 
L 166.125825 150.61131 
L 167.211627 151.89608 
L 168.297428 151.364451 
L 169.383229 149.88032 
L 170.46903 145.162114 
L 171.554831 147.200025 
L 172.640632 150.832822 
L 173.726434 148.329736 
L 174.812235 147.133571 
L 175.898036 149.459447 
L 176.983837 145.649441 
L 178.069638 146.203221 
L 179.155439 141.551468 
L 180.24124 142.946994 
L 181.327042 144.054554 
L 182.412843 142.681179 
L 183.498644 143.78874 
L 184.584445 141.77298 
L 185.670246 143.766588 
L 186.756047 142.238155 
L 187.841849 144.386822 
L 188.92765 140.975537 
L 190.013451 138.82687 
L 191.099252 142.371063 
L 192.185053 142.060946 
L 193.270854 139.159138 
L 194.356656 138.051578 
L 195.442457 136.368087 
L 196.528258 137.564252 
L 197.614059 134.839654 
L 198.69986 135.659248 
L 199.785661 134.551688 
L 200.871462 137.630705 
L 201.957264 137.276286 
L 203.043065 135.526341 
L 204.128866 133.178314 
L 205.214667 132.93465 
L 206.300468 132.314417 
L 207.386269 132.403022 
L 208.472071 133.045406 
L 209.557872 131.073949 
L 210.643673 129.545516 
L 211.729474 130.874589 
L 212.815275 129.833482 
L 213.901076 131.162554 
L 214.986877 130.210053 
L 216.072679 129.567668 
L 217.15848 130.010692 
L 218.244281 129.678424 
L 219.330082 128.792376 
L 220.415883 129.634121 
L 221.501684 129.656272 
L 222.587486 129.43476 
L 223.673287 130.254355 
L 224.759088 128.039235 
L 225.844889 159.870512 
L 226.93069 160.180629 
L 228.016491 154.886492 
L 229.102292 162.373598 
L 230.188094 155.152306 
L 231.273895 160.623653 
L 232.359696 159.361035 
L 233.445497 153.579571 
L 234.531298 153.047942 
L 235.617099 153.402361 
L 236.702901 153.358059 
L 237.788702 154.443468 
L 238.874503 155.085853 
L 239.960304 151.71887 
L 241.046105 153.778932 
L 242.131906 154.642829 
L 243.217708 151.630265 
L 244.303509 156.658588 
L 245.38931 152.627069 
L 246.475111 152.250499 
L 247.560912 153.889688 
L 248.646713 156.237715 
L 249.732514 149.592355 
L 250.818316 152.981489 
L 251.904117 153.358059 
L 252.989918 151.032183 
L 254.075719 150.921427 
L 255.16152 149.304389 
L 256.247321 150.168286 
L 257.333123 147.931014 
L 258.418924 149.968925 
L 260.590526 145.715894 
L 261.676327 148.39619 
L 262.762128 152.427709 
L 263.847929 148.750609 
L 264.933731 147.133571 
L 266.019532 145.051358 
L 267.105333 152.759977 
L 268.191134 147.687351 
L 269.276935 150.810671 
L 270.362736 148.839214 
L 271.448538 147.598746 
L 272.534339 151.763172 
L 273.62014 147.022815 
L 274.705941 156.392774 
L 275.791742 150.921427 
L 276.877543 151.674568 
L 277.963344 143.722286 
L 279.049146 150.589159 
L 280.134947 147.554444 
L 281.220748 143.877344 
L 282.306549 148.972121 
L 283.39235 147.532293 
L 284.478151 147.886712 
L 285.563953 146.690547 
L 286.649754 143.168506 
L 287.735555 150.810671 
L 288.821356 147.133571 
L 289.907157 147.864561 
L 290.992958 146.867757 
L 292.07876 142.946994 
L 293.164561 147.886712 
L 294.250362 145.361475 
L 295.336163 143.677984 
L 296.421964 144.785544 
L 297.507765 144.608334 
L 298.593566 143.522925 
L 299.679368 141.994492 
L 300.765169 140.975537 
L 301.85097 142.636877 
L 302.936771 138.893324 
L 304.022572 143.390018 
L 305.108373 141.839434 
L 306.194175 142.060946 
L 307.279976 137.032623 
L 308.365777 136.98832 
L 309.451578 143.855193 
L 310.537379 144.829846 
L 311.62318 141.750829 
L 312.708981 140.178094 
L 313.794783 139.18129 
L 314.880584 141.928039 
L 315.966385 141.352107 
L 317.052186 136.877564 
L 318.137987 138.317393 
L 319.223788 136.744657 
L 320.30959 137.010472 
L 321.395391 136.633901 
L 322.481192 136.656052 
L 323.566993 139.00408 
L 324.652794 137.054774 
L 325.738595 134.618142 
L 326.824396 136.456692 
L 327.910198 137.89652 
L 330.0818 133.222616 
L 331.167601 131.62773 
L 332.253402 136.899716 
L 333.339203 131.982149 
L 334.425005 133.931455 
L 335.510806 135.039015 
L 336.596607 132.93465 
L 337.682408 133.577035 
L 338.768209 131.82709 
L 339.85401 132.93465 
L 340.939811 133.333372 
L 342.025613 132.890348 
L 344.197215 129.390458 
L 345.283016 132.270114 
L 346.368817 130.409413 
L 347.454618 130.741681 
L 348.54042 129.013888 
L 349.626221 129.279702 
L 350.712022 132.513778 
L 351.797823 129.05819 
L 352.883624 131.516973 
L 353.969425 128.925283 
L 355.055227 127.020279 
L 356.141028 124.362135 
L 357.226829 126.66586 
L 358.31263 126.377895 
L 359.398431 128.194293 
L 360.484232 126.510802 
L 361.570033 128.12784 
L 362.655835 125.691207 
L 363.741636 127.197489 
L 364.827437 125.868417 
L 365.913238 125.00452 
L 366.999039 124.982369 
L 368.08484 125.757661 
L 369.170642 128.437956 
L 370.256443 125.270334 
L 371.342244 128.371503 
L 372.428045 128.814527 
L 373.513846 126.798767 
L 374.599647 128.836678 
L 375.685448 129.567668 
L 376.77125 131.007496 
L 377.857051 131.804939 
L 378.942852 132.203661 
L 380.028653 127.419001 
L 381.114454 133.709943 
L 382.200255 129.301853 
L 383.286057 131.605578 
L 384.371858 131.62773 
L 385.457659 129.767029 
L 386.54346 129.744877 
L 387.629261 129.146795 
L 388.715062 129.479063 
L 389.800863 128.858829 
L 390.886665 131.384066 
L 391.972466 130.409413 
L 394.144068 135.703551 
L 395.229869 132.115056 
L 396.31567 133.11186 
L 397.401472 130.564472 
L 398.487273 128.748073 
L 398.487273 128.748073 
" clip-path="url(#p96c1b15ed6)" style="fill: none; stroke: #2ca02c; stroke-width: 1.5; stroke-linecap: square"/>
   </g>
   <g id="line2d_22">
    <path d="M 368.08484 79.134918 
L 369.170642 76.340544 
L 370.256443 78.331937 
L 371.342244 79.359752 
L 372.428045 78.877964 
L 373.513846 78.749487 
L 374.599647 78.139221 
L 375.685448 79.199156 
L 376.77125 80.805118 
L 377.857051 78.588891 
L 378.942852 79.745183 
L 380.028653 79.584587 
L 381.114454 79.777303 
L 382.200255 81.094192 
L 383.286057 81.608099 
L 385.457659 80.355449 
L 386.54346 80.516045 
L 387.629261 78.62101 
L 388.715062 79.584587 
L 389.800863 79.87366 
L 390.886665 80.580284 
L 391.972466 85.109097 
L 393.058267 82.86075 
L 394.144068 81.222669 
L 396.31567 83.438896 
L 397.401472 83.760089 
L 398.487273 82.603796 
L 398.487273 82.603796 
" clip-path="url(#p96c1b15ed6)" style="fill: none; stroke: #d62728; stroke-width: 1.5; stroke-linecap: square"/>
   </g>
   <g id="line2d_23">
    <path d="M 369.170642 124.561496 
L 370.256443 125.203881 
L 371.342244 128.282898 
L 372.428045 126.267139 
L 373.513846 126.732314 
L 374.599647 126.355743 
L 375.685448 126.820919 
L 376.77125 126.532953 
L 377.857051 127.131035 
L 378.942852 124.428589 
L 380.028653 124.406438 
L 382.200255 128.194293 
L 383.286057 126.66586 
L 384.371858 126.688011 
L 385.457659 125.336788 
L 386.54346 129.301853 
L 387.629261 125.070974 
L 388.715062 126.023475 
L 390.886665 127.419001 
L 391.972466 131.45052 
L 393.058267 132.491626 
L 394.144068 128.194293 
L 395.229869 127.330396 
L 396.31567 131.605578 
L 397.401472 127.972781 
L 398.487273 132.690987 
L 398.487273 132.690987 
" clip-path="url(#p96c1b15ed6)" style="fill: none; stroke: #9467bd; stroke-width: 1.5; stroke-linecap: square"/>
   </g>
   <g id="patch_3">
    <path d="M 57.6 307.584 
L 57.6 41.472 
" style="fill: none; stroke: #000000; stroke-width: 0.8; stroke-linejoin: miter; stroke-linecap: square"/>
   </g>
   <g id="patch_4">
    <path d="M 414.72 307.584 
L 414.72 41.472 
" style="fill: none; stroke: #000000; stroke-width: 0.8; stroke-linejoin: miter; stroke-linecap: square"/>
   </g>
   <g id="patch_5">
    <path d="M 57.6 307.584 
L 414.72 307.584 
" style="fill: none; stroke: #000000; stroke-width: 0.8; stroke-linejoin: miter; stroke-linecap: square"/>
   </g>
   <g id="patch_6">
    <path d="M 57.6 41.472 
L 414.72 41.472 
" style="fill: none; stroke: #000000; stroke-width: 0.8; stroke-linejoin: miter; stroke-linecap: square"/>
   </g>
   <g id="text_21">
    <!-- Learning Curves -->
    <g transform="translate(187.37625 35.472) scale(0.12 -0.12)">
     <defs>
      <path id="DejaVuSans-4c" d="M 628 4666 
L 1259 4666 
L 1259 531 
L 3531 531 
L 3531 0 
L 628 0 
L 628 4666 
z
" transform="scale(0.015625)"/>
      <path id="DejaVuSans-65" d="M 3597 1894 
L 3597 1613 
L 953 1613 
Q 991 1019 1311 708 
Q 1631 397 2203 397 
Q 2534 397 2845 478 
Q 3156 559 3463 722 
L 3463 178 
Q 3153 47 2828 -22 
Q 2503 -91 2169 -91 
Q 1331 -91 842 396 
Q 353 884 353 1716 
Q 353 2575 817 3079 
Q 1281 3584 2069 3584 
Q 2775 3584 3186 3129 
Q 3597 2675 3597 1894 
z
M 3022 2063 
Q 3016 2534 2758 2815 
Q 2500 3097 2075 3097 
Q 1594 3097 1305 2825 
Q 1016 2553 972 2059 
L 3022 2063 
z
" transform="scale(0.015625)"/>
      <path id="DejaVuSans-6e" d="M 3513 2113 
L 3513 0 
L 2938 0 
L 2938 2094 
Q 2938 2591 2744 2837 
Q 2550 3084 2163 3084 
Q 1697 3084 1428 2787 
Q 1159 2491 1159 1978 
L 1159 0 
L 581 0 
L 581 3500 
L 1159 3500 
L 1159 2956 
Q 1366 3272 1645 3428 
Q 1925 3584 2291 3584 
Q 2894 3584 3203 3211 
Q 3513 2838 3513 2113 
z
" transform="scale(0.015625)"/>
      <path id="DejaVuSans-69" d="M 603 3500 
L 1178 3500 
L 1178 0 
L 603 0 
L 603 3500 
z
M 603 4863 
L 1178 4863 
L 1178 4134 
L 603 4134 
L 603 4863 
z
" transform="scale(0.015625)"/>
      <path id="DejaVuSans-67" d="M 2906 1791 
Q 2906 2416 2648 2759 
Q 2391 3103 1925 3103 
Q 1463 3103 1205 2759 
Q 947 2416 947 1791 
Q 947 1169 1205 825 
Q 1463 481 1925 481 
Q 2391 481 2648 825 
Q 2906 1169 2906 1791 
z
M 3481 434 
Q 3481 -459 3084 -895 
Q 2688 -1331 1869 -1331 
Q 1566 -1331 1297 -1286 
Q 1028 -1241 775 -1147 
L 775 -588 
Q 1028 -725 1275 -790 
Q 1522 -856 1778 -856 
Q 2344 -856 2625 -561 
Q 2906 -266 2906 331 
L 2906 616 
Q 2728 306 2450 153 
Q 2172 0 1784 0 
Q 1141 0 747 490 
Q 353 981 353 1791 
Q 353 2603 747 3093 
Q 1141 3584 1784 3584 
Q 2172 3584 2450 3431 
Q 2728 3278 2906 2969 
L 2906 3500 
L 3481 3500 
L 3481 434 
z
" transform="scale(0.015625)"/>
      <path id="DejaVuSans-20" transform="scale(0.015625)"/>
      <path id="DejaVuSans-43" d="M 4122 4306 
L 4122 3641 
Q 3803 3938 3442 4084 
Q 3081 4231 2675 4231 
Q 1875 4231 1450 3742 
Q 1025 3253 1025 2328 
Q 1025 1406 1450 917 
Q 1875 428 2675 428 
Q 3081 428 3442 575 
Q 3803 722 4122 1019 
L 4122 359 
Q 3791 134 3420 21 
Q 3050 -91 2638 -91 
Q 1578 -91 968 557 
Q 359 1206 359 2328 
Q 359 3453 968 4101 
Q 1578 4750 2638 4750 
Q 3056 4750 3426 4639 
Q 3797 4528 4122 4306 
z
" transform="scale(0.015625)"/>
      <path id="DejaVuSans-76" d="M 191 3500 
L 800 3500 
L 1894 563 
L 2988 3500 
L 3597 3500 
L 2284 0 
L 1503 0 
L 191 3500 
z
" transform="scale(0.015625)"/>
     </defs>
     <use xlink:href="#DejaVuSans-4c"/>
     <use xlink:href="#DejaVuSans-65" x="53.962891"/>
     <use xlink:href="#DejaVuSans-61" x="115.486328"/>
     <use xlink:href="#DejaVuSans-72" x="176.765625"/>
     <use xlink:href="#DejaVuSans-6e" x="216.128906"/>
     <use xlink:href="#DejaVuSans-69" x="279.507812"/>
     <use xlink:href="#DejaVuSans-6e" x="307.291016"/>
     <use xlink:href="#DejaVuSans-67" x="370.669922"/>
     <use xlink:href="#DejaVuSans-20" x="434.146484"/>
     <use xlink:href="#DejaVuSans-43" x="465.933594"/>
     <use xlink:href="#DejaVuSans-75" x="535.757812"/>
     <use xlink:href="#DejaVuSans-72" x="599.136719"/>
     <use xlink:href="#DejaVuSans-76" x="640.25"/>
     <use xlink:href="#DejaVuSans-65" x="699.429688"/>
     <use xlink:href="#DejaVuSans-73" x="760.953125"/>
    </g>
   </g>
   <g id="legend_1">
    <g id="patch_7">
     <path d="M 214.18875 302.584 
L 407.72 302.584 
Q 409.72 302.584 409.72 300.584 
L 409.72 228.193375 
Q 409.72 226.193375 407.72 226.193375 
L 214.18875 226.193375 
Q 212.18875 226.193375 212.18875 228.193375 
L 212.18875 300.584 
Q 212.18875 302.584 214.18875 302.584 
z
" style="fill: #ffffff; opacity: 0.8; stroke: #cccccc; stroke-linejoin: miter"/>
    </g>
    <g id="line2d_24">
     <path d="M 216.18875 234.291812 
L 226.18875 234.291812 
L 236.18875 234.291812 
" style="fill: none; stroke: #1f77b4; stroke-width: 1.5; stroke-linecap: square"/>
    </g>
    <g id="text_22">
     <!-- Train Accuracy -->
     <g transform="translate(244.18875 237.791812) scale(0.1 -0.1)">
      <defs>
       <path id="DejaVuSans-54" d="M -19 4666 
L 3928 4666 
L 3928 4134 
L 2272 4134 
L 2272 0 
L 1638 0 
L 1638 4134 
L -19 4134 
L -19 4666 
z
" transform="scale(0.015625)"/>
      </defs>
      <use xlink:href="#DejaVuSans-54"/>
      <use xlink:href="#DejaVuSans-72" x="46.333984"/>
      <use xlink:href="#DejaVuSans-61" x="87.447266"/>
      <use xlink:href="#DejaVuSans-69" x="148.726562"/>
      <use xlink:href="#DejaVuSans-6e" x="176.509766"/>
      <use xlink:href="#DejaVuSans-20" x="239.888672"/>
      <use xlink:href="#DejaVuSans-41" x="271.675781"/>
      <use xlink:href="#DejaVuSans-63" x="338.333984"/>
      <use xlink:href="#DejaVuSans-63" x="393.314453"/>
      <use xlink:href="#DejaVuSans-75" x="448.294922"/>
      <use xlink:href="#DejaVuSans-72" x="511.673828"/>
      <use xlink:href="#DejaVuSans-61" x="552.787109"/>
      <use xlink:href="#DejaVuSans-63" x="614.066406"/>
      <use xlink:href="#DejaVuSans-79" x="669.046875"/>
     </g>
    </g>
    <g id="line2d_25">
     <path d="M 216.18875 248.969937 
L 226.18875 248.969937 
L 236.18875 248.969937 
" style="fill: none; stroke: #ff7f0e; stroke-width: 1.5; stroke-linecap: square"/>
    </g>
    <g id="text_23">
     <!-- Validation Accuracy -->
     <g transform="translate(244.18875 252.469937) scale(0.1 -0.1)">
      <defs>
       <path id="DejaVuSans-56" d="M 1831 0 
L 50 4666 
L 709 4666 
L 2188 738 
L 3669 4666 
L 4325 4666 
L 2547 0 
L 1831 0 
z
" transform="scale(0.015625)"/>
       <path id="DejaVuSans-6c" d="M 603 4863 
L 1178 4863 
L 1178 0 
L 603 0 
L 603 4863 
z
" transform="scale(0.015625)"/>
       <path id="DejaVuSans-64" d="M 2906 2969 
L 2906 4863 
L 3481 4863 
L 3481 0 
L 2906 0 
L 2906 525 
Q 2725 213 2448 61 
Q 2172 -91 1784 -91 
Q 1150 -91 751 415 
Q 353 922 353 1747 
Q 353 2572 751 3078 
Q 1150 3584 1784 3584 
Q 2172 3584 2448 3432 
Q 2725 3281 2906 2969 
z
M 947 1747 
Q 947 1113 1208 752 
Q 1469 391 1925 391 
Q 2381 391 2643 752 
Q 2906 1113 2906 1747 
Q 2906 2381 2643 2742 
Q 2381 3103 1925 3103 
Q 1469 3103 1208 2742 
Q 947 2381 947 1747 
z
" transform="scale(0.015625)"/>
       <path id="DejaVuSans-74" d="M 1172 4494 
L 1172 3500 
L 2356 3500 
L 2356 3053 
L 1172 3053 
L 1172 1153 
Q 1172 725 1289 603 
Q 1406 481 1766 481 
L 2356 481 
L 2356 0 
L 1766 0 
Q 1100 0 847 248 
Q 594 497 594 1153 
L 594 3053 
L 172 3053 
L 172 3500 
L 594 3500 
L 594 4494 
L 1172 4494 
z
" transform="scale(0.015625)"/>
      </defs>
      <use xlink:href="#DejaVuSans-56"/>
      <use xlink:href="#DejaVuSans-61" x="60.658203"/>
      <use xlink:href="#DejaVuSans-6c" x="121.9375"/>
      <use xlink:href="#DejaVuSans-69" x="149.720703"/>
      <use xlink:href="#DejaVuSans-64" x="177.503906"/>
      <use xlink:href="#DejaVuSans-61" x="240.980469"/>
      <use xlink:href="#DejaVuSans-74" x="302.259766"/>
      <use xlink:href="#DejaVuSans-69" x="341.46875"/>
      <use xlink:href="#DejaVuSans-6f" x="369.251953"/>
      <use xlink:href="#DejaVuSans-6e" x="430.433594"/>
      <use xlink:href="#DejaVuSans-20" x="493.8125"/>
      <use xlink:href="#DejaVuSans-41" x="525.599609"/>
      <use xlink:href="#DejaVuSans-63" x="592.257812"/>
      <use xlink:href="#DejaVuSans-63" x="647.238281"/>
      <use xlink:href="#DejaVuSans-75" x="702.21875"/>
      <use xlink:href="#DejaVuSans-72" x="765.597656"/>
      <use xlink:href="#DejaVuSans-61" x="806.710938"/>
      <use xlink:href="#DejaVuSans-63" x="867.990234"/>
      <use xlink:href="#DejaVuSans-79" x="922.970703"/>
     </g>
    </g>
    <g id="line2d_26">
     <path d="M 216.18875 263.648062 
L 226.18875 263.648062 
L 236.18875 263.648062 
" style="fill: none; stroke: #2ca02c; stroke-width: 1.5; stroke-linecap: square"/>
    </g>
    <g id="text_24">
     <!-- Robust Validation Accuracy -->
     <g transform="translate(244.18875 267.148062) scale(0.1 -0.1)">
      <defs>
       <path id="DejaVuSans-52" d="M 2841 2188 
Q 3044 2119 3236 1894 
Q 3428 1669 3622 1275 
L 4263 0 
L 3584 0 
L 2988 1197 
Q 2756 1666 2539 1819 
Q 2322 1972 1947 1972 
L 1259 1972 
L 1259 0 
L 628 0 
L 628 4666 
L 2053 4666 
Q 2853 4666 3247 4331 
Q 3641 3997 3641 3322 
Q 3641 2881 3436 2590 
Q 3231 2300 2841 2188 
z
M 1259 4147 
L 1259 2491 
L 2053 2491 
Q 2509 2491 2742 2702 
Q 2975 2913 2975 3322 
Q 2975 3731 2742 3939 
Q 2509 4147 2053 4147 
L 1259 4147 
z
" transform="scale(0.015625)"/>
       <path id="DejaVuSans-62" d="M 3116 1747 
Q 3116 2381 2855 2742 
Q 2594 3103 2138 3103 
Q 1681 3103 1420 2742 
Q 1159 2381 1159 1747 
Q 1159 1113 1420 752 
Q 1681 391 2138 391 
Q 2594 391 2855 752 
Q 3116 1113 3116 1747 
z
M 1159 2969 
Q 1341 3281 1617 3432 
Q 1894 3584 2278 3584 
Q 2916 3584 3314 3078 
Q 3713 2572 3713 1747 
Q 3713 922 3314 415 
Q 2916 -91 2278 -91 
Q 1894 -91 1617 61 
Q 1341 213 1159 525 
L 1159 0 
L 581 0 
L 581 4863 
L 1159 4863 
L 1159 2969 
z
" transform="scale(0.015625)"/>
      </defs>
      <use xlink:href="#DejaVuSans-52"/>
      <use xlink:href="#DejaVuSans-6f" x="64.982422"/>
      <use xlink:href="#DejaVuSans-62" x="126.164062"/>
      <use xlink:href="#DejaVuSans-75" x="189.640625"/>
      <use xlink:href="#DejaVuSans-73" x="253.019531"/>
      <use xlink:href="#DejaVuSans-74" x="305.119141"/>
      <use xlink:href="#DejaVuSans-20" x="344.328125"/>
      <use xlink:href="#DejaVuSans-56" x="376.115234"/>
      <use xlink:href="#DejaVuSans-61" x="436.773438"/>
      <use xlink:href="#DejaVuSans-6c" x="498.052734"/>
      <use xlink:href="#DejaVuSans-69" x="525.835938"/>
      <use xlink:href="#DejaVuSans-64" x="553.619141"/>
      <use xlink:href="#DejaVuSans-61" x="617.095703"/>
      <use xlink:href="#DejaVuSans-74" x="678.375"/>
      <use xlink:href="#DejaVuSans-69" x="717.583984"/>
      <use xlink:href="#DejaVuSans-6f" x="745.367188"/>
      <use xlink:href="#DejaVuSans-6e" x="806.548828"/>
      <use xlink:href="#DejaVuSans-20" x="869.927734"/>
      <use xlink:href="#DejaVuSans-41" x="901.714844"/>
      <use xlink:href="#DejaVuSans-63" x="968.373047"/>
      <use xlink:href="#DejaVuSans-63" x="1023.353516"/>
      <use xlink:href="#DejaVuSans-75" x="1078.333984"/>
      <use xlink:href="#DejaVuSans-72" x="1141.712891"/>
      <use xlink:href="#DejaVuSans-61" x="1182.826172"/>
      <use xlink:href="#DejaVuSans-63" x="1244.105469"/>
      <use xlink:href="#DejaVuSans-79" x="1299.085938"/>
     </g>
    </g>
    <g id="line2d_27">
     <path d="M 216.18875 278.326188 
L 226.18875 278.326188 
L 236.18875 278.326188 
" style="fill: none; stroke: #d62728; stroke-width: 1.5; stroke-linecap: square"/>
    </g>
    <g id="text_25">
     <!-- SWA Validation Accuracy -->
     <g transform="translate(244.18875 281.826188) scale(0.1 -0.1)">
      <defs>
       <path id="DejaVuSans-53" d="M 3425 4513 
L 3425 3897 
Q 3066 4069 2747 4153 
Q 2428 4238 2131 4238 
Q 1616 4238 1336 4038 
Q 1056 3838 1056 3469 
Q 1056 3159 1242 3001 
Q 1428 2844 1947 2747 
L 2328 2669 
Q 3034 2534 3370 2195 
Q 3706 1856 3706 1288 
Q 3706 609 3251 259 
Q 2797 -91 1919 -91 
Q 1588 -91 1214 -16 
Q 841 59 441 206 
L 441 856 
Q 825 641 1194 531 
Q 1563 422 1919 422 
Q 2459 422 2753 634 
Q 3047 847 3047 1241 
Q 3047 1584 2836 1778 
Q 2625 1972 2144 2069 
L 1759 2144 
Q 1053 2284 737 2584 
Q 422 2884 422 3419 
Q 422 4038 858 4394 
Q 1294 4750 2059 4750 
Q 2388 4750 2728 4690 
Q 3069 4631 3425 4513 
z
" transform="scale(0.015625)"/>
       <path id="DejaVuSans-57" d="M 213 4666 
L 850 4666 
L 1831 722 
L 2809 4666 
L 3519 4666 
L 4500 722 
L 5478 4666 
L 6119 4666 
L 4947 0 
L 4153 0 
L 3169 4050 
L 2175 0 
L 1381 0 
L 213 4666 
z
" transform="scale(0.015625)"/>
      </defs>
      <use xlink:href="#DejaVuSans-53"/>
      <use xlink:href="#DejaVuSans-57" x="63.476562"/>
      <use xlink:href="#DejaVuSans-41" x="156.853516"/>
      <use xlink:href="#DejaVuSans-20" x="225.261719"/>
      <use xlink:href="#DejaVuSans-56" x="257.048828"/>
      <use xlink:href="#DejaVuSans-61" x="317.707031"/>
      <use xlink:href="#DejaVuSans-6c" x="378.986328"/>
      <use xlink:href="#DejaVuSans-69" x="406.769531"/>
      <use xlink:href="#DejaVuSans-64" x="434.552734"/>
      <use xlink:href="#DejaVuSans-61" x="498.029297"/>
      <use xlink:href="#DejaVuSans-74" x="559.308594"/>
      <use xlink:href="#DejaVuSans-69" x="598.517578"/>
      <use xlink:href="#DejaVuSans-6f" x="626.300781"/>
      <use xlink:href="#DejaVuSans-6e" x="687.482422"/>
      <use xlink:href="#DejaVuSans-20" x="750.861328"/>
      <use xlink:href="#DejaVuSans-41" x="782.648438"/>
      <use xlink:href="#DejaVuSans-63" x="849.306641"/>
      <use xlink:href="#DejaVuSans-63" x="904.287109"/>
      <use xlink:href="#DejaVuSans-75" x="959.267578"/>
      <use xlink:href="#DejaVuSans-72" x="1022.646484"/>
      <use xlink:href="#DejaVuSans-61" x="1063.759766"/>
      <use xlink:href="#DejaVuSans-63" x="1125.039062"/>
      <use xlink:href="#DejaVuSans-79" x="1180.019531"/>
     </g>
    </g>
    <g id="line2d_28">
     <path d="M 216.18875 293.004312 
L 226.18875 293.004312 
L 236.18875 293.004312 
" style="fill: none; stroke: #9467bd; stroke-width: 1.5; stroke-linecap: square"/>
    </g>
    <g id="text_26">
     <!-- SWA Robust Validation Accuracy -->
     <g transform="translate(244.18875 296.504312) scale(0.1 -0.1)">
      <use xlink:href="#DejaVuSans-53"/>
      <use xlink:href="#DejaVuSans-57" x="63.476562"/>
      <use xlink:href="#DejaVuSans-41" x="156.853516"/>
      <use xlink:href="#DejaVuSans-20" x="225.261719"/>
      <use xlink:href="#DejaVuSans-52" x="257.048828"/>
      <use xlink:href="#DejaVuSans-6f" x="322.03125"/>
      <use xlink:href="#DejaVuSans-62" x="383.212891"/>
      <use xlink:href="#DejaVuSans-75" x="446.689453"/>
      <use xlink:href="#DejaVuSans-73" x="510.068359"/>
      <use xlink:href="#DejaVuSans-74" x="562.167969"/>
      <use xlink:href="#DejaVuSans-20" x="601.376953"/>
      <use xlink:href="#DejaVuSans-56" x="633.164062"/>
      <use xlink:href="#DejaVuSans-61" x="693.822266"/>
      <use xlink:href="#DejaVuSans-6c" x="755.101562"/>
      <use xlink:href="#DejaVuSans-69" x="782.884766"/>
      <use xlink:href="#DejaVuSans-64" x="810.667969"/>
      <use xlink:href="#DejaVuSans-61" x="874.144531"/>
      <use xlink:href="#DejaVuSans-74" x="935.423828"/>
      <use xlink:href="#DejaVuSans-69" x="974.632812"/>
      <use xlink:href="#DejaVuSans-6f" x="1002.416016"/>
      <use xlink:href="#DejaVuSans-6e" x="1063.597656"/>
      <use xlink:href="#DejaVuSans-20" x="1126.976562"/>
      <use xlink:href="#DejaVuSans-41" x="1158.763672"/>
      <use xlink:href="#DejaVuSans-63" x="1225.421875"/>
      <use xlink:href="#DejaVuSans-63" x="1280.402344"/>
      <use xlink:href="#DejaVuSans-75" x="1335.382812"/>
      <use xlink:href="#DejaVuSans-72" x="1398.761719"/>
      <use xlink:href="#DejaVuSans-61" x="1439.875"/>
      <use xlink:href="#DejaVuSans-63" x="1501.154297"/>
      <use xlink:href="#DejaVuSans-79" x="1556.134766"/>
     </g>
    </g>
   </g>
  </g>
 </g>
 <defs>
  <clipPath id="p96c1b15ed6">
   <rect x="57.6" y="41.472" width="357.12" height="266.112"/>
  </clipPath>
 </defs>
</svg>
