<?xml version="1.0" encoding="utf-8" standalone="no"?>
<!DOCTYPE svg PUBLIC "-//W3C//DTD SVG 1.1//EN"
  "http://www.w3.org/Graphics/SVG/1.1/DTD/svg11.dtd">
<svg xmlns:xlink="http://www.w3.org/1999/xlink" width="460.8pt" height="345.6pt" viewBox="0 0 460.8 345.6" xmlns="http://www.w3.org/2000/svg" version="1.1">
 <metadata>
  <rdf:RDF xmlns:dc="http://purl.org/dc/elements/1.1/" xmlns:cc="http://creativecommons.org/ns#" xmlns:rdf="http://www.w3.org/1999/02/22-rdf-syntax-ns#">
   <cc:Work>
    <dc:type rdf:resource="http://purl.org/dc/dcmitype/StillImage"/>
    <dc:date>2025-07-13T21:24:59.310323</dc:date>
    <dc:format>image/svg+xml</dc:format>
    <dc:creator>
     <cc:Agent>
      <dc:title>Matplotlib v3.9.1, https://matplotlib.org/</dc:title>
     </cc:Agent>
    </dc:creator>
   </cc:Work>
  </rdf:RDF>
 </metadata>
 <defs>
  <style type="text/css">*{stroke-linejoin: round; stroke-linecap: butt}</style>
 </defs>
 <g id="figure_1">
  <g id="patch_1">
   <path d="M 0 345.6 
L 460.8 345.6 
L 460.8 0 
L 0 0 
z
" style="fill: #ffffff"/>
  </g>
  <g id="axes_1">
   <g id="patch_2">
    <path d="M 57.6 307.584 
L 414.72 307.584 
L 414.72 41.472 
L 57.6 41.472 
z
" style="fill: #ffffff"/>
   </g>
   <g id="matplotlib.axis_1">
    <g id="xtick_1">
     <g id="line2d_1">
      <defs>
       <path id="m2c51e76334" d="M 0 0 
L 0 3.5 
" style="stroke: #000000; stroke-width: 0.8"/>
      </defs>
      <g>
       <use xlink:href="#m2c51e76334" x="73.832727" y="307.584" style="stroke: #000000; stroke-width: 0.8"/>
      </g>
     </g>
     <g id="text_1">
      <!-- 1 -->
      <g transform="translate(70.651477 322.182437) scale(0.1 -0.1)">
       <defs>
        <path id="DejaVuSans-31" d="M 794 531 
L 1825 531 
L 1825 4091 
L 703 3866 
L 703 4441 
L 1819 4666 
L 2450 4666 
L 2450 531 
L 3481 531 
L 3481 0 
L 794 0 
L 794 531 
z
" transform="scale(0.015625)"/>
       </defs>
       <use xlink:href="#DejaVuSans-31"/>
      </g>
     </g>
    </g>
    <g id="xtick_2">
     <g id="line2d_2">
      <g>
       <use xlink:href="#m2c51e76334" x="109.664165" y="307.584" style="stroke: #000000; stroke-width: 0.8"/>
      </g>
     </g>
     <g id="text_2">
      <!-- 34 -->
      <g transform="translate(103.301665 322.182437) scale(0.1 -0.1)">
       <defs>
        <path id="DejaVuSans-33" d="M 2597 2516 
Q 3050 2419 3304 2112 
Q 3559 1806 3559 1356 
Q 3559 666 3084 287 
Q 2609 -91 1734 -91 
Q 1441 -91 1130 -33 
Q 819 25 488 141 
L 488 750 
Q 750 597 1062 519 
Q 1375 441 1716 441 
Q 2309 441 2620 675 
Q 2931 909 2931 1356 
Q 2931 1769 2642 2001 
Q 2353 2234 1838 2234 
L 1294 2234 
L 1294 2753 
L 1863 2753 
Q 2328 2753 2575 2939 
Q 2822 3125 2822 3475 
Q 2822 3834 2567 4026 
Q 2313 4219 1838 4219 
Q 1578 4219 1281 4162 
Q 984 4106 628 3988 
L 628 4550 
Q 988 4650 1302 4700 
Q 1616 4750 1894 4750 
Q 2613 4750 3031 4423 
Q 3450 4097 3450 3541 
Q 3450 3153 3228 2886 
Q 3006 2619 2597 2516 
z
" transform="scale(0.015625)"/>
        <path id="DejaVuSans-34" d="M 2419 4116 
L 825 1625 
L 2419 1625 
L 2419 4116 
z
M 2253 4666 
L 3047 4666 
L 3047 1625 
L 3713 1625 
L 3713 1100 
L 3047 1100 
L 3047 0 
L 2419 0 
L 2419 1100 
L 313 1100 
L 313 1709 
L 2253 4666 
z
" transform="scale(0.015625)"/>
       </defs>
       <use xlink:href="#DejaVuSans-33"/>
       <use xlink:href="#DejaVuSans-34" x="63.623047"/>
      </g>
     </g>
    </g>
    <g id="xtick_3">
     <g id="line2d_3">
      <g>
       <use xlink:href="#m2c51e76334" x="145.495604" y="307.584" style="stroke: #000000; stroke-width: 0.8"/>
      </g>
     </g>
     <g id="text_3">
      <!-- 67 -->
      <g transform="translate(139.133104 322.182437) scale(0.1 -0.1)">
       <defs>
        <path id="DejaVuSans-36" d="M 2113 2584 
Q 1688 2584 1439 2293 
Q 1191 2003 1191 1497 
Q 1191 994 1439 701 
Q 1688 409 2113 409 
Q 2538 409 2786 701 
Q 3034 994 3034 1497 
Q 3034 2003 2786 2293 
Q 2538 2584 2113 2584 
z
M 3366 4563 
L 3366 3988 
Q 3128 4100 2886 4159 
Q 2644 4219 2406 4219 
Q 1781 4219 1451 3797 
Q 1122 3375 1075 2522 
Q 1259 2794 1537 2939 
Q 1816 3084 2150 3084 
Q 2853 3084 3261 2657 
Q 3669 2231 3669 1497 
Q 3669 778 3244 343 
Q 2819 -91 2113 -91 
Q 1303 -91 875 529 
Q 447 1150 447 2328 
Q 447 3434 972 4092 
Q 1497 4750 2381 4750 
Q 2619 4750 2861 4703 
Q 3103 4656 3366 4563 
z
" transform="scale(0.015625)"/>
        <path id="DejaVuSans-37" d="M 525 4666 
L 3525 4666 
L 3525 4397 
L 1831 0 
L 1172 0 
L 2766 4134 
L 525 4134 
L 525 4666 
z
" transform="scale(0.015625)"/>
       </defs>
       <use xlink:href="#DejaVuSans-36"/>
       <use xlink:href="#DejaVuSans-37" x="63.623047"/>
      </g>
     </g>
    </g>
    <g id="xtick_4">
     <g id="line2d_4">
      <g>
       <use xlink:href="#m2c51e76334" x="181.327042" y="307.584" style="stroke: #000000; stroke-width: 0.8"/>
      </g>
     </g>
     <g id="text_4">
      <!-- 100 -->
      <g transform="translate(171.783292 322.182437) scale(0.1 -0.1)">
       <defs>
        <path id="DejaVuSans-30" d="M 2034 4250 
Q 1547 4250 1301 3770 
Q 1056 3291 1056 2328 
Q 1056 1369 1301 889 
Q 1547 409 2034 409 
Q 2525 409 2770 889 
Q 3016 1369 3016 2328 
Q 3016 3291 2770 3770 
Q 2525 4250 2034 4250 
z
M 2034 4750 
Q 2819 4750 3233 4129 
Q 3647 3509 3647 2328 
Q 3647 1150 3233 529 
Q 2819 -91 2034 -91 
Q 1250 -91 836 529 
Q 422 1150 422 2328 
Q 422 3509 836 4129 
Q 1250 4750 2034 4750 
z
" transform="scale(0.015625)"/>
       </defs>
       <use xlink:href="#DejaVuSans-31"/>
       <use xlink:href="#DejaVuSans-30" x="63.623047"/>
       <use xlink:href="#DejaVuSans-30" x="127.246094"/>
      </g>
     </g>
    </g>
    <g id="xtick_5">
     <g id="line2d_5">
      <g>
       <use xlink:href="#m2c51e76334" x="217.15848" y="307.584" style="stroke: #000000; stroke-width: 0.8"/>
      </g>
     </g>
     <g id="text_5">
      <!-- 133 -->
      <g transform="translate(207.61473 322.182437) scale(0.1 -0.1)">
       <use xlink:href="#DejaVuSans-31"/>
       <use xlink:href="#DejaVuSans-33" x="63.623047"/>
       <use xlink:href="#DejaVuSans-33" x="127.246094"/>
      </g>
     </g>
    </g>
    <g id="xtick_6">
     <g id="line2d_6">
      <g>
       <use xlink:href="#m2c51e76334" x="254.075719" y="307.584" style="stroke: #000000; stroke-width: 0.8"/>
      </g>
     </g>
     <g id="text_6">
      <!-- 167 -->
      <g transform="translate(244.531969 322.182437) scale(0.1 -0.1)">
       <use xlink:href="#DejaVuSans-31"/>
       <use xlink:href="#DejaVuSans-36" x="63.623047"/>
       <use xlink:href="#DejaVuSans-37" x="127.246094"/>
      </g>
     </g>
    </g>
    <g id="xtick_7">
     <g id="line2d_7">
      <g>
       <use xlink:href="#m2c51e76334" x="289.907157" y="307.584" style="stroke: #000000; stroke-width: 0.8"/>
      </g>
     </g>
     <g id="text_7">
      <!-- 200 -->
      <g transform="translate(280.363407 322.182437) scale(0.1 -0.1)">
       <defs>
        <path id="DejaVuSans-32" d="M 1228 531 
L 3431 531 
L 3431 0 
L 469 0 
L 469 531 
Q 828 903 1448 1529 
Q 2069 2156 2228 2338 
Q 2531 2678 2651 2914 
Q 2772 3150 2772 3378 
Q 2772 3750 2511 3984 
Q 2250 4219 1831 4219 
Q 1534 4219 1204 4116 
Q 875 4013 500 3803 
L 500 4441 
Q 881 4594 1212 4672 
Q 1544 4750 1819 4750 
Q 2544 4750 2975 4387 
Q 3406 4025 3406 3419 
Q 3406 3131 3298 2873 
Q 3191 2616 2906 2266 
Q 2828 2175 2409 1742 
Q 1991 1309 1228 531 
z
" transform="scale(0.015625)"/>
       </defs>
       <use xlink:href="#DejaVuSans-32"/>
       <use xlink:href="#DejaVuSans-30" x="63.623047"/>
       <use xlink:href="#DejaVuSans-30" x="127.246094"/>
      </g>
     </g>
    </g>
    <g id="xtick_8">
     <g id="line2d_8">
      <g>
       <use xlink:href="#m2c51e76334" x="325.738595" y="307.584" style="stroke: #000000; stroke-width: 0.8"/>
      </g>
     </g>
     <g id="text_8">
      <!-- 233 -->
      <g transform="translate(316.194845 322.182437) scale(0.1 -0.1)">
       <use xlink:href="#DejaVuSans-32"/>
       <use xlink:href="#DejaVuSans-33" x="63.623047"/>
       <use xlink:href="#DejaVuSans-33" x="127.246094"/>
      </g>
     </g>
    </g>
    <g id="xtick_9">
     <g id="line2d_9">
      <g>
       <use xlink:href="#m2c51e76334" x="361.570033" y="307.584" style="stroke: #000000; stroke-width: 0.8"/>
      </g>
     </g>
     <g id="text_9">
      <!-- 266 -->
      <g transform="translate(352.026283 322.182437) scale(0.1 -0.1)">
       <use xlink:href="#DejaVuSans-32"/>
       <use xlink:href="#DejaVuSans-36" x="63.623047"/>
       <use xlink:href="#DejaVuSans-36" x="127.246094"/>
      </g>
     </g>
    </g>
    <g id="xtick_10">
     <g id="line2d_10">
      <g>
       <use xlink:href="#m2c51e76334" x="398.487273" y="307.584" style="stroke: #000000; stroke-width: 0.8"/>
      </g>
     </g>
     <g id="text_10">
      <!-- 300 -->
      <g transform="translate(388.943523 322.182437) scale(0.1 -0.1)">
       <use xlink:href="#DejaVuSans-33"/>
       <use xlink:href="#DejaVuSans-30" x="63.623047"/>
       <use xlink:href="#DejaVuSans-30" x="127.246094"/>
      </g>
     </g>
    </g>
    <g id="text_11">
     <!-- Epochs -->
     <g transform="translate(218.244375 335.860562) scale(0.1 -0.1)">
      <defs>
       <path id="DejaVuSans-45" d="M 628 4666 
L 3578 4666 
L 3578 4134 
L 1259 4134 
L 1259 2753 
L 3481 2753 
L 3481 2222 
L 1259 2222 
L 1259 531 
L 3634 531 
L 3634 0 
L 628 0 
L 628 4666 
z
" transform="scale(0.015625)"/>
       <path id="DejaVuSans-70" d="M 1159 525 
L 1159 -1331 
L 581 -1331 
L 581 3500 
L 1159 3500 
L 1159 2969 
Q 1341 3281 1617 3432 
Q 1894 3584 2278 3584 
Q 2916 3584 3314 3078 
Q 3713 2572 3713 1747 
Q 3713 922 3314 415 
Q 2916 -91 2278 -91 
Q 1894 -91 1617 61 
Q 1341 213 1159 525 
z
M 3116 1747 
Q 3116 2381 2855 2742 
Q 2594 3103 2138 3103 
Q 1681 3103 1420 2742 
Q 1159 2381 1159 1747 
Q 1159 1113 1420 752 
Q 1681 391 2138 391 
Q 2594 391 2855 752 
Q 3116 1113 3116 1747 
z
" transform="scale(0.015625)"/>
       <path id="DejaVuSans-6f" d="M 1959 3097 
Q 1497 3097 1228 2736 
Q 959 2375 959 1747 
Q 959 1119 1226 758 
Q 1494 397 1959 397 
Q 2419 397 2687 759 
Q 2956 1122 2956 1747 
Q 2956 2369 2687 2733 
Q 2419 3097 1959 3097 
z
M 1959 3584 
Q 2709 3584 3137 3096 
Q 3566 2609 3566 1747 
Q 3566 888 3137 398 
Q 2709 -91 1959 -91 
Q 1206 -91 779 398 
Q 353 888 353 1747 
Q 353 2609 779 3096 
Q 1206 3584 1959 3584 
z
" transform="scale(0.015625)"/>
       <path id="DejaVuSans-63" d="M 3122 3366 
L 3122 2828 
Q 2878 2963 2633 3030 
Q 2388 3097 2138 3097 
Q 1578 3097 1268 2742 
Q 959 2388 959 1747 
Q 959 1106 1268 751 
Q 1578 397 2138 397 
Q 2388 397 2633 464 
Q 2878 531 3122 666 
L 3122 134 
Q 2881 22 2623 -34 
Q 2366 -91 2075 -91 
Q 1284 -91 818 406 
Q 353 903 353 1747 
Q 353 2603 823 3093 
Q 1294 3584 2113 3584 
Q 2378 3584 2631 3529 
Q 2884 3475 3122 3366 
z
" transform="scale(0.015625)"/>
       <path id="DejaVuSans-68" d="M 3513 2113 
L 3513 0 
L 2938 0 
L 2938 2094 
Q 2938 2591 2744 2837 
Q 2550 3084 2163 3084 
Q 1697 3084 1428 2787 
Q 1159 2491 1159 1978 
L 1159 0 
L 581 0 
L 581 4863 
L 1159 4863 
L 1159 2956 
Q 1366 3272 1645 3428 
Q 1925 3584 2291 3584 
Q 2894 3584 3203 3211 
Q 3513 2838 3513 2113 
z
" transform="scale(0.015625)"/>
       <path id="DejaVuSans-73" d="M 2834 3397 
L 2834 2853 
Q 2591 2978 2328 3040 
Q 2066 3103 1784 3103 
Q 1356 3103 1142 2972 
Q 928 2841 928 2578 
Q 928 2378 1081 2264 
Q 1234 2150 1697 2047 
L 1894 2003 
Q 2506 1872 2764 1633 
Q 3022 1394 3022 966 
Q 3022 478 2636 193 
Q 2250 -91 1575 -91 
Q 1294 -91 989 -36 
Q 684 19 347 128 
L 347 722 
Q 666 556 975 473 
Q 1284 391 1588 391 
Q 1994 391 2212 530 
Q 2431 669 2431 922 
Q 2431 1156 2273 1281 
Q 2116 1406 1581 1522 
L 1381 1569 
Q 847 1681 609 1914 
Q 372 2147 372 2553 
Q 372 3047 722 3315 
Q 1072 3584 1716 3584 
Q 2034 3584 2315 3537 
Q 2597 3491 2834 3397 
z
" transform="scale(0.015625)"/>
      </defs>
      <use xlink:href="#DejaVuSans-45"/>
      <use xlink:href="#DejaVuSans-70" x="63.183594"/>
      <use xlink:href="#DejaVuSans-6f" x="126.660156"/>
      <use xlink:href="#DejaVuSans-63" x="187.841797"/>
      <use xlink:href="#DejaVuSans-68" x="242.822266"/>
      <use xlink:href="#DejaVuSans-73" x="306.201172"/>
     </g>
    </g>
   </g>
   <g id="matplotlib.axis_2">
    <g id="ytick_1">
     <g id="line2d_11">
      <defs>
       <path id="m3ccf88d79c" d="M 0 0 
L -3.5 0 
" style="stroke: #000000; stroke-width: 0.8"/>
      </defs>
      <g>
       <use xlink:href="#m3ccf88d79c" x="57.6" y="287.681894" style="stroke: #000000; stroke-width: 0.8"/>
      </g>
     </g>
     <g id="text_12">
      <!-- 10 -->
      <g transform="translate(37.875 291.481113) scale(0.1 -0.1)">
       <use xlink:href="#DejaVuSans-31"/>
       <use xlink:href="#DejaVuSans-30" x="63.623047"/>
      </g>
     </g>
    </g>
    <g id="ytick_2">
     <g id="line2d_12">
      <g>
       <use xlink:href="#m3ccf88d79c" x="57.6" y="256.888577" style="stroke: #000000; stroke-width: 0.8"/>
      </g>
     </g>
     <g id="text_13">
      <!-- 20 -->
      <g transform="translate(37.875 260.687795) scale(0.1 -0.1)">
       <use xlink:href="#DejaVuSans-32"/>
       <use xlink:href="#DejaVuSans-30" x="63.623047"/>
      </g>
     </g>
    </g>
    <g id="ytick_3">
     <g id="line2d_13">
      <g>
       <use xlink:href="#m3ccf88d79c" x="57.6" y="226.095259" style="stroke: #000000; stroke-width: 0.8"/>
      </g>
     </g>
     <g id="text_14">
      <!-- 30 -->
      <g transform="translate(37.875 229.894478) scale(0.1 -0.1)">
       <use xlink:href="#DejaVuSans-33"/>
       <use xlink:href="#DejaVuSans-30" x="63.623047"/>
      </g>
     </g>
    </g>
    <g id="ytick_4">
     <g id="line2d_14">
      <g>
       <use xlink:href="#m3ccf88d79c" x="57.6" y="195.301942" style="stroke: #000000; stroke-width: 0.8"/>
      </g>
     </g>
     <g id="text_15">
      <!-- 40 -->
      <g transform="translate(37.875 199.101161) scale(0.1 -0.1)">
       <use xlink:href="#DejaVuSans-34"/>
       <use xlink:href="#DejaVuSans-30" x="63.623047"/>
      </g>
     </g>
    </g>
    <g id="ytick_5">
     <g id="line2d_15">
      <g>
       <use xlink:href="#m3ccf88d79c" x="57.6" y="164.508624" style="stroke: #000000; stroke-width: 0.8"/>
      </g>
     </g>
     <g id="text_16">
      <!-- 50 -->
      <g transform="translate(37.875 168.307843) scale(0.1 -0.1)">
       <defs>
        <path id="DejaVuSans-35" d="M 691 4666 
L 3169 4666 
L 3169 4134 
L 1269 4134 
L 1269 2991 
Q 1406 3038 1543 3061 
Q 1681 3084 1819 3084 
Q 2600 3084 3056 2656 
Q 3513 2228 3513 1497 
Q 3513 744 3044 326 
Q 2575 -91 1722 -91 
Q 1428 -91 1123 -41 
Q 819 9 494 109 
L 494 744 
Q 775 591 1075 516 
Q 1375 441 1709 441 
Q 2250 441 2565 725 
Q 2881 1009 2881 1497 
Q 2881 1984 2565 2268 
Q 2250 2553 1709 2553 
Q 1456 2553 1204 2497 
Q 953 2441 691 2322 
L 691 4666 
z
" transform="scale(0.015625)"/>
       </defs>
       <use xlink:href="#DejaVuSans-35"/>
       <use xlink:href="#DejaVuSans-30" x="63.623047"/>
      </g>
     </g>
    </g>
    <g id="ytick_6">
     <g id="line2d_16">
      <g>
       <use xlink:href="#m3ccf88d79c" x="57.6" y="133.715307" style="stroke: #000000; stroke-width: 0.8"/>
      </g>
     </g>
     <g id="text_17">
      <!-- 60 -->
      <g transform="translate(37.875 137.514526) scale(0.1 -0.1)">
       <use xlink:href="#DejaVuSans-36"/>
       <use xlink:href="#DejaVuSans-30" x="63.623047"/>
      </g>
     </g>
    </g>
    <g id="ytick_7">
     <g id="line2d_17">
      <g>
       <use xlink:href="#m3ccf88d79c" x="57.6" y="102.921989" style="stroke: #000000; stroke-width: 0.8"/>
      </g>
     </g>
     <g id="text_18">
      <!-- 70 -->
      <g transform="translate(37.875 106.721208) scale(0.1 -0.1)">
       <use xlink:href="#DejaVuSans-37"/>
       <use xlink:href="#DejaVuSans-30" x="63.623047"/>
      </g>
     </g>
    </g>
    <g id="ytick_8">
     <g id="line2d_18">
      <g>
       <use xlink:href="#m3ccf88d79c" x="57.6" y="72.128672" style="stroke: #000000; stroke-width: 0.8"/>
      </g>
     </g>
     <g id="text_19">
      <!-- 80 -->
      <g transform="translate(37.875 75.927891) scale(0.1 -0.1)">
       <defs>
        <path id="DejaVuSans-38" d="M 2034 2216 
Q 1584 2216 1326 1975 
Q 1069 1734 1069 1313 
Q 1069 891 1326 650 
Q 1584 409 2034 409 
Q 2484 409 2743 651 
Q 3003 894 3003 1313 
Q 3003 1734 2745 1975 
Q 2488 2216 2034 2216 
z
M 1403 2484 
Q 997 2584 770 2862 
Q 544 3141 544 3541 
Q 544 4100 942 4425 
Q 1341 4750 2034 4750 
Q 2731 4750 3128 4425 
Q 3525 4100 3525 3541 
Q 3525 3141 3298 2862 
Q 3072 2584 2669 2484 
Q 3125 2378 3379 2068 
Q 3634 1759 3634 1313 
Q 3634 634 3220 271 
Q 2806 -91 2034 -91 
Q 1263 -91 848 271 
Q 434 634 434 1313 
Q 434 1759 690 2068 
Q 947 2378 1403 2484 
z
M 1172 3481 
Q 1172 3119 1398 2916 
Q 1625 2713 2034 2713 
Q 2441 2713 2670 2916 
Q 2900 3119 2900 3481 
Q 2900 3844 2670 4047 
Q 2441 4250 2034 4250 
Q 1625 4250 1398 4047 
Q 1172 3844 1172 3481 
z
" transform="scale(0.015625)"/>
       </defs>
       <use xlink:href="#DejaVuSans-38"/>
       <use xlink:href="#DejaVuSans-30" x="63.623047"/>
      </g>
     </g>
    </g>
    <g id="text_20">
     <!-- Accuracy -->
     <g transform="translate(31.795312 197.356125) rotate(-90) scale(0.1 -0.1)">
      <defs>
       <path id="DejaVuSans-41" d="M 2188 4044 
L 1331 1722 
L 3047 1722 
L 2188 4044 
z
M 1831 4666 
L 2547 4666 
L 4325 0 
L 3669 0 
L 3244 1197 
L 1141 1197 
L 716 0 
L 50 0 
L 1831 4666 
z
" transform="scale(0.015625)"/>
       <path id="DejaVuSans-75" d="M 544 1381 
L 544 3500 
L 1119 3500 
L 1119 1403 
Q 1119 906 1312 657 
Q 1506 409 1894 409 
Q 2359 409 2629 706 
Q 2900 1003 2900 1516 
L 2900 3500 
L 3475 3500 
L 3475 0 
L 2900 0 
L 2900 538 
Q 2691 219 2414 64 
Q 2138 -91 1772 -91 
Q 1169 -91 856 284 
Q 544 659 544 1381 
z
M 1991 3584 
L 1991 3584 
z
" transform="scale(0.015625)"/>
       <path id="DejaVuSans-72" d="M 2631 2963 
Q 2534 3019 2420 3045 
Q 2306 3072 2169 3072 
Q 1681 3072 1420 2755 
Q 1159 2438 1159 1844 
L 1159 0 
L 581 0 
L 581 3500 
L 1159 3500 
L 1159 2956 
Q 1341 3275 1631 3429 
Q 1922 3584 2338 3584 
Q 2397 3584 2469 3576 
Q 2541 3569 2628 3553 
L 2631 2963 
z
" transform="scale(0.015625)"/>
       <path id="DejaVuSans-61" d="M 2194 1759 
Q 1497 1759 1228 1600 
Q 959 1441 959 1056 
Q 959 750 1161 570 
Q 1363 391 1709 391 
Q 2188 391 2477 730 
Q 2766 1069 2766 1631 
L 2766 1759 
L 2194 1759 
z
M 3341 1997 
L 3341 0 
L 2766 0 
L 2766 531 
Q 2569 213 2275 61 
Q 1981 -91 1556 -91 
Q 1019 -91 701 211 
Q 384 513 384 1019 
Q 384 1609 779 1909 
Q 1175 2209 1959 2209 
L 2766 2209 
L 2766 2266 
Q 2766 2663 2505 2880 
Q 2244 3097 1772 3097 
Q 1472 3097 1187 3025 
Q 903 2953 641 2809 
L 641 3341 
Q 956 3463 1253 3523 
Q 1550 3584 1831 3584 
Q 2591 3584 2966 3190 
Q 3341 2797 3341 1997 
z
" transform="scale(0.015625)"/>
       <path id="DejaVuSans-79" d="M 2059 -325 
Q 1816 -950 1584 -1140 
Q 1353 -1331 966 -1331 
L 506 -1331 
L 506 -850 
L 844 -850 
Q 1081 -850 1212 -737 
Q 1344 -625 1503 -206 
L 1606 56 
L 191 3500 
L 800 3500 
L 1894 763 
L 2988 3500 
L 3597 3500 
L 2059 -325 
z
" transform="scale(0.015625)"/>
      </defs>
      <use xlink:href="#DejaVuSans-41"/>
      <use xlink:href="#DejaVuSans-63" x="66.658203"/>
      <use xlink:href="#DejaVuSans-63" x="121.638672"/>
      <use xlink:href="#DejaVuSans-75" x="176.619141"/>
      <use xlink:href="#DejaVuSans-72" x="239.998047"/>
      <use xlink:href="#DejaVuSans-61" x="281.111328"/>
      <use xlink:href="#DejaVuSans-63" x="342.390625"/>
      <use xlink:href="#DejaVuSans-79" x="397.371094"/>
     </g>
    </g>
   </g>
   <g id="line2d_19">
    <path d="M 73.832727 295.488 
L 76.00433 238.043066 
L 77.090131 213.485396 
L 78.175932 193.854656 
L 79.261733 178.76593 
L 80.347534 168.088347 
L 81.433335 159.36614 
L 82.519137 151.775588 
L 83.604938 145.947952 
L 84.690739 138.973266 
L 85.77654 133.045552 
L 86.862341 128.595918 
L 89.033943 121.043857 
L 90.119745 117.964525 
L 91.205546 113.915204 
L 92.291347 112.437125 
L 93.377148 112.875929 
L 94.462949 109.942866 
L 95.54875 138.950171 
L 96.634552 136.117186 
L 97.720353 132.891586 
L 98.806154 132.860792 
L 99.891955 128.488141 
L 100.977756 124.846832 
L 102.063557 121.81369 
L 103.149358 119.427208 
L 104.23516 117.66429 
L 105.320961 116.432558 
L 107.492563 111.705783 
L 108.578364 110.150721 
L 109.664165 107.933602 
L 110.749967 106.732663 
L 111.835768 105.062125 
L 112.921569 103.961264 
L 114.00737 100.897329 
L 115.093171 99.072825 
L 116.178972 97.617841 
L 117.264773 95.577783 
L 118.350575 94.299861 
L 119.436376 93.499234 
L 120.522177 91.359099 
L 121.607978 90.504584 
L 122.693779 87.332873 
L 123.77958 86.909464 
L 124.865382 86.709308 
L 125.951183 85.146547 
L 127.036984 84.345921 
L 128.122785 82.475227 
L 129.208586 81.312779 
L 130.294387 80.319695 
L 131.380189 80.288901 
L 132.46599 78.656855 
L 134.637592 78.048687 
L 135.723393 77.186474 
L 136.809194 77.171078 
L 137.894995 76.70148 
L 138.980797 101.082089 
L 140.066598 104.39237 
L 141.152399 104.099834 
L 146.581405 100.204479 
L 147.667206 99.588613 
L 148.753007 98.649417 
L 149.838808 98.988143 
L 150.924609 97.948869 
L 152.01041 95.808733 
L 153.096212 95.13128 
L 154.182013 96.832611 
L 156.353615 94.307559 
L 157.439416 94.515414 
L 158.525217 93.476139 
L 159.611019 91.751714 
L 160.69682 91.99806 
L 162.868422 89.981098 
L 163.954223 88.926427 
L 165.040024 88.687779 
L 166.125825 88.980315 
L 168.297428 86.932559 
L 169.383229 86.624626 
L 170.46903 85.96257 
L 171.554831 84.869407 
L 172.640632 84.445999 
L 173.726434 83.206568 
L 174.812235 83.576088 
L 175.898036 82.606098 
L 178.069638 80.134935 
L 179.155439 79.950175 
L 180.24124 79.272722 
L 181.327042 79.626845 
L 183.498644 76.724575 
L 184.584445 77.725358 
L 185.670246 75.177211 
L 186.756047 75.723792 
L 187.841849 74.776897 
L 190.013451 73.452785 
L 192.185053 71.320347 
L 193.270854 71.597487 
L 194.356656 70.789163 
L 195.442457 72.028594 
L 197.614059 68.779899 
L 198.69986 67.756021 
L 199.785661 68.425776 
L 200.871462 67.224836 
L 201.957264 67.201741 
L 203.043065 65.715964 
L 204.128866 65.662075 
L 205.214667 65.454221 
L 206.300468 64.522723 
L 207.386269 64.884544 
L 208.472071 64.745974 
L 209.557872 63.545035 
L 210.643673 63.591225 
L 211.729474 62.82909 
L 212.815275 62.251716 
L 213.901076 62.143939 
L 214.986877 61.358709 
L 216.072679 61.812911 
L 217.15848 61.551168 
L 218.244281 61.035379 
L 219.330082 60.704351 
L 220.415883 61.705134 
L 221.501684 60.458005 
L 222.587486 60.404116 
L 223.673287 61.135458 
L 224.759088 61.127759 
L 225.844889 85.08496 
L 226.93069 88.256672 
L 228.016491 88.595399 
L 229.102292 89.534595 
L 230.188094 87.971834 
L 231.273895 89.157377 
L 232.359696 89.00341 
L 233.445497 87.817867 
L 234.531298 87.917946 
L 235.617099 86.478358 
L 236.702901 85.747017 
L 237.788702 87.571521 
L 238.874503 86.632325 
L 239.960304 86.439866 
L 241.046105 85.007977 
L 242.131906 86.10114 
L 243.217708 86.385978 
L 244.303509 84.299731 
L 245.38931 84.099574 
L 246.475111 85.423687 
L 247.560912 84.561474 
L 248.646713 84.592267 
L 249.732514 86.062648 
L 250.818316 84.445999 
L 251.904117 81.197304 
L 252.989918 83.375931 
L 254.075719 82.452132 
L 255.16152 82.744668 
L 256.247321 82.036422 
L 257.333123 81.482142 
L 258.418924 80.327393 
L 259.504725 81.297382 
L 260.590526 80.050253 
L 261.676327 80.866276 
L 262.762128 79.750018 
L 263.847929 80.596834 
L 264.933731 80.2966 
L 266.019532 80.958656 
L 267.105333 80.897069 
L 268.191134 78.479794 
L 269.276935 79.8347 
L 271.448538 77.479011 
L 272.534339 78.810822 
L 273.62014 77.648374 
L 274.705941 77.725358 
L 275.791742 77.494408 
L 276.877543 76.601401 
L 277.963344 76.185692 
L 279.049146 76.955525 
L 280.134947 76.532116 
L 281.220748 77.117189 
L 282.306549 77.340441 
L 283.39235 75.161814 
L 284.478151 75.423557 
L 286.649754 75.438954 
L 288.821356 74.699914 
L 289.907157 73.830003 
L 290.992958 73.298818 
L 292.07876 74.653724 
L 293.164561 72.536684 
L 294.250362 74.030159 
L 296.421964 72.4597 
L 297.507765 73.144852 
L 298.593566 71.974705 
L 299.679368 71.166381 
L 300.765169 71.905421 
L 301.85097 71.220269 
L 302.936771 71.274158 
L 304.022572 70.227185 
L 305.108373 70.958526 
L 306.194175 70.150201 
L 308.365777 69.672905 
L 309.451578 68.394982 
L 310.537379 68.687519 
L 311.62318 69.295687 
L 312.708981 67.886893 
L 313.794783 67.848401 
L 314.880584 68.556647 
L 315.966385 67.317216 
L 317.052186 66.624367 
L 318.137987 67.170948 
L 319.223788 66.224053 
L 320.30959 66.247148 
L 321.395391 64.584309 
L 323.566993 66.108579 
L 324.652794 65.053907 
L 326.824396 63.775985 
L 327.910198 63.84527 
L 328.995999 63.267895 
L 330.0818 64.037728 
L 331.167601 62.128542 
L 332.253402 62.451872 
L 333.339203 61.443391 
L 334.425005 62.082352 
L 335.510806 61.027681 
L 336.596607 60.542686 
L 337.682408 60.588876 
L 338.768209 61.004586 
L 339.85401 60.927603 
L 340.939811 60.581178 
L 342.025613 60.419513 
L 343.111414 60.142373 
L 344.197215 60.196262 
L 345.283016 58.233188 
L 346.368817 58.702786 
L 347.454618 57.979143 
L 348.54042 58.079221 
L 349.626221 56.724315 
L 350.712022 56.524158 
L 351.797823 57.809779 
L 352.883624 57.948349 
L 353.969425 56.916773 
L 355.055227 55.507979 
L 356.141028 56.116147 
L 357.226829 56.223924 
L 358.31263 55.954482 
L 359.398431 55.415599 
L 360.484232 55.608057 
L 361.570033 54.199263 
L 362.655835 55.538772 
L 363.741636 54.653464 
L 364.827437 54.853621 
L 365.913238 54.484101 
L 366.999039 53.568 
L 368.08484 55.808214 
L 369.170642 54.653464 
L 370.256443 55.577264 
L 371.342244 57.016852 
L 372.428045 57.702003 
L 373.513846 57.725098 
L 374.599647 57.401768 
L 375.685448 56.732013 
L 376.77125 57.894461 
L 378.942852 56.51646 
L 380.028653 57.540338 
L 381.114454 56.870583 
L 382.200255 57.471053 
L 384.371858 56.578047 
L 385.457659 57.270896 
L 386.54346 57.317086 
L 387.629261 57.817478 
L 388.715062 57.917556 
L 389.800863 57.086137 
L 390.886665 58.040729 
L 391.972466 58.002238 
L 393.058267 57.848271 
L 394.144068 56.97836 
L 396.31567 56.739712 
L 397.401472 55.939085 
L 398.487273 57.817478 
L 398.487273 57.817478 
" clip-path="url(#pf2100412ed)" style="fill: none; stroke: #1f77b4; stroke-width: 1.5; stroke-linecap: square"/>
   </g>
   <g id="line2d_20">
    <path d="M 73.832727 285.095255 
L 74.918528 263.016447 
L 76.00433 232.962169 
L 77.090131 212.423026 
L 78.175932 196.718434 
L 79.261733 193.300376 
L 80.347534 179.628143 
L 81.433335 179.68973 
L 82.519137 166.87971 
L 83.604938 159.304554 
L 84.690739 164.939731 
L 85.77654 154.408416 
L 86.862341 148.311339 
L 87.948142 145.047248 
L 89.033943 135.501319 
L 90.119745 132.298814 
L 91.205546 133.869274 
L 92.291347 127.98775 
L 93.377148 129.496622 
L 94.462949 128.17251 
L 95.54875 159.858833 
L 96.634552 150.990358 
L 97.720353 151.113531 
L 98.806154 148.588479 
L 99.891955 144.954868 
L 100.977756 143.045682 
L 102.063557 138.272718 
L 103.149358 136.486705 
L 104.23516 133.65372 
L 105.320961 136.671465 
L 106.406762 129.311863 
L 107.492563 129.712176 
L 108.578364 127.649023 
L 109.664165 121.85988 
L 110.749967 122.04464 
L 111.835768 117.364055 
L 112.921569 121.3056 
L 114.00737 117.548815 
L 115.093171 112.745058 
L 116.178972 114.407897 
L 117.264773 113.884411 
L 118.350575 106.709568 
L 119.436376 109.912073 
L 120.522177 109.788899 
L 121.607978 107.140674 
L 122.693779 103.876582 
L 123.77958 102.429296 
L 124.865382 98.949652 
L 125.951183 99.750278 
L 127.036984 96.763326 
L 128.122785 97.317606 
L 129.208586 95.87032 
L 130.294387 95.68556 
L 131.380189 95.192867 
L 132.46599 94.269067 
L 133.551791 94.76176 
L 135.723393 93.006541 
L 136.809194 93.899547 
L 137.894995 92.790988 
L 138.980797 120.8437 
L 140.066598 117.271675 
L 141.152399 116.994536 
L 143.324001 115.485663 
L 144.409802 112.560298 
L 145.495604 115.824389 
L 146.581405 115.516456 
L 147.667206 112.960611 
L 148.753007 108.834306 
L 149.838808 109.419379 
L 150.924609 110.373972 
L 152.01041 113.576477 
L 153.096212 112.129191 
L 154.182013 109.912073 
L 155.267814 106.801947 
L 156.353615 108.187647 
L 157.439416 110.435559 
L 158.525217 106.801947 
L 159.611019 103.568649 
L 160.69682 102.983576 
L 161.782621 103.814996 
L 162.868422 100.797251 
L 163.954223 100.735664 
L 165.040024 100.520111 
L 166.125825 103.260716 
L 167.211627 100.304558 
L 168.297428 98.918858 
L 169.383229 98.672512 
L 170.46903 97.132846 
L 171.554831 96.363013 
L 172.640632 98.795685 
L 173.726434 98.672512 
L 174.812235 96.33222 
L 175.898036 96.05508 
L 176.983837 95.008107 
L 178.069638 94.792554 
L 179.155439 93.468441 
L 180.24124 91.004976 
L 181.327042 90.789422 
L 182.412843 89.157377 
L 183.498644 90.142763 
L 184.584445 89.74245 
L 185.670246 89.711656 
L 186.756047 86.909464 
L 187.841849 85.924078 
L 188.92765 87.956437 
L 190.013451 85.400592 
L 191.099252 85.862492 
L 192.185053 85.369799 
L 193.270854 84.261239 
L 194.356656 84.938692 
L 195.442457 81.520634 
L 196.528258 80.720008 
L 197.614059 82.998713 
L 198.69986 80.997147 
L 199.785661 79.888588 
L 200.871462 79.765415 
L 201.957264 80.627628 
L 203.043065 79.334308 
L 204.128866 78.441302 
L 205.214667 78.348922 
L 206.300468 77.609883 
L 207.386269 77.486709 
L 208.472071 76.347357 
L 209.557872 76.532116 
L 210.643673 76.501323 
L 211.729474 75.82387 
L 212.815275 76.162597 
L 213.901076 75.885457 
L 214.986877 75.947043 
L 216.072679 75.885457 
L 217.15848 74.807691 
L 218.244281 75.115624 
L 219.330082 74.561344 
L 220.415883 74.776897 
L 221.501684 73.514371 
L 222.587486 74.130238 
L 223.673287 73.883891 
L 224.759088 74.376584 
L 225.844889 104.338482 
L 226.93069 103.383889 
L 228.016491 101.72105 
L 229.102292 102.306123 
L 230.188094 100.797251 
L 231.273895 101.505497 
L 232.359696 102.921989 
L 233.445497 101.012804 
L 234.531298 105.015935 
L 235.617099 100.027418 
L 236.702901 101.16677 
L 237.788702 104.184516 
L 238.874503 101.382324 
L 239.960304 98.087439 
L 241.046105 100.951217 
L 242.131906 105.108315 
L 243.217708 97.779505 
L 244.303509 102.152157 
L 245.38931 98.487752 
L 246.475111 101.81343 
L 247.560912 95.747147 
L 248.646713 93.683994 
L 249.732514 103.322303 
L 250.818316 95.68556 
L 251.904117 100.089004 
L 252.989918 95.346833 
L 254.075719 96.455393 
L 255.16152 95.654767 
L 256.247321 95.5008 
L 257.333123 91.466875 
L 258.418924 94.269067 
L 259.504725 95.470007 
L 260.590526 99.042032 
L 261.676327 93.991927 
L 262.762128 91.897982 
L 263.847929 90.481489 
L 264.933731 91.590049 
L 266.019532 95.192867 
L 267.105333 91.405289 
L 268.191134 89.83483 
L 269.276935 92.452262 
L 270.362736 91.220529 
L 271.448538 91.097356 
L 272.534339 91.436082 
L 273.62014 89.588483 
L 274.705941 90.912596 
L 275.791742 90.543076 
L 276.877543 90.666249 
L 277.963344 89.034203 
L 279.049146 92.236708 
L 280.134947 89.46531 
L 281.220748 91.713222 
L 282.306549 88.695477 
L 283.39235 89.434516 
L 284.478151 88.849443 
L 285.563953 86.355185 
L 286.649754 90.204349 
L 287.735555 89.804036 
L 288.821356 85.492972 
L 289.907157 87.463744 
L 290.992958 88.17199 
L 292.07876 86.108838 
L 293.164561 89.680863 
L 294.250362 87.925644 
L 295.336163 85.739318 
L 296.421964 88.110404 
L 297.507765 85.893285 
L 298.593566 86.262805 
L 299.679368 82.567607 
L 300.765169 84.630759 
L 301.85097 86.232011 
L 302.936771 81.459047 
L 304.022572 86.201218 
L 305.108373 83.42982 
L 307.279976 83.922513 
L 308.365777 80.873974 
L 309.451578 81.982534 
L 311.62318 82.96792 
L 312.708981 80.812388 
L 313.794783 81.705394 
L 314.880584 79.765415 
L 315.966385 79.857795 
L 317.052186 79.303515 
L 318.137987 79.395895 
L 319.223788 79.087962 
L 320.30959 76.963223 
L 321.395391 80.134935 
L 322.481192 79.488275 
L 323.566993 77.455916 
L 324.652794 76.686083 
L 325.738595 78.872409 
L 326.824396 78.225749 
L 327.910198 76.070217 
L 328.995999 77.147983 
L 331.167601 73.791511 
L 332.253402 75.73149 
L 333.339203 75.238797 
L 334.425005 73.606751 
L 335.510806 75.238797 
L 336.596607 73.883891 
L 337.682408 75.762284 
L 338.768209 73.945478 
L 339.85401 73.883891 
L 340.939811 71.666772 
L 342.025613 72.652158 
L 343.111414 72.067085 
L 344.197215 70.742973 
L 345.283016 72.898505 
L 346.368817 71.913119 
L 347.454618 70.650593 
L 348.54042 68.556647 
L 349.626221 70.127106 
L 350.712022 70.712179 
L 351.797823 69.634413 
L 352.883624 70.496626 
L 353.969425 69.172514 
L 355.055227 69.32648 
L 357.226829 68.741407 
L 358.31263 69.2341 
L 359.398431 68.402681 
L 360.484232 68.341094 
L 361.570033 67.232535 
L 362.655835 66.801428 
L 363.741636 66.863015 
L 364.827437 67.417295 
L 365.913238 66.678255 
L 366.999039 66.709048 
L 368.08484 67.909988 
L 369.170642 67.201741 
L 370.256443 69.41886 
L 371.342244 68.310301 
L 372.428045 70.6198 
L 373.513846 70.188693 
L 374.599647 70.188693 
L 375.685448 70.804559 
L 376.77125 70.896939 
L 377.857051 70.003933 
L 378.942852 70.804559 
L 380.028653 69.388067 
L 381.114454 70.1579 
L 382.200255 69.696 
L 383.286057 69.911553 
L 384.371858 70.373453 
L 385.457659 70.188693 
L 386.54346 68.125541 
L 387.629261 68.525854 
L 388.715062 69.542033 
L 389.800863 70.742973 
L 390.886665 70.127106 
L 391.972466 68.649027 
L 393.058267 71.358839 
L 394.144068 68.987754 
L 395.229869 69.14172 
L 396.31567 69.60362 
L 397.401472 71.358839 
L 398.487273 69.942347 
L 398.487273 69.942347 
" clip-path="url(#pf2100412ed)" style="fill: none; stroke: #ff7f0e; stroke-width: 1.5; stroke-linecap: square"/>
   </g>
   <g id="line2d_21">
    <path d="M 73.832727 288.743733 
L 74.918528 277.275876 
L 76.00433 252.959774 
L 77.090131 242.129021 
L 78.175932 228.856039 
L 79.261733 223.971582 
L 80.347534 216.857264 
L 81.433335 210.804784 
L 82.519137 207.088349 
L 83.604938 201.460605 
L 84.690739 205.389408 
L 85.77654 198.381274 
L 86.862341 192.965897 
L 87.948142 191.160771 
L 89.033943 183.090799 
L 90.119745 179.26818 
L 91.205546 180.542386 
L 92.291347 176.188848 
L 93.377148 178.843445 
L 94.462949 178.312525 
L 95.54875 202.203892 
L 96.634552 192.22261 
L 97.720353 194.664839 
L 98.806154 193.921552 
L 99.891955 190.205117 
L 100.977756 185.32066 
L 102.063557 188.08144 
L 103.149358 182.878431 
L 104.23516 181.710409 
L 105.320961 185.214476 
L 106.406762 176.932135 
L 107.492563 177.463054 
L 108.578364 182.666063 
L 109.664165 168.649795 
L 110.749967 172.790965 
L 111.835768 167.906508 
L 112.921569 171.941494 
L 114.00737 170.45492 
L 115.093171 163.55297 
L 116.178972 168.543611 
L 117.264773 167.163221 
L 118.350575 158.987064 
L 120.522177 166.738485 
L 121.607978 158.137593 
L 122.693779 155.695365 
L 123.77958 154.952078 
L 124.865382 150.492356 
L 125.951183 151.235643 
L 127.036984 149.749069 
L 128.122785 149.642885 
L 129.208586 148.793414 
L 130.294387 148.156311 
L 131.380189 146.032634 
L 132.46599 147.625392 
L 133.551791 146.245002 
L 134.637592 145.92645 
L 135.723393 144.970795 
L 136.809194 145.395531 
L 137.894995 145.395531 
L 138.980797 169.711633 
L 140.066598 167.057037 
L 141.152399 165.251911 
L 142.2382 168.862162 
L 143.324001 171.622943 
L 144.409802 160.898373 
L 146.581405 170.561104 
L 147.667206 165.464279 
L 148.753007 157.712858 
L 149.838808 157.819042 
L 150.924609 162.384947 
L 152.01041 169.286898 
L 153.096212 166.738485 
L 154.182013 162.703499 
L 155.267814 161.64166 
L 156.353615 163.765337 
L 157.439416 161.854028 
L 158.525217 161.004557 
L 159.611019 161.110741 
L 160.69682 158.243777 
L 161.782621 159.836535 
L 162.868422 152.403665 
L 163.954223 155.589181 
L 165.040024 160.26127 
L 166.125825 156.544835 
L 168.297428 154.102607 
L 169.383229 149.961436 
L 170.46903 152.722217 
L 171.554831 145.501715 
L 172.640632 151.44801 
L 173.726434 149.642885 
L 174.812235 146.988289 
L 175.898036 149.430517 
L 176.983837 151.235643 
L 178.069638 145.714082 
L 179.155439 147.731576 
L 180.24124 146.563553 
L 181.327042 143.802773 
L 182.412843 145.183163 
L 183.498644 145.183163 
L 184.584445 141.78528 
L 185.670246 142.316199 
L 186.756047 141.25436 
L 187.841849 139.0245 
L 188.92765 139.555419 
L 190.013451 139.236867 
L 191.099252 137.219374 
L 192.185053 139.767787 
L 193.270854 135.626616 
L 194.356656 140.192522 
L 195.442457 136.688455 
L 196.528258 135.095697 
L 197.614059 135.626616 
L 198.69986 134.35241 
L 199.785661 133.502939 
L 200.871462 133.609123 
L 201.957264 132.759652 
L 203.043065 130.529791 
L 204.128866 128.724666 
L 205.214667 127.769011 
L 206.300468 129.574137 
L 208.472071 127.131908 
L 209.557872 127.875195 
L 210.643673 128.406114 
L 211.729474 125.857702 
L 212.815275 126.070069 
L 214.986877 123.309289 
L 216.072679 124.264944 
L 217.15848 122.884554 
L 218.244281 124.052576 
L 219.330082 123.627841 
L 220.415883 123.415473 
L 221.501684 121.822715 
L 222.587486 123.203105 
L 223.673287 122.035083 
L 224.759088 121.822715 
L 225.844889 160.155086 
L 226.93069 154.952078 
L 228.016491 157.075755 
L 229.102292 161.429293 
L 230.188094 154.208791 
L 231.273895 156.651019 
L 232.359696 153.571687 
L 233.445497 156.651019 
L 234.531298 160.792189 
L 235.617099 155.907732 
L 236.702901 156.969571 
L 237.788702 161.004557 
L 238.874503 158.137593 
L 239.960304 151.554194 
L 241.046105 156.438652 
L 242.131906 153.35932 
L 243.217708 147.094472 
L 244.303509 158.668512 
L 245.38931 153.571687 
L 246.475111 157.712858 
L 247.560912 144.015141 
L 248.646713 147.094472 
L 249.732514 155.907732 
L 250.818316 148.156311 
L 251.904117 156.863387 
L 252.989918 145.395531 
L 254.075719 154.845894 
L 255.16152 147.200656 
L 256.247321 147.519208 
L 257.333123 145.289347 
L 258.418924 146.563553 
L 259.504725 148.899598 
L 260.590526 154.845894 
L 261.676327 148.68723 
L 262.762128 143.908957 
L 263.847929 145.607898 
L 264.933731 147.094472 
L 266.019532 147.200656 
L 267.105333 144.54606 
L 268.191134 140.829625 
L 269.276935 145.395531 
L 270.362736 147.413024 
L 271.448538 150.279988 
L 272.534339 143.378038 
L 273.62014 145.714082 
L 274.705941 145.183163 
L 275.791742 139.449235 
L 276.877543 143.484221 
L 277.963344 143.059486 
L 279.049146 143.590405 
L 280.134947 146.882105 
L 281.220748 143.802773 
L 282.306549 138.068845 
L 283.39235 141.360544 
L 284.478151 142.422383 
L 285.563953 140.40489 
L 286.649754 146.351185 
L 287.735555 143.802773 
L 288.821356 136.900823 
L 289.907157 143.16567 
L 290.992958 139.130683 
L 292.07876 140.298706 
L 293.164561 141.041993 
L 294.250362 144.970795 
L 295.336163 138.068845 
L 296.421964 143.696589 
L 297.507765 136.900823 
L 298.593566 133.078204 
L 299.679368 138.175029 
L 300.765169 138.812132 
L 301.85097 136.900823 
L 302.936771 135.414249 
L 304.022572 135.7328 
L 305.108373 136.794639 
L 306.194175 130.954527 
L 307.279976 133.609123 
L 308.365777 134.564778 
L 309.451578 133.078204 
L 310.537379 139.555419 
L 311.62318 132.759652 
L 312.708981 131.166894 
L 313.794783 133.078204 
L 314.880584 129.361769 
L 315.966385 133.502939 
L 317.052186 131.379262 
L 318.137987 132.016365 
L 319.223788 133.078204 
L 320.30959 128.937034 
L 321.395391 134.033858 
L 322.481192 133.078204 
L 323.566993 128.618482 
L 324.652794 126.813356 
L 325.738595 133.927675 
L 326.824396 132.547285 
L 327.910198 128.724666 
L 328.995999 128.724666 
L 330.0818 126.707173 
L 331.167601 127.769011 
L 332.253402 128.087563 
L 333.339203 128.087563 
L 334.425005 125.751518 
L 335.510806 124.583496 
L 336.596607 125.751518 
L 337.682408 123.096922 
L 338.768209 121.39798 
L 339.85401 126.600989 
L 340.939811 122.141267 
L 342.025613 125.326783 
L 343.111414 121.928899 
L 344.197215 123.734025 
L 345.283016 124.371128 
L 346.368817 120.654693 
L 347.454618 121.716532 
L 348.54042 118.743384 
L 349.626221 119.486671 
L 350.712022 120.548509 
L 351.797823 118.6372 
L 352.883624 123.415473 
L 353.969425 120.973245 
L 355.055227 117.044442 
L 356.141028 119.380487 
L 357.226829 119.805222 
L 359.398431 118.212464 
L 360.484232 115.664052 
L 361.570033 115.451684 
L 362.655835 117.150626 
L 363.741636 115.133133 
L 364.827437 113.540375 
L 365.913238 117.25681 
L 366.999039 114.071294 
L 368.08484 116.513523 
L 369.170642 115.982603 
L 370.256443 121.928899 
L 371.342244 115.982603 
L 373.513846 120.01759 
L 374.599647 120.123774 
L 375.685448 119.168119 
L 376.77125 121.716532 
L 377.857051 117.893913 
L 378.942852 122.141267 
L 380.028653 119.380487 
L 381.114454 123.840209 
L 382.200255 119.592854 
L 383.286057 119.274303 
L 384.371858 118.106281 
L 385.457659 121.928899 
L 386.54346 116.72589 
L 387.629261 118.743384 
L 388.715062 118.424832 
L 389.800863 123.840209 
L 390.886665 116.619707 
L 391.972466 116.832074 
L 393.058267 122.459818 
L 394.144068 119.592854 
L 395.229869 115.87642 
L 396.31567 115.451684 
L 397.401472 121.928899 
L 398.487273 121.291796 
L 398.487273 121.291796 
" clip-path="url(#pf2100412ed)" style="fill: none; stroke: #2ca02c; stroke-width: 1.5; stroke-linecap: square"/>
   </g>
   <g id="line2d_22">
    <path d="M 368.08484 67.571261 
L 369.170642 67.448088 
L 370.256443 68.587441 
L 371.342244 67.509674 
L 372.428045 67.971574 
L 373.513846 70.096313 
L 374.599647 70.896939 
L 375.685448 69.357274 
L 376.77125 69.942347 
L 377.857051 68.741407 
L 378.942852 70.373453 
L 380.028653 69.203307 
L 381.114454 70.558213 
L 382.200255 69.757587 
L 383.286057 70.34266 
L 384.371858 68.987754 
L 385.457659 71.451219 
L 386.54346 69.110927 
L 388.715062 70.6198 
L 389.800863 69.819173 
L 390.886665 71.389632 
L 391.972466 74.161031 
L 393.058267 68.587441 
L 394.144068 73.452785 
L 395.229869 75.054037 
L 396.31567 72.467399 
L 397.401472 72.190259 
L 398.487273 71.574392 
L 398.487273 71.574392 
" clip-path="url(#pf2100412ed)" style="fill: none; stroke: #d62728; stroke-width: 1.5; stroke-linecap: square"/>
   </g>
   <g id="line2d_23">
    <path d="M 368.08484 115.133133 
L 369.170642 115.026949 
L 370.256443 116.088787 
L 371.342244 116.619707 
L 372.428045 115.133133 
L 373.513846 118.212464 
L 374.599647 118.743384 
L 375.685448 116.832074 
L 376.77125 115.557868 
L 377.857051 116.407339 
L 378.942852 116.619707 
L 380.028653 117.469177 
L 381.114454 116.832074 
L 382.200255 117.469177 
L 383.286057 116.301155 
L 384.371858 114.920765 
L 385.457659 118.106281 
L 386.54346 113.009456 
L 387.629261 117.681545 
L 388.715062 117.893913 
L 389.800863 115.557868 
L 390.886665 117.044442 
L 391.972466 121.185612 
L 393.058267 116.088787 
L 394.144068 120.654693 
L 395.229869 122.566002 
L 396.31567 120.548509 
L 397.401472 122.990738 
L 398.487273 118.212464 
L 398.487273 118.212464 
" clip-path="url(#pf2100412ed)" style="fill: none; stroke: #9467bd; stroke-width: 1.5; stroke-linecap: square"/>
   </g>
   <g id="patch_3">
    <path d="M 57.6 307.584 
L 57.6 41.472 
" style="fill: none; stroke: #000000; stroke-width: 0.8; stroke-linejoin: miter; stroke-linecap: square"/>
   </g>
   <g id="patch_4">
    <path d="M 414.72 307.584 
L 414.72 41.472 
" style="fill: none; stroke: #000000; stroke-width: 0.8; stroke-linejoin: miter; stroke-linecap: square"/>
   </g>
   <g id="patch_5">
    <path d="M 57.6 307.584 
L 414.72 307.584 
" style="fill: none; stroke: #000000; stroke-width: 0.8; stroke-linejoin: miter; stroke-linecap: square"/>
   </g>
   <g id="patch_6">
    <path d="M 57.6 41.472 
L 414.72 41.472 
" style="fill: none; stroke: #000000; stroke-width: 0.8; stroke-linejoin: miter; stroke-linecap: square"/>
   </g>
   <g id="text_21">
    <!-- Learning Curves -->
    <g transform="translate(187.37625 35.472) scale(0.12 -0.12)">
     <defs>
      <path id="DejaVuSans-4c" d="M 628 4666 
L 1259 4666 
L 1259 531 
L 3531 531 
L 3531 0 
L 628 0 
L 628 4666 
z
" transform="scale(0.015625)"/>
      <path id="DejaVuSans-65" d="M 3597 1894 
L 3597 1613 
L 953 1613 
Q 991 1019 1311 708 
Q 1631 397 2203 397 
Q 2534 397 2845 478 
Q 3156 559 3463 722 
L 3463 178 
Q 3153 47 2828 -22 
Q 2503 -91 2169 -91 
Q 1331 -91 842 396 
Q 353 884 353 1716 
Q 353 2575 817 3079 
Q 1281 3584 2069 3584 
Q 2775 3584 3186 3129 
Q 3597 2675 3597 1894 
z
M 3022 2063 
Q 3016 2534 2758 2815 
Q 2500 3097 2075 3097 
Q 1594 3097 1305 2825 
Q 1016 2553 972 2059 
L 3022 2063 
z
" transform="scale(0.015625)"/>
      <path id="DejaVuSans-6e" d="M 3513 2113 
L 3513 0 
L 2938 0 
L 2938 2094 
Q 2938 2591 2744 2837 
Q 2550 3084 2163 3084 
Q 1697 3084 1428 2787 
Q 1159 2491 1159 1978 
L 1159 0 
L 581 0 
L 581 3500 
L 1159 3500 
L 1159 2956 
Q 1366 3272 1645 3428 
Q 1925 3584 2291 3584 
Q 2894 3584 3203 3211 
Q 3513 2838 3513 2113 
z
" transform="scale(0.015625)"/>
      <path id="DejaVuSans-69" d="M 603 3500 
L 1178 3500 
L 1178 0 
L 603 0 
L 603 3500 
z
M 603 4863 
L 1178 4863 
L 1178 4134 
L 603 4134 
L 603 4863 
z
" transform="scale(0.015625)"/>
      <path id="DejaVuSans-67" d="M 2906 1791 
Q 2906 2416 2648 2759 
Q 2391 3103 1925 3103 
Q 1463 3103 1205 2759 
Q 947 2416 947 1791 
Q 947 1169 1205 825 
Q 1463 481 1925 481 
Q 2391 481 2648 825 
Q 2906 1169 2906 1791 
z
M 3481 434 
Q 3481 -459 3084 -895 
Q 2688 -1331 1869 -1331 
Q 1566 -1331 1297 -1286 
Q 1028 -1241 775 -1147 
L 775 -588 
Q 1028 -725 1275 -790 
Q 1522 -856 1778 -856 
Q 2344 -856 2625 -561 
Q 2906 -266 2906 331 
L 2906 616 
Q 2728 306 2450 153 
Q 2172 0 1784 0 
Q 1141 0 747 490 
Q 353 981 353 1791 
Q 353 2603 747 3093 
Q 1141 3584 1784 3584 
Q 2172 3584 2450 3431 
Q 2728 3278 2906 2969 
L 2906 3500 
L 3481 3500 
L 3481 434 
z
" transform="scale(0.015625)"/>
      <path id="DejaVuSans-20" transform="scale(0.015625)"/>
      <path id="DejaVuSans-43" d="M 4122 4306 
L 4122 3641 
Q 3803 3938 3442 4084 
Q 3081 4231 2675 4231 
Q 1875 4231 1450 3742 
Q 1025 3253 1025 2328 
Q 1025 1406 1450 917 
Q 1875 428 2675 428 
Q 3081 428 3442 575 
Q 3803 722 4122 1019 
L 4122 359 
Q 3791 134 3420 21 
Q 3050 -91 2638 -91 
Q 1578 -91 968 557 
Q 359 1206 359 2328 
Q 359 3453 968 4101 
Q 1578 4750 2638 4750 
Q 3056 4750 3426 4639 
Q 3797 4528 4122 4306 
z
" transform="scale(0.015625)"/>
      <path id="DejaVuSans-76" d="M 191 3500 
L 800 3500 
L 1894 563 
L 2988 3500 
L 3597 3500 
L 2284 0 
L 1503 0 
L 191 3500 
z
" transform="scale(0.015625)"/>
     </defs>
     <use xlink:href="#DejaVuSans-4c"/>
     <use xlink:href="#DejaVuSans-65" x="53.962891"/>
     <use xlink:href="#DejaVuSans-61" x="115.486328"/>
     <use xlink:href="#DejaVuSans-72" x="176.765625"/>
     <use xlink:href="#DejaVuSans-6e" x="216.128906"/>
     <use xlink:href="#DejaVuSans-69" x="279.507812"/>
     <use xlink:href="#DejaVuSans-6e" x="307.291016"/>
     <use xlink:href="#DejaVuSans-67" x="370.669922"/>
     <use xlink:href="#DejaVuSans-20" x="434.146484"/>
     <use xlink:href="#DejaVuSans-43" x="465.933594"/>
     <use xlink:href="#DejaVuSans-75" x="535.757812"/>
     <use xlink:href="#DejaVuSans-72" x="599.136719"/>
     <use xlink:href="#DejaVuSans-76" x="640.25"/>
     <use xlink:href="#DejaVuSans-65" x="699.429688"/>
     <use xlink:href="#DejaVuSans-73" x="760.953125"/>
    </g>
   </g>
   <g id="legend_1">
    <g id="patch_7">
     <path d="M 214.18875 302.584 
L 407.72 302.584 
Q 409.72 302.584 409.72 300.584 
L 409.72 228.193375 
Q 409.72 226.193375 407.72 226.193375 
L 214.18875 226.193375 
Q 212.18875 226.193375 212.18875 228.193375 
L 212.18875 300.584 
Q 212.18875 302.584 214.18875 302.584 
z
" style="fill: #ffffff; opacity: 0.8; stroke: #cccccc; stroke-linejoin: miter"/>
    </g>
    <g id="line2d_24">
     <path d="M 216.18875 234.291812 
L 226.18875 234.291812 
L 236.18875 234.291812 
" style="fill: none; stroke: #1f77b4; stroke-width: 1.5; stroke-linecap: square"/>
    </g>
    <g id="text_22">
     <!-- Train Accuracy -->
     <g transform="translate(244.18875 237.791812) scale(0.1 -0.1)">
      <defs>
       <path id="DejaVuSans-54" d="M -19 4666 
L 3928 4666 
L 3928 4134 
L 2272 4134 
L 2272 0 
L 1638 0 
L 1638 4134 
L -19 4134 
L -19 4666 
z
" transform="scale(0.015625)"/>
      </defs>
      <use xlink:href="#DejaVuSans-54"/>
      <use xlink:href="#DejaVuSans-72" x="46.333984"/>
      <use xlink:href="#DejaVuSans-61" x="87.447266"/>
      <use xlink:href="#DejaVuSans-69" x="148.726562"/>
      <use xlink:href="#DejaVuSans-6e" x="176.509766"/>
      <use xlink:href="#DejaVuSans-20" x="239.888672"/>
      <use xlink:href="#DejaVuSans-41" x="271.675781"/>
      <use xlink:href="#DejaVuSans-63" x="338.333984"/>
      <use xlink:href="#DejaVuSans-63" x="393.314453"/>
      <use xlink:href="#DejaVuSans-75" x="448.294922"/>
      <use xlink:href="#DejaVuSans-72" x="511.673828"/>
      <use xlink:href="#DejaVuSans-61" x="552.787109"/>
      <use xlink:href="#DejaVuSans-63" x="614.066406"/>
      <use xlink:href="#DejaVuSans-79" x="669.046875"/>
     </g>
    </g>
    <g id="line2d_25">
     <path d="M 216.18875 248.969937 
L 226.18875 248.969937 
L 236.18875 248.969937 
" style="fill: none; stroke: #ff7f0e; stroke-width: 1.5; stroke-linecap: square"/>
    </g>
    <g id="text_23">
     <!-- Validation Accuracy -->
     <g transform="translate(244.18875 252.469937) scale(0.1 -0.1)">
      <defs>
       <path id="DejaVuSans-56" d="M 1831 0 
L 50 4666 
L 709 4666 
L 2188 738 
L 3669 4666 
L 4325 4666 
L 2547 0 
L 1831 0 
z
" transform="scale(0.015625)"/>
       <path id="DejaVuSans-6c" d="M 603 4863 
L 1178 4863 
L 1178 0 
L 603 0 
L 603 4863 
z
" transform="scale(0.015625)"/>
       <path id="DejaVuSans-64" d="M 2906 2969 
L 2906 4863 
L 3481 4863 
L 3481 0 
L 2906 0 
L 2906 525 
Q 2725 213 2448 61 
Q 2172 -91 1784 -91 
Q 1150 -91 751 415 
Q 353 922 353 1747 
Q 353 2572 751 3078 
Q 1150 3584 1784 3584 
Q 2172 3584 2448 3432 
Q 2725 3281 2906 2969 
z
M 947 1747 
Q 947 1113 1208 752 
Q 1469 391 1925 391 
Q 2381 391 2643 752 
Q 2906 1113 2906 1747 
Q 2906 2381 2643 2742 
Q 2381 3103 1925 3103 
Q 1469 3103 1208 2742 
Q 947 2381 947 1747 
z
" transform="scale(0.015625)"/>
       <path id="DejaVuSans-74" d="M 1172 4494 
L 1172 3500 
L 2356 3500 
L 2356 3053 
L 1172 3053 
L 1172 1153 
Q 1172 725 1289 603 
Q 1406 481 1766 481 
L 2356 481 
L 2356 0 
L 1766 0 
Q 1100 0 847 248 
Q 594 497 594 1153 
L 594 3053 
L 172 3053 
L 172 3500 
L 594 3500 
L 594 4494 
L 1172 4494 
z
" transform="scale(0.015625)"/>
      </defs>
      <use xlink:href="#DejaVuSans-56"/>
      <use xlink:href="#DejaVuSans-61" x="60.658203"/>
      <use xlink:href="#DejaVuSans-6c" x="121.9375"/>
      <use xlink:href="#DejaVuSans-69" x="149.720703"/>
      <use xlink:href="#DejaVuSans-64" x="177.503906"/>
      <use xlink:href="#DejaVuSans-61" x="240.980469"/>
      <use xlink:href="#DejaVuSans-74" x="302.259766"/>
      <use xlink:href="#DejaVuSans-69" x="341.46875"/>
      <use xlink:href="#DejaVuSans-6f" x="369.251953"/>
      <use xlink:href="#DejaVuSans-6e" x="430.433594"/>
      <use xlink:href="#DejaVuSans-20" x="493.8125"/>
      <use xlink:href="#DejaVuSans-41" x="525.599609"/>
      <use xlink:href="#DejaVuSans-63" x="592.257812"/>
      <use xlink:href="#DejaVuSans-63" x="647.238281"/>
      <use xlink:href="#DejaVuSans-75" x="702.21875"/>
      <use xlink:href="#DejaVuSans-72" x="765.597656"/>
      <use xlink:href="#DejaVuSans-61" x="806.710938"/>
      <use xlink:href="#DejaVuSans-63" x="867.990234"/>
      <use xlink:href="#DejaVuSans-79" x="922.970703"/>
     </g>
    </g>
    <g id="line2d_26">
     <path d="M 216.18875 263.648062 
L 226.18875 263.648062 
L 236.18875 263.648062 
" style="fill: none; stroke: #2ca02c; stroke-width: 1.5; stroke-linecap: square"/>
    </g>
    <g id="text_24">
     <!-- Robust Validation Accuracy -->
     <g transform="translate(244.18875 267.148062) scale(0.1 -0.1)">
      <defs>
       <path id="DejaVuSans-52" d="M 2841 2188 
Q 3044 2119 3236 1894 
Q 3428 1669 3622 1275 
L 4263 0 
L 3584 0 
L 2988 1197 
Q 2756 1666 2539 1819 
Q 2322 1972 1947 1972 
L 1259 1972 
L 1259 0 
L 628 0 
L 628 4666 
L 2053 4666 
Q 2853 4666 3247 4331 
Q 3641 3997 3641 3322 
Q 3641 2881 3436 2590 
Q 3231 2300 2841 2188 
z
M 1259 4147 
L 1259 2491 
L 2053 2491 
Q 2509 2491 2742 2702 
Q 2975 2913 2975 3322 
Q 2975 3731 2742 3939 
Q 2509 4147 2053 4147 
L 1259 4147 
z
" transform="scale(0.015625)"/>
       <path id="DejaVuSans-62" d="M 3116 1747 
Q 3116 2381 2855 2742 
Q 2594 3103 2138 3103 
Q 1681 3103 1420 2742 
Q 1159 2381 1159 1747 
Q 1159 1113 1420 752 
Q 1681 391 2138 391 
Q 2594 391 2855 752 
Q 3116 1113 3116 1747 
z
M 1159 2969 
Q 1341 3281 1617 3432 
Q 1894 3584 2278 3584 
Q 2916 3584 3314 3078 
Q 3713 2572 3713 1747 
Q 3713 922 3314 415 
Q 2916 -91 2278 -91 
Q 1894 -91 1617 61 
Q 1341 213 1159 525 
L 1159 0 
L 581 0 
L 581 4863 
L 1159 4863 
L 1159 2969 
z
" transform="scale(0.015625)"/>
      </defs>
      <use xlink:href="#DejaVuSans-52"/>
      <use xlink:href="#DejaVuSans-6f" x="64.982422"/>
      <use xlink:href="#DejaVuSans-62" x="126.164062"/>
      <use xlink:href="#DejaVuSans-75" x="189.640625"/>
      <use xlink:href="#DejaVuSans-73" x="253.019531"/>
      <use xlink:href="#DejaVuSans-74" x="305.119141"/>
      <use xlink:href="#DejaVuSans-20" x="344.328125"/>
      <use xlink:href="#DejaVuSans-56" x="376.115234"/>
      <use xlink:href="#DejaVuSans-61" x="436.773438"/>
      <use xlink:href="#DejaVuSans-6c" x="498.052734"/>
      <use xlink:href="#DejaVuSans-69" x="525.835938"/>
      <use xlink:href="#DejaVuSans-64" x="553.619141"/>
      <use xlink:href="#DejaVuSans-61" x="617.095703"/>
      <use xlink:href="#DejaVuSans-74" x="678.375"/>
      <use xlink:href="#DejaVuSans-69" x="717.583984"/>
      <use xlink:href="#DejaVuSans-6f" x="745.367188"/>
      <use xlink:href="#DejaVuSans-6e" x="806.548828"/>
      <use xlink:href="#DejaVuSans-20" x="869.927734"/>
      <use xlink:href="#DejaVuSans-41" x="901.714844"/>
      <use xlink:href="#DejaVuSans-63" x="968.373047"/>
      <use xlink:href="#DejaVuSans-63" x="1023.353516"/>
      <use xlink:href="#DejaVuSans-75" x="1078.333984"/>
      <use xlink:href="#DejaVuSans-72" x="1141.712891"/>
      <use xlink:href="#DejaVuSans-61" x="1182.826172"/>
      <use xlink:href="#DejaVuSans-63" x="1244.105469"/>
      <use xlink:href="#DejaVuSans-79" x="1299.085938"/>
     </g>
    </g>
    <g id="line2d_27">
     <path d="M 216.18875 278.326188 
L 226.18875 278.326188 
L 236.18875 278.326188 
" style="fill: none; stroke: #d62728; stroke-width: 1.5; stroke-linecap: square"/>
    </g>
    <g id="text_25">
     <!-- SWA Validation Accuracy -->
     <g transform="translate(244.18875 281.826188) scale(0.1 -0.1)">
      <defs>
       <path id="DejaVuSans-53" d="M 3425 4513 
L 3425 3897 
Q 3066 4069 2747 4153 
Q 2428 4238 2131 4238 
Q 1616 4238 1336 4038 
Q 1056 3838 1056 3469 
Q 1056 3159 1242 3001 
Q 1428 2844 1947 2747 
L 2328 2669 
Q 3034 2534 3370 2195 
Q 3706 1856 3706 1288 
Q 3706 609 3251 259 
Q 2797 -91 1919 -91 
Q 1588 -91 1214 -16 
Q 841 59 441 206 
L 441 856 
Q 825 641 1194 531 
Q 1563 422 1919 422 
Q 2459 422 2753 634 
Q 3047 847 3047 1241 
Q 3047 1584 2836 1778 
Q 2625 1972 2144 2069 
L 1759 2144 
Q 1053 2284 737 2584 
Q 422 2884 422 3419 
Q 422 4038 858 4394 
Q 1294 4750 2059 4750 
Q 2388 4750 2728 4690 
Q 3069 4631 3425 4513 
z
" transform="scale(0.015625)"/>
       <path id="DejaVuSans-57" d="M 213 4666 
L 850 4666 
L 1831 722 
L 2809 4666 
L 3519 4666 
L 4500 722 
L 5478 4666 
L 6119 4666 
L 4947 0 
L 4153 0 
L 3169 4050 
L 2175 0 
L 1381 0 
L 213 4666 
z
" transform="scale(0.015625)"/>
      </defs>
      <use xlink:href="#DejaVuSans-53"/>
      <use xlink:href="#DejaVuSans-57" x="63.476562"/>
      <use xlink:href="#DejaVuSans-41" x="156.853516"/>
      <use xlink:href="#DejaVuSans-20" x="225.261719"/>
      <use xlink:href="#DejaVuSans-56" x="257.048828"/>
      <use xlink:href="#DejaVuSans-61" x="317.707031"/>
      <use xlink:href="#DejaVuSans-6c" x="378.986328"/>
      <use xlink:href="#DejaVuSans-69" x="406.769531"/>
      <use xlink:href="#DejaVuSans-64" x="434.552734"/>
      <use xlink:href="#DejaVuSans-61" x="498.029297"/>
      <use xlink:href="#DejaVuSans-74" x="559.308594"/>
      <use xlink:href="#DejaVuSans-69" x="598.517578"/>
      <use xlink:href="#DejaVuSans-6f" x="626.300781"/>
      <use xlink:href="#DejaVuSans-6e" x="687.482422"/>
      <use xlink:href="#DejaVuSans-20" x="750.861328"/>
      <use xlink:href="#DejaVuSans-41" x="782.648438"/>
      <use xlink:href="#DejaVuSans-63" x="849.306641"/>
      <use xlink:href="#DejaVuSans-63" x="904.287109"/>
      <use xlink:href="#DejaVuSans-75" x="959.267578"/>
      <use xlink:href="#DejaVuSans-72" x="1022.646484"/>
      <use xlink:href="#DejaVuSans-61" x="1063.759766"/>
      <use xlink:href="#DejaVuSans-63" x="1125.039062"/>
      <use xlink:href="#DejaVuSans-79" x="1180.019531"/>
     </g>
    </g>
    <g id="line2d_28">
     <path d="M 216.18875 293.004312 
L 226.18875 293.004312 
L 236.18875 293.004312 
" style="fill: none; stroke: #9467bd; stroke-width: 1.5; stroke-linecap: square"/>
    </g>
    <g id="text_26">
     <!-- SWA Robust Validation Accuracy -->
     <g transform="translate(244.18875 296.504312) scale(0.1 -0.1)">
      <use xlink:href="#DejaVuSans-53"/>
      <use xlink:href="#DejaVuSans-57" x="63.476562"/>
      <use xlink:href="#DejaVuSans-41" x="156.853516"/>
      <use xlink:href="#DejaVuSans-20" x="225.261719"/>
      <use xlink:href="#DejaVuSans-52" x="257.048828"/>
      <use xlink:href="#DejaVuSans-6f" x="322.03125"/>
      <use xlink:href="#DejaVuSans-62" x="383.212891"/>
      <use xlink:href="#DejaVuSans-75" x="446.689453"/>
      <use xlink:href="#DejaVuSans-73" x="510.068359"/>
      <use xlink:href="#DejaVuSans-74" x="562.167969"/>
      <use xlink:href="#DejaVuSans-20" x="601.376953"/>
      <use xlink:href="#DejaVuSans-56" x="633.164062"/>
      <use xlink:href="#DejaVuSans-61" x="693.822266"/>
      <use xlink:href="#DejaVuSans-6c" x="755.101562"/>
      <use xlink:href="#DejaVuSans-69" x="782.884766"/>
      <use xlink:href="#DejaVuSans-64" x="810.667969"/>
      <use xlink:href="#DejaVuSans-61" x="874.144531"/>
      <use xlink:href="#DejaVuSans-74" x="935.423828"/>
      <use xlink:href="#DejaVuSans-69" x="974.632812"/>
      <use xlink:href="#DejaVuSans-6f" x="1002.416016"/>
      <use xlink:href="#DejaVuSans-6e" x="1063.597656"/>
      <use xlink:href="#DejaVuSans-20" x="1126.976562"/>
      <use xlink:href="#DejaVuSans-41" x="1158.763672"/>
      <use xlink:href="#DejaVuSans-63" x="1225.421875"/>
      <use xlink:href="#DejaVuSans-63" x="1280.402344"/>
      <use xlink:href="#DejaVuSans-75" x="1335.382812"/>
      <use xlink:href="#DejaVuSans-72" x="1398.761719"/>
      <use xlink:href="#DejaVuSans-61" x="1439.875"/>
      <use xlink:href="#DejaVuSans-63" x="1501.154297"/>
      <use xlink:href="#DejaVuSans-79" x="1556.134766"/>
     </g>
    </g>
   </g>
  </g>
 </g>
 <defs>
  <clipPath id="pf2100412ed">
   <rect x="57.6" y="41.472" width="357.12" height="266.112"/>
  </clipPath>
 </defs>
</svg>
