<?xml version="1.0" encoding="utf-8" standalone="no"?>
<!DOCTYPE svg PUBLIC "-//W3C//DTD SVG 1.1//EN"
  "http://www.w3.org/Graphics/SVG/1.1/DTD/svg11.dtd">
<svg xmlns:xlink="http://www.w3.org/1999/xlink" width="460.8pt" height="345.6pt" viewBox="0 0 460.8 345.6" xmlns="http://www.w3.org/2000/svg" version="1.1">
 <metadata>
  <rdf:RDF xmlns:dc="http://purl.org/dc/elements/1.1/" xmlns:cc="http://creativecommons.org/ns#" xmlns:rdf="http://www.w3.org/1999/02/22-rdf-syntax-ns#">
   <cc:Work>
    <dc:type rdf:resource="http://purl.org/dc/dcmitype/StillImage"/>
    <dc:date>2025-07-21T16:47:20.767802</dc:date>
    <dc:format>image/svg+xml</dc:format>
    <dc:creator>
     <cc:Agent>
      <dc:title>Matplotlib v3.9.1, https://matplotlib.org/</dc:title>
     </cc:Agent>
    </dc:creator>
   </cc:Work>
  </rdf:RDF>
 </metadata>
 <defs>
  <style type="text/css">*{stroke-linejoin: round; stroke-linecap: butt}</style>
 </defs>
 <g id="figure_1">
  <g id="patch_1">
   <path d="M 0 345.6 
L 460.8 345.6 
L 460.8 0 
L 0 0 
z
" style="fill: #ffffff"/>
  </g>
  <g id="axes_1">
   <g id="patch_2">
    <path d="M 57.6 307.584 
L 414.72 307.584 
L 414.72 41.472 
L 57.6 41.472 
z
" style="fill: #ffffff"/>
   </g>
   <g id="matplotlib.axis_1">
    <g id="xtick_1">
     <g id="line2d_1">
      <defs>
       <path id="mab63928c36" d="M 0 0 
L 0 3.5 
" style="stroke: #000000; stroke-width: 0.8"/>
      </defs>
      <g>
       <use xlink:href="#mab63928c36" x="73.832727" y="307.584" style="stroke: #000000; stroke-width: 0.8"/>
      </g>
     </g>
     <g id="text_1">
      <!-- 1 -->
      <g transform="translate(70.651477 322.182437) scale(0.1 -0.1)">
       <defs>
        <path id="DejaVuSans-31" d="M 794 531 
L 1825 531 
L 1825 4091 
L 703 3866 
L 703 4441 
L 1819 4666 
L 2450 4666 
L 2450 531 
L 3481 531 
L 3481 0 
L 794 0 
L 794 531 
z
" transform="scale(0.015625)"/>
       </defs>
       <use xlink:href="#DejaVuSans-31"/>
      </g>
     </g>
    </g>
    <g id="xtick_2">
     <g id="line2d_2">
      <g>
       <use xlink:href="#mab63928c36" x="109.411308" y="307.584" style="stroke: #000000; stroke-width: 0.8"/>
      </g>
     </g>
     <g id="text_2">
      <!-- 57 -->
      <g transform="translate(103.048808 322.182437) scale(0.1 -0.1)">
       <defs>
        <path id="DejaVuSans-35" d="M 691 4666 
L 3169 4666 
L 3169 4134 
L 1269 4134 
L 1269 2991 
Q 1406 3038 1543 3061 
Q 1681 3084 1819 3084 
Q 2600 3084 3056 2656 
Q 3513 2228 3513 1497 
Q 3513 744 3044 326 
Q 2575 -91 1722 -91 
Q 1428 -91 1123 -41 
Q 819 9 494 109 
L 494 744 
Q 775 591 1075 516 
Q 1375 441 1709 441 
Q 2250 441 2565 725 
Q 2881 1009 2881 1497 
Q 2881 1984 2565 2268 
Q 2250 2553 1709 2553 
Q 1456 2553 1204 2497 
Q 953 2441 691 2322 
L 691 4666 
z
" transform="scale(0.015625)"/>
        <path id="DejaVuSans-37" d="M 525 4666 
L 3525 4666 
L 3525 4397 
L 1831 0 
L 1172 0 
L 2766 4134 
L 525 4134 
L 525 4666 
z
" transform="scale(0.015625)"/>
       </defs>
       <use xlink:href="#DejaVuSans-35"/>
       <use xlink:href="#DejaVuSans-37" x="63.623047"/>
      </g>
     </g>
    </g>
    <g id="xtick_3">
     <g id="line2d_3">
      <g>
       <use xlink:href="#mab63928c36" x="145.62522" y="307.584" style="stroke: #000000; stroke-width: 0.8"/>
      </g>
     </g>
     <g id="text_3">
      <!-- 114 -->
      <g transform="translate(136.08147 322.182437) scale(0.1 -0.1)">
       <defs>
        <path id="DejaVuSans-34" d="M 2419 4116 
L 825 1625 
L 2419 1625 
L 2419 4116 
z
M 2253 4666 
L 3047 4666 
L 3047 1625 
L 3713 1625 
L 3713 1100 
L 3047 1100 
L 3047 0 
L 2419 0 
L 2419 1100 
L 313 1100 
L 313 1709 
L 2253 4666 
z
" transform="scale(0.015625)"/>
       </defs>
       <use xlink:href="#DejaVuSans-31"/>
       <use xlink:href="#DejaVuSans-31" x="63.623047"/>
       <use xlink:href="#DejaVuSans-34" x="127.246094"/>
      </g>
     </g>
    </g>
    <g id="xtick_4">
     <g id="line2d_4">
      <g>
       <use xlink:href="#mab63928c36" x="181.839132" y="307.584" style="stroke: #000000; stroke-width: 0.8"/>
      </g>
     </g>
     <g id="text_4">
      <!-- 171 -->
      <g transform="translate(172.295382 322.182437) scale(0.1 -0.1)">
       <use xlink:href="#DejaVuSans-31"/>
       <use xlink:href="#DejaVuSans-37" x="63.623047"/>
       <use xlink:href="#DejaVuSans-31" x="127.246094"/>
      </g>
     </g>
    </g>
    <g id="xtick_5">
     <g id="line2d_5">
      <g>
       <use xlink:href="#mab63928c36" x="218.053044" y="307.584" style="stroke: #000000; stroke-width: 0.8"/>
      </g>
     </g>
     <g id="text_5">
      <!-- 228 -->
      <g transform="translate(208.509294 322.182437) scale(0.1 -0.1)">
       <defs>
        <path id="DejaVuSans-32" d="M 1228 531 
L 3431 531 
L 3431 0 
L 469 0 
L 469 531 
Q 828 903 1448 1529 
Q 2069 2156 2228 2338 
Q 2531 2678 2651 2914 
Q 2772 3150 2772 3378 
Q 2772 3750 2511 3984 
Q 2250 4219 1831 4219 
Q 1534 4219 1204 4116 
Q 875 4013 500 3803 
L 500 4441 
Q 881 4594 1212 4672 
Q 1544 4750 1819 4750 
Q 2544 4750 2975 4387 
Q 3406 4025 3406 3419 
Q 3406 3131 3298 2873 
Q 3191 2616 2906 2266 
Q 2828 2175 2409 1742 
Q 1991 1309 1228 531 
z
" transform="scale(0.015625)"/>
        <path id="DejaVuSans-38" d="M 2034 2216 
Q 1584 2216 1326 1975 
Q 1069 1734 1069 1313 
Q 1069 891 1326 650 
Q 1584 409 2034 409 
Q 2484 409 2743 651 
Q 3003 894 3003 1313 
Q 3003 1734 2745 1975 
Q 2488 2216 2034 2216 
z
M 1403 2484 
Q 997 2584 770 2862 
Q 544 3141 544 3541 
Q 544 4100 942 4425 
Q 1341 4750 2034 4750 
Q 2731 4750 3128 4425 
Q 3525 4100 3525 3541 
Q 3525 3141 3298 2862 
Q 3072 2584 2669 2484 
Q 3125 2378 3379 2068 
Q 3634 1759 3634 1313 
Q 3634 634 3220 271 
Q 2806 -91 2034 -91 
Q 1263 -91 848 271 
Q 434 634 434 1313 
Q 434 1759 690 2068 
Q 947 2378 1403 2484 
z
M 1172 3481 
Q 1172 3119 1398 2916 
Q 1625 2713 2034 2713 
Q 2441 2713 2670 2916 
Q 2900 3119 2900 3481 
Q 2900 3844 2670 4047 
Q 2441 4250 2034 4250 
Q 1625 4250 1398 4047 
Q 1172 3844 1172 3481 
z
" transform="scale(0.015625)"/>
       </defs>
       <use xlink:href="#DejaVuSans-32"/>
       <use xlink:href="#DejaVuSans-32" x="63.623047"/>
       <use xlink:href="#DejaVuSans-38" x="127.246094"/>
      </g>
     </g>
    </g>
    <g id="xtick_6">
     <g id="line2d_6">
      <g>
       <use xlink:href="#mab63928c36" x="253.631624" y="307.584" style="stroke: #000000; stroke-width: 0.8"/>
      </g>
     </g>
     <g id="text_6">
      <!-- 284 -->
      <g transform="translate(244.087874 322.182437) scale(0.1 -0.1)">
       <use xlink:href="#DejaVuSans-32"/>
       <use xlink:href="#DejaVuSans-38" x="63.623047"/>
       <use xlink:href="#DejaVuSans-34" x="127.246094"/>
      </g>
     </g>
    </g>
    <g id="xtick_7">
     <g id="line2d_7">
      <g>
       <use xlink:href="#mab63928c36" x="289.845536" y="307.584" style="stroke: #000000; stroke-width: 0.8"/>
      </g>
     </g>
     <g id="text_7">
      <!-- 341 -->
      <g transform="translate(280.301786 322.182437) scale(0.1 -0.1)">
       <defs>
        <path id="DejaVuSans-33" d="M 2597 2516 
Q 3050 2419 3304 2112 
Q 3559 1806 3559 1356 
Q 3559 666 3084 287 
Q 2609 -91 1734 -91 
Q 1441 -91 1130 -33 
Q 819 25 488 141 
L 488 750 
Q 750 597 1062 519 
Q 1375 441 1716 441 
Q 2309 441 2620 675 
Q 2931 909 2931 1356 
Q 2931 1769 2642 2001 
Q 2353 2234 1838 2234 
L 1294 2234 
L 1294 2753 
L 1863 2753 
Q 2328 2753 2575 2939 
Q 2822 3125 2822 3475 
Q 2822 3834 2567 4026 
Q 2313 4219 1838 4219 
Q 1578 4219 1281 4162 
Q 984 4106 628 3988 
L 628 4550 
Q 988 4650 1302 4700 
Q 1616 4750 1894 4750 
Q 2613 4750 3031 4423 
Q 3450 4097 3450 3541 
Q 3450 3153 3228 2886 
Q 3006 2619 2597 2516 
z
" transform="scale(0.015625)"/>
       </defs>
       <use xlink:href="#DejaVuSans-33"/>
       <use xlink:href="#DejaVuSans-34" x="63.623047"/>
       <use xlink:href="#DejaVuSans-31" x="127.246094"/>
      </g>
     </g>
    </g>
    <g id="xtick_8">
     <g id="line2d_8">
      <g>
       <use xlink:href="#mab63928c36" x="326.059448" y="307.584" style="stroke: #000000; stroke-width: 0.8"/>
      </g>
     </g>
     <g id="text_8">
      <!-- 398 -->
      <g transform="translate(316.515698 322.182437) scale(0.1 -0.1)">
       <defs>
        <path id="DejaVuSans-39" d="M 703 97 
L 703 672 
Q 941 559 1184 500 
Q 1428 441 1663 441 
Q 2288 441 2617 861 
Q 2947 1281 2994 2138 
Q 2813 1869 2534 1725 
Q 2256 1581 1919 1581 
Q 1219 1581 811 2004 
Q 403 2428 403 3163 
Q 403 3881 828 4315 
Q 1253 4750 1959 4750 
Q 2769 4750 3195 4129 
Q 3622 3509 3622 2328 
Q 3622 1225 3098 567 
Q 2575 -91 1691 -91 
Q 1453 -91 1209 -44 
Q 966 3 703 97 
z
M 1959 2075 
Q 2384 2075 2632 2365 
Q 2881 2656 2881 3163 
Q 2881 3666 2632 3958 
Q 2384 4250 1959 4250 
Q 1534 4250 1286 3958 
Q 1038 3666 1038 3163 
Q 1038 2656 1286 2365 
Q 1534 2075 1959 2075 
z
" transform="scale(0.015625)"/>
       </defs>
       <use xlink:href="#DejaVuSans-33"/>
       <use xlink:href="#DejaVuSans-39" x="63.623047"/>
       <use xlink:href="#DejaVuSans-38" x="127.246094"/>
      </g>
     </g>
    </g>
    <g id="xtick_9">
     <g id="line2d_9">
      <g>
       <use xlink:href="#mab63928c36" x="362.273361" y="307.584" style="stroke: #000000; stroke-width: 0.8"/>
      </g>
     </g>
     <g id="text_9">
      <!-- 455 -->
      <g transform="translate(352.729611 322.182437) scale(0.1 -0.1)">
       <use xlink:href="#DejaVuSans-34"/>
       <use xlink:href="#DejaVuSans-35" x="63.623047"/>
       <use xlink:href="#DejaVuSans-35" x="127.246094"/>
      </g>
     </g>
    </g>
    <g id="xtick_10">
     <g id="line2d_10">
      <g>
       <use xlink:href="#mab63928c36" x="398.487273" y="307.584" style="stroke: #000000; stroke-width: 0.8"/>
      </g>
     </g>
     <g id="text_10">
      <!-- 512 -->
      <g transform="translate(388.943523 322.182437) scale(0.1 -0.1)">
       <use xlink:href="#DejaVuSans-35"/>
       <use xlink:href="#DejaVuSans-31" x="63.623047"/>
       <use xlink:href="#DejaVuSans-32" x="127.246094"/>
      </g>
     </g>
    </g>
    <g id="text_11">
     <!-- Epochs -->
     <g transform="translate(218.244375 335.860562) scale(0.1 -0.1)">
      <defs>
       <path id="DejaVuSans-45" d="M 628 4666 
L 3578 4666 
L 3578 4134 
L 1259 4134 
L 1259 2753 
L 3481 2753 
L 3481 2222 
L 1259 2222 
L 1259 531 
L 3634 531 
L 3634 0 
L 628 0 
L 628 4666 
z
" transform="scale(0.015625)"/>
       <path id="DejaVuSans-70" d="M 1159 525 
L 1159 -1331 
L 581 -1331 
L 581 3500 
L 1159 3500 
L 1159 2969 
Q 1341 3281 1617 3432 
Q 1894 3584 2278 3584 
Q 2916 3584 3314 3078 
Q 3713 2572 3713 1747 
Q 3713 922 3314 415 
Q 2916 -91 2278 -91 
Q 1894 -91 1617 61 
Q 1341 213 1159 525 
z
M 3116 1747 
Q 3116 2381 2855 2742 
Q 2594 3103 2138 3103 
Q 1681 3103 1420 2742 
Q 1159 2381 1159 1747 
Q 1159 1113 1420 752 
Q 1681 391 2138 391 
Q 2594 391 2855 752 
Q 3116 1113 3116 1747 
z
" transform="scale(0.015625)"/>
       <path id="DejaVuSans-6f" d="M 1959 3097 
Q 1497 3097 1228 2736 
Q 959 2375 959 1747 
Q 959 1119 1226 758 
Q 1494 397 1959 397 
Q 2419 397 2687 759 
Q 2956 1122 2956 1747 
Q 2956 2369 2687 2733 
Q 2419 3097 1959 3097 
z
M 1959 3584 
Q 2709 3584 3137 3096 
Q 3566 2609 3566 1747 
Q 3566 888 3137 398 
Q 2709 -91 1959 -91 
Q 1206 -91 779 398 
Q 353 888 353 1747 
Q 353 2609 779 3096 
Q 1206 3584 1959 3584 
z
" transform="scale(0.015625)"/>
       <path id="DejaVuSans-63" d="M 3122 3366 
L 3122 2828 
Q 2878 2963 2633 3030 
Q 2388 3097 2138 3097 
Q 1578 3097 1268 2742 
Q 959 2388 959 1747 
Q 959 1106 1268 751 
Q 1578 397 2138 397 
Q 2388 397 2633 464 
Q 2878 531 3122 666 
L 3122 134 
Q 2881 22 2623 -34 
Q 2366 -91 2075 -91 
Q 1284 -91 818 406 
Q 353 903 353 1747 
Q 353 2603 823 3093 
Q 1294 3584 2113 3584 
Q 2378 3584 2631 3529 
Q 2884 3475 3122 3366 
z
" transform="scale(0.015625)"/>
       <path id="DejaVuSans-68" d="M 3513 2113 
L 3513 0 
L 2938 0 
L 2938 2094 
Q 2938 2591 2744 2837 
Q 2550 3084 2163 3084 
Q 1697 3084 1428 2787 
Q 1159 2491 1159 1978 
L 1159 0 
L 581 0 
L 581 4863 
L 1159 4863 
L 1159 2956 
Q 1366 3272 1645 3428 
Q 1925 3584 2291 3584 
Q 2894 3584 3203 3211 
Q 3513 2838 3513 2113 
z
" transform="scale(0.015625)"/>
       <path id="DejaVuSans-73" d="M 2834 3397 
L 2834 2853 
Q 2591 2978 2328 3040 
Q 2066 3103 1784 3103 
Q 1356 3103 1142 2972 
Q 928 2841 928 2578 
Q 928 2378 1081 2264 
Q 1234 2150 1697 2047 
L 1894 2003 
Q 2506 1872 2764 1633 
Q 3022 1394 3022 966 
Q 3022 478 2636 193 
Q 2250 -91 1575 -91 
Q 1294 -91 989 -36 
Q 684 19 347 128 
L 347 722 
Q 666 556 975 473 
Q 1284 391 1588 391 
Q 1994 391 2212 530 
Q 2431 669 2431 922 
Q 2431 1156 2273 1281 
Q 2116 1406 1581 1522 
L 1381 1569 
Q 847 1681 609 1914 
Q 372 2147 372 2553 
Q 372 3047 722 3315 
Q 1072 3584 1716 3584 
Q 2034 3584 2315 3537 
Q 2597 3491 2834 3397 
z
" transform="scale(0.015625)"/>
      </defs>
      <use xlink:href="#DejaVuSans-45"/>
      <use xlink:href="#DejaVuSans-70" x="63.183594"/>
      <use xlink:href="#DejaVuSans-6f" x="126.660156"/>
      <use xlink:href="#DejaVuSans-63" x="187.841797"/>
      <use xlink:href="#DejaVuSans-68" x="242.822266"/>
      <use xlink:href="#DejaVuSans-73" x="306.201172"/>
     </g>
    </g>
   </g>
   <g id="matplotlib.axis_2">
    <g id="ytick_1">
     <g id="line2d_11">
      <defs>
       <path id="m15fe7c67f0" d="M 0 0 
L -3.5 0 
" style="stroke: #000000; stroke-width: 0.8"/>
      </defs>
      <g>
       <use xlink:href="#m15fe7c67f0" x="57.6" y="284.872632" style="stroke: #000000; stroke-width: 0.8"/>
      </g>
     </g>
     <g id="text_12">
      <!-- 10 -->
      <g transform="translate(37.875 288.671851) scale(0.1 -0.1)">
       <defs>
        <path id="DejaVuSans-30" d="M 2034 4250 
Q 1547 4250 1301 3770 
Q 1056 3291 1056 2328 
Q 1056 1369 1301 889 
Q 1547 409 2034 409 
Q 2525 409 2770 889 
Q 3016 1369 3016 2328 
Q 3016 3291 2770 3770 
Q 2525 4250 2034 4250 
z
M 2034 4750 
Q 2819 4750 3233 4129 
Q 3647 3509 3647 2328 
Q 3647 1150 3233 529 
Q 2819 -91 2034 -91 
Q 1250 -91 836 529 
Q 422 1150 422 2328 
Q 422 3509 836 4129 
Q 1250 4750 2034 4750 
z
" transform="scale(0.015625)"/>
       </defs>
       <use xlink:href="#DejaVuSans-31"/>
       <use xlink:href="#DejaVuSans-30" x="63.623047"/>
      </g>
     </g>
    </g>
    <g id="ytick_2">
     <g id="line2d_12">
      <g>
       <use xlink:href="#m15fe7c67f0" x="57.6" y="252.782644" style="stroke: #000000; stroke-width: 0.8"/>
      </g>
     </g>
     <g id="text_13">
      <!-- 20 -->
      <g transform="translate(37.875 256.581863) scale(0.1 -0.1)">
       <use xlink:href="#DejaVuSans-32"/>
       <use xlink:href="#DejaVuSans-30" x="63.623047"/>
      </g>
     </g>
    </g>
    <g id="ytick_3">
     <g id="line2d_13">
      <g>
       <use xlink:href="#m15fe7c67f0" x="57.6" y="220.692656" style="stroke: #000000; stroke-width: 0.8"/>
      </g>
     </g>
     <g id="text_14">
      <!-- 30 -->
      <g transform="translate(37.875 224.491875) scale(0.1 -0.1)">
       <use xlink:href="#DejaVuSans-33"/>
       <use xlink:href="#DejaVuSans-30" x="63.623047"/>
      </g>
     </g>
    </g>
    <g id="ytick_4">
     <g id="line2d_14">
      <g>
       <use xlink:href="#m15fe7c67f0" x="57.6" y="188.602669" style="stroke: #000000; stroke-width: 0.8"/>
      </g>
     </g>
     <g id="text_15">
      <!-- 40 -->
      <g transform="translate(37.875 192.401887) scale(0.1 -0.1)">
       <use xlink:href="#DejaVuSans-34"/>
       <use xlink:href="#DejaVuSans-30" x="63.623047"/>
      </g>
     </g>
    </g>
    <g id="ytick_5">
     <g id="line2d_15">
      <g>
       <use xlink:href="#m15fe7c67f0" x="57.6" y="156.512681" style="stroke: #000000; stroke-width: 0.8"/>
      </g>
     </g>
     <g id="text_16">
      <!-- 50 -->
      <g transform="translate(37.875 160.3119) scale(0.1 -0.1)">
       <use xlink:href="#DejaVuSans-35"/>
       <use xlink:href="#DejaVuSans-30" x="63.623047"/>
      </g>
     </g>
    </g>
    <g id="ytick_6">
     <g id="line2d_16">
      <g>
       <use xlink:href="#m15fe7c67f0" x="57.6" y="124.422693" style="stroke: #000000; stroke-width: 0.8"/>
      </g>
     </g>
     <g id="text_17">
      <!-- 60 -->
      <g transform="translate(37.875 128.221912) scale(0.1 -0.1)">
       <defs>
        <path id="DejaVuSans-36" d="M 2113 2584 
Q 1688 2584 1439 2293 
Q 1191 2003 1191 1497 
Q 1191 994 1439 701 
Q 1688 409 2113 409 
Q 2538 409 2786 701 
Q 3034 994 3034 1497 
Q 3034 2003 2786 2293 
Q 2538 2584 2113 2584 
z
M 3366 4563 
L 3366 3988 
Q 3128 4100 2886 4159 
Q 2644 4219 2406 4219 
Q 1781 4219 1451 3797 
Q 1122 3375 1075 2522 
Q 1259 2794 1537 2939 
Q 1816 3084 2150 3084 
Q 2853 3084 3261 2657 
Q 3669 2231 3669 1497 
Q 3669 778 3244 343 
Q 2819 -91 2113 -91 
Q 1303 -91 875 529 
Q 447 1150 447 2328 
Q 447 3434 972 4092 
Q 1497 4750 2381 4750 
Q 2619 4750 2861 4703 
Q 3103 4656 3366 4563 
z
" transform="scale(0.015625)"/>
       </defs>
       <use xlink:href="#DejaVuSans-36"/>
       <use xlink:href="#DejaVuSans-30" x="63.623047"/>
      </g>
     </g>
    </g>
    <g id="ytick_7">
     <g id="line2d_17">
      <g>
       <use xlink:href="#m15fe7c67f0" x="57.6" y="92.332705" style="stroke: #000000; stroke-width: 0.8"/>
      </g>
     </g>
     <g id="text_18">
      <!-- 70 -->
      <g transform="translate(37.875 96.131924) scale(0.1 -0.1)">
       <use xlink:href="#DejaVuSans-37"/>
       <use xlink:href="#DejaVuSans-30" x="63.623047"/>
      </g>
     </g>
    </g>
    <g id="ytick_8">
     <g id="line2d_18">
      <g>
       <use xlink:href="#m15fe7c67f0" x="57.6" y="60.242717" style="stroke: #000000; stroke-width: 0.8"/>
      </g>
     </g>
     <g id="text_19">
      <!-- 80 -->
      <g transform="translate(37.875 64.041936) scale(0.1 -0.1)">
       <use xlink:href="#DejaVuSans-38"/>
       <use xlink:href="#DejaVuSans-30" x="63.623047"/>
      </g>
     </g>
    </g>
    <g id="text_20">
     <!-- Accuracy -->
     <g transform="translate(31.795312 197.356125) rotate(-90) scale(0.1 -0.1)">
      <defs>
       <path id="DejaVuSans-41" d="M 2188 4044 
L 1331 1722 
L 3047 1722 
L 2188 4044 
z
M 1831 4666 
L 2547 4666 
L 4325 0 
L 3669 0 
L 3244 1197 
L 1141 1197 
L 716 0 
L 50 0 
L 1831 4666 
z
" transform="scale(0.015625)"/>
       <path id="DejaVuSans-75" d="M 544 1381 
L 544 3500 
L 1119 3500 
L 1119 1403 
Q 1119 906 1312 657 
Q 1506 409 1894 409 
Q 2359 409 2629 706 
Q 2900 1003 2900 1516 
L 2900 3500 
L 3475 3500 
L 3475 0 
L 2900 0 
L 2900 538 
Q 2691 219 2414 64 
Q 2138 -91 1772 -91 
Q 1169 -91 856 284 
Q 544 659 544 1381 
z
M 1991 3584 
L 1991 3584 
z
" transform="scale(0.015625)"/>
       <path id="DejaVuSans-72" d="M 2631 2963 
Q 2534 3019 2420 3045 
Q 2306 3072 2169 3072 
Q 1681 3072 1420 2755 
Q 1159 2438 1159 1844 
L 1159 0 
L 581 0 
L 581 3500 
L 1159 3500 
L 1159 2956 
Q 1341 3275 1631 3429 
Q 1922 3584 2338 3584 
Q 2397 3584 2469 3576 
Q 2541 3569 2628 3553 
L 2631 2963 
z
" transform="scale(0.015625)"/>
       <path id="DejaVuSans-61" d="M 2194 1759 
Q 1497 1759 1228 1600 
Q 959 1441 959 1056 
Q 959 750 1161 570 
Q 1363 391 1709 391 
Q 2188 391 2477 730 
Q 2766 1069 2766 1631 
L 2766 1759 
L 2194 1759 
z
M 3341 1997 
L 3341 0 
L 2766 0 
L 2766 531 
Q 2569 213 2275 61 
Q 1981 -91 1556 -91 
Q 1019 -91 701 211 
Q 384 513 384 1019 
Q 384 1609 779 1909 
Q 1175 2209 1959 2209 
L 2766 2209 
L 2766 2266 
Q 2766 2663 2505 2880 
Q 2244 3097 1772 3097 
Q 1472 3097 1187 3025 
Q 903 2953 641 2809 
L 641 3341 
Q 956 3463 1253 3523 
Q 1550 3584 1831 3584 
Q 2591 3584 2966 3190 
Q 3341 2797 3341 1997 
z
" transform="scale(0.015625)"/>
       <path id="DejaVuSans-79" d="M 2059 -325 
Q 1816 -950 1584 -1140 
Q 1353 -1331 966 -1331 
L 506 -1331 
L 506 -850 
L 844 -850 
Q 1081 -850 1212 -737 
Q 1344 -625 1503 -206 
L 1606 56 
L 191 3500 
L 800 3500 
L 1894 763 
L 2988 3500 
L 3597 3500 
L 2059 -325 
z
" transform="scale(0.015625)"/>
      </defs>
      <use xlink:href="#DejaVuSans-41"/>
      <use xlink:href="#DejaVuSans-63" x="66.658203"/>
      <use xlink:href="#DejaVuSans-63" x="121.638672"/>
      <use xlink:href="#DejaVuSans-75" x="176.619141"/>
      <use xlink:href="#DejaVuSans-72" x="239.998047"/>
      <use xlink:href="#DejaVuSans-61" x="281.111328"/>
      <use xlink:href="#DejaVuSans-63" x="342.390625"/>
      <use xlink:href="#DejaVuSans-79" x="397.371094"/>
     </g>
    </g>
   </g>
   <g id="line2d_19">
    <path d="M 73.832727 295.488 
L 75.738723 226.295568 
L 76.374054 208.081291 
L 77.644718 185.964872 
L 78.28005 176.735791 
L 79.550713 162.603361 
L 80.186045 157.809116 
L 82.092041 147.110314 
L 82.727372 142.438012 
L 83.362704 141.147995 
L 83.998036 136.96346 
L 84.633368 133.703118 
L 85.2687 131.893242 
L 85.904031 129.364551 
L 86.539363 125.603605 
L 87.810027 121.393398 
L 89.08069 117.054832 
L 89.716022 113.640457 
L 90.351354 113.152689 
L 92.257349 106.362448 
L 92.892681 106.58066 
L 93.528013 105.58587 
L 94.798676 100.368038 
L 95.434008 101.767162 
L 96.06934 100.284604 
L 96.704672 100.721028 
L 97.340004 99.321905 
L 97.975335 99.097275 
L 98.610667 98.725031 
L 99.245999 127.907666 
L 99.881331 130.378595 
L 100.516663 130.327251 
L 101.151994 128.838275 
L 101.787326 126.54705 
L 102.422658 125.423901 
L 103.05799 123.569099 
L 103.693321 123.485665 
L 104.328653 121.508922 
L 104.963985 120.392191 
L 105.599317 119.872333 
L 106.234649 118.498881 
L 107.505312 116.759604 
L 108.140644 115.309137 
L 108.775976 113.383737 
L 109.411308 113.743145 
L 110.046639 112.754773 
L 110.681971 111.439084 
L 111.317303 109.565029 
L 111.952635 108.621583 
L 112.587967 108.525313 
L 113.223298 107.273804 
L 113.85863 107.415 
L 115.129294 103.410169 
L 115.764626 103.634799 
L 116.399957 102.640009 
L 117.035289 103.121359 
L 118.305953 99.835344 
L 118.941284 98.885481 
L 119.576616 99.161455 
L 120.211948 97.653225 
L 120.84728 97.871437 
L 121.482612 95.567376 
L 122.117943 96.06798 
L 122.753275 95.098862 
L 123.388607 92.660023 
L 124.659271 91.530456 
L 125.929934 91.684488 
L 126.565266 89.637146 
L 127.200598 88.417727 
L 127.83593 87.974885 
L 128.471261 87.121291 
L 129.106593 86.915915 
L 129.741925 84.579764 
L 130.377257 85.613062 
L 131.012589 85.71575 
L 131.64792 82.455407 
L 132.283252 83.257657 
L 132.918584 81.210315 
L 133.553916 82.128089 
L 134.189247 80.799564 
L 134.824579 78.431323 
L 135.459911 78.482667 
L 136.095243 79.958806 
L 136.730575 78.777894 
L 137.365906 77.192649 
L 138.001238 76.595775 
L 138.63657 76.294129 
L 139.271902 75.093964 
L 139.907234 75.52397 
L 140.542565 73.399612 
L 141.177897 74.054248 
L 141.813229 72.083923 
L 142.448561 72.051833 
L 144.354556 71.037789 
L 144.989888 72.513929 
L 145.62522 71.487049 
L 146.260552 70.710471 
L 146.895883 71.089133 
L 147.531215 70.055836 
L 148.166547 70.864503 
L 148.801879 71.012117 
L 149.43721 69.041792 
L 150.072542 98.487565 
L 150.707874 103.872265 
L 151.343206 103.506439 
L 151.978538 104.032715 
L 152.613869 103.686143 
L 153.249201 104.725859 
L 153.884533 101.45268 
L 154.519865 104.334361 
L 155.155197 102.325527 
L 155.790528 102.242093 
L 156.42586 101.863432 
L 157.061192 101.863432 
L 158.331856 100.188334 
L 158.967187 100.605504 
L 159.602519 99.938032 
L 160.237851 100.316694 
L 161.508514 98.250099 
L 162.143846 99.161455 
L 162.779178 97.723823 
L 163.41451 97.717405 
L 164.049842 97.402923 
L 164.685173 96.318282 
L 165.320505 97.614717 
L 165.955837 95.317074 
L 166.591169 96.363208 
L 167.226501 94.386464 
L 167.861832 96.51724 
L 168.497164 95.81126 
L 169.132496 94.418554 
L 169.767828 93.776755 
L 170.40316 94.598258 
L 171.673823 93.911533 
L 172.309155 92.403303 
L 172.944487 93.590633 
L 173.579819 92.679277 
L 174.21515 92.653605 
L 174.850482 90.368798 
L 175.485814 90.00939 
L 176.121146 90.952836 
L 176.756477 90.84373 
L 177.391809 90.291782 
L 178.027141 90.182676 
L 178.662473 88.321457 
L 179.297805 89.900284 
L 179.933136 88.366383 
L 180.568468 87.487117 
L 181.2038 88.148171 
L 181.839132 86.383222 
L 182.474464 87.962049 
L 183.109795 87.256069 
L 183.745127 87.198307 
L 184.380459 86.344714 
L 185.015791 88.353547 
L 185.651123 86.13292 
L 186.286454 86.781137 
L 186.921786 86.274116 
L 187.557118 85.125294 
L 188.19245 84.444986 
L 188.827782 83.584975 
L 189.463113 83.366763 
L 190.098445 83.893038 
L 190.733777 82.115253 
L 191.369109 84.085578 
L 192.00444 82.526005 
L 192.639772 82.513169 
L 193.275104 81.877787 
L 193.910436 82.063909 
L 194.545768 82.782725 
L 195.181099 81.261659 
L 195.816431 81.056284 
L 196.451763 79.8497 
L 197.087095 79.952388 
L 197.722427 78.777894 
L 198.357758 79.182228 
L 198.99309 79.214318 
L 199.628422 77.654745 
L 200.263754 78.456995 
L 200.899086 79.605816 
L 202.169749 77.295337 
L 202.805081 75.498298 
L 203.440413 75.864124 
L 204.075745 76.024573 
L 204.711076 75.26725 
L 205.346408 75.562478 
L 205.98174 75.344266 
L 206.617072 74.856498 
L 207.252403 74.85008 
L 207.887735 72.199447 
L 208.523067 73.945142 
L 209.158399 73.226327 
L 209.793731 72.899009 
L 210.429062 71.365107 
L 211.064394 72.481839 
L 211.699726 71.929891 
L 212.335058 71.974817 
L 212.97039 70.209868 
L 213.605721 71.031371 
L 214.241053 69.805534 
L 214.876385 69.94673 
L 215.511717 69.105972 
L 216.147049 70.158524 
L 216.78238 67.751775 
L 217.417712 67.206245 
L 218.053044 67.539981 
L 218.688376 68.091928 
L 219.323708 65.999661 
L 219.959039 67.212663 
L 220.594371 66.140857 
L 221.229703 65.896973 
L 221.865035 64.549194 
L 222.500366 64.870094 
L 223.135698 63.329774 
L 223.77103 64.138442 
L 224.406362 63.657092 
L 225.041694 63.554404 
L 225.677025 63.201414 
L 226.312357 63.291266 
L 226.947689 61.783037 
L 227.583021 62.071847 
L 228.218353 62.116773 
L 228.853684 62.431255 
L 229.489016 61.827963 
L 230.124348 61.474973 
L 230.75968 59.5945 
L 231.395012 60.069432 
L 232.030343 60.217045 
L 232.665675 58.843594 
L 233.301007 59.280018 
L 233.936339 59.504648 
L 234.571671 58.43926 
L 235.207002 59.331362 
L 235.842334 59.235092 
L 236.477666 58.56762 
L 237.112998 57.617756 
L 237.748329 58.464932 
L 238.383661 56.366247 
L 239.018993 56.789835 
L 239.654325 56.462517 
L 240.289657 57.296857 
L 240.924988 56.687147 
L 241.56032 56.552369 
L 242.830984 55.750119 
L 243.466316 56.141617 
L 244.101647 55.994003 
L 244.736979 55.448473 
L 245.372311 56.417591 
L 246.007643 54.902943 
L 246.642975 54.947869 
L 247.278306 55.608923 
L 247.913638 54.46652 
L 248.54897 55.692357 
L 249.184302 54.318906 
L 249.819634 56.051765 
L 250.454965 55.236679 
L 251.090297 54.781002 
L 251.725629 89.932374 
L 252.360961 94.662438 
L 252.996292 94.964084 
L 253.631624 94.585422 
L 254.266956 94.649602 
L 254.902288 95.496778 
L 255.53762 94.694528 
L 256.172951 94.84856 
L 256.808283 93.680485 
L 258.078947 93.487945 
L 258.714279 93.712575 
L 259.34961 92.088821 
L 259.984942 93.905115 
L 260.620274 94.110491 
L 261.890938 91.934789 
L 262.526269 92.287779 
L 263.161601 91.697323 
L 263.796933 92.075985 
L 264.432265 91.049106 
L 265.067597 91.158212 
L 265.702928 90.708952 
L 266.33826 91.511202 
L 266.973592 90.84373 
L 267.608924 91.684488 
L 268.244255 89.925956 
L 268.879587 89.374008 
L 269.514919 91.395678 
L 270.150251 90.818058 
L 270.785583 88.693701 
L 271.420914 88.520415 
L 272.056246 89.489532 
L 272.691578 88.751463 
L 273.32691 88.860569 
L 273.962242 89.540876 
L 274.597573 88.058319 
L 275.232905 88.533251 
L 275.868237 88.135335 
L 276.503569 87.416519 
L 277.138901 88.918331 
L 277.774232 87.204725 
L 278.409564 86.870989 
L 279.044896 86.832481 
L 279.680228 87.583387 
L 280.31556 87.557715 
L 281.586223 87.044275 
L 282.221555 86.376804 
L 282.856887 86.588597 
L 283.492218 85.49112 
L 284.12755 86.896661 
L 284.762882 87.018603 
L 285.398214 86.729793 
L 286.033546 87.300995 
L 286.668877 84.65678 
L 287.304209 86.177846 
L 287.939541 85.157384 
L 289.210205 84.637526 
L 289.845536 86.286952 
L 290.480868 85.375596 
L 291.1162 85.632316 
L 291.751532 84.887828 
L 292.386864 84.406478 
L 293.022195 84.900664 
L 293.657527 84.098414 
L 294.292859 83.751843 
L 294.928191 84.091996 
L 295.563523 83.88662 
L 296.198854 83.91871 
L 296.834186 84.759468 
L 297.469518 83.937964 
L 298.740181 83.430943 
L 299.375513 83.430943 
L 300.010845 83.803187 
L 300.646177 83.482287 
L 301.281509 82.692873 
L 301.91684 82.660783 
L 302.552172 81.582559 
L 303.187504 83.533631 
L 303.822836 82.481079 
L 304.458168 82.590185 
L 305.093499 81.345093 
L 305.728831 82.089581 
L 306.364163 81.691665 
L 306.999495 82.416899 
L 307.634827 82.089581 
L 308.270158 81.601813 
L 308.90549 82.519587 
L 310.176154 81.325839 
L 310.811486 81.479871 
L 311.446817 80.574934 
L 312.717481 81.929131 
L 313.352813 80.324632 
L 313.988144 81.646739 
L 314.623476 79.201482 
L 315.258808 80.388812 
L 316.529472 79.811192 
L 317.164803 79.843282 
L 317.800135 79.490292 
L 318.435467 78.463413 
L 319.070799 78.367143 
L 319.706131 78.5661 
L 320.341462 80.247616 
L 320.976794 79.952388 
L 321.612126 77.924301 
L 322.247458 79.220736 
L 322.88279 78.527593 
L 323.518121 78.623862 
L 324.153453 77.712507 
L 324.788785 78.611026 
L 325.424117 77.795941 
L 326.059448 78.283709 
L 326.69478 78.931926 
L 327.330112 76.801151 
L 327.965444 76.923093 
L 329.236107 78.059079 
L 329.871439 76.993691 
L 330.506771 77.526385 
L 331.142103 76.512341 
L 331.777435 76.210695 
L 332.412766 76.807569 
L 333.048098 75.357102 
L 333.68343 76.172187 
L 334.318762 75.870542 
L 334.954094 75.966811 
L 336.224757 76.525177 
L 336.860089 74.805154 
L 337.495421 77.462205 
L 338.130753 73.66275 
L 338.766084 74.663958 
L 339.401416 75.90905 
L 340.036748 74.586942 
L 340.67208 73.957978 
L 341.307411 75.421282 
L 341.942743 73.714094 
L 342.578075 74.298132 
L 343.213407 74.266042 
L 343.848739 75.761436 
L 344.48407 72.674379 
L 345.119402 73.688422 
L 345.754734 72.821993 
L 346.390066 72.655125 
L 347.025398 73.527972 
L 347.660729 72.841247 
L 348.931393 71.955563 
L 349.566725 72.424077 
L 350.202057 71.968399 
L 350.837388 71.673171 
L 352.108052 72.314971 
L 352.743384 71.814367 
L 353.378716 71.570483 
L 354.649379 70.3639 
L 355.284711 71.397197 
L 355.920043 71.942727 
L 356.555374 70.164942 
L 357.190706 72.058251 
L 357.826038 69.362692 
L 359.096702 70.697635 
L 359.732033 69.356274 
L 360.367365 70.023746 
L 361.638029 68.913432 
L 362.908692 66.955943 
L 363.544024 69.856878 
L 364.179356 67.944315 
L 364.814688 68.014913 
L 365.45002 68.688802 
L 366.085351 68.772236 
L 366.720683 67.758193 
L 367.356015 67.982823 
L 367.991347 67.488637 
L 368.626679 66.801911 
L 369.897342 67.142065 
L 370.532674 66.506683 
L 371.168006 66.128021 
L 371.803337 66.949525 
L 372.438669 65.890555 
L 373.074001 66.140857 
L 373.709333 65.13965 
L 374.344665 67.032959 
L 374.979996 64.388744 
L 375.615328 64.523522 
L 376.25066 64.46576 
L 377.521324 65.441295 
L 378.791987 63.804706 
L 379.427319 64.43367 
L 380.062651 63.15007 
L 380.697983 63.933066 
L 381.333314 63.188578 
L 381.968646 63.284848 
L 382.603978 62.867678 
L 383.23931 63.464552 
L 383.874642 62.598123 
L 384.509973 62.591705 
L 385.145305 62.315731 
L 385.780637 61.629005 
L 386.415969 62.418419 
L 387.0513 61.224671 
L 387.686632 61.898561 
L 388.321964 61.096311 
L 388.957296 62.110355 
L 389.592628 62.270805 
L 390.227959 60.608543 
L 390.863291 61.109147 
L 392.133955 59.921818 
L 392.769287 59.72286 
L 394.03995 59.921818 
L 394.675282 58.991208 
L 395.310614 59.042552 
L 395.945946 58.497022 
L 396.581277 59.17733 
L 397.851941 56.674311 
L 398.487273 58.3109 
L 398.487273 58.3109 
" clip-path="url(#pbdf486d855)" style="fill: none; stroke: #1f77b4; stroke-width: 1.5; stroke-linecap: square"/>
   </g>
   <g id="line2d_20">
    <path d="M 73.832727 283.909932 
L 74.468059 254.322964 
L 75.738723 207.952931 
L 76.374054 195.277386 
L 77.009386 177.980883 
L 77.644718 171.370345 
L 78.28005 160.941099 
L 78.915382 162.224699 
L 79.550713 155.838791 
L 80.186045 145.602085 
L 80.821377 145.377455 
L 81.456709 140.467687 
L 82.092041 137.579588 
L 82.727372 133.31162 
L 83.362704 124.743593 
L 83.998036 125.289123 
L 84.633368 123.139094 
L 85.2687 119.833825 
L 85.904031 115.052417 
L 86.539363 114.956147 
L 87.174695 115.373316 
L 87.810027 111.971778 
L 88.445358 110.078469 
L 89.08069 104.430631 
L 89.716022 104.206001 
L 90.351354 101.959702 
L 90.986686 102.826131 
L 92.257349 98.173083 
L 92.892681 98.718613 
L 93.528013 95.252894 
L 94.163345 95.541704 
L 94.798676 94.354374 
L 95.434008 92.557335 
L 96.06934 92.493155 
L 96.704672 92.942415 
L 97.340004 91.755085 
L 97.975335 91.081196 
L 98.610667 91.402096 
L 99.245999 124.294333 
L 99.881331 116.624826 
L 100.516663 126.091372 
L 101.151994 119.352475 
L 101.787326 110.912808 
L 102.422658 114.185987 
L 103.05799 118.261415 
L 103.693321 112.934477 
L 104.328653 108.666509 
L 104.963985 108.923229 
L 105.599317 108.056799 
L 106.234649 103.500021 
L 106.86998 104.687351 
L 107.505312 103.050761 
L 108.140644 107.22246 
L 108.775976 104.173911 
L 109.411308 103.371661 
L 110.046639 102.088062 
L 110.681971 97.980543 
L 111.317303 102.986581 
L 111.952635 98.365623 
L 112.587967 97.659643 
L 113.223298 98.237263 
L 113.85863 96.985753 
L 114.493962 92.172255 
L 115.129294 94.386464 
L 115.764626 93.327495 
L 116.399957 91.273736 
L 117.035289 92.814055 
L 117.670621 92.621515 
L 118.305953 91.466276 
L 118.941284 91.530456 
L 119.576616 87.904287 
L 120.211948 85.625898 
L 120.84728 84.759468 
L 121.482612 86.909497 
L 122.117943 86.299788 
L 122.753275 85.144548 
L 123.388607 82.352719 
L 124.023939 83.219149 
L 124.659271 83.732589 
L 125.294602 83.668409 
L 125.929934 81.03703 
L 126.565266 80.45941 
L 127.200598 82.095999 
L 127.83593 78.95118 
L 128.471261 79.23999 
L 129.106593 77.795941 
L 129.741925 75.806362 
L 130.377257 75.389192 
L 131.012589 74.298132 
L 131.64792 74.843662 
L 132.283252 73.207073 
L 132.918584 74.811572 
L 133.553916 71.377943 
L 134.189247 71.057043 
L 134.824579 71.602573 
L 135.459911 70.543604 
L 136.095243 71.313763 
L 136.730575 71.121223 
L 137.365906 69.516724 
L 138.001238 69.869714 
L 138.63657 68.586114 
L 139.271902 68.682384 
L 140.542565 67.848045 
L 141.177897 67.655505 
L 141.813229 67.013705 
L 143.083893 67.045795 
L 143.719224 66.339815 
L 144.354556 66.436085 
L 144.989888 65.986825 
L 145.62522 65.730105 
L 146.260552 65.858465 
L 146.895883 65.537565 
L 148.166547 66.115185 
L 148.801879 65.633835 
L 149.43721 65.409205 
L 150.072542 94.193925 
L 150.707874 95.541704 
L 151.343206 93.102865 
L 151.978538 95.445434 
L 152.613869 92.461065 
L 153.249201 93.937205 
L 153.884533 89.219976 
L 154.519865 92.461065 
L 155.155197 92.493155 
L 155.790528 92.846145 
L 156.42586 93.744665 
L 157.061192 88.064737 
L 157.696524 92.236435 
L 158.331856 87.294577 
L 158.967187 90.535666 
L 159.602519 88.417727 
L 160.237851 91.113286 
L 160.873183 91.722995 
L 161.508514 88.834897 
L 162.143846 90.952836 
L 162.779178 88.963257 
L 163.41451 87.519207 
L 164.049842 91.337916 
L 164.685173 88.353547 
L 165.320505 88.289367 
L 165.955837 86.460237 
L 166.591169 84.213938 
L 167.226501 83.860948 
L 167.861832 87.390847 
L 168.497164 86.043068 
L 169.132496 87.134127 
L 169.767828 81.518379 
L 170.40316 84.213938 
L 171.038491 83.379599 
L 171.673823 83.507959 
L 172.309155 85.048278 
L 172.944487 82.962429 
L 173.579819 83.893038 
L 174.21515 84.406478 
L 174.850482 85.080368 
L 176.121146 78.341471 
L 176.756477 80.33105 
L 177.391809 81.357929 
L 178.027141 79.14372 
L 178.662473 83.668409 
L 179.297805 79.78552 
L 179.933136 79.11163 
L 181.2038 77.314591 
L 181.839132 80.90867 
L 182.474464 80.65195 
L 183.109795 78.98327 
L 183.745127 77.795941 
L 184.380459 78.405651 
L 185.015791 75.228742 
L 185.651123 73.880962 
L 186.286454 76.255621 
L 186.921786 75.292922 
L 187.557118 73.142893 
L 188.19245 76.416071 
L 188.827782 74.972022 
L 189.463113 74.426492 
L 190.098445 74.490672 
L 190.733777 75.389192 
L 191.369109 72.116013 
L 192.00444 73.110803 
L 192.639772 75.806362 
L 193.275104 75.100382 
L 193.910436 70.671963 
L 194.545768 74.233952 
L 195.181099 73.174983 
L 195.816431 74.009322 
L 196.451763 72.565273 
L 197.087095 71.698843 
L 197.722427 72.212283 
L 198.99309 72.469003 
L 199.628422 72.244373 
L 200.263754 69.516724 
L 200.899086 71.730933 
L 201.534417 70.190614 
L 202.169749 69.516724 
L 202.805081 69.324184 
L 203.440413 72.051833 
L 204.075745 68.297304 
L 204.711076 68.907014 
L 205.346408 68.233124 
L 205.98174 67.751775 
L 206.617072 66.275635 
L 207.252403 67.912225 
L 207.887735 65.986825 
L 208.523067 64.831586 
L 209.158399 65.216666 
L 209.793731 65.248756 
L 210.429062 65.569655 
L 211.064394 64.799496 
L 211.699726 65.120396 
L 212.335058 63.868886 
L 212.97039 63.868886 
L 213.605721 65.280846 
L 214.241053 64.478596 
L 214.876385 63.419626 
L 216.147049 63.836796 
L 216.78238 62.071847 
L 217.417712 62.745737 
L 218.053044 62.745737 
L 218.688376 63.227086 
L 219.959039 61.173327 
L 220.594371 61.526317 
L 221.865035 59.536738 
L 222.500366 61.237507 
L 223.135698 61.109147 
L 223.77103 59.633008 
L 224.406362 60.050178 
L 225.041694 59.408378 
L 225.677025 59.921818 
L 226.312357 58.221048 
L 226.947689 59.151658 
L 227.583021 58.702398 
L 228.218353 58.798668 
L 228.853684 56.520279 
L 229.489016 57.001629 
L 230.124348 57.097899 
L 230.75968 57.803878 
L 232.030343 56.680729 
L 232.665675 57.643428 
L 233.301007 57.450889 
L 234.571671 55.589669 
L 235.207002 56.135199 
L 235.842334 56.167289 
L 237.112998 55.429219 
L 237.748329 55.365039 
L 238.383661 55.589669 
L 239.018993 55.108319 
L 239.654325 55.557579 
L 240.289657 55.108319 
L 240.924988 55.525489 
L 241.56032 54.8516 
L 242.195652 54.65906 
L 242.830984 54.81951 
L 243.466316 54.49861 
L 244.736979 54.40234 
L 245.372311 54.5307 
L 246.007643 53.568 
L 246.642975 54.46652 
L 247.278306 54.11353 
L 247.913638 53.95308 
L 248.54897 54.17771 
L 249.184302 53.98517 
L 249.819634 54.01726 
L 250.454965 54.37025 
L 251.090297 54.08144 
L 251.725629 93.584215 
L 252.360961 91.145376 
L 252.996292 84.181848 
L 253.631624 87.583387 
L 254.266956 88.064737 
L 254.902288 87.262487 
L 255.53762 87.583387 
L 256.172951 86.139338 
L 256.808283 83.796769 
L 257.443615 86.139338 
L 258.078947 83.315419 
L 258.714279 86.075158 
L 259.34961 86.428148 
L 259.984942 83.604229 
L 260.620274 83.668409 
L 261.255606 86.588597 
L 261.890938 83.379599 
L 262.526269 83.058699 
L 263.161601 81.807189 
L 263.796933 79.72134 
L 264.432265 86.396058 
L 265.067597 79.56089 
L 265.702928 83.957218 
L 266.33826 80.45941 
L 266.973592 80.61986 
L 267.608924 83.572139 
L 268.244255 82.352719 
L 268.879587 82.031819 
L 269.514919 83.347509 
L 270.150251 85.433358 
L 270.785583 82.320629 
L 271.420914 79.8497 
L 272.056246 82.481079 
L 272.691578 78.63028 
L 273.32691 83.251239 
L 273.962242 83.507959 
L 274.597573 78.469831 
L 275.232905 80.13851 
L 275.868237 84.887828 
L 276.503569 80.45941 
L 277.138901 78.887 
L 277.774232 80.4915 
L 278.409564 79.17581 
L 279.044896 82.352719 
L 279.680228 75.517552 
L 280.31556 82.769889 
L 280.950891 81.454199 
L 281.586223 82.448989 
L 282.221555 77.988481 
L 282.856887 78.66237 
L 283.492218 77.988481 
L 284.12755 78.95118 
L 284.762882 79.49671 
L 285.398214 77.924301 
L 286.033546 78.309381 
L 286.668877 77.603401 
L 287.304209 77.346681 
L 287.939541 75.581732 
L 288.574873 79.23999 
L 289.210205 76.769061 
L 289.845536 77.154141 
L 290.480868 77.057871 
L 291.1162 75.453372 
L 291.751532 78.181021 
L 292.386864 75.581732 
L 293.022195 75.357102 
L 294.292859 80.39523 
L 294.928191 78.887 
L 295.563523 73.303342 
L 296.198854 77.089961 
L 296.834186 74.041412 
L 297.469518 75.934721 
L 298.10485 74.394402 
L 298.740181 76.576521 
L 299.375513 75.453372 
L 300.010845 75.357102 
L 300.646177 73.656332 
L 301.281509 75.806362 
L 301.91684 76.576521 
L 302.552172 74.747392 
L 303.187504 76.929511 
L 303.822836 73.945142 
L 304.458168 74.394402 
L 305.093499 75.164562 
L 305.728831 75.325012 
L 306.364163 73.656332 
L 306.999495 75.132472 
L 307.634827 77.089961 
L 308.270158 73.977232 
L 308.90549 73.592152 
L 309.540822 74.715302 
L 310.176154 71.923473 
L 310.811486 76.736971 
L 311.446817 76.319801 
L 312.082149 72.950353 
L 312.717481 72.116013 
L 313.352813 72.886173 
L 313.988144 72.854083 
L 314.623476 72.180193 
L 315.258808 73.495882 
L 315.89414 73.560062 
L 316.529472 70.832413 
L 317.164803 73.014533 
L 317.800135 76.993691 
L 318.435467 72.565273 
L 319.070799 73.720512 
L 319.706131 73.720512 
L 320.341462 68.457754 
L 320.976794 70.543604 
L 321.612126 70.704053 
L 322.247458 69.163734 
L 322.88279 72.372733 
L 323.518121 72.789903 
L 324.153453 71.859293 
L 324.788785 74.747392 
L 325.424117 71.217493 
L 326.059448 69.356274 
L 326.69478 69.324184 
L 327.330112 68.072674 
L 327.965444 70.222704 
L 328.600776 74.137682 
L 329.236107 69.484634 
L 329.871439 71.666753 
L 330.506771 69.452544 
L 331.142103 69.420454 
L 331.777435 72.757813 
L 332.412766 70.607784 
L 333.048098 71.538393 
L 333.68343 69.677174 
L 334.318762 69.869714 
L 334.954094 68.136854 
L 335.589425 68.425664 
L 336.224757 68.521934 
L 336.860089 67.206245 
L 337.495421 70.671963 
L 338.130753 67.751775 
L 338.766084 68.746564 
L 340.036748 68.586114 
L 340.67208 68.907014 
L 341.307411 67.719685 
L 341.942743 67.109975 
L 342.578075 67.462965 
L 343.213407 68.746564 
L 343.848739 67.623415 
L 344.48407 69.003284 
L 345.119402 65.184576 
L 345.754734 69.292094 
L 346.390066 68.233124 
L 347.025398 66.147275 
L 347.660729 66.051005 
L 348.296061 69.195824 
L 348.931393 67.815955 
L 349.566725 67.559235 
L 350.202057 66.724895 
L 350.837388 65.505475 
L 351.47272 68.971194 
L 352.108052 65.601745 
L 352.743384 68.201034 
L 353.378716 69.163734 
L 354.014047 66.339815 
L 354.649379 64.799496 
L 355.284711 66.532355 
L 355.920043 64.414416 
L 356.555374 65.280846 
L 357.190706 63.965156 
L 357.826038 68.104764 
L 358.46137 65.280846 
L 359.096702 66.853255 
L 359.732033 64.061426 
L 360.367365 64.927856 
L 361.002697 64.478596 
L 361.638029 65.505475 
L 362.273361 64.671136 
L 362.908692 66.949525 
L 363.544024 62.360657 
L 364.179356 64.574866 
L 364.814688 67.495055 
L 365.45002 66.724895 
L 366.085351 63.227086 
L 366.720683 65.088306 
L 367.356015 63.259176 
L 367.991347 63.227086 
L 368.626679 64.671136 
L 369.26201 64.382326 
L 369.897342 63.002456 
L 370.532674 61.173327 
L 371.168006 63.451716 
L 371.803337 61.943487 
L 372.438669 63.933066 
L 373.074001 63.965156 
L 373.709333 61.879307 
L 374.344665 61.365867 
L 374.979996 61.847217 
L 375.615328 63.162906 
L 376.25066 60.595707 
L 376.885992 62.970366 
L 377.521324 61.526317 
L 378.156655 61.173327 
L 378.791987 59.889728 
L 379.427319 63.323356 
L 380.062651 61.622587 
L 380.697983 58.477768 
L 381.333314 59.247928 
L 381.968646 60.306897 
L 382.603978 62.007667 
L 383.23931 62.842006 
L 383.874642 58.221048 
L 384.509973 60.371077 
L 385.145305 60.050178 
L 385.780637 58.317318 
L 386.415969 57.932238 
L 387.0513 59.857638 
L 387.686632 59.921818 
L 388.321964 57.482979 
L 388.957296 59.280018 
L 389.592628 57.482979 
L 390.227959 59.921818 
L 390.863291 58.830758 
L 391.498623 58.830758 
L 392.133955 58.413588 
L 392.769287 58.574038 
L 393.404618 57.162079 
L 394.03995 57.097899 
L 394.675282 57.418799 
L 395.310614 56.263559 
L 395.945946 58.253138 
L 396.581277 55.942659 
L 397.216609 55.012049 
L 397.851941 56.680729 
L 398.487273 56.295649 
L 398.487273 56.295649 
" clip-path="url(#pbdf486d855)" style="fill: none; stroke: #ff7f0e; stroke-width: 1.5; stroke-linecap: square"/>
   </g>
   <g id="line2d_21">
    <path d="M 73.832727 289.608672 
L 75.738723 233.661438 
L 76.374054 224.100834 
L 77.009386 210.379598 
L 77.644718 205.488642 
L 78.28005 199.469002 
L 78.915382 200.664078 
L 79.550713 192.143633 
L 80.186045 185.349408 
L 80.821377 184.154332 
L 82.092041 178.48879 
L 82.727372 179.307638 
L 83.362704 167.755242 
L 83.998036 165.807712 
L 84.633368 164.524112 
L 85.2687 164.612636 
L 85.904031 159.743811 
L 86.539363 158.504473 
L 87.174695 162.797892 
L 87.810027 157.375791 
L 88.445358 155.317605 
L 89.08069 148.634036 
L 89.716022 148.700429 
L 90.351354 149.984028 
L 90.986686 149.098787 
L 91.622017 148.833215 
L 92.257349 143.98652 
L 92.892681 143.12341 
L 93.528013 139.936542 
L 94.163345 140.95457 
L 94.798676 139.228349 
L 95.434008 138.940646 
L 96.06934 138.254584 
L 96.704672 138.697205 
L 97.340004 138.033274 
L 97.975335 138.033274 
L 98.610667 137.546392 
L 99.245999 167.666718 
L 99.881331 162.510189 
L 100.516663 173.177343 
L 101.151994 162.53232 
L 101.787326 159.279059 
L 102.422658 159.456107 
L 103.05799 156.357764 
L 103.693321 156.313502 
L 104.328653 153.945482 
L 104.963985 150.780745 
L 105.599317 152.993848 
L 106.234649 148.501249 
L 106.86998 151.046317 
L 107.505312 148.324201 
L 108.140644 152.61762 
L 108.775976 147.770926 
L 109.411308 144.827499 
L 110.046639 146.99634 
L 110.681971 142.791445 
L 111.317303 145.137333 
L 111.952635 142.570134 
L 112.587967 143.300458 
L 113.223298 142.592265 
L 113.85863 139.051301 
L 114.493962 137.479998 
L 115.129294 134.359524 
L 115.764626 136.262792 
L 116.399957 139.67097 
L 117.035289 138.011143 
L 117.670621 139.980804 
L 118.305953 138.652943 
L 118.941284 134.470179 
L 119.576616 134.160345 
L 120.211948 131.659539 
L 120.84728 126.989892 
L 121.482612 136.948854 
L 122.117943 133.186579 
L 122.753275 131.416097 
L 123.388607 127.343988 
L 124.023939 125.551375 
L 124.659271 125.573506 
L 125.294602 128.937422 
L 125.929934 125.21941 
L 126.565266 123.205487 
L 127.200598 125.396458 
L 127.83593 124.112859 
L 128.471261 122.320246 
L 129.106593 122.187459 
L 129.741925 118.026827 
L 130.377257 118.380923 
L 131.012589 117.473551 
L 131.64792 119.17764 
L 132.283252 116.322738 
L 132.918584 117.716992 
L 133.553916 114.153897 
L 134.189247 115.149793 
L 134.824579 115.371103 
L 135.459911 113.689145 
L 136.095243 114.176028 
L 136.730575 113.158001 
L 137.365906 113.202263 
L 138.001238 110.967029 
L 138.63657 110.635064 
L 139.271902 111.741615 
L 139.907234 110.612933 
L 140.542565 111.431781 
L 141.177897 109.617037 
L 141.813229 109.594906 
L 142.448561 109.816216 
L 143.083893 110.34736 
L 143.719224 108.731796 
L 144.354556 108.001472 
L 144.989888 108.709665 
L 145.62522 107.780161 
L 146.260552 109.617037 
L 146.895883 108.864582 
L 147.531215 108.953106 
L 148.166547 109.351464 
L 148.801879 108.289175 
L 149.43721 108.112127 
L 150.072542 141.529976 
L 150.707874 140.357032 
L 151.343206 139.693101 
L 151.978538 140.069328 
L 152.613869 136.484102 
L 153.249201 139.383267 
L 153.884533 134.602965 
L 154.519865 137.502129 
L 155.155197 138.033274 
L 155.790528 135.620992 
L 156.42586 138.077536 
L 157.061192 129.114471 
L 157.696524 135.709516 
L 158.331856 133.607069 
L 159.602519 140.224246 
L 160.237851 136.041482 
L 160.873183 136.572626 
L 161.508514 133.142317 
L 162.143846 134.448048 
L 162.779178 131.48249 
L 163.41451 132.500518 
L 164.049842 137.192295 
L 164.685173 137.568523 
L 165.955837 135.089848 
L 166.591169 130.907084 
L 167.226501 131.947242 
L 167.861832 128.22923 
L 168.497164 129.623484 
L 169.132496 129.623484 
L 169.767828 127.36612 
L 170.40316 125.971865 
L 171.038491 130.530856 
L 171.673823 130.154629 
L 172.309155 127.565299 
L 172.944487 124.13499 
L 173.579819 127.078416 
L 174.850482 131.393966 
L 175.485814 125.042362 
L 176.121146 126.790713 
L 176.756477 123.625976 
L 177.391809 126.08252 
L 178.027141 122.320246 
L 178.662473 123.537452 
L 179.297805 125.551375 
L 179.933136 123.094831 
L 180.568468 123.515321 
L 181.2038 122.098935 
L 181.839132 123.980073 
L 182.474464 124.666134 
L 183.109795 120.239929 
L 183.745127 120.616157 
L 184.380459 120.793205 
L 185.015791 120.837467 
L 185.651123 119.730916 
L 186.286454 126.392354 
L 186.921786 122.320246 
L 187.557118 114.618649 
L 188.19245 117.207979 
L 188.827782 117.849778 
L 189.463113 120.439108 
L 190.098445 119.266164 
L 190.733777 119.022723 
L 191.369109 116.455524 
L 192.00444 116.831751 
L 192.639772 121.080908 
L 193.275104 115.902248 
L 193.910436 114.64078 
L 194.545768 119.221902 
L 195.181099 118.712888 
L 195.816431 115.902248 
L 196.451763 115.592414 
L 197.087095 116.389131 
L 197.722427 112.71538 
L 198.357758 112.936691 
L 198.99309 116.920275 
L 199.628422 115.0834 
L 200.263754 112.449808 
L 200.899086 115.415365 
L 201.534417 113.534228 
L 202.169749 113.711276 
L 202.805081 109.085892 
L 203.440413 114.4416 
L 204.075745 110.480147 
L 204.711076 109.329333 
L 205.346408 110.037526 
L 205.98174 109.639168 
L 206.617072 108.222782 
L 207.252403 110.34736 
L 207.887735 109.794085 
L 208.523067 106.120334 
L 209.158399 107.049838 
L 209.793731 107.713768 
L 210.429062 107.580982 
L 211.064394 104.283459 
L 211.699726 106.67361 
L 212.335058 105.013783 
L 212.97039 107.116231 
L 213.605721 106.098203 
L 214.241053 107.979341 
L 214.876385 104.925259 
L 215.511717 107.071969 
L 216.147049 104.239197 
L 216.78238 102.712156 
L 217.417712 104.062149 
L 218.053044 103.619529 
L 218.688376 105.323618 
L 219.323708 102.911336 
L 219.959039 104.150673 
L 220.594371 101.849046 
L 221.229703 99.12693 
L 221.865035 100.985936 
L 222.500366 101.428557 
L 223.135698 100.521185 
L 223.77103 101.959702 
L 224.406362 102.645763 
L 225.041694 98.817096 
L 225.677025 100.255613 
L 226.312357 99.945778 
L 226.947689 99.237585 
L 227.583021 98.972013 
L 228.218353 99.613813 
L 228.853684 97.511365 
L 229.489016 97.489234 
L 230.124348 98.374475 
L 230.75968 98.949882 
L 231.395012 99.12693 
L 232.030343 96.736779 
L 232.665675 97.024483 
L 233.301007 97.953986 
L 233.936339 96.626124 
L 234.571671 95.984325 
L 235.207002 96.847435 
L 235.842334 95.342525 
L 236.477666 95.010559 
L 237.112998 95.23187 
L 237.748329 95.8958 
L 238.383661 95.67449 
L 239.018993 94.700725 
L 239.654325 94.81138 
L 240.289657 95.873669 
L 240.924988 95.940063 
L 241.56032 94.014663 
L 242.195652 94.435153 
L 242.830984 95.431049 
L 243.466316 94.280236 
L 244.101647 94.435153 
L 244.736979 94.324498 
L 245.372311 94.081056 
L 246.007643 94.036794 
L 247.913638 94.523677 
L 248.54897 94.103187 
L 249.819634 94.125318 
L 250.454965 93.549912 
L 251.090297 93.50565 
L 251.725629 141.552107 
L 252.360961 140.888176 
L 252.996292 130.154629 
L 254.266956 134.093951 
L 255.53762 130.331677 
L 256.172951 132.190683 
L 256.808283 131.172656 
L 257.443615 132.035766 
L 258.078947 133.341497 
L 258.714279 132.611173 
L 259.34961 128.007919 
L 260.620274 124.666134 
L 261.255606 129.933319 
L 261.890938 127.830871 
L 262.526269 129.490698 
L 263.161601 126.436616 
L 263.796933 124.9981 
L 264.432265 137.258688 
L 265.067597 125.573506 
L 265.702928 126.591534 
L 266.33826 123.471059 
L 266.973592 128.295623 
L 267.608924 131.084132 
L 268.244255 127.609561 
L 268.879587 127.012023 
L 269.514919 129.225126 
L 270.150251 132.146421 
L 270.785583 128.826767 
L 271.420914 126.790713 
L 272.056246 126.126782 
L 272.691578 123.625976 
L 273.32691 125.706293 
L 273.962242 124.710396 
L 274.597573 123.426797 
L 275.232905 124.112859 
L 275.868237 127.565299 
L 276.503569 121.302218 
L 277.138901 120.748943 
L 277.774232 128.959553 
L 278.409564 124.024335 
L 279.044896 126.569403 
L 279.680228 122.143197 
L 280.31556 122.563687 
L 280.950891 122.430901 
L 281.586223 128.89316 
L 282.221555 126.989892 
L 282.856887 122.121066 
L 283.492218 120.062881 
L 284.12755 121.302218 
L 284.762882 125.949734 
L 285.398214 127.343988 
L 286.033546 123.139094 
L 286.668877 120.726812 
L 287.304209 120.704681 
L 287.939541 119.17764 
L 288.574873 122.607949 
L 289.210205 120.571895 
L 289.845536 121.744839 
L 290.480868 121.435005 
L 291.1162 118.491578 
L 291.751532 119.443212 
L 292.386864 121.700577 
L 293.022195 117.982564 
L 293.657527 124.754658 
L 294.292859 125.839079 
L 294.928191 126.237437 
L 295.563523 117.89404 
L 296.198854 118.159613 
L 296.834186 119.553867 
L 297.469518 119.907964 
L 298.10485 115.105531 
L 298.740181 118.53584 
L 299.375513 124.112859 
L 300.010845 114.330945 
L 300.646177 116.942406 
L 301.281509 118.358792 
L 301.91684 121.722708 
L 302.552172 115.636676 
L 303.187504 119.288295 
L 303.822836 118.115351 
L 304.458168 120.195667 
L 305.093499 118.978461 
L 305.728831 119.664522 
L 306.364163 117.716992 
L 306.999495 119.089116 
L 307.634827 122.475163 
L 308.270158 116.521917 
L 308.90549 115.968641 
L 309.540822 118.95633 
L 310.176154 118.071089 
L 310.811486 122.917783 
L 312.082149 118.912068 
L 312.717481 118.624364 
L 313.352813 114.662911 
L 313.988144 115.371103 
L 314.623476 114.817828 
L 315.89414 118.115351 
L 316.529472 116.521917 
L 317.164803 115.968641 
L 317.800135 123.116963 
L 318.435467 113.844063 
L 319.070799 115.658807 
L 319.706131 117.89404 
L 320.341462 110.789981 
L 320.976794 112.427677 
L 321.612126 113.423573 
L 322.247458 110.480147 
L 322.88279 118.115351 
L 323.518121 114.86209 
L 324.153453 117.008799 
L 324.788785 116.212082 
L 325.424117 112.007187 
L 326.059448 108.554747 
L 326.69478 112.848166 
L 327.330112 112.803904 
L 327.965444 113.667014 
L 328.600776 116.499786 
L 329.236107 112.71538 
L 329.871439 116.632572 
L 330.506771 110.856374 
L 331.142103 112.71538 
L 331.777435 114.198159 
L 332.412766 114.330945 
L 333.048098 111.520305 
L 333.68343 113.047346 
L 334.318762 116.831751 
L 334.954094 115.238317 
L 335.589425 108.134258 
L 337.495421 114.596517 
L 338.130753 111.498174 
L 338.766084 112.560463 
L 339.401416 110.258836 
L 340.036748 111.697353 
L 340.67208 111.033422 
L 341.307411 114.574386 
L 341.942743 108.842451 
L 343.213407 110.76785 
L 343.848739 110.856374 
L 344.48407 109.949002 
L 345.119402 106.806396 
L 345.754734 113.888325 
L 346.390066 113.733407 
L 347.025398 109.771954 
L 347.660729 113.600621 
L 348.296061 111.188339 
L 348.931393 110.037526 
L 349.566725 110.856374 
L 350.202057 109.373595 
L 350.837388 108.953106 
L 351.47272 109.329333 
L 352.108052 104.659687 
L 352.743384 109.085892 
L 353.378716 111.431781 
L 354.014047 105.035914 
L 354.649379 106.053941 
L 355.284711 110.413754 
L 355.920043 106.872789 
L 356.555374 110.214574 
L 357.190706 104.659687 
L 357.826038 110.037526 
L 358.46137 107.049838 
L 359.096702 109.152285 
L 359.732033 108.599009 
L 360.367365 103.685922 
L 361.002697 104.50477 
L 361.638029 107.31541 
L 362.273361 105.788369 
L 362.908692 106.341645 
L 364.179356 105.544928 
L 364.814688 107.492458 
L 365.45002 107.780161 
L 366.085351 99.812992 
L 366.720683 103.398218 
L 367.356015 104.836735 
L 367.991347 103.929363 
L 368.626679 103.995756 
L 369.26201 106.053941 
L 369.897342 106.385907 
L 370.532674 104.371983 
L 371.168006 104.283459 
L 371.803337 102.026095 
L 372.438669 105.655583 
L 373.074001 106.784265 
L 373.709333 104.194935 
L 374.344665 105.1687 
L 374.979996 105.035914 
L 375.615328 104.30559 
L 376.25066 100.277744 
L 376.885992 103.066253 
L 377.521324 102.13675 
L 378.156655 101.517081 
L 378.791987 101.229378 
L 379.427319 104.615425 
L 380.062651 100.720364 
L 380.697983 100.432661 
L 381.333314 100.897412 
L 381.968646 103.287563 
L 382.603978 104.659687 
L 383.23931 100.653971 
L 383.874642 98.728572 
L 384.509973 100.543316 
L 385.145305 100.388399 
L 385.780637 97.754807 
L 386.415969 99.149061 
L 387.0513 99.923647 
L 387.686632 100.18922 
L 388.321964 98.020379 
L 388.957296 96.294159 
L 389.592628 97.688414 
L 390.227959 98.26382 
L 390.863291 99.680206 
L 391.498623 98.396606 
L 392.133955 99.237585 
L 392.769287 98.595786 
L 393.404618 101.27364 
L 394.03995 95.364656 
L 394.675282 98.529393 
L 395.310614 95.807276 
L 395.945946 101.893309 
L 396.581277 96.515469 
L 397.216609 98.131034 
L 397.851941 101.185116 
L 398.487273 96.692517 
L 398.487273 96.692517 
" clip-path="url(#pbdf486d855)" style="fill: none; stroke: #2ca02c; stroke-width: 1.5; stroke-linecap: square"/>
   </g>
   <g id="line2d_22">
    <path d="M 0 0 
" clip-path="url(#pbdf486d855)" style="fill: none; stroke: #d62728; stroke-width: 1.5; stroke-linecap: square"/>
   </g>
   <g id="line2d_23">
    <path d="M 0 0 
" clip-path="url(#pbdf486d855)" style="fill: none; stroke: #9467bd; stroke-width: 1.5; stroke-linecap: square"/>
   </g>
   <g id="patch_3">
    <path d="M 57.6 307.584 
L 57.6 41.472 
" style="fill: none; stroke: #000000; stroke-width: 0.8; stroke-linejoin: miter; stroke-linecap: square"/>
   </g>
   <g id="patch_4">
    <path d="M 414.72 307.584 
L 414.72 41.472 
" style="fill: none; stroke: #000000; stroke-width: 0.8; stroke-linejoin: miter; stroke-linecap: square"/>
   </g>
   <g id="patch_5">
    <path d="M 57.6 307.584 
L 414.72 307.584 
" style="fill: none; stroke: #000000; stroke-width: 0.8; stroke-linejoin: miter; stroke-linecap: square"/>
   </g>
   <g id="patch_6">
    <path d="M 57.6 41.472 
L 414.72 41.472 
" style="fill: none; stroke: #000000; stroke-width: 0.8; stroke-linejoin: miter; stroke-linecap: square"/>
   </g>
   <g id="text_21">
    <!-- Learning Curves -->
    <g transform="translate(187.37625 35.472) scale(0.12 -0.12)">
     <defs>
      <path id="DejaVuSans-4c" d="M 628 4666 
L 1259 4666 
L 1259 531 
L 3531 531 
L 3531 0 
L 628 0 
L 628 4666 
z
" transform="scale(0.015625)"/>
      <path id="DejaVuSans-65" d="M 3597 1894 
L 3597 1613 
L 953 1613 
Q 991 1019 1311 708 
Q 1631 397 2203 397 
Q 2534 397 2845 478 
Q 3156 559 3463 722 
L 3463 178 
Q 3153 47 2828 -22 
Q 2503 -91 2169 -91 
Q 1331 -91 842 396 
Q 353 884 353 1716 
Q 353 2575 817 3079 
Q 1281 3584 2069 3584 
Q 2775 3584 3186 3129 
Q 3597 2675 3597 1894 
z
M 3022 2063 
Q 3016 2534 2758 2815 
Q 2500 3097 2075 3097 
Q 1594 3097 1305 2825 
Q 1016 2553 972 2059 
L 3022 2063 
z
" transform="scale(0.015625)"/>
      <path id="DejaVuSans-6e" d="M 3513 2113 
L 3513 0 
L 2938 0 
L 2938 2094 
Q 2938 2591 2744 2837 
Q 2550 3084 2163 3084 
Q 1697 3084 1428 2787 
Q 1159 2491 1159 1978 
L 1159 0 
L 581 0 
L 581 3500 
L 1159 3500 
L 1159 2956 
Q 1366 3272 1645 3428 
Q 1925 3584 2291 3584 
Q 2894 3584 3203 3211 
Q 3513 2838 3513 2113 
z
" transform="scale(0.015625)"/>
      <path id="DejaVuSans-69" d="M 603 3500 
L 1178 3500 
L 1178 0 
L 603 0 
L 603 3500 
z
M 603 4863 
L 1178 4863 
L 1178 4134 
L 603 4134 
L 603 4863 
z
" transform="scale(0.015625)"/>
      <path id="DejaVuSans-67" d="M 2906 1791 
Q 2906 2416 2648 2759 
Q 2391 3103 1925 3103 
Q 1463 3103 1205 2759 
Q 947 2416 947 1791 
Q 947 1169 1205 825 
Q 1463 481 1925 481 
Q 2391 481 2648 825 
Q 2906 1169 2906 1791 
z
M 3481 434 
Q 3481 -459 3084 -895 
Q 2688 -1331 1869 -1331 
Q 1566 -1331 1297 -1286 
Q 1028 -1241 775 -1147 
L 775 -588 
Q 1028 -725 1275 -790 
Q 1522 -856 1778 -856 
Q 2344 -856 2625 -561 
Q 2906 -266 2906 331 
L 2906 616 
Q 2728 306 2450 153 
Q 2172 0 1784 0 
Q 1141 0 747 490 
Q 353 981 353 1791 
Q 353 2603 747 3093 
Q 1141 3584 1784 3584 
Q 2172 3584 2450 3431 
Q 2728 3278 2906 2969 
L 2906 3500 
L 3481 3500 
L 3481 434 
z
" transform="scale(0.015625)"/>
      <path id="DejaVuSans-20" transform="scale(0.015625)"/>
      <path id="DejaVuSans-43" d="M 4122 4306 
L 4122 3641 
Q 3803 3938 3442 4084 
Q 3081 4231 2675 4231 
Q 1875 4231 1450 3742 
Q 1025 3253 1025 2328 
Q 1025 1406 1450 917 
Q 1875 428 2675 428 
Q 3081 428 3442 575 
Q 3803 722 4122 1019 
L 4122 359 
Q 3791 134 3420 21 
Q 3050 -91 2638 -91 
Q 1578 -91 968 557 
Q 359 1206 359 2328 
Q 359 3453 968 4101 
Q 1578 4750 2638 4750 
Q 3056 4750 3426 4639 
Q 3797 4528 4122 4306 
z
" transform="scale(0.015625)"/>
      <path id="DejaVuSans-76" d="M 191 3500 
L 800 3500 
L 1894 563 
L 2988 3500 
L 3597 3500 
L 2284 0 
L 1503 0 
L 191 3500 
z
" transform="scale(0.015625)"/>
     </defs>
     <use xlink:href="#DejaVuSans-4c"/>
     <use xlink:href="#DejaVuSans-65" x="53.962891"/>
     <use xlink:href="#DejaVuSans-61" x="115.486328"/>
     <use xlink:href="#DejaVuSans-72" x="176.765625"/>
     <use xlink:href="#DejaVuSans-6e" x="216.128906"/>
     <use xlink:href="#DejaVuSans-69" x="279.507812"/>
     <use xlink:href="#DejaVuSans-6e" x="307.291016"/>
     <use xlink:href="#DejaVuSans-67" x="370.669922"/>
     <use xlink:href="#DejaVuSans-20" x="434.146484"/>
     <use xlink:href="#DejaVuSans-43" x="465.933594"/>
     <use xlink:href="#DejaVuSans-75" x="535.757812"/>
     <use xlink:href="#DejaVuSans-72" x="599.136719"/>
     <use xlink:href="#DejaVuSans-76" x="640.25"/>
     <use xlink:href="#DejaVuSans-65" x="699.429688"/>
     <use xlink:href="#DejaVuSans-73" x="760.953125"/>
    </g>
   </g>
   <g id="legend_1">
    <g id="patch_7">
     <path d="M 214.18875 302.584 
L 407.72 302.584 
Q 409.72 302.584 409.72 300.584 
L 409.72 228.193375 
Q 409.72 226.193375 407.72 226.193375 
L 214.18875 226.193375 
Q 212.18875 226.193375 212.18875 228.193375 
L 212.18875 300.584 
Q 212.18875 302.584 214.18875 302.584 
z
" style="fill: #ffffff; opacity: 0.8; stroke: #cccccc; stroke-linejoin: miter"/>
    </g>
    <g id="line2d_24">
     <path d="M 216.18875 234.291812 
L 226.18875 234.291812 
L 236.18875 234.291812 
" style="fill: none; stroke: #1f77b4; stroke-width: 1.5; stroke-linecap: square"/>
    </g>
    <g id="text_22">
     <!-- Train Accuracy -->
     <g transform="translate(244.18875 237.791812) scale(0.1 -0.1)">
      <defs>
       <path id="DejaVuSans-54" d="M -19 4666 
L 3928 4666 
L 3928 4134 
L 2272 4134 
L 2272 0 
L 1638 0 
L 1638 4134 
L -19 4134 
L -19 4666 
z
" transform="scale(0.015625)"/>
      </defs>
      <use xlink:href="#DejaVuSans-54"/>
      <use xlink:href="#DejaVuSans-72" x="46.333984"/>
      <use xlink:href="#DejaVuSans-61" x="87.447266"/>
      <use xlink:href="#DejaVuSans-69" x="148.726562"/>
      <use xlink:href="#DejaVuSans-6e" x="176.509766"/>
      <use xlink:href="#DejaVuSans-20" x="239.888672"/>
      <use xlink:href="#DejaVuSans-41" x="271.675781"/>
      <use xlink:href="#DejaVuSans-63" x="338.333984"/>
      <use xlink:href="#DejaVuSans-63" x="393.314453"/>
      <use xlink:href="#DejaVuSans-75" x="448.294922"/>
      <use xlink:href="#DejaVuSans-72" x="511.673828"/>
      <use xlink:href="#DejaVuSans-61" x="552.787109"/>
      <use xlink:href="#DejaVuSans-63" x="614.066406"/>
      <use xlink:href="#DejaVuSans-79" x="669.046875"/>
     </g>
    </g>
    <g id="line2d_25">
     <path d="M 216.18875 248.969937 
L 226.18875 248.969937 
L 236.18875 248.969937 
" style="fill: none; stroke: #ff7f0e; stroke-width: 1.5; stroke-linecap: square"/>
    </g>
    <g id="text_23">
     <!-- Validation Accuracy -->
     <g transform="translate(244.18875 252.469937) scale(0.1 -0.1)">
      <defs>
       <path id="DejaVuSans-56" d="M 1831 0 
L 50 4666 
L 709 4666 
L 2188 738 
L 3669 4666 
L 4325 4666 
L 2547 0 
L 1831 0 
z
" transform="scale(0.015625)"/>
       <path id="DejaVuSans-6c" d="M 603 4863 
L 1178 4863 
L 1178 0 
L 603 0 
L 603 4863 
z
" transform="scale(0.015625)"/>
       <path id="DejaVuSans-64" d="M 2906 2969 
L 2906 4863 
L 3481 4863 
L 3481 0 
L 2906 0 
L 2906 525 
Q 2725 213 2448 61 
Q 2172 -91 1784 -91 
Q 1150 -91 751 415 
Q 353 922 353 1747 
Q 353 2572 751 3078 
Q 1150 3584 1784 3584 
Q 2172 3584 2448 3432 
Q 2725 3281 2906 2969 
z
M 947 1747 
Q 947 1113 1208 752 
Q 1469 391 1925 391 
Q 2381 391 2643 752 
Q 2906 1113 2906 1747 
Q 2906 2381 2643 2742 
Q 2381 3103 1925 3103 
Q 1469 3103 1208 2742 
Q 947 2381 947 1747 
z
" transform="scale(0.015625)"/>
       <path id="DejaVuSans-74" d="M 1172 4494 
L 1172 3500 
L 2356 3500 
L 2356 3053 
L 1172 3053 
L 1172 1153 
Q 1172 725 1289 603 
Q 1406 481 1766 481 
L 2356 481 
L 2356 0 
L 1766 0 
Q 1100 0 847 248 
Q 594 497 594 1153 
L 594 3053 
L 172 3053 
L 172 3500 
L 594 3500 
L 594 4494 
L 1172 4494 
z
" transform="scale(0.015625)"/>
      </defs>
      <use xlink:href="#DejaVuSans-56"/>
      <use xlink:href="#DejaVuSans-61" x="60.658203"/>
      <use xlink:href="#DejaVuSans-6c" x="121.9375"/>
      <use xlink:href="#DejaVuSans-69" x="149.720703"/>
      <use xlink:href="#DejaVuSans-64" x="177.503906"/>
      <use xlink:href="#DejaVuSans-61" x="240.980469"/>
      <use xlink:href="#DejaVuSans-74" x="302.259766"/>
      <use xlink:href="#DejaVuSans-69" x="341.46875"/>
      <use xlink:href="#DejaVuSans-6f" x="369.251953"/>
      <use xlink:href="#DejaVuSans-6e" x="430.433594"/>
      <use xlink:href="#DejaVuSans-20" x="493.8125"/>
      <use xlink:href="#DejaVuSans-41" x="525.599609"/>
      <use xlink:href="#DejaVuSans-63" x="592.257812"/>
      <use xlink:href="#DejaVuSans-63" x="647.238281"/>
      <use xlink:href="#DejaVuSans-75" x="702.21875"/>
      <use xlink:href="#DejaVuSans-72" x="765.597656"/>
      <use xlink:href="#DejaVuSans-61" x="806.710938"/>
      <use xlink:href="#DejaVuSans-63" x="867.990234"/>
      <use xlink:href="#DejaVuSans-79" x="922.970703"/>
     </g>
    </g>
    <g id="line2d_26">
     <path d="M 216.18875 263.648062 
L 226.18875 263.648062 
L 236.18875 263.648062 
" style="fill: none; stroke: #2ca02c; stroke-width: 1.5; stroke-linecap: square"/>
    </g>
    <g id="text_24">
     <!-- Robust Validation Accuracy -->
     <g transform="translate(244.18875 267.148062) scale(0.1 -0.1)">
      <defs>
       <path id="DejaVuSans-52" d="M 2841 2188 
Q 3044 2119 3236 1894 
Q 3428 1669 3622 1275 
L 4263 0 
L 3584 0 
L 2988 1197 
Q 2756 1666 2539 1819 
Q 2322 1972 1947 1972 
L 1259 1972 
L 1259 0 
L 628 0 
L 628 4666 
L 2053 4666 
Q 2853 4666 3247 4331 
Q 3641 3997 3641 3322 
Q 3641 2881 3436 2590 
Q 3231 2300 2841 2188 
z
M 1259 4147 
L 1259 2491 
L 2053 2491 
Q 2509 2491 2742 2702 
Q 2975 2913 2975 3322 
Q 2975 3731 2742 3939 
Q 2509 4147 2053 4147 
L 1259 4147 
z
" transform="scale(0.015625)"/>
       <path id="DejaVuSans-62" d="M 3116 1747 
Q 3116 2381 2855 2742 
Q 2594 3103 2138 3103 
Q 1681 3103 1420 2742 
Q 1159 2381 1159 1747 
Q 1159 1113 1420 752 
Q 1681 391 2138 391 
Q 2594 391 2855 752 
Q 3116 1113 3116 1747 
z
M 1159 2969 
Q 1341 3281 1617 3432 
Q 1894 3584 2278 3584 
Q 2916 3584 3314 3078 
Q 3713 2572 3713 1747 
Q 3713 922 3314 415 
Q 2916 -91 2278 -91 
Q 1894 -91 1617 61 
Q 1341 213 1159 525 
L 1159 0 
L 581 0 
L 581 4863 
L 1159 4863 
L 1159 2969 
z
" transform="scale(0.015625)"/>
      </defs>
      <use xlink:href="#DejaVuSans-52"/>
      <use xlink:href="#DejaVuSans-6f" x="64.982422"/>
      <use xlink:href="#DejaVuSans-62" x="126.164062"/>
      <use xlink:href="#DejaVuSans-75" x="189.640625"/>
      <use xlink:href="#DejaVuSans-73" x="253.019531"/>
      <use xlink:href="#DejaVuSans-74" x="305.119141"/>
      <use xlink:href="#DejaVuSans-20" x="344.328125"/>
      <use xlink:href="#DejaVuSans-56" x="376.115234"/>
      <use xlink:href="#DejaVuSans-61" x="436.773438"/>
      <use xlink:href="#DejaVuSans-6c" x="498.052734"/>
      <use xlink:href="#DejaVuSans-69" x="525.835938"/>
      <use xlink:href="#DejaVuSans-64" x="553.619141"/>
      <use xlink:href="#DejaVuSans-61" x="617.095703"/>
      <use xlink:href="#DejaVuSans-74" x="678.375"/>
      <use xlink:href="#DejaVuSans-69" x="717.583984"/>
      <use xlink:href="#DejaVuSans-6f" x="745.367188"/>
      <use xlink:href="#DejaVuSans-6e" x="806.548828"/>
      <use xlink:href="#DejaVuSans-20" x="869.927734"/>
      <use xlink:href="#DejaVuSans-41" x="901.714844"/>
      <use xlink:href="#DejaVuSans-63" x="968.373047"/>
      <use xlink:href="#DejaVuSans-63" x="1023.353516"/>
      <use xlink:href="#DejaVuSans-75" x="1078.333984"/>
      <use xlink:href="#DejaVuSans-72" x="1141.712891"/>
      <use xlink:href="#DejaVuSans-61" x="1182.826172"/>
      <use xlink:href="#DejaVuSans-63" x="1244.105469"/>
      <use xlink:href="#DejaVuSans-79" x="1299.085938"/>
     </g>
    </g>
    <g id="line2d_27">
     <path d="M 216.18875 278.326188 
L 226.18875 278.326188 
L 236.18875 278.326188 
" style="fill: none; stroke: #d62728; stroke-width: 1.5; stroke-linecap: square"/>
    </g>
    <g id="text_25">
     <!-- SWA Validation Accuracy -->
     <g transform="translate(244.18875 281.826188) scale(0.1 -0.1)">
      <defs>
       <path id="DejaVuSans-53" d="M 3425 4513 
L 3425 3897 
Q 3066 4069 2747 4153 
Q 2428 4238 2131 4238 
Q 1616 4238 1336 4038 
Q 1056 3838 1056 3469 
Q 1056 3159 1242 3001 
Q 1428 2844 1947 2747 
L 2328 2669 
Q 3034 2534 3370 2195 
Q 3706 1856 3706 1288 
Q 3706 609 3251 259 
Q 2797 -91 1919 -91 
Q 1588 -91 1214 -16 
Q 841 59 441 206 
L 441 856 
Q 825 641 1194 531 
Q 1563 422 1919 422 
Q 2459 422 2753 634 
Q 3047 847 3047 1241 
Q 3047 1584 2836 1778 
Q 2625 1972 2144 2069 
L 1759 2144 
Q 1053 2284 737 2584 
Q 422 2884 422 3419 
Q 422 4038 858 4394 
Q 1294 4750 2059 4750 
Q 2388 4750 2728 4690 
Q 3069 4631 3425 4513 
z
" transform="scale(0.015625)"/>
       <path id="DejaVuSans-57" d="M 213 4666 
L 850 4666 
L 1831 722 
L 2809 4666 
L 3519 4666 
L 4500 722 
L 5478 4666 
L 6119 4666 
L 4947 0 
L 4153 0 
L 3169 4050 
L 2175 0 
L 1381 0 
L 213 4666 
z
" transform="scale(0.015625)"/>
      </defs>
      <use xlink:href="#DejaVuSans-53"/>
      <use xlink:href="#DejaVuSans-57" x="63.476562"/>
      <use xlink:href="#DejaVuSans-41" x="156.853516"/>
      <use xlink:href="#DejaVuSans-20" x="225.261719"/>
      <use xlink:href="#DejaVuSans-56" x="257.048828"/>
      <use xlink:href="#DejaVuSans-61" x="317.707031"/>
      <use xlink:href="#DejaVuSans-6c" x="378.986328"/>
      <use xlink:href="#DejaVuSans-69" x="406.769531"/>
      <use xlink:href="#DejaVuSans-64" x="434.552734"/>
      <use xlink:href="#DejaVuSans-61" x="498.029297"/>
      <use xlink:href="#DejaVuSans-74" x="559.308594"/>
      <use xlink:href="#DejaVuSans-69" x="598.517578"/>
      <use xlink:href="#DejaVuSans-6f" x="626.300781"/>
      <use xlink:href="#DejaVuSans-6e" x="687.482422"/>
      <use xlink:href="#DejaVuSans-20" x="750.861328"/>
      <use xlink:href="#DejaVuSans-41" x="782.648438"/>
      <use xlink:href="#DejaVuSans-63" x="849.306641"/>
      <use xlink:href="#DejaVuSans-63" x="904.287109"/>
      <use xlink:href="#DejaVuSans-75" x="959.267578"/>
      <use xlink:href="#DejaVuSans-72" x="1022.646484"/>
      <use xlink:href="#DejaVuSans-61" x="1063.759766"/>
      <use xlink:href="#DejaVuSans-63" x="1125.039062"/>
      <use xlink:href="#DejaVuSans-79" x="1180.019531"/>
     </g>
    </g>
    <g id="line2d_28">
     <path d="M 216.18875 293.004312 
L 226.18875 293.004312 
L 236.18875 293.004312 
" style="fill: none; stroke: #9467bd; stroke-width: 1.5; stroke-linecap: square"/>
    </g>
    <g id="text_26">
     <!-- SWA Robust Validation Accuracy -->
     <g transform="translate(244.18875 296.504312) scale(0.1 -0.1)">
      <use xlink:href="#DejaVuSans-53"/>
      <use xlink:href="#DejaVuSans-57" x="63.476562"/>
      <use xlink:href="#DejaVuSans-41" x="156.853516"/>
      <use xlink:href="#DejaVuSans-20" x="225.261719"/>
      <use xlink:href="#DejaVuSans-52" x="257.048828"/>
      <use xlink:href="#DejaVuSans-6f" x="322.03125"/>
      <use xlink:href="#DejaVuSans-62" x="383.212891"/>
      <use xlink:href="#DejaVuSans-75" x="446.689453"/>
      <use xlink:href="#DejaVuSans-73" x="510.068359"/>
      <use xlink:href="#DejaVuSans-74" x="562.167969"/>
      <use xlink:href="#DejaVuSans-20" x="601.376953"/>
      <use xlink:href="#DejaVuSans-56" x="633.164062"/>
      <use xlink:href="#DejaVuSans-61" x="693.822266"/>
      <use xlink:href="#DejaVuSans-6c" x="755.101562"/>
      <use xlink:href="#DejaVuSans-69" x="782.884766"/>
      <use xlink:href="#DejaVuSans-64" x="810.667969"/>
      <use xlink:href="#DejaVuSans-61" x="874.144531"/>
      <use xlink:href="#DejaVuSans-74" x="935.423828"/>
      <use xlink:href="#DejaVuSans-69" x="974.632812"/>
      <use xlink:href="#DejaVuSans-6f" x="1002.416016"/>
      <use xlink:href="#DejaVuSans-6e" x="1063.597656"/>
      <use xlink:href="#DejaVuSans-20" x="1126.976562"/>
      <use xlink:href="#DejaVuSans-41" x="1158.763672"/>
      <use xlink:href="#DejaVuSans-63" x="1225.421875"/>
      <use xlink:href="#DejaVuSans-63" x="1280.402344"/>
      <use xlink:href="#DejaVuSans-75" x="1335.382812"/>
      <use xlink:href="#DejaVuSans-72" x="1398.761719"/>
      <use xlink:href="#DejaVuSans-61" x="1439.875"/>
      <use xlink:href="#DejaVuSans-63" x="1501.154297"/>
      <use xlink:href="#DejaVuSans-79" x="1556.134766"/>
     </g>
    </g>
   </g>
  </g>
 </g>
 <defs>
  <clipPath id="pbdf486d855">
   <rect x="57.6" y="41.472" width="357.12" height="266.112"/>
  </clipPath>
 </defs>
</svg>
