<?xml version="1.0" encoding="utf-8" standalone="no"?>
<!DOCTYPE svg PUBLIC "-//W3C//DTD SVG 1.1//EN"
  "http://www.w3.org/Graphics/SVG/1.1/DTD/svg11.dtd">
<svg xmlns:xlink="http://www.w3.org/1999/xlink" width="460.8pt" height="345.6pt" viewBox="0 0 460.8 345.6" xmlns="http://www.w3.org/2000/svg" version="1.1">
 <metadata>
  <rdf:RDF xmlns:dc="http://purl.org/dc/elements/1.1/" xmlns:cc="http://creativecommons.org/ns#" xmlns:rdf="http://www.w3.org/1999/02/22-rdf-syntax-ns#">
   <cc:Work>
    <dc:type rdf:resource="http://purl.org/dc/dcmitype/StillImage"/>
    <dc:date>2025-07-15T13:05:15.009071</dc:date>
    <dc:format>image/svg+xml</dc:format>
    <dc:creator>
     <cc:Agent>
      <dc:title>Matplotlib v3.9.1, https://matplotlib.org/</dc:title>
     </cc:Agent>
    </dc:creator>
   </cc:Work>
  </rdf:RDF>
 </metadata>
 <defs>
  <style type="text/css">*{stroke-linejoin: round; stroke-linecap: butt}</style>
 </defs>
 <g id="figure_1">
  <g id="patch_1">
   <path d="M 0 345.6 
L 460.8 345.6 
L 460.8 0 
L 0 0 
z
" style="fill: #ffffff"/>
  </g>
  <g id="axes_1">
   <g id="patch_2">
    <path d="M 57.6 307.584 
L 414.72 307.584 
L 414.72 41.472 
L 57.6 41.472 
z
" style="fill: #ffffff"/>
   </g>
   <g id="matplotlib.axis_1">
    <g id="xtick_1">
     <g id="line2d_1">
      <defs>
       <path id="m86528d43a1" d="M 0 0 
L 0 3.5 
" style="stroke: #000000; stroke-width: 0.8"/>
      </defs>
      <g>
       <use xlink:href="#m86528d43a1" x="73.832727" y="307.584" style="stroke: #000000; stroke-width: 0.8"/>
      </g>
     </g>
     <g id="text_1">
      <!-- 1 -->
      <g transform="translate(70.651477 322.182437) scale(0.1 -0.1)">
       <defs>
        <path id="DejaVuSans-31" d="M 794 531 
L 1825 531 
L 1825 4091 
L 703 3866 
L 703 4441 
L 1819 4666 
L 2450 4666 
L 2450 531 
L 3481 531 
L 3481 0 
L 794 0 
L 794 531 
z
" transform="scale(0.015625)"/>
       </defs>
       <use xlink:href="#DejaVuSans-31"/>
      </g>
     </g>
    </g>
    <g id="xtick_2">
     <g id="line2d_2">
      <g>
       <use xlink:href="#m86528d43a1" x="109.664165" y="307.584" style="stroke: #000000; stroke-width: 0.8"/>
      </g>
     </g>
     <g id="text_2">
      <!-- 34 -->
      <g transform="translate(103.301665 322.182437) scale(0.1 -0.1)">
       <defs>
        <path id="DejaVuSans-33" d="M 2597 2516 
Q 3050 2419 3304 2112 
Q 3559 1806 3559 1356 
Q 3559 666 3084 287 
Q 2609 -91 1734 -91 
Q 1441 -91 1130 -33 
Q 819 25 488 141 
L 488 750 
Q 750 597 1062 519 
Q 1375 441 1716 441 
Q 2309 441 2620 675 
Q 2931 909 2931 1356 
Q 2931 1769 2642 2001 
Q 2353 2234 1838 2234 
L 1294 2234 
L 1294 2753 
L 1863 2753 
Q 2328 2753 2575 2939 
Q 2822 3125 2822 3475 
Q 2822 3834 2567 4026 
Q 2313 4219 1838 4219 
Q 1578 4219 1281 4162 
Q 984 4106 628 3988 
L 628 4550 
Q 988 4650 1302 4700 
Q 1616 4750 1894 4750 
Q 2613 4750 3031 4423 
Q 3450 4097 3450 3541 
Q 3450 3153 3228 2886 
Q 3006 2619 2597 2516 
z
" transform="scale(0.015625)"/>
        <path id="DejaVuSans-34" d="M 2419 4116 
L 825 1625 
L 2419 1625 
L 2419 4116 
z
M 2253 4666 
L 3047 4666 
L 3047 1625 
L 3713 1625 
L 3713 1100 
L 3047 1100 
L 3047 0 
L 2419 0 
L 2419 1100 
L 313 1100 
L 313 1709 
L 2253 4666 
z
" transform="scale(0.015625)"/>
       </defs>
       <use xlink:href="#DejaVuSans-33"/>
       <use xlink:href="#DejaVuSans-34" x="63.623047"/>
      </g>
     </g>
    </g>
    <g id="xtick_3">
     <g id="line2d_3">
      <g>
       <use xlink:href="#m86528d43a1" x="145.495604" y="307.584" style="stroke: #000000; stroke-width: 0.8"/>
      </g>
     </g>
     <g id="text_3">
      <!-- 67 -->
      <g transform="translate(139.133104 322.182437) scale(0.1 -0.1)">
       <defs>
        <path id="DejaVuSans-36" d="M 2113 2584 
Q 1688 2584 1439 2293 
Q 1191 2003 1191 1497 
Q 1191 994 1439 701 
Q 1688 409 2113 409 
Q 2538 409 2786 701 
Q 3034 994 3034 1497 
Q 3034 2003 2786 2293 
Q 2538 2584 2113 2584 
z
M 3366 4563 
L 3366 3988 
Q 3128 4100 2886 4159 
Q 2644 4219 2406 4219 
Q 1781 4219 1451 3797 
Q 1122 3375 1075 2522 
Q 1259 2794 1537 2939 
Q 1816 3084 2150 3084 
Q 2853 3084 3261 2657 
Q 3669 2231 3669 1497 
Q 3669 778 3244 343 
Q 2819 -91 2113 -91 
Q 1303 -91 875 529 
Q 447 1150 447 2328 
Q 447 3434 972 4092 
Q 1497 4750 2381 4750 
Q 2619 4750 2861 4703 
Q 3103 4656 3366 4563 
z
" transform="scale(0.015625)"/>
        <path id="DejaVuSans-37" d="M 525 4666 
L 3525 4666 
L 3525 4397 
L 1831 0 
L 1172 0 
L 2766 4134 
L 525 4134 
L 525 4666 
z
" transform="scale(0.015625)"/>
       </defs>
       <use xlink:href="#DejaVuSans-36"/>
       <use xlink:href="#DejaVuSans-37" x="63.623047"/>
      </g>
     </g>
    </g>
    <g id="xtick_4">
     <g id="line2d_4">
      <g>
       <use xlink:href="#m86528d43a1" x="181.327042" y="307.584" style="stroke: #000000; stroke-width: 0.8"/>
      </g>
     </g>
     <g id="text_4">
      <!-- 100 -->
      <g transform="translate(171.783292 322.182437) scale(0.1 -0.1)">
       <defs>
        <path id="DejaVuSans-30" d="M 2034 4250 
Q 1547 4250 1301 3770 
Q 1056 3291 1056 2328 
Q 1056 1369 1301 889 
Q 1547 409 2034 409 
Q 2525 409 2770 889 
Q 3016 1369 3016 2328 
Q 3016 3291 2770 3770 
Q 2525 4250 2034 4250 
z
M 2034 4750 
Q 2819 4750 3233 4129 
Q 3647 3509 3647 2328 
Q 3647 1150 3233 529 
Q 2819 -91 2034 -91 
Q 1250 -91 836 529 
Q 422 1150 422 2328 
Q 422 3509 836 4129 
Q 1250 4750 2034 4750 
z
" transform="scale(0.015625)"/>
       </defs>
       <use xlink:href="#DejaVuSans-31"/>
       <use xlink:href="#DejaVuSans-30" x="63.623047"/>
       <use xlink:href="#DejaVuSans-30" x="127.246094"/>
      </g>
     </g>
    </g>
    <g id="xtick_5">
     <g id="line2d_5">
      <g>
       <use xlink:href="#m86528d43a1" x="217.15848" y="307.584" style="stroke: #000000; stroke-width: 0.8"/>
      </g>
     </g>
     <g id="text_5">
      <!-- 133 -->
      <g transform="translate(207.61473 322.182437) scale(0.1 -0.1)">
       <use xlink:href="#DejaVuSans-31"/>
       <use xlink:href="#DejaVuSans-33" x="63.623047"/>
       <use xlink:href="#DejaVuSans-33" x="127.246094"/>
      </g>
     </g>
    </g>
    <g id="xtick_6">
     <g id="line2d_6">
      <g>
       <use xlink:href="#m86528d43a1" x="254.075719" y="307.584" style="stroke: #000000; stroke-width: 0.8"/>
      </g>
     </g>
     <g id="text_6">
      <!-- 167 -->
      <g transform="translate(244.531969 322.182437) scale(0.1 -0.1)">
       <use xlink:href="#DejaVuSans-31"/>
       <use xlink:href="#DejaVuSans-36" x="63.623047"/>
       <use xlink:href="#DejaVuSans-37" x="127.246094"/>
      </g>
     </g>
    </g>
    <g id="xtick_7">
     <g id="line2d_7">
      <g>
       <use xlink:href="#m86528d43a1" x="289.907157" y="307.584" style="stroke: #000000; stroke-width: 0.8"/>
      </g>
     </g>
     <g id="text_7">
      <!-- 200 -->
      <g transform="translate(280.363407 322.182437) scale(0.1 -0.1)">
       <defs>
        <path id="DejaVuSans-32" d="M 1228 531 
L 3431 531 
L 3431 0 
L 469 0 
L 469 531 
Q 828 903 1448 1529 
Q 2069 2156 2228 2338 
Q 2531 2678 2651 2914 
Q 2772 3150 2772 3378 
Q 2772 3750 2511 3984 
Q 2250 4219 1831 4219 
Q 1534 4219 1204 4116 
Q 875 4013 500 3803 
L 500 4441 
Q 881 4594 1212 4672 
Q 1544 4750 1819 4750 
Q 2544 4750 2975 4387 
Q 3406 4025 3406 3419 
Q 3406 3131 3298 2873 
Q 3191 2616 2906 2266 
Q 2828 2175 2409 1742 
Q 1991 1309 1228 531 
z
" transform="scale(0.015625)"/>
       </defs>
       <use xlink:href="#DejaVuSans-32"/>
       <use xlink:href="#DejaVuSans-30" x="63.623047"/>
       <use xlink:href="#DejaVuSans-30" x="127.246094"/>
      </g>
     </g>
    </g>
    <g id="xtick_8">
     <g id="line2d_8">
      <g>
       <use xlink:href="#m86528d43a1" x="325.738595" y="307.584" style="stroke: #000000; stroke-width: 0.8"/>
      </g>
     </g>
     <g id="text_8">
      <!-- 233 -->
      <g transform="translate(316.194845 322.182437) scale(0.1 -0.1)">
       <use xlink:href="#DejaVuSans-32"/>
       <use xlink:href="#DejaVuSans-33" x="63.623047"/>
       <use xlink:href="#DejaVuSans-33" x="127.246094"/>
      </g>
     </g>
    </g>
    <g id="xtick_9">
     <g id="line2d_9">
      <g>
       <use xlink:href="#m86528d43a1" x="361.570033" y="307.584" style="stroke: #000000; stroke-width: 0.8"/>
      </g>
     </g>
     <g id="text_9">
      <!-- 266 -->
      <g transform="translate(352.026283 322.182437) scale(0.1 -0.1)">
       <use xlink:href="#DejaVuSans-32"/>
       <use xlink:href="#DejaVuSans-36" x="63.623047"/>
       <use xlink:href="#DejaVuSans-36" x="127.246094"/>
      </g>
     </g>
    </g>
    <g id="xtick_10">
     <g id="line2d_10">
      <g>
       <use xlink:href="#m86528d43a1" x="398.487273" y="307.584" style="stroke: #000000; stroke-width: 0.8"/>
      </g>
     </g>
     <g id="text_10">
      <!-- 300 -->
      <g transform="translate(388.943523 322.182437) scale(0.1 -0.1)">
       <use xlink:href="#DejaVuSans-33"/>
       <use xlink:href="#DejaVuSans-30" x="63.623047"/>
       <use xlink:href="#DejaVuSans-30" x="127.246094"/>
      </g>
     </g>
    </g>
    <g id="text_11">
     <!-- Epochs -->
     <g transform="translate(218.244375 335.860562) scale(0.1 -0.1)">
      <defs>
       <path id="DejaVuSans-45" d="M 628 4666 
L 3578 4666 
L 3578 4134 
L 1259 4134 
L 1259 2753 
L 3481 2753 
L 3481 2222 
L 1259 2222 
L 1259 531 
L 3634 531 
L 3634 0 
L 628 0 
L 628 4666 
z
" transform="scale(0.015625)"/>
       <path id="DejaVuSans-70" d="M 1159 525 
L 1159 -1331 
L 581 -1331 
L 581 3500 
L 1159 3500 
L 1159 2969 
Q 1341 3281 1617 3432 
Q 1894 3584 2278 3584 
Q 2916 3584 3314 3078 
Q 3713 2572 3713 1747 
Q 3713 922 3314 415 
Q 2916 -91 2278 -91 
Q 1894 -91 1617 61 
Q 1341 213 1159 525 
z
M 3116 1747 
Q 3116 2381 2855 2742 
Q 2594 3103 2138 3103 
Q 1681 3103 1420 2742 
Q 1159 2381 1159 1747 
Q 1159 1113 1420 752 
Q 1681 391 2138 391 
Q 2594 391 2855 752 
Q 3116 1113 3116 1747 
z
" transform="scale(0.015625)"/>
       <path id="DejaVuSans-6f" d="M 1959 3097 
Q 1497 3097 1228 2736 
Q 959 2375 959 1747 
Q 959 1119 1226 758 
Q 1494 397 1959 397 
Q 2419 397 2687 759 
Q 2956 1122 2956 1747 
Q 2956 2369 2687 2733 
Q 2419 3097 1959 3097 
z
M 1959 3584 
Q 2709 3584 3137 3096 
Q 3566 2609 3566 1747 
Q 3566 888 3137 398 
Q 2709 -91 1959 -91 
Q 1206 -91 779 398 
Q 353 888 353 1747 
Q 353 2609 779 3096 
Q 1206 3584 1959 3584 
z
" transform="scale(0.015625)"/>
       <path id="DejaVuSans-63" d="M 3122 3366 
L 3122 2828 
Q 2878 2963 2633 3030 
Q 2388 3097 2138 3097 
Q 1578 3097 1268 2742 
Q 959 2388 959 1747 
Q 959 1106 1268 751 
Q 1578 397 2138 397 
Q 2388 397 2633 464 
Q 2878 531 3122 666 
L 3122 134 
Q 2881 22 2623 -34 
Q 2366 -91 2075 -91 
Q 1284 -91 818 406 
Q 353 903 353 1747 
Q 353 2603 823 3093 
Q 1294 3584 2113 3584 
Q 2378 3584 2631 3529 
Q 2884 3475 3122 3366 
z
" transform="scale(0.015625)"/>
       <path id="DejaVuSans-68" d="M 3513 2113 
L 3513 0 
L 2938 0 
L 2938 2094 
Q 2938 2591 2744 2837 
Q 2550 3084 2163 3084 
Q 1697 3084 1428 2787 
Q 1159 2491 1159 1978 
L 1159 0 
L 581 0 
L 581 4863 
L 1159 4863 
L 1159 2956 
Q 1366 3272 1645 3428 
Q 1925 3584 2291 3584 
Q 2894 3584 3203 3211 
Q 3513 2838 3513 2113 
z
" transform="scale(0.015625)"/>
       <path id="DejaVuSans-73" d="M 2834 3397 
L 2834 2853 
Q 2591 2978 2328 3040 
Q 2066 3103 1784 3103 
Q 1356 3103 1142 2972 
Q 928 2841 928 2578 
Q 928 2378 1081 2264 
Q 1234 2150 1697 2047 
L 1894 2003 
Q 2506 1872 2764 1633 
Q 3022 1394 3022 966 
Q 3022 478 2636 193 
Q 2250 -91 1575 -91 
Q 1294 -91 989 -36 
Q 684 19 347 128 
L 347 722 
Q 666 556 975 473 
Q 1284 391 1588 391 
Q 1994 391 2212 530 
Q 2431 669 2431 922 
Q 2431 1156 2273 1281 
Q 2116 1406 1581 1522 
L 1381 1569 
Q 847 1681 609 1914 
Q 372 2147 372 2553 
Q 372 3047 722 3315 
Q 1072 3584 1716 3584 
Q 2034 3584 2315 3537 
Q 2597 3491 2834 3397 
z
" transform="scale(0.015625)"/>
      </defs>
      <use xlink:href="#DejaVuSans-45"/>
      <use xlink:href="#DejaVuSans-70" x="63.183594"/>
      <use xlink:href="#DejaVuSans-6f" x="126.660156"/>
      <use xlink:href="#DejaVuSans-63" x="187.841797"/>
      <use xlink:href="#DejaVuSans-68" x="242.822266"/>
      <use xlink:href="#DejaVuSans-73" x="306.201172"/>
     </g>
    </g>
   </g>
   <g id="matplotlib.axis_2">
    <g id="ytick_1">
     <g id="line2d_11">
      <defs>
       <path id="m27affc41e8" d="M 0 0 
L -3.5 0 
" style="stroke: #000000; stroke-width: 0.8"/>
      </defs>
      <g>
       <use xlink:href="#m27affc41e8" x="57.6" y="284.875997" style="stroke: #000000; stroke-width: 0.8"/>
      </g>
     </g>
     <g id="text_12">
      <!-- 10 -->
      <g transform="translate(37.875 288.675216) scale(0.1 -0.1)">
       <use xlink:href="#DejaVuSans-31"/>
       <use xlink:href="#DejaVuSans-30" x="63.623047"/>
      </g>
     </g>
    </g>
    <g id="ytick_2">
     <g id="line2d_12">
      <g>
       <use xlink:href="#m27affc41e8" x="57.6" y="252.502589" style="stroke: #000000; stroke-width: 0.8"/>
      </g>
     </g>
     <g id="text_13">
      <!-- 20 -->
      <g transform="translate(37.875 256.301808) scale(0.1 -0.1)">
       <use xlink:href="#DejaVuSans-32"/>
       <use xlink:href="#DejaVuSans-30" x="63.623047"/>
      </g>
     </g>
    </g>
    <g id="ytick_3">
     <g id="line2d_13">
      <g>
       <use xlink:href="#m27affc41e8" x="57.6" y="220.129182" style="stroke: #000000; stroke-width: 0.8"/>
      </g>
     </g>
     <g id="text_14">
      <!-- 30 -->
      <g transform="translate(37.875 223.928401) scale(0.1 -0.1)">
       <use xlink:href="#DejaVuSans-33"/>
       <use xlink:href="#DejaVuSans-30" x="63.623047"/>
      </g>
     </g>
    </g>
    <g id="ytick_4">
     <g id="line2d_14">
      <g>
       <use xlink:href="#m27affc41e8" x="57.6" y="187.755774" style="stroke: #000000; stroke-width: 0.8"/>
      </g>
     </g>
     <g id="text_15">
      <!-- 40 -->
      <g transform="translate(37.875 191.554993) scale(0.1 -0.1)">
       <use xlink:href="#DejaVuSans-34"/>
       <use xlink:href="#DejaVuSans-30" x="63.623047"/>
      </g>
     </g>
    </g>
    <g id="ytick_5">
     <g id="line2d_15">
      <g>
       <use xlink:href="#m27affc41e8" x="57.6" y="155.382367" style="stroke: #000000; stroke-width: 0.8"/>
      </g>
     </g>
     <g id="text_16">
      <!-- 50 -->
      <g transform="translate(37.875 159.181586) scale(0.1 -0.1)">
       <defs>
        <path id="DejaVuSans-35" d="M 691 4666 
L 3169 4666 
L 3169 4134 
L 1269 4134 
L 1269 2991 
Q 1406 3038 1543 3061 
Q 1681 3084 1819 3084 
Q 2600 3084 3056 2656 
Q 3513 2228 3513 1497 
Q 3513 744 3044 326 
Q 2575 -91 1722 -91 
Q 1428 -91 1123 -41 
Q 819 9 494 109 
L 494 744 
Q 775 591 1075 516 
Q 1375 441 1709 441 
Q 2250 441 2565 725 
Q 2881 1009 2881 1497 
Q 2881 1984 2565 2268 
Q 2250 2553 1709 2553 
Q 1456 2553 1204 2497 
Q 953 2441 691 2322 
L 691 4666 
z
" transform="scale(0.015625)"/>
       </defs>
       <use xlink:href="#DejaVuSans-35"/>
       <use xlink:href="#DejaVuSans-30" x="63.623047"/>
      </g>
     </g>
    </g>
    <g id="ytick_6">
     <g id="line2d_16">
      <g>
       <use xlink:href="#m27affc41e8" x="57.6" y="123.008959" style="stroke: #000000; stroke-width: 0.8"/>
      </g>
     </g>
     <g id="text_17">
      <!-- 60 -->
      <g transform="translate(37.875 126.808178) scale(0.1 -0.1)">
       <use xlink:href="#DejaVuSans-36"/>
       <use xlink:href="#DejaVuSans-30" x="63.623047"/>
      </g>
     </g>
    </g>
    <g id="ytick_7">
     <g id="line2d_17">
      <g>
       <use xlink:href="#m27affc41e8" x="57.6" y="90.635552" style="stroke: #000000; stroke-width: 0.8"/>
      </g>
     </g>
     <g id="text_18">
      <!-- 70 -->
      <g transform="translate(37.875 94.43477) scale(0.1 -0.1)">
       <use xlink:href="#DejaVuSans-37"/>
       <use xlink:href="#DejaVuSans-30" x="63.623047"/>
      </g>
     </g>
    </g>
    <g id="ytick_8">
     <g id="line2d_18">
      <g>
       <use xlink:href="#m27affc41e8" x="57.6" y="58.262144" style="stroke: #000000; stroke-width: 0.8"/>
      </g>
     </g>
     <g id="text_19">
      <!-- 80 -->
      <g transform="translate(37.875 62.061363) scale(0.1 -0.1)">
       <defs>
        <path id="DejaVuSans-38" d="M 2034 2216 
Q 1584 2216 1326 1975 
Q 1069 1734 1069 1313 
Q 1069 891 1326 650 
Q 1584 409 2034 409 
Q 2484 409 2743 651 
Q 3003 894 3003 1313 
Q 3003 1734 2745 1975 
Q 2488 2216 2034 2216 
z
M 1403 2484 
Q 997 2584 770 2862 
Q 544 3141 544 3541 
Q 544 4100 942 4425 
Q 1341 4750 2034 4750 
Q 2731 4750 3128 4425 
Q 3525 4100 3525 3541 
Q 3525 3141 3298 2862 
Q 3072 2584 2669 2484 
Q 3125 2378 3379 2068 
Q 3634 1759 3634 1313 
Q 3634 634 3220 271 
Q 2806 -91 2034 -91 
Q 1263 -91 848 271 
Q 434 634 434 1313 
Q 434 1759 690 2068 
Q 947 2378 1403 2484 
z
M 1172 3481 
Q 1172 3119 1398 2916 
Q 1625 2713 2034 2713 
Q 2441 2713 2670 2916 
Q 2900 3119 2900 3481 
Q 2900 3844 2670 4047 
Q 2441 4250 2034 4250 
Q 1625 4250 1398 4047 
Q 1172 3844 1172 3481 
z
" transform="scale(0.015625)"/>
       </defs>
       <use xlink:href="#DejaVuSans-38"/>
       <use xlink:href="#DejaVuSans-30" x="63.623047"/>
      </g>
     </g>
    </g>
    <g id="text_20">
     <!-- Accuracy -->
     <g transform="translate(31.795312 197.356125) rotate(-90) scale(0.1 -0.1)">
      <defs>
       <path id="DejaVuSans-41" d="M 2188 4044 
L 1331 1722 
L 3047 1722 
L 2188 4044 
z
M 1831 4666 
L 2547 4666 
L 4325 0 
L 3669 0 
L 3244 1197 
L 1141 1197 
L 716 0 
L 50 0 
L 1831 4666 
z
" transform="scale(0.015625)"/>
       <path id="DejaVuSans-75" d="M 544 1381 
L 544 3500 
L 1119 3500 
L 1119 1403 
Q 1119 906 1312 657 
Q 1506 409 1894 409 
Q 2359 409 2629 706 
Q 2900 1003 2900 1516 
L 2900 3500 
L 3475 3500 
L 3475 0 
L 2900 0 
L 2900 538 
Q 2691 219 2414 64 
Q 2138 -91 1772 -91 
Q 1169 -91 856 284 
Q 544 659 544 1381 
z
M 1991 3584 
L 1991 3584 
z
" transform="scale(0.015625)"/>
       <path id="DejaVuSans-72" d="M 2631 2963 
Q 2534 3019 2420 3045 
Q 2306 3072 2169 3072 
Q 1681 3072 1420 2755 
Q 1159 2438 1159 1844 
L 1159 0 
L 581 0 
L 581 3500 
L 1159 3500 
L 1159 2956 
Q 1341 3275 1631 3429 
Q 1922 3584 2338 3584 
Q 2397 3584 2469 3576 
Q 2541 3569 2628 3553 
L 2631 2963 
z
" transform="scale(0.015625)"/>
       <path id="DejaVuSans-61" d="M 2194 1759 
Q 1497 1759 1228 1600 
Q 959 1441 959 1056 
Q 959 750 1161 570 
Q 1363 391 1709 391 
Q 2188 391 2477 730 
Q 2766 1069 2766 1631 
L 2766 1759 
L 2194 1759 
z
M 3341 1997 
L 3341 0 
L 2766 0 
L 2766 531 
Q 2569 213 2275 61 
Q 1981 -91 1556 -91 
Q 1019 -91 701 211 
Q 384 513 384 1019 
Q 384 1609 779 1909 
Q 1175 2209 1959 2209 
L 2766 2209 
L 2766 2266 
Q 2766 2663 2505 2880 
Q 2244 3097 1772 3097 
Q 1472 3097 1187 3025 
Q 903 2953 641 2809 
L 641 3341 
Q 956 3463 1253 3523 
Q 1550 3584 1831 3584 
Q 2591 3584 2966 3190 
Q 3341 2797 3341 1997 
z
" transform="scale(0.015625)"/>
       <path id="DejaVuSans-79" d="M 2059 -325 
Q 1816 -950 1584 -1140 
Q 1353 -1331 966 -1331 
L 506 -1331 
L 506 -850 
L 844 -850 
Q 1081 -850 1212 -737 
Q 1344 -625 1503 -206 
L 1606 56 
L 191 3500 
L 800 3500 
L 1894 763 
L 2988 3500 
L 3597 3500 
L 2059 -325 
z
" transform="scale(0.015625)"/>
      </defs>
      <use xlink:href="#DejaVuSans-41"/>
      <use xlink:href="#DejaVuSans-63" x="66.658203"/>
      <use xlink:href="#DejaVuSans-63" x="121.638672"/>
      <use xlink:href="#DejaVuSans-75" x="176.619141"/>
      <use xlink:href="#DejaVuSans-72" x="239.998047"/>
      <use xlink:href="#DejaVuSans-61" x="281.111328"/>
      <use xlink:href="#DejaVuSans-63" x="342.390625"/>
      <use xlink:href="#DejaVuSans-79" x="397.371094"/>
     </g>
    </g>
   </g>
   <g id="line2d_19">
    <path d="M 73.832727 295.488 
L 76.00433 246.144452 
L 77.090131 224.279453 
L 78.175932 207.943831 
L 79.261733 193.421121 
L 80.347534 184.958712 
L 82.519137 165.567041 
L 83.604938 162.258479 
L 85.77654 149.095451 
L 86.862341 144.84806 
L 89.033943 134.546842 
L 90.119745 133.336076 
L 92.291347 126.14918 
L 93.377148 126.809597 
L 94.462949 123.112554 
L 95.54875 152.170925 
L 96.634552 152.009058 
L 97.720353 147.301964 
L 98.806154 144.951655 
L 99.891955 143.481902 
L 100.977756 138.464024 
L 102.063557 138.328056 
L 103.149358 134.17131 
L 104.23516 131.885748 
L 105.320961 130.901596 
L 106.406762 126.997363 
L 107.492563 126.74485 
L 109.664165 121.798194 
L 110.749967 117.667347 
L 111.835768 119.169473 
L 112.921569 115.498329 
L 114.00737 114.216342 
L 115.093171 111.484026 
L 116.178972 109.476875 
L 117.264773 108.939476 
L 118.350575 105.585591 
L 119.436376 104.277706 
L 120.522177 104.776256 
L 121.607978 101.176333 
L 122.693779 98.029638 
L 123.77958 99.311625 
L 124.865382 97.485765 
L 125.951183 95.355594 
L 128.122785 92.416089 
L 129.208586 91.852792 
L 130.294387 90.149951 
L 131.380189 89.165799 
L 132.46599 87.320515 
L 133.551791 87.10685 
L 134.637592 87.430584 
L 135.723393 85.533503 
L 136.809194 86.433483 
L 137.894995 85.332787 
L 138.980797 112.060273 
L 140.066598 115.718468 
L 141.152399 115.770265 
L 142.2382 115.588974 
L 143.324001 114.067424 
L 144.409802 114.973879 
L 145.495604 114.553025 
L 146.581405 113.160969 
L 147.667206 114.14512 
L 148.753007 113.076798 
L 149.838808 110.661742 
L 150.924609 107.379078 
L 152.01041 108.635166 
L 153.096212 107.54742 
L 154.182013 104.918699 
L 155.267814 106.459673 
L 156.353615 105.889901 
L 157.439416 104.128788 
L 159.611019 104.070516 
L 160.69682 100.638935 
L 161.782621 101.519491 
L 162.868422 99.136808 
L 163.954223 99.117384 
L 165.040024 98.59941 
L 166.125825 97.084334 
L 167.211627 98.521714 
L 168.297428 97.084334 
L 169.383229 97.142607 
L 170.46903 94.64338 
L 171.554831 93.846994 
L 172.640632 93.432614 
L 173.726434 92.480836 
L 174.812235 92.338393 
L 175.898036 92.325444 
L 176.983837 90.642026 
L 178.069638 88.621926 
L 179.155439 89.845641 
L 180.24124 88.796742 
L 181.327042 88.83559 
L 182.412843 87.301091 
L 183.498644 85.429908 
L 184.584445 85.203294 
L 185.670246 83.798288 
L 187.841849 82.186092 
L 188.92765 82.322061 
L 191.099252 81.040074 
L 192.185053 78.871055 
L 193.270854 80.677491 
L 195.442457 76.488373 
L 196.528258 78.210638 
L 197.614059 75.491272 
L 198.69986 74.889126 
L 199.785661 75.303506 
L 201.957264 73.652462 
L 203.043065 73.030893 
L 204.128866 71.017267 
L 205.214667 71.120862 
L 206.300468 70.900722 
L 207.386269 69.43097 
L 208.472071 70.13671 
L 209.557872 69.702906 
L 210.643673 69.010115 
L 211.729474 67.041812 
L 212.815275 68.284951 
L 213.901076 67.313749 
L 214.986877 68.323799 
L 216.072679 66.685705 
L 217.15848 65.66918 
L 218.244281 65.649756 
L 219.330082 68.00654 
L 220.415883 65.753351 
L 221.501684 66.394344 
L 222.587486 65.708028 
L 223.673287 64.808047 
L 224.759088 65.850471 
L 225.844889 95.381493 
L 226.93069 97.867771 
L 228.016491 99.311625 
L 229.102292 100.004416 
L 230.188094 99.505865 
L 231.273895 98.366321 
L 232.359696 98.236828 
L 233.445497 98.320999 
L 234.531298 99.117384 
L 235.617099 97.705904 
L 236.702901 97.997265 
L 237.788702 95.705227 
L 238.874503 96.780024 
L 239.960304 96.592259 
L 241.046105 97.207353 
L 242.131906 96.05486 
L 243.217708 95.802348 
L 244.303509 95.672854 
L 245.38931 95.763499 
L 246.475111 94.63043 
L 247.560912 94.844095 
L 249.732514 94.138354 
L 250.818316 93.801671 
L 251.904117 92.441988 
L 252.989918 91.917539 
L 254.075719 94.345544 
L 255.16152 93.018234 
L 256.247321 91.438412 
L 257.333123 91.632653 
L 258.418924 90.493109 
L 259.504725 90.137001 
L 260.590526 90.512533 
L 261.676327 89.780894 
L 262.762128 90.350666 
L 263.847929 89.424786 
L 266.019532 89.036305 
L 267.105333 89.74852 
L 268.191134 88.485957 
L 270.362736 87.41116 
L 271.448538 88.239919 
L 272.534339 88.466533 
L 273.62014 86.122699 
L 274.705941 85.48818 
L 276.877543 87.385262 
L 277.963344 86.834914 
L 279.049146 84.996104 
L 281.220748 84.044326 
L 282.306549 85.274515 
L 283.39235 85.300414 
L 284.478151 84.67237 
L 285.563953 83.312687 
L 287.735555 82.924206 
L 288.821356 82.995427 
L 289.907157 82.017751 
L 290.992958 80.696916 
L 292.07876 82.360909 
L 293.164561 80.671017 
L 294.250362 80.865257 
L 295.336163 80.10772 
L 296.421964 80.153042 
L 297.507765 79.343707 
L 298.593566 78.97465 
L 299.679368 79.69334 
L 300.765169 79.220688 
L 301.85097 78.035821 
L 302.936771 77.530796 
L 304.022572 78.508473 
L 305.108373 77.621442 
L 306.194175 77.271809 
L 307.279976 75.050993 
L 308.365777 77.414252 
L 309.451578 76.643765 
L 311.62318 75.549544 
L 312.708981 75.711411 
L 313.794783 74.707835 
L 314.880584 75.038044 
L 315.966385 73.425848 
L 317.052186 73.212184 
L 318.137987 73.963247 
L 319.223788 73.069741 
L 320.30959 73.756057 
L 321.395391 71.56114 
L 322.481192 72.370475 
L 323.566993 71.891349 
L 324.652794 69.825925 
L 325.738595 69.787077 
L 326.824396 70.84245 
L 327.910198 69.184932 
L 328.995999 70.285628 
L 330.0818 69.12666 
L 331.167601 68.479192 
L 332.253402 69.307951 
L 333.339203 67.864097 
L 334.425005 67.177781 
L 335.510806 67.598635 
L 336.596607 66.381395 
L 338.768209 66.323123 
L 340.939811 65.073509 
L 342.025613 64.808047 
L 343.111414 63.597282 
L 344.197215 64.872794 
L 345.283016 63.545484 
L 346.368817 63.144054 
L 348.54042 63.31887 
L 349.626221 62.425364 
L 350.712022 62.392991 
L 351.797823 60.968561 
L 352.883624 60.431162 
L 353.969425 60.48296 
L 355.055227 60.949137 
L 357.226829 58.43696 
L 358.31263 60.47001 
L 359.398431 58.922562 
L 360.484232 58.398112 
L 361.570033 58.126176 
L 362.655835 58.631201 
L 363.741636 57.452809 
L 364.827437 57.375113 
L 365.913238 56.598151 
L 366.999039 56.300316 
L 368.08484 57.860714 
L 369.170642 58.624726 
L 371.342244 59.880814 
L 372.428045 60.508859 
L 373.513846 60.6772 
L 374.599647 61.473586 
L 375.685448 61.719624 
L 376.77125 61.169276 
L 377.857051 61.1887 
L 378.942852 61.862067 
L 380.028653 60.696624 
L 381.114454 60.69015 
L 382.200255 61.998035 
L 383.286057 60.741947 
L 384.371858 60.806694 
L 385.457659 61.104529 
L 387.629261 61.162801 
L 388.715062 62.134004 
L 389.800863 62.7232 
L 390.886665 61.648403 
L 391.972466 61.622504 
L 393.058267 61.111004 
L 394.144068 60.288719 
L 395.229869 61.318194 
L 396.31567 60.968561 
L 397.401472 60.308143 
L 398.487273 62.127529 
L 398.487273 62.127529 
" clip-path="url(#p6440f8b4cb)" style="fill: none; stroke: #1f77b4; stroke-width: 1.5; stroke-linecap: square"/>
   </g>
   <g id="line2d_20">
    <path d="M 73.832727 282.739352 
L 76.00433 230.423925 
L 77.090131 204.104345 
L 78.175932 189.698179 
L 79.261733 179.662422 
L 80.347534 168.299356 
L 81.433335 158.716828 
L 82.519137 158.101733 
L 83.604938 148.875312 
L 84.690739 141.947403 
L 85.77654 136.087816 
L 86.862341 131.685032 
L 87.948142 124.206775 
L 89.033943 124.401016 
L 90.119745 120.904688 
L 91.205546 120.095353 
L 93.377148 117.893961 
L 94.462949 116.501904 
L 95.54875 147.709869 
L 96.634552 138.677688 
L 97.720353 135.990696 
L 98.806154 135.958322 
L 100.977756 131.652659 
L 103.149358 123.138453 
L 104.23516 124.336269 
L 105.320961 119.965859 
L 106.406762 116.307664 
L 107.492563 110.739438 
L 108.578364 110.350957 
L 109.664165 109.671115 
L 110.749967 105.365452 
L 111.835768 104.232383 
L 112.921569 104.523743 
L 114.00737 101.772004 
L 115.093171 102.678459 
L 116.178972 96.754126 
L 117.264773 94.844095 
L 118.350575 93.581532 
L 119.436376 94.682228 
L 120.522177 89.95571 
L 121.607978 89.664349 
L 122.693779 88.498907 
L 123.77958 87.624825 
L 124.865382 86.524129 
L 125.951183 84.16087 
L 127.036984 84.193244 
L 128.122785 82.574573 
L 129.208586 80.664542 
L 130.294387 79.466726 
L 132.46599 79.499099 
L 133.551791 78.948752 
L 134.637592 79.175365 
L 135.723393 78.527897 
L 136.809194 77.718562 
L 137.894995 77.556695 
L 138.980797 102.775579 
L 140.066598 104.264756 
L 141.152399 103.034567 
L 142.2382 105.074091 
L 143.324001 103.196434 
L 144.409802 103.908649 
L 145.495604 102.387099 
L 146.581405 104.944598 
L 147.667206 100.315201 
L 148.753007 96.365645 
L 149.838808 96.948366 
L 150.924609 94.941215 
L 152.01041 97.013113 
L 153.096212 96.430392 
L 154.182013 95.491563 
L 155.267814 93.516785 
L 156.353615 95.232576 
L 158.525217 90.182324 
L 159.611019 90.376564 
L 160.69682 90.311818 
L 161.782621 91.47726 
L 162.868422 89.696723 
L 163.954223 91.768621 
L 165.040024 86.135648 
L 166.125825 87.333464 
L 167.211627 85.909034 
L 168.297428 85.617673 
L 169.383229 88.33704 
L 170.46903 83.837136 
L 171.554831 82.606947 
L 172.640632 82.509826 
L 173.726434 83.707642 
L 176.983837 79.952327 
L 178.069638 77.848056 
L 179.155439 80.146568 
L 180.24124 78.786884 
L 181.327042 80.276061 
L 183.498644 76.973974 
L 184.584445 75.063943 
L 185.670246 74.772582 
L 186.756047 72.506443 
L 187.841849 74.125114 
L 188.92765 74.481221 
L 190.013451 72.862551 
L 191.099252 72.506443 
L 192.185053 71.632361 
L 193.270854 69.754704 
L 194.356656 71.664735 
L 195.442457 69.981318 
L 196.528258 67.779926 
L 197.614059 68.395021 
L 198.69986 66.614483 
L 199.785661 66.420243 
L 200.871462 66.420243 
L 201.957264 64.866319 
L 203.043065 64.801572 
L 204.128866 65.06056 
L 205.214667 64.154104 
L 207.386269 64.024611 
L 208.472071 62.438314 
L 209.557872 62.923915 
L 210.643673 62.146953 
L 211.729474 62.664928 
L 212.815275 62.30882 
L 213.901076 62.729674 
L 214.986877 61.628978 
L 217.15848 61.952713 
L 218.244281 60.98151 
L 219.330082 61.531858 
L 221.501684 61.208124 
L 222.587486 61.467111 
L 224.759088 60.916764 
L 225.844889 87.20397 
L 226.93069 87.754318 
L 228.016491 93.516785 
L 230.188094 90.376564 
L 231.273895 92.254222 
L 232.359696 89.243495 
L 233.445497 85.261566 
L 234.531298 87.171597 
L 235.617099 86.329888 
L 236.702901 87.754318 
L 237.788702 87.980932 
L 238.874503 90.247071 
L 239.960304 86.81549 
L 241.046105 88.984508 
L 242.131906 84.516978 
L 243.217708 87.721945 
L 244.303509 86.588876 
L 245.38931 88.401787 
L 246.475111 89.890963 
L 247.560912 89.826216 
L 248.646713 82.930681 
L 249.732514 84.775965 
L 250.818316 84.128497 
L 251.904117 82.024225 
L 252.989918 82.153719 
L 255.16152 84.096123 
L 256.247321 82.83356 
L 257.333123 82.44508 
L 258.418924 83.157295 
L 259.504725 82.768814 
L 260.590526 83.772389 
L 261.676327 82.63932 
L 262.762128 83.545775 
L 263.847929 78.495524 
L 264.933731 80.470302 
L 266.019532 77.071094 
L 267.105333 80.696916 
L 268.191134 79.855207 
L 269.276935 81.21489 
L 270.362736 78.07467 
L 271.448538 82.283213 
L 272.534339 78.884005 
L 273.62014 76.973974 
L 274.705941 76.9416 
L 276.877543 77.459575 
L 277.963344 78.042296 
L 279.049146 74.675462 
L 280.134947 74.902076 
L 281.220748 76.779733 
L 282.306549 74.707835 
L 283.39235 74.157487 
L 284.478151 74.804955 
L 285.563953 73.671886 
L 286.649754 75.22581 
L 287.735555 74.286981 
L 288.821356 71.794228 
L 289.907157 73.930873 
L 290.992958 74.837329 
L 292.07876 74.643088 
L 293.164561 70.693533 
L 294.250362 71.502868 
L 295.336163 68.330274 
L 296.421964 70.823026 
L 297.507765 69.916571 
L 298.593566 72.57119 
L 299.679368 71.114387 
L 300.765169 71.438121 
L 301.85097 69.236729 
L 302.936771 71.211507 
L 304.022572 71.373374 
L 305.108373 71.891349 
L 306.194175 69.204356 
L 307.279976 70.790653 
L 308.365777 70.661159 
L 309.451578 67.715179 
L 310.537379 69.43097 
L 311.62318 68.362647 
L 312.708981 67.585685 
L 313.794783 67.844673 
L 314.880584 67.779926 
L 315.966385 66.614483 
L 317.052186 67.359072 
L 318.137987 67.261951 
L 319.223788 67.423818 
L 320.30959 66.938217 
L 321.395391 64.801572 
L 322.481192 64.542585 
L 323.566993 65.416667 
L 324.652794 66.031762 
L 325.738595 64.574959 
L 326.824396 66.258376 
L 327.910198 64.186478 
L 328.995999 65.546161 
L 330.0818 62.923915 
L 331.167601 64.477838 
L 332.253402 61.531858 
L 333.339203 63.312396 
L 334.425005 62.082206 
L 335.510806 62.891541 
L 336.596607 61.952713 
L 337.682408 63.312396 
L 338.768209 59.945561 
L 339.85401 60.625403 
L 340.939811 59.977935 
L 342.025613 60.301669 
L 343.111414 59.718947 
L 344.197215 59.848441 
L 345.283016 60.398789 
L 346.368817 58.844865 
L 347.454618 59.913188 
L 348.54042 59.751321 
L 350.712022 58.197397 
L 351.797823 56.643474 
L 352.883624 58.585878 
L 353.969425 57.388062 
L 355.055227 57.84129 
L 356.141028 57.84129 
L 358.31263 56.708221 
L 359.398431 56.643474 
L 360.484232 57.388062 
L 361.570033 56.772967 
L 362.655835 55.898885 
L 363.741636 55.219044 
L 364.827437 53.568 
L 365.913238 56.254993 
L 368.08484 57.258568 
L 369.170642 56.157873 
L 370.256443 56.740594 
L 371.342244 57.970783 
L 372.428045 57.679423 
L 373.513846 58.197397 
L 374.599647 56.870088 
L 375.685448 58.488758 
L 376.77125 59.006732 
L 377.857051 57.193822 
L 378.942852 57.647049 
L 381.114454 58.03553 
L 382.200255 59.45996 
L 383.286057 58.747745 
L 384.371858 58.618252 
L 385.457659 59.524707 
L 386.54346 58.553505 
L 387.629261 59.55708 
L 388.715062 59.524707 
L 389.800863 58.682998 
L 390.886665 58.585878 
L 391.972466 59.233346 
L 393.058267 57.193822 
L 394.144068 57.873663 
L 395.229869 58.747745 
L 396.31567 58.909612 
L 397.401472 58.553505 
L 398.487273 58.780119 
L 398.487273 58.780119 
" clip-path="url(#p6440f8b4cb)" style="fill: none; stroke: #ff7f0e; stroke-width: 1.5; stroke-linecap: square"/>
   </g>
   <g id="line2d_21">
    <path d="M 73.832727 285.925219 
L 74.918528 261.678832 
L 76.00433 241.428618 
L 77.090131 225.219576 
L 78.175932 214.503007 
L 79.261733 207.202157 
L 81.433335 194.543183 
L 84.690739 178.624207 
L 85.77654 171.055628 
L 86.862341 167.081469 
L 87.948142 162.549192 
L 89.033943 160.807826 
L 90.119745 158.418669 
L 91.205546 155.605743 
L 92.291347 154.266132 
L 93.377148 153.774703 
L 94.462949 154.132106 
L 95.54875 183.156484 
L 96.634552 170.430498 
L 97.720353 174.694723 
L 98.806154 175.877971 
L 99.891955 177.664336 
L 100.977756 172.328227 
L 102.063557 165.250753 
L 103.149358 164.804 
L 104.23516 163.040296 
L 105.320961 160.963866 
L 106.406762 153.931067 
L 107.492563 149.599829 
L 108.578364 152.613793 
L 109.664165 151.564571 
L 110.749967 148.818335 
L 111.835768 144.196707 
L 112.921569 143.593914 
L 114.00737 142.053587 
L 115.093171 143.884304 
L 116.178972 138.927611 
L 117.264773 137.52131 
L 118.350575 136.449427 
L 119.436376 138.079428 
L 120.522177 133.881892 
L 121.607978 133.100398 
L 122.693779 132.765657 
L 123.77958 131.537733 
L 124.865382 128.166367 
L 125.951183 126.022923 
L 127.036984 127.273184 
L 128.122785 126.2463 
L 129.208586 125.040714 
L 130.294387 122.852596 
L 131.380189 124.370908 
L 132.46599 123.857466 
L 133.551791 123.09831 
L 134.637592 122.004412 
L 135.723393 121.691685 
L 136.809194 121.915062 
L 137.894995 121.155905 
L 138.980797 151.318857 
L 140.066598 153.774703 
L 141.152399 145.089889 
L 142.2382 148.706646 
L 143.324001 146.63054 
L 144.409802 150.827752 
L 145.495604 143.593914 
L 146.581405 150.961778 
L 148.753007 138.012415 
L 149.838808 140.870016 
L 150.924609 141.182743 
L 152.01041 140.959366 
L 155.267814 137.253259 
L 156.353615 140.177872 
L 157.439416 138.704558 
L 158.525217 131.515396 
L 159.611019 134.551698 
L 160.69682 132.475267 
L 161.782621 136.89618 
L 162.868422 134.372996 
L 163.954223 135.087478 
L 165.040024 127.250847 
L 166.125825 133.279099 
L 167.211627 128.456756 
L 168.297428 131.984163 
L 169.383229 129.907732 
L 170.46903 126.826755 
L 172.640632 125.777533 
L 173.726434 124.16987 
L 174.812235 121.289931 
L 175.898036 128.099354 
L 176.983837 124.236883 
L 178.069638 126.715067 
L 179.155439 124.125194 
L 180.24124 124.303896 
L 181.327042 122.27214 
L 182.412843 122.80792 
L 183.498644 122.785583 
L 186.756047 118.119603 
L 187.841849 117.159408 
L 188.92765 117.204084 
L 190.013451 116.556615 
L 191.099252 117.293434 
L 192.185053 118.432007 
L 193.270854 113.877392 
L 194.356656 113.520313 
L 195.442457 110.148947 
L 196.528258 109.412128 
L 197.614059 110.416675 
L 198.69986 109.970246 
L 199.785661 109.38979 
L 200.871462 111.399208 
L 201.957264 107.603749 
L 203.043065 108.318231 
L 204.128866 108.541283 
L 205.214667 106.531866 
L 207.386269 107.469724 
L 208.472071 106.398164 
L 209.557872 107.224009 
L 210.643673 105.32628 
L 211.729474 105.571994 
L 212.815275 104.924526 
L 213.901076 104.411084 
L 214.986877 105.259267 
L 216.072679 104.567124 
L 217.15848 104.522772 
L 218.244281 103.495564 
L 219.330082 103.026797 
L 220.415883 102.982122 
L 221.501684 103.875304 
L 222.587486 103.674265 
L 224.759088 102.937447 
L 225.844889 130.800915 
L 226.93069 133.122735 
L 228.016491 136.382414 
L 229.102292 136.181699 
L 230.188094 137.387284 
L 231.273895 136.092348 
L 232.359696 135.645595 
L 233.445497 131.939487 
L 234.531298 134.685724 
L 235.617099 133.747866 
L 236.702901 126.112274 
L 237.788702 130.421498 
L 238.874503 132.162864 
L 239.960304 132.83267 
L 241.046105 132.586956 
L 242.131906 130.399161 
L 243.217708 132.319227 
L 244.303509 130.220459 
L 245.38931 131.202669 
L 246.475111 130.443836 
L 247.560912 132.989033 
L 248.646713 127.139482 
L 249.732514 133.792541 
L 250.818316 126.536689 
L 251.904117 127.585912 
L 252.989918 124.013506 
L 254.075719 124.437921 
L 255.16152 127.005456 
L 256.247321 126.2463 
L 257.333123 121.870386 
L 258.418924 126.715067 
L 259.504725 125.152403 
L 260.590526 130.957278 
L 261.676327 128.947861 
L 262.762128 127.831626 
L 263.847929 121.691685 
L 264.933731 123.790453 
L 266.019532 123.522401 
L 267.105333 124.460259 
L 268.191134 121.579997 
L 269.276935 125.844546 
L 270.362736 122.093439 
L 271.448538 124.415584 
L 272.534339 123.500064 
L 273.62014 122.138115 
L 274.705941 123.678765 
L 275.791742 119.793956 
L 276.877543 119.280514 
L 277.963344 121.982075 
L 279.049146 121.334607 
L 280.134947 121.267594 
L 281.220748 119.548242 
L 282.306549 121.64701 
L 283.39235 117.226421 
L 284.478151 122.540192 
L 285.563953 116.221551 
L 286.649754 116.199537 
L 287.735555 119.860969 
L 288.821356 119.927982 
L 289.907157 117.806876 
L 290.992958 116.110186 
L 292.07876 115.685771 
L 293.164561 117.650513 
L 295.336163 113.98908 
L 296.421964 115.328692 
L 297.507765 116.065511 
L 298.593566 117.985578 
L 299.679368 112.091351 
L 300.765169 118.007915 
L 301.85097 114.703562 
L 302.936771 115.06064 
L 304.022572 113.788042 
L 305.108373 113.140573 
L 306.194175 116.355576 
L 307.279976 115.306354 
L 308.365777 111.733949 
L 309.451578 111.934988 
L 310.537379 112.98421 
L 311.62318 113.118236 
L 312.708981 111.041805 
L 313.794783 111.778624 
L 314.880584 110.126609 
L 315.966385 111.153494 
L 317.052186 110.640051 
L 318.137987 113.296937 
L 319.223788 109.345115 
L 320.30959 107.31336 
L 321.395391 108.76466 
L 322.481192 108.161867 
L 323.566993 109.278169 
L 324.652794 108.541395 
L 325.738595 106.375726 
L 326.824396 107.55903 
L 327.910198 107.782294 
L 328.995999 107.737641 
L 330.0818 106.866908 
L 331.167601 105.549646 
L 332.253402 106.866908 
L 333.339203 104.723566 
L 334.425005 104.857524 
L 335.510806 106.822255 
L 336.596607 107.514377 
L 337.682408 106.643644 
L 338.768209 101.798796 
L 339.85401 103.517935 
L 340.939811 101.821122 
L 342.025613 102.379284 
L 343.111414 102.490917 
L 344.197215 101.19598 
L 345.283016 103.584915 
L 346.368817 101.374592 
L 347.454618 102.691855 
L 348.54042 101.865775 
L 349.626221 100.146636 
L 350.712022 100.43688 
L 351.797823 100.012677 
L 352.883624 102.200672 
L 353.969425 99.789412 
L 355.055227 98.606108 
L 356.141028 101.731816 
L 357.226829 98.405169 
L 358.31263 98.673087 
L 359.398431 100.950389 
L 360.484232 97.623742 
L 361.570033 98.293537 
L 362.655835 97.087907 
L 363.741636 95.703664 
L 364.827437 96.150194 
L 365.913238 98.003293 
L 366.999039 96.351133 
L 368.08484 98.628434 
L 369.170642 96.775336 
L 370.256443 97.869334 
L 371.342244 101.396919 
L 372.428045 101.687163 
L 373.513846 97.936313 
L 374.599647 100.05733 
L 375.685448 101.151327 
L 376.77125 100.168962 
L 377.857051 100.012677 
L 378.942852 97.824681 
L 380.028653 97.735375 
L 381.114454 100.079656 
L 382.200255 100.302921 
L 383.286057 98.918679 
L 384.371858 98.583781 
L 385.457659 100.146636 
L 386.54346 103.674221 
L 387.629261 102.066713 
L 388.715062 101.106675 
L 389.800863 102.289978 
L 390.886665 100.302921 
L 391.972466 99.767085 
L 393.058267 98.851699 
L 394.144068 101.062022 
L 395.229869 101.329939 
L 396.31567 99.633126 
L 397.401472 99.320555 
L 398.487273 100.682471 
L 398.487273 100.682471 
" clip-path="url(#p6440f8b4cb)" style="fill: none; stroke: #2ca02c; stroke-width: 1.5; stroke-linecap: square"/>
   </g>
   <g id="line2d_22">
    <path d="M 368.08484 56.093126 
L 370.256443 56.578727 
L 371.342244 58.780119 
L 372.428045 57.517556 
L 373.513846 58.359264 
L 374.599647 57.517556 
L 375.685448 56.934834 
L 376.77125 56.934834 
L 377.857051 58.747745 
L 380.028653 55.283791 
L 381.114454 54.830563 
L 382.200255 56.772967 
L 383.286057 57.290942 
L 384.371858 56.999581 
L 385.457659 57.93841 
L 386.54346 57.323315 
L 387.629261 58.003157 
L 388.715062 55.963632 
L 389.800863 56.837714 
L 390.886665 56.6111 
L 391.972466 58.229771 
L 393.058267 59.233346 
L 394.144068 57.679423 
L 395.229869 58.585878 
L 396.31567 57.517556 
L 397.401472 59.006732 
L 398.487273 59.913188 
L 398.487273 59.913188 
" clip-path="url(#p6440f8b4cb)" style="fill: none; stroke: #d62728; stroke-width: 1.5; stroke-linecap: square"/>
   </g>
   <g id="line2d_23">
    <path d="M 368.08484 96.641377 
L 369.170642 96.395786 
L 370.256443 95.659011 
L 371.342244 97.869334 
L 373.513846 98.003293 
L 374.599647 98.71774 
L 375.685448 98.181905 
L 376.77125 97.020927 
L 377.857051 98.382843 
L 378.942852 97.869334 
L 380.028653 96.529744 
L 381.114454 96.730683 
L 382.200255 97.154886 
L 383.286057 98.472149 
L 384.371858 98.695414 
L 385.457659 98.695414 
L 386.54346 94.944564 
L 387.629261 94.20779 
L 388.715062 94.899911 
L 389.800863 97.44513 
L 390.886665 96.909295 
L 391.972466 97.154886 
L 393.058267 96.462765 
L 394.144068 96.261827 
L 395.229869 96.953948 
L 396.31567 95.636685 
L 397.401472 96.68603 
L 398.487273 99.566147 
L 398.487273 99.566147 
" clip-path="url(#p6440f8b4cb)" style="fill: none; stroke: #9467bd; stroke-width: 1.5; stroke-linecap: square"/>
   </g>
   <g id="patch_3">
    <path d="M 57.6 307.584 
L 57.6 41.472 
" style="fill: none; stroke: #000000; stroke-width: 0.8; stroke-linejoin: miter; stroke-linecap: square"/>
   </g>
   <g id="patch_4">
    <path d="M 414.72 307.584 
L 414.72 41.472 
" style="fill: none; stroke: #000000; stroke-width: 0.8; stroke-linejoin: miter; stroke-linecap: square"/>
   </g>
   <g id="patch_5">
    <path d="M 57.6 307.584 
L 414.72 307.584 
" style="fill: none; stroke: #000000; stroke-width: 0.8; stroke-linejoin: miter; stroke-linecap: square"/>
   </g>
   <g id="patch_6">
    <path d="M 57.6 41.472 
L 414.72 41.472 
" style="fill: none; stroke: #000000; stroke-width: 0.8; stroke-linejoin: miter; stroke-linecap: square"/>
   </g>
   <g id="text_21">
    <!-- Learning Curves -->
    <g transform="translate(187.37625 35.472) scale(0.12 -0.12)">
     <defs>
      <path id="DejaVuSans-4c" d="M 628 4666 
L 1259 4666 
L 1259 531 
L 3531 531 
L 3531 0 
L 628 0 
L 628 4666 
z
" transform="scale(0.015625)"/>
      <path id="DejaVuSans-65" d="M 3597 1894 
L 3597 1613 
L 953 1613 
Q 991 1019 1311 708 
Q 1631 397 2203 397 
Q 2534 397 2845 478 
Q 3156 559 3463 722 
L 3463 178 
Q 3153 47 2828 -22 
Q 2503 -91 2169 -91 
Q 1331 -91 842 396 
Q 353 884 353 1716 
Q 353 2575 817 3079 
Q 1281 3584 2069 3584 
Q 2775 3584 3186 3129 
Q 3597 2675 3597 1894 
z
M 3022 2063 
Q 3016 2534 2758 2815 
Q 2500 3097 2075 3097 
Q 1594 3097 1305 2825 
Q 1016 2553 972 2059 
L 3022 2063 
z
" transform="scale(0.015625)"/>
      <path id="DejaVuSans-6e" d="M 3513 2113 
L 3513 0 
L 2938 0 
L 2938 2094 
Q 2938 2591 2744 2837 
Q 2550 3084 2163 3084 
Q 1697 3084 1428 2787 
Q 1159 2491 1159 1978 
L 1159 0 
L 581 0 
L 581 3500 
L 1159 3500 
L 1159 2956 
Q 1366 3272 1645 3428 
Q 1925 3584 2291 3584 
Q 2894 3584 3203 3211 
Q 3513 2838 3513 2113 
z
" transform="scale(0.015625)"/>
      <path id="DejaVuSans-69" d="M 603 3500 
L 1178 3500 
L 1178 0 
L 603 0 
L 603 3500 
z
M 603 4863 
L 1178 4863 
L 1178 4134 
L 603 4134 
L 603 4863 
z
" transform="scale(0.015625)"/>
      <path id="DejaVuSans-67" d="M 2906 1791 
Q 2906 2416 2648 2759 
Q 2391 3103 1925 3103 
Q 1463 3103 1205 2759 
Q 947 2416 947 1791 
Q 947 1169 1205 825 
Q 1463 481 1925 481 
Q 2391 481 2648 825 
Q 2906 1169 2906 1791 
z
M 3481 434 
Q 3481 -459 3084 -895 
Q 2688 -1331 1869 -1331 
Q 1566 -1331 1297 -1286 
Q 1028 -1241 775 -1147 
L 775 -588 
Q 1028 -725 1275 -790 
Q 1522 -856 1778 -856 
Q 2344 -856 2625 -561 
Q 2906 -266 2906 331 
L 2906 616 
Q 2728 306 2450 153 
Q 2172 0 1784 0 
Q 1141 0 747 490 
Q 353 981 353 1791 
Q 353 2603 747 3093 
Q 1141 3584 1784 3584 
Q 2172 3584 2450 3431 
Q 2728 3278 2906 2969 
L 2906 3500 
L 3481 3500 
L 3481 434 
z
" transform="scale(0.015625)"/>
      <path id="DejaVuSans-20" transform="scale(0.015625)"/>
      <path id="DejaVuSans-43" d="M 4122 4306 
L 4122 3641 
Q 3803 3938 3442 4084 
Q 3081 4231 2675 4231 
Q 1875 4231 1450 3742 
Q 1025 3253 1025 2328 
Q 1025 1406 1450 917 
Q 1875 428 2675 428 
Q 3081 428 3442 575 
Q 3803 722 4122 1019 
L 4122 359 
Q 3791 134 3420 21 
Q 3050 -91 2638 -91 
Q 1578 -91 968 557 
Q 359 1206 359 2328 
Q 359 3453 968 4101 
Q 1578 4750 2638 4750 
Q 3056 4750 3426 4639 
Q 3797 4528 4122 4306 
z
" transform="scale(0.015625)"/>
      <path id="DejaVuSans-76" d="M 191 3500 
L 800 3500 
L 1894 563 
L 2988 3500 
L 3597 3500 
L 2284 0 
L 1503 0 
L 191 3500 
z
" transform="scale(0.015625)"/>
     </defs>
     <use xlink:href="#DejaVuSans-4c"/>
     <use xlink:href="#DejaVuSans-65" x="53.962891"/>
     <use xlink:href="#DejaVuSans-61" x="115.486328"/>
     <use xlink:href="#DejaVuSans-72" x="176.765625"/>
     <use xlink:href="#DejaVuSans-6e" x="216.128906"/>
     <use xlink:href="#DejaVuSans-69" x="279.507812"/>
     <use xlink:href="#DejaVuSans-6e" x="307.291016"/>
     <use xlink:href="#DejaVuSans-67" x="370.669922"/>
     <use xlink:href="#DejaVuSans-20" x="434.146484"/>
     <use xlink:href="#DejaVuSans-43" x="465.933594"/>
     <use xlink:href="#DejaVuSans-75" x="535.757812"/>
     <use xlink:href="#DejaVuSans-72" x="599.136719"/>
     <use xlink:href="#DejaVuSans-76" x="640.25"/>
     <use xlink:href="#DejaVuSans-65" x="699.429688"/>
     <use xlink:href="#DejaVuSans-73" x="760.953125"/>
    </g>
   </g>
   <g id="legend_1">
    <g id="patch_7">
     <path d="M 214.18875 302.584 
L 407.72 302.584 
Q 409.72 302.584 409.72 300.584 
L 409.72 228.193375 
Q 409.72 226.193375 407.72 226.193375 
L 214.18875 226.193375 
Q 212.18875 226.193375 212.18875 228.193375 
L 212.18875 300.584 
Q 212.18875 302.584 214.18875 302.584 
z
" style="fill: #ffffff; opacity: 0.8; stroke: #cccccc; stroke-linejoin: miter"/>
    </g>
    <g id="line2d_24">
     <path d="M 216.18875 234.291812 
L 226.18875 234.291812 
L 236.18875 234.291812 
" style="fill: none; stroke: #1f77b4; stroke-width: 1.5; stroke-linecap: square"/>
    </g>
    <g id="text_22">
     <!-- Train Accuracy -->
     <g transform="translate(244.18875 237.791812) scale(0.1 -0.1)">
      <defs>
       <path id="DejaVuSans-54" d="M -19 4666 
L 3928 4666 
L 3928 4134 
L 2272 4134 
L 2272 0 
L 1638 0 
L 1638 4134 
L -19 4134 
L -19 4666 
z
" transform="scale(0.015625)"/>
      </defs>
      <use xlink:href="#DejaVuSans-54"/>
      <use xlink:href="#DejaVuSans-72" x="46.333984"/>
      <use xlink:href="#DejaVuSans-61" x="87.447266"/>
      <use xlink:href="#DejaVuSans-69" x="148.726562"/>
      <use xlink:href="#DejaVuSans-6e" x="176.509766"/>
      <use xlink:href="#DejaVuSans-20" x="239.888672"/>
      <use xlink:href="#DejaVuSans-41" x="271.675781"/>
      <use xlink:href="#DejaVuSans-63" x="338.333984"/>
      <use xlink:href="#DejaVuSans-63" x="393.314453"/>
      <use xlink:href="#DejaVuSans-75" x="448.294922"/>
      <use xlink:href="#DejaVuSans-72" x="511.673828"/>
      <use xlink:href="#DejaVuSans-61" x="552.787109"/>
      <use xlink:href="#DejaVuSans-63" x="614.066406"/>
      <use xlink:href="#DejaVuSans-79" x="669.046875"/>
     </g>
    </g>
    <g id="line2d_25">
     <path d="M 216.18875 248.969937 
L 226.18875 248.969937 
L 236.18875 248.969937 
" style="fill: none; stroke: #ff7f0e; stroke-width: 1.5; stroke-linecap: square"/>
    </g>
    <g id="text_23">
     <!-- Validation Accuracy -->
     <g transform="translate(244.18875 252.469937) scale(0.1 -0.1)">
      <defs>
       <path id="DejaVuSans-56" d="M 1831 0 
L 50 4666 
L 709 4666 
L 2188 738 
L 3669 4666 
L 4325 4666 
L 2547 0 
L 1831 0 
z
" transform="scale(0.015625)"/>
       <path id="DejaVuSans-6c" d="M 603 4863 
L 1178 4863 
L 1178 0 
L 603 0 
L 603 4863 
z
" transform="scale(0.015625)"/>
       <path id="DejaVuSans-64" d="M 2906 2969 
L 2906 4863 
L 3481 4863 
L 3481 0 
L 2906 0 
L 2906 525 
Q 2725 213 2448 61 
Q 2172 -91 1784 -91 
Q 1150 -91 751 415 
Q 353 922 353 1747 
Q 353 2572 751 3078 
Q 1150 3584 1784 3584 
Q 2172 3584 2448 3432 
Q 2725 3281 2906 2969 
z
M 947 1747 
Q 947 1113 1208 752 
Q 1469 391 1925 391 
Q 2381 391 2643 752 
Q 2906 1113 2906 1747 
Q 2906 2381 2643 2742 
Q 2381 3103 1925 3103 
Q 1469 3103 1208 2742 
Q 947 2381 947 1747 
z
" transform="scale(0.015625)"/>
       <path id="DejaVuSans-74" d="M 1172 4494 
L 1172 3500 
L 2356 3500 
L 2356 3053 
L 1172 3053 
L 1172 1153 
Q 1172 725 1289 603 
Q 1406 481 1766 481 
L 2356 481 
L 2356 0 
L 1766 0 
Q 1100 0 847 248 
Q 594 497 594 1153 
L 594 3053 
L 172 3053 
L 172 3500 
L 594 3500 
L 594 4494 
L 1172 4494 
z
" transform="scale(0.015625)"/>
      </defs>
      <use xlink:href="#DejaVuSans-56"/>
      <use xlink:href="#DejaVuSans-61" x="60.658203"/>
      <use xlink:href="#DejaVuSans-6c" x="121.9375"/>
      <use xlink:href="#DejaVuSans-69" x="149.720703"/>
      <use xlink:href="#DejaVuSans-64" x="177.503906"/>
      <use xlink:href="#DejaVuSans-61" x="240.980469"/>
      <use xlink:href="#DejaVuSans-74" x="302.259766"/>
      <use xlink:href="#DejaVuSans-69" x="341.46875"/>
      <use xlink:href="#DejaVuSans-6f" x="369.251953"/>
      <use xlink:href="#DejaVuSans-6e" x="430.433594"/>
      <use xlink:href="#DejaVuSans-20" x="493.8125"/>
      <use xlink:href="#DejaVuSans-41" x="525.599609"/>
      <use xlink:href="#DejaVuSans-63" x="592.257812"/>
      <use xlink:href="#DejaVuSans-63" x="647.238281"/>
      <use xlink:href="#DejaVuSans-75" x="702.21875"/>
      <use xlink:href="#DejaVuSans-72" x="765.597656"/>
      <use xlink:href="#DejaVuSans-61" x="806.710938"/>
      <use xlink:href="#DejaVuSans-63" x="867.990234"/>
      <use xlink:href="#DejaVuSans-79" x="922.970703"/>
     </g>
    </g>
    <g id="line2d_26">
     <path d="M 216.18875 263.648062 
L 226.18875 263.648062 
L 236.18875 263.648062 
" style="fill: none; stroke: #2ca02c; stroke-width: 1.5; stroke-linecap: square"/>
    </g>
    <g id="text_24">
     <!-- Robust Validation Accuracy -->
     <g transform="translate(244.18875 267.148062) scale(0.1 -0.1)">
      <defs>
       <path id="DejaVuSans-52" d="M 2841 2188 
Q 3044 2119 3236 1894 
Q 3428 1669 3622 1275 
L 4263 0 
L 3584 0 
L 2988 1197 
Q 2756 1666 2539 1819 
Q 2322 1972 1947 1972 
L 1259 1972 
L 1259 0 
L 628 0 
L 628 4666 
L 2053 4666 
Q 2853 4666 3247 4331 
Q 3641 3997 3641 3322 
Q 3641 2881 3436 2590 
Q 3231 2300 2841 2188 
z
M 1259 4147 
L 1259 2491 
L 2053 2491 
Q 2509 2491 2742 2702 
Q 2975 2913 2975 3322 
Q 2975 3731 2742 3939 
Q 2509 4147 2053 4147 
L 1259 4147 
z
" transform="scale(0.015625)"/>
       <path id="DejaVuSans-62" d="M 3116 1747 
Q 3116 2381 2855 2742 
Q 2594 3103 2138 3103 
Q 1681 3103 1420 2742 
Q 1159 2381 1159 1747 
Q 1159 1113 1420 752 
Q 1681 391 2138 391 
Q 2594 391 2855 752 
Q 3116 1113 3116 1747 
z
M 1159 2969 
Q 1341 3281 1617 3432 
Q 1894 3584 2278 3584 
Q 2916 3584 3314 3078 
Q 3713 2572 3713 1747 
Q 3713 922 3314 415 
Q 2916 -91 2278 -91 
Q 1894 -91 1617 61 
Q 1341 213 1159 525 
L 1159 0 
L 581 0 
L 581 4863 
L 1159 4863 
L 1159 2969 
z
" transform="scale(0.015625)"/>
      </defs>
      <use xlink:href="#DejaVuSans-52"/>
      <use xlink:href="#DejaVuSans-6f" x="64.982422"/>
      <use xlink:href="#DejaVuSans-62" x="126.164062"/>
      <use xlink:href="#DejaVuSans-75" x="189.640625"/>
      <use xlink:href="#DejaVuSans-73" x="253.019531"/>
      <use xlink:href="#DejaVuSans-74" x="305.119141"/>
      <use xlink:href="#DejaVuSans-20" x="344.328125"/>
      <use xlink:href="#DejaVuSans-56" x="376.115234"/>
      <use xlink:href="#DejaVuSans-61" x="436.773438"/>
      <use xlink:href="#DejaVuSans-6c" x="498.052734"/>
      <use xlink:href="#DejaVuSans-69" x="525.835938"/>
      <use xlink:href="#DejaVuSans-64" x="553.619141"/>
      <use xlink:href="#DejaVuSans-61" x="617.095703"/>
      <use xlink:href="#DejaVuSans-74" x="678.375"/>
      <use xlink:href="#DejaVuSans-69" x="717.583984"/>
      <use xlink:href="#DejaVuSans-6f" x="745.367188"/>
      <use xlink:href="#DejaVuSans-6e" x="806.548828"/>
      <use xlink:href="#DejaVuSans-20" x="869.927734"/>
      <use xlink:href="#DejaVuSans-41" x="901.714844"/>
      <use xlink:href="#DejaVuSans-63" x="968.373047"/>
      <use xlink:href="#DejaVuSans-63" x="1023.353516"/>
      <use xlink:href="#DejaVuSans-75" x="1078.333984"/>
      <use xlink:href="#DejaVuSans-72" x="1141.712891"/>
      <use xlink:href="#DejaVuSans-61" x="1182.826172"/>
      <use xlink:href="#DejaVuSans-63" x="1244.105469"/>
      <use xlink:href="#DejaVuSans-79" x="1299.085938"/>
     </g>
    </g>
    <g id="line2d_27">
     <path d="M 216.18875 278.326188 
L 226.18875 278.326188 
L 236.18875 278.326188 
" style="fill: none; stroke: #d62728; stroke-width: 1.5; stroke-linecap: square"/>
    </g>
    <g id="text_25">
     <!-- SWA Validation Accuracy -->
     <g transform="translate(244.18875 281.826188) scale(0.1 -0.1)">
      <defs>
       <path id="DejaVuSans-53" d="M 3425 4513 
L 3425 3897 
Q 3066 4069 2747 4153 
Q 2428 4238 2131 4238 
Q 1616 4238 1336 4038 
Q 1056 3838 1056 3469 
Q 1056 3159 1242 3001 
Q 1428 2844 1947 2747 
L 2328 2669 
Q 3034 2534 3370 2195 
Q 3706 1856 3706 1288 
Q 3706 609 3251 259 
Q 2797 -91 1919 -91 
Q 1588 -91 1214 -16 
Q 841 59 441 206 
L 441 856 
Q 825 641 1194 531 
Q 1563 422 1919 422 
Q 2459 422 2753 634 
Q 3047 847 3047 1241 
Q 3047 1584 2836 1778 
Q 2625 1972 2144 2069 
L 1759 2144 
Q 1053 2284 737 2584 
Q 422 2884 422 3419 
Q 422 4038 858 4394 
Q 1294 4750 2059 4750 
Q 2388 4750 2728 4690 
Q 3069 4631 3425 4513 
z
" transform="scale(0.015625)"/>
       <path id="DejaVuSans-57" d="M 213 4666 
L 850 4666 
L 1831 722 
L 2809 4666 
L 3519 4666 
L 4500 722 
L 5478 4666 
L 6119 4666 
L 4947 0 
L 4153 0 
L 3169 4050 
L 2175 0 
L 1381 0 
L 213 4666 
z
" transform="scale(0.015625)"/>
      </defs>
      <use xlink:href="#DejaVuSans-53"/>
      <use xlink:href="#DejaVuSans-57" x="63.476562"/>
      <use xlink:href="#DejaVuSans-41" x="156.853516"/>
      <use xlink:href="#DejaVuSans-20" x="225.261719"/>
      <use xlink:href="#DejaVuSans-56" x="257.048828"/>
      <use xlink:href="#DejaVuSans-61" x="317.707031"/>
      <use xlink:href="#DejaVuSans-6c" x="378.986328"/>
      <use xlink:href="#DejaVuSans-69" x="406.769531"/>
      <use xlink:href="#DejaVuSans-64" x="434.552734"/>
      <use xlink:href="#DejaVuSans-61" x="498.029297"/>
      <use xlink:href="#DejaVuSans-74" x="559.308594"/>
      <use xlink:href="#DejaVuSans-69" x="598.517578"/>
      <use xlink:href="#DejaVuSans-6f" x="626.300781"/>
      <use xlink:href="#DejaVuSans-6e" x="687.482422"/>
      <use xlink:href="#DejaVuSans-20" x="750.861328"/>
      <use xlink:href="#DejaVuSans-41" x="782.648438"/>
      <use xlink:href="#DejaVuSans-63" x="849.306641"/>
      <use xlink:href="#DejaVuSans-63" x="904.287109"/>
      <use xlink:href="#DejaVuSans-75" x="959.267578"/>
      <use xlink:href="#DejaVuSans-72" x="1022.646484"/>
      <use xlink:href="#DejaVuSans-61" x="1063.759766"/>
      <use xlink:href="#DejaVuSans-63" x="1125.039062"/>
      <use xlink:href="#DejaVuSans-79" x="1180.019531"/>
     </g>
    </g>
    <g id="line2d_28">
     <path d="M 216.18875 293.004312 
L 226.18875 293.004312 
L 236.18875 293.004312 
" style="fill: none; stroke: #9467bd; stroke-width: 1.5; stroke-linecap: square"/>
    </g>
    <g id="text_26">
     <!-- SWA Robust Validation Accuracy -->
     <g transform="translate(244.18875 296.504312) scale(0.1 -0.1)">
      <use xlink:href="#DejaVuSans-53"/>
      <use xlink:href="#DejaVuSans-57" x="63.476562"/>
      <use xlink:href="#DejaVuSans-41" x="156.853516"/>
      <use xlink:href="#DejaVuSans-20" x="225.261719"/>
      <use xlink:href="#DejaVuSans-52" x="257.048828"/>
      <use xlink:href="#DejaVuSans-6f" x="322.03125"/>
      <use xlink:href="#DejaVuSans-62" x="383.212891"/>
      <use xlink:href="#DejaVuSans-75" x="446.689453"/>
      <use xlink:href="#DejaVuSans-73" x="510.068359"/>
      <use xlink:href="#DejaVuSans-74" x="562.167969"/>
      <use xlink:href="#DejaVuSans-20" x="601.376953"/>
      <use xlink:href="#DejaVuSans-56" x="633.164062"/>
      <use xlink:href="#DejaVuSans-61" x="693.822266"/>
      <use xlink:href="#DejaVuSans-6c" x="755.101562"/>
      <use xlink:href="#DejaVuSans-69" x="782.884766"/>
      <use xlink:href="#DejaVuSans-64" x="810.667969"/>
      <use xlink:href="#DejaVuSans-61" x="874.144531"/>
      <use xlink:href="#DejaVuSans-74" x="935.423828"/>
      <use xlink:href="#DejaVuSans-69" x="974.632812"/>
      <use xlink:href="#DejaVuSans-6f" x="1002.416016"/>
      <use xlink:href="#DejaVuSans-6e" x="1063.597656"/>
      <use xlink:href="#DejaVuSans-20" x="1126.976562"/>
      <use xlink:href="#DejaVuSans-41" x="1158.763672"/>
      <use xlink:href="#DejaVuSans-63" x="1225.421875"/>
      <use xlink:href="#DejaVuSans-63" x="1280.402344"/>
      <use xlink:href="#DejaVuSans-75" x="1335.382812"/>
      <use xlink:href="#DejaVuSans-72" x="1398.761719"/>
      <use xlink:href="#DejaVuSans-61" x="1439.875"/>
      <use xlink:href="#DejaVuSans-63" x="1501.154297"/>
      <use xlink:href="#DejaVuSans-79" x="1556.134766"/>
     </g>
    </g>
   </g>
  </g>
 </g>
 <defs>
  <clipPath id="p6440f8b4cb">
   <rect x="57.6" y="41.472" width="357.12" height="266.112"/>
  </clipPath>
 </defs>
</svg>
