<?xml version="1.0" encoding="utf-8" standalone="no"?>
<!DOCTYPE svg PUBLIC "-//W3C//DTD SVG 1.1//EN"
  "http://www.w3.org/Graphics/SVG/1.1/DTD/svg11.dtd">
<svg xmlns:xlink="http://www.w3.org/1999/xlink" width="460.8pt" height="345.6pt" viewBox="0 0 460.8 345.6" xmlns="http://www.w3.org/2000/svg" version="1.1">
 <metadata>
  <rdf:RDF xmlns:dc="http://purl.org/dc/elements/1.1/" xmlns:cc="http://creativecommons.org/ns#" xmlns:rdf="http://www.w3.org/1999/02/22-rdf-syntax-ns#">
   <cc:Work>
    <dc:type rdf:resource="http://purl.org/dc/dcmitype/StillImage"/>
    <dc:date>2025-07-13T01:12:58.960293</dc:date>
    <dc:format>image/svg+xml</dc:format>
    <dc:creator>
     <cc:Agent>
      <dc:title>Matplotlib v3.9.1, https://matplotlib.org/</dc:title>
     </cc:Agent>
    </dc:creator>
   </cc:Work>
  </rdf:RDF>
 </metadata>
 <defs>
  <style type="text/css">*{stroke-linejoin: round; stroke-linecap: butt}</style>
 </defs>
 <g id="figure_1">
  <g id="patch_1">
   <path d="M 0 345.6 
L 460.8 345.6 
L 460.8 0 
L 0 0 
z
" style="fill: #ffffff"/>
  </g>
  <g id="axes_1">
   <g id="patch_2">
    <path d="M 57.6 307.584 
L 414.72 307.584 
L 414.72 41.472 
L 57.6 41.472 
z
" style="fill: #ffffff"/>
   </g>
   <g id="matplotlib.axis_1">
    <g id="xtick_1">
     <g id="line2d_1">
      <defs>
       <path id="mc4c916735a" d="M 0 0 
L 0 3.5 
" style="stroke: #000000; stroke-width: 0.8"/>
      </defs>
      <g>
       <use xlink:href="#mc4c916735a" x="73.832727" y="307.584" style="stroke: #000000; stroke-width: 0.8"/>
      </g>
     </g>
     <g id="text_1">
      <!-- 1 -->
      <g transform="translate(70.651477 322.182437) scale(0.1 -0.1)">
       <defs>
        <path id="DejaVuSans-31" d="M 794 531 
L 1825 531 
L 1825 4091 
L 703 3866 
L 703 4441 
L 1819 4666 
L 2450 4666 
L 2450 531 
L 3481 531 
L 3481 0 
L 794 0 
L 794 531 
z
" transform="scale(0.015625)"/>
       </defs>
       <use xlink:href="#DejaVuSans-31"/>
      </g>
     </g>
    </g>
    <g id="xtick_2">
     <g id="line2d_2">
      <g>
       <use xlink:href="#mc4c916735a" x="109.664165" y="307.584" style="stroke: #000000; stroke-width: 0.8"/>
      </g>
     </g>
     <g id="text_2">
      <!-- 34 -->
      <g transform="translate(103.301665 322.182437) scale(0.1 -0.1)">
       <defs>
        <path id="DejaVuSans-33" d="M 2597 2516 
Q 3050 2419 3304 2112 
Q 3559 1806 3559 1356 
Q 3559 666 3084 287 
Q 2609 -91 1734 -91 
Q 1441 -91 1130 -33 
Q 819 25 488 141 
L 488 750 
Q 750 597 1062 519 
Q 1375 441 1716 441 
Q 2309 441 2620 675 
Q 2931 909 2931 1356 
Q 2931 1769 2642 2001 
Q 2353 2234 1838 2234 
L 1294 2234 
L 1294 2753 
L 1863 2753 
Q 2328 2753 2575 2939 
Q 2822 3125 2822 3475 
Q 2822 3834 2567 4026 
Q 2313 4219 1838 4219 
Q 1578 4219 1281 4162 
Q 984 4106 628 3988 
L 628 4550 
Q 988 4650 1302 4700 
Q 1616 4750 1894 4750 
Q 2613 4750 3031 4423 
Q 3450 4097 3450 3541 
Q 3450 3153 3228 2886 
Q 3006 2619 2597 2516 
z
" transform="scale(0.015625)"/>
        <path id="DejaVuSans-34" d="M 2419 4116 
L 825 1625 
L 2419 1625 
L 2419 4116 
z
M 2253 4666 
L 3047 4666 
L 3047 1625 
L 3713 1625 
L 3713 1100 
L 3047 1100 
L 3047 0 
L 2419 0 
L 2419 1100 
L 313 1100 
L 313 1709 
L 2253 4666 
z
" transform="scale(0.015625)"/>
       </defs>
       <use xlink:href="#DejaVuSans-33"/>
       <use xlink:href="#DejaVuSans-34" x="63.623047"/>
      </g>
     </g>
    </g>
    <g id="xtick_3">
     <g id="line2d_3">
      <g>
       <use xlink:href="#mc4c916735a" x="145.495604" y="307.584" style="stroke: #000000; stroke-width: 0.8"/>
      </g>
     </g>
     <g id="text_3">
      <!-- 67 -->
      <g transform="translate(139.133104 322.182437) scale(0.1 -0.1)">
       <defs>
        <path id="DejaVuSans-36" d="M 2113 2584 
Q 1688 2584 1439 2293 
Q 1191 2003 1191 1497 
Q 1191 994 1439 701 
Q 1688 409 2113 409 
Q 2538 409 2786 701 
Q 3034 994 3034 1497 
Q 3034 2003 2786 2293 
Q 2538 2584 2113 2584 
z
M 3366 4563 
L 3366 3988 
Q 3128 4100 2886 4159 
Q 2644 4219 2406 4219 
Q 1781 4219 1451 3797 
Q 1122 3375 1075 2522 
Q 1259 2794 1537 2939 
Q 1816 3084 2150 3084 
Q 2853 3084 3261 2657 
Q 3669 2231 3669 1497 
Q 3669 778 3244 343 
Q 2819 -91 2113 -91 
Q 1303 -91 875 529 
Q 447 1150 447 2328 
Q 447 3434 972 4092 
Q 1497 4750 2381 4750 
Q 2619 4750 2861 4703 
Q 3103 4656 3366 4563 
z
" transform="scale(0.015625)"/>
        <path id="DejaVuSans-37" d="M 525 4666 
L 3525 4666 
L 3525 4397 
L 1831 0 
L 1172 0 
L 2766 4134 
L 525 4134 
L 525 4666 
z
" transform="scale(0.015625)"/>
       </defs>
       <use xlink:href="#DejaVuSans-36"/>
       <use xlink:href="#DejaVuSans-37" x="63.623047"/>
      </g>
     </g>
    </g>
    <g id="xtick_4">
     <g id="line2d_4">
      <g>
       <use xlink:href="#mc4c916735a" x="181.327042" y="307.584" style="stroke: #000000; stroke-width: 0.8"/>
      </g>
     </g>
     <g id="text_4">
      <!-- 100 -->
      <g transform="translate(171.783292 322.182437) scale(0.1 -0.1)">
       <defs>
        <path id="DejaVuSans-30" d="M 2034 4250 
Q 1547 4250 1301 3770 
Q 1056 3291 1056 2328 
Q 1056 1369 1301 889 
Q 1547 409 2034 409 
Q 2525 409 2770 889 
Q 3016 1369 3016 2328 
Q 3016 3291 2770 3770 
Q 2525 4250 2034 4250 
z
M 2034 4750 
Q 2819 4750 3233 4129 
Q 3647 3509 3647 2328 
Q 3647 1150 3233 529 
Q 2819 -91 2034 -91 
Q 1250 -91 836 529 
Q 422 1150 422 2328 
Q 422 3509 836 4129 
Q 1250 4750 2034 4750 
z
" transform="scale(0.015625)"/>
       </defs>
       <use xlink:href="#DejaVuSans-31"/>
       <use xlink:href="#DejaVuSans-30" x="63.623047"/>
       <use xlink:href="#DejaVuSans-30" x="127.246094"/>
      </g>
     </g>
    </g>
    <g id="xtick_5">
     <g id="line2d_5">
      <g>
       <use xlink:href="#mc4c916735a" x="217.15848" y="307.584" style="stroke: #000000; stroke-width: 0.8"/>
      </g>
     </g>
     <g id="text_5">
      <!-- 133 -->
      <g transform="translate(207.61473 322.182437) scale(0.1 -0.1)">
       <use xlink:href="#DejaVuSans-31"/>
       <use xlink:href="#DejaVuSans-33" x="63.623047"/>
       <use xlink:href="#DejaVuSans-33" x="127.246094"/>
      </g>
     </g>
    </g>
    <g id="xtick_6">
     <g id="line2d_6">
      <g>
       <use xlink:href="#mc4c916735a" x="254.075719" y="307.584" style="stroke: #000000; stroke-width: 0.8"/>
      </g>
     </g>
     <g id="text_6">
      <!-- 167 -->
      <g transform="translate(244.531969 322.182437) scale(0.1 -0.1)">
       <use xlink:href="#DejaVuSans-31"/>
       <use xlink:href="#DejaVuSans-36" x="63.623047"/>
       <use xlink:href="#DejaVuSans-37" x="127.246094"/>
      </g>
     </g>
    </g>
    <g id="xtick_7">
     <g id="line2d_7">
      <g>
       <use xlink:href="#mc4c916735a" x="289.907157" y="307.584" style="stroke: #000000; stroke-width: 0.8"/>
      </g>
     </g>
     <g id="text_7">
      <!-- 200 -->
      <g transform="translate(280.363407 322.182437) scale(0.1 -0.1)">
       <defs>
        <path id="DejaVuSans-32" d="M 1228 531 
L 3431 531 
L 3431 0 
L 469 0 
L 469 531 
Q 828 903 1448 1529 
Q 2069 2156 2228 2338 
Q 2531 2678 2651 2914 
Q 2772 3150 2772 3378 
Q 2772 3750 2511 3984 
Q 2250 4219 1831 4219 
Q 1534 4219 1204 4116 
Q 875 4013 500 3803 
L 500 4441 
Q 881 4594 1212 4672 
Q 1544 4750 1819 4750 
Q 2544 4750 2975 4387 
Q 3406 4025 3406 3419 
Q 3406 3131 3298 2873 
Q 3191 2616 2906 2266 
Q 2828 2175 2409 1742 
Q 1991 1309 1228 531 
z
" transform="scale(0.015625)"/>
       </defs>
       <use xlink:href="#DejaVuSans-32"/>
       <use xlink:href="#DejaVuSans-30" x="63.623047"/>
       <use xlink:href="#DejaVuSans-30" x="127.246094"/>
      </g>
     </g>
    </g>
    <g id="xtick_8">
     <g id="line2d_8">
      <g>
       <use xlink:href="#mc4c916735a" x="325.738595" y="307.584" style="stroke: #000000; stroke-width: 0.8"/>
      </g>
     </g>
     <g id="text_8">
      <!-- 233 -->
      <g transform="translate(316.194845 322.182437) scale(0.1 -0.1)">
       <use xlink:href="#DejaVuSans-32"/>
       <use xlink:href="#DejaVuSans-33" x="63.623047"/>
       <use xlink:href="#DejaVuSans-33" x="127.246094"/>
      </g>
     </g>
    </g>
    <g id="xtick_9">
     <g id="line2d_9">
      <g>
       <use xlink:href="#mc4c916735a" x="361.570033" y="307.584" style="stroke: #000000; stroke-width: 0.8"/>
      </g>
     </g>
     <g id="text_9">
      <!-- 266 -->
      <g transform="translate(352.026283 322.182437) scale(0.1 -0.1)">
       <use xlink:href="#DejaVuSans-32"/>
       <use xlink:href="#DejaVuSans-36" x="63.623047"/>
       <use xlink:href="#DejaVuSans-36" x="127.246094"/>
      </g>
     </g>
    </g>
    <g id="xtick_10">
     <g id="line2d_10">
      <g>
       <use xlink:href="#mc4c916735a" x="398.487273" y="307.584" style="stroke: #000000; stroke-width: 0.8"/>
      </g>
     </g>
     <g id="text_10">
      <!-- 300 -->
      <g transform="translate(388.943523 322.182437) scale(0.1 -0.1)">
       <use xlink:href="#DejaVuSans-33"/>
       <use xlink:href="#DejaVuSans-30" x="63.623047"/>
       <use xlink:href="#DejaVuSans-30" x="127.246094"/>
      </g>
     </g>
    </g>
    <g id="text_11">
     <!-- Epochs -->
     <g transform="translate(218.244375 335.860562) scale(0.1 -0.1)">
      <defs>
       <path id="DejaVuSans-45" d="M 628 4666 
L 3578 4666 
L 3578 4134 
L 1259 4134 
L 1259 2753 
L 3481 2753 
L 3481 2222 
L 1259 2222 
L 1259 531 
L 3634 531 
L 3634 0 
L 628 0 
L 628 4666 
z
" transform="scale(0.015625)"/>
       <path id="DejaVuSans-70" d="M 1159 525 
L 1159 -1331 
L 581 -1331 
L 581 3500 
L 1159 3500 
L 1159 2969 
Q 1341 3281 1617 3432 
Q 1894 3584 2278 3584 
Q 2916 3584 3314 3078 
Q 3713 2572 3713 1747 
Q 3713 922 3314 415 
Q 2916 -91 2278 -91 
Q 1894 -91 1617 61 
Q 1341 213 1159 525 
z
M 3116 1747 
Q 3116 2381 2855 2742 
Q 2594 3103 2138 3103 
Q 1681 3103 1420 2742 
Q 1159 2381 1159 1747 
Q 1159 1113 1420 752 
Q 1681 391 2138 391 
Q 2594 391 2855 752 
Q 3116 1113 3116 1747 
z
" transform="scale(0.015625)"/>
       <path id="DejaVuSans-6f" d="M 1959 3097 
Q 1497 3097 1228 2736 
Q 959 2375 959 1747 
Q 959 1119 1226 758 
Q 1494 397 1959 397 
Q 2419 397 2687 759 
Q 2956 1122 2956 1747 
Q 2956 2369 2687 2733 
Q 2419 3097 1959 3097 
z
M 1959 3584 
Q 2709 3584 3137 3096 
Q 3566 2609 3566 1747 
Q 3566 888 3137 398 
Q 2709 -91 1959 -91 
Q 1206 -91 779 398 
Q 353 888 353 1747 
Q 353 2609 779 3096 
Q 1206 3584 1959 3584 
z
" transform="scale(0.015625)"/>
       <path id="DejaVuSans-63" d="M 3122 3366 
L 3122 2828 
Q 2878 2963 2633 3030 
Q 2388 3097 2138 3097 
Q 1578 3097 1268 2742 
Q 959 2388 959 1747 
Q 959 1106 1268 751 
Q 1578 397 2138 397 
Q 2388 397 2633 464 
Q 2878 531 3122 666 
L 3122 134 
Q 2881 22 2623 -34 
Q 2366 -91 2075 -91 
Q 1284 -91 818 406 
Q 353 903 353 1747 
Q 353 2603 823 3093 
Q 1294 3584 2113 3584 
Q 2378 3584 2631 3529 
Q 2884 3475 3122 3366 
z
" transform="scale(0.015625)"/>
       <path id="DejaVuSans-68" d="M 3513 2113 
L 3513 0 
L 2938 0 
L 2938 2094 
Q 2938 2591 2744 2837 
Q 2550 3084 2163 3084 
Q 1697 3084 1428 2787 
Q 1159 2491 1159 1978 
L 1159 0 
L 581 0 
L 581 4863 
L 1159 4863 
L 1159 2956 
Q 1366 3272 1645 3428 
Q 1925 3584 2291 3584 
Q 2894 3584 3203 3211 
Q 3513 2838 3513 2113 
z
" transform="scale(0.015625)"/>
       <path id="DejaVuSans-73" d="M 2834 3397 
L 2834 2853 
Q 2591 2978 2328 3040 
Q 2066 3103 1784 3103 
Q 1356 3103 1142 2972 
Q 928 2841 928 2578 
Q 928 2378 1081 2264 
Q 1234 2150 1697 2047 
L 1894 2003 
Q 2506 1872 2764 1633 
Q 3022 1394 3022 966 
Q 3022 478 2636 193 
Q 2250 -91 1575 -91 
Q 1294 -91 989 -36 
Q 684 19 347 128 
L 347 722 
Q 666 556 975 473 
Q 1284 391 1588 391 
Q 1994 391 2212 530 
Q 2431 669 2431 922 
Q 2431 1156 2273 1281 
Q 2116 1406 1581 1522 
L 1381 1569 
Q 847 1681 609 1914 
Q 372 2147 372 2553 
Q 372 3047 722 3315 
Q 1072 3584 1716 3584 
Q 2034 3584 2315 3537 
Q 2597 3491 2834 3397 
z
" transform="scale(0.015625)"/>
      </defs>
      <use xlink:href="#DejaVuSans-45"/>
      <use xlink:href="#DejaVuSans-70" x="63.183594"/>
      <use xlink:href="#DejaVuSans-6f" x="126.660156"/>
      <use xlink:href="#DejaVuSans-63" x="187.841797"/>
      <use xlink:href="#DejaVuSans-68" x="242.822266"/>
      <use xlink:href="#DejaVuSans-73" x="306.201172"/>
     </g>
    </g>
   </g>
   <g id="matplotlib.axis_2">
    <g id="ytick_1">
     <g id="line2d_11">
      <defs>
       <path id="mcd6bfd9559" d="M 0 0 
L -3.5 0 
" style="stroke: #000000; stroke-width: 0.8"/>
      </defs>
      <g>
       <use xlink:href="#mcd6bfd9559" x="57.6" y="282.348425" style="stroke: #000000; stroke-width: 0.8"/>
      </g>
     </g>
     <g id="text_12">
      <!-- 10 -->
      <g transform="translate(37.875 286.147644) scale(0.1 -0.1)">
       <use xlink:href="#DejaVuSans-31"/>
       <use xlink:href="#DejaVuSans-30" x="63.623047"/>
      </g>
     </g>
    </g>
    <g id="ytick_2">
     <g id="line2d_12">
      <g>
       <use xlink:href="#mcd6bfd9559" x="57.6" y="251.04509" style="stroke: #000000; stroke-width: 0.8"/>
      </g>
     </g>
     <g id="text_13">
      <!-- 20 -->
      <g transform="translate(37.875 254.844309) scale(0.1 -0.1)">
       <use xlink:href="#DejaVuSans-32"/>
       <use xlink:href="#DejaVuSans-30" x="63.623047"/>
      </g>
     </g>
    </g>
    <g id="ytick_3">
     <g id="line2d_13">
      <g>
       <use xlink:href="#mcd6bfd9559" x="57.6" y="219.741755" style="stroke: #000000; stroke-width: 0.8"/>
      </g>
     </g>
     <g id="text_14">
      <!-- 30 -->
      <g transform="translate(37.875 223.540973) scale(0.1 -0.1)">
       <use xlink:href="#DejaVuSans-33"/>
       <use xlink:href="#DejaVuSans-30" x="63.623047"/>
      </g>
     </g>
    </g>
    <g id="ytick_4">
     <g id="line2d_14">
      <g>
       <use xlink:href="#mcd6bfd9559" x="57.6" y="188.43842" style="stroke: #000000; stroke-width: 0.8"/>
      </g>
     </g>
     <g id="text_15">
      <!-- 40 -->
      <g transform="translate(37.875 192.237638) scale(0.1 -0.1)">
       <use xlink:href="#DejaVuSans-34"/>
       <use xlink:href="#DejaVuSans-30" x="63.623047"/>
      </g>
     </g>
    </g>
    <g id="ytick_5">
     <g id="line2d_15">
      <g>
       <use xlink:href="#mcd6bfd9559" x="57.6" y="157.135084" style="stroke: #000000; stroke-width: 0.8"/>
      </g>
     </g>
     <g id="text_16">
      <!-- 50 -->
      <g transform="translate(37.875 160.934303) scale(0.1 -0.1)">
       <defs>
        <path id="DejaVuSans-35" d="M 691 4666 
L 3169 4666 
L 3169 4134 
L 1269 4134 
L 1269 2991 
Q 1406 3038 1543 3061 
Q 1681 3084 1819 3084 
Q 2600 3084 3056 2656 
Q 3513 2228 3513 1497 
Q 3513 744 3044 326 
Q 2575 -91 1722 -91 
Q 1428 -91 1123 -41 
Q 819 9 494 109 
L 494 744 
Q 775 591 1075 516 
Q 1375 441 1709 441 
Q 2250 441 2565 725 
Q 2881 1009 2881 1497 
Q 2881 1984 2565 2268 
Q 2250 2553 1709 2553 
Q 1456 2553 1204 2497 
Q 953 2441 691 2322 
L 691 4666 
z
" transform="scale(0.015625)"/>
       </defs>
       <use xlink:href="#DejaVuSans-35"/>
       <use xlink:href="#DejaVuSans-30" x="63.623047"/>
      </g>
     </g>
    </g>
    <g id="ytick_6">
     <g id="line2d_16">
      <g>
       <use xlink:href="#mcd6bfd9559" x="57.6" y="125.831749" style="stroke: #000000; stroke-width: 0.8"/>
      </g>
     </g>
     <g id="text_17">
      <!-- 60 -->
      <g transform="translate(37.875 129.630968) scale(0.1 -0.1)">
       <use xlink:href="#DejaVuSans-36"/>
       <use xlink:href="#DejaVuSans-30" x="63.623047"/>
      </g>
     </g>
    </g>
    <g id="ytick_7">
     <g id="line2d_17">
      <g>
       <use xlink:href="#mcd6bfd9559" x="57.6" y="94.528414" style="stroke: #000000; stroke-width: 0.8"/>
      </g>
     </g>
     <g id="text_18">
      <!-- 70 -->
      <g transform="translate(37.875 98.327633) scale(0.1 -0.1)">
       <use xlink:href="#DejaVuSans-37"/>
       <use xlink:href="#DejaVuSans-30" x="63.623047"/>
      </g>
     </g>
    </g>
    <g id="ytick_8">
     <g id="line2d_18">
      <g>
       <use xlink:href="#mcd6bfd9559" x="57.6" y="63.225079" style="stroke: #000000; stroke-width: 0.8"/>
      </g>
     </g>
     <g id="text_19">
      <!-- 80 -->
      <g transform="translate(37.875 67.024298) scale(0.1 -0.1)">
       <defs>
        <path id="DejaVuSans-38" d="M 2034 2216 
Q 1584 2216 1326 1975 
Q 1069 1734 1069 1313 
Q 1069 891 1326 650 
Q 1584 409 2034 409 
Q 2484 409 2743 651 
Q 3003 894 3003 1313 
Q 3003 1734 2745 1975 
Q 2488 2216 2034 2216 
z
M 1403 2484 
Q 997 2584 770 2862 
Q 544 3141 544 3541 
Q 544 4100 942 4425 
Q 1341 4750 2034 4750 
Q 2731 4750 3128 4425 
Q 3525 4100 3525 3541 
Q 3525 3141 3298 2862 
Q 3072 2584 2669 2484 
Q 3125 2378 3379 2068 
Q 3634 1759 3634 1313 
Q 3634 634 3220 271 
Q 2806 -91 2034 -91 
Q 1263 -91 848 271 
Q 434 634 434 1313 
Q 434 1759 690 2068 
Q 947 2378 1403 2484 
z
M 1172 3481 
Q 1172 3119 1398 2916 
Q 1625 2713 2034 2713 
Q 2441 2713 2670 2916 
Q 2900 3119 2900 3481 
Q 2900 3844 2670 4047 
Q 2441 4250 2034 4250 
Q 1625 4250 1398 4047 
Q 1172 3844 1172 3481 
z
" transform="scale(0.015625)"/>
       </defs>
       <use xlink:href="#DejaVuSans-38"/>
       <use xlink:href="#DejaVuSans-30" x="63.623047"/>
      </g>
     </g>
    </g>
    <g id="text_20">
     <!-- Accuracy -->
     <g transform="translate(31.795312 197.356125) rotate(-90) scale(0.1 -0.1)">
      <defs>
       <path id="DejaVuSans-41" d="M 2188 4044 
L 1331 1722 
L 3047 1722 
L 2188 4044 
z
M 1831 4666 
L 2547 4666 
L 4325 0 
L 3669 0 
L 3244 1197 
L 1141 1197 
L 716 0 
L 50 0 
L 1831 4666 
z
" transform="scale(0.015625)"/>
       <path id="DejaVuSans-75" d="M 544 1381 
L 544 3500 
L 1119 3500 
L 1119 1403 
Q 1119 906 1312 657 
Q 1506 409 1894 409 
Q 2359 409 2629 706 
Q 2900 1003 2900 1516 
L 2900 3500 
L 3475 3500 
L 3475 0 
L 2900 0 
L 2900 538 
Q 2691 219 2414 64 
Q 2138 -91 1772 -91 
Q 1169 -91 856 284 
Q 544 659 544 1381 
z
M 1991 3584 
L 1991 3584 
z
" transform="scale(0.015625)"/>
       <path id="DejaVuSans-72" d="M 2631 2963 
Q 2534 3019 2420 3045 
Q 2306 3072 2169 3072 
Q 1681 3072 1420 2755 
Q 1159 2438 1159 1844 
L 1159 0 
L 581 0 
L 581 3500 
L 1159 3500 
L 1159 2956 
Q 1341 3275 1631 3429 
Q 1922 3584 2338 3584 
Q 2397 3584 2469 3576 
Q 2541 3569 2628 3553 
L 2631 2963 
z
" transform="scale(0.015625)"/>
       <path id="DejaVuSans-61" d="M 2194 1759 
Q 1497 1759 1228 1600 
Q 959 1441 959 1056 
Q 959 750 1161 570 
Q 1363 391 1709 391 
Q 2188 391 2477 730 
Q 2766 1069 2766 1631 
L 2766 1759 
L 2194 1759 
z
M 3341 1997 
L 3341 0 
L 2766 0 
L 2766 531 
Q 2569 213 2275 61 
Q 1981 -91 1556 -91 
Q 1019 -91 701 211 
Q 384 513 384 1019 
Q 384 1609 779 1909 
Q 1175 2209 1959 2209 
L 2766 2209 
L 2766 2266 
Q 2766 2663 2505 2880 
Q 2244 3097 1772 3097 
Q 1472 3097 1187 3025 
Q 903 2953 641 2809 
L 641 3341 
Q 956 3463 1253 3523 
Q 1550 3584 1831 3584 
Q 2591 3584 2966 3190 
Q 3341 2797 3341 1997 
z
" transform="scale(0.015625)"/>
       <path id="DejaVuSans-79" d="M 2059 -325 
Q 1816 -950 1584 -1140 
Q 1353 -1331 966 -1331 
L 506 -1331 
L 506 -850 
L 844 -850 
Q 1081 -850 1212 -737 
Q 1344 -625 1503 -206 
L 1606 56 
L 191 3500 
L 800 3500 
L 1894 763 
L 2988 3500 
L 3597 3500 
L 2059 -325 
z
" transform="scale(0.015625)"/>
      </defs>
      <use xlink:href="#DejaVuSans-41"/>
      <use xlink:href="#DejaVuSans-63" x="66.658203"/>
      <use xlink:href="#DejaVuSans-63" x="121.638672"/>
      <use xlink:href="#DejaVuSans-75" x="176.619141"/>
      <use xlink:href="#DejaVuSans-72" x="239.998047"/>
      <use xlink:href="#DejaVuSans-61" x="281.111328"/>
      <use xlink:href="#DejaVuSans-63" x="342.390625"/>
      <use xlink:href="#DejaVuSans-79" x="397.371094"/>
     </g>
    </g>
   </g>
   <g id="line2d_19">
    <path d="M 73.832727 295.488 
L 74.918528 280.360663 
L 76.00433 260.185664 
L 77.090131 243.782716 
L 78.175932 229.242317 
L 81.433335 196.561635 
L 82.519137 192.421769 
L 83.604938 182.545567 
L 85.77654 169.225998 
L 86.862341 165.156564 
L 87.948142 161.861888 
L 89.033943 155.162974 
L 90.119745 154.458649 
L 91.205546 150.66312 
L 92.291347 146.257175 
L 93.377148 146.789332 
L 94.462949 142.657292 
L 95.54875 174.109318 
L 96.634552 172.700668 
L 97.720353 167.872128 
L 99.891955 160.33585 
L 100.977756 158.308959 
L 102.063557 155.851648 
L 103.149358 152.345674 
L 104.23516 150.107486 
L 105.320961 145.795451 
L 106.406762 144.74679 
L 107.492563 141.952967 
L 108.578364 139.714778 
L 109.664165 136.34967 
L 110.749967 135.183621 
L 112.921569 130.229868 
L 114.00737 127.529955 
L 115.093171 126.285648 
L 116.178972 122.091001 
L 117.264773 122.724893 
L 118.350575 119.383262 
L 119.436376 115.650339 
L 120.522177 114.805149 
L 121.607978 112.566961 
L 122.693779 111.682642 
L 123.77958 109.593144 
L 124.865382 107.988848 
L 125.951183 104.537655 
L 127.036984 102.70641 
L 128.122785 103.488994 
L 131.380189 97.721354 
L 132.46599 96.140536 
L 133.551791 97.470928 
L 134.637592 95.788373 
L 135.723393 96.22662 
L 136.809194 95.326649 
L 137.894995 93.925825 
L 138.980797 123.210095 
L 140.066598 131.114187 
L 141.152399 129.26729 
L 142.2382 127.029102 
L 143.324001 127.537781 
L 145.495604 124.955256 
L 146.581405 124.767436 
L 148.753007 121.011036 
L 149.838808 121.558844 
L 150.924609 119.891941 
L 152.01041 118.436336 
L 153.096212 117.43463 
L 154.182013 117.52854 
L 155.267814 114.711239 
L 157.439416 113.748662 
L 158.525217 114.085173 
L 159.611019 112.582613 
L 160.69682 111.823507 
L 161.782621 110.813974 
L 162.868422 108.967077 
L 163.954223 107.644512 
L 165.040024 107.143658 
L 166.125825 106.173255 
L 167.211627 104.615914 
L 168.297428 103.535949 
L 169.383229 103.708117 
L 170.46903 102.017737 
L 171.554831 102.150776 
L 172.640632 99.936065 
L 173.726434 99.638684 
L 174.812235 97.940478 
L 175.898036 98.488286 
L 176.983837 96.50835 
L 178.069638 95.38143 
L 179.155439 94.645802 
L 180.24124 93.268455 
L 181.327042 92.744124 
L 182.412843 91.468513 
L 183.498644 90.599846 
L 184.584445 89.535532 
L 185.670246 88.079927 
L 186.756047 88.408612 
L 187.841849 86.397373 
L 188.92765 85.035678 
L 190.013451 84.378308 
L 191.099252 82.930528 
L 192.185053 83.337472 
L 193.270854 82.484456 
L 194.356656 80.97407 
L 195.442457 80.934941 
L 196.528258 78.931527 
L 197.614059 78.422848 
L 198.69986 78.055034 
L 199.785661 76.458564 
L 200.871462 75.848149 
L 201.957264 75.081217 
L 203.043065 75.315992 
L 204.128866 73.774303 
L 205.214667 72.882158 
L 206.300468 71.755238 
L 207.386269 72.796074 
L 208.472071 71.090042 
L 209.557872 69.736173 
L 211.729474 68.898808 
L 212.815275 68.06927 
L 213.901076 69.407488 
L 214.986877 67.818843 
L 216.072679 67.286687 
L 217.15848 67.490158 
L 218.244281 67.88145 
L 219.330082 68.061444 
L 220.415883 67.568417 
L 221.501684 66.206722 
L 222.587486 66.331935 
L 223.673287 66.300632 
L 224.759088 65.06415 
L 225.844889 98.370898 
L 226.93069 103.786375 
L 228.016491 104.600262 
L 229.102292 105.617621 
L 230.188094 105.414149 
L 231.273895 104.169841 
L 232.359696 103.668988 
L 233.445497 102.980315 
L 234.531298 103.676814 
L 235.617099 102.604675 
L 236.702901 102.6125 
L 237.788702 103.379432 
L 238.874503 102.33077 
L 239.960304 101.845569 
L 241.046105 102.949011 
L 242.131906 101.681226 
L 243.217708 100.225621 
L 244.303509 99.873459 
L 245.38931 99.356954 
L 246.475111 97.650922 
L 247.560912 97.603967 
L 248.646713 98.323943 
L 249.732514 97.306585 
L 250.818316 96.445743 
L 251.904117 96.79008 
L 252.989918 96.281401 
L 254.075719 95.608379 
L 255.16152 95.780547 
L 256.247321 94.520588 
L 257.333123 94.677105 
L 259.504725 94.129297 
L 260.590526 93.064983 
L 261.676327 91.703288 
L 262.762128 93.31541 
L 263.847929 92.008496 
L 264.933731 91.186783 
L 266.019532 91.601552 
L 267.105333 91.085047 
L 268.191134 91.241564 
L 269.276935 89.739004 
L 270.362736 90.490284 
L 271.448538 88.479045 
L 272.534339 90.31029 
L 273.62014 88.58078 
L 274.705941 87.062569 
L 275.791742 87.461686 
L 276.877543 87.633854 
L 277.963344 86.929529 
L 279.049146 85.810435 
L 280.134947 86.452154 
L 281.220748 85.724351 
L 283.39235 84.440914 
L 284.478151 85.231324 
L 285.563953 83.861803 
L 286.649754 84.753948 
L 287.735555 83.000961 
L 288.821356 81.811434 
L 289.907157 83.274865 
L 290.992958 82.617495 
L 293.164561 80.707992 
L 295.336163 80.3167 
L 296.421964 79.338471 
L 297.507765 79.064566 
L 298.593566 78.180247 
L 299.679368 77.710697 
L 300.765169 78.415022 
L 301.85097 78.008079 
L 302.936771 75.848149 
L 304.022572 76.763771 
L 305.108373 76.482041 
L 306.194175 77.342883 
L 307.279976 75.425554 
L 308.365777 74.901223 
L 309.451578 74.58819 
L 310.537379 73.656915 
L 311.62318 73.320404 
L 312.708981 73.171714 
L 313.794783 73.578657 
L 314.880584 72.357827 
L 315.966385 72.655209 
L 317.052186 71.144823 
L 318.137987 71.489159 
L 319.223788 70.589188 
L 320.30959 70.557885 
L 321.395391 69.125758 
L 322.481192 69.352707 
L 323.566993 68.16318 
L 324.652794 69.141409 
L 325.738595 67.764062 
L 326.824396 66.824962 
L 327.910198 66.707575 
L 328.995999 65.979772 
L 330.0818 66.230199 
L 332.253402 65.486745 
L 333.339203 65.541526 
L 334.425005 64.226786 
L 335.510806 63.444202 
L 336.596607 63.913752 
L 337.682408 63.358118 
L 338.768209 63.37377 
L 339.85401 61.691215 
L 340.939811 62.52858 
L 342.025613 62.959001 
L 343.111414 60.916458 
L 344.197215 59.891274 
L 345.283016 60.204307 
L 346.368817 60.266914 
L 347.454618 59.186949 
L 350.712022 58.693921 
L 351.797823 56.604424 
L 352.883624 57.504394 
L 353.969425 56.76094 
L 355.055227 56.995715 
L 356.141028 57.003541 
L 357.226829 57.277445 
L 358.31263 55.806188 
L 359.398431 55.626194 
L 360.484232 54.663617 
L 361.570033 54.123634 
L 363.741636 54.914043 
L 364.827437 54.139286 
L 365.913238 53.568 
L 366.999039 55.07056 
L 368.08484 54.334932 
L 369.170642 55.563588 
L 370.256443 55.547936 
L 371.342244 57.222664 
L 372.428045 57.253968 
L 373.513846 57.79395 
L 374.599647 58.560882 
L 375.685448 59.186949 
L 376.77125 57.848731 
L 377.857051 58.286978 
L 378.942852 58.130461 
L 380.028653 57.668737 
L 381.114454 58.725224 
L 382.200255 57.3244 
L 383.286057 58.427843 
L 384.371858 57.864383 
L 385.457659 58.138287 
L 386.54346 57.23049 
L 387.629261 57.073974 
L 388.715062 58.623489 
L 390.886665 57.637434 
L 391.972466 58.240023 
L 393.058267 57.113103 
L 395.229869 57.911338 
L 396.31567 57.394833 
L 397.401472 58.365236 
L 398.487273 58.036551 
L 398.487273 58.036551 
" clip-path="url(#p91b554eea6)" style="fill: none; stroke: #1f77b4; stroke-width: 1.5; stroke-linecap: square"/>
   </g>
   <g id="line2d_20">
    <path d="M 73.832727 285.979612 
L 74.918528 266.039387 
L 76.00433 241.685393 
L 77.090131 222.277325 
L 78.175932 211.822011 
L 79.261733 199.645014 
L 80.347534 193.008706 
L 81.433335 173.444122 
L 82.519137 174.258009 
L 85.77654 152.596101 
L 86.862341 144.645054 
L 87.948142 143.11119 
L 89.033943 142.798157 
L 90.119745 131.215923 
L 91.205546 134.158436 
L 92.291347 129.212509 
L 93.377148 130.026396 
L 94.462949 128.273409 
L 95.54875 160.202811 
L 96.634552 157.542028 
L 97.720353 144.112897 
L 98.806154 147.556264 
L 99.891955 139.886947 
L 100.977756 136.287063 
L 102.063557 128.962083 
L 103.149358 132.468056 
L 104.23516 126.551726 
L 105.320961 126.958669 
L 106.406762 119.978026 
L 107.492563 117.974612 
L 108.578364 121.950136 
L 109.664165 113.811269 
L 111.835768 111.244395 
L 112.921569 111.338305 
L 114.00737 104.326358 
L 115.093171 106.141951 
L 116.178972 104.670695 
L 117.264773 103.825505 
L 119.436376 98.410028 
L 120.522177 96.250097 
L 121.607978 99.161308 
L 122.693779 93.182371 
L 123.77958 93.964954 
L 124.865382 94.058864 
L 125.951183 92.180664 
L 127.036984 92.086754 
L 128.122785 88.20514 
L 129.208586 85.66957 
L 130.294387 86.546064 
L 131.380189 86.953007 
L 133.551791 86.264334 
L 135.723393 85.074807 
L 136.809194 85.419144 
L 137.894995 84.35483 
L 138.980797 113.999089 
L 140.066598 111.400912 
L 141.152399 111.901765 
L 142.2382 111.338305 
L 143.324001 108.646218 
L 144.409802 109.835745 
L 145.495604 109.835745 
L 146.581405 99.662161 
L 147.667206 104.608088 
L 148.753007 100.914294 
L 149.838808 103.481168 
L 150.924609 101.916001 
L 153.096212 97.408321 
L 154.182013 98.503938 
L 155.267814 93.902347 
L 156.353615 94.215381 
L 157.439416 99.098701 
L 158.525217 95.217087 
L 159.611019 93.558011 
L 160.69682 93.871044 
L 161.782621 94.904054 
L 162.868422 93.495404 
L 163.954223 91.805024 
L 165.040024 92.869337 
L 166.125825 93.745831 
L 167.211627 92.180664 
L 168.297428 89.112937 
L 169.383229 89.98943 
L 170.46903 84.667863 
L 171.554831 87.203434 
L 173.726434 87.610377 
L 174.812235 84.793077 
L 175.898036 85.356537 
L 178.069638 81.850563 
L 179.155439 82.00708 
L 180.24124 81.474923 
L 181.327042 83.60355 
L 183.498644 80.348003 
L 184.584445 80.41061 
L 185.670246 77.061153 
L 186.756047 77.812433 
L 187.841849 79.502813 
L 188.92765 74.86992 
L 190.013451 77.31158 
L 191.099252 76.84203 
L 192.185053 75.558593 
L 193.270854 74.86992 
L 194.356656 74.02473 
L 195.442457 73.680393 
L 196.528258 74.58819 
L 197.614059 72.960416 
L 198.69986 72.083923 
L 199.785661 73.461269 
L 200.871462 71.864799 
L 201.957264 71.739586 
L 203.043065 71.270036 
L 204.128866 69.642263 
L 205.214667 69.329229 
L 206.300468 70.737879 
L 207.386269 69.391836 
L 208.472071 69.016196 
L 209.557872 68.358826 
L 210.643673 67.451029 
L 211.729474 67.670152 
L 212.815275 68.264916 
L 213.901076 67.983186 
L 214.986877 67.231906 
L 216.072679 67.388422 
L 217.15848 67.200602 
L 218.244281 67.325816 
L 219.330082 67.044086 
L 220.415883 66.981479 
L 221.501684 66.668446 
L 222.587486 66.230199 
L 223.673287 66.668446 
L 224.759088 66.230199 
L 225.844889 94.622324 
L 226.93069 95.811851 
L 228.016491 94.184077 
L 229.102292 91.617204 
L 230.188094 94.497111 
L 231.273895 94.027561 
L 232.359696 91.241564 
L 233.445497 91.241564 
L 234.531298 91.554597 
L 235.617099 92.243271 
L 236.702901 88.549477 
L 237.788702 91.648507 
L 238.874503 87.015614 
L 239.960304 87.046917 
L 241.046105 90.052037 
L 242.131906 85.85739 
L 243.217708 87.860804 
L 244.303509 88.95642 
L 245.38931 88.39296 
L 246.475111 89.269454 
L 247.560912 82.38272 
L 248.646713 88.048624 
L 249.732514 82.695753 
L 251.904117 85.043504 
L 252.989918 87.579074 
L 254.075719 87.64168 
L 255.16152 84.980897 
L 256.247321 89.081634 
L 257.333123 86.921704 
L 258.418924 84.198313 
L 259.504725 84.480043 
L 260.590526 85.419144 
L 261.676327 86.921704 
L 262.762128 87.17213 
L 263.847929 83.947887 
L 264.933731 84.761773 
L 266.019532 87.015614 
L 267.105333 84.417437 
L 268.191134 86.733884 
L 269.276935 83.79137 
L 270.362736 81.63144 
L 271.448538 80.88016 
L 272.534339 76.904636 
L 273.62014 81.91317 
L 274.705941 78.688926 
L 275.791742 79.534117 
L 276.877543 80.160183 
L 277.963344 78.53241 
L 279.049146 79.815847 
L 280.134947 79.314993 
L 281.220748 77.906343 
L 282.306549 77.843736 
L 283.39235 80.911463 
L 284.478151 82.163597 
L 285.563953 80.848857 
L 286.649754 78.72023 
L 287.735555 79.064566 
L 288.821356 77.843736 
L 289.907157 74.275156 
L 290.992958 78.313286 
L 292.07876 75.99684 
L 293.164561 78.751533 
L 294.250362 79.84715 
L 295.336163 77.937646 
L 296.421964 80.50452 
L 297.507765 75.214256 
L 298.593566 77.248973 
L 299.679368 74.11864 
L 300.765169 76.967243 
L 301.85097 76.716816 
L 302.936771 75.120346 
L 304.022572 71.395249 
L 305.108373 75.71511 
L 306.194175 72.678686 
L 307.279976 74.275156 
L 308.365777 73.774303 
L 309.451578 77.342883 
L 310.537379 73.273449 
L 311.62318 73.55518 
L 312.708981 70.424846 
L 313.794783 71.770889 
L 314.880584 73.617786 
L 315.966385 71.739586 
L 317.052186 72.490866 
L 318.137987 72.303046 
L 319.223788 71.676979 
L 320.30959 70.518756 
L 321.395391 73.805606 
L 322.481192 71.019609 
L 323.566993 70.456149 
L 324.652794 69.704869 
L 325.738595 70.299633 
L 326.824396 69.047499 
L 327.910198 70.643969 
L 328.995999 70.237026 
L 330.0818 70.049206 
L 331.167601 67.670152 
L 333.339203 69.548353 
L 334.425005 68.139703 
L 335.510806 66.449322 
L 336.596607 66.073682 
L 338.768209 68.452736 
L 339.85401 66.605839 
L 340.939811 66.480626 
L 342.025613 64.946762 
L 343.111414 64.915459 
L 344.197215 65.197189 
L 345.283016 64.508516 
L 346.368817 64.101572 
L 347.454618 64.915459 
L 348.54042 64.602426 
L 349.626221 63.788539 
L 350.712022 63.882449 
L 351.797823 64.852852 
L 352.883624 63.193776 
L 353.969425 63.412899 
L 355.055227 62.943349 
L 356.141028 63.256382 
L 357.226829 63.193776 
L 358.31263 62.505102 
L 359.398431 62.692922 
L 360.484232 63.256382 
L 361.570033 63.193776 
L 362.655835 60.783419 
L 363.741636 61.847732 
L 364.827437 61.566002 
L 365.913238 59.969532 
L 366.999039 60.846025 
L 368.08484 62.599012 
L 369.170642 62.285979 
L 370.256443 62.536406 
L 371.342244 62.661619 
L 372.428045 64.946762 
L 373.513846 63.913752 
L 374.599647 64.289392 
L 376.77125 65.760649 
L 377.857051 65.228492 
L 378.942852 65.259796 
L 380.028653 64.258089 
L 381.114454 65.197189 
L 382.200255 65.353706 
L 383.286057 64.351999 
L 384.371858 64.289392 
L 385.457659 66.543232 
L 386.54346 64.289392 
L 387.629261 65.228492 
L 388.715062 64.915459 
L 389.800863 64.132876 
L 390.886665 65.228492 
L 391.972466 65.478919 
L 393.058267 63.913752 
L 394.144068 63.318989 
L 395.229869 65.009369 
L 396.31567 64.070269 
L 397.401472 64.508516 
L 398.487273 63.162472 
L 398.487273 63.162472 
" clip-path="url(#p91b554eea6)" style="fill: none; stroke: #ff7f0e; stroke-width: 1.5; stroke-linecap: square"/>
   </g>
   <g id="line2d_21">
    <path d="M 73.832727 289.688517 
L 74.918528 276.519528 
L 76.00433 253.743653 
L 77.090131 243.165285 
L 78.175932 231.291606 
L 79.261733 228.808928 
L 80.347534 218.554387 
L 81.433335 206.896593 
L 82.519137 209.811042 
L 83.604938 201.283581 
L 84.690739 197.721478 
L 85.77654 191.892581 
L 87.948142 184.336603 
L 89.033943 184.552488 
L 90.119745 175.593258 
L 91.205546 178.831534 
L 92.291347 173.866177 
L 93.377148 175.485315 
L 94.462949 173.650292 
L 95.54875 197.721478 
L 96.634552 198.908845 
L 97.720353 188.222534 
L 98.806154 195.130857 
L 99.891955 183.041293 
L 102.063557 174.190005 
L 103.149358 175.26943 
L 104.23516 176.025028 
L 105.320961 170.412016 
L 106.406762 169.440533 
L 107.492563 164.151349 
L 108.578364 165.770487 
L 109.664165 161.560728 
L 110.749967 161.668671 
L 111.835768 160.157475 
L 112.921569 157.890682 
L 114.00737 160.697188 
L 115.093171 157.566855 
L 117.264773 154.004751 
L 118.350575 153.033268 
L 119.436376 150.874417 
L 120.522177 147.959969 
L 121.607978 149.794992 
L 122.693779 147.852026 
L 123.77958 144.829635 
L 124.865382 143.102555 
L 125.951183 142.88667 
L 127.036984 142.346957 
L 128.122785 139.972221 
L 129.208586 136.302175 
L 130.294387 137.489543 
L 131.380189 136.841888 
L 132.46599 136.94983 
L 133.551791 136.302175 
L 134.637592 136.51806 
L 135.723393 135.65452 
L 136.809194 136.194233 
L 137.894995 135.006865 
L 138.980797 171.167614 
L 140.066598 158.538337 
L 141.152399 160.805131 
L 142.2382 163.503694 
L 143.324001 156.055659 
L 144.409802 163.935464 
L 145.495604 155.947717 
L 146.581405 151.953843 
L 147.667206 150.98236 
L 148.753007 155.192119 
L 149.838808 154.004751 
L 150.924609 151.41413 
L 152.01041 156.163602 
L 153.096212 152.385613 
L 154.182013 150.11882 
L 155.267814 150.442647 
L 156.353615 142.994612 
L 157.439416 149.471164 
L 158.525217 150.442647 
L 159.611019 146.556716 
L 160.69682 146.664658 
L 161.782621 146.232888 
L 162.868422 143.534325 
L 163.954223 143.534325 
L 165.040024 142.562842 
L 166.125825 146.664658 
L 167.211627 148.715567 
L 168.297428 140.296049 
L 169.383229 143.210497 
L 170.46903 136.302175 
L 171.554831 144.397865 
L 172.640632 143.966095 
L 173.726434 140.296049 
L 175.898036 139.432509 
L 176.983837 138.137198 
L 178.069638 132.955957 
L 179.155439 132.848014 
L 180.24124 133.387727 
L 181.327042 136.51806 
L 182.412843 135.438635 
L 183.498644 136.733945 
L 184.584445 134.683037 
L 185.670246 128.42237 
L 186.756047 128.638255 
L 187.841849 132.740071 
L 188.92765 130.149451 
L 190.013451 132.416244 
L 191.099252 127.342945 
L 192.185053 126.263519 
L 193.270854 127.9906 
L 194.356656 123.133186 
L 195.442457 124.212611 
L 196.528258 126.047634 
L 197.614059 123.888784 
L 198.69986 123.457013 
L 199.785661 124.428496 
L 200.871462 121.837875 
L 201.957264 122.377588 
L 203.043065 122.593473 
L 204.128866 119.679025 
L 205.214667 117.736059 
L 207.386269 121.729933 
L 208.472071 118.707542 
L 209.557872 116.980461 
L 210.643673 119.139312 
L 211.729474 117.844002 
L 212.815275 119.571082 
L 213.901076 117.951944 
L 214.986877 116.764576 
L 216.072679 116.440749 
L 217.15848 116.332806 
L 218.244281 115.901036 
L 219.330082 116.332806 
L 220.415883 115.145438 
L 221.501684 115.901036 
L 222.587486 115.577208 
L 223.673287 116.224864 
L 224.759088 114.929553 
L 225.844889 147.204371 
L 226.93069 151.630015 
L 228.016491 147.096429 
L 229.102292 148.391739 
L 230.188094 144.074038 
L 231.273895 145.153463 
L 232.359696 140.188106 
L 233.445497 144.721693 
L 234.531298 143.75021 
L 235.617099 147.852026 
L 236.702901 141.807244 
L 237.788702 144.074038 
L 238.874503 142.023129 
L 239.960304 137.057773 
L 241.046105 145.04552 
L 242.131906 139.324566 
L 243.217708 136.410118 
L 244.303509 144.18198 
L 245.38931 136.08629 
L 246.475111 144.397865 
L 247.560912 134.251267 
L 248.646713 137.3816 
L 249.732514 131.768589 
L 250.818316 138.461026 
L 251.904117 142.4549 
L 252.989918 139.540451 
L 254.075719 139.540451 
L 255.16152 137.921313 
L 256.247321 142.023129 
L 257.333123 135.978348 
L 258.418924 132.308301 
L 259.504725 133.387727 
L 260.590526 135.22275 
L 261.676327 136.51806 
L 262.762128 138.245141 
L 263.847929 137.597486 
L 264.933731 133.495669 
L 266.019532 139.756336 
L 267.105333 135.870405 
L 268.191134 142.670785 
L 269.276935 137.057773 
L 270.362736 133.603612 
L 271.448538 133.279784 
L 272.534339 128.638255 
L 273.62014 128.638255 
L 274.705941 132.092416 
L 275.791742 129.71768 
L 276.877543 128.746198 
L 277.963344 135.978348 
L 279.049146 126.155577 
L 280.134947 129.070025 
L 281.220748 129.070025 
L 282.306549 127.235002 
L 283.39235 133.387727 
L 284.478151 137.057773 
L 285.563953 131.228876 
L 288.821356 127.774715 
L 289.907157 123.672899 
L 290.992958 129.933566 
L 292.07876 127.666772 
L 293.164561 127.666772 
L 294.250362 133.927439 
L 295.336163 128.746198 
L 297.507765 123.888784 
L 298.593566 125.831749 
L 299.679368 122.485531 
L 300.765169 125.507922 
L 301.85097 125.184094 
L 302.936771 127.9906 
L 304.022572 121.514048 
L 305.108373 125.507922 
L 306.194175 122.161703 
L 307.279976 124.320554 
L 308.365777 121.082278 
L 309.451578 126.587347 
L 310.537379 121.62199 
L 311.62318 126.479404 
L 312.708981 120.110795 
L 313.794783 122.809358 
L 314.880584 121.19022 
L 315.966385 124.428496 
L 317.052186 123.241128 
L 318.137987 118.383714 
L 319.223788 120.866393 
L 320.30959 117.736059 
L 321.395391 120.002852 
L 322.481192 123.888784 
L 323.566993 122.593473 
L 324.652794 113.5263 
L 325.738595 119.247255 
L 326.824396 117.951944 
L 327.910198 117.844002 
L 328.995999 111.907162 
L 330.0818 114.713668 
L 331.167601 113.850128 
L 332.253402 114.066013 
L 333.339203 116.116921 
L 334.425005 114.281898 
L 335.510806 113.850128 
L 336.596607 115.685151 
L 337.682408 113.95807 
L 338.768209 113.5263 
L 339.85401 112.554817 
L 340.939811 110.072139 
L 342.025613 111.691277 
L 343.111414 112.015105 
L 344.197215 110.827737 
L 345.283016 111.907162 
L 346.368817 111.79922 
L 347.454618 110.611852 
L 348.54042 111.691277 
L 349.626221 113.418358 
L 350.712022 108.345059 
L 351.797823 108.345059 
L 352.883624 109.424484 
L 353.969425 107.265633 
L 355.055227 106.617978 
L 356.141028 107.589461 
L 357.226829 107.913288 
L 358.31263 108.884771 
L 359.398431 104.890897 
L 360.484232 105.538553 
L 361.570033 103.595587 
L 362.655835 107.157691 
L 363.741636 104.890897 
L 364.827437 104.1353 
L 366.999039 104.1353 
L 368.08484 104.782955 
L 369.170642 103.595587 
L 370.256443 107.049748 
L 371.342244 106.402093 
L 372.428045 108.021231 
L 373.513846 108.129173 
L 374.599647 110.288024 
L 375.685448 114.821611 
L 376.77125 112.986588 
L 377.857051 109.748312 
L 378.942852 108.021231 
L 380.028653 107.697403 
L 381.114454 109.424484 
L 382.200255 110.072139 
L 383.286057 110.935679 
L 384.371858 111.259507 
L 385.457659 114.497783 
L 386.54346 111.36745 
L 387.629261 110.072139 
L 388.715062 114.389841 
L 389.800863 110.935679 
L 390.886665 109.532426 
L 391.972466 112.878645 
L 393.058267 110.288024 
L 394.144068 111.691277 
L 395.229869 112.554817 
L 396.31567 108.776829 
L 397.401472 114.497783 
L 398.487273 109.208599 
L 398.487273 109.208599 
" clip-path="url(#p91b554eea6)" style="fill: none; stroke: #2ca02c; stroke-width: 1.5; stroke-linecap: square"/>
   </g>
   <g id="line2d_22">
    <path d="M 368.08484 60.470385 
L 369.170642 62.160766 
L 370.256443 61.096452 
L 371.342244 63.099866 
L 372.428045 63.381596 
L 373.513846 63.225079 
L 374.599647 65.134582 
L 375.685448 64.852852 
L 376.77125 63.945056 
L 377.857051 63.976359 
L 378.942852 65.572829 
L 380.028653 63.851146 
L 381.114454 63.788539 
L 382.200255 65.917166 
L 383.286057 64.070269 
L 384.371858 64.351999 
L 385.457659 63.694629 
L 386.54346 66.198896 
L 387.629261 64.038966 
L 388.715062 64.038966 
L 389.800863 64.884156 
L 390.886665 64.007662 
L 391.972466 67.670152 
L 393.058267 67.764062 
L 394.144068 67.294512 
L 395.229869 67.357119 
L 396.31567 67.857973 
L 397.401472 67.670152 
L 398.487273 68.671859 
L 398.487273 68.671859 
" clip-path="url(#p91b554eea6)" style="fill: none; stroke: #d62728; stroke-width: 1.5; stroke-linecap: square"/>
   </g>
   <g id="line2d_23">
    <path d="M 368.08484 104.243242 
L 370.256443 105.43061 
L 371.342244 109.208599 
L 372.428045 105.646495 
L 373.513846 108.237116 
L 374.599647 108.237116 
L 375.685448 108.021231 
L 377.857051 106.725921 
L 378.942852 107.913288 
L 380.028653 104.675012 
L 381.114454 105.646495 
L 382.200255 105.86238 
L 383.286057 106.29415 
L 384.371858 107.157691 
L 385.457659 107.697403 
L 386.54346 108.992714 
L 387.629261 107.805346 
L 388.715062 108.129173 
L 389.800863 107.697403 
L 391.972466 108.884771 
L 393.058267 111.151564 
L 394.144068 109.424484 
L 395.229869 109.316541 
L 396.31567 109.532426 
L 397.401472 106.402093 
L 398.487273 107.697403 
L 398.487273 107.697403 
" clip-path="url(#p91b554eea6)" style="fill: none; stroke: #9467bd; stroke-width: 1.5; stroke-linecap: square"/>
   </g>
   <g id="patch_3">
    <path d="M 57.6 307.584 
L 57.6 41.472 
" style="fill: none; stroke: #000000; stroke-width: 0.8; stroke-linejoin: miter; stroke-linecap: square"/>
   </g>
   <g id="patch_4">
    <path d="M 414.72 307.584 
L 414.72 41.472 
" style="fill: none; stroke: #000000; stroke-width: 0.8; stroke-linejoin: miter; stroke-linecap: square"/>
   </g>
   <g id="patch_5">
    <path d="M 57.6 307.584 
L 414.72 307.584 
" style="fill: none; stroke: #000000; stroke-width: 0.8; stroke-linejoin: miter; stroke-linecap: square"/>
   </g>
   <g id="patch_6">
    <path d="M 57.6 41.472 
L 414.72 41.472 
" style="fill: none; stroke: #000000; stroke-width: 0.8; stroke-linejoin: miter; stroke-linecap: square"/>
   </g>
   <g id="text_21">
    <!-- Learning Curves -->
    <g transform="translate(187.37625 35.472) scale(0.12 -0.12)">
     <defs>
      <path id="DejaVuSans-4c" d="M 628 4666 
L 1259 4666 
L 1259 531 
L 3531 531 
L 3531 0 
L 628 0 
L 628 4666 
z
" transform="scale(0.015625)"/>
      <path id="DejaVuSans-65" d="M 3597 1894 
L 3597 1613 
L 953 1613 
Q 991 1019 1311 708 
Q 1631 397 2203 397 
Q 2534 397 2845 478 
Q 3156 559 3463 722 
L 3463 178 
Q 3153 47 2828 -22 
Q 2503 -91 2169 -91 
Q 1331 -91 842 396 
Q 353 884 353 1716 
Q 353 2575 817 3079 
Q 1281 3584 2069 3584 
Q 2775 3584 3186 3129 
Q 3597 2675 3597 1894 
z
M 3022 2063 
Q 3016 2534 2758 2815 
Q 2500 3097 2075 3097 
Q 1594 3097 1305 2825 
Q 1016 2553 972 2059 
L 3022 2063 
z
" transform="scale(0.015625)"/>
      <path id="DejaVuSans-6e" d="M 3513 2113 
L 3513 0 
L 2938 0 
L 2938 2094 
Q 2938 2591 2744 2837 
Q 2550 3084 2163 3084 
Q 1697 3084 1428 2787 
Q 1159 2491 1159 1978 
L 1159 0 
L 581 0 
L 581 3500 
L 1159 3500 
L 1159 2956 
Q 1366 3272 1645 3428 
Q 1925 3584 2291 3584 
Q 2894 3584 3203 3211 
Q 3513 2838 3513 2113 
z
" transform="scale(0.015625)"/>
      <path id="DejaVuSans-69" d="M 603 3500 
L 1178 3500 
L 1178 0 
L 603 0 
L 603 3500 
z
M 603 4863 
L 1178 4863 
L 1178 4134 
L 603 4134 
L 603 4863 
z
" transform="scale(0.015625)"/>
      <path id="DejaVuSans-67" d="M 2906 1791 
Q 2906 2416 2648 2759 
Q 2391 3103 1925 3103 
Q 1463 3103 1205 2759 
Q 947 2416 947 1791 
Q 947 1169 1205 825 
Q 1463 481 1925 481 
Q 2391 481 2648 825 
Q 2906 1169 2906 1791 
z
M 3481 434 
Q 3481 -459 3084 -895 
Q 2688 -1331 1869 -1331 
Q 1566 -1331 1297 -1286 
Q 1028 -1241 775 -1147 
L 775 -588 
Q 1028 -725 1275 -790 
Q 1522 -856 1778 -856 
Q 2344 -856 2625 -561 
Q 2906 -266 2906 331 
L 2906 616 
Q 2728 306 2450 153 
Q 2172 0 1784 0 
Q 1141 0 747 490 
Q 353 981 353 1791 
Q 353 2603 747 3093 
Q 1141 3584 1784 3584 
Q 2172 3584 2450 3431 
Q 2728 3278 2906 2969 
L 2906 3500 
L 3481 3500 
L 3481 434 
z
" transform="scale(0.015625)"/>
      <path id="DejaVuSans-20" transform="scale(0.015625)"/>
      <path id="DejaVuSans-43" d="M 4122 4306 
L 4122 3641 
Q 3803 3938 3442 4084 
Q 3081 4231 2675 4231 
Q 1875 4231 1450 3742 
Q 1025 3253 1025 2328 
Q 1025 1406 1450 917 
Q 1875 428 2675 428 
Q 3081 428 3442 575 
Q 3803 722 4122 1019 
L 4122 359 
Q 3791 134 3420 21 
Q 3050 -91 2638 -91 
Q 1578 -91 968 557 
Q 359 1206 359 2328 
Q 359 3453 968 4101 
Q 1578 4750 2638 4750 
Q 3056 4750 3426 4639 
Q 3797 4528 4122 4306 
z
" transform="scale(0.015625)"/>
      <path id="DejaVuSans-76" d="M 191 3500 
L 800 3500 
L 1894 563 
L 2988 3500 
L 3597 3500 
L 2284 0 
L 1503 0 
L 191 3500 
z
" transform="scale(0.015625)"/>
     </defs>
     <use xlink:href="#DejaVuSans-4c"/>
     <use xlink:href="#DejaVuSans-65" x="53.962891"/>
     <use xlink:href="#DejaVuSans-61" x="115.486328"/>
     <use xlink:href="#DejaVuSans-72" x="176.765625"/>
     <use xlink:href="#DejaVuSans-6e" x="216.128906"/>
     <use xlink:href="#DejaVuSans-69" x="279.507812"/>
     <use xlink:href="#DejaVuSans-6e" x="307.291016"/>
     <use xlink:href="#DejaVuSans-67" x="370.669922"/>
     <use xlink:href="#DejaVuSans-20" x="434.146484"/>
     <use xlink:href="#DejaVuSans-43" x="465.933594"/>
     <use xlink:href="#DejaVuSans-75" x="535.757812"/>
     <use xlink:href="#DejaVuSans-72" x="599.136719"/>
     <use xlink:href="#DejaVuSans-76" x="640.25"/>
     <use xlink:href="#DejaVuSans-65" x="699.429688"/>
     <use xlink:href="#DejaVuSans-73" x="760.953125"/>
    </g>
   </g>
   <g id="legend_1">
    <g id="patch_7">
     <path d="M 214.18875 302.584 
L 407.72 302.584 
Q 409.72 302.584 409.72 300.584 
L 409.72 228.193375 
Q 409.72 226.193375 407.72 226.193375 
L 214.18875 226.193375 
Q 212.18875 226.193375 212.18875 228.193375 
L 212.18875 300.584 
Q 212.18875 302.584 214.18875 302.584 
z
" style="fill: #ffffff; opacity: 0.8; stroke: #cccccc; stroke-linejoin: miter"/>
    </g>
    <g id="line2d_24">
     <path d="M 216.18875 234.291812 
L 226.18875 234.291812 
L 236.18875 234.291812 
" style="fill: none; stroke: #1f77b4; stroke-width: 1.5; stroke-linecap: square"/>
    </g>
    <g id="text_22">
     <!-- Train Accuracy -->
     <g transform="translate(244.18875 237.791812) scale(0.1 -0.1)">
      <defs>
       <path id="DejaVuSans-54" d="M -19 4666 
L 3928 4666 
L 3928 4134 
L 2272 4134 
L 2272 0 
L 1638 0 
L 1638 4134 
L -19 4134 
L -19 4666 
z
" transform="scale(0.015625)"/>
      </defs>
      <use xlink:href="#DejaVuSans-54"/>
      <use xlink:href="#DejaVuSans-72" x="46.333984"/>
      <use xlink:href="#DejaVuSans-61" x="87.447266"/>
      <use xlink:href="#DejaVuSans-69" x="148.726562"/>
      <use xlink:href="#DejaVuSans-6e" x="176.509766"/>
      <use xlink:href="#DejaVuSans-20" x="239.888672"/>
      <use xlink:href="#DejaVuSans-41" x="271.675781"/>
      <use xlink:href="#DejaVuSans-63" x="338.333984"/>
      <use xlink:href="#DejaVuSans-63" x="393.314453"/>
      <use xlink:href="#DejaVuSans-75" x="448.294922"/>
      <use xlink:href="#DejaVuSans-72" x="511.673828"/>
      <use xlink:href="#DejaVuSans-61" x="552.787109"/>
      <use xlink:href="#DejaVuSans-63" x="614.066406"/>
      <use xlink:href="#DejaVuSans-79" x="669.046875"/>
     </g>
    </g>
    <g id="line2d_25">
     <path d="M 216.18875 248.969937 
L 226.18875 248.969937 
L 236.18875 248.969937 
" style="fill: none; stroke: #ff7f0e; stroke-width: 1.5; stroke-linecap: square"/>
    </g>
    <g id="text_23">
     <!-- Validation Accuracy -->
     <g transform="translate(244.18875 252.469937) scale(0.1 -0.1)">
      <defs>
       <path id="DejaVuSans-56" d="M 1831 0 
L 50 4666 
L 709 4666 
L 2188 738 
L 3669 4666 
L 4325 4666 
L 2547 0 
L 1831 0 
z
" transform="scale(0.015625)"/>
       <path id="DejaVuSans-6c" d="M 603 4863 
L 1178 4863 
L 1178 0 
L 603 0 
L 603 4863 
z
" transform="scale(0.015625)"/>
       <path id="DejaVuSans-64" d="M 2906 2969 
L 2906 4863 
L 3481 4863 
L 3481 0 
L 2906 0 
L 2906 525 
Q 2725 213 2448 61 
Q 2172 -91 1784 -91 
Q 1150 -91 751 415 
Q 353 922 353 1747 
Q 353 2572 751 3078 
Q 1150 3584 1784 3584 
Q 2172 3584 2448 3432 
Q 2725 3281 2906 2969 
z
M 947 1747 
Q 947 1113 1208 752 
Q 1469 391 1925 391 
Q 2381 391 2643 752 
Q 2906 1113 2906 1747 
Q 2906 2381 2643 2742 
Q 2381 3103 1925 3103 
Q 1469 3103 1208 2742 
Q 947 2381 947 1747 
z
" transform="scale(0.015625)"/>
       <path id="DejaVuSans-74" d="M 1172 4494 
L 1172 3500 
L 2356 3500 
L 2356 3053 
L 1172 3053 
L 1172 1153 
Q 1172 725 1289 603 
Q 1406 481 1766 481 
L 2356 481 
L 2356 0 
L 1766 0 
Q 1100 0 847 248 
Q 594 497 594 1153 
L 594 3053 
L 172 3053 
L 172 3500 
L 594 3500 
L 594 4494 
L 1172 4494 
z
" transform="scale(0.015625)"/>
      </defs>
      <use xlink:href="#DejaVuSans-56"/>
      <use xlink:href="#DejaVuSans-61" x="60.658203"/>
      <use xlink:href="#DejaVuSans-6c" x="121.9375"/>
      <use xlink:href="#DejaVuSans-69" x="149.720703"/>
      <use xlink:href="#DejaVuSans-64" x="177.503906"/>
      <use xlink:href="#DejaVuSans-61" x="240.980469"/>
      <use xlink:href="#DejaVuSans-74" x="302.259766"/>
      <use xlink:href="#DejaVuSans-69" x="341.46875"/>
      <use xlink:href="#DejaVuSans-6f" x="369.251953"/>
      <use xlink:href="#DejaVuSans-6e" x="430.433594"/>
      <use xlink:href="#DejaVuSans-20" x="493.8125"/>
      <use xlink:href="#DejaVuSans-41" x="525.599609"/>
      <use xlink:href="#DejaVuSans-63" x="592.257812"/>
      <use xlink:href="#DejaVuSans-63" x="647.238281"/>
      <use xlink:href="#DejaVuSans-75" x="702.21875"/>
      <use xlink:href="#DejaVuSans-72" x="765.597656"/>
      <use xlink:href="#DejaVuSans-61" x="806.710938"/>
      <use xlink:href="#DejaVuSans-63" x="867.990234"/>
      <use xlink:href="#DejaVuSans-79" x="922.970703"/>
     </g>
    </g>
    <g id="line2d_26">
     <path d="M 216.18875 263.648062 
L 226.18875 263.648062 
L 236.18875 263.648062 
" style="fill: none; stroke: #2ca02c; stroke-width: 1.5; stroke-linecap: square"/>
    </g>
    <g id="text_24">
     <!-- Robust Validation Accuracy -->
     <g transform="translate(244.18875 267.148062) scale(0.1 -0.1)">
      <defs>
       <path id="DejaVuSans-52" d="M 2841 2188 
Q 3044 2119 3236 1894 
Q 3428 1669 3622 1275 
L 4263 0 
L 3584 0 
L 2988 1197 
Q 2756 1666 2539 1819 
Q 2322 1972 1947 1972 
L 1259 1972 
L 1259 0 
L 628 0 
L 628 4666 
L 2053 4666 
Q 2853 4666 3247 4331 
Q 3641 3997 3641 3322 
Q 3641 2881 3436 2590 
Q 3231 2300 2841 2188 
z
M 1259 4147 
L 1259 2491 
L 2053 2491 
Q 2509 2491 2742 2702 
Q 2975 2913 2975 3322 
Q 2975 3731 2742 3939 
Q 2509 4147 2053 4147 
L 1259 4147 
z
" transform="scale(0.015625)"/>
       <path id="DejaVuSans-62" d="M 3116 1747 
Q 3116 2381 2855 2742 
Q 2594 3103 2138 3103 
Q 1681 3103 1420 2742 
Q 1159 2381 1159 1747 
Q 1159 1113 1420 752 
Q 1681 391 2138 391 
Q 2594 391 2855 752 
Q 3116 1113 3116 1747 
z
M 1159 2969 
Q 1341 3281 1617 3432 
Q 1894 3584 2278 3584 
Q 2916 3584 3314 3078 
Q 3713 2572 3713 1747 
Q 3713 922 3314 415 
Q 2916 -91 2278 -91 
Q 1894 -91 1617 61 
Q 1341 213 1159 525 
L 1159 0 
L 581 0 
L 581 4863 
L 1159 4863 
L 1159 2969 
z
" transform="scale(0.015625)"/>
      </defs>
      <use xlink:href="#DejaVuSans-52"/>
      <use xlink:href="#DejaVuSans-6f" x="64.982422"/>
      <use xlink:href="#DejaVuSans-62" x="126.164062"/>
      <use xlink:href="#DejaVuSans-75" x="189.640625"/>
      <use xlink:href="#DejaVuSans-73" x="253.019531"/>
      <use xlink:href="#DejaVuSans-74" x="305.119141"/>
      <use xlink:href="#DejaVuSans-20" x="344.328125"/>
      <use xlink:href="#DejaVuSans-56" x="376.115234"/>
      <use xlink:href="#DejaVuSans-61" x="436.773438"/>
      <use xlink:href="#DejaVuSans-6c" x="498.052734"/>
      <use xlink:href="#DejaVuSans-69" x="525.835938"/>
      <use xlink:href="#DejaVuSans-64" x="553.619141"/>
      <use xlink:href="#DejaVuSans-61" x="617.095703"/>
      <use xlink:href="#DejaVuSans-74" x="678.375"/>
      <use xlink:href="#DejaVuSans-69" x="717.583984"/>
      <use xlink:href="#DejaVuSans-6f" x="745.367188"/>
      <use xlink:href="#DejaVuSans-6e" x="806.548828"/>
      <use xlink:href="#DejaVuSans-20" x="869.927734"/>
      <use xlink:href="#DejaVuSans-41" x="901.714844"/>
      <use xlink:href="#DejaVuSans-63" x="968.373047"/>
      <use xlink:href="#DejaVuSans-63" x="1023.353516"/>
      <use xlink:href="#DejaVuSans-75" x="1078.333984"/>
      <use xlink:href="#DejaVuSans-72" x="1141.712891"/>
      <use xlink:href="#DejaVuSans-61" x="1182.826172"/>
      <use xlink:href="#DejaVuSans-63" x="1244.105469"/>
      <use xlink:href="#DejaVuSans-79" x="1299.085938"/>
     </g>
    </g>
    <g id="line2d_27">
     <path d="M 216.18875 278.326188 
L 226.18875 278.326188 
L 236.18875 278.326188 
" style="fill: none; stroke: #d62728; stroke-width: 1.5; stroke-linecap: square"/>
    </g>
    <g id="text_25">
     <!-- SWA Validation Accuracy -->
     <g transform="translate(244.18875 281.826188) scale(0.1 -0.1)">
      <defs>
       <path id="DejaVuSans-53" d="M 3425 4513 
L 3425 3897 
Q 3066 4069 2747 4153 
Q 2428 4238 2131 4238 
Q 1616 4238 1336 4038 
Q 1056 3838 1056 3469 
Q 1056 3159 1242 3001 
Q 1428 2844 1947 2747 
L 2328 2669 
Q 3034 2534 3370 2195 
Q 3706 1856 3706 1288 
Q 3706 609 3251 259 
Q 2797 -91 1919 -91 
Q 1588 -91 1214 -16 
Q 841 59 441 206 
L 441 856 
Q 825 641 1194 531 
Q 1563 422 1919 422 
Q 2459 422 2753 634 
Q 3047 847 3047 1241 
Q 3047 1584 2836 1778 
Q 2625 1972 2144 2069 
L 1759 2144 
Q 1053 2284 737 2584 
Q 422 2884 422 3419 
Q 422 4038 858 4394 
Q 1294 4750 2059 4750 
Q 2388 4750 2728 4690 
Q 3069 4631 3425 4513 
z
" transform="scale(0.015625)"/>
       <path id="DejaVuSans-57" d="M 213 4666 
L 850 4666 
L 1831 722 
L 2809 4666 
L 3519 4666 
L 4500 722 
L 5478 4666 
L 6119 4666 
L 4947 0 
L 4153 0 
L 3169 4050 
L 2175 0 
L 1381 0 
L 213 4666 
z
" transform="scale(0.015625)"/>
      </defs>
      <use xlink:href="#DejaVuSans-53"/>
      <use xlink:href="#DejaVuSans-57" x="63.476562"/>
      <use xlink:href="#DejaVuSans-41" x="156.853516"/>
      <use xlink:href="#DejaVuSans-20" x="225.261719"/>
      <use xlink:href="#DejaVuSans-56" x="257.048828"/>
      <use xlink:href="#DejaVuSans-61" x="317.707031"/>
      <use xlink:href="#DejaVuSans-6c" x="378.986328"/>
      <use xlink:href="#DejaVuSans-69" x="406.769531"/>
      <use xlink:href="#DejaVuSans-64" x="434.552734"/>
      <use xlink:href="#DejaVuSans-61" x="498.029297"/>
      <use xlink:href="#DejaVuSans-74" x="559.308594"/>
      <use xlink:href="#DejaVuSans-69" x="598.517578"/>
      <use xlink:href="#DejaVuSans-6f" x="626.300781"/>
      <use xlink:href="#DejaVuSans-6e" x="687.482422"/>
      <use xlink:href="#DejaVuSans-20" x="750.861328"/>
      <use xlink:href="#DejaVuSans-41" x="782.648438"/>
      <use xlink:href="#DejaVuSans-63" x="849.306641"/>
      <use xlink:href="#DejaVuSans-63" x="904.287109"/>
      <use xlink:href="#DejaVuSans-75" x="959.267578"/>
      <use xlink:href="#DejaVuSans-72" x="1022.646484"/>
      <use xlink:href="#DejaVuSans-61" x="1063.759766"/>
      <use xlink:href="#DejaVuSans-63" x="1125.039062"/>
      <use xlink:href="#DejaVuSans-79" x="1180.019531"/>
     </g>
    </g>
    <g id="line2d_28">
     <path d="M 216.18875 293.004312 
L 226.18875 293.004312 
L 236.18875 293.004312 
" style="fill: none; stroke: #9467bd; stroke-width: 1.5; stroke-linecap: square"/>
    </g>
    <g id="text_26">
     <!-- SWA Robust Validation Accuracy -->
     <g transform="translate(244.18875 296.504312) scale(0.1 -0.1)">
      <use xlink:href="#DejaVuSans-53"/>
      <use xlink:href="#DejaVuSans-57" x="63.476562"/>
      <use xlink:href="#DejaVuSans-41" x="156.853516"/>
      <use xlink:href="#DejaVuSans-20" x="225.261719"/>
      <use xlink:href="#DejaVuSans-52" x="257.048828"/>
      <use xlink:href="#DejaVuSans-6f" x="322.03125"/>
      <use xlink:href="#DejaVuSans-62" x="383.212891"/>
      <use xlink:href="#DejaVuSans-75" x="446.689453"/>
      <use xlink:href="#DejaVuSans-73" x="510.068359"/>
      <use xlink:href="#DejaVuSans-74" x="562.167969"/>
      <use xlink:href="#DejaVuSans-20" x="601.376953"/>
      <use xlink:href="#DejaVuSans-56" x="633.164062"/>
      <use xlink:href="#DejaVuSans-61" x="693.822266"/>
      <use xlink:href="#DejaVuSans-6c" x="755.101562"/>
      <use xlink:href="#DejaVuSans-69" x="782.884766"/>
      <use xlink:href="#DejaVuSans-64" x="810.667969"/>
      <use xlink:href="#DejaVuSans-61" x="874.144531"/>
      <use xlink:href="#DejaVuSans-74" x="935.423828"/>
      <use xlink:href="#DejaVuSans-69" x="974.632812"/>
      <use xlink:href="#DejaVuSans-6f" x="1002.416016"/>
      <use xlink:href="#DejaVuSans-6e" x="1063.597656"/>
      <use xlink:href="#DejaVuSans-20" x="1126.976562"/>
      <use xlink:href="#DejaVuSans-41" x="1158.763672"/>
      <use xlink:href="#DejaVuSans-63" x="1225.421875"/>
      <use xlink:href="#DejaVuSans-63" x="1280.402344"/>
      <use xlink:href="#DejaVuSans-75" x="1335.382812"/>
      <use xlink:href="#DejaVuSans-72" x="1398.761719"/>
      <use xlink:href="#DejaVuSans-61" x="1439.875"/>
      <use xlink:href="#DejaVuSans-63" x="1501.154297"/>
      <use xlink:href="#DejaVuSans-79" x="1556.134766"/>
     </g>
    </g>
   </g>
  </g>
 </g>
 <defs>
  <clipPath id="p91b554eea6">
   <rect x="57.6" y="41.472" width="357.12" height="266.112"/>
  </clipPath>
 </defs>
</svg>
