<?xml version="1.0" encoding="utf-8" standalone="no"?>
<!DOCTYPE svg PUBLIC "-//W3C//DTD SVG 1.1//EN"
  "http://www.w3.org/Graphics/SVG/1.1/DTD/svg11.dtd">
<svg xmlns:xlink="http://www.w3.org/1999/xlink" width="460.8pt" height="345.6pt" viewBox="0 0 460.8 345.6" xmlns="http://www.w3.org/2000/svg" version="1.1">
 <metadata>
  <rdf:RDF xmlns:dc="http://purl.org/dc/elements/1.1/" xmlns:cc="http://creativecommons.org/ns#" xmlns:rdf="http://www.w3.org/1999/02/22-rdf-syntax-ns#">
   <cc:Work>
    <dc:type rdf:resource="http://purl.org/dc/dcmitype/StillImage"/>
    <dc:date>2025-05-04T23:05:07.944403</dc:date>
    <dc:format>image/svg+xml</dc:format>
    <dc:creator>
     <cc:Agent>
      <dc:title>Matplotlib v3.9.1, https://matplotlib.org/</dc:title>
     </cc:Agent>
    </dc:creator>
   </cc:Work>
  </rdf:RDF>
 </metadata>
 <defs>
  <style type="text/css">*{stroke-linejoin: round; stroke-linecap: butt}</style>
 </defs>
 <g id="figure_1">
  <g id="patch_1">
   <path d="M 0 345.6 
L 460.8 345.6 
L 460.8 0 
L 0 0 
z
" style="fill: #ffffff"/>
  </g>
  <g id="axes_1">
   <g id="patch_2">
    <path d="M 57.6 307.584 
L 414.72 307.584 
L 414.72 41.472 
L 57.6 41.472 
z
" style="fill: #ffffff"/>
   </g>
   <g id="matplotlib.axis_1">
    <g id="xtick_1">
     <g id="line2d_1">
      <defs>
       <path id="m9b4204dc07" d="M 0 0 
L 0 3.5 
" style="stroke: #000000; stroke-width: 0.8"/>
      </defs>
      <g>
       <use xlink:href="#m9b4204dc07" x="73.832727" y="307.584" style="stroke: #000000; stroke-width: 0.8"/>
      </g>
     </g>
     <g id="text_1">
      <!-- 1 -->
      <g transform="translate(70.651477 322.182437) scale(0.1 -0.1)">
       <defs>
        <path id="DejaVuSans-31" d="M 794 531 
L 1825 531 
L 1825 4091 
L 703 3866 
L 703 4441 
L 1819 4666 
L 2450 4666 
L 2450 531 
L 3481 531 
L 3481 0 
L 794 0 
L 794 531 
z
" transform="scale(0.015625)"/>
       </defs>
       <use xlink:href="#DejaVuSans-31"/>
      </g>
     </g>
    </g>
    <g id="xtick_2">
     <g id="line2d_2">
      <g>
       <use xlink:href="#m9b4204dc07" x="109.664165" y="307.584" style="stroke: #000000; stroke-width: 0.8"/>
      </g>
     </g>
     <g id="text_2">
      <!-- 34 -->
      <g transform="translate(103.301665 322.182437) scale(0.1 -0.1)">
       <defs>
        <path id="DejaVuSans-33" d="M 2597 2516 
Q 3050 2419 3304 2112 
Q 3559 1806 3559 1356 
Q 3559 666 3084 287 
Q 2609 -91 1734 -91 
Q 1441 -91 1130 -33 
Q 819 25 488 141 
L 488 750 
Q 750 597 1062 519 
Q 1375 441 1716 441 
Q 2309 441 2620 675 
Q 2931 909 2931 1356 
Q 2931 1769 2642 2001 
Q 2353 2234 1838 2234 
L 1294 2234 
L 1294 2753 
L 1863 2753 
Q 2328 2753 2575 2939 
Q 2822 3125 2822 3475 
Q 2822 3834 2567 4026 
Q 2313 4219 1838 4219 
Q 1578 4219 1281 4162 
Q 984 4106 628 3988 
L 628 4550 
Q 988 4650 1302 4700 
Q 1616 4750 1894 4750 
Q 2613 4750 3031 4423 
Q 3450 4097 3450 3541 
Q 3450 3153 3228 2886 
Q 3006 2619 2597 2516 
z
" transform="scale(0.015625)"/>
        <path id="DejaVuSans-34" d="M 2419 4116 
L 825 1625 
L 2419 1625 
L 2419 4116 
z
M 2253 4666 
L 3047 4666 
L 3047 1625 
L 3713 1625 
L 3713 1100 
L 3047 1100 
L 3047 0 
L 2419 0 
L 2419 1100 
L 313 1100 
L 313 1709 
L 2253 4666 
z
" transform="scale(0.015625)"/>
       </defs>
       <use xlink:href="#DejaVuSans-33"/>
       <use xlink:href="#DejaVuSans-34" x="63.623047"/>
      </g>
     </g>
    </g>
    <g id="xtick_3">
     <g id="line2d_3">
      <g>
       <use xlink:href="#m9b4204dc07" x="145.495604" y="307.584" style="stroke: #000000; stroke-width: 0.8"/>
      </g>
     </g>
     <g id="text_3">
      <!-- 67 -->
      <g transform="translate(139.133104 322.182437) scale(0.1 -0.1)">
       <defs>
        <path id="DejaVuSans-36" d="M 2113 2584 
Q 1688 2584 1439 2293 
Q 1191 2003 1191 1497 
Q 1191 994 1439 701 
Q 1688 409 2113 409 
Q 2538 409 2786 701 
Q 3034 994 3034 1497 
Q 3034 2003 2786 2293 
Q 2538 2584 2113 2584 
z
M 3366 4563 
L 3366 3988 
Q 3128 4100 2886 4159 
Q 2644 4219 2406 4219 
Q 1781 4219 1451 3797 
Q 1122 3375 1075 2522 
Q 1259 2794 1537 2939 
Q 1816 3084 2150 3084 
Q 2853 3084 3261 2657 
Q 3669 2231 3669 1497 
Q 3669 778 3244 343 
Q 2819 -91 2113 -91 
Q 1303 -91 875 529 
Q 447 1150 447 2328 
Q 447 3434 972 4092 
Q 1497 4750 2381 4750 
Q 2619 4750 2861 4703 
Q 3103 4656 3366 4563 
z
" transform="scale(0.015625)"/>
        <path id="DejaVuSans-37" d="M 525 4666 
L 3525 4666 
L 3525 4397 
L 1831 0 
L 1172 0 
L 2766 4134 
L 525 4134 
L 525 4666 
z
" transform="scale(0.015625)"/>
       </defs>
       <use xlink:href="#DejaVuSans-36"/>
       <use xlink:href="#DejaVuSans-37" x="63.623047"/>
      </g>
     </g>
    </g>
    <g id="xtick_4">
     <g id="line2d_4">
      <g>
       <use xlink:href="#m9b4204dc07" x="181.327042" y="307.584" style="stroke: #000000; stroke-width: 0.8"/>
      </g>
     </g>
     <g id="text_4">
      <!-- 100 -->
      <g transform="translate(171.783292 322.182437) scale(0.1 -0.1)">
       <defs>
        <path id="DejaVuSans-30" d="M 2034 4250 
Q 1547 4250 1301 3770 
Q 1056 3291 1056 2328 
Q 1056 1369 1301 889 
Q 1547 409 2034 409 
Q 2525 409 2770 889 
Q 3016 1369 3016 2328 
Q 3016 3291 2770 3770 
Q 2525 4250 2034 4250 
z
M 2034 4750 
Q 2819 4750 3233 4129 
Q 3647 3509 3647 2328 
Q 3647 1150 3233 529 
Q 2819 -91 2034 -91 
Q 1250 -91 836 529 
Q 422 1150 422 2328 
Q 422 3509 836 4129 
Q 1250 4750 2034 4750 
z
" transform="scale(0.015625)"/>
       </defs>
       <use xlink:href="#DejaVuSans-31"/>
       <use xlink:href="#DejaVuSans-30" x="63.623047"/>
       <use xlink:href="#DejaVuSans-30" x="127.246094"/>
      </g>
     </g>
    </g>
    <g id="xtick_5">
     <g id="line2d_5">
      <g>
       <use xlink:href="#m9b4204dc07" x="217.15848" y="307.584" style="stroke: #000000; stroke-width: 0.8"/>
      </g>
     </g>
     <g id="text_5">
      <!-- 133 -->
      <g transform="translate(207.61473 322.182437) scale(0.1 -0.1)">
       <use xlink:href="#DejaVuSans-31"/>
       <use xlink:href="#DejaVuSans-33" x="63.623047"/>
       <use xlink:href="#DejaVuSans-33" x="127.246094"/>
      </g>
     </g>
    </g>
    <g id="xtick_6">
     <g id="line2d_6">
      <g>
       <use xlink:href="#m9b4204dc07" x="254.075719" y="307.584" style="stroke: #000000; stroke-width: 0.8"/>
      </g>
     </g>
     <g id="text_6">
      <!-- 167 -->
      <g transform="translate(244.531969 322.182437) scale(0.1 -0.1)">
       <use xlink:href="#DejaVuSans-31"/>
       <use xlink:href="#DejaVuSans-36" x="63.623047"/>
       <use xlink:href="#DejaVuSans-37" x="127.246094"/>
      </g>
     </g>
    </g>
    <g id="xtick_7">
     <g id="line2d_7">
      <g>
       <use xlink:href="#m9b4204dc07" x="289.907157" y="307.584" style="stroke: #000000; stroke-width: 0.8"/>
      </g>
     </g>
     <g id="text_7">
      <!-- 200 -->
      <g transform="translate(280.363407 322.182437) scale(0.1 -0.1)">
       <defs>
        <path id="DejaVuSans-32" d="M 1228 531 
L 3431 531 
L 3431 0 
L 469 0 
L 469 531 
Q 828 903 1448 1529 
Q 2069 2156 2228 2338 
Q 2531 2678 2651 2914 
Q 2772 3150 2772 3378 
Q 2772 3750 2511 3984 
Q 2250 4219 1831 4219 
Q 1534 4219 1204 4116 
Q 875 4013 500 3803 
L 500 4441 
Q 881 4594 1212 4672 
Q 1544 4750 1819 4750 
Q 2544 4750 2975 4387 
Q 3406 4025 3406 3419 
Q 3406 3131 3298 2873 
Q 3191 2616 2906 2266 
Q 2828 2175 2409 1742 
Q 1991 1309 1228 531 
z
" transform="scale(0.015625)"/>
       </defs>
       <use xlink:href="#DejaVuSans-32"/>
       <use xlink:href="#DejaVuSans-30" x="63.623047"/>
       <use xlink:href="#DejaVuSans-30" x="127.246094"/>
      </g>
     </g>
    </g>
    <g id="xtick_8">
     <g id="line2d_8">
      <g>
       <use xlink:href="#m9b4204dc07" x="325.738595" y="307.584" style="stroke: #000000; stroke-width: 0.8"/>
      </g>
     </g>
     <g id="text_8">
      <!-- 233 -->
      <g transform="translate(316.194845 322.182437) scale(0.1 -0.1)">
       <use xlink:href="#DejaVuSans-32"/>
       <use xlink:href="#DejaVuSans-33" x="63.623047"/>
       <use xlink:href="#DejaVuSans-33" x="127.246094"/>
      </g>
     </g>
    </g>
    <g id="xtick_9">
     <g id="line2d_9">
      <g>
       <use xlink:href="#m9b4204dc07" x="361.570033" y="307.584" style="stroke: #000000; stroke-width: 0.8"/>
      </g>
     </g>
     <g id="text_9">
      <!-- 266 -->
      <g transform="translate(352.026283 322.182437) scale(0.1 -0.1)">
       <use xlink:href="#DejaVuSans-32"/>
       <use xlink:href="#DejaVuSans-36" x="63.623047"/>
       <use xlink:href="#DejaVuSans-36" x="127.246094"/>
      </g>
     </g>
    </g>
    <g id="xtick_10">
     <g id="line2d_10">
      <g>
       <use xlink:href="#m9b4204dc07" x="398.487273" y="307.584" style="stroke: #000000; stroke-width: 0.8"/>
      </g>
     </g>
     <g id="text_10">
      <!-- 300 -->
      <g transform="translate(388.943523 322.182437) scale(0.1 -0.1)">
       <use xlink:href="#DejaVuSans-33"/>
       <use xlink:href="#DejaVuSans-30" x="63.623047"/>
       <use xlink:href="#DejaVuSans-30" x="127.246094"/>
      </g>
     </g>
    </g>
    <g id="text_11">
     <!-- Epochs -->
     <g transform="translate(218.244375 335.860562) scale(0.1 -0.1)">
      <defs>
       <path id="DejaVuSans-45" d="M 628 4666 
L 3578 4666 
L 3578 4134 
L 1259 4134 
L 1259 2753 
L 3481 2753 
L 3481 2222 
L 1259 2222 
L 1259 531 
L 3634 531 
L 3634 0 
L 628 0 
L 628 4666 
z
" transform="scale(0.015625)"/>
       <path id="DejaVuSans-70" d="M 1159 525 
L 1159 -1331 
L 581 -1331 
L 581 3500 
L 1159 3500 
L 1159 2969 
Q 1341 3281 1617 3432 
Q 1894 3584 2278 3584 
Q 2916 3584 3314 3078 
Q 3713 2572 3713 1747 
Q 3713 922 3314 415 
Q 2916 -91 2278 -91 
Q 1894 -91 1617 61 
Q 1341 213 1159 525 
z
M 3116 1747 
Q 3116 2381 2855 2742 
Q 2594 3103 2138 3103 
Q 1681 3103 1420 2742 
Q 1159 2381 1159 1747 
Q 1159 1113 1420 752 
Q 1681 391 2138 391 
Q 2594 391 2855 752 
Q 3116 1113 3116 1747 
z
" transform="scale(0.015625)"/>
       <path id="DejaVuSans-6f" d="M 1959 3097 
Q 1497 3097 1228 2736 
Q 959 2375 959 1747 
Q 959 1119 1226 758 
Q 1494 397 1959 397 
Q 2419 397 2687 759 
Q 2956 1122 2956 1747 
Q 2956 2369 2687 2733 
Q 2419 3097 1959 3097 
z
M 1959 3584 
Q 2709 3584 3137 3096 
Q 3566 2609 3566 1747 
Q 3566 888 3137 398 
Q 2709 -91 1959 -91 
Q 1206 -91 779 398 
Q 353 888 353 1747 
Q 353 2609 779 3096 
Q 1206 3584 1959 3584 
z
" transform="scale(0.015625)"/>
       <path id="DejaVuSans-63" d="M 3122 3366 
L 3122 2828 
Q 2878 2963 2633 3030 
Q 2388 3097 2138 3097 
Q 1578 3097 1268 2742 
Q 959 2388 959 1747 
Q 959 1106 1268 751 
Q 1578 397 2138 397 
Q 2388 397 2633 464 
Q 2878 531 3122 666 
L 3122 134 
Q 2881 22 2623 -34 
Q 2366 -91 2075 -91 
Q 1284 -91 818 406 
Q 353 903 353 1747 
Q 353 2603 823 3093 
Q 1294 3584 2113 3584 
Q 2378 3584 2631 3529 
Q 2884 3475 3122 3366 
z
" transform="scale(0.015625)"/>
       <path id="DejaVuSans-68" d="M 3513 2113 
L 3513 0 
L 2938 0 
L 2938 2094 
Q 2938 2591 2744 2837 
Q 2550 3084 2163 3084 
Q 1697 3084 1428 2787 
Q 1159 2491 1159 1978 
L 1159 0 
L 581 0 
L 581 4863 
L 1159 4863 
L 1159 2956 
Q 1366 3272 1645 3428 
Q 1925 3584 2291 3584 
Q 2894 3584 3203 3211 
Q 3513 2838 3513 2113 
z
" transform="scale(0.015625)"/>
       <path id="DejaVuSans-73" d="M 2834 3397 
L 2834 2853 
Q 2591 2978 2328 3040 
Q 2066 3103 1784 3103 
Q 1356 3103 1142 2972 
Q 928 2841 928 2578 
Q 928 2378 1081 2264 
Q 1234 2150 1697 2047 
L 1894 2003 
Q 2506 1872 2764 1633 
Q 3022 1394 3022 966 
Q 3022 478 2636 193 
Q 2250 -91 1575 -91 
Q 1294 -91 989 -36 
Q 684 19 347 128 
L 347 722 
Q 666 556 975 473 
Q 1284 391 1588 391 
Q 1994 391 2212 530 
Q 2431 669 2431 922 
Q 2431 1156 2273 1281 
Q 2116 1406 1581 1522 
L 1381 1569 
Q 847 1681 609 1914 
Q 372 2147 372 2553 
Q 372 3047 722 3315 
Q 1072 3584 1716 3584 
Q 2034 3584 2315 3537 
Q 2597 3491 2834 3397 
z
" transform="scale(0.015625)"/>
      </defs>
      <use xlink:href="#DejaVuSans-45"/>
      <use xlink:href="#DejaVuSans-70" x="63.183594"/>
      <use xlink:href="#DejaVuSans-6f" x="126.660156"/>
      <use xlink:href="#DejaVuSans-63" x="187.841797"/>
      <use xlink:href="#DejaVuSans-68" x="242.822266"/>
      <use xlink:href="#DejaVuSans-73" x="306.201172"/>
     </g>
    </g>
   </g>
   <g id="matplotlib.axis_2">
    <g id="ytick_1">
     <g id="line2d_11">
      <defs>
       <path id="mdca51d0a55" d="M 0 0 
L -3.5 0 
" style="stroke: #000000; stroke-width: 0.8"/>
      </defs>
      <g>
       <use xlink:href="#mdca51d0a55" x="57.6" y="289.253636" style="stroke: #000000; stroke-width: 0.8"/>
      </g>
     </g>
     <g id="text_12">
      <!-- 10 -->
      <g transform="translate(37.875 293.052855) scale(0.1 -0.1)">
       <use xlink:href="#DejaVuSans-31"/>
       <use xlink:href="#DejaVuSans-30" x="63.623047"/>
      </g>
     </g>
    </g>
    <g id="ytick_2">
     <g id="line2d_12">
      <g>
       <use xlink:href="#mdca51d0a55" x="57.6" y="257.478083" style="stroke: #000000; stroke-width: 0.8"/>
      </g>
     </g>
     <g id="text_13">
      <!-- 20 -->
      <g transform="translate(37.875 261.277301) scale(0.1 -0.1)">
       <use xlink:href="#DejaVuSans-32"/>
       <use xlink:href="#DejaVuSans-30" x="63.623047"/>
      </g>
     </g>
    </g>
    <g id="ytick_3">
     <g id="line2d_13">
      <g>
       <use xlink:href="#mdca51d0a55" x="57.6" y="225.702529" style="stroke: #000000; stroke-width: 0.8"/>
      </g>
     </g>
     <g id="text_14">
      <!-- 30 -->
      <g transform="translate(37.875 229.501748) scale(0.1 -0.1)">
       <use xlink:href="#DejaVuSans-33"/>
       <use xlink:href="#DejaVuSans-30" x="63.623047"/>
      </g>
     </g>
    </g>
    <g id="ytick_4">
     <g id="line2d_14">
      <g>
       <use xlink:href="#mdca51d0a55" x="57.6" y="193.926975" style="stroke: #000000; stroke-width: 0.8"/>
      </g>
     </g>
     <g id="text_15">
      <!-- 40 -->
      <g transform="translate(37.875 197.726194) scale(0.1 -0.1)">
       <use xlink:href="#DejaVuSans-34"/>
       <use xlink:href="#DejaVuSans-30" x="63.623047"/>
      </g>
     </g>
    </g>
    <g id="ytick_5">
     <g id="line2d_15">
      <g>
       <use xlink:href="#mdca51d0a55" x="57.6" y="162.151422" style="stroke: #000000; stroke-width: 0.8"/>
      </g>
     </g>
     <g id="text_16">
      <!-- 50 -->
      <g transform="translate(37.875 165.950641) scale(0.1 -0.1)">
       <defs>
        <path id="DejaVuSans-35" d="M 691 4666 
L 3169 4666 
L 3169 4134 
L 1269 4134 
L 1269 2991 
Q 1406 3038 1543 3061 
Q 1681 3084 1819 3084 
Q 2600 3084 3056 2656 
Q 3513 2228 3513 1497 
Q 3513 744 3044 326 
Q 2575 -91 1722 -91 
Q 1428 -91 1123 -41 
Q 819 9 494 109 
L 494 744 
Q 775 591 1075 516 
Q 1375 441 1709 441 
Q 2250 441 2565 725 
Q 2881 1009 2881 1497 
Q 2881 1984 2565 2268 
Q 2250 2553 1709 2553 
Q 1456 2553 1204 2497 
Q 953 2441 691 2322 
L 691 4666 
z
" transform="scale(0.015625)"/>
       </defs>
       <use xlink:href="#DejaVuSans-35"/>
       <use xlink:href="#DejaVuSans-30" x="63.623047"/>
      </g>
     </g>
    </g>
    <g id="ytick_6">
     <g id="line2d_16">
      <g>
       <use xlink:href="#mdca51d0a55" x="57.6" y="130.375868" style="stroke: #000000; stroke-width: 0.8"/>
      </g>
     </g>
     <g id="text_17">
      <!-- 60 -->
      <g transform="translate(37.875 134.175087) scale(0.1 -0.1)">
       <use xlink:href="#DejaVuSans-36"/>
       <use xlink:href="#DejaVuSans-30" x="63.623047"/>
      </g>
     </g>
    </g>
    <g id="ytick_7">
     <g id="line2d_17">
      <g>
       <use xlink:href="#mdca51d0a55" x="57.6" y="98.600315" style="stroke: #000000; stroke-width: 0.8"/>
      </g>
     </g>
     <g id="text_18">
      <!-- 70 -->
      <g transform="translate(37.875 102.399533) scale(0.1 -0.1)">
       <use xlink:href="#DejaVuSans-37"/>
       <use xlink:href="#DejaVuSans-30" x="63.623047"/>
      </g>
     </g>
    </g>
    <g id="ytick_8">
     <g id="line2d_18">
      <g>
       <use xlink:href="#mdca51d0a55" x="57.6" y="66.824761" style="stroke: #000000; stroke-width: 0.8"/>
      </g>
     </g>
     <g id="text_19">
      <!-- 80 -->
      <g transform="translate(37.875 70.62398) scale(0.1 -0.1)">
       <defs>
        <path id="DejaVuSans-38" d="M 2034 2216 
Q 1584 2216 1326 1975 
Q 1069 1734 1069 1313 
Q 1069 891 1326 650 
Q 1584 409 2034 409 
Q 2484 409 2743 651 
Q 3003 894 3003 1313 
Q 3003 1734 2745 1975 
Q 2488 2216 2034 2216 
z
M 1403 2484 
Q 997 2584 770 2862 
Q 544 3141 544 3541 
Q 544 4100 942 4425 
Q 1341 4750 2034 4750 
Q 2731 4750 3128 4425 
Q 3525 4100 3525 3541 
Q 3525 3141 3298 2862 
Q 3072 2584 2669 2484 
Q 3125 2378 3379 2068 
Q 3634 1759 3634 1313 
Q 3634 634 3220 271 
Q 2806 -91 2034 -91 
Q 1263 -91 848 271 
Q 434 634 434 1313 
Q 434 1759 690 2068 
Q 947 2378 1403 2484 
z
M 1172 3481 
Q 1172 3119 1398 2916 
Q 1625 2713 2034 2713 
Q 2441 2713 2670 2916 
Q 2900 3119 2900 3481 
Q 2900 3844 2670 4047 
Q 2441 4250 2034 4250 
Q 1625 4250 1398 4047 
Q 1172 3844 1172 3481 
z
" transform="scale(0.015625)"/>
       </defs>
       <use xlink:href="#DejaVuSans-38"/>
       <use xlink:href="#DejaVuSans-30" x="63.623047"/>
      </g>
     </g>
    </g>
    <g id="text_20">
     <!-- Accuracy -->
     <g transform="translate(31.795312 197.356125) rotate(-90) scale(0.1 -0.1)">
      <defs>
       <path id="DejaVuSans-41" d="M 2188 4044 
L 1331 1722 
L 3047 1722 
L 2188 4044 
z
M 1831 4666 
L 2547 4666 
L 4325 0 
L 3669 0 
L 3244 1197 
L 1141 1197 
L 716 0 
L 50 0 
L 1831 4666 
z
" transform="scale(0.015625)"/>
       <path id="DejaVuSans-75" d="M 544 1381 
L 544 3500 
L 1119 3500 
L 1119 1403 
Q 1119 906 1312 657 
Q 1506 409 1894 409 
Q 2359 409 2629 706 
Q 2900 1003 2900 1516 
L 2900 3500 
L 3475 3500 
L 3475 0 
L 2900 0 
L 2900 538 
Q 2691 219 2414 64 
Q 2138 -91 1772 -91 
Q 1169 -91 856 284 
Q 544 659 544 1381 
z
M 1991 3584 
L 1991 3584 
z
" transform="scale(0.015625)"/>
       <path id="DejaVuSans-72" d="M 2631 2963 
Q 2534 3019 2420 3045 
Q 2306 3072 2169 3072 
Q 1681 3072 1420 2755 
Q 1159 2438 1159 1844 
L 1159 0 
L 581 0 
L 581 3500 
L 1159 3500 
L 1159 2956 
Q 1341 3275 1631 3429 
Q 1922 3584 2338 3584 
Q 2397 3584 2469 3576 
Q 2541 3569 2628 3553 
L 2631 2963 
z
" transform="scale(0.015625)"/>
       <path id="DejaVuSans-61" d="M 2194 1759 
Q 1497 1759 1228 1600 
Q 959 1441 959 1056 
Q 959 750 1161 570 
Q 1363 391 1709 391 
Q 2188 391 2477 730 
Q 2766 1069 2766 1631 
L 2766 1759 
L 2194 1759 
z
M 3341 1997 
L 3341 0 
L 2766 0 
L 2766 531 
Q 2569 213 2275 61 
Q 1981 -91 1556 -91 
Q 1019 -91 701 211 
Q 384 513 384 1019 
Q 384 1609 779 1909 
Q 1175 2209 1959 2209 
L 2766 2209 
L 2766 2266 
Q 2766 2663 2505 2880 
Q 2244 3097 1772 3097 
Q 1472 3097 1187 3025 
Q 903 2953 641 2809 
L 641 3341 
Q 956 3463 1253 3523 
Q 1550 3584 1831 3584 
Q 2591 3584 2966 3190 
Q 3341 2797 3341 1997 
z
" transform="scale(0.015625)"/>
       <path id="DejaVuSans-79" d="M 2059 -325 
Q 1816 -950 1584 -1140 
Q 1353 -1331 966 -1331 
L 506 -1331 
L 506 -850 
L 844 -850 
Q 1081 -850 1212 -737 
Q 1344 -625 1503 -206 
L 1606 56 
L 191 3500 
L 800 3500 
L 1894 763 
L 2988 3500 
L 3597 3500 
L 2059 -325 
z
" transform="scale(0.015625)"/>
      </defs>
      <use xlink:href="#DejaVuSans-41"/>
      <use xlink:href="#DejaVuSans-63" x="66.658203"/>
      <use xlink:href="#DejaVuSans-63" x="121.638672"/>
      <use xlink:href="#DejaVuSans-75" x="176.619141"/>
      <use xlink:href="#DejaVuSans-72" x="239.998047"/>
      <use xlink:href="#DejaVuSans-61" x="281.111328"/>
      <use xlink:href="#DejaVuSans-63" x="342.390625"/>
      <use xlink:href="#DejaVuSans-79" x="397.371094"/>
     </g>
    </g>
   </g>
   <g id="line2d_19">
    <path d="M 73.832727 295.488 
L 76.00433 251.396242 
L 77.090131 233.48754 
L 78.175932 225.670754 
L 79.261733 211.263718 
L 80.347534 198.833121 
L 81.433335 198.22303 
L 82.519137 185.868695 
L 83.604938 177.549855 
L 84.690739 179.113212 
L 85.77654 175.725938 
L 86.862341 170.94054 
L 87.948142 162.056095 
L 89.033943 163.149174 
L 90.119745 149.981385 
L 91.205546 149.085314 
L 92.291347 145.812432 
L 93.377148 145.284958 
L 94.462949 143.924964 
L 95.54875 175.065007 
L 96.634552 169.021297 
L 97.720353 170.36858 
L 100.977756 156.61612 
L 102.063557 163.460575 
L 103.149358 151.519322 
L 104.23516 151.14437 
L 105.320961 145.526452 
L 106.406762 154.995567 
L 107.492563 143.766087 
L 108.578364 139.444611 
L 109.664165 137.868544 
L 110.749967 141.94217 
L 111.835768 130.102598 
L 112.921569 131.392686 
L 114.00737 130.833436 
L 115.093171 124.783371 
L 116.178972 129.676806 
L 117.264773 132.835296 
L 118.350575 128.965034 
L 119.436376 121.078341 
L 120.522177 121.542264 
L 121.607978 116.305653 
L 122.693779 115.352386 
L 123.77958 112.562493 
L 124.865382 113.82716 
L 125.951183 117.360601 
L 127.036984 110.325494 
L 128.122785 114.69781 
L 129.208586 104.707576 
L 130.294387 101.18049 
L 131.380189 102.184597 
L 132.46599 101.396563 
L 133.551791 96.452287 
L 134.637592 101.75245 
L 135.723393 101.472825 
L 136.809194 100.081055 
L 137.894995 93.872112 
L 138.980797 127.859244 
L 140.066598 127.713077 
L 141.152399 132.638288 
L 142.2382 133.146697 
L 143.324001 134.474915 
L 144.409802 138.230785 
L 145.495604 126.658128 
L 147.667206 127.369901 
L 148.753007 127.503358 
L 149.838808 121.268995 
L 150.924609 123.27721 
L 152.01041 121.86002 
L 153.096212 116.134065 
L 154.182013 121.663011 
L 155.267814 116.051449 
L 156.353615 119.051061 
L 157.439416 114.856688 
L 158.525217 115.86715 
L 159.611019 121.510489 
L 160.69682 118.332933 
L 161.782621 111.393152 
L 162.868422 109.562881 
L 163.954223 105.895982 
L 165.040024 117.729198 
L 166.125825 109.359517 
L 167.211627 109.435778 
L 168.297428 110.490727 
L 169.383229 113.598376 
L 170.46903 106.919155 
L 171.554831 105.965888 
L 172.640632 98.841809 
L 173.726434 102.788333 
L 174.812235 105.393928 
L 175.898036 96.166307 
L 176.983837 99.381993 
L 178.069638 93.18576 
L 179.155439 97.030602 
L 180.24124 92.537539 
L 181.327042 91.342778 
L 182.412843 95.454535 
L 183.498644 94.691922 
L 184.584445 99.553581 
L 185.670246 90.840724 
L 186.756047 94.653791 
L 187.841849 92.404082 
L 188.92765 86.525604 
L 190.013451 94.799958 
L 191.099252 88.31139 
L 192.185053 91.438105 
L 193.270854 83.392535 
L 194.356656 86.036261 
L 195.442457 77.927139 
L 196.528258 84.040756 
L 197.614059 78.016111 
L 198.69986 74.476314 
L 199.785661 85.235517 
L 200.871462 81.505067 
L 201.957264 76.503595 
L 203.043065 72.22025 
L 204.128866 80.82507 
L 205.214667 74.514445 
L 206.300468 83.328984 
L 207.386269 72.188474 
L 208.472071 81.066564 
L 209.557872 77.291628 
L 210.643673 82.115157 
L 211.729474 65.35673 
L 212.815275 75.645655 
L 213.901076 76.503595 
L 214.986877 68.934658 
L 216.072679 66.47523 
L 217.15848 65.350375 
L 218.244281 71.209787 
L 219.330082 71.546608 
L 220.415883 68.610547 
L 221.501684 72.086793 
L 222.587486 64.028512 
L 223.673287 64.632248 
L 224.759088 69.964186 
L 225.844889 97.481815 
L 226.93069 109.105313 
L 228.016491 105.571871 
L 229.102292 115.231639 
L 230.188094 108.145691 
L 231.273895 110.547923 
L 232.359696 110.090355 
L 233.445497 104.720286 
L 234.531298 110.338204 
L 235.617099 100.284419 
L 236.702901 100.691146 
L 237.788702 103.658983 
L 238.874503 104.62496 
L 239.960304 106.817473 
L 241.046105 105.686263 
L 242.131906 104.218232 
L 243.217708 103.353937 
L 244.303509 99.928533 
L 245.38931 106.512427 
L 246.475111 101.326657 
L 247.560912 106.073925 
L 248.646713 97.837701 
L 249.732514 97.78686 
L 250.818316 97.47546 
L 251.904117 101.237686 
L 252.989918 96.954341 
L 254.075719 92.130812 
L 255.16152 101.186845 
L 256.247321 102.070205 
L 257.333123 93.274732 
L 258.418924 97.049668 
L 259.504725 98.231718 
L 260.590526 96.827239 
L 261.676327 92.099036 
L 262.762128 95.537151 
L 263.847929 106.620464 
L 264.933731 92.308755 
L 266.019532 91.323713 
L 267.105333 98.3334 
L 268.191134 96.356961 
L 269.276935 91.806701 
L 270.362736 91.164835 
L 271.448538 94.024635 
L 272.534339 97.977514 
L 273.62014 86.665417 
L 274.705941 92.810809 
L 275.791742 87.243732 
L 276.877543 91.419039 
L 277.963344 92.931556 
L 279.049146 88.216064 
L 280.134947 88.088961 
L 281.220748 89.42989 
L 282.306549 87.472516 
L 283.39235 89.264657 
L 284.478151 89.4426 
L 285.563953 86.932331 
L 286.649754 91.241096 
L 287.735555 84.733463 
L 288.821356 92.340531 
L 289.907157 81.988055 
L 290.992958 89.410824 
L 292.07876 84.974957 
L 293.164561 83.208236 
L 294.250362 88.184288 
L 295.336163 89.264657 
L 296.421964 81.276283 
L 297.507765 83.341694 
L 298.593566 89.849327 
L 299.679368 87.682234 
L 300.765169 83.43702 
L 301.85097 82.547305 
L 302.936771 86.411212 
L 304.022572 78.683398 
L 305.108373 79.306198 
L 306.194175 81.657589 
L 307.279976 80.653482 
L 308.365777 77.043779 
L 309.451578 80.335726 
L 310.537379 74.285661 
L 311.62318 82.24226 
L 312.708981 70.606052 
L 313.794783 82.318521 
L 314.880584 74.647902 
L 315.966385 77.031069 
L 317.052186 78.422838 
L 318.137987 73.338749 
L 319.223788 78.162279 
L 320.30959 73.300619 
L 321.395391 78.51181 
L 322.481192 74.145849 
L 323.566993 76.141353 
L 324.652794 74.628837 
L 326.824396 80.106942 
L 327.910198 72.550716 
L 328.995999 72.932022 
L 330.0818 76.319296 
L 331.167601 68.807556 
L 332.253402 73.36417 
L 333.339203 71.826233 
L 334.425005 67.847934 
L 335.510806 73.694636 
L 336.596607 70.936518 
L 337.682408 68.890172 
L 338.768209 68.845686 
L 339.85401 73.872579 
L 340.939811 68.419894 
L 342.025613 69.188862 
L 343.111414 67.03448 
L 344.197215 71.826233 
L 345.283016 63.323095 
L 346.368817 64.17468 
L 347.454618 63.32945 
L 348.54042 68.597837 
L 349.626221 70.294651 
L 350.712022 62.255436 
L 351.797823 71.190722 
L 352.883624 65.280469 
L 353.969425 72.353707 
L 355.055227 67.028125 
L 356.141028 66.456165 
L 357.226829 66.074858 
L 358.31263 60.857312 
L 359.398431 67.155227 
L 360.484232 63.005339 
L 361.570033 66.398969 
L 362.655835 59.948531 
L 363.741636 67.434852 
L 364.827437 61.162357 
L 365.913238 53.568 
L 366.999039 63.170572 
L 368.08484 68.451669 
L 369.170642 70.275586 
L 370.256443 73.434076 
L 371.342244 70.288296 
L 372.428045 64.568697 
L 373.513846 73.999681 
L 374.599647 69.818018 
L 375.685448 71.298759 
L 376.77125 64.047578 
L 378.942852 66.977284 
L 380.028653 61.918615 
L 381.114454 60.526846 
L 382.200255 66.564201 
L 383.286057 67.746252 
L 384.371858 69.652785 
L 385.457659 67.758962 
L 386.54346 65.63 
L 387.629261 67.975036 
L 388.715062 62.808331 
L 389.800863 72.881181 
L 390.886665 67.3713 
L 391.972466 63.666271 
L 393.058267 65.979531 
L 394.144068 61.149647 
L 395.229869 68.979144 
L 396.31567 70.173904 
L 397.401472 65.216918 
L 398.487273 72.226605 
L 398.487273 72.226605 
" clip-path="url(#p0900368d74)" style="fill: none; stroke: #1f77b4; stroke-width: 1.5; stroke-linecap: square"/>
   </g>
   <g id="line2d_20">
    <path d="M 73.832727 281.023768 
L 74.918528 258.20892 
L 76.00433 223.160485 
L 77.090131 207.844668 
L 78.175932 204.222255 
L 79.261733 184.934494 
L 80.347534 171.271006 
L 81.433335 173.082212 
L 82.519137 163.708424 
L 83.604938 151.379509 
L 84.690739 150.521569 
L 85.77654 142.80011 
L 86.862341 137.08051 
L 87.948142 132.695484 
L 89.033943 131.265584 
L 90.119745 129.168397 
L 91.205546 126.594577 
L 92.291347 126.880557 
L 93.377148 122.940389 
L 94.462949 120.938529 
L 95.54875 153.603798 
L 96.634552 141.65619 
L 97.720353 137.811348 
L 98.806154 133.045015 
L 99.891955 134.50669 
L 100.977756 131.710441 
L 102.063557 127.452517 
L 103.149358 129.104846 
L 104.23516 128.405784 
L 105.320961 122.400204 
L 106.406762 122.273102 
L 107.492563 111.882496 
L 108.578364 120.112364 
L 109.664165 118.110505 
L 110.749967 111.501189 
L 111.835768 111.151658 
L 112.921569 105.78159 
L 114.00737 106.480652 
L 115.093171 105.018976 
L 116.178972 105.590936 
L 117.264773 103.875057 
L 118.350575 100.316194 
L 120.522177 95.232106 
L 121.607978 98.981621 
L 122.693779 93.961084 
L 123.77958 92.086326 
L 124.865382 93.389124 
L 125.951183 95.454535 
L 127.036984 89.194751 
L 128.122785 87.860177 
L 129.208586 87.383544 
L 130.294387 87.319993 
L 131.380189 88.55924 
L 132.46599 89.290077 
L 133.551791 85.890093 
L 134.637592 88.082606 
L 135.723393 88.749893 
L 136.809194 87.574197 
L 137.894995 86.748033 
L 138.980797 111.85072 
L 140.066598 104.605894 
L 141.152399 112.041374 
L 142.2382 112.581558 
L 143.324001 110.547923 
L 144.409802 106.480652 
L 145.495604 109.086247 
L 146.581405 100.443297 
L 147.667206 108.92737 
L 148.753007 109.276901 
L 149.838808 108.418961 
L 150.924609 100.093766 
L 152.01041 95.48631 
L 153.096212 101.364788 
L 154.182013 94.946126 
L 155.267814 92.499408 
L 156.353615 95.581637 
L 157.439416 96.757332 
L 158.525217 96.407801 
L 159.611019 97.519946 
L 160.69682 92.721837 
L 161.782621 94.34239 
L 162.868422 92.308755 
L 163.954223 96.789108 
L 165.040024 92.118102 
L 166.125825 91.673244 
L 167.211627 89.734935 
L 168.297428 85.762991 
L 169.383229 85.667664 
L 170.46903 89.766711 
L 171.554831 85.762991 
L 172.640632 88.686342 
L 173.726434 84.777949 
L 174.812235 84.428418 
L 175.898036 85.540562 
L 176.983837 81.727496 
L 178.069638 84.491969 
L 179.155439 82.299456 
L 180.24124 81.69572 
L 181.327042 80.234045 
L 182.412843 80.742453 
L 183.498644 83.538702 
L 184.584445 84.078887 
L 185.670246 79.884514 
L 186.756047 80.933107 
L 187.841849 76.54808 
L 188.92765 77.787327 
L 190.013451 76.929387 
L 191.099252 77.787327 
L 192.185053 75.435936 
L 193.270854 74.323792 
L 194.356656 76.770509 
L 195.442457 75.372385 
L 196.528258 75.467712 
L 197.614059 75.11818 
L 198.69986 75.467712 
L 199.785661 71.845298 
L 200.871462 74.546221 
L 201.957264 72.862116 
L 203.043065 72.830341 
L 204.128866 71.972401 
L 205.214667 68.858396 
L 206.300468 69.811663 
L 208.472071 69.525683 
L 209.557872 70.002316 
L 210.643673 68.413539 
L 211.729474 67.33317 
L 212.815275 68.794845 
L 213.901076 68.953723 
L 214.986877 68.413539 
L 216.072679 67.714476 
L 217.15848 67.396721 
L 218.244281 68.032232 
L 219.330082 67.142517 
L 220.415883 66.665883 
L 221.501684 67.110741 
L 222.587486 67.269619 
L 224.759088 66.856537 
L 225.844889 96.820884 
L 226.93069 94.596595 
L 228.016491 94.691922 
L 229.102292 96.407801 
L 230.188094 94.787248 
L 232.359696 95.454535 
L 233.445497 91.609693 
L 234.531298 90.910631 
L 235.617099 92.562959 
L 236.702901 86.017195 
L 237.788702 94.819024 
L 238.874503 93.325573 
L 239.960304 90.243344 
L 241.046105 88.940546 
L 242.131906 92.435857 
L 243.217708 96.757332 
L 244.303509 92.022775 
L 245.38931 89.41718 
L 246.475111 89.639608 
L 247.560912 95.232106 
L 248.646713 89.321853 
L 249.732514 93.548002 
L 250.818316 90.402222 
L 251.904117 84.714398 
L 252.989918 85.318133 
L 254.075719 87.192891 
L 255.16152 89.576057 
L 256.247321 89.226526 
L 257.333123 82.172353 
L 258.418924 96.789108 
L 259.504725 88.55924 
L 260.590526 82.013476 
L 261.676327 85.667664 
L 262.762128 87.351769 
L 263.847929 89.607833 
L 264.933731 83.252722 
L 267.105333 92.340531 
L 268.191134 89.353628 
L 269.276935 84.714398 
L 270.362736 86.176073 
L 271.448538 89.798486 
L 272.534339 92.149877 
L 273.62014 88.27326 
L 274.705941 86.239624 
L 275.791742 82.013476 
L 276.877543 87.542422 
L 277.963344 83.856458 
L 279.049146 82.903191 
L 280.134947 84.078887 
L 281.220748 86.55738 
L 282.306549 78.931247 
L 283.39235 86.620931 
L 284.478151 85.953644 
L 285.563953 84.905051 
L 286.649754 83.69758 
L 287.735555 89.067649 
L 288.821356 81.282638 
L 289.907157 83.220947 
L 290.992958 80.710678 
L 293.164561 80.424698 
L 294.250362 84.205989 
L 295.336163 82.55366 
L 296.421964 78.518165 
L 297.507765 81.091985 
L 299.679368 76.643407 
L 300.765169 84.015335 
L 301.85097 76.802285 
L 302.936771 87.955504 
L 304.022572 75.213507 
L 305.108373 78.54994 
L 306.194175 75.785467 
L 307.279976 79.153676 
L 308.365777 77.310694 
L 309.451578 81.536842 
L 310.537379 77.056489 
L 311.62318 76.516305 
L 312.708981 78.359287 
L 313.794783 76.007896 
L 314.880584 76.357427 
L 315.966385 78.518165 
L 317.052186 73.402301 
L 318.137987 73.624729 
L 319.223788 74.8322 
L 320.30959 75.213507 
L 321.395391 75.308834 
L 322.481192 76.865836 
L 323.566993 76.738734 
L 324.652794 73.783607 
L 325.738595 75.880794 
L 326.824396 73.116321 
L 327.910198 73.402301 
L 328.995999 75.022854 
L 330.0818 74.133138 
L 331.167601 74.133138 
L 332.253402 72.163054 
L 333.339203 71.972401 
L 334.425005 74.292016 
L 335.510806 72.735014 
L 336.596607 71.686421 
L 337.682408 71.781747 
L 338.768209 69.843439 
L 339.85401 70.034092 
L 340.939811 69.239703 
L 342.025613 72.48081 
L 343.111414 69.811663 
L 344.197215 69.239703 
L 345.283016 70.606052 
L 346.368817 69.017274 
L 348.54042 70.923807 
L 349.626221 67.396721 
L 350.712022 67.142517 
L 351.797823 67.809803 
L 353.969425 68.47709 
L 355.055227 64.409819 
L 356.141028 65.839719 
L 357.226829 65.458412 
L 358.31263 67.650925 
L 359.398431 63.964961 
L 360.484232 64.822901 
L 361.570033 64.981779 
L 362.655835 63.456552 
L 363.741636 66.062148 
L 364.827437 65.776168 
L 365.913238 63.996737 
L 366.999039 66.316352 
L 368.08484 64.981779 
L 369.170642 66.157474 
L 370.256443 66.062148 
L 371.342244 67.746252 
L 372.428045 68.032232 
L 373.513846 67.809803 
L 374.599647 72.607912 
L 375.685448 71.273338 
L 376.77125 68.76307 
L 377.857051 67.682701 
L 378.942852 67.61915 
L 380.028653 68.127559 
L 381.114454 66.538781 
L 382.200255 69.938765 
L 384.371858 68.000456 
L 385.457659 69.080825 
L 386.54346 70.351847 
L 387.629261 68.064008 
L 388.715062 69.938765 
L 389.800863 70.256521 
L 390.886665 69.462132 
L 391.972466 70.034092 
L 393.058267 68.318212 
L 394.144068 69.462132 
L 395.229869 66.634108 
L 396.31567 68.286436 
L 397.401472 70.828481 
L 398.487273 69.748112 
L 398.487273 69.748112 
" clip-path="url(#p0900368d74)" style="fill: none; stroke: #ff7f0e; stroke-width: 1.5; stroke-linecap: square"/>
   </g>
   <g id="line2d_21">
    <path d="M 73.832727 290.612315 
L 74.918528 274.593053 
L 76.00433 252.459737 
L 77.090131 247.33182 
L 78.175932 243.146212 
L 79.261733 231.882326 
L 80.347534 226.885895 
L 82.519137 223.883653 
L 83.604938 214.022274 
L 84.690739 213.868875 
L 85.77654 212.860823 
L 86.862341 205.037462 
L 89.033943 201.049082 
L 90.119745 202.342019 
L 91.205546 199.076807 
L 92.291347 198.46321 
L 93.377148 196.315621 
L 94.462949 194.847371 
L 95.54875 219.82953 
L 96.634552 215.512438 
L 97.720353 207.119309 
L 98.806154 203.350071 
L 99.891955 205.366175 
L 100.977756 201.684593 
L 102.063557 202.122877 
L 103.149358 202.210534 
L 104.23516 202.604989 
L 105.320961 197.805784 
L 106.406762 200.19443 
L 107.492563 194.913113 
L 108.578364 199.361691 
L 109.664165 189.938596 
L 110.749967 188.842887 
L 111.835768 192.568297 
L 112.921569 191.713644 
L 114.00737 191.27536 
L 115.093171 183.364343 
L 116.178972 185.44619 
L 118.350575 183.035631 
L 119.436376 179.748504 
L 120.522177 182.706918 
L 121.607978 181.151012 
L 122.693779 178.25834 
L 123.77958 178.871937 
L 124.865382 175.869695 
L 125.951183 176.921576 
L 128.122785 170.719864 
L 129.208586 170.413066 
L 130.294387 173.875505 
L 131.380189 171.837487 
L 132.46599 173.700192 
L 133.551791 171.136234 
L 134.637592 171.618345 
L 135.723393 173.108509 
L 136.809194 172.472998 
L 137.894995 171.443032 
L 138.980797 194.518658 
L 140.066598 187.44038 
L 141.152399 195.417139 
L 142.2382 190.552193 
L 143.324001 188.952458 
L 144.409802 194.672057 
L 145.495604 190.179652 
L 146.581405 183.232858 
L 147.667206 193.510606 
L 148.753007 189.763282 
L 149.838808 187.067839 
L 150.924609 181.260582 
L 152.01041 182.005664 
L 153.096212 186.673384 
L 155.267814 176.527121 
L 156.353615 184.438138 
L 157.439416 181.172926 
L 158.525217 184.525794 
L 159.611019 182.947974 
L 160.69682 180.318273 
L 161.782621 178.389825 
L 162.868422 182.312463 
L 163.954223 183.232858 
L 165.040024 182.049493 
L 166.125825 176.68052 
L 167.211627 174.138476 
L 168.297428 171.881316 
L 169.383229 174.532931 
L 170.46903 177.622829 
L 171.554831 176.110751 
L 172.640632 177.491344 
L 173.726434 173.919334 
L 174.812235 173.21808 
L 175.898036 172.253856 
L 176.983837 168.96673 
L 178.069638 169.426928 
L 179.155439 164.912608 
L 180.24124 170.040525 
L 181.327042 171.464946 
L 182.412843 168.112077 
L 183.498644 172.735968 
L 184.584445 170.040525 
L 185.670246 168.791417 
L 186.756047 169.163958 
L 187.841849 167.695708 
L 188.92765 165.679604 
L 190.013451 167.892936 
L 191.099252 166.249373 
L 192.185053 164.386668 
L 193.270854 163.422444 
L 194.356656 166.008317 
L 195.442457 160.792743 
L 196.528258 163.904556 
L 197.614059 161.691224 
L 198.69986 162.041851 
L 199.785661 159.587463 
L 200.871462 161.340597 
L 201.957264 159.828519 
L 203.043065 159.477893 
L 204.128866 158.754725 
L 205.214667 158.36027 
L 206.300468 157.593273 
L 207.386269 157.702844 
L 208.472071 159.039609 
L 209.557872 158.009643 
L 210.643673 157.746673 
L 211.729474 156.475651 
L 212.815275 157.615188 
L 213.901076 158.184956 
L 216.072679 155.993539 
L 217.15848 157.111162 
L 218.244281 156.409908 
L 219.330082 156.913934 
L 220.415883 155.095058 
L 221.501684 155.774397 
L 222.587486 155.489513 
L 223.673287 154.678688 
L 224.759088 156.475651 
L 225.844889 185.621503 
L 226.93069 181.151012 
L 228.016491 182.115235 
L 229.102292 184.854507 
L 230.188094 183.605399 
L 231.273895 187.352723 
L 232.359696 184.832593 
L 233.445497 179.660848 
L 234.531298 180.888041 
L 235.617099 183.035631 
L 236.702901 177.973456 
L 237.788702 183.18903 
L 238.874503 178.93768 
L 239.960304 177.20646 
L 241.046105 174.072733 
L 242.131906 176.592863 
L 243.217708 186.037873 
L 244.303509 178.061113 
L 245.38931 182.159064 
L 246.475111 179.397878 
L 247.560912 183.408172 
L 248.646713 177.096889 
L 249.732514 180.186788 
L 250.818316 173.74402 
L 251.904117 172.122371 
L 252.989918 178.170684 
L 254.075719 181.45781 
L 255.16152 179.288307 
L 256.247321 177.951542 
L 257.333123 172.494912 
L 258.418924 174.050819 
L 259.504725 177.294117 
L 260.590526 175.716296 
L 261.676327 178.521311 
L 262.762128 178.652796 
L 263.847929 179.047251 
L 264.933731 169.317357 
L 266.019532 183.123287 
L 267.105333 180.756556 
L 268.191134 180.099131 
L 269.276935 180.581243 
L 270.362736 181.348239 
L 271.448538 178.608967 
L 272.534339 187.133581 
L 273.62014 181.611209 
L 274.705941 172.210028 
L 275.791742 172.012801 
L 276.877543 174.708244 
L 277.963344 173.459136 
L 279.049146 176.921576 
L 280.134947 174.42336 
L 281.220748 174.664416 
L 282.306549 168.353133 
L 283.39235 172.867453 
L 284.478151 175.497154 
L 285.563953 178.587053 
L 286.649754 177.316031 
L 287.735555 176.965404 
L 288.821356 171.180062 
L 289.907157 174.379531 
L 290.992958 172.977024 
L 292.07876 168.287391 
L 293.164561 173.612535 
L 294.250362 171.837487 
L 295.336163 174.883557 
L 296.421964 167.695708 
L 297.507765 168.725674 
L 298.593566 168.046335 
L 299.679368 163.510101 
L 300.765169 177.20646 
L 301.85097 169.755641 
L 302.936771 176.329893 
L 304.022572 166.687656 
L 305.108373 164.474324 
L 306.194175 168.155906 
L 307.279976 169.032473 
L 308.365777 163.356701 
L 309.451578 170.785607 
L 310.537379 168.900988 
L 311.62318 163.488187 
L 312.708981 166.271287 
L 313.794783 168.002507 
L 314.880584 166.095973 
L 315.966385 166.556171 
L 317.052186 163.247131 
L 318.137987 166.841055 
L 319.223788 162.041851 
L 320.30959 165.723432 
L 321.395391 161.428254 
L 322.481192 165.526205 
L 323.566993 162.962246 
L 324.652794 159.258751 
L 325.738595 165.219406 
L 326.824396 165.153664 
L 327.910198 161.428254 
L 328.995999 163.225216 
L 330.0818 160.485945 
L 331.167601 163.444358 
L 332.253402 161.976108 
L 333.339203 158.842381 
L 334.425005 162.414392 
L 335.510806 162.545877 
L 336.596607 158.908124 
L 337.682408 158.250699 
L 338.768209 159.280665 
L 339.85401 154.700602 
L 340.939811 158.294527 
L 342.025613 159.346407 
L 343.111414 157.987729 
L 344.197215 157.133076 
L 345.283016 159.193008 
L 346.368817 154.10892 
L 347.454618 157.483703 
L 348.54042 157.637102 
L 349.626221 155.796311 
L 350.712022 156.672878 
L 351.797823 157.242647 
L 352.883624 155.68674 
L 353.969425 156.62905 
L 355.055227 155.94971 
L 356.141028 156.738621 
L 357.226829 155.708654 
L 358.31263 153.517237 
L 359.398431 152.224301 
L 360.484232 153.254267 
L 361.570033 152.158558 
L 363.741636 153.16661 
L 364.827437 154.700602 
L 365.913238 153.232353 
L 366.999039 152.246215 
L 368.08484 156.760535 
L 369.170642 156.650964 
L 370.256443 154.788259 
L 371.342244 157.812415 
L 372.428045 153.758293 
L 373.513846 159.784691 
L 374.599647 163.488187 
L 375.685448 159.258751 
L 376.77125 158.250699 
L 377.857051 156.672878 
L 378.942852 157.571359 
L 380.028653 157.374132 
L 381.114454 155.927796 
L 382.200255 161.296769 
L 383.286057 155.862054 
L 384.371858 158.645154 
L 385.457659 156.453736 
L 386.54346 155.445684 
L 387.629261 156.21268 
L 388.715062 158.601326 
L 389.800863 162.107594 
L 390.886665 158.62324 
L 391.972466 160.595515 
L 393.058267 156.607136 
L 394.144068 163.466272 
L 395.229869 152.728327 
L 396.31567 159.828519 
L 397.401472 160.113404 
L 398.487273 158.667068 
L 398.487273 158.667068 
" clip-path="url(#p0900368d74)" style="fill: none; stroke: #2ca02c; stroke-width: 1.5; stroke-linecap: square"/>
   </g>
   <g id="line2d_22">
    <path d="M 368.08484 64.727574 
L 369.170642 64.632248 
L 370.256443 66.284577 
L 371.342244 66.920088 
L 372.428045 66.284577 
L 373.513846 69.303254 
L 374.599647 69.112601 
L 375.685448 68.127559 
L 376.77125 73.370525 
L 377.857051 69.04905 
L 378.942852 70.955583 
L 381.114454 75.277058 
L 382.200255 72.544361 
L 383.286057 70.76493 
L 384.371858 74.736874 
L 385.457659 75.277058 
L 386.54346 79.630309 
L 387.629261 76.484529 
L 388.715062 71.209787 
L 389.800863 77.723776 
L 390.886665 77.40602 
L 391.972466 74.991078 
L 393.058267 76.389203 
L 394.144068 73.847158 
L 395.229869 79.312554 
L 396.31567 76.83406 
L 397.401472 78.136858 
L 398.487273 80.297596 
L 398.487273 80.297596 
" clip-path="url(#p0900368d74)" style="fill: none; stroke: #d62728; stroke-width: 1.5; stroke-linecap: square"/>
   </g>
   <g id="line2d_23">
    <path d="M 368.08484 157.637102 
L 369.170642 157.133076 
L 370.256443 154.63486 
L 371.342244 156.826277 
L 372.428045 150.493081 
L 373.513846 158.447926 
L 374.599647 159.499807 
L 375.685448 156.585221 
L 376.77125 163.159474 
L 377.857051 158.272613 
L 378.942852 156.234595 
L 380.028653 159.609378 
L 381.114454 164.145612 
L 382.200255 161.66931 
L 383.286057 155.073143 
L 384.371858 158.62324 
L 385.457659 159.740863 
L 386.54346 160.222974 
L 387.629261 161.954194 
L 388.715062 157.593273 
L 389.800863 160.266803 
L 390.886665 159.587463 
L 391.972466 162.765019 
L 393.058267 158.710896 
L 394.144068 159.587463 
L 395.229869 164.561981 
L 396.31567 162.502049 
L 397.401472 162.217164 
L 398.487273 162.063765 
L 398.487273 162.063765 
" clip-path="url(#p0900368d74)" style="fill: none; stroke: #9467bd; stroke-width: 1.5; stroke-linecap: square"/>
   </g>
   <g id="patch_3">
    <path d="M 57.6 307.584 
L 57.6 41.472 
" style="fill: none; stroke: #000000; stroke-width: 0.8; stroke-linejoin: miter; stroke-linecap: square"/>
   </g>
   <g id="patch_4">
    <path d="M 414.72 307.584 
L 414.72 41.472 
" style="fill: none; stroke: #000000; stroke-width: 0.8; stroke-linejoin: miter; stroke-linecap: square"/>
   </g>
   <g id="patch_5">
    <path d="M 57.6 307.584 
L 414.72 307.584 
" style="fill: none; stroke: #000000; stroke-width: 0.8; stroke-linejoin: miter; stroke-linecap: square"/>
   </g>
   <g id="patch_6">
    <path d="M 57.6 41.472 
L 414.72 41.472 
" style="fill: none; stroke: #000000; stroke-width: 0.8; stroke-linejoin: miter; stroke-linecap: square"/>
   </g>
   <g id="text_21">
    <!-- Learning Curves -->
    <g transform="translate(187.37625 35.472) scale(0.12 -0.12)">
     <defs>
      <path id="DejaVuSans-4c" d="M 628 4666 
L 1259 4666 
L 1259 531 
L 3531 531 
L 3531 0 
L 628 0 
L 628 4666 
z
" transform="scale(0.015625)"/>
      <path id="DejaVuSans-65" d="M 3597 1894 
L 3597 1613 
L 953 1613 
Q 991 1019 1311 708 
Q 1631 397 2203 397 
Q 2534 397 2845 478 
Q 3156 559 3463 722 
L 3463 178 
Q 3153 47 2828 -22 
Q 2503 -91 2169 -91 
Q 1331 -91 842 396 
Q 353 884 353 1716 
Q 353 2575 817 3079 
Q 1281 3584 2069 3584 
Q 2775 3584 3186 3129 
Q 3597 2675 3597 1894 
z
M 3022 2063 
Q 3016 2534 2758 2815 
Q 2500 3097 2075 3097 
Q 1594 3097 1305 2825 
Q 1016 2553 972 2059 
L 3022 2063 
z
" transform="scale(0.015625)"/>
      <path id="DejaVuSans-6e" d="M 3513 2113 
L 3513 0 
L 2938 0 
L 2938 2094 
Q 2938 2591 2744 2837 
Q 2550 3084 2163 3084 
Q 1697 3084 1428 2787 
Q 1159 2491 1159 1978 
L 1159 0 
L 581 0 
L 581 3500 
L 1159 3500 
L 1159 2956 
Q 1366 3272 1645 3428 
Q 1925 3584 2291 3584 
Q 2894 3584 3203 3211 
Q 3513 2838 3513 2113 
z
" transform="scale(0.015625)"/>
      <path id="DejaVuSans-69" d="M 603 3500 
L 1178 3500 
L 1178 0 
L 603 0 
L 603 3500 
z
M 603 4863 
L 1178 4863 
L 1178 4134 
L 603 4134 
L 603 4863 
z
" transform="scale(0.015625)"/>
      <path id="DejaVuSans-67" d="M 2906 1791 
Q 2906 2416 2648 2759 
Q 2391 3103 1925 3103 
Q 1463 3103 1205 2759 
Q 947 2416 947 1791 
Q 947 1169 1205 825 
Q 1463 481 1925 481 
Q 2391 481 2648 825 
Q 2906 1169 2906 1791 
z
M 3481 434 
Q 3481 -459 3084 -895 
Q 2688 -1331 1869 -1331 
Q 1566 -1331 1297 -1286 
Q 1028 -1241 775 -1147 
L 775 -588 
Q 1028 -725 1275 -790 
Q 1522 -856 1778 -856 
Q 2344 -856 2625 -561 
Q 2906 -266 2906 331 
L 2906 616 
Q 2728 306 2450 153 
Q 2172 0 1784 0 
Q 1141 0 747 490 
Q 353 981 353 1791 
Q 353 2603 747 3093 
Q 1141 3584 1784 3584 
Q 2172 3584 2450 3431 
Q 2728 3278 2906 2969 
L 2906 3500 
L 3481 3500 
L 3481 434 
z
" transform="scale(0.015625)"/>
      <path id="DejaVuSans-20" transform="scale(0.015625)"/>
      <path id="DejaVuSans-43" d="M 4122 4306 
L 4122 3641 
Q 3803 3938 3442 4084 
Q 3081 4231 2675 4231 
Q 1875 4231 1450 3742 
Q 1025 3253 1025 2328 
Q 1025 1406 1450 917 
Q 1875 428 2675 428 
Q 3081 428 3442 575 
Q 3803 722 4122 1019 
L 4122 359 
Q 3791 134 3420 21 
Q 3050 -91 2638 -91 
Q 1578 -91 968 557 
Q 359 1206 359 2328 
Q 359 3453 968 4101 
Q 1578 4750 2638 4750 
Q 3056 4750 3426 4639 
Q 3797 4528 4122 4306 
z
" transform="scale(0.015625)"/>
      <path id="DejaVuSans-76" d="M 191 3500 
L 800 3500 
L 1894 563 
L 2988 3500 
L 3597 3500 
L 2284 0 
L 1503 0 
L 191 3500 
z
" transform="scale(0.015625)"/>
     </defs>
     <use xlink:href="#DejaVuSans-4c"/>
     <use xlink:href="#DejaVuSans-65" x="53.962891"/>
     <use xlink:href="#DejaVuSans-61" x="115.486328"/>
     <use xlink:href="#DejaVuSans-72" x="176.765625"/>
     <use xlink:href="#DejaVuSans-6e" x="216.128906"/>
     <use xlink:href="#DejaVuSans-69" x="279.507812"/>
     <use xlink:href="#DejaVuSans-6e" x="307.291016"/>
     <use xlink:href="#DejaVuSans-67" x="370.669922"/>
     <use xlink:href="#DejaVuSans-20" x="434.146484"/>
     <use xlink:href="#DejaVuSans-43" x="465.933594"/>
     <use xlink:href="#DejaVuSans-75" x="535.757812"/>
     <use xlink:href="#DejaVuSans-72" x="599.136719"/>
     <use xlink:href="#DejaVuSans-76" x="640.25"/>
     <use xlink:href="#DejaVuSans-65" x="699.429688"/>
     <use xlink:href="#DejaVuSans-73" x="760.953125"/>
    </g>
   </g>
   <g id="legend_1">
    <g id="patch_7">
     <path d="M 214.18875 302.584 
L 407.72 302.584 
Q 409.72 302.584 409.72 300.584 
L 409.72 228.193375 
Q 409.72 226.193375 407.72 226.193375 
L 214.18875 226.193375 
Q 212.18875 226.193375 212.18875 228.193375 
L 212.18875 300.584 
Q 212.18875 302.584 214.18875 302.584 
z
" style="fill: #ffffff; opacity: 0.8; stroke: #cccccc; stroke-linejoin: miter"/>
    </g>
    <g id="line2d_24">
     <path d="M 216.18875 234.291812 
L 226.18875 234.291812 
L 236.18875 234.291812 
" style="fill: none; stroke: #1f77b4; stroke-width: 1.5; stroke-linecap: square"/>
    </g>
    <g id="text_22">
     <!-- Train Accuracy -->
     <g transform="translate(244.18875 237.791812) scale(0.1 -0.1)">
      <defs>
       <path id="DejaVuSans-54" d="M -19 4666 
L 3928 4666 
L 3928 4134 
L 2272 4134 
L 2272 0 
L 1638 0 
L 1638 4134 
L -19 4134 
L -19 4666 
z
" transform="scale(0.015625)"/>
      </defs>
      <use xlink:href="#DejaVuSans-54"/>
      <use xlink:href="#DejaVuSans-72" x="46.333984"/>
      <use xlink:href="#DejaVuSans-61" x="87.447266"/>
      <use xlink:href="#DejaVuSans-69" x="148.726562"/>
      <use xlink:href="#DejaVuSans-6e" x="176.509766"/>
      <use xlink:href="#DejaVuSans-20" x="239.888672"/>
      <use xlink:href="#DejaVuSans-41" x="271.675781"/>
      <use xlink:href="#DejaVuSans-63" x="338.333984"/>
      <use xlink:href="#DejaVuSans-63" x="393.314453"/>
      <use xlink:href="#DejaVuSans-75" x="448.294922"/>
      <use xlink:href="#DejaVuSans-72" x="511.673828"/>
      <use xlink:href="#DejaVuSans-61" x="552.787109"/>
      <use xlink:href="#DejaVuSans-63" x="614.066406"/>
      <use xlink:href="#DejaVuSans-79" x="669.046875"/>
     </g>
    </g>
    <g id="line2d_25">
     <path d="M 216.18875 248.969937 
L 226.18875 248.969937 
L 236.18875 248.969937 
" style="fill: none; stroke: #ff7f0e; stroke-width: 1.5; stroke-linecap: square"/>
    </g>
    <g id="text_23">
     <!-- Validation Accuracy -->
     <g transform="translate(244.18875 252.469937) scale(0.1 -0.1)">
      <defs>
       <path id="DejaVuSans-56" d="M 1831 0 
L 50 4666 
L 709 4666 
L 2188 738 
L 3669 4666 
L 4325 4666 
L 2547 0 
L 1831 0 
z
" transform="scale(0.015625)"/>
       <path id="DejaVuSans-6c" d="M 603 4863 
L 1178 4863 
L 1178 0 
L 603 0 
L 603 4863 
z
" transform="scale(0.015625)"/>
       <path id="DejaVuSans-64" d="M 2906 2969 
L 2906 4863 
L 3481 4863 
L 3481 0 
L 2906 0 
L 2906 525 
Q 2725 213 2448 61 
Q 2172 -91 1784 -91 
Q 1150 -91 751 415 
Q 353 922 353 1747 
Q 353 2572 751 3078 
Q 1150 3584 1784 3584 
Q 2172 3584 2448 3432 
Q 2725 3281 2906 2969 
z
M 947 1747 
Q 947 1113 1208 752 
Q 1469 391 1925 391 
Q 2381 391 2643 752 
Q 2906 1113 2906 1747 
Q 2906 2381 2643 2742 
Q 2381 3103 1925 3103 
Q 1469 3103 1208 2742 
Q 947 2381 947 1747 
z
" transform="scale(0.015625)"/>
       <path id="DejaVuSans-74" d="M 1172 4494 
L 1172 3500 
L 2356 3500 
L 2356 3053 
L 1172 3053 
L 1172 1153 
Q 1172 725 1289 603 
Q 1406 481 1766 481 
L 2356 481 
L 2356 0 
L 1766 0 
Q 1100 0 847 248 
Q 594 497 594 1153 
L 594 3053 
L 172 3053 
L 172 3500 
L 594 3500 
L 594 4494 
L 1172 4494 
z
" transform="scale(0.015625)"/>
      </defs>
      <use xlink:href="#DejaVuSans-56"/>
      <use xlink:href="#DejaVuSans-61" x="60.658203"/>
      <use xlink:href="#DejaVuSans-6c" x="121.9375"/>
      <use xlink:href="#DejaVuSans-69" x="149.720703"/>
      <use xlink:href="#DejaVuSans-64" x="177.503906"/>
      <use xlink:href="#DejaVuSans-61" x="240.980469"/>
      <use xlink:href="#DejaVuSans-74" x="302.259766"/>
      <use xlink:href="#DejaVuSans-69" x="341.46875"/>
      <use xlink:href="#DejaVuSans-6f" x="369.251953"/>
      <use xlink:href="#DejaVuSans-6e" x="430.433594"/>
      <use xlink:href="#DejaVuSans-20" x="493.8125"/>
      <use xlink:href="#DejaVuSans-41" x="525.599609"/>
      <use xlink:href="#DejaVuSans-63" x="592.257812"/>
      <use xlink:href="#DejaVuSans-63" x="647.238281"/>
      <use xlink:href="#DejaVuSans-75" x="702.21875"/>
      <use xlink:href="#DejaVuSans-72" x="765.597656"/>
      <use xlink:href="#DejaVuSans-61" x="806.710938"/>
      <use xlink:href="#DejaVuSans-63" x="867.990234"/>
      <use xlink:href="#DejaVuSans-79" x="922.970703"/>
     </g>
    </g>
    <g id="line2d_26">
     <path d="M 216.18875 263.648062 
L 226.18875 263.648062 
L 236.18875 263.648062 
" style="fill: none; stroke: #2ca02c; stroke-width: 1.5; stroke-linecap: square"/>
    </g>
    <g id="text_24">
     <!-- Robust Validation Accuracy -->
     <g transform="translate(244.18875 267.148062) scale(0.1 -0.1)">
      <defs>
       <path id="DejaVuSans-52" d="M 2841 2188 
Q 3044 2119 3236 1894 
Q 3428 1669 3622 1275 
L 4263 0 
L 3584 0 
L 2988 1197 
Q 2756 1666 2539 1819 
Q 2322 1972 1947 1972 
L 1259 1972 
L 1259 0 
L 628 0 
L 628 4666 
L 2053 4666 
Q 2853 4666 3247 4331 
Q 3641 3997 3641 3322 
Q 3641 2881 3436 2590 
Q 3231 2300 2841 2188 
z
M 1259 4147 
L 1259 2491 
L 2053 2491 
Q 2509 2491 2742 2702 
Q 2975 2913 2975 3322 
Q 2975 3731 2742 3939 
Q 2509 4147 2053 4147 
L 1259 4147 
z
" transform="scale(0.015625)"/>
       <path id="DejaVuSans-62" d="M 3116 1747 
Q 3116 2381 2855 2742 
Q 2594 3103 2138 3103 
Q 1681 3103 1420 2742 
Q 1159 2381 1159 1747 
Q 1159 1113 1420 752 
Q 1681 391 2138 391 
Q 2594 391 2855 752 
Q 3116 1113 3116 1747 
z
M 1159 2969 
Q 1341 3281 1617 3432 
Q 1894 3584 2278 3584 
Q 2916 3584 3314 3078 
Q 3713 2572 3713 1747 
Q 3713 922 3314 415 
Q 2916 -91 2278 -91 
Q 1894 -91 1617 61 
Q 1341 213 1159 525 
L 1159 0 
L 581 0 
L 581 4863 
L 1159 4863 
L 1159 2969 
z
" transform="scale(0.015625)"/>
      </defs>
      <use xlink:href="#DejaVuSans-52"/>
      <use xlink:href="#DejaVuSans-6f" x="64.982422"/>
      <use xlink:href="#DejaVuSans-62" x="126.164062"/>
      <use xlink:href="#DejaVuSans-75" x="189.640625"/>
      <use xlink:href="#DejaVuSans-73" x="253.019531"/>
      <use xlink:href="#DejaVuSans-74" x="305.119141"/>
      <use xlink:href="#DejaVuSans-20" x="344.328125"/>
      <use xlink:href="#DejaVuSans-56" x="376.115234"/>
      <use xlink:href="#DejaVuSans-61" x="436.773438"/>
      <use xlink:href="#DejaVuSans-6c" x="498.052734"/>
      <use xlink:href="#DejaVuSans-69" x="525.835938"/>
      <use xlink:href="#DejaVuSans-64" x="553.619141"/>
      <use xlink:href="#DejaVuSans-61" x="617.095703"/>
      <use xlink:href="#DejaVuSans-74" x="678.375"/>
      <use xlink:href="#DejaVuSans-69" x="717.583984"/>
      <use xlink:href="#DejaVuSans-6f" x="745.367188"/>
      <use xlink:href="#DejaVuSans-6e" x="806.548828"/>
      <use xlink:href="#DejaVuSans-20" x="869.927734"/>
      <use xlink:href="#DejaVuSans-41" x="901.714844"/>
      <use xlink:href="#DejaVuSans-63" x="968.373047"/>
      <use xlink:href="#DejaVuSans-63" x="1023.353516"/>
      <use xlink:href="#DejaVuSans-75" x="1078.333984"/>
      <use xlink:href="#DejaVuSans-72" x="1141.712891"/>
      <use xlink:href="#DejaVuSans-61" x="1182.826172"/>
      <use xlink:href="#DejaVuSans-63" x="1244.105469"/>
      <use xlink:href="#DejaVuSans-79" x="1299.085938"/>
     </g>
    </g>
    <g id="line2d_27">
     <path d="M 216.18875 278.326188 
L 226.18875 278.326188 
L 236.18875 278.326188 
" style="fill: none; stroke: #d62728; stroke-width: 1.5; stroke-linecap: square"/>
    </g>
    <g id="text_25">
     <!-- SWA Validation Accuracy -->
     <g transform="translate(244.18875 281.826188) scale(0.1 -0.1)">
      <defs>
       <path id="DejaVuSans-53" d="M 3425 4513 
L 3425 3897 
Q 3066 4069 2747 4153 
Q 2428 4238 2131 4238 
Q 1616 4238 1336 4038 
Q 1056 3838 1056 3469 
Q 1056 3159 1242 3001 
Q 1428 2844 1947 2747 
L 2328 2669 
Q 3034 2534 3370 2195 
Q 3706 1856 3706 1288 
Q 3706 609 3251 259 
Q 2797 -91 1919 -91 
Q 1588 -91 1214 -16 
Q 841 59 441 206 
L 441 856 
Q 825 641 1194 531 
Q 1563 422 1919 422 
Q 2459 422 2753 634 
Q 3047 847 3047 1241 
Q 3047 1584 2836 1778 
Q 2625 1972 2144 2069 
L 1759 2144 
Q 1053 2284 737 2584 
Q 422 2884 422 3419 
Q 422 4038 858 4394 
Q 1294 4750 2059 4750 
Q 2388 4750 2728 4690 
Q 3069 4631 3425 4513 
z
" transform="scale(0.015625)"/>
       <path id="DejaVuSans-57" d="M 213 4666 
L 850 4666 
L 1831 722 
L 2809 4666 
L 3519 4666 
L 4500 722 
L 5478 4666 
L 6119 4666 
L 4947 0 
L 4153 0 
L 3169 4050 
L 2175 0 
L 1381 0 
L 213 4666 
z
" transform="scale(0.015625)"/>
      </defs>
      <use xlink:href="#DejaVuSans-53"/>
      <use xlink:href="#DejaVuSans-57" x="63.476562"/>
      <use xlink:href="#DejaVuSans-41" x="156.853516"/>
      <use xlink:href="#DejaVuSans-20" x="225.261719"/>
      <use xlink:href="#DejaVuSans-56" x="257.048828"/>
      <use xlink:href="#DejaVuSans-61" x="317.707031"/>
      <use xlink:href="#DejaVuSans-6c" x="378.986328"/>
      <use xlink:href="#DejaVuSans-69" x="406.769531"/>
      <use xlink:href="#DejaVuSans-64" x="434.552734"/>
      <use xlink:href="#DejaVuSans-61" x="498.029297"/>
      <use xlink:href="#DejaVuSans-74" x="559.308594"/>
      <use xlink:href="#DejaVuSans-69" x="598.517578"/>
      <use xlink:href="#DejaVuSans-6f" x="626.300781"/>
      <use xlink:href="#DejaVuSans-6e" x="687.482422"/>
      <use xlink:href="#DejaVuSans-20" x="750.861328"/>
      <use xlink:href="#DejaVuSans-41" x="782.648438"/>
      <use xlink:href="#DejaVuSans-63" x="849.306641"/>
      <use xlink:href="#DejaVuSans-63" x="904.287109"/>
      <use xlink:href="#DejaVuSans-75" x="959.267578"/>
      <use xlink:href="#DejaVuSans-72" x="1022.646484"/>
      <use xlink:href="#DejaVuSans-61" x="1063.759766"/>
      <use xlink:href="#DejaVuSans-63" x="1125.039062"/>
      <use xlink:href="#DejaVuSans-79" x="1180.019531"/>
     </g>
    </g>
    <g id="line2d_28">
     <path d="M 216.18875 293.004312 
L 226.18875 293.004312 
L 236.18875 293.004312 
" style="fill: none; stroke: #9467bd; stroke-width: 1.5; stroke-linecap: square"/>
    </g>
    <g id="text_26">
     <!-- SWA Robust Validation Accuracy -->
     <g transform="translate(244.18875 296.504312) scale(0.1 -0.1)">
      <use xlink:href="#DejaVuSans-53"/>
      <use xlink:href="#DejaVuSans-57" x="63.476562"/>
      <use xlink:href="#DejaVuSans-41" x="156.853516"/>
      <use xlink:href="#DejaVuSans-20" x="225.261719"/>
      <use xlink:href="#DejaVuSans-52" x="257.048828"/>
      <use xlink:href="#DejaVuSans-6f" x="322.03125"/>
      <use xlink:href="#DejaVuSans-62" x="383.212891"/>
      <use xlink:href="#DejaVuSans-75" x="446.689453"/>
      <use xlink:href="#DejaVuSans-73" x="510.068359"/>
      <use xlink:href="#DejaVuSans-74" x="562.167969"/>
      <use xlink:href="#DejaVuSans-20" x="601.376953"/>
      <use xlink:href="#DejaVuSans-56" x="633.164062"/>
      <use xlink:href="#DejaVuSans-61" x="693.822266"/>
      <use xlink:href="#DejaVuSans-6c" x="755.101562"/>
      <use xlink:href="#DejaVuSans-69" x="782.884766"/>
      <use xlink:href="#DejaVuSans-64" x="810.667969"/>
      <use xlink:href="#DejaVuSans-61" x="874.144531"/>
      <use xlink:href="#DejaVuSans-74" x="935.423828"/>
      <use xlink:href="#DejaVuSans-69" x="974.632812"/>
      <use xlink:href="#DejaVuSans-6f" x="1002.416016"/>
      <use xlink:href="#DejaVuSans-6e" x="1063.597656"/>
      <use xlink:href="#DejaVuSans-20" x="1126.976562"/>
      <use xlink:href="#DejaVuSans-41" x="1158.763672"/>
      <use xlink:href="#DejaVuSans-63" x="1225.421875"/>
      <use xlink:href="#DejaVuSans-63" x="1280.402344"/>
      <use xlink:href="#DejaVuSans-75" x="1335.382812"/>
      <use xlink:href="#DejaVuSans-72" x="1398.761719"/>
      <use xlink:href="#DejaVuSans-61" x="1439.875"/>
      <use xlink:href="#DejaVuSans-63" x="1501.154297"/>
      <use xlink:href="#DejaVuSans-79" x="1556.134766"/>
     </g>
    </g>
   </g>
  </g>
 </g>
 <defs>
  <clipPath id="p0900368d74">
   <rect x="57.6" y="41.472" width="357.12" height="266.112"/>
  </clipPath>
 </defs>
</svg>
