<?xml version="1.0" encoding="utf-8" standalone="no"?>
<!DOCTYPE svg PUBLIC "-//W3C//DTD SVG 1.1//EN"
  "http://www.w3.org/Graphics/SVG/1.1/DTD/svg11.dtd">
<svg xmlns:xlink="http://www.w3.org/1999/xlink" width="460.8pt" height="345.6pt" viewBox="0 0 460.8 345.6" xmlns="http://www.w3.org/2000/svg" version="1.1">
 <metadata>
  <rdf:RDF xmlns:dc="http://purl.org/dc/elements/1.1/" xmlns:cc="http://creativecommons.org/ns#" xmlns:rdf="http://www.w3.org/1999/02/22-rdf-syntax-ns#">
   <cc:Work>
    <dc:type rdf:resource="http://purl.org/dc/dcmitype/StillImage"/>
    <dc:date>2025-05-02T12:11:41.835244</dc:date>
    <dc:format>image/svg+xml</dc:format>
    <dc:creator>
     <cc:Agent>
      <dc:title>Matplotlib v3.9.1, https://matplotlib.org/</dc:title>
     </cc:Agent>
    </dc:creator>
   </cc:Work>
  </rdf:RDF>
 </metadata>
 <defs>
  <style type="text/css">*{stroke-linejoin: round; stroke-linecap: butt}</style>
 </defs>
 <g id="figure_1">
  <g id="patch_1">
   <path d="M 0 345.6 
L 460.8 345.6 
L 460.8 0 
L 0 0 
z
" style="fill: #ffffff"/>
  </g>
  <g id="axes_1">
   <g id="patch_2">
    <path d="M 57.6 307.584 
L 414.72 307.584 
L 414.72 41.472 
L 57.6 41.472 
z
" style="fill: #ffffff"/>
   </g>
   <g id="matplotlib.axis_1">
    <g id="xtick_1">
     <g id="line2d_1">
      <defs>
       <path id="m61a8ecb097" d="M 0 0 
L 0 3.5 
" style="stroke: #000000; stroke-width: 0.8"/>
      </defs>
      <g>
       <use xlink:href="#m61a8ecb097" x="73.832727" y="307.584" style="stroke: #000000; stroke-width: 0.8"/>
      </g>
     </g>
     <g id="text_1">
      <!-- 1 -->
      <g transform="translate(70.651477 322.182437) scale(0.1 -0.1)">
       <defs>
        <path id="DejaVuSans-31" d="M 794 531 
L 1825 531 
L 1825 4091 
L 703 3866 
L 703 4441 
L 1819 4666 
L 2450 4666 
L 2450 531 
L 3481 531 
L 3481 0 
L 794 0 
L 794 531 
z
" transform="scale(0.015625)"/>
       </defs>
       <use xlink:href="#DejaVuSans-31"/>
      </g>
     </g>
    </g>
    <g id="xtick_2">
     <g id="line2d_2">
      <g>
       <use xlink:href="#m61a8ecb097" x="109.664165" y="307.584" style="stroke: #000000; stroke-width: 0.8"/>
      </g>
     </g>
     <g id="text_2">
      <!-- 34 -->
      <g transform="translate(103.301665 322.182437) scale(0.1 -0.1)">
       <defs>
        <path id="DejaVuSans-33" d="M 2597 2516 
Q 3050 2419 3304 2112 
Q 3559 1806 3559 1356 
Q 3559 666 3084 287 
Q 2609 -91 1734 -91 
Q 1441 -91 1130 -33 
Q 819 25 488 141 
L 488 750 
Q 750 597 1062 519 
Q 1375 441 1716 441 
Q 2309 441 2620 675 
Q 2931 909 2931 1356 
Q 2931 1769 2642 2001 
Q 2353 2234 1838 2234 
L 1294 2234 
L 1294 2753 
L 1863 2753 
Q 2328 2753 2575 2939 
Q 2822 3125 2822 3475 
Q 2822 3834 2567 4026 
Q 2313 4219 1838 4219 
Q 1578 4219 1281 4162 
Q 984 4106 628 3988 
L 628 4550 
Q 988 4650 1302 4700 
Q 1616 4750 1894 4750 
Q 2613 4750 3031 4423 
Q 3450 4097 3450 3541 
Q 3450 3153 3228 2886 
Q 3006 2619 2597 2516 
z
" transform="scale(0.015625)"/>
        <path id="DejaVuSans-34" d="M 2419 4116 
L 825 1625 
L 2419 1625 
L 2419 4116 
z
M 2253 4666 
L 3047 4666 
L 3047 1625 
L 3713 1625 
L 3713 1100 
L 3047 1100 
L 3047 0 
L 2419 0 
L 2419 1100 
L 313 1100 
L 313 1709 
L 2253 4666 
z
" transform="scale(0.015625)"/>
       </defs>
       <use xlink:href="#DejaVuSans-33"/>
       <use xlink:href="#DejaVuSans-34" x="63.623047"/>
      </g>
     </g>
    </g>
    <g id="xtick_3">
     <g id="line2d_3">
      <g>
       <use xlink:href="#m61a8ecb097" x="145.495604" y="307.584" style="stroke: #000000; stroke-width: 0.8"/>
      </g>
     </g>
     <g id="text_3">
      <!-- 67 -->
      <g transform="translate(139.133104 322.182437) scale(0.1 -0.1)">
       <defs>
        <path id="DejaVuSans-36" d="M 2113 2584 
Q 1688 2584 1439 2293 
Q 1191 2003 1191 1497 
Q 1191 994 1439 701 
Q 1688 409 2113 409 
Q 2538 409 2786 701 
Q 3034 994 3034 1497 
Q 3034 2003 2786 2293 
Q 2538 2584 2113 2584 
z
M 3366 4563 
L 3366 3988 
Q 3128 4100 2886 4159 
Q 2644 4219 2406 4219 
Q 1781 4219 1451 3797 
Q 1122 3375 1075 2522 
Q 1259 2794 1537 2939 
Q 1816 3084 2150 3084 
Q 2853 3084 3261 2657 
Q 3669 2231 3669 1497 
Q 3669 778 3244 343 
Q 2819 -91 2113 -91 
Q 1303 -91 875 529 
Q 447 1150 447 2328 
Q 447 3434 972 4092 
Q 1497 4750 2381 4750 
Q 2619 4750 2861 4703 
Q 3103 4656 3366 4563 
z
" transform="scale(0.015625)"/>
        <path id="DejaVuSans-37" d="M 525 4666 
L 3525 4666 
L 3525 4397 
L 1831 0 
L 1172 0 
L 2766 4134 
L 525 4134 
L 525 4666 
z
" transform="scale(0.015625)"/>
       </defs>
       <use xlink:href="#DejaVuSans-36"/>
       <use xlink:href="#DejaVuSans-37" x="63.623047"/>
      </g>
     </g>
    </g>
    <g id="xtick_4">
     <g id="line2d_4">
      <g>
       <use xlink:href="#m61a8ecb097" x="181.327042" y="307.584" style="stroke: #000000; stroke-width: 0.8"/>
      </g>
     </g>
     <g id="text_4">
      <!-- 100 -->
      <g transform="translate(171.783292 322.182437) scale(0.1 -0.1)">
       <defs>
        <path id="DejaVuSans-30" d="M 2034 4250 
Q 1547 4250 1301 3770 
Q 1056 3291 1056 2328 
Q 1056 1369 1301 889 
Q 1547 409 2034 409 
Q 2525 409 2770 889 
Q 3016 1369 3016 2328 
Q 3016 3291 2770 3770 
Q 2525 4250 2034 4250 
z
M 2034 4750 
Q 2819 4750 3233 4129 
Q 3647 3509 3647 2328 
Q 3647 1150 3233 529 
Q 2819 -91 2034 -91 
Q 1250 -91 836 529 
Q 422 1150 422 2328 
Q 422 3509 836 4129 
Q 1250 4750 2034 4750 
z
" transform="scale(0.015625)"/>
       </defs>
       <use xlink:href="#DejaVuSans-31"/>
       <use xlink:href="#DejaVuSans-30" x="63.623047"/>
       <use xlink:href="#DejaVuSans-30" x="127.246094"/>
      </g>
     </g>
    </g>
    <g id="xtick_5">
     <g id="line2d_5">
      <g>
       <use xlink:href="#m61a8ecb097" x="217.15848" y="307.584" style="stroke: #000000; stroke-width: 0.8"/>
      </g>
     </g>
     <g id="text_5">
      <!-- 133 -->
      <g transform="translate(207.61473 322.182437) scale(0.1 -0.1)">
       <use xlink:href="#DejaVuSans-31"/>
       <use xlink:href="#DejaVuSans-33" x="63.623047"/>
       <use xlink:href="#DejaVuSans-33" x="127.246094"/>
      </g>
     </g>
    </g>
    <g id="xtick_6">
     <g id="line2d_6">
      <g>
       <use xlink:href="#m61a8ecb097" x="254.075719" y="307.584" style="stroke: #000000; stroke-width: 0.8"/>
      </g>
     </g>
     <g id="text_6">
      <!-- 167 -->
      <g transform="translate(244.531969 322.182437) scale(0.1 -0.1)">
       <use xlink:href="#DejaVuSans-31"/>
       <use xlink:href="#DejaVuSans-36" x="63.623047"/>
       <use xlink:href="#DejaVuSans-37" x="127.246094"/>
      </g>
     </g>
    </g>
    <g id="xtick_7">
     <g id="line2d_7">
      <g>
       <use xlink:href="#m61a8ecb097" x="289.907157" y="307.584" style="stroke: #000000; stroke-width: 0.8"/>
      </g>
     </g>
     <g id="text_7">
      <!-- 200 -->
      <g transform="translate(280.363407 322.182437) scale(0.1 -0.1)">
       <defs>
        <path id="DejaVuSans-32" d="M 1228 531 
L 3431 531 
L 3431 0 
L 469 0 
L 469 531 
Q 828 903 1448 1529 
Q 2069 2156 2228 2338 
Q 2531 2678 2651 2914 
Q 2772 3150 2772 3378 
Q 2772 3750 2511 3984 
Q 2250 4219 1831 4219 
Q 1534 4219 1204 4116 
Q 875 4013 500 3803 
L 500 4441 
Q 881 4594 1212 4672 
Q 1544 4750 1819 4750 
Q 2544 4750 2975 4387 
Q 3406 4025 3406 3419 
Q 3406 3131 3298 2873 
Q 3191 2616 2906 2266 
Q 2828 2175 2409 1742 
Q 1991 1309 1228 531 
z
" transform="scale(0.015625)"/>
       </defs>
       <use xlink:href="#DejaVuSans-32"/>
       <use xlink:href="#DejaVuSans-30" x="63.623047"/>
       <use xlink:href="#DejaVuSans-30" x="127.246094"/>
      </g>
     </g>
    </g>
    <g id="xtick_8">
     <g id="line2d_8">
      <g>
       <use xlink:href="#m61a8ecb097" x="325.738595" y="307.584" style="stroke: #000000; stroke-width: 0.8"/>
      </g>
     </g>
     <g id="text_8">
      <!-- 233 -->
      <g transform="translate(316.194845 322.182437) scale(0.1 -0.1)">
       <use xlink:href="#DejaVuSans-32"/>
       <use xlink:href="#DejaVuSans-33" x="63.623047"/>
       <use xlink:href="#DejaVuSans-33" x="127.246094"/>
      </g>
     </g>
    </g>
    <g id="xtick_9">
     <g id="line2d_9">
      <g>
       <use xlink:href="#m61a8ecb097" x="361.570033" y="307.584" style="stroke: #000000; stroke-width: 0.8"/>
      </g>
     </g>
     <g id="text_9">
      <!-- 266 -->
      <g transform="translate(352.026283 322.182437) scale(0.1 -0.1)">
       <use xlink:href="#DejaVuSans-32"/>
       <use xlink:href="#DejaVuSans-36" x="63.623047"/>
       <use xlink:href="#DejaVuSans-36" x="127.246094"/>
      </g>
     </g>
    </g>
    <g id="xtick_10">
     <g id="line2d_10">
      <g>
       <use xlink:href="#m61a8ecb097" x="398.487273" y="307.584" style="stroke: #000000; stroke-width: 0.8"/>
      </g>
     </g>
     <g id="text_10">
      <!-- 300 -->
      <g transform="translate(388.943523 322.182437) scale(0.1 -0.1)">
       <use xlink:href="#DejaVuSans-33"/>
       <use xlink:href="#DejaVuSans-30" x="63.623047"/>
       <use xlink:href="#DejaVuSans-30" x="127.246094"/>
      </g>
     </g>
    </g>
    <g id="text_11">
     <!-- Epochs -->
     <g transform="translate(218.244375 335.860562) scale(0.1 -0.1)">
      <defs>
       <path id="DejaVuSans-45" d="M 628 4666 
L 3578 4666 
L 3578 4134 
L 1259 4134 
L 1259 2753 
L 3481 2753 
L 3481 2222 
L 1259 2222 
L 1259 531 
L 3634 531 
L 3634 0 
L 628 0 
L 628 4666 
z
" transform="scale(0.015625)"/>
       <path id="DejaVuSans-70" d="M 1159 525 
L 1159 -1331 
L 581 -1331 
L 581 3500 
L 1159 3500 
L 1159 2969 
Q 1341 3281 1617 3432 
Q 1894 3584 2278 3584 
Q 2916 3584 3314 3078 
Q 3713 2572 3713 1747 
Q 3713 922 3314 415 
Q 2916 -91 2278 -91 
Q 1894 -91 1617 61 
Q 1341 213 1159 525 
z
M 3116 1747 
Q 3116 2381 2855 2742 
Q 2594 3103 2138 3103 
Q 1681 3103 1420 2742 
Q 1159 2381 1159 1747 
Q 1159 1113 1420 752 
Q 1681 391 2138 391 
Q 2594 391 2855 752 
Q 3116 1113 3116 1747 
z
" transform="scale(0.015625)"/>
       <path id="DejaVuSans-6f" d="M 1959 3097 
Q 1497 3097 1228 2736 
Q 959 2375 959 1747 
Q 959 1119 1226 758 
Q 1494 397 1959 397 
Q 2419 397 2687 759 
Q 2956 1122 2956 1747 
Q 2956 2369 2687 2733 
Q 2419 3097 1959 3097 
z
M 1959 3584 
Q 2709 3584 3137 3096 
Q 3566 2609 3566 1747 
Q 3566 888 3137 398 
Q 2709 -91 1959 -91 
Q 1206 -91 779 398 
Q 353 888 353 1747 
Q 353 2609 779 3096 
Q 1206 3584 1959 3584 
z
" transform="scale(0.015625)"/>
       <path id="DejaVuSans-63" d="M 3122 3366 
L 3122 2828 
Q 2878 2963 2633 3030 
Q 2388 3097 2138 3097 
Q 1578 3097 1268 2742 
Q 959 2388 959 1747 
Q 959 1106 1268 751 
Q 1578 397 2138 397 
Q 2388 397 2633 464 
Q 2878 531 3122 666 
L 3122 134 
Q 2881 22 2623 -34 
Q 2366 -91 2075 -91 
Q 1284 -91 818 406 
Q 353 903 353 1747 
Q 353 2603 823 3093 
Q 1294 3584 2113 3584 
Q 2378 3584 2631 3529 
Q 2884 3475 3122 3366 
z
" transform="scale(0.015625)"/>
       <path id="DejaVuSans-68" d="M 3513 2113 
L 3513 0 
L 2938 0 
L 2938 2094 
Q 2938 2591 2744 2837 
Q 2550 3084 2163 3084 
Q 1697 3084 1428 2787 
Q 1159 2491 1159 1978 
L 1159 0 
L 581 0 
L 581 4863 
L 1159 4863 
L 1159 2956 
Q 1366 3272 1645 3428 
Q 1925 3584 2291 3584 
Q 2894 3584 3203 3211 
Q 3513 2838 3513 2113 
z
" transform="scale(0.015625)"/>
       <path id="DejaVuSans-73" d="M 2834 3397 
L 2834 2853 
Q 2591 2978 2328 3040 
Q 2066 3103 1784 3103 
Q 1356 3103 1142 2972 
Q 928 2841 928 2578 
Q 928 2378 1081 2264 
Q 1234 2150 1697 2047 
L 1894 2003 
Q 2506 1872 2764 1633 
Q 3022 1394 3022 966 
Q 3022 478 2636 193 
Q 2250 -91 1575 -91 
Q 1294 -91 989 -36 
Q 684 19 347 128 
L 347 722 
Q 666 556 975 473 
Q 1284 391 1588 391 
Q 1994 391 2212 530 
Q 2431 669 2431 922 
Q 2431 1156 2273 1281 
Q 2116 1406 1581 1522 
L 1381 1569 
Q 847 1681 609 1914 
Q 372 2147 372 2553 
Q 372 3047 722 3315 
Q 1072 3584 1716 3584 
Q 2034 3584 2315 3537 
Q 2597 3491 2834 3397 
z
" transform="scale(0.015625)"/>
      </defs>
      <use xlink:href="#DejaVuSans-45"/>
      <use xlink:href="#DejaVuSans-70" x="63.183594"/>
      <use xlink:href="#DejaVuSans-6f" x="126.660156"/>
      <use xlink:href="#DejaVuSans-63" x="187.841797"/>
      <use xlink:href="#DejaVuSans-68" x="242.822266"/>
      <use xlink:href="#DejaVuSans-73" x="306.201172"/>
     </g>
    </g>
   </g>
   <g id="matplotlib.axis_2">
    <g id="ytick_1">
     <g id="line2d_11">
      <defs>
       <path id="me2fb990bcf" d="M 0 0 
L -3.5 0 
" style="stroke: #000000; stroke-width: 0.8"/>
      </defs>
      <g>
       <use xlink:href="#me2fb990bcf" x="57.6" y="284.834491" style="stroke: #000000; stroke-width: 0.8"/>
      </g>
     </g>
     <g id="text_12">
      <!-- 10 -->
      <g transform="translate(37.875 288.63371) scale(0.1 -0.1)">
       <use xlink:href="#DejaVuSans-31"/>
       <use xlink:href="#DejaVuSans-30" x="63.623047"/>
      </g>
     </g>
    </g>
    <g id="ytick_2">
     <g id="line2d_12">
      <g>
       <use xlink:href="#me2fb990bcf" x="57.6" y="253.221706" style="stroke: #000000; stroke-width: 0.8"/>
      </g>
     </g>
     <g id="text_13">
      <!-- 20 -->
      <g transform="translate(37.875 257.020925) scale(0.1 -0.1)">
       <use xlink:href="#DejaVuSans-32"/>
       <use xlink:href="#DejaVuSans-30" x="63.623047"/>
      </g>
     </g>
    </g>
    <g id="ytick_3">
     <g id="line2d_13">
      <g>
       <use xlink:href="#me2fb990bcf" x="57.6" y="221.608921" style="stroke: #000000; stroke-width: 0.8"/>
      </g>
     </g>
     <g id="text_14">
      <!-- 30 -->
      <g transform="translate(37.875 225.40814) scale(0.1 -0.1)">
       <use xlink:href="#DejaVuSans-33"/>
       <use xlink:href="#DejaVuSans-30" x="63.623047"/>
      </g>
     </g>
    </g>
    <g id="ytick_4">
     <g id="line2d_14">
      <g>
       <use xlink:href="#me2fb990bcf" x="57.6" y="189.996136" style="stroke: #000000; stroke-width: 0.8"/>
      </g>
     </g>
     <g id="text_15">
      <!-- 40 -->
      <g transform="translate(37.875 193.795355) scale(0.1 -0.1)">
       <use xlink:href="#DejaVuSans-34"/>
       <use xlink:href="#DejaVuSans-30" x="63.623047"/>
      </g>
     </g>
    </g>
    <g id="ytick_5">
     <g id="line2d_15">
      <g>
       <use xlink:href="#me2fb990bcf" x="57.6" y="158.383351" style="stroke: #000000; stroke-width: 0.8"/>
      </g>
     </g>
     <g id="text_16">
      <!-- 50 -->
      <g transform="translate(37.875 162.182569) scale(0.1 -0.1)">
       <defs>
        <path id="DejaVuSans-35" d="M 691 4666 
L 3169 4666 
L 3169 4134 
L 1269 4134 
L 1269 2991 
Q 1406 3038 1543 3061 
Q 1681 3084 1819 3084 
Q 2600 3084 3056 2656 
Q 3513 2228 3513 1497 
Q 3513 744 3044 326 
Q 2575 -91 1722 -91 
Q 1428 -91 1123 -41 
Q 819 9 494 109 
L 494 744 
Q 775 591 1075 516 
Q 1375 441 1709 441 
Q 2250 441 2565 725 
Q 2881 1009 2881 1497 
Q 2881 1984 2565 2268 
Q 2250 2553 1709 2553 
Q 1456 2553 1204 2497 
Q 953 2441 691 2322 
L 691 4666 
z
" transform="scale(0.015625)"/>
       </defs>
       <use xlink:href="#DejaVuSans-35"/>
       <use xlink:href="#DejaVuSans-30" x="63.623047"/>
      </g>
     </g>
    </g>
    <g id="ytick_6">
     <g id="line2d_16">
      <g>
       <use xlink:href="#me2fb990bcf" x="57.6" y="126.770565" style="stroke: #000000; stroke-width: 0.8"/>
      </g>
     </g>
     <g id="text_17">
      <!-- 60 -->
      <g transform="translate(37.875 130.569784) scale(0.1 -0.1)">
       <use xlink:href="#DejaVuSans-36"/>
       <use xlink:href="#DejaVuSans-30" x="63.623047"/>
      </g>
     </g>
    </g>
    <g id="ytick_7">
     <g id="line2d_17">
      <g>
       <use xlink:href="#me2fb990bcf" x="57.6" y="95.15778" style="stroke: #000000; stroke-width: 0.8"/>
      </g>
     </g>
     <g id="text_18">
      <!-- 70 -->
      <g transform="translate(37.875 98.956999) scale(0.1 -0.1)">
       <use xlink:href="#DejaVuSans-37"/>
       <use xlink:href="#DejaVuSans-30" x="63.623047"/>
      </g>
     </g>
    </g>
    <g id="ytick_8">
     <g id="line2d_18">
      <g>
       <use xlink:href="#me2fb990bcf" x="57.6" y="63.544995" style="stroke: #000000; stroke-width: 0.8"/>
      </g>
     </g>
     <g id="text_19">
      <!-- 80 -->
      <g transform="translate(37.875 67.344214) scale(0.1 -0.1)">
       <defs>
        <path id="DejaVuSans-38" d="M 2034 2216 
Q 1584 2216 1326 1975 
Q 1069 1734 1069 1313 
Q 1069 891 1326 650 
Q 1584 409 2034 409 
Q 2484 409 2743 651 
Q 3003 894 3003 1313 
Q 3003 1734 2745 1975 
Q 2488 2216 2034 2216 
z
M 1403 2484 
Q 997 2584 770 2862 
Q 544 3141 544 3541 
Q 544 4100 942 4425 
Q 1341 4750 2034 4750 
Q 2731 4750 3128 4425 
Q 3525 4100 3525 3541 
Q 3525 3141 3298 2862 
Q 3072 2584 2669 2484 
Q 3125 2378 3379 2068 
Q 3634 1759 3634 1313 
Q 3634 634 3220 271 
Q 2806 -91 2034 -91 
Q 1263 -91 848 271 
Q 434 634 434 1313 
Q 434 1759 690 2068 
Q 947 2378 1403 2484 
z
M 1172 3481 
Q 1172 3119 1398 2916 
Q 1625 2713 2034 2713 
Q 2441 2713 2670 2916 
Q 2900 3119 2900 3481 
Q 2900 3844 2670 4047 
Q 2441 4250 2034 4250 
Q 1625 4250 1398 4047 
Q 1172 3844 1172 3481 
z
" transform="scale(0.015625)"/>
       </defs>
       <use xlink:href="#DejaVuSans-38"/>
       <use xlink:href="#DejaVuSans-30" x="63.623047"/>
      </g>
     </g>
    </g>
    <g id="text_20">
     <!-- Accuracy -->
     <g transform="translate(31.795312 197.356125) rotate(-90) scale(0.1 -0.1)">
      <defs>
       <path id="DejaVuSans-41" d="M 2188 4044 
L 1331 1722 
L 3047 1722 
L 2188 4044 
z
M 1831 4666 
L 2547 4666 
L 4325 0 
L 3669 0 
L 3244 1197 
L 1141 1197 
L 716 0 
L 50 0 
L 1831 4666 
z
" transform="scale(0.015625)"/>
       <path id="DejaVuSans-75" d="M 544 1381 
L 544 3500 
L 1119 3500 
L 1119 1403 
Q 1119 906 1312 657 
Q 1506 409 1894 409 
Q 2359 409 2629 706 
Q 2900 1003 2900 1516 
L 2900 3500 
L 3475 3500 
L 3475 0 
L 2900 0 
L 2900 538 
Q 2691 219 2414 64 
Q 2138 -91 1772 -91 
Q 1169 -91 856 284 
Q 544 659 544 1381 
z
M 1991 3584 
L 1991 3584 
z
" transform="scale(0.015625)"/>
       <path id="DejaVuSans-72" d="M 2631 2963 
Q 2534 3019 2420 3045 
Q 2306 3072 2169 3072 
Q 1681 3072 1420 2755 
Q 1159 2438 1159 1844 
L 1159 0 
L 581 0 
L 581 3500 
L 1159 3500 
L 1159 2956 
Q 1341 3275 1631 3429 
Q 1922 3584 2338 3584 
Q 2397 3584 2469 3576 
Q 2541 3569 2628 3553 
L 2631 2963 
z
" transform="scale(0.015625)"/>
       <path id="DejaVuSans-61" d="M 2194 1759 
Q 1497 1759 1228 1600 
Q 959 1441 959 1056 
Q 959 750 1161 570 
Q 1363 391 1709 391 
Q 2188 391 2477 730 
Q 2766 1069 2766 1631 
L 2766 1759 
L 2194 1759 
z
M 3341 1997 
L 3341 0 
L 2766 0 
L 2766 531 
Q 2569 213 2275 61 
Q 1981 -91 1556 -91 
Q 1019 -91 701 211 
Q 384 513 384 1019 
Q 384 1609 779 1909 
Q 1175 2209 1959 2209 
L 2766 2209 
L 2766 2266 
Q 2766 2663 2505 2880 
Q 2244 3097 1772 3097 
Q 1472 3097 1187 3025 
Q 903 2953 641 2809 
L 641 3341 
Q 956 3463 1253 3523 
Q 1550 3584 1831 3584 
Q 2591 3584 2966 3190 
Q 3341 2797 3341 1997 
z
" transform="scale(0.015625)"/>
       <path id="DejaVuSans-79" d="M 2059 -325 
Q 1816 -950 1584 -1140 
Q 1353 -1331 966 -1331 
L 506 -1331 
L 506 -850 
L 844 -850 
Q 1081 -850 1212 -737 
Q 1344 -625 1503 -206 
L 1606 56 
L 191 3500 
L 800 3500 
L 1894 763 
L 2988 3500 
L 3597 3500 
L 2059 -325 
z
" transform="scale(0.015625)"/>
      </defs>
      <use xlink:href="#DejaVuSans-41"/>
      <use xlink:href="#DejaVuSans-63" x="66.658203"/>
      <use xlink:href="#DejaVuSans-63" x="121.638672"/>
      <use xlink:href="#DejaVuSans-75" x="176.619141"/>
      <use xlink:href="#DejaVuSans-72" x="239.998047"/>
      <use xlink:href="#DejaVuSans-61" x="281.111328"/>
      <use xlink:href="#DejaVuSans-63" x="342.390625"/>
      <use xlink:href="#DejaVuSans-79" x="397.371094"/>
     </g>
    </g>
   </g>
   <g id="line2d_19">
    <path d="M 73.832727 295.488 
L 76.00433 256.610597 
L 77.090131 242.30265 
L 79.261733 219.566735 
L 80.347534 212.181988 
L 81.433335 203.772988 
L 82.519137 196.331338 
L 84.690739 184.849574 
L 86.862341 174.859934 
L 87.948142 169.915695 
L 90.119745 161.108373 
L 91.205546 157.630966 
L 93.377148 153.60982 
L 94.462949 153.369563 
L 95.54875 182.263649 
L 96.634552 181.827392 
L 97.720353 177.47115 
L 98.806154 174.019034 
L 99.891955 172.419427 
L 100.977756 168.474152 
L 102.063557 166.153773 
L 103.149358 162.682689 
L 104.23516 160.318053 
L 105.320961 157.611999 
L 107.492563 153.521304 
L 109.664165 146.585459 
L 110.749967 145.586495 
L 114.00737 136.690657 
L 115.093171 134.951954 
L 116.178972 131.670547 
L 117.264773 130.526164 
L 118.350575 129.198427 
L 119.436376 124.861153 
L 120.522177 123.735738 
L 122.693779 118.861047 
L 123.77958 117.526987 
L 124.865382 114.504805 
L 125.951183 112.3172 
L 127.036984 111.394107 
L 128.122785 108.561601 
L 129.208586 108.258118 
L 130.294387 107.290767 
L 131.380189 105.318129 
L 132.46599 104.129489 
L 133.551791 103.149492 
L 134.637592 102.62472 
L 135.723393 101.518273 
L 136.809194 100.94292 
L 137.894995 100.949242 
L 138.980797 136.361884 
L 140.066598 139.814001 
L 141.152399 137.993104 
L 142.2382 138.031039 
L 143.324001 136.779173 
L 144.409802 135.786532 
L 145.495604 134.351311 
L 146.581405 133.668475 
L 147.667206 133.175316 
L 148.753007 131.986675 
L 149.838808 130.235327 
L 152.01041 127.832755 
L 154.182013 126.650437 
L 155.267814 124.039221 
L 156.353615 123.735738 
L 157.439416 121.813681 
L 158.525217 120.479621 
L 159.611019 120.903232 
L 160.69682 119.980139 
L 161.782621 117.88105 
L 162.868422 117.052795 
L 165.040024 114.934739 
L 166.125825 113.644937 
L 167.211627 113.480551 
L 168.297428 111.077979 
L 169.383229 110.68598 
L 170.46903 109.54792 
L 171.554831 109.187534 
L 172.640632 106.835543 
L 173.726434 106.057869 
L 174.812235 105.539419 
L 175.898036 103.592071 
L 176.983837 102.099948 
L 178.069638 101.284338 
L 179.155439 101.164209 
L 181.327042 98.799573 
L 182.412843 96.845903 
L 183.498644 96.099841 
L 184.584445 95.094555 
L 185.670246 94.474944 
L 186.756047 92.786821 
L 187.841849 91.920631 
L 188.92765 90.289411 
L 190.013451 89.89109 
L 191.099252 88.240903 
L 192.185053 87.349422 
L 193.270854 85.71188 
L 195.442457 83.796145 
L 196.528258 82.961568 
L 197.614059 82.474731 
L 198.69986 80.932027 
L 199.785661 80.299771 
L 201.957264 77.138493 
L 203.043065 77.094235 
L 204.128866 76.664301 
L 205.214667 75.652692 
L 206.300468 74.394503 
L 207.386269 72.92767 
L 208.472071 72.908702 
L 209.557872 73.009863 
L 210.643673 71.682126 
L 211.729474 71.656836 
L 214.986877 69.406005 
L 216.072679 69.620972 
L 217.15848 69.63994 
L 218.244281 68.413364 
L 219.330082 68.571428 
L 220.415883 67.528206 
L 221.501684 69.058265 
L 222.587486 67.951817 
L 224.759088 67.395432 
L 225.844889 107.847152 
L 226.93069 113.18339 
L 228.016491 114.669191 
L 229.102292 113.056939 
L 230.188094 113.784033 
L 231.273895 112.702876 
L 232.359696 112.336168 
L 233.445497 112.848295 
L 234.531298 112.323523 
L 235.617099 111.330881 
L 236.702901 111.20443 
L 237.788702 110.622755 
L 238.874503 109.636436 
L 239.960304 108.921987 
L 241.046105 108.447795 
L 242.131906 107.537347 
L 243.217708 106.911414 
L 244.303509 107.847152 
L 245.38931 105.918772 
L 246.475111 104.951421 
L 247.560912 104.907163 
L 248.646713 104.546777 
L 249.732514 104.79968 
L 250.818316 104.325488 
L 251.904117 103.162137 
L 252.989918 102.479301 
L 254.075719 102.580462 
L 255.16152 103.010396 
L 257.333123 101.764852 
L 258.418924 100.171568 
L 259.504725 100.987178 
L 260.590526 100.810146 
L 261.676327 100.190536 
L 262.762128 99.438151 
L 264.933731 98.976605 
L 266.019532 97.041902 
L 267.105333 97.275837 
L 268.191134 96.27055 
L 269.276935 96.340098 
L 270.362736 95.050297 
L 271.448538 96.238937 
L 272.534339 94.797394 
L 273.62014 95.42965 
L 274.705941 94.88591 
L 275.791742 92.925918 
L 276.877543 93.046046 
L 277.963344 92.963853 
L 279.049146 91.762567 
L 280.134947 90.744635 
L 281.220748 92.059727 
L 282.306549 91.136634 
L 283.39235 90.965925 
L 285.563953 89.606575 
L 286.649754 89.201931 
L 287.735555 88.588643 
L 289.907157 86.82465 
L 290.992958 86.508522 
L 292.07876 86.919488 
L 293.164561 86.344136 
L 294.250362 86.382071 
L 295.336163 84.674981 
L 296.421964 84.188144 
L 298.593566 83.872016 
L 299.679368 81.671766 
L 300.765169 82.417828 
L 301.85097 81.994216 
L 302.936771 81.861443 
L 304.022572 82.12699 
L 305.108373 81.146994 
L 306.194175 79.65487 
L 307.279976 79.484161 
L 308.365777 79.553709 
L 309.451578 78.820293 
L 310.537379 77.935135 
L 311.62318 78.497842 
L 312.708981 76.676946 
L 313.794783 76.417721 
L 314.880584 77.347137 
L 315.966385 76.164819 
L 317.052186 75.848691 
L 319.223788 74.154246 
L 321.395391 73.325991 
L 322.481192 72.295414 
L 323.566993 71.89077 
L 324.652794 72.080447 
L 325.738595 70.575678 
L 326.824396 70.550388 
L 327.910198 70.651549 
L 328.995999 69.728456 
L 330.0818 69.633617 
L 331.167601 68.470267 
L 332.253402 69.032975 
L 333.339203 68.23001 
L 334.425005 66.5735 
L 335.510806 67.155175 
L 336.596607 66.554532 
L 337.682408 65.593503 
L 338.768209 65.226795 
L 339.85401 64.449121 
L 340.939811 63.968606 
L 342.025613 63.981251 
L 343.111414 63.115061 
L 344.197215 63.197254 
L 346.368817 61.142423 
L 347.454618 61.502809 
L 348.54042 60.946424 
L 349.626221 61.351068 
L 350.712022 60.162427 
L 351.797823 59.201398 
L 355.055227 58.619723 
L 356.141028 58.215079 
L 357.226829 57.367857 
L 358.31263 57.652372 
L 359.398431 56.963213 
L 360.484232 55.926314 
L 361.570033 56.255087 
L 362.655835 56.160248 
L 363.741636 55.47109 
L 365.913238 54.775608 
L 366.999039 53.732386 
L 368.08484 53.568 
L 369.170642 55.983217 
L 370.256443 56.463731 
L 371.342244 57.715597 
L 372.428045 58.765142 
L 373.513846 59.277269 
L 375.685448 59.384752 
L 376.77125 59.258301 
L 377.857051 59.334172 
L 378.942852 60.073911 
L 381.114454 59.391075 
L 382.200255 59.35314 
L 383.286057 59.941137 
L 384.371858 59.802041 
L 385.457659 59.466946 
L 386.54346 59.726171 
L 387.629261 59.068625 
L 388.715062 59.150818 
L 389.800863 59.877912 
L 390.886665 59.485913 
L 393.058267 59.264624 
L 394.144068 58.847335 
L 395.229869 60.124492 
L 396.31567 59.479591 
L 397.401472 59.011722 
L 398.487273 59.688235 
L 398.487273 59.688235 
" clip-path="url(#p408544f2cb)" style="fill: none; stroke: #1f77b4; stroke-width: 1.5; stroke-linecap: square"/>
   </g>
   <g id="line2d_20">
    <path d="M 73.832727 279.175803 
L 74.918528 247.24689 
L 76.00433 230.270824 
L 77.090131 228.374057 
L 78.175932 196.603208 
L 79.261733 196.002565 
L 80.347534 185.72841 
L 81.433335 169.068472 
L 82.519137 164.263329 
L 83.604938 163.947201 
L 84.690739 150.574993 
L 85.77654 148.678226 
L 86.862341 142.324056 
L 87.948142 131.449258 
L 89.033943 129.489265 
L 90.119745 125.095088 
L 91.205546 122.313163 
L 92.291347 121.586069 
L 93.377148 120.068655 
L 94.462949 119.815753 
L 95.54875 152.092406 
L 96.634552 140.806642 
L 97.720353 137.076333 
L 98.806154 139.98471 
L 99.891955 133.851829 
L 100.977756 129.995069 
L 102.063557 128.63572 
L 103.149358 123.957028 
L 104.23516 123.451223 
L 105.320961 118.740918 
L 106.406762 119.942204 
L 107.492563 118.519628 
L 108.578364 111.248688 
L 109.664165 113.461583 
L 110.749967 108.055797 
L 111.835768 106.854511 
L 112.921569 102.902913 
L 114.00737 102.523559 
L 115.093171 98.951314 
L 116.178972 99.077766 
L 117.264773 98.034544 
L 118.350575 95.884874 
L 119.436376 96.801645 
L 120.522177 91.206182 
L 121.607978 89.657156 
L 122.693779 88.961674 
L 123.77958 87.381035 
L 124.865382 86.653941 
L 125.951183 88.108129 
L 127.036984 84.093305 
L 128.122785 83.903629 
L 130.294387 81.722346 
L 131.380189 81.975249 
L 132.46599 80.584286 
L 133.551791 80.17332 
L 134.637592 79.351388 
L 135.723393 80.331384 
L 136.809194 79.477839 
L 137.894995 79.193324 
L 138.980797 105.558387 
L 140.066598 109.067406 
L 141.152399 103.155815 
L 142.2382 105.463548 
L 143.324001 105.36871 
L 144.409802 99.204217 
L 145.495604 101.006145 
L 146.581405 101.828078 
L 147.667206 96.738419 
L 148.753007 101.164209 
L 149.838808 99.615183 
L 150.924609 94.399073 
L 152.01041 96.580356 
L 153.096212 98.066156 
L 154.182013 97.65519 
L 155.267814 95.505521 
L 156.353615 94.904878 
L 157.439416 95.410682 
L 158.525217 93.355851 
L 159.611019 95.853261 
L 160.69682 90.257798 
L 161.782621 87.064907 
L 162.868422 88.582321 
L 163.954223 87.033294 
L 165.040024 85.863621 
L 166.125825 85.010076 
L 167.211627 87.475873 
L 168.297428 86.685554 
L 169.383229 84.535884 
L 170.46903 84.567497 
L 171.554831 81.722346 
L 172.640632 83.619114 
L 173.726434 82.322989 
L 174.812235 83.903629 
L 175.898036 79.03526 
L 176.983837 82.164925 
L 178.069638 78.845583 
L 179.155439 80.74235 
L 180.24124 81.31138 
L 181.327042 79.762354 
L 182.412843 76.411399 
L 183.498644 76.31656 
L 184.584445 74.60947 
L 185.670246 77.264944 
L 186.756047 76.727526 
L 187.841849 76.411399 
L 188.92765 74.672695 
L 190.013451 74.072052 
L 191.099252 75.873981 
L 192.185053 72.965605 
L 193.270854 71.89077 
L 194.356656 71.32174 
L 195.442457 72.238511 
L 196.528258 70.942387 
L 197.614059 70.373357 
L 198.69986 70.75271 
L 200.871462 70.468195 
L 201.957264 67.939172 
L 203.043065 68.508202 
L 204.128866 68.603041 
L 205.214667 68.002398 
L 207.386269 67.749495 
L 209.557872 66.295307 
L 210.643673 66.137243 
L 211.729474 66.232082 
L 212.815275 65.726277 
L 213.901076 65.821116 
L 214.986877 65.252085 
L 216.072679 65.346924 
L 217.15848 65.157247 
L 218.244281 65.125634 
L 219.330082 65.631439 
L 221.501684 64.303702 
L 222.587486 64.872732 
L 223.673287 65.220473 
L 224.759088 64.777894 
L 225.844889 94.430686 
L 226.93069 88.076516 
L 228.016491 92.628757 
L 229.102292 90.573926 
L 230.188094 92.976498 
L 231.273895 88.993287 
L 232.359696 88.677159 
L 233.445497 86.622328 
L 234.531298 91.52231 
L 235.617099 87.760388 
L 236.702901 87.09652 
L 237.788702 89.562317 
L 238.874503 88.076516 
L 239.960304 90.289411 
L 241.046105 88.202967 
L 242.131906 85.231366 
L 243.217708 87.823614 
L 244.303509 84.061693 
L 245.38931 85.547494 
L 246.475111 91.617148 
L 247.560912 83.903629 
L 248.646713 85.357817 
L 249.732514 85.38943 
L 250.818316 85.800396 
L 251.904117 85.673945 
L 252.989918 88.771998 
L 254.075719 86.274588 
L 255.16152 84.915238 
L 256.247321 82.986858 
L 257.333123 78.940421 
L 258.418924 81.406219 
L 259.504725 81.785572 
L 260.590526 82.386215 
L 261.676327 83.80879 
L 262.762128 84.59911 
L 263.847929 82.89202 
L 264.933731 80.362997 
L 266.019532 81.342993 
L 267.105333 86.432651 
L 268.191134 81.090091 
L 269.276935 83.998467 
L 270.362736 81.627508 
L 271.448538 81.153316 
L 272.534339 85.16814 
L 273.62014 79.161711 
L 274.705941 81.026865 
L 275.791742 78.782357 
L 276.877543 79.066873 
L 277.963344 79.793967 
L 279.049146 80.046869 
L 280.134947 75.368177 
L 281.220748 81.975249 
L 282.306549 81.216542 
L 283.39235 81.184929 
L 284.478151 79.667515 
L 285.563953 77.549459 
L 286.649754 77.10688 
L 287.735555 78.086876 
L 288.821356 76.53785 
L 289.907157 76.31656 
L 290.992958 75.810756 
L 292.07876 80.39461 
L 294.250362 77.739136 
L 295.336163 76.917203 
L 296.421964 75.052049 
L 297.507765 76.474624 
L 299.679368 76.411399 
L 300.765169 77.897199 
L 301.85097 74.324955 
L 302.936771 73.344958 
L 304.022572 73.661086 
L 305.108373 75.842368 
L 307.279976 73.028831 
L 308.365777 72.586252 
L 309.451578 72.902379 
L 310.537379 72.68109 
L 311.62318 72.839154 
L 312.708981 72.396575 
L 313.794783 71.226902 
L 314.880584 74.008827 
L 315.966385 72.301737 
L 317.052186 71.764319 
L 318.137987 73.123669 
L 319.223788 70.910774 
L 320.30959 72.143673 
L 321.395391 68.729492 
L 322.481192 70.784323 
L 323.566993 70.025616 
L 324.652794 70.879161 
L 325.738595 69.266909 
L 326.824396 68.887556 
L 327.910198 69.867552 
L 328.995999 68.950781 
L 330.0818 68.413364 
L 331.167601 68.160462 
L 332.253402 67.654657 
L 333.339203 67.433368 
L 334.425005 69.172071 
L 335.510806 67.370142 
L 336.596607 68.034011 
L 337.682408 68.065623 
L 338.768209 69.108845 
L 339.85401 67.11724 
L 340.939811 67.022401 
L 342.025613 64.841119 
L 343.111414 65.884341 
L 344.197215 66.737886 
L 345.283016 66.200469 
L 346.368817 66.453371 
L 347.454618 64.746281 
L 348.54042 66.990789 
L 349.626221 64.430153 
L 350.712022 63.418544 
L 351.797823 64.96757 
L 353.969425 63.924348 
L 355.055227 63.924348 
L 356.141028 62.375322 
L 357.226829 64.114025 
L 358.31263 63.165642 
L 359.398431 63.228867 
L 360.484232 64.904345 
L 361.570033 63.386931 
L 362.655835 63.671446 
L 363.741636 62.849514 
L 364.827437 63.134029 
L 365.913238 61.205649 
L 366.999039 62.438548 
L 368.08484 62.154032 
L 369.170642 64.019187 
L 370.256443 63.355318 
L 371.342244 64.366927 
L 372.428045 64.240476 
L 373.513846 64.272089 
L 374.599647 63.228867 
L 375.685448 64.777894 
L 376.77125 64.872732 
L 377.857051 66.54821 
L 378.942852 65.378537 
L 380.028653 66.643048 
L 381.114454 67.717883 
L 382.200255 66.074018 
L 383.286057 66.010792 
L 384.371858 64.777894 
L 385.457659 64.714668 
L 386.54346 65.346924 
L 387.629261 65.631439 
L 388.715062 66.864337 
L 389.800863 66.54821 
L 390.886665 67.022401 
L 393.058267 64.335315 
L 394.144068 66.232082 
L 395.229869 65.473375 
L 397.401472 65.5366 
L 398.487273 65.915954 
L 398.487273 65.915954 
" clip-path="url(#p408544f2cb)" style="fill: none; stroke: #ff7f0e; stroke-width: 1.5; stroke-linecap: square"/>
   </g>
   <g id="line2d_21">
    <path d="M 73.832727 286.055377 
L 74.918528 261.680971 
L 76.00433 245.372884 
L 77.090131 245.656451 
L 78.175932 225.642396 
L 79.261733 223.811068 
L 80.347534 215.02461 
L 81.433335 203.011752 
L 82.519137 202.118058 
L 83.604938 204.668894 
L 84.690739 189.320254 
L 85.77654 188.273871 
L 86.862341 182.43088 
L 87.948142 174.931063 
L 89.033943 174.75656 
L 90.119745 169.240762 
L 91.205546 166.864429 
L 92.291347 165.556292 
L 93.377148 163.572273 
L 94.462949 162.503761 
L 95.54875 192.089218 
L 96.634552 183.76083 
L 97.720353 180.708616 
L 98.806154 179.073286 
L 99.891955 179.945483 
L 100.977756 172.162099 
L 102.063557 172.467479 
L 103.149358 167.649058 
L 104.23516 169.044446 
L 105.320961 167.845373 
L 106.406762 164.575031 
L 107.492563 163.746776 
L 108.578364 159.364295 
L 109.664165 159.102858 
L 110.749967 152.322547 
L 111.835768 153.216241 
L 112.921569 151.363132 
L 114.00737 149.8588 
L 115.093171 147.831221 
L 116.178972 147.831221 
L 117.264773 143.034798 
L 118.350575 147.416984 
L 119.436376 144.931565 
L 120.522177 143.187412 
L 121.607978 138.325583 
L 122.693779 139.350274 
L 123.77958 136.319807 
L 124.865382 136.428816 
L 125.951183 137.170082 
L 127.036984 132.221046 
L 128.122785 131.894017 
L 129.208586 130.411486 
L 130.294387 128.165888 
L 132.46599 127.446425 
L 133.551791 127.969671 
L 134.637592 127.293812 
L 135.723393 126.901377 
L 136.809194 126.70516 
L 137.894995 126.269121 
L 138.980797 156.22496 
L 140.066598 159.211824 
L 141.152399 150.861688 
L 142.2382 154.524411 
L 143.324001 154.153778 
L 144.409802 149.618978 
L 145.495604 154.63342 
L 146.581405 149.248346 
L 147.667206 141.835693 
L 148.753007 151.166915 
L 149.838808 148.986723 
L 150.924609 140.876408 
L 152.01041 144.539131 
L 153.096212 144.342914 
L 154.182013 149.662582 
L 155.267814 146.392294 
L 156.353615 141.617673 
L 157.439416 145.127783 
L 158.525217 144.626339 
L 159.611019 146.435898 
L 160.69682 139.87352 
L 161.782621 136.407014 
L 162.868422 139.023245 
L 163.954223 135.709353 
L 165.040024 135.949174 
L 166.125825 136.47242 
L 167.211627 138.434593 
L 168.297428 137.889545 
L 169.383229 132.526273 
L 170.46903 133.18033 
L 171.554831 128.449313 
L 172.640632 132.657084 
L 173.726434 128.253096 
L 174.812235 134.270426 
L 175.898036 128.536521 
L 176.983837 133.63817 
L 178.069638 131.261761 
L 179.155439 129.190579 
L 180.24124 129.059767 
L 181.327042 129.474004 
L 182.412843 121.777926 
L 183.498644 127.402821 
L 184.584445 124.067127 
L 185.670246 124.764789 
L 186.756047 127.446425 
L 187.841849 126.356329 
L 188.92765 124.699383 
L 191.099252 127.708048 
L 192.185053 119.837555 
L 193.270854 120.884047 
L 194.356656 120.927651 
L 195.442457 123.020635 
L 196.528258 121.538104 
L 197.614059 118.943676 
L 198.69986 119.33611 
L 199.785661 119.859357 
L 200.871462 121.559906 
L 201.957264 117.090513 
L 203.043065 116.807088 
L 204.128866 119.466922 
L 205.214667 118.202411 
L 206.300468 117.984391 
L 207.386269 115.498972 
L 208.472071 115.12834 
L 209.557872 115.041132 
L 210.643673 113.842026 
L 211.729474 115.542576 
L 212.815275 114.387074 
L 213.901076 115.455368 
L 214.986877 114.212659 
L 216.072679 113.340582 
L 217.15848 113.711215 
L 218.244281 113.667611 
L 219.330082 113.42779 
L 220.415883 113.42779 
L 221.501684 113.820224 
L 222.587486 113.471394 
L 223.673287 113.667611 
L 224.759088 113.645809 
L 225.844889 150.076819 
L 226.93069 138.28198 
L 228.016491 141.35605 
L 229.102292 139.241264 
L 230.188094 147.613202 
L 231.273895 139.066849 
L 232.359696 138.979641 
L 233.445497 135.425928 
L 234.531298 143.928677 
L 235.617099 139.786312 
L 236.702901 139.829916 
L 237.788702 141.225239 
L 238.874503 141.00722 
L 239.960304 144.800754 
L 241.046105 138.73982 
L 242.131906 142.533354 
L 243.217708 137.649724 
L 244.303509 138.652612 
L 245.38931 134.815474 
L 246.475111 146.653917 
L 247.560912 133.376547 
L 248.646713 135.556739 
L 249.732514 136.145391 
L 250.818316 139.851718 
L 251.904117 141.181635 
L 252.989918 139.917124 
L 254.075719 139.611897 
L 255.16152 138.914235 
L 256.247321 131.196355 
L 257.333123 131.763205 
L 258.418924 131.959423 
L 259.504725 136.123589 
L 260.590526 133.572765 
L 261.676327 133.899794 
L 262.762128 137.322695 
L 263.847929 130.34608 
L 264.933731 128.122284 
L 266.019532 130.171665 
L 267.105333 141.530466 
L 268.191134 134.924484 
L 269.276935 137.824139 
L 270.362736 134.335832 
L 271.448538 129.822834 
L 272.534339 138.892433 
L 273.62014 130.694911 
L 274.705941 134.597455 
L 275.791742 132.395461 
L 276.877543 129.212381 
L 277.963344 128.732738 
L 279.049146 133.725378 
L 280.134947 125.157223 
L 281.220748 132.875103 
L 282.306549 130.782119 
L 283.39235 128.340304 
L 284.478151 132.460867 
L 285.563953 124.655779 
L 286.649754 127.293812 
L 287.735555 128.318502 
L 288.821356 125.506054 
L 289.907157 128.362106 
L 290.992958 126.944981 
L 292.07876 135.382324 
L 293.164561 126.225517 
L 294.250362 126.901377 
L 295.336163 123.064239 
L 296.421964 125.527856 
L 297.507765 127.337415 
L 298.593566 125.026412 
L 300.765169 127.490029 
L 301.85097 119.096289 
L 302.936771 120.949453 
L 304.022572 120.273593 
L 305.108373 126.051102 
L 306.194175 123.325862 
L 307.279976 122.257568 
L 308.365777 122.235766 
L 309.451578 120.796839 
L 310.537379 123.173248 
L 311.62318 123.19505 
L 312.708981 121.341887 
L 313.794783 120.295395 
L 314.880584 123.107843 
L 315.966385 121.407293 
L 317.052186 119.052685 
L 318.137987 121.014858 
L 319.223788 122.213964 
L 320.30959 122.344775 
L 321.395391 117.352136 
L 322.481192 120.884047 
L 323.566993 119.946564 
L 324.652794 118.638449 
L 325.738595 115.804199 
L 326.824396 116.240238 
L 327.910198 117.417541 
L 328.995999 117.918986 
L 330.0818 116.15303 
L 331.167601 115.738793 
L 332.253402 116.458257 
L 333.339203 114.125451 
L 334.425005 115.782397 
L 335.510806 116.916097 
L 336.596607 114.866717 
L 337.682408 117.025107 
L 338.768209 115.978615 
L 339.85401 113.602205 
L 340.939811 114.45248 
L 342.025613 111.749042 
L 343.111414 113.842026 
L 344.197215 114.45248 
L 345.283016 113.907432 
L 346.368817 115.389963 
L 347.454618 111.2694 
L 348.54042 112.054269 
L 349.626221 109.438038 
L 350.712022 107.563073 
L 351.797823 112.512109 
L 353.969425 109.547048 
L 355.055227 110.833361 
L 356.141028 110.266511 
L 357.226829 109.525246 
L 358.31263 108.260735 
L 360.484232 110.833361 
L 361.570033 110.811559 
L 362.655835 109.917681 
L 363.741636 108.718575 
L 364.827437 108.042715 
L 365.913238 106.080543 
L 366.999039 107.672083 
L 368.08484 109.939483 
L 369.170642 107.214242 
L 370.256443 108.762179 
L 371.342244 110.767956 
L 372.428045 109.372633 
L 374.599647 111.378409 
L 375.685448 112.795534 
L 376.77125 111.422013 
L 377.857051 114.605094 
L 378.942852 115.804199 
L 380.028653 114.648697 
L 381.114454 114.539688 
L 382.200255 111.094984 
L 383.286057 113.31878 
L 384.371858 112.446703 
L 385.457659 113.88563 
L 386.54346 114.060046 
L 387.629261 113.275176 
L 388.715062 114.147253 
L 389.800863 112.228684 
L 390.886665 115.847803 
L 391.972466 111.182192 
L 393.058267 109.874077 
L 394.144068 112.272288 
L 395.229869 114.278065 
L 396.31567 113.035355 
L 397.401472 113.558601 
L 398.487273 113.253374 
L 398.487273 113.253374 
" clip-path="url(#p408544f2cb)" style="fill: none; stroke: #2ca02c; stroke-width: 1.5; stroke-linecap: square"/>
   </g>
   <g id="line2d_22">
    <path d="M 368.08484 62.375322 
L 369.170642 64.082412 
L 370.256443 63.102416 
L 371.342244 64.240476 
L 372.428045 64.872732 
L 373.513846 62.975965 
L 374.599647 64.461766 
L 376.77125 64.841119 
L 377.857051 64.366927 
L 378.942852 65.789503 
L 381.114454 63.639833 
L 382.200255 67.212078 
L 383.286057 66.959176 
L 384.371858 67.022401 
L 385.457659 66.263695 
L 386.54346 67.243691 
L 387.629261 65.5366 
L 388.715062 68.634653 
L 389.800863 70.404969 
L 390.886665 67.054014 
L 391.972466 69.077232 
L 393.058267 69.014007 
L 394.144068 70.721097 
L 395.229869 68.855943 
L 396.31567 67.939172 
L 397.401472 68.571428 
L 398.487273 67.306916 
L 398.487273 67.306916 
" clip-path="url(#p408544f2cb)" style="fill: none; stroke: #d62728; stroke-width: 1.5; stroke-linecap: square"/>
   </g>
   <g id="line2d_23">
    <path d="M 368.08484 110.113898 
L 369.170642 107.475865 
L 370.256443 108.086319 
L 371.342244 109.590652 
L 372.428045 111.72724 
L 373.513846 106.647392 
L 374.599647 110.02669 
L 375.685448 109.307227 
L 376.77125 111.182192 
L 377.857051 110.615342 
L 378.942852 111.923457 
L 380.028653 109.895879 
L 381.114454 106.821808 
L 382.200255 113.972838 
L 383.286057 112.773732 
L 384.371858 113.798423 
L 385.457659 111.291202 
L 387.629261 107.323252 
L 388.715062 114.801311 
L 389.800863 113.340582 
L 390.886665 110.113898 
L 391.972466 112.730128 
L 393.058267 113.820224 
L 394.144068 115.433567 
L 395.229869 111.879853 
L 396.31567 109.503444 
L 397.401472 109.895879 
L 398.487273 109.786869 
L 398.487273 109.786869 
" clip-path="url(#p408544f2cb)" style="fill: none; stroke: #9467bd; stroke-width: 1.5; stroke-linecap: square"/>
   </g>
   <g id="patch_3">
    <path d="M 57.6 307.584 
L 57.6 41.472 
" style="fill: none; stroke: #000000; stroke-width: 0.8; stroke-linejoin: miter; stroke-linecap: square"/>
   </g>
   <g id="patch_4">
    <path d="M 414.72 307.584 
L 414.72 41.472 
" style="fill: none; stroke: #000000; stroke-width: 0.8; stroke-linejoin: miter; stroke-linecap: square"/>
   </g>
   <g id="patch_5">
    <path d="M 57.6 307.584 
L 414.72 307.584 
" style="fill: none; stroke: #000000; stroke-width: 0.8; stroke-linejoin: miter; stroke-linecap: square"/>
   </g>
   <g id="patch_6">
    <path d="M 57.6 41.472 
L 414.72 41.472 
" style="fill: none; stroke: #000000; stroke-width: 0.8; stroke-linejoin: miter; stroke-linecap: square"/>
   </g>
   <g id="text_21">
    <!-- Learning Curves -->
    <g transform="translate(187.37625 35.472) scale(0.12 -0.12)">
     <defs>
      <path id="DejaVuSans-4c" d="M 628 4666 
L 1259 4666 
L 1259 531 
L 3531 531 
L 3531 0 
L 628 0 
L 628 4666 
z
" transform="scale(0.015625)"/>
      <path id="DejaVuSans-65" d="M 3597 1894 
L 3597 1613 
L 953 1613 
Q 991 1019 1311 708 
Q 1631 397 2203 397 
Q 2534 397 2845 478 
Q 3156 559 3463 722 
L 3463 178 
Q 3153 47 2828 -22 
Q 2503 -91 2169 -91 
Q 1331 -91 842 396 
Q 353 884 353 1716 
Q 353 2575 817 3079 
Q 1281 3584 2069 3584 
Q 2775 3584 3186 3129 
Q 3597 2675 3597 1894 
z
M 3022 2063 
Q 3016 2534 2758 2815 
Q 2500 3097 2075 3097 
Q 1594 3097 1305 2825 
Q 1016 2553 972 2059 
L 3022 2063 
z
" transform="scale(0.015625)"/>
      <path id="DejaVuSans-6e" d="M 3513 2113 
L 3513 0 
L 2938 0 
L 2938 2094 
Q 2938 2591 2744 2837 
Q 2550 3084 2163 3084 
Q 1697 3084 1428 2787 
Q 1159 2491 1159 1978 
L 1159 0 
L 581 0 
L 581 3500 
L 1159 3500 
L 1159 2956 
Q 1366 3272 1645 3428 
Q 1925 3584 2291 3584 
Q 2894 3584 3203 3211 
Q 3513 2838 3513 2113 
z
" transform="scale(0.015625)"/>
      <path id="DejaVuSans-69" d="M 603 3500 
L 1178 3500 
L 1178 0 
L 603 0 
L 603 3500 
z
M 603 4863 
L 1178 4863 
L 1178 4134 
L 603 4134 
L 603 4863 
z
" transform="scale(0.015625)"/>
      <path id="DejaVuSans-67" d="M 2906 1791 
Q 2906 2416 2648 2759 
Q 2391 3103 1925 3103 
Q 1463 3103 1205 2759 
Q 947 2416 947 1791 
Q 947 1169 1205 825 
Q 1463 481 1925 481 
Q 2391 481 2648 825 
Q 2906 1169 2906 1791 
z
M 3481 434 
Q 3481 -459 3084 -895 
Q 2688 -1331 1869 -1331 
Q 1566 -1331 1297 -1286 
Q 1028 -1241 775 -1147 
L 775 -588 
Q 1028 -725 1275 -790 
Q 1522 -856 1778 -856 
Q 2344 -856 2625 -561 
Q 2906 -266 2906 331 
L 2906 616 
Q 2728 306 2450 153 
Q 2172 0 1784 0 
Q 1141 0 747 490 
Q 353 981 353 1791 
Q 353 2603 747 3093 
Q 1141 3584 1784 3584 
Q 2172 3584 2450 3431 
Q 2728 3278 2906 2969 
L 2906 3500 
L 3481 3500 
L 3481 434 
z
" transform="scale(0.015625)"/>
      <path id="DejaVuSans-20" transform="scale(0.015625)"/>
      <path id="DejaVuSans-43" d="M 4122 4306 
L 4122 3641 
Q 3803 3938 3442 4084 
Q 3081 4231 2675 4231 
Q 1875 4231 1450 3742 
Q 1025 3253 1025 2328 
Q 1025 1406 1450 917 
Q 1875 428 2675 428 
Q 3081 428 3442 575 
Q 3803 722 4122 1019 
L 4122 359 
Q 3791 134 3420 21 
Q 3050 -91 2638 -91 
Q 1578 -91 968 557 
Q 359 1206 359 2328 
Q 359 3453 968 4101 
Q 1578 4750 2638 4750 
Q 3056 4750 3426 4639 
Q 3797 4528 4122 4306 
z
" transform="scale(0.015625)"/>
      <path id="DejaVuSans-76" d="M 191 3500 
L 800 3500 
L 1894 563 
L 2988 3500 
L 3597 3500 
L 2284 0 
L 1503 0 
L 191 3500 
z
" transform="scale(0.015625)"/>
     </defs>
     <use xlink:href="#DejaVuSans-4c"/>
     <use xlink:href="#DejaVuSans-65" x="53.962891"/>
     <use xlink:href="#DejaVuSans-61" x="115.486328"/>
     <use xlink:href="#DejaVuSans-72" x="176.765625"/>
     <use xlink:href="#DejaVuSans-6e" x="216.128906"/>
     <use xlink:href="#DejaVuSans-69" x="279.507812"/>
     <use xlink:href="#DejaVuSans-6e" x="307.291016"/>
     <use xlink:href="#DejaVuSans-67" x="370.669922"/>
     <use xlink:href="#DejaVuSans-20" x="434.146484"/>
     <use xlink:href="#DejaVuSans-43" x="465.933594"/>
     <use xlink:href="#DejaVuSans-75" x="535.757812"/>
     <use xlink:href="#DejaVuSans-72" x="599.136719"/>
     <use xlink:href="#DejaVuSans-76" x="640.25"/>
     <use xlink:href="#DejaVuSans-65" x="699.429688"/>
     <use xlink:href="#DejaVuSans-73" x="760.953125"/>
    </g>
   </g>
   <g id="legend_1">
    <g id="patch_7">
     <path d="M 214.18875 302.584 
L 407.72 302.584 
Q 409.72 302.584 409.72 300.584 
L 409.72 228.193375 
Q 409.72 226.193375 407.72 226.193375 
L 214.18875 226.193375 
Q 212.18875 226.193375 212.18875 228.193375 
L 212.18875 300.584 
Q 212.18875 302.584 214.18875 302.584 
z
" style="fill: #ffffff; opacity: 0.8; stroke: #cccccc; stroke-linejoin: miter"/>
    </g>
    <g id="line2d_24">
     <path d="M 216.18875 234.291812 
L 226.18875 234.291812 
L 236.18875 234.291812 
" style="fill: none; stroke: #1f77b4; stroke-width: 1.5; stroke-linecap: square"/>
    </g>
    <g id="text_22">
     <!-- Train Accuracy -->
     <g transform="translate(244.18875 237.791812) scale(0.1 -0.1)">
      <defs>
       <path id="DejaVuSans-54" d="M -19 4666 
L 3928 4666 
L 3928 4134 
L 2272 4134 
L 2272 0 
L 1638 0 
L 1638 4134 
L -19 4134 
L -19 4666 
z
" transform="scale(0.015625)"/>
      </defs>
      <use xlink:href="#DejaVuSans-54"/>
      <use xlink:href="#DejaVuSans-72" x="46.333984"/>
      <use xlink:href="#DejaVuSans-61" x="87.447266"/>
      <use xlink:href="#DejaVuSans-69" x="148.726562"/>
      <use xlink:href="#DejaVuSans-6e" x="176.509766"/>
      <use xlink:href="#DejaVuSans-20" x="239.888672"/>
      <use xlink:href="#DejaVuSans-41" x="271.675781"/>
      <use xlink:href="#DejaVuSans-63" x="338.333984"/>
      <use xlink:href="#DejaVuSans-63" x="393.314453"/>
      <use xlink:href="#DejaVuSans-75" x="448.294922"/>
      <use xlink:href="#DejaVuSans-72" x="511.673828"/>
      <use xlink:href="#DejaVuSans-61" x="552.787109"/>
      <use xlink:href="#DejaVuSans-63" x="614.066406"/>
      <use xlink:href="#DejaVuSans-79" x="669.046875"/>
     </g>
    </g>
    <g id="line2d_25">
     <path d="M 216.18875 248.969937 
L 226.18875 248.969937 
L 236.18875 248.969937 
" style="fill: none; stroke: #ff7f0e; stroke-width: 1.5; stroke-linecap: square"/>
    </g>
    <g id="text_23">
     <!-- Validation Accuracy -->
     <g transform="translate(244.18875 252.469937) scale(0.1 -0.1)">
      <defs>
       <path id="DejaVuSans-56" d="M 1831 0 
L 50 4666 
L 709 4666 
L 2188 738 
L 3669 4666 
L 4325 4666 
L 2547 0 
L 1831 0 
z
" transform="scale(0.015625)"/>
       <path id="DejaVuSans-6c" d="M 603 4863 
L 1178 4863 
L 1178 0 
L 603 0 
L 603 4863 
z
" transform="scale(0.015625)"/>
       <path id="DejaVuSans-64" d="M 2906 2969 
L 2906 4863 
L 3481 4863 
L 3481 0 
L 2906 0 
L 2906 525 
Q 2725 213 2448 61 
Q 2172 -91 1784 -91 
Q 1150 -91 751 415 
Q 353 922 353 1747 
Q 353 2572 751 3078 
Q 1150 3584 1784 3584 
Q 2172 3584 2448 3432 
Q 2725 3281 2906 2969 
z
M 947 1747 
Q 947 1113 1208 752 
Q 1469 391 1925 391 
Q 2381 391 2643 752 
Q 2906 1113 2906 1747 
Q 2906 2381 2643 2742 
Q 2381 3103 1925 3103 
Q 1469 3103 1208 2742 
Q 947 2381 947 1747 
z
" transform="scale(0.015625)"/>
       <path id="DejaVuSans-74" d="M 1172 4494 
L 1172 3500 
L 2356 3500 
L 2356 3053 
L 1172 3053 
L 1172 1153 
Q 1172 725 1289 603 
Q 1406 481 1766 481 
L 2356 481 
L 2356 0 
L 1766 0 
Q 1100 0 847 248 
Q 594 497 594 1153 
L 594 3053 
L 172 3053 
L 172 3500 
L 594 3500 
L 594 4494 
L 1172 4494 
z
" transform="scale(0.015625)"/>
      </defs>
      <use xlink:href="#DejaVuSans-56"/>
      <use xlink:href="#DejaVuSans-61" x="60.658203"/>
      <use xlink:href="#DejaVuSans-6c" x="121.9375"/>
      <use xlink:href="#DejaVuSans-69" x="149.720703"/>
      <use xlink:href="#DejaVuSans-64" x="177.503906"/>
      <use xlink:href="#DejaVuSans-61" x="240.980469"/>
      <use xlink:href="#DejaVuSans-74" x="302.259766"/>
      <use xlink:href="#DejaVuSans-69" x="341.46875"/>
      <use xlink:href="#DejaVuSans-6f" x="369.251953"/>
      <use xlink:href="#DejaVuSans-6e" x="430.433594"/>
      <use xlink:href="#DejaVuSans-20" x="493.8125"/>
      <use xlink:href="#DejaVuSans-41" x="525.599609"/>
      <use xlink:href="#DejaVuSans-63" x="592.257812"/>
      <use xlink:href="#DejaVuSans-63" x="647.238281"/>
      <use xlink:href="#DejaVuSans-75" x="702.21875"/>
      <use xlink:href="#DejaVuSans-72" x="765.597656"/>
      <use xlink:href="#DejaVuSans-61" x="806.710938"/>
      <use xlink:href="#DejaVuSans-63" x="867.990234"/>
      <use xlink:href="#DejaVuSans-79" x="922.970703"/>
     </g>
    </g>
    <g id="line2d_26">
     <path d="M 216.18875 263.648062 
L 226.18875 263.648062 
L 236.18875 263.648062 
" style="fill: none; stroke: #2ca02c; stroke-width: 1.5; stroke-linecap: square"/>
    </g>
    <g id="text_24">
     <!-- Robust Validation Accuracy -->
     <g transform="translate(244.18875 267.148062) scale(0.1 -0.1)">
      <defs>
       <path id="DejaVuSans-52" d="M 2841 2188 
Q 3044 2119 3236 1894 
Q 3428 1669 3622 1275 
L 4263 0 
L 3584 0 
L 2988 1197 
Q 2756 1666 2539 1819 
Q 2322 1972 1947 1972 
L 1259 1972 
L 1259 0 
L 628 0 
L 628 4666 
L 2053 4666 
Q 2853 4666 3247 4331 
Q 3641 3997 3641 3322 
Q 3641 2881 3436 2590 
Q 3231 2300 2841 2188 
z
M 1259 4147 
L 1259 2491 
L 2053 2491 
Q 2509 2491 2742 2702 
Q 2975 2913 2975 3322 
Q 2975 3731 2742 3939 
Q 2509 4147 2053 4147 
L 1259 4147 
z
" transform="scale(0.015625)"/>
       <path id="DejaVuSans-62" d="M 3116 1747 
Q 3116 2381 2855 2742 
Q 2594 3103 2138 3103 
Q 1681 3103 1420 2742 
Q 1159 2381 1159 1747 
Q 1159 1113 1420 752 
Q 1681 391 2138 391 
Q 2594 391 2855 752 
Q 3116 1113 3116 1747 
z
M 1159 2969 
Q 1341 3281 1617 3432 
Q 1894 3584 2278 3584 
Q 2916 3584 3314 3078 
Q 3713 2572 3713 1747 
Q 3713 922 3314 415 
Q 2916 -91 2278 -91 
Q 1894 -91 1617 61 
Q 1341 213 1159 525 
L 1159 0 
L 581 0 
L 581 4863 
L 1159 4863 
L 1159 2969 
z
" transform="scale(0.015625)"/>
      </defs>
      <use xlink:href="#DejaVuSans-52"/>
      <use xlink:href="#DejaVuSans-6f" x="64.982422"/>
      <use xlink:href="#DejaVuSans-62" x="126.164062"/>
      <use xlink:href="#DejaVuSans-75" x="189.640625"/>
      <use xlink:href="#DejaVuSans-73" x="253.019531"/>
      <use xlink:href="#DejaVuSans-74" x="305.119141"/>
      <use xlink:href="#DejaVuSans-20" x="344.328125"/>
      <use xlink:href="#DejaVuSans-56" x="376.115234"/>
      <use xlink:href="#DejaVuSans-61" x="436.773438"/>
      <use xlink:href="#DejaVuSans-6c" x="498.052734"/>
      <use xlink:href="#DejaVuSans-69" x="525.835938"/>
      <use xlink:href="#DejaVuSans-64" x="553.619141"/>
      <use xlink:href="#DejaVuSans-61" x="617.095703"/>
      <use xlink:href="#DejaVuSans-74" x="678.375"/>
      <use xlink:href="#DejaVuSans-69" x="717.583984"/>
      <use xlink:href="#DejaVuSans-6f" x="745.367188"/>
      <use xlink:href="#DejaVuSans-6e" x="806.548828"/>
      <use xlink:href="#DejaVuSans-20" x="869.927734"/>
      <use xlink:href="#DejaVuSans-41" x="901.714844"/>
      <use xlink:href="#DejaVuSans-63" x="968.373047"/>
      <use xlink:href="#DejaVuSans-63" x="1023.353516"/>
      <use xlink:href="#DejaVuSans-75" x="1078.333984"/>
      <use xlink:href="#DejaVuSans-72" x="1141.712891"/>
      <use xlink:href="#DejaVuSans-61" x="1182.826172"/>
      <use xlink:href="#DejaVuSans-63" x="1244.105469"/>
      <use xlink:href="#DejaVuSans-79" x="1299.085938"/>
     </g>
    </g>
    <g id="line2d_27">
     <path d="M 216.18875 278.326188 
L 226.18875 278.326188 
L 236.18875 278.326188 
" style="fill: none; stroke: #d62728; stroke-width: 1.5; stroke-linecap: square"/>
    </g>
    <g id="text_25">
     <!-- SWA Validation Accuracy -->
     <g transform="translate(244.18875 281.826188) scale(0.1 -0.1)">
      <defs>
       <path id="DejaVuSans-53" d="M 3425 4513 
L 3425 3897 
Q 3066 4069 2747 4153 
Q 2428 4238 2131 4238 
Q 1616 4238 1336 4038 
Q 1056 3838 1056 3469 
Q 1056 3159 1242 3001 
Q 1428 2844 1947 2747 
L 2328 2669 
Q 3034 2534 3370 2195 
Q 3706 1856 3706 1288 
Q 3706 609 3251 259 
Q 2797 -91 1919 -91 
Q 1588 -91 1214 -16 
Q 841 59 441 206 
L 441 856 
Q 825 641 1194 531 
Q 1563 422 1919 422 
Q 2459 422 2753 634 
Q 3047 847 3047 1241 
Q 3047 1584 2836 1778 
Q 2625 1972 2144 2069 
L 1759 2144 
Q 1053 2284 737 2584 
Q 422 2884 422 3419 
Q 422 4038 858 4394 
Q 1294 4750 2059 4750 
Q 2388 4750 2728 4690 
Q 3069 4631 3425 4513 
z
" transform="scale(0.015625)"/>
       <path id="DejaVuSans-57" d="M 213 4666 
L 850 4666 
L 1831 722 
L 2809 4666 
L 3519 4666 
L 4500 722 
L 5478 4666 
L 6119 4666 
L 4947 0 
L 4153 0 
L 3169 4050 
L 2175 0 
L 1381 0 
L 213 4666 
z
" transform="scale(0.015625)"/>
      </defs>
      <use xlink:href="#DejaVuSans-53"/>
      <use xlink:href="#DejaVuSans-57" x="63.476562"/>
      <use xlink:href="#DejaVuSans-41" x="156.853516"/>
      <use xlink:href="#DejaVuSans-20" x="225.261719"/>
      <use xlink:href="#DejaVuSans-56" x="257.048828"/>
      <use xlink:href="#DejaVuSans-61" x="317.707031"/>
      <use xlink:href="#DejaVuSans-6c" x="378.986328"/>
      <use xlink:href="#DejaVuSans-69" x="406.769531"/>
      <use xlink:href="#DejaVuSans-64" x="434.552734"/>
      <use xlink:href="#DejaVuSans-61" x="498.029297"/>
      <use xlink:href="#DejaVuSans-74" x="559.308594"/>
      <use xlink:href="#DejaVuSans-69" x="598.517578"/>
      <use xlink:href="#DejaVuSans-6f" x="626.300781"/>
      <use xlink:href="#DejaVuSans-6e" x="687.482422"/>
      <use xlink:href="#DejaVuSans-20" x="750.861328"/>
      <use xlink:href="#DejaVuSans-41" x="782.648438"/>
      <use xlink:href="#DejaVuSans-63" x="849.306641"/>
      <use xlink:href="#DejaVuSans-63" x="904.287109"/>
      <use xlink:href="#DejaVuSans-75" x="959.267578"/>
      <use xlink:href="#DejaVuSans-72" x="1022.646484"/>
      <use xlink:href="#DejaVuSans-61" x="1063.759766"/>
      <use xlink:href="#DejaVuSans-63" x="1125.039062"/>
      <use xlink:href="#DejaVuSans-79" x="1180.019531"/>
     </g>
    </g>
    <g id="line2d_28">
     <path d="M 216.18875 293.004312 
L 226.18875 293.004312 
L 236.18875 293.004312 
" style="fill: none; stroke: #9467bd; stroke-width: 1.5; stroke-linecap: square"/>
    </g>
    <g id="text_26">
     <!-- SWA Robust Validation Accuracy -->
     <g transform="translate(244.18875 296.504312) scale(0.1 -0.1)">
      <use xlink:href="#DejaVuSans-53"/>
      <use xlink:href="#DejaVuSans-57" x="63.476562"/>
      <use xlink:href="#DejaVuSans-41" x="156.853516"/>
      <use xlink:href="#DejaVuSans-20" x="225.261719"/>
      <use xlink:href="#DejaVuSans-52" x="257.048828"/>
      <use xlink:href="#DejaVuSans-6f" x="322.03125"/>
      <use xlink:href="#DejaVuSans-62" x="383.212891"/>
      <use xlink:href="#DejaVuSans-75" x="446.689453"/>
      <use xlink:href="#DejaVuSans-73" x="510.068359"/>
      <use xlink:href="#DejaVuSans-74" x="562.167969"/>
      <use xlink:href="#DejaVuSans-20" x="601.376953"/>
      <use xlink:href="#DejaVuSans-56" x="633.164062"/>
      <use xlink:href="#DejaVuSans-61" x="693.822266"/>
      <use xlink:href="#DejaVuSans-6c" x="755.101562"/>
      <use xlink:href="#DejaVuSans-69" x="782.884766"/>
      <use xlink:href="#DejaVuSans-64" x="810.667969"/>
      <use xlink:href="#DejaVuSans-61" x="874.144531"/>
      <use xlink:href="#DejaVuSans-74" x="935.423828"/>
      <use xlink:href="#DejaVuSans-69" x="974.632812"/>
      <use xlink:href="#DejaVuSans-6f" x="1002.416016"/>
      <use xlink:href="#DejaVuSans-6e" x="1063.597656"/>
      <use xlink:href="#DejaVuSans-20" x="1126.976562"/>
      <use xlink:href="#DejaVuSans-41" x="1158.763672"/>
      <use xlink:href="#DejaVuSans-63" x="1225.421875"/>
      <use xlink:href="#DejaVuSans-63" x="1280.402344"/>
      <use xlink:href="#DejaVuSans-75" x="1335.382812"/>
      <use xlink:href="#DejaVuSans-72" x="1398.761719"/>
      <use xlink:href="#DejaVuSans-61" x="1439.875"/>
      <use xlink:href="#DejaVuSans-63" x="1501.154297"/>
      <use xlink:href="#DejaVuSans-79" x="1556.134766"/>
     </g>
    </g>
   </g>
  </g>
 </g>
 <defs>
  <clipPath id="p408544f2cb">
   <rect x="57.6" y="41.472" width="357.12" height="266.112"/>
  </clipPath>
 </defs>
</svg>
