<?xml version="1.0" encoding="utf-8" standalone="no"?>
<!DOCTYPE svg PUBLIC "-//W3C//DTD SVG 1.1//EN"
  "http://www.w3.org/Graphics/SVG/1.1/DTD/svg11.dtd">
<svg xmlns:xlink="http://www.w3.org/1999/xlink" width="460.8pt" height="345.6pt" viewBox="0 0 460.8 345.6" xmlns="http://www.w3.org/2000/svg" version="1.1">
 <metadata>
  <rdf:RDF xmlns:dc="http://purl.org/dc/elements/1.1/" xmlns:cc="http://creativecommons.org/ns#" xmlns:rdf="http://www.w3.org/1999/02/22-rdf-syntax-ns#">
   <cc:Work>
    <dc:type rdf:resource="http://purl.org/dc/dcmitype/StillImage"/>
    <dc:date>2025-05-05T17:57:14.050794</dc:date>
    <dc:format>image/svg+xml</dc:format>
    <dc:creator>
     <cc:Agent>
      <dc:title>Matplotlib v3.9.1, https://matplotlib.org/</dc:title>
     </cc:Agent>
    </dc:creator>
   </cc:Work>
  </rdf:RDF>
 </metadata>
 <defs>
  <style type="text/css">*{stroke-linejoin: round; stroke-linecap: butt}</style>
 </defs>
 <g id="figure_1">
  <g id="patch_1">
   <path d="M 0 345.6 
L 460.8 345.6 
L 460.8 0 
L 0 0 
z
" style="fill: #ffffff"/>
  </g>
  <g id="axes_1">
   <g id="patch_2">
    <path d="M 57.6 307.584 
L 414.72 307.584 
L 414.72 41.472 
L 57.6 41.472 
z
" style="fill: #ffffff"/>
   </g>
   <g id="matplotlib.axis_1">
    <g id="xtick_1">
     <g id="line2d_1">
      <defs>
       <path id="mbdf0421b99" d="M 0 0 
L 0 3.5 
" style="stroke: #000000; stroke-width: 0.8"/>
      </defs>
      <g>
       <use xlink:href="#mbdf0421b99" x="73.832727" y="307.584" style="stroke: #000000; stroke-width: 0.8"/>
      </g>
     </g>
     <g id="text_1">
      <!-- 1 -->
      <g transform="translate(70.651477 322.182437) scale(0.1 -0.1)">
       <defs>
        <path id="DejaVuSans-31" d="M 794 531 
L 1825 531 
L 1825 4091 
L 703 3866 
L 703 4441 
L 1819 4666 
L 2450 4666 
L 2450 531 
L 3481 531 
L 3481 0 
L 794 0 
L 794 531 
z
" transform="scale(0.015625)"/>
       </defs>
       <use xlink:href="#DejaVuSans-31"/>
      </g>
     </g>
    </g>
    <g id="xtick_2">
     <g id="line2d_2">
      <g>
       <use xlink:href="#mbdf0421b99" x="109.664165" y="307.584" style="stroke: #000000; stroke-width: 0.8"/>
      </g>
     </g>
     <g id="text_2">
      <!-- 34 -->
      <g transform="translate(103.301665 322.182437) scale(0.1 -0.1)">
       <defs>
        <path id="DejaVuSans-33" d="M 2597 2516 
Q 3050 2419 3304 2112 
Q 3559 1806 3559 1356 
Q 3559 666 3084 287 
Q 2609 -91 1734 -91 
Q 1441 -91 1130 -33 
Q 819 25 488 141 
L 488 750 
Q 750 597 1062 519 
Q 1375 441 1716 441 
Q 2309 441 2620 675 
Q 2931 909 2931 1356 
Q 2931 1769 2642 2001 
Q 2353 2234 1838 2234 
L 1294 2234 
L 1294 2753 
L 1863 2753 
Q 2328 2753 2575 2939 
Q 2822 3125 2822 3475 
Q 2822 3834 2567 4026 
Q 2313 4219 1838 4219 
Q 1578 4219 1281 4162 
Q 984 4106 628 3988 
L 628 4550 
Q 988 4650 1302 4700 
Q 1616 4750 1894 4750 
Q 2613 4750 3031 4423 
Q 3450 4097 3450 3541 
Q 3450 3153 3228 2886 
Q 3006 2619 2597 2516 
z
" transform="scale(0.015625)"/>
        <path id="DejaVuSans-34" d="M 2419 4116 
L 825 1625 
L 2419 1625 
L 2419 4116 
z
M 2253 4666 
L 3047 4666 
L 3047 1625 
L 3713 1625 
L 3713 1100 
L 3047 1100 
L 3047 0 
L 2419 0 
L 2419 1100 
L 313 1100 
L 313 1709 
L 2253 4666 
z
" transform="scale(0.015625)"/>
       </defs>
       <use xlink:href="#DejaVuSans-33"/>
       <use xlink:href="#DejaVuSans-34" x="63.623047"/>
      </g>
     </g>
    </g>
    <g id="xtick_3">
     <g id="line2d_3">
      <g>
       <use xlink:href="#mbdf0421b99" x="145.495604" y="307.584" style="stroke: #000000; stroke-width: 0.8"/>
      </g>
     </g>
     <g id="text_3">
      <!-- 67 -->
      <g transform="translate(139.133104 322.182437) scale(0.1 -0.1)">
       <defs>
        <path id="DejaVuSans-36" d="M 2113 2584 
Q 1688 2584 1439 2293 
Q 1191 2003 1191 1497 
Q 1191 994 1439 701 
Q 1688 409 2113 409 
Q 2538 409 2786 701 
Q 3034 994 3034 1497 
Q 3034 2003 2786 2293 
Q 2538 2584 2113 2584 
z
M 3366 4563 
L 3366 3988 
Q 3128 4100 2886 4159 
Q 2644 4219 2406 4219 
Q 1781 4219 1451 3797 
Q 1122 3375 1075 2522 
Q 1259 2794 1537 2939 
Q 1816 3084 2150 3084 
Q 2853 3084 3261 2657 
Q 3669 2231 3669 1497 
Q 3669 778 3244 343 
Q 2819 -91 2113 -91 
Q 1303 -91 875 529 
Q 447 1150 447 2328 
Q 447 3434 972 4092 
Q 1497 4750 2381 4750 
Q 2619 4750 2861 4703 
Q 3103 4656 3366 4563 
z
" transform="scale(0.015625)"/>
        <path id="DejaVuSans-37" d="M 525 4666 
L 3525 4666 
L 3525 4397 
L 1831 0 
L 1172 0 
L 2766 4134 
L 525 4134 
L 525 4666 
z
" transform="scale(0.015625)"/>
       </defs>
       <use xlink:href="#DejaVuSans-36"/>
       <use xlink:href="#DejaVuSans-37" x="63.623047"/>
      </g>
     </g>
    </g>
    <g id="xtick_4">
     <g id="line2d_4">
      <g>
       <use xlink:href="#mbdf0421b99" x="181.327042" y="307.584" style="stroke: #000000; stroke-width: 0.8"/>
      </g>
     </g>
     <g id="text_4">
      <!-- 100 -->
      <g transform="translate(171.783292 322.182437) scale(0.1 -0.1)">
       <defs>
        <path id="DejaVuSans-30" d="M 2034 4250 
Q 1547 4250 1301 3770 
Q 1056 3291 1056 2328 
Q 1056 1369 1301 889 
Q 1547 409 2034 409 
Q 2525 409 2770 889 
Q 3016 1369 3016 2328 
Q 3016 3291 2770 3770 
Q 2525 4250 2034 4250 
z
M 2034 4750 
Q 2819 4750 3233 4129 
Q 3647 3509 3647 2328 
Q 3647 1150 3233 529 
Q 2819 -91 2034 -91 
Q 1250 -91 836 529 
Q 422 1150 422 2328 
Q 422 3509 836 4129 
Q 1250 4750 2034 4750 
z
" transform="scale(0.015625)"/>
       </defs>
       <use xlink:href="#DejaVuSans-31"/>
       <use xlink:href="#DejaVuSans-30" x="63.623047"/>
       <use xlink:href="#DejaVuSans-30" x="127.246094"/>
      </g>
     </g>
    </g>
    <g id="xtick_5">
     <g id="line2d_5">
      <g>
       <use xlink:href="#mbdf0421b99" x="217.15848" y="307.584" style="stroke: #000000; stroke-width: 0.8"/>
      </g>
     </g>
     <g id="text_5">
      <!-- 133 -->
      <g transform="translate(207.61473 322.182437) scale(0.1 -0.1)">
       <use xlink:href="#DejaVuSans-31"/>
       <use xlink:href="#DejaVuSans-33" x="63.623047"/>
       <use xlink:href="#DejaVuSans-33" x="127.246094"/>
      </g>
     </g>
    </g>
    <g id="xtick_6">
     <g id="line2d_6">
      <g>
       <use xlink:href="#mbdf0421b99" x="254.075719" y="307.584" style="stroke: #000000; stroke-width: 0.8"/>
      </g>
     </g>
     <g id="text_6">
      <!-- 167 -->
      <g transform="translate(244.531969 322.182437) scale(0.1 -0.1)">
       <use xlink:href="#DejaVuSans-31"/>
       <use xlink:href="#DejaVuSans-36" x="63.623047"/>
       <use xlink:href="#DejaVuSans-37" x="127.246094"/>
      </g>
     </g>
    </g>
    <g id="xtick_7">
     <g id="line2d_7">
      <g>
       <use xlink:href="#mbdf0421b99" x="289.907157" y="307.584" style="stroke: #000000; stroke-width: 0.8"/>
      </g>
     </g>
     <g id="text_7">
      <!-- 200 -->
      <g transform="translate(280.363407 322.182437) scale(0.1 -0.1)">
       <defs>
        <path id="DejaVuSans-32" d="M 1228 531 
L 3431 531 
L 3431 0 
L 469 0 
L 469 531 
Q 828 903 1448 1529 
Q 2069 2156 2228 2338 
Q 2531 2678 2651 2914 
Q 2772 3150 2772 3378 
Q 2772 3750 2511 3984 
Q 2250 4219 1831 4219 
Q 1534 4219 1204 4116 
Q 875 4013 500 3803 
L 500 4441 
Q 881 4594 1212 4672 
Q 1544 4750 1819 4750 
Q 2544 4750 2975 4387 
Q 3406 4025 3406 3419 
Q 3406 3131 3298 2873 
Q 3191 2616 2906 2266 
Q 2828 2175 2409 1742 
Q 1991 1309 1228 531 
z
" transform="scale(0.015625)"/>
       </defs>
       <use xlink:href="#DejaVuSans-32"/>
       <use xlink:href="#DejaVuSans-30" x="63.623047"/>
       <use xlink:href="#DejaVuSans-30" x="127.246094"/>
      </g>
     </g>
    </g>
    <g id="xtick_8">
     <g id="line2d_8">
      <g>
       <use xlink:href="#mbdf0421b99" x="325.738595" y="307.584" style="stroke: #000000; stroke-width: 0.8"/>
      </g>
     </g>
     <g id="text_8">
      <!-- 233 -->
      <g transform="translate(316.194845 322.182437) scale(0.1 -0.1)">
       <use xlink:href="#DejaVuSans-32"/>
       <use xlink:href="#DejaVuSans-33" x="63.623047"/>
       <use xlink:href="#DejaVuSans-33" x="127.246094"/>
      </g>
     </g>
    </g>
    <g id="xtick_9">
     <g id="line2d_9">
      <g>
       <use xlink:href="#mbdf0421b99" x="361.570033" y="307.584" style="stroke: #000000; stroke-width: 0.8"/>
      </g>
     </g>
     <g id="text_9">
      <!-- 266 -->
      <g transform="translate(352.026283 322.182437) scale(0.1 -0.1)">
       <use xlink:href="#DejaVuSans-32"/>
       <use xlink:href="#DejaVuSans-36" x="63.623047"/>
       <use xlink:href="#DejaVuSans-36" x="127.246094"/>
      </g>
     </g>
    </g>
    <g id="xtick_10">
     <g id="line2d_10">
      <g>
       <use xlink:href="#mbdf0421b99" x="398.487273" y="307.584" style="stroke: #000000; stroke-width: 0.8"/>
      </g>
     </g>
     <g id="text_10">
      <!-- 300 -->
      <g transform="translate(388.943523 322.182437) scale(0.1 -0.1)">
       <use xlink:href="#DejaVuSans-33"/>
       <use xlink:href="#DejaVuSans-30" x="63.623047"/>
       <use xlink:href="#DejaVuSans-30" x="127.246094"/>
      </g>
     </g>
    </g>
    <g id="text_11">
     <!-- Epochs -->
     <g transform="translate(218.244375 335.860562) scale(0.1 -0.1)">
      <defs>
       <path id="DejaVuSans-45" d="M 628 4666 
L 3578 4666 
L 3578 4134 
L 1259 4134 
L 1259 2753 
L 3481 2753 
L 3481 2222 
L 1259 2222 
L 1259 531 
L 3634 531 
L 3634 0 
L 628 0 
L 628 4666 
z
" transform="scale(0.015625)"/>
       <path id="DejaVuSans-70" d="M 1159 525 
L 1159 -1331 
L 581 -1331 
L 581 3500 
L 1159 3500 
L 1159 2969 
Q 1341 3281 1617 3432 
Q 1894 3584 2278 3584 
Q 2916 3584 3314 3078 
Q 3713 2572 3713 1747 
Q 3713 922 3314 415 
Q 2916 -91 2278 -91 
Q 1894 -91 1617 61 
Q 1341 213 1159 525 
z
M 3116 1747 
Q 3116 2381 2855 2742 
Q 2594 3103 2138 3103 
Q 1681 3103 1420 2742 
Q 1159 2381 1159 1747 
Q 1159 1113 1420 752 
Q 1681 391 2138 391 
Q 2594 391 2855 752 
Q 3116 1113 3116 1747 
z
" transform="scale(0.015625)"/>
       <path id="DejaVuSans-6f" d="M 1959 3097 
Q 1497 3097 1228 2736 
Q 959 2375 959 1747 
Q 959 1119 1226 758 
Q 1494 397 1959 397 
Q 2419 397 2687 759 
Q 2956 1122 2956 1747 
Q 2956 2369 2687 2733 
Q 2419 3097 1959 3097 
z
M 1959 3584 
Q 2709 3584 3137 3096 
Q 3566 2609 3566 1747 
Q 3566 888 3137 398 
Q 2709 -91 1959 -91 
Q 1206 -91 779 398 
Q 353 888 353 1747 
Q 353 2609 779 3096 
Q 1206 3584 1959 3584 
z
" transform="scale(0.015625)"/>
       <path id="DejaVuSans-63" d="M 3122 3366 
L 3122 2828 
Q 2878 2963 2633 3030 
Q 2388 3097 2138 3097 
Q 1578 3097 1268 2742 
Q 959 2388 959 1747 
Q 959 1106 1268 751 
Q 1578 397 2138 397 
Q 2388 397 2633 464 
Q 2878 531 3122 666 
L 3122 134 
Q 2881 22 2623 -34 
Q 2366 -91 2075 -91 
Q 1284 -91 818 406 
Q 353 903 353 1747 
Q 353 2603 823 3093 
Q 1294 3584 2113 3584 
Q 2378 3584 2631 3529 
Q 2884 3475 3122 3366 
z
" transform="scale(0.015625)"/>
       <path id="DejaVuSans-68" d="M 3513 2113 
L 3513 0 
L 2938 0 
L 2938 2094 
Q 2938 2591 2744 2837 
Q 2550 3084 2163 3084 
Q 1697 3084 1428 2787 
Q 1159 2491 1159 1978 
L 1159 0 
L 581 0 
L 581 4863 
L 1159 4863 
L 1159 2956 
Q 1366 3272 1645 3428 
Q 1925 3584 2291 3584 
Q 2894 3584 3203 3211 
Q 3513 2838 3513 2113 
z
" transform="scale(0.015625)"/>
       <path id="DejaVuSans-73" d="M 2834 3397 
L 2834 2853 
Q 2591 2978 2328 3040 
Q 2066 3103 1784 3103 
Q 1356 3103 1142 2972 
Q 928 2841 928 2578 
Q 928 2378 1081 2264 
Q 1234 2150 1697 2047 
L 1894 2003 
Q 2506 1872 2764 1633 
Q 3022 1394 3022 966 
Q 3022 478 2636 193 
Q 2250 -91 1575 -91 
Q 1294 -91 989 -36 
Q 684 19 347 128 
L 347 722 
Q 666 556 975 473 
Q 1284 391 1588 391 
Q 1994 391 2212 530 
Q 2431 669 2431 922 
Q 2431 1156 2273 1281 
Q 2116 1406 1581 1522 
L 1381 1569 
Q 847 1681 609 1914 
Q 372 2147 372 2553 
Q 372 3047 722 3315 
Q 1072 3584 1716 3584 
Q 2034 3584 2315 3537 
Q 2597 3491 2834 3397 
z
" transform="scale(0.015625)"/>
      </defs>
      <use xlink:href="#DejaVuSans-45"/>
      <use xlink:href="#DejaVuSans-70" x="63.183594"/>
      <use xlink:href="#DejaVuSans-6f" x="126.660156"/>
      <use xlink:href="#DejaVuSans-63" x="187.841797"/>
      <use xlink:href="#DejaVuSans-68" x="242.822266"/>
      <use xlink:href="#DejaVuSans-73" x="306.201172"/>
     </g>
    </g>
   </g>
   <g id="matplotlib.axis_2">
    <g id="ytick_1">
     <g id="line2d_11">
      <defs>
       <path id="md257fd4be3" d="M 0 0 
L -3.5 0 
" style="stroke: #000000; stroke-width: 0.8"/>
      </defs>
      <g>
       <use xlink:href="#md257fd4be3" x="57.6" y="270.151065" style="stroke: #000000; stroke-width: 0.8"/>
      </g>
     </g>
     <g id="text_12">
      <!-- 20 -->
      <g transform="translate(37.875 273.950284) scale(0.1 -0.1)">
       <use xlink:href="#DejaVuSans-32"/>
       <use xlink:href="#DejaVuSans-30" x="63.623047"/>
      </g>
     </g>
    </g>
    <g id="ytick_2">
     <g id="line2d_12">
      <g>
       <use xlink:href="#md257fd4be3" x="57.6" y="215.604381" style="stroke: #000000; stroke-width: 0.8"/>
      </g>
     </g>
     <g id="text_13">
      <!-- 40 -->
      <g transform="translate(37.875 219.403599) scale(0.1 -0.1)">
       <use xlink:href="#DejaVuSans-34"/>
       <use xlink:href="#DejaVuSans-30" x="63.623047"/>
      </g>
     </g>
    </g>
    <g id="ytick_3">
     <g id="line2d_13">
      <g>
       <use xlink:href="#md257fd4be3" x="57.6" y="161.057696" style="stroke: #000000; stroke-width: 0.8"/>
      </g>
     </g>
     <g id="text_14">
      <!-- 60 -->
      <g transform="translate(37.875 164.856915) scale(0.1 -0.1)">
       <use xlink:href="#DejaVuSans-36"/>
       <use xlink:href="#DejaVuSans-30" x="63.623047"/>
      </g>
     </g>
    </g>
    <g id="ytick_4">
     <g id="line2d_14">
      <g>
       <use xlink:href="#md257fd4be3" x="57.6" y="106.511012" style="stroke: #000000; stroke-width: 0.8"/>
      </g>
     </g>
     <g id="text_15">
      <!-- 80 -->
      <g transform="translate(37.875 110.310231) scale(0.1 -0.1)">
       <defs>
        <path id="DejaVuSans-38" d="M 2034 2216 
Q 1584 2216 1326 1975 
Q 1069 1734 1069 1313 
Q 1069 891 1326 650 
Q 1584 409 2034 409 
Q 2484 409 2743 651 
Q 3003 894 3003 1313 
Q 3003 1734 2745 1975 
Q 2488 2216 2034 2216 
z
M 1403 2484 
Q 997 2584 770 2862 
Q 544 3141 544 3541 
Q 544 4100 942 4425 
Q 1341 4750 2034 4750 
Q 2731 4750 3128 4425 
Q 3525 4100 3525 3541 
Q 3525 3141 3298 2862 
Q 3072 2584 2669 2484 
Q 3125 2378 3379 2068 
Q 3634 1759 3634 1313 
Q 3634 634 3220 271 
Q 2806 -91 2034 -91 
Q 1263 -91 848 271 
Q 434 634 434 1313 
Q 434 1759 690 2068 
Q 947 2378 1403 2484 
z
M 1172 3481 
Q 1172 3119 1398 2916 
Q 1625 2713 2034 2713 
Q 2441 2713 2670 2916 
Q 2900 3119 2900 3481 
Q 2900 3844 2670 4047 
Q 2441 4250 2034 4250 
Q 1625 4250 1398 4047 
Q 1172 3844 1172 3481 
z
" transform="scale(0.015625)"/>
       </defs>
       <use xlink:href="#DejaVuSans-38"/>
       <use xlink:href="#DejaVuSans-30" x="63.623047"/>
      </g>
     </g>
    </g>
    <g id="ytick_5">
     <g id="line2d_15">
      <g>
       <use xlink:href="#md257fd4be3" x="57.6" y="51.964327" style="stroke: #000000; stroke-width: 0.8"/>
      </g>
     </g>
     <g id="text_16">
      <!-- 100 -->
      <g transform="translate(31.5125 55.763546) scale(0.1 -0.1)">
       <use xlink:href="#DejaVuSans-31"/>
       <use xlink:href="#DejaVuSans-30" x="63.623047"/>
       <use xlink:href="#DejaVuSans-30" x="127.246094"/>
      </g>
     </g>
    </g>
    <g id="text_17">
     <!-- Accuracy -->
     <g transform="translate(25.432812 197.356125) rotate(-90) scale(0.1 -0.1)">
      <defs>
       <path id="DejaVuSans-41" d="M 2188 4044 
L 1331 1722 
L 3047 1722 
L 2188 4044 
z
M 1831 4666 
L 2547 4666 
L 4325 0 
L 3669 0 
L 3244 1197 
L 1141 1197 
L 716 0 
L 50 0 
L 1831 4666 
z
" transform="scale(0.015625)"/>
       <path id="DejaVuSans-75" d="M 544 1381 
L 544 3500 
L 1119 3500 
L 1119 1403 
Q 1119 906 1312 657 
Q 1506 409 1894 409 
Q 2359 409 2629 706 
Q 2900 1003 2900 1516 
L 2900 3500 
L 3475 3500 
L 3475 0 
L 2900 0 
L 2900 538 
Q 2691 219 2414 64 
Q 2138 -91 1772 -91 
Q 1169 -91 856 284 
Q 544 659 544 1381 
z
M 1991 3584 
L 1991 3584 
z
" transform="scale(0.015625)"/>
       <path id="DejaVuSans-72" d="M 2631 2963 
Q 2534 3019 2420 3045 
Q 2306 3072 2169 3072 
Q 1681 3072 1420 2755 
Q 1159 2438 1159 1844 
L 1159 0 
L 581 0 
L 581 3500 
L 1159 3500 
L 1159 2956 
Q 1341 3275 1631 3429 
Q 1922 3584 2338 3584 
Q 2397 3584 2469 3576 
Q 2541 3569 2628 3553 
L 2631 2963 
z
" transform="scale(0.015625)"/>
       <path id="DejaVuSans-61" d="M 2194 1759 
Q 1497 1759 1228 1600 
Q 959 1441 959 1056 
Q 959 750 1161 570 
Q 1363 391 1709 391 
Q 2188 391 2477 730 
Q 2766 1069 2766 1631 
L 2766 1759 
L 2194 1759 
z
M 3341 1997 
L 3341 0 
L 2766 0 
L 2766 531 
Q 2569 213 2275 61 
Q 1981 -91 1556 -91 
Q 1019 -91 701 211 
Q 384 513 384 1019 
Q 384 1609 779 1909 
Q 1175 2209 1959 2209 
L 2766 2209 
L 2766 2266 
Q 2766 2663 2505 2880 
Q 2244 3097 1772 3097 
Q 1472 3097 1187 3025 
Q 903 2953 641 2809 
L 641 3341 
Q 956 3463 1253 3523 
Q 1550 3584 1831 3584 
Q 2591 3584 2966 3190 
Q 3341 2797 3341 1997 
z
" transform="scale(0.015625)"/>
       <path id="DejaVuSans-79" d="M 2059 -325 
Q 1816 -950 1584 -1140 
Q 1353 -1331 966 -1331 
L 506 -1331 
L 506 -850 
L 844 -850 
Q 1081 -850 1212 -737 
Q 1344 -625 1503 -206 
L 1606 56 
L 191 3500 
L 800 3500 
L 1894 763 
L 2988 3500 
L 3597 3500 
L 2059 -325 
z
" transform="scale(0.015625)"/>
      </defs>
      <use xlink:href="#DejaVuSans-41"/>
      <use xlink:href="#DejaVuSans-63" x="66.658203"/>
      <use xlink:href="#DejaVuSans-63" x="121.638672"/>
      <use xlink:href="#DejaVuSans-75" x="176.619141"/>
      <use xlink:href="#DejaVuSans-72" x="239.998047"/>
      <use xlink:href="#DejaVuSans-61" x="281.111328"/>
      <use xlink:href="#DejaVuSans-63" x="342.390625"/>
      <use xlink:href="#DejaVuSans-79" x="397.371094"/>
     </g>
    </g>
   </g>
   <g id="line2d_16">
    <path d="M 73.832727 295.488 
L 74.918528 260.839946 
L 76.00433 235.224823 
L 77.090131 215.249827 
L 78.175932 200.914959 
L 79.261733 188.505588 
L 80.347534 178.174446 
L 82.519137 163.6323 
L 85.77654 144.873695 
L 86.862341 139.866309 
L 87.948142 134.084361 
L 89.033943 130.549736 
L 90.119745 125.798719 
L 91.205546 121.904086 
L 92.291347 118.811289 
L 93.377148 116.547602 
L 94.462949 114.682105 
L 95.54875 150.071994 
L 96.634552 148.91015 
L 97.720353 145.882809 
L 99.891955 139.168112 
L 100.977756 136.844423 
L 102.063557 132.960699 
L 103.149358 130.140636 
L 104.23516 126.993292 
L 105.320961 124.429598 
L 106.406762 121.216798 
L 107.492563 119.04584 
L 108.578364 115.827586 
L 109.664165 114.327552 
L 110.749967 110.912929 
L 111.835768 108.267415 
L 114.00737 102.572741 
L 115.093171 100.232689 
L 116.178972 97.205348 
L 117.264773 94.85984 
L 118.350575 92.105233 
L 120.522177 87.092392 
L 121.607978 85.303261 
L 122.693779 82.957754 
L 123.77958 80.050415 
L 125.951183 76.215783 
L 127.036984 74.944846 
L 128.122785 72.375697 
L 129.208586 71.835685 
L 131.380189 68.906528 
L 132.46599 68.442881 
L 134.637592 66.381016 
L 135.723393 66.086464 
L 136.809194 66.0701 
L 137.894995 65.611908 
L 138.980797 102.698199 
L 140.066598 106.680107 
L 141.152399 106.28737 
L 142.2382 103.369123 
L 143.324001 104.32369 
L 144.409802 101.656357 
L 145.495604 101.11089 
L 146.581405 99.71995 
L 147.667206 98.710836 
L 148.753007 97.439898 
L 149.838808 95.590766 
L 150.924609 94.647108 
L 152.01041 93.872545 
L 153.096212 92.241599 
L 154.182013 91.417944 
L 155.267814 90.234281 
L 156.353615 88.723338 
L 157.439416 87.992413 
L 158.525217 86.825113 
L 159.611019 86.072369 
L 160.69682 85.515993 
L 161.782621 83.775954 
L 162.868422 82.597745 
L 165.040024 80.814069 
L 166.125825 80.246783 
L 167.211627 78.779478 
L 169.383229 76.821252 
L 170.46903 75.850321 
L 171.554831 75.048484 
L 172.640632 74.481199 
L 174.812235 72.250239 
L 175.898036 71.677499 
L 176.983837 70.9193 
L 178.069638 69.822912 
L 179.155439 69.206534 
L 180.24124 68.317423 
L 181.327042 67.591953 
L 182.412843 67.204671 
L 183.498644 66.391926 
L 184.584445 65.922824 
L 185.670246 64.979166 
L 186.756047 64.25915 
L 187.841849 63.162762 
L 188.92765 63.271855 
L 190.013451 62.29547 
L 198.69986 58.695388 
L 199.785661 58.084465 
L 200.871462 57.937189 
L 201.957264 57.500816 
L 203.043065 57.342631 
L 205.214667 56.797164 
L 206.300468 56.317153 
L 207.386269 56.355336 
L 208.472071 56.060783 
L 209.557872 55.968054 
L 210.643673 55.602591 
L 211.729474 55.449861 
L 212.815275 55.548045 
L 213.901076 55.269857 
L 214.986877 55.209855 
L 218.244281 54.768027 
L 219.330082 54.882575 
L 220.415883 54.637115 
L 221.501684 54.811664 
L 222.587486 54.746208 
L 223.673287 54.860756 
L 224.759088 54.637115 
L 225.844889 77.312172 
L 226.93069 82.625019 
L 228.016491 83.203214 
L 229.102292 82.990482 
L 230.188094 82.395923 
L 232.359696 81.905003 
L 233.445497 81.741362 
L 234.531298 80.999528 
L 235.617099 80.688611 
L 236.702901 79.690407 
L 237.788702 79.079484 
L 238.874503 79.035847 
L 241.046105 78.043097 
L 242.131906 77.879457 
L 245.38931 76.67943 
L 246.475111 76.313967 
L 247.560912 75.550314 
L 248.646713 75.004847 
L 249.732514 75.11394 
L 250.818316 74.317559 
L 251.904117 74.677567 
L 252.989918 74.088463 
L 254.075719 73.935732 
L 255.16152 72.746614 
L 256.247321 73.035712 
L 257.333123 72.82298 
L 259.504725 71.857503 
L 260.590526 71.382947 
L 261.676327 71.181124 
L 262.762128 71.224762 
L 263.847929 71.017484 
L 264.933731 70.210193 
L 266.019532 70.362924 
L 267.105333 70.052008 
L 268.191134 70.237467 
L 269.276935 69.146533 
L 270.362736 68.868345 
L 271.448538 69.151988 
L 272.534339 68.94471 
L 273.62014 68.224694 
L 274.705941 68.513792 
L 275.791742 68.322878 
L 276.877543 67.439222 
L 277.963344 67.477405 
L 279.049146 67.019212 
L 283.39235 66.195557 
L 285.563953 65.208262 
L 287.735555 65.535543 
L 288.821356 64.417336 
L 289.907157 64.940984 
L 290.992958 64.231877 
L 292.07876 64.450064 
L 293.164561 64.139147 
L 295.336163 63.211854 
L 296.421964 63.582771 
L 297.507765 63.091851 
L 299.679368 62.840936 
L 300.765169 61.946371 
L 301.85097 62.333652 
L 302.936771 61.864551 
L 304.022572 62.180921 
L 305.108373 61.531816 
L 306.194175 61.253628 
L 307.279976 61.531816 
L 308.365777 61.12817 
L 310.537379 60.746344 
L 311.62318 60.348153 
L 312.708981 60.129966 
L 313.794783 60.162694 
L 314.880584 59.57359 
L 315.966385 59.808141 
L 317.052186 59.780867 
L 318.137987 59.208127 
L 319.223788 59.333585 
L 320.30959 58.684479 
L 321.395391 58.67357 
L 322.481192 58.389927 
L 323.566993 58.575386 
L 324.652794 58.0081 
L 325.738595 58.024464 
L 326.824396 57.877188 
L 327.910198 57.484452 
L 328.995999 58.013555 
L 330.0818 57.35354 
L 331.167601 57.206264 
L 332.253402 57.288084 
L 333.339203 57.053533 
L 334.425005 56.971713 
L 335.510806 56.671706 
L 336.596607 56.066238 
L 337.682408 56.246242 
L 339.85401 56.022601 
L 340.939811 55.798959 
L 342.025613 55.700775 
L 344.197215 55.755322 
L 345.283016 55.711685 
L 346.368817 55.520771 
L 347.454618 55.209855 
L 348.54042 55.340767 
L 349.626221 54.88803 
L 350.712022 55.275311 
L 351.797823 54.893484 
L 352.883624 54.828028 
L 353.969425 54.882575 
L 355.055227 54.609842 
L 357.226829 54.473475 
L 358.31263 54.173468 
L 359.398431 54.353472 
L 360.484232 54.195287 
L 362.655835 54.244379 
L 363.741636 53.846188 
L 364.827437 54.086194 
L 366.999039 53.568 
L 368.08484 53.938917 
L 369.170642 53.889825 
L 370.256443 54.418928 
L 371.342244 54.615296 
L 372.428045 54.942576 
L 376.77125 55.313494 
L 378.942852 55.122581 
L 380.028653 55.029851 
L 383.286057 55.318949 
L 384.371858 54.953486 
L 385.457659 55.264402 
L 386.54346 55.329858 
L 388.715062 55.095307 
L 390.886665 55.258947 
L 391.972466 55.166218 
L 394.144068 55.482589 
L 395.229869 55.160763 
L 397.401472 55.231674 
L 398.487273 55.204401 
L 398.487273 55.204401 
" clip-path="url(#pdee4a8d3a3)" style="fill: none; stroke: #1f77b4; stroke-width: 1.5; stroke-linecap: square"/>
   </g>
   <g id="line2d_17">
    <path d="M 73.832727 283.89683 
L 74.918528 255.532554 
L 76.00433 238.404895 
L 77.090131 223.35001 
L 78.175932 197.903982 
L 79.261733 193.212967 
L 80.347534 186.421905 
L 81.433335 180.503589 
L 82.519137 175.976214 
L 83.604938 176.548955 
L 85.77654 156.584868 
L 86.862341 155.084834 
L 87.948142 154.048447 
L 89.033943 146.493732 
L 90.119745 143.930037 
L 91.205546 143.13911 
L 92.291347 141.01179 
L 94.462949 139.239023 
L 95.54875 165.148698 
L 96.634552 164.139584 
L 97.720353 166.812371 
L 98.806154 154.730281 
L 99.891955 158.548549 
L 100.977756 156.557595 
L 102.063557 148.866512 
L 103.149358 152.957514 
L 104.23516 153.939354 
L 105.320961 145.811898 
L 106.406762 146.902832 
L 107.492563 144.284591 
L 108.578364 142.702737 
L 109.664165 140.657236 
L 110.749967 141.366343 
L 111.835768 138.311729 
L 112.921569 137.848082 
L 114.00737 135.011654 
L 115.093171 136.620782 
L 116.178972 135.338935 
L 117.264773 129.693353 
L 119.436376 132.36614 
L 120.522177 129.584259 
L 121.607978 129.720626 
L 122.693779 127.566032 
L 123.77958 127.129659 
L 124.865382 125.575078 
L 125.951183 125.575078 
L 127.036984 123.665944 
L 128.122785 124.920518 
L 129.208586 122.875017 
L 130.294387 123.338664 
L 131.380189 124.020498 
L 132.46599 123.065931 
L 133.551791 121.729537 
L 134.637592 123.502304 
L 135.723393 122.029544 
L 136.809194 121.729537 
L 137.894995 122.49319 
L 138.980797 140.984516 
L 140.066598 142.757284 
L 141.152399 138.748102 
L 142.2382 141.775443 
L 143.324001 137.575349 
L 144.409802 141.42089 
L 145.495604 135.257115 
L 146.581405 140.220863 
L 147.667206 137.520802 
L 148.753007 133.866174 
L 149.838808 138.829922 
L 150.924609 133.184341 
L 152.01041 133.947994 
L 153.096212 135.857128 
L 154.182013 136.129862 
L 155.267814 131.902493 
L 156.353615 135.338935 
L 157.439416 132.2025 
L 158.525217 132.28432 
L 159.611019 132.011587 
L 160.69682 131.111567 
L 161.782621 130.40246 
L 162.868422 128.384232 
L 163.954223 134.711648 
L 165.040024 131.3843 
L 166.125825 128.602419 
L 167.211627 131.084293 
L 168.297428 129.229706 
L 169.383229 128.520599 
L 170.46903 128.329686 
L 171.554831 127.347845 
L 172.640632 128.520599 
L 173.726434 124.947791 
L 174.812235 126.420552 
L 175.898036 126.202365 
L 176.983837 125.029611 
L 178.069638 127.238752 
L 179.155439 125.929632 
L 180.24124 126.693285 
L 181.327042 124.484144 
L 182.412843 128.411506 
L 183.498644 126.311458 
L 184.584445 126.147818 
L 185.670246 125.602351 
L 186.756047 123.256844 
L 187.841849 121.893177 
L 188.92765 122.547737 
L 190.013451 122.847744 
L 191.099252 124.429598 
L 192.185053 122.16591 
L 193.270854 120.502236 
L 194.356656 121.565897 
L 195.442457 121.42953 
L 196.528258 120.065863 
L 197.614059 119.95677 
L 198.69986 118.811289 
L 199.785661 119.71131 
L 200.871462 121.02043 
L 201.957264 118.974929 
L 203.043065 117.283982 
L 204.128866 119.411303 
L 205.214667 120.174956 
L 206.300468 117.638536 
L 207.386269 116.383962 
L 208.472071 117.665809 
L 209.557872 116.274868 
L 210.643673 115.511215 
L 211.729474 116.274868 
L 212.815275 115.947588 
L 213.901076 116.602148 
L 214.986877 116.002135 
L 216.072679 115.702128 
L 217.15848 115.811222 
L 218.244281 116.247595 
L 219.330082 115.129388 
L 220.415883 116.056682 
L 221.501684 115.756675 
L 222.587486 116.083955 
L 223.673287 115.483941 
L 224.759088 115.838495 
L 225.844889 138.393549 
L 226.93069 141.884537 
L 228.016491 133.893447 
L 229.102292 135.257115 
L 230.188094 136.293502 
L 231.273895 138.502642 
L 232.359696 135.038928 
L 233.445497 131.193387 
L 234.531298 135.693488 
L 235.617099 132.311594 
L 236.702901 130.72974 
L 237.788702 131.166113 
L 238.874503 132.93888 
L 239.960304 133.320707 
L 241.046105 135.338935 
L 242.131906 132.147954 
L 243.217708 132.829787 
L 244.303509 131.193387 
L 245.38931 133.593441 
L 246.475111 128.956973 
L 247.560912 130.293366 
L 248.646713 132.77524 
L 249.732514 130.293366 
L 250.818316 132.338867 
L 251.904117 131.247933 
L 252.989918 134.275274 
L 254.075719 131.05702 
L 255.16152 129.747899 
L 256.247321 130.047906 
L 257.333123 133.047974 
L 258.418924 133.620714 
L 259.504725 133.429801 
L 260.590526 134.466188 
L 261.676327 132.011587 
L 262.762128 137.329889 
L 263.847929 129.938813 
L 264.933731 128.111499 
L 266.019532 128.193319 
L 267.105333 127.293299 
L 268.191134 130.266093 
L 269.276935 128.902426 
L 270.362736 127.866039 
L 271.448538 130.702466 
L 272.534339 131.411573 
L 273.62014 130.538826 
L 274.705941 128.684239 
L 275.791742 128.984246 
L 276.877543 128.438779 
L 277.963344 128.220592 
L 279.049146 132.666147 
L 280.134947 125.629625 
L 281.220748 129.966086 
L 282.306549 131.275207 
L 283.39235 130.184273 
L 284.478151 128.793332 
L 285.563953 126.966019 
L 286.649754 126.693285 
L 287.735555 126.638738 
L 288.821356 132.229774 
L 289.907157 129.120613 
L 290.992958 127.947859 
L 292.07876 125.602351 
L 293.164561 126.229638 
L 294.250362 128.302412 
L 295.336163 128.711512 
L 297.507765 126.584192 
L 298.593566 127.593305 
L 299.679368 126.720558 
L 300.765169 125.138705 
L 301.85097 124.511418 
L 302.936771 123.256844 
L 304.022572 124.702331 
L 305.108373 124.893245 
L 306.194175 123.147751 
L 307.279976 125.575078 
L 308.365777 122.793197 
L 309.451578 122.57501 
L 310.537379 126.147818 
L 311.62318 124.620511 
L 312.708981 124.402324 
L 313.794783 126.611465 
L 314.880584 122.902291 
L 315.966385 124.075044 
L 317.052186 122.00227 
L 318.137987 123.775037 
L 319.223788 120.393143 
L 320.30959 122.984111 
L 321.395391 121.565897 
L 322.481192 121.784084 
L 323.566993 122.73865 
L 324.652794 124.375051 
L 325.738595 122.956837 
L 326.824396 122.00227 
L 327.910198 121.293163 
L 328.995999 120.12041 
L 330.0818 122.629557 
L 331.167601 123.829584 
L 332.253402 119.438576 
L 333.339203 123.611397 
L 334.425005 121.02043 
L 335.510806 118.974929 
L 336.596607 118.811289 
L 337.682408 120.093136 
L 338.768209 118.456736 
L 339.85401 118.402189 
L 342.025613 116.002135 
L 343.111414 117.747629 
L 344.197215 117.256709 
L 345.283016 120.28405 
L 346.368817 117.638536 
L 347.454618 117.638536 
L 348.54042 117.856722 
L 349.626221 116.547602 
L 350.712022 117.256709 
L 351.797823 117.747629 
L 352.883624 114.993021 
L 353.969425 116.165775 
L 355.055227 115.129388 
L 356.141028 115.838495 
L 357.226829 115.129388 
L 358.31263 115.865768 
L 359.398431 115.456668 
L 360.484232 113.602081 
L 361.570033 113.547534 
L 362.655835 114.693015 
L 363.741636 113.111161 
L 364.827437 112.947521 
L 366.999039 114.338461 
L 368.08484 113.792994 
L 369.170642 114.120274 
L 370.256443 116.983975 
L 371.342244 114.802108 
L 372.428045 116.547602 
L 373.513846 117.529442 
L 374.599647 117.065795 
L 375.685448 118.620376 
L 376.77125 118.293096 
L 377.857051 116.493055 
L 378.942852 117.883996 
L 380.028653 118.511282 
L 381.114454 117.665809 
L 382.200255 117.611262 
L 383.286057 116.847609 
L 384.371858 117.474895 
L 385.457659 117.447622 
L 386.54346 117.774902 
L 387.629261 118.702196 
L 388.715062 118.729469 
L 389.800863 117.693082 
L 390.886665 118.402189 
L 391.972466 116.929429 
L 393.058267 119.602216 
L 394.144068 120.829517 
L 395.229869 120.420416 
L 396.31567 118.784016 
L 397.401472 119.193116 
L 398.487273 118.538556 
L 398.487273 118.538556 
" clip-path="url(#pdee4a8d3a3)" style="fill: none; stroke: #ff7f0e; stroke-width: 1.5; stroke-linecap: square"/>
   </g>
   <g id="line2d_18">
    <path d="M 73.832727 288.903942 
L 74.918528 265.505324 
L 76.00433 263.868923 
L 77.090131 248.915495 
L 78.175932 236.06866 
L 79.261733 232.833496 
L 80.347534 227.567014 
L 81.433335 228.319486 
L 82.519137 223.767565 
L 83.604938 223.955751 
L 84.690739 215.359739 
L 85.77654 209.830069 
L 86.862341 211.936662 
L 87.948142 207.403559 
L 89.033943 202.155896 
L 90.119745 198.563178 
L 91.205546 199.127464 
L 93.377148 195.911118 
L 94.462949 195.196284 
L 95.54875 219.949297 
L 96.634552 218.199985 
L 97.720353 218.839545 
L 98.806154 213.817431 
L 99.891955 211.993117 
L 100.977756 208.739135 
L 102.063557 201.59161 
L 103.149358 207.817296 
L 104.23516 208.814137 
L 105.320961 202.607269 
L 106.406762 201.365787 
L 107.492563 195.704114 
L 108.578364 200.500677 
L 109.664165 199.372106 
L 110.749967 195.741751 
L 111.835768 193.785707 
L 112.921569 193.089691 
L 114.00737 191.885846 
L 115.093171 193.37197 
L 116.178972 192.074032 
L 117.264773 188.857687 
L 118.350575 190.042713 
L 119.436376 191.622658 
L 120.522177 188.011395 
L 121.607978 188.086397 
L 122.693779 183.986122 
L 123.77958 185.189968 
L 124.865382 180.73214 
L 125.951183 182.406178 
L 127.036984 180.995328 
L 128.122785 182.01126 
L 129.208586 179.660025 
L 130.294387 179.641206 
L 131.380189 179.904394 
L 132.46599 179.058102 
L 133.551791 177.421702 
L 134.637592 178.456179 
L 135.723393 177.289971 
L 136.809194 177.57225 
L 137.894995 177.591069 
L 138.980797 199.127464 
L 140.066598 199.974028 
L 141.152399 197.453426 
L 142.2382 200.237216 
L 143.324001 192.450131 
L 144.409802 195.591475 
L 145.495604 192.826503 
L 146.581405 195.817025 
L 147.667206 193.466063 
L 148.753007 193.691614 
L 149.838808 195.422107 
L 150.924609 192.412767 
L 152.01041 192.920597 
L 153.096212 189.910983 
L 154.182013 195.25274 
L 155.267814 186.318539 
L 156.353615 189.647795 
L 157.439416 188.725956 
L 158.525217 190.531724 
L 159.611019 192.657136 
L 160.69682 189.08351 
L 161.782621 187.973758 
L 162.868422 185.66016 
L 163.954223 192.111669 
L 165.040024 186.93928 
L 166.125825 183.797936 
L 167.211627 187.691479 
L 169.383229 185.52843 
L 170.46903 186.638182 
L 171.554831 181.710162 
L 172.640632 186.055078 
L 173.726434 177.083239 
L 174.812235 177.835438 
L 175.898036 183.083375 
L 176.983837 179.754118 
L 178.069638 181.766618 
L 179.155439 182.895189 
L 180.24124 182.255629 
L 181.327042 180.318403 
L 182.412843 185.490793 
L 183.498644 180.299585 
L 184.584445 183.478293 
L 185.670246 181.23997 
L 186.756047 177.327609 
L 187.841849 177.083239 
L 188.92765 178.286812 
L 190.013451 176.650411 
L 191.099252 181.164695 
L 192.185053 178.117717 
L 193.270854 174.01717 
L 194.356656 175.954669 
L 195.442457 174.261812 
L 196.528258 175.371564 
L 197.614059 173.039148 
L 198.69986 171.440385 
L 199.785661 171.703573 
L 200.871462 175.766482 
L 201.957264 171.083104 
L 203.043065 169.72871 
L 204.128866 172.399588 
L 205.214667 172.568956 
L 206.300468 169.145606 
L 207.386269 170.725551 
L 208.472071 169.898077 
L 209.557872 167.001376 
L 210.643673 167.377475 
L 211.729474 169.277336 
L 212.815275 167.509205 
L 214.986877 166.982557 
L 216.072679 167.170743 
L 217.15848 166.850827 
L 218.244281 167.509205 
L 219.330082 166.794371 
L 220.415883 166.926101 
L 221.501684 167.509205 
L 222.587486 167.283655 
L 224.759088 165.872805 
L 225.844889 193.24024 
L 226.93069 195.911118 
L 228.016491 191.998758 
L 229.102292 193.804526 
L 230.188094 193.766888 
L 231.273895 196.136942 
L 232.359696 192.412767 
L 233.445497 183.045738 
L 234.531298 189.835709 
L 235.617099 188.613045 
L 236.702901 189.628977 
L 237.788702 183.967304 
L 238.874503 187.503565 
L 239.960304 188.44395 
L 241.046105 192.581862 
L 242.131906 188.011395 
L 243.217708 189.910983 
L 244.303509 187.93612 
L 245.38931 190.32472 
L 246.475111 184.117853 
L 247.560912 190.117988 
L 248.646713 192.055213 
L 249.732514 188.31222 
L 250.818316 188.613045 
L 251.904117 185.52843 
L 252.989918 187.93612 
L 254.075719 186.29972 
L 255.16152 187.860846 
L 256.247321 184.964144 
L 257.333123 191.058373 
L 258.418924 186.544089 
L 259.504725 185.471974 
L 260.590526 184.080215 
L 261.676327 186.638182 
L 262.762128 195.591475 
L 263.847929 183.666479 
L 264.933731 182.631728 
L 266.019532 185.434337 
L 268.191134 182.61291 
L 269.276935 182.330903 
L 270.362736 184.15549 
L 271.448538 184.475133 
L 272.534339 189.421972 
L 273.62014 185.547248 
L 274.705941 180.111399 
L 275.791742 182.067443 
L 276.877543 182.312085 
L 277.963344 181.992441 
L 279.049146 187.277742 
L 280.134947 178.343268 
L 281.220748 180.619228 
L 282.306549 185.171149 
L 283.39235 178.644366 
L 284.478151 182.330903 
L 285.563953 183.102193 
L 286.649754 179.904394 
L 287.735555 180.86387 
L 288.821356 187.597386 
L 289.907157 184.88887 
L 290.992958 181.446974 
L 292.07876 176.123763 
L 294.250362 178.851097 
L 295.336163 181.785436 
L 296.421964 181.070602 
L 297.507765 178.926372 
L 298.593566 182.274447 
L 299.679368 177.873075 
L 300.765169 177.402883 
L 301.85097 175.841757 
L 302.936771 171.590934 
L 304.022572 177.214697 
L 305.108373 175.352746 
L 306.194175 174.01717 
L 307.279976 176.876235 
L 308.365777 173.546978 
L 309.451578 176.970328 
L 310.537379 178.531454 
L 311.62318 177.120877 
L 312.708981 178.569091 
L 313.794783 177.929531 
L 314.880584 174.111263 
L 315.966385 175.221016 
L 317.052186 175.597115 
L 318.137987 174.694367 
L 319.223788 173.998352 
L 320.30959 174.318268 
L 321.395391 173.753907 
L 322.481192 170.838481 
L 323.566993 175.352689 
L 324.652794 173.960809 
L 325.738595 176.330768 
L 326.824396 172.362026 
L 328.995999 172.456072 
L 330.0818 173.659861 
L 331.167601 172.888684 
L 332.253402 169.108035 
L 333.339203 173.076776 
L 334.425005 172.73821 
L 335.510806 170.932527 
L 336.596607 168.111147 
L 337.682408 175.672446 
L 338.768209 168.675423 
L 340.939811 167.8102 
L 342.025613 166.117371 
L 343.111414 167.09545 
L 344.197215 166.86974 
L 345.283016 170.876099 
L 346.368817 165.929279 
L 347.454618 168.882324 
L 348.54042 166.249036 
L 349.626221 169.164462 
L 350.712022 164.669063 
L 351.797823 165.647141 
L 352.883624 163.465274 
L 353.969425 163.521702 
L 355.055227 164.27407 
L 356.141028 162.825761 
L 357.226829 162.637669 
L 358.31263 161.979347 
L 359.398431 163.484083 
L 360.484232 162.317913 
L 361.570033 160.982459 
L 362.655835 163.126708 
L 363.741636 162.86338 
L 364.827437 160.643894 
L 365.913238 161.415071 
L 366.999039 161.866492 
L 368.08484 161.151742 
L 369.170642 161.697209 
L 370.256443 163.954313 
L 371.342244 165.045247 
L 372.428045 167.434016 
L 373.513846 165.985707 
L 374.599647 165.759997 
L 375.685448 168.449712 
L 376.77125 166.079753 
L 377.857051 167.979482 
L 378.942852 165.534286 
L 380.028653 168.017101 
L 381.114454 166.719266 
L 382.200255 164.913583 
L 383.286057 163.822649 
L 384.371858 165.270957 
L 385.457659 168.017101 
L 386.54346 166.832121 
L 387.629261 166.455937 
L 388.715062 165.759997 
L 389.800863 165.21453 
L 390.886665 168.28043 
L 391.972466 165.778806 
L 393.058267 168.054719 
L 394.144068 169.22089 
L 395.229869 168.825897 
L 396.31567 168.675423 
L 397.401472 169.183271 
L 398.487273 170.16135 
L 398.487273 170.16135 
" clip-path="url(#pdee4a8d3a3)" style="fill: none; stroke: #2ca02c; stroke-width: 1.5; stroke-linecap: square"/>
   </g>
   <g id="line2d_19">
    <path d="M 368.08484 113.683901 
L 369.170642 115.511215 
L 370.256443 115.865768 
L 371.342244 116.983975 
L 372.428045 118.320369 
L 373.513846 114.065728 
L 374.599647 117.447622 
L 375.685448 118.593102 
L 376.77125 118.756743 
L 377.857051 118.320369 
L 378.942852 118.265822 
L 380.028653 118.647649 
L 381.114454 119.247663 
L 382.200255 120.965883 
L 383.286057 122.384097 
L 384.371858 122.465917 
L 385.457659 119.247663 
L 386.54346 123.938678 
L 387.629261 122.16591 
L 388.715062 125.847812 
L 389.800863 120.638603 
L 390.886665 122.65683 
L 391.972466 125.602351 
L 393.058267 126.666012 
L 394.144068 124.293231 
L 395.229869 133.184341 
L 396.31567 134.302548 
L 397.401472 128.302412 
L 398.487273 128.166046 
L 398.487273 128.166046 
" clip-path="url(#pdee4a8d3a3)" style="fill: none; stroke: #d62728; stroke-width: 1.5; stroke-linecap: square"/>
   </g>
   <g id="line2d_20">
    <path d="M 368.08484 161.038887 
L 369.170642 163.126708 
L 370.256443 162.806952 
L 371.342244 166.756884 
L 372.428045 165.759997 
L 373.513846 163.55932 
L 374.599647 165.289767 
L 375.685448 166.042135 
L 376.77125 167.528062 
L 377.857051 164.085978 
L 378.942852 165.571905 
L 380.028653 166.305464 
L 381.114454 165.534286 
L 382.200255 167.603298 
L 383.286057 168.374476 
L 384.371858 170.782053 
L 385.457659 165.590714 
L 386.54346 168.995179 
L 387.629261 167.640917 
L 388.715062 174.205328 
L 389.800863 167.114259 
L 390.886665 171.421566 
L 391.972466 171.760132 
L 394.144068 167.396397 
L 395.229869 175.841729 
L 396.31567 178.700727 
L 397.401472 172.550118 
L 398.487273 172.700592 
L 398.487273 172.700592 
" clip-path="url(#pdee4a8d3a3)" style="fill: none; stroke: #9467bd; stroke-width: 1.5; stroke-linecap: square"/>
   </g>
   <g id="patch_3">
    <path d="M 57.6 307.584 
L 57.6 41.472 
" style="fill: none; stroke: #000000; stroke-width: 0.8; stroke-linejoin: miter; stroke-linecap: square"/>
   </g>
   <g id="patch_4">
    <path d="M 414.72 307.584 
L 414.72 41.472 
" style="fill: none; stroke: #000000; stroke-width: 0.8; stroke-linejoin: miter; stroke-linecap: square"/>
   </g>
   <g id="patch_5">
    <path d="M 57.6 307.584 
L 414.72 307.584 
" style="fill: none; stroke: #000000; stroke-width: 0.8; stroke-linejoin: miter; stroke-linecap: square"/>
   </g>
   <g id="patch_6">
    <path d="M 57.6 41.472 
L 414.72 41.472 
" style="fill: none; stroke: #000000; stroke-width: 0.8; stroke-linejoin: miter; stroke-linecap: square"/>
   </g>
   <g id="text_18">
    <!-- Learning Curves -->
    <g transform="translate(187.37625 35.472) scale(0.12 -0.12)">
     <defs>
      <path id="DejaVuSans-4c" d="M 628 4666 
L 1259 4666 
L 1259 531 
L 3531 531 
L 3531 0 
L 628 0 
L 628 4666 
z
" transform="scale(0.015625)"/>
      <path id="DejaVuSans-65" d="M 3597 1894 
L 3597 1613 
L 953 1613 
Q 991 1019 1311 708 
Q 1631 397 2203 397 
Q 2534 397 2845 478 
Q 3156 559 3463 722 
L 3463 178 
Q 3153 47 2828 -22 
Q 2503 -91 2169 -91 
Q 1331 -91 842 396 
Q 353 884 353 1716 
Q 353 2575 817 3079 
Q 1281 3584 2069 3584 
Q 2775 3584 3186 3129 
Q 3597 2675 3597 1894 
z
M 3022 2063 
Q 3016 2534 2758 2815 
Q 2500 3097 2075 3097 
Q 1594 3097 1305 2825 
Q 1016 2553 972 2059 
L 3022 2063 
z
" transform="scale(0.015625)"/>
      <path id="DejaVuSans-6e" d="M 3513 2113 
L 3513 0 
L 2938 0 
L 2938 2094 
Q 2938 2591 2744 2837 
Q 2550 3084 2163 3084 
Q 1697 3084 1428 2787 
Q 1159 2491 1159 1978 
L 1159 0 
L 581 0 
L 581 3500 
L 1159 3500 
L 1159 2956 
Q 1366 3272 1645 3428 
Q 1925 3584 2291 3584 
Q 2894 3584 3203 3211 
Q 3513 2838 3513 2113 
z
" transform="scale(0.015625)"/>
      <path id="DejaVuSans-69" d="M 603 3500 
L 1178 3500 
L 1178 0 
L 603 0 
L 603 3500 
z
M 603 4863 
L 1178 4863 
L 1178 4134 
L 603 4134 
L 603 4863 
z
" transform="scale(0.015625)"/>
      <path id="DejaVuSans-67" d="M 2906 1791 
Q 2906 2416 2648 2759 
Q 2391 3103 1925 3103 
Q 1463 3103 1205 2759 
Q 947 2416 947 1791 
Q 947 1169 1205 825 
Q 1463 481 1925 481 
Q 2391 481 2648 825 
Q 2906 1169 2906 1791 
z
M 3481 434 
Q 3481 -459 3084 -895 
Q 2688 -1331 1869 -1331 
Q 1566 -1331 1297 -1286 
Q 1028 -1241 775 -1147 
L 775 -588 
Q 1028 -725 1275 -790 
Q 1522 -856 1778 -856 
Q 2344 -856 2625 -561 
Q 2906 -266 2906 331 
L 2906 616 
Q 2728 306 2450 153 
Q 2172 0 1784 0 
Q 1141 0 747 490 
Q 353 981 353 1791 
Q 353 2603 747 3093 
Q 1141 3584 1784 3584 
Q 2172 3584 2450 3431 
Q 2728 3278 2906 2969 
L 2906 3500 
L 3481 3500 
L 3481 434 
z
" transform="scale(0.015625)"/>
      <path id="DejaVuSans-20" transform="scale(0.015625)"/>
      <path id="DejaVuSans-43" d="M 4122 4306 
L 4122 3641 
Q 3803 3938 3442 4084 
Q 3081 4231 2675 4231 
Q 1875 4231 1450 3742 
Q 1025 3253 1025 2328 
Q 1025 1406 1450 917 
Q 1875 428 2675 428 
Q 3081 428 3442 575 
Q 3803 722 4122 1019 
L 4122 359 
Q 3791 134 3420 21 
Q 3050 -91 2638 -91 
Q 1578 -91 968 557 
Q 359 1206 359 2328 
Q 359 3453 968 4101 
Q 1578 4750 2638 4750 
Q 3056 4750 3426 4639 
Q 3797 4528 4122 4306 
z
" transform="scale(0.015625)"/>
      <path id="DejaVuSans-76" d="M 191 3500 
L 800 3500 
L 1894 563 
L 2988 3500 
L 3597 3500 
L 2284 0 
L 1503 0 
L 191 3500 
z
" transform="scale(0.015625)"/>
     </defs>
     <use xlink:href="#DejaVuSans-4c"/>
     <use xlink:href="#DejaVuSans-65" x="53.962891"/>
     <use xlink:href="#DejaVuSans-61" x="115.486328"/>
     <use xlink:href="#DejaVuSans-72" x="176.765625"/>
     <use xlink:href="#DejaVuSans-6e" x="216.128906"/>
     <use xlink:href="#DejaVuSans-69" x="279.507812"/>
     <use xlink:href="#DejaVuSans-6e" x="307.291016"/>
     <use xlink:href="#DejaVuSans-67" x="370.669922"/>
     <use xlink:href="#DejaVuSans-20" x="434.146484"/>
     <use xlink:href="#DejaVuSans-43" x="465.933594"/>
     <use xlink:href="#DejaVuSans-75" x="535.757812"/>
     <use xlink:href="#DejaVuSans-72" x="599.136719"/>
     <use xlink:href="#DejaVuSans-76" x="640.25"/>
     <use xlink:href="#DejaVuSans-65" x="699.429688"/>
     <use xlink:href="#DejaVuSans-73" x="760.953125"/>
    </g>
   </g>
   <g id="legend_1">
    <g id="patch_7">
     <path d="M 214.18875 302.584 
L 407.72 302.584 
Q 409.72 302.584 409.72 300.584 
L 409.72 228.193375 
Q 409.72 226.193375 407.72 226.193375 
L 214.18875 226.193375 
Q 212.18875 226.193375 212.18875 228.193375 
L 212.18875 300.584 
Q 212.18875 302.584 214.18875 302.584 
z
" style="fill: #ffffff; opacity: 0.8; stroke: #cccccc; stroke-linejoin: miter"/>
    </g>
    <g id="line2d_21">
     <path d="M 216.18875 234.291812 
L 226.18875 234.291812 
L 236.18875 234.291812 
" style="fill: none; stroke: #1f77b4; stroke-width: 1.5; stroke-linecap: square"/>
    </g>
    <g id="text_19">
     <!-- Train Accuracy -->
     <g transform="translate(244.18875 237.791812) scale(0.1 -0.1)">
      <defs>
       <path id="DejaVuSans-54" d="M -19 4666 
L 3928 4666 
L 3928 4134 
L 2272 4134 
L 2272 0 
L 1638 0 
L 1638 4134 
L -19 4134 
L -19 4666 
z
" transform="scale(0.015625)"/>
      </defs>
      <use xlink:href="#DejaVuSans-54"/>
      <use xlink:href="#DejaVuSans-72" x="46.333984"/>
      <use xlink:href="#DejaVuSans-61" x="87.447266"/>
      <use xlink:href="#DejaVuSans-69" x="148.726562"/>
      <use xlink:href="#DejaVuSans-6e" x="176.509766"/>
      <use xlink:href="#DejaVuSans-20" x="239.888672"/>
      <use xlink:href="#DejaVuSans-41" x="271.675781"/>
      <use xlink:href="#DejaVuSans-63" x="338.333984"/>
      <use xlink:href="#DejaVuSans-63" x="393.314453"/>
      <use xlink:href="#DejaVuSans-75" x="448.294922"/>
      <use xlink:href="#DejaVuSans-72" x="511.673828"/>
      <use xlink:href="#DejaVuSans-61" x="552.787109"/>
      <use xlink:href="#DejaVuSans-63" x="614.066406"/>
      <use xlink:href="#DejaVuSans-79" x="669.046875"/>
     </g>
    </g>
    <g id="line2d_22">
     <path d="M 216.18875 248.969937 
L 226.18875 248.969937 
L 236.18875 248.969937 
" style="fill: none; stroke: #ff7f0e; stroke-width: 1.5; stroke-linecap: square"/>
    </g>
    <g id="text_20">
     <!-- Validation Accuracy -->
     <g transform="translate(244.18875 252.469937) scale(0.1 -0.1)">
      <defs>
       <path id="DejaVuSans-56" d="M 1831 0 
L 50 4666 
L 709 4666 
L 2188 738 
L 3669 4666 
L 4325 4666 
L 2547 0 
L 1831 0 
z
" transform="scale(0.015625)"/>
       <path id="DejaVuSans-6c" d="M 603 4863 
L 1178 4863 
L 1178 0 
L 603 0 
L 603 4863 
z
" transform="scale(0.015625)"/>
       <path id="DejaVuSans-64" d="M 2906 2969 
L 2906 4863 
L 3481 4863 
L 3481 0 
L 2906 0 
L 2906 525 
Q 2725 213 2448 61 
Q 2172 -91 1784 -91 
Q 1150 -91 751 415 
Q 353 922 353 1747 
Q 353 2572 751 3078 
Q 1150 3584 1784 3584 
Q 2172 3584 2448 3432 
Q 2725 3281 2906 2969 
z
M 947 1747 
Q 947 1113 1208 752 
Q 1469 391 1925 391 
Q 2381 391 2643 752 
Q 2906 1113 2906 1747 
Q 2906 2381 2643 2742 
Q 2381 3103 1925 3103 
Q 1469 3103 1208 2742 
Q 947 2381 947 1747 
z
" transform="scale(0.015625)"/>
       <path id="DejaVuSans-74" d="M 1172 4494 
L 1172 3500 
L 2356 3500 
L 2356 3053 
L 1172 3053 
L 1172 1153 
Q 1172 725 1289 603 
Q 1406 481 1766 481 
L 2356 481 
L 2356 0 
L 1766 0 
Q 1100 0 847 248 
Q 594 497 594 1153 
L 594 3053 
L 172 3053 
L 172 3500 
L 594 3500 
L 594 4494 
L 1172 4494 
z
" transform="scale(0.015625)"/>
      </defs>
      <use xlink:href="#DejaVuSans-56"/>
      <use xlink:href="#DejaVuSans-61" x="60.658203"/>
      <use xlink:href="#DejaVuSans-6c" x="121.9375"/>
      <use xlink:href="#DejaVuSans-69" x="149.720703"/>
      <use xlink:href="#DejaVuSans-64" x="177.503906"/>
      <use xlink:href="#DejaVuSans-61" x="240.980469"/>
      <use xlink:href="#DejaVuSans-74" x="302.259766"/>
      <use xlink:href="#DejaVuSans-69" x="341.46875"/>
      <use xlink:href="#DejaVuSans-6f" x="369.251953"/>
      <use xlink:href="#DejaVuSans-6e" x="430.433594"/>
      <use xlink:href="#DejaVuSans-20" x="493.8125"/>
      <use xlink:href="#DejaVuSans-41" x="525.599609"/>
      <use xlink:href="#DejaVuSans-63" x="592.257812"/>
      <use xlink:href="#DejaVuSans-63" x="647.238281"/>
      <use xlink:href="#DejaVuSans-75" x="702.21875"/>
      <use xlink:href="#DejaVuSans-72" x="765.597656"/>
      <use xlink:href="#DejaVuSans-61" x="806.710938"/>
      <use xlink:href="#DejaVuSans-63" x="867.990234"/>
      <use xlink:href="#DejaVuSans-79" x="922.970703"/>
     </g>
    </g>
    <g id="line2d_23">
     <path d="M 216.18875 263.648062 
L 226.18875 263.648062 
L 236.18875 263.648062 
" style="fill: none; stroke: #2ca02c; stroke-width: 1.5; stroke-linecap: square"/>
    </g>
    <g id="text_21">
     <!-- Robust Validation Accuracy -->
     <g transform="translate(244.18875 267.148062) scale(0.1 -0.1)">
      <defs>
       <path id="DejaVuSans-52" d="M 2841 2188 
Q 3044 2119 3236 1894 
Q 3428 1669 3622 1275 
L 4263 0 
L 3584 0 
L 2988 1197 
Q 2756 1666 2539 1819 
Q 2322 1972 1947 1972 
L 1259 1972 
L 1259 0 
L 628 0 
L 628 4666 
L 2053 4666 
Q 2853 4666 3247 4331 
Q 3641 3997 3641 3322 
Q 3641 2881 3436 2590 
Q 3231 2300 2841 2188 
z
M 1259 4147 
L 1259 2491 
L 2053 2491 
Q 2509 2491 2742 2702 
Q 2975 2913 2975 3322 
Q 2975 3731 2742 3939 
Q 2509 4147 2053 4147 
L 1259 4147 
z
" transform="scale(0.015625)"/>
       <path id="DejaVuSans-62" d="M 3116 1747 
Q 3116 2381 2855 2742 
Q 2594 3103 2138 3103 
Q 1681 3103 1420 2742 
Q 1159 2381 1159 1747 
Q 1159 1113 1420 752 
Q 1681 391 2138 391 
Q 2594 391 2855 752 
Q 3116 1113 3116 1747 
z
M 1159 2969 
Q 1341 3281 1617 3432 
Q 1894 3584 2278 3584 
Q 2916 3584 3314 3078 
Q 3713 2572 3713 1747 
Q 3713 922 3314 415 
Q 2916 -91 2278 -91 
Q 1894 -91 1617 61 
Q 1341 213 1159 525 
L 1159 0 
L 581 0 
L 581 4863 
L 1159 4863 
L 1159 2969 
z
" transform="scale(0.015625)"/>
      </defs>
      <use xlink:href="#DejaVuSans-52"/>
      <use xlink:href="#DejaVuSans-6f" x="64.982422"/>
      <use xlink:href="#DejaVuSans-62" x="126.164062"/>
      <use xlink:href="#DejaVuSans-75" x="189.640625"/>
      <use xlink:href="#DejaVuSans-73" x="253.019531"/>
      <use xlink:href="#DejaVuSans-74" x="305.119141"/>
      <use xlink:href="#DejaVuSans-20" x="344.328125"/>
      <use xlink:href="#DejaVuSans-56" x="376.115234"/>
      <use xlink:href="#DejaVuSans-61" x="436.773438"/>
      <use xlink:href="#DejaVuSans-6c" x="498.052734"/>
      <use xlink:href="#DejaVuSans-69" x="525.835938"/>
      <use xlink:href="#DejaVuSans-64" x="553.619141"/>
      <use xlink:href="#DejaVuSans-61" x="617.095703"/>
      <use xlink:href="#DejaVuSans-74" x="678.375"/>
      <use xlink:href="#DejaVuSans-69" x="717.583984"/>
      <use xlink:href="#DejaVuSans-6f" x="745.367188"/>
      <use xlink:href="#DejaVuSans-6e" x="806.548828"/>
      <use xlink:href="#DejaVuSans-20" x="869.927734"/>
      <use xlink:href="#DejaVuSans-41" x="901.714844"/>
      <use xlink:href="#DejaVuSans-63" x="968.373047"/>
      <use xlink:href="#DejaVuSans-63" x="1023.353516"/>
      <use xlink:href="#DejaVuSans-75" x="1078.333984"/>
      <use xlink:href="#DejaVuSans-72" x="1141.712891"/>
      <use xlink:href="#DejaVuSans-61" x="1182.826172"/>
      <use xlink:href="#DejaVuSans-63" x="1244.105469"/>
      <use xlink:href="#DejaVuSans-79" x="1299.085938"/>
     </g>
    </g>
    <g id="line2d_24">
     <path d="M 216.18875 278.326188 
L 226.18875 278.326188 
L 236.18875 278.326188 
" style="fill: none; stroke: #d62728; stroke-width: 1.5; stroke-linecap: square"/>
    </g>
    <g id="text_22">
     <!-- SWA Validation Accuracy -->
     <g transform="translate(244.18875 281.826188) scale(0.1 -0.1)">
      <defs>
       <path id="DejaVuSans-53" d="M 3425 4513 
L 3425 3897 
Q 3066 4069 2747 4153 
Q 2428 4238 2131 4238 
Q 1616 4238 1336 4038 
Q 1056 3838 1056 3469 
Q 1056 3159 1242 3001 
Q 1428 2844 1947 2747 
L 2328 2669 
Q 3034 2534 3370 2195 
Q 3706 1856 3706 1288 
Q 3706 609 3251 259 
Q 2797 -91 1919 -91 
Q 1588 -91 1214 -16 
Q 841 59 441 206 
L 441 856 
Q 825 641 1194 531 
Q 1563 422 1919 422 
Q 2459 422 2753 634 
Q 3047 847 3047 1241 
Q 3047 1584 2836 1778 
Q 2625 1972 2144 2069 
L 1759 2144 
Q 1053 2284 737 2584 
Q 422 2884 422 3419 
Q 422 4038 858 4394 
Q 1294 4750 2059 4750 
Q 2388 4750 2728 4690 
Q 3069 4631 3425 4513 
z
" transform="scale(0.015625)"/>
       <path id="DejaVuSans-57" d="M 213 4666 
L 850 4666 
L 1831 722 
L 2809 4666 
L 3519 4666 
L 4500 722 
L 5478 4666 
L 6119 4666 
L 4947 0 
L 4153 0 
L 3169 4050 
L 2175 0 
L 1381 0 
L 213 4666 
z
" transform="scale(0.015625)"/>
      </defs>
      <use xlink:href="#DejaVuSans-53"/>
      <use xlink:href="#DejaVuSans-57" x="63.476562"/>
      <use xlink:href="#DejaVuSans-41" x="156.853516"/>
      <use xlink:href="#DejaVuSans-20" x="225.261719"/>
      <use xlink:href="#DejaVuSans-56" x="257.048828"/>
      <use xlink:href="#DejaVuSans-61" x="317.707031"/>
      <use xlink:href="#DejaVuSans-6c" x="378.986328"/>
      <use xlink:href="#DejaVuSans-69" x="406.769531"/>
      <use xlink:href="#DejaVuSans-64" x="434.552734"/>
      <use xlink:href="#DejaVuSans-61" x="498.029297"/>
      <use xlink:href="#DejaVuSans-74" x="559.308594"/>
      <use xlink:href="#DejaVuSans-69" x="598.517578"/>
      <use xlink:href="#DejaVuSans-6f" x="626.300781"/>
      <use xlink:href="#DejaVuSans-6e" x="687.482422"/>
      <use xlink:href="#DejaVuSans-20" x="750.861328"/>
      <use xlink:href="#DejaVuSans-41" x="782.648438"/>
      <use xlink:href="#DejaVuSans-63" x="849.306641"/>
      <use xlink:href="#DejaVuSans-63" x="904.287109"/>
      <use xlink:href="#DejaVuSans-75" x="959.267578"/>
      <use xlink:href="#DejaVuSans-72" x="1022.646484"/>
      <use xlink:href="#DejaVuSans-61" x="1063.759766"/>
      <use xlink:href="#DejaVuSans-63" x="1125.039062"/>
      <use xlink:href="#DejaVuSans-79" x="1180.019531"/>
     </g>
    </g>
    <g id="line2d_25">
     <path d="M 216.18875 293.004312 
L 226.18875 293.004312 
L 236.18875 293.004312 
" style="fill: none; stroke: #9467bd; stroke-width: 1.5; stroke-linecap: square"/>
    </g>
    <g id="text_23">
     <!-- SWA Robust Validation Accuracy -->
     <g transform="translate(244.18875 296.504312) scale(0.1 -0.1)">
      <use xlink:href="#DejaVuSans-53"/>
      <use xlink:href="#DejaVuSans-57" x="63.476562"/>
      <use xlink:href="#DejaVuSans-41" x="156.853516"/>
      <use xlink:href="#DejaVuSans-20" x="225.261719"/>
      <use xlink:href="#DejaVuSans-52" x="257.048828"/>
      <use xlink:href="#DejaVuSans-6f" x="322.03125"/>
      <use xlink:href="#DejaVuSans-62" x="383.212891"/>
      <use xlink:href="#DejaVuSans-75" x="446.689453"/>
      <use xlink:href="#DejaVuSans-73" x="510.068359"/>
      <use xlink:href="#DejaVuSans-74" x="562.167969"/>
      <use xlink:href="#DejaVuSans-20" x="601.376953"/>
      <use xlink:href="#DejaVuSans-56" x="633.164062"/>
      <use xlink:href="#DejaVuSans-61" x="693.822266"/>
      <use xlink:href="#DejaVuSans-6c" x="755.101562"/>
      <use xlink:href="#DejaVuSans-69" x="782.884766"/>
      <use xlink:href="#DejaVuSans-64" x="810.667969"/>
      <use xlink:href="#DejaVuSans-61" x="874.144531"/>
      <use xlink:href="#DejaVuSans-74" x="935.423828"/>
      <use xlink:href="#DejaVuSans-69" x="974.632812"/>
      <use xlink:href="#DejaVuSans-6f" x="1002.416016"/>
      <use xlink:href="#DejaVuSans-6e" x="1063.597656"/>
      <use xlink:href="#DejaVuSans-20" x="1126.976562"/>
      <use xlink:href="#DejaVuSans-41" x="1158.763672"/>
      <use xlink:href="#DejaVuSans-63" x="1225.421875"/>
      <use xlink:href="#DejaVuSans-63" x="1280.402344"/>
      <use xlink:href="#DejaVuSans-75" x="1335.382812"/>
      <use xlink:href="#DejaVuSans-72" x="1398.761719"/>
      <use xlink:href="#DejaVuSans-61" x="1439.875"/>
      <use xlink:href="#DejaVuSans-63" x="1501.154297"/>
      <use xlink:href="#DejaVuSans-79" x="1556.134766"/>
     </g>
    </g>
   </g>
  </g>
 </g>
 <defs>
  <clipPath id="pdee4a8d3a3">
   <rect x="57.6" y="41.472" width="357.12" height="266.112"/>
  </clipPath>
 </defs>
</svg>
