<?xml version="1.0" encoding="utf-8" standalone="no"?>
<!DOCTYPE svg PUBLIC "-//W3C//DTD SVG 1.1//EN"
  "http://www.w3.org/Graphics/SVG/1.1/DTD/svg11.dtd">
<svg xmlns:xlink="http://www.w3.org/1999/xlink" width="460.8pt" height="345.6pt" viewBox="0 0 460.8 345.6" xmlns="http://www.w3.org/2000/svg" version="1.1">
 <metadata>
  <rdf:RDF xmlns:dc="http://purl.org/dc/elements/1.1/" xmlns:cc="http://creativecommons.org/ns#" xmlns:rdf="http://www.w3.org/1999/02/22-rdf-syntax-ns#">
   <cc:Work>
    <dc:type rdf:resource="http://purl.org/dc/dcmitype/StillImage"/>
    <dc:date>2025-05-02T09:01:04.896336</dc:date>
    <dc:format>image/svg+xml</dc:format>
    <dc:creator>
     <cc:Agent>
      <dc:title>Matplotlib v3.9.1, https://matplotlib.org/</dc:title>
     </cc:Agent>
    </dc:creator>
   </cc:Work>
  </rdf:RDF>
 </metadata>
 <defs>
  <style type="text/css">*{stroke-linejoin: round; stroke-linecap: butt}</style>
 </defs>
 <g id="figure_1">
  <g id="patch_1">
   <path d="M 0 345.6 
L 460.8 345.6 
L 460.8 0 
L 0 0 
z
" style="fill: #ffffff"/>
  </g>
  <g id="axes_1">
   <g id="patch_2">
    <path d="M 57.6 307.584 
L 414.72 307.584 
L 414.72 41.472 
L 57.6 41.472 
z
" style="fill: #ffffff"/>
   </g>
   <g id="matplotlib.axis_1">
    <g id="xtick_1">
     <g id="line2d_1">
      <defs>
       <path id="m6850bdf26c" d="M 0 0 
L 0 3.5 
" style="stroke: #000000; stroke-width: 0.8"/>
      </defs>
      <g>
       <use xlink:href="#m6850bdf26c" x="73.832727" y="307.584" style="stroke: #000000; stroke-width: 0.8"/>
      </g>
     </g>
     <g id="text_1">
      <!-- 1 -->
      <g transform="translate(70.651477 322.182437) scale(0.1 -0.1)">
       <defs>
        <path id="DejaVuSans-31" d="M 794 531 
L 1825 531 
L 1825 4091 
L 703 3866 
L 703 4441 
L 1819 4666 
L 2450 4666 
L 2450 531 
L 3481 531 
L 3481 0 
L 794 0 
L 794 531 
z
" transform="scale(0.015625)"/>
       </defs>
       <use xlink:href="#DejaVuSans-31"/>
      </g>
     </g>
    </g>
    <g id="xtick_2">
     <g id="line2d_2">
      <g>
       <use xlink:href="#m6850bdf26c" x="109.664165" y="307.584" style="stroke: #000000; stroke-width: 0.8"/>
      </g>
     </g>
     <g id="text_2">
      <!-- 34 -->
      <g transform="translate(103.301665 322.182437) scale(0.1 -0.1)">
       <defs>
        <path id="DejaVuSans-33" d="M 2597 2516 
Q 3050 2419 3304 2112 
Q 3559 1806 3559 1356 
Q 3559 666 3084 287 
Q 2609 -91 1734 -91 
Q 1441 -91 1130 -33 
Q 819 25 488 141 
L 488 750 
Q 750 597 1062 519 
Q 1375 441 1716 441 
Q 2309 441 2620 675 
Q 2931 909 2931 1356 
Q 2931 1769 2642 2001 
Q 2353 2234 1838 2234 
L 1294 2234 
L 1294 2753 
L 1863 2753 
Q 2328 2753 2575 2939 
Q 2822 3125 2822 3475 
Q 2822 3834 2567 4026 
Q 2313 4219 1838 4219 
Q 1578 4219 1281 4162 
Q 984 4106 628 3988 
L 628 4550 
Q 988 4650 1302 4700 
Q 1616 4750 1894 4750 
Q 2613 4750 3031 4423 
Q 3450 4097 3450 3541 
Q 3450 3153 3228 2886 
Q 3006 2619 2597 2516 
z
" transform="scale(0.015625)"/>
        <path id="DejaVuSans-34" d="M 2419 4116 
L 825 1625 
L 2419 1625 
L 2419 4116 
z
M 2253 4666 
L 3047 4666 
L 3047 1625 
L 3713 1625 
L 3713 1100 
L 3047 1100 
L 3047 0 
L 2419 0 
L 2419 1100 
L 313 1100 
L 313 1709 
L 2253 4666 
z
" transform="scale(0.015625)"/>
       </defs>
       <use xlink:href="#DejaVuSans-33"/>
       <use xlink:href="#DejaVuSans-34" x="63.623047"/>
      </g>
     </g>
    </g>
    <g id="xtick_3">
     <g id="line2d_3">
      <g>
       <use xlink:href="#m6850bdf26c" x="145.495604" y="307.584" style="stroke: #000000; stroke-width: 0.8"/>
      </g>
     </g>
     <g id="text_3">
      <!-- 67 -->
      <g transform="translate(139.133104 322.182437) scale(0.1 -0.1)">
       <defs>
        <path id="DejaVuSans-36" d="M 2113 2584 
Q 1688 2584 1439 2293 
Q 1191 2003 1191 1497 
Q 1191 994 1439 701 
Q 1688 409 2113 409 
Q 2538 409 2786 701 
Q 3034 994 3034 1497 
Q 3034 2003 2786 2293 
Q 2538 2584 2113 2584 
z
M 3366 4563 
L 3366 3988 
Q 3128 4100 2886 4159 
Q 2644 4219 2406 4219 
Q 1781 4219 1451 3797 
Q 1122 3375 1075 2522 
Q 1259 2794 1537 2939 
Q 1816 3084 2150 3084 
Q 2853 3084 3261 2657 
Q 3669 2231 3669 1497 
Q 3669 778 3244 343 
Q 2819 -91 2113 -91 
Q 1303 -91 875 529 
Q 447 1150 447 2328 
Q 447 3434 972 4092 
Q 1497 4750 2381 4750 
Q 2619 4750 2861 4703 
Q 3103 4656 3366 4563 
z
" transform="scale(0.015625)"/>
        <path id="DejaVuSans-37" d="M 525 4666 
L 3525 4666 
L 3525 4397 
L 1831 0 
L 1172 0 
L 2766 4134 
L 525 4134 
L 525 4666 
z
" transform="scale(0.015625)"/>
       </defs>
       <use xlink:href="#DejaVuSans-36"/>
       <use xlink:href="#DejaVuSans-37" x="63.623047"/>
      </g>
     </g>
    </g>
    <g id="xtick_4">
     <g id="line2d_4">
      <g>
       <use xlink:href="#m6850bdf26c" x="181.327042" y="307.584" style="stroke: #000000; stroke-width: 0.8"/>
      </g>
     </g>
     <g id="text_4">
      <!-- 100 -->
      <g transform="translate(171.783292 322.182437) scale(0.1 -0.1)">
       <defs>
        <path id="DejaVuSans-30" d="M 2034 4250 
Q 1547 4250 1301 3770 
Q 1056 3291 1056 2328 
Q 1056 1369 1301 889 
Q 1547 409 2034 409 
Q 2525 409 2770 889 
Q 3016 1369 3016 2328 
Q 3016 3291 2770 3770 
Q 2525 4250 2034 4250 
z
M 2034 4750 
Q 2819 4750 3233 4129 
Q 3647 3509 3647 2328 
Q 3647 1150 3233 529 
Q 2819 -91 2034 -91 
Q 1250 -91 836 529 
Q 422 1150 422 2328 
Q 422 3509 836 4129 
Q 1250 4750 2034 4750 
z
" transform="scale(0.015625)"/>
       </defs>
       <use xlink:href="#DejaVuSans-31"/>
       <use xlink:href="#DejaVuSans-30" x="63.623047"/>
       <use xlink:href="#DejaVuSans-30" x="127.246094"/>
      </g>
     </g>
    </g>
    <g id="xtick_5">
     <g id="line2d_5">
      <g>
       <use xlink:href="#m6850bdf26c" x="217.15848" y="307.584" style="stroke: #000000; stroke-width: 0.8"/>
      </g>
     </g>
     <g id="text_5">
      <!-- 133 -->
      <g transform="translate(207.61473 322.182437) scale(0.1 -0.1)">
       <use xlink:href="#DejaVuSans-31"/>
       <use xlink:href="#DejaVuSans-33" x="63.623047"/>
       <use xlink:href="#DejaVuSans-33" x="127.246094"/>
      </g>
     </g>
    </g>
    <g id="xtick_6">
     <g id="line2d_6">
      <g>
       <use xlink:href="#m6850bdf26c" x="254.075719" y="307.584" style="stroke: #000000; stroke-width: 0.8"/>
      </g>
     </g>
     <g id="text_6">
      <!-- 167 -->
      <g transform="translate(244.531969 322.182437) scale(0.1 -0.1)">
       <use xlink:href="#DejaVuSans-31"/>
       <use xlink:href="#DejaVuSans-36" x="63.623047"/>
       <use xlink:href="#DejaVuSans-37" x="127.246094"/>
      </g>
     </g>
    </g>
    <g id="xtick_7">
     <g id="line2d_7">
      <g>
       <use xlink:href="#m6850bdf26c" x="289.907157" y="307.584" style="stroke: #000000; stroke-width: 0.8"/>
      </g>
     </g>
     <g id="text_7">
      <!-- 200 -->
      <g transform="translate(280.363407 322.182437) scale(0.1 -0.1)">
       <defs>
        <path id="DejaVuSans-32" d="M 1228 531 
L 3431 531 
L 3431 0 
L 469 0 
L 469 531 
Q 828 903 1448 1529 
Q 2069 2156 2228 2338 
Q 2531 2678 2651 2914 
Q 2772 3150 2772 3378 
Q 2772 3750 2511 3984 
Q 2250 4219 1831 4219 
Q 1534 4219 1204 4116 
Q 875 4013 500 3803 
L 500 4441 
Q 881 4594 1212 4672 
Q 1544 4750 1819 4750 
Q 2544 4750 2975 4387 
Q 3406 4025 3406 3419 
Q 3406 3131 3298 2873 
Q 3191 2616 2906 2266 
Q 2828 2175 2409 1742 
Q 1991 1309 1228 531 
z
" transform="scale(0.015625)"/>
       </defs>
       <use xlink:href="#DejaVuSans-32"/>
       <use xlink:href="#DejaVuSans-30" x="63.623047"/>
       <use xlink:href="#DejaVuSans-30" x="127.246094"/>
      </g>
     </g>
    </g>
    <g id="xtick_8">
     <g id="line2d_8">
      <g>
       <use xlink:href="#m6850bdf26c" x="325.738595" y="307.584" style="stroke: #000000; stroke-width: 0.8"/>
      </g>
     </g>
     <g id="text_8">
      <!-- 233 -->
      <g transform="translate(316.194845 322.182437) scale(0.1 -0.1)">
       <use xlink:href="#DejaVuSans-32"/>
       <use xlink:href="#DejaVuSans-33" x="63.623047"/>
       <use xlink:href="#DejaVuSans-33" x="127.246094"/>
      </g>
     </g>
    </g>
    <g id="xtick_9">
     <g id="line2d_9">
      <g>
       <use xlink:href="#m6850bdf26c" x="361.570033" y="307.584" style="stroke: #000000; stroke-width: 0.8"/>
      </g>
     </g>
     <g id="text_9">
      <!-- 266 -->
      <g transform="translate(352.026283 322.182437) scale(0.1 -0.1)">
       <use xlink:href="#DejaVuSans-32"/>
       <use xlink:href="#DejaVuSans-36" x="63.623047"/>
       <use xlink:href="#DejaVuSans-36" x="127.246094"/>
      </g>
     </g>
    </g>
    <g id="xtick_10">
     <g id="line2d_10">
      <g>
       <use xlink:href="#m6850bdf26c" x="398.487273" y="307.584" style="stroke: #000000; stroke-width: 0.8"/>
      </g>
     </g>
     <g id="text_10">
      <!-- 300 -->
      <g transform="translate(388.943523 322.182437) scale(0.1 -0.1)">
       <use xlink:href="#DejaVuSans-33"/>
       <use xlink:href="#DejaVuSans-30" x="63.623047"/>
       <use xlink:href="#DejaVuSans-30" x="127.246094"/>
      </g>
     </g>
    </g>
    <g id="text_11">
     <!-- Epochs -->
     <g transform="translate(218.244375 335.860562) scale(0.1 -0.1)">
      <defs>
       <path id="DejaVuSans-45" d="M 628 4666 
L 3578 4666 
L 3578 4134 
L 1259 4134 
L 1259 2753 
L 3481 2753 
L 3481 2222 
L 1259 2222 
L 1259 531 
L 3634 531 
L 3634 0 
L 628 0 
L 628 4666 
z
" transform="scale(0.015625)"/>
       <path id="DejaVuSans-70" d="M 1159 525 
L 1159 -1331 
L 581 -1331 
L 581 3500 
L 1159 3500 
L 1159 2969 
Q 1341 3281 1617 3432 
Q 1894 3584 2278 3584 
Q 2916 3584 3314 3078 
Q 3713 2572 3713 1747 
Q 3713 922 3314 415 
Q 2916 -91 2278 -91 
Q 1894 -91 1617 61 
Q 1341 213 1159 525 
z
M 3116 1747 
Q 3116 2381 2855 2742 
Q 2594 3103 2138 3103 
Q 1681 3103 1420 2742 
Q 1159 2381 1159 1747 
Q 1159 1113 1420 752 
Q 1681 391 2138 391 
Q 2594 391 2855 752 
Q 3116 1113 3116 1747 
z
" transform="scale(0.015625)"/>
       <path id="DejaVuSans-6f" d="M 1959 3097 
Q 1497 3097 1228 2736 
Q 959 2375 959 1747 
Q 959 1119 1226 758 
Q 1494 397 1959 397 
Q 2419 397 2687 759 
Q 2956 1122 2956 1747 
Q 2956 2369 2687 2733 
Q 2419 3097 1959 3097 
z
M 1959 3584 
Q 2709 3584 3137 3096 
Q 3566 2609 3566 1747 
Q 3566 888 3137 398 
Q 2709 -91 1959 -91 
Q 1206 -91 779 398 
Q 353 888 353 1747 
Q 353 2609 779 3096 
Q 1206 3584 1959 3584 
z
" transform="scale(0.015625)"/>
       <path id="DejaVuSans-63" d="M 3122 3366 
L 3122 2828 
Q 2878 2963 2633 3030 
Q 2388 3097 2138 3097 
Q 1578 3097 1268 2742 
Q 959 2388 959 1747 
Q 959 1106 1268 751 
Q 1578 397 2138 397 
Q 2388 397 2633 464 
Q 2878 531 3122 666 
L 3122 134 
Q 2881 22 2623 -34 
Q 2366 -91 2075 -91 
Q 1284 -91 818 406 
Q 353 903 353 1747 
Q 353 2603 823 3093 
Q 1294 3584 2113 3584 
Q 2378 3584 2631 3529 
Q 2884 3475 3122 3366 
z
" transform="scale(0.015625)"/>
       <path id="DejaVuSans-68" d="M 3513 2113 
L 3513 0 
L 2938 0 
L 2938 2094 
Q 2938 2591 2744 2837 
Q 2550 3084 2163 3084 
Q 1697 3084 1428 2787 
Q 1159 2491 1159 1978 
L 1159 0 
L 581 0 
L 581 4863 
L 1159 4863 
L 1159 2956 
Q 1366 3272 1645 3428 
Q 1925 3584 2291 3584 
Q 2894 3584 3203 3211 
Q 3513 2838 3513 2113 
z
" transform="scale(0.015625)"/>
       <path id="DejaVuSans-73" d="M 2834 3397 
L 2834 2853 
Q 2591 2978 2328 3040 
Q 2066 3103 1784 3103 
Q 1356 3103 1142 2972 
Q 928 2841 928 2578 
Q 928 2378 1081 2264 
Q 1234 2150 1697 2047 
L 1894 2003 
Q 2506 1872 2764 1633 
Q 3022 1394 3022 966 
Q 3022 478 2636 193 
Q 2250 -91 1575 -91 
Q 1294 -91 989 -36 
Q 684 19 347 128 
L 347 722 
Q 666 556 975 473 
Q 1284 391 1588 391 
Q 1994 391 2212 530 
Q 2431 669 2431 922 
Q 2431 1156 2273 1281 
Q 2116 1406 1581 1522 
L 1381 1569 
Q 847 1681 609 1914 
Q 372 2147 372 2553 
Q 372 3047 722 3315 
Q 1072 3584 1716 3584 
Q 2034 3584 2315 3537 
Q 2597 3491 2834 3397 
z
" transform="scale(0.015625)"/>
      </defs>
      <use xlink:href="#DejaVuSans-45"/>
      <use xlink:href="#DejaVuSans-70" x="63.183594"/>
      <use xlink:href="#DejaVuSans-6f" x="126.660156"/>
      <use xlink:href="#DejaVuSans-63" x="187.841797"/>
      <use xlink:href="#DejaVuSans-68" x="242.822266"/>
      <use xlink:href="#DejaVuSans-73" x="306.201172"/>
     </g>
    </g>
   </g>
   <g id="matplotlib.axis_2">
    <g id="ytick_1">
     <g id="line2d_11">
      <defs>
       <path id="mc403d459da" d="M 0 0 
L -3.5 0 
" style="stroke: #000000; stroke-width: 0.8"/>
      </defs>
      <g>
       <use xlink:href="#mc403d459da" x="57.6" y="288.062839" style="stroke: #000000; stroke-width: 0.8"/>
      </g>
     </g>
     <g id="text_12">
      <!-- 10 -->
      <g transform="translate(37.875 291.862058) scale(0.1 -0.1)">
       <use xlink:href="#DejaVuSans-31"/>
       <use xlink:href="#DejaVuSans-30" x="63.623047"/>
      </g>
     </g>
    </g>
    <g id="ytick_2">
     <g id="line2d_12">
      <g>
       <use xlink:href="#mc403d459da" x="57.6" y="258.098511" style="stroke: #000000; stroke-width: 0.8"/>
      </g>
     </g>
     <g id="text_13">
      <!-- 20 -->
      <g transform="translate(37.875 261.89773) scale(0.1 -0.1)">
       <use xlink:href="#DejaVuSans-32"/>
       <use xlink:href="#DejaVuSans-30" x="63.623047"/>
      </g>
     </g>
    </g>
    <g id="ytick_3">
     <g id="line2d_13">
      <g>
       <use xlink:href="#mc403d459da" x="57.6" y="228.134183" style="stroke: #000000; stroke-width: 0.8"/>
      </g>
     </g>
     <g id="text_14">
      <!-- 30 -->
      <g transform="translate(37.875 231.933402) scale(0.1 -0.1)">
       <use xlink:href="#DejaVuSans-33"/>
       <use xlink:href="#DejaVuSans-30" x="63.623047"/>
      </g>
     </g>
    </g>
    <g id="ytick_4">
     <g id="line2d_14">
      <g>
       <use xlink:href="#mc403d459da" x="57.6" y="198.169855" style="stroke: #000000; stroke-width: 0.8"/>
      </g>
     </g>
     <g id="text_15">
      <!-- 40 -->
      <g transform="translate(37.875 201.969074) scale(0.1 -0.1)">
       <use xlink:href="#DejaVuSans-34"/>
       <use xlink:href="#DejaVuSans-30" x="63.623047"/>
      </g>
     </g>
    </g>
    <g id="ytick_5">
     <g id="line2d_15">
      <g>
       <use xlink:href="#mc403d459da" x="57.6" y="168.205527" style="stroke: #000000; stroke-width: 0.8"/>
      </g>
     </g>
     <g id="text_16">
      <!-- 50 -->
      <g transform="translate(37.875 172.004746) scale(0.1 -0.1)">
       <defs>
        <path id="DejaVuSans-35" d="M 691 4666 
L 3169 4666 
L 3169 4134 
L 1269 4134 
L 1269 2991 
Q 1406 3038 1543 3061 
Q 1681 3084 1819 3084 
Q 2600 3084 3056 2656 
Q 3513 2228 3513 1497 
Q 3513 744 3044 326 
Q 2575 -91 1722 -91 
Q 1428 -91 1123 -41 
Q 819 9 494 109 
L 494 744 
Q 775 591 1075 516 
Q 1375 441 1709 441 
Q 2250 441 2565 725 
Q 2881 1009 2881 1497 
Q 2881 1984 2565 2268 
Q 2250 2553 1709 2553 
Q 1456 2553 1204 2497 
Q 953 2441 691 2322 
L 691 4666 
z
" transform="scale(0.015625)"/>
       </defs>
       <use xlink:href="#DejaVuSans-35"/>
       <use xlink:href="#DejaVuSans-30" x="63.623047"/>
      </g>
     </g>
    </g>
    <g id="ytick_6">
     <g id="line2d_16">
      <g>
       <use xlink:href="#mc403d459da" x="57.6" y="138.241199" style="stroke: #000000; stroke-width: 0.8"/>
      </g>
     </g>
     <g id="text_17">
      <!-- 60 -->
      <g transform="translate(37.875 142.040417) scale(0.1 -0.1)">
       <use xlink:href="#DejaVuSans-36"/>
       <use xlink:href="#DejaVuSans-30" x="63.623047"/>
      </g>
     </g>
    </g>
    <g id="ytick_7">
     <g id="line2d_17">
      <g>
       <use xlink:href="#mc403d459da" x="57.6" y="108.27687" style="stroke: #000000; stroke-width: 0.8"/>
      </g>
     </g>
     <g id="text_18">
      <!-- 70 -->
      <g transform="translate(37.875 112.076089) scale(0.1 -0.1)">
       <use xlink:href="#DejaVuSans-37"/>
       <use xlink:href="#DejaVuSans-30" x="63.623047"/>
      </g>
     </g>
    </g>
    <g id="ytick_8">
     <g id="line2d_18">
      <g>
       <use xlink:href="#mc403d459da" x="57.6" y="78.312542" style="stroke: #000000; stroke-width: 0.8"/>
      </g>
     </g>
     <g id="text_19">
      <!-- 80 -->
      <g transform="translate(37.875 82.111761) scale(0.1 -0.1)">
       <defs>
        <path id="DejaVuSans-38" d="M 2034 2216 
Q 1584 2216 1326 1975 
Q 1069 1734 1069 1313 
Q 1069 891 1326 650 
Q 1584 409 2034 409 
Q 2484 409 2743 651 
Q 3003 894 3003 1313 
Q 3003 1734 2745 1975 
Q 2488 2216 2034 2216 
z
M 1403 2484 
Q 997 2584 770 2862 
Q 544 3141 544 3541 
Q 544 4100 942 4425 
Q 1341 4750 2034 4750 
Q 2731 4750 3128 4425 
Q 3525 4100 3525 3541 
Q 3525 3141 3298 2862 
Q 3072 2584 2669 2484 
Q 3125 2378 3379 2068 
Q 3634 1759 3634 1313 
Q 3634 634 3220 271 
Q 2806 -91 2034 -91 
Q 1263 -91 848 271 
Q 434 634 434 1313 
Q 434 1759 690 2068 
Q 947 2378 1403 2484 
z
M 1172 3481 
Q 1172 3119 1398 2916 
Q 1625 2713 2034 2713 
Q 2441 2713 2670 2916 
Q 2900 3119 2900 3481 
Q 2900 3844 2670 4047 
Q 2441 4250 2034 4250 
Q 1625 4250 1398 4047 
Q 1172 3844 1172 3481 
z
" transform="scale(0.015625)"/>
       </defs>
       <use xlink:href="#DejaVuSans-38"/>
       <use xlink:href="#DejaVuSans-30" x="63.623047"/>
      </g>
     </g>
    </g>
    <g id="ytick_9">
     <g id="line2d_19">
      <g>
       <use xlink:href="#mc403d459da" x="57.6" y="48.348214" style="stroke: #000000; stroke-width: 0.8"/>
      </g>
     </g>
     <g id="text_20">
      <!-- 90 -->
      <g transform="translate(37.875 52.147433) scale(0.1 -0.1)">
       <defs>
        <path id="DejaVuSans-39" d="M 703 97 
L 703 672 
Q 941 559 1184 500 
Q 1428 441 1663 441 
Q 2288 441 2617 861 
Q 2947 1281 2994 2138 
Q 2813 1869 2534 1725 
Q 2256 1581 1919 1581 
Q 1219 1581 811 2004 
Q 403 2428 403 3163 
Q 403 3881 828 4315 
Q 1253 4750 1959 4750 
Q 2769 4750 3195 4129 
Q 3622 3509 3622 2328 
Q 3622 1225 3098 567 
Q 2575 -91 1691 -91 
Q 1453 -91 1209 -44 
Q 966 3 703 97 
z
M 1959 2075 
Q 2384 2075 2632 2365 
Q 2881 2656 2881 3163 
Q 2881 3666 2632 3958 
Q 2384 4250 1959 4250 
Q 1534 4250 1286 3958 
Q 1038 3666 1038 3163 
Q 1038 2656 1286 2365 
Q 1534 2075 1959 2075 
z
" transform="scale(0.015625)"/>
       </defs>
       <use xlink:href="#DejaVuSans-39"/>
       <use xlink:href="#DejaVuSans-30" x="63.623047"/>
      </g>
     </g>
    </g>
    <g id="text_21">
     <!-- Accuracy -->
     <g transform="translate(31.795312 197.356125) rotate(-90) scale(0.1 -0.1)">
      <defs>
       <path id="DejaVuSans-41" d="M 2188 4044 
L 1331 1722 
L 3047 1722 
L 2188 4044 
z
M 1831 4666 
L 2547 4666 
L 4325 0 
L 3669 0 
L 3244 1197 
L 1141 1197 
L 716 0 
L 50 0 
L 1831 4666 
z
" transform="scale(0.015625)"/>
       <path id="DejaVuSans-75" d="M 544 1381 
L 544 3500 
L 1119 3500 
L 1119 1403 
Q 1119 906 1312 657 
Q 1506 409 1894 409 
Q 2359 409 2629 706 
Q 2900 1003 2900 1516 
L 2900 3500 
L 3475 3500 
L 3475 0 
L 2900 0 
L 2900 538 
Q 2691 219 2414 64 
Q 2138 -91 1772 -91 
Q 1169 -91 856 284 
Q 544 659 544 1381 
z
M 1991 3584 
L 1991 3584 
z
" transform="scale(0.015625)"/>
       <path id="DejaVuSans-72" d="M 2631 2963 
Q 2534 3019 2420 3045 
Q 2306 3072 2169 3072 
Q 1681 3072 1420 2755 
Q 1159 2438 1159 1844 
L 1159 0 
L 581 0 
L 581 3500 
L 1159 3500 
L 1159 2956 
Q 1341 3275 1631 3429 
Q 1922 3584 2338 3584 
Q 2397 3584 2469 3576 
Q 2541 3569 2628 3553 
L 2631 2963 
z
" transform="scale(0.015625)"/>
       <path id="DejaVuSans-61" d="M 2194 1759 
Q 1497 1759 1228 1600 
Q 959 1441 959 1056 
Q 959 750 1161 570 
Q 1363 391 1709 391 
Q 2188 391 2477 730 
Q 2766 1069 2766 1631 
L 2766 1759 
L 2194 1759 
z
M 3341 1997 
L 3341 0 
L 2766 0 
L 2766 531 
Q 2569 213 2275 61 
Q 1981 -91 1556 -91 
Q 1019 -91 701 211 
Q 384 513 384 1019 
Q 384 1609 779 1909 
Q 1175 2209 1959 2209 
L 2766 2209 
L 2766 2266 
Q 2766 2663 2505 2880 
Q 2244 3097 1772 3097 
Q 1472 3097 1187 3025 
Q 903 2953 641 2809 
L 641 3341 
Q 956 3463 1253 3523 
Q 1550 3584 1831 3584 
Q 2591 3584 2966 3190 
Q 3341 2797 3341 1997 
z
" transform="scale(0.015625)"/>
       <path id="DejaVuSans-79" d="M 2059 -325 
Q 1816 -950 1584 -1140 
Q 1353 -1331 966 -1331 
L 506 -1331 
L 506 -850 
L 844 -850 
Q 1081 -850 1212 -737 
Q 1344 -625 1503 -206 
L 1606 56 
L 191 3500 
L 800 3500 
L 1894 763 
L 2988 3500 
L 3597 3500 
L 2059 -325 
z
" transform="scale(0.015625)"/>
      </defs>
      <use xlink:href="#DejaVuSans-41"/>
      <use xlink:href="#DejaVuSans-63" x="66.658203"/>
      <use xlink:href="#DejaVuSans-63" x="121.638672"/>
      <use xlink:href="#DejaVuSans-75" x="176.619141"/>
      <use xlink:href="#DejaVuSans-72" x="239.998047"/>
      <use xlink:href="#DejaVuSans-61" x="281.111328"/>
      <use xlink:href="#DejaVuSans-63" x="342.390625"/>
      <use xlink:href="#DejaVuSans-79" x="397.371094"/>
     </g>
    </g>
   </g>
   <g id="line2d_20">
    <path d="M 73.832727 295.488 
L 76.00433 254.940271 
L 77.090131 238.633684 
L 78.175932 225.227643 
L 80.347534 202.934183 
L 82.519137 188.635206 
L 83.604938 182.492518 
L 84.690739 174.264314 
L 86.862341 164.831543 
L 87.948142 159.635729 
L 89.033943 155.09913 
L 90.119745 151.473446 
L 91.205546 147.392304 
L 93.377148 143.131377 
L 94.462949 141.735039 
L 95.54875 173.790878 
L 96.634552 173.179605 
L 97.720353 167.923862 
L 98.806154 165.592637 
L 99.891955 161.936989 
L 100.977756 159.845479 
L 102.063557 155.506644 
L 103.149358 153.265313 
L 106.406762 144.407857 
L 107.492563 142.15454 
L 108.578364 139.439772 
L 109.664165 137.060604 
L 110.749967 134.315872 
L 112.921569 129.953065 
L 114.00737 127.466026 
L 115.093171 124.457608 
L 116.178972 122.971377 
L 117.264773 120.118773 
L 118.350575 118.308927 
L 119.436376 115.372423 
L 120.522177 112.759534 
L 121.607978 111.387168 
L 122.693779 109.589308 
L 125.951183 101.678725 
L 127.036984 101.073446 
L 128.122785 98.868071 
L 129.208586 97.142126 
L 130.294387 95.89561 
L 131.380189 95.03863 
L 132.46599 93.084956 
L 133.551791 91.592732 
L 134.637592 91.520818 
L 135.723393 92.17404 
L 136.809194 90.699795 
L 137.894995 90.909546 
L 138.980797 126.968618 
L 140.066598 129.617465 
L 141.152399 130.132851 
L 142.2382 127.28624 
L 143.324001 127.364147 
L 144.409802 126.519153 
L 145.495604 125.88391 
L 146.581405 123.954207 
L 147.667206 122.605812 
L 148.753007 121.772804 
L 149.838808 120.424409 
L 150.924609 119.98693 
L 152.01041 118.788357 
L 153.096212 116.900604 
L 155.267814 115.186644 
L 156.353615 113.688428 
L 157.439416 112.81347 
L 158.525217 112.226169 
L 159.611019 110.554159 
L 160.69682 110.212566 
L 161.782621 108.804243 
L 162.868422 108.145027 
L 163.954223 107.282055 
L 165.040024 105.68196 
L 167.211627 103.320771 
L 168.297428 102.04429 
L 169.383229 101.211282 
L 170.46903 101.055467 
L 171.554831 99.173707 
L 172.640632 98.376656 
L 173.726434 96.578797 
L 174.812235 95.829688 
L 175.898036 95.326288 
L 176.983837 94.475301 
L 178.069638 91.976276 
L 179.155439 90.705788 
L 180.24124 91.221175 
L 182.412843 88.092899 
L 184.584445 87.301841 
L 185.670246 84.431258 
L 186.756047 84.641008 
L 187.841849 82.675348 
L 188.92765 81.980176 
L 190.013451 80.919439 
L 191.099252 78.696086 
L 192.185053 79.1036 
L 193.270854 77.425598 
L 194.356656 77.215848 
L 195.442457 76.712447 
L 196.528258 74.716823 
L 197.614059 75.406002 
L 198.69986 73.3924 
L 199.785661 73.104742 
L 201.957264 70.04838 
L 203.043065 70.767524 
L 204.128866 69.62888 
L 207.386269 67.039962 
L 208.472071 66.602483 
L 209.557872 65.457845 
L 210.643673 65.595681 
L 211.729474 65.248095 
L 213.901076 63.767857 
L 216.072679 62.928856 
L 217.15848 62.62322 
L 218.244281 62.029926 
L 219.330082 62.383505 
L 220.415883 62.023933 
L 221.501684 62.695134 
L 224.759088 61.706312 
L 225.844889 100.222459 
L 226.93069 104.381508 
L 228.016491 105.32838 
L 229.102292 104.848951 
L 230.188094 105.334373 
L 231.273895 104.435444 
L 232.359696 103.806193 
L 233.445497 103.494564 
L 234.531298 103.392685 
L 235.617099 102.787405 
L 236.702901 102.014326 
L 237.788702 101.798583 
L 238.874503 100.761817 
L 239.960304 100.306359 
L 241.046105 100.450188 
L 242.131906 99.167715 
L 243.217708 99.497322 
L 244.303509 98.124956 
L 245.38931 98.083006 
L 247.560912 96.776561 
L 248.646713 96.560818 
L 249.732514 96.674683 
L 250.818316 95.092566 
L 251.904117 95.24838 
L 252.989918 95.182459 
L 254.075719 94.127715 
L 255.16152 93.300699 
L 257.333123 93.480485 
L 258.418924 92.371805 
L 259.504725 91.706597 
L 260.590526 91.904361 
L 261.676327 90.705788 
L 262.762128 91.862411 
L 263.847929 90.394159 
L 264.933731 90.064552 
L 266.019532 89.99863 
L 267.105333 88.710164 
L 268.191134 89.075729 
L 269.276935 87.889141 
L 270.362736 87.463648 
L 272.534339 87.241912 
L 273.62014 85.785646 
L 274.705941 85.833589 
L 275.791742 85.743696 
L 276.877543 84.808809 
L 279.049146 85.048523 
L 280.134947 83.346549 
L 282.306549 83.430449 
L 283.39235 82.459605 
L 284.478151 82.381698 
L 285.563953 81.680533 
L 286.649754 81.476775 
L 287.735555 80.793589 
L 289.907157 80.194302 
L 290.992958 80.074445 
L 292.07876 79.397251 
L 293.164561 78.869879 
L 294.250362 78.144742 
L 295.336163 78.150735 
L 296.421964 77.653327 
L 297.507765 77.509498 
L 298.593566 76.011282 
L 299.679368 76.658511 
L 301.85097 75.022459 
L 302.936771 75.837489 
L 304.022572 75.262174 
L 305.108373 73.668071 
L 307.279976 73.566193 
L 310.537379 72.187834 
L 311.62318 71.966098 
L 312.708981 71.570568 
L 313.794783 70.012423 
L 314.880584 70.713589 
L 315.966385 69.538987 
L 317.052186 69.634873 
L 318.137987 69.293279 
L 319.223788 68.72995 
L 320.30959 68.616086 
L 321.395391 68.040771 
L 322.481192 67.639249 
L 323.566993 67.357584 
L 324.652794 67.465455 
L 325.738595 66.530568 
L 326.824396 66.027168 
L 327.910198 66.009189 
L 331.167601 64.121436 
L 332.253402 63.809807 
L 333.339203 63.324385 
L 335.510806 62.83297 
L 336.596607 62.239677 
L 337.682408 62.227691 
L 338.768209 61.502554 
L 339.85401 61.538511 
L 340.939811 60.471781 
L 342.025613 60.519724 
L 343.111414 59.896466 
L 344.197215 60.262031 
L 345.283016 59.59083 
L 346.368817 59.357108 
L 347.454618 59.33913 
L 348.54042 58.098606 
L 349.626221 58.170521 
L 351.797823 57.127762 
L 352.883624 56.480533 
L 353.969425 56.882055 
L 355.055227 56.252804 
L 357.226829 56.234825 
L 358.31263 55.935182 
L 361.570033 54.496894 
L 362.655835 54.227215 
L 363.741636 54.179272 
L 364.827437 53.645907 
L 365.913238 53.568 
L 366.999039 53.603957 
L 368.08484 54.275158 
L 370.256443 55.132138 
L 372.428045 57.301555 
L 373.513846 57.439391 
L 374.599647 57.271591 
L 376.77125 57.715063 
L 377.857051 58.248428 
L 378.942852 58.032685 
L 380.028653 57.49932 
L 381.114454 58.434207 
L 382.200255 57.283577 
L 383.286057 57.673113 
L 384.371858 57.397441 
L 385.457659 56.864076 
L 386.54346 57.763006 
L 387.629261 57.613184 
L 388.715062 57.127762 
L 389.800863 57.607191 
L 390.886665 57.439391 
L 391.972466 57.70907 
L 393.058267 57.66712 
L 394.144068 57.103791 
L 395.229869 57.607191 
L 396.31567 58.242435 
L 398.487273 57.439391 
L 398.487273 57.439391 
" clip-path="url(#pb072ea43f1)" style="fill: none; stroke: #1f77b4; stroke-width: 1.5; stroke-linecap: square"/>
   </g>
   <g id="line2d_21">
    <path d="M 73.832727 284.107548 
L 74.918528 257.738939 
L 76.00433 238.711591 
L 77.090131 230.081864 
L 78.175932 202.724433 
L 79.261733 189.090663 
L 81.433335 170.332994 
L 82.519137 164.879486 
L 83.604938 160.714445 
L 84.690739 154.0324 
L 85.77654 142.076633 
L 86.862341 144.6236 
L 87.948142 137.192447 
L 89.033943 128.892328 
L 90.119745 127.24429 
L 91.205546 127.484005 
L 92.291347 123.079249 
L 93.377148 122.390069 
L 94.462949 121.071639 
L 95.54875 153.882578 
L 96.634552 156.159867 
L 97.720353 144.983172 
L 98.806154 145.10303 
L 99.891955 137.522055 
L 100.977756 133.446906 
L 102.063557 136.203624 
L 103.149358 126.34536 
L 104.23516 126.615039 
L 105.320961 131.079724 
L 106.406762 123.408856 
L 107.492563 119.992923 
L 108.578364 117.625741 
L 109.664165 119.034064 
L 110.749967 114.869023 
L 111.835768 114.000057 
L 112.921569 112.441912 
L 114.00737 112.202197 
L 115.093171 109.775087 
L 116.178972 106.838583 
L 117.264773 106.389118 
L 118.350575 107.947263 
L 119.436376 102.913256 
L 120.522177 102.643577 
L 121.607978 99.916823 
L 122.693779 99.167715 
L 123.77958 97.879249 
L 124.865382 98.418606 
L 125.951183 97.070212 
L 127.036984 94.732994 
L 129.208586 95.332281 
L 130.294387 91.946312 
L 131.380189 92.995063 
L 132.46599 91.526811 
L 133.551791 91.646668 
L 134.637592 92.305883 
L 135.723393 92.036205 
L 136.809194 91.616704 
L 137.894995 91.886383 
L 138.980797 115.947738 
L 140.066598 114.539415 
L 141.152399 116.756775 
L 142.2382 112.381983 
L 143.324001 118.015277 
L 144.409802 110.733945 
L 145.495604 116.726811 
L 146.581405 109.715158 
L 147.667206 108.127049 
L 148.753007 107.587691 
L 149.838808 109.325622 
L 150.924609 108.516585 
L 152.01041 103.932043 
L 153.096212 106.808618 
L 154.182013 102.433826 
L 155.267814 106.928476 
L 156.353615 106.089474 
L 157.439416 100.72586 
L 158.525217 103.6324 
L 159.611019 105.84976 
L 160.69682 104.621222 
L 161.782621 99.886859 
L 162.868422 100.426216 
L 163.954223 99.107786 
L 165.040024 103.782221 
L 166.125825 98.178892 
L 167.211627 96.351068 
L 168.297428 96.740604 
L 169.383229 98.538464 
L 170.46903 98.268785 
L 171.554831 96.23121 
L 172.640632 99.737037 
L 173.726434 96.111353 
L 174.812235 94.073779 
L 175.898036 97.160105 
L 178.069638 91.646668 
L 179.155439 92.365812 
L 181.327042 90.537988 
L 182.412843 90.957489 
L 183.498644 91.766526 
L 184.584445 91.376989 
L 186.756047 90.20838 
L 187.841849 88.230735 
L 188.92765 88.590307 
L 190.013451 86.792447 
L 191.099252 87.391734 
L 192.185053 84.904694 
L 193.270854 84.66498 
L 194.356656 85.863553 
L 195.442457 84.185551 
L 196.528258 84.335372 
L 197.614059 86.402911 
L 198.69986 86.103268 
L 199.785661 84.784837 
L 200.871462 84.814801 
L 201.957264 82.717298 
L 203.043065 81.96819 
L 204.128866 82.86712 
L 206.300468 81.728476 
L 207.386269 82.058083 
L 208.472071 81.54869 
L 209.557872 80.889474 
L 210.643673 81.848333 
L 211.729474 80.979367 
L 213.901076 80.350117 
L 214.986877 79.990545 
L 216.072679 81.039296 
L 217.15848 80.200295 
L 218.244281 80.529902 
L 219.330082 80.679724 
L 220.415883 79.361294 
L 221.501684 80.140366 
L 222.587486 79.06165 
L 223.673287 79.900652 
L 224.759088 79.780794 
L 225.844889 103.902078 
L 226.93069 105.64001 
L 228.016491 103.123006 
L 229.102292 103.362721 
L 230.188094 104.621222 
L 231.273895 99.707073 
L 232.359696 101.534897 
L 233.445497 101.415039 
L 234.531298 105.550117 
L 235.617099 100.576038 
L 236.702901 103.6324 
L 237.788702 97.429784 
L 238.874503 101.265218 
L 239.960304 101.564861 
L 241.046105 100.695895 
L 242.131906 102.643577 
L 243.217708 102.703505 
L 244.303509 102.493755 
L 245.38931 98.388642 
L 246.475111 99.61718 
L 247.560912 101.025503 
L 248.646713 97.13014 
L 249.732514 101.055467 
L 250.818316 97.040247 
L 251.904117 103.003149 
L 252.989918 99.856894 
L 254.075719 98.328713 
L 255.16152 98.508499 
L 256.247321 96.71064 
L 257.333123 98.987929 
L 258.418924 101.774611 
L 259.504725 99.437394 
L 260.590526 96.590782 
L 261.676327 97.399819 
L 262.762128 94.103743 
L 263.847929 97.909213 
L 264.933731 96.680675 
L 266.019532 96.470925 
L 267.105333 96.890426 
L 268.191134 94.253565 
L 269.276935 95.092566 
L 272.534339 94.283529 
L 273.62014 93.204813 
L 274.705941 90.028595 
L 275.791742 92.335848 
L 276.877543 92.995063 
L 277.963344 91.976276 
L 279.049146 94.732994 
L 280.134947 94.433351 
L 281.220748 93.504457 
L 282.306549 90.837631 
L 284.478151 95.242388 
L 285.563953 93.983886 
L 287.735555 92.21599 
L 288.821356 93.264742 
L 289.907157 91.406954 
L 290.992958 94.193636 
L 292.07876 91.616704 
L 293.164561 91.017417 
L 294.250362 89.159629 
L 295.336163 89.669023 
L 296.421964 97.429784 
L 297.507765 90.298273 
L 298.593566 89.0997 
L 299.679368 89.78888 
L 300.765169 87.631448 
L 301.85097 91.376989 
L 302.936771 88.919914 
L 304.022572 86.822411 
L 306.194175 89.189593 
L 307.279976 89.459272 
L 308.365777 88.020985 
L 309.451578 91.79649 
L 310.537379 87.901127 
L 311.62318 85.503981 
L 312.708981 88.080913 
L 313.794783 89.309451 
L 314.880584 89.249522 
L 315.966385 86.642625 
L 317.052186 86.402911 
L 318.137987 85.683767 
L 319.223788 85.444052 
L 320.30959 86.043339 
L 321.395391 84.335372 
L 322.481192 85.354159 
L 323.566993 84.635015 
L 324.652794 84.904694 
L 325.738595 86.253089 
L 326.824396 85.324195 
L 327.910198 83.736086 
L 328.995999 80.979367 
L 330.0818 83.676157 
L 331.167601 82.777227 
L 332.253402 83.915872 
L 333.339203 84.245479 
L 334.425005 82.237869 
L 335.510806 84.335372 
L 336.596607 80.469974 
L 337.682408 80.589831 
L 338.768209 82.147976 
L 339.85401 80.350117 
L 340.939811 79.96058 
L 342.025613 81.06926 
L 343.111414 80.979367 
L 344.197215 79.481151 
L 345.283016 81.96819 
L 346.368817 80.020509 
L 347.454618 79.630973 
L 348.54042 79.840723 
L 349.626221 79.241436 
L 350.712022 80.260224 
L 351.797823 80.320152 
L 352.883624 81.129189 
L 353.969425 77.563434 
L 355.055227 78.012899 
L 356.141028 77.593398 
L 357.226829 78.402435 
L 358.31263 77.143933 
L 359.398431 76.964147 
L 361.570033 78.342507 
L 362.655835 79.331329 
L 363.741636 76.994112 
L 365.913238 77.293755 
L 368.08484 78.222649 
L 369.170642 79.690901 
L 370.256443 77.863077 
L 371.342244 79.601008 
L 372.428045 79.870687 
L 373.513846 79.660937 
L 374.599647 82.777227 
L 375.685448 80.020509 
L 376.77125 78.971757 
L 377.857051 80.64976 
L 378.942852 82.747263 
L 380.028653 81.189118 
L 382.200255 79.96058 
L 383.286057 79.241436 
L 384.371858 81.099225 
L 385.457659 81.189118 
L 386.54346 80.290188 
L 387.629261 79.930616 
L 388.715062 78.672114 
L 389.800863 79.870687 
L 390.886665 79.301365 
L 391.972466 80.739653 
L 393.058267 79.630973 
L 394.144068 79.301365 
L 395.229869 81.54869 
L 396.31567 80.85951 
L 397.401472 79.96058 
L 398.487273 80.110402 
L 398.487273 80.110402 
" clip-path="url(#pb072ea43f1)" style="fill: none; stroke: #ff7f0e; stroke-width: 1.5; stroke-linecap: square"/>
   </g>
   <g id="line2d_22">
    <path d="M 73.832727 290.542687 
L 74.918528 270.001541 
L 76.00433 260.61971 
L 77.090131 249.956604 
L 78.175932 232.225812 
L 79.261733 223.153812 
L 80.347534 217.450402 
L 81.433335 213.792656 
L 83.604938 203.273979 
L 84.690739 202.364861 
L 85.77654 194.636162 
L 86.862341 198.066478 
L 87.948142 192.032262 
L 89.033943 184.655044 
L 90.119745 183.435795 
L 91.205546 183.600899 
L 92.291347 181.100376 
L 93.377148 180.563115 
L 94.462949 179.158088 
L 95.54875 203.955967 
L 96.634552 207.820466 
L 97.720353 194.842916 
L 98.806154 200.938859 
L 99.891955 190.172376 
L 100.977756 192.879653 
L 102.063557 194.739539 
L 103.149358 183.64225 
L 104.23516 185.275006 
L 105.320961 187.672152 
L 106.406762 182.485027 
L 107.492563 181.741013 
L 108.578364 179.158088 
L 109.664165 174.239743 
L 110.749967 175.314264 
L 111.835768 172.627962 
L 112.921569 172.317831 
L 114.00737 171.036556 
L 115.093171 169.218021 
L 116.178972 166.221589 
L 117.264773 165.312471 
L 118.350575 174.053665 
L 119.436376 165.953108 
L 120.522177 165.725679 
L 121.607978 161.613375 
L 122.693779 161.055439 
L 123.77958 161.13814 
L 124.865382 159.650112 
L 125.951183 162.811948 
L 127.036984 157.356342 
L 128.122785 157.934954 
L 129.208586 158.245084 
L 130.294387 154.173831 
L 131.380189 156.19912 
L 133.551791 154.463287 
L 134.637592 154.62869 
L 135.723393 154.194507 
L 137.894995 153.967377 
L 138.980797 178.186644 
L 140.066598 179.798725 
L 141.152399 175.479667 
L 142.2382 173.743834 
L 143.324001 181.245103 
L 144.409802 175.810174 
L 145.495604 180.521765 
L 146.581405 169.94136 
L 147.667206 175.210887 
L 148.753007 170.024062 
L 149.838808 169.13532 
L 150.924609 172.793065 
L 152.01041 168.412281 
L 153.096212 169.631529 
L 154.182013 167.87502 
L 155.267814 168.040124 
L 156.353615 164.816561 
L 157.439416 164.258625 
L 158.525217 161.79936 
L 160.69682 174.074402 
L 161.782621 165.415744 
L 162.868422 165.353749 
L 165.040024 168.453507 
L 166.125825 161.282734 
L 167.211627 156.695092 
L 168.297428 160.786772 
L 169.383229 159.360884 
L 170.46903 160.952093 
L 171.554831 158.244971 
L 172.640632 166.510992 
L 173.726434 163.307909 
L 174.812235 156.137135 
L 175.898036 159.402214 
L 176.983837 156.364451 
L 178.069638 155.041887 
L 179.155439 156.261126 
L 181.327042 154.876567 
L 182.412843 153.326688 
L 183.498644 154.15329 
L 184.584445 153.223363 
L 185.670246 155.496519 
L 186.756047 154.545926 
L 187.841849 150.123605 
L 188.92765 151.549493 
L 190.013451 152.396761 
L 191.099252 150.950207 
L 192.185053 150.061609 
L 193.270854 147.726458 
L 194.356656 149.090352 
L 195.442457 147.003181 
L 196.528258 147.416483 
L 197.614059 150.743556 
L 198.69986 146.527885 
L 199.785661 146.941186 
L 200.871462 145.453302 
L 201.957264 144.523375 
L 203.043065 145.866603 
L 204.128866 142.353544 
L 205.214667 145.081331 
L 206.300468 144.048079 
L 207.386269 144.027414 
L 208.472071 141.795588 
L 209.557872 143.676108 
L 210.643673 143.386797 
L 211.729474 143.324802 
L 212.815275 142.70485 
L 213.901076 141.919578 
L 216.072679 142.62219 
L 217.15848 142.270884 
L 218.244281 141.650932 
L 219.330082 142.188224 
L 220.415883 141.630267 
L 221.501684 142.084899 
L 222.587486 140.86566 
L 223.673287 142.45687 
L 224.759088 141.216966 
L 225.844889 172.007897 
L 226.93069 165.353749 
L 228.016491 168.060871 
L 229.102292 162.109336 
L 230.188094 163.204584 
L 231.273895 163.452564 
L 232.359696 168.949469 
L 233.445497 165.415744 
L 234.531298 169.652081 
L 236.702901 162.956603 
L 237.788702 161.324064 
L 238.874503 163.927861 
L 239.960304 165.002443 
L 241.046105 167.027619 
L 242.131906 167.6889 
L 243.217708 163.948526 
L 244.303509 166.593653 
L 245.38931 160.869433 
L 246.475111 164.196506 
L 247.560912 170.313362 
L 248.646713 162.543302 
L 249.732514 163.76254 
L 250.818316 157.439034 
L 251.904117 166.159686 
L 254.075719 164.568477 
L 255.16152 161.034753 
L 256.247321 158.286301 
L 257.333123 168.598163 
L 258.418924 162.398647 
L 259.504725 165.291754 
L 260.590526 162.605297 
L 261.676327 164.609807 
L 262.762128 157.852335 
L 263.847929 156.881077 
L 264.933731 159.815515 
L 266.019532 157.253048 
L 267.105333 159.278223 
L 268.191134 155.310533 
L 269.276935 161.365394 
L 270.362736 157.645684 
L 271.448538 154.649251 
L 272.534339 159.75352 
L 273.62014 157.005068 
L 274.705941 155.641174 
L 275.791742 161.406724 
L 276.877543 157.356373 
L 277.963344 154.545926 
L 279.049146 155.579179 
L 280.134947 160.724777 
L 281.220748 157.356373 
L 282.306549 152.603411 
L 283.39235 157.149723 
L 284.478151 157.459699 
L 285.563953 154.318611 
L 286.649754 157.91433 
L 287.735555 154.979892 
L 288.821356 154.0293 
L 289.907157 154.11196 
L 290.992958 158.12098 
L 292.07876 157.95566 
L 293.164561 155.413858 
L 294.250362 153.863979 
L 295.336163 155.475854 
L 296.421964 160.910763 
L 298.593566 150.619566 
L 299.679368 151.322178 
L 300.765169 151.136192 
L 301.85097 154.0293 
L 302.936771 151.942129 
L 304.022572 147.313157 
L 305.108373 149.338333 
L 306.194175 153.078707 
L 307.279976 147.891779 
L 308.365777 149.978949 
L 309.451578 153.595334 
L 310.537379 147.809119 
L 311.62318 144.172069 
L 312.708981 150.14427 
L 313.794783 147.933109 
L 314.880584 154.15329 
L 315.966385 145.659953 
L 317.052186 146.610545 
L 318.137987 145.391307 
L 319.223788 147.478478 
L 320.30959 147.127172 
L 321.395391 141.320292 
L 322.481192 147.953774 
L 323.566993 144.46138 
L 324.652794 147.995104 
L 325.738595 146.920521 
L 326.824396 147.581803 
L 327.910198 146.651876 
L 328.995999 143.510787 
L 330.0818 144.936676 
L 331.167601 142.560195 
L 332.253402 145.494632 
L 333.339203 143.200812 
L 334.425005 142.002238 
L 335.510806 146.755201 
L 336.596607 138.117208 
L 337.682408 137.600582 
L 338.768209 141.464947 
L 339.85401 141.258296 
L 340.939811 138.220534 
L 342.025613 140.328369 
L 343.111414 141.464947 
L 344.197215 138.530509 
L 345.283016 143.221477 
L 346.368817 139.729082 
L 347.454618 137.290606 
L 348.54042 135.596072 
L 349.626221 140.349034 
L 350.712022 138.447849 
L 351.797823 142.642855 
L 352.883624 138.385854 
L 353.969425 135.265431 
L 355.055227 136.112698 
L 356.141028 137.414596 
L 357.226829 139.212456 
L 358.31263 134.831465 
L 359.398431 134.8108 
L 360.484232 135.906047 
L 361.570033 136.505334 
L 362.655835 138.73716 
L 363.741636 137.683242 
L 364.827437 134.604149 
L 365.913238 134.604149 
L 366.999039 136.360679 
L 368.08484 135.348091 
L 369.170642 139.191791 
L 370.256443 138.117208 
L 371.342244 140.721005 
L 372.428045 138.716495 
L 373.513846 137.889893 
L 374.599647 143.862093 
L 375.685448 142.084899 
L 376.77125 137.497257 
L 377.857051 137.889893 
L 378.942852 142.849506 
L 380.028653 143.056156 
L 381.114454 140.059723 
L 382.200255 141.547607 
L 383.286057 137.559252 
L 384.371858 141.919578 
L 385.457659 139.749748 
L 386.54346 139.067801 
L 387.629261 140.349034 
L 388.715062 137.703907 
L 389.800863 140.369699 
L 390.886665 139.253786 
L 391.972466 138.6545 
L 393.058267 139.522432 
L 394.144068 140.70034 
L 395.229869 140.927656 
L 396.31567 141.547607 
L 397.401472 141.568272 
L 398.487273 142.126229 
L 398.487273 142.126229 
" clip-path="url(#pb072ea43f1)" style="fill: none; stroke: #2ca02c; stroke-width: 1.5; stroke-linecap: square"/>
   </g>
   <g id="line2d_23">
    <path d="M 368.08484 78.192685 
L 369.170642 77.024076 
L 370.256443 78.702078 
L 371.342244 80.85951 
L 372.428045 80.799581 
L 373.513846 79.391258 
L 374.599647 80.85951 
L 375.685448 79.870687 
L 376.77125 81.96819 
L 377.857051 85.533945 
L 378.942852 81.878297 
L 380.028653 81.938226 
L 381.114454 82.387691 
L 382.200255 83.526335 
L 383.286057 81.279011 
M 385.457659 83.706121 
L 386.54346 84.275444 
L 387.629261 83.136799 
L 388.715062 85.384124 
L 389.800863 83.9758 
L 390.886665 84.455229 
L 393.058267 84.035729 
L 394.144068 84.305408 
L 395.229869 82.237869 
L 396.31567 83.586264 
L 397.401472 87.152019 
L 398.487273 84.934659 
L 398.487273 84.934659 
" clip-path="url(#pb072ea43f1)" style="fill: none; stroke: #d62728; stroke-width: 1.5; stroke-linecap: square"/>
   </g>
   <g id="line2d_24">
    <path d="M 368.08484 134.314838 
L 369.170642 134.707474 
L 370.256443 138.6545 
L 371.342244 140.803665 
L 372.428045 140.57635 
L 373.513846 136.484669 
L 374.599647 139.253786 
L 375.685448 139.047136 
L 376.77125 143.448792 
L 377.857051 144.58537 
L 378.942852 142.911501 
L 380.028653 140.080388 
L 381.114454 140.783 
L 382.200255 142.208889 
L 383.286057 140.349034 
L 385.457659 138.633835 
L 386.54346 142.725515 
L 387.629261 138.447849 
L 388.715062 143.531452 
L 389.800863 141.774923 
L 390.886665 139.315781 
L 391.972466 142.043568 
L 394.144068 138.261864 
L 395.229869 137.765902 
L 396.31567 136.298684 
L 397.401472 142.518865 
L 398.487273 138.77849 
L 398.487273 138.77849 
" clip-path="url(#pb072ea43f1)" style="fill: none; stroke: #9467bd; stroke-width: 1.5; stroke-linecap: square"/>
   </g>
   <g id="patch_3">
    <path d="M 57.6 307.584 
L 57.6 41.472 
" style="fill: none; stroke: #000000; stroke-width: 0.8; stroke-linejoin: miter; stroke-linecap: square"/>
   </g>
   <g id="patch_4">
    <path d="M 414.72 307.584 
L 414.72 41.472 
" style="fill: none; stroke: #000000; stroke-width: 0.8; stroke-linejoin: miter; stroke-linecap: square"/>
   </g>
   <g id="patch_5">
    <path d="M 57.6 307.584 
L 414.72 307.584 
" style="fill: none; stroke: #000000; stroke-width: 0.8; stroke-linejoin: miter; stroke-linecap: square"/>
   </g>
   <g id="patch_6">
    <path d="M 57.6 41.472 
L 414.72 41.472 
" style="fill: none; stroke: #000000; stroke-width: 0.8; stroke-linejoin: miter; stroke-linecap: square"/>
   </g>
   <g id="text_22">
    <!-- Learning Curves -->
    <g transform="translate(187.37625 35.472) scale(0.12 -0.12)">
     <defs>
      <path id="DejaVuSans-4c" d="M 628 4666 
L 1259 4666 
L 1259 531 
L 3531 531 
L 3531 0 
L 628 0 
L 628 4666 
z
" transform="scale(0.015625)"/>
      <path id="DejaVuSans-65" d="M 3597 1894 
L 3597 1613 
L 953 1613 
Q 991 1019 1311 708 
Q 1631 397 2203 397 
Q 2534 397 2845 478 
Q 3156 559 3463 722 
L 3463 178 
Q 3153 47 2828 -22 
Q 2503 -91 2169 -91 
Q 1331 -91 842 396 
Q 353 884 353 1716 
Q 353 2575 817 3079 
Q 1281 3584 2069 3584 
Q 2775 3584 3186 3129 
Q 3597 2675 3597 1894 
z
M 3022 2063 
Q 3016 2534 2758 2815 
Q 2500 3097 2075 3097 
Q 1594 3097 1305 2825 
Q 1016 2553 972 2059 
L 3022 2063 
z
" transform="scale(0.015625)"/>
      <path id="DejaVuSans-6e" d="M 3513 2113 
L 3513 0 
L 2938 0 
L 2938 2094 
Q 2938 2591 2744 2837 
Q 2550 3084 2163 3084 
Q 1697 3084 1428 2787 
Q 1159 2491 1159 1978 
L 1159 0 
L 581 0 
L 581 3500 
L 1159 3500 
L 1159 2956 
Q 1366 3272 1645 3428 
Q 1925 3584 2291 3584 
Q 2894 3584 3203 3211 
Q 3513 2838 3513 2113 
z
" transform="scale(0.015625)"/>
      <path id="DejaVuSans-69" d="M 603 3500 
L 1178 3500 
L 1178 0 
L 603 0 
L 603 3500 
z
M 603 4863 
L 1178 4863 
L 1178 4134 
L 603 4134 
L 603 4863 
z
" transform="scale(0.015625)"/>
      <path id="DejaVuSans-67" d="M 2906 1791 
Q 2906 2416 2648 2759 
Q 2391 3103 1925 3103 
Q 1463 3103 1205 2759 
Q 947 2416 947 1791 
Q 947 1169 1205 825 
Q 1463 481 1925 481 
Q 2391 481 2648 825 
Q 2906 1169 2906 1791 
z
M 3481 434 
Q 3481 -459 3084 -895 
Q 2688 -1331 1869 -1331 
Q 1566 -1331 1297 -1286 
Q 1028 -1241 775 -1147 
L 775 -588 
Q 1028 -725 1275 -790 
Q 1522 -856 1778 -856 
Q 2344 -856 2625 -561 
Q 2906 -266 2906 331 
L 2906 616 
Q 2728 306 2450 153 
Q 2172 0 1784 0 
Q 1141 0 747 490 
Q 353 981 353 1791 
Q 353 2603 747 3093 
Q 1141 3584 1784 3584 
Q 2172 3584 2450 3431 
Q 2728 3278 2906 2969 
L 2906 3500 
L 3481 3500 
L 3481 434 
z
" transform="scale(0.015625)"/>
      <path id="DejaVuSans-20" transform="scale(0.015625)"/>
      <path id="DejaVuSans-43" d="M 4122 4306 
L 4122 3641 
Q 3803 3938 3442 4084 
Q 3081 4231 2675 4231 
Q 1875 4231 1450 3742 
Q 1025 3253 1025 2328 
Q 1025 1406 1450 917 
Q 1875 428 2675 428 
Q 3081 428 3442 575 
Q 3803 722 4122 1019 
L 4122 359 
Q 3791 134 3420 21 
Q 3050 -91 2638 -91 
Q 1578 -91 968 557 
Q 359 1206 359 2328 
Q 359 3453 968 4101 
Q 1578 4750 2638 4750 
Q 3056 4750 3426 4639 
Q 3797 4528 4122 4306 
z
" transform="scale(0.015625)"/>
      <path id="DejaVuSans-76" d="M 191 3500 
L 800 3500 
L 1894 563 
L 2988 3500 
L 3597 3500 
L 2284 0 
L 1503 0 
L 191 3500 
z
" transform="scale(0.015625)"/>
     </defs>
     <use xlink:href="#DejaVuSans-4c"/>
     <use xlink:href="#DejaVuSans-65" x="53.962891"/>
     <use xlink:href="#DejaVuSans-61" x="115.486328"/>
     <use xlink:href="#DejaVuSans-72" x="176.765625"/>
     <use xlink:href="#DejaVuSans-6e" x="216.128906"/>
     <use xlink:href="#DejaVuSans-69" x="279.507812"/>
     <use xlink:href="#DejaVuSans-6e" x="307.291016"/>
     <use xlink:href="#DejaVuSans-67" x="370.669922"/>
     <use xlink:href="#DejaVuSans-20" x="434.146484"/>
     <use xlink:href="#DejaVuSans-43" x="465.933594"/>
     <use xlink:href="#DejaVuSans-75" x="535.757812"/>
     <use xlink:href="#DejaVuSans-72" x="599.136719"/>
     <use xlink:href="#DejaVuSans-76" x="640.25"/>
     <use xlink:href="#DejaVuSans-65" x="699.429688"/>
     <use xlink:href="#DejaVuSans-73" x="760.953125"/>
    </g>
   </g>
   <g id="legend_1">
    <g id="patch_7">
     <path d="M 214.18875 302.584 
L 407.72 302.584 
Q 409.72 302.584 409.72 300.584 
L 409.72 228.193375 
Q 409.72 226.193375 407.72 226.193375 
L 214.18875 226.193375 
Q 212.18875 226.193375 212.18875 228.193375 
L 212.18875 300.584 
Q 212.18875 302.584 214.18875 302.584 
z
" style="fill: #ffffff; opacity: 0.8; stroke: #cccccc; stroke-linejoin: miter"/>
    </g>
    <g id="line2d_25">
     <path d="M 216.18875 234.291812 
L 226.18875 234.291812 
L 236.18875 234.291812 
" style="fill: none; stroke: #1f77b4; stroke-width: 1.5; stroke-linecap: square"/>
    </g>
    <g id="text_23">
     <!-- Train Accuracy -->
     <g transform="translate(244.18875 237.791812) scale(0.1 -0.1)">
      <defs>
       <path id="DejaVuSans-54" d="M -19 4666 
L 3928 4666 
L 3928 4134 
L 2272 4134 
L 2272 0 
L 1638 0 
L 1638 4134 
L -19 4134 
L -19 4666 
z
" transform="scale(0.015625)"/>
      </defs>
      <use xlink:href="#DejaVuSans-54"/>
      <use xlink:href="#DejaVuSans-72" x="46.333984"/>
      <use xlink:href="#DejaVuSans-61" x="87.447266"/>
      <use xlink:href="#DejaVuSans-69" x="148.726562"/>
      <use xlink:href="#DejaVuSans-6e" x="176.509766"/>
      <use xlink:href="#DejaVuSans-20" x="239.888672"/>
      <use xlink:href="#DejaVuSans-41" x="271.675781"/>
      <use xlink:href="#DejaVuSans-63" x="338.333984"/>
      <use xlink:href="#DejaVuSans-63" x="393.314453"/>
      <use xlink:href="#DejaVuSans-75" x="448.294922"/>
      <use xlink:href="#DejaVuSans-72" x="511.673828"/>
      <use xlink:href="#DejaVuSans-61" x="552.787109"/>
      <use xlink:href="#DejaVuSans-63" x="614.066406"/>
      <use xlink:href="#DejaVuSans-79" x="669.046875"/>
     </g>
    </g>
    <g id="line2d_26">
     <path d="M 216.18875 248.969937 
L 226.18875 248.969937 
L 236.18875 248.969937 
" style="fill: none; stroke: #ff7f0e; stroke-width: 1.5; stroke-linecap: square"/>
    </g>
    <g id="text_24">
     <!-- Validation Accuracy -->
     <g transform="translate(244.18875 252.469937) scale(0.1 -0.1)">
      <defs>
       <path id="DejaVuSans-56" d="M 1831 0 
L 50 4666 
L 709 4666 
L 2188 738 
L 3669 4666 
L 4325 4666 
L 2547 0 
L 1831 0 
z
" transform="scale(0.015625)"/>
       <path id="DejaVuSans-6c" d="M 603 4863 
L 1178 4863 
L 1178 0 
L 603 0 
L 603 4863 
z
" transform="scale(0.015625)"/>
       <path id="DejaVuSans-64" d="M 2906 2969 
L 2906 4863 
L 3481 4863 
L 3481 0 
L 2906 0 
L 2906 525 
Q 2725 213 2448 61 
Q 2172 -91 1784 -91 
Q 1150 -91 751 415 
Q 353 922 353 1747 
Q 353 2572 751 3078 
Q 1150 3584 1784 3584 
Q 2172 3584 2448 3432 
Q 2725 3281 2906 2969 
z
M 947 1747 
Q 947 1113 1208 752 
Q 1469 391 1925 391 
Q 2381 391 2643 752 
Q 2906 1113 2906 1747 
Q 2906 2381 2643 2742 
Q 2381 3103 1925 3103 
Q 1469 3103 1208 2742 
Q 947 2381 947 1747 
z
" transform="scale(0.015625)"/>
       <path id="DejaVuSans-74" d="M 1172 4494 
L 1172 3500 
L 2356 3500 
L 2356 3053 
L 1172 3053 
L 1172 1153 
Q 1172 725 1289 603 
Q 1406 481 1766 481 
L 2356 481 
L 2356 0 
L 1766 0 
Q 1100 0 847 248 
Q 594 497 594 1153 
L 594 3053 
L 172 3053 
L 172 3500 
L 594 3500 
L 594 4494 
L 1172 4494 
z
" transform="scale(0.015625)"/>
      </defs>
      <use xlink:href="#DejaVuSans-56"/>
      <use xlink:href="#DejaVuSans-61" x="60.658203"/>
      <use xlink:href="#DejaVuSans-6c" x="121.9375"/>
      <use xlink:href="#DejaVuSans-69" x="149.720703"/>
      <use xlink:href="#DejaVuSans-64" x="177.503906"/>
      <use xlink:href="#DejaVuSans-61" x="240.980469"/>
      <use xlink:href="#DejaVuSans-74" x="302.259766"/>
      <use xlink:href="#DejaVuSans-69" x="341.46875"/>
      <use xlink:href="#DejaVuSans-6f" x="369.251953"/>
      <use xlink:href="#DejaVuSans-6e" x="430.433594"/>
      <use xlink:href="#DejaVuSans-20" x="493.8125"/>
      <use xlink:href="#DejaVuSans-41" x="525.599609"/>
      <use xlink:href="#DejaVuSans-63" x="592.257812"/>
      <use xlink:href="#DejaVuSans-63" x="647.238281"/>
      <use xlink:href="#DejaVuSans-75" x="702.21875"/>
      <use xlink:href="#DejaVuSans-72" x="765.597656"/>
      <use xlink:href="#DejaVuSans-61" x="806.710938"/>
      <use xlink:href="#DejaVuSans-63" x="867.990234"/>
      <use xlink:href="#DejaVuSans-79" x="922.970703"/>
     </g>
    </g>
    <g id="line2d_27">
     <path d="M 216.18875 263.648062 
L 226.18875 263.648062 
L 236.18875 263.648062 
" style="fill: none; stroke: #2ca02c; stroke-width: 1.5; stroke-linecap: square"/>
    </g>
    <g id="text_25">
     <!-- Robust Validation Accuracy -->
     <g transform="translate(244.18875 267.148062) scale(0.1 -0.1)">
      <defs>
       <path id="DejaVuSans-52" d="M 2841 2188 
Q 3044 2119 3236 1894 
Q 3428 1669 3622 1275 
L 4263 0 
L 3584 0 
L 2988 1197 
Q 2756 1666 2539 1819 
Q 2322 1972 1947 1972 
L 1259 1972 
L 1259 0 
L 628 0 
L 628 4666 
L 2053 4666 
Q 2853 4666 3247 4331 
Q 3641 3997 3641 3322 
Q 3641 2881 3436 2590 
Q 3231 2300 2841 2188 
z
M 1259 4147 
L 1259 2491 
L 2053 2491 
Q 2509 2491 2742 2702 
Q 2975 2913 2975 3322 
Q 2975 3731 2742 3939 
Q 2509 4147 2053 4147 
L 1259 4147 
z
" transform="scale(0.015625)"/>
       <path id="DejaVuSans-62" d="M 3116 1747 
Q 3116 2381 2855 2742 
Q 2594 3103 2138 3103 
Q 1681 3103 1420 2742 
Q 1159 2381 1159 1747 
Q 1159 1113 1420 752 
Q 1681 391 2138 391 
Q 2594 391 2855 752 
Q 3116 1113 3116 1747 
z
M 1159 2969 
Q 1341 3281 1617 3432 
Q 1894 3584 2278 3584 
Q 2916 3584 3314 3078 
Q 3713 2572 3713 1747 
Q 3713 922 3314 415 
Q 2916 -91 2278 -91 
Q 1894 -91 1617 61 
Q 1341 213 1159 525 
L 1159 0 
L 581 0 
L 581 4863 
L 1159 4863 
L 1159 2969 
z
" transform="scale(0.015625)"/>
      </defs>
      <use xlink:href="#DejaVuSans-52"/>
      <use xlink:href="#DejaVuSans-6f" x="64.982422"/>
      <use xlink:href="#DejaVuSans-62" x="126.164062"/>
      <use xlink:href="#DejaVuSans-75" x="189.640625"/>
      <use xlink:href="#DejaVuSans-73" x="253.019531"/>
      <use xlink:href="#DejaVuSans-74" x="305.119141"/>
      <use xlink:href="#DejaVuSans-20" x="344.328125"/>
      <use xlink:href="#DejaVuSans-56" x="376.115234"/>
      <use xlink:href="#DejaVuSans-61" x="436.773438"/>
      <use xlink:href="#DejaVuSans-6c" x="498.052734"/>
      <use xlink:href="#DejaVuSans-69" x="525.835938"/>
      <use xlink:href="#DejaVuSans-64" x="553.619141"/>
      <use xlink:href="#DejaVuSans-61" x="617.095703"/>
      <use xlink:href="#DejaVuSans-74" x="678.375"/>
      <use xlink:href="#DejaVuSans-69" x="717.583984"/>
      <use xlink:href="#DejaVuSans-6f" x="745.367188"/>
      <use xlink:href="#DejaVuSans-6e" x="806.548828"/>
      <use xlink:href="#DejaVuSans-20" x="869.927734"/>
      <use xlink:href="#DejaVuSans-41" x="901.714844"/>
      <use xlink:href="#DejaVuSans-63" x="968.373047"/>
      <use xlink:href="#DejaVuSans-63" x="1023.353516"/>
      <use xlink:href="#DejaVuSans-75" x="1078.333984"/>
      <use xlink:href="#DejaVuSans-72" x="1141.712891"/>
      <use xlink:href="#DejaVuSans-61" x="1182.826172"/>
      <use xlink:href="#DejaVuSans-63" x="1244.105469"/>
      <use xlink:href="#DejaVuSans-79" x="1299.085938"/>
     </g>
    </g>
    <g id="line2d_28">
     <path d="M 216.18875 278.326188 
L 226.18875 278.326188 
L 236.18875 278.326188 
" style="fill: none; stroke: #d62728; stroke-width: 1.5; stroke-linecap: square"/>
    </g>
    <g id="text_26">
     <!-- SWA Validation Accuracy -->
     <g transform="translate(244.18875 281.826188) scale(0.1 -0.1)">
      <defs>
       <path id="DejaVuSans-53" d="M 3425 4513 
L 3425 3897 
Q 3066 4069 2747 4153 
Q 2428 4238 2131 4238 
Q 1616 4238 1336 4038 
Q 1056 3838 1056 3469 
Q 1056 3159 1242 3001 
Q 1428 2844 1947 2747 
L 2328 2669 
Q 3034 2534 3370 2195 
Q 3706 1856 3706 1288 
Q 3706 609 3251 259 
Q 2797 -91 1919 -91 
Q 1588 -91 1214 -16 
Q 841 59 441 206 
L 441 856 
Q 825 641 1194 531 
Q 1563 422 1919 422 
Q 2459 422 2753 634 
Q 3047 847 3047 1241 
Q 3047 1584 2836 1778 
Q 2625 1972 2144 2069 
L 1759 2144 
Q 1053 2284 737 2584 
Q 422 2884 422 3419 
Q 422 4038 858 4394 
Q 1294 4750 2059 4750 
Q 2388 4750 2728 4690 
Q 3069 4631 3425 4513 
z
" transform="scale(0.015625)"/>
       <path id="DejaVuSans-57" d="M 213 4666 
L 850 4666 
L 1831 722 
L 2809 4666 
L 3519 4666 
L 4500 722 
L 5478 4666 
L 6119 4666 
L 4947 0 
L 4153 0 
L 3169 4050 
L 2175 0 
L 1381 0 
L 213 4666 
z
" transform="scale(0.015625)"/>
      </defs>
      <use xlink:href="#DejaVuSans-53"/>
      <use xlink:href="#DejaVuSans-57" x="63.476562"/>
      <use xlink:href="#DejaVuSans-41" x="156.853516"/>
      <use xlink:href="#DejaVuSans-20" x="225.261719"/>
      <use xlink:href="#DejaVuSans-56" x="257.048828"/>
      <use xlink:href="#DejaVuSans-61" x="317.707031"/>
      <use xlink:href="#DejaVuSans-6c" x="378.986328"/>
      <use xlink:href="#DejaVuSans-69" x="406.769531"/>
      <use xlink:href="#DejaVuSans-64" x="434.552734"/>
      <use xlink:href="#DejaVuSans-61" x="498.029297"/>
      <use xlink:href="#DejaVuSans-74" x="559.308594"/>
      <use xlink:href="#DejaVuSans-69" x="598.517578"/>
      <use xlink:href="#DejaVuSans-6f" x="626.300781"/>
      <use xlink:href="#DejaVuSans-6e" x="687.482422"/>
      <use xlink:href="#DejaVuSans-20" x="750.861328"/>
      <use xlink:href="#DejaVuSans-41" x="782.648438"/>
      <use xlink:href="#DejaVuSans-63" x="849.306641"/>
      <use xlink:href="#DejaVuSans-63" x="904.287109"/>
      <use xlink:href="#DejaVuSans-75" x="959.267578"/>
      <use xlink:href="#DejaVuSans-72" x="1022.646484"/>
      <use xlink:href="#DejaVuSans-61" x="1063.759766"/>
      <use xlink:href="#DejaVuSans-63" x="1125.039062"/>
      <use xlink:href="#DejaVuSans-79" x="1180.019531"/>
     </g>
    </g>
    <g id="line2d_29">
     <path d="M 216.18875 293.004312 
L 226.18875 293.004312 
L 236.18875 293.004312 
" style="fill: none; stroke: #9467bd; stroke-width: 1.5; stroke-linecap: square"/>
    </g>
    <g id="text_27">
     <!-- SWA Robust Validation Accuracy -->
     <g transform="translate(244.18875 296.504312) scale(0.1 -0.1)">
      <use xlink:href="#DejaVuSans-53"/>
      <use xlink:href="#DejaVuSans-57" x="63.476562"/>
      <use xlink:href="#DejaVuSans-41" x="156.853516"/>
      <use xlink:href="#DejaVuSans-20" x="225.261719"/>
      <use xlink:href="#DejaVuSans-52" x="257.048828"/>
      <use xlink:href="#DejaVuSans-6f" x="322.03125"/>
      <use xlink:href="#DejaVuSans-62" x="383.212891"/>
      <use xlink:href="#DejaVuSans-75" x="446.689453"/>
      <use xlink:href="#DejaVuSans-73" x="510.068359"/>
      <use xlink:href="#DejaVuSans-74" x="562.167969"/>
      <use xlink:href="#DejaVuSans-20" x="601.376953"/>
      <use xlink:href="#DejaVuSans-56" x="633.164062"/>
      <use xlink:href="#DejaVuSans-61" x="693.822266"/>
      <use xlink:href="#DejaVuSans-6c" x="755.101562"/>
      <use xlink:href="#DejaVuSans-69" x="782.884766"/>
      <use xlink:href="#DejaVuSans-64" x="810.667969"/>
      <use xlink:href="#DejaVuSans-61" x="874.144531"/>
      <use xlink:href="#DejaVuSans-74" x="935.423828"/>
      <use xlink:href="#DejaVuSans-69" x="974.632812"/>
      <use xlink:href="#DejaVuSans-6f" x="1002.416016"/>
      <use xlink:href="#DejaVuSans-6e" x="1063.597656"/>
      <use xlink:href="#DejaVuSans-20" x="1126.976562"/>
      <use xlink:href="#DejaVuSans-41" x="1158.763672"/>
      <use xlink:href="#DejaVuSans-63" x="1225.421875"/>
      <use xlink:href="#DejaVuSans-63" x="1280.402344"/>
      <use xlink:href="#DejaVuSans-75" x="1335.382812"/>
      <use xlink:href="#DejaVuSans-72" x="1398.761719"/>
      <use xlink:href="#DejaVuSans-61" x="1439.875"/>
      <use xlink:href="#DejaVuSans-63" x="1501.154297"/>
      <use xlink:href="#DejaVuSans-79" x="1556.134766"/>
     </g>
    </g>
   </g>
  </g>
 </g>
 <defs>
  <clipPath id="pb072ea43f1">
   <rect x="57.6" y="41.472" width="357.12" height="266.112"/>
  </clipPath>
 </defs>
</svg>
