<?xml version="1.0" encoding="utf-8" standalone="no"?>
<!DOCTYPE svg PUBLIC "-//W3C//DTD SVG 1.1//EN"
  "http://www.w3.org/Graphics/SVG/1.1/DTD/svg11.dtd">
<svg xmlns:xlink="http://www.w3.org/1999/xlink" width="460.8pt" height="345.6pt" viewBox="0 0 460.8 345.6" xmlns="http://www.w3.org/2000/svg" version="1.1">
 <metadata>
  <rdf:RDF xmlns:dc="http://purl.org/dc/elements/1.1/" xmlns:cc="http://creativecommons.org/ns#" xmlns:rdf="http://www.w3.org/1999/02/22-rdf-syntax-ns#">
   <cc:Work>
    <dc:type rdf:resource="http://purl.org/dc/dcmitype/StillImage"/>
    <dc:date>2025-07-14T01:33:35.786120</dc:date>
    <dc:format>image/svg+xml</dc:format>
    <dc:creator>
     <cc:Agent>
      <dc:title>Matplotlib v3.9.1, https://matplotlib.org/</dc:title>
     </cc:Agent>
    </dc:creator>
   </cc:Work>
  </rdf:RDF>
 </metadata>
 <defs>
  <style type="text/css">*{stroke-linejoin: round; stroke-linecap: butt}</style>
 </defs>
 <g id="figure_1">
  <g id="patch_1">
   <path d="M 0 345.6 
L 460.8 345.6 
L 460.8 0 
L 0 0 
z
" style="fill: #ffffff"/>
  </g>
  <g id="axes_1">
   <g id="patch_2">
    <path d="M 57.6 307.584 
L 414.72 307.584 
L 414.72 41.472 
L 57.6 41.472 
z
" style="fill: #ffffff"/>
   </g>
   <g id="matplotlib.axis_1">
    <g id="xtick_1">
     <g id="line2d_1">
      <defs>
       <path id="m3278b48694" d="M 0 0 
L 0 3.5 
" style="stroke: #000000; stroke-width: 0.8"/>
      </defs>
      <g>
       <use xlink:href="#m3278b48694" x="73.832727" y="307.584" style="stroke: #000000; stroke-width: 0.8"/>
      </g>
     </g>
     <g id="text_1">
      <!-- 1 -->
      <g transform="translate(70.651477 322.182437) scale(0.1 -0.1)">
       <defs>
        <path id="DejaVuSans-31" d="M 794 531 
L 1825 531 
L 1825 4091 
L 703 3866 
L 703 4441 
L 1819 4666 
L 2450 4666 
L 2450 531 
L 3481 531 
L 3481 0 
L 794 0 
L 794 531 
z
" transform="scale(0.015625)"/>
       </defs>
       <use xlink:href="#DejaVuSans-31"/>
      </g>
     </g>
    </g>
    <g id="xtick_2">
     <g id="line2d_2">
      <g>
       <use xlink:href="#m3278b48694" x="109.664165" y="307.584" style="stroke: #000000; stroke-width: 0.8"/>
      </g>
     </g>
     <g id="text_2">
      <!-- 34 -->
      <g transform="translate(103.301665 322.182437) scale(0.1 -0.1)">
       <defs>
        <path id="DejaVuSans-33" d="M 2597 2516 
Q 3050 2419 3304 2112 
Q 3559 1806 3559 1356 
Q 3559 666 3084 287 
Q 2609 -91 1734 -91 
Q 1441 -91 1130 -33 
Q 819 25 488 141 
L 488 750 
Q 750 597 1062 519 
Q 1375 441 1716 441 
Q 2309 441 2620 675 
Q 2931 909 2931 1356 
Q 2931 1769 2642 2001 
Q 2353 2234 1838 2234 
L 1294 2234 
L 1294 2753 
L 1863 2753 
Q 2328 2753 2575 2939 
Q 2822 3125 2822 3475 
Q 2822 3834 2567 4026 
Q 2313 4219 1838 4219 
Q 1578 4219 1281 4162 
Q 984 4106 628 3988 
L 628 4550 
Q 988 4650 1302 4700 
Q 1616 4750 1894 4750 
Q 2613 4750 3031 4423 
Q 3450 4097 3450 3541 
Q 3450 3153 3228 2886 
Q 3006 2619 2597 2516 
z
" transform="scale(0.015625)"/>
        <path id="DejaVuSans-34" d="M 2419 4116 
L 825 1625 
L 2419 1625 
L 2419 4116 
z
M 2253 4666 
L 3047 4666 
L 3047 1625 
L 3713 1625 
L 3713 1100 
L 3047 1100 
L 3047 0 
L 2419 0 
L 2419 1100 
L 313 1100 
L 313 1709 
L 2253 4666 
z
" transform="scale(0.015625)"/>
       </defs>
       <use xlink:href="#DejaVuSans-33"/>
       <use xlink:href="#DejaVuSans-34" x="63.623047"/>
      </g>
     </g>
    </g>
    <g id="xtick_3">
     <g id="line2d_3">
      <g>
       <use xlink:href="#m3278b48694" x="145.495604" y="307.584" style="stroke: #000000; stroke-width: 0.8"/>
      </g>
     </g>
     <g id="text_3">
      <!-- 67 -->
      <g transform="translate(139.133104 322.182437) scale(0.1 -0.1)">
       <defs>
        <path id="DejaVuSans-36" d="M 2113 2584 
Q 1688 2584 1439 2293 
Q 1191 2003 1191 1497 
Q 1191 994 1439 701 
Q 1688 409 2113 409 
Q 2538 409 2786 701 
Q 3034 994 3034 1497 
Q 3034 2003 2786 2293 
Q 2538 2584 2113 2584 
z
M 3366 4563 
L 3366 3988 
Q 3128 4100 2886 4159 
Q 2644 4219 2406 4219 
Q 1781 4219 1451 3797 
Q 1122 3375 1075 2522 
Q 1259 2794 1537 2939 
Q 1816 3084 2150 3084 
Q 2853 3084 3261 2657 
Q 3669 2231 3669 1497 
Q 3669 778 3244 343 
Q 2819 -91 2113 -91 
Q 1303 -91 875 529 
Q 447 1150 447 2328 
Q 447 3434 972 4092 
Q 1497 4750 2381 4750 
Q 2619 4750 2861 4703 
Q 3103 4656 3366 4563 
z
" transform="scale(0.015625)"/>
        <path id="DejaVuSans-37" d="M 525 4666 
L 3525 4666 
L 3525 4397 
L 1831 0 
L 1172 0 
L 2766 4134 
L 525 4134 
L 525 4666 
z
" transform="scale(0.015625)"/>
       </defs>
       <use xlink:href="#DejaVuSans-36"/>
       <use xlink:href="#DejaVuSans-37" x="63.623047"/>
      </g>
     </g>
    </g>
    <g id="xtick_4">
     <g id="line2d_4">
      <g>
       <use xlink:href="#m3278b48694" x="181.327042" y="307.584" style="stroke: #000000; stroke-width: 0.8"/>
      </g>
     </g>
     <g id="text_4">
      <!-- 100 -->
      <g transform="translate(171.783292 322.182437) scale(0.1 -0.1)">
       <defs>
        <path id="DejaVuSans-30" d="M 2034 4250 
Q 1547 4250 1301 3770 
Q 1056 3291 1056 2328 
Q 1056 1369 1301 889 
Q 1547 409 2034 409 
Q 2525 409 2770 889 
Q 3016 1369 3016 2328 
Q 3016 3291 2770 3770 
Q 2525 4250 2034 4250 
z
M 2034 4750 
Q 2819 4750 3233 4129 
Q 3647 3509 3647 2328 
Q 3647 1150 3233 529 
Q 2819 -91 2034 -91 
Q 1250 -91 836 529 
Q 422 1150 422 2328 
Q 422 3509 836 4129 
Q 1250 4750 2034 4750 
z
" transform="scale(0.015625)"/>
       </defs>
       <use xlink:href="#DejaVuSans-31"/>
       <use xlink:href="#DejaVuSans-30" x="63.623047"/>
       <use xlink:href="#DejaVuSans-30" x="127.246094"/>
      </g>
     </g>
    </g>
    <g id="xtick_5">
     <g id="line2d_5">
      <g>
       <use xlink:href="#m3278b48694" x="217.15848" y="307.584" style="stroke: #000000; stroke-width: 0.8"/>
      </g>
     </g>
     <g id="text_5">
      <!-- 133 -->
      <g transform="translate(207.61473 322.182437) scale(0.1 -0.1)">
       <use xlink:href="#DejaVuSans-31"/>
       <use xlink:href="#DejaVuSans-33" x="63.623047"/>
       <use xlink:href="#DejaVuSans-33" x="127.246094"/>
      </g>
     </g>
    </g>
    <g id="xtick_6">
     <g id="line2d_6">
      <g>
       <use xlink:href="#m3278b48694" x="254.075719" y="307.584" style="stroke: #000000; stroke-width: 0.8"/>
      </g>
     </g>
     <g id="text_6">
      <!-- 167 -->
      <g transform="translate(244.531969 322.182437) scale(0.1 -0.1)">
       <use xlink:href="#DejaVuSans-31"/>
       <use xlink:href="#DejaVuSans-36" x="63.623047"/>
       <use xlink:href="#DejaVuSans-37" x="127.246094"/>
      </g>
     </g>
    </g>
    <g id="xtick_7">
     <g id="line2d_7">
      <g>
       <use xlink:href="#m3278b48694" x="289.907157" y="307.584" style="stroke: #000000; stroke-width: 0.8"/>
      </g>
     </g>
     <g id="text_7">
      <!-- 200 -->
      <g transform="translate(280.363407 322.182437) scale(0.1 -0.1)">
       <defs>
        <path id="DejaVuSans-32" d="M 1228 531 
L 3431 531 
L 3431 0 
L 469 0 
L 469 531 
Q 828 903 1448 1529 
Q 2069 2156 2228 2338 
Q 2531 2678 2651 2914 
Q 2772 3150 2772 3378 
Q 2772 3750 2511 3984 
Q 2250 4219 1831 4219 
Q 1534 4219 1204 4116 
Q 875 4013 500 3803 
L 500 4441 
Q 881 4594 1212 4672 
Q 1544 4750 1819 4750 
Q 2544 4750 2975 4387 
Q 3406 4025 3406 3419 
Q 3406 3131 3298 2873 
Q 3191 2616 2906 2266 
Q 2828 2175 2409 1742 
Q 1991 1309 1228 531 
z
" transform="scale(0.015625)"/>
       </defs>
       <use xlink:href="#DejaVuSans-32"/>
       <use xlink:href="#DejaVuSans-30" x="63.623047"/>
       <use xlink:href="#DejaVuSans-30" x="127.246094"/>
      </g>
     </g>
    </g>
    <g id="xtick_8">
     <g id="line2d_8">
      <g>
       <use xlink:href="#m3278b48694" x="325.738595" y="307.584" style="stroke: #000000; stroke-width: 0.8"/>
      </g>
     </g>
     <g id="text_8">
      <!-- 233 -->
      <g transform="translate(316.194845 322.182437) scale(0.1 -0.1)">
       <use xlink:href="#DejaVuSans-32"/>
       <use xlink:href="#DejaVuSans-33" x="63.623047"/>
       <use xlink:href="#DejaVuSans-33" x="127.246094"/>
      </g>
     </g>
    </g>
    <g id="xtick_9">
     <g id="line2d_9">
      <g>
       <use xlink:href="#m3278b48694" x="361.570033" y="307.584" style="stroke: #000000; stroke-width: 0.8"/>
      </g>
     </g>
     <g id="text_9">
      <!-- 266 -->
      <g transform="translate(352.026283 322.182437) scale(0.1 -0.1)">
       <use xlink:href="#DejaVuSans-32"/>
       <use xlink:href="#DejaVuSans-36" x="63.623047"/>
       <use xlink:href="#DejaVuSans-36" x="127.246094"/>
      </g>
     </g>
    </g>
    <g id="xtick_10">
     <g id="line2d_10">
      <g>
       <use xlink:href="#m3278b48694" x="398.487273" y="307.584" style="stroke: #000000; stroke-width: 0.8"/>
      </g>
     </g>
     <g id="text_10">
      <!-- 300 -->
      <g transform="translate(388.943523 322.182437) scale(0.1 -0.1)">
       <use xlink:href="#DejaVuSans-33"/>
       <use xlink:href="#DejaVuSans-30" x="63.623047"/>
       <use xlink:href="#DejaVuSans-30" x="127.246094"/>
      </g>
     </g>
    </g>
    <g id="text_11">
     <!-- Epochs -->
     <g transform="translate(218.244375 335.860562) scale(0.1 -0.1)">
      <defs>
       <path id="DejaVuSans-45" d="M 628 4666 
L 3578 4666 
L 3578 4134 
L 1259 4134 
L 1259 2753 
L 3481 2753 
L 3481 2222 
L 1259 2222 
L 1259 531 
L 3634 531 
L 3634 0 
L 628 0 
L 628 4666 
z
" transform="scale(0.015625)"/>
       <path id="DejaVuSans-70" d="M 1159 525 
L 1159 -1331 
L 581 -1331 
L 581 3500 
L 1159 3500 
L 1159 2969 
Q 1341 3281 1617 3432 
Q 1894 3584 2278 3584 
Q 2916 3584 3314 3078 
Q 3713 2572 3713 1747 
Q 3713 922 3314 415 
Q 2916 -91 2278 -91 
Q 1894 -91 1617 61 
Q 1341 213 1159 525 
z
M 3116 1747 
Q 3116 2381 2855 2742 
Q 2594 3103 2138 3103 
Q 1681 3103 1420 2742 
Q 1159 2381 1159 1747 
Q 1159 1113 1420 752 
Q 1681 391 2138 391 
Q 2594 391 2855 752 
Q 3116 1113 3116 1747 
z
" transform="scale(0.015625)"/>
       <path id="DejaVuSans-6f" d="M 1959 3097 
Q 1497 3097 1228 2736 
Q 959 2375 959 1747 
Q 959 1119 1226 758 
Q 1494 397 1959 397 
Q 2419 397 2687 759 
Q 2956 1122 2956 1747 
Q 2956 2369 2687 2733 
Q 2419 3097 1959 3097 
z
M 1959 3584 
Q 2709 3584 3137 3096 
Q 3566 2609 3566 1747 
Q 3566 888 3137 398 
Q 2709 -91 1959 -91 
Q 1206 -91 779 398 
Q 353 888 353 1747 
Q 353 2609 779 3096 
Q 1206 3584 1959 3584 
z
" transform="scale(0.015625)"/>
       <path id="DejaVuSans-63" d="M 3122 3366 
L 3122 2828 
Q 2878 2963 2633 3030 
Q 2388 3097 2138 3097 
Q 1578 3097 1268 2742 
Q 959 2388 959 1747 
Q 959 1106 1268 751 
Q 1578 397 2138 397 
Q 2388 397 2633 464 
Q 2878 531 3122 666 
L 3122 134 
Q 2881 22 2623 -34 
Q 2366 -91 2075 -91 
Q 1284 -91 818 406 
Q 353 903 353 1747 
Q 353 2603 823 3093 
Q 1294 3584 2113 3584 
Q 2378 3584 2631 3529 
Q 2884 3475 3122 3366 
z
" transform="scale(0.015625)"/>
       <path id="DejaVuSans-68" d="M 3513 2113 
L 3513 0 
L 2938 0 
L 2938 2094 
Q 2938 2591 2744 2837 
Q 2550 3084 2163 3084 
Q 1697 3084 1428 2787 
Q 1159 2491 1159 1978 
L 1159 0 
L 581 0 
L 581 4863 
L 1159 4863 
L 1159 2956 
Q 1366 3272 1645 3428 
Q 1925 3584 2291 3584 
Q 2894 3584 3203 3211 
Q 3513 2838 3513 2113 
z
" transform="scale(0.015625)"/>
       <path id="DejaVuSans-73" d="M 2834 3397 
L 2834 2853 
Q 2591 2978 2328 3040 
Q 2066 3103 1784 3103 
Q 1356 3103 1142 2972 
Q 928 2841 928 2578 
Q 928 2378 1081 2264 
Q 1234 2150 1697 2047 
L 1894 2003 
Q 2506 1872 2764 1633 
Q 3022 1394 3022 966 
Q 3022 478 2636 193 
Q 2250 -91 1575 -91 
Q 1294 -91 989 -36 
Q 684 19 347 128 
L 347 722 
Q 666 556 975 473 
Q 1284 391 1588 391 
Q 1994 391 2212 530 
Q 2431 669 2431 922 
Q 2431 1156 2273 1281 
Q 2116 1406 1581 1522 
L 1381 1569 
Q 847 1681 609 1914 
Q 372 2147 372 2553 
Q 372 3047 722 3315 
Q 1072 3584 1716 3584 
Q 2034 3584 2315 3537 
Q 2597 3491 2834 3397 
z
" transform="scale(0.015625)"/>
      </defs>
      <use xlink:href="#DejaVuSans-45"/>
      <use xlink:href="#DejaVuSans-70" x="63.183594"/>
      <use xlink:href="#DejaVuSans-6f" x="126.660156"/>
      <use xlink:href="#DejaVuSans-63" x="187.841797"/>
      <use xlink:href="#DejaVuSans-68" x="242.822266"/>
      <use xlink:href="#DejaVuSans-73" x="306.201172"/>
     </g>
    </g>
   </g>
   <g id="matplotlib.axis_2">
    <g id="ytick_1">
     <g id="line2d_11">
      <defs>
       <path id="m54e9b582a0" d="M 0 0 
L -3.5 0 
" style="stroke: #000000; stroke-width: 0.8"/>
      </defs>
      <g>
       <use xlink:href="#m54e9b582a0" x="57.6" y="286.380766" style="stroke: #000000; stroke-width: 0.8"/>
      </g>
     </g>
     <g id="text_12">
      <!-- 10 -->
      <g transform="translate(37.875 290.179985) scale(0.1 -0.1)">
       <use xlink:href="#DejaVuSans-31"/>
       <use xlink:href="#DejaVuSans-30" x="63.623047"/>
      </g>
     </g>
    </g>
    <g id="ytick_2">
     <g id="line2d_12">
      <g>
       <use xlink:href="#m54e9b582a0" x="57.6" y="255.742468" style="stroke: #000000; stroke-width: 0.8"/>
      </g>
     </g>
     <g id="text_13">
      <!-- 20 -->
      <g transform="translate(37.875 259.541687) scale(0.1 -0.1)">
       <use xlink:href="#DejaVuSans-32"/>
       <use xlink:href="#DejaVuSans-30" x="63.623047"/>
      </g>
     </g>
    </g>
    <g id="ytick_3">
     <g id="line2d_13">
      <g>
       <use xlink:href="#m54e9b582a0" x="57.6" y="225.10417" style="stroke: #000000; stroke-width: 0.8"/>
      </g>
     </g>
     <g id="text_14">
      <!-- 30 -->
      <g transform="translate(37.875 228.903389) scale(0.1 -0.1)">
       <use xlink:href="#DejaVuSans-33"/>
       <use xlink:href="#DejaVuSans-30" x="63.623047"/>
      </g>
     </g>
    </g>
    <g id="ytick_4">
     <g id="line2d_14">
      <g>
       <use xlink:href="#m54e9b582a0" x="57.6" y="194.465872" style="stroke: #000000; stroke-width: 0.8"/>
      </g>
     </g>
     <g id="text_15">
      <!-- 40 -->
      <g transform="translate(37.875 198.265091) scale(0.1 -0.1)">
       <use xlink:href="#DejaVuSans-34"/>
       <use xlink:href="#DejaVuSans-30" x="63.623047"/>
      </g>
     </g>
    </g>
    <g id="ytick_5">
     <g id="line2d_15">
      <g>
       <use xlink:href="#m54e9b582a0" x="57.6" y="163.827574" style="stroke: #000000; stroke-width: 0.8"/>
      </g>
     </g>
     <g id="text_16">
      <!-- 50 -->
      <g transform="translate(37.875 167.626793) scale(0.1 -0.1)">
       <defs>
        <path id="DejaVuSans-35" d="M 691 4666 
L 3169 4666 
L 3169 4134 
L 1269 4134 
L 1269 2991 
Q 1406 3038 1543 3061 
Q 1681 3084 1819 3084 
Q 2600 3084 3056 2656 
Q 3513 2228 3513 1497 
Q 3513 744 3044 326 
Q 2575 -91 1722 -91 
Q 1428 -91 1123 -41 
Q 819 9 494 109 
L 494 744 
Q 775 591 1075 516 
Q 1375 441 1709 441 
Q 2250 441 2565 725 
Q 2881 1009 2881 1497 
Q 2881 1984 2565 2268 
Q 2250 2553 1709 2553 
Q 1456 2553 1204 2497 
Q 953 2441 691 2322 
L 691 4666 
z
" transform="scale(0.015625)"/>
       </defs>
       <use xlink:href="#DejaVuSans-35"/>
       <use xlink:href="#DejaVuSans-30" x="63.623047"/>
      </g>
     </g>
    </g>
    <g id="ytick_6">
     <g id="line2d_16">
      <g>
       <use xlink:href="#m54e9b582a0" x="57.6" y="133.189277" style="stroke: #000000; stroke-width: 0.8"/>
      </g>
     </g>
     <g id="text_17">
      <!-- 60 -->
      <g transform="translate(37.875 136.988495) scale(0.1 -0.1)">
       <use xlink:href="#DejaVuSans-36"/>
       <use xlink:href="#DejaVuSans-30" x="63.623047"/>
      </g>
     </g>
    </g>
    <g id="ytick_7">
     <g id="line2d_17">
      <g>
       <use xlink:href="#m54e9b582a0" x="57.6" y="102.550979" style="stroke: #000000; stroke-width: 0.8"/>
      </g>
     </g>
     <g id="text_18">
      <!-- 70 -->
      <g transform="translate(37.875 106.350197) scale(0.1 -0.1)">
       <use xlink:href="#DejaVuSans-37"/>
       <use xlink:href="#DejaVuSans-30" x="63.623047"/>
      </g>
     </g>
    </g>
    <g id="ytick_8">
     <g id="line2d_18">
      <g>
       <use xlink:href="#m54e9b582a0" x="57.6" y="71.912681" style="stroke: #000000; stroke-width: 0.8"/>
      </g>
     </g>
     <g id="text_19">
      <!-- 80 -->
      <g transform="translate(37.875 75.7119) scale(0.1 -0.1)">
       <defs>
        <path id="DejaVuSans-38" d="M 2034 2216 
Q 1584 2216 1326 1975 
Q 1069 1734 1069 1313 
Q 1069 891 1326 650 
Q 1584 409 2034 409 
Q 2484 409 2743 651 
Q 3003 894 3003 1313 
Q 3003 1734 2745 1975 
Q 2488 2216 2034 2216 
z
M 1403 2484 
Q 997 2584 770 2862 
Q 544 3141 544 3541 
Q 544 4100 942 4425 
Q 1341 4750 2034 4750 
Q 2731 4750 3128 4425 
Q 3525 4100 3525 3541 
Q 3525 3141 3298 2862 
Q 3072 2584 2669 2484 
Q 3125 2378 3379 2068 
Q 3634 1759 3634 1313 
Q 3634 634 3220 271 
Q 2806 -91 2034 -91 
Q 1263 -91 848 271 
Q 434 634 434 1313 
Q 434 1759 690 2068 
Q 947 2378 1403 2484 
z
M 1172 3481 
Q 1172 3119 1398 2916 
Q 1625 2713 2034 2713 
Q 2441 2713 2670 2916 
Q 2900 3119 2900 3481 
Q 2900 3844 2670 4047 
Q 2441 4250 2034 4250 
Q 1625 4250 1398 4047 
Q 1172 3844 1172 3481 
z
" transform="scale(0.015625)"/>
       </defs>
       <use xlink:href="#DejaVuSans-38"/>
       <use xlink:href="#DejaVuSans-30" x="63.623047"/>
      </g>
     </g>
    </g>
    <g id="text_20">
     <!-- Accuracy -->
     <g transform="translate(31.795312 197.356125) rotate(-90) scale(0.1 -0.1)">
      <defs>
       <path id="DejaVuSans-41" d="M 2188 4044 
L 1331 1722 
L 3047 1722 
L 2188 4044 
z
M 1831 4666 
L 2547 4666 
L 4325 0 
L 3669 0 
L 3244 1197 
L 1141 1197 
L 716 0 
L 50 0 
L 1831 4666 
z
" transform="scale(0.015625)"/>
       <path id="DejaVuSans-75" d="M 544 1381 
L 544 3500 
L 1119 3500 
L 1119 1403 
Q 1119 906 1312 657 
Q 1506 409 1894 409 
Q 2359 409 2629 706 
Q 2900 1003 2900 1516 
L 2900 3500 
L 3475 3500 
L 3475 0 
L 2900 0 
L 2900 538 
Q 2691 219 2414 64 
Q 2138 -91 1772 -91 
Q 1169 -91 856 284 
Q 544 659 544 1381 
z
M 1991 3584 
L 1991 3584 
z
" transform="scale(0.015625)"/>
       <path id="DejaVuSans-72" d="M 2631 2963 
Q 2534 3019 2420 3045 
Q 2306 3072 2169 3072 
Q 1681 3072 1420 2755 
Q 1159 2438 1159 1844 
L 1159 0 
L 581 0 
L 581 3500 
L 1159 3500 
L 1159 2956 
Q 1341 3275 1631 3429 
Q 1922 3584 2338 3584 
Q 2397 3584 2469 3576 
Q 2541 3569 2628 3553 
L 2631 2963 
z
" transform="scale(0.015625)"/>
       <path id="DejaVuSans-61" d="M 2194 1759 
Q 1497 1759 1228 1600 
Q 959 1441 959 1056 
Q 959 750 1161 570 
Q 1363 391 1709 391 
Q 2188 391 2477 730 
Q 2766 1069 2766 1631 
L 2766 1759 
L 2194 1759 
z
M 3341 1997 
L 3341 0 
L 2766 0 
L 2766 531 
Q 2569 213 2275 61 
Q 1981 -91 1556 -91 
Q 1019 -91 701 211 
Q 384 513 384 1019 
Q 384 1609 779 1909 
Q 1175 2209 1959 2209 
L 2766 2209 
L 2766 2266 
Q 2766 2663 2505 2880 
Q 2244 3097 1772 3097 
Q 1472 3097 1187 3025 
Q 903 2953 641 2809 
L 641 3341 
Q 956 3463 1253 3523 
Q 1550 3584 1831 3584 
Q 2591 3584 2966 3190 
Q 3341 2797 3341 1997 
z
" transform="scale(0.015625)"/>
       <path id="DejaVuSans-79" d="M 2059 -325 
Q 1816 -950 1584 -1140 
Q 1353 -1331 966 -1331 
L 506 -1331 
L 506 -850 
L 844 -850 
Q 1081 -850 1212 -737 
Q 1344 -625 1503 -206 
L 1606 56 
L 191 3500 
L 800 3500 
L 1894 763 
L 2988 3500 
L 3597 3500 
L 2059 -325 
z
" transform="scale(0.015625)"/>
      </defs>
      <use xlink:href="#DejaVuSans-41"/>
      <use xlink:href="#DejaVuSans-63" x="66.658203"/>
      <use xlink:href="#DejaVuSans-63" x="121.638672"/>
      <use xlink:href="#DejaVuSans-75" x="176.619141"/>
      <use xlink:href="#DejaVuSans-72" x="239.998047"/>
      <use xlink:href="#DejaVuSans-61" x="281.111328"/>
      <use xlink:href="#DejaVuSans-63" x="342.390625"/>
      <use xlink:href="#DejaVuSans-79" x="397.371094"/>
     </g>
    </g>
   </g>
   <g id="line2d_19">
    <path d="M 73.832727 295.488 
L 74.918528 269.57566 
L 76.00433 238.906723 
L 77.090131 214.143319 
L 78.175932 193.332255 
L 79.261733 182.042043 
L 80.347534 168.438638 
L 82.519137 151.082043 
L 83.604938 146.739064 
L 84.690739 138.321191 
L 85.77654 131.573106 
L 86.862341 130.454809 
L 87.948142 126.196085 
L 89.033943 120.413106 
L 90.119745 116.698213 
L 91.205546 113.764596 
L 92.291347 113.994383 
L 93.377148 111.053106 
L 94.462949 110.164596 
L 95.54875 136.819915 
L 96.634552 136.245447 
L 97.720353 133.288851 
L 98.806154 131.105872 
L 100.977756 125.062468 
L 102.063557 121.041191 
L 103.149358 120.627574 
L 104.23516 119.057362 
L 105.320961 116.713532 
L 106.406762 115.985872 
L 107.492563 112.60034 
L 108.578364 110.195234 
L 109.664165 109.168851 
L 110.749967 104.979064 
L 111.835768 105.162894 
L 112.921569 103.041191 
L 114.00737 101.861617 
L 115.093171 99.234383 
L 116.178972 98.453106 
L 117.264773 95.963745 
L 118.350575 95.213106 
L 119.436376 93.229277 
L 120.522177 92.539915 
L 121.607978 89.943319 
L 122.693779 89.100766 
L 123.77958 87.94417 
L 124.865382 87.430979 
L 125.951183 84.612255 
L 127.036984 85.125447 
L 128.122785 82.444596 
L 129.208586 80.797787 
L 130.294387 80.21566 
L 131.380189 78.890553 
L 132.46599 78.836936 
L 133.551791 78.262468 
L 134.637592 79.173957 
L 135.723393 76.531404 
L 136.809194 76.998638 
L 137.894995 76.738213 
L 138.980797 100.835234 
L 140.066598 105.453957 
L 141.152399 104.435234 
L 142.2382 101.639489 
L 144.409802 103.148426 
L 146.581405 98.767149 
L 147.667206 99.11183 
L 148.753007 98.659915 
L 149.838808 99.625021 
L 150.924609 98.108426 
L 152.01041 97.449702 
L 153.096212 95.542468 
L 154.182013 95.580766 
L 155.267814 96.408 
L 156.353615 94.316936 
L 157.439416 93.099064 
L 158.525217 92.608851 
L 159.611019 92.838638 
L 160.69682 91.804596 
L 161.782621 91.107574 
L 162.868422 91.498213 
L 163.954223 89.851404 
L 165.040024 88.503319 
L 166.125825 88.886298 
L 168.297428 85.569702 
L 169.383229 85.945021 
L 170.46903 85.186723 
L 171.554831 84.757787 
L 173.726434 84.053106 
L 176.983837 80.529702 
L 178.069638 81.617362 
L 179.155439 79.825021 
L 180.24124 79.679489 
L 181.327042 80.039489 
L 182.412843 78.308426 
L 183.498644 75.589277 
L 184.584445 76.630979 
L 185.670246 77.328 
L 186.756047 73.965447 
L 187.841849 74.45566 
L 188.92765 75.17566 
L 190.013451 74.693106 
L 191.099252 73.636085 
L 192.185053 72.885447 
L 193.270854 72.778213 
L 194.356656 71.629277 
L 195.442457 71.966298 
L 196.528258 70.48034 
L 198.69986 69.139915 
L 199.785661 67.891404 
L 200.871462 68.197787 
L 201.957264 66.581617 
L 203.043065 66.558638 
L 204.128866 65.670128 
L 205.214667 65.44034 
L 206.300468 65.823319 
L 207.386269 64.444596 
L 208.472071 65.425021 
L 209.557872 63.46417 
L 210.643673 63.625021 
L 211.729474 63.517787 
L 212.815275 63.28034 
L 213.901076 62.552681 
L 214.986877 62.169702 
L 216.072679 61.319489 
L 217.15848 62.177362 
L 218.244281 61.595234 
L 219.330082 62.322894 
L 220.415883 62.74417 
L 221.501684 60.032681 
L 222.587486 60.362043 
L 223.673287 61.794383 
L 224.759088 62.054809 
L 225.844889 83.570553 
L 226.93069 88.097362 
L 228.016491 88.242894 
L 229.102292 87.668426 
L 230.188094 88.411404 
L 231.273895 88.863319 
L 232.359696 87.385021 
L 233.445497 88.488 
L 234.531298 87.239489 
L 235.617099 87.461617 
L 236.702901 86.021617 
L 237.788702 86.726298 
L 238.874503 87.653106 
L 239.960304 87.178213 
L 241.046105 87.162894 
L 242.131906 86.067574 
L 243.217708 86.657362 
L 244.303509 84.696511 
L 245.38931 85.270979 
L 246.475111 85.477787 
L 247.560912 84.198638 
L 248.646713 84.596936 
L 249.732514 83.662468 
L 250.818316 83.938213 
L 251.904117 83.363745 
L 254.075719 84.083745 
L 255.16152 82.666723 
L 257.333123 81.571404 
L 258.418924 83.363745 
L 259.504725 82.390979 
L 260.590526 82.053957 
L 261.676327 80.767149 
L 262.762128 81.219064 
L 263.847929 81.219064 
L 264.933731 79.817362 
L 266.019532 80.728851 
L 267.105333 80.02417 
L 268.191134 80.238638 
L 269.276935 80.154383 
L 270.362736 78.461617 
L 271.448538 78.867574 
L 272.534339 77.741617 
L 273.62014 76.914383 
L 274.705941 78.408 
L 275.791742 77.036936 
L 276.877543 77.297362 
L 277.963344 76.585021 
L 280.134947 76.516085 
L 281.220748 77.542468 
L 282.306549 76.876085 
L 283.39235 76.569702 
L 284.478151 75.528 
L 285.563953 74.930553 
L 286.649754 76.745872 
L 287.735555 75.290553 
L 288.821356 75.420766 
L 289.907157 73.528851 
L 290.992958 72.701617 
L 292.07876 73.291404 
L 293.164561 73.237787 
L 294.250362 74.516936 
L 295.336163 72.808851 
L 296.421964 73.260766 
L 297.507765 72.410553 
L 298.593566 71.813106 
L 299.679368 71.568 
L 300.765169 71.859064 
L 301.85097 70.970553 
L 302.936771 71.805447 
L 304.022572 70.687149 
L 305.108373 70.051404 
L 306.194175 69.568851 
L 307.279976 71.047149 
L 309.451578 70.327149 
L 310.537379 68.105872 
L 311.62318 69.277787 
L 312.708981 68.082894 
L 313.794783 67.42417 
L 314.880584 68.174809 
L 315.966385 66.397787 
L 317.052186 66.933957 
L 318.137987 66.359489 
L 319.223788 66.811404 
L 320.30959 68.006298 
L 321.395391 65.310128 
L 322.481192 65.302468 
L 323.566993 65.647149 
L 324.652794 65.310128 
L 325.738595 64.605447 
L 326.824396 63.586723 
L 327.910198 64.452255 
L 328.995999 65.110979 
L 330.0818 63.333957 
L 331.167601 63.288 
L 332.253402 62.728851 
L 333.339203 62.621617 
L 334.425005 62.276936 
L 335.510806 61.763745 
L 336.596607 60.898213 
L 337.682408 60.921191 
L 338.768209 60.77566 
L 339.85401 60.77566 
L 340.939811 58.730553 
L 342.025613 60.216511 
L 343.111414 59.312681 
L 344.197215 60.798638 
L 345.283016 58.623319 
L 346.368817 58.906723 
L 347.454618 58.699915 
L 348.54042 57.734809 
L 349.626221 58.202043 
L 350.712022 57.505021 
L 351.797823 58.270979 
L 352.883624 57.060766 
L 353.969425 56.256511 
L 355.055227 57.244596 
L 356.141028 55.36034 
L 357.226829 56.141617 
L 358.31263 55.36034 
L 359.398431 55.697362 
L 360.484232 55.053957 
L 361.570033 55.988426 
L 362.655835 55.666723 
L 363.741636 55.038638 
L 364.827437 53.568 
L 365.913238 54.234383 
L 366.999039 53.767149 
L 369.170642 53.889702 
L 370.256443 55.291404 
L 371.342244 56.08034 
L 373.513846 56.80034 
L 374.599647 57.451404 
L 375.685448 58.569702 
L 376.77125 58.102468 
L 377.857051 56.945872 
L 378.942852 56.915234 
L 380.028653 57.022468 
L 381.114454 57.734809 
L 382.200255 57.459064 
L 383.286057 58.653957 
L 384.371858 58.761191 
L 385.457659 57.275234 
L 386.54346 57.589277 
L 387.629261 56.570553 
L 388.715062 57.803745 
L 389.800863 56.746723 
L 390.886665 57.842043 
L 391.972466 57.995234 
L 394.144068 57.543319 
L 395.229869 57.221617 
L 396.31567 58.140766 
L 397.401472 57.581617 
L 398.487273 56.356085 
L 398.487273 56.356085 
" clip-path="url(#p1ecfaad78d)" style="fill: none; stroke: #1f77b4; stroke-width: 1.5; stroke-linecap: square"/>
   </g>
   <g id="line2d_20">
    <path d="M 73.832727 280.314383 
L 74.918528 250.809702 
L 77.090131 212.205447 
L 78.175932 195.201191 
L 79.261733 185.396936 
L 80.347534 187.112681 
L 81.433335 172.559489 
L 82.519137 165.17566 
L 83.604938 161.008851 
L 84.690739 150.04034 
L 86.862341 144.157787 
L 87.948142 137.417362 
L 89.033943 133.250553 
L 90.119745 133.771404 
L 91.205546 130.125447 
L 93.377148 127.705021 
L 94.462949 127.245447 
L 95.54875 162.081191 
L 96.634552 151.970553 
L 97.720353 146.45566 
L 98.806154 145.291404 
L 99.891955 145.383319 
L 100.977756 141.369702 
L 102.063557 138.888 
L 103.149358 132.882894 
L 104.23516 136.528851 
L 105.320961 130.61566 
L 106.406762 130.094809 
L 107.492563 125.682894 
L 108.578364 124.059064 
L 109.664165 123.875234 
L 110.749967 119.493957 
L 111.835768 120.045447 
L 112.921569 116.981617 
L 114.00737 115.602894 
L 115.093171 115.756085 
L 116.178972 113.059915 
L 117.264773 112.692255 
L 118.350575 107.912681 
L 119.436376 108.188426 
L 120.522177 104.51183 
L 121.607978 103.470128 
L 122.693779 103.041191 
L 123.77958 100.682043 
L 124.865382 100.927149 
L 125.951183 97.863319 
L 127.036984 99.303319 
L 128.122785 95.412255 
L 129.208586 95.105872 
L 130.294387 93.727149 
L 131.380189 93.849702 
L 132.46599 92.99183 
L 133.551791 92.470979 
L 134.637592 92.593532 
L 135.723393 92.072681 
L 137.894995 93.359489 
L 138.980797 119.677787 
L 140.066598 117.686298 
L 141.152399 117.441191 
L 142.2382 117.900766 
L 143.324001 114.132255 
L 144.409802 114.193532 
L 145.495604 116.583319 
L 146.581405 111.282894 
L 147.667206 114.745021 
L 149.838808 110.363745 
L 150.924609 111.068426 
L 152.01041 106.993532 
L 153.096212 109.322043 
L 154.182013 109.536511 
L 155.267814 109.168851 
L 156.353615 107.514383 
L 157.439416 104.266723 
L 158.525217 107.054809 
L 160.69682 104.573106 
L 161.782621 102.612255 
L 162.868422 106.411404 
L 163.954223 101.754383 
L 165.040024 102.857362 
L 166.125825 101.938213 
L 167.211627 102.888 
L 168.297428 99.119489 
L 169.383229 103.929702 
L 170.46903 99.395234 
L 171.554831 97.036085 
L 172.640632 98.598638 
L 173.726434 99.885447 
L 174.812235 95.167149 
L 175.898036 95.197787 
L 176.983837 93.88034 
L 178.069638 93.849702 
L 179.155439 94.922043 
L 180.24124 90.908426 
L 181.327042 91.613106 
L 182.412843 91.153532 
L 183.498644 89.162043 
L 185.670246 91.521191 
L 187.841849 86.557787 
L 188.92765 87.262468 
L 190.013451 84.811404 
L 191.099252 86.925447 
L 192.185053 85.148426 
L 193.270854 85.454809 
L 194.356656 84.596936 
L 196.528258 82.023319 
L 197.614059 83.98417 
L 198.69986 80.859064 
L 199.785661 80.276936 
L 200.871462 80.460766 
L 201.957264 80.522043 
L 203.043065 80.001191 
L 204.128866 78.499915 
L 205.214667 77.33566 
L 206.300468 79.020766 
L 207.386269 78.408 
L 208.472071 76.569702 
L 209.557872 78.009702 
L 210.643673 76.477787 
L 211.729474 75.528 
L 212.815275 75.681191 
L 213.901076 76.661617 
L 214.986877 76.477787 
L 216.072679 75.681191 
L 217.15848 75.374809 
L 218.244281 74.853957 
L 219.330082 75.190979 
L 220.415883 74.976511 
L 221.501684 74.976511 
L 222.587486 74.425021 
L 223.673287 74.731404 
L 224.759088 74.762043 
L 225.844889 105.461617 
L 226.93069 102.244596 
L 228.016491 105.982468 
L 229.102292 104.021617 
L 230.188094 103.194383 
L 231.273895 99.027574 
L 232.359696 100.467574 
L 233.445497 103.225021 
L 234.531298 99.793532 
L 235.617099 102.673532 
L 236.702901 99.701617 
L 237.788702 99.425872 
L 238.874503 96.76034 
L 239.960304 103.225021 
L 241.046105 101.294809 
L 242.131906 101.723745 
L 243.217708 97.036085 
L 244.303509 101.999489 
L 245.38931 103.439489 
L 246.475111 96.270128 
L 247.560912 101.172255 
L 248.646713 98.659915 
L 249.732514 96.729702 
L 250.818316 99.854809 
L 251.904117 97.219915 
L 252.989918 97.618213 
L 254.075719 97.863319 
L 255.16152 97.434383 
L 256.247321 97.342468 
L 257.333123 95.534809 
L 258.418924 96.94417 
L 259.504725 95.688 
L 260.590526 91.796936 
L 261.676327 96.116936 
L 262.762128 93.941617 
L 263.847929 92.685447 
L 264.933731 94.891404 
L 266.019532 92.838638 
L 267.105333 93.573957 
L 268.191134 91.643745 
L 269.276935 90.081191 
L 270.362736 94.646298 
L 271.448538 93.236936 
L 272.534339 89.590979 
L 274.705941 94.278638 
L 275.791742 90.203745 
L 276.877543 87.170553 
L 277.963344 89.989277 
L 279.049146 90.540766 
L 280.134947 92.562894 
L 281.220748 91.950128 
L 282.306549 93.512681 
L 283.39235 92.808 
L 284.478151 91.00034 
L 285.563953 92.287149 
L 286.649754 92.685447 
L 287.735555 88.518638 
L 288.821356 89.008851 
L 289.907157 87.538213 
L 290.992958 85.669277 
L 292.07876 86.710979 
L 293.164561 85.332255 
L 294.250362 85.24034 
L 295.336163 84.014809 
L 296.421964 86.312681 
L 297.507765 85.853106 
L 298.593566 84.382468 
L 299.679368 82.513532 
L 300.765169 86.312681 
L 301.85097 82.850553 
L 302.936771 84.198638 
L 304.022572 84.596936 
L 305.108373 83.953532 
L 306.194175 86.833532 
L 307.279976 85.270979 
L 308.365777 83.09566 
L 309.451578 83.677787 
L 310.537379 81.594383 
L 311.62318 82.54417 
L 312.708981 81.502468 
L 313.794783 82.36034 
L 314.880584 81.318638 
L 315.966385 82.268426 
L 317.052186 79.419064 
L 318.137987 78.438638 
L 319.223788 82.482894 
L 320.30959 80.21566 
L 321.395391 80.767149 
L 322.481192 79.786723 
L 323.566993 78.009702 
L 324.652794 77.213106 
L 325.738595 75.956936 
L 326.824396 79.112681 
L 327.910198 79.112681 
L 328.995999 77.029277 
L 330.0818 78.22417 
L 331.167601 77.182468 
L 332.253402 75.71183 
L 333.339203 75.099064 
L 334.425005 75.558638 
L 335.510806 76.477787 
L 336.596607 73.352681 
L 337.682408 73.934809 
L 338.768209 74.792681 
L 339.85401 73.230128 
L 340.939811 72.709277 
L 342.025613 73.567149 
L 343.111414 73.260766 
L 344.197215 71.973957 
L 345.283016 72.678638 
L 346.368817 70.166298 
L 347.454618 71.422468 
L 348.54042 70.595234 
L 349.626221 71.820766 
L 350.712022 72.035234 
L 351.797823 69.216511 
L 352.883624 69.921191 
L 353.969425 69.461617 
L 355.055227 67.990979 
L 356.141028 69.155234 
L 357.226829 69.676085 
L 358.31263 68.665021 
L 359.398431 69.768 
L 360.484232 68.021617 
L 361.570033 67.347574 
L 362.655835 67.684596 
L 364.827437 67.286298 
L 365.913238 66.305872 
L 366.999039 67.102468 
L 368.08484 67.653957 
L 369.170642 67.653957 
L 370.256443 67.316936 
L 372.428045 71.759489 
L 373.513846 70.166298 
L 374.599647 70.043745 
L 375.685448 70.043745 
L 376.77125 72.096511 
L 377.857051 71.02417 
L 378.942852 70.656511 
L 380.028653 69.063319 
L 381.114454 69.859915 
L 382.200255 70.962894 
L 383.286057 71.146723 
L 384.371858 70.043745 
L 385.457659 71.606298 
L 386.54346 71.146723 
L 387.629261 70.564596 
L 388.715062 70.932255 
L 389.800863 70.932255 
L 390.886665 70.105021 
L 391.972466 71.453106 
L 393.058267 68.879489 
L 395.229869 71.116085 
L 396.31567 71.269277 
L 397.401472 69.522894 
L 398.487273 70.779064 
L 398.487273 70.779064 
" clip-path="url(#p1ecfaad78d)" style="fill: none; stroke: #ff7f0e; stroke-width: 1.5; stroke-linecap: square"/>
   </g>
   <g id="line2d_21">
    <path d="M 73.832727 285.74687 
L 74.918528 264.722659 
L 76.00433 250.988249 
L 78.175932 228.907545 
L 79.261733 216.335278 
L 80.347534 221.723393 
L 81.433335 206.404244 
L 82.519137 203.446063 
L 83.604938 204.396907 
L 84.690739 192.564185 
L 85.77654 188.126914 
L 86.862341 187.598668 
L 87.948142 176.505491 
L 89.033943 182.210553 
L 90.119745 178.19588 
L 91.205546 175.13205 
L 93.377148 169.743935 
L 94.462949 171.011727 
L 95.54875 203.551712 
L 96.634552 194.043275 
L 97.720353 187.704317 
L 98.806154 190.028602 
L 99.891955 190.662497 
L 100.977756 185.908279 
L 102.063557 187.070421 
L 103.149358 178.512828 
L 104.23516 182.7388 
L 105.320961 173.019064 
L 106.406762 178.19588 
L 107.492563 170.483481 
L 108.578364 170.166533 
L 109.664165 170.800428 
L 110.749967 166.785755 
L 111.835768 168.159196 
L 112.921569 160.763745 
L 114.00737 165.201015 
L 115.093171 167.630949 
L 116.178972 167.630949 
L 117.264773 163.510627 
L 118.350575 161.186342 
L 119.436376 160.763745 
L 120.522177 153.262644 
L 121.607978 153.156995 
L 122.693779 157.171668 
L 123.77958 152.100502 
L 124.865382 154.107839 
L 125.951183 148.614075 
L 127.036984 147.980179 
L 128.122785 149.35362 
L 129.208586 146.606738 
L 131.380189 145.338946 
L 133.551791 143.33161 
L 134.637592 146.184141 
L 135.723393 143.965506 
L 136.809194 143.754207 
L 137.894995 144.282453 
L 138.980797 170.694779 
L 140.066598 168.581793 
L 141.152399 167.419651 
L 142.2382 167.736599 
L 143.324001 169.743935 
L 144.409802 164.989717 
L 145.495604 165.517963 
L 146.581405 162.242835 
L 147.667206 167.5253 
L 148.753007 162.137186 
L 149.838808 160.763745 
L 150.924609 158.43946 
L 152.01041 158.545109 
L 153.096212 153.790891 
L 154.182013 162.876731 
L 155.267814 159.179005 
L 156.353615 161.291991 
L 157.439416 158.756408 
L 158.525217 157.066019 
L 159.611019 157.699915 
L 160.69682 155.37563 
L 161.782621 152.41745 
L 162.868422 158.545109 
L 163.954223 147.029335 
L 165.040024 152.41745 
L 166.125825 158.862057 
L 167.211627 154.847384 
L 168.297428 153.051346 
L 169.383229 157.805564 
L 170.46903 155.48128 
L 171.554831 150.093165 
L 172.640632 149.670568 
L 173.726434 150.515762 
L 174.812235 147.029335 
L 175.898036 148.719724 
L 176.983837 148.297127 
L 178.069638 145.550245 
L 179.155439 144.599401 
L 180.24124 149.670568 
L 181.327042 144.282453 
L 182.412843 141.535572 
L 183.498644 141.74687 
L 184.584445 140.162131 
L 185.670246 145.550245 
L 187.841849 139.211287 
L 188.92765 137.415249 
L 190.013451 138.049145 
L 191.099252 140.056481 
L 192.185053 136.464405 
L 193.270854 138.577391 
L 194.356656 137.732197 
L 196.528258 137.309599 
L 197.614059 140.373429 
L 198.69986 134.034471 
L 199.785661 133.083627 
L 200.871462 134.24577 
L 201.957264 134.879665 
L 203.043065 131.498888 
L 204.128866 132.027134 
L 205.214667 129.385902 
L 206.300468 132.66103 
L 207.386269 132.555381 
L 208.472071 131.393238 
L 209.557872 133.083627 
L 210.643673 127.272916 
L 211.729474 128.435058 
L 213.901076 130.336745 
L 214.986877 130.442395 
L 216.072679 130.759343 
L 217.15848 127.484214 
L 218.244281 127.272916 
L 219.330082 128.329409 
L 220.415883 128.223759 
L 221.501684 128.857655 
L 222.587486 128.646357 
L 223.673287 128.11811 
L 224.759088 128.540707 
L 225.844889 158.016863 
L 226.93069 158.333811 
L 228.016491 157.277318 
L 229.102292 155.269981 
L 230.188094 155.48128 
L 231.273895 151.889203 
L 232.359696 152.3118 
L 233.445497 159.390304 
L 234.531298 153.685241 
L 235.617099 150.727061 
L 236.702901 149.881866 
L 237.788702 150.198814 
L 238.874503 151.994853 
L 239.960304 162.137186 
L 241.046105 156.326474 
L 242.131906 160.129849 
L 243.217708 149.881866 
L 244.303509 153.89654 
L 245.38931 160.129849 
L 246.475111 148.719724 
L 247.560912 156.115175 
L 248.646713 154.002189 
L 249.732514 146.184141 
L 250.818316 152.100502 
L 251.904117 154.530436 
L 252.989918 147.557582 
L 254.075719 151.044009 
L 255.16152 146.606738 
L 256.247321 153.156995 
L 257.333123 145.761544 
L 258.418924 148.719724 
L 259.504725 145.233297 
L 260.590526 144.493752 
L 261.676327 145.867193 
L 262.762128 149.247971 
L 263.847929 151.149658 
L 264.933731 147.029335 
L 266.019532 149.247971 
L 267.105333 149.247971 
L 268.191134 142.275117 
L 269.276935 139.739533 
L 270.362736 150.83271 
L 271.448538 144.8107 
L 272.534339 145.021999 
L 273.62014 146.395439 
L 274.705941 151.466606 
L 275.791742 135.302263 
L 276.877543 140.690377 
L 277.963344 141.218624 
L 279.049146 142.486415 
L 280.134947 144.705051 
L 281.220748 145.021999 
L 282.306549 147.663231 
L 283.39235 146.712387 
L 284.478151 150.621412 
L 285.563953 143.859856 
L 286.649754 145.655894 
L 287.735555 139.633884 
L 288.821356 141.324273 
L 289.907157 142.486415 
L 290.992958 140.479079 
L 292.07876 139.316936 
L 293.164561 137.520898 
L 294.250362 140.479079 
L 295.336163 137.098301 
L 296.421964 143.22596 
L 297.507765 137.837846 
L 298.593566 139.422585 
L 299.679368 133.400575 
L 300.765169 139.950832 
L 301.85097 130.970641 
L 302.936771 136.041808 
L 304.022572 134.034471 
L 305.108373 134.24577 
L 306.194175 140.056481 
L 307.279976 137.20395 
L 308.365777 135.936158 
L 309.451578 136.358756 
L 310.537379 134.985315 
L 311.62318 137.415249 
L 312.708981 135.513561 
L 313.794783 134.351419 
L 314.880584 131.604537 
L 315.966385 139.211287 
L 317.052186 130.970641 
L 318.137987 128.540707 
L 319.223788 136.781353 
L 320.30959 132.66103 
L 321.395391 130.125447 
L 322.481192 132.872329 
L 323.566993 132.238433 
L 324.652794 128.012461 
L 325.738595 129.068954 
L 326.824396 129.385902 
L 327.910198 130.548044 
L 328.995999 124.420384 
L 330.0818 126.533371 
L 331.167601 125.582527 
L 332.253402 129.385902 
L 333.339203 123.152593 
L 334.425005 124.631683 
L 335.510806 126.427721 
L 336.596607 123.152593 
L 337.682408 124.737332 
L 338.768209 125.899475 
L 339.85401 125.688176 
L 340.939811 123.680839 
L 342.025613 124.103437 
L 343.111414 125.899475 
L 344.197215 126.744669 
L 345.283016 125.371228 
L 346.368817 122.624346 
L 347.454618 123.152593 
L 348.54042 121.039607 
L 349.626221 124.631683 
L 350.712022 122.835645 
L 351.797823 121.99045 
L 352.883624 116.602336 
L 353.969425 120.722659 
L 355.055227 120.51136 
L 356.141028 122.518697 
L 357.226829 122.941294 
L 358.31263 120.405711 
L 359.398431 121.356555 
L 360.484232 120.088763 
L 361.570033 117.55318 
L 362.655835 117.55318 
L 363.741636 118.820971 
L 364.827437 116.919284 
L 365.913238 118.609673 
L 366.999039 117.975777 
L 368.08484 118.820971 
L 369.170642 117.44753 
L 370.256443 119.349218 
L 371.342244 119.137919 
L 372.428045 122.624346 
L 373.513846 120.828308 
L 374.599647 117.975777 
L 375.685448 122.835645 
L 376.77125 124.103437 
L 377.857051 127.167266 
L 378.942852 121.462204 
L 380.028653 123.152593 
L 381.114454 123.046944 
L 382.200255 124.526034 
L 383.286057 122.729996 
L 385.457659 125.582527 
L 386.54346 126.005124 
L 387.629261 123.997787 
L 388.715062 123.469541 
L 389.800863 119.666166 
L 390.886665 123.258242 
L 391.972466 124.209086 
L 393.058267 120.51136 
L 394.144068 122.0961 
L 395.229869 122.729996 
L 396.31567 125.265579 
L 397.401472 120.405711 
L 398.487273 121.567853 
L 398.487273 121.567853 
" clip-path="url(#p1ecfaad78d)" style="fill: none; stroke: #2ca02c; stroke-width: 1.5; stroke-linecap: square"/>
   </g>
   <g id="line2d_22">
    <path d="M 368.08484 66.52034 
L 369.170642 66.765447 
L 370.256443 68.297362 
L 371.342244 66.550979 
L 372.428045 66.979915 
L 373.513846 66.152681 
L 374.599647 67.929702 
L 375.685448 67.776511 
L 376.77125 68.542468 
L 377.857051 68.113532 
L 378.942852 67.408851 
L 380.028653 67.776511 
L 381.114454 67.500766 
L 382.200255 69.921191 
L 384.371858 68.51183 
L 385.457659 68.634383 
L 386.54346 67.25566 
L 387.629261 68.910128 
L 388.715062 67.470128 
L 389.800863 67.684596 
L 390.886665 67.623319 
L 391.972466 69.553532 
L 393.058267 66.949277 
L 394.144068 68.69566 
L 395.229869 68.174809 
L 396.31567 69.277787 
L 397.401472 71.330553 
L 398.487273 68.848851 
L 398.487273 68.848851 
" clip-path="url(#p1ecfaad78d)" style="fill: none; stroke: #d62728; stroke-width: 1.5; stroke-linecap: square"/>
   </g>
   <g id="line2d_23">
    <path d="M 368.08484 117.44753 
L 369.170642 115.862791 
L 370.256443 115.651492 
L 371.342244 117.024933 
L 372.428045 115.228895 
L 373.513846 116.07409 
L 374.599647 119.666166 
L 375.685448 116.602336 
L 376.77125 117.975777 
L 377.857051 117.870128 
L 378.942852 118.820971 
L 380.028653 117.024933 
L 381.114454 117.130583 
L 382.200255 119.349218 
L 383.286057 119.243569 
L 384.371858 119.877464 
L 386.54346 116.919284 
L 387.629261 121.039607 
L 388.715062 114.700649 
L 389.800863 115.123246 
L 390.886665 119.243569 
L 391.972466 121.250905 
L 393.058267 118.398374 
L 394.144068 118.820971 
L 395.229869 116.07409 
L 396.31567 122.729996 
L 397.401472 123.892138 
L 398.487273 120.61701 
L 398.487273 120.61701 
" clip-path="url(#p1ecfaad78d)" style="fill: none; stroke: #9467bd; stroke-width: 1.5; stroke-linecap: square"/>
   </g>
   <g id="patch_3">
    <path d="M 57.6 307.584 
L 57.6 41.472 
" style="fill: none; stroke: #000000; stroke-width: 0.8; stroke-linejoin: miter; stroke-linecap: square"/>
   </g>
   <g id="patch_4">
    <path d="M 414.72 307.584 
L 414.72 41.472 
" style="fill: none; stroke: #000000; stroke-width: 0.8; stroke-linejoin: miter; stroke-linecap: square"/>
   </g>
   <g id="patch_5">
    <path d="M 57.6 307.584 
L 414.72 307.584 
" style="fill: none; stroke: #000000; stroke-width: 0.8; stroke-linejoin: miter; stroke-linecap: square"/>
   </g>
   <g id="patch_6">
    <path d="M 57.6 41.472 
L 414.72 41.472 
" style="fill: none; stroke: #000000; stroke-width: 0.8; stroke-linejoin: miter; stroke-linecap: square"/>
   </g>
   <g id="text_21">
    <!-- Learning Curves -->
    <g transform="translate(187.37625 35.472) scale(0.12 -0.12)">
     <defs>
      <path id="DejaVuSans-4c" d="M 628 4666 
L 1259 4666 
L 1259 531 
L 3531 531 
L 3531 0 
L 628 0 
L 628 4666 
z
" transform="scale(0.015625)"/>
      <path id="DejaVuSans-65" d="M 3597 1894 
L 3597 1613 
L 953 1613 
Q 991 1019 1311 708 
Q 1631 397 2203 397 
Q 2534 397 2845 478 
Q 3156 559 3463 722 
L 3463 178 
Q 3153 47 2828 -22 
Q 2503 -91 2169 -91 
Q 1331 -91 842 396 
Q 353 884 353 1716 
Q 353 2575 817 3079 
Q 1281 3584 2069 3584 
Q 2775 3584 3186 3129 
Q 3597 2675 3597 1894 
z
M 3022 2063 
Q 3016 2534 2758 2815 
Q 2500 3097 2075 3097 
Q 1594 3097 1305 2825 
Q 1016 2553 972 2059 
L 3022 2063 
z
" transform="scale(0.015625)"/>
      <path id="DejaVuSans-6e" d="M 3513 2113 
L 3513 0 
L 2938 0 
L 2938 2094 
Q 2938 2591 2744 2837 
Q 2550 3084 2163 3084 
Q 1697 3084 1428 2787 
Q 1159 2491 1159 1978 
L 1159 0 
L 581 0 
L 581 3500 
L 1159 3500 
L 1159 2956 
Q 1366 3272 1645 3428 
Q 1925 3584 2291 3584 
Q 2894 3584 3203 3211 
Q 3513 2838 3513 2113 
z
" transform="scale(0.015625)"/>
      <path id="DejaVuSans-69" d="M 603 3500 
L 1178 3500 
L 1178 0 
L 603 0 
L 603 3500 
z
M 603 4863 
L 1178 4863 
L 1178 4134 
L 603 4134 
L 603 4863 
z
" transform="scale(0.015625)"/>
      <path id="DejaVuSans-67" d="M 2906 1791 
Q 2906 2416 2648 2759 
Q 2391 3103 1925 3103 
Q 1463 3103 1205 2759 
Q 947 2416 947 1791 
Q 947 1169 1205 825 
Q 1463 481 1925 481 
Q 2391 481 2648 825 
Q 2906 1169 2906 1791 
z
M 3481 434 
Q 3481 -459 3084 -895 
Q 2688 -1331 1869 -1331 
Q 1566 -1331 1297 -1286 
Q 1028 -1241 775 -1147 
L 775 -588 
Q 1028 -725 1275 -790 
Q 1522 -856 1778 -856 
Q 2344 -856 2625 -561 
Q 2906 -266 2906 331 
L 2906 616 
Q 2728 306 2450 153 
Q 2172 0 1784 0 
Q 1141 0 747 490 
Q 353 981 353 1791 
Q 353 2603 747 3093 
Q 1141 3584 1784 3584 
Q 2172 3584 2450 3431 
Q 2728 3278 2906 2969 
L 2906 3500 
L 3481 3500 
L 3481 434 
z
" transform="scale(0.015625)"/>
      <path id="DejaVuSans-20" transform="scale(0.015625)"/>
      <path id="DejaVuSans-43" d="M 4122 4306 
L 4122 3641 
Q 3803 3938 3442 4084 
Q 3081 4231 2675 4231 
Q 1875 4231 1450 3742 
Q 1025 3253 1025 2328 
Q 1025 1406 1450 917 
Q 1875 428 2675 428 
Q 3081 428 3442 575 
Q 3803 722 4122 1019 
L 4122 359 
Q 3791 134 3420 21 
Q 3050 -91 2638 -91 
Q 1578 -91 968 557 
Q 359 1206 359 2328 
Q 359 3453 968 4101 
Q 1578 4750 2638 4750 
Q 3056 4750 3426 4639 
Q 3797 4528 4122 4306 
z
" transform="scale(0.015625)"/>
      <path id="DejaVuSans-76" d="M 191 3500 
L 800 3500 
L 1894 563 
L 2988 3500 
L 3597 3500 
L 2284 0 
L 1503 0 
L 191 3500 
z
" transform="scale(0.015625)"/>
     </defs>
     <use xlink:href="#DejaVuSans-4c"/>
     <use xlink:href="#DejaVuSans-65" x="53.962891"/>
     <use xlink:href="#DejaVuSans-61" x="115.486328"/>
     <use xlink:href="#DejaVuSans-72" x="176.765625"/>
     <use xlink:href="#DejaVuSans-6e" x="216.128906"/>
     <use xlink:href="#DejaVuSans-69" x="279.507812"/>
     <use xlink:href="#DejaVuSans-6e" x="307.291016"/>
     <use xlink:href="#DejaVuSans-67" x="370.669922"/>
     <use xlink:href="#DejaVuSans-20" x="434.146484"/>
     <use xlink:href="#DejaVuSans-43" x="465.933594"/>
     <use xlink:href="#DejaVuSans-75" x="535.757812"/>
     <use xlink:href="#DejaVuSans-72" x="599.136719"/>
     <use xlink:href="#DejaVuSans-76" x="640.25"/>
     <use xlink:href="#DejaVuSans-65" x="699.429688"/>
     <use xlink:href="#DejaVuSans-73" x="760.953125"/>
    </g>
   </g>
   <g id="legend_1">
    <g id="patch_7">
     <path d="M 214.18875 302.584 
L 407.72 302.584 
Q 409.72 302.584 409.72 300.584 
L 409.72 228.193375 
Q 409.72 226.193375 407.72 226.193375 
L 214.18875 226.193375 
Q 212.18875 226.193375 212.18875 228.193375 
L 212.18875 300.584 
Q 212.18875 302.584 214.18875 302.584 
z
" style="fill: #ffffff; opacity: 0.8; stroke: #cccccc; stroke-linejoin: miter"/>
    </g>
    <g id="line2d_24">
     <path d="M 216.18875 234.291812 
L 226.18875 234.291812 
L 236.18875 234.291812 
" style="fill: none; stroke: #1f77b4; stroke-width: 1.5; stroke-linecap: square"/>
    </g>
    <g id="text_22">
     <!-- Train Accuracy -->
     <g transform="translate(244.18875 237.791812) scale(0.1 -0.1)">
      <defs>
       <path id="DejaVuSans-54" d="M -19 4666 
L 3928 4666 
L 3928 4134 
L 2272 4134 
L 2272 0 
L 1638 0 
L 1638 4134 
L -19 4134 
L -19 4666 
z
" transform="scale(0.015625)"/>
      </defs>
      <use xlink:href="#DejaVuSans-54"/>
      <use xlink:href="#DejaVuSans-72" x="46.333984"/>
      <use xlink:href="#DejaVuSans-61" x="87.447266"/>
      <use xlink:href="#DejaVuSans-69" x="148.726562"/>
      <use xlink:href="#DejaVuSans-6e" x="176.509766"/>
      <use xlink:href="#DejaVuSans-20" x="239.888672"/>
      <use xlink:href="#DejaVuSans-41" x="271.675781"/>
      <use xlink:href="#DejaVuSans-63" x="338.333984"/>
      <use xlink:href="#DejaVuSans-63" x="393.314453"/>
      <use xlink:href="#DejaVuSans-75" x="448.294922"/>
      <use xlink:href="#DejaVuSans-72" x="511.673828"/>
      <use xlink:href="#DejaVuSans-61" x="552.787109"/>
      <use xlink:href="#DejaVuSans-63" x="614.066406"/>
      <use xlink:href="#DejaVuSans-79" x="669.046875"/>
     </g>
    </g>
    <g id="line2d_25">
     <path d="M 216.18875 248.969937 
L 226.18875 248.969937 
L 236.18875 248.969937 
" style="fill: none; stroke: #ff7f0e; stroke-width: 1.5; stroke-linecap: square"/>
    </g>
    <g id="text_23">
     <!-- Validation Accuracy -->
     <g transform="translate(244.18875 252.469937) scale(0.1 -0.1)">
      <defs>
       <path id="DejaVuSans-56" d="M 1831 0 
L 50 4666 
L 709 4666 
L 2188 738 
L 3669 4666 
L 4325 4666 
L 2547 0 
L 1831 0 
z
" transform="scale(0.015625)"/>
       <path id="DejaVuSans-6c" d="M 603 4863 
L 1178 4863 
L 1178 0 
L 603 0 
L 603 4863 
z
" transform="scale(0.015625)"/>
       <path id="DejaVuSans-64" d="M 2906 2969 
L 2906 4863 
L 3481 4863 
L 3481 0 
L 2906 0 
L 2906 525 
Q 2725 213 2448 61 
Q 2172 -91 1784 -91 
Q 1150 -91 751 415 
Q 353 922 353 1747 
Q 353 2572 751 3078 
Q 1150 3584 1784 3584 
Q 2172 3584 2448 3432 
Q 2725 3281 2906 2969 
z
M 947 1747 
Q 947 1113 1208 752 
Q 1469 391 1925 391 
Q 2381 391 2643 752 
Q 2906 1113 2906 1747 
Q 2906 2381 2643 2742 
Q 2381 3103 1925 3103 
Q 1469 3103 1208 2742 
Q 947 2381 947 1747 
z
" transform="scale(0.015625)"/>
       <path id="DejaVuSans-74" d="M 1172 4494 
L 1172 3500 
L 2356 3500 
L 2356 3053 
L 1172 3053 
L 1172 1153 
Q 1172 725 1289 603 
Q 1406 481 1766 481 
L 2356 481 
L 2356 0 
L 1766 0 
Q 1100 0 847 248 
Q 594 497 594 1153 
L 594 3053 
L 172 3053 
L 172 3500 
L 594 3500 
L 594 4494 
L 1172 4494 
z
" transform="scale(0.015625)"/>
      </defs>
      <use xlink:href="#DejaVuSans-56"/>
      <use xlink:href="#DejaVuSans-61" x="60.658203"/>
      <use xlink:href="#DejaVuSans-6c" x="121.9375"/>
      <use xlink:href="#DejaVuSans-69" x="149.720703"/>
      <use xlink:href="#DejaVuSans-64" x="177.503906"/>
      <use xlink:href="#DejaVuSans-61" x="240.980469"/>
      <use xlink:href="#DejaVuSans-74" x="302.259766"/>
      <use xlink:href="#DejaVuSans-69" x="341.46875"/>
      <use xlink:href="#DejaVuSans-6f" x="369.251953"/>
      <use xlink:href="#DejaVuSans-6e" x="430.433594"/>
      <use xlink:href="#DejaVuSans-20" x="493.8125"/>
      <use xlink:href="#DejaVuSans-41" x="525.599609"/>
      <use xlink:href="#DejaVuSans-63" x="592.257812"/>
      <use xlink:href="#DejaVuSans-63" x="647.238281"/>
      <use xlink:href="#DejaVuSans-75" x="702.21875"/>
      <use xlink:href="#DejaVuSans-72" x="765.597656"/>
      <use xlink:href="#DejaVuSans-61" x="806.710938"/>
      <use xlink:href="#DejaVuSans-63" x="867.990234"/>
      <use xlink:href="#DejaVuSans-79" x="922.970703"/>
     </g>
    </g>
    <g id="line2d_26">
     <path d="M 216.18875 263.648062 
L 226.18875 263.648062 
L 236.18875 263.648062 
" style="fill: none; stroke: #2ca02c; stroke-width: 1.5; stroke-linecap: square"/>
    </g>
    <g id="text_24">
     <!-- Robust Validation Accuracy -->
     <g transform="translate(244.18875 267.148062) scale(0.1 -0.1)">
      <defs>
       <path id="DejaVuSans-52" d="M 2841 2188 
Q 3044 2119 3236 1894 
Q 3428 1669 3622 1275 
L 4263 0 
L 3584 0 
L 2988 1197 
Q 2756 1666 2539 1819 
Q 2322 1972 1947 1972 
L 1259 1972 
L 1259 0 
L 628 0 
L 628 4666 
L 2053 4666 
Q 2853 4666 3247 4331 
Q 3641 3997 3641 3322 
Q 3641 2881 3436 2590 
Q 3231 2300 2841 2188 
z
M 1259 4147 
L 1259 2491 
L 2053 2491 
Q 2509 2491 2742 2702 
Q 2975 2913 2975 3322 
Q 2975 3731 2742 3939 
Q 2509 4147 2053 4147 
L 1259 4147 
z
" transform="scale(0.015625)"/>
       <path id="DejaVuSans-62" d="M 3116 1747 
Q 3116 2381 2855 2742 
Q 2594 3103 2138 3103 
Q 1681 3103 1420 2742 
Q 1159 2381 1159 1747 
Q 1159 1113 1420 752 
Q 1681 391 2138 391 
Q 2594 391 2855 752 
Q 3116 1113 3116 1747 
z
M 1159 2969 
Q 1341 3281 1617 3432 
Q 1894 3584 2278 3584 
Q 2916 3584 3314 3078 
Q 3713 2572 3713 1747 
Q 3713 922 3314 415 
Q 2916 -91 2278 -91 
Q 1894 -91 1617 61 
Q 1341 213 1159 525 
L 1159 0 
L 581 0 
L 581 4863 
L 1159 4863 
L 1159 2969 
z
" transform="scale(0.015625)"/>
      </defs>
      <use xlink:href="#DejaVuSans-52"/>
      <use xlink:href="#DejaVuSans-6f" x="64.982422"/>
      <use xlink:href="#DejaVuSans-62" x="126.164062"/>
      <use xlink:href="#DejaVuSans-75" x="189.640625"/>
      <use xlink:href="#DejaVuSans-73" x="253.019531"/>
      <use xlink:href="#DejaVuSans-74" x="305.119141"/>
      <use xlink:href="#DejaVuSans-20" x="344.328125"/>
      <use xlink:href="#DejaVuSans-56" x="376.115234"/>
      <use xlink:href="#DejaVuSans-61" x="436.773438"/>
      <use xlink:href="#DejaVuSans-6c" x="498.052734"/>
      <use xlink:href="#DejaVuSans-69" x="525.835938"/>
      <use xlink:href="#DejaVuSans-64" x="553.619141"/>
      <use xlink:href="#DejaVuSans-61" x="617.095703"/>
      <use xlink:href="#DejaVuSans-74" x="678.375"/>
      <use xlink:href="#DejaVuSans-69" x="717.583984"/>
      <use xlink:href="#DejaVuSans-6f" x="745.367188"/>
      <use xlink:href="#DejaVuSans-6e" x="806.548828"/>
      <use xlink:href="#DejaVuSans-20" x="869.927734"/>
      <use xlink:href="#DejaVuSans-41" x="901.714844"/>
      <use xlink:href="#DejaVuSans-63" x="968.373047"/>
      <use xlink:href="#DejaVuSans-63" x="1023.353516"/>
      <use xlink:href="#DejaVuSans-75" x="1078.333984"/>
      <use xlink:href="#DejaVuSans-72" x="1141.712891"/>
      <use xlink:href="#DejaVuSans-61" x="1182.826172"/>
      <use xlink:href="#DejaVuSans-63" x="1244.105469"/>
      <use xlink:href="#DejaVuSans-79" x="1299.085938"/>
     </g>
    </g>
    <g id="line2d_27">
     <path d="M 216.18875 278.326188 
L 226.18875 278.326188 
L 236.18875 278.326188 
" style="fill: none; stroke: #d62728; stroke-width: 1.5; stroke-linecap: square"/>
    </g>
    <g id="text_25">
     <!-- SWA Validation Accuracy -->
     <g transform="translate(244.18875 281.826188) scale(0.1 -0.1)">
      <defs>
       <path id="DejaVuSans-53" d="M 3425 4513 
L 3425 3897 
Q 3066 4069 2747 4153 
Q 2428 4238 2131 4238 
Q 1616 4238 1336 4038 
Q 1056 3838 1056 3469 
Q 1056 3159 1242 3001 
Q 1428 2844 1947 2747 
L 2328 2669 
Q 3034 2534 3370 2195 
Q 3706 1856 3706 1288 
Q 3706 609 3251 259 
Q 2797 -91 1919 -91 
Q 1588 -91 1214 -16 
Q 841 59 441 206 
L 441 856 
Q 825 641 1194 531 
Q 1563 422 1919 422 
Q 2459 422 2753 634 
Q 3047 847 3047 1241 
Q 3047 1584 2836 1778 
Q 2625 1972 2144 2069 
L 1759 2144 
Q 1053 2284 737 2584 
Q 422 2884 422 3419 
Q 422 4038 858 4394 
Q 1294 4750 2059 4750 
Q 2388 4750 2728 4690 
Q 3069 4631 3425 4513 
z
" transform="scale(0.015625)"/>
       <path id="DejaVuSans-57" d="M 213 4666 
L 850 4666 
L 1831 722 
L 2809 4666 
L 3519 4666 
L 4500 722 
L 5478 4666 
L 6119 4666 
L 4947 0 
L 4153 0 
L 3169 4050 
L 2175 0 
L 1381 0 
L 213 4666 
z
" transform="scale(0.015625)"/>
      </defs>
      <use xlink:href="#DejaVuSans-53"/>
      <use xlink:href="#DejaVuSans-57" x="63.476562"/>
      <use xlink:href="#DejaVuSans-41" x="156.853516"/>
      <use xlink:href="#DejaVuSans-20" x="225.261719"/>
      <use xlink:href="#DejaVuSans-56" x="257.048828"/>
      <use xlink:href="#DejaVuSans-61" x="317.707031"/>
      <use xlink:href="#DejaVuSans-6c" x="378.986328"/>
      <use xlink:href="#DejaVuSans-69" x="406.769531"/>
      <use xlink:href="#DejaVuSans-64" x="434.552734"/>
      <use xlink:href="#DejaVuSans-61" x="498.029297"/>
      <use xlink:href="#DejaVuSans-74" x="559.308594"/>
      <use xlink:href="#DejaVuSans-69" x="598.517578"/>
      <use xlink:href="#DejaVuSans-6f" x="626.300781"/>
      <use xlink:href="#DejaVuSans-6e" x="687.482422"/>
      <use xlink:href="#DejaVuSans-20" x="750.861328"/>
      <use xlink:href="#DejaVuSans-41" x="782.648438"/>
      <use xlink:href="#DejaVuSans-63" x="849.306641"/>
      <use xlink:href="#DejaVuSans-63" x="904.287109"/>
      <use xlink:href="#DejaVuSans-75" x="959.267578"/>
      <use xlink:href="#DejaVuSans-72" x="1022.646484"/>
      <use xlink:href="#DejaVuSans-61" x="1063.759766"/>
      <use xlink:href="#DejaVuSans-63" x="1125.039062"/>
      <use xlink:href="#DejaVuSans-79" x="1180.019531"/>
     </g>
    </g>
    <g id="line2d_28">
     <path d="M 216.18875 293.004312 
L 226.18875 293.004312 
L 236.18875 293.004312 
" style="fill: none; stroke: #9467bd; stroke-width: 1.5; stroke-linecap: square"/>
    </g>
    <g id="text_26">
     <!-- SWA Robust Validation Accuracy -->
     <g transform="translate(244.18875 296.504312) scale(0.1 -0.1)">
      <use xlink:href="#DejaVuSans-53"/>
      <use xlink:href="#DejaVuSans-57" x="63.476562"/>
      <use xlink:href="#DejaVuSans-41" x="156.853516"/>
      <use xlink:href="#DejaVuSans-20" x="225.261719"/>
      <use xlink:href="#DejaVuSans-52" x="257.048828"/>
      <use xlink:href="#DejaVuSans-6f" x="322.03125"/>
      <use xlink:href="#DejaVuSans-62" x="383.212891"/>
      <use xlink:href="#DejaVuSans-75" x="446.689453"/>
      <use xlink:href="#DejaVuSans-73" x="510.068359"/>
      <use xlink:href="#DejaVuSans-74" x="562.167969"/>
      <use xlink:href="#DejaVuSans-20" x="601.376953"/>
      <use xlink:href="#DejaVuSans-56" x="633.164062"/>
      <use xlink:href="#DejaVuSans-61" x="693.822266"/>
      <use xlink:href="#DejaVuSans-6c" x="755.101562"/>
      <use xlink:href="#DejaVuSans-69" x="782.884766"/>
      <use xlink:href="#DejaVuSans-64" x="810.667969"/>
      <use xlink:href="#DejaVuSans-61" x="874.144531"/>
      <use xlink:href="#DejaVuSans-74" x="935.423828"/>
      <use xlink:href="#DejaVuSans-69" x="974.632812"/>
      <use xlink:href="#DejaVuSans-6f" x="1002.416016"/>
      <use xlink:href="#DejaVuSans-6e" x="1063.597656"/>
      <use xlink:href="#DejaVuSans-20" x="1126.976562"/>
      <use xlink:href="#DejaVuSans-41" x="1158.763672"/>
      <use xlink:href="#DejaVuSans-63" x="1225.421875"/>
      <use xlink:href="#DejaVuSans-63" x="1280.402344"/>
      <use xlink:href="#DejaVuSans-75" x="1335.382812"/>
      <use xlink:href="#DejaVuSans-72" x="1398.761719"/>
      <use xlink:href="#DejaVuSans-61" x="1439.875"/>
      <use xlink:href="#DejaVuSans-63" x="1501.154297"/>
      <use xlink:href="#DejaVuSans-79" x="1556.134766"/>
     </g>
    </g>
   </g>
  </g>
 </g>
 <defs>
  <clipPath id="p1ecfaad78d">
   <rect x="57.6" y="41.472" width="357.12" height="266.112"/>
  </clipPath>
 </defs>
</svg>
