<?xml version="1.0" encoding="utf-8" standalone="no"?>
<!DOCTYPE svg PUBLIC "-//W3C//DTD SVG 1.1//EN"
  "http://www.w3.org/Graphics/SVG/1.1/DTD/svg11.dtd">
<svg xmlns:xlink="http://www.w3.org/1999/xlink" width="460.8pt" height="345.6pt" viewBox="0 0 460.8 345.6" xmlns="http://www.w3.org/2000/svg" version="1.1">
 <metadata>
  <rdf:RDF xmlns:dc="http://purl.org/dc/elements/1.1/" xmlns:cc="http://creativecommons.org/ns#" xmlns:rdf="http://www.w3.org/1999/02/22-rdf-syntax-ns#">
   <cc:Work>
    <dc:type rdf:resource="http://purl.org/dc/dcmitype/StillImage"/>
    <dc:date>2025-11-04T18:37:04.660719</dc:date>
    <dc:format>image/svg+xml</dc:format>
    <dc:creator>
     <cc:Agent>
      <dc:title>Matplotlib v3.9.1, https://matplotlib.org/</dc:title>
     </cc:Agent>
    </dc:creator>
   </cc:Work>
  </rdf:RDF>
 </metadata>
 <defs>
  <style type="text/css">*{stroke-linejoin: round; stroke-linecap: butt}</style>
 </defs>
 <g id="figure_1">
  <g id="patch_1">
   <path d="M 0 345.6 
L 460.8 345.6 
L 460.8 0 
L 0 0 
z
" style="fill: #ffffff"/>
  </g>
  <g id="axes_1">
   <g id="patch_2">
    <path d="M 57.6 307.584 
L 414.72 307.584 
L 414.72 41.472 
L 57.6 41.472 
z
" style="fill: #ffffff"/>
   </g>
   <g id="matplotlib.axis_1">
    <g id="xtick_1">
     <g id="line2d_1">
      <defs>
       <path id="mb1071c877f" d="M 0 0 
L 0 3.5 
" style="stroke: #000000; stroke-width: 0.8"/>
      </defs>
      <g>
       <use xlink:href="#mb1071c877f" x="73.832727" y="307.584" style="stroke: #000000; stroke-width: 0.8"/>
      </g>
     </g>
     <g id="text_1">
      <!-- 1 -->
      <g transform="translate(70.651477 322.182437) scale(0.1 -0.1)">
       <defs>
        <path id="DejaVuSans-31" d="M 794 531 
L 1825 531 
L 1825 4091 
L 703 3866 
L 703 4441 
L 1819 4666 
L 2450 4666 
L 2450 531 
L 3481 531 
L 3481 0 
L 794 0 
L 794 531 
z
" transform="scale(0.015625)"/>
       </defs>
       <use xlink:href="#DejaVuSans-31"/>
      </g>
     </g>
    </g>
    <g id="xtick_2">
     <g id="line2d_2">
      <g>
       <use xlink:href="#mb1071c877f" x="109.664165" y="307.584" style="stroke: #000000; stroke-width: 0.8"/>
      </g>
     </g>
     <g id="text_2">
      <!-- 34 -->
      <g transform="translate(103.301665 322.182437) scale(0.1 -0.1)">
       <defs>
        <path id="DejaVuSans-33" d="M 2597 2516 
Q 3050 2419 3304 2112 
Q 3559 1806 3559 1356 
Q 3559 666 3084 287 
Q 2609 -91 1734 -91 
Q 1441 -91 1130 -33 
Q 819 25 488 141 
L 488 750 
Q 750 597 1062 519 
Q 1375 441 1716 441 
Q 2309 441 2620 675 
Q 2931 909 2931 1356 
Q 2931 1769 2642 2001 
Q 2353 2234 1838 2234 
L 1294 2234 
L 1294 2753 
L 1863 2753 
Q 2328 2753 2575 2939 
Q 2822 3125 2822 3475 
Q 2822 3834 2567 4026 
Q 2313 4219 1838 4219 
Q 1578 4219 1281 4162 
Q 984 4106 628 3988 
L 628 4550 
Q 988 4650 1302 4700 
Q 1616 4750 1894 4750 
Q 2613 4750 3031 4423 
Q 3450 4097 3450 3541 
Q 3450 3153 3228 2886 
Q 3006 2619 2597 2516 
z
" transform="scale(0.015625)"/>
        <path id="DejaVuSans-34" d="M 2419 4116 
L 825 1625 
L 2419 1625 
L 2419 4116 
z
M 2253 4666 
L 3047 4666 
L 3047 1625 
L 3713 1625 
L 3713 1100 
L 3047 1100 
L 3047 0 
L 2419 0 
L 2419 1100 
L 313 1100 
L 313 1709 
L 2253 4666 
z
" transform="scale(0.015625)"/>
       </defs>
       <use xlink:href="#DejaVuSans-33"/>
       <use xlink:href="#DejaVuSans-34" x="63.623047"/>
      </g>
     </g>
    </g>
    <g id="xtick_3">
     <g id="line2d_3">
      <g>
       <use xlink:href="#mb1071c877f" x="145.495604" y="307.584" style="stroke: #000000; stroke-width: 0.8"/>
      </g>
     </g>
     <g id="text_3">
      <!-- 67 -->
      <g transform="translate(139.133104 322.182437) scale(0.1 -0.1)">
       <defs>
        <path id="DejaVuSans-36" d="M 2113 2584 
Q 1688 2584 1439 2293 
Q 1191 2003 1191 1497 
Q 1191 994 1439 701 
Q 1688 409 2113 409 
Q 2538 409 2786 701 
Q 3034 994 3034 1497 
Q 3034 2003 2786 2293 
Q 2538 2584 2113 2584 
z
M 3366 4563 
L 3366 3988 
Q 3128 4100 2886 4159 
Q 2644 4219 2406 4219 
Q 1781 4219 1451 3797 
Q 1122 3375 1075 2522 
Q 1259 2794 1537 2939 
Q 1816 3084 2150 3084 
Q 2853 3084 3261 2657 
Q 3669 2231 3669 1497 
Q 3669 778 3244 343 
Q 2819 -91 2113 -91 
Q 1303 -91 875 529 
Q 447 1150 447 2328 
Q 447 3434 972 4092 
Q 1497 4750 2381 4750 
Q 2619 4750 2861 4703 
Q 3103 4656 3366 4563 
z
" transform="scale(0.015625)"/>
        <path id="DejaVuSans-37" d="M 525 4666 
L 3525 4666 
L 3525 4397 
L 1831 0 
L 1172 0 
L 2766 4134 
L 525 4134 
L 525 4666 
z
" transform="scale(0.015625)"/>
       </defs>
       <use xlink:href="#DejaVuSans-36"/>
       <use xlink:href="#DejaVuSans-37" x="63.623047"/>
      </g>
     </g>
    </g>
    <g id="xtick_4">
     <g id="line2d_4">
      <g>
       <use xlink:href="#mb1071c877f" x="181.327042" y="307.584" style="stroke: #000000; stroke-width: 0.8"/>
      </g>
     </g>
     <g id="text_4">
      <!-- 100 -->
      <g transform="translate(171.783292 322.182437) scale(0.1 -0.1)">
       <defs>
        <path id="DejaVuSans-30" d="M 2034 4250 
Q 1547 4250 1301 3770 
Q 1056 3291 1056 2328 
Q 1056 1369 1301 889 
Q 1547 409 2034 409 
Q 2525 409 2770 889 
Q 3016 1369 3016 2328 
Q 3016 3291 2770 3770 
Q 2525 4250 2034 4250 
z
M 2034 4750 
Q 2819 4750 3233 4129 
Q 3647 3509 3647 2328 
Q 3647 1150 3233 529 
Q 2819 -91 2034 -91 
Q 1250 -91 836 529 
Q 422 1150 422 2328 
Q 422 3509 836 4129 
Q 1250 4750 2034 4750 
z
" transform="scale(0.015625)"/>
       </defs>
       <use xlink:href="#DejaVuSans-31"/>
       <use xlink:href="#DejaVuSans-30" x="63.623047"/>
       <use xlink:href="#DejaVuSans-30" x="127.246094"/>
      </g>
     </g>
    </g>
    <g id="xtick_5">
     <g id="line2d_5">
      <g>
       <use xlink:href="#mb1071c877f" x="217.15848" y="307.584" style="stroke: #000000; stroke-width: 0.8"/>
      </g>
     </g>
     <g id="text_5">
      <!-- 133 -->
      <g transform="translate(207.61473 322.182437) scale(0.1 -0.1)">
       <use xlink:href="#DejaVuSans-31"/>
       <use xlink:href="#DejaVuSans-33" x="63.623047"/>
       <use xlink:href="#DejaVuSans-33" x="127.246094"/>
      </g>
     </g>
    </g>
    <g id="xtick_6">
     <g id="line2d_6">
      <g>
       <use xlink:href="#mb1071c877f" x="254.075719" y="307.584" style="stroke: #000000; stroke-width: 0.8"/>
      </g>
     </g>
     <g id="text_6">
      <!-- 167 -->
      <g transform="translate(244.531969 322.182437) scale(0.1 -0.1)">
       <use xlink:href="#DejaVuSans-31"/>
       <use xlink:href="#DejaVuSans-36" x="63.623047"/>
       <use xlink:href="#DejaVuSans-37" x="127.246094"/>
      </g>
     </g>
    </g>
    <g id="xtick_7">
     <g id="line2d_7">
      <g>
       <use xlink:href="#mb1071c877f" x="289.907157" y="307.584" style="stroke: #000000; stroke-width: 0.8"/>
      </g>
     </g>
     <g id="text_7">
      <!-- 200 -->
      <g transform="translate(280.363407 322.182437) scale(0.1 -0.1)">
       <defs>
        <path id="DejaVuSans-32" d="M 1228 531 
L 3431 531 
L 3431 0 
L 469 0 
L 469 531 
Q 828 903 1448 1529 
Q 2069 2156 2228 2338 
Q 2531 2678 2651 2914 
Q 2772 3150 2772 3378 
Q 2772 3750 2511 3984 
Q 2250 4219 1831 4219 
Q 1534 4219 1204 4116 
Q 875 4013 500 3803 
L 500 4441 
Q 881 4594 1212 4672 
Q 1544 4750 1819 4750 
Q 2544 4750 2975 4387 
Q 3406 4025 3406 3419 
Q 3406 3131 3298 2873 
Q 3191 2616 2906 2266 
Q 2828 2175 2409 1742 
Q 1991 1309 1228 531 
z
" transform="scale(0.015625)"/>
       </defs>
       <use xlink:href="#DejaVuSans-32"/>
       <use xlink:href="#DejaVuSans-30" x="63.623047"/>
       <use xlink:href="#DejaVuSans-30" x="127.246094"/>
      </g>
     </g>
    </g>
    <g id="xtick_8">
     <g id="line2d_8">
      <g>
       <use xlink:href="#mb1071c877f" x="325.738595" y="307.584" style="stroke: #000000; stroke-width: 0.8"/>
      </g>
     </g>
     <g id="text_8">
      <!-- 233 -->
      <g transform="translate(316.194845 322.182437) scale(0.1 -0.1)">
       <use xlink:href="#DejaVuSans-32"/>
       <use xlink:href="#DejaVuSans-33" x="63.623047"/>
       <use xlink:href="#DejaVuSans-33" x="127.246094"/>
      </g>
     </g>
    </g>
    <g id="xtick_9">
     <g id="line2d_9">
      <g>
       <use xlink:href="#mb1071c877f" x="361.570033" y="307.584" style="stroke: #000000; stroke-width: 0.8"/>
      </g>
     </g>
     <g id="text_9">
      <!-- 266 -->
      <g transform="translate(352.026283 322.182437) scale(0.1 -0.1)">
       <use xlink:href="#DejaVuSans-32"/>
       <use xlink:href="#DejaVuSans-36" x="63.623047"/>
       <use xlink:href="#DejaVuSans-36" x="127.246094"/>
      </g>
     </g>
    </g>
    <g id="xtick_10">
     <g id="line2d_10">
      <g>
       <use xlink:href="#mb1071c877f" x="398.487273" y="307.584" style="stroke: #000000; stroke-width: 0.8"/>
      </g>
     </g>
     <g id="text_10">
      <!-- 300 -->
      <g transform="translate(388.943523 322.182437) scale(0.1 -0.1)">
       <use xlink:href="#DejaVuSans-33"/>
       <use xlink:href="#DejaVuSans-30" x="63.623047"/>
       <use xlink:href="#DejaVuSans-30" x="127.246094"/>
      </g>
     </g>
    </g>
    <g id="text_11">
     <!-- Epochs -->
     <g transform="translate(218.244375 335.860562) scale(0.1 -0.1)">
      <defs>
       <path id="DejaVuSans-45" d="M 628 4666 
L 3578 4666 
L 3578 4134 
L 1259 4134 
L 1259 2753 
L 3481 2753 
L 3481 2222 
L 1259 2222 
L 1259 531 
L 3634 531 
L 3634 0 
L 628 0 
L 628 4666 
z
" transform="scale(0.015625)"/>
       <path id="DejaVuSans-70" d="M 1159 525 
L 1159 -1331 
L 581 -1331 
L 581 3500 
L 1159 3500 
L 1159 2969 
Q 1341 3281 1617 3432 
Q 1894 3584 2278 3584 
Q 2916 3584 3314 3078 
Q 3713 2572 3713 1747 
Q 3713 922 3314 415 
Q 2916 -91 2278 -91 
Q 1894 -91 1617 61 
Q 1341 213 1159 525 
z
M 3116 1747 
Q 3116 2381 2855 2742 
Q 2594 3103 2138 3103 
Q 1681 3103 1420 2742 
Q 1159 2381 1159 1747 
Q 1159 1113 1420 752 
Q 1681 391 2138 391 
Q 2594 391 2855 752 
Q 3116 1113 3116 1747 
z
" transform="scale(0.015625)"/>
       <path id="DejaVuSans-6f" d="M 1959 3097 
Q 1497 3097 1228 2736 
Q 959 2375 959 1747 
Q 959 1119 1226 758 
Q 1494 397 1959 397 
Q 2419 397 2687 759 
Q 2956 1122 2956 1747 
Q 2956 2369 2687 2733 
Q 2419 3097 1959 3097 
z
M 1959 3584 
Q 2709 3584 3137 3096 
Q 3566 2609 3566 1747 
Q 3566 888 3137 398 
Q 2709 -91 1959 -91 
Q 1206 -91 779 398 
Q 353 888 353 1747 
Q 353 2609 779 3096 
Q 1206 3584 1959 3584 
z
" transform="scale(0.015625)"/>
       <path id="DejaVuSans-63" d="M 3122 3366 
L 3122 2828 
Q 2878 2963 2633 3030 
Q 2388 3097 2138 3097 
Q 1578 3097 1268 2742 
Q 959 2388 959 1747 
Q 959 1106 1268 751 
Q 1578 397 2138 397 
Q 2388 397 2633 464 
Q 2878 531 3122 666 
L 3122 134 
Q 2881 22 2623 -34 
Q 2366 -91 2075 -91 
Q 1284 -91 818 406 
Q 353 903 353 1747 
Q 353 2603 823 3093 
Q 1294 3584 2113 3584 
Q 2378 3584 2631 3529 
Q 2884 3475 3122 3366 
z
" transform="scale(0.015625)"/>
       <path id="DejaVuSans-68" d="M 3513 2113 
L 3513 0 
L 2938 0 
L 2938 2094 
Q 2938 2591 2744 2837 
Q 2550 3084 2163 3084 
Q 1697 3084 1428 2787 
Q 1159 2491 1159 1978 
L 1159 0 
L 581 0 
L 581 4863 
L 1159 4863 
L 1159 2956 
Q 1366 3272 1645 3428 
Q 1925 3584 2291 3584 
Q 2894 3584 3203 3211 
Q 3513 2838 3513 2113 
z
" transform="scale(0.015625)"/>
       <path id="DejaVuSans-73" d="M 2834 3397 
L 2834 2853 
Q 2591 2978 2328 3040 
Q 2066 3103 1784 3103 
Q 1356 3103 1142 2972 
Q 928 2841 928 2578 
Q 928 2378 1081 2264 
Q 1234 2150 1697 2047 
L 1894 2003 
Q 2506 1872 2764 1633 
Q 3022 1394 3022 966 
Q 3022 478 2636 193 
Q 2250 -91 1575 -91 
Q 1294 -91 989 -36 
Q 684 19 347 128 
L 347 722 
Q 666 556 975 473 
Q 1284 391 1588 391 
Q 1994 391 2212 530 
Q 2431 669 2431 922 
Q 2431 1156 2273 1281 
Q 2116 1406 1581 1522 
L 1381 1569 
Q 847 1681 609 1914 
Q 372 2147 372 2553 
Q 372 3047 722 3315 
Q 1072 3584 1716 3584 
Q 2034 3584 2315 3537 
Q 2597 3491 2834 3397 
z
" transform="scale(0.015625)"/>
      </defs>
      <use xlink:href="#DejaVuSans-45"/>
      <use xlink:href="#DejaVuSans-70" x="63.183594"/>
      <use xlink:href="#DejaVuSans-6f" x="126.660156"/>
      <use xlink:href="#DejaVuSans-63" x="187.841797"/>
      <use xlink:href="#DejaVuSans-68" x="242.822266"/>
      <use xlink:href="#DejaVuSans-73" x="306.201172"/>
     </g>
    </g>
   </g>
   <g id="matplotlib.axis_2">
    <g id="ytick_1">
     <g id="line2d_11">
      <defs>
       <path id="m4f0411c4c7" d="M 0 0 
L -3.5 0 
" style="stroke: #000000; stroke-width: 0.8"/>
      </defs>
      <g>
       <use xlink:href="#m4f0411c4c7" x="57.6" y="280.435767" style="stroke: #000000; stroke-width: 0.8"/>
      </g>
     </g>
     <g id="text_12">
      <!-- 10 -->
      <g transform="translate(37.875 284.234986) scale(0.1 -0.1)">
       <use xlink:href="#DejaVuSans-31"/>
       <use xlink:href="#DejaVuSans-30" x="63.623047"/>
      </g>
     </g>
    </g>
    <g id="ytick_2">
     <g id="line2d_12">
      <g>
       <use xlink:href="#m4f0411c4c7" x="57.6" y="248.545443" style="stroke: #000000; stroke-width: 0.8"/>
      </g>
     </g>
     <g id="text_13">
      <!-- 20 -->
      <g transform="translate(37.875 252.344661) scale(0.1 -0.1)">
       <use xlink:href="#DejaVuSans-32"/>
       <use xlink:href="#DejaVuSans-30" x="63.623047"/>
      </g>
     </g>
    </g>
    <g id="ytick_3">
     <g id="line2d_13">
      <g>
       <use xlink:href="#m4f0411c4c7" x="57.6" y="216.655118" style="stroke: #000000; stroke-width: 0.8"/>
      </g>
     </g>
     <g id="text_14">
      <!-- 30 -->
      <g transform="translate(37.875 220.454337) scale(0.1 -0.1)">
       <use xlink:href="#DejaVuSans-33"/>
       <use xlink:href="#DejaVuSans-30" x="63.623047"/>
      </g>
     </g>
    </g>
    <g id="ytick_4">
     <g id="line2d_14">
      <g>
       <use xlink:href="#m4f0411c4c7" x="57.6" y="184.764794" style="stroke: #000000; stroke-width: 0.8"/>
      </g>
     </g>
     <g id="text_15">
      <!-- 40 -->
      <g transform="translate(37.875 188.564013) scale(0.1 -0.1)">
       <use xlink:href="#DejaVuSans-34"/>
       <use xlink:href="#DejaVuSans-30" x="63.623047"/>
      </g>
     </g>
    </g>
    <g id="ytick_5">
     <g id="line2d_15">
      <g>
       <use xlink:href="#m4f0411c4c7" x="57.6" y="152.87447" style="stroke: #000000; stroke-width: 0.8"/>
      </g>
     </g>
     <g id="text_16">
      <!-- 50 -->
      <g transform="translate(37.875 156.673689) scale(0.1 -0.1)">
       <defs>
        <path id="DejaVuSans-35" d="M 691 4666 
L 3169 4666 
L 3169 4134 
L 1269 4134 
L 1269 2991 
Q 1406 3038 1543 3061 
Q 1681 3084 1819 3084 
Q 2600 3084 3056 2656 
Q 3513 2228 3513 1497 
Q 3513 744 3044 326 
Q 2575 -91 1722 -91 
Q 1428 -91 1123 -41 
Q 819 9 494 109 
L 494 744 
Q 775 591 1075 516 
Q 1375 441 1709 441 
Q 2250 441 2565 725 
Q 2881 1009 2881 1497 
Q 2881 1984 2565 2268 
Q 2250 2553 1709 2553 
Q 1456 2553 1204 2497 
Q 953 2441 691 2322 
L 691 4666 
z
" transform="scale(0.015625)"/>
       </defs>
       <use xlink:href="#DejaVuSans-35"/>
       <use xlink:href="#DejaVuSans-30" x="63.623047"/>
      </g>
     </g>
    </g>
    <g id="ytick_6">
     <g id="line2d_16">
      <g>
       <use xlink:href="#m4f0411c4c7" x="57.6" y="120.984146" style="stroke: #000000; stroke-width: 0.8"/>
      </g>
     </g>
     <g id="text_17">
      <!-- 60 -->
      <g transform="translate(37.875 124.783364) scale(0.1 -0.1)">
       <use xlink:href="#DejaVuSans-36"/>
       <use xlink:href="#DejaVuSans-30" x="63.623047"/>
      </g>
     </g>
    </g>
    <g id="ytick_7">
     <g id="line2d_17">
      <g>
       <use xlink:href="#m4f0411c4c7" x="57.6" y="89.093821" style="stroke: #000000; stroke-width: 0.8"/>
      </g>
     </g>
     <g id="text_18">
      <!-- 70 -->
      <g transform="translate(37.875 92.89304) scale(0.1 -0.1)">
       <use xlink:href="#DejaVuSans-37"/>
       <use xlink:href="#DejaVuSans-30" x="63.623047"/>
      </g>
     </g>
    </g>
    <g id="ytick_8">
     <g id="line2d_18">
      <g>
       <use xlink:href="#m4f0411c4c7" x="57.6" y="57.203497" style="stroke: #000000; stroke-width: 0.8"/>
      </g>
     </g>
     <g id="text_19">
      <!-- 80 -->
      <g transform="translate(37.875 61.002716) scale(0.1 -0.1)">
       <defs>
        <path id="DejaVuSans-38" d="M 2034 2216 
Q 1584 2216 1326 1975 
Q 1069 1734 1069 1313 
Q 1069 891 1326 650 
Q 1584 409 2034 409 
Q 2484 409 2743 651 
Q 3003 894 3003 1313 
Q 3003 1734 2745 1975 
Q 2488 2216 2034 2216 
z
M 1403 2484 
Q 997 2584 770 2862 
Q 544 3141 544 3541 
Q 544 4100 942 4425 
Q 1341 4750 2034 4750 
Q 2731 4750 3128 4425 
Q 3525 4100 3525 3541 
Q 3525 3141 3298 2862 
Q 3072 2584 2669 2484 
Q 3125 2378 3379 2068 
Q 3634 1759 3634 1313 
Q 3634 634 3220 271 
Q 2806 -91 2034 -91 
Q 1263 -91 848 271 
Q 434 634 434 1313 
Q 434 1759 690 2068 
Q 947 2378 1403 2484 
z
M 1172 3481 
Q 1172 3119 1398 2916 
Q 1625 2713 2034 2713 
Q 2441 2713 2670 2916 
Q 2900 3119 2900 3481 
Q 2900 3844 2670 4047 
Q 2441 4250 2034 4250 
Q 1625 4250 1398 4047 
Q 1172 3844 1172 3481 
z
" transform="scale(0.015625)"/>
       </defs>
       <use xlink:href="#DejaVuSans-38"/>
       <use xlink:href="#DejaVuSans-30" x="63.623047"/>
      </g>
     </g>
    </g>
    <g id="text_20">
     <!-- Accuracy -->
     <g transform="translate(31.795312 197.356125) rotate(-90) scale(0.1 -0.1)">
      <defs>
       <path id="DejaVuSans-41" d="M 2188 4044 
L 1331 1722 
L 3047 1722 
L 2188 4044 
z
M 1831 4666 
L 2547 4666 
L 4325 0 
L 3669 0 
L 3244 1197 
L 1141 1197 
L 716 0 
L 50 0 
L 1831 4666 
z
" transform="scale(0.015625)"/>
       <path id="DejaVuSans-75" d="M 544 1381 
L 544 3500 
L 1119 3500 
L 1119 1403 
Q 1119 906 1312 657 
Q 1506 409 1894 409 
Q 2359 409 2629 706 
Q 2900 1003 2900 1516 
L 2900 3500 
L 3475 3500 
L 3475 0 
L 2900 0 
L 2900 538 
Q 2691 219 2414 64 
Q 2138 -91 1772 -91 
Q 1169 -91 856 284 
Q 544 659 544 1381 
z
M 1991 3584 
L 1991 3584 
z
" transform="scale(0.015625)"/>
       <path id="DejaVuSans-72" d="M 2631 2963 
Q 2534 3019 2420 3045 
Q 2306 3072 2169 3072 
Q 1681 3072 1420 2755 
Q 1159 2438 1159 1844 
L 1159 0 
L 581 0 
L 581 3500 
L 1159 3500 
L 1159 2956 
Q 1341 3275 1631 3429 
Q 1922 3584 2338 3584 
Q 2397 3584 2469 3576 
Q 2541 3569 2628 3553 
L 2631 2963 
z
" transform="scale(0.015625)"/>
       <path id="DejaVuSans-61" d="M 2194 1759 
Q 1497 1759 1228 1600 
Q 959 1441 959 1056 
Q 959 750 1161 570 
Q 1363 391 1709 391 
Q 2188 391 2477 730 
Q 2766 1069 2766 1631 
L 2766 1759 
L 2194 1759 
z
M 3341 1997 
L 3341 0 
L 2766 0 
L 2766 531 
Q 2569 213 2275 61 
Q 1981 -91 1556 -91 
Q 1019 -91 701 211 
Q 384 513 384 1019 
Q 384 1609 779 1909 
Q 1175 2209 1959 2209 
L 2766 2209 
L 2766 2266 
Q 2766 2663 2505 2880 
Q 2244 3097 1772 3097 
Q 1472 3097 1187 3025 
Q 903 2953 641 2809 
L 641 3341 
Q 956 3463 1253 3523 
Q 1550 3584 1831 3584 
Q 2591 3584 2966 3190 
Q 3341 2797 3341 1997 
z
" transform="scale(0.015625)"/>
       <path id="DejaVuSans-79" d="M 2059 -325 
Q 1816 -950 1584 -1140 
Q 1353 -1331 966 -1331 
L 506 -1331 
L 506 -850 
L 844 -850 
Q 1081 -850 1212 -737 
Q 1344 -625 1503 -206 
L 1606 56 
L 191 3500 
L 800 3500 
L 1894 763 
L 2988 3500 
L 3597 3500 
L 2059 -325 
z
" transform="scale(0.015625)"/>
      </defs>
      <use xlink:href="#DejaVuSans-41"/>
      <use xlink:href="#DejaVuSans-63" x="66.658203"/>
      <use xlink:href="#DejaVuSans-63" x="121.638672"/>
      <use xlink:href="#DejaVuSans-75" x="176.619141"/>
      <use xlink:href="#DejaVuSans-72" x="239.998047"/>
      <use xlink:href="#DejaVuSans-61" x="281.111328"/>
      <use xlink:href="#DejaVuSans-63" x="342.390625"/>
      <use xlink:href="#DejaVuSans-79" x="397.371094"/>
     </g>
    </g>
   </g>
   <g id="line2d_19">
    <path d="M 73.832727 295.488 
L 77.090131 248.475284 
L 79.261733 225.527007 
L 81.433335 209.313966 
L 83.604938 194.440318 
L 84.690739 190.64537 
L 85.77654 184.190768 
L 86.862341 180.612674 
L 87.948142 174.196341 
L 89.033943 170.643759 
L 90.119745 166.542663 
L 93.377148 160.088061 
L 94.462949 158.723155 
L 95.54875 187.258617 
L 96.634552 186.002139 
L 98.806154 178.954377 
L 99.891955 176.824103 
L 100.977756 172.034177 
L 102.063557 170.031464 
L 103.149358 167.148579 
L 104.23516 165.337209 
L 105.320961 161.867541 
L 106.406762 159.16962 
L 107.492563 157.090371 
L 108.578364 154.284022 
L 109.664165 152.236663 
L 110.749967 149.175192 
L 111.835768 148.078165 
L 112.921569 146.24766 
L 114.00737 143.154299 
L 115.093171 141.266392 
L 116.178972 138.645007 
L 117.264773 136.540246 
L 118.350575 132.981286 
L 119.436376 132.879236 
L 120.522177 129.282008 
L 121.607978 128.363567 
L 122.693779 125.697535 
L 123.77958 123.650177 
L 124.865382 123.037882 
L 125.951183 119.88074 
L 127.036984 117.87165 
L 128.122785 117.119038 
L 129.208586 116.187841 
L 131.380189 111.952806 
L 132.46599 110.173326 
L 133.551791 111.142791 
L 134.637592 110.339155 
L 135.723393 109.356933 
L 137.894995 108.757395 
L 138.980797 142.29326 
L 140.066598 145.431268 
L 141.152399 145.067718 
L 142.2382 143.887776 
L 143.324001 143.326507 
L 144.409802 142.357041 
L 145.495604 140.749769 
L 146.581405 140.418109 
L 147.667206 139.155252 
L 148.753007 136.840015 
L 149.838808 137.063247 
L 150.924609 136.017244 
L 154.182013 131.928905 
L 155.267814 132.247808 
L 156.353615 129.843278 
L 157.439416 128.854678 
L 158.525217 128.08931 
L 159.611019 127.049685 
L 160.69682 127.413235 
L 161.782621 124.555862 
L 162.868422 123.994592 
L 163.954223 123.758604 
L 165.040024 122.272515 
L 166.125825 121.054304 
L 167.211627 119.657508 
L 168.297428 119.415142 
L 169.383229 117.827003 
L 170.46903 115.932718 
L 171.554831 115.919962 
L 172.640632 115.33318 
L 173.726434 113.681261 
L 175.898036 112.278087 
L 176.983837 111.117279 
L 179.155439 109.701349 
L 180.24124 106.856732 
L 181.327042 107.048074 
L 182.412843 105.791595 
L 183.498644 105.274972 
L 184.584445 103.074539 
L 185.670246 102.653587 
L 186.756047 101.55656 
L 187.841849 100.905997 
L 188.92765 99.203054 
L 190.013451 97.028134 
L 192.185053 95.918351 
L 193.270854 95.612204 
L 194.356656 94.004931 
L 195.442457 93.430905 
L 196.528258 91.498352 
L 197.614059 91.73434 
L 198.69986 90.439593 
L 199.785661 89.859189 
L 200.871462 88.315697 
L 201.957264 87.786318 
L 205.214667 85.260604 
L 206.300468 84.667444 
L 208.472071 82.454256 
L 209.557872 82.173621 
L 210.643673 81.31896 
L 211.729474 81.548571 
L 212.815275 80.751312 
L 213.901076 82.04606 
L 214.986877 79.482078 
L 216.072679 79.998701 
L 217.15848 78.525368 
L 218.244281 79.501212 
L 219.330082 78.129928 
L 220.415883 78.391428 
L 221.501684 78.499856 
L 222.587486 77.479365 
L 223.673287 77.045657 
L 224.759088 77.224243 
L 225.844889 116.532256 
L 226.93069 119.68302 
L 228.016491 121.252024 
L 229.102292 120.780047 
L 230.188094 120.86934 
L 231.273895 120.072082 
L 232.359696 119.517191 
L 233.445497 119.714911 
L 234.531298 119.064348 
L 235.617099 119.313093 
L 236.702901 117.635661 
L 237.788702 118.745445 
L 238.874503 117.412429 
L 239.960304 115.263021 
L 241.046105 116.449341 
L 242.131906 116.028389 
L 244.303509 114.057567 
L 245.38931 114.459385 
L 246.475111 113.540944 
L 248.646713 113.470785 
L 249.732514 112.112257 
L 250.818316 112.781954 
L 251.904117 111.37878 
L 252.989918 110.957828 
L 255.16152 110.339155 
L 256.247321 110.568766 
L 257.333123 109.554653 
L 258.418924 109.261262 
L 259.504725 107.934625 
L 260.590526 108.789286 
L 261.676327 107.475404 
L 262.762128 107.099098 
L 263.847929 107.430758 
L 264.933731 106.544207 
L 266.019532 106.148767 
L 267.105333 105.236703 
L 268.191134 106.167901 
L 269.276935 104.146054 
L 270.362736 104.433067 
L 271.448538 103.667699 
L 272.534339 103.73148 
L 274.705941 102.398465 
L 275.791742 101.467267 
L 277.963344 101.741524 
L 279.049146 100.325593 
L 280.134947 100.555204 
L 281.220748 99.675031 
L 283.39235 99.789836 
L 284.478151 98.475955 
L 285.563953 98.686431 
L 287.735555 97.417196 
L 288.821356 96.135205 
L 289.907157 96.721987 
L 290.992958 95.446374 
L 292.07876 95.388971 
L 293.164561 95.06369 
L 294.250362 95.184873 
L 295.336163 93.87737 
L 296.421964 92.88877 
L 297.507765 93.985797 
L 298.593566 92.69105 
L 300.765169 92.104268 
L 301.85097 90.069665 
L 302.936771 90.822277 
L 305.108373 89.597688 
L 306.194175 89.272407 
L 307.279976 88.749406 
L 308.365777 87.001816 
L 309.451578 88.003172 
L 310.537379 87.288829 
L 311.62318 88.462393 
L 312.708981 86.191802 
L 313.794783 86.676535 
L 314.880584 85.120287 
L 315.966385 85.184067 
L 317.052186 84.84603 
L 318.137987 83.978613 
L 319.223788 83.755381 
L 320.30959 83.277026 
L 321.395391 83.729869 
L 322.481192 81.580461 
L 323.566993 82.970879 
L 324.652794 81.382741 
L 325.738595 80.66202 
L 326.824396 80.202799 
L 327.910198 79.526724 
L 330.0818 79.297114 
L 333.339203 77.517634 
L 334.425005 76.401472 
L 335.510806 76.669351 
L 336.596607 75.974142 
L 337.682408 74.551833 
L 338.768209 75.266177 
L 339.85401 75.18964 
L 342.025613 73.352757 
L 343.111414 73.709929 
L 344.197215 71.758241 
L 345.283016 72.22384 
L 346.368817 72.147303 
L 347.454618 72.491718 
L 348.54042 70.393335 
L 349.626221 70.44436 
L 351.797823 69.500406 
L 352.883624 70.24664 
L 353.969425 68.69677 
L 355.055227 68.89449 
L 356.141028 68.830709 
L 357.226829 67.848487 
L 358.31263 68.199281 
L 359.398431 67.74006 
L 360.484232 66.043495 
L 361.570033 65.92869 
L 362.655835 65.176078 
L 363.741636 65.099541 
L 366.999039 64.289527 
L 368.08484 64.595674 
L 369.170642 66.088141 
L 370.256443 66.974692 
L 372.428045 69.647102 
L 374.599647 70.240262 
L 375.685448 68.511806 
L 376.77125 69.391979 
L 377.857051 69.934114 
L 378.942852 68.786063 
L 380.028653 69.360089 
L 381.114454 69.034807 
L 382.200255 69.353711 
L 383.286057 69.857578 
L 384.371858 69.302686 
L 385.457659 69.863956 
L 386.54346 69.966005 
L 387.629261 68.601099 
L 388.715062 69.207015 
L 389.800863 69.219771 
L 390.886665 68.951892 
L 391.972466 69.232527 
L 393.058267 69.226149 
L 394.144068 69.423869 
L 395.229869 69.91498 
L 396.31567 70.068054 
L 398.487273 69.28993 
L 398.487273 69.28993 
" clip-path="url(#p711f260075)" style="fill: none; stroke: #1f77b4; stroke-width: 1.5; stroke-linecap: square"/>
   </g>
   <g id="line2d_20">
    <path d="M 73.832727 279.479057 
L 74.918528 253.679785 
L 77.090131 212.732608 
L 78.175932 195.990188 
L 80.347534 167.416458 
L 81.433335 161.548638 
L 82.519137 159.667109 
L 83.604938 152.555567 
L 84.690739 146.655857 
L 85.77654 139.958888 
L 86.862341 136.19583 
L 87.948142 127.489772 
L 89.033943 125.002326 
L 90.119745 122.004636 
L 91.205546 120.601462 
L 92.291347 115.754132 
L 93.377148 115.881694 
L 94.462949 115.467119 
L 95.54875 147.644457 
L 96.634552 139.002179 
L 97.720353 133.006798 
L 98.806154 136.833637 
L 99.891955 127.33032 
L 100.977756 133.038688 
L 102.063557 124.715313 
L 103.149358 123.280249 
L 104.23516 116.200597 
L 105.320961 118.688042 
L 106.406762 110.65168 
L 108.578364 106.282706 
L 109.664165 106.346487 
L 110.749967 109.057164 
L 111.835768 101.626719 
L 114.00737 94.578957 
L 115.093171 92.506086 
L 116.178972 94.961641 
L 117.264773 90.847789 
L 118.350575 90.465105 
L 119.436376 86.510705 
L 120.522177 86.478815 
L 121.607978 84.661066 
L 122.693779 83.417344 
L 123.77958 83.895698 
L 124.865382 81.248801 
L 125.951183 80.802337 
L 127.036984 78.027879 
L 128.122785 78.12355 
L 129.208586 77.16684 
L 131.380189 75.731775 
L 132.46599 76.082569 
L 133.551791 75.763666 
L 134.637592 74.711285 
L 135.723393 75.030188 
L 136.809194 75.572324 
L 137.894995 74.424272 
L 138.980797 98.629028 
L 140.066598 100.319215 
L 141.152399 99.107383 
L 142.2382 99.234944 
L 143.324001 94.83408 
L 144.409802 95.758899 
L 145.495604 97.353415 
L 146.581405 94.164383 
L 147.667206 97.193964 
L 148.753007 92.85688 
L 149.838808 94.004931 
L 150.924609 91.485596 
L 152.01041 90.815899 
L 153.096212 93.271454 
L 154.182013 87.881989 
L 155.267814 89.030041 
L 156.353615 90.720228 
L 157.439416 86.00046 
L 158.525217 84.565395 
L 159.611019 84.629176 
L 160.69682 85.458324 
L 161.782621 79.973189 
L 162.868422 87.786318 
L 163.954223 80.770447 
L 165.040024 82.843318 
L 166.125825 83.895698 
L 167.211627 79.239711 
L 168.297428 79.941298 
L 169.383229 76.529033 
L 170.46903 79.813737 
L 171.554831 78.601905 
L 172.640632 75.030188 
L 173.726434 76.14635 
L 174.812235 75.22153 
L 175.898036 73.722685 
L 176.983837 73.021098 
L 178.069638 75.030188 
L 179.155439 73.467562 
L 180.24124 72.25573 
L 181.327042 71.617924 
L 182.412843 70.27853 
L 183.498644 71.171459 
L 184.584445 71.23524 
L 185.670246 69.704504 
L 186.756047 69.034807 
L 187.841849 67.280839 
L 188.92765 66.515472 
L 190.013451 67.025717 
L 191.099252 67.759194 
L 192.185053 65.813885 
L 193.270854 65.558762 
L 194.356656 66.32413 
L 195.442457 65.590652 
L 196.528258 64.665833 
L 197.614059 63.326439 
L 198.69986 62.529181 
L 199.785661 62.43351 
L 200.871462 61.062226 
L 201.957264 62.40162 
L 203.043065 61.700033 
L 204.128866 60.807104 
L 205.214667 60.201187 
L 206.300468 61.349239 
L 207.386269 59.882284 
L 208.472071 59.116916 
L 209.557872 58.957465 
L 210.643673 58.351549 
L 211.729474 58.989355 
L 212.815275 58.574781 
L 213.901076 58.893684 
L 214.986877 58.893684 
L 216.072679 58.351549 
L 218.244281 57.809413 
L 220.415883 56.693252 
L 221.501684 57.235387 
L 222.587486 57.618071 
L 223.673287 57.777523 
L 224.759088 57.203497 
L 225.844889 80.451543 
L 226.93069 80.898008 
L 228.016491 84.08704 
L 229.102292 81.472034 
L 230.188094 83.06655 
L 231.273895 80.898008 
L 232.359696 85.809118 
L 233.445497 79.749956 
L 234.531298 83.194111 
L 235.617099 80.674776 
L 237.788702 80.515324 
L 238.874503 79.080259 
L 239.960304 79.590505 
L 241.046105 80.260201 
L 242.131906 84.150821 
L 243.217708 77.836537 
L 244.303509 79.462943 
L 245.38931 80.866118 
L 246.475111 82.014169 
L 247.560912 77.836537 
L 248.646713 79.431053 
L 249.732514 77.421963 
L 250.818316 77.007388 
L 251.904117 77.453853 
L 252.989918 77.677085 
L 254.075719 77.007388 
L 255.16152 78.219221 
L 256.247321 80.993679 
L 257.333123 75.22153 
L 258.418924 75.508543 
L 259.504725 74.424272 
L 260.590526 75.699885 
L 261.676327 77.485743 
L 262.762128 74.775066 
L 263.847929 74.583724 
L 264.933731 73.786466 
L 266.019532 75.062079 
L 267.105333 71.649814 
L 268.191134 73.690795 
L 269.276935 76.337692 
L 270.362736 75.317201 
L 271.448538 73.882137 
L 272.534339 75.731775 
L 273.62014 75.827446 
L 274.705941 73.467562 
L 275.791742 73.340001 
L 276.877543 72.351401 
L 277.963344 75.636104 
L 279.049146 72.478962 
L 280.134947 68.811575 
L 282.306549 73.722685 
L 283.39235 74.009698 
L 284.478151 72.829756 
L 286.649754 69.130478 
L 287.735555 70.31042 
L 288.821356 72.28762 
L 289.907157 72.765975 
L 290.992958 69.959627 
L 292.07876 67.663523 
L 293.164561 69.513162 
L 294.250362 70.31042 
L 295.336163 68.492672 
L 296.421964 68.939136 
L 297.507765 67.822975 
L 298.593566 70.724994 
L 299.679368 67.057607 
L 300.765169 70.501762 
L 301.85097 70.27853 
L 302.936771 66.100897 
L 304.022572 66.069007 
L 305.108373 67.440291 
L 306.194175 67.34462 
L 307.279976 63.932355 
L 308.365777 66.674923 
L 309.451578 66.069007 
L 310.537379 68.269439 
L 311.62318 66.961936 
L 312.708981 65.33553 
L 313.794783 66.674923 
L 314.880584 65.750104 
L 315.966385 66.132788 
L 317.052186 67.057607 
L 318.137987 65.686323 
L 319.223788 64.793394 
L 320.30959 65.845775 
L 321.395391 63.581562 
L 322.481192 64.155588 
L 323.566993 62.816194 
L 324.652794 62.114607 
L 325.738595 62.752413 
L 326.824396 62.561071 
L 327.910198 62.879975 
L 328.995999 61.636252 
L 330.0818 61.827594 
L 331.167601 61.572471 
L 332.253402 60.137407 
L 333.339203 59.116916 
L 334.425005 60.679542 
L 335.510806 60.009846 
L 336.596607 60.073626 
L 337.682408 60.647652 
L 338.768209 61.062226 
L 339.85401 60.105516 
L 340.939811 58.861794 
L 342.025613 58.606671 
L 343.111414 59.850394 
L 345.283016 59.722833 
L 346.368817 57.713742 
L 347.454618 56.788923 
L 349.626221 58.160207 
L 350.712022 55.991665 
L 351.797823 56.5338 
L 352.883624 56.50191 
L 353.969425 55.927884 
L 355.055227 56.820813 
L 356.141028 56.055445 
L 357.226829 56.342458 
L 358.31263 55.800323 
L 359.398431 54.58849 
L 360.484232 54.747942 
L 361.570033 54.269587 
L 362.655835 55.258187 
L 363.741636 54.811723 
L 364.827437 53.568 
L 365.913238 54.110136 
L 366.999039 53.631781 
L 368.08484 54.811723 
L 369.170642 54.110136 
L 370.256443 56.597581 
L 371.342244 57.139716 
L 372.428045 58.957465 
L 373.513846 57.362949 
L 374.599647 58.192097 
L 375.685448 58.160207 
L 376.77125 60.041736 
L 377.857051 56.183007 
L 378.942852 56.597581 
L 380.028653 57.713742 
L 381.114454 58.638562 
L 382.200255 57.968865 
L 383.286057 56.374349 
L 384.371858 56.310568 
L 385.457659 59.148807 
L 386.54346 57.426729 
L 387.629261 57.586181 
L 388.715062 58.766123 
L 389.800863 57.5224 
L 390.886665 56.5338 
L 391.972466 57.713742 
L 393.058267 57.331058 
L 395.229869 58.925574 
L 396.31567 58.798013 
L 397.401472 57.777523 
L 398.487273 59.148807 
L 398.487273 59.148807 
" clip-path="url(#p711f260075)" style="fill: none; stroke: #ff7f0e; stroke-width: 1.5; stroke-linecap: square"/>
   </g>
   <g id="line2d_21">
    <path d="M 73.832727 283.470769 
L 74.918528 261.54362 
L 76.00433 247.005778 
L 77.090131 228.729433 
L 78.175932 223.714998 
L 79.261733 209.243488 
L 80.347534 204.207049 
L 81.433335 198.092717 
L 82.519137 195.761535 
L 83.604938 192.15442 
L 84.690739 186.128424 
L 86.862341 177.594892 
L 87.948142 171.436871 
L 89.033943 171.942651 
L 90.119745 169.369421 
L 91.205546 166.466445 
L 92.291347 161.913782 
L 93.377148 161.671735 
L 94.462949 161.825765 
L 95.54875 191.560622 
L 96.634552 183.555194 
L 97.720353 180.805929 
L 98.806154 184.104983 
L 99.891955 178.672785 
L 100.977756 177.748923 
L 102.063557 173.482316 
L 103.149358 174.05411 
L 104.23516 166.620156 
L 105.320961 164.531021 
L 106.406762 161.979795 
L 107.492563 158.196965 
L 108.578364 154.831898 
L 109.664165 156.459261 
L 110.749967 160.066376 
L 111.835768 154.545842 
L 112.921569 150.696998 
L 114.00737 149.44339 
L 115.093171 147.948053 
L 116.178972 145.96862 
L 117.264773 143.373385 
L 118.350575 143.087329 
L 119.436376 139.634564 
L 120.522177 142.163785 
L 121.607978 137.918864 
L 122.693779 136.665256 
L 123.77958 138.776714 
L 124.865382 134.400086 
L 125.951183 133.124473 
L 127.036984 132.772723 
L 128.122785 131.980886 
L 129.208586 129.473669 
L 130.294387 132.024895 
L 131.380189 129.286473 
L 132.46599 128.549806 
L 133.551791 128.439784 
L 134.637592 126.779255 
L 135.723393 128.01086 
L 136.809194 129.000735 
L 137.894995 127.703118 
L 138.980797 150.169214 
L 140.066598 156.833335 
L 141.152399 154.106074 
L 142.2382 150.950208 
L 143.324001 149.663433 
L 144.409802 150.642147 
L 145.495604 145.869441 
L 146.581405 149.982336 
L 147.667206 150.895037 
L 148.753007 147.33225 
L 149.838808 147.365097 
L 150.924609 146.12265 
L 152.01041 145.5617 
L 153.096212 148.420667 
L 154.182013 144.967902 
L 155.267814 145.088766 
L 156.353615 145.605708 
L 157.439416 142.427518 
L 158.525217 138.358951 
L 159.611019 139.304499 
L 160.69682 142.834439 
L 161.782621 137.599961 
L 162.868422 145.407669 
L 163.954223 137.731987 
L 165.040024 138.985596 
L 166.125825 136.720426 
L 167.211627 136.797282 
L 168.297428 135.005046 
L 169.383229 131.661983 
L 170.46903 134.466099 
L 171.554831 130.562086 
L 172.640632 132.145759 
L 173.726434 129.979449 
L 174.812235 126.086597 
L 175.898036 130.309195 
L 178.069638 127.505079 
L 179.155439 126.383496 
L 180.24124 125.987737 
L 181.327042 126.075755 
L 182.412843 125.129888 
L 183.498644 125.987737 
L 184.584445 127.230184 
L 185.670246 120.720094 
L 186.756047 122.083724 
L 187.841849 122.017711 
L 188.92765 119.917414 
L 190.013451 119.928576 
L 191.099252 120.599229 
L 192.185053 118.883849 
L 193.270854 118.422077 
L 194.356656 118.344902 
L 195.442457 118.542941 
L 196.528258 116.222601 
L 197.614059 115.364751 
L 198.69986 115.881694 
L 199.785661 114.738107 
L 200.871462 113.94627 
L 201.957264 115.595637 
L 203.043065 115.639646 
L 204.128866 112.13171 
L 205.214667 112.087702 
L 206.300468 112.505784 
L 208.472071 111.406052 
L 209.557872 111.164125 
L 210.643673 109.745555 
L 211.729474 110.922198 
L 212.815275 110.460339 
L 213.901076 109.426652 
L 214.986877 109.998479 
L 216.072679 110.240405 
L 217.15848 110.284392 
L 218.244281 110.119442 
L 219.330082 110.372365 
L 220.415883 109.899509 
L 221.501684 109.173729 
L 222.587486 108.711869 
L 223.673287 109.525622 
L 224.759088 109.371669 
L 225.844889 136.841334 
L 226.93069 133.927219 
L 228.016491 142.03176 
L 229.102292 134.751968 
L 230.188094 138.160934 
L 231.273895 135.939608 
L 232.359696 141.119036 
L 233.445497 135.235821 
L 234.531298 134.103165 
L 235.617099 131.474963 
L 236.702901 133.146455 
L 237.788702 133.883232 
L 238.874503 129.022707 
L 239.960304 135.917615 
L 241.046105 134.345092 
L 242.131906 137.809041 
L 243.217708 130.540246 
L 244.303509 130.826159 
L 245.38931 134.048182 
L 246.475111 135.851635 
L 247.560912 131.705892 
L 248.646713 133.685292 
L 249.732514 127.75809 
L 250.818316 131.584929 
L 251.904117 131.266026 
L 252.989918 127.62613 
L 254.075719 127.79108 
L 255.16152 133.333399 
L 256.247321 129.352606 
L 257.333123 130.727189 
L 258.418924 128.956727 
L 259.504725 131.123069 
L 260.590526 128.87975 
L 261.676327 129.187657 
L 262.762128 130.507256 
L 263.847929 126.944337 
L 264.933731 127.36221 
L 266.019532 129.022707 
L 267.105333 125.118891 
L 268.191134 125.481781 
L 269.276935 130.386293 
L 270.362736 129.63852 
L 271.448538 124.920951 
L 272.534339 127.208257 
L 273.62014 127.142277 
L 274.705941 129.363603 
L 275.791742 123.986235 
L 276.877543 126.295534 
L 277.963344 129.484566 
L 279.049146 124.140188 
L 280.134947 121.852882 
L 281.220748 123.898261 
L 282.306549 124.777994 
L 283.39235 127.09829 
L 284.478151 125.558758 
L 285.563953 122.655638 
L 286.649754 121.248065 
L 288.821356 124.997928 
L 289.907157 124.580055 
L 290.992958 123.425405 
L 292.07876 117.520197 
L 293.164561 123.128495 
L 294.250362 121.610955 
L 295.336163 120.390326 
L 296.421964 125.635734 
L 297.507765 118.487903 
L 298.593566 127.351214 
L 299.679368 118.13601 
L 300.765169 124.250155 
L 301.85097 124.624041 
L 302.936771 118.553883 
L 304.022572 115.72774 
L 305.108373 117.8391 
L 306.194175 118.938766 
L 307.279976 115.650764 
L 308.365777 117.47621 
L 309.451578 116.61847 
L 310.537379 118.784813 
L 311.62318 116.959367 
L 312.708981 115.8597 
L 313.794783 119.367636 
L 314.880584 117.124317 
L 315.966385 116.530497 
L 317.052186 121.588962 
L 318.137987 117.784116 
L 319.223788 117.80611 
L 320.30959 113.649371 
L 321.395391 115.001961 
L 322.481192 112.769638 
L 323.566993 111.592995 
L 324.652794 113.220501 
L 325.738595 110.537315 
L 326.824396 112.670668 
L 327.910198 113.154521 
L 328.995999 112.351765 
L 330.0818 109.657582 
L 331.167601 111.109142 
L 332.253402 110.438345 
L 333.339203 110.240405 
L 334.425005 109.756552 
L 335.510806 111.658975 
L 336.596607 112.747645 
L 337.682408 109.800539 
L 338.768209 110.405355 
L 339.85401 109.536619 
L 340.939811 107.821139 
L 342.025613 107.953099 
L 343.111414 108.645889 
L 344.197215 107.678183 
L 345.283016 108.337982 
L 346.368817 104.313204 
L 347.454618 108.326986 
L 348.54042 106.457553 
L 349.626221 105.929713 
L 350.712022 105.225927 
L 351.797823 104.830047 
L 352.883624 105.203933 
L 353.969425 105.3139 
L 355.055227 104.81905 
L 356.141028 104.88503 
L 357.226829 105.67679 
L 358.31263 105.654797 
L 360.484232 103.554434 
L 361.570033 103.092574 
L 362.655835 102.454767 
L 363.741636 102.256828 
L 364.827437 102.828654 
L 365.913238 102.817657 
L 366.999039 102.091878 
L 368.08484 103.004601 
L 370.256443 103.378487 
L 371.342244 104.940013 
L 372.428045 107.601206 
L 373.513846 105.423867 
L 374.599647 106.10566 
L 375.685448 107.711173 
L 376.77125 107.634196 
L 377.857051 108.206022 
L 378.942852 104.478154 
L 380.028653 107.744163 
L 381.114454 108.711869 
L 382.200255 104.940013 
L 383.286057 103.56543 
L 385.457659 106.10566 
L 386.54346 104.797057 
L 387.629261 105.456857 
L 388.715062 107.436256 
L 389.800863 107.667186 
L 390.886665 105.390877 
L 391.972466 105.51184 
L 393.058267 105.962703 
L 394.144068 107.249313 
L 395.229869 107.909113 
L 396.31567 105.9737 
L 397.401472 105.698783 
L 398.487273 109.382665 
L 398.487273 109.382665 
" clip-path="url(#p711f260075)" style="fill: none; stroke: #2ca02c; stroke-width: 1.5; stroke-linecap: square"/>
   </g>
   <g id="line2d_22">
    <path d="M 368.08484 53.982574 
L 369.170642 54.811723 
L 370.256443 55.194407 
L 371.342244 56.693252 
L 372.428045 56.980265 
L 373.513846 58.383439 
L 374.599647 58.223987 
L 375.685448 59.212587 
L 376.77125 58.989355 
L 377.857051 56.725142 
L 378.942852 59.244478 
L 380.028653 59.659052 
L 381.114454 60.807104 
L 382.200255 60.4882 
L 383.286057 62.018936 
L 384.371858 58.44722 
L 385.457659 60.42442 
L 386.54346 58.47911 
L 387.629261 59.595271 
L 388.715062 59.4996 
L 389.800863 59.946065 
L 391.972466 62.624852 
L 393.058267 63.645342 
L 394.144068 65.463091 
L 395.229869 63.103207 
L 396.31567 63.900465 
L 397.401472 62.816194 
L 398.487273 65.845775 
L 398.487273 65.845775 
" clip-path="url(#p711f260075)" style="fill: none; stroke: #d62728; stroke-width: 1.5; stroke-linecap: square"/>
   </g>
   <g id="line2d_23">
    <path d="M 368.08484 101.377094 
L 369.170642 103.433471 
L 370.256443 101.652011 
L 371.342244 106.644496 
L 372.428045 103.686394 
L 373.513846 108.634892 
L 374.599647 109.470639 
L 375.685448 107.964096 
L 376.77125 105.698783 
L 377.857051 104.48915 
L 378.942852 105.18194 
L 380.028653 107.524229 
L 381.114454 107.227319 
L 382.200255 108.052069 
L 383.286057 108.107053 
L 384.371858 107.524229 
L 385.457659 107.766156 
L 386.54346 107.040376 
L 387.629261 106.03968 
L 388.715062 106.76546 
L 389.800863 106.40257 
L 390.886665 108.217019 
L 391.972466 110.339375 
L 393.058267 109.316686 
L 394.144068 110.185422 
L 395.229869 110.009475 
L 396.31567 110.768245 
L 397.401472 109.294692 
L 398.487273 113.066548 
L 398.487273 113.066548 
" clip-path="url(#p711f260075)" style="fill: none; stroke: #9467bd; stroke-width: 1.5; stroke-linecap: square"/>
   </g>
   <g id="patch_3">
    <path d="M 57.6 307.584 
L 57.6 41.472 
" style="fill: none; stroke: #000000; stroke-width: 0.8; stroke-linejoin: miter; stroke-linecap: square"/>
   </g>
   <g id="patch_4">
    <path d="M 414.72 307.584 
L 414.72 41.472 
" style="fill: none; stroke: #000000; stroke-width: 0.8; stroke-linejoin: miter; stroke-linecap: square"/>
   </g>
   <g id="patch_5">
    <path d="M 57.6 307.584 
L 414.72 307.584 
" style="fill: none; stroke: #000000; stroke-width: 0.8; stroke-linejoin: miter; stroke-linecap: square"/>
   </g>
   <g id="patch_6">
    <path d="M 57.6 41.472 
L 414.72 41.472 
" style="fill: none; stroke: #000000; stroke-width: 0.8; stroke-linejoin: miter; stroke-linecap: square"/>
   </g>
   <g id="text_21">
    <!-- Learning Curves -->
    <g transform="translate(187.37625 35.472) scale(0.12 -0.12)">
     <defs>
      <path id="DejaVuSans-4c" d="M 628 4666 
L 1259 4666 
L 1259 531 
L 3531 531 
L 3531 0 
L 628 0 
L 628 4666 
z
" transform="scale(0.015625)"/>
      <path id="DejaVuSans-65" d="M 3597 1894 
L 3597 1613 
L 953 1613 
Q 991 1019 1311 708 
Q 1631 397 2203 397 
Q 2534 397 2845 478 
Q 3156 559 3463 722 
L 3463 178 
Q 3153 47 2828 -22 
Q 2503 -91 2169 -91 
Q 1331 -91 842 396 
Q 353 884 353 1716 
Q 353 2575 817 3079 
Q 1281 3584 2069 3584 
Q 2775 3584 3186 3129 
Q 3597 2675 3597 1894 
z
M 3022 2063 
Q 3016 2534 2758 2815 
Q 2500 3097 2075 3097 
Q 1594 3097 1305 2825 
Q 1016 2553 972 2059 
L 3022 2063 
z
" transform="scale(0.015625)"/>
      <path id="DejaVuSans-6e" d="M 3513 2113 
L 3513 0 
L 2938 0 
L 2938 2094 
Q 2938 2591 2744 2837 
Q 2550 3084 2163 3084 
Q 1697 3084 1428 2787 
Q 1159 2491 1159 1978 
L 1159 0 
L 581 0 
L 581 3500 
L 1159 3500 
L 1159 2956 
Q 1366 3272 1645 3428 
Q 1925 3584 2291 3584 
Q 2894 3584 3203 3211 
Q 3513 2838 3513 2113 
z
" transform="scale(0.015625)"/>
      <path id="DejaVuSans-69" d="M 603 3500 
L 1178 3500 
L 1178 0 
L 603 0 
L 603 3500 
z
M 603 4863 
L 1178 4863 
L 1178 4134 
L 603 4134 
L 603 4863 
z
" transform="scale(0.015625)"/>
      <path id="DejaVuSans-67" d="M 2906 1791 
Q 2906 2416 2648 2759 
Q 2391 3103 1925 3103 
Q 1463 3103 1205 2759 
Q 947 2416 947 1791 
Q 947 1169 1205 825 
Q 1463 481 1925 481 
Q 2391 481 2648 825 
Q 2906 1169 2906 1791 
z
M 3481 434 
Q 3481 -459 3084 -895 
Q 2688 -1331 1869 -1331 
Q 1566 -1331 1297 -1286 
Q 1028 -1241 775 -1147 
L 775 -588 
Q 1028 -725 1275 -790 
Q 1522 -856 1778 -856 
Q 2344 -856 2625 -561 
Q 2906 -266 2906 331 
L 2906 616 
Q 2728 306 2450 153 
Q 2172 0 1784 0 
Q 1141 0 747 490 
Q 353 981 353 1791 
Q 353 2603 747 3093 
Q 1141 3584 1784 3584 
Q 2172 3584 2450 3431 
Q 2728 3278 2906 2969 
L 2906 3500 
L 3481 3500 
L 3481 434 
z
" transform="scale(0.015625)"/>
      <path id="DejaVuSans-20" transform="scale(0.015625)"/>
      <path id="DejaVuSans-43" d="M 4122 4306 
L 4122 3641 
Q 3803 3938 3442 4084 
Q 3081 4231 2675 4231 
Q 1875 4231 1450 3742 
Q 1025 3253 1025 2328 
Q 1025 1406 1450 917 
Q 1875 428 2675 428 
Q 3081 428 3442 575 
Q 3803 722 4122 1019 
L 4122 359 
Q 3791 134 3420 21 
Q 3050 -91 2638 -91 
Q 1578 -91 968 557 
Q 359 1206 359 2328 
Q 359 3453 968 4101 
Q 1578 4750 2638 4750 
Q 3056 4750 3426 4639 
Q 3797 4528 4122 4306 
z
" transform="scale(0.015625)"/>
      <path id="DejaVuSans-76" d="M 191 3500 
L 800 3500 
L 1894 563 
L 2988 3500 
L 3597 3500 
L 2284 0 
L 1503 0 
L 191 3500 
z
" transform="scale(0.015625)"/>
     </defs>
     <use xlink:href="#DejaVuSans-4c"/>
     <use xlink:href="#DejaVuSans-65" x="53.962891"/>
     <use xlink:href="#DejaVuSans-61" x="115.486328"/>
     <use xlink:href="#DejaVuSans-72" x="176.765625"/>
     <use xlink:href="#DejaVuSans-6e" x="216.128906"/>
     <use xlink:href="#DejaVuSans-69" x="279.507812"/>
     <use xlink:href="#DejaVuSans-6e" x="307.291016"/>
     <use xlink:href="#DejaVuSans-67" x="370.669922"/>
     <use xlink:href="#DejaVuSans-20" x="434.146484"/>
     <use xlink:href="#DejaVuSans-43" x="465.933594"/>
     <use xlink:href="#DejaVuSans-75" x="535.757812"/>
     <use xlink:href="#DejaVuSans-72" x="599.136719"/>
     <use xlink:href="#DejaVuSans-76" x="640.25"/>
     <use xlink:href="#DejaVuSans-65" x="699.429688"/>
     <use xlink:href="#DejaVuSans-73" x="760.953125"/>
    </g>
   </g>
   <g id="legend_1">
    <g id="patch_7">
     <path d="M 214.18875 302.584 
L 407.72 302.584 
Q 409.72 302.584 409.72 300.584 
L 409.72 228.193375 
Q 409.72 226.193375 407.72 226.193375 
L 214.18875 226.193375 
Q 212.18875 226.193375 212.18875 228.193375 
L 212.18875 300.584 
Q 212.18875 302.584 214.18875 302.584 
z
" style="fill: #ffffff; opacity: 0.8; stroke: #cccccc; stroke-linejoin: miter"/>
    </g>
    <g id="line2d_24">
     <path d="M 216.18875 234.291812 
L 226.18875 234.291812 
L 236.18875 234.291812 
" style="fill: none; stroke: #1f77b4; stroke-width: 1.5; stroke-linecap: square"/>
    </g>
    <g id="text_22">
     <!-- Train Accuracy -->
     <g transform="translate(244.18875 237.791812) scale(0.1 -0.1)">
      <defs>
       <path id="DejaVuSans-54" d="M -19 4666 
L 3928 4666 
L 3928 4134 
L 2272 4134 
L 2272 0 
L 1638 0 
L 1638 4134 
L -19 4134 
L -19 4666 
z
" transform="scale(0.015625)"/>
      </defs>
      <use xlink:href="#DejaVuSans-54"/>
      <use xlink:href="#DejaVuSans-72" x="46.333984"/>
      <use xlink:href="#DejaVuSans-61" x="87.447266"/>
      <use xlink:href="#DejaVuSans-69" x="148.726562"/>
      <use xlink:href="#DejaVuSans-6e" x="176.509766"/>
      <use xlink:href="#DejaVuSans-20" x="239.888672"/>
      <use xlink:href="#DejaVuSans-41" x="271.675781"/>
      <use xlink:href="#DejaVuSans-63" x="338.333984"/>
      <use xlink:href="#DejaVuSans-63" x="393.314453"/>
      <use xlink:href="#DejaVuSans-75" x="448.294922"/>
      <use xlink:href="#DejaVuSans-72" x="511.673828"/>
      <use xlink:href="#DejaVuSans-61" x="552.787109"/>
      <use xlink:href="#DejaVuSans-63" x="614.066406"/>
      <use xlink:href="#DejaVuSans-79" x="669.046875"/>
     </g>
    </g>
    <g id="line2d_25">
     <path d="M 216.18875 248.969937 
L 226.18875 248.969937 
L 236.18875 248.969937 
" style="fill: none; stroke: #ff7f0e; stroke-width: 1.5; stroke-linecap: square"/>
    </g>
    <g id="text_23">
     <!-- Validation Accuracy -->
     <g transform="translate(244.18875 252.469937) scale(0.1 -0.1)">
      <defs>
       <path id="DejaVuSans-56" d="M 1831 0 
L 50 4666 
L 709 4666 
L 2188 738 
L 3669 4666 
L 4325 4666 
L 2547 0 
L 1831 0 
z
" transform="scale(0.015625)"/>
       <path id="DejaVuSans-6c" d="M 603 4863 
L 1178 4863 
L 1178 0 
L 603 0 
L 603 4863 
z
" transform="scale(0.015625)"/>
       <path id="DejaVuSans-64" d="M 2906 2969 
L 2906 4863 
L 3481 4863 
L 3481 0 
L 2906 0 
L 2906 525 
Q 2725 213 2448 61 
Q 2172 -91 1784 -91 
Q 1150 -91 751 415 
Q 353 922 353 1747 
Q 353 2572 751 3078 
Q 1150 3584 1784 3584 
Q 2172 3584 2448 3432 
Q 2725 3281 2906 2969 
z
M 947 1747 
Q 947 1113 1208 752 
Q 1469 391 1925 391 
Q 2381 391 2643 752 
Q 2906 1113 2906 1747 
Q 2906 2381 2643 2742 
Q 2381 3103 1925 3103 
Q 1469 3103 1208 2742 
Q 947 2381 947 1747 
z
" transform="scale(0.015625)"/>
       <path id="DejaVuSans-74" d="M 1172 4494 
L 1172 3500 
L 2356 3500 
L 2356 3053 
L 1172 3053 
L 1172 1153 
Q 1172 725 1289 603 
Q 1406 481 1766 481 
L 2356 481 
L 2356 0 
L 1766 0 
Q 1100 0 847 248 
Q 594 497 594 1153 
L 594 3053 
L 172 3053 
L 172 3500 
L 594 3500 
L 594 4494 
L 1172 4494 
z
" transform="scale(0.015625)"/>
      </defs>
      <use xlink:href="#DejaVuSans-56"/>
      <use xlink:href="#DejaVuSans-61" x="60.658203"/>
      <use xlink:href="#DejaVuSans-6c" x="121.9375"/>
      <use xlink:href="#DejaVuSans-69" x="149.720703"/>
      <use xlink:href="#DejaVuSans-64" x="177.503906"/>
      <use xlink:href="#DejaVuSans-61" x="240.980469"/>
      <use xlink:href="#DejaVuSans-74" x="302.259766"/>
      <use xlink:href="#DejaVuSans-69" x="341.46875"/>
      <use xlink:href="#DejaVuSans-6f" x="369.251953"/>
      <use xlink:href="#DejaVuSans-6e" x="430.433594"/>
      <use xlink:href="#DejaVuSans-20" x="493.8125"/>
      <use xlink:href="#DejaVuSans-41" x="525.599609"/>
      <use xlink:href="#DejaVuSans-63" x="592.257812"/>
      <use xlink:href="#DejaVuSans-63" x="647.238281"/>
      <use xlink:href="#DejaVuSans-75" x="702.21875"/>
      <use xlink:href="#DejaVuSans-72" x="765.597656"/>
      <use xlink:href="#DejaVuSans-61" x="806.710938"/>
      <use xlink:href="#DejaVuSans-63" x="867.990234"/>
      <use xlink:href="#DejaVuSans-79" x="922.970703"/>
     </g>
    </g>
    <g id="line2d_26">
     <path d="M 216.18875 263.648062 
L 226.18875 263.648062 
L 236.18875 263.648062 
" style="fill: none; stroke: #2ca02c; stroke-width: 1.5; stroke-linecap: square"/>
    </g>
    <g id="text_24">
     <!-- Robust Validation Accuracy -->
     <g transform="translate(244.18875 267.148062) scale(0.1 -0.1)">
      <defs>
       <path id="DejaVuSans-52" d="M 2841 2188 
Q 3044 2119 3236 1894 
Q 3428 1669 3622 1275 
L 4263 0 
L 3584 0 
L 2988 1197 
Q 2756 1666 2539 1819 
Q 2322 1972 1947 1972 
L 1259 1972 
L 1259 0 
L 628 0 
L 628 4666 
L 2053 4666 
Q 2853 4666 3247 4331 
Q 3641 3997 3641 3322 
Q 3641 2881 3436 2590 
Q 3231 2300 2841 2188 
z
M 1259 4147 
L 1259 2491 
L 2053 2491 
Q 2509 2491 2742 2702 
Q 2975 2913 2975 3322 
Q 2975 3731 2742 3939 
Q 2509 4147 2053 4147 
L 1259 4147 
z
" transform="scale(0.015625)"/>
       <path id="DejaVuSans-62" d="M 3116 1747 
Q 3116 2381 2855 2742 
Q 2594 3103 2138 3103 
Q 1681 3103 1420 2742 
Q 1159 2381 1159 1747 
Q 1159 1113 1420 752 
Q 1681 391 2138 391 
Q 2594 391 2855 752 
Q 3116 1113 3116 1747 
z
M 1159 2969 
Q 1341 3281 1617 3432 
Q 1894 3584 2278 3584 
Q 2916 3584 3314 3078 
Q 3713 2572 3713 1747 
Q 3713 922 3314 415 
Q 2916 -91 2278 -91 
Q 1894 -91 1617 61 
Q 1341 213 1159 525 
L 1159 0 
L 581 0 
L 581 4863 
L 1159 4863 
L 1159 2969 
z
" transform="scale(0.015625)"/>
      </defs>
      <use xlink:href="#DejaVuSans-52"/>
      <use xlink:href="#DejaVuSans-6f" x="64.982422"/>
      <use xlink:href="#DejaVuSans-62" x="126.164062"/>
      <use xlink:href="#DejaVuSans-75" x="189.640625"/>
      <use xlink:href="#DejaVuSans-73" x="253.019531"/>
      <use xlink:href="#DejaVuSans-74" x="305.119141"/>
      <use xlink:href="#DejaVuSans-20" x="344.328125"/>
      <use xlink:href="#DejaVuSans-56" x="376.115234"/>
      <use xlink:href="#DejaVuSans-61" x="436.773438"/>
      <use xlink:href="#DejaVuSans-6c" x="498.052734"/>
      <use xlink:href="#DejaVuSans-69" x="525.835938"/>
      <use xlink:href="#DejaVuSans-64" x="553.619141"/>
      <use xlink:href="#DejaVuSans-61" x="617.095703"/>
      <use xlink:href="#DejaVuSans-74" x="678.375"/>
      <use xlink:href="#DejaVuSans-69" x="717.583984"/>
      <use xlink:href="#DejaVuSans-6f" x="745.367188"/>
      <use xlink:href="#DejaVuSans-6e" x="806.548828"/>
      <use xlink:href="#DejaVuSans-20" x="869.927734"/>
      <use xlink:href="#DejaVuSans-41" x="901.714844"/>
      <use xlink:href="#DejaVuSans-63" x="968.373047"/>
      <use xlink:href="#DejaVuSans-63" x="1023.353516"/>
      <use xlink:href="#DejaVuSans-75" x="1078.333984"/>
      <use xlink:href="#DejaVuSans-72" x="1141.712891"/>
      <use xlink:href="#DejaVuSans-61" x="1182.826172"/>
      <use xlink:href="#DejaVuSans-63" x="1244.105469"/>
      <use xlink:href="#DejaVuSans-79" x="1299.085938"/>
     </g>
    </g>
    <g id="line2d_27">
     <path d="M 216.18875 278.326188 
L 226.18875 278.326188 
L 236.18875 278.326188 
" style="fill: none; stroke: #d62728; stroke-width: 1.5; stroke-linecap: square"/>
    </g>
    <g id="text_25">
     <!-- SWA Validation Accuracy -->
     <g transform="translate(244.18875 281.826188) scale(0.1 -0.1)">
      <defs>
       <path id="DejaVuSans-53" d="M 3425 4513 
L 3425 3897 
Q 3066 4069 2747 4153 
Q 2428 4238 2131 4238 
Q 1616 4238 1336 4038 
Q 1056 3838 1056 3469 
Q 1056 3159 1242 3001 
Q 1428 2844 1947 2747 
L 2328 2669 
Q 3034 2534 3370 2195 
Q 3706 1856 3706 1288 
Q 3706 609 3251 259 
Q 2797 -91 1919 -91 
Q 1588 -91 1214 -16 
Q 841 59 441 206 
L 441 856 
Q 825 641 1194 531 
Q 1563 422 1919 422 
Q 2459 422 2753 634 
Q 3047 847 3047 1241 
Q 3047 1584 2836 1778 
Q 2625 1972 2144 2069 
L 1759 2144 
Q 1053 2284 737 2584 
Q 422 2884 422 3419 
Q 422 4038 858 4394 
Q 1294 4750 2059 4750 
Q 2388 4750 2728 4690 
Q 3069 4631 3425 4513 
z
" transform="scale(0.015625)"/>
       <path id="DejaVuSans-57" d="M 213 4666 
L 850 4666 
L 1831 722 
L 2809 4666 
L 3519 4666 
L 4500 722 
L 5478 4666 
L 6119 4666 
L 4947 0 
L 4153 0 
L 3169 4050 
L 2175 0 
L 1381 0 
L 213 4666 
z
" transform="scale(0.015625)"/>
      </defs>
      <use xlink:href="#DejaVuSans-53"/>
      <use xlink:href="#DejaVuSans-57" x="63.476562"/>
      <use xlink:href="#DejaVuSans-41" x="156.853516"/>
      <use xlink:href="#DejaVuSans-20" x="225.261719"/>
      <use xlink:href="#DejaVuSans-56" x="257.048828"/>
      <use xlink:href="#DejaVuSans-61" x="317.707031"/>
      <use xlink:href="#DejaVuSans-6c" x="378.986328"/>
      <use xlink:href="#DejaVuSans-69" x="406.769531"/>
      <use xlink:href="#DejaVuSans-64" x="434.552734"/>
      <use xlink:href="#DejaVuSans-61" x="498.029297"/>
      <use xlink:href="#DejaVuSans-74" x="559.308594"/>
      <use xlink:href="#DejaVuSans-69" x="598.517578"/>
      <use xlink:href="#DejaVuSans-6f" x="626.300781"/>
      <use xlink:href="#DejaVuSans-6e" x="687.482422"/>
      <use xlink:href="#DejaVuSans-20" x="750.861328"/>
      <use xlink:href="#DejaVuSans-41" x="782.648438"/>
      <use xlink:href="#DejaVuSans-63" x="849.306641"/>
      <use xlink:href="#DejaVuSans-63" x="904.287109"/>
      <use xlink:href="#DejaVuSans-75" x="959.267578"/>
      <use xlink:href="#DejaVuSans-72" x="1022.646484"/>
      <use xlink:href="#DejaVuSans-61" x="1063.759766"/>
      <use xlink:href="#DejaVuSans-63" x="1125.039062"/>
      <use xlink:href="#DejaVuSans-79" x="1180.019531"/>
     </g>
    </g>
    <g id="line2d_28">
     <path d="M 216.18875 293.004312 
L 226.18875 293.004312 
L 236.18875 293.004312 
" style="fill: none; stroke: #9467bd; stroke-width: 1.5; stroke-linecap: square"/>
    </g>
    <g id="text_26">
     <!-- SWA Robust Validation Accuracy -->
     <g transform="translate(244.18875 296.504312) scale(0.1 -0.1)">
      <use xlink:href="#DejaVuSans-53"/>
      <use xlink:href="#DejaVuSans-57" x="63.476562"/>
      <use xlink:href="#DejaVuSans-41" x="156.853516"/>
      <use xlink:href="#DejaVuSans-20" x="225.261719"/>
      <use xlink:href="#DejaVuSans-52" x="257.048828"/>
      <use xlink:href="#DejaVuSans-6f" x="322.03125"/>
      <use xlink:href="#DejaVuSans-62" x="383.212891"/>
      <use xlink:href="#DejaVuSans-75" x="446.689453"/>
      <use xlink:href="#DejaVuSans-73" x="510.068359"/>
      <use xlink:href="#DejaVuSans-74" x="562.167969"/>
      <use xlink:href="#DejaVuSans-20" x="601.376953"/>
      <use xlink:href="#DejaVuSans-56" x="633.164062"/>
      <use xlink:href="#DejaVuSans-61" x="693.822266"/>
      <use xlink:href="#DejaVuSans-6c" x="755.101562"/>
      <use xlink:href="#DejaVuSans-69" x="782.884766"/>
      <use xlink:href="#DejaVuSans-64" x="810.667969"/>
      <use xlink:href="#DejaVuSans-61" x="874.144531"/>
      <use xlink:href="#DejaVuSans-74" x="935.423828"/>
      <use xlink:href="#DejaVuSans-69" x="974.632812"/>
      <use xlink:href="#DejaVuSans-6f" x="1002.416016"/>
      <use xlink:href="#DejaVuSans-6e" x="1063.597656"/>
      <use xlink:href="#DejaVuSans-20" x="1126.976562"/>
      <use xlink:href="#DejaVuSans-41" x="1158.763672"/>
      <use xlink:href="#DejaVuSans-63" x="1225.421875"/>
      <use xlink:href="#DejaVuSans-63" x="1280.402344"/>
      <use xlink:href="#DejaVuSans-75" x="1335.382812"/>
      <use xlink:href="#DejaVuSans-72" x="1398.761719"/>
      <use xlink:href="#DejaVuSans-61" x="1439.875"/>
      <use xlink:href="#DejaVuSans-63" x="1501.154297"/>
      <use xlink:href="#DejaVuSans-79" x="1556.134766"/>
     </g>
    </g>
   </g>
  </g>
 </g>
 <defs>
  <clipPath id="p711f260075">
   <rect x="57.6" y="41.472" width="357.12" height="266.112"/>
  </clipPath>
 </defs>
</svg>
