<?xml version="1.0" encoding="utf-8" standalone="no"?>
<!DOCTYPE svg PUBLIC "-//W3C//DTD SVG 1.1//EN"
  "http://www.w3.org/Graphics/SVG/1.1/DTD/svg11.dtd">
<svg xmlns:xlink="http://www.w3.org/1999/xlink" width="460.8pt" height="345.6pt" viewBox="0 0 460.8 345.6" xmlns="http://www.w3.org/2000/svg" version="1.1">
 <metadata>
  <rdf:RDF xmlns:dc="http://purl.org/dc/elements/1.1/" xmlns:cc="http://creativecommons.org/ns#" xmlns:rdf="http://www.w3.org/1999/02/22-rdf-syntax-ns#">
   <cc:Work>
    <dc:type rdf:resource="http://purl.org/dc/dcmitype/StillImage"/>
    <dc:date>2025-07-16T22:07:24.768150</dc:date>
    <dc:format>image/svg+xml</dc:format>
    <dc:creator>
     <cc:Agent>
      <dc:title>Matplotlib v3.9.1, https://matplotlib.org/</dc:title>
     </cc:Agent>
    </dc:creator>
   </cc:Work>
  </rdf:RDF>
 </metadata>
 <defs>
  <style type="text/css">*{stroke-linejoin: round; stroke-linecap: butt}</style>
 </defs>
 <g id="figure_1">
  <g id="patch_1">
   <path d="M 0 345.6 
L 460.8 345.6 
L 460.8 0 
L 0 0 
z
" style="fill: #ffffff"/>
  </g>
  <g id="axes_1">
   <g id="patch_2">
    <path d="M 57.6 307.584 
L 414.72 307.584 
L 414.72 41.472 
L 57.6 41.472 
z
" style="fill: #ffffff"/>
   </g>
   <g id="matplotlib.axis_1">
    <g id="xtick_1">
     <g id="line2d_1">
      <defs>
       <path id="md94e1c1a8c" d="M 0 0 
L 0 3.5 
" style="stroke: #000000; stroke-width: 0.8"/>
      </defs>
      <g>
       <use xlink:href="#md94e1c1a8c" x="73.832727" y="307.584" style="stroke: #000000; stroke-width: 0.8"/>
      </g>
     </g>
     <g id="text_1">
      <!-- 1 -->
      <g transform="translate(70.651477 322.182437) scale(0.1 -0.1)">
       <defs>
        <path id="DejaVuSans-31" d="M 794 531 
L 1825 531 
L 1825 4091 
L 703 3866 
L 703 4441 
L 1819 4666 
L 2450 4666 
L 2450 531 
L 3481 531 
L 3481 0 
L 794 0 
L 794 531 
z
" transform="scale(0.015625)"/>
       </defs>
       <use xlink:href="#DejaVuSans-31"/>
      </g>
     </g>
    </g>
    <g id="xtick_2">
     <g id="line2d_2">
      <g>
       <use xlink:href="#md94e1c1a8c" x="109.604347" y="307.584" style="stroke: #000000; stroke-width: 0.8"/>
      </g>
     </g>
     <g id="text_2">
      <!-- 67 -->
      <g transform="translate(103.241847 322.182437) scale(0.1 -0.1)">
       <defs>
        <path id="DejaVuSans-36" d="M 2113 2584 
Q 1688 2584 1439 2293 
Q 1191 2003 1191 1497 
Q 1191 994 1439 701 
Q 1688 409 2113 409 
Q 2538 409 2786 701 
Q 3034 994 3034 1497 
Q 3034 2003 2786 2293 
Q 2538 2584 2113 2584 
z
M 3366 4563 
L 3366 3988 
Q 3128 4100 2886 4159 
Q 2644 4219 2406 4219 
Q 1781 4219 1451 3797 
Q 1122 3375 1075 2522 
Q 1259 2794 1537 2939 
Q 1816 3084 2150 3084 
Q 2853 3084 3261 2657 
Q 3669 2231 3669 1497 
Q 3669 778 3244 343 
Q 2819 -91 2113 -91 
Q 1303 -91 875 529 
Q 447 1150 447 2328 
Q 447 3434 972 4092 
Q 1497 4750 2381 4750 
Q 2619 4750 2861 4703 
Q 3103 4656 3366 4563 
z
" transform="scale(0.015625)"/>
        <path id="DejaVuSans-37" d="M 525 4666 
L 3525 4666 
L 3525 4397 
L 1831 0 
L 1172 0 
L 2766 4134 
L 525 4134 
L 525 4666 
z
" transform="scale(0.015625)"/>
       </defs>
       <use xlink:href="#DejaVuSans-36"/>
       <use xlink:href="#DejaVuSans-37" x="63.623047"/>
      </g>
     </g>
    </g>
    <g id="xtick_3">
     <g id="line2d_3">
      <g>
       <use xlink:href="#md94e1c1a8c" x="145.91796" y="307.584" style="stroke: #000000; stroke-width: 0.8"/>
      </g>
     </g>
     <g id="text_3">
      <!-- 134 -->
      <g transform="translate(136.37421 322.182437) scale(0.1 -0.1)">
       <defs>
        <path id="DejaVuSans-33" d="M 2597 2516 
Q 3050 2419 3304 2112 
Q 3559 1806 3559 1356 
Q 3559 666 3084 287 
Q 2609 -91 1734 -91 
Q 1441 -91 1130 -33 
Q 819 25 488 141 
L 488 750 
Q 750 597 1062 519 
Q 1375 441 1716 441 
Q 2309 441 2620 675 
Q 2931 909 2931 1356 
Q 2931 1769 2642 2001 
Q 2353 2234 1838 2234 
L 1294 2234 
L 1294 2753 
L 1863 2753 
Q 2328 2753 2575 2939 
Q 2822 3125 2822 3475 
Q 2822 3834 2567 4026 
Q 2313 4219 1838 4219 
Q 1578 4219 1281 4162 
Q 984 4106 628 3988 
L 628 4550 
Q 988 4650 1302 4700 
Q 1616 4750 1894 4750 
Q 2613 4750 3031 4423 
Q 3450 4097 3450 3541 
Q 3450 3153 3228 2886 
Q 3006 2619 2597 2516 
z
" transform="scale(0.015625)"/>
        <path id="DejaVuSans-34" d="M 2419 4116 
L 825 1625 
L 2419 1625 
L 2419 4116 
z
M 2253 4666 
L 3047 4666 
L 3047 1625 
L 3713 1625 
L 3713 1100 
L 3047 1100 
L 3047 0 
L 2419 0 
L 2419 1100 
L 313 1100 
L 313 1709 
L 2253 4666 
z
" transform="scale(0.015625)"/>
       </defs>
       <use xlink:href="#DejaVuSans-31"/>
       <use xlink:href="#DejaVuSans-33" x="63.623047"/>
       <use xlink:href="#DejaVuSans-34" x="127.246094"/>
      </g>
     </g>
    </g>
    <g id="xtick_4">
     <g id="line2d_4">
      <g>
       <use xlink:href="#md94e1c1a8c" x="181.68958" y="307.584" style="stroke: #000000; stroke-width: 0.8"/>
      </g>
     </g>
     <g id="text_4">
      <!-- 200 -->
      <g transform="translate(172.14583 322.182437) scale(0.1 -0.1)">
       <defs>
        <path id="DejaVuSans-32" d="M 1228 531 
L 3431 531 
L 3431 0 
L 469 0 
L 469 531 
Q 828 903 1448 1529 
Q 2069 2156 2228 2338 
Q 2531 2678 2651 2914 
Q 2772 3150 2772 3378 
Q 2772 3750 2511 3984 
Q 2250 4219 1831 4219 
Q 1534 4219 1204 4116 
Q 875 4013 500 3803 
L 500 4441 
Q 881 4594 1212 4672 
Q 1544 4750 1819 4750 
Q 2544 4750 2975 4387 
Q 3406 4025 3406 3419 
Q 3406 3131 3298 2873 
Q 3191 2616 2906 2266 
Q 2828 2175 2409 1742 
Q 1991 1309 1228 531 
z
" transform="scale(0.015625)"/>
        <path id="DejaVuSans-30" d="M 2034 4250 
Q 1547 4250 1301 3770 
Q 1056 3291 1056 2328 
Q 1056 1369 1301 889 
Q 1547 409 2034 409 
Q 2525 409 2770 889 
Q 3016 1369 3016 2328 
Q 3016 3291 2770 3770 
Q 2525 4250 2034 4250 
z
M 2034 4750 
Q 2819 4750 3233 4129 
Q 3647 3509 3647 2328 
Q 3647 1150 3233 529 
Q 2819 -91 2034 -91 
Q 1250 -91 836 529 
Q 422 1150 422 2328 
Q 422 3509 836 4129 
Q 1250 4750 2034 4750 
z
" transform="scale(0.015625)"/>
       </defs>
       <use xlink:href="#DejaVuSans-32"/>
       <use xlink:href="#DejaVuSans-30" x="63.623047"/>
       <use xlink:href="#DejaVuSans-30" x="127.246094"/>
      </g>
     </g>
    </g>
    <g id="xtick_5">
     <g id="line2d_5">
      <g>
       <use xlink:href="#md94e1c1a8c" x="218.003193" y="307.584" style="stroke: #000000; stroke-width: 0.8"/>
      </g>
     </g>
     <g id="text_5">
      <!-- 267 -->
      <g transform="translate(208.459443 322.182437) scale(0.1 -0.1)">
       <use xlink:href="#DejaVuSans-32"/>
       <use xlink:href="#DejaVuSans-36" x="63.623047"/>
       <use xlink:href="#DejaVuSans-37" x="127.246094"/>
      </g>
     </g>
    </g>
    <g id="xtick_6">
     <g id="line2d_6">
      <g>
       <use xlink:href="#md94e1c1a8c" x="253.774813" y="307.584" style="stroke: #000000; stroke-width: 0.8"/>
      </g>
     </g>
     <g id="text_6">
      <!-- 333 -->
      <g transform="translate(244.231063 322.182437) scale(0.1 -0.1)">
       <use xlink:href="#DejaVuSans-33"/>
       <use xlink:href="#DejaVuSans-33" x="63.623047"/>
       <use xlink:href="#DejaVuSans-33" x="127.246094"/>
      </g>
     </g>
    </g>
    <g id="xtick_7">
     <g id="line2d_7">
      <g>
       <use xlink:href="#md94e1c1a8c" x="290.088426" y="307.584" style="stroke: #000000; stroke-width: 0.8"/>
      </g>
     </g>
     <g id="text_7">
      <!-- 400 -->
      <g transform="translate(280.544676 322.182437) scale(0.1 -0.1)">
       <use xlink:href="#DejaVuSans-34"/>
       <use xlink:href="#DejaVuSans-30" x="63.623047"/>
       <use xlink:href="#DejaVuSans-30" x="127.246094"/>
      </g>
     </g>
    </g>
    <g id="xtick_8">
     <g id="line2d_8">
      <g>
       <use xlink:href="#md94e1c1a8c" x="325.860046" y="307.584" style="stroke: #000000; stroke-width: 0.8"/>
      </g>
     </g>
     <g id="text_8">
      <!-- 466 -->
      <g transform="translate(316.316296 322.182437) scale(0.1 -0.1)">
       <use xlink:href="#DejaVuSans-34"/>
       <use xlink:href="#DejaVuSans-36" x="63.623047"/>
       <use xlink:href="#DejaVuSans-36" x="127.246094"/>
      </g>
     </g>
    </g>
    <g id="xtick_9">
     <g id="line2d_9">
      <g>
       <use xlink:href="#md94e1c1a8c" x="362.173659" y="307.584" style="stroke: #000000; stroke-width: 0.8"/>
      </g>
     </g>
     <g id="text_9">
      <!-- 533 -->
      <g transform="translate(352.629909 322.182437) scale(0.1 -0.1)">
       <defs>
        <path id="DejaVuSans-35" d="M 691 4666 
L 3169 4666 
L 3169 4134 
L 1269 4134 
L 1269 2991 
Q 1406 3038 1543 3061 
Q 1681 3084 1819 3084 
Q 2600 3084 3056 2656 
Q 3513 2228 3513 1497 
Q 3513 744 3044 326 
Q 2575 -91 1722 -91 
Q 1428 -91 1123 -41 
Q 819 9 494 109 
L 494 744 
Q 775 591 1075 516 
Q 1375 441 1709 441 
Q 2250 441 2565 725 
Q 2881 1009 2881 1497 
Q 2881 1984 2565 2268 
Q 2250 2553 1709 2553 
Q 1456 2553 1204 2497 
Q 953 2441 691 2322 
L 691 4666 
z
" transform="scale(0.015625)"/>
       </defs>
       <use xlink:href="#DejaVuSans-35"/>
       <use xlink:href="#DejaVuSans-33" x="63.623047"/>
       <use xlink:href="#DejaVuSans-33" x="127.246094"/>
      </g>
     </g>
    </g>
    <g id="xtick_10">
     <g id="line2d_10">
      <g>
       <use xlink:href="#md94e1c1a8c" x="398.487273" y="307.584" style="stroke: #000000; stroke-width: 0.8"/>
      </g>
     </g>
     <g id="text_10">
      <!-- 600 -->
      <g transform="translate(388.943523 322.182437) scale(0.1 -0.1)">
       <use xlink:href="#DejaVuSans-36"/>
       <use xlink:href="#DejaVuSans-30" x="63.623047"/>
       <use xlink:href="#DejaVuSans-30" x="127.246094"/>
      </g>
     </g>
    </g>
    <g id="text_11">
     <!-- Epochs -->
     <g transform="translate(218.244375 335.860562) scale(0.1 -0.1)">
      <defs>
       <path id="DejaVuSans-45" d="M 628 4666 
L 3578 4666 
L 3578 4134 
L 1259 4134 
L 1259 2753 
L 3481 2753 
L 3481 2222 
L 1259 2222 
L 1259 531 
L 3634 531 
L 3634 0 
L 628 0 
L 628 4666 
z
" transform="scale(0.015625)"/>
       <path id="DejaVuSans-70" d="M 1159 525 
L 1159 -1331 
L 581 -1331 
L 581 3500 
L 1159 3500 
L 1159 2969 
Q 1341 3281 1617 3432 
Q 1894 3584 2278 3584 
Q 2916 3584 3314 3078 
Q 3713 2572 3713 1747 
Q 3713 922 3314 415 
Q 2916 -91 2278 -91 
Q 1894 -91 1617 61 
Q 1341 213 1159 525 
z
M 3116 1747 
Q 3116 2381 2855 2742 
Q 2594 3103 2138 3103 
Q 1681 3103 1420 2742 
Q 1159 2381 1159 1747 
Q 1159 1113 1420 752 
Q 1681 391 2138 391 
Q 2594 391 2855 752 
Q 3116 1113 3116 1747 
z
" transform="scale(0.015625)"/>
       <path id="DejaVuSans-6f" d="M 1959 3097 
Q 1497 3097 1228 2736 
Q 959 2375 959 1747 
Q 959 1119 1226 758 
Q 1494 397 1959 397 
Q 2419 397 2687 759 
Q 2956 1122 2956 1747 
Q 2956 2369 2687 2733 
Q 2419 3097 1959 3097 
z
M 1959 3584 
Q 2709 3584 3137 3096 
Q 3566 2609 3566 1747 
Q 3566 888 3137 398 
Q 2709 -91 1959 -91 
Q 1206 -91 779 398 
Q 353 888 353 1747 
Q 353 2609 779 3096 
Q 1206 3584 1959 3584 
z
" transform="scale(0.015625)"/>
       <path id="DejaVuSans-63" d="M 3122 3366 
L 3122 2828 
Q 2878 2963 2633 3030 
Q 2388 3097 2138 3097 
Q 1578 3097 1268 2742 
Q 959 2388 959 1747 
Q 959 1106 1268 751 
Q 1578 397 2138 397 
Q 2388 397 2633 464 
Q 2878 531 3122 666 
L 3122 134 
Q 2881 22 2623 -34 
Q 2366 -91 2075 -91 
Q 1284 -91 818 406 
Q 353 903 353 1747 
Q 353 2603 823 3093 
Q 1294 3584 2113 3584 
Q 2378 3584 2631 3529 
Q 2884 3475 3122 3366 
z
" transform="scale(0.015625)"/>
       <path id="DejaVuSans-68" d="M 3513 2113 
L 3513 0 
L 2938 0 
L 2938 2094 
Q 2938 2591 2744 2837 
Q 2550 3084 2163 3084 
Q 1697 3084 1428 2787 
Q 1159 2491 1159 1978 
L 1159 0 
L 581 0 
L 581 4863 
L 1159 4863 
L 1159 2956 
Q 1366 3272 1645 3428 
Q 1925 3584 2291 3584 
Q 2894 3584 3203 3211 
Q 3513 2838 3513 2113 
z
" transform="scale(0.015625)"/>
       <path id="DejaVuSans-73" d="M 2834 3397 
L 2834 2853 
Q 2591 2978 2328 3040 
Q 2066 3103 1784 3103 
Q 1356 3103 1142 2972 
Q 928 2841 928 2578 
Q 928 2378 1081 2264 
Q 1234 2150 1697 2047 
L 1894 2003 
Q 2506 1872 2764 1633 
Q 3022 1394 3022 966 
Q 3022 478 2636 193 
Q 2250 -91 1575 -91 
Q 1294 -91 989 -36 
Q 684 19 347 128 
L 347 722 
Q 666 556 975 473 
Q 1284 391 1588 391 
Q 1994 391 2212 530 
Q 2431 669 2431 922 
Q 2431 1156 2273 1281 
Q 2116 1406 1581 1522 
L 1381 1569 
Q 847 1681 609 1914 
Q 372 2147 372 2553 
Q 372 3047 722 3315 
Q 1072 3584 1716 3584 
Q 2034 3584 2315 3537 
Q 2597 3491 2834 3397 
z
" transform="scale(0.015625)"/>
      </defs>
      <use xlink:href="#DejaVuSans-45"/>
      <use xlink:href="#DejaVuSans-70" x="63.183594"/>
      <use xlink:href="#DejaVuSans-6f" x="126.660156"/>
      <use xlink:href="#DejaVuSans-63" x="187.841797"/>
      <use xlink:href="#DejaVuSans-68" x="242.822266"/>
      <use xlink:href="#DejaVuSans-73" x="306.201172"/>
     </g>
    </g>
   </g>
   <g id="matplotlib.axis_2">
    <g id="ytick_1">
     <g id="line2d_11">
      <defs>
       <path id="ma584ec5b28" d="M 0 0 
L -3.5 0 
" style="stroke: #000000; stroke-width: 0.8"/>
      </defs>
      <g>
       <use xlink:href="#ma584ec5b28" x="57.6" y="285.060743" style="stroke: #000000; stroke-width: 0.8"/>
      </g>
     </g>
     <g id="text_12">
      <!-- 10 -->
      <g transform="translate(37.875 288.859962) scale(0.1 -0.1)">
       <use xlink:href="#DejaVuSans-31"/>
       <use xlink:href="#DejaVuSans-30" x="63.623047"/>
      </g>
     </g>
    </g>
    <g id="ytick_2">
     <g id="line2d_12">
      <g>
       <use xlink:href="#ma584ec5b28" x="57.6" y="253.250929" style="stroke: #000000; stroke-width: 0.8"/>
      </g>
     </g>
     <g id="text_13">
      <!-- 20 -->
      <g transform="translate(37.875 257.050147) scale(0.1 -0.1)">
       <use xlink:href="#DejaVuSans-32"/>
       <use xlink:href="#DejaVuSans-30" x="63.623047"/>
      </g>
     </g>
    </g>
    <g id="ytick_3">
     <g id="line2d_13">
      <g>
       <use xlink:href="#ma584ec5b28" x="57.6" y="221.441114" style="stroke: #000000; stroke-width: 0.8"/>
      </g>
     </g>
     <g id="text_14">
      <!-- 30 -->
      <g transform="translate(37.875 225.240333) scale(0.1 -0.1)">
       <use xlink:href="#DejaVuSans-33"/>
       <use xlink:href="#DejaVuSans-30" x="63.623047"/>
      </g>
     </g>
    </g>
    <g id="ytick_4">
     <g id="line2d_14">
      <g>
       <use xlink:href="#ma584ec5b28" x="57.6" y="189.6313" style="stroke: #000000; stroke-width: 0.8"/>
      </g>
     </g>
     <g id="text_15">
      <!-- 40 -->
      <g transform="translate(37.875 193.430519) scale(0.1 -0.1)">
       <use xlink:href="#DejaVuSans-34"/>
       <use xlink:href="#DejaVuSans-30" x="63.623047"/>
      </g>
     </g>
    </g>
    <g id="ytick_5">
     <g id="line2d_15">
      <g>
       <use xlink:href="#ma584ec5b28" x="57.6" y="157.821486" style="stroke: #000000; stroke-width: 0.8"/>
      </g>
     </g>
     <g id="text_16">
      <!-- 50 -->
      <g transform="translate(37.875 161.620704) scale(0.1 -0.1)">
       <use xlink:href="#DejaVuSans-35"/>
       <use xlink:href="#DejaVuSans-30" x="63.623047"/>
      </g>
     </g>
    </g>
    <g id="ytick_6">
     <g id="line2d_16">
      <g>
       <use xlink:href="#ma584ec5b28" x="57.6" y="126.011671" style="stroke: #000000; stroke-width: 0.8"/>
      </g>
     </g>
     <g id="text_17">
      <!-- 60 -->
      <g transform="translate(37.875 129.81089) scale(0.1 -0.1)">
       <use xlink:href="#DejaVuSans-36"/>
       <use xlink:href="#DejaVuSans-30" x="63.623047"/>
      </g>
     </g>
    </g>
    <g id="ytick_7">
     <g id="line2d_17">
      <g>
       <use xlink:href="#ma584ec5b28" x="57.6" y="94.201857" style="stroke: #000000; stroke-width: 0.8"/>
      </g>
     </g>
     <g id="text_18">
      <!-- 70 -->
      <g transform="translate(37.875 98.001076) scale(0.1 -0.1)">
       <use xlink:href="#DejaVuSans-37"/>
       <use xlink:href="#DejaVuSans-30" x="63.623047"/>
      </g>
     </g>
    </g>
    <g id="ytick_8">
     <g id="line2d_18">
      <g>
       <use xlink:href="#ma584ec5b28" x="57.6" y="62.392042" style="stroke: #000000; stroke-width: 0.8"/>
      </g>
     </g>
     <g id="text_19">
      <!-- 80 -->
      <g transform="translate(37.875 66.191261) scale(0.1 -0.1)">
       <defs>
        <path id="DejaVuSans-38" d="M 2034 2216 
Q 1584 2216 1326 1975 
Q 1069 1734 1069 1313 
Q 1069 891 1326 650 
Q 1584 409 2034 409 
Q 2484 409 2743 651 
Q 3003 894 3003 1313 
Q 3003 1734 2745 1975 
Q 2488 2216 2034 2216 
z
M 1403 2484 
Q 997 2584 770 2862 
Q 544 3141 544 3541 
Q 544 4100 942 4425 
Q 1341 4750 2034 4750 
Q 2731 4750 3128 4425 
Q 3525 4100 3525 3541 
Q 3525 3141 3298 2862 
Q 3072 2584 2669 2484 
Q 3125 2378 3379 2068 
Q 3634 1759 3634 1313 
Q 3634 634 3220 271 
Q 2806 -91 2034 -91 
Q 1263 -91 848 271 
Q 434 634 434 1313 
Q 434 1759 690 2068 
Q 947 2378 1403 2484 
z
M 1172 3481 
Q 1172 3119 1398 2916 
Q 1625 2713 2034 2713 
Q 2441 2713 2670 2916 
Q 2900 3119 2900 3481 
Q 2900 3844 2670 4047 
Q 2441 4250 2034 4250 
Q 1625 4250 1398 4047 
Q 1172 3844 1172 3481 
z
" transform="scale(0.015625)"/>
       </defs>
       <use xlink:href="#DejaVuSans-38"/>
       <use xlink:href="#DejaVuSans-30" x="63.623047"/>
      </g>
     </g>
    </g>
    <g id="text_20">
     <!-- Accuracy -->
     <g transform="translate(31.795312 197.356125) rotate(-90) scale(0.1 -0.1)">
      <defs>
       <path id="DejaVuSans-41" d="M 2188 4044 
L 1331 1722 
L 3047 1722 
L 2188 4044 
z
M 1831 4666 
L 2547 4666 
L 4325 0 
L 3669 0 
L 3244 1197 
L 1141 1197 
L 716 0 
L 50 0 
L 1831 4666 
z
" transform="scale(0.015625)"/>
       <path id="DejaVuSans-75" d="M 544 1381 
L 544 3500 
L 1119 3500 
L 1119 1403 
Q 1119 906 1312 657 
Q 1506 409 1894 409 
Q 2359 409 2629 706 
Q 2900 1003 2900 1516 
L 2900 3500 
L 3475 3500 
L 3475 0 
L 2900 0 
L 2900 538 
Q 2691 219 2414 64 
Q 2138 -91 1772 -91 
Q 1169 -91 856 284 
Q 544 659 544 1381 
z
M 1991 3584 
L 1991 3584 
z
" transform="scale(0.015625)"/>
       <path id="DejaVuSans-72" d="M 2631 2963 
Q 2534 3019 2420 3045 
Q 2306 3072 2169 3072 
Q 1681 3072 1420 2755 
Q 1159 2438 1159 1844 
L 1159 0 
L 581 0 
L 581 3500 
L 1159 3500 
L 1159 2956 
Q 1341 3275 1631 3429 
Q 1922 3584 2338 3584 
Q 2397 3584 2469 3576 
Q 2541 3569 2628 3553 
L 2631 2963 
z
" transform="scale(0.015625)"/>
       <path id="DejaVuSans-61" d="M 2194 1759 
Q 1497 1759 1228 1600 
Q 959 1441 959 1056 
Q 959 750 1161 570 
Q 1363 391 1709 391 
Q 2188 391 2477 730 
Q 2766 1069 2766 1631 
L 2766 1759 
L 2194 1759 
z
M 3341 1997 
L 3341 0 
L 2766 0 
L 2766 531 
Q 2569 213 2275 61 
Q 1981 -91 1556 -91 
Q 1019 -91 701 211 
Q 384 513 384 1019 
Q 384 1609 779 1909 
Q 1175 2209 1959 2209 
L 2766 2209 
L 2766 2266 
Q 2766 2663 2505 2880 
Q 2244 3097 1772 3097 
Q 1472 3097 1187 3025 
Q 903 2953 641 2809 
L 641 3341 
Q 956 3463 1253 3523 
Q 1550 3584 1831 3584 
Q 2591 3584 2966 3190 
Q 3341 2797 3341 1997 
z
" transform="scale(0.015625)"/>
       <path id="DejaVuSans-79" d="M 2059 -325 
Q 1816 -950 1584 -1140 
Q 1353 -1331 966 -1331 
L 506 -1331 
L 506 -850 
L 844 -850 
Q 1081 -850 1212 -737 
Q 1344 -625 1503 -206 
L 1606 56 
L 191 3500 
L 800 3500 
L 1894 763 
L 2988 3500 
L 3597 3500 
L 2059 -325 
z
" transform="scale(0.015625)"/>
      </defs>
      <use xlink:href="#DejaVuSans-41"/>
      <use xlink:href="#DejaVuSans-63" x="66.658203"/>
      <use xlink:href="#DejaVuSans-63" x="121.638672"/>
      <use xlink:href="#DejaVuSans-75" x="176.619141"/>
      <use xlink:href="#DejaVuSans-72" x="239.998047"/>
      <use xlink:href="#DejaVuSans-61" x="281.111328"/>
      <use xlink:href="#DejaVuSans-63" x="342.390625"/>
      <use xlink:href="#DejaVuSans-79" x="397.371094"/>
     </g>
    </g>
   </g>
   <g id="line2d_19">
    <path d="M 73.832727 295.488 
L 75.45871 225.678181 
L 76.542698 195.700612 
L 77.084693 187.983551 
L 78.168681 169.718356 
L 78.710675 167.765233 
L 79.25267 160.900676 
L 79.794664 155.792019 
L 80.878652 148.170388 
L 81.420647 144.073284 
L 81.962641 142.832701 
L 83.046629 134.282223 
L 83.588623 133.556959 
L 84.130618 128.359235 
L 84.672612 127.385855 
L 85.214606 125.070101 
L 85.7566 121.3738 
L 86.298595 120.330438 
L 86.840589 118.74631 
L 87.382583 115.31085 
L 87.924577 115.870702 
L 88.466572 112.638825 
L 89.008566 110.399414 
L 89.55056 110.176746 
L 90.092554 107.950059 
L 91.176543 106.524979 
L 91.718537 104.298292 
L 92.260531 102.644182 
L 92.802525 103.99928 
L 93.34452 101.632629 
L 93.886514 101.689887 
L 94.428508 100.366599 
L 94.970502 101.18093 
L 95.512497 131.661094 
L 96.054491 132.049174 
L 96.596485 131.037622 
L 97.138479 132.182775 
L 97.680474 128.702781 
L 98.222468 126.692401 
L 98.764462 127.258616 
L 99.84845 123.225131 
L 100.390445 122.728898 
L 100.932439 120.852119 
L 101.474433 121.062064 
L 102.016427 119.789671 
L 102.558422 117.518451 
L 103.100416 116.004304 
L 103.64241 116.067923 
L 104.184404 115.469899 
L 104.726399 111.799046 
L 105.268393 112.702445 
L 106.352381 109.973163 
L 106.894375 109.871371 
L 107.43637 108.719856 
L 107.978364 108.287243 
L 108.520358 106.639494 
L 109.062352 107.008488 
L 109.604347 106.823991 
L 110.146341 105.258948 
L 110.688335 105.163519 
L 111.230329 105.430721 
L 111.772324 102.714163 
L 112.314318 100.703783 
L 112.856312 101.79804 
L 113.398306 100.099396 
L 113.940301 97.12836 
L 114.482295 98.693403 
L 115.024289 97.980863 
L 115.566283 96.205875 
L 116.108277 95.881415 
L 116.650272 96.460354 
L 117.192266 92.166029 
L 117.73426 93.171219 
L 118.276254 91.237182 
L 118.818249 90.352869 
L 119.360243 89.945704 
L 119.902237 88.870532 
L 120.444231 89.818464 
L 120.986226 88.196164 
L 121.52822 88.425195 
L 122.612208 85.46052 
L 123.154202 85.097888 
L 123.696197 84.09906 
L 124.238191 83.602827 
L 124.780185 83.526483 
L 125.322179 82.177747 
L 125.864174 80.141919 
L 126.406168 81.60517 
L 126.948162 80.269158 
L 127.490156 80.097385 
L 128.032151 79.550256 
L 128.574145 77.514428 
L 129.116139 77.279036 
L 129.658133 76.394723 
L 130.200127 76.070263 
L 130.742122 74.995091 
L 131.284116 75.809422 
L 131.82611 75.224122 
L 132.368104 75.21776 
L 132.910099 73.652717 
L 133.452093 74.594287 
L 133.994087 73.849938 
L 134.536081 72.450306 
L 135.078076 74.587925 
L 135.62007 72.533011 
L 136.162064 71.661422 
L 136.704058 73.207379 
L 137.246053 72.889281 
L 137.788047 73.08014 
L 138.330041 72.72387 
L 138.872035 100.576544 
L 139.414029 104.826335 
L 139.956024 106.385016 
L 140.498018 105.557961 
L 141.040012 106.30231 
L 141.582006 105.150795 
L 142.124001 105.608856 
L 142.665995 103.67482 
L 143.207989 105.061727 
L 143.749983 103.668458 
L 144.291978 103.865678 
L 145.375966 101.123672 
L 145.91796 101.295445 
L 146.459954 102.905022 
L 147.001949 100.754679 
L 147.543943 101.460856 
L 148.085937 100.5002 
L 148.627931 99.087844 
L 149.169926 98.922433 
L 149.71192 100.054863 
L 150.253914 98.139912 
L 150.795908 98.451648 
L 151.337903 98.432562 
L 151.879897 98.559801 
L 152.421891 97.242875 
L 152.963885 96.829347 
L 153.505879 97.529163 
L 154.047874 97.580059 
L 154.589868 95.149789 
L 155.131862 96.924777 
L 155.673856 94.850777 
L 156.215851 95.073446 
L 156.757845 94.838053 
L 157.299839 95.894139 
L 157.841833 94.710814 
L 158.383828 94.621746 
L 158.925822 94.335458 
L 159.467816 94.182771 
L 160.00981 93.018532 
L 160.551805 93.247562 
L 161.093799 93.260286 
L 161.635793 92.178753 
L 162.177787 91.65071 
L 162.719781 90.880912 
L 163.261776 91.00179 
L 163.80377 92.395059 
L 164.345764 90.887274 
L 164.887758 90.079305 
L 165.429753 89.83755 
L 165.971747 89.971152 
L 166.513741 88.660587 
L 167.055735 89.016857 
L 167.59773 88.075287 
L 168.139724 88.100734 
L 168.681718 87.636311 
L 169.223712 88.138906 
L 169.765706 87.458176 
L 170.307701 88.177078 
L 170.849695 86.17306 
L 171.391689 86.707465 
L 171.933683 86.427538 
L 172.475678 86.522968 
L 173.017672 86.332109 
L 173.559666 84.474416 
L 174.10166 84.09906 
L 174.643655 84.639827 
L 175.185649 85.594121 
L 175.727643 84.703446 
L 176.269637 82.979354 
L 176.811632 82.483121 
L 177.353626 82.597637 
L 177.89562 82.922097 
L 178.437614 82.196833 
L 178.979608 82.833029 
L 179.521603 81.401588 
L 180.063597 80.949888 
L 180.605591 80.918078 
L 181.147585 80.383673 
L 181.68958 80.27552 
L 182.231574 78.767735 
L 182.773568 79.257606 
L 183.315562 78.411465 
L 183.857557 78.805907 
L 184.399551 77.393551 
L 184.941545 77.724373 
L 185.483539 76.776441 
L 186.025533 76.490152 
L 186.567528 77.597134 
L 187.109522 76.636477 
L 188.19351 74.422514 
L 188.735505 75.612201 
L 189.277499 74.4416 
L 189.819493 74.021711 
L 190.361487 72.361238 
L 190.903482 74.238017 
L 191.445476 73.939005 
L 191.98747 72.902005 
L 192.529464 72.361238 
L 193.071458 72.711146 
L 193.613453 71.941349 
L 194.155447 72.284895 
L 194.697441 70.859815 
L 195.239435 70.287238 
L 195.78143 71.527821 
L 196.323424 69.714662 
L 196.865418 70.637146 
L 197.407412 69.033932 
L 197.949407 69.485631 
L 198.491401 68.893969 
L 199.033395 67.373459 
L 199.575389 67.176239 
L 200.117384 67.774263 
L 200.659378 66.584576 
L 201.201372 66.832693 
L 201.743366 65.891122 
L 202.28536 66.132877 
L 202.827355 66.228306 
L 203.369349 65.471233 
L 203.911343 64.955914 
L 204.453337 65.044981 
L 204.995332 63.212736 
L 206.07932 63.995257 
L 206.621314 63.384509 
L 207.163309 62.430214 
L 207.705303 62.105754 
L 208.247297 61.304147 
L 208.789291 62.341147 
L 209.331285 61.755846 
L 210.415274 61.195993 
L 210.957268 61.501368 
L 211.499262 60.718846 
L 212.041257 60.807914 
L 212.583251 60.330767 
L 213.125245 58.956583 
L 213.667239 59.872705 
L 214.209234 60.197165 
L 214.751228 58.670294 
L 215.293222 57.849601 
L 215.835216 59.974497 
L 216.377211 58.816619 
L 216.919205 58.148613 
L 217.461199 57.792343 
L 218.003193 58.10408 
L 218.545187 57.39154 
L 219.087182 57.703276 
L 219.629176 57.257938 
L 220.713164 58.237681 
L 221.255159 58.530331 
L 222.339147 57.404264 
L 222.881141 57.378816 
L 223.423136 57.512417 
L 223.96513 57.518779 
L 224.507124 58.034098 
L 225.049118 57.111613 
L 225.591112 91.249906 
L 226.133107 97.185617 
L 226.675101 95.544231 
L 227.217095 97.058378 
L 227.759089 97.48463 
L 228.301084 95.849605 
L 229.385072 95.353372 
L 229.927066 94.971654 
L 230.469061 95.175237 
L 231.011055 96.345838 
L 231.553049 95.868691 
L 232.095043 95.175237 
L 232.637037 93.845587 
L 233.721026 94.100065 
L 234.26302 93.603832 
L 234.805014 93.393888 
L 235.347009 92.134219 
L 235.889003 93.393888 
L 236.430997 92.541385 
L 236.972991 92.662262 
L 237.514986 93.01217 
L 238.05698 92.076961 
L 238.598974 91.561642 
L 239.140968 92.051513 
L 239.682963 91.593452 
L 240.224957 91.504385 
L 240.766951 91.243544 
L 241.308945 91.924274 
L 241.850939 90.64552 
L 242.392934 89.061391 
L 242.934928 92.032427 
L 243.476922 89.742121 
L 244.018916 90.403765 
L 244.560911 91.459851 
L 246.186893 88.978685 
L 246.728888 89.672139 
L 247.270882 88.526986 
L 247.812876 89.907532 
L 248.35487 89.557624 
L 248.896864 90.333783 
L 249.438859 88.272507 
L 249.980853 87.750826 
L 250.522847 87.738103 
L 251.064841 88.609691 
L 251.606836 88.469728 
L 252.14883 88.5079 
L 252.690824 88.876894 
L 253.232818 87.719017 
L 253.774813 87.960771 
L 254.316807 86.841066 
L 254.858801 87.08282 
L 255.400795 86.128526 
L 255.942789 87.330937 
L 257.026778 85.886771 
L 257.568772 85.371452 
L 258.110766 87.260955 
L 258.652761 88.431557 
L 259.736749 85.854962 
L 260.278743 86.147612 
L 260.820738 86.904685 
L 261.362732 85.555949 
L 261.904726 85.657741 
L 262.44672 86.503882 
L 262.988715 85.823152 
L 263.530709 84.830686 
L 264.072703 86.395728 
L 264.614697 83.901839 
L 265.156691 86.72655 
L 265.698686 84.996097 
L 266.24068 85.263299 
L 266.782674 84.468054 
L 267.324668 84.353538 
L 267.866663 84.385348 
L 268.408657 85.975839 
L 268.950651 83.895477 
L 269.492645 84.805238 
L 270.03464 83.793686 
L 270.576634 83.717342 
L 271.118628 84.143594 
L 271.660622 84.118146 
L 272.744611 83.831857 
L 273.286605 84.09906 
L 273.828599 82.012336 
L 274.370593 82.603999 
L 274.912588 82.343158 
L 275.454582 83.06206 
L 275.996576 82.712152 
L 276.53857 83.532845 
L 277.080565 82.801219 
L 277.622559 83.278367 
L 278.164553 81.267986 
L 278.706547 82.304986 
L 279.248542 82.743962 
L 279.790536 81.306158 
L 280.33253 82.432226 
L 280.874524 82.190471 
L 281.416518 81.789667 
L 281.958513 80.949888 
L 282.500507 81.821477 
L 283.042501 81.337968 
L 283.584495 80.536361 
L 284.12649 80.816287 
L 284.668484 80.803563 
L 285.210478 80.269158 
L 285.752472 81.331606 
L 286.294467 80.606342 
L 286.836461 80.192815 
L 287.378455 78.869526 
L 287.920449 80.351864 
L 288.462443 79.607514 
L 289.004438 80.129195 
L 290.63042 78.767735 
L 291.172415 80.854459 
L 291.714409 78.627772 
L 292.256403 79.155815 
L 292.798397 77.463533 
L 293.340392 79.33395 
L 293.882386 79.378483 
L 294.42438 77.355379 
L 294.966374 78.042471 
L 295.508368 77.368103 
L 296.050363 78.118815 
L 296.592357 77.775269 
L 297.134351 78.685029 
L 297.676345 78.984042 
L 298.21834 77.807079 
L 299.844322 76.413809 
L 300.928311 77.030919 
L 301.470305 75.993919 
L 302.012299 76.948214 
L 302.554294 76.852784 
L 303.096288 77.062729 
L 303.638282 75.198674 
L 304.180276 75.115968 
L 304.72227 76.089349 
L 305.264265 76.057539 
L 305.806259 75.745803 
L 306.348253 74.238017 
L 306.890247 75.758526 
L 307.432242 76.560134 
L 307.974236 75.262293 
L 309.058224 73.455496 
L 309.600219 74.416152 
L 310.142213 74.155312 
L 310.684207 74.708803 
L 311.226201 74.072606 
L 311.768195 73.207379 
L 312.31019 73.207379 
L 312.852184 73.321895 
L 313.394178 71.947711 
L 314.478167 71.680508 
L 315.020161 73.035606 
L 315.562155 71.909539 
L 316.104149 72.386686 
L 316.646144 72.087674 
L 317.188138 72.424858 
L 317.730132 71.381496 
L 318.814121 71.088846 
L 319.356115 70.528993 
L 319.898109 70.929797 
L 320.982097 70.878901 
L 321.524092 70.522631 
L 322.066086 69.402926 
L 322.60808 68.989398 
L 323.692069 68.779453 
L 324.234063 68.93214 
L 324.776057 70.878901 
L 325.318051 69.593784 
L 325.860046 69.072104 
L 326.40204 69.180257 
L 326.944034 68.944864 
L 327.486028 68.874883 
L 328.028022 67.417993 
L 328.570017 68.893969 
L 329.112011 67.513423 
L 329.654005 67.837883 
L 330.195999 67.965122 
L 330.737994 66.781797 
L 331.279988 66.991742 
L 331.821982 66.476423 
L 332.363976 67.494337 
L 332.905971 66.470061 
L 333.447965 66.279202 
L 333.989959 67.080809 
L 334.531953 66.387355 
L 335.073947 64.930466 
L 335.615942 65.420337 
L 336.157936 65.541214 
L 336.69993 65.534852 
L 337.241924 64.809588 
L 337.783919 64.446957 
L 338.325913 64.94319 
L 338.867907 63.982533 
L 339.409901 63.384509 
L 339.951896 64.510576 
L 340.49389 63.180926 
L 341.035884 63.308165 
L 341.577878 64.440595 
L 342.119873 62.487472 
L 342.661867 62.582901 
L 343.745855 63.327251 
L 344.287849 62.710141 
L 344.829844 62.996429 
L 345.371838 60.534349 
L 345.913832 60.324405 
L 346.455826 61.030582 
L 346.997821 60.540711 
L 347.539815 60.916067 
L 348.081809 61.634969 
L 348.623803 60.133546 
L 349.165798 59.058374 
L 349.707792 60.757018 
L 350.249786 59.828171 
L 351.333774 60.222613 
L 351.875769 59.681846 
L 352.417763 59.688208 
L 352.959757 59.885429 
L 353.501751 58.129527 
L 354.043746 59.624589 
L 354.58574 59.312852 
L 355.127734 58.460349 
L 355.669728 58.352196 
L 356.211723 57.919583 
L 357.295711 57.811429 
L 357.837705 57.512417 
L 358.379699 57.716 
L 358.921694 57.372454 
L 359.463688 57.226129 
L 360.547676 55.419331 
L 361.631665 57.175233 
L 362.173659 54.986718 
L 362.715653 55.31754 
L 363.257648 56.475417 
L 363.799642 55.387521 
L 364.341636 55.432055 
L 364.88363 54.579552 
L 365.425625 55.533847 
L 365.967619 55.133043 
L 366.509613 53.568 
L 367.051607 55.419331 
L 367.593601 56.360902 
L 368.135596 56.119147 
L 368.67759 58.975668 
L 369.219584 59.675484 
L 369.761578 60.998773 
L 370.303573 60.553435 
L 370.845567 61.02422 
L 371.387561 61.075116 
L 371.929555 60.458006 
L 372.47155 62.990067 
L 373.013544 60.852447 
L 373.555538 61.647693 
L 374.097532 60.737932 
L 374.639526 61.145098 
L 375.181521 61.813104 
L 375.723515 60.591607 
L 376.807503 61.259613 
L 377.349498 60.986049 
L 377.891492 59.739104 
L 378.433486 62.12484 
L 378.97548 60.286233 
L 379.517475 62.601987 
L 380.059469 61.208717 
L 380.601463 61.08784 
L 381.143457 61.405938 
L 381.685452 60.34349 
L 382.227446 61.418662 
L 382.76944 61.253251 
L 383.311434 60.241699 
L 383.853428 62.722865 
L 384.395423 60.973325 
L 384.937417 61.787656 
L 385.479411 60.954239 
L 386.021405 60.801552 
L 386.5634 60.903343 
L 387.105394 61.946705 
L 387.647388 60.884257 
L 388.189382 60.947877 
L 388.731377 62.353871 
L 389.273371 61.335957 
L 389.815365 61.978515 
L 390.357359 61.864 
L 390.899353 63.060049 
L 391.441348 60.966963 
L 391.983342 62.09303 
L 392.525336 62.016687 
L 393.06733 62.353871 
L 393.609325 61.654055 
L 394.693313 62.767398 
L 395.235307 62.360233 
L 395.777302 61.215079 
L 396.86129 61.469558 
L 397.403284 61.348681 
L 397.945278 62.226631 
L 398.487273 60.400748 
L 398.487273 60.400748 
" clip-path="url(#p82b3cd8893)" style="fill: none; stroke: #1f77b4; stroke-width: 1.5; stroke-linecap: square"/>
   </g>
   <g id="line2d_20">
    <path d="M 73.832727 282.961295 
L 75.45871 205.917925 
L 76.000704 192.176085 
L 77.626687 164.978694 
L 78.168681 163.642682 
L 78.710675 154.258786 
L 79.25267 151.459523 
L 79.794664 141.184953 
L 80.336658 141.6621 
L 80.878652 135.427376 
L 81.420647 133.550597 
L 81.962641 129.733419 
L 82.504635 124.771088 
L 83.046629 129.256272 
L 84.672612 113.828512 
L 85.214606 113.287745 
L 85.7566 111.951733 
L 86.298595 109.979525 
L 86.840589 110.361243 
L 87.382583 106.194157 
L 87.924577 103.87204 
L 88.466572 103.93566 
L 89.008566 102.027071 
L 89.55056 98.973329 
L 90.092554 97.541887 
L 90.634548 97.382838 
L 91.176543 95.474249 
L 91.718537 95.283391 
L 92.260531 93.59747 
L 92.802525 93.851949 
L 93.34452 93.215753 
L 94.428508 93.183943 
L 94.970502 93.565661 
L 95.512497 119.649708 
L 96.054491 120.349524 
L 96.596485 124.134892 
L 97.138479 116.214248 
L 97.680474 116.755015 
L 98.222468 120.699432 
L 98.764462 112.142592 
L 99.306456 111.442776 
L 99.84845 110.456672 
L 100.390445 111.220108 
L 100.932439 109.725046 
L 101.474433 106.989402 
L 102.016427 105.112623 
L 102.558422 107.37112 
L 103.64241 104.094709 
L 104.184404 103.172224 
L 104.726399 103.522132 
L 105.268393 103.076795 
L 105.810387 99.355047 
L 106.352381 98.432562 
L 106.894375 99.132378 
L 107.43637 97.510078 
L 107.978364 100.182102 
L 108.520358 97.351028 
L 109.062352 97.669127 
L 109.604347 94.583575 
L 110.146341 96.142256 
L 110.688335 93.311182 
L 111.230329 91.87974 
L 111.772324 91.402593 
L 112.314318 89.939342 
L 112.856312 89.175906 
L 113.940301 86.981029 
L 114.482295 88.730569 
L 115.024289 87.171888 
L 115.566283 86.090354 
L 116.650272 84.977011 
L 118.276254 82.591275 
L 118.818249 83.609189 
L 119.360243 80.269158 
L 119.902237 81.096213 
L 120.444231 78.646858 
L 120.986226 78.742287 
L 121.52822 80.778115 
L 122.070214 77.660753 
L 122.612208 75.783974 
L 123.154202 75.561306 
L 123.696197 76.006643 
L 124.780185 73.652717 
L 125.322179 74.575201 
L 125.864174 71.903177 
L 126.406168 73.779956 
L 126.948162 72.507563 
L 127.490156 72.253085 
L 129.116139 70.917073 
L 129.658133 69.74011 
L 130.200127 69.008484 
L 130.742122 68.817625 
L 131.284116 68.754005 
L 131.82611 69.008484 
L 132.368104 68.563146 
L 132.910099 67.417993 
L 133.452093 67.481613 
L 133.994087 66.781797 
L 134.536081 67.227134 
L 135.62007 66.400079 
L 136.704058 66.622748 
L 137.246053 66.145601 
L 137.788047 66.20922 
L 138.330041 66.018361 
L 138.872035 97.223789 
L 139.414029 98.019035 
L 139.956024 92.770415 
L 140.498018 91.91155 
L 141.040012 94.710814 
L 141.582006 96.269495 
L 142.124001 96.333114 
L 142.665995 93.565661 
L 143.207989 91.593452 
L 143.749983 96.237685 
L 144.291978 92.420507 
L 144.833972 90.607348 
L 145.375966 90.352869 
L 146.459954 90.798207 
L 147.001949 91.87974 
L 147.543943 89.016857 
L 148.085937 89.716673 
L 148.627931 90.16201 
L 149.169926 89.430385 
L 149.71192 87.108268 
L 150.253914 87.458176 
L 150.795908 91.052685 
L 151.337903 91.243544 
L 151.879897 88.825998 
L 152.963885 87.299127 
L 153.505879 87.967133 
L 154.047874 85.804066 
L 154.589868 86.85379 
L 155.131862 86.694741 
L 155.673856 86.026735 
L 156.215851 85.581397 
L 156.757845 86.981029 
L 157.299839 91.847931 
L 157.841833 84.531673 
L 158.383828 87.585415 
L 158.925822 82.909373 
L 159.467816 88.094372 
L 160.00981 87.617225 
L 160.551805 88.380661 
L 161.093799 81.128023 
L 161.635793 83.990906 
L 162.177787 83.959097 
L 162.719781 83.004802 
L 163.261776 81.255262 
L 163.80377 81.191643 
L 164.345764 82.813943 
L 164.887758 82.845753 
L 165.429753 79.91925 
L 165.971747 81.573361 
L 166.513741 82.336796 
L 167.055735 82.495845 
L 167.59773 79.855631 
L 168.139724 81.255262 
L 168.681718 78.646858 
L 169.223712 79.124005 
L 169.765706 77.565324 
L 170.307701 80.587256 
L 170.849695 79.060385 
L 171.391689 78.26514 
L 171.933683 78.106091 
L 172.475678 79.696581 
L 173.017672 79.664772 
L 173.559666 76.292931 
L 174.10166 77.215416 
L 174.643655 74.925109 
L 175.185649 75.688545 
L 175.727643 74.320723 
L 176.269637 74.638821 
L 176.811632 76.833698 
L 177.353626 75.720355 
L 177.89562 75.465876 
L 178.437614 73.779956 
L 178.979608 74.352533 
L 179.521603 71.744128 
L 180.063597 74.511582 
L 180.605591 73.461858 
L 181.147585 71.489649 
L 181.68958 72.094036 
L 182.231574 71.934987 
L 182.773568 73.430048 
L 183.315562 70.312686 
L 183.857557 70.917073 
L 184.399551 70.885263 
L 184.941545 73.525478 
L 185.483539 69.771919 
L 186.025533 69.485631 
L 186.567528 70.280876 
L 187.109522 71.680508 
L 187.651516 70.503545 
L 188.19351 68.149619 
L 188.735505 69.517441 
L 189.277499 69.040294 
L 189.819493 68.785815 
L 190.361487 69.262962 
L 190.903482 68.054189 
L 191.445476 68.02238 
L 191.98747 68.340478 
L 192.529464 68.054189 
L 193.071458 67.386183 
L 193.613453 66.20922 
L 194.155447 66.431889 
L 194.697441 65.573024 
L 195.239435 65.509404 
L 195.78143 63.791674 
L 196.323424 66.336459 
L 196.865418 66.050171 
L 197.407412 64.55511 
L 197.949407 64.49149 
L 198.491401 64.109772 
L 199.033395 64.364251 
L 199.575389 63.887104 
L 200.117384 64.237012 
L 200.659378 64.109772 
L 201.201372 63.282717 
L 202.28536 63.950723 
L 202.827355 62.392042 
L 203.369349 64.332441 
L 203.911343 60.896981 
L 204.453337 61.596797 
L 204.995332 62.614711 
L 205.537326 62.105754 
L 206.07932 60.992411 
L 206.621314 60.260785 
L 207.163309 59.720018 
L 207.705303 60.578883 
L 208.247297 59.592779 
L 208.789291 59.974497 
L 209.331285 59.879067 
L 210.415274 59.37011 
L 210.957268 59.656398 
L 211.499262 58.479435 
L 212.041257 58.034098 
L 212.583251 58.193147 
L 213.125245 58.574865 
L 213.667239 59.3383 
L 214.209234 58.447626 
L 214.751228 58.097718 
L 215.293222 58.352196 
L 215.835216 58.097718 
L 216.377211 58.956583 
L 216.919205 58.511245 
L 217.461199 58.606675 
L 218.003193 57.461521 
L 218.545187 58.574865 
L 219.087182 57.334282 
L 219.629176 57.716 
L 220.17117 58.479435 
L 220.713164 58.129527 
L 221.797153 58.097718 
L 222.339147 57.938668 
L 222.881141 57.238853 
L 223.423136 58.002288 
L 223.96513 57.875049 
L 224.507124 57.397902 
L 225.049118 57.970478 
L 225.591112 90.448299 
L 226.133107 87.808084 
L 226.675101 90.034771 
L 227.217095 91.561642 
L 227.759089 87.235507 
L 228.301084 88.221612 
L 228.843078 88.857808 
L 229.385072 87.140078 
L 229.927066 87.935323 
L 230.469061 86.503882 
L 231.011055 83.704618 
L 231.553049 92.166029 
L 232.095043 82.623084 
L 232.637037 83.800048 
L 233.179032 87.458176 
L 233.721026 84.595293 
L 234.26302 84.786152 
L 234.805014 82.877563 
L 235.347009 83.3229 
L 235.889003 83.513759 
L 236.430997 82.432226 
L 236.972991 85.295109 
L 237.514986 82.400416 
L 238.05698 81.986888 
L 238.598974 84.658913 
L 239.140968 84.977011 
L 239.682963 86.058544 
L 240.224957 83.927287 
L 240.766951 82.400416 
L 241.308945 82.941183 
L 241.850939 82.400416 
L 242.392934 79.283054 
L 242.934928 80.396397 
L 243.476922 84.022716 
L 244.018916 79.028575 
L 244.560911 86.631121 
L 245.102905 81.223453 
L 245.644899 78.837717 
L 246.186893 81.382502 
L 247.270882 82.050508 
L 247.812876 80.873545 
L 248.35487 84.754342 
L 248.896864 79.219434 
L 249.438859 84.245385 
L 249.980853 80.746305 
L 250.522847 80.046489 
L 251.064841 81.573361 
L 251.606836 83.672808 
L 252.14883 81.255262 
L 252.690824 80.841735 
L 253.232818 80.078299 
L 253.774813 81.509741 
L 254.316807 78.074281 
L 254.858801 77.088177 
L 255.400795 81.541551 
L 255.942789 81.509741 
L 256.484784 79.283054 
L 257.026778 78.742287 
L 257.568772 81.509741 
L 258.110766 81.66879 
L 258.652761 75.593115 
L 259.194755 80.650876 
L 259.736749 77.342655 
L 260.278743 76.992747 
L 260.820738 76.292931 
L 261.362732 78.551428 
L 261.904726 77.819802 
L 262.44672 78.996766 
L 262.988715 78.26514 
L 263.530709 81.128023 
L 264.072703 78.26514 
L 264.614697 78.615048 
L 265.156691 78.583238 
L 265.698686 82.845753 
L 266.24068 77.915232 
L 266.782674 78.964956 
L 267.324668 83.41833 
L 267.866663 80.778115 
L 268.408657 81.096213 
L 268.950651 79.187624 
L 269.492645 79.092195 
L 270.03464 79.314864 
L 270.576634 78.742287 
L 271.118628 76.070263 
L 271.660622 80.046489 
L 272.202616 76.006643 
L 272.744611 79.251244 
L 273.286605 75.847594 
L 273.828599 79.569342 
L 274.370593 77.565324 
L 274.912588 77.310845 
L 275.454582 76.57922 
L 275.996576 74.257103 
L 276.53857 80.078299 
L 277.080565 76.833698 
L 277.622559 78.29695 
L 278.164553 74.8933 
L 278.706547 76.388361 
L 279.248542 75.656735 
L 279.790536 75.434066 
L 280.33253 75.052349 
L 280.874524 78.26514 
L 281.416518 76.133882 
L 281.958513 73.11195 
L 282.500507 79.696581 
L 283.042501 74.76606 
L 283.584495 77.756183 
L 284.12649 74.447962 
L 284.668484 75.656735 
L 285.210478 73.716336 
L 285.752472 74.225293 
L 286.294467 76.897318 
L 286.836461 76.770079 
L 287.378455 75.720355 
L 287.920449 75.020539 
L 288.462443 77.151796 
L 289.004438 72.507563 
L 289.546432 76.324741 
L 290.088426 74.416152 
L 290.63042 78.137901 
L 291.172415 71.871367 
L 291.714409 74.034435 
L 292.256403 73.589097 
L 293.340392 74.575201 
L 293.882386 70.026398 
L 294.42438 73.939005 
L 294.966374 70.153637 
L 296.050363 72.189465 
L 296.592357 71.903177 
L 297.134351 71.775938 
L 297.676345 73.01652 
L 298.21834 73.493668 
L 298.760334 72.221275 
L 299.302328 73.270999 
L 299.844322 74.607011 
L 300.386317 69.771919 
L 300.928311 69.326582 
L 301.470305 72.412134 
L 302.012299 70.408116 
L 303.096288 71.553269 
L 304.180276 69.962778 
L 304.72227 68.594956 
L 305.264265 71.36241 
L 305.806259 68.722196 
L 306.348253 71.680508 
L 306.890247 70.948883 
L 307.432242 68.499527 
L 307.974236 72.094036 
L 308.51623 70.948883 
L 309.058224 67.92695 
L 309.600219 68.754005 
L 310.142213 69.199343 
L 310.684207 67.449803 
L 311.226201 70.853453 
L 311.768195 68.085999 
L 312.31019 67.545232 
L 312.852184 71.42603 
L 313.394178 68.467717 
L 313.936172 68.404097 
L 314.478167 69.422011 
L 315.020161 68.531337 
L 315.562155 68.149619 
L 316.104149 66.527318 
L 316.646144 66.20922 
L 317.188138 69.103913 
L 318.272126 67.640662 
L 318.814121 68.054189 
L 319.356115 69.072104 
L 319.898109 67.863331 
L 320.440103 66.27284 
L 320.982097 66.431889 
L 321.524092 66.749987 
L 322.066086 65.986552 
L 323.150074 66.877226 
L 323.692069 66.30465 
L 324.234063 68.308668 
L 324.776057 65.286736 
L 325.318051 66.145601 
L 325.860046 67.767901 
L 326.40204 66.018361 
L 326.944034 65.827502 
L 327.486028 65.000447 
L 328.028022 66.909036 
L 328.570017 65.986552 
L 329.112011 64.777779 
L 330.195999 64.905018 
L 331.279988 64.237012 
L 331.821982 65.636644 
L 332.363976 66.018361 
L 332.905971 66.050171 
L 333.447965 63.823484 
L 333.989959 64.077963 
L 334.531953 66.17741 
L 335.615942 62.996429 
L 336.157936 62.105754 
L 336.69993 63.219098 
L 337.241924 63.664435 
L 337.783919 64.268822 
L 338.325913 64.650539 
L 338.867907 63.537196 
L 339.409901 63.314527 
L 339.951896 62.964619 
L 340.49389 64.014343 
L 341.035884 60.865171 
L 341.577878 62.137564 
L 342.119873 62.264803 
L 342.661867 63.155478 
L 343.203861 62.996429 
L 343.745855 60.197165 
L 344.287849 60.896981 
L 344.829844 61.05603 
L 345.371838 61.533178 
L 346.455826 59.720018 
L 346.997821 60.101736 
L 347.539815 60.260785 
L 348.081809 61.692227 
L 348.623803 59.847257 
L 349.165798 59.242871 
L 349.707792 58.988392 
L 350.249786 59.910877 
L 350.79178 59.179251 
L 351.875769 60.165355 
L 352.417763 59.115632 
L 352.959757 59.242871 
L 353.501751 58.097718 
L 354.043746 57.461521 
L 354.58574 57.843239 
L 355.127734 58.034098 
L 355.669728 57.461521 
L 356.211723 56.125509 
L 356.753717 57.111613 
L 357.295711 59.211061 
L 357.837705 57.906859 
L 358.379699 58.065908 
L 358.921694 57.079804 
L 359.463688 58.384006 
L 360.547676 56.952564 
L 361.089671 55.107595 
L 361.631665 55.839221 
L 362.173659 57.525141 
L 362.715653 55.680172 
L 363.257648 57.525141 
L 363.799642 57.302472 
L 364.341636 56.093699 
L 364.88363 56.348178 
L 365.425625 55.775601 
L 365.967619 55.807411 
L 366.509613 56.125509 
L 367.051607 56.825325 
L 367.593601 55.743791 
L 368.135596 58.097718 
L 368.67759 59.211061 
L 369.219584 61.05603 
L 369.761578 60.292595 
L 370.303573 59.879067 
L 370.845567 61.374128 
L 371.387561 60.547073 
L 371.929555 62.010325 
L 372.47155 58.511245 
L 373.013544 61.533178 
L 373.555538 59.624589 
L 374.097532 60.992411 
L 374.639526 60.737932 
L 375.181521 59.624589 
L 375.723515 59.592779 
L 376.265509 58.829343 
L 376.807503 60.038116 
L 377.349498 59.083822 
L 377.891492 60.769742 
L 378.433486 60.101736 
L 378.97548 61.946705 
L 379.517475 59.974497 
L 380.601463 61.18327 
L 381.143457 60.356214 
L 381.685452 60.356214 
L 382.227446 61.310509 
L 382.76944 61.533178 
L 383.853428 60.356214 
L 384.395423 60.133546 
L 384.937417 62.105754 
L 385.479411 60.769742 
L 386.021405 60.101736 
L 387.105394 61.533178 
L 387.647388 60.737932 
L 388.189382 61.11965 
L 388.731377 63.250907 
L 389.273371 59.529159 
L 389.815365 61.787656 
L 390.357359 60.451644 
L 390.899353 59.783638 
L 391.441348 59.974497 
L 391.983342 60.833362 
L 392.525336 60.865171 
L 393.06733 61.215079 
L 393.609325 60.642503 
L 394.151319 62.010325 
L 394.693313 61.596797 
L 395.235307 63.155478 
L 395.777302 61.787656 
L 396.319296 60.769742 
L 396.86129 62.105754 
L 397.403284 61.755846 
L 397.945278 61.851276 
L 398.487273 61.15146 
L 398.487273 61.15146 
" clip-path="url(#p82b3cd8893)" style="fill: none; stroke: #ff7f0e; stroke-width: 1.5; stroke-linecap: square"/>
   </g>
   <g id="line2d_21">
    <path d="M 73.832727 286.091699 
L 74.916716 242.106678 
L 75.45871 226.442889 
L 76.000704 216.395441 
L 77.626687 199.854338 
L 78.168681 194.062725 
L 78.710675 186.099456 
L 79.25267 188.31501 
L 79.794664 177.960279 
L 80.336658 173.94588 
L 80.878652 172.980453 
L 81.420647 172.563744 
L 81.962641 169.053531 
L 82.504635 162.384603 
L 83.046629 169.338865 
L 83.588623 161.243903 
L 84.130618 160.102885 
L 84.672612 153.828718 
L 85.7566 148.783045 
L 86.298595 148.081002 
L 86.840589 150.669685 
L 87.382583 148.673301 
L 87.924577 143.737372 
L 88.466572 145.295099 
L 89.008566 142.618621 
L 89.55056 138.099401 
L 90.092554 139.942143 
L 90.634548 138.406683 
L 91.176543 135.971324 
L 91.718537 136.256658 
L 92.802525 134.984266 
L 93.34452 135.400974 
L 93.886514 134.984266 
L 94.428508 134.062735 
L 94.970502 134.874522 
L 95.512497 161.528919 
L 96.054491 163.086646 
L 96.596485 166.640438 
L 97.138479 157.097494 
L 97.680474 159.225571 
L 98.222468 162.538245 
L 98.764462 152.381053 
L 99.306456 152.446581 
L 99.84845 153.521753 
L 100.390445 152.381053 
L 100.932439 152.775813 
L 101.474433 152.161565 
L 102.016427 146.369952 
L 102.558422 149.090328 
L 103.100416 145.119509 
L 104.184404 144.461363 
L 104.726399 143.737372 
L 105.268393 146.742763 
L 105.810387 136.892854 
L 106.352381 143.057278 
L 106.894375 143.298715 
L 107.43637 137.529051 
L 107.978364 142.311338 
L 108.520358 140.161631 
L 109.062352 142.794211 
L 109.604347 135.400974 
L 110.146341 139.635178 
L 110.688335 137.35346 
L 111.230329 130.72843 
L 111.772324 134.018838 
L 112.314318 136.366402 
L 113.940301 127.196269 
L 115.024289 129.126806 
L 115.566283 128.468661 
L 116.108277 123.40104 
L 116.650272 130.20166 
L 117.192266 128.380866 
L 117.73426 128.622303 
L 118.276254 125.726337 
L 118.818249 126.121415 
L 119.360243 121.887211 
L 119.902237 125.199885 
L 120.444231 121.053794 
L 120.986226 123.072126 
L 121.52822 122.413981 
L 122.070214 117.126872 
L 122.612208 118.859871 
L 123.154202 120.066417 
L 123.696197 118.201726 
L 124.238191 117.061026 
L 124.780185 118.552906 
L 125.322179 118.903768 
L 125.864174 116.139813 
L 126.406168 115.678889 
L 126.948162 117.017128 
L 127.490156 116.79764 
L 128.032151 115.766684 
L 128.574145 115.306078 
L 129.116139 115.064642 
L 129.658133 113.02436 
L 130.200127 112.497908 
L 130.742122 111.686439 
L 131.284116 110.414047 
L 132.368104 111.795865 
L 132.910099 111.532798 
L 133.452093 111.115771 
L 133.994087 110.106764 
L 134.536081 109.909225 
L 135.078076 109.360824 
L 135.62007 110.523473 
L 136.162064 110.106764 
L 136.704058 109.887276 
L 137.246053 110.479575 
L 137.788047 109.668107 
L 138.330041 110.084815 
L 138.872035 139.766553 
L 139.414029 136.410299 
L 139.956024 135.796052 
L 140.498018 137.594897 
L 141.040012 137.660743 
L 141.582006 140.095785 
L 142.124001 138.209144 
L 142.665995 137.155922 
L 143.207989 133.689924 
L 143.749983 136.146914 
L 144.291978 140.315272 
L 145.375966 129.719105 
L 145.91796 134.874522 
L 146.459954 136.739213 
L 147.001949 133.996889 
L 147.543943 132.593122 
L 148.085937 132.022772 
L 148.627931 132.461429 
L 149.169926 127.74467 
L 150.253914 132.900086 
L 150.795908 131.803284 
L 151.337903 133.514334 
L 151.879897 137.638795 
L 152.421891 134.611136 
L 152.963885 133.996889 
L 153.505879 130.793959 
L 154.047874 130.618687 
L 154.589868 133.229318 
L 155.131862 125.485219 
L 155.673856 127.152371 
L 156.215851 126.582021 
L 156.757845 131.69354 
L 157.299839 135.269281 
L 157.841833 127.327961 
L 158.383828 130.925651 
L 158.925822 124.14698 
L 159.467816 131.539899 
L 160.00981 128.468661 
L 160.551805 130.311404 
L 161.093799 127.020678 
L 161.635793 131.035395 
L 162.177787 126.757611 
L 162.719781 125.704388 
L 163.261776 122.677048 
L 164.345764 125.726337 
L 165.429753 119.759452 
L 165.971747 124.125031 
L 166.513741 121.821682 
L 167.055735 125.419372 
L 167.59773 124.32257 
L 168.139724 127.152371 
L 168.681718 121.668041 
L 169.223712 122.874587 
L 169.765706 122.392032 
L 170.307701 122.413981 
L 170.849695 118.684599 
L 171.391689 120.790408 
L 171.933683 118.859871 
L 172.475678 119.496067 
L 173.017672 123.159603 
L 173.559666 120.614818 
L 174.10166 120.768459 
L 174.643655 115.525248 
L 175.185649 118.794024 
L 175.727643 117.894761 
L 176.269637 122.304237 
L 176.811632 119.869196 
L 177.353626 119.62776 
L 177.89562 121.316861 
L 178.437614 117.280513 
L 178.979608 119.913094 
L 179.521603 111.357208 
L 180.605591 116.03007 
L 181.147585 117.170769 
L 182.231574 112.366215 
L 182.773568 114.494292 
L 183.315562 114.779626 
L 183.857557 114.560138 
L 184.399551 113.046309 
L 184.941545 116.79764 
L 185.483539 112.651549 
L 186.025533 111.795865 
L 186.567528 109.009962 
L 187.109522 117.806966 
L 187.651516 112.05925 
L 188.19351 111.664491 
L 188.735505 109.975071 
L 189.277499 110.370149 
L 190.361487 112.081199 
L 190.903482 109.448619 
L 191.445476 109.909225 
L 191.98747 109.075808 
L 192.529464 109.25108 
L 193.071458 109.097757 
L 193.613453 106.79409 
L 194.155447 108.066483 
L 194.697441 107.627825 
L 195.239435 107.978687 
L 195.78143 105.916775 
L 196.323424 106.004252 
L 196.865418 104.3371 
L 197.407412 106.135945 
L 197.949407 107.211117 
L 198.491401 103.810647 
L 199.033395 106.465176 
L 199.575389 103.02081 
L 200.117384 104.402946 
L 200.659378 103.108605 
L 201.201372 104.3371 
L 201.743366 103.064707 
L 202.28536 102.823271 
L 202.827355 103.284195 
L 203.369349 101.13417 
L 203.911343 101.441452 
L 204.453337 101.243914 
L 204.995332 102.165126 
L 205.537326 102.209023 
L 206.621314 100.191009 
L 207.163309 100.432127 
L 207.705303 98.216574 
L 208.247297 99.773982 
L 208.789291 97.448685 
L 209.331285 98.413794 
L 209.87328 97.580377 
L 210.415274 99.049991 
L 210.957268 99.115837 
L 211.499262 96.900283 
L 212.041257 98.326317 
L 212.583251 97.119453 
L 213.125245 98.391846 
L 213.667239 97.404787 
L 214.209234 97.448685 
L 214.751228 97.755649 
L 215.293222 97.010027 
L 216.377211 97.426736 
L 216.919205 96.417729 
L 217.461199 97.448685 
L 218.003193 96.044599 
L 218.545187 96.900283 
L 219.087182 97.010027 
L 219.629176 96.636898 
L 220.17117 96.834437 
L 220.713164 96.549103 
L 221.255159 97.251146 
L 221.797153 96.571052 
L 222.339147 96.329933 
L 222.881141 96.593001 
L 223.423136 95.254762 
L 223.96513 96.680796 
L 224.507124 97.185299 
L 225.049118 95.627891 
L 225.591112 135.488769 
L 226.133107 130.245557 
L 226.675101 136.256658 
L 227.217095 136.673367 
L 227.759089 128.49061 
L 228.301084 130.903703 
L 228.843078 130.684533 
L 229.385072 129.63131 
L 229.927066 136.03717 
L 230.469061 134.89647 
L 231.011055 130.55284 
L 231.553049 139.086459 
L 232.095043 127.064576 
L 232.637037 128.929267 
L 233.179032 129.456038 
L 233.721026 128.271122 
L 234.26302 128.336969 
L 234.805014 129.960542 
L 235.889003 125.594963 
L 236.430997 125.265731 
L 236.972991 131.649643 
L 238.05698 123.40104 
L 238.598974 129.916644 
L 239.140968 127.481603 
L 239.682963 125.63886 
L 240.224957 130.72843 
L 240.766951 126.713714 
L 241.308945 123.927492 
L 241.850939 126.647867 
L 242.392934 123.269347 
L 242.934928 118.925717 
L 243.476922 130.179711 
L 244.018916 122.786792 
L 244.560911 131.737438 
L 245.102905 123.861646 
L 245.644899 124.761227 
L 246.186893 124.125031 
L 246.728888 124.14698 
L 247.270882 125.551065 
L 247.812876 123.883595 
L 248.35487 130.267506 
L 248.896864 121.624143 
L 249.438859 127.196269 
L 249.980853 122.43593 
L 250.522847 124.497842 
L 251.064841 123.554681 
L 251.606836 128.117799 
L 252.14883 122.26034 
L 252.690824 127.152371 
L 253.232818 126.165313 
L 253.774813 123.75222 
L 254.316807 122.238391 
L 254.858801 119.408272 
L 255.400795 125.836081 
L 255.942789 123.22545 
L 256.484784 122.150596 
L 257.026778 126.450329 
L 257.568772 126.801509 
L 258.110766 128.556456 
L 258.652761 120.987947 
L 259.194755 122.918485 
L 259.736749 119.298846 
L 260.278743 118.991563 
L 260.820738 124.607586 
L 261.904726 118.837922 
L 262.44672 121.887211 
L 262.988715 122.83069 
L 263.530709 123.335193 
L 264.072703 118.465111 
L 264.614697 122.040852 
L 265.156691 120.680664 
L 265.698686 128.205594 
L 266.24068 125.46327 
L 266.782674 125.573014 
L 267.324668 123.949441 
L 267.866663 120.285905 
L 268.408657 125.155987 
L 268.950651 122.413981 
L 269.492645 122.918485 
L 270.03464 122.26034 
L 270.576634 122.392032 
L 271.118628 121.470502 
L 271.660622 120.987947 
L 272.202616 119.759452 
L 272.744611 120.110314 
L 273.286605 117.302462 
L 273.828599 119.891145 
L 274.370593 125.879979 
L 274.912588 119.013512 
L 275.454582 115.722787 
L 275.996576 117.499683 
L 276.53857 124.805125 
L 277.080565 118.596803 
L 277.622559 121.580246 
L 278.164553 115.08659 
L 278.706547 122.128647 
L 279.248542 117.741119 
L 279.790536 115.65694 
L 280.874524 119.342425 
L 281.416518 118.179777 
L 281.958513 115.218283 
L 282.500507 119.913094 
L 283.042501 121.272963 
L 283.584495 120.593187 
L 284.12649 121.799734 
L 284.668484 119.781401 
L 285.210478 121.777785 
L 285.752472 116.710163 
L 286.294467 117.653324 
L 286.836461 119.013512 
L 287.378455 116.139813 
L 287.920449 115.064642 
L 288.462443 119.101307 
L 289.004438 116.008121 
L 289.546432 117.214667 
L 290.088426 117.521632 
L 290.63042 120.680664 
L 291.714409 111.225515 
L 292.256403 114.582087 
L 292.798397 116.754061 
L 293.340392 118.311469 
L 293.882386 113.748352 
L 294.42438 114.077583 
L 294.966374 116.622368 
L 295.508368 113.7703 
L 296.050363 113.704454 
L 296.592357 113.967839 
L 297.134351 113.923942 
L 297.676345 116.073967 
L 298.21834 117.675273 
L 298.760334 115.854479 
L 299.302328 115.525248 
L 299.844322 117.565529 
L 300.928311 111.028294 
L 301.470305 114.757677 
L 302.012299 113.309694 
L 302.554294 117.499683 
L 303.096288 112.125097 
L 303.638282 116.973231 
L 304.180276 113.19995 
L 304.72227 110.677114 
L 305.264265 115.108539 
L 305.806259 108.505458 
L 306.348253 118.640701 
L 306.890247 110.74296 
L 307.432242 112.190943 
L 307.974236 112.037302 
L 308.51623 111.70807 
L 309.058224 112.585703 
L 309.600219 113.94589 
L 310.142213 112.497908 
L 310.684207 109.448619 
L 311.226201 117.104923 
L 311.768195 109.338875 
L 312.31019 108.570986 
L 312.852184 114.450394 
L 313.394178 108.658781 
L 313.936172 110.611268 
L 314.478167 108.570986 
L 315.020161 110.764909 
L 315.562155 108.944115 
L 316.104149 111.598644 
L 316.646144 107.627825 
L 317.188138 110.874653 
L 317.730132 111.028294 
L 318.272126 109.053859 
L 318.814121 107.583928 
L 319.356115 112.651549 
L 319.898109 108.922167 
L 320.440103 106.39933 
L 320.982097 109.338875 
L 321.524092 107.123322 
L 322.066086 106.487125 
L 322.60808 108.592935 
L 323.150074 109.207182 
L 323.692069 107.693671 
L 324.234063 111.751968 
L 324.776057 106.706295 
L 325.318051 111.379157 
L 325.860046 109.273029 
L 326.40204 106.004252 
L 326.944034 106.113996 
L 327.486028 108.812423 
L 328.028022 106.004252 
L 328.570017 108.351817 
L 329.112011 105.894826 
L 329.654005 104.556588 
L 330.195999 105.126938 
L 330.737994 103.722852 
L 331.279988 103.525313 
L 331.821982 104.008186 
L 332.363976 106.596869 
L 332.905971 107.079424 
L 333.989959 102.296818 
L 334.531953 104.819655 
L 335.073947 105.170835 
L 335.615942 102.757743 
L 336.69993 105.368056 
L 337.241924 103.437518 
L 337.783919 103.328093 
L 338.325913 105.719236 
L 338.867907 99.049991 
L 339.409901 106.070099 
L 339.951896 101.090272 
L 340.49389 103.108605 
L 341.035884 102.691896 
L 341.577878 101.397555 
L 342.661867 103.854545 
L 343.203861 101.814264 
L 343.745855 100.607717 
L 344.287849 101.419504 
L 344.829844 102.516306 
L 345.371838 100.805256 
L 345.913832 102.362665 
L 346.455826 101.265862 
L 346.997821 100.827205 
L 347.539815 101.13417 
L 348.081809 102.077649 
L 348.623803 97.163351 
L 349.707792 102.143495 
L 350.249786 98.28242 
L 350.79178 97.426736 
L 351.333774 100.673564 
L 351.875769 100.541871 
L 352.417763 98.413794 
L 352.959757 100.432127 
L 353.501751 98.896667 
L 354.043746 99.357273 
L 354.58574 100.256537 
L 355.127734 98.194625 
L 356.211723 95.934856 
L 356.753717 97.755649 
L 357.295711 98.896667 
L 357.837705 98.699128 
L 358.379699 96.132394 
L 358.921694 97.733701 
L 359.463688 97.295043 
L 360.005682 98.260471 
L 360.547676 97.580377 
L 361.631665 95.671788 
L 362.173659 96.702744 
L 362.715653 97.141402 
L 363.257648 96.636898 
L 363.799642 96.373831 
L 364.341636 96.702744 
L 364.88363 96.176292 
L 365.425625 93.214798 
L 365.967619 96.702744 
L 366.509613 93.587609 
L 367.051607 95.737635 
L 367.593601 98.589385 
L 368.135596 99.006093 
L 368.67759 98.479641 
L 369.219584 101.265862 
L 369.761578 101.858161 
L 370.303573 100.015419 
L 370.845567 102.428511 
L 371.387561 100.037367 
L 371.929555 102.933015 
L 372.47155 99.181683 
L 373.013544 99.203632 
L 373.555538 102.582152 
L 374.097532 100.256537 
L 374.639526 101.507299 
L 375.181521 98.435743 
L 375.723515 99.752033 
L 376.265509 100.476025 
L 376.807503 100.278486 
L 377.349498 99.028042 
L 377.891492 100.805256 
L 378.433486 101.068323 
L 378.97548 99.905675 
L 379.517475 99.445069 
L 380.059469 101.156118 
L 380.601463 103.350041 
L 381.685452 99.971521 
L 382.227446 103.964289 
L 382.76944 98.743026 
L 383.311434 100.366281 
L 383.853428 98.304369 
L 384.395423 99.049991 
L 384.937417 105.411954 
L 385.479411 103.459467 
L 386.021405 100.541871 
L 386.5634 106.552972 
L 387.105394 101.090272 
L 387.647388 101.858161 
L 388.189382 102.998861 
L 388.731377 102.560204 
L 389.273371 100.629666 
L 389.815365 102.230972 
L 390.357359 100.454076 
L 390.899353 100.519922 
L 391.441348 102.230972 
L 391.983342 104.578536 
L 392.525336 100.103214 
L 393.06733 100.037367 
L 393.609325 100.476025 
L 394.151319 101.265862 
L 394.693313 101.200016 
L 395.235307 101.748417 
L 395.777302 104.05193 
L 396.319296 102.428533 
L 396.86129 103.15248 
L 397.403284 102.625973 
L 397.945278 104.205495 
L 398.487273 101.112265 
L 398.487273 101.112265 
" clip-path="url(#p82b3cd8893)" style="fill: none; stroke: #2ca02c; stroke-width: 1.5; stroke-linecap: square"/>
   </g>
   <g id="line2d_22">
    <path d="M 367.051607 56.379988 
L 367.593601 56.793515 
L 368.135596 56.570846 
L 368.67759 56.920754 
L 369.219584 59.147441 
L 369.761578 58.002288 
L 370.303573 58.065908 
L 370.845567 58.447626 
L 371.387561 59.46554 
L 371.929555 61.405938 
L 372.47155 59.115632 
L 373.013544 60.356214 
L 373.555538 57.429711 
L 374.097532 62.264803 
L 374.639526 58.288576 
L 375.181521 58.129527 
L 375.723515 59.529159 
L 376.265509 59.783638 
L 376.807503 58.892963 
L 377.349498 60.069926 
L 377.891492 60.101736 
L 378.433486 60.451644 
L 378.97548 58.638484 
L 379.517475 58.606675 
L 380.059469 58.002288 
L 380.601463 61.755846 
L 381.143457 59.592779 
L 381.685452 60.674313 
L 382.227446 61.469558 
L 382.76944 60.960601 
L 383.311434 59.879067 
L 383.853428 59.46554 
L 384.395423 63.250907 
L 384.937417 61.310509 
L 385.479411 63.982533 
L 386.021405 60.674313 
L 387.105394 61.15146 
L 387.647388 61.755846 
L 388.189382 60.451644 
L 388.731377 61.914895 
L 389.273371 62.073944 
L 389.815365 61.215079 
L 390.357359 62.105754 
L 390.899353 63.600815 
L 391.441348 66.20922 
L 391.983342 61.08784 
L 392.525336 63.728055 
L 393.06733 61.05603 
L 393.609325 61.883085 
L 394.151319 64.841398 
L 394.693313 61.787656 
L 395.235307 69.899159 
L 395.777302 61.05603 
L 396.319296 66.463699 
L 396.86129 63.060049 
L 397.403284 64.300631 
L 397.945278 66.400079 
L 398.487273 62.77376 
L 398.487273 62.77376 
" clip-path="url(#p82b3cd8893)" style="fill: none; stroke: #d62728; stroke-width: 1.5; stroke-linecap: square"/>
   </g>
   <g id="line2d_23">
    <path d="M 367.051607 94.289652 
L 367.593601 94.70636 
L 368.135596 94.333549 
L 369.219584 98.369897 
L 369.761578 96.022651 
L 370.303573 97.580377 
L 370.845567 98.457692 
L 371.387561 100.73941 
L 371.929555 100.322383 
L 372.47155 98.10683 
L 373.013544 98.830821 
L 373.555538 99.049991 
L 374.097532 103.064707 
L 374.639526 99.620341 
L 375.181521 100.212957 
L 375.723515 101.814264 
L 376.265509 99.708136 
L 376.807503 98.743026 
L 377.349498 99.24753 
L 377.891492 98.589385 
L 378.433486 100.059316 
L 378.97548 97.580377 
L 379.517475 99.949572 
L 380.059469 98.808872 
L 380.601463 100.410178 
L 381.143457 98.918616 
L 381.685452 98.435743 
L 382.227446 98.347948 
L 382.76944 98.721077 
L 383.853428 95.123387 
L 384.395423 97.909291 
L 384.937417 99.028042 
L 385.479411 101.550878 
L 386.021405 96.680796 
L 386.5634 98.019035 
L 387.105394 97.273094 
L 387.647388 100.059316 
L 388.189382 98.304369 
L 388.731377 97.821496 
L 389.273371 99.42312 
L 389.815365 99.071939 
L 390.357359 99.093888 
L 390.899353 97.997086 
L 391.441348 100.717461 
L 391.983342 97.360889 
L 392.525336 100.300434 
L 393.06733 100.410178 
L 393.609325 98.743026 
L 394.151319 103.964289 
L 394.693313 97.646224 
L 395.235307 109.887276 
L 395.777302 99.006236 
L 396.319296 103.700926 
L 396.86129 99.839872 
L 397.403284 101.85815 
L 397.945278 107.013534 
L 398.487273 99.949561 
L 398.487273 99.949561 
" clip-path="url(#p82b3cd8893)" style="fill: none; stroke: #9467bd; stroke-width: 1.5; stroke-linecap: square"/>
   </g>
   <g id="patch_3">
    <path d="M 57.6 307.584 
L 57.6 41.472 
" style="fill: none; stroke: #000000; stroke-width: 0.8; stroke-linejoin: miter; stroke-linecap: square"/>
   </g>
   <g id="patch_4">
    <path d="M 414.72 307.584 
L 414.72 41.472 
" style="fill: none; stroke: #000000; stroke-width: 0.8; stroke-linejoin: miter; stroke-linecap: square"/>
   </g>
   <g id="patch_5">
    <path d="M 57.6 307.584 
L 414.72 307.584 
" style="fill: none; stroke: #000000; stroke-width: 0.8; stroke-linejoin: miter; stroke-linecap: square"/>
   </g>
   <g id="patch_6">
    <path d="M 57.6 41.472 
L 414.72 41.472 
" style="fill: none; stroke: #000000; stroke-width: 0.8; stroke-linejoin: miter; stroke-linecap: square"/>
   </g>
   <g id="text_21">
    <!-- Learning Curves -->
    <g transform="translate(187.37625 35.472) scale(0.12 -0.12)">
     <defs>
      <path id="DejaVuSans-4c" d="M 628 4666 
L 1259 4666 
L 1259 531 
L 3531 531 
L 3531 0 
L 628 0 
L 628 4666 
z
" transform="scale(0.015625)"/>
      <path id="DejaVuSans-65" d="M 3597 1894 
L 3597 1613 
L 953 1613 
Q 991 1019 1311 708 
Q 1631 397 2203 397 
Q 2534 397 2845 478 
Q 3156 559 3463 722 
L 3463 178 
Q 3153 47 2828 -22 
Q 2503 -91 2169 -91 
Q 1331 -91 842 396 
Q 353 884 353 1716 
Q 353 2575 817 3079 
Q 1281 3584 2069 3584 
Q 2775 3584 3186 3129 
Q 3597 2675 3597 1894 
z
M 3022 2063 
Q 3016 2534 2758 2815 
Q 2500 3097 2075 3097 
Q 1594 3097 1305 2825 
Q 1016 2553 972 2059 
L 3022 2063 
z
" transform="scale(0.015625)"/>
      <path id="DejaVuSans-6e" d="M 3513 2113 
L 3513 0 
L 2938 0 
L 2938 2094 
Q 2938 2591 2744 2837 
Q 2550 3084 2163 3084 
Q 1697 3084 1428 2787 
Q 1159 2491 1159 1978 
L 1159 0 
L 581 0 
L 581 3500 
L 1159 3500 
L 1159 2956 
Q 1366 3272 1645 3428 
Q 1925 3584 2291 3584 
Q 2894 3584 3203 3211 
Q 3513 2838 3513 2113 
z
" transform="scale(0.015625)"/>
      <path id="DejaVuSans-69" d="M 603 3500 
L 1178 3500 
L 1178 0 
L 603 0 
L 603 3500 
z
M 603 4863 
L 1178 4863 
L 1178 4134 
L 603 4134 
L 603 4863 
z
" transform="scale(0.015625)"/>
      <path id="DejaVuSans-67" d="M 2906 1791 
Q 2906 2416 2648 2759 
Q 2391 3103 1925 3103 
Q 1463 3103 1205 2759 
Q 947 2416 947 1791 
Q 947 1169 1205 825 
Q 1463 481 1925 481 
Q 2391 481 2648 825 
Q 2906 1169 2906 1791 
z
M 3481 434 
Q 3481 -459 3084 -895 
Q 2688 -1331 1869 -1331 
Q 1566 -1331 1297 -1286 
Q 1028 -1241 775 -1147 
L 775 -588 
Q 1028 -725 1275 -790 
Q 1522 -856 1778 -856 
Q 2344 -856 2625 -561 
Q 2906 -266 2906 331 
L 2906 616 
Q 2728 306 2450 153 
Q 2172 0 1784 0 
Q 1141 0 747 490 
Q 353 981 353 1791 
Q 353 2603 747 3093 
Q 1141 3584 1784 3584 
Q 2172 3584 2450 3431 
Q 2728 3278 2906 2969 
L 2906 3500 
L 3481 3500 
L 3481 434 
z
" transform="scale(0.015625)"/>
      <path id="DejaVuSans-20" transform="scale(0.015625)"/>
      <path id="DejaVuSans-43" d="M 4122 4306 
L 4122 3641 
Q 3803 3938 3442 4084 
Q 3081 4231 2675 4231 
Q 1875 4231 1450 3742 
Q 1025 3253 1025 2328 
Q 1025 1406 1450 917 
Q 1875 428 2675 428 
Q 3081 428 3442 575 
Q 3803 722 4122 1019 
L 4122 359 
Q 3791 134 3420 21 
Q 3050 -91 2638 -91 
Q 1578 -91 968 557 
Q 359 1206 359 2328 
Q 359 3453 968 4101 
Q 1578 4750 2638 4750 
Q 3056 4750 3426 4639 
Q 3797 4528 4122 4306 
z
" transform="scale(0.015625)"/>
      <path id="DejaVuSans-76" d="M 191 3500 
L 800 3500 
L 1894 563 
L 2988 3500 
L 3597 3500 
L 2284 0 
L 1503 0 
L 191 3500 
z
" transform="scale(0.015625)"/>
     </defs>
     <use xlink:href="#DejaVuSans-4c"/>
     <use xlink:href="#DejaVuSans-65" x="53.962891"/>
     <use xlink:href="#DejaVuSans-61" x="115.486328"/>
     <use xlink:href="#DejaVuSans-72" x="176.765625"/>
     <use xlink:href="#DejaVuSans-6e" x="216.128906"/>
     <use xlink:href="#DejaVuSans-69" x="279.507812"/>
     <use xlink:href="#DejaVuSans-6e" x="307.291016"/>
     <use xlink:href="#DejaVuSans-67" x="370.669922"/>
     <use xlink:href="#DejaVuSans-20" x="434.146484"/>
     <use xlink:href="#DejaVuSans-43" x="465.933594"/>
     <use xlink:href="#DejaVuSans-75" x="535.757812"/>
     <use xlink:href="#DejaVuSans-72" x="599.136719"/>
     <use xlink:href="#DejaVuSans-76" x="640.25"/>
     <use xlink:href="#DejaVuSans-65" x="699.429688"/>
     <use xlink:href="#DejaVuSans-73" x="760.953125"/>
    </g>
   </g>
   <g id="legend_1">
    <g id="patch_7">
     <path d="M 214.18875 302.584 
L 407.72 302.584 
Q 409.72 302.584 409.72 300.584 
L 409.72 228.193375 
Q 409.72 226.193375 407.72 226.193375 
L 214.18875 226.193375 
Q 212.18875 226.193375 212.18875 228.193375 
L 212.18875 300.584 
Q 212.18875 302.584 214.18875 302.584 
z
" style="fill: #ffffff; opacity: 0.8; stroke: #cccccc; stroke-linejoin: miter"/>
    </g>
    <g id="line2d_24">
     <path d="M 216.18875 234.291812 
L 226.18875 234.291812 
L 236.18875 234.291812 
" style="fill: none; stroke: #1f77b4; stroke-width: 1.5; stroke-linecap: square"/>
    </g>
    <g id="text_22">
     <!-- Train Accuracy -->
     <g transform="translate(244.18875 237.791812) scale(0.1 -0.1)">
      <defs>
       <path id="DejaVuSans-54" d="M -19 4666 
L 3928 4666 
L 3928 4134 
L 2272 4134 
L 2272 0 
L 1638 0 
L 1638 4134 
L -19 4134 
L -19 4666 
z
" transform="scale(0.015625)"/>
      </defs>
      <use xlink:href="#DejaVuSans-54"/>
      <use xlink:href="#DejaVuSans-72" x="46.333984"/>
      <use xlink:href="#DejaVuSans-61" x="87.447266"/>
      <use xlink:href="#DejaVuSans-69" x="148.726562"/>
      <use xlink:href="#DejaVuSans-6e" x="176.509766"/>
      <use xlink:href="#DejaVuSans-20" x="239.888672"/>
      <use xlink:href="#DejaVuSans-41" x="271.675781"/>
      <use xlink:href="#DejaVuSans-63" x="338.333984"/>
      <use xlink:href="#DejaVuSans-63" x="393.314453"/>
      <use xlink:href="#DejaVuSans-75" x="448.294922"/>
      <use xlink:href="#DejaVuSans-72" x="511.673828"/>
      <use xlink:href="#DejaVuSans-61" x="552.787109"/>
      <use xlink:href="#DejaVuSans-63" x="614.066406"/>
      <use xlink:href="#DejaVuSans-79" x="669.046875"/>
     </g>
    </g>
    <g id="line2d_25">
     <path d="M 216.18875 248.969937 
L 226.18875 248.969937 
L 236.18875 248.969937 
" style="fill: none; stroke: #ff7f0e; stroke-width: 1.5; stroke-linecap: square"/>
    </g>
    <g id="text_23">
     <!-- Validation Accuracy -->
     <g transform="translate(244.18875 252.469937) scale(0.1 -0.1)">
      <defs>
       <path id="DejaVuSans-56" d="M 1831 0 
L 50 4666 
L 709 4666 
L 2188 738 
L 3669 4666 
L 4325 4666 
L 2547 0 
L 1831 0 
z
" transform="scale(0.015625)"/>
       <path id="DejaVuSans-6c" d="M 603 4863 
L 1178 4863 
L 1178 0 
L 603 0 
L 603 4863 
z
" transform="scale(0.015625)"/>
       <path id="DejaVuSans-64" d="M 2906 2969 
L 2906 4863 
L 3481 4863 
L 3481 0 
L 2906 0 
L 2906 525 
Q 2725 213 2448 61 
Q 2172 -91 1784 -91 
Q 1150 -91 751 415 
Q 353 922 353 1747 
Q 353 2572 751 3078 
Q 1150 3584 1784 3584 
Q 2172 3584 2448 3432 
Q 2725 3281 2906 2969 
z
M 947 1747 
Q 947 1113 1208 752 
Q 1469 391 1925 391 
Q 2381 391 2643 752 
Q 2906 1113 2906 1747 
Q 2906 2381 2643 2742 
Q 2381 3103 1925 3103 
Q 1469 3103 1208 2742 
Q 947 2381 947 1747 
z
" transform="scale(0.015625)"/>
       <path id="DejaVuSans-74" d="M 1172 4494 
L 1172 3500 
L 2356 3500 
L 2356 3053 
L 1172 3053 
L 1172 1153 
Q 1172 725 1289 603 
Q 1406 481 1766 481 
L 2356 481 
L 2356 0 
L 1766 0 
Q 1100 0 847 248 
Q 594 497 594 1153 
L 594 3053 
L 172 3053 
L 172 3500 
L 594 3500 
L 594 4494 
L 1172 4494 
z
" transform="scale(0.015625)"/>
      </defs>
      <use xlink:href="#DejaVuSans-56"/>
      <use xlink:href="#DejaVuSans-61" x="60.658203"/>
      <use xlink:href="#DejaVuSans-6c" x="121.9375"/>
      <use xlink:href="#DejaVuSans-69" x="149.720703"/>
      <use xlink:href="#DejaVuSans-64" x="177.503906"/>
      <use xlink:href="#DejaVuSans-61" x="240.980469"/>
      <use xlink:href="#DejaVuSans-74" x="302.259766"/>
      <use xlink:href="#DejaVuSans-69" x="341.46875"/>
      <use xlink:href="#DejaVuSans-6f" x="369.251953"/>
      <use xlink:href="#DejaVuSans-6e" x="430.433594"/>
      <use xlink:href="#DejaVuSans-20" x="493.8125"/>
      <use xlink:href="#DejaVuSans-41" x="525.599609"/>
      <use xlink:href="#DejaVuSans-63" x="592.257812"/>
      <use xlink:href="#DejaVuSans-63" x="647.238281"/>
      <use xlink:href="#DejaVuSans-75" x="702.21875"/>
      <use xlink:href="#DejaVuSans-72" x="765.597656"/>
      <use xlink:href="#DejaVuSans-61" x="806.710938"/>
      <use xlink:href="#DejaVuSans-63" x="867.990234"/>
      <use xlink:href="#DejaVuSans-79" x="922.970703"/>
     </g>
    </g>
    <g id="line2d_26">
     <path d="M 216.18875 263.648062 
L 226.18875 263.648062 
L 236.18875 263.648062 
" style="fill: none; stroke: #2ca02c; stroke-width: 1.5; stroke-linecap: square"/>
    </g>
    <g id="text_24">
     <!-- Robust Validation Accuracy -->
     <g transform="translate(244.18875 267.148062) scale(0.1 -0.1)">
      <defs>
       <path id="DejaVuSans-52" d="M 2841 2188 
Q 3044 2119 3236 1894 
Q 3428 1669 3622 1275 
L 4263 0 
L 3584 0 
L 2988 1197 
Q 2756 1666 2539 1819 
Q 2322 1972 1947 1972 
L 1259 1972 
L 1259 0 
L 628 0 
L 628 4666 
L 2053 4666 
Q 2853 4666 3247 4331 
Q 3641 3997 3641 3322 
Q 3641 2881 3436 2590 
Q 3231 2300 2841 2188 
z
M 1259 4147 
L 1259 2491 
L 2053 2491 
Q 2509 2491 2742 2702 
Q 2975 2913 2975 3322 
Q 2975 3731 2742 3939 
Q 2509 4147 2053 4147 
L 1259 4147 
z
" transform="scale(0.015625)"/>
       <path id="DejaVuSans-62" d="M 3116 1747 
Q 3116 2381 2855 2742 
Q 2594 3103 2138 3103 
Q 1681 3103 1420 2742 
Q 1159 2381 1159 1747 
Q 1159 1113 1420 752 
Q 1681 391 2138 391 
Q 2594 391 2855 752 
Q 3116 1113 3116 1747 
z
M 1159 2969 
Q 1341 3281 1617 3432 
Q 1894 3584 2278 3584 
Q 2916 3584 3314 3078 
Q 3713 2572 3713 1747 
Q 3713 922 3314 415 
Q 2916 -91 2278 -91 
Q 1894 -91 1617 61 
Q 1341 213 1159 525 
L 1159 0 
L 581 0 
L 581 4863 
L 1159 4863 
L 1159 2969 
z
" transform="scale(0.015625)"/>
      </defs>
      <use xlink:href="#DejaVuSans-52"/>
      <use xlink:href="#DejaVuSans-6f" x="64.982422"/>
      <use xlink:href="#DejaVuSans-62" x="126.164062"/>
      <use xlink:href="#DejaVuSans-75" x="189.640625"/>
      <use xlink:href="#DejaVuSans-73" x="253.019531"/>
      <use xlink:href="#DejaVuSans-74" x="305.119141"/>
      <use xlink:href="#DejaVuSans-20" x="344.328125"/>
      <use xlink:href="#DejaVuSans-56" x="376.115234"/>
      <use xlink:href="#DejaVuSans-61" x="436.773438"/>
      <use xlink:href="#DejaVuSans-6c" x="498.052734"/>
      <use xlink:href="#DejaVuSans-69" x="525.835938"/>
      <use xlink:href="#DejaVuSans-64" x="553.619141"/>
      <use xlink:href="#DejaVuSans-61" x="617.095703"/>
      <use xlink:href="#DejaVuSans-74" x="678.375"/>
      <use xlink:href="#DejaVuSans-69" x="717.583984"/>
      <use xlink:href="#DejaVuSans-6f" x="745.367188"/>
      <use xlink:href="#DejaVuSans-6e" x="806.548828"/>
      <use xlink:href="#DejaVuSans-20" x="869.927734"/>
      <use xlink:href="#DejaVuSans-41" x="901.714844"/>
      <use xlink:href="#DejaVuSans-63" x="968.373047"/>
      <use xlink:href="#DejaVuSans-63" x="1023.353516"/>
      <use xlink:href="#DejaVuSans-75" x="1078.333984"/>
      <use xlink:href="#DejaVuSans-72" x="1141.712891"/>
      <use xlink:href="#DejaVuSans-61" x="1182.826172"/>
      <use xlink:href="#DejaVuSans-63" x="1244.105469"/>
      <use xlink:href="#DejaVuSans-79" x="1299.085938"/>
     </g>
    </g>
    <g id="line2d_27">
     <path d="M 216.18875 278.326188 
L 226.18875 278.326188 
L 236.18875 278.326188 
" style="fill: none; stroke: #d62728; stroke-width: 1.5; stroke-linecap: square"/>
    </g>
    <g id="text_25">
     <!-- SWA Validation Accuracy -->
     <g transform="translate(244.18875 281.826188) scale(0.1 -0.1)">
      <defs>
       <path id="DejaVuSans-53" d="M 3425 4513 
L 3425 3897 
Q 3066 4069 2747 4153 
Q 2428 4238 2131 4238 
Q 1616 4238 1336 4038 
Q 1056 3838 1056 3469 
Q 1056 3159 1242 3001 
Q 1428 2844 1947 2747 
L 2328 2669 
Q 3034 2534 3370 2195 
Q 3706 1856 3706 1288 
Q 3706 609 3251 259 
Q 2797 -91 1919 -91 
Q 1588 -91 1214 -16 
Q 841 59 441 206 
L 441 856 
Q 825 641 1194 531 
Q 1563 422 1919 422 
Q 2459 422 2753 634 
Q 3047 847 3047 1241 
Q 3047 1584 2836 1778 
Q 2625 1972 2144 2069 
L 1759 2144 
Q 1053 2284 737 2584 
Q 422 2884 422 3419 
Q 422 4038 858 4394 
Q 1294 4750 2059 4750 
Q 2388 4750 2728 4690 
Q 3069 4631 3425 4513 
z
" transform="scale(0.015625)"/>
       <path id="DejaVuSans-57" d="M 213 4666 
L 850 4666 
L 1831 722 
L 2809 4666 
L 3519 4666 
L 4500 722 
L 5478 4666 
L 6119 4666 
L 4947 0 
L 4153 0 
L 3169 4050 
L 2175 0 
L 1381 0 
L 213 4666 
z
" transform="scale(0.015625)"/>
      </defs>
      <use xlink:href="#DejaVuSans-53"/>
      <use xlink:href="#DejaVuSans-57" x="63.476562"/>
      <use xlink:href="#DejaVuSans-41" x="156.853516"/>
      <use xlink:href="#DejaVuSans-20" x="225.261719"/>
      <use xlink:href="#DejaVuSans-56" x="257.048828"/>
      <use xlink:href="#DejaVuSans-61" x="317.707031"/>
      <use xlink:href="#DejaVuSans-6c" x="378.986328"/>
      <use xlink:href="#DejaVuSans-69" x="406.769531"/>
      <use xlink:href="#DejaVuSans-64" x="434.552734"/>
      <use xlink:href="#DejaVuSans-61" x="498.029297"/>
      <use xlink:href="#DejaVuSans-74" x="559.308594"/>
      <use xlink:href="#DejaVuSans-69" x="598.517578"/>
      <use xlink:href="#DejaVuSans-6f" x="626.300781"/>
      <use xlink:href="#DejaVuSans-6e" x="687.482422"/>
      <use xlink:href="#DejaVuSans-20" x="750.861328"/>
      <use xlink:href="#DejaVuSans-41" x="782.648438"/>
      <use xlink:href="#DejaVuSans-63" x="849.306641"/>
      <use xlink:href="#DejaVuSans-63" x="904.287109"/>
      <use xlink:href="#DejaVuSans-75" x="959.267578"/>
      <use xlink:href="#DejaVuSans-72" x="1022.646484"/>
      <use xlink:href="#DejaVuSans-61" x="1063.759766"/>
      <use xlink:href="#DejaVuSans-63" x="1125.039062"/>
      <use xlink:href="#DejaVuSans-79" x="1180.019531"/>
     </g>
    </g>
    <g id="line2d_28">
     <path d="M 216.18875 293.004312 
L 226.18875 293.004312 
L 236.18875 293.004312 
" style="fill: none; stroke: #9467bd; stroke-width: 1.5; stroke-linecap: square"/>
    </g>
    <g id="text_26">
     <!-- SWA Robust Validation Accuracy -->
     <g transform="translate(244.18875 296.504312) scale(0.1 -0.1)">
      <use xlink:href="#DejaVuSans-53"/>
      <use xlink:href="#DejaVuSans-57" x="63.476562"/>
      <use xlink:href="#DejaVuSans-41" x="156.853516"/>
      <use xlink:href="#DejaVuSans-20" x="225.261719"/>
      <use xlink:href="#DejaVuSans-52" x="257.048828"/>
      <use xlink:href="#DejaVuSans-6f" x="322.03125"/>
      <use xlink:href="#DejaVuSans-62" x="383.212891"/>
      <use xlink:href="#DejaVuSans-75" x="446.689453"/>
      <use xlink:href="#DejaVuSans-73" x="510.068359"/>
      <use xlink:href="#DejaVuSans-74" x="562.167969"/>
      <use xlink:href="#DejaVuSans-20" x="601.376953"/>
      <use xlink:href="#DejaVuSans-56" x="633.164062"/>
      <use xlink:href="#DejaVuSans-61" x="693.822266"/>
      <use xlink:href="#DejaVuSans-6c" x="755.101562"/>
      <use xlink:href="#DejaVuSans-69" x="782.884766"/>
      <use xlink:href="#DejaVuSans-64" x="810.667969"/>
      <use xlink:href="#DejaVuSans-61" x="874.144531"/>
      <use xlink:href="#DejaVuSans-74" x="935.423828"/>
      <use xlink:href="#DejaVuSans-69" x="974.632812"/>
      <use xlink:href="#DejaVuSans-6f" x="1002.416016"/>
      <use xlink:href="#DejaVuSans-6e" x="1063.597656"/>
      <use xlink:href="#DejaVuSans-20" x="1126.976562"/>
      <use xlink:href="#DejaVuSans-41" x="1158.763672"/>
      <use xlink:href="#DejaVuSans-63" x="1225.421875"/>
      <use xlink:href="#DejaVuSans-63" x="1280.402344"/>
      <use xlink:href="#DejaVuSans-75" x="1335.382812"/>
      <use xlink:href="#DejaVuSans-72" x="1398.761719"/>
      <use xlink:href="#DejaVuSans-61" x="1439.875"/>
      <use xlink:href="#DejaVuSans-63" x="1501.154297"/>
      <use xlink:href="#DejaVuSans-79" x="1556.134766"/>
     </g>
    </g>
   </g>
  </g>
 </g>
 <defs>
  <clipPath id="p82b3cd8893">
   <rect x="57.6" y="41.472" width="357.12" height="266.112"/>
  </clipPath>
 </defs>
</svg>
