<?xml version="1.0" encoding="utf-8" standalone="no"?>
<!DOCTYPE svg PUBLIC "-//W3C//DTD SVG 1.1//EN"
  "http://www.w3.org/Graphics/SVG/1.1/DTD/svg11.dtd">
<svg xmlns:xlink="http://www.w3.org/1999/xlink" width="460.8pt" height="345.6pt" viewBox="0 0 460.8 345.6" xmlns="http://www.w3.org/2000/svg" version="1.1">
 <metadata>
  <rdf:RDF xmlns:dc="http://purl.org/dc/elements/1.1/" xmlns:cc="http://creativecommons.org/ns#" xmlns:rdf="http://www.w3.org/1999/02/22-rdf-syntax-ns#">
   <cc:Work>
    <dc:type rdf:resource="http://purl.org/dc/dcmitype/StillImage"/>
    <dc:date>2025-07-16T08:51:14.485611</dc:date>
    <dc:format>image/svg+xml</dc:format>
    <dc:creator>
     <cc:Agent>
      <dc:title>Matplotlib v3.9.1, https://matplotlib.org/</dc:title>
     </cc:Agent>
    </dc:creator>
   </cc:Work>
  </rdf:RDF>
 </metadata>
 <defs>
  <style type="text/css">*{stroke-linejoin: round; stroke-linecap: butt}</style>
 </defs>
 <g id="figure_1">
  <g id="patch_1">
   <path d="M 0 345.6 
L 460.8 345.6 
L 460.8 0 
L 0 0 
z
" style="fill: #ffffff"/>
  </g>
  <g id="axes_1">
   <g id="patch_2">
    <path d="M 57.6 307.584 
L 414.72 307.584 
L 414.72 41.472 
L 57.6 41.472 
z
" style="fill: #ffffff"/>
   </g>
   <g id="matplotlib.axis_1">
    <g id="xtick_1">
     <g id="line2d_1">
      <defs>
       <path id="m3f4e7b1917" d="M 0 0 
L 0 3.5 
" style="stroke: #000000; stroke-width: 0.8"/>
      </defs>
      <g>
       <use xlink:href="#m3f4e7b1917" x="73.832727" y="307.584" style="stroke: #000000; stroke-width: 0.8"/>
      </g>
     </g>
     <g id="text_1">
      <!-- 1 -->
      <g transform="translate(70.651477 322.182437) scale(0.1 -0.1)">
       <defs>
        <path id="DejaVuSans-31" d="M 794 531 
L 1825 531 
L 1825 4091 
L 703 3866 
L 703 4441 
L 1819 4666 
L 2450 4666 
L 2450 531 
L 3481 531 
L 3481 0 
L 794 0 
L 794 531 
z
" transform="scale(0.015625)"/>
       </defs>
       <use xlink:href="#DejaVuSans-31"/>
      </g>
     </g>
    </g>
    <g id="xtick_2">
     <g id="line2d_2">
      <g>
       <use xlink:href="#m3f4e7b1917" x="109.664165" y="307.584" style="stroke: #000000; stroke-width: 0.8"/>
      </g>
     </g>
     <g id="text_2">
      <!-- 34 -->
      <g transform="translate(103.301665 322.182437) scale(0.1 -0.1)">
       <defs>
        <path id="DejaVuSans-33" d="M 2597 2516 
Q 3050 2419 3304 2112 
Q 3559 1806 3559 1356 
Q 3559 666 3084 287 
Q 2609 -91 1734 -91 
Q 1441 -91 1130 -33 
Q 819 25 488 141 
L 488 750 
Q 750 597 1062 519 
Q 1375 441 1716 441 
Q 2309 441 2620 675 
Q 2931 909 2931 1356 
Q 2931 1769 2642 2001 
Q 2353 2234 1838 2234 
L 1294 2234 
L 1294 2753 
L 1863 2753 
Q 2328 2753 2575 2939 
Q 2822 3125 2822 3475 
Q 2822 3834 2567 4026 
Q 2313 4219 1838 4219 
Q 1578 4219 1281 4162 
Q 984 4106 628 3988 
L 628 4550 
Q 988 4650 1302 4700 
Q 1616 4750 1894 4750 
Q 2613 4750 3031 4423 
Q 3450 4097 3450 3541 
Q 3450 3153 3228 2886 
Q 3006 2619 2597 2516 
z
" transform="scale(0.015625)"/>
        <path id="DejaVuSans-34" d="M 2419 4116 
L 825 1625 
L 2419 1625 
L 2419 4116 
z
M 2253 4666 
L 3047 4666 
L 3047 1625 
L 3713 1625 
L 3713 1100 
L 3047 1100 
L 3047 0 
L 2419 0 
L 2419 1100 
L 313 1100 
L 313 1709 
L 2253 4666 
z
" transform="scale(0.015625)"/>
       </defs>
       <use xlink:href="#DejaVuSans-33"/>
       <use xlink:href="#DejaVuSans-34" x="63.623047"/>
      </g>
     </g>
    </g>
    <g id="xtick_3">
     <g id="line2d_3">
      <g>
       <use xlink:href="#m3f4e7b1917" x="145.495604" y="307.584" style="stroke: #000000; stroke-width: 0.8"/>
      </g>
     </g>
     <g id="text_3">
      <!-- 67 -->
      <g transform="translate(139.133104 322.182437) scale(0.1 -0.1)">
       <defs>
        <path id="DejaVuSans-36" d="M 2113 2584 
Q 1688 2584 1439 2293 
Q 1191 2003 1191 1497 
Q 1191 994 1439 701 
Q 1688 409 2113 409 
Q 2538 409 2786 701 
Q 3034 994 3034 1497 
Q 3034 2003 2786 2293 
Q 2538 2584 2113 2584 
z
M 3366 4563 
L 3366 3988 
Q 3128 4100 2886 4159 
Q 2644 4219 2406 4219 
Q 1781 4219 1451 3797 
Q 1122 3375 1075 2522 
Q 1259 2794 1537 2939 
Q 1816 3084 2150 3084 
Q 2853 3084 3261 2657 
Q 3669 2231 3669 1497 
Q 3669 778 3244 343 
Q 2819 -91 2113 -91 
Q 1303 -91 875 529 
Q 447 1150 447 2328 
Q 447 3434 972 4092 
Q 1497 4750 2381 4750 
Q 2619 4750 2861 4703 
Q 3103 4656 3366 4563 
z
" transform="scale(0.015625)"/>
        <path id="DejaVuSans-37" d="M 525 4666 
L 3525 4666 
L 3525 4397 
L 1831 0 
L 1172 0 
L 2766 4134 
L 525 4134 
L 525 4666 
z
" transform="scale(0.015625)"/>
       </defs>
       <use xlink:href="#DejaVuSans-36"/>
       <use xlink:href="#DejaVuSans-37" x="63.623047"/>
      </g>
     </g>
    </g>
    <g id="xtick_4">
     <g id="line2d_4">
      <g>
       <use xlink:href="#m3f4e7b1917" x="181.327042" y="307.584" style="stroke: #000000; stroke-width: 0.8"/>
      </g>
     </g>
     <g id="text_4">
      <!-- 100 -->
      <g transform="translate(171.783292 322.182437) scale(0.1 -0.1)">
       <defs>
        <path id="DejaVuSans-30" d="M 2034 4250 
Q 1547 4250 1301 3770 
Q 1056 3291 1056 2328 
Q 1056 1369 1301 889 
Q 1547 409 2034 409 
Q 2525 409 2770 889 
Q 3016 1369 3016 2328 
Q 3016 3291 2770 3770 
Q 2525 4250 2034 4250 
z
M 2034 4750 
Q 2819 4750 3233 4129 
Q 3647 3509 3647 2328 
Q 3647 1150 3233 529 
Q 2819 -91 2034 -91 
Q 1250 -91 836 529 
Q 422 1150 422 2328 
Q 422 3509 836 4129 
Q 1250 4750 2034 4750 
z
" transform="scale(0.015625)"/>
       </defs>
       <use xlink:href="#DejaVuSans-31"/>
       <use xlink:href="#DejaVuSans-30" x="63.623047"/>
       <use xlink:href="#DejaVuSans-30" x="127.246094"/>
      </g>
     </g>
    </g>
    <g id="xtick_5">
     <g id="line2d_5">
      <g>
       <use xlink:href="#m3f4e7b1917" x="217.15848" y="307.584" style="stroke: #000000; stroke-width: 0.8"/>
      </g>
     </g>
     <g id="text_5">
      <!-- 133 -->
      <g transform="translate(207.61473 322.182437) scale(0.1 -0.1)">
       <use xlink:href="#DejaVuSans-31"/>
       <use xlink:href="#DejaVuSans-33" x="63.623047"/>
       <use xlink:href="#DejaVuSans-33" x="127.246094"/>
      </g>
     </g>
    </g>
    <g id="xtick_6">
     <g id="line2d_6">
      <g>
       <use xlink:href="#m3f4e7b1917" x="254.075719" y="307.584" style="stroke: #000000; stroke-width: 0.8"/>
      </g>
     </g>
     <g id="text_6">
      <!-- 167 -->
      <g transform="translate(244.531969 322.182437) scale(0.1 -0.1)">
       <use xlink:href="#DejaVuSans-31"/>
       <use xlink:href="#DejaVuSans-36" x="63.623047"/>
       <use xlink:href="#DejaVuSans-37" x="127.246094"/>
      </g>
     </g>
    </g>
    <g id="xtick_7">
     <g id="line2d_7">
      <g>
       <use xlink:href="#m3f4e7b1917" x="289.907157" y="307.584" style="stroke: #000000; stroke-width: 0.8"/>
      </g>
     </g>
     <g id="text_7">
      <!-- 200 -->
      <g transform="translate(280.363407 322.182437) scale(0.1 -0.1)">
       <defs>
        <path id="DejaVuSans-32" d="M 1228 531 
L 3431 531 
L 3431 0 
L 469 0 
L 469 531 
Q 828 903 1448 1529 
Q 2069 2156 2228 2338 
Q 2531 2678 2651 2914 
Q 2772 3150 2772 3378 
Q 2772 3750 2511 3984 
Q 2250 4219 1831 4219 
Q 1534 4219 1204 4116 
Q 875 4013 500 3803 
L 500 4441 
Q 881 4594 1212 4672 
Q 1544 4750 1819 4750 
Q 2544 4750 2975 4387 
Q 3406 4025 3406 3419 
Q 3406 3131 3298 2873 
Q 3191 2616 2906 2266 
Q 2828 2175 2409 1742 
Q 1991 1309 1228 531 
z
" transform="scale(0.015625)"/>
       </defs>
       <use xlink:href="#DejaVuSans-32"/>
       <use xlink:href="#DejaVuSans-30" x="63.623047"/>
       <use xlink:href="#DejaVuSans-30" x="127.246094"/>
      </g>
     </g>
    </g>
    <g id="xtick_8">
     <g id="line2d_8">
      <g>
       <use xlink:href="#m3f4e7b1917" x="325.738595" y="307.584" style="stroke: #000000; stroke-width: 0.8"/>
      </g>
     </g>
     <g id="text_8">
      <!-- 233 -->
      <g transform="translate(316.194845 322.182437) scale(0.1 -0.1)">
       <use xlink:href="#DejaVuSans-32"/>
       <use xlink:href="#DejaVuSans-33" x="63.623047"/>
       <use xlink:href="#DejaVuSans-33" x="127.246094"/>
      </g>
     </g>
    </g>
    <g id="xtick_9">
     <g id="line2d_9">
      <g>
       <use xlink:href="#m3f4e7b1917" x="361.570033" y="307.584" style="stroke: #000000; stroke-width: 0.8"/>
      </g>
     </g>
     <g id="text_9">
      <!-- 266 -->
      <g transform="translate(352.026283 322.182437) scale(0.1 -0.1)">
       <use xlink:href="#DejaVuSans-32"/>
       <use xlink:href="#DejaVuSans-36" x="63.623047"/>
       <use xlink:href="#DejaVuSans-36" x="127.246094"/>
      </g>
     </g>
    </g>
    <g id="xtick_10">
     <g id="line2d_10">
      <g>
       <use xlink:href="#m3f4e7b1917" x="398.487273" y="307.584" style="stroke: #000000; stroke-width: 0.8"/>
      </g>
     </g>
     <g id="text_10">
      <!-- 300 -->
      <g transform="translate(388.943523 322.182437) scale(0.1 -0.1)">
       <use xlink:href="#DejaVuSans-33"/>
       <use xlink:href="#DejaVuSans-30" x="63.623047"/>
       <use xlink:href="#DejaVuSans-30" x="127.246094"/>
      </g>
     </g>
    </g>
    <g id="text_11">
     <!-- Epochs -->
     <g transform="translate(218.244375 335.860562) scale(0.1 -0.1)">
      <defs>
       <path id="DejaVuSans-45" d="M 628 4666 
L 3578 4666 
L 3578 4134 
L 1259 4134 
L 1259 2753 
L 3481 2753 
L 3481 2222 
L 1259 2222 
L 1259 531 
L 3634 531 
L 3634 0 
L 628 0 
L 628 4666 
z
" transform="scale(0.015625)"/>
       <path id="DejaVuSans-70" d="M 1159 525 
L 1159 -1331 
L 581 -1331 
L 581 3500 
L 1159 3500 
L 1159 2969 
Q 1341 3281 1617 3432 
Q 1894 3584 2278 3584 
Q 2916 3584 3314 3078 
Q 3713 2572 3713 1747 
Q 3713 922 3314 415 
Q 2916 -91 2278 -91 
Q 1894 -91 1617 61 
Q 1341 213 1159 525 
z
M 3116 1747 
Q 3116 2381 2855 2742 
Q 2594 3103 2138 3103 
Q 1681 3103 1420 2742 
Q 1159 2381 1159 1747 
Q 1159 1113 1420 752 
Q 1681 391 2138 391 
Q 2594 391 2855 752 
Q 3116 1113 3116 1747 
z
" transform="scale(0.015625)"/>
       <path id="DejaVuSans-6f" d="M 1959 3097 
Q 1497 3097 1228 2736 
Q 959 2375 959 1747 
Q 959 1119 1226 758 
Q 1494 397 1959 397 
Q 2419 397 2687 759 
Q 2956 1122 2956 1747 
Q 2956 2369 2687 2733 
Q 2419 3097 1959 3097 
z
M 1959 3584 
Q 2709 3584 3137 3096 
Q 3566 2609 3566 1747 
Q 3566 888 3137 398 
Q 2709 -91 1959 -91 
Q 1206 -91 779 398 
Q 353 888 353 1747 
Q 353 2609 779 3096 
Q 1206 3584 1959 3584 
z
" transform="scale(0.015625)"/>
       <path id="DejaVuSans-63" d="M 3122 3366 
L 3122 2828 
Q 2878 2963 2633 3030 
Q 2388 3097 2138 3097 
Q 1578 3097 1268 2742 
Q 959 2388 959 1747 
Q 959 1106 1268 751 
Q 1578 397 2138 397 
Q 2388 397 2633 464 
Q 2878 531 3122 666 
L 3122 134 
Q 2881 22 2623 -34 
Q 2366 -91 2075 -91 
Q 1284 -91 818 406 
Q 353 903 353 1747 
Q 353 2603 823 3093 
Q 1294 3584 2113 3584 
Q 2378 3584 2631 3529 
Q 2884 3475 3122 3366 
z
" transform="scale(0.015625)"/>
       <path id="DejaVuSans-68" d="M 3513 2113 
L 3513 0 
L 2938 0 
L 2938 2094 
Q 2938 2591 2744 2837 
Q 2550 3084 2163 3084 
Q 1697 3084 1428 2787 
Q 1159 2491 1159 1978 
L 1159 0 
L 581 0 
L 581 4863 
L 1159 4863 
L 1159 2956 
Q 1366 3272 1645 3428 
Q 1925 3584 2291 3584 
Q 2894 3584 3203 3211 
Q 3513 2838 3513 2113 
z
" transform="scale(0.015625)"/>
       <path id="DejaVuSans-73" d="M 2834 3397 
L 2834 2853 
Q 2591 2978 2328 3040 
Q 2066 3103 1784 3103 
Q 1356 3103 1142 2972 
Q 928 2841 928 2578 
Q 928 2378 1081 2264 
Q 1234 2150 1697 2047 
L 1894 2003 
Q 2506 1872 2764 1633 
Q 3022 1394 3022 966 
Q 3022 478 2636 193 
Q 2250 -91 1575 -91 
Q 1294 -91 989 -36 
Q 684 19 347 128 
L 347 722 
Q 666 556 975 473 
Q 1284 391 1588 391 
Q 1994 391 2212 530 
Q 2431 669 2431 922 
Q 2431 1156 2273 1281 
Q 2116 1406 1581 1522 
L 1381 1569 
Q 847 1681 609 1914 
Q 372 2147 372 2553 
Q 372 3047 722 3315 
Q 1072 3584 1716 3584 
Q 2034 3584 2315 3537 
Q 2597 3491 2834 3397 
z
" transform="scale(0.015625)"/>
      </defs>
      <use xlink:href="#DejaVuSans-45"/>
      <use xlink:href="#DejaVuSans-70" x="63.183594"/>
      <use xlink:href="#DejaVuSans-6f" x="126.660156"/>
      <use xlink:href="#DejaVuSans-63" x="187.841797"/>
      <use xlink:href="#DejaVuSans-68" x="242.822266"/>
      <use xlink:href="#DejaVuSans-73" x="306.201172"/>
     </g>
    </g>
   </g>
   <g id="matplotlib.axis_2">
    <g id="ytick_1">
     <g id="line2d_11">
      <defs>
       <path id="md172ad1ded" d="M 0 0 
L -3.5 0 
" style="stroke: #000000; stroke-width: 0.8"/>
      </defs>
      <g>
       <use xlink:href="#md172ad1ded" x="57.6" y="280.511784" style="stroke: #000000; stroke-width: 0.8"/>
      </g>
     </g>
     <g id="text_12">
      <!-- 10 -->
      <g transform="translate(37.875 284.311003) scale(0.1 -0.1)">
       <use xlink:href="#DejaVuSans-31"/>
       <use xlink:href="#DejaVuSans-30" x="63.623047"/>
      </g>
     </g>
    </g>
    <g id="ytick_2">
     <g id="line2d_12">
      <g>
       <use xlink:href="#md172ad1ded" x="57.6" y="248.109759" style="stroke: #000000; stroke-width: 0.8"/>
      </g>
     </g>
     <g id="text_13">
      <!-- 20 -->
      <g transform="translate(37.875 251.908978) scale(0.1 -0.1)">
       <use xlink:href="#DejaVuSans-32"/>
       <use xlink:href="#DejaVuSans-30" x="63.623047"/>
      </g>
     </g>
    </g>
    <g id="ytick_3">
     <g id="line2d_13">
      <g>
       <use xlink:href="#md172ad1ded" x="57.6" y="215.707734" style="stroke: #000000; stroke-width: 0.8"/>
      </g>
     </g>
     <g id="text_14">
      <!-- 30 -->
      <g transform="translate(37.875 219.506952) scale(0.1 -0.1)">
       <use xlink:href="#DejaVuSans-33"/>
       <use xlink:href="#DejaVuSans-30" x="63.623047"/>
      </g>
     </g>
    </g>
    <g id="ytick_4">
     <g id="line2d_14">
      <g>
       <use xlink:href="#md172ad1ded" x="57.6" y="183.305709" style="stroke: #000000; stroke-width: 0.8"/>
      </g>
     </g>
     <g id="text_15">
      <!-- 40 -->
      <g transform="translate(37.875 187.104927) scale(0.1 -0.1)">
       <use xlink:href="#DejaVuSans-34"/>
       <use xlink:href="#DejaVuSans-30" x="63.623047"/>
      </g>
     </g>
    </g>
    <g id="ytick_5">
     <g id="line2d_15">
      <g>
       <use xlink:href="#md172ad1ded" x="57.6" y="150.903683" style="stroke: #000000; stroke-width: 0.8"/>
      </g>
     </g>
     <g id="text_16">
      <!-- 50 -->
      <g transform="translate(37.875 154.702902) scale(0.1 -0.1)">
       <defs>
        <path id="DejaVuSans-35" d="M 691 4666 
L 3169 4666 
L 3169 4134 
L 1269 4134 
L 1269 2991 
Q 1406 3038 1543 3061 
Q 1681 3084 1819 3084 
Q 2600 3084 3056 2656 
Q 3513 2228 3513 1497 
Q 3513 744 3044 326 
Q 2575 -91 1722 -91 
Q 1428 -91 1123 -41 
Q 819 9 494 109 
L 494 744 
Q 775 591 1075 516 
Q 1375 441 1709 441 
Q 2250 441 2565 725 
Q 2881 1009 2881 1497 
Q 2881 1984 2565 2268 
Q 2250 2553 1709 2553 
Q 1456 2553 1204 2497 
Q 953 2441 691 2322 
L 691 4666 
z
" transform="scale(0.015625)"/>
       </defs>
       <use xlink:href="#DejaVuSans-35"/>
       <use xlink:href="#DejaVuSans-30" x="63.623047"/>
      </g>
     </g>
    </g>
    <g id="ytick_6">
     <g id="line2d_16">
      <g>
       <use xlink:href="#md172ad1ded" x="57.6" y="118.501658" style="stroke: #000000; stroke-width: 0.8"/>
      </g>
     </g>
     <g id="text_17">
      <!-- 60 -->
      <g transform="translate(37.875 122.300877) scale(0.1 -0.1)">
       <use xlink:href="#DejaVuSans-36"/>
       <use xlink:href="#DejaVuSans-30" x="63.623047"/>
      </g>
     </g>
    </g>
    <g id="ytick_7">
     <g id="line2d_17">
      <g>
       <use xlink:href="#md172ad1ded" x="57.6" y="86.099633" style="stroke: #000000; stroke-width: 0.8"/>
      </g>
     </g>
     <g id="text_18">
      <!-- 70 -->
      <g transform="translate(37.875 89.898852) scale(0.1 -0.1)">
       <use xlink:href="#DejaVuSans-37"/>
       <use xlink:href="#DejaVuSans-30" x="63.623047"/>
      </g>
     </g>
    </g>
    <g id="ytick_8">
     <g id="line2d_18">
      <g>
       <use xlink:href="#md172ad1ded" x="57.6" y="53.697608" style="stroke: #000000; stroke-width: 0.8"/>
      </g>
     </g>
     <g id="text_19">
      <!-- 80 -->
      <g transform="translate(37.875 57.496827) scale(0.1 -0.1)">
       <defs>
        <path id="DejaVuSans-38" d="M 2034 2216 
Q 1584 2216 1326 1975 
Q 1069 1734 1069 1313 
Q 1069 891 1326 650 
Q 1584 409 2034 409 
Q 2484 409 2743 651 
Q 3003 894 3003 1313 
Q 3003 1734 2745 1975 
Q 2488 2216 2034 2216 
z
M 1403 2484 
Q 997 2584 770 2862 
Q 544 3141 544 3541 
Q 544 4100 942 4425 
Q 1341 4750 2034 4750 
Q 2731 4750 3128 4425 
Q 3525 4100 3525 3541 
Q 3525 3141 3298 2862 
Q 3072 2584 2669 2484 
Q 3125 2378 3379 2068 
Q 3634 1759 3634 1313 
Q 3634 634 3220 271 
Q 2806 -91 2034 -91 
Q 1263 -91 848 271 
Q 434 634 434 1313 
Q 434 1759 690 2068 
Q 947 2378 1403 2484 
z
M 1172 3481 
Q 1172 3119 1398 2916 
Q 1625 2713 2034 2713 
Q 2441 2713 2670 2916 
Q 2900 3119 2900 3481 
Q 2900 3844 2670 4047 
Q 2441 4250 2034 4250 
Q 1625 4250 1398 4047 
Q 1172 3844 1172 3481 
z
" transform="scale(0.015625)"/>
       </defs>
       <use xlink:href="#DejaVuSans-38"/>
       <use xlink:href="#DejaVuSans-30" x="63.623047"/>
      </g>
     </g>
    </g>
    <g id="text_20">
     <!-- Accuracy -->
     <g transform="translate(31.795312 197.356125) rotate(-90) scale(0.1 -0.1)">
      <defs>
       <path id="DejaVuSans-41" d="M 2188 4044 
L 1331 1722 
L 3047 1722 
L 2188 4044 
z
M 1831 4666 
L 2547 4666 
L 4325 0 
L 3669 0 
L 3244 1197 
L 1141 1197 
L 716 0 
L 50 0 
L 1831 4666 
z
" transform="scale(0.015625)"/>
       <path id="DejaVuSans-75" d="M 544 1381 
L 544 3500 
L 1119 3500 
L 1119 1403 
Q 1119 906 1312 657 
Q 1506 409 1894 409 
Q 2359 409 2629 706 
Q 2900 1003 2900 1516 
L 2900 3500 
L 3475 3500 
L 3475 0 
L 2900 0 
L 2900 538 
Q 2691 219 2414 64 
Q 2138 -91 1772 -91 
Q 1169 -91 856 284 
Q 544 659 544 1381 
z
M 1991 3584 
L 1991 3584 
z
" transform="scale(0.015625)"/>
       <path id="DejaVuSans-72" d="M 2631 2963 
Q 2534 3019 2420 3045 
Q 2306 3072 2169 3072 
Q 1681 3072 1420 2755 
Q 1159 2438 1159 1844 
L 1159 0 
L 581 0 
L 581 3500 
L 1159 3500 
L 1159 2956 
Q 1341 3275 1631 3429 
Q 1922 3584 2338 3584 
Q 2397 3584 2469 3576 
Q 2541 3569 2628 3553 
L 2631 2963 
z
" transform="scale(0.015625)"/>
       <path id="DejaVuSans-61" d="M 2194 1759 
Q 1497 1759 1228 1600 
Q 959 1441 959 1056 
Q 959 750 1161 570 
Q 1363 391 1709 391 
Q 2188 391 2477 730 
Q 2766 1069 2766 1631 
L 2766 1759 
L 2194 1759 
z
M 3341 1997 
L 3341 0 
L 2766 0 
L 2766 531 
Q 2569 213 2275 61 
Q 1981 -91 1556 -91 
Q 1019 -91 701 211 
Q 384 513 384 1019 
Q 384 1609 779 1909 
Q 1175 2209 1959 2209 
L 2766 2209 
L 2766 2266 
Q 2766 2663 2505 2880 
Q 2244 3097 1772 3097 
Q 1472 3097 1187 3025 
Q 903 2953 641 2809 
L 641 3341 
Q 956 3463 1253 3523 
Q 1550 3584 1831 3584 
Q 2591 3584 2966 3190 
Q 3341 2797 3341 1997 
z
" transform="scale(0.015625)"/>
       <path id="DejaVuSans-79" d="M 2059 -325 
Q 1816 -950 1584 -1140 
Q 1353 -1331 966 -1331 
L 506 -1331 
L 506 -850 
L 844 -850 
Q 1081 -850 1212 -737 
Q 1344 -625 1503 -206 
L 1606 56 
L 191 3500 
L 800 3500 
L 1894 763 
L 2988 3500 
L 3597 3500 
L 2059 -325 
z
" transform="scale(0.015625)"/>
      </defs>
      <use xlink:href="#DejaVuSans-41"/>
      <use xlink:href="#DejaVuSans-63" x="66.658203"/>
      <use xlink:href="#DejaVuSans-63" x="121.638672"/>
      <use xlink:href="#DejaVuSans-75" x="176.619141"/>
      <use xlink:href="#DejaVuSans-72" x="239.998047"/>
      <use xlink:href="#DejaVuSans-61" x="281.111328"/>
      <use xlink:href="#DejaVuSans-63" x="342.390625"/>
      <use xlink:href="#DejaVuSans-79" x="397.371094"/>
     </g>
    </g>
   </g>
   <g id="line2d_19">
    <path d="M 73.832727 295.488 
L 74.918528 280.032234 
L 76.00433 262.885082 
L 77.090131 250.585274 
L 78.175932 240.644332 
L 79.261733 228.545416 
L 80.347534 225.24041 
L 81.433335 210.173468 
L 82.519137 202.714522 
L 83.604938 202.571953 
L 84.690739 195.151889 
L 85.77654 189.870359 
L 86.862341 188.658523 
L 89.033943 173.902641 
L 90.119745 181.167175 
L 91.205546 176.76698 
L 92.291347 171.828911 
L 93.377148 167.474079 
L 94.462949 167.610168 
L 95.54875 188.703886 
L 96.634552 196.44797 
L 97.720353 185.923792 
L 98.806154 187.440207 
L 99.891955 181.918902 
L 100.977756 180.668184 
L 102.063557 178.575013 
L 103.149358 174.53124 
L 104.23516 176.494803 
L 105.320961 169.541328 
L 106.406762 166.184479 
L 107.492563 164.836554 
L 109.664165 164.804152 
L 110.749967 164.337563 
L 111.835768 154.539191 
L 112.921569 160.637252 
L 114.00737 160.170663 
L 115.093171 151.111056 
L 116.178972 151.96647 
L 117.264773 149.821456 
L 118.350575 152.420098 
L 119.436376 147.611638 
L 120.522177 153.197747 
L 121.607978 150.897203 
L 122.693779 148.162472 
L 123.77958 141.792234 
L 124.865382 139.375043 
L 125.951183 138.487227 
L 127.036984 141.08587 
L 128.122785 139.310239 
L 129.208586 141.319164 
L 130.294387 133.620443 
L 131.380189 132.149391 
L 132.46599 138.059521 
L 133.551791 142.148656 
L 135.723393 128.818463 
L 136.809194 133.127932 
L 137.894995 129.233209 
L 138.980797 155.64734 
L 140.066598 162.613775 
L 141.152399 155.900076 
L 142.2382 155.524212 
L 143.324001 150.631506 
L 144.409802 152.478422 
L 145.495604 153.042217 
L 146.581405 152.271049 
L 147.667206 151.81094 
L 148.753007 157.552579 
L 149.838808 147.028401 
L 150.924609 152.504344 
L 152.01041 154.766005 
L 153.096212 148.726267 
L 154.182013 139.886995 
L 155.267814 153.269031 
L 156.353615 149.348386 
L 157.439416 143.684512 
L 158.525217 150.437094 
L 159.611019 147.423706 
L 160.69682 146.458126 
L 161.782621 141.2414 
L 162.868422 144.339033 
L 163.954223 139.32968 
L 165.040024 145.693438 
L 166.125825 136.562547 
L 167.211627 140.185094 
L 168.297428 139.621298 
L 169.383229 141.824636 
L 170.46903 143.32809 
L 171.554831 138.143766 
L 172.640632 141.377488 
L 174.812235 135.590486 
L 175.898036 142.006087 
L 176.983837 134.573063 
L 178.069638 131.64392 
L 179.155439 134.430494 
L 180.24124 132.849275 
L 181.327042 130.730183 
L 182.412843 133.814855 
L 183.498644 125.993007 
L 184.584445 129.686837 
L 185.670246 123.673022 
L 186.756047 129.123042 
L 187.841849 125.24776 
L 188.92765 123.206432 
L 190.013451 124.878377 
L 191.099252 125.869879 
L 192.185053 124.022963 
L 193.270854 128.345394 
L 194.356656 125.668986 
L 195.442457 122.059401 
L 196.528258 126.628086 
L 197.614059 120.575388 
L 198.69986 118.009148 
L 199.785661 120.458741 
L 200.871462 118.313727 
L 201.957264 115.915977 
L 203.043065 122.513029 
L 204.128866 112.053655 
L 205.214667 120.355054 
L 206.300468 114.697661 
L 207.386269 110.329868 
L 208.472071 113.952414 
L 209.557872 116.719547 
L 210.643673 114.269954 
L 211.729474 118.456296 
L 212.815275 110.05121 
L 213.901076 118.073952 
L 214.986877 113.673757 
L 216.072679 114.723582 
L 217.15848 116.674184 
L 218.244281 108.981943 
L 219.330082 109.519817 
L 220.415883 111.587066 
L 222.587486 118.650708 
L 223.673287 111.911086 
L 224.759088 113.24605 
L 225.844889 133.438992 
L 226.93069 141.053468 
L 228.016491 140.982183 
L 229.102292 141.2414 
L 230.188094 136.219086 
L 231.273895 138.396502 
L 232.359696 144.572328 
L 233.445497 140.995144 
L 234.531298 141.144194 
L 235.617099 139.271356 
L 236.702901 138.474267 
L 237.788702 135.311829 
L 238.874503 139.524092 
L 239.960304 139.899956 
L 241.046105 134.242562 
L 242.131906 140.275819 
L 243.217708 133.309384 
L 244.303509 139.400965 
L 245.38931 134.53418 
L 246.475111 137.88455 
L 247.560912 136.964332 
L 248.646713 135.888585 
L 249.732514 140.28878 
L 250.818316 140.159172 
L 252.989918 132.978883 
L 254.075719 133.225139 
L 255.16152 132.207715 
L 256.247321 126.304066 
L 257.333123 131.475429 
L 258.418924 137.327235 
L 259.504725 138.253933 
L 260.590526 127.042832 
L 261.676327 132.240117 
L 262.762128 134.696191 
L 263.847929 135.681212 
L 264.933731 130.406162 
L 266.019532 132.479892 
L 267.105333 127.937128 
L 269.276935 132.525255 
L 270.362736 131.64392 
L 271.448538 128.533325 
L 272.534339 133.309384 
L 273.62014 129.25265 
L 274.705941 126.803057 
L 275.791742 122.428784 
L 276.877543 125.001505 
L 277.963344 123.433247 
L 279.049146 129.233209 
L 280.134947 121.657616 
L 281.220748 130.581133 
L 282.306549 126.116134 
L 283.39235 123.679502 
L 284.478151 131.585596 
L 285.563953 130.542251 
L 286.649754 128.397237 
L 287.735555 128.4426 
L 288.821356 122.415823 
L 289.907157 120.380976 
L 290.992958 123.284197 
L 292.07876 126.809538 
L 293.164561 120.756839 
L 294.250362 122.480627 
L 295.336163 125.500496 
L 296.421964 122.36398 
L 297.507765 124.748769 
L 298.593566 122.221411 
L 299.679368 127.16596 
L 300.765169 127.282607 
L 301.85097 122.20845 
L 302.936771 120.322652 
L 304.022572 121.625214 
L 305.108373 112.111979 
L 306.194175 119.421876 
L 307.279976 117.562 
L 308.365777 124.159052 
L 309.451578 122.869451 
L 310.537379 121.236389 
L 311.62318 110.116014 
L 312.708981 122.234372 
L 313.794783 116.589939 
L 314.880584 115.553074 
L 315.966385 120.348574 
L 317.052186 118.086912 
L 318.137987 123.627659 
L 319.223788 113.356217 
L 320.30959 116.738988 
L 321.395391 112.403597 
L 322.481192 116.499213 
L 323.566993 119.979191 
L 324.652794 120.147681 
L 325.738595 115.546594 
L 326.824396 122.344539 
L 327.910198 119.058973 
L 328.995999 116.777871 
L 330.0818 120.542986 
L 331.167601 118.838639 
L 332.253402 113.900571 
L 333.339203 115.915977 
L 334.425005 106.026879 
L 335.510806 109.72719 
L 336.596607 110.323387 
L 337.682408 118.968248 
L 338.768209 110.796457 
L 339.85401 114.872632 
L 340.939811 107.297038 
L 342.025613 109.215238 
L 343.111414 109.487415 
L 344.197215 111.360252 
L 345.283016 111.535223 
L 346.368817 105.962075 
L 347.454618 109.480935 
L 348.54042 114.457886 
L 349.626221 108.696806 
L 350.712022 107.212793 
L 351.797823 104.789121 
L 352.883624 111.97589 
L 353.969425 111.600027 
L 355.055227 114.425484 
L 356.141028 105.709339 
L 357.226829 106.098163 
L 358.31263 107.413685 
L 359.398431 106.059281 
L 360.484232 97.673637 
L 361.570033 105.268671 
L 362.655835 100.797192 
L 363.741636 100.278759 
L 364.827437 103.920747 
L 365.913238 111.8074 
L 366.999039 102.449695 
L 368.08484 110.796457 
L 369.170642 100.077867 
L 370.256443 108.44407 
L 371.342244 111.418576 
L 372.428045 104.951131 
L 373.513846 104.186444 
L 374.599647 110.8483 
L 375.685448 109.24116 
L 376.77125 105.553809 
L 377.857051 105.780623 
L 378.942852 106.616596 
L 380.028653 106.357379 
L 381.114454 104.225326 
L 382.200255 105.398279 
L 383.286057 106.143526 
L 384.371858 114.652298 
L 385.457659 108.45055 
L 386.54346 109.007865 
L 387.629261 106.240732 
L 388.715062 107.582176 
L 389.800863 104.28365 
L 390.886665 109.72071 
L 391.972466 108.158932 
L 393.058267 111.768518 
L 394.144068 107.472009 
L 395.229869 108.819933 
L 396.31567 106.772125 
L 397.401472 107.958039 
L 398.487273 107.925637 
L 398.487273 107.925637 
" clip-path="url(#p795a586936)" style="fill: none; stroke: #1f77b4; stroke-width: 1.5; stroke-linecap: square"/>
   </g>
   <g id="line2d_20">
    <path d="M 73.832727 285.08047 
L 76.00433 235.894195 
L 77.090131 221.5725 
L 78.175932 204.205015 
L 80.347534 176.339273 
L 81.433335 164.674544 
L 82.519137 161.693558 
L 83.604938 155.504771 
L 84.690739 153.301433 
L 85.77654 145.103721 
L 86.862341 139.109346 
L 87.948142 137.035617 
L 89.033943 135.512722 
L 90.119745 131.624479 
L 91.205546 129.485945 
L 92.291347 126.310546 
L 93.377148 125.500496 
L 94.462949 125.014465 
L 95.54875 149.5752 
L 96.634552 152.491383 
L 97.720353 141.021066 
L 98.806154 136.484782 
L 99.891955 141.474694 
L 100.977756 147.177451 
L 102.063557 132.466931 
L 103.149358 128.027854 
L 104.23516 131.138448 
L 105.320961 118.53406 
L 106.406762 122.001077 
L 107.492563 119.473719 
L 108.578364 113.932973 
L 109.664165 114.872632 
L 110.749967 111.632429 
L 111.835768 114.256993 
L 112.921569 112.507284 
L 114.00737 107.517372 
L 115.093171 109.947524 
L 117.264773 103.855943 
L 118.350575 106.026879 
L 119.436376 102.624666 
L 120.522177 98.833629 
L 121.607978 96.500683 
L 122.693779 96.759899 
L 123.77958 94.264944 
L 124.865382 94.945386 
L 125.951183 91.64038 
L 127.036984 90.571113 
L 128.122785 89.825866 
L 129.208586 87.622528 
L 130.294387 86.974488 
L 132.46599 87.266106 
L 133.551791 85.321985 
L 134.637592 85.646005 
L 135.723393 84.868356 
L 136.809194 86.261643 
L 137.894995 85.257181 
L 138.980797 108.327422 
L 140.066598 110.336348 
L 141.152399 114.321797 
L 142.2382 110.53076 
L 143.324001 107.744186 
L 144.409802 107.679382 
L 145.495604 105.216828 
L 146.581405 99.125247 
L 147.667206 108.910659 
L 148.753007 102.68947 
L 149.838808 107.193352 
L 150.924609 101.620203 
L 152.01041 102.138636 
L 153.096212 100.583338 
L 154.182013 94.783376 
L 155.267814 98.995639 
L 156.353615 99.708484 
L 157.439416 95.237004 
L 158.525217 98.574413 
L 159.611019 95.625829 
L 160.69682 90.700721 
L 161.782621 93.422491 
L 162.868422 94.880582 
L 163.954223 97.829166 
L 165.040024 90.21469 
L 166.125825 87.039292 
L 167.211627 88.367775 
L 168.297428 88.076157 
L 169.383229 89.761062 
L 170.46903 87.1689 
L 171.554831 85.321985 
L 172.640632 86.196839 
L 173.726434 83.539873 
L 174.812235 84.382326 
L 175.898036 87.1689 
L 176.983837 82.794627 
L 178.069638 79.684032 
L 179.155439 81.239329 
L 180.24124 78.809178 
L 181.327042 82.21139 
L 182.412843 83.9611 
L 183.498644 78.096333 
L 185.670246 76.411428 
L 186.756047 77.383488 
L 187.841849 77.124272 
L 188.92765 74.564512 
L 190.013451 74.856131 
L 191.099252 73.009215 
L 192.185053 74.920935 
L 193.270854 73.300833 
L 194.356656 72.361175 
L 195.442457 72.069556 
L 196.528258 69.833817 
L 197.614059 69.931023 
L 198.69986 68.246117 
L 199.785661 68.60254 
L 200.871462 69.347786 
L 201.957264 68.796952 
L 203.043065 67.01484 
L 204.128866 67.533273 
L 205.214667 67.338861 
L 206.300468 67.500871 
L 207.386269 65.135523 
L 208.472071 64.45508 
L 209.557872 65.297533 
L 210.643673 63.385814 
L 211.729474 63.547824 
L 212.815275 63.256206 
L 213.901076 63.871844 
L 214.986877 64.001452 
L 216.072679 63.418216 
L 217.15848 63.839442 
L 218.244281 61.89532 
L 219.330082 62.705371 
L 220.415883 62.964587 
L 221.501684 62.964587 
L 222.587486 62.122135 
L 223.673287 63.158999 
L 224.759088 62.316547 
L 225.844889 91.672782 
L 226.93069 91.80239 
L 228.016491 92.320822 
L 229.102292 92.061606 
L 230.188094 89.048218 
L 232.359696 93.066069 
L 233.445497 92.482832 
L 234.531298 87.104096 
L 235.617099 88.335373 
L 236.702901 91.543173 
L 237.788702 91.9644 
L 238.874503 92.61244 
L 239.960304 88.367775 
L 241.046105 88.173363 
L 242.131906 87.849343 
L 243.217708 86.585664 
L 244.303509 87.881745 
L 245.38931 87.881745 
L 246.475111 91.121947 
L 247.560912 89.210228 
L 248.646713 85.321985 
L 249.732514 82.308596 
L 250.818316 86.132035 
L 251.904117 86.326447 
L 252.989918 85.030366 
L 254.075719 89.177826 
L 255.16152 84.155512 
L 257.333123 81.077319 
L 258.418924 87.395714 
L 259.504725 80.882907 
L 261.676327 85.743211 
L 262.762128 80.040455 
L 263.847929 83.377863 
L 264.933731 81.271731 
L 266.019532 80.526485 
L 267.105333 82.827029 
L 268.191134 78.938786 
L 269.276935 82.308596 
L 270.362736 79.748836 
L 271.448538 84.479532 
L 273.62014 79.295208 
L 274.705941 74.823728 
L 275.791742 76.865056 
L 276.877543 78.355549 
L 277.963344 77.221478 
L 279.049146 79.00359 
L 280.134947 75.925397 
L 281.220748 79.619228 
L 282.306549 76.962262 
L 283.39235 77.286282 
L 284.478151 77.059468 
L 285.563953 72.944411 
L 286.649754 73.365637 
L 287.735555 74.985739 
L 288.821356 77.41589 
L 289.907157 76.994664 
L 290.992958 74.661718 
L 292.07876 71.097496 
L 293.164561 76.735448 
L 294.250362 71.875144 
L 295.336163 75.471769 
L 296.421964 74.791326 
L 297.507765 75.244955 
L 298.593566 73.333235 
L 299.679368 71.907546 
L 300.765169 73.657256 
L 301.85097 73.106421 
L 302.936771 71.680732 
L 304.022572 73.462843 
L 305.108373 69.769013 
L 306.194175 71.1623 
L 307.279976 70.611465 
L 308.365777 69.801415 
L 309.451578 72.361175 
L 310.537379 68.278519 
L 311.62318 66.237192 
L 312.708981 68.375725 
L 313.794783 67.889695 
L 314.880584 66.950036 
L 315.966385 67.306459 
L 317.052186 67.306459 
L 318.137987 66.85283 
L 319.223788 66.010378 
L 320.30959 69.704209 
L 321.395391 65.621553 
L 322.481192 64.908709 
L 323.566993 65.103121 
L 324.652794 67.922097 
L 325.738595 65.265131 
L 326.824396 66.788026 
L 327.910198 67.047242 
L 328.995999 62.608165 
L 330.0818 62.867381 
L 331.167601 64.163462 
L 332.253402 64.422678 
L 333.339203 63.158999 
L 334.425005 63.612628 
L 335.510806 65.556749 
L 336.596607 62.024929 
L 337.682408 63.742236 
L 338.768209 61.117672 
L 339.85401 60.469631 
L 340.939811 60.696446 
L 342.025613 60.275219 
L 343.111414 61.08527 
L 344.197215 59.205952 
L 345.283016 60.566837 
L 346.368817 57.229429 
L 347.454618 58.071881 
L 348.54042 59.562375 
L 349.626221 58.104284 
L 350.712022 58.169088 
L 351.797823 56.581388 
L 352.883624 55.738936 
L 353.969425 58.20149 
L 355.055227 57.391439 
L 356.141028 55.836142 
L 357.226829 58.52551 
L 358.31263 56.678594 
L 359.398431 56.905409 
L 360.484232 55.868544 
L 361.570033 56.386976 
L 362.655835 54.118834 
L 363.741636 54.216041 
L 364.827437 53.568 
L 365.913238 54.021628 
L 366.999039 53.89202 
L 368.08484 54.507659 
L 369.170642 56.386976 
L 370.256443 57.132223 
L 372.428045 57.423841 
L 373.513846 58.493108 
L 374.599647 57.326635 
L 375.685448 58.039479 
L 377.857051 57.488645 
L 378.942852 60.502033 
L 380.028653 60.113209 
L 381.114454 58.590314 
L 382.200255 58.20149 
L 383.286057 56.354574 
L 384.371858 58.428304 
L 385.457659 56.743398 
L 386.54346 60.793652 
L 387.629261 58.52551 
L 388.715062 59.141148 
L 389.800863 58.590314 
L 390.886665 60.275219 
L 391.972466 59.076344 
L 393.058267 57.521047 
L 394.144068 57.132223 
L 395.229869 59.951199 
L 396.31567 58.493108 
L 397.401472 54.831679 
L 398.487273 56.322172 
L 398.487273 56.322172 
" clip-path="url(#p795a586936)" style="fill: none; stroke: #ff7f0e; stroke-width: 1.5; stroke-linecap: square"/>
   </g>
   <g id="line2d_21">
    <path d="M 73.832727 288.802233 
L 76.00433 248.601376 
L 77.090131 234.702024 
L 79.261733 214.344614 
L 80.347534 202.501115 
L 81.433335 193.786088 
L 82.519137 193.115701 
L 83.604938 190.121307 
L 84.690739 185.942563 
L 85.77654 182.903477 
L 86.862341 174.858836 
L 87.948142 172.624213 
L 89.033943 171.752711 
L 90.119745 168.601893 
L 91.205546 166.523694 
L 92.291347 167.015311 
L 93.377148 164.914766 
L 94.462949 164.06561 
L 95.54875 186.814066 
L 96.634552 188.557071 
L 97.720353 178.367193 
L 98.806154 178.322501 
L 99.891955 180.177237 
L 100.977756 181.22751 
L 102.063557 167.372851 
L 103.149358 169.406357 
L 104.23516 170.814169 
L 105.320961 163.372877 
L 106.406762 161.898026 
L 107.492563 159.060055 
L 108.578364 160.624291 
L 109.664165 161.004177 
L 110.749967 155.797507 
L 111.835768 156.199739 
L 114.00737 151.529378 
L 115.093171 150.009835 
L 116.178972 154.523772 
L 117.264773 149.115986 
L 118.350575 150.367374 
L 119.436376 143.752892 
L 120.522177 139.171916 
L 121.607978 141.384192 
L 122.693779 145.00428 
L 123.77958 137.473603 
L 124.865382 138.747338 
L 125.951183 136.691485 
L 127.036984 135.752943 
L 128.122785 135.037864 
L 129.208586 129.518347 
L 131.380189 133.875861 
L 132.46599 132.624472 
L 133.551791 130.38985 
L 134.637592 130.121695 
L 135.723393 130.881467 
L 136.809194 131.462468 
L 137.894995 132.512741 
L 138.980797 153.048921 
L 140.066598 154.791926 
L 141.152399 154.903658 
L 142.2382 151.529378 
L 143.324001 151.037761 
L 144.409802 154.613157 
L 145.495604 149.942796 
L 146.581405 147.171864 
L 147.667206 151.797532 
L 148.753007 142.255695 
L 149.838808 151.082453 
L 150.924609 145.674667 
L 152.01041 143.931662 
L 153.096212 146.456785 
L 154.182013 139.842302 
L 155.267814 143.752892 
L 156.353615 140.870229 
L 157.439416 142.367426 
L 158.525217 138.635606 
L 159.611019 141.473577 
L 160.69682 138.9708 
L 161.782621 138.747338 
L 162.868422 137.741757 
L 163.954223 141.585308 
L 165.040024 134.725017 
L 166.125825 135.641212 
L 167.211627 133.540667 
L 168.297428 133.428936 
L 169.383229 134.836748 
L 170.46903 129.071422 
L 171.554831 129.898233 
L 172.640632 133.741783 
L 173.726434 128.423382 
L 174.812235 128.535113 
L 175.898036 131.708277 
L 176.983837 127.887073 
L 178.069638 127.775341 
L 179.155439 125.317257 
L 180.24124 125.898259 
L 181.327042 127.820034 
L 182.412843 126.054682 
L 183.498644 123.864752 
L 184.584445 122.211132 
L 185.670246 122.45694 
L 186.756047 124.088214 
L 187.841849 123.104981 
L 188.92765 120.870358 
L 190.013451 119.4402 
L 191.099252 120.557511 
L 192.185053 118.501658 
L 193.270854 116.870384 
L 194.356656 119.842432 
L 195.442457 115.462572 
L 196.528258 114.725146 
L 197.614059 117.227924 
L 198.69986 113.987721 
L 199.785661 114.121798 
L 200.871462 116.267036 
L 201.957264 110.769865 
L 203.043065 112.3341 
L 204.128866 111.753099 
L 205.214667 112.088292 
L 206.300468 111.641368 
L 207.386269 113.294988 
L 208.472071 110.926288 
L 209.557872 109.630207 
L 210.643673 109.250322 
L 211.729474 109.250322 
L 212.815275 109.6749 
L 213.901076 108.825743 
L 214.986877 109.250322 
L 216.072679 108.848089 
L 217.15848 108.021279 
L 218.244281 107.775471 
L 219.330082 107.350892 
L 220.415883 107.753125 
L 221.501684 108.378819 
L 222.587486 107.976587 
L 223.673287 108.177703 
L 224.759088 106.859276 
L 225.844889 143.261275 
L 226.93069 138.43449 
L 228.016491 138.747338 
L 229.102292 141.004306 
L 230.188094 137.875835 
L 231.273895 141.317153 
L 232.359696 137.071371 
L 233.445497 142.367426 
L 234.531298 135.395404 
L 235.617099 134.657978 
L 236.702901 136.803216 
L 237.788702 139.708225 
L 238.874503 132.40101 
L 239.960304 131.685931 
L 241.046105 131.976432 
L 242.131906 133.786476 
L 243.217708 131.752969 
L 244.303509 133.495975 
L 245.38931 133.116089 
L 246.475111 133.026704 
L 247.560912 129.451308 
L 248.646713 131.149621 
L 249.732514 124.490446 
L 250.818316 134.278093 
L 251.904117 132.088163 
L 252.989918 129.361923 
L 254.075719 133.116089 
L 255.16152 130.747389 
L 256.247321 132.065816 
L 257.333123 127.417802 
L 258.418924 133.58536 
L 259.504725 126.032336 
L 261.676327 139.708225 
L 262.762128 122.948557 
L 264.933731 129.920579 
L 266.019532 125.920605 
L 267.105333 132.065816 
L 268.191134 122.680402 
L 269.276935 124.669216 
L 270.362736 129.272538 
L 271.448538 130.568619 
L 272.534339 124.892678 
L 273.62014 129.473654 
L 274.705941 123.730675 
L 275.791742 125.071448 
L 276.877543 122.680402 
L 277.963344 123.328443 
L 279.049146 126.456914 
L 280.134947 121.205551 
L 281.220748 121.27259 
L 282.306549 126.568645 
L 283.39235 122.613364 
L 284.478151 123.172019 
L 285.563953 118.747467 
L 286.649754 122.591017 
L 287.735555 119.820086 
L 288.821356 124.669216 
L 289.907157 120.311703 
L 290.992958 123.440174 
L 292.07876 115.551957 
L 293.164561 119.194391 
L 294.250362 118.970929 
L 295.336163 117.965349 
L 296.421964 122.792133 
L 297.507765 119.484892 
L 298.593566 120.490472 
L 299.679368 118.926237 
L 300.765169 117.920657 
L 301.85097 123.708329 
L 302.936771 116.669268 
L 304.022572 121.27259 
L 305.108373 115.797765 
L 306.194175 117.227924 
L 307.279976 116.222343 
L 308.365777 114.680454 
L 309.451578 119.149699 
L 310.537379 116.848038 
L 311.62318 112.669294 
L 312.708981 109.741938 
L 313.794783 109.898362 
L 314.880584 110.903942 
L 315.966385 117.987695 
L 317.052186 111.350867 
L 318.137987 113.339681 
L 319.223788 111.239135 
L 320.30959 112.892756 
L 321.395391 116.356421 
L 322.481192 109.786631 
L 323.566993 109.786631 
L 324.652794 114.568723 
L 325.738595 107.440277 
L 326.824396 111.954215 
L 327.910198 115.082686 
L 328.995999 108.155357 
L 330.0818 109.786631 
L 331.167601 106.390005 
L 332.253402 108.66932 
L 333.339203 110.434671 
L 334.425005 108.758705 
L 335.510806 108.602281 
L 336.596607 105.741964 
L 337.682408 110.814557 
L 338.768209 107.887202 
L 339.85401 108.401165 
L 340.939811 109.049206 
L 342.025613 105.317386 
L 343.111414 108.378819 
L 344.197215 104.28946 
L 345.283016 105.362079 
L 346.368817 104.781077 
L 347.454618 105.674926 
L 348.54042 104.155382 
L 349.626221 104.378845 
L 350.712022 103.417957 
L 351.797823 100.937526 
L 352.883624 101.943106 
L 353.969425 101.071603 
L 355.055227 101.697298 
L 356.141028 100.870487 
L 357.226829 100.982219 
L 358.31263 98.658211 
L 359.398431 100.133062 
L 361.570033 98.72525 
L 362.655835 100.714064 
L 363.741636 100.55764 
L 364.827437 97.831401 
L 365.913238 97.138668 
L 366.999039 98.054863 
L 368.08484 95.574432 
L 369.170642 98.479441 
L 370.256443 98.658211 
L 371.342244 99.507368 
L 372.428045 100.624679 
L 373.513846 100.758756 
L 374.599647 106.278274 
L 375.685448 102.769916 
L 376.77125 104.356498 
L 377.857051 101.585567 
L 378.942852 104.490576 
L 380.028653 106.591121 
L 381.114454 103.507342 
L 382.200255 101.406797 
L 383.286057 99.887254 
L 384.371858 101.518528 
L 385.457659 102.479416 
L 386.54346 107.105084 
L 387.629261 101.697298 
L 388.715062 101.205681 
L 389.800863 102.769916 
L 390.886665 105.183309 
L 391.972466 103.015725 
L 393.058267 102.948686 
L 394.144068 100.311832 
L 395.229869 104.982193 
L 396.31567 102.680532 
L 397.401472 101.652605 
L 398.487273 100.937526 
L 398.487273 100.937526 
" clip-path="url(#p795a586936)" style="fill: none; stroke: #2ca02c; stroke-width: 1.5; stroke-linecap: square"/>
   </g>
   <g id="line2d_22">
    <path d="M 368.08484 54.151236 
L 369.170642 55.836142 
L 370.256443 54.151236 
L 371.342244 54.993689 
L 372.428045 55.220503 
L 373.513846 57.423841 
L 374.599647 57.650655 
L 375.685448 55.252905 
L 376.77125 57.845067 
L 377.857051 61.830516 
L 378.942852 57.812665 
L 380.028653 58.914334 
L 381.114454 57.294233 
L 382.200255 59.432767 
L 383.286057 59.951199 
L 384.371858 61.927722 
L 385.457659 61.24728 
L 386.54346 61.830516 
L 387.629261 60.955662 
L 388.715062 60.566837 
L 389.800863 59.238354 
L 390.886665 61.960125 
L 391.972466 61.40929 
L 393.058267 59.270756 
L 394.144068 64.681895 
L 395.229869 65.362337 
L 396.31567 62.413753 
L 397.401472 63.774638 
L 398.487273 63.936648 
L 398.487273 63.936648 
" clip-path="url(#p795a586936)" style="fill: none; stroke: #d62728; stroke-width: 1.5; stroke-linecap: square"/>
   </g>
   <g id="line2d_23">
    <path d="M 368.08484 97.339784 
L 369.170642 96.155434 
L 370.256443 96.021357 
L 371.342244 96.915206 
L 372.428045 102.322992 
L 373.513846 102.077184 
L 374.599647 98.814635 
L 375.685448 100.244793 
L 376.77125 105.093924 
L 377.857051 103.350918 
L 378.942852 103.28388 
L 380.028653 101.250373 
L 381.114454 100.870487 
L 382.200255 101.853721 
L 383.286057 101.56322 
L 384.371858 108.401165 
L 385.457659 104.200075 
L 386.54346 102.903994 
L 387.629261 106.412351 
L 388.715062 107.417931 
L 389.800863 104.378845 
L 390.886665 104.892808 
L 391.972466 107.060392 
L 393.058267 104.691692 
L 394.144068 109.160937 
L 395.229869 109.920708 
L 396.31567 107.66374 
L 397.401472 114.300568 
L 398.487273 106.166543 
L 398.487273 106.166543 
" clip-path="url(#p795a586936)" style="fill: none; stroke: #9467bd; stroke-width: 1.5; stroke-linecap: square"/>
   </g>
   <g id="patch_3">
    <path d="M 57.6 307.584 
L 57.6 41.472 
" style="fill: none; stroke: #000000; stroke-width: 0.8; stroke-linejoin: miter; stroke-linecap: square"/>
   </g>
   <g id="patch_4">
    <path d="M 414.72 307.584 
L 414.72 41.472 
" style="fill: none; stroke: #000000; stroke-width: 0.8; stroke-linejoin: miter; stroke-linecap: square"/>
   </g>
   <g id="patch_5">
    <path d="M 57.6 307.584 
L 414.72 307.584 
" style="fill: none; stroke: #000000; stroke-width: 0.8; stroke-linejoin: miter; stroke-linecap: square"/>
   </g>
   <g id="patch_6">
    <path d="M 57.6 41.472 
L 414.72 41.472 
" style="fill: none; stroke: #000000; stroke-width: 0.8; stroke-linejoin: miter; stroke-linecap: square"/>
   </g>
   <g id="text_21">
    <!-- Learning Curves -->
    <g transform="translate(187.37625 35.472) scale(0.12 -0.12)">
     <defs>
      <path id="DejaVuSans-4c" d="M 628 4666 
L 1259 4666 
L 1259 531 
L 3531 531 
L 3531 0 
L 628 0 
L 628 4666 
z
" transform="scale(0.015625)"/>
      <path id="DejaVuSans-65" d="M 3597 1894 
L 3597 1613 
L 953 1613 
Q 991 1019 1311 708 
Q 1631 397 2203 397 
Q 2534 397 2845 478 
Q 3156 559 3463 722 
L 3463 178 
Q 3153 47 2828 -22 
Q 2503 -91 2169 -91 
Q 1331 -91 842 396 
Q 353 884 353 1716 
Q 353 2575 817 3079 
Q 1281 3584 2069 3584 
Q 2775 3584 3186 3129 
Q 3597 2675 3597 1894 
z
M 3022 2063 
Q 3016 2534 2758 2815 
Q 2500 3097 2075 3097 
Q 1594 3097 1305 2825 
Q 1016 2553 972 2059 
L 3022 2063 
z
" transform="scale(0.015625)"/>
      <path id="DejaVuSans-6e" d="M 3513 2113 
L 3513 0 
L 2938 0 
L 2938 2094 
Q 2938 2591 2744 2837 
Q 2550 3084 2163 3084 
Q 1697 3084 1428 2787 
Q 1159 2491 1159 1978 
L 1159 0 
L 581 0 
L 581 3500 
L 1159 3500 
L 1159 2956 
Q 1366 3272 1645 3428 
Q 1925 3584 2291 3584 
Q 2894 3584 3203 3211 
Q 3513 2838 3513 2113 
z
" transform="scale(0.015625)"/>
      <path id="DejaVuSans-69" d="M 603 3500 
L 1178 3500 
L 1178 0 
L 603 0 
L 603 3500 
z
M 603 4863 
L 1178 4863 
L 1178 4134 
L 603 4134 
L 603 4863 
z
" transform="scale(0.015625)"/>
      <path id="DejaVuSans-67" d="M 2906 1791 
Q 2906 2416 2648 2759 
Q 2391 3103 1925 3103 
Q 1463 3103 1205 2759 
Q 947 2416 947 1791 
Q 947 1169 1205 825 
Q 1463 481 1925 481 
Q 2391 481 2648 825 
Q 2906 1169 2906 1791 
z
M 3481 434 
Q 3481 -459 3084 -895 
Q 2688 -1331 1869 -1331 
Q 1566 -1331 1297 -1286 
Q 1028 -1241 775 -1147 
L 775 -588 
Q 1028 -725 1275 -790 
Q 1522 -856 1778 -856 
Q 2344 -856 2625 -561 
Q 2906 -266 2906 331 
L 2906 616 
Q 2728 306 2450 153 
Q 2172 0 1784 0 
Q 1141 0 747 490 
Q 353 981 353 1791 
Q 353 2603 747 3093 
Q 1141 3584 1784 3584 
Q 2172 3584 2450 3431 
Q 2728 3278 2906 2969 
L 2906 3500 
L 3481 3500 
L 3481 434 
z
" transform="scale(0.015625)"/>
      <path id="DejaVuSans-20" transform="scale(0.015625)"/>
      <path id="DejaVuSans-43" d="M 4122 4306 
L 4122 3641 
Q 3803 3938 3442 4084 
Q 3081 4231 2675 4231 
Q 1875 4231 1450 3742 
Q 1025 3253 1025 2328 
Q 1025 1406 1450 917 
Q 1875 428 2675 428 
Q 3081 428 3442 575 
Q 3803 722 4122 1019 
L 4122 359 
Q 3791 134 3420 21 
Q 3050 -91 2638 -91 
Q 1578 -91 968 557 
Q 359 1206 359 2328 
Q 359 3453 968 4101 
Q 1578 4750 2638 4750 
Q 3056 4750 3426 4639 
Q 3797 4528 4122 4306 
z
" transform="scale(0.015625)"/>
      <path id="DejaVuSans-76" d="M 191 3500 
L 800 3500 
L 1894 563 
L 2988 3500 
L 3597 3500 
L 2284 0 
L 1503 0 
L 191 3500 
z
" transform="scale(0.015625)"/>
     </defs>
     <use xlink:href="#DejaVuSans-4c"/>
     <use xlink:href="#DejaVuSans-65" x="53.962891"/>
     <use xlink:href="#DejaVuSans-61" x="115.486328"/>
     <use xlink:href="#DejaVuSans-72" x="176.765625"/>
     <use xlink:href="#DejaVuSans-6e" x="216.128906"/>
     <use xlink:href="#DejaVuSans-69" x="279.507812"/>
     <use xlink:href="#DejaVuSans-6e" x="307.291016"/>
     <use xlink:href="#DejaVuSans-67" x="370.669922"/>
     <use xlink:href="#DejaVuSans-20" x="434.146484"/>
     <use xlink:href="#DejaVuSans-43" x="465.933594"/>
     <use xlink:href="#DejaVuSans-75" x="535.757812"/>
     <use xlink:href="#DejaVuSans-72" x="599.136719"/>
     <use xlink:href="#DejaVuSans-76" x="640.25"/>
     <use xlink:href="#DejaVuSans-65" x="699.429688"/>
     <use xlink:href="#DejaVuSans-73" x="760.953125"/>
    </g>
   </g>
   <g id="legend_1">
    <g id="patch_7">
     <path d="M 214.18875 302.584 
L 407.72 302.584 
Q 409.72 302.584 409.72 300.584 
L 409.72 228.193375 
Q 409.72 226.193375 407.72 226.193375 
L 214.18875 226.193375 
Q 212.18875 226.193375 212.18875 228.193375 
L 212.18875 300.584 
Q 212.18875 302.584 214.18875 302.584 
z
" style="fill: #ffffff; opacity: 0.8; stroke: #cccccc; stroke-linejoin: miter"/>
    </g>
    <g id="line2d_24">
     <path d="M 216.18875 234.291812 
L 226.18875 234.291812 
L 236.18875 234.291812 
" style="fill: none; stroke: #1f77b4; stroke-width: 1.5; stroke-linecap: square"/>
    </g>
    <g id="text_22">
     <!-- Train Accuracy -->
     <g transform="translate(244.18875 237.791812) scale(0.1 -0.1)">
      <defs>
       <path id="DejaVuSans-54" d="M -19 4666 
L 3928 4666 
L 3928 4134 
L 2272 4134 
L 2272 0 
L 1638 0 
L 1638 4134 
L -19 4134 
L -19 4666 
z
" transform="scale(0.015625)"/>
      </defs>
      <use xlink:href="#DejaVuSans-54"/>
      <use xlink:href="#DejaVuSans-72" x="46.333984"/>
      <use xlink:href="#DejaVuSans-61" x="87.447266"/>
      <use xlink:href="#DejaVuSans-69" x="148.726562"/>
      <use xlink:href="#DejaVuSans-6e" x="176.509766"/>
      <use xlink:href="#DejaVuSans-20" x="239.888672"/>
      <use xlink:href="#DejaVuSans-41" x="271.675781"/>
      <use xlink:href="#DejaVuSans-63" x="338.333984"/>
      <use xlink:href="#DejaVuSans-63" x="393.314453"/>
      <use xlink:href="#DejaVuSans-75" x="448.294922"/>
      <use xlink:href="#DejaVuSans-72" x="511.673828"/>
      <use xlink:href="#DejaVuSans-61" x="552.787109"/>
      <use xlink:href="#DejaVuSans-63" x="614.066406"/>
      <use xlink:href="#DejaVuSans-79" x="669.046875"/>
     </g>
    </g>
    <g id="line2d_25">
     <path d="M 216.18875 248.969937 
L 226.18875 248.969937 
L 236.18875 248.969937 
" style="fill: none; stroke: #ff7f0e; stroke-width: 1.5; stroke-linecap: square"/>
    </g>
    <g id="text_23">
     <!-- Validation Accuracy -->
     <g transform="translate(244.18875 252.469937) scale(0.1 -0.1)">
      <defs>
       <path id="DejaVuSans-56" d="M 1831 0 
L 50 4666 
L 709 4666 
L 2188 738 
L 3669 4666 
L 4325 4666 
L 2547 0 
L 1831 0 
z
" transform="scale(0.015625)"/>
       <path id="DejaVuSans-6c" d="M 603 4863 
L 1178 4863 
L 1178 0 
L 603 0 
L 603 4863 
z
" transform="scale(0.015625)"/>
       <path id="DejaVuSans-64" d="M 2906 2969 
L 2906 4863 
L 3481 4863 
L 3481 0 
L 2906 0 
L 2906 525 
Q 2725 213 2448 61 
Q 2172 -91 1784 -91 
Q 1150 -91 751 415 
Q 353 922 353 1747 
Q 353 2572 751 3078 
Q 1150 3584 1784 3584 
Q 2172 3584 2448 3432 
Q 2725 3281 2906 2969 
z
M 947 1747 
Q 947 1113 1208 752 
Q 1469 391 1925 391 
Q 2381 391 2643 752 
Q 2906 1113 2906 1747 
Q 2906 2381 2643 2742 
Q 2381 3103 1925 3103 
Q 1469 3103 1208 2742 
Q 947 2381 947 1747 
z
" transform="scale(0.015625)"/>
       <path id="DejaVuSans-74" d="M 1172 4494 
L 1172 3500 
L 2356 3500 
L 2356 3053 
L 1172 3053 
L 1172 1153 
Q 1172 725 1289 603 
Q 1406 481 1766 481 
L 2356 481 
L 2356 0 
L 1766 0 
Q 1100 0 847 248 
Q 594 497 594 1153 
L 594 3053 
L 172 3053 
L 172 3500 
L 594 3500 
L 594 4494 
L 1172 4494 
z
" transform="scale(0.015625)"/>
      </defs>
      <use xlink:href="#DejaVuSans-56"/>
      <use xlink:href="#DejaVuSans-61" x="60.658203"/>
      <use xlink:href="#DejaVuSans-6c" x="121.9375"/>
      <use xlink:href="#DejaVuSans-69" x="149.720703"/>
      <use xlink:href="#DejaVuSans-64" x="177.503906"/>
      <use xlink:href="#DejaVuSans-61" x="240.980469"/>
      <use xlink:href="#DejaVuSans-74" x="302.259766"/>
      <use xlink:href="#DejaVuSans-69" x="341.46875"/>
      <use xlink:href="#DejaVuSans-6f" x="369.251953"/>
      <use xlink:href="#DejaVuSans-6e" x="430.433594"/>
      <use xlink:href="#DejaVuSans-20" x="493.8125"/>
      <use xlink:href="#DejaVuSans-41" x="525.599609"/>
      <use xlink:href="#DejaVuSans-63" x="592.257812"/>
      <use xlink:href="#DejaVuSans-63" x="647.238281"/>
      <use xlink:href="#DejaVuSans-75" x="702.21875"/>
      <use xlink:href="#DejaVuSans-72" x="765.597656"/>
      <use xlink:href="#DejaVuSans-61" x="806.710938"/>
      <use xlink:href="#DejaVuSans-63" x="867.990234"/>
      <use xlink:href="#DejaVuSans-79" x="922.970703"/>
     </g>
    </g>
    <g id="line2d_26">
     <path d="M 216.18875 263.648062 
L 226.18875 263.648062 
L 236.18875 263.648062 
" style="fill: none; stroke: #2ca02c; stroke-width: 1.5; stroke-linecap: square"/>
    </g>
    <g id="text_24">
     <!-- Robust Validation Accuracy -->
     <g transform="translate(244.18875 267.148062) scale(0.1 -0.1)">
      <defs>
       <path id="DejaVuSans-52" d="M 2841 2188 
Q 3044 2119 3236 1894 
Q 3428 1669 3622 1275 
L 4263 0 
L 3584 0 
L 2988 1197 
Q 2756 1666 2539 1819 
Q 2322 1972 1947 1972 
L 1259 1972 
L 1259 0 
L 628 0 
L 628 4666 
L 2053 4666 
Q 2853 4666 3247 4331 
Q 3641 3997 3641 3322 
Q 3641 2881 3436 2590 
Q 3231 2300 2841 2188 
z
M 1259 4147 
L 1259 2491 
L 2053 2491 
Q 2509 2491 2742 2702 
Q 2975 2913 2975 3322 
Q 2975 3731 2742 3939 
Q 2509 4147 2053 4147 
L 1259 4147 
z
" transform="scale(0.015625)"/>
       <path id="DejaVuSans-62" d="M 3116 1747 
Q 3116 2381 2855 2742 
Q 2594 3103 2138 3103 
Q 1681 3103 1420 2742 
Q 1159 2381 1159 1747 
Q 1159 1113 1420 752 
Q 1681 391 2138 391 
Q 2594 391 2855 752 
Q 3116 1113 3116 1747 
z
M 1159 2969 
Q 1341 3281 1617 3432 
Q 1894 3584 2278 3584 
Q 2916 3584 3314 3078 
Q 3713 2572 3713 1747 
Q 3713 922 3314 415 
Q 2916 -91 2278 -91 
Q 1894 -91 1617 61 
Q 1341 213 1159 525 
L 1159 0 
L 581 0 
L 581 4863 
L 1159 4863 
L 1159 2969 
z
" transform="scale(0.015625)"/>
      </defs>
      <use xlink:href="#DejaVuSans-52"/>
      <use xlink:href="#DejaVuSans-6f" x="64.982422"/>
      <use xlink:href="#DejaVuSans-62" x="126.164062"/>
      <use xlink:href="#DejaVuSans-75" x="189.640625"/>
      <use xlink:href="#DejaVuSans-73" x="253.019531"/>
      <use xlink:href="#DejaVuSans-74" x="305.119141"/>
      <use xlink:href="#DejaVuSans-20" x="344.328125"/>
      <use xlink:href="#DejaVuSans-56" x="376.115234"/>
      <use xlink:href="#DejaVuSans-61" x="436.773438"/>
      <use xlink:href="#DejaVuSans-6c" x="498.052734"/>
      <use xlink:href="#DejaVuSans-69" x="525.835938"/>
      <use xlink:href="#DejaVuSans-64" x="553.619141"/>
      <use xlink:href="#DejaVuSans-61" x="617.095703"/>
      <use xlink:href="#DejaVuSans-74" x="678.375"/>
      <use xlink:href="#DejaVuSans-69" x="717.583984"/>
      <use xlink:href="#DejaVuSans-6f" x="745.367188"/>
      <use xlink:href="#DejaVuSans-6e" x="806.548828"/>
      <use xlink:href="#DejaVuSans-20" x="869.927734"/>
      <use xlink:href="#DejaVuSans-41" x="901.714844"/>
      <use xlink:href="#DejaVuSans-63" x="968.373047"/>
      <use xlink:href="#DejaVuSans-63" x="1023.353516"/>
      <use xlink:href="#DejaVuSans-75" x="1078.333984"/>
      <use xlink:href="#DejaVuSans-72" x="1141.712891"/>
      <use xlink:href="#DejaVuSans-61" x="1182.826172"/>
      <use xlink:href="#DejaVuSans-63" x="1244.105469"/>
      <use xlink:href="#DejaVuSans-79" x="1299.085938"/>
     </g>
    </g>
    <g id="line2d_27">
     <path d="M 216.18875 278.326188 
L 226.18875 278.326188 
L 236.18875 278.326188 
" style="fill: none; stroke: #d62728; stroke-width: 1.5; stroke-linecap: square"/>
    </g>
    <g id="text_25">
     <!-- SWA Validation Accuracy -->
     <g transform="translate(244.18875 281.826188) scale(0.1 -0.1)">
      <defs>
       <path id="DejaVuSans-53" d="M 3425 4513 
L 3425 3897 
Q 3066 4069 2747 4153 
Q 2428 4238 2131 4238 
Q 1616 4238 1336 4038 
Q 1056 3838 1056 3469 
Q 1056 3159 1242 3001 
Q 1428 2844 1947 2747 
L 2328 2669 
Q 3034 2534 3370 2195 
Q 3706 1856 3706 1288 
Q 3706 609 3251 259 
Q 2797 -91 1919 -91 
Q 1588 -91 1214 -16 
Q 841 59 441 206 
L 441 856 
Q 825 641 1194 531 
Q 1563 422 1919 422 
Q 2459 422 2753 634 
Q 3047 847 3047 1241 
Q 3047 1584 2836 1778 
Q 2625 1972 2144 2069 
L 1759 2144 
Q 1053 2284 737 2584 
Q 422 2884 422 3419 
Q 422 4038 858 4394 
Q 1294 4750 2059 4750 
Q 2388 4750 2728 4690 
Q 3069 4631 3425 4513 
z
" transform="scale(0.015625)"/>
       <path id="DejaVuSans-57" d="M 213 4666 
L 850 4666 
L 1831 722 
L 2809 4666 
L 3519 4666 
L 4500 722 
L 5478 4666 
L 6119 4666 
L 4947 0 
L 4153 0 
L 3169 4050 
L 2175 0 
L 1381 0 
L 213 4666 
z
" transform="scale(0.015625)"/>
      </defs>
      <use xlink:href="#DejaVuSans-53"/>
      <use xlink:href="#DejaVuSans-57" x="63.476562"/>
      <use xlink:href="#DejaVuSans-41" x="156.853516"/>
      <use xlink:href="#DejaVuSans-20" x="225.261719"/>
      <use xlink:href="#DejaVuSans-56" x="257.048828"/>
      <use xlink:href="#DejaVuSans-61" x="317.707031"/>
      <use xlink:href="#DejaVuSans-6c" x="378.986328"/>
      <use xlink:href="#DejaVuSans-69" x="406.769531"/>
      <use xlink:href="#DejaVuSans-64" x="434.552734"/>
      <use xlink:href="#DejaVuSans-61" x="498.029297"/>
      <use xlink:href="#DejaVuSans-74" x="559.308594"/>
      <use xlink:href="#DejaVuSans-69" x="598.517578"/>
      <use xlink:href="#DejaVuSans-6f" x="626.300781"/>
      <use xlink:href="#DejaVuSans-6e" x="687.482422"/>
      <use xlink:href="#DejaVuSans-20" x="750.861328"/>
      <use xlink:href="#DejaVuSans-41" x="782.648438"/>
      <use xlink:href="#DejaVuSans-63" x="849.306641"/>
      <use xlink:href="#DejaVuSans-63" x="904.287109"/>
      <use xlink:href="#DejaVuSans-75" x="959.267578"/>
      <use xlink:href="#DejaVuSans-72" x="1022.646484"/>
      <use xlink:href="#DejaVuSans-61" x="1063.759766"/>
      <use xlink:href="#DejaVuSans-63" x="1125.039062"/>
      <use xlink:href="#DejaVuSans-79" x="1180.019531"/>
     </g>
    </g>
    <g id="line2d_28">
     <path d="M 216.18875 293.004312 
L 226.18875 293.004312 
L 236.18875 293.004312 
" style="fill: none; stroke: #9467bd; stroke-width: 1.5; stroke-linecap: square"/>
    </g>
    <g id="text_26">
     <!-- SWA Robust Validation Accuracy -->
     <g transform="translate(244.18875 296.504312) scale(0.1 -0.1)">
      <use xlink:href="#DejaVuSans-53"/>
      <use xlink:href="#DejaVuSans-57" x="63.476562"/>
      <use xlink:href="#DejaVuSans-41" x="156.853516"/>
      <use xlink:href="#DejaVuSans-20" x="225.261719"/>
      <use xlink:href="#DejaVuSans-52" x="257.048828"/>
      <use xlink:href="#DejaVuSans-6f" x="322.03125"/>
      <use xlink:href="#DejaVuSans-62" x="383.212891"/>
      <use xlink:href="#DejaVuSans-75" x="446.689453"/>
      <use xlink:href="#DejaVuSans-73" x="510.068359"/>
      <use xlink:href="#DejaVuSans-74" x="562.167969"/>
      <use xlink:href="#DejaVuSans-20" x="601.376953"/>
      <use xlink:href="#DejaVuSans-56" x="633.164062"/>
      <use xlink:href="#DejaVuSans-61" x="693.822266"/>
      <use xlink:href="#DejaVuSans-6c" x="755.101562"/>
      <use xlink:href="#DejaVuSans-69" x="782.884766"/>
      <use xlink:href="#DejaVuSans-64" x="810.667969"/>
      <use xlink:href="#DejaVuSans-61" x="874.144531"/>
      <use xlink:href="#DejaVuSans-74" x="935.423828"/>
      <use xlink:href="#DejaVuSans-69" x="974.632812"/>
      <use xlink:href="#DejaVuSans-6f" x="1002.416016"/>
      <use xlink:href="#DejaVuSans-6e" x="1063.597656"/>
      <use xlink:href="#DejaVuSans-20" x="1126.976562"/>
      <use xlink:href="#DejaVuSans-41" x="1158.763672"/>
      <use xlink:href="#DejaVuSans-63" x="1225.421875"/>
      <use xlink:href="#DejaVuSans-63" x="1280.402344"/>
      <use xlink:href="#DejaVuSans-75" x="1335.382812"/>
      <use xlink:href="#DejaVuSans-72" x="1398.761719"/>
      <use xlink:href="#DejaVuSans-61" x="1439.875"/>
      <use xlink:href="#DejaVuSans-63" x="1501.154297"/>
      <use xlink:href="#DejaVuSans-79" x="1556.134766"/>
     </g>
    </g>
   </g>
  </g>
 </g>
 <defs>
  <clipPath id="p795a586936">
   <rect x="57.6" y="41.472" width="357.12" height="266.112"/>
  </clipPath>
 </defs>
</svg>
