<?xml version="1.0" encoding="utf-8" standalone="no"?>
<!DOCTYPE svg PUBLIC "-//W3C//DTD SVG 1.1//EN"
  "http://www.w3.org/Graphics/SVG/1.1/DTD/svg11.dtd">
<svg xmlns:xlink="http://www.w3.org/1999/xlink" width="460.8pt" height="345.6pt" viewBox="0 0 460.8 345.6" xmlns="http://www.w3.org/2000/svg" version="1.1">
 <metadata>
  <rdf:RDF xmlns:dc="http://purl.org/dc/elements/1.1/" xmlns:cc="http://creativecommons.org/ns#" xmlns:rdf="http://www.w3.org/1999/02/22-rdf-syntax-ns#">
   <cc:Work>
    <dc:type rdf:resource="http://purl.org/dc/dcmitype/StillImage"/>
    <dc:date>2025-07-12T05:52:37.229373</dc:date>
    <dc:format>image/svg+xml</dc:format>
    <dc:creator>
     <cc:Agent>
      <dc:title>Matplotlib v3.9.1, https://matplotlib.org/</dc:title>
     </cc:Agent>
    </dc:creator>
   </cc:Work>
  </rdf:RDF>
 </metadata>
 <defs>
  <style type="text/css">*{stroke-linejoin: round; stroke-linecap: butt}</style>
 </defs>
 <g id="figure_1">
  <g id="patch_1">
   <path d="M 0 345.6 
L 460.8 345.6 
L 460.8 0 
L 0 0 
z
" style="fill: #ffffff"/>
  </g>
  <g id="axes_1">
   <g id="patch_2">
    <path d="M 57.6 307.584 
L 414.72 307.584 
L 414.72 41.472 
L 57.6 41.472 
z
" style="fill: #ffffff"/>
   </g>
   <g id="matplotlib.axis_1">
    <g id="xtick_1">
     <g id="line2d_1">
      <defs>
       <path id="md769b92d2d" d="M 0 0 
L 0 3.5 
" style="stroke: #000000; stroke-width: 0.8"/>
      </defs>
      <g>
       <use xlink:href="#md769b92d2d" x="73.832727" y="307.584" style="stroke: #000000; stroke-width: 0.8"/>
      </g>
     </g>
     <g id="text_1">
      <!-- 1 -->
      <g transform="translate(70.651477 322.182437) scale(0.1 -0.1)">
       <defs>
        <path id="DejaVuSans-31" d="M 794 531 
L 1825 531 
L 1825 4091 
L 703 3866 
L 703 4441 
L 1819 4666 
L 2450 4666 
L 2450 531 
L 3481 531 
L 3481 0 
L 794 0 
L 794 531 
z
" transform="scale(0.015625)"/>
       </defs>
       <use xlink:href="#DejaVuSans-31"/>
      </g>
     </g>
    </g>
    <g id="xtick_2">
     <g id="line2d_2">
      <g>
       <use xlink:href="#md769b92d2d" x="109.664165" y="307.584" style="stroke: #000000; stroke-width: 0.8"/>
      </g>
     </g>
     <g id="text_2">
      <!-- 34 -->
      <g transform="translate(103.301665 322.182437) scale(0.1 -0.1)">
       <defs>
        <path id="DejaVuSans-33" d="M 2597 2516 
Q 3050 2419 3304 2112 
Q 3559 1806 3559 1356 
Q 3559 666 3084 287 
Q 2609 -91 1734 -91 
Q 1441 -91 1130 -33 
Q 819 25 488 141 
L 488 750 
Q 750 597 1062 519 
Q 1375 441 1716 441 
Q 2309 441 2620 675 
Q 2931 909 2931 1356 
Q 2931 1769 2642 2001 
Q 2353 2234 1838 2234 
L 1294 2234 
L 1294 2753 
L 1863 2753 
Q 2328 2753 2575 2939 
Q 2822 3125 2822 3475 
Q 2822 3834 2567 4026 
Q 2313 4219 1838 4219 
Q 1578 4219 1281 4162 
Q 984 4106 628 3988 
L 628 4550 
Q 988 4650 1302 4700 
Q 1616 4750 1894 4750 
Q 2613 4750 3031 4423 
Q 3450 4097 3450 3541 
Q 3450 3153 3228 2886 
Q 3006 2619 2597 2516 
z
" transform="scale(0.015625)"/>
        <path id="DejaVuSans-34" d="M 2419 4116 
L 825 1625 
L 2419 1625 
L 2419 4116 
z
M 2253 4666 
L 3047 4666 
L 3047 1625 
L 3713 1625 
L 3713 1100 
L 3047 1100 
L 3047 0 
L 2419 0 
L 2419 1100 
L 313 1100 
L 313 1709 
L 2253 4666 
z
" transform="scale(0.015625)"/>
       </defs>
       <use xlink:href="#DejaVuSans-33"/>
       <use xlink:href="#DejaVuSans-34" x="63.623047"/>
      </g>
     </g>
    </g>
    <g id="xtick_3">
     <g id="line2d_3">
      <g>
       <use xlink:href="#md769b92d2d" x="145.495604" y="307.584" style="stroke: #000000; stroke-width: 0.8"/>
      </g>
     </g>
     <g id="text_3">
      <!-- 67 -->
      <g transform="translate(139.133104 322.182437) scale(0.1 -0.1)">
       <defs>
        <path id="DejaVuSans-36" d="M 2113 2584 
Q 1688 2584 1439 2293 
Q 1191 2003 1191 1497 
Q 1191 994 1439 701 
Q 1688 409 2113 409 
Q 2538 409 2786 701 
Q 3034 994 3034 1497 
Q 3034 2003 2786 2293 
Q 2538 2584 2113 2584 
z
M 3366 4563 
L 3366 3988 
Q 3128 4100 2886 4159 
Q 2644 4219 2406 4219 
Q 1781 4219 1451 3797 
Q 1122 3375 1075 2522 
Q 1259 2794 1537 2939 
Q 1816 3084 2150 3084 
Q 2853 3084 3261 2657 
Q 3669 2231 3669 1497 
Q 3669 778 3244 343 
Q 2819 -91 2113 -91 
Q 1303 -91 875 529 
Q 447 1150 447 2328 
Q 447 3434 972 4092 
Q 1497 4750 2381 4750 
Q 2619 4750 2861 4703 
Q 3103 4656 3366 4563 
z
" transform="scale(0.015625)"/>
        <path id="DejaVuSans-37" d="M 525 4666 
L 3525 4666 
L 3525 4397 
L 1831 0 
L 1172 0 
L 2766 4134 
L 525 4134 
L 525 4666 
z
" transform="scale(0.015625)"/>
       </defs>
       <use xlink:href="#DejaVuSans-36"/>
       <use xlink:href="#DejaVuSans-37" x="63.623047"/>
      </g>
     </g>
    </g>
    <g id="xtick_4">
     <g id="line2d_4">
      <g>
       <use xlink:href="#md769b92d2d" x="181.327042" y="307.584" style="stroke: #000000; stroke-width: 0.8"/>
      </g>
     </g>
     <g id="text_4">
      <!-- 100 -->
      <g transform="translate(171.783292 322.182437) scale(0.1 -0.1)">
       <defs>
        <path id="DejaVuSans-30" d="M 2034 4250 
Q 1547 4250 1301 3770 
Q 1056 3291 1056 2328 
Q 1056 1369 1301 889 
Q 1547 409 2034 409 
Q 2525 409 2770 889 
Q 3016 1369 3016 2328 
Q 3016 3291 2770 3770 
Q 2525 4250 2034 4250 
z
M 2034 4750 
Q 2819 4750 3233 4129 
Q 3647 3509 3647 2328 
Q 3647 1150 3233 529 
Q 2819 -91 2034 -91 
Q 1250 -91 836 529 
Q 422 1150 422 2328 
Q 422 3509 836 4129 
Q 1250 4750 2034 4750 
z
" transform="scale(0.015625)"/>
       </defs>
       <use xlink:href="#DejaVuSans-31"/>
       <use xlink:href="#DejaVuSans-30" x="63.623047"/>
       <use xlink:href="#DejaVuSans-30" x="127.246094"/>
      </g>
     </g>
    </g>
    <g id="xtick_5">
     <g id="line2d_5">
      <g>
       <use xlink:href="#md769b92d2d" x="217.15848" y="307.584" style="stroke: #000000; stroke-width: 0.8"/>
      </g>
     </g>
     <g id="text_5">
      <!-- 133 -->
      <g transform="translate(207.61473 322.182437) scale(0.1 -0.1)">
       <use xlink:href="#DejaVuSans-31"/>
       <use xlink:href="#DejaVuSans-33" x="63.623047"/>
       <use xlink:href="#DejaVuSans-33" x="127.246094"/>
      </g>
     </g>
    </g>
    <g id="xtick_6">
     <g id="line2d_6">
      <g>
       <use xlink:href="#md769b92d2d" x="254.075719" y="307.584" style="stroke: #000000; stroke-width: 0.8"/>
      </g>
     </g>
     <g id="text_6">
      <!-- 167 -->
      <g transform="translate(244.531969 322.182437) scale(0.1 -0.1)">
       <use xlink:href="#DejaVuSans-31"/>
       <use xlink:href="#DejaVuSans-36" x="63.623047"/>
       <use xlink:href="#DejaVuSans-37" x="127.246094"/>
      </g>
     </g>
    </g>
    <g id="xtick_7">
     <g id="line2d_7">
      <g>
       <use xlink:href="#md769b92d2d" x="289.907157" y="307.584" style="stroke: #000000; stroke-width: 0.8"/>
      </g>
     </g>
     <g id="text_7">
      <!-- 200 -->
      <g transform="translate(280.363407 322.182437) scale(0.1 -0.1)">
       <defs>
        <path id="DejaVuSans-32" d="M 1228 531 
L 3431 531 
L 3431 0 
L 469 0 
L 469 531 
Q 828 903 1448 1529 
Q 2069 2156 2228 2338 
Q 2531 2678 2651 2914 
Q 2772 3150 2772 3378 
Q 2772 3750 2511 3984 
Q 2250 4219 1831 4219 
Q 1534 4219 1204 4116 
Q 875 4013 500 3803 
L 500 4441 
Q 881 4594 1212 4672 
Q 1544 4750 1819 4750 
Q 2544 4750 2975 4387 
Q 3406 4025 3406 3419 
Q 3406 3131 3298 2873 
Q 3191 2616 2906 2266 
Q 2828 2175 2409 1742 
Q 1991 1309 1228 531 
z
" transform="scale(0.015625)"/>
       </defs>
       <use xlink:href="#DejaVuSans-32"/>
       <use xlink:href="#DejaVuSans-30" x="63.623047"/>
       <use xlink:href="#DejaVuSans-30" x="127.246094"/>
      </g>
     </g>
    </g>
    <g id="xtick_8">
     <g id="line2d_8">
      <g>
       <use xlink:href="#md769b92d2d" x="325.738595" y="307.584" style="stroke: #000000; stroke-width: 0.8"/>
      </g>
     </g>
     <g id="text_8">
      <!-- 233 -->
      <g transform="translate(316.194845 322.182437) scale(0.1 -0.1)">
       <use xlink:href="#DejaVuSans-32"/>
       <use xlink:href="#DejaVuSans-33" x="63.623047"/>
       <use xlink:href="#DejaVuSans-33" x="127.246094"/>
      </g>
     </g>
    </g>
    <g id="xtick_9">
     <g id="line2d_9">
      <g>
       <use xlink:href="#md769b92d2d" x="361.570033" y="307.584" style="stroke: #000000; stroke-width: 0.8"/>
      </g>
     </g>
     <g id="text_9">
      <!-- 266 -->
      <g transform="translate(352.026283 322.182437) scale(0.1 -0.1)">
       <use xlink:href="#DejaVuSans-32"/>
       <use xlink:href="#DejaVuSans-36" x="63.623047"/>
       <use xlink:href="#DejaVuSans-36" x="127.246094"/>
      </g>
     </g>
    </g>
    <g id="xtick_10">
     <g id="line2d_10">
      <g>
       <use xlink:href="#md769b92d2d" x="398.487273" y="307.584" style="stroke: #000000; stroke-width: 0.8"/>
      </g>
     </g>
     <g id="text_10">
      <!-- 300 -->
      <g transform="translate(388.943523 322.182437) scale(0.1 -0.1)">
       <use xlink:href="#DejaVuSans-33"/>
       <use xlink:href="#DejaVuSans-30" x="63.623047"/>
       <use xlink:href="#DejaVuSans-30" x="127.246094"/>
      </g>
     </g>
    </g>
    <g id="text_11">
     <!-- Epochs -->
     <g transform="translate(218.244375 335.860562) scale(0.1 -0.1)">
      <defs>
       <path id="DejaVuSans-45" d="M 628 4666 
L 3578 4666 
L 3578 4134 
L 1259 4134 
L 1259 2753 
L 3481 2753 
L 3481 2222 
L 1259 2222 
L 1259 531 
L 3634 531 
L 3634 0 
L 628 0 
L 628 4666 
z
" transform="scale(0.015625)"/>
       <path id="DejaVuSans-70" d="M 1159 525 
L 1159 -1331 
L 581 -1331 
L 581 3500 
L 1159 3500 
L 1159 2969 
Q 1341 3281 1617 3432 
Q 1894 3584 2278 3584 
Q 2916 3584 3314 3078 
Q 3713 2572 3713 1747 
Q 3713 922 3314 415 
Q 2916 -91 2278 -91 
Q 1894 -91 1617 61 
Q 1341 213 1159 525 
z
M 3116 1747 
Q 3116 2381 2855 2742 
Q 2594 3103 2138 3103 
Q 1681 3103 1420 2742 
Q 1159 2381 1159 1747 
Q 1159 1113 1420 752 
Q 1681 391 2138 391 
Q 2594 391 2855 752 
Q 3116 1113 3116 1747 
z
" transform="scale(0.015625)"/>
       <path id="DejaVuSans-6f" d="M 1959 3097 
Q 1497 3097 1228 2736 
Q 959 2375 959 1747 
Q 959 1119 1226 758 
Q 1494 397 1959 397 
Q 2419 397 2687 759 
Q 2956 1122 2956 1747 
Q 2956 2369 2687 2733 
Q 2419 3097 1959 3097 
z
M 1959 3584 
Q 2709 3584 3137 3096 
Q 3566 2609 3566 1747 
Q 3566 888 3137 398 
Q 2709 -91 1959 -91 
Q 1206 -91 779 398 
Q 353 888 353 1747 
Q 353 2609 779 3096 
Q 1206 3584 1959 3584 
z
" transform="scale(0.015625)"/>
       <path id="DejaVuSans-63" d="M 3122 3366 
L 3122 2828 
Q 2878 2963 2633 3030 
Q 2388 3097 2138 3097 
Q 1578 3097 1268 2742 
Q 959 2388 959 1747 
Q 959 1106 1268 751 
Q 1578 397 2138 397 
Q 2388 397 2633 464 
Q 2878 531 3122 666 
L 3122 134 
Q 2881 22 2623 -34 
Q 2366 -91 2075 -91 
Q 1284 -91 818 406 
Q 353 903 353 1747 
Q 353 2603 823 3093 
Q 1294 3584 2113 3584 
Q 2378 3584 2631 3529 
Q 2884 3475 3122 3366 
z
" transform="scale(0.015625)"/>
       <path id="DejaVuSans-68" d="M 3513 2113 
L 3513 0 
L 2938 0 
L 2938 2094 
Q 2938 2591 2744 2837 
Q 2550 3084 2163 3084 
Q 1697 3084 1428 2787 
Q 1159 2491 1159 1978 
L 1159 0 
L 581 0 
L 581 4863 
L 1159 4863 
L 1159 2956 
Q 1366 3272 1645 3428 
Q 1925 3584 2291 3584 
Q 2894 3584 3203 3211 
Q 3513 2838 3513 2113 
z
" transform="scale(0.015625)"/>
       <path id="DejaVuSans-73" d="M 2834 3397 
L 2834 2853 
Q 2591 2978 2328 3040 
Q 2066 3103 1784 3103 
Q 1356 3103 1142 2972 
Q 928 2841 928 2578 
Q 928 2378 1081 2264 
Q 1234 2150 1697 2047 
L 1894 2003 
Q 2506 1872 2764 1633 
Q 3022 1394 3022 966 
Q 3022 478 2636 193 
Q 2250 -91 1575 -91 
Q 1294 -91 989 -36 
Q 684 19 347 128 
L 347 722 
Q 666 556 975 473 
Q 1284 391 1588 391 
Q 1994 391 2212 530 
Q 2431 669 2431 922 
Q 2431 1156 2273 1281 
Q 2116 1406 1581 1522 
L 1381 1569 
Q 847 1681 609 1914 
Q 372 2147 372 2553 
Q 372 3047 722 3315 
Q 1072 3584 1716 3584 
Q 2034 3584 2315 3537 
Q 2597 3491 2834 3397 
z
" transform="scale(0.015625)"/>
      </defs>
      <use xlink:href="#DejaVuSans-45"/>
      <use xlink:href="#DejaVuSans-70" x="63.183594"/>
      <use xlink:href="#DejaVuSans-6f" x="126.660156"/>
      <use xlink:href="#DejaVuSans-63" x="187.841797"/>
      <use xlink:href="#DejaVuSans-68" x="242.822266"/>
      <use xlink:href="#DejaVuSans-73" x="306.201172"/>
     </g>
    </g>
   </g>
   <g id="matplotlib.axis_2">
    <g id="ytick_1">
     <g id="line2d_11">
      <defs>
       <path id="mff33aaac48" d="M 0 0 
L -3.5 0 
" style="stroke: #000000; stroke-width: 0.8"/>
      </defs>
      <g>
       <use xlink:href="#mff33aaac48" x="57.6" y="282.754629" style="stroke: #000000; stroke-width: 0.8"/>
      </g>
     </g>
     <g id="text_12">
      <!-- 10 -->
      <g transform="translate(37.875 286.553848) scale(0.1 -0.1)">
       <use xlink:href="#DejaVuSans-31"/>
       <use xlink:href="#DejaVuSans-30" x="63.623047"/>
      </g>
     </g>
    </g>
    <g id="ytick_2">
     <g id="line2d_12">
      <g>
       <use xlink:href="#mff33aaac48" x="57.6" y="251.583162" style="stroke: #000000; stroke-width: 0.8"/>
      </g>
     </g>
     <g id="text_13">
      <!-- 20 -->
      <g transform="translate(37.875 255.38238) scale(0.1 -0.1)">
       <use xlink:href="#DejaVuSans-32"/>
       <use xlink:href="#DejaVuSans-30" x="63.623047"/>
      </g>
     </g>
    </g>
    <g id="ytick_3">
     <g id="line2d_13">
      <g>
       <use xlink:href="#mff33aaac48" x="57.6" y="220.411694" style="stroke: #000000; stroke-width: 0.8"/>
      </g>
     </g>
     <g id="text_14">
      <!-- 30 -->
      <g transform="translate(37.875 224.210913) scale(0.1 -0.1)">
       <use xlink:href="#DejaVuSans-33"/>
       <use xlink:href="#DejaVuSans-30" x="63.623047"/>
      </g>
     </g>
    </g>
    <g id="ytick_4">
     <g id="line2d_14">
      <g>
       <use xlink:href="#mff33aaac48" x="57.6" y="189.240227" style="stroke: #000000; stroke-width: 0.8"/>
      </g>
     </g>
     <g id="text_15">
      <!-- 40 -->
      <g transform="translate(37.875 193.039446) scale(0.1 -0.1)">
       <use xlink:href="#DejaVuSans-34"/>
       <use xlink:href="#DejaVuSans-30" x="63.623047"/>
      </g>
     </g>
    </g>
    <g id="ytick_5">
     <g id="line2d_15">
      <g>
       <use xlink:href="#mff33aaac48" x="57.6" y="158.06876" style="stroke: #000000; stroke-width: 0.8"/>
      </g>
     </g>
     <g id="text_16">
      <!-- 50 -->
      <g transform="translate(37.875 161.867978) scale(0.1 -0.1)">
       <defs>
        <path id="DejaVuSans-35" d="M 691 4666 
L 3169 4666 
L 3169 4134 
L 1269 4134 
L 1269 2991 
Q 1406 3038 1543 3061 
Q 1681 3084 1819 3084 
Q 2600 3084 3056 2656 
Q 3513 2228 3513 1497 
Q 3513 744 3044 326 
Q 2575 -91 1722 -91 
Q 1428 -91 1123 -41 
Q 819 9 494 109 
L 494 744 
Q 775 591 1075 516 
Q 1375 441 1709 441 
Q 2250 441 2565 725 
Q 2881 1009 2881 1497 
Q 2881 1984 2565 2268 
Q 2250 2553 1709 2553 
Q 1456 2553 1204 2497 
Q 953 2441 691 2322 
L 691 4666 
z
" transform="scale(0.015625)"/>
       </defs>
       <use xlink:href="#DejaVuSans-35"/>
       <use xlink:href="#DejaVuSans-30" x="63.623047"/>
      </g>
     </g>
    </g>
    <g id="ytick_6">
     <g id="line2d_16">
      <g>
       <use xlink:href="#mff33aaac48" x="57.6" y="126.897292" style="stroke: #000000; stroke-width: 0.8"/>
      </g>
     </g>
     <g id="text_17">
      <!-- 60 -->
      <g transform="translate(37.875 130.696511) scale(0.1 -0.1)">
       <use xlink:href="#DejaVuSans-36"/>
       <use xlink:href="#DejaVuSans-30" x="63.623047"/>
      </g>
     </g>
    </g>
    <g id="ytick_7">
     <g id="line2d_17">
      <g>
       <use xlink:href="#mff33aaac48" x="57.6" y="95.725825" style="stroke: #000000; stroke-width: 0.8"/>
      </g>
     </g>
     <g id="text_18">
      <!-- 70 -->
      <g transform="translate(37.875 99.525044) scale(0.1 -0.1)">
       <use xlink:href="#DejaVuSans-37"/>
       <use xlink:href="#DejaVuSans-30" x="63.623047"/>
      </g>
     </g>
    </g>
    <g id="ytick_8">
     <g id="line2d_18">
      <g>
       <use xlink:href="#mff33aaac48" x="57.6" y="64.554358" style="stroke: #000000; stroke-width: 0.8"/>
      </g>
     </g>
     <g id="text_19">
      <!-- 80 -->
      <g transform="translate(37.875 68.353576) scale(0.1 -0.1)">
       <defs>
        <path id="DejaVuSans-38" d="M 2034 2216 
Q 1584 2216 1326 1975 
Q 1069 1734 1069 1313 
Q 1069 891 1326 650 
Q 1584 409 2034 409 
Q 2484 409 2743 651 
Q 3003 894 3003 1313 
Q 3003 1734 2745 1975 
Q 2488 2216 2034 2216 
z
M 1403 2484 
Q 997 2584 770 2862 
Q 544 3141 544 3541 
Q 544 4100 942 4425 
Q 1341 4750 2034 4750 
Q 2731 4750 3128 4425 
Q 3525 4100 3525 3541 
Q 3525 3141 3298 2862 
Q 3072 2584 2669 2484 
Q 3125 2378 3379 2068 
Q 3634 1759 3634 1313 
Q 3634 634 3220 271 
Q 2806 -91 2034 -91 
Q 1263 -91 848 271 
Q 434 634 434 1313 
Q 434 1759 690 2068 
Q 947 2378 1403 2484 
z
M 1172 3481 
Q 1172 3119 1398 2916 
Q 1625 2713 2034 2713 
Q 2441 2713 2670 2916 
Q 2900 3119 2900 3481 
Q 2900 3844 2670 4047 
Q 2441 4250 2034 4250 
Q 1625 4250 1398 4047 
Q 1172 3844 1172 3481 
z
" transform="scale(0.015625)"/>
       </defs>
       <use xlink:href="#DejaVuSans-38"/>
       <use xlink:href="#DejaVuSans-30" x="63.623047"/>
      </g>
     </g>
    </g>
    <g id="text_20">
     <!-- Accuracy -->
     <g transform="translate(31.795312 197.356125) rotate(-90) scale(0.1 -0.1)">
      <defs>
       <path id="DejaVuSans-41" d="M 2188 4044 
L 1331 1722 
L 3047 1722 
L 2188 4044 
z
M 1831 4666 
L 2547 4666 
L 4325 0 
L 3669 0 
L 3244 1197 
L 1141 1197 
L 716 0 
L 50 0 
L 1831 4666 
z
" transform="scale(0.015625)"/>
       <path id="DejaVuSans-75" d="M 544 1381 
L 544 3500 
L 1119 3500 
L 1119 1403 
Q 1119 906 1312 657 
Q 1506 409 1894 409 
Q 2359 409 2629 706 
Q 2900 1003 2900 1516 
L 2900 3500 
L 3475 3500 
L 3475 0 
L 2900 0 
L 2900 538 
Q 2691 219 2414 64 
Q 2138 -91 1772 -91 
Q 1169 -91 856 284 
Q 544 659 544 1381 
z
M 1991 3584 
L 1991 3584 
z
" transform="scale(0.015625)"/>
       <path id="DejaVuSans-72" d="M 2631 2963 
Q 2534 3019 2420 3045 
Q 2306 3072 2169 3072 
Q 1681 3072 1420 2755 
Q 1159 2438 1159 1844 
L 1159 0 
L 581 0 
L 581 3500 
L 1159 3500 
L 1159 2956 
Q 1341 3275 1631 3429 
Q 1922 3584 2338 3584 
Q 2397 3584 2469 3576 
Q 2541 3569 2628 3553 
L 2631 2963 
z
" transform="scale(0.015625)"/>
       <path id="DejaVuSans-61" d="M 2194 1759 
Q 1497 1759 1228 1600 
Q 959 1441 959 1056 
Q 959 750 1161 570 
Q 1363 391 1709 391 
Q 2188 391 2477 730 
Q 2766 1069 2766 1631 
L 2766 1759 
L 2194 1759 
z
M 3341 1997 
L 3341 0 
L 2766 0 
L 2766 531 
Q 2569 213 2275 61 
Q 1981 -91 1556 -91 
Q 1019 -91 701 211 
Q 384 513 384 1019 
Q 384 1609 779 1909 
Q 1175 2209 1959 2209 
L 2766 2209 
L 2766 2266 
Q 2766 2663 2505 2880 
Q 2244 3097 1772 3097 
Q 1472 3097 1187 3025 
Q 903 2953 641 2809 
L 641 3341 
Q 956 3463 1253 3523 
Q 1550 3584 1831 3584 
Q 2591 3584 2966 3190 
Q 3341 2797 3341 1997 
z
" transform="scale(0.015625)"/>
       <path id="DejaVuSans-79" d="M 2059 -325 
Q 1816 -950 1584 -1140 
Q 1353 -1331 966 -1331 
L 506 -1331 
L 506 -850 
L 844 -850 
Q 1081 -850 1212 -737 
Q 1344 -625 1503 -206 
L 1606 56 
L 191 3500 
L 800 3500 
L 1894 763 
L 2988 3500 
L 3597 3500 
L 2059 -325 
z
" transform="scale(0.015625)"/>
      </defs>
      <use xlink:href="#DejaVuSans-41"/>
      <use xlink:href="#DejaVuSans-63" x="66.658203"/>
      <use xlink:href="#DejaVuSans-63" x="121.638672"/>
      <use xlink:href="#DejaVuSans-75" x="176.619141"/>
      <use xlink:href="#DejaVuSans-72" x="239.998047"/>
      <use xlink:href="#DejaVuSans-61" x="281.111328"/>
      <use xlink:href="#DejaVuSans-63" x="342.390625"/>
      <use xlink:href="#DejaVuSans-79" x="397.371094"/>
     </g>
    </g>
   </g>
   <g id="line2d_19">
    <path d="M 73.832727 295.488 
L 76.00433 253.139705 
L 78.175932 219.487448 
L 79.261733 206.490229 
L 80.347534 196.326638 
L 81.433335 187.458866 
L 83.604938 173.353176 
L 85.77654 161.425399 
L 86.862341 156.671461 
L 87.948142 151.144716 
L 89.033943 147.569505 
L 91.205546 141.590004 
L 92.291347 140.356634 
L 93.377148 137.686935 
L 94.462949 136.781423 
L 95.54875 163.486219 
L 96.634552 163.158361 
L 97.720353 160.808714 
L 98.806154 157.272534 
L 99.891955 152.971352 
L 100.977756 151.191553 
L 102.063557 147.819301 
L 103.149358 145.063735 
L 104.23516 140.903064 
L 105.320961 141.293371 
L 106.406762 136.188157 
L 107.492563 134.681572 
L 108.578364 131.730852 
L 109.664165 130.450646 
L 110.749967 128.249315 
L 111.835768 126.937884 
L 112.921569 123.206551 
L 114.00737 121.902926 
L 115.093171 117.874959 
L 116.178972 118.093531 
L 117.264773 116.649395 
L 118.350575 113.050766 
L 119.436376 111.060201 
L 120.522177 111.099232 
L 121.607978 109.530198 
L 123.77958 105.283659 
L 125.951183 102.332939 
L 127.036984 101.677224 
L 128.122785 97.469716 
L 129.208586 97.532165 
L 130.294387 96.923286 
L 131.380189 95.432314 
L 132.46599 93.597872 
L 133.551791 93.652515 
L 135.723393 90.358325 
L 136.809194 91.919552 
L 137.894995 91.365317 
L 138.980797 121.59068 
L 140.066598 124.775584 
L 141.152399 124.40089 
L 142.2382 123.604664 
L 143.324001 121.457976 
L 144.409802 120.849097 
L 145.495604 121.895119 
L 146.581405 119.748432 
L 147.667206 119.87333 
L 148.753007 117.242662 
L 150.924609 115.806332 
L 152.01041 115.283321 
L 153.096212 114.510514 
L 154.182013 113.269338 
L 155.267814 111.637855 
L 156.353615 111.575406 
L 157.439416 110.107852 
L 159.611019 108.71836 
L 160.69682 106.844887 
L 161.782621 107.172745 
L 162.868422 105.556874 
L 163.954223 104.323505 
L 165.040024 104.331311 
L 166.125825 103.16039 
L 167.211627 103.878555 
L 168.297428 102.153398 
L 169.383229 100.888804 
L 170.46903 100.576559 
L 171.554831 98.898239 
L 172.640632 98.304973 
L 173.726434 96.408081 
L 174.812235 95.502569 
L 175.898036 95.307416 
L 176.983837 94.058434 
L 178.069638 94.2692 
L 179.155439 91.989808 
L 180.24124 92.00542 
L 181.327042 90.982816 
L 182.412843 89.632354 
L 183.498644 89.031282 
L 184.584445 89.616742 
L 185.670246 87.048523 
L 186.756047 85.284336 
L 187.841849 84.331987 
L 188.92765 84.839386 
L 191.099252 83.083005 
L 193.270854 80.592847 
L 194.356656 79.624886 
L 195.442457 77.486005 
L 196.528258 78.820854 
L 197.614059 76.588299 
L 198.69986 76.619523 
L 199.785661 75.846716 
L 200.871462 75.230031 
L 201.957264 73.707834 
L 204.128866 72.318342 
L 205.214667 71.99829 
L 207.386269 71.030329 
L 208.472071 68.680682 
L 209.557872 69.820378 
L 210.643673 69.93747 
L 211.729474 68.188895 
L 212.815275 66.939913 
L 213.901076 68.25915 
L 216.072679 67.47073 
L 218.244281 66.135881 
L 219.330082 67.041393 
L 220.415883 65.948534 
L 221.501684 67.595629 
L 222.587486 65.659707 
L 223.673287 66.237361 
L 224.759088 65.815829 
L 225.844889 97.438491 
L 226.93069 102.286103 
L 229.102292 104.784067 
L 230.188094 102.293909 
L 231.273895 102.67641 
L 232.359696 102.083143 
L 233.445497 102.840338 
L 234.531298 102.083143 
L 235.617099 102.535899 
L 236.702901 99.647628 
L 237.788702 100.537528 
L 238.874503 99.085586 
L 239.960304 99.155842 
L 241.046105 99.569567 
L 242.131906 98.039564 
L 243.217708 97.984921 
L 244.303509 97.032572 
L 245.38931 98.69528 
L 246.475111 97.251144 
L 247.560912 96.977929 
L 249.732514 95.713335 
L 250.818316 95.377671 
L 251.904117 95.29961 
L 252.989918 95.049813 
L 254.075719 93.660321 
L 255.16152 94.128689 
L 256.247321 94.878078 
L 257.333123 92.949963 
L 258.418924 92.910932 
L 261.676327 91.771236 
L 262.762128 90.545672 
L 263.847929 91.029653 
L 264.933731 90.077304 
L 266.019532 90.647152 
L 267.105333 89.562099 
L 268.191134 88.820516 
L 269.276935 88.867353 
L 270.362736 88.211637 
L 271.448538 88.758067 
L 272.534339 87.766687 
L 273.62014 87.03291 
L 274.705941 87.243676 
L 275.791742 86.143011 
L 276.877543 85.846378 
L 277.963344 85.947857 
L 279.049146 85.354591 
L 280.134947 86.494287 
L 281.220748 84.745712 
L 282.306549 84.230507 
L 283.39235 84.862804 
L 284.478151 83.855813 
L 285.563953 83.215709 
L 286.649754 83.364026 
L 288.821356 81.732543 
L 289.907157 82.458514 
L 290.992958 79.710754 
L 292.07876 80.171316 
L 293.164561 79.61708 
L 294.250362 80.225959 
L 295.336163 79.429733 
L 296.421964 78.78963 
L 297.507765 78.009016 
L 298.593566 78.93014 
L 299.679368 77.517229 
L 300.765169 77.228402 
L 301.85097 75.995032 
L 302.936771 76.814677 
L 304.022572 77.095698 
L 305.108373 75.29248 
L 306.194175 75.339317 
L 307.279976 74.995847 
L 308.365777 74.800693 
L 309.451578 75.401766 
L 310.537379 73.809314 
L 311.62318 74.144978 
L 312.708981 73.621967 
L 313.794783 72.123188 
L 314.880584 72.076351 
L 315.966385 72.248086 
L 317.052186 70.437063 
L 320.30959 70.647828 
L 321.395391 69.960888 
L 322.481192 70.296552 
L 323.566993 70.07798 
L 324.652794 67.22874 
L 325.738595 67.767364 
L 326.824396 68.430885 
L 327.910198 68.680682 
L 328.995999 66.463739 
L 330.0818 66.760372 
L 331.167601 65.940728 
L 332.253402 65.277206 
L 333.339203 64.387306 
L 334.425005 64.652715 
L 335.510806 64.082867 
L 336.596607 63.739397 
L 337.682408 63.598886 
L 338.768209 63.755009 
L 339.85401 62.381129 
L 340.939811 61.97521 
L 342.025613 62.014241 
L 344.197215 60.734034 
L 345.283016 61.233627 
L 346.368817 60.445207 
L 347.454618 58.805918 
L 348.54042 59.188419 
L 349.626221 59.196225 
L 350.712022 58.641989 
L 351.797823 58.602959 
L 352.883624 57.705253 
L 353.969425 57.424232 
L 356.141028 57.166629 
L 357.226829 55.675657 
L 358.31263 56.76071 
L 359.398431 55.87081 
L 360.484232 54.59841 
L 361.570033 55.261932 
L 362.655835 55.098003 
L 363.741636 54.746727 
L 364.827437 54.051981 
L 365.913238 54.746727 
L 366.999039 54.731114 
L 368.08484 53.568 
L 369.170642 55.238513 
L 370.256443 56.440659 
L 371.342244 56.713873 
L 372.428045 56.6202 
L 373.513846 58.368774 
L 374.599647 58.384387 
L 375.685448 57.603773 
L 376.77125 59.196225 
L 377.857051 57.900406 
L 378.942852 57.962855 
L 380.028653 59.079133 
L 381.114454 57.923825 
L 382.200255 57.494487 
L 383.286057 58.23607 
L 384.371858 57.182242 
L 385.457659 57.471069 
L 386.54346 57.619385 
L 387.629261 58.189233 
L 388.715062 59.235256 
L 389.800863 58.759081 
L 390.886665 59.094745 
L 391.972466 57.962855 
L 393.058267 58.212652 
L 394.144068 58.759081 
L 395.229869 57.252497 
L 396.31567 57.986274 
L 397.401472 56.222087 
L 398.487273 58.212652 
L 398.487273 58.212652 
" clip-path="url(#p02f6182ac9)" style="fill: none; stroke: #1f77b4; stroke-width: 1.5; stroke-linecap: square"/>
   </g>
   <g id="line2d_20">
    <path d="M 73.832727 280.167397 
L 77.090131 220.972781 
L 78.175932 212.307113 
L 79.261733 189.177884 
L 80.347534 179.764101 
L 81.433335 167.887772 
L 82.519137 163.461423 
L 83.604938 157.694702 
L 84.690739 154.639898 
L 85.77654 146.161259 
L 86.862341 140.955624 
L 89.033943 133.4433 
L 90.119745 130.66904 
L 91.205546 126.679092 
L 92.291347 124.871147 
L 94.462949 123.842488 
L 95.54875 152.239695 
L 96.634552 153.424211 
L 98.806154 141.641396 
L 99.891955 148.686148 
L 100.977756 141.236167 
L 102.063557 139.397051 
L 103.149358 127.177835 
L 104.23516 132.944557 
L 105.320961 122.938516 
L 106.406762 120.351284 
L 107.492563 121.3176 
L 108.578364 113.618247 
L 109.664165 117.421166 
L 110.749967 114.272848 
L 111.835768 109.628299 
L 112.921569 111.872645 
L 114.00737 110.251729 
L 115.093171 104.703208 
L 116.178972 105.451323 
L 117.264773 102.988777 
L 118.350575 100.058659 
L 119.436376 99.092343 
L 120.522177 96.879169 
L 121.607978 93.07625 
L 122.693779 95.133567 
L 123.77958 94.229594 
L 124.865382 92.63985 
L 125.951183 90.831905 
L 127.036984 91.018933 
L 128.122785 88.899274 
L 129.208586 88.930445 
L 130.294387 85.937984 
L 131.380189 87.216014 
L 132.46599 86.561414 
L 133.551791 84.878154 
L 134.637592 85.408069 
L 135.723393 86.187356 
L 136.809194 85.22104 
L 137.894995 84.691125 
L 138.980797 109.347756 
L 140.066598 112.153188 
L 141.152399 108.256755 
L 142.2382 107.695668 
L 143.324001 112.309046 
L 144.409802 103.48752 
L 145.495604 103.300491 
L 146.581405 102.303005 
L 147.667206 104.952579 
L 148.753007 99.154686 
L 149.838808 105.856552 
L 150.924609 100.308031 
L 152.01041 102.895262 
L 153.096212 100.058659 
L 154.182013 96.754483 
L 155.267814 103.05112 
L 156.353615 94.665995 
L 157.439416 98.468914 
L 158.525217 94.572481 
L 159.611019 93.232108 
L 160.69682 94.198423 
L 161.782621 94.478966 
L 162.868422 92.078763 
L 163.954223 92.390478 
L 165.040024 92.889221 
L 166.125825 92.328135 
L 167.211627 89.990275 
L 168.297428 88.40053 
L 169.383229 88.244673 
L 170.46903 89.398017 
L 171.554831 88.40053 
L 172.640632 91.081276 
L 173.726434 87.870615 
L 174.812235 89.148645 
L 175.898036 85.283383 
L 176.983837 86.623756 
L 178.069638 83.194895 
L 179.155439 83.475438 
L 180.24124 83.194895 
L 181.327042 79.516662 
L 182.412843 82.509123 
L 183.498644 82.103894 
L 184.584445 77.490517 
L 185.670246 80.638835 
L 186.756047 76.898259 
L 187.841849 77.739888 
L 188.92765 78.83089 
L 190.013451 76.804744 
L 191.099252 75.214999 
L 192.185053 77.895746 
L 193.270854 75.059142 
L 194.356656 74.560399 
L 195.442457 72.877139 
L 196.528258 72.097853 
L 197.614059 72.939482 
L 198.69986 73.09534 
L 199.785661 71.630281 
L 200.871462 72.503082 
L 201.957264 71.692624 
L 203.043065 70.539279 
L 204.128866 71.848481 
L 205.214667 70.352251 
L 206.300468 70.97568 
L 208.472071 69.198906 
L 209.557872 70.196393 
L 210.643673 68.887192 
L 211.729474 68.575477 
L 212.815275 67.048075 
L 213.901076 67.422133 
L 214.986877 67.390961 
L 216.072679 67.484476 
L 217.15848 65.957074 
L 218.244281 66.611674 
L 219.330082 66.73636 
L 220.415883 66.549331 
L 221.501684 66.112931 
L 222.587486 65.988245 
L 224.759088 66.019417 
L 225.844889 99.061172 
L 226.93069 91.112448 
L 228.016491 89.522703 
L 229.102292 95.040053 
L 230.188094 93.855537 
L 231.273895 92.109935 
L 232.359696 91.455334 
L 233.445497 90.021446 
L 234.531298 94.510138 
L 235.617099 87.995301 
L 236.702901 90.676047 
L 237.788702 87.527729 
L 238.874503 87.870615 
L 239.960304 91.174791 
L 241.046105 89.055131 
L 242.131906 89.772075 
L 243.217708 89.553874 
L 244.303509 87.590072 
L 245.38931 88.992788 
L 246.475111 94.104909 
L 248.646713 87.5589 
L 249.732514 88.119987 
L 250.818316 86.592585 
L 251.904117 83.413095 
L 254.075719 85.501584 
L 255.16152 86.717271 
L 256.247321 86.28087 
L 257.333123 84.005353 
L 258.418924 86.156184 
L 259.504725 85.84447 
L 260.590526 80.202434 
L 261.676327 87.496558 
L 262.762128 84.098868 
L 263.847929 84.78464 
L 264.933731 82.852009 
L 266.019532 84.130039 
L 267.105333 84.410582 
L 268.191134 82.290922 
L 269.276935 81.979208 
L 270.362736 82.384437 
L 271.448538 83.101381 
L 272.534339 81.854522 
L 273.62014 81.916865 
L 274.705941 81.480464 
L 276.877543 81.199921 
L 279.049146 81.885693 
L 280.134947 80.981721 
L 281.220748 79.454319 
L 282.306549 80.54532 
L 283.39235 78.145117 
L 284.478151 78.051603 
L 285.563953 78.986747 
L 286.649754 77.677545 
L 287.735555 79.797205 
L 288.821356 76.274829 
L 289.907157 77.459345 
L 290.992958 78.051603 
L 292.07876 76.430687 
L 293.164561 76.181315 
L 295.336163 75.963115 
L 296.421964 80.077748 
L 297.507765 75.183828 
L 298.593566 77.178802 
L 299.679368 77.895746 
L 300.765169 75.183828 
L 301.85097 74.716256 
L 302.936771 73.656426 
L 305.108373 72.596596 
L 306.194175 74.15517 
L 307.279976 74.15517 
L 308.365777 73.74994 
L 309.451578 74.840942 
L 310.537379 70.414593 
L 311.62318 72.284881 
L 312.708981 71.505595 
L 313.794783 70.13405 
L 315.966385 72.503082 
L 317.052186 70.663965 
L 318.137987 70.009364 
L 319.223788 71.038023 
L 320.30959 70.570451 
L 321.395391 72.160196 
L 322.481192 73.157683 
L 323.566993 71.630281 
L 324.652794 70.414593 
L 325.738595 68.045562 
L 326.824396 68.793677 
L 327.910198 68.668991 
L 328.995999 68.232591 
L 330.0818 68.01439 
L 331.167601 69.043049 
L 332.253402 66.486989 
L 333.339203 67.235104 
L 334.425005 67.827362 
L 336.596607 67.110418 
L 337.682408 67.35979 
L 338.768209 64.959587 
L 339.85401 65.67653 
L 340.939811 64.523186 
L 342.025613 64.616701 
L 343.111414 66.331131 
L 344.197215 65.24013 
L 346.368817 64.1803 
L 347.454618 65.115444 
L 348.54042 63.12047 
L 349.626221 64.1803 
L 350.712022 64.710215 
L 351.797823 64.897244 
L 352.883624 62.90227 
L 353.969425 63.775071 
L 355.055227 62.839927 
L 356.141028 62.590555 
L 357.226829 62.528212 
L 358.31263 61.655411 
L 359.398431 62.590555 
L 360.484232 60.907296 
L 361.570033 62.122983 
L 362.655835 62.091812 
L 363.741636 60.813782 
L 364.827437 60.844953 
L 365.913238 60.626753 
L 366.999039 60.56441 
L 368.08484 60.907296 
L 369.170642 62.465869 
L 370.256443 62.247669 
L 371.342244 63.151642 
L 372.428045 65.208958 
L 373.513846 63.213984 
L 374.599647 62.497041 
L 375.685448 63.899757 
L 376.77125 63.868585 
L 377.857051 63.213984 
L 378.942852 63.775071 
L 380.028653 64.741386 
L 381.114454 63.899757 
L 382.200255 65.395987 
L 383.286057 64.772558 
L 384.371858 64.647872 
L 385.457659 64.3985 
L 387.629261 63.494528 
L 388.715062 64.429672 
L 389.800863 61.998297 
L 391.972466 65.520673 
L 393.058267 62.933441 
L 394.144068 64.679043 
L 395.229869 64.1803 
L 396.31567 63.556871 
L 397.401472 63.619214 
L 398.487273 63.494528 
L 398.487273 63.494528 
" clip-path="url(#p02f6182ac9)" style="fill: none; stroke: #ff7f0e; stroke-width: 1.5; stroke-linecap: square"/>
   </g>
   <g id="line2d_21">
    <path d="M 73.832727 284.151971 
L 76.00433 260.827114 
L 77.090131 244.059014 
L 78.175932 239.222062 
L 79.261733 217.294548 
L 80.347534 213.854937 
L 81.433335 200.848911 
L 82.519137 206.115814 
L 83.604938 202.783692 
L 84.690739 195.367033 
L 85.77654 189.347715 
L 86.862341 184.403275 
L 87.948142 185.693129 
L 89.033943 181.071153 
L 91.205546 177.631543 
L 92.291347 177.954006 
L 93.377148 180.748689 
L 94.462949 176.77164 
L 95.54875 198.054228 
L 96.634552 198.699155 
L 97.720353 193.002301 
L 98.806154 188.810276 
L 99.891955 194.399642 
L 100.977756 187.842885 
L 102.063557 189.347715 
L 103.149358 177.846518 
L 104.23516 183.113421 
L 105.320961 171.182273 
L 106.406762 168.710054 
L 107.492563 170.107395 
L 108.578364 165.377931 
L 109.664165 171.504737 
L 110.749967 167.742663 
L 111.835768 159.358613 
L 112.921569 166.775273 
L 114.00737 160.648467 
L 115.093171 159.03615 
L 116.178972 164.195565 
L 118.350575 151.61949 
L 120.522177 154.521662 
L 121.607978 149.147271 
L 122.693779 150.114661 
L 123.77958 145.922636 
L 124.865382 147.857417 
L 125.951183 145.600173 
L 127.036984 144.202831 
L 128.122785 142.375538 
L 129.208586 146.460075 
L 130.294387 139.365879 
L 131.380189 141.838099 
L 132.46599 141.193172 
L 133.551791 139.258391 
L 134.637592 140.118294 
L 135.723393 141.945587 
L 137.894995 138.398489 
L 138.980797 163.335663 
L 140.066598 164.195565 
L 141.152399 167.205224 
L 142.2382 162.47576 
L 143.324001 165.592907 
L 144.409802 157.101369 
L 145.495604 158.283735 
L 146.581405 154.951613 
L 147.667206 156.778906 
L 148.753007 153.984222 
L 149.838808 157.961272 
L 150.924609 159.358613 
L 152.01041 156.993881 
L 153.096212 155.811515 
L 154.182013 151.834466 
L 155.267814 158.928662 
L 156.353615 154.414174 
L 157.439416 152.371905 
L 158.525217 154.951613 
L 159.611019 147.21249 
L 160.69682 147.319978 
L 161.782621 148.17988 
L 162.868422 154.306686 
L 165.040024 148.717319 
L 166.125825 145.922636 
L 167.211627 148.072392 
L 168.297428 142.26805 
L 169.383229 147.857417 
L 170.46903 145.600173 
L 171.554831 144.632782 
L 172.640632 146.567563 
L 173.726434 140.548245 
L 174.812235 138.613464 
L 175.898036 143.020465 
L 176.983837 143.450416 
L 178.069638 137.538586 
L 179.155439 135.496318 
L 180.24124 139.365879 
L 181.327042 134.636415 
L 182.412843 137.968538 
L 183.498644 137.646074 
L 184.584445 132.809122 
L 185.670246 136.141245 
L 186.756047 133.346561 
L 187.841849 132.91661 
L 188.92765 135.603806 
L 190.013451 128.079658 
L 191.099252 130.551878 
L 192.185053 130.229415 
L 193.270854 127.97217 
L 194.356656 128.294634 
L 196.528258 128.402122 
L 197.614059 126.03739 
L 198.69986 128.939561 
L 199.785661 126.789804 
L 200.871462 126.682317 
L 201.957264 125.177487 
L 203.043065 126.789804 
L 204.128866 126.359853 
L 205.214667 124.210097 
L 206.300468 125.284975 
L 207.386269 125.499951 
L 208.472071 121.952853 
L 209.557872 124.962512 
L 210.643673 124.425072 
L 211.729474 121.522901 
L 212.815275 119.695608 
L 213.901076 119.050682 
L 214.986877 120.770487 
L 216.072679 121.09295 
L 217.15848 119.050682 
L 218.244281 121.415414 
L 219.330082 120.233048 
L 220.415883 120.985462 
L 221.501684 120.340535 
L 222.587486 120.233048 
L 223.673287 119.480633 
L 224.759088 120.770487 
L 225.844889 150.222149 
L 226.93069 143.557904 
L 228.016491 148.287368 
L 229.102292 155.381564 
L 230.188094 148.824807 
L 231.273895 144.632782 
L 232.359696 143.880368 
L 233.445497 142.912977 
L 234.531298 150.437124 
L 235.617099 146.2451 
L 236.702901 144.74027 
L 237.788702 140.33327 
L 238.874503 145.277709 
L 239.960304 146.2451 
L 241.046105 149.362246 
L 242.131906 146.782539 
L 243.217708 146.460075 
L 244.303509 140.010806 
L 245.38931 145.492685 
L 246.475111 146.782539 
L 247.560912 144.74027 
L 248.646713 140.763221 
L 249.732514 144.202831 
L 250.818316 139.688343 
L 251.904117 139.580855 
L 252.989918 138.82844 
L 254.075719 134.743903 
L 255.16152 142.805489 
L 256.247321 141.838099 
L 257.333123 139.903318 
L 258.418924 140.440757 
L 259.504725 144.525294 
L 260.590526 133.239074 
L 261.676327 142.26805 
L 262.762128 135.281342 
L 263.847929 142.483026 
L 264.933731 136.571196 
L 266.019532 136.571196 
L 267.105333 138.183513 
L 268.191134 133.239074 
L 269.276935 140.33327 
L 270.362736 137.001147 
L 271.448538 139.580855 
L 272.534339 134.206464 
L 273.62014 131.626756 
L 274.705941 133.239074 
L 275.791742 136.141245 
L 276.877543 133.776513 
L 277.963344 135.818781 
L 279.049146 138.183513 
L 280.134947 132.701634 
L 281.220748 130.874342 
L 282.306549 134.851391 
L 283.39235 132.379171 
L 284.478151 133.454049 
L 285.563953 129.369512 
L 286.649754 129.906951 
L 287.735555 136.141245 
L 288.821356 130.874342 
L 289.907157 128.079658 
L 290.992958 127.542219 
L 292.07876 124.962512 
L 293.164561 125.284975 
L 294.250362 129.477 
L 295.336163 130.659366 
L 296.421964 132.594147 
L 297.507765 126.359853 
L 298.593566 128.187146 
L 299.679368 130.981829 
L 300.765169 127.97217 
L 301.85097 127.112268 
L 302.936771 127.00478 
L 305.108373 122.06034 
L 306.194175 122.705267 
L 307.279976 121.09295 
L 308.365777 130.121927 
L 309.451578 126.467341 
L 310.537379 125.069999 
L 311.62318 127.542219 
L 312.708981 120.448023 
L 313.794783 124.317585 
L 314.880584 123.350194 
L 315.966385 126.144878 
L 317.052186 124.855024 
L 318.137987 118.943194 
L 319.223788 123.350194 
L 320.30959 125.822414 
L 321.395391 120.448023 
L 322.481192 123.457682 
L 324.652794 117.975803 
L 325.738595 118.190779 
L 327.910198 117.760828 
L 328.995999 118.190779 
L 330.0818 116.68595 
L 331.167601 118.405755 
L 332.253402 117.65334 
L 333.339203 117.760828 
L 334.425005 118.405755 
L 335.510806 117.545852 
L 337.682408 116.578462 
L 338.768209 113.783778 
L 339.85401 118.298267 
L 340.939811 116.041023 
L 342.025613 116.793437 
L 343.111414 113.461315 
L 344.197215 112.278949 
L 345.283016 110.666632 
L 346.368817 114.751169 
L 347.454618 115.611071 
L 348.54042 113.568803 
L 349.626221 113.676291 
L 350.712022 114.428705 
L 351.797823 115.396096 
L 352.883624 111.096583 
L 353.969425 113.353827 
L 355.055227 113.138851 
L 356.141028 111.634022 
L 358.31263 111.956485 
L 360.484232 110.774119 
L 362.655835 108.731851 
L 363.741636 108.086924 
L 364.827437 109.699241 
L 365.913238 109.806729 
L 366.999039 106.259631 
L 368.08484 105.507216 
L 369.170642 110.451656 
L 370.256443 113.246339 
L 371.342244 114.428705 
L 372.428045 115.18112 
L 373.513846 109.806729 
L 374.599647 115.611071 
L 375.685448 110.989095 
L 376.77125 114.858657 
L 377.857051 113.783778 
L 378.942852 115.826047 
L 380.028653 112.063973 
L 381.114454 111.634022 
L 382.200255 117.975803 
L 383.286057 118.62073 
L 384.371858 113.353827 
L 385.457659 112.7089 
L 386.54346 114.428705 
L 387.629261 113.568803 
L 388.715062 114.643681 
L 389.800863 115.18112 
L 390.886665 114.858657 
L 391.972466 112.816388 
L 393.058267 114.106242 
L 394.144068 112.171461 
L 395.229869 116.14851 
L 396.31567 115.611071 
L 397.401472 113.031364 
L 398.487273 114.643681 
L 398.487273 114.643681 
" clip-path="url(#p02f6182ac9)" style="fill: none; stroke: #2ca02c; stroke-width: 1.5; stroke-linecap: square"/>
   </g>
   <g id="line2d_22">
    <path d="M 368.08484 59.753952 
L 369.170642 61.031982 
L 370.256443 62.122983 
L 371.342244 61.62424 
L 372.428045 63.33867 
L 373.513846 63.182813 
L 374.599647 62.465869 
L 375.685448 63.307499 
L 376.77125 63.712728 
L 377.857051 63.775071 
L 378.942852 62.839927 
L 380.028653 63.681557 
L 381.114454 63.401013 
L 382.200255 64.242643 
L 383.286057 63.401013 
L 384.371858 62.27884 
L 385.457659 63.463356 
L 386.54346 62.590555 
L 387.629261 63.245156 
L 388.715062 65.427159 
L 389.800863 64.367329 
L 390.886665 63.837414 
L 391.972466 66.51816 
L 393.058267 65.614187 
L 394.144068 62.715241 
L 395.229869 64.710215 
L 396.31567 65.177787 
L 397.401472 70.75748 
L 398.487273 68.045562 
L 398.487273 68.045562 
" clip-path="url(#p02f6182ac9)" style="fill: none; stroke: #d62728; stroke-width: 1.5; stroke-linecap: square"/>
   </g>
   <g id="line2d_23">
    <path d="M 368.08484 105.292241 
L 369.170642 110.021705 
L 370.256443 108.839339 
L 371.342244 110.881607 
L 372.428045 112.278949 
L 373.513846 114.106242 
L 374.599647 110.774119 
L 375.685448 109.484266 
L 376.77125 111.526534 
L 377.857051 108.3019 
L 378.942852 108.731851 
L 380.028653 111.096583 
L 381.114454 111.419046 
L 382.200255 106.79707 
L 383.286057 111.526534 
L 384.371858 108.194412 
L 386.54346 111.311559 
L 387.629261 112.386437 
L 388.715062 115.396096 
L 389.800863 110.989095 
L 390.886665 110.881607 
L 391.972466 116.900925 
L 393.058267 116.255998 
L 394.144068 111.848998 
L 396.31567 113.891266 
L 397.401472 121.737877 
L 398.487273 113.461315 
L 398.487273 113.461315 
" clip-path="url(#p02f6182ac9)" style="fill: none; stroke: #9467bd; stroke-width: 1.5; stroke-linecap: square"/>
   </g>
   <g id="patch_3">
    <path d="M 57.6 307.584 
L 57.6 41.472 
" style="fill: none; stroke: #000000; stroke-width: 0.8; stroke-linejoin: miter; stroke-linecap: square"/>
   </g>
   <g id="patch_4">
    <path d="M 414.72 307.584 
L 414.72 41.472 
" style="fill: none; stroke: #000000; stroke-width: 0.8; stroke-linejoin: miter; stroke-linecap: square"/>
   </g>
   <g id="patch_5">
    <path d="M 57.6 307.584 
L 414.72 307.584 
" style="fill: none; stroke: #000000; stroke-width: 0.8; stroke-linejoin: miter; stroke-linecap: square"/>
   </g>
   <g id="patch_6">
    <path d="M 57.6 41.472 
L 414.72 41.472 
" style="fill: none; stroke: #000000; stroke-width: 0.8; stroke-linejoin: miter; stroke-linecap: square"/>
   </g>
   <g id="text_21">
    <!-- Learning Curves -->
    <g transform="translate(187.37625 35.472) scale(0.12 -0.12)">
     <defs>
      <path id="DejaVuSans-4c" d="M 628 4666 
L 1259 4666 
L 1259 531 
L 3531 531 
L 3531 0 
L 628 0 
L 628 4666 
z
" transform="scale(0.015625)"/>
      <path id="DejaVuSans-65" d="M 3597 1894 
L 3597 1613 
L 953 1613 
Q 991 1019 1311 708 
Q 1631 397 2203 397 
Q 2534 397 2845 478 
Q 3156 559 3463 722 
L 3463 178 
Q 3153 47 2828 -22 
Q 2503 -91 2169 -91 
Q 1331 -91 842 396 
Q 353 884 353 1716 
Q 353 2575 817 3079 
Q 1281 3584 2069 3584 
Q 2775 3584 3186 3129 
Q 3597 2675 3597 1894 
z
M 3022 2063 
Q 3016 2534 2758 2815 
Q 2500 3097 2075 3097 
Q 1594 3097 1305 2825 
Q 1016 2553 972 2059 
L 3022 2063 
z
" transform="scale(0.015625)"/>
      <path id="DejaVuSans-6e" d="M 3513 2113 
L 3513 0 
L 2938 0 
L 2938 2094 
Q 2938 2591 2744 2837 
Q 2550 3084 2163 3084 
Q 1697 3084 1428 2787 
Q 1159 2491 1159 1978 
L 1159 0 
L 581 0 
L 581 3500 
L 1159 3500 
L 1159 2956 
Q 1366 3272 1645 3428 
Q 1925 3584 2291 3584 
Q 2894 3584 3203 3211 
Q 3513 2838 3513 2113 
z
" transform="scale(0.015625)"/>
      <path id="DejaVuSans-69" d="M 603 3500 
L 1178 3500 
L 1178 0 
L 603 0 
L 603 3500 
z
M 603 4863 
L 1178 4863 
L 1178 4134 
L 603 4134 
L 603 4863 
z
" transform="scale(0.015625)"/>
      <path id="DejaVuSans-67" d="M 2906 1791 
Q 2906 2416 2648 2759 
Q 2391 3103 1925 3103 
Q 1463 3103 1205 2759 
Q 947 2416 947 1791 
Q 947 1169 1205 825 
Q 1463 481 1925 481 
Q 2391 481 2648 825 
Q 2906 1169 2906 1791 
z
M 3481 434 
Q 3481 -459 3084 -895 
Q 2688 -1331 1869 -1331 
Q 1566 -1331 1297 -1286 
Q 1028 -1241 775 -1147 
L 775 -588 
Q 1028 -725 1275 -790 
Q 1522 -856 1778 -856 
Q 2344 -856 2625 -561 
Q 2906 -266 2906 331 
L 2906 616 
Q 2728 306 2450 153 
Q 2172 0 1784 0 
Q 1141 0 747 490 
Q 353 981 353 1791 
Q 353 2603 747 3093 
Q 1141 3584 1784 3584 
Q 2172 3584 2450 3431 
Q 2728 3278 2906 2969 
L 2906 3500 
L 3481 3500 
L 3481 434 
z
" transform="scale(0.015625)"/>
      <path id="DejaVuSans-20" transform="scale(0.015625)"/>
      <path id="DejaVuSans-43" d="M 4122 4306 
L 4122 3641 
Q 3803 3938 3442 4084 
Q 3081 4231 2675 4231 
Q 1875 4231 1450 3742 
Q 1025 3253 1025 2328 
Q 1025 1406 1450 917 
Q 1875 428 2675 428 
Q 3081 428 3442 575 
Q 3803 722 4122 1019 
L 4122 359 
Q 3791 134 3420 21 
Q 3050 -91 2638 -91 
Q 1578 -91 968 557 
Q 359 1206 359 2328 
Q 359 3453 968 4101 
Q 1578 4750 2638 4750 
Q 3056 4750 3426 4639 
Q 3797 4528 4122 4306 
z
" transform="scale(0.015625)"/>
      <path id="DejaVuSans-76" d="M 191 3500 
L 800 3500 
L 1894 563 
L 2988 3500 
L 3597 3500 
L 2284 0 
L 1503 0 
L 191 3500 
z
" transform="scale(0.015625)"/>
     </defs>
     <use xlink:href="#DejaVuSans-4c"/>
     <use xlink:href="#DejaVuSans-65" x="53.962891"/>
     <use xlink:href="#DejaVuSans-61" x="115.486328"/>
     <use xlink:href="#DejaVuSans-72" x="176.765625"/>
     <use xlink:href="#DejaVuSans-6e" x="216.128906"/>
     <use xlink:href="#DejaVuSans-69" x="279.507812"/>
     <use xlink:href="#DejaVuSans-6e" x="307.291016"/>
     <use xlink:href="#DejaVuSans-67" x="370.669922"/>
     <use xlink:href="#DejaVuSans-20" x="434.146484"/>
     <use xlink:href="#DejaVuSans-43" x="465.933594"/>
     <use xlink:href="#DejaVuSans-75" x="535.757812"/>
     <use xlink:href="#DejaVuSans-72" x="599.136719"/>
     <use xlink:href="#DejaVuSans-76" x="640.25"/>
     <use xlink:href="#DejaVuSans-65" x="699.429688"/>
     <use xlink:href="#DejaVuSans-73" x="760.953125"/>
    </g>
   </g>
   <g id="legend_1">
    <g id="patch_7">
     <path d="M 214.18875 302.584 
L 407.72 302.584 
Q 409.72 302.584 409.72 300.584 
L 409.72 228.193375 
Q 409.72 226.193375 407.72 226.193375 
L 214.18875 226.193375 
Q 212.18875 226.193375 212.18875 228.193375 
L 212.18875 300.584 
Q 212.18875 302.584 214.18875 302.584 
z
" style="fill: #ffffff; opacity: 0.8; stroke: #cccccc; stroke-linejoin: miter"/>
    </g>
    <g id="line2d_24">
     <path d="M 216.18875 234.291812 
L 226.18875 234.291812 
L 236.18875 234.291812 
" style="fill: none; stroke: #1f77b4; stroke-width: 1.5; stroke-linecap: square"/>
    </g>
    <g id="text_22">
     <!-- Train Accuracy -->
     <g transform="translate(244.18875 237.791812) scale(0.1 -0.1)">
      <defs>
       <path id="DejaVuSans-54" d="M -19 4666 
L 3928 4666 
L 3928 4134 
L 2272 4134 
L 2272 0 
L 1638 0 
L 1638 4134 
L -19 4134 
L -19 4666 
z
" transform="scale(0.015625)"/>
      </defs>
      <use xlink:href="#DejaVuSans-54"/>
      <use xlink:href="#DejaVuSans-72" x="46.333984"/>
      <use xlink:href="#DejaVuSans-61" x="87.447266"/>
      <use xlink:href="#DejaVuSans-69" x="148.726562"/>
      <use xlink:href="#DejaVuSans-6e" x="176.509766"/>
      <use xlink:href="#DejaVuSans-20" x="239.888672"/>
      <use xlink:href="#DejaVuSans-41" x="271.675781"/>
      <use xlink:href="#DejaVuSans-63" x="338.333984"/>
      <use xlink:href="#DejaVuSans-63" x="393.314453"/>
      <use xlink:href="#DejaVuSans-75" x="448.294922"/>
      <use xlink:href="#DejaVuSans-72" x="511.673828"/>
      <use xlink:href="#DejaVuSans-61" x="552.787109"/>
      <use xlink:href="#DejaVuSans-63" x="614.066406"/>
      <use xlink:href="#DejaVuSans-79" x="669.046875"/>
     </g>
    </g>
    <g id="line2d_25">
     <path d="M 216.18875 248.969937 
L 226.18875 248.969937 
L 236.18875 248.969937 
" style="fill: none; stroke: #ff7f0e; stroke-width: 1.5; stroke-linecap: square"/>
    </g>
    <g id="text_23">
     <!-- Validation Accuracy -->
     <g transform="translate(244.18875 252.469937) scale(0.1 -0.1)">
      <defs>
       <path id="DejaVuSans-56" d="M 1831 0 
L 50 4666 
L 709 4666 
L 2188 738 
L 3669 4666 
L 4325 4666 
L 2547 0 
L 1831 0 
z
" transform="scale(0.015625)"/>
       <path id="DejaVuSans-6c" d="M 603 4863 
L 1178 4863 
L 1178 0 
L 603 0 
L 603 4863 
z
" transform="scale(0.015625)"/>
       <path id="DejaVuSans-64" d="M 2906 2969 
L 2906 4863 
L 3481 4863 
L 3481 0 
L 2906 0 
L 2906 525 
Q 2725 213 2448 61 
Q 2172 -91 1784 -91 
Q 1150 -91 751 415 
Q 353 922 353 1747 
Q 353 2572 751 3078 
Q 1150 3584 1784 3584 
Q 2172 3584 2448 3432 
Q 2725 3281 2906 2969 
z
M 947 1747 
Q 947 1113 1208 752 
Q 1469 391 1925 391 
Q 2381 391 2643 752 
Q 2906 1113 2906 1747 
Q 2906 2381 2643 2742 
Q 2381 3103 1925 3103 
Q 1469 3103 1208 2742 
Q 947 2381 947 1747 
z
" transform="scale(0.015625)"/>
       <path id="DejaVuSans-74" d="M 1172 4494 
L 1172 3500 
L 2356 3500 
L 2356 3053 
L 1172 3053 
L 1172 1153 
Q 1172 725 1289 603 
Q 1406 481 1766 481 
L 2356 481 
L 2356 0 
L 1766 0 
Q 1100 0 847 248 
Q 594 497 594 1153 
L 594 3053 
L 172 3053 
L 172 3500 
L 594 3500 
L 594 4494 
L 1172 4494 
z
" transform="scale(0.015625)"/>
      </defs>
      <use xlink:href="#DejaVuSans-56"/>
      <use xlink:href="#DejaVuSans-61" x="60.658203"/>
      <use xlink:href="#DejaVuSans-6c" x="121.9375"/>
      <use xlink:href="#DejaVuSans-69" x="149.720703"/>
      <use xlink:href="#DejaVuSans-64" x="177.503906"/>
      <use xlink:href="#DejaVuSans-61" x="240.980469"/>
      <use xlink:href="#DejaVuSans-74" x="302.259766"/>
      <use xlink:href="#DejaVuSans-69" x="341.46875"/>
      <use xlink:href="#DejaVuSans-6f" x="369.251953"/>
      <use xlink:href="#DejaVuSans-6e" x="430.433594"/>
      <use xlink:href="#DejaVuSans-20" x="493.8125"/>
      <use xlink:href="#DejaVuSans-41" x="525.599609"/>
      <use xlink:href="#DejaVuSans-63" x="592.257812"/>
      <use xlink:href="#DejaVuSans-63" x="647.238281"/>
      <use xlink:href="#DejaVuSans-75" x="702.21875"/>
      <use xlink:href="#DejaVuSans-72" x="765.597656"/>
      <use xlink:href="#DejaVuSans-61" x="806.710938"/>
      <use xlink:href="#DejaVuSans-63" x="867.990234"/>
      <use xlink:href="#DejaVuSans-79" x="922.970703"/>
     </g>
    </g>
    <g id="line2d_26">
     <path d="M 216.18875 263.648062 
L 226.18875 263.648062 
L 236.18875 263.648062 
" style="fill: none; stroke: #2ca02c; stroke-width: 1.5; stroke-linecap: square"/>
    </g>
    <g id="text_24">
     <!-- Robust Validation Accuracy -->
     <g transform="translate(244.18875 267.148062) scale(0.1 -0.1)">
      <defs>
       <path id="DejaVuSans-52" d="M 2841 2188 
Q 3044 2119 3236 1894 
Q 3428 1669 3622 1275 
L 4263 0 
L 3584 0 
L 2988 1197 
Q 2756 1666 2539 1819 
Q 2322 1972 1947 1972 
L 1259 1972 
L 1259 0 
L 628 0 
L 628 4666 
L 2053 4666 
Q 2853 4666 3247 4331 
Q 3641 3997 3641 3322 
Q 3641 2881 3436 2590 
Q 3231 2300 2841 2188 
z
M 1259 4147 
L 1259 2491 
L 2053 2491 
Q 2509 2491 2742 2702 
Q 2975 2913 2975 3322 
Q 2975 3731 2742 3939 
Q 2509 4147 2053 4147 
L 1259 4147 
z
" transform="scale(0.015625)"/>
       <path id="DejaVuSans-62" d="M 3116 1747 
Q 3116 2381 2855 2742 
Q 2594 3103 2138 3103 
Q 1681 3103 1420 2742 
Q 1159 2381 1159 1747 
Q 1159 1113 1420 752 
Q 1681 391 2138 391 
Q 2594 391 2855 752 
Q 3116 1113 3116 1747 
z
M 1159 2969 
Q 1341 3281 1617 3432 
Q 1894 3584 2278 3584 
Q 2916 3584 3314 3078 
Q 3713 2572 3713 1747 
Q 3713 922 3314 415 
Q 2916 -91 2278 -91 
Q 1894 -91 1617 61 
Q 1341 213 1159 525 
L 1159 0 
L 581 0 
L 581 4863 
L 1159 4863 
L 1159 2969 
z
" transform="scale(0.015625)"/>
      </defs>
      <use xlink:href="#DejaVuSans-52"/>
      <use xlink:href="#DejaVuSans-6f" x="64.982422"/>
      <use xlink:href="#DejaVuSans-62" x="126.164062"/>
      <use xlink:href="#DejaVuSans-75" x="189.640625"/>
      <use xlink:href="#DejaVuSans-73" x="253.019531"/>
      <use xlink:href="#DejaVuSans-74" x="305.119141"/>
      <use xlink:href="#DejaVuSans-20" x="344.328125"/>
      <use xlink:href="#DejaVuSans-56" x="376.115234"/>
      <use xlink:href="#DejaVuSans-61" x="436.773438"/>
      <use xlink:href="#DejaVuSans-6c" x="498.052734"/>
      <use xlink:href="#DejaVuSans-69" x="525.835938"/>
      <use xlink:href="#DejaVuSans-64" x="553.619141"/>
      <use xlink:href="#DejaVuSans-61" x="617.095703"/>
      <use xlink:href="#DejaVuSans-74" x="678.375"/>
      <use xlink:href="#DejaVuSans-69" x="717.583984"/>
      <use xlink:href="#DejaVuSans-6f" x="745.367188"/>
      <use xlink:href="#DejaVuSans-6e" x="806.548828"/>
      <use xlink:href="#DejaVuSans-20" x="869.927734"/>
      <use xlink:href="#DejaVuSans-41" x="901.714844"/>
      <use xlink:href="#DejaVuSans-63" x="968.373047"/>
      <use xlink:href="#DejaVuSans-63" x="1023.353516"/>
      <use xlink:href="#DejaVuSans-75" x="1078.333984"/>
      <use xlink:href="#DejaVuSans-72" x="1141.712891"/>
      <use xlink:href="#DejaVuSans-61" x="1182.826172"/>
      <use xlink:href="#DejaVuSans-63" x="1244.105469"/>
      <use xlink:href="#DejaVuSans-79" x="1299.085938"/>
     </g>
    </g>
    <g id="line2d_27">
     <path d="M 216.18875 278.326188 
L 226.18875 278.326188 
L 236.18875 278.326188 
" style="fill: none; stroke: #d62728; stroke-width: 1.5; stroke-linecap: square"/>
    </g>
    <g id="text_25">
     <!-- SWA Validation Accuracy -->
     <g transform="translate(244.18875 281.826188) scale(0.1 -0.1)">
      <defs>
       <path id="DejaVuSans-53" d="M 3425 4513 
L 3425 3897 
Q 3066 4069 2747 4153 
Q 2428 4238 2131 4238 
Q 1616 4238 1336 4038 
Q 1056 3838 1056 3469 
Q 1056 3159 1242 3001 
Q 1428 2844 1947 2747 
L 2328 2669 
Q 3034 2534 3370 2195 
Q 3706 1856 3706 1288 
Q 3706 609 3251 259 
Q 2797 -91 1919 -91 
Q 1588 -91 1214 -16 
Q 841 59 441 206 
L 441 856 
Q 825 641 1194 531 
Q 1563 422 1919 422 
Q 2459 422 2753 634 
Q 3047 847 3047 1241 
Q 3047 1584 2836 1778 
Q 2625 1972 2144 2069 
L 1759 2144 
Q 1053 2284 737 2584 
Q 422 2884 422 3419 
Q 422 4038 858 4394 
Q 1294 4750 2059 4750 
Q 2388 4750 2728 4690 
Q 3069 4631 3425 4513 
z
" transform="scale(0.015625)"/>
       <path id="DejaVuSans-57" d="M 213 4666 
L 850 4666 
L 1831 722 
L 2809 4666 
L 3519 4666 
L 4500 722 
L 5478 4666 
L 6119 4666 
L 4947 0 
L 4153 0 
L 3169 4050 
L 2175 0 
L 1381 0 
L 213 4666 
z
" transform="scale(0.015625)"/>
      </defs>
      <use xlink:href="#DejaVuSans-53"/>
      <use xlink:href="#DejaVuSans-57" x="63.476562"/>
      <use xlink:href="#DejaVuSans-41" x="156.853516"/>
      <use xlink:href="#DejaVuSans-20" x="225.261719"/>
      <use xlink:href="#DejaVuSans-56" x="257.048828"/>
      <use xlink:href="#DejaVuSans-61" x="317.707031"/>
      <use xlink:href="#DejaVuSans-6c" x="378.986328"/>
      <use xlink:href="#DejaVuSans-69" x="406.769531"/>
      <use xlink:href="#DejaVuSans-64" x="434.552734"/>
      <use xlink:href="#DejaVuSans-61" x="498.029297"/>
      <use xlink:href="#DejaVuSans-74" x="559.308594"/>
      <use xlink:href="#DejaVuSans-69" x="598.517578"/>
      <use xlink:href="#DejaVuSans-6f" x="626.300781"/>
      <use xlink:href="#DejaVuSans-6e" x="687.482422"/>
      <use xlink:href="#DejaVuSans-20" x="750.861328"/>
      <use xlink:href="#DejaVuSans-41" x="782.648438"/>
      <use xlink:href="#DejaVuSans-63" x="849.306641"/>
      <use xlink:href="#DejaVuSans-63" x="904.287109"/>
      <use xlink:href="#DejaVuSans-75" x="959.267578"/>
      <use xlink:href="#DejaVuSans-72" x="1022.646484"/>
      <use xlink:href="#DejaVuSans-61" x="1063.759766"/>
      <use xlink:href="#DejaVuSans-63" x="1125.039062"/>
      <use xlink:href="#DejaVuSans-79" x="1180.019531"/>
     </g>
    </g>
    <g id="line2d_28">
     <path d="M 216.18875 293.004312 
L 226.18875 293.004312 
L 236.18875 293.004312 
" style="fill: none; stroke: #9467bd; stroke-width: 1.5; stroke-linecap: square"/>
    </g>
    <g id="text_26">
     <!-- SWA Robust Validation Accuracy -->
     <g transform="translate(244.18875 296.504312) scale(0.1 -0.1)">
      <use xlink:href="#DejaVuSans-53"/>
      <use xlink:href="#DejaVuSans-57" x="63.476562"/>
      <use xlink:href="#DejaVuSans-41" x="156.853516"/>
      <use xlink:href="#DejaVuSans-20" x="225.261719"/>
      <use xlink:href="#DejaVuSans-52" x="257.048828"/>
      <use xlink:href="#DejaVuSans-6f" x="322.03125"/>
      <use xlink:href="#DejaVuSans-62" x="383.212891"/>
      <use xlink:href="#DejaVuSans-75" x="446.689453"/>
      <use xlink:href="#DejaVuSans-73" x="510.068359"/>
      <use xlink:href="#DejaVuSans-74" x="562.167969"/>
      <use xlink:href="#DejaVuSans-20" x="601.376953"/>
      <use xlink:href="#DejaVuSans-56" x="633.164062"/>
      <use xlink:href="#DejaVuSans-61" x="693.822266"/>
      <use xlink:href="#DejaVuSans-6c" x="755.101562"/>
      <use xlink:href="#DejaVuSans-69" x="782.884766"/>
      <use xlink:href="#DejaVuSans-64" x="810.667969"/>
      <use xlink:href="#DejaVuSans-61" x="874.144531"/>
      <use xlink:href="#DejaVuSans-74" x="935.423828"/>
      <use xlink:href="#DejaVuSans-69" x="974.632812"/>
      <use xlink:href="#DejaVuSans-6f" x="1002.416016"/>
      <use xlink:href="#DejaVuSans-6e" x="1063.597656"/>
      <use xlink:href="#DejaVuSans-20" x="1126.976562"/>
      <use xlink:href="#DejaVuSans-41" x="1158.763672"/>
      <use xlink:href="#DejaVuSans-63" x="1225.421875"/>
      <use xlink:href="#DejaVuSans-63" x="1280.402344"/>
      <use xlink:href="#DejaVuSans-75" x="1335.382812"/>
      <use xlink:href="#DejaVuSans-72" x="1398.761719"/>
      <use xlink:href="#DejaVuSans-61" x="1439.875"/>
      <use xlink:href="#DejaVuSans-63" x="1501.154297"/>
      <use xlink:href="#DejaVuSans-79" x="1556.134766"/>
     </g>
    </g>
   </g>
  </g>
 </g>
 <defs>
  <clipPath id="p02f6182ac9">
   <rect x="57.6" y="41.472" width="357.12" height="266.112"/>
  </clipPath>
 </defs>
</svg>
