<?xml version="1.0" encoding="utf-8" standalone="no"?>
<!DOCTYPE svg PUBLIC "-//W3C//DTD SVG 1.1//EN"
  "http://www.w3.org/Graphics/SVG/1.1/DTD/svg11.dtd">
<svg xmlns:xlink="http://www.w3.org/1999/xlink" width="460.8pt" height="345.6pt" viewBox="0 0 460.8 345.6" xmlns="http://www.w3.org/2000/svg" version="1.1">
 <metadata>
  <rdf:RDF xmlns:dc="http://purl.org/dc/elements/1.1/" xmlns:cc="http://creativecommons.org/ns#" xmlns:rdf="http://www.w3.org/1999/02/22-rdf-syntax-ns#">
   <cc:Work>
    <dc:type rdf:resource="http://purl.org/dc/dcmitype/StillImage"/>
    <dc:date>2025-04-30T08:02:51.694111</dc:date>
    <dc:format>image/svg+xml</dc:format>
    <dc:creator>
     <cc:Agent>
      <dc:title>Matplotlib v3.9.1, https://matplotlib.org/</dc:title>
     </cc:Agent>
    </dc:creator>
   </cc:Work>
  </rdf:RDF>
 </metadata>
 <defs>
  <style type="text/css">*{stroke-linejoin: round; stroke-linecap: butt}</style>
 </defs>
 <g id="figure_1">
  <g id="patch_1">
   <path d="M 0 345.6 
L 460.8 345.6 
L 460.8 0 
L 0 0 
z
" style="fill: #ffffff"/>
  </g>
  <g id="axes_1">
   <g id="patch_2">
    <path d="M 57.6 307.584 
L 414.72 307.584 
L 414.72 41.472 
L 57.6 41.472 
z
" style="fill: #ffffff"/>
   </g>
   <g id="matplotlib.axis_1">
    <g id="xtick_1">
     <g id="line2d_1">
      <defs>
       <path id="mbd9bd4dac6" d="M 0 0 
L 0 3.5 
" style="stroke: #000000; stroke-width: 0.8"/>
      </defs>
      <g>
       <use xlink:href="#mbd9bd4dac6" x="73.832727" y="307.584" style="stroke: #000000; stroke-width: 0.8"/>
      </g>
     </g>
     <g id="text_1">
      <!-- 1 -->
      <g transform="translate(70.651477 322.182437) scale(0.1 -0.1)">
       <defs>
        <path id="DejaVuSans-31" d="M 794 531 
L 1825 531 
L 1825 4091 
L 703 3866 
L 703 4441 
L 1819 4666 
L 2450 4666 
L 2450 531 
L 3481 531 
L 3481 0 
L 794 0 
L 794 531 
z
" transform="scale(0.015625)"/>
       </defs>
       <use xlink:href="#DejaVuSans-31"/>
      </g>
     </g>
    </g>
    <g id="xtick_2">
     <g id="line2d_2">
      <g>
       <use xlink:href="#mbd9bd4dac6" x="109.664165" y="307.584" style="stroke: #000000; stroke-width: 0.8"/>
      </g>
     </g>
     <g id="text_2">
      <!-- 34 -->
      <g transform="translate(103.301665 322.182437) scale(0.1 -0.1)">
       <defs>
        <path id="DejaVuSans-33" d="M 2597 2516 
Q 3050 2419 3304 2112 
Q 3559 1806 3559 1356 
Q 3559 666 3084 287 
Q 2609 -91 1734 -91 
Q 1441 -91 1130 -33 
Q 819 25 488 141 
L 488 750 
Q 750 597 1062 519 
Q 1375 441 1716 441 
Q 2309 441 2620 675 
Q 2931 909 2931 1356 
Q 2931 1769 2642 2001 
Q 2353 2234 1838 2234 
L 1294 2234 
L 1294 2753 
L 1863 2753 
Q 2328 2753 2575 2939 
Q 2822 3125 2822 3475 
Q 2822 3834 2567 4026 
Q 2313 4219 1838 4219 
Q 1578 4219 1281 4162 
Q 984 4106 628 3988 
L 628 4550 
Q 988 4650 1302 4700 
Q 1616 4750 1894 4750 
Q 2613 4750 3031 4423 
Q 3450 4097 3450 3541 
Q 3450 3153 3228 2886 
Q 3006 2619 2597 2516 
z
" transform="scale(0.015625)"/>
        <path id="DejaVuSans-34" d="M 2419 4116 
L 825 1625 
L 2419 1625 
L 2419 4116 
z
M 2253 4666 
L 3047 4666 
L 3047 1625 
L 3713 1625 
L 3713 1100 
L 3047 1100 
L 3047 0 
L 2419 0 
L 2419 1100 
L 313 1100 
L 313 1709 
L 2253 4666 
z
" transform="scale(0.015625)"/>
       </defs>
       <use xlink:href="#DejaVuSans-33"/>
       <use xlink:href="#DejaVuSans-34" x="63.623047"/>
      </g>
     </g>
    </g>
    <g id="xtick_3">
     <g id="line2d_3">
      <g>
       <use xlink:href="#mbd9bd4dac6" x="145.495604" y="307.584" style="stroke: #000000; stroke-width: 0.8"/>
      </g>
     </g>
     <g id="text_3">
      <!-- 67 -->
      <g transform="translate(139.133104 322.182437) scale(0.1 -0.1)">
       <defs>
        <path id="DejaVuSans-36" d="M 2113 2584 
Q 1688 2584 1439 2293 
Q 1191 2003 1191 1497 
Q 1191 994 1439 701 
Q 1688 409 2113 409 
Q 2538 409 2786 701 
Q 3034 994 3034 1497 
Q 3034 2003 2786 2293 
Q 2538 2584 2113 2584 
z
M 3366 4563 
L 3366 3988 
Q 3128 4100 2886 4159 
Q 2644 4219 2406 4219 
Q 1781 4219 1451 3797 
Q 1122 3375 1075 2522 
Q 1259 2794 1537 2939 
Q 1816 3084 2150 3084 
Q 2853 3084 3261 2657 
Q 3669 2231 3669 1497 
Q 3669 778 3244 343 
Q 2819 -91 2113 -91 
Q 1303 -91 875 529 
Q 447 1150 447 2328 
Q 447 3434 972 4092 
Q 1497 4750 2381 4750 
Q 2619 4750 2861 4703 
Q 3103 4656 3366 4563 
z
" transform="scale(0.015625)"/>
        <path id="DejaVuSans-37" d="M 525 4666 
L 3525 4666 
L 3525 4397 
L 1831 0 
L 1172 0 
L 2766 4134 
L 525 4134 
L 525 4666 
z
" transform="scale(0.015625)"/>
       </defs>
       <use xlink:href="#DejaVuSans-36"/>
       <use xlink:href="#DejaVuSans-37" x="63.623047"/>
      </g>
     </g>
    </g>
    <g id="xtick_4">
     <g id="line2d_4">
      <g>
       <use xlink:href="#mbd9bd4dac6" x="181.327042" y="307.584" style="stroke: #000000; stroke-width: 0.8"/>
      </g>
     </g>
     <g id="text_4">
      <!-- 100 -->
      <g transform="translate(171.783292 322.182437) scale(0.1 -0.1)">
       <defs>
        <path id="DejaVuSans-30" d="M 2034 4250 
Q 1547 4250 1301 3770 
Q 1056 3291 1056 2328 
Q 1056 1369 1301 889 
Q 1547 409 2034 409 
Q 2525 409 2770 889 
Q 3016 1369 3016 2328 
Q 3016 3291 2770 3770 
Q 2525 4250 2034 4250 
z
M 2034 4750 
Q 2819 4750 3233 4129 
Q 3647 3509 3647 2328 
Q 3647 1150 3233 529 
Q 2819 -91 2034 -91 
Q 1250 -91 836 529 
Q 422 1150 422 2328 
Q 422 3509 836 4129 
Q 1250 4750 2034 4750 
z
" transform="scale(0.015625)"/>
       </defs>
       <use xlink:href="#DejaVuSans-31"/>
       <use xlink:href="#DejaVuSans-30" x="63.623047"/>
       <use xlink:href="#DejaVuSans-30" x="127.246094"/>
      </g>
     </g>
    </g>
    <g id="xtick_5">
     <g id="line2d_5">
      <g>
       <use xlink:href="#mbd9bd4dac6" x="217.15848" y="307.584" style="stroke: #000000; stroke-width: 0.8"/>
      </g>
     </g>
     <g id="text_5">
      <!-- 133 -->
      <g transform="translate(207.61473 322.182437) scale(0.1 -0.1)">
       <use xlink:href="#DejaVuSans-31"/>
       <use xlink:href="#DejaVuSans-33" x="63.623047"/>
       <use xlink:href="#DejaVuSans-33" x="127.246094"/>
      </g>
     </g>
    </g>
    <g id="xtick_6">
     <g id="line2d_6">
      <g>
       <use xlink:href="#mbd9bd4dac6" x="254.075719" y="307.584" style="stroke: #000000; stroke-width: 0.8"/>
      </g>
     </g>
     <g id="text_6">
      <!-- 167 -->
      <g transform="translate(244.531969 322.182437) scale(0.1 -0.1)">
       <use xlink:href="#DejaVuSans-31"/>
       <use xlink:href="#DejaVuSans-36" x="63.623047"/>
       <use xlink:href="#DejaVuSans-37" x="127.246094"/>
      </g>
     </g>
    </g>
    <g id="xtick_7">
     <g id="line2d_7">
      <g>
       <use xlink:href="#mbd9bd4dac6" x="289.907157" y="307.584" style="stroke: #000000; stroke-width: 0.8"/>
      </g>
     </g>
     <g id="text_7">
      <!-- 200 -->
      <g transform="translate(280.363407 322.182437) scale(0.1 -0.1)">
       <defs>
        <path id="DejaVuSans-32" d="M 1228 531 
L 3431 531 
L 3431 0 
L 469 0 
L 469 531 
Q 828 903 1448 1529 
Q 2069 2156 2228 2338 
Q 2531 2678 2651 2914 
Q 2772 3150 2772 3378 
Q 2772 3750 2511 3984 
Q 2250 4219 1831 4219 
Q 1534 4219 1204 4116 
Q 875 4013 500 3803 
L 500 4441 
Q 881 4594 1212 4672 
Q 1544 4750 1819 4750 
Q 2544 4750 2975 4387 
Q 3406 4025 3406 3419 
Q 3406 3131 3298 2873 
Q 3191 2616 2906 2266 
Q 2828 2175 2409 1742 
Q 1991 1309 1228 531 
z
" transform="scale(0.015625)"/>
       </defs>
       <use xlink:href="#DejaVuSans-32"/>
       <use xlink:href="#DejaVuSans-30" x="63.623047"/>
       <use xlink:href="#DejaVuSans-30" x="127.246094"/>
      </g>
     </g>
    </g>
    <g id="xtick_8">
     <g id="line2d_8">
      <g>
       <use xlink:href="#mbd9bd4dac6" x="325.738595" y="307.584" style="stroke: #000000; stroke-width: 0.8"/>
      </g>
     </g>
     <g id="text_8">
      <!-- 233 -->
      <g transform="translate(316.194845 322.182437) scale(0.1 -0.1)">
       <use xlink:href="#DejaVuSans-32"/>
       <use xlink:href="#DejaVuSans-33" x="63.623047"/>
       <use xlink:href="#DejaVuSans-33" x="127.246094"/>
      </g>
     </g>
    </g>
    <g id="xtick_9">
     <g id="line2d_9">
      <g>
       <use xlink:href="#mbd9bd4dac6" x="361.570033" y="307.584" style="stroke: #000000; stroke-width: 0.8"/>
      </g>
     </g>
     <g id="text_9">
      <!-- 266 -->
      <g transform="translate(352.026283 322.182437) scale(0.1 -0.1)">
       <use xlink:href="#DejaVuSans-32"/>
       <use xlink:href="#DejaVuSans-36" x="63.623047"/>
       <use xlink:href="#DejaVuSans-36" x="127.246094"/>
      </g>
     </g>
    </g>
    <g id="xtick_10">
     <g id="line2d_10">
      <g>
       <use xlink:href="#mbd9bd4dac6" x="398.487273" y="307.584" style="stroke: #000000; stroke-width: 0.8"/>
      </g>
     </g>
     <g id="text_10">
      <!-- 300 -->
      <g transform="translate(388.943523 322.182437) scale(0.1 -0.1)">
       <use xlink:href="#DejaVuSans-33"/>
       <use xlink:href="#DejaVuSans-30" x="63.623047"/>
       <use xlink:href="#DejaVuSans-30" x="127.246094"/>
      </g>
     </g>
    </g>
    <g id="text_11">
     <!-- Epochs -->
     <g transform="translate(218.244375 335.860562) scale(0.1 -0.1)">
      <defs>
       <path id="DejaVuSans-45" d="M 628 4666 
L 3578 4666 
L 3578 4134 
L 1259 4134 
L 1259 2753 
L 3481 2753 
L 3481 2222 
L 1259 2222 
L 1259 531 
L 3634 531 
L 3634 0 
L 628 0 
L 628 4666 
z
" transform="scale(0.015625)"/>
       <path id="DejaVuSans-70" d="M 1159 525 
L 1159 -1331 
L 581 -1331 
L 581 3500 
L 1159 3500 
L 1159 2969 
Q 1341 3281 1617 3432 
Q 1894 3584 2278 3584 
Q 2916 3584 3314 3078 
Q 3713 2572 3713 1747 
Q 3713 922 3314 415 
Q 2916 -91 2278 -91 
Q 1894 -91 1617 61 
Q 1341 213 1159 525 
z
M 3116 1747 
Q 3116 2381 2855 2742 
Q 2594 3103 2138 3103 
Q 1681 3103 1420 2742 
Q 1159 2381 1159 1747 
Q 1159 1113 1420 752 
Q 1681 391 2138 391 
Q 2594 391 2855 752 
Q 3116 1113 3116 1747 
z
" transform="scale(0.015625)"/>
       <path id="DejaVuSans-6f" d="M 1959 3097 
Q 1497 3097 1228 2736 
Q 959 2375 959 1747 
Q 959 1119 1226 758 
Q 1494 397 1959 397 
Q 2419 397 2687 759 
Q 2956 1122 2956 1747 
Q 2956 2369 2687 2733 
Q 2419 3097 1959 3097 
z
M 1959 3584 
Q 2709 3584 3137 3096 
Q 3566 2609 3566 1747 
Q 3566 888 3137 398 
Q 2709 -91 1959 -91 
Q 1206 -91 779 398 
Q 353 888 353 1747 
Q 353 2609 779 3096 
Q 1206 3584 1959 3584 
z
" transform="scale(0.015625)"/>
       <path id="DejaVuSans-63" d="M 3122 3366 
L 3122 2828 
Q 2878 2963 2633 3030 
Q 2388 3097 2138 3097 
Q 1578 3097 1268 2742 
Q 959 2388 959 1747 
Q 959 1106 1268 751 
Q 1578 397 2138 397 
Q 2388 397 2633 464 
Q 2878 531 3122 666 
L 3122 134 
Q 2881 22 2623 -34 
Q 2366 -91 2075 -91 
Q 1284 -91 818 406 
Q 353 903 353 1747 
Q 353 2603 823 3093 
Q 1294 3584 2113 3584 
Q 2378 3584 2631 3529 
Q 2884 3475 3122 3366 
z
" transform="scale(0.015625)"/>
       <path id="DejaVuSans-68" d="M 3513 2113 
L 3513 0 
L 2938 0 
L 2938 2094 
Q 2938 2591 2744 2837 
Q 2550 3084 2163 3084 
Q 1697 3084 1428 2787 
Q 1159 2491 1159 1978 
L 1159 0 
L 581 0 
L 581 4863 
L 1159 4863 
L 1159 2956 
Q 1366 3272 1645 3428 
Q 1925 3584 2291 3584 
Q 2894 3584 3203 3211 
Q 3513 2838 3513 2113 
z
" transform="scale(0.015625)"/>
       <path id="DejaVuSans-73" d="M 2834 3397 
L 2834 2853 
Q 2591 2978 2328 3040 
Q 2066 3103 1784 3103 
Q 1356 3103 1142 2972 
Q 928 2841 928 2578 
Q 928 2378 1081 2264 
Q 1234 2150 1697 2047 
L 1894 2003 
Q 2506 1872 2764 1633 
Q 3022 1394 3022 966 
Q 3022 478 2636 193 
Q 2250 -91 1575 -91 
Q 1294 -91 989 -36 
Q 684 19 347 128 
L 347 722 
Q 666 556 975 473 
Q 1284 391 1588 391 
Q 1994 391 2212 530 
Q 2431 669 2431 922 
Q 2431 1156 2273 1281 
Q 2116 1406 1581 1522 
L 1381 1569 
Q 847 1681 609 1914 
Q 372 2147 372 2553 
Q 372 3047 722 3315 
Q 1072 3584 1716 3584 
Q 2034 3584 2315 3537 
Q 2597 3491 2834 3397 
z
" transform="scale(0.015625)"/>
      </defs>
      <use xlink:href="#DejaVuSans-45"/>
      <use xlink:href="#DejaVuSans-70" x="63.183594"/>
      <use xlink:href="#DejaVuSans-6f" x="126.660156"/>
      <use xlink:href="#DejaVuSans-63" x="187.841797"/>
      <use xlink:href="#DejaVuSans-68" x="242.822266"/>
      <use xlink:href="#DejaVuSans-73" x="306.201172"/>
     </g>
    </g>
   </g>
   <g id="matplotlib.axis_2">
    <g id="ytick_1">
     <g id="line2d_11">
      <defs>
       <path id="m8e80aecc6e" d="M 0 0 
L -3.5 0 
" style="stroke: #000000; stroke-width: 0.8"/>
      </defs>
      <g>
       <use xlink:href="#m8e80aecc6e" x="57.6" y="278.912771" style="stroke: #000000; stroke-width: 0.8"/>
      </g>
     </g>
     <g id="text_12">
      <!-- 10 -->
      <g transform="translate(37.875 282.71199) scale(0.1 -0.1)">
       <use xlink:href="#DejaVuSans-31"/>
       <use xlink:href="#DejaVuSans-30" x="63.623047"/>
      </g>
     </g>
    </g>
    <g id="ytick_2">
     <g id="line2d_12">
      <g>
       <use xlink:href="#m8e80aecc6e" x="57.6" y="246.268302" style="stroke: #000000; stroke-width: 0.8"/>
      </g>
     </g>
     <g id="text_13">
      <!-- 20 -->
      <g transform="translate(37.875 250.06752) scale(0.1 -0.1)">
       <use xlink:href="#DejaVuSans-32"/>
       <use xlink:href="#DejaVuSans-30" x="63.623047"/>
      </g>
     </g>
    </g>
    <g id="ytick_3">
     <g id="line2d_13">
      <g>
       <use xlink:href="#m8e80aecc6e" x="57.6" y="213.623832" style="stroke: #000000; stroke-width: 0.8"/>
      </g>
     </g>
     <g id="text_14">
      <!-- 30 -->
      <g transform="translate(37.875 217.423051) scale(0.1 -0.1)">
       <use xlink:href="#DejaVuSans-33"/>
       <use xlink:href="#DejaVuSans-30" x="63.623047"/>
      </g>
     </g>
    </g>
    <g id="ytick_4">
     <g id="line2d_14">
      <g>
       <use xlink:href="#m8e80aecc6e" x="57.6" y="180.979363" style="stroke: #000000; stroke-width: 0.8"/>
      </g>
     </g>
     <g id="text_15">
      <!-- 40 -->
      <g transform="translate(37.875 184.778582) scale(0.1 -0.1)">
       <use xlink:href="#DejaVuSans-34"/>
       <use xlink:href="#DejaVuSans-30" x="63.623047"/>
      </g>
     </g>
    </g>
    <g id="ytick_5">
     <g id="line2d_15">
      <g>
       <use xlink:href="#m8e80aecc6e" x="57.6" y="148.334894" style="stroke: #000000; stroke-width: 0.8"/>
      </g>
     </g>
     <g id="text_16">
      <!-- 50 -->
      <g transform="translate(37.875 152.134113) scale(0.1 -0.1)">
       <defs>
        <path id="DejaVuSans-35" d="M 691 4666 
L 3169 4666 
L 3169 4134 
L 1269 4134 
L 1269 2991 
Q 1406 3038 1543 3061 
Q 1681 3084 1819 3084 
Q 2600 3084 3056 2656 
Q 3513 2228 3513 1497 
Q 3513 744 3044 326 
Q 2575 -91 1722 -91 
Q 1428 -91 1123 -41 
Q 819 9 494 109 
L 494 744 
Q 775 591 1075 516 
Q 1375 441 1709 441 
Q 2250 441 2565 725 
Q 2881 1009 2881 1497 
Q 2881 1984 2565 2268 
Q 2250 2553 1709 2553 
Q 1456 2553 1204 2497 
Q 953 2441 691 2322 
L 691 4666 
z
" transform="scale(0.015625)"/>
       </defs>
       <use xlink:href="#DejaVuSans-35"/>
       <use xlink:href="#DejaVuSans-30" x="63.623047"/>
      </g>
     </g>
    </g>
    <g id="ytick_6">
     <g id="line2d_16">
      <g>
       <use xlink:href="#m8e80aecc6e" x="57.6" y="115.690425" style="stroke: #000000; stroke-width: 0.8"/>
      </g>
     </g>
     <g id="text_17">
      <!-- 60 -->
      <g transform="translate(37.875 119.489644) scale(0.1 -0.1)">
       <use xlink:href="#DejaVuSans-36"/>
       <use xlink:href="#DejaVuSans-30" x="63.623047"/>
      </g>
     </g>
    </g>
    <g id="ytick_7">
     <g id="line2d_17">
      <g>
       <use xlink:href="#m8e80aecc6e" x="57.6" y="83.045956" style="stroke: #000000; stroke-width: 0.8"/>
      </g>
     </g>
     <g id="text_18">
      <!-- 70 -->
      <g transform="translate(37.875 86.845174) scale(0.1 -0.1)">
       <use xlink:href="#DejaVuSans-37"/>
       <use xlink:href="#DejaVuSans-30" x="63.623047"/>
      </g>
     </g>
    </g>
    <g id="ytick_8">
     <g id="line2d_18">
      <g>
       <use xlink:href="#m8e80aecc6e" x="57.6" y="50.401486" style="stroke: #000000; stroke-width: 0.8"/>
      </g>
     </g>
     <g id="text_19">
      <!-- 80 -->
      <g transform="translate(37.875 54.200705) scale(0.1 -0.1)">
       <defs>
        <path id="DejaVuSans-38" d="M 2034 2216 
Q 1584 2216 1326 1975 
Q 1069 1734 1069 1313 
Q 1069 891 1326 650 
Q 1584 409 2034 409 
Q 2484 409 2743 651 
Q 3003 894 3003 1313 
Q 3003 1734 2745 1975 
Q 2488 2216 2034 2216 
z
M 1403 2484 
Q 997 2584 770 2862 
Q 544 3141 544 3541 
Q 544 4100 942 4425 
Q 1341 4750 2034 4750 
Q 2731 4750 3128 4425 
Q 3525 4100 3525 3541 
Q 3525 3141 3298 2862 
Q 3072 2584 2669 2484 
Q 3125 2378 3379 2068 
Q 3634 1759 3634 1313 
Q 3634 634 3220 271 
Q 2806 -91 2034 -91 
Q 1263 -91 848 271 
Q 434 634 434 1313 
Q 434 1759 690 2068 
Q 947 2378 1403 2484 
z
M 1172 3481 
Q 1172 3119 1398 2916 
Q 1625 2713 2034 2713 
Q 2441 2713 2670 2916 
Q 2900 3119 2900 3481 
Q 2900 3844 2670 4047 
Q 2441 4250 2034 4250 
Q 1625 4250 1398 4047 
Q 1172 3844 1172 3481 
z
" transform="scale(0.015625)"/>
       </defs>
       <use xlink:href="#DejaVuSans-38"/>
       <use xlink:href="#DejaVuSans-30" x="63.623047"/>
      </g>
     </g>
    </g>
    <g id="text_20">
     <!-- Accuracy -->
     <g transform="translate(31.795312 197.356125) rotate(-90) scale(0.1 -0.1)">
      <defs>
       <path id="DejaVuSans-41" d="M 2188 4044 
L 1331 1722 
L 3047 1722 
L 2188 4044 
z
M 1831 4666 
L 2547 4666 
L 4325 0 
L 3669 0 
L 3244 1197 
L 1141 1197 
L 716 0 
L 50 0 
L 1831 4666 
z
" transform="scale(0.015625)"/>
       <path id="DejaVuSans-75" d="M 544 1381 
L 544 3500 
L 1119 3500 
L 1119 1403 
Q 1119 906 1312 657 
Q 1506 409 1894 409 
Q 2359 409 2629 706 
Q 2900 1003 2900 1516 
L 2900 3500 
L 3475 3500 
L 3475 0 
L 2900 0 
L 2900 538 
Q 2691 219 2414 64 
Q 2138 -91 1772 -91 
Q 1169 -91 856 284 
Q 544 659 544 1381 
z
M 1991 3584 
L 1991 3584 
z
" transform="scale(0.015625)"/>
       <path id="DejaVuSans-72" d="M 2631 2963 
Q 2534 3019 2420 3045 
Q 2306 3072 2169 3072 
Q 1681 3072 1420 2755 
Q 1159 2438 1159 1844 
L 1159 0 
L 581 0 
L 581 3500 
L 1159 3500 
L 1159 2956 
Q 1341 3275 1631 3429 
Q 1922 3584 2338 3584 
Q 2397 3584 2469 3576 
Q 2541 3569 2628 3553 
L 2631 2963 
z
" transform="scale(0.015625)"/>
       <path id="DejaVuSans-61" d="M 2194 1759 
Q 1497 1759 1228 1600 
Q 959 1441 959 1056 
Q 959 750 1161 570 
Q 1363 391 1709 391 
Q 2188 391 2477 730 
Q 2766 1069 2766 1631 
L 2766 1759 
L 2194 1759 
z
M 3341 1997 
L 3341 0 
L 2766 0 
L 2766 531 
Q 2569 213 2275 61 
Q 1981 -91 1556 -91 
Q 1019 -91 701 211 
Q 384 513 384 1019 
Q 384 1609 779 1909 
Q 1175 2209 1959 2209 
L 2766 2209 
L 2766 2266 
Q 2766 2663 2505 2880 
Q 2244 3097 1772 3097 
Q 1472 3097 1187 3025 
Q 903 2953 641 2809 
L 641 3341 
Q 956 3463 1253 3523 
Q 1550 3584 1831 3584 
Q 2591 3584 2966 3190 
Q 3341 2797 3341 1997 
z
" transform="scale(0.015625)"/>
       <path id="DejaVuSans-79" d="M 2059 -325 
Q 1816 -950 1584 -1140 
Q 1353 -1331 966 -1331 
L 506 -1331 
L 506 -850 
L 844 -850 
Q 1081 -850 1212 -737 
Q 1344 -625 1503 -206 
L 1606 56 
L 191 3500 
L 800 3500 
L 1894 763 
L 2988 3500 
L 3597 3500 
L 2059 -325 
z
" transform="scale(0.015625)"/>
      </defs>
      <use xlink:href="#DejaVuSans-41"/>
      <use xlink:href="#DejaVuSans-63" x="66.658203"/>
      <use xlink:href="#DejaVuSans-63" x="121.638672"/>
      <use xlink:href="#DejaVuSans-75" x="176.619141"/>
      <use xlink:href="#DejaVuSans-72" x="239.998047"/>
      <use xlink:href="#DejaVuSans-61" x="281.111328"/>
      <use xlink:href="#DejaVuSans-63" x="342.390625"/>
      <use xlink:href="#DejaVuSans-79" x="397.371094"/>
     </g>
    </g>
   </g>
   <g id="line2d_19">
    <path d="M 73.832727 295.488 
L 74.918528 283.940019 
L 77.090131 256.575793 
L 78.175932 245.248162 
L 79.261733 235.438499 
L 81.433335 218.634758 
L 82.519137 209.15154 
L 83.604938 202.826674 
L 89.033943 177.274216 
L 90.119745 173.618035 
L 91.205546 171.104411 
L 92.291347 167.350297 
L 93.377148 165.62014 
L 94.462949 164.183784 
L 95.54875 193.041495 
L 96.634552 191.213404 
L 97.720353 187.557224 
L 99.891955 179.20024 
L 100.977756 176.996738 
L 102.063557 172.891696 
L 103.149358 169.390577 
L 104.23516 167.464553 
L 105.320961 163.335028 
L 106.406762 161.376359 
L 107.492563 160.078742 
L 109.664165 153.174437 
L 110.749967 151.256574 
L 111.835768 149.926312 
L 112.921569 145.576436 
L 115.093171 141.340817 
L 116.178972 138.500748 
L 117.264773 137.146002 
L 118.350575 134.297772 
L 119.436376 132.184043 
L 120.522177 128.846146 
L 121.607978 127.907617 
L 122.693779 123.851542 
L 123.77958 124.300404 
L 124.865382 121.044118 
L 125.951183 119.942367 
L 127.036984 117.453226 
L 128.122785 114.449935 
L 129.208586 114.205102 
L 130.294387 111.699638 
L 131.380189 111.397677 
L 132.46599 108.027136 
L 133.551791 109.259464 
L 134.637592 107.219185 
L 135.723393 107.921041 
L 136.809194 106.370429 
L 137.894995 107.455858 
L 138.980797 141.520361 
L 140.066598 143.960535 
L 141.152399 143.519835 
L 142.2382 141.267366 
L 143.324001 141.618295 
L 144.409802 140.328838 
L 145.495604 138.549714 
L 146.581405 137.929469 
L 147.667206 138.239592 
L 148.753007 134.999628 
L 149.838808 134.558928 
L 150.924609 132.902221 
L 152.01041 132.477843 
L 153.096212 131.163903 
L 154.182013 129.474552 
L 155.267814 128.593151 
L 156.353615 127.874973 
L 157.439416 126.381489 
L 158.525217 124.341209 
L 160.69682 122.455991 
L 161.782621 122.921175 
L 162.868422 119.975011 
L 163.954223 119.934206 
L 165.040024 118.032666 
L 166.125825 117.485871 
L 167.211627 115.274208 
L 168.297428 115.502719 
L 169.383229 112.393333 
L 170.46903 113.331862 
L 171.554831 112.124017 
L 172.640632 110.17351 
L 173.726434 109.234981 
L 174.812235 108.010813 
L 175.898036 107.69253 
L 176.983837 107.937363 
L 178.069638 104.950394 
L 179.155439 103.105982 
L 180.24124 101.588014 
L 182.412843 100.502586 
L 183.498644 98.984618 
L 184.584445 98.421501 
L 185.670246 96.626055 
L 186.756047 95.736493 
L 187.841849 93.769664 
L 188.92765 93.271836 
L 190.013451 92.194568 
L 191.099252 90.831662 
L 192.185053 89.958422 
L 193.270854 88.350682 
L 194.356656 88.11401 
L 195.442457 86.72662 
L 196.528258 86.530753 
L 197.614059 82.964344 
L 198.69986 84.221157 
L 199.785661 82.841928 
L 200.871462 80.687393 
L 201.957264 80.507848 
L 203.043065 80.165081 
L 204.128866 78.753208 
L 207.386269 77.023051 
L 208.472071 75.913139 
L 209.557872 74.419655 
L 210.643673 74.795066 
L 211.729474 74.640005 
L 212.815275 74.199305 
L 213.901076 74.517588 
L 214.986877 72.061092 
L 216.072679 72.256959 
L 217.15848 72.909848 
L 218.244281 71.424525 
L 219.330082 71.530619 
L 220.415883 70.991985 
L 221.501684 71.816258 
L 222.587486 70.126907 
L 223.673287 70.020812 
L 224.759088 71.187852 
L 225.844889 108.875892 
L 226.93069 114.213263 
L 228.016491 115.625136 
L 229.102292 115.551686 
L 230.188094 114.074524 
L 231.273895 112.238272 
L 232.359696 113.266573 
L 233.445497 112.344367 
L 234.531298 113.013578 
L 235.617099 111.993439 
L 236.702901 111.381355 
L 237.788702 112.352528 
L 238.874503 110.752949 
L 239.960304 109.618554 
L 241.046105 110.10006 
L 242.131906 109.789937 
L 243.217708 109.618554 
L 244.303509 108.304614 
L 245.38931 108.125069 
L 246.475111 106.280657 
L 247.560912 107.357924 
L 248.646713 105.79099 
L 249.732514 105.146261 
L 250.818316 104.33015 
L 251.904117 104.509694 
L 252.989918 102.355159 
L 254.075719 104.085316 
L 255.16152 101.48192 
L 256.247321 101.767559 
L 257.333123 101.906298 
L 258.418924 101.383986 
L 259.504725 100.16798 
L 260.590526 99.702796 
L 261.676327 99.44164 
L 262.762128 100.918803 
L 263.847929 98.217473 
L 264.933731 97.850222 
L 266.019532 98.086895 
L 267.105333 96.748472 
L 268.191134 97.523778 
L 269.276935 97.042272 
L 271.448538 94.781642 
L 272.534339 95.777299 
L 274.705941 93.892081 
L 275.791742 93.418736 
L 277.963344 92.71688 
L 279.049146 91.647773 
L 280.134947 91.027528 
L 281.220748 90.121644 
L 282.306549 90.570506 
L 283.39235 90.056355 
L 284.478151 90.546022 
L 285.563953 88.791382 
L 286.649754 88.244587 
L 287.735555 88.456776 
L 288.821356 86.693975 
L 289.907157 87.273414 
L 290.992958 86.693975 
L 292.07876 86.824553 
L 293.164561 84.971979 
L 294.250362 85.396357 
L 295.336163 86.187986 
L 296.421964 83.715167 
L 297.507765 83.037795 
L 298.593566 82.9317 
L 299.679368 82.140072 
L 300.765169 82.686867 
L 301.85097 82.311455 
L 302.936771 80.001859 
L 304.022572 81.160738 
L 305.108373 80.37727 
L 306.194175 79.86312 
L 307.279976 79.618286 
L 308.365777 78.051352 
L 309.451578 78.026869 
L 310.537379 77.210757 
L 312.708981 76.182456 
L 313.794783 77.284207 
L 314.880584 76.459934 
L 315.966385 75.194961 
L 317.052186 74.96645 
L 318.137987 74.860355 
L 319.223788 74.101371 
L 320.30959 73.65251 
L 321.395391 72.207992 
L 322.481192 71.710164 
L 323.566993 72.909848 
L 324.652794 71.39188 
L 325.738595 70.738991 
L 327.910198 69.180217 
L 328.995999 69.531145 
L 330.0818 69.302634 
L 331.167601 68.910901 
L 332.253402 68.037661 
L 334.425005 67.188905 
L 335.510806 66.49521 
L 336.596607 66.674754 
L 337.682408 64.846664 
L 338.768209 65.719904 
L 339.85401 64.781375 
L 342.025613 63.434791 
L 343.111414 63.287891 
L 344.197215 62.504423 
L 345.283016 62.455457 
L 346.368817 61.647506 
L 347.454618 61.525089 
L 348.54042 60.211149 
L 349.626221 60.562078 
L 350.712022 60.35805 
L 351.797823 59.933671 
L 352.883624 58.750309 
L 353.969425 59.26446 
L 355.055227 59.076754 
L 356.141028 58.236159 
L 357.226829 58.325931 
L 358.31263 57.868909 
L 359.398431 55.942885 
L 360.484232 56.326458 
L 361.570033 55.804146 
L 362.655835 55.436896 
L 363.741636 56.326458 
L 364.827437 55.183901 
L 365.913238 55.289996 
L 366.999039 54.979873 
L 368.08484 55.085968 
L 369.170642 56.326458 
L 370.256443 57.852587 
L 371.342244 58.676859 
L 372.428045 58.774793 
L 373.513846 59.297104 
L 374.599647 59.068593 
L 375.685448 60.105055 
L 376.77125 60.2846 
L 377.857051 59.680677 
L 378.942852 60.194827 
L 380.028653 59.272621 
L 381.114454 60.039766 
L 382.200255 59.223654 
L 383.286057 59.158365 
L 384.371858 59.819416 
L 385.457659 59.574582 
L 386.54346 59.48481 
L 388.715062 60.366211 
L 389.800863 59.444004 
L 390.886665 59.362393 
L 391.972466 60.496789 
L 393.058267 59.41136 
L 394.144068 59.55826 
L 395.229869 60.766105 
L 396.31567 59.011465 
L 397.401472 58.921693 
L 398.487273 59.974477 
L 398.487273 59.974477 
" clip-path="url(#pd7ab8644a6)" style="fill: none; stroke: #1f77b4; stroke-width: 1.5; stroke-linecap: square"/>
   </g>
   <g id="line2d_20">
    <path d="M 73.832727 278.618971 
L 74.918528 266.801673 
L 76.00433 258.150888 
L 77.090131 234.255137 
L 78.175932 213.656477 
L 79.261733 198.803243 
L 80.347534 200.370178 
L 81.433335 183.95001 
L 82.519137 170.696355 
L 83.604938 164.755062 
L 84.690739 155.124944 
L 85.77654 152.61132 
L 86.862341 146.310937 
L 87.948142 138.182464 
L 89.033943 142.915912 
L 90.119745 127.670945 
L 91.205546 128.813501 
L 92.291347 124.765587 
L 94.462949 123.427164 
L 95.54875 161.686482 
L 96.634552 157.083612 
L 97.720353 142.132445 
L 98.806154 136.582885 
L 99.891955 136.746107 
L 100.977756 143.438224 
L 102.063557 132.241171 
L 104.23516 116.930915 
L 105.320961 118.530494 
L 106.406762 117.387937 
L 107.492563 110.597888 
L 108.578364 113.437956 
L 109.664165 111.740444 
L 110.749967 107.69253 
L 111.835768 106.615262 
L 112.921569 103.840483 
L 114.00737 100.673969 
L 115.093171 93.851275 
L 116.178972 97.997123 
L 117.264773 90.390961 
L 118.350575 89.476916 
L 119.436376 91.40294 
L 120.522177 88.367004 
L 121.607978 86.277758 
L 122.693779 86.245114 
L 123.77958 87.257092 
L 124.865382 83.698845 
L 125.951183 80.826132 
L 127.036984 80.630265 
L 128.122785 78.900108 
L 129.208586 77.88813 
L 130.294387 77.626974 
L 131.380189 75.798884 
L 132.46599 76.288551 
L 134.637592 75.570372 
L 135.723393 74.036082 
L 136.809194 74.819549 
L 137.894995 75.309216 
L 138.980797 102.959082 
L 140.066598 103.154949 
L 141.152399 103.840483 
L 143.324001 102.43677 
L 144.409802 98.421501 
L 145.495604 100.184302 
L 146.581405 96.658699 
L 147.667206 100.053724 
L 148.753007 98.552079 
L 149.838808 94.275653 
L 150.924609 96.789277 
L 153.096212 91.305006 
L 154.182013 89.313694 
L 155.267814 88.758738 
L 156.353615 90.782695 
L 157.439416 90.390961 
L 158.525217 88.92196 
L 159.611019 85.069913 
L 160.69682 86.538914 
L 161.782621 85.657513 
L 162.868422 83.568267 
L 163.954223 83.176534 
L 165.040024 83.502978 
L 166.125825 84.253801 
L 167.211627 80.695554 
L 168.297428 80.336465 
L 169.383229 79.324486 
L 170.46903 77.757552 
L 171.554831 78.802175 
L 172.640632 78.443086 
L 173.726434 74.688972 
L 174.812235 76.549706 
L 175.898036 73.905504 
L 176.983837 75.243928 
L 179.155439 72.207992 
L 180.24124 71.522458 
L 181.327042 71.555103 
L 182.412843 68.682389 
L 183.498644 72.501792 
L 185.670246 69.237345 
L 186.756047 69.596434 
L 187.841849 71.39188 
L 188.92765 66.364632 
L 191.099252 68.388589 
L 192.185053 66.462565 
L 193.270854 66.299343 
L 194.356656 66.266699 
L 195.442457 64.438608 
L 196.528258 63.459274 
L 197.614059 63.230763 
L 198.69986 63.818363 
L 199.785661 61.859695 
L 200.871462 61.598539 
L 201.957264 62.153495 
L 203.043065 62.120851 
L 204.128866 59.99896 
L 205.214667 59.182849 
L 206.300468 60.423339 
L 207.386269 59.835738 
L 208.472071 60.194827 
L 209.557872 58.758471 
L 210.643673 59.803094 
L 211.729474 60.325405 
L 212.815275 58.660537 
L 213.901076 58.791115 
L 214.986877 58.334093 
L 217.15848 58.529959 
L 218.244281 57.681203 
L 219.330082 58.072937 
L 220.415883 57.452692 
L 222.587486 57.452692 
L 223.673287 58.105581 
L 224.759088 57.681203 
L 225.844889 82.425711 
L 226.93069 82.066622 
L 228.016491 80.434398 
L 229.102292 82.523644 
L 230.188094 82.752155 
L 231.273895 84.678179 
L 232.359696 86.865359 
L 233.445497 78.051352 
L 234.531298 80.891421 
L 235.617099 79.814153 
L 236.702901 79.455064 
L 237.788702 78.736886 
L 238.874503 78.965397 
L 239.960304 79.944731 
L 241.046105 84.841401 
L 242.131906 79.683575 
L 243.217708 78.214574 
L 244.303509 77.88813 
L 245.38931 80.271176 
L 246.475111 74.362527 
L 247.560912 80.30382 
L 248.646713 78.541019 
L 249.732514 75.570372 
L 250.818316 75.505083 
L 252.989918 77.790196 
L 254.075719 77.267885 
L 255.16152 77.398463 
L 256.247321 72.175347 
L 257.333123 75.080705 
L 258.418924 76.092684 
L 259.504725 78.345152 
L 260.590526 74.297238 
L 261.676327 73.611704 
L 262.762128 74.884838 
L 263.847929 72.991459 
L 264.933731 76.484417 
L 266.019532 72.240636 
L 267.105333 73.350548 
L 268.191134 72.207992 
L 269.276935 70.902213 
L 270.362736 71.783614 
L 271.448538 74.558394 
L 272.534339 76.060039 
L 273.62014 75.929461 
L 274.705941 73.709637 
L 275.791742 74.721616 
L 276.877543 70.771635 
L 277.963344 75.276572 
L 279.049146 73.840215 
L 280.134947 74.101371 
L 281.220748 70.086101 
L 282.306549 68.519167 
L 283.39235 68.127433 
L 284.478151 68.715034 
L 285.563953 70.118746 
L 286.649754 68.453878 
L 287.735555 70.118746 
L 288.821356 68.845612 
L 289.907157 70.575768 
L 290.992958 67.800989 
L 292.07876 69.302634 
L 293.164561 71.326591 
L 294.250362 68.094789 
L 295.336163 68.878256 
L 296.421964 66.756366 
L 297.507765 69.629079 
L 298.593566 71.424525 
L 299.679368 71.587747 
L 300.765169 66.560499 
L 301.85097 66.560499 
L 302.936771 66.397276 
L 304.022572 65.25472 
L 305.108373 67.180744 
L 308.365777 62.382007 
L 309.451578 68.453878 
L 310.537379 64.732408 
L 311.62318 65.940254 
L 312.708981 65.711743 
L 313.794783 66.952232 
L 314.880584 63.655141 
L 315.966385 65.124142 
L 317.052186 64.340675 
L 318.137987 65.222075 
L 319.223788 63.328696 
L 320.30959 64.765053 
L 321.395391 63.622497 
L 322.481192 60.880361 
L 323.566993 61.663828 
L 324.652794 63.557208 
L 325.738595 65.124142 
L 326.824396 66.070832 
L 327.910198 61.108872 
L 328.995999 61.729117 
L 330.0818 63.622497 
L 331.167601 58.725826 
L 332.253402 60.292761 
L 333.339203 58.138226 
L 334.425005 59.313427 
L 335.510806 58.758471 
L 336.596607 60.292761 
L 337.682408 60.684494 
L 338.768209 58.954337 
L 339.85401 59.966316 
L 340.939811 59.084915 
L 342.025613 58.82376 
L 343.111414 60.553916 
L 344.197215 58.268804 
L 345.283016 59.248138 
L 346.368817 57.909714 
L 348.54042 58.007648 
L 349.626221 55.232868 
L 350.712022 56.669225 
L 351.797823 54.841134 
L 352.883624 56.310135 
L 353.969425 54.841134 
L 355.055227 55.265512 
L 356.141028 56.375424 
L 357.226829 55.722535 
L 358.31263 55.298157 
L 359.398431 54.710556 
L 360.484232 54.384112 
L 361.570033 54.80849 
L 362.655835 54.057667 
L 363.741636 55.200223 
L 364.827437 53.731222 
L 365.913238 54.579979 
L 366.999039 53.568 
L 368.08484 55.167579 
L 369.170642 55.787824 
L 370.256443 56.63658 
L 371.342244 56.114269 
L 372.428045 56.865091 
L 373.513846 55.918402 
L 374.599647 57.354758 
L 375.685448 55.68989 
L 376.77125 58.791115 
L 377.857051 55.951046 
L 378.942852 58.399381 
L 381.114454 56.473358 
L 382.200255 56.832447 
L 384.371858 55.820468 
L 385.457659 57.354758 
L 386.54346 58.301448 
L 387.629261 57.387403 
L 388.715062 56.865091 
L 389.800863 58.497315 
L 390.886665 58.432026 
L 391.972466 56.93038 
L 393.058267 56.506002 
L 394.144068 58.497315 
L 395.229869 58.268804 
L 396.31567 58.432026 
L 397.401472 59.182849 
L 398.487273 57.224181 
L 398.487273 57.224181 
" clip-path="url(#pd7ab8644a6)" style="fill: none; stroke: #ff7f0e; stroke-width: 1.5; stroke-linecap: square"/>
   </g>
   <g id="line2d_21">
    <path d="M 73.832727 284.20346 
L 74.918528 277.224399 
L 76.00433 266.30515 
L 77.090131 248.632088 
L 78.175932 237.600542 
L 79.261733 227.919825 
L 80.347534 230.396234 
L 81.433335 217.78894 
L 82.519137 203.605245 
L 83.604938 203.155078 
L 84.690739 196.626184 
L 85.77654 191.222871 
L 86.862341 187.958424 
L 87.948142 183.568396 
L 89.033943 184.806601 
L 90.119745 170.848479 
L 91.205546 175.576051 
L 92.291347 170.510608 
L 93.377148 171.523566 
L 94.462949 169.385027 
L 95.54875 203.605245 
L 96.634552 203.267701 
L 97.720353 185.707262 
L 98.806154 184.018563 
L 99.891955 181.42953 
L 100.977756 190.547457 
L 102.063557 175.125883 
L 103.149358 173.549808 
L 104.23516 172.311604 
L 106.406762 169.15978 
L 107.492563 165.107296 
L 108.578364 169.272404 
L 109.664165 159.141193 
L 111.835768 157.002653 
L 112.921569 156.89003 
L 115.093171 150.361136 
L 116.178972 150.47376 
L 117.264773 145.070447 
L 118.350575 146.533899 
L 119.436376 151.599341 
L 120.522177 144.957824 
L 121.607978 144.62028 
L 122.693779 140.905339 
L 123.77958 145.295694 
L 124.865382 138.654177 
L 125.951183 133.701031 
L 127.036984 134.826939 
L 128.122785 136.853181 
L 129.208586 133.813655 
L 130.294387 134.601692 
L 132.46599 133.363488 
L 133.551791 132.012659 
L 134.637592 132.688074 
L 135.723393 132.237906 
L 136.809194 132.012659 
L 137.894995 132.012659 
L 138.980797 162.630886 
L 140.066598 158.465779 
L 141.152399 157.902988 
L 142.2382 156.101993 
L 143.324001 149.460475 
L 145.495604 154.300997 
L 146.581405 150.586383 
L 147.667206 154.976411 
L 148.753007 154.863788 
L 149.838808 147.772103 
L 150.924609 154.863788 
L 152.01041 150.135889 
L 153.096212 148.334894 
L 154.182013 144.057489 
L 155.267814 146.871442 
L 156.353615 147.772103 
L 157.439416 147.546857 
L 158.525217 144.732903 
L 159.611019 146.984066 
L 160.69682 144.169786 
L 161.782621 142.256167 
L 162.868422 147.65948 
L 163.954223 143.156828 
L 165.040024 143.606996 
L 166.125825 143.606996 
L 167.211627 137.415972 
L 168.297428 138.091386 
L 169.383229 138.091386 
L 170.46903 133.813655 
L 171.554831 138.541553 
L 172.640632 139.216967 
L 173.726434 132.688074 
L 174.812235 132.237906 
L 175.898036 130.099041 
L 176.983837 135.727274 
L 178.069638 132.462827 
L 179.155439 131.562492 
L 180.24124 132.012659 
L 181.327042 126.384427 
L 182.412843 125.933933 
L 183.498644 126.947217 
L 184.584445 123.457523 
L 185.670246 121.318658 
L 186.756047 123.232277 
L 187.841849 126.609347 
L 188.92765 123.570147 
L 190.013451 122.894733 
L 191.099252 121.431281 
L 192.185053 121.769151 
L 193.270854 119.742909 
L 194.356656 123.3449 
L 195.442457 122.219319 
L 196.528258 119.855533 
L 197.614059 121.769151 
L 198.69986 120.530947 
L 199.785661 119.067495 
L 200.871462 116.816006 
L 201.957264 117.041253 
L 203.043065 111.750564 
L 204.128866 116.027969 
L 205.214667 114.677467 
L 206.300468 115.915672 
L 207.386269 115.915672 
L 208.472071 116.478462 
L 209.557872 113.438936 
L 210.643673 114.789764 
L 211.729474 113.326639 
L 212.815275 114.339597 
L 213.901076 112.313355 
L 214.986877 111.300397 
L 217.15848 113.551559 
L 218.244281 112.651225 
L 219.330082 113.101392 
L 220.415883 112.313355 
L 221.501684 110.737606 
L 222.587486 112.988769 
L 223.673287 113.326639 
L 224.759088 112.088434 
L 225.844889 139.554511 
L 226.93069 140.005005 
L 228.016491 143.832242 
L 229.102292 141.468456 
L 230.188094 134.151525 
L 231.273895 142.481414 
L 232.359696 142.706661 
L 233.445497 139.442214 
L 234.531298 141.017963 
L 235.617099 135.61465 
L 236.702901 134.376445 
L 237.788702 138.091386 
L 238.874503 136.177767 
L 239.960304 135.839897 
L 241.046105 140.905339 
L 242.131906 135.277106 
L 243.217708 135.38973 
L 244.303509 133.476111 
L 245.38931 134.151525 
L 246.475111 134.264148 
L 247.560912 137.303349 
L 248.646713 134.939563 
L 249.732514 132.012659 
L 250.818316 130.549208 
L 251.904117 126.947217 
L 252.989918 130.549208 
L 254.075719 135.38973 
L 255.16152 137.528595 
L 256.247321 132.462827 
L 257.333123 133.588734 
L 258.418924 131.224622 
L 259.504725 124.695728 
L 260.590526 132.688074 
L 261.676327 132.125283 
L 262.762128 128.973459 
L 263.847929 127.397384 
L 264.933731 135.05186 
L 266.019532 123.3449 
L 267.105333 123.11998 
L 268.191134 126.271803 
L 269.276935 127.735255 
L 270.362736 126.72197 
L 271.448538 131.111999 
L 272.534339 127.172138 
L 273.62014 128.635589 
L 274.705941 125.146222 
L 275.791742 134.489069 
L 276.877543 125.033598 
L 277.963344 129.648873 
L 279.049146 122.894733 
L 280.134947 129.085756 
L 281.220748 130.549208 
L 282.306549 126.15918 
L 283.39235 125.146222 
L 284.478151 123.68277 
L 285.563953 124.808352 
L 286.649754 116.591086 
L 287.735555 124.583105 
L 288.821356 125.933933 
L 289.907157 125.146222 
L 290.992958 125.146222 
L 292.07876 122.669486 
L 293.164561 126.947217 
L 294.250362 125.146222 
L 295.336163 122.782109 
L 296.421964 121.543905 
L 297.507765 119.855533 
L 298.593566 125.709012 
L 299.679368 125.371142 
L 300.765169 122.106695 
L 302.936771 123.232277 
L 304.022572 118.392081 
L 305.108373 126.609347 
L 306.194175 123.795394 
L 307.279976 114.002053 
L 308.365777 115.352881 
L 309.451578 126.609347 
L 310.537379 114.002053 
L 311.62318 122.669486 
L 312.708981 117.378797 
L 314.880584 116.92863 
L 315.966385 118.954872 
L 317.052186 116.027969 
L 318.137987 119.517662 
L 319.223788 117.49142 
L 320.30959 119.517662 
L 321.395391 116.140592 
L 322.481192 113.214015 
L 323.566993 112.200731 
L 324.652794 114.677467 
L 325.738595 118.617328 
L 326.824396 116.816006 
L 327.910198 113.101392 
L 328.995999 113.664183 
L 330.0818 115.803048 
L 331.167601 107.022665 
L 332.253402 112.200731 
L 333.339203 108.486117 
L 334.425005 111.07515 
L 335.510806 111.750564 
L 336.596607 113.776806 
L 337.682408 114.677467 
L 338.768209 114.677467 
L 339.85401 110.512359 
L 340.939811 111.300397 
L 342.025613 109.836945 
L 343.111414 114.339597 
L 344.197215 108.486117 
L 345.283016 112.425978 
L 346.368817 111.300397 
L 347.454618 109.949569 
L 348.54042 106.572498 
L 349.626221 108.823987 
L 350.712022 108.486117 
L 351.797823 105.446816 
L 352.883624 106.347353 
L 353.969425 105.67195 
L 355.055227 104.658846 
L 356.141028 106.347353 
L 357.226829 104.996547 
L 358.31263 104.09601 
L 359.398431 102.745204 
L 360.484232 105.67195 
L 361.570033 102.970339 
L 362.655835 104.88398 
L 363.741636 105.559383 
L 364.827437 103.30804 
L 365.913238 103.533174 
L 368.08484 102.407503 
L 369.170642 104.433711 
L 370.256443 106.910188 
L 371.342244 105.446816 
L 372.428045 105.559383 
L 373.513846 108.148427 
L 374.599647 102.745204 
L 375.685448 104.546278 
L 376.77125 108.936397 
L 378.942852 103.983443 
L 380.028653 105.559383 
L 381.114454 104.771413 
L 382.200255 105.784517 
L 383.286057 107.698158 
L 384.371858 102.745204 
L 385.457659 105.897084 
L 386.54346 108.03586 
L 387.629261 108.598695 
L 388.715062 101.844667 
L 389.800863 107.022755 
L 390.886665 105.784517 
L 391.972466 103.645741 
L 393.058267 106.797621 
L 394.144068 105.784517 
L 395.229869 108.373561 
L 396.31567 106.347353 
L 397.401472 108.82383 
L 398.487273 107.810725 
L 398.487273 107.810725 
" clip-path="url(#pd7ab8644a6)" style="fill: none; stroke: #2ca02c; stroke-width: 1.5; stroke-linecap: square"/>
   </g>
   <g id="line2d_22">
    <path d="M 368.08484 54.286178 
L 370.256443 54.351467 
L 372.428045 55.853113 
L 373.513846 55.787824 
L 374.599647 56.081624 
L 375.685448 56.016335 
L 376.77125 55.232868 
L 377.857051 56.701869 
L 378.942852 57.387403 
L 380.028653 55.330801 
L 381.114454 57.811781 
L 382.200255 58.17087 
L 383.286057 55.68989 
L 384.371858 59.215493 
L 385.457659 57.289469 
L 386.54346 57.420047 
L 387.629261 59.770449 
L 388.715062 57.191536 
L 389.800863 58.82376 
L 391.972466 59.835738 
L 393.058267 58.17087 
L 394.144068 61.272095 
L 395.229869 61.010939 
L 396.31567 62.382007 
L 397.401472 61.859695 
L 398.487273 62.936963 
L 398.487273 62.936963 
" clip-path="url(#pd7ab8644a6)" style="fill: none; stroke: #d62728; stroke-width: 1.5; stroke-linecap: square"/>
   </g>
   <g id="line2d_23">
    <path d="M 368.08484 100.831563 
L 369.170642 103.30804 
L 370.256443 101.7321 
L 371.342244 102.745204 
L 372.428045 106.797621 
L 373.513846 104.433711 
L 374.599647 106.910188 
L 375.685448 105.559383 
L 376.77125 103.758309 
L 377.857051 102.745204 
L 378.942852 104.88398 
L 380.028653 102.632637 
L 381.114454 104.321144 
L 382.200255 106.910188 
L 383.286057 102.632637 
L 384.371858 105.897084 
L 385.457659 105.221681 
L 386.54346 104.09601 
L 387.629261 104.658846 
L 388.715062 106.122218 
L 389.800863 102.407503 
L 390.886665 107.022755 
L 391.972466 104.433711 
L 393.058267 104.208577 
L 394.144068 106.797621 
L 395.229869 107.923293 
L 396.31567 110.39977 
L 397.401472 110.850038 
L 398.487273 111.750575 
L 398.487273 111.750575 
" clip-path="url(#pd7ab8644a6)" style="fill: none; stroke: #9467bd; stroke-width: 1.5; stroke-linecap: square"/>
   </g>
   <g id="patch_3">
    <path d="M 57.6 307.584 
L 57.6 41.472 
" style="fill: none; stroke: #000000; stroke-width: 0.8; stroke-linejoin: miter; stroke-linecap: square"/>
   </g>
   <g id="patch_4">
    <path d="M 414.72 307.584 
L 414.72 41.472 
" style="fill: none; stroke: #000000; stroke-width: 0.8; stroke-linejoin: miter; stroke-linecap: square"/>
   </g>
   <g id="patch_5">
    <path d="M 57.6 307.584 
L 414.72 307.584 
" style="fill: none; stroke: #000000; stroke-width: 0.8; stroke-linejoin: miter; stroke-linecap: square"/>
   </g>
   <g id="patch_6">
    <path d="M 57.6 41.472 
L 414.72 41.472 
" style="fill: none; stroke: #000000; stroke-width: 0.8; stroke-linejoin: miter; stroke-linecap: square"/>
   </g>
   <g id="text_21">
    <!-- Learning Curves -->
    <g transform="translate(187.37625 35.472) scale(0.12 -0.12)">
     <defs>
      <path id="DejaVuSans-4c" d="M 628 4666 
L 1259 4666 
L 1259 531 
L 3531 531 
L 3531 0 
L 628 0 
L 628 4666 
z
" transform="scale(0.015625)"/>
      <path id="DejaVuSans-65" d="M 3597 1894 
L 3597 1613 
L 953 1613 
Q 991 1019 1311 708 
Q 1631 397 2203 397 
Q 2534 397 2845 478 
Q 3156 559 3463 722 
L 3463 178 
Q 3153 47 2828 -22 
Q 2503 -91 2169 -91 
Q 1331 -91 842 396 
Q 353 884 353 1716 
Q 353 2575 817 3079 
Q 1281 3584 2069 3584 
Q 2775 3584 3186 3129 
Q 3597 2675 3597 1894 
z
M 3022 2063 
Q 3016 2534 2758 2815 
Q 2500 3097 2075 3097 
Q 1594 3097 1305 2825 
Q 1016 2553 972 2059 
L 3022 2063 
z
" transform="scale(0.015625)"/>
      <path id="DejaVuSans-6e" d="M 3513 2113 
L 3513 0 
L 2938 0 
L 2938 2094 
Q 2938 2591 2744 2837 
Q 2550 3084 2163 3084 
Q 1697 3084 1428 2787 
Q 1159 2491 1159 1978 
L 1159 0 
L 581 0 
L 581 3500 
L 1159 3500 
L 1159 2956 
Q 1366 3272 1645 3428 
Q 1925 3584 2291 3584 
Q 2894 3584 3203 3211 
Q 3513 2838 3513 2113 
z
" transform="scale(0.015625)"/>
      <path id="DejaVuSans-69" d="M 603 3500 
L 1178 3500 
L 1178 0 
L 603 0 
L 603 3500 
z
M 603 4863 
L 1178 4863 
L 1178 4134 
L 603 4134 
L 603 4863 
z
" transform="scale(0.015625)"/>
      <path id="DejaVuSans-67" d="M 2906 1791 
Q 2906 2416 2648 2759 
Q 2391 3103 1925 3103 
Q 1463 3103 1205 2759 
Q 947 2416 947 1791 
Q 947 1169 1205 825 
Q 1463 481 1925 481 
Q 2391 481 2648 825 
Q 2906 1169 2906 1791 
z
M 3481 434 
Q 3481 -459 3084 -895 
Q 2688 -1331 1869 -1331 
Q 1566 -1331 1297 -1286 
Q 1028 -1241 775 -1147 
L 775 -588 
Q 1028 -725 1275 -790 
Q 1522 -856 1778 -856 
Q 2344 -856 2625 -561 
Q 2906 -266 2906 331 
L 2906 616 
Q 2728 306 2450 153 
Q 2172 0 1784 0 
Q 1141 0 747 490 
Q 353 981 353 1791 
Q 353 2603 747 3093 
Q 1141 3584 1784 3584 
Q 2172 3584 2450 3431 
Q 2728 3278 2906 2969 
L 2906 3500 
L 3481 3500 
L 3481 434 
z
" transform="scale(0.015625)"/>
      <path id="DejaVuSans-20" transform="scale(0.015625)"/>
      <path id="DejaVuSans-43" d="M 4122 4306 
L 4122 3641 
Q 3803 3938 3442 4084 
Q 3081 4231 2675 4231 
Q 1875 4231 1450 3742 
Q 1025 3253 1025 2328 
Q 1025 1406 1450 917 
Q 1875 428 2675 428 
Q 3081 428 3442 575 
Q 3803 722 4122 1019 
L 4122 359 
Q 3791 134 3420 21 
Q 3050 -91 2638 -91 
Q 1578 -91 968 557 
Q 359 1206 359 2328 
Q 359 3453 968 4101 
Q 1578 4750 2638 4750 
Q 3056 4750 3426 4639 
Q 3797 4528 4122 4306 
z
" transform="scale(0.015625)"/>
      <path id="DejaVuSans-76" d="M 191 3500 
L 800 3500 
L 1894 563 
L 2988 3500 
L 3597 3500 
L 2284 0 
L 1503 0 
L 191 3500 
z
" transform="scale(0.015625)"/>
     </defs>
     <use xlink:href="#DejaVuSans-4c"/>
     <use xlink:href="#DejaVuSans-65" x="53.962891"/>
     <use xlink:href="#DejaVuSans-61" x="115.486328"/>
     <use xlink:href="#DejaVuSans-72" x="176.765625"/>
     <use xlink:href="#DejaVuSans-6e" x="216.128906"/>
     <use xlink:href="#DejaVuSans-69" x="279.507812"/>
     <use xlink:href="#DejaVuSans-6e" x="307.291016"/>
     <use xlink:href="#DejaVuSans-67" x="370.669922"/>
     <use xlink:href="#DejaVuSans-20" x="434.146484"/>
     <use xlink:href="#DejaVuSans-43" x="465.933594"/>
     <use xlink:href="#DejaVuSans-75" x="535.757812"/>
     <use xlink:href="#DejaVuSans-72" x="599.136719"/>
     <use xlink:href="#DejaVuSans-76" x="640.25"/>
     <use xlink:href="#DejaVuSans-65" x="699.429688"/>
     <use xlink:href="#DejaVuSans-73" x="760.953125"/>
    </g>
   </g>
   <g id="legend_1">
    <g id="patch_7">
     <path d="M 214.18875 302.584 
L 407.72 302.584 
Q 409.72 302.584 409.72 300.584 
L 409.72 228.193375 
Q 409.72 226.193375 407.72 226.193375 
L 214.18875 226.193375 
Q 212.18875 226.193375 212.18875 228.193375 
L 212.18875 300.584 
Q 212.18875 302.584 214.18875 302.584 
z
" style="fill: #ffffff; opacity: 0.8; stroke: #cccccc; stroke-linejoin: miter"/>
    </g>
    <g id="line2d_24">
     <path d="M 216.18875 234.291812 
L 226.18875 234.291812 
L 236.18875 234.291812 
" style="fill: none; stroke: #1f77b4; stroke-width: 1.5; stroke-linecap: square"/>
    </g>
    <g id="text_22">
     <!-- Train Accuracy -->
     <g transform="translate(244.18875 237.791812) scale(0.1 -0.1)">
      <defs>
       <path id="DejaVuSans-54" d="M -19 4666 
L 3928 4666 
L 3928 4134 
L 2272 4134 
L 2272 0 
L 1638 0 
L 1638 4134 
L -19 4134 
L -19 4666 
z
" transform="scale(0.015625)"/>
      </defs>
      <use xlink:href="#DejaVuSans-54"/>
      <use xlink:href="#DejaVuSans-72" x="46.333984"/>
      <use xlink:href="#DejaVuSans-61" x="87.447266"/>
      <use xlink:href="#DejaVuSans-69" x="148.726562"/>
      <use xlink:href="#DejaVuSans-6e" x="176.509766"/>
      <use xlink:href="#DejaVuSans-20" x="239.888672"/>
      <use xlink:href="#DejaVuSans-41" x="271.675781"/>
      <use xlink:href="#DejaVuSans-63" x="338.333984"/>
      <use xlink:href="#DejaVuSans-63" x="393.314453"/>
      <use xlink:href="#DejaVuSans-75" x="448.294922"/>
      <use xlink:href="#DejaVuSans-72" x="511.673828"/>
      <use xlink:href="#DejaVuSans-61" x="552.787109"/>
      <use xlink:href="#DejaVuSans-63" x="614.066406"/>
      <use xlink:href="#DejaVuSans-79" x="669.046875"/>
     </g>
    </g>
    <g id="line2d_25">
     <path d="M 216.18875 248.969937 
L 226.18875 248.969937 
L 236.18875 248.969937 
" style="fill: none; stroke: #ff7f0e; stroke-width: 1.5; stroke-linecap: square"/>
    </g>
    <g id="text_23">
     <!-- Validation Accuracy -->
     <g transform="translate(244.18875 252.469937) scale(0.1 -0.1)">
      <defs>
       <path id="DejaVuSans-56" d="M 1831 0 
L 50 4666 
L 709 4666 
L 2188 738 
L 3669 4666 
L 4325 4666 
L 2547 0 
L 1831 0 
z
" transform="scale(0.015625)"/>
       <path id="DejaVuSans-6c" d="M 603 4863 
L 1178 4863 
L 1178 0 
L 603 0 
L 603 4863 
z
" transform="scale(0.015625)"/>
       <path id="DejaVuSans-64" d="M 2906 2969 
L 2906 4863 
L 3481 4863 
L 3481 0 
L 2906 0 
L 2906 525 
Q 2725 213 2448 61 
Q 2172 -91 1784 -91 
Q 1150 -91 751 415 
Q 353 922 353 1747 
Q 353 2572 751 3078 
Q 1150 3584 1784 3584 
Q 2172 3584 2448 3432 
Q 2725 3281 2906 2969 
z
M 947 1747 
Q 947 1113 1208 752 
Q 1469 391 1925 391 
Q 2381 391 2643 752 
Q 2906 1113 2906 1747 
Q 2906 2381 2643 2742 
Q 2381 3103 1925 3103 
Q 1469 3103 1208 2742 
Q 947 2381 947 1747 
z
" transform="scale(0.015625)"/>
       <path id="DejaVuSans-74" d="M 1172 4494 
L 1172 3500 
L 2356 3500 
L 2356 3053 
L 1172 3053 
L 1172 1153 
Q 1172 725 1289 603 
Q 1406 481 1766 481 
L 2356 481 
L 2356 0 
L 1766 0 
Q 1100 0 847 248 
Q 594 497 594 1153 
L 594 3053 
L 172 3053 
L 172 3500 
L 594 3500 
L 594 4494 
L 1172 4494 
z
" transform="scale(0.015625)"/>
      </defs>
      <use xlink:href="#DejaVuSans-56"/>
      <use xlink:href="#DejaVuSans-61" x="60.658203"/>
      <use xlink:href="#DejaVuSans-6c" x="121.9375"/>
      <use xlink:href="#DejaVuSans-69" x="149.720703"/>
      <use xlink:href="#DejaVuSans-64" x="177.503906"/>
      <use xlink:href="#DejaVuSans-61" x="240.980469"/>
      <use xlink:href="#DejaVuSans-74" x="302.259766"/>
      <use xlink:href="#DejaVuSans-69" x="341.46875"/>
      <use xlink:href="#DejaVuSans-6f" x="369.251953"/>
      <use xlink:href="#DejaVuSans-6e" x="430.433594"/>
      <use xlink:href="#DejaVuSans-20" x="493.8125"/>
      <use xlink:href="#DejaVuSans-41" x="525.599609"/>
      <use xlink:href="#DejaVuSans-63" x="592.257812"/>
      <use xlink:href="#DejaVuSans-63" x="647.238281"/>
      <use xlink:href="#DejaVuSans-75" x="702.21875"/>
      <use xlink:href="#DejaVuSans-72" x="765.597656"/>
      <use xlink:href="#DejaVuSans-61" x="806.710938"/>
      <use xlink:href="#DejaVuSans-63" x="867.990234"/>
      <use xlink:href="#DejaVuSans-79" x="922.970703"/>
     </g>
    </g>
    <g id="line2d_26">
     <path d="M 216.18875 263.648062 
L 226.18875 263.648062 
L 236.18875 263.648062 
" style="fill: none; stroke: #2ca02c; stroke-width: 1.5; stroke-linecap: square"/>
    </g>
    <g id="text_24">
     <!-- Robust Validation Accuracy -->
     <g transform="translate(244.18875 267.148062) scale(0.1 -0.1)">
      <defs>
       <path id="DejaVuSans-52" d="M 2841 2188 
Q 3044 2119 3236 1894 
Q 3428 1669 3622 1275 
L 4263 0 
L 3584 0 
L 2988 1197 
Q 2756 1666 2539 1819 
Q 2322 1972 1947 1972 
L 1259 1972 
L 1259 0 
L 628 0 
L 628 4666 
L 2053 4666 
Q 2853 4666 3247 4331 
Q 3641 3997 3641 3322 
Q 3641 2881 3436 2590 
Q 3231 2300 2841 2188 
z
M 1259 4147 
L 1259 2491 
L 2053 2491 
Q 2509 2491 2742 2702 
Q 2975 2913 2975 3322 
Q 2975 3731 2742 3939 
Q 2509 4147 2053 4147 
L 1259 4147 
z
" transform="scale(0.015625)"/>
       <path id="DejaVuSans-62" d="M 3116 1747 
Q 3116 2381 2855 2742 
Q 2594 3103 2138 3103 
Q 1681 3103 1420 2742 
Q 1159 2381 1159 1747 
Q 1159 1113 1420 752 
Q 1681 391 2138 391 
Q 2594 391 2855 752 
Q 3116 1113 3116 1747 
z
M 1159 2969 
Q 1341 3281 1617 3432 
Q 1894 3584 2278 3584 
Q 2916 3584 3314 3078 
Q 3713 2572 3713 1747 
Q 3713 922 3314 415 
Q 2916 -91 2278 -91 
Q 1894 -91 1617 61 
Q 1341 213 1159 525 
L 1159 0 
L 581 0 
L 581 4863 
L 1159 4863 
L 1159 2969 
z
" transform="scale(0.015625)"/>
      </defs>
      <use xlink:href="#DejaVuSans-52"/>
      <use xlink:href="#DejaVuSans-6f" x="64.982422"/>
      <use xlink:href="#DejaVuSans-62" x="126.164062"/>
      <use xlink:href="#DejaVuSans-75" x="189.640625"/>
      <use xlink:href="#DejaVuSans-73" x="253.019531"/>
      <use xlink:href="#DejaVuSans-74" x="305.119141"/>
      <use xlink:href="#DejaVuSans-20" x="344.328125"/>
      <use xlink:href="#DejaVuSans-56" x="376.115234"/>
      <use xlink:href="#DejaVuSans-61" x="436.773438"/>
      <use xlink:href="#DejaVuSans-6c" x="498.052734"/>
      <use xlink:href="#DejaVuSans-69" x="525.835938"/>
      <use xlink:href="#DejaVuSans-64" x="553.619141"/>
      <use xlink:href="#DejaVuSans-61" x="617.095703"/>
      <use xlink:href="#DejaVuSans-74" x="678.375"/>
      <use xlink:href="#DejaVuSans-69" x="717.583984"/>
      <use xlink:href="#DejaVuSans-6f" x="745.367188"/>
      <use xlink:href="#DejaVuSans-6e" x="806.548828"/>
      <use xlink:href="#DejaVuSans-20" x="869.927734"/>
      <use xlink:href="#DejaVuSans-41" x="901.714844"/>
      <use xlink:href="#DejaVuSans-63" x="968.373047"/>
      <use xlink:href="#DejaVuSans-63" x="1023.353516"/>
      <use xlink:href="#DejaVuSans-75" x="1078.333984"/>
      <use xlink:href="#DejaVuSans-72" x="1141.712891"/>
      <use xlink:href="#DejaVuSans-61" x="1182.826172"/>
      <use xlink:href="#DejaVuSans-63" x="1244.105469"/>
      <use xlink:href="#DejaVuSans-79" x="1299.085938"/>
     </g>
    </g>
    <g id="line2d_27">
     <path d="M 216.18875 278.326188 
L 226.18875 278.326188 
L 236.18875 278.326188 
" style="fill: none; stroke: #d62728; stroke-width: 1.5; stroke-linecap: square"/>
    </g>
    <g id="text_25">
     <!-- SWA Validation Accuracy -->
     <g transform="translate(244.18875 281.826188) scale(0.1 -0.1)">
      <defs>
       <path id="DejaVuSans-53" d="M 3425 4513 
L 3425 3897 
Q 3066 4069 2747 4153 
Q 2428 4238 2131 4238 
Q 1616 4238 1336 4038 
Q 1056 3838 1056 3469 
Q 1056 3159 1242 3001 
Q 1428 2844 1947 2747 
L 2328 2669 
Q 3034 2534 3370 2195 
Q 3706 1856 3706 1288 
Q 3706 609 3251 259 
Q 2797 -91 1919 -91 
Q 1588 -91 1214 -16 
Q 841 59 441 206 
L 441 856 
Q 825 641 1194 531 
Q 1563 422 1919 422 
Q 2459 422 2753 634 
Q 3047 847 3047 1241 
Q 3047 1584 2836 1778 
Q 2625 1972 2144 2069 
L 1759 2144 
Q 1053 2284 737 2584 
Q 422 2884 422 3419 
Q 422 4038 858 4394 
Q 1294 4750 2059 4750 
Q 2388 4750 2728 4690 
Q 3069 4631 3425 4513 
z
" transform="scale(0.015625)"/>
       <path id="DejaVuSans-57" d="M 213 4666 
L 850 4666 
L 1831 722 
L 2809 4666 
L 3519 4666 
L 4500 722 
L 5478 4666 
L 6119 4666 
L 4947 0 
L 4153 0 
L 3169 4050 
L 2175 0 
L 1381 0 
L 213 4666 
z
" transform="scale(0.015625)"/>
      </defs>
      <use xlink:href="#DejaVuSans-53"/>
      <use xlink:href="#DejaVuSans-57" x="63.476562"/>
      <use xlink:href="#DejaVuSans-41" x="156.853516"/>
      <use xlink:href="#DejaVuSans-20" x="225.261719"/>
      <use xlink:href="#DejaVuSans-56" x="257.048828"/>
      <use xlink:href="#DejaVuSans-61" x="317.707031"/>
      <use xlink:href="#DejaVuSans-6c" x="378.986328"/>
      <use xlink:href="#DejaVuSans-69" x="406.769531"/>
      <use xlink:href="#DejaVuSans-64" x="434.552734"/>
      <use xlink:href="#DejaVuSans-61" x="498.029297"/>
      <use xlink:href="#DejaVuSans-74" x="559.308594"/>
      <use xlink:href="#DejaVuSans-69" x="598.517578"/>
      <use xlink:href="#DejaVuSans-6f" x="626.300781"/>
      <use xlink:href="#DejaVuSans-6e" x="687.482422"/>
      <use xlink:href="#DejaVuSans-20" x="750.861328"/>
      <use xlink:href="#DejaVuSans-41" x="782.648438"/>
      <use xlink:href="#DejaVuSans-63" x="849.306641"/>
      <use xlink:href="#DejaVuSans-63" x="904.287109"/>
      <use xlink:href="#DejaVuSans-75" x="959.267578"/>
      <use xlink:href="#DejaVuSans-72" x="1022.646484"/>
      <use xlink:href="#DejaVuSans-61" x="1063.759766"/>
      <use xlink:href="#DejaVuSans-63" x="1125.039062"/>
      <use xlink:href="#DejaVuSans-79" x="1180.019531"/>
     </g>
    </g>
    <g id="line2d_28">
     <path d="M 216.18875 293.004312 
L 226.18875 293.004312 
L 236.18875 293.004312 
" style="fill: none; stroke: #9467bd; stroke-width: 1.5; stroke-linecap: square"/>
    </g>
    <g id="text_26">
     <!-- SWA Robust Validation Accuracy -->
     <g transform="translate(244.18875 296.504312) scale(0.1 -0.1)">
      <use xlink:href="#DejaVuSans-53"/>
      <use xlink:href="#DejaVuSans-57" x="63.476562"/>
      <use xlink:href="#DejaVuSans-41" x="156.853516"/>
      <use xlink:href="#DejaVuSans-20" x="225.261719"/>
      <use xlink:href="#DejaVuSans-52" x="257.048828"/>
      <use xlink:href="#DejaVuSans-6f" x="322.03125"/>
      <use xlink:href="#DejaVuSans-62" x="383.212891"/>
      <use xlink:href="#DejaVuSans-75" x="446.689453"/>
      <use xlink:href="#DejaVuSans-73" x="510.068359"/>
      <use xlink:href="#DejaVuSans-74" x="562.167969"/>
      <use xlink:href="#DejaVuSans-20" x="601.376953"/>
      <use xlink:href="#DejaVuSans-56" x="633.164062"/>
      <use xlink:href="#DejaVuSans-61" x="693.822266"/>
      <use xlink:href="#DejaVuSans-6c" x="755.101562"/>
      <use xlink:href="#DejaVuSans-69" x="782.884766"/>
      <use xlink:href="#DejaVuSans-64" x="810.667969"/>
      <use xlink:href="#DejaVuSans-61" x="874.144531"/>
      <use xlink:href="#DejaVuSans-74" x="935.423828"/>
      <use xlink:href="#DejaVuSans-69" x="974.632812"/>
      <use xlink:href="#DejaVuSans-6f" x="1002.416016"/>
      <use xlink:href="#DejaVuSans-6e" x="1063.597656"/>
      <use xlink:href="#DejaVuSans-20" x="1126.976562"/>
      <use xlink:href="#DejaVuSans-41" x="1158.763672"/>
      <use xlink:href="#DejaVuSans-63" x="1225.421875"/>
      <use xlink:href="#DejaVuSans-63" x="1280.402344"/>
      <use xlink:href="#DejaVuSans-75" x="1335.382812"/>
      <use xlink:href="#DejaVuSans-72" x="1398.761719"/>
      <use xlink:href="#DejaVuSans-61" x="1439.875"/>
      <use xlink:href="#DejaVuSans-63" x="1501.154297"/>
      <use xlink:href="#DejaVuSans-79" x="1556.134766"/>
     </g>
    </g>
   </g>
  </g>
 </g>
 <defs>
  <clipPath id="pd7ab8644a6">
   <rect x="57.6" y="41.472" width="357.12" height="266.112"/>
  </clipPath>
 </defs>
</svg>
