<?xml version="1.0" encoding="utf-8" standalone="no"?>
<!DOCTYPE svg PUBLIC "-//W3C//DTD SVG 1.1//EN"
  "http://www.w3.org/Graphics/SVG/1.1/DTD/svg11.dtd">
<svg xmlns:xlink="http://www.w3.org/1999/xlink" width="460.8pt" height="345.6pt" viewBox="0 0 460.8 345.6" xmlns="http://www.w3.org/2000/svg" version="1.1">
 <metadata>
  <rdf:RDF xmlns:dc="http://purl.org/dc/elements/1.1/" xmlns:cc="http://creativecommons.org/ns#" xmlns:rdf="http://www.w3.org/1999/02/22-rdf-syntax-ns#">
   <cc:Work>
    <dc:type rdf:resource="http://purl.org/dc/dcmitype/StillImage"/>
    <dc:date>2025-05-02T12:12:39.711859</dc:date>
    <dc:format>image/svg+xml</dc:format>
    <dc:creator>
     <cc:Agent>
      <dc:title>Matplotlib v3.9.1, https://matplotlib.org/</dc:title>
     </cc:Agent>
    </dc:creator>
   </cc:Work>
  </rdf:RDF>
 </metadata>
 <defs>
  <style type="text/css">*{stroke-linejoin: round; stroke-linecap: butt}</style>
 </defs>
 <g id="figure_1">
  <g id="patch_1">
   <path d="M 0 345.6 
L 460.8 345.6 
L 460.8 0 
L 0 0 
z
" style="fill: #ffffff"/>
  </g>
  <g id="axes_1">
   <g id="patch_2">
    <path d="M 57.6 307.584 
L 414.72 307.584 
L 414.72 41.472 
L 57.6 41.472 
z
" style="fill: #ffffff"/>
   </g>
   <g id="matplotlib.axis_1">
    <g id="xtick_1">
     <g id="line2d_1">
      <defs>
       <path id="m881a52cb1c" d="M 0 0 
L 0 3.5 
" style="stroke: #000000; stroke-width: 0.8"/>
      </defs>
      <g>
       <use xlink:href="#m881a52cb1c" x="73.832727" y="307.584" style="stroke: #000000; stroke-width: 0.8"/>
      </g>
     </g>
     <g id="text_1">
      <!-- 1 -->
      <g transform="translate(70.651477 322.182437) scale(0.1 -0.1)">
       <defs>
        <path id="DejaVuSans-31" d="M 794 531 
L 1825 531 
L 1825 4091 
L 703 3866 
L 703 4441 
L 1819 4666 
L 2450 4666 
L 2450 531 
L 3481 531 
L 3481 0 
L 794 0 
L 794 531 
z
" transform="scale(0.015625)"/>
       </defs>
       <use xlink:href="#DejaVuSans-31"/>
      </g>
     </g>
    </g>
    <g id="xtick_2">
     <g id="line2d_2">
      <g>
       <use xlink:href="#m881a52cb1c" x="109.664165" y="307.584" style="stroke: #000000; stroke-width: 0.8"/>
      </g>
     </g>
     <g id="text_2">
      <!-- 34 -->
      <g transform="translate(103.301665 322.182437) scale(0.1 -0.1)">
       <defs>
        <path id="DejaVuSans-33" d="M 2597 2516 
Q 3050 2419 3304 2112 
Q 3559 1806 3559 1356 
Q 3559 666 3084 287 
Q 2609 -91 1734 -91 
Q 1441 -91 1130 -33 
Q 819 25 488 141 
L 488 750 
Q 750 597 1062 519 
Q 1375 441 1716 441 
Q 2309 441 2620 675 
Q 2931 909 2931 1356 
Q 2931 1769 2642 2001 
Q 2353 2234 1838 2234 
L 1294 2234 
L 1294 2753 
L 1863 2753 
Q 2328 2753 2575 2939 
Q 2822 3125 2822 3475 
Q 2822 3834 2567 4026 
Q 2313 4219 1838 4219 
Q 1578 4219 1281 4162 
Q 984 4106 628 3988 
L 628 4550 
Q 988 4650 1302 4700 
Q 1616 4750 1894 4750 
Q 2613 4750 3031 4423 
Q 3450 4097 3450 3541 
Q 3450 3153 3228 2886 
Q 3006 2619 2597 2516 
z
" transform="scale(0.015625)"/>
        <path id="DejaVuSans-34" d="M 2419 4116 
L 825 1625 
L 2419 1625 
L 2419 4116 
z
M 2253 4666 
L 3047 4666 
L 3047 1625 
L 3713 1625 
L 3713 1100 
L 3047 1100 
L 3047 0 
L 2419 0 
L 2419 1100 
L 313 1100 
L 313 1709 
L 2253 4666 
z
" transform="scale(0.015625)"/>
       </defs>
       <use xlink:href="#DejaVuSans-33"/>
       <use xlink:href="#DejaVuSans-34" x="63.623047"/>
      </g>
     </g>
    </g>
    <g id="xtick_3">
     <g id="line2d_3">
      <g>
       <use xlink:href="#m881a52cb1c" x="145.495604" y="307.584" style="stroke: #000000; stroke-width: 0.8"/>
      </g>
     </g>
     <g id="text_3">
      <!-- 67 -->
      <g transform="translate(139.133104 322.182437) scale(0.1 -0.1)">
       <defs>
        <path id="DejaVuSans-36" d="M 2113 2584 
Q 1688 2584 1439 2293 
Q 1191 2003 1191 1497 
Q 1191 994 1439 701 
Q 1688 409 2113 409 
Q 2538 409 2786 701 
Q 3034 994 3034 1497 
Q 3034 2003 2786 2293 
Q 2538 2584 2113 2584 
z
M 3366 4563 
L 3366 3988 
Q 3128 4100 2886 4159 
Q 2644 4219 2406 4219 
Q 1781 4219 1451 3797 
Q 1122 3375 1075 2522 
Q 1259 2794 1537 2939 
Q 1816 3084 2150 3084 
Q 2853 3084 3261 2657 
Q 3669 2231 3669 1497 
Q 3669 778 3244 343 
Q 2819 -91 2113 -91 
Q 1303 -91 875 529 
Q 447 1150 447 2328 
Q 447 3434 972 4092 
Q 1497 4750 2381 4750 
Q 2619 4750 2861 4703 
Q 3103 4656 3366 4563 
z
" transform="scale(0.015625)"/>
        <path id="DejaVuSans-37" d="M 525 4666 
L 3525 4666 
L 3525 4397 
L 1831 0 
L 1172 0 
L 2766 4134 
L 525 4134 
L 525 4666 
z
" transform="scale(0.015625)"/>
       </defs>
       <use xlink:href="#DejaVuSans-36"/>
       <use xlink:href="#DejaVuSans-37" x="63.623047"/>
      </g>
     </g>
    </g>
    <g id="xtick_4">
     <g id="line2d_4">
      <g>
       <use xlink:href="#m881a52cb1c" x="181.327042" y="307.584" style="stroke: #000000; stroke-width: 0.8"/>
      </g>
     </g>
     <g id="text_4">
      <!-- 100 -->
      <g transform="translate(171.783292 322.182437) scale(0.1 -0.1)">
       <defs>
        <path id="DejaVuSans-30" d="M 2034 4250 
Q 1547 4250 1301 3770 
Q 1056 3291 1056 2328 
Q 1056 1369 1301 889 
Q 1547 409 2034 409 
Q 2525 409 2770 889 
Q 3016 1369 3016 2328 
Q 3016 3291 2770 3770 
Q 2525 4250 2034 4250 
z
M 2034 4750 
Q 2819 4750 3233 4129 
Q 3647 3509 3647 2328 
Q 3647 1150 3233 529 
Q 2819 -91 2034 -91 
Q 1250 -91 836 529 
Q 422 1150 422 2328 
Q 422 3509 836 4129 
Q 1250 4750 2034 4750 
z
" transform="scale(0.015625)"/>
       </defs>
       <use xlink:href="#DejaVuSans-31"/>
       <use xlink:href="#DejaVuSans-30" x="63.623047"/>
       <use xlink:href="#DejaVuSans-30" x="127.246094"/>
      </g>
     </g>
    </g>
    <g id="xtick_5">
     <g id="line2d_5">
      <g>
       <use xlink:href="#m881a52cb1c" x="217.15848" y="307.584" style="stroke: #000000; stroke-width: 0.8"/>
      </g>
     </g>
     <g id="text_5">
      <!-- 133 -->
      <g transform="translate(207.61473 322.182437) scale(0.1 -0.1)">
       <use xlink:href="#DejaVuSans-31"/>
       <use xlink:href="#DejaVuSans-33" x="63.623047"/>
       <use xlink:href="#DejaVuSans-33" x="127.246094"/>
      </g>
     </g>
    </g>
    <g id="xtick_6">
     <g id="line2d_6">
      <g>
       <use xlink:href="#m881a52cb1c" x="254.075719" y="307.584" style="stroke: #000000; stroke-width: 0.8"/>
      </g>
     </g>
     <g id="text_6">
      <!-- 167 -->
      <g transform="translate(244.531969 322.182437) scale(0.1 -0.1)">
       <use xlink:href="#DejaVuSans-31"/>
       <use xlink:href="#DejaVuSans-36" x="63.623047"/>
       <use xlink:href="#DejaVuSans-37" x="127.246094"/>
      </g>
     </g>
    </g>
    <g id="xtick_7">
     <g id="line2d_7">
      <g>
       <use xlink:href="#m881a52cb1c" x="289.907157" y="307.584" style="stroke: #000000; stroke-width: 0.8"/>
      </g>
     </g>
     <g id="text_7">
      <!-- 200 -->
      <g transform="translate(280.363407 322.182437) scale(0.1 -0.1)">
       <defs>
        <path id="DejaVuSans-32" d="M 1228 531 
L 3431 531 
L 3431 0 
L 469 0 
L 469 531 
Q 828 903 1448 1529 
Q 2069 2156 2228 2338 
Q 2531 2678 2651 2914 
Q 2772 3150 2772 3378 
Q 2772 3750 2511 3984 
Q 2250 4219 1831 4219 
Q 1534 4219 1204 4116 
Q 875 4013 500 3803 
L 500 4441 
Q 881 4594 1212 4672 
Q 1544 4750 1819 4750 
Q 2544 4750 2975 4387 
Q 3406 4025 3406 3419 
Q 3406 3131 3298 2873 
Q 3191 2616 2906 2266 
Q 2828 2175 2409 1742 
Q 1991 1309 1228 531 
z
" transform="scale(0.015625)"/>
       </defs>
       <use xlink:href="#DejaVuSans-32"/>
       <use xlink:href="#DejaVuSans-30" x="63.623047"/>
       <use xlink:href="#DejaVuSans-30" x="127.246094"/>
      </g>
     </g>
    </g>
    <g id="xtick_8">
     <g id="line2d_8">
      <g>
       <use xlink:href="#m881a52cb1c" x="325.738595" y="307.584" style="stroke: #000000; stroke-width: 0.8"/>
      </g>
     </g>
     <g id="text_8">
      <!-- 233 -->
      <g transform="translate(316.194845 322.182437) scale(0.1 -0.1)">
       <use xlink:href="#DejaVuSans-32"/>
       <use xlink:href="#DejaVuSans-33" x="63.623047"/>
       <use xlink:href="#DejaVuSans-33" x="127.246094"/>
      </g>
     </g>
    </g>
    <g id="xtick_9">
     <g id="line2d_9">
      <g>
       <use xlink:href="#m881a52cb1c" x="361.570033" y="307.584" style="stroke: #000000; stroke-width: 0.8"/>
      </g>
     </g>
     <g id="text_9">
      <!-- 266 -->
      <g transform="translate(352.026283 322.182437) scale(0.1 -0.1)">
       <use xlink:href="#DejaVuSans-32"/>
       <use xlink:href="#DejaVuSans-36" x="63.623047"/>
       <use xlink:href="#DejaVuSans-36" x="127.246094"/>
      </g>
     </g>
    </g>
    <g id="xtick_10">
     <g id="line2d_10">
      <g>
       <use xlink:href="#m881a52cb1c" x="398.487273" y="307.584" style="stroke: #000000; stroke-width: 0.8"/>
      </g>
     </g>
     <g id="text_10">
      <!-- 300 -->
      <g transform="translate(388.943523 322.182437) scale(0.1 -0.1)">
       <use xlink:href="#DejaVuSans-33"/>
       <use xlink:href="#DejaVuSans-30" x="63.623047"/>
       <use xlink:href="#DejaVuSans-30" x="127.246094"/>
      </g>
     </g>
    </g>
    <g id="text_11">
     <!-- Epochs -->
     <g transform="translate(218.244375 335.860562) scale(0.1 -0.1)">
      <defs>
       <path id="DejaVuSans-45" d="M 628 4666 
L 3578 4666 
L 3578 4134 
L 1259 4134 
L 1259 2753 
L 3481 2753 
L 3481 2222 
L 1259 2222 
L 1259 531 
L 3634 531 
L 3634 0 
L 628 0 
L 628 4666 
z
" transform="scale(0.015625)"/>
       <path id="DejaVuSans-70" d="M 1159 525 
L 1159 -1331 
L 581 -1331 
L 581 3500 
L 1159 3500 
L 1159 2969 
Q 1341 3281 1617 3432 
Q 1894 3584 2278 3584 
Q 2916 3584 3314 3078 
Q 3713 2572 3713 1747 
Q 3713 922 3314 415 
Q 2916 -91 2278 -91 
Q 1894 -91 1617 61 
Q 1341 213 1159 525 
z
M 3116 1747 
Q 3116 2381 2855 2742 
Q 2594 3103 2138 3103 
Q 1681 3103 1420 2742 
Q 1159 2381 1159 1747 
Q 1159 1113 1420 752 
Q 1681 391 2138 391 
Q 2594 391 2855 752 
Q 3116 1113 3116 1747 
z
" transform="scale(0.015625)"/>
       <path id="DejaVuSans-6f" d="M 1959 3097 
Q 1497 3097 1228 2736 
Q 959 2375 959 1747 
Q 959 1119 1226 758 
Q 1494 397 1959 397 
Q 2419 397 2687 759 
Q 2956 1122 2956 1747 
Q 2956 2369 2687 2733 
Q 2419 3097 1959 3097 
z
M 1959 3584 
Q 2709 3584 3137 3096 
Q 3566 2609 3566 1747 
Q 3566 888 3137 398 
Q 2709 -91 1959 -91 
Q 1206 -91 779 398 
Q 353 888 353 1747 
Q 353 2609 779 3096 
Q 1206 3584 1959 3584 
z
" transform="scale(0.015625)"/>
       <path id="DejaVuSans-63" d="M 3122 3366 
L 3122 2828 
Q 2878 2963 2633 3030 
Q 2388 3097 2138 3097 
Q 1578 3097 1268 2742 
Q 959 2388 959 1747 
Q 959 1106 1268 751 
Q 1578 397 2138 397 
Q 2388 397 2633 464 
Q 2878 531 3122 666 
L 3122 134 
Q 2881 22 2623 -34 
Q 2366 -91 2075 -91 
Q 1284 -91 818 406 
Q 353 903 353 1747 
Q 353 2603 823 3093 
Q 1294 3584 2113 3584 
Q 2378 3584 2631 3529 
Q 2884 3475 3122 3366 
z
" transform="scale(0.015625)"/>
       <path id="DejaVuSans-68" d="M 3513 2113 
L 3513 0 
L 2938 0 
L 2938 2094 
Q 2938 2591 2744 2837 
Q 2550 3084 2163 3084 
Q 1697 3084 1428 2787 
Q 1159 2491 1159 1978 
L 1159 0 
L 581 0 
L 581 4863 
L 1159 4863 
L 1159 2956 
Q 1366 3272 1645 3428 
Q 1925 3584 2291 3584 
Q 2894 3584 3203 3211 
Q 3513 2838 3513 2113 
z
" transform="scale(0.015625)"/>
       <path id="DejaVuSans-73" d="M 2834 3397 
L 2834 2853 
Q 2591 2978 2328 3040 
Q 2066 3103 1784 3103 
Q 1356 3103 1142 2972 
Q 928 2841 928 2578 
Q 928 2378 1081 2264 
Q 1234 2150 1697 2047 
L 1894 2003 
Q 2506 1872 2764 1633 
Q 3022 1394 3022 966 
Q 3022 478 2636 193 
Q 2250 -91 1575 -91 
Q 1294 -91 989 -36 
Q 684 19 347 128 
L 347 722 
Q 666 556 975 473 
Q 1284 391 1588 391 
Q 1994 391 2212 530 
Q 2431 669 2431 922 
Q 2431 1156 2273 1281 
Q 2116 1406 1581 1522 
L 1381 1569 
Q 847 1681 609 1914 
Q 372 2147 372 2553 
Q 372 3047 722 3315 
Q 1072 3584 1716 3584 
Q 2034 3584 2315 3537 
Q 2597 3491 2834 3397 
z
" transform="scale(0.015625)"/>
      </defs>
      <use xlink:href="#DejaVuSans-45"/>
      <use xlink:href="#DejaVuSans-70" x="63.183594"/>
      <use xlink:href="#DejaVuSans-6f" x="126.660156"/>
      <use xlink:href="#DejaVuSans-63" x="187.841797"/>
      <use xlink:href="#DejaVuSans-68" x="242.822266"/>
      <use xlink:href="#DejaVuSans-73" x="306.201172"/>
     </g>
    </g>
   </g>
   <g id="matplotlib.axis_2">
    <g id="ytick_1">
     <g id="line2d_11">
      <defs>
       <path id="m5082bbf448" d="M 0 0 
L -3.5 0 
" style="stroke: #000000; stroke-width: 0.8"/>
      </defs>
      <g>
       <use xlink:href="#m5082bbf448" x="57.6" y="272.509629" style="stroke: #000000; stroke-width: 0.8"/>
      </g>
     </g>
     <g id="text_12">
      <!-- 20 -->
      <g transform="translate(37.875 276.308848) scale(0.1 -0.1)">
       <use xlink:href="#DejaVuSans-32"/>
       <use xlink:href="#DejaVuSans-30" x="63.623047"/>
      </g>
     </g>
    </g>
    <g id="ytick_2">
     <g id="line2d_12">
      <g>
       <use xlink:href="#m5082bbf448" x="57.6" y="217.573706" style="stroke: #000000; stroke-width: 0.8"/>
      </g>
     </g>
     <g id="text_13">
      <!-- 40 -->
      <g transform="translate(37.875 221.372925) scale(0.1 -0.1)">
       <use xlink:href="#DejaVuSans-34"/>
       <use xlink:href="#DejaVuSans-30" x="63.623047"/>
      </g>
     </g>
    </g>
    <g id="ytick_3">
     <g id="line2d_13">
      <g>
       <use xlink:href="#m5082bbf448" x="57.6" y="162.637782" style="stroke: #000000; stroke-width: 0.8"/>
      </g>
     </g>
     <g id="text_14">
      <!-- 60 -->
      <g transform="translate(37.875 166.437001) scale(0.1 -0.1)">
       <use xlink:href="#DejaVuSans-36"/>
       <use xlink:href="#DejaVuSans-30" x="63.623047"/>
      </g>
     </g>
    </g>
    <g id="ytick_4">
     <g id="line2d_14">
      <g>
       <use xlink:href="#m5082bbf448" x="57.6" y="107.701859" style="stroke: #000000; stroke-width: 0.8"/>
      </g>
     </g>
     <g id="text_15">
      <!-- 80 -->
      <g transform="translate(37.875 111.501078) scale(0.1 -0.1)">
       <defs>
        <path id="DejaVuSans-38" d="M 2034 2216 
Q 1584 2216 1326 1975 
Q 1069 1734 1069 1313 
Q 1069 891 1326 650 
Q 1584 409 2034 409 
Q 2484 409 2743 651 
Q 3003 894 3003 1313 
Q 3003 1734 2745 1975 
Q 2488 2216 2034 2216 
z
M 1403 2484 
Q 997 2584 770 2862 
Q 544 3141 544 3541 
Q 544 4100 942 4425 
Q 1341 4750 2034 4750 
Q 2731 4750 3128 4425 
Q 3525 4100 3525 3541 
Q 3525 3141 3298 2862 
Q 3072 2584 2669 2484 
Q 3125 2378 3379 2068 
Q 3634 1759 3634 1313 
Q 3634 634 3220 271 
Q 2806 -91 2034 -91 
Q 1263 -91 848 271 
Q 434 634 434 1313 
Q 434 1759 690 2068 
Q 947 2378 1403 2484 
z
M 1172 3481 
Q 1172 3119 1398 2916 
Q 1625 2713 2034 2713 
Q 2441 2713 2670 2916 
Q 2900 3119 2900 3481 
Q 2900 3844 2670 4047 
Q 2441 4250 2034 4250 
Q 1625 4250 1398 4047 
Q 1172 3844 1172 3481 
z
" transform="scale(0.015625)"/>
       </defs>
       <use xlink:href="#DejaVuSans-38"/>
       <use xlink:href="#DejaVuSans-30" x="63.623047"/>
      </g>
     </g>
    </g>
    <g id="ytick_5">
     <g id="line2d_15">
      <g>
       <use xlink:href="#m5082bbf448" x="57.6" y="52.765936" style="stroke: #000000; stroke-width: 0.8"/>
      </g>
     </g>
     <g id="text_16">
      <!-- 100 -->
      <g transform="translate(31.5125 56.565154) scale(0.1 -0.1)">
       <use xlink:href="#DejaVuSans-31"/>
       <use xlink:href="#DejaVuSans-30" x="63.623047"/>
       <use xlink:href="#DejaVuSans-30" x="127.246094"/>
      </g>
     </g>
    </g>
    <g id="text_17">
     <!-- Accuracy -->
     <g transform="translate(25.432812 197.356125) rotate(-90) scale(0.1 -0.1)">
      <defs>
       <path id="DejaVuSans-41" d="M 2188 4044 
L 1331 1722 
L 3047 1722 
L 2188 4044 
z
M 1831 4666 
L 2547 4666 
L 4325 0 
L 3669 0 
L 3244 1197 
L 1141 1197 
L 716 0 
L 50 0 
L 1831 4666 
z
" transform="scale(0.015625)"/>
       <path id="DejaVuSans-75" d="M 544 1381 
L 544 3500 
L 1119 3500 
L 1119 1403 
Q 1119 906 1312 657 
Q 1506 409 1894 409 
Q 2359 409 2629 706 
Q 2900 1003 2900 1516 
L 2900 3500 
L 3475 3500 
L 3475 0 
L 2900 0 
L 2900 538 
Q 2691 219 2414 64 
Q 2138 -91 1772 -91 
Q 1169 -91 856 284 
Q 544 659 544 1381 
z
M 1991 3584 
L 1991 3584 
z
" transform="scale(0.015625)"/>
       <path id="DejaVuSans-72" d="M 2631 2963 
Q 2534 3019 2420 3045 
Q 2306 3072 2169 3072 
Q 1681 3072 1420 2755 
Q 1159 2438 1159 1844 
L 1159 0 
L 581 0 
L 581 3500 
L 1159 3500 
L 1159 2956 
Q 1341 3275 1631 3429 
Q 1922 3584 2338 3584 
Q 2397 3584 2469 3576 
Q 2541 3569 2628 3553 
L 2631 2963 
z
" transform="scale(0.015625)"/>
       <path id="DejaVuSans-61" d="M 2194 1759 
Q 1497 1759 1228 1600 
Q 959 1441 959 1056 
Q 959 750 1161 570 
Q 1363 391 1709 391 
Q 2188 391 2477 730 
Q 2766 1069 2766 1631 
L 2766 1759 
L 2194 1759 
z
M 3341 1997 
L 3341 0 
L 2766 0 
L 2766 531 
Q 2569 213 2275 61 
Q 1981 -91 1556 -91 
Q 1019 -91 701 211 
Q 384 513 384 1019 
Q 384 1609 779 1909 
Q 1175 2209 1959 2209 
L 2766 2209 
L 2766 2266 
Q 2766 2663 2505 2880 
Q 2244 3097 1772 3097 
Q 1472 3097 1187 3025 
Q 903 2953 641 2809 
L 641 3341 
Q 956 3463 1253 3523 
Q 1550 3584 1831 3584 
Q 2591 3584 2966 3190 
Q 3341 2797 3341 1997 
z
" transform="scale(0.015625)"/>
       <path id="DejaVuSans-79" d="M 2059 -325 
Q 1816 -950 1584 -1140 
Q 1353 -1331 966 -1331 
L 506 -1331 
L 506 -850 
L 844 -850 
Q 1081 -850 1212 -737 
Q 1344 -625 1503 -206 
L 1606 56 
L 191 3500 
L 800 3500 
L 1894 763 
L 2988 3500 
L 3597 3500 
L 2059 -325 
z
" transform="scale(0.015625)"/>
      </defs>
      <use xlink:href="#DejaVuSans-41"/>
      <use xlink:href="#DejaVuSans-63" x="66.658203"/>
      <use xlink:href="#DejaVuSans-63" x="121.638672"/>
      <use xlink:href="#DejaVuSans-75" x="176.619141"/>
      <use xlink:href="#DejaVuSans-72" x="239.998047"/>
      <use xlink:href="#DejaVuSans-61" x="281.111328"/>
      <use xlink:href="#DejaVuSans-63" x="342.390625"/>
      <use xlink:href="#DejaVuSans-79" x="397.371094"/>
     </g>
    </g>
   </g>
   <g id="line2d_16">
    <path d="M 73.832727 285.67777 
L 74.918528 228.736685 
L 76.00433 189.479475 
L 77.090131 163.593667 
L 78.175932 147.393064 
L 79.261733 136.526738 
L 80.347534 127.967721 
L 81.433335 121.205109 
L 84.690739 107.026147 
L 85.77654 104.246389 
L 86.862341 100.247054 
L 89.033943 93.500923 
L 92.291347 86.046118 
L 93.377148 86.134015 
L 94.462949 85.035297 
L 95.54875 108.602808 
L 96.634552 108.036968 
L 97.720353 105.504422 
L 98.806154 104.521069 
L 99.891955 102.147837 
L 100.977756 100.768945 
L 102.063557 98.939579 
L 103.149358 96.604802 
L 104.23516 95.473122 
L 105.320961 93.37457 
L 106.406762 91.764948 
L 107.492563 91.53971 
L 108.578364 89.325793 
L 110.749967 86.787753 
L 111.835768 85.145169 
L 115.093171 81.49193 
L 117.264773 78.366076 
L 118.350575 76.992678 
L 119.436376 75.992844 
L 120.522177 74.300818 
L 121.607978 73.108708 
L 122.693779 71.477111 
L 123.77958 71.015649 
L 124.865382 69.312636 
L 125.951183 68.538039 
L 128.122785 66.412019 
L 129.208586 65.620942 
L 130.294387 64.560678 
L 133.551791 62.451139 
L 134.637592 62.176459 
L 136.809194 61.896286 
L 137.894995 61.33594 
L 138.980797 83.453142 
L 140.066598 86.342772 
L 141.152399 86.01865 
L 144.409802 83.991514 
L 145.495604 84.546367 
L 146.581405 83.150995 
L 147.667206 83.156488 
L 148.753007 82.178629 
L 149.838808 80.904116 
L 150.924609 80.948064 
L 152.01041 80.799737 
L 154.182013 78.981358 
L 155.267814 78.695691 
L 156.353615 77.503582 
L 157.439416 77.640922 
L 158.525217 76.959716 
L 159.611019 76.69053 
L 160.69682 75.624773 
L 161.782621 75.701684 
L 162.868422 73.86133 
L 163.954223 73.515234 
L 165.040024 73.3724 
L 166.125825 72.817548 
L 167.211627 71.823207 
L 168.297428 71.88913 
L 169.383229 71.707842 
L 170.46903 71.026636 
L 171.554831 69.905944 
L 172.640632 69.19727 
L 173.726434 69.301648 
L 174.812235 67.994173 
L 175.898036 68.329283 
L 178.069638 66.4285 
L 179.155439 66.005493 
L 180.24124 65.813217 
L 182.412843 64.362909 
L 183.498644 64.132178 
L 184.584445 63.165306 
L 185.670246 62.846677 
L 187.841849 61.714997 
L 190.013451 60.940401 
L 191.099252 60.451471 
L 192.185053 59.627432 
L 193.270854 59.413182 
L 194.356656 58.819874 
L 195.442457 58.852836 
L 196.528258 58.001329 
L 200.871462 56.787245 
L 201.957264 56.232392 
L 203.043065 56.331277 
L 204.128866 55.924751 
L 205.214667 55.688527 
L 208.472071 55.238052 
L 209.557872 54.815045 
L 210.643673 54.880969 
L 211.729474 54.743629 
L 212.815275 54.864488 
L 213.901076 54.644744 
L 214.986877 54.628263 
L 216.072679 54.370064 
L 217.15848 54.414013 
L 219.330082 54.166802 
L 220.415883 54.106372 
L 221.501684 54.298648 
L 222.587486 54.106372 
L 223.673287 54.249205 
L 224.759088 54.216244 
L 225.844889 71.630932 
L 226.93069 75.036959 
L 228.016491 75.943402 
L 230.188094 75.443485 
L 231.273895 75.372068 
L 232.359696 75.163312 
L 233.445497 75.146831 
L 234.531298 74.938074 
L 235.617099 74.278843 
L 236.702901 74.608459 
L 237.788702 73.399868 
L 239.960304 73.361413 
L 241.046105 72.916432 
L 242.131906 72.976862 
L 244.303509 72.43849 
L 245.38931 71.779259 
L 247.560912 71.273848 
L 248.646713 71.158483 
L 249.732514 70.927752 
L 250.818316 70.823374 
L 251.904117 70.213585 
L 252.989918 70.087232 
L 254.075719 70.17513 
L 256.247321 69.554354 
L 257.333123 69.41152 
L 258.418924 69.147828 
L 259.504725 69.356584 
L 260.590526 68.334776 
L 261.676327 68.741302 
L 262.762128 68.581988 
L 263.847929 67.98868 
L 264.933731 67.966706 
L 266.019532 67.203096 
L 267.105333 67.609622 
L 268.191134 67.477776 
L 269.276935 66.79657 
L 270.362736 67.021808 
L 271.448538 66.543865 
L 272.534339 66.703179 
L 274.705941 65.86266 
L 275.791742 65.66489 
L 276.877543 65.857166 
L 279.049146 65.23639 
L 280.134947 65.033127 
L 281.220748 65.077076 
L 282.306549 64.741967 
L 283.39235 64.692524 
L 286.649754 64.033293 
L 287.735555 63.582819 
L 288.821356 63.81355 
L 289.907157 63.808056 
L 290.992958 63.192774 
L 295.336163 62.495088 
L 296.421964 62.11603 
L 297.507765 61.445811 
L 298.593566 61.857831 
L 299.679368 61.270016 
L 300.765169 62.072081 
L 301.85097 61.006324 
L 302.936771 61.127183 
L 304.022572 60.967869 
L 305.108373 60.533875 
L 306.194175 60.561343 
L 307.279976 60.099881 
L 310.537379 59.545028 
L 312.708981 59.627432 
L 314.880584 58.808887 
L 315.966385 59.001163 
L 317.052186 58.561675 
L 318.137987 58.655067 
L 319.223788 58.111201 
L 320.30959 58.072746 
L 322.481192 58.199098 
L 324.652794 57.034457 
L 325.738595 57.386047 
L 326.824396 56.941066 
L 327.910198 56.957546 
L 328.995999 57.116861 
L 330.0818 56.721322 
L 332.253402 56.523553 
L 333.339203 56.062091 
L 334.425005 56.160976 
L 335.510806 55.858828 
L 336.596607 55.715995 
L 337.682408 55.952219 
L 339.85401 55.303975 
L 340.939811 55.567668 
L 342.025613 55.117193 
L 343.111414 55.232558 
L 345.283016 54.826033 
L 346.368817 54.83702 
L 348.54042 54.573327 
L 350.712022 54.556847 
L 351.797823 54.265686 
L 352.883624 54.216244 
L 353.969425 54.007487 
L 355.055227 54.199763 
L 356.141028 53.9965 
L 357.226829 54.07341 
L 358.31263 53.930577 
L 359.398431 54.001994 
L 362.655835 53.568 
L 364.827437 53.732808 
L 368.08484 53.578987 
L 370.256443 54.106372 
L 371.342244 54.040449 
L 372.428045 54.595302 
L 373.513846 54.716161 
L 374.599647 54.414013 
L 375.685448 54.732642 
L 377.857051 54.946892 
L 378.942852 54.853501 
L 380.028653 55.007321 
L 381.114454 54.749122 
L 382.200255 54.880969 
L 383.286057 54.771097 
L 384.371858 54.985347 
L 385.457659 54.891956 
L 387.629261 54.985347 
L 388.715062 54.787578 
L 390.886665 55.073244 
L 395.229869 55.084231 
L 396.31567 54.935904 
L 398.487273 55.045776 
L 398.487273 55.045776 
" clip-path="url(#p699e5648b8)" style="fill: none; stroke: #1f77b4; stroke-width: 1.5; stroke-linecap: square"/>
   </g>
   <g id="line2d_17">
    <path d="M 73.832727 284.101109 
L 74.918528 251.194491 
L 76.00433 223.946273 
L 77.090131 210.074952 
L 78.175932 204.361616 
L 79.261733 183.101414 
L 80.347534 186.946929 
L 81.433335 173.32282 
L 82.519137 173.075608 
L 83.604938 162.884994 
L 84.690739 162.115891 
L 85.77654 153.545887 
L 86.862341 152.886656 
L 87.948142 149.480629 
L 89.033943 149.480629 
L 90.119745 145.525242 
L 91.205546 142.915786 
L 92.291347 141.844535 
L 93.377148 139.921778 
L 94.462949 138.740656 
L 95.54875 174.806089 
L 96.634552 164.533072 
L 97.720353 157.885825 
L 98.806154 158.62746 
L 99.891955 157.775953 
L 100.977756 158.572524 
L 102.063557 153.161336 
L 103.149358 151.018835 
L 104.23516 147.393064 
L 105.320961 145.41537 
L 106.406762 144.371588 
L 107.492563 149.975052 
L 109.664165 140.635945 
L 110.749967 140.553541 
L 111.835768 140.004182 
L 112.921569 142.531234 
L 114.00737 139.317483 
L 115.093171 137.092578 
L 116.178972 136.323475 
L 117.264773 135.279693 
L 118.350575 135.169821 
L 119.436376 130.637607 
L 120.522177 128.907125 
L 121.607978 129.676228 
L 122.693779 129.483953 
L 123.77958 125.061611 
L 124.865382 124.567187 
L 125.951183 123.523405 
L 127.036984 123.907956 
L 128.122785 123.083918 
L 129.208586 121.600648 
L 130.294387 122.369751 
L 131.380189 122.150007 
L 132.46599 121.271032 
L 133.551791 120.172314 
L 134.637592 120.556865 
L 135.723393 119.595486 
L 136.809194 120.062442 
L 137.894995 119.595486 
L 138.980797 147.997359 
L 140.066598 144.975883 
L 141.152399 142.888318 
L 142.2382 140.333797 
L 143.324001 145.332967 
L 144.409802 144.6188 
L 145.495604 140.388733 
L 146.581405 142.503766 
L 147.667206 142.448831 
L 148.753007 140.663413 
L 150.924609 135.087417 
L 152.01041 143.245401 
L 153.096212 135.71918 
L 154.182013 137.724341 
L 155.267814 135.664244 
L 156.353615 138.850528 
L 157.439416 136.543219 
L 159.611019 133.301999 
L 160.69682 130.939755 
L 161.782621 131.928601 
L 162.868422 130.06078 
L 163.954223 130.720011 
L 165.040024 129.895972 
L 166.125825 130.500267 
L 167.211627 134.016166 
L 168.297428 134.071102 
L 169.383229 129.566356 
L 170.46903 127.259048 
L 171.554831 129.813568 
L 172.640632 130.582671 
L 173.726434 127.121708 
L 174.812235 130.225588 
L 175.898036 127.36892 
L 176.983837 127.313984 
L 178.069638 124.869335 
L 179.155439 126.407541 
L 180.24124 123.85302 
L 181.327042 122.864174 
L 182.412843 124.237572 
L 183.498644 122.562026 
L 184.584445 123.413533 
L 185.670246 121.600648 
L 186.756047 120.08991 
L 187.841849 122.50709 
L 188.92765 122.534558 
L 190.013451 119.650422 
L 191.099252 119.760294 
L 192.185053 118.084748 
L 193.270854 118.689044 
L 194.356656 117.288178 
L 195.442457 116.409203 
L 196.528258 117.288178 
L 197.614059 117.919941 
L 198.69986 116.161991 
L 199.785661 116.409203 
L 200.871462 116.326799 
L 201.957264 114.623785 
L 203.043065 116.107055 
L 204.128866 115.035805 
L 205.214667 114.486445 
L 206.300468 114.239234 
L 207.386269 114.761125 
L 208.472071 113.250387 
L 209.557872 113.030644 
L 210.643673 113.222919 
L 211.729474 112.94824 
L 212.815275 112.39888 
L 213.901076 112.481284 
L 214.986877 112.8109 
L 216.072679 112.8109 
L 217.15848 112.124201 
L 218.244281 112.563688 
L 219.330082 112.261541 
L 220.415883 112.124201 
L 222.587486 112.508752 
L 223.673287 112.206605 
L 224.759088 112.8109 
L 225.844889 141.350112 
L 226.93069 138.960399 
L 228.016491 134.757801 
L 229.102292 134.51059 
L 230.188094 136.708027 
L 231.273895 136.515751 
L 232.359696 135.883988 
L 233.445497 135.636776 
L 234.531298 138.68572 
L 235.617099 132.862512 
L 237.788702 136.708027 
L 238.874503 132.999852 
L 239.960304 134.538058 
L 241.046105 137.532065 
L 242.131906 133.219595 
L 243.217708 131.516582 
L 244.303509 142.558702 
L 245.38931 133.906294 
L 246.475111 140.635945 
L 247.560912 134.126038 
L 248.646713 135.911456 
L 249.732514 132.285685 
L 250.818316 129.511421 
L 251.904117 125.913118 
L 252.989918 133.439339 
L 254.075719 129.593824 
L 255.16152 129.044465 
L 256.247321 132.038473 
L 257.333123 129.92344 
L 258.418924 129.071933 
L 259.504725 128.769786 
L 260.590526 131.626454 
L 261.676327 130.527735 
L 262.762128 129.264209 
L 263.847929 126.627285 
L 264.933731 127.011836 
L 266.019532 127.863343 
L 267.105333 132.313153 
L 268.191134 132.203281 
L 269.276935 127.698535 
L 270.362736 130.115716 
L 271.448538 128.962061 
L 272.534339 128.824722 
L 273.62014 129.099401 
L 274.705941 131.763793 
L 275.791742 130.143184 
L 276.877543 127.945747 
L 277.963344 127.561195 
L 279.049146 126.105393 
L 280.134947 126.435009 
L 281.220748 128.247894 
L 282.306549 125.968053 
L 283.39235 126.270201 
L 284.478151 124.896803 
L 285.563953 130.335459 
L 286.649754 123.743149 
L 287.735555 126.270201 
L 288.821356 125.638438 
L 289.907157 123.962892 
L 290.992958 126.489945 
L 292.07876 131.901133 
L 293.164561 125.061611 
L 294.250362 124.155168 
L 295.336163 124.210104 
L 297.507765 122.78177 
L 298.593566 128.522574 
L 299.679368 121.57318 
L 300.765169 123.935424 
L 301.85097 121.518244 
L 302.936771 123.715681 
L 304.022572 122.424686 
L 305.108373 123.111385 
L 306.194175 119.210935 
L 307.279976 123.85302 
L 308.365777 124.814399 
L 309.451578 123.743149 
L 310.537379 121.243564 
L 311.62318 121.930263 
L 312.708981 123.221257 
L 313.794783 119.870166 
L 314.880584 121.600648 
L 315.966385 119.348275 
L 317.052186 118.441832 
L 318.137987 119.183467 
L 319.223788 118.716512 
L 320.30959 121.463308 
L 321.395391 125.253886 
L 322.481192 116.326799 
L 323.566993 119.787762 
L 324.652794 117.590325 
L 325.738595 120.282185 
L 326.824396 118.414364 
L 327.910198 118.689044 
L 328.995999 114.925933 
L 330.0818 115.832376 
L 331.167601 117.150838 
L 332.253402 117.480453 
L 333.339203 116.299331 
L 334.425005 115.585164 
L 335.510806 117.013498 
L 336.596607 117.068434 
L 337.682408 115.447824 
L 338.768209 114.596317 
L 340.939811 115.145677 
L 342.025613 114.29417 
L 343.111414 114.898465 
L 344.197215 112.755964 
L 345.283016 114.788593 
L 346.368817 112.343944 
L 347.454618 112.975708 
L 348.54042 113.827214 
L 349.626221 112.096733 
L 350.712022 111.355098 
L 351.797823 113.689875 
L 352.883624 111.46497 
L 353.969425 111.05295 
L 355.055227 111.959393 
L 356.141028 110.778271 
L 357.226829 111.080418 
L 358.31263 110.338783 
L 359.398431 110.723335 
L 360.484232 110.366251 
L 361.570033 109.240065 
L 363.741636 109.349937 
L 364.827437 109.926764 
L 365.913238 108.553366 
L 369.170642 111.437502 
L 370.256443 110.970546 
L 371.342244 114.211766 
L 372.428045 114.15683 
L 373.513846 112.783432 
L 374.599647 111.986861 
L 375.685448 113.662407 
L 376.77125 112.67356 
L 377.857051 115.310484 
L 378.942852 114.706189 
L 380.028653 115.804908 
L 381.114454 115.063273 
L 382.200255 112.39888 
L 383.286057 115.310484 
L 384.371858 114.513913 
L 385.457659 115.090741 
L 386.54346 112.783432 
L 387.629261 117.672729 
L 388.715062 115.695036 
L 389.800863 115.50276 
L 390.886665 114.29417 
L 391.972466 113.470131 
L 393.058267 114.925933 
L 394.144068 114.321638 
L 395.229869 115.310484 
L 396.31567 113.937086 
L 397.401472 114.541381 
L 398.487273 115.722504 
L 398.487273 115.722504 
" clip-path="url(#p699e5648b8)" style="fill: none; stroke: #ff7f0e; stroke-width: 1.5; stroke-linecap: square"/>
   </g>
   <g id="line2d_18">
    <path d="M 73.832727 295.488 
L 74.918528 273.28631 
L 76.00433 258.131572 
L 77.090131 252.069677 
L 78.175932 253.869302 
L 79.261733 235.854108 
L 80.347534 242.105437 
L 81.433335 232.633726 
L 82.519137 230.531006 
L 83.604938 227.519002 
L 84.690739 226.571831 
L 85.77654 221.476051 
L 86.862341 221.551824 
L 87.948142 220.566766 
L 89.033943 220.282615 
L 90.119745 217.895744 
L 91.205546 213.292492 
L 92.291347 214.751136 
L 93.377148 213.595587 
L 94.462949 212.83785 
L 95.54875 235.854108 
L 96.634552 230.246855 
L 97.720353 229.962704 
L 98.806154 227.613719 
L 99.891955 226.723379 
L 100.977756 229.527005 
L 102.063557 227.291681 
L 103.149358 222.839977 
L 104.23516 224.0713 
L 105.320961 218.236726 
L 106.406762 219.108123 
L 107.492563 223.938696 
L 108.578364 220.055294 
L 109.664165 216.872799 
L 110.749967 218.710311 
L 111.835768 217.346385 
L 112.921569 218.066235 
L 114.00737 216.910686 
L 115.093171 210.072111 
L 116.178972 220.150011 
L 117.264773 212.83785 
L 118.350575 210.072111 
L 119.436376 208.177769 
L 120.522177 209.2386 
L 121.607978 208.139882 
L 122.693779 210.242602 
L 123.77958 202.911497 
L 124.865382 205.620407 
L 125.951183 201.111872 
L 127.036984 204.749009 
L 128.122785 204.067046 
L 129.208586 201.755949 
L 130.294387 202.532629 
L 131.380189 201.680175 
L 132.46599 201.036099 
L 133.551791 201.111872 
L 134.637592 201.98327 
L 135.723393 200.733004 
L 136.809194 200.486739 
L 137.894995 200.827721 
L 138.980797 224.639602 
L 140.066598 215.016344 
L 141.152399 218.729255 
L 142.2382 216.815969 
L 143.324001 221.210843 
L 144.409802 219.562765 
L 145.495604 217.138007 
L 146.581405 218.823972 
L 147.667206 218.142008 
L 148.753007 214.713249 
L 149.838808 216.077176 
L 150.924609 213.197775 
L 152.01041 217.497932 
L 153.096212 213.785021 
L 154.182013 218.520877 
L 155.267814 211.170829 
L 156.353615 220.964578 
L 157.439416 218.142008 
L 158.525217 216.361327 
L 159.611019 211.360263 
L 160.69682 210.962452 
L 161.782621 214.9974 
L 162.868422 209.84479 
L 163.954223 212.534756 
L 165.040024 211.454981 
L 166.125825 209.750073 
L 167.211627 217.384272 
L 168.297428 215.414156 
L 169.383229 211.322377 
L 170.46903 207.950448 
L 171.554831 211.34132 
L 172.640632 212.970454 
L 173.726434 210.56464 
L 174.812235 210.223658 
L 175.898036 206.889616 
L 178.069638 206.681238 
L 179.155439 208.916562 
L 180.24124 205.885615 
L 181.327042 203.763951 
L 182.412843 206.908559 
L 183.498644 203.517687 
L 184.584445 204.521688 
L 185.670246 201.26342 
L 186.756047 202.15376 
L 187.841849 202.456855 
L 188.92765 207.154824 
L 190.013451 202.968328 
L 191.099252 199.975267 
L 192.185053 198.251416 
L 193.270854 201.566514 
L 194.356656 201.755949 
L 195.442457 200.221531 
L 196.528258 200.373079 
L 197.614059 199.99421 
L 198.69986 200.183645 
L 199.785661 197.209527 
L 200.871462 198.308246 
L 201.957264 197.323188 
L 203.043065 196.944319 
L 204.128866 196.072922 
L 205.214667 197.83466 
L 206.300468 194.765826 
L 207.386269 195.921375 
L 208.472071 195.390959 
L 209.557872 195.997148 
L 210.643673 194.386957 
L 211.729474 196.129752 
L 212.815275 194.045976 
L 213.901076 193.818655 
L 214.986877 194.349071 
L 216.072679 195.296242 
L 217.15848 194.311184 
L 218.244281 195.049977 
L 219.330082 194.727939 
L 220.415883 193.704994 
L 221.501684 193.799711 
L 222.587486 194.519561 
L 223.673287 193.496617 
L 224.759088 194.538505 
L 225.844889 220.604653 
L 226.93069 215.71725 
L 228.016491 210.280488 
L 229.102292 215.395212 
L 230.188094 216.152949 
L 231.273895 216.512874 
L 232.359696 214.902683 
L 233.445497 215.698307 
L 234.531298 218.975519 
L 235.617099 215.508873 
L 236.702901 221.002465 
L 237.788702 218.255669 
L 238.874503 218.767141 
L 239.960304 217.10012 
L 241.046105 218.274612 
L 242.131906 211.246603 
L 243.217708 217.213781 
L 244.303509 223.976582 
L 245.38931 216.039289 
L 246.475111 217.744197 
L 247.560912 215.111061 
L 248.646713 214.144946 
L 249.732514 212.099057 
L 250.818316 212.193774 
L 251.904117 208.57558 
L 252.989918 216.077176 
L 254.075719 210.299432 
L 255.16152 208.348259 
L 256.247321 211.39815 
L 257.333123 208.973392 
L 258.418924 209.276487 
L 259.504725 206.96539 
L 260.590526 212.629473 
L 261.676327 214.448041 
L 262.762128 211.492867 
L 263.847929 210.318375 
L 264.933731 205.052104 
L 266.019532 211.132942 
L 267.105333 212.155887 
L 268.191134 209.996337 
L 269.276935 211.057169 
L 270.362736 214.561702 
L 271.448538 208.120938 
L 272.534339 210.829848 
L 273.62014 210.640413 
L 274.705941 214.845853 
L 275.791742 212.136944 
L 277.963344 209.29543 
L 279.049146 209.446978 
L 280.134947 211.322377 
L 281.220748 209.863733 
L 282.306549 208.689241 
L 283.39235 208.158825 
L 284.478151 209.200713 
L 285.563953 213.178832 
L 286.649754 206.24554 
L 287.735555 210.450979 
L 288.821356 206.889616 
L 289.907157 206.96539 
L 290.992958 206.738069 
L 292.07876 216.039289 
L 293.164561 210.261545 
L 294.250362 203.42297 
L 295.336163 207.912561 
L 296.421964 204.521688 
L 297.507765 210.204715 
L 298.593566 208.291429 
L 299.679368 202.75995 
L 300.765169 208.386146 
L 301.85097 203.555574 
L 302.936771 207.912561 
L 304.022572 206.472861 
L 305.108373 206.24554 
L 306.194175 205.298368 
L 307.279976 207.401088 
L 308.365777 206.96539 
L 309.451578 209.522752 
L 310.537379 207.761013 
L 311.62318 203.385083 
L 312.708981 207.060107 
L 313.794783 200.335192 
L 314.880584 203.460857 
L 315.966385 205.165765 
L 317.052186 201.945383 
L 318.137987 204.502745 
L 319.223788 202.684176 
L 320.30959 204.010216 
L 321.395391 211.000338 
L 322.481192 201.945383 
L 323.566993 202.362138 
L 324.652794 198.630284 
L 325.738595 203.309309 
L 326.824396 202.002213 
L 327.910198 198.44085 
L 328.995999 198.743944 
L 330.0818 198.346133 
L 331.167601 197.436848 
L 332.253402 200.638287 
L 333.339203 198.459793 
L 334.425005 198.194585 
L 335.510806 201.737005 
L 336.596607 200.126814 
L 337.682408 199.463795 
L 338.768209 197.588396 
L 339.85401 198.573454 
L 340.939811 202.343195 
L 342.025613 196.262356 
L 343.111414 197.607339 
L 344.197215 198.080925 
L 345.283016 197.986208 
L 346.368817 197.342131 
L 347.454618 197.00115 
L 348.54042 195.694054 
L 349.626221 195.750884 
L 350.712022 194.595335 
L 351.797823 198.175642 
L 352.883624 194.254354 
L 353.969425 193.231409 
L 355.055227 194.481675 
L 356.141028 193.004088 
L 357.226829 193.57239 
L 358.31263 193.553447 
L 359.398431 192.966201 
L 360.484232 192.094803 
L 361.570033 193.098805 
L 362.655835 192.757823 
L 363.741636 193.45873 
L 365.913238 190.257291 
L 366.999039 192.473672 
L 368.08484 193.174578 
L 369.170642 195.504619 
L 370.256443 193.894428 
L 371.342244 196.584394 
L 372.428045 197.967264 
L 373.513846 196.432847 
L 374.599647 195.978205 
L 375.685448 201.737005 
L 376.77125 198.118812 
L 377.857051 199.615342 
L 378.942852 195.01209 
L 380.028653 199.444851 
L 381.114454 199.577455 
L 382.200255 194.708996 
L 383.286057 195.277298 
L 384.371858 197.398962 
L 385.457659 199.766889 
L 386.54346 198.327189 
L 387.629261 198.573454 
L 388.715062 199.21753 
L 389.800863 201.623345 
L 390.886665 196.035035 
L 391.972466 196.679112 
L 393.058267 197.891491 
L 394.144068 198.649227 
L 395.229869 200.884551 
L 396.31567 196.148696 
L 397.401472 195.334129 
L 398.487273 199.350134 
L 398.487273 199.350134 
" clip-path="url(#p699e5648b8)" style="fill: none; stroke: #2ca02c; stroke-width: 1.5; stroke-linecap: square"/>
   </g>
   <g id="line2d_19">
    <path d="M 368.08484 109.56968 
L 369.170642 109.761956 
M 371.342244 109.56968 
L 372.428045 113.827214 
L 373.513846 114.29417 
L 374.599647 113.113047 
L 375.685448 116.601479 
L 376.77125 116.738818 
L 377.857051 114.925933 
L 378.942852 116.024651 
L 380.028653 115.035805 
L 381.114454 114.404042 
L 382.200255 118.4693 
L 383.286057 114.43151 
L 384.371858 115.77744 
L 385.457659 114.513913 
L 386.54346 114.898465 
L 387.629261 113.332791 
L 388.715062 116.546543 
L 389.800863 114.29417 
L 391.972466 118.496768 
L 393.058267 116.519075 
L 394.144068 114.239234 
L 395.229869 124.1277 
L 396.31567 119.81523 
L 397.401472 120.831545 
L 398.487273 127.423855 
L 398.487273 127.423855 
" clip-path="url(#p699e5648b8)" style="fill: none; stroke: #d62728; stroke-width: 1.5; stroke-linecap: square"/>
   </g>
   <g id="line2d_20">
    <path d="M 368.08484 193.288239 
L 369.170642 192.776767 
L 370.256443 192.625219 
L 371.342244 193.079861 
L 372.428045 198.895492 
L 373.513846 201.149759 
L 374.599647 195.504619 
L 375.685448 202.930441 
L 377.857051 195.883488 
L 378.942852 198.781831 
L 380.028653 199.331191 
L 381.114454 195.769827 
L 382.200255 199.350134 
L 383.286057 195.523563 
L 384.371858 198.725001 
L 385.457659 196.300243 
L 386.54346 196.584394 
L 387.629261 194.576392 
L 388.715062 203.42297 
L 389.800863 198.459793 
L 390.886665 197.702056 
L 391.972466 199.615342 
L 393.058267 200.202588 
L 394.144068 196.33813 
L 395.229869 203.498743 
L 396.31567 201.528628 
L 397.401472 203.044101 
L 398.487273 206.775955 
L 398.487273 206.775955 
" clip-path="url(#p699e5648b8)" style="fill: none; stroke: #9467bd; stroke-width: 1.5; stroke-linecap: square"/>
   </g>
   <g id="patch_3">
    <path d="M 57.6 307.584 
L 57.6 41.472 
" style="fill: none; stroke: #000000; stroke-width: 0.8; stroke-linejoin: miter; stroke-linecap: square"/>
   </g>
   <g id="patch_4">
    <path d="M 414.72 307.584 
L 414.72 41.472 
" style="fill: none; stroke: #000000; stroke-width: 0.8; stroke-linejoin: miter; stroke-linecap: square"/>
   </g>
   <g id="patch_5">
    <path d="M 57.6 307.584 
L 414.72 307.584 
" style="fill: none; stroke: #000000; stroke-width: 0.8; stroke-linejoin: miter; stroke-linecap: square"/>
   </g>
   <g id="patch_6">
    <path d="M 57.6 41.472 
L 414.72 41.472 
" style="fill: none; stroke: #000000; stroke-width: 0.8; stroke-linejoin: miter; stroke-linecap: square"/>
   </g>
   <g id="text_18">
    <!-- Learning Curves -->
    <g transform="translate(187.37625 35.472) scale(0.12 -0.12)">
     <defs>
      <path id="DejaVuSans-4c" d="M 628 4666 
L 1259 4666 
L 1259 531 
L 3531 531 
L 3531 0 
L 628 0 
L 628 4666 
z
" transform="scale(0.015625)"/>
      <path id="DejaVuSans-65" d="M 3597 1894 
L 3597 1613 
L 953 1613 
Q 991 1019 1311 708 
Q 1631 397 2203 397 
Q 2534 397 2845 478 
Q 3156 559 3463 722 
L 3463 178 
Q 3153 47 2828 -22 
Q 2503 -91 2169 -91 
Q 1331 -91 842 396 
Q 353 884 353 1716 
Q 353 2575 817 3079 
Q 1281 3584 2069 3584 
Q 2775 3584 3186 3129 
Q 3597 2675 3597 1894 
z
M 3022 2063 
Q 3016 2534 2758 2815 
Q 2500 3097 2075 3097 
Q 1594 3097 1305 2825 
Q 1016 2553 972 2059 
L 3022 2063 
z
" transform="scale(0.015625)"/>
      <path id="DejaVuSans-6e" d="M 3513 2113 
L 3513 0 
L 2938 0 
L 2938 2094 
Q 2938 2591 2744 2837 
Q 2550 3084 2163 3084 
Q 1697 3084 1428 2787 
Q 1159 2491 1159 1978 
L 1159 0 
L 581 0 
L 581 3500 
L 1159 3500 
L 1159 2956 
Q 1366 3272 1645 3428 
Q 1925 3584 2291 3584 
Q 2894 3584 3203 3211 
Q 3513 2838 3513 2113 
z
" transform="scale(0.015625)"/>
      <path id="DejaVuSans-69" d="M 603 3500 
L 1178 3500 
L 1178 0 
L 603 0 
L 603 3500 
z
M 603 4863 
L 1178 4863 
L 1178 4134 
L 603 4134 
L 603 4863 
z
" transform="scale(0.015625)"/>
      <path id="DejaVuSans-67" d="M 2906 1791 
Q 2906 2416 2648 2759 
Q 2391 3103 1925 3103 
Q 1463 3103 1205 2759 
Q 947 2416 947 1791 
Q 947 1169 1205 825 
Q 1463 481 1925 481 
Q 2391 481 2648 825 
Q 2906 1169 2906 1791 
z
M 3481 434 
Q 3481 -459 3084 -895 
Q 2688 -1331 1869 -1331 
Q 1566 -1331 1297 -1286 
Q 1028 -1241 775 -1147 
L 775 -588 
Q 1028 -725 1275 -790 
Q 1522 -856 1778 -856 
Q 2344 -856 2625 -561 
Q 2906 -266 2906 331 
L 2906 616 
Q 2728 306 2450 153 
Q 2172 0 1784 0 
Q 1141 0 747 490 
Q 353 981 353 1791 
Q 353 2603 747 3093 
Q 1141 3584 1784 3584 
Q 2172 3584 2450 3431 
Q 2728 3278 2906 2969 
L 2906 3500 
L 3481 3500 
L 3481 434 
z
" transform="scale(0.015625)"/>
      <path id="DejaVuSans-20" transform="scale(0.015625)"/>
      <path id="DejaVuSans-43" d="M 4122 4306 
L 4122 3641 
Q 3803 3938 3442 4084 
Q 3081 4231 2675 4231 
Q 1875 4231 1450 3742 
Q 1025 3253 1025 2328 
Q 1025 1406 1450 917 
Q 1875 428 2675 428 
Q 3081 428 3442 575 
Q 3803 722 4122 1019 
L 4122 359 
Q 3791 134 3420 21 
Q 3050 -91 2638 -91 
Q 1578 -91 968 557 
Q 359 1206 359 2328 
Q 359 3453 968 4101 
Q 1578 4750 2638 4750 
Q 3056 4750 3426 4639 
Q 3797 4528 4122 4306 
z
" transform="scale(0.015625)"/>
      <path id="DejaVuSans-76" d="M 191 3500 
L 800 3500 
L 1894 563 
L 2988 3500 
L 3597 3500 
L 2284 0 
L 1503 0 
L 191 3500 
z
" transform="scale(0.015625)"/>
     </defs>
     <use xlink:href="#DejaVuSans-4c"/>
     <use xlink:href="#DejaVuSans-65" x="53.962891"/>
     <use xlink:href="#DejaVuSans-61" x="115.486328"/>
     <use xlink:href="#DejaVuSans-72" x="176.765625"/>
     <use xlink:href="#DejaVuSans-6e" x="216.128906"/>
     <use xlink:href="#DejaVuSans-69" x="279.507812"/>
     <use xlink:href="#DejaVuSans-6e" x="307.291016"/>
     <use xlink:href="#DejaVuSans-67" x="370.669922"/>
     <use xlink:href="#DejaVuSans-20" x="434.146484"/>
     <use xlink:href="#DejaVuSans-43" x="465.933594"/>
     <use xlink:href="#DejaVuSans-75" x="535.757812"/>
     <use xlink:href="#DejaVuSans-72" x="599.136719"/>
     <use xlink:href="#DejaVuSans-76" x="640.25"/>
     <use xlink:href="#DejaVuSans-65" x="699.429688"/>
     <use xlink:href="#DejaVuSans-73" x="760.953125"/>
    </g>
   </g>
   <g id="legend_1">
    <g id="patch_7">
     <path d="M 214.18875 302.584 
L 407.72 302.584 
Q 409.72 302.584 409.72 300.584 
L 409.72 228.193375 
Q 409.72 226.193375 407.72 226.193375 
L 214.18875 226.193375 
Q 212.18875 226.193375 212.18875 228.193375 
L 212.18875 300.584 
Q 212.18875 302.584 214.18875 302.584 
z
" style="fill: #ffffff; opacity: 0.8; stroke: #cccccc; stroke-linejoin: miter"/>
    </g>
    <g id="line2d_21">
     <path d="M 216.18875 234.291812 
L 226.18875 234.291812 
L 236.18875 234.291812 
" style="fill: none; stroke: #1f77b4; stroke-width: 1.5; stroke-linecap: square"/>
    </g>
    <g id="text_19">
     <!-- Train Accuracy -->
     <g transform="translate(244.18875 237.791812) scale(0.1 -0.1)">
      <defs>
       <path id="DejaVuSans-54" d="M -19 4666 
L 3928 4666 
L 3928 4134 
L 2272 4134 
L 2272 0 
L 1638 0 
L 1638 4134 
L -19 4134 
L -19 4666 
z
" transform="scale(0.015625)"/>
      </defs>
      <use xlink:href="#DejaVuSans-54"/>
      <use xlink:href="#DejaVuSans-72" x="46.333984"/>
      <use xlink:href="#DejaVuSans-61" x="87.447266"/>
      <use xlink:href="#DejaVuSans-69" x="148.726562"/>
      <use xlink:href="#DejaVuSans-6e" x="176.509766"/>
      <use xlink:href="#DejaVuSans-20" x="239.888672"/>
      <use xlink:href="#DejaVuSans-41" x="271.675781"/>
      <use xlink:href="#DejaVuSans-63" x="338.333984"/>
      <use xlink:href="#DejaVuSans-63" x="393.314453"/>
      <use xlink:href="#DejaVuSans-75" x="448.294922"/>
      <use xlink:href="#DejaVuSans-72" x="511.673828"/>
      <use xlink:href="#DejaVuSans-61" x="552.787109"/>
      <use xlink:href="#DejaVuSans-63" x="614.066406"/>
      <use xlink:href="#DejaVuSans-79" x="669.046875"/>
     </g>
    </g>
    <g id="line2d_22">
     <path d="M 216.18875 248.969937 
L 226.18875 248.969937 
L 236.18875 248.969937 
" style="fill: none; stroke: #ff7f0e; stroke-width: 1.5; stroke-linecap: square"/>
    </g>
    <g id="text_20">
     <!-- Validation Accuracy -->
     <g transform="translate(244.18875 252.469937) scale(0.1 -0.1)">
      <defs>
       <path id="DejaVuSans-56" d="M 1831 0 
L 50 4666 
L 709 4666 
L 2188 738 
L 3669 4666 
L 4325 4666 
L 2547 0 
L 1831 0 
z
" transform="scale(0.015625)"/>
       <path id="DejaVuSans-6c" d="M 603 4863 
L 1178 4863 
L 1178 0 
L 603 0 
L 603 4863 
z
" transform="scale(0.015625)"/>
       <path id="DejaVuSans-64" d="M 2906 2969 
L 2906 4863 
L 3481 4863 
L 3481 0 
L 2906 0 
L 2906 525 
Q 2725 213 2448 61 
Q 2172 -91 1784 -91 
Q 1150 -91 751 415 
Q 353 922 353 1747 
Q 353 2572 751 3078 
Q 1150 3584 1784 3584 
Q 2172 3584 2448 3432 
Q 2725 3281 2906 2969 
z
M 947 1747 
Q 947 1113 1208 752 
Q 1469 391 1925 391 
Q 2381 391 2643 752 
Q 2906 1113 2906 1747 
Q 2906 2381 2643 2742 
Q 2381 3103 1925 3103 
Q 1469 3103 1208 2742 
Q 947 2381 947 1747 
z
" transform="scale(0.015625)"/>
       <path id="DejaVuSans-74" d="M 1172 4494 
L 1172 3500 
L 2356 3500 
L 2356 3053 
L 1172 3053 
L 1172 1153 
Q 1172 725 1289 603 
Q 1406 481 1766 481 
L 2356 481 
L 2356 0 
L 1766 0 
Q 1100 0 847 248 
Q 594 497 594 1153 
L 594 3053 
L 172 3053 
L 172 3500 
L 594 3500 
L 594 4494 
L 1172 4494 
z
" transform="scale(0.015625)"/>
      </defs>
      <use xlink:href="#DejaVuSans-56"/>
      <use xlink:href="#DejaVuSans-61" x="60.658203"/>
      <use xlink:href="#DejaVuSans-6c" x="121.9375"/>
      <use xlink:href="#DejaVuSans-69" x="149.720703"/>
      <use xlink:href="#DejaVuSans-64" x="177.503906"/>
      <use xlink:href="#DejaVuSans-61" x="240.980469"/>
      <use xlink:href="#DejaVuSans-74" x="302.259766"/>
      <use xlink:href="#DejaVuSans-69" x="341.46875"/>
      <use xlink:href="#DejaVuSans-6f" x="369.251953"/>
      <use xlink:href="#DejaVuSans-6e" x="430.433594"/>
      <use xlink:href="#DejaVuSans-20" x="493.8125"/>
      <use xlink:href="#DejaVuSans-41" x="525.599609"/>
      <use xlink:href="#DejaVuSans-63" x="592.257812"/>
      <use xlink:href="#DejaVuSans-63" x="647.238281"/>
      <use xlink:href="#DejaVuSans-75" x="702.21875"/>
      <use xlink:href="#DejaVuSans-72" x="765.597656"/>
      <use xlink:href="#DejaVuSans-61" x="806.710938"/>
      <use xlink:href="#DejaVuSans-63" x="867.990234"/>
      <use xlink:href="#DejaVuSans-79" x="922.970703"/>
     </g>
    </g>
    <g id="line2d_23">
     <path d="M 216.18875 263.648062 
L 226.18875 263.648062 
L 236.18875 263.648062 
" style="fill: none; stroke: #2ca02c; stroke-width: 1.5; stroke-linecap: square"/>
    </g>
    <g id="text_21">
     <!-- Robust Validation Accuracy -->
     <g transform="translate(244.18875 267.148062) scale(0.1 -0.1)">
      <defs>
       <path id="DejaVuSans-52" d="M 2841 2188 
Q 3044 2119 3236 1894 
Q 3428 1669 3622 1275 
L 4263 0 
L 3584 0 
L 2988 1197 
Q 2756 1666 2539 1819 
Q 2322 1972 1947 1972 
L 1259 1972 
L 1259 0 
L 628 0 
L 628 4666 
L 2053 4666 
Q 2853 4666 3247 4331 
Q 3641 3997 3641 3322 
Q 3641 2881 3436 2590 
Q 3231 2300 2841 2188 
z
M 1259 4147 
L 1259 2491 
L 2053 2491 
Q 2509 2491 2742 2702 
Q 2975 2913 2975 3322 
Q 2975 3731 2742 3939 
Q 2509 4147 2053 4147 
L 1259 4147 
z
" transform="scale(0.015625)"/>
       <path id="DejaVuSans-62" d="M 3116 1747 
Q 3116 2381 2855 2742 
Q 2594 3103 2138 3103 
Q 1681 3103 1420 2742 
Q 1159 2381 1159 1747 
Q 1159 1113 1420 752 
Q 1681 391 2138 391 
Q 2594 391 2855 752 
Q 3116 1113 3116 1747 
z
M 1159 2969 
Q 1341 3281 1617 3432 
Q 1894 3584 2278 3584 
Q 2916 3584 3314 3078 
Q 3713 2572 3713 1747 
Q 3713 922 3314 415 
Q 2916 -91 2278 -91 
Q 1894 -91 1617 61 
Q 1341 213 1159 525 
L 1159 0 
L 581 0 
L 581 4863 
L 1159 4863 
L 1159 2969 
z
" transform="scale(0.015625)"/>
      </defs>
      <use xlink:href="#DejaVuSans-52"/>
      <use xlink:href="#DejaVuSans-6f" x="64.982422"/>
      <use xlink:href="#DejaVuSans-62" x="126.164062"/>
      <use xlink:href="#DejaVuSans-75" x="189.640625"/>
      <use xlink:href="#DejaVuSans-73" x="253.019531"/>
      <use xlink:href="#DejaVuSans-74" x="305.119141"/>
      <use xlink:href="#DejaVuSans-20" x="344.328125"/>
      <use xlink:href="#DejaVuSans-56" x="376.115234"/>
      <use xlink:href="#DejaVuSans-61" x="436.773438"/>
      <use xlink:href="#DejaVuSans-6c" x="498.052734"/>
      <use xlink:href="#DejaVuSans-69" x="525.835938"/>
      <use xlink:href="#DejaVuSans-64" x="553.619141"/>
      <use xlink:href="#DejaVuSans-61" x="617.095703"/>
      <use xlink:href="#DejaVuSans-74" x="678.375"/>
      <use xlink:href="#DejaVuSans-69" x="717.583984"/>
      <use xlink:href="#DejaVuSans-6f" x="745.367188"/>
      <use xlink:href="#DejaVuSans-6e" x="806.548828"/>
      <use xlink:href="#DejaVuSans-20" x="869.927734"/>
      <use xlink:href="#DejaVuSans-41" x="901.714844"/>
      <use xlink:href="#DejaVuSans-63" x="968.373047"/>
      <use xlink:href="#DejaVuSans-63" x="1023.353516"/>
      <use xlink:href="#DejaVuSans-75" x="1078.333984"/>
      <use xlink:href="#DejaVuSans-72" x="1141.712891"/>
      <use xlink:href="#DejaVuSans-61" x="1182.826172"/>
      <use xlink:href="#DejaVuSans-63" x="1244.105469"/>
      <use xlink:href="#DejaVuSans-79" x="1299.085938"/>
     </g>
    </g>
    <g id="line2d_24">
     <path d="M 216.18875 278.326188 
L 226.18875 278.326188 
L 236.18875 278.326188 
" style="fill: none; stroke: #d62728; stroke-width: 1.5; stroke-linecap: square"/>
    </g>
    <g id="text_22">
     <!-- SWA Validation Accuracy -->
     <g transform="translate(244.18875 281.826188) scale(0.1 -0.1)">
      <defs>
       <path id="DejaVuSans-53" d="M 3425 4513 
L 3425 3897 
Q 3066 4069 2747 4153 
Q 2428 4238 2131 4238 
Q 1616 4238 1336 4038 
Q 1056 3838 1056 3469 
Q 1056 3159 1242 3001 
Q 1428 2844 1947 2747 
L 2328 2669 
Q 3034 2534 3370 2195 
Q 3706 1856 3706 1288 
Q 3706 609 3251 259 
Q 2797 -91 1919 -91 
Q 1588 -91 1214 -16 
Q 841 59 441 206 
L 441 856 
Q 825 641 1194 531 
Q 1563 422 1919 422 
Q 2459 422 2753 634 
Q 3047 847 3047 1241 
Q 3047 1584 2836 1778 
Q 2625 1972 2144 2069 
L 1759 2144 
Q 1053 2284 737 2584 
Q 422 2884 422 3419 
Q 422 4038 858 4394 
Q 1294 4750 2059 4750 
Q 2388 4750 2728 4690 
Q 3069 4631 3425 4513 
z
" transform="scale(0.015625)"/>
       <path id="DejaVuSans-57" d="M 213 4666 
L 850 4666 
L 1831 722 
L 2809 4666 
L 3519 4666 
L 4500 722 
L 5478 4666 
L 6119 4666 
L 4947 0 
L 4153 0 
L 3169 4050 
L 2175 0 
L 1381 0 
L 213 4666 
z
" transform="scale(0.015625)"/>
      </defs>
      <use xlink:href="#DejaVuSans-53"/>
      <use xlink:href="#DejaVuSans-57" x="63.476562"/>
      <use xlink:href="#DejaVuSans-41" x="156.853516"/>
      <use xlink:href="#DejaVuSans-20" x="225.261719"/>
      <use xlink:href="#DejaVuSans-56" x="257.048828"/>
      <use xlink:href="#DejaVuSans-61" x="317.707031"/>
      <use xlink:href="#DejaVuSans-6c" x="378.986328"/>
      <use xlink:href="#DejaVuSans-69" x="406.769531"/>
      <use xlink:href="#DejaVuSans-64" x="434.552734"/>
      <use xlink:href="#DejaVuSans-61" x="498.029297"/>
      <use xlink:href="#DejaVuSans-74" x="559.308594"/>
      <use xlink:href="#DejaVuSans-69" x="598.517578"/>
      <use xlink:href="#DejaVuSans-6f" x="626.300781"/>
      <use xlink:href="#DejaVuSans-6e" x="687.482422"/>
      <use xlink:href="#DejaVuSans-20" x="750.861328"/>
      <use xlink:href="#DejaVuSans-41" x="782.648438"/>
      <use xlink:href="#DejaVuSans-63" x="849.306641"/>
      <use xlink:href="#DejaVuSans-63" x="904.287109"/>
      <use xlink:href="#DejaVuSans-75" x="959.267578"/>
      <use xlink:href="#DejaVuSans-72" x="1022.646484"/>
      <use xlink:href="#DejaVuSans-61" x="1063.759766"/>
      <use xlink:href="#DejaVuSans-63" x="1125.039062"/>
      <use xlink:href="#DejaVuSans-79" x="1180.019531"/>
     </g>
    </g>
    <g id="line2d_25">
     <path d="M 216.18875 293.004312 
L 226.18875 293.004312 
L 236.18875 293.004312 
" style="fill: none; stroke: #9467bd; stroke-width: 1.5; stroke-linecap: square"/>
    </g>
    <g id="text_23">
     <!-- SWA Robust Validation Accuracy -->
     <g transform="translate(244.18875 296.504312) scale(0.1 -0.1)">
      <use xlink:href="#DejaVuSans-53"/>
      <use xlink:href="#DejaVuSans-57" x="63.476562"/>
      <use xlink:href="#DejaVuSans-41" x="156.853516"/>
      <use xlink:href="#DejaVuSans-20" x="225.261719"/>
      <use xlink:href="#DejaVuSans-52" x="257.048828"/>
      <use xlink:href="#DejaVuSans-6f" x="322.03125"/>
      <use xlink:href="#DejaVuSans-62" x="383.212891"/>
      <use xlink:href="#DejaVuSans-75" x="446.689453"/>
      <use xlink:href="#DejaVuSans-73" x="510.068359"/>
      <use xlink:href="#DejaVuSans-74" x="562.167969"/>
      <use xlink:href="#DejaVuSans-20" x="601.376953"/>
      <use xlink:href="#DejaVuSans-56" x="633.164062"/>
      <use xlink:href="#DejaVuSans-61" x="693.822266"/>
      <use xlink:href="#DejaVuSans-6c" x="755.101562"/>
      <use xlink:href="#DejaVuSans-69" x="782.884766"/>
      <use xlink:href="#DejaVuSans-64" x="810.667969"/>
      <use xlink:href="#DejaVuSans-61" x="874.144531"/>
      <use xlink:href="#DejaVuSans-74" x="935.423828"/>
      <use xlink:href="#DejaVuSans-69" x="974.632812"/>
      <use xlink:href="#DejaVuSans-6f" x="1002.416016"/>
      <use xlink:href="#DejaVuSans-6e" x="1063.597656"/>
      <use xlink:href="#DejaVuSans-20" x="1126.976562"/>
      <use xlink:href="#DejaVuSans-41" x="1158.763672"/>
      <use xlink:href="#DejaVuSans-63" x="1225.421875"/>
      <use xlink:href="#DejaVuSans-63" x="1280.402344"/>
      <use xlink:href="#DejaVuSans-75" x="1335.382812"/>
      <use xlink:href="#DejaVuSans-72" x="1398.761719"/>
      <use xlink:href="#DejaVuSans-61" x="1439.875"/>
      <use xlink:href="#DejaVuSans-63" x="1501.154297"/>
      <use xlink:href="#DejaVuSans-79" x="1556.134766"/>
     </g>
    </g>
   </g>
  </g>
 </g>
 <defs>
  <clipPath id="p699e5648b8">
   <rect x="57.6" y="41.472" width="357.12" height="266.112"/>
  </clipPath>
 </defs>
</svg>
