<?xml version="1.0" encoding="utf-8" standalone="no"?>
<!DOCTYPE svg PUBLIC "-//W3C//DTD SVG 1.1//EN"
  "http://www.w3.org/Graphics/SVG/1.1/DTD/svg11.dtd">
<svg xmlns:xlink="http://www.w3.org/1999/xlink" width="460.8pt" height="345.6pt" viewBox="0 0 460.8 345.6" xmlns="http://www.w3.org/2000/svg" version="1.1">
 <metadata>
  <rdf:RDF xmlns:dc="http://purl.org/dc/elements/1.1/" xmlns:cc="http://creativecommons.org/ns#" xmlns:rdf="http://www.w3.org/1999/02/22-rdf-syntax-ns#">
   <cc:Work>
    <dc:type rdf:resource="http://purl.org/dc/dcmitype/StillImage"/>
    <dc:date>2025-07-12T12:13:05.452325</dc:date>
    <dc:format>image/svg+xml</dc:format>
    <dc:creator>
     <cc:Agent>
      <dc:title>Matplotlib v3.9.1, https://matplotlib.org/</dc:title>
     </cc:Agent>
    </dc:creator>
   </cc:Work>
  </rdf:RDF>
 </metadata>
 <defs>
  <style type="text/css">*{stroke-linejoin: round; stroke-linecap: butt}</style>
 </defs>
 <g id="figure_1">
  <g id="patch_1">
   <path d="M 0 345.6 
L 460.8 345.6 
L 460.8 0 
L 0 0 
z
" style="fill: #ffffff"/>
  </g>
  <g id="axes_1">
   <g id="patch_2">
    <path d="M 57.6 307.584 
L 414.72 307.584 
L 414.72 41.472 
L 57.6 41.472 
z
" style="fill: #ffffff"/>
   </g>
   <g id="matplotlib.axis_1">
    <g id="xtick_1">
     <g id="line2d_1">
      <defs>
       <path id="mbd3e64b89a" d="M 0 0 
L 0 3.5 
" style="stroke: #000000; stroke-width: 0.8"/>
      </defs>
      <g>
       <use xlink:href="#mbd3e64b89a" x="73.832727" y="307.584" style="stroke: #000000; stroke-width: 0.8"/>
      </g>
     </g>
     <g id="text_1">
      <!-- 1 -->
      <g transform="translate(70.651477 322.182437) scale(0.1 -0.1)">
       <defs>
        <path id="DejaVuSans-31" d="M 794 531 
L 1825 531 
L 1825 4091 
L 703 3866 
L 703 4441 
L 1819 4666 
L 2450 4666 
L 2450 531 
L 3481 531 
L 3481 0 
L 794 0 
L 794 531 
z
" transform="scale(0.015625)"/>
       </defs>
       <use xlink:href="#DejaVuSans-31"/>
      </g>
     </g>
    </g>
    <g id="xtick_2">
     <g id="line2d_2">
      <g>
       <use xlink:href="#mbd3e64b89a" x="109.664165" y="307.584" style="stroke: #000000; stroke-width: 0.8"/>
      </g>
     </g>
     <g id="text_2">
      <!-- 34 -->
      <g transform="translate(103.301665 322.182437) scale(0.1 -0.1)">
       <defs>
        <path id="DejaVuSans-33" d="M 2597 2516 
Q 3050 2419 3304 2112 
Q 3559 1806 3559 1356 
Q 3559 666 3084 287 
Q 2609 -91 1734 -91 
Q 1441 -91 1130 -33 
Q 819 25 488 141 
L 488 750 
Q 750 597 1062 519 
Q 1375 441 1716 441 
Q 2309 441 2620 675 
Q 2931 909 2931 1356 
Q 2931 1769 2642 2001 
Q 2353 2234 1838 2234 
L 1294 2234 
L 1294 2753 
L 1863 2753 
Q 2328 2753 2575 2939 
Q 2822 3125 2822 3475 
Q 2822 3834 2567 4026 
Q 2313 4219 1838 4219 
Q 1578 4219 1281 4162 
Q 984 4106 628 3988 
L 628 4550 
Q 988 4650 1302 4700 
Q 1616 4750 1894 4750 
Q 2613 4750 3031 4423 
Q 3450 4097 3450 3541 
Q 3450 3153 3228 2886 
Q 3006 2619 2597 2516 
z
" transform="scale(0.015625)"/>
        <path id="DejaVuSans-34" d="M 2419 4116 
L 825 1625 
L 2419 1625 
L 2419 4116 
z
M 2253 4666 
L 3047 4666 
L 3047 1625 
L 3713 1625 
L 3713 1100 
L 3047 1100 
L 3047 0 
L 2419 0 
L 2419 1100 
L 313 1100 
L 313 1709 
L 2253 4666 
z
" transform="scale(0.015625)"/>
       </defs>
       <use xlink:href="#DejaVuSans-33"/>
       <use xlink:href="#DejaVuSans-34" x="63.623047"/>
      </g>
     </g>
    </g>
    <g id="xtick_3">
     <g id="line2d_3">
      <g>
       <use xlink:href="#mbd3e64b89a" x="145.495604" y="307.584" style="stroke: #000000; stroke-width: 0.8"/>
      </g>
     </g>
     <g id="text_3">
      <!-- 67 -->
      <g transform="translate(139.133104 322.182437) scale(0.1 -0.1)">
       <defs>
        <path id="DejaVuSans-36" d="M 2113 2584 
Q 1688 2584 1439 2293 
Q 1191 2003 1191 1497 
Q 1191 994 1439 701 
Q 1688 409 2113 409 
Q 2538 409 2786 701 
Q 3034 994 3034 1497 
Q 3034 2003 2786 2293 
Q 2538 2584 2113 2584 
z
M 3366 4563 
L 3366 3988 
Q 3128 4100 2886 4159 
Q 2644 4219 2406 4219 
Q 1781 4219 1451 3797 
Q 1122 3375 1075 2522 
Q 1259 2794 1537 2939 
Q 1816 3084 2150 3084 
Q 2853 3084 3261 2657 
Q 3669 2231 3669 1497 
Q 3669 778 3244 343 
Q 2819 -91 2113 -91 
Q 1303 -91 875 529 
Q 447 1150 447 2328 
Q 447 3434 972 4092 
Q 1497 4750 2381 4750 
Q 2619 4750 2861 4703 
Q 3103 4656 3366 4563 
z
" transform="scale(0.015625)"/>
        <path id="DejaVuSans-37" d="M 525 4666 
L 3525 4666 
L 3525 4397 
L 1831 0 
L 1172 0 
L 2766 4134 
L 525 4134 
L 525 4666 
z
" transform="scale(0.015625)"/>
       </defs>
       <use xlink:href="#DejaVuSans-36"/>
       <use xlink:href="#DejaVuSans-37" x="63.623047"/>
      </g>
     </g>
    </g>
    <g id="xtick_4">
     <g id="line2d_4">
      <g>
       <use xlink:href="#mbd3e64b89a" x="181.327042" y="307.584" style="stroke: #000000; stroke-width: 0.8"/>
      </g>
     </g>
     <g id="text_4">
      <!-- 100 -->
      <g transform="translate(171.783292 322.182437) scale(0.1 -0.1)">
       <defs>
        <path id="DejaVuSans-30" d="M 2034 4250 
Q 1547 4250 1301 3770 
Q 1056 3291 1056 2328 
Q 1056 1369 1301 889 
Q 1547 409 2034 409 
Q 2525 409 2770 889 
Q 3016 1369 3016 2328 
Q 3016 3291 2770 3770 
Q 2525 4250 2034 4250 
z
M 2034 4750 
Q 2819 4750 3233 4129 
Q 3647 3509 3647 2328 
Q 3647 1150 3233 529 
Q 2819 -91 2034 -91 
Q 1250 -91 836 529 
Q 422 1150 422 2328 
Q 422 3509 836 4129 
Q 1250 4750 2034 4750 
z
" transform="scale(0.015625)"/>
       </defs>
       <use xlink:href="#DejaVuSans-31"/>
       <use xlink:href="#DejaVuSans-30" x="63.623047"/>
       <use xlink:href="#DejaVuSans-30" x="127.246094"/>
      </g>
     </g>
    </g>
    <g id="xtick_5">
     <g id="line2d_5">
      <g>
       <use xlink:href="#mbd3e64b89a" x="217.15848" y="307.584" style="stroke: #000000; stroke-width: 0.8"/>
      </g>
     </g>
     <g id="text_5">
      <!-- 133 -->
      <g transform="translate(207.61473 322.182437) scale(0.1 -0.1)">
       <use xlink:href="#DejaVuSans-31"/>
       <use xlink:href="#DejaVuSans-33" x="63.623047"/>
       <use xlink:href="#DejaVuSans-33" x="127.246094"/>
      </g>
     </g>
    </g>
    <g id="xtick_6">
     <g id="line2d_6">
      <g>
       <use xlink:href="#mbd3e64b89a" x="254.075719" y="307.584" style="stroke: #000000; stroke-width: 0.8"/>
      </g>
     </g>
     <g id="text_6">
      <!-- 167 -->
      <g transform="translate(244.531969 322.182437) scale(0.1 -0.1)">
       <use xlink:href="#DejaVuSans-31"/>
       <use xlink:href="#DejaVuSans-36" x="63.623047"/>
       <use xlink:href="#DejaVuSans-37" x="127.246094"/>
      </g>
     </g>
    </g>
    <g id="xtick_7">
     <g id="line2d_7">
      <g>
       <use xlink:href="#mbd3e64b89a" x="289.907157" y="307.584" style="stroke: #000000; stroke-width: 0.8"/>
      </g>
     </g>
     <g id="text_7">
      <!-- 200 -->
      <g transform="translate(280.363407 322.182437) scale(0.1 -0.1)">
       <defs>
        <path id="DejaVuSans-32" d="M 1228 531 
L 3431 531 
L 3431 0 
L 469 0 
L 469 531 
Q 828 903 1448 1529 
Q 2069 2156 2228 2338 
Q 2531 2678 2651 2914 
Q 2772 3150 2772 3378 
Q 2772 3750 2511 3984 
Q 2250 4219 1831 4219 
Q 1534 4219 1204 4116 
Q 875 4013 500 3803 
L 500 4441 
Q 881 4594 1212 4672 
Q 1544 4750 1819 4750 
Q 2544 4750 2975 4387 
Q 3406 4025 3406 3419 
Q 3406 3131 3298 2873 
Q 3191 2616 2906 2266 
Q 2828 2175 2409 1742 
Q 1991 1309 1228 531 
z
" transform="scale(0.015625)"/>
       </defs>
       <use xlink:href="#DejaVuSans-32"/>
       <use xlink:href="#DejaVuSans-30" x="63.623047"/>
       <use xlink:href="#DejaVuSans-30" x="127.246094"/>
      </g>
     </g>
    </g>
    <g id="xtick_8">
     <g id="line2d_8">
      <g>
       <use xlink:href="#mbd3e64b89a" x="325.738595" y="307.584" style="stroke: #000000; stroke-width: 0.8"/>
      </g>
     </g>
     <g id="text_8">
      <!-- 233 -->
      <g transform="translate(316.194845 322.182437) scale(0.1 -0.1)">
       <use xlink:href="#DejaVuSans-32"/>
       <use xlink:href="#DejaVuSans-33" x="63.623047"/>
       <use xlink:href="#DejaVuSans-33" x="127.246094"/>
      </g>
     </g>
    </g>
    <g id="xtick_9">
     <g id="line2d_9">
      <g>
       <use xlink:href="#mbd3e64b89a" x="361.570033" y="307.584" style="stroke: #000000; stroke-width: 0.8"/>
      </g>
     </g>
     <g id="text_9">
      <!-- 266 -->
      <g transform="translate(352.026283 322.182437) scale(0.1 -0.1)">
       <use xlink:href="#DejaVuSans-32"/>
       <use xlink:href="#DejaVuSans-36" x="63.623047"/>
       <use xlink:href="#DejaVuSans-36" x="127.246094"/>
      </g>
     </g>
    </g>
    <g id="xtick_10">
     <g id="line2d_10">
      <g>
       <use xlink:href="#mbd3e64b89a" x="398.487273" y="307.584" style="stroke: #000000; stroke-width: 0.8"/>
      </g>
     </g>
     <g id="text_10">
      <!-- 300 -->
      <g transform="translate(388.943523 322.182437) scale(0.1 -0.1)">
       <use xlink:href="#DejaVuSans-33"/>
       <use xlink:href="#DejaVuSans-30" x="63.623047"/>
       <use xlink:href="#DejaVuSans-30" x="127.246094"/>
      </g>
     </g>
    </g>
    <g id="text_11">
     <!-- Epochs -->
     <g transform="translate(218.244375 335.860562) scale(0.1 -0.1)">
      <defs>
       <path id="DejaVuSans-45" d="M 628 4666 
L 3578 4666 
L 3578 4134 
L 1259 4134 
L 1259 2753 
L 3481 2753 
L 3481 2222 
L 1259 2222 
L 1259 531 
L 3634 531 
L 3634 0 
L 628 0 
L 628 4666 
z
" transform="scale(0.015625)"/>
       <path id="DejaVuSans-70" d="M 1159 525 
L 1159 -1331 
L 581 -1331 
L 581 3500 
L 1159 3500 
L 1159 2969 
Q 1341 3281 1617 3432 
Q 1894 3584 2278 3584 
Q 2916 3584 3314 3078 
Q 3713 2572 3713 1747 
Q 3713 922 3314 415 
Q 2916 -91 2278 -91 
Q 1894 -91 1617 61 
Q 1341 213 1159 525 
z
M 3116 1747 
Q 3116 2381 2855 2742 
Q 2594 3103 2138 3103 
Q 1681 3103 1420 2742 
Q 1159 2381 1159 1747 
Q 1159 1113 1420 752 
Q 1681 391 2138 391 
Q 2594 391 2855 752 
Q 3116 1113 3116 1747 
z
" transform="scale(0.015625)"/>
       <path id="DejaVuSans-6f" d="M 1959 3097 
Q 1497 3097 1228 2736 
Q 959 2375 959 1747 
Q 959 1119 1226 758 
Q 1494 397 1959 397 
Q 2419 397 2687 759 
Q 2956 1122 2956 1747 
Q 2956 2369 2687 2733 
Q 2419 3097 1959 3097 
z
M 1959 3584 
Q 2709 3584 3137 3096 
Q 3566 2609 3566 1747 
Q 3566 888 3137 398 
Q 2709 -91 1959 -91 
Q 1206 -91 779 398 
Q 353 888 353 1747 
Q 353 2609 779 3096 
Q 1206 3584 1959 3584 
z
" transform="scale(0.015625)"/>
       <path id="DejaVuSans-63" d="M 3122 3366 
L 3122 2828 
Q 2878 2963 2633 3030 
Q 2388 3097 2138 3097 
Q 1578 3097 1268 2742 
Q 959 2388 959 1747 
Q 959 1106 1268 751 
Q 1578 397 2138 397 
Q 2388 397 2633 464 
Q 2878 531 3122 666 
L 3122 134 
Q 2881 22 2623 -34 
Q 2366 -91 2075 -91 
Q 1284 -91 818 406 
Q 353 903 353 1747 
Q 353 2603 823 3093 
Q 1294 3584 2113 3584 
Q 2378 3584 2631 3529 
Q 2884 3475 3122 3366 
z
" transform="scale(0.015625)"/>
       <path id="DejaVuSans-68" d="M 3513 2113 
L 3513 0 
L 2938 0 
L 2938 2094 
Q 2938 2591 2744 2837 
Q 2550 3084 2163 3084 
Q 1697 3084 1428 2787 
Q 1159 2491 1159 1978 
L 1159 0 
L 581 0 
L 581 4863 
L 1159 4863 
L 1159 2956 
Q 1366 3272 1645 3428 
Q 1925 3584 2291 3584 
Q 2894 3584 3203 3211 
Q 3513 2838 3513 2113 
z
" transform="scale(0.015625)"/>
       <path id="DejaVuSans-73" d="M 2834 3397 
L 2834 2853 
Q 2591 2978 2328 3040 
Q 2066 3103 1784 3103 
Q 1356 3103 1142 2972 
Q 928 2841 928 2578 
Q 928 2378 1081 2264 
Q 1234 2150 1697 2047 
L 1894 2003 
Q 2506 1872 2764 1633 
Q 3022 1394 3022 966 
Q 3022 478 2636 193 
Q 2250 -91 1575 -91 
Q 1294 -91 989 -36 
Q 684 19 347 128 
L 347 722 
Q 666 556 975 473 
Q 1284 391 1588 391 
Q 1994 391 2212 530 
Q 2431 669 2431 922 
Q 2431 1156 2273 1281 
Q 2116 1406 1581 1522 
L 1381 1569 
Q 847 1681 609 1914 
Q 372 2147 372 2553 
Q 372 3047 722 3315 
Q 1072 3584 1716 3584 
Q 2034 3584 2315 3537 
Q 2597 3491 2834 3397 
z
" transform="scale(0.015625)"/>
      </defs>
      <use xlink:href="#DejaVuSans-45"/>
      <use xlink:href="#DejaVuSans-70" x="63.183594"/>
      <use xlink:href="#DejaVuSans-6f" x="126.660156"/>
      <use xlink:href="#DejaVuSans-63" x="187.841797"/>
      <use xlink:href="#DejaVuSans-68" x="242.822266"/>
      <use xlink:href="#DejaVuSans-73" x="306.201172"/>
     </g>
    </g>
   </g>
   <g id="matplotlib.axis_2">
    <g id="ytick_1">
     <g id="line2d_11">
      <defs>
       <path id="m3c9fbd78be" d="M 0 0 
L -3.5 0 
" style="stroke: #000000; stroke-width: 0.8"/>
      </defs>
      <g>
       <use xlink:href="#m3c9fbd78be" x="57.6" y="283.14122" style="stroke: #000000; stroke-width: 0.8"/>
      </g>
     </g>
     <g id="text_12">
      <!-- 10 -->
      <g transform="translate(37.875 286.940438) scale(0.1 -0.1)">
       <use xlink:href="#DejaVuSans-31"/>
       <use xlink:href="#DejaVuSans-30" x="63.623047"/>
      </g>
     </g>
    </g>
    <g id="ytick_2">
     <g id="line2d_12">
      <g>
       <use xlink:href="#m3c9fbd78be" x="57.6" y="251.979793" style="stroke: #000000; stroke-width: 0.8"/>
      </g>
     </g>
     <g id="text_13">
      <!-- 20 -->
      <g transform="translate(37.875 255.779012) scale(0.1 -0.1)">
       <use xlink:href="#DejaVuSans-32"/>
       <use xlink:href="#DejaVuSans-30" x="63.623047"/>
      </g>
     </g>
    </g>
    <g id="ytick_3">
     <g id="line2d_13">
      <g>
       <use xlink:href="#m3c9fbd78be" x="57.6" y="220.818366" style="stroke: #000000; stroke-width: 0.8"/>
      </g>
     </g>
     <g id="text_14">
      <!-- 30 -->
      <g transform="translate(37.875 224.617585) scale(0.1 -0.1)">
       <use xlink:href="#DejaVuSans-33"/>
       <use xlink:href="#DejaVuSans-30" x="63.623047"/>
      </g>
     </g>
    </g>
    <g id="ytick_4">
     <g id="line2d_14">
      <g>
       <use xlink:href="#m3c9fbd78be" x="57.6" y="189.656939" style="stroke: #000000; stroke-width: 0.8"/>
      </g>
     </g>
     <g id="text_15">
      <!-- 40 -->
      <g transform="translate(37.875 193.456158) scale(0.1 -0.1)">
       <use xlink:href="#DejaVuSans-34"/>
       <use xlink:href="#DejaVuSans-30" x="63.623047"/>
      </g>
     </g>
    </g>
    <g id="ytick_5">
     <g id="line2d_15">
      <g>
       <use xlink:href="#m3c9fbd78be" x="57.6" y="158.495513" style="stroke: #000000; stroke-width: 0.8"/>
      </g>
     </g>
     <g id="text_16">
      <!-- 50 -->
      <g transform="translate(37.875 162.294731) scale(0.1 -0.1)">
       <defs>
        <path id="DejaVuSans-35" d="M 691 4666 
L 3169 4666 
L 3169 4134 
L 1269 4134 
L 1269 2991 
Q 1406 3038 1543 3061 
Q 1681 3084 1819 3084 
Q 2600 3084 3056 2656 
Q 3513 2228 3513 1497 
Q 3513 744 3044 326 
Q 2575 -91 1722 -91 
Q 1428 -91 1123 -41 
Q 819 9 494 109 
L 494 744 
Q 775 591 1075 516 
Q 1375 441 1709 441 
Q 2250 441 2565 725 
Q 2881 1009 2881 1497 
Q 2881 1984 2565 2268 
Q 2250 2553 1709 2553 
Q 1456 2553 1204 2497 
Q 953 2441 691 2322 
L 691 4666 
z
" transform="scale(0.015625)"/>
       </defs>
       <use xlink:href="#DejaVuSans-35"/>
       <use xlink:href="#DejaVuSans-30" x="63.623047"/>
      </g>
     </g>
    </g>
    <g id="ytick_6">
     <g id="line2d_16">
      <g>
       <use xlink:href="#m3c9fbd78be" x="57.6" y="127.334086" style="stroke: #000000; stroke-width: 0.8"/>
      </g>
     </g>
     <g id="text_17">
      <!-- 60 -->
      <g transform="translate(37.875 131.133305) scale(0.1 -0.1)">
       <use xlink:href="#DejaVuSans-36"/>
       <use xlink:href="#DejaVuSans-30" x="63.623047"/>
      </g>
     </g>
    </g>
    <g id="ytick_7">
     <g id="line2d_17">
      <g>
       <use xlink:href="#m3c9fbd78be" x="57.6" y="96.172659" style="stroke: #000000; stroke-width: 0.8"/>
      </g>
     </g>
     <g id="text_18">
      <!-- 70 -->
      <g transform="translate(37.875 99.971878) scale(0.1 -0.1)">
       <use xlink:href="#DejaVuSans-37"/>
       <use xlink:href="#DejaVuSans-30" x="63.623047"/>
      </g>
     </g>
    </g>
    <g id="ytick_8">
     <g id="line2d_18">
      <g>
       <use xlink:href="#m3c9fbd78be" x="57.6" y="65.011233" style="stroke: #000000; stroke-width: 0.8"/>
      </g>
     </g>
     <g id="text_19">
      <!-- 80 -->
      <g transform="translate(37.875 68.810451) scale(0.1 -0.1)">
       <defs>
        <path id="DejaVuSans-38" d="M 2034 2216 
Q 1584 2216 1326 1975 
Q 1069 1734 1069 1313 
Q 1069 891 1326 650 
Q 1584 409 2034 409 
Q 2484 409 2743 651 
Q 3003 894 3003 1313 
Q 3003 1734 2745 1975 
Q 2488 2216 2034 2216 
z
M 1403 2484 
Q 997 2584 770 2862 
Q 544 3141 544 3541 
Q 544 4100 942 4425 
Q 1341 4750 2034 4750 
Q 2731 4750 3128 4425 
Q 3525 4100 3525 3541 
Q 3525 3141 3298 2862 
Q 3072 2584 2669 2484 
Q 3125 2378 3379 2068 
Q 3634 1759 3634 1313 
Q 3634 634 3220 271 
Q 2806 -91 2034 -91 
Q 1263 -91 848 271 
Q 434 634 434 1313 
Q 434 1759 690 2068 
Q 947 2378 1403 2484 
z
M 1172 3481 
Q 1172 3119 1398 2916 
Q 1625 2713 2034 2713 
Q 2441 2713 2670 2916 
Q 2900 3119 2900 3481 
Q 2900 3844 2670 4047 
Q 2441 4250 2034 4250 
Q 1625 4250 1398 4047 
Q 1172 3844 1172 3481 
z
" transform="scale(0.015625)"/>
       </defs>
       <use xlink:href="#DejaVuSans-38"/>
       <use xlink:href="#DejaVuSans-30" x="63.623047"/>
      </g>
     </g>
    </g>
    <g id="text_20">
     <!-- Accuracy -->
     <g transform="translate(31.795312 197.356125) rotate(-90) scale(0.1 -0.1)">
      <defs>
       <path id="DejaVuSans-41" d="M 2188 4044 
L 1331 1722 
L 3047 1722 
L 2188 4044 
z
M 1831 4666 
L 2547 4666 
L 4325 0 
L 3669 0 
L 3244 1197 
L 1141 1197 
L 716 0 
L 50 0 
L 1831 4666 
z
" transform="scale(0.015625)"/>
       <path id="DejaVuSans-75" d="M 544 1381 
L 544 3500 
L 1119 3500 
L 1119 1403 
Q 1119 906 1312 657 
Q 1506 409 1894 409 
Q 2359 409 2629 706 
Q 2900 1003 2900 1516 
L 2900 3500 
L 3475 3500 
L 3475 0 
L 2900 0 
L 2900 538 
Q 2691 219 2414 64 
Q 2138 -91 1772 -91 
Q 1169 -91 856 284 
Q 544 659 544 1381 
z
M 1991 3584 
L 1991 3584 
z
" transform="scale(0.015625)"/>
       <path id="DejaVuSans-72" d="M 2631 2963 
Q 2534 3019 2420 3045 
Q 2306 3072 2169 3072 
Q 1681 3072 1420 2755 
Q 1159 2438 1159 1844 
L 1159 0 
L 581 0 
L 581 3500 
L 1159 3500 
L 1159 2956 
Q 1341 3275 1631 3429 
Q 1922 3584 2338 3584 
Q 2397 3584 2469 3576 
Q 2541 3569 2628 3553 
L 2631 2963 
z
" transform="scale(0.015625)"/>
       <path id="DejaVuSans-61" d="M 2194 1759 
Q 1497 1759 1228 1600 
Q 959 1441 959 1056 
Q 959 750 1161 570 
Q 1363 391 1709 391 
Q 2188 391 2477 730 
Q 2766 1069 2766 1631 
L 2766 1759 
L 2194 1759 
z
M 3341 1997 
L 3341 0 
L 2766 0 
L 2766 531 
Q 2569 213 2275 61 
Q 1981 -91 1556 -91 
Q 1019 -91 701 211 
Q 384 513 384 1019 
Q 384 1609 779 1909 
Q 1175 2209 1959 2209 
L 2766 2209 
L 2766 2266 
Q 2766 2663 2505 2880 
Q 2244 3097 1772 3097 
Q 1472 3097 1187 3025 
Q 903 2953 641 2809 
L 641 3341 
Q 956 3463 1253 3523 
Q 1550 3584 1831 3584 
Q 2591 3584 2966 3190 
Q 3341 2797 3341 1997 
z
" transform="scale(0.015625)"/>
       <path id="DejaVuSans-79" d="M 2059 -325 
Q 1816 -950 1584 -1140 
Q 1353 -1331 966 -1331 
L 506 -1331 
L 506 -850 
L 844 -850 
Q 1081 -850 1212 -737 
Q 1344 -625 1503 -206 
L 1606 56 
L 191 3500 
L 800 3500 
L 1894 763 
L 2988 3500 
L 3597 3500 
L 2059 -325 
z
" transform="scale(0.015625)"/>
      </defs>
      <use xlink:href="#DejaVuSans-41"/>
      <use xlink:href="#DejaVuSans-63" x="66.658203"/>
      <use xlink:href="#DejaVuSans-63" x="121.638672"/>
      <use xlink:href="#DejaVuSans-75" x="176.619141"/>
      <use xlink:href="#DejaVuSans-72" x="239.998047"/>
      <use xlink:href="#DejaVuSans-61" x="281.111328"/>
      <use xlink:href="#DejaVuSans-63" x="342.390625"/>
      <use xlink:href="#DejaVuSans-79" x="397.371094"/>
     </g>
    </g>
   </g>
   <g id="line2d_19">
    <path d="M 73.832727 295.488 
L 74.918528 277.313409 
L 77.090131 238.841512 
L 79.261733 211.193225 
L 80.347534 198.262791 
L 81.433335 190.654105 
L 82.519137 184.278789 
L 83.604938 173.923223 
L 84.690739 168.054904 
L 85.77654 162.85001 
L 86.862341 158.643841 
L 89.033943 149.411957 
L 90.119745 147.06332 
L 92.291347 140.788967 
L 93.377148 138.79931 
L 94.462949 137.16053 
L 95.54875 166.314849 
L 96.634552 165.331395 
L 97.720353 160.204405 
L 98.806154 157.005062 
L 99.891955 155.990446 
L 100.977756 152.01082 
L 103.149358 146.50927 
L 104.23516 145.494654 
L 105.320961 141.062252 
L 106.406762 138.362115 
L 107.492563 136.200447 
L 108.578364 134.632092 
L 109.664165 130.574251 
L 110.749967 129.520683 
L 112.921569 125.470633 
L 114.00737 122.310241 
L 115.093171 121.982423 
L 116.178972 118.587697 
L 117.264773 117.401693 
L 118.350575 114.225409 
L 119.436376 112.906657 
L 120.522177 112.657054 
L 121.607978 108.318137 
L 122.693779 106.687148 
L 123.77958 106.211313 
L 124.865382 103.518966 
L 125.951183 103.058711 
L 127.036984 100.467639 
L 128.122785 99.835685 
L 129.208586 96.963848 
L 130.294387 97.096596 
L 131.380189 94.669744 
L 133.551791 93.678499 
L 134.637592 94.162436 
L 135.723393 92.703146 
L 136.809194 91.727793 
L 137.894995 91.571675 
L 138.980797 119.555571 
L 140.066598 124.658877 
L 141.152399 123.090523 
L 142.2382 123.730267 
L 143.324001 121.756191 
L 144.409802 122.739334 
L 145.495604 121.186248 
L 146.581405 121.256673 
L 147.667206 119.774012 
L 148.753007 117.71393 
L 149.838808 117.432854 
L 150.924609 116.675943 
L 152.01041 114.935577 
L 153.096212 115.177702 
L 154.182013 114.529856 
L 155.267814 111.915724 
L 156.353615 110.916688 
L 157.439416 110.987113 
L 158.525217 110.276944 
L 159.611019 108.263604 
L 160.69682 108.755332 
L 161.782621 107.436269 
L 162.868422 106.944853 
L 163.954223 106.765363 
L 165.040024 105.126584 
L 166.125825 103.768569 
L 167.211627 102.754264 
L 168.297428 101.333926 
L 169.383229 100.717553 
L 170.46903 99.195629 
L 171.554831 100.865882 
L 172.640632 97.619484 
L 173.726434 97.244924 
L 174.812235 96.714245 
L 175.898036 95.395493 
L 178.069638 93.834617 
L 179.155439 92.437962 
L 180.24124 92.430172 
L 181.327042 91.876122 
L 182.412843 89.573916 
L 183.498644 89.605077 
L 185.670246 87.224967 
L 186.756047 87.295392 
L 187.841849 85.461542 
L 188.92765 84.111317 
L 190.013451 83.159336 
L 192.185053 82.027864 
L 193.270854 80.248547 
L 194.356656 80.13138 
L 195.442457 79.171608 
L 196.528258 79.889567 
L 197.614059 77.244274 
L 198.69986 78.204046 
L 199.785661 77.5562 
L 200.871462 74.840793 
L 201.957264 74.848583 
L 203.043065 74.200737 
L 204.128866 71.656718 
L 205.214667 71.945585 
L 206.300468 71.235416 
L 207.386269 71.51618 
L 208.472071 69.214286 
L 209.557872 69.097119 
L 210.643673 69.68233 
L 211.729474 68.792983 
L 212.815275 67.622248 
L 213.901076 67.942276 
L 214.986877 68.082814 
L 216.072679 67.65341 
L 217.15848 66.654686 
L 218.244281 67.380436 
L 219.330082 67.622248 
L 220.415883 66.17854 
L 221.501684 66.389502 
L 222.587486 66.37361 
L 223.673287 65.585538 
L 224.759088 65.538795 
L 225.844889 97.666226 
L 226.93069 102.847748 
L 228.016491 103.862365 
L 230.188094 101.692906 
L 231.273895 101.778912 
L 232.359696 101.170017 
L 233.445497 101.763019 
L 234.531298 101.310555 
L 235.617099 102.231375 
L 236.702901 101.107694 
L 238.874503 100.522483 
L 239.960304 99.554609 
L 241.046105 100.241407 
L 242.131906 98.680842 
L 243.217708 99.507867 
L 244.303509 97.892458 
L 245.38931 97.962883 
L 246.475111 98.477849 
L 247.560912 95.777796 
L 248.646713 97.354128 
L 249.732514 96.448907 
L 251.904117 93.951748 
L 252.989918 94.583842 
L 254.075719 95.44224 
L 255.16152 93.780068 
L 256.247321 93.428905 
L 257.333123 94.146839 
L 258.418924 92.492471 
L 259.504725 92.336398 
L 260.590526 91.688698 
L 261.676327 90.369885 
L 262.762128 91.571643 
L 263.847929 91.353142 
L 264.933731 90.198206 
L 266.019532 90.908335 
L 268.191134 88.879393 
L 269.276935 88.645285 
L 270.362736 88.559445 
L 271.448538 87.90394 
L 272.534339 89.729988 
L 273.62014 87.857119 
L 274.705941 86.951898 
L 275.791742 87.693243 
L 276.877543 86.171536 
L 277.963344 86.756808 
L 279.049146 87.716654 
L 280.134947 86.670968 
L 281.220748 82.964247 
L 282.306549 84.30647 
L 283.39235 84.189416 
L 284.478151 84.938564 
L 285.563953 83.385643 
L 288.821356 82.004402 
L 289.907157 82.059027 
L 290.992958 81.489363 
L 292.07876 81.661042 
L 293.164561 79.09365 
L 294.250362 79.936442 
L 295.336163 80.162747 
L 296.421964 78.656647 
L 297.507765 79.09365 
L 298.593566 78.492771 
L 299.679368 78.196234 
L 300.765169 78.914167 
L 301.85097 78.297681 
L 302.936771 75.972201 
L 307.279976 75.269875 
L 308.365777 74.317833 
L 309.451578 74.231993 
L 310.537379 73.724758 
L 311.62318 73.701347 
L 313.794783 73.23313 
L 315.966385 71.547547 
L 317.052186 72.476178 
L 318.137987 71.204188 
L 319.223788 71.516333 
L 320.30959 70.361396 
L 321.395391 70.525272 
L 322.481192 68.941137 
L 323.566993 69.479587 
L 324.652794 68.028113 
L 325.738595 69.03478 
L 326.824396 68.379276 
L 327.910198 66.787337 
L 328.995999 66.116226 
L 330.0818 66.717104 
L 331.167601 66.529818 
L 332.253402 65.507543 
L 333.339203 65.203202 
L 334.425005 65.882117 
L 335.510806 63.673692 
L 336.596607 63.985836 
L 337.682408 63.525423 
L 338.768209 64.53209 
L 339.85401 62.510952 
L 340.939811 62.1832 
L 342.025613 62.308058 
L 343.111414 61.285783 
L 344.197215 60.692708 
L 345.283016 60.31033 
L 346.368817 60.825369 
L 347.454618 60.177669 
L 348.54042 59.210019 
L 349.626221 59.241234 
L 350.712022 58.546711 
L 351.797823 59.194412 
L 352.883624 57.813171 
L 355.055227 57.828778 
L 356.141028 56.619217 
L 357.226829 57.438597 
L 358.31263 57.524437 
L 359.398431 56.314875 
L 360.484232 56.463144 
L 361.570033 54.81658 
L 362.655835 56.400715 
L 363.741636 55.058492 
L 364.827437 54.527846 
L 365.913238 54.660507 
L 366.999039 54.379577 
L 368.08484 53.568 
L 369.170642 55.667175 
L 370.256443 56.463144 
L 371.342244 57.781956 
L 372.428045 58.164334 
L 373.513846 58.874464 
L 374.599647 58.921285 
L 375.685448 59.280252 
L 376.77125 58.484282 
L 377.857051 58.796427 
L 378.942852 58.234566 
L 380.028653 58.406246 
L 381.114454 58.41405 
L 382.200255 58.07069 
L 383.286057 59.053947 
L 384.371858 57.883403 
L 385.457659 58.062887 
L 386.54346 57.266917 
L 387.629261 58.32821 
L 388.715062 59.131983 
L 389.800863 58.265781 
L 390.886665 58.179941 
L 391.972466 59.966971 
L 393.058267 57.688313 
L 394.144068 58.468675 
L 395.229869 58.008261 
L 396.31567 59.40511 
L 397.401472 57.969243 
L 398.487273 58.234566 
L 398.487273 58.234566 
" clip-path="url(#p7c2b55f4a9)" style="fill: none; stroke: #1f77b4; stroke-width: 1.5; stroke-linecap: square"/>
   </g>
   <g id="line2d_20">
    <path d="M 73.832727 287.721949 
L 74.918528 260.299894 
L 76.00433 242.942979 
L 77.090131 229.85518 
L 78.175932 203.118676 
L 79.261733 188.815581 
L 80.347534 183.860914 
L 81.433335 168.560653 
L 82.519137 165.319865 
L 84.690739 152.886456 
L 85.77654 145.719328 
L 86.862341 140.640015 
L 87.948142 134.251923 
L 89.033943 129.795839 
L 91.205546 123.002648 
L 93.377148 120.447411 
L 94.462949 119.855344 
L 95.54875 157.99693 
L 96.634552 143.226414 
L 97.720353 146.778816 
L 98.806154 143.226414 
L 99.891955 134.158438 
L 100.977756 136.246254 
L 102.063557 131.385071 
L 103.149358 127.957314 
L 104.23516 130.076292 
L 105.320961 122.285935 
L 106.406762 122.815679 
L 107.492563 115.710874 
L 108.578364 118.920501 
L 109.664165 108.948844 
L 110.749967 112.625893 
L 111.835768 115.648551 
L 112.921569 107.297289 
L 114.00737 104.866697 
L 115.093171 106.736383 
L 116.178972 105.36528 
L 117.264773 98.883703 
L 118.350575 103.308626 
L 119.436376 95.923368 
L 120.522177 95.331301 
L 121.607978 91.747737 
L 122.693779 92.744902 
L 123.77958 92.495611 
L 124.865382 90.033858 
L 125.951183 91.903544 
L 127.036984 87.977204 
L 128.122785 85.70242 
L 129.208586 84.580609 
L 131.380189 84.113187 
L 132.46599 83.614604 
L 133.551791 84.237833 
L 134.637592 82.21234 
L 135.723393 83.30299 
L 136.809194 82.368147 
L 137.894995 82.555116 
L 138.980797 112.033825 
L 140.066598 106.362446 
L 141.152399 111.69105 
L 142.2382 108.793037 
L 143.324001 107.141481 
L 144.409802 111.878018 
L 145.495604 109.50975 
L 146.581405 105.552249 
L 147.667206 101.127326 
L 148.753007 103.869532 
L 149.838808 104.27463 
L 150.924609 102.09333 
L 152.01041 99.382286 
L 153.096212 98.011183 
L 154.182013 99.91203 
L 155.267814 96.141498 
L 156.353615 94.365296 
L 157.439416 99.413448 
L 158.525217 96.733565 
L 159.611019 96.110336 
L 160.69682 95.705238 
L 161.782621 94.614588 
L 162.868422 95.985691 
L 163.954223 92.526772 
L 165.040024 92.620257 
L 166.125825 90.470118 
L 167.211627 88.631594 
L 169.383229 86.13868 
L 170.46903 89.441791 
L 171.554831 87.416298 
L 172.640632 88.133011 
L 173.726434 86.668424 
L 175.898036 84.424801 
L 176.983837 85.172676 
L 178.069638 84.019703 
L 179.155439 83.708089 
L 180.24124 85.110353 
L 181.327042 82.929053 
L 182.412843 79.781749 
L 183.498644 80.24917 
L 185.670246 79.470135 
L 186.756047 77.070705 
L 187.841849 79.501296 
L 188.92765 78.410646 
L 190.013451 75.730763 
L 191.099252 75.263342 
L 192.185053 77.63161 
L 194.356656 73.455979 
L 195.442457 73.892239 
L 196.528258 71.586294 
L 197.614059 72.552298 
L 198.69986 71.866746 
L 199.785661 72.552298 
L 200.871462 71.929069 
L 201.957264 70.215191 
L 203.043065 69.062218 
L 204.128866 68.968734 
L 205.214667 69.623124 
L 206.300468 68.096214 
L 208.472071 67.441824 
L 209.557872 67.722277 
L 210.643673 67.659954 
L 211.729474 67.7846 
L 212.815275 66.662788 
L 213.901076 66.880918 
L 214.986877 66.69395 
L 216.072679 66.787434 
L 217.15848 65.852591 
L 218.244281 66.725111 
L 219.330082 66.008398 
L 220.415883 67.005564 
L 222.587486 66.47582 
L 223.673287 66.070721 
L 224.759088 66.351174 
L 225.844889 93.025355 
L 226.93069 93.617422 
L 228.016491 92.028189 
L 229.102292 94.521104 
L 230.188094 94.583426 
L 231.273895 89.659921 
L 232.359696 90.220827 
L 233.445497 89.659921 
L 234.531298 91.436122 
L 235.617099 86.730747 
L 236.702901 88.382303 
L 237.788702 89.62876 
L 238.874503 88.943208 
L 239.960304 90.407795 
L 241.046105 86.855393 
L 242.131906 88.75624 
L 243.217708 89.566437 
L 244.303509 88.849724 
L 246.475111 86.35681 
L 247.560912 84.861061 
L 248.646713 87.104684 
L 249.732514 83.73925 
L 250.818316 85.795904 
L 251.904117 87.104684 
L 252.989918 86.076357 
L 254.075719 84.455963 
L 255.16152 88.506948 
L 256.247321 85.70242 
L 257.333123 81.869564 
L 258.418924 85.827066 
L 259.504725 84.985707 
L 260.590526 81.464466 
L 261.676327 86.543778 
L 262.762128 83.365313 
L 263.847929 86.35681 
L 264.933731 84.580609 
L 266.019532 85.110353 
L 267.105333 80.747753 
L 268.191134 83.645766 
L 269.276935 81.838403 
L 270.362736 78.535292 
L 271.448538 80.404977 
L 272.534339 83.053699 
L 273.62014 79.781749 
L 274.705941 80.280332 
L 275.791742 80.965883 
L 276.877543 79.563619 
L 277.963344 80.778914 
L 279.049146 78.317162 
L 280.134947 80.872399 
L 281.220748 77.725095 
L 282.306549 78.753422 
L 283.39235 77.912063 
L 284.478151 76.790252 
L 285.563953 83.583443 
L 286.649754 80.404977 
L 287.735555 74.827082 
L 288.821356 79.407812 
L 289.907157 78.566453 
L 290.992958 77.382319 
L 292.07876 75.23218 
L 293.164561 78.691099 
L 294.250362 78.06787 
L 295.336163 74.484306 
L 296.421964 74.702436 
L 297.507765 75.761925 
L 298.593566 76.603283 
L 299.679368 73.580625 
L 300.765169 76.011216 
L 301.85097 73.674109 
L 302.936771 74.889405 
L 304.022572 72.770428 
L 305.108373 74.577791 
L 306.194175 74.577791 
L 307.279976 75.076373 
L 308.365777 72.645782 
L 309.451578 71.804424 
L 310.537379 71.305841 
L 311.62318 73.892239 
L 312.708981 72.240684 
L 313.794783 72.147199 
L 314.880584 73.487141 
L 315.966385 69.249187 
L 317.052186 71.523971 
L 318.137987 71.710939 
L 319.223788 70.963065 
L 320.30959 69.623124 
L 321.395391 69.404994 
L 322.481192 69.373832 
L 323.566993 68.906411 
L 324.652794 70.433321 
L 325.738595 68.065052 
L 326.824396 67.036725 
L 327.910198 68.438989 
L 328.995999 69.218025 
L 330.0818 69.591962 
L 331.167601 66.974402 
L 332.253402 68.127375 
L 333.339203 66.818595 
L 334.425005 65.852591 
L 335.510806 64.668457 
L 336.596607 66.008398 
L 337.682408 66.03956 
L 338.768209 66.444658 
L 339.85401 65.354008 
L 340.939811 64.793103 
L 342.025613 65.852591 
L 343.111414 63.016901 
L 344.197215 62.861094 
L 345.283016 64.699618 
L 347.454618 63.328515 
L 348.54042 63.702453 
L 349.626221 63.702453 
L 350.712022 61.489991 
L 351.797823 61.334184 
L 352.883624 61.801606 
L 353.969425 62.050897 
L 355.055227 60.523987 
L 356.141028 60.80444 
L 357.226829 62.487157 
L 358.31263 60.929086 
L 359.398431 60.181211 
L 360.484232 59.994243 
L 361.570033 59.93192 
L 362.655835 60.087727 
L 363.741636 59.49566 
L 365.913238 60.212373 
L 366.999039 60.243534 
L 368.08484 59.402176 
L 370.256443 61.396507 
L 371.342244 62.11322 
L 372.428045 61.116054 
L 373.513846 62.705287 
L 374.599647 63.422 
L 375.685448 63.422 
L 376.77125 62.019736 
L 377.857051 64.138713 
L 378.942852 64.138713 
L 380.028653 61.365346 
L 381.114454 63.764775 
L 382.200255 63.827098 
L 383.286057 63.141547 
L 384.371858 60.897924 
L 385.457659 63.608968 
L 386.54346 62.923417 
L 387.629261 62.798771 
L 388.715062 62.082058 
L 389.800863 62.144381 
L 390.886665 62.98574 
L 391.972466 62.175543 
L 393.058267 63.951744 
L 394.144068 64.169874 
L 395.229869 62.829933 
L 396.31567 64.014067 
L 397.401472 62.954578 
L 398.487273 63.422 
L 398.487273 63.422 
" clip-path="url(#p7c2b55f4a9)" style="fill: none; stroke: #ff7f0e; stroke-width: 1.5; stroke-linecap: square"/>
   </g>
   <g id="line2d_21">
    <path d="M 73.832727 291.522708 
L 74.918528 270.139426 
L 76.00433 258.964315 
L 77.090131 244.995271 
L 78.175932 226.728442 
L 79.261733 220.38865 
L 80.347534 217.48721 
L 81.433335 200.079813 
L 82.519137 199.757604 
L 83.604938 198.468144 
L 84.690739 190.516683 
L 85.77654 183.961877 
L 86.862341 181.92018 
L 87.948142 175.5807 
L 89.033943 172.786766 
L 90.119745 169.025894 
L 91.205546 166.232272 
L 92.291347 166.984197 
L 93.377148 163.223324 
L 94.462949 163.653352 
L 95.54875 191.053906 
L 96.634552 185.573858 
L 97.720353 183.102445 
L 98.806154 181.27545 
L 99.891955 177.729592 
L 102.063557 175.258179 
L 103.149358 175.258179 
L 104.23516 174.613449 
L 105.320961 166.232272 
L 106.406762 166.446974 
L 107.492563 163.116129 
L 108.578364 169.348414 
L 109.664165 153.982403 
L 110.749967 159.140243 
L 111.835768 160.429702 
L 112.921569 159.355256 
L 114.00737 157.206053 
L 115.093171 155.809086 
L 116.178972 152.15572 
L 117.264773 149.469294 
L 118.350575 153.015464 
L 119.436376 144.633975 
L 120.522177 144.419273 
L 121.607978 138.40169 
L 122.693779 139.69115 
L 123.77958 138.616704 
L 125.951183 143.774543 
L 127.036984 138.938913 
L 128.122785 136.790021 
L 129.208586 135.393054 
L 130.294387 135.500561 
L 132.46599 134.53331 
L 133.551791 133.566371 
L 134.637592 132.276911 
L 135.723393 134.103594 
L 136.809194 133.88858 
L 137.894995 132.599432 
L 138.980797 164.835305 
L 140.066598 156.561323 
L 141.152399 158.817722 
L 142.2382 161.719162 
L 143.324001 154.197417 
L 144.409802 159.140243 
L 145.495604 153.982403 
L 146.581405 154.519626 
L 147.667206 149.576801 
L 148.753007 153.982403 
L 149.838808 151.726004 
L 150.924609 148.287341 
L 152.01041 144.096752 
L 154.182013 150.866261 
L 155.267814 145.923435 
L 156.353615 147.320402 
L 157.439416 148.394848 
L 158.525217 148.824875 
L 159.611019 141.94786 
L 160.69682 146.353151 
L 161.782621 147.535416 
L 162.868422 145.278705 
L 163.954223 141.195623 
L 165.040024 145.708733 
L 166.125825 140.33588 
L 167.211627 136.575007 
L 168.297428 135.070845 
L 169.383229 139.583643 
L 170.46903 138.40169 
L 171.554831 139.261434 
L 172.640632 137.864467 
L 173.726434 138.294183 
L 174.812235 135.285547 
L 175.898036 135.82277 
L 176.983837 134.963338 
L 178.069638 138.186988 
L 179.155439 132.599432 
L 180.24124 132.169405 
L 181.327042 134.748324 
L 182.412843 128.408532 
L 183.498644 132.921641 
L 184.584445 129.48329 
L 185.670246 126.581849 
L 186.756047 129.375783 
L 187.841849 127.441593 
L 188.92765 127.978816 
L 190.013451 125.184882 
L 191.099252 125.937119 
L 192.185053 126.90437 
L 193.270854 125.507403 
L 194.356656 124.432957 
L 195.442457 124.217943 
L 196.528258 122.39126 
L 197.614059 124.110436 
L 198.69986 124.755166 
L 199.785661 122.498767 
L 200.871462 122.283754 
L 201.957264 120.457071 
L 203.043065 120.242057 
L 204.128866 120.564578 
L 205.214667 118.845402 
L 206.300468 117.878151 
L 207.386269 115.729259 
L 208.472071 115.299231 
L 209.557872 116.481184 
L 210.643673 118.952597 
L 211.729474 116.588691 
L 212.815275 114.977022 
L 213.901076 117.878151 
L 214.986877 114.977022 
L 216.072679 115.943961 
L 217.15848 114.869515 
L 218.244281 116.051468 
L 219.330082 116.588691 
L 220.415883 115.943961 
L 221.501684 113.687562 
L 222.587486 114.869515 
L 223.673287 116.373989 
L 224.759088 113.902576 
L 225.844889 146.890686 
L 226.93069 140.765596 
L 229.102292 148.180146 
L 230.188094 146.138449 
L 231.273895 141.088116 
L 233.445497 142.055056 
L 234.531298 144.204259 
L 235.617099 136.4675 
L 236.702901 141.517833 
L 237.788702 144.848989 
L 238.874503 138.509197 
L 239.960304 141.517833 
L 241.046105 140.120866 
L 242.131906 135.500561 
L 243.217708 135.715575 
L 244.303509 143.344515 
L 245.38931 139.69115 
L 246.475111 142.055174 
L 247.560912 137.21978 
L 248.646713 140.658282 
L 249.732514 135.070716 
L 250.818316 138.294312 
L 251.904117 135.500529 
L 252.989918 135.930342 
L 254.075719 136.682514 
L 255.16152 135.822888 
L 256.247321 137.434686 
L 257.333123 132.062027 
L 258.418924 141.625361 
L 259.504725 139.691203 
L 260.590526 130.880041 
L 261.676327 134.85581 
L 262.762128 133.673824 
L 263.847929 138.509218 
L 264.933731 136.145248 
L 266.019532 135.393076 
L 267.105333 128.086258 
L 268.191134 131.417307 
L 269.276935 133.244012 
L 270.362736 129.053337 
L 271.448538 132.384386 
L 272.534339 134.53345 
L 273.62014 129.805509 
L 274.705941 136.789967 
L 275.791742 134.425997 
L 276.877543 130.880041 
L 277.963344 132.814199 
L 279.049146 123.680677 
L 281.220748 131.524761 
L 282.306549 127.011726 
L 283.39235 128.730977 
L 284.478151 123.680677 
L 285.563953 133.244012 
L 286.649754 131.524761 
L 287.735555 124.755209 
L 288.821356 130.450229 
L 289.907157 124.43285 
L 290.992958 124.755209 
L 292.07876 124.755209 
L 293.164561 129.805509 
L 295.336163 122.821052 
L 296.421964 122.176333 
L 297.507765 124.970116 
L 298.593566 126.044648 
L 299.679368 120.134722 
L 300.765169 127.656446 
L 301.85097 124.325396 
L 302.936771 127.334086 
L 304.022572 122.176333 
L 305.108373 124.970116 
L 306.194175 124.003037 
L 307.279976 121.101801 
L 308.365777 121.639067 
L 309.451578 117.663298 
L 310.537379 118.415471 
L 311.62318 123.465771 
L 312.708981 120.564535 
L 313.794783 120.564535 
L 314.880584 122.283786 
L 315.966385 117.340939 
L 317.052186 118.200564 
L 318.137987 119.275096 
L 319.223788 117.340939 
L 320.30959 122.391239 
L 321.395391 121.42416 
L 322.481192 119.06019 
L 323.566993 114.332249 
L 324.652794 117.126032 
L 325.738595 113.365171 
L 326.824396 117.018579 
L 327.910198 119.167643 
L 328.995999 118.308018 
L 330.0818 118.952737 
L 331.167601 112.935358 
L 332.253402 110.141575 
L 333.339203 116.69622 
L 334.425005 115.621688 
L 335.510806 112.183185 
L 336.596607 114.439702 
L 337.682408 114.869515 
L 338.768209 114.762062 
L 339.85401 113.472624 
L 340.939811 113.580077 
L 342.025613 113.150264 
L 343.111414 109.604309 
L 344.197215 112.183185 
L 345.283016 115.084422 
L 346.368817 114.547156 
L 347.454618 111.860826 
L 348.54042 107.992511 
L 349.626221 112.075732 
L 350.712022 109.926668 
L 351.797823 109.496855 
L 352.883624 105.843447 
L 353.969425 111.753373 
L 355.055227 106.488166 
L 356.141028 108.422324 
L 357.226829 108.099964 
L 358.31263 108.529777 
L 359.398431 104.661462 
L 360.484232 106.810526 
L 361.570033 105.843447 
L 362.655835 104.554008 
L 363.741636 106.488166 
L 364.827437 104.339102 
L 365.913238 102.942211 
L 366.999039 104.124196 
L 368.08484 105.091274 
L 369.170642 107.885058 
L 370.256443 107.885058 
L 371.342244 109.819215 
L 372.428045 106.810526 
L 373.513846 109.389402 
L 374.599647 107.670151 
L 375.685448 112.505545 
L 376.77125 108.852136 
L 377.857051 110.571387 
L 378.942852 110.141575 
L 380.028653 107.347792 
L 381.114454 109.711762 
L 382.200255 110.034121 
L 383.286057 106.595619 
L 384.371858 105.735994 
L 385.457659 109.067043 
L 386.54346 109.604309 
L 387.629261 107.992511 
L 388.715062 110.141575 
L 389.800863 107.670151 
L 390.886665 108.744683 
L 391.972466 105.198728 
L 394.144068 109.281949 
L 395.229869 112.398092 
L 396.31567 112.075732 
L 397.401472 111.968279 
L 398.487273 112.290639 
L 398.487273 112.290639 
" clip-path="url(#p7c2b55f4a9)" style="fill: none; stroke: #2ca02c; stroke-width: 1.5; stroke-linecap: square"/>
   </g>
   <g id="line2d_22">
    <path d="M 368.08484 60.430503 
L 369.170642 59.900759 
L 370.256443 60.15005 
L 371.342244 61.116054 
L 372.428045 60.866763 
L 373.513846 60.274696 
L 374.599647 61.209538 
L 375.685448 62.642964 
L 376.77125 61.178377 
L 377.857051 60.929086 
L 378.942852 61.365346 
L 380.028653 62.33135 
L 381.114454 60.056566 
L 383.286057 61.67696 
L 384.371858 60.710956 
L 385.457659 60.742117 
L 386.54346 61.116054 
L 387.629261 63.359677 
L 388.715062 62.144381 
L 389.800863 63.172708 
L 390.886665 62.206704 
L 391.972466 61.770444 
L 393.058267 64.014067 
L 394.144068 62.487157 
L 395.229869 61.645798 
L 396.31567 64.045228 
L 397.401472 63.328515 
L 398.487273 65.198201 
L 398.487273 65.198201 
" clip-path="url(#p7c2b55f4a9)" style="fill: none; stroke: #d62728; stroke-width: 1.5; stroke-linecap: square"/>
   </g>
   <g id="line2d_23">
    <path d="M 368.08484 104.554008 
L 369.170642 101.760225 
L 371.342244 109.389402 
L 372.428045 104.446555 
L 373.513846 103.58693 
L 374.599647 106.810526 
L 375.685448 107.562698 
L 376.77125 105.9509 
L 377.857051 105.9509 
L 378.942852 104.983821 
L 380.028653 108.207417 
L 381.114454 103.157117 
L 382.200255 103.26457 
L 383.286057 104.339102 
L 384.371858 103.372023 
L 385.457659 106.703072 
L 386.54346 104.124196 
L 387.629261 108.422324 
L 388.715062 104.446555 
L 389.800863 108.744683 
L 390.886665 105.306181 
L 391.972466 106.380713 
L 393.058267 106.917979 
L 395.229869 102.190038 
L 396.31567 106.27326 
L 397.401472 106.380713 
L 398.487273 110.571387 
L 398.487273 110.571387 
" clip-path="url(#p7c2b55f4a9)" style="fill: none; stroke: #9467bd; stroke-width: 1.5; stroke-linecap: square"/>
   </g>
   <g id="patch_3">
    <path d="M 57.6 307.584 
L 57.6 41.472 
" style="fill: none; stroke: #000000; stroke-width: 0.8; stroke-linejoin: miter; stroke-linecap: square"/>
   </g>
   <g id="patch_4">
    <path d="M 414.72 307.584 
L 414.72 41.472 
" style="fill: none; stroke: #000000; stroke-width: 0.8; stroke-linejoin: miter; stroke-linecap: square"/>
   </g>
   <g id="patch_5">
    <path d="M 57.6 307.584 
L 414.72 307.584 
" style="fill: none; stroke: #000000; stroke-width: 0.8; stroke-linejoin: miter; stroke-linecap: square"/>
   </g>
   <g id="patch_6">
    <path d="M 57.6 41.472 
L 414.72 41.472 
" style="fill: none; stroke: #000000; stroke-width: 0.8; stroke-linejoin: miter; stroke-linecap: square"/>
   </g>
   <g id="text_21">
    <!-- Learning Curves -->
    <g transform="translate(187.37625 35.472) scale(0.12 -0.12)">
     <defs>
      <path id="DejaVuSans-4c" d="M 628 4666 
L 1259 4666 
L 1259 531 
L 3531 531 
L 3531 0 
L 628 0 
L 628 4666 
z
" transform="scale(0.015625)"/>
      <path id="DejaVuSans-65" d="M 3597 1894 
L 3597 1613 
L 953 1613 
Q 991 1019 1311 708 
Q 1631 397 2203 397 
Q 2534 397 2845 478 
Q 3156 559 3463 722 
L 3463 178 
Q 3153 47 2828 -22 
Q 2503 -91 2169 -91 
Q 1331 -91 842 396 
Q 353 884 353 1716 
Q 353 2575 817 3079 
Q 1281 3584 2069 3584 
Q 2775 3584 3186 3129 
Q 3597 2675 3597 1894 
z
M 3022 2063 
Q 3016 2534 2758 2815 
Q 2500 3097 2075 3097 
Q 1594 3097 1305 2825 
Q 1016 2553 972 2059 
L 3022 2063 
z
" transform="scale(0.015625)"/>
      <path id="DejaVuSans-6e" d="M 3513 2113 
L 3513 0 
L 2938 0 
L 2938 2094 
Q 2938 2591 2744 2837 
Q 2550 3084 2163 3084 
Q 1697 3084 1428 2787 
Q 1159 2491 1159 1978 
L 1159 0 
L 581 0 
L 581 3500 
L 1159 3500 
L 1159 2956 
Q 1366 3272 1645 3428 
Q 1925 3584 2291 3584 
Q 2894 3584 3203 3211 
Q 3513 2838 3513 2113 
z
" transform="scale(0.015625)"/>
      <path id="DejaVuSans-69" d="M 603 3500 
L 1178 3500 
L 1178 0 
L 603 0 
L 603 3500 
z
M 603 4863 
L 1178 4863 
L 1178 4134 
L 603 4134 
L 603 4863 
z
" transform="scale(0.015625)"/>
      <path id="DejaVuSans-67" d="M 2906 1791 
Q 2906 2416 2648 2759 
Q 2391 3103 1925 3103 
Q 1463 3103 1205 2759 
Q 947 2416 947 1791 
Q 947 1169 1205 825 
Q 1463 481 1925 481 
Q 2391 481 2648 825 
Q 2906 1169 2906 1791 
z
M 3481 434 
Q 3481 -459 3084 -895 
Q 2688 -1331 1869 -1331 
Q 1566 -1331 1297 -1286 
Q 1028 -1241 775 -1147 
L 775 -588 
Q 1028 -725 1275 -790 
Q 1522 -856 1778 -856 
Q 2344 -856 2625 -561 
Q 2906 -266 2906 331 
L 2906 616 
Q 2728 306 2450 153 
Q 2172 0 1784 0 
Q 1141 0 747 490 
Q 353 981 353 1791 
Q 353 2603 747 3093 
Q 1141 3584 1784 3584 
Q 2172 3584 2450 3431 
Q 2728 3278 2906 2969 
L 2906 3500 
L 3481 3500 
L 3481 434 
z
" transform="scale(0.015625)"/>
      <path id="DejaVuSans-20" transform="scale(0.015625)"/>
      <path id="DejaVuSans-43" d="M 4122 4306 
L 4122 3641 
Q 3803 3938 3442 4084 
Q 3081 4231 2675 4231 
Q 1875 4231 1450 3742 
Q 1025 3253 1025 2328 
Q 1025 1406 1450 917 
Q 1875 428 2675 428 
Q 3081 428 3442 575 
Q 3803 722 4122 1019 
L 4122 359 
Q 3791 134 3420 21 
Q 3050 -91 2638 -91 
Q 1578 -91 968 557 
Q 359 1206 359 2328 
Q 359 3453 968 4101 
Q 1578 4750 2638 4750 
Q 3056 4750 3426 4639 
Q 3797 4528 4122 4306 
z
" transform="scale(0.015625)"/>
      <path id="DejaVuSans-76" d="M 191 3500 
L 800 3500 
L 1894 563 
L 2988 3500 
L 3597 3500 
L 2284 0 
L 1503 0 
L 191 3500 
z
" transform="scale(0.015625)"/>
     </defs>
     <use xlink:href="#DejaVuSans-4c"/>
     <use xlink:href="#DejaVuSans-65" x="53.962891"/>
     <use xlink:href="#DejaVuSans-61" x="115.486328"/>
     <use xlink:href="#DejaVuSans-72" x="176.765625"/>
     <use xlink:href="#DejaVuSans-6e" x="216.128906"/>
     <use xlink:href="#DejaVuSans-69" x="279.507812"/>
     <use xlink:href="#DejaVuSans-6e" x="307.291016"/>
     <use xlink:href="#DejaVuSans-67" x="370.669922"/>
     <use xlink:href="#DejaVuSans-20" x="434.146484"/>
     <use xlink:href="#DejaVuSans-43" x="465.933594"/>
     <use xlink:href="#DejaVuSans-75" x="535.757812"/>
     <use xlink:href="#DejaVuSans-72" x="599.136719"/>
     <use xlink:href="#DejaVuSans-76" x="640.25"/>
     <use xlink:href="#DejaVuSans-65" x="699.429688"/>
     <use xlink:href="#DejaVuSans-73" x="760.953125"/>
    </g>
   </g>
   <g id="legend_1">
    <g id="patch_7">
     <path d="M 214.18875 302.584 
L 407.72 302.584 
Q 409.72 302.584 409.72 300.584 
L 409.72 228.193375 
Q 409.72 226.193375 407.72 226.193375 
L 214.18875 226.193375 
Q 212.18875 226.193375 212.18875 228.193375 
L 212.18875 300.584 
Q 212.18875 302.584 214.18875 302.584 
z
" style="fill: #ffffff; opacity: 0.8; stroke: #cccccc; stroke-linejoin: miter"/>
    </g>
    <g id="line2d_24">
     <path d="M 216.18875 234.291812 
L 226.18875 234.291812 
L 236.18875 234.291812 
" style="fill: none; stroke: #1f77b4; stroke-width: 1.5; stroke-linecap: square"/>
    </g>
    <g id="text_22">
     <!-- Train Accuracy -->
     <g transform="translate(244.18875 237.791812) scale(0.1 -0.1)">
      <defs>
       <path id="DejaVuSans-54" d="M -19 4666 
L 3928 4666 
L 3928 4134 
L 2272 4134 
L 2272 0 
L 1638 0 
L 1638 4134 
L -19 4134 
L -19 4666 
z
" transform="scale(0.015625)"/>
      </defs>
      <use xlink:href="#DejaVuSans-54"/>
      <use xlink:href="#DejaVuSans-72" x="46.333984"/>
      <use xlink:href="#DejaVuSans-61" x="87.447266"/>
      <use xlink:href="#DejaVuSans-69" x="148.726562"/>
      <use xlink:href="#DejaVuSans-6e" x="176.509766"/>
      <use xlink:href="#DejaVuSans-20" x="239.888672"/>
      <use xlink:href="#DejaVuSans-41" x="271.675781"/>
      <use xlink:href="#DejaVuSans-63" x="338.333984"/>
      <use xlink:href="#DejaVuSans-63" x="393.314453"/>
      <use xlink:href="#DejaVuSans-75" x="448.294922"/>
      <use xlink:href="#DejaVuSans-72" x="511.673828"/>
      <use xlink:href="#DejaVuSans-61" x="552.787109"/>
      <use xlink:href="#DejaVuSans-63" x="614.066406"/>
      <use xlink:href="#DejaVuSans-79" x="669.046875"/>
     </g>
    </g>
    <g id="line2d_25">
     <path d="M 216.18875 248.969937 
L 226.18875 248.969937 
L 236.18875 248.969937 
" style="fill: none; stroke: #ff7f0e; stroke-width: 1.5; stroke-linecap: square"/>
    </g>
    <g id="text_23">
     <!-- Validation Accuracy -->
     <g transform="translate(244.18875 252.469937) scale(0.1 -0.1)">
      <defs>
       <path id="DejaVuSans-56" d="M 1831 0 
L 50 4666 
L 709 4666 
L 2188 738 
L 3669 4666 
L 4325 4666 
L 2547 0 
L 1831 0 
z
" transform="scale(0.015625)"/>
       <path id="DejaVuSans-6c" d="M 603 4863 
L 1178 4863 
L 1178 0 
L 603 0 
L 603 4863 
z
" transform="scale(0.015625)"/>
       <path id="DejaVuSans-64" d="M 2906 2969 
L 2906 4863 
L 3481 4863 
L 3481 0 
L 2906 0 
L 2906 525 
Q 2725 213 2448 61 
Q 2172 -91 1784 -91 
Q 1150 -91 751 415 
Q 353 922 353 1747 
Q 353 2572 751 3078 
Q 1150 3584 1784 3584 
Q 2172 3584 2448 3432 
Q 2725 3281 2906 2969 
z
M 947 1747 
Q 947 1113 1208 752 
Q 1469 391 1925 391 
Q 2381 391 2643 752 
Q 2906 1113 2906 1747 
Q 2906 2381 2643 2742 
Q 2381 3103 1925 3103 
Q 1469 3103 1208 2742 
Q 947 2381 947 1747 
z
" transform="scale(0.015625)"/>
       <path id="DejaVuSans-74" d="M 1172 4494 
L 1172 3500 
L 2356 3500 
L 2356 3053 
L 1172 3053 
L 1172 1153 
Q 1172 725 1289 603 
Q 1406 481 1766 481 
L 2356 481 
L 2356 0 
L 1766 0 
Q 1100 0 847 248 
Q 594 497 594 1153 
L 594 3053 
L 172 3053 
L 172 3500 
L 594 3500 
L 594 4494 
L 1172 4494 
z
" transform="scale(0.015625)"/>
      </defs>
      <use xlink:href="#DejaVuSans-56"/>
      <use xlink:href="#DejaVuSans-61" x="60.658203"/>
      <use xlink:href="#DejaVuSans-6c" x="121.9375"/>
      <use xlink:href="#DejaVuSans-69" x="149.720703"/>
      <use xlink:href="#DejaVuSans-64" x="177.503906"/>
      <use xlink:href="#DejaVuSans-61" x="240.980469"/>
      <use xlink:href="#DejaVuSans-74" x="302.259766"/>
      <use xlink:href="#DejaVuSans-69" x="341.46875"/>
      <use xlink:href="#DejaVuSans-6f" x="369.251953"/>
      <use xlink:href="#DejaVuSans-6e" x="430.433594"/>
      <use xlink:href="#DejaVuSans-20" x="493.8125"/>
      <use xlink:href="#DejaVuSans-41" x="525.599609"/>
      <use xlink:href="#DejaVuSans-63" x="592.257812"/>
      <use xlink:href="#DejaVuSans-63" x="647.238281"/>
      <use xlink:href="#DejaVuSans-75" x="702.21875"/>
      <use xlink:href="#DejaVuSans-72" x="765.597656"/>
      <use xlink:href="#DejaVuSans-61" x="806.710938"/>
      <use xlink:href="#DejaVuSans-63" x="867.990234"/>
      <use xlink:href="#DejaVuSans-79" x="922.970703"/>
     </g>
    </g>
    <g id="line2d_26">
     <path d="M 216.18875 263.648062 
L 226.18875 263.648062 
L 236.18875 263.648062 
" style="fill: none; stroke: #2ca02c; stroke-width: 1.5; stroke-linecap: square"/>
    </g>
    <g id="text_24">
     <!-- Robust Validation Accuracy -->
     <g transform="translate(244.18875 267.148062) scale(0.1 -0.1)">
      <defs>
       <path id="DejaVuSans-52" d="M 2841 2188 
Q 3044 2119 3236 1894 
Q 3428 1669 3622 1275 
L 4263 0 
L 3584 0 
L 2988 1197 
Q 2756 1666 2539 1819 
Q 2322 1972 1947 1972 
L 1259 1972 
L 1259 0 
L 628 0 
L 628 4666 
L 2053 4666 
Q 2853 4666 3247 4331 
Q 3641 3997 3641 3322 
Q 3641 2881 3436 2590 
Q 3231 2300 2841 2188 
z
M 1259 4147 
L 1259 2491 
L 2053 2491 
Q 2509 2491 2742 2702 
Q 2975 2913 2975 3322 
Q 2975 3731 2742 3939 
Q 2509 4147 2053 4147 
L 1259 4147 
z
" transform="scale(0.015625)"/>
       <path id="DejaVuSans-62" d="M 3116 1747 
Q 3116 2381 2855 2742 
Q 2594 3103 2138 3103 
Q 1681 3103 1420 2742 
Q 1159 2381 1159 1747 
Q 1159 1113 1420 752 
Q 1681 391 2138 391 
Q 2594 391 2855 752 
Q 3116 1113 3116 1747 
z
M 1159 2969 
Q 1341 3281 1617 3432 
Q 1894 3584 2278 3584 
Q 2916 3584 3314 3078 
Q 3713 2572 3713 1747 
Q 3713 922 3314 415 
Q 2916 -91 2278 -91 
Q 1894 -91 1617 61 
Q 1341 213 1159 525 
L 1159 0 
L 581 0 
L 581 4863 
L 1159 4863 
L 1159 2969 
z
" transform="scale(0.015625)"/>
      </defs>
      <use xlink:href="#DejaVuSans-52"/>
      <use xlink:href="#DejaVuSans-6f" x="64.982422"/>
      <use xlink:href="#DejaVuSans-62" x="126.164062"/>
      <use xlink:href="#DejaVuSans-75" x="189.640625"/>
      <use xlink:href="#DejaVuSans-73" x="253.019531"/>
      <use xlink:href="#DejaVuSans-74" x="305.119141"/>
      <use xlink:href="#DejaVuSans-20" x="344.328125"/>
      <use xlink:href="#DejaVuSans-56" x="376.115234"/>
      <use xlink:href="#DejaVuSans-61" x="436.773438"/>
      <use xlink:href="#DejaVuSans-6c" x="498.052734"/>
      <use xlink:href="#DejaVuSans-69" x="525.835938"/>
      <use xlink:href="#DejaVuSans-64" x="553.619141"/>
      <use xlink:href="#DejaVuSans-61" x="617.095703"/>
      <use xlink:href="#DejaVuSans-74" x="678.375"/>
      <use xlink:href="#DejaVuSans-69" x="717.583984"/>
      <use xlink:href="#DejaVuSans-6f" x="745.367188"/>
      <use xlink:href="#DejaVuSans-6e" x="806.548828"/>
      <use xlink:href="#DejaVuSans-20" x="869.927734"/>
      <use xlink:href="#DejaVuSans-41" x="901.714844"/>
      <use xlink:href="#DejaVuSans-63" x="968.373047"/>
      <use xlink:href="#DejaVuSans-63" x="1023.353516"/>
      <use xlink:href="#DejaVuSans-75" x="1078.333984"/>
      <use xlink:href="#DejaVuSans-72" x="1141.712891"/>
      <use xlink:href="#DejaVuSans-61" x="1182.826172"/>
      <use xlink:href="#DejaVuSans-63" x="1244.105469"/>
      <use xlink:href="#DejaVuSans-79" x="1299.085938"/>
     </g>
    </g>
    <g id="line2d_27">
     <path d="M 216.18875 278.326188 
L 226.18875 278.326188 
L 236.18875 278.326188 
" style="fill: none; stroke: #d62728; stroke-width: 1.5; stroke-linecap: square"/>
    </g>
    <g id="text_25">
     <!-- SWA Validation Accuracy -->
     <g transform="translate(244.18875 281.826188) scale(0.1 -0.1)">
      <defs>
       <path id="DejaVuSans-53" d="M 3425 4513 
L 3425 3897 
Q 3066 4069 2747 4153 
Q 2428 4238 2131 4238 
Q 1616 4238 1336 4038 
Q 1056 3838 1056 3469 
Q 1056 3159 1242 3001 
Q 1428 2844 1947 2747 
L 2328 2669 
Q 3034 2534 3370 2195 
Q 3706 1856 3706 1288 
Q 3706 609 3251 259 
Q 2797 -91 1919 -91 
Q 1588 -91 1214 -16 
Q 841 59 441 206 
L 441 856 
Q 825 641 1194 531 
Q 1563 422 1919 422 
Q 2459 422 2753 634 
Q 3047 847 3047 1241 
Q 3047 1584 2836 1778 
Q 2625 1972 2144 2069 
L 1759 2144 
Q 1053 2284 737 2584 
Q 422 2884 422 3419 
Q 422 4038 858 4394 
Q 1294 4750 2059 4750 
Q 2388 4750 2728 4690 
Q 3069 4631 3425 4513 
z
" transform="scale(0.015625)"/>
       <path id="DejaVuSans-57" d="M 213 4666 
L 850 4666 
L 1831 722 
L 2809 4666 
L 3519 4666 
L 4500 722 
L 5478 4666 
L 6119 4666 
L 4947 0 
L 4153 0 
L 3169 4050 
L 2175 0 
L 1381 0 
L 213 4666 
z
" transform="scale(0.015625)"/>
      </defs>
      <use xlink:href="#DejaVuSans-53"/>
      <use xlink:href="#DejaVuSans-57" x="63.476562"/>
      <use xlink:href="#DejaVuSans-41" x="156.853516"/>
      <use xlink:href="#DejaVuSans-20" x="225.261719"/>
      <use xlink:href="#DejaVuSans-56" x="257.048828"/>
      <use xlink:href="#DejaVuSans-61" x="317.707031"/>
      <use xlink:href="#DejaVuSans-6c" x="378.986328"/>
      <use xlink:href="#DejaVuSans-69" x="406.769531"/>
      <use xlink:href="#DejaVuSans-64" x="434.552734"/>
      <use xlink:href="#DejaVuSans-61" x="498.029297"/>
      <use xlink:href="#DejaVuSans-74" x="559.308594"/>
      <use xlink:href="#DejaVuSans-69" x="598.517578"/>
      <use xlink:href="#DejaVuSans-6f" x="626.300781"/>
      <use xlink:href="#DejaVuSans-6e" x="687.482422"/>
      <use xlink:href="#DejaVuSans-20" x="750.861328"/>
      <use xlink:href="#DejaVuSans-41" x="782.648438"/>
      <use xlink:href="#DejaVuSans-63" x="849.306641"/>
      <use xlink:href="#DejaVuSans-63" x="904.287109"/>
      <use xlink:href="#DejaVuSans-75" x="959.267578"/>
      <use xlink:href="#DejaVuSans-72" x="1022.646484"/>
      <use xlink:href="#DejaVuSans-61" x="1063.759766"/>
      <use xlink:href="#DejaVuSans-63" x="1125.039062"/>
      <use xlink:href="#DejaVuSans-79" x="1180.019531"/>
     </g>
    </g>
    <g id="line2d_28">
     <path d="M 216.18875 293.004312 
L 226.18875 293.004312 
L 236.18875 293.004312 
" style="fill: none; stroke: #9467bd; stroke-width: 1.5; stroke-linecap: square"/>
    </g>
    <g id="text_26">
     <!-- SWA Robust Validation Accuracy -->
     <g transform="translate(244.18875 296.504312) scale(0.1 -0.1)">
      <use xlink:href="#DejaVuSans-53"/>
      <use xlink:href="#DejaVuSans-57" x="63.476562"/>
      <use xlink:href="#DejaVuSans-41" x="156.853516"/>
      <use xlink:href="#DejaVuSans-20" x="225.261719"/>
      <use xlink:href="#DejaVuSans-52" x="257.048828"/>
      <use xlink:href="#DejaVuSans-6f" x="322.03125"/>
      <use xlink:href="#DejaVuSans-62" x="383.212891"/>
      <use xlink:href="#DejaVuSans-75" x="446.689453"/>
      <use xlink:href="#DejaVuSans-73" x="510.068359"/>
      <use xlink:href="#DejaVuSans-74" x="562.167969"/>
      <use xlink:href="#DejaVuSans-20" x="601.376953"/>
      <use xlink:href="#DejaVuSans-56" x="633.164062"/>
      <use xlink:href="#DejaVuSans-61" x="693.822266"/>
      <use xlink:href="#DejaVuSans-6c" x="755.101562"/>
      <use xlink:href="#DejaVuSans-69" x="782.884766"/>
      <use xlink:href="#DejaVuSans-64" x="810.667969"/>
      <use xlink:href="#DejaVuSans-61" x="874.144531"/>
      <use xlink:href="#DejaVuSans-74" x="935.423828"/>
      <use xlink:href="#DejaVuSans-69" x="974.632812"/>
      <use xlink:href="#DejaVuSans-6f" x="1002.416016"/>
      <use xlink:href="#DejaVuSans-6e" x="1063.597656"/>
      <use xlink:href="#DejaVuSans-20" x="1126.976562"/>
      <use xlink:href="#DejaVuSans-41" x="1158.763672"/>
      <use xlink:href="#DejaVuSans-63" x="1225.421875"/>
      <use xlink:href="#DejaVuSans-63" x="1280.402344"/>
      <use xlink:href="#DejaVuSans-75" x="1335.382812"/>
      <use xlink:href="#DejaVuSans-72" x="1398.761719"/>
      <use xlink:href="#DejaVuSans-61" x="1439.875"/>
      <use xlink:href="#DejaVuSans-63" x="1501.154297"/>
      <use xlink:href="#DejaVuSans-79" x="1556.134766"/>
     </g>
    </g>
   </g>
  </g>
 </g>
 <defs>
  <clipPath id="p7c2b55f4a9">
   <rect x="57.6" y="41.472" width="357.12" height="266.112"/>
  </clipPath>
 </defs>
</svg>
