<?xml version="1.0" encoding="utf-8" standalone="no"?>
<!DOCTYPE svg PUBLIC "-//W3C//DTD SVG 1.1//EN"
  "http://www.w3.org/Graphics/SVG/1.1/DTD/svg11.dtd">
<svg xmlns:xlink="http://www.w3.org/1999/xlink" width="460.8pt" height="345.6pt" viewBox="0 0 460.8 345.6" xmlns="http://www.w3.org/2000/svg" version="1.1">
 <metadata>
  <rdf:RDF xmlns:dc="http://purl.org/dc/elements/1.1/" xmlns:cc="http://creativecommons.org/ns#" xmlns:rdf="http://www.w3.org/1999/02/22-rdf-syntax-ns#">
   <cc:Work>
    <dc:type rdf:resource="http://purl.org/dc/dcmitype/StillImage"/>
    <dc:date>2025-07-13T15:16:11.784208</dc:date>
    <dc:format>image/svg+xml</dc:format>
    <dc:creator>
     <cc:Agent>
      <dc:title>Matplotlib v3.9.1, https://matplotlib.org/</dc:title>
     </cc:Agent>
    </dc:creator>
   </cc:Work>
  </rdf:RDF>
 </metadata>
 <defs>
  <style type="text/css">*{stroke-linejoin: round; stroke-linecap: butt}</style>
 </defs>
 <g id="figure_1">
  <g id="patch_1">
   <path d="M 0 345.6 
L 460.8 345.6 
L 460.8 0 
L 0 0 
z
" style="fill: #ffffff"/>
  </g>
  <g id="axes_1">
   <g id="patch_2">
    <path d="M 57.6 307.584 
L 414.72 307.584 
L 414.72 41.472 
L 57.6 41.472 
z
" style="fill: #ffffff"/>
   </g>
   <g id="matplotlib.axis_1">
    <g id="xtick_1">
     <g id="line2d_1">
      <defs>
       <path id="md3e908f190" d="M 0 0 
L 0 3.5 
" style="stroke: #000000; stroke-width: 0.8"/>
      </defs>
      <g>
       <use xlink:href="#md3e908f190" x="73.832727" y="307.584" style="stroke: #000000; stroke-width: 0.8"/>
      </g>
     </g>
     <g id="text_1">
      <!-- 1 -->
      <g transform="translate(70.651477 322.182437) scale(0.1 -0.1)">
       <defs>
        <path id="DejaVuSans-31" d="M 794 531 
L 1825 531 
L 1825 4091 
L 703 3866 
L 703 4441 
L 1819 4666 
L 2450 4666 
L 2450 531 
L 3481 531 
L 3481 0 
L 794 0 
L 794 531 
z
" transform="scale(0.015625)"/>
       </defs>
       <use xlink:href="#DejaVuSans-31"/>
      </g>
     </g>
    </g>
    <g id="xtick_2">
     <g id="line2d_2">
      <g>
       <use xlink:href="#md3e908f190" x="109.664165" y="307.584" style="stroke: #000000; stroke-width: 0.8"/>
      </g>
     </g>
     <g id="text_2">
      <!-- 34 -->
      <g transform="translate(103.301665 322.182437) scale(0.1 -0.1)">
       <defs>
        <path id="DejaVuSans-33" d="M 2597 2516 
Q 3050 2419 3304 2112 
Q 3559 1806 3559 1356 
Q 3559 666 3084 287 
Q 2609 -91 1734 -91 
Q 1441 -91 1130 -33 
Q 819 25 488 141 
L 488 750 
Q 750 597 1062 519 
Q 1375 441 1716 441 
Q 2309 441 2620 675 
Q 2931 909 2931 1356 
Q 2931 1769 2642 2001 
Q 2353 2234 1838 2234 
L 1294 2234 
L 1294 2753 
L 1863 2753 
Q 2328 2753 2575 2939 
Q 2822 3125 2822 3475 
Q 2822 3834 2567 4026 
Q 2313 4219 1838 4219 
Q 1578 4219 1281 4162 
Q 984 4106 628 3988 
L 628 4550 
Q 988 4650 1302 4700 
Q 1616 4750 1894 4750 
Q 2613 4750 3031 4423 
Q 3450 4097 3450 3541 
Q 3450 3153 3228 2886 
Q 3006 2619 2597 2516 
z
" transform="scale(0.015625)"/>
        <path id="DejaVuSans-34" d="M 2419 4116 
L 825 1625 
L 2419 1625 
L 2419 4116 
z
M 2253 4666 
L 3047 4666 
L 3047 1625 
L 3713 1625 
L 3713 1100 
L 3047 1100 
L 3047 0 
L 2419 0 
L 2419 1100 
L 313 1100 
L 313 1709 
L 2253 4666 
z
" transform="scale(0.015625)"/>
       </defs>
       <use xlink:href="#DejaVuSans-33"/>
       <use xlink:href="#DejaVuSans-34" x="63.623047"/>
      </g>
     </g>
    </g>
    <g id="xtick_3">
     <g id="line2d_3">
      <g>
       <use xlink:href="#md3e908f190" x="145.495604" y="307.584" style="stroke: #000000; stroke-width: 0.8"/>
      </g>
     </g>
     <g id="text_3">
      <!-- 67 -->
      <g transform="translate(139.133104 322.182437) scale(0.1 -0.1)">
       <defs>
        <path id="DejaVuSans-36" d="M 2113 2584 
Q 1688 2584 1439 2293 
Q 1191 2003 1191 1497 
Q 1191 994 1439 701 
Q 1688 409 2113 409 
Q 2538 409 2786 701 
Q 3034 994 3034 1497 
Q 3034 2003 2786 2293 
Q 2538 2584 2113 2584 
z
M 3366 4563 
L 3366 3988 
Q 3128 4100 2886 4159 
Q 2644 4219 2406 4219 
Q 1781 4219 1451 3797 
Q 1122 3375 1075 2522 
Q 1259 2794 1537 2939 
Q 1816 3084 2150 3084 
Q 2853 3084 3261 2657 
Q 3669 2231 3669 1497 
Q 3669 778 3244 343 
Q 2819 -91 2113 -91 
Q 1303 -91 875 529 
Q 447 1150 447 2328 
Q 447 3434 972 4092 
Q 1497 4750 2381 4750 
Q 2619 4750 2861 4703 
Q 3103 4656 3366 4563 
z
" transform="scale(0.015625)"/>
        <path id="DejaVuSans-37" d="M 525 4666 
L 3525 4666 
L 3525 4397 
L 1831 0 
L 1172 0 
L 2766 4134 
L 525 4134 
L 525 4666 
z
" transform="scale(0.015625)"/>
       </defs>
       <use xlink:href="#DejaVuSans-36"/>
       <use xlink:href="#DejaVuSans-37" x="63.623047"/>
      </g>
     </g>
    </g>
    <g id="xtick_4">
     <g id="line2d_4">
      <g>
       <use xlink:href="#md3e908f190" x="181.327042" y="307.584" style="stroke: #000000; stroke-width: 0.8"/>
      </g>
     </g>
     <g id="text_4">
      <!-- 100 -->
      <g transform="translate(171.783292 322.182437) scale(0.1 -0.1)">
       <defs>
        <path id="DejaVuSans-30" d="M 2034 4250 
Q 1547 4250 1301 3770 
Q 1056 3291 1056 2328 
Q 1056 1369 1301 889 
Q 1547 409 2034 409 
Q 2525 409 2770 889 
Q 3016 1369 3016 2328 
Q 3016 3291 2770 3770 
Q 2525 4250 2034 4250 
z
M 2034 4750 
Q 2819 4750 3233 4129 
Q 3647 3509 3647 2328 
Q 3647 1150 3233 529 
Q 2819 -91 2034 -91 
Q 1250 -91 836 529 
Q 422 1150 422 2328 
Q 422 3509 836 4129 
Q 1250 4750 2034 4750 
z
" transform="scale(0.015625)"/>
       </defs>
       <use xlink:href="#DejaVuSans-31"/>
       <use xlink:href="#DejaVuSans-30" x="63.623047"/>
       <use xlink:href="#DejaVuSans-30" x="127.246094"/>
      </g>
     </g>
    </g>
    <g id="xtick_5">
     <g id="line2d_5">
      <g>
       <use xlink:href="#md3e908f190" x="217.15848" y="307.584" style="stroke: #000000; stroke-width: 0.8"/>
      </g>
     </g>
     <g id="text_5">
      <!-- 133 -->
      <g transform="translate(207.61473 322.182437) scale(0.1 -0.1)">
       <use xlink:href="#DejaVuSans-31"/>
       <use xlink:href="#DejaVuSans-33" x="63.623047"/>
       <use xlink:href="#DejaVuSans-33" x="127.246094"/>
      </g>
     </g>
    </g>
    <g id="xtick_6">
     <g id="line2d_6">
      <g>
       <use xlink:href="#md3e908f190" x="254.075719" y="307.584" style="stroke: #000000; stroke-width: 0.8"/>
      </g>
     </g>
     <g id="text_6">
      <!-- 167 -->
      <g transform="translate(244.531969 322.182437) scale(0.1 -0.1)">
       <use xlink:href="#DejaVuSans-31"/>
       <use xlink:href="#DejaVuSans-36" x="63.623047"/>
       <use xlink:href="#DejaVuSans-37" x="127.246094"/>
      </g>
     </g>
    </g>
    <g id="xtick_7">
     <g id="line2d_7">
      <g>
       <use xlink:href="#md3e908f190" x="289.907157" y="307.584" style="stroke: #000000; stroke-width: 0.8"/>
      </g>
     </g>
     <g id="text_7">
      <!-- 200 -->
      <g transform="translate(280.363407 322.182437) scale(0.1 -0.1)">
       <defs>
        <path id="DejaVuSans-32" d="M 1228 531 
L 3431 531 
L 3431 0 
L 469 0 
L 469 531 
Q 828 903 1448 1529 
Q 2069 2156 2228 2338 
Q 2531 2678 2651 2914 
Q 2772 3150 2772 3378 
Q 2772 3750 2511 3984 
Q 2250 4219 1831 4219 
Q 1534 4219 1204 4116 
Q 875 4013 500 3803 
L 500 4441 
Q 881 4594 1212 4672 
Q 1544 4750 1819 4750 
Q 2544 4750 2975 4387 
Q 3406 4025 3406 3419 
Q 3406 3131 3298 2873 
Q 3191 2616 2906 2266 
Q 2828 2175 2409 1742 
Q 1991 1309 1228 531 
z
" transform="scale(0.015625)"/>
       </defs>
       <use xlink:href="#DejaVuSans-32"/>
       <use xlink:href="#DejaVuSans-30" x="63.623047"/>
       <use xlink:href="#DejaVuSans-30" x="127.246094"/>
      </g>
     </g>
    </g>
    <g id="xtick_8">
     <g id="line2d_8">
      <g>
       <use xlink:href="#md3e908f190" x="325.738595" y="307.584" style="stroke: #000000; stroke-width: 0.8"/>
      </g>
     </g>
     <g id="text_8">
      <!-- 233 -->
      <g transform="translate(316.194845 322.182437) scale(0.1 -0.1)">
       <use xlink:href="#DejaVuSans-32"/>
       <use xlink:href="#DejaVuSans-33" x="63.623047"/>
       <use xlink:href="#DejaVuSans-33" x="127.246094"/>
      </g>
     </g>
    </g>
    <g id="xtick_9">
     <g id="line2d_9">
      <g>
       <use xlink:href="#md3e908f190" x="361.570033" y="307.584" style="stroke: #000000; stroke-width: 0.8"/>
      </g>
     </g>
     <g id="text_9">
      <!-- 266 -->
      <g transform="translate(352.026283 322.182437) scale(0.1 -0.1)">
       <use xlink:href="#DejaVuSans-32"/>
       <use xlink:href="#DejaVuSans-36" x="63.623047"/>
       <use xlink:href="#DejaVuSans-36" x="127.246094"/>
      </g>
     </g>
    </g>
    <g id="xtick_10">
     <g id="line2d_10">
      <g>
       <use xlink:href="#md3e908f190" x="398.487273" y="307.584" style="stroke: #000000; stroke-width: 0.8"/>
      </g>
     </g>
     <g id="text_10">
      <!-- 300 -->
      <g transform="translate(388.943523 322.182437) scale(0.1 -0.1)">
       <use xlink:href="#DejaVuSans-33"/>
       <use xlink:href="#DejaVuSans-30" x="63.623047"/>
       <use xlink:href="#DejaVuSans-30" x="127.246094"/>
      </g>
     </g>
    </g>
    <g id="text_11">
     <!-- Epochs -->
     <g transform="translate(218.244375 335.860562) scale(0.1 -0.1)">
      <defs>
       <path id="DejaVuSans-45" d="M 628 4666 
L 3578 4666 
L 3578 4134 
L 1259 4134 
L 1259 2753 
L 3481 2753 
L 3481 2222 
L 1259 2222 
L 1259 531 
L 3634 531 
L 3634 0 
L 628 0 
L 628 4666 
z
" transform="scale(0.015625)"/>
       <path id="DejaVuSans-70" d="M 1159 525 
L 1159 -1331 
L 581 -1331 
L 581 3500 
L 1159 3500 
L 1159 2969 
Q 1341 3281 1617 3432 
Q 1894 3584 2278 3584 
Q 2916 3584 3314 3078 
Q 3713 2572 3713 1747 
Q 3713 922 3314 415 
Q 2916 -91 2278 -91 
Q 1894 -91 1617 61 
Q 1341 213 1159 525 
z
M 3116 1747 
Q 3116 2381 2855 2742 
Q 2594 3103 2138 3103 
Q 1681 3103 1420 2742 
Q 1159 2381 1159 1747 
Q 1159 1113 1420 752 
Q 1681 391 2138 391 
Q 2594 391 2855 752 
Q 3116 1113 3116 1747 
z
" transform="scale(0.015625)"/>
       <path id="DejaVuSans-6f" d="M 1959 3097 
Q 1497 3097 1228 2736 
Q 959 2375 959 1747 
Q 959 1119 1226 758 
Q 1494 397 1959 397 
Q 2419 397 2687 759 
Q 2956 1122 2956 1747 
Q 2956 2369 2687 2733 
Q 2419 3097 1959 3097 
z
M 1959 3584 
Q 2709 3584 3137 3096 
Q 3566 2609 3566 1747 
Q 3566 888 3137 398 
Q 2709 -91 1959 -91 
Q 1206 -91 779 398 
Q 353 888 353 1747 
Q 353 2609 779 3096 
Q 1206 3584 1959 3584 
z
" transform="scale(0.015625)"/>
       <path id="DejaVuSans-63" d="M 3122 3366 
L 3122 2828 
Q 2878 2963 2633 3030 
Q 2388 3097 2138 3097 
Q 1578 3097 1268 2742 
Q 959 2388 959 1747 
Q 959 1106 1268 751 
Q 1578 397 2138 397 
Q 2388 397 2633 464 
Q 2878 531 3122 666 
L 3122 134 
Q 2881 22 2623 -34 
Q 2366 -91 2075 -91 
Q 1284 -91 818 406 
Q 353 903 353 1747 
Q 353 2603 823 3093 
Q 1294 3584 2113 3584 
Q 2378 3584 2631 3529 
Q 2884 3475 3122 3366 
z
" transform="scale(0.015625)"/>
       <path id="DejaVuSans-68" d="M 3513 2113 
L 3513 0 
L 2938 0 
L 2938 2094 
Q 2938 2591 2744 2837 
Q 2550 3084 2163 3084 
Q 1697 3084 1428 2787 
Q 1159 2491 1159 1978 
L 1159 0 
L 581 0 
L 581 4863 
L 1159 4863 
L 1159 2956 
Q 1366 3272 1645 3428 
Q 1925 3584 2291 3584 
Q 2894 3584 3203 3211 
Q 3513 2838 3513 2113 
z
" transform="scale(0.015625)"/>
       <path id="DejaVuSans-73" d="M 2834 3397 
L 2834 2853 
Q 2591 2978 2328 3040 
Q 2066 3103 1784 3103 
Q 1356 3103 1142 2972 
Q 928 2841 928 2578 
Q 928 2378 1081 2264 
Q 1234 2150 1697 2047 
L 1894 2003 
Q 2506 1872 2764 1633 
Q 3022 1394 3022 966 
Q 3022 478 2636 193 
Q 2250 -91 1575 -91 
Q 1294 -91 989 -36 
Q 684 19 347 128 
L 347 722 
Q 666 556 975 473 
Q 1284 391 1588 391 
Q 1994 391 2212 530 
Q 2431 669 2431 922 
Q 2431 1156 2273 1281 
Q 2116 1406 1581 1522 
L 1381 1569 
Q 847 1681 609 1914 
Q 372 2147 372 2553 
Q 372 3047 722 3315 
Q 1072 3584 1716 3584 
Q 2034 3584 2315 3537 
Q 2597 3491 2834 3397 
z
" transform="scale(0.015625)"/>
      </defs>
      <use xlink:href="#DejaVuSans-45"/>
      <use xlink:href="#DejaVuSans-70" x="63.183594"/>
      <use xlink:href="#DejaVuSans-6f" x="126.660156"/>
      <use xlink:href="#DejaVuSans-63" x="187.841797"/>
      <use xlink:href="#DejaVuSans-68" x="242.822266"/>
      <use xlink:href="#DejaVuSans-73" x="306.201172"/>
     </g>
    </g>
   </g>
   <g id="matplotlib.axis_2">
    <g id="ytick_1">
     <g id="line2d_11">
      <defs>
       <path id="m4d4f546a1c" d="M 0 0 
L -3.5 0 
" style="stroke: #000000; stroke-width: 0.8"/>
      </defs>
      <g>
       <use xlink:href="#m4d4f546a1c" x="57.6" y="285.004749" style="stroke: #000000; stroke-width: 0.8"/>
      </g>
     </g>
     <g id="text_12">
      <!-- 10 -->
      <g transform="translate(37.875 288.803968) scale(0.1 -0.1)">
       <use xlink:href="#DejaVuSans-31"/>
       <use xlink:href="#DejaVuSans-30" x="63.623047"/>
      </g>
     </g>
    </g>
    <g id="ytick_2">
     <g id="line2d_12">
      <g>
       <use xlink:href="#m4d4f546a1c" x="57.6" y="254.329544" style="stroke: #000000; stroke-width: 0.8"/>
      </g>
     </g>
     <g id="text_13">
      <!-- 20 -->
      <g transform="translate(37.875 258.128763) scale(0.1 -0.1)">
       <use xlink:href="#DejaVuSans-32"/>
       <use xlink:href="#DejaVuSans-30" x="63.623047"/>
      </g>
     </g>
    </g>
    <g id="ytick_3">
     <g id="line2d_13">
      <g>
       <use xlink:href="#m4d4f546a1c" x="57.6" y="223.65434" style="stroke: #000000; stroke-width: 0.8"/>
      </g>
     </g>
     <g id="text_14">
      <!-- 30 -->
      <g transform="translate(37.875 227.453559) scale(0.1 -0.1)">
       <use xlink:href="#DejaVuSans-33"/>
       <use xlink:href="#DejaVuSans-30" x="63.623047"/>
      </g>
     </g>
    </g>
    <g id="ytick_4">
     <g id="line2d_14">
      <g>
       <use xlink:href="#m4d4f546a1c" x="57.6" y="192.979135" style="stroke: #000000; stroke-width: 0.8"/>
      </g>
     </g>
     <g id="text_15">
      <!-- 40 -->
      <g transform="translate(37.875 196.778354) scale(0.1 -0.1)">
       <use xlink:href="#DejaVuSans-34"/>
       <use xlink:href="#DejaVuSans-30" x="63.623047"/>
      </g>
     </g>
    </g>
    <g id="ytick_5">
     <g id="line2d_15">
      <g>
       <use xlink:href="#m4d4f546a1c" x="57.6" y="162.303931" style="stroke: #000000; stroke-width: 0.8"/>
      </g>
     </g>
     <g id="text_16">
      <!-- 50 -->
      <g transform="translate(37.875 166.10315) scale(0.1 -0.1)">
       <defs>
        <path id="DejaVuSans-35" d="M 691 4666 
L 3169 4666 
L 3169 4134 
L 1269 4134 
L 1269 2991 
Q 1406 3038 1543 3061 
Q 1681 3084 1819 3084 
Q 2600 3084 3056 2656 
Q 3513 2228 3513 1497 
Q 3513 744 3044 326 
Q 2575 -91 1722 -91 
Q 1428 -91 1123 -41 
Q 819 9 494 109 
L 494 744 
Q 775 591 1075 516 
Q 1375 441 1709 441 
Q 2250 441 2565 725 
Q 2881 1009 2881 1497 
Q 2881 1984 2565 2268 
Q 2250 2553 1709 2553 
Q 1456 2553 1204 2497 
Q 953 2441 691 2322 
L 691 4666 
z
" transform="scale(0.015625)"/>
       </defs>
       <use xlink:href="#DejaVuSans-35"/>
       <use xlink:href="#DejaVuSans-30" x="63.623047"/>
      </g>
     </g>
    </g>
    <g id="ytick_6">
     <g id="line2d_16">
      <g>
       <use xlink:href="#m4d4f546a1c" x="57.6" y="131.628727" style="stroke: #000000; stroke-width: 0.8"/>
      </g>
     </g>
     <g id="text_17">
      <!-- 60 -->
      <g transform="translate(37.875 135.427945) scale(0.1 -0.1)">
       <use xlink:href="#DejaVuSans-36"/>
       <use xlink:href="#DejaVuSans-30" x="63.623047"/>
      </g>
     </g>
    </g>
    <g id="ytick_7">
     <g id="line2d_17">
      <g>
       <use xlink:href="#m4d4f546a1c" x="57.6" y="100.953522" style="stroke: #000000; stroke-width: 0.8"/>
      </g>
     </g>
     <g id="text_18">
      <!-- 70 -->
      <g transform="translate(37.875 104.752741) scale(0.1 -0.1)">
       <use xlink:href="#DejaVuSans-37"/>
       <use xlink:href="#DejaVuSans-30" x="63.623047"/>
      </g>
     </g>
    </g>
    <g id="ytick_8">
     <g id="line2d_18">
      <g>
       <use xlink:href="#m4d4f546a1c" x="57.6" y="70.278318" style="stroke: #000000; stroke-width: 0.8"/>
      </g>
     </g>
     <g id="text_19">
      <!-- 80 -->
      <g transform="translate(37.875 74.077536) scale(0.1 -0.1)">
       <defs>
        <path id="DejaVuSans-38" d="M 2034 2216 
Q 1584 2216 1326 1975 
Q 1069 1734 1069 1313 
Q 1069 891 1326 650 
Q 1584 409 2034 409 
Q 2484 409 2743 651 
Q 3003 894 3003 1313 
Q 3003 1734 2745 1975 
Q 2488 2216 2034 2216 
z
M 1403 2484 
Q 997 2584 770 2862 
Q 544 3141 544 3541 
Q 544 4100 942 4425 
Q 1341 4750 2034 4750 
Q 2731 4750 3128 4425 
Q 3525 4100 3525 3541 
Q 3525 3141 3298 2862 
Q 3072 2584 2669 2484 
Q 3125 2378 3379 2068 
Q 3634 1759 3634 1313 
Q 3634 634 3220 271 
Q 2806 -91 2034 -91 
Q 1263 -91 848 271 
Q 434 634 434 1313 
Q 434 1759 690 2068 
Q 947 2378 1403 2484 
z
M 1172 3481 
Q 1172 3119 1398 2916 
Q 1625 2713 2034 2713 
Q 2441 2713 2670 2916 
Q 2900 3119 2900 3481 
Q 2900 3844 2670 4047 
Q 2441 4250 2034 4250 
Q 1625 4250 1398 4047 
Q 1172 3844 1172 3481 
z
" transform="scale(0.015625)"/>
       </defs>
       <use xlink:href="#DejaVuSans-38"/>
       <use xlink:href="#DejaVuSans-30" x="63.623047"/>
      </g>
     </g>
    </g>
    <g id="text_20">
     <!-- Accuracy -->
     <g transform="translate(31.795312 197.356125) rotate(-90) scale(0.1 -0.1)">
      <defs>
       <path id="DejaVuSans-41" d="M 2188 4044 
L 1331 1722 
L 3047 1722 
L 2188 4044 
z
M 1831 4666 
L 2547 4666 
L 4325 0 
L 3669 0 
L 3244 1197 
L 1141 1197 
L 716 0 
L 50 0 
L 1831 4666 
z
" transform="scale(0.015625)"/>
       <path id="DejaVuSans-75" d="M 544 1381 
L 544 3500 
L 1119 3500 
L 1119 1403 
Q 1119 906 1312 657 
Q 1506 409 1894 409 
Q 2359 409 2629 706 
Q 2900 1003 2900 1516 
L 2900 3500 
L 3475 3500 
L 3475 0 
L 2900 0 
L 2900 538 
Q 2691 219 2414 64 
Q 2138 -91 1772 -91 
Q 1169 -91 856 284 
Q 544 659 544 1381 
z
M 1991 3584 
L 1991 3584 
z
" transform="scale(0.015625)"/>
       <path id="DejaVuSans-72" d="M 2631 2963 
Q 2534 3019 2420 3045 
Q 2306 3072 2169 3072 
Q 1681 3072 1420 2755 
Q 1159 2438 1159 1844 
L 1159 0 
L 581 0 
L 581 3500 
L 1159 3500 
L 1159 2956 
Q 1341 3275 1631 3429 
Q 1922 3584 2338 3584 
Q 2397 3584 2469 3576 
Q 2541 3569 2628 3553 
L 2631 2963 
z
" transform="scale(0.015625)"/>
       <path id="DejaVuSans-61" d="M 2194 1759 
Q 1497 1759 1228 1600 
Q 959 1441 959 1056 
Q 959 750 1161 570 
Q 1363 391 1709 391 
Q 2188 391 2477 730 
Q 2766 1069 2766 1631 
L 2766 1759 
L 2194 1759 
z
M 3341 1997 
L 3341 0 
L 2766 0 
L 2766 531 
Q 2569 213 2275 61 
Q 1981 -91 1556 -91 
Q 1019 -91 701 211 
Q 384 513 384 1019 
Q 384 1609 779 1909 
Q 1175 2209 1959 2209 
L 2766 2209 
L 2766 2266 
Q 2766 2663 2505 2880 
Q 2244 3097 1772 3097 
Q 1472 3097 1187 3025 
Q 903 2953 641 2809 
L 641 3341 
Q 956 3463 1253 3523 
Q 1550 3584 1831 3584 
Q 2591 3584 2966 3190 
Q 3341 2797 3341 1997 
z
" transform="scale(0.015625)"/>
       <path id="DejaVuSans-79" d="M 2059 -325 
Q 1816 -950 1584 -1140 
Q 1353 -1331 966 -1331 
L 506 -1331 
L 506 -850 
L 844 -850 
Q 1081 -850 1212 -737 
Q 1344 -625 1503 -206 
L 1606 56 
L 191 3500 
L 800 3500 
L 1894 763 
L 2988 3500 
L 3597 3500 
L 2059 -325 
z
" transform="scale(0.015625)"/>
      </defs>
      <use xlink:href="#DejaVuSans-41"/>
      <use xlink:href="#DejaVuSans-63" x="66.658203"/>
      <use xlink:href="#DejaVuSans-63" x="121.638672"/>
      <use xlink:href="#DejaVuSans-75" x="176.619141"/>
      <use xlink:href="#DejaVuSans-72" x="239.998047"/>
      <use xlink:href="#DejaVuSans-61" x="281.111328"/>
      <use xlink:href="#DejaVuSans-63" x="342.390625"/>
      <use xlink:href="#DejaVuSans-79" x="397.371094"/>
     </g>
    </g>
   </g>
   <g id="line2d_19">
    <path d="M 73.832727 295.488 
L 74.918528 273.593573 
L 77.090131 223.117524 
L 78.175932 205.034491 
L 79.261733 190.180023 
L 80.347534 177.334781 
L 81.433335 166.360727 
L 84.690739 146.337487 
L 85.77654 141.628843 
L 86.862341 137.74843 
L 87.948142 131.912472 
L 89.033943 128.093409 
L 90.119745 125.455342 
L 91.205546 123.223721 
L 93.377148 118.10863 
L 94.462949 117.334081 
L 95.54875 144.65802 
L 96.634552 144.08286 
L 97.720353 140.976995 
L 98.806154 138.852737 
L 99.891955 133.292856 
L 102.063557 128.760595 
L 103.149358 127.717638 
L 104.23516 124.097964 
L 105.320961 122.732917 
L 106.406762 119.45067 
L 107.492563 117.525801 
L 108.578364 115.992041 
L 109.664165 114.949084 
L 110.749967 112.157641 
L 111.835768 111.421436 
L 112.921569 109.718962 
L 114.00737 106.1453 
L 116.178972 103.254162 
L 117.264773 101.559357 
L 118.350575 102.303231 
L 119.436376 97.96269 
L 120.522177 96.766357 
L 121.607978 95.324622 
L 122.693779 94.166633 
L 124.865382 90.654322 
L 125.951183 89.381301 
L 127.036984 87.525451 
L 128.122785 85.224811 
L 129.208586 84.864377 
L 130.294387 86.214086 
L 131.380189 85.23248 
L 132.46599 85.048429 
L 133.551791 83.599025 
L 134.637592 83.031534 
L 135.723393 81.490105 
L 137.894995 81.881214 
L 138.980797 105.1867 
L 140.066598 109.350859 
L 141.152399 109.266503 
L 142.2382 108.093176 
L 143.324001 109.964363 
L 144.409802 109.542579 
L 145.495604 105.554803 
L 146.581405 105.723516 
L 147.667206 104.918292 
L 148.753007 103.001092 
L 149.838808 101.873778 
L 150.924609 103.698953 
L 152.01041 101.751077 
L 153.096212 101.137573 
L 154.182013 100.079279 
L 155.267814 99.987253 
L 156.353615 99.68817 
L 157.439416 98.683557 
L 158.525217 98.34613 
L 159.611019 98.522512 
L 160.69682 96.152853 
L 161.782621 96.198865 
L 162.868422 95.263272 
L 163.954223 94.879832 
L 165.040024 93.338403 
L 166.125825 93.905894 
L 167.211627 92.425815 
L 168.297428 92.295446 
L 169.383229 90.661991 
L 170.46903 89.64204 
L 171.554831 90.339901 
L 172.640632 89.32762 
L 173.726434 89.504002 
L 174.812235 88.008586 
L 175.898036 85.715614 
L 176.983837 85.094441 
L 178.069638 83.974796 
L 179.155439 84.450262 
L 180.24124 83.69872 
L 181.327042 83.131228 
L 182.412843 81.467098 
L 183.498644 81.84287 
L 184.584445 80.577518 
L 185.670246 81.490105 
L 186.756047 78.76768 
L 187.841849 78.437922 
L 188.92765 77.433309 
L 190.013451 78.200189 
L 191.099252 77.371959 
L 192.185053 75.661816 
L 193.270854 76.052925 
L 194.356656 74.434808 
L 195.442457 74.542171 
L 196.528258 74.258425 
L 197.614059 72.364232 
L 198.69986 74.013024 
L 199.785661 70.531388 
L 200.871462 70.922497 
L 201.957264 70.32433 
L 203.043065 68.959284 
L 204.128866 69.565119 
L 205.214667 70.470038 
L 206.300468 67.64025 
L 207.386269 67.939333 
L 208.472071 67.755282 
L 209.557872 66.727663 
L 210.643673 67.233804 
L 212.815275 65.562005 
L 213.901076 65.025189 
L 214.986877 63.713824 
L 216.072679 65.301266 
L 217.15848 63.989901 
L 218.244281 64.810462 
L 219.330082 63.913213 
L 220.415883 63.192345 
L 221.501684 64.450029 
L 223.673287 63.061976 
L 224.759088 63.982232 
L 225.844889 87.563795 
L 226.93069 91.935012 
L 228.016491 92.862937 
L 229.102292 93.208033 
L 230.188094 92.924287 
L 231.273895 92.793918 
L 232.359696 91.643598 
L 233.445497 93.767855 
L 234.531298 91.735623 
L 235.617099 91.214145 
L 237.788702 92.671217 
L 239.960304 90.585303 
L 241.046105 89.987136 
L 242.131906 90.209532 
L 243.217708 89.887442 
L 244.303509 88.468714 
L 246.475111 87.847541 
L 247.560912 88.614421 
L 249.732514 87.763184 
L 250.818316 89.143568 
L 251.904117 87.640483 
L 252.989918 87.632815 
L 254.075719 85.470213 
L 255.16152 88.054599 
L 256.247321 87.08833 
L 257.333123 85.209473 
L 258.418924 86.551514 
L 259.504725 84.641982 
L 260.590526 84.043816 
L 261.676327 86.551514 
L 262.762128 83.806083 
L 263.847929 84.71867 
L 264.933731 83.24626 
L 266.019532 85.961016 
L 267.105333 83.31528 
L 268.191134 83.215585 
L 269.276935 84.051484 
L 270.362736 82.126615 
L 271.448538 82.065265 
L 272.534339 81.382742 
L 273.62014 82.893495 
L 274.705941 82.049927 
L 275.791742 80.393466 
L 276.877543 81.160346 
L 277.963344 80.002357 
L 279.049146 81.229366 
L 280.134947 80.454817 
L 281.220748 80.255428 
L 282.306549 78.445591 
L 283.39235 79.036089 
L 284.478151 78.921056 
L 285.563953 78.307552 
L 286.649754 78.905719 
L 287.735555 79.074433 
L 288.821356 78.783018 
L 289.907157 77.180239 
L 290.992958 76.451703 
L 292.07876 77.471653 
L 294.250362 75.209357 
L 295.336163 76.02225 
L 296.421964 74.649534 
L 297.507765 74.572846 
L 298.593566 74.680209 
L 300.765169 74.189406 
L 301.85097 74.174069 
L 302.936771 74.480821 
L 304.022572 73.660259 
L 305.108373 74.212413 
L 306.194175 73.621915 
L 308.365777 71.213911 
L 309.451578 70.868815 
L 310.537379 72.832028 
L 311.62318 70.937835 
L 312.708981 71.474651 
L 314.880584 70.308993 
L 315.966385 69.917884 
L 317.052186 69.319717 
L 318.137987 69.756839 
L 319.223788 69.197017 
L 320.30959 69.902546 
L 321.395391 68.752226 
L 322.481192 68.844252 
L 323.566993 68.230748 
L 324.652794 67.954671 
L 325.738595 66.321216 
L 326.824396 66.650975 
L 327.910198 67.164784 
L 328.995999 65.377954 
L 330.0818 66.336554 
L 331.167601 65.822744 
L 332.253402 65.761394 
L 333.339203 64.8258 
L 334.425005 64.281315 
L 335.510806 65.669368 
L 336.596607 64.166283 
L 337.682408 63.35339 
L 338.768209 63.038969 
L 339.85401 64.005238 
L 340.939811 63.529773 
L 342.025613 61.482203 
L 343.111414 62.479147 
L 344.197215 61.152444 
L 345.283016 60.462252 
L 346.368817 61.075756 
L 347.454618 59.940774 
L 348.54042 60.554278 
L 349.626221 60.140163 
L 350.712022 59.373282 
L 351.797823 59.749054 
L 352.883624 58.552721 
L 353.969425 58.744441 
L 355.055227 57.992898 
L 357.226829 57.364057 
L 358.31263 57.632465 
L 360.484232 55.976004 
L 361.570033 56.796565 
L 362.655835 57.402401 
L 363.741636 55.500538 
L 364.827437 54.856359 
L 365.913238 56.029685 
L 366.999039 53.568 
L 368.08484 55.86864 
L 369.170642 56.19073 
L 370.256443 55.883978 
L 371.342244 57.387063 
L 372.428045 57.686146 
L 373.513846 56.76589 
L 375.685448 59.189231 
L 376.77125 58.644746 
L 377.857051 59.058862 
L 378.942852 58.721434 
L 380.028653 58.545052 
L 381.114454 59.557334 
L 382.200255 58.514377 
L 383.286057 59.603346 
L 384.371858 58.123268 
L 385.457659 57.893204 
L 386.54346 58.322657 
L 387.629261 57.502095 
L 389.800863 58.882479 
L 390.886665 58.222962 
L 391.972466 59.334938 
L 393.058267 59.296594 
L 394.144068 58.322657 
L 396.31567 58.476033 
L 397.401472 57.877866 
L 398.487273 59.204569 
L 398.487273 59.204569 
" clip-path="url(#p9705b6f22d)" style="fill: none; stroke: #1f77b4; stroke-width: 1.5; stroke-linecap: square"/>
   </g>
   <g id="line2d_20">
    <path d="M 73.832727 282.397356 
L 74.918528 266.814353 
L 77.090131 214.114351 
L 78.175932 194.604921 
L 79.261733 189.696889 
L 80.347534 174.819414 
L 81.433335 174.052534 
L 82.519137 161.629077 
L 83.604938 153.960275 
L 84.690739 151.076806 
L 85.77654 151.567609 
L 86.862341 145.708645 
L 87.948142 138.162545 
L 89.033943 138.254571 
L 90.119745 134.726922 
L 91.205546 134.481521 
L 92.291347 129.297411 
L 93.377148 129.512137 
L 94.462949 130.340368 
L 95.54875 156.536993 
L 96.634552 163.622965 
L 97.720353 156.93577 
L 98.806154 147.91726 
L 99.891955 143.070578 
L 100.977756 138.990776 
L 102.063557 135.432452 
L 103.149358 130.984547 
L 104.23516 130.923197 
L 105.320961 130.493744 
L 106.406762 129.788214 
L 107.492563 125.309634 
L 108.578364 123.683849 
L 109.664165 123.407772 
L 110.749967 116.199099 
L 111.835768 118.745141 
L 112.921569 116.413825 
L 114.00737 114.941415 
L 115.093171 111.413767 
L 116.178972 111.413767 
L 117.264773 108.806374 
L 118.350575 103.898342 
L 119.436376 103.806316 
L 120.522177 102.395257 
L 121.607978 99.695839 
L 122.693779 98.468831 
L 123.77958 100.217317 
L 124.865382 96.045489 
L 125.951183 95.738737 
L 127.036984 94.266328 
L 128.122785 92.487166 
L 129.208586 91.935012 
L 130.294387 90.86138 
L 131.380189 92.149738 
L 132.46599 89.787748 
L 133.551791 88.959517 
L 134.637592 88.928842 
L 135.723393 89.695722 
L 136.809194 88.652765 
L 137.894995 87.91656 
L 138.980797 112.057946 
L 140.066598 112.241997 
L 141.152399 115.861671 
L 142.2382 113.254279 
L 143.324001 115.186817 
L 144.409802 111.935245 
L 145.495604 115.186817 
L 146.581405 112.211322 
L 147.667206 108.223546 
L 148.753007 109.419879 
L 149.838808 107.579366 
L 150.924609 112.057946 
L 152.01041 109.205152 
L 153.096212 105.554803 
L 154.182013 104.726572 
L 155.267814 103.683615 
L 156.353615 102.855385 
L 157.439416 102.548633 
L 158.525217 103.223487 
L 159.611019 100.738796 
L 160.69682 102.82471 
L 161.782621 99.205035 
L 162.868422 99.87989 
L 163.954223 99.665164 
L 165.040024 97.272498 
L 166.125825 99.082335 
L 168.297428 95.677387 
L 169.383229 96.10684 
L 170.46903 93.652823 
L 171.554831 93.284721 
L 172.640632 92.364465 
L 173.726434 92.824593 
L 174.812235 92.425815 
L 175.898036 89.787748 
L 176.983837 90.615978 
L 178.069638 90.646653 
L 179.155439 88.253987 
L 180.24124 91.168132 
L 181.327042 87.947235 
L 182.412843 87.763184 
L 183.498644 87.732509 
L 184.584445 85.738621 
L 185.670246 85.922672 
L 186.756047 83.161904 
L 187.841849 84.051484 
L 188.92765 82.333673 
L 190.013451 83.744732 
L 191.099252 81.413417 
L 192.185053 82.487049 
L 193.270854 80.309109 
L 194.356656 80.309109 
L 195.442457 79.756956 
L 196.528258 78.161845 
L 197.614059 79.787631 
L 198.69986 76.904162 
L 199.785661 79.020751 
L 200.871462 78.19252 
L 201.957264 77.609691 
L 203.043065 76.65876 
L 204.128866 75.95323 
L 205.214667 75.002299 
L 207.386269 74.296769 
L 208.472071 73.131112 
L 209.557872 73.437864 
L 210.643673 73.253812 
L 211.729474 72.640308 
L 212.815275 72.18018 
L 213.901076 71.382625 
L 214.986877 72.517608 
L 216.072679 70.769121 
L 217.15848 70.769121 
L 218.244281 71.137223 
L 219.330082 71.321275 
L 220.415883 71.137223 
L 221.501684 71.167899 
L 222.587486 70.799796 
L 224.759088 70.278318 
L 225.844889 99.327736 
L 226.93069 100.554744 
L 228.016491 100.58542 
L 230.188094 99.419762 
L 231.273895 99.910565 
L 232.359696 98.039378 
L 233.445497 102.272556 
L 234.531298 98.560856 
L 235.617099 95.493336 
L 236.702901 97.671275 
L 237.788702 96.505617 
L 238.874503 95.769413 
L 239.960304 96.076165 
L 241.046105 95.063883 
L 242.131906 93.254046 
L 243.217708 97.364523 
L 244.303509 99.665164 
L 245.38931 96.352241 
L 246.475111 96.628318 
L 247.560912 95.063883 
L 248.646713 91.444209 
L 249.732514 94.174302 
L 250.818316 94.757131 
L 251.904117 99.235711 
L 252.989918 93.10067 
L 254.075719 90.677329 
L 255.16152 94.481054 
L 256.247321 94.511729 
L 257.333123 87.947235 
L 258.418924 89.419645 
L 259.504725 91.198807 
L 260.590526 87.364407 
L 261.676327 90.217201 
L 262.762128 88.990192 
L 263.847929 89.235594 
L 264.933731 91.321508 
L 266.019532 88.775466 
L 267.105333 89.480996 
L 268.191134 88.806141 
L 269.276935 86.505501 
L 270.362736 87.91656 
L 271.448538 88.652765 
L 272.534339 85.309168 
L 273.62014 85.830646 
L 274.705941 88.775466 
L 275.791742 85.554569 
L 276.877543 89.45032 
L 277.963344 85.585245 
L 279.049146 84.879715 
L 280.134947 86.842928 
L 281.220748 84.603638 
L 282.306549 84.787689 
L 283.39235 85.953347 
L 284.478151 86.597526 
L 285.563953 84.388912 
L 286.649754 85.67727 
L 287.735555 82.149622 
L 288.821356 82.456374 
L 289.907157 82.088271 
L 290.992958 85.339843 
L 292.07876 81.689494 
L 293.164561 84.542288 
L 294.250362 80.983964 
L 295.336163 81.536118 
L 296.421964 80.401135 
L 297.507765 81.014639 
L 298.593566 80.707887 
L 299.679368 81.168015 
L 300.765169 80.523836 
L 301.85097 80.677212 
L 302.936771 81.321391 
L 304.022572 83.959459 
L 305.108373 78.867375 
L 306.194175 82.60975 
L 307.279976 77.42564 
L 308.365777 79.910332 
L 309.451578 80.646537 
L 310.537379 82.793801 
L 312.708981 77.210914 
L 313.794783 74.910274 
L 314.880584 78.376572 
L 317.052186 74.450145 
L 319.223788 78.13117 
L 320.30959 75.493102 
L 321.395391 74.756897 
L 322.481192 76.413359 
L 323.566993 74.879598 
L 324.652794 74.511496 
L 325.738595 72.302881 
L 326.824396 75.06365 
L 327.910198 74.051368 
L 328.995999 73.376513 
L 330.0818 70.677095 
L 331.167601 71.658702 
L 332.253402 72.18018 
L 333.339203 73.253812 
L 334.425005 72.486932 
L 335.510806 71.4133 
L 336.596607 72.394907 
L 337.682408 70.370343 
L 338.768209 70.677095 
L 339.85401 68.836583 
L 340.939811 70.58507 
L 342.025613 69.572788 
L 343.111414 69.726164 
L 344.197215 70.124942 
L 345.283016 69.143335 
L 346.368817 66.81202 
L 347.454618 68.529831 
L 348.54042 67.548224 
L 349.626221 68.652532 
L 350.712022 67.885652 
L 351.797823 69.143335 
L 352.883624 67.333498 
L 353.969425 67.088096 
L 355.055227 67.824301 
L 356.141028 66.413242 
L 357.226829 65.891763 
L 358.31263 65.155558 
L 359.398431 65.769063 
L 360.484232 64.940832 
L 362.655835 65.186234 
L 363.741636 63.805849 
L 364.827437 64.388678 
L 365.913238 64.603405 
L 366.999039 63.959226 
L 368.08484 64.051251 
L 369.170642 65.002182 
L 370.256443 65.769063 
L 371.342244 67.088096 
L 372.428045 69.081985 
L 373.513846 66.81202 
L 374.599647 67.947002 
L 376.77125 67.762951 
L 377.857051 69.450087 
L 378.942852 67.793626 
L 380.028653 68.100378 
L 381.114454 66.965396 
L 382.200255 67.333498 
L 383.286057 68.284429 
L 384.371858 68.621857 
L 385.457659 68.775233 
L 386.54346 67.026746 
L 388.715062 67.149447 
L 389.800863 67.272148 
L 390.886665 67.854976 
L 391.972466 66.259866 
L 393.058267 66.750669 
L 394.144068 68.867258 
L 395.229869 68.192404 
L 396.31567 66.689319 
L 397.401472 68.161729 
L 398.487273 68.039028 
L 398.487273 68.039028 
" clip-path="url(#p9705b6f22d)" style="fill: none; stroke: #ff7f0e; stroke-width: 1.5; stroke-linecap: square"/>
   </g>
   <g id="line2d_21">
    <path d="M 73.832727 289.658918 
L 74.918528 275.484858 
L 76.00433 250.415811 
L 77.090131 231.164476 
L 78.175932 216.778863 
L 79.261733 217.519299 
L 81.433335 202.39325 
L 82.519137 197.950634 
L 83.604938 191.392487 
L 84.690739 188.113413 
L 85.77654 187.267201 
L 86.862341 186.103659 
L 87.948142 180.180171 
L 89.033943 181.026383 
L 90.119745 174.574013 
L 91.205546 174.997119 
L 92.291347 171.612269 
L 93.377148 171.400716 
L 94.462949 173.622024 
L 95.54875 195.30622 
L 96.634552 201.652814 
L 97.720353 196.892868 
L 98.806154 187.690307 
L 99.891955 190.652051 
L 100.977756 184.83434 
L 102.063557 179.757065 
L 103.149358 178.910852 
L 104.23516 179.439735 
L 105.320961 174.785566 
L 106.406762 177.853086 
L 107.492563 168.015866 
L 109.664165 167.910089 
L 111.835768 162.303931 
L 112.921569 166.534994 
L 114.00737 164.102133 
L 115.093171 152.889817 
L 116.178972 159.024857 
L 117.264773 155.85156 
L 118.350575 153.524476 
L 120.522177 152.78404 
L 121.607978 152.678263 
L 122.693779 147.389435 
L 123.77958 149.71652 
L 124.865382 147.072105 
L 125.951183 146.966329 
L 129.208586 143.687255 
L 130.294387 141.571724 
L 131.380189 144.004585 
L 132.46599 140.302405 
L 133.551791 138.504203 
L 134.637592 140.196628 
L 135.723393 140.302405 
L 136.809194 140.196628 
L 137.894995 139.350416 
L 138.980797 164.207909 
L 140.066598 160.082623 
L 141.152399 168.756302 
L 142.2382 163.996356 
L 143.324001 167.592759 
L 144.409802 158.707528 
L 145.495604 160.928836 
L 146.581405 162.621261 
L 147.667206 159.130634 
L 148.753007 159.236411 
L 149.838808 158.390198 
L 150.924609 161.880825 
L 152.01041 159.976847 
L 153.096212 157.438209 
L 154.182013 158.813304 
L 156.353615 150.774285 
L 157.439416 154.370688 
L 158.525217 157.332432 
L 159.611019 149.71652 
L 160.69682 150.562732 
L 162.868422 153.841806 
L 163.954223 156.274667 
L 165.040024 144.110361 
L 166.125825 145.908563 
L 167.211627 145.37968 
L 168.297428 149.928073 
L 169.383229 148.552977 
L 170.46903 148.129871 
L 171.554831 142.523713 
L 172.640632 145.908563 
L 173.726434 143.369926 
L 174.812235 146.437446 
L 175.898036 140.513958 
L 176.983837 141.148618 
L 178.069638 139.667746 
L 179.155439 138.715757 
L 180.24124 142.841043 
L 181.327042 139.456193 
L 183.498644 140.408182 
L 184.584445 139.244639 
L 185.670246 135.859789 
L 186.756047 136.917555 
L 187.841849 135.965566 
L 188.92765 133.426928 
L 190.013451 136.071342 
L 191.099252 132.898045 
L 192.185053 132.051833 
L 193.270854 132.369163 
L 194.356656 131.417173 
L 195.442457 130.994067 
L 196.528258 130.782514 
L 197.614059 131.20562 
L 198.69986 126.022569 
L 200.871462 130.888291 
L 201.957264 130.782514 
L 204.128866 124.75325 
L 205.214667 125.599462 
L 206.300468 125.176356 
L 207.386269 122.849271 
L 208.472071 119.993304 
L 209.557872 123.589707 
L 211.729474 124.11859 
L 212.815275 122.214612 
L 213.901076 123.272378 
L 214.986877 121.474176 
L 216.072679 121.156846 
L 217.15848 121.262623 
L 218.244281 119.993304 
L 219.330082 122.003059 
L 220.415883 119.252868 
L 221.501684 120.099081 
L 222.587486 120.099081 
L 223.673287 119.464421 
L 224.759088 119.675974 
L 225.844889 151.303168 
L 226.93069 149.39919 
L 228.016491 155.85156 
L 229.102292 149.610743 
L 231.273895 150.774285 
L 232.359696 152.043604 
L 233.445497 152.572487 
L 234.531298 150.774285 
L 235.617099 144.110361 
L 236.702901 145.69701 
L 237.788702 144.956574 
L 238.874503 147.283658 
L 239.960304 148.976084 
L 241.046105 147.389435 
L 242.131906 149.293413 
L 243.217708 146.120116 
L 244.303509 149.71652 
L 245.38931 143.158372 
L 246.475111 147.389435 
L 247.560912 141.99483 
L 248.646713 143.793032 
L 249.732514 146.437446 
L 250.818316 147.389435 
L 251.904117 156.697773 
L 252.989918 144.004585 
L 254.075719 141.783277 
L 255.16152 141.148618 
L 256.247321 143.793032 
L 257.333123 136.388672 
L 258.418924 140.408182 
L 259.504725 142.206383 
L 260.590526 136.177119 
L 261.676327 143.687255 
L 262.762128 139.138863 
L 263.847929 141.99483 
L 264.933731 143.052596 
L 266.019532 138.821533 
L 267.105333 142.100607 
L 268.191134 144.110361 
L 269.276935 141.254394 
L 270.362736 134.696247 
L 271.448538 138.504203 
L 272.534339 136.600225 
L 274.705941 143.052596 
L 275.791742 137.129108 
L 276.877543 138.186874 
L 277.963344 136.494449 
L 279.049146 134.484694 
L 280.134947 138.29265 
L 281.220748 135.22513 
L 282.306549 137.023331 
L 283.39235 139.244639 
L 284.478151 133.955811 
L 285.563953 135.22513 
L 286.649754 135.436683 
L 287.735555 137.869544 
L 288.821356 134.802024 
L 289.907157 133.321152 
L 290.992958 137.234885 
L 292.07876 134.484694 
L 293.164561 135.119353 
L 294.250362 137.023331 
L 296.421964 130.465184 
L 297.507765 133.850034 
L 298.593566 132.051833 
L 299.679368 134.484694 
L 300.765169 127.714994 
L 301.85097 133.850034 
L 302.936771 132.369163 
L 304.022572 134.273141 
L 305.108373 128.349653 
L 306.194175 129.936301 
L 307.279976 130.042078 
L 308.365777 128.772759 
L 309.451578 129.407419 
L 310.537379 131.099844 
L 311.62318 129.090089 
L 312.708981 128.032323 
L 313.794783 126.551451 
L 314.880584 127.50344 
L 315.966385 128.878536 
L 317.052186 123.272378 
L 318.137987 124.224367 
L 319.223788 126.445675 
L 320.30959 124.859026 
L 321.395391 123.589707 
L 322.481192 123.907037 
L 323.566993 123.907037 
L 324.652794 121.262623 
L 325.738595 121.262623 
L 326.824396 122.320389 
L 327.910198 120.099081 
L 328.995999 122.743495 
L 330.0818 118.829762 
L 331.167601 119.993304 
L 332.253402 117.983549 
L 333.339203 125.282133 
L 334.425005 120.204857 
L 335.510806 120.73374 
L 336.596607 117.983549 
L 337.682408 121.791506 
L 338.768209 122.108836 
L 339.85401 116.396901 
L 340.939811 119.252868 
L 342.025613 116.079571 
L 343.111414 120.522187 
L 344.197215 113.012051 
L 345.283016 119.464421 
L 346.368817 116.925784 
L 347.454618 114.916029 
L 348.54042 114.916029 
L 349.626221 117.66622 
L 350.712022 112.165838 
L 351.797823 115.444912 
L 352.883624 114.598699 
L 353.969425 113.223604 
L 355.055227 113.858263 
L 356.141028 112.588944 
L 357.226829 114.492923 
L 358.31263 108.357882 
L 359.398431 111.742732 
L 360.484232 110.156083 
L 361.570033 108.146329 
L 362.655835 109.94453 
L 363.741636 109.309871 
L 364.827437 110.26186 
L 365.913238 109.838754 
L 366.999039 107.934776 
L 368.08484 110.156083 
L 369.170642 111.425402 
L 370.256443 111.108073 
L 371.342244 115.868018 
L 372.428045 115.656465 
L 373.513846 114.069816 
L 374.599647 112.165838 
L 375.685448 118.512432 
L 376.77125 114.810252 
L 377.857051 112.377391 
L 378.942852 117.137337 
L 380.028653 114.598699 
L 381.114454 110.684966 
L 382.200255 115.868018 
L 383.286057 118.300879 
L 384.371858 115.762241 
L 385.457659 113.858263 
L 386.54346 112.694721 
L 387.629261 115.233359 
L 388.715062 115.021806 
L 389.800863 115.868018 
L 390.886665 119.781751 
L 391.972466 110.684966 
L 393.058267 119.252868 
L 395.229869 113.223604 
L 396.31567 115.444912 
L 397.401472 112.906274 
L 398.487273 113.540934 
L 398.487273 113.540934 
" clip-path="url(#p9705b6f22d)" style="fill: none; stroke: #2ca02c; stroke-width: 1.5; stroke-linecap: square"/>
   </g>
   <g id="line2d_22">
    <path d="M 368.08484 64.57273 
L 369.170642 63.92855 
L 370.256443 64.081926 
L 372.428045 65.33961 
L 373.513846 66.10649 
L 374.599647 65.124883 
L 375.685448 66.535943 
L 376.77125 65.615687 
L 377.857051 66.965396 
L 378.942852 67.241472 
L 380.028653 70.124942 
L 381.114454 67.241472 
L 382.200255 65.738387 
L 383.286057 68.253754 
L 384.371858 68.959284 
L 385.457659 65.891763 
L 386.54346 67.486874 
L 387.629261 68.192404 
L 390.886665 66.413242 
L 393.058267 71.075873 
L 394.144068 68.192404 
L 395.229869 66.781344 
L 396.31567 68.652532 
L 397.401472 69.81819 
L 398.487273 72.793684 
L 398.487273 72.793684 
" clip-path="url(#p9705b6f22d)" style="fill: none; stroke: #d62728; stroke-width: 1.5; stroke-linecap: square"/>
   </g>
   <g id="line2d_23">
    <path d="M 368.08484 108.675211 
L 369.170642 107.723222 
L 371.342244 108.569435 
L 372.428045 112.060062 
L 373.513846 110.367637 
L 374.599647 112.588944 
L 375.685448 112.588944 
L 376.77125 111.531179 
L 377.857051 115.550688 
L 378.942852 112.271615 
L 380.028653 117.137337 
L 382.200255 110.57919 
L 383.286057 112.271615 
L 384.371858 117.137337 
L 385.457659 111.108073 
L 386.54346 115.762241 
L 387.629261 115.762241 
L 388.715062 114.28137 
L 389.800863 116.396901 
L 390.886665 114.387146 
L 391.972466 117.137337 
L 393.058267 117.243113 
L 394.144068 113.96404 
L 395.229869 111.636955 
L 396.31567 112.800498 
L 397.401472 114.175593 
L 398.487273 119.358645 
L 398.487273 119.358645 
" clip-path="url(#p9705b6f22d)" style="fill: none; stroke: #9467bd; stroke-width: 1.5; stroke-linecap: square"/>
   </g>
   <g id="patch_3">
    <path d="M 57.6 307.584 
L 57.6 41.472 
" style="fill: none; stroke: #000000; stroke-width: 0.8; stroke-linejoin: miter; stroke-linecap: square"/>
   </g>
   <g id="patch_4">
    <path d="M 414.72 307.584 
L 414.72 41.472 
" style="fill: none; stroke: #000000; stroke-width: 0.8; stroke-linejoin: miter; stroke-linecap: square"/>
   </g>
   <g id="patch_5">
    <path d="M 57.6 307.584 
L 414.72 307.584 
" style="fill: none; stroke: #000000; stroke-width: 0.8; stroke-linejoin: miter; stroke-linecap: square"/>
   </g>
   <g id="patch_6">
    <path d="M 57.6 41.472 
L 414.72 41.472 
" style="fill: none; stroke: #000000; stroke-width: 0.8; stroke-linejoin: miter; stroke-linecap: square"/>
   </g>
   <g id="text_21">
    <!-- Learning Curves -->
    <g transform="translate(187.37625 35.472) scale(0.12 -0.12)">
     <defs>
      <path id="DejaVuSans-4c" d="M 628 4666 
L 1259 4666 
L 1259 531 
L 3531 531 
L 3531 0 
L 628 0 
L 628 4666 
z
" transform="scale(0.015625)"/>
      <path id="DejaVuSans-65" d="M 3597 1894 
L 3597 1613 
L 953 1613 
Q 991 1019 1311 708 
Q 1631 397 2203 397 
Q 2534 397 2845 478 
Q 3156 559 3463 722 
L 3463 178 
Q 3153 47 2828 -22 
Q 2503 -91 2169 -91 
Q 1331 -91 842 396 
Q 353 884 353 1716 
Q 353 2575 817 3079 
Q 1281 3584 2069 3584 
Q 2775 3584 3186 3129 
Q 3597 2675 3597 1894 
z
M 3022 2063 
Q 3016 2534 2758 2815 
Q 2500 3097 2075 3097 
Q 1594 3097 1305 2825 
Q 1016 2553 972 2059 
L 3022 2063 
z
" transform="scale(0.015625)"/>
      <path id="DejaVuSans-6e" d="M 3513 2113 
L 3513 0 
L 2938 0 
L 2938 2094 
Q 2938 2591 2744 2837 
Q 2550 3084 2163 3084 
Q 1697 3084 1428 2787 
Q 1159 2491 1159 1978 
L 1159 0 
L 581 0 
L 581 3500 
L 1159 3500 
L 1159 2956 
Q 1366 3272 1645 3428 
Q 1925 3584 2291 3584 
Q 2894 3584 3203 3211 
Q 3513 2838 3513 2113 
z
" transform="scale(0.015625)"/>
      <path id="DejaVuSans-69" d="M 603 3500 
L 1178 3500 
L 1178 0 
L 603 0 
L 603 3500 
z
M 603 4863 
L 1178 4863 
L 1178 4134 
L 603 4134 
L 603 4863 
z
" transform="scale(0.015625)"/>
      <path id="DejaVuSans-67" d="M 2906 1791 
Q 2906 2416 2648 2759 
Q 2391 3103 1925 3103 
Q 1463 3103 1205 2759 
Q 947 2416 947 1791 
Q 947 1169 1205 825 
Q 1463 481 1925 481 
Q 2391 481 2648 825 
Q 2906 1169 2906 1791 
z
M 3481 434 
Q 3481 -459 3084 -895 
Q 2688 -1331 1869 -1331 
Q 1566 -1331 1297 -1286 
Q 1028 -1241 775 -1147 
L 775 -588 
Q 1028 -725 1275 -790 
Q 1522 -856 1778 -856 
Q 2344 -856 2625 -561 
Q 2906 -266 2906 331 
L 2906 616 
Q 2728 306 2450 153 
Q 2172 0 1784 0 
Q 1141 0 747 490 
Q 353 981 353 1791 
Q 353 2603 747 3093 
Q 1141 3584 1784 3584 
Q 2172 3584 2450 3431 
Q 2728 3278 2906 2969 
L 2906 3500 
L 3481 3500 
L 3481 434 
z
" transform="scale(0.015625)"/>
      <path id="DejaVuSans-20" transform="scale(0.015625)"/>
      <path id="DejaVuSans-43" d="M 4122 4306 
L 4122 3641 
Q 3803 3938 3442 4084 
Q 3081 4231 2675 4231 
Q 1875 4231 1450 3742 
Q 1025 3253 1025 2328 
Q 1025 1406 1450 917 
Q 1875 428 2675 428 
Q 3081 428 3442 575 
Q 3803 722 4122 1019 
L 4122 359 
Q 3791 134 3420 21 
Q 3050 -91 2638 -91 
Q 1578 -91 968 557 
Q 359 1206 359 2328 
Q 359 3453 968 4101 
Q 1578 4750 2638 4750 
Q 3056 4750 3426 4639 
Q 3797 4528 4122 4306 
z
" transform="scale(0.015625)"/>
      <path id="DejaVuSans-76" d="M 191 3500 
L 800 3500 
L 1894 563 
L 2988 3500 
L 3597 3500 
L 2284 0 
L 1503 0 
L 191 3500 
z
" transform="scale(0.015625)"/>
     </defs>
     <use xlink:href="#DejaVuSans-4c"/>
     <use xlink:href="#DejaVuSans-65" x="53.962891"/>
     <use xlink:href="#DejaVuSans-61" x="115.486328"/>
     <use xlink:href="#DejaVuSans-72" x="176.765625"/>
     <use xlink:href="#DejaVuSans-6e" x="216.128906"/>
     <use xlink:href="#DejaVuSans-69" x="279.507812"/>
     <use xlink:href="#DejaVuSans-6e" x="307.291016"/>
     <use xlink:href="#DejaVuSans-67" x="370.669922"/>
     <use xlink:href="#DejaVuSans-20" x="434.146484"/>
     <use xlink:href="#DejaVuSans-43" x="465.933594"/>
     <use xlink:href="#DejaVuSans-75" x="535.757812"/>
     <use xlink:href="#DejaVuSans-72" x="599.136719"/>
     <use xlink:href="#DejaVuSans-76" x="640.25"/>
     <use xlink:href="#DejaVuSans-65" x="699.429688"/>
     <use xlink:href="#DejaVuSans-73" x="760.953125"/>
    </g>
   </g>
   <g id="legend_1">
    <g id="patch_7">
     <path d="M 214.18875 302.584 
L 407.72 302.584 
Q 409.72 302.584 409.72 300.584 
L 409.72 228.193375 
Q 409.72 226.193375 407.72 226.193375 
L 214.18875 226.193375 
Q 212.18875 226.193375 212.18875 228.193375 
L 212.18875 300.584 
Q 212.18875 302.584 214.18875 302.584 
z
" style="fill: #ffffff; opacity: 0.8; stroke: #cccccc; stroke-linejoin: miter"/>
    </g>
    <g id="line2d_24">
     <path d="M 216.18875 234.291812 
L 226.18875 234.291812 
L 236.18875 234.291812 
" style="fill: none; stroke: #1f77b4; stroke-width: 1.5; stroke-linecap: square"/>
    </g>
    <g id="text_22">
     <!-- Train Accuracy -->
     <g transform="translate(244.18875 237.791812) scale(0.1 -0.1)">
      <defs>
       <path id="DejaVuSans-54" d="M -19 4666 
L 3928 4666 
L 3928 4134 
L 2272 4134 
L 2272 0 
L 1638 0 
L 1638 4134 
L -19 4134 
L -19 4666 
z
" transform="scale(0.015625)"/>
      </defs>
      <use xlink:href="#DejaVuSans-54"/>
      <use xlink:href="#DejaVuSans-72" x="46.333984"/>
      <use xlink:href="#DejaVuSans-61" x="87.447266"/>
      <use xlink:href="#DejaVuSans-69" x="148.726562"/>
      <use xlink:href="#DejaVuSans-6e" x="176.509766"/>
      <use xlink:href="#DejaVuSans-20" x="239.888672"/>
      <use xlink:href="#DejaVuSans-41" x="271.675781"/>
      <use xlink:href="#DejaVuSans-63" x="338.333984"/>
      <use xlink:href="#DejaVuSans-63" x="393.314453"/>
      <use xlink:href="#DejaVuSans-75" x="448.294922"/>
      <use xlink:href="#DejaVuSans-72" x="511.673828"/>
      <use xlink:href="#DejaVuSans-61" x="552.787109"/>
      <use xlink:href="#DejaVuSans-63" x="614.066406"/>
      <use xlink:href="#DejaVuSans-79" x="669.046875"/>
     </g>
    </g>
    <g id="line2d_25">
     <path d="M 216.18875 248.969937 
L 226.18875 248.969937 
L 236.18875 248.969937 
" style="fill: none; stroke: #ff7f0e; stroke-width: 1.5; stroke-linecap: square"/>
    </g>
    <g id="text_23">
     <!-- Validation Accuracy -->
     <g transform="translate(244.18875 252.469937) scale(0.1 -0.1)">
      <defs>
       <path id="DejaVuSans-56" d="M 1831 0 
L 50 4666 
L 709 4666 
L 2188 738 
L 3669 4666 
L 4325 4666 
L 2547 0 
L 1831 0 
z
" transform="scale(0.015625)"/>
       <path id="DejaVuSans-6c" d="M 603 4863 
L 1178 4863 
L 1178 0 
L 603 0 
L 603 4863 
z
" transform="scale(0.015625)"/>
       <path id="DejaVuSans-64" d="M 2906 2969 
L 2906 4863 
L 3481 4863 
L 3481 0 
L 2906 0 
L 2906 525 
Q 2725 213 2448 61 
Q 2172 -91 1784 -91 
Q 1150 -91 751 415 
Q 353 922 353 1747 
Q 353 2572 751 3078 
Q 1150 3584 1784 3584 
Q 2172 3584 2448 3432 
Q 2725 3281 2906 2969 
z
M 947 1747 
Q 947 1113 1208 752 
Q 1469 391 1925 391 
Q 2381 391 2643 752 
Q 2906 1113 2906 1747 
Q 2906 2381 2643 2742 
Q 2381 3103 1925 3103 
Q 1469 3103 1208 2742 
Q 947 2381 947 1747 
z
" transform="scale(0.015625)"/>
       <path id="DejaVuSans-74" d="M 1172 4494 
L 1172 3500 
L 2356 3500 
L 2356 3053 
L 1172 3053 
L 1172 1153 
Q 1172 725 1289 603 
Q 1406 481 1766 481 
L 2356 481 
L 2356 0 
L 1766 0 
Q 1100 0 847 248 
Q 594 497 594 1153 
L 594 3053 
L 172 3053 
L 172 3500 
L 594 3500 
L 594 4494 
L 1172 4494 
z
" transform="scale(0.015625)"/>
      </defs>
      <use xlink:href="#DejaVuSans-56"/>
      <use xlink:href="#DejaVuSans-61" x="60.658203"/>
      <use xlink:href="#DejaVuSans-6c" x="121.9375"/>
      <use xlink:href="#DejaVuSans-69" x="149.720703"/>
      <use xlink:href="#DejaVuSans-64" x="177.503906"/>
      <use xlink:href="#DejaVuSans-61" x="240.980469"/>
      <use xlink:href="#DejaVuSans-74" x="302.259766"/>
      <use xlink:href="#DejaVuSans-69" x="341.46875"/>
      <use xlink:href="#DejaVuSans-6f" x="369.251953"/>
      <use xlink:href="#DejaVuSans-6e" x="430.433594"/>
      <use xlink:href="#DejaVuSans-20" x="493.8125"/>
      <use xlink:href="#DejaVuSans-41" x="525.599609"/>
      <use xlink:href="#DejaVuSans-63" x="592.257812"/>
      <use xlink:href="#DejaVuSans-63" x="647.238281"/>
      <use xlink:href="#DejaVuSans-75" x="702.21875"/>
      <use xlink:href="#DejaVuSans-72" x="765.597656"/>
      <use xlink:href="#DejaVuSans-61" x="806.710938"/>
      <use xlink:href="#DejaVuSans-63" x="867.990234"/>
      <use xlink:href="#DejaVuSans-79" x="922.970703"/>
     </g>
    </g>
    <g id="line2d_26">
     <path d="M 216.18875 263.648062 
L 226.18875 263.648062 
L 236.18875 263.648062 
" style="fill: none; stroke: #2ca02c; stroke-width: 1.5; stroke-linecap: square"/>
    </g>
    <g id="text_24">
     <!-- Robust Validation Accuracy -->
     <g transform="translate(244.18875 267.148062) scale(0.1 -0.1)">
      <defs>
       <path id="DejaVuSans-52" d="M 2841 2188 
Q 3044 2119 3236 1894 
Q 3428 1669 3622 1275 
L 4263 0 
L 3584 0 
L 2988 1197 
Q 2756 1666 2539 1819 
Q 2322 1972 1947 1972 
L 1259 1972 
L 1259 0 
L 628 0 
L 628 4666 
L 2053 4666 
Q 2853 4666 3247 4331 
Q 3641 3997 3641 3322 
Q 3641 2881 3436 2590 
Q 3231 2300 2841 2188 
z
M 1259 4147 
L 1259 2491 
L 2053 2491 
Q 2509 2491 2742 2702 
Q 2975 2913 2975 3322 
Q 2975 3731 2742 3939 
Q 2509 4147 2053 4147 
L 1259 4147 
z
" transform="scale(0.015625)"/>
       <path id="DejaVuSans-62" d="M 3116 1747 
Q 3116 2381 2855 2742 
Q 2594 3103 2138 3103 
Q 1681 3103 1420 2742 
Q 1159 2381 1159 1747 
Q 1159 1113 1420 752 
Q 1681 391 2138 391 
Q 2594 391 2855 752 
Q 3116 1113 3116 1747 
z
M 1159 2969 
Q 1341 3281 1617 3432 
Q 1894 3584 2278 3584 
Q 2916 3584 3314 3078 
Q 3713 2572 3713 1747 
Q 3713 922 3314 415 
Q 2916 -91 2278 -91 
Q 1894 -91 1617 61 
Q 1341 213 1159 525 
L 1159 0 
L 581 0 
L 581 4863 
L 1159 4863 
L 1159 2969 
z
" transform="scale(0.015625)"/>
      </defs>
      <use xlink:href="#DejaVuSans-52"/>
      <use xlink:href="#DejaVuSans-6f" x="64.982422"/>
      <use xlink:href="#DejaVuSans-62" x="126.164062"/>
      <use xlink:href="#DejaVuSans-75" x="189.640625"/>
      <use xlink:href="#DejaVuSans-73" x="253.019531"/>
      <use xlink:href="#DejaVuSans-74" x="305.119141"/>
      <use xlink:href="#DejaVuSans-20" x="344.328125"/>
      <use xlink:href="#DejaVuSans-56" x="376.115234"/>
      <use xlink:href="#DejaVuSans-61" x="436.773438"/>
      <use xlink:href="#DejaVuSans-6c" x="498.052734"/>
      <use xlink:href="#DejaVuSans-69" x="525.835938"/>
      <use xlink:href="#DejaVuSans-64" x="553.619141"/>
      <use xlink:href="#DejaVuSans-61" x="617.095703"/>
      <use xlink:href="#DejaVuSans-74" x="678.375"/>
      <use xlink:href="#DejaVuSans-69" x="717.583984"/>
      <use xlink:href="#DejaVuSans-6f" x="745.367188"/>
      <use xlink:href="#DejaVuSans-6e" x="806.548828"/>
      <use xlink:href="#DejaVuSans-20" x="869.927734"/>
      <use xlink:href="#DejaVuSans-41" x="901.714844"/>
      <use xlink:href="#DejaVuSans-63" x="968.373047"/>
      <use xlink:href="#DejaVuSans-63" x="1023.353516"/>
      <use xlink:href="#DejaVuSans-75" x="1078.333984"/>
      <use xlink:href="#DejaVuSans-72" x="1141.712891"/>
      <use xlink:href="#DejaVuSans-61" x="1182.826172"/>
      <use xlink:href="#DejaVuSans-63" x="1244.105469"/>
      <use xlink:href="#DejaVuSans-79" x="1299.085938"/>
     </g>
    </g>
    <g id="line2d_27">
     <path d="M 216.18875 278.326188 
L 226.18875 278.326188 
L 236.18875 278.326188 
" style="fill: none; stroke: #d62728; stroke-width: 1.5; stroke-linecap: square"/>
    </g>
    <g id="text_25">
     <!-- SWA Validation Accuracy -->
     <g transform="translate(244.18875 281.826188) scale(0.1 -0.1)">
      <defs>
       <path id="DejaVuSans-53" d="M 3425 4513 
L 3425 3897 
Q 3066 4069 2747 4153 
Q 2428 4238 2131 4238 
Q 1616 4238 1336 4038 
Q 1056 3838 1056 3469 
Q 1056 3159 1242 3001 
Q 1428 2844 1947 2747 
L 2328 2669 
Q 3034 2534 3370 2195 
Q 3706 1856 3706 1288 
Q 3706 609 3251 259 
Q 2797 -91 1919 -91 
Q 1588 -91 1214 -16 
Q 841 59 441 206 
L 441 856 
Q 825 641 1194 531 
Q 1563 422 1919 422 
Q 2459 422 2753 634 
Q 3047 847 3047 1241 
Q 3047 1584 2836 1778 
Q 2625 1972 2144 2069 
L 1759 2144 
Q 1053 2284 737 2584 
Q 422 2884 422 3419 
Q 422 4038 858 4394 
Q 1294 4750 2059 4750 
Q 2388 4750 2728 4690 
Q 3069 4631 3425 4513 
z
" transform="scale(0.015625)"/>
       <path id="DejaVuSans-57" d="M 213 4666 
L 850 4666 
L 1831 722 
L 2809 4666 
L 3519 4666 
L 4500 722 
L 5478 4666 
L 6119 4666 
L 4947 0 
L 4153 0 
L 3169 4050 
L 2175 0 
L 1381 0 
L 213 4666 
z
" transform="scale(0.015625)"/>
      </defs>
      <use xlink:href="#DejaVuSans-53"/>
      <use xlink:href="#DejaVuSans-57" x="63.476562"/>
      <use xlink:href="#DejaVuSans-41" x="156.853516"/>
      <use xlink:href="#DejaVuSans-20" x="225.261719"/>
      <use xlink:href="#DejaVuSans-56" x="257.048828"/>
      <use xlink:href="#DejaVuSans-61" x="317.707031"/>
      <use xlink:href="#DejaVuSans-6c" x="378.986328"/>
      <use xlink:href="#DejaVuSans-69" x="406.769531"/>
      <use xlink:href="#DejaVuSans-64" x="434.552734"/>
      <use xlink:href="#DejaVuSans-61" x="498.029297"/>
      <use xlink:href="#DejaVuSans-74" x="559.308594"/>
      <use xlink:href="#DejaVuSans-69" x="598.517578"/>
      <use xlink:href="#DejaVuSans-6f" x="626.300781"/>
      <use xlink:href="#DejaVuSans-6e" x="687.482422"/>
      <use xlink:href="#DejaVuSans-20" x="750.861328"/>
      <use xlink:href="#DejaVuSans-41" x="782.648438"/>
      <use xlink:href="#DejaVuSans-63" x="849.306641"/>
      <use xlink:href="#DejaVuSans-63" x="904.287109"/>
      <use xlink:href="#DejaVuSans-75" x="959.267578"/>
      <use xlink:href="#DejaVuSans-72" x="1022.646484"/>
      <use xlink:href="#DejaVuSans-61" x="1063.759766"/>
      <use xlink:href="#DejaVuSans-63" x="1125.039062"/>
      <use xlink:href="#DejaVuSans-79" x="1180.019531"/>
     </g>
    </g>
    <g id="line2d_28">
     <path d="M 216.18875 293.004312 
L 226.18875 293.004312 
L 236.18875 293.004312 
" style="fill: none; stroke: #9467bd; stroke-width: 1.5; stroke-linecap: square"/>
    </g>
    <g id="text_26">
     <!-- SWA Robust Validation Accuracy -->
     <g transform="translate(244.18875 296.504312) scale(0.1 -0.1)">
      <use xlink:href="#DejaVuSans-53"/>
      <use xlink:href="#DejaVuSans-57" x="63.476562"/>
      <use xlink:href="#DejaVuSans-41" x="156.853516"/>
      <use xlink:href="#DejaVuSans-20" x="225.261719"/>
      <use xlink:href="#DejaVuSans-52" x="257.048828"/>
      <use xlink:href="#DejaVuSans-6f" x="322.03125"/>
      <use xlink:href="#DejaVuSans-62" x="383.212891"/>
      <use xlink:href="#DejaVuSans-75" x="446.689453"/>
      <use xlink:href="#DejaVuSans-73" x="510.068359"/>
      <use xlink:href="#DejaVuSans-74" x="562.167969"/>
      <use xlink:href="#DejaVuSans-20" x="601.376953"/>
      <use xlink:href="#DejaVuSans-56" x="633.164062"/>
      <use xlink:href="#DejaVuSans-61" x="693.822266"/>
      <use xlink:href="#DejaVuSans-6c" x="755.101562"/>
      <use xlink:href="#DejaVuSans-69" x="782.884766"/>
      <use xlink:href="#DejaVuSans-64" x="810.667969"/>
      <use xlink:href="#DejaVuSans-61" x="874.144531"/>
      <use xlink:href="#DejaVuSans-74" x="935.423828"/>
      <use xlink:href="#DejaVuSans-69" x="974.632812"/>
      <use xlink:href="#DejaVuSans-6f" x="1002.416016"/>
      <use xlink:href="#DejaVuSans-6e" x="1063.597656"/>
      <use xlink:href="#DejaVuSans-20" x="1126.976562"/>
      <use xlink:href="#DejaVuSans-41" x="1158.763672"/>
      <use xlink:href="#DejaVuSans-63" x="1225.421875"/>
      <use xlink:href="#DejaVuSans-63" x="1280.402344"/>
      <use xlink:href="#DejaVuSans-75" x="1335.382812"/>
      <use xlink:href="#DejaVuSans-72" x="1398.761719"/>
      <use xlink:href="#DejaVuSans-61" x="1439.875"/>
      <use xlink:href="#DejaVuSans-63" x="1501.154297"/>
      <use xlink:href="#DejaVuSans-79" x="1556.134766"/>
     </g>
    </g>
   </g>
  </g>
 </g>
 <defs>
  <clipPath id="p9705b6f22d">
   <rect x="57.6" y="41.472" width="357.12" height="266.112"/>
  </clipPath>
 </defs>
</svg>
