<?xml version="1.0" encoding="utf-8" standalone="no"?>
<!DOCTYPE svg PUBLIC "-//W3C//DTD SVG 1.1//EN"
  "http://www.w3.org/Graphics/SVG/1.1/DTD/svg11.dtd">
<svg xmlns:xlink="http://www.w3.org/1999/xlink" width="460.8pt" height="345.6pt" viewBox="0 0 460.8 345.6" xmlns="http://www.w3.org/2000/svg" version="1.1">
 <metadata>
  <rdf:RDF xmlns:dc="http://purl.org/dc/elements/1.1/" xmlns:cc="http://creativecommons.org/ns#" xmlns:rdf="http://www.w3.org/1999/02/22-rdf-syntax-ns#">
   <cc:Work>
    <dc:type rdf:resource="http://purl.org/dc/dcmitype/StillImage"/>
    <dc:date>2025-05-06T22:50:52.133518</dc:date>
    <dc:format>image/svg+xml</dc:format>
    <dc:creator>
     <cc:Agent>
      <dc:title>Matplotlib v3.9.1, https://matplotlib.org/</dc:title>
     </cc:Agent>
    </dc:creator>
   </cc:Work>
  </rdf:RDF>
 </metadata>
 <defs>
  <style type="text/css">*{stroke-linejoin: round; stroke-linecap: butt}</style>
 </defs>
 <g id="figure_1">
  <g id="patch_1">
   <path d="M 0 345.6 
L 460.8 345.6 
L 460.8 0 
L 0 0 
z
" style="fill: #ffffff"/>
  </g>
  <g id="axes_1">
   <g id="patch_2">
    <path d="M 57.6 307.584 
L 414.72 307.584 
L 414.72 41.472 
L 57.6 41.472 
z
" style="fill: #ffffff"/>
   </g>
   <g id="matplotlib.axis_1">
    <g id="xtick_1">
     <g id="line2d_1">
      <defs>
       <path id="mb95e350453" d="M 0 0 
L 0 3.5 
" style="stroke: #000000; stroke-width: 0.8"/>
      </defs>
      <g>
       <use xlink:href="#mb95e350453" x="73.832727" y="307.584" style="stroke: #000000; stroke-width: 0.8"/>
      </g>
     </g>
     <g id="text_1">
      <!-- 1 -->
      <g transform="translate(70.651477 322.182437) scale(0.1 -0.1)">
       <defs>
        <path id="DejaVuSans-31" d="M 794 531 
L 1825 531 
L 1825 4091 
L 703 3866 
L 703 4441 
L 1819 4666 
L 2450 4666 
L 2450 531 
L 3481 531 
L 3481 0 
L 794 0 
L 794 531 
z
" transform="scale(0.015625)"/>
       </defs>
       <use xlink:href="#DejaVuSans-31"/>
      </g>
     </g>
    </g>
    <g id="xtick_2">
     <g id="line2d_2">
      <g>
       <use xlink:href="#mb95e350453" x="109.664165" y="307.584" style="stroke: #000000; stroke-width: 0.8"/>
      </g>
     </g>
     <g id="text_2">
      <!-- 34 -->
      <g transform="translate(103.301665 322.182437) scale(0.1 -0.1)">
       <defs>
        <path id="DejaVuSans-33" d="M 2597 2516 
Q 3050 2419 3304 2112 
Q 3559 1806 3559 1356 
Q 3559 666 3084 287 
Q 2609 -91 1734 -91 
Q 1441 -91 1130 -33 
Q 819 25 488 141 
L 488 750 
Q 750 597 1062 519 
Q 1375 441 1716 441 
Q 2309 441 2620 675 
Q 2931 909 2931 1356 
Q 2931 1769 2642 2001 
Q 2353 2234 1838 2234 
L 1294 2234 
L 1294 2753 
L 1863 2753 
Q 2328 2753 2575 2939 
Q 2822 3125 2822 3475 
Q 2822 3834 2567 4026 
Q 2313 4219 1838 4219 
Q 1578 4219 1281 4162 
Q 984 4106 628 3988 
L 628 4550 
Q 988 4650 1302 4700 
Q 1616 4750 1894 4750 
Q 2613 4750 3031 4423 
Q 3450 4097 3450 3541 
Q 3450 3153 3228 2886 
Q 3006 2619 2597 2516 
z
" transform="scale(0.015625)"/>
        <path id="DejaVuSans-34" d="M 2419 4116 
L 825 1625 
L 2419 1625 
L 2419 4116 
z
M 2253 4666 
L 3047 4666 
L 3047 1625 
L 3713 1625 
L 3713 1100 
L 3047 1100 
L 3047 0 
L 2419 0 
L 2419 1100 
L 313 1100 
L 313 1709 
L 2253 4666 
z
" transform="scale(0.015625)"/>
       </defs>
       <use xlink:href="#DejaVuSans-33"/>
       <use xlink:href="#DejaVuSans-34" x="63.623047"/>
      </g>
     </g>
    </g>
    <g id="xtick_3">
     <g id="line2d_3">
      <g>
       <use xlink:href="#mb95e350453" x="145.495604" y="307.584" style="stroke: #000000; stroke-width: 0.8"/>
      </g>
     </g>
     <g id="text_3">
      <!-- 67 -->
      <g transform="translate(139.133104 322.182437) scale(0.1 -0.1)">
       <defs>
        <path id="DejaVuSans-36" d="M 2113 2584 
Q 1688 2584 1439 2293 
Q 1191 2003 1191 1497 
Q 1191 994 1439 701 
Q 1688 409 2113 409 
Q 2538 409 2786 701 
Q 3034 994 3034 1497 
Q 3034 2003 2786 2293 
Q 2538 2584 2113 2584 
z
M 3366 4563 
L 3366 3988 
Q 3128 4100 2886 4159 
Q 2644 4219 2406 4219 
Q 1781 4219 1451 3797 
Q 1122 3375 1075 2522 
Q 1259 2794 1537 2939 
Q 1816 3084 2150 3084 
Q 2853 3084 3261 2657 
Q 3669 2231 3669 1497 
Q 3669 778 3244 343 
Q 2819 -91 2113 -91 
Q 1303 -91 875 529 
Q 447 1150 447 2328 
Q 447 3434 972 4092 
Q 1497 4750 2381 4750 
Q 2619 4750 2861 4703 
Q 3103 4656 3366 4563 
z
" transform="scale(0.015625)"/>
        <path id="DejaVuSans-37" d="M 525 4666 
L 3525 4666 
L 3525 4397 
L 1831 0 
L 1172 0 
L 2766 4134 
L 525 4134 
L 525 4666 
z
" transform="scale(0.015625)"/>
       </defs>
       <use xlink:href="#DejaVuSans-36"/>
       <use xlink:href="#DejaVuSans-37" x="63.623047"/>
      </g>
     </g>
    </g>
    <g id="xtick_4">
     <g id="line2d_4">
      <g>
       <use xlink:href="#mb95e350453" x="181.327042" y="307.584" style="stroke: #000000; stroke-width: 0.8"/>
      </g>
     </g>
     <g id="text_4">
      <!-- 100 -->
      <g transform="translate(171.783292 322.182437) scale(0.1 -0.1)">
       <defs>
        <path id="DejaVuSans-30" d="M 2034 4250 
Q 1547 4250 1301 3770 
Q 1056 3291 1056 2328 
Q 1056 1369 1301 889 
Q 1547 409 2034 409 
Q 2525 409 2770 889 
Q 3016 1369 3016 2328 
Q 3016 3291 2770 3770 
Q 2525 4250 2034 4250 
z
M 2034 4750 
Q 2819 4750 3233 4129 
Q 3647 3509 3647 2328 
Q 3647 1150 3233 529 
Q 2819 -91 2034 -91 
Q 1250 -91 836 529 
Q 422 1150 422 2328 
Q 422 3509 836 4129 
Q 1250 4750 2034 4750 
z
" transform="scale(0.015625)"/>
       </defs>
       <use xlink:href="#DejaVuSans-31"/>
       <use xlink:href="#DejaVuSans-30" x="63.623047"/>
       <use xlink:href="#DejaVuSans-30" x="127.246094"/>
      </g>
     </g>
    </g>
    <g id="xtick_5">
     <g id="line2d_5">
      <g>
       <use xlink:href="#mb95e350453" x="217.15848" y="307.584" style="stroke: #000000; stroke-width: 0.8"/>
      </g>
     </g>
     <g id="text_5">
      <!-- 133 -->
      <g transform="translate(207.61473 322.182437) scale(0.1 -0.1)">
       <use xlink:href="#DejaVuSans-31"/>
       <use xlink:href="#DejaVuSans-33" x="63.623047"/>
       <use xlink:href="#DejaVuSans-33" x="127.246094"/>
      </g>
     </g>
    </g>
    <g id="xtick_6">
     <g id="line2d_6">
      <g>
       <use xlink:href="#mb95e350453" x="254.075719" y="307.584" style="stroke: #000000; stroke-width: 0.8"/>
      </g>
     </g>
     <g id="text_6">
      <!-- 167 -->
      <g transform="translate(244.531969 322.182437) scale(0.1 -0.1)">
       <use xlink:href="#DejaVuSans-31"/>
       <use xlink:href="#DejaVuSans-36" x="63.623047"/>
       <use xlink:href="#DejaVuSans-37" x="127.246094"/>
      </g>
     </g>
    </g>
    <g id="xtick_7">
     <g id="line2d_7">
      <g>
       <use xlink:href="#mb95e350453" x="289.907157" y="307.584" style="stroke: #000000; stroke-width: 0.8"/>
      </g>
     </g>
     <g id="text_7">
      <!-- 200 -->
      <g transform="translate(280.363407 322.182437) scale(0.1 -0.1)">
       <defs>
        <path id="DejaVuSans-32" d="M 1228 531 
L 3431 531 
L 3431 0 
L 469 0 
L 469 531 
Q 828 903 1448 1529 
Q 2069 2156 2228 2338 
Q 2531 2678 2651 2914 
Q 2772 3150 2772 3378 
Q 2772 3750 2511 3984 
Q 2250 4219 1831 4219 
Q 1534 4219 1204 4116 
Q 875 4013 500 3803 
L 500 4441 
Q 881 4594 1212 4672 
Q 1544 4750 1819 4750 
Q 2544 4750 2975 4387 
Q 3406 4025 3406 3419 
Q 3406 3131 3298 2873 
Q 3191 2616 2906 2266 
Q 2828 2175 2409 1742 
Q 1991 1309 1228 531 
z
" transform="scale(0.015625)"/>
       </defs>
       <use xlink:href="#DejaVuSans-32"/>
       <use xlink:href="#DejaVuSans-30" x="63.623047"/>
       <use xlink:href="#DejaVuSans-30" x="127.246094"/>
      </g>
     </g>
    </g>
    <g id="xtick_8">
     <g id="line2d_8">
      <g>
       <use xlink:href="#mb95e350453" x="325.738595" y="307.584" style="stroke: #000000; stroke-width: 0.8"/>
      </g>
     </g>
     <g id="text_8">
      <!-- 233 -->
      <g transform="translate(316.194845 322.182437) scale(0.1 -0.1)">
       <use xlink:href="#DejaVuSans-32"/>
       <use xlink:href="#DejaVuSans-33" x="63.623047"/>
       <use xlink:href="#DejaVuSans-33" x="127.246094"/>
      </g>
     </g>
    </g>
    <g id="xtick_9">
     <g id="line2d_9">
      <g>
       <use xlink:href="#mb95e350453" x="361.570033" y="307.584" style="stroke: #000000; stroke-width: 0.8"/>
      </g>
     </g>
     <g id="text_9">
      <!-- 266 -->
      <g transform="translate(352.026283 322.182437) scale(0.1 -0.1)">
       <use xlink:href="#DejaVuSans-32"/>
       <use xlink:href="#DejaVuSans-36" x="63.623047"/>
       <use xlink:href="#DejaVuSans-36" x="127.246094"/>
      </g>
     </g>
    </g>
    <g id="xtick_10">
     <g id="line2d_10">
      <g>
       <use xlink:href="#mb95e350453" x="398.487273" y="307.584" style="stroke: #000000; stroke-width: 0.8"/>
      </g>
     </g>
     <g id="text_10">
      <!-- 300 -->
      <g transform="translate(388.943523 322.182437) scale(0.1 -0.1)">
       <use xlink:href="#DejaVuSans-33"/>
       <use xlink:href="#DejaVuSans-30" x="63.623047"/>
       <use xlink:href="#DejaVuSans-30" x="127.246094"/>
      </g>
     </g>
    </g>
    <g id="text_11">
     <!-- Epochs -->
     <g transform="translate(218.244375 335.860562) scale(0.1 -0.1)">
      <defs>
       <path id="DejaVuSans-45" d="M 628 4666 
L 3578 4666 
L 3578 4134 
L 1259 4134 
L 1259 2753 
L 3481 2753 
L 3481 2222 
L 1259 2222 
L 1259 531 
L 3634 531 
L 3634 0 
L 628 0 
L 628 4666 
z
" transform="scale(0.015625)"/>
       <path id="DejaVuSans-70" d="M 1159 525 
L 1159 -1331 
L 581 -1331 
L 581 3500 
L 1159 3500 
L 1159 2969 
Q 1341 3281 1617 3432 
Q 1894 3584 2278 3584 
Q 2916 3584 3314 3078 
Q 3713 2572 3713 1747 
Q 3713 922 3314 415 
Q 2916 -91 2278 -91 
Q 1894 -91 1617 61 
Q 1341 213 1159 525 
z
M 3116 1747 
Q 3116 2381 2855 2742 
Q 2594 3103 2138 3103 
Q 1681 3103 1420 2742 
Q 1159 2381 1159 1747 
Q 1159 1113 1420 752 
Q 1681 391 2138 391 
Q 2594 391 2855 752 
Q 3116 1113 3116 1747 
z
" transform="scale(0.015625)"/>
       <path id="DejaVuSans-6f" d="M 1959 3097 
Q 1497 3097 1228 2736 
Q 959 2375 959 1747 
Q 959 1119 1226 758 
Q 1494 397 1959 397 
Q 2419 397 2687 759 
Q 2956 1122 2956 1747 
Q 2956 2369 2687 2733 
Q 2419 3097 1959 3097 
z
M 1959 3584 
Q 2709 3584 3137 3096 
Q 3566 2609 3566 1747 
Q 3566 888 3137 398 
Q 2709 -91 1959 -91 
Q 1206 -91 779 398 
Q 353 888 353 1747 
Q 353 2609 779 3096 
Q 1206 3584 1959 3584 
z
" transform="scale(0.015625)"/>
       <path id="DejaVuSans-63" d="M 3122 3366 
L 3122 2828 
Q 2878 2963 2633 3030 
Q 2388 3097 2138 3097 
Q 1578 3097 1268 2742 
Q 959 2388 959 1747 
Q 959 1106 1268 751 
Q 1578 397 2138 397 
Q 2388 397 2633 464 
Q 2878 531 3122 666 
L 3122 134 
Q 2881 22 2623 -34 
Q 2366 -91 2075 -91 
Q 1284 -91 818 406 
Q 353 903 353 1747 
Q 353 2603 823 3093 
Q 1294 3584 2113 3584 
Q 2378 3584 2631 3529 
Q 2884 3475 3122 3366 
z
" transform="scale(0.015625)"/>
       <path id="DejaVuSans-68" d="M 3513 2113 
L 3513 0 
L 2938 0 
L 2938 2094 
Q 2938 2591 2744 2837 
Q 2550 3084 2163 3084 
Q 1697 3084 1428 2787 
Q 1159 2491 1159 1978 
L 1159 0 
L 581 0 
L 581 4863 
L 1159 4863 
L 1159 2956 
Q 1366 3272 1645 3428 
Q 1925 3584 2291 3584 
Q 2894 3584 3203 3211 
Q 3513 2838 3513 2113 
z
" transform="scale(0.015625)"/>
       <path id="DejaVuSans-73" d="M 2834 3397 
L 2834 2853 
Q 2591 2978 2328 3040 
Q 2066 3103 1784 3103 
Q 1356 3103 1142 2972 
Q 928 2841 928 2578 
Q 928 2378 1081 2264 
Q 1234 2150 1697 2047 
L 1894 2003 
Q 2506 1872 2764 1633 
Q 3022 1394 3022 966 
Q 3022 478 2636 193 
Q 2250 -91 1575 -91 
Q 1294 -91 989 -36 
Q 684 19 347 128 
L 347 722 
Q 666 556 975 473 
Q 1284 391 1588 391 
Q 1994 391 2212 530 
Q 2431 669 2431 922 
Q 2431 1156 2273 1281 
Q 2116 1406 1581 1522 
L 1381 1569 
Q 847 1681 609 1914 
Q 372 2147 372 2553 
Q 372 3047 722 3315 
Q 1072 3584 1716 3584 
Q 2034 3584 2315 3537 
Q 2597 3491 2834 3397 
z
" transform="scale(0.015625)"/>
      </defs>
      <use xlink:href="#DejaVuSans-45"/>
      <use xlink:href="#DejaVuSans-70" x="63.183594"/>
      <use xlink:href="#DejaVuSans-6f" x="126.660156"/>
      <use xlink:href="#DejaVuSans-63" x="187.841797"/>
      <use xlink:href="#DejaVuSans-68" x="242.822266"/>
      <use xlink:href="#DejaVuSans-73" x="306.201172"/>
     </g>
    </g>
   </g>
   <g id="matplotlib.axis_2">
    <g id="ytick_1">
     <g id="line2d_11">
      <defs>
       <path id="mca1ac58553" d="M 0 0 
L -3.5 0 
" style="stroke: #000000; stroke-width: 0.8"/>
      </defs>
      <g>
       <use xlink:href="#mca1ac58553" x="57.6" y="278.929779" style="stroke: #000000; stroke-width: 0.8"/>
      </g>
     </g>
     <g id="text_12">
      <!-- 20 -->
      <g transform="translate(37.875 282.728998) scale(0.1 -0.1)">
       <use xlink:href="#DejaVuSans-32"/>
       <use xlink:href="#DejaVuSans-30" x="63.623047"/>
      </g>
     </g>
    </g>
    <g id="ytick_2">
     <g id="line2d_12">
      <g>
       <use xlink:href="#mca1ac58553" x="57.6" y="222.538477" style="stroke: #000000; stroke-width: 0.8"/>
      </g>
     </g>
     <g id="text_13">
      <!-- 40 -->
      <g transform="translate(37.875 226.337695) scale(0.1 -0.1)">
       <use xlink:href="#DejaVuSans-34"/>
       <use xlink:href="#DejaVuSans-30" x="63.623047"/>
      </g>
     </g>
    </g>
    <g id="ytick_3">
     <g id="line2d_13">
      <g>
       <use xlink:href="#mca1ac58553" x="57.6" y="166.147174" style="stroke: #000000; stroke-width: 0.8"/>
      </g>
     </g>
     <g id="text_14">
      <!-- 60 -->
      <g transform="translate(37.875 169.946393) scale(0.1 -0.1)">
       <use xlink:href="#DejaVuSans-36"/>
       <use xlink:href="#DejaVuSans-30" x="63.623047"/>
      </g>
     </g>
    </g>
    <g id="ytick_4">
     <g id="line2d_14">
      <g>
       <use xlink:href="#mca1ac58553" x="57.6" y="109.755871" style="stroke: #000000; stroke-width: 0.8"/>
      </g>
     </g>
     <g id="text_15">
      <!-- 80 -->
      <g transform="translate(37.875 113.55509) scale(0.1 -0.1)">
       <defs>
        <path id="DejaVuSans-38" d="M 2034 2216 
Q 1584 2216 1326 1975 
Q 1069 1734 1069 1313 
Q 1069 891 1326 650 
Q 1584 409 2034 409 
Q 2484 409 2743 651 
Q 3003 894 3003 1313 
Q 3003 1734 2745 1975 
Q 2488 2216 2034 2216 
z
M 1403 2484 
Q 997 2584 770 2862 
Q 544 3141 544 3541 
Q 544 4100 942 4425 
Q 1341 4750 2034 4750 
Q 2731 4750 3128 4425 
Q 3525 4100 3525 3541 
Q 3525 3141 3298 2862 
Q 3072 2584 2669 2484 
Q 3125 2378 3379 2068 
Q 3634 1759 3634 1313 
Q 3634 634 3220 271 
Q 2806 -91 2034 -91 
Q 1263 -91 848 271 
Q 434 634 434 1313 
Q 434 1759 690 2068 
Q 947 2378 1403 2484 
z
M 1172 3481 
Q 1172 3119 1398 2916 
Q 1625 2713 2034 2713 
Q 2441 2713 2670 2916 
Q 2900 3119 2900 3481 
Q 2900 3844 2670 4047 
Q 2441 4250 2034 4250 
Q 1625 4250 1398 4047 
Q 1172 3844 1172 3481 
z
" transform="scale(0.015625)"/>
       </defs>
       <use xlink:href="#DejaVuSans-38"/>
       <use xlink:href="#DejaVuSans-30" x="63.623047"/>
      </g>
     </g>
    </g>
    <g id="ytick_5">
     <g id="line2d_15">
      <g>
       <use xlink:href="#mca1ac58553" x="57.6" y="53.364568" style="stroke: #000000; stroke-width: 0.8"/>
      </g>
     </g>
     <g id="text_16">
      <!-- 100 -->
      <g transform="translate(31.5125 57.163787) scale(0.1 -0.1)">
       <use xlink:href="#DejaVuSans-31"/>
       <use xlink:href="#DejaVuSans-30" x="63.623047"/>
       <use xlink:href="#DejaVuSans-30" x="127.246094"/>
      </g>
     </g>
    </g>
    <g id="text_17">
     <!-- Accuracy -->
     <g transform="translate(25.432812 197.356125) rotate(-90) scale(0.1 -0.1)">
      <defs>
       <path id="DejaVuSans-41" d="M 2188 4044 
L 1331 1722 
L 3047 1722 
L 2188 4044 
z
M 1831 4666 
L 2547 4666 
L 4325 0 
L 3669 0 
L 3244 1197 
L 1141 1197 
L 716 0 
L 50 0 
L 1831 4666 
z
" transform="scale(0.015625)"/>
       <path id="DejaVuSans-75" d="M 544 1381 
L 544 3500 
L 1119 3500 
L 1119 1403 
Q 1119 906 1312 657 
Q 1506 409 1894 409 
Q 2359 409 2629 706 
Q 2900 1003 2900 1516 
L 2900 3500 
L 3475 3500 
L 3475 0 
L 2900 0 
L 2900 538 
Q 2691 219 2414 64 
Q 2138 -91 1772 -91 
Q 1169 -91 856 284 
Q 544 659 544 1381 
z
M 1991 3584 
L 1991 3584 
z
" transform="scale(0.015625)"/>
       <path id="DejaVuSans-72" d="M 2631 2963 
Q 2534 3019 2420 3045 
Q 2306 3072 2169 3072 
Q 1681 3072 1420 2755 
Q 1159 2438 1159 1844 
L 1159 0 
L 581 0 
L 581 3500 
L 1159 3500 
L 1159 2956 
Q 1341 3275 1631 3429 
Q 1922 3584 2338 3584 
Q 2397 3584 2469 3576 
Q 2541 3569 2628 3553 
L 2631 2963 
z
" transform="scale(0.015625)"/>
       <path id="DejaVuSans-61" d="M 2194 1759 
Q 1497 1759 1228 1600 
Q 959 1441 959 1056 
Q 959 750 1161 570 
Q 1363 391 1709 391 
Q 2188 391 2477 730 
Q 2766 1069 2766 1631 
L 2766 1759 
L 2194 1759 
z
M 3341 1997 
L 3341 0 
L 2766 0 
L 2766 531 
Q 2569 213 2275 61 
Q 1981 -91 1556 -91 
Q 1019 -91 701 211 
Q 384 513 384 1019 
Q 384 1609 779 1909 
Q 1175 2209 1959 2209 
L 2766 2209 
L 2766 2266 
Q 2766 2663 2505 2880 
Q 2244 3097 1772 3097 
Q 1472 3097 1187 3025 
Q 903 2953 641 2809 
L 641 3341 
Q 956 3463 1253 3523 
Q 1550 3584 1831 3584 
Q 2591 3584 2966 3190 
Q 3341 2797 3341 1997 
z
" transform="scale(0.015625)"/>
       <path id="DejaVuSans-79" d="M 2059 -325 
Q 1816 -950 1584 -1140 
Q 1353 -1331 966 -1331 
L 506 -1331 
L 506 -850 
L 844 -850 
Q 1081 -850 1212 -737 
Q 1344 -625 1503 -206 
L 1606 56 
L 191 3500 
L 800 3500 
L 1894 763 
L 2988 3500 
L 3597 3500 
L 2059 -325 
z
" transform="scale(0.015625)"/>
      </defs>
      <use xlink:href="#DejaVuSans-41"/>
      <use xlink:href="#DejaVuSans-63" x="66.658203"/>
      <use xlink:href="#DejaVuSans-63" x="121.638672"/>
      <use xlink:href="#DejaVuSans-75" x="176.619141"/>
      <use xlink:href="#DejaVuSans-72" x="239.998047"/>
      <use xlink:href="#DejaVuSans-61" x="281.111328"/>
      <use xlink:href="#DejaVuSans-63" x="342.390625"/>
      <use xlink:href="#DejaVuSans-79" x="397.371094"/>
     </g>
    </g>
   </g>
   <g id="line2d_16">
    <path d="M 73.832727 295.488 
L 74.918528 243.573328 
L 76.00433 205.655895 
L 77.090131 180.05739 
L 78.175932 162.483141 
L 79.261733 150.407201 
L 80.347534 140.925018 
L 81.433335 132.43739 
L 82.519137 125.305974 
L 84.690739 112.992697 
L 89.033943 91.988361 
L 91.205546 84.721324 
L 92.291347 82.489225 
L 93.377148 80.53967 
L 94.462949 79.567718 
L 95.54875 113.478673 
L 96.634552 113.343052 
L 97.720353 109.884711 
L 102.063557 98.283446 
L 103.149358 95.650134 
L 104.23516 92.451734 
L 105.320961 90.310049 
L 106.406762 87.501559 
L 107.492563 85.286413 
L 108.578364 81.918486 
L 109.664165 79.833309 
L 110.749967 76.906151 
L 111.835768 75.352158 
L 112.921569 72.334586 
L 114.00737 70.814498 
L 116.178972 65.954738 
L 117.264773 64.575922 
L 118.350575 62.89761 
L 119.436376 61.524445 
L 122.693779 58.190423 
L 124.865382 56.585572 
L 125.951183 56.026135 
L 127.036984 55.884862 
L 128.122785 55.223709 
L 130.294387 54.669922 
L 131.380189 54.873354 
L 132.46599 54.579508 
L 135.723393 54.426934 
L 137.894995 54.302615 
L 138.980797 68.966659 
L 140.066598 73.617337 
L 141.152399 74.47062 
L 142.2382 73.385651 
L 144.409802 72.170711 
L 145.495604 71.351332 
L 146.581405 70.305919 
L 147.667206 69.848197 
L 148.753007 68.633257 
L 149.838808 68.345062 
L 150.924609 67.378761 
L 152.01041 66.86453 
L 153.096212 65.723052 
L 154.182013 65.027993 
L 155.267814 64.745449 
L 156.353615 64.016485 
L 157.439416 63.824355 
L 159.611019 62.049977 
L 160.69682 62.146042 
L 161.782621 61.168439 
L 162.868422 60.479031 
L 165.040024 60.145629 
L 166.125825 59.546635 
L 169.383229 58.670748 
L 171.554831 57.710098 
L 172.640632 57.602731 
L 173.726434 56.95288 
L 174.812235 56.851164 
L 178.069638 55.811401 
L 179.155439 55.963975 
L 180.24124 55.523206 
L 182.412843 55.268916 
L 184.584445 54.698177 
L 185.670246 54.777289 
L 187.841849 54.308266 
L 198.69986 54.008769 
L 199.785661 54.037023 
L 203.043065 53.641461 
L 204.128866 53.8901 
L 208.472071 53.720574 
L 209.557872 53.816639 
L 210.643673 53.737527 
L 211.729474 53.794035 
L 213.901076 53.731876 
L 216.072679 53.709272 
L 217.15848 53.635811 
L 221.501684 53.726225 
L 223.673287 53.720574 
L 224.759088 53.765781 
L 225.844889 59.947848 
L 226.93069 63.592668 
L 228.016491 64.519413 
L 230.188094 64.898023 
L 232.359696 64.768052 
L 233.445497 63.897816 
L 235.617099 63.654828 
L 236.702901 63.208408 
L 237.788702 63.417491 
L 239.960304 62.903261 
L 241.046105 63.061485 
L 242.131906 62.213853 
L 243.217708 62.462492 
L 244.303509 61.908705 
L 245.38931 61.920007 
L 246.475111 61.710924 
L 247.560912 61.756131 
L 248.646713 60.891546 
L 249.732514 61.298409 
L 250.818316 60.755925 
L 251.904117 60.85199 
L 252.989918 60.269949 
L 254.075719 60.885895 
L 255.16152 59.987404 
L 256.247321 60.207789 
L 259.504725 59.857434 
L 261.676327 59.580541 
L 263.847929 58.93634 
L 264.933731 59.06631 
L 266.019532 58.416459 
L 267.105333 58.715955 
L 268.191134 58.444713 
L 270.362736 58.659447 
L 271.448538 58.083056 
L 272.534339 58.388204 
L 273.62014 57.845719 
L 274.705941 57.834418 
L 275.791742 57.992642 
L 276.877543 57.359743 
L 277.963344 57.382347 
L 279.049146 57.540572 
L 280.134947 57.150661 
L 281.220748 57.393649 
L 282.306549 57.048945 
L 284.478151 56.715542 
L 285.563953 56.359537 
L 287.735555 56.749448 
L 288.821356 56.489507 
L 289.907157 56.432998 
L 290.992958 56.031785 
L 292.07876 55.817052 
L 293.164561 55.963975 
L 294.250362 55.562762 
L 295.336163 55.687082 
L 296.421964 55.511904 
L 297.507765 55.653176 
L 301.85097 55.523206 
L 304.022572 55.025928 
L 305.108373 55.251963 
L 306.194175 55.076786 
L 307.279976 55.059833 
L 309.451578 54.641668 
L 310.537379 54.8451 
L 311.62318 54.884656 
L 312.708981 54.511698 
L 313.794783 54.596461 
L 314.880584 54.438236 
L 315.966385 54.500396 
L 317.052186 54.376076 
L 318.137987 54.421284 
L 319.223788 54.308266 
L 320.30959 54.319568 
L 321.395391 54.127438 
L 322.481192 54.251757 
L 324.652794 54.065278 
L 326.824396 54.003118 
L 327.910198 54.189597 
L 330.0818 53.901402 
L 331.167601 54.133088 
L 333.339203 53.895751 
L 334.425005 53.935307 
L 336.596607 53.839242 
L 339.85401 53.805337 
L 342.025613 53.844893 
L 344.197215 53.794035 
L 348.54042 53.714923 
L 355.055227 53.669716 
L 360.484232 53.618858 
L 365.913238 53.618858 
L 366.999039 53.681018 
L 368.08484 53.573651 
L 373.513846 53.69797 
L 398.487273 53.799686 
L 398.487273 53.799686 
" clip-path="url(#pb16d262494)" style="fill: none; stroke: #1f77b4; stroke-width: 1.5; stroke-linecap: square"/>
   </g>
   <g id="line2d_17">
    <path d="M 73.832727 282.679801 
L 74.918528 252.002932 
L 76.00433 231.645672 
L 77.090131 215.348585 
L 78.175932 204.042129 
L 79.261733 186.278869 
L 80.347534 183.346521 
L 81.433335 174.577674 
L 82.519137 170.066369 
L 83.604938 172.26563 
L 84.690739 156.024935 
L 85.77654 150.385805 
L 86.862341 151.964761 
L 87.948142 142.434631 
L 89.033943 141.814327 
L 90.119745 138.402653 
L 91.205546 135.357522 
L 92.291347 135.131957 
L 93.377148 133.383827 
L 94.462949 133.10187 
L 95.54875 177.058891 
L 96.634552 163.637761 
L 97.720353 173.788195 
L 98.806154 164.0325 
L 99.891955 164.991152 
L 100.977756 153.797478 
L 102.063557 151.570022 
L 103.149358 156.532457 
L 104.23516 145.592544 
L 105.320961 151.767392 
L 106.406762 148.271131 
L 107.492563 141.898914 
L 108.578364 145.536153 
L 109.664165 140.460935 
L 110.749967 140.009805 
L 111.835768 141.165827 
L 112.921569 138.233479 
L 114.00737 134.59624 
L 115.093171 134.652631 
L 116.178972 131.889457 
L 117.264773 131.438327 
L 118.350575 132.848109 
L 119.436376 128.30861 
L 120.522177 128.816131 
L 121.607978 128.139436 
L 122.693779 125.009718 
L 123.77958 123.994675 
L 124.865382 122.725871 
L 125.951183 122.584892 
L 127.036984 121.316088 
L 128.122785 121.259697 
L 129.208586 120.32924 
L 130.294387 119.849914 
L 132.46599 119.257805 
L 133.551791 118.975849 
L 134.637592 118.045392 
L 135.723393 117.819827 
L 136.809194 118.468327 
L 137.894995 118.242762 
L 138.980797 149.737305 
L 140.066598 148.66587 
L 141.152399 150.977913 
L 142.2382 151.372652 
L 143.324001 144.210957 
L 144.409802 146.579392 
L 146.581405 139.022957 
L 147.667206 140.460935 
L 148.753007 139.812435 
L 149.838808 138.261675 
L 150.924609 138.120696 
L 152.01041 137.83874 
L 153.096212 138.459044 
L 154.182013 138.571827 
L 155.267814 135.69587 
L 156.353615 131.833066 
L 157.439416 136.54174 
L 158.525217 136.175196 
L 159.611019 134.342479 
L 160.69682 133.327436 
L 161.782621 131.833066 
L 162.868422 133.468414 
L 163.954223 131.325544 
L 165.040024 131.889457 
L 166.125825 129.915762 
L 167.211627 134.286088 
L 168.297428 132.989088 
L 169.383229 130.50787 
L 170.46903 131.748479 
L 171.554831 129.492827 
L 172.640632 127.91387 
L 173.726434 126.983414 
L 174.812235 126.729653 
L 175.898036 127.801088 
L 176.983837 127.068001 
L 178.069638 125.178892 
L 179.155439 123.825501 
L 180.24124 125.883784 
L 181.327042 122.415718 
L 182.412843 124.192044 
L 183.498644 120.808566 
L 184.584445 121.259697 
L 185.670246 119.68074 
L 186.756047 120.216458 
L 187.841849 118.891262 
L 190.013451 118.045392 
L 193.270854 117.368697 
L 194.356656 116.804784 
L 195.442457 116.804784 
L 196.528258 117.368697 
L 197.614059 114.915675 
L 198.69986 115.620566 
L 199.785661 116.184479 
L 200.871462 113.336719 
L 201.957264 114.295371 
L 203.043065 114.408153 
L 204.128866 114.633719 
L 205.214667 113.534088 
L 206.300468 113.675067 
L 207.386269 114.408153 
L 209.557872 113.534088 
L 210.643673 114.04161 
L 211.729474 113.364914 
L 212.815275 113.957023 
L 213.901076 113.39311 
L 214.986877 113.308523 
L 216.072679 112.801001 
L 217.15848 113.477697 
L 218.244281 112.829197 
L 219.330082 112.660023 
L 220.415883 112.885588 
L 221.501684 112.631827 
L 222.587486 112.913784 
L 223.673287 112.801001 
L 224.759088 113.054762 
L 225.844889 141.701544 
L 226.93069 145.733522 
L 228.016491 142.237261 
L 229.102292 140.630109 
L 230.188094 140.319957 
L 231.273895 135.865044 
L 232.359696 138.120696 
L 233.445497 143.336892 
L 234.531298 140.066196 
L 235.617099 138.092501 
L 236.702901 141.194022 
L 237.788702 140.968457 
L 238.874503 139.615066 
L 239.960304 138.712805 
L 241.046105 133.355631 
L 242.131906 135.977827 
L 243.217708 138.092501 
L 244.303509 137.162044 
L 245.38931 135.752262 
L 246.475111 137.83874 
L 247.560912 137.472196 
L 248.646713 137.246631 
L 249.732514 136.795501 
L 250.818316 140.178979 
L 251.904117 134.709022 
L 252.989918 136.316175 
L 254.075719 134.709022 
L 255.16152 132.45337 
L 256.247321 136.316175 
L 257.333123 136.54174 
L 258.418924 133.975936 
L 259.504725 138.374457 
L 260.590526 138.120696 
L 261.676327 137.528588 
L 262.762128 135.413914 
L 263.847929 133.693979 
L 264.933731 135.724066 
L 266.019532 129.690197 
L 267.105333 131.071783 
L 268.191134 133.806762 
L 269.276935 134.032327 
L 270.362736 131.325544 
L 271.448538 129.041697 
L 272.534339 132.00224 
L 273.62014 126.137544 
L 274.705941 129.521023 
L 275.791742 128.872523 
L 276.877543 129.492827 
L 277.963344 129.831175 
L 279.049146 126.757849 
L 280.134947 130.846218 
L 281.220748 133.722175 
L 282.306549 129.802979 
L 283.39235 129.633805 
L 284.478151 129.60561 
L 285.563953 130.282305 
L 286.649754 128.139436 
L 287.735555 127.26537 
L 288.821356 126.81424 
L 289.907157 124.107458 
L 290.992958 127.321762 
L 292.07876 130.90261 
L 293.164561 123.853697 
L 294.250362 124.643175 
L 295.336163 125.094305 
L 296.421964 124.107458 
L 297.507765 125.348066 
L 298.593566 125.71461 
L 299.679368 124.107458 
L 300.765169 123.233392 
L 301.85097 123.007827 
L 302.936771 121.062327 
L 304.022572 123.317979 
L 305.108373 122.218349 
L 306.194175 125.460849 
L 307.279976 121.908197 
L 308.365777 121.908197 
L 309.451578 121.795414 
L 311.62318 118.947653 
L 312.708981 119.567958 
L 313.794783 119.87811 
L 314.880584 120.611197 
L 315.966385 120.216458 
L 317.052186 120.498414 
L 318.137987 122.049175 
L 319.223788 117.227719 
L 321.395391 117.791632 
L 322.481192 118.975849 
L 323.566993 116.297262 
L 324.652794 117.537871 
L 325.738595 115.648762 
L 326.824396 117.566066 
L 327.910198 117.312306 
L 328.995999 115.53598 
L 330.0818 114.774697 
L 331.167601 114.605523 
L 332.253402 114.69011 
L 333.339203 115.000262 
L 334.425005 116.184479 
L 335.510806 113.816045 
L 336.596607 115.056653 
L 337.682408 113.505893 
L 338.768209 114.943871 
L 339.85401 113.223936 
L 340.939811 114.210784 
L 342.025613 114.88748 
L 343.111414 113.336719 
L 344.197215 112.74461 
L 345.283016 113.59048 
L 346.368817 112.885588 
L 347.454618 112.011523 
L 348.54042 114.013414 
L 349.626221 112.631827 
L 350.712022 113.082958 
L 351.797823 113.336719 
L 352.883624 112.067914 
L 353.969425 110.319784 
L 355.055227 111.334827 
L 356.141028 111.64498 
L 357.226829 111.25024 
L 358.31263 112.208893 
L 359.398431 111.193849 
L 360.484232 110.911893 
L 363.741636 111.109262 
L 364.827437 111.560393 
L 365.913238 110.291588 
L 366.999039 111.137458 
L 368.08484 110.34798 
L 369.170642 111.757762 
L 370.256443 111.757762 
L 371.342244 110.79911 
L 372.428045 112.603632 
L 373.513846 113.646871 
L 374.599647 112.378067 
L 376.77125 111.729567 
L 377.857051 113.449501 
L 378.942852 112.29348 
L 380.028653 113.054762 
L 381.114454 112.54724 
L 382.200255 113.59048 
L 383.286057 112.688219 
L 384.371858 112.885588 
L 385.457659 112.152501 
L 386.54346 111.588588 
L 387.629261 113.308523 
L 389.800863 113.336719 
L 390.886665 113.505893 
L 391.972466 113.787849 
L 393.058267 113.19574 
L 394.144068 112.208893 
L 395.229869 113.985219 
L 396.31567 114.49274 
L 397.401472 114.069806 
L 398.487273 113.84424 
L 398.487273 113.84424 
" clip-path="url(#pb16d262494)" style="fill: none; stroke: #ff7f0e; stroke-width: 1.5; stroke-linecap: square"/>
   </g>
   <g id="line2d_18">
    <path d="M 73.832727 292.697035 
L 74.918528 278.151968 
L 77.090131 258.609465 
L 78.175932 257.345522 
L 79.261733 243.675492 
L 80.347534 244.414413 
L 81.433335 240.253124 
L 82.519137 238.639166 
L 83.604938 237.569676 
L 84.690739 228.527622 
L 85.77654 224.405223 
L 86.862341 227.244234 
L 87.948142 220.982854 
L 89.033943 220.166153 
L 90.119745 217.054908 
L 91.205546 216.860456 
L 92.291347 215.188162 
L 93.377148 214.060336 
L 94.462949 214.196453 
L 95.54875 245.892254 
L 96.634552 236.636302 
L 97.720353 242.469885 
L 98.806154 234.555658 
L 99.891955 238.9114 
L 100.977756 229.947127 
L 102.063557 229.888791 
L 103.149358 232.961145 
L 104.23516 226.855328 
L 105.320961 229.247097 
L 106.406762 224.696902 
L 107.492563 222.77182 
L 108.578364 225.046917 
L 109.664165 222.752375 
L 110.749967 223.607967 
L 111.835768 222.557922 
L 112.921569 219.680021 
L 114.00737 217.210471 
L 115.093171 219.407787 
L 116.178972 216.80212 
L 117.264773 218.085508 
L 118.350575 218.688312 
L 119.436376 214.604804 
L 120.522177 215.518732 
L 121.607978 212.835283 
L 122.693779 212.290816 
L 123.77958 210.793529 
L 124.865382 208.323979 
L 125.951183 208.460096 
L 127.036984 206.787802 
L 128.122785 207.721176 
L 129.208586 206.943365 
L 130.294387 208.246198 
L 131.380189 206.63224 
L 132.46599 205.718312 
L 133.551791 206.26278 
L 134.637592 205.19329 
L 136.809194 205.076618 
L 137.894995 204.843275 
L 138.980797 232.124998 
L 140.066598 228.897082 
L 141.152399 228.352614 
L 142.2382 231.561085 
L 143.324001 227.069226 
L 144.409802 231.483304 
L 145.495604 225.299706 
L 146.581405 221.255088 
L 148.753007 224.50245 
L 149.838808 225.358042 
L 150.924609 223.588522 
L 152.01041 220.457832 
L 153.096212 223.355178 
L 154.182013 222.227352 
L 155.267814 222.907937 
L 156.353615 219.64113 
L 157.439416 220.807847 
L 158.525217 219.038327 
L 159.611019 220.496722 
L 160.69682 215.946528 
L 161.782621 212.310261 
L 162.868422 213.749211 
L 163.954223 221.507877 
L 165.040024 219.582794 
L 166.125825 213.593649 
L 167.211627 220.652285 
L 168.297428 219.777247 
L 169.383229 216.996573 
L 170.46903 220.030036 
L 171.554831 212.699166 
L 172.640632 213.476978 
L 174.812235 211.765793 
L 175.898036 212.757502 
L 176.983837 214.643694 
L 178.069638 209.743484 
L 179.155439 211.610231 
L 180.24124 209.490696 
L 181.327042 209.199017 
L 182.412843 209.782375 
L 183.498644 206.068327 
L 184.584445 207.818402 
L 185.670246 204.784939 
L 186.756047 206.204444 
L 187.841849 205.348852 
L 190.013451 202.470951 
L 191.099252 203.83212 
L 192.185053 204.746048 
L 193.270854 203.054309 
L 194.356656 202.76263 
L 195.442457 203.268207 
L 196.528258 202.218162 
L 197.614059 200.273635 
L 198.69986 200.040291 
L 199.785661 202.820966 
L 200.871462 200.118072 
L 201.957264 199.651386 
L 203.043065 200.040291 
L 204.128866 199.63194 
L 205.214667 200.954219 
L 207.386269 199.573605 
L 208.472071 199.690276 
L 209.557872 198.912465 
L 210.643673 199.320816 
L 211.729474 198.620786 
L 212.815275 197.454069 
L 213.901076 198.076318 
L 214.986877 198.251326 
L 217.15848 198.329107 
L 219.330082 198.076318 
L 220.415883 198.484669 
L 221.501684 197.648522 
L 222.587486 197.629077 
L 223.673287 198.290216 
L 224.759088 198.037428 
L 225.844889 230.569376 
L 226.93069 221.819001 
L 228.016491 221.682884 
L 229.102292 226.096962 
L 230.188094 220.185598 
L 231.273895 220.730066 
L 232.359696 224.521895 
L 233.445497 226.680321 
L 234.531298 224.54134 
L 235.617099 218.007727 
L 236.702901 227.088671 
L 238.874503 221.70233 
L 239.960304 222.849601 
L 241.046105 221.643994 
L 243.217708 218.668866 
L 244.303509 222.519031 
L 245.38931 221.566213 
L 246.475111 222.421805 
L 247.560912 225.183034 
L 248.646713 223.782974 
L 249.732514 221.566213 
L 250.818316 218.260516 
L 251.904117 220.457832 
L 252.989918 225.591385 
L 254.075719 222.40236 
L 255.16152 215.946528 
L 256.247321 218.493859 
L 257.333123 220.574504 
L 258.418924 219.057772 
L 259.504725 222.538477 
L 260.590526 220.768956 
L 261.676327 225.046917 
L 262.762128 221.410651 
L 263.847929 221.799556 
L 264.933731 220.127262 
L 266.019532 215.752075 
L 267.105333 216.179871 
L 268.191134 219.60224 
L 269.276935 216.879901 
L 270.362736 220.632839 
L 271.448538 211.143544 
L 272.534339 220.088372 
L 273.62014 213.807547 
L 274.705941 218.707757 
L 275.791742 211.513005 
L 276.877543 211.979691 
L 277.963344 215.907637 
L 279.049146 212.93251 
L 280.134947 214.099226 
L 281.220748 219.543904 
L 282.306549 214.799256 
L 283.39235 215.615958 
L 284.478151 212.582495 
L 285.563953 214.935373 
L 286.649754 213.963109 
L 287.735555 209.879601 
L 288.821356 212.796393 
L 289.907157 213.457532 
L 290.992958 213.379751 
L 292.07876 217.618822 
L 293.164561 211.90191 
L 294.250362 211.590786 
L 295.336163 209.957382 
L 296.421964 209.257352 
L 297.507765 213.788102 
L 298.593566 215.557622 
L 299.679368 211.513005 
L 301.85097 208.246198 
L 302.936771 206.573904 
L 304.022572 212.076918 
L 305.108373 208.537877 
L 306.194175 210.190726 
L 307.279976 209.529586 
L 308.365777 209.335134 
L 309.451578 205.621086 
L 310.537379 208.304534 
L 311.62318 204.026573 
L 312.708981 207.0017 
L 313.794783 205.19329 
L 314.880584 207.740621 
L 315.966385 207.585059 
L 317.052186 204.843275 
L 318.137987 211.20188 
L 319.223788 203.559886 
L 320.30959 205.212735 
L 321.395391 204.318252 
L 322.481192 205.465524 
L 323.566993 203.287653 
L 324.652794 204.804384 
L 325.738595 201.634804 
L 326.824396 202.548732 
L 327.910198 204.726603 
L 328.995999 201.265344 
L 330.0818 199.243035 
L 331.167601 201.790366 
L 332.253402 200.370861 
L 333.339203 201.498687 
L 334.425005 200.448642 
L 335.510806 199.009692 
L 336.596607 198.795794 
L 337.682408 200.098627 
L 338.768209 200.234744 
L 339.85401 198.387443 
L 340.939811 201.401461 
L 342.025613 199.651386 
L 343.111414 198.659677 
L 344.197215 198.445779 
L 345.283016 199.437488 
L 347.454618 197.745749 
L 348.54042 200.156963 
L 349.626221 198.640231 
L 350.712022 199.165254 
L 351.797823 196.987383 
L 352.883624 197.317953 
L 353.969425 196.46236 
L 355.055227 198.115209 
L 356.141028 195.742885 
L 357.226829 195.76233 
L 358.31263 195.101191 
L 359.398431 197.006828 
L 360.484232 195.470651 
L 361.570033 196.267908 
L 362.655835 196.229017 
L 363.741636 194.945629 
L 364.827437 194.381716 
L 365.913238 196.754039 
L 366.999039 195.665104 
L 368.08484 195.859557 
L 369.170642 196.384579 
L 371.342244 197.979092 
L 372.428045 199.418042 
L 374.599647 196.831821 
L 375.685448 196.715149 
L 376.77125 198.679122 
L 377.857051 200.273635 
L 378.942852 196.948492 
L 380.028653 198.406888 
L 381.114454 198.290216 
L 383.286057 197.337398 
L 384.371858 198.484669 
L 385.457659 197.201281 
L 386.54346 199.59305 
L 387.629261 198.251326 
L 388.715062 200.33197 
L 389.800863 199.495824 
L 390.886665 199.418042 
L 391.972466 201.440351 
L 393.058267 197.473515 
L 394.144068 199.59305 
L 395.229869 199.63194 
L 396.31567 198.173545 
L 397.401472 200.390306 
L 398.487273 199.398597 
L 398.487273 199.398597 
" clip-path="url(#pb16d262494)" style="fill: none; stroke: #2ca02c; stroke-width: 1.5; stroke-linecap: square"/>
   </g>
   <g id="line2d_19">
    <path d="M 368.08484 110.291588 
L 369.170642 110.911893 
L 370.256443 110.968284 
L 371.342244 111.842349 
L 372.428045 112.970175 
L 373.513846 113.900632 
L 374.599647 119.03224 
L 375.685448 119.201414 
L 376.77125 119.624349 
L 378.942852 122.302936 
L 380.028653 127.378153 
L 381.114454 129.041697 
L 382.200255 135.131957 
L 383.286057 139.304914 
L 384.371858 146.043674 
L 385.457659 150.554979 
L 386.54346 159.098261 
L 387.629261 162.087 
L 388.715062 163.102043 
L 389.800863 165.498674 
L 390.886665 171.391565 
L 391.972466 189.718738 
L 393.058267 199.95376 
L 394.144068 209.117346 
L 395.229869 213.797825 
L 396.31567 219.436955 
L 397.401472 226.203911 
L 398.487273 231.307324 
L 398.487273 231.307324 
" clip-path="url(#pb16d262494)" style="fill: none; stroke: #d62728; stroke-width: 1.5; stroke-linecap: square"/>
   </g>
   <g id="line2d_20">
    <path d="M 368.08484 196.034564 
L 369.170642 194.517833 
L 370.256443 194.770621 
L 371.342244 195.528987 
L 372.428045 197.920756 
L 373.513846 199.865284 
L 374.599647 203.696003 
L 375.685448 205.718312 
L 376.77125 206.184999 
L 377.857051 205.115509 
L 378.942852 207.585059 
L 380.028653 211.007427 
L 381.114454 210.443514 
L 382.200255 217.774384 
L 383.286057 220.166153 
L 384.371858 226.194189 
L 385.457659 228.877637 
L 386.54346 235.08068 
L 387.629261 237.083544 
L 388.715062 238.658611 
L 389.800863 238.736392 
L 390.886665 243.131025 
L 391.972466 253.087006 
L 393.058267 258.317786 
L 394.144068 262.751309 
L 395.229869 265.181969 
L 396.31567 266.679255 
L 397.401472 270.801654 
L 398.487273 273.154532 
L 398.487273 273.154532 
" clip-path="url(#pb16d262494)" style="fill: none; stroke: #9467bd; stroke-width: 1.5; stroke-linecap: square"/>
   </g>
   <g id="patch_3">
    <path d="M 57.6 307.584 
L 57.6 41.472 
" style="fill: none; stroke: #000000; stroke-width: 0.8; stroke-linejoin: miter; stroke-linecap: square"/>
   </g>
   <g id="patch_4">
    <path d="M 414.72 307.584 
L 414.72 41.472 
" style="fill: none; stroke: #000000; stroke-width: 0.8; stroke-linejoin: miter; stroke-linecap: square"/>
   </g>
   <g id="patch_5">
    <path d="M 57.6 307.584 
L 414.72 307.584 
" style="fill: none; stroke: #000000; stroke-width: 0.8; stroke-linejoin: miter; stroke-linecap: square"/>
   </g>
   <g id="patch_6">
    <path d="M 57.6 41.472 
L 414.72 41.472 
" style="fill: none; stroke: #000000; stroke-width: 0.8; stroke-linejoin: miter; stroke-linecap: square"/>
   </g>
   <g id="text_18">
    <!-- Learning Curves -->
    <g transform="translate(187.37625 35.472) scale(0.12 -0.12)">
     <defs>
      <path id="DejaVuSans-4c" d="M 628 4666 
L 1259 4666 
L 1259 531 
L 3531 531 
L 3531 0 
L 628 0 
L 628 4666 
z
" transform="scale(0.015625)"/>
      <path id="DejaVuSans-65" d="M 3597 1894 
L 3597 1613 
L 953 1613 
Q 991 1019 1311 708 
Q 1631 397 2203 397 
Q 2534 397 2845 478 
Q 3156 559 3463 722 
L 3463 178 
Q 3153 47 2828 -22 
Q 2503 -91 2169 -91 
Q 1331 -91 842 396 
Q 353 884 353 1716 
Q 353 2575 817 3079 
Q 1281 3584 2069 3584 
Q 2775 3584 3186 3129 
Q 3597 2675 3597 1894 
z
M 3022 2063 
Q 3016 2534 2758 2815 
Q 2500 3097 2075 3097 
Q 1594 3097 1305 2825 
Q 1016 2553 972 2059 
L 3022 2063 
z
" transform="scale(0.015625)"/>
      <path id="DejaVuSans-6e" d="M 3513 2113 
L 3513 0 
L 2938 0 
L 2938 2094 
Q 2938 2591 2744 2837 
Q 2550 3084 2163 3084 
Q 1697 3084 1428 2787 
Q 1159 2491 1159 1978 
L 1159 0 
L 581 0 
L 581 3500 
L 1159 3500 
L 1159 2956 
Q 1366 3272 1645 3428 
Q 1925 3584 2291 3584 
Q 2894 3584 3203 3211 
Q 3513 2838 3513 2113 
z
" transform="scale(0.015625)"/>
      <path id="DejaVuSans-69" d="M 603 3500 
L 1178 3500 
L 1178 0 
L 603 0 
L 603 3500 
z
M 603 4863 
L 1178 4863 
L 1178 4134 
L 603 4134 
L 603 4863 
z
" transform="scale(0.015625)"/>
      <path id="DejaVuSans-67" d="M 2906 1791 
Q 2906 2416 2648 2759 
Q 2391 3103 1925 3103 
Q 1463 3103 1205 2759 
Q 947 2416 947 1791 
Q 947 1169 1205 825 
Q 1463 481 1925 481 
Q 2391 481 2648 825 
Q 2906 1169 2906 1791 
z
M 3481 434 
Q 3481 -459 3084 -895 
Q 2688 -1331 1869 -1331 
Q 1566 -1331 1297 -1286 
Q 1028 -1241 775 -1147 
L 775 -588 
Q 1028 -725 1275 -790 
Q 1522 -856 1778 -856 
Q 2344 -856 2625 -561 
Q 2906 -266 2906 331 
L 2906 616 
Q 2728 306 2450 153 
Q 2172 0 1784 0 
Q 1141 0 747 490 
Q 353 981 353 1791 
Q 353 2603 747 3093 
Q 1141 3584 1784 3584 
Q 2172 3584 2450 3431 
Q 2728 3278 2906 2969 
L 2906 3500 
L 3481 3500 
L 3481 434 
z
" transform="scale(0.015625)"/>
      <path id="DejaVuSans-20" transform="scale(0.015625)"/>
      <path id="DejaVuSans-43" d="M 4122 4306 
L 4122 3641 
Q 3803 3938 3442 4084 
Q 3081 4231 2675 4231 
Q 1875 4231 1450 3742 
Q 1025 3253 1025 2328 
Q 1025 1406 1450 917 
Q 1875 428 2675 428 
Q 3081 428 3442 575 
Q 3803 722 4122 1019 
L 4122 359 
Q 3791 134 3420 21 
Q 3050 -91 2638 -91 
Q 1578 -91 968 557 
Q 359 1206 359 2328 
Q 359 3453 968 4101 
Q 1578 4750 2638 4750 
Q 3056 4750 3426 4639 
Q 3797 4528 4122 4306 
z
" transform="scale(0.015625)"/>
      <path id="DejaVuSans-76" d="M 191 3500 
L 800 3500 
L 1894 563 
L 2988 3500 
L 3597 3500 
L 2284 0 
L 1503 0 
L 191 3500 
z
" transform="scale(0.015625)"/>
     </defs>
     <use xlink:href="#DejaVuSans-4c"/>
     <use xlink:href="#DejaVuSans-65" x="53.962891"/>
     <use xlink:href="#DejaVuSans-61" x="115.486328"/>
     <use xlink:href="#DejaVuSans-72" x="176.765625"/>
     <use xlink:href="#DejaVuSans-6e" x="216.128906"/>
     <use xlink:href="#DejaVuSans-69" x="279.507812"/>
     <use xlink:href="#DejaVuSans-6e" x="307.291016"/>
     <use xlink:href="#DejaVuSans-67" x="370.669922"/>
     <use xlink:href="#DejaVuSans-20" x="434.146484"/>
     <use xlink:href="#DejaVuSans-43" x="465.933594"/>
     <use xlink:href="#DejaVuSans-75" x="535.757812"/>
     <use xlink:href="#DejaVuSans-72" x="599.136719"/>
     <use xlink:href="#DejaVuSans-76" x="640.25"/>
     <use xlink:href="#DejaVuSans-65" x="699.429688"/>
     <use xlink:href="#DejaVuSans-73" x="760.953125"/>
    </g>
   </g>
   <g id="legend_1">
    <g id="patch_7">
     <path d="M 139.394375 302.584 
L 332.925625 302.584 
Q 334.925625 302.584 334.925625 300.584 
L 334.925625 228.193375 
Q 334.925625 226.193375 332.925625 226.193375 
L 139.394375 226.193375 
Q 137.394375 226.193375 137.394375 228.193375 
L 137.394375 300.584 
Q 137.394375 302.584 139.394375 302.584 
z
" style="fill: #ffffff; opacity: 0.8; stroke: #cccccc; stroke-linejoin: miter"/>
    </g>
    <g id="line2d_21">
     <path d="M 141.394375 234.291812 
L 151.394375 234.291812 
L 161.394375 234.291812 
" style="fill: none; stroke: #1f77b4; stroke-width: 1.5; stroke-linecap: square"/>
    </g>
    <g id="text_19">
     <!-- Train Accuracy -->
     <g transform="translate(169.394375 237.791812) scale(0.1 -0.1)">
      <defs>
       <path id="DejaVuSans-54" d="M -19 4666 
L 3928 4666 
L 3928 4134 
L 2272 4134 
L 2272 0 
L 1638 0 
L 1638 4134 
L -19 4134 
L -19 4666 
z
" transform="scale(0.015625)"/>
      </defs>
      <use xlink:href="#DejaVuSans-54"/>
      <use xlink:href="#DejaVuSans-72" x="46.333984"/>
      <use xlink:href="#DejaVuSans-61" x="87.447266"/>
      <use xlink:href="#DejaVuSans-69" x="148.726562"/>
      <use xlink:href="#DejaVuSans-6e" x="176.509766"/>
      <use xlink:href="#DejaVuSans-20" x="239.888672"/>
      <use xlink:href="#DejaVuSans-41" x="271.675781"/>
      <use xlink:href="#DejaVuSans-63" x="338.333984"/>
      <use xlink:href="#DejaVuSans-63" x="393.314453"/>
      <use xlink:href="#DejaVuSans-75" x="448.294922"/>
      <use xlink:href="#DejaVuSans-72" x="511.673828"/>
      <use xlink:href="#DejaVuSans-61" x="552.787109"/>
      <use xlink:href="#DejaVuSans-63" x="614.066406"/>
      <use xlink:href="#DejaVuSans-79" x="669.046875"/>
     </g>
    </g>
    <g id="line2d_22">
     <path d="M 141.394375 248.969937 
L 151.394375 248.969937 
L 161.394375 248.969937 
" style="fill: none; stroke: #ff7f0e; stroke-width: 1.5; stroke-linecap: square"/>
    </g>
    <g id="text_20">
     <!-- Validation Accuracy -->
     <g transform="translate(169.394375 252.469937) scale(0.1 -0.1)">
      <defs>
       <path id="DejaVuSans-56" d="M 1831 0 
L 50 4666 
L 709 4666 
L 2188 738 
L 3669 4666 
L 4325 4666 
L 2547 0 
L 1831 0 
z
" transform="scale(0.015625)"/>
       <path id="DejaVuSans-6c" d="M 603 4863 
L 1178 4863 
L 1178 0 
L 603 0 
L 603 4863 
z
" transform="scale(0.015625)"/>
       <path id="DejaVuSans-64" d="M 2906 2969 
L 2906 4863 
L 3481 4863 
L 3481 0 
L 2906 0 
L 2906 525 
Q 2725 213 2448 61 
Q 2172 -91 1784 -91 
Q 1150 -91 751 415 
Q 353 922 353 1747 
Q 353 2572 751 3078 
Q 1150 3584 1784 3584 
Q 2172 3584 2448 3432 
Q 2725 3281 2906 2969 
z
M 947 1747 
Q 947 1113 1208 752 
Q 1469 391 1925 391 
Q 2381 391 2643 752 
Q 2906 1113 2906 1747 
Q 2906 2381 2643 2742 
Q 2381 3103 1925 3103 
Q 1469 3103 1208 2742 
Q 947 2381 947 1747 
z
" transform="scale(0.015625)"/>
       <path id="DejaVuSans-74" d="M 1172 4494 
L 1172 3500 
L 2356 3500 
L 2356 3053 
L 1172 3053 
L 1172 1153 
Q 1172 725 1289 603 
Q 1406 481 1766 481 
L 2356 481 
L 2356 0 
L 1766 0 
Q 1100 0 847 248 
Q 594 497 594 1153 
L 594 3053 
L 172 3053 
L 172 3500 
L 594 3500 
L 594 4494 
L 1172 4494 
z
" transform="scale(0.015625)"/>
      </defs>
      <use xlink:href="#DejaVuSans-56"/>
      <use xlink:href="#DejaVuSans-61" x="60.658203"/>
      <use xlink:href="#DejaVuSans-6c" x="121.9375"/>
      <use xlink:href="#DejaVuSans-69" x="149.720703"/>
      <use xlink:href="#DejaVuSans-64" x="177.503906"/>
      <use xlink:href="#DejaVuSans-61" x="240.980469"/>
      <use xlink:href="#DejaVuSans-74" x="302.259766"/>
      <use xlink:href="#DejaVuSans-69" x="341.46875"/>
      <use xlink:href="#DejaVuSans-6f" x="369.251953"/>
      <use xlink:href="#DejaVuSans-6e" x="430.433594"/>
      <use xlink:href="#DejaVuSans-20" x="493.8125"/>
      <use xlink:href="#DejaVuSans-41" x="525.599609"/>
      <use xlink:href="#DejaVuSans-63" x="592.257812"/>
      <use xlink:href="#DejaVuSans-63" x="647.238281"/>
      <use xlink:href="#DejaVuSans-75" x="702.21875"/>
      <use xlink:href="#DejaVuSans-72" x="765.597656"/>
      <use xlink:href="#DejaVuSans-61" x="806.710938"/>
      <use xlink:href="#DejaVuSans-63" x="867.990234"/>
      <use xlink:href="#DejaVuSans-79" x="922.970703"/>
     </g>
    </g>
    <g id="line2d_23">
     <path d="M 141.394375 263.648062 
L 151.394375 263.648062 
L 161.394375 263.648062 
" style="fill: none; stroke: #2ca02c; stroke-width: 1.5; stroke-linecap: square"/>
    </g>
    <g id="text_21">
     <!-- Robust Validation Accuracy -->
     <g transform="translate(169.394375 267.148062) scale(0.1 -0.1)">
      <defs>
       <path id="DejaVuSans-52" d="M 2841 2188 
Q 3044 2119 3236 1894 
Q 3428 1669 3622 1275 
L 4263 0 
L 3584 0 
L 2988 1197 
Q 2756 1666 2539 1819 
Q 2322 1972 1947 1972 
L 1259 1972 
L 1259 0 
L 628 0 
L 628 4666 
L 2053 4666 
Q 2853 4666 3247 4331 
Q 3641 3997 3641 3322 
Q 3641 2881 3436 2590 
Q 3231 2300 2841 2188 
z
M 1259 4147 
L 1259 2491 
L 2053 2491 
Q 2509 2491 2742 2702 
Q 2975 2913 2975 3322 
Q 2975 3731 2742 3939 
Q 2509 4147 2053 4147 
L 1259 4147 
z
" transform="scale(0.015625)"/>
       <path id="DejaVuSans-62" d="M 3116 1747 
Q 3116 2381 2855 2742 
Q 2594 3103 2138 3103 
Q 1681 3103 1420 2742 
Q 1159 2381 1159 1747 
Q 1159 1113 1420 752 
Q 1681 391 2138 391 
Q 2594 391 2855 752 
Q 3116 1113 3116 1747 
z
M 1159 2969 
Q 1341 3281 1617 3432 
Q 1894 3584 2278 3584 
Q 2916 3584 3314 3078 
Q 3713 2572 3713 1747 
Q 3713 922 3314 415 
Q 2916 -91 2278 -91 
Q 1894 -91 1617 61 
Q 1341 213 1159 525 
L 1159 0 
L 581 0 
L 581 4863 
L 1159 4863 
L 1159 2969 
z
" transform="scale(0.015625)"/>
      </defs>
      <use xlink:href="#DejaVuSans-52"/>
      <use xlink:href="#DejaVuSans-6f" x="64.982422"/>
      <use xlink:href="#DejaVuSans-62" x="126.164062"/>
      <use xlink:href="#DejaVuSans-75" x="189.640625"/>
      <use xlink:href="#DejaVuSans-73" x="253.019531"/>
      <use xlink:href="#DejaVuSans-74" x="305.119141"/>
      <use xlink:href="#DejaVuSans-20" x="344.328125"/>
      <use xlink:href="#DejaVuSans-56" x="376.115234"/>
      <use xlink:href="#DejaVuSans-61" x="436.773438"/>
      <use xlink:href="#DejaVuSans-6c" x="498.052734"/>
      <use xlink:href="#DejaVuSans-69" x="525.835938"/>
      <use xlink:href="#DejaVuSans-64" x="553.619141"/>
      <use xlink:href="#DejaVuSans-61" x="617.095703"/>
      <use xlink:href="#DejaVuSans-74" x="678.375"/>
      <use xlink:href="#DejaVuSans-69" x="717.583984"/>
      <use xlink:href="#DejaVuSans-6f" x="745.367188"/>
      <use xlink:href="#DejaVuSans-6e" x="806.548828"/>
      <use xlink:href="#DejaVuSans-20" x="869.927734"/>
      <use xlink:href="#DejaVuSans-41" x="901.714844"/>
      <use xlink:href="#DejaVuSans-63" x="968.373047"/>
      <use xlink:href="#DejaVuSans-63" x="1023.353516"/>
      <use xlink:href="#DejaVuSans-75" x="1078.333984"/>
      <use xlink:href="#DejaVuSans-72" x="1141.712891"/>
      <use xlink:href="#DejaVuSans-61" x="1182.826172"/>
      <use xlink:href="#DejaVuSans-63" x="1244.105469"/>
      <use xlink:href="#DejaVuSans-79" x="1299.085938"/>
     </g>
    </g>
    <g id="line2d_24">
     <path d="M 141.394375 278.326188 
L 151.394375 278.326188 
L 161.394375 278.326188 
" style="fill: none; stroke: #d62728; stroke-width: 1.5; stroke-linecap: square"/>
    </g>
    <g id="text_22">
     <!-- SWA Validation Accuracy -->
     <g transform="translate(169.394375 281.826188) scale(0.1 -0.1)">
      <defs>
       <path id="DejaVuSans-53" d="M 3425 4513 
L 3425 3897 
Q 3066 4069 2747 4153 
Q 2428 4238 2131 4238 
Q 1616 4238 1336 4038 
Q 1056 3838 1056 3469 
Q 1056 3159 1242 3001 
Q 1428 2844 1947 2747 
L 2328 2669 
Q 3034 2534 3370 2195 
Q 3706 1856 3706 1288 
Q 3706 609 3251 259 
Q 2797 -91 1919 -91 
Q 1588 -91 1214 -16 
Q 841 59 441 206 
L 441 856 
Q 825 641 1194 531 
Q 1563 422 1919 422 
Q 2459 422 2753 634 
Q 3047 847 3047 1241 
Q 3047 1584 2836 1778 
Q 2625 1972 2144 2069 
L 1759 2144 
Q 1053 2284 737 2584 
Q 422 2884 422 3419 
Q 422 4038 858 4394 
Q 1294 4750 2059 4750 
Q 2388 4750 2728 4690 
Q 3069 4631 3425 4513 
z
" transform="scale(0.015625)"/>
       <path id="DejaVuSans-57" d="M 213 4666 
L 850 4666 
L 1831 722 
L 2809 4666 
L 3519 4666 
L 4500 722 
L 5478 4666 
L 6119 4666 
L 4947 0 
L 4153 0 
L 3169 4050 
L 2175 0 
L 1381 0 
L 213 4666 
z
" transform="scale(0.015625)"/>
      </defs>
      <use xlink:href="#DejaVuSans-53"/>
      <use xlink:href="#DejaVuSans-57" x="63.476562"/>
      <use xlink:href="#DejaVuSans-41" x="156.853516"/>
      <use xlink:href="#DejaVuSans-20" x="225.261719"/>
      <use xlink:href="#DejaVuSans-56" x="257.048828"/>
      <use xlink:href="#DejaVuSans-61" x="317.707031"/>
      <use xlink:href="#DejaVuSans-6c" x="378.986328"/>
      <use xlink:href="#DejaVuSans-69" x="406.769531"/>
      <use xlink:href="#DejaVuSans-64" x="434.552734"/>
      <use xlink:href="#DejaVuSans-61" x="498.029297"/>
      <use xlink:href="#DejaVuSans-74" x="559.308594"/>
      <use xlink:href="#DejaVuSans-69" x="598.517578"/>
      <use xlink:href="#DejaVuSans-6f" x="626.300781"/>
      <use xlink:href="#DejaVuSans-6e" x="687.482422"/>
      <use xlink:href="#DejaVuSans-20" x="750.861328"/>
      <use xlink:href="#DejaVuSans-41" x="782.648438"/>
      <use xlink:href="#DejaVuSans-63" x="849.306641"/>
      <use xlink:href="#DejaVuSans-63" x="904.287109"/>
      <use xlink:href="#DejaVuSans-75" x="959.267578"/>
      <use xlink:href="#DejaVuSans-72" x="1022.646484"/>
      <use xlink:href="#DejaVuSans-61" x="1063.759766"/>
      <use xlink:href="#DejaVuSans-63" x="1125.039062"/>
      <use xlink:href="#DejaVuSans-79" x="1180.019531"/>
     </g>
    </g>
    <g id="line2d_25">
     <path d="M 141.394375 293.004312 
L 151.394375 293.004312 
L 161.394375 293.004312 
" style="fill: none; stroke: #9467bd; stroke-width: 1.5; stroke-linecap: square"/>
    </g>
    <g id="text_23">
     <!-- SWA Robust Validation Accuracy -->
     <g transform="translate(169.394375 296.504312) scale(0.1 -0.1)">
      <use xlink:href="#DejaVuSans-53"/>
      <use xlink:href="#DejaVuSans-57" x="63.476562"/>
      <use xlink:href="#DejaVuSans-41" x="156.853516"/>
      <use xlink:href="#DejaVuSans-20" x="225.261719"/>
      <use xlink:href="#DejaVuSans-52" x="257.048828"/>
      <use xlink:href="#DejaVuSans-6f" x="322.03125"/>
      <use xlink:href="#DejaVuSans-62" x="383.212891"/>
      <use xlink:href="#DejaVuSans-75" x="446.689453"/>
      <use xlink:href="#DejaVuSans-73" x="510.068359"/>
      <use xlink:href="#DejaVuSans-74" x="562.167969"/>
      <use xlink:href="#DejaVuSans-20" x="601.376953"/>
      <use xlink:href="#DejaVuSans-56" x="633.164062"/>
      <use xlink:href="#DejaVuSans-61" x="693.822266"/>
      <use xlink:href="#DejaVuSans-6c" x="755.101562"/>
      <use xlink:href="#DejaVuSans-69" x="782.884766"/>
      <use xlink:href="#DejaVuSans-64" x="810.667969"/>
      <use xlink:href="#DejaVuSans-61" x="874.144531"/>
      <use xlink:href="#DejaVuSans-74" x="935.423828"/>
      <use xlink:href="#DejaVuSans-69" x="974.632812"/>
      <use xlink:href="#DejaVuSans-6f" x="1002.416016"/>
      <use xlink:href="#DejaVuSans-6e" x="1063.597656"/>
      <use xlink:href="#DejaVuSans-20" x="1126.976562"/>
      <use xlink:href="#DejaVuSans-41" x="1158.763672"/>
      <use xlink:href="#DejaVuSans-63" x="1225.421875"/>
      <use xlink:href="#DejaVuSans-63" x="1280.402344"/>
      <use xlink:href="#DejaVuSans-75" x="1335.382812"/>
      <use xlink:href="#DejaVuSans-72" x="1398.761719"/>
      <use xlink:href="#DejaVuSans-61" x="1439.875"/>
      <use xlink:href="#DejaVuSans-63" x="1501.154297"/>
      <use xlink:href="#DejaVuSans-79" x="1556.134766"/>
     </g>
    </g>
   </g>
  </g>
 </g>
 <defs>
  <clipPath id="pb16d262494">
   <rect x="57.6" y="41.472" width="357.12" height="266.112"/>
  </clipPath>
 </defs>
</svg>
