<?xml version="1.0" encoding="utf-8" standalone="no"?>
<!DOCTYPE svg PUBLIC "-//W3C//DTD SVG 1.1//EN"
  "http://www.w3.org/Graphics/SVG/1.1/DTD/svg11.dtd">
<svg xmlns:xlink="http://www.w3.org/1999/xlink" width="460.8pt" height="345.6pt" viewBox="0 0 460.8 345.6" xmlns="http://www.w3.org/2000/svg" version="1.1">
 <metadata>
  <rdf:RDF xmlns:dc="http://purl.org/dc/elements/1.1/" xmlns:cc="http://creativecommons.org/ns#" xmlns:rdf="http://www.w3.org/1999/02/22-rdf-syntax-ns#">
   <cc:Work>
    <dc:type rdf:resource="http://purl.org/dc/dcmitype/StillImage"/>
    <dc:date>2025-01-13T11:27:37.329491</dc:date>
    <dc:format>image/svg+xml</dc:format>
    <dc:creator>
     <cc:Agent>
      <dc:title>Matplotlib v3.9.1, https://matplotlib.org/</dc:title>
     </cc:Agent>
    </dc:creator>
   </cc:Work>
  </rdf:RDF>
 </metadata>
 <defs>
  <style type="text/css">*{stroke-linejoin: round; stroke-linecap: butt}</style>
 </defs>
 <g id="figure_1">
  <g id="patch_1">
   <path d="M 0 345.6 
L 460.8 345.6 
L 460.8 0 
L 0 0 
z
" style="fill: #ffffff"/>
  </g>
  <g id="axes_1">
   <g id="patch_2">
    <path d="M 57.6 307.584 
L 414.72 307.584 
L 414.72 41.472 
L 57.6 41.472 
z
" style="fill: #ffffff"/>
   </g>
   <g id="matplotlib.axis_1">
    <g id="xtick_1">
     <g id="line2d_1">
      <defs>
       <path id="m3ca92fab64" d="M 0 0 
L 0 3.5 
" style="stroke: #000000; stroke-width: 0.8"/>
      </defs>
      <g>
       <use xlink:href="#m3ca92fab64" x="73.832727" y="307.584" style="stroke: #000000; stroke-width: 0.8"/>
      </g>
     </g>
     <g id="text_1">
      <!-- 1 -->
      <g transform="translate(70.651477 322.182437) scale(0.1 -0.1)">
       <defs>
        <path id="DejaVuSans-31" d="M 794 531 
L 1825 531 
L 1825 4091 
L 703 3866 
L 703 4441 
L 1819 4666 
L 2450 4666 
L 2450 531 
L 3481 531 
L 3481 0 
L 794 0 
L 794 531 
z
" transform="scale(0.015625)"/>
       </defs>
       <use xlink:href="#DejaVuSans-31"/>
      </g>
     </g>
    </g>
    <g id="xtick_2">
     <g id="line2d_2">
      <g>
       <use xlink:href="#m3ca92fab64" x="109.664165" y="307.584" style="stroke: #000000; stroke-width: 0.8"/>
      </g>
     </g>
     <g id="text_2">
      <!-- 34 -->
      <g transform="translate(103.301665 322.182437) scale(0.1 -0.1)">
       <defs>
        <path id="DejaVuSans-33" d="M 2597 2516 
Q 3050 2419 3304 2112 
Q 3559 1806 3559 1356 
Q 3559 666 3084 287 
Q 2609 -91 1734 -91 
Q 1441 -91 1130 -33 
Q 819 25 488 141 
L 488 750 
Q 750 597 1062 519 
Q 1375 441 1716 441 
Q 2309 441 2620 675 
Q 2931 909 2931 1356 
Q 2931 1769 2642 2001 
Q 2353 2234 1838 2234 
L 1294 2234 
L 1294 2753 
L 1863 2753 
Q 2328 2753 2575 2939 
Q 2822 3125 2822 3475 
Q 2822 3834 2567 4026 
Q 2313 4219 1838 4219 
Q 1578 4219 1281 4162 
Q 984 4106 628 3988 
L 628 4550 
Q 988 4650 1302 4700 
Q 1616 4750 1894 4750 
Q 2613 4750 3031 4423 
Q 3450 4097 3450 3541 
Q 3450 3153 3228 2886 
Q 3006 2619 2597 2516 
z
" transform="scale(0.015625)"/>
        <path id="DejaVuSans-34" d="M 2419 4116 
L 825 1625 
L 2419 1625 
L 2419 4116 
z
M 2253 4666 
L 3047 4666 
L 3047 1625 
L 3713 1625 
L 3713 1100 
L 3047 1100 
L 3047 0 
L 2419 0 
L 2419 1100 
L 313 1100 
L 313 1709 
L 2253 4666 
z
" transform="scale(0.015625)"/>
       </defs>
       <use xlink:href="#DejaVuSans-33"/>
       <use xlink:href="#DejaVuSans-34" x="63.623047"/>
      </g>
     </g>
    </g>
    <g id="xtick_3">
     <g id="line2d_3">
      <g>
       <use xlink:href="#m3ca92fab64" x="145.495604" y="307.584" style="stroke: #000000; stroke-width: 0.8"/>
      </g>
     </g>
     <g id="text_3">
      <!-- 67 -->
      <g transform="translate(139.133104 322.182437) scale(0.1 -0.1)">
       <defs>
        <path id="DejaVuSans-36" d="M 2113 2584 
Q 1688 2584 1439 2293 
Q 1191 2003 1191 1497 
Q 1191 994 1439 701 
Q 1688 409 2113 409 
Q 2538 409 2786 701 
Q 3034 994 3034 1497 
Q 3034 2003 2786 2293 
Q 2538 2584 2113 2584 
z
M 3366 4563 
L 3366 3988 
Q 3128 4100 2886 4159 
Q 2644 4219 2406 4219 
Q 1781 4219 1451 3797 
Q 1122 3375 1075 2522 
Q 1259 2794 1537 2939 
Q 1816 3084 2150 3084 
Q 2853 3084 3261 2657 
Q 3669 2231 3669 1497 
Q 3669 778 3244 343 
Q 2819 -91 2113 -91 
Q 1303 -91 875 529 
Q 447 1150 447 2328 
Q 447 3434 972 4092 
Q 1497 4750 2381 4750 
Q 2619 4750 2861 4703 
Q 3103 4656 3366 4563 
z
" transform="scale(0.015625)"/>
        <path id="DejaVuSans-37" d="M 525 4666 
L 3525 4666 
L 3525 4397 
L 1831 0 
L 1172 0 
L 2766 4134 
L 525 4134 
L 525 4666 
z
" transform="scale(0.015625)"/>
       </defs>
       <use xlink:href="#DejaVuSans-36"/>
       <use xlink:href="#DejaVuSans-37" x="63.623047"/>
      </g>
     </g>
    </g>
    <g id="xtick_4">
     <g id="line2d_4">
      <g>
       <use xlink:href="#m3ca92fab64" x="181.327042" y="307.584" style="stroke: #000000; stroke-width: 0.8"/>
      </g>
     </g>
     <g id="text_4">
      <!-- 100 -->
      <g transform="translate(171.783292 322.182437) scale(0.1 -0.1)">
       <defs>
        <path id="DejaVuSans-30" d="M 2034 4250 
Q 1547 4250 1301 3770 
Q 1056 3291 1056 2328 
Q 1056 1369 1301 889 
Q 1547 409 2034 409 
Q 2525 409 2770 889 
Q 3016 1369 3016 2328 
Q 3016 3291 2770 3770 
Q 2525 4250 2034 4250 
z
M 2034 4750 
Q 2819 4750 3233 4129 
Q 3647 3509 3647 2328 
Q 3647 1150 3233 529 
Q 2819 -91 2034 -91 
Q 1250 -91 836 529 
Q 422 1150 422 2328 
Q 422 3509 836 4129 
Q 1250 4750 2034 4750 
z
" transform="scale(0.015625)"/>
       </defs>
       <use xlink:href="#DejaVuSans-31"/>
       <use xlink:href="#DejaVuSans-30" x="63.623047"/>
       <use xlink:href="#DejaVuSans-30" x="127.246094"/>
      </g>
     </g>
    </g>
    <g id="xtick_5">
     <g id="line2d_5">
      <g>
       <use xlink:href="#m3ca92fab64" x="217.15848" y="307.584" style="stroke: #000000; stroke-width: 0.8"/>
      </g>
     </g>
     <g id="text_5">
      <!-- 133 -->
      <g transform="translate(207.61473 322.182437) scale(0.1 -0.1)">
       <use xlink:href="#DejaVuSans-31"/>
       <use xlink:href="#DejaVuSans-33" x="63.623047"/>
       <use xlink:href="#DejaVuSans-33" x="127.246094"/>
      </g>
     </g>
    </g>
    <g id="xtick_6">
     <g id="line2d_6">
      <g>
       <use xlink:href="#m3ca92fab64" x="254.075719" y="307.584" style="stroke: #000000; stroke-width: 0.8"/>
      </g>
     </g>
     <g id="text_6">
      <!-- 167 -->
      <g transform="translate(244.531969 322.182437) scale(0.1 -0.1)">
       <use xlink:href="#DejaVuSans-31"/>
       <use xlink:href="#DejaVuSans-36" x="63.623047"/>
       <use xlink:href="#DejaVuSans-37" x="127.246094"/>
      </g>
     </g>
    </g>
    <g id="xtick_7">
     <g id="line2d_7">
      <g>
       <use xlink:href="#m3ca92fab64" x="289.907157" y="307.584" style="stroke: #000000; stroke-width: 0.8"/>
      </g>
     </g>
     <g id="text_7">
      <!-- 200 -->
      <g transform="translate(280.363407 322.182437) scale(0.1 -0.1)">
       <defs>
        <path id="DejaVuSans-32" d="M 1228 531 
L 3431 531 
L 3431 0 
L 469 0 
L 469 531 
Q 828 903 1448 1529 
Q 2069 2156 2228 2338 
Q 2531 2678 2651 2914 
Q 2772 3150 2772 3378 
Q 2772 3750 2511 3984 
Q 2250 4219 1831 4219 
Q 1534 4219 1204 4116 
Q 875 4013 500 3803 
L 500 4441 
Q 881 4594 1212 4672 
Q 1544 4750 1819 4750 
Q 2544 4750 2975 4387 
Q 3406 4025 3406 3419 
Q 3406 3131 3298 2873 
Q 3191 2616 2906 2266 
Q 2828 2175 2409 1742 
Q 1991 1309 1228 531 
z
" transform="scale(0.015625)"/>
       </defs>
       <use xlink:href="#DejaVuSans-32"/>
       <use xlink:href="#DejaVuSans-30" x="63.623047"/>
       <use xlink:href="#DejaVuSans-30" x="127.246094"/>
      </g>
     </g>
    </g>
    <g id="xtick_8">
     <g id="line2d_8">
      <g>
       <use xlink:href="#m3ca92fab64" x="325.738595" y="307.584" style="stroke: #000000; stroke-width: 0.8"/>
      </g>
     </g>
     <g id="text_8">
      <!-- 233 -->
      <g transform="translate(316.194845 322.182437) scale(0.1 -0.1)">
       <use xlink:href="#DejaVuSans-32"/>
       <use xlink:href="#DejaVuSans-33" x="63.623047"/>
       <use xlink:href="#DejaVuSans-33" x="127.246094"/>
      </g>
     </g>
    </g>
    <g id="xtick_9">
     <g id="line2d_9">
      <g>
       <use xlink:href="#m3ca92fab64" x="361.570033" y="307.584" style="stroke: #000000; stroke-width: 0.8"/>
      </g>
     </g>
     <g id="text_9">
      <!-- 266 -->
      <g transform="translate(352.026283 322.182437) scale(0.1 -0.1)">
       <use xlink:href="#DejaVuSans-32"/>
       <use xlink:href="#DejaVuSans-36" x="63.623047"/>
       <use xlink:href="#DejaVuSans-36" x="127.246094"/>
      </g>
     </g>
    </g>
    <g id="xtick_10">
     <g id="line2d_10">
      <g>
       <use xlink:href="#m3ca92fab64" x="398.487273" y="307.584" style="stroke: #000000; stroke-width: 0.8"/>
      </g>
     </g>
     <g id="text_10">
      <!-- 300 -->
      <g transform="translate(388.943523 322.182437) scale(0.1 -0.1)">
       <use xlink:href="#DejaVuSans-33"/>
       <use xlink:href="#DejaVuSans-30" x="63.623047"/>
       <use xlink:href="#DejaVuSans-30" x="127.246094"/>
      </g>
     </g>
    </g>
    <g id="text_11">
     <!-- Epochs -->
     <g transform="translate(218.244375 335.860562) scale(0.1 -0.1)">
      <defs>
       <path id="DejaVuSans-45" d="M 628 4666 
L 3578 4666 
L 3578 4134 
L 1259 4134 
L 1259 2753 
L 3481 2753 
L 3481 2222 
L 1259 2222 
L 1259 531 
L 3634 531 
L 3634 0 
L 628 0 
L 628 4666 
z
" transform="scale(0.015625)"/>
       <path id="DejaVuSans-70" d="M 1159 525 
L 1159 -1331 
L 581 -1331 
L 581 3500 
L 1159 3500 
L 1159 2969 
Q 1341 3281 1617 3432 
Q 1894 3584 2278 3584 
Q 2916 3584 3314 3078 
Q 3713 2572 3713 1747 
Q 3713 922 3314 415 
Q 2916 -91 2278 -91 
Q 1894 -91 1617 61 
Q 1341 213 1159 525 
z
M 3116 1747 
Q 3116 2381 2855 2742 
Q 2594 3103 2138 3103 
Q 1681 3103 1420 2742 
Q 1159 2381 1159 1747 
Q 1159 1113 1420 752 
Q 1681 391 2138 391 
Q 2594 391 2855 752 
Q 3116 1113 3116 1747 
z
" transform="scale(0.015625)"/>
       <path id="DejaVuSans-6f" d="M 1959 3097 
Q 1497 3097 1228 2736 
Q 959 2375 959 1747 
Q 959 1119 1226 758 
Q 1494 397 1959 397 
Q 2419 397 2687 759 
Q 2956 1122 2956 1747 
Q 2956 2369 2687 2733 
Q 2419 3097 1959 3097 
z
M 1959 3584 
Q 2709 3584 3137 3096 
Q 3566 2609 3566 1747 
Q 3566 888 3137 398 
Q 2709 -91 1959 -91 
Q 1206 -91 779 398 
Q 353 888 353 1747 
Q 353 2609 779 3096 
Q 1206 3584 1959 3584 
z
" transform="scale(0.015625)"/>
       <path id="DejaVuSans-63" d="M 3122 3366 
L 3122 2828 
Q 2878 2963 2633 3030 
Q 2388 3097 2138 3097 
Q 1578 3097 1268 2742 
Q 959 2388 959 1747 
Q 959 1106 1268 751 
Q 1578 397 2138 397 
Q 2388 397 2633 464 
Q 2878 531 3122 666 
L 3122 134 
Q 2881 22 2623 -34 
Q 2366 -91 2075 -91 
Q 1284 -91 818 406 
Q 353 903 353 1747 
Q 353 2603 823 3093 
Q 1294 3584 2113 3584 
Q 2378 3584 2631 3529 
Q 2884 3475 3122 3366 
z
" transform="scale(0.015625)"/>
       <path id="DejaVuSans-68" d="M 3513 2113 
L 3513 0 
L 2938 0 
L 2938 2094 
Q 2938 2591 2744 2837 
Q 2550 3084 2163 3084 
Q 1697 3084 1428 2787 
Q 1159 2491 1159 1978 
L 1159 0 
L 581 0 
L 581 4863 
L 1159 4863 
L 1159 2956 
Q 1366 3272 1645 3428 
Q 1925 3584 2291 3584 
Q 2894 3584 3203 3211 
Q 3513 2838 3513 2113 
z
" transform="scale(0.015625)"/>
       <path id="DejaVuSans-73" d="M 2834 3397 
L 2834 2853 
Q 2591 2978 2328 3040 
Q 2066 3103 1784 3103 
Q 1356 3103 1142 2972 
Q 928 2841 928 2578 
Q 928 2378 1081 2264 
Q 1234 2150 1697 2047 
L 1894 2003 
Q 2506 1872 2764 1633 
Q 3022 1394 3022 966 
Q 3022 478 2636 193 
Q 2250 -91 1575 -91 
Q 1294 -91 989 -36 
Q 684 19 347 128 
L 347 722 
Q 666 556 975 473 
Q 1284 391 1588 391 
Q 1994 391 2212 530 
Q 2431 669 2431 922 
Q 2431 1156 2273 1281 
Q 2116 1406 1581 1522 
L 1381 1569 
Q 847 1681 609 1914 
Q 372 2147 372 2553 
Q 372 3047 722 3315 
Q 1072 3584 1716 3584 
Q 2034 3584 2315 3537 
Q 2597 3491 2834 3397 
z
" transform="scale(0.015625)"/>
      </defs>
      <use xlink:href="#DejaVuSans-45"/>
      <use xlink:href="#DejaVuSans-70" x="63.183594"/>
      <use xlink:href="#DejaVuSans-6f" x="126.660156"/>
      <use xlink:href="#DejaVuSans-63" x="187.841797"/>
      <use xlink:href="#DejaVuSans-68" x="242.822266"/>
      <use xlink:href="#DejaVuSans-73" x="306.201172"/>
     </g>
    </g>
   </g>
   <g id="matplotlib.axis_2">
    <g id="ytick_1">
     <g id="line2d_11">
      <defs>
       <path id="maaec65c468" d="M 0 0 
L -3.5 0 
" style="stroke: #000000; stroke-width: 0.8"/>
      </defs>
      <g>
       <use xlink:href="#maaec65c468" x="57.6" y="254.412944" style="stroke: #000000; stroke-width: 0.8"/>
      </g>
     </g>
     <g id="text_12">
      <!-- 20 -->
      <g transform="translate(37.875 258.212163) scale(0.1 -0.1)">
       <use xlink:href="#DejaVuSans-32"/>
       <use xlink:href="#DejaVuSans-30" x="63.623047"/>
      </g>
     </g>
    </g>
    <g id="ytick_2">
     <g id="line2d_12">
      <g>
       <use xlink:href="#maaec65c468" x="57.6" y="196.331699" style="stroke: #000000; stroke-width: 0.8"/>
      </g>
     </g>
     <g id="text_13">
      <!-- 40 -->
      <g transform="translate(37.875 200.130918) scale(0.1 -0.1)">
       <use xlink:href="#DejaVuSans-34"/>
       <use xlink:href="#DejaVuSans-30" x="63.623047"/>
      </g>
     </g>
    </g>
    <g id="ytick_3">
     <g id="line2d_13">
      <g>
       <use xlink:href="#maaec65c468" x="57.6" y="138.250455" style="stroke: #000000; stroke-width: 0.8"/>
      </g>
     </g>
     <g id="text_14">
      <!-- 60 -->
      <g transform="translate(37.875 142.049673) scale(0.1 -0.1)">
       <use xlink:href="#DejaVuSans-36"/>
       <use xlink:href="#DejaVuSans-30" x="63.623047"/>
      </g>
     </g>
    </g>
    <g id="ytick_4">
     <g id="line2d_14">
      <g>
       <use xlink:href="#maaec65c468" x="57.6" y="80.16921" style="stroke: #000000; stroke-width: 0.8"/>
      </g>
     </g>
     <g id="text_15">
      <!-- 80 -->
      <g transform="translate(37.875 83.968429) scale(0.1 -0.1)">
       <defs>
        <path id="DejaVuSans-38" d="M 2034 2216 
Q 1584 2216 1326 1975 
Q 1069 1734 1069 1313 
Q 1069 891 1326 650 
Q 1584 409 2034 409 
Q 2484 409 2743 651 
Q 3003 894 3003 1313 
Q 3003 1734 2745 1975 
Q 2488 2216 2034 2216 
z
M 1403 2484 
Q 997 2584 770 2862 
Q 544 3141 544 3541 
Q 544 4100 942 4425 
Q 1341 4750 2034 4750 
Q 2731 4750 3128 4425 
Q 3525 4100 3525 3541 
Q 3525 3141 3298 2862 
Q 3072 2584 2669 2484 
Q 3125 2378 3379 2068 
Q 3634 1759 3634 1313 
Q 3634 634 3220 271 
Q 2806 -91 2034 -91 
Q 1263 -91 848 271 
Q 434 634 434 1313 
Q 434 1759 690 2068 
Q 947 2378 1403 2484 
z
M 1172 3481 
Q 1172 3119 1398 2916 
Q 1625 2713 2034 2713 
Q 2441 2713 2670 2916 
Q 2900 3119 2900 3481 
Q 2900 3844 2670 4047 
Q 2441 4250 2034 4250 
Q 1625 4250 1398 4047 
Q 1172 3844 1172 3481 
z
" transform="scale(0.015625)"/>
       </defs>
       <use xlink:href="#DejaVuSans-38"/>
       <use xlink:href="#DejaVuSans-30" x="63.623047"/>
      </g>
     </g>
    </g>
    <g id="text_16">
     <!-- Accuracy -->
     <g transform="translate(31.795312 197.356125) rotate(-90) scale(0.1 -0.1)">
      <defs>
       <path id="DejaVuSans-41" d="M 2188 4044 
L 1331 1722 
L 3047 1722 
L 2188 4044 
z
M 1831 4666 
L 2547 4666 
L 4325 0 
L 3669 0 
L 3244 1197 
L 1141 1197 
L 716 0 
L 50 0 
L 1831 4666 
z
" transform="scale(0.015625)"/>
       <path id="DejaVuSans-75" d="M 544 1381 
L 544 3500 
L 1119 3500 
L 1119 1403 
Q 1119 906 1312 657 
Q 1506 409 1894 409 
Q 2359 409 2629 706 
Q 2900 1003 2900 1516 
L 2900 3500 
L 3475 3500 
L 3475 0 
L 2900 0 
L 2900 538 
Q 2691 219 2414 64 
Q 2138 -91 1772 -91 
Q 1169 -91 856 284 
Q 544 659 544 1381 
z
M 1991 3584 
L 1991 3584 
z
" transform="scale(0.015625)"/>
       <path id="DejaVuSans-72" d="M 2631 2963 
Q 2534 3019 2420 3045 
Q 2306 3072 2169 3072 
Q 1681 3072 1420 2755 
Q 1159 2438 1159 1844 
L 1159 0 
L 581 0 
L 581 3500 
L 1159 3500 
L 1159 2956 
Q 1341 3275 1631 3429 
Q 1922 3584 2338 3584 
Q 2397 3584 2469 3576 
Q 2541 3569 2628 3553 
L 2631 2963 
z
" transform="scale(0.015625)"/>
       <path id="DejaVuSans-61" d="M 2194 1759 
Q 1497 1759 1228 1600 
Q 959 1441 959 1056 
Q 959 750 1161 570 
Q 1363 391 1709 391 
Q 2188 391 2477 730 
Q 2766 1069 2766 1631 
L 2766 1759 
L 2194 1759 
z
M 3341 1997 
L 3341 0 
L 2766 0 
L 2766 531 
Q 2569 213 2275 61 
Q 1981 -91 1556 -91 
Q 1019 -91 701 211 
Q 384 513 384 1019 
Q 384 1609 779 1909 
Q 1175 2209 1959 2209 
L 2766 2209 
L 2766 2266 
Q 2766 2663 2505 2880 
Q 2244 3097 1772 3097 
Q 1472 3097 1187 3025 
Q 903 2953 641 2809 
L 641 3341 
Q 956 3463 1253 3523 
Q 1550 3584 1831 3584 
Q 2591 3584 2966 3190 
Q 3341 2797 3341 1997 
z
" transform="scale(0.015625)"/>
       <path id="DejaVuSans-79" d="M 2059 -325 
Q 1816 -950 1584 -1140 
Q 1353 -1331 966 -1331 
L 506 -1331 
L 506 -850 
L 844 -850 
Q 1081 -850 1212 -737 
Q 1344 -625 1503 -206 
L 1606 56 
L 191 3500 
L 800 3500 
L 1894 763 
L 2988 3500 
L 3597 3500 
L 2059 -325 
z
" transform="scale(0.015625)"/>
      </defs>
      <use xlink:href="#DejaVuSans-41"/>
      <use xlink:href="#DejaVuSans-63" x="66.658203"/>
      <use xlink:href="#DejaVuSans-63" x="121.638672"/>
      <use xlink:href="#DejaVuSans-75" x="176.619141"/>
      <use xlink:href="#DejaVuSans-72" x="239.998047"/>
      <use xlink:href="#DejaVuSans-61" x="281.111328"/>
      <use xlink:href="#DejaVuSans-63" x="342.390625"/>
      <use xlink:href="#DejaVuSans-79" x="397.371094"/>
     </g>
    </g>
   </g>
   <g id="line2d_15">
    <path d="M 73.832727 295.488 
L 76.00433 262.637248 
L 77.090131 246.432581 
L 78.175932 232.754448 
L 80.347534 210.863627 
L 84.690739 182.85685 
L 85.77654 176.752512 
L 87.948142 166.954206 
L 89.033943 161.819824 
L 90.119745 158.700861 
L 93.377148 150.540446 
L 94.462949 150.947015 
L 95.54875 180.074759 
L 96.634552 178.43106 
L 97.720353 175.474724 
L 98.806154 171.699443 
L 100.977756 165.17692 
L 102.063557 161.587499 
L 103.149358 159.194551 
L 104.23516 155.94781 
L 105.320961 152.207378 
L 107.492563 146.962641 
L 108.578364 144.610351 
L 109.664165 142.705286 
L 110.749967 139.754759 
L 111.835768 137.623177 
L 114.00737 131.286513 
L 115.093171 129.18978 
L 116.178972 126.547084 
L 117.264773 124.322572 
L 118.350575 120.95386 
L 119.436376 119.530869 
L 120.522177 117.312166 
L 121.607978 114.442952 
L 122.693779 112.020965 
L 123.77958 110.417922 
L 124.865382 107.966894 
L 125.951183 104.952477 
L 127.036984 103.825701 
L 128.122785 101.641846 
L 129.208586 99.760014 
L 130.294387 98.941068 
L 131.380189 96.989538 
L 132.46599 96.05443 
L 133.551791 95.885995 
L 134.637592 94.341034 
L 136.809194 93.789262 
L 137.894995 94.085476 
L 138.980797 127.685476 
L 140.066598 132.895364 
L 141.152399 132.488795 
L 142.2382 130.264283 
L 143.324001 131.344595 
L 144.409802 128.754171 
L 145.495604 127.801639 
L 146.581405 126.46577 
L 147.667206 125.460965 
L 148.753007 123.486202 
L 150.924609 122.446548 
L 152.01041 120.471786 
L 153.096212 119.925822 
L 154.182013 117.48641 
L 155.267814 117.271509 
L 156.353615 116.388674 
L 157.439416 114.408104 
L 158.525217 113.147741 
L 159.611019 112.956073 
L 160.69682 111.475001 
L 161.782621 109.732564 
L 162.868422 108.838112 
L 163.954223 106.706531 
L 165.040024 106.996937 
L 166.125825 106.317386 
L 167.211627 104.255502 
L 168.297428 102.547914 
L 169.383229 101.07265 
L 170.46903 100.189815 
L 171.554831 99.730973 
L 172.640632 96.86176 
L 173.726434 96.815295 
L 174.812235 95.77564 
L 175.898036 93.928657 
L 176.983837 92.970316 
L 178.069638 92.325615 
L 179.155439 90.763229 
L 180.24124 90.588985 
L 182.412843 87.510679 
L 183.498644 86.790472 
L 184.584445 85.344249 
L 188.92765 80.674517 
L 190.013451 80.901034 
L 191.099252 78.972736 
L 192.185053 78.264145 
L 193.270854 76.649487 
L 194.356656 76.469435 
L 195.442457 76.457818 
L 196.528258 74.848968 
L 197.614059 73.588605 
L 198.69986 73.327239 
L 199.785661 71.596418 
L 200.871462 70.823938 
L 201.957264 70.748432 
L 203.043065 69.73201 
L 204.128866 68.872408 
L 205.214667 68.233514 
L 206.300468 68.169625 
L 208.472071 66.740826 
L 209.557872 65.956729 
L 210.643673 65.561777 
L 211.729474 64.713791 
L 212.815275 64.725407 
L 213.901076 64.347879 
L 214.986877 64.115554 
L 217.15848 63.296608 
L 218.244281 63.84838 
L 219.330082 62.791302 
L 220.415883 63.133981 
L 221.501684 62.373117 
L 222.587486 63.401155 
L 224.759088 62.326652 
L 225.844889 95.903419 
L 226.93069 103.134534 
L 228.016491 104.836315 
L 229.102292 104.63303 
L 230.188094 106.061829 
L 231.273895 104.830506 
L 232.359696 105.109296 
L 233.445497 105.027983 
L 234.531298 103.866358 
L 235.617099 104.487827 
L 236.702901 103.273929 
L 237.788702 102.484024 
L 238.874503 102.089072 
L 239.960304 103.041604 
L 241.046105 102.152961 
L 242.131906 100.532494 
L 243.217708 100.70093 
L 244.303509 99.760014 
L 245.38931 99.800671 
L 246.475111 99.150161 
L 247.560912 99.498648 
L 249.732514 98.122123 
L 250.818316 98.546116 
L 251.904117 97.204439 
L 252.989918 97.593583 
L 254.075719 96.391302 
L 255.16152 96.339029 
L 256.247321 95.740792 
L 257.333123 95.601397 
L 258.418924 95.084474 
L 259.504725 94.892806 
L 260.590526 93.847343 
L 261.676327 94.062244 
L 262.762128 93.040014 
L 263.847929 92.912235 
L 264.933731 92.58698 
L 266.019532 92.453393 
L 267.105333 91.216263 
L 268.191134 91.251111 
L 269.276935 91.088484 
L 270.362736 90.101103 
L 271.448538 90.060446 
L 272.534339 88.771042 
L 273.62014 88.742002 
L 274.705941 88.347049 
L 275.791742 87.597801 
L 276.877543 87.923056 
L 277.963344 86.337438 
L 279.049146 87.690731 
L 280.134947 85.390714 
L 281.220748 85.628847 
L 282.306549 84.850558 
L 283.39235 84.821518 
L 284.478151 83.839945 
L 286.649754 83.665701 
L 287.735555 82.817715 
L 288.821356 82.33564 
L 289.907157 82.14978 
L 290.992958 82.608622 
L 292.07876 81.452806 
L 293.164561 80.976539 
L 294.250362 80.215675 
L 295.336163 80.616436 
L 296.421964 78.699755 
L 297.507765 79.280567 
L 298.593566 79.152788 
L 299.679368 78.420965 
L 300.765169 77.497473 
L 301.85097 76.899236 
L 302.936771 77.00959 
L 304.022572 76.806306 
L 306.194175 74.889625 
L 307.279976 75.110334 
L 308.365777 74.965131 
L 309.451578 74.37851 
L 310.537379 74.279772 
L 311.62318 73.675727 
L 312.708981 72.926479 
L 313.794783 72.548951 
L 314.880584 72.014603 
L 315.966385 71.230506 
L 317.052186 71.608035 
L 318.137987 70.428985 
L 320.30959 69.005995 
L 321.395391 69.133774 
L 322.481192 69.035035 
L 324.652794 67.577196 
L 325.738595 68.082503 
L 326.824396 67.484266 
L 327.910198 66.514309 
L 328.995999 66.345874 
L 330.0818 65.881224 
L 332.253402 65.178441 
L 333.339203 64.59182 
L 334.425005 64.411768 
L 335.510806 63.714793 
L 336.596607 63.2908 
L 337.682408 63.128173 
L 338.768209 62.355692 
L 339.85401 61.798112 
L 340.939811 60.950126 
L 342.025613 61.455433 
L 343.111414 61.014016 
L 344.197215 60.131181 
L 345.283016 60.276384 
L 346.368817 59.869815 
L 347.454618 59.207689 
L 348.54042 59.54456 
L 349.626221 58.05768 
L 350.712022 57.703385 
L 351.797823 57.877628 
L 352.883624 58.185459 
L 353.969425 56.977369 
L 355.055227 56.379132 
L 356.141028 56.425597 
L 357.226829 56.594033 
L 358.31263 55.711198 
L 359.398431 55.647309 
L 361.570033 55.072304 
L 362.655835 54.665736 
L 363.741636 54.764474 
L 364.827437 54.230126 
L 366.999039 53.568 
L 368.08484 53.864214 
L 369.170642 54.781898 
L 370.256443 55.507914 
L 371.342244 55.792512 
L 372.428045 56.936712 
L 373.513846 56.890247 
L 374.599647 57.19227 
L 375.685448 56.919288 
L 376.77125 57.639495 
L 378.942852 57.093532 
L 380.028653 57.018026 
L 381.114454 56.692771 
L 382.200255 57.720809 
L 383.286057 56.84959 
L 384.371858 56.390748 
L 385.457659 56.576608 
L 387.629261 57.244543 
L 388.715062 57.308432 
L 389.800863 57.180653 
L 390.886665 57.349089 
L 391.972466 56.733428 
L 393.058267 57.273583 
L 394.144068 57.238735 
L 395.229869 57.447827 
L 396.31567 56.692771 
L 397.401472 57.076107 
L 398.487273 56.983177 
L 398.487273 56.983177 
" clip-path="url(#pa90acf01d8)" style="fill: none; stroke: #1f77b4; stroke-width: 1.5; stroke-linecap: square"/>
   </g>
   <g id="line2d_16">
    <path d="M 73.832727 279.097473 
L 74.918528 261.469815 
L 76.00433 236.814327 
L 77.090131 232.167827 
L 78.175932 212.100757 
L 80.347534 180.882088 
L 81.433335 176.75832 
L 82.519137 170.543627 
L 83.604938 153.554863 
L 84.690739 149.837663 
L 85.77654 145.626773 
L 87.948142 134.736539 
L 89.033943 132.616574 
L 90.119745 127.447343 
L 91.205546 125.966271 
L 92.291347 123.613981 
L 93.377148 121.581137 
L 94.462949 121.900584 
L 95.54875 152.741725 
L 96.634552 153.264456 
L 97.720353 147.746738 
L 98.806154 154.716487 
L 99.891955 150.040947 
L 100.977756 147.253048 
L 102.063557 140.544664 
L 103.149358 137.55348 
L 104.23516 134.910783 
L 105.320961 133.342589 
L 106.406762 136.508017 
L 107.492563 128.754171 
L 108.578364 126.634206 
L 109.664165 119.780619 
L 110.749967 122.19099 
L 111.835768 121.813462 
L 112.921569 112.723748 
L 114.00737 114.291941 
L 115.093171 110.690904 
L 116.178972 112.084854 
L 117.264773 109.935848 
L 119.436376 107.089867 
L 120.522177 105.463592 
L 121.607978 100.729971 
L 122.693779 101.659271 
L 123.77958 100.846133 
L 124.865382 97.825908 
L 125.951183 95.357455 
L 127.036984 98.203436 
L 128.122785 94.573359 
L 129.208586 95.415537 
L 130.294387 93.731181 
L 131.380189 93.673099 
L 132.46599 92.221068 
L 133.551791 92.569556 
L 134.637592 92.337231 
L 135.723393 92.656678 
L 136.809194 92.133946 
L 137.894995 92.366271 
L 138.980797 129.770593 
L 140.066598 123.613981 
L 141.152399 119.664456 
L 142.2382 122.568519 
L 143.324001 117.137922 
L 144.409802 113.827291 
L 145.495604 120.041984 
L 146.581405 115.62781 
L 147.667206 119.693497 
L 148.753007 111.533082 
L 149.838808 114.408104 
L 150.924609 113.478804 
L 152.01041 109.500239 
L 153.096212 111.213635 
L 154.182013 111.591163 
L 155.267814 112.927032 
L 156.353615 108.019167 
L 157.439416 104.621414 
L 158.525217 103.98252 
L 159.611019 107.815882 
L 160.69682 109.819685 
L 161.782621 103.48883 
L 162.868422 106.625217 
L 163.954223 105.666876 
L 165.040024 100.846133 
L 166.125825 102.878977 
L 168.297428 104.534292 
L 169.383229 101.368864 
L 170.46903 101.252702 
L 171.554831 102.356245 
L 172.640632 98.319599 
L 173.726434 98.406721 
L 174.812235 98.34864 
L 175.898036 98.81329 
L 176.983837 100.003955 
L 178.069638 96.693324 
L 179.155439 95.764024 
L 180.24124 95.067049 
L 181.327042 97.012771 
L 182.412843 94.776643 
L 183.498644 93.295571 
L 184.584445 92.656678 
L 185.670246 93.615018 
L 186.756047 92.976124 
L 187.841849 92.685718 
L 188.92765 95.531699 
L 190.013451 91.262728 
L 191.099252 92.685718 
L 192.185053 91.059443 
L 193.270854 90.681915 
L 194.356656 91.34985 
L 195.442457 90.217265 
L 196.528258 90.769037 
L 197.614059 88.445787 
L 198.69986 88.649072 
L 199.785661 88.968519 
L 200.871462 88.794275 
L 201.957264 86.964716 
L 203.043065 86.761431 
L 204.128866 87.400325 
L 205.214667 85.628847 
L 206.300468 85.512685 
L 207.386269 85.832131 
L 208.472071 85.919253 
L 209.557872 85.512685 
L 210.643673 85.948294 
L 211.729474 85.657888 
L 212.815275 85.018994 
L 213.901076 85.367481 
L 214.986877 84.525303 
L 216.072679 85.164197 
L 218.244281 84.873791 
L 219.330082 84.554344 
L 220.415883 84.757628 
L 221.501684 84.322019 
L 222.587486 84.089694 
L 223.673287 84.583385 
L 224.759088 84.612425 
L 225.844889 118.44475 
L 226.93069 109.703523 
L 228.016491 106.567136 
L 229.102292 112.433341 
L 230.188094 107.23507 
L 231.273895 110.894188 
L 232.359696 108.687101 
L 233.445497 107.002745 
L 234.531298 111.039392 
L 235.617099 114.379063 
L 236.702901 109.500239 
L 237.788702 108.106289 
L 238.874503 105.783039 
L 239.960304 107.380273 
L 241.046105 105.405511 
L 242.131906 111.736366 
L 243.217708 105.144145 
L 244.303509 106.683298 
L 245.38931 111.039392 
L 246.475111 106.30577 
L 247.560912 103.98252 
L 248.646713 109.09367 
L 249.732514 104.272927 
L 250.818316 100.846133 
L 251.904117 103.663073 
L 252.989918 107.23507 
L 254.075719 105.34743 
L 255.16152 106.189608 
L 256.247321 100.352443 
L 257.333123 102.704733 
L 258.418924 106.392892 
L 259.504725 106.334811 
L 260.590526 107.351232 
L 261.676327 104.795658 
L 262.762128 104.331008 
L 263.847929 106.363851 
L 264.933731 102.966099 
L 266.019532 100.439564 
L 267.105333 102.995139 
L 268.191134 102.966099 
L 269.276935 102.791855 
L 270.362736 99.974914 
L 271.448538 103.692114 
L 272.534339 99.974914 
L 273.62014 103.169383 
L 274.705941 99.829711 
L 275.791742 101.223661 
L 276.877543 100.642849 
L 277.963344 99.336021 
L 279.049146 98.900411 
L 280.134947 99.277939 
L 281.220748 101.920636 
L 282.306549 101.223661 
L 283.39235 96.05443 
L 284.478151 96.315796 
L 285.563953 100.120118 
L 286.649754 98.580965 
L 287.735555 99.481224 
L 288.821356 96.083471 
L 289.907157 97.187015 
L 290.992958 97.070852 
L 292.07876 98.232477 
L 293.164561 97.041812 
L 294.250362 95.270334 
L 295.336163 98.319599 
L 296.421964 97.767827 
L 297.507765 97.738787 
L 298.593566 96.838527 
L 299.679368 94.805684 
L 300.765169 96.867568 
L 301.85097 95.851146 
L 302.936771 96.664283 
L 304.022572 96.693324 
L 305.108373 96.083471 
L 306.194175 94.486237 
L 307.279976 94.311993 
L 308.365777 97.274137 
L 309.451578 93.382693 
L 310.537379 93.934465 
L 311.62318 93.673099 
L 312.708981 90.594793 
L 313.794783 92.540515 
L 314.880584 90.856159 
L 315.966385 94.805684 
L 317.052186 93.295571 
L 318.137987 92.627637 
L 319.223788 88.997559 
L 320.30959 90.391509 
L 322.481192 91.611215 
L 323.566993 91.204646 
L 324.652794 92.540515 
L 325.738595 91.988743 
L 326.824396 90.304387 
L 327.910198 91.466012 
L 328.995999 91.8145 
L 330.0818 90.275347 
L 331.167601 86.296781 
L 332.253402 89.287965 
L 333.339203 87.661691 
L 334.425005 88.358666 
L 335.510806 87.894016 
L 336.596607 88.068259 
L 337.682408 86.964716 
L 338.768209 87.516487 
L 339.85401 86.848553 
L 340.939811 85.977334 
L 342.025613 87.952097 
L 343.111414 86.354863 
L 344.197215 87.226081 
L 345.283016 87.168 
L 346.368817 87.574569 
L 347.454618 86.761431 
L 348.54042 86.500066 
L 349.626221 85.164197 
L 350.712022 85.396522 
L 352.883624 85.338441 
L 353.969425 84.989953 
L 355.055227 84.35106 
L 356.141028 84.060653 
L 357.226829 84.467222 
L 358.31263 83.741207 
L 359.398431 83.566963 
L 360.484232 83.973532 
L 361.570033 82.02781 
L 362.655835 82.143972 
L 363.741636 82.782866 
L 364.827437 82.753825 
L 365.913238 83.131354 
L 366.999039 82.347257 
L 368.08484 82.202054 
L 369.170642 84.060653 
L 370.256443 84.322019 
L 371.342244 85.338441 
L 372.428045 85.251319 
L 373.513846 85.541725 
L 374.599647 85.3094 
L 375.685448 85.570766 
L 376.77125 84.612425 
L 377.857051 85.28036 
L 378.942852 83.683125 
L 380.028653 84.554344 
L 381.114454 86.006375 
L 382.200255 86.093497 
L 383.286057 85.715969 
L 384.371858 86.209659 
L 385.457659 86.267741 
L 386.54346 84.3801 
L 387.629261 86.006375 
L 388.715062 84.147775 
L 389.800863 87.284162 
L 390.886665 85.541725 
L 391.972466 83.537922 
L 393.058267 86.500066 
L 395.229869 84.496263 
L 396.31567 86.064456 
L 398.487273 85.3094 
L 398.487273 85.3094 
" clip-path="url(#pa90acf01d8)" style="fill: none; stroke: #ff7f0e; stroke-width: 1.5; stroke-linecap: square"/>
   </g>
   <g id="line2d_17">
    <path d="M 73.832727 286.117172 
L 74.918528 271.957545 
L 76.00433 254.913604 
L 77.090131 243.838092 
L 78.175932 230.63971 
L 79.261733 232.221843 
L 80.347534 205.384242 
L 81.433335 216.579983 
L 82.519137 202.059712 
L 83.604938 196.311671 
L 84.690739 182.131836 
L 85.77654 180.169091 
L 87.948142 171.156484 
L 89.033943 174.200742 
L 90.119745 171.016288 
L 91.205546 169.974831 
L 92.291347 168.632954 
L 93.377148 165.728892 
L 94.462949 166.429872 
L 95.54875 195.931139 
L 96.634552 196.091363 
L 97.720353 182.672593 
L 98.806154 193.968393 
L 99.891955 193.748085 
L 100.977756 192.786741 
L 102.063557 168.27245 
L 103.149358 175.122031 
L 104.23516 179.828615 
L 105.320961 183.253405 
L 106.406762 182.071752 
L 107.492563 168.492758 
L 108.578364 171.216568 
L 109.664165 164.507183 
L 110.749967 166.469928 
L 111.835768 166.55004 
L 112.921569 158.418666 
L 114.00737 159.860683 
L 115.093171 152.069785 
L 116.178972 166.409844 
L 117.264773 159.700459 
L 118.350575 158.819226 
L 119.436376 159.420067 
L 120.522177 157.337153 
L 121.607978 154.813623 
L 122.693779 154.733511 
L 123.77958 150.287292 
L 124.865382 152.129869 
L 125.951183 152.370205 
L 127.036984 146.662221 
L 129.208586 148.024126 
L 130.294387 146.782389 
L 131.380189 143.397655 
L 132.46599 147.102837 
L 133.551791 147.28309 
L 134.637592 146.842473 
L 135.723393 146.081409 
L 136.809194 146.281689 
L 137.894995 146.762361 
L 138.980797 179.428054 
L 140.066598 175.282255 
L 141.152399 164.226791 
L 142.2382 173.199341 
L 143.324001 171.557044 
L 144.409802 156.395837 
L 145.495604 165.9492 
L 146.581405 162.985054 
L 147.667206 173.379594 
L 148.753007 166.570068 
L 149.838808 161.803401 
L 150.924609 164.567267 
L 152.01041 152.770766 
L 153.096212 159.079591 
L 154.182013 162.183933 
L 155.267814 166.990657 
L 156.353615 151.248637 
L 157.439416 163.886314 
L 158.525217 155.394436 
L 159.611019 164.086594 
L 160.69682 159.099619 
L 161.782621 159.620347 
L 162.868422 162.824829 
L 163.954223 150.667824 
L 165.040024 150.327348 
L 166.125825 148.544855 
L 167.211627 151.048356 
L 168.297428 161.262644 
L 169.383229 155.55466 
L 170.46903 151.589113 
L 171.554831 153.892335 
L 172.640632 152.129869 
L 173.726434 151.388833 
L 174.812235 148.444714 
L 175.898036 152.450318 
L 176.983837 154.653399 
L 178.069638 147.463342 
L 179.155439 148.504798 
L 180.24124 153.071186 
L 181.327042 147.343174 
L 182.412843 148.204378 
L 183.498644 136.688269 
L 184.584445 147.343174 
L 185.670246 144.819644 
L 186.756047 143.617963 
L 187.841849 147.763762 
L 188.92765 145.220204 
L 190.013451 142.23603 
L 191.099252 140.51362 
L 192.185053 149.085611 
L 193.270854 148.905359 
L 194.356656 141.334769 
L 195.442457 141.855497 
L 196.528258 145.039952 
L 197.614059 147.403258 
L 198.69986 142.416282 
L 199.785661 143.437711 
L 200.871462 142.496394 
L 201.957264 143.617963 
L 203.043065 137.609558 
L 204.128866 142.155918 
L 205.214667 141.214601 
L 206.300468 137.930006 
L 207.386269 138.851295 
L 208.472071 138.350595 
L 209.557872 138.390651 
L 210.643673 136.708297 
L 211.729474 138.270483 
L 212.815275 138.530847 
L 213.901076 139.271883 
L 214.986877 138.310539 
L 216.072679 138.410679 
L 217.15848 138.711099 
L 219.330082 138.610959 
L 220.415883 138.310539 
L 221.501684 138.610959 
L 222.587486 137.99009 
L 223.673287 139.031547 
L 224.759088 138.410679 
L 225.844889 162.904942 
L 226.93069 160.040935 
L 228.016491 160.581692 
L 229.102292 160.281272 
L 230.188094 155.574688 
L 231.273895 156.1555 
L 232.359696 160.361384 
L 233.445497 157.897938 
L 234.531298 167.651581 
L 235.617099 164.747519 
L 236.702901 162.584493 
L 237.788702 165.869088 
L 238.874503 161.422868 
L 239.960304 156.095416 
L 241.046105 158.839254 
L 242.131906 154.192755 
L 243.217708 157.076789 
L 244.303509 161.282672 
L 245.38931 163.666006 
L 246.475111 154.893735 
L 247.560912 157.577489 
L 248.646713 154.012503 
L 249.732514 146.642193 
L 250.818316 160.241216 
L 251.904117 154.332951 
L 252.989918 162.003681 
L 254.075719 148.064182 
L 255.16152 154.072587 
L 256.247321 143.597935 
L 257.333123 155.214184 
L 258.418924 163.72609 
L 259.504725 154.352979 
L 260.590526 150.20718 
L 261.676327 143.617963 
L 262.762128 154.893735 
L 263.847929 159.700459 
L 264.933731 156.736313 
L 266.019532 155.714884 
L 267.105333 153.351578 
L 268.191134 157.417265 
L 269.276935 157.417265 
L 270.362736 161.523008 
L 271.448538 152.450318 
L 272.534339 150.5076 
L 273.62014 153.992475 
L 274.705941 154.272867 
L 275.791742 155.134072 
L 276.877543 153.872307 
L 277.963344 151.649197 
L 279.049146 153.551858 
L 280.134947 149.486171 
L 281.220748 150.948216 
L 282.306549 159.960823 
L 283.39235 149.746535 
L 284.478151 141.434909 
L 285.563953 151.488973 
L 286.649754 146.902557 
L 287.735555 147.663622 
L 288.821356 153.892335 
L 289.907157 154.833651 
L 290.992958 142.957038 
L 292.07876 143.557879 
L 293.164561 147.48337 
L 294.250362 148.164322 
L 295.336163 146.642193 
L 296.421964 142.456338 
L 297.507765 151.709281 
L 298.593566 139.552276 
L 299.679368 140.453536 
L 300.765169 142.776786 
L 301.85097 146.622165 
L 302.936771 147.243034 
L 304.022572 146.542053 
L 305.108373 144.338971 
L 306.194175 143.577907 
L 307.279976 147.002697 
L 308.365777 137.669642 
L 310.537379 150.026928 
L 311.62318 151.368805 
L 313.794783 141.575105 
L 314.880584 139.952836 
L 315.966385 143.938411 
L 317.052186 149.726507 
L 318.137987 141.815441 
L 319.223788 144.539251 
L 320.30959 135.967261 
L 321.395391 139.552276 
L 322.481192 142.33617 
L 323.566993 139.852696 
L 324.652794 142.576506 
L 325.738595 141.655217 
L 326.824396 143.637991 
L 327.910198 144.419083 
L 328.995999 139.151715 
L 330.0818 142.296114 
L 331.167601 139.532248 
L 332.253402 136.067401 
L 333.339203 141.775385 
L 334.425005 141.354797 
L 335.510806 141.134489 
L 336.596607 138.210399 
L 337.682408 142.756758 
L 338.768209 141.735329 
L 339.85401 133.964459 
L 340.939811 137.168942 
L 342.025613 136.147513 
L 343.111414 134.605356 
L 344.197215 138.791211 
L 345.283016 135.045972 
L 346.368817 137.38925 
L 347.454618 137.369222 
L 348.54042 131.440929 
L 350.712022 140.31334 
L 351.797823 140.653816 
L 352.883624 140.353396 
L 353.969425 139.331967 
L 355.055227 141.595133 
L 356.141028 135.807037 
L 357.226829 141.094433 
L 358.31263 138.931407 
L 359.398431 138.350595 
L 360.484232 141.094433 
L 361.570033 137.58953 
L 362.655835 133.523843 
L 363.741636 132.302134 
L 364.827437 136.027345 
L 365.913238 137.68967 
L 366.999039 136.067401 
L 368.08484 136.948634 
L 369.170642 139.51222 
L 370.256443 139.952836 
L 371.342244 136.608157 
L 372.428045 137.249054 
L 373.513846 138.771183 
L 374.599647 141.675245 
L 375.685448 137.028746 
L 376.77125 139.031547 
L 377.857051 136.287709 
L 378.942852 132.74275 
L 380.028653 131.861518 
L 381.114454 137.629586 
L 382.200255 136.347793 
L 383.286057 135.766981 
L 384.371858 138.110259 
L 385.457659 137.028746 
L 386.54346 140.854097 
L 387.629261 137.78981 
L 388.715062 137.18897 
L 389.800863 138.290511 
L 390.886665 140.073004 
L 391.972466 138.751155 
L 393.058267 143.878327 
L 394.144068 138.330567 
L 395.229869 138.430707 
L 396.31567 142.075806 
L 397.401472 135.646813 
L 398.487273 132.762778 
L 398.487273 132.762778 
" clip-path="url(#pa90acf01d8)" style="fill: none; stroke: #2ca02c; stroke-width: 1.5; stroke-linecap: square"/>
   </g>
   <g id="line2d_18">
    <path d="M 368.08484 81.737404 
L 370.256443 83.741207 
L 371.342244 85.977334 
L 372.428045 86.500066 
L 373.513846 89.665494 
L 374.599647 86.761431 
L 375.685448 91.204646 
L 376.77125 90.91424 
L 377.857051 89.694534 
L 380.028653 95.125131 
L 381.114454 93.411734 
L 382.200255 97.593583 
L 383.286057 97.796868 
L 384.371858 105.81208 
L 385.457659 109.035589 
L 386.54346 106.741379 
L 388.715062 114.640429 
L 389.800863 118.996522 
L 390.886665 122.278112 
L 391.972466 119.403091 
L 393.058267 125.4145 
L 394.144068 130.177162 
L 395.229869 138.163333 
L 396.31567 131.600152 
L 397.401472 136.508017 
L 398.487273 139.208795 
L 398.487273 139.208795 
" clip-path="url(#pa90acf01d8)" style="fill: none; stroke: #d62728; stroke-width: 1.5; stroke-linecap: square"/>
   </g>
   <g id="line2d_19">
    <path d="M 368.08484 136.668241 
L 369.170642 138.270483 
L 370.256443 138.150315 
L 371.342244 144.499195 
L 372.428045 143.537851 
L 373.513846 139.692472 
L 374.599647 138.831267 
L 375.685448 141.535049 
L 376.77125 142.977066 
L 378.942852 141.154517 
L 380.028653 147.443314 
L 381.114454 147.743734 
L 382.200255 146.021325 
L 383.286057 150.727908 
L 384.371858 156.616145 
L 385.457659 151.689253 
L 386.54346 148.965443 
L 387.629261 153.13127 
L 388.715062 161.863485 
L 389.800863 161.422868 
L 390.886665 172.037717 
L 391.972466 168.252422 
L 393.058267 168.853262 
L 394.144068 171.156484 
L 395.229869 181.3908 
L 396.31567 177.164889 
L 397.401472 180.769931 
L 398.487273 179.628334 
L 398.487273 179.628334 
" clip-path="url(#pa90acf01d8)" style="fill: none; stroke: #9467bd; stroke-width: 1.5; stroke-linecap: square"/>
   </g>
   <g id="patch_3">
    <path d="M 57.6 307.584 
L 57.6 41.472 
" style="fill: none; stroke: #000000; stroke-width: 0.8; stroke-linejoin: miter; stroke-linecap: square"/>
   </g>
   <g id="patch_4">
    <path d="M 414.72 307.584 
L 414.72 41.472 
" style="fill: none; stroke: #000000; stroke-width: 0.8; stroke-linejoin: miter; stroke-linecap: square"/>
   </g>
   <g id="patch_5">
    <path d="M 57.6 307.584 
L 414.72 307.584 
" style="fill: none; stroke: #000000; stroke-width: 0.8; stroke-linejoin: miter; stroke-linecap: square"/>
   </g>
   <g id="patch_6">
    <path d="M 57.6 41.472 
L 414.72 41.472 
" style="fill: none; stroke: #000000; stroke-width: 0.8; stroke-linejoin: miter; stroke-linecap: square"/>
   </g>
   <g id="text_17">
    <!-- Learning Curves -->
    <g transform="translate(187.37625 35.472) scale(0.12 -0.12)">
     <defs>
      <path id="DejaVuSans-4c" d="M 628 4666 
L 1259 4666 
L 1259 531 
L 3531 531 
L 3531 0 
L 628 0 
L 628 4666 
z
" transform="scale(0.015625)"/>
      <path id="DejaVuSans-65" d="M 3597 1894 
L 3597 1613 
L 953 1613 
Q 991 1019 1311 708 
Q 1631 397 2203 397 
Q 2534 397 2845 478 
Q 3156 559 3463 722 
L 3463 178 
Q 3153 47 2828 -22 
Q 2503 -91 2169 -91 
Q 1331 -91 842 396 
Q 353 884 353 1716 
Q 353 2575 817 3079 
Q 1281 3584 2069 3584 
Q 2775 3584 3186 3129 
Q 3597 2675 3597 1894 
z
M 3022 2063 
Q 3016 2534 2758 2815 
Q 2500 3097 2075 3097 
Q 1594 3097 1305 2825 
Q 1016 2553 972 2059 
L 3022 2063 
z
" transform="scale(0.015625)"/>
      <path id="DejaVuSans-6e" d="M 3513 2113 
L 3513 0 
L 2938 0 
L 2938 2094 
Q 2938 2591 2744 2837 
Q 2550 3084 2163 3084 
Q 1697 3084 1428 2787 
Q 1159 2491 1159 1978 
L 1159 0 
L 581 0 
L 581 3500 
L 1159 3500 
L 1159 2956 
Q 1366 3272 1645 3428 
Q 1925 3584 2291 3584 
Q 2894 3584 3203 3211 
Q 3513 2838 3513 2113 
z
" transform="scale(0.015625)"/>
      <path id="DejaVuSans-69" d="M 603 3500 
L 1178 3500 
L 1178 0 
L 603 0 
L 603 3500 
z
M 603 4863 
L 1178 4863 
L 1178 4134 
L 603 4134 
L 603 4863 
z
" transform="scale(0.015625)"/>
      <path id="DejaVuSans-67" d="M 2906 1791 
Q 2906 2416 2648 2759 
Q 2391 3103 1925 3103 
Q 1463 3103 1205 2759 
Q 947 2416 947 1791 
Q 947 1169 1205 825 
Q 1463 481 1925 481 
Q 2391 481 2648 825 
Q 2906 1169 2906 1791 
z
M 3481 434 
Q 3481 -459 3084 -895 
Q 2688 -1331 1869 -1331 
Q 1566 -1331 1297 -1286 
Q 1028 -1241 775 -1147 
L 775 -588 
Q 1028 -725 1275 -790 
Q 1522 -856 1778 -856 
Q 2344 -856 2625 -561 
Q 2906 -266 2906 331 
L 2906 616 
Q 2728 306 2450 153 
Q 2172 0 1784 0 
Q 1141 0 747 490 
Q 353 981 353 1791 
Q 353 2603 747 3093 
Q 1141 3584 1784 3584 
Q 2172 3584 2450 3431 
Q 2728 3278 2906 2969 
L 2906 3500 
L 3481 3500 
L 3481 434 
z
" transform="scale(0.015625)"/>
      <path id="DejaVuSans-20" transform="scale(0.015625)"/>
      <path id="DejaVuSans-43" d="M 4122 4306 
L 4122 3641 
Q 3803 3938 3442 4084 
Q 3081 4231 2675 4231 
Q 1875 4231 1450 3742 
Q 1025 3253 1025 2328 
Q 1025 1406 1450 917 
Q 1875 428 2675 428 
Q 3081 428 3442 575 
Q 3803 722 4122 1019 
L 4122 359 
Q 3791 134 3420 21 
Q 3050 -91 2638 -91 
Q 1578 -91 968 557 
Q 359 1206 359 2328 
Q 359 3453 968 4101 
Q 1578 4750 2638 4750 
Q 3056 4750 3426 4639 
Q 3797 4528 4122 4306 
z
" transform="scale(0.015625)"/>
      <path id="DejaVuSans-76" d="M 191 3500 
L 800 3500 
L 1894 563 
L 2988 3500 
L 3597 3500 
L 2284 0 
L 1503 0 
L 191 3500 
z
" transform="scale(0.015625)"/>
     </defs>
     <use xlink:href="#DejaVuSans-4c"/>
     <use xlink:href="#DejaVuSans-65" x="53.962891"/>
     <use xlink:href="#DejaVuSans-61" x="115.486328"/>
     <use xlink:href="#DejaVuSans-72" x="176.765625"/>
     <use xlink:href="#DejaVuSans-6e" x="216.128906"/>
     <use xlink:href="#DejaVuSans-69" x="279.507812"/>
     <use xlink:href="#DejaVuSans-6e" x="307.291016"/>
     <use xlink:href="#DejaVuSans-67" x="370.669922"/>
     <use xlink:href="#DejaVuSans-20" x="434.146484"/>
     <use xlink:href="#DejaVuSans-43" x="465.933594"/>
     <use xlink:href="#DejaVuSans-75" x="535.757812"/>
     <use xlink:href="#DejaVuSans-72" x="599.136719"/>
     <use xlink:href="#DejaVuSans-76" x="640.25"/>
     <use xlink:href="#DejaVuSans-65" x="699.429688"/>
     <use xlink:href="#DejaVuSans-73" x="760.953125"/>
    </g>
   </g>
   <g id="legend_1">
    <g id="patch_7">
     <path d="M 214.18875 302.584 
L 407.72 302.584 
Q 409.72 302.584 409.72 300.584 
L 409.72 228.193375 
Q 409.72 226.193375 407.72 226.193375 
L 214.18875 226.193375 
Q 212.18875 226.193375 212.18875 228.193375 
L 212.18875 300.584 
Q 212.18875 302.584 214.18875 302.584 
z
" style="fill: #ffffff; opacity: 0.8; stroke: #cccccc; stroke-linejoin: miter"/>
    </g>
    <g id="line2d_20">
     <path d="M 216.18875 234.291812 
L 226.18875 234.291812 
L 236.18875 234.291812 
" style="fill: none; stroke: #1f77b4; stroke-width: 1.5; stroke-linecap: square"/>
    </g>
    <g id="text_18">
     <!-- Train Accuracy -->
     <g transform="translate(244.18875 237.791812) scale(0.1 -0.1)">
      <defs>
       <path id="DejaVuSans-54" d="M -19 4666 
L 3928 4666 
L 3928 4134 
L 2272 4134 
L 2272 0 
L 1638 0 
L 1638 4134 
L -19 4134 
L -19 4666 
z
" transform="scale(0.015625)"/>
      </defs>
      <use xlink:href="#DejaVuSans-54"/>
      <use xlink:href="#DejaVuSans-72" x="46.333984"/>
      <use xlink:href="#DejaVuSans-61" x="87.447266"/>
      <use xlink:href="#DejaVuSans-69" x="148.726562"/>
      <use xlink:href="#DejaVuSans-6e" x="176.509766"/>
      <use xlink:href="#DejaVuSans-20" x="239.888672"/>
      <use xlink:href="#DejaVuSans-41" x="271.675781"/>
      <use xlink:href="#DejaVuSans-63" x="338.333984"/>
      <use xlink:href="#DejaVuSans-63" x="393.314453"/>
      <use xlink:href="#DejaVuSans-75" x="448.294922"/>
      <use xlink:href="#DejaVuSans-72" x="511.673828"/>
      <use xlink:href="#DejaVuSans-61" x="552.787109"/>
      <use xlink:href="#DejaVuSans-63" x="614.066406"/>
      <use xlink:href="#DejaVuSans-79" x="669.046875"/>
     </g>
    </g>
    <g id="line2d_21">
     <path d="M 216.18875 248.969937 
L 226.18875 248.969937 
L 236.18875 248.969937 
" style="fill: none; stroke: #ff7f0e; stroke-width: 1.5; stroke-linecap: square"/>
    </g>
    <g id="text_19">
     <!-- Validation Accuracy -->
     <g transform="translate(244.18875 252.469937) scale(0.1 -0.1)">
      <defs>
       <path id="DejaVuSans-56" d="M 1831 0 
L 50 4666 
L 709 4666 
L 2188 738 
L 3669 4666 
L 4325 4666 
L 2547 0 
L 1831 0 
z
" transform="scale(0.015625)"/>
       <path id="DejaVuSans-6c" d="M 603 4863 
L 1178 4863 
L 1178 0 
L 603 0 
L 603 4863 
z
" transform="scale(0.015625)"/>
       <path id="DejaVuSans-64" d="M 2906 2969 
L 2906 4863 
L 3481 4863 
L 3481 0 
L 2906 0 
L 2906 525 
Q 2725 213 2448 61 
Q 2172 -91 1784 -91 
Q 1150 -91 751 415 
Q 353 922 353 1747 
Q 353 2572 751 3078 
Q 1150 3584 1784 3584 
Q 2172 3584 2448 3432 
Q 2725 3281 2906 2969 
z
M 947 1747 
Q 947 1113 1208 752 
Q 1469 391 1925 391 
Q 2381 391 2643 752 
Q 2906 1113 2906 1747 
Q 2906 2381 2643 2742 
Q 2381 3103 1925 3103 
Q 1469 3103 1208 2742 
Q 947 2381 947 1747 
z
" transform="scale(0.015625)"/>
       <path id="DejaVuSans-74" d="M 1172 4494 
L 1172 3500 
L 2356 3500 
L 2356 3053 
L 1172 3053 
L 1172 1153 
Q 1172 725 1289 603 
Q 1406 481 1766 481 
L 2356 481 
L 2356 0 
L 1766 0 
Q 1100 0 847 248 
Q 594 497 594 1153 
L 594 3053 
L 172 3053 
L 172 3500 
L 594 3500 
L 594 4494 
L 1172 4494 
z
" transform="scale(0.015625)"/>
      </defs>
      <use xlink:href="#DejaVuSans-56"/>
      <use xlink:href="#DejaVuSans-61" x="60.658203"/>
      <use xlink:href="#DejaVuSans-6c" x="121.9375"/>
      <use xlink:href="#DejaVuSans-69" x="149.720703"/>
      <use xlink:href="#DejaVuSans-64" x="177.503906"/>
      <use xlink:href="#DejaVuSans-61" x="240.980469"/>
      <use xlink:href="#DejaVuSans-74" x="302.259766"/>
      <use xlink:href="#DejaVuSans-69" x="341.46875"/>
      <use xlink:href="#DejaVuSans-6f" x="369.251953"/>
      <use xlink:href="#DejaVuSans-6e" x="430.433594"/>
      <use xlink:href="#DejaVuSans-20" x="493.8125"/>
      <use xlink:href="#DejaVuSans-41" x="525.599609"/>
      <use xlink:href="#DejaVuSans-63" x="592.257812"/>
      <use xlink:href="#DejaVuSans-63" x="647.238281"/>
      <use xlink:href="#DejaVuSans-75" x="702.21875"/>
      <use xlink:href="#DejaVuSans-72" x="765.597656"/>
      <use xlink:href="#DejaVuSans-61" x="806.710938"/>
      <use xlink:href="#DejaVuSans-63" x="867.990234"/>
      <use xlink:href="#DejaVuSans-79" x="922.970703"/>
     </g>
    </g>
    <g id="line2d_22">
     <path d="M 216.18875 263.648062 
L 226.18875 263.648062 
L 236.18875 263.648062 
" style="fill: none; stroke: #2ca02c; stroke-width: 1.5; stroke-linecap: square"/>
    </g>
    <g id="text_20">
     <!-- Robust Validation Accuracy -->
     <g transform="translate(244.18875 267.148062) scale(0.1 -0.1)">
      <defs>
       <path id="DejaVuSans-52" d="M 2841 2188 
Q 3044 2119 3236 1894 
Q 3428 1669 3622 1275 
L 4263 0 
L 3584 0 
L 2988 1197 
Q 2756 1666 2539 1819 
Q 2322 1972 1947 1972 
L 1259 1972 
L 1259 0 
L 628 0 
L 628 4666 
L 2053 4666 
Q 2853 4666 3247 4331 
Q 3641 3997 3641 3322 
Q 3641 2881 3436 2590 
Q 3231 2300 2841 2188 
z
M 1259 4147 
L 1259 2491 
L 2053 2491 
Q 2509 2491 2742 2702 
Q 2975 2913 2975 3322 
Q 2975 3731 2742 3939 
Q 2509 4147 2053 4147 
L 1259 4147 
z
" transform="scale(0.015625)"/>
       <path id="DejaVuSans-62" d="M 3116 1747 
Q 3116 2381 2855 2742 
Q 2594 3103 2138 3103 
Q 1681 3103 1420 2742 
Q 1159 2381 1159 1747 
Q 1159 1113 1420 752 
Q 1681 391 2138 391 
Q 2594 391 2855 752 
Q 3116 1113 3116 1747 
z
M 1159 2969 
Q 1341 3281 1617 3432 
Q 1894 3584 2278 3584 
Q 2916 3584 3314 3078 
Q 3713 2572 3713 1747 
Q 3713 922 3314 415 
Q 2916 -91 2278 -91 
Q 1894 -91 1617 61 
Q 1341 213 1159 525 
L 1159 0 
L 581 0 
L 581 4863 
L 1159 4863 
L 1159 2969 
z
" transform="scale(0.015625)"/>
      </defs>
      <use xlink:href="#DejaVuSans-52"/>
      <use xlink:href="#DejaVuSans-6f" x="64.982422"/>
      <use xlink:href="#DejaVuSans-62" x="126.164062"/>
      <use xlink:href="#DejaVuSans-75" x="189.640625"/>
      <use xlink:href="#DejaVuSans-73" x="253.019531"/>
      <use xlink:href="#DejaVuSans-74" x="305.119141"/>
      <use xlink:href="#DejaVuSans-20" x="344.328125"/>
      <use xlink:href="#DejaVuSans-56" x="376.115234"/>
      <use xlink:href="#DejaVuSans-61" x="436.773438"/>
      <use xlink:href="#DejaVuSans-6c" x="498.052734"/>
      <use xlink:href="#DejaVuSans-69" x="525.835938"/>
      <use xlink:href="#DejaVuSans-64" x="553.619141"/>
      <use xlink:href="#DejaVuSans-61" x="617.095703"/>
      <use xlink:href="#DejaVuSans-74" x="678.375"/>
      <use xlink:href="#DejaVuSans-69" x="717.583984"/>
      <use xlink:href="#DejaVuSans-6f" x="745.367188"/>
      <use xlink:href="#DejaVuSans-6e" x="806.548828"/>
      <use xlink:href="#DejaVuSans-20" x="869.927734"/>
      <use xlink:href="#DejaVuSans-41" x="901.714844"/>
      <use xlink:href="#DejaVuSans-63" x="968.373047"/>
      <use xlink:href="#DejaVuSans-63" x="1023.353516"/>
      <use xlink:href="#DejaVuSans-75" x="1078.333984"/>
      <use xlink:href="#DejaVuSans-72" x="1141.712891"/>
      <use xlink:href="#DejaVuSans-61" x="1182.826172"/>
      <use xlink:href="#DejaVuSans-63" x="1244.105469"/>
      <use xlink:href="#DejaVuSans-79" x="1299.085938"/>
     </g>
    </g>
    <g id="line2d_23">
     <path d="M 216.18875 278.326188 
L 226.18875 278.326188 
L 236.18875 278.326188 
" style="fill: none; stroke: #d62728; stroke-width: 1.5; stroke-linecap: square"/>
    </g>
    <g id="text_21">
     <!-- SWA Validation Accuracy -->
     <g transform="translate(244.18875 281.826188) scale(0.1 -0.1)">
      <defs>
       <path id="DejaVuSans-53" d="M 3425 4513 
L 3425 3897 
Q 3066 4069 2747 4153 
Q 2428 4238 2131 4238 
Q 1616 4238 1336 4038 
Q 1056 3838 1056 3469 
Q 1056 3159 1242 3001 
Q 1428 2844 1947 2747 
L 2328 2669 
Q 3034 2534 3370 2195 
Q 3706 1856 3706 1288 
Q 3706 609 3251 259 
Q 2797 -91 1919 -91 
Q 1588 -91 1214 -16 
Q 841 59 441 206 
L 441 856 
Q 825 641 1194 531 
Q 1563 422 1919 422 
Q 2459 422 2753 634 
Q 3047 847 3047 1241 
Q 3047 1584 2836 1778 
Q 2625 1972 2144 2069 
L 1759 2144 
Q 1053 2284 737 2584 
Q 422 2884 422 3419 
Q 422 4038 858 4394 
Q 1294 4750 2059 4750 
Q 2388 4750 2728 4690 
Q 3069 4631 3425 4513 
z
" transform="scale(0.015625)"/>
       <path id="DejaVuSans-57" d="M 213 4666 
L 850 4666 
L 1831 722 
L 2809 4666 
L 3519 4666 
L 4500 722 
L 5478 4666 
L 6119 4666 
L 4947 0 
L 4153 0 
L 3169 4050 
L 2175 0 
L 1381 0 
L 213 4666 
z
" transform="scale(0.015625)"/>
      </defs>
      <use xlink:href="#DejaVuSans-53"/>
      <use xlink:href="#DejaVuSans-57" x="63.476562"/>
      <use xlink:href="#DejaVuSans-41" x="156.853516"/>
      <use xlink:href="#DejaVuSans-20" x="225.261719"/>
      <use xlink:href="#DejaVuSans-56" x="257.048828"/>
      <use xlink:href="#DejaVuSans-61" x="317.707031"/>
      <use xlink:href="#DejaVuSans-6c" x="378.986328"/>
      <use xlink:href="#DejaVuSans-69" x="406.769531"/>
      <use xlink:href="#DejaVuSans-64" x="434.552734"/>
      <use xlink:href="#DejaVuSans-61" x="498.029297"/>
      <use xlink:href="#DejaVuSans-74" x="559.308594"/>
      <use xlink:href="#DejaVuSans-69" x="598.517578"/>
      <use xlink:href="#DejaVuSans-6f" x="626.300781"/>
      <use xlink:href="#DejaVuSans-6e" x="687.482422"/>
      <use xlink:href="#DejaVuSans-20" x="750.861328"/>
      <use xlink:href="#DejaVuSans-41" x="782.648438"/>
      <use xlink:href="#DejaVuSans-63" x="849.306641"/>
      <use xlink:href="#DejaVuSans-63" x="904.287109"/>
      <use xlink:href="#DejaVuSans-75" x="959.267578"/>
      <use xlink:href="#DejaVuSans-72" x="1022.646484"/>
      <use xlink:href="#DejaVuSans-61" x="1063.759766"/>
      <use xlink:href="#DejaVuSans-63" x="1125.039062"/>
      <use xlink:href="#DejaVuSans-79" x="1180.019531"/>
     </g>
    </g>
    <g id="line2d_24">
     <path d="M 216.18875 293.004312 
L 226.18875 293.004312 
L 236.18875 293.004312 
" style="fill: none; stroke: #9467bd; stroke-width: 1.5; stroke-linecap: square"/>
    </g>
    <g id="text_22">
     <!-- SWA Robust Validation Accuracy -->
     <g transform="translate(244.18875 296.504312) scale(0.1 -0.1)">
      <use xlink:href="#DejaVuSans-53"/>
      <use xlink:href="#DejaVuSans-57" x="63.476562"/>
      <use xlink:href="#DejaVuSans-41" x="156.853516"/>
      <use xlink:href="#DejaVuSans-20" x="225.261719"/>
      <use xlink:href="#DejaVuSans-52" x="257.048828"/>
      <use xlink:href="#DejaVuSans-6f" x="322.03125"/>
      <use xlink:href="#DejaVuSans-62" x="383.212891"/>
      <use xlink:href="#DejaVuSans-75" x="446.689453"/>
      <use xlink:href="#DejaVuSans-73" x="510.068359"/>
      <use xlink:href="#DejaVuSans-74" x="562.167969"/>
      <use xlink:href="#DejaVuSans-20" x="601.376953"/>
      <use xlink:href="#DejaVuSans-56" x="633.164062"/>
      <use xlink:href="#DejaVuSans-61" x="693.822266"/>
      <use xlink:href="#DejaVuSans-6c" x="755.101562"/>
      <use xlink:href="#DejaVuSans-69" x="782.884766"/>
      <use xlink:href="#DejaVuSans-64" x="810.667969"/>
      <use xlink:href="#DejaVuSans-61" x="874.144531"/>
      <use xlink:href="#DejaVuSans-74" x="935.423828"/>
      <use xlink:href="#DejaVuSans-69" x="974.632812"/>
      <use xlink:href="#DejaVuSans-6f" x="1002.416016"/>
      <use xlink:href="#DejaVuSans-6e" x="1063.597656"/>
      <use xlink:href="#DejaVuSans-20" x="1126.976562"/>
      <use xlink:href="#DejaVuSans-41" x="1158.763672"/>
      <use xlink:href="#DejaVuSans-63" x="1225.421875"/>
      <use xlink:href="#DejaVuSans-63" x="1280.402344"/>
      <use xlink:href="#DejaVuSans-75" x="1335.382812"/>
      <use xlink:href="#DejaVuSans-72" x="1398.761719"/>
      <use xlink:href="#DejaVuSans-61" x="1439.875"/>
      <use xlink:href="#DejaVuSans-63" x="1501.154297"/>
      <use xlink:href="#DejaVuSans-79" x="1556.134766"/>
     </g>
    </g>
   </g>
  </g>
 </g>
 <defs>
  <clipPath id="pa90acf01d8">
   <rect x="57.6" y="41.472" width="357.12" height="266.112"/>
  </clipPath>
 </defs>
</svg>
