<?xml version="1.0" encoding="utf-8" standalone="no"?>
<!DOCTYPE svg PUBLIC "-//W3C//DTD SVG 1.1//EN"
  "http://www.w3.org/Graphics/SVG/1.1/DTD/svg11.dtd">
<svg xmlns:xlink="http://www.w3.org/1999/xlink" width="460.8pt" height="345.6pt" viewBox="0 0 460.8 345.6" xmlns="http://www.w3.org/2000/svg" version="1.1">
 <metadata>
  <rdf:RDF xmlns:dc="http://purl.org/dc/elements/1.1/" xmlns:cc="http://creativecommons.org/ns#" xmlns:rdf="http://www.w3.org/1999/02/22-rdf-syntax-ns#">
   <cc:Work>
    <dc:type rdf:resource="http://purl.org/dc/dcmitype/StillImage"/>
    <dc:date>2025-01-18T07:48:55.918176</dc:date>
    <dc:format>image/svg+xml</dc:format>
    <dc:creator>
     <cc:Agent>
      <dc:title>Matplotlib v3.9.1, https://matplotlib.org/</dc:title>
     </cc:Agent>
    </dc:creator>
   </cc:Work>
  </rdf:RDF>
 </metadata>
 <defs>
  <style type="text/css">*{stroke-linejoin: round; stroke-linecap: butt}</style>
 </defs>
 <g id="figure_1">
  <g id="patch_1">
   <path d="M 0 345.6 
L 460.8 345.6 
L 460.8 0 
L 0 0 
z
" style="fill: #ffffff"/>
  </g>
  <g id="axes_1">
   <g id="patch_2">
    <path d="M 57.6 307.584 
L 414.72 307.584 
L 414.72 41.472 
L 57.6 41.472 
z
" style="fill: #ffffff"/>
   </g>
   <g id="matplotlib.axis_1">
    <g id="xtick_1">
     <g id="line2d_1">
      <defs>
       <path id="m5bb330a769" d="M 0 0 
L 0 3.5 
" style="stroke: #000000; stroke-width: 0.8"/>
      </defs>
      <g>
       <use xlink:href="#m5bb330a769" x="73.832727" y="307.584" style="stroke: #000000; stroke-width: 0.8"/>
      </g>
     </g>
     <g id="text_1">
      <!-- 1 -->
      <g transform="translate(70.651477 322.182437) scale(0.1 -0.1)">
       <defs>
        <path id="DejaVuSans-31" d="M 794 531 
L 1825 531 
L 1825 4091 
L 703 3866 
L 703 4441 
L 1819 4666 
L 2450 4666 
L 2450 531 
L 3481 531 
L 3481 0 
L 794 0 
L 794 531 
z
" transform="scale(0.015625)"/>
       </defs>
       <use xlink:href="#DejaVuSans-31"/>
      </g>
     </g>
    </g>
    <g id="xtick_2">
     <g id="line2d_2">
      <g>
       <use xlink:href="#m5bb330a769" x="109.664165" y="307.584" style="stroke: #000000; stroke-width: 0.8"/>
      </g>
     </g>
     <g id="text_2">
      <!-- 34 -->
      <g transform="translate(103.301665 322.182437) scale(0.1 -0.1)">
       <defs>
        <path id="DejaVuSans-33" d="M 2597 2516 
Q 3050 2419 3304 2112 
Q 3559 1806 3559 1356 
Q 3559 666 3084 287 
Q 2609 -91 1734 -91 
Q 1441 -91 1130 -33 
Q 819 25 488 141 
L 488 750 
Q 750 597 1062 519 
Q 1375 441 1716 441 
Q 2309 441 2620 675 
Q 2931 909 2931 1356 
Q 2931 1769 2642 2001 
Q 2353 2234 1838 2234 
L 1294 2234 
L 1294 2753 
L 1863 2753 
Q 2328 2753 2575 2939 
Q 2822 3125 2822 3475 
Q 2822 3834 2567 4026 
Q 2313 4219 1838 4219 
Q 1578 4219 1281 4162 
Q 984 4106 628 3988 
L 628 4550 
Q 988 4650 1302 4700 
Q 1616 4750 1894 4750 
Q 2613 4750 3031 4423 
Q 3450 4097 3450 3541 
Q 3450 3153 3228 2886 
Q 3006 2619 2597 2516 
z
" transform="scale(0.015625)"/>
        <path id="DejaVuSans-34" d="M 2419 4116 
L 825 1625 
L 2419 1625 
L 2419 4116 
z
M 2253 4666 
L 3047 4666 
L 3047 1625 
L 3713 1625 
L 3713 1100 
L 3047 1100 
L 3047 0 
L 2419 0 
L 2419 1100 
L 313 1100 
L 313 1709 
L 2253 4666 
z
" transform="scale(0.015625)"/>
       </defs>
       <use xlink:href="#DejaVuSans-33"/>
       <use xlink:href="#DejaVuSans-34" x="63.623047"/>
      </g>
     </g>
    </g>
    <g id="xtick_3">
     <g id="line2d_3">
      <g>
       <use xlink:href="#m5bb330a769" x="145.495604" y="307.584" style="stroke: #000000; stroke-width: 0.8"/>
      </g>
     </g>
     <g id="text_3">
      <!-- 67 -->
      <g transform="translate(139.133104 322.182437) scale(0.1 -0.1)">
       <defs>
        <path id="DejaVuSans-36" d="M 2113 2584 
Q 1688 2584 1439 2293 
Q 1191 2003 1191 1497 
Q 1191 994 1439 701 
Q 1688 409 2113 409 
Q 2538 409 2786 701 
Q 3034 994 3034 1497 
Q 3034 2003 2786 2293 
Q 2538 2584 2113 2584 
z
M 3366 4563 
L 3366 3988 
Q 3128 4100 2886 4159 
Q 2644 4219 2406 4219 
Q 1781 4219 1451 3797 
Q 1122 3375 1075 2522 
Q 1259 2794 1537 2939 
Q 1816 3084 2150 3084 
Q 2853 3084 3261 2657 
Q 3669 2231 3669 1497 
Q 3669 778 3244 343 
Q 2819 -91 2113 -91 
Q 1303 -91 875 529 
Q 447 1150 447 2328 
Q 447 3434 972 4092 
Q 1497 4750 2381 4750 
Q 2619 4750 2861 4703 
Q 3103 4656 3366 4563 
z
" transform="scale(0.015625)"/>
        <path id="DejaVuSans-37" d="M 525 4666 
L 3525 4666 
L 3525 4397 
L 1831 0 
L 1172 0 
L 2766 4134 
L 525 4134 
L 525 4666 
z
" transform="scale(0.015625)"/>
       </defs>
       <use xlink:href="#DejaVuSans-36"/>
       <use xlink:href="#DejaVuSans-37" x="63.623047"/>
      </g>
     </g>
    </g>
    <g id="xtick_4">
     <g id="line2d_4">
      <g>
       <use xlink:href="#m5bb330a769" x="181.327042" y="307.584" style="stroke: #000000; stroke-width: 0.8"/>
      </g>
     </g>
     <g id="text_4">
      <!-- 100 -->
      <g transform="translate(171.783292 322.182437) scale(0.1 -0.1)">
       <defs>
        <path id="DejaVuSans-30" d="M 2034 4250 
Q 1547 4250 1301 3770 
Q 1056 3291 1056 2328 
Q 1056 1369 1301 889 
Q 1547 409 2034 409 
Q 2525 409 2770 889 
Q 3016 1369 3016 2328 
Q 3016 3291 2770 3770 
Q 2525 4250 2034 4250 
z
M 2034 4750 
Q 2819 4750 3233 4129 
Q 3647 3509 3647 2328 
Q 3647 1150 3233 529 
Q 2819 -91 2034 -91 
Q 1250 -91 836 529 
Q 422 1150 422 2328 
Q 422 3509 836 4129 
Q 1250 4750 2034 4750 
z
" transform="scale(0.015625)"/>
       </defs>
       <use xlink:href="#DejaVuSans-31"/>
       <use xlink:href="#DejaVuSans-30" x="63.623047"/>
       <use xlink:href="#DejaVuSans-30" x="127.246094"/>
      </g>
     </g>
    </g>
    <g id="xtick_5">
     <g id="line2d_5">
      <g>
       <use xlink:href="#m5bb330a769" x="217.15848" y="307.584" style="stroke: #000000; stroke-width: 0.8"/>
      </g>
     </g>
     <g id="text_5">
      <!-- 133 -->
      <g transform="translate(207.61473 322.182437) scale(0.1 -0.1)">
       <use xlink:href="#DejaVuSans-31"/>
       <use xlink:href="#DejaVuSans-33" x="63.623047"/>
       <use xlink:href="#DejaVuSans-33" x="127.246094"/>
      </g>
     </g>
    </g>
    <g id="xtick_6">
     <g id="line2d_6">
      <g>
       <use xlink:href="#m5bb330a769" x="254.075719" y="307.584" style="stroke: #000000; stroke-width: 0.8"/>
      </g>
     </g>
     <g id="text_6">
      <!-- 167 -->
      <g transform="translate(244.531969 322.182437) scale(0.1 -0.1)">
       <use xlink:href="#DejaVuSans-31"/>
       <use xlink:href="#DejaVuSans-36" x="63.623047"/>
       <use xlink:href="#DejaVuSans-37" x="127.246094"/>
      </g>
     </g>
    </g>
    <g id="xtick_7">
     <g id="line2d_7">
      <g>
       <use xlink:href="#m5bb330a769" x="289.907157" y="307.584" style="stroke: #000000; stroke-width: 0.8"/>
      </g>
     </g>
     <g id="text_7">
      <!-- 200 -->
      <g transform="translate(280.363407 322.182437) scale(0.1 -0.1)">
       <defs>
        <path id="DejaVuSans-32" d="M 1228 531 
L 3431 531 
L 3431 0 
L 469 0 
L 469 531 
Q 828 903 1448 1529 
Q 2069 2156 2228 2338 
Q 2531 2678 2651 2914 
Q 2772 3150 2772 3378 
Q 2772 3750 2511 3984 
Q 2250 4219 1831 4219 
Q 1534 4219 1204 4116 
Q 875 4013 500 3803 
L 500 4441 
Q 881 4594 1212 4672 
Q 1544 4750 1819 4750 
Q 2544 4750 2975 4387 
Q 3406 4025 3406 3419 
Q 3406 3131 3298 2873 
Q 3191 2616 2906 2266 
Q 2828 2175 2409 1742 
Q 1991 1309 1228 531 
z
" transform="scale(0.015625)"/>
       </defs>
       <use xlink:href="#DejaVuSans-32"/>
       <use xlink:href="#DejaVuSans-30" x="63.623047"/>
       <use xlink:href="#DejaVuSans-30" x="127.246094"/>
      </g>
     </g>
    </g>
    <g id="xtick_8">
     <g id="line2d_8">
      <g>
       <use xlink:href="#m5bb330a769" x="325.738595" y="307.584" style="stroke: #000000; stroke-width: 0.8"/>
      </g>
     </g>
     <g id="text_8">
      <!-- 233 -->
      <g transform="translate(316.194845 322.182437) scale(0.1 -0.1)">
       <use xlink:href="#DejaVuSans-32"/>
       <use xlink:href="#DejaVuSans-33" x="63.623047"/>
       <use xlink:href="#DejaVuSans-33" x="127.246094"/>
      </g>
     </g>
    </g>
    <g id="xtick_9">
     <g id="line2d_9">
      <g>
       <use xlink:href="#m5bb330a769" x="361.570033" y="307.584" style="stroke: #000000; stroke-width: 0.8"/>
      </g>
     </g>
     <g id="text_9">
      <!-- 266 -->
      <g transform="translate(352.026283 322.182437) scale(0.1 -0.1)">
       <use xlink:href="#DejaVuSans-32"/>
       <use xlink:href="#DejaVuSans-36" x="63.623047"/>
       <use xlink:href="#DejaVuSans-36" x="127.246094"/>
      </g>
     </g>
    </g>
    <g id="xtick_10">
     <g id="line2d_10">
      <g>
       <use xlink:href="#m5bb330a769" x="398.487273" y="307.584" style="stroke: #000000; stroke-width: 0.8"/>
      </g>
     </g>
     <g id="text_10">
      <!-- 300 -->
      <g transform="translate(388.943523 322.182437) scale(0.1 -0.1)">
       <use xlink:href="#DejaVuSans-33"/>
       <use xlink:href="#DejaVuSans-30" x="63.623047"/>
       <use xlink:href="#DejaVuSans-30" x="127.246094"/>
      </g>
     </g>
    </g>
    <g id="text_11">
     <!-- Epochs -->
     <g transform="translate(218.244375 335.860562) scale(0.1 -0.1)">
      <defs>
       <path id="DejaVuSans-45" d="M 628 4666 
L 3578 4666 
L 3578 4134 
L 1259 4134 
L 1259 2753 
L 3481 2753 
L 3481 2222 
L 1259 2222 
L 1259 531 
L 3634 531 
L 3634 0 
L 628 0 
L 628 4666 
z
" transform="scale(0.015625)"/>
       <path id="DejaVuSans-70" d="M 1159 525 
L 1159 -1331 
L 581 -1331 
L 581 3500 
L 1159 3500 
L 1159 2969 
Q 1341 3281 1617 3432 
Q 1894 3584 2278 3584 
Q 2916 3584 3314 3078 
Q 3713 2572 3713 1747 
Q 3713 922 3314 415 
Q 2916 -91 2278 -91 
Q 1894 -91 1617 61 
Q 1341 213 1159 525 
z
M 3116 1747 
Q 3116 2381 2855 2742 
Q 2594 3103 2138 3103 
Q 1681 3103 1420 2742 
Q 1159 2381 1159 1747 
Q 1159 1113 1420 752 
Q 1681 391 2138 391 
Q 2594 391 2855 752 
Q 3116 1113 3116 1747 
z
" transform="scale(0.015625)"/>
       <path id="DejaVuSans-6f" d="M 1959 3097 
Q 1497 3097 1228 2736 
Q 959 2375 959 1747 
Q 959 1119 1226 758 
Q 1494 397 1959 397 
Q 2419 397 2687 759 
Q 2956 1122 2956 1747 
Q 2956 2369 2687 2733 
Q 2419 3097 1959 3097 
z
M 1959 3584 
Q 2709 3584 3137 3096 
Q 3566 2609 3566 1747 
Q 3566 888 3137 398 
Q 2709 -91 1959 -91 
Q 1206 -91 779 398 
Q 353 888 353 1747 
Q 353 2609 779 3096 
Q 1206 3584 1959 3584 
z
" transform="scale(0.015625)"/>
       <path id="DejaVuSans-63" d="M 3122 3366 
L 3122 2828 
Q 2878 2963 2633 3030 
Q 2388 3097 2138 3097 
Q 1578 3097 1268 2742 
Q 959 2388 959 1747 
Q 959 1106 1268 751 
Q 1578 397 2138 397 
Q 2388 397 2633 464 
Q 2878 531 3122 666 
L 3122 134 
Q 2881 22 2623 -34 
Q 2366 -91 2075 -91 
Q 1284 -91 818 406 
Q 353 903 353 1747 
Q 353 2603 823 3093 
Q 1294 3584 2113 3584 
Q 2378 3584 2631 3529 
Q 2884 3475 3122 3366 
z
" transform="scale(0.015625)"/>
       <path id="DejaVuSans-68" d="M 3513 2113 
L 3513 0 
L 2938 0 
L 2938 2094 
Q 2938 2591 2744 2837 
Q 2550 3084 2163 3084 
Q 1697 3084 1428 2787 
Q 1159 2491 1159 1978 
L 1159 0 
L 581 0 
L 581 4863 
L 1159 4863 
L 1159 2956 
Q 1366 3272 1645 3428 
Q 1925 3584 2291 3584 
Q 2894 3584 3203 3211 
Q 3513 2838 3513 2113 
z
" transform="scale(0.015625)"/>
       <path id="DejaVuSans-73" d="M 2834 3397 
L 2834 2853 
Q 2591 2978 2328 3040 
Q 2066 3103 1784 3103 
Q 1356 3103 1142 2972 
Q 928 2841 928 2578 
Q 928 2378 1081 2264 
Q 1234 2150 1697 2047 
L 1894 2003 
Q 2506 1872 2764 1633 
Q 3022 1394 3022 966 
Q 3022 478 2636 193 
Q 2250 -91 1575 -91 
Q 1294 -91 989 -36 
Q 684 19 347 128 
L 347 722 
Q 666 556 975 473 
Q 1284 391 1588 391 
Q 1994 391 2212 530 
Q 2431 669 2431 922 
Q 2431 1156 2273 1281 
Q 2116 1406 1581 1522 
L 1381 1569 
Q 847 1681 609 1914 
Q 372 2147 372 2553 
Q 372 3047 722 3315 
Q 1072 3584 1716 3584 
Q 2034 3584 2315 3537 
Q 2597 3491 2834 3397 
z
" transform="scale(0.015625)"/>
      </defs>
      <use xlink:href="#DejaVuSans-45"/>
      <use xlink:href="#DejaVuSans-70" x="63.183594"/>
      <use xlink:href="#DejaVuSans-6f" x="126.660156"/>
      <use xlink:href="#DejaVuSans-63" x="187.841797"/>
      <use xlink:href="#DejaVuSans-68" x="242.822266"/>
      <use xlink:href="#DejaVuSans-73" x="306.201172"/>
     </g>
    </g>
   </g>
   <g id="matplotlib.axis_2">
    <g id="ytick_1">
     <g id="line2d_11">
      <defs>
       <path id="mdf30825173" d="M 0 0 
L -3.5 0 
" style="stroke: #000000; stroke-width: 0.8"/>
      </defs>
      <g>
       <use xlink:href="#mdf30825173" x="57.6" y="263.503443" style="stroke: #000000; stroke-width: 0.8"/>
      </g>
     </g>
     <g id="text_12">
      <!-- 20 -->
      <g transform="translate(37.875 267.302662) scale(0.1 -0.1)">
       <use xlink:href="#DejaVuSans-32"/>
       <use xlink:href="#DejaVuSans-30" x="63.623047"/>
      </g>
     </g>
    </g>
    <g id="ytick_2">
     <g id="line2d_12">
      <g>
       <use xlink:href="#mdf30825173" x="57.6" y="211.010396" style="stroke: #000000; stroke-width: 0.8"/>
      </g>
     </g>
     <g id="text_13">
      <!-- 40 -->
      <g transform="translate(37.875 214.809615) scale(0.1 -0.1)">
       <use xlink:href="#DejaVuSans-34"/>
       <use xlink:href="#DejaVuSans-30" x="63.623047"/>
      </g>
     </g>
    </g>
    <g id="ytick_3">
     <g id="line2d_13">
      <g>
       <use xlink:href="#mdf30825173" x="57.6" y="158.517349" style="stroke: #000000; stroke-width: 0.8"/>
      </g>
     </g>
     <g id="text_14">
      <!-- 60 -->
      <g transform="translate(37.875 162.316568) scale(0.1 -0.1)">
       <use xlink:href="#DejaVuSans-36"/>
       <use xlink:href="#DejaVuSans-30" x="63.623047"/>
      </g>
     </g>
    </g>
    <g id="ytick_4">
     <g id="line2d_14">
      <g>
       <use xlink:href="#mdf30825173" x="57.6" y="106.024302" style="stroke: #000000; stroke-width: 0.8"/>
      </g>
     </g>
     <g id="text_15">
      <!-- 80 -->
      <g transform="translate(37.875 109.823521) scale(0.1 -0.1)">
       <defs>
        <path id="DejaVuSans-38" d="M 2034 2216 
Q 1584 2216 1326 1975 
Q 1069 1734 1069 1313 
Q 1069 891 1326 650 
Q 1584 409 2034 409 
Q 2484 409 2743 651 
Q 3003 894 3003 1313 
Q 3003 1734 2745 1975 
Q 2488 2216 2034 2216 
z
M 1403 2484 
Q 997 2584 770 2862 
Q 544 3141 544 3541 
Q 544 4100 942 4425 
Q 1341 4750 2034 4750 
Q 2731 4750 3128 4425 
Q 3525 4100 3525 3541 
Q 3525 3141 3298 2862 
Q 3072 2584 2669 2484 
Q 3125 2378 3379 2068 
Q 3634 1759 3634 1313 
Q 3634 634 3220 271 
Q 2806 -91 2034 -91 
Q 1263 -91 848 271 
Q 434 634 434 1313 
Q 434 1759 690 2068 
Q 947 2378 1403 2484 
z
M 1172 3481 
Q 1172 3119 1398 2916 
Q 1625 2713 2034 2713 
Q 2441 2713 2670 2916 
Q 2900 3119 2900 3481 
Q 2900 3844 2670 4047 
Q 2441 4250 2034 4250 
Q 1625 4250 1398 4047 
Q 1172 3844 1172 3481 
z
" transform="scale(0.015625)"/>
       </defs>
       <use xlink:href="#DejaVuSans-38"/>
       <use xlink:href="#DejaVuSans-30" x="63.623047"/>
      </g>
     </g>
    </g>
    <g id="ytick_5">
     <g id="line2d_15">
      <g>
       <use xlink:href="#mdf30825173" x="57.6" y="53.531255" style="stroke: #000000; stroke-width: 0.8"/>
      </g>
     </g>
     <g id="text_16">
      <!-- 100 -->
      <g transform="translate(31.5125 57.330474) scale(0.1 -0.1)">
       <use xlink:href="#DejaVuSans-31"/>
       <use xlink:href="#DejaVuSans-30" x="63.623047"/>
       <use xlink:href="#DejaVuSans-30" x="127.246094"/>
      </g>
     </g>
    </g>
    <g id="text_17">
     <!-- Accuracy -->
     <g transform="translate(25.432812 197.356125) rotate(-90) scale(0.1 -0.1)">
      <defs>
       <path id="DejaVuSans-41" d="M 2188 4044 
L 1331 1722 
L 3047 1722 
L 2188 4044 
z
M 1831 4666 
L 2547 4666 
L 4325 0 
L 3669 0 
L 3244 1197 
L 1141 1197 
L 716 0 
L 50 0 
L 1831 4666 
z
" transform="scale(0.015625)"/>
       <path id="DejaVuSans-75" d="M 544 1381 
L 544 3500 
L 1119 3500 
L 1119 1403 
Q 1119 906 1312 657 
Q 1506 409 1894 409 
Q 2359 409 2629 706 
Q 2900 1003 2900 1516 
L 2900 3500 
L 3475 3500 
L 3475 0 
L 2900 0 
L 2900 538 
Q 2691 219 2414 64 
Q 2138 -91 1772 -91 
Q 1169 -91 856 284 
Q 544 659 544 1381 
z
M 1991 3584 
L 1991 3584 
z
" transform="scale(0.015625)"/>
       <path id="DejaVuSans-72" d="M 2631 2963 
Q 2534 3019 2420 3045 
Q 2306 3072 2169 3072 
Q 1681 3072 1420 2755 
Q 1159 2438 1159 1844 
L 1159 0 
L 581 0 
L 581 3500 
L 1159 3500 
L 1159 2956 
Q 1341 3275 1631 3429 
Q 1922 3584 2338 3584 
Q 2397 3584 2469 3576 
Q 2541 3569 2628 3553 
L 2631 2963 
z
" transform="scale(0.015625)"/>
       <path id="DejaVuSans-61" d="M 2194 1759 
Q 1497 1759 1228 1600 
Q 959 1441 959 1056 
Q 959 750 1161 570 
Q 1363 391 1709 391 
Q 2188 391 2477 730 
Q 2766 1069 2766 1631 
L 2766 1759 
L 2194 1759 
z
M 3341 1997 
L 3341 0 
L 2766 0 
L 2766 531 
Q 2569 213 2275 61 
Q 1981 -91 1556 -91 
Q 1019 -91 701 211 
Q 384 513 384 1019 
Q 384 1609 779 1909 
Q 1175 2209 1959 2209 
L 2766 2209 
L 2766 2266 
Q 2766 2663 2505 2880 
Q 2244 3097 1772 3097 
Q 1472 3097 1187 3025 
Q 903 2953 641 2809 
L 641 3341 
Q 956 3463 1253 3523 
Q 1550 3584 1831 3584 
Q 2591 3584 2966 3190 
Q 3341 2797 3341 1997 
z
" transform="scale(0.015625)"/>
       <path id="DejaVuSans-79" d="M 2059 -325 
Q 1816 -950 1584 -1140 
Q 1353 -1331 966 -1331 
L 506 -1331 
L 506 -850 
L 844 -850 
Q 1081 -850 1212 -737 
Q 1344 -625 1503 -206 
L 1606 56 
L 191 3500 
L 800 3500 
L 1894 763 
L 2988 3500 
L 3597 3500 
L 2059 -325 
z
" transform="scale(0.015625)"/>
      </defs>
      <use xlink:href="#DejaVuSans-41"/>
      <use xlink:href="#DejaVuSans-63" x="66.658203"/>
      <use xlink:href="#DejaVuSans-63" x="121.638672"/>
      <use xlink:href="#DejaVuSans-75" x="176.619141"/>
      <use xlink:href="#DejaVuSans-72" x="239.998047"/>
      <use xlink:href="#DejaVuSans-61" x="281.111328"/>
      <use xlink:href="#DejaVuSans-63" x="342.390625"/>
      <use xlink:href="#DejaVuSans-79" x="397.371094"/>
     </g>
    </g>
   </g>
   <g id="line2d_16">
    <path d="M 73.832727 284.505912 
L 74.918528 244.863162 
L 76.00433 215.467056 
L 77.090131 193.981652 
L 78.175932 178.779665 
L 80.347534 154.20767 
L 83.604938 128.407337 
L 86.862341 106.013803 
L 87.948142 98.94299 
L 89.033943 92.612328 
L 90.119745 87.510004 
L 92.291347 78.78566 
L 93.377148 76.570453 
L 94.462949 75.032407 
L 95.54875 118.538644 
L 96.634552 119.278796 
L 97.720353 115.4783 
L 98.806154 110.433718 
L 99.891955 106.743457 
L 100.977756 101.546645 
L 102.063557 97.772395 
L 103.149358 93.389226 
L 104.23516 89.546734 
L 105.320961 84.864355 
L 106.406762 81.531046 
L 108.578364 74.124277 
L 109.664165 70.906453 
L 110.749967 68.413034 
L 111.835768 65.478672 
L 114.00737 61.473453 
L 115.093171 59.562706 
L 116.178972 58.124396 
L 119.436376 55.494495 
L 120.522177 54.938069 
L 122.693779 54.192667 
L 123.77958 53.930202 
L 127.036984 53.688734 
L 132.46599 53.630992 
L 137.894995 53.594247 
L 138.980797 61.998383 
L 140.066598 66.423547 
L 141.152399 66.596774 
L 142.2382 66.035099 
L 144.409802 64.449809 
L 145.495604 64.008867 
L 146.581405 62.812026 
L 147.667206 62.108619 
L 148.753007 61.604686 
L 149.838808 60.938024 
L 150.924609 60.848786 
L 152.01041 59.930157 
L 153.096212 59.452471 
L 154.182013 59.300241 
L 156.353615 58.318621 
L 157.439416 57.667707 
L 158.525217 57.337001 
L 159.611019 57.289757 
L 160.69682 56.901308 
L 161.782621 56.73858 
L 162.868422 56.150658 
L 163.954223 56.281891 
L 165.040024 55.646725 
L 166.125825 55.331766 
L 167.211627 55.242528 
L 168.297428 54.791088 
L 170.46903 54.239911 
L 173.726434 53.935451 
L 174.812235 53.79372 
L 176.983837 53.709731 
L 182.412843 53.636241 
L 213.901076 53.573249 
L 219.330082 53.583748 
L 224.759088 53.573249 
L 225.844889 56.313386 
L 226.93069 60.334354 
L 228.016491 61.284478 
L 230.188094 60.880281 
L 231.273895 61.200489 
L 232.359696 60.486584 
L 233.445497 60.770046 
L 234.531298 60.182124 
L 236.702901 59.940656 
L 238.874503 58.843551 
L 239.960304 59.064022 
L 241.046105 58.528593 
L 242.131906 58.754313 
L 243.217708 58.134895 
L 244.303509 58.197887 
L 245.38931 57.856682 
L 246.475111 57.804189 
L 247.560912 57.546973 
L 248.646713 57.578469 
L 250.818316 57.179522 
L 251.904117 57.174272 
L 254.075719 56.633594 
L 255.16152 56.73858 
L 256.247321 56.549605 
L 257.333123 56.712334 
L 258.418924 55.966932 
L 259.504725 56.182154 
L 263.847929 55.588982 
L 264.933731 55.242528 
L 266.019532 55.405257 
L 268.191134 55.163789 
L 269.276935 54.974814 
L 271.448538 54.875077 
L 272.534339 54.434135 
L 273.62014 54.423637 
L 275.791742 54.129676 
L 281.220748 53.835715 
L 283.39235 53.898706 
L 284.478151 53.819967 
L 286.649754 53.861961 
L 288.821356 53.861961 
L 304.022572 53.615244 
L 306.194175 53.625742 
L 398.487273 53.594247 
L 398.487273 53.594247 
" clip-path="url(#pa5a9b29c1e)" style="fill: none; stroke: #1f77b4; stroke-width: 1.5; stroke-linecap: square"/>
   </g>
   <g id="line2d_17">
    <path d="M 73.832727 266.180589 
L 74.918528 237.755604 
L 76.00433 214.52743 
L 77.090131 208.49073 
L 80.347534 168.596014 
L 81.433335 166.680018 
L 82.519137 161.010769 
L 83.604938 160.013401 
L 84.690739 151.168323 
L 85.77654 146.233976 
L 86.862341 144.422966 
L 87.948142 139.304894 
L 89.033943 137.782595 
L 91.205546 132.979482 
L 92.291347 131.220965 
L 93.377148 131.247211 
L 94.462949 130.87976 
L 95.54875 165.288952 
L 96.634552 161.168248 
L 97.720353 160.302113 
L 98.806154 162.349342 
L 99.891955 162.401835 
L 100.977756 149.75101 
L 102.063557 156.653846 
L 103.149358 148.963615 
L 104.23516 152.953086 
L 105.320961 145.315348 
L 106.406762 144.737924 
L 107.492563 142.769435 
L 108.578364 141.509602 
L 109.664165 135.682874 
L 110.749967 138.648731 
L 111.835768 136.050325 
L 112.921569 134.790492 
L 114.00737 135.70912 
L 115.093171 129.856145 
L 116.178972 131.299704 
L 117.264773 131.194718 
L 118.350575 129.541187 
L 119.436376 128.911271 
L 120.522177 129.409954 
L 121.607978 126.811549 
L 122.693779 126.260372 
L 123.77958 123.242021 
L 124.865382 122.769584 
L 127.036984 122.113421 
L 128.122785 121.877202 
L 129.208586 120.879834 
L 130.294387 120.774848 
L 131.380189 120.354904 
L 132.46599 120.958574 
L 133.551791 120.38115 
L 135.723393 120.45989 
L 136.809194 120.591123 
L 137.894995 120.433643 
L 138.980797 149.252326 
L 140.066598 144.449212 
L 141.152399 146.601427 
L 142.2382 146.73266 
L 143.324001 141.955793 
L 144.409802 142.900668 
L 145.495604 140.774699 
L 146.581405 142.401984 
L 147.667206 138.281279 
L 148.753007 137.887582 
L 149.838808 136.680242 
L 150.924609 140.643467 
L 152.01041 140.223522 
L 153.096212 140.984671 
L 154.182013 132.00836 
L 155.267814 138.20254 
L 156.353615 133.688138 
L 157.439416 135.78786 
L 158.525217 134.134329 
L 159.611019 134.711752 
L 160.69682 136.181558 
L 161.782621 134.50178 
L 162.868422 135.577888 
L 163.954223 132.323319 
L 165.040024 130.486062 
L 166.125825 128.123875 
L 167.211627 131.378444 
L 168.297428 128.858777 
L 169.383229 128.38634 
L 170.46903 130.80102 
L 171.554831 126.155386 
L 172.640632 124.68558 
L 173.726434 126.234125 
L 174.812235 121.850956 
L 175.898036 123.347008 
L 176.983837 120.38115 
L 178.069638 120.45989 
L 180.24124 121.011067 
L 181.327042 120.066192 
L 182.412843 120.039946 
L 183.498644 119.751234 
L 184.584445 118.701373 
L 186.756047 117.704005 
L 187.841849 118.465154 
L 188.92765 117.415293 
L 190.013451 117.467786 
L 191.099252 118.097703 
L 192.185053 116.942856 
L 193.270854 116.654144 
L 194.356656 117.284061 
L 195.442457 116.811623 
L 196.528258 116.890363 
L 197.614059 116.181707 
L 198.69986 116.916609 
L 199.785661 116.995349 
L 200.871462 117.231568 
L 201.957264 115.892995 
L 204.128866 116.076721 
L 205.214667 116.706637 
L 206.300468 115.683023 
L 207.386269 115.840502 
L 208.472071 115.788009 
L 209.557872 115.263078 
L 210.643673 116.024227 
L 211.729474 115.63053 
L 212.815275 115.525544 
L 213.901076 116.024227 
L 214.986877 115.919241 
L 216.072679 115.420557 
L 218.244281 116.129214 
L 219.330082 115.761762 
L 220.415883 116.2342 
L 221.501684 115.997981 
L 222.587486 116.312939 
L 223.673287 115.971734 
L 224.759088 115.814255 
L 225.844889 148.228712 
L 226.93069 143.556831 
L 228.016491 145.236608 
L 229.102292 139.357387 
L 230.188094 137.021446 
L 231.273895 141.168397 
L 232.359696 140.590974 
L 233.445497 139.199908 
L 234.531298 142.795681 
L 235.617099 142.165765 
L 236.702901 140.932178 
L 237.788702 136.785228 
L 238.874503 137.808842 
L 239.960304 137.467637 
L 241.046105 136.837721 
L 242.131906 137.59887 
L 243.217708 137.073939 
L 244.303509 135.052957 
L 245.38931 138.386266 
L 246.475111 135.499148 
L 247.560912 137.572623 
L 248.646713 138.596238 
L 249.732514 137.126432 
L 250.818316 134.344301 
L 251.904117 136.627748 
L 252.989918 137.336405 
L 254.075719 136.234051 
L 255.16152 132.349565 
L 256.247321 135.446655 
L 257.333123 133.241947 
L 258.418924 133.583152 
L 259.504725 132.139593 
L 260.590526 134.475534 
L 261.676327 130.827267 
L 262.762128 135.262929 
L 263.847929 132.795756 
L 264.933731 133.399426 
L 266.019532 131.824635 
L 267.105333 134.239315 
L 268.191134 128.648805 
L 269.276935 131.509676 
L 270.362736 132.139593 
L 271.448538 128.596312 
L 272.534339 130.354829 
L 273.62014 127.520205 
L 274.705941 128.937517 
L 275.791742 125.28925 
L 276.877543 125.945413 
L 277.963344 125.000539 
L 279.049146 127.205247 
L 280.134947 124.869306 
L 281.220748 124.291882 
L 282.306549 127.231493 
L 283.39235 124.659334 
L 284.478151 126.969028 
L 285.563953 124.974292 
L 286.649754 124.790566 
L 287.735555 124.186896 
L 288.821356 122.769584 
L 289.907157 122.402133 
L 290.992958 123.898185 
L 292.07876 122.2709 
L 293.164561 121.877202 
L 294.250362 122.480872 
L 295.336163 122.244654 
L 296.421964 121.116053 
L 297.507765 122.034681 
L 298.593566 121.66723 
L 299.679368 120.092439 
L 300.765169 120.932327 
L 301.85097 119.751234 
L 305.108373 120.223671 
L 306.194175 119.698741 
L 307.279976 118.465154 
L 308.365777 118.990085 
L 309.451578 119.305043 
L 310.537379 119.410029 
L 311.62318 118.911345 
L 312.708981 116.890363 
L 313.794783 117.96647 
L 314.880584 116.444172 
L 315.966385 117.310307 
L 317.052186 116.732884 
L 318.137987 115.499297 
L 319.223788 116.2342 
L 320.30959 114.974367 
L 321.395391 116.076721 
L 322.481192 114.974367 
L 323.566993 116.260446 
L 324.652794 115.997981 
L 325.738595 116.444172 
L 326.824396 116.470418 
L 327.910198 115.945488 
L 328.995999 115.604283 
L 330.0818 114.475683 
L 331.167601 114.501929 
L 332.253402 114.081985 
L 333.339203 114.606915 
L 334.425005 113.767026 
L 335.510806 114.081985 
L 336.596607 114.764394 
L 337.682408 114.396943 
L 338.768209 114.554422 
L 339.85401 113.976999 
L 340.939811 113.635794 
L 342.025613 113.976999 
L 345.283016 113.950752 
L 346.368817 113.05837 
L 347.454618 113.215849 
L 348.54042 113.845766 
L 350.712022 113.294589 
L 351.797823 113.557054 
L 352.883624 113.320836 
L 353.969425 113.609547 
L 355.055227 114.34445 
L 356.141028 113.268342 
L 357.226829 113.635794 
L 358.31263 113.872013 
L 359.398431 113.399575 
L 360.484232 112.638426 
L 361.570033 113.163356 
L 362.655835 113.478315 
L 364.827437 113.005877 
L 365.913238 113.268342 
L 368.08484 113.13711 
L 369.170642 113.557054 
L 370.256443 113.504561 
L 371.342244 113.872013 
L 372.428045 113.793273 
L 373.513846 114.475683 
L 374.599647 113.347082 
L 375.685448 114.003245 
L 376.77125 113.504561 
L 377.857051 114.081985 
L 378.942852 113.163356 
L 380.028653 113.767026 
L 382.200255 113.714533 
L 383.286057 114.081985 
L 384.371858 113.793273 
L 385.457659 113.976999 
L 386.54346 113.793273 
L 387.629261 114.396943 
L 388.715062 113.872013 
L 389.800863 114.554422 
L 393.058267 113.976999 
L 394.144068 113.032124 
L 395.229869 114.134478 
L 396.31567 114.895627 
L 397.401472 114.396943 
L 398.487273 113.583301 
L 398.487273 113.583301 
" clip-path="url(#pa5a9b29c1e)" style="fill: none; stroke: #ff7f0e; stroke-width: 1.5; stroke-linecap: square"/>
   </g>
   <g id="line2d_18">
    <path d="M 73.832727 278.907438 
L 74.918528 264.98773 
L 76.00433 253.891785 
L 77.090131 253.493562 
L 78.175932 237.655143 
L 79.261733 235.157198 
L 80.347534 230.72244 
L 81.433335 225.310226 
L 82.519137 231.808504 
L 83.604938 231.283573 
L 84.690739 219.246374 
L 85.77654 220.875469 
L 86.862341 216.603621 
L 87.948142 213.14632 
L 89.033943 210.322556 
L 90.119745 213.128219 
L 91.205546 212.929108 
L 92.291347 212.548986 
L 93.377148 210.232051 
L 94.462949 210.775083 
L 95.54875 229.401064 
L 96.634552 232.206727 
L 97.720353 228.242597 
L 98.806154 228.224495 
L 99.891955 226.559199 
L 100.977756 219.698901 
L 103.149358 228.13399 
L 104.23516 226.450593 
L 105.320961 230.088904 
L 106.406762 223.373414 
L 107.492563 215.083133 
L 108.578364 217.418168 
L 109.664165 219.011061 
L 110.749967 215.626164 
L 111.835768 210.394961 
L 112.921569 214.304787 
L 114.00737 215.589962 
L 115.093171 209.145988 
L 116.178972 214.703011 
L 117.264773 217.164753 
L 118.350575 206.575639 
L 119.436376 209.833828 
L 120.522177 209.308897 
L 121.607978 210.630274 
L 122.693779 209.960535 
L 123.77958 204.113896 
L 124.865382 205.869698 
L 125.951183 203.027833 
L 127.036984 204.765534 
L 128.122785 203.353652 
L 129.208586 201.579749 
L 130.294387 202.068477 
L 131.380189 203.987189 
L 132.46599 202.249488 
L 134.637592 203.009732 
L 135.723393 202.774418 
L 137.894995 202.647711 
L 138.980797 219.789406 
L 140.066598 215.933882 
L 141.152399 226.830715 
L 142.2382 223.101898 
L 143.324001 213.743655 
L 145.495604 221.273692 
L 146.581405 223.246707 
L 147.667206 218.739545 
L 148.753007 218.811949 
L 149.838808 218.30512 
L 150.924609 211.607731 
L 152.01041 220.585852 
L 153.096212 223.518222 
L 154.182013 215.55376 
L 155.267814 216.983743 
L 156.353615 215.55376 
L 157.439416 211.137104 
L 158.525217 212.005954 
L 159.611019 220.947873 
L 160.69682 214.431495 
L 161.782621 213.635049 
L 162.868422 211.155205 
L 163.954223 213.363533 
L 165.040024 208.204733 
L 166.125825 207.788409 
L 167.211627 214.413394 
L 168.297428 208.566754 
L 169.383229 215.789074 
L 170.46903 209.960535 
L 171.554831 208.476249 
L 172.640632 206.666144 
L 173.726434 210.919891 
L 174.812235 206.59374 
L 175.898036 206.448931 
L 176.983837 202.991631 
L 178.069638 201.543547 
L 179.155439 204.711231 
L 180.24124 203.769976 
L 181.327042 199.860149 
L 182.412843 202.901126 
L 183.498644 202.321892 
L 184.584445 200.638494 
L 185.670246 200.403181 
L 186.756047 201.235829 
L 187.841849 203.064035 
L 190.013451 200.131665 
L 191.099252 198.737884 
L 192.185053 201.25393 
L 193.270854 199.461926 
L 194.356656 199.299016 
L 195.442457 198.357762 
L 196.528258 199.805846 
L 197.614059 201.525446 
L 198.69986 199.226612 
L 199.785661 199.35332 
L 200.871462 199.027501 
L 201.957264 199.045602 
L 203.043065 198.810288 
L 204.128866 199.0094 
L 205.214667 199.0094 
L 206.300468 198.774086 
L 207.386269 198.955096 
L 208.472071 197.651821 
L 209.557872 198.520671 
L 210.643673 197.488911 
L 211.729474 197.452709 
L 212.815275 198.339661 
L 213.901076 197.543214 
L 214.986877 197.760427 
L 216.072679 197.47081 
L 217.15848 197.850932 
L 218.244281 198.050044 
L 219.330082 198.122448 
L 220.415883 198.068145 
L 221.501684 197.669922 
L 222.587486 197.81473 
L 223.673287 197.507012 
L 224.759088 198.32156 
L 225.844889 222.540766 
L 226.93069 215.789074 
L 228.016491 223.156201 
L 229.102292 222.776079 
L 230.188094 215.065032 
L 231.273895 218.395625 
L 232.359696 220.73066 
L 233.445497 212.404177 
L 234.531298 217.834492 
L 235.617099 216.495015 
L 236.702901 215.716669 
L 237.788702 210.756982 
L 238.874503 217.363865 
L 239.960304 217.725886 
L 241.046105 220.766863 
L 242.131906 216.024387 
L 243.217708 210.304455 
L 244.303509 221.165086 
L 245.38931 216.893238 
L 246.475111 220.640155 
L 247.560912 217.725886 
L 248.646713 220.929772 
L 249.732514 216.730328 
L 250.818316 207.426388 
L 251.904117 221.726218 
L 252.989918 219.481688 
L 254.075719 213.273028 
L 255.16152 209.127887 
L 256.247321 216.314004 
L 257.333123 206.43083 
L 258.418924 212.603289 
L 259.504725 204.204401 
L 260.590526 214.286686 
L 262.762128 214.721112 
L 263.847929 207.752207 
L 264.933731 212.784299 
L 266.019532 206.503235 
L 267.105333 219.029162 
L 268.191134 211.535327 
L 269.276935 209.127887 
L 270.362736 216.657924 
L 271.448538 209.399403 
L 272.534339 213.580745 
L 273.62014 208.295239 
L 274.705941 205.055151 
L 275.791742 204.711231 
L 276.877543 211.517226 
L 277.963344 204.747433 
L 279.049146 214.612505 
L 280.134947 205.543879 
L 281.220748 210.051041 
L 282.306549 209.453706 
L 283.39235 203.950986 
L 284.478151 203.607066 
L 285.563953 204.041492 
L 286.649754 202.557206 
L 287.735555 208.693462 
L 288.821356 210.105344 
L 289.907157 206.340325 
L 290.992958 203.66137 
L 292.07876 200.276473 
L 293.164561 203.987189 
L 294.250362 205.326666 
L 295.336163 204.385412 
L 296.421964 202.539104 
L 297.507765 203.733774 
L 298.593566 210.539769 
L 299.679368 199.335219 
L 300.765169 204.34921 
L 301.85097 201.796961 
L 302.936771 202.647711 
L 304.022572 199.588633 
L 305.108373 203.751875 
L 306.194175 202.267589 
L 307.279976 198.140549 
L 308.365777 201.272031 
L 309.451578 203.788077 
L 310.537379 202.376195 
L 311.62318 203.118338 
L 312.708981 202.014174 
L 313.794783 203.84238 
L 314.880584 199.787745 
L 315.966385 198.430166 
L 317.052186 199.317117 
L 319.223788 203.969087 
L 320.30959 202.62961 
L 321.395391 201.000515 
L 323.566993 199.606734 
L 324.652794 199.896351 
L 325.738595 200.638494 
L 326.824396 202.158982 
L 327.910198 195.352987 
L 330.0818 200.837606 
L 331.167601 198.393964 
L 332.253402 197.47081 
L 333.339203 197.81473 
L 334.425005 199.425724 
L 335.510806 198.737884 
L 336.596607 198.991299 
L 337.682408 198.973197 
L 338.768209 200.91001 
L 339.85401 197.887134 
L 340.939811 197.344103 
L 342.025613 198.918894 
L 343.111414 199.860149 
L 344.197215 199.118006 
L 345.283016 199.371421 
L 346.368817 196.837274 
L 347.454618 199.027501 
L 348.54042 198.556873 
L 350.712022 198.955096 
L 351.797823 199.751543 
L 352.883624 199.299016 
L 353.969425 199.425724 
L 355.055227 200.330776 
L 356.141028 199.914452 
L 357.226829 199.136107 
L 359.398431 199.045602 
L 360.484232 200.204069 
L 361.570033 198.32156 
L 362.655835 198.719783 
L 363.741636 198.991299 
L 364.827437 198.393964 
L 365.913238 198.339661 
L 366.999039 198.991299 
L 368.08484 197.887134 
L 369.170642 198.973197 
L 370.256443 198.520671 
L 371.342244 199.443825 
L 372.428045 199.063703 
L 373.513846 199.516229 
L 374.599647 199.136107 
L 375.685448 200.819505 
L 376.77125 199.715341 
L 377.857051 199.317117 
L 378.942852 199.914452 
L 380.028653 200.185968 
L 381.114454 199.751543 
L 382.200255 200.457484 
L 384.371858 199.262814 
L 385.457659 201.525446 
L 386.54346 198.375863 
L 387.629261 199.932553 
L 388.715062 200.819505 
L 389.800863 199.172309 
L 390.886665 198.864591 
L 391.972466 199.317117 
L 393.058267 197.81473 
L 394.144068 199.751543 
L 395.229869 200.493686 
L 396.31567 201.724557 
L 397.401472 199.280915 
L 398.487273 199.914452 
L 398.487273 199.914452 
" clip-path="url(#pa5a9b29c1e)" style="fill: none; stroke: #2ca02c; stroke-width: 1.5; stroke-linecap: square"/>
   </g>
   <g id="line2d_19">
    <path d="M 368.08484 113.530808 
L 370.256443 114.396943 
L 371.342244 115.578037 
L 374.599647 121.535997 
L 376.77125 128.753791 
L 377.857051 133.29444 
L 378.942852 139.173661 
L 380.028653 142.979407 
L 382.200255 153.215551 
L 383.286057 158.307377 
L 385.457659 175.236385 
L 386.54346 182.375439 
L 387.629261 191.666708 
L 388.715062 199.199461 
L 389.800863 203.136439 
L 390.886665 217.808246 
L 391.972466 227.781925 
L 393.058267 235.104705 
L 394.144068 246.889394 
L 395.229869 255.235788 
L 396.31567 259.487725 
L 397.401472 270.511265 
L 398.487273 276.88917 
L 398.487273 276.88917 
" clip-path="url(#pa5a9b29c1e)" style="fill: none; stroke: #d62728; stroke-width: 1.5; stroke-linecap: square"/>
   </g>
   <g id="line2d_20">
    <path d="M 368.08484 198.375863 
L 369.170642 198.792187 
L 370.256443 197.416507 
L 371.342244 197.507012 
L 372.428045 198.629278 
L 373.513846 201.652153 
L 374.599647 201.072919 
L 375.685448 204.313007 
L 376.77125 206.847155 
L 377.857051 208.566754 
L 378.942852 213.906564 
L 381.114454 220.622054 
L 382.200255 223.536323 
L 383.286057 227.844373 
L 384.371858 233.310891 
L 385.457659 237.999063 
L 386.54346 241.818385 
L 387.629261 247.864136 
L 388.715062 251.90067 
L 389.800863 254.742535 
L 390.886665 262.525987 
L 391.972466 268.318323 
L 393.058267 272.391059 
L 395.229869 283.034477 
L 396.31567 286.202161 
L 397.401472 292.790943 
L 398.487273 295.488 
L 398.487273 295.488 
" clip-path="url(#pa5a9b29c1e)" style="fill: none; stroke: #9467bd; stroke-width: 1.5; stroke-linecap: square"/>
   </g>
   <g id="patch_3">
    <path d="M 57.6 307.584 
L 57.6 41.472 
" style="fill: none; stroke: #000000; stroke-width: 0.8; stroke-linejoin: miter; stroke-linecap: square"/>
   </g>
   <g id="patch_4">
    <path d="M 414.72 307.584 
L 414.72 41.472 
" style="fill: none; stroke: #000000; stroke-width: 0.8; stroke-linejoin: miter; stroke-linecap: square"/>
   </g>
   <g id="patch_5">
    <path d="M 57.6 307.584 
L 414.72 307.584 
" style="fill: none; stroke: #000000; stroke-width: 0.8; stroke-linejoin: miter; stroke-linecap: square"/>
   </g>
   <g id="patch_6">
    <path d="M 57.6 41.472 
L 414.72 41.472 
" style="fill: none; stroke: #000000; stroke-width: 0.8; stroke-linejoin: miter; stroke-linecap: square"/>
   </g>
   <g id="text_18">
    <!-- Learning Curves -->
    <g transform="translate(187.37625 35.472) scale(0.12 -0.12)">
     <defs>
      <path id="DejaVuSans-4c" d="M 628 4666 
L 1259 4666 
L 1259 531 
L 3531 531 
L 3531 0 
L 628 0 
L 628 4666 
z
" transform="scale(0.015625)"/>
      <path id="DejaVuSans-65" d="M 3597 1894 
L 3597 1613 
L 953 1613 
Q 991 1019 1311 708 
Q 1631 397 2203 397 
Q 2534 397 2845 478 
Q 3156 559 3463 722 
L 3463 178 
Q 3153 47 2828 -22 
Q 2503 -91 2169 -91 
Q 1331 -91 842 396 
Q 353 884 353 1716 
Q 353 2575 817 3079 
Q 1281 3584 2069 3584 
Q 2775 3584 3186 3129 
Q 3597 2675 3597 1894 
z
M 3022 2063 
Q 3016 2534 2758 2815 
Q 2500 3097 2075 3097 
Q 1594 3097 1305 2825 
Q 1016 2553 972 2059 
L 3022 2063 
z
" transform="scale(0.015625)"/>
      <path id="DejaVuSans-6e" d="M 3513 2113 
L 3513 0 
L 2938 0 
L 2938 2094 
Q 2938 2591 2744 2837 
Q 2550 3084 2163 3084 
Q 1697 3084 1428 2787 
Q 1159 2491 1159 1978 
L 1159 0 
L 581 0 
L 581 3500 
L 1159 3500 
L 1159 2956 
Q 1366 3272 1645 3428 
Q 1925 3584 2291 3584 
Q 2894 3584 3203 3211 
Q 3513 2838 3513 2113 
z
" transform="scale(0.015625)"/>
      <path id="DejaVuSans-69" d="M 603 3500 
L 1178 3500 
L 1178 0 
L 603 0 
L 603 3500 
z
M 603 4863 
L 1178 4863 
L 1178 4134 
L 603 4134 
L 603 4863 
z
" transform="scale(0.015625)"/>
      <path id="DejaVuSans-67" d="M 2906 1791 
Q 2906 2416 2648 2759 
Q 2391 3103 1925 3103 
Q 1463 3103 1205 2759 
Q 947 2416 947 1791 
Q 947 1169 1205 825 
Q 1463 481 1925 481 
Q 2391 481 2648 825 
Q 2906 1169 2906 1791 
z
M 3481 434 
Q 3481 -459 3084 -895 
Q 2688 -1331 1869 -1331 
Q 1566 -1331 1297 -1286 
Q 1028 -1241 775 -1147 
L 775 -588 
Q 1028 -725 1275 -790 
Q 1522 -856 1778 -856 
Q 2344 -856 2625 -561 
Q 2906 -266 2906 331 
L 2906 616 
Q 2728 306 2450 153 
Q 2172 0 1784 0 
Q 1141 0 747 490 
Q 353 981 353 1791 
Q 353 2603 747 3093 
Q 1141 3584 1784 3584 
Q 2172 3584 2450 3431 
Q 2728 3278 2906 2969 
L 2906 3500 
L 3481 3500 
L 3481 434 
z
" transform="scale(0.015625)"/>
      <path id="DejaVuSans-20" transform="scale(0.015625)"/>
      <path id="DejaVuSans-43" d="M 4122 4306 
L 4122 3641 
Q 3803 3938 3442 4084 
Q 3081 4231 2675 4231 
Q 1875 4231 1450 3742 
Q 1025 3253 1025 2328 
Q 1025 1406 1450 917 
Q 1875 428 2675 428 
Q 3081 428 3442 575 
Q 3803 722 4122 1019 
L 4122 359 
Q 3791 134 3420 21 
Q 3050 -91 2638 -91 
Q 1578 -91 968 557 
Q 359 1206 359 2328 
Q 359 3453 968 4101 
Q 1578 4750 2638 4750 
Q 3056 4750 3426 4639 
Q 3797 4528 4122 4306 
z
" transform="scale(0.015625)"/>
      <path id="DejaVuSans-76" d="M 191 3500 
L 800 3500 
L 1894 563 
L 2988 3500 
L 3597 3500 
L 2284 0 
L 1503 0 
L 191 3500 
z
" transform="scale(0.015625)"/>
     </defs>
     <use xlink:href="#DejaVuSans-4c"/>
     <use xlink:href="#DejaVuSans-65" x="53.962891"/>
     <use xlink:href="#DejaVuSans-61" x="115.486328"/>
     <use xlink:href="#DejaVuSans-72" x="176.765625"/>
     <use xlink:href="#DejaVuSans-6e" x="216.128906"/>
     <use xlink:href="#DejaVuSans-69" x="279.507812"/>
     <use xlink:href="#DejaVuSans-6e" x="307.291016"/>
     <use xlink:href="#DejaVuSans-67" x="370.669922"/>
     <use xlink:href="#DejaVuSans-20" x="434.146484"/>
     <use xlink:href="#DejaVuSans-43" x="465.933594"/>
     <use xlink:href="#DejaVuSans-75" x="535.757812"/>
     <use xlink:href="#DejaVuSans-72" x="599.136719"/>
     <use xlink:href="#DejaVuSans-76" x="640.25"/>
     <use xlink:href="#DejaVuSans-65" x="699.429688"/>
     <use xlink:href="#DejaVuSans-73" x="760.953125"/>
    </g>
   </g>
   <g id="legend_1">
    <g id="patch_7">
     <path d="M 139.394375 302.584 
L 332.925625 302.584 
Q 334.925625 302.584 334.925625 300.584 
L 334.925625 228.193375 
Q 334.925625 226.193375 332.925625 226.193375 
L 139.394375 226.193375 
Q 137.394375 226.193375 137.394375 228.193375 
L 137.394375 300.584 
Q 137.394375 302.584 139.394375 302.584 
z
" style="fill: #ffffff; opacity: 0.8; stroke: #cccccc; stroke-linejoin: miter"/>
    </g>
    <g id="line2d_21">
     <path d="M 141.394375 234.291812 
L 151.394375 234.291812 
L 161.394375 234.291812 
" style="fill: none; stroke: #1f77b4; stroke-width: 1.5; stroke-linecap: square"/>
    </g>
    <g id="text_19">
     <!-- Train Accuracy -->
     <g transform="translate(169.394375 237.791812) scale(0.1 -0.1)">
      <defs>
       <path id="DejaVuSans-54" d="M -19 4666 
L 3928 4666 
L 3928 4134 
L 2272 4134 
L 2272 0 
L 1638 0 
L 1638 4134 
L -19 4134 
L -19 4666 
z
" transform="scale(0.015625)"/>
      </defs>
      <use xlink:href="#DejaVuSans-54"/>
      <use xlink:href="#DejaVuSans-72" x="46.333984"/>
      <use xlink:href="#DejaVuSans-61" x="87.447266"/>
      <use xlink:href="#DejaVuSans-69" x="148.726562"/>
      <use xlink:href="#DejaVuSans-6e" x="176.509766"/>
      <use xlink:href="#DejaVuSans-20" x="239.888672"/>
      <use xlink:href="#DejaVuSans-41" x="271.675781"/>
      <use xlink:href="#DejaVuSans-63" x="338.333984"/>
      <use xlink:href="#DejaVuSans-63" x="393.314453"/>
      <use xlink:href="#DejaVuSans-75" x="448.294922"/>
      <use xlink:href="#DejaVuSans-72" x="511.673828"/>
      <use xlink:href="#DejaVuSans-61" x="552.787109"/>
      <use xlink:href="#DejaVuSans-63" x="614.066406"/>
      <use xlink:href="#DejaVuSans-79" x="669.046875"/>
     </g>
    </g>
    <g id="line2d_22">
     <path d="M 141.394375 248.969937 
L 151.394375 248.969937 
L 161.394375 248.969937 
" style="fill: none; stroke: #ff7f0e; stroke-width: 1.5; stroke-linecap: square"/>
    </g>
    <g id="text_20">
     <!-- Validation Accuracy -->
     <g transform="translate(169.394375 252.469937) scale(0.1 -0.1)">
      <defs>
       <path id="DejaVuSans-56" d="M 1831 0 
L 50 4666 
L 709 4666 
L 2188 738 
L 3669 4666 
L 4325 4666 
L 2547 0 
L 1831 0 
z
" transform="scale(0.015625)"/>
       <path id="DejaVuSans-6c" d="M 603 4863 
L 1178 4863 
L 1178 0 
L 603 0 
L 603 4863 
z
" transform="scale(0.015625)"/>
       <path id="DejaVuSans-64" d="M 2906 2969 
L 2906 4863 
L 3481 4863 
L 3481 0 
L 2906 0 
L 2906 525 
Q 2725 213 2448 61 
Q 2172 -91 1784 -91 
Q 1150 -91 751 415 
Q 353 922 353 1747 
Q 353 2572 751 3078 
Q 1150 3584 1784 3584 
Q 2172 3584 2448 3432 
Q 2725 3281 2906 2969 
z
M 947 1747 
Q 947 1113 1208 752 
Q 1469 391 1925 391 
Q 2381 391 2643 752 
Q 2906 1113 2906 1747 
Q 2906 2381 2643 2742 
Q 2381 3103 1925 3103 
Q 1469 3103 1208 2742 
Q 947 2381 947 1747 
z
" transform="scale(0.015625)"/>
       <path id="DejaVuSans-74" d="M 1172 4494 
L 1172 3500 
L 2356 3500 
L 2356 3053 
L 1172 3053 
L 1172 1153 
Q 1172 725 1289 603 
Q 1406 481 1766 481 
L 2356 481 
L 2356 0 
L 1766 0 
Q 1100 0 847 248 
Q 594 497 594 1153 
L 594 3053 
L 172 3053 
L 172 3500 
L 594 3500 
L 594 4494 
L 1172 4494 
z
" transform="scale(0.015625)"/>
      </defs>
      <use xlink:href="#DejaVuSans-56"/>
      <use xlink:href="#DejaVuSans-61" x="60.658203"/>
      <use xlink:href="#DejaVuSans-6c" x="121.9375"/>
      <use xlink:href="#DejaVuSans-69" x="149.720703"/>
      <use xlink:href="#DejaVuSans-64" x="177.503906"/>
      <use xlink:href="#DejaVuSans-61" x="240.980469"/>
      <use xlink:href="#DejaVuSans-74" x="302.259766"/>
      <use xlink:href="#DejaVuSans-69" x="341.46875"/>
      <use xlink:href="#DejaVuSans-6f" x="369.251953"/>
      <use xlink:href="#DejaVuSans-6e" x="430.433594"/>
      <use xlink:href="#DejaVuSans-20" x="493.8125"/>
      <use xlink:href="#DejaVuSans-41" x="525.599609"/>
      <use xlink:href="#DejaVuSans-63" x="592.257812"/>
      <use xlink:href="#DejaVuSans-63" x="647.238281"/>
      <use xlink:href="#DejaVuSans-75" x="702.21875"/>
      <use xlink:href="#DejaVuSans-72" x="765.597656"/>
      <use xlink:href="#DejaVuSans-61" x="806.710938"/>
      <use xlink:href="#DejaVuSans-63" x="867.990234"/>
      <use xlink:href="#DejaVuSans-79" x="922.970703"/>
     </g>
    </g>
    <g id="line2d_23">
     <path d="M 141.394375 263.648062 
L 151.394375 263.648062 
L 161.394375 263.648062 
" style="fill: none; stroke: #2ca02c; stroke-width: 1.5; stroke-linecap: square"/>
    </g>
    <g id="text_21">
     <!-- Robust Validation Accuracy -->
     <g transform="translate(169.394375 267.148062) scale(0.1 -0.1)">
      <defs>
       <path id="DejaVuSans-52" d="M 2841 2188 
Q 3044 2119 3236 1894 
Q 3428 1669 3622 1275 
L 4263 0 
L 3584 0 
L 2988 1197 
Q 2756 1666 2539 1819 
Q 2322 1972 1947 1972 
L 1259 1972 
L 1259 0 
L 628 0 
L 628 4666 
L 2053 4666 
Q 2853 4666 3247 4331 
Q 3641 3997 3641 3322 
Q 3641 2881 3436 2590 
Q 3231 2300 2841 2188 
z
M 1259 4147 
L 1259 2491 
L 2053 2491 
Q 2509 2491 2742 2702 
Q 2975 2913 2975 3322 
Q 2975 3731 2742 3939 
Q 2509 4147 2053 4147 
L 1259 4147 
z
" transform="scale(0.015625)"/>
       <path id="DejaVuSans-62" d="M 3116 1747 
Q 3116 2381 2855 2742 
Q 2594 3103 2138 3103 
Q 1681 3103 1420 2742 
Q 1159 2381 1159 1747 
Q 1159 1113 1420 752 
Q 1681 391 2138 391 
Q 2594 391 2855 752 
Q 3116 1113 3116 1747 
z
M 1159 2969 
Q 1341 3281 1617 3432 
Q 1894 3584 2278 3584 
Q 2916 3584 3314 3078 
Q 3713 2572 3713 1747 
Q 3713 922 3314 415 
Q 2916 -91 2278 -91 
Q 1894 -91 1617 61 
Q 1341 213 1159 525 
L 1159 0 
L 581 0 
L 581 4863 
L 1159 4863 
L 1159 2969 
z
" transform="scale(0.015625)"/>
      </defs>
      <use xlink:href="#DejaVuSans-52"/>
      <use xlink:href="#DejaVuSans-6f" x="64.982422"/>
      <use xlink:href="#DejaVuSans-62" x="126.164062"/>
      <use xlink:href="#DejaVuSans-75" x="189.640625"/>
      <use xlink:href="#DejaVuSans-73" x="253.019531"/>
      <use xlink:href="#DejaVuSans-74" x="305.119141"/>
      <use xlink:href="#DejaVuSans-20" x="344.328125"/>
      <use xlink:href="#DejaVuSans-56" x="376.115234"/>
      <use xlink:href="#DejaVuSans-61" x="436.773438"/>
      <use xlink:href="#DejaVuSans-6c" x="498.052734"/>
      <use xlink:href="#DejaVuSans-69" x="525.835938"/>
      <use xlink:href="#DejaVuSans-64" x="553.619141"/>
      <use xlink:href="#DejaVuSans-61" x="617.095703"/>
      <use xlink:href="#DejaVuSans-74" x="678.375"/>
      <use xlink:href="#DejaVuSans-69" x="717.583984"/>
      <use xlink:href="#DejaVuSans-6f" x="745.367188"/>
      <use xlink:href="#DejaVuSans-6e" x="806.548828"/>
      <use xlink:href="#DejaVuSans-20" x="869.927734"/>
      <use xlink:href="#DejaVuSans-41" x="901.714844"/>
      <use xlink:href="#DejaVuSans-63" x="968.373047"/>
      <use xlink:href="#DejaVuSans-63" x="1023.353516"/>
      <use xlink:href="#DejaVuSans-75" x="1078.333984"/>
      <use xlink:href="#DejaVuSans-72" x="1141.712891"/>
      <use xlink:href="#DejaVuSans-61" x="1182.826172"/>
      <use xlink:href="#DejaVuSans-63" x="1244.105469"/>
      <use xlink:href="#DejaVuSans-79" x="1299.085938"/>
     </g>
    </g>
    <g id="line2d_24">
     <path d="M 141.394375 278.326188 
L 151.394375 278.326188 
L 161.394375 278.326188 
" style="fill: none; stroke: #d62728; stroke-width: 1.5; stroke-linecap: square"/>
    </g>
    <g id="text_22">
     <!-- SWA Validation Accuracy -->
     <g transform="translate(169.394375 281.826188) scale(0.1 -0.1)">
      <defs>
       <path id="DejaVuSans-53" d="M 3425 4513 
L 3425 3897 
Q 3066 4069 2747 4153 
Q 2428 4238 2131 4238 
Q 1616 4238 1336 4038 
Q 1056 3838 1056 3469 
Q 1056 3159 1242 3001 
Q 1428 2844 1947 2747 
L 2328 2669 
Q 3034 2534 3370 2195 
Q 3706 1856 3706 1288 
Q 3706 609 3251 259 
Q 2797 -91 1919 -91 
Q 1588 -91 1214 -16 
Q 841 59 441 206 
L 441 856 
Q 825 641 1194 531 
Q 1563 422 1919 422 
Q 2459 422 2753 634 
Q 3047 847 3047 1241 
Q 3047 1584 2836 1778 
Q 2625 1972 2144 2069 
L 1759 2144 
Q 1053 2284 737 2584 
Q 422 2884 422 3419 
Q 422 4038 858 4394 
Q 1294 4750 2059 4750 
Q 2388 4750 2728 4690 
Q 3069 4631 3425 4513 
z
" transform="scale(0.015625)"/>
       <path id="DejaVuSans-57" d="M 213 4666 
L 850 4666 
L 1831 722 
L 2809 4666 
L 3519 4666 
L 4500 722 
L 5478 4666 
L 6119 4666 
L 4947 0 
L 4153 0 
L 3169 4050 
L 2175 0 
L 1381 0 
L 213 4666 
z
" transform="scale(0.015625)"/>
      </defs>
      <use xlink:href="#DejaVuSans-53"/>
      <use xlink:href="#DejaVuSans-57" x="63.476562"/>
      <use xlink:href="#DejaVuSans-41" x="156.853516"/>
      <use xlink:href="#DejaVuSans-20" x="225.261719"/>
      <use xlink:href="#DejaVuSans-56" x="257.048828"/>
      <use xlink:href="#DejaVuSans-61" x="317.707031"/>
      <use xlink:href="#DejaVuSans-6c" x="378.986328"/>
      <use xlink:href="#DejaVuSans-69" x="406.769531"/>
      <use xlink:href="#DejaVuSans-64" x="434.552734"/>
      <use xlink:href="#DejaVuSans-61" x="498.029297"/>
      <use xlink:href="#DejaVuSans-74" x="559.308594"/>
      <use xlink:href="#DejaVuSans-69" x="598.517578"/>
      <use xlink:href="#DejaVuSans-6f" x="626.300781"/>
      <use xlink:href="#DejaVuSans-6e" x="687.482422"/>
      <use xlink:href="#DejaVuSans-20" x="750.861328"/>
      <use xlink:href="#DejaVuSans-41" x="782.648438"/>
      <use xlink:href="#DejaVuSans-63" x="849.306641"/>
      <use xlink:href="#DejaVuSans-63" x="904.287109"/>
      <use xlink:href="#DejaVuSans-75" x="959.267578"/>
      <use xlink:href="#DejaVuSans-72" x="1022.646484"/>
      <use xlink:href="#DejaVuSans-61" x="1063.759766"/>
      <use xlink:href="#DejaVuSans-63" x="1125.039062"/>
      <use xlink:href="#DejaVuSans-79" x="1180.019531"/>
     </g>
    </g>
    <g id="line2d_25">
     <path d="M 141.394375 293.004312 
L 151.394375 293.004312 
L 161.394375 293.004312 
" style="fill: none; stroke: #9467bd; stroke-width: 1.5; stroke-linecap: square"/>
    </g>
    <g id="text_23">
     <!-- SWA Robust Validation Accuracy -->
     <g transform="translate(169.394375 296.504312) scale(0.1 -0.1)">
      <use xlink:href="#DejaVuSans-53"/>
      <use xlink:href="#DejaVuSans-57" x="63.476562"/>
      <use xlink:href="#DejaVuSans-41" x="156.853516"/>
      <use xlink:href="#DejaVuSans-20" x="225.261719"/>
      <use xlink:href="#DejaVuSans-52" x="257.048828"/>
      <use xlink:href="#DejaVuSans-6f" x="322.03125"/>
      <use xlink:href="#DejaVuSans-62" x="383.212891"/>
      <use xlink:href="#DejaVuSans-75" x="446.689453"/>
      <use xlink:href="#DejaVuSans-73" x="510.068359"/>
      <use xlink:href="#DejaVuSans-74" x="562.167969"/>
      <use xlink:href="#DejaVuSans-20" x="601.376953"/>
      <use xlink:href="#DejaVuSans-56" x="633.164062"/>
      <use xlink:href="#DejaVuSans-61" x="693.822266"/>
      <use xlink:href="#DejaVuSans-6c" x="755.101562"/>
      <use xlink:href="#DejaVuSans-69" x="782.884766"/>
      <use xlink:href="#DejaVuSans-64" x="810.667969"/>
      <use xlink:href="#DejaVuSans-61" x="874.144531"/>
      <use xlink:href="#DejaVuSans-74" x="935.423828"/>
      <use xlink:href="#DejaVuSans-69" x="974.632812"/>
      <use xlink:href="#DejaVuSans-6f" x="1002.416016"/>
      <use xlink:href="#DejaVuSans-6e" x="1063.597656"/>
      <use xlink:href="#DejaVuSans-20" x="1126.976562"/>
      <use xlink:href="#DejaVuSans-41" x="1158.763672"/>
      <use xlink:href="#DejaVuSans-63" x="1225.421875"/>
      <use xlink:href="#DejaVuSans-63" x="1280.402344"/>
      <use xlink:href="#DejaVuSans-75" x="1335.382812"/>
      <use xlink:href="#DejaVuSans-72" x="1398.761719"/>
      <use xlink:href="#DejaVuSans-61" x="1439.875"/>
      <use xlink:href="#DejaVuSans-63" x="1501.154297"/>
      <use xlink:href="#DejaVuSans-79" x="1556.134766"/>
     </g>
    </g>
   </g>
  </g>
 </g>
 <defs>
  <clipPath id="pa5a9b29c1e">
   <rect x="57.6" y="41.472" width="357.12" height="266.112"/>
  </clipPath>
 </defs>
</svg>
