<?xml version="1.0" encoding="utf-8" standalone="no"?>
<!DOCTYPE svg PUBLIC "-//W3C//DTD SVG 1.1//EN"
  "http://www.w3.org/Graphics/SVG/1.1/DTD/svg11.dtd">
<svg xmlns:xlink="http://www.w3.org/1999/xlink" width="460.8pt" height="345.6pt" viewBox="0 0 460.8 345.6" xmlns="http://www.w3.org/2000/svg" version="1.1">
 <metadata>
  <rdf:RDF xmlns:dc="http://purl.org/dc/elements/1.1/" xmlns:cc="http://creativecommons.org/ns#" xmlns:rdf="http://www.w3.org/1999/02/22-rdf-syntax-ns#">
   <cc:Work>
    <dc:type rdf:resource="http://purl.org/dc/dcmitype/StillImage"/>
    <dc:date>2025-07-16T17:38:57.715606</dc:date>
    <dc:format>image/svg+xml</dc:format>
    <dc:creator>
     <cc:Agent>
      <dc:title>Matplotlib v3.9.1, https://matplotlib.org/</dc:title>
     </cc:Agent>
    </dc:creator>
   </cc:Work>
  </rdf:RDF>
 </metadata>
 <defs>
  <style type="text/css">*{stroke-linejoin: round; stroke-linecap: butt}</style>
 </defs>
 <g id="figure_1">
  <g id="patch_1">
   <path d="M 0 345.6 
L 460.8 345.6 
L 460.8 0 
L 0 0 
z
" style="fill: #ffffff"/>
  </g>
  <g id="axes_1">
   <g id="patch_2">
    <path d="M 57.6 307.584 
L 414.72 307.584 
L 414.72 41.472 
L 57.6 41.472 
z
" style="fill: #ffffff"/>
   </g>
   <g id="matplotlib.axis_1">
    <g id="xtick_1">
     <g id="line2d_1">
      <defs>
       <path id="m545ec9fd5c" d="M 0 0 
L 0 3.5 
" style="stroke: #000000; stroke-width: 0.8"/>
      </defs>
      <g>
       <use xlink:href="#m545ec9fd5c" x="73.832727" y="307.584" style="stroke: #000000; stroke-width: 0.8"/>
      </g>
     </g>
     <g id="text_1">
      <!-- 1 -->
      <g transform="translate(70.651477 322.182437) scale(0.1 -0.1)">
       <defs>
        <path id="DejaVuSans-31" d="M 794 531 
L 1825 531 
L 1825 4091 
L 703 3866 
L 703 4441 
L 1819 4666 
L 2450 4666 
L 2450 531 
L 3481 531 
L 3481 0 
L 794 0 
L 794 531 
z
" transform="scale(0.015625)"/>
       </defs>
       <use xlink:href="#DejaVuSans-31"/>
      </g>
     </g>
    </g>
    <g id="xtick_2">
     <g id="line2d_2">
      <g>
       <use xlink:href="#m545ec9fd5c" x="109.664165" y="307.584" style="stroke: #000000; stroke-width: 0.8"/>
      </g>
     </g>
     <g id="text_2">
      <!-- 34 -->
      <g transform="translate(103.301665 322.182437) scale(0.1 -0.1)">
       <defs>
        <path id="DejaVuSans-33" d="M 2597 2516 
Q 3050 2419 3304 2112 
Q 3559 1806 3559 1356 
Q 3559 666 3084 287 
Q 2609 -91 1734 -91 
Q 1441 -91 1130 -33 
Q 819 25 488 141 
L 488 750 
Q 750 597 1062 519 
Q 1375 441 1716 441 
Q 2309 441 2620 675 
Q 2931 909 2931 1356 
Q 2931 1769 2642 2001 
Q 2353 2234 1838 2234 
L 1294 2234 
L 1294 2753 
L 1863 2753 
Q 2328 2753 2575 2939 
Q 2822 3125 2822 3475 
Q 2822 3834 2567 4026 
Q 2313 4219 1838 4219 
Q 1578 4219 1281 4162 
Q 984 4106 628 3988 
L 628 4550 
Q 988 4650 1302 4700 
Q 1616 4750 1894 4750 
Q 2613 4750 3031 4423 
Q 3450 4097 3450 3541 
Q 3450 3153 3228 2886 
Q 3006 2619 2597 2516 
z
" transform="scale(0.015625)"/>
        <path id="DejaVuSans-34" d="M 2419 4116 
L 825 1625 
L 2419 1625 
L 2419 4116 
z
M 2253 4666 
L 3047 4666 
L 3047 1625 
L 3713 1625 
L 3713 1100 
L 3047 1100 
L 3047 0 
L 2419 0 
L 2419 1100 
L 313 1100 
L 313 1709 
L 2253 4666 
z
" transform="scale(0.015625)"/>
       </defs>
       <use xlink:href="#DejaVuSans-33"/>
       <use xlink:href="#DejaVuSans-34" x="63.623047"/>
      </g>
     </g>
    </g>
    <g id="xtick_3">
     <g id="line2d_3">
      <g>
       <use xlink:href="#m545ec9fd5c" x="145.495604" y="307.584" style="stroke: #000000; stroke-width: 0.8"/>
      </g>
     </g>
     <g id="text_3">
      <!-- 67 -->
      <g transform="translate(139.133104 322.182437) scale(0.1 -0.1)">
       <defs>
        <path id="DejaVuSans-36" d="M 2113 2584 
Q 1688 2584 1439 2293 
Q 1191 2003 1191 1497 
Q 1191 994 1439 701 
Q 1688 409 2113 409 
Q 2538 409 2786 701 
Q 3034 994 3034 1497 
Q 3034 2003 2786 2293 
Q 2538 2584 2113 2584 
z
M 3366 4563 
L 3366 3988 
Q 3128 4100 2886 4159 
Q 2644 4219 2406 4219 
Q 1781 4219 1451 3797 
Q 1122 3375 1075 2522 
Q 1259 2794 1537 2939 
Q 1816 3084 2150 3084 
Q 2853 3084 3261 2657 
Q 3669 2231 3669 1497 
Q 3669 778 3244 343 
Q 2819 -91 2113 -91 
Q 1303 -91 875 529 
Q 447 1150 447 2328 
Q 447 3434 972 4092 
Q 1497 4750 2381 4750 
Q 2619 4750 2861 4703 
Q 3103 4656 3366 4563 
z
" transform="scale(0.015625)"/>
        <path id="DejaVuSans-37" d="M 525 4666 
L 3525 4666 
L 3525 4397 
L 1831 0 
L 1172 0 
L 2766 4134 
L 525 4134 
L 525 4666 
z
" transform="scale(0.015625)"/>
       </defs>
       <use xlink:href="#DejaVuSans-36"/>
       <use xlink:href="#DejaVuSans-37" x="63.623047"/>
      </g>
     </g>
    </g>
    <g id="xtick_4">
     <g id="line2d_4">
      <g>
       <use xlink:href="#m545ec9fd5c" x="181.327042" y="307.584" style="stroke: #000000; stroke-width: 0.8"/>
      </g>
     </g>
     <g id="text_4">
      <!-- 100 -->
      <g transform="translate(171.783292 322.182437) scale(0.1 -0.1)">
       <defs>
        <path id="DejaVuSans-30" d="M 2034 4250 
Q 1547 4250 1301 3770 
Q 1056 3291 1056 2328 
Q 1056 1369 1301 889 
Q 1547 409 2034 409 
Q 2525 409 2770 889 
Q 3016 1369 3016 2328 
Q 3016 3291 2770 3770 
Q 2525 4250 2034 4250 
z
M 2034 4750 
Q 2819 4750 3233 4129 
Q 3647 3509 3647 2328 
Q 3647 1150 3233 529 
Q 2819 -91 2034 -91 
Q 1250 -91 836 529 
Q 422 1150 422 2328 
Q 422 3509 836 4129 
Q 1250 4750 2034 4750 
z
" transform="scale(0.015625)"/>
       </defs>
       <use xlink:href="#DejaVuSans-31"/>
       <use xlink:href="#DejaVuSans-30" x="63.623047"/>
       <use xlink:href="#DejaVuSans-30" x="127.246094"/>
      </g>
     </g>
    </g>
    <g id="xtick_5">
     <g id="line2d_5">
      <g>
       <use xlink:href="#m545ec9fd5c" x="217.15848" y="307.584" style="stroke: #000000; stroke-width: 0.8"/>
      </g>
     </g>
     <g id="text_5">
      <!-- 133 -->
      <g transform="translate(207.61473 322.182437) scale(0.1 -0.1)">
       <use xlink:href="#DejaVuSans-31"/>
       <use xlink:href="#DejaVuSans-33" x="63.623047"/>
       <use xlink:href="#DejaVuSans-33" x="127.246094"/>
      </g>
     </g>
    </g>
    <g id="xtick_6">
     <g id="line2d_6">
      <g>
       <use xlink:href="#m545ec9fd5c" x="254.075719" y="307.584" style="stroke: #000000; stroke-width: 0.8"/>
      </g>
     </g>
     <g id="text_6">
      <!-- 167 -->
      <g transform="translate(244.531969 322.182437) scale(0.1 -0.1)">
       <use xlink:href="#DejaVuSans-31"/>
       <use xlink:href="#DejaVuSans-36" x="63.623047"/>
       <use xlink:href="#DejaVuSans-37" x="127.246094"/>
      </g>
     </g>
    </g>
    <g id="xtick_7">
     <g id="line2d_7">
      <g>
       <use xlink:href="#m545ec9fd5c" x="289.907157" y="307.584" style="stroke: #000000; stroke-width: 0.8"/>
      </g>
     </g>
     <g id="text_7">
      <!-- 200 -->
      <g transform="translate(280.363407 322.182437) scale(0.1 -0.1)">
       <defs>
        <path id="DejaVuSans-32" d="M 1228 531 
L 3431 531 
L 3431 0 
L 469 0 
L 469 531 
Q 828 903 1448 1529 
Q 2069 2156 2228 2338 
Q 2531 2678 2651 2914 
Q 2772 3150 2772 3378 
Q 2772 3750 2511 3984 
Q 2250 4219 1831 4219 
Q 1534 4219 1204 4116 
Q 875 4013 500 3803 
L 500 4441 
Q 881 4594 1212 4672 
Q 1544 4750 1819 4750 
Q 2544 4750 2975 4387 
Q 3406 4025 3406 3419 
Q 3406 3131 3298 2873 
Q 3191 2616 2906 2266 
Q 2828 2175 2409 1742 
Q 1991 1309 1228 531 
z
" transform="scale(0.015625)"/>
       </defs>
       <use xlink:href="#DejaVuSans-32"/>
       <use xlink:href="#DejaVuSans-30" x="63.623047"/>
       <use xlink:href="#DejaVuSans-30" x="127.246094"/>
      </g>
     </g>
    </g>
    <g id="xtick_8">
     <g id="line2d_8">
      <g>
       <use xlink:href="#m545ec9fd5c" x="325.738595" y="307.584" style="stroke: #000000; stroke-width: 0.8"/>
      </g>
     </g>
     <g id="text_8">
      <!-- 233 -->
      <g transform="translate(316.194845 322.182437) scale(0.1 -0.1)">
       <use xlink:href="#DejaVuSans-32"/>
       <use xlink:href="#DejaVuSans-33" x="63.623047"/>
       <use xlink:href="#DejaVuSans-33" x="127.246094"/>
      </g>
     </g>
    </g>
    <g id="xtick_9">
     <g id="line2d_9">
      <g>
       <use xlink:href="#m545ec9fd5c" x="361.570033" y="307.584" style="stroke: #000000; stroke-width: 0.8"/>
      </g>
     </g>
     <g id="text_9">
      <!-- 266 -->
      <g transform="translate(352.026283 322.182437) scale(0.1 -0.1)">
       <use xlink:href="#DejaVuSans-32"/>
       <use xlink:href="#DejaVuSans-36" x="63.623047"/>
       <use xlink:href="#DejaVuSans-36" x="127.246094"/>
      </g>
     </g>
    </g>
    <g id="xtick_10">
     <g id="line2d_10">
      <g>
       <use xlink:href="#m545ec9fd5c" x="398.487273" y="307.584" style="stroke: #000000; stroke-width: 0.8"/>
      </g>
     </g>
     <g id="text_10">
      <!-- 300 -->
      <g transform="translate(388.943523 322.182437) scale(0.1 -0.1)">
       <use xlink:href="#DejaVuSans-33"/>
       <use xlink:href="#DejaVuSans-30" x="63.623047"/>
       <use xlink:href="#DejaVuSans-30" x="127.246094"/>
      </g>
     </g>
    </g>
    <g id="text_11">
     <!-- Epochs -->
     <g transform="translate(218.244375 335.860562) scale(0.1 -0.1)">
      <defs>
       <path id="DejaVuSans-45" d="M 628 4666 
L 3578 4666 
L 3578 4134 
L 1259 4134 
L 1259 2753 
L 3481 2753 
L 3481 2222 
L 1259 2222 
L 1259 531 
L 3634 531 
L 3634 0 
L 628 0 
L 628 4666 
z
" transform="scale(0.015625)"/>
       <path id="DejaVuSans-70" d="M 1159 525 
L 1159 -1331 
L 581 -1331 
L 581 3500 
L 1159 3500 
L 1159 2969 
Q 1341 3281 1617 3432 
Q 1894 3584 2278 3584 
Q 2916 3584 3314 3078 
Q 3713 2572 3713 1747 
Q 3713 922 3314 415 
Q 2916 -91 2278 -91 
Q 1894 -91 1617 61 
Q 1341 213 1159 525 
z
M 3116 1747 
Q 3116 2381 2855 2742 
Q 2594 3103 2138 3103 
Q 1681 3103 1420 2742 
Q 1159 2381 1159 1747 
Q 1159 1113 1420 752 
Q 1681 391 2138 391 
Q 2594 391 2855 752 
Q 3116 1113 3116 1747 
z
" transform="scale(0.015625)"/>
       <path id="DejaVuSans-6f" d="M 1959 3097 
Q 1497 3097 1228 2736 
Q 959 2375 959 1747 
Q 959 1119 1226 758 
Q 1494 397 1959 397 
Q 2419 397 2687 759 
Q 2956 1122 2956 1747 
Q 2956 2369 2687 2733 
Q 2419 3097 1959 3097 
z
M 1959 3584 
Q 2709 3584 3137 3096 
Q 3566 2609 3566 1747 
Q 3566 888 3137 398 
Q 2709 -91 1959 -91 
Q 1206 -91 779 398 
Q 353 888 353 1747 
Q 353 2609 779 3096 
Q 1206 3584 1959 3584 
z
" transform="scale(0.015625)"/>
       <path id="DejaVuSans-63" d="M 3122 3366 
L 3122 2828 
Q 2878 2963 2633 3030 
Q 2388 3097 2138 3097 
Q 1578 3097 1268 2742 
Q 959 2388 959 1747 
Q 959 1106 1268 751 
Q 1578 397 2138 397 
Q 2388 397 2633 464 
Q 2878 531 3122 666 
L 3122 134 
Q 2881 22 2623 -34 
Q 2366 -91 2075 -91 
Q 1284 -91 818 406 
Q 353 903 353 1747 
Q 353 2603 823 3093 
Q 1294 3584 2113 3584 
Q 2378 3584 2631 3529 
Q 2884 3475 3122 3366 
z
" transform="scale(0.015625)"/>
       <path id="DejaVuSans-68" d="M 3513 2113 
L 3513 0 
L 2938 0 
L 2938 2094 
Q 2938 2591 2744 2837 
Q 2550 3084 2163 3084 
Q 1697 3084 1428 2787 
Q 1159 2491 1159 1978 
L 1159 0 
L 581 0 
L 581 4863 
L 1159 4863 
L 1159 2956 
Q 1366 3272 1645 3428 
Q 1925 3584 2291 3584 
Q 2894 3584 3203 3211 
Q 3513 2838 3513 2113 
z
" transform="scale(0.015625)"/>
       <path id="DejaVuSans-73" d="M 2834 3397 
L 2834 2853 
Q 2591 2978 2328 3040 
Q 2066 3103 1784 3103 
Q 1356 3103 1142 2972 
Q 928 2841 928 2578 
Q 928 2378 1081 2264 
Q 1234 2150 1697 2047 
L 1894 2003 
Q 2506 1872 2764 1633 
Q 3022 1394 3022 966 
Q 3022 478 2636 193 
Q 2250 -91 1575 -91 
Q 1294 -91 989 -36 
Q 684 19 347 128 
L 347 722 
Q 666 556 975 473 
Q 1284 391 1588 391 
Q 1994 391 2212 530 
Q 2431 669 2431 922 
Q 2431 1156 2273 1281 
Q 2116 1406 1581 1522 
L 1381 1569 
Q 847 1681 609 1914 
Q 372 2147 372 2553 
Q 372 3047 722 3315 
Q 1072 3584 1716 3584 
Q 2034 3584 2315 3537 
Q 2597 3491 2834 3397 
z
" transform="scale(0.015625)"/>
      </defs>
      <use xlink:href="#DejaVuSans-45"/>
      <use xlink:href="#DejaVuSans-70" x="63.183594"/>
      <use xlink:href="#DejaVuSans-6f" x="126.660156"/>
      <use xlink:href="#DejaVuSans-63" x="187.841797"/>
      <use xlink:href="#DejaVuSans-68" x="242.822266"/>
      <use xlink:href="#DejaVuSans-73" x="306.201172"/>
     </g>
    </g>
   </g>
   <g id="matplotlib.axis_2">
    <g id="ytick_1">
     <g id="line2d_11">
      <defs>
       <path id="m8551e57906" d="M 0 0 
L -3.5 0 
" style="stroke: #000000; stroke-width: 0.8"/>
      </defs>
      <g>
       <use xlink:href="#m8551e57906" x="57.6" y="255.322678" style="stroke: #000000; stroke-width: 0.8"/>
      </g>
     </g>
     <g id="text_12">
      <!-- 20 -->
      <g transform="translate(37.875 259.121897) scale(0.1 -0.1)">
       <use xlink:href="#DejaVuSans-32"/>
       <use xlink:href="#DejaVuSans-30" x="63.623047"/>
      </g>
     </g>
    </g>
    <g id="ytick_2">
     <g id="line2d_12">
      <g>
       <use xlink:href="#m8551e57906" x="57.6" y="196.584272" style="stroke: #000000; stroke-width: 0.8"/>
      </g>
     </g>
     <g id="text_13">
      <!-- 40 -->
      <g transform="translate(37.875 200.38349) scale(0.1 -0.1)">
       <use xlink:href="#DejaVuSans-34"/>
       <use xlink:href="#DejaVuSans-30" x="63.623047"/>
      </g>
     </g>
    </g>
    <g id="ytick_3">
     <g id="line2d_13">
      <g>
       <use xlink:href="#m8551e57906" x="57.6" y="137.845865" style="stroke: #000000; stroke-width: 0.8"/>
      </g>
     </g>
     <g id="text_14">
      <!-- 60 -->
      <g transform="translate(37.875 141.645084) scale(0.1 -0.1)">
       <use xlink:href="#DejaVuSans-36"/>
       <use xlink:href="#DejaVuSans-30" x="63.623047"/>
      </g>
     </g>
    </g>
    <g id="ytick_4">
     <g id="line2d_14">
      <g>
       <use xlink:href="#m8551e57906" x="57.6" y="79.107459" style="stroke: #000000; stroke-width: 0.8"/>
      </g>
     </g>
     <g id="text_15">
      <!-- 80 -->
      <g transform="translate(37.875 82.906678) scale(0.1 -0.1)">
       <defs>
        <path id="DejaVuSans-38" d="M 2034 2216 
Q 1584 2216 1326 1975 
Q 1069 1734 1069 1313 
Q 1069 891 1326 650 
Q 1584 409 2034 409 
Q 2484 409 2743 651 
Q 3003 894 3003 1313 
Q 3003 1734 2745 1975 
Q 2488 2216 2034 2216 
z
M 1403 2484 
Q 997 2584 770 2862 
Q 544 3141 544 3541 
Q 544 4100 942 4425 
Q 1341 4750 2034 4750 
Q 2731 4750 3128 4425 
Q 3525 4100 3525 3541 
Q 3525 3141 3298 2862 
Q 3072 2584 2669 2484 
Q 3125 2378 3379 2068 
Q 3634 1759 3634 1313 
Q 3634 634 3220 271 
Q 2806 -91 2034 -91 
Q 1263 -91 848 271 
Q 434 634 434 1313 
Q 434 1759 690 2068 
Q 947 2378 1403 2484 
z
M 1172 3481 
Q 1172 3119 1398 2916 
Q 1625 2713 2034 2713 
Q 2441 2713 2670 2916 
Q 2900 3119 2900 3481 
Q 2900 3844 2670 4047 
Q 2441 4250 2034 4250 
Q 1625 4250 1398 4047 
Q 1172 3844 1172 3481 
z
" transform="scale(0.015625)"/>
       </defs>
       <use xlink:href="#DejaVuSans-38"/>
       <use xlink:href="#DejaVuSans-30" x="63.623047"/>
      </g>
     </g>
    </g>
    <g id="text_16">
     <!-- Accuracy -->
     <g transform="translate(31.795312 197.356125) rotate(-90) scale(0.1 -0.1)">
      <defs>
       <path id="DejaVuSans-41" d="M 2188 4044 
L 1331 1722 
L 3047 1722 
L 2188 4044 
z
M 1831 4666 
L 2547 4666 
L 4325 0 
L 3669 0 
L 3244 1197 
L 1141 1197 
L 716 0 
L 50 0 
L 1831 4666 
z
" transform="scale(0.015625)"/>
       <path id="DejaVuSans-75" d="M 544 1381 
L 544 3500 
L 1119 3500 
L 1119 1403 
Q 1119 906 1312 657 
Q 1506 409 1894 409 
Q 2359 409 2629 706 
Q 2900 1003 2900 1516 
L 2900 3500 
L 3475 3500 
L 3475 0 
L 2900 0 
L 2900 538 
Q 2691 219 2414 64 
Q 2138 -91 1772 -91 
Q 1169 -91 856 284 
Q 544 659 544 1381 
z
M 1991 3584 
L 1991 3584 
z
" transform="scale(0.015625)"/>
       <path id="DejaVuSans-72" d="M 2631 2963 
Q 2534 3019 2420 3045 
Q 2306 3072 2169 3072 
Q 1681 3072 1420 2755 
Q 1159 2438 1159 1844 
L 1159 0 
L 581 0 
L 581 3500 
L 1159 3500 
L 1159 2956 
Q 1341 3275 1631 3429 
Q 1922 3584 2338 3584 
Q 2397 3584 2469 3576 
Q 2541 3569 2628 3553 
L 2631 2963 
z
" transform="scale(0.015625)"/>
       <path id="DejaVuSans-61" d="M 2194 1759 
Q 1497 1759 1228 1600 
Q 959 1441 959 1056 
Q 959 750 1161 570 
Q 1363 391 1709 391 
Q 2188 391 2477 730 
Q 2766 1069 2766 1631 
L 2766 1759 
L 2194 1759 
z
M 3341 1997 
L 3341 0 
L 2766 0 
L 2766 531 
Q 2569 213 2275 61 
Q 1981 -91 1556 -91 
Q 1019 -91 701 211 
Q 384 513 384 1019 
Q 384 1609 779 1909 
Q 1175 2209 1959 2209 
L 2766 2209 
L 2766 2266 
Q 2766 2663 2505 2880 
Q 2244 3097 1772 3097 
Q 1472 3097 1187 3025 
Q 903 2953 641 2809 
L 641 3341 
Q 956 3463 1253 3523 
Q 1550 3584 1831 3584 
Q 2591 3584 2966 3190 
Q 3341 2797 3341 1997 
z
" transform="scale(0.015625)"/>
       <path id="DejaVuSans-79" d="M 2059 -325 
Q 1816 -950 1584 -1140 
Q 1353 -1331 966 -1331 
L 506 -1331 
L 506 -850 
L 844 -850 
Q 1081 -850 1212 -737 
Q 1344 -625 1503 -206 
L 1606 56 
L 191 3500 
L 800 3500 
L 1894 763 
L 2988 3500 
L 3597 3500 
L 2059 -325 
z
" transform="scale(0.015625)"/>
      </defs>
      <use xlink:href="#DejaVuSans-41"/>
      <use xlink:href="#DejaVuSans-63" x="66.658203"/>
      <use xlink:href="#DejaVuSans-63" x="121.638672"/>
      <use xlink:href="#DejaVuSans-75" x="176.619141"/>
      <use xlink:href="#DejaVuSans-72" x="239.998047"/>
      <use xlink:href="#DejaVuSans-61" x="281.111328"/>
      <use xlink:href="#DejaVuSans-63" x="342.390625"/>
      <use xlink:href="#DejaVuSans-79" x="397.371094"/>
     </g>
    </g>
   </g>
   <g id="line2d_15">
    <path d="M 73.832727 295.488 
L 74.918528 269.419895 
L 76.00433 240.203412 
L 77.090131 214.957645 
L 78.175932 197.600446 
L 79.261733 182.228605 
L 82.519137 154.809517 
L 83.604938 150.063454 
L 84.690739 142.832756 
L 85.77654 137.634407 
L 86.862341 133.176162 
L 87.948142 130.850121 
L 89.033943 124.905794 
L 90.119745 123.836755 
L 91.205546 120.453423 
L 92.291347 117.569367 
L 93.377148 117.028974 
L 94.462949 114.838032 
L 95.54875 141.211576 
L 96.634552 141.640366 
L 97.720353 136.571242 
L 98.806154 135.707787 
L 99.891955 133.411116 
L 100.977756 129.769334 
L 102.063557 128.706169 
L 103.149358 125.593034 
L 104.23516 123.877872 
L 105.320961 121.681056 
L 106.406762 119.073071 
L 107.492563 116.87038 
L 108.578364 115.343182 
L 109.664165 113.35195 
L 110.749967 110.556002 
L 111.835768 109.751286 
L 112.921569 107.213786 
L 114.00737 106.050766 
L 115.093171 103.989048 
L 116.178972 102.473597 
L 117.264773 101.169604 
L 118.350575 98.297296 
L 120.522177 96.012372 
L 121.607978 93.886042 
L 122.693779 91.430777 
L 123.77958 92.100395 
L 124.865382 89.351437 
L 129.208586 85.204506 
L 130.294387 83.530461 
L 131.380189 83.236769 
L 132.46599 81.686075 
L 133.551791 82.261711 
L 134.637592 81.50986 
L 135.723393 80.446695 
L 136.809194 81.521608 
L 137.894995 80.258732 
L 138.980797 105.134447 
L 140.066598 107.419371 
L 141.152399 107.196165 
L 142.2382 106.021397 
L 144.409802 106.579412 
L 146.581405 105.005222 
L 147.667206 103.924436 
L 148.753007 104.523567 
L 149.838808 102.226896 
L 150.924609 100.864165 
L 152.01041 101.381063 
L 154.182013 97.698165 
L 155.267814 98.45589 
L 156.353615 98.273801 
L 157.439416 96.153345 
L 159.611019 95.460231 
L 160.69682 92.770012 
L 161.782621 94.05051 
L 162.868422 92.006413 
L 163.954223 92.229619 
L 165.040024 91.090094 
L 166.125825 91.101842 
L 167.211627 90.361738 
L 168.297428 89.322068 
L 169.383229 89.421923 
L 170.46903 87.524673 
L 171.554831 86.960784 
L 172.640632 86.244175 
L 173.726434 84.893192 
L 174.812235 84.37042 
L 175.898036 85.157515 
L 176.983837 84.01799 
L 178.069638 82.379188 
L 179.155439 81.298402 
L 180.24124 81.527481 
L 181.327042 81.909281 
L 183.498644 78.214635 
L 184.584445 77.950312 
L 185.670246 77.53327 
L 186.756047 76.599329 
L 187.841849 76.123548 
L 188.92765 75.98845 
L 190.013451 74.7197 
L 191.099252 73.997218 
L 192.185053 72.599244 
L 193.270854 73.204249 
L 194.356656 71.653555 
L 195.442457 70.966316 
L 196.528258 70.696119 
L 197.614059 69.468487 
L 198.69986 68.675518 
L 199.785661 68.881103 
L 200.871462 68.681392 
L 201.957264 67.794442 
L 203.043065 66.431711 
L 204.128866 65.750345 
L 205.214667 65.991173 
L 207.386269 64.158535 
L 208.472071 63.823726 
L 209.557872 63.935329 
L 210.643673 63.512412 
L 211.729474 61.926475 
L 212.815275 62.460995 
L 213.901076 62.20842 
L 214.986877 62.936776 
L 216.072679 62.026331 
L 217.15848 60.933796 
L 218.244281 61.386082 
L 220.415883 61.650405 
L 221.501684 61.433073 
L 222.587486 60.969039 
L 223.673287 60.728212 
L 224.759088 61.063021 
L 225.844889 85.891745 
L 226.93069 90.643682 
L 228.016491 91.166454 
L 229.102292 92.711274 
L 230.188094 90.70242 
L 231.273895 91.348543 
L 232.359696 91.642235 
L 233.445497 91.789081 
L 234.531298 92.229619 
L 235.617099 91.025482 
L 236.702901 91.806702 
L 237.788702 91.066599 
L 238.874503 90.144406 
L 239.960304 90.508584 
L 241.046105 90.990239 
L 242.131906 89.668624 
L 244.303509 89.580517 
L 245.38931 88.511478 
L 246.475111 88.910899 
L 247.560912 88.546721 
L 249.732514 88.159047 
L 251.904117 86.661218 
L 252.989918 86.849181 
L 254.075719 87.254476 
L 255.16152 86.490877 
L 256.247321 84.887318 
L 257.333123 86.167815 
L 258.418924 85.650917 
L 259.504725 84.511392 
L 260.590526 85.204506 
L 261.676327 84.405663 
L 262.762128 84.153088 
L 263.847929 84.14134 
L 264.933731 82.8256 
L 266.019532 84.111971 
L 267.105333 83.031185 
L 268.191134 82.120739 
L 269.276935 82.766862 
L 270.362736 82.255838 
L 271.448538 82.232342 
L 272.534339 82.044379 
L 273.62014 81.492238 
L 274.705941 81.186799 
L 275.791742 80.540676 
L 276.877543 81.169177 
L 277.963344 80.799125 
L 279.049146 79.330665 
L 280.134947 79.471637 
L 281.220748 78.837262 
L 282.306549 79.095711 
L 283.39235 78.790272 
L 284.478151 78.890127 
L 285.563953 77.903322 
L 286.649754 78.431967 
L 287.735555 76.628698 
L 288.821356 76.740301 
L 289.907157 77.004624 
L 290.992958 76.06481 
L 292.07876 76.475978 
L 293.164561 75.036887 
L 294.250362 75.189607 
L 295.336163 74.972275 
L 296.421964 74.51999 
L 297.507765 73.914984 
L 298.593566 73.092646 
L 299.679368 73.439203 
L 300.765169 73.574301 
L 301.85097 72.986917 
L 304.022572 73.221871 
L 305.108373 72.36429 
L 306.194175 72.188075 
L 307.279976 70.707867 
L 308.365777 71.536078 
L 310.537379 69.844412 
L 312.708981 70.613885 
L 313.794783 69.644702 
L 314.880584 69.450865 
L 317.052186 67.124824 
L 318.137987 68.346583 
L 319.223788 67.34803 
L 320.30959 67.283418 
L 321.395391 66.390594 
L 322.481192 67.671091 
L 323.566993 66.660791 
L 324.652794 64.528587 
L 325.738595 64.211399 
L 326.824396 65.139466 
L 327.910198 64.775288 
L 328.995999 64.822279 
L 330.0818 65.057232 
L 331.167601 63.14236 
L 333.339203 62.919154 
L 334.425005 61.726765 
L 335.510806 62.273032 
L 336.596607 61.450694 
L 337.682408 61.568171 
L 338.768209 60.910301 
L 339.85401 61.491811 
L 340.939811 59.929369 
L 342.025613 60.05272 
L 344.197215 58.502026 
L 345.283016 58.983681 
L 346.368817 58.86033 
L 347.454618 57.944011 
L 348.54042 58.090857 
L 349.626221 58.455035 
L 350.712022 57.521095 
L 351.797823 57.198034 
L 352.883624 56.687009 
L 353.969425 57.027692 
L 355.055227 56.651766 
L 356.141028 55.54161 
L 357.226829 54.161258 
L 358.31263 55.582727 
L 359.398431 55.476998 
L 360.484232 54.825002 
L 361.570033 54.742768 
L 362.655835 53.855818 
L 364.827437 54.067276 
L 368.08484 53.568 
L 369.170642 54.848497 
L 370.256443 54.642913 
L 371.342244 55.612097 
L 372.428045 56.410939 
L 373.513846 56.393317 
L 374.599647 56.53429 
L 375.685448 56.839729 
L 377.857051 55.788312 
L 380.028653 56.258219 
L 381.114454 56.687009 
L 382.200255 56.434434 
L 384.371858 56.42856 
L 385.457659 55.817681 
L 386.54346 56.187733 
L 387.629261 56.734 
L 389.800863 56.281714 
L 390.886665 56.211228 
L 391.972466 56.481425 
L 393.058267 55.676709 
L 394.144068 56.029139 
L 395.229869 55.911662 
L 396.31567 55.535737 
L 397.401472 55.870546 
L 398.487273 56.358074 
L 398.487273 56.358074 
" clip-path="url(#pdc21394006)" style="fill: none; stroke: #1f77b4; stroke-width: 1.5; stroke-linecap: square"/>
   </g>
   <g id="line2d_16">
    <path d="M 73.832727 278.84741 
L 74.918528 255.61637 
L 76.00433 227.157612 
L 77.090131 217.759467 
L 78.175932 185.21839 
L 79.261733 186.921804 
L 80.347534 175.467815 
L 81.433335 158.463046 
L 82.519137 164.865532 
L 83.604938 149.299855 
L 84.690739 148.74184 
L 85.77654 145.246904 
L 86.862341 134.703361 
L 87.948142 135.584437 
L 89.033943 129.358166 
L 91.205546 123.249371 
L 92.291347 121.45785 
L 93.377148 120.34182 
L 94.462949 120.371189 
L 95.54875 154.791895 
L 96.634552 156.348463 
L 97.720353 144.542044 
L 99.891955 139.90171 
L 100.977756 139.402433 
L 102.063557 135.907498 
L 103.149358 137.581542 
L 104.23516 129.152581 
L 105.320961 131.296533 
L 106.406762 132.383194 
L 107.492563 125.393323 
L 108.578364 119.60759 
L 109.664165 121.692804 
L 110.749967 121.957126 
L 111.835768 116.641301 
L 112.921569 115.701486 
L 114.00737 115.114102 
L 115.093171 110.973044 
L 117.264773 107.948017 
L 118.350575 106.743879 
L 119.436376 105.069835 
L 120.522177 105.011096 
L 121.607978 100.928777 
L 122.693779 100.45887 
L 123.77958 100.488239 
L 124.865382 98.843564 
L 125.951183 98.197441 
L 127.036984 98.168072 
L 128.122785 94.996198 
L 129.208586 94.17386 
L 130.294387 94.614398 
L 131.380189 93.322153 
L 132.46599 92.529185 
L 133.551791 92.558554 
L 134.637592 91.383786 
L 136.809194 91.706847 
L 137.894995 91.560001 
L 138.980797 121.751542 
L 140.066598 119.431375 
L 141.152399 120.841097 
L 142.2382 124.247924 
L 143.324001 119.284529 
L 144.409802 117.052469 
L 145.495604 113.381319 
L 146.581405 116.347609 
L 147.667206 113.998072 
L 148.753007 112.911412 
L 149.838808 118.109761 
L 150.924609 109.563323 
L 152.01041 109.915753 
L 153.096212 113.675011 
L 154.182013 108.506031 
L 155.267814 110.649983 
L 156.353615 105.921541 
L 157.439416 107.008202 
L 158.525217 106.391449 
L 159.611019 104.13002 
L 160.69682 104.13002 
L 161.782621 104.922989 
L 162.868422 103.425159 
L 163.954223 104.51182 
L 165.040024 101.92733 
L 166.125825 104.599927 
L 167.211627 102.749668 
L 168.297428 98.344287 
L 169.383229 101.016885 
L 170.46903 101.457423 
L 171.554831 98.549872 
L 172.640632 99.049148 
L 173.726434 94.790614 
L 174.812235 97.727534 
L 175.898036 96.37655 
L 176.983837 95.348628 
L 178.069638 94.027014 
L 179.155439 95.143044 
L 180.24124 93.175307 
L 181.327042 93.498369 
L 182.412843 92.264862 
L 183.498644 91.207571 
L 184.584445 91.060725 
L 185.670246 90.50271 
L 186.756047 89.416049 
L 187.841849 87.507051 
L 188.92765 90.85514 
L 190.013451 88.241281 
L 191.099252 87.947589 
L 192.185053 86.567237 
L 193.270854 87.037144 
L 194.356656 86.831559 
L 195.442457 85.363099 
L 196.528258 84.775715 
L 197.614059 83.542209 
L 198.69986 83.219147 
L 199.785661 82.573025 
L 200.871462 83.542209 
L 201.957264 81.838795 
L 203.043065 81.956272 
L 204.128866 82.279333 
L 205.214667 80.429073 
L 206.300468 81.104565 
L 207.386269 80.54655 
L 208.472071 80.399704 
L 209.557872 80.752134 
L 210.643673 80.311596 
L 211.729474 79.401151 
L 212.815275 79.166197 
L 213.901076 79.959166 
L 214.986877 80.076643 
L 216.072679 78.666921 
L 217.15848 79.313043 
L 218.244281 79.489259 
L 219.330082 78.549444 
L 221.501684 78.255752 
L 222.587486 78.666921 
L 223.673287 78.431967 
L 224.759088 78.402598 
L 225.844889 107.213786 
L 226.93069 109.269631 
L 228.016491 107.80117 
L 229.102292 107.654324 
L 230.188094 108.506031 
L 231.273895 103.895066 
L 232.359696 107.125679 
L 233.445497 105.686588 
L 234.531298 108.036124 
L 235.617099 106.303341 
L 236.702901 102.66156 
L 237.788702 108.56477 
L 238.874503 102.925883 
L 239.960304 105.627849 
L 242.131906 98.549872 
L 243.217708 103.806959 
L 244.303509 100.693823 
L 245.38931 110.473768 
L 246.475111 101.516161 
L 247.560912 102.162283 
L 248.646713 98.96104 
L 249.732514 101.897961 
L 250.818316 101.046254 
L 251.904117 104.952358 
L 252.989918 99.460317 
L 255.16152 98.60861 
L 256.247321 103.572005 
L 257.333123 98.784825 
L 258.418924 98.285549 
L 259.504725 101.104992 
L 260.590526 99.607163 
L 261.676327 101.516161 
L 262.762128 99.842116 
L 263.847929 93.997645 
L 264.933731 97.87438 
L 266.019532 98.60861 
L 267.105333 96.259074 
L 268.191134 95.936012 
L 269.276935 97.87438 
L 270.362736 96.37655 
L 271.448538 98.726087 
L 272.534339 96.082858 
L 273.62014 98.843564 
L 274.705941 95.64232 
L 275.791742 97.903749 
L 276.877543 93.410261 
L 277.963344 99.078517 
L 279.049146 95.701059 
L 280.134947 96.817089 
L 281.220748 90.943248 
L 282.306549 94.996198 
L 283.39235 93.145938 
L 285.563953 90.620187 
L 286.649754 90.796402 
L 287.735555 91.119463 
L 288.821356 91.736216 
L 289.907157 91.677478 
L 290.992958 89.709741 
L 292.07876 88.388127 
L 293.164561 89.856587 
L 294.250362 92.646662 
L 295.336163 89.592265 
L 296.421964 90.032803 
L 297.507765 90.796402 
L 298.593566 89.592265 
L 299.679368 89.504157 
L 300.765169 87.272098 
L 301.85097 89.651003 
L 302.936771 87.91822 
L 304.022572 89.269203 
L 305.108373 85.862376 
L 306.194175 89.76848 
L 307.279976 88.153174 
L 308.365777 88.065066 
L 309.451578 86.890298 
L 310.537379 86.684713 
L 311.62318 87.389574 
L 312.708981 87.007775 
L 313.794783 84.863823 
L 314.880584 86.185437 
L 315.966385 84.158962 
L 317.052186 84.100224 
L 318.137987 83.365993 
L 319.223788 85.71553 
L 320.30959 83.600947 
L 322.481192 82.719871 
L 323.566993 84.305808 
L 324.652794 83.51284 
L 325.738595 84.364546 
L 326.824396 82.631763 
L 327.910198 82.954825 
L 328.995999 81.251411 
L 330.0818 81.985641 
L 331.167601 82.39681 
L 332.253402 80.047274 
L 333.339203 81.368888 
L 334.425005 80.047274 
L 335.510806 81.104565 
L 338.768209 79.048721 
L 339.85401 79.136828 
L 340.939811 78.490706 
L 342.025613 78.872505 
L 343.111414 77.60963 
L 344.197215 78.079537 
L 345.283016 77.169092 
L 346.368817 77.991429 
L 347.454618 77.785845 
L 348.54042 78.197014 
L 349.626221 76.199908 
L 350.712022 77.638999 
L 351.797823 77.374676 
L 352.883624 76.4936 
L 353.969425 76.053062 
L 355.055227 77.022246 
L 356.141028 77.080984 
L 358.31263 73.497941 
L 359.398431 74.760817 
L 360.484232 74.672709 
L 361.570033 75.553785 
L 362.655835 75.260093 
L 363.741636 74.055956 
L 364.827437 74.437756 
L 365.913238 75.436309 
L 366.999039 73.90911 
L 368.08484 73.732895 
L 369.170642 74.64334 
L 370.256443 75.700631 
L 371.342244 75.75937 
L 373.513846 77.110353 
L 374.599647 76.787292 
L 375.685448 77.169092 
L 376.77125 76.963507 
L 377.857051 76.934138 
L 378.942852 76.053062 
L 381.114454 78.373229 
L 382.200255 76.581708 
L 384.371858 76.376123 
L 385.457659 76.8754 
L 386.54346 76.552338 
L 387.629261 77.198461 
L 388.715062 77.58026 
L 389.800863 77.433414 
L 390.886665 76.8754 
L 391.972466 78.138275 
L 393.058267 76.816661 
L 394.144068 78.755029 
L 395.229869 78.402598 
L 396.31567 75.818108 
L 397.401472 77.638999 
L 398.487273 78.108906 
L 398.487273 78.108906 
" clip-path="url(#pdc21394006)" style="fill: none; stroke: #ff7f0e; stroke-width: 1.5; stroke-linecap: square"/>
   </g>
   <g id="line2d_17">
    <path d="M 73.832727 283.76029 
L 74.918528 266.543769 
L 76.00433 246.390328 
L 77.090131 240.577282 
L 78.175932 218.540394 
L 79.261733 219.228808 
L 81.433335 193.120761 
L 82.519137 201.870728 
L 83.604938 190.933343 
L 84.690739 188.239306 
L 85.77654 186.578478 
L 86.862341 176.99795 
L 87.948142 173.53444 
L 89.033943 172.298877 
L 91.205546 165.473181 
L 92.291347 163.326292 
L 93.377148 163.285763 
L 94.462949 162.536261 
L 95.54875 197.536127 
L 96.634552 199.278015 
L 97.720353 191.419403 
L 98.806154 184.472118 
L 99.891955 182.689702 
L 100.977756 182.95285 
L 102.063557 179.165397 
L 103.149358 181.757817 
L 104.23516 177.585334 
L 105.320961 172.48126 
L 106.406762 179.40828 
L 107.492563 170.55699 
L 108.578364 170.334371 
L 109.664165 167.903776 
L 110.749967 165.16921 
L 111.835768 161.746229 
L 112.921569 165.128974 
L 114.00737 160.085401 
L 115.093171 154.029177 
L 116.178972 158.991692 
L 117.264773 155.467387 
L 118.350575 155.751094 
L 119.436376 154.089972 
L 120.522177 148.580896 
L 121.607978 151.092257 
L 122.693779 149.492223 
L 123.77958 149.370634 
L 124.865382 145.562917 
L 125.951183 145.988183 
L 127.036984 146.170566 
L 128.122785 141.228316 
L 129.208586 142.76785 
L 130.294387 141.694112 
L 131.380189 141.694112 
L 132.46599 140.053548 
L 134.637592 139.992754 
L 135.723393 140.013019 
L 136.809194 140.418314 
L 137.894995 140.539609 
L 138.980797 166.020036 
L 140.066598 170.374901 
L 141.152399 167.802452 
L 142.2382 167.96457 
L 143.324001 162.09073 
L 144.409802 166.891126 
L 145.495604 162.61732 
L 146.581405 165.128974 
L 147.667206 160.044871 
L 148.753007 161.361493 
L 149.838808 166.324007 
L 150.924609 161.503346 
L 152.01041 157.290334 
L 153.096212 157.472716 
L 154.182013 157.371393 
L 155.267814 156.237154 
L 156.353615 154.798944 
L 157.439416 159.822253 
L 158.525217 151.720171 
L 159.611019 154.717885 
L 160.69682 158.080365 
L 161.782621 154.110236 
L 162.868422 152.307555 
L 163.954223 155.771065 
L 165.040024 151.396228 
L 166.125825 152.652055 
L 167.211627 151.578611 
L 168.297428 147.304805 
L 169.383229 144.79315 
L 170.46903 151.7607 
L 171.554831 149.16828 
L 172.640632 148.621426 
L 173.726434 145.947654 
L 174.812235 146.616097 
L 175.898036 146.940333 
L 176.983837 145.016063 
L 178.069638 146.251625 
L 179.155439 144.530002 
L 180.24124 141.734641 
L 181.327042 141.917024 
L 182.412843 139.547223 
L 183.498644 139.587753 
L 184.584445 140.985433 
L 185.670246 139.648547 
L 186.756047 140.053548 
L 187.841849 138.412985 
L 188.92765 135.982389 
L 190.013451 136.85348 
L 191.099252 137.055834 
L 192.185053 135.273417 
L 193.270854 133.936824 
L 194.356656 136.610303 
L 195.442457 134.585003 
L 196.528258 131.506229 
L 197.614059 133.491 
L 198.69986 131.789642 
L 199.785661 131.141464 
L 200.871462 131.222523 
L 201.957264 130.655403 
L 203.043065 131.323846 
L 204.128866 128.670633 
L 205.214667 128.751398 
L 206.300468 129.521165 
L 207.386269 130.655403 
L 208.472071 128.326132 
L 209.557872 128.062984 
L 210.643673 128.245073 
L 211.729474 127.232423 
L 212.815275 127.677953 
L 214.986877 127.4756 
L 216.072679 127.05004 
L 217.15848 126.240037 
L 218.244281 126.746362 
L 219.330082 126.179243 
L 220.415883 126.341361 
L 223.673287 127.536394 
L 224.759088 126.179243 
L 225.844889 160.490402 
L 226.93069 160.530931 
L 228.016491 158.748515 
L 229.102292 165.06818 
L 231.273895 156.297948 
L 232.359696 160.409637 
L 233.445497 161.199375 
L 234.531298 157.7156 
L 235.617099 157.168745 
L 236.702901 152.24676 
L 237.788702 161.60467 
L 238.874503 151.497552 
L 239.960304 154.110236 
L 242.131906 145.400799 
L 243.217708 154.616561 
L 244.303509 151.375963 
L 245.38931 158.505631 
L 246.475111 151.052021 
L 247.560912 148.560632 
L 248.646713 153.583646 
L 249.732514 153.766029 
L 250.818316 158.688014 
L 251.904117 154.900268 
L 252.989918 146.433714 
L 254.075719 149.006162 
L 255.16152 150.788569 
L 256.247321 161.037408 
L 257.333123 147.24401 
L 258.418924 151.396208 
L 259.504725 147.568084 
L 261.676327 157.614377 
L 262.762128 149.775838 
L 263.847929 147.851649 
L 264.933731 148.195978 
L 266.019532 148.378269 
L 268.191134 147.102228 
L 269.276935 150.282204 
L 270.362736 149.066926 
L 271.448538 151.639263 
L 272.534339 145.562877 
L 273.62014 146.879427 
L 274.705941 151.84181 
L 275.791742 153.219124 
L 276.877543 148.114959 
L 277.963344 150.707551 
L 279.049146 148.439033 
L 280.134947 147.385793 
L 281.220748 139.689036 
L 282.306549 145.502113 
L 283.39235 146.737645 
L 284.478151 141.167623 
L 285.563953 139.851073 
L 286.649754 140.762531 
L 287.735555 142.382901 
L 288.821356 139.689036 
L 289.907157 140.377693 
L 290.992958 139.121907 
L 292.07876 139.911837 
L 293.164561 138.352231 
L 294.250362 140.924568 
L 295.336163 140.965077 
L 296.421964 138.068666 
L 297.507765 139.972601 
L 298.593566 142.42341 
L 299.679368 138.331976 
L 301.85097 140.094128 
L 302.936771 139.243434 
L 304.022572 142.301882 
L 305.108373 139.648527 
L 306.194175 144.772946 
L 307.279976 138.331976 
L 308.365777 135.152 
L 309.451578 137.643319 
L 311.62318 137.29899 
L 312.708981 136.893898 
L 313.794783 134.483598 
L 314.880584 135.921676 
L 315.966385 138.494013 
L 317.052186 133.329084 
L 318.137987 132.316353 
L 319.223788 133.167047 
L 321.395391 134.544362 
L 322.481192 134.524107 
L 323.566993 131.647951 
L 324.652794 129.561725 
L 325.738595 129.01485 
L 326.824396 132.498645 
L 327.910198 131.121331 
L 328.995999 130.574456 
L 330.0818 132.944247 
L 331.167601 131.627696 
L 332.253402 130.797257 
L 333.339203 130.614965 
L 334.425005 128.245174 
L 336.596607 127.353971 
L 337.682408 130.250382 
L 338.768209 127.13117 
L 339.85401 128.913577 
L 340.939811 128.265429 
L 342.025613 125.733601 
L 343.111414 126.665313 
L 344.197215 126.483022 
L 345.283016 128.528739 
L 346.368817 126.786841 
L 347.454618 125.450036 
L 348.54042 126.888114 
L 349.626221 126.645059 
L 350.712022 125.693092 
L 351.797823 125.551309 
L 352.883624 122.918208 
L 353.969425 121.338348 
L 355.055227 123.971449 
L 356.141028 123.647375 
L 357.226829 122.978972 
L 358.31263 121.237075 
L 359.398431 121.844713 
L 360.484232 121.257329 
L 361.570033 123.181518 
L 362.655835 121.864968 
L 363.741636 122.776426 
L 364.827437 123.059991 
L 365.913238 121.156056 
L 366.999039 122.53337 
L 368.08484 120.669945 
L 369.170642 122.472607 
L 370.256443 122.594134 
L 371.342244 124.072722 
L 372.428045 123.242282 
L 373.513846 126.118439 
L 374.599647 125.834874 
L 375.685448 124.700615 
L 376.77125 124.943671 
L 377.857051 125.632328 
L 378.942852 123.667629 
L 380.028653 126.017166 
L 381.114454 126.098184 
L 382.200255 122.715662 
L 383.286057 124.761379 
L 384.371858 122.53337 
L 385.457659 123.404319 
L 386.54346 125.713346 
L 387.629261 123.647375 
L 388.715062 124.15374 
L 389.800863 122.877699 
L 390.886665 125.976656 
L 391.972466 125.206981 
L 393.058267 120.325617 
L 394.144068 126.098184 
L 395.229869 126.30073 
L 396.31567 126.928624 
L 397.401472 126.30073 
L 398.487273 122.634644 
L 398.487273 122.634644 
" clip-path="url(#pdc21394006)" style="fill: none; stroke: #2ca02c; stroke-width: 1.5; stroke-linecap: square"/>
   </g>
   <g id="line2d_18">
    <path d="M 368.08484 73.821002 
L 369.170642 74.202802 
L 370.256443 73.967848 
L 371.342244 75.876847 
L 372.428045 76.258646 
L 373.513846 75.495047 
L 374.599647 75.671262 
L 375.685448 77.58026 
L 376.77125 79.782951 
L 377.857051 81.133934 
L 378.942852 78.755029 
L 380.028653 79.107459 
L 381.114454 81.222042 
L 382.200255 81.427626 
L 383.286057 82.044379 
L 384.371858 85.421838 
L 385.457659 85.686161 
L 386.54346 93.733322 
L 387.629261 87.947589 
L 388.715062 92.852246 
L 389.800863 95.319259 
L 390.886665 96.670243 
L 391.972466 100.429501 
L 393.058267 98.021226 
L 394.144068 99.254732 
L 396.31567 102.984621 
L 398.487273 111.384213 
L 398.487273 111.384213 
" clip-path="url(#pdc21394006)" style="fill: none; stroke: #d62728; stroke-width: 1.5; stroke-linecap: square"/>
   </g>
   <g id="line2d_19">
    <path d="M 368.08484 120.609181 
L 369.170642 120.831982 
L 370.256443 120.224343 
L 371.342244 124.45756 
L 372.428045 121.419366 
L 373.513846 122.452352 
L 374.599647 123.971449 
L 375.685448 122.047259 
L 376.77125 125.976656 
L 377.857051 127.941355 
L 378.942852 123.606865 
L 380.028653 124.822143 
L 381.114454 127.090661 
L 382.200255 127.718554 
L 383.286057 127.9211 
L 384.371858 134.584871 
L 385.457659 130.918784 
L 386.54346 140.154892 
L 387.629261 131.830242 
L 388.715062 140.762531 
L 389.800863 145.785677 
L 390.886665 145.522367 
L 391.972466 149.573292 
L 393.058267 144.084289 
L 394.144068 144.732437 
L 395.229869 147.709867 
L 396.31567 149.12769 
L 397.401472 152.206393 
L 398.487273 159.59933 
L 398.487273 159.59933 
" clip-path="url(#pdc21394006)" style="fill: none; stroke: #9467bd; stroke-width: 1.5; stroke-linecap: square"/>
   </g>
   <g id="patch_3">
    <path d="M 57.6 307.584 
L 57.6 41.472 
" style="fill: none; stroke: #000000; stroke-width: 0.8; stroke-linejoin: miter; stroke-linecap: square"/>
   </g>
   <g id="patch_4">
    <path d="M 414.72 307.584 
L 414.72 41.472 
" style="fill: none; stroke: #000000; stroke-width: 0.8; stroke-linejoin: miter; stroke-linecap: square"/>
   </g>
   <g id="patch_5">
    <path d="M 57.6 307.584 
L 414.72 307.584 
" style="fill: none; stroke: #000000; stroke-width: 0.8; stroke-linejoin: miter; stroke-linecap: square"/>
   </g>
   <g id="patch_6">
    <path d="M 57.6 41.472 
L 414.72 41.472 
" style="fill: none; stroke: #000000; stroke-width: 0.8; stroke-linejoin: miter; stroke-linecap: square"/>
   </g>
   <g id="text_17">
    <!-- Learning Curves -->
    <g transform="translate(187.37625 35.472) scale(0.12 -0.12)">
     <defs>
      <path id="DejaVuSans-4c" d="M 628 4666 
L 1259 4666 
L 1259 531 
L 3531 531 
L 3531 0 
L 628 0 
L 628 4666 
z
" transform="scale(0.015625)"/>
      <path id="DejaVuSans-65" d="M 3597 1894 
L 3597 1613 
L 953 1613 
Q 991 1019 1311 708 
Q 1631 397 2203 397 
Q 2534 397 2845 478 
Q 3156 559 3463 722 
L 3463 178 
Q 3153 47 2828 -22 
Q 2503 -91 2169 -91 
Q 1331 -91 842 396 
Q 353 884 353 1716 
Q 353 2575 817 3079 
Q 1281 3584 2069 3584 
Q 2775 3584 3186 3129 
Q 3597 2675 3597 1894 
z
M 3022 2063 
Q 3016 2534 2758 2815 
Q 2500 3097 2075 3097 
Q 1594 3097 1305 2825 
Q 1016 2553 972 2059 
L 3022 2063 
z
" transform="scale(0.015625)"/>
      <path id="DejaVuSans-6e" d="M 3513 2113 
L 3513 0 
L 2938 0 
L 2938 2094 
Q 2938 2591 2744 2837 
Q 2550 3084 2163 3084 
Q 1697 3084 1428 2787 
Q 1159 2491 1159 1978 
L 1159 0 
L 581 0 
L 581 3500 
L 1159 3500 
L 1159 2956 
Q 1366 3272 1645 3428 
Q 1925 3584 2291 3584 
Q 2894 3584 3203 3211 
Q 3513 2838 3513 2113 
z
" transform="scale(0.015625)"/>
      <path id="DejaVuSans-69" d="M 603 3500 
L 1178 3500 
L 1178 0 
L 603 0 
L 603 3500 
z
M 603 4863 
L 1178 4863 
L 1178 4134 
L 603 4134 
L 603 4863 
z
" transform="scale(0.015625)"/>
      <path id="DejaVuSans-67" d="M 2906 1791 
Q 2906 2416 2648 2759 
Q 2391 3103 1925 3103 
Q 1463 3103 1205 2759 
Q 947 2416 947 1791 
Q 947 1169 1205 825 
Q 1463 481 1925 481 
Q 2391 481 2648 825 
Q 2906 1169 2906 1791 
z
M 3481 434 
Q 3481 -459 3084 -895 
Q 2688 -1331 1869 -1331 
Q 1566 -1331 1297 -1286 
Q 1028 -1241 775 -1147 
L 775 -588 
Q 1028 -725 1275 -790 
Q 1522 -856 1778 -856 
Q 2344 -856 2625 -561 
Q 2906 -266 2906 331 
L 2906 616 
Q 2728 306 2450 153 
Q 2172 0 1784 0 
Q 1141 0 747 490 
Q 353 981 353 1791 
Q 353 2603 747 3093 
Q 1141 3584 1784 3584 
Q 2172 3584 2450 3431 
Q 2728 3278 2906 2969 
L 2906 3500 
L 3481 3500 
L 3481 434 
z
" transform="scale(0.015625)"/>
      <path id="DejaVuSans-20" transform="scale(0.015625)"/>
      <path id="DejaVuSans-43" d="M 4122 4306 
L 4122 3641 
Q 3803 3938 3442 4084 
Q 3081 4231 2675 4231 
Q 1875 4231 1450 3742 
Q 1025 3253 1025 2328 
Q 1025 1406 1450 917 
Q 1875 428 2675 428 
Q 3081 428 3442 575 
Q 3803 722 4122 1019 
L 4122 359 
Q 3791 134 3420 21 
Q 3050 -91 2638 -91 
Q 1578 -91 968 557 
Q 359 1206 359 2328 
Q 359 3453 968 4101 
Q 1578 4750 2638 4750 
Q 3056 4750 3426 4639 
Q 3797 4528 4122 4306 
z
" transform="scale(0.015625)"/>
      <path id="DejaVuSans-76" d="M 191 3500 
L 800 3500 
L 1894 563 
L 2988 3500 
L 3597 3500 
L 2284 0 
L 1503 0 
L 191 3500 
z
" transform="scale(0.015625)"/>
     </defs>
     <use xlink:href="#DejaVuSans-4c"/>
     <use xlink:href="#DejaVuSans-65" x="53.962891"/>
     <use xlink:href="#DejaVuSans-61" x="115.486328"/>
     <use xlink:href="#DejaVuSans-72" x="176.765625"/>
     <use xlink:href="#DejaVuSans-6e" x="216.128906"/>
     <use xlink:href="#DejaVuSans-69" x="279.507812"/>
     <use xlink:href="#DejaVuSans-6e" x="307.291016"/>
     <use xlink:href="#DejaVuSans-67" x="370.669922"/>
     <use xlink:href="#DejaVuSans-20" x="434.146484"/>
     <use xlink:href="#DejaVuSans-43" x="465.933594"/>
     <use xlink:href="#DejaVuSans-75" x="535.757812"/>
     <use xlink:href="#DejaVuSans-72" x="599.136719"/>
     <use xlink:href="#DejaVuSans-76" x="640.25"/>
     <use xlink:href="#DejaVuSans-65" x="699.429688"/>
     <use xlink:href="#DejaVuSans-73" x="760.953125"/>
    </g>
   </g>
   <g id="legend_1">
    <g id="patch_7">
     <path d="M 214.18875 302.584 
L 407.72 302.584 
Q 409.72 302.584 409.72 300.584 
L 409.72 228.193375 
Q 409.72 226.193375 407.72 226.193375 
L 214.18875 226.193375 
Q 212.18875 226.193375 212.18875 228.193375 
L 212.18875 300.584 
Q 212.18875 302.584 214.18875 302.584 
z
" style="fill: #ffffff; opacity: 0.8; stroke: #cccccc; stroke-linejoin: miter"/>
    </g>
    <g id="line2d_20">
     <path d="M 216.18875 234.291812 
L 226.18875 234.291812 
L 236.18875 234.291812 
" style="fill: none; stroke: #1f77b4; stroke-width: 1.5; stroke-linecap: square"/>
    </g>
    <g id="text_18">
     <!-- Train Accuracy -->
     <g transform="translate(244.18875 237.791812) scale(0.1 -0.1)">
      <defs>
       <path id="DejaVuSans-54" d="M -19 4666 
L 3928 4666 
L 3928 4134 
L 2272 4134 
L 2272 0 
L 1638 0 
L 1638 4134 
L -19 4134 
L -19 4666 
z
" transform="scale(0.015625)"/>
      </defs>
      <use xlink:href="#DejaVuSans-54"/>
      <use xlink:href="#DejaVuSans-72" x="46.333984"/>
      <use xlink:href="#DejaVuSans-61" x="87.447266"/>
      <use xlink:href="#DejaVuSans-69" x="148.726562"/>
      <use xlink:href="#DejaVuSans-6e" x="176.509766"/>
      <use xlink:href="#DejaVuSans-20" x="239.888672"/>
      <use xlink:href="#DejaVuSans-41" x="271.675781"/>
      <use xlink:href="#DejaVuSans-63" x="338.333984"/>
      <use xlink:href="#DejaVuSans-63" x="393.314453"/>
      <use xlink:href="#DejaVuSans-75" x="448.294922"/>
      <use xlink:href="#DejaVuSans-72" x="511.673828"/>
      <use xlink:href="#DejaVuSans-61" x="552.787109"/>
      <use xlink:href="#DejaVuSans-63" x="614.066406"/>
      <use xlink:href="#DejaVuSans-79" x="669.046875"/>
     </g>
    </g>
    <g id="line2d_21">
     <path d="M 216.18875 248.969937 
L 226.18875 248.969937 
L 236.18875 248.969937 
" style="fill: none; stroke: #ff7f0e; stroke-width: 1.5; stroke-linecap: square"/>
    </g>
    <g id="text_19">
     <!-- Validation Accuracy -->
     <g transform="translate(244.18875 252.469937) scale(0.1 -0.1)">
      <defs>
       <path id="DejaVuSans-56" d="M 1831 0 
L 50 4666 
L 709 4666 
L 2188 738 
L 3669 4666 
L 4325 4666 
L 2547 0 
L 1831 0 
z
" transform="scale(0.015625)"/>
       <path id="DejaVuSans-6c" d="M 603 4863 
L 1178 4863 
L 1178 0 
L 603 0 
L 603 4863 
z
" transform="scale(0.015625)"/>
       <path id="DejaVuSans-64" d="M 2906 2969 
L 2906 4863 
L 3481 4863 
L 3481 0 
L 2906 0 
L 2906 525 
Q 2725 213 2448 61 
Q 2172 -91 1784 -91 
Q 1150 -91 751 415 
Q 353 922 353 1747 
Q 353 2572 751 3078 
Q 1150 3584 1784 3584 
Q 2172 3584 2448 3432 
Q 2725 3281 2906 2969 
z
M 947 1747 
Q 947 1113 1208 752 
Q 1469 391 1925 391 
Q 2381 391 2643 752 
Q 2906 1113 2906 1747 
Q 2906 2381 2643 2742 
Q 2381 3103 1925 3103 
Q 1469 3103 1208 2742 
Q 947 2381 947 1747 
z
" transform="scale(0.015625)"/>
       <path id="DejaVuSans-74" d="M 1172 4494 
L 1172 3500 
L 2356 3500 
L 2356 3053 
L 1172 3053 
L 1172 1153 
Q 1172 725 1289 603 
Q 1406 481 1766 481 
L 2356 481 
L 2356 0 
L 1766 0 
Q 1100 0 847 248 
Q 594 497 594 1153 
L 594 3053 
L 172 3053 
L 172 3500 
L 594 3500 
L 594 4494 
L 1172 4494 
z
" transform="scale(0.015625)"/>
      </defs>
      <use xlink:href="#DejaVuSans-56"/>
      <use xlink:href="#DejaVuSans-61" x="60.658203"/>
      <use xlink:href="#DejaVuSans-6c" x="121.9375"/>
      <use xlink:href="#DejaVuSans-69" x="149.720703"/>
      <use xlink:href="#DejaVuSans-64" x="177.503906"/>
      <use xlink:href="#DejaVuSans-61" x="240.980469"/>
      <use xlink:href="#DejaVuSans-74" x="302.259766"/>
      <use xlink:href="#DejaVuSans-69" x="341.46875"/>
      <use xlink:href="#DejaVuSans-6f" x="369.251953"/>
      <use xlink:href="#DejaVuSans-6e" x="430.433594"/>
      <use xlink:href="#DejaVuSans-20" x="493.8125"/>
      <use xlink:href="#DejaVuSans-41" x="525.599609"/>
      <use xlink:href="#DejaVuSans-63" x="592.257812"/>
      <use xlink:href="#DejaVuSans-63" x="647.238281"/>
      <use xlink:href="#DejaVuSans-75" x="702.21875"/>
      <use xlink:href="#DejaVuSans-72" x="765.597656"/>
      <use xlink:href="#DejaVuSans-61" x="806.710938"/>
      <use xlink:href="#DejaVuSans-63" x="867.990234"/>
      <use xlink:href="#DejaVuSans-79" x="922.970703"/>
     </g>
    </g>
    <g id="line2d_22">
     <path d="M 216.18875 263.648062 
L 226.18875 263.648062 
L 236.18875 263.648062 
" style="fill: none; stroke: #2ca02c; stroke-width: 1.5; stroke-linecap: square"/>
    </g>
    <g id="text_20">
     <!-- Robust Validation Accuracy -->
     <g transform="translate(244.18875 267.148062) scale(0.1 -0.1)">
      <defs>
       <path id="DejaVuSans-52" d="M 2841 2188 
Q 3044 2119 3236 1894 
Q 3428 1669 3622 1275 
L 4263 0 
L 3584 0 
L 2988 1197 
Q 2756 1666 2539 1819 
Q 2322 1972 1947 1972 
L 1259 1972 
L 1259 0 
L 628 0 
L 628 4666 
L 2053 4666 
Q 2853 4666 3247 4331 
Q 3641 3997 3641 3322 
Q 3641 2881 3436 2590 
Q 3231 2300 2841 2188 
z
M 1259 4147 
L 1259 2491 
L 2053 2491 
Q 2509 2491 2742 2702 
Q 2975 2913 2975 3322 
Q 2975 3731 2742 3939 
Q 2509 4147 2053 4147 
L 1259 4147 
z
" transform="scale(0.015625)"/>
       <path id="DejaVuSans-62" d="M 3116 1747 
Q 3116 2381 2855 2742 
Q 2594 3103 2138 3103 
Q 1681 3103 1420 2742 
Q 1159 2381 1159 1747 
Q 1159 1113 1420 752 
Q 1681 391 2138 391 
Q 2594 391 2855 752 
Q 3116 1113 3116 1747 
z
M 1159 2969 
Q 1341 3281 1617 3432 
Q 1894 3584 2278 3584 
Q 2916 3584 3314 3078 
Q 3713 2572 3713 1747 
Q 3713 922 3314 415 
Q 2916 -91 2278 -91 
Q 1894 -91 1617 61 
Q 1341 213 1159 525 
L 1159 0 
L 581 0 
L 581 4863 
L 1159 4863 
L 1159 2969 
z
" transform="scale(0.015625)"/>
      </defs>
      <use xlink:href="#DejaVuSans-52"/>
      <use xlink:href="#DejaVuSans-6f" x="64.982422"/>
      <use xlink:href="#DejaVuSans-62" x="126.164062"/>
      <use xlink:href="#DejaVuSans-75" x="189.640625"/>
      <use xlink:href="#DejaVuSans-73" x="253.019531"/>
      <use xlink:href="#DejaVuSans-74" x="305.119141"/>
      <use xlink:href="#DejaVuSans-20" x="344.328125"/>
      <use xlink:href="#DejaVuSans-56" x="376.115234"/>
      <use xlink:href="#DejaVuSans-61" x="436.773438"/>
      <use xlink:href="#DejaVuSans-6c" x="498.052734"/>
      <use xlink:href="#DejaVuSans-69" x="525.835938"/>
      <use xlink:href="#DejaVuSans-64" x="553.619141"/>
      <use xlink:href="#DejaVuSans-61" x="617.095703"/>
      <use xlink:href="#DejaVuSans-74" x="678.375"/>
      <use xlink:href="#DejaVuSans-69" x="717.583984"/>
      <use xlink:href="#DejaVuSans-6f" x="745.367188"/>
      <use xlink:href="#DejaVuSans-6e" x="806.548828"/>
      <use xlink:href="#DejaVuSans-20" x="869.927734"/>
      <use xlink:href="#DejaVuSans-41" x="901.714844"/>
      <use xlink:href="#DejaVuSans-63" x="968.373047"/>
      <use xlink:href="#DejaVuSans-63" x="1023.353516"/>
      <use xlink:href="#DejaVuSans-75" x="1078.333984"/>
      <use xlink:href="#DejaVuSans-72" x="1141.712891"/>
      <use xlink:href="#DejaVuSans-61" x="1182.826172"/>
      <use xlink:href="#DejaVuSans-63" x="1244.105469"/>
      <use xlink:href="#DejaVuSans-79" x="1299.085938"/>
     </g>
    </g>
    <g id="line2d_23">
     <path d="M 216.18875 278.326188 
L 226.18875 278.326188 
L 236.18875 278.326188 
" style="fill: none; stroke: #d62728; stroke-width: 1.5; stroke-linecap: square"/>
    </g>
    <g id="text_21">
     <!-- SWA Validation Accuracy -->
     <g transform="translate(244.18875 281.826188) scale(0.1 -0.1)">
      <defs>
       <path id="DejaVuSans-53" d="M 3425 4513 
L 3425 3897 
Q 3066 4069 2747 4153 
Q 2428 4238 2131 4238 
Q 1616 4238 1336 4038 
Q 1056 3838 1056 3469 
Q 1056 3159 1242 3001 
Q 1428 2844 1947 2747 
L 2328 2669 
Q 3034 2534 3370 2195 
Q 3706 1856 3706 1288 
Q 3706 609 3251 259 
Q 2797 -91 1919 -91 
Q 1588 -91 1214 -16 
Q 841 59 441 206 
L 441 856 
Q 825 641 1194 531 
Q 1563 422 1919 422 
Q 2459 422 2753 634 
Q 3047 847 3047 1241 
Q 3047 1584 2836 1778 
Q 2625 1972 2144 2069 
L 1759 2144 
Q 1053 2284 737 2584 
Q 422 2884 422 3419 
Q 422 4038 858 4394 
Q 1294 4750 2059 4750 
Q 2388 4750 2728 4690 
Q 3069 4631 3425 4513 
z
" transform="scale(0.015625)"/>
       <path id="DejaVuSans-57" d="M 213 4666 
L 850 4666 
L 1831 722 
L 2809 4666 
L 3519 4666 
L 4500 722 
L 5478 4666 
L 6119 4666 
L 4947 0 
L 4153 0 
L 3169 4050 
L 2175 0 
L 1381 0 
L 213 4666 
z
" transform="scale(0.015625)"/>
      </defs>
      <use xlink:href="#DejaVuSans-53"/>
      <use xlink:href="#DejaVuSans-57" x="63.476562"/>
      <use xlink:href="#DejaVuSans-41" x="156.853516"/>
      <use xlink:href="#DejaVuSans-20" x="225.261719"/>
      <use xlink:href="#DejaVuSans-56" x="257.048828"/>
      <use xlink:href="#DejaVuSans-61" x="317.707031"/>
      <use xlink:href="#DejaVuSans-6c" x="378.986328"/>
      <use xlink:href="#DejaVuSans-69" x="406.769531"/>
      <use xlink:href="#DejaVuSans-64" x="434.552734"/>
      <use xlink:href="#DejaVuSans-61" x="498.029297"/>
      <use xlink:href="#DejaVuSans-74" x="559.308594"/>
      <use xlink:href="#DejaVuSans-69" x="598.517578"/>
      <use xlink:href="#DejaVuSans-6f" x="626.300781"/>
      <use xlink:href="#DejaVuSans-6e" x="687.482422"/>
      <use xlink:href="#DejaVuSans-20" x="750.861328"/>
      <use xlink:href="#DejaVuSans-41" x="782.648438"/>
      <use xlink:href="#DejaVuSans-63" x="849.306641"/>
      <use xlink:href="#DejaVuSans-63" x="904.287109"/>
      <use xlink:href="#DejaVuSans-75" x="959.267578"/>
      <use xlink:href="#DejaVuSans-72" x="1022.646484"/>
      <use xlink:href="#DejaVuSans-61" x="1063.759766"/>
      <use xlink:href="#DejaVuSans-63" x="1125.039062"/>
      <use xlink:href="#DejaVuSans-79" x="1180.019531"/>
     </g>
    </g>
    <g id="line2d_24">
     <path d="M 216.18875 293.004312 
L 226.18875 293.004312 
L 236.18875 293.004312 
" style="fill: none; stroke: #9467bd; stroke-width: 1.5; stroke-linecap: square"/>
    </g>
    <g id="text_22">
     <!-- SWA Robust Validation Accuracy -->
     <g transform="translate(244.18875 296.504312) scale(0.1 -0.1)">
      <use xlink:href="#DejaVuSans-53"/>
      <use xlink:href="#DejaVuSans-57" x="63.476562"/>
      <use xlink:href="#DejaVuSans-41" x="156.853516"/>
      <use xlink:href="#DejaVuSans-20" x="225.261719"/>
      <use xlink:href="#DejaVuSans-52" x="257.048828"/>
      <use xlink:href="#DejaVuSans-6f" x="322.03125"/>
      <use xlink:href="#DejaVuSans-62" x="383.212891"/>
      <use xlink:href="#DejaVuSans-75" x="446.689453"/>
      <use xlink:href="#DejaVuSans-73" x="510.068359"/>
      <use xlink:href="#DejaVuSans-74" x="562.167969"/>
      <use xlink:href="#DejaVuSans-20" x="601.376953"/>
      <use xlink:href="#DejaVuSans-56" x="633.164062"/>
      <use xlink:href="#DejaVuSans-61" x="693.822266"/>
      <use xlink:href="#DejaVuSans-6c" x="755.101562"/>
      <use xlink:href="#DejaVuSans-69" x="782.884766"/>
      <use xlink:href="#DejaVuSans-64" x="810.667969"/>
      <use xlink:href="#DejaVuSans-61" x="874.144531"/>
      <use xlink:href="#DejaVuSans-74" x="935.423828"/>
      <use xlink:href="#DejaVuSans-69" x="974.632812"/>
      <use xlink:href="#DejaVuSans-6f" x="1002.416016"/>
      <use xlink:href="#DejaVuSans-6e" x="1063.597656"/>
      <use xlink:href="#DejaVuSans-20" x="1126.976562"/>
      <use xlink:href="#DejaVuSans-41" x="1158.763672"/>
      <use xlink:href="#DejaVuSans-63" x="1225.421875"/>
      <use xlink:href="#DejaVuSans-63" x="1280.402344"/>
      <use xlink:href="#DejaVuSans-75" x="1335.382812"/>
      <use xlink:href="#DejaVuSans-72" x="1398.761719"/>
      <use xlink:href="#DejaVuSans-61" x="1439.875"/>
      <use xlink:href="#DejaVuSans-63" x="1501.154297"/>
      <use xlink:href="#DejaVuSans-79" x="1556.134766"/>
     </g>
    </g>
   </g>
  </g>
 </g>
 <defs>
  <clipPath id="pdc21394006">
   <rect x="57.6" y="41.472" width="357.12" height="266.112"/>
  </clipPath>
 </defs>
</svg>
