<?xml version="1.0" encoding="utf-8" standalone="no"?>
<!DOCTYPE svg PUBLIC "-//W3C//DTD SVG 1.1//EN"
  "http://www.w3.org/Graphics/SVG/1.1/DTD/svg11.dtd">
<svg xmlns:xlink="http://www.w3.org/1999/xlink" width="460.8pt" height="345.6pt" viewBox="0 0 460.8 345.6" xmlns="http://www.w3.org/2000/svg" version="1.1">
 <metadata>
  <rdf:RDF xmlns:dc="http://purl.org/dc/elements/1.1/" xmlns:cc="http://creativecommons.org/ns#" xmlns:rdf="http://www.w3.org/1999/02/22-rdf-syntax-ns#">
   <cc:Work>
    <dc:type rdf:resource="http://purl.org/dc/dcmitype/StillImage"/>
    <dc:date>2025-05-07T07:04:58.349577</dc:date>
    <dc:format>image/svg+xml</dc:format>
    <dc:creator>
     <cc:Agent>
      <dc:title>Matplotlib v3.9.1, https://matplotlib.org/</dc:title>
     </cc:Agent>
    </dc:creator>
   </cc:Work>
  </rdf:RDF>
 </metadata>
 <defs>
  <style type="text/css">*{stroke-linejoin: round; stroke-linecap: butt}</style>
 </defs>
 <g id="figure_1">
  <g id="patch_1">
   <path d="M 0 345.6 
L 460.8 345.6 
L 460.8 0 
L 0 0 
z
" style="fill: #ffffff"/>
  </g>
  <g id="axes_1">
   <g id="patch_2">
    <path d="M 57.6 307.584 
L 414.72 307.584 
L 414.72 41.472 
L 57.6 41.472 
z
" style="fill: #ffffff"/>
   </g>
   <g id="matplotlib.axis_1">
    <g id="xtick_1">
     <g id="line2d_1">
      <defs>
       <path id="mc1c1676e6c" d="M 0 0 
L 0 3.5 
" style="stroke: #000000; stroke-width: 0.8"/>
      </defs>
      <g>
       <use xlink:href="#mc1c1676e6c" x="73.832727" y="307.584" style="stroke: #000000; stroke-width: 0.8"/>
      </g>
     </g>
     <g id="text_1">
      <!-- 1 -->
      <g transform="translate(70.651477 322.182437) scale(0.1 -0.1)">
       <defs>
        <path id="DejaVuSans-31" d="M 794 531 
L 1825 531 
L 1825 4091 
L 703 3866 
L 703 4441 
L 1819 4666 
L 2450 4666 
L 2450 531 
L 3481 531 
L 3481 0 
L 794 0 
L 794 531 
z
" transform="scale(0.015625)"/>
       </defs>
       <use xlink:href="#DejaVuSans-31"/>
      </g>
     </g>
    </g>
    <g id="xtick_2">
     <g id="line2d_2">
      <g>
       <use xlink:href="#mc1c1676e6c" x="109.664165" y="307.584" style="stroke: #000000; stroke-width: 0.8"/>
      </g>
     </g>
     <g id="text_2">
      <!-- 34 -->
      <g transform="translate(103.301665 322.182437) scale(0.1 -0.1)">
       <defs>
        <path id="DejaVuSans-33" d="M 2597 2516 
Q 3050 2419 3304 2112 
Q 3559 1806 3559 1356 
Q 3559 666 3084 287 
Q 2609 -91 1734 -91 
Q 1441 -91 1130 -33 
Q 819 25 488 141 
L 488 750 
Q 750 597 1062 519 
Q 1375 441 1716 441 
Q 2309 441 2620 675 
Q 2931 909 2931 1356 
Q 2931 1769 2642 2001 
Q 2353 2234 1838 2234 
L 1294 2234 
L 1294 2753 
L 1863 2753 
Q 2328 2753 2575 2939 
Q 2822 3125 2822 3475 
Q 2822 3834 2567 4026 
Q 2313 4219 1838 4219 
Q 1578 4219 1281 4162 
Q 984 4106 628 3988 
L 628 4550 
Q 988 4650 1302 4700 
Q 1616 4750 1894 4750 
Q 2613 4750 3031 4423 
Q 3450 4097 3450 3541 
Q 3450 3153 3228 2886 
Q 3006 2619 2597 2516 
z
" transform="scale(0.015625)"/>
        <path id="DejaVuSans-34" d="M 2419 4116 
L 825 1625 
L 2419 1625 
L 2419 4116 
z
M 2253 4666 
L 3047 4666 
L 3047 1625 
L 3713 1625 
L 3713 1100 
L 3047 1100 
L 3047 0 
L 2419 0 
L 2419 1100 
L 313 1100 
L 313 1709 
L 2253 4666 
z
" transform="scale(0.015625)"/>
       </defs>
       <use xlink:href="#DejaVuSans-33"/>
       <use xlink:href="#DejaVuSans-34" x="63.623047"/>
      </g>
     </g>
    </g>
    <g id="xtick_3">
     <g id="line2d_3">
      <g>
       <use xlink:href="#mc1c1676e6c" x="145.495604" y="307.584" style="stroke: #000000; stroke-width: 0.8"/>
      </g>
     </g>
     <g id="text_3">
      <!-- 67 -->
      <g transform="translate(139.133104 322.182437) scale(0.1 -0.1)">
       <defs>
        <path id="DejaVuSans-36" d="M 2113 2584 
Q 1688 2584 1439 2293 
Q 1191 2003 1191 1497 
Q 1191 994 1439 701 
Q 1688 409 2113 409 
Q 2538 409 2786 701 
Q 3034 994 3034 1497 
Q 3034 2003 2786 2293 
Q 2538 2584 2113 2584 
z
M 3366 4563 
L 3366 3988 
Q 3128 4100 2886 4159 
Q 2644 4219 2406 4219 
Q 1781 4219 1451 3797 
Q 1122 3375 1075 2522 
Q 1259 2794 1537 2939 
Q 1816 3084 2150 3084 
Q 2853 3084 3261 2657 
Q 3669 2231 3669 1497 
Q 3669 778 3244 343 
Q 2819 -91 2113 -91 
Q 1303 -91 875 529 
Q 447 1150 447 2328 
Q 447 3434 972 4092 
Q 1497 4750 2381 4750 
Q 2619 4750 2861 4703 
Q 3103 4656 3366 4563 
z
" transform="scale(0.015625)"/>
        <path id="DejaVuSans-37" d="M 525 4666 
L 3525 4666 
L 3525 4397 
L 1831 0 
L 1172 0 
L 2766 4134 
L 525 4134 
L 525 4666 
z
" transform="scale(0.015625)"/>
       </defs>
       <use xlink:href="#DejaVuSans-36"/>
       <use xlink:href="#DejaVuSans-37" x="63.623047"/>
      </g>
     </g>
    </g>
    <g id="xtick_4">
     <g id="line2d_4">
      <g>
       <use xlink:href="#mc1c1676e6c" x="181.327042" y="307.584" style="stroke: #000000; stroke-width: 0.8"/>
      </g>
     </g>
     <g id="text_4">
      <!-- 100 -->
      <g transform="translate(171.783292 322.182437) scale(0.1 -0.1)">
       <defs>
        <path id="DejaVuSans-30" d="M 2034 4250 
Q 1547 4250 1301 3770 
Q 1056 3291 1056 2328 
Q 1056 1369 1301 889 
Q 1547 409 2034 409 
Q 2525 409 2770 889 
Q 3016 1369 3016 2328 
Q 3016 3291 2770 3770 
Q 2525 4250 2034 4250 
z
M 2034 4750 
Q 2819 4750 3233 4129 
Q 3647 3509 3647 2328 
Q 3647 1150 3233 529 
Q 2819 -91 2034 -91 
Q 1250 -91 836 529 
Q 422 1150 422 2328 
Q 422 3509 836 4129 
Q 1250 4750 2034 4750 
z
" transform="scale(0.015625)"/>
       </defs>
       <use xlink:href="#DejaVuSans-31"/>
       <use xlink:href="#DejaVuSans-30" x="63.623047"/>
       <use xlink:href="#DejaVuSans-30" x="127.246094"/>
      </g>
     </g>
    </g>
    <g id="xtick_5">
     <g id="line2d_5">
      <g>
       <use xlink:href="#mc1c1676e6c" x="217.15848" y="307.584" style="stroke: #000000; stroke-width: 0.8"/>
      </g>
     </g>
     <g id="text_5">
      <!-- 133 -->
      <g transform="translate(207.61473 322.182437) scale(0.1 -0.1)">
       <use xlink:href="#DejaVuSans-31"/>
       <use xlink:href="#DejaVuSans-33" x="63.623047"/>
       <use xlink:href="#DejaVuSans-33" x="127.246094"/>
      </g>
     </g>
    </g>
    <g id="xtick_6">
     <g id="line2d_6">
      <g>
       <use xlink:href="#mc1c1676e6c" x="254.075719" y="307.584" style="stroke: #000000; stroke-width: 0.8"/>
      </g>
     </g>
     <g id="text_6">
      <!-- 167 -->
      <g transform="translate(244.531969 322.182437) scale(0.1 -0.1)">
       <use xlink:href="#DejaVuSans-31"/>
       <use xlink:href="#DejaVuSans-36" x="63.623047"/>
       <use xlink:href="#DejaVuSans-37" x="127.246094"/>
      </g>
     </g>
    </g>
    <g id="xtick_7">
     <g id="line2d_7">
      <g>
       <use xlink:href="#mc1c1676e6c" x="289.907157" y="307.584" style="stroke: #000000; stroke-width: 0.8"/>
      </g>
     </g>
     <g id="text_7">
      <!-- 200 -->
      <g transform="translate(280.363407 322.182437) scale(0.1 -0.1)">
       <defs>
        <path id="DejaVuSans-32" d="M 1228 531 
L 3431 531 
L 3431 0 
L 469 0 
L 469 531 
Q 828 903 1448 1529 
Q 2069 2156 2228 2338 
Q 2531 2678 2651 2914 
Q 2772 3150 2772 3378 
Q 2772 3750 2511 3984 
Q 2250 4219 1831 4219 
Q 1534 4219 1204 4116 
Q 875 4013 500 3803 
L 500 4441 
Q 881 4594 1212 4672 
Q 1544 4750 1819 4750 
Q 2544 4750 2975 4387 
Q 3406 4025 3406 3419 
Q 3406 3131 3298 2873 
Q 3191 2616 2906 2266 
Q 2828 2175 2409 1742 
Q 1991 1309 1228 531 
z
" transform="scale(0.015625)"/>
       </defs>
       <use xlink:href="#DejaVuSans-32"/>
       <use xlink:href="#DejaVuSans-30" x="63.623047"/>
       <use xlink:href="#DejaVuSans-30" x="127.246094"/>
      </g>
     </g>
    </g>
    <g id="xtick_8">
     <g id="line2d_8">
      <g>
       <use xlink:href="#mc1c1676e6c" x="325.738595" y="307.584" style="stroke: #000000; stroke-width: 0.8"/>
      </g>
     </g>
     <g id="text_8">
      <!-- 233 -->
      <g transform="translate(316.194845 322.182437) scale(0.1 -0.1)">
       <use xlink:href="#DejaVuSans-32"/>
       <use xlink:href="#DejaVuSans-33" x="63.623047"/>
       <use xlink:href="#DejaVuSans-33" x="127.246094"/>
      </g>
     </g>
    </g>
    <g id="xtick_9">
     <g id="line2d_9">
      <g>
       <use xlink:href="#mc1c1676e6c" x="361.570033" y="307.584" style="stroke: #000000; stroke-width: 0.8"/>
      </g>
     </g>
     <g id="text_9">
      <!-- 266 -->
      <g transform="translate(352.026283 322.182437) scale(0.1 -0.1)">
       <use xlink:href="#DejaVuSans-32"/>
       <use xlink:href="#DejaVuSans-36" x="63.623047"/>
       <use xlink:href="#DejaVuSans-36" x="127.246094"/>
      </g>
     </g>
    </g>
    <g id="xtick_10">
     <g id="line2d_10">
      <g>
       <use xlink:href="#mc1c1676e6c" x="398.487273" y="307.584" style="stroke: #000000; stroke-width: 0.8"/>
      </g>
     </g>
     <g id="text_10">
      <!-- 300 -->
      <g transform="translate(388.943523 322.182437) scale(0.1 -0.1)">
       <use xlink:href="#DejaVuSans-33"/>
       <use xlink:href="#DejaVuSans-30" x="63.623047"/>
       <use xlink:href="#DejaVuSans-30" x="127.246094"/>
      </g>
     </g>
    </g>
    <g id="text_11">
     <!-- Epochs -->
     <g transform="translate(218.244375 335.860562) scale(0.1 -0.1)">
      <defs>
       <path id="DejaVuSans-45" d="M 628 4666 
L 3578 4666 
L 3578 4134 
L 1259 4134 
L 1259 2753 
L 3481 2753 
L 3481 2222 
L 1259 2222 
L 1259 531 
L 3634 531 
L 3634 0 
L 628 0 
L 628 4666 
z
" transform="scale(0.015625)"/>
       <path id="DejaVuSans-70" d="M 1159 525 
L 1159 -1331 
L 581 -1331 
L 581 3500 
L 1159 3500 
L 1159 2969 
Q 1341 3281 1617 3432 
Q 1894 3584 2278 3584 
Q 2916 3584 3314 3078 
Q 3713 2572 3713 1747 
Q 3713 922 3314 415 
Q 2916 -91 2278 -91 
Q 1894 -91 1617 61 
Q 1341 213 1159 525 
z
M 3116 1747 
Q 3116 2381 2855 2742 
Q 2594 3103 2138 3103 
Q 1681 3103 1420 2742 
Q 1159 2381 1159 1747 
Q 1159 1113 1420 752 
Q 1681 391 2138 391 
Q 2594 391 2855 752 
Q 3116 1113 3116 1747 
z
" transform="scale(0.015625)"/>
       <path id="DejaVuSans-6f" d="M 1959 3097 
Q 1497 3097 1228 2736 
Q 959 2375 959 1747 
Q 959 1119 1226 758 
Q 1494 397 1959 397 
Q 2419 397 2687 759 
Q 2956 1122 2956 1747 
Q 2956 2369 2687 2733 
Q 2419 3097 1959 3097 
z
M 1959 3584 
Q 2709 3584 3137 3096 
Q 3566 2609 3566 1747 
Q 3566 888 3137 398 
Q 2709 -91 1959 -91 
Q 1206 -91 779 398 
Q 353 888 353 1747 
Q 353 2609 779 3096 
Q 1206 3584 1959 3584 
z
" transform="scale(0.015625)"/>
       <path id="DejaVuSans-63" d="M 3122 3366 
L 3122 2828 
Q 2878 2963 2633 3030 
Q 2388 3097 2138 3097 
Q 1578 3097 1268 2742 
Q 959 2388 959 1747 
Q 959 1106 1268 751 
Q 1578 397 2138 397 
Q 2388 397 2633 464 
Q 2878 531 3122 666 
L 3122 134 
Q 2881 22 2623 -34 
Q 2366 -91 2075 -91 
Q 1284 -91 818 406 
Q 353 903 353 1747 
Q 353 2603 823 3093 
Q 1294 3584 2113 3584 
Q 2378 3584 2631 3529 
Q 2884 3475 3122 3366 
z
" transform="scale(0.015625)"/>
       <path id="DejaVuSans-68" d="M 3513 2113 
L 3513 0 
L 2938 0 
L 2938 2094 
Q 2938 2591 2744 2837 
Q 2550 3084 2163 3084 
Q 1697 3084 1428 2787 
Q 1159 2491 1159 1978 
L 1159 0 
L 581 0 
L 581 4863 
L 1159 4863 
L 1159 2956 
Q 1366 3272 1645 3428 
Q 1925 3584 2291 3584 
Q 2894 3584 3203 3211 
Q 3513 2838 3513 2113 
z
" transform="scale(0.015625)"/>
       <path id="DejaVuSans-73" d="M 2834 3397 
L 2834 2853 
Q 2591 2978 2328 3040 
Q 2066 3103 1784 3103 
Q 1356 3103 1142 2972 
Q 928 2841 928 2578 
Q 928 2378 1081 2264 
Q 1234 2150 1697 2047 
L 1894 2003 
Q 2506 1872 2764 1633 
Q 3022 1394 3022 966 
Q 3022 478 2636 193 
Q 2250 -91 1575 -91 
Q 1294 -91 989 -36 
Q 684 19 347 128 
L 347 722 
Q 666 556 975 473 
Q 1284 391 1588 391 
Q 1994 391 2212 530 
Q 2431 669 2431 922 
Q 2431 1156 2273 1281 
Q 2116 1406 1581 1522 
L 1381 1569 
Q 847 1681 609 1914 
Q 372 2147 372 2553 
Q 372 3047 722 3315 
Q 1072 3584 1716 3584 
Q 2034 3584 2315 3537 
Q 2597 3491 2834 3397 
z
" transform="scale(0.015625)"/>
      </defs>
      <use xlink:href="#DejaVuSans-45"/>
      <use xlink:href="#DejaVuSans-70" x="63.183594"/>
      <use xlink:href="#DejaVuSans-6f" x="126.660156"/>
      <use xlink:href="#DejaVuSans-63" x="187.841797"/>
      <use xlink:href="#DejaVuSans-68" x="242.822266"/>
      <use xlink:href="#DejaVuSans-73" x="306.201172"/>
     </g>
    </g>
   </g>
   <g id="matplotlib.axis_2">
    <g id="ytick_1">
     <g id="line2d_11">
      <defs>
       <path id="m54e70f1f59" d="M 0 0 
L -3.5 0 
" style="stroke: #000000; stroke-width: 0.8"/>
      </defs>
      <g>
       <use xlink:href="#m54e70f1f59" x="57.6" y="256.628743" style="stroke: #000000; stroke-width: 0.8"/>
      </g>
     </g>
     <g id="text_12">
      <!-- 20 -->
      <g transform="translate(37.875 260.427962) scale(0.1 -0.1)">
       <use xlink:href="#DejaVuSans-32"/>
       <use xlink:href="#DejaVuSans-30" x="63.623047"/>
      </g>
     </g>
    </g>
    <g id="ytick_2">
     <g id="line2d_12">
      <g>
       <use xlink:href="#m54e70f1f59" x="57.6" y="200.674501" style="stroke: #000000; stroke-width: 0.8"/>
      </g>
     </g>
     <g id="text_13">
      <!-- 40 -->
      <g transform="translate(37.875 204.47372) scale(0.1 -0.1)">
       <use xlink:href="#DejaVuSans-34"/>
       <use xlink:href="#DejaVuSans-30" x="63.623047"/>
      </g>
     </g>
    </g>
    <g id="ytick_3">
     <g id="line2d_13">
      <g>
       <use xlink:href="#m54e70f1f59" x="57.6" y="144.720259" style="stroke: #000000; stroke-width: 0.8"/>
      </g>
     </g>
     <g id="text_14">
      <!-- 60 -->
      <g transform="translate(37.875 148.519477) scale(0.1 -0.1)">
       <use xlink:href="#DejaVuSans-36"/>
       <use xlink:href="#DejaVuSans-30" x="63.623047"/>
      </g>
     </g>
    </g>
    <g id="ytick_4">
     <g id="line2d_14">
      <g>
       <use xlink:href="#m54e70f1f59" x="57.6" y="88.766016" style="stroke: #000000; stroke-width: 0.8"/>
      </g>
     </g>
     <g id="text_15">
      <!-- 80 -->
      <g transform="translate(37.875 92.565235) scale(0.1 -0.1)">
       <defs>
        <path id="DejaVuSans-38" d="M 2034 2216 
Q 1584 2216 1326 1975 
Q 1069 1734 1069 1313 
Q 1069 891 1326 650 
Q 1584 409 2034 409 
Q 2484 409 2743 651 
Q 3003 894 3003 1313 
Q 3003 1734 2745 1975 
Q 2488 2216 2034 2216 
z
M 1403 2484 
Q 997 2584 770 2862 
Q 544 3141 544 3541 
Q 544 4100 942 4425 
Q 1341 4750 2034 4750 
Q 2731 4750 3128 4425 
Q 3525 4100 3525 3541 
Q 3525 3141 3298 2862 
Q 3072 2584 2669 2484 
Q 3125 2378 3379 2068 
Q 3634 1759 3634 1313 
Q 3634 634 3220 271 
Q 2806 -91 2034 -91 
Q 1263 -91 848 271 
Q 434 634 434 1313 
Q 434 1759 690 2068 
Q 947 2378 1403 2484 
z
M 1172 3481 
Q 1172 3119 1398 2916 
Q 1625 2713 2034 2713 
Q 2441 2713 2670 2916 
Q 2900 3119 2900 3481 
Q 2900 3844 2670 4047 
Q 2441 4250 2034 4250 
Q 1625 4250 1398 4047 
Q 1172 3844 1172 3481 
z
" transform="scale(0.015625)"/>
       </defs>
       <use xlink:href="#DejaVuSans-38"/>
       <use xlink:href="#DejaVuSans-30" x="63.623047"/>
      </g>
     </g>
    </g>
    <g id="text_16">
     <!-- Accuracy -->
     <g transform="translate(31.795312 197.356125) rotate(-90) scale(0.1 -0.1)">
      <defs>
       <path id="DejaVuSans-41" d="M 2188 4044 
L 1331 1722 
L 3047 1722 
L 2188 4044 
z
M 1831 4666 
L 2547 4666 
L 4325 0 
L 3669 0 
L 3244 1197 
L 1141 1197 
L 716 0 
L 50 0 
L 1831 4666 
z
" transform="scale(0.015625)"/>
       <path id="DejaVuSans-75" d="M 544 1381 
L 544 3500 
L 1119 3500 
L 1119 1403 
Q 1119 906 1312 657 
Q 1506 409 1894 409 
Q 2359 409 2629 706 
Q 2900 1003 2900 1516 
L 2900 3500 
L 3475 3500 
L 3475 0 
L 2900 0 
L 2900 538 
Q 2691 219 2414 64 
Q 2138 -91 1772 -91 
Q 1169 -91 856 284 
Q 544 659 544 1381 
z
M 1991 3584 
L 1991 3584 
z
" transform="scale(0.015625)"/>
       <path id="DejaVuSans-72" d="M 2631 2963 
Q 2534 3019 2420 3045 
Q 2306 3072 2169 3072 
Q 1681 3072 1420 2755 
Q 1159 2438 1159 1844 
L 1159 0 
L 581 0 
L 581 3500 
L 1159 3500 
L 1159 2956 
Q 1341 3275 1631 3429 
Q 1922 3584 2338 3584 
Q 2397 3584 2469 3576 
Q 2541 3569 2628 3553 
L 2631 2963 
z
" transform="scale(0.015625)"/>
       <path id="DejaVuSans-61" d="M 2194 1759 
Q 1497 1759 1228 1600 
Q 959 1441 959 1056 
Q 959 750 1161 570 
Q 1363 391 1709 391 
Q 2188 391 2477 730 
Q 2766 1069 2766 1631 
L 2766 1759 
L 2194 1759 
z
M 3341 1997 
L 3341 0 
L 2766 0 
L 2766 531 
Q 2569 213 2275 61 
Q 1981 -91 1556 -91 
Q 1019 -91 701 211 
Q 384 513 384 1019 
Q 384 1609 779 1909 
Q 1175 2209 1959 2209 
L 2766 2209 
L 2766 2266 
Q 2766 2663 2505 2880 
Q 2244 3097 1772 3097 
Q 1472 3097 1187 3025 
Q 903 2953 641 2809 
L 641 3341 
Q 956 3463 1253 3523 
Q 1550 3584 1831 3584 
Q 2591 3584 2966 3190 
Q 3341 2797 3341 1997 
z
" transform="scale(0.015625)"/>
       <path id="DejaVuSans-79" d="M 2059 -325 
Q 1816 -950 1584 -1140 
Q 1353 -1331 966 -1331 
L 506 -1331 
L 506 -850 
L 844 -850 
Q 1081 -850 1212 -737 
Q 1344 -625 1503 -206 
L 1606 56 
L 191 3500 
L 800 3500 
L 1894 763 
L 2988 3500 
L 3597 3500 
L 2059 -325 
z
" transform="scale(0.015625)"/>
      </defs>
      <use xlink:href="#DejaVuSans-41"/>
      <use xlink:href="#DejaVuSans-63" x="66.658203"/>
      <use xlink:href="#DejaVuSans-63" x="121.638672"/>
      <use xlink:href="#DejaVuSans-75" x="176.619141"/>
      <use xlink:href="#DejaVuSans-72" x="239.998047"/>
      <use xlink:href="#DejaVuSans-61" x="281.111328"/>
      <use xlink:href="#DejaVuSans-63" x="342.390625"/>
      <use xlink:href="#DejaVuSans-79" x="397.371094"/>
     </g>
    </g>
   </g>
   <g id="line2d_15">
    <path d="M 73.832727 287.051065 
L 74.918528 250.574494 
L 76.00433 226.729594 
L 77.090131 209.985287 
L 78.175932 197.622197 
L 79.261733 187.670735 
L 81.433335 171.004764 
L 82.519137 164.942122 
L 83.604938 157.427467 
L 84.690739 153.188933 
L 87.948142 137.90783 
L 89.033943 134.623316 
L 90.119745 130.916347 
L 91.205546 128.205364 
L 92.291347 124.800548 
L 93.377148 123.815754 
L 94.462949 123.010013 
L 95.54875 153.8408 
L 96.634552 153.152563 
L 98.806154 147.669047 
L 99.891955 144.709068 
L 100.977756 141.349015 
L 102.063557 138.976556 
L 103.149358 136.162057 
L 104.23516 134.22604 
L 105.320961 132.981059 
L 106.406762 129.397189 
L 107.492563 127.433195 
L 108.578364 125.133476 
L 109.664165 122.553985 
L 110.749967 121.169118 
L 111.835768 117.890199 
L 112.921569 116.270324 
L 119.436376 102.659455 
L 120.522177 100.894098 
L 121.607978 98.071207 
L 122.693779 96.079236 
L 125.951183 89.266807 
L 127.036984 87.618954 
L 128.122785 85.492693 
L 131.380189 80.979983 
L 132.46599 79.950425 
L 133.551791 78.008813 
L 134.637592 78.047981 
L 136.809194 77.119141 
L 137.894995 76.917705 
L 138.980797 115.643637 
L 140.066598 120.382961 
L 141.152399 120.293434 
L 142.2382 120.013663 
L 143.324001 118.620402 
L 144.409802 117.929367 
L 145.495604 116.986538 
L 146.581405 116.790698 
L 147.667206 115.495358 
L 148.753007 114.026559 
L 149.838808 114.236387 
L 150.924609 113.570532 
L 152.01041 112.347932 
L 153.096212 110.915503 
L 154.182013 110.213277 
L 155.267814 110.562991 
L 156.353615 108.285654 
L 157.439416 107.762481 
L 158.525217 106.453152 
L 159.611019 105.876824 
L 160.69682 104.052715 
L 161.782621 104.514338 
L 162.868422 103.109886 
L 163.954223 102.27337 
L 165.040024 101.688648 
L 166.125825 99.615544 
L 167.211627 99.789002 
L 168.297428 98.807005 
L 169.383229 97.511664 
L 171.554831 95.880598 
L 172.640632 94.176791 
L 173.726434 93.301108 
L 175.898036 90.886682 
L 176.983837 89.406692 
L 178.069638 89.199662 
L 179.155439 87.602168 
L 180.24124 86.967087 
L 181.327042 85.296853 
L 183.498644 82.985943 
L 184.584445 81.701793 
L 187.841849 78.56276 
L 188.92765 77.004434 
L 190.013451 76.3134 
L 191.099252 74.777456 
L 192.185053 73.921356 
L 194.356656 71.518121 
L 195.442457 70.273139 
L 198.69986 67.405484 
L 199.785661 66.35914 
L 200.871462 65.519826 
L 201.957264 64.392348 
L 203.043065 63.958703 
L 204.128866 63.231298 
L 206.300468 61.398796 
L 210.643673 59.006752 
L 211.729474 58.956394 
L 212.815275 58.469592 
L 213.901076 58.444412 
L 214.986877 57.907251 
L 216.072679 57.76177 
L 218.244281 56.916861 
L 220.415883 56.620304 
L 221.501684 56.950434 
L 222.587486 56.27059 
L 223.673287 56.511193 
L 224.759088 56.407678 
L 225.844889 101.915263 
L 226.93069 109.178124 
L 228.016491 109.972674 
L 229.102292 109.894338 
L 230.188094 109.066215 
L 232.359696 108.559829 
L 233.445497 107.264489 
L 234.531298 107.270084 
L 235.617099 106.867214 
L 236.702901 105.56348 
L 238.874503 105.42919 
L 239.960304 104.108669 
L 241.046105 103.591093 
L 243.217708 102.153069 
L 244.303509 102.804936 
L 245.38931 101.565549 
L 246.475111 100.701056 
L 247.560912 100.463251 
L 248.646713 100.387712 
L 249.732514 99.847754 
L 251.904117 99.293807 
L 255.16152 97.718695 
L 256.247321 97.830603 
L 257.333123 96.540858 
L 258.418924 96.915752 
L 262.762128 94.867826 
L 263.847929 94.898601 
L 264.933731 94.179589 
L 266.019532 94.067681 
L 267.105333 93.440993 
L 268.191134 92.632454 
L 269.276935 92.596084 
L 271.448538 91.574919 
L 272.534339 91.116094 
L 273.62014 90.858705 
L 274.705941 90.411071 
L 275.791742 90.296365 
L 276.877543 89.154898 
L 277.963344 89.037394 
L 279.049146 88.707264 
L 280.134947 88.108554 
L 281.220748 88.047004 
L 282.306549 87.848367 
L 284.478151 86.883156 
L 285.563953 86.158548 
L 286.649754 85.738892 
L 287.735555 84.92196 
L 288.821356 84.586234 
L 289.907157 84.714929 
L 290.992958 84.037883 
L 292.07876 83.621024 
L 293.164561 82.97755 
L 295.336163 82.485152 
L 296.421964 81.242968 
L 297.507765 80.957602 
L 298.593566 80.193826 
L 299.679368 80.095906 
L 300.765169 79.665059 
L 304.022572 77.583561 
L 305.108373 77.362542 
L 306.194175 77.289801 
L 307.279976 76.691091 
L 308.365777 75.890945 
L 309.451578 75.311819 
L 310.537379 74.959307 
L 315.966385 72.021709 
L 317.052186 72.785485 
L 318.137987 71.425796 
L 319.223788 70.65083 
L 320.30959 70.457788 
L 321.395391 69.414241 
L 322.481192 69.744371 
L 323.566993 69.081314 
L 324.652794 68.647668 
L 325.738595 67.615313 
L 326.824396 67.103331 
L 327.910198 67.131308 
L 328.995999 66.194075 
L 330.0818 66.185682 
L 331.167601 64.856768 
L 332.253402 64.660929 
L 333.339203 64.979868 
L 334.425005 64.14615 
L 335.510806 63.98668 
L 336.596607 63.110996 
L 337.682408 62.93474 
L 338.768209 61.910778 
L 340.939811 61.586243 
L 342.025613 60.749727 
L 343.111414 60.979139 
L 344.197215 60.005536 
L 345.283016 59.985952 
L 346.368817 59.353669 
L 347.454618 58.567512 
L 348.54042 58.824901 
L 349.626221 57.842904 
L 350.712022 58.310122 
L 351.797823 57.263778 
L 352.883624 56.970018 
L 353.969425 56.463632 
L 355.055227 56.360117 
L 356.141028 55.881708 
L 357.226829 55.599139 
L 359.398431 55.408895 
L 362.655835 54.55839 
L 363.741636 53.998848 
L 364.827437 54.144329 
L 365.913238 53.568 
L 366.999039 53.878546 
L 368.08484 53.884141 
L 371.342244 55.884506 
L 372.428045 56.863705 
L 373.513846 56.776976 
L 374.599647 57.356102 
L 375.685448 57.370091 
L 376.77125 57.605099 
L 381.114454 57.484797 
L 382.200255 57.560335 
L 384.371858 57.504381 
L 385.457659 57.767366 
L 386.54346 57.342114 
L 387.629261 57.160262 
L 388.715062 57.988385 
L 391.972466 57.565931 
L 393.058267 58.066721 
L 394.144068 57.784152 
L 395.229869 57.669446 
L 396.31567 58.203809 
L 397.401472 58.063923 
L 398.487273 58.094698 
L 398.487273 58.094698 
" clip-path="url(#p6dc3047e1b)" style="fill: none; stroke: #1f77b4; stroke-width: 1.5; stroke-linecap: square"/>
   </g>
   <g id="line2d_16">
    <path d="M 73.832727 273.694787 
L 74.918528 249.102898 
L 76.00433 236.569147 
L 77.090131 221.209708 
L 79.261733 199.919119 
L 80.347534 198.604194 
L 81.433335 190.127126 
L 82.519137 179.747614 
L 83.604938 176.306428 
L 84.690739 173.284899 
L 86.862341 163.380998 
L 87.948142 155.771221 
L 89.033943 153.141372 
L 90.119745 149.280529 
L 91.205546 146.678657 
L 92.291347 143.15354 
L 93.377148 142.398158 
L 94.462949 142.090409 
L 95.54875 186.322238 
L 96.634552 179.747614 
L 97.720353 177.45349 
L 99.891955 169.0044 
L 100.977756 166.906116 
L 102.063557 165.339397 
L 103.149358 164.500083 
L 104.23516 167.437681 
L 105.320961 161.310691 
L 108.578364 149.448392 
L 109.664165 149.448392 
L 111.835768 148.133467 
L 114.00737 142.342203 
L 115.093171 143.461288 
L 116.178972 137.586093 
L 117.264773 138.061704 
L 118.350575 138.817086 
L 120.522177 132.466279 
L 121.607978 130.144178 
L 122.693779 129.696544 
L 123.77958 131.48708 
L 124.865382 126.954787 
L 125.951183 124.912457 
L 127.036984 123.429669 
L 128.122785 122.422493 
L 129.208586 123.90528 
L 130.294387 121.247454 
L 131.380189 121.751042 
L 132.46599 119.764666 
L 134.637592 120.016461 
L 135.723393 119.34501 
L 136.809194 120.128369 
L 137.894995 119.484895 
L 138.980797 152.861601 
L 140.066598 157.058169 
L 141.152399 152.917555 
L 142.2382 158.960613 
L 143.324001 159.660041 
L 144.409802 152.749692 
L 145.495604 159.660041 
L 146.581405 147.993582 
L 147.667206 147.881673 
L 148.753007 153.225303 
L 149.838808 150.427591 
L 150.924609 151.742516 
L 152.01041 153.728892 
L 153.096212 147.406062 
L 154.182013 145.111938 
L 155.267814 143.657128 
L 156.353615 143.097586 
L 157.439416 143.824991 
L 158.525217 141.446935 
L 159.611019 146.035183 
L 160.69682 143.741059 
L 161.782621 140.91537 
L 162.868422 139.46056 
L 163.954223 142.174341 
L 165.040024 135.627694 
L 166.125825 138.984949 
L 167.211627 136.998573 
L 168.297428 139.852239 
L 169.383229 140.327851 
L 170.46903 137.446207 
L 172.640632 134.872312 
L 173.726434 136.075328 
L 174.812235 135.57174 
L 175.898036 134.564564 
L 176.983837 130.703721 
L 178.069638 131.794829 
L 179.155439 133.809181 
L 180.24124 132.186508 
L 181.327042 128.129826 
L 182.412843 130.955515 
L 183.498644 128.297688 
L 184.584445 128.409597 
L 185.670246 129.44475 
L 186.756047 125.444022 
L 187.841849 125.695816 
L 188.92765 123.849326 
L 190.013451 125.75177 
L 191.099252 122.562379 
L 192.185053 122.562379 
L 193.270854 122.758218 
L 194.356656 120.659934 
L 195.442457 119.456918 
L 196.528258 120.631957 
L 197.614059 120.072415 
L 198.69986 119.289055 
L 199.785661 119.484895 
L 200.871462 118.337833 
L 203.043065 115.26035 
L 204.128866 116.015732 
L 205.214667 116.407412 
L 206.300468 115.26035 
L 207.386269 115.06451 
L 208.472071 115.148441 
L 209.557872 114.476991 
L 210.643673 114.113288 
L 211.729474 114.309128 
L 212.815275 113.190043 
L 213.901076 112.966226 
L 214.986877 113.190043 
L 216.072679 112.546569 
L 217.15848 113.162066 
L 219.330082 111.875118 
L 220.415883 112.434661 
L 221.501684 112.630501 
L 222.587486 112.490615 
L 223.673287 112.098935 
L 224.759088 112.378706 
L 225.844889 159.016568 
L 226.93069 159.38027 
L 228.016491 147.881673 
L 229.102292 155.771221 
L 230.188094 152.525875 
L 231.273895 147.629879 
L 232.359696 157.226032 
L 233.445497 145.00003 
L 234.531298 144.272625 
L 235.617099 146.538771 
L 236.702901 147.294154 
L 237.788702 147.741788 
L 238.874503 144.692281 
L 241.046105 149.728163 
L 242.131906 146.622703 
L 243.217708 148.161444 
L 244.303509 143.15354 
L 245.38931 144.104762 
L 246.475111 141.530867 
L 247.560912 136.690825 
L 248.646713 141.558844 
L 249.732514 140.607622 
L 250.818316 144.580373 
L 251.904117 144.132739 
L 252.989918 143.181517 
L 254.075719 141.027279 
L 255.16152 137.80991 
L 258.418924 143.880945 
L 259.504725 145.028007 
L 260.590526 138.733155 
L 261.676327 137.446207 
L 262.762128 138.453383 
L 263.847929 142.845791 
L 266.019532 139.712354 
L 267.105333 136.718802 
L 268.191134 138.481361 
L 269.276935 134.732426 
L 270.362736 142.705906 
L 271.448538 138.593269 
L 272.534339 136.942619 
L 273.62014 140.551668 
L 274.705941 139.488537 
L 275.791742 139.376628 
L 276.877543 136.467008 
L 277.963344 137.250367 
L 279.049146 133.445479 
L 280.134947 134.956243 
L 281.220748 137.558116 
L 282.306549 132.941891 
L 283.39235 133.473456 
L 284.478151 130.675744 
L 285.563953 132.829982 
L 286.649754 135.655671 
L 287.735555 132.969868 
L 288.821356 133.557387 
L 289.907157 133.473456 
L 290.992958 126.814901 
L 292.07876 134.284792 
L 293.164561 135.208037 
L 294.250362 132.550211 
L 295.336163 133.865136 
L 296.421964 132.829982 
L 297.507765 131.571012 
L 298.593566 131.543034 
L 299.679368 129.332842 
L 300.765169 127.822077 
L 301.85097 130.955515 
L 302.936771 131.87876 
L 305.108373 126.199404 
L 306.194175 129.360819 
L 307.279976 130.312041 
L 308.365777 126.311313 
L 309.451578 126.73097 
L 310.537379 126.479176 
L 311.62318 129.864407 
L 312.708981 128.18578 
L 313.794783 125.94761 
L 314.880584 125.527953 
L 315.966385 127.374443 
L 317.052186 126.199404 
L 318.137987 124.744594 
L 319.223788 126.451198 
L 321.395391 123.205852 
L 322.481192 126.087496 
L 323.566993 125.108297 
L 324.652794 122.030813 
L 325.738595 121.163523 
L 326.824396 123.093944 
L 327.910198 122.84215 
L 328.995999 120.2123 
L 330.0818 122.05879 
L 331.167601 121.219477 
L 332.253402 119.484895 
L 333.339203 119.876575 
L 334.425005 119.484895 
L 335.510806 118.813444 
L 336.596607 121.695088 
L 337.682408 118.785467 
L 338.768209 120.184323 
L 339.85401 118.617605 
L 340.939811 118.505696 
L 342.025613 117.218748 
L 343.111414 118.729513 
L 344.197215 115.372258 
L 345.283016 115.428213 
L 347.454618 117.414588 
L 348.54042 116.211572 
L 349.626221 115.624053 
L 350.712022 115.791915 
L 351.797823 114.700808 
L 352.883624 114.756762 
L 353.969425 114.393059 
L 355.055227 114.421036 
L 356.141028 113.861494 
L 357.226829 111.595347 
L 358.31263 112.518592 
L 359.398431 111.987027 
L 360.484232 112.490615 
L 361.570033 113.553746 
L 362.655835 111.791187 
L 363.741636 111.791187 
L 364.827437 111.56737 
L 365.913238 111.735233 
L 366.999039 111.399507 
L 368.08484 112.434661 
L 369.170642 112.854318 
L 370.256443 114.421036 
L 371.342244 115.484167 
L 373.513846 115.120464 
L 374.599647 116.659206 
L 375.685448 118.393788 
L 376.77125 116.659206 
L 377.857051 116.966954 
L 378.942852 116.379435 
L 380.028653 116.295503 
L 381.114454 118.002108 
L 382.200255 116.435389 
L 383.286057 116.51932 
L 384.371858 114.952602 
L 385.457659 115.819892 
L 386.54346 117.526497 
L 387.629261 117.358634 
L 388.715062 117.722337 
L 389.800863 115.45619 
L 390.886665 118.281879 
L 391.972466 116.687183 
L 393.058267 117.022909 
L 394.144068 117.610428 
L 395.229869 116.491343 
L 396.31567 117.778291 
L 397.401472 117.246726 
L 398.487273 118.421765 
L 398.487273 118.421765 
" clip-path="url(#p6dc3047e1b)" style="fill: none; stroke: #ff7f0e; stroke-width: 1.5; stroke-linecap: square"/>
   </g>
   <g id="line2d_17">
    <path d="M 73.832727 293.307714 
L 74.918528 287.71229 
L 76.00433 281.306494 
L 77.090131 278.566665 
L 78.175932 276.868743 
L 79.261733 277.177457 
L 80.347534 271.524149 
L 81.433335 267.954654 
L 82.519137 259.329983 
L 83.604938 264.172919 
L 84.690739 257.612766 
L 85.77654 258.481022 
L 86.862341 259.175626 
L 87.948142 256.204263 
L 89.033943 252.615474 
L 90.119745 254.699287 
L 93.377148 250.087885 
L 94.462949 249.335397 
L 95.54875 261.664625 
L 96.634552 264.115035 
L 97.720353 260.410478 
L 98.806154 262.629354 
L 99.891955 258.809029 
L 100.977756 257.072518 
L 102.063557 260.236827 
L 103.149358 259.349277 
L 104.23516 256.628743 
L 105.320961 258.114425 
L 106.406762 252.133109 
L 107.492563 252.075226 
L 108.578364 253.155721 
L 109.664165 251.033319 
L 110.749967 252.692652 
L 111.835768 247.1937 
L 112.921569 245.129182 
L 114.00737 249.624816 
L 115.093171 247.772537 
L 116.178972 243.971508 
L 117.264773 243.971508 
L 118.350575 246.228972 
L 119.436376 245.360717 
L 120.522177 244.145159 
L 121.607978 240.826494 
L 122.693779 240.633548 
L 123.77958 243.875035 
L 124.865382 234.652232 
L 125.951183 236.909697 
L 127.036984 235.848495 
L 128.122785 237.739363 
L 129.208586 235.501193 
L 130.294387 235.308248 
L 131.380189 236.08003 
L 132.46599 233.861155 
L 133.551791 233.764682 
L 134.637592 233.263024 
L 135.723393 233.185845 
L 136.809194 233.957628 
L 137.894995 233.938333 
L 138.980797 254.487047 
L 140.066598 252.229582 
L 141.152399 250.724606 
L 142.2382 251.727924 
L 143.324001 250.628133 
L 144.409802 252.750536 
L 145.495604 252.171699 
L 146.581405 245.399306 
L 147.667206 249.277514 
L 148.753007 253.676675 
L 149.838808 252.403233 
L 150.924609 253.078543 
L 152.01041 253.310078 
L 153.096212 243.739973 
L 154.182013 248.428553 
L 155.267814 249.605521 
L 156.353615 244.31881 
L 157.439416 240.807199 
L 158.525217 246.016732 
L 159.611019 245.939554 
L 160.69682 243.682089 
L 161.782621 247.521708 
L 162.868422 245.534368 
L 163.954223 245.244949 
L 165.040024 241.173796 
L 167.211627 247.000755 
L 168.297428 244.125864 
L 169.383229 246.865693 
L 171.554831 242.524415 
L 172.640632 242.138524 
L 173.726434 239.533758 
L 174.812235 245.457189 
L 175.898036 240.749315 
L 176.983837 238.839153 
L 178.069638 240.0933 
L 179.155439 245.148476 
L 180.24124 239.900354 
L 181.327042 241.733338 
L 182.412843 241.733338 
L 183.498644 237.662185 
L 184.584445 236.948286 
L 185.670246 237.816541 
L 186.756047 240.749315 
L 187.841849 238.163843 
L 188.92765 239.147866 
L 190.013451 237.449944 
L 191.099252 236.118619 
L 192.185053 231.796636 
L 193.270854 235.906379 
L 194.356656 232.008877 
L 195.442457 234.247046 
L 196.528258 235.424015 
L 197.614059 232.664892 
L 198.69986 233.764682 
L 199.785661 231.835226 
L 200.871462 231.2178 
L 203.043065 229.500583 
L 204.128866 230.002242 
L 205.214667 229.86718 
L 207.386269 228.941041 
L 208.472071 231.005559 
L 209.557872 231.044148 
L 210.643673 228.555149 
L 211.729474 228.863862 
L 213.901076 228.362204 
L 214.986877 227.011584 
L 216.072679 227.648305 
L 217.15848 227.436065 
L 218.244281 227.899134 
L 219.330082 227.223824 
L 220.415883 228.285025 
L 221.501684 227.976312 
L 222.587486 227.301003 
L 223.673287 227.165941 
L 224.759088 227.513243 
L 225.844889 261.22085 
L 226.93069 251.901575 
L 228.016491 253.695969 
L 229.102292 251.303443 
L 230.188094 243.026074 
L 231.273895 251.959458 
L 232.359696 256.069201 
L 233.445497 246.692042 
L 234.531298 246.595569 
L 235.617099 250.493071 
L 236.702901 242.138524 
L 237.788702 244.801174 
L 238.874503 248.582909 
L 239.960304 250.473777 
L 241.046105 248.891622 
L 242.131906 248.216312 
L 243.217708 250.53166 
L 244.303509 247.039344 
L 245.38931 246.402623 
L 246.475111 245.302833 
L 247.560912 247.984778 
L 248.646713 246.692042 
L 249.732514 245.958848 
L 250.818316 244.473167 
L 251.904117 241.19309 
L 252.989918 252.750536 
L 254.075719 239.919649 
L 255.16152 242.563005 
L 256.247321 243.489144 
L 257.333123 252.364644 
L 258.418924 246.364034 
L 259.504725 242.96819 
L 260.590526 240.826494 
L 261.676327 239.340812 
L 262.762128 240.98085 
L 263.847929 245.167771 
L 264.933731 250.377304 
L 266.019532 244.029392 
L 267.105333 244.878352 
L 268.191134 246.55698 
L 269.276935 244.99412 
L 270.362736 241.231679 
L 271.448538 246.421918 
L 272.534339 245.167771 
L 273.62014 248.891622 
L 274.705941 245.708019 
L 275.791742 244.627523 
L 276.877543 239.649525 
L 277.963344 241.559687 
L 279.049146 241.077323 
L 280.134947 240.459897 
L 281.220748 242.891012 
L 282.306549 242.370059 
L 283.39235 238.144549 
L 284.478151 241.154501 
L 285.563953 238.202433 
L 286.649754 240.575664 
L 287.735555 235.559077 
L 288.821356 242.891012 
L 289.907157 242.119229 
L 290.992958 236.446627 
L 292.07876 239.707409 
L 293.164561 241.849106 
L 294.250362 242.08064 
L 295.336163 240.402013 
L 296.421964 239.514463 
L 297.507765 244.434577 
L 298.593566 237.739363 
L 300.765169 241.540392 
L 301.85097 242.254291 
L 302.936771 240.054711 
L 304.022572 239.225045 
L 305.108373 237.179821 
L 306.194175 241.482509 
L 307.279976 237.276293 
L 308.365777 240.652842 
L 309.451578 239.823176 
L 310.537379 233.552442 
L 311.62318 238.974215 
L 312.708981 234.362814 
L 313.794783 236.504511 
L 314.880584 234.054101 
L 315.966385 240.035416 
L 317.052186 237.527123 
L 318.137987 231.487923 
L 319.223788 239.302223 
L 320.30959 236.600984 
L 321.395391 239.437285 
L 322.481192 237.700774 
L 323.566993 237.874425 
L 324.652794 237.816541 
L 325.738595 232.06676 
L 326.824396 232.838543 
L 327.910198 234.575054 
L 330.0818 231.372156 
L 331.167601 235.346837 
L 332.253402 232.259706 
L 333.339203 232.607008 
L 334.425005 233.513853 
L 335.510806 233.41738 
L 336.596607 237.006169 
L 337.682408 231.082738 
L 338.768209 234.555759 
L 340.939811 230.407428 
L 342.025613 232.471946 
L 343.111414 231.931698 
L 344.197215 229.384816 
L 345.283016 231.622985 
L 346.368817 232.896427 
L 347.454618 233.224434 
L 348.54042 231.449334 
L 350.712022 231.873815 
L 351.797823 232.703481 
L 352.883624 232.52983 
L 353.969425 230.581079 
L 355.055227 230.581079 
L 356.141028 230.426722 
L 357.226829 230.658257 
L 358.31263 228.555149 
L 359.398431 231.487923 
L 360.484232 230.851203 
L 361.570033 230.716141 
L 362.655835 229.018219 
L 363.741636 228.555149 
L 364.827437 229.037514 
L 365.913238 229.133986 
L 366.999039 229.886474 
L 368.08484 228.09208 
L 369.170642 228.034196 
L 370.256443 230.870497 
L 371.342244 229.481289 
L 372.428045 232.491241 
L 373.513846 231.275683 
L 374.599647 230.774024 
L 375.685448 231.2178 
L 376.77125 231.989582 
L 377.857051 230.851203 
L 378.942852 232.259706 
L 380.028653 230.156598 
L 381.114454 232.394768 
L 382.200255 233.224434 
L 383.286057 232.471946 
L 384.371858 229.288343 
L 385.457659 231.352861 
L 386.54346 229.40411 
L 387.629261 232.935016 
L 388.715062 232.163233 
L 389.800863 231.565102 
L 390.886665 231.85452 
L 391.972466 228.381498 
L 393.058267 232.279001 
L 394.144068 233.764682 
L 395.229869 230.928381 
L 396.31567 234.150574 
L 397.401472 230.407428 
L 398.487273 231.835226 
L 398.487273 231.835226 
" clip-path="url(#p6dc3047e1b)" style="fill: none; stroke: #2ca02c; stroke-width: 1.5; stroke-linecap: square"/>
   </g>
   <g id="line2d_18">
    <path d="M 368.08484 111.931073 
L 369.170642 113.6097 
L 370.256443 116.771115 
L 371.342244 118.309856 
L 372.428045 125.024365 
L 373.513846 123.653486 
L 374.599647 125.499976 
L 375.685448 129.948339 
L 376.77125 129.864407 
L 377.857051 145.223847 
L 378.942852 149.616255 
L 380.028653 149.616255 
L 381.114454 154.120571 
L 382.200255 160.611263 
L 383.286057 171.606272 
L 384.371858 186.462123 
L 385.457659 184.391816 
L 386.54346 192.980793 
L 387.629261 196.11423 
L 388.715062 210.69031 
L 389.800863 217.069094 
L 390.886665 225.797956 
L 391.972466 229.295096 
L 393.058267 240.290105 
L 394.144068 241.325258 
L 395.229869 250.753548 
L 396.31567 252.09645 
L 397.401472 268.826768 
L 398.487273 268.435089 
L 398.487273 268.435089 
" clip-path="url(#p6dc3047e1b)" style="fill: none; stroke: #d62728; stroke-width: 1.5; stroke-linecap: square"/>
   </g>
   <g id="line2d_19">
    <path d="M 368.08484 229.230459 
L 369.170642 227.744778 
L 370.256443 231.738753 
L 371.342244 233.571737 
L 372.428045 236.253681 
L 373.513846 233.301613 
L 374.599647 234.401403 
L 375.685448 238.704091 
L 376.77125 235.829201 
L 378.942852 246.518391 
L 381.114454 243.547027 
L 382.200255 251.071908 
L 384.371858 268.031832 
L 385.457659 264.963996 
L 386.54346 267.086398 
L 387.629261 265.581422 
L 388.715062 273.453605 
L 389.800863 276.695092 
L 390.886665 281.055664 
L 391.972466 282.155455 
L 393.058267 285.377647 
L 394.144068 285.93719 
L 395.229869 291.011661 
L 396.31567 286.631794 
L 397.401472 295.217876 
L 398.487273 295.488 
L 398.487273 295.488 
" clip-path="url(#p6dc3047e1b)" style="fill: none; stroke: #9467bd; stroke-width: 1.5; stroke-linecap: square"/>
   </g>
   <g id="patch_3">
    <path d="M 57.6 307.584 
L 57.6 41.472 
" style="fill: none; stroke: #000000; stroke-width: 0.8; stroke-linejoin: miter; stroke-linecap: square"/>
   </g>
   <g id="patch_4">
    <path d="M 414.72 307.584 
L 414.72 41.472 
" style="fill: none; stroke: #000000; stroke-width: 0.8; stroke-linejoin: miter; stroke-linecap: square"/>
   </g>
   <g id="patch_5">
    <path d="M 57.6 307.584 
L 414.72 307.584 
" style="fill: none; stroke: #000000; stroke-width: 0.8; stroke-linejoin: miter; stroke-linecap: square"/>
   </g>
   <g id="patch_6">
    <path d="M 57.6 41.472 
L 414.72 41.472 
" style="fill: none; stroke: #000000; stroke-width: 0.8; stroke-linejoin: miter; stroke-linecap: square"/>
   </g>
   <g id="text_17">
    <!-- Learning Curves -->
    <g transform="translate(187.37625 35.472) scale(0.12 -0.12)">
     <defs>
      <path id="DejaVuSans-4c" d="M 628 4666 
L 1259 4666 
L 1259 531 
L 3531 531 
L 3531 0 
L 628 0 
L 628 4666 
z
" transform="scale(0.015625)"/>
      <path id="DejaVuSans-65" d="M 3597 1894 
L 3597 1613 
L 953 1613 
Q 991 1019 1311 708 
Q 1631 397 2203 397 
Q 2534 397 2845 478 
Q 3156 559 3463 722 
L 3463 178 
Q 3153 47 2828 -22 
Q 2503 -91 2169 -91 
Q 1331 -91 842 396 
Q 353 884 353 1716 
Q 353 2575 817 3079 
Q 1281 3584 2069 3584 
Q 2775 3584 3186 3129 
Q 3597 2675 3597 1894 
z
M 3022 2063 
Q 3016 2534 2758 2815 
Q 2500 3097 2075 3097 
Q 1594 3097 1305 2825 
Q 1016 2553 972 2059 
L 3022 2063 
z
" transform="scale(0.015625)"/>
      <path id="DejaVuSans-6e" d="M 3513 2113 
L 3513 0 
L 2938 0 
L 2938 2094 
Q 2938 2591 2744 2837 
Q 2550 3084 2163 3084 
Q 1697 3084 1428 2787 
Q 1159 2491 1159 1978 
L 1159 0 
L 581 0 
L 581 3500 
L 1159 3500 
L 1159 2956 
Q 1366 3272 1645 3428 
Q 1925 3584 2291 3584 
Q 2894 3584 3203 3211 
Q 3513 2838 3513 2113 
z
" transform="scale(0.015625)"/>
      <path id="DejaVuSans-69" d="M 603 3500 
L 1178 3500 
L 1178 0 
L 603 0 
L 603 3500 
z
M 603 4863 
L 1178 4863 
L 1178 4134 
L 603 4134 
L 603 4863 
z
" transform="scale(0.015625)"/>
      <path id="DejaVuSans-67" d="M 2906 1791 
Q 2906 2416 2648 2759 
Q 2391 3103 1925 3103 
Q 1463 3103 1205 2759 
Q 947 2416 947 1791 
Q 947 1169 1205 825 
Q 1463 481 1925 481 
Q 2391 481 2648 825 
Q 2906 1169 2906 1791 
z
M 3481 434 
Q 3481 -459 3084 -895 
Q 2688 -1331 1869 -1331 
Q 1566 -1331 1297 -1286 
Q 1028 -1241 775 -1147 
L 775 -588 
Q 1028 -725 1275 -790 
Q 1522 -856 1778 -856 
Q 2344 -856 2625 -561 
Q 2906 -266 2906 331 
L 2906 616 
Q 2728 306 2450 153 
Q 2172 0 1784 0 
Q 1141 0 747 490 
Q 353 981 353 1791 
Q 353 2603 747 3093 
Q 1141 3584 1784 3584 
Q 2172 3584 2450 3431 
Q 2728 3278 2906 2969 
L 2906 3500 
L 3481 3500 
L 3481 434 
z
" transform="scale(0.015625)"/>
      <path id="DejaVuSans-20" transform="scale(0.015625)"/>
      <path id="DejaVuSans-43" d="M 4122 4306 
L 4122 3641 
Q 3803 3938 3442 4084 
Q 3081 4231 2675 4231 
Q 1875 4231 1450 3742 
Q 1025 3253 1025 2328 
Q 1025 1406 1450 917 
Q 1875 428 2675 428 
Q 3081 428 3442 575 
Q 3803 722 4122 1019 
L 4122 359 
Q 3791 134 3420 21 
Q 3050 -91 2638 -91 
Q 1578 -91 968 557 
Q 359 1206 359 2328 
Q 359 3453 968 4101 
Q 1578 4750 2638 4750 
Q 3056 4750 3426 4639 
Q 3797 4528 4122 4306 
z
" transform="scale(0.015625)"/>
      <path id="DejaVuSans-76" d="M 191 3500 
L 800 3500 
L 1894 563 
L 2988 3500 
L 3597 3500 
L 2284 0 
L 1503 0 
L 191 3500 
z
" transform="scale(0.015625)"/>
     </defs>
     <use xlink:href="#DejaVuSans-4c"/>
     <use xlink:href="#DejaVuSans-65" x="53.962891"/>
     <use xlink:href="#DejaVuSans-61" x="115.486328"/>
     <use xlink:href="#DejaVuSans-72" x="176.765625"/>
     <use xlink:href="#DejaVuSans-6e" x="216.128906"/>
     <use xlink:href="#DejaVuSans-69" x="279.507812"/>
     <use xlink:href="#DejaVuSans-6e" x="307.291016"/>
     <use xlink:href="#DejaVuSans-67" x="370.669922"/>
     <use xlink:href="#DejaVuSans-20" x="434.146484"/>
     <use xlink:href="#DejaVuSans-43" x="465.933594"/>
     <use xlink:href="#DejaVuSans-75" x="535.757812"/>
     <use xlink:href="#DejaVuSans-72" x="599.136719"/>
     <use xlink:href="#DejaVuSans-76" x="640.25"/>
     <use xlink:href="#DejaVuSans-65" x="699.429688"/>
     <use xlink:href="#DejaVuSans-73" x="760.953125"/>
    </g>
   </g>
   <g id="legend_1">
    <g id="patch_7">
     <path d="M 214.18875 212.723313 
L 407.72 212.723313 
Q 409.72 212.723313 409.72 210.723313 
L 409.72 138.332688 
Q 409.72 136.332688 407.72 136.332688 
L 214.18875 136.332688 
Q 212.18875 136.332688 212.18875 138.332688 
L 212.18875 210.723313 
Q 212.18875 212.723313 214.18875 212.723313 
z
" style="fill: #ffffff; opacity: 0.8; stroke: #cccccc; stroke-linejoin: miter"/>
    </g>
    <g id="line2d_20">
     <path d="M 216.18875 144.431125 
L 226.18875 144.431125 
L 236.18875 144.431125 
" style="fill: none; stroke: #1f77b4; stroke-width: 1.5; stroke-linecap: square"/>
    </g>
    <g id="text_18">
     <!-- Train Accuracy -->
     <g transform="translate(244.18875 147.931125) scale(0.1 -0.1)">
      <defs>
       <path id="DejaVuSans-54" d="M -19 4666 
L 3928 4666 
L 3928 4134 
L 2272 4134 
L 2272 0 
L 1638 0 
L 1638 4134 
L -19 4134 
L -19 4666 
z
" transform="scale(0.015625)"/>
      </defs>
      <use xlink:href="#DejaVuSans-54"/>
      <use xlink:href="#DejaVuSans-72" x="46.333984"/>
      <use xlink:href="#DejaVuSans-61" x="87.447266"/>
      <use xlink:href="#DejaVuSans-69" x="148.726562"/>
      <use xlink:href="#DejaVuSans-6e" x="176.509766"/>
      <use xlink:href="#DejaVuSans-20" x="239.888672"/>
      <use xlink:href="#DejaVuSans-41" x="271.675781"/>
      <use xlink:href="#DejaVuSans-63" x="338.333984"/>
      <use xlink:href="#DejaVuSans-63" x="393.314453"/>
      <use xlink:href="#DejaVuSans-75" x="448.294922"/>
      <use xlink:href="#DejaVuSans-72" x="511.673828"/>
      <use xlink:href="#DejaVuSans-61" x="552.787109"/>
      <use xlink:href="#DejaVuSans-63" x="614.066406"/>
      <use xlink:href="#DejaVuSans-79" x="669.046875"/>
     </g>
    </g>
    <g id="line2d_21">
     <path d="M 216.18875 159.10925 
L 226.18875 159.10925 
L 236.18875 159.10925 
" style="fill: none; stroke: #ff7f0e; stroke-width: 1.5; stroke-linecap: square"/>
    </g>
    <g id="text_19">
     <!-- Validation Accuracy -->
     <g transform="translate(244.18875 162.60925) scale(0.1 -0.1)">
      <defs>
       <path id="DejaVuSans-56" d="M 1831 0 
L 50 4666 
L 709 4666 
L 2188 738 
L 3669 4666 
L 4325 4666 
L 2547 0 
L 1831 0 
z
" transform="scale(0.015625)"/>
       <path id="DejaVuSans-6c" d="M 603 4863 
L 1178 4863 
L 1178 0 
L 603 0 
L 603 4863 
z
" transform="scale(0.015625)"/>
       <path id="DejaVuSans-64" d="M 2906 2969 
L 2906 4863 
L 3481 4863 
L 3481 0 
L 2906 0 
L 2906 525 
Q 2725 213 2448 61 
Q 2172 -91 1784 -91 
Q 1150 -91 751 415 
Q 353 922 353 1747 
Q 353 2572 751 3078 
Q 1150 3584 1784 3584 
Q 2172 3584 2448 3432 
Q 2725 3281 2906 2969 
z
M 947 1747 
Q 947 1113 1208 752 
Q 1469 391 1925 391 
Q 2381 391 2643 752 
Q 2906 1113 2906 1747 
Q 2906 2381 2643 2742 
Q 2381 3103 1925 3103 
Q 1469 3103 1208 2742 
Q 947 2381 947 1747 
z
" transform="scale(0.015625)"/>
       <path id="DejaVuSans-74" d="M 1172 4494 
L 1172 3500 
L 2356 3500 
L 2356 3053 
L 1172 3053 
L 1172 1153 
Q 1172 725 1289 603 
Q 1406 481 1766 481 
L 2356 481 
L 2356 0 
L 1766 0 
Q 1100 0 847 248 
Q 594 497 594 1153 
L 594 3053 
L 172 3053 
L 172 3500 
L 594 3500 
L 594 4494 
L 1172 4494 
z
" transform="scale(0.015625)"/>
      </defs>
      <use xlink:href="#DejaVuSans-56"/>
      <use xlink:href="#DejaVuSans-61" x="60.658203"/>
      <use xlink:href="#DejaVuSans-6c" x="121.9375"/>
      <use xlink:href="#DejaVuSans-69" x="149.720703"/>
      <use xlink:href="#DejaVuSans-64" x="177.503906"/>
      <use xlink:href="#DejaVuSans-61" x="240.980469"/>
      <use xlink:href="#DejaVuSans-74" x="302.259766"/>
      <use xlink:href="#DejaVuSans-69" x="341.46875"/>
      <use xlink:href="#DejaVuSans-6f" x="369.251953"/>
      <use xlink:href="#DejaVuSans-6e" x="430.433594"/>
      <use xlink:href="#DejaVuSans-20" x="493.8125"/>
      <use xlink:href="#DejaVuSans-41" x="525.599609"/>
      <use xlink:href="#DejaVuSans-63" x="592.257812"/>
      <use xlink:href="#DejaVuSans-63" x="647.238281"/>
      <use xlink:href="#DejaVuSans-75" x="702.21875"/>
      <use xlink:href="#DejaVuSans-72" x="765.597656"/>
      <use xlink:href="#DejaVuSans-61" x="806.710938"/>
      <use xlink:href="#DejaVuSans-63" x="867.990234"/>
      <use xlink:href="#DejaVuSans-79" x="922.970703"/>
     </g>
    </g>
    <g id="line2d_22">
     <path d="M 216.18875 173.787375 
L 226.18875 173.787375 
L 236.18875 173.787375 
" style="fill: none; stroke: #2ca02c; stroke-width: 1.5; stroke-linecap: square"/>
    </g>
    <g id="text_20">
     <!-- Robust Validation Accuracy -->
     <g transform="translate(244.18875 177.287375) scale(0.1 -0.1)">
      <defs>
       <path id="DejaVuSans-52" d="M 2841 2188 
Q 3044 2119 3236 1894 
Q 3428 1669 3622 1275 
L 4263 0 
L 3584 0 
L 2988 1197 
Q 2756 1666 2539 1819 
Q 2322 1972 1947 1972 
L 1259 1972 
L 1259 0 
L 628 0 
L 628 4666 
L 2053 4666 
Q 2853 4666 3247 4331 
Q 3641 3997 3641 3322 
Q 3641 2881 3436 2590 
Q 3231 2300 2841 2188 
z
M 1259 4147 
L 1259 2491 
L 2053 2491 
Q 2509 2491 2742 2702 
Q 2975 2913 2975 3322 
Q 2975 3731 2742 3939 
Q 2509 4147 2053 4147 
L 1259 4147 
z
" transform="scale(0.015625)"/>
       <path id="DejaVuSans-62" d="M 3116 1747 
Q 3116 2381 2855 2742 
Q 2594 3103 2138 3103 
Q 1681 3103 1420 2742 
Q 1159 2381 1159 1747 
Q 1159 1113 1420 752 
Q 1681 391 2138 391 
Q 2594 391 2855 752 
Q 3116 1113 3116 1747 
z
M 1159 2969 
Q 1341 3281 1617 3432 
Q 1894 3584 2278 3584 
Q 2916 3584 3314 3078 
Q 3713 2572 3713 1747 
Q 3713 922 3314 415 
Q 2916 -91 2278 -91 
Q 1894 -91 1617 61 
Q 1341 213 1159 525 
L 1159 0 
L 581 0 
L 581 4863 
L 1159 4863 
L 1159 2969 
z
" transform="scale(0.015625)"/>
      </defs>
      <use xlink:href="#DejaVuSans-52"/>
      <use xlink:href="#DejaVuSans-6f" x="64.982422"/>
      <use xlink:href="#DejaVuSans-62" x="126.164062"/>
      <use xlink:href="#DejaVuSans-75" x="189.640625"/>
      <use xlink:href="#DejaVuSans-73" x="253.019531"/>
      <use xlink:href="#DejaVuSans-74" x="305.119141"/>
      <use xlink:href="#DejaVuSans-20" x="344.328125"/>
      <use xlink:href="#DejaVuSans-56" x="376.115234"/>
      <use xlink:href="#DejaVuSans-61" x="436.773438"/>
      <use xlink:href="#DejaVuSans-6c" x="498.052734"/>
      <use xlink:href="#DejaVuSans-69" x="525.835938"/>
      <use xlink:href="#DejaVuSans-64" x="553.619141"/>
      <use xlink:href="#DejaVuSans-61" x="617.095703"/>
      <use xlink:href="#DejaVuSans-74" x="678.375"/>
      <use xlink:href="#DejaVuSans-69" x="717.583984"/>
      <use xlink:href="#DejaVuSans-6f" x="745.367188"/>
      <use xlink:href="#DejaVuSans-6e" x="806.548828"/>
      <use xlink:href="#DejaVuSans-20" x="869.927734"/>
      <use xlink:href="#DejaVuSans-41" x="901.714844"/>
      <use xlink:href="#DejaVuSans-63" x="968.373047"/>
      <use xlink:href="#DejaVuSans-63" x="1023.353516"/>
      <use xlink:href="#DejaVuSans-75" x="1078.333984"/>
      <use xlink:href="#DejaVuSans-72" x="1141.712891"/>
      <use xlink:href="#DejaVuSans-61" x="1182.826172"/>
      <use xlink:href="#DejaVuSans-63" x="1244.105469"/>
      <use xlink:href="#DejaVuSans-79" x="1299.085938"/>
     </g>
    </g>
    <g id="line2d_23">
     <path d="M 216.18875 188.4655 
L 226.18875 188.4655 
L 236.18875 188.4655 
" style="fill: none; stroke: #d62728; stroke-width: 1.5; stroke-linecap: square"/>
    </g>
    <g id="text_21">
     <!-- SWA Validation Accuracy -->
     <g transform="translate(244.18875 191.9655) scale(0.1 -0.1)">
      <defs>
       <path id="DejaVuSans-53" d="M 3425 4513 
L 3425 3897 
Q 3066 4069 2747 4153 
Q 2428 4238 2131 4238 
Q 1616 4238 1336 4038 
Q 1056 3838 1056 3469 
Q 1056 3159 1242 3001 
Q 1428 2844 1947 2747 
L 2328 2669 
Q 3034 2534 3370 2195 
Q 3706 1856 3706 1288 
Q 3706 609 3251 259 
Q 2797 -91 1919 -91 
Q 1588 -91 1214 -16 
Q 841 59 441 206 
L 441 856 
Q 825 641 1194 531 
Q 1563 422 1919 422 
Q 2459 422 2753 634 
Q 3047 847 3047 1241 
Q 3047 1584 2836 1778 
Q 2625 1972 2144 2069 
L 1759 2144 
Q 1053 2284 737 2584 
Q 422 2884 422 3419 
Q 422 4038 858 4394 
Q 1294 4750 2059 4750 
Q 2388 4750 2728 4690 
Q 3069 4631 3425 4513 
z
" transform="scale(0.015625)"/>
       <path id="DejaVuSans-57" d="M 213 4666 
L 850 4666 
L 1831 722 
L 2809 4666 
L 3519 4666 
L 4500 722 
L 5478 4666 
L 6119 4666 
L 4947 0 
L 4153 0 
L 3169 4050 
L 2175 0 
L 1381 0 
L 213 4666 
z
" transform="scale(0.015625)"/>
      </defs>
      <use xlink:href="#DejaVuSans-53"/>
      <use xlink:href="#DejaVuSans-57" x="63.476562"/>
      <use xlink:href="#DejaVuSans-41" x="156.853516"/>
      <use xlink:href="#DejaVuSans-20" x="225.261719"/>
      <use xlink:href="#DejaVuSans-56" x="257.048828"/>
      <use xlink:href="#DejaVuSans-61" x="317.707031"/>
      <use xlink:href="#DejaVuSans-6c" x="378.986328"/>
      <use xlink:href="#DejaVuSans-69" x="406.769531"/>
      <use xlink:href="#DejaVuSans-64" x="434.552734"/>
      <use xlink:href="#DejaVuSans-61" x="498.029297"/>
      <use xlink:href="#DejaVuSans-74" x="559.308594"/>
      <use xlink:href="#DejaVuSans-69" x="598.517578"/>
      <use xlink:href="#DejaVuSans-6f" x="626.300781"/>
      <use xlink:href="#DejaVuSans-6e" x="687.482422"/>
      <use xlink:href="#DejaVuSans-20" x="750.861328"/>
      <use xlink:href="#DejaVuSans-41" x="782.648438"/>
      <use xlink:href="#DejaVuSans-63" x="849.306641"/>
      <use xlink:href="#DejaVuSans-63" x="904.287109"/>
      <use xlink:href="#DejaVuSans-75" x="959.267578"/>
      <use xlink:href="#DejaVuSans-72" x="1022.646484"/>
      <use xlink:href="#DejaVuSans-61" x="1063.759766"/>
      <use xlink:href="#DejaVuSans-63" x="1125.039062"/>
      <use xlink:href="#DejaVuSans-79" x="1180.019531"/>
     </g>
    </g>
    <g id="line2d_24">
     <path d="M 216.18875 203.143625 
L 226.18875 203.143625 
L 236.18875 203.143625 
" style="fill: none; stroke: #9467bd; stroke-width: 1.5; stroke-linecap: square"/>
    </g>
    <g id="text_22">
     <!-- SWA Robust Validation Accuracy -->
     <g transform="translate(244.18875 206.643625) scale(0.1 -0.1)">
      <use xlink:href="#DejaVuSans-53"/>
      <use xlink:href="#DejaVuSans-57" x="63.476562"/>
      <use xlink:href="#DejaVuSans-41" x="156.853516"/>
      <use xlink:href="#DejaVuSans-20" x="225.261719"/>
      <use xlink:href="#DejaVuSans-52" x="257.048828"/>
      <use xlink:href="#DejaVuSans-6f" x="322.03125"/>
      <use xlink:href="#DejaVuSans-62" x="383.212891"/>
      <use xlink:href="#DejaVuSans-75" x="446.689453"/>
      <use xlink:href="#DejaVuSans-73" x="510.068359"/>
      <use xlink:href="#DejaVuSans-74" x="562.167969"/>
      <use xlink:href="#DejaVuSans-20" x="601.376953"/>
      <use xlink:href="#DejaVuSans-56" x="633.164062"/>
      <use xlink:href="#DejaVuSans-61" x="693.822266"/>
      <use xlink:href="#DejaVuSans-6c" x="755.101562"/>
      <use xlink:href="#DejaVuSans-69" x="782.884766"/>
      <use xlink:href="#DejaVuSans-64" x="810.667969"/>
      <use xlink:href="#DejaVuSans-61" x="874.144531"/>
      <use xlink:href="#DejaVuSans-74" x="935.423828"/>
      <use xlink:href="#DejaVuSans-69" x="974.632812"/>
      <use xlink:href="#DejaVuSans-6f" x="1002.416016"/>
      <use xlink:href="#DejaVuSans-6e" x="1063.597656"/>
      <use xlink:href="#DejaVuSans-20" x="1126.976562"/>
      <use xlink:href="#DejaVuSans-41" x="1158.763672"/>
      <use xlink:href="#DejaVuSans-63" x="1225.421875"/>
      <use xlink:href="#DejaVuSans-63" x="1280.402344"/>
      <use xlink:href="#DejaVuSans-75" x="1335.382812"/>
      <use xlink:href="#DejaVuSans-72" x="1398.761719"/>
      <use xlink:href="#DejaVuSans-61" x="1439.875"/>
      <use xlink:href="#DejaVuSans-63" x="1501.154297"/>
      <use xlink:href="#DejaVuSans-79" x="1556.134766"/>
     </g>
    </g>
   </g>
  </g>
 </g>
 <defs>
  <clipPath id="p6dc3047e1b">
   <rect x="57.6" y="41.472" width="357.12" height="266.112"/>
  </clipPath>
 </defs>
</svg>
