<?xml version="1.0" encoding="utf-8" standalone="no"?>
<!DOCTYPE svg PUBLIC "-//W3C//DTD SVG 1.1//EN"
  "http://www.w3.org/Graphics/SVG/1.1/DTD/svg11.dtd">
<svg xmlns:xlink="http://www.w3.org/1999/xlink" width="460.8pt" height="345.6pt" viewBox="0 0 460.8 345.6" xmlns="http://www.w3.org/2000/svg" version="1.1">
 <metadata>
  <rdf:RDF xmlns:dc="http://purl.org/dc/elements/1.1/" xmlns:cc="http://creativecommons.org/ns#" xmlns:rdf="http://www.w3.org/1999/02/22-rdf-syntax-ns#">
   <cc:Work>
    <dc:type rdf:resource="http://purl.org/dc/dcmitype/StillImage"/>
    <dc:date>2025-07-17T02:49:33.484566</dc:date>
    <dc:format>image/svg+xml</dc:format>
    <dc:creator>
     <cc:Agent>
      <dc:title>Matplotlib v3.9.1, https://matplotlib.org/</dc:title>
     </cc:Agent>
    </dc:creator>
   </cc:Work>
  </rdf:RDF>
 </metadata>
 <defs>
  <style type="text/css">*{stroke-linejoin: round; stroke-linecap: butt}</style>
 </defs>
 <g id="figure_1">
  <g id="patch_1">
   <path d="M 0 345.6 
L 460.8 345.6 
L 460.8 0 
L 0 0 
z
" style="fill: #ffffff"/>
  </g>
  <g id="axes_1">
   <g id="patch_2">
    <path d="M 57.6 307.584 
L 414.72 307.584 
L 414.72 41.472 
L 57.6 41.472 
z
" style="fill: #ffffff"/>
   </g>
   <g id="matplotlib.axis_1">
    <g id="xtick_1">
     <g id="line2d_1">
      <defs>
       <path id="m9b9a6a06dd" d="M 0 0 
L 0 3.5 
" style="stroke: #000000; stroke-width: 0.8"/>
      </defs>
      <g>
       <use xlink:href="#m9b9a6a06dd" x="73.832727" y="307.584" style="stroke: #000000; stroke-width: 0.8"/>
      </g>
     </g>
     <g id="text_1">
      <!-- 1 -->
      <g transform="translate(70.651477 322.182437) scale(0.1 -0.1)">
       <defs>
        <path id="DejaVuSans-31" d="M 794 531 
L 1825 531 
L 1825 4091 
L 703 3866 
L 703 4441 
L 1819 4666 
L 2450 4666 
L 2450 531 
L 3481 531 
L 3481 0 
L 794 0 
L 794 531 
z
" transform="scale(0.015625)"/>
       </defs>
       <use xlink:href="#DejaVuSans-31"/>
      </g>
     </g>
    </g>
    <g id="xtick_2">
     <g id="line2d_2">
      <g>
       <use xlink:href="#m9b9a6a06dd" x="109.664165" y="307.584" style="stroke: #000000; stroke-width: 0.8"/>
      </g>
     </g>
     <g id="text_2">
      <!-- 34 -->
      <g transform="translate(103.301665 322.182437) scale(0.1 -0.1)">
       <defs>
        <path id="DejaVuSans-33" d="M 2597 2516 
Q 3050 2419 3304 2112 
Q 3559 1806 3559 1356 
Q 3559 666 3084 287 
Q 2609 -91 1734 -91 
Q 1441 -91 1130 -33 
Q 819 25 488 141 
L 488 750 
Q 750 597 1062 519 
Q 1375 441 1716 441 
Q 2309 441 2620 675 
Q 2931 909 2931 1356 
Q 2931 1769 2642 2001 
Q 2353 2234 1838 2234 
L 1294 2234 
L 1294 2753 
L 1863 2753 
Q 2328 2753 2575 2939 
Q 2822 3125 2822 3475 
Q 2822 3834 2567 4026 
Q 2313 4219 1838 4219 
Q 1578 4219 1281 4162 
Q 984 4106 628 3988 
L 628 4550 
Q 988 4650 1302 4700 
Q 1616 4750 1894 4750 
Q 2613 4750 3031 4423 
Q 3450 4097 3450 3541 
Q 3450 3153 3228 2886 
Q 3006 2619 2597 2516 
z
" transform="scale(0.015625)"/>
        <path id="DejaVuSans-34" d="M 2419 4116 
L 825 1625 
L 2419 1625 
L 2419 4116 
z
M 2253 4666 
L 3047 4666 
L 3047 1625 
L 3713 1625 
L 3713 1100 
L 3047 1100 
L 3047 0 
L 2419 0 
L 2419 1100 
L 313 1100 
L 313 1709 
L 2253 4666 
z
" transform="scale(0.015625)"/>
       </defs>
       <use xlink:href="#DejaVuSans-33"/>
       <use xlink:href="#DejaVuSans-34" x="63.623047"/>
      </g>
     </g>
    </g>
    <g id="xtick_3">
     <g id="line2d_3">
      <g>
       <use xlink:href="#m9b9a6a06dd" x="145.495604" y="307.584" style="stroke: #000000; stroke-width: 0.8"/>
      </g>
     </g>
     <g id="text_3">
      <!-- 67 -->
      <g transform="translate(139.133104 322.182437) scale(0.1 -0.1)">
       <defs>
        <path id="DejaVuSans-36" d="M 2113 2584 
Q 1688 2584 1439 2293 
Q 1191 2003 1191 1497 
Q 1191 994 1439 701 
Q 1688 409 2113 409 
Q 2538 409 2786 701 
Q 3034 994 3034 1497 
Q 3034 2003 2786 2293 
Q 2538 2584 2113 2584 
z
M 3366 4563 
L 3366 3988 
Q 3128 4100 2886 4159 
Q 2644 4219 2406 4219 
Q 1781 4219 1451 3797 
Q 1122 3375 1075 2522 
Q 1259 2794 1537 2939 
Q 1816 3084 2150 3084 
Q 2853 3084 3261 2657 
Q 3669 2231 3669 1497 
Q 3669 778 3244 343 
Q 2819 -91 2113 -91 
Q 1303 -91 875 529 
Q 447 1150 447 2328 
Q 447 3434 972 4092 
Q 1497 4750 2381 4750 
Q 2619 4750 2861 4703 
Q 3103 4656 3366 4563 
z
" transform="scale(0.015625)"/>
        <path id="DejaVuSans-37" d="M 525 4666 
L 3525 4666 
L 3525 4397 
L 1831 0 
L 1172 0 
L 2766 4134 
L 525 4134 
L 525 4666 
z
" transform="scale(0.015625)"/>
       </defs>
       <use xlink:href="#DejaVuSans-36"/>
       <use xlink:href="#DejaVuSans-37" x="63.623047"/>
      </g>
     </g>
    </g>
    <g id="xtick_4">
     <g id="line2d_4">
      <g>
       <use xlink:href="#m9b9a6a06dd" x="181.327042" y="307.584" style="stroke: #000000; stroke-width: 0.8"/>
      </g>
     </g>
     <g id="text_4">
      <!-- 100 -->
      <g transform="translate(171.783292 322.182437) scale(0.1 -0.1)">
       <defs>
        <path id="DejaVuSans-30" d="M 2034 4250 
Q 1547 4250 1301 3770 
Q 1056 3291 1056 2328 
Q 1056 1369 1301 889 
Q 1547 409 2034 409 
Q 2525 409 2770 889 
Q 3016 1369 3016 2328 
Q 3016 3291 2770 3770 
Q 2525 4250 2034 4250 
z
M 2034 4750 
Q 2819 4750 3233 4129 
Q 3647 3509 3647 2328 
Q 3647 1150 3233 529 
Q 2819 -91 2034 -91 
Q 1250 -91 836 529 
Q 422 1150 422 2328 
Q 422 3509 836 4129 
Q 1250 4750 2034 4750 
z
" transform="scale(0.015625)"/>
       </defs>
       <use xlink:href="#DejaVuSans-31"/>
       <use xlink:href="#DejaVuSans-30" x="63.623047"/>
       <use xlink:href="#DejaVuSans-30" x="127.246094"/>
      </g>
     </g>
    </g>
    <g id="xtick_5">
     <g id="line2d_5">
      <g>
       <use xlink:href="#m9b9a6a06dd" x="217.15848" y="307.584" style="stroke: #000000; stroke-width: 0.8"/>
      </g>
     </g>
     <g id="text_5">
      <!-- 133 -->
      <g transform="translate(207.61473 322.182437) scale(0.1 -0.1)">
       <use xlink:href="#DejaVuSans-31"/>
       <use xlink:href="#DejaVuSans-33" x="63.623047"/>
       <use xlink:href="#DejaVuSans-33" x="127.246094"/>
      </g>
     </g>
    </g>
    <g id="xtick_6">
     <g id="line2d_6">
      <g>
       <use xlink:href="#m9b9a6a06dd" x="254.075719" y="307.584" style="stroke: #000000; stroke-width: 0.8"/>
      </g>
     </g>
     <g id="text_6">
      <!-- 167 -->
      <g transform="translate(244.531969 322.182437) scale(0.1 -0.1)">
       <use xlink:href="#DejaVuSans-31"/>
       <use xlink:href="#DejaVuSans-36" x="63.623047"/>
       <use xlink:href="#DejaVuSans-37" x="127.246094"/>
      </g>
     </g>
    </g>
    <g id="xtick_7">
     <g id="line2d_7">
      <g>
       <use xlink:href="#m9b9a6a06dd" x="289.907157" y="307.584" style="stroke: #000000; stroke-width: 0.8"/>
      </g>
     </g>
     <g id="text_7">
      <!-- 200 -->
      <g transform="translate(280.363407 322.182437) scale(0.1 -0.1)">
       <defs>
        <path id="DejaVuSans-32" d="M 1228 531 
L 3431 531 
L 3431 0 
L 469 0 
L 469 531 
Q 828 903 1448 1529 
Q 2069 2156 2228 2338 
Q 2531 2678 2651 2914 
Q 2772 3150 2772 3378 
Q 2772 3750 2511 3984 
Q 2250 4219 1831 4219 
Q 1534 4219 1204 4116 
Q 875 4013 500 3803 
L 500 4441 
Q 881 4594 1212 4672 
Q 1544 4750 1819 4750 
Q 2544 4750 2975 4387 
Q 3406 4025 3406 3419 
Q 3406 3131 3298 2873 
Q 3191 2616 2906 2266 
Q 2828 2175 2409 1742 
Q 1991 1309 1228 531 
z
" transform="scale(0.015625)"/>
       </defs>
       <use xlink:href="#DejaVuSans-32"/>
       <use xlink:href="#DejaVuSans-30" x="63.623047"/>
       <use xlink:href="#DejaVuSans-30" x="127.246094"/>
      </g>
     </g>
    </g>
    <g id="xtick_8">
     <g id="line2d_8">
      <g>
       <use xlink:href="#m9b9a6a06dd" x="325.738595" y="307.584" style="stroke: #000000; stroke-width: 0.8"/>
      </g>
     </g>
     <g id="text_8">
      <!-- 233 -->
      <g transform="translate(316.194845 322.182437) scale(0.1 -0.1)">
       <use xlink:href="#DejaVuSans-32"/>
       <use xlink:href="#DejaVuSans-33" x="63.623047"/>
       <use xlink:href="#DejaVuSans-33" x="127.246094"/>
      </g>
     </g>
    </g>
    <g id="xtick_9">
     <g id="line2d_9">
      <g>
       <use xlink:href="#m9b9a6a06dd" x="361.570033" y="307.584" style="stroke: #000000; stroke-width: 0.8"/>
      </g>
     </g>
     <g id="text_9">
      <!-- 266 -->
      <g transform="translate(352.026283 322.182437) scale(0.1 -0.1)">
       <use xlink:href="#DejaVuSans-32"/>
       <use xlink:href="#DejaVuSans-36" x="63.623047"/>
       <use xlink:href="#DejaVuSans-36" x="127.246094"/>
      </g>
     </g>
    </g>
    <g id="xtick_10">
     <g id="line2d_10">
      <g>
       <use xlink:href="#m9b9a6a06dd" x="398.487273" y="307.584" style="stroke: #000000; stroke-width: 0.8"/>
      </g>
     </g>
     <g id="text_10">
      <!-- 300 -->
      <g transform="translate(388.943523 322.182437) scale(0.1 -0.1)">
       <use xlink:href="#DejaVuSans-33"/>
       <use xlink:href="#DejaVuSans-30" x="63.623047"/>
       <use xlink:href="#DejaVuSans-30" x="127.246094"/>
      </g>
     </g>
    </g>
    <g id="text_11">
     <!-- Epochs -->
     <g transform="translate(218.244375 335.860562) scale(0.1 -0.1)">
      <defs>
       <path id="DejaVuSans-45" d="M 628 4666 
L 3578 4666 
L 3578 4134 
L 1259 4134 
L 1259 2753 
L 3481 2753 
L 3481 2222 
L 1259 2222 
L 1259 531 
L 3634 531 
L 3634 0 
L 628 0 
L 628 4666 
z
" transform="scale(0.015625)"/>
       <path id="DejaVuSans-70" d="M 1159 525 
L 1159 -1331 
L 581 -1331 
L 581 3500 
L 1159 3500 
L 1159 2969 
Q 1341 3281 1617 3432 
Q 1894 3584 2278 3584 
Q 2916 3584 3314 3078 
Q 3713 2572 3713 1747 
Q 3713 922 3314 415 
Q 2916 -91 2278 -91 
Q 1894 -91 1617 61 
Q 1341 213 1159 525 
z
M 3116 1747 
Q 3116 2381 2855 2742 
Q 2594 3103 2138 3103 
Q 1681 3103 1420 2742 
Q 1159 2381 1159 1747 
Q 1159 1113 1420 752 
Q 1681 391 2138 391 
Q 2594 391 2855 752 
Q 3116 1113 3116 1747 
z
" transform="scale(0.015625)"/>
       <path id="DejaVuSans-6f" d="M 1959 3097 
Q 1497 3097 1228 2736 
Q 959 2375 959 1747 
Q 959 1119 1226 758 
Q 1494 397 1959 397 
Q 2419 397 2687 759 
Q 2956 1122 2956 1747 
Q 2956 2369 2687 2733 
Q 2419 3097 1959 3097 
z
M 1959 3584 
Q 2709 3584 3137 3096 
Q 3566 2609 3566 1747 
Q 3566 888 3137 398 
Q 2709 -91 1959 -91 
Q 1206 -91 779 398 
Q 353 888 353 1747 
Q 353 2609 779 3096 
Q 1206 3584 1959 3584 
z
" transform="scale(0.015625)"/>
       <path id="DejaVuSans-63" d="M 3122 3366 
L 3122 2828 
Q 2878 2963 2633 3030 
Q 2388 3097 2138 3097 
Q 1578 3097 1268 2742 
Q 959 2388 959 1747 
Q 959 1106 1268 751 
Q 1578 397 2138 397 
Q 2388 397 2633 464 
Q 2878 531 3122 666 
L 3122 134 
Q 2881 22 2623 -34 
Q 2366 -91 2075 -91 
Q 1284 -91 818 406 
Q 353 903 353 1747 
Q 353 2603 823 3093 
Q 1294 3584 2113 3584 
Q 2378 3584 2631 3529 
Q 2884 3475 3122 3366 
z
" transform="scale(0.015625)"/>
       <path id="DejaVuSans-68" d="M 3513 2113 
L 3513 0 
L 2938 0 
L 2938 2094 
Q 2938 2591 2744 2837 
Q 2550 3084 2163 3084 
Q 1697 3084 1428 2787 
Q 1159 2491 1159 1978 
L 1159 0 
L 581 0 
L 581 4863 
L 1159 4863 
L 1159 2956 
Q 1366 3272 1645 3428 
Q 1925 3584 2291 3584 
Q 2894 3584 3203 3211 
Q 3513 2838 3513 2113 
z
" transform="scale(0.015625)"/>
       <path id="DejaVuSans-73" d="M 2834 3397 
L 2834 2853 
Q 2591 2978 2328 3040 
Q 2066 3103 1784 3103 
Q 1356 3103 1142 2972 
Q 928 2841 928 2578 
Q 928 2378 1081 2264 
Q 1234 2150 1697 2047 
L 1894 2003 
Q 2506 1872 2764 1633 
Q 3022 1394 3022 966 
Q 3022 478 2636 193 
Q 2250 -91 1575 -91 
Q 1294 -91 989 -36 
Q 684 19 347 128 
L 347 722 
Q 666 556 975 473 
Q 1284 391 1588 391 
Q 1994 391 2212 530 
Q 2431 669 2431 922 
Q 2431 1156 2273 1281 
Q 2116 1406 1581 1522 
L 1381 1569 
Q 847 1681 609 1914 
Q 372 2147 372 2553 
Q 372 3047 722 3315 
Q 1072 3584 1716 3584 
Q 2034 3584 2315 3537 
Q 2597 3491 2834 3397 
z
" transform="scale(0.015625)"/>
      </defs>
      <use xlink:href="#DejaVuSans-45"/>
      <use xlink:href="#DejaVuSans-70" x="63.183594"/>
      <use xlink:href="#DejaVuSans-6f" x="126.660156"/>
      <use xlink:href="#DejaVuSans-63" x="187.841797"/>
      <use xlink:href="#DejaVuSans-68" x="242.822266"/>
      <use xlink:href="#DejaVuSans-73" x="306.201172"/>
     </g>
    </g>
   </g>
   <g id="matplotlib.axis_2">
    <g id="ytick_1">
     <g id="line2d_11">
      <defs>
       <path id="mf38306c184" d="M 0 0 
L -3.5 0 
" style="stroke: #000000; stroke-width: 0.8"/>
      </defs>
      <g>
       <use xlink:href="#mf38306c184" x="57.6" y="274.240129" style="stroke: #000000; stroke-width: 0.8"/>
      </g>
     </g>
     <g id="text_12">
      <!-- 10 -->
      <g transform="translate(37.875 278.039348) scale(0.1 -0.1)">
       <use xlink:href="#DejaVuSans-31"/>
       <use xlink:href="#DejaVuSans-30" x="63.623047"/>
      </g>
     </g>
    </g>
    <g id="ytick_2">
     <g id="line2d_12">
      <g>
       <use xlink:href="#mf38306c184" x="57.6" y="240.270712" style="stroke: #000000; stroke-width: 0.8"/>
      </g>
     </g>
     <g id="text_13">
      <!-- 20 -->
      <g transform="translate(37.875 244.069931) scale(0.1 -0.1)">
       <use xlink:href="#DejaVuSans-32"/>
       <use xlink:href="#DejaVuSans-30" x="63.623047"/>
      </g>
     </g>
    </g>
    <g id="ytick_3">
     <g id="line2d_13">
      <g>
       <use xlink:href="#mf38306c184" x="57.6" y="206.301295" style="stroke: #000000; stroke-width: 0.8"/>
      </g>
     </g>
     <g id="text_14">
      <!-- 30 -->
      <g transform="translate(37.875 210.100513) scale(0.1 -0.1)">
       <use xlink:href="#DejaVuSans-33"/>
       <use xlink:href="#DejaVuSans-30" x="63.623047"/>
      </g>
     </g>
    </g>
    <g id="ytick_4">
     <g id="line2d_14">
      <g>
       <use xlink:href="#mf38306c184" x="57.6" y="172.331877" style="stroke: #000000; stroke-width: 0.8"/>
      </g>
     </g>
     <g id="text_15">
      <!-- 40 -->
      <g transform="translate(37.875 176.131096) scale(0.1 -0.1)">
       <use xlink:href="#DejaVuSans-34"/>
       <use xlink:href="#DejaVuSans-30" x="63.623047"/>
      </g>
     </g>
    </g>
    <g id="ytick_5">
     <g id="line2d_15">
      <g>
       <use xlink:href="#mf38306c184" x="57.6" y="138.36246" style="stroke: #000000; stroke-width: 0.8"/>
      </g>
     </g>
     <g id="text_16">
      <!-- 50 -->
      <g transform="translate(37.875 142.161678) scale(0.1 -0.1)">
       <defs>
        <path id="DejaVuSans-35" d="M 691 4666 
L 3169 4666 
L 3169 4134 
L 1269 4134 
L 1269 2991 
Q 1406 3038 1543 3061 
Q 1681 3084 1819 3084 
Q 2600 3084 3056 2656 
Q 3513 2228 3513 1497 
Q 3513 744 3044 326 
Q 2575 -91 1722 -91 
Q 1428 -91 1123 -41 
Q 819 9 494 109 
L 494 744 
Q 775 591 1075 516 
Q 1375 441 1709 441 
Q 2250 441 2565 725 
Q 2881 1009 2881 1497 
Q 2881 1984 2565 2268 
Q 2250 2553 1709 2553 
Q 1456 2553 1204 2497 
Q 953 2441 691 2322 
L 691 4666 
z
" transform="scale(0.015625)"/>
       </defs>
       <use xlink:href="#DejaVuSans-35"/>
       <use xlink:href="#DejaVuSans-30" x="63.623047"/>
      </g>
     </g>
    </g>
    <g id="ytick_6">
     <g id="line2d_16">
      <g>
       <use xlink:href="#mf38306c184" x="57.6" y="104.393042" style="stroke: #000000; stroke-width: 0.8"/>
      </g>
     </g>
     <g id="text_17">
      <!-- 60 -->
      <g transform="translate(37.875 108.192261) scale(0.1 -0.1)">
       <use xlink:href="#DejaVuSans-36"/>
       <use xlink:href="#DejaVuSans-30" x="63.623047"/>
      </g>
     </g>
    </g>
    <g id="ytick_7">
     <g id="line2d_17">
      <g>
       <use xlink:href="#mf38306c184" x="57.6" y="70.423625" style="stroke: #000000; stroke-width: 0.8"/>
      </g>
     </g>
     <g id="text_18">
      <!-- 70 -->
      <g transform="translate(37.875 74.222844) scale(0.1 -0.1)">
       <use xlink:href="#DejaVuSans-37"/>
       <use xlink:href="#DejaVuSans-30" x="63.623047"/>
      </g>
     </g>
    </g>
    <g id="text_19">
     <!-- Accuracy -->
     <g transform="translate(31.795312 197.356125) rotate(-90) scale(0.1 -0.1)">
      <defs>
       <path id="DejaVuSans-41" d="M 2188 4044 
L 1331 1722 
L 3047 1722 
L 2188 4044 
z
M 1831 4666 
L 2547 4666 
L 4325 0 
L 3669 0 
L 3244 1197 
L 1141 1197 
L 716 0 
L 50 0 
L 1831 4666 
z
" transform="scale(0.015625)"/>
       <path id="DejaVuSans-75" d="M 544 1381 
L 544 3500 
L 1119 3500 
L 1119 1403 
Q 1119 906 1312 657 
Q 1506 409 1894 409 
Q 2359 409 2629 706 
Q 2900 1003 2900 1516 
L 2900 3500 
L 3475 3500 
L 3475 0 
L 2900 0 
L 2900 538 
Q 2691 219 2414 64 
Q 2138 -91 1772 -91 
Q 1169 -91 856 284 
Q 544 659 544 1381 
z
M 1991 3584 
L 1991 3584 
z
" transform="scale(0.015625)"/>
       <path id="DejaVuSans-72" d="M 2631 2963 
Q 2534 3019 2420 3045 
Q 2306 3072 2169 3072 
Q 1681 3072 1420 2755 
Q 1159 2438 1159 1844 
L 1159 0 
L 581 0 
L 581 3500 
L 1159 3500 
L 1159 2956 
Q 1341 3275 1631 3429 
Q 1922 3584 2338 3584 
Q 2397 3584 2469 3576 
Q 2541 3569 2628 3553 
L 2631 2963 
z
" transform="scale(0.015625)"/>
       <path id="DejaVuSans-61" d="M 2194 1759 
Q 1497 1759 1228 1600 
Q 959 1441 959 1056 
Q 959 750 1161 570 
Q 1363 391 1709 391 
Q 2188 391 2477 730 
Q 2766 1069 2766 1631 
L 2766 1759 
L 2194 1759 
z
M 3341 1997 
L 3341 0 
L 2766 0 
L 2766 531 
Q 2569 213 2275 61 
Q 1981 -91 1556 -91 
Q 1019 -91 701 211 
Q 384 513 384 1019 
Q 384 1609 779 1909 
Q 1175 2209 1959 2209 
L 2766 2209 
L 2766 2266 
Q 2766 2663 2505 2880 
Q 2244 3097 1772 3097 
Q 1472 3097 1187 3025 
Q 903 2953 641 2809 
L 641 3341 
Q 956 3463 1253 3523 
Q 1550 3584 1831 3584 
Q 2591 3584 2966 3190 
Q 3341 2797 3341 1997 
z
" transform="scale(0.015625)"/>
       <path id="DejaVuSans-79" d="M 2059 -325 
Q 1816 -950 1584 -1140 
Q 1353 -1331 966 -1331 
L 506 -1331 
L 506 -850 
L 844 -850 
Q 1081 -850 1212 -737 
Q 1344 -625 1503 -206 
L 1606 56 
L 191 3500 
L 800 3500 
L 1894 763 
L 2988 3500 
L 3597 3500 
L 2059 -325 
z
" transform="scale(0.015625)"/>
      </defs>
      <use xlink:href="#DejaVuSans-41"/>
      <use xlink:href="#DejaVuSans-63" x="66.658203"/>
      <use xlink:href="#DejaVuSans-63" x="121.638672"/>
      <use xlink:href="#DejaVuSans-75" x="176.619141"/>
      <use xlink:href="#DejaVuSans-72" x="239.998047"/>
      <use xlink:href="#DejaVuSans-61" x="281.111328"/>
      <use xlink:href="#DejaVuSans-63" x="342.390625"/>
      <use xlink:href="#DejaVuSans-79" x="397.371094"/>
     </g>
    </g>
   </g>
   <g id="line2d_18">
    <path d="M 73.832727 295.488 
L 76.00433 255.838896 
L 77.090131 239.424873 
L 78.175932 226.489319 
L 80.347534 205.774769 
L 82.519137 190.67876 
L 83.604938 183.205488 
L 84.690739 177.916449 
L 85.77654 171.574359 
L 86.862341 165.911657 
L 87.948142 161.842121 
L 89.033943 157.174723 
L 90.119745 153.747209 
L 91.205546 149.280231 
L 92.291347 146.634013 
L 93.377148 146.450578 
L 94.462949 145.61493 
L 95.54875 176.003971 
L 96.634552 174.376836 
L 97.720353 169.85211 
L 98.806154 167.450472 
L 99.891955 163.710439 
L 103.149358 154.705146 
L 104.23516 152.126868 
L 105.320961 150.173626 
L 106.406762 146.087105 
L 107.492563 144.286726 
L 108.578364 142.187416 
L 109.664165 138.753108 
L 110.749967 137.367156 
L 111.835768 134.282733 
L 114.00737 130.247166 
L 115.093171 128.803466 
L 116.178972 125.671485 
L 117.264773 122.919963 
L 118.350575 121.340385 
L 119.436376 118.779091 
L 120.522177 116.700162 
L 122.693779 111.825551 
L 123.77958 109.91647 
L 125.951183 106.621436 
L 127.036984 104.48476 
L 128.122785 102.01858 
L 129.208586 101.631329 
L 131.380189 98.088318 
L 132.46599 96.882404 
L 134.637592 95.999199 
L 135.723393 94.983514 
L 136.809194 94.606453 
L 137.894995 93.804775 
L 138.980797 131.911667 
L 140.066598 135.675479 
L 141.152399 135.182922 
L 142.2382 133.84113 
L 143.324001 132.883193 
L 144.409802 133.355368 
L 145.495604 132.016973 
L 146.581405 131.745217 
L 147.667206 130.016174 
L 148.753007 129.435297 
L 149.838808 127.505834 
L 150.924609 128.232779 
L 152.01041 126.282935 
L 154.182013 124.248167 
L 155.267814 123.568778 
L 156.353615 123.864312 
L 157.439416 121.010881 
L 158.525217 120.33489 
L 159.611019 119.913669 
L 160.69682 118.582068 
L 161.782621 118.327297 
L 162.868422 117.158749 
L 163.954223 115.715049 
L 165.040024 115.52482 
L 166.125825 114.90318 
L 167.211627 113.734632 
L 168.297428 112.810664 
L 169.383229 112.34868 
L 170.46903 110.796278 
L 171.554831 108.836242 
L 172.640632 108.489754 
L 173.726434 107.796778 
L 174.812235 106.624833 
L 175.898036 106.356475 
L 178.069638 103.309418 
L 179.155439 103.261861 
L 180.24124 101.264459 
L 181.327042 99.773202 
L 182.412843 98.699768 
L 183.498644 97.086221 
L 184.584445 97.235686 
L 185.670246 95.768207 
L 186.756047 93.78779 
L 187.841849 92.969127 
L 188.92765 92.490158 
L 190.013451 90.295734 
L 193.270854 87.408334 
L 194.356656 85.655512 
L 195.442457 84.551506 
L 196.528258 83.671698 
L 197.614059 82.435211 
L 198.69986 81.830555 
L 199.785661 79.449299 
L 200.871462 79.897695 
L 201.957264 77.241287 
L 203.043065 77.271859 
L 204.128866 74.19423 
L 205.214667 74.428619 
L 206.300468 73.202323 
L 207.386269 72.465187 
L 208.472071 70.797289 
L 209.557872 70.246984 
L 210.643673 69.924274 
L 211.729474 68.949352 
L 212.815275 67.312026 
L 213.901076 67.254278 
L 214.986877 67.794392 
L 216.072679 66.228402 
L 217.15848 65.481075 
L 218.244281 65.025884 
L 219.330082 65.922677 
L 220.415883 64.485771 
L 221.501684 64.091726 
L 222.587486 63.330811 
L 223.673287 64.231 
L 224.759088 64.35329 
L 225.844889 114.23738 
L 226.93069 120.277142 
L 228.016491 121.194316 
L 229.102292 121.69027 
L 230.188094 120.00199 
L 231.273895 120.732332 
L 232.359696 119.886494 
L 233.445497 118.327297 
L 234.531298 119.05764 
L 235.617099 119.061037 
L 237.788702 116.18043 
L 238.874503 117.257261 
L 239.960304 116.068331 
L 241.046105 115.575775 
L 242.131906 114.464975 
L 244.303509 113.007687 
L 245.38931 113.517228 
L 246.475111 112.572878 
L 247.560912 112.518527 
L 248.646713 113.119786 
L 249.732514 112.562687 
L 252.989918 110.623033 
L 254.075719 111.051048 
L 255.16152 110.419217 
L 256.247321 109.654905 
L 257.333123 109.199715 
L 259.504725 108.863418 
L 260.590526 107.260061 
L 261.676327 106.9951 
L 262.762128 107.215901 
L 263.847929 106.835443 
L 264.933731 106.13907 
L 266.019532 105.993002 
L 268.191134 105.109797 
L 269.276935 105.955636 
L 270.362736 104.24018 
L 271.448538 104.474569 
L 272.534339 104.342088 
L 273.62014 102.433007 
L 274.705941 103.075029 
L 275.791742 102.67419 
L 276.877543 101.539611 
L 277.963344 100.761712 
L 279.049146 101.427512 
L 280.134947 100.371063 
L 281.220748 99.13118 
L 282.306549 100.398239 
L 284.478151 99.188928 
L 285.563953 98.428013 
L 286.649754 98.981714 
L 287.735555 96.3321 
L 288.821356 96.389848 
L 289.907157 96.25397 
L 290.992958 96.563092 
L 292.07876 96.121489 
L 293.164561 94.878209 
L 294.250362 94.779697 
L 295.336163 93.366569 
L 296.421964 93.825157 
L 297.507765 94.113897 
L 298.593566 91.807373 
L 299.679368 91.409931 
L 300.765169 90.686382 
L 301.85097 91.657908 
L 302.936771 90.24478 
L 304.022572 89.181537 
L 305.108373 89.612949 
L 306.194175 89.674094 
L 307.279976 88.2236 
L 310.537379 87.36757 
L 311.62318 85.771008 
L 312.708981 85.777802 
L 313.794783 85.42452 
L 314.880584 84.293338 
L 315.966385 84.038567 
L 317.052186 83.155363 
L 318.137987 82.876813 
L 319.223788 82.414829 
L 320.30959 80.974526 
L 321.395391 80.468382 
L 322.481192 79.201322 
L 323.566993 79.208116 
L 324.652794 79.360979 
L 325.738595 78.056553 
L 326.824396 77.696477 
L 327.910198 77.77121 
L 328.995999 76.364876 
L 330.0818 75.634534 
L 331.167601 75.186137 
L 332.253402 73.810376 
L 334.425005 72.614652 
L 335.510806 72.896599 
L 336.596607 71.089426 
L 337.682408 71.626142 
L 339.85401 69.635534 
L 340.939811 68.945955 
L 342.025613 68.402445 
L 343.111414 67.050462 
L 344.197215 66.788897 
L 345.283016 66.038173 
L 346.368817 65.834357 
L 347.454618 64.920579 
L 348.54042 63.40894 
L 349.626221 62.824666 
L 350.712022 63.19833 
L 351.797823 62.872223 
L 352.883624 61.166959 
L 353.969425 60.195433 
L 356.141028 59.434518 
L 357.226829 57.807383 
L 358.31263 58.051963 
L 359.398431 57.84475 
L 360.484232 56.808682 
L 361.570033 56.740744 
L 362.655835 55.850745 
L 363.741636 54.193037 
L 364.827437 54.35609 
L 365.913238 54.063953 
L 366.999039 53.568 
L 369.170642 55.371776 
L 370.256443 56.981926 
L 371.342244 59.441312 
L 372.428045 60.344899 
L 373.513846 61.06505 
L 374.599647 61.63234 
L 375.685448 61.231501 
L 376.77125 61.126195 
L 377.857051 61.652721 
L 378.942852 61.734248 
L 380.028653 61.564401 
L 381.114454 60.918982 
L 383.286057 61.588179 
L 384.371858 61.156768 
L 385.457659 61.662912 
L 386.54346 61.411538 
L 387.629261 61.686691 
L 388.715062 60.589479 
L 389.800863 60.786501 
L 390.886665 61.741042 
L 391.972466 61.785202 
L 393.058267 61.608561 
L 394.144068 62.070545 
L 395.229869 61.520241 
L 396.31567 61.418332 
L 397.401472 61.927874 
L 398.487273 62.593674 
L 398.487273 62.593674 
" clip-path="url(#p9640ac14c5)" style="fill: none; stroke: #1f77b4; stroke-width: 1.5; stroke-linecap: square"/>
   </g>
   <g id="line2d_19">
    <path d="M 73.832727 283.989352 
L 76.00433 232.933318 
L 77.090131 227.905844 
L 78.175932 201.681454 
L 79.261733 195.600928 
L 80.347534 180.450568 
L 81.433335 176.442177 
L 82.519137 163.601737 
L 83.604938 155.075413 
L 85.77654 145.767793 
L 86.862341 140.026961 
L 87.948142 132.180026 
L 89.033943 130.583463 
L 91.205546 122.226986 
L 92.291347 120.188821 
L 93.377148 118.558289 
L 94.462949 118.082718 
L 95.54875 161.529602 
L 96.634552 153.037248 
L 97.720353 157.860905 
L 98.806154 149.810153 
L 99.891955 144.884588 
L 100.977756 138.532307 
L 102.063557 141.521616 
L 103.149358 131.093004 
L 104.23516 134.591854 
L 105.320961 127.050644 
L 106.406762 125.318203 
L 107.492563 125.352173 
L 108.578364 121.751415 
L 109.664165 116.554094 
L 110.749967 119.611341 
L 111.835768 117.33539 
L 112.921569 110.473568 
L 115.093171 110.33769 
L 116.178972 102.219 
L 117.264773 103.204113 
L 118.350575 105.072431 
L 119.436376 97.463281 
L 120.522177 95.051453 
L 121.607978 92.198021 
L 122.693779 93.658706 
L 123.77958 91.077031 
L 124.865382 85.641924 
L 125.951183 85.200321 
L 127.036984 85.200321 
L 128.122785 82.822462 
L 129.208586 82.109105 
L 130.294387 80.104909 
L 131.380189 78.84804 
L 132.46599 78.644224 
L 133.551791 78.168652 
L 134.637592 77.862927 
L 135.723393 77.183539 
L 136.809194 76.673998 
L 137.894995 77.285447 
L 138.980797 124.808662 
L 140.066598 121.717445 
L 141.152399 128.579268 
L 142.2382 118.048748 
L 143.324001 123.144161 
L 144.409802 120.358669 
L 145.495604 123.75561 
L 146.581405 116.010583 
L 147.667206 119.305617 
L 148.753007 123.280038 
L 149.838808 115.297225 
L 150.924609 111.934253 
L 152.01041 112.375855 
L 153.096212 115.093409 
L 154.182013 114.617837 
L 155.267814 109.012883 
L 156.353615 106.193421 
L 157.439416 110.269752 
L 158.525217 109.658302 
L 159.611019 100.146865 
L 160.69682 103.747623 
L 161.782621 101.267856 
L 162.868422 108.503342 
L 163.954223 98.923966 
L 165.040024 96.036566 
L 166.125825 100.316712 
L 167.211627 103.441899 
L 168.297428 95.628933 
L 169.383229 97.769006 
L 170.46903 96.138474 
L 171.554831 91.994205 
L 172.640632 95.76481 
L 173.726434 91.043061 
L 174.812235 94.440003 
L 175.898036 96.206413 
L 176.983837 86.830854 
L 178.069638 92.164052 
L 179.155439 89.004896 
L 180.24124 85.370169 
L 181.327042 86.728945 
L 182.412843 82.652615 
L 183.498644 84.588872 
L 184.584445 83.026279 
L 185.670246 80.784297 
L 186.756047 79.153765 
L 187.841849 80.444603 
L 188.92765 80.920175 
L 190.013451 77.353386 
L 191.099252 78.678193 
L 192.185053 76.572089 
L 193.270854 73.65072 
L 194.356656 74.839649 
L 195.442457 73.820567 
L 196.528258 71.204922 
L 197.614059 70.899197 
L 198.69986 71.918279 
L 199.785661 68.928971 
L 200.871462 71.069044 
L 201.957264 69.914084 
L 203.043065 66.211417 
L 204.128866 67.060653 
L 205.214667 65.939662 
L 206.300468 65.46409 
L 207.386269 64.003405 
L 208.472071 65.226304 
L 209.557872 62.610659 
L 210.643673 62.814475 
L 211.729474 61.931271 
L 212.815275 62.236995 
L 213.901076 61.761423 
L 214.986877 61.931271 
L 217.15848 59.281656 
L 218.244281 59.689289 
L 220.415883 59.961044 
L 221.501684 59.587381 
L 222.587486 59.519442 
L 223.673287 58.772115 
L 224.759088 59.383564 
L 225.844889 114.515929 
L 226.93069 106.87281 
L 228.016491 110.33769 
L 229.102292 119.067831 
L 230.188094 112.002192 
L 231.273895 110.065935 
L 232.359696 113.734632 
L 233.445497 107.212504 
L 234.531298 106.091513 
L 235.617099 108.333495 
L 236.702901 101.267856 
L 237.788702 110.33769 
L 238.874503 101.64152 
L 239.960304 100.622437 
L 241.046105 105.276247 
L 242.131906 105.004492 
L 243.217708 103.475868 
L 244.303509 98.414425 
L 245.38931 108.537311 
L 246.475111 103.238082 
L 247.560912 103.781593 
L 248.646713 103.849532 
L 249.732514 102.286938 
L 250.818316 99.569385 
L 251.904117 104.019379 
L 252.989918 96.648015 
L 254.075719 98.856027 
L 255.16152 96.580076 
L 256.247321 95.79878 
L 257.333123 100.316712 
L 258.418924 99.093813 
L 259.504725 96.002596 
L 260.590526 95.493055 
L 261.676327 101.879305 
L 262.762128 98.040761 
L 263.847929 98.550303 
L 264.933731 96.580076 
L 266.019532 92.84344 
L 267.105333 94.779697 
L 268.191134 91.552603 
L 269.276935 95.051453 
L 270.362736 91.926266 
L 271.448538 91.009092 
L 272.534339 89.786193 
L 273.62014 93.726645 
L 274.705941 93.183135 
L 275.791742 96.172443 
L 276.877543 93.794584 
L 277.963344 90.295734 
L 279.049146 93.386951 
L 280.134947 90.295734 
L 281.220748 90.975122 
L 282.306549 92.809471 
L 283.39235 86.049557 
L 284.478151 89.582376 
L 285.563953 88.393447 
L 286.649754 83.671698 
L 287.735555 86.525129 
L 288.821356 82.652615 
L 289.907157 87.068639 
L 290.992958 84.996505 
L 292.07876 86.830854 
L 293.164561 82.414829 
L 294.250362 86.796884 
L 295.336163 82.550707 
L 296.421964 82.754523 
L 297.507765 83.773606 
L 298.593566 86.728945 
L 299.679368 80.750328 
L 300.765169 82.211013 
L 301.85097 82.211013 
L 302.936771 80.988114 
L 304.022572 79.493459 
L 305.108373 79.153765 
L 306.194175 79.289643 
L 307.279976 83.264065 
L 308.365777 75.722854 
L 309.451578 79.561398 
L 310.537379 75.994609 
L 311.62318 81.395747 
L 312.708981 74.092322 
L 313.794783 75.043466 
L 314.880584 74.873619 
L 315.966385 76.300334 
L 317.052186 74.80568 
L 318.137987 74.330108 
L 319.223788 72.597668 
L 320.30959 74.2282 
L 321.395391 72.224004 
L 322.481192 71.85034 
L 323.566993 70.321717 
L 324.652794 69.608359 
L 325.738595 70.389656 
L 326.824396 69.574389 
L 327.910198 72.190035 
L 328.995999 69.778206 
L 330.0818 68.521338 
L 331.167601 69.370573 
L 332.253402 67.977827 
L 333.339203 67.332408 
L 334.425005 68.657215 
L 335.510806 66.61905 
L 336.596607 66.007601 
L 337.682408 64.411038 
L 338.768209 64.88661 
L 339.85401 65.939662 
L 340.939811 65.599968 
L 342.025613 62.984323 
L 343.111414 63.69768 
L 344.197215 62.203026 
L 345.283016 63.663711 
L 346.368817 61.591576 
L 347.454618 60.606463 
L 348.54042 60.130891 
L 349.626221 59.927075 
L 350.712022 61.863332 
L 351.797823 61.38776 
L 352.883624 60.470586 
L 353.969425 59.927075 
L 355.055227 60.81028 
L 356.141028 59.247687 
L 358.31263 58.262573 
L 359.398431 58.024788 
L 360.484232 57.243491 
L 361.570033 57.005705 
L 362.655835 57.345399 
L 363.741636 56.462194 
L 365.913238 56.496164 
L 366.999039 55.748837 
L 368.08484 56.394256 
L 369.170642 55.612959 
L 370.256443 56.801889 
L 371.342244 60.470586 
L 372.428045 60.81028 
L 373.513846 60.266769 
L 374.599647 61.625546 
L 375.685448 62.203026 
L 376.77125 64.105313 
L 377.857051 62.406842 
L 378.942852 62.169056 
L 380.028653 62.304934 
L 381.114454 65.124396 
L 382.200255 61.795393 
L 383.286057 61.591576 
L 384.371858 63.290047 
L 385.457659 62.372873 
L 386.54346 60.742341 
L 387.629261 62.916384 
L 388.715062 62.508751 
L 389.800863 63.1202 
L 390.886665 62.101118 
L 391.972466 62.236995 
L 394.144068 61.795393 
L 395.229869 62.848445 
L 396.31567 65.124396 
L 397.401472 62.440812 
L 398.487273 64.614855 
L 398.487273 64.614855 
" clip-path="url(#p9640ac14c5)" style="fill: none; stroke: #ff7f0e; stroke-width: 1.5; stroke-linecap: square"/>
   </g>
   <g id="line2d_20">
    <path d="M 73.832727 294.879608 
L 74.918528 279.183359 
L 76.00433 272.155087 
L 77.090131 266.977808 
L 78.175932 256.552593 
L 79.261733 253.764723 
L 80.347534 245.354575 
L 81.433335 244.768603 
L 82.519137 243.058582 
L 83.604938 233.921828 
L 84.690739 232.422757 
L 85.77654 230.361154 
L 86.862341 227.43265 
L 87.948142 225.535118 
L 89.033943 219.771867 
L 90.119745 215.789293 
L 91.205546 214.500833 
L 92.291347 215.227099 
L 93.377148 212.977984 
L 94.462949 212.368912 
L 95.54875 243.456704 
L 97.720353 228.533599 
L 98.806154 233.148684 
L 99.891955 223.684125 
L 100.977756 224.012269 
L 102.063557 229.868937 
L 103.149358 218.483407 
L 104.23516 226.589189 
L 105.320961 221.458788 
L 106.406762 218.506846 
L 107.492563 222.044421 
L 108.578364 219.139357 
L 109.664165 209.018848 
L 111.835768 217.265264 
L 112.921569 206.652538 
L 114.00737 201.920259 
L 115.093171 202.201526 
L 116.178972 196.251103 
L 117.264773 201.826843 
L 118.350575 200.069605 
L 119.436376 196.53203 
L 120.522177 197.094563 
L 121.607978 193.791038 
L 122.693779 197.773952 
L 123.77958 188.520003 
L 124.865382 187.536249 
L 125.951183 184.93555 
L 127.036984 186.973715 
L 128.122785 186.130594 
L 129.208586 184.326478 
L 130.294387 184.232723 
L 131.380189 178.985127 
L 132.46599 179.945782 
L 133.551791 177.602912 
L 134.637592 178.961688 
L 135.723393 178.024812 
L 136.809194 177.485717 
L 137.894995 178.001373 
L 138.980797 212.650179 
L 140.066598 215.83617 
L 141.152399 208.151948 
L 142.2382 207.449121 
L 143.324001 220.029695 
L 144.409802 213.165495 
L 145.495604 220.451255 
L 146.581405 207.917899 
L 147.667206 214.430516 
L 148.753007 217.804019 
L 149.838808 216.304609 
L 150.924609 209.674797 
L 152.01041 209.62792 
L 153.096212 203.162181 
L 154.182013 213.118617 
L 155.267814 209.815431 
L 156.353615 205.247224 
L 157.439416 208.714142 
L 158.525217 211.478573 
L 159.611019 196.251103 
L 160.69682 202.599647 
L 161.782621 197.843929 
L 162.868422 199.015534 
L 163.954223 195.220131 
L 165.040024 197.37549 
L 166.125825 196.297981 
L 167.211627 200.678677 
L 168.297428 198.24239 
L 169.383229 197.024247 
L 170.46903 202.904353 
L 171.554831 197.563002 
L 172.640632 206.090344 
L 173.726434 191.214118 
L 174.812235 189.035319 
L 175.898036 201.990576 
L 176.983837 188.80127 
L 178.069638 196.040153 
L 179.155439 186.669349 
L 180.24124 194.493865 
L 181.327042 192.572894 
L 182.412843 189.550975 
L 183.498644 181.234242 
L 184.584445 183.975235 
L 185.670246 184.06899 
L 186.756047 182.054264 
L 187.841849 190.136608 
L 188.92765 188.660636 
L 190.013451 182.991141 
L 191.099252 179.523882 
L 192.185053 178.680761 
L 193.270854 179.125761 
L 194.356656 177.556034 
L 195.442457 180.414221 
L 196.528258 182.803969 
L 197.614059 175.307258 
L 198.69986 177.743545 
L 199.785661 176.876646 
L 200.871462 177.977934 
L 201.957264 176.150379 
L 203.043065 172.729999 
L 204.128866 173.409387 
L 205.214667 173.222216 
L 206.300468 171.137173 
L 207.386269 172.144366 
L 208.472071 172.144366 
L 209.557872 168.161791 
L 210.643673 169.122447 
L 211.729474 168.372742 
L 212.815275 167.365209 
L 213.901076 170.949662 
L 214.986877 168.18523 
L 216.072679 168.536814 
L 217.15848 168.208669 
L 218.244281 168.419619 
L 219.330082 166.709259 
L 220.415883 167.271453 
L 221.501684 166.967087 
L 223.673287 166.592065 
L 224.759088 166.358015 
L 225.844889 206.277856 
L 226.93069 207.91777 
L 228.016491 204.778528 
L 229.102292 204.356838 
L 230.188094 208.620586 
L 231.273895 201.10046 
L 232.359696 201.381586 
L 233.445497 195.85277 
L 234.531298 202.271819 
L 235.617099 209.41711 
L 236.702901 205.059654 
L 237.788702 210.119926 
L 238.874503 199.507411 
L 239.960304 196.087042 
L 241.046105 198.125207 
L 242.131906 207.214955 
L 243.217708 201.873557 
L 244.303509 198.148634 
L 245.38931 206.652702 
L 246.475111 203.372897 
L 247.560912 201.990693 
L 248.646713 196.110469 
L 249.732514 197.93779 
L 250.818316 197.680091 
L 251.904117 200.022809 
L 252.989918 204.052285 
L 254.075719 199.460557 
L 255.16152 202.529518 
L 256.247321 200.795906 
L 257.333123 200.444498 
L 258.418924 194.77512 
L 259.504725 198.476615 
L 260.590526 198.289198 
L 261.676327 197.961217 
L 262.762128 193.088363 
L 263.847929 201.077032 
L 264.933731 202.295246 
L 266.019532 191.471887 
L 267.105333 190.792498 
L 268.191134 195.712207 
L 269.276935 193.392916 
L 270.362736 195.267091 
L 271.448538 196.415023 
L 272.534339 187.465838 
L 273.62014 194.540848 
L 274.705941 197.141265 
L 275.791742 194.962537 
L 276.877543 203.138625 
L 277.963344 188.192081 
L 279.049146 194.493994 
L 280.134947 186.177343 
L 281.220748 203.138625 
L 282.306549 187.8641 
L 283.39235 187.091003 
L 284.478151 185.825935 
L 285.563953 187.793819 
L 286.649754 195.290518 
L 287.735555 197.164693 
L 288.821356 181.023363 
L 289.907157 193.135217 
L 290.992958 185.216829 
L 292.07876 183.272372 
L 293.164561 183.975188 
L 294.250362 186.435042 
L 295.336163 192.36212 
L 296.421964 193.674042 
L 297.507765 185.966498 
L 298.593566 192.19813 
L 299.679368 188.543489 
L 300.765169 180.179984 
L 301.85097 188.871469 
L 302.936771 186.78645 
L 304.022572 189.667994 
L 305.108373 187.37213 
L 306.194175 187.957809 
L 307.279976 187.957809 
L 308.365777 184.139178 
L 309.451578 179.430314 
L 310.537379 181.468479 
L 311.62318 184.560867 
L 312.708981 174.88544 
L 313.794783 185.310537 
L 314.880584 187.418984 
L 315.966385 182.569557 
L 317.052186 183.272372 
L 318.137987 176.38478 
L 319.223788 171.769625 
L 320.30959 177.977829 
L 321.395391 183.248945 
L 322.481192 181.468479 
L 323.566993 174.88544 
L 324.652794 178.63379 
L 325.738595 179.430314 
L 326.824396 176.572198 
L 327.910198 189.03546 
L 328.995999 179.430314 
L 330.0818 178.727499 
L 331.167601 178.422945 
L 332.253402 174.791732 
L 333.339203 173.081547 
L 334.425005 177.954401 
L 335.510806 178.727499 
L 336.596607 176.197363 
L 337.682408 169.356625 
L 338.768209 171.816479 
L 339.85401 175.166566 
L 340.939811 168.606955 
L 343.111414 170.574838 
L 344.197215 173.901499 
L 345.283016 173.690654 
L 346.368817 169.848596 
L 347.454618 169.778314 
L 348.54042 166.4048 
L 349.626221 170.153149 
L 350.712022 175.072858 
L 351.797823 168.700664 
L 352.883624 166.73278 
L 353.969425 170.036013 
L 356.141028 166.662499 
L 357.226829 165.420858 
L 358.31263 170.949673 
L 359.398431 165.772266 
L 360.484232 163.054712 
L 361.570033 169.473761 
L 362.655835 167.037333 
L 363.741636 166.615644 
L 364.827437 166.756207 
L 365.913238 163.452974 
L 366.999039 163.593537 
L 368.08484 166.826489 
L 369.170642 161.719363 
L 370.256443 174.252906 
L 371.342244 166.709353 
L 372.428045 173.80779 
L 373.513846 171.371363 
L 374.599647 170.270285 
L 375.685448 173.784363 
L 376.77125 174.979149 
L 377.857051 174.323188 
L 378.942852 166.357945 
L 380.028653 177.228159 
L 381.114454 170.949673 
L 382.200255 172.238168 
L 383.286057 174.791732 
L 384.371858 169.872023 
L 385.457659 172.659858 
L 386.54346 173.339246 
L 387.629261 174.88544 
L 388.715062 171.254227 
L 390.886665 165.912829 
L 391.972466 170.80911 
L 393.058267 168.161838 
L 394.144068 175.283702 
L 395.229869 170.48113 
L 396.31567 178.563508 
L 397.401472 176.665906 
L 398.487273 179.922285 
L 398.487273 179.922285 
" clip-path="url(#p9640ac14c5)" style="fill: none; stroke: #2ca02c; stroke-width: 1.5; stroke-linecap: square"/>
   </g>
   <g id="line2d_21">
    <path d="M 368.08484 56.15647 
L 369.170642 58.907992 
L 370.256443 58.46639 
L 371.342244 60.2328 
L 372.428045 63.459894 
L 373.513846 71.612555 
L 374.599647 66.075539 
L 375.685448 70.049961 
L 376.77125 71.001105 
L 377.857051 75.043466 
L 378.942852 83.773606 
L 380.028653 79.357582 
L 381.114454 89.174743 
L 382.200255 108.163648 
L 383.286057 108.02777 
L 384.371858 110.983109 
L 385.457659 104.291134 
L 386.54346 100.996101 
L 387.629261 110.575476 
L 388.715062 112.239978 
L 389.800863 125.793775 
L 390.886665 115.127378 
L 391.972466 135.644906 
L 393.058267 135.135365 
L 394.144068 163.907462 
L 395.229869 142.880392 
L 396.31567 158.472355 
L 397.401472 163.363951 
L 398.487273 184.39102 
L 398.487273 184.39102 
" clip-path="url(#p9640ac14c5)" style="fill: none; stroke: #d62728; stroke-width: 1.5; stroke-linecap: square"/>
   </g>
   <g id="line2d_22">
    <path d="M 368.08484 162.633023 
L 369.170642 170.223431 
L 370.256443 163.499829 
L 371.342244 178.352664 
L 372.428045 166.381372 
L 373.513846 187.653256 
L 374.599647 174.393469 
L 375.685448 171.675916 
L 376.77125 172.214741 
L 377.857051 175.869382 
L 378.942852 192.854091 
L 380.028653 183.45979 
L 381.114454 192.080994 
L 383.286057 211.572411 
L 384.371858 206.746411 
L 385.457659 203.255761 
L 386.54346 198.26577 
L 387.629261 206.277867 
L 388.715062 209.862227 
L 389.800863 216.562401 
L 390.886665 215.297333 
L 391.972466 221.763236 
L 393.058267 232.235188 
L 394.144068 238.115411 
L 395.229869 227.854304 
L 396.31567 235.749265 
L 397.401472 241.53578 
L 398.487273 251.77346 
L 398.487273 251.77346 
" clip-path="url(#p9640ac14c5)" style="fill: none; stroke: #9467bd; stroke-width: 1.5; stroke-linecap: square"/>
   </g>
   <g id="patch_3">
    <path d="M 57.6 307.584 
L 57.6 41.472 
" style="fill: none; stroke: #000000; stroke-width: 0.8; stroke-linejoin: miter; stroke-linecap: square"/>
   </g>
   <g id="patch_4">
    <path d="M 414.72 307.584 
L 414.72 41.472 
" style="fill: none; stroke: #000000; stroke-width: 0.8; stroke-linejoin: miter; stroke-linecap: square"/>
   </g>
   <g id="patch_5">
    <path d="M 57.6 307.584 
L 414.72 307.584 
" style="fill: none; stroke: #000000; stroke-width: 0.8; stroke-linejoin: miter; stroke-linecap: square"/>
   </g>
   <g id="patch_6">
    <path d="M 57.6 41.472 
L 414.72 41.472 
" style="fill: none; stroke: #000000; stroke-width: 0.8; stroke-linejoin: miter; stroke-linecap: square"/>
   </g>
   <g id="text_20">
    <!-- Learning Curves -->
    <g transform="translate(187.37625 35.472) scale(0.12 -0.12)">
     <defs>
      <path id="DejaVuSans-4c" d="M 628 4666 
L 1259 4666 
L 1259 531 
L 3531 531 
L 3531 0 
L 628 0 
L 628 4666 
z
" transform="scale(0.015625)"/>
      <path id="DejaVuSans-65" d="M 3597 1894 
L 3597 1613 
L 953 1613 
Q 991 1019 1311 708 
Q 1631 397 2203 397 
Q 2534 397 2845 478 
Q 3156 559 3463 722 
L 3463 178 
Q 3153 47 2828 -22 
Q 2503 -91 2169 -91 
Q 1331 -91 842 396 
Q 353 884 353 1716 
Q 353 2575 817 3079 
Q 1281 3584 2069 3584 
Q 2775 3584 3186 3129 
Q 3597 2675 3597 1894 
z
M 3022 2063 
Q 3016 2534 2758 2815 
Q 2500 3097 2075 3097 
Q 1594 3097 1305 2825 
Q 1016 2553 972 2059 
L 3022 2063 
z
" transform="scale(0.015625)"/>
      <path id="DejaVuSans-6e" d="M 3513 2113 
L 3513 0 
L 2938 0 
L 2938 2094 
Q 2938 2591 2744 2837 
Q 2550 3084 2163 3084 
Q 1697 3084 1428 2787 
Q 1159 2491 1159 1978 
L 1159 0 
L 581 0 
L 581 3500 
L 1159 3500 
L 1159 2956 
Q 1366 3272 1645 3428 
Q 1925 3584 2291 3584 
Q 2894 3584 3203 3211 
Q 3513 2838 3513 2113 
z
" transform="scale(0.015625)"/>
      <path id="DejaVuSans-69" d="M 603 3500 
L 1178 3500 
L 1178 0 
L 603 0 
L 603 3500 
z
M 603 4863 
L 1178 4863 
L 1178 4134 
L 603 4134 
L 603 4863 
z
" transform="scale(0.015625)"/>
      <path id="DejaVuSans-67" d="M 2906 1791 
Q 2906 2416 2648 2759 
Q 2391 3103 1925 3103 
Q 1463 3103 1205 2759 
Q 947 2416 947 1791 
Q 947 1169 1205 825 
Q 1463 481 1925 481 
Q 2391 481 2648 825 
Q 2906 1169 2906 1791 
z
M 3481 434 
Q 3481 -459 3084 -895 
Q 2688 -1331 1869 -1331 
Q 1566 -1331 1297 -1286 
Q 1028 -1241 775 -1147 
L 775 -588 
Q 1028 -725 1275 -790 
Q 1522 -856 1778 -856 
Q 2344 -856 2625 -561 
Q 2906 -266 2906 331 
L 2906 616 
Q 2728 306 2450 153 
Q 2172 0 1784 0 
Q 1141 0 747 490 
Q 353 981 353 1791 
Q 353 2603 747 3093 
Q 1141 3584 1784 3584 
Q 2172 3584 2450 3431 
Q 2728 3278 2906 2969 
L 2906 3500 
L 3481 3500 
L 3481 434 
z
" transform="scale(0.015625)"/>
      <path id="DejaVuSans-20" transform="scale(0.015625)"/>
      <path id="DejaVuSans-43" d="M 4122 4306 
L 4122 3641 
Q 3803 3938 3442 4084 
Q 3081 4231 2675 4231 
Q 1875 4231 1450 3742 
Q 1025 3253 1025 2328 
Q 1025 1406 1450 917 
Q 1875 428 2675 428 
Q 3081 428 3442 575 
Q 3803 722 4122 1019 
L 4122 359 
Q 3791 134 3420 21 
Q 3050 -91 2638 -91 
Q 1578 -91 968 557 
Q 359 1206 359 2328 
Q 359 3453 968 4101 
Q 1578 4750 2638 4750 
Q 3056 4750 3426 4639 
Q 3797 4528 4122 4306 
z
" transform="scale(0.015625)"/>
      <path id="DejaVuSans-76" d="M 191 3500 
L 800 3500 
L 1894 563 
L 2988 3500 
L 3597 3500 
L 2284 0 
L 1503 0 
L 191 3500 
z
" transform="scale(0.015625)"/>
     </defs>
     <use xlink:href="#DejaVuSans-4c"/>
     <use xlink:href="#DejaVuSans-65" x="53.962891"/>
     <use xlink:href="#DejaVuSans-61" x="115.486328"/>
     <use xlink:href="#DejaVuSans-72" x="176.765625"/>
     <use xlink:href="#DejaVuSans-6e" x="216.128906"/>
     <use xlink:href="#DejaVuSans-69" x="279.507812"/>
     <use xlink:href="#DejaVuSans-6e" x="307.291016"/>
     <use xlink:href="#DejaVuSans-67" x="370.669922"/>
     <use xlink:href="#DejaVuSans-20" x="434.146484"/>
     <use xlink:href="#DejaVuSans-43" x="465.933594"/>
     <use xlink:href="#DejaVuSans-75" x="535.757812"/>
     <use xlink:href="#DejaVuSans-72" x="599.136719"/>
     <use xlink:href="#DejaVuSans-76" x="640.25"/>
     <use xlink:href="#DejaVuSans-65" x="699.429688"/>
     <use xlink:href="#DejaVuSans-73" x="760.953125"/>
    </g>
   </g>
   <g id="legend_1">
    <g id="patch_7">
     <path d="M 139.394375 302.584 
L 332.925625 302.584 
Q 334.925625 302.584 334.925625 300.584 
L 334.925625 228.193375 
Q 334.925625 226.193375 332.925625 226.193375 
L 139.394375 226.193375 
Q 137.394375 226.193375 137.394375 228.193375 
L 137.394375 300.584 
Q 137.394375 302.584 139.394375 302.584 
z
" style="fill: #ffffff; opacity: 0.8; stroke: #cccccc; stroke-linejoin: miter"/>
    </g>
    <g id="line2d_23">
     <path d="M 141.394375 234.291812 
L 151.394375 234.291812 
L 161.394375 234.291812 
" style="fill: none; stroke: #1f77b4; stroke-width: 1.5; stroke-linecap: square"/>
    </g>
    <g id="text_21">
     <!-- Train Accuracy -->
     <g transform="translate(169.394375 237.791812) scale(0.1 -0.1)">
      <defs>
       <path id="DejaVuSans-54" d="M -19 4666 
L 3928 4666 
L 3928 4134 
L 2272 4134 
L 2272 0 
L 1638 0 
L 1638 4134 
L -19 4134 
L -19 4666 
z
" transform="scale(0.015625)"/>
      </defs>
      <use xlink:href="#DejaVuSans-54"/>
      <use xlink:href="#DejaVuSans-72" x="46.333984"/>
      <use xlink:href="#DejaVuSans-61" x="87.447266"/>
      <use xlink:href="#DejaVuSans-69" x="148.726562"/>
      <use xlink:href="#DejaVuSans-6e" x="176.509766"/>
      <use xlink:href="#DejaVuSans-20" x="239.888672"/>
      <use xlink:href="#DejaVuSans-41" x="271.675781"/>
      <use xlink:href="#DejaVuSans-63" x="338.333984"/>
      <use xlink:href="#DejaVuSans-63" x="393.314453"/>
      <use xlink:href="#DejaVuSans-75" x="448.294922"/>
      <use xlink:href="#DejaVuSans-72" x="511.673828"/>
      <use xlink:href="#DejaVuSans-61" x="552.787109"/>
      <use xlink:href="#DejaVuSans-63" x="614.066406"/>
      <use xlink:href="#DejaVuSans-79" x="669.046875"/>
     </g>
    </g>
    <g id="line2d_24">
     <path d="M 141.394375 248.969937 
L 151.394375 248.969937 
L 161.394375 248.969937 
" style="fill: none; stroke: #ff7f0e; stroke-width: 1.5; stroke-linecap: square"/>
    </g>
    <g id="text_22">
     <!-- Validation Accuracy -->
     <g transform="translate(169.394375 252.469937) scale(0.1 -0.1)">
      <defs>
       <path id="DejaVuSans-56" d="M 1831 0 
L 50 4666 
L 709 4666 
L 2188 738 
L 3669 4666 
L 4325 4666 
L 2547 0 
L 1831 0 
z
" transform="scale(0.015625)"/>
       <path id="DejaVuSans-6c" d="M 603 4863 
L 1178 4863 
L 1178 0 
L 603 0 
L 603 4863 
z
" transform="scale(0.015625)"/>
       <path id="DejaVuSans-64" d="M 2906 2969 
L 2906 4863 
L 3481 4863 
L 3481 0 
L 2906 0 
L 2906 525 
Q 2725 213 2448 61 
Q 2172 -91 1784 -91 
Q 1150 -91 751 415 
Q 353 922 353 1747 
Q 353 2572 751 3078 
Q 1150 3584 1784 3584 
Q 2172 3584 2448 3432 
Q 2725 3281 2906 2969 
z
M 947 1747 
Q 947 1113 1208 752 
Q 1469 391 1925 391 
Q 2381 391 2643 752 
Q 2906 1113 2906 1747 
Q 2906 2381 2643 2742 
Q 2381 3103 1925 3103 
Q 1469 3103 1208 2742 
Q 947 2381 947 1747 
z
" transform="scale(0.015625)"/>
       <path id="DejaVuSans-74" d="M 1172 4494 
L 1172 3500 
L 2356 3500 
L 2356 3053 
L 1172 3053 
L 1172 1153 
Q 1172 725 1289 603 
Q 1406 481 1766 481 
L 2356 481 
L 2356 0 
L 1766 0 
Q 1100 0 847 248 
Q 594 497 594 1153 
L 594 3053 
L 172 3053 
L 172 3500 
L 594 3500 
L 594 4494 
L 1172 4494 
z
" transform="scale(0.015625)"/>
      </defs>
      <use xlink:href="#DejaVuSans-56"/>
      <use xlink:href="#DejaVuSans-61" x="60.658203"/>
      <use xlink:href="#DejaVuSans-6c" x="121.9375"/>
      <use xlink:href="#DejaVuSans-69" x="149.720703"/>
      <use xlink:href="#DejaVuSans-64" x="177.503906"/>
      <use xlink:href="#DejaVuSans-61" x="240.980469"/>
      <use xlink:href="#DejaVuSans-74" x="302.259766"/>
      <use xlink:href="#DejaVuSans-69" x="341.46875"/>
      <use xlink:href="#DejaVuSans-6f" x="369.251953"/>
      <use xlink:href="#DejaVuSans-6e" x="430.433594"/>
      <use xlink:href="#DejaVuSans-20" x="493.8125"/>
      <use xlink:href="#DejaVuSans-41" x="525.599609"/>
      <use xlink:href="#DejaVuSans-63" x="592.257812"/>
      <use xlink:href="#DejaVuSans-63" x="647.238281"/>
      <use xlink:href="#DejaVuSans-75" x="702.21875"/>
      <use xlink:href="#DejaVuSans-72" x="765.597656"/>
      <use xlink:href="#DejaVuSans-61" x="806.710938"/>
      <use xlink:href="#DejaVuSans-63" x="867.990234"/>
      <use xlink:href="#DejaVuSans-79" x="922.970703"/>
     </g>
    </g>
    <g id="line2d_25">
     <path d="M 141.394375 263.648062 
L 151.394375 263.648062 
L 161.394375 263.648062 
" style="fill: none; stroke: #2ca02c; stroke-width: 1.5; stroke-linecap: square"/>
    </g>
    <g id="text_23">
     <!-- Robust Validation Accuracy -->
     <g transform="translate(169.394375 267.148062) scale(0.1 -0.1)">
      <defs>
       <path id="DejaVuSans-52" d="M 2841 2188 
Q 3044 2119 3236 1894 
Q 3428 1669 3622 1275 
L 4263 0 
L 3584 0 
L 2988 1197 
Q 2756 1666 2539 1819 
Q 2322 1972 1947 1972 
L 1259 1972 
L 1259 0 
L 628 0 
L 628 4666 
L 2053 4666 
Q 2853 4666 3247 4331 
Q 3641 3997 3641 3322 
Q 3641 2881 3436 2590 
Q 3231 2300 2841 2188 
z
M 1259 4147 
L 1259 2491 
L 2053 2491 
Q 2509 2491 2742 2702 
Q 2975 2913 2975 3322 
Q 2975 3731 2742 3939 
Q 2509 4147 2053 4147 
L 1259 4147 
z
" transform="scale(0.015625)"/>
       <path id="DejaVuSans-62" d="M 3116 1747 
Q 3116 2381 2855 2742 
Q 2594 3103 2138 3103 
Q 1681 3103 1420 2742 
Q 1159 2381 1159 1747 
Q 1159 1113 1420 752 
Q 1681 391 2138 391 
Q 2594 391 2855 752 
Q 3116 1113 3116 1747 
z
M 1159 2969 
Q 1341 3281 1617 3432 
Q 1894 3584 2278 3584 
Q 2916 3584 3314 3078 
Q 3713 2572 3713 1747 
Q 3713 922 3314 415 
Q 2916 -91 2278 -91 
Q 1894 -91 1617 61 
Q 1341 213 1159 525 
L 1159 0 
L 581 0 
L 581 4863 
L 1159 4863 
L 1159 2969 
z
" transform="scale(0.015625)"/>
      </defs>
      <use xlink:href="#DejaVuSans-52"/>
      <use xlink:href="#DejaVuSans-6f" x="64.982422"/>
      <use xlink:href="#DejaVuSans-62" x="126.164062"/>
      <use xlink:href="#DejaVuSans-75" x="189.640625"/>
      <use xlink:href="#DejaVuSans-73" x="253.019531"/>
      <use xlink:href="#DejaVuSans-74" x="305.119141"/>
      <use xlink:href="#DejaVuSans-20" x="344.328125"/>
      <use xlink:href="#DejaVuSans-56" x="376.115234"/>
      <use xlink:href="#DejaVuSans-61" x="436.773438"/>
      <use xlink:href="#DejaVuSans-6c" x="498.052734"/>
      <use xlink:href="#DejaVuSans-69" x="525.835938"/>
      <use xlink:href="#DejaVuSans-64" x="553.619141"/>
      <use xlink:href="#DejaVuSans-61" x="617.095703"/>
      <use xlink:href="#DejaVuSans-74" x="678.375"/>
      <use xlink:href="#DejaVuSans-69" x="717.583984"/>
      <use xlink:href="#DejaVuSans-6f" x="745.367188"/>
      <use xlink:href="#DejaVuSans-6e" x="806.548828"/>
      <use xlink:href="#DejaVuSans-20" x="869.927734"/>
      <use xlink:href="#DejaVuSans-41" x="901.714844"/>
      <use xlink:href="#DejaVuSans-63" x="968.373047"/>
      <use xlink:href="#DejaVuSans-63" x="1023.353516"/>
      <use xlink:href="#DejaVuSans-75" x="1078.333984"/>
      <use xlink:href="#DejaVuSans-72" x="1141.712891"/>
      <use xlink:href="#DejaVuSans-61" x="1182.826172"/>
      <use xlink:href="#DejaVuSans-63" x="1244.105469"/>
      <use xlink:href="#DejaVuSans-79" x="1299.085938"/>
     </g>
    </g>
    <g id="line2d_26">
     <path d="M 141.394375 278.326188 
L 151.394375 278.326188 
L 161.394375 278.326188 
" style="fill: none; stroke: #d62728; stroke-width: 1.5; stroke-linecap: square"/>
    </g>
    <g id="text_24">
     <!-- SWA Validation Accuracy -->
     <g transform="translate(169.394375 281.826188) scale(0.1 -0.1)">
      <defs>
       <path id="DejaVuSans-53" d="M 3425 4513 
L 3425 3897 
Q 3066 4069 2747 4153 
Q 2428 4238 2131 4238 
Q 1616 4238 1336 4038 
Q 1056 3838 1056 3469 
Q 1056 3159 1242 3001 
Q 1428 2844 1947 2747 
L 2328 2669 
Q 3034 2534 3370 2195 
Q 3706 1856 3706 1288 
Q 3706 609 3251 259 
Q 2797 -91 1919 -91 
Q 1588 -91 1214 -16 
Q 841 59 441 206 
L 441 856 
Q 825 641 1194 531 
Q 1563 422 1919 422 
Q 2459 422 2753 634 
Q 3047 847 3047 1241 
Q 3047 1584 2836 1778 
Q 2625 1972 2144 2069 
L 1759 2144 
Q 1053 2284 737 2584 
Q 422 2884 422 3419 
Q 422 4038 858 4394 
Q 1294 4750 2059 4750 
Q 2388 4750 2728 4690 
Q 3069 4631 3425 4513 
z
" transform="scale(0.015625)"/>
       <path id="DejaVuSans-57" d="M 213 4666 
L 850 4666 
L 1831 722 
L 2809 4666 
L 3519 4666 
L 4500 722 
L 5478 4666 
L 6119 4666 
L 4947 0 
L 4153 0 
L 3169 4050 
L 2175 0 
L 1381 0 
L 213 4666 
z
" transform="scale(0.015625)"/>
      </defs>
      <use xlink:href="#DejaVuSans-53"/>
      <use xlink:href="#DejaVuSans-57" x="63.476562"/>
      <use xlink:href="#DejaVuSans-41" x="156.853516"/>
      <use xlink:href="#DejaVuSans-20" x="225.261719"/>
      <use xlink:href="#DejaVuSans-56" x="257.048828"/>
      <use xlink:href="#DejaVuSans-61" x="317.707031"/>
      <use xlink:href="#DejaVuSans-6c" x="378.986328"/>
      <use xlink:href="#DejaVuSans-69" x="406.769531"/>
      <use xlink:href="#DejaVuSans-64" x="434.552734"/>
      <use xlink:href="#DejaVuSans-61" x="498.029297"/>
      <use xlink:href="#DejaVuSans-74" x="559.308594"/>
      <use xlink:href="#DejaVuSans-69" x="598.517578"/>
      <use xlink:href="#DejaVuSans-6f" x="626.300781"/>
      <use xlink:href="#DejaVuSans-6e" x="687.482422"/>
      <use xlink:href="#DejaVuSans-20" x="750.861328"/>
      <use xlink:href="#DejaVuSans-41" x="782.648438"/>
      <use xlink:href="#DejaVuSans-63" x="849.306641"/>
      <use xlink:href="#DejaVuSans-63" x="904.287109"/>
      <use xlink:href="#DejaVuSans-75" x="959.267578"/>
      <use xlink:href="#DejaVuSans-72" x="1022.646484"/>
      <use xlink:href="#DejaVuSans-61" x="1063.759766"/>
      <use xlink:href="#DejaVuSans-63" x="1125.039062"/>
      <use xlink:href="#DejaVuSans-79" x="1180.019531"/>
     </g>
    </g>
    <g id="line2d_27">
     <path d="M 141.394375 293.004312 
L 151.394375 293.004312 
L 161.394375 293.004312 
" style="fill: none; stroke: #9467bd; stroke-width: 1.5; stroke-linecap: square"/>
    </g>
    <g id="text_25">
     <!-- SWA Robust Validation Accuracy -->
     <g transform="translate(169.394375 296.504312) scale(0.1 -0.1)">
      <use xlink:href="#DejaVuSans-53"/>
      <use xlink:href="#DejaVuSans-57" x="63.476562"/>
      <use xlink:href="#DejaVuSans-41" x="156.853516"/>
      <use xlink:href="#DejaVuSans-20" x="225.261719"/>
      <use xlink:href="#DejaVuSans-52" x="257.048828"/>
      <use xlink:href="#DejaVuSans-6f" x="322.03125"/>
      <use xlink:href="#DejaVuSans-62" x="383.212891"/>
      <use xlink:href="#DejaVuSans-75" x="446.689453"/>
      <use xlink:href="#DejaVuSans-73" x="510.068359"/>
      <use xlink:href="#DejaVuSans-74" x="562.167969"/>
      <use xlink:href="#DejaVuSans-20" x="601.376953"/>
      <use xlink:href="#DejaVuSans-56" x="633.164062"/>
      <use xlink:href="#DejaVuSans-61" x="693.822266"/>
      <use xlink:href="#DejaVuSans-6c" x="755.101562"/>
      <use xlink:href="#DejaVuSans-69" x="782.884766"/>
      <use xlink:href="#DejaVuSans-64" x="810.667969"/>
      <use xlink:href="#DejaVuSans-61" x="874.144531"/>
      <use xlink:href="#DejaVuSans-74" x="935.423828"/>
      <use xlink:href="#DejaVuSans-69" x="974.632812"/>
      <use xlink:href="#DejaVuSans-6f" x="1002.416016"/>
      <use xlink:href="#DejaVuSans-6e" x="1063.597656"/>
      <use xlink:href="#DejaVuSans-20" x="1126.976562"/>
      <use xlink:href="#DejaVuSans-41" x="1158.763672"/>
      <use xlink:href="#DejaVuSans-63" x="1225.421875"/>
      <use xlink:href="#DejaVuSans-63" x="1280.402344"/>
      <use xlink:href="#DejaVuSans-75" x="1335.382812"/>
      <use xlink:href="#DejaVuSans-72" x="1398.761719"/>
      <use xlink:href="#DejaVuSans-61" x="1439.875"/>
      <use xlink:href="#DejaVuSans-63" x="1501.154297"/>
      <use xlink:href="#DejaVuSans-79" x="1556.134766"/>
     </g>
    </g>
   </g>
  </g>
 </g>
 <defs>
  <clipPath id="p9640ac14c5">
   <rect x="57.6" y="41.472" width="357.12" height="266.112"/>
  </clipPath>
 </defs>
</svg>
