<?xml version="1.0" encoding="utf-8" standalone="no"?>
<!DOCTYPE svg PUBLIC "-//W3C//DTD SVG 1.1//EN"
  "http://www.w3.org/Graphics/SVG/1.1/DTD/svg11.dtd">
<svg xmlns:xlink="http://www.w3.org/1999/xlink" width="460.8pt" height="345.6pt" viewBox="0 0 460.8 345.6" xmlns="http://www.w3.org/2000/svg" version="1.1">
 <metadata>
  <rdf:RDF xmlns:dc="http://purl.org/dc/elements/1.1/" xmlns:cc="http://creativecommons.org/ns#" xmlns:rdf="http://www.w3.org/1999/02/22-rdf-syntax-ns#">
   <cc:Work>
    <dc:type rdf:resource="http://purl.org/dc/dcmitype/StillImage"/>
    <dc:date>2025-07-16T23:48:49.241570</dc:date>
    <dc:format>image/svg+xml</dc:format>
    <dc:creator>
     <cc:Agent>
      <dc:title>Matplotlib v3.9.1, https://matplotlib.org/</dc:title>
     </cc:Agent>
    </dc:creator>
   </cc:Work>
  </rdf:RDF>
 </metadata>
 <defs>
  <style type="text/css">*{stroke-linejoin: round; stroke-linecap: butt}</style>
 </defs>
 <g id="figure_1">
  <g id="patch_1">
   <path d="M 0 345.6 
L 460.8 345.6 
L 460.8 0 
L 0 0 
z
" style="fill: #ffffff"/>
  </g>
  <g id="axes_1">
   <g id="patch_2">
    <path d="M 57.6 307.584 
L 414.72 307.584 
L 414.72 41.472 
L 57.6 41.472 
z
" style="fill: #ffffff"/>
   </g>
   <g id="matplotlib.axis_1">
    <g id="xtick_1">
     <g id="line2d_1">
      <defs>
       <path id="ma64b69be1e" d="M 0 0 
L 0 3.5 
" style="stroke: #000000; stroke-width: 0.8"/>
      </defs>
      <g>
       <use xlink:href="#ma64b69be1e" x="73.832727" y="307.584" style="stroke: #000000; stroke-width: 0.8"/>
      </g>
     </g>
     <g id="text_1">
      <!-- 1 -->
      <g transform="translate(70.651477 322.182437) scale(0.1 -0.1)">
       <defs>
        <path id="DejaVuSans-31" d="M 794 531 
L 1825 531 
L 1825 4091 
L 703 3866 
L 703 4441 
L 1819 4666 
L 2450 4666 
L 2450 531 
L 3481 531 
L 3481 0 
L 794 0 
L 794 531 
z
" transform="scale(0.015625)"/>
       </defs>
       <use xlink:href="#DejaVuSans-31"/>
      </g>
     </g>
    </g>
    <g id="xtick_2">
     <g id="line2d_2">
      <g>
       <use xlink:href="#ma64b69be1e" x="109.664165" y="307.584" style="stroke: #000000; stroke-width: 0.8"/>
      </g>
     </g>
     <g id="text_2">
      <!-- 34 -->
      <g transform="translate(103.301665 322.182437) scale(0.1 -0.1)">
       <defs>
        <path id="DejaVuSans-33" d="M 2597 2516 
Q 3050 2419 3304 2112 
Q 3559 1806 3559 1356 
Q 3559 666 3084 287 
Q 2609 -91 1734 -91 
Q 1441 -91 1130 -33 
Q 819 25 488 141 
L 488 750 
Q 750 597 1062 519 
Q 1375 441 1716 441 
Q 2309 441 2620 675 
Q 2931 909 2931 1356 
Q 2931 1769 2642 2001 
Q 2353 2234 1838 2234 
L 1294 2234 
L 1294 2753 
L 1863 2753 
Q 2328 2753 2575 2939 
Q 2822 3125 2822 3475 
Q 2822 3834 2567 4026 
Q 2313 4219 1838 4219 
Q 1578 4219 1281 4162 
Q 984 4106 628 3988 
L 628 4550 
Q 988 4650 1302 4700 
Q 1616 4750 1894 4750 
Q 2613 4750 3031 4423 
Q 3450 4097 3450 3541 
Q 3450 3153 3228 2886 
Q 3006 2619 2597 2516 
z
" transform="scale(0.015625)"/>
        <path id="DejaVuSans-34" d="M 2419 4116 
L 825 1625 
L 2419 1625 
L 2419 4116 
z
M 2253 4666 
L 3047 4666 
L 3047 1625 
L 3713 1625 
L 3713 1100 
L 3047 1100 
L 3047 0 
L 2419 0 
L 2419 1100 
L 313 1100 
L 313 1709 
L 2253 4666 
z
" transform="scale(0.015625)"/>
       </defs>
       <use xlink:href="#DejaVuSans-33"/>
       <use xlink:href="#DejaVuSans-34" x="63.623047"/>
      </g>
     </g>
    </g>
    <g id="xtick_3">
     <g id="line2d_3">
      <g>
       <use xlink:href="#ma64b69be1e" x="145.495604" y="307.584" style="stroke: #000000; stroke-width: 0.8"/>
      </g>
     </g>
     <g id="text_3">
      <!-- 67 -->
      <g transform="translate(139.133104 322.182437) scale(0.1 -0.1)">
       <defs>
        <path id="DejaVuSans-36" d="M 2113 2584 
Q 1688 2584 1439 2293 
Q 1191 2003 1191 1497 
Q 1191 994 1439 701 
Q 1688 409 2113 409 
Q 2538 409 2786 701 
Q 3034 994 3034 1497 
Q 3034 2003 2786 2293 
Q 2538 2584 2113 2584 
z
M 3366 4563 
L 3366 3988 
Q 3128 4100 2886 4159 
Q 2644 4219 2406 4219 
Q 1781 4219 1451 3797 
Q 1122 3375 1075 2522 
Q 1259 2794 1537 2939 
Q 1816 3084 2150 3084 
Q 2853 3084 3261 2657 
Q 3669 2231 3669 1497 
Q 3669 778 3244 343 
Q 2819 -91 2113 -91 
Q 1303 -91 875 529 
Q 447 1150 447 2328 
Q 447 3434 972 4092 
Q 1497 4750 2381 4750 
Q 2619 4750 2861 4703 
Q 3103 4656 3366 4563 
z
" transform="scale(0.015625)"/>
        <path id="DejaVuSans-37" d="M 525 4666 
L 3525 4666 
L 3525 4397 
L 1831 0 
L 1172 0 
L 2766 4134 
L 525 4134 
L 525 4666 
z
" transform="scale(0.015625)"/>
       </defs>
       <use xlink:href="#DejaVuSans-36"/>
       <use xlink:href="#DejaVuSans-37" x="63.623047"/>
      </g>
     </g>
    </g>
    <g id="xtick_4">
     <g id="line2d_4">
      <g>
       <use xlink:href="#ma64b69be1e" x="181.327042" y="307.584" style="stroke: #000000; stroke-width: 0.8"/>
      </g>
     </g>
     <g id="text_4">
      <!-- 100 -->
      <g transform="translate(171.783292 322.182437) scale(0.1 -0.1)">
       <defs>
        <path id="DejaVuSans-30" d="M 2034 4250 
Q 1547 4250 1301 3770 
Q 1056 3291 1056 2328 
Q 1056 1369 1301 889 
Q 1547 409 2034 409 
Q 2525 409 2770 889 
Q 3016 1369 3016 2328 
Q 3016 3291 2770 3770 
Q 2525 4250 2034 4250 
z
M 2034 4750 
Q 2819 4750 3233 4129 
Q 3647 3509 3647 2328 
Q 3647 1150 3233 529 
Q 2819 -91 2034 -91 
Q 1250 -91 836 529 
Q 422 1150 422 2328 
Q 422 3509 836 4129 
Q 1250 4750 2034 4750 
z
" transform="scale(0.015625)"/>
       </defs>
       <use xlink:href="#DejaVuSans-31"/>
       <use xlink:href="#DejaVuSans-30" x="63.623047"/>
       <use xlink:href="#DejaVuSans-30" x="127.246094"/>
      </g>
     </g>
    </g>
    <g id="xtick_5">
     <g id="line2d_5">
      <g>
       <use xlink:href="#ma64b69be1e" x="217.15848" y="307.584" style="stroke: #000000; stroke-width: 0.8"/>
      </g>
     </g>
     <g id="text_5">
      <!-- 133 -->
      <g transform="translate(207.61473 322.182437) scale(0.1 -0.1)">
       <use xlink:href="#DejaVuSans-31"/>
       <use xlink:href="#DejaVuSans-33" x="63.623047"/>
       <use xlink:href="#DejaVuSans-33" x="127.246094"/>
      </g>
     </g>
    </g>
    <g id="xtick_6">
     <g id="line2d_6">
      <g>
       <use xlink:href="#ma64b69be1e" x="254.075719" y="307.584" style="stroke: #000000; stroke-width: 0.8"/>
      </g>
     </g>
     <g id="text_6">
      <!-- 167 -->
      <g transform="translate(244.531969 322.182437) scale(0.1 -0.1)">
       <use xlink:href="#DejaVuSans-31"/>
       <use xlink:href="#DejaVuSans-36" x="63.623047"/>
       <use xlink:href="#DejaVuSans-37" x="127.246094"/>
      </g>
     </g>
    </g>
    <g id="xtick_7">
     <g id="line2d_7">
      <g>
       <use xlink:href="#ma64b69be1e" x="289.907157" y="307.584" style="stroke: #000000; stroke-width: 0.8"/>
      </g>
     </g>
     <g id="text_7">
      <!-- 200 -->
      <g transform="translate(280.363407 322.182437) scale(0.1 -0.1)">
       <defs>
        <path id="DejaVuSans-32" d="M 1228 531 
L 3431 531 
L 3431 0 
L 469 0 
L 469 531 
Q 828 903 1448 1529 
Q 2069 2156 2228 2338 
Q 2531 2678 2651 2914 
Q 2772 3150 2772 3378 
Q 2772 3750 2511 3984 
Q 2250 4219 1831 4219 
Q 1534 4219 1204 4116 
Q 875 4013 500 3803 
L 500 4441 
Q 881 4594 1212 4672 
Q 1544 4750 1819 4750 
Q 2544 4750 2975 4387 
Q 3406 4025 3406 3419 
Q 3406 3131 3298 2873 
Q 3191 2616 2906 2266 
Q 2828 2175 2409 1742 
Q 1991 1309 1228 531 
z
" transform="scale(0.015625)"/>
       </defs>
       <use xlink:href="#DejaVuSans-32"/>
       <use xlink:href="#DejaVuSans-30" x="63.623047"/>
       <use xlink:href="#DejaVuSans-30" x="127.246094"/>
      </g>
     </g>
    </g>
    <g id="xtick_8">
     <g id="line2d_8">
      <g>
       <use xlink:href="#ma64b69be1e" x="325.738595" y="307.584" style="stroke: #000000; stroke-width: 0.8"/>
      </g>
     </g>
     <g id="text_8">
      <!-- 233 -->
      <g transform="translate(316.194845 322.182437) scale(0.1 -0.1)">
       <use xlink:href="#DejaVuSans-32"/>
       <use xlink:href="#DejaVuSans-33" x="63.623047"/>
       <use xlink:href="#DejaVuSans-33" x="127.246094"/>
      </g>
     </g>
    </g>
    <g id="xtick_9">
     <g id="line2d_9">
      <g>
       <use xlink:href="#ma64b69be1e" x="361.570033" y="307.584" style="stroke: #000000; stroke-width: 0.8"/>
      </g>
     </g>
     <g id="text_9">
      <!-- 266 -->
      <g transform="translate(352.026283 322.182437) scale(0.1 -0.1)">
       <use xlink:href="#DejaVuSans-32"/>
       <use xlink:href="#DejaVuSans-36" x="63.623047"/>
       <use xlink:href="#DejaVuSans-36" x="127.246094"/>
      </g>
     </g>
    </g>
    <g id="xtick_10">
     <g id="line2d_10">
      <g>
       <use xlink:href="#ma64b69be1e" x="398.487273" y="307.584" style="stroke: #000000; stroke-width: 0.8"/>
      </g>
     </g>
     <g id="text_10">
      <!-- 300 -->
      <g transform="translate(388.943523 322.182437) scale(0.1 -0.1)">
       <use xlink:href="#DejaVuSans-33"/>
       <use xlink:href="#DejaVuSans-30" x="63.623047"/>
       <use xlink:href="#DejaVuSans-30" x="127.246094"/>
      </g>
     </g>
    </g>
    <g id="text_11">
     <!-- Epochs -->
     <g transform="translate(218.244375 335.860562) scale(0.1 -0.1)">
      <defs>
       <path id="DejaVuSans-45" d="M 628 4666 
L 3578 4666 
L 3578 4134 
L 1259 4134 
L 1259 2753 
L 3481 2753 
L 3481 2222 
L 1259 2222 
L 1259 531 
L 3634 531 
L 3634 0 
L 628 0 
L 628 4666 
z
" transform="scale(0.015625)"/>
       <path id="DejaVuSans-70" d="M 1159 525 
L 1159 -1331 
L 581 -1331 
L 581 3500 
L 1159 3500 
L 1159 2969 
Q 1341 3281 1617 3432 
Q 1894 3584 2278 3584 
Q 2916 3584 3314 3078 
Q 3713 2572 3713 1747 
Q 3713 922 3314 415 
Q 2916 -91 2278 -91 
Q 1894 -91 1617 61 
Q 1341 213 1159 525 
z
M 3116 1747 
Q 3116 2381 2855 2742 
Q 2594 3103 2138 3103 
Q 1681 3103 1420 2742 
Q 1159 2381 1159 1747 
Q 1159 1113 1420 752 
Q 1681 391 2138 391 
Q 2594 391 2855 752 
Q 3116 1113 3116 1747 
z
" transform="scale(0.015625)"/>
       <path id="DejaVuSans-6f" d="M 1959 3097 
Q 1497 3097 1228 2736 
Q 959 2375 959 1747 
Q 959 1119 1226 758 
Q 1494 397 1959 397 
Q 2419 397 2687 759 
Q 2956 1122 2956 1747 
Q 2956 2369 2687 2733 
Q 2419 3097 1959 3097 
z
M 1959 3584 
Q 2709 3584 3137 3096 
Q 3566 2609 3566 1747 
Q 3566 888 3137 398 
Q 2709 -91 1959 -91 
Q 1206 -91 779 398 
Q 353 888 353 1747 
Q 353 2609 779 3096 
Q 1206 3584 1959 3584 
z
" transform="scale(0.015625)"/>
       <path id="DejaVuSans-63" d="M 3122 3366 
L 3122 2828 
Q 2878 2963 2633 3030 
Q 2388 3097 2138 3097 
Q 1578 3097 1268 2742 
Q 959 2388 959 1747 
Q 959 1106 1268 751 
Q 1578 397 2138 397 
Q 2388 397 2633 464 
Q 2878 531 3122 666 
L 3122 134 
Q 2881 22 2623 -34 
Q 2366 -91 2075 -91 
Q 1284 -91 818 406 
Q 353 903 353 1747 
Q 353 2603 823 3093 
Q 1294 3584 2113 3584 
Q 2378 3584 2631 3529 
Q 2884 3475 3122 3366 
z
" transform="scale(0.015625)"/>
       <path id="DejaVuSans-68" d="M 3513 2113 
L 3513 0 
L 2938 0 
L 2938 2094 
Q 2938 2591 2744 2837 
Q 2550 3084 2163 3084 
Q 1697 3084 1428 2787 
Q 1159 2491 1159 1978 
L 1159 0 
L 581 0 
L 581 4863 
L 1159 4863 
L 1159 2956 
Q 1366 3272 1645 3428 
Q 1925 3584 2291 3584 
Q 2894 3584 3203 3211 
Q 3513 2838 3513 2113 
z
" transform="scale(0.015625)"/>
       <path id="DejaVuSans-73" d="M 2834 3397 
L 2834 2853 
Q 2591 2978 2328 3040 
Q 2066 3103 1784 3103 
Q 1356 3103 1142 2972 
Q 928 2841 928 2578 
Q 928 2378 1081 2264 
Q 1234 2150 1697 2047 
L 1894 2003 
Q 2506 1872 2764 1633 
Q 3022 1394 3022 966 
Q 3022 478 2636 193 
Q 2250 -91 1575 -91 
Q 1294 -91 989 -36 
Q 684 19 347 128 
L 347 722 
Q 666 556 975 473 
Q 1284 391 1588 391 
Q 1994 391 2212 530 
Q 2431 669 2431 922 
Q 2431 1156 2273 1281 
Q 2116 1406 1581 1522 
L 1381 1569 
Q 847 1681 609 1914 
Q 372 2147 372 2553 
Q 372 3047 722 3315 
Q 1072 3584 1716 3584 
Q 2034 3584 2315 3537 
Q 2597 3491 2834 3397 
z
" transform="scale(0.015625)"/>
      </defs>
      <use xlink:href="#DejaVuSans-45"/>
      <use xlink:href="#DejaVuSans-70" x="63.183594"/>
      <use xlink:href="#DejaVuSans-6f" x="126.660156"/>
      <use xlink:href="#DejaVuSans-63" x="187.841797"/>
      <use xlink:href="#DejaVuSans-68" x="242.822266"/>
      <use xlink:href="#DejaVuSans-73" x="306.201172"/>
     </g>
    </g>
   </g>
   <g id="matplotlib.axis_2">
    <g id="ytick_1">
     <g id="line2d_11">
      <defs>
       <path id="m08bcea2762" d="M 0 0 
L -3.5 0 
" style="stroke: #000000; stroke-width: 0.8"/>
      </defs>
      <g>
       <use xlink:href="#m08bcea2762" x="57.6" y="274.259053" style="stroke: #000000; stroke-width: 0.8"/>
      </g>
     </g>
     <g id="text_12">
      <!-- 10 -->
      <g transform="translate(37.875 278.058272) scale(0.1 -0.1)">
       <use xlink:href="#DejaVuSans-31"/>
       <use xlink:href="#DejaVuSans-30" x="63.623047"/>
      </g>
     </g>
    </g>
    <g id="ytick_2">
     <g id="line2d_12">
      <g>
       <use xlink:href="#m08bcea2762" x="57.6" y="239.105971" style="stroke: #000000; stroke-width: 0.8"/>
      </g>
     </g>
     <g id="text_13">
      <!-- 20 -->
      <g transform="translate(37.875 242.905189) scale(0.1 -0.1)">
       <use xlink:href="#DejaVuSans-32"/>
       <use xlink:href="#DejaVuSans-30" x="63.623047"/>
      </g>
     </g>
    </g>
    <g id="ytick_3">
     <g id="line2d_13">
      <g>
       <use xlink:href="#m08bcea2762" x="57.6" y="203.952888" style="stroke: #000000; stroke-width: 0.8"/>
      </g>
     </g>
     <g id="text_14">
      <!-- 30 -->
      <g transform="translate(37.875 207.752107) scale(0.1 -0.1)">
       <use xlink:href="#DejaVuSans-33"/>
       <use xlink:href="#DejaVuSans-30" x="63.623047"/>
      </g>
     </g>
    </g>
    <g id="ytick_4">
     <g id="line2d_14">
      <g>
       <use xlink:href="#m08bcea2762" x="57.6" y="168.799805" style="stroke: #000000; stroke-width: 0.8"/>
      </g>
     </g>
     <g id="text_15">
      <!-- 40 -->
      <g transform="translate(37.875 172.599024) scale(0.1 -0.1)">
       <use xlink:href="#DejaVuSans-34"/>
       <use xlink:href="#DejaVuSans-30" x="63.623047"/>
      </g>
     </g>
    </g>
    <g id="ytick_5">
     <g id="line2d_15">
      <g>
       <use xlink:href="#m08bcea2762" x="57.6" y="133.646722" style="stroke: #000000; stroke-width: 0.8"/>
      </g>
     </g>
     <g id="text_16">
      <!-- 50 -->
      <g transform="translate(37.875 137.445941) scale(0.1 -0.1)">
       <defs>
        <path id="DejaVuSans-35" d="M 691 4666 
L 3169 4666 
L 3169 4134 
L 1269 4134 
L 1269 2991 
Q 1406 3038 1543 3061 
Q 1681 3084 1819 3084 
Q 2600 3084 3056 2656 
Q 3513 2228 3513 1497 
Q 3513 744 3044 326 
Q 2575 -91 1722 -91 
Q 1428 -91 1123 -41 
Q 819 9 494 109 
L 494 744 
Q 775 591 1075 516 
Q 1375 441 1709 441 
Q 2250 441 2565 725 
Q 2881 1009 2881 1497 
Q 2881 1984 2565 2268 
Q 2250 2553 1709 2553 
Q 1456 2553 1204 2497 
Q 953 2441 691 2322 
L 691 4666 
z
" transform="scale(0.015625)"/>
       </defs>
       <use xlink:href="#DejaVuSans-35"/>
       <use xlink:href="#DejaVuSans-30" x="63.623047"/>
      </g>
     </g>
    </g>
    <g id="ytick_6">
     <g id="line2d_16">
      <g>
       <use xlink:href="#m08bcea2762" x="57.6" y="98.49364" style="stroke: #000000; stroke-width: 0.8"/>
      </g>
     </g>
     <g id="text_17">
      <!-- 60 -->
      <g transform="translate(37.875 102.292858) scale(0.1 -0.1)">
       <use xlink:href="#DejaVuSans-36"/>
       <use xlink:href="#DejaVuSans-30" x="63.623047"/>
      </g>
     </g>
    </g>
    <g id="ytick_7">
     <g id="line2d_17">
      <g>
       <use xlink:href="#m08bcea2762" x="57.6" y="63.340557" style="stroke: #000000; stroke-width: 0.8"/>
      </g>
     </g>
     <g id="text_18">
      <!-- 70 -->
      <g transform="translate(37.875 67.139776) scale(0.1 -0.1)">
       <use xlink:href="#DejaVuSans-37"/>
       <use xlink:href="#DejaVuSans-30" x="63.623047"/>
      </g>
     </g>
    </g>
    <g id="text_19">
     <!-- Accuracy -->
     <g transform="translate(31.795312 197.356125) rotate(-90) scale(0.1 -0.1)">
      <defs>
       <path id="DejaVuSans-41" d="M 2188 4044 
L 1331 1722 
L 3047 1722 
L 2188 4044 
z
M 1831 4666 
L 2547 4666 
L 4325 0 
L 3669 0 
L 3244 1197 
L 1141 1197 
L 716 0 
L 50 0 
L 1831 4666 
z
" transform="scale(0.015625)"/>
       <path id="DejaVuSans-75" d="M 544 1381 
L 544 3500 
L 1119 3500 
L 1119 1403 
Q 1119 906 1312 657 
Q 1506 409 1894 409 
Q 2359 409 2629 706 
Q 2900 1003 2900 1516 
L 2900 3500 
L 3475 3500 
L 3475 0 
L 2900 0 
L 2900 538 
Q 2691 219 2414 64 
Q 2138 -91 1772 -91 
Q 1169 -91 856 284 
Q 544 659 544 1381 
z
M 1991 3584 
L 1991 3584 
z
" transform="scale(0.015625)"/>
       <path id="DejaVuSans-72" d="M 2631 2963 
Q 2534 3019 2420 3045 
Q 2306 3072 2169 3072 
Q 1681 3072 1420 2755 
Q 1159 2438 1159 1844 
L 1159 0 
L 581 0 
L 581 3500 
L 1159 3500 
L 1159 2956 
Q 1341 3275 1631 3429 
Q 1922 3584 2338 3584 
Q 2397 3584 2469 3576 
Q 2541 3569 2628 3553 
L 2631 2963 
z
" transform="scale(0.015625)"/>
       <path id="DejaVuSans-61" d="M 2194 1759 
Q 1497 1759 1228 1600 
Q 959 1441 959 1056 
Q 959 750 1161 570 
Q 1363 391 1709 391 
Q 2188 391 2477 730 
Q 2766 1069 2766 1631 
L 2766 1759 
L 2194 1759 
z
M 3341 1997 
L 3341 0 
L 2766 0 
L 2766 531 
Q 2569 213 2275 61 
Q 1981 -91 1556 -91 
Q 1019 -91 701 211 
Q 384 513 384 1019 
Q 384 1609 779 1909 
Q 1175 2209 1959 2209 
L 2766 2209 
L 2766 2266 
Q 2766 2663 2505 2880 
Q 2244 3097 1772 3097 
Q 1472 3097 1187 3025 
Q 903 2953 641 2809 
L 641 3341 
Q 956 3463 1253 3523 
Q 1550 3584 1831 3584 
Q 2591 3584 2966 3190 
Q 3341 2797 3341 1997 
z
" transform="scale(0.015625)"/>
       <path id="DejaVuSans-79" d="M 2059 -325 
Q 1816 -950 1584 -1140 
Q 1353 -1331 966 -1331 
L 506 -1331 
L 506 -850 
L 844 -850 
Q 1081 -850 1212 -737 
Q 1344 -625 1503 -206 
L 1606 56 
L 191 3500 
L 800 3500 
L 1894 763 
L 2988 3500 
L 3597 3500 
L 2059 -325 
z
" transform="scale(0.015625)"/>
      </defs>
      <use xlink:href="#DejaVuSans-41"/>
      <use xlink:href="#DejaVuSans-63" x="66.658203"/>
      <use xlink:href="#DejaVuSans-63" x="121.638672"/>
      <use xlink:href="#DejaVuSans-75" x="176.619141"/>
      <use xlink:href="#DejaVuSans-72" x="239.998047"/>
      <use xlink:href="#DejaVuSans-61" x="281.111328"/>
      <use xlink:href="#DejaVuSans-63" x="342.390625"/>
      <use xlink:href="#DejaVuSans-79" x="397.371094"/>
     </g>
    </g>
   </g>
   <g id="line2d_18">
    <path d="M 73.832727 295.488 
L 74.918528 271.372985 
L 76.00433 250.84007 
L 77.090131 235.140703 
L 78.175932 222.538323 
L 80.347534 205.369557 
L 83.604938 185.110836 
L 84.690739 180.65694 
L 86.862341 168.901749 
L 87.948142 164.472461 
L 89.033943 161.959015 
L 91.205546 154.422194 
L 92.291347 152.14779 
L 93.377148 151.536126 
L 94.462949 150.470988 
L 95.54875 179.971455 
L 96.634552 178.850072 
L 98.806154 173.120119 
L 99.891955 170.701587 
L 100.977756 167.759274 
L 102.063557 164.187721 
L 103.149358 161.182132 
L 104.23516 158.974519 
L 105.320961 157.030553 
L 106.406762 153.859745 
L 107.492563 152.256764 
L 109.664165 147.194721 
L 110.749967 145.451128 
L 111.835768 143.289213 
L 112.921569 140.673824 
L 114.00737 139.292308 
L 115.093171 136.444908 
L 119.436376 127.12231 
L 120.522177 125.582605 
L 122.693779 121.037312 
L 123.77958 119.606581 
L 124.865382 117.050952 
L 125.951183 115.725681 
L 127.036984 113.690317 
L 128.122785 111.321 
L 129.208586 110.832372 
L 130.294387 109.587953 
L 131.380189 107.492829 
L 132.46599 106.118343 
L 133.551791 106.206226 
L 134.637592 105.439889 
L 135.723393 105.137572 
L 136.809194 103.959944 
L 137.894995 103.495923 
L 138.980797 141.14136 
L 140.066598 144.888678 
L 141.152399 144.537147 
L 142.2382 143.247029 
L 143.324001 143.08181 
L 144.409802 143.155631 
L 145.495604 141.672171 
L 147.667206 139.731721 
L 148.753007 139.749298 
L 149.838808 137.053056 
L 150.924609 137.952975 
L 153.096212 135.225096 
L 155.267814 133.210824 
L 156.353615 133.615085 
L 157.439416 131.488323 
L 158.525217 130.433731 
L 161.782621 128.654985 
L 163.954223 125.705641 
L 165.040024 126.784841 
L 166.125825 124.745962 
L 167.211627 124.707294 
L 168.297428 123.708946 
L 169.383229 122.453981 
L 170.46903 121.754435 
L 171.554831 119.096862 
L 172.640632 119.146076 
L 174.812235 116.822457 
L 175.898036 116.477957 
L 176.983837 115.328451 
L 179.155439 113.989119 
L 180.24124 112.340439 
L 181.327042 111.412398 
L 182.412843 110.048458 
L 183.498644 108.881376 
L 184.584445 107.489314 
L 185.670246 106.631578 
L 186.756047 104.768465 
L 187.841849 104.322021 
L 188.92765 103.520531 
L 190.013451 101.622264 
L 192.185053 99.555263 
L 193.270854 98.289752 
L 194.356656 96.391485 
L 195.442457 96.138383 
L 196.528258 94.784989 
L 197.614059 93.972953 
L 198.69986 92.886723 
L 199.785661 90.700201 
L 200.871462 91.157191 
L 201.957264 88.80545 
L 203.043065 88.496103 
L 204.128866 86.369341 
L 205.214667 85.585428 
L 206.300468 85.022978 
L 207.386269 84.119544 
L 208.472071 82.259946 
L 209.557872 81.676405 
L 210.643673 80.674542 
L 211.729474 80.952251 
L 212.815275 78.607541 
L 213.901076 78.716515 
L 214.986877 79.398485 
L 216.072679 77.763867 
L 217.15848 75.69335 
L 218.244281 76.842856 
L 219.330082 77.370152 
L 220.415883 75.647651 
L 221.501684 74.811008 
L 222.587486 74.888345 
L 223.673287 75.478916 
L 224.759088 75.848024 
L 225.844889 125.452539 
L 226.93069 131.56566 
L 228.016491 132.085926 
L 229.102292 132.159747 
L 230.188094 130.781746 
L 231.273895 131.773063 
L 232.359696 131.801186 
L 233.445497 130.356394 
L 234.531298 129.263133 
L 235.617099 129.779883 
L 236.702901 128.872934 
L 237.788702 127.80428 
L 238.874503 128.644439 
L 239.960304 127.677729 
L 241.046105 126.022019 
L 242.131906 125.35411 
L 243.217708 124.520982 
L 244.303509 124.081569 
L 245.38931 125.00961 
L 246.475111 123.603487 
L 247.560912 124.222181 
L 248.646713 124.063992 
L 249.732514 123.568334 
L 250.818316 122.710598 
L 251.904117 122.190333 
L 252.989918 122.531318 
L 254.075719 122.573501 
L 255.16152 121.740373 
L 256.247321 121.620853 
L 257.333123 121.051373 
L 258.418924 120.285036 
L 259.504725 120.601413 
L 260.590526 118.323494 
L 261.676327 118.084453 
L 262.762128 118.664479 
L 263.847929 118.052815 
L 264.933731 117.609886 
L 266.019532 117.82432 
L 267.105333 117.430605 
L 268.191134 115.876839 
L 269.276935 116.927916 
L 270.362736 116.031513 
L 271.448538 116.112365 
L 273.62014 114.038333 
L 274.705941 114.157853 
L 275.791742 113.985603 
L 276.877543 112.966164 
L 277.963344 112.660332 
L 279.049146 112.758761 
L 281.220748 111.282331 
L 282.306549 111.349122 
L 283.39235 111.117112 
L 284.478151 109.862147 
L 285.563953 110.417565 
L 286.649754 110.533571 
L 287.735555 108.621243 
L 288.821356 107.90412 
L 289.907157 107.700232 
L 293.164561 106.381991 
L 294.250362 106.754614 
L 295.336163 105.61917 
L 296.421964 105.478557 
L 297.507765 104.244684 
L 298.593566 103.604898 
L 299.679368 102.817469 
L 300.765169 102.652249 
L 301.85097 103.242821 
L 302.936771 102.096831 
L 304.022572 101.471106 
L 305.108373 101.358616 
L 306.194175 100.887565 
L 307.279976 99.562293 
L 308.365777 99.934916 
L 310.537379 98.961176 
L 312.708981 97.386318 
L 313.794783 96.704348 
L 314.880584 96.159475 
L 317.052186 94.412367 
L 318.137987 94.693591 
L 319.223788 93.800703 
L 320.30959 93.129279 
L 321.395391 91.821585 
L 322.481192 91.860253 
L 323.566993 90.756446 
L 324.652794 90.517405 
L 325.738595 90.014716 
L 326.824396 89.729976 
L 327.910198 89.132374 
L 328.995999 87.786011 
L 330.0818 87.170832 
L 331.167601 86.938821 
L 332.253402 86.109209 
L 333.339203 84.696055 
L 334.425005 84.63981 
L 335.510806 83.796136 
L 337.682408 82.614992 
L 338.768209 82.632569 
L 339.85401 82.41462 
L 340.939811 80.161307 
L 342.025613 80.692119 
L 343.111414 79.778138 
L 344.197215 78.519658 
L 345.283016 78.220857 
L 346.368817 78.217342 
L 347.454618 76.769035 
L 348.54042 75.552738 
L 349.626221 74.593059 
L 350.712022 75.067625 
L 352.883624 73.900543 
L 353.969425 72.230772 
L 355.055227 72.571757 
L 356.141028 71.003929 
L 357.226829 69.664597 
L 358.31263 69.355249 
L 359.398431 70.114556 
L 360.484232 69.038872 
L 361.570033 68.202228 
L 362.655835 67.650325 
L 363.741636 65.934855 
L 364.827437 66.061406 
L 365.913238 65.126334 
L 366.999039 64.947053 
L 368.08484 65.08415 
L 369.170642 67.762815 
L 371.342244 71.288669 
L 372.428045 73.004139 
L 373.513846 73.229119 
L 374.599647 73.204512 
L 375.685448 73.851329 
L 376.77125 73.113114 
L 377.857051 74.234497 
L 378.942852 73.485737 
L 381.114454 73.745869 
L 382.200255 73.014685 
L 383.286057 73.707201 
L 384.371858 73.46113 
L 385.457659 73.429492 
L 386.54346 74.220436 
L 387.629261 74.593059 
L 388.715062 72.968986 
L 389.800863 73.826722 
L 390.886665 73.763446 
L 391.972466 73.970849 
L 393.058267 73.239665 
L 394.144068 74.252074 
L 395.229869 73.86539 
L 396.31567 74.427839 
L 397.401472 74.691487 
L 398.487273 75.457825 
L 398.487273 75.457825 
" clip-path="url(#pe8853dac93)" style="fill: none; stroke: #1f77b4; stroke-width: 1.5; stroke-linecap: square"/>
   </g>
   <g id="line2d_19">
    <path d="M 73.832727 278.653189 
L 74.918528 256.682512 
L 76.00433 224.658054 
L 77.090131 217.029835 
L 78.175932 195.445842 
L 79.261733 188.098848 
L 80.347534 184.442927 
L 81.433335 171.998736 
L 82.519137 164.440823 
L 83.604938 154.633113 
L 84.690739 146.969741 
L 85.77654 144.016882 
L 86.862341 138.427542 
L 90.119745 124.049931 
L 91.205546 121.800134 
L 92.291347 119.93702 
L 93.377148 118.706662 
L 94.462949 118.038754 
L 95.54875 157.867196 
L 96.634552 156.742298 
L 97.720353 148.411017 
L 98.806154 148.586783 
L 99.891955 139.341522 
L 100.977756 137.829939 
L 102.063557 133.400651 
L 103.149358 131.748456 
L 104.23516 136.880806 
L 105.320961 128.83075 
L 106.406762 126.299728 
L 107.492563 124.15539 
L 108.578364 119.515183 
L 109.664165 118.495744 
L 110.749967 117.230233 
L 111.835768 115.050742 
L 112.921569 112.097883 
L 114.00737 110.515994 
L 115.093171 110.199616 
L 116.178972 106.051553 
L 117.264773 102.993234 
L 118.350575 102.958081 
L 119.436376 97.263282 
L 120.522177 96.735986 
L 122.693779 93.466749 
L 123.77958 91.392717 
L 124.865382 88.58047 
L 125.951183 89.881134 
L 127.036984 86.014295 
L 128.122785 84.573019 
L 129.208586 83.834804 
L 130.294387 82.674752 
L 131.380189 82.006844 
L 132.46599 80.635874 
L 133.551791 81.303782 
L 134.637592 81.16317 
L 135.723393 80.24919 
L 136.809194 80.600721 
L 137.894995 80.495261 
L 138.980797 119.444877 
L 140.066598 120.39401 
L 141.152399 132.697589 
L 142.2382 116.63263 
L 143.324001 121.202531 
L 144.409802 120.675235 
L 145.495604 119.972173 
L 146.581405 119.726102 
L 147.667206 114.417986 
L 148.753007 113.257934 
L 149.838808 117.370845 
L 152.01041 112.449414 
L 154.182013 105.875787 
L 155.267814 110.5863 
L 156.353615 110.972984 
L 157.439416 110.234769 
L 158.525217 104.504817 
L 159.611019 106.157012 
L 160.69682 102.044101 
L 161.782621 103.450224 
L 162.868422 108.75834 
L 165.040024 99.056089 
L 166.125825 99.126395 
L 167.211627 101.446499 
L 169.383229 96.384455 
L 170.46903 97.192976 
L 171.554831 93.466749 
L 172.640632 94.73226 
L 173.726434 95.18925 
L 174.812235 90.51389 
L 175.898036 95.611087 
L 176.983837 89.881134 
L 178.069638 93.537055 
L 179.155439 90.408431 
L 180.24124 88.158633 
L 181.327042 86.400979 
L 182.412843 88.018021 
L 184.584445 82.358375 
L 185.670246 83.659039 
L 186.756047 85.873683 
L 187.841849 79.475822 
L 188.92765 80.565568 
L 191.099252 78.632148 
L 192.185053 77.296331 
L 193.270854 78.456383 
L 194.356656 74.624697 
L 195.442457 73.991941 
L 197.614059 73.464645 
L 198.69986 71.917909 
L 199.785661 71.847603 
L 200.871462 70.617245 
L 201.957264 69.562653 
L 203.043065 68.929897 
L 204.128866 67.734692 
L 205.214667 64.85214 
L 206.300468 65.133364 
L 207.386269 65.625507 
L 208.472071 65.168517 
L 209.557872 63.340557 
L 211.729474 61.899281 
L 212.815275 62.813261 
L 213.901076 61.934434 
L 214.986877 62.250811 
L 216.072679 62.391424 
L 217.15848 61.758668 
L 218.244281 62.075046 
L 219.330082 61.723515 
L 220.415883 61.899281 
L 221.501684 62.532036 
L 222.587486 61.653209 
L 223.673287 62.110199 
L 224.759088 61.828974 
L 225.844889 113.855537 
L 226.93069 116.140487 
L 228.016491 113.011863 
L 229.102292 110.902678 
L 230.188094 112.168189 
L 231.273895 116.843549 
L 232.359696 115.788956 
L 233.445497 106.965533 
L 234.531298 108.406809 
L 235.617099 109.004411 
L 236.702901 111.04329 
L 237.788702 105.664869 
L 238.874503 103.766602 
L 239.960304 110.691759 
L 241.046105 103.06354 
L 242.131906 105.946093 
L 243.217708 103.62599 
L 244.303509 99.442773 
L 245.38931 100.391906 
L 246.475111 102.184713 
L 247.560912 97.614813 
L 249.732514 107.106145 
L 250.818316 102.501091 
L 251.904117 100.462212 
L 252.989918 100.251294 
L 254.075719 97.544506 
L 255.16152 98.247568 
L 256.247321 98.49364 
L 257.333123 100.427059 
L 258.418924 98.985783 
L 259.504725 95.365015 
L 260.590526 99.126395 
L 261.676327 94.27527 
L 262.762128 98.880324 
L 263.847929 101.411346 
L 264.933731 93.185524 
L 266.019532 97.087516 
L 267.105333 98.282721 
L 268.191134 94.380729 
L 269.276935 95.470475 
L 270.362736 98.563946 
L 272.534339 90.97088 
L 273.62014 92.623075 
L 274.705941 92.482463 
L 275.791742 92.552769 
L 276.877543 91.88486 
L 277.963344 91.076339 
L 279.049146 87.631337 
L 280.134947 90.935727 
L 281.220748 92.974606 
L 282.306549 89.248379 
L 283.39235 87.66649 
L 284.478151 87.033735 
L 285.563953 91.779401 
L 286.649754 86.822816 
L 287.735555 87.807103 
L 288.821356 89.283532 
L 289.907157 89.670216 
L 290.992958 84.291794 
L 292.07876 84.854244 
L 293.164561 83.307508 
L 294.250362 84.432407 
L 295.336163 85.943989 
L 296.421964 86.611898 
L 297.507765 82.674752 
L 298.593566 80.565568 
L 299.679368 83.131743 
L 300.765169 82.604446 
L 301.85097 81.479548 
L 302.936771 82.815365 
L 304.022572 80.600721 
L 305.108373 81.760772 
L 306.194175 79.546128 
L 307.279976 78.667301 
L 308.365777 78.491536 
L 309.451578 81.268629 
L 310.537379 77.893933 
L 311.62318 78.561842 
L 312.708981 77.542402 
L 313.794783 74.765309 
L 314.880584 76.522963 
L 315.966385 76.9448 
L 317.052186 73.570104 
L 318.137987 75.960514 
L 320.30959 72.761583 
L 321.395391 73.359186 
L 322.481192 71.285154 
L 323.566993 73.18342 
L 324.652794 70.757857 
L 325.738595 71.214848 
L 326.824396 71.214848 
L 327.910198 69.316581 
L 328.995999 71.566378 
L 330.0818 68.226835 
L 331.167601 71.671838 
L 332.253402 67.453468 
L 333.339203 67.172243 
L 334.425005 68.121376 
L 335.510806 66.258263 
L 336.596607 67.242549 
L 337.682408 65.344283 
L 338.768209 65.695814 
L 339.85401 64.28969 
L 340.939811 64.711527 
L 342.025613 63.8327 
L 343.111414 63.8327 
L 344.197215 64.149078 
L 345.283016 61.336831 
L 346.368817 61.618056 
L 348.54042 61.618056 
L 349.626221 60.141626 
L 350.712022 61.477444 
L 351.797823 57.32938 
L 352.883624 59.051881 
L 353.969425 58.137901 
L 355.055227 58.067595 
L 356.141028 57.751217 
L 357.226829 57.751217 
L 358.31263 55.50142 
L 359.398431 55.677185 
L 360.484232 56.696624 
L 361.570033 56.239634 
L 362.655835 55.95841 
L 363.741636 56.239634 
L 364.827437 54.833511 
L 365.913238 54.235909 
L 366.999039 55.536573 
L 368.08484 55.149889 
L 369.170642 56.87239 
L 370.256443 58.208207 
L 371.342244 59.790096 
L 372.428045 59.719789 
L 373.513846 60.036167 
L 374.599647 62.285965 
L 375.685448 59.297952 
L 376.77125 61.477444 
L 377.857051 60.668923 
L 378.942852 59.719789 
L 381.114454 63.270251 
L 382.200255 60.598617 
L 383.286057 61.899281 
L 384.371858 62.426577 
L 385.457659 62.778108 
L 386.54346 61.09076 
L 387.629261 61.582903 
L 388.715062 60.493157 
L 389.800863 62.953873 
L 390.886665 61.055607 
L 391.972466 62.00474 
L 393.058267 61.477444 
L 394.144068 62.426577 
L 395.229869 64.957599 
L 396.31567 61.969587 
L 397.401472 60.352545 
L 398.487273 61.161066 
L 398.487273 61.161066 
" clip-path="url(#pe8853dac93)" style="fill: none; stroke: #ff7f0e; stroke-width: 1.5; stroke-linecap: square"/>
   </g>
   <g id="line2d_20">
    <path d="M 73.832727 290.744795 
L 74.918528 277.483294 
L 76.00433 266.695165 
L 77.090131 264.973718 
L 78.175932 254.161333 
L 79.261733 239.251504 
L 80.347534 247.421432 
L 81.433335 238.766392 
L 82.519137 237.578569 
L 83.604938 227.735706 
L 84.690739 225.675032 
L 85.77654 223.129598 
L 86.862341 222.18398 
L 87.948142 215.759402 
L 89.033943 210.256187 
L 90.119745 209.019853 
L 91.205546 205.868028 
L 92.291347 206.377396 
L 93.377148 204.48616 
L 94.462949 205.334756 
L 95.54875 230.741998 
L 96.634552 230.669231 
L 97.720353 223.081086 
L 98.806154 225.360061 
L 100.977756 217.747309 
L 102.063557 216.31693 
L 103.149358 212.535162 
L 104.23516 221.214106 
L 105.320961 213.553195 
L 106.406762 217.286804 
L 107.492563 214.426046 
L 108.578364 210.328954 
L 109.664165 205.116455 
L 110.749967 206.013562 
L 111.835768 206.304629 
L 112.921569 203.346849 
L 114.00737 201.358942 
L 115.093171 202.546765 
L 116.178972 190.35216 
L 117.264773 188.364253 
L 118.350575 188.946037 
L 119.436376 185.067246 
L 120.522177 193.334196 
L 121.607978 185.454984 
L 122.693779 189.479661 
L 123.77958 183.12785 
L 124.865382 179.951769 
L 125.951183 179.927514 
L 127.036984 179.127429 
L 128.122785 179.442752 
L 129.208586 179.006151 
L 130.294387 177.479101 
L 131.380189 175.733399 
L 132.46599 176.242416 
L 133.551791 174.594088 
L 134.637592 175.078849 
L 135.723393 174.375787 
L 136.809194 173.115198 
L 137.894995 173.599959 
L 138.980797 207.540963 
L 140.066598 213.019923 
L 141.152399 203.080037 
L 142.2382 206.280374 
L 143.324001 215.274641 
L 144.409802 202.498253 
L 145.495604 200.970852 
L 146.581405 205.237733 
L 148.753007 199.807285 
L 149.838808 198.910178 
L 150.924609 202.546765 
L 152.01041 199.661751 
L 153.096212 199.734518 
L 154.182013 201.310431 
L 155.267814 200.65588 
L 156.353615 205.868028 
L 157.439416 196.87376 
L 158.525217 195.758704 
L 159.611019 191.370545 
L 160.69682 197.552566 
L 161.782621 197.746611 
L 162.868422 193.552497 
L 163.954223 190.061444 
L 165.040024 189.358383 
L 166.125825 195.491892 
L 167.211627 191.030966 
L 168.297428 191.152244 
L 169.383229 182.4733 
L 170.46903 190.037189 
L 171.554831 186.13379 
L 172.640632 189.794632 
L 173.726434 183.079339 
L 174.812235 184.145883 
L 175.898036 192.994969 
L 176.983837 179.588286 
L 178.069638 177.333568 
L 179.155439 182.182232 
L 180.24124 180.460786 
L 181.327042 181.891165 
L 182.412843 180.485041 
L 183.498644 176.17 
L 184.584445 172.872641 
L 185.670246 176.824551 
L 186.756047 176.17 
L 187.841849 174.763877 
L 188.92765 177.842584 
L 190.013451 173.721237 
L 191.099252 164.363135 
L 192.185053 167.709005 
L 193.270854 163.611562 
L 194.356656 166.933176 
L 195.442457 166.836154 
L 196.528258 163.417868 
L 197.614059 165.21173 
L 198.69986 163.757095 
L 199.785661 166.617853 
L 200.871462 165.235986 
L 201.957264 162.47225 
L 203.043065 157.623586 
L 204.128866 162.011745 
L 205.214667 159.175243 
L 206.300468 159.562981 
L 207.386269 156.484274 
L 208.472071 159.296521 
L 209.557872 154.398993 
L 210.643673 158.084091 
L 211.729474 155.781213 
L 212.815275 154.981128 
L 213.901076 154.85985 
L 214.986877 154.326578 
L 216.072679 155.02964 
L 217.15848 153.599261 
L 219.330082 153.526494 
L 220.415883 154.326578 
L 221.501684 152.435342 
L 222.587486 153.429471 
L 223.673287 153.405216 
L 224.759088 152.289808 
L 225.844889 201.504124 
L 226.93069 199.637495 
L 228.016491 189.624843 
L 229.102292 194.497763 
L 230.188094 197.213339 
L 231.273895 204.558927 
L 232.359696 203.540894 
L 233.445497 195.928142 
L 234.531298 200.752903 
L 235.617099 195.12841 
L 236.702901 194.74032 
L 237.788702 194.813086 
L 238.874503 196.170698 
L 239.960304 199.637495 
L 241.046105 192.752413 
L 242.131906 198.182861 
L 243.217708 200.631625 
L 244.303509 188.21872 
L 245.38931 183.297288 
L 246.475111 193.431219 
L 247.560912 189.891655 
L 248.646713 188.509787 
L 249.732514 193.47973 
L 250.818316 194.182792 
L 251.904117 198.982945 
L 252.989918 197.092061 
L 254.075719 186.618903 
L 255.16152 185.818819 
L 256.247321 188.60681 
L 257.333123 187.442891 
L 258.418924 184.024605 
L 259.504725 186.182302 
L 260.590526 191.540334 
L 261.676327 181.891165 
L 262.762128 189.940166 
L 263.847929 191.540334 
L 266.019532 186.13379 
L 267.105333 185.988608 
L 268.191134 189.018804 
L 269.276935 184.751923 
L 270.362736 185.86733 
L 271.448538 192.049351 
L 272.534339 188.43702 
L 273.62014 179.467008 
L 274.705941 180.315604 
L 275.791742 182.133721 
L 276.877543 190.182722 
L 279.049146 180.315604 
L 280.134947 181.188103 
L 281.220748 187.297709 
L 282.306549 179.078918 
L 283.39235 177.212289 
L 284.478151 173.260731 
L 285.563953 181.624704 
L 286.649754 178.788202 
L 287.735555 180.630575 
L 288.821356 177.915351 
L 289.907157 182.982316 
L 290.992958 181.91542 
L 292.07876 174.812037 
L 293.164561 175.636377 
L 294.250362 181.333637 
L 295.336163 168.99385 
L 296.421964 180.533553 
L 297.507765 176.38795 
L 298.593566 179.151685 
L 299.679368 176.557739 
L 300.765169 174.787781 
L 301.85097 170.714945 
L 302.936771 175.442683 
L 304.022572 176.993989 
L 305.108373 178.182163 
L 306.194175 176.436461 
L 307.279976 172.848386 
L 308.365777 173.696981 
L 309.451578 166.157348 
L 310.537379 174.133231 
L 311.62318 174.133231 
L 312.708981 167.539216 
L 313.794783 168.727038 
L 314.880584 170.351462 
L 315.966385 169.696912 
L 317.052186 166.133092 
L 318.137987 165.21173 
L 319.223788 165.720747 
L 320.30959 167.223892 
L 321.395391 167.587727 
L 322.481192 163.248079 
L 323.566993 164.072419 
L 324.652794 162.811829 
L 325.738595 163.369357 
L 326.824396 160.605622 
L 327.910198 163.684329 
L 328.995999 165.187474 
L 330.0818 160.435832 
L 331.167601 161.866211 
L 332.253402 162.545017 
L 333.339203 159.781282 
L 334.425005 162.569273 
L 335.510806 162.011745 
L 336.596607 156.484274 
L 337.682408 158.908431 
L 338.768209 155.877883 
L 339.85401 155.708312 
L 340.939811 155.805286 
L 342.025613 155.756799 
L 343.111414 154.496137 
L 344.197215 152.726361 
L 345.283016 153.06577 
L 346.368817 150.689907 
L 347.454618 151.61116 
L 348.54042 153.162744 
L 349.626221 151.586916 
L 350.712022 152.99304 
L 351.797823 152.871822 
L 352.883624 150.059576 
L 353.969425 153.55064 
L 356.141028 151.12629 
L 357.226829 149.574705 
L 358.31263 149.889871 
L 359.398431 149.74441 
L 360.484232 147.223085 
L 361.570033 148.144339 
L 362.655835 146.689728 
L 363.741636 147.998878 
L 364.827437 148.580722 
L 365.913238 146.883676 
L 366.999039 145.550284 
L 368.08484 145.501797 
L 369.170642 147.101868 
L 370.256443 149.81714 
L 371.342244 147.756443 
L 372.428045 155.781043 
L 373.513846 151.392968 
L 374.599647 151.562673 
L 375.685448 152.047543 
L 376.77125 156.653809 
L 377.857051 155.247686 
L 378.942852 154.496137 
L 380.028653 159.902439 
L 381.114454 155.538608 
L 382.200255 153.841562 
L 383.286057 159.102403 
L 384.371858 151.12629 
L 385.457659 157.017462 
L 386.54346 156.071965 
L 387.629261 152.774848 
L 388.715062 153.55064 
L 389.800863 153.720345 
L 391.972466 152.023299 
L 393.058267 155.102225 
L 394.144068 154.835546 
L 395.229869 156.38713 
L 396.31567 152.09603 
L 397.401472 155.005251 
L 398.487273 154.326432 
L 398.487273 154.326432 
" clip-path="url(#pe8853dac93)" style="fill: none; stroke: #2ca02c; stroke-width: 1.5; stroke-linecap: square"/>
   </g>
   <g id="line2d_21">
    <path d="M 368.08484 53.568 
L 369.170642 55.747491 
L 370.256443 61.09076 
L 371.342244 62.672648 
L 372.428045 65.695814 
L 373.513846 63.621782 
L 374.599647 65.906732 
L 375.685448 66.961325 
L 376.77125 73.534951 
L 377.857051 78.737607 
L 378.942852 77.612709 
L 380.028653 93.185524 
L 381.114454 83.377814 
L 382.200255 96.700833 
L 383.286057 98.106956 
L 384.371858 106.543696 
L 385.457659 100.110682 
L 386.54346 115.402273 
L 387.629261 147.110353 
L 388.715062 131.010241 
L 389.800863 129.006516 
L 390.886665 144.368413 
L 391.972466 166.760926 
L 393.058267 152.769999 
L 394.144068 170.698072 
L 395.229869 162.261332 
L 396.31567 183.739865 
L 397.401472 207.538502 
L 398.487273 210.210137 
L 398.487273 210.210137 
" clip-path="url(#pe8853dac93)" style="fill: none; stroke: #d62728; stroke-width: 1.5; stroke-linecap: square"/>
   </g>
   <g id="line2d_22">
    <path d="M 368.08484 144.5563 
L 369.170642 144.313865 
L 370.256443 148.8474 
L 371.342244 151.562673 
L 372.428045 158.787237 
L 373.513846 156.847757 
L 374.599647 157.405358 
L 375.685448 160.629744 
L 376.77125 168.654344 
L 377.857051 173.74548 
L 378.942852 172.387844 
L 380.028653 184.485353 
L 381.114454 171.733269 
L 382.200255 187.055165 
L 383.286057 186.81273 
L 384.371858 195.200982 
L 385.457659 186.255129 
L 386.54346 199.831492 
L 387.629261 226.475104 
L 388.715062 211.832027 
L 389.800863 209.577381 
L 390.886665 227.614549 
L 391.972466 239.857519 
L 393.058267 230.644987 
L 394.144068 242.233383 
L 395.229869 235.808854 
L 396.31567 250.088279 
L 397.401472 267.592089 
L 398.487273 264.270729 
L 398.487273 264.270729 
" clip-path="url(#pe8853dac93)" style="fill: none; stroke: #9467bd; stroke-width: 1.5; stroke-linecap: square"/>
   </g>
   <g id="patch_3">
    <path d="M 57.6 307.584 
L 57.6 41.472 
" style="fill: none; stroke: #000000; stroke-width: 0.8; stroke-linejoin: miter; stroke-linecap: square"/>
   </g>
   <g id="patch_4">
    <path d="M 414.72 307.584 
L 414.72 41.472 
" style="fill: none; stroke: #000000; stroke-width: 0.8; stroke-linejoin: miter; stroke-linecap: square"/>
   </g>
   <g id="patch_5">
    <path d="M 57.6 307.584 
L 414.72 307.584 
" style="fill: none; stroke: #000000; stroke-width: 0.8; stroke-linejoin: miter; stroke-linecap: square"/>
   </g>
   <g id="patch_6">
    <path d="M 57.6 41.472 
L 414.72 41.472 
" style="fill: none; stroke: #000000; stroke-width: 0.8; stroke-linejoin: miter; stroke-linecap: square"/>
   </g>
   <g id="text_20">
    <!-- Learning Curves -->
    <g transform="translate(187.37625 35.472) scale(0.12 -0.12)">
     <defs>
      <path id="DejaVuSans-4c" d="M 628 4666 
L 1259 4666 
L 1259 531 
L 3531 531 
L 3531 0 
L 628 0 
L 628 4666 
z
" transform="scale(0.015625)"/>
      <path id="DejaVuSans-65" d="M 3597 1894 
L 3597 1613 
L 953 1613 
Q 991 1019 1311 708 
Q 1631 397 2203 397 
Q 2534 397 2845 478 
Q 3156 559 3463 722 
L 3463 178 
Q 3153 47 2828 -22 
Q 2503 -91 2169 -91 
Q 1331 -91 842 396 
Q 353 884 353 1716 
Q 353 2575 817 3079 
Q 1281 3584 2069 3584 
Q 2775 3584 3186 3129 
Q 3597 2675 3597 1894 
z
M 3022 2063 
Q 3016 2534 2758 2815 
Q 2500 3097 2075 3097 
Q 1594 3097 1305 2825 
Q 1016 2553 972 2059 
L 3022 2063 
z
" transform="scale(0.015625)"/>
      <path id="DejaVuSans-6e" d="M 3513 2113 
L 3513 0 
L 2938 0 
L 2938 2094 
Q 2938 2591 2744 2837 
Q 2550 3084 2163 3084 
Q 1697 3084 1428 2787 
Q 1159 2491 1159 1978 
L 1159 0 
L 581 0 
L 581 3500 
L 1159 3500 
L 1159 2956 
Q 1366 3272 1645 3428 
Q 1925 3584 2291 3584 
Q 2894 3584 3203 3211 
Q 3513 2838 3513 2113 
z
" transform="scale(0.015625)"/>
      <path id="DejaVuSans-69" d="M 603 3500 
L 1178 3500 
L 1178 0 
L 603 0 
L 603 3500 
z
M 603 4863 
L 1178 4863 
L 1178 4134 
L 603 4134 
L 603 4863 
z
" transform="scale(0.015625)"/>
      <path id="DejaVuSans-67" d="M 2906 1791 
Q 2906 2416 2648 2759 
Q 2391 3103 1925 3103 
Q 1463 3103 1205 2759 
Q 947 2416 947 1791 
Q 947 1169 1205 825 
Q 1463 481 1925 481 
Q 2391 481 2648 825 
Q 2906 1169 2906 1791 
z
M 3481 434 
Q 3481 -459 3084 -895 
Q 2688 -1331 1869 -1331 
Q 1566 -1331 1297 -1286 
Q 1028 -1241 775 -1147 
L 775 -588 
Q 1028 -725 1275 -790 
Q 1522 -856 1778 -856 
Q 2344 -856 2625 -561 
Q 2906 -266 2906 331 
L 2906 616 
Q 2728 306 2450 153 
Q 2172 0 1784 0 
Q 1141 0 747 490 
Q 353 981 353 1791 
Q 353 2603 747 3093 
Q 1141 3584 1784 3584 
Q 2172 3584 2450 3431 
Q 2728 3278 2906 2969 
L 2906 3500 
L 3481 3500 
L 3481 434 
z
" transform="scale(0.015625)"/>
      <path id="DejaVuSans-20" transform="scale(0.015625)"/>
      <path id="DejaVuSans-43" d="M 4122 4306 
L 4122 3641 
Q 3803 3938 3442 4084 
Q 3081 4231 2675 4231 
Q 1875 4231 1450 3742 
Q 1025 3253 1025 2328 
Q 1025 1406 1450 917 
Q 1875 428 2675 428 
Q 3081 428 3442 575 
Q 3803 722 4122 1019 
L 4122 359 
Q 3791 134 3420 21 
Q 3050 -91 2638 -91 
Q 1578 -91 968 557 
Q 359 1206 359 2328 
Q 359 3453 968 4101 
Q 1578 4750 2638 4750 
Q 3056 4750 3426 4639 
Q 3797 4528 4122 4306 
z
" transform="scale(0.015625)"/>
      <path id="DejaVuSans-76" d="M 191 3500 
L 800 3500 
L 1894 563 
L 2988 3500 
L 3597 3500 
L 2284 0 
L 1503 0 
L 191 3500 
z
" transform="scale(0.015625)"/>
     </defs>
     <use xlink:href="#DejaVuSans-4c"/>
     <use xlink:href="#DejaVuSans-65" x="53.962891"/>
     <use xlink:href="#DejaVuSans-61" x="115.486328"/>
     <use xlink:href="#DejaVuSans-72" x="176.765625"/>
     <use xlink:href="#DejaVuSans-6e" x="216.128906"/>
     <use xlink:href="#DejaVuSans-69" x="279.507812"/>
     <use xlink:href="#DejaVuSans-6e" x="307.291016"/>
     <use xlink:href="#DejaVuSans-67" x="370.669922"/>
     <use xlink:href="#DejaVuSans-20" x="434.146484"/>
     <use xlink:href="#DejaVuSans-43" x="465.933594"/>
     <use xlink:href="#DejaVuSans-75" x="535.757812"/>
     <use xlink:href="#DejaVuSans-72" x="599.136719"/>
     <use xlink:href="#DejaVuSans-76" x="640.25"/>
     <use xlink:href="#DejaVuSans-65" x="699.429688"/>
     <use xlink:href="#DejaVuSans-73" x="760.953125"/>
    </g>
   </g>
   <g id="legend_1">
    <g id="patch_7">
     <path d="M 139.394375 302.584 
L 332.925625 302.584 
Q 334.925625 302.584 334.925625 300.584 
L 334.925625 228.193375 
Q 334.925625 226.193375 332.925625 226.193375 
L 139.394375 226.193375 
Q 137.394375 226.193375 137.394375 228.193375 
L 137.394375 300.584 
Q 137.394375 302.584 139.394375 302.584 
z
" style="fill: #ffffff; opacity: 0.8; stroke: #cccccc; stroke-linejoin: miter"/>
    </g>
    <g id="line2d_23">
     <path d="M 141.394375 234.291812 
L 151.394375 234.291812 
L 161.394375 234.291812 
" style="fill: none; stroke: #1f77b4; stroke-width: 1.5; stroke-linecap: square"/>
    </g>
    <g id="text_21">
     <!-- Train Accuracy -->
     <g transform="translate(169.394375 237.791812) scale(0.1 -0.1)">
      <defs>
       <path id="DejaVuSans-54" d="M -19 4666 
L 3928 4666 
L 3928 4134 
L 2272 4134 
L 2272 0 
L 1638 0 
L 1638 4134 
L -19 4134 
L -19 4666 
z
" transform="scale(0.015625)"/>
      </defs>
      <use xlink:href="#DejaVuSans-54"/>
      <use xlink:href="#DejaVuSans-72" x="46.333984"/>
      <use xlink:href="#DejaVuSans-61" x="87.447266"/>
      <use xlink:href="#DejaVuSans-69" x="148.726562"/>
      <use xlink:href="#DejaVuSans-6e" x="176.509766"/>
      <use xlink:href="#DejaVuSans-20" x="239.888672"/>
      <use xlink:href="#DejaVuSans-41" x="271.675781"/>
      <use xlink:href="#DejaVuSans-63" x="338.333984"/>
      <use xlink:href="#DejaVuSans-63" x="393.314453"/>
      <use xlink:href="#DejaVuSans-75" x="448.294922"/>
      <use xlink:href="#DejaVuSans-72" x="511.673828"/>
      <use xlink:href="#DejaVuSans-61" x="552.787109"/>
      <use xlink:href="#DejaVuSans-63" x="614.066406"/>
      <use xlink:href="#DejaVuSans-79" x="669.046875"/>
     </g>
    </g>
    <g id="line2d_24">
     <path d="M 141.394375 248.969937 
L 151.394375 248.969937 
L 161.394375 248.969937 
" style="fill: none; stroke: #ff7f0e; stroke-width: 1.5; stroke-linecap: square"/>
    </g>
    <g id="text_22">
     <!-- Validation Accuracy -->
     <g transform="translate(169.394375 252.469937) scale(0.1 -0.1)">
      <defs>
       <path id="DejaVuSans-56" d="M 1831 0 
L 50 4666 
L 709 4666 
L 2188 738 
L 3669 4666 
L 4325 4666 
L 2547 0 
L 1831 0 
z
" transform="scale(0.015625)"/>
       <path id="DejaVuSans-6c" d="M 603 4863 
L 1178 4863 
L 1178 0 
L 603 0 
L 603 4863 
z
" transform="scale(0.015625)"/>
       <path id="DejaVuSans-64" d="M 2906 2969 
L 2906 4863 
L 3481 4863 
L 3481 0 
L 2906 0 
L 2906 525 
Q 2725 213 2448 61 
Q 2172 -91 1784 -91 
Q 1150 -91 751 415 
Q 353 922 353 1747 
Q 353 2572 751 3078 
Q 1150 3584 1784 3584 
Q 2172 3584 2448 3432 
Q 2725 3281 2906 2969 
z
M 947 1747 
Q 947 1113 1208 752 
Q 1469 391 1925 391 
Q 2381 391 2643 752 
Q 2906 1113 2906 1747 
Q 2906 2381 2643 2742 
Q 2381 3103 1925 3103 
Q 1469 3103 1208 2742 
Q 947 2381 947 1747 
z
" transform="scale(0.015625)"/>
       <path id="DejaVuSans-74" d="M 1172 4494 
L 1172 3500 
L 2356 3500 
L 2356 3053 
L 1172 3053 
L 1172 1153 
Q 1172 725 1289 603 
Q 1406 481 1766 481 
L 2356 481 
L 2356 0 
L 1766 0 
Q 1100 0 847 248 
Q 594 497 594 1153 
L 594 3053 
L 172 3053 
L 172 3500 
L 594 3500 
L 594 4494 
L 1172 4494 
z
" transform="scale(0.015625)"/>
      </defs>
      <use xlink:href="#DejaVuSans-56"/>
      <use xlink:href="#DejaVuSans-61" x="60.658203"/>
      <use xlink:href="#DejaVuSans-6c" x="121.9375"/>
      <use xlink:href="#DejaVuSans-69" x="149.720703"/>
      <use xlink:href="#DejaVuSans-64" x="177.503906"/>
      <use xlink:href="#DejaVuSans-61" x="240.980469"/>
      <use xlink:href="#DejaVuSans-74" x="302.259766"/>
      <use xlink:href="#DejaVuSans-69" x="341.46875"/>
      <use xlink:href="#DejaVuSans-6f" x="369.251953"/>
      <use xlink:href="#DejaVuSans-6e" x="430.433594"/>
      <use xlink:href="#DejaVuSans-20" x="493.8125"/>
      <use xlink:href="#DejaVuSans-41" x="525.599609"/>
      <use xlink:href="#DejaVuSans-63" x="592.257812"/>
      <use xlink:href="#DejaVuSans-63" x="647.238281"/>
      <use xlink:href="#DejaVuSans-75" x="702.21875"/>
      <use xlink:href="#DejaVuSans-72" x="765.597656"/>
      <use xlink:href="#DejaVuSans-61" x="806.710938"/>
      <use xlink:href="#DejaVuSans-63" x="867.990234"/>
      <use xlink:href="#DejaVuSans-79" x="922.970703"/>
     </g>
    </g>
    <g id="line2d_25">
     <path d="M 141.394375 263.648062 
L 151.394375 263.648062 
L 161.394375 263.648062 
" style="fill: none; stroke: #2ca02c; stroke-width: 1.5; stroke-linecap: square"/>
    </g>
    <g id="text_23">
     <!-- Robust Validation Accuracy -->
     <g transform="translate(169.394375 267.148062) scale(0.1 -0.1)">
      <defs>
       <path id="DejaVuSans-52" d="M 2841 2188 
Q 3044 2119 3236 1894 
Q 3428 1669 3622 1275 
L 4263 0 
L 3584 0 
L 2988 1197 
Q 2756 1666 2539 1819 
Q 2322 1972 1947 1972 
L 1259 1972 
L 1259 0 
L 628 0 
L 628 4666 
L 2053 4666 
Q 2853 4666 3247 4331 
Q 3641 3997 3641 3322 
Q 3641 2881 3436 2590 
Q 3231 2300 2841 2188 
z
M 1259 4147 
L 1259 2491 
L 2053 2491 
Q 2509 2491 2742 2702 
Q 2975 2913 2975 3322 
Q 2975 3731 2742 3939 
Q 2509 4147 2053 4147 
L 1259 4147 
z
" transform="scale(0.015625)"/>
       <path id="DejaVuSans-62" d="M 3116 1747 
Q 3116 2381 2855 2742 
Q 2594 3103 2138 3103 
Q 1681 3103 1420 2742 
Q 1159 2381 1159 1747 
Q 1159 1113 1420 752 
Q 1681 391 2138 391 
Q 2594 391 2855 752 
Q 3116 1113 3116 1747 
z
M 1159 2969 
Q 1341 3281 1617 3432 
Q 1894 3584 2278 3584 
Q 2916 3584 3314 3078 
Q 3713 2572 3713 1747 
Q 3713 922 3314 415 
Q 2916 -91 2278 -91 
Q 1894 -91 1617 61 
Q 1341 213 1159 525 
L 1159 0 
L 581 0 
L 581 4863 
L 1159 4863 
L 1159 2969 
z
" transform="scale(0.015625)"/>
      </defs>
      <use xlink:href="#DejaVuSans-52"/>
      <use xlink:href="#DejaVuSans-6f" x="64.982422"/>
      <use xlink:href="#DejaVuSans-62" x="126.164062"/>
      <use xlink:href="#DejaVuSans-75" x="189.640625"/>
      <use xlink:href="#DejaVuSans-73" x="253.019531"/>
      <use xlink:href="#DejaVuSans-74" x="305.119141"/>
      <use xlink:href="#DejaVuSans-20" x="344.328125"/>
      <use xlink:href="#DejaVuSans-56" x="376.115234"/>
      <use xlink:href="#DejaVuSans-61" x="436.773438"/>
      <use xlink:href="#DejaVuSans-6c" x="498.052734"/>
      <use xlink:href="#DejaVuSans-69" x="525.835938"/>
      <use xlink:href="#DejaVuSans-64" x="553.619141"/>
      <use xlink:href="#DejaVuSans-61" x="617.095703"/>
      <use xlink:href="#DejaVuSans-74" x="678.375"/>
      <use xlink:href="#DejaVuSans-69" x="717.583984"/>
      <use xlink:href="#DejaVuSans-6f" x="745.367188"/>
      <use xlink:href="#DejaVuSans-6e" x="806.548828"/>
      <use xlink:href="#DejaVuSans-20" x="869.927734"/>
      <use xlink:href="#DejaVuSans-41" x="901.714844"/>
      <use xlink:href="#DejaVuSans-63" x="968.373047"/>
      <use xlink:href="#DejaVuSans-63" x="1023.353516"/>
      <use xlink:href="#DejaVuSans-75" x="1078.333984"/>
      <use xlink:href="#DejaVuSans-72" x="1141.712891"/>
      <use xlink:href="#DejaVuSans-61" x="1182.826172"/>
      <use xlink:href="#DejaVuSans-63" x="1244.105469"/>
      <use xlink:href="#DejaVuSans-79" x="1299.085938"/>
     </g>
    </g>
    <g id="line2d_26">
     <path d="M 141.394375 278.326188 
L 151.394375 278.326188 
L 161.394375 278.326188 
" style="fill: none; stroke: #d62728; stroke-width: 1.5; stroke-linecap: square"/>
    </g>
    <g id="text_24">
     <!-- SWA Validation Accuracy -->
     <g transform="translate(169.394375 281.826188) scale(0.1 -0.1)">
      <defs>
       <path id="DejaVuSans-53" d="M 3425 4513 
L 3425 3897 
Q 3066 4069 2747 4153 
Q 2428 4238 2131 4238 
Q 1616 4238 1336 4038 
Q 1056 3838 1056 3469 
Q 1056 3159 1242 3001 
Q 1428 2844 1947 2747 
L 2328 2669 
Q 3034 2534 3370 2195 
Q 3706 1856 3706 1288 
Q 3706 609 3251 259 
Q 2797 -91 1919 -91 
Q 1588 -91 1214 -16 
Q 841 59 441 206 
L 441 856 
Q 825 641 1194 531 
Q 1563 422 1919 422 
Q 2459 422 2753 634 
Q 3047 847 3047 1241 
Q 3047 1584 2836 1778 
Q 2625 1972 2144 2069 
L 1759 2144 
Q 1053 2284 737 2584 
Q 422 2884 422 3419 
Q 422 4038 858 4394 
Q 1294 4750 2059 4750 
Q 2388 4750 2728 4690 
Q 3069 4631 3425 4513 
z
" transform="scale(0.015625)"/>
       <path id="DejaVuSans-57" d="M 213 4666 
L 850 4666 
L 1831 722 
L 2809 4666 
L 3519 4666 
L 4500 722 
L 5478 4666 
L 6119 4666 
L 4947 0 
L 4153 0 
L 3169 4050 
L 2175 0 
L 1381 0 
L 213 4666 
z
" transform="scale(0.015625)"/>
      </defs>
      <use xlink:href="#DejaVuSans-53"/>
      <use xlink:href="#DejaVuSans-57" x="63.476562"/>
      <use xlink:href="#DejaVuSans-41" x="156.853516"/>
      <use xlink:href="#DejaVuSans-20" x="225.261719"/>
      <use xlink:href="#DejaVuSans-56" x="257.048828"/>
      <use xlink:href="#DejaVuSans-61" x="317.707031"/>
      <use xlink:href="#DejaVuSans-6c" x="378.986328"/>
      <use xlink:href="#DejaVuSans-69" x="406.769531"/>
      <use xlink:href="#DejaVuSans-64" x="434.552734"/>
      <use xlink:href="#DejaVuSans-61" x="498.029297"/>
      <use xlink:href="#DejaVuSans-74" x="559.308594"/>
      <use xlink:href="#DejaVuSans-69" x="598.517578"/>
      <use xlink:href="#DejaVuSans-6f" x="626.300781"/>
      <use xlink:href="#DejaVuSans-6e" x="687.482422"/>
      <use xlink:href="#DejaVuSans-20" x="750.861328"/>
      <use xlink:href="#DejaVuSans-41" x="782.648438"/>
      <use xlink:href="#DejaVuSans-63" x="849.306641"/>
      <use xlink:href="#DejaVuSans-63" x="904.287109"/>
      <use xlink:href="#DejaVuSans-75" x="959.267578"/>
      <use xlink:href="#DejaVuSans-72" x="1022.646484"/>
      <use xlink:href="#DejaVuSans-61" x="1063.759766"/>
      <use xlink:href="#DejaVuSans-63" x="1125.039062"/>
      <use xlink:href="#DejaVuSans-79" x="1180.019531"/>
     </g>
    </g>
    <g id="line2d_27">
     <path d="M 141.394375 293.004312 
L 151.394375 293.004312 
L 161.394375 293.004312 
" style="fill: none; stroke: #9467bd; stroke-width: 1.5; stroke-linecap: square"/>
    </g>
    <g id="text_25">
     <!-- SWA Robust Validation Accuracy -->
     <g transform="translate(169.394375 296.504312) scale(0.1 -0.1)">
      <use xlink:href="#DejaVuSans-53"/>
      <use xlink:href="#DejaVuSans-57" x="63.476562"/>
      <use xlink:href="#DejaVuSans-41" x="156.853516"/>
      <use xlink:href="#DejaVuSans-20" x="225.261719"/>
      <use xlink:href="#DejaVuSans-52" x="257.048828"/>
      <use xlink:href="#DejaVuSans-6f" x="322.03125"/>
      <use xlink:href="#DejaVuSans-62" x="383.212891"/>
      <use xlink:href="#DejaVuSans-75" x="446.689453"/>
      <use xlink:href="#DejaVuSans-73" x="510.068359"/>
      <use xlink:href="#DejaVuSans-74" x="562.167969"/>
      <use xlink:href="#DejaVuSans-20" x="601.376953"/>
      <use xlink:href="#DejaVuSans-56" x="633.164062"/>
      <use xlink:href="#DejaVuSans-61" x="693.822266"/>
      <use xlink:href="#DejaVuSans-6c" x="755.101562"/>
      <use xlink:href="#DejaVuSans-69" x="782.884766"/>
      <use xlink:href="#DejaVuSans-64" x="810.667969"/>
      <use xlink:href="#DejaVuSans-61" x="874.144531"/>
      <use xlink:href="#DejaVuSans-74" x="935.423828"/>
      <use xlink:href="#DejaVuSans-69" x="974.632812"/>
      <use xlink:href="#DejaVuSans-6f" x="1002.416016"/>
      <use xlink:href="#DejaVuSans-6e" x="1063.597656"/>
      <use xlink:href="#DejaVuSans-20" x="1126.976562"/>
      <use xlink:href="#DejaVuSans-41" x="1158.763672"/>
      <use xlink:href="#DejaVuSans-63" x="1225.421875"/>
      <use xlink:href="#DejaVuSans-63" x="1280.402344"/>
      <use xlink:href="#DejaVuSans-75" x="1335.382812"/>
      <use xlink:href="#DejaVuSans-72" x="1398.761719"/>
      <use xlink:href="#DejaVuSans-61" x="1439.875"/>
      <use xlink:href="#DejaVuSans-63" x="1501.154297"/>
      <use xlink:href="#DejaVuSans-79" x="1556.134766"/>
     </g>
    </g>
   </g>
  </g>
 </g>
 <defs>
  <clipPath id="pe8853dac93">
   <rect x="57.6" y="41.472" width="357.12" height="266.112"/>
  </clipPath>
 </defs>
</svg>
