<?xml version="1.0" encoding="utf-8" standalone="no"?>
<!DOCTYPE svg PUBLIC "-//W3C//DTD SVG 1.1//EN"
  "http://www.w3.org/Graphics/SVG/1.1/DTD/svg11.dtd">
<svg xmlns:xlink="http://www.w3.org/1999/xlink" width="460.8pt" height="345.6pt" viewBox="0 0 460.8 345.6" xmlns="http://www.w3.org/2000/svg" version="1.1">
 <metadata>
  <rdf:RDF xmlns:dc="http://purl.org/dc/elements/1.1/" xmlns:cc="http://creativecommons.org/ns#" xmlns:rdf="http://www.w3.org/1999/02/22-rdf-syntax-ns#">
   <cc:Work>
    <dc:type rdf:resource="http://purl.org/dc/dcmitype/StillImage"/>
    <dc:date>2025-05-07T02:41:23.935506</dc:date>
    <dc:format>image/svg+xml</dc:format>
    <dc:creator>
     <cc:Agent>
      <dc:title>Matplotlib v3.9.1, https://matplotlib.org/</dc:title>
     </cc:Agent>
    </dc:creator>
   </cc:Work>
  </rdf:RDF>
 </metadata>
 <defs>
  <style type="text/css">*{stroke-linejoin: round; stroke-linecap: butt}</style>
 </defs>
 <g id="figure_1">
  <g id="patch_1">
   <path d="M 0 345.6 
L 460.8 345.6 
L 460.8 0 
L 0 0 
z
" style="fill: #ffffff"/>
  </g>
  <g id="axes_1">
   <g id="patch_2">
    <path d="M 57.6 307.584 
L 414.72 307.584 
L 414.72 41.472 
L 57.6 41.472 
z
" style="fill: #ffffff"/>
   </g>
   <g id="matplotlib.axis_1">
    <g id="xtick_1">
     <g id="line2d_1">
      <defs>
       <path id="mb3e1db280a" d="M 0 0 
L 0 3.5 
" style="stroke: #000000; stroke-width: 0.8"/>
      </defs>
      <g>
       <use xlink:href="#mb3e1db280a" x="73.832727" y="307.584" style="stroke: #000000; stroke-width: 0.8"/>
      </g>
     </g>
     <g id="text_1">
      <!-- 1 -->
      <g transform="translate(70.651477 322.182437) scale(0.1 -0.1)">
       <defs>
        <path id="DejaVuSans-31" d="M 794 531 
L 1825 531 
L 1825 4091 
L 703 3866 
L 703 4441 
L 1819 4666 
L 2450 4666 
L 2450 531 
L 3481 531 
L 3481 0 
L 794 0 
L 794 531 
z
" transform="scale(0.015625)"/>
       </defs>
       <use xlink:href="#DejaVuSans-31"/>
      </g>
     </g>
    </g>
    <g id="xtick_2">
     <g id="line2d_2">
      <g>
       <use xlink:href="#mb3e1db280a" x="109.664165" y="307.584" style="stroke: #000000; stroke-width: 0.8"/>
      </g>
     </g>
     <g id="text_2">
      <!-- 34 -->
      <g transform="translate(103.301665 322.182437) scale(0.1 -0.1)">
       <defs>
        <path id="DejaVuSans-33" d="M 2597 2516 
Q 3050 2419 3304 2112 
Q 3559 1806 3559 1356 
Q 3559 666 3084 287 
Q 2609 -91 1734 -91 
Q 1441 -91 1130 -33 
Q 819 25 488 141 
L 488 750 
Q 750 597 1062 519 
Q 1375 441 1716 441 
Q 2309 441 2620 675 
Q 2931 909 2931 1356 
Q 2931 1769 2642 2001 
Q 2353 2234 1838 2234 
L 1294 2234 
L 1294 2753 
L 1863 2753 
Q 2328 2753 2575 2939 
Q 2822 3125 2822 3475 
Q 2822 3834 2567 4026 
Q 2313 4219 1838 4219 
Q 1578 4219 1281 4162 
Q 984 4106 628 3988 
L 628 4550 
Q 988 4650 1302 4700 
Q 1616 4750 1894 4750 
Q 2613 4750 3031 4423 
Q 3450 4097 3450 3541 
Q 3450 3153 3228 2886 
Q 3006 2619 2597 2516 
z
" transform="scale(0.015625)"/>
        <path id="DejaVuSans-34" d="M 2419 4116 
L 825 1625 
L 2419 1625 
L 2419 4116 
z
M 2253 4666 
L 3047 4666 
L 3047 1625 
L 3713 1625 
L 3713 1100 
L 3047 1100 
L 3047 0 
L 2419 0 
L 2419 1100 
L 313 1100 
L 313 1709 
L 2253 4666 
z
" transform="scale(0.015625)"/>
       </defs>
       <use xlink:href="#DejaVuSans-33"/>
       <use xlink:href="#DejaVuSans-34" x="63.623047"/>
      </g>
     </g>
    </g>
    <g id="xtick_3">
     <g id="line2d_3">
      <g>
       <use xlink:href="#mb3e1db280a" x="145.495604" y="307.584" style="stroke: #000000; stroke-width: 0.8"/>
      </g>
     </g>
     <g id="text_3">
      <!-- 67 -->
      <g transform="translate(139.133104 322.182437) scale(0.1 -0.1)">
       <defs>
        <path id="DejaVuSans-36" d="M 2113 2584 
Q 1688 2584 1439 2293 
Q 1191 2003 1191 1497 
Q 1191 994 1439 701 
Q 1688 409 2113 409 
Q 2538 409 2786 701 
Q 3034 994 3034 1497 
Q 3034 2003 2786 2293 
Q 2538 2584 2113 2584 
z
M 3366 4563 
L 3366 3988 
Q 3128 4100 2886 4159 
Q 2644 4219 2406 4219 
Q 1781 4219 1451 3797 
Q 1122 3375 1075 2522 
Q 1259 2794 1537 2939 
Q 1816 3084 2150 3084 
Q 2853 3084 3261 2657 
Q 3669 2231 3669 1497 
Q 3669 778 3244 343 
Q 2819 -91 2113 -91 
Q 1303 -91 875 529 
Q 447 1150 447 2328 
Q 447 3434 972 4092 
Q 1497 4750 2381 4750 
Q 2619 4750 2861 4703 
Q 3103 4656 3366 4563 
z
" transform="scale(0.015625)"/>
        <path id="DejaVuSans-37" d="M 525 4666 
L 3525 4666 
L 3525 4397 
L 1831 0 
L 1172 0 
L 2766 4134 
L 525 4134 
L 525 4666 
z
" transform="scale(0.015625)"/>
       </defs>
       <use xlink:href="#DejaVuSans-36"/>
       <use xlink:href="#DejaVuSans-37" x="63.623047"/>
      </g>
     </g>
    </g>
    <g id="xtick_4">
     <g id="line2d_4">
      <g>
       <use xlink:href="#mb3e1db280a" x="181.327042" y="307.584" style="stroke: #000000; stroke-width: 0.8"/>
      </g>
     </g>
     <g id="text_4">
      <!-- 100 -->
      <g transform="translate(171.783292 322.182437) scale(0.1 -0.1)">
       <defs>
        <path id="DejaVuSans-30" d="M 2034 4250 
Q 1547 4250 1301 3770 
Q 1056 3291 1056 2328 
Q 1056 1369 1301 889 
Q 1547 409 2034 409 
Q 2525 409 2770 889 
Q 3016 1369 3016 2328 
Q 3016 3291 2770 3770 
Q 2525 4250 2034 4250 
z
M 2034 4750 
Q 2819 4750 3233 4129 
Q 3647 3509 3647 2328 
Q 3647 1150 3233 529 
Q 2819 -91 2034 -91 
Q 1250 -91 836 529 
Q 422 1150 422 2328 
Q 422 3509 836 4129 
Q 1250 4750 2034 4750 
z
" transform="scale(0.015625)"/>
       </defs>
       <use xlink:href="#DejaVuSans-31"/>
       <use xlink:href="#DejaVuSans-30" x="63.623047"/>
       <use xlink:href="#DejaVuSans-30" x="127.246094"/>
      </g>
     </g>
    </g>
    <g id="xtick_5">
     <g id="line2d_5">
      <g>
       <use xlink:href="#mb3e1db280a" x="217.15848" y="307.584" style="stroke: #000000; stroke-width: 0.8"/>
      </g>
     </g>
     <g id="text_5">
      <!-- 133 -->
      <g transform="translate(207.61473 322.182437) scale(0.1 -0.1)">
       <use xlink:href="#DejaVuSans-31"/>
       <use xlink:href="#DejaVuSans-33" x="63.623047"/>
       <use xlink:href="#DejaVuSans-33" x="127.246094"/>
      </g>
     </g>
    </g>
    <g id="xtick_6">
     <g id="line2d_6">
      <g>
       <use xlink:href="#mb3e1db280a" x="254.075719" y="307.584" style="stroke: #000000; stroke-width: 0.8"/>
      </g>
     </g>
     <g id="text_6">
      <!-- 167 -->
      <g transform="translate(244.531969 322.182437) scale(0.1 -0.1)">
       <use xlink:href="#DejaVuSans-31"/>
       <use xlink:href="#DejaVuSans-36" x="63.623047"/>
       <use xlink:href="#DejaVuSans-37" x="127.246094"/>
      </g>
     </g>
    </g>
    <g id="xtick_7">
     <g id="line2d_7">
      <g>
       <use xlink:href="#mb3e1db280a" x="289.907157" y="307.584" style="stroke: #000000; stroke-width: 0.8"/>
      </g>
     </g>
     <g id="text_7">
      <!-- 200 -->
      <g transform="translate(280.363407 322.182437) scale(0.1 -0.1)">
       <defs>
        <path id="DejaVuSans-32" d="M 1228 531 
L 3431 531 
L 3431 0 
L 469 0 
L 469 531 
Q 828 903 1448 1529 
Q 2069 2156 2228 2338 
Q 2531 2678 2651 2914 
Q 2772 3150 2772 3378 
Q 2772 3750 2511 3984 
Q 2250 4219 1831 4219 
Q 1534 4219 1204 4116 
Q 875 4013 500 3803 
L 500 4441 
Q 881 4594 1212 4672 
Q 1544 4750 1819 4750 
Q 2544 4750 2975 4387 
Q 3406 4025 3406 3419 
Q 3406 3131 3298 2873 
Q 3191 2616 2906 2266 
Q 2828 2175 2409 1742 
Q 1991 1309 1228 531 
z
" transform="scale(0.015625)"/>
       </defs>
       <use xlink:href="#DejaVuSans-32"/>
       <use xlink:href="#DejaVuSans-30" x="63.623047"/>
       <use xlink:href="#DejaVuSans-30" x="127.246094"/>
      </g>
     </g>
    </g>
    <g id="xtick_8">
     <g id="line2d_8">
      <g>
       <use xlink:href="#mb3e1db280a" x="325.738595" y="307.584" style="stroke: #000000; stroke-width: 0.8"/>
      </g>
     </g>
     <g id="text_8">
      <!-- 233 -->
      <g transform="translate(316.194845 322.182437) scale(0.1 -0.1)">
       <use xlink:href="#DejaVuSans-32"/>
       <use xlink:href="#DejaVuSans-33" x="63.623047"/>
       <use xlink:href="#DejaVuSans-33" x="127.246094"/>
      </g>
     </g>
    </g>
    <g id="xtick_9">
     <g id="line2d_9">
      <g>
       <use xlink:href="#mb3e1db280a" x="361.570033" y="307.584" style="stroke: #000000; stroke-width: 0.8"/>
      </g>
     </g>
     <g id="text_9">
      <!-- 266 -->
      <g transform="translate(352.026283 322.182437) scale(0.1 -0.1)">
       <use xlink:href="#DejaVuSans-32"/>
       <use xlink:href="#DejaVuSans-36" x="63.623047"/>
       <use xlink:href="#DejaVuSans-36" x="127.246094"/>
      </g>
     </g>
    </g>
    <g id="xtick_10">
     <g id="line2d_10">
      <g>
       <use xlink:href="#mb3e1db280a" x="398.487273" y="307.584" style="stroke: #000000; stroke-width: 0.8"/>
      </g>
     </g>
     <g id="text_10">
      <!-- 300 -->
      <g transform="translate(388.943523 322.182437) scale(0.1 -0.1)">
       <use xlink:href="#DejaVuSans-33"/>
       <use xlink:href="#DejaVuSans-30" x="63.623047"/>
       <use xlink:href="#DejaVuSans-30" x="127.246094"/>
      </g>
     </g>
    </g>
    <g id="text_11">
     <!-- Epochs -->
     <g transform="translate(218.244375 335.860562) scale(0.1 -0.1)">
      <defs>
       <path id="DejaVuSans-45" d="M 628 4666 
L 3578 4666 
L 3578 4134 
L 1259 4134 
L 1259 2753 
L 3481 2753 
L 3481 2222 
L 1259 2222 
L 1259 531 
L 3634 531 
L 3634 0 
L 628 0 
L 628 4666 
z
" transform="scale(0.015625)"/>
       <path id="DejaVuSans-70" d="M 1159 525 
L 1159 -1331 
L 581 -1331 
L 581 3500 
L 1159 3500 
L 1159 2969 
Q 1341 3281 1617 3432 
Q 1894 3584 2278 3584 
Q 2916 3584 3314 3078 
Q 3713 2572 3713 1747 
Q 3713 922 3314 415 
Q 2916 -91 2278 -91 
Q 1894 -91 1617 61 
Q 1341 213 1159 525 
z
M 3116 1747 
Q 3116 2381 2855 2742 
Q 2594 3103 2138 3103 
Q 1681 3103 1420 2742 
Q 1159 2381 1159 1747 
Q 1159 1113 1420 752 
Q 1681 391 2138 391 
Q 2594 391 2855 752 
Q 3116 1113 3116 1747 
z
" transform="scale(0.015625)"/>
       <path id="DejaVuSans-6f" d="M 1959 3097 
Q 1497 3097 1228 2736 
Q 959 2375 959 1747 
Q 959 1119 1226 758 
Q 1494 397 1959 397 
Q 2419 397 2687 759 
Q 2956 1122 2956 1747 
Q 2956 2369 2687 2733 
Q 2419 3097 1959 3097 
z
M 1959 3584 
Q 2709 3584 3137 3096 
Q 3566 2609 3566 1747 
Q 3566 888 3137 398 
Q 2709 -91 1959 -91 
Q 1206 -91 779 398 
Q 353 888 353 1747 
Q 353 2609 779 3096 
Q 1206 3584 1959 3584 
z
" transform="scale(0.015625)"/>
       <path id="DejaVuSans-63" d="M 3122 3366 
L 3122 2828 
Q 2878 2963 2633 3030 
Q 2388 3097 2138 3097 
Q 1578 3097 1268 2742 
Q 959 2388 959 1747 
Q 959 1106 1268 751 
Q 1578 397 2138 397 
Q 2388 397 2633 464 
Q 2878 531 3122 666 
L 3122 134 
Q 2881 22 2623 -34 
Q 2366 -91 2075 -91 
Q 1284 -91 818 406 
Q 353 903 353 1747 
Q 353 2603 823 3093 
Q 1294 3584 2113 3584 
Q 2378 3584 2631 3529 
Q 2884 3475 3122 3366 
z
" transform="scale(0.015625)"/>
       <path id="DejaVuSans-68" d="M 3513 2113 
L 3513 0 
L 2938 0 
L 2938 2094 
Q 2938 2591 2744 2837 
Q 2550 3084 2163 3084 
Q 1697 3084 1428 2787 
Q 1159 2491 1159 1978 
L 1159 0 
L 581 0 
L 581 4863 
L 1159 4863 
L 1159 2956 
Q 1366 3272 1645 3428 
Q 1925 3584 2291 3584 
Q 2894 3584 3203 3211 
Q 3513 2838 3513 2113 
z
" transform="scale(0.015625)"/>
       <path id="DejaVuSans-73" d="M 2834 3397 
L 2834 2853 
Q 2591 2978 2328 3040 
Q 2066 3103 1784 3103 
Q 1356 3103 1142 2972 
Q 928 2841 928 2578 
Q 928 2378 1081 2264 
Q 1234 2150 1697 2047 
L 1894 2003 
Q 2506 1872 2764 1633 
Q 3022 1394 3022 966 
Q 3022 478 2636 193 
Q 2250 -91 1575 -91 
Q 1294 -91 989 -36 
Q 684 19 347 128 
L 347 722 
Q 666 556 975 473 
Q 1284 391 1588 391 
Q 1994 391 2212 530 
Q 2431 669 2431 922 
Q 2431 1156 2273 1281 
Q 2116 1406 1581 1522 
L 1381 1569 
Q 847 1681 609 1914 
Q 372 2147 372 2553 
Q 372 3047 722 3315 
Q 1072 3584 1716 3584 
Q 2034 3584 2315 3537 
Q 2597 3491 2834 3397 
z
" transform="scale(0.015625)"/>
      </defs>
      <use xlink:href="#DejaVuSans-45"/>
      <use xlink:href="#DejaVuSans-70" x="63.183594"/>
      <use xlink:href="#DejaVuSans-6f" x="126.660156"/>
      <use xlink:href="#DejaVuSans-63" x="187.841797"/>
      <use xlink:href="#DejaVuSans-68" x="242.822266"/>
      <use xlink:href="#DejaVuSans-73" x="306.201172"/>
     </g>
    </g>
   </g>
   <g id="matplotlib.axis_2">
    <g id="ytick_1">
     <g id="line2d_11">
      <defs>
       <path id="me3c704aa22" d="M 0 0 
L -3.5 0 
" style="stroke: #000000; stroke-width: 0.8"/>
      </defs>
      <g>
       <use xlink:href="#me3c704aa22" x="57.6" y="287.207094" style="stroke: #000000; stroke-width: 0.8"/>
      </g>
     </g>
     <g id="text_12">
      <!-- 10 -->
      <g transform="translate(37.875 291.006312) scale(0.1 -0.1)">
       <use xlink:href="#DejaVuSans-31"/>
       <use xlink:href="#DejaVuSans-30" x="63.623047"/>
      </g>
     </g>
    </g>
    <g id="ytick_2">
     <g id="line2d_12">
      <g>
       <use xlink:href="#me3c704aa22" x="57.6" y="257.412269" style="stroke: #000000; stroke-width: 0.8"/>
      </g>
     </g>
     <g id="text_13">
      <!-- 20 -->
      <g transform="translate(37.875 261.211488) scale(0.1 -0.1)">
       <use xlink:href="#DejaVuSans-32"/>
       <use xlink:href="#DejaVuSans-30" x="63.623047"/>
      </g>
     </g>
    </g>
    <g id="ytick_3">
     <g id="line2d_13">
      <g>
       <use xlink:href="#me3c704aa22" x="57.6" y="227.617445" style="stroke: #000000; stroke-width: 0.8"/>
      </g>
     </g>
     <g id="text_14">
      <!-- 30 -->
      <g transform="translate(37.875 231.416664) scale(0.1 -0.1)">
       <use xlink:href="#DejaVuSans-33"/>
       <use xlink:href="#DejaVuSans-30" x="63.623047"/>
      </g>
     </g>
    </g>
    <g id="ytick_4">
     <g id="line2d_14">
      <g>
       <use xlink:href="#me3c704aa22" x="57.6" y="197.822621" style="stroke: #000000; stroke-width: 0.8"/>
      </g>
     </g>
     <g id="text_15">
      <!-- 40 -->
      <g transform="translate(37.875 201.62184) scale(0.1 -0.1)">
       <use xlink:href="#DejaVuSans-34"/>
       <use xlink:href="#DejaVuSans-30" x="63.623047"/>
      </g>
     </g>
    </g>
    <g id="ytick_5">
     <g id="line2d_15">
      <g>
       <use xlink:href="#me3c704aa22" x="57.6" y="168.027797" style="stroke: #000000; stroke-width: 0.8"/>
      </g>
     </g>
     <g id="text_16">
      <!-- 50 -->
      <g transform="translate(37.875 171.827016) scale(0.1 -0.1)">
       <defs>
        <path id="DejaVuSans-35" d="M 691 4666 
L 3169 4666 
L 3169 4134 
L 1269 4134 
L 1269 2991 
Q 1406 3038 1543 3061 
Q 1681 3084 1819 3084 
Q 2600 3084 3056 2656 
Q 3513 2228 3513 1497 
Q 3513 744 3044 326 
Q 2575 -91 1722 -91 
Q 1428 -91 1123 -41 
Q 819 9 494 109 
L 494 744 
Q 775 591 1075 516 
Q 1375 441 1709 441 
Q 2250 441 2565 725 
Q 2881 1009 2881 1497 
Q 2881 1984 2565 2268 
Q 2250 2553 1709 2553 
Q 1456 2553 1204 2497 
Q 953 2441 691 2322 
L 691 4666 
z
" transform="scale(0.015625)"/>
       </defs>
       <use xlink:href="#DejaVuSans-35"/>
       <use xlink:href="#DejaVuSans-30" x="63.623047"/>
      </g>
     </g>
    </g>
    <g id="ytick_6">
     <g id="line2d_16">
      <g>
       <use xlink:href="#me3c704aa22" x="57.6" y="138.232973" style="stroke: #000000; stroke-width: 0.8"/>
      </g>
     </g>
     <g id="text_17">
      <!-- 60 -->
      <g transform="translate(37.875 142.032191) scale(0.1 -0.1)">
       <use xlink:href="#DejaVuSans-36"/>
       <use xlink:href="#DejaVuSans-30" x="63.623047"/>
      </g>
     </g>
    </g>
    <g id="ytick_7">
     <g id="line2d_17">
      <g>
       <use xlink:href="#me3c704aa22" x="57.6" y="108.438148" style="stroke: #000000; stroke-width: 0.8"/>
      </g>
     </g>
     <g id="text_18">
      <!-- 70 -->
      <g transform="translate(37.875 112.237367) scale(0.1 -0.1)">
       <use xlink:href="#DejaVuSans-37"/>
       <use xlink:href="#DejaVuSans-30" x="63.623047"/>
      </g>
     </g>
    </g>
    <g id="ytick_8">
     <g id="line2d_18">
      <g>
       <use xlink:href="#me3c704aa22" x="57.6" y="78.643324" style="stroke: #000000; stroke-width: 0.8"/>
      </g>
     </g>
     <g id="text_19">
      <!-- 80 -->
      <g transform="translate(37.875 82.442543) scale(0.1 -0.1)">
       <defs>
        <path id="DejaVuSans-38" d="M 2034 2216 
Q 1584 2216 1326 1975 
Q 1069 1734 1069 1313 
Q 1069 891 1326 650 
Q 1584 409 2034 409 
Q 2484 409 2743 651 
Q 3003 894 3003 1313 
Q 3003 1734 2745 1975 
Q 2488 2216 2034 2216 
z
M 1403 2484 
Q 997 2584 770 2862 
Q 544 3141 544 3541 
Q 544 4100 942 4425 
Q 1341 4750 2034 4750 
Q 2731 4750 3128 4425 
Q 3525 4100 3525 3541 
Q 3525 3141 3298 2862 
Q 3072 2584 2669 2484 
Q 3125 2378 3379 2068 
Q 3634 1759 3634 1313 
Q 3634 634 3220 271 
Q 2806 -91 2034 -91 
Q 1263 -91 848 271 
Q 434 634 434 1313 
Q 434 1759 690 2068 
Q 947 2378 1403 2484 
z
M 1172 3481 
Q 1172 3119 1398 2916 
Q 1625 2713 2034 2713 
Q 2441 2713 2670 2916 
Q 2900 3119 2900 3481 
Q 2900 3844 2670 4047 
Q 2441 4250 2034 4250 
Q 1625 4250 1398 4047 
Q 1172 3844 1172 3481 
z
" transform="scale(0.015625)"/>
       </defs>
       <use xlink:href="#DejaVuSans-38"/>
       <use xlink:href="#DejaVuSans-30" x="63.623047"/>
      </g>
     </g>
    </g>
    <g id="ytick_9">
     <g id="line2d_19">
      <g>
       <use xlink:href="#me3c704aa22" x="57.6" y="48.8485" style="stroke: #000000; stroke-width: 0.8"/>
      </g>
     </g>
     <g id="text_20">
      <!-- 90 -->
      <g transform="translate(37.875 52.647719) scale(0.1 -0.1)">
       <defs>
        <path id="DejaVuSans-39" d="M 703 97 
L 703 672 
Q 941 559 1184 500 
Q 1428 441 1663 441 
Q 2288 441 2617 861 
Q 2947 1281 2994 2138 
Q 2813 1869 2534 1725 
Q 2256 1581 1919 1581 
Q 1219 1581 811 2004 
Q 403 2428 403 3163 
Q 403 3881 828 4315 
Q 1253 4750 1959 4750 
Q 2769 4750 3195 4129 
Q 3622 3509 3622 2328 
Q 3622 1225 3098 567 
Q 2575 -91 1691 -91 
Q 1453 -91 1209 -44 
Q 966 3 703 97 
z
M 1959 2075 
Q 2384 2075 2632 2365 
Q 2881 2656 2881 3163 
Q 2881 3666 2632 3958 
Q 2384 4250 1959 4250 
Q 1534 4250 1286 3958 
Q 1038 3666 1038 3163 
Q 1038 2656 1286 2365 
Q 1534 2075 1959 2075 
z
" transform="scale(0.015625)"/>
       </defs>
       <use xlink:href="#DejaVuSans-39"/>
       <use xlink:href="#DejaVuSans-30" x="63.623047"/>
      </g>
     </g>
    </g>
    <g id="text_21">
     <!-- Accuracy -->
     <g transform="translate(31.795312 197.356125) rotate(-90) scale(0.1 -0.1)">
      <defs>
       <path id="DejaVuSans-41" d="M 2188 4044 
L 1331 1722 
L 3047 1722 
L 2188 4044 
z
M 1831 4666 
L 2547 4666 
L 4325 0 
L 3669 0 
L 3244 1197 
L 1141 1197 
L 716 0 
L 50 0 
L 1831 4666 
z
" transform="scale(0.015625)"/>
       <path id="DejaVuSans-75" d="M 544 1381 
L 544 3500 
L 1119 3500 
L 1119 1403 
Q 1119 906 1312 657 
Q 1506 409 1894 409 
Q 2359 409 2629 706 
Q 2900 1003 2900 1516 
L 2900 3500 
L 3475 3500 
L 3475 0 
L 2900 0 
L 2900 538 
Q 2691 219 2414 64 
Q 2138 -91 1772 -91 
Q 1169 -91 856 284 
Q 544 659 544 1381 
z
M 1991 3584 
L 1991 3584 
z
" transform="scale(0.015625)"/>
       <path id="DejaVuSans-72" d="M 2631 2963 
Q 2534 3019 2420 3045 
Q 2306 3072 2169 3072 
Q 1681 3072 1420 2755 
Q 1159 2438 1159 1844 
L 1159 0 
L 581 0 
L 581 3500 
L 1159 3500 
L 1159 2956 
Q 1341 3275 1631 3429 
Q 1922 3584 2338 3584 
Q 2397 3584 2469 3576 
Q 2541 3569 2628 3553 
L 2631 2963 
z
" transform="scale(0.015625)"/>
       <path id="DejaVuSans-61" d="M 2194 1759 
Q 1497 1759 1228 1600 
Q 959 1441 959 1056 
Q 959 750 1161 570 
Q 1363 391 1709 391 
Q 2188 391 2477 730 
Q 2766 1069 2766 1631 
L 2766 1759 
L 2194 1759 
z
M 3341 1997 
L 3341 0 
L 2766 0 
L 2766 531 
Q 2569 213 2275 61 
Q 1981 -91 1556 -91 
Q 1019 -91 701 211 
Q 384 513 384 1019 
Q 384 1609 779 1909 
Q 1175 2209 1959 2209 
L 2766 2209 
L 2766 2266 
Q 2766 2663 2505 2880 
Q 2244 3097 1772 3097 
Q 1472 3097 1187 3025 
Q 903 2953 641 2809 
L 641 3341 
Q 956 3463 1253 3523 
Q 1550 3584 1831 3584 
Q 2591 3584 2966 3190 
Q 3341 2797 3341 1997 
z
" transform="scale(0.015625)"/>
       <path id="DejaVuSans-79" d="M 2059 -325 
Q 1816 -950 1584 -1140 
Q 1353 -1331 966 -1331 
L 506 -1331 
L 506 -850 
L 844 -850 
Q 1081 -850 1212 -737 
Q 1344 -625 1503 -206 
L 1606 56 
L 191 3500 
L 800 3500 
L 1894 763 
L 2988 3500 
L 3597 3500 
L 2059 -325 
z
" transform="scale(0.015625)"/>
      </defs>
      <use xlink:href="#DejaVuSans-41"/>
      <use xlink:href="#DejaVuSans-63" x="66.658203"/>
      <use xlink:href="#DejaVuSans-63" x="121.638672"/>
      <use xlink:href="#DejaVuSans-75" x="176.619141"/>
      <use xlink:href="#DejaVuSans-72" x="239.998047"/>
      <use xlink:href="#DejaVuSans-61" x="281.111328"/>
      <use xlink:href="#DejaVuSans-63" x="342.390625"/>
      <use xlink:href="#DejaVuSans-79" x="397.371094"/>
     </g>
    </g>
   </g>
   <g id="line2d_20">
    <path d="M 73.832727 289.411911 
L 74.918528 248.676427 
L 76.00433 224.903137 
L 77.090131 208.155466 
L 78.175932 196.064726 
L 79.261733 186.420142 
L 82.519137 164.368992 
L 83.604938 157.694952 
L 84.690739 153.842481 
L 85.77654 148.041429 
L 86.862341 143.08059 
L 89.033943 134.580127 
L 91.205546 127.667728 
L 92.291347 124.828281 
L 94.462949 123.070386 
L 95.54875 156.32439 
L 96.634552 155.159412 
L 97.720353 153.228708 
L 98.806154 150.019805 
L 99.891955 148.258931 
L 100.977756 145.050028 
L 102.063557 141.340573 
L 103.149358 139.722714 
L 104.23516 137.538753 
L 105.320961 136.370796 
L 106.406762 132.622607 
L 107.492563 131.046461 
L 108.578364 128.415578 
L 110.749967 124.524374 
L 111.835768 121.634276 
L 112.921569 120.168371 
L 114.00737 117.954615 
L 115.093171 116.053705 
L 116.178972 113.595632 
L 121.607978 103.024429 
L 122.693779 99.890013 
L 123.77958 98.579041 
L 125.951183 93.400701 
L 127.036984 92.36682 
L 128.122785 89.750835 
L 129.208586 88.088283 
L 130.294387 86.673029 
L 131.380189 84.745304 
L 132.46599 83.765054 
L 133.551791 81.932673 
L 134.637592 81.643663 
L 135.723393 81.694314 
L 136.809194 80.767695 
L 137.894995 80.16584 
L 138.980797 121.962019 
L 140.066598 126.669601 
L 142.2382 125.969423 
L 144.409802 124.342625 
L 145.495604 123.004838 
L 146.581405 123.040592 
L 148.753007 121.047318 
L 149.838808 120.671903 
L 150.924609 120.421627 
L 152.01041 119.054044 
L 153.096212 117.504713 
L 154.182013 116.974365 
L 155.267814 117.385534 
L 156.353615 115.526337 
L 157.439416 115.147943 
L 158.525217 113.893581 
L 159.611019 113.637345 
L 160.69682 112.80309 
L 161.782621 112.45747 
L 162.868422 110.771083 
L 163.954223 110.020253 
L 165.040024 109.007229 
L 166.125825 108.387497 
L 167.211627 108.491779 
L 168.297428 106.653438 
L 169.383229 106.221413 
L 170.46903 105.476543 
L 172.640632 103.265767 
L 173.726434 102.943983 
L 174.812235 100.968586 
L 175.898036 100.232654 
L 176.983837 98.882948 
L 178.069638 98.337703 
L 179.155439 96.979059 
L 180.24124 96.636418 
L 181.327042 95.325446 
L 182.412843 93.078916 
L 183.498644 92.474081 
L 184.584445 91.270371 
L 185.670246 89.729978 
L 186.756047 89.154938 
L 187.841849 87.802253 
L 188.92765 86.947142 
L 190.013451 85.406749 
L 191.099252 84.220915 
L 192.185053 82.75501 
L 193.270854 81.828391 
L 194.356656 79.975153 
L 195.442457 79.179631 
L 196.528258 77.627321 
L 197.614059 76.512994 
L 199.785661 73.673547 
L 200.871462 72.901861 
L 201.957264 71.209515 
L 203.043065 70.449747 
L 204.128866 69.114939 
L 206.300468 66.799881 
L 207.386269 65.980524 
L 208.472071 64.916849 
L 209.557872 63.248338 
L 210.643673 63.001041 
L 212.815275 62.011853 
L 213.901076 61.237188 
L 216.072679 60.212246 
L 217.15848 59.431621 
L 218.244281 59.461416 
L 219.330082 58.51692 
L 220.415883 58.29048 
L 221.501684 58.466269 
L 222.587486 58.069998 
L 223.673287 58.159382 
L 224.759088 57.462184 
L 225.844889 113.020592 
L 226.93069 119.846586 
L 228.016491 120.087925 
L 229.102292 119.757202 
L 230.188094 119.232813 
L 231.273895 118.285338 
L 232.359696 118.660752 
L 233.445497 116.557238 
L 234.531298 117.168032 
L 235.617099 116.42912 
L 236.702901 115.207532 
L 237.788702 115.699147 
L 238.874503 114.689102 
L 239.960304 113.929334 
L 241.046105 113.771422 
L 242.131906 112.886516 
L 243.217708 112.758398 
L 245.38931 111.641092 
L 246.475111 110.890262 
L 247.560912 110.583376 
L 248.646713 111.149477 
L 249.732514 110.073884 
L 251.904117 110.026212 
L 252.989918 109.436275 
L 254.075719 108.420271 
L 256.247321 108.396436 
L 257.333123 107.350637 
L 258.418924 107.386391 
L 259.504725 107.052689 
L 260.590526 106.057542 
L 261.676327 106.289941 
L 262.762128 105.78045 
L 263.847929 106.146926 
L 264.933731 104.829995 
L 266.019532 105.077292 
L 267.105333 104.585678 
L 268.191134 103.682894 
L 269.276935 103.235972 
L 270.362736 103.048265 
L 271.448538 102.455348 
L 272.534339 102.425553 
L 273.62014 101.564482 
L 275.791742 100.560397 
L 276.877543 100.345874 
L 277.963344 100.319059 
L 281.220748 98.909764 
L 282.306549 98.695241 
L 283.39235 98.313867 
L 284.478151 97.592832 
L 285.563953 97.503448 
L 286.649754 97.691155 
L 287.735555 96.094153 
L 288.821356 96.22525 
L 289.907157 95.662128 
L 290.992958 94.774242 
L 292.07876 94.836811 
L 293.164561 94.106838 
L 294.250362 93.621182 
L 295.336163 93.546695 
L 296.421964 93.037204 
L 297.507765 92.283395 
L 298.593566 91.210781 
L 299.679368 91.592155 
L 301.85097 91.052868 
L 302.936771 89.08343 
L 304.022572 88.675241 
L 305.108373 87.966125 
L 306.194175 88.058489 
L 307.279976 87.754581 
L 308.365777 87.105054 
L 309.451578 86.297614 
L 310.537379 85.853672 
L 311.62318 84.757222 
L 313.794783 84.158346 
L 314.880584 83.434332 
L 315.966385 82.17997 
L 317.052186 82.466 
L 318.137987 81.962467 
L 319.223788 80.731941 
L 320.30959 80.731941 
L 321.395391 79.397133 
L 322.481192 79.328605 
L 323.566993 78.911477 
L 324.652794 78.196402 
L 325.738595 77.326393 
L 327.910198 75.967749 
L 328.995999 75.517847 
L 330.0818 74.626982 
L 331.167601 73.274297 
L 333.339203 72.964431 
L 334.425005 72.341719 
L 335.510806 71.343592 
L 336.596607 70.545091 
L 337.682408 69.892584 
L 338.768209 69.016616 
L 339.85401 68.471371 
L 340.939811 68.113833 
L 342.025613 66.987589 
L 343.111414 66.492995 
L 344.197215 65.843468 
L 345.283016 65.608088 
L 347.454618 63.152995 
L 348.54042 63.376456 
L 349.626221 62.110176 
L 350.712022 62.014833 
L 352.883624 60.140738 
L 353.969425 59.577616 
L 355.055227 59.279668 
L 356.141028 58.278562 
L 357.226829 57.611158 
L 358.31263 57.283415 
L 359.398431 57.417491 
L 360.484232 55.999258 
L 361.570033 55.620863 
L 362.655835 55.418259 
L 363.741636 54.280096 
L 365.913238 53.568 
L 366.999039 53.630569 
L 368.08484 54.02684 
L 369.170642 55.182879 
L 370.256443 56.56238 
L 371.342244 58.668874 
L 372.428045 60.194369 
L 374.599647 60.99585 
L 375.685448 61.314654 
L 376.77125 61.323593 
L 377.857051 61.824146 
L 378.942852 61.538115 
L 380.028653 61.100132 
L 381.114454 61.606644 
L 382.200255 61.031603 
L 385.457659 61.919489 
L 386.54346 61.535136 
L 387.629261 61.535136 
L 388.715062 62.372371 
L 389.800863 61.821166 
L 390.886665 62.467714 
L 391.972466 61.490444 
L 393.058267 62.443878 
L 394.144068 61.782433 
L 396.31567 62.312781 
L 397.401472 62.673298 
L 398.487273 62.238294 
L 398.487273 62.238294 
" clip-path="url(#p108fa66276)" style="fill: none; stroke: #1f77b4; stroke-width: 1.5; stroke-linecap: square"/>
   </g>
   <g id="line2d_21">
    <path d="M 73.832727 273.322706 
L 74.918528 247.401209 
L 76.00433 228.779443 
L 78.175932 207.178196 
L 79.261733 201.755538 
L 80.347534 193.442782 
L 81.433335 186.917715 
L 82.519137 173.271686 
L 83.604938 172.645995 
L 84.690739 166.001749 
L 85.77654 165.227083 
L 86.862341 156.705764 
L 87.948142 156.169457 
L 89.033943 148.988904 
L 90.119745 147.052241 
L 92.291347 142.702196 
L 93.377148 140.944302 
L 94.462949 140.854917 
L 95.54875 177.711115 
L 96.634552 175.685067 
L 97.720353 174.850812 
L 98.806154 170.649741 
L 99.891955 169.845281 
L 100.977756 166.448671 
L 102.063557 160.966423 
L 103.149358 159.357503 
L 104.23516 160.430117 
L 105.320961 157.867762 
L 106.406762 152.892026 
L 107.492563 152.29613 
L 108.578364 154.024229 
L 109.664165 146.605318 
L 110.749967 150.56803 
L 111.835768 143.77481 
L 112.921569 143.71522 
L 114.00737 143.447067 
L 115.093171 139.365176 
L 116.178972 136.385693 
L 117.264773 136.05795 
L 118.350575 135.611028 
L 119.436376 132.452777 
L 120.522177 131.320573 
L 121.607978 130.486318 
L 122.693779 128.370886 
L 123.77958 129.145551 
L 124.865382 127.268477 
L 125.951183 123.991047 
L 127.036984 123.365355 
L 128.122785 122.59069 
L 129.208586 121.607461 
L 130.294387 120.087925 
L 131.380189 119.670797 
L 132.46599 118.210851 
L 133.551791 119.313259 
L 134.637592 118.449209 
L 135.723393 118.181056 
L 136.809194 118.538594 
L 137.894995 118.121466 
L 138.980797 159.476682 
L 140.066598 159.77463 
L 141.152399 155.156433 
L 142.2382 151.730028 
L 143.324001 154.381767 
L 144.409802 152.892026 
L 146.581405 147.528958 
L 147.667206 147.946085 
L 148.753007 151.610849 
L 149.838808 147.558753 
L 152.01041 140.854917 
L 153.096212 147.022446 
L 154.182013 144.609065 
L 155.267814 144.63886 
L 156.353615 141.718967 
L 157.439416 143.357682 
L 158.525217 139.901483 
L 159.611019 144.013168 
L 160.69682 140.646353 
L 161.782621 139.365176 
L 162.868422 138.769279 
L 163.954223 138.6501 
L 165.040024 136.028156 
L 166.125825 139.841893 
L 168.297428 137.488102 
L 169.383229 133.763749 
L 170.46903 133.942518 
L 171.554831 132.899699 
L 172.640632 131.290778 
L 173.726434 132.154828 
L 174.812235 133.197647 
L 175.898036 130.99283 
L 176.983837 131.171599 
L 178.069638 130.784266 
L 179.155439 129.503089 
L 180.24124 128.579449 
L 181.327042 128.758218 
L 182.412843 125.361608 
L 183.498644 126.136274 
L 184.584445 128.847603 
L 185.670246 126.166069 
L 186.756047 126.821555 
L 187.841849 122.560895 
L 188.92765 123.633509 
L 190.013451 122.441716 
L 191.099252 121.78623 
L 192.185053 120.475257 
L 193.270854 118.747157 
L 194.356656 119.253669 
L 195.442457 118.210851 
L 196.528258 119.19408 
L 197.614059 117.495775 
L 198.69986 117.46598 
L 199.785661 119.283464 
L 200.871462 116.899878 
L 201.957264 115.976239 
L 203.043065 114.158755 
L 204.128866 114.516292 
L 205.214667 114.426908 
L 206.300468 113.950191 
L 207.386269 113.20532 
L 208.472071 112.251886 
L 209.557872 112.311475 
L 210.643673 112.043322 
L 211.729474 111.119682 
L 212.815275 112.162501 
L 213.901076 111.864553 
L 214.986877 111.924143 
L 216.072679 110.67276 
L 217.15848 110.374812 
L 219.330082 111.030298 
L 220.415883 110.345017 
L 221.501684 110.166248 
L 222.587486 110.821734 
L 223.673287 110.434402 
L 224.759088 109.749121 
L 225.844889 152.027976 
L 226.93069 156.43761 
L 228.016491 150.240287 
L 229.102292 154.590331 
L 230.188094 148.661161 
L 231.273895 147.767316 
L 232.359696 149.852954 
L 233.445497 142.91076 
L 234.531298 149.078289 
L 235.617099 149.316647 
L 236.702901 147.737521 
L 237.788702 142.136095 
L 238.874503 146.128601 
L 239.960304 142.195684 
L 241.046105 141.063481 
L 242.131906 144.013168 
L 243.217708 147.826906 
L 244.303509 141.003891 
L 245.38931 140.169636 
L 246.475111 141.361429 
L 247.560912 139.961072 
L 248.646713 140.229226 
L 249.732514 137.637076 
L 250.818316 139.365176 
L 251.904117 140.527174 
L 252.989918 138.471331 
L 254.075719 139.126817 
L 255.16152 140.199431 
L 257.333123 135.223695 
L 258.418924 141.301839 
L 259.504725 139.45456 
L 260.590526 138.799074 
L 261.676327 140.467584 
L 262.762128 135.31308 
L 263.847929 136.534668 
L 264.933731 137.190154 
L 266.019532 136.713436 
L 267.105333 138.769279 
L 269.276935 133.227442 
L 270.362736 135.134311 
L 271.448538 139.812098 
L 272.534339 132.393187 
L 273.62014 135.760002 
L 274.705941 138.679895 
L 275.791742 136.445283 
L 276.877543 132.035649 
L 277.963344 132.899699 
L 279.049146 134.806568 
L 280.134947 134.568209 
L 281.220748 135.342875 
L 282.306549 128.251706 
L 283.39235 128.668834 
L 284.478151 128.162322 
L 285.563953 128.51986 
L 286.649754 128.549655 
L 287.735555 129.473294 
L 288.821356 128.966782 
L 289.907157 127.953758 
L 290.992958 133.048673 
L 292.07876 131.79729 
L 293.164561 127.179093 
L 294.250362 127.626015 
L 295.336163 125.480788 
L 296.421964 129.175346 
L 297.507765 126.225658 
L 298.593566 124.586943 
L 299.679368 128.668834 
L 300.765169 123.33556 
L 301.85097 127.774989 
L 302.936771 124.974276 
L 304.022572 125.778736 
L 305.108373 125.808531 
L 306.194175 127.268477 
L 307.279976 124.586943 
L 308.365777 123.246176 
L 309.451578 123.693098 
L 310.537379 124.646533 
L 312.708981 121.369102 
L 313.794783 120.296488 
L 314.880584 122.560895 
L 315.966385 122.769459 
L 317.052186 120.892385 
L 318.137987 117.793723 
L 319.223788 121.220128 
L 320.30959 121.935204 
L 321.395391 118.33003 
L 322.481192 119.223875 
L 323.566993 118.032082 
L 324.652794 119.19408 
L 325.738595 119.492028 
L 326.824396 117.644749 
L 327.910198 118.002287 
L 328.995999 118.091671 
L 330.0818 117.108442 
L 331.167601 116.721109 
L 332.253402 116.095418 
L 333.339203 116.184803 
L 334.425005 115.380342 
L 335.510806 118.717363 
L 337.682408 114.635472 
L 338.768209 117.376596 
L 339.85401 117.048853 
L 340.939811 113.831011 
L 342.025613 113.324499 
L 343.111414 113.682037 
L 344.197215 111.834758 
L 345.283016 114.099165 
L 346.368817 112.609424 
L 347.454618 112.371065 
L 348.54042 111.924143 
L 349.626221 109.92789 
L 350.712022 112.013527 
L 351.797823 111.328246 
L 352.883624 112.102912 
L 353.969425 110.434402 
L 355.055227 109.898095 
L 356.141028 109.749121 
L 357.226829 109.987479 
L 359.398431 109.510762 
L 360.484232 109.659736 
L 361.570033 109.391583 
L 362.655835 108.974455 
L 363.741636 107.901841 
L 364.827437 109.361788 
L 365.913238 107.991226 
L 366.999039 109.391583 
L 368.08484 108.050816 
L 370.256443 111.209067 
L 371.342244 110.404607 
L 372.428045 114.426908 
L 373.513846 113.473474 
L 374.599647 113.086141 
L 375.685448 115.320753 
L 376.77125 113.384089 
L 377.857051 114.00978 
L 378.942852 115.171779 
L 380.028653 112.698808 
L 381.114454 113.115936 
L 382.200255 113.920396 
L 383.286057 114.397113 
L 385.457659 114.814241 
L 386.54346 114.188549 
L 387.629261 112.639219 
L 388.715062 115.708085 
L 389.800863 113.979986 
L 390.886665 114.784446 
L 391.972466 113.235115 
L 393.058267 114.099165 
L 394.144068 114.426908 
L 395.229869 113.622448 
L 396.31567 113.503268 
L 397.401472 113.503268 
L 398.487273 115.380342 
L 398.487273 115.380342 
" clip-path="url(#p108fa66276)" style="fill: none; stroke: #ff7f0e; stroke-width: 1.5; stroke-linecap: square"/>
   </g>
   <g id="line2d_22">
    <path d="M 73.832727 293.885306 
L 74.918528 284.905741 
L 76.00433 278.145296 
L 77.090131 279.480998 
L 78.175932 269.227407 
L 79.261733 275.412515 
L 80.347534 273.213657 
L 81.433335 263.083416 
L 82.519137 259.857531 
L 83.604938 261.891623 
L 84.690739 259.878089 
L 85.77654 256.693022 
L 86.862341 253.898566 
L 87.948142 256.343827 
L 89.033943 252.789007 
L 90.119745 252.234227 
L 91.205546 249.480589 
L 92.291347 250.199836 
L 93.377148 247.487613 
L 94.462949 247.384821 
L 95.54875 264.932781 
L 96.634552 255.501229 
L 97.720353 264.11104 
L 98.806154 254.967008 
L 99.891955 253.446578 
L 100.977756 256.343827 
L 102.063557 258.50127 
L 103.149358 254.700047 
L 104.23516 261.460194 
L 105.320961 249.254745 
L 106.406762 253.692982 
L 107.492563 252.316461 
L 108.578364 254.638371 
L 109.664165 249.768407 
L 110.749967 248.741082 
L 111.835768 247.467055 
L 112.921569 247.097003 
L 114.00737 254.10415 
L 115.093171 247.01477 
L 116.178972 244.713417 
L 117.264773 243.357455 
L 118.350575 246.049119 
L 119.436376 244.425897 
L 120.522177 242.329831 
L 121.607978 243.439391 
L 122.693779 239.329791 
L 123.77958 245.124586 
L 124.865382 234.275099 
L 125.951183 240.480467 
L 127.036984 238.055764 
L 128.122785 238.343582 
L 129.208586 235.425775 
L 130.294387 236.411983 
L 131.380189 235.631359 
L 132.46599 234.151748 
L 133.551791 233.761436 
L 134.637592 234.316216 
L 135.723393 234.336774 
L 136.809194 235.199632 
L 137.894995 234.727086 
L 138.980797 252.809565 
L 140.066598 262.035532 
L 141.152399 252.624539 
L 142.2382 252.028643 
L 143.324001 249.110836 
L 144.409802 256.85749 
L 145.495604 244.158638 
L 146.581405 244.754534 
L 147.667206 253.42602 
L 148.753007 249.953433 
L 149.838808 252.891799 
L 150.924609 251.761383 
L 152.01041 249.891758 
L 153.096212 242.90517 
L 154.182013 254.679488 
L 155.267814 247.282029 
L 156.353615 245.61769 
L 157.439416 244.425897 
L 158.525217 248.679406 
L 159.611019 248.288796 
L 160.69682 243.234104 
L 161.782621 246.912275 
L 162.868422 247.199795 
L 163.954223 239.247557 
L 165.040024 240.254622 
L 166.125825 248.720523 
L 167.211627 244.93956 
L 168.297428 248.37103 
L 169.383229 240.871077 
L 170.46903 247.076445 
L 171.554831 241.980636 
L 172.640632 243.069637 
L 173.726434 237.480426 
L 174.812235 243.871118 
L 175.898036 239.966804 
L 176.983837 242.268156 
L 178.069638 245.021794 
L 179.155439 238.466933 
L 180.24124 239.864012 
L 181.327042 239.514816 
L 182.412843 238.65166 
L 183.498644 238.857245 
L 184.584445 242.103987 
L 185.670246 237.377932 
L 186.756047 239.925687 
L 187.841849 235.508009 
L 188.92765 239.165621 
L 190.013451 234.213423 
L 191.099252 235.980554 
L 192.185053 237.234023 
L 193.270854 236.658685 
L 195.442457 233.658644 
L 196.528258 237.480426 
L 197.614059 234.192865 
L 198.69986 237.480426 
L 199.785661 235.199632 
L 200.871462 233.905047 
L 201.957264 232.281825 
L 203.043065 232.918838 
L 204.128866 234.500943 
L 205.214667 231.398408 
L 206.300468 230.083265 
L 207.386269 232.959955 
L 208.472071 232.240708 
L 209.557872 231.275058 
L 210.643673 231.912071 
L 211.729474 233.103864 
L 212.815275 230.391343 
L 213.901076 230.576369 
L 214.986877 229.076498 
L 216.072679 230.165499 
L 217.15848 230.370785 
L 218.244281 231.048915 
L 219.330082 230.391343 
L 220.415883 230.658603 
L 221.501684 230.638045 
L 222.587486 229.939356 
L 223.673287 229.918797 
L 224.759088 230.30911 
L 225.844889 249.768407 
L 226.93069 256.30271 
L 228.016491 256.426061 
L 229.102292 257.371153 
L 230.188094 251.330016 
L 231.273895 246.192977 
L 232.359696 258.152003 
L 233.445497 244.93954 
L 234.531298 254.638269 
L 235.617099 250.590282 
L 236.702901 243.686102 
L 237.788702 246.850518 
L 238.874503 253.467024 
L 239.960304 243.953228 
L 241.046105 242.535405 
L 242.131906 250.199867 
L 243.217708 251.453305 
L 244.303509 246.419007 
L 245.38931 249.357393 
L 247.560912 243.994324 
L 248.646713 246.686133 
L 249.732514 243.912132 
L 250.818316 243.70665 
L 251.904117 246.82997 
L 252.989918 250.590282 
L 254.075719 239.905242 
L 255.16152 242.617598 
L 256.247321 250.364252 
L 257.333123 244.425836 
L 258.418924 246.953259 
L 259.504725 240.028531 
L 260.590526 242.288828 
L 261.676327 237.788782 
L 262.762128 238.384678 
L 263.847929 244.795703 
L 264.933731 247.446414 
L 266.019532 248.535467 
L 267.105333 242.021702 
L 268.191134 242.04225 
L 269.276935 241.466901 
L 270.362736 245.062829 
L 271.448538 242.206635 
L 272.534339 242.82308 
L 273.62014 243.788843 
L 274.705941 246.501199 
L 275.791742 242.555954 
L 276.877543 235.117522 
L 277.963344 237.275078 
L 279.049146 241.384709 
L 280.134947 247.775185 
L 282.306549 236.843567 
L 284.478151 240.357301 
L 285.563953 238.076456 
L 287.735555 240.069627 
L 288.821356 240.727168 
L 289.907157 240.829909 
L 290.992958 238.672352 
L 292.07876 238.836738 
L 293.164561 236.370959 
L 295.336163 241.857316 
L 296.421964 237.788782 
L 297.507765 237.80933 
L 298.593566 237.151789 
L 299.679368 240.912101 
L 300.765169 235.055877 
L 301.85097 243.15185 
L 302.936771 233.494217 
L 304.022572 236.02164 
L 305.108373 235.672322 
L 306.194175 239.47373 
L 307.279976 237.0285 
L 308.365777 238.240841 
L 309.451578 234.809299 
L 310.537379 236.350411 
L 311.62318 236.781922 
L 312.708981 230.576379 
L 313.794783 229.754453 
L 314.880584 232.384617 
L 315.966385 236.596989 
L 317.052186 237.912071 
L 318.137987 231.377758 
L 319.223788 235.446292 
L 320.30959 230.391446 
L 321.395391 234.439433 
L 322.481192 232.179136 
L 323.566993 231.192824 
L 324.652794 234.049018 
L 326.824396 228.78869 
L 327.910198 236.69973 
L 328.995999 233.966825 
L 330.0818 228.809238 
L 331.167601 231.028439 
L 332.253402 229.384587 
L 333.339203 229.138009 
L 334.425005 229.302394 
L 335.510806 233.761343 
L 336.596607 234.953136 
L 337.682408 229.466779 
L 338.768209 233.412025 
L 339.85401 227.843475 
L 340.939811 228.151697 
L 342.025613 230.062676 
L 343.111414 232.857225 
L 344.197215 229.836646 
L 345.283016 229.980483 
L 346.368817 229.220201 
L 347.454618 230.185965 
L 348.54042 227.165386 
L 349.626221 229.405135 
L 350.712022 227.288675 
L 351.797823 228.624305 
L 352.883624 226.425652 
L 353.969425 226.507845 
L 355.055227 229.836646 
L 356.141028 229.507875 
L 357.226829 225.459889 
L 358.31263 226.11743 
L 359.398431 226.014689 
L 360.484232 229.281846 
L 361.570033 228.110601 
L 362.655835 228.192794 
L 363.741636 226.795519 
L 364.827437 223.363977 
L 365.913238 226.939356 
L 366.999039 227.617445 
L 368.08484 225.254407 
L 369.170642 226.959904 
L 370.256443 231.377758 
L 371.342244 226.857163 
L 372.428045 227.473608 
L 373.513846 228.994172 
L 374.599647 227.12429 
L 375.685448 229.775001 
L 376.77125 230.329802 
L 377.857051 226.89826 
L 378.942852 233.35038 
L 380.028653 229.507875 
L 381.114454 229.816098 
L 382.200255 233.966825 
L 383.286057 229.56952 
L 384.371858 228.090053 
L 385.457659 232.651743 
L 386.54346 226.816067 
L 387.629261 230.822957 
L 388.715062 233.720247 
L 389.800863 229.816098 
L 390.886665 228.131149 
L 391.972466 228.069505 
L 393.058267 231.418854 
L 394.144068 228.110601 
L 395.229869 229.322942 
L 396.31567 232.343521 
L 398.487273 227.720186 
L 398.487273 227.720186 
" clip-path="url(#p108fa66276)" style="fill: none; stroke: #2ca02c; stroke-width: 1.5; stroke-linecap: square"/>
   </g>
   <g id="line2d_23">
    <path d="M 368.08484 109.570352 
L 369.170642 109.838505 
L 370.256443 111.507015 
L 371.342244 112.132707 
L 372.428045 115.767675 
L 373.513846 116.512546 
L 374.599647 117.734133 
L 375.685448 119.372849 
L 376.77125 120.147514 
L 377.857051 137.070974 
L 378.942852 133.346621 
L 380.028653 137.011385 
L 381.114454 151.581054 
L 382.200255 150.150902 
L 383.286057 168.415129 
L 384.371858 157.986941 
L 385.457659 161.294166 
L 386.54346 168.564104 
L 387.629261 179.469009 
L 388.715062 192.429758 
L 389.800863 197.047956 
L 390.886665 205.807634 
L 391.972466 212.869007 
L 393.058267 220.79443 
L 394.144068 235.870612 
L 395.229869 240.905937 
L 396.31567 223.207811 
L 397.401472 242.067935 
L 398.487273 258.276319 
L 398.487273 258.276319 
" clip-path="url(#p108fa66276)" style="fill: none; stroke: #d62728; stroke-width: 1.5; stroke-linecap: square"/>
   </g>
   <g id="line2d_24">
    <path d="M 368.08484 227.761282 
L 369.170642 225.583178 
L 370.256443 232.46681 
L 371.342244 229.364038 
L 372.428045 231.007891 
L 374.599647 227.905119 
L 375.685448 234.459981 
L 376.77125 229.56952 
L 377.857051 247.014903 
L 378.942852 245.740918 
L 380.028653 242.227183 
L 381.114454 252.624549 
L 382.200255 251.001245 
L 383.286057 265.446598 
L 384.371858 254.925943 
L 385.457659 250.651927 
L 386.54346 261.213678 
L 387.629261 263.206849 
L 388.715062 270.809666 
L 389.800863 266.145235 
L 390.886665 272.453519 
L 391.972466 279.460439 
L 393.058267 281.022099 
L 394.144068 288.35779 
L 395.229869 289.426294 
L 396.31567 278.433032 
L 397.401472 287.844086 
L 398.487273 295.488 
L 398.487273 295.488 
" clip-path="url(#p108fa66276)" style="fill: none; stroke: #9467bd; stroke-width: 1.5; stroke-linecap: square"/>
   </g>
   <g id="patch_3">
    <path d="M 57.6 307.584 
L 57.6 41.472 
" style="fill: none; stroke: #000000; stroke-width: 0.8; stroke-linejoin: miter; stroke-linecap: square"/>
   </g>
   <g id="patch_4">
    <path d="M 414.72 307.584 
L 414.72 41.472 
" style="fill: none; stroke: #000000; stroke-width: 0.8; stroke-linejoin: miter; stroke-linecap: square"/>
   </g>
   <g id="patch_5">
    <path d="M 57.6 307.584 
L 414.72 307.584 
" style="fill: none; stroke: #000000; stroke-width: 0.8; stroke-linejoin: miter; stroke-linecap: square"/>
   </g>
   <g id="patch_6">
    <path d="M 57.6 41.472 
L 414.72 41.472 
" style="fill: none; stroke: #000000; stroke-width: 0.8; stroke-linejoin: miter; stroke-linecap: square"/>
   </g>
   <g id="text_22">
    <!-- Learning Curves -->
    <g transform="translate(187.37625 35.472) scale(0.12 -0.12)">
     <defs>
      <path id="DejaVuSans-4c" d="M 628 4666 
L 1259 4666 
L 1259 531 
L 3531 531 
L 3531 0 
L 628 0 
L 628 4666 
z
" transform="scale(0.015625)"/>
      <path id="DejaVuSans-65" d="M 3597 1894 
L 3597 1613 
L 953 1613 
Q 991 1019 1311 708 
Q 1631 397 2203 397 
Q 2534 397 2845 478 
Q 3156 559 3463 722 
L 3463 178 
Q 3153 47 2828 -22 
Q 2503 -91 2169 -91 
Q 1331 -91 842 396 
Q 353 884 353 1716 
Q 353 2575 817 3079 
Q 1281 3584 2069 3584 
Q 2775 3584 3186 3129 
Q 3597 2675 3597 1894 
z
M 3022 2063 
Q 3016 2534 2758 2815 
Q 2500 3097 2075 3097 
Q 1594 3097 1305 2825 
Q 1016 2553 972 2059 
L 3022 2063 
z
" transform="scale(0.015625)"/>
      <path id="DejaVuSans-6e" d="M 3513 2113 
L 3513 0 
L 2938 0 
L 2938 2094 
Q 2938 2591 2744 2837 
Q 2550 3084 2163 3084 
Q 1697 3084 1428 2787 
Q 1159 2491 1159 1978 
L 1159 0 
L 581 0 
L 581 3500 
L 1159 3500 
L 1159 2956 
Q 1366 3272 1645 3428 
Q 1925 3584 2291 3584 
Q 2894 3584 3203 3211 
Q 3513 2838 3513 2113 
z
" transform="scale(0.015625)"/>
      <path id="DejaVuSans-69" d="M 603 3500 
L 1178 3500 
L 1178 0 
L 603 0 
L 603 3500 
z
M 603 4863 
L 1178 4863 
L 1178 4134 
L 603 4134 
L 603 4863 
z
" transform="scale(0.015625)"/>
      <path id="DejaVuSans-67" d="M 2906 1791 
Q 2906 2416 2648 2759 
Q 2391 3103 1925 3103 
Q 1463 3103 1205 2759 
Q 947 2416 947 1791 
Q 947 1169 1205 825 
Q 1463 481 1925 481 
Q 2391 481 2648 825 
Q 2906 1169 2906 1791 
z
M 3481 434 
Q 3481 -459 3084 -895 
Q 2688 -1331 1869 -1331 
Q 1566 -1331 1297 -1286 
Q 1028 -1241 775 -1147 
L 775 -588 
Q 1028 -725 1275 -790 
Q 1522 -856 1778 -856 
Q 2344 -856 2625 -561 
Q 2906 -266 2906 331 
L 2906 616 
Q 2728 306 2450 153 
Q 2172 0 1784 0 
Q 1141 0 747 490 
Q 353 981 353 1791 
Q 353 2603 747 3093 
Q 1141 3584 1784 3584 
Q 2172 3584 2450 3431 
Q 2728 3278 2906 2969 
L 2906 3500 
L 3481 3500 
L 3481 434 
z
" transform="scale(0.015625)"/>
      <path id="DejaVuSans-20" transform="scale(0.015625)"/>
      <path id="DejaVuSans-43" d="M 4122 4306 
L 4122 3641 
Q 3803 3938 3442 4084 
Q 3081 4231 2675 4231 
Q 1875 4231 1450 3742 
Q 1025 3253 1025 2328 
Q 1025 1406 1450 917 
Q 1875 428 2675 428 
Q 3081 428 3442 575 
Q 3803 722 4122 1019 
L 4122 359 
Q 3791 134 3420 21 
Q 3050 -91 2638 -91 
Q 1578 -91 968 557 
Q 359 1206 359 2328 
Q 359 3453 968 4101 
Q 1578 4750 2638 4750 
Q 3056 4750 3426 4639 
Q 3797 4528 4122 4306 
z
" transform="scale(0.015625)"/>
      <path id="DejaVuSans-76" d="M 191 3500 
L 800 3500 
L 1894 563 
L 2988 3500 
L 3597 3500 
L 2284 0 
L 1503 0 
L 191 3500 
z
" transform="scale(0.015625)"/>
     </defs>
     <use xlink:href="#DejaVuSans-4c"/>
     <use xlink:href="#DejaVuSans-65" x="53.962891"/>
     <use xlink:href="#DejaVuSans-61" x="115.486328"/>
     <use xlink:href="#DejaVuSans-72" x="176.765625"/>
     <use xlink:href="#DejaVuSans-6e" x="216.128906"/>
     <use xlink:href="#DejaVuSans-69" x="279.507812"/>
     <use xlink:href="#DejaVuSans-6e" x="307.291016"/>
     <use xlink:href="#DejaVuSans-67" x="370.669922"/>
     <use xlink:href="#DejaVuSans-20" x="434.146484"/>
     <use xlink:href="#DejaVuSans-43" x="465.933594"/>
     <use xlink:href="#DejaVuSans-75" x="535.757812"/>
     <use xlink:href="#DejaVuSans-72" x="599.136719"/>
     <use xlink:href="#DejaVuSans-76" x="640.25"/>
     <use xlink:href="#DejaVuSans-65" x="699.429688"/>
     <use xlink:href="#DejaVuSans-73" x="760.953125"/>
    </g>
   </g>
   <g id="legend_1">
    <g id="patch_7">
     <path d="M 214.18875 212.723313 
L 407.72 212.723313 
Q 409.72 212.723313 409.72 210.723313 
L 409.72 138.332688 
Q 409.72 136.332688 407.72 136.332688 
L 214.18875 136.332688 
Q 212.18875 136.332688 212.18875 138.332688 
L 212.18875 210.723313 
Q 212.18875 212.723313 214.18875 212.723313 
z
" style="fill: #ffffff; opacity: 0.8; stroke: #cccccc; stroke-linejoin: miter"/>
    </g>
    <g id="line2d_25">
     <path d="M 216.18875 144.431125 
L 226.18875 144.431125 
L 236.18875 144.431125 
" style="fill: none; stroke: #1f77b4; stroke-width: 1.5; stroke-linecap: square"/>
    </g>
    <g id="text_23">
     <!-- Train Accuracy -->
     <g transform="translate(244.18875 147.931125) scale(0.1 -0.1)">
      <defs>
       <path id="DejaVuSans-54" d="M -19 4666 
L 3928 4666 
L 3928 4134 
L 2272 4134 
L 2272 0 
L 1638 0 
L 1638 4134 
L -19 4134 
L -19 4666 
z
" transform="scale(0.015625)"/>
      </defs>
      <use xlink:href="#DejaVuSans-54"/>
      <use xlink:href="#DejaVuSans-72" x="46.333984"/>
      <use xlink:href="#DejaVuSans-61" x="87.447266"/>
      <use xlink:href="#DejaVuSans-69" x="148.726562"/>
      <use xlink:href="#DejaVuSans-6e" x="176.509766"/>
      <use xlink:href="#DejaVuSans-20" x="239.888672"/>
      <use xlink:href="#DejaVuSans-41" x="271.675781"/>
      <use xlink:href="#DejaVuSans-63" x="338.333984"/>
      <use xlink:href="#DejaVuSans-63" x="393.314453"/>
      <use xlink:href="#DejaVuSans-75" x="448.294922"/>
      <use xlink:href="#DejaVuSans-72" x="511.673828"/>
      <use xlink:href="#DejaVuSans-61" x="552.787109"/>
      <use xlink:href="#DejaVuSans-63" x="614.066406"/>
      <use xlink:href="#DejaVuSans-79" x="669.046875"/>
     </g>
    </g>
    <g id="line2d_26">
     <path d="M 216.18875 159.10925 
L 226.18875 159.10925 
L 236.18875 159.10925 
" style="fill: none; stroke: #ff7f0e; stroke-width: 1.5; stroke-linecap: square"/>
    </g>
    <g id="text_24">
     <!-- Validation Accuracy -->
     <g transform="translate(244.18875 162.60925) scale(0.1 -0.1)">
      <defs>
       <path id="DejaVuSans-56" d="M 1831 0 
L 50 4666 
L 709 4666 
L 2188 738 
L 3669 4666 
L 4325 4666 
L 2547 0 
L 1831 0 
z
" transform="scale(0.015625)"/>
       <path id="DejaVuSans-6c" d="M 603 4863 
L 1178 4863 
L 1178 0 
L 603 0 
L 603 4863 
z
" transform="scale(0.015625)"/>
       <path id="DejaVuSans-64" d="M 2906 2969 
L 2906 4863 
L 3481 4863 
L 3481 0 
L 2906 0 
L 2906 525 
Q 2725 213 2448 61 
Q 2172 -91 1784 -91 
Q 1150 -91 751 415 
Q 353 922 353 1747 
Q 353 2572 751 3078 
Q 1150 3584 1784 3584 
Q 2172 3584 2448 3432 
Q 2725 3281 2906 2969 
z
M 947 1747 
Q 947 1113 1208 752 
Q 1469 391 1925 391 
Q 2381 391 2643 752 
Q 2906 1113 2906 1747 
Q 2906 2381 2643 2742 
Q 2381 3103 1925 3103 
Q 1469 3103 1208 2742 
Q 947 2381 947 1747 
z
" transform="scale(0.015625)"/>
       <path id="DejaVuSans-74" d="M 1172 4494 
L 1172 3500 
L 2356 3500 
L 2356 3053 
L 1172 3053 
L 1172 1153 
Q 1172 725 1289 603 
Q 1406 481 1766 481 
L 2356 481 
L 2356 0 
L 1766 0 
Q 1100 0 847 248 
Q 594 497 594 1153 
L 594 3053 
L 172 3053 
L 172 3500 
L 594 3500 
L 594 4494 
L 1172 4494 
z
" transform="scale(0.015625)"/>
      </defs>
      <use xlink:href="#DejaVuSans-56"/>
      <use xlink:href="#DejaVuSans-61" x="60.658203"/>
      <use xlink:href="#DejaVuSans-6c" x="121.9375"/>
      <use xlink:href="#DejaVuSans-69" x="149.720703"/>
      <use xlink:href="#DejaVuSans-64" x="177.503906"/>
      <use xlink:href="#DejaVuSans-61" x="240.980469"/>
      <use xlink:href="#DejaVuSans-74" x="302.259766"/>
      <use xlink:href="#DejaVuSans-69" x="341.46875"/>
      <use xlink:href="#DejaVuSans-6f" x="369.251953"/>
      <use xlink:href="#DejaVuSans-6e" x="430.433594"/>
      <use xlink:href="#DejaVuSans-20" x="493.8125"/>
      <use xlink:href="#DejaVuSans-41" x="525.599609"/>
      <use xlink:href="#DejaVuSans-63" x="592.257812"/>
      <use xlink:href="#DejaVuSans-63" x="647.238281"/>
      <use xlink:href="#DejaVuSans-75" x="702.21875"/>
      <use xlink:href="#DejaVuSans-72" x="765.597656"/>
      <use xlink:href="#DejaVuSans-61" x="806.710938"/>
      <use xlink:href="#DejaVuSans-63" x="867.990234"/>
      <use xlink:href="#DejaVuSans-79" x="922.970703"/>
     </g>
    </g>
    <g id="line2d_27">
     <path d="M 216.18875 173.787375 
L 226.18875 173.787375 
L 236.18875 173.787375 
" style="fill: none; stroke: #2ca02c; stroke-width: 1.5; stroke-linecap: square"/>
    </g>
    <g id="text_25">
     <!-- Robust Validation Accuracy -->
     <g transform="translate(244.18875 177.287375) scale(0.1 -0.1)">
      <defs>
       <path id="DejaVuSans-52" d="M 2841 2188 
Q 3044 2119 3236 1894 
Q 3428 1669 3622 1275 
L 4263 0 
L 3584 0 
L 2988 1197 
Q 2756 1666 2539 1819 
Q 2322 1972 1947 1972 
L 1259 1972 
L 1259 0 
L 628 0 
L 628 4666 
L 2053 4666 
Q 2853 4666 3247 4331 
Q 3641 3997 3641 3322 
Q 3641 2881 3436 2590 
Q 3231 2300 2841 2188 
z
M 1259 4147 
L 1259 2491 
L 2053 2491 
Q 2509 2491 2742 2702 
Q 2975 2913 2975 3322 
Q 2975 3731 2742 3939 
Q 2509 4147 2053 4147 
L 1259 4147 
z
" transform="scale(0.015625)"/>
       <path id="DejaVuSans-62" d="M 3116 1747 
Q 3116 2381 2855 2742 
Q 2594 3103 2138 3103 
Q 1681 3103 1420 2742 
Q 1159 2381 1159 1747 
Q 1159 1113 1420 752 
Q 1681 391 2138 391 
Q 2594 391 2855 752 
Q 3116 1113 3116 1747 
z
M 1159 2969 
Q 1341 3281 1617 3432 
Q 1894 3584 2278 3584 
Q 2916 3584 3314 3078 
Q 3713 2572 3713 1747 
Q 3713 922 3314 415 
Q 2916 -91 2278 -91 
Q 1894 -91 1617 61 
Q 1341 213 1159 525 
L 1159 0 
L 581 0 
L 581 4863 
L 1159 4863 
L 1159 2969 
z
" transform="scale(0.015625)"/>
      </defs>
      <use xlink:href="#DejaVuSans-52"/>
      <use xlink:href="#DejaVuSans-6f" x="64.982422"/>
      <use xlink:href="#DejaVuSans-62" x="126.164062"/>
      <use xlink:href="#DejaVuSans-75" x="189.640625"/>
      <use xlink:href="#DejaVuSans-73" x="253.019531"/>
      <use xlink:href="#DejaVuSans-74" x="305.119141"/>
      <use xlink:href="#DejaVuSans-20" x="344.328125"/>
      <use xlink:href="#DejaVuSans-56" x="376.115234"/>
      <use xlink:href="#DejaVuSans-61" x="436.773438"/>
      <use xlink:href="#DejaVuSans-6c" x="498.052734"/>
      <use xlink:href="#DejaVuSans-69" x="525.835938"/>
      <use xlink:href="#DejaVuSans-64" x="553.619141"/>
      <use xlink:href="#DejaVuSans-61" x="617.095703"/>
      <use xlink:href="#DejaVuSans-74" x="678.375"/>
      <use xlink:href="#DejaVuSans-69" x="717.583984"/>
      <use xlink:href="#DejaVuSans-6f" x="745.367188"/>
      <use xlink:href="#DejaVuSans-6e" x="806.548828"/>
      <use xlink:href="#DejaVuSans-20" x="869.927734"/>
      <use xlink:href="#DejaVuSans-41" x="901.714844"/>
      <use xlink:href="#DejaVuSans-63" x="968.373047"/>
      <use xlink:href="#DejaVuSans-63" x="1023.353516"/>
      <use xlink:href="#DejaVuSans-75" x="1078.333984"/>
      <use xlink:href="#DejaVuSans-72" x="1141.712891"/>
      <use xlink:href="#DejaVuSans-61" x="1182.826172"/>
      <use xlink:href="#DejaVuSans-63" x="1244.105469"/>
      <use xlink:href="#DejaVuSans-79" x="1299.085938"/>
     </g>
    </g>
    <g id="line2d_28">
     <path d="M 216.18875 188.4655 
L 226.18875 188.4655 
L 236.18875 188.4655 
" style="fill: none; stroke: #d62728; stroke-width: 1.5; stroke-linecap: square"/>
    </g>
    <g id="text_26">
     <!-- SWA Validation Accuracy -->
     <g transform="translate(244.18875 191.9655) scale(0.1 -0.1)">
      <defs>
       <path id="DejaVuSans-53" d="M 3425 4513 
L 3425 3897 
Q 3066 4069 2747 4153 
Q 2428 4238 2131 4238 
Q 1616 4238 1336 4038 
Q 1056 3838 1056 3469 
Q 1056 3159 1242 3001 
Q 1428 2844 1947 2747 
L 2328 2669 
Q 3034 2534 3370 2195 
Q 3706 1856 3706 1288 
Q 3706 609 3251 259 
Q 2797 -91 1919 -91 
Q 1588 -91 1214 -16 
Q 841 59 441 206 
L 441 856 
Q 825 641 1194 531 
Q 1563 422 1919 422 
Q 2459 422 2753 634 
Q 3047 847 3047 1241 
Q 3047 1584 2836 1778 
Q 2625 1972 2144 2069 
L 1759 2144 
Q 1053 2284 737 2584 
Q 422 2884 422 3419 
Q 422 4038 858 4394 
Q 1294 4750 2059 4750 
Q 2388 4750 2728 4690 
Q 3069 4631 3425 4513 
z
" transform="scale(0.015625)"/>
       <path id="DejaVuSans-57" d="M 213 4666 
L 850 4666 
L 1831 722 
L 2809 4666 
L 3519 4666 
L 4500 722 
L 5478 4666 
L 6119 4666 
L 4947 0 
L 4153 0 
L 3169 4050 
L 2175 0 
L 1381 0 
L 213 4666 
z
" transform="scale(0.015625)"/>
      </defs>
      <use xlink:href="#DejaVuSans-53"/>
      <use xlink:href="#DejaVuSans-57" x="63.476562"/>
      <use xlink:href="#DejaVuSans-41" x="156.853516"/>
      <use xlink:href="#DejaVuSans-20" x="225.261719"/>
      <use xlink:href="#DejaVuSans-56" x="257.048828"/>
      <use xlink:href="#DejaVuSans-61" x="317.707031"/>
      <use xlink:href="#DejaVuSans-6c" x="378.986328"/>
      <use xlink:href="#DejaVuSans-69" x="406.769531"/>
      <use xlink:href="#DejaVuSans-64" x="434.552734"/>
      <use xlink:href="#DejaVuSans-61" x="498.029297"/>
      <use xlink:href="#DejaVuSans-74" x="559.308594"/>
      <use xlink:href="#DejaVuSans-69" x="598.517578"/>
      <use xlink:href="#DejaVuSans-6f" x="626.300781"/>
      <use xlink:href="#DejaVuSans-6e" x="687.482422"/>
      <use xlink:href="#DejaVuSans-20" x="750.861328"/>
      <use xlink:href="#DejaVuSans-41" x="782.648438"/>
      <use xlink:href="#DejaVuSans-63" x="849.306641"/>
      <use xlink:href="#DejaVuSans-63" x="904.287109"/>
      <use xlink:href="#DejaVuSans-75" x="959.267578"/>
      <use xlink:href="#DejaVuSans-72" x="1022.646484"/>
      <use xlink:href="#DejaVuSans-61" x="1063.759766"/>
      <use xlink:href="#DejaVuSans-63" x="1125.039062"/>
      <use xlink:href="#DejaVuSans-79" x="1180.019531"/>
     </g>
    </g>
    <g id="line2d_29">
     <path d="M 216.18875 203.143625 
L 226.18875 203.143625 
L 236.18875 203.143625 
" style="fill: none; stroke: #9467bd; stroke-width: 1.5; stroke-linecap: square"/>
    </g>
    <g id="text_27">
     <!-- SWA Robust Validation Accuracy -->
     <g transform="translate(244.18875 206.643625) scale(0.1 -0.1)">
      <use xlink:href="#DejaVuSans-53"/>
      <use xlink:href="#DejaVuSans-57" x="63.476562"/>
      <use xlink:href="#DejaVuSans-41" x="156.853516"/>
      <use xlink:href="#DejaVuSans-20" x="225.261719"/>
      <use xlink:href="#DejaVuSans-52" x="257.048828"/>
      <use xlink:href="#DejaVuSans-6f" x="322.03125"/>
      <use xlink:href="#DejaVuSans-62" x="383.212891"/>
      <use xlink:href="#DejaVuSans-75" x="446.689453"/>
      <use xlink:href="#DejaVuSans-73" x="510.068359"/>
      <use xlink:href="#DejaVuSans-74" x="562.167969"/>
      <use xlink:href="#DejaVuSans-20" x="601.376953"/>
      <use xlink:href="#DejaVuSans-56" x="633.164062"/>
      <use xlink:href="#DejaVuSans-61" x="693.822266"/>
      <use xlink:href="#DejaVuSans-6c" x="755.101562"/>
      <use xlink:href="#DejaVuSans-69" x="782.884766"/>
      <use xlink:href="#DejaVuSans-64" x="810.667969"/>
      <use xlink:href="#DejaVuSans-61" x="874.144531"/>
      <use xlink:href="#DejaVuSans-74" x="935.423828"/>
      <use xlink:href="#DejaVuSans-69" x="974.632812"/>
      <use xlink:href="#DejaVuSans-6f" x="1002.416016"/>
      <use xlink:href="#DejaVuSans-6e" x="1063.597656"/>
      <use xlink:href="#DejaVuSans-20" x="1126.976562"/>
      <use xlink:href="#DejaVuSans-41" x="1158.763672"/>
      <use xlink:href="#DejaVuSans-63" x="1225.421875"/>
      <use xlink:href="#DejaVuSans-63" x="1280.402344"/>
      <use xlink:href="#DejaVuSans-75" x="1335.382812"/>
      <use xlink:href="#DejaVuSans-72" x="1398.761719"/>
      <use xlink:href="#DejaVuSans-61" x="1439.875"/>
      <use xlink:href="#DejaVuSans-63" x="1501.154297"/>
      <use xlink:href="#DejaVuSans-79" x="1556.134766"/>
     </g>
    </g>
   </g>
  </g>
 </g>
 <defs>
  <clipPath id="p108fa66276">
   <rect x="57.6" y="41.472" width="357.12" height="266.112"/>
  </clipPath>
 </defs>
</svg>
