<?xml version="1.0" encoding="utf-8" standalone="no"?>
<!DOCTYPE svg PUBLIC "-//W3C//DTD SVG 1.1//EN"
  "http://www.w3.org/Graphics/SVG/1.1/DTD/svg11.dtd">
<svg xmlns:xlink="http://www.w3.org/1999/xlink" width="460.8pt" height="345.6pt" viewBox="0 0 460.8 345.6" xmlns="http://www.w3.org/2000/svg" version="1.1">
 <metadata>
  <rdf:RDF xmlns:dc="http://purl.org/dc/elements/1.1/" xmlns:cc="http://creativecommons.org/ns#" xmlns:rdf="http://www.w3.org/1999/02/22-rdf-syntax-ns#">
   <cc:Work>
    <dc:type rdf:resource="http://purl.org/dc/dcmitype/StillImage"/>
    <dc:date>2025-01-17T19:00:42.134458</dc:date>
    <dc:format>image/svg+xml</dc:format>
    <dc:creator>
     <cc:Agent>
      <dc:title>Matplotlib v3.9.1, https://matplotlib.org/</dc:title>
     </cc:Agent>
    </dc:creator>
   </cc:Work>
  </rdf:RDF>
 </metadata>
 <defs>
  <style type="text/css">*{stroke-linejoin: round; stroke-linecap: butt}</style>
 </defs>
 <g id="figure_1">
  <g id="patch_1">
   <path d="M 0 345.6 
L 460.8 345.6 
L 460.8 0 
L 0 0 
z
" style="fill: #ffffff"/>
  </g>
  <g id="axes_1">
   <g id="patch_2">
    <path d="M 57.6 307.584 
L 414.72 307.584 
L 414.72 41.472 
L 57.6 41.472 
z
" style="fill: #ffffff"/>
   </g>
   <g id="matplotlib.axis_1">
    <g id="xtick_1">
     <g id="line2d_1">
      <defs>
       <path id="mc82b5faa8b" d="M 0 0 
L 0 3.5 
" style="stroke: #000000; stroke-width: 0.8"/>
      </defs>
      <g>
       <use xlink:href="#mc82b5faa8b" x="73.832727" y="307.584" style="stroke: #000000; stroke-width: 0.8"/>
      </g>
     </g>
     <g id="text_1">
      <!-- 1 -->
      <g transform="translate(70.651477 322.182437) scale(0.1 -0.1)">
       <defs>
        <path id="DejaVuSans-31" d="M 794 531 
L 1825 531 
L 1825 4091 
L 703 3866 
L 703 4441 
L 1819 4666 
L 2450 4666 
L 2450 531 
L 3481 531 
L 3481 0 
L 794 0 
L 794 531 
z
" transform="scale(0.015625)"/>
       </defs>
       <use xlink:href="#DejaVuSans-31"/>
      </g>
     </g>
    </g>
    <g id="xtick_2">
     <g id="line2d_2">
      <g>
       <use xlink:href="#mc82b5faa8b" x="109.664165" y="307.584" style="stroke: #000000; stroke-width: 0.8"/>
      </g>
     </g>
     <g id="text_2">
      <!-- 34 -->
      <g transform="translate(103.301665 322.182437) scale(0.1 -0.1)">
       <defs>
        <path id="DejaVuSans-33" d="M 2597 2516 
Q 3050 2419 3304 2112 
Q 3559 1806 3559 1356 
Q 3559 666 3084 287 
Q 2609 -91 1734 -91 
Q 1441 -91 1130 -33 
Q 819 25 488 141 
L 488 750 
Q 750 597 1062 519 
Q 1375 441 1716 441 
Q 2309 441 2620 675 
Q 2931 909 2931 1356 
Q 2931 1769 2642 2001 
Q 2353 2234 1838 2234 
L 1294 2234 
L 1294 2753 
L 1863 2753 
Q 2328 2753 2575 2939 
Q 2822 3125 2822 3475 
Q 2822 3834 2567 4026 
Q 2313 4219 1838 4219 
Q 1578 4219 1281 4162 
Q 984 4106 628 3988 
L 628 4550 
Q 988 4650 1302 4700 
Q 1616 4750 1894 4750 
Q 2613 4750 3031 4423 
Q 3450 4097 3450 3541 
Q 3450 3153 3228 2886 
Q 3006 2619 2597 2516 
z
" transform="scale(0.015625)"/>
        <path id="DejaVuSans-34" d="M 2419 4116 
L 825 1625 
L 2419 1625 
L 2419 4116 
z
M 2253 4666 
L 3047 4666 
L 3047 1625 
L 3713 1625 
L 3713 1100 
L 3047 1100 
L 3047 0 
L 2419 0 
L 2419 1100 
L 313 1100 
L 313 1709 
L 2253 4666 
z
" transform="scale(0.015625)"/>
       </defs>
       <use xlink:href="#DejaVuSans-33"/>
       <use xlink:href="#DejaVuSans-34" x="63.623047"/>
      </g>
     </g>
    </g>
    <g id="xtick_3">
     <g id="line2d_3">
      <g>
       <use xlink:href="#mc82b5faa8b" x="145.495604" y="307.584" style="stroke: #000000; stroke-width: 0.8"/>
      </g>
     </g>
     <g id="text_3">
      <!-- 67 -->
      <g transform="translate(139.133104 322.182437) scale(0.1 -0.1)">
       <defs>
        <path id="DejaVuSans-36" d="M 2113 2584 
Q 1688 2584 1439 2293 
Q 1191 2003 1191 1497 
Q 1191 994 1439 701 
Q 1688 409 2113 409 
Q 2538 409 2786 701 
Q 3034 994 3034 1497 
Q 3034 2003 2786 2293 
Q 2538 2584 2113 2584 
z
M 3366 4563 
L 3366 3988 
Q 3128 4100 2886 4159 
Q 2644 4219 2406 4219 
Q 1781 4219 1451 3797 
Q 1122 3375 1075 2522 
Q 1259 2794 1537 2939 
Q 1816 3084 2150 3084 
Q 2853 3084 3261 2657 
Q 3669 2231 3669 1497 
Q 3669 778 3244 343 
Q 2819 -91 2113 -91 
Q 1303 -91 875 529 
Q 447 1150 447 2328 
Q 447 3434 972 4092 
Q 1497 4750 2381 4750 
Q 2619 4750 2861 4703 
Q 3103 4656 3366 4563 
z
" transform="scale(0.015625)"/>
        <path id="DejaVuSans-37" d="M 525 4666 
L 3525 4666 
L 3525 4397 
L 1831 0 
L 1172 0 
L 2766 4134 
L 525 4134 
L 525 4666 
z
" transform="scale(0.015625)"/>
       </defs>
       <use xlink:href="#DejaVuSans-36"/>
       <use xlink:href="#DejaVuSans-37" x="63.623047"/>
      </g>
     </g>
    </g>
    <g id="xtick_4">
     <g id="line2d_4">
      <g>
       <use xlink:href="#mc82b5faa8b" x="181.327042" y="307.584" style="stroke: #000000; stroke-width: 0.8"/>
      </g>
     </g>
     <g id="text_4">
      <!-- 100 -->
      <g transform="translate(171.783292 322.182437) scale(0.1 -0.1)">
       <defs>
        <path id="DejaVuSans-30" d="M 2034 4250 
Q 1547 4250 1301 3770 
Q 1056 3291 1056 2328 
Q 1056 1369 1301 889 
Q 1547 409 2034 409 
Q 2525 409 2770 889 
Q 3016 1369 3016 2328 
Q 3016 3291 2770 3770 
Q 2525 4250 2034 4250 
z
M 2034 4750 
Q 2819 4750 3233 4129 
Q 3647 3509 3647 2328 
Q 3647 1150 3233 529 
Q 2819 -91 2034 -91 
Q 1250 -91 836 529 
Q 422 1150 422 2328 
Q 422 3509 836 4129 
Q 1250 4750 2034 4750 
z
" transform="scale(0.015625)"/>
       </defs>
       <use xlink:href="#DejaVuSans-31"/>
       <use xlink:href="#DejaVuSans-30" x="63.623047"/>
       <use xlink:href="#DejaVuSans-30" x="127.246094"/>
      </g>
     </g>
    </g>
    <g id="xtick_5">
     <g id="line2d_5">
      <g>
       <use xlink:href="#mc82b5faa8b" x="217.15848" y="307.584" style="stroke: #000000; stroke-width: 0.8"/>
      </g>
     </g>
     <g id="text_5">
      <!-- 133 -->
      <g transform="translate(207.61473 322.182437) scale(0.1 -0.1)">
       <use xlink:href="#DejaVuSans-31"/>
       <use xlink:href="#DejaVuSans-33" x="63.623047"/>
       <use xlink:href="#DejaVuSans-33" x="127.246094"/>
      </g>
     </g>
    </g>
    <g id="xtick_6">
     <g id="line2d_6">
      <g>
       <use xlink:href="#mc82b5faa8b" x="254.075719" y="307.584" style="stroke: #000000; stroke-width: 0.8"/>
      </g>
     </g>
     <g id="text_6">
      <!-- 167 -->
      <g transform="translate(244.531969 322.182437) scale(0.1 -0.1)">
       <use xlink:href="#DejaVuSans-31"/>
       <use xlink:href="#DejaVuSans-36" x="63.623047"/>
       <use xlink:href="#DejaVuSans-37" x="127.246094"/>
      </g>
     </g>
    </g>
    <g id="xtick_7">
     <g id="line2d_7">
      <g>
       <use xlink:href="#mc82b5faa8b" x="289.907157" y="307.584" style="stroke: #000000; stroke-width: 0.8"/>
      </g>
     </g>
     <g id="text_7">
      <!-- 200 -->
      <g transform="translate(280.363407 322.182437) scale(0.1 -0.1)">
       <defs>
        <path id="DejaVuSans-32" d="M 1228 531 
L 3431 531 
L 3431 0 
L 469 0 
L 469 531 
Q 828 903 1448 1529 
Q 2069 2156 2228 2338 
Q 2531 2678 2651 2914 
Q 2772 3150 2772 3378 
Q 2772 3750 2511 3984 
Q 2250 4219 1831 4219 
Q 1534 4219 1204 4116 
Q 875 4013 500 3803 
L 500 4441 
Q 881 4594 1212 4672 
Q 1544 4750 1819 4750 
Q 2544 4750 2975 4387 
Q 3406 4025 3406 3419 
Q 3406 3131 3298 2873 
Q 3191 2616 2906 2266 
Q 2828 2175 2409 1742 
Q 1991 1309 1228 531 
z
" transform="scale(0.015625)"/>
       </defs>
       <use xlink:href="#DejaVuSans-32"/>
       <use xlink:href="#DejaVuSans-30" x="63.623047"/>
       <use xlink:href="#DejaVuSans-30" x="127.246094"/>
      </g>
     </g>
    </g>
    <g id="xtick_8">
     <g id="line2d_8">
      <g>
       <use xlink:href="#mc82b5faa8b" x="325.738595" y="307.584" style="stroke: #000000; stroke-width: 0.8"/>
      </g>
     </g>
     <g id="text_8">
      <!-- 233 -->
      <g transform="translate(316.194845 322.182437) scale(0.1 -0.1)">
       <use xlink:href="#DejaVuSans-32"/>
       <use xlink:href="#DejaVuSans-33" x="63.623047"/>
       <use xlink:href="#DejaVuSans-33" x="127.246094"/>
      </g>
     </g>
    </g>
    <g id="xtick_9">
     <g id="line2d_9">
      <g>
       <use xlink:href="#mc82b5faa8b" x="361.570033" y="307.584" style="stroke: #000000; stroke-width: 0.8"/>
      </g>
     </g>
     <g id="text_9">
      <!-- 266 -->
      <g transform="translate(352.026283 322.182437) scale(0.1 -0.1)">
       <use xlink:href="#DejaVuSans-32"/>
       <use xlink:href="#DejaVuSans-36" x="63.623047"/>
       <use xlink:href="#DejaVuSans-36" x="127.246094"/>
      </g>
     </g>
    </g>
    <g id="xtick_10">
     <g id="line2d_10">
      <g>
       <use xlink:href="#mc82b5faa8b" x="398.487273" y="307.584" style="stroke: #000000; stroke-width: 0.8"/>
      </g>
     </g>
     <g id="text_10">
      <!-- 300 -->
      <g transform="translate(388.943523 322.182437) scale(0.1 -0.1)">
       <use xlink:href="#DejaVuSans-33"/>
       <use xlink:href="#DejaVuSans-30" x="63.623047"/>
       <use xlink:href="#DejaVuSans-30" x="127.246094"/>
      </g>
     </g>
    </g>
    <g id="text_11">
     <!-- Epochs -->
     <g transform="translate(218.244375 335.860562) scale(0.1 -0.1)">
      <defs>
       <path id="DejaVuSans-45" d="M 628 4666 
L 3578 4666 
L 3578 4134 
L 1259 4134 
L 1259 2753 
L 3481 2753 
L 3481 2222 
L 1259 2222 
L 1259 531 
L 3634 531 
L 3634 0 
L 628 0 
L 628 4666 
z
" transform="scale(0.015625)"/>
       <path id="DejaVuSans-70" d="M 1159 525 
L 1159 -1331 
L 581 -1331 
L 581 3500 
L 1159 3500 
L 1159 2969 
Q 1341 3281 1617 3432 
Q 1894 3584 2278 3584 
Q 2916 3584 3314 3078 
Q 3713 2572 3713 1747 
Q 3713 922 3314 415 
Q 2916 -91 2278 -91 
Q 1894 -91 1617 61 
Q 1341 213 1159 525 
z
M 3116 1747 
Q 3116 2381 2855 2742 
Q 2594 3103 2138 3103 
Q 1681 3103 1420 2742 
Q 1159 2381 1159 1747 
Q 1159 1113 1420 752 
Q 1681 391 2138 391 
Q 2594 391 2855 752 
Q 3116 1113 3116 1747 
z
" transform="scale(0.015625)"/>
       <path id="DejaVuSans-6f" d="M 1959 3097 
Q 1497 3097 1228 2736 
Q 959 2375 959 1747 
Q 959 1119 1226 758 
Q 1494 397 1959 397 
Q 2419 397 2687 759 
Q 2956 1122 2956 1747 
Q 2956 2369 2687 2733 
Q 2419 3097 1959 3097 
z
M 1959 3584 
Q 2709 3584 3137 3096 
Q 3566 2609 3566 1747 
Q 3566 888 3137 398 
Q 2709 -91 1959 -91 
Q 1206 -91 779 398 
Q 353 888 353 1747 
Q 353 2609 779 3096 
Q 1206 3584 1959 3584 
z
" transform="scale(0.015625)"/>
       <path id="DejaVuSans-63" d="M 3122 3366 
L 3122 2828 
Q 2878 2963 2633 3030 
Q 2388 3097 2138 3097 
Q 1578 3097 1268 2742 
Q 959 2388 959 1747 
Q 959 1106 1268 751 
Q 1578 397 2138 397 
Q 2388 397 2633 464 
Q 2878 531 3122 666 
L 3122 134 
Q 2881 22 2623 -34 
Q 2366 -91 2075 -91 
Q 1284 -91 818 406 
Q 353 903 353 1747 
Q 353 2603 823 3093 
Q 1294 3584 2113 3584 
Q 2378 3584 2631 3529 
Q 2884 3475 3122 3366 
z
" transform="scale(0.015625)"/>
       <path id="DejaVuSans-68" d="M 3513 2113 
L 3513 0 
L 2938 0 
L 2938 2094 
Q 2938 2591 2744 2837 
Q 2550 3084 2163 3084 
Q 1697 3084 1428 2787 
Q 1159 2491 1159 1978 
L 1159 0 
L 581 0 
L 581 4863 
L 1159 4863 
L 1159 2956 
Q 1366 3272 1645 3428 
Q 1925 3584 2291 3584 
Q 2894 3584 3203 3211 
Q 3513 2838 3513 2113 
z
" transform="scale(0.015625)"/>
       <path id="DejaVuSans-73" d="M 2834 3397 
L 2834 2853 
Q 2591 2978 2328 3040 
Q 2066 3103 1784 3103 
Q 1356 3103 1142 2972 
Q 928 2841 928 2578 
Q 928 2378 1081 2264 
Q 1234 2150 1697 2047 
L 1894 2003 
Q 2506 1872 2764 1633 
Q 3022 1394 3022 966 
Q 3022 478 2636 193 
Q 2250 -91 1575 -91 
Q 1294 -91 989 -36 
Q 684 19 347 128 
L 347 722 
Q 666 556 975 473 
Q 1284 391 1588 391 
Q 1994 391 2212 530 
Q 2431 669 2431 922 
Q 2431 1156 2273 1281 
Q 2116 1406 1581 1522 
L 1381 1569 
Q 847 1681 609 1914 
Q 372 2147 372 2553 
Q 372 3047 722 3315 
Q 1072 3584 1716 3584 
Q 2034 3584 2315 3537 
Q 2597 3491 2834 3397 
z
" transform="scale(0.015625)"/>
      </defs>
      <use xlink:href="#DejaVuSans-45"/>
      <use xlink:href="#DejaVuSans-70" x="63.183594"/>
      <use xlink:href="#DejaVuSans-6f" x="126.660156"/>
      <use xlink:href="#DejaVuSans-63" x="187.841797"/>
      <use xlink:href="#DejaVuSans-68" x="242.822266"/>
      <use xlink:href="#DejaVuSans-73" x="306.201172"/>
     </g>
    </g>
   </g>
   <g id="matplotlib.axis_2">
    <g id="ytick_1">
     <g id="line2d_11">
      <defs>
       <path id="me3989852f5" d="M 0 0 
L -3.5 0 
" style="stroke: #000000; stroke-width: 0.8"/>
      </defs>
      <g>
       <use xlink:href="#me3989852f5" x="57.6" y="270.647473" style="stroke: #000000; stroke-width: 0.8"/>
      </g>
     </g>
     <g id="text_12">
      <!-- 50 -->
      <g transform="translate(37.875 274.446692) scale(0.1 -0.1)">
       <defs>
        <path id="DejaVuSans-35" d="M 691 4666 
L 3169 4666 
L 3169 4134 
L 1269 4134 
L 1269 2991 
Q 1406 3038 1543 3061 
Q 1681 3084 1819 3084 
Q 2600 3084 3056 2656 
Q 3513 2228 3513 1497 
Q 3513 744 3044 326 
Q 2575 -91 1722 -91 
Q 1428 -91 1123 -41 
Q 819 9 494 109 
L 494 744 
Q 775 591 1075 516 
Q 1375 441 1709 441 
Q 2250 441 2565 725 
Q 2881 1009 2881 1497 
Q 2881 1984 2565 2268 
Q 2250 2553 1709 2553 
Q 1456 2553 1204 2497 
Q 953 2441 691 2322 
L 691 4666 
z
" transform="scale(0.015625)"/>
       </defs>
       <use xlink:href="#DejaVuSans-35"/>
       <use xlink:href="#DejaVuSans-30" x="63.623047"/>
      </g>
     </g>
    </g>
    <g id="ytick_2">
     <g id="line2d_12">
      <g>
       <use xlink:href="#me3989852f5" x="57.6" y="227.093949" style="stroke: #000000; stroke-width: 0.8"/>
      </g>
     </g>
     <g id="text_13">
      <!-- 60 -->
      <g transform="translate(37.875 230.893168) scale(0.1 -0.1)">
       <use xlink:href="#DejaVuSans-36"/>
       <use xlink:href="#DejaVuSans-30" x="63.623047"/>
      </g>
     </g>
    </g>
    <g id="ytick_3">
     <g id="line2d_13">
      <g>
       <use xlink:href="#me3989852f5" x="57.6" y="183.540426" style="stroke: #000000; stroke-width: 0.8"/>
      </g>
     </g>
     <g id="text_14">
      <!-- 70 -->
      <g transform="translate(37.875 187.339644) scale(0.1 -0.1)">
       <use xlink:href="#DejaVuSans-37"/>
       <use xlink:href="#DejaVuSans-30" x="63.623047"/>
      </g>
     </g>
    </g>
    <g id="ytick_4">
     <g id="line2d_14">
      <g>
       <use xlink:href="#me3989852f5" x="57.6" y="139.986902" style="stroke: #000000; stroke-width: 0.8"/>
      </g>
     </g>
     <g id="text_15">
      <!-- 80 -->
      <g transform="translate(37.875 143.786121) scale(0.1 -0.1)">
       <defs>
        <path id="DejaVuSans-38" d="M 2034 2216 
Q 1584 2216 1326 1975 
Q 1069 1734 1069 1313 
Q 1069 891 1326 650 
Q 1584 409 2034 409 
Q 2484 409 2743 651 
Q 3003 894 3003 1313 
Q 3003 1734 2745 1975 
Q 2488 2216 2034 2216 
z
M 1403 2484 
Q 997 2584 770 2862 
Q 544 3141 544 3541 
Q 544 4100 942 4425 
Q 1341 4750 2034 4750 
Q 2731 4750 3128 4425 
Q 3525 4100 3525 3541 
Q 3525 3141 3298 2862 
Q 3072 2584 2669 2484 
Q 3125 2378 3379 2068 
Q 3634 1759 3634 1313 
Q 3634 634 3220 271 
Q 2806 -91 2034 -91 
Q 1263 -91 848 271 
Q 434 634 434 1313 
Q 434 1759 690 2068 
Q 947 2378 1403 2484 
z
M 1172 3481 
Q 1172 3119 1398 2916 
Q 1625 2713 2034 2713 
Q 2441 2713 2670 2916 
Q 2900 3119 2900 3481 
Q 2900 3844 2670 4047 
Q 2441 4250 2034 4250 
Q 1625 4250 1398 4047 
Q 1172 3844 1172 3481 
z
" transform="scale(0.015625)"/>
       </defs>
       <use xlink:href="#DejaVuSans-38"/>
       <use xlink:href="#DejaVuSans-30" x="63.623047"/>
      </g>
     </g>
    </g>
    <g id="ytick_5">
     <g id="line2d_15">
      <g>
       <use xlink:href="#me3989852f5" x="57.6" y="96.433378" style="stroke: #000000; stroke-width: 0.8"/>
      </g>
     </g>
     <g id="text_16">
      <!-- 90 -->
      <g transform="translate(37.875 100.232597) scale(0.1 -0.1)">
       <defs>
        <path id="DejaVuSans-39" d="M 703 97 
L 703 672 
Q 941 559 1184 500 
Q 1428 441 1663 441 
Q 2288 441 2617 861 
Q 2947 1281 2994 2138 
Q 2813 1869 2534 1725 
Q 2256 1581 1919 1581 
Q 1219 1581 811 2004 
Q 403 2428 403 3163 
Q 403 3881 828 4315 
Q 1253 4750 1959 4750 
Q 2769 4750 3195 4129 
Q 3622 3509 3622 2328 
Q 3622 1225 3098 567 
Q 2575 -91 1691 -91 
Q 1453 -91 1209 -44 
Q 966 3 703 97 
z
M 1959 2075 
Q 2384 2075 2632 2365 
Q 2881 2656 2881 3163 
Q 2881 3666 2632 3958 
Q 2384 4250 1959 4250 
Q 1534 4250 1286 3958 
Q 1038 3666 1038 3163 
Q 1038 2656 1286 2365 
Q 1534 2075 1959 2075 
z
" transform="scale(0.015625)"/>
       </defs>
       <use xlink:href="#DejaVuSans-39"/>
       <use xlink:href="#DejaVuSans-30" x="63.623047"/>
      </g>
     </g>
    </g>
    <g id="ytick_6">
     <g id="line2d_16">
      <g>
       <use xlink:href="#me3989852f5" x="57.6" y="52.879854" style="stroke: #000000; stroke-width: 0.8"/>
      </g>
     </g>
     <g id="text_17">
      <!-- 100 -->
      <g transform="translate(31.5125 56.679073) scale(0.1 -0.1)">
       <use xlink:href="#DejaVuSans-31"/>
       <use xlink:href="#DejaVuSans-30" x="63.623047"/>
       <use xlink:href="#DejaVuSans-30" x="127.246094"/>
      </g>
     </g>
    </g>
    <g id="text_18">
     <!-- Accuracy -->
     <g transform="translate(25.432812 197.356125) rotate(-90) scale(0.1 -0.1)">
      <defs>
       <path id="DejaVuSans-41" d="M 2188 4044 
L 1331 1722 
L 3047 1722 
L 2188 4044 
z
M 1831 4666 
L 2547 4666 
L 4325 0 
L 3669 0 
L 3244 1197 
L 1141 1197 
L 716 0 
L 50 0 
L 1831 4666 
z
" transform="scale(0.015625)"/>
       <path id="DejaVuSans-75" d="M 544 1381 
L 544 3500 
L 1119 3500 
L 1119 1403 
Q 1119 906 1312 657 
Q 1506 409 1894 409 
Q 2359 409 2629 706 
Q 2900 1003 2900 1516 
L 2900 3500 
L 3475 3500 
L 3475 0 
L 2900 0 
L 2900 538 
Q 2691 219 2414 64 
Q 2138 -91 1772 -91 
Q 1169 -91 856 284 
Q 544 659 544 1381 
z
M 1991 3584 
L 1991 3584 
z
" transform="scale(0.015625)"/>
       <path id="DejaVuSans-72" d="M 2631 2963 
Q 2534 3019 2420 3045 
Q 2306 3072 2169 3072 
Q 1681 3072 1420 2755 
Q 1159 2438 1159 1844 
L 1159 0 
L 581 0 
L 581 3500 
L 1159 3500 
L 1159 2956 
Q 1341 3275 1631 3429 
Q 1922 3584 2338 3584 
Q 2397 3584 2469 3576 
Q 2541 3569 2628 3553 
L 2631 2963 
z
" transform="scale(0.015625)"/>
       <path id="DejaVuSans-61" d="M 2194 1759 
Q 1497 1759 1228 1600 
Q 959 1441 959 1056 
Q 959 750 1161 570 
Q 1363 391 1709 391 
Q 2188 391 2477 730 
Q 2766 1069 2766 1631 
L 2766 1759 
L 2194 1759 
z
M 3341 1997 
L 3341 0 
L 2766 0 
L 2766 531 
Q 2569 213 2275 61 
Q 1981 -91 1556 -91 
Q 1019 -91 701 211 
Q 384 513 384 1019 
Q 384 1609 779 1909 
Q 1175 2209 1959 2209 
L 2766 2209 
L 2766 2266 
Q 2766 2663 2505 2880 
Q 2244 3097 1772 3097 
Q 1472 3097 1187 3025 
Q 903 2953 641 2809 
L 641 3341 
Q 956 3463 1253 3523 
Q 1550 3584 1831 3584 
Q 2591 3584 2966 3190 
Q 3341 2797 3341 1997 
z
" transform="scale(0.015625)"/>
       <path id="DejaVuSans-79" d="M 2059 -325 
Q 1816 -950 1584 -1140 
Q 1353 -1331 966 -1331 
L 506 -1331 
L 506 -850 
L 844 -850 
Q 1081 -850 1212 -737 
Q 1344 -625 1503 -206 
L 1606 56 
L 191 3500 
L 800 3500 
L 1894 763 
L 2988 3500 
L 3597 3500 
L 2059 -325 
z
" transform="scale(0.015625)"/>
      </defs>
      <use xlink:href="#DejaVuSans-41"/>
      <use xlink:href="#DejaVuSans-63" x="66.658203"/>
      <use xlink:href="#DejaVuSans-63" x="121.638672"/>
      <use xlink:href="#DejaVuSans-75" x="176.619141"/>
      <use xlink:href="#DejaVuSans-72" x="239.998047"/>
      <use xlink:href="#DejaVuSans-61" x="281.111328"/>
      <use xlink:href="#DejaVuSans-63" x="342.390625"/>
      <use xlink:href="#DejaVuSans-79" x="397.371094"/>
     </g>
    </g>
   </g>
   <g id="line2d_17">
    <path d="M 73.832727 267.590016 
L 74.918528 163.976183 
L 76.00433 131.485254 
L 77.090131 115.771143 
L 78.175932 106.894934 
L 79.261733 99.813132 
L 80.347534 94.307966 
L 83.604938 83.341189 
L 86.862341 75.275076 
L 90.119745 70.100918 
L 91.205546 68.010348 
L 92.291347 66.329182 
L 94.462949 65.100973 
L 95.54875 86.207011 
L 96.634552 84.734902 
L 97.720353 81.712287 
L 98.806154 81.233198 
L 99.891955 79.90046 
L 100.977756 77.940552 
L 102.063557 77.025928 
L 103.149358 76.355204 
L 104.23516 75.022466 
L 105.320961 74.151395 
L 106.406762 72.792525 
L 107.492563 72.84479 
L 108.578364 71.61658 
L 109.664165 71.337838 
L 110.749967 70.013811 
L 111.835768 69.14274 
L 114.00737 68.297802 
L 116.178972 66.616636 
L 117.264773 66.17239 
L 118.350575 64.543488 
L 119.436376 64.360563 
L 120.522177 62.95814 
L 121.607978 62.269994 
L 122.693779 62.026094 
L 123.77958 61.067917 
L 124.865382 60.562696 
L 125.951183 59.74389 
L 127.036984 59.151562 
L 128.122785 59.064455 
L 129.208586 58.062724 
L 130.294387 57.723006 
L 131.380189 56.9042 
L 133.551791 56.817093 
L 134.637592 56.364136 
L 137.894995 56.303161 
L 138.980797 73.437118 
L 140.066598 73.907496 
L 141.152399 72.618311 
L 142.2382 72.557336 
L 143.324001 71.651423 
L 144.409802 71.590448 
L 145.495604 71.085227 
L 146.581405 71.442366 
L 147.667206 69.813464 
L 148.753007 70.205446 
L 150.924609 68.985947 
L 152.01041 68.480727 
L 153.096212 68.733337 
L 154.182013 68.132298 
L 155.267814 67.879688 
L 156.353615 67.418021 
L 157.439416 67.357046 
L 158.525217 66.869246 
L 159.611019 66.860535 
L 160.69682 66.477264 
L 161.782621 65.536508 
L 162.868422 65.56264 
L 163.954223 65.127105 
L 165.040024 65.667169 
L 167.211627 64.377985 
L 168.297428 64.517356 
L 169.383229 64.456381 
L 170.46903 63.3327 
L 171.554831 63.637575 
L 172.640632 63.045247 
L 173.726434 63.376254 
L 174.812235 62.496472 
L 175.898036 62.679397 
L 176.983837 61.790905 
L 178.069638 62.121912 
L 179.155439 61.695088 
L 180.24124 60.928546 
L 182.412843 60.780464 
L 183.498644 60.501721 
L 184.584445 60.414614 
L 185.670246 59.7526 
L 186.756047 58.855398 
L 187.841849 59.404172 
L 190.013451 58.271781 
L 191.099252 58.445995 
L 192.185053 58.036592 
L 193.270854 57.357157 
L 194.356656 57.296182 
L 195.442457 56.825804 
L 196.528258 56.756118 
L 197.614059 56.486086 
L 198.69986 56.033129 
L 199.785661 56.172501 
L 200.871462 56.094104 
L 201.957264 55.449512 
L 204.128866 54.979134 
L 205.214667 55.101084 
L 206.300468 54.953002 
L 207.386269 54.230014 
L 208.472071 54.726524 
L 209.557872 54.360674 
L 210.643673 54.543599 
L 211.729474 54.526178 
L 212.815275 54.099353 
L 213.901076 54.30841 
L 214.986877 54.020957 
L 216.072679 53.890296 
L 217.15848 53.93385 
L 218.244281 53.768346 
L 221.501684 53.916428 
L 222.587486 53.93385 
L 223.673287 53.707371 
L 224.759088 53.829321 
L 225.844889 70.057364 
L 226.93069 71.146202 
L 228.016491 70.980699 
L 229.102292 70.109628 
L 230.188094 68.863998 
L 231.273895 68.628809 
L 232.359696 67.705474 
L 233.445497 67.992927 
L 235.617099 67.278649 
L 237.788702 67.069592 
L 238.874503 66.233365 
L 239.960304 65.80654 
L 242.131906 66.494686 
L 243.217708 65.911069 
L 244.303509 65.754276 
L 245.38931 65.963333 
L 246.475111 64.883205 
L 248.646713 65.571351 
L 249.732514 64.578331 
L 250.818316 64.708991 
L 251.904117 63.942449 
L 252.989918 64.282167 
L 254.075719 64.334431 
L 255.16152 63.776946 
L 256.247321 64.456381 
L 257.333123 63.681128 
L 258.418924 63.681128 
L 260.590526 64.526067 
L 261.676327 63.5766 
L 262.762128 63.759525 
L 263.847929 63.289146 
L 266.019532 63.315279 
L 268.191134 62.696819 
L 269.276935 63.315279 
L 270.362736 62.810058 
L 271.448538 62.71424 
L 272.534339 62.810058 
L 273.62014 62.583579 
L 274.705941 62.174176 
L 275.791742 62.775215 
L 276.877543 61.956409 
L 277.963344 61.808327 
L 279.049146 62.165466 
L 282.306549 61.398924 
L 283.39235 61.364081 
L 284.478151 61.668955 
L 285.563953 61.625402 
L 286.649754 60.806596 
L 287.735555 61.259552 
L 289.907157 61.076627 
L 292.07876 61.512163 
L 294.250362 60.170714 
L 295.336163 59.918104 
L 296.421964 60.144582 
L 300.765169 59.726468 
L 302.936771 59.952947 
L 304.022572 59.87455 
L 305.108373 59.203826 
L 306.194175 59.029612 
L 307.279976 59.221247 
L 308.365777 58.829266 
L 309.451578 59.334487 
L 310.537379 58.733448 
L 311.62318 58.39373 
L 312.708981 58.550523 
L 313.794783 58.123699 
L 314.880584 58.350177 
L 315.966385 57.810113 
L 317.052186 58.332755 
L 318.137987 57.609767 
L 319.223788 57.740428 
L 320.30959 57.296182 
L 322.481192 57.139389 
L 323.566993 57.365867 
L 324.652794 56.930332 
L 325.738595 57.121968 
L 326.824396 56.756118 
L 327.910198 56.790961 
L 328.995999 56.52964 
L 330.0818 56.4164 
L 331.167601 56.468665 
L 332.253402 56.033129 
L 333.339203 56.303161 
L 334.425005 56.146369 
L 335.510806 55.580173 
L 336.596607 55.658569 
L 338.768209 55.440802 
L 339.85401 55.257877 
L 342.025613 55.284009 
L 344.197215 54.831052 
L 346.368817 54.831052 
L 348.54042 54.639417 
L 349.626221 54.700392 
L 350.712022 54.404228 
L 351.797823 54.43907 
L 353.969425 53.994825 
L 355.055227 54.177749 
L 356.141028 53.968692 
L 359.398431 53.968692 
L 360.484232 53.698661 
L 361.570033 53.672528 
L 362.655835 53.759636 
L 366.999039 53.620264 
L 368.08484 53.68995 
L 369.170642 53.568 
L 370.256443 53.716082 
L 372.428045 54.543599 
L 373.513846 54.717813 
L 374.599647 54.508756 
L 375.685448 55.083663 
L 376.77125 54.918159 
L 380.028653 55.101084 
L 381.114454 54.865895 
L 382.200255 55.066241 
L 383.286057 54.900738 
L 385.457659 54.839763 
L 386.54346 54.918159 
L 388.715062 55.388537 
L 390.886665 55.092373 
L 391.972466 55.231745 
L 393.058267 55.484355 
L 396.31567 55.188191 
L 398.487273 55.675991 
L 398.487273 55.675991 
" clip-path="url(#p6af24e848f)" style="fill: none; stroke: #1f77b4; stroke-width: 1.5; stroke-linecap: square"/>
   </g>
   <g id="line2d_18">
    <path d="M 73.832727 218.992994 
L 74.918528 169.124209 
L 76.00433 159.847309 
L 77.090131 145.605306 
L 78.175932 137.678565 
L 79.261733 131.798839 
L 80.347534 141.2064 
L 81.433335 113.724127 
L 82.519137 109.717203 
L 83.604938 108.933239 
L 84.690739 109.194561 
L 86.862341 95.649415 
L 87.948142 93.515292 
L 89.033943 97.870644 
L 90.119745 92.470007 
L 91.205546 88.158209 
L 92.291347 89.595475 
L 93.377148 89.334154 
L 94.462949 88.55019 
L 95.54875 139.377152 
L 96.634552 123.175242 
L 97.720353 110.109185 
L 98.806154 106.10226 
L 99.891955 108.454151 
L 100.977756 112.069093 
L 102.063557 106.973331 
L 103.149358 101.267819 
L 104.23516 96.999574 
L 105.320961 101.050052 
L 106.406762 98.30618 
L 107.492563 96.95602 
L 108.578364 96.08495 
L 109.664165 94.081488 
L 110.749967 93.73306 
L 111.835768 94.386362 
L 112.921569 91.860258 
L 114.00737 92.3829 
L 115.093171 90.422992 
L 116.178972 87.853334 
L 117.264773 90.510099 
L 118.350575 87.983994 
L 119.436376 85.936979 
L 120.522177 86.93871 
L 121.607978 85.45789 
L 122.693779 84.804587 
L 123.77958 79.926593 
L 124.865382 83.672196 
L 125.951183 79.229736 
L 127.036984 79.926593 
L 128.122785 78.924862 
L 129.208586 79.186183 
L 130.294387 77.966684 
L 131.380189 77.879577 
L 132.46599 78.837754 
L 133.551791 78.053791 
L 134.637592 77.487595 
L 135.723393 77.356935 
L 136.809194 77.661809 
L 137.894995 77.269828 
L 138.980797 114.029002 
L 140.066598 100.353195 
L 141.152399 95.562308 
L 142.2382 99.351464 
L 143.324001 91.555383 
L 144.409802 97.478663 
L 145.495604 91.773151 
L 146.581405 95.300986 
L 147.667206 92.861989 
L 148.753007 92.774882 
L 149.838808 89.421261 
L 150.924609 103.227728 
L 152.01041 98.698161 
L 153.096212 90.074564 
L 154.182013 92.949096 
L 155.267814 93.515292 
L 156.353615 91.773151 
L 157.439416 92.295793 
L 158.525217 90.205224 
L 159.611019 90.205224 
L 160.69682 88.071102 
L 161.782621 89.247047 
L 162.868422 94.60413 
L 163.954223 85.022355 
L 165.040024 89.508368 
L 166.125825 92.25224 
L 167.211627 88.201762 
L 168.297428 93.950827 
L 169.383229 88.593744 
L 170.46903 85.806318 
L 171.554831 88.071102 
L 172.640632 87.80978 
L 173.726434 86.895156 
L 174.812235 87.853334 
L 175.898036 83.715749 
L 176.983837 89.377707 
L 178.069638 90.945634 
L 179.155439 87.635566 
L 180.24124 92.600668 
L 181.327042 83.84641 
L 182.412843 84.325498 
L 183.498644 86.111193 
L 184.584445 83.889963 
L 185.670246 82.191376 
L 186.756047 83.323767 
L 188.92765 83.541535 
L 190.013451 83.062446 
L 191.099252 80.579895 
L 192.185053 79.665271 
L 193.270854 80.579895 
L 194.356656 81.146091 
L 195.442457 80.841217 
L 196.528258 79.27329 
L 197.614059 78.707094 
L 198.69986 78.924862 
L 199.785661 79.578164 
L 200.871462 78.66354 
L 201.957264 78.837754 
L 203.043065 79.142629 
L 204.128866 77.574702 
L 205.214667 76.877846 
L 206.300468 77.400488 
L 207.386269 76.747185 
L 208.472071 75.701901 
L 209.557872 76.442311 
L 210.643673 76.268097 
L 211.729474 75.397026 
L 212.815275 76.050329 
L 213.901076 75.658347 
L 214.986877 75.832561 
L 216.072679 75.222812 
L 217.15848 75.484133 
L 218.244281 75.179258 
L 219.330082 75.266366 
L 221.501684 75.092151 
L 222.587486 75.397026 
L 223.673287 74.83083 
L 224.759088 75.789008 
L 225.844889 107.844401 
L 226.93069 98.480394 
L 228.016491 103.881031 
L 229.102292 91.990919 
L 230.188094 96.868913 
L 231.273895 92.949096 
L 232.359696 94.691237 
L 233.445497 92.774882 
L 234.531298 89.682582 
L 235.617099 94.386362 
L 236.702901 92.339347 
L 237.788702 92.687775 
L 238.874503 88.071102 
L 241.046105 101.442033 
L 242.131906 90.292331 
L 243.217708 92.121579 
L 244.303509 92.949096 
L 245.38931 95.34454 
L 246.475111 92.470007 
L 247.560912 95.34454 
L 248.646713 91.51183 
L 249.732514 88.985726 
L 250.818316 89.595475 
L 251.904117 91.381169 
L 252.989918 88.637297 
L 254.075719 88.375976 
L 256.247321 85.588551 
L 257.333123 92.470007 
L 258.418924 87.67912 
L 259.504725 86.241854 
L 260.590526 88.855065 
L 261.676327 89.943903 
L 262.762128 85.544997 
L 263.847929 88.855065 
L 264.933731 89.421261 
L 266.019532 87.461352 
L 267.105333 84.71748 
L 268.191134 84.848141 
L 269.276935 87.06937 
L 270.362736 87.80978 
L 271.448538 88.027548 
L 272.534339 90.422992 
L 273.62014 89.072833 
L 274.705941 89.987457 
L 275.791742 83.23666 
L 276.877543 84.369052 
L 277.963344 92.426454 
L 279.049146 86.067639 
L 280.134947 83.715749 
L 281.220748 87.504906 
L 282.306549 85.370783 
L 283.39235 84.543266 
L 284.478151 86.633835 
L 285.563953 88.071102 
L 287.735555 82.36559 
L 288.821356 82.801125 
L 289.907157 83.933517 
L 290.992958 82.49625 
L 292.07876 82.452697 
L 293.164561 84.543266 
L 294.250362 82.539804 
L 295.336163 82.452697 
L 296.421964 85.501444 
L 297.507765 86.459621 
L 298.593566 82.147822 
L 299.679368 88.637297 
L 300.765169 88.071102 
L 301.85097 82.670465 
L 302.936771 82.801125 
L 304.022572 81.320305 
L 305.108373 80.710556 
L 306.194175 82.888232 
L 307.279976 81.407412 
L 308.365777 81.146091 
L 309.451578 82.452697 
L 310.537379 83.497982 
L 311.62318 81.886501 
L 312.708981 79.665271 
L 313.794783 83.062446 
L 314.880584 79.447504 
L 315.966385 81.62518 
L 317.052186 79.665271 
L 318.137987 81.058984 
L 319.223788 81.276752 
L 320.30959 78.924862 
L 321.395391 79.752378 
L 322.481192 80.100807 
L 323.566993 80.14436 
L 324.652794 79.229736 
L 325.738595 78.707094 
L 326.824396 79.752378 
L 327.910198 80.100807 
L 328.995999 79.926593 
L 330.0818 78.184452 
L 331.167601 77.269828 
L 332.253402 79.491057 
L 333.339203 79.621718 
L 334.425005 77.487595 
L 335.510806 79.447504 
L 336.596607 78.707094 
L 337.682408 77.139167 
L 338.768209 77.269828 
L 339.85401 76.398757 
L 340.939811 77.748916 
L 342.025613 77.487595 
L 343.111414 77.966684 
L 344.197215 76.31165 
L 345.283016 77.182721 
L 346.368817 75.484133 
L 347.454618 74.70017 
L 348.54042 77.095614 
L 349.626221 76.18099 
L 351.797823 75.745454 
L 352.883624 75.658347 
L 353.969425 74.09042 
L 355.055227 74.133974 
L 356.141028 73.698439 
L 357.226829 73.829099 
L 358.31263 73.567778 
L 359.398431 73.132243 
L 360.484232 74.09042 
L 361.570033 73.95976 
L 362.655835 73.654885 
L 363.741636 74.133974 
L 364.827437 73.872653 
L 365.913238 73.829099 
L 368.08484 72.914475 
L 369.170642 73.654885 
L 370.256443 75.179258 
L 373.513846 77.400488 
L 374.599647 77.444042 
L 375.685448 77.139167 
L 376.77125 77.226274 
L 377.857051 76.18099 
L 378.942852 76.268097 
L 380.028653 77.356935 
L 381.114454 77.269828 
L 382.200255 76.834292 
L 383.286057 75.745454 
L 384.371858 75.832561 
L 386.54346 77.487595 
L 387.629261 77.139167 
L 388.715062 76.268097 
L 389.800863 78.619987 
L 390.886665 76.877846 
L 391.972466 75.57124 
L 393.058267 78.228005 
L 394.144068 76.31165 
L 395.229869 77.705363 
L 396.31567 77.313381 
L 398.487273 77.487595 
L 398.487273 77.487595 
" clip-path="url(#p6af24e848f)" style="fill: none; stroke: #ff7f0e; stroke-width: 1.5; stroke-linecap: square"/>
   </g>
   <g id="line2d_19">
    <path d="M 73.832727 295.488 
L 74.918528 273.320758 
L 76.00433 272.810131 
L 77.090131 264.610054 
L 78.175932 233.431738 
L 79.261733 238.117496 
L 80.347534 263.708946 
L 81.433335 228.415573 
L 82.519137 220.66605 
L 83.604938 219.704869 
L 84.690739 221.146641 
L 85.77654 224.150332 
L 86.862341 208.471063 
L 87.948142 208.380953 
L 89.033943 217.4521 
L 90.119745 211.114312 
L 91.205546 205.647593 
L 92.291347 202.734013 
L 93.377148 205.857852 
L 94.462949 204.295932 
L 95.54875 254.667835 
L 96.634552 256.199718 
L 97.720353 225.92251 
L 98.806154 223.249224 
L 99.891955 229.857345 
L 100.977756 237.847164 
L 102.063557 233.672033 
L 103.149358 220.455792 
L 104.23516 218.353208 
L 105.320961 209.402208 
L 106.406762 204.596301 
L 107.492563 226.252916 
L 108.578364 211.414681 
L 109.664165 209.552392 
L 110.749967 221.116604 
L 111.835768 216.791288 
L 112.921569 210.423463 
L 114.00737 207.660067 
L 115.093171 206.248332 
L 116.178972 200.361097 
L 117.264773 208.591211 
L 118.350575 206.128184 
L 119.436376 210.273278 
L 120.522177 208.200731 
L 121.607978 207.059328 
L 122.693779 208.5011 
L 123.77958 194.173493 
L 124.865382 202.76405 
L 125.951183 197.026999 
L 127.036984 201.051946 
L 128.122785 195.164711 
L 129.208586 194.744194 
L 130.294387 193.182275 
L 131.380189 195.224785 
L 132.46599 197.988181 
L 133.551791 198.28855 
L 134.637592 198.739103 
L 135.723393 196.216003 
L 136.809194 196.816741 
L 137.894995 196.63652 
L 138.980797 252.415067 
L 140.066598 207.930399 
L 141.152399 223.849963 
L 142.2382 227.57454 
L 143.324001 206.819033 
L 144.409802 207.449808 
L 145.495604 209.852761 
L 146.581405 218.863835 
L 147.667206 216.400808 
L 148.753007 198.078291 
L 149.838808 192.281167 
L 150.924609 231.899855 
L 152.01041 212.015419 
L 153.096212 202.76405 
L 154.182013 197.177184 
L 155.267814 209.342134 
L 156.353615 213.307006 
L 158.525217 212.465973 
L 159.611019 202.794087 
L 160.69682 209.942872 
L 161.782621 198.28855 
L 162.868422 221.44701 
L 163.954223 201.442426 
L 165.040024 200.631429 
L 166.125825 221.957637 
L 167.211627 198.979399 
L 168.297428 221.747379 
L 169.383229 209.071802 
L 170.46903 195.014526 
L 171.554831 200.361097 
L 172.640632 211.775124 
L 173.726434 196.456298 
L 174.812235 205.707667 
L 175.898036 198.528845 
L 176.983837 218.052838 
L 178.069638 212.345825 
L 179.155439 201.232167 
L 180.24124 210.4535 
L 181.327042 205.947963 
L 182.412843 194.954452 
L 183.498644 204.205822 
L 184.584445 202.974308 
L 185.670246 192.761758 
L 186.756047 200.661466 
L 187.841849 194.894379 
L 188.92765 204.776523 
L 190.013451 197.207221 
L 191.099252 202.073201 
L 192.185053 195.344932 
L 193.270854 196.576446 
L 194.356656 190.178583 
L 195.442457 198.318587 
L 196.528258 191.980798 
L 197.614059 194.143456 
L 198.69986 199.009436 
L 199.785661 195.525154 
L 200.871462 198.108328 
L 201.957264 198.258513 
L 203.043065 193.843087 
L 204.128866 194.864342 
L 205.214667 189.607882 
L 206.300468 198.67903 
L 207.386269 193.302422 
L 208.472071 190.388842 
L 209.557872 193.242348 
L 210.643673 188.316295 
L 211.729474 193.272385 
L 212.815275 188.55659 
L 213.901076 188.526553 
L 214.986877 194.563973 
L 216.072679 188.496516 
L 217.15848 188.646701 
L 218.244281 184.531644 
L 219.330082 186.183674 
L 220.415883 188.256221 
L 221.501684 188.16611 
L 222.587486 189.397624 
L 223.673287 186.423969 
L 224.759088 188.616664 
L 225.844889 244.665543 
L 226.93069 211.865234 
L 228.016491 218.893872 
L 229.102292 210.723832 
L 230.188094 218.383245 
L 231.273895 213.817634 
L 232.359696 203.965526 
L 233.445497 214.748778 
L 234.531298 204.115711 
L 235.617099 214.989073 
L 236.702901 214.087966 
L 237.788702 214.718741 
L 238.874503 196.606483 
L 239.960304 227.033875 
L 241.046105 226.673432 
L 242.131906 224.480738 
L 243.217708 216.97151 
L 244.303509 225.051439 
L 245.38931 222.618449 
L 246.475111 198.138365 
L 247.560912 219.584721 
L 248.646713 212.9766 
L 249.732514 204.386043 
L 250.818316 206.428553 
L 251.904117 211.264496 
L 252.989918 206.939181 
L 254.075719 204.536228 
L 255.16152 196.546409 
L 256.247321 195.885597 
L 257.333123 225.321771 
L 258.418924 199.189657 
L 259.504725 213.487228 
L 260.590526 204.175785 
L 261.676327 200.781614 
L 262.762128 196.816741 
L 263.847929 217.091657 
L 264.933731 217.241842 
L 266.019532 198.979399 
L 267.105333 202.463681 
L 268.191134 189.307513 
L 269.276935 207.419771 
L 270.362736 204.325969 
L 271.448538 200.511281 
L 272.534339 209.071802 
L 273.62014 199.970617 
L 274.705941 198.498808 
L 275.791742 190.5991 
L 276.877543 206.128184 
L 277.963344 213.787597 
L 279.049146 201.652684 
L 280.134947 203.575046 
L 281.220748 207.930399 
L 282.306549 206.188258 
L 283.39235 191.890687 
L 284.478151 201.232167 
L 285.563953 206.909144 
L 286.649754 188.586627 
L 287.735555 201.953053 
L 288.821356 198.018218 
L 289.907157 197.627738 
L 290.992958 199.520063 
L 292.07876 201.953053 
L 293.164561 187.985889 
L 294.250362 194.744194 
L 295.336163 188.196147 
L 296.421964 195.915634 
L 297.507765 202.313496 
L 298.593566 190.118509 
L 299.679368 216.400808 
L 300.765169 198.648993 
L 301.85097 195.85556 
L 302.936771 200.81165 
L 304.022572 195.435043 
L 305.108373 195.254822 
L 306.194175 200.901761 
L 307.279976 192.972016 
L 308.365777 202.433644 
L 309.451578 191.079691 
L 311.62318 200.871724 
L 312.708981 196.095855 
L 313.794783 196.24604 
L 315.966385 191.680429 
L 317.052186 196.095855 
L 318.137987 188.256221 
L 319.223788 206.879107 
L 320.30959 192.130983 
L 321.395391 189.878214 
L 322.481192 194.714157 
L 323.566993 190.358805 
L 324.652794 196.696593 
L 325.738595 189.72803 
L 326.824396 195.254822 
L 327.910198 186.333858 
L 328.995999 194.804268 
L 330.0818 191.650392 
L 331.167601 188.136073 
L 332.253402 186.243748 
L 333.339203 188.436442 
L 334.425005 187.505298 
L 335.510806 188.526553 
L 336.596607 195.555191 
L 337.682408 186.393932 
L 338.768209 181.618063 
L 339.85401 180.807066 
L 340.939811 190.5991 
L 342.025613 195.915634 
L 343.111414 196.33615 
L 344.197215 187.144855 
L 345.283016 195.675338 
L 346.368817 186.363895 
L 347.454618 181.437842 
L 348.54042 190.358805 
L 349.626221 185.763157 
L 350.712022 186.273785 
L 351.797823 186.333858 
L 352.883624 188.526553 
L 353.969425 187.204929 
L 355.055227 184.561681 
L 356.141028 182.849577 
L 358.31263 179.905959 
L 359.398431 177.923523 
L 360.484232 176.902268 
L 361.570033 181.137473 
L 362.655835 178.614372 
L 363.741636 179.155036 
L 364.827437 181.738211 
L 365.913238 179.455405 
L 366.999039 180.026107 
L 368.08484 179.905959 
L 369.170642 177.472969 
L 370.256443 185.582936 
L 371.342244 182.879613 
L 372.428045 186.063526 
L 373.513846 194.804268 
L 374.599647 190.058436 
L 375.685448 191.680429 
L 376.77125 184.381459 
L 377.857051 188.045962 
L 378.942852 187.715556 
L 380.028653 186.273785 
L 381.114454 189.788103 
L 382.200255 189.758067 
L 383.286057 187.29504 
L 384.371858 186.634228 
L 385.457659 181.437842 
L 386.54346 190.749285 
L 387.629261 187.054744 
L 388.715062 190.148546 
L 389.800863 179.275184 
L 390.886665 182.81954 
L 391.972466 189.968325 
L 393.058267 191.710466 
L 394.144068 184.711865 
L 395.229869 186.303822 
L 396.31567 189.637919 
L 397.401472 184.922124 
L 398.487273 195.525154 
L 398.487273 195.525154 
" clip-path="url(#p6af24e848f)" style="fill: none; stroke: #2ca02c; stroke-width: 1.5; stroke-linecap: square"/>
   </g>
   <g id="line2d_20">
    <path d="M 368.08484 73.567778 
L 369.170642 72.261172 
L 370.256443 73.045136 
L 371.342244 73.21935 
L 372.428045 72.653154 
L 373.513846 73.175796 
L 374.599647 72.522494 
L 375.685448 72.696708 
L 376.77125 72.348279 
L 377.857051 71.60787 
L 380.028653 71.259441 
L 381.114454 72.348279 
L 382.200255 72.174065 
L 383.286057 71.302995 
L 384.371858 71.259441 
L 385.457659 72.130512 
L 386.54346 74.569509 
L 387.629261 72.348279 
L 388.715062 72.783815 
L 389.800863 73.088689 
L 390.886665 71.869191 
L 391.972466 71.869191 
L 393.058267 71.085227 
L 394.144068 71.477209 
L 395.229869 71.651423 
L 396.31567 69.865729 
L 397.401472 71.128781 
L 398.487273 71.477209 
L 398.487273 71.477209 
" clip-path="url(#p6af24e848f)" style="fill: none; stroke: #d62728; stroke-width: 1.5; stroke-linecap: square"/>
   </g>
   <g id="line2d_21">
    <path d="M 368.08484 179.575553 
L 369.170642 174.73961 
L 370.256443 174.289056 
L 372.428045 178.914741 
L 373.513846 174.34913 
L 374.599647 175.881013 
L 375.685448 175.13009 
L 376.77125 178.404113 
L 377.857051 175.670754 
L 378.942852 176.541825 
L 380.028653 171.795993 
L 381.114454 177.803375 
L 382.200255 178.554298 
L 383.286057 178.554298 
L 384.371858 174.018724 
L 385.457659 170.804774 
L 386.54346 176.181382 
L 387.629261 171.04507 
L 388.715062 172.847285 
L 389.800863 179.21511 
L 390.886665 173.327875 
L 391.972466 171.826029 
L 393.058267 168.281674 
L 394.144068 174.559389 
L 395.229869 173.56817 
L 396.31567 169.843593 
L 397.401472 166.839902 
L 398.487273 171.195254 
L 398.487273 171.195254 
" clip-path="url(#p6af24e848f)" style="fill: none; stroke: #9467bd; stroke-width: 1.5; stroke-linecap: square"/>
   </g>
   <g id="patch_3">
    <path d="M 57.6 307.584 
L 57.6 41.472 
" style="fill: none; stroke: #000000; stroke-width: 0.8; stroke-linejoin: miter; stroke-linecap: square"/>
   </g>
   <g id="patch_4">
    <path d="M 414.72 307.584 
L 414.72 41.472 
" style="fill: none; stroke: #000000; stroke-width: 0.8; stroke-linejoin: miter; stroke-linecap: square"/>
   </g>
   <g id="patch_5">
    <path d="M 57.6 307.584 
L 414.72 307.584 
" style="fill: none; stroke: #000000; stroke-width: 0.8; stroke-linejoin: miter; stroke-linecap: square"/>
   </g>
   <g id="patch_6">
    <path d="M 57.6 41.472 
L 414.72 41.472 
" style="fill: none; stroke: #000000; stroke-width: 0.8; stroke-linejoin: miter; stroke-linecap: square"/>
   </g>
   <g id="text_19">
    <!-- Learning Curves -->
    <g transform="translate(187.37625 35.472) scale(0.12 -0.12)">
     <defs>
      <path id="DejaVuSans-4c" d="M 628 4666 
L 1259 4666 
L 1259 531 
L 3531 531 
L 3531 0 
L 628 0 
L 628 4666 
z
" transform="scale(0.015625)"/>
      <path id="DejaVuSans-65" d="M 3597 1894 
L 3597 1613 
L 953 1613 
Q 991 1019 1311 708 
Q 1631 397 2203 397 
Q 2534 397 2845 478 
Q 3156 559 3463 722 
L 3463 178 
Q 3153 47 2828 -22 
Q 2503 -91 2169 -91 
Q 1331 -91 842 396 
Q 353 884 353 1716 
Q 353 2575 817 3079 
Q 1281 3584 2069 3584 
Q 2775 3584 3186 3129 
Q 3597 2675 3597 1894 
z
M 3022 2063 
Q 3016 2534 2758 2815 
Q 2500 3097 2075 3097 
Q 1594 3097 1305 2825 
Q 1016 2553 972 2059 
L 3022 2063 
z
" transform="scale(0.015625)"/>
      <path id="DejaVuSans-6e" d="M 3513 2113 
L 3513 0 
L 2938 0 
L 2938 2094 
Q 2938 2591 2744 2837 
Q 2550 3084 2163 3084 
Q 1697 3084 1428 2787 
Q 1159 2491 1159 1978 
L 1159 0 
L 581 0 
L 581 3500 
L 1159 3500 
L 1159 2956 
Q 1366 3272 1645 3428 
Q 1925 3584 2291 3584 
Q 2894 3584 3203 3211 
Q 3513 2838 3513 2113 
z
" transform="scale(0.015625)"/>
      <path id="DejaVuSans-69" d="M 603 3500 
L 1178 3500 
L 1178 0 
L 603 0 
L 603 3500 
z
M 603 4863 
L 1178 4863 
L 1178 4134 
L 603 4134 
L 603 4863 
z
" transform="scale(0.015625)"/>
      <path id="DejaVuSans-67" d="M 2906 1791 
Q 2906 2416 2648 2759 
Q 2391 3103 1925 3103 
Q 1463 3103 1205 2759 
Q 947 2416 947 1791 
Q 947 1169 1205 825 
Q 1463 481 1925 481 
Q 2391 481 2648 825 
Q 2906 1169 2906 1791 
z
M 3481 434 
Q 3481 -459 3084 -895 
Q 2688 -1331 1869 -1331 
Q 1566 -1331 1297 -1286 
Q 1028 -1241 775 -1147 
L 775 -588 
Q 1028 -725 1275 -790 
Q 1522 -856 1778 -856 
Q 2344 -856 2625 -561 
Q 2906 -266 2906 331 
L 2906 616 
Q 2728 306 2450 153 
Q 2172 0 1784 0 
Q 1141 0 747 490 
Q 353 981 353 1791 
Q 353 2603 747 3093 
Q 1141 3584 1784 3584 
Q 2172 3584 2450 3431 
Q 2728 3278 2906 2969 
L 2906 3500 
L 3481 3500 
L 3481 434 
z
" transform="scale(0.015625)"/>
      <path id="DejaVuSans-20" transform="scale(0.015625)"/>
      <path id="DejaVuSans-43" d="M 4122 4306 
L 4122 3641 
Q 3803 3938 3442 4084 
Q 3081 4231 2675 4231 
Q 1875 4231 1450 3742 
Q 1025 3253 1025 2328 
Q 1025 1406 1450 917 
Q 1875 428 2675 428 
Q 3081 428 3442 575 
Q 3803 722 4122 1019 
L 4122 359 
Q 3791 134 3420 21 
Q 3050 -91 2638 -91 
Q 1578 -91 968 557 
Q 359 1206 359 2328 
Q 359 3453 968 4101 
Q 1578 4750 2638 4750 
Q 3056 4750 3426 4639 
Q 3797 4528 4122 4306 
z
" transform="scale(0.015625)"/>
      <path id="DejaVuSans-76" d="M 191 3500 
L 800 3500 
L 1894 563 
L 2988 3500 
L 3597 3500 
L 2284 0 
L 1503 0 
L 191 3500 
z
" transform="scale(0.015625)"/>
     </defs>
     <use xlink:href="#DejaVuSans-4c"/>
     <use xlink:href="#DejaVuSans-65" x="53.962891"/>
     <use xlink:href="#DejaVuSans-61" x="115.486328"/>
     <use xlink:href="#DejaVuSans-72" x="176.765625"/>
     <use xlink:href="#DejaVuSans-6e" x="216.128906"/>
     <use xlink:href="#DejaVuSans-69" x="279.507812"/>
     <use xlink:href="#DejaVuSans-6e" x="307.291016"/>
     <use xlink:href="#DejaVuSans-67" x="370.669922"/>
     <use xlink:href="#DejaVuSans-20" x="434.146484"/>
     <use xlink:href="#DejaVuSans-43" x="465.933594"/>
     <use xlink:href="#DejaVuSans-75" x="535.757812"/>
     <use xlink:href="#DejaVuSans-72" x="599.136719"/>
     <use xlink:href="#DejaVuSans-76" x="640.25"/>
     <use xlink:href="#DejaVuSans-65" x="699.429688"/>
     <use xlink:href="#DejaVuSans-73" x="760.953125"/>
    </g>
   </g>
   <g id="legend_1">
    <g id="patch_7">
     <path d="M 214.18875 302.584 
L 407.72 302.584 
Q 409.72 302.584 409.72 300.584 
L 409.72 228.193375 
Q 409.72 226.193375 407.72 226.193375 
L 214.18875 226.193375 
Q 212.18875 226.193375 212.18875 228.193375 
L 212.18875 300.584 
Q 212.18875 302.584 214.18875 302.584 
z
" style="fill: #ffffff; opacity: 0.8; stroke: #cccccc; stroke-linejoin: miter"/>
    </g>
    <g id="line2d_22">
     <path d="M 216.18875 234.291812 
L 226.18875 234.291812 
L 236.18875 234.291812 
" style="fill: none; stroke: #1f77b4; stroke-width: 1.5; stroke-linecap: square"/>
    </g>
    <g id="text_20">
     <!-- Train Accuracy -->
     <g transform="translate(244.18875 237.791812) scale(0.1 -0.1)">
      <defs>
       <path id="DejaVuSans-54" d="M -19 4666 
L 3928 4666 
L 3928 4134 
L 2272 4134 
L 2272 0 
L 1638 0 
L 1638 4134 
L -19 4134 
L -19 4666 
z
" transform="scale(0.015625)"/>
      </defs>
      <use xlink:href="#DejaVuSans-54"/>
      <use xlink:href="#DejaVuSans-72" x="46.333984"/>
      <use xlink:href="#DejaVuSans-61" x="87.447266"/>
      <use xlink:href="#DejaVuSans-69" x="148.726562"/>
      <use xlink:href="#DejaVuSans-6e" x="176.509766"/>
      <use xlink:href="#DejaVuSans-20" x="239.888672"/>
      <use xlink:href="#DejaVuSans-41" x="271.675781"/>
      <use xlink:href="#DejaVuSans-63" x="338.333984"/>
      <use xlink:href="#DejaVuSans-63" x="393.314453"/>
      <use xlink:href="#DejaVuSans-75" x="448.294922"/>
      <use xlink:href="#DejaVuSans-72" x="511.673828"/>
      <use xlink:href="#DejaVuSans-61" x="552.787109"/>
      <use xlink:href="#DejaVuSans-63" x="614.066406"/>
      <use xlink:href="#DejaVuSans-79" x="669.046875"/>
     </g>
    </g>
    <g id="line2d_23">
     <path d="M 216.18875 248.969937 
L 226.18875 248.969937 
L 236.18875 248.969937 
" style="fill: none; stroke: #ff7f0e; stroke-width: 1.5; stroke-linecap: square"/>
    </g>
    <g id="text_21">
     <!-- Validation Accuracy -->
     <g transform="translate(244.18875 252.469937) scale(0.1 -0.1)">
      <defs>
       <path id="DejaVuSans-56" d="M 1831 0 
L 50 4666 
L 709 4666 
L 2188 738 
L 3669 4666 
L 4325 4666 
L 2547 0 
L 1831 0 
z
" transform="scale(0.015625)"/>
       <path id="DejaVuSans-6c" d="M 603 4863 
L 1178 4863 
L 1178 0 
L 603 0 
L 603 4863 
z
" transform="scale(0.015625)"/>
       <path id="DejaVuSans-64" d="M 2906 2969 
L 2906 4863 
L 3481 4863 
L 3481 0 
L 2906 0 
L 2906 525 
Q 2725 213 2448 61 
Q 2172 -91 1784 -91 
Q 1150 -91 751 415 
Q 353 922 353 1747 
Q 353 2572 751 3078 
Q 1150 3584 1784 3584 
Q 2172 3584 2448 3432 
Q 2725 3281 2906 2969 
z
M 947 1747 
Q 947 1113 1208 752 
Q 1469 391 1925 391 
Q 2381 391 2643 752 
Q 2906 1113 2906 1747 
Q 2906 2381 2643 2742 
Q 2381 3103 1925 3103 
Q 1469 3103 1208 2742 
Q 947 2381 947 1747 
z
" transform="scale(0.015625)"/>
       <path id="DejaVuSans-74" d="M 1172 4494 
L 1172 3500 
L 2356 3500 
L 2356 3053 
L 1172 3053 
L 1172 1153 
Q 1172 725 1289 603 
Q 1406 481 1766 481 
L 2356 481 
L 2356 0 
L 1766 0 
Q 1100 0 847 248 
Q 594 497 594 1153 
L 594 3053 
L 172 3053 
L 172 3500 
L 594 3500 
L 594 4494 
L 1172 4494 
z
" transform="scale(0.015625)"/>
      </defs>
      <use xlink:href="#DejaVuSans-56"/>
      <use xlink:href="#DejaVuSans-61" x="60.658203"/>
      <use xlink:href="#DejaVuSans-6c" x="121.9375"/>
      <use xlink:href="#DejaVuSans-69" x="149.720703"/>
      <use xlink:href="#DejaVuSans-64" x="177.503906"/>
      <use xlink:href="#DejaVuSans-61" x="240.980469"/>
      <use xlink:href="#DejaVuSans-74" x="302.259766"/>
      <use xlink:href="#DejaVuSans-69" x="341.46875"/>
      <use xlink:href="#DejaVuSans-6f" x="369.251953"/>
      <use xlink:href="#DejaVuSans-6e" x="430.433594"/>
      <use xlink:href="#DejaVuSans-20" x="493.8125"/>
      <use xlink:href="#DejaVuSans-41" x="525.599609"/>
      <use xlink:href="#DejaVuSans-63" x="592.257812"/>
      <use xlink:href="#DejaVuSans-63" x="647.238281"/>
      <use xlink:href="#DejaVuSans-75" x="702.21875"/>
      <use xlink:href="#DejaVuSans-72" x="765.597656"/>
      <use xlink:href="#DejaVuSans-61" x="806.710938"/>
      <use xlink:href="#DejaVuSans-63" x="867.990234"/>
      <use xlink:href="#DejaVuSans-79" x="922.970703"/>
     </g>
    </g>
    <g id="line2d_24">
     <path d="M 216.18875 263.648062 
L 226.18875 263.648062 
L 236.18875 263.648062 
" style="fill: none; stroke: #2ca02c; stroke-width: 1.5; stroke-linecap: square"/>
    </g>
    <g id="text_22">
     <!-- Robust Validation Accuracy -->
     <g transform="translate(244.18875 267.148062) scale(0.1 -0.1)">
      <defs>
       <path id="DejaVuSans-52" d="M 2841 2188 
Q 3044 2119 3236 1894 
Q 3428 1669 3622 1275 
L 4263 0 
L 3584 0 
L 2988 1197 
Q 2756 1666 2539 1819 
Q 2322 1972 1947 1972 
L 1259 1972 
L 1259 0 
L 628 0 
L 628 4666 
L 2053 4666 
Q 2853 4666 3247 4331 
Q 3641 3997 3641 3322 
Q 3641 2881 3436 2590 
Q 3231 2300 2841 2188 
z
M 1259 4147 
L 1259 2491 
L 2053 2491 
Q 2509 2491 2742 2702 
Q 2975 2913 2975 3322 
Q 2975 3731 2742 3939 
Q 2509 4147 2053 4147 
L 1259 4147 
z
" transform="scale(0.015625)"/>
       <path id="DejaVuSans-62" d="M 3116 1747 
Q 3116 2381 2855 2742 
Q 2594 3103 2138 3103 
Q 1681 3103 1420 2742 
Q 1159 2381 1159 1747 
Q 1159 1113 1420 752 
Q 1681 391 2138 391 
Q 2594 391 2855 752 
Q 3116 1113 3116 1747 
z
M 1159 2969 
Q 1341 3281 1617 3432 
Q 1894 3584 2278 3584 
Q 2916 3584 3314 3078 
Q 3713 2572 3713 1747 
Q 3713 922 3314 415 
Q 2916 -91 2278 -91 
Q 1894 -91 1617 61 
Q 1341 213 1159 525 
L 1159 0 
L 581 0 
L 581 4863 
L 1159 4863 
L 1159 2969 
z
" transform="scale(0.015625)"/>
      </defs>
      <use xlink:href="#DejaVuSans-52"/>
      <use xlink:href="#DejaVuSans-6f" x="64.982422"/>
      <use xlink:href="#DejaVuSans-62" x="126.164062"/>
      <use xlink:href="#DejaVuSans-75" x="189.640625"/>
      <use xlink:href="#DejaVuSans-73" x="253.019531"/>
      <use xlink:href="#DejaVuSans-74" x="305.119141"/>
      <use xlink:href="#DejaVuSans-20" x="344.328125"/>
      <use xlink:href="#DejaVuSans-56" x="376.115234"/>
      <use xlink:href="#DejaVuSans-61" x="436.773438"/>
      <use xlink:href="#DejaVuSans-6c" x="498.052734"/>
      <use xlink:href="#DejaVuSans-69" x="525.835938"/>
      <use xlink:href="#DejaVuSans-64" x="553.619141"/>
      <use xlink:href="#DejaVuSans-61" x="617.095703"/>
      <use xlink:href="#DejaVuSans-74" x="678.375"/>
      <use xlink:href="#DejaVuSans-69" x="717.583984"/>
      <use xlink:href="#DejaVuSans-6f" x="745.367188"/>
      <use xlink:href="#DejaVuSans-6e" x="806.548828"/>
      <use xlink:href="#DejaVuSans-20" x="869.927734"/>
      <use xlink:href="#DejaVuSans-41" x="901.714844"/>
      <use xlink:href="#DejaVuSans-63" x="968.373047"/>
      <use xlink:href="#DejaVuSans-63" x="1023.353516"/>
      <use xlink:href="#DejaVuSans-75" x="1078.333984"/>
      <use xlink:href="#DejaVuSans-72" x="1141.712891"/>
      <use xlink:href="#DejaVuSans-61" x="1182.826172"/>
      <use xlink:href="#DejaVuSans-63" x="1244.105469"/>
      <use xlink:href="#DejaVuSans-79" x="1299.085938"/>
     </g>
    </g>
    <g id="line2d_25">
     <path d="M 216.18875 278.326188 
L 226.18875 278.326188 
L 236.18875 278.326188 
" style="fill: none; stroke: #d62728; stroke-width: 1.5; stroke-linecap: square"/>
    </g>
    <g id="text_23">
     <!-- SWA Validation Accuracy -->
     <g transform="translate(244.18875 281.826188) scale(0.1 -0.1)">
      <defs>
       <path id="DejaVuSans-53" d="M 3425 4513 
L 3425 3897 
Q 3066 4069 2747 4153 
Q 2428 4238 2131 4238 
Q 1616 4238 1336 4038 
Q 1056 3838 1056 3469 
Q 1056 3159 1242 3001 
Q 1428 2844 1947 2747 
L 2328 2669 
Q 3034 2534 3370 2195 
Q 3706 1856 3706 1288 
Q 3706 609 3251 259 
Q 2797 -91 1919 -91 
Q 1588 -91 1214 -16 
Q 841 59 441 206 
L 441 856 
Q 825 641 1194 531 
Q 1563 422 1919 422 
Q 2459 422 2753 634 
Q 3047 847 3047 1241 
Q 3047 1584 2836 1778 
Q 2625 1972 2144 2069 
L 1759 2144 
Q 1053 2284 737 2584 
Q 422 2884 422 3419 
Q 422 4038 858 4394 
Q 1294 4750 2059 4750 
Q 2388 4750 2728 4690 
Q 3069 4631 3425 4513 
z
" transform="scale(0.015625)"/>
       <path id="DejaVuSans-57" d="M 213 4666 
L 850 4666 
L 1831 722 
L 2809 4666 
L 3519 4666 
L 4500 722 
L 5478 4666 
L 6119 4666 
L 4947 0 
L 4153 0 
L 3169 4050 
L 2175 0 
L 1381 0 
L 213 4666 
z
" transform="scale(0.015625)"/>
      </defs>
      <use xlink:href="#DejaVuSans-53"/>
      <use xlink:href="#DejaVuSans-57" x="63.476562"/>
      <use xlink:href="#DejaVuSans-41" x="156.853516"/>
      <use xlink:href="#DejaVuSans-20" x="225.261719"/>
      <use xlink:href="#DejaVuSans-56" x="257.048828"/>
      <use xlink:href="#DejaVuSans-61" x="317.707031"/>
      <use xlink:href="#DejaVuSans-6c" x="378.986328"/>
      <use xlink:href="#DejaVuSans-69" x="406.769531"/>
      <use xlink:href="#DejaVuSans-64" x="434.552734"/>
      <use xlink:href="#DejaVuSans-61" x="498.029297"/>
      <use xlink:href="#DejaVuSans-74" x="559.308594"/>
      <use xlink:href="#DejaVuSans-69" x="598.517578"/>
      <use xlink:href="#DejaVuSans-6f" x="626.300781"/>
      <use xlink:href="#DejaVuSans-6e" x="687.482422"/>
      <use xlink:href="#DejaVuSans-20" x="750.861328"/>
      <use xlink:href="#DejaVuSans-41" x="782.648438"/>
      <use xlink:href="#DejaVuSans-63" x="849.306641"/>
      <use xlink:href="#DejaVuSans-63" x="904.287109"/>
      <use xlink:href="#DejaVuSans-75" x="959.267578"/>
      <use xlink:href="#DejaVuSans-72" x="1022.646484"/>
      <use xlink:href="#DejaVuSans-61" x="1063.759766"/>
      <use xlink:href="#DejaVuSans-63" x="1125.039062"/>
      <use xlink:href="#DejaVuSans-79" x="1180.019531"/>
     </g>
    </g>
    <g id="line2d_26">
     <path d="M 216.18875 293.004312 
L 226.18875 293.004312 
L 236.18875 293.004312 
" style="fill: none; stroke: #9467bd; stroke-width: 1.5; stroke-linecap: square"/>
    </g>
    <g id="text_24">
     <!-- SWA Robust Validation Accuracy -->
     <g transform="translate(244.18875 296.504312) scale(0.1 -0.1)">
      <use xlink:href="#DejaVuSans-53"/>
      <use xlink:href="#DejaVuSans-57" x="63.476562"/>
      <use xlink:href="#DejaVuSans-41" x="156.853516"/>
      <use xlink:href="#DejaVuSans-20" x="225.261719"/>
      <use xlink:href="#DejaVuSans-52" x="257.048828"/>
      <use xlink:href="#DejaVuSans-6f" x="322.03125"/>
      <use xlink:href="#DejaVuSans-62" x="383.212891"/>
      <use xlink:href="#DejaVuSans-75" x="446.689453"/>
      <use xlink:href="#DejaVuSans-73" x="510.068359"/>
      <use xlink:href="#DejaVuSans-74" x="562.167969"/>
      <use xlink:href="#DejaVuSans-20" x="601.376953"/>
      <use xlink:href="#DejaVuSans-56" x="633.164062"/>
      <use xlink:href="#DejaVuSans-61" x="693.822266"/>
      <use xlink:href="#DejaVuSans-6c" x="755.101562"/>
      <use xlink:href="#DejaVuSans-69" x="782.884766"/>
      <use xlink:href="#DejaVuSans-64" x="810.667969"/>
      <use xlink:href="#DejaVuSans-61" x="874.144531"/>
      <use xlink:href="#DejaVuSans-74" x="935.423828"/>
      <use xlink:href="#DejaVuSans-69" x="974.632812"/>
      <use xlink:href="#DejaVuSans-6f" x="1002.416016"/>
      <use xlink:href="#DejaVuSans-6e" x="1063.597656"/>
      <use xlink:href="#DejaVuSans-20" x="1126.976562"/>
      <use xlink:href="#DejaVuSans-41" x="1158.763672"/>
      <use xlink:href="#DejaVuSans-63" x="1225.421875"/>
      <use xlink:href="#DejaVuSans-63" x="1280.402344"/>
      <use xlink:href="#DejaVuSans-75" x="1335.382812"/>
      <use xlink:href="#DejaVuSans-72" x="1398.761719"/>
      <use xlink:href="#DejaVuSans-61" x="1439.875"/>
      <use xlink:href="#DejaVuSans-63" x="1501.154297"/>
      <use xlink:href="#DejaVuSans-79" x="1556.134766"/>
     </g>
    </g>
   </g>
  </g>
 </g>
 <defs>
  <clipPath id="p6af24e848f">
   <rect x="57.6" y="41.472" width="357.12" height="266.112"/>
  </clipPath>
 </defs>
</svg>
