<?xml version="1.0" encoding="utf-8" standalone="no"?>
<!DOCTYPE svg PUBLIC "-//W3C//DTD SVG 1.1//EN"
  "http://www.w3.org/Graphics/SVG/1.1/DTD/svg11.dtd">
<svg xmlns:xlink="http://www.w3.org/1999/xlink" width="460.8pt" height="345.6pt" viewBox="0 0 460.8 345.6" xmlns="http://www.w3.org/2000/svg" version="1.1">
 <metadata>
  <rdf:RDF xmlns:dc="http://purl.org/dc/elements/1.1/" xmlns:cc="http://creativecommons.org/ns#" xmlns:rdf="http://www.w3.org/1999/02/22-rdf-syntax-ns#">
   <cc:Work>
    <dc:type rdf:resource="http://purl.org/dc/dcmitype/StillImage"/>
    <dc:date>2025-07-16T05:52:26.505360</dc:date>
    <dc:format>image/svg+xml</dc:format>
    <dc:creator>
     <cc:Agent>
      <dc:title>Matplotlib v3.9.1, https://matplotlib.org/</dc:title>
     </cc:Agent>
    </dc:creator>
   </cc:Work>
  </rdf:RDF>
 </metadata>
 <defs>
  <style type="text/css">*{stroke-linejoin: round; stroke-linecap: butt}</style>
 </defs>
 <g id="figure_1">
  <g id="patch_1">
   <path d="M 0 345.6 
L 460.8 345.6 
L 460.8 0 
L 0 0 
z
" style="fill: #ffffff"/>
  </g>
  <g id="axes_1">
   <g id="patch_2">
    <path d="M 57.6 307.584 
L 414.72 307.584 
L 414.72 41.472 
L 57.6 41.472 
z
" style="fill: #ffffff"/>
   </g>
   <g id="matplotlib.axis_1">
    <g id="xtick_1">
     <g id="line2d_1">
      <defs>
       <path id="md56f895fc7" d="M 0 0 
L 0 3.5 
" style="stroke: #000000; stroke-width: 0.8"/>
      </defs>
      <g>
       <use xlink:href="#md56f895fc7" x="73.832727" y="307.584" style="stroke: #000000; stroke-width: 0.8"/>
      </g>
     </g>
     <g id="text_1">
      <!-- 1 -->
      <g transform="translate(70.651477 322.182437) scale(0.1 -0.1)">
       <defs>
        <path id="DejaVuSans-31" d="M 794 531 
L 1825 531 
L 1825 4091 
L 703 3866 
L 703 4441 
L 1819 4666 
L 2450 4666 
L 2450 531 
L 3481 531 
L 3481 0 
L 794 0 
L 794 531 
z
" transform="scale(0.015625)"/>
       </defs>
       <use xlink:href="#DejaVuSans-31"/>
      </g>
     </g>
    </g>
    <g id="xtick_2">
     <g id="line2d_2">
      <g>
       <use xlink:href="#md56f895fc7" x="109.664165" y="307.584" style="stroke: #000000; stroke-width: 0.8"/>
      </g>
     </g>
     <g id="text_2">
      <!-- 34 -->
      <g transform="translate(103.301665 322.182437) scale(0.1 -0.1)">
       <defs>
        <path id="DejaVuSans-33" d="M 2597 2516 
Q 3050 2419 3304 2112 
Q 3559 1806 3559 1356 
Q 3559 666 3084 287 
Q 2609 -91 1734 -91 
Q 1441 -91 1130 -33 
Q 819 25 488 141 
L 488 750 
Q 750 597 1062 519 
Q 1375 441 1716 441 
Q 2309 441 2620 675 
Q 2931 909 2931 1356 
Q 2931 1769 2642 2001 
Q 2353 2234 1838 2234 
L 1294 2234 
L 1294 2753 
L 1863 2753 
Q 2328 2753 2575 2939 
Q 2822 3125 2822 3475 
Q 2822 3834 2567 4026 
Q 2313 4219 1838 4219 
Q 1578 4219 1281 4162 
Q 984 4106 628 3988 
L 628 4550 
Q 988 4650 1302 4700 
Q 1616 4750 1894 4750 
Q 2613 4750 3031 4423 
Q 3450 4097 3450 3541 
Q 3450 3153 3228 2886 
Q 3006 2619 2597 2516 
z
" transform="scale(0.015625)"/>
        <path id="DejaVuSans-34" d="M 2419 4116 
L 825 1625 
L 2419 1625 
L 2419 4116 
z
M 2253 4666 
L 3047 4666 
L 3047 1625 
L 3713 1625 
L 3713 1100 
L 3047 1100 
L 3047 0 
L 2419 0 
L 2419 1100 
L 313 1100 
L 313 1709 
L 2253 4666 
z
" transform="scale(0.015625)"/>
       </defs>
       <use xlink:href="#DejaVuSans-33"/>
       <use xlink:href="#DejaVuSans-34" x="63.623047"/>
      </g>
     </g>
    </g>
    <g id="xtick_3">
     <g id="line2d_3">
      <g>
       <use xlink:href="#md56f895fc7" x="145.495604" y="307.584" style="stroke: #000000; stroke-width: 0.8"/>
      </g>
     </g>
     <g id="text_3">
      <!-- 67 -->
      <g transform="translate(139.133104 322.182437) scale(0.1 -0.1)">
       <defs>
        <path id="DejaVuSans-36" d="M 2113 2584 
Q 1688 2584 1439 2293 
Q 1191 2003 1191 1497 
Q 1191 994 1439 701 
Q 1688 409 2113 409 
Q 2538 409 2786 701 
Q 3034 994 3034 1497 
Q 3034 2003 2786 2293 
Q 2538 2584 2113 2584 
z
M 3366 4563 
L 3366 3988 
Q 3128 4100 2886 4159 
Q 2644 4219 2406 4219 
Q 1781 4219 1451 3797 
Q 1122 3375 1075 2522 
Q 1259 2794 1537 2939 
Q 1816 3084 2150 3084 
Q 2853 3084 3261 2657 
Q 3669 2231 3669 1497 
Q 3669 778 3244 343 
Q 2819 -91 2113 -91 
Q 1303 -91 875 529 
Q 447 1150 447 2328 
Q 447 3434 972 4092 
Q 1497 4750 2381 4750 
Q 2619 4750 2861 4703 
Q 3103 4656 3366 4563 
z
" transform="scale(0.015625)"/>
        <path id="DejaVuSans-37" d="M 525 4666 
L 3525 4666 
L 3525 4397 
L 1831 0 
L 1172 0 
L 2766 4134 
L 525 4134 
L 525 4666 
z
" transform="scale(0.015625)"/>
       </defs>
       <use xlink:href="#DejaVuSans-36"/>
       <use xlink:href="#DejaVuSans-37" x="63.623047"/>
      </g>
     </g>
    </g>
    <g id="xtick_4">
     <g id="line2d_4">
      <g>
       <use xlink:href="#md56f895fc7" x="181.327042" y="307.584" style="stroke: #000000; stroke-width: 0.8"/>
      </g>
     </g>
     <g id="text_4">
      <!-- 100 -->
      <g transform="translate(171.783292 322.182437) scale(0.1 -0.1)">
       <defs>
        <path id="DejaVuSans-30" d="M 2034 4250 
Q 1547 4250 1301 3770 
Q 1056 3291 1056 2328 
Q 1056 1369 1301 889 
Q 1547 409 2034 409 
Q 2525 409 2770 889 
Q 3016 1369 3016 2328 
Q 3016 3291 2770 3770 
Q 2525 4250 2034 4250 
z
M 2034 4750 
Q 2819 4750 3233 4129 
Q 3647 3509 3647 2328 
Q 3647 1150 3233 529 
Q 2819 -91 2034 -91 
Q 1250 -91 836 529 
Q 422 1150 422 2328 
Q 422 3509 836 4129 
Q 1250 4750 2034 4750 
z
" transform="scale(0.015625)"/>
       </defs>
       <use xlink:href="#DejaVuSans-31"/>
       <use xlink:href="#DejaVuSans-30" x="63.623047"/>
       <use xlink:href="#DejaVuSans-30" x="127.246094"/>
      </g>
     </g>
    </g>
    <g id="xtick_5">
     <g id="line2d_5">
      <g>
       <use xlink:href="#md56f895fc7" x="217.15848" y="307.584" style="stroke: #000000; stroke-width: 0.8"/>
      </g>
     </g>
     <g id="text_5">
      <!-- 133 -->
      <g transform="translate(207.61473 322.182437) scale(0.1 -0.1)">
       <use xlink:href="#DejaVuSans-31"/>
       <use xlink:href="#DejaVuSans-33" x="63.623047"/>
       <use xlink:href="#DejaVuSans-33" x="127.246094"/>
      </g>
     </g>
    </g>
    <g id="xtick_6">
     <g id="line2d_6">
      <g>
       <use xlink:href="#md56f895fc7" x="254.075719" y="307.584" style="stroke: #000000; stroke-width: 0.8"/>
      </g>
     </g>
     <g id="text_6">
      <!-- 167 -->
      <g transform="translate(244.531969 322.182437) scale(0.1 -0.1)">
       <use xlink:href="#DejaVuSans-31"/>
       <use xlink:href="#DejaVuSans-36" x="63.623047"/>
       <use xlink:href="#DejaVuSans-37" x="127.246094"/>
      </g>
     </g>
    </g>
    <g id="xtick_7">
     <g id="line2d_7">
      <g>
       <use xlink:href="#md56f895fc7" x="289.907157" y="307.584" style="stroke: #000000; stroke-width: 0.8"/>
      </g>
     </g>
     <g id="text_7">
      <!-- 200 -->
      <g transform="translate(280.363407 322.182437) scale(0.1 -0.1)">
       <defs>
        <path id="DejaVuSans-32" d="M 1228 531 
L 3431 531 
L 3431 0 
L 469 0 
L 469 531 
Q 828 903 1448 1529 
Q 2069 2156 2228 2338 
Q 2531 2678 2651 2914 
Q 2772 3150 2772 3378 
Q 2772 3750 2511 3984 
Q 2250 4219 1831 4219 
Q 1534 4219 1204 4116 
Q 875 4013 500 3803 
L 500 4441 
Q 881 4594 1212 4672 
Q 1544 4750 1819 4750 
Q 2544 4750 2975 4387 
Q 3406 4025 3406 3419 
Q 3406 3131 3298 2873 
Q 3191 2616 2906 2266 
Q 2828 2175 2409 1742 
Q 1991 1309 1228 531 
z
" transform="scale(0.015625)"/>
       </defs>
       <use xlink:href="#DejaVuSans-32"/>
       <use xlink:href="#DejaVuSans-30" x="63.623047"/>
       <use xlink:href="#DejaVuSans-30" x="127.246094"/>
      </g>
     </g>
    </g>
    <g id="xtick_8">
     <g id="line2d_8">
      <g>
       <use xlink:href="#md56f895fc7" x="325.738595" y="307.584" style="stroke: #000000; stroke-width: 0.8"/>
      </g>
     </g>
     <g id="text_8">
      <!-- 233 -->
      <g transform="translate(316.194845 322.182437) scale(0.1 -0.1)">
       <use xlink:href="#DejaVuSans-32"/>
       <use xlink:href="#DejaVuSans-33" x="63.623047"/>
       <use xlink:href="#DejaVuSans-33" x="127.246094"/>
      </g>
     </g>
    </g>
    <g id="xtick_9">
     <g id="line2d_9">
      <g>
       <use xlink:href="#md56f895fc7" x="361.570033" y="307.584" style="stroke: #000000; stroke-width: 0.8"/>
      </g>
     </g>
     <g id="text_9">
      <!-- 266 -->
      <g transform="translate(352.026283 322.182437) scale(0.1 -0.1)">
       <use xlink:href="#DejaVuSans-32"/>
       <use xlink:href="#DejaVuSans-36" x="63.623047"/>
       <use xlink:href="#DejaVuSans-36" x="127.246094"/>
      </g>
     </g>
    </g>
    <g id="xtick_10">
     <g id="line2d_10">
      <g>
       <use xlink:href="#md56f895fc7" x="398.487273" y="307.584" style="stroke: #000000; stroke-width: 0.8"/>
      </g>
     </g>
     <g id="text_10">
      <!-- 300 -->
      <g transform="translate(388.943523 322.182437) scale(0.1 -0.1)">
       <use xlink:href="#DejaVuSans-33"/>
       <use xlink:href="#DejaVuSans-30" x="63.623047"/>
       <use xlink:href="#DejaVuSans-30" x="127.246094"/>
      </g>
     </g>
    </g>
    <g id="text_11">
     <!-- Epochs -->
     <g transform="translate(218.244375 335.860562) scale(0.1 -0.1)">
      <defs>
       <path id="DejaVuSans-45" d="M 628 4666 
L 3578 4666 
L 3578 4134 
L 1259 4134 
L 1259 2753 
L 3481 2753 
L 3481 2222 
L 1259 2222 
L 1259 531 
L 3634 531 
L 3634 0 
L 628 0 
L 628 4666 
z
" transform="scale(0.015625)"/>
       <path id="DejaVuSans-70" d="M 1159 525 
L 1159 -1331 
L 581 -1331 
L 581 3500 
L 1159 3500 
L 1159 2969 
Q 1341 3281 1617 3432 
Q 1894 3584 2278 3584 
Q 2916 3584 3314 3078 
Q 3713 2572 3713 1747 
Q 3713 922 3314 415 
Q 2916 -91 2278 -91 
Q 1894 -91 1617 61 
Q 1341 213 1159 525 
z
M 3116 1747 
Q 3116 2381 2855 2742 
Q 2594 3103 2138 3103 
Q 1681 3103 1420 2742 
Q 1159 2381 1159 1747 
Q 1159 1113 1420 752 
Q 1681 391 2138 391 
Q 2594 391 2855 752 
Q 3116 1113 3116 1747 
z
" transform="scale(0.015625)"/>
       <path id="DejaVuSans-6f" d="M 1959 3097 
Q 1497 3097 1228 2736 
Q 959 2375 959 1747 
Q 959 1119 1226 758 
Q 1494 397 1959 397 
Q 2419 397 2687 759 
Q 2956 1122 2956 1747 
Q 2956 2369 2687 2733 
Q 2419 3097 1959 3097 
z
M 1959 3584 
Q 2709 3584 3137 3096 
Q 3566 2609 3566 1747 
Q 3566 888 3137 398 
Q 2709 -91 1959 -91 
Q 1206 -91 779 398 
Q 353 888 353 1747 
Q 353 2609 779 3096 
Q 1206 3584 1959 3584 
z
" transform="scale(0.015625)"/>
       <path id="DejaVuSans-63" d="M 3122 3366 
L 3122 2828 
Q 2878 2963 2633 3030 
Q 2388 3097 2138 3097 
Q 1578 3097 1268 2742 
Q 959 2388 959 1747 
Q 959 1106 1268 751 
Q 1578 397 2138 397 
Q 2388 397 2633 464 
Q 2878 531 3122 666 
L 3122 134 
Q 2881 22 2623 -34 
Q 2366 -91 2075 -91 
Q 1284 -91 818 406 
Q 353 903 353 1747 
Q 353 2603 823 3093 
Q 1294 3584 2113 3584 
Q 2378 3584 2631 3529 
Q 2884 3475 3122 3366 
z
" transform="scale(0.015625)"/>
       <path id="DejaVuSans-68" d="M 3513 2113 
L 3513 0 
L 2938 0 
L 2938 2094 
Q 2938 2591 2744 2837 
Q 2550 3084 2163 3084 
Q 1697 3084 1428 2787 
Q 1159 2491 1159 1978 
L 1159 0 
L 581 0 
L 581 4863 
L 1159 4863 
L 1159 2956 
Q 1366 3272 1645 3428 
Q 1925 3584 2291 3584 
Q 2894 3584 3203 3211 
Q 3513 2838 3513 2113 
z
" transform="scale(0.015625)"/>
       <path id="DejaVuSans-73" d="M 2834 3397 
L 2834 2853 
Q 2591 2978 2328 3040 
Q 2066 3103 1784 3103 
Q 1356 3103 1142 2972 
Q 928 2841 928 2578 
Q 928 2378 1081 2264 
Q 1234 2150 1697 2047 
L 1894 2003 
Q 2506 1872 2764 1633 
Q 3022 1394 3022 966 
Q 3022 478 2636 193 
Q 2250 -91 1575 -91 
Q 1294 -91 989 -36 
Q 684 19 347 128 
L 347 722 
Q 666 556 975 473 
Q 1284 391 1588 391 
Q 1994 391 2212 530 
Q 2431 669 2431 922 
Q 2431 1156 2273 1281 
Q 2116 1406 1581 1522 
L 1381 1569 
Q 847 1681 609 1914 
Q 372 2147 372 2553 
Q 372 3047 722 3315 
Q 1072 3584 1716 3584 
Q 2034 3584 2315 3537 
Q 2597 3491 2834 3397 
z
" transform="scale(0.015625)"/>
      </defs>
      <use xlink:href="#DejaVuSans-45"/>
      <use xlink:href="#DejaVuSans-70" x="63.183594"/>
      <use xlink:href="#DejaVuSans-6f" x="126.660156"/>
      <use xlink:href="#DejaVuSans-63" x="187.841797"/>
      <use xlink:href="#DejaVuSans-68" x="242.822266"/>
      <use xlink:href="#DejaVuSans-73" x="306.201172"/>
     </g>
    </g>
   </g>
   <g id="matplotlib.axis_2">
    <g id="ytick_1">
     <g id="line2d_11">
      <defs>
       <path id="m3347b1b6d4" d="M 0 0 
L -3.5 0 
" style="stroke: #000000; stroke-width: 0.8"/>
      </defs>
      <g>
       <use xlink:href="#m3347b1b6d4" x="57.6" y="295.233194" style="stroke: #000000; stroke-width: 0.8"/>
      </g>
     </g>
     <g id="text_12">
      <!-- 30 -->
      <g transform="translate(37.875 299.032413) scale(0.1 -0.1)">
       <use xlink:href="#DejaVuSans-33"/>
       <use xlink:href="#DejaVuSans-30" x="63.623047"/>
      </g>
     </g>
    </g>
    <g id="ytick_2">
     <g id="line2d_12">
      <g>
       <use xlink:href="#m3347b1b6d4" x="57.6" y="258.832351" style="stroke: #000000; stroke-width: 0.8"/>
      </g>
     </g>
     <g id="text_13">
      <!-- 40 -->
      <g transform="translate(37.875 262.63157) scale(0.1 -0.1)">
       <use xlink:href="#DejaVuSans-34"/>
       <use xlink:href="#DejaVuSans-30" x="63.623047"/>
      </g>
     </g>
    </g>
    <g id="ytick_3">
     <g id="line2d_13">
      <g>
       <use xlink:href="#m3347b1b6d4" x="57.6" y="222.431509" style="stroke: #000000; stroke-width: 0.8"/>
      </g>
     </g>
     <g id="text_14">
      <!-- 50 -->
      <g transform="translate(37.875 226.230728) scale(0.1 -0.1)">
       <defs>
        <path id="DejaVuSans-35" d="M 691 4666 
L 3169 4666 
L 3169 4134 
L 1269 4134 
L 1269 2991 
Q 1406 3038 1543 3061 
Q 1681 3084 1819 3084 
Q 2600 3084 3056 2656 
Q 3513 2228 3513 1497 
Q 3513 744 3044 326 
Q 2575 -91 1722 -91 
Q 1428 -91 1123 -41 
Q 819 9 494 109 
L 494 744 
Q 775 591 1075 516 
Q 1375 441 1709 441 
Q 2250 441 2565 725 
Q 2881 1009 2881 1497 
Q 2881 1984 2565 2268 
Q 2250 2553 1709 2553 
Q 1456 2553 1204 2497 
Q 953 2441 691 2322 
L 691 4666 
z
" transform="scale(0.015625)"/>
       </defs>
       <use xlink:href="#DejaVuSans-35"/>
       <use xlink:href="#DejaVuSans-30" x="63.623047"/>
      </g>
     </g>
    </g>
    <g id="ytick_4">
     <g id="line2d_14">
      <g>
       <use xlink:href="#m3347b1b6d4" x="57.6" y="186.030666" style="stroke: #000000; stroke-width: 0.8"/>
      </g>
     </g>
     <g id="text_15">
      <!-- 60 -->
      <g transform="translate(37.875 189.829885) scale(0.1 -0.1)">
       <use xlink:href="#DejaVuSans-36"/>
       <use xlink:href="#DejaVuSans-30" x="63.623047"/>
      </g>
     </g>
    </g>
    <g id="ytick_5">
     <g id="line2d_15">
      <g>
       <use xlink:href="#m3347b1b6d4" x="57.6" y="149.629824" style="stroke: #000000; stroke-width: 0.8"/>
      </g>
     </g>
     <g id="text_16">
      <!-- 70 -->
      <g transform="translate(37.875 153.429042) scale(0.1 -0.1)">
       <use xlink:href="#DejaVuSans-37"/>
       <use xlink:href="#DejaVuSans-30" x="63.623047"/>
      </g>
     </g>
    </g>
    <g id="ytick_6">
     <g id="line2d_16">
      <g>
       <use xlink:href="#m3347b1b6d4" x="57.6" y="113.228981" style="stroke: #000000; stroke-width: 0.8"/>
      </g>
     </g>
     <g id="text_17">
      <!-- 80 -->
      <g transform="translate(37.875 117.0282) scale(0.1 -0.1)">
       <defs>
        <path id="DejaVuSans-38" d="M 2034 2216 
Q 1584 2216 1326 1975 
Q 1069 1734 1069 1313 
Q 1069 891 1326 650 
Q 1584 409 2034 409 
Q 2484 409 2743 651 
Q 3003 894 3003 1313 
Q 3003 1734 2745 1975 
Q 2488 2216 2034 2216 
z
M 1403 2484 
Q 997 2584 770 2862 
Q 544 3141 544 3541 
Q 544 4100 942 4425 
Q 1341 4750 2034 4750 
Q 2731 4750 3128 4425 
Q 3525 4100 3525 3541 
Q 3525 3141 3298 2862 
Q 3072 2584 2669 2484 
Q 3125 2378 3379 2068 
Q 3634 1759 3634 1313 
Q 3634 634 3220 271 
Q 2806 -91 2034 -91 
Q 1263 -91 848 271 
Q 434 634 434 1313 
Q 434 1759 690 2068 
Q 947 2378 1403 2484 
z
M 1172 3481 
Q 1172 3119 1398 2916 
Q 1625 2713 2034 2713 
Q 2441 2713 2670 2916 
Q 2900 3119 2900 3481 
Q 2900 3844 2670 4047 
Q 2441 4250 2034 4250 
Q 1625 4250 1398 4047 
Q 1172 3844 1172 3481 
z
" transform="scale(0.015625)"/>
       </defs>
       <use xlink:href="#DejaVuSans-38"/>
       <use xlink:href="#DejaVuSans-30" x="63.623047"/>
      </g>
     </g>
    </g>
    <g id="ytick_7">
     <g id="line2d_17">
      <g>
       <use xlink:href="#m3347b1b6d4" x="57.6" y="76.828138" style="stroke: #000000; stroke-width: 0.8"/>
      </g>
     </g>
     <g id="text_18">
      <!-- 90 -->
      <g transform="translate(37.875 80.627357) scale(0.1 -0.1)">
       <defs>
        <path id="DejaVuSans-39" d="M 703 97 
L 703 672 
Q 941 559 1184 500 
Q 1428 441 1663 441 
Q 2288 441 2617 861 
Q 2947 1281 2994 2138 
Q 2813 1869 2534 1725 
Q 2256 1581 1919 1581 
Q 1219 1581 811 2004 
Q 403 2428 403 3163 
Q 403 3881 828 4315 
Q 1253 4750 1959 4750 
Q 2769 4750 3195 4129 
Q 3622 3509 3622 2328 
Q 3622 1225 3098 567 
Q 2575 -91 1691 -91 
Q 1453 -91 1209 -44 
Q 966 3 703 97 
z
M 1959 2075 
Q 2384 2075 2632 2365 
Q 2881 2656 2881 3163 
Q 2881 3666 2632 3958 
Q 2384 4250 1959 4250 
Q 1534 4250 1286 3958 
Q 1038 3666 1038 3163 
Q 1038 2656 1286 2365 
Q 1534 2075 1959 2075 
z
" transform="scale(0.015625)"/>
       </defs>
       <use xlink:href="#DejaVuSans-39"/>
       <use xlink:href="#DejaVuSans-30" x="63.623047"/>
      </g>
     </g>
    </g>
    <g id="text_19">
     <!-- Accuracy -->
     <g transform="translate(31.795312 197.356125) rotate(-90) scale(0.1 -0.1)">
      <defs>
       <path id="DejaVuSans-41" d="M 2188 4044 
L 1331 1722 
L 3047 1722 
L 2188 4044 
z
M 1831 4666 
L 2547 4666 
L 4325 0 
L 3669 0 
L 3244 1197 
L 1141 1197 
L 716 0 
L 50 0 
L 1831 4666 
z
" transform="scale(0.015625)"/>
       <path id="DejaVuSans-75" d="M 544 1381 
L 544 3500 
L 1119 3500 
L 1119 1403 
Q 1119 906 1312 657 
Q 1506 409 1894 409 
Q 2359 409 2629 706 
Q 2900 1003 2900 1516 
L 2900 3500 
L 3475 3500 
L 3475 0 
L 2900 0 
L 2900 538 
Q 2691 219 2414 64 
Q 2138 -91 1772 -91 
Q 1169 -91 856 284 
Q 544 659 544 1381 
z
M 1991 3584 
L 1991 3584 
z
" transform="scale(0.015625)"/>
       <path id="DejaVuSans-72" d="M 2631 2963 
Q 2534 3019 2420 3045 
Q 2306 3072 2169 3072 
Q 1681 3072 1420 2755 
Q 1159 2438 1159 1844 
L 1159 0 
L 581 0 
L 581 3500 
L 1159 3500 
L 1159 2956 
Q 1341 3275 1631 3429 
Q 1922 3584 2338 3584 
Q 2397 3584 2469 3576 
Q 2541 3569 2628 3553 
L 2631 2963 
z
" transform="scale(0.015625)"/>
       <path id="DejaVuSans-61" d="M 2194 1759 
Q 1497 1759 1228 1600 
Q 959 1441 959 1056 
Q 959 750 1161 570 
Q 1363 391 1709 391 
Q 2188 391 2477 730 
Q 2766 1069 2766 1631 
L 2766 1759 
L 2194 1759 
z
M 3341 1997 
L 3341 0 
L 2766 0 
L 2766 531 
Q 2569 213 2275 61 
Q 1981 -91 1556 -91 
Q 1019 -91 701 211 
Q 384 513 384 1019 
Q 384 1609 779 1909 
Q 1175 2209 1959 2209 
L 2766 2209 
L 2766 2266 
Q 2766 2663 2505 2880 
Q 2244 3097 1772 3097 
Q 1472 3097 1187 3025 
Q 903 2953 641 2809 
L 641 3341 
Q 956 3463 1253 3523 
Q 1550 3584 1831 3584 
Q 2591 3584 2966 3190 
Q 3341 2797 3341 1997 
z
" transform="scale(0.015625)"/>
       <path id="DejaVuSans-79" d="M 2059 -325 
Q 1816 -950 1584 -1140 
Q 1353 -1331 966 -1331 
L 506 -1331 
L 506 -850 
L 844 -850 
Q 1081 -850 1212 -737 
Q 1344 -625 1503 -206 
L 1606 56 
L 191 3500 
L 800 3500 
L 1894 763 
L 2988 3500 
L 3597 3500 
L 2059 -325 
z
" transform="scale(0.015625)"/>
      </defs>
      <use xlink:href="#DejaVuSans-41"/>
      <use xlink:href="#DejaVuSans-63" x="66.658203"/>
      <use xlink:href="#DejaVuSans-63" x="121.638672"/>
      <use xlink:href="#DejaVuSans-75" x="176.619141"/>
      <use xlink:href="#DejaVuSans-72" x="239.998047"/>
      <use xlink:href="#DejaVuSans-61" x="281.111328"/>
      <use xlink:href="#DejaVuSans-63" x="342.390625"/>
      <use xlink:href="#DejaVuSans-79" x="397.371094"/>
     </g>
    </g>
   </g>
   <g id="line2d_18">
    <path d="M 73.832727 295.488 
L 74.918528 230.922005 
L 76.00433 197.833639 
L 77.090131 177.54017 
L 79.261733 157.410504 
L 80.347534 150.912953 
L 81.433335 146.235445 
L 83.604938 135.943107 
L 85.77654 126.842896 
L 86.862341 124.258436 
L 87.948142 120.026838 
L 89.033943 118.179496 
L 90.119745 114.721416 
L 91.205546 113.228981 
L 93.377148 109.616197 
L 94.462949 108.342168 
L 95.54875 134.204967 
L 96.634552 132.930937 
L 97.720353 132.18472 
L 98.806154 128.926844 
L 99.891955 125.241259 
L 100.977756 126.069378 
L 102.063557 123.175511 
L 103.149358 121.637576 
L 104.23516 120.718454 
L 105.320961 117.997491 
L 106.406762 116.150149 
L 107.492563 114.0298 
L 108.578364 114.48481 
L 109.664165 111.554542 
L 110.749967 112.76487 
L 111.835768 109.962005 
L 114.00737 107.359345 
L 115.093171 104.838587 
L 116.178972 104.929589 
L 117.264773 102.718238 
L 121.607978 99.023552 
L 122.693779 97.704022 
L 123.77958 96.648397 
L 124.865382 94.364244 
L 125.951183 94.728253 
L 127.036984 93.490624 
L 128.122785 91.515878 
L 129.208586 90.796962 
L 130.294387 90.30555 
L 131.380189 88.521909 
L 132.46599 88.685713 
L 133.551791 87.657389 
L 134.637592 87.948596 
L 135.723393 85.98295 
L 136.809194 87.611888 
L 137.894995 87.566387 
L 138.980797 110.58082 
L 140.066598 112.091455 
L 141.152399 109.506995 
L 142.2382 109.124786 
L 143.324001 108.487771 
L 144.409802 109.534296 
L 145.495604 108.806279 
L 146.581405 107.404846 
L 147.667206 106.867934 
L 148.753007 105.621205 
L 149.838808 105.885111 
L 150.924609 103.801163 
L 152.01041 104.893188 
L 153.096212 104.55648 
L 154.182013 102.754639 
L 155.267814 101.398707 
L 156.353615 103.273351 
L 157.439416 101.435108 
L 159.611019 100.625189 
L 160.69682 100.033676 
L 161.782621 100.051876 
L 162.868422 99.096354 
L 163.954223 98.93255 
L 165.040024 97.094308 
L 166.125825 98.404738 
L 167.211627 96.393591 
L 168.297428 98.659544 
L 169.383229 97.321813 
L 170.46903 96.939604 
L 171.554831 95.428969 
L 172.640632 94.518948 
L 173.726434 94.382445 
L 174.812235 93.226718 
L 175.898036 94.19134 
L 178.069638 92.644305 
L 179.155439 92.680705 
L 180.24124 91.870787 
L 181.327042 91.634181 
L 183.498644 90.169047 
L 184.584445 88.667512 
L 185.670246 89.650335 
L 186.756047 88.321704 
L 187.841849 88.722114 
L 188.92765 88.949619 
L 190.013451 86.792869 
L 192.185053 85.855547 
L 193.270854 85.673543 
L 194.356656 83.107284 
L 195.442457 84.117407 
L 196.528258 84.572418 
L 197.614059 82.470269 
L 198.69986 83.107284 
L 199.785661 83.161885 
L 200.871462 82.52487 
L 201.957264 81.64215 
L 203.043065 82.215463 
L 204.128866 79.93131 
L 205.214667 79.4945 
L 206.300468 79.558202 
L 207.386269 79.276095 
L 208.472071 78.083967 
L 209.557872 78.393375 
L 210.643673 77.264949 
L 211.729474 77.820061 
L 212.815275 76.819038 
L 213.901076 76.937341 
L 214.986877 76.618834 
L 216.072679 76.627934 
L 217.15848 76.90094 
L 218.244281 76.136522 
L 219.330082 77.110245 
L 220.415883 75.217401 
L 221.501684 75.1628 
L 222.587486 74.953495 
L 223.673287 76.391328 
L 224.759088 75.754314 
L 225.844889 98.040729 
L 226.93069 100.115577 
L 228.016491 100.798093 
L 229.102292 99.460362 
L 230.188094 99.942673 
L 231.273895 98.295535 
L 232.359696 99.396661 
L 233.445497 98.459339 
L 234.531298 97.18531 
L 235.617099 98.104431 
L 236.702901 97.713122 
L 237.788702 97.658521 
L 238.874503 96.939604 
L 239.960304 96.484593 
L 241.046105 96.666598 
L 242.131906 98.04983 
L 243.217708 97.63122 
L 244.303509 96.029583 
L 245.38931 95.656474 
L 246.475111 95.438069 
L 247.560912 94.755553 
L 248.646713 94.755553 
L 249.732514 94.973958 
L 250.818316 93.454223 
L 251.904117 95.219664 
L 252.989918 93.909234 
L 254.075719 95.720176 
L 256.247321 93.208518 
L 257.333123 93.335921 
L 258.418924 93.235818 
L 259.504725 93.31772 
L 260.590526 92.516902 
L 261.676327 92.981012 
L 262.762128 91.989089 
L 263.847929 92.662505 
L 264.933731 91.370275 
L 266.019532 90.560356 
L 267.105333 91.342974 
L 268.191134 89.896041 
L 269.276935 89.896041 
L 270.362736 91.188271 
L 271.448538 90.751461 
L 272.534339 90.796962 
L 273.62014 90.569457 
L 274.705941 90.214548 
L 275.791742 89.522932 
L 276.877543 90.769661 
L 277.963344 90.27825 
L 279.049146 88.531009 
L 280.134947 89.44103 
L 281.220748 88.922318 
L 282.306549 88.767615 
L 283.39235 87.411683 
L 284.478151 88.394506 
L 286.649754 88.740314 
L 287.735555 88.1124 
L 288.821356 87.69379 
L 289.907157 88.176101 
L 290.992958 86.556264 
L 292.07876 87.812093 
L 293.164561 86.428861 
L 294.250362 87.293381 
L 295.336163 85.10023 
L 296.421964 87.111376 
L 297.507765 85.382336 
L 298.593566 85.082029 
L 299.679368 84.972827 
L 300.765169 85.09113 
L 302.936771 86.110353 
L 304.022572 85.391437 
L 305.108373 83.953603 
L 306.194175 84.68162 
L 307.279976 83.671497 
L 308.365777 83.707898 
L 309.451578 84.062806 
L 310.537379 83.089083 
L 311.62318 83.334789 
L 312.708981 83.216486 
L 313.794783 82.397467 
L 314.880584 83.8171 
L 315.966385 82.06076 
L 317.052186 83.116384 
L 318.137987 82.288265 
L 319.223788 81.19624 
L 320.30959 82.470269 
L 321.395391 81.714952 
L 322.481192 81.259941 
L 323.566993 80.36812 
L 324.652794 80.040513 
L 325.738595 79.91311 
L 326.824396 79.649204 
L 327.910198 80.35902 
L 328.995999 79.758406 
L 330.0818 80.158816 
L 331.167601 78.893886 
L 332.253402 79.257895 
L 333.339203 79.094091 
L 335.510806 77.365051 
L 336.596607 78.493477 
L 337.682408 77.628957 
L 338.768209 77.656258 
L 339.85401 77.219447 
L 340.939811 77.583456 
L 342.025613 76.782637 
L 343.111414 76.509631 
L 344.197215 75.781614 
L 345.283016 76.345827 
L 346.368817 75.208301 
L 347.454618 75.699712 
L 348.54042 75.299303 
L 349.626221 73.86147 
L 350.712022 74.179977 
L 351.797823 73.988873 
L 352.883624 73.988873 
L 353.969425 73.178954 
L 355.055227 73.388259 
L 356.141028 73.142553 
L 357.226829 72.341735 
L 358.31263 73.206255 
L 359.398431 72.99695 
L 360.484232 71.686519 
L 362.655835 72.232532 
L 363.741636 72.059628 
L 364.827437 72.751244 
L 365.913238 71.449914 
L 366.999039 71.095006 
L 368.08484 71.368012 
L 369.170642 72.551039 
L 370.256443 73.160754 
L 371.342244 73.297257 
L 373.513846 73.897871 
L 374.599647 74.543986 
L 375.685448 75.017197 
L 376.77125 74.707789 
L 377.857051 73.997973 
L 378.942852 73.906971 
L 380.028653 74.598587 
L 381.114454 73.552063 
L 382.200255 74.917094 
L 383.286057 74.562186 
L 385.457659 74.216378 
L 386.54346 74.398382 
L 387.629261 74.034374 
L 388.715062 73.470161 
L 389.800863 73.752267 
L 390.886665 75.353904 
L 391.972466 74.571286 
L 393.058267 74.361981 
L 394.144068 73.843269 
L 395.229869 74.343781 
L 396.31567 73.743167 
L 397.401472 73.633964 
L 398.487273 74.161777 
L 398.487273 74.161777 
" clip-path="url(#pb8cd11212c)" style="fill: none; stroke: #1f77b4; stroke-width: 1.5; stroke-linecap: square"/>
   </g>
   <g id="line2d_19">
    <path d="M 73.832727 250.059748 
L 74.918528 175.510823 
L 76.00433 169.35908 
L 77.090131 159.749258 
L 78.175932 128.699339 
L 79.261733 126.296884 
L 80.347534 114.90342 
L 81.433335 114.102601 
L 82.519137 104.383576 
L 83.604938 100.779893 
L 84.690739 99.505863 
L 85.77654 93.972935 
L 86.862341 92.626104 
L 87.948142 84.326712 
L 89.033943 84.65432 
L 90.119745 81.560248 
L 91.205546 79.631003 
L 92.291347 78.320573 
L 93.377148 76.500531 
L 94.462949 77.410552 
L 95.54875 105.621205 
L 96.634552 105.730407 
L 97.720353 97.467416 
L 98.806154 95.538172 
L 99.891955 91.097269 
L 100.977756 97.758623 
L 102.063557 87.784792 
L 103.149358 89.095222 
L 104.23516 91.388475 
L 105.320961 87.893995 
L 106.406762 82.907079 
L 107.492563 81.66945 
L 108.578364 78.720982 
L 109.664165 81.63305 
L 110.749967 84.144708 
L 111.835768 81.123438 
L 112.921569 74.352881 
L 114.00737 76.536932 
L 115.093171 74.061674 
L 116.178972 77.410552 
L 117.264773 72.241632 
L 118.350575 69.766375 
L 119.436376 72.13243 
L 120.522177 74.971695 
L 121.607978 70.057582 
L 122.693779 69.038358 
L 123.77958 66.817907 
L 124.865382 66.308295 
L 127.036984 66.199092 
L 128.122785 65.434675 
L 129.208586 64.051443 
L 130.294387 65.107067 
L 131.380189 64.015042 
L 132.46599 64.015042 
L 133.551791 63.541831 
L 134.637592 63.323426 
L 135.723393 63.359827 
L 136.809194 62.777413 
L 137.894995 63.105021 
L 138.980797 81.560248 
L 140.066598 84.799923 
L 141.152399 76.755337 
L 142.2382 82.251864 
L 145.495604 75.1537 
L 146.581405 79.266995 
L 148.753007 75.59051 
L 149.838808 75.554109 
L 150.924609 72.787645 
L 152.01041 75.772514 
L 153.096212 73.44286 
L 154.182013 73.515662 
L 155.267814 73.406459 
L 156.353615 73.115252 
L 157.439416 74.207278 
L 158.525217 72.350835 
L 159.611019 69.183961 
L 160.69682 73.515662 
L 161.782621 70.676396 
L 162.868422 68.310341 
L 163.954223 70.639995 
L 165.040024 71.804822 
L 166.125825 68.819953 
L 167.211627 68.892755 
L 168.297428 75.1537 
L 169.383229 69.183961 
L 170.46903 71.622818 
L 171.554831 66.890708 
L 172.640632 67.618725 
L 173.726434 67.691527 
L 174.812235 66.271894 
L 175.898036 66.817907 
L 176.983837 66.271894 
L 178.069638 67.545924 
L 179.155439 66.162692 
L 180.24124 66.235493 
L 181.327042 66.126291 
L 182.412843 65.871485 
L 183.498644 63.94224 
L 184.584445 65.034265 
L 185.670246 64.269848 
L 186.756047 63.978641 
L 187.841849 62.049396 
L 190.013451 62.850215 
L 191.099252 62.012995 
L 192.185053 62.741012 
L 193.270854 60.993772 
L 194.356656 61.212177 
L 195.442457 61.867392 
L 196.528258 60.775367 
L 197.614059 61.139375 
L 198.69986 59.828945 
L 199.785661 60.04735 
L 200.871462 58.77332 
L 201.957264 59.282932 
L 203.043065 58.445713 
L 204.128866 58.154506 
L 205.214667 59.392135 
L 206.300468 58.445713 
L 207.386269 59.392135 
L 208.472071 57.826899 
L 209.557872 58.554915 
L 210.643673 58.372911 
L 211.729474 57.717696 
L 212.815275 58.227308 
L 213.901076 57.171683 
L 214.986877 57.244485 
L 216.072679 57.863299 
L 217.15848 57.280886 
L 218.244281 57.098882 
L 219.330082 57.062481 
L 220.415883 57.208084 
L 221.501684 57.062481 
L 222.587486 57.317287 
L 223.673287 56.625671 
L 224.759088 56.734873 
L 225.844889 73.115252 
L 226.93069 73.770468 
L 228.016491 70.894801 
L 229.102292 71.877624 
L 230.188094 71.73202 
L 231.273895 70.530793 
L 232.359696 69.693573 
L 233.445497 73.552063 
L 234.531298 72.532839 
L 235.617099 68.455945 
L 236.702901 66.453898 
L 237.788702 70.42159 
L 238.874503 69.074759 
L 239.960304 68.929156 
L 241.046105 69.074759 
L 242.131906 71.622818 
L 243.217708 70.130383 
L 244.303509 69.183961 
L 245.38931 70.494392 
L 246.475111 67.509523 
L 247.560912 68.091936 
L 248.646713 70.312388 
L 249.732514 66.781506 
L 251.904117 67.181915 
L 252.989918 67.291118 
L 254.075719 66.635902 
L 255.16152 70.312388 
L 256.247321 65.21627 
L 257.333123 68.019135 
L 258.418924 66.490299 
L 259.504725 67.545924 
L 260.590526 67.291118 
L 261.676327 70.130383 
L 262.762128 65.507476 
L 263.847929 64.269848 
L 266.019532 68.055535 
L 267.105333 68.091936 
L 268.191134 64.852261 
L 269.276935 67.109113 
L 270.362736 65.507476 
L 271.448538 68.929156 
L 272.534339 65.143468 
L 273.62014 66.017088 
L 274.705941 65.944286 
L 275.791742 64.706658 
L 276.877543 65.65308 
L 277.963344 66.162692 
L 279.049146 63.833038 
L 280.134947 63.796637 
L 281.220748 64.342649 
L 282.306549 64.597455 
L 283.39235 63.687434 
L 284.478151 63.323426 
L 285.563953 65.070666 
L 286.649754 67.582324 
L 287.735555 64.051443 
L 288.821356 64.051443 
L 289.907157 61.867392 
L 290.992958 64.597455 
L 292.07876 63.50543 
L 293.164561 62.231401 
L 294.250362 62.559008 
L 295.336163 62.668211 
L 296.421964 62.231401 
L 297.507765 62.668211 
L 298.593566 62.595409 
L 299.679368 62.195 
L 300.765169 61.212177 
L 301.85097 61.539785 
L 302.936771 60.848169 
L 304.022572 61.75819 
L 305.108373 61.648987 
L 306.194175 62.741012 
L 307.279976 60.884569 
L 308.365777 61.976595 
L 309.451578 61.212177 
L 310.537379 60.811768 
L 311.62318 60.884569 
L 312.708981 59.938147 
L 313.794783 63.141422 
L 314.880584 61.284979 
L 315.966385 62.195 
L 317.052186 60.884569 
L 318.137987 62.995818 
L 319.223788 61.830991 
L 320.30959 59.683342 
L 321.395391 58.809721 
L 322.481192 59.210131 
L 323.566993 60.775367 
L 324.652794 59.210131 
L 325.738595 60.156553 
L 326.824396 58.73692 
L 327.910198 58.154506 
L 328.995999 58.882523 
L 330.0818 58.081704 
L 331.167601 57.681295 
L 332.253402 57.936101 
L 333.339203 57.46289 
L 334.425005 58.190907 
L 335.510806 57.681295 
L 336.596607 57.02608 
L 337.682408 56.880477 
L 338.768209 58.30011 
L 339.85401 57.171683 
L 340.939811 57.244485 
L 342.025613 56.370865 
L 343.111414 55.71565 
L 344.197215 56.480067 
L 345.283016 56.225262 
L 346.368817 57.317287 
L 347.454618 56.953278 
L 348.54042 55.679249 
L 349.626221 56.370865 
L 350.712022 55.424443 
L 351.797823 56.334464 
L 352.883624 55.060435 
L 353.969425 56.043257 
L 355.055227 55.388042 
L 357.226829 54.987633 
L 358.31263 55.133236 
L 359.398431 55.096835 
L 360.484232 56.043257 
L 361.570033 54.623624 
L 363.741636 54.732827 
L 364.827437 54.405219 
L 365.913238 54.732827 
L 366.999039 53.895608 
L 368.08484 54.550823 
L 369.170642 55.570046 
L 370.256443 55.169637 
L 371.342244 55.606447 
L 372.428045 56.188861 
L 373.513846 55.970456 
L 374.599647 56.043257 
L 375.685448 56.662072 
L 377.857051 56.625671 
L 378.942852 56.15246 
L 380.028653 56.116059 
L 382.200255 55.824852 
L 383.286057 56.298063 
L 384.371858 56.188861 
L 385.457659 55.752051 
L 386.54346 57.280886 
L 387.629261 56.552869 
L 388.715062 57.644894 
L 389.800863 56.443667 
L 390.886665 56.043257 
L 393.058267 56.480067 
L 394.144068 56.261662 
L 395.229869 55.752051 
L 396.31567 56.188861 
L 398.487273 56.480067 
L 398.487273 56.480067 
" clip-path="url(#pb8cd11212c)" style="fill: none; stroke: #ff7f0e; stroke-width: 1.5; stroke-linecap: square"/>
   </g>
   <g id="line2d_20">
    <path d="M 73.832727 265.86148 
L 74.918528 209.753974 
L 76.00433 198.582681 
L 77.090131 191.804593 
L 78.175932 163.56256 
L 79.261733 165.445362 
L 80.347534 158.792794 
L 81.433335 155.529271 
L 82.519137 150.006384 
L 83.604938 143.228296 
L 84.690739 142.851736 
L 85.77654 134.692926 
L 86.862341 137.077809 
L 87.948142 126.408596 
L 89.033943 126.408596 
L 90.119745 118.626347 
L 91.205546 122.266432 
L 92.291347 119.630509 
L 93.377148 120.76019 
L 94.462949 120.50915 
L 95.54875 152.140227 
L 96.634552 152.391267 
L 97.720353 140.090292 
L 98.806154 140.090292 
L 99.891955 135.571567 
L 100.977756 140.843413 
L 102.063557 131.931483 
L 103.149358 133.312205 
L 104.23516 141.471014 
L 105.320961 135.069487 
L 106.406762 126.408596 
L 107.492563 121.764351 
L 108.578364 122.517472 
L 109.664165 126.283076 
L 110.749967 126.157556 
L 111.835768 118.626347 
L 112.921569 114.484183 
L 114.00737 117.873226 
L 115.093171 113.354501 
L 116.178972 118.751868 
L 118.350575 110.090977 
L 119.436376 110.718578 
L 120.522177 112.47586 
L 121.607978 109.714417 
L 122.693779 108.584736 
L 123.77958 105.446732 
L 124.865382 105.070171 
L 125.951183 106.325373 
L 127.036984 102.810809 
L 128.122785 103.187369 
L 130.294387 102.936329 
L 131.380189 102.936329 
L 132.46599 102.810809 
L 134.637592 99.672805 
L 135.723393 99.296245 
L 136.809194 98.668644 
L 137.894995 99.672805 
L 138.980797 121.889871 
L 140.066598 130.801802 
L 141.152399 119.379468 
L 142.2382 124.023714 
L 143.324001 120.132589 
L 144.409802 122.140911 
L 145.495604 122.015391 
L 147.667206 118.124267 
L 148.753007 114.107622 
L 150.924609 110.467538 
L 152.01041 114.986263 
L 153.096212 114.107622 
L 154.182013 110.342018 
L 155.267814 111.346179 
L 156.353615 110.593058 
L 157.439416 115.111783 
L 158.525217 110.969618 
L 159.611019 108.584736 
L 160.69682 111.97378 
L 161.782621 114.609703 
L 162.868422 107.957135 
L 163.954223 108.208175 
L 165.040024 111.095139 
L 166.125825 110.969618 
L 167.211627 112.0993 
L 168.297428 115.613864 
L 169.383229 110.718578 
L 170.46903 107.204014 
L 171.554831 106.450893 
L 172.640632 108.208175 
L 173.726434 105.195692 
L 174.812235 101.304567 
L 175.898036 105.195692 
L 176.983837 104.317051 
L 178.069638 105.321212 
L 179.155439 103.312889 
L 180.24124 101.053527 
L 181.327042 102.183208 
L 182.412843 100.928007 
L 183.498644 102.057688 
L 184.584445 100.928007 
L 185.670246 101.304567 
L 186.756047 97.162402 
L 187.841849 100.174886 
L 188.92765 98.166563 
L 190.013451 97.664483 
L 191.099252 98.292084 
L 192.185053 96.158241 
L 193.270854 96.534801 
L 194.356656 99.296245 
L 195.442457 97.036882 
L 196.528258 96.660322 
L 197.614059 95.40512 
L 198.69986 95.53064 
L 199.785661 95.15408 
L 200.871462 94.526479 
L 201.957264 91.765036 
L 203.043065 93.145758 
L 204.128866 92.894717 
L 205.214667 92.267117 
L 206.300468 92.141596 
L 207.386269 93.898878 
L 208.472071 89.254633 
L 209.557872 90.133274 
L 210.643673 90.133274 
L 211.729474 90.384314 
L 212.815275 90.509834 
L 213.901076 88.752552 
L 214.986877 89.129113 
L 216.072679 88.752552 
L 217.15848 88.501512 
L 218.244281 88.375992 
L 219.330082 88.752552 
L 220.415883 88.375992 
L 221.501684 87.497351 
L 222.587486 89.254633 
L 223.673287 87.873911 
L 224.759088 87.622871 
L 225.844889 111.848259 
L 226.93069 116.618025 
L 228.016491 112.977941 
L 229.102292 116.241465 
L 230.188094 111.346179 
L 231.273895 112.35034 
L 232.359696 108.584736 
L 233.445497 114.609703 
L 234.531298 112.7269 
L 236.702901 104.693611 
L 237.788702 112.977941 
L 238.874503 110.718578 
L 239.960304 109.212336 
L 241.046105 108.710256 
L 242.131906 108.333695 
L 243.217708 111.97378 
L 244.303509 111.471699 
L 245.38931 113.480021 
L 246.475111 111.471699 
L 247.560912 113.982102 
L 249.732514 104.568091 
L 250.818316 106.576413 
L 251.904117 105.572252 
L 252.989918 105.823292 
L 254.075719 99.547285 
L 255.16152 106.952974 
L 256.247321 103.187369 
L 257.333123 110.593058 
L 258.418924 104.06601 
L 259.504725 109.337856 
L 260.590526 106.827454 
L 261.676327 112.977941 
L 263.847929 98.292084 
L 264.933731 108.082655 
L 266.019532 106.199853 
L 267.105333 110.216498 
L 268.191134 99.547285 
L 269.276935 103.187369 
L 270.362736 100.049366 
L 271.448538 107.455054 
L 272.534339 104.819131 
L 273.62014 104.819131 
L 274.705941 104.317051 
L 275.791742 101.179047 
L 276.877543 101.430087 
L 277.963344 104.442571 
L 279.049146 100.174886 
L 280.134947 103.81497 
L 281.220748 98.668644 
L 282.306549 105.823292 
L 283.39235 101.681128 
L 284.478151 101.806648 
L 285.563953 103.187369 
L 286.649754 107.957135 
L 287.735555 102.057688 
L 288.821356 101.053527 
L 289.907157 98.417604 
L 290.992958 99.923845 
L 292.07876 98.166563 
L 293.164561 97.538963 
L 294.250362 98.543124 
L 295.336163 97.162402 
L 296.421964 99.421765 
L 297.507765 99.170725 
L 298.593566 96.032721 
L 299.679368 99.923845 
L 300.765169 95.40512 
L 301.85097 97.287922 
L 302.936771 97.413443 
L 304.022572 99.170725 
L 305.108373 97.036882 
L 306.194175 100.551446 
L 307.279976 95.02856 
L 308.365777 96.032721 
L 309.451578 95.781681 
L 310.537379 96.911362 
L 311.62318 99.923845 
L 312.708981 95.2796 
L 313.794783 100.049366 
L 315.966385 96.660322 
L 317.052186 97.538963 
L 318.137987 96.785842 
L 319.223788 94.526479 
L 320.30959 94.275439 
L 321.395391 93.145758 
L 322.481192 90.258794 
L 323.566993 96.409281 
L 324.652794 96.911362 
L 325.738595 96.785842 
L 326.824396 91.639516 
L 327.910198 93.773358 
L 328.995999 96.660322 
L 330.0818 93.396798 
L 332.253402 88.752552 
L 333.339203 92.894717 
L 334.425005 94.777519 
L 335.510806 92.769197 
L 336.596607 89.882234 
L 337.682408 88.375992 
L 338.768209 92.894717 
L 339.85401 88.501512 
L 340.939811 90.007754 
L 342.025613 89.756714 
L 343.111414 88.375992 
L 344.197215 86.61871 
L 345.283016 85.991109 
L 346.368817 89.254633 
L 347.454618 88.124952 
L 348.54042 86.36767 
L 349.626221 89.505673 
L 350.712022 85.865589 
L 351.797823 85.614549 
L 352.883624 86.74423 
L 353.969425 87.622871 
L 355.055227 87.246311 
L 356.141028 84.735908 
L 357.226829 86.49319 
L 358.31263 84.359347 
L 359.398431 85.489029 
L 360.484232 85.740069 
L 361.570033 85.865589 
L 362.655835 82.853105 
L 363.741636 82.476545 
L 364.827437 83.857267 
L 365.913238 82.727585 
L 366.999039 85.740069 
L 368.08484 83.229666 
L 369.170642 86.86975 
L 370.256443 85.614549 
L 371.342244 86.116629 
L 372.428045 85.237988 
L 373.513846 87.873911 
L 374.599647 86.74423 
L 375.685448 87.748391 
L 376.77125 85.865589 
L 377.857051 87.748391 
L 378.942852 89.003593 
L 380.028653 87.748391 
L 381.114454 85.865589 
L 382.200255 89.756714 
L 383.286057 91.765036 
L 384.371858 87.12079 
L 385.457659 87.497351 
L 386.54346 87.371831 
L 387.629261 86.61871 
L 388.715062 90.635355 
L 389.800863 88.124952 
L 390.886665 88.752552 
L 391.972466 90.258794 
L 393.058267 90.133274 
L 394.144068 86.86975 
L 395.229869 86.74423 
L 396.31567 86.116629 
L 397.401472 86.242149 
L 398.487273 88.501512 
L 398.487273 88.501512 
" clip-path="url(#pb8cd11212c)" style="fill: none; stroke: #2ca02c; stroke-width: 1.5; stroke-linecap: square"/>
   </g>
   <g id="line2d_21">
    <path d="M 368.08484 53.932008 
L 369.170642 53.932008 
L 370.256443 53.640802 
L 371.342244 54.478021 
L 372.428045 54.405219 
L 373.513846 53.895608 
L 374.599647 53.568 
L 375.685448 54.259616 
L 376.77125 54.368819 
L 377.857051 55.169637 
L 378.942852 54.405219 
L 381.114454 54.186814 
L 382.200255 54.587224 
L 384.371858 54.769228 
L 385.457659 55.642848 
L 386.54346 54.296017 
L 387.629261 54.114013 
L 388.715062 55.679249 
L 389.800863 54.623624 
L 390.886665 54.478021 
L 391.972466 55.497245 
L 393.058267 54.44162 
L 394.144068 55.424443 
L 395.229869 54.223215 
L 396.31567 54.550823 
L 397.401472 54.077612 
L 398.487273 55.31524 
L 398.487273 55.31524 
" clip-path="url(#pb8cd11212c)" style="fill: none; stroke: #d62728; stroke-width: 1.5; stroke-linecap: square"/>
   </g>
   <g id="line2d_22">
    <path d="M 368.08484 84.861428 
L 369.170642 83.982787 
L 370.256443 81.723424 
L 371.342244 84.233827 
L 372.428045 84.610388 
L 373.513846 82.978626 
L 374.599647 83.731747 
L 375.685448 84.735908 
L 376.77125 83.229666 
L 377.857051 82.853105 
L 378.942852 84.610388 
L 380.028653 83.355186 
L 381.114454 83.104146 
L 382.200255 82.476545 
L 383.286057 83.355186 
L 384.371858 82.978626 
L 385.457659 85.237988 
L 386.54346 81.723424 
L 387.629261 81.472384 
L 388.715062 83.982787 
L 390.886665 82.099985 
L 391.972466 84.359347 
L 393.058267 82.602065 
L 394.144068 84.484867 
L 395.229869 82.476545 
L 397.401472 84.108307 
L 398.487273 83.480706 
L 398.487273 83.480706 
" clip-path="url(#pb8cd11212c)" style="fill: none; stroke: #9467bd; stroke-width: 1.5; stroke-linecap: square"/>
   </g>
   <g id="patch_3">
    <path d="M 57.6 307.584 
L 57.6 41.472 
" style="fill: none; stroke: #000000; stroke-width: 0.8; stroke-linejoin: miter; stroke-linecap: square"/>
   </g>
   <g id="patch_4">
    <path d="M 414.72 307.584 
L 414.72 41.472 
" style="fill: none; stroke: #000000; stroke-width: 0.8; stroke-linejoin: miter; stroke-linecap: square"/>
   </g>
   <g id="patch_5">
    <path d="M 57.6 307.584 
L 414.72 307.584 
" style="fill: none; stroke: #000000; stroke-width: 0.8; stroke-linejoin: miter; stroke-linecap: square"/>
   </g>
   <g id="patch_6">
    <path d="M 57.6 41.472 
L 414.72 41.472 
" style="fill: none; stroke: #000000; stroke-width: 0.8; stroke-linejoin: miter; stroke-linecap: square"/>
   </g>
   <g id="text_20">
    <!-- Learning Curves -->
    <g transform="translate(187.37625 35.472) scale(0.12 -0.12)">
     <defs>
      <path id="DejaVuSans-4c" d="M 628 4666 
L 1259 4666 
L 1259 531 
L 3531 531 
L 3531 0 
L 628 0 
L 628 4666 
z
" transform="scale(0.015625)"/>
      <path id="DejaVuSans-65" d="M 3597 1894 
L 3597 1613 
L 953 1613 
Q 991 1019 1311 708 
Q 1631 397 2203 397 
Q 2534 397 2845 478 
Q 3156 559 3463 722 
L 3463 178 
Q 3153 47 2828 -22 
Q 2503 -91 2169 -91 
Q 1331 -91 842 396 
Q 353 884 353 1716 
Q 353 2575 817 3079 
Q 1281 3584 2069 3584 
Q 2775 3584 3186 3129 
Q 3597 2675 3597 1894 
z
M 3022 2063 
Q 3016 2534 2758 2815 
Q 2500 3097 2075 3097 
Q 1594 3097 1305 2825 
Q 1016 2553 972 2059 
L 3022 2063 
z
" transform="scale(0.015625)"/>
      <path id="DejaVuSans-6e" d="M 3513 2113 
L 3513 0 
L 2938 0 
L 2938 2094 
Q 2938 2591 2744 2837 
Q 2550 3084 2163 3084 
Q 1697 3084 1428 2787 
Q 1159 2491 1159 1978 
L 1159 0 
L 581 0 
L 581 3500 
L 1159 3500 
L 1159 2956 
Q 1366 3272 1645 3428 
Q 1925 3584 2291 3584 
Q 2894 3584 3203 3211 
Q 3513 2838 3513 2113 
z
" transform="scale(0.015625)"/>
      <path id="DejaVuSans-69" d="M 603 3500 
L 1178 3500 
L 1178 0 
L 603 0 
L 603 3500 
z
M 603 4863 
L 1178 4863 
L 1178 4134 
L 603 4134 
L 603 4863 
z
" transform="scale(0.015625)"/>
      <path id="DejaVuSans-67" d="M 2906 1791 
Q 2906 2416 2648 2759 
Q 2391 3103 1925 3103 
Q 1463 3103 1205 2759 
Q 947 2416 947 1791 
Q 947 1169 1205 825 
Q 1463 481 1925 481 
Q 2391 481 2648 825 
Q 2906 1169 2906 1791 
z
M 3481 434 
Q 3481 -459 3084 -895 
Q 2688 -1331 1869 -1331 
Q 1566 -1331 1297 -1286 
Q 1028 -1241 775 -1147 
L 775 -588 
Q 1028 -725 1275 -790 
Q 1522 -856 1778 -856 
Q 2344 -856 2625 -561 
Q 2906 -266 2906 331 
L 2906 616 
Q 2728 306 2450 153 
Q 2172 0 1784 0 
Q 1141 0 747 490 
Q 353 981 353 1791 
Q 353 2603 747 3093 
Q 1141 3584 1784 3584 
Q 2172 3584 2450 3431 
Q 2728 3278 2906 2969 
L 2906 3500 
L 3481 3500 
L 3481 434 
z
" transform="scale(0.015625)"/>
      <path id="DejaVuSans-20" transform="scale(0.015625)"/>
      <path id="DejaVuSans-43" d="M 4122 4306 
L 4122 3641 
Q 3803 3938 3442 4084 
Q 3081 4231 2675 4231 
Q 1875 4231 1450 3742 
Q 1025 3253 1025 2328 
Q 1025 1406 1450 917 
Q 1875 428 2675 428 
Q 3081 428 3442 575 
Q 3803 722 4122 1019 
L 4122 359 
Q 3791 134 3420 21 
Q 3050 -91 2638 -91 
Q 1578 -91 968 557 
Q 359 1206 359 2328 
Q 359 3453 968 4101 
Q 1578 4750 2638 4750 
Q 3056 4750 3426 4639 
Q 3797 4528 4122 4306 
z
" transform="scale(0.015625)"/>
      <path id="DejaVuSans-76" d="M 191 3500 
L 800 3500 
L 1894 563 
L 2988 3500 
L 3597 3500 
L 2284 0 
L 1503 0 
L 191 3500 
z
" transform="scale(0.015625)"/>
     </defs>
     <use xlink:href="#DejaVuSans-4c"/>
     <use xlink:href="#DejaVuSans-65" x="53.962891"/>
     <use xlink:href="#DejaVuSans-61" x="115.486328"/>
     <use xlink:href="#DejaVuSans-72" x="176.765625"/>
     <use xlink:href="#DejaVuSans-6e" x="216.128906"/>
     <use xlink:href="#DejaVuSans-69" x="279.507812"/>
     <use xlink:href="#DejaVuSans-6e" x="307.291016"/>
     <use xlink:href="#DejaVuSans-67" x="370.669922"/>
     <use xlink:href="#DejaVuSans-20" x="434.146484"/>
     <use xlink:href="#DejaVuSans-43" x="465.933594"/>
     <use xlink:href="#DejaVuSans-75" x="535.757812"/>
     <use xlink:href="#DejaVuSans-72" x="599.136719"/>
     <use xlink:href="#DejaVuSans-76" x="640.25"/>
     <use xlink:href="#DejaVuSans-65" x="699.429688"/>
     <use xlink:href="#DejaVuSans-73" x="760.953125"/>
    </g>
   </g>
   <g id="legend_1">
    <g id="patch_7">
     <path d="M 214.18875 302.584 
L 407.72 302.584 
Q 409.72 302.584 409.72 300.584 
L 409.72 228.193375 
Q 409.72 226.193375 407.72 226.193375 
L 214.18875 226.193375 
Q 212.18875 226.193375 212.18875 228.193375 
L 212.18875 300.584 
Q 212.18875 302.584 214.18875 302.584 
z
" style="fill: #ffffff; opacity: 0.8; stroke: #cccccc; stroke-linejoin: miter"/>
    </g>
    <g id="line2d_23">
     <path d="M 216.18875 234.291812 
L 226.18875 234.291812 
L 236.18875 234.291812 
" style="fill: none; stroke: #1f77b4; stroke-width: 1.5; stroke-linecap: square"/>
    </g>
    <g id="text_21">
     <!-- Train Accuracy -->
     <g transform="translate(244.18875 237.791812) scale(0.1 -0.1)">
      <defs>
       <path id="DejaVuSans-54" d="M -19 4666 
L 3928 4666 
L 3928 4134 
L 2272 4134 
L 2272 0 
L 1638 0 
L 1638 4134 
L -19 4134 
L -19 4666 
z
" transform="scale(0.015625)"/>
      </defs>
      <use xlink:href="#DejaVuSans-54"/>
      <use xlink:href="#DejaVuSans-72" x="46.333984"/>
      <use xlink:href="#DejaVuSans-61" x="87.447266"/>
      <use xlink:href="#DejaVuSans-69" x="148.726562"/>
      <use xlink:href="#DejaVuSans-6e" x="176.509766"/>
      <use xlink:href="#DejaVuSans-20" x="239.888672"/>
      <use xlink:href="#DejaVuSans-41" x="271.675781"/>
      <use xlink:href="#DejaVuSans-63" x="338.333984"/>
      <use xlink:href="#DejaVuSans-63" x="393.314453"/>
      <use xlink:href="#DejaVuSans-75" x="448.294922"/>
      <use xlink:href="#DejaVuSans-72" x="511.673828"/>
      <use xlink:href="#DejaVuSans-61" x="552.787109"/>
      <use xlink:href="#DejaVuSans-63" x="614.066406"/>
      <use xlink:href="#DejaVuSans-79" x="669.046875"/>
     </g>
    </g>
    <g id="line2d_24">
     <path d="M 216.18875 248.969937 
L 226.18875 248.969937 
L 236.18875 248.969937 
" style="fill: none; stroke: #ff7f0e; stroke-width: 1.5; stroke-linecap: square"/>
    </g>
    <g id="text_22">
     <!-- Validation Accuracy -->
     <g transform="translate(244.18875 252.469937) scale(0.1 -0.1)">
      <defs>
       <path id="DejaVuSans-56" d="M 1831 0 
L 50 4666 
L 709 4666 
L 2188 738 
L 3669 4666 
L 4325 4666 
L 2547 0 
L 1831 0 
z
" transform="scale(0.015625)"/>
       <path id="DejaVuSans-6c" d="M 603 4863 
L 1178 4863 
L 1178 0 
L 603 0 
L 603 4863 
z
" transform="scale(0.015625)"/>
       <path id="DejaVuSans-64" d="M 2906 2969 
L 2906 4863 
L 3481 4863 
L 3481 0 
L 2906 0 
L 2906 525 
Q 2725 213 2448 61 
Q 2172 -91 1784 -91 
Q 1150 -91 751 415 
Q 353 922 353 1747 
Q 353 2572 751 3078 
Q 1150 3584 1784 3584 
Q 2172 3584 2448 3432 
Q 2725 3281 2906 2969 
z
M 947 1747 
Q 947 1113 1208 752 
Q 1469 391 1925 391 
Q 2381 391 2643 752 
Q 2906 1113 2906 1747 
Q 2906 2381 2643 2742 
Q 2381 3103 1925 3103 
Q 1469 3103 1208 2742 
Q 947 2381 947 1747 
z
" transform="scale(0.015625)"/>
       <path id="DejaVuSans-74" d="M 1172 4494 
L 1172 3500 
L 2356 3500 
L 2356 3053 
L 1172 3053 
L 1172 1153 
Q 1172 725 1289 603 
Q 1406 481 1766 481 
L 2356 481 
L 2356 0 
L 1766 0 
Q 1100 0 847 248 
Q 594 497 594 1153 
L 594 3053 
L 172 3053 
L 172 3500 
L 594 3500 
L 594 4494 
L 1172 4494 
z
" transform="scale(0.015625)"/>
      </defs>
      <use xlink:href="#DejaVuSans-56"/>
      <use xlink:href="#DejaVuSans-61" x="60.658203"/>
      <use xlink:href="#DejaVuSans-6c" x="121.9375"/>
      <use xlink:href="#DejaVuSans-69" x="149.720703"/>
      <use xlink:href="#DejaVuSans-64" x="177.503906"/>
      <use xlink:href="#DejaVuSans-61" x="240.980469"/>
      <use xlink:href="#DejaVuSans-74" x="302.259766"/>
      <use xlink:href="#DejaVuSans-69" x="341.46875"/>
      <use xlink:href="#DejaVuSans-6f" x="369.251953"/>
      <use xlink:href="#DejaVuSans-6e" x="430.433594"/>
      <use xlink:href="#DejaVuSans-20" x="493.8125"/>
      <use xlink:href="#DejaVuSans-41" x="525.599609"/>
      <use xlink:href="#DejaVuSans-63" x="592.257812"/>
      <use xlink:href="#DejaVuSans-63" x="647.238281"/>
      <use xlink:href="#DejaVuSans-75" x="702.21875"/>
      <use xlink:href="#DejaVuSans-72" x="765.597656"/>
      <use xlink:href="#DejaVuSans-61" x="806.710938"/>
      <use xlink:href="#DejaVuSans-63" x="867.990234"/>
      <use xlink:href="#DejaVuSans-79" x="922.970703"/>
     </g>
    </g>
    <g id="line2d_25">
     <path d="M 216.18875 263.648062 
L 226.18875 263.648062 
L 236.18875 263.648062 
" style="fill: none; stroke: #2ca02c; stroke-width: 1.5; stroke-linecap: square"/>
    </g>
    <g id="text_23">
     <!-- Robust Validation Accuracy -->
     <g transform="translate(244.18875 267.148062) scale(0.1 -0.1)">
      <defs>
       <path id="DejaVuSans-52" d="M 2841 2188 
Q 3044 2119 3236 1894 
Q 3428 1669 3622 1275 
L 4263 0 
L 3584 0 
L 2988 1197 
Q 2756 1666 2539 1819 
Q 2322 1972 1947 1972 
L 1259 1972 
L 1259 0 
L 628 0 
L 628 4666 
L 2053 4666 
Q 2853 4666 3247 4331 
Q 3641 3997 3641 3322 
Q 3641 2881 3436 2590 
Q 3231 2300 2841 2188 
z
M 1259 4147 
L 1259 2491 
L 2053 2491 
Q 2509 2491 2742 2702 
Q 2975 2913 2975 3322 
Q 2975 3731 2742 3939 
Q 2509 4147 2053 4147 
L 1259 4147 
z
" transform="scale(0.015625)"/>
       <path id="DejaVuSans-62" d="M 3116 1747 
Q 3116 2381 2855 2742 
Q 2594 3103 2138 3103 
Q 1681 3103 1420 2742 
Q 1159 2381 1159 1747 
Q 1159 1113 1420 752 
Q 1681 391 2138 391 
Q 2594 391 2855 752 
Q 3116 1113 3116 1747 
z
M 1159 2969 
Q 1341 3281 1617 3432 
Q 1894 3584 2278 3584 
Q 2916 3584 3314 3078 
Q 3713 2572 3713 1747 
Q 3713 922 3314 415 
Q 2916 -91 2278 -91 
Q 1894 -91 1617 61 
Q 1341 213 1159 525 
L 1159 0 
L 581 0 
L 581 4863 
L 1159 4863 
L 1159 2969 
z
" transform="scale(0.015625)"/>
      </defs>
      <use xlink:href="#DejaVuSans-52"/>
      <use xlink:href="#DejaVuSans-6f" x="64.982422"/>
      <use xlink:href="#DejaVuSans-62" x="126.164062"/>
      <use xlink:href="#DejaVuSans-75" x="189.640625"/>
      <use xlink:href="#DejaVuSans-73" x="253.019531"/>
      <use xlink:href="#DejaVuSans-74" x="305.119141"/>
      <use xlink:href="#DejaVuSans-20" x="344.328125"/>
      <use xlink:href="#DejaVuSans-56" x="376.115234"/>
      <use xlink:href="#DejaVuSans-61" x="436.773438"/>
      <use xlink:href="#DejaVuSans-6c" x="498.052734"/>
      <use xlink:href="#DejaVuSans-69" x="525.835938"/>
      <use xlink:href="#DejaVuSans-64" x="553.619141"/>
      <use xlink:href="#DejaVuSans-61" x="617.095703"/>
      <use xlink:href="#DejaVuSans-74" x="678.375"/>
      <use xlink:href="#DejaVuSans-69" x="717.583984"/>
      <use xlink:href="#DejaVuSans-6f" x="745.367188"/>
      <use xlink:href="#DejaVuSans-6e" x="806.548828"/>
      <use xlink:href="#DejaVuSans-20" x="869.927734"/>
      <use xlink:href="#DejaVuSans-41" x="901.714844"/>
      <use xlink:href="#DejaVuSans-63" x="968.373047"/>
      <use xlink:href="#DejaVuSans-63" x="1023.353516"/>
      <use xlink:href="#DejaVuSans-75" x="1078.333984"/>
      <use xlink:href="#DejaVuSans-72" x="1141.712891"/>
      <use xlink:href="#DejaVuSans-61" x="1182.826172"/>
      <use xlink:href="#DejaVuSans-63" x="1244.105469"/>
      <use xlink:href="#DejaVuSans-79" x="1299.085938"/>
     </g>
    </g>
    <g id="line2d_26">
     <path d="M 216.18875 278.326188 
L 226.18875 278.326188 
L 236.18875 278.326188 
" style="fill: none; stroke: #d62728; stroke-width: 1.5; stroke-linecap: square"/>
    </g>
    <g id="text_24">
     <!-- SWA Validation Accuracy -->
     <g transform="translate(244.18875 281.826188) scale(0.1 -0.1)">
      <defs>
       <path id="DejaVuSans-53" d="M 3425 4513 
L 3425 3897 
Q 3066 4069 2747 4153 
Q 2428 4238 2131 4238 
Q 1616 4238 1336 4038 
Q 1056 3838 1056 3469 
Q 1056 3159 1242 3001 
Q 1428 2844 1947 2747 
L 2328 2669 
Q 3034 2534 3370 2195 
Q 3706 1856 3706 1288 
Q 3706 609 3251 259 
Q 2797 -91 1919 -91 
Q 1588 -91 1214 -16 
Q 841 59 441 206 
L 441 856 
Q 825 641 1194 531 
Q 1563 422 1919 422 
Q 2459 422 2753 634 
Q 3047 847 3047 1241 
Q 3047 1584 2836 1778 
Q 2625 1972 2144 2069 
L 1759 2144 
Q 1053 2284 737 2584 
Q 422 2884 422 3419 
Q 422 4038 858 4394 
Q 1294 4750 2059 4750 
Q 2388 4750 2728 4690 
Q 3069 4631 3425 4513 
z
" transform="scale(0.015625)"/>
       <path id="DejaVuSans-57" d="M 213 4666 
L 850 4666 
L 1831 722 
L 2809 4666 
L 3519 4666 
L 4500 722 
L 5478 4666 
L 6119 4666 
L 4947 0 
L 4153 0 
L 3169 4050 
L 2175 0 
L 1381 0 
L 213 4666 
z
" transform="scale(0.015625)"/>
      </defs>
      <use xlink:href="#DejaVuSans-53"/>
      <use xlink:href="#DejaVuSans-57" x="63.476562"/>
      <use xlink:href="#DejaVuSans-41" x="156.853516"/>
      <use xlink:href="#DejaVuSans-20" x="225.261719"/>
      <use xlink:href="#DejaVuSans-56" x="257.048828"/>
      <use xlink:href="#DejaVuSans-61" x="317.707031"/>
      <use xlink:href="#DejaVuSans-6c" x="378.986328"/>
      <use xlink:href="#DejaVuSans-69" x="406.769531"/>
      <use xlink:href="#DejaVuSans-64" x="434.552734"/>
      <use xlink:href="#DejaVuSans-61" x="498.029297"/>
      <use xlink:href="#DejaVuSans-74" x="559.308594"/>
      <use xlink:href="#DejaVuSans-69" x="598.517578"/>
      <use xlink:href="#DejaVuSans-6f" x="626.300781"/>
      <use xlink:href="#DejaVuSans-6e" x="687.482422"/>
      <use xlink:href="#DejaVuSans-20" x="750.861328"/>
      <use xlink:href="#DejaVuSans-41" x="782.648438"/>
      <use xlink:href="#DejaVuSans-63" x="849.306641"/>
      <use xlink:href="#DejaVuSans-63" x="904.287109"/>
      <use xlink:href="#DejaVuSans-75" x="959.267578"/>
      <use xlink:href="#DejaVuSans-72" x="1022.646484"/>
      <use xlink:href="#DejaVuSans-61" x="1063.759766"/>
      <use xlink:href="#DejaVuSans-63" x="1125.039062"/>
      <use xlink:href="#DejaVuSans-79" x="1180.019531"/>
     </g>
    </g>
    <g id="line2d_27">
     <path d="M 216.18875 293.004312 
L 226.18875 293.004312 
L 236.18875 293.004312 
" style="fill: none; stroke: #9467bd; stroke-width: 1.5; stroke-linecap: square"/>
    </g>
    <g id="text_25">
     <!-- SWA Robust Validation Accuracy -->
     <g transform="translate(244.18875 296.504312) scale(0.1 -0.1)">
      <use xlink:href="#DejaVuSans-53"/>
      <use xlink:href="#DejaVuSans-57" x="63.476562"/>
      <use xlink:href="#DejaVuSans-41" x="156.853516"/>
      <use xlink:href="#DejaVuSans-20" x="225.261719"/>
      <use xlink:href="#DejaVuSans-52" x="257.048828"/>
      <use xlink:href="#DejaVuSans-6f" x="322.03125"/>
      <use xlink:href="#DejaVuSans-62" x="383.212891"/>
      <use xlink:href="#DejaVuSans-75" x="446.689453"/>
      <use xlink:href="#DejaVuSans-73" x="510.068359"/>
      <use xlink:href="#DejaVuSans-74" x="562.167969"/>
      <use xlink:href="#DejaVuSans-20" x="601.376953"/>
      <use xlink:href="#DejaVuSans-56" x="633.164062"/>
      <use xlink:href="#DejaVuSans-61" x="693.822266"/>
      <use xlink:href="#DejaVuSans-6c" x="755.101562"/>
      <use xlink:href="#DejaVuSans-69" x="782.884766"/>
      <use xlink:href="#DejaVuSans-64" x="810.667969"/>
      <use xlink:href="#DejaVuSans-61" x="874.144531"/>
      <use xlink:href="#DejaVuSans-74" x="935.423828"/>
      <use xlink:href="#DejaVuSans-69" x="974.632812"/>
      <use xlink:href="#DejaVuSans-6f" x="1002.416016"/>
      <use xlink:href="#DejaVuSans-6e" x="1063.597656"/>
      <use xlink:href="#DejaVuSans-20" x="1126.976562"/>
      <use xlink:href="#DejaVuSans-41" x="1158.763672"/>
      <use xlink:href="#DejaVuSans-63" x="1225.421875"/>
      <use xlink:href="#DejaVuSans-63" x="1280.402344"/>
      <use xlink:href="#DejaVuSans-75" x="1335.382812"/>
      <use xlink:href="#DejaVuSans-72" x="1398.761719"/>
      <use xlink:href="#DejaVuSans-61" x="1439.875"/>
      <use xlink:href="#DejaVuSans-63" x="1501.154297"/>
      <use xlink:href="#DejaVuSans-79" x="1556.134766"/>
     </g>
    </g>
   </g>
  </g>
 </g>
 <defs>
  <clipPath id="pb8cd11212c">
   <rect x="57.6" y="41.472" width="357.12" height="266.112"/>
  </clipPath>
 </defs>
</svg>
