<?xml version="1.0" encoding="utf-8" standalone="no"?>
<!DOCTYPE svg PUBLIC "-//W3C//DTD SVG 1.1//EN"
  "http://www.w3.org/Graphics/SVG/1.1/DTD/svg11.dtd">
<svg xmlns:xlink="http://www.w3.org/1999/xlink" width="460.8pt" height="345.6pt" viewBox="0 0 460.8 345.6" xmlns="http://www.w3.org/2000/svg" version="1.1">
 <metadata>
  <rdf:RDF xmlns:dc="http://purl.org/dc/elements/1.1/" xmlns:cc="http://creativecommons.org/ns#" xmlns:rdf="http://www.w3.org/1999/02/22-rdf-syntax-ns#">
   <cc:Work>
    <dc:type rdf:resource="http://purl.org/dc/dcmitype/StillImage"/>
    <dc:date>2025-07-21T16:48:20.450382</dc:date>
    <dc:format>image/svg+xml</dc:format>
    <dc:creator>
     <cc:Agent>
      <dc:title>Matplotlib v3.9.1, https://matplotlib.org/</dc:title>
     </cc:Agent>
    </dc:creator>
   </cc:Work>
  </rdf:RDF>
 </metadata>
 <defs>
  <style type="text/css">*{stroke-linejoin: round; stroke-linecap: butt}</style>
 </defs>
 <g id="figure_1">
  <g id="patch_1">
   <path d="M 0 345.6 
L 460.8 345.6 
L 460.8 0 
L 0 0 
z
" style="fill: #ffffff"/>
  </g>
  <g id="axes_1">
   <g id="patch_2">
    <path d="M 57.6 307.584 
L 414.72 307.584 
L 414.72 41.472 
L 57.6 41.472 
z
" style="fill: #ffffff"/>
   </g>
   <g id="matplotlib.axis_1">
    <g id="xtick_1">
     <g id="line2d_1">
      <defs>
       <path id="m877629854f" d="M 0 0 
L 0 3.5 
" style="stroke: #000000; stroke-width: 0.8"/>
      </defs>
      <g>
       <use xlink:href="#m877629854f" x="73.832727" y="307.584" style="stroke: #000000; stroke-width: 0.8"/>
      </g>
     </g>
     <g id="text_1">
      <!-- 1 -->
      <g transform="translate(70.651477 322.182437) scale(0.1 -0.1)">
       <defs>
        <path id="DejaVuSans-31" d="M 794 531 
L 1825 531 
L 1825 4091 
L 703 3866 
L 703 4441 
L 1819 4666 
L 2450 4666 
L 2450 531 
L 3481 531 
L 3481 0 
L 794 0 
L 794 531 
z
" transform="scale(0.015625)"/>
       </defs>
       <use xlink:href="#DejaVuSans-31"/>
      </g>
     </g>
    </g>
    <g id="xtick_2">
     <g id="line2d_2">
      <g>
       <use xlink:href="#m877629854f" x="109.640214" y="307.584" style="stroke: #000000; stroke-width: 0.8"/>
      </g>
     </g>
     <g id="text_2">
      <!-- 61 -->
      <g transform="translate(103.277714 322.182437) scale(0.1 -0.1)">
       <defs>
        <path id="DejaVuSans-36" d="M 2113 2584 
Q 1688 2584 1439 2293 
Q 1191 2003 1191 1497 
Q 1191 994 1439 701 
Q 1688 409 2113 409 
Q 2538 409 2786 701 
Q 3034 994 3034 1497 
Q 3034 2003 2786 2293 
Q 2538 2584 2113 2584 
z
M 3366 4563 
L 3366 3988 
Q 3128 4100 2886 4159 
Q 2644 4219 2406 4219 
Q 1781 4219 1451 3797 
Q 1122 3375 1075 2522 
Q 1259 2794 1537 2939 
Q 1816 3084 2150 3084 
Q 2853 3084 3261 2657 
Q 3669 2231 3669 1497 
Q 3669 778 3244 343 
Q 2819 -91 2113 -91 
Q 1303 -91 875 529 
Q 447 1150 447 2328 
Q 447 3434 972 4092 
Q 1497 4750 2381 4750 
Q 2619 4750 2861 4703 
Q 3103 4656 3366 4563 
z
" transform="scale(0.015625)"/>
       </defs>
       <use xlink:href="#DejaVuSans-36"/>
       <use xlink:href="#DejaVuSans-31" x="63.623047"/>
      </g>
     </g>
    </g>
    <g id="xtick_3">
     <g id="line2d_3">
      <g>
       <use xlink:href="#m877629854f" x="145.447701" y="307.584" style="stroke: #000000; stroke-width: 0.8"/>
      </g>
     </g>
     <g id="text_3">
      <!-- 121 -->
      <g transform="translate(135.903951 322.182437) scale(0.1 -0.1)">
       <defs>
        <path id="DejaVuSans-32" d="M 1228 531 
L 3431 531 
L 3431 0 
L 469 0 
L 469 531 
Q 828 903 1448 1529 
Q 2069 2156 2228 2338 
Q 2531 2678 2651 2914 
Q 2772 3150 2772 3378 
Q 2772 3750 2511 3984 
Q 2250 4219 1831 4219 
Q 1534 4219 1204 4116 
Q 875 4013 500 3803 
L 500 4441 
Q 881 4594 1212 4672 
Q 1544 4750 1819 4750 
Q 2544 4750 2975 4387 
Q 3406 4025 3406 3419 
Q 3406 3131 3298 2873 
Q 3191 2616 2906 2266 
Q 2828 2175 2409 1742 
Q 1991 1309 1228 531 
z
" transform="scale(0.015625)"/>
       </defs>
       <use xlink:href="#DejaVuSans-31"/>
       <use xlink:href="#DejaVuSans-32" x="63.623047"/>
       <use xlink:href="#DejaVuSans-31" x="127.246094"/>
      </g>
     </g>
    </g>
    <g id="xtick_4">
     <g id="line2d_4">
      <g>
       <use xlink:href="#m877629854f" x="181.851979" y="307.584" style="stroke: #000000; stroke-width: 0.8"/>
      </g>
     </g>
     <g id="text_4">
      <!-- 182 -->
      <g transform="translate(172.308229 322.182437) scale(0.1 -0.1)">
       <defs>
        <path id="DejaVuSans-38" d="M 2034 2216 
Q 1584 2216 1326 1975 
Q 1069 1734 1069 1313 
Q 1069 891 1326 650 
Q 1584 409 2034 409 
Q 2484 409 2743 651 
Q 3003 894 3003 1313 
Q 3003 1734 2745 1975 
Q 2488 2216 2034 2216 
z
M 1403 2484 
Q 997 2584 770 2862 
Q 544 3141 544 3541 
Q 544 4100 942 4425 
Q 1341 4750 2034 4750 
Q 2731 4750 3128 4425 
Q 3525 4100 3525 3541 
Q 3525 3141 3298 2862 
Q 3072 2584 2669 2484 
Q 3125 2378 3379 2068 
Q 3634 1759 3634 1313 
Q 3634 634 3220 271 
Q 2806 -91 2034 -91 
Q 1263 -91 848 271 
Q 434 634 434 1313 
Q 434 1759 690 2068 
Q 947 2378 1403 2484 
z
M 1172 3481 
Q 1172 3119 1398 2916 
Q 1625 2713 2034 2713 
Q 2441 2713 2670 2916 
Q 2900 3119 2900 3481 
Q 2900 3844 2670 4047 
Q 2441 4250 2034 4250 
Q 1625 4250 1398 4047 
Q 1172 3844 1172 3481 
z
" transform="scale(0.015625)"/>
       </defs>
       <use xlink:href="#DejaVuSans-31"/>
       <use xlink:href="#DejaVuSans-38" x="63.623047"/>
       <use xlink:href="#DejaVuSans-32" x="127.246094"/>
      </g>
     </g>
    </g>
    <g id="xtick_5">
     <g id="line2d_5">
      <g>
       <use xlink:href="#m877629854f" x="217.659465" y="307.584" style="stroke: #000000; stroke-width: 0.8"/>
      </g>
     </g>
     <g id="text_5">
      <!-- 242 -->
      <g transform="translate(208.115715 322.182437) scale(0.1 -0.1)">
       <defs>
        <path id="DejaVuSans-34" d="M 2419 4116 
L 825 1625 
L 2419 1625 
L 2419 4116 
z
M 2253 4666 
L 3047 4666 
L 3047 1625 
L 3713 1625 
L 3713 1100 
L 3047 1100 
L 3047 0 
L 2419 0 
L 2419 1100 
L 313 1100 
L 313 1709 
L 2253 4666 
z
" transform="scale(0.015625)"/>
       </defs>
       <use xlink:href="#DejaVuSans-32"/>
       <use xlink:href="#DejaVuSans-34" x="63.623047"/>
       <use xlink:href="#DejaVuSans-32" x="127.246094"/>
      </g>
     </g>
    </g>
    <g id="xtick_6">
     <g id="line2d_6">
      <g>
       <use xlink:href="#m877629854f" x="254.063743" y="307.584" style="stroke: #000000; stroke-width: 0.8"/>
      </g>
     </g>
     <g id="text_6">
      <!-- 303 -->
      <g transform="translate(244.519993 322.182437) scale(0.1 -0.1)">
       <defs>
        <path id="DejaVuSans-33" d="M 2597 2516 
Q 3050 2419 3304 2112 
Q 3559 1806 3559 1356 
Q 3559 666 3084 287 
Q 2609 -91 1734 -91 
Q 1441 -91 1130 -33 
Q 819 25 488 141 
L 488 750 
Q 750 597 1062 519 
Q 1375 441 1716 441 
Q 2309 441 2620 675 
Q 2931 909 2931 1356 
Q 2931 1769 2642 2001 
Q 2353 2234 1838 2234 
L 1294 2234 
L 1294 2753 
L 1863 2753 
Q 2328 2753 2575 2939 
Q 2822 3125 2822 3475 
Q 2822 3834 2567 4026 
Q 2313 4219 1838 4219 
Q 1578 4219 1281 4162 
Q 984 4106 628 3988 
L 628 4550 
Q 988 4650 1302 4700 
Q 1616 4750 1894 4750 
Q 2613 4750 3031 4423 
Q 3450 4097 3450 3541 
Q 3450 3153 3228 2886 
Q 3006 2619 2597 2516 
z
" transform="scale(0.015625)"/>
        <path id="DejaVuSans-30" d="M 2034 4250 
Q 1547 4250 1301 3770 
Q 1056 3291 1056 2328 
Q 1056 1369 1301 889 
Q 1547 409 2034 409 
Q 2525 409 2770 889 
Q 3016 1369 3016 2328 
Q 3016 3291 2770 3770 
Q 2525 4250 2034 4250 
z
M 2034 4750 
Q 2819 4750 3233 4129 
Q 3647 3509 3647 2328 
Q 3647 1150 3233 529 
Q 2819 -91 2034 -91 
Q 1250 -91 836 529 
Q 422 1150 422 2328 
Q 422 3509 836 4129 
Q 1250 4750 2034 4750 
z
" transform="scale(0.015625)"/>
       </defs>
       <use xlink:href="#DejaVuSans-33"/>
       <use xlink:href="#DejaVuSans-30" x="63.623047"/>
       <use xlink:href="#DejaVuSans-33" x="127.246094"/>
      </g>
     </g>
    </g>
    <g id="xtick_7">
     <g id="line2d_7">
      <g>
       <use xlink:href="#m877629854f" x="289.87123" y="307.584" style="stroke: #000000; stroke-width: 0.8"/>
      </g>
     </g>
     <g id="text_7">
      <!-- 363 -->
      <g transform="translate(280.32748 322.182437) scale(0.1 -0.1)">
       <use xlink:href="#DejaVuSans-33"/>
       <use xlink:href="#DejaVuSans-36" x="63.623047"/>
       <use xlink:href="#DejaVuSans-33" x="127.246094"/>
      </g>
     </g>
    </g>
    <g id="xtick_8">
     <g id="line2d_8">
      <g>
       <use xlink:href="#m877629854f" x="326.275508" y="307.584" style="stroke: #000000; stroke-width: 0.8"/>
      </g>
     </g>
     <g id="text_8">
      <!-- 424 -->
      <g transform="translate(316.731758 322.182437) scale(0.1 -0.1)">
       <use xlink:href="#DejaVuSans-34"/>
       <use xlink:href="#DejaVuSans-32" x="63.623047"/>
       <use xlink:href="#DejaVuSans-34" x="127.246094"/>
      </g>
     </g>
    </g>
    <g id="xtick_9">
     <g id="line2d_9">
      <g>
       <use xlink:href="#m877629854f" x="362.082995" y="307.584" style="stroke: #000000; stroke-width: 0.8"/>
      </g>
     </g>
     <g id="text_9">
      <!-- 484 -->
      <g transform="translate(352.539245 322.182437) scale(0.1 -0.1)">
       <use xlink:href="#DejaVuSans-34"/>
       <use xlink:href="#DejaVuSans-38" x="63.623047"/>
       <use xlink:href="#DejaVuSans-34" x="127.246094"/>
      </g>
     </g>
    </g>
    <g id="xtick_10">
     <g id="line2d_10">
      <g>
       <use xlink:href="#m877629854f" x="398.487273" y="307.584" style="stroke: #000000; stroke-width: 0.8"/>
      </g>
     </g>
     <g id="text_10">
      <!-- 545 -->
      <g transform="translate(388.943523 322.182437) scale(0.1 -0.1)">
       <defs>
        <path id="DejaVuSans-35" d="M 691 4666 
L 3169 4666 
L 3169 4134 
L 1269 4134 
L 1269 2991 
Q 1406 3038 1543 3061 
Q 1681 3084 1819 3084 
Q 2600 3084 3056 2656 
Q 3513 2228 3513 1497 
Q 3513 744 3044 326 
Q 2575 -91 1722 -91 
Q 1428 -91 1123 -41 
Q 819 9 494 109 
L 494 744 
Q 775 591 1075 516 
Q 1375 441 1709 441 
Q 2250 441 2565 725 
Q 2881 1009 2881 1497 
Q 2881 1984 2565 2268 
Q 2250 2553 1709 2553 
Q 1456 2553 1204 2497 
Q 953 2441 691 2322 
L 691 4666 
z
" transform="scale(0.015625)"/>
       </defs>
       <use xlink:href="#DejaVuSans-35"/>
       <use xlink:href="#DejaVuSans-34" x="63.623047"/>
       <use xlink:href="#DejaVuSans-35" x="127.246094"/>
      </g>
     </g>
    </g>
    <g id="text_11">
     <!-- Epochs -->
     <g transform="translate(218.244375 335.860562) scale(0.1 -0.1)">
      <defs>
       <path id="DejaVuSans-45" d="M 628 4666 
L 3578 4666 
L 3578 4134 
L 1259 4134 
L 1259 2753 
L 3481 2753 
L 3481 2222 
L 1259 2222 
L 1259 531 
L 3634 531 
L 3634 0 
L 628 0 
L 628 4666 
z
" transform="scale(0.015625)"/>
       <path id="DejaVuSans-70" d="M 1159 525 
L 1159 -1331 
L 581 -1331 
L 581 3500 
L 1159 3500 
L 1159 2969 
Q 1341 3281 1617 3432 
Q 1894 3584 2278 3584 
Q 2916 3584 3314 3078 
Q 3713 2572 3713 1747 
Q 3713 922 3314 415 
Q 2916 -91 2278 -91 
Q 1894 -91 1617 61 
Q 1341 213 1159 525 
z
M 3116 1747 
Q 3116 2381 2855 2742 
Q 2594 3103 2138 3103 
Q 1681 3103 1420 2742 
Q 1159 2381 1159 1747 
Q 1159 1113 1420 752 
Q 1681 391 2138 391 
Q 2594 391 2855 752 
Q 3116 1113 3116 1747 
z
" transform="scale(0.015625)"/>
       <path id="DejaVuSans-6f" d="M 1959 3097 
Q 1497 3097 1228 2736 
Q 959 2375 959 1747 
Q 959 1119 1226 758 
Q 1494 397 1959 397 
Q 2419 397 2687 759 
Q 2956 1122 2956 1747 
Q 2956 2369 2687 2733 
Q 2419 3097 1959 3097 
z
M 1959 3584 
Q 2709 3584 3137 3096 
Q 3566 2609 3566 1747 
Q 3566 888 3137 398 
Q 2709 -91 1959 -91 
Q 1206 -91 779 398 
Q 353 888 353 1747 
Q 353 2609 779 3096 
Q 1206 3584 1959 3584 
z
" transform="scale(0.015625)"/>
       <path id="DejaVuSans-63" d="M 3122 3366 
L 3122 2828 
Q 2878 2963 2633 3030 
Q 2388 3097 2138 3097 
Q 1578 3097 1268 2742 
Q 959 2388 959 1747 
Q 959 1106 1268 751 
Q 1578 397 2138 397 
Q 2388 397 2633 464 
Q 2878 531 3122 666 
L 3122 134 
Q 2881 22 2623 -34 
Q 2366 -91 2075 -91 
Q 1284 -91 818 406 
Q 353 903 353 1747 
Q 353 2603 823 3093 
Q 1294 3584 2113 3584 
Q 2378 3584 2631 3529 
Q 2884 3475 3122 3366 
z
" transform="scale(0.015625)"/>
       <path id="DejaVuSans-68" d="M 3513 2113 
L 3513 0 
L 2938 0 
L 2938 2094 
Q 2938 2591 2744 2837 
Q 2550 3084 2163 3084 
Q 1697 3084 1428 2787 
Q 1159 2491 1159 1978 
L 1159 0 
L 581 0 
L 581 4863 
L 1159 4863 
L 1159 2956 
Q 1366 3272 1645 3428 
Q 1925 3584 2291 3584 
Q 2894 3584 3203 3211 
Q 3513 2838 3513 2113 
z
" transform="scale(0.015625)"/>
       <path id="DejaVuSans-73" d="M 2834 3397 
L 2834 2853 
Q 2591 2978 2328 3040 
Q 2066 3103 1784 3103 
Q 1356 3103 1142 2972 
Q 928 2841 928 2578 
Q 928 2378 1081 2264 
Q 1234 2150 1697 2047 
L 1894 2003 
Q 2506 1872 2764 1633 
Q 3022 1394 3022 966 
Q 3022 478 2636 193 
Q 2250 -91 1575 -91 
Q 1294 -91 989 -36 
Q 684 19 347 128 
L 347 722 
Q 666 556 975 473 
Q 1284 391 1588 391 
Q 1994 391 2212 530 
Q 2431 669 2431 922 
Q 2431 1156 2273 1281 
Q 2116 1406 1581 1522 
L 1381 1569 
Q 847 1681 609 1914 
Q 372 2147 372 2553 
Q 372 3047 722 3315 
Q 1072 3584 1716 3584 
Q 2034 3584 2315 3537 
Q 2597 3491 2834 3397 
z
" transform="scale(0.015625)"/>
      </defs>
      <use xlink:href="#DejaVuSans-45"/>
      <use xlink:href="#DejaVuSans-70" x="63.183594"/>
      <use xlink:href="#DejaVuSans-6f" x="126.660156"/>
      <use xlink:href="#DejaVuSans-63" x="187.841797"/>
      <use xlink:href="#DejaVuSans-68" x="242.822266"/>
      <use xlink:href="#DejaVuSans-73" x="306.201172"/>
     </g>
    </g>
   </g>
   <g id="matplotlib.axis_2">
    <g id="ytick_1">
     <g id="line2d_11">
      <defs>
       <path id="m59f961c71e" d="M 0 0 
L -3.5 0 
" style="stroke: #000000; stroke-width: 0.8"/>
      </defs>
      <g>
       <use xlink:href="#m59f961c71e" x="57.6" y="295.350232" style="stroke: #000000; stroke-width: 0.8"/>
      </g>
     </g>
     <g id="text_12">
      <!-- 30 -->
      <g transform="translate(37.875 299.149451) scale(0.1 -0.1)">
       <use xlink:href="#DejaVuSans-33"/>
       <use xlink:href="#DejaVuSans-30" x="63.623047"/>
      </g>
     </g>
    </g>
    <g id="ytick_2">
     <g id="line2d_12">
      <g>
       <use xlink:href="#m59f961c71e" x="57.6" y="259.095587" style="stroke: #000000; stroke-width: 0.8"/>
      </g>
     </g>
     <g id="text_13">
      <!-- 40 -->
      <g transform="translate(37.875 262.894805) scale(0.1 -0.1)">
       <use xlink:href="#DejaVuSans-34"/>
       <use xlink:href="#DejaVuSans-30" x="63.623047"/>
      </g>
     </g>
    </g>
    <g id="ytick_3">
     <g id="line2d_13">
      <g>
       <use xlink:href="#m59f961c71e" x="57.6" y="222.840941" style="stroke: #000000; stroke-width: 0.8"/>
      </g>
     </g>
     <g id="text_14">
      <!-- 50 -->
      <g transform="translate(37.875 226.64016) scale(0.1 -0.1)">
       <use xlink:href="#DejaVuSans-35"/>
       <use xlink:href="#DejaVuSans-30" x="63.623047"/>
      </g>
     </g>
    </g>
    <g id="ytick_4">
     <g id="line2d_14">
      <g>
       <use xlink:href="#m59f961c71e" x="57.6" y="186.586295" style="stroke: #000000; stroke-width: 0.8"/>
      </g>
     </g>
     <g id="text_15">
      <!-- 60 -->
      <g transform="translate(37.875 190.385514) scale(0.1 -0.1)">
       <use xlink:href="#DejaVuSans-36"/>
       <use xlink:href="#DejaVuSans-30" x="63.623047"/>
      </g>
     </g>
    </g>
    <g id="ytick_5">
     <g id="line2d_15">
      <g>
       <use xlink:href="#m59f961c71e" x="57.6" y="150.331649" style="stroke: #000000; stroke-width: 0.8"/>
      </g>
     </g>
     <g id="text_16">
      <!-- 70 -->
      <g transform="translate(37.875 154.130868) scale(0.1 -0.1)">
       <defs>
        <path id="DejaVuSans-37" d="M 525 4666 
L 3525 4666 
L 3525 4397 
L 1831 0 
L 1172 0 
L 2766 4134 
L 525 4134 
L 525 4666 
z
" transform="scale(0.015625)"/>
       </defs>
       <use xlink:href="#DejaVuSans-37"/>
       <use xlink:href="#DejaVuSans-30" x="63.623047"/>
      </g>
     </g>
    </g>
    <g id="ytick_6">
     <g id="line2d_16">
      <g>
       <use xlink:href="#m59f961c71e" x="57.6" y="114.077004" style="stroke: #000000; stroke-width: 0.8"/>
      </g>
     </g>
     <g id="text_17">
      <!-- 80 -->
      <g transform="translate(37.875 117.876222) scale(0.1 -0.1)">
       <use xlink:href="#DejaVuSans-38"/>
       <use xlink:href="#DejaVuSans-30" x="63.623047"/>
      </g>
     </g>
    </g>
    <g id="ytick_7">
     <g id="line2d_17">
      <g>
       <use xlink:href="#m59f961c71e" x="57.6" y="77.822358" style="stroke: #000000; stroke-width: 0.8"/>
      </g>
     </g>
     <g id="text_18">
      <!-- 90 -->
      <g transform="translate(37.875 81.621577) scale(0.1 -0.1)">
       <defs>
        <path id="DejaVuSans-39" d="M 703 97 
L 703 672 
Q 941 559 1184 500 
Q 1428 441 1663 441 
Q 2288 441 2617 861 
Q 2947 1281 2994 2138 
Q 2813 1869 2534 1725 
Q 2256 1581 1919 1581 
Q 1219 1581 811 2004 
Q 403 2428 403 3163 
Q 403 3881 828 4315 
Q 1253 4750 1959 4750 
Q 2769 4750 3195 4129 
Q 3622 3509 3622 2328 
Q 3622 1225 3098 567 
Q 2575 -91 1691 -91 
Q 1453 -91 1209 -44 
Q 966 3 703 97 
z
M 1959 2075 
Q 2384 2075 2632 2365 
Q 2881 2656 2881 3163 
Q 2881 3666 2632 3958 
Q 2384 4250 1959 4250 
Q 1534 4250 1286 3958 
Q 1038 3666 1038 3163 
Q 1038 2656 1286 2365 
Q 1534 2075 1959 2075 
z
" transform="scale(0.015625)"/>
       </defs>
       <use xlink:href="#DejaVuSans-39"/>
       <use xlink:href="#DejaVuSans-30" x="63.623047"/>
      </g>
     </g>
    </g>
    <g id="ytick_8">
     <g id="line2d_18">
      <g>
       <use xlink:href="#m59f961c71e" x="57.6" y="41.567712" style="stroke: #000000; stroke-width: 0.8"/>
      </g>
     </g>
     <g id="text_19">
      <!-- 100 -->
      <g transform="translate(31.5125 45.366931) scale(0.1 -0.1)">
       <use xlink:href="#DejaVuSans-31"/>
       <use xlink:href="#DejaVuSans-30" x="63.623047"/>
       <use xlink:href="#DejaVuSans-30" x="127.246094"/>
      </g>
     </g>
    </g>
    <g id="text_20">
     <!-- Accuracy -->
     <g transform="translate(25.432812 197.356125) rotate(-90) scale(0.1 -0.1)">
      <defs>
       <path id="DejaVuSans-41" d="M 2188 4044 
L 1331 1722 
L 3047 1722 
L 2188 4044 
z
M 1831 4666 
L 2547 4666 
L 4325 0 
L 3669 0 
L 3244 1197 
L 1141 1197 
L 716 0 
L 50 0 
L 1831 4666 
z
" transform="scale(0.015625)"/>
       <path id="DejaVuSans-75" d="M 544 1381 
L 544 3500 
L 1119 3500 
L 1119 1403 
Q 1119 906 1312 657 
Q 1506 409 1894 409 
Q 2359 409 2629 706 
Q 2900 1003 2900 1516 
L 2900 3500 
L 3475 3500 
L 3475 0 
L 2900 0 
L 2900 538 
Q 2691 219 2414 64 
Q 2138 -91 1772 -91 
Q 1169 -91 856 284 
Q 544 659 544 1381 
z
M 1991 3584 
L 1991 3584 
z
" transform="scale(0.015625)"/>
       <path id="DejaVuSans-72" d="M 2631 2963 
Q 2534 3019 2420 3045 
Q 2306 3072 2169 3072 
Q 1681 3072 1420 2755 
Q 1159 2438 1159 1844 
L 1159 0 
L 581 0 
L 581 3500 
L 1159 3500 
L 1159 2956 
Q 1341 3275 1631 3429 
Q 1922 3584 2338 3584 
Q 2397 3584 2469 3576 
Q 2541 3569 2628 3553 
L 2631 2963 
z
" transform="scale(0.015625)"/>
       <path id="DejaVuSans-61" d="M 2194 1759 
Q 1497 1759 1228 1600 
Q 959 1441 959 1056 
Q 959 750 1161 570 
Q 1363 391 1709 391 
Q 2188 391 2477 730 
Q 2766 1069 2766 1631 
L 2766 1759 
L 2194 1759 
z
M 3341 1997 
L 3341 0 
L 2766 0 
L 2766 531 
Q 2569 213 2275 61 
Q 1981 -91 1556 -91 
Q 1019 -91 701 211 
Q 384 513 384 1019 
Q 384 1609 779 1909 
Q 1175 2209 1959 2209 
L 2766 2209 
L 2766 2266 
Q 2766 2663 2505 2880 
Q 2244 3097 1772 3097 
Q 1472 3097 1187 3025 
Q 903 2953 641 2809 
L 641 3341 
Q 956 3463 1253 3523 
Q 1550 3584 1831 3584 
Q 2591 3584 2966 3190 
Q 3341 2797 3341 1997 
z
" transform="scale(0.015625)"/>
       <path id="DejaVuSans-79" d="M 2059 -325 
Q 1816 -950 1584 -1140 
Q 1353 -1331 966 -1331 
L 506 -1331 
L 506 -850 
L 844 -850 
Q 1081 -850 1212 -737 
Q 1344 -625 1503 -206 
L 1606 56 
L 191 3500 
L 800 3500 
L 1894 763 
L 2988 3500 
L 3597 3500 
L 2059 -325 
z
" transform="scale(0.015625)"/>
      </defs>
      <use xlink:href="#DejaVuSans-41"/>
      <use xlink:href="#DejaVuSans-63" x="66.658203"/>
      <use xlink:href="#DejaVuSans-63" x="121.638672"/>
      <use xlink:href="#DejaVuSans-75" x="176.619141"/>
      <use xlink:href="#DejaVuSans-72" x="239.998047"/>
      <use xlink:href="#DejaVuSans-61" x="281.111328"/>
      <use xlink:href="#DejaVuSans-63" x="342.390625"/>
      <use xlink:href="#DejaVuSans-79" x="397.371094"/>
     </g>
    </g>
   </g>
   <g id="line2d_19">
    <path d="M 73.832727 295.488 
L 74.429519 235.370546 
L 75.02631 205.82301 
L 76.219893 177.189091 
L 76.816684 169.524859 
L 77.413476 163.745868 
L 78.010267 159.119776 
L 78.607059 153.507556 
L 79.20385 149.432534 
L 79.800642 147.6053 
L 80.397433 143.617289 
L 81.591016 138.345864 
L 82.187807 137.707782 
L 82.784599 136.098076 
L 83.38139 131.950544 
L 83.978182 131.319713 
L 84.574973 128.477349 
L 85.171765 127.150429 
L 85.768556 123.597474 
L 86.365348 122.756366 
L 86.962139 119.457193 
L 87.55893 120.001013 
L 88.155722 117.238409 
L 88.752513 116.491563 
L 89.349305 114.055251 
L 89.946096 113.453424 
L 90.542888 111.807463 
L 91.139679 109.13187 
L 91.736471 110.306521 
L 92.333262 107.797699 
L 92.930053 106.891333 
L 93.526845 105.404892 
L 94.123636 105.629671 
L 94.720428 104.737807 
L 95.317219 105.209117 
L 95.914011 102.10572 
L 96.510802 102.57703 
L 97.107594 103.628415 
L 97.704385 128.56436 
L 98.301176 130.841152 
L 98.897968 129.615745 
L 99.494759 127.106923 
L 100.091551 125.627734 
L 100.688342 125.692992 
L 101.285134 124.35157 
L 101.881925 124.387825 
L 102.478717 123.343691 
L 103.075508 121.987767 
L 104.865882 120.080773 
L 105.462674 117.992505 
L 106.059465 118.514572 
L 106.656257 118.224535 
L 107.253048 115.715714 
L 107.84984 116.252282 
L 108.446631 115.280658 
L 109.640214 113.025619 
L 110.237005 115.222651 
L 110.833797 115.034126 
L 111.430588 112.271522 
L 112.02738 111.502924 
L 112.624171 111.24189 
L 113.220963 109.777203 
L 113.817754 110.103495 
L 114.414545 110.270266 
L 115.608128 108.435781 
L 116.20492 107.246628 
L 116.801711 107.580171 
L 117.398503 108.443032 
L 117.995294 107.369894 
L 118.592086 104.389762 
L 119.188877 105.644173 
L 119.785668 105.303379 
L 120.979251 102.519023 
L 121.576043 103.36013 
L 122.172834 102.156476 
L 122.769626 101.743173 
L 123.366417 101.627158 
L 123.963209 99.959445 
L 124.56 100.793302 
L 125.156791 99.589647 
L 125.753583 98.900809 
L 126.350374 97.871177 
L 126.947166 98.161214 
L 127.543957 97.682653 
L 129.334332 94.020934 
L 129.931123 95.507374 
L 130.527914 93.150822 
L 131.124706 92.077685 
L 131.721497 92.476486 
L 132.318289 91.816651 
L 132.91508 91.831153 
L 133.511872 91.519363 
L 134.108663 90.221447 
L 134.705455 90.87403 
L 135.302246 89.692129 
L 135.899037 89.336833 
L 136.495829 88.104176 
L 137.09262 88.365209 
L 137.689412 86.646739 
L 138.286203 87.386334 
L 139.479786 86.008657 
L 140.076578 86.450964 
L 140.673369 87.35733 
L 141.27016 86.03041 
L 141.866952 86.349451 
L 142.463743 86.414709 
L 143.060535 85.733122 
L 143.657326 85.385077 
L 144.254118 86.052163 
L 144.850909 86.50172 
L 145.447701 108.479286 
L 146.044492 112.938608 
L 146.641283 112.104751 
L 147.238075 113.105379 
L 147.834866 111.220138 
L 148.431658 111.684197 
L 149.028449 109.67569 
L 149.625241 111.713201 
L 150.222032 110.052738 
L 150.818824 109.204379 
L 151.415615 109.726446 
L 152.012406 110.096244 
L 152.609198 109.436409 
L 153.205989 107.72519 
L 153.802781 108.986851 
L 154.399572 108.341519 
L 154.996364 107.4134 
L 155.593155 105.905207 
L 156.189947 107.88471 
L 156.786738 106.499783 
L 157.383529 106.652052 
L 157.980321 108.029729 
L 158.577112 106.536037 
L 159.173904 106.572292 
L 159.770695 106.115484 
L 160.367487 105.325132 
L 160.964278 104.933582 
L 161.56107 105.042346 
L 162.157861 105.491904 
L 162.754652 104.752309 
L 163.351444 104.549283 
L 163.948235 104.911829 
L 164.545027 105.651424 
L 165.141818 103.700924 
L 165.73861 103.207861 
L 166.335401 102.388506 
L 166.932193 104.440519 
L 167.528984 103.135352 
L 168.125775 103.157104 
L 168.722567 101.286365 
L 169.319358 101.743173 
L 169.91615 101.685166 
L 171.109733 101.728671 
L 171.706524 101.598155 
L 172.303316 100.916567 
L 172.900107 101.938948 
L 173.496898 100.321991 
L 174.09369 99.459131 
L 174.690481 100.430755 
L 175.287273 100.3945 
L 175.884064 99.894186 
L 176.480856 99.879684 
L 177.077647 99.488134 
L 177.674439 98.864554 
L 178.27123 99.625902 
L 178.868021 98.647026 
L 179.464813 99.444629 
L 180.061604 98.059701 
L 180.658396 97.762413 
L 181.255187 97.97269 
L 181.851979 96.428242 
L 182.44877 97.588391 
L 183.045561 96.740032 
L 183.642353 97.363612 
L 184.239144 96.950309 
L 184.835936 96.290475 
L 186.029519 96.217965 
L 186.62631 96.036692 
L 187.223102 96.595014 
L 187.819893 94.956304 
L 188.416684 95.362356 
L 189.013476 95.514625 
L 189.610267 95.884422 
L 190.207059 93.99193 
L 190.80385 94.238462 
L 191.400642 93.556874 
L 191.997433 93.825159 
L 192.594225 93.397354 
L 193.191016 93.926672 
L 193.787807 92.425729 
L 194.384599 93.121818 
L 194.98139 91.425101 
L 195.578182 92.005175 
L 196.174973 93.042058 
L 196.771765 91.120562 
L 197.368556 91.555618 
L 198.562139 91.860157 
L 199.15893 91.193071 
L 199.755722 89.510856 
L 200.352513 90.649252 
L 200.949305 89.634122 
L 201.546096 89.967664 
L 202.142888 89.039545 
L 203.336471 88.938032 
L 203.933262 88.307202 
L 204.530053 88.37246 
L 205.126845 87.393584 
L 205.723636 87.806887 
L 206.320428 87.951906 
L 206.917219 86.726499 
L 207.514011 88.133179 
L 208.110802 85.653361 
L 208.707594 85.820133 
L 209.304385 85.841886 
L 209.901176 85.247309 
L 211.094759 84.717992 
L 211.691551 84.746995 
L 212.288342 84.326441 
L 212.885134 83.202547 
L 213.481925 84.282936 
L 214.078717 83.159042 
L 215.272299 82.948765 
L 215.869091 82.20917 
L 216.465882 83.449079 
L 217.062674 82.905259 
L 217.659465 81.556587 
L 218.256257 80.983763 
L 218.853048 81.418819 
L 219.44984 82.28893 
L 220.046631 81.339059 
L 220.643422 81.172287 
L 221.837005 80.236917 
L 222.433797 80.592213 
L 223.030588 78.808484 
L 223.62738 79.388559 
L 224.224171 79.178282 
L 224.820963 79.294297 
L 225.417754 78.576455 
L 226.014545 79.722101 
L 227.208128 78.815735 
L 227.80492 78.025384 
L 228.401711 78.22841 
L 228.998503 78.264665 
L 229.595294 77.235033 
L 230.192086 78.554702 
L 230.788877 77.285789 
L 231.385668 77.662838 
L 231.98246 77.119018 
L 232.579251 77.655587 
L 233.176043 77.713594 
L 233.772834 77.111767 
L 234.369626 76.973999 
L 234.966417 77.887616 
L 235.563209 76.712966 
L 236.16 76.705715 
L 236.756791 77.358299 
L 237.353583 75.96612 
L 237.950374 77.438059 
L 238.547166 75.857356 
L 239.143957 77.401804 
L 239.740749 76.98125 
L 240.33754 77.423557 
L 240.934332 102.250738 
L 241.531123 106.253251 
L 242.127914 106.231498 
L 242.724706 105.484653 
L 243.321497 105.818195 
L 243.918289 106.630299 
L 244.51508 105.571664 
L 245.111872 105.078601 
L 245.708663 104.150482 
L 246.305455 103.82419 
L 246.902246 103.642917 
L 247.499037 103.82419 
L 248.095829 102.482768 
L 248.69262 103.418138 
L 249.289412 103.454393 
L 249.886203 102.134723 
L 250.482995 102.975831 
L 251.079786 100.902065 
L 251.676578 101.924446 
L 252.273369 101.837435 
L 252.87016 103.207861 
L 253.466952 101.5619 
L 254.063743 101.445885 
L 254.660535 100.670036 
L 255.854118 101.438634 
L 256.450909 100.655534 
L 257.047701 100.147969 
L 257.644492 100.430755 
L 258.241283 101.032582 
L 258.838075 99.894186 
L 260.031658 99.625902 
L 260.628449 99.662157 
L 261.225241 100.126216 
L 261.822032 100.010201 
L 262.418824 98.589019 
L 263.015615 99.836179 
L 263.612406 99.408374 
L 264.209198 98.647026 
L 264.805989 99.640404 
L 265.402781 99.625902 
L 265.999572 97.704406 
L 266.596364 98.313484 
L 267.193155 98.197469 
L 267.789947 98.574517 
L 268.386738 98.531012 
L 268.983529 99.169093 
L 269.580321 97.994443 
L 270.177112 98.734038 
L 270.773904 98.110458 
L 271.370695 98.008945 
L 271.967487 99.21985 
L 272.564278 98.531012 
L 273.16107 98.320735 
L 273.757861 97.146084 
L 274.354652 98.545513 
L 274.951444 97.378114 
L 275.548235 97.610144 
L 276.145027 96.964811 
L 276.741818 98.045199 
L 277.33861 97.718908 
L 277.935401 98.146712 
L 278.532193 97.820421 
L 279.128984 95.906175 
L 279.725775 97.820421 
L 280.322567 96.304976 
L 280.919358 97.262099 
L 281.51615 97.74066 
L 282.112941 97.327357 
L 282.709733 95.739404 
L 283.306524 98.240974 
L 283.903316 96.899553 
L 284.500107 96.464497 
L 285.096898 97.776915 
L 285.69369 97.842173 
L 286.290481 97.50138 
L 286.887273 97.320106 
L 287.484064 95.376857 
L 288.080856 95.275344 
L 288.677647 94.9273 
L 289.87123 96.41374 
L 290.468021 96.159958 
L 291.064813 96.094699 
L 291.661604 94.949053 
L 292.258396 95.63064 
L 292.855187 95.927928 
L 293.451979 95.898924 
L 294.04877 94.46324 
L 294.645561 95.927928 
L 295.242353 94.891045 
L 296.435936 95.456618 
L 297.032727 94.992558 
L 297.629519 96.007688 
L 298.22631 95.746655 
L 298.823102 95.724902 
L 299.419893 95.282595 
L 300.016684 93.614882 
L 300.613476 94.165952 
L 301.210267 95.23909 
L 301.807059 94.731525 
L 302.40385 95.594385 
L 303.000642 95.202835 
L 303.597433 93.643885 
L 304.194225 93.781653 
L 304.791016 93.20883 
L 305.387807 94.666266 
L 305.984599 94.209458 
L 306.58139 93.121818 
L 307.178182 93.60038 
L 307.774973 93.687391 
L 308.371765 94.078941 
L 308.968556 92.43298 
L 309.565348 92.752021 
L 310.75893 93.803406 
L 311.952513 92.911542 
L 312.549305 93.281339 
L 313.146096 93.005804 
L 313.742888 93.034807 
L 314.339679 92.570748 
L 314.936471 92.723017 
L 316.130053 91.751393 
L 316.726845 91.852906 
L 317.323636 90.895783 
L 317.920428 92.425729 
L 318.517219 92.099437 
L 319.114011 92.208201 
L 319.710802 92.447482 
L 320.307594 92.411227 
L 320.904385 90.576742 
L 321.501176 91.845655 
L 322.097968 90.446226 
L 322.694759 91.577371 
L 323.291551 92.171947 
L 323.888342 91.120562 
L 324.485134 91.64988 
L 325.081925 91.983423 
L 325.678717 89.844399 
L 326.275508 90.87403 
L 326.872299 90.127185 
L 327.469091 90.707259 
L 328.065882 89.010542 
L 328.662674 90.87403 
L 329.259465 90.417222 
L 329.856257 89.010542 
L 330.453048 88.22019 
L 331.04984 89.69938 
L 331.646631 89.93141 
L 332.243422 88.76401 
L 332.840214 89.452848 
L 333.437005 89.206317 
L 334.033797 89.141058 
L 334.630588 88.466722 
L 335.22738 89.054047 
L 335.824171 88.909029 
L 336.420963 88.14043 
L 337.017754 88.082423 
L 338.211337 88.553733 
L 338.808128 88.147681 
L 339.40492 87.922902 
L 340.001711 88.437718 
L 340.598503 87.821389 
L 341.195294 88.394213 
L 341.792086 87.705374 
L 342.388877 87.951906 
L 342.985668 86.922274 
L 343.58246 88.379711 
L 344.179251 87.951906 
L 344.776043 86.552477 
L 345.372834 85.530096 
L 345.969626 87.183308 
L 347.163209 86.436462 
L 348.356791 86.371203 
L 349.550374 86.96578 
L 350.743957 85.058785 
L 351.340749 84.543969 
L 351.93754 85.856387 
L 352.534332 85.000778 
L 353.131123 84.899265 
L 354.921497 85.928897 
L 355.518289 84.899265 
L 356.11508 84.892014 
L 356.711872 83.898637 
L 357.308663 84.029153 
L 357.905455 84.507715 
L 358.502246 83.731865 
L 359.099037 85.022531 
L 359.695829 83.746367 
L 360.29262 82.201919 
L 360.889412 83.550592 
L 361.486203 83.282308 
L 362.082995 83.572345 
L 362.679786 82.781994 
L 363.276578 83.035776 
L 364.47016 83.130038 
L 365.066952 82.259927 
L 365.663743 82.83275 
L 366.260535 82.890757 
L 366.857326 81.766863 
L 367.454118 82.535462 
L 368.050909 81.259298 
L 368.647701 81.563837 
L 369.244492 82.151163 
L 369.841283 81.201291 
L 370.438075 82.491956 
L 371.034866 80.483449 
L 371.631658 80.613966 
L 372.228449 80.418191 
L 372.825241 79.656843 
L 373.422032 80.062895 
L 374.018824 80.09915 
L 374.615615 80.555958 
L 375.212406 79.823614 
L 375.809198 80.425442 
L 376.405989 79.287046 
L 377.002781 80.135404 
L 377.599572 78.888245 
L 378.196364 78.764979 
L 379.389947 79.562581 
L 379.986738 78.953503 
L 381.180321 78.895496 
L 381.777112 78.837488 
L 382.373904 77.358299 
L 382.970695 78.155901 
L 383.567487 78.5402 
L 384.164278 77.481564 
L 384.76107 77.829609 
L 385.357861 77.467062 
L 385.954652 77.699092 
L 386.551444 77.13352 
L 387.148235 78.322672 
L 387.745027 77.046509 
L 388.341818 77.52507 
L 388.93861 76.995752 
L 389.535401 77.713594 
L 390.132193 76.488187 
L 390.728984 76.002375 
L 391.325775 76.009626 
L 391.922567 77.597579 
L 392.519358 76.111139 
L 393.712941 75.241027 
L 394.309733 75.451304 
L 394.906524 75.96612 
L 395.503316 76.299663 
L 396.100107 76.35767 
L 396.696898 75.893611 
L 397.29369 76.422929 
L 397.890481 77.184276 
L 398.487273 78.22841 
L 398.487273 78.22841 
" clip-path="url(#p4a3dd50d6e)" style="fill: none; stroke: #1f77b4; stroke-width: 1.5; stroke-linecap: square"/>
   </g>
   <g id="line2d_20">
    <path d="M 73.832727 235.747595 
L 74.429519 177.88518 
L 75.02631 161.244298 
L 75.623102 158.271417 
L 76.219893 126.186055 
L 76.816684 130.790395 
L 77.413476 114.657078 
L 78.010267 107.841205 
L 78.607059 103.309374 
L 79.20385 101.496642 
L 79.800642 106.209746 
L 80.397433 97.363612 
L 80.994225 93.919421 
L 81.591016 97.508631 
L 82.187807 90.620248 
L 82.784599 91.200322 
L 83.38139 89.025044 
L 83.978182 84.23943 
L 84.574973 86.305945 
L 85.768556 82.136661 
L 86.365348 81.447823 
L 86.962139 82.172915 
L 87.55893 77.532321 
L 88.155722 77.097265 
L 88.752513 75.10326 
L 89.349305 75.248278 
L 89.946096 75.03075 
L 90.542888 73.181763 
L 91.139679 72.891726 
L 92.333262 70.353901 
L 92.930053 69.882591 
L 93.526845 70.100118 
L 94.123636 69.048734 
L 94.720428 68.323641 
L 95.317219 68.577423 
L 95.914011 67.92484 
L 96.510802 67.92484 
L 97.107594 67.743566 
L 97.704385 89.822646 
L 98.301176 90.620248 
L 98.897968 85.870889 
L 99.494759 88.698752 
L 100.091551 83.550592 
L 100.688342 85.580852 
L 101.285134 80.65022 
L 102.478717 85.363324 
L 103.075508 80.396438 
L 103.672299 79.562581 
L 104.269091 76.734719 
L 104.865882 77.822358 
L 106.059465 80.831494 
L 106.656257 81.375313 
L 107.253048 76.444681 
L 107.84984 76.335918 
L 108.446631 77.387302 
L 109.043422 75.393297 
L 109.640214 75.828352 
L 110.237005 73.363037 
L 110.833797 75.393297 
L 111.430588 74.921986 
L 112.02738 73.00049 
L 112.624171 72.52918 
L 113.220963 76.009626 
L 113.817754 71.042739 
L 114.414545 69.9551 
L 115.011337 72.855472 
L 115.608128 72.094124 
L 116.20492 72.674198 
L 116.801711 69.701317 
L 117.398503 71.586559 
L 117.995294 71.151503 
L 118.592086 70.172628 
L 119.188877 70.752702 
L 120.38246 68.758697 
L 120.979251 68.033604 
L 121.576043 69.991355 
L 122.172834 67.272256 
L 122.769626 67.816076 
L 123.366417 66.438399 
L 123.963209 65.713306 
L 124.56 66.039598 
L 125.156791 65.133232 
L 125.753583 65.387015 
L 126.350374 64.843195 
L 126.947166 65.35076 
L 127.543957 64.843195 
L 128.140749 63.211736 
L 128.73754 63.356754 
L 129.334332 63.139226 
L 129.931123 62.631661 
L 130.527914 61.652786 
L 131.124706 62.77668 
L 131.721497 61.544022 
L 132.318289 61.326494 
L 132.91508 61.979078 
L 133.511872 60.673911 
L 134.108663 60.855184 
L 134.705455 60.782674 
L 135.302246 59.948818 
L 135.899037 60.093836 
L 136.495829 59.73129 
L 137.09262 60.238855 
L 137.689412 59.477507 
L 138.286203 59.368743 
L 138.882995 58.933688 
L 139.479786 59.767544 
L 140.076578 59.259979 
L 140.673369 59.368743 
L 141.27016 59.223725 
L 141.866952 59.622526 
L 142.463743 58.71616 
L 144.254118 58.752414 
L 144.850909 59.078706 
L 145.447701 72.674198 
L 146.044492 75.248278 
L 146.641283 71.51405 
L 147.238075 73.181763 
L 147.834866 74.160639 
L 148.431658 73.181763 
L 149.028449 75.683334 
L 149.625241 72.855472 
L 150.222032 72.492925 
L 150.818824 72.492925 
L 151.415615 70.136373 
L 152.012406 73.036745 
L 152.609198 72.891726 
L 153.205989 70.208882 
L 153.802781 71.332776 
L 154.399572 69.520044 
L 154.996364 71.296522 
L 155.593155 70.317646 
L 156.189947 70.317646 
L 157.383529 69.810081 
L 157.980321 70.680193 
L 158.577112 68.976224 
L 159.173904 69.918845 
L 159.770695 71.586559 
L 160.367487 71.042739 
L 160.964278 69.230007 
L 161.56107 69.302516 
L 162.157861 67.743566 
L 162.754652 67.85233 
L 163.351444 66.692182 
L 163.948235 67.671057 
L 164.545027 67.38102 
L 165.141818 70.063864 
L 165.73861 67.526039 
L 166.335401 68.069858 
L 166.932193 69.810081 
L 167.528984 70.063864 
L 168.125775 70.100118 
L 168.722567 68.432405 
L 169.319358 67.92484 
L 170.512941 66.547163 
L 171.109733 67.090983 
L 171.706524 65.604542 
L 172.303316 66.293381 
L 172.900107 68.323641 
L 173.496898 66.148362 
L 174.09369 66.257126 
L 174.690481 66.692182 
L 175.287273 66.8372 
L 175.884064 65.278251 
L 176.480856 64.80694 
L 177.077647 65.785816 
L 177.674439 66.039598 
L 178.27123 64.408139 
L 178.868021 64.770686 
L 179.464813 68.541169 
L 180.061604 65.096977 
L 180.658396 64.625667 
L 181.255187 64.698176 
L 181.851979 63.828065 
L 182.44877 65.169487 
L 183.045561 64.081847 
L 183.642353 63.936829 
L 184.239144 64.009338 
L 184.835936 65.930834 
L 185.432727 63.646792 
L 186.029519 66.873455 
L 186.62631 64.843195 
L 187.223102 66.800946 
L 187.819893 63.429264 
L 188.416684 63.139226 
L 189.013476 64.698176 
L 189.610267 63.900574 
L 190.207059 61.906569 
L 191.400642 63.393009 
L 191.997433 61.725295 
L 192.594225 63.900574 
L 193.787807 61.544022 
L 194.384599 61.580277 
L 194.98139 60.891438 
L 195.578182 62.921699 
L 196.174973 62.522897 
L 196.771765 60.673911 
L 197.368556 61.181476 
L 197.965348 60.891438 
L 198.562139 61.544022 
L 199.15893 61.652786 
L 199.755722 59.550017 
L 200.352513 61.435258 
L 200.949305 59.477507 
L 201.546096 60.275109 
L 202.142888 59.332489 
L 202.739679 59.65878 
L 203.336471 59.078706 
L 203.933262 58.679905 
L 204.530053 59.876308 
L 205.126845 57.846048 
L 205.723636 59.078706 
L 206.320428 58.063576 
L 206.917219 58.897433 
L 207.514011 57.846048 
L 208.110802 58.933688 
L 208.707594 56.649645 
L 209.304385 58.71616 
L 209.901176 58.136085 
L 210.497968 57.193465 
L 211.094759 57.918557 
L 212.288342 57.519756 
L 212.885134 56.939682 
L 213.481925 57.374738 
L 214.078717 57.410992 
L 214.675508 57.773539 
L 215.272299 56.867173 
L 215.869091 57.338483 
L 217.062674 55.525751 
L 217.659465 56.323353 
L 218.853048 55.960807 
L 219.44984 56.395862 
L 220.046631 55.199459 
L 220.643422 55.743279 
L 221.240214 55.163204 
L 221.837005 55.453242 
L 222.433797 55.090695 
L 223.030588 55.344478 
L 223.62738 55.308223 
L 224.224171 55.489496 
L 224.820963 54.981931 
L 226.014545 55.090695 
L 226.611337 55.525751 
L 227.208128 54.945677 
L 227.80492 55.05444 
L 228.401711 54.691894 
L 228.998503 55.018186 
L 229.595294 54.474366 
L 230.788877 54.438111 
L 231.385668 54.728149 
L 231.98246 54.691894 
L 232.579251 54.184329 
L 233.176043 55.090695 
L 233.772834 54.256838 
L 234.966417 54.58313 
L 235.563209 54.365602 
L 236.16 54.836913 
L 236.756791 54.546875 
L 237.353583 54.401857 
L 237.950374 54.546875 
L 238.547166 54.474366 
L 239.143957 54.655639 
L 239.740749 54.546875 
L 240.33754 54.691894 
L 240.934332 70.716447 
L 241.531123 69.302516 
L 242.127914 75.900862 
L 242.724706 70.100118 
L 243.321497 67.526039 
L 243.918289 71.151503 
L 244.51508 69.9551 
L 245.111872 67.997349 
L 245.708663 72.782962 
L 246.305455 69.302516 
L 246.902246 68.649933 
L 247.499037 67.38102 
L 248.095829 70.100118 
L 248.69262 68.142368 
L 249.289412 69.447535 
L 249.886203 68.069858 
L 250.482995 66.039598 
L 251.079786 66.800946 
L 252.273369 66.148362 
L 252.87016 65.169487 
L 253.466952 67.816076 
L 254.063743 67.127238 
L 254.660535 66.873455 
L 255.257326 67.38102 
L 255.854118 66.764691 
L 256.450909 65.532033 
L 257.047701 68.359895 
L 257.644492 65.060723 
L 258.241283 67.816076 
L 258.838075 65.858325 
L 260.031658 64.770686 
L 260.628449 68.106113 
L 261.225241 64.480648 
L 261.822032 65.133232 
L 263.015615 67.018474 
L 263.612406 64.661922 
L 264.209198 65.387015 
L 264.805989 68.613678 
L 265.402781 65.568288 
L 265.999572 64.951959 
L 266.596364 66.329635 
L 267.789947 63.501773 
L 268.386738 66.547163 
L 268.983529 66.583418 
L 269.580321 66.945964 
L 270.177112 66.474654 
L 270.773904 64.625667 
L 271.370695 65.278251 
L 271.967487 66.329635 
L 272.564278 66.728436 
L 273.16107 64.26312 
L 274.354652 64.553158 
L 274.951444 63.828065 
L 275.548235 61.942823 
L 276.145027 65.205741 
L 276.741818 65.677052 
L 277.33861 65.713306 
L 277.935401 65.967089 
L 278.532193 64.589412 
L 279.128984 66.90971 
L 279.725775 65.858325 
L 280.919358 65.858325 
L 281.51615 63.719301 
L 282.112941 64.118102 
L 282.709733 66.148362 
L 283.306524 63.465518 
L 283.903316 64.988213 
L 284.500107 68.504914 
L 285.096898 64.045593 
L 285.69369 64.371884 
L 286.290481 66.402145 
L 286.887273 64.009338 
L 287.484064 64.553158 
L 288.677647 63.936829 
L 289.274439 64.843195 
L 289.87123 64.226866 
L 290.468021 66.039598 
L 291.064813 62.522897 
L 291.661604 63.284245 
L 292.258396 62.087842 
L 292.855187 63.066717 
L 293.451979 62.740425 
L 294.04877 63.900574 
L 294.645561 62.849189 
L 295.242353 62.23286 
L 295.839144 63.646792 
L 296.435936 63.284245 
L 297.032727 63.211736 
L 297.629519 63.936829 
L 298.22631 61.652786 
L 298.823102 63.646792 
L 299.419893 64.770686 
L 300.016684 60.673911 
L 300.613476 65.133232 
L 301.210267 62.849189 
L 301.807059 65.532033 
L 302.40385 61.76155 
L 303.000642 61.616531 
L 303.597433 63.719301 
L 304.194225 63.574282 
L 304.791016 61.870314 
L 305.387807 66.112107 
L 305.984599 63.030463 
L 306.58139 61.797805 
L 307.178182 64.770686 
L 307.774973 63.574282 
L 308.371765 63.066717 
L 308.968556 63.646792 
L 309.565348 60.855184 
L 310.162139 60.782674 
L 311.355722 60.238855 
L 311.952513 62.486643 
L 312.549305 61.580277 
L 313.146096 62.667916 
L 313.742888 61.906569 
L 314.339679 63.066717 
L 314.936471 63.066717 
L 315.533262 61.979078 
L 316.130053 61.399003 
L 316.726845 60.311364 
L 317.323636 61.870314 
L 317.920428 62.377879 
L 319.114011 60.093836 
L 319.710802 60.238855 
L 320.307594 61.689041 
L 321.501176 61.072712 
L 322.097968 60.166346 
L 322.694759 59.622526 
L 323.291551 61.399003 
L 323.888342 60.492637 
L 324.485134 60.238855 
L 325.081925 60.565147 
L 325.678717 60.2026 
L 326.275508 61.326494 
L 326.872299 59.151215 
L 327.469091 59.622526 
L 328.065882 60.492637 
L 328.662674 59.513762 
L 329.259465 60.311364 
L 329.856257 59.695035 
L 330.453048 59.65878 
L 331.04984 60.818929 
L 331.646631 60.166346 
L 332.243422 59.876308 
L 332.840214 60.456383 
L 333.437005 60.456383 
L 334.033797 58.063576 
L 334.630588 59.767544 
L 335.22738 60.601401 
L 335.824171 60.456383 
L 336.420963 62.196606 
L 337.017754 60.637656 
L 337.614545 59.586271 
L 338.211337 59.441253 
L 338.808128 59.912563 
L 339.40492 59.223725 
L 340.001711 58.969942 
L 340.598503 59.803799 
L 341.195294 58.752414 
L 341.792086 59.912563 
L 342.388877 59.332489 
L 342.985668 58.317359 
L 343.58246 59.477507 
L 344.179251 59.296234 
L 344.776043 58.281104 
L 345.372834 59.006197 
L 345.969626 59.18747 
L 346.566417 58.64365 
L 347.163209 59.65878 
L 347.76 58.534886 
L 348.356791 58.317359 
L 348.953583 59.332489 
L 349.550374 57.410992 
L 350.147166 57.737284 
L 350.743957 59.441253 
L 351.340749 57.447247 
L 351.93754 56.975937 
L 352.534332 57.447247 
L 353.131123 56.867173 
L 353.727914 58.063576 
L 354.324706 56.758409 
L 354.921497 57.991067 
L 355.518289 57.918557 
L 356.11508 58.571141 
L 356.711872 56.577136 
L 357.308663 55.997061 
L 357.905455 57.193465 
L 358.502246 57.556011 
L 359.099037 57.338483 
L 359.695829 59.441253 
L 360.29262 55.562006 
L 360.889412 57.664775 
L 361.486203 56.6859 
L 362.082995 57.519756 
L 363.276578 55.163204 
L 363.873369 56.939682 
L 364.47016 55.852043 
L 365.066952 56.178334 
L 365.663743 56.069571 
L 366.260535 57.954812 
L 366.857326 56.033316 
L 367.454118 55.670769 
L 368.050909 56.287098 
L 368.647701 57.15721 
L 369.244492 57.556011 
L 370.438075 55.888297 
L 371.034866 56.649645 
L 371.631658 56.069571 
L 372.228449 56.830918 
L 372.825241 55.380732 
L 374.018824 56.722154 
L 374.615615 55.670769 
L 375.212406 54.909422 
L 375.809198 55.59826 
L 376.405989 56.105825 
L 377.002781 55.090695 
L 377.599572 54.981931 
L 378.196364 55.634515 
L 378.793155 54.691894 
L 379.389947 54.293093 
L 379.986738 54.981931 
L 380.583529 54.619385 
L 381.180321 54.728149 
L 381.777112 54.11182 
L 382.373904 55.05444 
L 382.970695 54.329348 
L 383.567487 54.800658 
L 384.164278 54.03931 
L 384.76107 55.271968 
L 385.357861 54.764403 
L 385.954652 55.235714 
L 386.551444 54.184329 
L 387.148235 54.184329 
L 387.745027 53.749273 
L 388.341818 54.401857 
L 388.93861 53.966801 
L 389.535401 53.749273 
L 390.132193 53.894292 
L 390.728984 54.510621 
L 391.325775 54.184329 
L 391.922567 54.003056 
L 392.519358 53.568 
L 393.11615 54.764403 
L 393.712941 54.11182 
L 394.309733 54.401857 
L 394.906524 53.785528 
L 395.503316 53.713019 
L 396.100107 53.858037 
L 396.696898 54.836913 
L 397.29369 54.474366 
L 397.890481 54.764403 
L 398.487273 55.308223 
L 398.487273 55.308223 
" clip-path="url(#p4a3dd50d6e)" style="fill: none; stroke: #ff7f0e; stroke-width: 1.5; stroke-linecap: square"/>
   </g>
   <g id="line2d_21">
    <path d="M 73.832727 263.796189 
L 74.429519 207.088922 
L 75.02631 201.938262 
L 75.623102 198.312798 
L 76.219893 163.808376 
L 76.816684 176.034943 
L 77.413476 153.957114 
L 78.010267 154.807223 
L 78.607059 149.181502 
L 79.20385 141.13047 
L 79.800642 153.107005 
L 80.397433 140.205352 
L 80.994225 134.279593 
L 81.591016 136.029817 
L 82.187807 130.479106 
L 82.784599 132.754397 
L 83.38139 130.20407 
L 83.978182 122.453077 
L 84.574973 123.503212 
L 85.171765 122.903135 
L 85.768556 117.102391 
L 86.365348 114.927113 
L 86.962139 116.427305 
L 88.155722 111.55168 
L 88.752513 110.776581 
L 89.349305 110.751578 
L 89.946096 108.226254 
L 90.542888 108.35127 
L 91.139679 108.701315 
L 91.736471 104.725805 
L 92.333262 102.700546 
L 92.930053 103.550655 
L 93.526845 102.875568 
L 94.123636 101.125344 
L 94.720428 101.375376 
L 95.317219 101.450386 
L 96.510802 100.200226 
L 97.107594 100.150219 
L 97.704385 124.728369 
L 98.301176 136.05482 
L 98.897968 121.752987 
L 99.494759 126.153551 
L 100.091551 120.777862 
L 100.688342 123.003148 
L 101.285134 117.227407 
L 101.881925 124.028279 
L 102.478717 123.128164 
L 103.075508 115.952244 
L 103.672299 118.527574 
L 104.865882 113.57694 
L 105.462674 117.252411 
L 106.059465 119.752731 
L 107.253048 110.501546 
L 107.84984 110.426536 
L 108.446631 111.826715 
L 109.043422 108.601302 
L 109.640214 112.25177 
L 110.237005 107.051103 
L 110.833797 110.151501 
L 112.02738 109.201379 
L 112.624171 108.076235 
L 113.220963 112.126754 
L 113.817754 105.525908 
L 114.414545 104.075722 
L 115.011337 106.626049 
L 115.608128 104.025716 
L 116.20492 109.801456 
L 116.801711 103.700674 
L 117.398503 104.125729 
L 117.995294 103.575658 
L 118.592086 102.425511 
L 119.188877 107.301135 
L 119.785668 101.675415 
L 120.38246 101.775427 
L 120.979251 104.050719 
L 121.576043 108.726318 
L 122.172834 102.300495 
L 122.769626 98.975069 
L 123.366417 100.800302 
L 123.963209 100.475261 
L 124.56 97.824921 
L 125.156791 96.124703 
L 125.753583 97.149835 
L 126.350374 94.349476 
L 126.947166 96.624767 
L 127.543957 94.699521 
L 128.140749 94.949553 
L 128.73754 92.499239 
L 129.334332 95.724652 
L 129.931123 92.249207 
L 130.527914 92.724268 
L 131.124706 90.548989 
L 131.721497 90.348963 
L 132.318289 91.974171 
L 132.91508 88.598739 
L 133.511872 87.973659 
L 134.108663 89.848899 
L 134.705455 89.148809 
L 135.302246 87.023537 
L 135.899037 87.248566 
L 136.495829 86.448463 
L 137.09262 87.423588 
L 137.689412 88.048668 
L 138.286203 85.923396 
L 138.882995 84.648233 
L 139.479786 86.523473 
L 140.076578 85.198303 
L 141.27016 85.048284 
L 141.866952 85.473338 
L 142.463743 84.798252 
L 143.060535 84.498213 
L 143.657326 84.623229 
L 144.254118 84.373197 
L 144.850909 84.398201 
L 145.447701 107.176119 
L 146.044492 114.077004 
L 146.641283 108.626305 
L 147.238075 111.576683 
L 147.834866 109.501417 
L 148.431658 109.05136 
L 149.028449 110.026485 
L 149.625241 102.950578 
L 150.222032 105.950962 
L 150.818824 105.07585 
L 151.415615 103.325626 
L 152.012406 103.82569 
L 153.205989 105.400892 
L 153.802781 107.276132 
L 154.399572 100.55027 
L 154.996364 106.40102 
L 155.593155 103.925703 
L 156.189947 103.025588 
L 156.786738 103.375632 
L 157.383529 106.576043 
L 157.980321 103.875697 
L 158.577112 100.175222 
L 159.173904 104.000713 
L 159.770695 106.200994 
L 160.367487 104.725805 
L 160.964278 105.950962 
L 161.56107 104.100725 
L 162.157861 101.400379 
L 162.754652 102.925575 
L 163.351444 99.475133 
L 163.948235 99.875184 
L 164.545027 101.450386 
L 165.141818 108.026228 
L 165.73861 102.050463 
L 166.335401 100.250232 
L 166.932193 107.076107 
L 167.528984 105.825946 
L 168.125775 103.400636 
L 168.722567 103.725677 
L 169.319358 101.025331 
L 169.91615 97.274851 
L 170.512941 97.949937 
L 171.109733 99.500136 
L 171.706524 98.625024 
L 172.303316 102.875568 
L 172.900107 100.500264 
L 173.496898 100.62528 
L 174.09369 97.599892 
L 174.690481 100.475261 
L 175.287273 98.450001 
L 175.884064 94.999559 
L 176.480856 96.524755 
L 177.077647 100.350245 
L 177.674439 100.150219 
L 178.27123 99.550142 
L 178.868021 98.500008 
L 179.464813 100.850309 
L 180.061604 95.999687 
L 180.658396 94.624511 
L 181.255187 92.924293 
L 181.851979 97.149835 
L 182.44877 94.899546 
L 183.045561 94.724524 
L 183.642353 97.199841 
L 184.239144 93.299341 
L 184.835936 94.949553 
L 185.432727 90.39897 
L 186.029519 103.475645 
L 186.62631 91.499111 
L 187.223102 97.074825 
L 187.819893 92.299213 
L 188.416684 93.474364 
L 189.013476 91.124062 
L 189.610267 94.174453 
L 190.207059 91.624127 
L 190.80385 93.274338 
L 191.400642 92.924293 
L 191.997433 90.39897 
L 192.594225 98.274979 
L 193.191016 92.099187 
L 193.787807 88.523729 
L 194.384599 93.499367 
L 194.98139 86.773505 
L 195.578182 93.649386 
L 196.174973 90.473979 
L 196.771765 92.124191 
L 197.368556 89.448848 
L 197.965348 89.423845 
L 198.562139 89.673877 
L 199.15893 90.824024 
L 199.755722 87.898649 
L 200.352513 91.624127 
L 200.949305 88.37371 
L 201.546096 90.774018 
L 202.142888 91.049053 
L 202.739679 86.048412 
L 203.336471 87.948656 
L 203.933262 85.998406 
L 204.530053 87.273569 
L 205.126845 84.823255 
L 205.723636 88.2987 
L 206.320428 83.723114 
L 206.917219 86.323447 
L 207.514011 85.573351 
L 209.304385 86.298444 
L 209.901176 85.198303 
L 210.497968 84.823255 
L 211.094759 84.873262 
L 211.691551 84.048156 
L 212.288342 84.54822 
L 212.885134 84.148169 
L 213.481925 83.92314 
L 214.078717 84.248181 
L 214.675508 84.323191 
L 215.272299 81.34781 
L 215.869091 81.822871 
L 216.465882 81.872877 
L 217.062674 81.172787 
L 217.659465 81.097778 
L 218.256257 81.89788 
L 218.853048 79.597585 
L 219.44984 80.472698 
L 220.046631 81.047771 
L 220.643422 80.02264 
L 221.240214 79.347553 
L 221.837005 79.122525 
L 222.433797 79.39756 
L 223.030588 79.497573 
L 223.62738 79.222537 
L 224.224171 79.672595 
L 224.820963 77.697342 
L 225.417754 77.847361 
L 226.014545 78.922499 
L 226.611337 77.947374 
L 227.208128 77.872364 
L 227.80492 78.69747 
L 228.998503 77.497316 
L 229.595294 78.77248 
L 230.192086 78.447438 
L 230.788877 77.422307 
L 231.385668 77.947374 
L 231.98246 78.197406 
L 232.579251 77.822358 
L 233.176043 78.372428 
L 233.772834 77.022255 
L 234.369626 78.372428 
L 234.966417 77.99738 
L 235.563209 77.147271 
L 236.16 78.347425 
L 237.353583 77.047259 
L 237.950374 77.797355 
L 238.547166 77.597329 
L 239.143957 77.672339 
L 239.740749 76.922243 
L 240.33754 77.472313 
L 240.934332 106.125985 
L 241.531123 104.275748 
L 242.127914 113.50193 
L 242.724706 106.426023 
L 243.321497 100.850309 
L 243.918289 110.101494 
L 244.51508 110.351526 
L 245.111872 100.850309 
L 245.708663 108.101238 
L 246.305455 102.875568 
L 246.902246 105.425895 
L 247.499037 100.900315 
L 248.095829 102.675543 
L 248.69262 99.850181 
L 249.289412 104.600789 
L 249.886203 102.600533 
L 250.482995 98.875056 
L 251.079786 100.600277 
L 251.676578 100.975325 
L 252.273369 100.775299 
L 252.87016 100.0002 
L 253.466952 99.775171 
L 254.063743 98.149963 
L 254.660535 105.425895 
L 255.257326 97.549886 
L 255.854118 101.525395 
L 256.450909 97.374863 
L 257.047701 98.825049 
L 257.644492 96.674774 
L 258.241283 105.400892 
L 258.838075 96.599764 
L 259.434866 97.124831 
L 260.031658 94.424485 
L 260.628449 99.325113 
L 261.225241 96.574761 
L 261.822032 96.249719 
L 262.418824 96.674774 
L 263.015615 98.349988 
L 263.612406 96.424742 
L 264.805989 99.875184 
L 265.402781 94.724524 
L 265.999572 94.474492 
L 266.596364 101.95045 
L 267.193155 95.674646 
L 267.789947 94.274466 
L 268.386738 102.550527 
L 268.983529 95.949681 
L 269.580321 99.600149 
L 270.177112 104.225741 
L 270.773904 94.624511 
L 272.564278 102.200482 
L 273.16107 98.925062 
L 273.757861 98.625024 
L 274.354652 98.024947 
L 274.951444 93.399354 
L 275.548235 92.524242 
L 276.145027 93.974428 
L 277.33861 93.52437 
L 277.935401 97.42487 
L 278.532193 96.199713 
L 279.128984 98.725036 
L 279.725775 98.700033 
L 280.322567 95.499623 
L 280.919358 98.249976 
L 281.51615 95.349604 
L 282.112941 94.249463 
L 282.709733 97.024819 
L 283.306524 97.849924 
L 283.903316 94.974556 
L 284.500107 103.925703 
L 285.096898 94.399482 
L 285.69369 94.424485 
L 286.290481 96.72478 
L 286.887273 96.17471 
L 287.484064 97.074825 
L 288.080856 98.625024 
L 288.677647 96.72478 
L 289.274439 96.574761 
L 289.87123 95.924678 
L 290.468021 98.174966 
L 291.064813 91.099059 
L 291.661604 95.049566 
L 292.258396 91.949168 
L 292.855187 96.049694 
L 293.451979 95.974684 
L 294.04877 94.949553 
L 294.645561 91.674133 
L 295.242353 94.84954 
L 295.839144 95.149578 
L 296.435936 98.850053 
L 297.032727 95.274594 
L 297.629519 101.525395 
L 298.22631 90.573992 
L 298.823102 97.049822 
L 299.419893 96.549758 
L 300.016684 96.299726 
L 300.613476 94.674517 
L 301.210267 92.699264 
L 301.807059 95.999687 
L 302.40385 92.249207 
L 303.000642 92.924293 
L 303.597433 97.049822 
L 304.194225 94.674517 
L 304.791016 97.049822 
L 305.387807 96.72478 
L 305.984599 93.024306 
L 306.58139 88.323704 
L 307.178182 95.649642 
L 307.774973 95.949681 
L 308.371765 91.474107 
L 308.968556 94.77453 
L 309.565348 91.674133 
L 310.162139 90.899034 
L 310.75893 93.374351 
L 311.355722 91.549117 
L 311.952513 93.024306 
L 312.549305 93.024306 
L 313.146096 94.249463 
L 313.742888 91.449104 
L 314.339679 95.599636 
L 314.936471 98.725036 
L 315.533262 90.298957 
L 316.130053 91.299085 
L 316.726845 91.599123 
L 317.323636 91.549117 
L 317.920428 89.673877 
L 319.114011 91.324088 
L 319.710802 90.298957 
L 320.307594 93.174325 
L 320.904385 91.299085 
L 321.501176 90.849027 
L 322.097968 90.073928 
L 322.694759 91.449104 
L 323.888342 87.923652 
L 324.485134 86.348451 
L 325.081925 89.798893 
L 325.678717 89.298829 
L 326.275508 90.94904 
L 326.872299 88.823768 
L 328.065882 91.599123 
L 328.662674 88.623742 
L 329.259465 90.649002 
L 329.856257 87.348579 
L 330.453048 90.073928 
L 331.04984 89.423845 
L 331.646631 87.948656 
L 332.243422 89.998918 
L 332.840214 91.399098 
L 333.437005 90.749014 
L 334.033797 85.223306 
L 334.630588 86.623486 
L 335.22738 89.248822 
L 335.824171 86.673492 
L 336.420963 93.924421 
L 337.017754 87.648617 
L 337.614545 88.348707 
L 338.211337 87.67362 
L 338.808128 87.848643 
L 339.40492 86.048412 
L 340.001711 85.498342 
L 340.598503 87.648617 
L 341.792086 88.423716 
L 342.388877 87.598611 
L 342.985668 86.523473 
L 344.179251 88.173684 
L 344.776043 83.14804 
L 345.372834 88.873774 
L 345.969626 87.773633 
L 346.566417 84.773249 
L 347.163209 87.74863 
L 347.76 87.073543 
L 348.356791 84.673236 
L 348.953583 87.923652 
L 349.550374 83.648105 
L 350.743957 87.548604 
L 351.340749 83.548092 
L 351.93754 85.898393 
L 352.534332 86.373454 
L 353.131123 84.248181 
L 353.727914 83.773121 
L 354.324706 83.698111 
L 354.921497 85.698367 
L 355.518289 83.373069 
L 356.11508 84.898265 
L 356.711872 82.59797 
L 357.308663 82.497957 
L 357.905455 85.548348 
L 358.502246 83.873133 
L 359.099037 84.798252 
L 359.695829 86.298444 
L 360.29262 82.397944 
L 360.889412 84.223178 
L 361.486203 84.923268 
L 362.082995 83.948143 
L 362.679786 82.547964 
L 363.276578 80.597714 
L 363.873369 81.997893 
L 364.47016 79.647592 
L 365.066952 82.072903 
L 365.663743 81.947887 
L 366.260535 84.998278 
L 366.857326 80.447694 
L 367.454118 82.472954 
L 368.050909 80.272672 
L 369.244492 82.848002 
L 369.841283 80.797739 
L 370.438075 83.473082 
L 371.034866 80.847746 
L 371.631658 79.222537 
L 372.228449 82.122909 
L 372.825241 80.847746 
L 373.422032 83.648105 
L 374.018824 80.147656 
L 374.615615 80.822742 
L 375.212406 79.272544 
L 375.809198 79.647592 
L 376.405989 79.847618 
L 377.002781 79.39756 
L 377.599572 79.547579 
L 378.196364 78.622461 
L 378.793155 79.597585 
L 379.389947 77.622332 
L 379.986738 79.147528 
L 380.583529 79.372557 
L 381.180321 78.947502 
L 381.777112 76.672211 
L 382.373904 79.547579 
L 382.970695 77.672339 
L 384.164278 79.497573 
L 384.76107 77.597329 
L 385.357861 77.972377 
L 385.954652 77.422307 
L 387.148235 77.847361 
L 387.745027 76.422179 
L 388.341818 77.847361 
L 388.93861 78.297419 
L 389.535401 77.622332 
L 390.728984 75.347041 
L 391.325775 76.547195 
L 391.922567 76.972249 
L 392.519358 76.372172 
L 393.11615 76.997252 
L 393.712941 75.647079 
L 394.309733 76.547195 
L 394.906524 75.172018 
L 395.503316 77.097265 
L 396.100107 75.347041 
L 397.29369 77.847361 
L 397.890481 77.172275 
L 398.487273 78.422435 
L 398.487273 78.422435 
" clip-path="url(#p4a3dd50d6e)" style="fill: none; stroke: #2ca02c; stroke-width: 1.5; stroke-linecap: square"/>
   </g>
   <g id="line2d_22">
    <path d="M 396.696898 54.11182 
L 397.29369 54.655639 
L 397.890481 53.894292 
L 398.487273 53.966801 
L 398.487273 53.966801 
" clip-path="url(#p4a3dd50d6e)" style="fill: none; stroke: #d62728; stroke-width: 1.5; stroke-linecap: square"/>
   </g>
   <g id="line2d_23">
    <path d="M 396.696898 76.172147 
L 398.487273 73.671826 
L 398.487273 73.671826 
" clip-path="url(#p4a3dd50d6e)" style="fill: none; stroke: #9467bd; stroke-width: 1.5; stroke-linecap: square"/>
   </g>
   <g id="patch_3">
    <path d="M 57.6 307.584 
L 57.6 41.472 
" style="fill: none; stroke: #000000; stroke-width: 0.8; stroke-linejoin: miter; stroke-linecap: square"/>
   </g>
   <g id="patch_4">
    <path d="M 414.72 307.584 
L 414.72 41.472 
" style="fill: none; stroke: #000000; stroke-width: 0.8; stroke-linejoin: miter; stroke-linecap: square"/>
   </g>
   <g id="patch_5">
    <path d="M 57.6 307.584 
L 414.72 307.584 
" style="fill: none; stroke: #000000; stroke-width: 0.8; stroke-linejoin: miter; stroke-linecap: square"/>
   </g>
   <g id="patch_6">
    <path d="M 57.6 41.472 
L 414.72 41.472 
" style="fill: none; stroke: #000000; stroke-width: 0.8; stroke-linejoin: miter; stroke-linecap: square"/>
   </g>
   <g id="text_21">
    <!-- Learning Curves -->
    <g transform="translate(187.37625 35.472) scale(0.12 -0.12)">
     <defs>
      <path id="DejaVuSans-4c" d="M 628 4666 
L 1259 4666 
L 1259 531 
L 3531 531 
L 3531 0 
L 628 0 
L 628 4666 
z
" transform="scale(0.015625)"/>
      <path id="DejaVuSans-65" d="M 3597 1894 
L 3597 1613 
L 953 1613 
Q 991 1019 1311 708 
Q 1631 397 2203 397 
Q 2534 397 2845 478 
Q 3156 559 3463 722 
L 3463 178 
Q 3153 47 2828 -22 
Q 2503 -91 2169 -91 
Q 1331 -91 842 396 
Q 353 884 353 1716 
Q 353 2575 817 3079 
Q 1281 3584 2069 3584 
Q 2775 3584 3186 3129 
Q 3597 2675 3597 1894 
z
M 3022 2063 
Q 3016 2534 2758 2815 
Q 2500 3097 2075 3097 
Q 1594 3097 1305 2825 
Q 1016 2553 972 2059 
L 3022 2063 
z
" transform="scale(0.015625)"/>
      <path id="DejaVuSans-6e" d="M 3513 2113 
L 3513 0 
L 2938 0 
L 2938 2094 
Q 2938 2591 2744 2837 
Q 2550 3084 2163 3084 
Q 1697 3084 1428 2787 
Q 1159 2491 1159 1978 
L 1159 0 
L 581 0 
L 581 3500 
L 1159 3500 
L 1159 2956 
Q 1366 3272 1645 3428 
Q 1925 3584 2291 3584 
Q 2894 3584 3203 3211 
Q 3513 2838 3513 2113 
z
" transform="scale(0.015625)"/>
      <path id="DejaVuSans-69" d="M 603 3500 
L 1178 3500 
L 1178 0 
L 603 0 
L 603 3500 
z
M 603 4863 
L 1178 4863 
L 1178 4134 
L 603 4134 
L 603 4863 
z
" transform="scale(0.015625)"/>
      <path id="DejaVuSans-67" d="M 2906 1791 
Q 2906 2416 2648 2759 
Q 2391 3103 1925 3103 
Q 1463 3103 1205 2759 
Q 947 2416 947 1791 
Q 947 1169 1205 825 
Q 1463 481 1925 481 
Q 2391 481 2648 825 
Q 2906 1169 2906 1791 
z
M 3481 434 
Q 3481 -459 3084 -895 
Q 2688 -1331 1869 -1331 
Q 1566 -1331 1297 -1286 
Q 1028 -1241 775 -1147 
L 775 -588 
Q 1028 -725 1275 -790 
Q 1522 -856 1778 -856 
Q 2344 -856 2625 -561 
Q 2906 -266 2906 331 
L 2906 616 
Q 2728 306 2450 153 
Q 2172 0 1784 0 
Q 1141 0 747 490 
Q 353 981 353 1791 
Q 353 2603 747 3093 
Q 1141 3584 1784 3584 
Q 2172 3584 2450 3431 
Q 2728 3278 2906 2969 
L 2906 3500 
L 3481 3500 
L 3481 434 
z
" transform="scale(0.015625)"/>
      <path id="DejaVuSans-20" transform="scale(0.015625)"/>
      <path id="DejaVuSans-43" d="M 4122 4306 
L 4122 3641 
Q 3803 3938 3442 4084 
Q 3081 4231 2675 4231 
Q 1875 4231 1450 3742 
Q 1025 3253 1025 2328 
Q 1025 1406 1450 917 
Q 1875 428 2675 428 
Q 3081 428 3442 575 
Q 3803 722 4122 1019 
L 4122 359 
Q 3791 134 3420 21 
Q 3050 -91 2638 -91 
Q 1578 -91 968 557 
Q 359 1206 359 2328 
Q 359 3453 968 4101 
Q 1578 4750 2638 4750 
Q 3056 4750 3426 4639 
Q 3797 4528 4122 4306 
z
" transform="scale(0.015625)"/>
      <path id="DejaVuSans-76" d="M 191 3500 
L 800 3500 
L 1894 563 
L 2988 3500 
L 3597 3500 
L 2284 0 
L 1503 0 
L 191 3500 
z
" transform="scale(0.015625)"/>
     </defs>
     <use xlink:href="#DejaVuSans-4c"/>
     <use xlink:href="#DejaVuSans-65" x="53.962891"/>
     <use xlink:href="#DejaVuSans-61" x="115.486328"/>
     <use xlink:href="#DejaVuSans-72" x="176.765625"/>
     <use xlink:href="#DejaVuSans-6e" x="216.128906"/>
     <use xlink:href="#DejaVuSans-69" x="279.507812"/>
     <use xlink:href="#DejaVuSans-6e" x="307.291016"/>
     <use xlink:href="#DejaVuSans-67" x="370.669922"/>
     <use xlink:href="#DejaVuSans-20" x="434.146484"/>
     <use xlink:href="#DejaVuSans-43" x="465.933594"/>
     <use xlink:href="#DejaVuSans-75" x="535.757812"/>
     <use xlink:href="#DejaVuSans-72" x="599.136719"/>
     <use xlink:href="#DejaVuSans-76" x="640.25"/>
     <use xlink:href="#DejaVuSans-65" x="699.429688"/>
     <use xlink:href="#DejaVuSans-73" x="760.953125"/>
    </g>
   </g>
   <g id="legend_1">
    <g id="patch_7">
     <path d="M 214.18875 302.584 
L 407.72 302.584 
Q 409.72 302.584 409.72 300.584 
L 409.72 228.193375 
Q 409.72 226.193375 407.72 226.193375 
L 214.18875 226.193375 
Q 212.18875 226.193375 212.18875 228.193375 
L 212.18875 300.584 
Q 212.18875 302.584 214.18875 302.584 
z
" style="fill: #ffffff; opacity: 0.8; stroke: #cccccc; stroke-linejoin: miter"/>
    </g>
    <g id="line2d_24">
     <path d="M 216.18875 234.291812 
L 226.18875 234.291812 
L 236.18875 234.291812 
" style="fill: none; stroke: #1f77b4; stroke-width: 1.5; stroke-linecap: square"/>
    </g>
    <g id="text_22">
     <!-- Train Accuracy -->
     <g transform="translate(244.18875 237.791812) scale(0.1 -0.1)">
      <defs>
       <path id="DejaVuSans-54" d="M -19 4666 
L 3928 4666 
L 3928 4134 
L 2272 4134 
L 2272 0 
L 1638 0 
L 1638 4134 
L -19 4134 
L -19 4666 
z
" transform="scale(0.015625)"/>
      </defs>
      <use xlink:href="#DejaVuSans-54"/>
      <use xlink:href="#DejaVuSans-72" x="46.333984"/>
      <use xlink:href="#DejaVuSans-61" x="87.447266"/>
      <use xlink:href="#DejaVuSans-69" x="148.726562"/>
      <use xlink:href="#DejaVuSans-6e" x="176.509766"/>
      <use xlink:href="#DejaVuSans-20" x="239.888672"/>
      <use xlink:href="#DejaVuSans-41" x="271.675781"/>
      <use xlink:href="#DejaVuSans-63" x="338.333984"/>
      <use xlink:href="#DejaVuSans-63" x="393.314453"/>
      <use xlink:href="#DejaVuSans-75" x="448.294922"/>
      <use xlink:href="#DejaVuSans-72" x="511.673828"/>
      <use xlink:href="#DejaVuSans-61" x="552.787109"/>
      <use xlink:href="#DejaVuSans-63" x="614.066406"/>
      <use xlink:href="#DejaVuSans-79" x="669.046875"/>
     </g>
    </g>
    <g id="line2d_25">
     <path d="M 216.18875 248.969937 
L 226.18875 248.969937 
L 236.18875 248.969937 
" style="fill: none; stroke: #ff7f0e; stroke-width: 1.5; stroke-linecap: square"/>
    </g>
    <g id="text_23">
     <!-- Validation Accuracy -->
     <g transform="translate(244.18875 252.469937) scale(0.1 -0.1)">
      <defs>
       <path id="DejaVuSans-56" d="M 1831 0 
L 50 4666 
L 709 4666 
L 2188 738 
L 3669 4666 
L 4325 4666 
L 2547 0 
L 1831 0 
z
" transform="scale(0.015625)"/>
       <path id="DejaVuSans-6c" d="M 603 4863 
L 1178 4863 
L 1178 0 
L 603 0 
L 603 4863 
z
" transform="scale(0.015625)"/>
       <path id="DejaVuSans-64" d="M 2906 2969 
L 2906 4863 
L 3481 4863 
L 3481 0 
L 2906 0 
L 2906 525 
Q 2725 213 2448 61 
Q 2172 -91 1784 -91 
Q 1150 -91 751 415 
Q 353 922 353 1747 
Q 353 2572 751 3078 
Q 1150 3584 1784 3584 
Q 2172 3584 2448 3432 
Q 2725 3281 2906 2969 
z
M 947 1747 
Q 947 1113 1208 752 
Q 1469 391 1925 391 
Q 2381 391 2643 752 
Q 2906 1113 2906 1747 
Q 2906 2381 2643 2742 
Q 2381 3103 1925 3103 
Q 1469 3103 1208 2742 
Q 947 2381 947 1747 
z
" transform="scale(0.015625)"/>
       <path id="DejaVuSans-74" d="M 1172 4494 
L 1172 3500 
L 2356 3500 
L 2356 3053 
L 1172 3053 
L 1172 1153 
Q 1172 725 1289 603 
Q 1406 481 1766 481 
L 2356 481 
L 2356 0 
L 1766 0 
Q 1100 0 847 248 
Q 594 497 594 1153 
L 594 3053 
L 172 3053 
L 172 3500 
L 594 3500 
L 594 4494 
L 1172 4494 
z
" transform="scale(0.015625)"/>
      </defs>
      <use xlink:href="#DejaVuSans-56"/>
      <use xlink:href="#DejaVuSans-61" x="60.658203"/>
      <use xlink:href="#DejaVuSans-6c" x="121.9375"/>
      <use xlink:href="#DejaVuSans-69" x="149.720703"/>
      <use xlink:href="#DejaVuSans-64" x="177.503906"/>
      <use xlink:href="#DejaVuSans-61" x="240.980469"/>
      <use xlink:href="#DejaVuSans-74" x="302.259766"/>
      <use xlink:href="#DejaVuSans-69" x="341.46875"/>
      <use xlink:href="#DejaVuSans-6f" x="369.251953"/>
      <use xlink:href="#DejaVuSans-6e" x="430.433594"/>
      <use xlink:href="#DejaVuSans-20" x="493.8125"/>
      <use xlink:href="#DejaVuSans-41" x="525.599609"/>
      <use xlink:href="#DejaVuSans-63" x="592.257812"/>
      <use xlink:href="#DejaVuSans-63" x="647.238281"/>
      <use xlink:href="#DejaVuSans-75" x="702.21875"/>
      <use xlink:href="#DejaVuSans-72" x="765.597656"/>
      <use xlink:href="#DejaVuSans-61" x="806.710938"/>
      <use xlink:href="#DejaVuSans-63" x="867.990234"/>
      <use xlink:href="#DejaVuSans-79" x="922.970703"/>
     </g>
    </g>
    <g id="line2d_26">
     <path d="M 216.18875 263.648062 
L 226.18875 263.648062 
L 236.18875 263.648062 
" style="fill: none; stroke: #2ca02c; stroke-width: 1.5; stroke-linecap: square"/>
    </g>
    <g id="text_24">
     <!-- Robust Validation Accuracy -->
     <g transform="translate(244.18875 267.148062) scale(0.1 -0.1)">
      <defs>
       <path id="DejaVuSans-52" d="M 2841 2188 
Q 3044 2119 3236 1894 
Q 3428 1669 3622 1275 
L 4263 0 
L 3584 0 
L 2988 1197 
Q 2756 1666 2539 1819 
Q 2322 1972 1947 1972 
L 1259 1972 
L 1259 0 
L 628 0 
L 628 4666 
L 2053 4666 
Q 2853 4666 3247 4331 
Q 3641 3997 3641 3322 
Q 3641 2881 3436 2590 
Q 3231 2300 2841 2188 
z
M 1259 4147 
L 1259 2491 
L 2053 2491 
Q 2509 2491 2742 2702 
Q 2975 2913 2975 3322 
Q 2975 3731 2742 3939 
Q 2509 4147 2053 4147 
L 1259 4147 
z
" transform="scale(0.015625)"/>
       <path id="DejaVuSans-62" d="M 3116 1747 
Q 3116 2381 2855 2742 
Q 2594 3103 2138 3103 
Q 1681 3103 1420 2742 
Q 1159 2381 1159 1747 
Q 1159 1113 1420 752 
Q 1681 391 2138 391 
Q 2594 391 2855 752 
Q 3116 1113 3116 1747 
z
M 1159 2969 
Q 1341 3281 1617 3432 
Q 1894 3584 2278 3584 
Q 2916 3584 3314 3078 
Q 3713 2572 3713 1747 
Q 3713 922 3314 415 
Q 2916 -91 2278 -91 
Q 1894 -91 1617 61 
Q 1341 213 1159 525 
L 1159 0 
L 581 0 
L 581 4863 
L 1159 4863 
L 1159 2969 
z
" transform="scale(0.015625)"/>
      </defs>
      <use xlink:href="#DejaVuSans-52"/>
      <use xlink:href="#DejaVuSans-6f" x="64.982422"/>
      <use xlink:href="#DejaVuSans-62" x="126.164062"/>
      <use xlink:href="#DejaVuSans-75" x="189.640625"/>
      <use xlink:href="#DejaVuSans-73" x="253.019531"/>
      <use xlink:href="#DejaVuSans-74" x="305.119141"/>
      <use xlink:href="#DejaVuSans-20" x="344.328125"/>
      <use xlink:href="#DejaVuSans-56" x="376.115234"/>
      <use xlink:href="#DejaVuSans-61" x="436.773438"/>
      <use xlink:href="#DejaVuSans-6c" x="498.052734"/>
      <use xlink:href="#DejaVuSans-69" x="525.835938"/>
      <use xlink:href="#DejaVuSans-64" x="553.619141"/>
      <use xlink:href="#DejaVuSans-61" x="617.095703"/>
      <use xlink:href="#DejaVuSans-74" x="678.375"/>
      <use xlink:href="#DejaVuSans-69" x="717.583984"/>
      <use xlink:href="#DejaVuSans-6f" x="745.367188"/>
      <use xlink:href="#DejaVuSans-6e" x="806.548828"/>
      <use xlink:href="#DejaVuSans-20" x="869.927734"/>
      <use xlink:href="#DejaVuSans-41" x="901.714844"/>
      <use xlink:href="#DejaVuSans-63" x="968.373047"/>
      <use xlink:href="#DejaVuSans-63" x="1023.353516"/>
      <use xlink:href="#DejaVuSans-75" x="1078.333984"/>
      <use xlink:href="#DejaVuSans-72" x="1141.712891"/>
      <use xlink:href="#DejaVuSans-61" x="1182.826172"/>
      <use xlink:href="#DejaVuSans-63" x="1244.105469"/>
      <use xlink:href="#DejaVuSans-79" x="1299.085938"/>
     </g>
    </g>
    <g id="line2d_27">
     <path d="M 216.18875 278.326188 
L 226.18875 278.326188 
L 236.18875 278.326188 
" style="fill: none; stroke: #d62728; stroke-width: 1.5; stroke-linecap: square"/>
    </g>
    <g id="text_25">
     <!-- SWA Validation Accuracy -->
     <g transform="translate(244.18875 281.826188) scale(0.1 -0.1)">
      <defs>
       <path id="DejaVuSans-53" d="M 3425 4513 
L 3425 3897 
Q 3066 4069 2747 4153 
Q 2428 4238 2131 4238 
Q 1616 4238 1336 4038 
Q 1056 3838 1056 3469 
Q 1056 3159 1242 3001 
Q 1428 2844 1947 2747 
L 2328 2669 
Q 3034 2534 3370 2195 
Q 3706 1856 3706 1288 
Q 3706 609 3251 259 
Q 2797 -91 1919 -91 
Q 1588 -91 1214 -16 
Q 841 59 441 206 
L 441 856 
Q 825 641 1194 531 
Q 1563 422 1919 422 
Q 2459 422 2753 634 
Q 3047 847 3047 1241 
Q 3047 1584 2836 1778 
Q 2625 1972 2144 2069 
L 1759 2144 
Q 1053 2284 737 2584 
Q 422 2884 422 3419 
Q 422 4038 858 4394 
Q 1294 4750 2059 4750 
Q 2388 4750 2728 4690 
Q 3069 4631 3425 4513 
z
" transform="scale(0.015625)"/>
       <path id="DejaVuSans-57" d="M 213 4666 
L 850 4666 
L 1831 722 
L 2809 4666 
L 3519 4666 
L 4500 722 
L 5478 4666 
L 6119 4666 
L 4947 0 
L 4153 0 
L 3169 4050 
L 2175 0 
L 1381 0 
L 213 4666 
z
" transform="scale(0.015625)"/>
      </defs>
      <use xlink:href="#DejaVuSans-53"/>
      <use xlink:href="#DejaVuSans-57" x="63.476562"/>
      <use xlink:href="#DejaVuSans-41" x="156.853516"/>
      <use xlink:href="#DejaVuSans-20" x="225.261719"/>
      <use xlink:href="#DejaVuSans-56" x="257.048828"/>
      <use xlink:href="#DejaVuSans-61" x="317.707031"/>
      <use xlink:href="#DejaVuSans-6c" x="378.986328"/>
      <use xlink:href="#DejaVuSans-69" x="406.769531"/>
      <use xlink:href="#DejaVuSans-64" x="434.552734"/>
      <use xlink:href="#DejaVuSans-61" x="498.029297"/>
      <use xlink:href="#DejaVuSans-74" x="559.308594"/>
      <use xlink:href="#DejaVuSans-69" x="598.517578"/>
      <use xlink:href="#DejaVuSans-6f" x="626.300781"/>
      <use xlink:href="#DejaVuSans-6e" x="687.482422"/>
      <use xlink:href="#DejaVuSans-20" x="750.861328"/>
      <use xlink:href="#DejaVuSans-41" x="782.648438"/>
      <use xlink:href="#DejaVuSans-63" x="849.306641"/>
      <use xlink:href="#DejaVuSans-63" x="904.287109"/>
      <use xlink:href="#DejaVuSans-75" x="959.267578"/>
      <use xlink:href="#DejaVuSans-72" x="1022.646484"/>
      <use xlink:href="#DejaVuSans-61" x="1063.759766"/>
      <use xlink:href="#DejaVuSans-63" x="1125.039062"/>
      <use xlink:href="#DejaVuSans-79" x="1180.019531"/>
     </g>
    </g>
    <g id="line2d_28">
     <path d="M 216.18875 293.004312 
L 226.18875 293.004312 
L 236.18875 293.004312 
" style="fill: none; stroke: #9467bd; stroke-width: 1.5; stroke-linecap: square"/>
    </g>
    <g id="text_26">
     <!-- SWA Robust Validation Accuracy -->
     <g transform="translate(244.18875 296.504312) scale(0.1 -0.1)">
      <use xlink:href="#DejaVuSans-53"/>
      <use xlink:href="#DejaVuSans-57" x="63.476562"/>
      <use xlink:href="#DejaVuSans-41" x="156.853516"/>
      <use xlink:href="#DejaVuSans-20" x="225.261719"/>
      <use xlink:href="#DejaVuSans-52" x="257.048828"/>
      <use xlink:href="#DejaVuSans-6f" x="322.03125"/>
      <use xlink:href="#DejaVuSans-62" x="383.212891"/>
      <use xlink:href="#DejaVuSans-75" x="446.689453"/>
      <use xlink:href="#DejaVuSans-73" x="510.068359"/>
      <use xlink:href="#DejaVuSans-74" x="562.167969"/>
      <use xlink:href="#DejaVuSans-20" x="601.376953"/>
      <use xlink:href="#DejaVuSans-56" x="633.164062"/>
      <use xlink:href="#DejaVuSans-61" x="693.822266"/>
      <use xlink:href="#DejaVuSans-6c" x="755.101562"/>
      <use xlink:href="#DejaVuSans-69" x="782.884766"/>
      <use xlink:href="#DejaVuSans-64" x="810.667969"/>
      <use xlink:href="#DejaVuSans-61" x="874.144531"/>
      <use xlink:href="#DejaVuSans-74" x="935.423828"/>
      <use xlink:href="#DejaVuSans-69" x="974.632812"/>
      <use xlink:href="#DejaVuSans-6f" x="1002.416016"/>
      <use xlink:href="#DejaVuSans-6e" x="1063.597656"/>
      <use xlink:href="#DejaVuSans-20" x="1126.976562"/>
      <use xlink:href="#DejaVuSans-41" x="1158.763672"/>
      <use xlink:href="#DejaVuSans-63" x="1225.421875"/>
      <use xlink:href="#DejaVuSans-63" x="1280.402344"/>
      <use xlink:href="#DejaVuSans-75" x="1335.382812"/>
      <use xlink:href="#DejaVuSans-72" x="1398.761719"/>
      <use xlink:href="#DejaVuSans-61" x="1439.875"/>
      <use xlink:href="#DejaVuSans-63" x="1501.154297"/>
      <use xlink:href="#DejaVuSans-79" x="1556.134766"/>
     </g>
    </g>
   </g>
  </g>
 </g>
 <defs>
  <clipPath id="p4a3dd50d6e">
   <rect x="57.6" y="41.472" width="357.12" height="266.112"/>
  </clipPath>
 </defs>
</svg>
