<?xml version="1.0" encoding="utf-8" standalone="no"?>
<!DOCTYPE svg PUBLIC "-//W3C//DTD SVG 1.1//EN"
  "http://www.w3.org/Graphics/SVG/1.1/DTD/svg11.dtd">
<svg xmlns:xlink="http://www.w3.org/1999/xlink" width="460.8pt" height="345.6pt" viewBox="0 0 460.8 345.6" xmlns="http://www.w3.org/2000/svg" version="1.1">
 <metadata>
  <rdf:RDF xmlns:dc="http://purl.org/dc/elements/1.1/" xmlns:cc="http://creativecommons.org/ns#" xmlns:rdf="http://www.w3.org/1999/02/22-rdf-syntax-ns#">
   <cc:Work>
    <dc:type rdf:resource="http://purl.org/dc/dcmitype/StillImage"/>
    <dc:date>2025-05-07T01:10:44.196581</dc:date>
    <dc:format>image/svg+xml</dc:format>
    <dc:creator>
     <cc:Agent>
      <dc:title>Matplotlib v3.9.1, https://matplotlib.org/</dc:title>
     </cc:Agent>
    </dc:creator>
   </cc:Work>
  </rdf:RDF>
 </metadata>
 <defs>
  <style type="text/css">*{stroke-linejoin: round; stroke-linecap: butt}</style>
 </defs>
 <g id="figure_1">
  <g id="patch_1">
   <path d="M 0 345.6 
L 460.8 345.6 
L 460.8 0 
L 0 0 
z
" style="fill: #ffffff"/>
  </g>
  <g id="axes_1">
   <g id="patch_2">
    <path d="M 57.6 307.584 
L 414.72 307.584 
L 414.72 41.472 
L 57.6 41.472 
z
" style="fill: #ffffff"/>
   </g>
   <g id="matplotlib.axis_1">
    <g id="xtick_1">
     <g id="line2d_1">
      <defs>
       <path id="mc8de876b82" d="M 0 0 
L 0 3.5 
" style="stroke: #000000; stroke-width: 0.8"/>
      </defs>
      <g>
       <use xlink:href="#mc8de876b82" x="73.832727" y="307.584" style="stroke: #000000; stroke-width: 0.8"/>
      </g>
     </g>
     <g id="text_1">
      <!-- 1 -->
      <g transform="translate(70.651477 322.182437) scale(0.1 -0.1)">
       <defs>
        <path id="DejaVuSans-31" d="M 794 531 
L 1825 531 
L 1825 4091 
L 703 3866 
L 703 4441 
L 1819 4666 
L 2450 4666 
L 2450 531 
L 3481 531 
L 3481 0 
L 794 0 
L 794 531 
z
" transform="scale(0.015625)"/>
       </defs>
       <use xlink:href="#DejaVuSans-31"/>
      </g>
     </g>
    </g>
    <g id="xtick_2">
     <g id="line2d_2">
      <g>
       <use xlink:href="#mc8de876b82" x="109.664165" y="307.584" style="stroke: #000000; stroke-width: 0.8"/>
      </g>
     </g>
     <g id="text_2">
      <!-- 34 -->
      <g transform="translate(103.301665 322.182437) scale(0.1 -0.1)">
       <defs>
        <path id="DejaVuSans-33" d="M 2597 2516 
Q 3050 2419 3304 2112 
Q 3559 1806 3559 1356 
Q 3559 666 3084 287 
Q 2609 -91 1734 -91 
Q 1441 -91 1130 -33 
Q 819 25 488 141 
L 488 750 
Q 750 597 1062 519 
Q 1375 441 1716 441 
Q 2309 441 2620 675 
Q 2931 909 2931 1356 
Q 2931 1769 2642 2001 
Q 2353 2234 1838 2234 
L 1294 2234 
L 1294 2753 
L 1863 2753 
Q 2328 2753 2575 2939 
Q 2822 3125 2822 3475 
Q 2822 3834 2567 4026 
Q 2313 4219 1838 4219 
Q 1578 4219 1281 4162 
Q 984 4106 628 3988 
L 628 4550 
Q 988 4650 1302 4700 
Q 1616 4750 1894 4750 
Q 2613 4750 3031 4423 
Q 3450 4097 3450 3541 
Q 3450 3153 3228 2886 
Q 3006 2619 2597 2516 
z
" transform="scale(0.015625)"/>
        <path id="DejaVuSans-34" d="M 2419 4116 
L 825 1625 
L 2419 1625 
L 2419 4116 
z
M 2253 4666 
L 3047 4666 
L 3047 1625 
L 3713 1625 
L 3713 1100 
L 3047 1100 
L 3047 0 
L 2419 0 
L 2419 1100 
L 313 1100 
L 313 1709 
L 2253 4666 
z
" transform="scale(0.015625)"/>
       </defs>
       <use xlink:href="#DejaVuSans-33"/>
       <use xlink:href="#DejaVuSans-34" x="63.623047"/>
      </g>
     </g>
    </g>
    <g id="xtick_3">
     <g id="line2d_3">
      <g>
       <use xlink:href="#mc8de876b82" x="145.495604" y="307.584" style="stroke: #000000; stroke-width: 0.8"/>
      </g>
     </g>
     <g id="text_3">
      <!-- 67 -->
      <g transform="translate(139.133104 322.182437) scale(0.1 -0.1)">
       <defs>
        <path id="DejaVuSans-36" d="M 2113 2584 
Q 1688 2584 1439 2293 
Q 1191 2003 1191 1497 
Q 1191 994 1439 701 
Q 1688 409 2113 409 
Q 2538 409 2786 701 
Q 3034 994 3034 1497 
Q 3034 2003 2786 2293 
Q 2538 2584 2113 2584 
z
M 3366 4563 
L 3366 3988 
Q 3128 4100 2886 4159 
Q 2644 4219 2406 4219 
Q 1781 4219 1451 3797 
Q 1122 3375 1075 2522 
Q 1259 2794 1537 2939 
Q 1816 3084 2150 3084 
Q 2853 3084 3261 2657 
Q 3669 2231 3669 1497 
Q 3669 778 3244 343 
Q 2819 -91 2113 -91 
Q 1303 -91 875 529 
Q 447 1150 447 2328 
Q 447 3434 972 4092 
Q 1497 4750 2381 4750 
Q 2619 4750 2861 4703 
Q 3103 4656 3366 4563 
z
" transform="scale(0.015625)"/>
        <path id="DejaVuSans-37" d="M 525 4666 
L 3525 4666 
L 3525 4397 
L 1831 0 
L 1172 0 
L 2766 4134 
L 525 4134 
L 525 4666 
z
" transform="scale(0.015625)"/>
       </defs>
       <use xlink:href="#DejaVuSans-36"/>
       <use xlink:href="#DejaVuSans-37" x="63.623047"/>
      </g>
     </g>
    </g>
    <g id="xtick_4">
     <g id="line2d_4">
      <g>
       <use xlink:href="#mc8de876b82" x="181.327042" y="307.584" style="stroke: #000000; stroke-width: 0.8"/>
      </g>
     </g>
     <g id="text_4">
      <!-- 100 -->
      <g transform="translate(171.783292 322.182437) scale(0.1 -0.1)">
       <defs>
        <path id="DejaVuSans-30" d="M 2034 4250 
Q 1547 4250 1301 3770 
Q 1056 3291 1056 2328 
Q 1056 1369 1301 889 
Q 1547 409 2034 409 
Q 2525 409 2770 889 
Q 3016 1369 3016 2328 
Q 3016 3291 2770 3770 
Q 2525 4250 2034 4250 
z
M 2034 4750 
Q 2819 4750 3233 4129 
Q 3647 3509 3647 2328 
Q 3647 1150 3233 529 
Q 2819 -91 2034 -91 
Q 1250 -91 836 529 
Q 422 1150 422 2328 
Q 422 3509 836 4129 
Q 1250 4750 2034 4750 
z
" transform="scale(0.015625)"/>
       </defs>
       <use xlink:href="#DejaVuSans-31"/>
       <use xlink:href="#DejaVuSans-30" x="63.623047"/>
       <use xlink:href="#DejaVuSans-30" x="127.246094"/>
      </g>
     </g>
    </g>
    <g id="xtick_5">
     <g id="line2d_5">
      <g>
       <use xlink:href="#mc8de876b82" x="217.15848" y="307.584" style="stroke: #000000; stroke-width: 0.8"/>
      </g>
     </g>
     <g id="text_5">
      <!-- 133 -->
      <g transform="translate(207.61473 322.182437) scale(0.1 -0.1)">
       <use xlink:href="#DejaVuSans-31"/>
       <use xlink:href="#DejaVuSans-33" x="63.623047"/>
       <use xlink:href="#DejaVuSans-33" x="127.246094"/>
      </g>
     </g>
    </g>
    <g id="xtick_6">
     <g id="line2d_6">
      <g>
       <use xlink:href="#mc8de876b82" x="254.075719" y="307.584" style="stroke: #000000; stroke-width: 0.8"/>
      </g>
     </g>
     <g id="text_6">
      <!-- 167 -->
      <g transform="translate(244.531969 322.182437) scale(0.1 -0.1)">
       <use xlink:href="#DejaVuSans-31"/>
       <use xlink:href="#DejaVuSans-36" x="63.623047"/>
       <use xlink:href="#DejaVuSans-37" x="127.246094"/>
      </g>
     </g>
    </g>
    <g id="xtick_7">
     <g id="line2d_7">
      <g>
       <use xlink:href="#mc8de876b82" x="289.907157" y="307.584" style="stroke: #000000; stroke-width: 0.8"/>
      </g>
     </g>
     <g id="text_7">
      <!-- 200 -->
      <g transform="translate(280.363407 322.182437) scale(0.1 -0.1)">
       <defs>
        <path id="DejaVuSans-32" d="M 1228 531 
L 3431 531 
L 3431 0 
L 469 0 
L 469 531 
Q 828 903 1448 1529 
Q 2069 2156 2228 2338 
Q 2531 2678 2651 2914 
Q 2772 3150 2772 3378 
Q 2772 3750 2511 3984 
Q 2250 4219 1831 4219 
Q 1534 4219 1204 4116 
Q 875 4013 500 3803 
L 500 4441 
Q 881 4594 1212 4672 
Q 1544 4750 1819 4750 
Q 2544 4750 2975 4387 
Q 3406 4025 3406 3419 
Q 3406 3131 3298 2873 
Q 3191 2616 2906 2266 
Q 2828 2175 2409 1742 
Q 1991 1309 1228 531 
z
" transform="scale(0.015625)"/>
       </defs>
       <use xlink:href="#DejaVuSans-32"/>
       <use xlink:href="#DejaVuSans-30" x="63.623047"/>
       <use xlink:href="#DejaVuSans-30" x="127.246094"/>
      </g>
     </g>
    </g>
    <g id="xtick_8">
     <g id="line2d_8">
      <g>
       <use xlink:href="#mc8de876b82" x="325.738595" y="307.584" style="stroke: #000000; stroke-width: 0.8"/>
      </g>
     </g>
     <g id="text_8">
      <!-- 233 -->
      <g transform="translate(316.194845 322.182437) scale(0.1 -0.1)">
       <use xlink:href="#DejaVuSans-32"/>
       <use xlink:href="#DejaVuSans-33" x="63.623047"/>
       <use xlink:href="#DejaVuSans-33" x="127.246094"/>
      </g>
     </g>
    </g>
    <g id="xtick_9">
     <g id="line2d_9">
      <g>
       <use xlink:href="#mc8de876b82" x="361.570033" y="307.584" style="stroke: #000000; stroke-width: 0.8"/>
      </g>
     </g>
     <g id="text_9">
      <!-- 266 -->
      <g transform="translate(352.026283 322.182437) scale(0.1 -0.1)">
       <use xlink:href="#DejaVuSans-32"/>
       <use xlink:href="#DejaVuSans-36" x="63.623047"/>
       <use xlink:href="#DejaVuSans-36" x="127.246094"/>
      </g>
     </g>
    </g>
    <g id="xtick_10">
     <g id="line2d_10">
      <g>
       <use xlink:href="#mc8de876b82" x="398.487273" y="307.584" style="stroke: #000000; stroke-width: 0.8"/>
      </g>
     </g>
     <g id="text_10">
      <!-- 300 -->
      <g transform="translate(388.943523 322.182437) scale(0.1 -0.1)">
       <use xlink:href="#DejaVuSans-33"/>
       <use xlink:href="#DejaVuSans-30" x="63.623047"/>
       <use xlink:href="#DejaVuSans-30" x="127.246094"/>
      </g>
     </g>
    </g>
    <g id="text_11">
     <!-- Epochs -->
     <g transform="translate(218.244375 335.860562) scale(0.1 -0.1)">
      <defs>
       <path id="DejaVuSans-45" d="M 628 4666 
L 3578 4666 
L 3578 4134 
L 1259 4134 
L 1259 2753 
L 3481 2753 
L 3481 2222 
L 1259 2222 
L 1259 531 
L 3634 531 
L 3634 0 
L 628 0 
L 628 4666 
z
" transform="scale(0.015625)"/>
       <path id="DejaVuSans-70" d="M 1159 525 
L 1159 -1331 
L 581 -1331 
L 581 3500 
L 1159 3500 
L 1159 2969 
Q 1341 3281 1617 3432 
Q 1894 3584 2278 3584 
Q 2916 3584 3314 3078 
Q 3713 2572 3713 1747 
Q 3713 922 3314 415 
Q 2916 -91 2278 -91 
Q 1894 -91 1617 61 
Q 1341 213 1159 525 
z
M 3116 1747 
Q 3116 2381 2855 2742 
Q 2594 3103 2138 3103 
Q 1681 3103 1420 2742 
Q 1159 2381 1159 1747 
Q 1159 1113 1420 752 
Q 1681 391 2138 391 
Q 2594 391 2855 752 
Q 3116 1113 3116 1747 
z
" transform="scale(0.015625)"/>
       <path id="DejaVuSans-6f" d="M 1959 3097 
Q 1497 3097 1228 2736 
Q 959 2375 959 1747 
Q 959 1119 1226 758 
Q 1494 397 1959 397 
Q 2419 397 2687 759 
Q 2956 1122 2956 1747 
Q 2956 2369 2687 2733 
Q 2419 3097 1959 3097 
z
M 1959 3584 
Q 2709 3584 3137 3096 
Q 3566 2609 3566 1747 
Q 3566 888 3137 398 
Q 2709 -91 1959 -91 
Q 1206 -91 779 398 
Q 353 888 353 1747 
Q 353 2609 779 3096 
Q 1206 3584 1959 3584 
z
" transform="scale(0.015625)"/>
       <path id="DejaVuSans-63" d="M 3122 3366 
L 3122 2828 
Q 2878 2963 2633 3030 
Q 2388 3097 2138 3097 
Q 1578 3097 1268 2742 
Q 959 2388 959 1747 
Q 959 1106 1268 751 
Q 1578 397 2138 397 
Q 2388 397 2633 464 
Q 2878 531 3122 666 
L 3122 134 
Q 2881 22 2623 -34 
Q 2366 -91 2075 -91 
Q 1284 -91 818 406 
Q 353 903 353 1747 
Q 353 2603 823 3093 
Q 1294 3584 2113 3584 
Q 2378 3584 2631 3529 
Q 2884 3475 3122 3366 
z
" transform="scale(0.015625)"/>
       <path id="DejaVuSans-68" d="M 3513 2113 
L 3513 0 
L 2938 0 
L 2938 2094 
Q 2938 2591 2744 2837 
Q 2550 3084 2163 3084 
Q 1697 3084 1428 2787 
Q 1159 2491 1159 1978 
L 1159 0 
L 581 0 
L 581 4863 
L 1159 4863 
L 1159 2956 
Q 1366 3272 1645 3428 
Q 1925 3584 2291 3584 
Q 2894 3584 3203 3211 
Q 3513 2838 3513 2113 
z
" transform="scale(0.015625)"/>
       <path id="DejaVuSans-73" d="M 2834 3397 
L 2834 2853 
Q 2591 2978 2328 3040 
Q 2066 3103 1784 3103 
Q 1356 3103 1142 2972 
Q 928 2841 928 2578 
Q 928 2378 1081 2264 
Q 1234 2150 1697 2047 
L 1894 2003 
Q 2506 1872 2764 1633 
Q 3022 1394 3022 966 
Q 3022 478 2636 193 
Q 2250 -91 1575 -91 
Q 1294 -91 989 -36 
Q 684 19 347 128 
L 347 722 
Q 666 556 975 473 
Q 1284 391 1588 391 
Q 1994 391 2212 530 
Q 2431 669 2431 922 
Q 2431 1156 2273 1281 
Q 2116 1406 1581 1522 
L 1381 1569 
Q 847 1681 609 1914 
Q 372 2147 372 2553 
Q 372 3047 722 3315 
Q 1072 3584 1716 3584 
Q 2034 3584 2315 3537 
Q 2597 3491 2834 3397 
z
" transform="scale(0.015625)"/>
      </defs>
      <use xlink:href="#DejaVuSans-45"/>
      <use xlink:href="#DejaVuSans-70" x="63.183594"/>
      <use xlink:href="#DejaVuSans-6f" x="126.660156"/>
      <use xlink:href="#DejaVuSans-63" x="187.841797"/>
      <use xlink:href="#DejaVuSans-68" x="242.822266"/>
      <use xlink:href="#DejaVuSans-73" x="306.201172"/>
     </g>
    </g>
   </g>
   <g id="matplotlib.axis_2">
    <g id="ytick_1">
     <g id="line2d_11">
      <defs>
       <path id="mf7ad01e2a4" d="M 0 0 
L -3.5 0 
" style="stroke: #000000; stroke-width: 0.8"/>
      </defs>
      <g>
       <use xlink:href="#mf7ad01e2a4" x="57.6" y="275.587733" style="stroke: #000000; stroke-width: 0.8"/>
      </g>
     </g>
     <g id="text_12">
      <!-- 50 -->
      <g transform="translate(37.875 279.386952) scale(0.1 -0.1)">
       <defs>
        <path id="DejaVuSans-35" d="M 691 4666 
L 3169 4666 
L 3169 4134 
L 1269 4134 
L 1269 2991 
Q 1406 3038 1543 3061 
Q 1681 3084 1819 3084 
Q 2600 3084 3056 2656 
Q 3513 2228 3513 1497 
Q 3513 744 3044 326 
Q 2575 -91 1722 -91 
Q 1428 -91 1123 -41 
Q 819 9 494 109 
L 494 744 
Q 775 591 1075 516 
Q 1375 441 1709 441 
Q 2250 441 2565 725 
Q 2881 1009 2881 1497 
Q 2881 1984 2565 2268 
Q 2250 2553 1709 2553 
Q 1456 2553 1204 2497 
Q 953 2441 691 2322 
L 691 4666 
z
" transform="scale(0.015625)"/>
       </defs>
       <use xlink:href="#DejaVuSans-35"/>
       <use xlink:href="#DejaVuSans-30" x="63.623047"/>
      </g>
     </g>
    </g>
    <g id="ytick_2">
     <g id="line2d_12">
      <g>
       <use xlink:href="#mf7ad01e2a4" x="57.6" y="230.153334" style="stroke: #000000; stroke-width: 0.8"/>
      </g>
     </g>
     <g id="text_13">
      <!-- 60 -->
      <g transform="translate(37.875 233.952553) scale(0.1 -0.1)">
       <use xlink:href="#DejaVuSans-36"/>
       <use xlink:href="#DejaVuSans-30" x="63.623047"/>
      </g>
     </g>
    </g>
    <g id="ytick_3">
     <g id="line2d_13">
      <g>
       <use xlink:href="#mf7ad01e2a4" x="57.6" y="184.718936" style="stroke: #000000; stroke-width: 0.8"/>
      </g>
     </g>
     <g id="text_14">
      <!-- 70 -->
      <g transform="translate(37.875 188.518154) scale(0.1 -0.1)">
       <use xlink:href="#DejaVuSans-37"/>
       <use xlink:href="#DejaVuSans-30" x="63.623047"/>
      </g>
     </g>
    </g>
    <g id="ytick_4">
     <g id="line2d_14">
      <g>
       <use xlink:href="#mf7ad01e2a4" x="57.6" y="139.284537" style="stroke: #000000; stroke-width: 0.8"/>
      </g>
     </g>
     <g id="text_15">
      <!-- 80 -->
      <g transform="translate(37.875 143.083756) scale(0.1 -0.1)">
       <defs>
        <path id="DejaVuSans-38" d="M 2034 2216 
Q 1584 2216 1326 1975 
Q 1069 1734 1069 1313 
Q 1069 891 1326 650 
Q 1584 409 2034 409 
Q 2484 409 2743 651 
Q 3003 894 3003 1313 
Q 3003 1734 2745 1975 
Q 2488 2216 2034 2216 
z
M 1403 2484 
Q 997 2584 770 2862 
Q 544 3141 544 3541 
Q 544 4100 942 4425 
Q 1341 4750 2034 4750 
Q 2731 4750 3128 4425 
Q 3525 4100 3525 3541 
Q 3525 3141 3298 2862 
Q 3072 2584 2669 2484 
Q 3125 2378 3379 2068 
Q 3634 1759 3634 1313 
Q 3634 634 3220 271 
Q 2806 -91 2034 -91 
Q 1263 -91 848 271 
Q 434 634 434 1313 
Q 434 1759 690 2068 
Q 947 2378 1403 2484 
z
M 1172 3481 
Q 1172 3119 1398 2916 
Q 1625 2713 2034 2713 
Q 2441 2713 2670 2916 
Q 2900 3119 2900 3481 
Q 2900 3844 2670 4047 
Q 2441 4250 2034 4250 
Q 1625 4250 1398 4047 
Q 1172 3844 1172 3481 
z
" transform="scale(0.015625)"/>
       </defs>
       <use xlink:href="#DejaVuSans-38"/>
       <use xlink:href="#DejaVuSans-30" x="63.623047"/>
      </g>
     </g>
    </g>
    <g id="ytick_5">
     <g id="line2d_15">
      <g>
       <use xlink:href="#mf7ad01e2a4" x="57.6" y="93.850138" style="stroke: #000000; stroke-width: 0.8"/>
      </g>
     </g>
     <g id="text_16">
      <!-- 90 -->
      <g transform="translate(37.875 97.649357) scale(0.1 -0.1)">
       <defs>
        <path id="DejaVuSans-39" d="M 703 97 
L 703 672 
Q 941 559 1184 500 
Q 1428 441 1663 441 
Q 2288 441 2617 861 
Q 2947 1281 2994 2138 
Q 2813 1869 2534 1725 
Q 2256 1581 1919 1581 
Q 1219 1581 811 2004 
Q 403 2428 403 3163 
Q 403 3881 828 4315 
Q 1253 4750 1959 4750 
Q 2769 4750 3195 4129 
Q 3622 3509 3622 2328 
Q 3622 1225 3098 567 
Q 2575 -91 1691 -91 
Q 1453 -91 1209 -44 
Q 966 3 703 97 
z
M 1959 2075 
Q 2384 2075 2632 2365 
Q 2881 2656 2881 3163 
Q 2881 3666 2632 3958 
Q 2384 4250 1959 4250 
Q 1534 4250 1286 3958 
Q 1038 3666 1038 3163 
Q 1038 2656 1286 2365 
Q 1534 2075 1959 2075 
z
" transform="scale(0.015625)"/>
       </defs>
       <use xlink:href="#DejaVuSans-39"/>
       <use xlink:href="#DejaVuSans-30" x="63.623047"/>
      </g>
     </g>
    </g>
    <g id="ytick_6">
     <g id="line2d_16">
      <g>
       <use xlink:href="#mf7ad01e2a4" x="57.6" y="48.415739" style="stroke: #000000; stroke-width: 0.8"/>
      </g>
     </g>
     <g id="text_17">
      <!-- 100 -->
      <g transform="translate(31.5125 52.214958) scale(0.1 -0.1)">
       <use xlink:href="#DejaVuSans-31"/>
       <use xlink:href="#DejaVuSans-30" x="63.623047"/>
       <use xlink:href="#DejaVuSans-30" x="127.246094"/>
      </g>
     </g>
    </g>
    <g id="text_18">
     <!-- Accuracy -->
     <g transform="translate(25.432812 197.356125) rotate(-90) scale(0.1 -0.1)">
      <defs>
       <path id="DejaVuSans-41" d="M 2188 4044 
L 1331 1722 
L 3047 1722 
L 2188 4044 
z
M 1831 4666 
L 2547 4666 
L 4325 0 
L 3669 0 
L 3244 1197 
L 1141 1197 
L 716 0 
L 50 0 
L 1831 4666 
z
" transform="scale(0.015625)"/>
       <path id="DejaVuSans-75" d="M 544 1381 
L 544 3500 
L 1119 3500 
L 1119 1403 
Q 1119 906 1312 657 
Q 1506 409 1894 409 
Q 2359 409 2629 706 
Q 2900 1003 2900 1516 
L 2900 3500 
L 3475 3500 
L 3475 0 
L 2900 0 
L 2900 538 
Q 2691 219 2414 64 
Q 2138 -91 1772 -91 
Q 1169 -91 856 284 
Q 544 659 544 1381 
z
M 1991 3584 
L 1991 3584 
z
" transform="scale(0.015625)"/>
       <path id="DejaVuSans-72" d="M 2631 2963 
Q 2534 3019 2420 3045 
Q 2306 3072 2169 3072 
Q 1681 3072 1420 2755 
Q 1159 2438 1159 1844 
L 1159 0 
L 581 0 
L 581 3500 
L 1159 3500 
L 1159 2956 
Q 1341 3275 1631 3429 
Q 1922 3584 2338 3584 
Q 2397 3584 2469 3576 
Q 2541 3569 2628 3553 
L 2631 2963 
z
" transform="scale(0.015625)"/>
       <path id="DejaVuSans-61" d="M 2194 1759 
Q 1497 1759 1228 1600 
Q 959 1441 959 1056 
Q 959 750 1161 570 
Q 1363 391 1709 391 
Q 2188 391 2477 730 
Q 2766 1069 2766 1631 
L 2766 1759 
L 2194 1759 
z
M 3341 1997 
L 3341 0 
L 2766 0 
L 2766 531 
Q 2569 213 2275 61 
Q 1981 -91 1556 -91 
Q 1019 -91 701 211 
Q 384 513 384 1019 
Q 384 1609 779 1909 
Q 1175 2209 1959 2209 
L 2766 2209 
L 2766 2266 
Q 2766 2663 2505 2880 
Q 2244 3097 1772 3097 
Q 1472 3097 1187 3025 
Q 903 2953 641 2809 
L 641 3341 
Q 956 3463 1253 3523 
Q 1550 3584 1831 3584 
Q 2591 3584 2966 3190 
Q 3341 2797 3341 1997 
z
" transform="scale(0.015625)"/>
       <path id="DejaVuSans-79" d="M 2059 -325 
Q 1816 -950 1584 -1140 
Q 1353 -1331 966 -1331 
L 506 -1331 
L 506 -850 
L 844 -850 
Q 1081 -850 1212 -737 
Q 1344 -625 1503 -206 
L 1606 56 
L 191 3500 
L 800 3500 
L 1894 763 
L 2988 3500 
L 3597 3500 
L 2059 -325 
z
" transform="scale(0.015625)"/>
      </defs>
      <use xlink:href="#DejaVuSans-41"/>
      <use xlink:href="#DejaVuSans-63" x="66.658203"/>
      <use xlink:href="#DejaVuSans-63" x="121.638672"/>
      <use xlink:href="#DejaVuSans-75" x="176.619141"/>
      <use xlink:href="#DejaVuSans-72" x="239.998047"/>
      <use xlink:href="#DejaVuSans-61" x="281.111328"/>
      <use xlink:href="#DejaVuSans-63" x="342.390625"/>
      <use xlink:href="#DejaVuSans-79" x="397.371094"/>
     </g>
    </g>
   </g>
   <g id="line2d_17">
    <path d="M 73.832727 295.488 
L 74.918528 204.828201 
L 76.00433 172.815123 
L 77.090131 152.64225 
L 78.175932 140.520352 
L 79.261733 130.733783 
L 80.347534 125.436132 
L 81.433335 118.484669 
L 83.604938 107.889367 
L 84.690739 103.109668 
L 86.862341 94.731565 
L 87.948142 91.496636 
L 89.033943 87.371193 
L 90.119745 84.636042 
L 91.205546 81.392026 
L 93.377148 77.312017 
L 94.462949 76.103462 
L 95.54875 106.399119 
L 96.634552 106.826202 
L 97.720353 103.909314 
L 98.806154 101.519465 
L 99.891955 97.902886 
L 100.977756 96.694331 
L 102.063557 95.004172 
L 103.149358 92.541627 
L 104.23516 91.39668 
L 105.320961 89.424828 
L 106.406762 88.134491 
L 107.492563 86.198985 
L 108.578364 85.181255 
L 109.664165 82.936795 
L 110.749967 81.237549 
L 111.835768 80.347035 
L 112.921569 79.647345 
L 114.00737 77.402886 
L 115.093171 75.521902 
L 116.178972 75.167513 
L 117.264773 74.104348 
L 118.350575 72.741316 
L 119.436376 70.869419 
L 120.522177 70.278772 
L 121.607978 68.234224 
L 122.693779 66.862105 
L 123.77958 66.171502 
L 127.036984 63.036529 
L 128.122785 62.264144 
L 129.208586 61.137371 
L 130.294387 60.846591 
L 131.380189 59.892468 
L 132.46599 59.438124 
L 133.551791 58.447654 
L 134.637592 58.493089 
L 135.723393 58.756608 
L 136.809194 58.293177 
L 137.894995 58.520349 
L 138.980797 84.517912 
L 140.066598 85.326645 
L 141.152399 84.69965 
L 143.324001 81.682806 
L 144.409802 81.43746 
L 146.581405 79.383825 
L 147.667206 79.320217 
L 148.753007 79.065785 
L 149.838808 78.511485 
L 150.924609 77.339277 
L 152.01041 76.830412 
L 154.182013 76.884933 
L 155.267814 75.349251 
L 156.353615 74.6223 
L 157.439416 73.640917 
L 158.525217 73.931698 
L 159.611019 74.04074 
L 160.69682 73.1684 
L 161.782621 72.886706 
L 162.868422 71.305589 
L 163.954223 72.141582 
L 165.040024 71.005722 
L 166.125825 70.115208 
L 168.297428 69.460953 
L 169.383229 68.761263 
L 170.46903 68.288745 
L 171.554831 67.689011 
L 172.640632 66.64402 
L 173.726434 67.589055 
L 174.812235 67.598142 
L 175.898036 66.171502 
L 176.983837 65.580855 
L 178.069638 65.489986 
L 179.155439 64.072433 
L 180.24124 64.908426 
L 181.327042 64.3723 
L 182.412843 64.363213 
L 183.498644 62.891139 
L 184.584445 63.109224 
L 185.670246 62.255057 
L 186.756047 61.609889 
L 187.841849 61.173718 
L 188.92765 60.446768 
L 190.013451 60.746635 
L 192.185053 59.329082 
L 193.270854 60.065119 
L 194.356656 59.210952 
L 195.442457 58.765695 
L 196.528258 57.784312 
L 198.69986 58.011484 
L 199.785661 57.257273 
L 200.871462 57.511706 
L 201.957264 56.930146 
L 203.043065 56.512149 
L 204.128866 56.548497 
L 205.214667 56.375846 
L 206.300468 55.876067 
L 208.472071 55.167291 
L 211.729474 55.030988 
L 212.815275 54.685686 
L 214.986877 54.867424 
L 216.072679 54.158647 
L 217.15848 54.422167 
L 218.244281 54.567557 
L 219.330082 54.44034 
L 220.415883 54.158647 
L 221.501684 54.285864 
L 222.587486 53.931475 
L 224.759088 54.204082 
L 225.844889 75.739987 
L 226.93069 78.829526 
L 228.016491 77.966272 
L 229.102292 77.248409 
L 230.188094 75.276556 
L 231.273895 75.394685 
L 232.359696 74.422389 
L 234.531298 74.004393 
L 235.617099 72.804924 
L 236.702901 72.168843 
L 238.874503 71.732673 
L 239.960304 70.914853 
L 241.046105 72.187017 
L 242.131906 71.114765 
L 244.303509 70.48777 
L 245.38931 70.714942 
L 246.475111 70.551378 
L 247.560912 69.90621 
L 248.646713 69.524561 
L 249.732514 68.870306 
L 250.818316 69.32465 
L 251.904117 68.197876 
L 252.989918 68.33418 
L 254.075719 67.943444 
L 255.16152 68.952087 
L 256.247321 68.316006 
L 257.333123 68.724915 
L 258.418924 67.907096 
L 259.504725 68.497743 
L 260.590526 67.870749 
L 261.676327 67.616316 
L 262.762128 67.670837 
L 263.847929 67.552708 
L 264.933731 66.952974 
L 266.019532 67.107451 
L 267.105333 66.425935 
L 268.191134 67.016582 
L 269.276935 67.189233 
L 270.362736 66.189676 
L 271.448538 66.435022 
L 272.534339 65.462726 
L 273.62014 66.226024 
L 274.705941 65.589942 
L 275.791742 65.599029 
L 276.877543 65.462726 
L 279.049146 65.726245 
L 281.220748 64.617646 
L 282.306549 65.208293 
L 283.39235 63.972477 
L 284.478151 64.154215 
L 285.563953 64.890252 
L 286.649754 63.409091 
L 287.735555 64.172389 
L 288.821356 64.317779 
L 289.907157 64.054259 
L 292.07876 63.281874 
L 293.164561 63.400004 
L 294.250362 63.827087 
L 295.336163 61.718931 
L 296.421964 62.80027 
L 298.593566 62.809357 
L 299.679368 62.954747 
L 300.765169 62.418621 
L 302.936771 62.136928 
L 304.022572 61.682584 
L 305.108373 61.918843 
L 307.279976 61.128284 
L 308.365777 60.455855 
L 309.451578 60.710287 
L 310.537379 60.110553 
L 311.62318 60.419507 
L 312.708981 60.428594 
L 313.794783 60.155988 
L 314.880584 60.610332 
L 315.966385 59.783426 
L 318.137987 59.501732 
L 319.223788 59.192779 
L 320.30959 59.39269 
L 321.395391 58.883825 
L 322.481192 58.98378 
L 323.566993 58.95652 
L 324.652794 59.174605 
L 325.738595 57.956963 
L 326.824396 58.593045 
L 327.910198 58.066005 
L 328.995999 58.211396 
L 330.0818 57.866094 
L 331.167601 57.657096 
L 332.253402 57.838833 
L 333.339203 57.230013 
L 334.425005 57.021014 
L 335.510806 57.366316 
L 336.596607 56.630278 
L 337.682408 56.503062 
L 338.768209 56.693887 
L 339.85401 56.457628 
L 340.939811 56.339498 
L 342.025613 55.885154 
L 343.111414 56.157761 
L 344.197215 55.957849 
L 345.283016 56.103239 
L 346.368817 55.503505 
L 347.454618 55.467158 
L 348.54042 55.98511 
L 349.626221 55.003727 
L 350.712022 55.185465 
L 352.883624 55.185465 
L 353.969425 54.731121 
L 355.055227 54.985553 
L 357.226829 54.322211 
L 358.31263 54.467601 
L 359.398431 54.058692 
L 360.484232 54.376732 
L 362.655835 53.822433 
L 363.741636 53.995083 
L 364.827437 53.686129 
L 365.913238 54.076865 
L 366.999039 53.568 
L 368.08484 53.813346 
L 369.170642 54.858337 
L 371.342244 54.594817 
L 372.428045 55.5762 
L 373.513846 55.530766 
L 374.599647 55.712504 
L 375.685448 55.43081 
L 376.77125 55.303594 
L 377.857051 56.157761 
L 380.028653 55.585287 
L 382.200255 55.930589 
L 383.286057 55.612548 
L 384.371858 56.466715 
L 385.457659 56.012371 
L 389.800863 55.885154 
L 390.886665 56.175934 
L 391.972466 55.067335 
L 393.058267 56.103239 
L 395.229869 55.703417 
L 396.31567 55.930589 
L 397.401472 56.284977 
L 398.487273 55.767025 
L 398.487273 55.767025 
" clip-path="url(#pded08075f5)" style="fill: none; stroke: #1f77b4; stroke-width: 1.5; stroke-linecap: square"/>
   </g>
   <g id="line2d_18">
    <path d="M 73.832727 246.691456 
L 74.918528 186.263705 
L 76.00433 178.948767 
L 77.090131 156.913084 
L 78.175932 132.60568 
L 79.261733 126.517471 
L 80.347534 116.749075 
L 81.433335 113.068889 
L 82.519137 110.615431 
L 83.604938 106.708073 
L 84.690739 107.116982 
L 85.77654 104.30005 
L 86.862341 98.393578 
L 87.948142 97.257718 
L 89.033943 91.169508 
L 90.119745 88.125404 
L 91.205546 92.94145 
L 92.291347 86.580634 
L 93.377148 87.171281 
L 94.462949 85.308471 
L 95.54875 121.837728 
L 96.634552 128.698322 
L 97.720353 103.027887 
L 98.806154 116.022125 
L 99.891955 100.029216 
L 100.977756 100.801601 
L 102.063557 97.257718 
L 103.149358 91.851024 
L 104.23516 95.349473 
L 105.320961 96.894243 
L 107.492563 88.988657 
L 108.578364 92.805147 
L 109.664165 93.032319 
L 110.749967 91.80559 
L 111.835768 89.261264 
L 112.921569 87.080413 
L 114.00737 87.26215 
L 115.093171 85.581077 
L 116.178972 84.99043 
L 117.264773 84.944996 
L 118.350575 83.990873 
L 119.436376 81.26481 
L 120.522177 79.856343 
L 121.607978 80.174384 
L 122.693779 79.810909 
L 123.77958 78.58418 
L 124.865382 78.538746 
L 125.951183 76.31246 
L 127.036984 78.038967 
L 128.122785 77.357451 
L 129.208586 75.358338 
L 130.294387 75.222034 
L 131.380189 74.540518 
L 132.46599 74.222478 
L 133.551791 74.676822 
L 134.637592 73.904437 
L 135.723393 74.04074 
L 136.809194 73.722699 
L 137.894995 74.44965 
L 138.980797 95.576645 
L 140.066598 89.53387 
L 141.152399 92.078196 
L 142.2382 95.94012 
L 143.324001 89.443001 
L 144.409802 88.988657 
L 145.495604 93.986441 
L 146.581405 87.216716 
L 147.667206 86.489765 
L 148.753007 88.39801 
L 149.838808 86.489765 
L 150.924609 86.944109 
L 152.01041 89.897345 
L 153.096212 87.216716 
L 154.182013 82.764145 
L 155.267814 83.12762 
L 156.353615 83.900005 
L 157.439416 85.989987 
L 158.525217 84.172611 
L 160.69682 85.217602 
L 161.782621 81.764588 
L 162.868422 87.852797 
L 163.954223 83.536529 
L 165.040024 81.764588 
L 166.125825 82.945882 
L 167.211627 81.401113 
L 168.297428 81.401113 
L 169.383229 80.44699 
L 170.46903 84.626955 
L 171.554831 81.219375 
L 172.640632 78.720483 
L 173.726434 78.947655 
L 174.812235 79.356565 
L 175.898036 78.765918 
L 176.983837 79.174827 
L 178.069638 80.810466 
L 179.155439 78.357008 
L 180.24124 77.85723 
L 181.327042 79.629171 
L 182.412843 77.175714 
L 183.498644 77.493754 
L 184.584445 78.311574 
L 185.670246 75.858116 
L 186.756047 78.084402 
L 187.841849 76.766804 
L 188.92765 73.904437 
L 190.013451 75.721813 
L 191.099252 75.58551 
L 192.185053 75.994419 
L 193.270854 74.04074 
L 194.356656 74.404215 
L 195.442457 72.723143 
L 196.528258 74.313347 
L 197.614059 71.314676 
L 198.69986 73.177487 
L 199.785661 72.814011 
L 200.871462 72.677708 
L 203.043065 72.995749 
L 205.214667 70.860332 
L 206.300468 70.405988 
L 208.472071 70.678595 
L 209.557872 69.997079 
L 210.643673 69.679038 
L 211.729474 70.133382 
L 212.815275 69.951644 
L 213.901076 69.451866 
L 214.986877 69.270128 
L 216.072679 69.815341 
L 217.15848 69.360997 
L 218.244281 69.679038 
L 219.330082 69.270128 
L 220.415883 68.997522 
L 221.501684 69.270128 
L 222.587486 69.088391 
L 223.673287 69.315563 
L 224.759088 69.088391 
L 225.844889 91.351246 
L 226.93069 93.577532 
L 228.016491 88.125404 
L 229.102292 87.125847 
L 230.188094 85.172168 
L 231.273895 84.26348 
L 232.359696 84.172611 
L 233.445497 84.26348 
L 234.531298 86.489765 
L 235.617099 91.07864 
L 236.702901 90.896902 
L 237.788702 83.672833 
L 238.874503 87.171281 
L 239.960304 87.034978 
L 242.131906 87.307585 
L 243.217708 83.809136 
L 244.303509 82.900448 
L 245.38931 81.355678 
L 246.475111 83.354792 
L 247.560912 84.854127 
L 248.646713 82.627841 
L 249.732514 86.444331 
L 250.818316 85.263037 
L 251.904117 81.719154 
L 252.989918 79.856343 
L 254.075719 81.310244 
L 255.16152 81.673719 
L 256.247321 81.26481 
L 257.333123 83.263923 
L 258.418924 81.491982 
L 259.504725 82.945882 
L 260.590526 80.083515 
L 261.676327 84.308914 
L 262.762128 83.763701 
L 263.847929 79.220262 
L 264.933731 80.628728 
L 266.019532 80.674162 
L 267.105333 80.174384 
L 268.191134 78.402442 
L 269.276935 81.719154 
L 270.362736 79.083958 
L 271.448538 82.309801 
L 272.534339 80.765031 
L 273.62014 82.673276 
L 274.705941 79.947212 
L 275.791742 79.265696 
L 276.877543 79.31113 
L 277.963344 80.492425 
L 279.049146 79.629171 
L 280.134947 76.403329 
L 281.220748 80.310687 
L 282.306549 80.401556 
L 283.39235 78.220705 
L 284.478151 79.629171 
L 285.563953 77.221148 
L 286.649754 78.902221 
L 287.735555 75.540075 
L 288.821356 78.720483 
L 289.907157 81.219375 
L 290.992958 79.72004 
L 292.07876 81.310244 
L 294.250362 77.03941 
L 295.336163 76.675935 
L 296.421964 75.994419 
L 297.507765 77.402886 
L 298.593566 76.948542 
L 299.679368 75.858116 
L 300.765169 79.038524 
L 301.85097 74.358781 
L 302.936771 79.538302 
L 305.108373 77.493754 
L 306.194175 76.630501 
L 307.279976 74.903994 
L 308.365777 77.675492 
L 309.451578 76.176157 
L 310.537379 77.130279 
L 311.62318 76.31246 
L 312.708981 77.266582 
L 313.794783 73.813568 
L 314.880584 73.404659 
L 315.966385 73.995306 
L 317.052186 77.766361 
L 318.137987 76.221591 
L 319.223788 73.859003 
L 320.30959 73.722699 
L 321.395391 74.267912 
L 322.481192 72.859446 
L 323.566993 75.858116 
L 324.652794 74.177043 
L 325.738595 75.267469 
L 326.824396 75.812682 
L 327.910198 73.813568 
L 328.995999 73.995306 
L 330.0818 73.222921 
L 331.167601 74.813125 
L 332.253402 73.677265 
L 333.339203 74.404215 
L 334.425005 71.087504 
L 335.510806 71.814455 
L 336.596607 70.542291 
L 337.682408 73.041183 
L 338.768209 71.178373 
L 339.85401 72.723143 
L 340.939811 70.542291 
L 342.025613 71.496414 
L 343.111414 70.087947 
L 344.197215 72.632274 
L 345.283016 71.360111 
L 347.454618 71.132939 
L 348.54042 71.269242 
L 349.626221 71.223807 
L 350.712022 69.633603 
L 351.797823 69.679038 
L 352.883624 69.997079 
L 353.969425 68.497743 
L 355.055227 69.451866 
L 356.141028 69.451866 
L 357.226829 69.179259 
L 358.31263 68.634047 
L 359.398431 69.224694 
L 360.484232 69.588169 
L 361.570033 69.542735 
L 362.655835 67.816227 
L 363.741636 68.952087 
L 364.827437 68.952087 
L 365.913238 68.179703 
L 366.999039 67.997965 
L 368.08484 68.134268 
L 369.170642 68.952087 
L 370.256443 70.905767 
L 371.342244 70.769463 
L 372.428045 72.087061 
L 373.513846 70.315119 
L 374.599647 70.905767 
L 375.685448 70.087947 
L 376.77125 70.905767 
L 377.857051 71.087504 
L 378.942852 72.814011 
L 380.028653 71.950758 
L 381.114454 70.905767 
L 382.200255 70.860332 
L 383.286057 73.268355 
L 384.371858 71.178373 
L 385.457659 71.450979 
L 386.54346 72.90488 
L 387.629261 70.769463 
L 388.715062 71.04207 
L 389.800863 71.678151 
L 390.886665 71.450979 
L 391.972466 72.450536 
L 393.058267 71.132939 
L 394.144068 72.223364 
L 395.229869 72.450536 
L 396.31567 72.041627 
L 397.401472 71.269242 
L 398.487273 72.268799 
L 398.487273 72.268799 
" clip-path="url(#pded08075f5)" style="fill: none; stroke: #ff7f0e; stroke-width: 1.5; stroke-linecap: square"/>
   </g>
   <g id="line2d_19">
    <path d="M 73.832727 294.858279 
L 74.918528 257.915115 
L 76.00433 267.346842 
L 77.090131 251.021808 
L 78.175932 212.010925 
L 79.261733 227.552669 
L 80.347534 214.204497 
L 81.433335 216.961911 
L 82.519137 225.359097 
L 83.604938 213.170411 
L 84.690739 204.521973 
L 85.77654 218.46579 
L 87.948142 197.471917 
L 89.033943 196.782677 
L 90.119745 194.275607 
L 91.205546 202.234805 
L 92.291347 192.771729 
L 93.377148 193.179275 
L 94.462949 189.481824 
L 95.54875 233.38054 
L 96.634552 237.799035 
L 97.720353 211.196286 
L 98.806154 213.577503 
L 99.891955 206.307999 
L 100.977756 205.806858 
L 102.063557 199.132544 
L 103.149358 186.160115 
L 104.23516 193.273324 
L 105.320961 198.349255 
L 106.406762 194.808553 
L 107.492563 196.092983 
L 108.578364 193.210625 
L 109.664165 201.263418 
L 110.749967 197.346518 
L 111.835768 187.35095 
L 112.921569 197.848114 
L 114.00737 206.245299 
L 115.093171 195.74859 
L 116.178972 195.497792 
L 117.264773 197.910359 
L 118.350575 197.283819 
L 119.436376 188.948878 
L 120.522177 182.619412 
L 121.607978 179.736819 
L 122.693779 190.390402 
L 123.77958 184.311593 
L 124.865382 184.499597 
L 125.951183 179.893489 
L 127.036984 181.115518 
L 128.122785 185.690292 
L 129.208586 177.919443 
L 130.294387 174.692034 
L 131.380189 173.908682 
L 132.46599 177.292762 
L 133.551791 175.538054 
L 134.637592 176.760082 
L 135.723393 176.540744 
L 136.809194 176.008065 
L 137.894995 178.734129 
L 138.980797 207.498803 
L 140.066598 196.343875 
L 141.152399 188.510358 
L 142.2382 207.78081 
L 143.324001 190.672409 
L 144.409802 194.401163 
L 145.495604 191.236422 
L 146.581405 190.860413 
L 147.667206 191.048417 
L 148.753007 190.703743 
L 149.838808 192.834459 
L 150.924609 189.669718 
L 152.01041 204.522067 
L 153.096212 192.959796 
L 154.182013 183.966918 
L 155.267814 179.20414 
L 156.353615 184.342927 
L 157.439416 186.75565 
L 158.525217 191.957105 
L 159.611019 195.905198 
L 160.69682 197.816576 
L 161.782621 176.133401 
L 162.868422 190.233732 
L 163.954223 197.064559 
L 165.040024 187.633004 
L 166.125825 195.372519 
L 167.211627 182.274878 
L 168.297428 190.578406 
L 169.383229 172.717988 
L 170.46903 187.60167 
L 171.554831 185.627624 
L 172.640632 177.136091 
L 173.726434 182.713555 
L 174.812235 178.170115 
L 175.898036 181.146852 
L 176.983837 187.570336 
L 178.069638 187.570336 
L 179.155439 184.092254 
L 180.24124 179.705485 
L 181.327042 181.178186 
L 182.412843 183.872916 
L 183.498644 183.935584 
L 184.584445 186.003632 
L 185.670246 175.569388 
L 186.756047 180.708175 
L 187.841849 183.684911 
L 188.92765 171.777966 
L 190.013451 182.494217 
L 191.099252 179.392144 
L 192.185053 177.35543 
L 193.270854 181.240854 
L 194.356656 178.608792 
L 195.442457 178.640126 
L 196.528258 178.890799 
L 197.614059 178.201449 
L 198.69986 170.743941 
L 199.785661 176.227403 
L 200.871462 173.908682 
L 201.957264 168.017877 
L 203.043065 176.352739 
L 204.128866 169.553247 
L 205.214667 175.068043 
L 206.300468 172.373313 
L 207.386269 174.97404 
L 208.472071 174.410027 
L 209.557872 173.720678 
L 210.643673 174.410027 
L 211.729474 172.216642 
L 212.815275 174.629366 
L 213.901076 170.555937 
L 214.986877 170.96328 
L 216.072679 171.96597 
L 217.15848 168.581891 
L 218.244281 170.023258 
L 219.330082 168.895231 
L 220.415883 167.328528 
L 221.501684 170.148594 
L 222.587486 169.553247 
L 223.673287 168.707227 
L 224.759088 169.772585 
L 225.844889 198.568594 
L 226.93069 194.119156 
L 228.016491 198.599928 
L 229.102292 205.399421 
L 230.188094 187.821008 
L 231.273895 188.60436 
L 232.359696 192.771791 
L 233.445497 188.479024 
L 234.531298 188.635694 
L 235.617099 209.253511 
L 236.702901 195.372519 
L 237.788702 192.395782 
L 238.874503 188.385022 
L 239.960304 193.711813 
L 241.046105 194.181824 
L 242.131906 203.23737 
L 243.217708 190.014393 
L 244.303509 187.60167 
L 245.38931 193.931152 
L 246.475111 178.013445 
L 247.560912 194.83984 
L 248.646713 193.617811 
L 249.732514 196.657216 
L 250.818316 195.84253 
L 251.904117 185.564955 
L 252.989918 181.428859 
L 254.075719 186.849652 
L 255.16152 185.564955 
L 256.247321 194.15049 
L 257.333123 192.709123 
L 258.418924 177.825441 
L 259.504725 190.923081 
L 260.590526 187.946345 
L 261.676327 193.899818 
L 262.762128 193.398473 
L 263.847929 184.593599 
L 264.933731 185.188947 
L 266.019532 188.134349 
L 267.105333 184.938274 
L 268.191134 186.692982 
L 269.276935 183.684911 
L 270.362736 187.319663 
L 271.448538 182.995562 
L 272.534339 181.240854 
L 273.62014 194.15049 
L 274.705941 176.66608 
L 275.791742 193.398473 
L 276.877543 183.120898 
L 277.963344 187.789674 
L 280.134947 180.457502 
L 281.220748 187.006323 
L 282.306549 178.608792 
L 283.39235 176.008065 
L 284.478151 183.371571 
L 285.563953 189.638384 
L 286.649754 183.778914 
L 287.735555 183.183566 
L 288.821356 185.846962 
L 289.907157 187.256995 
L 292.07876 182.274878 
L 293.164561 185.06361 
L 294.250362 180.708175 
L 295.336163 171.370623 
L 296.421964 175.788726 
L 297.507765 185.126279 
L 298.593566 182.337546 
L 299.679368 179.987491 
L 300.765169 177.167425 
L 301.85097 177.5121 
L 302.936771 187.821008 
L 304.022572 177.543434 
L 305.108373 179.36081 
L 306.194175 172.153974 
L 307.279976 171.840634 
L 308.365777 178.483456 
L 309.451578 176.102067 
L 310.537379 167.26586 
L 311.62318 180.332166 
L 312.708981 175.632056 
L 313.794783 177.794107 
L 314.880584 177.919443 
L 315.966385 181.20952 
L 317.052186 177.856775 
L 318.137987 176.634746 
L 319.223788 177.794107 
L 320.30959 178.35812 
L 321.395391 180.739509 
L 322.481192 178.640126 
L 323.566993 182.744889 
L 324.652794 173.65801 
L 325.738595 169.42791 
L 326.824396 180.645507 
L 327.910198 181.303522 
L 328.995999 170.806609 
L 330.0818 177.5121 
L 331.167601 178.389454 
L 332.253402 182.807557 
L 333.339203 172.655319 
L 334.425005 167.955209 
L 335.510806 172.655319 
L 336.596607 171.589961 
L 337.682408 166.733181 
L 338.768209 170.96328 
L 339.85401 177.762773 
L 340.939811 169.615915 
L 342.025613 170.399267 
L 343.111414 167.986543 
L 344.197215 176.82275 
L 345.283016 174.316025 
L 346.368817 169.584581 
L 347.454618 172.12264 
L 348.54042 168.926565 
L 349.626221 173.407337 
L 350.712022 171.997304 
L 351.797823 169.991924 
L 352.883624 165.855827 
L 355.055227 174.159355 
L 356.141028 168.11188 
L 357.226829 167.391196 
L 358.31263 164.602464 
L 359.398431 169.27124 
L 360.484232 166.482508 
L 361.570033 165.260479 
L 362.655835 162.816422 
L 363.741636 168.237216 
L 364.827437 165.699156 
L 365.913238 159.902354 
L 366.999039 168.644559 
L 368.08484 161.093048 
L 370.256443 178.671461 
L 371.342244 169.803919 
L 372.428045 171.903302 
L 373.513846 175.475386 
L 374.599647 172.905992 
L 375.685448 176.321405 
L 376.77125 175.318715 
L 377.857051 173.752012 
L 378.942852 183.120898 
L 380.028653 182.431549 
L 381.114454 177.700104 
L 382.200255 174.97404 
L 383.286057 176.352739 
L 384.371858 172.059972 
L 385.457659 171.401957 
L 386.54346 173.532673 
L 387.629261 172.81199 
L 388.715062 169.11457 
L 389.800863 169.365242 
L 390.886665 166.169167 
L 391.972466 174.754702 
L 393.058267 170.430601 
L 394.144068 166.639178 
L 395.229869 170.305264 
L 396.31567 173.031328 
L 397.401472 170.712607 
L 398.487273 182.619553 
L 398.487273 182.619553 
" clip-path="url(#pded08075f5)" style="fill: none; stroke: #2ca02c; stroke-width: 1.5; stroke-linecap: square"/>
   </g>
   <g id="line2d_20">
    <path d="M 368.08484 67.271015 
L 369.170642 68.088834 
L 370.256443 68.497743 
L 371.342244 68.634047 
L 372.428045 69.4973 
L 373.513846 69.4973 
L 374.599647 68.543178 
L 375.685448 69.088391 
L 376.77125 69.315563 
M 378.942852 67.679924 
L 380.028653 68.724915 
L 381.114454 68.043399 
L 382.200255 67.543621 
L 383.286057 68.543178 
L 384.371858 68.316006 
L 385.457659 68.724915 
L 386.54346 69.542735 
L 387.629261 67.498187 
L 388.715062 66.862105 
L 389.800863 67.498187 
L 390.886665 69.133825 
L 391.972466 66.725802 
L 393.058267 67.316449 
L 394.144068 67.089277 
L 395.229869 67.089277 
L 396.31567 67.498187 
L 397.401472 67.589055 
L 398.487273 67.316449 
L 398.487273 67.316449 
" clip-path="url(#pded08075f5)" style="fill: none; stroke: #d62728; stroke-width: 1.5; stroke-linecap: square"/>
   </g>
   <g id="line2d_21">
    <path d="M 368.08484 163.850446 
L 369.170642 167.42253 
L 370.256443 167.516532 
L 371.342244 166.451174 
L 373.513846 164.7278 
L 374.599647 163.129763 
L 375.685448 160.560369 
L 376.77125 166.169167 
L 377.857051 165.57382 
L 378.942852 162.471747 
L 380.028653 168.989233 
L 381.114454 170.305264 
L 382.200255 169.459244 
L 383.286057 167.485198 
L 384.371858 168.769895 
L 385.457659 169.490579 
L 386.54346 160.591703 
L 387.629261 162.095738 
L 388.715062 156.33027 
L 389.800863 158.617657 
L 390.886665 163.975783 
L 391.972466 164.351791 
L 393.058267 160.059024 
L 394.144068 160.247028 
L 395.229869 161.343721 
L 396.31567 163.850446 
L 397.401472 155.985595 
L 398.487273 161.970402 
L 398.487273 161.970402 
" clip-path="url(#pded08075f5)" style="fill: none; stroke: #9467bd; stroke-width: 1.5; stroke-linecap: square"/>
   </g>
   <g id="patch_3">
    <path d="M 57.6 307.584 
L 57.6 41.472 
" style="fill: none; stroke: #000000; stroke-width: 0.8; stroke-linejoin: miter; stroke-linecap: square"/>
   </g>
   <g id="patch_4">
    <path d="M 414.72 307.584 
L 414.72 41.472 
" style="fill: none; stroke: #000000; stroke-width: 0.8; stroke-linejoin: miter; stroke-linecap: square"/>
   </g>
   <g id="patch_5">
    <path d="M 57.6 307.584 
L 414.72 307.584 
" style="fill: none; stroke: #000000; stroke-width: 0.8; stroke-linejoin: miter; stroke-linecap: square"/>
   </g>
   <g id="patch_6">
    <path d="M 57.6 41.472 
L 414.72 41.472 
" style="fill: none; stroke: #000000; stroke-width: 0.8; stroke-linejoin: miter; stroke-linecap: square"/>
   </g>
   <g id="text_19">
    <!-- Learning Curves -->
    <g transform="translate(187.37625 35.472) scale(0.12 -0.12)">
     <defs>
      <path id="DejaVuSans-4c" d="M 628 4666 
L 1259 4666 
L 1259 531 
L 3531 531 
L 3531 0 
L 628 0 
L 628 4666 
z
" transform="scale(0.015625)"/>
      <path id="DejaVuSans-65" d="M 3597 1894 
L 3597 1613 
L 953 1613 
Q 991 1019 1311 708 
Q 1631 397 2203 397 
Q 2534 397 2845 478 
Q 3156 559 3463 722 
L 3463 178 
Q 3153 47 2828 -22 
Q 2503 -91 2169 -91 
Q 1331 -91 842 396 
Q 353 884 353 1716 
Q 353 2575 817 3079 
Q 1281 3584 2069 3584 
Q 2775 3584 3186 3129 
Q 3597 2675 3597 1894 
z
M 3022 2063 
Q 3016 2534 2758 2815 
Q 2500 3097 2075 3097 
Q 1594 3097 1305 2825 
Q 1016 2553 972 2059 
L 3022 2063 
z
" transform="scale(0.015625)"/>
      <path id="DejaVuSans-6e" d="M 3513 2113 
L 3513 0 
L 2938 0 
L 2938 2094 
Q 2938 2591 2744 2837 
Q 2550 3084 2163 3084 
Q 1697 3084 1428 2787 
Q 1159 2491 1159 1978 
L 1159 0 
L 581 0 
L 581 3500 
L 1159 3500 
L 1159 2956 
Q 1366 3272 1645 3428 
Q 1925 3584 2291 3584 
Q 2894 3584 3203 3211 
Q 3513 2838 3513 2113 
z
" transform="scale(0.015625)"/>
      <path id="DejaVuSans-69" d="M 603 3500 
L 1178 3500 
L 1178 0 
L 603 0 
L 603 3500 
z
M 603 4863 
L 1178 4863 
L 1178 4134 
L 603 4134 
L 603 4863 
z
" transform="scale(0.015625)"/>
      <path id="DejaVuSans-67" d="M 2906 1791 
Q 2906 2416 2648 2759 
Q 2391 3103 1925 3103 
Q 1463 3103 1205 2759 
Q 947 2416 947 1791 
Q 947 1169 1205 825 
Q 1463 481 1925 481 
Q 2391 481 2648 825 
Q 2906 1169 2906 1791 
z
M 3481 434 
Q 3481 -459 3084 -895 
Q 2688 -1331 1869 -1331 
Q 1566 -1331 1297 -1286 
Q 1028 -1241 775 -1147 
L 775 -588 
Q 1028 -725 1275 -790 
Q 1522 -856 1778 -856 
Q 2344 -856 2625 -561 
Q 2906 -266 2906 331 
L 2906 616 
Q 2728 306 2450 153 
Q 2172 0 1784 0 
Q 1141 0 747 490 
Q 353 981 353 1791 
Q 353 2603 747 3093 
Q 1141 3584 1784 3584 
Q 2172 3584 2450 3431 
Q 2728 3278 2906 2969 
L 2906 3500 
L 3481 3500 
L 3481 434 
z
" transform="scale(0.015625)"/>
      <path id="DejaVuSans-20" transform="scale(0.015625)"/>
      <path id="DejaVuSans-43" d="M 4122 4306 
L 4122 3641 
Q 3803 3938 3442 4084 
Q 3081 4231 2675 4231 
Q 1875 4231 1450 3742 
Q 1025 3253 1025 2328 
Q 1025 1406 1450 917 
Q 1875 428 2675 428 
Q 3081 428 3442 575 
Q 3803 722 4122 1019 
L 4122 359 
Q 3791 134 3420 21 
Q 3050 -91 2638 -91 
Q 1578 -91 968 557 
Q 359 1206 359 2328 
Q 359 3453 968 4101 
Q 1578 4750 2638 4750 
Q 3056 4750 3426 4639 
Q 3797 4528 4122 4306 
z
" transform="scale(0.015625)"/>
      <path id="DejaVuSans-76" d="M 191 3500 
L 800 3500 
L 1894 563 
L 2988 3500 
L 3597 3500 
L 2284 0 
L 1503 0 
L 191 3500 
z
" transform="scale(0.015625)"/>
     </defs>
     <use xlink:href="#DejaVuSans-4c"/>
     <use xlink:href="#DejaVuSans-65" x="53.962891"/>
     <use xlink:href="#DejaVuSans-61" x="115.486328"/>
     <use xlink:href="#DejaVuSans-72" x="176.765625"/>
     <use xlink:href="#DejaVuSans-6e" x="216.128906"/>
     <use xlink:href="#DejaVuSans-69" x="279.507812"/>
     <use xlink:href="#DejaVuSans-6e" x="307.291016"/>
     <use xlink:href="#DejaVuSans-67" x="370.669922"/>
     <use xlink:href="#DejaVuSans-20" x="434.146484"/>
     <use xlink:href="#DejaVuSans-43" x="465.933594"/>
     <use xlink:href="#DejaVuSans-75" x="535.757812"/>
     <use xlink:href="#DejaVuSans-72" x="599.136719"/>
     <use xlink:href="#DejaVuSans-76" x="640.25"/>
     <use xlink:href="#DejaVuSans-65" x="699.429688"/>
     <use xlink:href="#DejaVuSans-73" x="760.953125"/>
    </g>
   </g>
   <g id="legend_1">
    <g id="patch_7">
     <path d="M 214.18875 302.584 
L 407.72 302.584 
Q 409.72 302.584 409.72 300.584 
L 409.72 228.193375 
Q 409.72 226.193375 407.72 226.193375 
L 214.18875 226.193375 
Q 212.18875 226.193375 212.18875 228.193375 
L 212.18875 300.584 
Q 212.18875 302.584 214.18875 302.584 
z
" style="fill: #ffffff; opacity: 0.8; stroke: #cccccc; stroke-linejoin: miter"/>
    </g>
    <g id="line2d_22">
     <path d="M 216.18875 234.291812 
L 226.18875 234.291812 
L 236.18875 234.291812 
" style="fill: none; stroke: #1f77b4; stroke-width: 1.5; stroke-linecap: square"/>
    </g>
    <g id="text_20">
     <!-- Train Accuracy -->
     <g transform="translate(244.18875 237.791812) scale(0.1 -0.1)">
      <defs>
       <path id="DejaVuSans-54" d="M -19 4666 
L 3928 4666 
L 3928 4134 
L 2272 4134 
L 2272 0 
L 1638 0 
L 1638 4134 
L -19 4134 
L -19 4666 
z
" transform="scale(0.015625)"/>
      </defs>
      <use xlink:href="#DejaVuSans-54"/>
      <use xlink:href="#DejaVuSans-72" x="46.333984"/>
      <use xlink:href="#DejaVuSans-61" x="87.447266"/>
      <use xlink:href="#DejaVuSans-69" x="148.726562"/>
      <use xlink:href="#DejaVuSans-6e" x="176.509766"/>
      <use xlink:href="#DejaVuSans-20" x="239.888672"/>
      <use xlink:href="#DejaVuSans-41" x="271.675781"/>
      <use xlink:href="#DejaVuSans-63" x="338.333984"/>
      <use xlink:href="#DejaVuSans-63" x="393.314453"/>
      <use xlink:href="#DejaVuSans-75" x="448.294922"/>
      <use xlink:href="#DejaVuSans-72" x="511.673828"/>
      <use xlink:href="#DejaVuSans-61" x="552.787109"/>
      <use xlink:href="#DejaVuSans-63" x="614.066406"/>
      <use xlink:href="#DejaVuSans-79" x="669.046875"/>
     </g>
    </g>
    <g id="line2d_23">
     <path d="M 216.18875 248.969937 
L 226.18875 248.969937 
L 236.18875 248.969937 
" style="fill: none; stroke: #ff7f0e; stroke-width: 1.5; stroke-linecap: square"/>
    </g>
    <g id="text_21">
     <!-- Validation Accuracy -->
     <g transform="translate(244.18875 252.469937) scale(0.1 -0.1)">
      <defs>
       <path id="DejaVuSans-56" d="M 1831 0 
L 50 4666 
L 709 4666 
L 2188 738 
L 3669 4666 
L 4325 4666 
L 2547 0 
L 1831 0 
z
" transform="scale(0.015625)"/>
       <path id="DejaVuSans-6c" d="M 603 4863 
L 1178 4863 
L 1178 0 
L 603 0 
L 603 4863 
z
" transform="scale(0.015625)"/>
       <path id="DejaVuSans-64" d="M 2906 2969 
L 2906 4863 
L 3481 4863 
L 3481 0 
L 2906 0 
L 2906 525 
Q 2725 213 2448 61 
Q 2172 -91 1784 -91 
Q 1150 -91 751 415 
Q 353 922 353 1747 
Q 353 2572 751 3078 
Q 1150 3584 1784 3584 
Q 2172 3584 2448 3432 
Q 2725 3281 2906 2969 
z
M 947 1747 
Q 947 1113 1208 752 
Q 1469 391 1925 391 
Q 2381 391 2643 752 
Q 2906 1113 2906 1747 
Q 2906 2381 2643 2742 
Q 2381 3103 1925 3103 
Q 1469 3103 1208 2742 
Q 947 2381 947 1747 
z
" transform="scale(0.015625)"/>
       <path id="DejaVuSans-74" d="M 1172 4494 
L 1172 3500 
L 2356 3500 
L 2356 3053 
L 1172 3053 
L 1172 1153 
Q 1172 725 1289 603 
Q 1406 481 1766 481 
L 2356 481 
L 2356 0 
L 1766 0 
Q 1100 0 847 248 
Q 594 497 594 1153 
L 594 3053 
L 172 3053 
L 172 3500 
L 594 3500 
L 594 4494 
L 1172 4494 
z
" transform="scale(0.015625)"/>
      </defs>
      <use xlink:href="#DejaVuSans-56"/>
      <use xlink:href="#DejaVuSans-61" x="60.658203"/>
      <use xlink:href="#DejaVuSans-6c" x="121.9375"/>
      <use xlink:href="#DejaVuSans-69" x="149.720703"/>
      <use xlink:href="#DejaVuSans-64" x="177.503906"/>
      <use xlink:href="#DejaVuSans-61" x="240.980469"/>
      <use xlink:href="#DejaVuSans-74" x="302.259766"/>
      <use xlink:href="#DejaVuSans-69" x="341.46875"/>
      <use xlink:href="#DejaVuSans-6f" x="369.251953"/>
      <use xlink:href="#DejaVuSans-6e" x="430.433594"/>
      <use xlink:href="#DejaVuSans-20" x="493.8125"/>
      <use xlink:href="#DejaVuSans-41" x="525.599609"/>
      <use xlink:href="#DejaVuSans-63" x="592.257812"/>
      <use xlink:href="#DejaVuSans-63" x="647.238281"/>
      <use xlink:href="#DejaVuSans-75" x="702.21875"/>
      <use xlink:href="#DejaVuSans-72" x="765.597656"/>
      <use xlink:href="#DejaVuSans-61" x="806.710938"/>
      <use xlink:href="#DejaVuSans-63" x="867.990234"/>
      <use xlink:href="#DejaVuSans-79" x="922.970703"/>
     </g>
    </g>
    <g id="line2d_24">
     <path d="M 216.18875 263.648062 
L 226.18875 263.648062 
L 236.18875 263.648062 
" style="fill: none; stroke: #2ca02c; stroke-width: 1.5; stroke-linecap: square"/>
    </g>
    <g id="text_22">
     <!-- Robust Validation Accuracy -->
     <g transform="translate(244.18875 267.148062) scale(0.1 -0.1)">
      <defs>
       <path id="DejaVuSans-52" d="M 2841 2188 
Q 3044 2119 3236 1894 
Q 3428 1669 3622 1275 
L 4263 0 
L 3584 0 
L 2988 1197 
Q 2756 1666 2539 1819 
Q 2322 1972 1947 1972 
L 1259 1972 
L 1259 0 
L 628 0 
L 628 4666 
L 2053 4666 
Q 2853 4666 3247 4331 
Q 3641 3997 3641 3322 
Q 3641 2881 3436 2590 
Q 3231 2300 2841 2188 
z
M 1259 4147 
L 1259 2491 
L 2053 2491 
Q 2509 2491 2742 2702 
Q 2975 2913 2975 3322 
Q 2975 3731 2742 3939 
Q 2509 4147 2053 4147 
L 1259 4147 
z
" transform="scale(0.015625)"/>
       <path id="DejaVuSans-62" d="M 3116 1747 
Q 3116 2381 2855 2742 
Q 2594 3103 2138 3103 
Q 1681 3103 1420 2742 
Q 1159 2381 1159 1747 
Q 1159 1113 1420 752 
Q 1681 391 2138 391 
Q 2594 391 2855 752 
Q 3116 1113 3116 1747 
z
M 1159 2969 
Q 1341 3281 1617 3432 
Q 1894 3584 2278 3584 
Q 2916 3584 3314 3078 
Q 3713 2572 3713 1747 
Q 3713 922 3314 415 
Q 2916 -91 2278 -91 
Q 1894 -91 1617 61 
Q 1341 213 1159 525 
L 1159 0 
L 581 0 
L 581 4863 
L 1159 4863 
L 1159 2969 
z
" transform="scale(0.015625)"/>
      </defs>
      <use xlink:href="#DejaVuSans-52"/>
      <use xlink:href="#DejaVuSans-6f" x="64.982422"/>
      <use xlink:href="#DejaVuSans-62" x="126.164062"/>
      <use xlink:href="#DejaVuSans-75" x="189.640625"/>
      <use xlink:href="#DejaVuSans-73" x="253.019531"/>
      <use xlink:href="#DejaVuSans-74" x="305.119141"/>
      <use xlink:href="#DejaVuSans-20" x="344.328125"/>
      <use xlink:href="#DejaVuSans-56" x="376.115234"/>
      <use xlink:href="#DejaVuSans-61" x="436.773438"/>
      <use xlink:href="#DejaVuSans-6c" x="498.052734"/>
      <use xlink:href="#DejaVuSans-69" x="525.835938"/>
      <use xlink:href="#DejaVuSans-64" x="553.619141"/>
      <use xlink:href="#DejaVuSans-61" x="617.095703"/>
      <use xlink:href="#DejaVuSans-74" x="678.375"/>
      <use xlink:href="#DejaVuSans-69" x="717.583984"/>
      <use xlink:href="#DejaVuSans-6f" x="745.367188"/>
      <use xlink:href="#DejaVuSans-6e" x="806.548828"/>
      <use xlink:href="#DejaVuSans-20" x="869.927734"/>
      <use xlink:href="#DejaVuSans-41" x="901.714844"/>
      <use xlink:href="#DejaVuSans-63" x="968.373047"/>
      <use xlink:href="#DejaVuSans-63" x="1023.353516"/>
      <use xlink:href="#DejaVuSans-75" x="1078.333984"/>
      <use xlink:href="#DejaVuSans-72" x="1141.712891"/>
      <use xlink:href="#DejaVuSans-61" x="1182.826172"/>
      <use xlink:href="#DejaVuSans-63" x="1244.105469"/>
      <use xlink:href="#DejaVuSans-79" x="1299.085938"/>
     </g>
    </g>
    <g id="line2d_25">
     <path d="M 216.18875 278.326188 
L 226.18875 278.326188 
L 236.18875 278.326188 
" style="fill: none; stroke: #d62728; stroke-width: 1.5; stroke-linecap: square"/>
    </g>
    <g id="text_23">
     <!-- SWA Validation Accuracy -->
     <g transform="translate(244.18875 281.826188) scale(0.1 -0.1)">
      <defs>
       <path id="DejaVuSans-53" d="M 3425 4513 
L 3425 3897 
Q 3066 4069 2747 4153 
Q 2428 4238 2131 4238 
Q 1616 4238 1336 4038 
Q 1056 3838 1056 3469 
Q 1056 3159 1242 3001 
Q 1428 2844 1947 2747 
L 2328 2669 
Q 3034 2534 3370 2195 
Q 3706 1856 3706 1288 
Q 3706 609 3251 259 
Q 2797 -91 1919 -91 
Q 1588 -91 1214 -16 
Q 841 59 441 206 
L 441 856 
Q 825 641 1194 531 
Q 1563 422 1919 422 
Q 2459 422 2753 634 
Q 3047 847 3047 1241 
Q 3047 1584 2836 1778 
Q 2625 1972 2144 2069 
L 1759 2144 
Q 1053 2284 737 2584 
Q 422 2884 422 3419 
Q 422 4038 858 4394 
Q 1294 4750 2059 4750 
Q 2388 4750 2728 4690 
Q 3069 4631 3425 4513 
z
" transform="scale(0.015625)"/>
       <path id="DejaVuSans-57" d="M 213 4666 
L 850 4666 
L 1831 722 
L 2809 4666 
L 3519 4666 
L 4500 722 
L 5478 4666 
L 6119 4666 
L 4947 0 
L 4153 0 
L 3169 4050 
L 2175 0 
L 1381 0 
L 213 4666 
z
" transform="scale(0.015625)"/>
      </defs>
      <use xlink:href="#DejaVuSans-53"/>
      <use xlink:href="#DejaVuSans-57" x="63.476562"/>
      <use xlink:href="#DejaVuSans-41" x="156.853516"/>
      <use xlink:href="#DejaVuSans-20" x="225.261719"/>
      <use xlink:href="#DejaVuSans-56" x="257.048828"/>
      <use xlink:href="#DejaVuSans-61" x="317.707031"/>
      <use xlink:href="#DejaVuSans-6c" x="378.986328"/>
      <use xlink:href="#DejaVuSans-69" x="406.769531"/>
      <use xlink:href="#DejaVuSans-64" x="434.552734"/>
      <use xlink:href="#DejaVuSans-61" x="498.029297"/>
      <use xlink:href="#DejaVuSans-74" x="559.308594"/>
      <use xlink:href="#DejaVuSans-69" x="598.517578"/>
      <use xlink:href="#DejaVuSans-6f" x="626.300781"/>
      <use xlink:href="#DejaVuSans-6e" x="687.482422"/>
      <use xlink:href="#DejaVuSans-20" x="750.861328"/>
      <use xlink:href="#DejaVuSans-41" x="782.648438"/>
      <use xlink:href="#DejaVuSans-63" x="849.306641"/>
      <use xlink:href="#DejaVuSans-63" x="904.287109"/>
      <use xlink:href="#DejaVuSans-75" x="959.267578"/>
      <use xlink:href="#DejaVuSans-72" x="1022.646484"/>
      <use xlink:href="#DejaVuSans-61" x="1063.759766"/>
      <use xlink:href="#DejaVuSans-63" x="1125.039062"/>
      <use xlink:href="#DejaVuSans-79" x="1180.019531"/>
     </g>
    </g>
    <g id="line2d_26">
     <path d="M 216.18875 293.004312 
L 226.18875 293.004312 
L 236.18875 293.004312 
" style="fill: none; stroke: #9467bd; stroke-width: 1.5; stroke-linecap: square"/>
    </g>
    <g id="text_24">
     <!-- SWA Robust Validation Accuracy -->
     <g transform="translate(244.18875 296.504312) scale(0.1 -0.1)">
      <use xlink:href="#DejaVuSans-53"/>
      <use xlink:href="#DejaVuSans-57" x="63.476562"/>
      <use xlink:href="#DejaVuSans-41" x="156.853516"/>
      <use xlink:href="#DejaVuSans-20" x="225.261719"/>
      <use xlink:href="#DejaVuSans-52" x="257.048828"/>
      <use xlink:href="#DejaVuSans-6f" x="322.03125"/>
      <use xlink:href="#DejaVuSans-62" x="383.212891"/>
      <use xlink:href="#DejaVuSans-75" x="446.689453"/>
      <use xlink:href="#DejaVuSans-73" x="510.068359"/>
      <use xlink:href="#DejaVuSans-74" x="562.167969"/>
      <use xlink:href="#DejaVuSans-20" x="601.376953"/>
      <use xlink:href="#DejaVuSans-56" x="633.164062"/>
      <use xlink:href="#DejaVuSans-61" x="693.822266"/>
      <use xlink:href="#DejaVuSans-6c" x="755.101562"/>
      <use xlink:href="#DejaVuSans-69" x="782.884766"/>
      <use xlink:href="#DejaVuSans-64" x="810.667969"/>
      <use xlink:href="#DejaVuSans-61" x="874.144531"/>
      <use xlink:href="#DejaVuSans-74" x="935.423828"/>
      <use xlink:href="#DejaVuSans-69" x="974.632812"/>
      <use xlink:href="#DejaVuSans-6f" x="1002.416016"/>
      <use xlink:href="#DejaVuSans-6e" x="1063.597656"/>
      <use xlink:href="#DejaVuSans-20" x="1126.976562"/>
      <use xlink:href="#DejaVuSans-41" x="1158.763672"/>
      <use xlink:href="#DejaVuSans-63" x="1225.421875"/>
      <use xlink:href="#DejaVuSans-63" x="1280.402344"/>
      <use xlink:href="#DejaVuSans-75" x="1335.382812"/>
      <use xlink:href="#DejaVuSans-72" x="1398.761719"/>
      <use xlink:href="#DejaVuSans-61" x="1439.875"/>
      <use xlink:href="#DejaVuSans-63" x="1501.154297"/>
      <use xlink:href="#DejaVuSans-79" x="1556.134766"/>
     </g>
    </g>
   </g>
  </g>
 </g>
 <defs>
  <clipPath id="pded08075f5">
   <rect x="57.6" y="41.472" width="357.12" height="266.112"/>
  </clipPath>
 </defs>
</svg>
