<?xml version="1.0" encoding="utf-8" standalone="no"?>
<!DOCTYPE svg PUBLIC "-//W3C//DTD SVG 1.1//EN"
  "http://www.w3.org/Graphics/SVG/1.1/DTD/svg11.dtd">
<svg xmlns:xlink="http://www.w3.org/1999/xlink" width="460.8pt" height="345.6pt" viewBox="0 0 460.8 345.6" xmlns="http://www.w3.org/2000/svg" version="1.1">
 <metadata>
  <rdf:RDF xmlns:dc="http://purl.org/dc/elements/1.1/" xmlns:cc="http://creativecommons.org/ns#" xmlns:rdf="http://www.w3.org/1999/02/22-rdf-syntax-ns#">
   <cc:Work>
    <dc:type rdf:resource="http://purl.org/dc/dcmitype/StillImage"/>
    <dc:date>2025-01-10T03:34:24.400479</dc:date>
    <dc:format>image/svg+xml</dc:format>
    <dc:creator>
     <cc:Agent>
      <dc:title>Matplotlib v3.9.1, https://matplotlib.org/</dc:title>
     </cc:Agent>
    </dc:creator>
   </cc:Work>
  </rdf:RDF>
 </metadata>
 <defs>
  <style type="text/css">*{stroke-linejoin: round; stroke-linecap: butt}</style>
 </defs>
 <g id="figure_1">
  <g id="patch_1">
   <path d="M 0 345.6 
L 460.8 345.6 
L 460.8 0 
L 0 0 
z
" style="fill: #ffffff"/>
  </g>
  <g id="axes_1">
   <g id="patch_2">
    <path d="M 57.6 307.584 
L 414.72 307.584 
L 414.72 41.472 
L 57.6 41.472 
z
" style="fill: #ffffff"/>
   </g>
   <g id="matplotlib.axis_1">
    <g id="xtick_1">
     <g id="line2d_1">
      <defs>
       <path id="m50b4874b19" d="M 0 0 
L 0 3.5 
" style="stroke: #000000; stroke-width: 0.8"/>
      </defs>
      <g>
       <use xlink:href="#m50b4874b19" x="73.832727" y="307.584" style="stroke: #000000; stroke-width: 0.8"/>
      </g>
     </g>
     <g id="text_1">
      <!-- 1 -->
      <g transform="translate(70.651477 322.182437) scale(0.1 -0.1)">
       <defs>
        <path id="DejaVuSans-31" d="M 794 531 
L 1825 531 
L 1825 4091 
L 703 3866 
L 703 4441 
L 1819 4666 
L 2450 4666 
L 2450 531 
L 3481 531 
L 3481 0 
L 794 0 
L 794 531 
z
" transform="scale(0.015625)"/>
       </defs>
       <use xlink:href="#DejaVuSans-31"/>
      </g>
     </g>
    </g>
    <g id="xtick_2">
     <g id="line2d_2">
      <g>
       <use xlink:href="#m50b4874b19" x="109.664165" y="307.584" style="stroke: #000000; stroke-width: 0.8"/>
      </g>
     </g>
     <g id="text_2">
      <!-- 34 -->
      <g transform="translate(103.301665 322.182437) scale(0.1 -0.1)">
       <defs>
        <path id="DejaVuSans-33" d="M 2597 2516 
Q 3050 2419 3304 2112 
Q 3559 1806 3559 1356 
Q 3559 666 3084 287 
Q 2609 -91 1734 -91 
Q 1441 -91 1130 -33 
Q 819 25 488 141 
L 488 750 
Q 750 597 1062 519 
Q 1375 441 1716 441 
Q 2309 441 2620 675 
Q 2931 909 2931 1356 
Q 2931 1769 2642 2001 
Q 2353 2234 1838 2234 
L 1294 2234 
L 1294 2753 
L 1863 2753 
Q 2328 2753 2575 2939 
Q 2822 3125 2822 3475 
Q 2822 3834 2567 4026 
Q 2313 4219 1838 4219 
Q 1578 4219 1281 4162 
Q 984 4106 628 3988 
L 628 4550 
Q 988 4650 1302 4700 
Q 1616 4750 1894 4750 
Q 2613 4750 3031 4423 
Q 3450 4097 3450 3541 
Q 3450 3153 3228 2886 
Q 3006 2619 2597 2516 
z
" transform="scale(0.015625)"/>
        <path id="DejaVuSans-34" d="M 2419 4116 
L 825 1625 
L 2419 1625 
L 2419 4116 
z
M 2253 4666 
L 3047 4666 
L 3047 1625 
L 3713 1625 
L 3713 1100 
L 3047 1100 
L 3047 0 
L 2419 0 
L 2419 1100 
L 313 1100 
L 313 1709 
L 2253 4666 
z
" transform="scale(0.015625)"/>
       </defs>
       <use xlink:href="#DejaVuSans-33"/>
       <use xlink:href="#DejaVuSans-34" x="63.623047"/>
      </g>
     </g>
    </g>
    <g id="xtick_3">
     <g id="line2d_3">
      <g>
       <use xlink:href="#m50b4874b19" x="145.495604" y="307.584" style="stroke: #000000; stroke-width: 0.8"/>
      </g>
     </g>
     <g id="text_3">
      <!-- 67 -->
      <g transform="translate(139.133104 322.182437) scale(0.1 -0.1)">
       <defs>
        <path id="DejaVuSans-36" d="M 2113 2584 
Q 1688 2584 1439 2293 
Q 1191 2003 1191 1497 
Q 1191 994 1439 701 
Q 1688 409 2113 409 
Q 2538 409 2786 701 
Q 3034 994 3034 1497 
Q 3034 2003 2786 2293 
Q 2538 2584 2113 2584 
z
M 3366 4563 
L 3366 3988 
Q 3128 4100 2886 4159 
Q 2644 4219 2406 4219 
Q 1781 4219 1451 3797 
Q 1122 3375 1075 2522 
Q 1259 2794 1537 2939 
Q 1816 3084 2150 3084 
Q 2853 3084 3261 2657 
Q 3669 2231 3669 1497 
Q 3669 778 3244 343 
Q 2819 -91 2113 -91 
Q 1303 -91 875 529 
Q 447 1150 447 2328 
Q 447 3434 972 4092 
Q 1497 4750 2381 4750 
Q 2619 4750 2861 4703 
Q 3103 4656 3366 4563 
z
" transform="scale(0.015625)"/>
        <path id="DejaVuSans-37" d="M 525 4666 
L 3525 4666 
L 3525 4397 
L 1831 0 
L 1172 0 
L 2766 4134 
L 525 4134 
L 525 4666 
z
" transform="scale(0.015625)"/>
       </defs>
       <use xlink:href="#DejaVuSans-36"/>
       <use xlink:href="#DejaVuSans-37" x="63.623047"/>
      </g>
     </g>
    </g>
    <g id="xtick_4">
     <g id="line2d_4">
      <g>
       <use xlink:href="#m50b4874b19" x="181.327042" y="307.584" style="stroke: #000000; stroke-width: 0.8"/>
      </g>
     </g>
     <g id="text_4">
      <!-- 100 -->
      <g transform="translate(171.783292 322.182437) scale(0.1 -0.1)">
       <defs>
        <path id="DejaVuSans-30" d="M 2034 4250 
Q 1547 4250 1301 3770 
Q 1056 3291 1056 2328 
Q 1056 1369 1301 889 
Q 1547 409 2034 409 
Q 2525 409 2770 889 
Q 3016 1369 3016 2328 
Q 3016 3291 2770 3770 
Q 2525 4250 2034 4250 
z
M 2034 4750 
Q 2819 4750 3233 4129 
Q 3647 3509 3647 2328 
Q 3647 1150 3233 529 
Q 2819 -91 2034 -91 
Q 1250 -91 836 529 
Q 422 1150 422 2328 
Q 422 3509 836 4129 
Q 1250 4750 2034 4750 
z
" transform="scale(0.015625)"/>
       </defs>
       <use xlink:href="#DejaVuSans-31"/>
       <use xlink:href="#DejaVuSans-30" x="63.623047"/>
       <use xlink:href="#DejaVuSans-30" x="127.246094"/>
      </g>
     </g>
    </g>
    <g id="xtick_5">
     <g id="line2d_5">
      <g>
       <use xlink:href="#m50b4874b19" x="217.15848" y="307.584" style="stroke: #000000; stroke-width: 0.8"/>
      </g>
     </g>
     <g id="text_5">
      <!-- 133 -->
      <g transform="translate(207.61473 322.182437) scale(0.1 -0.1)">
       <use xlink:href="#DejaVuSans-31"/>
       <use xlink:href="#DejaVuSans-33" x="63.623047"/>
       <use xlink:href="#DejaVuSans-33" x="127.246094"/>
      </g>
     </g>
    </g>
    <g id="xtick_6">
     <g id="line2d_6">
      <g>
       <use xlink:href="#m50b4874b19" x="254.075719" y="307.584" style="stroke: #000000; stroke-width: 0.8"/>
      </g>
     </g>
     <g id="text_6">
      <!-- 167 -->
      <g transform="translate(244.531969 322.182437) scale(0.1 -0.1)">
       <use xlink:href="#DejaVuSans-31"/>
       <use xlink:href="#DejaVuSans-36" x="63.623047"/>
       <use xlink:href="#DejaVuSans-37" x="127.246094"/>
      </g>
     </g>
    </g>
    <g id="xtick_7">
     <g id="line2d_7">
      <g>
       <use xlink:href="#m50b4874b19" x="289.907157" y="307.584" style="stroke: #000000; stroke-width: 0.8"/>
      </g>
     </g>
     <g id="text_7">
      <!-- 200 -->
      <g transform="translate(280.363407 322.182437) scale(0.1 -0.1)">
       <defs>
        <path id="DejaVuSans-32" d="M 1228 531 
L 3431 531 
L 3431 0 
L 469 0 
L 469 531 
Q 828 903 1448 1529 
Q 2069 2156 2228 2338 
Q 2531 2678 2651 2914 
Q 2772 3150 2772 3378 
Q 2772 3750 2511 3984 
Q 2250 4219 1831 4219 
Q 1534 4219 1204 4116 
Q 875 4013 500 3803 
L 500 4441 
Q 881 4594 1212 4672 
Q 1544 4750 1819 4750 
Q 2544 4750 2975 4387 
Q 3406 4025 3406 3419 
Q 3406 3131 3298 2873 
Q 3191 2616 2906 2266 
Q 2828 2175 2409 1742 
Q 1991 1309 1228 531 
z
" transform="scale(0.015625)"/>
       </defs>
       <use xlink:href="#DejaVuSans-32"/>
       <use xlink:href="#DejaVuSans-30" x="63.623047"/>
       <use xlink:href="#DejaVuSans-30" x="127.246094"/>
      </g>
     </g>
    </g>
    <g id="xtick_8">
     <g id="line2d_8">
      <g>
       <use xlink:href="#m50b4874b19" x="325.738595" y="307.584" style="stroke: #000000; stroke-width: 0.8"/>
      </g>
     </g>
     <g id="text_8">
      <!-- 233 -->
      <g transform="translate(316.194845 322.182437) scale(0.1 -0.1)">
       <use xlink:href="#DejaVuSans-32"/>
       <use xlink:href="#DejaVuSans-33" x="63.623047"/>
       <use xlink:href="#DejaVuSans-33" x="127.246094"/>
      </g>
     </g>
    </g>
    <g id="xtick_9">
     <g id="line2d_9">
      <g>
       <use xlink:href="#m50b4874b19" x="361.570033" y="307.584" style="stroke: #000000; stroke-width: 0.8"/>
      </g>
     </g>
     <g id="text_9">
      <!-- 266 -->
      <g transform="translate(352.026283 322.182437) scale(0.1 -0.1)">
       <use xlink:href="#DejaVuSans-32"/>
       <use xlink:href="#DejaVuSans-36" x="63.623047"/>
       <use xlink:href="#DejaVuSans-36" x="127.246094"/>
      </g>
     </g>
    </g>
    <g id="xtick_10">
     <g id="line2d_10">
      <g>
       <use xlink:href="#m50b4874b19" x="398.487273" y="307.584" style="stroke: #000000; stroke-width: 0.8"/>
      </g>
     </g>
     <g id="text_10">
      <!-- 300 -->
      <g transform="translate(388.943523 322.182437) scale(0.1 -0.1)">
       <use xlink:href="#DejaVuSans-33"/>
       <use xlink:href="#DejaVuSans-30" x="63.623047"/>
       <use xlink:href="#DejaVuSans-30" x="127.246094"/>
      </g>
     </g>
    </g>
    <g id="text_11">
     <!-- Epochs -->
     <g transform="translate(218.244375 335.860562) scale(0.1 -0.1)">
      <defs>
       <path id="DejaVuSans-45" d="M 628 4666 
L 3578 4666 
L 3578 4134 
L 1259 4134 
L 1259 2753 
L 3481 2753 
L 3481 2222 
L 1259 2222 
L 1259 531 
L 3634 531 
L 3634 0 
L 628 0 
L 628 4666 
z
" transform="scale(0.015625)"/>
       <path id="DejaVuSans-70" d="M 1159 525 
L 1159 -1331 
L 581 -1331 
L 581 3500 
L 1159 3500 
L 1159 2969 
Q 1341 3281 1617 3432 
Q 1894 3584 2278 3584 
Q 2916 3584 3314 3078 
Q 3713 2572 3713 1747 
Q 3713 922 3314 415 
Q 2916 -91 2278 -91 
Q 1894 -91 1617 61 
Q 1341 213 1159 525 
z
M 3116 1747 
Q 3116 2381 2855 2742 
Q 2594 3103 2138 3103 
Q 1681 3103 1420 2742 
Q 1159 2381 1159 1747 
Q 1159 1113 1420 752 
Q 1681 391 2138 391 
Q 2594 391 2855 752 
Q 3116 1113 3116 1747 
z
" transform="scale(0.015625)"/>
       <path id="DejaVuSans-6f" d="M 1959 3097 
Q 1497 3097 1228 2736 
Q 959 2375 959 1747 
Q 959 1119 1226 758 
Q 1494 397 1959 397 
Q 2419 397 2687 759 
Q 2956 1122 2956 1747 
Q 2956 2369 2687 2733 
Q 2419 3097 1959 3097 
z
M 1959 3584 
Q 2709 3584 3137 3096 
Q 3566 2609 3566 1747 
Q 3566 888 3137 398 
Q 2709 -91 1959 -91 
Q 1206 -91 779 398 
Q 353 888 353 1747 
Q 353 2609 779 3096 
Q 1206 3584 1959 3584 
z
" transform="scale(0.015625)"/>
       <path id="DejaVuSans-63" d="M 3122 3366 
L 3122 2828 
Q 2878 2963 2633 3030 
Q 2388 3097 2138 3097 
Q 1578 3097 1268 2742 
Q 959 2388 959 1747 
Q 959 1106 1268 751 
Q 1578 397 2138 397 
Q 2388 397 2633 464 
Q 2878 531 3122 666 
L 3122 134 
Q 2881 22 2623 -34 
Q 2366 -91 2075 -91 
Q 1284 -91 818 406 
Q 353 903 353 1747 
Q 353 2603 823 3093 
Q 1294 3584 2113 3584 
Q 2378 3584 2631 3529 
Q 2884 3475 3122 3366 
z
" transform="scale(0.015625)"/>
       <path id="DejaVuSans-68" d="M 3513 2113 
L 3513 0 
L 2938 0 
L 2938 2094 
Q 2938 2591 2744 2837 
Q 2550 3084 2163 3084 
Q 1697 3084 1428 2787 
Q 1159 2491 1159 1978 
L 1159 0 
L 581 0 
L 581 4863 
L 1159 4863 
L 1159 2956 
Q 1366 3272 1645 3428 
Q 1925 3584 2291 3584 
Q 2894 3584 3203 3211 
Q 3513 2838 3513 2113 
z
" transform="scale(0.015625)"/>
       <path id="DejaVuSans-73" d="M 2834 3397 
L 2834 2853 
Q 2591 2978 2328 3040 
Q 2066 3103 1784 3103 
Q 1356 3103 1142 2972 
Q 928 2841 928 2578 
Q 928 2378 1081 2264 
Q 1234 2150 1697 2047 
L 1894 2003 
Q 2506 1872 2764 1633 
Q 3022 1394 3022 966 
Q 3022 478 2636 193 
Q 2250 -91 1575 -91 
Q 1294 -91 989 -36 
Q 684 19 347 128 
L 347 722 
Q 666 556 975 473 
Q 1284 391 1588 391 
Q 1994 391 2212 530 
Q 2431 669 2431 922 
Q 2431 1156 2273 1281 
Q 2116 1406 1581 1522 
L 1381 1569 
Q 847 1681 609 1914 
Q 372 2147 372 2553 
Q 372 3047 722 3315 
Q 1072 3584 1716 3584 
Q 2034 3584 2315 3537 
Q 2597 3491 2834 3397 
z
" transform="scale(0.015625)"/>
      </defs>
      <use xlink:href="#DejaVuSans-45"/>
      <use xlink:href="#DejaVuSans-70" x="63.183594"/>
      <use xlink:href="#DejaVuSans-6f" x="126.660156"/>
      <use xlink:href="#DejaVuSans-63" x="187.841797"/>
      <use xlink:href="#DejaVuSans-68" x="242.822266"/>
      <use xlink:href="#DejaVuSans-73" x="306.201172"/>
     </g>
    </g>
   </g>
   <g id="matplotlib.axis_2">
    <g id="ytick_1">
     <g id="line2d_11">
      <defs>
       <path id="mbb352a558f" d="M 0 0 
L -3.5 0 
" style="stroke: #000000; stroke-width: 0.8"/>
      </defs>
      <g>
       <use xlink:href="#mbb352a558f" x="57.6" y="280.523793" style="stroke: #000000; stroke-width: 0.8"/>
      </g>
     </g>
     <g id="text_12">
      <!-- 40 -->
      <g transform="translate(37.875 284.323012) scale(0.1 -0.1)">
       <use xlink:href="#DejaVuSans-34"/>
       <use xlink:href="#DejaVuSans-30" x="63.623047"/>
      </g>
     </g>
    </g>
    <g id="ytick_2">
     <g id="line2d_12">
      <g>
       <use xlink:href="#mbb352a558f" x="57.6" y="240.319047" style="stroke: #000000; stroke-width: 0.8"/>
      </g>
     </g>
     <g id="text_13">
      <!-- 50 -->
      <g transform="translate(37.875 244.118266) scale(0.1 -0.1)">
       <defs>
        <path id="DejaVuSans-35" d="M 691 4666 
L 3169 4666 
L 3169 4134 
L 1269 4134 
L 1269 2991 
Q 1406 3038 1543 3061 
Q 1681 3084 1819 3084 
Q 2600 3084 3056 2656 
Q 3513 2228 3513 1497 
Q 3513 744 3044 326 
Q 2575 -91 1722 -91 
Q 1428 -91 1123 -41 
Q 819 9 494 109 
L 494 744 
Q 775 591 1075 516 
Q 1375 441 1709 441 
Q 2250 441 2565 725 
Q 2881 1009 2881 1497 
Q 2881 1984 2565 2268 
Q 2250 2553 1709 2553 
Q 1456 2553 1204 2497 
Q 953 2441 691 2322 
L 691 4666 
z
" transform="scale(0.015625)"/>
       </defs>
       <use xlink:href="#DejaVuSans-35"/>
       <use xlink:href="#DejaVuSans-30" x="63.623047"/>
      </g>
     </g>
    </g>
    <g id="ytick_3">
     <g id="line2d_13">
      <g>
       <use xlink:href="#mbb352a558f" x="57.6" y="200.114301" style="stroke: #000000; stroke-width: 0.8"/>
      </g>
     </g>
     <g id="text_14">
      <!-- 60 -->
      <g transform="translate(37.875 203.913519) scale(0.1 -0.1)">
       <use xlink:href="#DejaVuSans-36"/>
       <use xlink:href="#DejaVuSans-30" x="63.623047"/>
      </g>
     </g>
    </g>
    <g id="ytick_4">
     <g id="line2d_14">
      <g>
       <use xlink:href="#mbb352a558f" x="57.6" y="159.909554" style="stroke: #000000; stroke-width: 0.8"/>
      </g>
     </g>
     <g id="text_15">
      <!-- 70 -->
      <g transform="translate(37.875 163.708773) scale(0.1 -0.1)">
       <use xlink:href="#DejaVuSans-37"/>
       <use xlink:href="#DejaVuSans-30" x="63.623047"/>
      </g>
     </g>
    </g>
    <g id="ytick_5">
     <g id="line2d_15">
      <g>
       <use xlink:href="#mbb352a558f" x="57.6" y="119.704808" style="stroke: #000000; stroke-width: 0.8"/>
      </g>
     </g>
     <g id="text_16">
      <!-- 80 -->
      <g transform="translate(37.875 123.504027) scale(0.1 -0.1)">
       <defs>
        <path id="DejaVuSans-38" d="M 2034 2216 
Q 1584 2216 1326 1975 
Q 1069 1734 1069 1313 
Q 1069 891 1326 650 
Q 1584 409 2034 409 
Q 2484 409 2743 651 
Q 3003 894 3003 1313 
Q 3003 1734 2745 1975 
Q 2488 2216 2034 2216 
z
M 1403 2484 
Q 997 2584 770 2862 
Q 544 3141 544 3541 
Q 544 4100 942 4425 
Q 1341 4750 2034 4750 
Q 2731 4750 3128 4425 
Q 3525 4100 3525 3541 
Q 3525 3141 3298 2862 
Q 3072 2584 2669 2484 
Q 3125 2378 3379 2068 
Q 3634 1759 3634 1313 
Q 3634 634 3220 271 
Q 2806 -91 2034 -91 
Q 1263 -91 848 271 
Q 434 634 434 1313 
Q 434 1759 690 2068 
Q 947 2378 1403 2484 
z
M 1172 3481 
Q 1172 3119 1398 2916 
Q 1625 2713 2034 2713 
Q 2441 2713 2670 2916 
Q 2900 3119 2900 3481 
Q 2900 3844 2670 4047 
Q 2441 4250 2034 4250 
Q 1625 4250 1398 4047 
Q 1172 3844 1172 3481 
z
" transform="scale(0.015625)"/>
       </defs>
       <use xlink:href="#DejaVuSans-38"/>
       <use xlink:href="#DejaVuSans-30" x="63.623047"/>
      </g>
     </g>
    </g>
    <g id="ytick_6">
     <g id="line2d_16">
      <g>
       <use xlink:href="#mbb352a558f" x="57.6" y="79.500061" style="stroke: #000000; stroke-width: 0.8"/>
      </g>
     </g>
     <g id="text_17">
      <!-- 90 -->
      <g transform="translate(37.875 83.29928) scale(0.1 -0.1)">
       <defs>
        <path id="DejaVuSans-39" d="M 703 97 
L 703 672 
Q 941 559 1184 500 
Q 1428 441 1663 441 
Q 2288 441 2617 861 
Q 2947 1281 2994 2138 
Q 2813 1869 2534 1725 
Q 2256 1581 1919 1581 
Q 1219 1581 811 2004 
Q 403 2428 403 3163 
Q 403 3881 828 4315 
Q 1253 4750 1959 4750 
Q 2769 4750 3195 4129 
Q 3622 3509 3622 2328 
Q 3622 1225 3098 567 
Q 2575 -91 1691 -91 
Q 1453 -91 1209 -44 
Q 966 3 703 97 
z
M 1959 2075 
Q 2384 2075 2632 2365 
Q 2881 2656 2881 3163 
Q 2881 3666 2632 3958 
Q 2384 4250 1959 4250 
Q 1534 4250 1286 3958 
Q 1038 3666 1038 3163 
Q 1038 2656 1286 2365 
Q 1534 2075 1959 2075 
z
" transform="scale(0.015625)"/>
       </defs>
       <use xlink:href="#DejaVuSans-39"/>
       <use xlink:href="#DejaVuSans-30" x="63.623047"/>
      </g>
     </g>
    </g>
    <g id="text_18">
     <!-- Accuracy -->
     <g transform="translate(31.795312 197.356125) rotate(-90) scale(0.1 -0.1)">
      <defs>
       <path id="DejaVuSans-41" d="M 2188 4044 
L 1331 1722 
L 3047 1722 
L 2188 4044 
z
M 1831 4666 
L 2547 4666 
L 4325 0 
L 3669 0 
L 3244 1197 
L 1141 1197 
L 716 0 
L 50 0 
L 1831 4666 
z
" transform="scale(0.015625)"/>
       <path id="DejaVuSans-75" d="M 544 1381 
L 544 3500 
L 1119 3500 
L 1119 1403 
Q 1119 906 1312 657 
Q 1506 409 1894 409 
Q 2359 409 2629 706 
Q 2900 1003 2900 1516 
L 2900 3500 
L 3475 3500 
L 3475 0 
L 2900 0 
L 2900 538 
Q 2691 219 2414 64 
Q 2138 -91 1772 -91 
Q 1169 -91 856 284 
Q 544 659 544 1381 
z
M 1991 3584 
L 1991 3584 
z
" transform="scale(0.015625)"/>
       <path id="DejaVuSans-72" d="M 2631 2963 
Q 2534 3019 2420 3045 
Q 2306 3072 2169 3072 
Q 1681 3072 1420 2755 
Q 1159 2438 1159 1844 
L 1159 0 
L 581 0 
L 581 3500 
L 1159 3500 
L 1159 2956 
Q 1341 3275 1631 3429 
Q 1922 3584 2338 3584 
Q 2397 3584 2469 3576 
Q 2541 3569 2628 3553 
L 2631 2963 
z
" transform="scale(0.015625)"/>
       <path id="DejaVuSans-61" d="M 2194 1759 
Q 1497 1759 1228 1600 
Q 959 1441 959 1056 
Q 959 750 1161 570 
Q 1363 391 1709 391 
Q 2188 391 2477 730 
Q 2766 1069 2766 1631 
L 2766 1759 
L 2194 1759 
z
M 3341 1997 
L 3341 0 
L 2766 0 
L 2766 531 
Q 2569 213 2275 61 
Q 1981 -91 1556 -91 
Q 1019 -91 701 211 
Q 384 513 384 1019 
Q 384 1609 779 1909 
Q 1175 2209 1959 2209 
L 2766 2209 
L 2766 2266 
Q 2766 2663 2505 2880 
Q 2244 3097 1772 3097 
Q 1472 3097 1187 3025 
Q 903 2953 641 2809 
L 641 3341 
Q 956 3463 1253 3523 
Q 1550 3584 1831 3584 
Q 2591 3584 2966 3190 
Q 3341 2797 3341 1997 
z
" transform="scale(0.015625)"/>
       <path id="DejaVuSans-79" d="M 2059 -325 
Q 1816 -950 1584 -1140 
Q 1353 -1331 966 -1331 
L 506 -1331 
L 506 -850 
L 844 -850 
Q 1081 -850 1212 -737 
Q 1344 -625 1503 -206 
L 1606 56 
L 191 3500 
L 800 3500 
L 1894 763 
L 2988 3500 
L 3597 3500 
L 2059 -325 
z
" transform="scale(0.015625)"/>
      </defs>
      <use xlink:href="#DejaVuSans-41"/>
      <use xlink:href="#DejaVuSans-63" x="66.658203"/>
      <use xlink:href="#DejaVuSans-63" x="121.638672"/>
      <use xlink:href="#DejaVuSans-75" x="176.619141"/>
      <use xlink:href="#DejaVuSans-72" x="239.998047"/>
      <use xlink:href="#DejaVuSans-61" x="281.111328"/>
      <use xlink:href="#DejaVuSans-63" x="342.390625"/>
      <use xlink:href="#DejaVuSans-79" x="397.371094"/>
     </g>
    </g>
   </g>
   <g id="line2d_17">
    <path d="M 73.832727 295.488 
L 74.918528 228.394319 
L 76.00433 201.730531 
L 77.090131 183.879624 
L 78.175932 171.416153 
L 79.261733 160.38397 
L 80.347534 154.039661 
L 82.519137 142.629554 
L 84.690739 133.478954 
L 85.77654 127.17485 
L 86.862341 124.360517 
L 87.948142 121.208465 
L 89.033943 116.544715 
L 91.205546 111.173361 
L 92.291347 109.227451 
L 93.377148 106.815166 
L 94.462949 105.954785 
L 95.54875 136.052058 
L 96.634552 135.408782 
L 97.720353 132.538163 
L 98.806154 129.313742 
L 99.891955 127.198973 
L 100.977756 125.373677 
L 102.063557 122.663877 
L 103.149358 121.087851 
L 104.23516 118.78814 
L 106.406762 116.223077 
L 107.492563 113.971611 
L 108.578364 112.612691 
L 109.664165 110.835641 
L 110.749967 108.077595 
L 111.835768 107.579056 
L 112.921569 105.777884 
L 114.00737 105.57686 
L 115.093171 102.794691 
L 116.178972 102.746446 
L 117.264773 101.073928 
L 118.350575 98.725971 
L 119.436376 98.452579 
L 120.522177 96.643365 
L 121.607978 95.099503 
L 122.693779 92.590727 
L 123.77958 91.60169 
L 124.865382 90.403589 
L 125.951183 90.001541 
L 127.036984 88.240573 
L 128.122785 87.163086 
L 129.208586 85.297586 
L 130.294387 83.954747 
L 131.380189 84.324631 
L 133.551791 81.148456 
L 134.637592 81.574626 
L 135.723393 82.435008 
L 136.809194 81.357521 
L 137.894995 80.8429 
L 138.980797 108.391192 
L 140.066598 109.64558 
L 141.152399 109.13096 
L 142.2382 108.021309 
L 143.324001 108.158005 
L 144.409802 106.541774 
L 145.495604 106.839289 
L 146.581405 105.858293 
L 148.753007 103.011797 
L 149.838808 102.473054 
L 150.924609 102.585627 
L 152.01041 101.845859 
L 153.096212 100.599512 
L 154.182013 100.913109 
L 155.267814 100.8327 
L 156.353615 99.023486 
L 157.439416 98.621439 
L 158.525217 99.05565 
L 159.611019 97.769098 
L 160.69682 97.463542 
L 162.868422 95.686492 
L 163.954223 95.726697 
L 165.040024 94.73766 
L 167.211627 94.504473 
L 168.297428 92.647013 
L 169.383229 93.145552 
L 170.46903 91.810755 
L 171.554831 91.609731 
L 172.640632 90.443793 
L 173.726434 90.693063 
L 174.812235 89.422593 
L 175.898036 88.924054 
L 176.983837 88.907972 
L 178.069638 88.481802 
L 179.155439 87.750075 
L 180.24124 87.259577 
L 181.327042 86.254459 
L 182.412843 84.871416 
L 183.498644 84.268344 
L 184.584445 85.152849 
L 185.670246 84.083403 
L 186.756047 83.367758 
L 187.841849 81.751527 
L 188.92765 82.28223 
L 190.013451 81.719363 
L 192.185053 80.135296 
L 193.270854 79.749331 
L 194.356656 78.535148 
L 195.442457 78.318042 
L 196.528258 77.747134 
L 197.614059 76.782221 
L 198.69986 76.806343 
L 199.785661 77.208391 
L 200.871462 75.310727 
L 201.957264 74.989089 
L 203.043065 74.329731 
L 204.128866 73.863356 
L 205.214667 73.919643 
L 206.300468 72.761746 
L 207.386269 73.187916 
L 208.472071 72.054142 
L 209.557872 72.126511 
L 210.643673 71.386744 
L 211.729474 70.856041 
L 212.815275 70.132356 
L 213.901076 70.180601 
L 214.986877 69.83484 
L 216.072679 69.794636 
L 217.15848 70.027823 
L 218.244281 69.722267 
L 219.330082 68.403551 
L 220.415883 69.481039 
L 221.501684 69.440834 
L 222.587486 69.641858 
L 223.673287 68.588493 
L 224.759088 68.604575 
L 225.844889 95.179913 
L 226.93069 98.637521 
L 228.016491 98.082695 
L 229.102292 98.29176 
L 230.188094 96.932839 
L 231.273895 97.672607 
L 232.359696 95.15579 
L 233.445497 96.193072 
L 234.531298 95.791025 
L 235.617099 94.05418 
L 236.702901 94.665292 
L 237.788702 93.426986 
L 238.874503 93.957688 
L 239.960304 93.71646 
L 241.046105 91.987656 
L 242.131906 93.619968 
L 243.217708 92.228884 
L 244.303509 92.671136 
L 246.475111 91.649936 
L 247.560912 91.794673 
L 248.646713 91.046865 
L 251.904117 90.749349 
L 252.989918 90.154319 
L 254.075719 90.371425 
L 256.247321 89.133119 
L 257.333123 89.551248 
L 258.418924 88.907972 
L 259.504725 88.594375 
L 260.590526 89.22961 
L 263.847929 87.36411 
L 264.933731 88.771276 
L 266.019532 87.798321 
L 267.105333 87.034431 
L 268.191134 87.19525 
L 269.276935 87.983263 
L 270.362736 86.704752 
L 271.448538 86.994226 
L 272.534339 86.214254 
L 273.62014 86.463523 
L 274.705941 85.820248 
L 275.791742 86.415278 
L 276.877543 86.752998 
L 277.963344 85.072439 
L 279.049146 85.289545 
L 280.134947 84.847293 
L 281.220748 85.032235 
L 282.306549 83.568782 
L 283.39235 84.5739 
L 284.478151 83.359717 
L 285.563953 83.834133 
L 286.649754 83.898461 
L 288.821356 83.247144 
L 289.907157 82.507376 
L 290.992958 82.692318 
L 292.07876 82.338517 
L 293.164561 82.242025 
L 294.250362 81.574626 
L 295.336163 81.807814 
L 296.421964 81.783691 
L 298.593566 80.617753 
L 299.679368 81.759568 
L 300.765169 80.312197 
L 301.85097 80.682081 
L 304.022572 80.215706 
L 305.108373 79.789536 
L 306.194175 80.360443 
L 307.279976 79.966436 
L 308.365777 79.339242 
L 310.537379 78.921113 
L 312.708981 78.583393 
L 313.794783 77.433537 
L 314.880584 77.996404 
L 315.966385 77.216432 
L 317.052186 76.854589 
L 318.137987 77.345087 
L 319.223788 77.505906 
L 320.30959 75.994208 
L 321.395391 75.954003 
L 322.481192 75.471546 
L 323.566993 75.230317 
L 324.652794 75.342891 
L 325.738595 74.964966 
L 326.824396 74.386018 
L 331.167601 73.839233 
L 332.253402 72.88236 
L 333.339203 73.244203 
L 334.425005 72.190839 
L 335.510806 72.866278 
L 336.596607 72.005897 
L 337.682408 71.603849 
L 338.768209 70.526362 
L 339.85401 71.515399 
L 340.939811 70.823877 
L 342.025613 70.655017 
L 343.111414 70.100192 
L 344.197215 70.462034 
L 345.283016 70.0037 
L 346.368817 69.762472 
L 347.454618 70.212765 
L 348.54042 69.955455 
L 349.626221 69.336302 
L 350.712022 69.505161 
L 351.797823 68.837763 
L 352.883624 68.548289 
L 353.969425 67.406474 
L 355.055227 68.974459 
L 356.141028 67.494924 
L 358.31263 66.94814 
L 359.398431 67.12504 
L 360.484232 66.899894 
L 361.570033 66.497846 
L 362.655835 66.972262 
L 365.913238 65.975185 
L 366.999039 65.380154 
L 368.08484 66.642584 
L 369.170642 66.578256 
L 370.256443 66.095799 
L 371.342244 67.446678 
L 372.428045 68.990541 
L 373.513846 69.15136 
L 375.685448 68.194487 
L 377.857051 69.336302 
L 378.942852 68.371388 
L 380.028653 69.328261 
L 381.114454 68.974459 
L 382.200255 68.371388 
L 383.286057 69.304138 
L 384.371858 68.492002 
L 385.457659 68.548289 
L 386.54346 68.73323 
L 387.629261 69.368465 
L 388.715062 69.66598 
L 389.800863 68.9825 
L 390.886665 69.143319 
L 391.972466 68.829722 
L 393.058267 68.676944 
L 394.144068 68.942295 
L 395.229869 69.481039 
L 396.31567 69.312179 
L 397.401472 68.829722 
L 398.487273 69.682062 
L 398.487273 69.682062 
" clip-path="url(#pa69edac235)" style="fill: none; stroke: #1f77b4; stroke-width: 1.5; stroke-linecap: square"/>
   </g>
   <g id="line2d_18">
    <path d="M 73.832727 239.514952 
L 74.918528 178.524352 
L 76.00433 180.052132 
L 77.090131 147.08424 
L 78.175932 131.525003 
L 79.261733 131.927051 
L 80.347534 133.173398 
L 81.433335 106.557856 
L 82.519137 101.250829 
L 83.604938 100.044687 
L 84.690739 97.471583 
L 85.77654 102.537381 
L 86.862341 93.451108 
L 87.948142 82.87726 
L 89.033943 87.179168 
L 90.119745 79.74129 
L 91.205546 82.354598 
L 92.291347 78.173305 
L 93.377148 78.575352 
L 94.462949 77.530029 
L 95.54875 107.804203 
L 96.634552 94.978889 
L 97.720353 98.677725 
L 98.806154 107.040313 
L 99.891955 89.22961 
L 100.977756 89.551248 
L 102.063557 86.495687 
L 103.149358 86.294664 
L 104.23516 82.11337 
L 105.320961 81.992756 
L 106.406762 81.429889 
L 107.492563 81.027842 
L 108.578364 86.133845 
L 109.664165 81.108251 
L 110.749967 82.837055 
L 111.835768 78.695966 
L 112.921569 76.766139 
L 114.00737 76.444501 
L 115.093171 72.584845 
L 116.178972 71.01686 
L 117.264773 70.574608 
L 118.350575 73.30853 
L 120.522177 68.001504 
L 121.607978 69.167442 
L 122.693779 67.277819 
L 123.77958 67.318023 
L 124.865382 67.03659 
L 125.951183 63.739801 
L 127.036984 64.624305 
L 128.122785 62.855296 
L 129.208586 62.734682 
L 130.294387 63.337753 
L 131.380189 62.29243 
L 132.46599 62.654273 
L 133.551791 61.568745 
L 134.637592 62.252225 
L 135.723393 61.649154 
L 136.809194 61.488335 
L 137.894995 61.166697 
L 138.980797 78.856785 
L 140.066598 81.912346 
L 141.152399 77.731053 
L 142.2382 76.002248 
L 143.324001 86.375073 
L 144.409802 81.068047 
L 145.495604 76.766139 
L 146.581405 77.570234 
L 147.667206 73.027097 
L 148.753007 74.394059 
L 149.838808 76.122863 
L 150.924609 71.981774 
L 152.01041 75.519792 
L 153.096212 73.228121 
L 154.182013 71.378703 
L 155.267814 70.695222 
L 156.353615 69.730308 
L 157.439416 74.836311 
L 158.525217 73.509554 
L 159.611019 72.464231 
L 160.69682 70.413789 
L 161.782621 72.303412 
L 162.868422 72.665255 
L 165.040024 67.921094 
L 166.125825 70.93645 
L 167.211627 67.398433 
L 168.297428 66.353109 
L 169.383229 67.197409 
L 170.46903 68.765394 
L 171.554831 66.031471 
L 172.640632 66.473724 
L 173.726434 65.187172 
L 174.812235 65.910857 
L 175.898036 64.302667 
L 176.983837 66.875771 
L 178.069638 65.307786 
L 179.155439 64.624305 
L 180.24124 63.13673 
L 181.327042 62.010997 
L 182.412843 64.865534 
L 183.498644 64.905738 
L 184.584445 62.29243 
L 185.670246 63.297549 
L 186.756047 62.051201 
L 188.92765 61.488335 
L 190.013451 61.005878 
L 191.099252 59.035846 
L 192.185053 63.578982 
L 193.270854 60.644035 
L 194.356656 61.046083 
L 196.528258 59.759531 
L 197.614059 60.885264 
L 199.785661 59.035846 
L 200.871462 58.593593 
L 201.957264 58.39257 
L 203.043065 59.317279 
L 204.128866 58.432774 
L 205.214667 59.116255 
L 206.300468 58.794617 
L 207.386269 58.794617 
L 208.472071 58.191546 
L 209.557872 57.307041 
L 210.643673 57.46786 
L 211.729474 58.31216 
L 212.815275 57.307041 
L 213.901076 57.950317 
L 214.986877 57.387451 
L 216.072679 56.181309 
L 217.15848 57.186427 
L 218.244281 57.025608 
L 219.330082 56.583356 
L 220.415883 56.462742 
L 221.501684 56.945199 
L 222.587486 56.382332 
L 223.673287 56.543151 
L 224.759088 56.301923 
L 225.844889 73.187916 
L 226.93069 74.313649 
L 228.016491 72.464231 
L 229.102292 71.619931 
L 230.188094 74.394059 
L 231.273895 69.891127 
L 232.359696 74.554878 
L 233.445497 71.86116 
L 234.531298 70.011741 
L 235.617099 72.142593 
L 236.702901 69.368465 
L 237.788702 73.107507 
L 238.874503 70.695222 
L 239.960304 67.438638 
L 241.046105 70.17256 
L 242.131906 68.282937 
L 243.217708 67.478842 
L 244.303509 69.087032 
L 245.38931 72.986893 
L 246.475111 70.494198 
L 247.560912 68.282937 
L 248.646713 69.40867 
L 249.732514 65.951062 
L 250.818316 65.991267 
L 251.904117 68.64478 
L 252.989918 67.599456 
L 254.075719 65.026353 
L 255.16152 69.207646 
L 256.247321 66.755157 
L 257.333123 66.2727 
L 258.418924 63.780006 
L 259.504725 65.549014 
L 260.590526 64.342872 
L 261.676327 65.267581 
L 262.762128 66.915976 
L 263.847929 65.910857 
L 264.933731 65.388195 
L 266.019532 63.82021 
L 267.105333 65.951062 
L 268.191134 70.011741 
L 269.276935 68.765394 
L 270.362736 64.624305 
L 271.448538 64.986148 
L 272.534339 63.096525 
L 273.62014 66.353109 
L 274.705941 65.227376 
L 275.791742 63.418163 
L 276.877543 64.905738 
L 277.963344 63.05632 
L 279.049146 64.986148 
L 280.134947 64.986148 
L 281.220748 63.016115 
L 282.306549 64.66451 
L 283.39235 63.337753 
L 284.478151 62.533658 
L 285.563953 65.146967 
L 286.649754 64.704715 
L 287.735555 64.423282 
L 288.821356 62.453249 
L 289.907157 67.398433 
L 290.992958 62.694477 
L 292.07876 62.131611 
L 293.164561 62.493454 
L 294.250362 61.890383 
L 295.336163 62.493454 
L 296.421964 63.538777 
L 297.507765 60.965673 
L 298.593566 62.051201 
L 299.679368 61.769768 
L 300.765169 61.327516 
L 301.85097 61.930587 
L 302.936771 61.52854 
L 304.022572 60.282193 
L 305.108373 60.76465 
L 306.194175 61.649154 
L 307.279976 61.729564 
L 308.365777 58.915231 
L 309.451578 61.930587 
L 310.537379 61.005878 
L 311.62318 61.970792 
L 312.708981 58.915231 
L 313.794783 60.443012 
L 314.880584 60.724445 
L 315.966385 59.92035 
L 317.052186 58.513184 
L 318.137987 58.633798 
L 319.223788 60.965673 
L 321.395391 59.880145 
L 322.481192 57.266837 
L 323.566993 59.277074 
L 324.652794 57.668884 
L 325.738595 57.829703 
L 326.824396 58.754412 
L 327.910198 59.960555 
L 328.995999 59.236869 
L 330.0818 59.799736 
L 331.167601 58.030727 
L 332.253402 57.266837 
L 333.339203 57.709089 
L 334.425005 57.990522 
L 335.510806 57.54827 
L 336.596607 57.668884 
L 337.682408 57.266837 
L 338.768209 56.502946 
L 339.85401 55.417418 
L 340.939811 58.633798 
L 342.025613 56.78438 
L 343.111414 56.422537 
L 344.197215 55.899875 
L 345.283016 57.829703 
L 346.368817 57.146222 
L 347.454618 55.457623 
L 348.54042 55.859671 
L 349.626221 55.015371 
L 350.712022 55.698852 
L 352.883624 56.301923 
L 353.969425 55.055576 
L 355.055227 54.934961 
L 356.141028 54.251481 
L 357.226829 55.417418 
L 358.31263 55.698852 
L 359.398431 54.774142 
L 360.484232 54.693733 
L 361.570033 55.216395 
L 362.655835 55.17619 
L 363.741636 54.452504 
L 364.827437 55.417418 
L 365.913238 53.809228 
L 368.08484 54.693733 
L 369.170642 55.618442 
L 370.256443 55.296804 
L 373.513846 56.100899 
L 374.599647 56.060694 
L 375.685448 56.904994 
L 376.77125 56.181309 
L 377.857051 55.658647 
L 378.942852 56.342128 
L 380.028653 57.186427 
L 381.114454 56.060694 
L 382.200255 56.462742 
L 383.286057 56.583356 
L 384.371858 55.09578 
L 385.457659 57.186427 
L 386.54346 57.347246 
L 387.629261 56.502946 
L 388.715062 57.347246 
L 389.800863 57.829703 
L 390.886665 57.709089 
L 391.972466 56.744175 
L 393.058267 56.221513 
L 394.144068 56.70397 
L 395.229869 57.990522 
L 396.31567 56.663765 
L 397.401472 58.31216 
L 398.487273 56.623561 
L 398.487273 56.623561 
" clip-path="url(#pa69edac235)" style="fill: none; stroke: #ff7f0e; stroke-width: 1.5; stroke-linecap: square"/>
   </g>
   <g id="line2d_19">
    <path d="M 73.832727 280.995159 
L 74.918528 231.113546 
L 76.00433 234.579473 
L 77.090131 205.382509 
L 78.175932 189.217428 
L 79.261733 198.83884 
L 80.347534 192.738809 
L 82.519137 161.850473 
L 83.604938 181.758754 
L 84.690739 169.253692 
L 85.77654 177.599643 
L 86.862341 167.922776 
L 87.948142 151.674513 
L 89.033943 154.253162 
L 90.119745 144.520841 
L 91.205546 150.121778 
L 92.291347 145.907212 
L 93.377148 144.798115 
L 94.462949 144.243567 
L 95.54875 181.315116 
L 96.634552 174.466445 
L 97.720353 164.540032 
L 98.806154 173.995079 
L 99.891955 163.763664 
L 100.977756 156.388173 
L 102.063557 156.360446 
L 103.149358 158.966822 
L 104.23516 145.962666 
L 105.320961 157.497269 
L 107.492563 161.12956 
L 108.578364 154.308617 
L 109.664165 162.710023 
L 110.749967 144.85357 
L 111.835768 146.683579 
L 112.921569 160.020464 
L 114.00737 148.541316 
L 115.093171 138.309901 
L 116.178972 140.99946 
L 117.264773 132.043506 
L 118.350575 136.06398 
L 119.436376 131.322593 
L 120.522177 135.648069 
L 121.607978 137.394896 
L 122.693779 132.903056 
L 123.77958 133.429876 
L 124.865382 121.701181 
L 125.951183 122.976642 
L 127.036984 126.941662 
L 128.122785 127.024844 
L 129.208586 125.555292 
L 130.294387 123.448008 
L 131.380189 124.695742 
L 132.46599 123.420281 
L 133.551791 120.702995 
L 134.637592 119.704808 
L 136.809194 118.567984 
L 137.894995 118.567984 
L 138.980797 146.323123 
L 140.066598 145.075389 
L 141.152399 141.443098 
L 142.2382 164.567759 
L 143.324001 180.400111 
L 144.409802 152.201334 
L 145.495604 146.988581 
L 146.581405 164.650942 
L 147.667206 149.733594 
L 148.753007 151.119965 
L 149.838808 151.591331 
L 150.924609 135.731252 
L 152.01041 156.609992 
L 153.096212 150.343597 
L 154.182013 146.184486 
L 155.267814 140.500366 
L 156.353615 145.934939 
L 157.439416 154.974075 
L 158.525217 151.868605 
L 159.611019 141.359916 
L 160.69682 142.302648 
L 161.782621 142.912651 
L 162.868422 134.871702 
L 163.954223 142.746287 
L 165.040024 138.198991 
L 166.125825 145.4913 
L 167.211627 131.960324 
L 168.297428 128.522125 
L 169.383229 131.516685 
L 170.46903 135.370795 
L 171.554831 134.954884 
L 172.640632 127.302119 
L 173.726434 132.514872 
L 174.812235 135.232158 
L 175.898036 130.019405 
L 176.983837 137.200804 
L 178.069638 129.936223 
L 179.155439 137.200804 
L 180.24124 124.640287 
L 181.327042 131.544412 
L 182.412843 140.472639 
L 183.498644 128.743944 
L 184.584445 130.490771 
L 185.670246 138.503993 
L 186.756047 123.75301 
L 187.841849 121.590272 
L 188.92765 122.560731 
L 190.013451 130.546226 
L 191.099252 120.481175 
L 192.185053 127.024844 
L 193.270854 126.608933 
L 194.356656 122.699368 
L 196.528258 125.222563 
L 197.614059 131.46123 
L 198.69986 120.619812 
L 199.785661 124.279831 
L 200.871462 121.617999 
L 201.957264 122.477549 
L 203.043065 121.923001 
L 204.128866 114.824783 
L 205.214667 117.625252 
L 206.300468 121.312998 
L 207.386269 122.03391 
L 208.472071 118.041163 
L 209.557872 118.346165 
L 210.643673 119.011623 
L 211.729474 117.514342 
L 212.815275 116.876612 
L 213.901076 115.878425 
L 214.986877 118.041163 
L 216.072679 113.327503 
L 217.15848 115.767515 
L 218.244281 116.57161 
L 219.330082 115.684333 
L 220.415883 114.519782 
L 221.501684 116.460701 
L 222.587486 113.410685 
L 223.673287 116.211154 
L 224.759088 114.575237 
L 225.844889 130.795772 
L 226.93069 138.614902 
L 228.016491 154.086798 
L 229.102292 137.921717 
L 230.188094 156.277263 
L 231.273895 137.367169 
L 232.359696 159.160914 
L 233.445497 159.798645 
L 234.531298 143.550382 
L 235.617099 148.59677 
L 236.702901 140.916277 
L 237.788702 140.13991 
L 238.874503 136.673984 
L 239.960304 138.670357 
L 241.046105 152.506335 
L 243.217708 125.832566 
L 244.303509 131.239411 
L 245.38931 148.485861 
L 246.475111 149.234501 
L 247.560912 149.705867 
L 248.646713 146.184486 
L 249.732514 129.575766 
L 250.818316 128.217123 
L 251.904117 141.498553 
L 252.989918 132.625781 
L 254.075719 132.043506 
L 255.16152 135.814434 
L 256.247321 132.20987 
L 257.333123 134.150789 
L 258.418924 121.590272 
L 259.504725 138.836722 
L 260.590526 121.590272 
L 261.676327 136.563074 
L 262.762128 133.734878 
L 263.847929 135.814434 
L 264.933731 131.988051 
L 266.019532 133.956697 
L 267.105333 132.708964 
L 268.191134 144.714933 
L 269.276935 132.542599 
L 270.362736 130.407589 
L 271.448538 137.339441 
L 272.534339 122.283457 
L 273.62014 131.100774 
L 274.705941 126.026658 
L 275.791742 131.821687 
L 276.877543 140.555821 
L 277.963344 129.714403 
L 279.049146 132.459417 
L 280.134947 132.986238 
L 281.220748 128.161668 
L 282.306549 127.052572 
L 284.478151 122.838005 
L 285.563953 128.35576 
L 286.649754 130.213497 
L 287.735555 128.993491 
L 288.821356 121.340725 
L 289.907157 135.869889 
L 290.992958 131.544412 
L 292.07876 129.686676 
L 293.164561 121.867546 
L 294.250362 141.63719 
L 295.336163 136.646256 
L 296.421964 127.60712 
L 297.507765 120.897087 
L 298.593566 131.378048 
L 299.679368 119.593898 
L 300.765169 117.403433 
L 301.85097 121.728909 
L 302.936771 121.950728 
L 304.022572 121.479362 
L 305.108373 123.891647 
L 306.194175 125.915748 
L 307.279976 128.383488 
L 308.365777 122.006183 
L 309.451578 132.570327 
L 310.537379 129.021218 
L 311.62318 123.947102 
L 312.708981 120.259356 
L 313.794783 122.006183 
L 314.880584 124.168921 
L 315.966385 119.593898 
L 318.137987 109.72294 
L 319.223788 122.200275 
L 320.30959 111.552949 
L 321.395391 120.065264 
L 322.481192 111.497494 
L 323.566993 121.118906 
L 324.652794 116.072517 
L 325.738595 113.493868 
L 326.824396 120.730722 
L 327.910198 111.469767 
L 328.995999 113.161139 
L 330.0818 112.939319 
L 331.167601 114.880238 
L 332.253402 112.745228 
L 333.339203 121.50709 
L 334.425005 120.730722 
L 335.510806 117.652979 
L 336.596607 116.155699 
L 337.682408 114.131598 
L 338.768209 107.809748 
L 339.85401 116.432973 
L 340.939811 111.996587 
L 342.025613 114.797056 
L 343.111414 108.22566 
L 344.197215 106.39565 
L 345.283016 107.698839 
L 346.368817 106.423378 
L 347.454618 103.567454 
L 348.54042 111.053855 
L 349.626221 106.894744 
L 350.712022 99.491525 
L 351.797823 113.382958 
L 352.883624 101.931537 
L 353.969425 105.00928 
L 355.055227 108.75248 
L 356.141028 103.622909 
L 357.226829 106.811562 
L 358.31263 110.942946 
L 359.398431 107.782021 
L 360.484232 111.885678 
L 361.570033 104.454732 
L 362.655835 106.562015 
L 363.741636 107.504747 
L 364.827437 107.643384 
L 365.913238 101.626536 
L 366.999039 102.042447 
L 368.08484 106.562015 
L 369.170642 113.826597 
L 370.256443 101.820628 
L 371.342244 111.636131 
L 372.428045 109.417938 
L 373.513846 110.637944 
L 374.599647 104.759733 
L 375.685448 108.197932 
L 376.77125 110.332943 
L 377.857051 109.279301 
L 378.942852 109.112937 
L 380.028653 108.197932 
L 381.114454 111.22022 
L 382.200255 108.9743 
L 383.286057 105.508373 
L 384.371858 105.175644 
L 385.457659 111.10931 
L 386.54346 108.502934 
L 387.629261 106.50656 
L 389.800863 113.105684 
L 390.886665 113.798869 
L 391.972466 109.667485 
L 393.058267 115.268422 
L 394.144068 110.194306 
L 395.229869 115.573424 
L 396.31567 112.634318 
L 397.401472 115.878425 
L 398.487273 106.201559 
L 398.487273 106.201559 
" clip-path="url(#pa69edac235)" style="fill: none; stroke: #2ca02c; stroke-width: 1.5; stroke-linecap: square"/>
   </g>
   <g id="line2d_20">
    <path d="M 368.08484 53.728819 
L 369.170642 54.211276 
L 370.256443 53.889638 
L 371.342244 55.17619 
L 372.428045 54.291685 
L 373.513846 54.573119 
L 374.599647 53.568 
L 376.77125 53.568 
L 377.857051 54.452504 
L 378.942852 55.698852 
L 380.028653 54.934961 
L 381.114454 56.100899 
L 382.200255 55.09578 
L 384.371858 54.211276 
L 385.457659 54.975166 
L 386.54346 54.894757 
L 387.629261 56.181309 
L 388.715062 54.130866 
L 389.800863 54.010252 
L 390.886665 54.733938 
L 395.229869 54.934961 
L 396.31567 54.211276 
L 397.401472 55.296804 
L 398.487273 55.618442 
L 398.487273 55.618442 
" clip-path="url(#pa69edac235)" style="fill: none; stroke: #d62728; stroke-width: 1.5; stroke-linecap: square"/>
   </g>
   <g id="line2d_21">
    <path d="M 368.08484 100.766986 
L 369.170642 104.288367 
L 370.256443 102.402903 
L 371.342244 105.369736 
L 372.428045 100.877896 
L 373.513846 102.929724 
L 374.599647 101.765173 
L 375.685448 102.985179 
L 376.77125 102.846542 
L 377.857051 107.587929 
L 378.942852 107.116563 
L 380.028653 102.54154 
L 381.114454 109.750667 
L 382.200255 106.894744 
L 383.286057 107.310655 
L 384.371858 105.258827 
L 385.457659 107.587929 
L 386.54346 104.537914 
L 387.629261 103.706091 
L 388.715062 105.841102 
L 389.800863 101.016533 
L 390.886665 97.495151 
L 391.972466 98.548793 
L 393.058267 100.156983 
L 394.144068 97.82788 
L 395.229869 100.240165 
L 396.31567 96.829693 
L 398.487273 103.234726 
L 398.487273 103.234726 
" clip-path="url(#pa69edac235)" style="fill: none; stroke: #9467bd; stroke-width: 1.5; stroke-linecap: square"/>
   </g>
   <g id="patch_3">
    <path d="M 57.6 307.584 
L 57.6 41.472 
" style="fill: none; stroke: #000000; stroke-width: 0.8; stroke-linejoin: miter; stroke-linecap: square"/>
   </g>
   <g id="patch_4">
    <path d="M 414.72 307.584 
L 414.72 41.472 
" style="fill: none; stroke: #000000; stroke-width: 0.8; stroke-linejoin: miter; stroke-linecap: square"/>
   </g>
   <g id="patch_5">
    <path d="M 57.6 307.584 
L 414.72 307.584 
" style="fill: none; stroke: #000000; stroke-width: 0.8; stroke-linejoin: miter; stroke-linecap: square"/>
   </g>
   <g id="patch_6">
    <path d="M 57.6 41.472 
L 414.72 41.472 
" style="fill: none; stroke: #000000; stroke-width: 0.8; stroke-linejoin: miter; stroke-linecap: square"/>
   </g>
   <g id="text_19">
    <!-- Learning Curves -->
    <g transform="translate(187.37625 35.472) scale(0.12 -0.12)">
     <defs>
      <path id="DejaVuSans-4c" d="M 628 4666 
L 1259 4666 
L 1259 531 
L 3531 531 
L 3531 0 
L 628 0 
L 628 4666 
z
" transform="scale(0.015625)"/>
      <path id="DejaVuSans-65" d="M 3597 1894 
L 3597 1613 
L 953 1613 
Q 991 1019 1311 708 
Q 1631 397 2203 397 
Q 2534 397 2845 478 
Q 3156 559 3463 722 
L 3463 178 
Q 3153 47 2828 -22 
Q 2503 -91 2169 -91 
Q 1331 -91 842 396 
Q 353 884 353 1716 
Q 353 2575 817 3079 
Q 1281 3584 2069 3584 
Q 2775 3584 3186 3129 
Q 3597 2675 3597 1894 
z
M 3022 2063 
Q 3016 2534 2758 2815 
Q 2500 3097 2075 3097 
Q 1594 3097 1305 2825 
Q 1016 2553 972 2059 
L 3022 2063 
z
" transform="scale(0.015625)"/>
      <path id="DejaVuSans-6e" d="M 3513 2113 
L 3513 0 
L 2938 0 
L 2938 2094 
Q 2938 2591 2744 2837 
Q 2550 3084 2163 3084 
Q 1697 3084 1428 2787 
Q 1159 2491 1159 1978 
L 1159 0 
L 581 0 
L 581 3500 
L 1159 3500 
L 1159 2956 
Q 1366 3272 1645 3428 
Q 1925 3584 2291 3584 
Q 2894 3584 3203 3211 
Q 3513 2838 3513 2113 
z
" transform="scale(0.015625)"/>
      <path id="DejaVuSans-69" d="M 603 3500 
L 1178 3500 
L 1178 0 
L 603 0 
L 603 3500 
z
M 603 4863 
L 1178 4863 
L 1178 4134 
L 603 4134 
L 603 4863 
z
" transform="scale(0.015625)"/>
      <path id="DejaVuSans-67" d="M 2906 1791 
Q 2906 2416 2648 2759 
Q 2391 3103 1925 3103 
Q 1463 3103 1205 2759 
Q 947 2416 947 1791 
Q 947 1169 1205 825 
Q 1463 481 1925 481 
Q 2391 481 2648 825 
Q 2906 1169 2906 1791 
z
M 3481 434 
Q 3481 -459 3084 -895 
Q 2688 -1331 1869 -1331 
Q 1566 -1331 1297 -1286 
Q 1028 -1241 775 -1147 
L 775 -588 
Q 1028 -725 1275 -790 
Q 1522 -856 1778 -856 
Q 2344 -856 2625 -561 
Q 2906 -266 2906 331 
L 2906 616 
Q 2728 306 2450 153 
Q 2172 0 1784 0 
Q 1141 0 747 490 
Q 353 981 353 1791 
Q 353 2603 747 3093 
Q 1141 3584 1784 3584 
Q 2172 3584 2450 3431 
Q 2728 3278 2906 2969 
L 2906 3500 
L 3481 3500 
L 3481 434 
z
" transform="scale(0.015625)"/>
      <path id="DejaVuSans-20" transform="scale(0.015625)"/>
      <path id="DejaVuSans-43" d="M 4122 4306 
L 4122 3641 
Q 3803 3938 3442 4084 
Q 3081 4231 2675 4231 
Q 1875 4231 1450 3742 
Q 1025 3253 1025 2328 
Q 1025 1406 1450 917 
Q 1875 428 2675 428 
Q 3081 428 3442 575 
Q 3803 722 4122 1019 
L 4122 359 
Q 3791 134 3420 21 
Q 3050 -91 2638 -91 
Q 1578 -91 968 557 
Q 359 1206 359 2328 
Q 359 3453 968 4101 
Q 1578 4750 2638 4750 
Q 3056 4750 3426 4639 
Q 3797 4528 4122 4306 
z
" transform="scale(0.015625)"/>
      <path id="DejaVuSans-76" d="M 191 3500 
L 800 3500 
L 1894 563 
L 2988 3500 
L 3597 3500 
L 2284 0 
L 1503 0 
L 191 3500 
z
" transform="scale(0.015625)"/>
     </defs>
     <use xlink:href="#DejaVuSans-4c"/>
     <use xlink:href="#DejaVuSans-65" x="53.962891"/>
     <use xlink:href="#DejaVuSans-61" x="115.486328"/>
     <use xlink:href="#DejaVuSans-72" x="176.765625"/>
     <use xlink:href="#DejaVuSans-6e" x="216.128906"/>
     <use xlink:href="#DejaVuSans-69" x="279.507812"/>
     <use xlink:href="#DejaVuSans-6e" x="307.291016"/>
     <use xlink:href="#DejaVuSans-67" x="370.669922"/>
     <use xlink:href="#DejaVuSans-20" x="434.146484"/>
     <use xlink:href="#DejaVuSans-43" x="465.933594"/>
     <use xlink:href="#DejaVuSans-75" x="535.757812"/>
     <use xlink:href="#DejaVuSans-72" x="599.136719"/>
     <use xlink:href="#DejaVuSans-76" x="640.25"/>
     <use xlink:href="#DejaVuSans-65" x="699.429688"/>
     <use xlink:href="#DejaVuSans-73" x="760.953125"/>
    </g>
   </g>
   <g id="legend_1">
    <g id="patch_7">
     <path d="M 214.18875 302.584 
L 407.72 302.584 
Q 409.72 302.584 409.72 300.584 
L 409.72 228.193375 
Q 409.72 226.193375 407.72 226.193375 
L 214.18875 226.193375 
Q 212.18875 226.193375 212.18875 228.193375 
L 212.18875 300.584 
Q 212.18875 302.584 214.18875 302.584 
z
" style="fill: #ffffff; opacity: 0.8; stroke: #cccccc; stroke-linejoin: miter"/>
    </g>
    <g id="line2d_22">
     <path d="M 216.18875 234.291812 
L 226.18875 234.291812 
L 236.18875 234.291812 
" style="fill: none; stroke: #1f77b4; stroke-width: 1.5; stroke-linecap: square"/>
    </g>
    <g id="text_20">
     <!-- Train Accuracy -->
     <g transform="translate(244.18875 237.791812) scale(0.1 -0.1)">
      <defs>
       <path id="DejaVuSans-54" d="M -19 4666 
L 3928 4666 
L 3928 4134 
L 2272 4134 
L 2272 0 
L 1638 0 
L 1638 4134 
L -19 4134 
L -19 4666 
z
" transform="scale(0.015625)"/>
      </defs>
      <use xlink:href="#DejaVuSans-54"/>
      <use xlink:href="#DejaVuSans-72" x="46.333984"/>
      <use xlink:href="#DejaVuSans-61" x="87.447266"/>
      <use xlink:href="#DejaVuSans-69" x="148.726562"/>
      <use xlink:href="#DejaVuSans-6e" x="176.509766"/>
      <use xlink:href="#DejaVuSans-20" x="239.888672"/>
      <use xlink:href="#DejaVuSans-41" x="271.675781"/>
      <use xlink:href="#DejaVuSans-63" x="338.333984"/>
      <use xlink:href="#DejaVuSans-63" x="393.314453"/>
      <use xlink:href="#DejaVuSans-75" x="448.294922"/>
      <use xlink:href="#DejaVuSans-72" x="511.673828"/>
      <use xlink:href="#DejaVuSans-61" x="552.787109"/>
      <use xlink:href="#DejaVuSans-63" x="614.066406"/>
      <use xlink:href="#DejaVuSans-79" x="669.046875"/>
     </g>
    </g>
    <g id="line2d_23">
     <path d="M 216.18875 248.969937 
L 226.18875 248.969937 
L 236.18875 248.969937 
" style="fill: none; stroke: #ff7f0e; stroke-width: 1.5; stroke-linecap: square"/>
    </g>
    <g id="text_21">
     <!-- Validation Accuracy -->
     <g transform="translate(244.18875 252.469937) scale(0.1 -0.1)">
      <defs>
       <path id="DejaVuSans-56" d="M 1831 0 
L 50 4666 
L 709 4666 
L 2188 738 
L 3669 4666 
L 4325 4666 
L 2547 0 
L 1831 0 
z
" transform="scale(0.015625)"/>
       <path id="DejaVuSans-6c" d="M 603 4863 
L 1178 4863 
L 1178 0 
L 603 0 
L 603 4863 
z
" transform="scale(0.015625)"/>
       <path id="DejaVuSans-64" d="M 2906 2969 
L 2906 4863 
L 3481 4863 
L 3481 0 
L 2906 0 
L 2906 525 
Q 2725 213 2448 61 
Q 2172 -91 1784 -91 
Q 1150 -91 751 415 
Q 353 922 353 1747 
Q 353 2572 751 3078 
Q 1150 3584 1784 3584 
Q 2172 3584 2448 3432 
Q 2725 3281 2906 2969 
z
M 947 1747 
Q 947 1113 1208 752 
Q 1469 391 1925 391 
Q 2381 391 2643 752 
Q 2906 1113 2906 1747 
Q 2906 2381 2643 2742 
Q 2381 3103 1925 3103 
Q 1469 3103 1208 2742 
Q 947 2381 947 1747 
z
" transform="scale(0.015625)"/>
       <path id="DejaVuSans-74" d="M 1172 4494 
L 1172 3500 
L 2356 3500 
L 2356 3053 
L 1172 3053 
L 1172 1153 
Q 1172 725 1289 603 
Q 1406 481 1766 481 
L 2356 481 
L 2356 0 
L 1766 0 
Q 1100 0 847 248 
Q 594 497 594 1153 
L 594 3053 
L 172 3053 
L 172 3500 
L 594 3500 
L 594 4494 
L 1172 4494 
z
" transform="scale(0.015625)"/>
      </defs>
      <use xlink:href="#DejaVuSans-56"/>
      <use xlink:href="#DejaVuSans-61" x="60.658203"/>
      <use xlink:href="#DejaVuSans-6c" x="121.9375"/>
      <use xlink:href="#DejaVuSans-69" x="149.720703"/>
      <use xlink:href="#DejaVuSans-64" x="177.503906"/>
      <use xlink:href="#DejaVuSans-61" x="240.980469"/>
      <use xlink:href="#DejaVuSans-74" x="302.259766"/>
      <use xlink:href="#DejaVuSans-69" x="341.46875"/>
      <use xlink:href="#DejaVuSans-6f" x="369.251953"/>
      <use xlink:href="#DejaVuSans-6e" x="430.433594"/>
      <use xlink:href="#DejaVuSans-20" x="493.8125"/>
      <use xlink:href="#DejaVuSans-41" x="525.599609"/>
      <use xlink:href="#DejaVuSans-63" x="592.257812"/>
      <use xlink:href="#DejaVuSans-63" x="647.238281"/>
      <use xlink:href="#DejaVuSans-75" x="702.21875"/>
      <use xlink:href="#DejaVuSans-72" x="765.597656"/>
      <use xlink:href="#DejaVuSans-61" x="806.710938"/>
      <use xlink:href="#DejaVuSans-63" x="867.990234"/>
      <use xlink:href="#DejaVuSans-79" x="922.970703"/>
     </g>
    </g>
    <g id="line2d_24">
     <path d="M 216.18875 263.648062 
L 226.18875 263.648062 
L 236.18875 263.648062 
" style="fill: none; stroke: #2ca02c; stroke-width: 1.5; stroke-linecap: square"/>
    </g>
    <g id="text_22">
     <!-- Robust Validation Accuracy -->
     <g transform="translate(244.18875 267.148062) scale(0.1 -0.1)">
      <defs>
       <path id="DejaVuSans-52" d="M 2841 2188 
Q 3044 2119 3236 1894 
Q 3428 1669 3622 1275 
L 4263 0 
L 3584 0 
L 2988 1197 
Q 2756 1666 2539 1819 
Q 2322 1972 1947 1972 
L 1259 1972 
L 1259 0 
L 628 0 
L 628 4666 
L 2053 4666 
Q 2853 4666 3247 4331 
Q 3641 3997 3641 3322 
Q 3641 2881 3436 2590 
Q 3231 2300 2841 2188 
z
M 1259 4147 
L 1259 2491 
L 2053 2491 
Q 2509 2491 2742 2702 
Q 2975 2913 2975 3322 
Q 2975 3731 2742 3939 
Q 2509 4147 2053 4147 
L 1259 4147 
z
" transform="scale(0.015625)"/>
       <path id="DejaVuSans-62" d="M 3116 1747 
Q 3116 2381 2855 2742 
Q 2594 3103 2138 3103 
Q 1681 3103 1420 2742 
Q 1159 2381 1159 1747 
Q 1159 1113 1420 752 
Q 1681 391 2138 391 
Q 2594 391 2855 752 
Q 3116 1113 3116 1747 
z
M 1159 2969 
Q 1341 3281 1617 3432 
Q 1894 3584 2278 3584 
Q 2916 3584 3314 3078 
Q 3713 2572 3713 1747 
Q 3713 922 3314 415 
Q 2916 -91 2278 -91 
Q 1894 -91 1617 61 
Q 1341 213 1159 525 
L 1159 0 
L 581 0 
L 581 4863 
L 1159 4863 
L 1159 2969 
z
" transform="scale(0.015625)"/>
      </defs>
      <use xlink:href="#DejaVuSans-52"/>
      <use xlink:href="#DejaVuSans-6f" x="64.982422"/>
      <use xlink:href="#DejaVuSans-62" x="126.164062"/>
      <use xlink:href="#DejaVuSans-75" x="189.640625"/>
      <use xlink:href="#DejaVuSans-73" x="253.019531"/>
      <use xlink:href="#DejaVuSans-74" x="305.119141"/>
      <use xlink:href="#DejaVuSans-20" x="344.328125"/>
      <use xlink:href="#DejaVuSans-56" x="376.115234"/>
      <use xlink:href="#DejaVuSans-61" x="436.773438"/>
      <use xlink:href="#DejaVuSans-6c" x="498.052734"/>
      <use xlink:href="#DejaVuSans-69" x="525.835938"/>
      <use xlink:href="#DejaVuSans-64" x="553.619141"/>
      <use xlink:href="#DejaVuSans-61" x="617.095703"/>
      <use xlink:href="#DejaVuSans-74" x="678.375"/>
      <use xlink:href="#DejaVuSans-69" x="717.583984"/>
      <use xlink:href="#DejaVuSans-6f" x="745.367188"/>
      <use xlink:href="#DejaVuSans-6e" x="806.548828"/>
      <use xlink:href="#DejaVuSans-20" x="869.927734"/>
      <use xlink:href="#DejaVuSans-41" x="901.714844"/>
      <use xlink:href="#DejaVuSans-63" x="968.373047"/>
      <use xlink:href="#DejaVuSans-63" x="1023.353516"/>
      <use xlink:href="#DejaVuSans-75" x="1078.333984"/>
      <use xlink:href="#DejaVuSans-72" x="1141.712891"/>
      <use xlink:href="#DejaVuSans-61" x="1182.826172"/>
      <use xlink:href="#DejaVuSans-63" x="1244.105469"/>
      <use xlink:href="#DejaVuSans-79" x="1299.085938"/>
     </g>
    </g>
    <g id="line2d_25">
     <path d="M 216.18875 278.326188 
L 226.18875 278.326188 
L 236.18875 278.326188 
" style="fill: none; stroke: #d62728; stroke-width: 1.5; stroke-linecap: square"/>
    </g>
    <g id="text_23">
     <!-- SWA Validation Accuracy -->
     <g transform="translate(244.18875 281.826188) scale(0.1 -0.1)">
      <defs>
       <path id="DejaVuSans-53" d="M 3425 4513 
L 3425 3897 
Q 3066 4069 2747 4153 
Q 2428 4238 2131 4238 
Q 1616 4238 1336 4038 
Q 1056 3838 1056 3469 
Q 1056 3159 1242 3001 
Q 1428 2844 1947 2747 
L 2328 2669 
Q 3034 2534 3370 2195 
Q 3706 1856 3706 1288 
Q 3706 609 3251 259 
Q 2797 -91 1919 -91 
Q 1588 -91 1214 -16 
Q 841 59 441 206 
L 441 856 
Q 825 641 1194 531 
Q 1563 422 1919 422 
Q 2459 422 2753 634 
Q 3047 847 3047 1241 
Q 3047 1584 2836 1778 
Q 2625 1972 2144 2069 
L 1759 2144 
Q 1053 2284 737 2584 
Q 422 2884 422 3419 
Q 422 4038 858 4394 
Q 1294 4750 2059 4750 
Q 2388 4750 2728 4690 
Q 3069 4631 3425 4513 
z
" transform="scale(0.015625)"/>
       <path id="DejaVuSans-57" d="M 213 4666 
L 850 4666 
L 1831 722 
L 2809 4666 
L 3519 4666 
L 4500 722 
L 5478 4666 
L 6119 4666 
L 4947 0 
L 4153 0 
L 3169 4050 
L 2175 0 
L 1381 0 
L 213 4666 
z
" transform="scale(0.015625)"/>
      </defs>
      <use xlink:href="#DejaVuSans-53"/>
      <use xlink:href="#DejaVuSans-57" x="63.476562"/>
      <use xlink:href="#DejaVuSans-41" x="156.853516"/>
      <use xlink:href="#DejaVuSans-20" x="225.261719"/>
      <use xlink:href="#DejaVuSans-56" x="257.048828"/>
      <use xlink:href="#DejaVuSans-61" x="317.707031"/>
      <use xlink:href="#DejaVuSans-6c" x="378.986328"/>
      <use xlink:href="#DejaVuSans-69" x="406.769531"/>
      <use xlink:href="#DejaVuSans-64" x="434.552734"/>
      <use xlink:href="#DejaVuSans-61" x="498.029297"/>
      <use xlink:href="#DejaVuSans-74" x="559.308594"/>
      <use xlink:href="#DejaVuSans-69" x="598.517578"/>
      <use xlink:href="#DejaVuSans-6f" x="626.300781"/>
      <use xlink:href="#DejaVuSans-6e" x="687.482422"/>
      <use xlink:href="#DejaVuSans-20" x="750.861328"/>
      <use xlink:href="#DejaVuSans-41" x="782.648438"/>
      <use xlink:href="#DejaVuSans-63" x="849.306641"/>
      <use xlink:href="#DejaVuSans-63" x="904.287109"/>
      <use xlink:href="#DejaVuSans-75" x="959.267578"/>
      <use xlink:href="#DejaVuSans-72" x="1022.646484"/>
      <use xlink:href="#DejaVuSans-61" x="1063.759766"/>
      <use xlink:href="#DejaVuSans-63" x="1125.039062"/>
      <use xlink:href="#DejaVuSans-79" x="1180.019531"/>
     </g>
    </g>
    <g id="line2d_26">
     <path d="M 216.18875 293.004312 
L 226.18875 293.004312 
L 236.18875 293.004312 
" style="fill: none; stroke: #9467bd; stroke-width: 1.5; stroke-linecap: square"/>
    </g>
    <g id="text_24">
     <!-- SWA Robust Validation Accuracy -->
     <g transform="translate(244.18875 296.504312) scale(0.1 -0.1)">
      <use xlink:href="#DejaVuSans-53"/>
      <use xlink:href="#DejaVuSans-57" x="63.476562"/>
      <use xlink:href="#DejaVuSans-41" x="156.853516"/>
      <use xlink:href="#DejaVuSans-20" x="225.261719"/>
      <use xlink:href="#DejaVuSans-52" x="257.048828"/>
      <use xlink:href="#DejaVuSans-6f" x="322.03125"/>
      <use xlink:href="#DejaVuSans-62" x="383.212891"/>
      <use xlink:href="#DejaVuSans-75" x="446.689453"/>
      <use xlink:href="#DejaVuSans-73" x="510.068359"/>
      <use xlink:href="#DejaVuSans-74" x="562.167969"/>
      <use xlink:href="#DejaVuSans-20" x="601.376953"/>
      <use xlink:href="#DejaVuSans-56" x="633.164062"/>
      <use xlink:href="#DejaVuSans-61" x="693.822266"/>
      <use xlink:href="#DejaVuSans-6c" x="755.101562"/>
      <use xlink:href="#DejaVuSans-69" x="782.884766"/>
      <use xlink:href="#DejaVuSans-64" x="810.667969"/>
      <use xlink:href="#DejaVuSans-61" x="874.144531"/>
      <use xlink:href="#DejaVuSans-74" x="935.423828"/>
      <use xlink:href="#DejaVuSans-69" x="974.632812"/>
      <use xlink:href="#DejaVuSans-6f" x="1002.416016"/>
      <use xlink:href="#DejaVuSans-6e" x="1063.597656"/>
      <use xlink:href="#DejaVuSans-20" x="1126.976562"/>
      <use xlink:href="#DejaVuSans-41" x="1158.763672"/>
      <use xlink:href="#DejaVuSans-63" x="1225.421875"/>
      <use xlink:href="#DejaVuSans-63" x="1280.402344"/>
      <use xlink:href="#DejaVuSans-75" x="1335.382812"/>
      <use xlink:href="#DejaVuSans-72" x="1398.761719"/>
      <use xlink:href="#DejaVuSans-61" x="1439.875"/>
      <use xlink:href="#DejaVuSans-63" x="1501.154297"/>
      <use xlink:href="#DejaVuSans-79" x="1556.134766"/>
     </g>
    </g>
   </g>
  </g>
 </g>
 <defs>
  <clipPath id="pa69edac235">
   <rect x="57.6" y="41.472" width="357.12" height="266.112"/>
  </clipPath>
 </defs>
</svg>
