<?xml version="1.0" encoding="utf-8" standalone="no"?>
<!DOCTYPE svg PUBLIC "-//W3C//DTD SVG 1.1//EN"
  "http://www.w3.org/Graphics/SVG/1.1/DTD/svg11.dtd">
<svg xmlns:xlink="http://www.w3.org/1999/xlink" width="460.8pt" height="345.6pt" viewBox="0 0 460.8 345.6" xmlns="http://www.w3.org/2000/svg" version="1.1">
 <metadata>
  <rdf:RDF xmlns:dc="http://purl.org/dc/elements/1.1/" xmlns:cc="http://creativecommons.org/ns#" xmlns:rdf="http://www.w3.org/1999/02/22-rdf-syntax-ns#">
   <cc:Work>
    <dc:type rdf:resource="http://purl.org/dc/dcmitype/StillImage"/>
    <dc:date>2025-01-26T23:10:35.289957</dc:date>
    <dc:format>image/svg+xml</dc:format>
    <dc:creator>
     <cc:Agent>
      <dc:title>Matplotlib v3.9.1, https://matplotlib.org/</dc:title>
     </cc:Agent>
    </dc:creator>
   </cc:Work>
  </rdf:RDF>
 </metadata>
 <defs>
  <style type="text/css">*{stroke-linejoin: round; stroke-linecap: butt}</style>
 </defs>
 <g id="figure_1">
  <g id="patch_1">
   <path d="M 0 345.6 
L 460.8 345.6 
L 460.8 0 
L 0 0 
z
" style="fill: #ffffff"/>
  </g>
  <g id="axes_1">
   <g id="patch_2">
    <path d="M 57.6 307.584 
L 414.72 307.584 
L 414.72 41.472 
L 57.6 41.472 
z
" style="fill: #ffffff"/>
   </g>
   <g id="matplotlib.axis_1">
    <g id="xtick_1">
     <g id="line2d_1">
      <defs>
       <path id="m33e6d47635" d="M 0 0 
L 0 3.5 
" style="stroke: #000000; stroke-width: 0.8"/>
      </defs>
      <g>
       <use xlink:href="#m33e6d47635" x="73.832727" y="307.584" style="stroke: #000000; stroke-width: 0.8"/>
      </g>
     </g>
     <g id="text_1">
      <!-- 1 -->
      <g transform="translate(70.651477 322.182437) scale(0.1 -0.1)">
       <defs>
        <path id="DejaVuSans-31" d="M 794 531 
L 1825 531 
L 1825 4091 
L 703 3866 
L 703 4441 
L 1819 4666 
L 2450 4666 
L 2450 531 
L 3481 531 
L 3481 0 
L 794 0 
L 794 531 
z
" transform="scale(0.015625)"/>
       </defs>
       <use xlink:href="#DejaVuSans-31"/>
      </g>
     </g>
    </g>
    <g id="xtick_2">
     <g id="line2d_2">
      <g>
       <use xlink:href="#m33e6d47635" x="109.664165" y="307.584" style="stroke: #000000; stroke-width: 0.8"/>
      </g>
     </g>
     <g id="text_2">
      <!-- 34 -->
      <g transform="translate(103.301665 322.182437) scale(0.1 -0.1)">
       <defs>
        <path id="DejaVuSans-33" d="M 2597 2516 
Q 3050 2419 3304 2112 
Q 3559 1806 3559 1356 
Q 3559 666 3084 287 
Q 2609 -91 1734 -91 
Q 1441 -91 1130 -33 
Q 819 25 488 141 
L 488 750 
Q 750 597 1062 519 
Q 1375 441 1716 441 
Q 2309 441 2620 675 
Q 2931 909 2931 1356 
Q 2931 1769 2642 2001 
Q 2353 2234 1838 2234 
L 1294 2234 
L 1294 2753 
L 1863 2753 
Q 2328 2753 2575 2939 
Q 2822 3125 2822 3475 
Q 2822 3834 2567 4026 
Q 2313 4219 1838 4219 
Q 1578 4219 1281 4162 
Q 984 4106 628 3988 
L 628 4550 
Q 988 4650 1302 4700 
Q 1616 4750 1894 4750 
Q 2613 4750 3031 4423 
Q 3450 4097 3450 3541 
Q 3450 3153 3228 2886 
Q 3006 2619 2597 2516 
z
" transform="scale(0.015625)"/>
        <path id="DejaVuSans-34" d="M 2419 4116 
L 825 1625 
L 2419 1625 
L 2419 4116 
z
M 2253 4666 
L 3047 4666 
L 3047 1625 
L 3713 1625 
L 3713 1100 
L 3047 1100 
L 3047 0 
L 2419 0 
L 2419 1100 
L 313 1100 
L 313 1709 
L 2253 4666 
z
" transform="scale(0.015625)"/>
       </defs>
       <use xlink:href="#DejaVuSans-33"/>
       <use xlink:href="#DejaVuSans-34" x="63.623047"/>
      </g>
     </g>
    </g>
    <g id="xtick_3">
     <g id="line2d_3">
      <g>
       <use xlink:href="#m33e6d47635" x="145.495604" y="307.584" style="stroke: #000000; stroke-width: 0.8"/>
      </g>
     </g>
     <g id="text_3">
      <!-- 67 -->
      <g transform="translate(139.133104 322.182437) scale(0.1 -0.1)">
       <defs>
        <path id="DejaVuSans-36" d="M 2113 2584 
Q 1688 2584 1439 2293 
Q 1191 2003 1191 1497 
Q 1191 994 1439 701 
Q 1688 409 2113 409 
Q 2538 409 2786 701 
Q 3034 994 3034 1497 
Q 3034 2003 2786 2293 
Q 2538 2584 2113 2584 
z
M 3366 4563 
L 3366 3988 
Q 3128 4100 2886 4159 
Q 2644 4219 2406 4219 
Q 1781 4219 1451 3797 
Q 1122 3375 1075 2522 
Q 1259 2794 1537 2939 
Q 1816 3084 2150 3084 
Q 2853 3084 3261 2657 
Q 3669 2231 3669 1497 
Q 3669 778 3244 343 
Q 2819 -91 2113 -91 
Q 1303 -91 875 529 
Q 447 1150 447 2328 
Q 447 3434 972 4092 
Q 1497 4750 2381 4750 
Q 2619 4750 2861 4703 
Q 3103 4656 3366 4563 
z
" transform="scale(0.015625)"/>
        <path id="DejaVuSans-37" d="M 525 4666 
L 3525 4666 
L 3525 4397 
L 1831 0 
L 1172 0 
L 2766 4134 
L 525 4134 
L 525 4666 
z
" transform="scale(0.015625)"/>
       </defs>
       <use xlink:href="#DejaVuSans-36"/>
       <use xlink:href="#DejaVuSans-37" x="63.623047"/>
      </g>
     </g>
    </g>
    <g id="xtick_4">
     <g id="line2d_4">
      <g>
       <use xlink:href="#m33e6d47635" x="181.327042" y="307.584" style="stroke: #000000; stroke-width: 0.8"/>
      </g>
     </g>
     <g id="text_4">
      <!-- 100 -->
      <g transform="translate(171.783292 322.182437) scale(0.1 -0.1)">
       <defs>
        <path id="DejaVuSans-30" d="M 2034 4250 
Q 1547 4250 1301 3770 
Q 1056 3291 1056 2328 
Q 1056 1369 1301 889 
Q 1547 409 2034 409 
Q 2525 409 2770 889 
Q 3016 1369 3016 2328 
Q 3016 3291 2770 3770 
Q 2525 4250 2034 4250 
z
M 2034 4750 
Q 2819 4750 3233 4129 
Q 3647 3509 3647 2328 
Q 3647 1150 3233 529 
Q 2819 -91 2034 -91 
Q 1250 -91 836 529 
Q 422 1150 422 2328 
Q 422 3509 836 4129 
Q 1250 4750 2034 4750 
z
" transform="scale(0.015625)"/>
       </defs>
       <use xlink:href="#DejaVuSans-31"/>
       <use xlink:href="#DejaVuSans-30" x="63.623047"/>
       <use xlink:href="#DejaVuSans-30" x="127.246094"/>
      </g>
     </g>
    </g>
    <g id="xtick_5">
     <g id="line2d_5">
      <g>
       <use xlink:href="#m33e6d47635" x="217.15848" y="307.584" style="stroke: #000000; stroke-width: 0.8"/>
      </g>
     </g>
     <g id="text_5">
      <!-- 133 -->
      <g transform="translate(207.61473 322.182437) scale(0.1 -0.1)">
       <use xlink:href="#DejaVuSans-31"/>
       <use xlink:href="#DejaVuSans-33" x="63.623047"/>
       <use xlink:href="#DejaVuSans-33" x="127.246094"/>
      </g>
     </g>
    </g>
    <g id="xtick_6">
     <g id="line2d_6">
      <g>
       <use xlink:href="#m33e6d47635" x="254.075719" y="307.584" style="stroke: #000000; stroke-width: 0.8"/>
      </g>
     </g>
     <g id="text_6">
      <!-- 167 -->
      <g transform="translate(244.531969 322.182437) scale(0.1 -0.1)">
       <use xlink:href="#DejaVuSans-31"/>
       <use xlink:href="#DejaVuSans-36" x="63.623047"/>
       <use xlink:href="#DejaVuSans-37" x="127.246094"/>
      </g>
     </g>
    </g>
    <g id="xtick_7">
     <g id="line2d_7">
      <g>
       <use xlink:href="#m33e6d47635" x="289.907157" y="307.584" style="stroke: #000000; stroke-width: 0.8"/>
      </g>
     </g>
     <g id="text_7">
      <!-- 200 -->
      <g transform="translate(280.363407 322.182437) scale(0.1 -0.1)">
       <defs>
        <path id="DejaVuSans-32" d="M 1228 531 
L 3431 531 
L 3431 0 
L 469 0 
L 469 531 
Q 828 903 1448 1529 
Q 2069 2156 2228 2338 
Q 2531 2678 2651 2914 
Q 2772 3150 2772 3378 
Q 2772 3750 2511 3984 
Q 2250 4219 1831 4219 
Q 1534 4219 1204 4116 
Q 875 4013 500 3803 
L 500 4441 
Q 881 4594 1212 4672 
Q 1544 4750 1819 4750 
Q 2544 4750 2975 4387 
Q 3406 4025 3406 3419 
Q 3406 3131 3298 2873 
Q 3191 2616 2906 2266 
Q 2828 2175 2409 1742 
Q 1991 1309 1228 531 
z
" transform="scale(0.015625)"/>
       </defs>
       <use xlink:href="#DejaVuSans-32"/>
       <use xlink:href="#DejaVuSans-30" x="63.623047"/>
       <use xlink:href="#DejaVuSans-30" x="127.246094"/>
      </g>
     </g>
    </g>
    <g id="xtick_8">
     <g id="line2d_8">
      <g>
       <use xlink:href="#m33e6d47635" x="325.738595" y="307.584" style="stroke: #000000; stroke-width: 0.8"/>
      </g>
     </g>
     <g id="text_8">
      <!-- 233 -->
      <g transform="translate(316.194845 322.182437) scale(0.1 -0.1)">
       <use xlink:href="#DejaVuSans-32"/>
       <use xlink:href="#DejaVuSans-33" x="63.623047"/>
       <use xlink:href="#DejaVuSans-33" x="127.246094"/>
      </g>
     </g>
    </g>
    <g id="xtick_9">
     <g id="line2d_9">
      <g>
       <use xlink:href="#m33e6d47635" x="361.570033" y="307.584" style="stroke: #000000; stroke-width: 0.8"/>
      </g>
     </g>
     <g id="text_9">
      <!-- 266 -->
      <g transform="translate(352.026283 322.182437) scale(0.1 -0.1)">
       <use xlink:href="#DejaVuSans-32"/>
       <use xlink:href="#DejaVuSans-36" x="63.623047"/>
       <use xlink:href="#DejaVuSans-36" x="127.246094"/>
      </g>
     </g>
    </g>
    <g id="xtick_10">
     <g id="line2d_10">
      <g>
       <use xlink:href="#m33e6d47635" x="398.487273" y="307.584" style="stroke: #000000; stroke-width: 0.8"/>
      </g>
     </g>
     <g id="text_10">
      <!-- 300 -->
      <g transform="translate(388.943523 322.182437) scale(0.1 -0.1)">
       <use xlink:href="#DejaVuSans-33"/>
       <use xlink:href="#DejaVuSans-30" x="63.623047"/>
       <use xlink:href="#DejaVuSans-30" x="127.246094"/>
      </g>
     </g>
    </g>
    <g id="text_11">
     <!-- Epochs -->
     <g transform="translate(218.244375 335.860562) scale(0.1 -0.1)">
      <defs>
       <path id="DejaVuSans-45" d="M 628 4666 
L 3578 4666 
L 3578 4134 
L 1259 4134 
L 1259 2753 
L 3481 2753 
L 3481 2222 
L 1259 2222 
L 1259 531 
L 3634 531 
L 3634 0 
L 628 0 
L 628 4666 
z
" transform="scale(0.015625)"/>
       <path id="DejaVuSans-70" d="M 1159 525 
L 1159 -1331 
L 581 -1331 
L 581 3500 
L 1159 3500 
L 1159 2969 
Q 1341 3281 1617 3432 
Q 1894 3584 2278 3584 
Q 2916 3584 3314 3078 
Q 3713 2572 3713 1747 
Q 3713 922 3314 415 
Q 2916 -91 2278 -91 
Q 1894 -91 1617 61 
Q 1341 213 1159 525 
z
M 3116 1747 
Q 3116 2381 2855 2742 
Q 2594 3103 2138 3103 
Q 1681 3103 1420 2742 
Q 1159 2381 1159 1747 
Q 1159 1113 1420 752 
Q 1681 391 2138 391 
Q 2594 391 2855 752 
Q 3116 1113 3116 1747 
z
" transform="scale(0.015625)"/>
       <path id="DejaVuSans-6f" d="M 1959 3097 
Q 1497 3097 1228 2736 
Q 959 2375 959 1747 
Q 959 1119 1226 758 
Q 1494 397 1959 397 
Q 2419 397 2687 759 
Q 2956 1122 2956 1747 
Q 2956 2369 2687 2733 
Q 2419 3097 1959 3097 
z
M 1959 3584 
Q 2709 3584 3137 3096 
Q 3566 2609 3566 1747 
Q 3566 888 3137 398 
Q 2709 -91 1959 -91 
Q 1206 -91 779 398 
Q 353 888 353 1747 
Q 353 2609 779 3096 
Q 1206 3584 1959 3584 
z
" transform="scale(0.015625)"/>
       <path id="DejaVuSans-63" d="M 3122 3366 
L 3122 2828 
Q 2878 2963 2633 3030 
Q 2388 3097 2138 3097 
Q 1578 3097 1268 2742 
Q 959 2388 959 1747 
Q 959 1106 1268 751 
Q 1578 397 2138 397 
Q 2388 397 2633 464 
Q 2878 531 3122 666 
L 3122 134 
Q 2881 22 2623 -34 
Q 2366 -91 2075 -91 
Q 1284 -91 818 406 
Q 353 903 353 1747 
Q 353 2603 823 3093 
Q 1294 3584 2113 3584 
Q 2378 3584 2631 3529 
Q 2884 3475 3122 3366 
z
" transform="scale(0.015625)"/>
       <path id="DejaVuSans-68" d="M 3513 2113 
L 3513 0 
L 2938 0 
L 2938 2094 
Q 2938 2591 2744 2837 
Q 2550 3084 2163 3084 
Q 1697 3084 1428 2787 
Q 1159 2491 1159 1978 
L 1159 0 
L 581 0 
L 581 4863 
L 1159 4863 
L 1159 2956 
Q 1366 3272 1645 3428 
Q 1925 3584 2291 3584 
Q 2894 3584 3203 3211 
Q 3513 2838 3513 2113 
z
" transform="scale(0.015625)"/>
       <path id="DejaVuSans-73" d="M 2834 3397 
L 2834 2853 
Q 2591 2978 2328 3040 
Q 2066 3103 1784 3103 
Q 1356 3103 1142 2972 
Q 928 2841 928 2578 
Q 928 2378 1081 2264 
Q 1234 2150 1697 2047 
L 1894 2003 
Q 2506 1872 2764 1633 
Q 3022 1394 3022 966 
Q 3022 478 2636 193 
Q 2250 -91 1575 -91 
Q 1294 -91 989 -36 
Q 684 19 347 128 
L 347 722 
Q 666 556 975 473 
Q 1284 391 1588 391 
Q 1994 391 2212 530 
Q 2431 669 2431 922 
Q 2431 1156 2273 1281 
Q 2116 1406 1581 1522 
L 1381 1569 
Q 847 1681 609 1914 
Q 372 2147 372 2553 
Q 372 3047 722 3315 
Q 1072 3584 1716 3584 
Q 2034 3584 2315 3537 
Q 2597 3491 2834 3397 
z
" transform="scale(0.015625)"/>
      </defs>
      <use xlink:href="#DejaVuSans-45"/>
      <use xlink:href="#DejaVuSans-70" x="63.183594"/>
      <use xlink:href="#DejaVuSans-6f" x="126.660156"/>
      <use xlink:href="#DejaVuSans-63" x="187.841797"/>
      <use xlink:href="#DejaVuSans-68" x="242.822266"/>
      <use xlink:href="#DejaVuSans-73" x="306.201172"/>
     </g>
    </g>
   </g>
   <g id="matplotlib.axis_2">
    <g id="ytick_1">
     <g id="line2d_11">
      <defs>
       <path id="m1b47073736" d="M 0 0 
L -3.5 0 
" style="stroke: #000000; stroke-width: 0.8"/>
      </defs>
      <g>
       <use xlink:href="#m1b47073736" x="57.6" y="304.118732" style="stroke: #000000; stroke-width: 0.8"/>
      </g>
     </g>
     <g id="text_12">
      <!-- 40 -->
      <g transform="translate(37.875 307.917951) scale(0.1 -0.1)">
       <use xlink:href="#DejaVuSans-34"/>
       <use xlink:href="#DejaVuSans-30" x="63.623047"/>
      </g>
     </g>
    </g>
    <g id="ytick_2">
     <g id="line2d_12">
      <g>
       <use xlink:href="#m1b47073736" x="57.6" y="262.264011" style="stroke: #000000; stroke-width: 0.8"/>
      </g>
     </g>
     <g id="text_13">
      <!-- 50 -->
      <g transform="translate(37.875 266.06323) scale(0.1 -0.1)">
       <defs>
        <path id="DejaVuSans-35" d="M 691 4666 
L 3169 4666 
L 3169 4134 
L 1269 4134 
L 1269 2991 
Q 1406 3038 1543 3061 
Q 1681 3084 1819 3084 
Q 2600 3084 3056 2656 
Q 3513 2228 3513 1497 
Q 3513 744 3044 326 
Q 2575 -91 1722 -91 
Q 1428 -91 1123 -41 
Q 819 9 494 109 
L 494 744 
Q 775 591 1075 516 
Q 1375 441 1709 441 
Q 2250 441 2565 725 
Q 2881 1009 2881 1497 
Q 2881 1984 2565 2268 
Q 2250 2553 1709 2553 
Q 1456 2553 1204 2497 
Q 953 2441 691 2322 
L 691 4666 
z
" transform="scale(0.015625)"/>
       </defs>
       <use xlink:href="#DejaVuSans-35"/>
       <use xlink:href="#DejaVuSans-30" x="63.623047"/>
      </g>
     </g>
    </g>
    <g id="ytick_3">
     <g id="line2d_13">
      <g>
       <use xlink:href="#m1b47073736" x="57.6" y="220.40929" style="stroke: #000000; stroke-width: 0.8"/>
      </g>
     </g>
     <g id="text_14">
      <!-- 60 -->
      <g transform="translate(37.875 224.208508) scale(0.1 -0.1)">
       <use xlink:href="#DejaVuSans-36"/>
       <use xlink:href="#DejaVuSans-30" x="63.623047"/>
      </g>
     </g>
    </g>
    <g id="ytick_4">
     <g id="line2d_14">
      <g>
       <use xlink:href="#m1b47073736" x="57.6" y="178.554569" style="stroke: #000000; stroke-width: 0.8"/>
      </g>
     </g>
     <g id="text_15">
      <!-- 70 -->
      <g transform="translate(37.875 182.353787) scale(0.1 -0.1)">
       <use xlink:href="#DejaVuSans-37"/>
       <use xlink:href="#DejaVuSans-30" x="63.623047"/>
      </g>
     </g>
    </g>
    <g id="ytick_5">
     <g id="line2d_15">
      <g>
       <use xlink:href="#m1b47073736" x="57.6" y="136.699847" style="stroke: #000000; stroke-width: 0.8"/>
      </g>
     </g>
     <g id="text_16">
      <!-- 80 -->
      <g transform="translate(37.875 140.499066) scale(0.1 -0.1)">
       <defs>
        <path id="DejaVuSans-38" d="M 2034 2216 
Q 1584 2216 1326 1975 
Q 1069 1734 1069 1313 
Q 1069 891 1326 650 
Q 1584 409 2034 409 
Q 2484 409 2743 651 
Q 3003 894 3003 1313 
Q 3003 1734 2745 1975 
Q 2488 2216 2034 2216 
z
M 1403 2484 
Q 997 2584 770 2862 
Q 544 3141 544 3541 
Q 544 4100 942 4425 
Q 1341 4750 2034 4750 
Q 2731 4750 3128 4425 
Q 3525 4100 3525 3541 
Q 3525 3141 3298 2862 
Q 3072 2584 2669 2484 
Q 3125 2378 3379 2068 
Q 3634 1759 3634 1313 
Q 3634 634 3220 271 
Q 2806 -91 2034 -91 
Q 1263 -91 848 271 
Q 434 634 434 1313 
Q 434 1759 690 2068 
Q 947 2378 1403 2484 
z
M 1172 3481 
Q 1172 3119 1398 2916 
Q 1625 2713 2034 2713 
Q 2441 2713 2670 2916 
Q 2900 3119 2900 3481 
Q 2900 3844 2670 4047 
Q 2441 4250 2034 4250 
Q 1625 4250 1398 4047 
Q 1172 3844 1172 3481 
z
" transform="scale(0.015625)"/>
       </defs>
       <use xlink:href="#DejaVuSans-38"/>
       <use xlink:href="#DejaVuSans-30" x="63.623047"/>
      </g>
     </g>
    </g>
    <g id="ytick_6">
     <g id="line2d_16">
      <g>
       <use xlink:href="#m1b47073736" x="57.6" y="94.845126" style="stroke: #000000; stroke-width: 0.8"/>
      </g>
     </g>
     <g id="text_17">
      <!-- 90 -->
      <g transform="translate(37.875 98.644345) scale(0.1 -0.1)">
       <defs>
        <path id="DejaVuSans-39" d="M 703 97 
L 703 672 
Q 941 559 1184 500 
Q 1428 441 1663 441 
Q 2288 441 2617 861 
Q 2947 1281 2994 2138 
Q 2813 1869 2534 1725 
Q 2256 1581 1919 1581 
Q 1219 1581 811 2004 
Q 403 2428 403 3163 
Q 403 3881 828 4315 
Q 1253 4750 1959 4750 
Q 2769 4750 3195 4129 
Q 3622 3509 3622 2328 
Q 3622 1225 3098 567 
Q 2575 -91 1691 -91 
Q 1453 -91 1209 -44 
Q 966 3 703 97 
z
M 1959 2075 
Q 2384 2075 2632 2365 
Q 2881 2656 2881 3163 
Q 2881 3666 2632 3958 
Q 2384 4250 1959 4250 
Q 1534 4250 1286 3958 
Q 1038 3666 1038 3163 
Q 1038 2656 1286 2365 
Q 1534 2075 1959 2075 
z
" transform="scale(0.015625)"/>
       </defs>
       <use xlink:href="#DejaVuSans-39"/>
       <use xlink:href="#DejaVuSans-30" x="63.623047"/>
      </g>
     </g>
    </g>
    <g id="ytick_7">
     <g id="line2d_17">
      <g>
       <use xlink:href="#m1b47073736" x="57.6" y="52.990405" style="stroke: #000000; stroke-width: 0.8"/>
      </g>
     </g>
     <g id="text_18">
      <!-- 100 -->
      <g transform="translate(31.5125 56.789624) scale(0.1 -0.1)">
       <use xlink:href="#DejaVuSans-31"/>
       <use xlink:href="#DejaVuSans-30" x="63.623047"/>
       <use xlink:href="#DejaVuSans-30" x="127.246094"/>
      </g>
     </g>
    </g>
    <g id="text_19">
     <!-- Accuracy -->
     <g transform="translate(25.432812 197.356125) rotate(-90) scale(0.1 -0.1)">
      <defs>
       <path id="DejaVuSans-41" d="M 2188 4044 
L 1331 1722 
L 3047 1722 
L 2188 4044 
z
M 1831 4666 
L 2547 4666 
L 4325 0 
L 3669 0 
L 3244 1197 
L 1141 1197 
L 716 0 
L 50 0 
L 1831 4666 
z
" transform="scale(0.015625)"/>
       <path id="DejaVuSans-75" d="M 544 1381 
L 544 3500 
L 1119 3500 
L 1119 1403 
Q 1119 906 1312 657 
Q 1506 409 1894 409 
Q 2359 409 2629 706 
Q 2900 1003 2900 1516 
L 2900 3500 
L 3475 3500 
L 3475 0 
L 2900 0 
L 2900 538 
Q 2691 219 2414 64 
Q 2138 -91 1772 -91 
Q 1169 -91 856 284 
Q 544 659 544 1381 
z
M 1991 3584 
L 1991 3584 
z
" transform="scale(0.015625)"/>
       <path id="DejaVuSans-72" d="M 2631 2963 
Q 2534 3019 2420 3045 
Q 2306 3072 2169 3072 
Q 1681 3072 1420 2755 
Q 1159 2438 1159 1844 
L 1159 0 
L 581 0 
L 581 3500 
L 1159 3500 
L 1159 2956 
Q 1341 3275 1631 3429 
Q 1922 3584 2338 3584 
Q 2397 3584 2469 3576 
Q 2541 3569 2628 3553 
L 2631 2963 
z
" transform="scale(0.015625)"/>
       <path id="DejaVuSans-61" d="M 2194 1759 
Q 1497 1759 1228 1600 
Q 959 1441 959 1056 
Q 959 750 1161 570 
Q 1363 391 1709 391 
Q 2188 391 2477 730 
Q 2766 1069 2766 1631 
L 2766 1759 
L 2194 1759 
z
M 3341 1997 
L 3341 0 
L 2766 0 
L 2766 531 
Q 2569 213 2275 61 
Q 1981 -91 1556 -91 
Q 1019 -91 701 211 
Q 384 513 384 1019 
Q 384 1609 779 1909 
Q 1175 2209 1959 2209 
L 2766 2209 
L 2766 2266 
Q 2766 2663 2505 2880 
Q 2244 3097 1772 3097 
Q 1472 3097 1187 3025 
Q 903 2953 641 2809 
L 641 3341 
Q 956 3463 1253 3523 
Q 1550 3584 1831 3584 
Q 2591 3584 2966 3190 
Q 3341 2797 3341 1997 
z
" transform="scale(0.015625)"/>
       <path id="DejaVuSans-79" d="M 2059 -325 
Q 1816 -950 1584 -1140 
Q 1353 -1331 966 -1331 
L 506 -1331 
L 506 -850 
L 844 -850 
Q 1081 -850 1212 -737 
Q 1344 -625 1503 -206 
L 1606 56 
L 191 3500 
L 800 3500 
L 1894 763 
L 2988 3500 
L 3597 3500 
L 2059 -325 
z
" transform="scale(0.015625)"/>
      </defs>
      <use xlink:href="#DejaVuSans-41"/>
      <use xlink:href="#DejaVuSans-63" x="66.658203"/>
      <use xlink:href="#DejaVuSans-63" x="121.638672"/>
      <use xlink:href="#DejaVuSans-75" x="176.619141"/>
      <use xlink:href="#DejaVuSans-72" x="239.998047"/>
      <use xlink:href="#DejaVuSans-61" x="281.111328"/>
      <use xlink:href="#DejaVuSans-63" x="342.390625"/>
      <use xlink:href="#DejaVuSans-79" x="397.371094"/>
     </g>
    </g>
   </g>
   <g id="line2d_18">
    <path d="M 73.832727 257.701846 
L 74.918528 156.999387 
L 76.00433 126.679827 
L 77.090131 113.353284 
L 78.175932 103.910859 
L 80.347534 93.187679 
L 82.519137 84.649316 
L 83.604938 82.698886 
L 84.690739 80.480586 
L 85.77654 77.358224 
L 86.862341 75.416164 
L 87.948142 72.80443 
L 89.033943 71.548788 
L 90.119745 69.497907 
L 91.205546 68.19204 
L 92.291347 66.668528 
L 93.377148 66.149529 
L 94.462949 66.099304 
L 95.54875 84.816735 
L 96.634552 83.393674 
L 97.720353 80.681488 
L 98.806154 80.129006 
L 99.891955 78.094867 
L 100.977756 77.391707 
L 102.063557 76.211404 
L 103.149358 74.662779 
L 106.406762 73.047187 
L 107.492563 72.243577 
L 108.578364 71.20558 
L 109.664165 69.682068 
L 110.749967 69.472794 
L 111.835768 69.045876 
L 112.921569 67.974395 
L 114.00737 67.873944 
L 115.093171 66.308577 
L 116.178972 65.873288 
L 117.264773 65.831433 
L 118.350575 64.182357 
L 119.436376 63.613133 
L 120.522177 62.817893 
L 121.607978 62.16496 
L 122.693779 61.126963 
L 123.77958 60.92606 
L 124.865382 60.507513 
L 127.036984 58.875179 
L 128.122785 58.79984 
L 129.208586 58.138536 
L 130.294387 57.678134 
L 131.380189 57.075426 
L 132.46599 57.000087 
L 133.551791 56.447605 
L 134.637592 56.389008 
L 135.723393 56.464347 
L 136.809194 55.970461 
L 137.894995 56.372266 
L 138.980797 73.42388 
L 140.066598 74.127039 
L 141.152399 72.779317 
L 142.2382 71.74132 
L 143.324001 70.937709 
L 144.409802 69.983422 
L 145.495604 70.033647 
L 146.581405 69.707181 
L 147.667206 69.816003 
L 148.753007 68.409684 
L 149.838808 68.543619 
L 150.924609 67.915798 
L 152.01041 68.19204 
L 153.096212 68.032992 
L 154.182013 67.66467 
L 155.267814 67.472138 
L 156.353615 66.844318 
L 157.439416 66.827576 
L 158.525217 66.224868 
L 159.611019 66.040707 
L 161.782621 65.320806 
L 162.868422 65.337548 
L 163.954223 64.701356 
L 165.040024 64.960855 
L 166.125825 64.73484 
L 167.211627 64.224212 
L 168.297428 64.508824 
L 170.46903 63.286666 
L 172.640632 62.960199 
L 173.726434 62.307266 
L 174.812235 62.466314 
L 175.898036 61.980799 
L 176.983837 61.645961 
L 178.069638 61.587365 
L 179.155439 61.093479 
L 180.24124 60.976286 
L 182.412843 60.063853 
L 183.498644 59.829466 
L 184.584445 59.360693 
L 185.670246 59.762499 
L 186.756047 59.15142 
L 187.841849 58.138536 
L 188.92765 58.322696 
L 190.013451 58.841695 
L 191.099252 57.91252 
L 193.270854 57.368409 
L 194.356656 57.351667 
L 195.442457 56.715475 
L 196.528258 56.698733 
L 197.614059 56.146251 
L 198.69986 56.037429 
L 204.128866 54.965948 
L 207.386269 54.714819 
L 208.472071 54.329756 
L 209.557872 54.497175 
L 210.643673 54.438578 
L 211.729474 53.894467 
L 212.815275 54.18745 
L 213.901076 54.045144 
L 214.986877 54.162337 
L 216.072679 53.911209 
L 219.330082 53.894467 
L 221.501684 53.894467 
L 222.587486 53.91958 
L 223.673287 53.827499 
L 224.759088 53.852612 
L 225.844889 69.313746 
L 226.93069 70.795403 
L 228.016491 69.447681 
L 230.188094 68.250636 
L 231.273895 68.334346 
L 232.359696 67.497251 
L 233.445497 66.886172 
L 234.531298 67.254494 
L 235.617099 66.802463 
L 237.788702 65.597047 
L 238.874503 65.613789 
L 241.046105 64.726469 
L 243.217708 65.98211 
L 244.303509 64.793436 
L 245.38931 65.044565 
L 247.560912 64.835291 
L 248.646713 64.157244 
L 249.732514 64.701356 
L 251.904117 63.211328 
L 252.989918 64.642759 
L 254.075719 63.897745 
L 255.16152 63.872632 
L 256.247321 64.11539 
L 257.333123 63.420601 
L 258.418924 63.772181 
L 259.504725 63.479198 
L 260.590526 62.951828 
L 261.676327 63.546166 
L 262.762128 62.550023 
L 263.847929 63.688472 
L 264.933731 62.416088 
L 266.019532 63.521053 
L 267.105333 62.558394 
L 268.191134 63.085764 
L 269.276935 63.110876 
L 270.362736 62.039396 
L 271.448538 62.089621 
L 272.534339 61.629219 
L 273.62014 62.591878 
L 274.705941 61.286011 
L 275.791742 62.014283 
L 276.877543 61.913831 
L 277.963344 61.679445 
L 279.049146 61.746413 
L 280.134947 61.001398 
L 281.220748 61.252527 
L 282.306549 61.177188 
L 283.39235 61.269269 
L 284.478151 61.110221 
L 285.563953 61.4618 
L 286.649754 60.875834 
L 287.735555 61.4618 
L 288.821356 60.716786 
L 289.907157 60.222901 
L 290.992958 60.758641 
L 292.07876 60.239643 
L 293.164561 59.963401 
L 296.421964 59.996885 
L 298.593566 59.695531 
L 299.679368 59.536483 
L 300.765169 59.703902 
L 304.022572 58.816582 
L 305.108373 59.477887 
L 306.194175 59.076081 
L 307.279976 58.247358 
L 308.365777 58.35618 
L 309.451578 58.741244 
L 311.62318 58.456631 
L 312.708981 57.987859 
L 313.794783 57.661392 
L 315.966385 57.904149 
L 317.052186 57.552569 
L 318.137987 57.828811 
L 319.223788 57.452118 
L 320.30959 57.678134 
L 321.395391 56.983345 
L 322.481192 57.226103 
L 323.566993 57.276328 
L 324.652794 56.891265 
L 325.738595 57.108909 
L 326.824396 56.615024 
L 327.910198 56.765701 
L 328.995999 56.707104 
L 330.0818 56.414121 
L 331.167601 56.003945 
L 332.253402 56.05417 
L 335.510806 55.501688 
L 336.596607 55.685849 
L 337.682408 55.627252 
L 338.768209 55.376124 
L 339.85401 54.974319 
L 340.939811 55.191963 
L 342.025613 55.124996 
L 343.111414 54.731561 
L 344.197215 54.974319 
L 345.283016 54.672965 
L 346.368817 54.765045 
L 347.454618 54.438578 
L 348.54042 54.765045 
L 349.626221 54.371611 
L 350.712022 54.472062 
L 351.797823 54.153966 
L 352.883624 54.430207 
L 356.141028 54.120482 
L 358.31263 53.777274 
L 359.398431 53.869354 
L 360.484232 53.735419 
L 362.655835 53.961434 
L 363.741636 53.668451 
L 364.827437 53.768903 
L 366.999039 53.568 
L 369.170642 53.718677 
L 370.256443 53.794015 
L 371.342244 53.986547 
L 372.428045 54.589255 
L 373.513846 54.53903 
L 374.599647 54.823642 
L 375.685448 54.765045 
L 376.77125 54.974319 
L 377.857051 54.907351 
L 378.942852 55.208705 
L 380.028653 55.007802 
L 382.200255 55.217076 
L 383.286057 54.731561 
L 384.371858 54.915722 
L 385.457659 54.832013 
L 386.54346 55.141738 
L 387.629261 55.066399 
L 388.715062 55.183592 
L 389.800863 55.091512 
L 390.886665 55.116625 
L 391.972466 55.300785 
L 393.058267 54.98269 
L 394.144068 55.602139 
L 395.229869 55.217076 
L 397.401472 55.175221 
L 398.487273 55.526801 
L 398.487273 55.526801 
" clip-path="url(#p9c2d1e5c99)" style="fill: none; stroke: #1f77b4; stroke-width: 1.5; stroke-linecap: square"/>
   </g>
   <g id="line2d_19">
    <path d="M 73.832727 226.645643 
L 74.918528 170.267334 
L 76.00433 153.106898 
L 78.175932 134.355983 
L 79.261733 128.789305 
L 80.347534 113.805315 
L 81.433335 116.149179 
L 82.519137 111.294032 
L 83.604938 104.639131 
L 84.690739 101.751155 
L 85.77654 97.440119 
L 86.862341 94.008032 
L 87.948142 92.961664 
L 89.033943 93.338356 
L 90.119745 90.743363 
L 91.205546 90.910782 
L 92.291347 87.813533 
L 93.377148 87.43684 
L 94.462949 87.227567 
L 95.54875 109.24315 
L 96.634552 105.392516 
L 97.720353 103.467199 
L 98.806154 108.782748 
L 99.891955 100.537368 
L 100.977756 97.691247 
L 102.063557 102.923087 
L 103.149358 94.510288 
L 104.23516 94.845126 
L 105.320961 101.374463 
L 106.406762 95.389237 
L 107.492563 100.914061 
L 108.578364 93.46392 
L 109.664165 92.543116 
L 110.749967 93.380211 
L 111.835768 91.24562 
L 112.921569 95.76593 
L 114.00737 88.273935 
L 115.093171 92.501262 
L 116.178972 85.888216 
L 117.264773 88.357644 
L 118.350575 87.604259 
L 119.436376 90.408526 
L 121.607978 82.163146 
L 122.693779 84.925557 
L 123.77958 79.317024 
L 124.865382 80.279683 
L 125.951183 81.577179 
L 127.036984 78.354366 
L 128.122785 81.284196 
L 129.208586 79.107751 
L 130.294387 78.228802 
L 131.380189 77.517271 
L 133.551791 77.266143 
L 134.637592 77.140579 
L 135.723393 76.638322 
L 136.809194 77.475417 
L 137.894995 76.931305 
L 138.980797 99.156162 
L 140.066598 102.881233 
L 141.152399 95.472947 
L 142.2382 95.849639 
L 143.324001 96.56117 
L 144.409802 100.495513 
L 146.581405 91.95715 
L 147.667206 89.487722 
L 148.753007 92.291988 
L 149.838808 93.380211 
L 150.924609 94.175451 
L 152.01041 90.157397 
L 153.096212 92.250133 
L 154.182013 87.060148 
L 155.267814 86.348618 
L 156.353615 90.659654 
L 157.439416 88.273935 
L 158.525217 90.324816 
L 159.611019 91.413039 
L 161.782621 87.102003 
L 162.868422 86.474182 
L 163.954223 86.055635 
L 165.040024 88.273935 
L 166.125825 84.632574 
L 167.211627 87.562405 
L 168.297428 87.855388 
L 169.383229 87.478695 
L 170.46903 88.273935 
L 171.554831 90.366671 
L 172.640632 83.837334 
L 173.726434 85.30225 
L 175.898036 87.185712 
L 176.983837 87.813533 
L 178.069638 84.548865 
L 179.155439 81.744598 
L 180.24124 83.418787 
L 181.327042 83.460642 
L 182.412843 80.405247 
L 183.498644 81.870162 
L 184.584445 82.832821 
L 185.670246 84.172172 
L 186.756047 81.953872 
L 187.841849 80.488957 
L 188.92765 79.317024 
L 190.013451 80.070409 
L 191.099252 81.242342 
L 192.185053 81.242342 
L 193.270854 79.651862 
L 194.356656 77.266143 
L 196.528258 79.610008 
L 197.614059 77.893964 
L 198.69986 76.470903 
L 199.785661 78.061383 
L 200.871462 76.303485 
L 201.957264 76.387194 
L 203.043065 76.722032 
L 204.128866 75.843083 
L 205.214667 75.340826 
L 207.386269 75.801228 
L 208.472071 74.796715 
L 209.557872 74.880424 
L 210.643673 74.210749 
L 211.729474 74.629296 
L 213.901076 74.127039 
L 214.986877 73.415509 
L 216.072679 73.750347 
L 217.15848 73.499218 
L 218.244281 73.457364 
L 219.330082 74.001475 
L 220.415883 73.792201 
L 221.501684 73.415509 
L 222.587486 73.582928 
L 223.673287 73.95962 
L 224.759088 73.666637 
L 225.844889 93.170937 
L 226.93069 100.872206 
L 228.016491 96.686734 
L 229.102292 90.241107 
L 230.188094 93.087228 
L 231.273895 89.613286 
L 233.445497 94.091741 
L 234.531298 97.440119 
L 235.617099 90.575945 
L 236.702901 88.23208 
L 237.788702 89.780705 
L 238.874503 86.348618 
L 239.960304 86.80902 
L 241.046105 93.631339 
L 242.131906 89.864414 
L 243.217708 87.897242 
L 244.303509 88.23208 
L 245.38931 89.404012 
L 246.475111 98.528342 
L 247.560912 87.897242 
L 248.646713 89.571431 
L 249.732514 89.278448 
L 250.818316 86.223053 
L 251.904117 83.962899 
L 252.989918 90.868928 
L 254.075719 88.483208 
L 255.16152 89.655141 
L 256.247321 85.344104 
L 257.333123 84.632574 
L 258.418924 86.767165 
L 259.504725 86.390472 
L 260.590526 87.897242 
L 261.676327 85.93007 
L 262.762128 86.892729 
L 264.933731 85.678942 
L 266.019532 83.544351 
L 267.105333 86.097489 
L 268.191134 86.934584 
L 269.276935 83.502497 
L 270.362736 82.832821 
L 271.448538 84.841848 
L 272.534339 83.042095 
L 273.62014 85.93007 
L 274.705941 84.004753 
L 275.791742 84.4233 
L 276.877543 85.595233 
L 277.963344 84.590719 
L 279.049146 86.139344 
L 280.134947 83.460642 
L 281.220748 84.130317 
L 282.306549 83.921044 
L 283.39235 84.758138 
L 284.478151 81.116778 
L 285.563953 85.344104 
L 286.649754 82.372419 
L 287.735555 85.092976 
L 288.821356 83.753625 
L 289.907157 83.753625 
L 290.992958 81.744598 
L 292.07876 85.637087 
L 293.164561 81.200487 
L 294.250362 91.24562 
L 295.336163 80.656376 
L 296.421964 85.21854 
L 297.507765 83.879189 
L 298.593566 82.790966 
L 299.679368 85.511523 
L 300.765169 81.326051 
L 301.85097 82.205 
L 302.936771 80.195974 
L 304.022572 82.790966 
L 305.108373 81.242342 
L 306.194175 79.902991 
L 307.279976 81.535325 
L 308.365777 79.149606 
L 309.451578 80.949359 
L 310.537379 79.819281 
L 311.62318 81.828308 
L 312.708981 78.438075 
L 313.794783 78.145092 
L 314.880584 78.396221 
L 315.966385 80.070409 
L 317.052186 78.47993 
L 318.137987 79.233315 
L 319.223788 78.940332 
L 320.30959 77.642836 
L 321.395391 77.726545 
L 322.481192 79.107751 
L 323.566993 80.69823 
L 324.652794 80.488957 
L 325.738595 79.526298 
L 326.824396 79.442589 
L 327.910198 78.605494 
L 328.995999 79.651862 
L 330.0818 77.935819 
L 331.167601 79.568153 
L 332.253402 76.680177 
L 333.339203 77.098724 
L 334.425005 76.554613 
L 335.510806 74.880424 
L 336.596607 78.56364 
L 337.682408 75.926792 
L 338.768209 76.094211 
L 339.85401 75.843083 
L 340.939811 76.345339 
L 342.025613 75.382681 
L 343.111414 74.629296 
L 344.197215 75.005988 
L 345.283016 75.801228 
L 346.368817 74.796715 
L 347.454618 76.094211 
L 348.54042 74.085184 
L 349.626221 74.67115 
L 350.712022 74.336313 
L 351.797823 73.666637 
L 352.883624 74.378167 
L 353.969425 74.085184 
L 355.055227 72.913252 
L 357.226829 73.666637 
L 358.31263 72.285431 
L 359.398431 73.792201 
L 360.484232 73.24809 
L 361.570033 73.708492 
L 362.655835 73.457364 
L 364.827437 71.74132 
L 366.999039 72.787688 
L 368.08484 72.787688 
L 369.170642 71.950594 
L 370.256443 73.917765 
L 371.342244 75.257117 
L 372.428045 76.97316 
L 373.513846 75.926792 
L 374.599647 75.843083 
L 375.685448 76.26163 
L 376.77125 77.182434 
L 377.857051 78.521785 
L 378.942852 75.675664 
L 380.028653 75.215262 
L 381.114454 75.298971 
L 382.200255 76.136066 
L 383.286057 75.717518 
L 384.371858 75.926792 
L 385.457659 75.591954 
L 386.54346 75.884937 
L 387.629261 76.680177 
L 388.715062 75.843083 
L 389.800863 75.926792 
L 390.886665 76.638322 
L 391.972466 76.722032 
L 393.058267 76.303485 
L 395.229869 75.968647 
L 396.31567 76.094211 
L 397.401472 75.257117 
L 398.487273 76.680177 
L 398.487273 76.680177 
" clip-path="url(#p9c2d1e5c99)" style="fill: none; stroke: #ff7f0e; stroke-width: 1.5; stroke-linecap: square"/>
   </g>
   <g id="line2d_20">
    <path d="M 73.832727 295.488 
L 74.918528 264.86189 
L 76.00433 242.548994 
L 77.090131 252.161147 
L 78.175932 232.965706 
L 79.261733 205.832301 
L 80.347534 218.475313 
L 81.433335 206.64053 
L 82.519137 218.937158 
L 83.604938 194.343901 
L 84.690739 207.275567 
L 85.77654 200.89633 
L 86.862341 203.176691 
L 87.948142 199.135545 
L 89.033943 198.962353 
L 90.119745 198.269585 
L 91.205546 192.583116 
L 93.377148 186.434802 
L 94.462949 188.48424 
L 95.54875 218.359852 
L 96.634552 216.425875 
L 97.720353 209.78685 
L 98.806154 215.184666 
L 99.891955 210.595079 
L 100.977756 203.667401 
L 102.063557 203.55194 
L 103.149358 194.776881 
L 104.23516 200.492215 
L 105.320961 212.384729 
L 106.406762 202.368462 
L 107.492563 204.360169 
L 108.578364 216.541336 
L 109.664165 198.067528 
L 110.749967 195.613976 
L 111.835768 196.797454 
L 112.921569 208.892025 
L 114.00737 198.038663 
L 115.093171 196.739723 
L 116.178972 189.552257 
L 117.264773 188.570836 
L 118.350575 187.849203 
L 119.436376 191.948079 
L 120.522177 184.096711 
L 121.607978 189.407931 
L 122.693779 183.461674 
L 123.77958 186.69459 
L 124.865382 184.991536 
L 125.951183 182.105003 
L 128.122785 184.818344 
L 129.208586 185.597708 
L 130.294387 187.387358 
L 131.380189 184.876075 
L 132.46599 185.453381 
L 133.551791 184.241038 
L 134.637592 183.490539 
L 135.723393 183.317347 
L 137.894995 182.68231 
L 138.980797 204.04265 
L 140.066598 217.262969 
L 141.152399 200.867465 
L 142.2382 212.87544 
L 143.324001 203.003499 
L 144.409802 218.359852 
L 145.495604 207.477624 
L 146.581405 200.867465 
L 147.667206 190.100698 
L 148.753007 198.413912 
L 149.838808 202.743711 
L 150.924609 210.826002 
L 152.01041 201.935482 
L 153.096212 199.366468 
L 154.182013 198.875757 
L 155.267814 189.898641 
L 156.353615 205.687974 
L 157.439416 200.088101 
L 158.525217 206.986914 
L 159.611019 203.205556 
L 161.782621 189.696584 
L 162.868422 196.855185 
L 163.954223 181.729754 
L 165.040024 191.428503 
L 166.125825 183.259616 
L 167.211627 203.725132 
L 168.297428 182.913233 
L 169.383229 187.647146 
L 170.46903 201.040657 
L 171.554831 201.560233 
L 172.640632 186.665725 
L 173.726434 192.207867 
L 174.812235 192.698578 
L 175.898036 204.648822 
L 176.983837 193.824325 
L 178.069638 202.743711 
L 179.155439 193.477942 
L 180.24124 187.069839 
L 181.327042 189.263604 
L 182.412843 187.820338 
L 183.498644 194.517093 
L 184.584445 180.777199 
L 185.670246 198.009798 
L 186.756047 182.307061 
L 187.841849 185.309055 
L 188.92765 182.307061 
L 190.013451 182.451387 
L 191.099252 196.739723 
L 192.185053 187.849203 
L 193.270854 183.952384 
L 194.356656 184.818344 
L 195.442457 186.867782 
L 196.528258 187.906934 
L 197.614059 188.455375 
L 198.69986 183.54827 
L 199.785661 192.121271 
L 200.871462 181.123582 
L 201.957264 187.56055 
L 203.043065 184.847209 
L 204.128866 183.721462 
L 205.214667 178.121589 
L 206.300468 177.602013 
L 207.386269 183.692596 
L 208.472071 172.290793 
L 209.557872 175.465979 
L 210.643673 175.841228 
L 211.729474 179.391663 
L 212.815275 179.911239 
L 213.901076 178.265915 
L 214.986877 177.919531 
L 217.15848 177.659743 
L 218.244281 175.725767 
L 219.330082 179.59372 
L 220.415883 178.265915 
L 221.501684 178.987548 
L 222.587486 177.630878 
L 223.673287 177.428821 
L 224.759088 176.50513 
L 225.844889 186.146149 
L 226.93069 210.65281 
L 229.102292 189.379065 
L 230.188094 197.836606 
L 231.273895 200.636542 
L 232.359696 197.259299 
L 233.445497 202.108674 
L 234.531298 196.075821 
L 235.617099 182.451387 
L 236.702901 196.797454 
L 237.788702 200.088101 
L 238.874503 202.253 
L 239.960304 201.473637 
L 241.046105 215.53105 
L 242.131906 194.315036 
L 243.217708 205.572513 
L 244.303509 212.269268 
L 245.38931 198.962353 
L 246.475111 212.615652 
L 247.560912 199.741717 
L 248.646713 207.448759 
L 249.732514 198.327316 
L 250.818316 193.910921 
L 251.904117 190.937793 
L 252.989918 197.028376 
L 254.075719 200.780869 
L 255.16152 196.566531 
L 256.247321 206.669395 
L 257.333123 189.812045 
L 258.418924 187.964664 
L 259.504725 204.013785 
L 260.590526 204.4179 
L 261.676327 211.432174 
L 262.762128 199.279872 
L 263.847929 191.717157 
L 264.933731 199.59739 
L 266.019532 200.145832 
L 267.105333 189.465661 
L 268.191134 191.774887 
L 269.276935 189.321335 
L 270.362736 187.704877 
L 271.448538 193.824325 
L 272.534339 189.3502 
L 273.62014 201.560233 
L 274.705941 175.812363 
L 275.791742 189.609988 
L 276.877543 194.286171 
L 277.963344 192.034675 
L 279.049146 199.048949 
L 280.134947 193.30475 
L 281.220748 183.317347 
L 282.306549 191.053254 
L 283.39235 186.810051 
L 284.478151 181.787485 
L 285.563953 189.061547 
L 286.649754 200.03037 
L 287.735555 196.335609 
L 288.821356 189.898641 
L 289.907157 185.626573 
L 290.992958 179.680316 
L 292.07876 203.147825 
L 293.164561 189.407931 
L 294.250362 213.423881 
L 295.336163 184.241038 
L 296.421964 209.180678 
L 297.507765 191.976945 
L 298.593566 202.397327 
L 299.679368 204.677688 
L 300.765169 187.762607 
L 301.85097 194.141844 
L 302.936771 178.063858 
L 304.022572 190.908928 
L 305.108373 189.581123 
L 306.194175 185.886361 
L 307.279976 192.9295 
L 308.365777 184.645152 
L 309.451578 196.508801 
L 310.537379 185.424516 
L 311.62318 200.319024 
L 312.708981 189.609988 
L 313.794783 176.562861 
L 314.880584 190.504813 
L 315.966385 180.488545 
L 317.052186 186.001822 
L 318.137987 193.477942 
L 319.223788 182.018408 
L 320.30959 185.626573 
L 322.481192 187.733742 
L 323.566993 196.537666 
L 324.652794 189.552257 
L 325.738595 179.420528 
L 326.824396 186.20388 
L 327.910198 179.622586 
L 328.995999 184.241038 
L 330.0818 189.609988 
L 331.167601 188.686298 
L 332.253402 178.006127 
L 333.339203 175.956689 
L 334.425005 176.995841 
L 335.510806 170.616604 
L 336.596607 183.230751 
L 337.682408 180.719468 
L 338.768209 179.766912 
L 339.85401 176.966976 
L 340.939811 180.113296 
L 342.025613 178.323646 
L 343.111414 172.088736 
L 344.197215 175.408248 
L 345.283016 181.75862 
L 346.368817 170.414547 
L 347.454618 181.296774 
L 348.54042 174.455692 
L 349.626221 180.055565 
L 350.712022 171.540295 
L 351.797823 170.558873 
L 352.883624 177.659743 
L 353.969425 169.77951 
L 355.055227 166.777516 
L 356.141028 172.983561 
L 357.226829 174.830942 
L 358.31263 173.185618 
L 359.398431 170.472278 
L 360.484232 170.530008 
L 361.570033 175.119595 
L 362.655835 175.985555 
L 363.741636 172.92583 
L 364.827437 171.193911 
L 365.913238 172.92583 
L 366.999039 171.367103 
L 368.08484 178.410242 
L 369.170642 172.521716 
L 370.256443 173.070157 
L 372.428045 182.653445 
L 373.513846 183.634866 
L 374.599647 172.49285 
L 375.685448 177.284494 
L 376.77125 184.212172 
L 377.857051 187.387358 
L 378.942852 181.931812 
L 380.028653 178.641164 
L 381.114454 179.420528 
L 382.200255 186.69459 
L 383.286057 177.659743 
L 384.371858 180.171027 
L 385.457659 176.303073 
L 386.54346 178.814356 
L 387.629261 188.397644 
L 388.715062 182.826637 
L 389.800863 186.059553 
L 390.886665 185.309055 
L 391.972466 184.962671 
L 393.058267 180.632872 
L 394.144068 173.416541 
L 395.229869 180.95039 
L 396.31567 183.086425 
L 397.401472 176.187612 
L 398.487273 176.4474 
L 398.487273 176.4474 
" clip-path="url(#p9c2d1e5c99)" style="fill: none; stroke: #2ca02c; stroke-width: 1.5; stroke-linecap: square"/>
   </g>
   <g id="line2d_21">
    <path d="M 368.08484 72.285431 
L 369.170642 71.573901 
L 370.256443 71.573901 
L 371.342244 71.950594 
L 372.428045 71.573901 
L 373.513846 72.45285 
L 374.599647 72.787688 
L 375.685448 71.532046 
L 376.77125 71.908739 
L 377.857051 71.615756 
L 378.942852 71.532046 
L 380.028653 71.992448 
L 381.114454 71.657611 
L 382.200255 73.666637 
L 383.286057 71.364627 
L 384.371858 72.53656 
L 386.54346 72.201722 
L 387.629261 71.448337 
L 388.715062 71.490192 
L 389.800863 71.950594 
L 390.886665 71.197209 
L 391.972466 70.778661 
L 393.058267 71.950594 
L 394.144068 72.201722 
L 395.229869 72.327286 
L 397.401472 71.448337 
L 398.487273 72.787688 
L 398.487273 72.787688 
" clip-path="url(#p9c2d1e5c99)" style="fill: none; stroke: #d62728; stroke-width: 1.5; stroke-linecap: square"/>
   </g>
   <g id="line2d_22">
    <path d="M 368.08484 172.348524 
L 369.170642 169.086742 
L 370.256443 169.40426 
L 371.342244 171.453699 
L 372.428045 165.651768 
L 373.513846 167.585745 
L 374.599647 174.195904 
L 375.685448 168.798089 
L 376.77125 171.944409 
L 377.857051 170.674335 
L 378.942852 168.653762 
L 380.028653 176.995841 
L 381.114454 173.445406 
L 382.200255 179.53599 
L 383.286057 166.459997 
L 384.371858 170.587739 
L 385.457659 170.356816 
L 386.54346 160.571471 
L 387.629261 161.957007 
L 388.715062 168.249647 
L 389.800863 169.894971 
L 390.886665 160.715798 
L 391.972466 160.45601 
L 393.058267 162.880697 
L 394.144068 166.575459 
L 395.229869 165.045596 
L 396.31567 162.534313 
L 397.401472 171.944409 
L 398.487273 173.127887 
L 398.487273 173.127887 
" clip-path="url(#p9c2d1e5c99)" style="fill: none; stroke: #9467bd; stroke-width: 1.5; stroke-linecap: square"/>
   </g>
   <g id="patch_3">
    <path d="M 57.6 307.584 
L 57.6 41.472 
" style="fill: none; stroke: #000000; stroke-width: 0.8; stroke-linejoin: miter; stroke-linecap: square"/>
   </g>
   <g id="patch_4">
    <path d="M 414.72 307.584 
L 414.72 41.472 
" style="fill: none; stroke: #000000; stroke-width: 0.8; stroke-linejoin: miter; stroke-linecap: square"/>
   </g>
   <g id="patch_5">
    <path d="M 57.6 307.584 
L 414.72 307.584 
" style="fill: none; stroke: #000000; stroke-width: 0.8; stroke-linejoin: miter; stroke-linecap: square"/>
   </g>
   <g id="patch_6">
    <path d="M 57.6 41.472 
L 414.72 41.472 
" style="fill: none; stroke: #000000; stroke-width: 0.8; stroke-linejoin: miter; stroke-linecap: square"/>
   </g>
   <g id="text_20">
    <!-- Learning Curves -->
    <g transform="translate(187.37625 35.472) scale(0.12 -0.12)">
     <defs>
      <path id="DejaVuSans-4c" d="M 628 4666 
L 1259 4666 
L 1259 531 
L 3531 531 
L 3531 0 
L 628 0 
L 628 4666 
z
" transform="scale(0.015625)"/>
      <path id="DejaVuSans-65" d="M 3597 1894 
L 3597 1613 
L 953 1613 
Q 991 1019 1311 708 
Q 1631 397 2203 397 
Q 2534 397 2845 478 
Q 3156 559 3463 722 
L 3463 178 
Q 3153 47 2828 -22 
Q 2503 -91 2169 -91 
Q 1331 -91 842 396 
Q 353 884 353 1716 
Q 353 2575 817 3079 
Q 1281 3584 2069 3584 
Q 2775 3584 3186 3129 
Q 3597 2675 3597 1894 
z
M 3022 2063 
Q 3016 2534 2758 2815 
Q 2500 3097 2075 3097 
Q 1594 3097 1305 2825 
Q 1016 2553 972 2059 
L 3022 2063 
z
" transform="scale(0.015625)"/>
      <path id="DejaVuSans-6e" d="M 3513 2113 
L 3513 0 
L 2938 0 
L 2938 2094 
Q 2938 2591 2744 2837 
Q 2550 3084 2163 3084 
Q 1697 3084 1428 2787 
Q 1159 2491 1159 1978 
L 1159 0 
L 581 0 
L 581 3500 
L 1159 3500 
L 1159 2956 
Q 1366 3272 1645 3428 
Q 1925 3584 2291 3584 
Q 2894 3584 3203 3211 
Q 3513 2838 3513 2113 
z
" transform="scale(0.015625)"/>
      <path id="DejaVuSans-69" d="M 603 3500 
L 1178 3500 
L 1178 0 
L 603 0 
L 603 3500 
z
M 603 4863 
L 1178 4863 
L 1178 4134 
L 603 4134 
L 603 4863 
z
" transform="scale(0.015625)"/>
      <path id="DejaVuSans-67" d="M 2906 1791 
Q 2906 2416 2648 2759 
Q 2391 3103 1925 3103 
Q 1463 3103 1205 2759 
Q 947 2416 947 1791 
Q 947 1169 1205 825 
Q 1463 481 1925 481 
Q 2391 481 2648 825 
Q 2906 1169 2906 1791 
z
M 3481 434 
Q 3481 -459 3084 -895 
Q 2688 -1331 1869 -1331 
Q 1566 -1331 1297 -1286 
Q 1028 -1241 775 -1147 
L 775 -588 
Q 1028 -725 1275 -790 
Q 1522 -856 1778 -856 
Q 2344 -856 2625 -561 
Q 2906 -266 2906 331 
L 2906 616 
Q 2728 306 2450 153 
Q 2172 0 1784 0 
Q 1141 0 747 490 
Q 353 981 353 1791 
Q 353 2603 747 3093 
Q 1141 3584 1784 3584 
Q 2172 3584 2450 3431 
Q 2728 3278 2906 2969 
L 2906 3500 
L 3481 3500 
L 3481 434 
z
" transform="scale(0.015625)"/>
      <path id="DejaVuSans-20" transform="scale(0.015625)"/>
      <path id="DejaVuSans-43" d="M 4122 4306 
L 4122 3641 
Q 3803 3938 3442 4084 
Q 3081 4231 2675 4231 
Q 1875 4231 1450 3742 
Q 1025 3253 1025 2328 
Q 1025 1406 1450 917 
Q 1875 428 2675 428 
Q 3081 428 3442 575 
Q 3803 722 4122 1019 
L 4122 359 
Q 3791 134 3420 21 
Q 3050 -91 2638 -91 
Q 1578 -91 968 557 
Q 359 1206 359 2328 
Q 359 3453 968 4101 
Q 1578 4750 2638 4750 
Q 3056 4750 3426 4639 
Q 3797 4528 4122 4306 
z
" transform="scale(0.015625)"/>
      <path id="DejaVuSans-76" d="M 191 3500 
L 800 3500 
L 1894 563 
L 2988 3500 
L 3597 3500 
L 2284 0 
L 1503 0 
L 191 3500 
z
" transform="scale(0.015625)"/>
     </defs>
     <use xlink:href="#DejaVuSans-4c"/>
     <use xlink:href="#DejaVuSans-65" x="53.962891"/>
     <use xlink:href="#DejaVuSans-61" x="115.486328"/>
     <use xlink:href="#DejaVuSans-72" x="176.765625"/>
     <use xlink:href="#DejaVuSans-6e" x="216.128906"/>
     <use xlink:href="#DejaVuSans-69" x="279.507812"/>
     <use xlink:href="#DejaVuSans-6e" x="307.291016"/>
     <use xlink:href="#DejaVuSans-67" x="370.669922"/>
     <use xlink:href="#DejaVuSans-20" x="434.146484"/>
     <use xlink:href="#DejaVuSans-43" x="465.933594"/>
     <use xlink:href="#DejaVuSans-75" x="535.757812"/>
     <use xlink:href="#DejaVuSans-72" x="599.136719"/>
     <use xlink:href="#DejaVuSans-76" x="640.25"/>
     <use xlink:href="#DejaVuSans-65" x="699.429688"/>
     <use xlink:href="#DejaVuSans-73" x="760.953125"/>
    </g>
   </g>
   <g id="legend_1">
    <g id="patch_7">
     <path d="M 214.18875 302.584 
L 407.72 302.584 
Q 409.72 302.584 409.72 300.584 
L 409.72 228.193375 
Q 409.72 226.193375 407.72 226.193375 
L 214.18875 226.193375 
Q 212.18875 226.193375 212.18875 228.193375 
L 212.18875 300.584 
Q 212.18875 302.584 214.18875 302.584 
z
" style="fill: #ffffff; opacity: 0.8; stroke: #cccccc; stroke-linejoin: miter"/>
    </g>
    <g id="line2d_23">
     <path d="M 216.18875 234.291812 
L 226.18875 234.291812 
L 236.18875 234.291812 
" style="fill: none; stroke: #1f77b4; stroke-width: 1.5; stroke-linecap: square"/>
    </g>
    <g id="text_21">
     <!-- Train Accuracy -->
     <g transform="translate(244.18875 237.791812) scale(0.1 -0.1)">
      <defs>
       <path id="DejaVuSans-54" d="M -19 4666 
L 3928 4666 
L 3928 4134 
L 2272 4134 
L 2272 0 
L 1638 0 
L 1638 4134 
L -19 4134 
L -19 4666 
z
" transform="scale(0.015625)"/>
      </defs>
      <use xlink:href="#DejaVuSans-54"/>
      <use xlink:href="#DejaVuSans-72" x="46.333984"/>
      <use xlink:href="#DejaVuSans-61" x="87.447266"/>
      <use xlink:href="#DejaVuSans-69" x="148.726562"/>
      <use xlink:href="#DejaVuSans-6e" x="176.509766"/>
      <use xlink:href="#DejaVuSans-20" x="239.888672"/>
      <use xlink:href="#DejaVuSans-41" x="271.675781"/>
      <use xlink:href="#DejaVuSans-63" x="338.333984"/>
      <use xlink:href="#DejaVuSans-63" x="393.314453"/>
      <use xlink:href="#DejaVuSans-75" x="448.294922"/>
      <use xlink:href="#DejaVuSans-72" x="511.673828"/>
      <use xlink:href="#DejaVuSans-61" x="552.787109"/>
      <use xlink:href="#DejaVuSans-63" x="614.066406"/>
      <use xlink:href="#DejaVuSans-79" x="669.046875"/>
     </g>
    </g>
    <g id="line2d_24">
     <path d="M 216.18875 248.969937 
L 226.18875 248.969937 
L 236.18875 248.969937 
" style="fill: none; stroke: #ff7f0e; stroke-width: 1.5; stroke-linecap: square"/>
    </g>
    <g id="text_22">
     <!-- Validation Accuracy -->
     <g transform="translate(244.18875 252.469937) scale(0.1 -0.1)">
      <defs>
       <path id="DejaVuSans-56" d="M 1831 0 
L 50 4666 
L 709 4666 
L 2188 738 
L 3669 4666 
L 4325 4666 
L 2547 0 
L 1831 0 
z
" transform="scale(0.015625)"/>
       <path id="DejaVuSans-6c" d="M 603 4863 
L 1178 4863 
L 1178 0 
L 603 0 
L 603 4863 
z
" transform="scale(0.015625)"/>
       <path id="DejaVuSans-64" d="M 2906 2969 
L 2906 4863 
L 3481 4863 
L 3481 0 
L 2906 0 
L 2906 525 
Q 2725 213 2448 61 
Q 2172 -91 1784 -91 
Q 1150 -91 751 415 
Q 353 922 353 1747 
Q 353 2572 751 3078 
Q 1150 3584 1784 3584 
Q 2172 3584 2448 3432 
Q 2725 3281 2906 2969 
z
M 947 1747 
Q 947 1113 1208 752 
Q 1469 391 1925 391 
Q 2381 391 2643 752 
Q 2906 1113 2906 1747 
Q 2906 2381 2643 2742 
Q 2381 3103 1925 3103 
Q 1469 3103 1208 2742 
Q 947 2381 947 1747 
z
" transform="scale(0.015625)"/>
       <path id="DejaVuSans-74" d="M 1172 4494 
L 1172 3500 
L 2356 3500 
L 2356 3053 
L 1172 3053 
L 1172 1153 
Q 1172 725 1289 603 
Q 1406 481 1766 481 
L 2356 481 
L 2356 0 
L 1766 0 
Q 1100 0 847 248 
Q 594 497 594 1153 
L 594 3053 
L 172 3053 
L 172 3500 
L 594 3500 
L 594 4494 
L 1172 4494 
z
" transform="scale(0.015625)"/>
      </defs>
      <use xlink:href="#DejaVuSans-56"/>
      <use xlink:href="#DejaVuSans-61" x="60.658203"/>
      <use xlink:href="#DejaVuSans-6c" x="121.9375"/>
      <use xlink:href="#DejaVuSans-69" x="149.720703"/>
      <use xlink:href="#DejaVuSans-64" x="177.503906"/>
      <use xlink:href="#DejaVuSans-61" x="240.980469"/>
      <use xlink:href="#DejaVuSans-74" x="302.259766"/>
      <use xlink:href="#DejaVuSans-69" x="341.46875"/>
      <use xlink:href="#DejaVuSans-6f" x="369.251953"/>
      <use xlink:href="#DejaVuSans-6e" x="430.433594"/>
      <use xlink:href="#DejaVuSans-20" x="493.8125"/>
      <use xlink:href="#DejaVuSans-41" x="525.599609"/>
      <use xlink:href="#DejaVuSans-63" x="592.257812"/>
      <use xlink:href="#DejaVuSans-63" x="647.238281"/>
      <use xlink:href="#DejaVuSans-75" x="702.21875"/>
      <use xlink:href="#DejaVuSans-72" x="765.597656"/>
      <use xlink:href="#DejaVuSans-61" x="806.710938"/>
      <use xlink:href="#DejaVuSans-63" x="867.990234"/>
      <use xlink:href="#DejaVuSans-79" x="922.970703"/>
     </g>
    </g>
    <g id="line2d_25">
     <path d="M 216.18875 263.648062 
L 226.18875 263.648062 
L 236.18875 263.648062 
" style="fill: none; stroke: #2ca02c; stroke-width: 1.5; stroke-linecap: square"/>
    </g>
    <g id="text_23">
     <!-- Robust Validation Accuracy -->
     <g transform="translate(244.18875 267.148062) scale(0.1 -0.1)">
      <defs>
       <path id="DejaVuSans-52" d="M 2841 2188 
Q 3044 2119 3236 1894 
Q 3428 1669 3622 1275 
L 4263 0 
L 3584 0 
L 2988 1197 
Q 2756 1666 2539 1819 
Q 2322 1972 1947 1972 
L 1259 1972 
L 1259 0 
L 628 0 
L 628 4666 
L 2053 4666 
Q 2853 4666 3247 4331 
Q 3641 3997 3641 3322 
Q 3641 2881 3436 2590 
Q 3231 2300 2841 2188 
z
M 1259 4147 
L 1259 2491 
L 2053 2491 
Q 2509 2491 2742 2702 
Q 2975 2913 2975 3322 
Q 2975 3731 2742 3939 
Q 2509 4147 2053 4147 
L 1259 4147 
z
" transform="scale(0.015625)"/>
       <path id="DejaVuSans-62" d="M 3116 1747 
Q 3116 2381 2855 2742 
Q 2594 3103 2138 3103 
Q 1681 3103 1420 2742 
Q 1159 2381 1159 1747 
Q 1159 1113 1420 752 
Q 1681 391 2138 391 
Q 2594 391 2855 752 
Q 3116 1113 3116 1747 
z
M 1159 2969 
Q 1341 3281 1617 3432 
Q 1894 3584 2278 3584 
Q 2916 3584 3314 3078 
Q 3713 2572 3713 1747 
Q 3713 922 3314 415 
Q 2916 -91 2278 -91 
Q 1894 -91 1617 61 
Q 1341 213 1159 525 
L 1159 0 
L 581 0 
L 581 4863 
L 1159 4863 
L 1159 2969 
z
" transform="scale(0.015625)"/>
      </defs>
      <use xlink:href="#DejaVuSans-52"/>
      <use xlink:href="#DejaVuSans-6f" x="64.982422"/>
      <use xlink:href="#DejaVuSans-62" x="126.164062"/>
      <use xlink:href="#DejaVuSans-75" x="189.640625"/>
      <use xlink:href="#DejaVuSans-73" x="253.019531"/>
      <use xlink:href="#DejaVuSans-74" x="305.119141"/>
      <use xlink:href="#DejaVuSans-20" x="344.328125"/>
      <use xlink:href="#DejaVuSans-56" x="376.115234"/>
      <use xlink:href="#DejaVuSans-61" x="436.773438"/>
      <use xlink:href="#DejaVuSans-6c" x="498.052734"/>
      <use xlink:href="#DejaVuSans-69" x="525.835938"/>
      <use xlink:href="#DejaVuSans-64" x="553.619141"/>
      <use xlink:href="#DejaVuSans-61" x="617.095703"/>
      <use xlink:href="#DejaVuSans-74" x="678.375"/>
      <use xlink:href="#DejaVuSans-69" x="717.583984"/>
      <use xlink:href="#DejaVuSans-6f" x="745.367188"/>
      <use xlink:href="#DejaVuSans-6e" x="806.548828"/>
      <use xlink:href="#DejaVuSans-20" x="869.927734"/>
      <use xlink:href="#DejaVuSans-41" x="901.714844"/>
      <use xlink:href="#DejaVuSans-63" x="968.373047"/>
      <use xlink:href="#DejaVuSans-63" x="1023.353516"/>
      <use xlink:href="#DejaVuSans-75" x="1078.333984"/>
      <use xlink:href="#DejaVuSans-72" x="1141.712891"/>
      <use xlink:href="#DejaVuSans-61" x="1182.826172"/>
      <use xlink:href="#DejaVuSans-63" x="1244.105469"/>
      <use xlink:href="#DejaVuSans-79" x="1299.085938"/>
     </g>
    </g>
    <g id="line2d_26">
     <path d="M 216.18875 278.326188 
L 226.18875 278.326188 
L 236.18875 278.326188 
" style="fill: none; stroke: #d62728; stroke-width: 1.5; stroke-linecap: square"/>
    </g>
    <g id="text_24">
     <!-- SWA Validation Accuracy -->
     <g transform="translate(244.18875 281.826188) scale(0.1 -0.1)">
      <defs>
       <path id="DejaVuSans-53" d="M 3425 4513 
L 3425 3897 
Q 3066 4069 2747 4153 
Q 2428 4238 2131 4238 
Q 1616 4238 1336 4038 
Q 1056 3838 1056 3469 
Q 1056 3159 1242 3001 
Q 1428 2844 1947 2747 
L 2328 2669 
Q 3034 2534 3370 2195 
Q 3706 1856 3706 1288 
Q 3706 609 3251 259 
Q 2797 -91 1919 -91 
Q 1588 -91 1214 -16 
Q 841 59 441 206 
L 441 856 
Q 825 641 1194 531 
Q 1563 422 1919 422 
Q 2459 422 2753 634 
Q 3047 847 3047 1241 
Q 3047 1584 2836 1778 
Q 2625 1972 2144 2069 
L 1759 2144 
Q 1053 2284 737 2584 
Q 422 2884 422 3419 
Q 422 4038 858 4394 
Q 1294 4750 2059 4750 
Q 2388 4750 2728 4690 
Q 3069 4631 3425 4513 
z
" transform="scale(0.015625)"/>
       <path id="DejaVuSans-57" d="M 213 4666 
L 850 4666 
L 1831 722 
L 2809 4666 
L 3519 4666 
L 4500 722 
L 5478 4666 
L 6119 4666 
L 4947 0 
L 4153 0 
L 3169 4050 
L 2175 0 
L 1381 0 
L 213 4666 
z
" transform="scale(0.015625)"/>
      </defs>
      <use xlink:href="#DejaVuSans-53"/>
      <use xlink:href="#DejaVuSans-57" x="63.476562"/>
      <use xlink:href="#DejaVuSans-41" x="156.853516"/>
      <use xlink:href="#DejaVuSans-20" x="225.261719"/>
      <use xlink:href="#DejaVuSans-56" x="257.048828"/>
      <use xlink:href="#DejaVuSans-61" x="317.707031"/>
      <use xlink:href="#DejaVuSans-6c" x="378.986328"/>
      <use xlink:href="#DejaVuSans-69" x="406.769531"/>
      <use xlink:href="#DejaVuSans-64" x="434.552734"/>
      <use xlink:href="#DejaVuSans-61" x="498.029297"/>
      <use xlink:href="#DejaVuSans-74" x="559.308594"/>
      <use xlink:href="#DejaVuSans-69" x="598.517578"/>
      <use xlink:href="#DejaVuSans-6f" x="626.300781"/>
      <use xlink:href="#DejaVuSans-6e" x="687.482422"/>
      <use xlink:href="#DejaVuSans-20" x="750.861328"/>
      <use xlink:href="#DejaVuSans-41" x="782.648438"/>
      <use xlink:href="#DejaVuSans-63" x="849.306641"/>
      <use xlink:href="#DejaVuSans-63" x="904.287109"/>
      <use xlink:href="#DejaVuSans-75" x="959.267578"/>
      <use xlink:href="#DejaVuSans-72" x="1022.646484"/>
      <use xlink:href="#DejaVuSans-61" x="1063.759766"/>
      <use xlink:href="#DejaVuSans-63" x="1125.039062"/>
      <use xlink:href="#DejaVuSans-79" x="1180.019531"/>
     </g>
    </g>
    <g id="line2d_27">
     <path d="M 216.18875 293.004312 
L 226.18875 293.004312 
L 236.18875 293.004312 
" style="fill: none; stroke: #9467bd; stroke-width: 1.5; stroke-linecap: square"/>
    </g>
    <g id="text_25">
     <!-- SWA Robust Validation Accuracy -->
     <g transform="translate(244.18875 296.504312) scale(0.1 -0.1)">
      <use xlink:href="#DejaVuSans-53"/>
      <use xlink:href="#DejaVuSans-57" x="63.476562"/>
      <use xlink:href="#DejaVuSans-41" x="156.853516"/>
      <use xlink:href="#DejaVuSans-20" x="225.261719"/>
      <use xlink:href="#DejaVuSans-52" x="257.048828"/>
      <use xlink:href="#DejaVuSans-6f" x="322.03125"/>
      <use xlink:href="#DejaVuSans-62" x="383.212891"/>
      <use xlink:href="#DejaVuSans-75" x="446.689453"/>
      <use xlink:href="#DejaVuSans-73" x="510.068359"/>
      <use xlink:href="#DejaVuSans-74" x="562.167969"/>
      <use xlink:href="#DejaVuSans-20" x="601.376953"/>
      <use xlink:href="#DejaVuSans-56" x="633.164062"/>
      <use xlink:href="#DejaVuSans-61" x="693.822266"/>
      <use xlink:href="#DejaVuSans-6c" x="755.101562"/>
      <use xlink:href="#DejaVuSans-69" x="782.884766"/>
      <use xlink:href="#DejaVuSans-64" x="810.667969"/>
      <use xlink:href="#DejaVuSans-61" x="874.144531"/>
      <use xlink:href="#DejaVuSans-74" x="935.423828"/>
      <use xlink:href="#DejaVuSans-69" x="974.632812"/>
      <use xlink:href="#DejaVuSans-6f" x="1002.416016"/>
      <use xlink:href="#DejaVuSans-6e" x="1063.597656"/>
      <use xlink:href="#DejaVuSans-20" x="1126.976562"/>
      <use xlink:href="#DejaVuSans-41" x="1158.763672"/>
      <use xlink:href="#DejaVuSans-63" x="1225.421875"/>
      <use xlink:href="#DejaVuSans-63" x="1280.402344"/>
      <use xlink:href="#DejaVuSans-75" x="1335.382812"/>
      <use xlink:href="#DejaVuSans-72" x="1398.761719"/>
      <use xlink:href="#DejaVuSans-61" x="1439.875"/>
      <use xlink:href="#DejaVuSans-63" x="1501.154297"/>
      <use xlink:href="#DejaVuSans-79" x="1556.134766"/>
     </g>
    </g>
   </g>
  </g>
 </g>
 <defs>
  <clipPath id="p9c2d1e5c99">
   <rect x="57.6" y="41.472" width="357.12" height="266.112"/>
  </clipPath>
 </defs>
</svg>
