<?xml version="1.0" encoding="utf-8" standalone="no"?>
<!DOCTYPE svg PUBLIC "-//W3C//DTD SVG 1.1//EN"
  "http://www.w3.org/Graphics/SVG/1.1/DTD/svg11.dtd">
<svg xmlns:xlink="http://www.w3.org/1999/xlink" width="460.8pt" height="345.6pt" viewBox="0 0 460.8 345.6" xmlns="http://www.w3.org/2000/svg" version="1.1">
 <metadata>
  <rdf:RDF xmlns:dc="http://purl.org/dc/elements/1.1/" xmlns:cc="http://creativecommons.org/ns#" xmlns:rdf="http://www.w3.org/1999/02/22-rdf-syntax-ns#">
   <cc:Work>
    <dc:type rdf:resource="http://purl.org/dc/dcmitype/StillImage"/>
    <dc:date>2025-01-23T15:16:44.332469</dc:date>
    <dc:format>image/svg+xml</dc:format>
    <dc:creator>
     <cc:Agent>
      <dc:title>Matplotlib v3.9.1, https://matplotlib.org/</dc:title>
     </cc:Agent>
    </dc:creator>
   </cc:Work>
  </rdf:RDF>
 </metadata>
 <defs>
  <style type="text/css">*{stroke-linejoin: round; stroke-linecap: butt}</style>
 </defs>
 <g id="figure_1">
  <g id="patch_1">
   <path d="M 0 345.6 
L 460.8 345.6 
L 460.8 0 
L 0 0 
z
" style="fill: #ffffff"/>
  </g>
  <g id="axes_1">
   <g id="patch_2">
    <path d="M 57.6 307.584 
L 414.72 307.584 
L 414.72 41.472 
L 57.6 41.472 
z
" style="fill: #ffffff"/>
   </g>
   <g id="matplotlib.axis_1">
    <g id="xtick_1">
     <g id="line2d_1">
      <defs>
       <path id="md1d538f98a" d="M 0 0 
L 0 3.5 
" style="stroke: #000000; stroke-width: 0.8"/>
      </defs>
      <g>
       <use xlink:href="#md1d538f98a" x="73.832727" y="307.584" style="stroke: #000000; stroke-width: 0.8"/>
      </g>
     </g>
     <g id="text_1">
      <!-- 1 -->
      <g transform="translate(70.651477 322.182437) scale(0.1 -0.1)">
       <defs>
        <path id="DejaVuSans-31" d="M 794 531 
L 1825 531 
L 1825 4091 
L 703 3866 
L 703 4441 
L 1819 4666 
L 2450 4666 
L 2450 531 
L 3481 531 
L 3481 0 
L 794 0 
L 794 531 
z
" transform="scale(0.015625)"/>
       </defs>
       <use xlink:href="#DejaVuSans-31"/>
      </g>
     </g>
    </g>
    <g id="xtick_2">
     <g id="line2d_2">
      <g>
       <use xlink:href="#md1d538f98a" x="109.664165" y="307.584" style="stroke: #000000; stroke-width: 0.8"/>
      </g>
     </g>
     <g id="text_2">
      <!-- 34 -->
      <g transform="translate(103.301665 322.182437) scale(0.1 -0.1)">
       <defs>
        <path id="DejaVuSans-33" d="M 2597 2516 
Q 3050 2419 3304 2112 
Q 3559 1806 3559 1356 
Q 3559 666 3084 287 
Q 2609 -91 1734 -91 
Q 1441 -91 1130 -33 
Q 819 25 488 141 
L 488 750 
Q 750 597 1062 519 
Q 1375 441 1716 441 
Q 2309 441 2620 675 
Q 2931 909 2931 1356 
Q 2931 1769 2642 2001 
Q 2353 2234 1838 2234 
L 1294 2234 
L 1294 2753 
L 1863 2753 
Q 2328 2753 2575 2939 
Q 2822 3125 2822 3475 
Q 2822 3834 2567 4026 
Q 2313 4219 1838 4219 
Q 1578 4219 1281 4162 
Q 984 4106 628 3988 
L 628 4550 
Q 988 4650 1302 4700 
Q 1616 4750 1894 4750 
Q 2613 4750 3031 4423 
Q 3450 4097 3450 3541 
Q 3450 3153 3228 2886 
Q 3006 2619 2597 2516 
z
" transform="scale(0.015625)"/>
        <path id="DejaVuSans-34" d="M 2419 4116 
L 825 1625 
L 2419 1625 
L 2419 4116 
z
M 2253 4666 
L 3047 4666 
L 3047 1625 
L 3713 1625 
L 3713 1100 
L 3047 1100 
L 3047 0 
L 2419 0 
L 2419 1100 
L 313 1100 
L 313 1709 
L 2253 4666 
z
" transform="scale(0.015625)"/>
       </defs>
       <use xlink:href="#DejaVuSans-33"/>
       <use xlink:href="#DejaVuSans-34" x="63.623047"/>
      </g>
     </g>
    </g>
    <g id="xtick_3">
     <g id="line2d_3">
      <g>
       <use xlink:href="#md1d538f98a" x="145.495604" y="307.584" style="stroke: #000000; stroke-width: 0.8"/>
      </g>
     </g>
     <g id="text_3">
      <!-- 67 -->
      <g transform="translate(139.133104 322.182437) scale(0.1 -0.1)">
       <defs>
        <path id="DejaVuSans-36" d="M 2113 2584 
Q 1688 2584 1439 2293 
Q 1191 2003 1191 1497 
Q 1191 994 1439 701 
Q 1688 409 2113 409 
Q 2538 409 2786 701 
Q 3034 994 3034 1497 
Q 3034 2003 2786 2293 
Q 2538 2584 2113 2584 
z
M 3366 4563 
L 3366 3988 
Q 3128 4100 2886 4159 
Q 2644 4219 2406 4219 
Q 1781 4219 1451 3797 
Q 1122 3375 1075 2522 
Q 1259 2794 1537 2939 
Q 1816 3084 2150 3084 
Q 2853 3084 3261 2657 
Q 3669 2231 3669 1497 
Q 3669 778 3244 343 
Q 2819 -91 2113 -91 
Q 1303 -91 875 529 
Q 447 1150 447 2328 
Q 447 3434 972 4092 
Q 1497 4750 2381 4750 
Q 2619 4750 2861 4703 
Q 3103 4656 3366 4563 
z
" transform="scale(0.015625)"/>
        <path id="DejaVuSans-37" d="M 525 4666 
L 3525 4666 
L 3525 4397 
L 1831 0 
L 1172 0 
L 2766 4134 
L 525 4134 
L 525 4666 
z
" transform="scale(0.015625)"/>
       </defs>
       <use xlink:href="#DejaVuSans-36"/>
       <use xlink:href="#DejaVuSans-37" x="63.623047"/>
      </g>
     </g>
    </g>
    <g id="xtick_4">
     <g id="line2d_4">
      <g>
       <use xlink:href="#md1d538f98a" x="181.327042" y="307.584" style="stroke: #000000; stroke-width: 0.8"/>
      </g>
     </g>
     <g id="text_4">
      <!-- 100 -->
      <g transform="translate(171.783292 322.182437) scale(0.1 -0.1)">
       <defs>
        <path id="DejaVuSans-30" d="M 2034 4250 
Q 1547 4250 1301 3770 
Q 1056 3291 1056 2328 
Q 1056 1369 1301 889 
Q 1547 409 2034 409 
Q 2525 409 2770 889 
Q 3016 1369 3016 2328 
Q 3016 3291 2770 3770 
Q 2525 4250 2034 4250 
z
M 2034 4750 
Q 2819 4750 3233 4129 
Q 3647 3509 3647 2328 
Q 3647 1150 3233 529 
Q 2819 -91 2034 -91 
Q 1250 -91 836 529 
Q 422 1150 422 2328 
Q 422 3509 836 4129 
Q 1250 4750 2034 4750 
z
" transform="scale(0.015625)"/>
       </defs>
       <use xlink:href="#DejaVuSans-31"/>
       <use xlink:href="#DejaVuSans-30" x="63.623047"/>
       <use xlink:href="#DejaVuSans-30" x="127.246094"/>
      </g>
     </g>
    </g>
    <g id="xtick_5">
     <g id="line2d_5">
      <g>
       <use xlink:href="#md1d538f98a" x="217.15848" y="307.584" style="stroke: #000000; stroke-width: 0.8"/>
      </g>
     </g>
     <g id="text_5">
      <!-- 133 -->
      <g transform="translate(207.61473 322.182437) scale(0.1 -0.1)">
       <use xlink:href="#DejaVuSans-31"/>
       <use xlink:href="#DejaVuSans-33" x="63.623047"/>
       <use xlink:href="#DejaVuSans-33" x="127.246094"/>
      </g>
     </g>
    </g>
    <g id="xtick_6">
     <g id="line2d_6">
      <g>
       <use xlink:href="#md1d538f98a" x="254.075719" y="307.584" style="stroke: #000000; stroke-width: 0.8"/>
      </g>
     </g>
     <g id="text_6">
      <!-- 167 -->
      <g transform="translate(244.531969 322.182437) scale(0.1 -0.1)">
       <use xlink:href="#DejaVuSans-31"/>
       <use xlink:href="#DejaVuSans-36" x="63.623047"/>
       <use xlink:href="#DejaVuSans-37" x="127.246094"/>
      </g>
     </g>
    </g>
    <g id="xtick_7">
     <g id="line2d_7">
      <g>
       <use xlink:href="#md1d538f98a" x="289.907157" y="307.584" style="stroke: #000000; stroke-width: 0.8"/>
      </g>
     </g>
     <g id="text_7">
      <!-- 200 -->
      <g transform="translate(280.363407 322.182437) scale(0.1 -0.1)">
       <defs>
        <path id="DejaVuSans-32" d="M 1228 531 
L 3431 531 
L 3431 0 
L 469 0 
L 469 531 
Q 828 903 1448 1529 
Q 2069 2156 2228 2338 
Q 2531 2678 2651 2914 
Q 2772 3150 2772 3378 
Q 2772 3750 2511 3984 
Q 2250 4219 1831 4219 
Q 1534 4219 1204 4116 
Q 875 4013 500 3803 
L 500 4441 
Q 881 4594 1212 4672 
Q 1544 4750 1819 4750 
Q 2544 4750 2975 4387 
Q 3406 4025 3406 3419 
Q 3406 3131 3298 2873 
Q 3191 2616 2906 2266 
Q 2828 2175 2409 1742 
Q 1991 1309 1228 531 
z
" transform="scale(0.015625)"/>
       </defs>
       <use xlink:href="#DejaVuSans-32"/>
       <use xlink:href="#DejaVuSans-30" x="63.623047"/>
       <use xlink:href="#DejaVuSans-30" x="127.246094"/>
      </g>
     </g>
    </g>
    <g id="xtick_8">
     <g id="line2d_8">
      <g>
       <use xlink:href="#md1d538f98a" x="325.738595" y="307.584" style="stroke: #000000; stroke-width: 0.8"/>
      </g>
     </g>
     <g id="text_8">
      <!-- 233 -->
      <g transform="translate(316.194845 322.182437) scale(0.1 -0.1)">
       <use xlink:href="#DejaVuSans-32"/>
       <use xlink:href="#DejaVuSans-33" x="63.623047"/>
       <use xlink:href="#DejaVuSans-33" x="127.246094"/>
      </g>
     </g>
    </g>
    <g id="xtick_9">
     <g id="line2d_9">
      <g>
       <use xlink:href="#md1d538f98a" x="361.570033" y="307.584" style="stroke: #000000; stroke-width: 0.8"/>
      </g>
     </g>
     <g id="text_9">
      <!-- 266 -->
      <g transform="translate(352.026283 322.182437) scale(0.1 -0.1)">
       <use xlink:href="#DejaVuSans-32"/>
       <use xlink:href="#DejaVuSans-36" x="63.623047"/>
       <use xlink:href="#DejaVuSans-36" x="127.246094"/>
      </g>
     </g>
    </g>
    <g id="xtick_10">
     <g id="line2d_10">
      <g>
       <use xlink:href="#md1d538f98a" x="398.487273" y="307.584" style="stroke: #000000; stroke-width: 0.8"/>
      </g>
     </g>
     <g id="text_10">
      <!-- 300 -->
      <g transform="translate(388.943523 322.182437) scale(0.1 -0.1)">
       <use xlink:href="#DejaVuSans-33"/>
       <use xlink:href="#DejaVuSans-30" x="63.623047"/>
       <use xlink:href="#DejaVuSans-30" x="127.246094"/>
      </g>
     </g>
    </g>
    <g id="text_11">
     <!-- Epochs -->
     <g transform="translate(218.244375 335.860562) scale(0.1 -0.1)">
      <defs>
       <path id="DejaVuSans-45" d="M 628 4666 
L 3578 4666 
L 3578 4134 
L 1259 4134 
L 1259 2753 
L 3481 2753 
L 3481 2222 
L 1259 2222 
L 1259 531 
L 3634 531 
L 3634 0 
L 628 0 
L 628 4666 
z
" transform="scale(0.015625)"/>
       <path id="DejaVuSans-70" d="M 1159 525 
L 1159 -1331 
L 581 -1331 
L 581 3500 
L 1159 3500 
L 1159 2969 
Q 1341 3281 1617 3432 
Q 1894 3584 2278 3584 
Q 2916 3584 3314 3078 
Q 3713 2572 3713 1747 
Q 3713 922 3314 415 
Q 2916 -91 2278 -91 
Q 1894 -91 1617 61 
Q 1341 213 1159 525 
z
M 3116 1747 
Q 3116 2381 2855 2742 
Q 2594 3103 2138 3103 
Q 1681 3103 1420 2742 
Q 1159 2381 1159 1747 
Q 1159 1113 1420 752 
Q 1681 391 2138 391 
Q 2594 391 2855 752 
Q 3116 1113 3116 1747 
z
" transform="scale(0.015625)"/>
       <path id="DejaVuSans-6f" d="M 1959 3097 
Q 1497 3097 1228 2736 
Q 959 2375 959 1747 
Q 959 1119 1226 758 
Q 1494 397 1959 397 
Q 2419 397 2687 759 
Q 2956 1122 2956 1747 
Q 2956 2369 2687 2733 
Q 2419 3097 1959 3097 
z
M 1959 3584 
Q 2709 3584 3137 3096 
Q 3566 2609 3566 1747 
Q 3566 888 3137 398 
Q 2709 -91 1959 -91 
Q 1206 -91 779 398 
Q 353 888 353 1747 
Q 353 2609 779 3096 
Q 1206 3584 1959 3584 
z
" transform="scale(0.015625)"/>
       <path id="DejaVuSans-63" d="M 3122 3366 
L 3122 2828 
Q 2878 2963 2633 3030 
Q 2388 3097 2138 3097 
Q 1578 3097 1268 2742 
Q 959 2388 959 1747 
Q 959 1106 1268 751 
Q 1578 397 2138 397 
Q 2388 397 2633 464 
Q 2878 531 3122 666 
L 3122 134 
Q 2881 22 2623 -34 
Q 2366 -91 2075 -91 
Q 1284 -91 818 406 
Q 353 903 353 1747 
Q 353 2603 823 3093 
Q 1294 3584 2113 3584 
Q 2378 3584 2631 3529 
Q 2884 3475 3122 3366 
z
" transform="scale(0.015625)"/>
       <path id="DejaVuSans-68" d="M 3513 2113 
L 3513 0 
L 2938 0 
L 2938 2094 
Q 2938 2591 2744 2837 
Q 2550 3084 2163 3084 
Q 1697 3084 1428 2787 
Q 1159 2491 1159 1978 
L 1159 0 
L 581 0 
L 581 4863 
L 1159 4863 
L 1159 2956 
Q 1366 3272 1645 3428 
Q 1925 3584 2291 3584 
Q 2894 3584 3203 3211 
Q 3513 2838 3513 2113 
z
" transform="scale(0.015625)"/>
       <path id="DejaVuSans-73" d="M 2834 3397 
L 2834 2853 
Q 2591 2978 2328 3040 
Q 2066 3103 1784 3103 
Q 1356 3103 1142 2972 
Q 928 2841 928 2578 
Q 928 2378 1081 2264 
Q 1234 2150 1697 2047 
L 1894 2003 
Q 2506 1872 2764 1633 
Q 3022 1394 3022 966 
Q 3022 478 2636 193 
Q 2250 -91 1575 -91 
Q 1294 -91 989 -36 
Q 684 19 347 128 
L 347 722 
Q 666 556 975 473 
Q 1284 391 1588 391 
Q 1994 391 2212 530 
Q 2431 669 2431 922 
Q 2431 1156 2273 1281 
Q 2116 1406 1581 1522 
L 1381 1569 
Q 847 1681 609 1914 
Q 372 2147 372 2553 
Q 372 3047 722 3315 
Q 1072 3584 1716 3584 
Q 2034 3584 2315 3537 
Q 2597 3491 2834 3397 
z
" transform="scale(0.015625)"/>
      </defs>
      <use xlink:href="#DejaVuSans-45"/>
      <use xlink:href="#DejaVuSans-70" x="63.183594"/>
      <use xlink:href="#DejaVuSans-6f" x="126.660156"/>
      <use xlink:href="#DejaVuSans-63" x="187.841797"/>
      <use xlink:href="#DejaVuSans-68" x="242.822266"/>
      <use xlink:href="#DejaVuSans-73" x="306.201172"/>
     </g>
    </g>
   </g>
   <g id="matplotlib.axis_2">
    <g id="ytick_1">
     <g id="line2d_11">
      <defs>
       <path id="m3c03f9676e" d="M 0 0 
L -3.5 0 
" style="stroke: #000000; stroke-width: 0.8"/>
      </defs>
      <g>
       <use xlink:href="#m3c03f9676e" x="57.6" y="281.704421" style="stroke: #000000; stroke-width: 0.8"/>
      </g>
     </g>
     <g id="text_12">
      <!-- 40 -->
      <g transform="translate(37.875 285.50364) scale(0.1 -0.1)">
       <use xlink:href="#DejaVuSans-34"/>
       <use xlink:href="#DejaVuSans-30" x="63.623047"/>
      </g>
     </g>
    </g>
    <g id="ytick_2">
     <g id="line2d_12">
      <g>
       <use xlink:href="#m3c03f9676e" x="57.6" y="241.283368" style="stroke: #000000; stroke-width: 0.8"/>
      </g>
     </g>
     <g id="text_13">
      <!-- 50 -->
      <g transform="translate(37.875 245.082587) scale(0.1 -0.1)">
       <defs>
        <path id="DejaVuSans-35" d="M 691 4666 
L 3169 4666 
L 3169 4134 
L 1269 4134 
L 1269 2991 
Q 1406 3038 1543 3061 
Q 1681 3084 1819 3084 
Q 2600 3084 3056 2656 
Q 3513 2228 3513 1497 
Q 3513 744 3044 326 
Q 2575 -91 1722 -91 
Q 1428 -91 1123 -41 
Q 819 9 494 109 
L 494 744 
Q 775 591 1075 516 
Q 1375 441 1709 441 
Q 2250 441 2565 725 
Q 2881 1009 2881 1497 
Q 2881 1984 2565 2268 
Q 2250 2553 1709 2553 
Q 1456 2553 1204 2497 
Q 953 2441 691 2322 
L 691 4666 
z
" transform="scale(0.015625)"/>
       </defs>
       <use xlink:href="#DejaVuSans-35"/>
       <use xlink:href="#DejaVuSans-30" x="63.623047"/>
      </g>
     </g>
    </g>
    <g id="ytick_3">
     <g id="line2d_13">
      <g>
       <use xlink:href="#m3c03f9676e" x="57.6" y="200.862316" style="stroke: #000000; stroke-width: 0.8"/>
      </g>
     </g>
     <g id="text_14">
      <!-- 60 -->
      <g transform="translate(37.875 204.661535) scale(0.1 -0.1)">
       <use xlink:href="#DejaVuSans-36"/>
       <use xlink:href="#DejaVuSans-30" x="63.623047"/>
      </g>
     </g>
    </g>
    <g id="ytick_4">
     <g id="line2d_14">
      <g>
       <use xlink:href="#m3c03f9676e" x="57.6" y="160.441263" style="stroke: #000000; stroke-width: 0.8"/>
      </g>
     </g>
     <g id="text_15">
      <!-- 70 -->
      <g transform="translate(37.875 164.240482) scale(0.1 -0.1)">
       <use xlink:href="#DejaVuSans-37"/>
       <use xlink:href="#DejaVuSans-30" x="63.623047"/>
      </g>
     </g>
    </g>
    <g id="ytick_5">
     <g id="line2d_15">
      <g>
       <use xlink:href="#m3c03f9676e" x="57.6" y="120.020211" style="stroke: #000000; stroke-width: 0.8"/>
      </g>
     </g>
     <g id="text_16">
      <!-- 80 -->
      <g transform="translate(37.875 123.819429) scale(0.1 -0.1)">
       <defs>
        <path id="DejaVuSans-38" d="M 2034 2216 
Q 1584 2216 1326 1975 
Q 1069 1734 1069 1313 
Q 1069 891 1326 650 
Q 1584 409 2034 409 
Q 2484 409 2743 651 
Q 3003 894 3003 1313 
Q 3003 1734 2745 1975 
Q 2488 2216 2034 2216 
z
M 1403 2484 
Q 997 2584 770 2862 
Q 544 3141 544 3541 
Q 544 4100 942 4425 
Q 1341 4750 2034 4750 
Q 2731 4750 3128 4425 
Q 3525 4100 3525 3541 
Q 3525 3141 3298 2862 
Q 3072 2584 2669 2484 
Q 3125 2378 3379 2068 
Q 3634 1759 3634 1313 
Q 3634 634 3220 271 
Q 2806 -91 2034 -91 
Q 1263 -91 848 271 
Q 434 634 434 1313 
Q 434 1759 690 2068 
Q 947 2378 1403 2484 
z
M 1172 3481 
Q 1172 3119 1398 2916 
Q 1625 2713 2034 2713 
Q 2441 2713 2670 2916 
Q 2900 3119 2900 3481 
Q 2900 3844 2670 4047 
Q 2441 4250 2034 4250 
Q 1625 4250 1398 4047 
Q 1172 3844 1172 3481 
z
" transform="scale(0.015625)"/>
       </defs>
       <use xlink:href="#DejaVuSans-38"/>
       <use xlink:href="#DejaVuSans-30" x="63.623047"/>
      </g>
     </g>
    </g>
    <g id="ytick_6">
     <g id="line2d_16">
      <g>
       <use xlink:href="#m3c03f9676e" x="57.6" y="79.599158" style="stroke: #000000; stroke-width: 0.8"/>
      </g>
     </g>
     <g id="text_17">
      <!-- 90 -->
      <g transform="translate(37.875 83.398377) scale(0.1 -0.1)">
       <defs>
        <path id="DejaVuSans-39" d="M 703 97 
L 703 672 
Q 941 559 1184 500 
Q 1428 441 1663 441 
Q 2288 441 2617 861 
Q 2947 1281 2994 2138 
Q 2813 1869 2534 1725 
Q 2256 1581 1919 1581 
Q 1219 1581 811 2004 
Q 403 2428 403 3163 
Q 403 3881 828 4315 
Q 1253 4750 1959 4750 
Q 2769 4750 3195 4129 
Q 3622 3509 3622 2328 
Q 3622 1225 3098 567 
Q 2575 -91 1691 -91 
Q 1453 -91 1209 -44 
Q 966 3 703 97 
z
M 1959 2075 
Q 2384 2075 2632 2365 
Q 2881 2656 2881 3163 
Q 2881 3666 2632 3958 
Q 2384 4250 1959 4250 
Q 1534 4250 1286 3958 
Q 1038 3666 1038 3163 
Q 1038 2656 1286 2365 
Q 1534 2075 1959 2075 
z
" transform="scale(0.015625)"/>
       </defs>
       <use xlink:href="#DejaVuSans-39"/>
       <use xlink:href="#DejaVuSans-30" x="63.623047"/>
      </g>
     </g>
    </g>
    <g id="text_18">
     <!-- Accuracy -->
     <g transform="translate(31.795312 197.356125) rotate(-90) scale(0.1 -0.1)">
      <defs>
       <path id="DejaVuSans-41" d="M 2188 4044 
L 1331 1722 
L 3047 1722 
L 2188 4044 
z
M 1831 4666 
L 2547 4666 
L 4325 0 
L 3669 0 
L 3244 1197 
L 1141 1197 
L 716 0 
L 50 0 
L 1831 4666 
z
" transform="scale(0.015625)"/>
       <path id="DejaVuSans-75" d="M 544 1381 
L 544 3500 
L 1119 3500 
L 1119 1403 
Q 1119 906 1312 657 
Q 1506 409 1894 409 
Q 2359 409 2629 706 
Q 2900 1003 2900 1516 
L 2900 3500 
L 3475 3500 
L 3475 0 
L 2900 0 
L 2900 538 
Q 2691 219 2414 64 
Q 2138 -91 1772 -91 
Q 1169 -91 856 284 
Q 544 659 544 1381 
z
M 1991 3584 
L 1991 3584 
z
" transform="scale(0.015625)"/>
       <path id="DejaVuSans-72" d="M 2631 2963 
Q 2534 3019 2420 3045 
Q 2306 3072 2169 3072 
Q 1681 3072 1420 2755 
Q 1159 2438 1159 1844 
L 1159 0 
L 581 0 
L 581 3500 
L 1159 3500 
L 1159 2956 
Q 1341 3275 1631 3429 
Q 1922 3584 2338 3584 
Q 2397 3584 2469 3576 
Q 2541 3569 2628 3553 
L 2631 2963 
z
" transform="scale(0.015625)"/>
       <path id="DejaVuSans-61" d="M 2194 1759 
Q 1497 1759 1228 1600 
Q 959 1441 959 1056 
Q 959 750 1161 570 
Q 1363 391 1709 391 
Q 2188 391 2477 730 
Q 2766 1069 2766 1631 
L 2766 1759 
L 2194 1759 
z
M 3341 1997 
L 3341 0 
L 2766 0 
L 2766 531 
Q 2569 213 2275 61 
Q 1981 -91 1556 -91 
Q 1019 -91 701 211 
Q 384 513 384 1019 
Q 384 1609 779 1909 
Q 1175 2209 1959 2209 
L 2766 2209 
L 2766 2266 
Q 2766 2663 2505 2880 
Q 2244 3097 1772 3097 
Q 1472 3097 1187 3025 
Q 903 2953 641 2809 
L 641 3341 
Q 956 3463 1253 3523 
Q 1550 3584 1831 3584 
Q 2591 3584 2966 3190 
Q 3341 2797 3341 1997 
z
" transform="scale(0.015625)"/>
       <path id="DejaVuSans-79" d="M 2059 -325 
Q 1816 -950 1584 -1140 
Q 1353 -1331 966 -1331 
L 506 -1331 
L 506 -850 
L 844 -850 
Q 1081 -850 1212 -737 
Q 1344 -625 1503 -206 
L 1606 56 
L 191 3500 
L 800 3500 
L 1894 763 
L 2988 3500 
L 3597 3500 
L 2059 -325 
z
" transform="scale(0.015625)"/>
      </defs>
      <use xlink:href="#DejaVuSans-41"/>
      <use xlink:href="#DejaVuSans-63" x="66.658203"/>
      <use xlink:href="#DejaVuSans-63" x="121.638672"/>
      <use xlink:href="#DejaVuSans-75" x="176.619141"/>
      <use xlink:href="#DejaVuSans-72" x="239.998047"/>
      <use xlink:href="#DejaVuSans-61" x="281.111328"/>
      <use xlink:href="#DejaVuSans-63" x="342.390625"/>
      <use xlink:href="#DejaVuSans-79" x="397.371094"/>
     </g>
    </g>
   </g>
   <g id="line2d_17">
    <path d="M 73.832727 295.488 
L 74.918528 228.954947 
L 76.00433 203.675621 
L 77.090131 185.761011 
L 78.175932 172.777768 
L 79.261733 162.203621 
L 80.347534 155.784758 
L 81.433335 148.015832 
L 82.519137 142.267958 
L 83.604938 138.023747 
L 84.690739 133.205558 
L 86.862341 125.250695 
L 87.948142 120.666947 
L 90.119745 113.132463 
L 91.205546 111.725811 
L 94.462949 106.236632 
L 95.54875 136.140126 
L 96.634552 134.959832 
L 97.720353 132.833684 
L 98.806154 129.438316 
L 99.891955 127.740632 
L 100.977756 125.016253 
L 102.063557 123.496421 
L 103.149358 122.558653 
L 104.23516 119.834274 
L 105.320961 117.481768 
L 106.406762 116.560168 
L 107.492563 113.876211 
L 108.578364 113.1648 
L 109.664165 111.216505 
L 110.749967 110.488926 
L 111.835768 108.823579 
L 112.921569 107.707958 
L 114.00737 105.581811 
L 117.264773 101.167832 
L 118.350575 100.593853 
L 119.436376 98.88 
L 120.522177 96.325389 
L 121.607978 95.5008 
L 122.693779 93.819284 
L 123.77958 93.326147 
L 124.865382 92.202442 
L 125.951183 91.757811 
L 127.036984 87.756126 
L 128.122785 87.303411 
L 129.208586 86.406063 
L 130.294387 85.759326 
L 131.380189 84.118232 
L 132.46599 83.034947 
L 133.551791 82.161853 
L 134.637592 82.024421 
L 135.723393 81.765726 
L 136.809194 81.935495 
L 137.894995 81.183663 
L 138.980797 109.049937 
L 140.066598 110.205979 
L 141.152399 109.486484 
L 142.2382 109.696674 
L 143.324001 107.9424 
L 144.409802 107.724126 
L 145.495604 107.683705 
L 146.581405 105.986021 
L 147.667206 105.072505 
L 148.753007 104.490442 
L 149.838808 103.568842 
L 150.924609 103.3344 
L 152.01041 103.593095 
L 153.096212 101.628632 
L 154.182013 101.531621 
L 155.267814 101.022316 
L 156.353615 100.682779 
L 157.439416 99.526737 
L 158.525217 98.758737 
L 159.611019 98.718316 
L 160.69682 97.077221 
L 162.868422 97.780547 
L 163.954223 96.778105 
L 167.211627 94.466021 
L 168.297428 93.487832 
L 169.383229 93.204884 
L 170.46903 92.097347 
L 171.554831 92.566232 
L 173.726434 91.005979 
L 174.812235 91.094905 
L 176.983837 89.631663 
L 178.069638 88.976842 
L 179.155439 87.440842 
L 181.327042 87.9744 
L 182.412843 86.357558 
L 183.498644 85.807832 
L 184.584445 84.950905 
L 185.670246 83.940379 
L 186.756047 83.544253 
L 187.841849 83.956547 
L 188.92765 82.606484 
L 190.013451 81.507032 
L 191.099252 81.870821 
L 192.185053 81.191747 
L 194.356656 79.413221 
L 195.442457 78.693726 
L 196.528258 78.435032 
L 197.614059 77.780211 
L 198.69986 77.497263 
L 200.871462 76.034021 
L 201.957264 75.047747 
L 203.043065 76.195705 
L 204.128866 74.619284 
L 205.214667 74.441432 
L 206.300468 72.897347 
L 207.386269 73.333895 
L 208.472071 72.662905 
L 209.557872 72.234442 
L 210.643673 72.105095 
L 211.729474 72.355705 
L 212.815275 70.892463 
L 213.901076 70.585263 
L 216.072679 70.399326 
L 217.15848 69.825347 
L 218.244281 69.906189 
L 219.330082 70.633768 
L 220.415883 69.696 
L 221.501684 69.227116 
L 222.587486 69.631326 
L 224.759088 69.598989 
L 225.844889 95.646316 
L 226.93069 98.160505 
L 228.016491 98.685979 
L 229.102292 99.470147 
L 230.188094 98.297937 
L 231.273895 97.505684 
L 232.359696 97.166147 
L 233.445497 96.155621 
L 234.531298 95.492716 
L 235.617099 95.953516 
L 236.702901 94.684295 
L 237.788702 94.514526 
L 238.874503 95.161263 
L 239.960304 94.983411 
L 241.046105 93.592926 
L 243.217708 93.3504 
L 244.303509 93.698021 
L 245.38931 92.291368 
L 246.475111 93.075537 
L 247.560912 91.523368 
L 248.646713 91.830568 
L 249.732514 92.016505 
L 250.818316 91.919495 
L 251.904117 90.100547 
L 252.989918 91.224253 
L 254.075719 90.181389 
L 255.16152 90.432 
L 256.247321 89.8176 
L 257.333123 89.3568 
L 258.418924 89.882274 
L 259.504725 89.009179 
L 261.676327 90.189474 
L 262.762128 89.534653 
L 263.847929 88.596884 
L 264.933731 88.920253 
L 266.019532 89.057684 
L 267.105333 87.675284 
L 268.191134 87.610611 
L 269.276935 88.507958 
L 270.362736 87.457011 
L 271.448538 87.651032 
L 272.534339 87.473179 
L 273.62014 86.883032 
L 274.705941 87.351916 
L 275.791742 85.541053 
L 276.877543 85.710821 
L 277.963344 86.106947 
L 279.049146 85.452126 
L 280.134947 85.807832 
L 281.220748 85.638063 
L 282.306549 84.958989 
L 283.39235 85.597642 
L 284.478151 84.498189 
L 285.563953 85.314695 
L 287.735555 83.948463 
L 288.821356 83.8272 
L 289.907157 83.495747 
L 290.992958 83.859537 
L 292.07876 83.625095 
L 293.164561 82.436716 
L 294.250362 82.517558 
L 295.336163 82.380126 
L 296.421964 82.768168 
L 297.507765 81.935495 
L 299.679368 80.706695 
L 300.765169 80.585432 
L 301.85097 80.868379 
L 302.936771 81.030063 
L 304.022572 80.415663 
L 305.108373 80.383326 
L 306.194175 79.639579 
L 307.279976 80.181221 
L 308.365777 80.375242 
L 309.451578 78.912 
L 310.537379 79.688084 
L 311.62318 79.291958 
L 312.708981 78.200589 
L 313.794783 78.176337 
L 314.880584 77.537684 
L 315.966385 78.289516 
L 317.052186 77.941895 
L 318.137987 77.974232 
L 319.223788 76.931368 
L 320.30959 76.114863 
L 321.395391 76.680758 
L 322.481192 75.751074 
L 323.566993 76.397811 
L 325.738595 75.5328 
L 326.824396 75.298358 
L 327.910198 75.548968 
L 330.0818 74.465684 
L 332.253402 74.231242 
L 333.339203 74.085726 
L 334.425005 73.487495 
L 335.510806 73.083284 
L 336.596607 73.988716 
L 337.682408 72.630568 
L 338.768209 71.628126 
L 339.85401 71.240084 
L 340.939811 72.194021 
L 342.025613 72.323368 
L 343.111414 70.965221 
L 345.283016 70.746947 
L 346.368817 70.229558 
L 347.454618 70.019368 
L 349.626221 69.404968 
L 350.712022 69.186695 
L 351.797823 69.243284 
L 352.883624 68.911832 
L 353.969425 68.143832 
L 355.055227 68.572295 
L 357.226829 68.135747 
L 358.31263 68.014484 
L 359.398431 67.626442 
L 360.484232 67.658779 
L 363.741636 66.494653 
L 364.827437 66.575495 
L 365.913238 66.858442 
L 366.999039 64.958653 
L 368.08484 66.0096 
L 369.170642 67.230316 
L 370.256443 68.240842 
L 371.342244 68.022568 
L 372.428045 68.879495 
L 373.513846 68.475284 
L 374.599647 69.413053 
L 375.685448 69.510063 
L 376.77125 69.493895 
L 377.857051 69.598989 
L 380.028653 69.2352 
L 381.114454 69.283705 
L 382.200255 69.825347 
L 383.286057 69.000758 
L 384.371858 69.526232 
L 385.457659 69.801095 
L 386.54346 69.801095 
L 387.629261 69.202863 
L 388.715062 69.493895 
L 389.800863 69.534316 
L 390.886665 69.3888 
L 391.972466 69.995116 
L 393.058267 69.332211 
L 395.229869 69.477726 
L 396.31567 69.631326 
L 397.401472 69.922358 
L 398.487273 69.461558 
L 398.487273 69.461558 
" clip-path="url(#p5c1a267c05)" style="fill: none; stroke: #1f77b4; stroke-width: 1.5; stroke-linecap: square"/>
   </g>
   <g id="line2d_18">
    <path d="M 73.832727 249.529263 
L 74.918528 177.943579 
L 76.00433 173.416421 
L 77.090131 148.759579 
L 78.175932 131.701895 
L 79.261733 133.237895 
L 80.347534 118.928842 
L 81.433335 106.964211 
L 82.519137 100.092632 
L 83.604938 103.770947 
L 84.690739 94.110316 
L 85.77654 92.291368 
L 86.862341 90.229895 
L 87.948142 89.946947 
L 89.033943 83.883789 
L 90.119745 82.873263 
L 91.205546 79.68 
L 92.291347 79.518316 
L 93.377148 78.063158 
L 94.462949 77.537684 
L 95.54875 106.277053 
L 96.634552 95.686737 
L 97.720353 101.224421 
L 98.806154 90.310737 
L 99.891955 92.372211 
L 100.977756 87.481263 
L 102.063557 85.945263 
L 103.149358 86.389895 
L 104.23516 86.349474 
L 105.320961 93.706105 
L 106.406762 86.592 
L 107.492563 84.005053 
L 108.578364 76.648421 
L 109.664165 76.648421 
L 110.749967 81.660632 
L 111.835768 80.933053 
L 112.921569 75.799579 
L 114.00737 76.486737 
L 115.093171 74.546526 
L 116.178972 73.212632 
L 117.264773 73.697684 
L 118.350575 67.351579 
L 119.436376 69.736421 
L 120.522177 69.413053 
L 121.607978 69.453474 
L 122.693779 66.138947 
L 123.77958 67.432421 
L 124.865382 65.977263 
L 125.951183 67.311158 
L 127.036984 65.936842 
L 128.122785 64.198737 
L 129.208586 64.239158 
L 130.294387 64.158316 
L 131.380189 64.32 
L 132.46599 62.622316 
L 133.551791 62.460632 
L 134.637592 62.703158 
L 135.723393 61.813895 
L 136.809194 62.662737 
L 137.894995 61.975579 
L 138.980797 80.609684 
L 140.066598 78.265263 
L 141.152399 80.933053 
L 142.2382 79.073684 
L 143.324001 76.931368 
L 144.409802 74.101895 
L 145.495604 79.437474 
L 146.581405 75.233684 
L 147.667206 73.859368 
L 148.753007 76.082526 
L 149.838808 76.405895 
L 150.924609 73.333895 
L 152.01041 72.848842 
L 153.096212 74.506105 
L 154.182013 70.221474 
L 155.267814 72.606316 
L 156.353615 72.970105 
L 157.439416 70.989474 
L 158.525217 70.464 
L 159.611019 71.636211 
L 160.69682 73.576421 
L 161.782621 69.736421 
L 162.868422 67.634526 
L 163.954223 69.251368 
L 165.040024 66.421895 
L 166.125825 65.815579 
L 167.211627 67.957895 
L 168.297428 65.290105 
L 169.383229 67.432421 
L 170.46903 68.645053 
L 171.554831 66.179368 
L 172.640632 70.221474 
L 173.726434 66.987789 
L 174.812235 68.240842 
L 175.898036 65.653895 
L 176.983837 68.119579 
L 178.069638 65.977263 
L 179.155439 66.017684 
L 180.24124 67.189895 
L 181.327042 69.089684 
L 182.412843 63.552 
L 183.498644 63.390316 
L 184.584445 64.198737 
L 185.670246 64.562526 
L 186.756047 63.147789 
L 187.841849 63.188211 
L 188.92765 61.571368 
L 190.013451 62.298947 
L 191.099252 61.733053 
L 192.185053 61.813895 
L 193.270854 62.501053 
L 194.356656 63.794526 
L 195.442457 60.358737 
L 196.528258 60.277895 
L 197.614059 59.873684 
L 198.69986 60.682105 
L 199.785661 59.671579 
L 200.871462 59.105684 
L 201.957264 60.075789 
L 203.043065 58.176 
L 204.128866 58.944 
L 205.214667 59.186526 
L 206.300468 57.529263 
L 207.386269 58.499368 
L 208.472071 57.771789 
L 209.557872 58.701474 
L 210.643673 57.084632 
L 211.729474 56.842105 
L 212.815275 57.044211 
L 213.901076 56.761263 
L 214.986877 56.235789 
L 216.072679 57.165474 
L 217.15848 57.529263 
L 218.244281 56.761263 
L 219.330082 56.801684 
L 220.415883 56.235789 
L 221.501684 56.680421 
L 222.587486 56.357053 
L 223.673287 56.64 
L 224.759088 56.316632 
L 225.844889 74.263579 
L 226.93069 73.697684 
L 228.016491 71.110737 
L 229.102292 78.467368 
L 230.188094 72.323368 
L 231.273895 73.536 
L 232.359696 68.806737 
L 233.445497 70.787368 
L 234.531298 70.464 
L 235.617099 73.495579 
L 236.702901 72 
L 237.788702 69.453474 
L 238.874503 71.272421 
L 239.960304 68.564211 
L 241.046105 69.817263 
L 243.217708 68.766316 
L 244.303509 69.776842 
L 245.38931 66.664421 
L 246.475111 69.210947 
L 247.560912 67.594105 
L 248.646713 68.16 
L 249.732514 69.291789 
L 250.818316 66.785684 
L 251.904117 67.917474 
L 252.989918 66.906947 
L 255.16152 66.906947 
L 256.247321 64.360421 
L 257.333123 69.291789 
L 258.418924 65.896421 
L 259.504725 66.583579 
L 260.590526 65.936842 
L 261.676327 67.877053 
L 262.762128 63.956211 
L 263.847929 66.947368 
L 264.933731 65.370947 
L 266.019532 65.694316 
L 267.105333 65.896421 
L 268.191134 66.785684 
L 269.276935 65.088 
L 270.362736 68.402526 
L 271.448538 64.158316 
L 272.534339 67.149474 
L 273.62014 65.532632 
L 274.705941 65.249684 
L 275.791742 66.664421 
L 276.877543 62.743579 
L 277.963344 69.938526 
L 279.049146 63.228632 
L 280.134947 63.026526 
L 281.220748 64.845474 
L 282.306549 65.088 
L 283.39235 66.664421 
L 284.478151 66.300632 
L 285.563953 67.109053 
L 286.649754 63.552 
L 287.735555 62.784 
L 288.821356 62.218105 
L 289.907157 62.298947 
L 290.992958 62.218105 
L 292.07876 63.713684 
L 293.164561 62.905263 
L 294.250362 62.945684 
L 295.336163 63.107368 
L 296.421964 63.834947 
L 297.507765 62.016 
L 298.593566 62.177684 
L 299.679368 61.045895 
L 300.765169 61.935158 
L 301.85097 63.026526 
L 302.936771 61.288421 
L 304.022572 60.682105 
L 305.108373 62.339368 
L 306.194175 62.056421 
L 307.279976 61.288421 
L 308.365777 64.400842 
L 309.451578 66.017684 
L 310.537379 60.439579 
L 311.62318 61.773474 
L 312.708981 63.956211 
L 313.794783 59.954526 
L 314.880584 60.116211 
L 315.966385 61.207579 
L 317.052186 59.469474 
L 318.137987 60.762947 
L 319.223788 58.378105 
L 320.30959 61.530947 
L 321.395391 58.054737 
L 322.481192 60.237474 
L 323.566993 57.852632 
L 324.652794 57.690947 
L 325.738595 61.369263 
L 326.824396 59.226947 
L 327.910198 59.267368 
L 328.995999 59.631158 
L 330.0818 58.782316 
L 331.167601 58.661053 
L 332.253402 57.731368 
L 333.339203 57.529263 
L 334.425005 58.176 
L 335.510806 58.297263 
L 336.596607 57.973895 
L 337.682408 55.872 
L 338.768209 57.812211 
L 339.85401 57.003789 
L 340.939811 56.033684 
L 342.025613 59.509895 
L 343.111414 55.872 
L 344.197215 57.488842 
L 345.283016 56.720842 
L 346.368817 57.933474 
L 347.454618 56.882526 
L 348.54042 56.357053 
L 349.626221 56.357053 
L 350.712022 55.993263 
L 351.797823 54.821053 
L 352.883624 55.467789 
L 353.969425 55.548632 
L 355.055227 55.993263 
L 356.141028 55.993263 
L 357.226829 55.831579 
L 358.31263 55.427368 
L 359.398431 56.154947 
L 360.484232 55.629474 
L 361.570033 54.740211 
L 362.655835 55.386947 
L 363.741636 55.548632 
L 364.827437 54.416842 
L 365.913238 55.306105 
L 366.999039 54.618947 
L 368.08484 55.952842 
L 369.170642 55.589053 
L 370.256443 55.872 
L 371.342244 55.225263 
L 372.428045 56.842105 
L 373.513846 55.184842 
L 374.599647 56.154947 
L 375.685448 56.64 
L 376.77125 56.720842 
L 377.857051 56.033684 
L 378.942852 55.872 
L 380.028653 56.559158 
L 381.114454 55.386947 
L 382.200255 57.448421 
L 383.286057 56.882526 
L 384.371858 57.205895 
L 385.457659 55.993263 
L 386.54346 55.912421 
L 387.629261 56.195368 
L 388.715062 55.669895 
L 389.800863 57.731368 
L 390.886665 58.984421 
L 391.972466 58.054737 
L 393.058267 56.316632 
L 394.144068 56.357053 
L 395.229869 56.154947 
L 396.31567 56.276211 
L 397.401472 56.235789 
L 398.487273 55.952842 
L 398.487273 55.952842 
" clip-path="url(#p5c1a267c05)" style="fill: none; stroke: #ff7f0e; stroke-width: 1.5; stroke-linecap: square"/>
   </g>
   <g id="line2d_19">
    <path d="M 73.832727 279.028269 
L 74.918528 239.108995 
L 76.00433 238.662969 
L 77.090131 232.000465 
L 78.175932 195.008232 
L 79.261733 209.504058 
L 80.347534 190.798868 
L 81.433335 187.704566 
L 82.519137 177.278722 
L 83.604938 192.387833 
L 84.690739 179.871245 
L 85.77654 171.759158 
L 86.862341 176.80482 
L 87.948142 163.228922 
L 89.033943 161.556327 
L 90.119745 161.807216 
L 91.205546 154.977452 
L 92.291347 152.273423 
L 93.377148 150.740211 
L 94.462949 148.565837 
L 95.54875 187.927579 
L 96.634552 168.999376 
L 97.720353 184.415129 
L 99.891955 159.549212 
L 100.977756 176.163659 
L 102.063557 159.855855 
L 103.149358 166.044457 
L 104.23516 159.103187 
L 105.320961 172.205183 
L 106.406762 158.545655 
L 107.492563 162.922279 
L 108.578364 152.719448 
L 109.664165 152.496436 
L 110.749967 157.765111 
L 111.835768 149.513641 
L 112.921569 142.628123 
L 114.00737 159.409829 
L 115.093171 139.979848 
L 117.264773 146.921118 
L 118.350575 133.428849 
L 119.436376 149.541517 
L 120.522177 134.40453 
L 121.607978 149.485764 
L 122.693779 130.167289 
L 123.77958 140.147107 
L 124.865382 131.979267 
L 125.951183 142.990519 
L 127.036984 132.815564 
L 128.122785 129.83277 
L 129.208586 131.812007 
L 130.294387 128.968595 
L 131.380189 133.902751 
L 132.46599 123.950809 
L 133.551791 129.804893 
L 134.637592 131.533241 
L 135.723393 128.104421 
L 136.809194 129.219485 
L 137.894995 126.403949 
L 138.980797 154.280537 
L 140.066598 146.837488 
L 141.152399 172.010047 
L 142.2382 156.287652 
L 143.324001 154.113278 
L 144.409802 154.58718 
L 145.495604 154.001771 
L 146.581405 156.092515 
L 147.667206 147.450773 
L 148.753007 141.150664 
L 149.838808 167.131644 
L 150.924609 160.329757 
L 152.01041 143.408668 
L 153.096212 157.876617 
L 154.182013 135.129321 
L 155.267814 137.805474 
L 156.353615 132.174403 
L 157.439416 134.766926 
L 158.525217 129.358868 
L 159.611019 151.437125 
L 160.69682 143.492298 
L 161.782621 137.052806 
L 162.868422 139.394439 
L 165.040024 153.527869 
L 166.125825 128.634076 
L 167.211627 134.739049 
L 168.297428 132.425292 
L 169.383229 145.443659 
L 170.46903 141.903332 
L 171.554831 142.154221 
L 172.640632 139.032044 
L 173.726434 125.623405 
L 174.812235 150.935347 
L 175.898036 133.623985 
L 176.983837 143.185655 
L 178.069638 131.812007 
L 179.155439 126.125183 
L 180.24124 131.86776 
L 181.327042 140.788269 
L 182.412843 136.997053 
L 183.498644 128.327434 
L 184.584445 131.087216 
L 185.670246 128.076544 
L 186.756047 136.578904 
L 187.841849 129.972152 
L 188.92765 127.881408 
L 190.013451 124.034439 
L 191.099252 133.400973 
L 192.185053 128.717706 
L 193.270854 128.271681 
L 194.356656 130.418178 
L 195.442457 114.863042 
L 196.528258 120.18747 
L 197.614059 126.515456 
L 198.69986 122.194584 
L 199.785661 119.574185 
L 200.871462 116.479884 
L 201.957264 116.75865 
L 203.043065 118.598505 
L 204.128866 118.013096 
L 205.214667 121.971572 
L 206.300468 111.378468 
L 207.386269 114.723659 
L 208.472071 117.455564 
L 209.557872 115.113931 
L 210.643673 113.831608 
L 211.729474 118.654258 
L 212.815275 114.13825 
L 213.901076 112.883804 
L 214.986877 112.577162 
L 216.072679 111.517851 
L 217.15848 111.908123 
L 218.244281 111.545728 
L 219.330082 114.946672 
L 220.415883 112.409902 
L 221.501684 111.489975 
L 222.587486 114.667906 
L 223.673287 113.831608 
L 224.759088 111.517851 
L 225.844889 143.269285 
L 226.93069 141.51306 
L 228.016491 145.387906 
L 229.102292 146.08482 
L 230.188094 147.116254 
L 231.273895 142.098468 
L 232.359696 134.934185 
L 233.445497 150.656581 
L 234.531298 144.133459 
L 235.617099 141.708196 
L 236.702901 152.161917 
L 237.788702 132.536799 
L 238.874503 139.840465 
L 239.960304 141.847579 
L 241.046105 141.290047 
L 242.131906 142.377234 
L 243.217708 134.766926 
L 244.303509 139.812588 
L 245.38931 134.348777 
L 246.475111 139.171426 
L 247.560912 126.376073 
L 248.646713 139.840465 
L 249.732514 134.655419 
L 250.818316 135.491717 
L 251.904117 123.61629 
L 252.989918 142.711753 
L 254.075719 127.100864 
L 255.16152 129.358868 
L 257.333123 137.526708 
L 258.418924 123.393278 
L 259.504725 132.11865 
L 260.590526 131.812007 
L 261.676327 129.944276 
L 262.762128 124.257452 
L 263.847929 133.568232 
L 264.933731 135.658976 
L 266.019532 126.989358 
L 267.105333 128.6062 
L 268.191134 136.69041 
L 269.276935 133.122207 
L 270.362736 122.47335 
L 271.448538 126.654838 
L 272.534339 140.621009 
L 273.62014 133.289466 
L 274.705941 134.014258 
L 275.791742 128.550446 
L 276.877543 126.794221 
L 277.963344 134.348777 
L 279.049146 130.947833 
L 280.134947 129.275238 
L 281.220748 118.542751 
L 282.306549 126.794221 
L 283.39235 124.285328 
L 284.478151 139.05992 
L 285.563953 128.689829 
L 286.649754 117.121045 
L 287.735555 125.121626 
L 288.821356 117.093169 
L 290.992958 121.581299 
L 292.07876 128.076544 
L 293.164561 127.853532 
L 294.250362 120.661372 
L 295.336163 114.695782 
L 296.421964 127.407506 
L 297.507765 124.75923 
L 298.593566 125.065873 
L 299.679368 118.710011 
L 300.765169 124.006563 
L 301.85097 128.160174 
L 302.936771 127.797779 
L 304.022572 119.183913 
L 305.108373 120.633495 
L 306.194175 130.585437 
L 307.279976 116.117488 
L 308.365777 128.188051 
L 309.451578 123.895056 
L 310.537379 126.933604 
L 311.62318 110.79306 
L 312.708981 118.9609 
L 313.794783 114.612152 
L 314.880584 123.895056 
L 315.966385 121.999448 
L 317.052186 122.47335 
L 318.137987 126.571209 
L 319.223788 115.281191 
L 320.30959 121.664929 
L 321.395391 111.712987 
L 322.481192 133.17796 
L 323.566993 111.517851 
L 324.652794 112.772298 
L 325.738595 116.75865 
L 326.824396 117.957343 
L 327.910198 126.06943 
L 328.995999 118.821517 
L 330.0818 118.040973 
L 331.167601 118.319739 
L 332.253402 108.395673 
L 333.339203 104.74384 
L 334.425005 123.281771 
L 335.510806 116.089612 
L 336.596607 110.514294 
L 337.682408 106.946091 
L 338.768209 108.674439 
L 339.85401 111.462098 
L 340.939811 105.831027 
L 342.025613 103.740283 
L 343.111414 110.235528 
L 344.197215 112.688668 
L 345.283016 109.677996 
L 346.368817 111.796617 
L 347.454618 110.374911 
L 348.54042 115.810846 
L 349.626221 105.524385 
L 350.712022 113.943114 
L 351.797823 110.820936 
L 352.883624 104.409321 
L 353.969425 108.116907 
L 355.055227 105.691644 
L 356.141028 103.656653 
L 357.226829 108.702316 
L 358.31263 114.918795 
L 359.398431 110.904566 
L 360.484232 103.015492 
L 361.570033 107.11335 
L 362.655835 104.99473 
L 363.741636 106.973967 
L 364.827437 106.862461 
L 365.913238 104.715964 
L 366.999039 106.723078 
L 368.08484 105.273495 
L 369.170642 109.48286 
L 370.256443 113.023187 
L 371.342244 105.998287 
L 372.428045 109.705873 
L 373.513846 105.385002 
L 374.599647 111.322715 
L 375.685448 112.437779 
L 376.77125 116.67502 
L 377.857051 112.465655 
L 378.942852 113.134693 
L 380.028653 118.096726 
L 381.114454 113.720102 
L 382.200255 117.316181 
L 383.286057 113.664348 
L 384.371858 114.918795 
L 385.457659 111.657234 
L 386.54346 118.542751 
L 387.629261 109.622243 
L 388.715062 117.037416 
L 389.800863 113.274076 
L 390.886665 119.211789 
L 391.972466 111.657234 
L 393.058267 110.514294 
L 394.144068 107.754512 
L 395.229869 107.866018 
L 396.31567 107.19698 
L 397.401472 108.897452 
L 398.487273 110.263405 
L 398.487273 110.263405 
" clip-path="url(#p5c1a267c05)" style="fill: none; stroke: #2ca02c; stroke-width: 1.5; stroke-linecap: square"/>
   </g>
   <g id="line2d_20">
    <path d="M 368.08484 54.618947 
L 369.170642 55.669895 
L 370.256443 54.538105 
L 371.342244 53.568 
L 372.428045 54.780632 
L 373.513846 55.427368 
L 374.599647 54.821053 
L 375.685448 53.972211 
L 376.77125 54.093474 
L 377.857051 55.386947 
L 378.942852 54.861474 
L 380.028653 53.972211 
L 381.114454 54.538105 
L 382.200255 54.255158 
L 383.286057 54.578526 
L 384.371858 54.336 
L 387.629261 54.053053 
L 388.715062 54.376421 
L 389.800863 53.689263 
L 390.886665 53.931789 
L 391.972466 55.306105 
L 393.058267 54.861474 
L 394.144068 53.810526 
L 395.229869 55.427368 
L 396.31567 55.346526 
L 397.401472 55.912421 
L 398.487273 55.104 
L 398.487273 55.104 
" clip-path="url(#p5c1a267c05)" style="fill: none; stroke: #d62728; stroke-width: 1.5; stroke-linecap: square"/>
   </g>
   <g id="line2d_21">
    <path d="M 368.08484 103.991172 
L 369.170642 108.144784 
L 370.256443 105.468632 
L 371.342244 99.11277 
L 372.428045 108.618686 
L 373.513846 103.377887 
L 374.599647 101.593786 
L 375.685448 108.869575 
L 376.77125 106.500065 
L 377.857051 109.901009 
L 378.942852 107.977525 
L 380.028653 95.237924 
L 381.114454 95.739702 
L 382.200255 96.046345 
L 383.286057 109.454984 
L 384.371858 109.761626 
L 385.457659 104.242062 
L 386.54346 103.823913 
L 387.629261 108.451426 
L 388.715062 108.200537 
L 389.800863 104.102679 
L 390.886665 103.6009 
L 391.972466 111.183332 
L 393.058267 102.876109 
L 394.144068 104.158432 
L 395.229869 105.775274 
L 396.31567 111.043949 
L 397.401472 115.281191 
L 398.487273 102.987615 
L 398.487273 102.987615 
" clip-path="url(#p5c1a267c05)" style="fill: none; stroke: #9467bd; stroke-width: 1.5; stroke-linecap: square"/>
   </g>
   <g id="patch_3">
    <path d="M 57.6 307.584 
L 57.6 41.472 
" style="fill: none; stroke: #000000; stroke-width: 0.8; stroke-linejoin: miter; stroke-linecap: square"/>
   </g>
   <g id="patch_4">
    <path d="M 414.72 307.584 
L 414.72 41.472 
" style="fill: none; stroke: #000000; stroke-width: 0.8; stroke-linejoin: miter; stroke-linecap: square"/>
   </g>
   <g id="patch_5">
    <path d="M 57.6 307.584 
L 414.72 307.584 
" style="fill: none; stroke: #000000; stroke-width: 0.8; stroke-linejoin: miter; stroke-linecap: square"/>
   </g>
   <g id="patch_6">
    <path d="M 57.6 41.472 
L 414.72 41.472 
" style="fill: none; stroke: #000000; stroke-width: 0.8; stroke-linejoin: miter; stroke-linecap: square"/>
   </g>
   <g id="text_19">
    <!-- Learning Curves -->
    <g transform="translate(187.37625 35.472) scale(0.12 -0.12)">
     <defs>
      <path id="DejaVuSans-4c" d="M 628 4666 
L 1259 4666 
L 1259 531 
L 3531 531 
L 3531 0 
L 628 0 
L 628 4666 
z
" transform="scale(0.015625)"/>
      <path id="DejaVuSans-65" d="M 3597 1894 
L 3597 1613 
L 953 1613 
Q 991 1019 1311 708 
Q 1631 397 2203 397 
Q 2534 397 2845 478 
Q 3156 559 3463 722 
L 3463 178 
Q 3153 47 2828 -22 
Q 2503 -91 2169 -91 
Q 1331 -91 842 396 
Q 353 884 353 1716 
Q 353 2575 817 3079 
Q 1281 3584 2069 3584 
Q 2775 3584 3186 3129 
Q 3597 2675 3597 1894 
z
M 3022 2063 
Q 3016 2534 2758 2815 
Q 2500 3097 2075 3097 
Q 1594 3097 1305 2825 
Q 1016 2553 972 2059 
L 3022 2063 
z
" transform="scale(0.015625)"/>
      <path id="DejaVuSans-6e" d="M 3513 2113 
L 3513 0 
L 2938 0 
L 2938 2094 
Q 2938 2591 2744 2837 
Q 2550 3084 2163 3084 
Q 1697 3084 1428 2787 
Q 1159 2491 1159 1978 
L 1159 0 
L 581 0 
L 581 3500 
L 1159 3500 
L 1159 2956 
Q 1366 3272 1645 3428 
Q 1925 3584 2291 3584 
Q 2894 3584 3203 3211 
Q 3513 2838 3513 2113 
z
" transform="scale(0.015625)"/>
      <path id="DejaVuSans-69" d="M 603 3500 
L 1178 3500 
L 1178 0 
L 603 0 
L 603 3500 
z
M 603 4863 
L 1178 4863 
L 1178 4134 
L 603 4134 
L 603 4863 
z
" transform="scale(0.015625)"/>
      <path id="DejaVuSans-67" d="M 2906 1791 
Q 2906 2416 2648 2759 
Q 2391 3103 1925 3103 
Q 1463 3103 1205 2759 
Q 947 2416 947 1791 
Q 947 1169 1205 825 
Q 1463 481 1925 481 
Q 2391 481 2648 825 
Q 2906 1169 2906 1791 
z
M 3481 434 
Q 3481 -459 3084 -895 
Q 2688 -1331 1869 -1331 
Q 1566 -1331 1297 -1286 
Q 1028 -1241 775 -1147 
L 775 -588 
Q 1028 -725 1275 -790 
Q 1522 -856 1778 -856 
Q 2344 -856 2625 -561 
Q 2906 -266 2906 331 
L 2906 616 
Q 2728 306 2450 153 
Q 2172 0 1784 0 
Q 1141 0 747 490 
Q 353 981 353 1791 
Q 353 2603 747 3093 
Q 1141 3584 1784 3584 
Q 2172 3584 2450 3431 
Q 2728 3278 2906 2969 
L 2906 3500 
L 3481 3500 
L 3481 434 
z
" transform="scale(0.015625)"/>
      <path id="DejaVuSans-20" transform="scale(0.015625)"/>
      <path id="DejaVuSans-43" d="M 4122 4306 
L 4122 3641 
Q 3803 3938 3442 4084 
Q 3081 4231 2675 4231 
Q 1875 4231 1450 3742 
Q 1025 3253 1025 2328 
Q 1025 1406 1450 917 
Q 1875 428 2675 428 
Q 3081 428 3442 575 
Q 3803 722 4122 1019 
L 4122 359 
Q 3791 134 3420 21 
Q 3050 -91 2638 -91 
Q 1578 -91 968 557 
Q 359 1206 359 2328 
Q 359 3453 968 4101 
Q 1578 4750 2638 4750 
Q 3056 4750 3426 4639 
Q 3797 4528 4122 4306 
z
" transform="scale(0.015625)"/>
      <path id="DejaVuSans-76" d="M 191 3500 
L 800 3500 
L 1894 563 
L 2988 3500 
L 3597 3500 
L 2284 0 
L 1503 0 
L 191 3500 
z
" transform="scale(0.015625)"/>
     </defs>
     <use xlink:href="#DejaVuSans-4c"/>
     <use xlink:href="#DejaVuSans-65" x="53.962891"/>
     <use xlink:href="#DejaVuSans-61" x="115.486328"/>
     <use xlink:href="#DejaVuSans-72" x="176.765625"/>
     <use xlink:href="#DejaVuSans-6e" x="216.128906"/>
     <use xlink:href="#DejaVuSans-69" x="279.507812"/>
     <use xlink:href="#DejaVuSans-6e" x="307.291016"/>
     <use xlink:href="#DejaVuSans-67" x="370.669922"/>
     <use xlink:href="#DejaVuSans-20" x="434.146484"/>
     <use xlink:href="#DejaVuSans-43" x="465.933594"/>
     <use xlink:href="#DejaVuSans-75" x="535.757812"/>
     <use xlink:href="#DejaVuSans-72" x="599.136719"/>
     <use xlink:href="#DejaVuSans-76" x="640.25"/>
     <use xlink:href="#DejaVuSans-65" x="699.429688"/>
     <use xlink:href="#DejaVuSans-73" x="760.953125"/>
    </g>
   </g>
   <g id="legend_1">
    <g id="patch_7">
     <path d="M 214.18875 302.584 
L 407.72 302.584 
Q 409.72 302.584 409.72 300.584 
L 409.72 228.193375 
Q 409.72 226.193375 407.72 226.193375 
L 214.18875 226.193375 
Q 212.18875 226.193375 212.18875 228.193375 
L 212.18875 300.584 
Q 212.18875 302.584 214.18875 302.584 
z
" style="fill: #ffffff; opacity: 0.8; stroke: #cccccc; stroke-linejoin: miter"/>
    </g>
    <g id="line2d_22">
     <path d="M 216.18875 234.291812 
L 226.18875 234.291812 
L 236.18875 234.291812 
" style="fill: none; stroke: #1f77b4; stroke-width: 1.5; stroke-linecap: square"/>
    </g>
    <g id="text_20">
     <!-- Train Accuracy -->
     <g transform="translate(244.18875 237.791812) scale(0.1 -0.1)">
      <defs>
       <path id="DejaVuSans-54" d="M -19 4666 
L 3928 4666 
L 3928 4134 
L 2272 4134 
L 2272 0 
L 1638 0 
L 1638 4134 
L -19 4134 
L -19 4666 
z
" transform="scale(0.015625)"/>
      </defs>
      <use xlink:href="#DejaVuSans-54"/>
      <use xlink:href="#DejaVuSans-72" x="46.333984"/>
      <use xlink:href="#DejaVuSans-61" x="87.447266"/>
      <use xlink:href="#DejaVuSans-69" x="148.726562"/>
      <use xlink:href="#DejaVuSans-6e" x="176.509766"/>
      <use xlink:href="#DejaVuSans-20" x="239.888672"/>
      <use xlink:href="#DejaVuSans-41" x="271.675781"/>
      <use xlink:href="#DejaVuSans-63" x="338.333984"/>
      <use xlink:href="#DejaVuSans-63" x="393.314453"/>
      <use xlink:href="#DejaVuSans-75" x="448.294922"/>
      <use xlink:href="#DejaVuSans-72" x="511.673828"/>
      <use xlink:href="#DejaVuSans-61" x="552.787109"/>
      <use xlink:href="#DejaVuSans-63" x="614.066406"/>
      <use xlink:href="#DejaVuSans-79" x="669.046875"/>
     </g>
    </g>
    <g id="line2d_23">
     <path d="M 216.18875 248.969937 
L 226.18875 248.969937 
L 236.18875 248.969937 
" style="fill: none; stroke: #ff7f0e; stroke-width: 1.5; stroke-linecap: square"/>
    </g>
    <g id="text_21">
     <!-- Validation Accuracy -->
     <g transform="translate(244.18875 252.469937) scale(0.1 -0.1)">
      <defs>
       <path id="DejaVuSans-56" d="M 1831 0 
L 50 4666 
L 709 4666 
L 2188 738 
L 3669 4666 
L 4325 4666 
L 2547 0 
L 1831 0 
z
" transform="scale(0.015625)"/>
       <path id="DejaVuSans-6c" d="M 603 4863 
L 1178 4863 
L 1178 0 
L 603 0 
L 603 4863 
z
" transform="scale(0.015625)"/>
       <path id="DejaVuSans-64" d="M 2906 2969 
L 2906 4863 
L 3481 4863 
L 3481 0 
L 2906 0 
L 2906 525 
Q 2725 213 2448 61 
Q 2172 -91 1784 -91 
Q 1150 -91 751 415 
Q 353 922 353 1747 
Q 353 2572 751 3078 
Q 1150 3584 1784 3584 
Q 2172 3584 2448 3432 
Q 2725 3281 2906 2969 
z
M 947 1747 
Q 947 1113 1208 752 
Q 1469 391 1925 391 
Q 2381 391 2643 752 
Q 2906 1113 2906 1747 
Q 2906 2381 2643 2742 
Q 2381 3103 1925 3103 
Q 1469 3103 1208 2742 
Q 947 2381 947 1747 
z
" transform="scale(0.015625)"/>
       <path id="DejaVuSans-74" d="M 1172 4494 
L 1172 3500 
L 2356 3500 
L 2356 3053 
L 1172 3053 
L 1172 1153 
Q 1172 725 1289 603 
Q 1406 481 1766 481 
L 2356 481 
L 2356 0 
L 1766 0 
Q 1100 0 847 248 
Q 594 497 594 1153 
L 594 3053 
L 172 3053 
L 172 3500 
L 594 3500 
L 594 4494 
L 1172 4494 
z
" transform="scale(0.015625)"/>
      </defs>
      <use xlink:href="#DejaVuSans-56"/>
      <use xlink:href="#DejaVuSans-61" x="60.658203"/>
      <use xlink:href="#DejaVuSans-6c" x="121.9375"/>
      <use xlink:href="#DejaVuSans-69" x="149.720703"/>
      <use xlink:href="#DejaVuSans-64" x="177.503906"/>
      <use xlink:href="#DejaVuSans-61" x="240.980469"/>
      <use xlink:href="#DejaVuSans-74" x="302.259766"/>
      <use xlink:href="#DejaVuSans-69" x="341.46875"/>
      <use xlink:href="#DejaVuSans-6f" x="369.251953"/>
      <use xlink:href="#DejaVuSans-6e" x="430.433594"/>
      <use xlink:href="#DejaVuSans-20" x="493.8125"/>
      <use xlink:href="#DejaVuSans-41" x="525.599609"/>
      <use xlink:href="#DejaVuSans-63" x="592.257812"/>
      <use xlink:href="#DejaVuSans-63" x="647.238281"/>
      <use xlink:href="#DejaVuSans-75" x="702.21875"/>
      <use xlink:href="#DejaVuSans-72" x="765.597656"/>
      <use xlink:href="#DejaVuSans-61" x="806.710938"/>
      <use xlink:href="#DejaVuSans-63" x="867.990234"/>
      <use xlink:href="#DejaVuSans-79" x="922.970703"/>
     </g>
    </g>
    <g id="line2d_24">
     <path d="M 216.18875 263.648062 
L 226.18875 263.648062 
L 236.18875 263.648062 
" style="fill: none; stroke: #2ca02c; stroke-width: 1.5; stroke-linecap: square"/>
    </g>
    <g id="text_22">
     <!-- Robust Validation Accuracy -->
     <g transform="translate(244.18875 267.148062) scale(0.1 -0.1)">
      <defs>
       <path id="DejaVuSans-52" d="M 2841 2188 
Q 3044 2119 3236 1894 
Q 3428 1669 3622 1275 
L 4263 0 
L 3584 0 
L 2988 1197 
Q 2756 1666 2539 1819 
Q 2322 1972 1947 1972 
L 1259 1972 
L 1259 0 
L 628 0 
L 628 4666 
L 2053 4666 
Q 2853 4666 3247 4331 
Q 3641 3997 3641 3322 
Q 3641 2881 3436 2590 
Q 3231 2300 2841 2188 
z
M 1259 4147 
L 1259 2491 
L 2053 2491 
Q 2509 2491 2742 2702 
Q 2975 2913 2975 3322 
Q 2975 3731 2742 3939 
Q 2509 4147 2053 4147 
L 1259 4147 
z
" transform="scale(0.015625)"/>
       <path id="DejaVuSans-62" d="M 3116 1747 
Q 3116 2381 2855 2742 
Q 2594 3103 2138 3103 
Q 1681 3103 1420 2742 
Q 1159 2381 1159 1747 
Q 1159 1113 1420 752 
Q 1681 391 2138 391 
Q 2594 391 2855 752 
Q 3116 1113 3116 1747 
z
M 1159 2969 
Q 1341 3281 1617 3432 
Q 1894 3584 2278 3584 
Q 2916 3584 3314 3078 
Q 3713 2572 3713 1747 
Q 3713 922 3314 415 
Q 2916 -91 2278 -91 
Q 1894 -91 1617 61 
Q 1341 213 1159 525 
L 1159 0 
L 581 0 
L 581 4863 
L 1159 4863 
L 1159 2969 
z
" transform="scale(0.015625)"/>
      </defs>
      <use xlink:href="#DejaVuSans-52"/>
      <use xlink:href="#DejaVuSans-6f" x="64.982422"/>
      <use xlink:href="#DejaVuSans-62" x="126.164062"/>
      <use xlink:href="#DejaVuSans-75" x="189.640625"/>
      <use xlink:href="#DejaVuSans-73" x="253.019531"/>
      <use xlink:href="#DejaVuSans-74" x="305.119141"/>
      <use xlink:href="#DejaVuSans-20" x="344.328125"/>
      <use xlink:href="#DejaVuSans-56" x="376.115234"/>
      <use xlink:href="#DejaVuSans-61" x="436.773438"/>
      <use xlink:href="#DejaVuSans-6c" x="498.052734"/>
      <use xlink:href="#DejaVuSans-69" x="525.835938"/>
      <use xlink:href="#DejaVuSans-64" x="553.619141"/>
      <use xlink:href="#DejaVuSans-61" x="617.095703"/>
      <use xlink:href="#DejaVuSans-74" x="678.375"/>
      <use xlink:href="#DejaVuSans-69" x="717.583984"/>
      <use xlink:href="#DejaVuSans-6f" x="745.367188"/>
      <use xlink:href="#DejaVuSans-6e" x="806.548828"/>
      <use xlink:href="#DejaVuSans-20" x="869.927734"/>
      <use xlink:href="#DejaVuSans-41" x="901.714844"/>
      <use xlink:href="#DejaVuSans-63" x="968.373047"/>
      <use xlink:href="#DejaVuSans-63" x="1023.353516"/>
      <use xlink:href="#DejaVuSans-75" x="1078.333984"/>
      <use xlink:href="#DejaVuSans-72" x="1141.712891"/>
      <use xlink:href="#DejaVuSans-61" x="1182.826172"/>
      <use xlink:href="#DejaVuSans-63" x="1244.105469"/>
      <use xlink:href="#DejaVuSans-79" x="1299.085938"/>
     </g>
    </g>
    <g id="line2d_25">
     <path d="M 216.18875 278.326188 
L 226.18875 278.326188 
L 236.18875 278.326188 
" style="fill: none; stroke: #d62728; stroke-width: 1.5; stroke-linecap: square"/>
    </g>
    <g id="text_23">
     <!-- SWA Validation Accuracy -->
     <g transform="translate(244.18875 281.826188) scale(0.1 -0.1)">
      <defs>
       <path id="DejaVuSans-53" d="M 3425 4513 
L 3425 3897 
Q 3066 4069 2747 4153 
Q 2428 4238 2131 4238 
Q 1616 4238 1336 4038 
Q 1056 3838 1056 3469 
Q 1056 3159 1242 3001 
Q 1428 2844 1947 2747 
L 2328 2669 
Q 3034 2534 3370 2195 
Q 3706 1856 3706 1288 
Q 3706 609 3251 259 
Q 2797 -91 1919 -91 
Q 1588 -91 1214 -16 
Q 841 59 441 206 
L 441 856 
Q 825 641 1194 531 
Q 1563 422 1919 422 
Q 2459 422 2753 634 
Q 3047 847 3047 1241 
Q 3047 1584 2836 1778 
Q 2625 1972 2144 2069 
L 1759 2144 
Q 1053 2284 737 2584 
Q 422 2884 422 3419 
Q 422 4038 858 4394 
Q 1294 4750 2059 4750 
Q 2388 4750 2728 4690 
Q 3069 4631 3425 4513 
z
" transform="scale(0.015625)"/>
       <path id="DejaVuSans-57" d="M 213 4666 
L 850 4666 
L 1831 722 
L 2809 4666 
L 3519 4666 
L 4500 722 
L 5478 4666 
L 6119 4666 
L 4947 0 
L 4153 0 
L 3169 4050 
L 2175 0 
L 1381 0 
L 213 4666 
z
" transform="scale(0.015625)"/>
      </defs>
      <use xlink:href="#DejaVuSans-53"/>
      <use xlink:href="#DejaVuSans-57" x="63.476562"/>
      <use xlink:href="#DejaVuSans-41" x="156.853516"/>
      <use xlink:href="#DejaVuSans-20" x="225.261719"/>
      <use xlink:href="#DejaVuSans-56" x="257.048828"/>
      <use xlink:href="#DejaVuSans-61" x="317.707031"/>
      <use xlink:href="#DejaVuSans-6c" x="378.986328"/>
      <use xlink:href="#DejaVuSans-69" x="406.769531"/>
      <use xlink:href="#DejaVuSans-64" x="434.552734"/>
      <use xlink:href="#DejaVuSans-61" x="498.029297"/>
      <use xlink:href="#DejaVuSans-74" x="559.308594"/>
      <use xlink:href="#DejaVuSans-69" x="598.517578"/>
      <use xlink:href="#DejaVuSans-6f" x="626.300781"/>
      <use xlink:href="#DejaVuSans-6e" x="687.482422"/>
      <use xlink:href="#DejaVuSans-20" x="750.861328"/>
      <use xlink:href="#DejaVuSans-41" x="782.648438"/>
      <use xlink:href="#DejaVuSans-63" x="849.306641"/>
      <use xlink:href="#DejaVuSans-63" x="904.287109"/>
      <use xlink:href="#DejaVuSans-75" x="959.267578"/>
      <use xlink:href="#DejaVuSans-72" x="1022.646484"/>
      <use xlink:href="#DejaVuSans-61" x="1063.759766"/>
      <use xlink:href="#DejaVuSans-63" x="1125.039062"/>
      <use xlink:href="#DejaVuSans-79" x="1180.019531"/>
     </g>
    </g>
    <g id="line2d_26">
     <path d="M 216.18875 293.004312 
L 226.18875 293.004312 
L 236.18875 293.004312 
" style="fill: none; stroke: #9467bd; stroke-width: 1.5; stroke-linecap: square"/>
    </g>
    <g id="text_24">
     <!-- SWA Robust Validation Accuracy -->
     <g transform="translate(244.18875 296.504312) scale(0.1 -0.1)">
      <use xlink:href="#DejaVuSans-53"/>
      <use xlink:href="#DejaVuSans-57" x="63.476562"/>
      <use xlink:href="#DejaVuSans-41" x="156.853516"/>
      <use xlink:href="#DejaVuSans-20" x="225.261719"/>
      <use xlink:href="#DejaVuSans-52" x="257.048828"/>
      <use xlink:href="#DejaVuSans-6f" x="322.03125"/>
      <use xlink:href="#DejaVuSans-62" x="383.212891"/>
      <use xlink:href="#DejaVuSans-75" x="446.689453"/>
      <use xlink:href="#DejaVuSans-73" x="510.068359"/>
      <use xlink:href="#DejaVuSans-74" x="562.167969"/>
      <use xlink:href="#DejaVuSans-20" x="601.376953"/>
      <use xlink:href="#DejaVuSans-56" x="633.164062"/>
      <use xlink:href="#DejaVuSans-61" x="693.822266"/>
      <use xlink:href="#DejaVuSans-6c" x="755.101562"/>
      <use xlink:href="#DejaVuSans-69" x="782.884766"/>
      <use xlink:href="#DejaVuSans-64" x="810.667969"/>
      <use xlink:href="#DejaVuSans-61" x="874.144531"/>
      <use xlink:href="#DejaVuSans-74" x="935.423828"/>
      <use xlink:href="#DejaVuSans-69" x="974.632812"/>
      <use xlink:href="#DejaVuSans-6f" x="1002.416016"/>
      <use xlink:href="#DejaVuSans-6e" x="1063.597656"/>
      <use xlink:href="#DejaVuSans-20" x="1126.976562"/>
      <use xlink:href="#DejaVuSans-41" x="1158.763672"/>
      <use xlink:href="#DejaVuSans-63" x="1225.421875"/>
      <use xlink:href="#DejaVuSans-63" x="1280.402344"/>
      <use xlink:href="#DejaVuSans-75" x="1335.382812"/>
      <use xlink:href="#DejaVuSans-72" x="1398.761719"/>
      <use xlink:href="#DejaVuSans-61" x="1439.875"/>
      <use xlink:href="#DejaVuSans-63" x="1501.154297"/>
      <use xlink:href="#DejaVuSans-79" x="1556.134766"/>
     </g>
    </g>
   </g>
  </g>
 </g>
 <defs>
  <clipPath id="p5c1a267c05">
   <rect x="57.6" y="41.472" width="357.12" height="266.112"/>
  </clipPath>
 </defs>
</svg>
