<?xml version="1.0" encoding="utf-8" standalone="no"?>
<!DOCTYPE svg PUBLIC "-//W3C//DTD SVG 1.1//EN"
  "http://www.w3.org/Graphics/SVG/1.1/DTD/svg11.dtd">
<svg xmlns:xlink="http://www.w3.org/1999/xlink" width="460.8pt" height="345.6pt" viewBox="0 0 460.8 345.6" xmlns="http://www.w3.org/2000/svg" version="1.1">
 <metadata>
  <rdf:RDF xmlns:dc="http://purl.org/dc/elements/1.1/" xmlns:cc="http://creativecommons.org/ns#" xmlns:rdf="http://www.w3.org/1999/02/22-rdf-syntax-ns#">
   <cc:Work>
    <dc:type rdf:resource="http://purl.org/dc/dcmitype/StillImage"/>
    <dc:date>2025-07-16T10:24:53.247343</dc:date>
    <dc:format>image/svg+xml</dc:format>
    <dc:creator>
     <cc:Agent>
      <dc:title>Matplotlib v3.9.1, https://matplotlib.org/</dc:title>
     </cc:Agent>
    </dc:creator>
   </cc:Work>
  </rdf:RDF>
 </metadata>
 <defs>
  <style type="text/css">*{stroke-linejoin: round; stroke-linecap: butt}</style>
 </defs>
 <g id="figure_1">
  <g id="patch_1">
   <path d="M 0 345.6 
L 460.8 345.6 
L 460.8 0 
L 0 0 
z
" style="fill: #ffffff"/>
  </g>
  <g id="axes_1">
   <g id="patch_2">
    <path d="M 57.6 307.584 
L 414.72 307.584 
L 414.72 41.472 
L 57.6 41.472 
z
" style="fill: #ffffff"/>
   </g>
   <g id="matplotlib.axis_1">
    <g id="xtick_1">
     <g id="line2d_1">
      <defs>
       <path id="m326ff8377e" d="M 0 0 
L 0 3.5 
" style="stroke: #000000; stroke-width: 0.8"/>
      </defs>
      <g>
       <use xlink:href="#m326ff8377e" x="73.832727" y="307.584" style="stroke: #000000; stroke-width: 0.8"/>
      </g>
     </g>
     <g id="text_1">
      <!-- 1 -->
      <g transform="translate(70.651477 322.182437) scale(0.1 -0.1)">
       <defs>
        <path id="DejaVuSans-31" d="M 794 531 
L 1825 531 
L 1825 4091 
L 703 3866 
L 703 4441 
L 1819 4666 
L 2450 4666 
L 2450 531 
L 3481 531 
L 3481 0 
L 794 0 
L 794 531 
z
" transform="scale(0.015625)"/>
       </defs>
       <use xlink:href="#DejaVuSans-31"/>
      </g>
     </g>
    </g>
    <g id="xtick_2">
     <g id="line2d_2">
      <g>
       <use xlink:href="#m326ff8377e" x="109.664165" y="307.584" style="stroke: #000000; stroke-width: 0.8"/>
      </g>
     </g>
     <g id="text_2">
      <!-- 34 -->
      <g transform="translate(103.301665 322.182437) scale(0.1 -0.1)">
       <defs>
        <path id="DejaVuSans-33" d="M 2597 2516 
Q 3050 2419 3304 2112 
Q 3559 1806 3559 1356 
Q 3559 666 3084 287 
Q 2609 -91 1734 -91 
Q 1441 -91 1130 -33 
Q 819 25 488 141 
L 488 750 
Q 750 597 1062 519 
Q 1375 441 1716 441 
Q 2309 441 2620 675 
Q 2931 909 2931 1356 
Q 2931 1769 2642 2001 
Q 2353 2234 1838 2234 
L 1294 2234 
L 1294 2753 
L 1863 2753 
Q 2328 2753 2575 2939 
Q 2822 3125 2822 3475 
Q 2822 3834 2567 4026 
Q 2313 4219 1838 4219 
Q 1578 4219 1281 4162 
Q 984 4106 628 3988 
L 628 4550 
Q 988 4650 1302 4700 
Q 1616 4750 1894 4750 
Q 2613 4750 3031 4423 
Q 3450 4097 3450 3541 
Q 3450 3153 3228 2886 
Q 3006 2619 2597 2516 
z
" transform="scale(0.015625)"/>
        <path id="DejaVuSans-34" d="M 2419 4116 
L 825 1625 
L 2419 1625 
L 2419 4116 
z
M 2253 4666 
L 3047 4666 
L 3047 1625 
L 3713 1625 
L 3713 1100 
L 3047 1100 
L 3047 0 
L 2419 0 
L 2419 1100 
L 313 1100 
L 313 1709 
L 2253 4666 
z
" transform="scale(0.015625)"/>
       </defs>
       <use xlink:href="#DejaVuSans-33"/>
       <use xlink:href="#DejaVuSans-34" x="63.623047"/>
      </g>
     </g>
    </g>
    <g id="xtick_3">
     <g id="line2d_3">
      <g>
       <use xlink:href="#m326ff8377e" x="145.495604" y="307.584" style="stroke: #000000; stroke-width: 0.8"/>
      </g>
     </g>
     <g id="text_3">
      <!-- 67 -->
      <g transform="translate(139.133104 322.182437) scale(0.1 -0.1)">
       <defs>
        <path id="DejaVuSans-36" d="M 2113 2584 
Q 1688 2584 1439 2293 
Q 1191 2003 1191 1497 
Q 1191 994 1439 701 
Q 1688 409 2113 409 
Q 2538 409 2786 701 
Q 3034 994 3034 1497 
Q 3034 2003 2786 2293 
Q 2538 2584 2113 2584 
z
M 3366 4563 
L 3366 3988 
Q 3128 4100 2886 4159 
Q 2644 4219 2406 4219 
Q 1781 4219 1451 3797 
Q 1122 3375 1075 2522 
Q 1259 2794 1537 2939 
Q 1816 3084 2150 3084 
Q 2853 3084 3261 2657 
Q 3669 2231 3669 1497 
Q 3669 778 3244 343 
Q 2819 -91 2113 -91 
Q 1303 -91 875 529 
Q 447 1150 447 2328 
Q 447 3434 972 4092 
Q 1497 4750 2381 4750 
Q 2619 4750 2861 4703 
Q 3103 4656 3366 4563 
z
" transform="scale(0.015625)"/>
        <path id="DejaVuSans-37" d="M 525 4666 
L 3525 4666 
L 3525 4397 
L 1831 0 
L 1172 0 
L 2766 4134 
L 525 4134 
L 525 4666 
z
" transform="scale(0.015625)"/>
       </defs>
       <use xlink:href="#DejaVuSans-36"/>
       <use xlink:href="#DejaVuSans-37" x="63.623047"/>
      </g>
     </g>
    </g>
    <g id="xtick_4">
     <g id="line2d_4">
      <g>
       <use xlink:href="#m326ff8377e" x="181.327042" y="307.584" style="stroke: #000000; stroke-width: 0.8"/>
      </g>
     </g>
     <g id="text_4">
      <!-- 100 -->
      <g transform="translate(171.783292 322.182437) scale(0.1 -0.1)">
       <defs>
        <path id="DejaVuSans-30" d="M 2034 4250 
Q 1547 4250 1301 3770 
Q 1056 3291 1056 2328 
Q 1056 1369 1301 889 
Q 1547 409 2034 409 
Q 2525 409 2770 889 
Q 3016 1369 3016 2328 
Q 3016 3291 2770 3770 
Q 2525 4250 2034 4250 
z
M 2034 4750 
Q 2819 4750 3233 4129 
Q 3647 3509 3647 2328 
Q 3647 1150 3233 529 
Q 2819 -91 2034 -91 
Q 1250 -91 836 529 
Q 422 1150 422 2328 
Q 422 3509 836 4129 
Q 1250 4750 2034 4750 
z
" transform="scale(0.015625)"/>
       </defs>
       <use xlink:href="#DejaVuSans-31"/>
       <use xlink:href="#DejaVuSans-30" x="63.623047"/>
       <use xlink:href="#DejaVuSans-30" x="127.246094"/>
      </g>
     </g>
    </g>
    <g id="xtick_5">
     <g id="line2d_5">
      <g>
       <use xlink:href="#m326ff8377e" x="217.15848" y="307.584" style="stroke: #000000; stroke-width: 0.8"/>
      </g>
     </g>
     <g id="text_5">
      <!-- 133 -->
      <g transform="translate(207.61473 322.182437) scale(0.1 -0.1)">
       <use xlink:href="#DejaVuSans-31"/>
       <use xlink:href="#DejaVuSans-33" x="63.623047"/>
       <use xlink:href="#DejaVuSans-33" x="127.246094"/>
      </g>
     </g>
    </g>
    <g id="xtick_6">
     <g id="line2d_6">
      <g>
       <use xlink:href="#m326ff8377e" x="254.075719" y="307.584" style="stroke: #000000; stroke-width: 0.8"/>
      </g>
     </g>
     <g id="text_6">
      <!-- 167 -->
      <g transform="translate(244.531969 322.182437) scale(0.1 -0.1)">
       <use xlink:href="#DejaVuSans-31"/>
       <use xlink:href="#DejaVuSans-36" x="63.623047"/>
       <use xlink:href="#DejaVuSans-37" x="127.246094"/>
      </g>
     </g>
    </g>
    <g id="xtick_7">
     <g id="line2d_7">
      <g>
       <use xlink:href="#m326ff8377e" x="289.907157" y="307.584" style="stroke: #000000; stroke-width: 0.8"/>
      </g>
     </g>
     <g id="text_7">
      <!-- 200 -->
      <g transform="translate(280.363407 322.182437) scale(0.1 -0.1)">
       <defs>
        <path id="DejaVuSans-32" d="M 1228 531 
L 3431 531 
L 3431 0 
L 469 0 
L 469 531 
Q 828 903 1448 1529 
Q 2069 2156 2228 2338 
Q 2531 2678 2651 2914 
Q 2772 3150 2772 3378 
Q 2772 3750 2511 3984 
Q 2250 4219 1831 4219 
Q 1534 4219 1204 4116 
Q 875 4013 500 3803 
L 500 4441 
Q 881 4594 1212 4672 
Q 1544 4750 1819 4750 
Q 2544 4750 2975 4387 
Q 3406 4025 3406 3419 
Q 3406 3131 3298 2873 
Q 3191 2616 2906 2266 
Q 2828 2175 2409 1742 
Q 1991 1309 1228 531 
z
" transform="scale(0.015625)"/>
       </defs>
       <use xlink:href="#DejaVuSans-32"/>
       <use xlink:href="#DejaVuSans-30" x="63.623047"/>
       <use xlink:href="#DejaVuSans-30" x="127.246094"/>
      </g>
     </g>
    </g>
    <g id="xtick_8">
     <g id="line2d_8">
      <g>
       <use xlink:href="#m326ff8377e" x="325.738595" y="307.584" style="stroke: #000000; stroke-width: 0.8"/>
      </g>
     </g>
     <g id="text_8">
      <!-- 233 -->
      <g transform="translate(316.194845 322.182437) scale(0.1 -0.1)">
       <use xlink:href="#DejaVuSans-32"/>
       <use xlink:href="#DejaVuSans-33" x="63.623047"/>
       <use xlink:href="#DejaVuSans-33" x="127.246094"/>
      </g>
     </g>
    </g>
    <g id="xtick_9">
     <g id="line2d_9">
      <g>
       <use xlink:href="#m326ff8377e" x="361.570033" y="307.584" style="stroke: #000000; stroke-width: 0.8"/>
      </g>
     </g>
     <g id="text_9">
      <!-- 266 -->
      <g transform="translate(352.026283 322.182437) scale(0.1 -0.1)">
       <use xlink:href="#DejaVuSans-32"/>
       <use xlink:href="#DejaVuSans-36" x="63.623047"/>
       <use xlink:href="#DejaVuSans-36" x="127.246094"/>
      </g>
     </g>
    </g>
    <g id="xtick_10">
     <g id="line2d_10">
      <g>
       <use xlink:href="#m326ff8377e" x="398.487273" y="307.584" style="stroke: #000000; stroke-width: 0.8"/>
      </g>
     </g>
     <g id="text_10">
      <!-- 300 -->
      <g transform="translate(388.943523 322.182437) scale(0.1 -0.1)">
       <use xlink:href="#DejaVuSans-33"/>
       <use xlink:href="#DejaVuSans-30" x="63.623047"/>
       <use xlink:href="#DejaVuSans-30" x="127.246094"/>
      </g>
     </g>
    </g>
    <g id="text_11">
     <!-- Epochs -->
     <g transform="translate(218.244375 335.860562) scale(0.1 -0.1)">
      <defs>
       <path id="DejaVuSans-45" d="M 628 4666 
L 3578 4666 
L 3578 4134 
L 1259 4134 
L 1259 2753 
L 3481 2753 
L 3481 2222 
L 1259 2222 
L 1259 531 
L 3634 531 
L 3634 0 
L 628 0 
L 628 4666 
z
" transform="scale(0.015625)"/>
       <path id="DejaVuSans-70" d="M 1159 525 
L 1159 -1331 
L 581 -1331 
L 581 3500 
L 1159 3500 
L 1159 2969 
Q 1341 3281 1617 3432 
Q 1894 3584 2278 3584 
Q 2916 3584 3314 3078 
Q 3713 2572 3713 1747 
Q 3713 922 3314 415 
Q 2916 -91 2278 -91 
Q 1894 -91 1617 61 
Q 1341 213 1159 525 
z
M 3116 1747 
Q 3116 2381 2855 2742 
Q 2594 3103 2138 3103 
Q 1681 3103 1420 2742 
Q 1159 2381 1159 1747 
Q 1159 1113 1420 752 
Q 1681 391 2138 391 
Q 2594 391 2855 752 
Q 3116 1113 3116 1747 
z
" transform="scale(0.015625)"/>
       <path id="DejaVuSans-6f" d="M 1959 3097 
Q 1497 3097 1228 2736 
Q 959 2375 959 1747 
Q 959 1119 1226 758 
Q 1494 397 1959 397 
Q 2419 397 2687 759 
Q 2956 1122 2956 1747 
Q 2956 2369 2687 2733 
Q 2419 3097 1959 3097 
z
M 1959 3584 
Q 2709 3584 3137 3096 
Q 3566 2609 3566 1747 
Q 3566 888 3137 398 
Q 2709 -91 1959 -91 
Q 1206 -91 779 398 
Q 353 888 353 1747 
Q 353 2609 779 3096 
Q 1206 3584 1959 3584 
z
" transform="scale(0.015625)"/>
       <path id="DejaVuSans-63" d="M 3122 3366 
L 3122 2828 
Q 2878 2963 2633 3030 
Q 2388 3097 2138 3097 
Q 1578 3097 1268 2742 
Q 959 2388 959 1747 
Q 959 1106 1268 751 
Q 1578 397 2138 397 
Q 2388 397 2633 464 
Q 2878 531 3122 666 
L 3122 134 
Q 2881 22 2623 -34 
Q 2366 -91 2075 -91 
Q 1284 -91 818 406 
Q 353 903 353 1747 
Q 353 2603 823 3093 
Q 1294 3584 2113 3584 
Q 2378 3584 2631 3529 
Q 2884 3475 3122 3366 
z
" transform="scale(0.015625)"/>
       <path id="DejaVuSans-68" d="M 3513 2113 
L 3513 0 
L 2938 0 
L 2938 2094 
Q 2938 2591 2744 2837 
Q 2550 3084 2163 3084 
Q 1697 3084 1428 2787 
Q 1159 2491 1159 1978 
L 1159 0 
L 581 0 
L 581 4863 
L 1159 4863 
L 1159 2956 
Q 1366 3272 1645 3428 
Q 1925 3584 2291 3584 
Q 2894 3584 3203 3211 
Q 3513 2838 3513 2113 
z
" transform="scale(0.015625)"/>
       <path id="DejaVuSans-73" d="M 2834 3397 
L 2834 2853 
Q 2591 2978 2328 3040 
Q 2066 3103 1784 3103 
Q 1356 3103 1142 2972 
Q 928 2841 928 2578 
Q 928 2378 1081 2264 
Q 1234 2150 1697 2047 
L 1894 2003 
Q 2506 1872 2764 1633 
Q 3022 1394 3022 966 
Q 3022 478 2636 193 
Q 2250 -91 1575 -91 
Q 1294 -91 989 -36 
Q 684 19 347 128 
L 347 722 
Q 666 556 975 473 
Q 1284 391 1588 391 
Q 1994 391 2212 530 
Q 2431 669 2431 922 
Q 2431 1156 2273 1281 
Q 2116 1406 1581 1522 
L 1381 1569 
Q 847 1681 609 1914 
Q 372 2147 372 2553 
Q 372 3047 722 3315 
Q 1072 3584 1716 3584 
Q 2034 3584 2315 3537 
Q 2597 3491 2834 3397 
z
" transform="scale(0.015625)"/>
      </defs>
      <use xlink:href="#DejaVuSans-45"/>
      <use xlink:href="#DejaVuSans-70" x="63.183594"/>
      <use xlink:href="#DejaVuSans-6f" x="126.660156"/>
      <use xlink:href="#DejaVuSans-63" x="187.841797"/>
      <use xlink:href="#DejaVuSans-68" x="242.822266"/>
      <use xlink:href="#DejaVuSans-73" x="306.201172"/>
     </g>
    </g>
   </g>
   <g id="matplotlib.axis_2">
    <g id="ytick_1">
     <g id="line2d_11">
      <defs>
       <path id="m24b592a62b" d="M 0 0 
L -3.5 0 
" style="stroke: #000000; stroke-width: 0.8"/>
      </defs>
      <g>
       <use xlink:href="#m24b592a62b" x="57.6" y="292.743889" style="stroke: #000000; stroke-width: 0.8"/>
      </g>
     </g>
     <g id="text_12">
      <!-- 30 -->
      <g transform="translate(37.875 296.543107) scale(0.1 -0.1)">
       <use xlink:href="#DejaVuSans-33"/>
       <use xlink:href="#DejaVuSans-30" x="63.623047"/>
      </g>
     </g>
    </g>
    <g id="ytick_2">
     <g id="line2d_12">
      <g>
       <use xlink:href="#m24b592a62b" x="57.6" y="256.8262" style="stroke: #000000; stroke-width: 0.8"/>
      </g>
     </g>
     <g id="text_13">
      <!-- 40 -->
      <g transform="translate(37.875 260.625419) scale(0.1 -0.1)">
       <use xlink:href="#DejaVuSans-34"/>
       <use xlink:href="#DejaVuSans-30" x="63.623047"/>
      </g>
     </g>
    </g>
    <g id="ytick_3">
     <g id="line2d_13">
      <g>
       <use xlink:href="#m24b592a62b" x="57.6" y="220.908511" style="stroke: #000000; stroke-width: 0.8"/>
      </g>
     </g>
     <g id="text_14">
      <!-- 50 -->
      <g transform="translate(37.875 224.70773) scale(0.1 -0.1)">
       <defs>
        <path id="DejaVuSans-35" d="M 691 4666 
L 3169 4666 
L 3169 4134 
L 1269 4134 
L 1269 2991 
Q 1406 3038 1543 3061 
Q 1681 3084 1819 3084 
Q 2600 3084 3056 2656 
Q 3513 2228 3513 1497 
Q 3513 744 3044 326 
Q 2575 -91 1722 -91 
Q 1428 -91 1123 -41 
Q 819 9 494 109 
L 494 744 
Q 775 591 1075 516 
Q 1375 441 1709 441 
Q 2250 441 2565 725 
Q 2881 1009 2881 1497 
Q 2881 1984 2565 2268 
Q 2250 2553 1709 2553 
Q 1456 2553 1204 2497 
Q 953 2441 691 2322 
L 691 4666 
z
" transform="scale(0.015625)"/>
       </defs>
       <use xlink:href="#DejaVuSans-35"/>
       <use xlink:href="#DejaVuSans-30" x="63.623047"/>
      </g>
     </g>
    </g>
    <g id="ytick_4">
     <g id="line2d_14">
      <g>
       <use xlink:href="#m24b592a62b" x="57.6" y="184.990823" style="stroke: #000000; stroke-width: 0.8"/>
      </g>
     </g>
     <g id="text_15">
      <!-- 60 -->
      <g transform="translate(37.875 188.790041) scale(0.1 -0.1)">
       <use xlink:href="#DejaVuSans-36"/>
       <use xlink:href="#DejaVuSans-30" x="63.623047"/>
      </g>
     </g>
    </g>
    <g id="ytick_5">
     <g id="line2d_15">
      <g>
       <use xlink:href="#m24b592a62b" x="57.6" y="149.073134" style="stroke: #000000; stroke-width: 0.8"/>
      </g>
     </g>
     <g id="text_16">
      <!-- 70 -->
      <g transform="translate(37.875 152.872353) scale(0.1 -0.1)">
       <use xlink:href="#DejaVuSans-37"/>
       <use xlink:href="#DejaVuSans-30" x="63.623047"/>
      </g>
     </g>
    </g>
    <g id="ytick_6">
     <g id="line2d_16">
      <g>
       <use xlink:href="#m24b592a62b" x="57.6" y="113.155445" style="stroke: #000000; stroke-width: 0.8"/>
      </g>
     </g>
     <g id="text_17">
      <!-- 80 -->
      <g transform="translate(37.875 116.954664) scale(0.1 -0.1)">
       <defs>
        <path id="DejaVuSans-38" d="M 2034 2216 
Q 1584 2216 1326 1975 
Q 1069 1734 1069 1313 
Q 1069 891 1326 650 
Q 1584 409 2034 409 
Q 2484 409 2743 651 
Q 3003 894 3003 1313 
Q 3003 1734 2745 1975 
Q 2488 2216 2034 2216 
z
M 1403 2484 
Q 997 2584 770 2862 
Q 544 3141 544 3541 
Q 544 4100 942 4425 
Q 1341 4750 2034 4750 
Q 2731 4750 3128 4425 
Q 3525 4100 3525 3541 
Q 3525 3141 3298 2862 
Q 3072 2584 2669 2484 
Q 3125 2378 3379 2068 
Q 3634 1759 3634 1313 
Q 3634 634 3220 271 
Q 2806 -91 2034 -91 
Q 1263 -91 848 271 
Q 434 634 434 1313 
Q 434 1759 690 2068 
Q 947 2378 1403 2484 
z
M 1172 3481 
Q 1172 3119 1398 2916 
Q 1625 2713 2034 2713 
Q 2441 2713 2670 2916 
Q 2900 3119 2900 3481 
Q 2900 3844 2670 4047 
Q 2441 4250 2034 4250 
Q 1625 4250 1398 4047 
Q 1172 3844 1172 3481 
z
" transform="scale(0.015625)"/>
       </defs>
       <use xlink:href="#DejaVuSans-38"/>
       <use xlink:href="#DejaVuSans-30" x="63.623047"/>
      </g>
     </g>
    </g>
    <g id="ytick_7">
     <g id="line2d_17">
      <g>
       <use xlink:href="#m24b592a62b" x="57.6" y="77.237757" style="stroke: #000000; stroke-width: 0.8"/>
      </g>
     </g>
     <g id="text_18">
      <!-- 90 -->
      <g transform="translate(37.875 81.036976) scale(0.1 -0.1)">
       <defs>
        <path id="DejaVuSans-39" d="M 703 97 
L 703 672 
Q 941 559 1184 500 
Q 1428 441 1663 441 
Q 2288 441 2617 861 
Q 2947 1281 2994 2138 
Q 2813 1869 2534 1725 
Q 2256 1581 1919 1581 
Q 1219 1581 811 2004 
Q 403 2428 403 3163 
Q 403 3881 828 4315 
Q 1253 4750 1959 4750 
Q 2769 4750 3195 4129 
Q 3622 3509 3622 2328 
Q 3622 1225 3098 567 
Q 2575 -91 1691 -91 
Q 1453 -91 1209 -44 
Q 966 3 703 97 
z
M 1959 2075 
Q 2384 2075 2632 2365 
Q 2881 2656 2881 3163 
Q 2881 3666 2632 3958 
Q 2384 4250 1959 4250 
Q 1534 4250 1286 3958 
Q 1038 3666 1038 3163 
Q 1038 2656 1286 2365 
Q 1534 2075 1959 2075 
z
" transform="scale(0.015625)"/>
       </defs>
       <use xlink:href="#DejaVuSans-39"/>
       <use xlink:href="#DejaVuSans-30" x="63.623047"/>
      </g>
     </g>
    </g>
    <g id="text_19">
     <!-- Accuracy -->
     <g transform="translate(31.795312 197.356125) rotate(-90) scale(0.1 -0.1)">
      <defs>
       <path id="DejaVuSans-41" d="M 2188 4044 
L 1331 1722 
L 3047 1722 
L 2188 4044 
z
M 1831 4666 
L 2547 4666 
L 4325 0 
L 3669 0 
L 3244 1197 
L 1141 1197 
L 716 0 
L 50 0 
L 1831 4666 
z
" transform="scale(0.015625)"/>
       <path id="DejaVuSans-75" d="M 544 1381 
L 544 3500 
L 1119 3500 
L 1119 1403 
Q 1119 906 1312 657 
Q 1506 409 1894 409 
Q 2359 409 2629 706 
Q 2900 1003 2900 1516 
L 2900 3500 
L 3475 3500 
L 3475 0 
L 2900 0 
L 2900 538 
Q 2691 219 2414 64 
Q 2138 -91 1772 -91 
Q 1169 -91 856 284 
Q 544 659 544 1381 
z
M 1991 3584 
L 1991 3584 
z
" transform="scale(0.015625)"/>
       <path id="DejaVuSans-72" d="M 2631 2963 
Q 2534 3019 2420 3045 
Q 2306 3072 2169 3072 
Q 1681 3072 1420 2755 
Q 1159 2438 1159 1844 
L 1159 0 
L 581 0 
L 581 3500 
L 1159 3500 
L 1159 2956 
Q 1341 3275 1631 3429 
Q 1922 3584 2338 3584 
Q 2397 3584 2469 3576 
Q 2541 3569 2628 3553 
L 2631 2963 
z
" transform="scale(0.015625)"/>
       <path id="DejaVuSans-61" d="M 2194 1759 
Q 1497 1759 1228 1600 
Q 959 1441 959 1056 
Q 959 750 1161 570 
Q 1363 391 1709 391 
Q 2188 391 2477 730 
Q 2766 1069 2766 1631 
L 2766 1759 
L 2194 1759 
z
M 3341 1997 
L 3341 0 
L 2766 0 
L 2766 531 
Q 2569 213 2275 61 
Q 1981 -91 1556 -91 
Q 1019 -91 701 211 
Q 384 513 384 1019 
Q 384 1609 779 1909 
Q 1175 2209 1959 2209 
L 2766 2209 
L 2766 2266 
Q 2766 2663 2505 2880 
Q 2244 3097 1772 3097 
Q 1472 3097 1187 3025 
Q 903 2953 641 2809 
L 641 3341 
Q 956 3463 1253 3523 
Q 1550 3584 1831 3584 
Q 2591 3584 2966 3190 
Q 3341 2797 3341 1997 
z
" transform="scale(0.015625)"/>
       <path id="DejaVuSans-79" d="M 2059 -325 
Q 1816 -950 1584 -1140 
Q 1353 -1331 966 -1331 
L 506 -1331 
L 506 -850 
L 844 -850 
Q 1081 -850 1212 -737 
Q 1344 -625 1503 -206 
L 1606 56 
L 191 3500 
L 800 3500 
L 1894 763 
L 2988 3500 
L 3597 3500 
L 2059 -325 
z
" transform="scale(0.015625)"/>
      </defs>
      <use xlink:href="#DejaVuSans-41"/>
      <use xlink:href="#DejaVuSans-63" x="66.658203"/>
      <use xlink:href="#DejaVuSans-63" x="121.638672"/>
      <use xlink:href="#DejaVuSans-75" x="176.619141"/>
      <use xlink:href="#DejaVuSans-72" x="239.998047"/>
      <use xlink:href="#DejaVuSans-61" x="281.111328"/>
      <use xlink:href="#DejaVuSans-63" x="342.390625"/>
      <use xlink:href="#DejaVuSans-79" x="397.371094"/>
     </g>
    </g>
   </g>
   <g id="line2d_18">
    <path d="M 73.832727 295.488 
L 74.918528 234.758372 
L 76.00433 204.860488 
L 77.090131 188.187497 
L 78.175932 175.709692 
L 79.261733 165.932897 
L 80.347534 160.523693 
L 81.433335 155.96933 
L 82.519137 149.195254 
L 83.604938 146.70975 
L 84.690739 140.804882 
L 85.77654 136.624063 
L 86.862341 132.974826 
L 87.948142 131.207676 
L 91.205546 122.436576 
L 92.291347 119.606262 
L 93.377148 119.7643 
L 94.462949 116.467056 
L 95.54875 144.260164 
L 96.634552 142.938393 
L 97.720353 140.467256 
L 99.891955 137.622575 
L 100.977756 133.140047 
L 102.063557 133.951787 
L 104.23516 128.06847 
L 105.320961 127.888881 
L 106.406762 125.741004 
L 107.492563 124.182176 
L 108.578364 123.15493 
L 109.664165 121.825975 
L 110.749967 120.238414 
L 111.835768 119.850503 
L 112.921569 118.148004 
L 114.00737 117.767277 
L 115.093171 115.648133 
L 116.178972 114.412565 
L 117.264773 114.053388 
L 118.350575 113.176996 
L 119.436376 110.188644 
L 120.522177 109.822284 
L 122.693779 106.790831 
L 123.77958 106.560958 
L 124.865382 104.678871 
L 125.951183 103.026657 
L 127.036984 102.962005 
L 128.122785 100.90033 
L 130.294387 99.923369 
L 131.380189 97.401947 
L 132.46599 96.3316 
L 133.551791 97.229542 
L 134.637592 96.719511 
L 135.723393 95.699449 
L 136.809194 96.338784 
L 137.894995 95.96524 
L 138.980797 118.658035 
L 140.066598 121.157906 
L 141.152399 120.310249 
L 142.2382 119.218351 
L 143.324001 118.428162 
L 144.409802 118.83044 
L 145.495604 118.025884 
L 146.581405 117.889397 
L 148.753007 116.452689 
L 149.838808 116.136614 
L 150.924609 112.365256 
L 153.096212 114.671172 
L 154.182013 110.777694 
L 155.267814 112.178484 
L 156.353615 112.731617 
L 157.439416 112.918389 
L 158.525217 110.914182 
L 159.611019 110.231746 
L 160.69682 109.139848 
L 161.782621 109.987505 
L 162.868422 108.51488 
L 163.954223 107.652856 
L 165.040024 106.424471 
L 166.125825 107.652856 
L 167.211627 107.451716 
L 168.297428 106.790831 
L 169.383229 107.200293 
L 170.46903 104.456181 
L 171.554831 103.974884 
L 172.640632 104.448998 
L 173.726434 102.408873 
L 175.898036 104.061087 
L 176.983837 102.372955 
L 178.069638 101.532481 
L 179.155439 101.079919 
L 180.24124 101.324159 
L 181.327042 101.288241 
L 182.412843 100.462134 
L 183.498644 98.967958 
L 184.584445 97.876061 
L 185.670246 98.026915 
L 186.756047 97.545618 
L 187.841849 96.669226 
L 188.92765 96.935017 
L 190.013451 95.505493 
L 191.099252 94.600367 
L 192.185053 95.469576 
L 194.356656 93.364799 
L 195.442457 93.019989 
L 196.528258 92.876318 
L 197.614059 92.861951 
L 198.69986 91.27439 
L 199.785661 91.188187 
L 200.871462 90.900846 
L 201.957264 90.426732 
L 204.128866 88.106449 
L 205.214667 87.29471 
L 206.300468 88.171101 
L 207.386269 86.411134 
L 208.472071 86.60509 
L 209.557872 86.159711 
L 210.643673 86.906799 
L 211.729474 85.2043 
L 212.815275 85.218667 
L 213.901076 85.743065 
L 214.986877 85.570661 
L 216.072679 84.744554 
L 218.244281 83.896896 
L 219.330082 84.205788 
L 220.415883 83.544903 
L 221.501684 83.731675 
L 222.587486 82.646961 
L 223.673287 83.860979 
L 224.759088 83.135441 
L 225.844889 107.063805 
L 226.93069 109.678613 
L 228.016491 110.641207 
L 229.102292 109.67143 
L 230.188094 108.88124 
L 231.273895 109.190133 
L 232.359696 108.637 
L 233.445497 108.486146 
L 234.531298 107.897096 
L 235.617099 106.359819 
L 236.702901 107.09254 
L 237.788702 106.661527 
L 238.874503 105.706117 
L 239.960304 105.777952 
L 241.046105 107.502001 
L 242.131906 106.230515 
L 243.217708 105.461877 
L 244.303509 105.921623 
L 245.38931 104.915928 
L 246.475111 105.382858 
L 248.646713 105.12425 
L 249.732514 103.249347 
L 250.818316 104.808175 
L 251.904117 103.170328 
L 252.989918 103.522321 
L 254.075719 103.335549 
L 255.16152 103.486404 
L 256.247321 103.23498 
L 257.333123 103.120043 
L 258.418924 101.388811 
L 259.504725 101.46783 
L 260.590526 101.977861 
L 261.676327 101.532481 
L 262.762128 101.726437 
L 263.847929 101.158937 
L 264.933731 102.653113 
L 266.019532 101.977861 
L 267.105333 101.12302 
L 268.191134 100.878779 
L 269.276935 101.281058 
L 270.362736 101.281058 
L 271.448538 101.496564 
L 272.534339 100.699191 
L 273.62014 98.6878 
L 274.705941 99.054161 
L 275.791742 100.706375 
L 276.877543 98.881756 
L 277.963344 99.715046 
L 279.049146 99.442072 
L 280.134947 98.242421 
L 281.220748 98.809921 
L 282.306549 99.03261 
L 283.39235 99.13318 
L 285.563953 97.445048 
L 286.649754 96.963751 
L 287.735555 97.5097 
L 288.821356 97.315745 
L 289.907157 97.337295 
L 290.992958 95.972423 
L 292.07876 96.855998 
L 293.164561 95.720999 
L 294.250362 95.958056 
L 295.336163 95.167867 
L 296.421964 94.722488 
L 297.507765 94.607551 
L 298.593566 95.131949 
L 299.679368 94.377678 
L 300.765169 95.081665 
L 301.85097 95.27562 
L 302.936771 94.075969 
L 304.022572 94.988279 
L 305.108373 93.953849 
L 306.194175 93.695242 
L 307.279976 93.027173 
L 308.365777 93.817362 
L 309.451578 93.573122 
L 310.537379 92.423756 
L 311.62318 92.057395 
L 312.708981 92.416572 
L 313.794783 91.748503 
L 314.880584 92.488407 
L 315.966385 91.281573 
L 317.052186 91.216921 
L 318.137987 90.110656 
L 319.223788 90.800276 
L 320.30959 90.965497 
L 321.395391 89.65091 
L 322.481192 90.821827 
L 323.566993 89.931068 
L 324.652794 89.902334 
L 325.738595 88.214202 
L 326.824396 89.025942 
L 327.910198 87.704171 
L 328.995999 88.436892 
L 330.0818 87.424013 
L 331.167601 86.720027 
L 332.253402 87.78319 
L 333.339203 87.165406 
L 334.425005 87.847842 
L 335.510806 87.653887 
L 336.596607 86.102242 
L 337.682408 86.48297 
L 338.768209 85.024712 
L 339.85401 85.570661 
L 340.939811 85.247401 
L 342.025613 85.556293 
L 343.111414 83.939998 
L 344.197215 83.939998 
L 345.283016 83.623922 
L 346.368817 83.92563 
L 348.54042 83.702941 
L 349.626221 83.379682 
L 350.712022 82.208765 
L 351.797823 82.991771 
L 352.883624 81.454493 
L 355.055227 82.711613 
L 356.141028 81.059399 
L 357.226829 81.454493 
L 358.31263 81.195886 
L 359.398431 81.131234 
L 360.484232 80.398513 
L 361.570033 79.400002 
L 362.655835 79.622691 
L 363.741636 79.177312 
L 364.827437 79.076742 
L 365.913238 79.486204 
L 366.999039 78.27937 
L 368.08484 79.68016 
L 370.256443 80.786424 
L 372.428045 81.777753 
L 373.513846 82.639777 
L 374.599647 80.721773 
L 375.685448 83.121074 
L 376.77125 82.632594 
L 377.857051 81.770569 
L 378.942852 82.40272 
L 380.028653 82.797815 
L 382.200255 82.180031 
L 383.286057 82.891201 
L 384.371858 81.921423 
L 385.457659 82.373986 
L 386.54346 81.907056 
L 387.629261 82.718796 
L 388.715062 82.761897 
L 389.800863 83.372498 
L 390.886665 82.934302 
L 391.972466 82.804999 
L 393.058267 82.546391 
L 394.144068 82.539208 
L 395.229869 82.043544 
L 396.31567 82.38117 
L 397.401472 82.043544 
L 398.487273 82.611043 
L 398.487273 82.611043 
" clip-path="url(#pf3e6bb6bdd)" style="fill: none; stroke: #1f77b4; stroke-width: 1.5; stroke-linecap: square"/>
   </g>
   <g id="line2d_19">
    <path d="M 73.832727 228.451226 
L 74.918528 181.039877 
L 76.00433 153.419174 
L 77.090131 166.996061 
L 78.175932 123.607493 
L 79.261733 115.597848 
L 80.347534 124.074423 
L 81.433335 108.988994 
L 82.519137 102.020962 
L 83.604938 101.158937 
L 84.690739 93.149293 
L 85.77654 88.264487 
L 86.862341 90.994232 
L 87.948142 84.708636 
L 89.033943 82.050727 
L 90.119745 83.200093 
L 91.205546 80.29076 
L 92.291347 79.500571 
L 93.377148 78.351205 
L 94.462949 78.818135 
L 95.54875 101.769538 
L 96.634552 101.338526 
L 97.720353 94.406412 
L 98.806154 89.665277 
L 99.891955 96.417803 
L 100.977756 87.582051 
L 102.063557 89.485689 
L 103.149358 88.623664 
L 104.23516 88.156734 
L 105.320961 84.457212 
L 106.406762 84.852307 
L 107.492563 80.901361 
L 108.578364 79.716077 
L 109.664165 84.277624 
L 110.749967 80.039337 
L 111.835768 78.171617 
L 112.921569 79.033641 
L 114.00737 77.201839 
L 115.093171 74.472095 
L 116.178972 77.34551 
L 117.264773 76.160226 
L 118.350575 73.825576 
L 119.436376 72.496622 
L 120.522177 72.06561 
L 121.607978 71.490927 
L 122.693779 71.634597 
L 123.77958 70.054219 
L 124.865382 70.592984 
L 125.951183 68.868935 
L 127.036984 68.976688 
L 128.122785 66.749792 
L 129.208586 66.211026 
L 130.294387 66.067356 
L 131.380189 66.642039 
L 132.46599 66.246944 
L 133.551791 65.277166 
L 134.637592 65.241249 
L 135.723393 64.989825 
L 136.809194 64.989825 
L 137.894995 65.277166 
L 138.980797 84.672718 
L 140.066598 81.69155 
L 141.152399 80.865443 
L 142.2382 83.236011 
L 143.324001 77.561016 
L 144.409802 77.596934 
L 145.495604 75.513708 
L 146.581405 83.271928 
L 147.667206 79.249147 
L 148.753007 75.94472 
L 149.838808 77.237757 
L 150.924609 77.273674 
L 152.01041 73.502317 
L 153.096212 75.872885 
L 154.182013 75.657379 
L 155.267814 72.388869 
L 156.353615 76.483485 
L 157.439416 72.388869 
L 158.525217 71.778268 
L 159.611019 72.20928 
L 160.69682 74.615766 
L 161.782621 73.574153 
L 162.868422 74.328424 
L 163.954223 71.347256 
L 165.040024 72.99947 
L 166.125825 70.413396 
L 167.211627 72.173363 
L 168.297428 69.910548 
L 169.383229 69.120359 
L 170.46903 68.868935 
L 171.554831 70.413396 
L 172.640632 68.078746 
L 173.726434 66.857545 
L 174.812235 67.791405 
L 175.898036 69.156277 
L 176.983837 67.037133 
L 178.069638 66.534286 
L 179.155439 65.52859 
L 180.24124 66.749792 
L 181.327042 67.037133 
L 182.412843 66.713874 
L 183.498644 65.959603 
L 184.584445 66.46245 
L 185.670246 67.324475 
L 186.756047 63.589035 
L 187.841849 65.205331 
L 188.92765 64.091883 
L 190.013451 64.1278 
L 191.099252 63.876377 
L 192.185053 64.702483 
L 193.270854 63.193941 
L 194.356656 63.158023 
L 195.442457 62.978434 
L 196.528258 62.11641 
L 197.614059 60.787455 
L 198.69986 61.721315 
L 199.785661 59.889513 
L 200.871462 60.464196 
L 201.957264 59.458501 
L 203.043065 60.140937 
L 206.300468 58.811983 
L 207.386269 57.985876 
L 208.472071 58.2373 
L 209.557872 59.135242 
L 210.643673 57.91404 
L 211.729474 57.554863 
L 212.815275 58.345053 
L 213.901076 57.267522 
L 214.986877 57.554863 
L 216.072679 57.267522 
L 217.15848 57.626699 
L 218.244281 58.2373 
L 220.415883 57.123851 
L 221.501684 57.016098 
L 222.587486 57.087933 
L 223.673287 56.764674 
L 224.759088 57.016098 
L 225.844889 72.963552 
L 226.93069 75.01086 
L 228.016491 75.118613 
L 229.102292 73.250893 
L 230.188094 73.61007 
L 231.273895 73.645988 
L 232.359696 72.568457 
L 233.445497 80.254843 
L 234.531298 69.73096 
L 235.617099 72.137445 
L 236.702901 71.886021 
L 237.788702 70.952161 
L 238.874503 71.455009 
L 239.960304 71.27542 
L 241.046105 72.424787 
L 242.131906 69.084441 
L 243.217708 68.976688 
L 244.303509 69.766878 
L 245.38931 68.581594 
L 246.475111 69.587289 
L 247.560912 67.575899 
L 248.646713 70.736655 
L 249.732514 69.299948 
L 250.818316 69.73096 
L 251.904117 69.371783 
L 252.989918 67.791405 
L 254.075719 69.551371 
L 255.16152 66.677956 
L 256.247321 66.46245 
L 257.333123 65.349002 
L 258.418924 69.371783 
L 260.590526 67.647734 
L 261.676327 66.390615 
L 262.762128 66.067356 
L 263.847929 68.366088 
L 264.933731 66.570203 
L 266.019532 69.982384 
L 267.105333 65.097578 
L 268.191134 67.575899 
L 269.276935 65.52859 
L 270.362736 64.415142 
L 271.448538 66.857545 
L 272.534339 66.570203 
L 273.62014 65.169413 
L 274.705941 66.390615 
L 275.791742 67.037133 
L 276.877543 65.349002 
L 277.963344 66.749792 
L 279.049146 66.749792 
L 280.134947 61.900904 
L 281.220748 65.420837 
L 282.306549 64.702483 
L 283.39235 66.713874 
L 284.478151 66.246944 
L 285.563953 63.768624 
L 286.649754 63.481282 
L 287.735555 66.498368 
L 288.821356 63.229858 
L 289.907157 64.558813 
L 290.992958 63.876377 
L 292.07876 65.241249 
L 293.164561 64.1278 
L 294.250362 64.774319 
L 296.421964 63.122105 
L 297.507765 63.265776 
L 298.593566 62.188245 
L 299.679368 63.229858 
L 300.765169 61.038879 
L 301.85097 63.768624 
L 302.936771 63.732706 
L 304.022572 61.721315 
L 305.108373 61.362138 
L 306.194175 62.008657 
L 307.279976 61.541727 
L 308.365777 62.619258 
L 309.451578 60.71562 
L 311.62318 61.18255 
L 312.708981 60.71562 
L 313.794783 61.793151 
L 314.880584 61.110715 
L 315.966385 60.679702 
L 317.052186 60.931126 
L 318.137987 59.674007 
L 319.223788 60.859291 
L 320.30959 60.140937 
L 321.395391 59.889513 
L 322.481192 60.643785 
L 323.566993 59.745842 
L 324.652794 60.069102 
L 325.738595 58.560559 
L 326.824396 58.740147 
L 327.910198 58.129546 
L 328.995999 57.375275 
L 330.0818 58.416888 
L 331.167601 58.057711 
L 332.253402 59.925431 
L 333.339203 57.878123 
L 334.425005 58.2373 
L 335.510806 57.087933 
L 336.596607 58.991571 
L 337.682408 58.309135 
L 338.768209 57.985876 
L 339.85401 58.021793 
L 340.939811 59.171159 
L 342.025613 58.38097 
L 343.111414 57.016098 
L 344.197215 57.375275 
L 345.283016 56.118156 
L 346.368817 56.046321 
L 347.454618 58.129546 
L 348.54042 55.794897 
L 349.626221 57.267522 
L 351.797823 56.297744 
L 352.883624 56.728757 
L 353.969425 55.112461 
L 355.055227 55.004708 
L 356.141028 56.010403 
L 357.226829 55.543473 
L 359.398431 55.363884 
L 360.484232 55.866732 
L 361.570033 55.148378 
L 362.655835 55.327967 
L 363.741636 54.896954 
L 364.827437 55.148378 
L 365.913238 54.573695 
L 366.999039 54.681448 
L 368.08484 55.004708 
L 370.256443 55.327967 
L 371.342244 55.076543 
L 372.428045 55.974485 
L 373.513846 55.615308 
L 374.599647 55.794897 
L 375.685448 56.118156 
L 376.77125 55.866732 
L 377.857051 56.225909 
L 380.028653 55.974485 
L 381.114454 56.118156 
L 382.200255 55.399802 
L 383.286057 56.441415 
L 384.371858 55.615308 
L 385.457659 55.43572 
L 386.54346 55.651226 
L 387.629261 56.118156 
L 388.715062 55.758979 
L 389.800863 56.656921 
L 390.886665 56.692839 
L 391.972466 55.723061 
L 393.058267 55.687144 
L 394.144068 55.974485 
L 395.229869 56.728757 
L 396.31567 56.98018 
L 397.401472 56.477333 
L 398.487273 57.267522 
L 398.487273 57.267522 
" clip-path="url(#pf3e6bb6bdd)" style="fill: none; stroke: #ff7f0e; stroke-width: 1.5; stroke-linecap: square"/>
   </g>
   <g id="line2d_20">
    <path d="M 73.832727 249.766516 
L 74.918528 206.120332 
L 76.00433 187.046801 
L 77.090131 194.552359 
L 78.175932 156.950255 
L 79.261733 159.922753 
L 80.347534 160.170461 
L 81.433335 140.923534 
L 82.519137 138.446452 
L 83.604938 134.483121 
L 84.690739 131.213373 
L 85.77654 130.22254 
L 86.862341 126.952792 
L 87.948142 120.611462 
L 91.205546 113.130675 
L 92.291347 113.403154 
L 93.377148 111.644425 
L 94.462949 111.421488 
L 95.54875 147.240093 
L 96.634552 141.493263 
L 97.720353 132.674851 
L 98.806154 128.067479 
L 99.891955 135.226246 
L 100.977756 123.212398 
L 102.063557 124.079377 
L 103.149358 123.286711 
L 104.23516 127.596833 
L 105.320961 118.035297 
L 106.406762 123.88121 
L 107.492563 116.524277 
L 108.578364 113.105904 
L 109.664165 120.388525 
L 110.749967 112.709571 
L 111.835768 110.851759 
L 112.921569 113.254529 
L 114.00737 110.034322 
L 115.093171 109.489364 
L 116.178972 106.219616 
L 117.264773 109.885697 
L 118.350575 104.807679 
L 119.436376 103.990242 
L 120.522177 102.627847 
L 121.607978 100.646181 
L 122.693779 101.364535 
L 123.77958 101.884722 
L 124.865382 101.240681 
L 125.951183 97.525058 
L 127.036984 97.178267 
L 128.122785 95.592934 
L 129.208586 95.097518 
L 130.294387 94.25531 
L 131.380189 95.072747 
L 132.46599 93.982831 
L 133.551791 92.546123 
L 134.637592 92.967227 
L 135.723393 92.669978 
L 136.809194 93.016769 
L 137.894995 92.100249 
L 138.980797 126.333522 
L 140.066598 120.685775 
L 141.152399 119.174755 
L 142.2382 116.722443 
L 143.324001 112.412321 
L 144.409802 111.79305 
L 145.495604 108.226052 
L 146.581405 120.958254 
L 147.667206 115.70684 
L 148.753007 109.588447 
L 149.838808 111.223321 
L 150.924609 111.520571 
L 152.01041 110.975613 
L 153.096212 110.703134 
L 154.182013 109.860926 
L 155.267814 108.523302 
L 156.353615 108.126969 
L 157.439416 105.872824 
L 158.525217 104.634283 
L 159.611019 108.399448 
L 160.69682 107.730636 
L 161.782621 105.600345 
L 162.868422 106.34347 
L 163.954223 102.850784 
L 165.040024 103.494826 
L 166.125825 105.228783 
L 167.211627 101.488389 
L 168.297428 99.754432 
L 169.383229 105.055387 
L 170.46903 101.116827 
L 171.554831 102.801243 
L 172.640632 100.844348 
L 173.726434 99.70489 
L 175.898036 103.742534 
L 176.983837 99.457182 
L 178.069638 98.78837 
L 179.155439 97.103954 
L 180.24124 98.070016 
L 181.327042 98.540662 
L 182.412843 97.27735 
L 183.498644 97.549829 
L 184.584445 94.478247 
L 185.670246 94.825039 
L 186.756047 94.948893 
L 187.841849 94.626872 
L 188.92765 94.800268 
L 190.013451 92.991998 
L 191.099252 95.667247 
L 192.185053 93.165394 
L 193.270854 91.53052 
L 194.356656 90.415833 
L 195.442457 89.647937 
L 196.528258 88.731417 
L 197.614059 89.301146 
L 198.69986 90.31675 
L 199.785661 88.979125 
L 200.871462 89.003896 
L 201.957264 85.932315 
L 203.043065 87.691043 
L 204.128866 85.907544 
L 205.214667 87.369022 
L 207.386269 83.901107 
L 208.472071 85.238732 
L 210.643673 83.430462 
L 211.729474 84.817628 
L 212.815275 84.569919 
L 213.901076 82.241462 
L 214.986877 83.009358 
L 216.072679 83.306608 
L 217.15848 83.207524 
L 218.244281 84.991023 
L 219.330082 82.78642 
L 220.415883 83.38092 
L 221.501684 82.712108 
L 222.587486 83.430462 
L 224.759088 82.984587 
L 225.844889 110.133405 
L 226.93069 109.563677 
L 228.016491 110.727905 
L 229.102292 107.904032 
L 230.188094 106.095762 
L 231.273895 107.829719 
L 232.359696 106.368241 
L 233.445497 118.183922 
L 234.531298 103.643451 
L 235.617099 104.361804 
L 236.702901 102.627847 
L 237.788702 99.531495 
L 238.874503 104.188409 
L 239.960304 104.559971 
L 241.046105 105.526033 
L 242.131906 104.683825 
L 243.217708 101.587473 
L 244.303509 101.364535 
L 245.38931 101.909493 
L 246.475111 105.996679 
L 247.560912 103.222347 
L 248.646713 103.742534 
L 249.732514 103.098493 
L 250.818316 104.956304 
L 251.904117 101.19114 
L 252.989918 102.157201 
L 254.075719 107.705865 
L 255.16152 98.292954 
L 256.247321 94.25531 
L 257.333123 97.079183 
L 258.418924 103.990242 
L 259.504725 104.015013 
L 260.590526 98.441579 
L 261.676327 95.692018 
L 262.762128 97.351662 
L 263.847929 101.711327 
L 264.933731 99.680119 
L 266.019532 104.386575 
L 267.105333 96.558996 
L 268.191134 104.708596 
L 269.276935 98.119558 
L 270.362736 94.354393 
L 271.448538 98.738828 
L 272.534339 96.236976 
L 273.62014 98.466349 
L 274.705941 99.110391 
L 275.791742 97.747996 
L 276.877543 95.023205 
L 277.963344 98.094787 
L 279.049146 96.236976 
L 280.134947 93.536956 
L 281.220748 100.225078 
L 282.306549 93.66081 
L 283.39235 97.401204 
L 284.478151 98.416808 
L 285.563953 96.633309 
L 286.649754 92.075478 
L 287.735555 96.410371 
L 288.821356 89.499313 
L 289.907157 96.038809 
L 290.992958 94.205768 
L 292.07876 99.853515 
L 293.164561 96.881017 
L 294.250362 91.753457 
L 295.336163 94.478247 
L 296.421964 92.001165 
L 297.507765 93.611269 
L 298.593566 91.976395 
L 299.679368 94.453477 
L 300.765169 90.762624 
L 301.85097 94.205768 
L 302.936771 91.555291 
L 304.022572 94.998435 
L 305.108373 92.694748 
L 306.194175 91.728686 
L 307.279976 91.728686 
L 308.365777 88.310313 
L 309.451578 91.877311 
L 310.537379 92.025936 
L 311.62318 88.657105 
L 312.708981 87.641501 
L 313.794783 89.747021 
L 314.880584 89.548854 
L 315.966385 90.069041 
L 317.052186 88.954355 
L 318.137987 90.093812 
L 319.223788 92.669978 
L 320.30959 89.747021 
L 321.395391 88.013063 
L 322.481192 91.208499 
L 323.566993 89.028667 
L 324.652794 87.567189 
L 325.738595 89.226834 
L 326.824396 84.247899 
L 327.910198 87.121314 
L 328.995999 83.133212 
L 330.0818 86.10571 
L 331.167601 86.824064 
L 332.253402 86.923147 
L 333.339203 83.182754 
L 334.425005 87.715814 
L 335.510806 83.009358 
L 336.596607 87.022231 
L 337.682408 82.835962 
L 338.768209 84.247899 
L 339.85401 83.430462 
L 340.939811 83.777253 
L 342.025613 84.396524 
L 343.111414 83.430462 
L 344.197215 82.811191 
L 345.283016 82.736879 
L 346.368817 82.390087 
L 347.454618 82.78642 
L 348.54042 81.473567 
L 349.626221 81.002921 
L 350.712022 81.324942 
L 351.797823 80.457963 
L 352.883624 81.795588 
L 353.969425 79.417589 
L 355.055227 78.104735 
L 356.141028 79.76438 
L 357.226829 80.111172 
L 358.31263 79.095568 
L 360.484232 78.302902 
L 361.570033 77.535007 
L 362.655835 78.575381 
L 363.741636 78.971714 
L 364.827437 77.064361 
L 365.913238 77.708402 
L 366.999039 77.188215 
L 368.08484 77.188215 
L 369.170642 77.609319 
L 370.256443 78.179048 
L 371.342244 80.680901 
L 372.428045 79.73961 
L 373.513846 78.476298 
L 374.599647 83.628628 
L 375.685448 78.84786 
L 376.77125 81.547879 
L 377.857051 81.077234 
L 378.942852 83.207524 
L 380.028653 82.018525 
L 381.114454 82.76165 
L 382.200255 81.424025 
L 383.286057 82.637796 
L 384.371858 81.424025 
L 385.457659 79.640526 
L 386.54346 79.714839 
L 387.629261 80.309338 
L 388.715062 79.937776 
L 389.800863 80.06163 
L 390.886665 82.216692 
L 391.972466 80.235026 
L 393.058267 80.160714 
L 394.144068 81.424025 
L 395.229869 78.22859 
L 396.31567 81.448796 
L 398.487273 81.845129 
L 398.487273 81.845129 
" clip-path="url(#pf3e6bb6bdd)" style="fill: none; stroke: #2ca02c; stroke-width: 1.5; stroke-linecap: square"/>
   </g>
   <g id="line2d_21">
    <path d="M 368.08484 54.358189 
L 369.170642 54.430025 
L 370.256443 54.717366 
L 372.428045 54.430025 
L 374.599647 54.394107 
L 375.685448 54.142683 
L 376.77125 55.220214 
L 377.857051 54.070848 
L 378.942852 54.753284 
L 380.028653 54.178601 
L 381.114454 54.861037 
L 382.200255 53.999012 
L 383.286057 54.537778 
L 384.371858 54.717366 
L 385.457659 54.070848 
L 386.54346 54.465942 
L 388.715062 54.50186 
L 389.800863 54.286354 
L 390.886665 53.927177 
L 391.972466 54.96879 
L 394.144068 53.568 
L 395.229869 54.753284 
L 396.31567 53.603918 
L 397.401472 54.430025 
L 398.487273 54.645531 
L 398.487273 54.645531 
" clip-path="url(#pf3e6bb6bdd)" style="fill: none; stroke: #d62728; stroke-width: 1.5; stroke-linecap: square"/>
   </g>
   <g id="line2d_22">
    <path d="M 368.08484 76.71757 
L 369.170642 76.568945 
L 370.256443 75.503799 
L 371.342244 75.999216 
L 372.428045 76.172612 
L 373.513846 74.983612 
L 374.599647 77.460694 
L 375.685448 77.559777 
L 376.77125 77.906569 
L 377.857051 77.089132 
L 378.942852 75.999216 
L 380.028653 76.990049 
L 382.200255 75.751508 
L 383.286057 75.82582 
L 384.371858 75.776278 
L 385.457659 74.711133 
L 386.54346 75.132237 
L 387.629261 77.708402 
L 388.715062 77.188215 
L 389.800863 77.535007 
L 390.886665 75.157008 
L 391.972466 75.999216 
L 393.058267 75.850591 
L 394.144068 75.52857 
L 396.31567 76.222153 
L 397.401472 77.03959 
L 398.487273 76.965278 
L 398.487273 76.965278 
" clip-path="url(#pf3e6bb6bdd)" style="fill: none; stroke: #9467bd; stroke-width: 1.5; stroke-linecap: square"/>
   </g>
   <g id="patch_3">
    <path d="M 57.6 307.584 
L 57.6 41.472 
" style="fill: none; stroke: #000000; stroke-width: 0.8; stroke-linejoin: miter; stroke-linecap: square"/>
   </g>
   <g id="patch_4">
    <path d="M 414.72 307.584 
L 414.72 41.472 
" style="fill: none; stroke: #000000; stroke-width: 0.8; stroke-linejoin: miter; stroke-linecap: square"/>
   </g>
   <g id="patch_5">
    <path d="M 57.6 307.584 
L 414.72 307.584 
" style="fill: none; stroke: #000000; stroke-width: 0.8; stroke-linejoin: miter; stroke-linecap: square"/>
   </g>
   <g id="patch_6">
    <path d="M 57.6 41.472 
L 414.72 41.472 
" style="fill: none; stroke: #000000; stroke-width: 0.8; stroke-linejoin: miter; stroke-linecap: square"/>
   </g>
   <g id="text_20">
    <!-- Learning Curves -->
    <g transform="translate(187.37625 35.472) scale(0.12 -0.12)">
     <defs>
      <path id="DejaVuSans-4c" d="M 628 4666 
L 1259 4666 
L 1259 531 
L 3531 531 
L 3531 0 
L 628 0 
L 628 4666 
z
" transform="scale(0.015625)"/>
      <path id="DejaVuSans-65" d="M 3597 1894 
L 3597 1613 
L 953 1613 
Q 991 1019 1311 708 
Q 1631 397 2203 397 
Q 2534 397 2845 478 
Q 3156 559 3463 722 
L 3463 178 
Q 3153 47 2828 -22 
Q 2503 -91 2169 -91 
Q 1331 -91 842 396 
Q 353 884 353 1716 
Q 353 2575 817 3079 
Q 1281 3584 2069 3584 
Q 2775 3584 3186 3129 
Q 3597 2675 3597 1894 
z
M 3022 2063 
Q 3016 2534 2758 2815 
Q 2500 3097 2075 3097 
Q 1594 3097 1305 2825 
Q 1016 2553 972 2059 
L 3022 2063 
z
" transform="scale(0.015625)"/>
      <path id="DejaVuSans-6e" d="M 3513 2113 
L 3513 0 
L 2938 0 
L 2938 2094 
Q 2938 2591 2744 2837 
Q 2550 3084 2163 3084 
Q 1697 3084 1428 2787 
Q 1159 2491 1159 1978 
L 1159 0 
L 581 0 
L 581 3500 
L 1159 3500 
L 1159 2956 
Q 1366 3272 1645 3428 
Q 1925 3584 2291 3584 
Q 2894 3584 3203 3211 
Q 3513 2838 3513 2113 
z
" transform="scale(0.015625)"/>
      <path id="DejaVuSans-69" d="M 603 3500 
L 1178 3500 
L 1178 0 
L 603 0 
L 603 3500 
z
M 603 4863 
L 1178 4863 
L 1178 4134 
L 603 4134 
L 603 4863 
z
" transform="scale(0.015625)"/>
      <path id="DejaVuSans-67" d="M 2906 1791 
Q 2906 2416 2648 2759 
Q 2391 3103 1925 3103 
Q 1463 3103 1205 2759 
Q 947 2416 947 1791 
Q 947 1169 1205 825 
Q 1463 481 1925 481 
Q 2391 481 2648 825 
Q 2906 1169 2906 1791 
z
M 3481 434 
Q 3481 -459 3084 -895 
Q 2688 -1331 1869 -1331 
Q 1566 -1331 1297 -1286 
Q 1028 -1241 775 -1147 
L 775 -588 
Q 1028 -725 1275 -790 
Q 1522 -856 1778 -856 
Q 2344 -856 2625 -561 
Q 2906 -266 2906 331 
L 2906 616 
Q 2728 306 2450 153 
Q 2172 0 1784 0 
Q 1141 0 747 490 
Q 353 981 353 1791 
Q 353 2603 747 3093 
Q 1141 3584 1784 3584 
Q 2172 3584 2450 3431 
Q 2728 3278 2906 2969 
L 2906 3500 
L 3481 3500 
L 3481 434 
z
" transform="scale(0.015625)"/>
      <path id="DejaVuSans-20" transform="scale(0.015625)"/>
      <path id="DejaVuSans-43" d="M 4122 4306 
L 4122 3641 
Q 3803 3938 3442 4084 
Q 3081 4231 2675 4231 
Q 1875 4231 1450 3742 
Q 1025 3253 1025 2328 
Q 1025 1406 1450 917 
Q 1875 428 2675 428 
Q 3081 428 3442 575 
Q 3803 722 4122 1019 
L 4122 359 
Q 3791 134 3420 21 
Q 3050 -91 2638 -91 
Q 1578 -91 968 557 
Q 359 1206 359 2328 
Q 359 3453 968 4101 
Q 1578 4750 2638 4750 
Q 3056 4750 3426 4639 
Q 3797 4528 4122 4306 
z
" transform="scale(0.015625)"/>
      <path id="DejaVuSans-76" d="M 191 3500 
L 800 3500 
L 1894 563 
L 2988 3500 
L 3597 3500 
L 2284 0 
L 1503 0 
L 191 3500 
z
" transform="scale(0.015625)"/>
     </defs>
     <use xlink:href="#DejaVuSans-4c"/>
     <use xlink:href="#DejaVuSans-65" x="53.962891"/>
     <use xlink:href="#DejaVuSans-61" x="115.486328"/>
     <use xlink:href="#DejaVuSans-72" x="176.765625"/>
     <use xlink:href="#DejaVuSans-6e" x="216.128906"/>
     <use xlink:href="#DejaVuSans-69" x="279.507812"/>
     <use xlink:href="#DejaVuSans-6e" x="307.291016"/>
     <use xlink:href="#DejaVuSans-67" x="370.669922"/>
     <use xlink:href="#DejaVuSans-20" x="434.146484"/>
     <use xlink:href="#DejaVuSans-43" x="465.933594"/>
     <use xlink:href="#DejaVuSans-75" x="535.757812"/>
     <use xlink:href="#DejaVuSans-72" x="599.136719"/>
     <use xlink:href="#DejaVuSans-76" x="640.25"/>
     <use xlink:href="#DejaVuSans-65" x="699.429688"/>
     <use xlink:href="#DejaVuSans-73" x="760.953125"/>
    </g>
   </g>
   <g id="legend_1">
    <g id="patch_7">
     <path d="M 214.18875 302.584 
L 407.72 302.584 
Q 409.72 302.584 409.72 300.584 
L 409.72 228.193375 
Q 409.72 226.193375 407.72 226.193375 
L 214.18875 226.193375 
Q 212.18875 226.193375 212.18875 228.193375 
L 212.18875 300.584 
Q 212.18875 302.584 214.18875 302.584 
z
" style="fill: #ffffff; opacity: 0.8; stroke: #cccccc; stroke-linejoin: miter"/>
    </g>
    <g id="line2d_23">
     <path d="M 216.18875 234.291812 
L 226.18875 234.291812 
L 236.18875 234.291812 
" style="fill: none; stroke: #1f77b4; stroke-width: 1.5; stroke-linecap: square"/>
    </g>
    <g id="text_21">
     <!-- Train Accuracy -->
     <g transform="translate(244.18875 237.791812) scale(0.1 -0.1)">
      <defs>
       <path id="DejaVuSans-54" d="M -19 4666 
L 3928 4666 
L 3928 4134 
L 2272 4134 
L 2272 0 
L 1638 0 
L 1638 4134 
L -19 4134 
L -19 4666 
z
" transform="scale(0.015625)"/>
      </defs>
      <use xlink:href="#DejaVuSans-54"/>
      <use xlink:href="#DejaVuSans-72" x="46.333984"/>
      <use xlink:href="#DejaVuSans-61" x="87.447266"/>
      <use xlink:href="#DejaVuSans-69" x="148.726562"/>
      <use xlink:href="#DejaVuSans-6e" x="176.509766"/>
      <use xlink:href="#DejaVuSans-20" x="239.888672"/>
      <use xlink:href="#DejaVuSans-41" x="271.675781"/>
      <use xlink:href="#DejaVuSans-63" x="338.333984"/>
      <use xlink:href="#DejaVuSans-63" x="393.314453"/>
      <use xlink:href="#DejaVuSans-75" x="448.294922"/>
      <use xlink:href="#DejaVuSans-72" x="511.673828"/>
      <use xlink:href="#DejaVuSans-61" x="552.787109"/>
      <use xlink:href="#DejaVuSans-63" x="614.066406"/>
      <use xlink:href="#DejaVuSans-79" x="669.046875"/>
     </g>
    </g>
    <g id="line2d_24">
     <path d="M 216.18875 248.969937 
L 226.18875 248.969937 
L 236.18875 248.969937 
" style="fill: none; stroke: #ff7f0e; stroke-width: 1.5; stroke-linecap: square"/>
    </g>
    <g id="text_22">
     <!-- Validation Accuracy -->
     <g transform="translate(244.18875 252.469937) scale(0.1 -0.1)">
      <defs>
       <path id="DejaVuSans-56" d="M 1831 0 
L 50 4666 
L 709 4666 
L 2188 738 
L 3669 4666 
L 4325 4666 
L 2547 0 
L 1831 0 
z
" transform="scale(0.015625)"/>
       <path id="DejaVuSans-6c" d="M 603 4863 
L 1178 4863 
L 1178 0 
L 603 0 
L 603 4863 
z
" transform="scale(0.015625)"/>
       <path id="DejaVuSans-64" d="M 2906 2969 
L 2906 4863 
L 3481 4863 
L 3481 0 
L 2906 0 
L 2906 525 
Q 2725 213 2448 61 
Q 2172 -91 1784 -91 
Q 1150 -91 751 415 
Q 353 922 353 1747 
Q 353 2572 751 3078 
Q 1150 3584 1784 3584 
Q 2172 3584 2448 3432 
Q 2725 3281 2906 2969 
z
M 947 1747 
Q 947 1113 1208 752 
Q 1469 391 1925 391 
Q 2381 391 2643 752 
Q 2906 1113 2906 1747 
Q 2906 2381 2643 2742 
Q 2381 3103 1925 3103 
Q 1469 3103 1208 2742 
Q 947 2381 947 1747 
z
" transform="scale(0.015625)"/>
       <path id="DejaVuSans-74" d="M 1172 4494 
L 1172 3500 
L 2356 3500 
L 2356 3053 
L 1172 3053 
L 1172 1153 
Q 1172 725 1289 603 
Q 1406 481 1766 481 
L 2356 481 
L 2356 0 
L 1766 0 
Q 1100 0 847 248 
Q 594 497 594 1153 
L 594 3053 
L 172 3053 
L 172 3500 
L 594 3500 
L 594 4494 
L 1172 4494 
z
" transform="scale(0.015625)"/>
      </defs>
      <use xlink:href="#DejaVuSans-56"/>
      <use xlink:href="#DejaVuSans-61" x="60.658203"/>
      <use xlink:href="#DejaVuSans-6c" x="121.9375"/>
      <use xlink:href="#DejaVuSans-69" x="149.720703"/>
      <use xlink:href="#DejaVuSans-64" x="177.503906"/>
      <use xlink:href="#DejaVuSans-61" x="240.980469"/>
      <use xlink:href="#DejaVuSans-74" x="302.259766"/>
      <use xlink:href="#DejaVuSans-69" x="341.46875"/>
      <use xlink:href="#DejaVuSans-6f" x="369.251953"/>
      <use xlink:href="#DejaVuSans-6e" x="430.433594"/>
      <use xlink:href="#DejaVuSans-20" x="493.8125"/>
      <use xlink:href="#DejaVuSans-41" x="525.599609"/>
      <use xlink:href="#DejaVuSans-63" x="592.257812"/>
      <use xlink:href="#DejaVuSans-63" x="647.238281"/>
      <use xlink:href="#DejaVuSans-75" x="702.21875"/>
      <use xlink:href="#DejaVuSans-72" x="765.597656"/>
      <use xlink:href="#DejaVuSans-61" x="806.710938"/>
      <use xlink:href="#DejaVuSans-63" x="867.990234"/>
      <use xlink:href="#DejaVuSans-79" x="922.970703"/>
     </g>
    </g>
    <g id="line2d_25">
     <path d="M 216.18875 263.648062 
L 226.18875 263.648062 
L 236.18875 263.648062 
" style="fill: none; stroke: #2ca02c; stroke-width: 1.5; stroke-linecap: square"/>
    </g>
    <g id="text_23">
     <!-- Robust Validation Accuracy -->
     <g transform="translate(244.18875 267.148062) scale(0.1 -0.1)">
      <defs>
       <path id="DejaVuSans-52" d="M 2841 2188 
Q 3044 2119 3236 1894 
Q 3428 1669 3622 1275 
L 4263 0 
L 3584 0 
L 2988 1197 
Q 2756 1666 2539 1819 
Q 2322 1972 1947 1972 
L 1259 1972 
L 1259 0 
L 628 0 
L 628 4666 
L 2053 4666 
Q 2853 4666 3247 4331 
Q 3641 3997 3641 3322 
Q 3641 2881 3436 2590 
Q 3231 2300 2841 2188 
z
M 1259 4147 
L 1259 2491 
L 2053 2491 
Q 2509 2491 2742 2702 
Q 2975 2913 2975 3322 
Q 2975 3731 2742 3939 
Q 2509 4147 2053 4147 
L 1259 4147 
z
" transform="scale(0.015625)"/>
       <path id="DejaVuSans-62" d="M 3116 1747 
Q 3116 2381 2855 2742 
Q 2594 3103 2138 3103 
Q 1681 3103 1420 2742 
Q 1159 2381 1159 1747 
Q 1159 1113 1420 752 
Q 1681 391 2138 391 
Q 2594 391 2855 752 
Q 3116 1113 3116 1747 
z
M 1159 2969 
Q 1341 3281 1617 3432 
Q 1894 3584 2278 3584 
Q 2916 3584 3314 3078 
Q 3713 2572 3713 1747 
Q 3713 922 3314 415 
Q 2916 -91 2278 -91 
Q 1894 -91 1617 61 
Q 1341 213 1159 525 
L 1159 0 
L 581 0 
L 581 4863 
L 1159 4863 
L 1159 2969 
z
" transform="scale(0.015625)"/>
      </defs>
      <use xlink:href="#DejaVuSans-52"/>
      <use xlink:href="#DejaVuSans-6f" x="64.982422"/>
      <use xlink:href="#DejaVuSans-62" x="126.164062"/>
      <use xlink:href="#DejaVuSans-75" x="189.640625"/>
      <use xlink:href="#DejaVuSans-73" x="253.019531"/>
      <use xlink:href="#DejaVuSans-74" x="305.119141"/>
      <use xlink:href="#DejaVuSans-20" x="344.328125"/>
      <use xlink:href="#DejaVuSans-56" x="376.115234"/>
      <use xlink:href="#DejaVuSans-61" x="436.773438"/>
      <use xlink:href="#DejaVuSans-6c" x="498.052734"/>
      <use xlink:href="#DejaVuSans-69" x="525.835938"/>
      <use xlink:href="#DejaVuSans-64" x="553.619141"/>
      <use xlink:href="#DejaVuSans-61" x="617.095703"/>
      <use xlink:href="#DejaVuSans-74" x="678.375"/>
      <use xlink:href="#DejaVuSans-69" x="717.583984"/>
      <use xlink:href="#DejaVuSans-6f" x="745.367188"/>
      <use xlink:href="#DejaVuSans-6e" x="806.548828"/>
      <use xlink:href="#DejaVuSans-20" x="869.927734"/>
      <use xlink:href="#DejaVuSans-41" x="901.714844"/>
      <use xlink:href="#DejaVuSans-63" x="968.373047"/>
      <use xlink:href="#DejaVuSans-63" x="1023.353516"/>
      <use xlink:href="#DejaVuSans-75" x="1078.333984"/>
      <use xlink:href="#DejaVuSans-72" x="1141.712891"/>
      <use xlink:href="#DejaVuSans-61" x="1182.826172"/>
      <use xlink:href="#DejaVuSans-63" x="1244.105469"/>
      <use xlink:href="#DejaVuSans-79" x="1299.085938"/>
     </g>
    </g>
    <g id="line2d_26">
     <path d="M 216.18875 278.326188 
L 226.18875 278.326188 
L 236.18875 278.326188 
" style="fill: none; stroke: #d62728; stroke-width: 1.5; stroke-linecap: square"/>
    </g>
    <g id="text_24">
     <!-- SWA Validation Accuracy -->
     <g transform="translate(244.18875 281.826188) scale(0.1 -0.1)">
      <defs>
       <path id="DejaVuSans-53" d="M 3425 4513 
L 3425 3897 
Q 3066 4069 2747 4153 
Q 2428 4238 2131 4238 
Q 1616 4238 1336 4038 
Q 1056 3838 1056 3469 
Q 1056 3159 1242 3001 
Q 1428 2844 1947 2747 
L 2328 2669 
Q 3034 2534 3370 2195 
Q 3706 1856 3706 1288 
Q 3706 609 3251 259 
Q 2797 -91 1919 -91 
Q 1588 -91 1214 -16 
Q 841 59 441 206 
L 441 856 
Q 825 641 1194 531 
Q 1563 422 1919 422 
Q 2459 422 2753 634 
Q 3047 847 3047 1241 
Q 3047 1584 2836 1778 
Q 2625 1972 2144 2069 
L 1759 2144 
Q 1053 2284 737 2584 
Q 422 2884 422 3419 
Q 422 4038 858 4394 
Q 1294 4750 2059 4750 
Q 2388 4750 2728 4690 
Q 3069 4631 3425 4513 
z
" transform="scale(0.015625)"/>
       <path id="DejaVuSans-57" d="M 213 4666 
L 850 4666 
L 1831 722 
L 2809 4666 
L 3519 4666 
L 4500 722 
L 5478 4666 
L 6119 4666 
L 4947 0 
L 4153 0 
L 3169 4050 
L 2175 0 
L 1381 0 
L 213 4666 
z
" transform="scale(0.015625)"/>
      </defs>
      <use xlink:href="#DejaVuSans-53"/>
      <use xlink:href="#DejaVuSans-57" x="63.476562"/>
      <use xlink:href="#DejaVuSans-41" x="156.853516"/>
      <use xlink:href="#DejaVuSans-20" x="225.261719"/>
      <use xlink:href="#DejaVuSans-56" x="257.048828"/>
      <use xlink:href="#DejaVuSans-61" x="317.707031"/>
      <use xlink:href="#DejaVuSans-6c" x="378.986328"/>
      <use xlink:href="#DejaVuSans-69" x="406.769531"/>
      <use xlink:href="#DejaVuSans-64" x="434.552734"/>
      <use xlink:href="#DejaVuSans-61" x="498.029297"/>
      <use xlink:href="#DejaVuSans-74" x="559.308594"/>
      <use xlink:href="#DejaVuSans-69" x="598.517578"/>
      <use xlink:href="#DejaVuSans-6f" x="626.300781"/>
      <use xlink:href="#DejaVuSans-6e" x="687.482422"/>
      <use xlink:href="#DejaVuSans-20" x="750.861328"/>
      <use xlink:href="#DejaVuSans-41" x="782.648438"/>
      <use xlink:href="#DejaVuSans-63" x="849.306641"/>
      <use xlink:href="#DejaVuSans-63" x="904.287109"/>
      <use xlink:href="#DejaVuSans-75" x="959.267578"/>
      <use xlink:href="#DejaVuSans-72" x="1022.646484"/>
      <use xlink:href="#DejaVuSans-61" x="1063.759766"/>
      <use xlink:href="#DejaVuSans-63" x="1125.039062"/>
      <use xlink:href="#DejaVuSans-79" x="1180.019531"/>
     </g>
    </g>
    <g id="line2d_27">
     <path d="M 216.18875 293.004312 
L 226.18875 293.004312 
L 236.18875 293.004312 
" style="fill: none; stroke: #9467bd; stroke-width: 1.5; stroke-linecap: square"/>
    </g>
    <g id="text_25">
     <!-- SWA Robust Validation Accuracy -->
     <g transform="translate(244.18875 296.504312) scale(0.1 -0.1)">
      <use xlink:href="#DejaVuSans-53"/>
      <use xlink:href="#DejaVuSans-57" x="63.476562"/>
      <use xlink:href="#DejaVuSans-41" x="156.853516"/>
      <use xlink:href="#DejaVuSans-20" x="225.261719"/>
      <use xlink:href="#DejaVuSans-52" x="257.048828"/>
      <use xlink:href="#DejaVuSans-6f" x="322.03125"/>
      <use xlink:href="#DejaVuSans-62" x="383.212891"/>
      <use xlink:href="#DejaVuSans-75" x="446.689453"/>
      <use xlink:href="#DejaVuSans-73" x="510.068359"/>
      <use xlink:href="#DejaVuSans-74" x="562.167969"/>
      <use xlink:href="#DejaVuSans-20" x="601.376953"/>
      <use xlink:href="#DejaVuSans-56" x="633.164062"/>
      <use xlink:href="#DejaVuSans-61" x="693.822266"/>
      <use xlink:href="#DejaVuSans-6c" x="755.101562"/>
      <use xlink:href="#DejaVuSans-69" x="782.884766"/>
      <use xlink:href="#DejaVuSans-64" x="810.667969"/>
      <use xlink:href="#DejaVuSans-61" x="874.144531"/>
      <use xlink:href="#DejaVuSans-74" x="935.423828"/>
      <use xlink:href="#DejaVuSans-69" x="974.632812"/>
      <use xlink:href="#DejaVuSans-6f" x="1002.416016"/>
      <use xlink:href="#DejaVuSans-6e" x="1063.597656"/>
      <use xlink:href="#DejaVuSans-20" x="1126.976562"/>
      <use xlink:href="#DejaVuSans-41" x="1158.763672"/>
      <use xlink:href="#DejaVuSans-63" x="1225.421875"/>
      <use xlink:href="#DejaVuSans-63" x="1280.402344"/>
      <use xlink:href="#DejaVuSans-75" x="1335.382812"/>
      <use xlink:href="#DejaVuSans-72" x="1398.761719"/>
      <use xlink:href="#DejaVuSans-61" x="1439.875"/>
      <use xlink:href="#DejaVuSans-63" x="1501.154297"/>
      <use xlink:href="#DejaVuSans-79" x="1556.134766"/>
     </g>
    </g>
   </g>
  </g>
 </g>
 <defs>
  <clipPath id="pf3e6bb6bdd">
   <rect x="57.6" y="41.472" width="357.12" height="266.112"/>
  </clipPath>
 </defs>
</svg>
