<?xml version="1.0" encoding="utf-8" standalone="no"?>
<!DOCTYPE svg PUBLIC "-//W3C//DTD SVG 1.1//EN"
  "http://www.w3.org/Graphics/SVG/1.1/DTD/svg11.dtd">
<svg xmlns:xlink="http://www.w3.org/1999/xlink" width="460.8pt" height="345.6pt" viewBox="0 0 460.8 345.6" xmlns="http://www.w3.org/2000/svg" version="1.1">
 <metadata>
  <rdf:RDF xmlns:dc="http://purl.org/dc/elements/1.1/" xmlns:cc="http://creativecommons.org/ns#" xmlns:rdf="http://www.w3.org/1999/02/22-rdf-syntax-ns#">
   <cc:Work>
    <dc:type rdf:resource="http://purl.org/dc/dcmitype/StillImage"/>
    <dc:date>2025-06-27T11:40:01.108545</dc:date>
    <dc:format>image/svg+xml</dc:format>
    <dc:creator>
     <cc:Agent>
      <dc:title>Matplotlib v3.9.1, https://matplotlib.org/</dc:title>
     </cc:Agent>
    </dc:creator>
   </cc:Work>
  </rdf:RDF>
 </metadata>
 <defs>
  <style type="text/css">*{stroke-linejoin: round; stroke-linecap: butt}</style>
 </defs>
 <g id="figure_1">
  <g id="patch_1">
   <path d="M 0 345.6 
L 460.8 345.6 
L 460.8 0 
L 0 0 
z
" style="fill: #ffffff"/>
  </g>
  <g id="axes_1">
   <g id="patch_2">
    <path d="M 57.6 307.584 
L 414.72 307.584 
L 414.72 41.472 
L 57.6 41.472 
z
" style="fill: #ffffff"/>
   </g>
   <g id="matplotlib.axis_1">
    <g id="xtick_1">
     <g id="line2d_1">
      <defs>
       <path id="m59d8b2ee78" d="M 0 0 
L 0 3.5 
" style="stroke: #000000; stroke-width: 0.8"/>
      </defs>
      <g>
       <use xlink:href="#m59d8b2ee78" x="73.832727" y="307.584" style="stroke: #000000; stroke-width: 0.8"/>
      </g>
     </g>
     <g id="text_1">
      <!-- 1 -->
      <g transform="translate(70.651477 322.182437) scale(0.1 -0.1)">
       <defs>
        <path id="DejaVuSans-31" d="M 794 531 
L 1825 531 
L 1825 4091 
L 703 3866 
L 703 4441 
L 1819 4666 
L 2450 4666 
L 2450 531 
L 3481 531 
L 3481 0 
L 794 0 
L 794 531 
z
" transform="scale(0.015625)"/>
       </defs>
       <use xlink:href="#DejaVuSans-31"/>
      </g>
     </g>
    </g>
    <g id="xtick_2">
     <g id="line2d_2">
      <g>
       <use xlink:href="#m59d8b2ee78" x="109.664165" y="307.584" style="stroke: #000000; stroke-width: 0.8"/>
      </g>
     </g>
     <g id="text_2">
      <!-- 34 -->
      <g transform="translate(103.301665 322.182437) scale(0.1 -0.1)">
       <defs>
        <path id="DejaVuSans-33" d="M 2597 2516 
Q 3050 2419 3304 2112 
Q 3559 1806 3559 1356 
Q 3559 666 3084 287 
Q 2609 -91 1734 -91 
Q 1441 -91 1130 -33 
Q 819 25 488 141 
L 488 750 
Q 750 597 1062 519 
Q 1375 441 1716 441 
Q 2309 441 2620 675 
Q 2931 909 2931 1356 
Q 2931 1769 2642 2001 
Q 2353 2234 1838 2234 
L 1294 2234 
L 1294 2753 
L 1863 2753 
Q 2328 2753 2575 2939 
Q 2822 3125 2822 3475 
Q 2822 3834 2567 4026 
Q 2313 4219 1838 4219 
Q 1578 4219 1281 4162 
Q 984 4106 628 3988 
L 628 4550 
Q 988 4650 1302 4700 
Q 1616 4750 1894 4750 
Q 2613 4750 3031 4423 
Q 3450 4097 3450 3541 
Q 3450 3153 3228 2886 
Q 3006 2619 2597 2516 
z
" transform="scale(0.015625)"/>
        <path id="DejaVuSans-34" d="M 2419 4116 
L 825 1625 
L 2419 1625 
L 2419 4116 
z
M 2253 4666 
L 3047 4666 
L 3047 1625 
L 3713 1625 
L 3713 1100 
L 3047 1100 
L 3047 0 
L 2419 0 
L 2419 1100 
L 313 1100 
L 313 1709 
L 2253 4666 
z
" transform="scale(0.015625)"/>
       </defs>
       <use xlink:href="#DejaVuSans-33"/>
       <use xlink:href="#DejaVuSans-34" x="63.623047"/>
      </g>
     </g>
    </g>
    <g id="xtick_3">
     <g id="line2d_3">
      <g>
       <use xlink:href="#m59d8b2ee78" x="145.495604" y="307.584" style="stroke: #000000; stroke-width: 0.8"/>
      </g>
     </g>
     <g id="text_3">
      <!-- 67 -->
      <g transform="translate(139.133104 322.182437) scale(0.1 -0.1)">
       <defs>
        <path id="DejaVuSans-36" d="M 2113 2584 
Q 1688 2584 1439 2293 
Q 1191 2003 1191 1497 
Q 1191 994 1439 701 
Q 1688 409 2113 409 
Q 2538 409 2786 701 
Q 3034 994 3034 1497 
Q 3034 2003 2786 2293 
Q 2538 2584 2113 2584 
z
M 3366 4563 
L 3366 3988 
Q 3128 4100 2886 4159 
Q 2644 4219 2406 4219 
Q 1781 4219 1451 3797 
Q 1122 3375 1075 2522 
Q 1259 2794 1537 2939 
Q 1816 3084 2150 3084 
Q 2853 3084 3261 2657 
Q 3669 2231 3669 1497 
Q 3669 778 3244 343 
Q 2819 -91 2113 -91 
Q 1303 -91 875 529 
Q 447 1150 447 2328 
Q 447 3434 972 4092 
Q 1497 4750 2381 4750 
Q 2619 4750 2861 4703 
Q 3103 4656 3366 4563 
z
" transform="scale(0.015625)"/>
        <path id="DejaVuSans-37" d="M 525 4666 
L 3525 4666 
L 3525 4397 
L 1831 0 
L 1172 0 
L 2766 4134 
L 525 4134 
L 525 4666 
z
" transform="scale(0.015625)"/>
       </defs>
       <use xlink:href="#DejaVuSans-36"/>
       <use xlink:href="#DejaVuSans-37" x="63.623047"/>
      </g>
     </g>
    </g>
    <g id="xtick_4">
     <g id="line2d_4">
      <g>
       <use xlink:href="#m59d8b2ee78" x="181.327042" y="307.584" style="stroke: #000000; stroke-width: 0.8"/>
      </g>
     </g>
     <g id="text_4">
      <!-- 100 -->
      <g transform="translate(171.783292 322.182437) scale(0.1 -0.1)">
       <defs>
        <path id="DejaVuSans-30" d="M 2034 4250 
Q 1547 4250 1301 3770 
Q 1056 3291 1056 2328 
Q 1056 1369 1301 889 
Q 1547 409 2034 409 
Q 2525 409 2770 889 
Q 3016 1369 3016 2328 
Q 3016 3291 2770 3770 
Q 2525 4250 2034 4250 
z
M 2034 4750 
Q 2819 4750 3233 4129 
Q 3647 3509 3647 2328 
Q 3647 1150 3233 529 
Q 2819 -91 2034 -91 
Q 1250 -91 836 529 
Q 422 1150 422 2328 
Q 422 3509 836 4129 
Q 1250 4750 2034 4750 
z
" transform="scale(0.015625)"/>
       </defs>
       <use xlink:href="#DejaVuSans-31"/>
       <use xlink:href="#DejaVuSans-30" x="63.623047"/>
       <use xlink:href="#DejaVuSans-30" x="127.246094"/>
      </g>
     </g>
    </g>
    <g id="xtick_5">
     <g id="line2d_5">
      <g>
       <use xlink:href="#m59d8b2ee78" x="217.15848" y="307.584" style="stroke: #000000; stroke-width: 0.8"/>
      </g>
     </g>
     <g id="text_5">
      <!-- 133 -->
      <g transform="translate(207.61473 322.182437) scale(0.1 -0.1)">
       <use xlink:href="#DejaVuSans-31"/>
       <use xlink:href="#DejaVuSans-33" x="63.623047"/>
       <use xlink:href="#DejaVuSans-33" x="127.246094"/>
      </g>
     </g>
    </g>
    <g id="xtick_6">
     <g id="line2d_6">
      <g>
       <use xlink:href="#m59d8b2ee78" x="254.075719" y="307.584" style="stroke: #000000; stroke-width: 0.8"/>
      </g>
     </g>
     <g id="text_6">
      <!-- 167 -->
      <g transform="translate(244.531969 322.182437) scale(0.1 -0.1)">
       <use xlink:href="#DejaVuSans-31"/>
       <use xlink:href="#DejaVuSans-36" x="63.623047"/>
       <use xlink:href="#DejaVuSans-37" x="127.246094"/>
      </g>
     </g>
    </g>
    <g id="xtick_7">
     <g id="line2d_7">
      <g>
       <use xlink:href="#m59d8b2ee78" x="289.907157" y="307.584" style="stroke: #000000; stroke-width: 0.8"/>
      </g>
     </g>
     <g id="text_7">
      <!-- 200 -->
      <g transform="translate(280.363407 322.182437) scale(0.1 -0.1)">
       <defs>
        <path id="DejaVuSans-32" d="M 1228 531 
L 3431 531 
L 3431 0 
L 469 0 
L 469 531 
Q 828 903 1448 1529 
Q 2069 2156 2228 2338 
Q 2531 2678 2651 2914 
Q 2772 3150 2772 3378 
Q 2772 3750 2511 3984 
Q 2250 4219 1831 4219 
Q 1534 4219 1204 4116 
Q 875 4013 500 3803 
L 500 4441 
Q 881 4594 1212 4672 
Q 1544 4750 1819 4750 
Q 2544 4750 2975 4387 
Q 3406 4025 3406 3419 
Q 3406 3131 3298 2873 
Q 3191 2616 2906 2266 
Q 2828 2175 2409 1742 
Q 1991 1309 1228 531 
z
" transform="scale(0.015625)"/>
       </defs>
       <use xlink:href="#DejaVuSans-32"/>
       <use xlink:href="#DejaVuSans-30" x="63.623047"/>
       <use xlink:href="#DejaVuSans-30" x="127.246094"/>
      </g>
     </g>
    </g>
    <g id="xtick_8">
     <g id="line2d_8">
      <g>
       <use xlink:href="#m59d8b2ee78" x="325.738595" y="307.584" style="stroke: #000000; stroke-width: 0.8"/>
      </g>
     </g>
     <g id="text_8">
      <!-- 233 -->
      <g transform="translate(316.194845 322.182437) scale(0.1 -0.1)">
       <use xlink:href="#DejaVuSans-32"/>
       <use xlink:href="#DejaVuSans-33" x="63.623047"/>
       <use xlink:href="#DejaVuSans-33" x="127.246094"/>
      </g>
     </g>
    </g>
    <g id="xtick_9">
     <g id="line2d_9">
      <g>
       <use xlink:href="#m59d8b2ee78" x="361.570033" y="307.584" style="stroke: #000000; stroke-width: 0.8"/>
      </g>
     </g>
     <g id="text_9">
      <!-- 266 -->
      <g transform="translate(352.026283 322.182437) scale(0.1 -0.1)">
       <use xlink:href="#DejaVuSans-32"/>
       <use xlink:href="#DejaVuSans-36" x="63.623047"/>
       <use xlink:href="#DejaVuSans-36" x="127.246094"/>
      </g>
     </g>
    </g>
    <g id="xtick_10">
     <g id="line2d_10">
      <g>
       <use xlink:href="#m59d8b2ee78" x="398.487273" y="307.584" style="stroke: #000000; stroke-width: 0.8"/>
      </g>
     </g>
     <g id="text_10">
      <!-- 300 -->
      <g transform="translate(388.943523 322.182437) scale(0.1 -0.1)">
       <use xlink:href="#DejaVuSans-33"/>
       <use xlink:href="#DejaVuSans-30" x="63.623047"/>
       <use xlink:href="#DejaVuSans-30" x="127.246094"/>
      </g>
     </g>
    </g>
    <g id="text_11">
     <!-- Epochs -->
     <g transform="translate(218.244375 335.860562) scale(0.1 -0.1)">
      <defs>
       <path id="DejaVuSans-45" d="M 628 4666 
L 3578 4666 
L 3578 4134 
L 1259 4134 
L 1259 2753 
L 3481 2753 
L 3481 2222 
L 1259 2222 
L 1259 531 
L 3634 531 
L 3634 0 
L 628 0 
L 628 4666 
z
" transform="scale(0.015625)"/>
       <path id="DejaVuSans-70" d="M 1159 525 
L 1159 -1331 
L 581 -1331 
L 581 3500 
L 1159 3500 
L 1159 2969 
Q 1341 3281 1617 3432 
Q 1894 3584 2278 3584 
Q 2916 3584 3314 3078 
Q 3713 2572 3713 1747 
Q 3713 922 3314 415 
Q 2916 -91 2278 -91 
Q 1894 -91 1617 61 
Q 1341 213 1159 525 
z
M 3116 1747 
Q 3116 2381 2855 2742 
Q 2594 3103 2138 3103 
Q 1681 3103 1420 2742 
Q 1159 2381 1159 1747 
Q 1159 1113 1420 752 
Q 1681 391 2138 391 
Q 2594 391 2855 752 
Q 3116 1113 3116 1747 
z
" transform="scale(0.015625)"/>
       <path id="DejaVuSans-6f" d="M 1959 3097 
Q 1497 3097 1228 2736 
Q 959 2375 959 1747 
Q 959 1119 1226 758 
Q 1494 397 1959 397 
Q 2419 397 2687 759 
Q 2956 1122 2956 1747 
Q 2956 2369 2687 2733 
Q 2419 3097 1959 3097 
z
M 1959 3584 
Q 2709 3584 3137 3096 
Q 3566 2609 3566 1747 
Q 3566 888 3137 398 
Q 2709 -91 1959 -91 
Q 1206 -91 779 398 
Q 353 888 353 1747 
Q 353 2609 779 3096 
Q 1206 3584 1959 3584 
z
" transform="scale(0.015625)"/>
       <path id="DejaVuSans-63" d="M 3122 3366 
L 3122 2828 
Q 2878 2963 2633 3030 
Q 2388 3097 2138 3097 
Q 1578 3097 1268 2742 
Q 959 2388 959 1747 
Q 959 1106 1268 751 
Q 1578 397 2138 397 
Q 2388 397 2633 464 
Q 2878 531 3122 666 
L 3122 134 
Q 2881 22 2623 -34 
Q 2366 -91 2075 -91 
Q 1284 -91 818 406 
Q 353 903 353 1747 
Q 353 2603 823 3093 
Q 1294 3584 2113 3584 
Q 2378 3584 2631 3529 
Q 2884 3475 3122 3366 
z
" transform="scale(0.015625)"/>
       <path id="DejaVuSans-68" d="M 3513 2113 
L 3513 0 
L 2938 0 
L 2938 2094 
Q 2938 2591 2744 2837 
Q 2550 3084 2163 3084 
Q 1697 3084 1428 2787 
Q 1159 2491 1159 1978 
L 1159 0 
L 581 0 
L 581 4863 
L 1159 4863 
L 1159 2956 
Q 1366 3272 1645 3428 
Q 1925 3584 2291 3584 
Q 2894 3584 3203 3211 
Q 3513 2838 3513 2113 
z
" transform="scale(0.015625)"/>
       <path id="DejaVuSans-73" d="M 2834 3397 
L 2834 2853 
Q 2591 2978 2328 3040 
Q 2066 3103 1784 3103 
Q 1356 3103 1142 2972 
Q 928 2841 928 2578 
Q 928 2378 1081 2264 
Q 1234 2150 1697 2047 
L 1894 2003 
Q 2506 1872 2764 1633 
Q 3022 1394 3022 966 
Q 3022 478 2636 193 
Q 2250 -91 1575 -91 
Q 1294 -91 989 -36 
Q 684 19 347 128 
L 347 722 
Q 666 556 975 473 
Q 1284 391 1588 391 
Q 1994 391 2212 530 
Q 2431 669 2431 922 
Q 2431 1156 2273 1281 
Q 2116 1406 1581 1522 
L 1381 1569 
Q 847 1681 609 1914 
Q 372 2147 372 2553 
Q 372 3047 722 3315 
Q 1072 3584 1716 3584 
Q 2034 3584 2315 3537 
Q 2597 3491 2834 3397 
z
" transform="scale(0.015625)"/>
      </defs>
      <use xlink:href="#DejaVuSans-45"/>
      <use xlink:href="#DejaVuSans-70" x="63.183594"/>
      <use xlink:href="#DejaVuSans-6f" x="126.660156"/>
      <use xlink:href="#DejaVuSans-63" x="187.841797"/>
      <use xlink:href="#DejaVuSans-68" x="242.822266"/>
      <use xlink:href="#DejaVuSans-73" x="306.201172"/>
     </g>
    </g>
   </g>
   <g id="matplotlib.axis_2">
    <g id="ytick_1">
     <g id="line2d_11">
      <defs>
       <path id="maf740f403b" d="M 0 0 
L -3.5 0 
" style="stroke: #000000; stroke-width: 0.8"/>
      </defs>
      <g>
       <use xlink:href="#maf740f403b" x="57.6" y="295.027062" style="stroke: #000000; stroke-width: 0.8"/>
      </g>
     </g>
     <g id="text_12">
      <!-- 30 -->
      <g transform="translate(37.875 298.826281) scale(0.1 -0.1)">
       <use xlink:href="#DejaVuSans-33"/>
       <use xlink:href="#DejaVuSans-30" x="63.623047"/>
      </g>
     </g>
    </g>
    <g id="ytick_2">
     <g id="line2d_12">
      <g>
       <use xlink:href="#maf740f403b" x="57.6" y="258.875084" style="stroke: #000000; stroke-width: 0.8"/>
      </g>
     </g>
     <g id="text_13">
      <!-- 40 -->
      <g transform="translate(37.875 262.674303) scale(0.1 -0.1)">
       <use xlink:href="#DejaVuSans-34"/>
       <use xlink:href="#DejaVuSans-30" x="63.623047"/>
      </g>
     </g>
    </g>
    <g id="ytick_3">
     <g id="line2d_13">
      <g>
       <use xlink:href="#maf740f403b" x="57.6" y="222.723106" style="stroke: #000000; stroke-width: 0.8"/>
      </g>
     </g>
     <g id="text_14">
      <!-- 50 -->
      <g transform="translate(37.875 226.522325) scale(0.1 -0.1)">
       <defs>
        <path id="DejaVuSans-35" d="M 691 4666 
L 3169 4666 
L 3169 4134 
L 1269 4134 
L 1269 2991 
Q 1406 3038 1543 3061 
Q 1681 3084 1819 3084 
Q 2600 3084 3056 2656 
Q 3513 2228 3513 1497 
Q 3513 744 3044 326 
Q 2575 -91 1722 -91 
Q 1428 -91 1123 -41 
Q 819 9 494 109 
L 494 744 
Q 775 591 1075 516 
Q 1375 441 1709 441 
Q 2250 441 2565 725 
Q 2881 1009 2881 1497 
Q 2881 1984 2565 2268 
Q 2250 2553 1709 2553 
Q 1456 2553 1204 2497 
Q 953 2441 691 2322 
L 691 4666 
z
" transform="scale(0.015625)"/>
       </defs>
       <use xlink:href="#DejaVuSans-35"/>
       <use xlink:href="#DejaVuSans-30" x="63.623047"/>
      </g>
     </g>
    </g>
    <g id="ytick_4">
     <g id="line2d_14">
      <g>
       <use xlink:href="#maf740f403b" x="57.6" y="186.571128" style="stroke: #000000; stroke-width: 0.8"/>
      </g>
     </g>
     <g id="text_15">
      <!-- 60 -->
      <g transform="translate(37.875 190.370346) scale(0.1 -0.1)">
       <use xlink:href="#DejaVuSans-36"/>
       <use xlink:href="#DejaVuSans-30" x="63.623047"/>
      </g>
     </g>
    </g>
    <g id="ytick_5">
     <g id="line2d_15">
      <g>
       <use xlink:href="#maf740f403b" x="57.6" y="150.41915" style="stroke: #000000; stroke-width: 0.8"/>
      </g>
     </g>
     <g id="text_16">
      <!-- 70 -->
      <g transform="translate(37.875 154.218368) scale(0.1 -0.1)">
       <use xlink:href="#DejaVuSans-37"/>
       <use xlink:href="#DejaVuSans-30" x="63.623047"/>
      </g>
     </g>
    </g>
    <g id="ytick_6">
     <g id="line2d_16">
      <g>
       <use xlink:href="#maf740f403b" x="57.6" y="114.267171" style="stroke: #000000; stroke-width: 0.8"/>
      </g>
     </g>
     <g id="text_17">
      <!-- 80 -->
      <g transform="translate(37.875 118.06639) scale(0.1 -0.1)">
       <defs>
        <path id="DejaVuSans-38" d="M 2034 2216 
Q 1584 2216 1326 1975 
Q 1069 1734 1069 1313 
Q 1069 891 1326 650 
Q 1584 409 2034 409 
Q 2484 409 2743 651 
Q 3003 894 3003 1313 
Q 3003 1734 2745 1975 
Q 2488 2216 2034 2216 
z
M 1403 2484 
Q 997 2584 770 2862 
Q 544 3141 544 3541 
Q 544 4100 942 4425 
Q 1341 4750 2034 4750 
Q 2731 4750 3128 4425 
Q 3525 4100 3525 3541 
Q 3525 3141 3298 2862 
Q 3072 2584 2669 2484 
Q 3125 2378 3379 2068 
Q 3634 1759 3634 1313 
Q 3634 634 3220 271 
Q 2806 -91 2034 -91 
Q 1263 -91 848 271 
Q 434 634 434 1313 
Q 434 1759 690 2068 
Q 947 2378 1403 2484 
z
M 1172 3481 
Q 1172 3119 1398 2916 
Q 1625 2713 2034 2713 
Q 2441 2713 2670 2916 
Q 2900 3119 2900 3481 
Q 2900 3844 2670 4047 
Q 2441 4250 2034 4250 
Q 1625 4250 1398 4047 
Q 1172 3844 1172 3481 
z
" transform="scale(0.015625)"/>
       </defs>
       <use xlink:href="#DejaVuSans-38"/>
       <use xlink:href="#DejaVuSans-30" x="63.623047"/>
      </g>
     </g>
    </g>
    <g id="ytick_7">
     <g id="line2d_17">
      <g>
       <use xlink:href="#maf740f403b" x="57.6" y="78.115193" style="stroke: #000000; stroke-width: 0.8"/>
      </g>
     </g>
     <g id="text_18">
      <!-- 90 -->
      <g transform="translate(37.875 81.914412) scale(0.1 -0.1)">
       <defs>
        <path id="DejaVuSans-39" d="M 703 97 
L 703 672 
Q 941 559 1184 500 
Q 1428 441 1663 441 
Q 2288 441 2617 861 
Q 2947 1281 2994 2138 
Q 2813 1869 2534 1725 
Q 2256 1581 1919 1581 
Q 1219 1581 811 2004 
Q 403 2428 403 3163 
Q 403 3881 828 4315 
Q 1253 4750 1959 4750 
Q 2769 4750 3195 4129 
Q 3622 3509 3622 2328 
Q 3622 1225 3098 567 
Q 2575 -91 1691 -91 
Q 1453 -91 1209 -44 
Q 966 3 703 97 
z
M 1959 2075 
Q 2384 2075 2632 2365 
Q 2881 2656 2881 3163 
Q 2881 3666 2632 3958 
Q 2384 4250 1959 4250 
Q 1534 4250 1286 3958 
Q 1038 3666 1038 3163 
Q 1038 2656 1286 2365 
Q 1534 2075 1959 2075 
z
" transform="scale(0.015625)"/>
       </defs>
       <use xlink:href="#DejaVuSans-39"/>
       <use xlink:href="#DejaVuSans-30" x="63.623047"/>
      </g>
     </g>
    </g>
    <g id="ytick_8">
     <g id="line2d_18">
      <g>
       <use xlink:href="#maf740f403b" x="57.6" y="41.963215" style="stroke: #000000; stroke-width: 0.8"/>
      </g>
     </g>
     <g id="text_19">
      <!-- 100 -->
      <g transform="translate(31.5125 45.762434) scale(0.1 -0.1)">
       <use xlink:href="#DejaVuSans-31"/>
       <use xlink:href="#DejaVuSans-30" x="63.623047"/>
       <use xlink:href="#DejaVuSans-30" x="127.246094"/>
      </g>
     </g>
    </g>
    <g id="text_20">
     <!-- Accuracy -->
     <g transform="translate(25.432812 197.356125) rotate(-90) scale(0.1 -0.1)">
      <defs>
       <path id="DejaVuSans-41" d="M 2188 4044 
L 1331 1722 
L 3047 1722 
L 2188 4044 
z
M 1831 4666 
L 2547 4666 
L 4325 0 
L 3669 0 
L 3244 1197 
L 1141 1197 
L 716 0 
L 50 0 
L 1831 4666 
z
" transform="scale(0.015625)"/>
       <path id="DejaVuSans-75" d="M 544 1381 
L 544 3500 
L 1119 3500 
L 1119 1403 
Q 1119 906 1312 657 
Q 1506 409 1894 409 
Q 2359 409 2629 706 
Q 2900 1003 2900 1516 
L 2900 3500 
L 3475 3500 
L 3475 0 
L 2900 0 
L 2900 538 
Q 2691 219 2414 64 
Q 2138 -91 1772 -91 
Q 1169 -91 856 284 
Q 544 659 544 1381 
z
M 1991 3584 
L 1991 3584 
z
" transform="scale(0.015625)"/>
       <path id="DejaVuSans-72" d="M 2631 2963 
Q 2534 3019 2420 3045 
Q 2306 3072 2169 3072 
Q 1681 3072 1420 2755 
Q 1159 2438 1159 1844 
L 1159 0 
L 581 0 
L 581 3500 
L 1159 3500 
L 1159 2956 
Q 1341 3275 1631 3429 
Q 1922 3584 2338 3584 
Q 2397 3584 2469 3576 
Q 2541 3569 2628 3553 
L 2631 2963 
z
" transform="scale(0.015625)"/>
       <path id="DejaVuSans-61" d="M 2194 1759 
Q 1497 1759 1228 1600 
Q 959 1441 959 1056 
Q 959 750 1161 570 
Q 1363 391 1709 391 
Q 2188 391 2477 730 
Q 2766 1069 2766 1631 
L 2766 1759 
L 2194 1759 
z
M 3341 1997 
L 3341 0 
L 2766 0 
L 2766 531 
Q 2569 213 2275 61 
Q 1981 -91 1556 -91 
Q 1019 -91 701 211 
Q 384 513 384 1019 
Q 384 1609 779 1909 
Q 1175 2209 1959 2209 
L 2766 2209 
L 2766 2266 
Q 2766 2663 2505 2880 
Q 2244 3097 1772 3097 
Q 1472 3097 1187 3025 
Q 903 2953 641 2809 
L 641 3341 
Q 956 3463 1253 3523 
Q 1550 3584 1831 3584 
Q 2591 3584 2966 3190 
Q 3341 2797 3341 1997 
z
" transform="scale(0.015625)"/>
       <path id="DejaVuSans-79" d="M 2059 -325 
Q 1816 -950 1584 -1140 
Q 1353 -1331 966 -1331 
L 506 -1331 
L 506 -850 
L 844 -850 
Q 1081 -850 1212 -737 
Q 1344 -625 1503 -206 
L 1606 56 
L 191 3500 
L 800 3500 
L 1894 763 
L 2988 3500 
L 3597 3500 
L 2059 -325 
z
" transform="scale(0.015625)"/>
      </defs>
      <use xlink:href="#DejaVuSans-41"/>
      <use xlink:href="#DejaVuSans-63" x="66.658203"/>
      <use xlink:href="#DejaVuSans-63" x="121.638672"/>
      <use xlink:href="#DejaVuSans-75" x="176.619141"/>
      <use xlink:href="#DejaVuSans-72" x="239.998047"/>
      <use xlink:href="#DejaVuSans-61" x="281.111328"/>
      <use xlink:href="#DejaVuSans-63" x="342.390625"/>
      <use xlink:href="#DejaVuSans-79" x="397.371094"/>
     </g>
    </g>
   </g>
   <g id="line2d_19">
    <path d="M 73.832727 295.488 
L 74.918528 232.538368 
L 76.00433 201.519971 
L 77.090131 179.205162 
L 78.175932 165.702398 
L 79.261733 161.129173 
L 80.347534 151.973685 
L 81.433335 145.493443 
L 82.519137 141.679409 
L 84.690739 131.484551 
L 85.77654 129.27928 
L 86.862341 125.98945 
L 87.948142 120.40397 
L 89.033943 118.939815 
L 90.119745 115.857858 
L 91.205546 113.381448 
L 92.291347 112.857244 
L 93.377148 111.239443 
L 94.462949 109.214932 
L 95.54875 132.912554 
L 96.634552 133.572328 
L 97.720353 130.616904 
L 98.806154 130.110776 
L 99.891955 127.634365 
L 100.977756 124.199927 
L 102.063557 124.109547 
L 103.149358 122.247721 
L 104.23516 121.316807 
L 106.406762 116.626088 
L 107.492563 115.496339 
L 108.578364 113.887576 
L 109.664165 113.227802 
L 110.749967 112.296889 
L 112.921569 108.726881 
L 114.00737 108.202677 
L 115.093171 106.530648 
L 119.436376 100.936129 
L 120.522177 100.041368 
L 121.607978 98.586251 
L 123.77958 97.131134 
L 124.865382 96.2906 
L 125.951183 95.269307 
L 127.036984 94.681837 
L 128.122785 92.521756 
L 129.208586 92.214465 
L 130.294387 91.111829 
L 131.380189 90.307448 
L 132.46599 90.415904 
L 133.551791 89.177699 
L 134.637592 89.141547 
L 135.723393 88.554077 
L 136.809194 88.147367 
L 137.894995 87.00858 
L 138.980797 109.621642 
L 140.066598 111.284633 
L 141.152399 111.691343 
L 142.2382 110.136808 
L 143.324001 111.185215 
L 144.409802 111.646153 
L 145.495604 108.338247 
L 146.581405 109.549338 
L 147.667206 107.15427 
L 148.753007 106.214318 
L 149.838808 106.123938 
L 150.924609 105.301481 
L 152.01041 104.849581 
L 153.096212 103.358312 
L 154.182013 104.361529 
L 155.267814 103.376388 
L 156.353615 104.271149 
L 157.439416 103.23178 
L 158.525217 101.469371 
L 159.611019 101.650131 
L 160.69682 100.330584 
L 161.782621 101.830891 
L 162.868422 100.07752 
L 163.954223 100.21309 
L 165.040024 99.481012 
L 166.125825 99.001999 
L 167.211627 98.776049 
L 168.297428 98.242807 
L 169.383229 97.122096 
L 170.46903 96.769614 
L 171.554831 96.760576 
L 172.640632 95.820625 
L 173.726434 95.224117 
L 174.812235 95.676017 
L 175.898036 94.492039 
L 176.983837 93.488822 
L 178.069638 93.705734 
L 179.155439 93.018846 
L 180.24124 93.416518 
L 181.327042 91.581805 
L 182.412843 92.395225 
L 183.498644 90.587626 
L 184.584445 90.61474 
L 185.670246 89.828434 
L 186.756047 89.692864 
L 187.841849 88.789065 
L 188.92765 87.451442 
L 190.013451 88.445621 
L 191.099252 88.608305 
L 192.185053 86.583794 
L 193.270854 85.996324 
L 194.356656 86.610908 
L 196.528258 85.228095 
L 197.614059 83.601256 
L 198.69986 84.875613 
L 199.785661 83.411458 
L 200.871462 83.510876 
L 201.957264 81.242339 
L 203.043065 82.218443 
L 204.128866 81.802695 
L 205.214667 80.483148 
L 206.300468 81.414061 
L 207.386269 80.130666 
L 208.472071 80.356616 
L 209.557872 80.0674 
L 210.643673 79.6155 
L 211.729474 79.308208 
L 212.815275 79.47993 
L 213.901076 78.097117 
L 214.986877 78.169421 
L 216.072679 77.59099 
L 217.15848 77.744635 
L 219.330082 77.075824 
L 220.415883 76.108758 
L 221.501684 76.614886 
L 222.587486 76.68719 
L 223.673287 76.244328 
L 224.759088 76.515468 
L 225.844889 97.167286 
L 226.93069 101.704359 
L 228.016491 101.686283 
L 229.102292 101.198231 
L 230.188094 99.435822 
L 231.273895 99.905798 
L 232.359696 99.164682 
L 233.445497 99.89676 
L 234.531298 98.992961 
L 235.617099 98.794125 
L 236.702901 98.992961 
L 238.874503 98.287997 
L 239.960304 96.823842 
L 241.046105 98.884505 
L 242.131906 97.266704 
L 243.217708 96.769614 
L 244.303509 96.96845 
L 245.38931 96.805766 
L 246.475111 96.78769 
L 247.560912 96.634044 
L 248.646713 96.254448 
L 249.732514 96.344828 
L 250.818316 95.332573 
L 252.989918 96.091764 
L 254.075719 94.799331 
L 255.16152 94.501077 
L 256.247321 94.555305 
L 257.333123 93.40748 
L 258.418924 93.217682 
L 259.504725 93.398442 
L 260.590526 93.976874 
L 261.676327 94.690875 
L 262.762128 93.244796 
L 263.847929 93.750924 
L 264.933731 92.783858 
L 266.019532 94.320317 
L 267.105333 92.259655 
L 268.191134 92.151199 
L 269.276935 91.500463 
L 270.362736 92.585022 
L 271.448538 91.762565 
L 272.534339 91.184133 
L 274.705941 91.518539 
L 275.791742 90.714158 
L 276.877543 91.428159 
L 277.963344 90.470132 
L 280.134947 91.075677 
L 281.220748 90.732234 
L 282.306549 89.593446 
L 283.39235 89.84651 
L 284.478151 88.617343 
L 285.563953 90.018232 
L 286.649754 89.186737 
L 287.735555 89.34942 
L 288.821356 90.036308 
L 289.907157 88.951749 
L 290.992958 88.165443 
L 292.07876 87.794885 
L 293.164561 88.102177 
L 294.250362 87.05377 
L 295.336163 88.617343 
L 296.421964 88.228709 
L 297.507765 86.610908 
L 298.593566 86.041514 
L 299.679368 86.800706 
L 300.765169 85.960172 
L 301.85097 86.628984 
L 302.936771 86.249388 
L 304.022572 86.213236 
L 305.108373 86.78263 
L 306.194175 86.809744 
L 307.279976 84.821385 
L 308.365777 85.318475 
L 309.451578 83.89951 
L 310.537379 85.336551 
L 311.62318 84.179688 
L 312.708981 84.532169 
L 313.794783 83.068014 
L 314.880584 84.098346 
L 315.966385 83.17647 
L 317.052186 82.462469 
L 318.137987 83.908548 
L 319.223788 82.462469 
L 320.30959 82.354013 
L 321.395391 82.010569 
L 322.481192 81.504441 
L 323.566993 82.742646 
L 324.652794 82.543811 
L 325.738595 82.091911 
L 326.824396 81.405023 
L 327.910198 81.305605 
L 328.995999 80.392768 
L 330.0818 80.65487 
L 331.167601 79.552234 
L 332.253402 80.492186 
L 333.339203 79.362436 
L 335.510806 78.820157 
L 336.596607 78.802081 
L 337.682408 77.654255 
L 338.768209 78.729777 
L 339.85401 78.594207 
L 340.939811 78.051927 
L 342.025613 78.205573 
L 343.111414 77.717521 
L 344.197215 77.383116 
L 345.283016 75.060351 
L 346.368817 76.37086 
L 347.454618 76.352784 
L 348.54042 75.647821 
L 349.626221 76.407012 
L 350.712022 75.783391 
L 351.797823 76.090682 
L 352.883624 75.042275 
L 355.055227 73.903488 
L 356.141028 74.572299 
L 357.226829 74.111362 
L 358.31263 74.246932 
L 359.398431 73.135258 
L 360.484232 74.192704 
L 361.570033 73.89445 
L 362.655835 72.846042 
L 363.741636 72.873156 
L 364.827437 72.62913 
L 365.913238 71.969357 
L 366.999039 71.969357 
L 369.170642 73.017764 
L 370.256443 73.44255 
L 372.428045 75.647821 
L 373.513846 74.346349 
L 374.599647 74.852477 
L 375.685448 74.635565 
L 376.77125 75.141693 
L 377.857051 75.955112 
L 378.942852 74.798249 
L 380.028653 74.888629 
L 381.114454 75.430909 
L 382.200255 75.629745 
L 383.286057 76.253366 
L 384.371858 74.545185 
L 385.457659 74.16559 
L 386.54346 75.286301 
L 387.629261 74.852477 
L 388.715062 74.951895 
L 389.800863 76.397974 
L 390.886665 75.548403 
L 391.972466 75.882809 
L 393.058267 74.915743 
L 394.144068 75.340529 
L 395.229869 74.436729 
L 396.31567 75.873771 
L 397.401472 75.647821 
L 398.487273 74.771135 
L 398.487273 74.771135 
" clip-path="url(#p3d017a302c)" style="fill: none; stroke: #1f77b4; stroke-width: 1.5; stroke-linecap: square"/>
   </g>
   <g id="line2d_20">
    <path d="M 73.832727 240.979855 
L 74.918528 177.641589 
L 76.00433 150.129934 
L 77.090131 142.321106 
L 78.175932 127.932619 
L 79.261733 130.607866 
L 80.347534 121.172199 
L 81.433335 110.181998 
L 82.519137 106.5668 
L 83.604938 103.385426 
L 84.690739 94.455887 
L 85.77654 95.504295 
L 86.862341 87.587011 
L 87.948142 85.237133 
L 89.033943 83.863358 
L 90.119745 83.068014 
L 91.205546 79.633576 
L 92.291347 79.52512 
L 93.377148 77.825977 
L 94.462949 78.585169 
L 95.54875 94.745103 
L 96.634552 99.155644 
L 97.720353 97.709565 
L 98.806154 95.97427 
L 99.891955 99.336404 
L 100.977756 89.93689 
L 102.063557 93.009808 
L 103.149358 88.888483 
L 104.23516 86.140932 
L 105.320961 85.128677 
L 106.406762 85.381741 
L 107.492563 82.417279 
L 108.578364 80.103552 
L 109.664165 83.031862 
L 110.749967 81.151959 
L 111.835768 78.115193 
L 112.921569 78.042889 
L 114.00737 78.115193 
L 115.093171 79.018993 
L 116.178972 75.909923 
L 117.264773 74.608451 
L 118.350575 72.150117 
L 119.436376 73.198524 
L 120.522177 71.824749 
L 121.607978 72.692396 
L 122.693779 69.438718 
L 123.77958 68.462615 
L 124.865382 70.667886 
L 125.951183 68.679527 
L 127.036984 66.944232 
L 128.122785 66.799624 
L 129.208586 66.18504 
L 130.294387 66.618864 
L 131.380189 65.895825 
L 132.46599 66.076584 
L 133.551791 65.245089 
L 134.637592 64.558201 
L 135.723393 65.136633 
L 136.809194 65.100481 
L 137.894995 64.702809 
L 138.980797 81.911151 
L 140.066598 82.851102 
L 142.2382 76.95833 
L 143.324001 78.838233 
L 144.409802 79.34436 
L 145.495604 77.175242 
L 146.581405 76.343746 
L 147.667206 76.922178 
L 148.753007 76.271442 
L 149.838808 78.079041 
L 150.924609 74.716907 
L 152.01041 73.415436 
L 153.096212 75.476099 
L 154.182013 72.7647 
L 155.267814 72.547789 
L 156.353615 73.234676 
L 157.439416 69.511022 
L 158.525217 70.884798 
L 159.611019 74.174628 
L 160.69682 71.860901 
L 161.782621 73.813108 
L 163.954223 71.246317 
L 165.040024 71.427077 
L 167.211627 71.463229 
L 168.297428 70.306366 
L 169.383229 70.704038 
L 170.46903 68.173399 
L 171.554831 69.65563 
L 172.640632 70.125606 
L 173.726434 67.124992 
L 174.812235 66.944232 
L 175.898036 66.040432 
L 176.983837 66.90808 
L 178.069638 66.112736 
L 179.155439 65.606609 
L 180.24124 66.00428 
L 181.327042 65.823521 
L 182.412843 64.775113 
L 183.498644 66.18504 
L 184.584445 65.100481 
L 185.670246 64.594353 
L 186.756047 66.257344 
L 187.841849 64.413593 
L 188.92765 63.726706 
L 190.013451 64.558201 
L 191.099252 64.413593 
L 192.185053 63.365186 
L 193.270854 61.557587 
L 194.356656 61.991411 
L 195.442457 61.159915 
L 196.528258 61.268371 
L 197.614059 61.810651 
L 198.69986 60.798396 
L 203.043065 61.123763 
L 205.214667 60.364572 
L 207.386269 59.460772 
L 208.472071 59.099253 
L 209.557872 59.135405 
L 210.643673 58.882341 
L 211.729474 58.340061 
L 212.815275 58.484669 
L 213.901076 58.412365 
L 214.986877 58.159301 
L 216.072679 58.159301 
L 219.330082 57.617022 
L 220.415883 57.725477 
L 222.587486 57.617022 
L 223.673287 57.833933 
L 224.759088 57.653174 
L 225.844889 73.12622 
L 226.93069 73.84926 
L 228.016491 74.21078 
L 229.102292 72.728548 
L 230.188094 73.053916 
L 231.273895 74.391539 
L 232.359696 73.596196 
L 233.445497 72.547789 
L 234.531298 72.150117 
L 235.617099 69.83639 
L 236.702901 75.439947 
L 237.788702 69.619478 
L 238.874503 70.92095 
L 239.960304 68.643375 
L 241.046105 70.01715 
L 242.131906 68.932591 
L 243.217708 69.402566 
L 244.303509 69.547174 
L 245.38931 68.028791 
L 246.475111 67.486512 
L 247.560912 72.330877 
L 248.646713 69.402566 
L 249.732514 69.547174 
L 250.818316 68.245703 
L 251.904117 66.18504 
L 252.989918 68.571071 
L 254.075719 69.004895 
L 255.16152 67.124992 
L 256.247321 69.872542 
L 257.333123 67.920335 
L 258.418924 70.306366 
L 259.504725 66.90808 
L 260.590526 66.510408 
L 261.676327 65.136633 
L 262.762128 67.956487 
L 263.847929 66.329648 
L 264.933731 64.992025 
L 266.019532 65.534305 
L 267.105333 67.052688 
L 268.191134 66.148888 
L 271.448538 65.931977 
L 272.534339 65.317393 
L 273.62014 65.389697 
L 274.705941 69.221807 
L 275.791742 67.016536 
L 276.877543 67.414208 
L 279.049146 66.257344 
L 280.134947 64.088226 
L 281.220748 66.076584 
L 282.306549 65.678913 
L 283.39235 65.751217 
L 284.478151 66.257344 
L 285.563953 66.040432 
L 286.649754 62.71445 
L 287.735555 63.292882 
L 288.821356 65.389697 
L 289.907157 64.666657 
L 290.992958 63.509794 
L 292.07876 65.317393 
L 293.164561 65.172785 
L 294.250362 64.630505 
L 295.336163 63.545946 
L 296.421964 63.039818 
L 297.507765 63.545946 
L 298.593566 62.89521 
L 299.679368 62.497539 
L 300.765169 62.750602 
L 301.85097 62.786754 
L 302.936771 63.401338 
L 304.022572 62.605995 
L 305.108373 61.449131 
L 306.194175 62.099867 
L 307.279976 60.726092 
L 308.365777 61.485283 
L 309.451578 61.882955 
L 311.62318 62.172171 
L 312.708981 59.822292 
L 313.794783 62.425235 
L 314.880584 60.798396 
L 315.966385 59.677684 
L 317.052186 61.159915 
L 318.137987 60.8707 
L 319.223788 62.027563 
L 320.30959 59.496924 
L 321.395391 60.50918 
L 322.481192 60.762244 
L 323.566993 59.280013 
L 324.652794 59.641532 
L 325.738595 59.352317 
L 326.824396 59.316165 
L 327.910198 58.629277 
L 328.995999 60.003052 
L 330.0818 58.737733 
L 332.253402 58.484669 
L 333.339203 59.171557 
L 334.425005 59.207709 
L 335.510806 58.376213 
L 336.596607 57.797781 
L 337.682408 58.340061 
L 338.768209 58.629277 
L 339.85401 58.484669 
L 340.939811 56.821678 
L 342.025613 57.906237 
L 345.283016 56.713222 
L 346.368817 57.183198 
L 347.454618 56.85783 
L 348.54042 56.893982 
L 349.626221 56.279398 
L 350.712022 57.110894 
L 352.883624 56.351702 
L 353.969425 56.713222 
L 355.055227 56.243246 
L 356.141028 56.062486 
L 357.226829 55.375599 
L 358.31263 56.49631 
L 359.398431 55.158687 
L 360.484232 55.664815 
L 361.570033 55.194839 
L 362.655835 55.520207 
L 363.741636 54.580255 
L 364.827437 54.724863 
L 365.913238 55.194839 
L 366.999039 54.507951 
L 369.170642 55.484055 
L 370.256443 56.604766 
L 371.342244 55.700967 
L 372.428045 56.604766 
L 374.599647 57.147046 
L 375.685448 56.821678 
L 376.77125 57.327806 
L 377.857051 57.508566 
L 378.942852 56.785526 
L 380.028653 55.809423 
L 381.114454 56.098638 
L 382.200255 56.640918 
L 383.286057 56.966286 
L 384.371858 56.207094 
L 385.457659 58.520821 
L 386.54346 57.472414 
L 387.629261 55.954031 
L 388.715062 56.424006 
L 389.800863 56.568614 
L 390.886665 56.31555 
L 393.058267 57.725477 
L 394.144068 57.725477 
L 395.229869 57.508566 
L 396.31567 58.448517 
L 397.401472 56.893982 
L 398.487273 56.351702 
L 398.487273 56.351702 
" clip-path="url(#p3d017a302c)" style="fill: none; stroke: #ff7f0e; stroke-width: 1.5; stroke-linecap: square"/>
   </g>
   <g id="line2d_21">
    <path d="M 73.832727 261.368486 
L 74.918528 212.376048 
L 76.00433 192.056106 
L 77.090131 184.327174 
L 78.175932 167.747154 
L 79.261733 177.720039 
L 80.347534 160.890932 
L 81.433335 151.167134 
L 82.519137 150.917685 
L 84.690739 139.07502 
L 85.77654 133.839129 
L 87.948142 120.624858 
L 89.033943 122.993536 
L 90.119745 120.624858 
L 91.205546 114.765707 
L 92.291347 114.640983 
L 93.377148 111.025785 
L 94.462949 115.513692 
L 95.54875 137.204878 
L 96.634552 140.695352 
L 97.720353 140.072092 
L 98.806154 140.820176 
L 99.891955 133.465118 
L 100.977756 132.841808 
L 102.063557 132.717146 
L 103.149358 127.606005 
L 104.23516 128.353977 
L 105.320961 127.855329 
L 106.406762 123.242835 
L 107.492563 120.375609 
L 108.578364 114.391833 
L 109.664165 125.985399 
L 111.835768 113.269875 
L 112.921569 115.389129 
L 114.00737 116.137101 
L 115.093171 114.391833 
L 116.178972 109.904002 
L 117.264773 108.034072 
L 118.350575 108.408058 
L 119.436376 106.538128 
L 120.522177 107.161438 
L 121.607978 106.66279 
L 122.693779 100.803676 
L 123.77958 101.800972 
L 124.865382 102.29962 
L 125.951183 96.06652 
L 127.036984 93.199294 
L 128.122785 93.448618 
L 129.208586 95.44321 
L 131.380189 94.071928 
L 132.46599 95.692534 
L 133.551791 93.074632 
L 134.637592 91.703351 
L 135.723393 91.828012 
L 136.809194 90.955379 
L 137.894995 90.456731 
L 138.980797 120.250947 
L 140.066598 118.755003 
L 141.152399 119.627637 
L 142.2382 113.768523 
L 143.324001 119.378313 
L 144.409802 122.619525 
L 145.495604 119.752299 
L 146.581405 113.145213 
L 147.667206 117.134397 
L 148.753007 110.901298 
L 149.838808 118.879665 
L 150.924609 109.77934 
L 152.01041 110.901298 
L 153.096212 110.277988 
L 154.182013 111.524608 
L 155.267814 110.40265 
L 156.353615 112.147917 
L 157.439416 108.408058 
L 158.525217 108.158734 
L 159.611019 105.914818 
L 160.69682 109.405354 
L 161.782621 115.887777 
L 162.868422 110.028664 
L 163.954223 107.410762 
L 165.040024 108.034072 
L 166.125825 105.166846 
L 167.211627 110.277988 
L 168.297428 103.421578 
L 169.383229 107.535424 
L 170.46903 105.914818 
L 171.554831 107.2861 
L 172.640632 101.925634 
L 173.726434 102.174958 
L 174.812235 99.681718 
L 175.898036 103.047592 
L 176.983837 102.673606 
L 178.069638 98.933746 
L 179.155439 98.809084 
L 180.24124 98.310436 
L 181.327042 103.421578 
L 182.412843 96.68983 
L 183.498644 98.435098 
L 184.584445 95.817196 
L 185.670246 99.80638 
L 186.756047 97.31314 
L 187.841849 96.06652 
L 188.92765 95.318548 
L 190.013451 94.321252 
L 191.099252 98.310436 
L 192.185053 92.825308 
L 193.270854 96.565168 
L 194.356656 91.454027 
L 195.442457 90.581393 
L 196.528258 94.19659 
L 197.614059 89.958083 
L 198.69986 93.199294 
L 199.785661 88.836125 
L 200.871462 89.459435 
L 201.957264 91.828012 
L 203.043065 89.958083 
L 204.128866 93.947266 
L 205.214667 90.082745 
L 206.300468 89.708759 
L 207.386269 88.960787 
L 208.472071 86.716871 
L 209.557872 87.215519 
L 211.729474 85.096265 
L 212.815275 86.467547 
L 213.901076 85.345589 
L 214.986877 85.844237 
L 216.072679 86.966195 
L 217.15848 85.345589 
L 218.244281 85.719575 
L 219.330082 85.719575 
L 220.415883 85.470251 
L 221.501684 85.470251 
L 222.587486 85.594913 
L 223.673287 86.716871 
L 224.759088 86.342885 
L 225.844889 108.034072 
L 226.93069 110.901298 
L 228.016491 110.651974 
L 229.102292 111.773931 
L 230.188094 108.408058 
L 231.273895 116.012439 
L 232.359696 108.283396 
L 233.445497 103.795564 
L 234.531298 103.670902 
L 235.617099 106.538128 
L 236.702901 111.399946 
L 237.788702 104.294212 
L 238.874503 106.288804 
L 239.960304 105.914818 
L 241.046105 109.904002 
L 242.131906 104.917522 
L 243.217708 102.92293 
L 244.303509 106.03948 
L 245.38931 101.800972 
L 246.475111 106.413466 
L 247.560912 109.77934 
L 248.646713 105.41617 
L 249.732514 104.668198 
L 250.818316 101.67631 
L 251.904117 101.551648 
L 252.989918 103.920226 
L 254.075719 103.670902 
L 255.16152 103.920226 
L 256.247321 105.291508 
L 257.333123 104.917522 
L 258.418924 103.795564 
L 259.504725 104.418874 
L 260.590526 99.307732 
L 261.676327 99.058408 
L 262.762128 108.158734 
L 263.847929 102.673606 
L 264.933731 99.432394 
L 266.019532 100.928338 
L 267.105333 101.800972 
L 268.191134 99.931042 
L 269.276935 100.679014 
L 270.362736 101.053 
L 271.448538 102.673606 
L 272.534339 97.811788 
L 273.62014 97.063816 
L 274.705941 103.54624 
L 275.791742 101.551648 
L 276.877543 100.180366 
L 277.963344 101.053 
L 279.049146 97.687126 
L 280.134947 95.567872 
L 281.220748 99.18307 
L 282.306549 104.294212 
L 283.39235 100.928338 
L 284.478151 101.426986 
L 285.563953 99.18307 
L 286.649754 96.565168 
L 287.735555 94.445914 
L 288.821356 97.188478 
L 289.907157 100.305028 
L 290.992958 93.57328 
L 292.07876 102.673606 
L 293.164561 100.928338 
L 294.250362 97.687126 
L 295.336163 93.199294 
L 296.421964 94.695238 
L 297.507765 94.8199 
L 298.593566 93.822604 
L 299.679368 96.814492 
L 300.765169 96.68983 
L 301.85097 94.695238 
L 302.936771 96.814492 
L 304.022572 94.8199 
L 305.108373 93.323956 
L 306.194175 90.955379 
L 307.279976 92.700646 
L 308.365777 92.451322 
L 309.451578 92.825308 
L 310.537379 94.695238 
L 311.62318 92.451322 
L 312.708981 90.706055 
L 313.794783 89.584097 
L 314.880584 87.963491 
L 315.966385 89.584097 
L 317.052186 90.581393 
L 318.137987 90.207407 
L 319.223788 92.32666 
L 320.30959 88.337477 
L 321.395391 91.454027 
L 322.481192 91.454027 
L 323.566993 87.963491 
L 324.652794 89.708759 
L 325.738595 88.337477 
L 326.824396 89.833421 
L 327.910198 89.210111 
L 328.995999 88.337477 
L 330.0818 89.584097 
L 331.167601 87.340181 
L 333.339203 84.846941 
L 334.425005 88.586801 
L 335.510806 85.719575 
L 336.596607 85.719575 
L 337.682408 86.841533 
L 338.768209 88.586801 
L 339.85401 88.212815 
L 340.939811 85.096265 
L 342.025613 83.350997 
L 343.111414 85.220927 
L 344.197215 87.963491 
L 345.283016 83.974307 
L 346.368817 85.220927 
L 347.454618 82.104377 
L 348.54042 87.340181 
L 349.626221 82.104377 
L 350.712022 82.229039 
L 351.797823 84.472955 
L 352.883624 84.223631 
L 353.969425 81.979715 
L 355.055227 83.600321 
L 356.141028 81.855053 
L 357.226829 82.104377 
L 358.31263 83.350997 
L 359.398431 81.481067 
L 360.484232 81.855053 
L 361.570033 83.475659 
L 362.655835 78.863165 
L 363.741636 78.115193 
L 364.827437 78.987827 
L 365.913238 80.982419 
L 366.999039 80.733095 
L 368.08484 79.860461 
L 369.170642 81.481067 
L 370.256443 80.857757 
L 371.342244 80.608433 
L 372.428045 80.733095 
L 374.599647 84.223631 
L 375.685448 81.605729 
L 376.77125 84.597617 
L 377.857051 82.603025 
L 378.942852 82.603025 
L 380.028653 82.104377 
L 381.114454 82.478363 
L 382.200255 82.353701 
L 383.286057 82.727687 
L 384.371858 85.719575 
L 385.457659 85.470251 
L 386.54346 81.605729 
L 387.629261 82.603025 
L 388.715062 83.849645 
L 389.800863 85.345589 
L 390.886665 79.735799 
L 391.972466 84.348293 
L 393.058267 84.098969 
L 394.144068 84.846941 
L 395.229869 83.350997 
L 396.31567 81.481067 
L 397.401472 83.101673 
L 398.487273 79.611137 
L 398.487273 79.611137 
" clip-path="url(#p3d017a302c)" style="fill: none; stroke: #2ca02c; stroke-width: 1.5; stroke-linecap: square"/>
   </g>
   <g id="line2d_22">
    <path d="M 368.08484 54.471799 
L 369.170642 54.254888 
L 370.256443 54.616407 
L 371.342244 55.303295 
L 373.513846 54.905623 
L 374.599647 55.158687 
L 375.685448 54.616407 
L 376.77125 54.833319 
L 377.857051 54.507951 
L 378.942852 54.869471 
L 380.028653 54.688711 
L 381.114454 53.857216 
L 382.200255 54.580255 
L 383.286057 54.29104 
L 385.457659 54.254888 
L 386.54346 54.254888 
L 387.629261 53.568 
L 388.715062 54.182584 
L 389.800863 54.254888 
L 391.972466 54.761015 
L 394.144068 54.074128 
L 395.229869 54.580255 
L 396.31567 54.074128 
L 398.487273 54.11028 
L 398.487273 54.11028 
" clip-path="url(#p3d017a302c)" style="fill: none; stroke: #d62728; stroke-width: 1.5; stroke-linecap: square"/>
   </g>
   <g id="line2d_23">
    <path d="M 368.08484 79.985123 
L 369.170642 78.115193 
L 370.256443 78.738503 
L 371.342244 78.863165 
L 372.428045 78.489179 
L 373.513846 76.369925 
L 374.599647 77.990531 
L 375.685448 77.117897 
L 376.77125 77.367221 
L 378.942852 76.619249 
L 380.028653 76.369925 
L 381.114454 74.749319 
L 383.286057 76.120601 
L 384.371858 75.995939 
L 386.54346 77.865869 
L 387.629261 75.247967 
L 388.715062 73.876685 
L 390.886665 75.497291 
L 391.972466 76.868573 
L 393.058267 75.746615 
L 394.144068 78.987827 
L 396.31567 75.372629 
L 397.401472 74.001347 
L 398.487273 74.001347 
L 398.487273 74.001347 
" clip-path="url(#p3d017a302c)" style="fill: none; stroke: #9467bd; stroke-width: 1.5; stroke-linecap: square"/>
   </g>
   <g id="patch_3">
    <path d="M 57.6 307.584 
L 57.6 41.472 
" style="fill: none; stroke: #000000; stroke-width: 0.8; stroke-linejoin: miter; stroke-linecap: square"/>
   </g>
   <g id="patch_4">
    <path d="M 414.72 307.584 
L 414.72 41.472 
" style="fill: none; stroke: #000000; stroke-width: 0.8; stroke-linejoin: miter; stroke-linecap: square"/>
   </g>
   <g id="patch_5">
    <path d="M 57.6 307.584 
L 414.72 307.584 
" style="fill: none; stroke: #000000; stroke-width: 0.8; stroke-linejoin: miter; stroke-linecap: square"/>
   </g>
   <g id="patch_6">
    <path d="M 57.6 41.472 
L 414.72 41.472 
" style="fill: none; stroke: #000000; stroke-width: 0.8; stroke-linejoin: miter; stroke-linecap: square"/>
   </g>
   <g id="text_21">
    <!-- Learning Curves -->
    <g transform="translate(187.37625 35.472) scale(0.12 -0.12)">
     <defs>
      <path id="DejaVuSans-4c" d="M 628 4666 
L 1259 4666 
L 1259 531 
L 3531 531 
L 3531 0 
L 628 0 
L 628 4666 
z
" transform="scale(0.015625)"/>
      <path id="DejaVuSans-65" d="M 3597 1894 
L 3597 1613 
L 953 1613 
Q 991 1019 1311 708 
Q 1631 397 2203 397 
Q 2534 397 2845 478 
Q 3156 559 3463 722 
L 3463 178 
Q 3153 47 2828 -22 
Q 2503 -91 2169 -91 
Q 1331 -91 842 396 
Q 353 884 353 1716 
Q 353 2575 817 3079 
Q 1281 3584 2069 3584 
Q 2775 3584 3186 3129 
Q 3597 2675 3597 1894 
z
M 3022 2063 
Q 3016 2534 2758 2815 
Q 2500 3097 2075 3097 
Q 1594 3097 1305 2825 
Q 1016 2553 972 2059 
L 3022 2063 
z
" transform="scale(0.015625)"/>
      <path id="DejaVuSans-6e" d="M 3513 2113 
L 3513 0 
L 2938 0 
L 2938 2094 
Q 2938 2591 2744 2837 
Q 2550 3084 2163 3084 
Q 1697 3084 1428 2787 
Q 1159 2491 1159 1978 
L 1159 0 
L 581 0 
L 581 3500 
L 1159 3500 
L 1159 2956 
Q 1366 3272 1645 3428 
Q 1925 3584 2291 3584 
Q 2894 3584 3203 3211 
Q 3513 2838 3513 2113 
z
" transform="scale(0.015625)"/>
      <path id="DejaVuSans-69" d="M 603 3500 
L 1178 3500 
L 1178 0 
L 603 0 
L 603 3500 
z
M 603 4863 
L 1178 4863 
L 1178 4134 
L 603 4134 
L 603 4863 
z
" transform="scale(0.015625)"/>
      <path id="DejaVuSans-67" d="M 2906 1791 
Q 2906 2416 2648 2759 
Q 2391 3103 1925 3103 
Q 1463 3103 1205 2759 
Q 947 2416 947 1791 
Q 947 1169 1205 825 
Q 1463 481 1925 481 
Q 2391 481 2648 825 
Q 2906 1169 2906 1791 
z
M 3481 434 
Q 3481 -459 3084 -895 
Q 2688 -1331 1869 -1331 
Q 1566 -1331 1297 -1286 
Q 1028 -1241 775 -1147 
L 775 -588 
Q 1028 -725 1275 -790 
Q 1522 -856 1778 -856 
Q 2344 -856 2625 -561 
Q 2906 -266 2906 331 
L 2906 616 
Q 2728 306 2450 153 
Q 2172 0 1784 0 
Q 1141 0 747 490 
Q 353 981 353 1791 
Q 353 2603 747 3093 
Q 1141 3584 1784 3584 
Q 2172 3584 2450 3431 
Q 2728 3278 2906 2969 
L 2906 3500 
L 3481 3500 
L 3481 434 
z
" transform="scale(0.015625)"/>
      <path id="DejaVuSans-20" transform="scale(0.015625)"/>
      <path id="DejaVuSans-43" d="M 4122 4306 
L 4122 3641 
Q 3803 3938 3442 4084 
Q 3081 4231 2675 4231 
Q 1875 4231 1450 3742 
Q 1025 3253 1025 2328 
Q 1025 1406 1450 917 
Q 1875 428 2675 428 
Q 3081 428 3442 575 
Q 3803 722 4122 1019 
L 4122 359 
Q 3791 134 3420 21 
Q 3050 -91 2638 -91 
Q 1578 -91 968 557 
Q 359 1206 359 2328 
Q 359 3453 968 4101 
Q 1578 4750 2638 4750 
Q 3056 4750 3426 4639 
Q 3797 4528 4122 4306 
z
" transform="scale(0.015625)"/>
      <path id="DejaVuSans-76" d="M 191 3500 
L 800 3500 
L 1894 563 
L 2988 3500 
L 3597 3500 
L 2284 0 
L 1503 0 
L 191 3500 
z
" transform="scale(0.015625)"/>
     </defs>
     <use xlink:href="#DejaVuSans-4c"/>
     <use xlink:href="#DejaVuSans-65" x="53.962891"/>
     <use xlink:href="#DejaVuSans-61" x="115.486328"/>
     <use xlink:href="#DejaVuSans-72" x="176.765625"/>
     <use xlink:href="#DejaVuSans-6e" x="216.128906"/>
     <use xlink:href="#DejaVuSans-69" x="279.507812"/>
     <use xlink:href="#DejaVuSans-6e" x="307.291016"/>
     <use xlink:href="#DejaVuSans-67" x="370.669922"/>
     <use xlink:href="#DejaVuSans-20" x="434.146484"/>
     <use xlink:href="#DejaVuSans-43" x="465.933594"/>
     <use xlink:href="#DejaVuSans-75" x="535.757812"/>
     <use xlink:href="#DejaVuSans-72" x="599.136719"/>
     <use xlink:href="#DejaVuSans-76" x="640.25"/>
     <use xlink:href="#DejaVuSans-65" x="699.429688"/>
     <use xlink:href="#DejaVuSans-73" x="760.953125"/>
    </g>
   </g>
   <g id="legend_1">
    <g id="patch_7">
     <path d="M 214.18875 302.584 
L 407.72 302.584 
Q 409.72 302.584 409.72 300.584 
L 409.72 228.193375 
Q 409.72 226.193375 407.72 226.193375 
L 214.18875 226.193375 
Q 212.18875 226.193375 212.18875 228.193375 
L 212.18875 300.584 
Q 212.18875 302.584 214.18875 302.584 
z
" style="fill: #ffffff; opacity: 0.8; stroke: #cccccc; stroke-linejoin: miter"/>
    </g>
    <g id="line2d_24">
     <path d="M 216.18875 234.291812 
L 226.18875 234.291812 
L 236.18875 234.291812 
" style="fill: none; stroke: #1f77b4; stroke-width: 1.5; stroke-linecap: square"/>
    </g>
    <g id="text_22">
     <!-- Train Accuracy -->
     <g transform="translate(244.18875 237.791812) scale(0.1 -0.1)">
      <defs>
       <path id="DejaVuSans-54" d="M -19 4666 
L 3928 4666 
L 3928 4134 
L 2272 4134 
L 2272 0 
L 1638 0 
L 1638 4134 
L -19 4134 
L -19 4666 
z
" transform="scale(0.015625)"/>
      </defs>
      <use xlink:href="#DejaVuSans-54"/>
      <use xlink:href="#DejaVuSans-72" x="46.333984"/>
      <use xlink:href="#DejaVuSans-61" x="87.447266"/>
      <use xlink:href="#DejaVuSans-69" x="148.726562"/>
      <use xlink:href="#DejaVuSans-6e" x="176.509766"/>
      <use xlink:href="#DejaVuSans-20" x="239.888672"/>
      <use xlink:href="#DejaVuSans-41" x="271.675781"/>
      <use xlink:href="#DejaVuSans-63" x="338.333984"/>
      <use xlink:href="#DejaVuSans-63" x="393.314453"/>
      <use xlink:href="#DejaVuSans-75" x="448.294922"/>
      <use xlink:href="#DejaVuSans-72" x="511.673828"/>
      <use xlink:href="#DejaVuSans-61" x="552.787109"/>
      <use xlink:href="#DejaVuSans-63" x="614.066406"/>
      <use xlink:href="#DejaVuSans-79" x="669.046875"/>
     </g>
    </g>
    <g id="line2d_25">
     <path d="M 216.18875 248.969937 
L 226.18875 248.969937 
L 236.18875 248.969937 
" style="fill: none; stroke: #ff7f0e; stroke-width: 1.5; stroke-linecap: square"/>
    </g>
    <g id="text_23">
     <!-- Validation Accuracy -->
     <g transform="translate(244.18875 252.469937) scale(0.1 -0.1)">
      <defs>
       <path id="DejaVuSans-56" d="M 1831 0 
L 50 4666 
L 709 4666 
L 2188 738 
L 3669 4666 
L 4325 4666 
L 2547 0 
L 1831 0 
z
" transform="scale(0.015625)"/>
       <path id="DejaVuSans-6c" d="M 603 4863 
L 1178 4863 
L 1178 0 
L 603 0 
L 603 4863 
z
" transform="scale(0.015625)"/>
       <path id="DejaVuSans-64" d="M 2906 2969 
L 2906 4863 
L 3481 4863 
L 3481 0 
L 2906 0 
L 2906 525 
Q 2725 213 2448 61 
Q 2172 -91 1784 -91 
Q 1150 -91 751 415 
Q 353 922 353 1747 
Q 353 2572 751 3078 
Q 1150 3584 1784 3584 
Q 2172 3584 2448 3432 
Q 2725 3281 2906 2969 
z
M 947 1747 
Q 947 1113 1208 752 
Q 1469 391 1925 391 
Q 2381 391 2643 752 
Q 2906 1113 2906 1747 
Q 2906 2381 2643 2742 
Q 2381 3103 1925 3103 
Q 1469 3103 1208 2742 
Q 947 2381 947 1747 
z
" transform="scale(0.015625)"/>
       <path id="DejaVuSans-74" d="M 1172 4494 
L 1172 3500 
L 2356 3500 
L 2356 3053 
L 1172 3053 
L 1172 1153 
Q 1172 725 1289 603 
Q 1406 481 1766 481 
L 2356 481 
L 2356 0 
L 1766 0 
Q 1100 0 847 248 
Q 594 497 594 1153 
L 594 3053 
L 172 3053 
L 172 3500 
L 594 3500 
L 594 4494 
L 1172 4494 
z
" transform="scale(0.015625)"/>
      </defs>
      <use xlink:href="#DejaVuSans-56"/>
      <use xlink:href="#DejaVuSans-61" x="60.658203"/>
      <use xlink:href="#DejaVuSans-6c" x="121.9375"/>
      <use xlink:href="#DejaVuSans-69" x="149.720703"/>
      <use xlink:href="#DejaVuSans-64" x="177.503906"/>
      <use xlink:href="#DejaVuSans-61" x="240.980469"/>
      <use xlink:href="#DejaVuSans-74" x="302.259766"/>
      <use xlink:href="#DejaVuSans-69" x="341.46875"/>
      <use xlink:href="#DejaVuSans-6f" x="369.251953"/>
      <use xlink:href="#DejaVuSans-6e" x="430.433594"/>
      <use xlink:href="#DejaVuSans-20" x="493.8125"/>
      <use xlink:href="#DejaVuSans-41" x="525.599609"/>
      <use xlink:href="#DejaVuSans-63" x="592.257812"/>
      <use xlink:href="#DejaVuSans-63" x="647.238281"/>
      <use xlink:href="#DejaVuSans-75" x="702.21875"/>
      <use xlink:href="#DejaVuSans-72" x="765.597656"/>
      <use xlink:href="#DejaVuSans-61" x="806.710938"/>
      <use xlink:href="#DejaVuSans-63" x="867.990234"/>
      <use xlink:href="#DejaVuSans-79" x="922.970703"/>
     </g>
    </g>
    <g id="line2d_26">
     <path d="M 216.18875 263.648062 
L 226.18875 263.648062 
L 236.18875 263.648062 
" style="fill: none; stroke: #2ca02c; stroke-width: 1.5; stroke-linecap: square"/>
    </g>
    <g id="text_24">
     <!-- Robust Validation Accuracy -->
     <g transform="translate(244.18875 267.148062) scale(0.1 -0.1)">
      <defs>
       <path id="DejaVuSans-52" d="M 2841 2188 
Q 3044 2119 3236 1894 
Q 3428 1669 3622 1275 
L 4263 0 
L 3584 0 
L 2988 1197 
Q 2756 1666 2539 1819 
Q 2322 1972 1947 1972 
L 1259 1972 
L 1259 0 
L 628 0 
L 628 4666 
L 2053 4666 
Q 2853 4666 3247 4331 
Q 3641 3997 3641 3322 
Q 3641 2881 3436 2590 
Q 3231 2300 2841 2188 
z
M 1259 4147 
L 1259 2491 
L 2053 2491 
Q 2509 2491 2742 2702 
Q 2975 2913 2975 3322 
Q 2975 3731 2742 3939 
Q 2509 4147 2053 4147 
L 1259 4147 
z
" transform="scale(0.015625)"/>
       <path id="DejaVuSans-62" d="M 3116 1747 
Q 3116 2381 2855 2742 
Q 2594 3103 2138 3103 
Q 1681 3103 1420 2742 
Q 1159 2381 1159 1747 
Q 1159 1113 1420 752 
Q 1681 391 2138 391 
Q 2594 391 2855 752 
Q 3116 1113 3116 1747 
z
M 1159 2969 
Q 1341 3281 1617 3432 
Q 1894 3584 2278 3584 
Q 2916 3584 3314 3078 
Q 3713 2572 3713 1747 
Q 3713 922 3314 415 
Q 2916 -91 2278 -91 
Q 1894 -91 1617 61 
Q 1341 213 1159 525 
L 1159 0 
L 581 0 
L 581 4863 
L 1159 4863 
L 1159 2969 
z
" transform="scale(0.015625)"/>
      </defs>
      <use xlink:href="#DejaVuSans-52"/>
      <use xlink:href="#DejaVuSans-6f" x="64.982422"/>
      <use xlink:href="#DejaVuSans-62" x="126.164062"/>
      <use xlink:href="#DejaVuSans-75" x="189.640625"/>
      <use xlink:href="#DejaVuSans-73" x="253.019531"/>
      <use xlink:href="#DejaVuSans-74" x="305.119141"/>
      <use xlink:href="#DejaVuSans-20" x="344.328125"/>
      <use xlink:href="#DejaVuSans-56" x="376.115234"/>
      <use xlink:href="#DejaVuSans-61" x="436.773438"/>
      <use xlink:href="#DejaVuSans-6c" x="498.052734"/>
      <use xlink:href="#DejaVuSans-69" x="525.835938"/>
      <use xlink:href="#DejaVuSans-64" x="553.619141"/>
      <use xlink:href="#DejaVuSans-61" x="617.095703"/>
      <use xlink:href="#DejaVuSans-74" x="678.375"/>
      <use xlink:href="#DejaVuSans-69" x="717.583984"/>
      <use xlink:href="#DejaVuSans-6f" x="745.367188"/>
      <use xlink:href="#DejaVuSans-6e" x="806.548828"/>
      <use xlink:href="#DejaVuSans-20" x="869.927734"/>
      <use xlink:href="#DejaVuSans-41" x="901.714844"/>
      <use xlink:href="#DejaVuSans-63" x="968.373047"/>
      <use xlink:href="#DejaVuSans-63" x="1023.353516"/>
      <use xlink:href="#DejaVuSans-75" x="1078.333984"/>
      <use xlink:href="#DejaVuSans-72" x="1141.712891"/>
      <use xlink:href="#DejaVuSans-61" x="1182.826172"/>
      <use xlink:href="#DejaVuSans-63" x="1244.105469"/>
      <use xlink:href="#DejaVuSans-79" x="1299.085938"/>
     </g>
    </g>
    <g id="line2d_27">
     <path d="M 216.18875 278.326188 
L 226.18875 278.326188 
L 236.18875 278.326188 
" style="fill: none; stroke: #d62728; stroke-width: 1.5; stroke-linecap: square"/>
    </g>
    <g id="text_25">
     <!-- SWA Validation Accuracy -->
     <g transform="translate(244.18875 281.826188) scale(0.1 -0.1)">
      <defs>
       <path id="DejaVuSans-53" d="M 3425 4513 
L 3425 3897 
Q 3066 4069 2747 4153 
Q 2428 4238 2131 4238 
Q 1616 4238 1336 4038 
Q 1056 3838 1056 3469 
Q 1056 3159 1242 3001 
Q 1428 2844 1947 2747 
L 2328 2669 
Q 3034 2534 3370 2195 
Q 3706 1856 3706 1288 
Q 3706 609 3251 259 
Q 2797 -91 1919 -91 
Q 1588 -91 1214 -16 
Q 841 59 441 206 
L 441 856 
Q 825 641 1194 531 
Q 1563 422 1919 422 
Q 2459 422 2753 634 
Q 3047 847 3047 1241 
Q 3047 1584 2836 1778 
Q 2625 1972 2144 2069 
L 1759 2144 
Q 1053 2284 737 2584 
Q 422 2884 422 3419 
Q 422 4038 858 4394 
Q 1294 4750 2059 4750 
Q 2388 4750 2728 4690 
Q 3069 4631 3425 4513 
z
" transform="scale(0.015625)"/>
       <path id="DejaVuSans-57" d="M 213 4666 
L 850 4666 
L 1831 722 
L 2809 4666 
L 3519 4666 
L 4500 722 
L 5478 4666 
L 6119 4666 
L 4947 0 
L 4153 0 
L 3169 4050 
L 2175 0 
L 1381 0 
L 213 4666 
z
" transform="scale(0.015625)"/>
      </defs>
      <use xlink:href="#DejaVuSans-53"/>
      <use xlink:href="#DejaVuSans-57" x="63.476562"/>
      <use xlink:href="#DejaVuSans-41" x="156.853516"/>
      <use xlink:href="#DejaVuSans-20" x="225.261719"/>
      <use xlink:href="#DejaVuSans-56" x="257.048828"/>
      <use xlink:href="#DejaVuSans-61" x="317.707031"/>
      <use xlink:href="#DejaVuSans-6c" x="378.986328"/>
      <use xlink:href="#DejaVuSans-69" x="406.769531"/>
      <use xlink:href="#DejaVuSans-64" x="434.552734"/>
      <use xlink:href="#DejaVuSans-61" x="498.029297"/>
      <use xlink:href="#DejaVuSans-74" x="559.308594"/>
      <use xlink:href="#DejaVuSans-69" x="598.517578"/>
      <use xlink:href="#DejaVuSans-6f" x="626.300781"/>
      <use xlink:href="#DejaVuSans-6e" x="687.482422"/>
      <use xlink:href="#DejaVuSans-20" x="750.861328"/>
      <use xlink:href="#DejaVuSans-41" x="782.648438"/>
      <use xlink:href="#DejaVuSans-63" x="849.306641"/>
      <use xlink:href="#DejaVuSans-63" x="904.287109"/>
      <use xlink:href="#DejaVuSans-75" x="959.267578"/>
      <use xlink:href="#DejaVuSans-72" x="1022.646484"/>
      <use xlink:href="#DejaVuSans-61" x="1063.759766"/>
      <use xlink:href="#DejaVuSans-63" x="1125.039062"/>
      <use xlink:href="#DejaVuSans-79" x="1180.019531"/>
     </g>
    </g>
    <g id="line2d_28">
     <path d="M 216.18875 293.004312 
L 226.18875 293.004312 
L 236.18875 293.004312 
" style="fill: none; stroke: #9467bd; stroke-width: 1.5; stroke-linecap: square"/>
    </g>
    <g id="text_26">
     <!-- SWA Robust Validation Accuracy -->
     <g transform="translate(244.18875 296.504312) scale(0.1 -0.1)">
      <use xlink:href="#DejaVuSans-53"/>
      <use xlink:href="#DejaVuSans-57" x="63.476562"/>
      <use xlink:href="#DejaVuSans-41" x="156.853516"/>
      <use xlink:href="#DejaVuSans-20" x="225.261719"/>
      <use xlink:href="#DejaVuSans-52" x="257.048828"/>
      <use xlink:href="#DejaVuSans-6f" x="322.03125"/>
      <use xlink:href="#DejaVuSans-62" x="383.212891"/>
      <use xlink:href="#DejaVuSans-75" x="446.689453"/>
      <use xlink:href="#DejaVuSans-73" x="510.068359"/>
      <use xlink:href="#DejaVuSans-74" x="562.167969"/>
      <use xlink:href="#DejaVuSans-20" x="601.376953"/>
      <use xlink:href="#DejaVuSans-56" x="633.164062"/>
      <use xlink:href="#DejaVuSans-61" x="693.822266"/>
      <use xlink:href="#DejaVuSans-6c" x="755.101562"/>
      <use xlink:href="#DejaVuSans-69" x="782.884766"/>
      <use xlink:href="#DejaVuSans-64" x="810.667969"/>
      <use xlink:href="#DejaVuSans-61" x="874.144531"/>
      <use xlink:href="#DejaVuSans-74" x="935.423828"/>
      <use xlink:href="#DejaVuSans-69" x="974.632812"/>
      <use xlink:href="#DejaVuSans-6f" x="1002.416016"/>
      <use xlink:href="#DejaVuSans-6e" x="1063.597656"/>
      <use xlink:href="#DejaVuSans-20" x="1126.976562"/>
      <use xlink:href="#DejaVuSans-41" x="1158.763672"/>
      <use xlink:href="#DejaVuSans-63" x="1225.421875"/>
      <use xlink:href="#DejaVuSans-63" x="1280.402344"/>
      <use xlink:href="#DejaVuSans-75" x="1335.382812"/>
      <use xlink:href="#DejaVuSans-72" x="1398.761719"/>
      <use xlink:href="#DejaVuSans-61" x="1439.875"/>
      <use xlink:href="#DejaVuSans-63" x="1501.154297"/>
      <use xlink:href="#DejaVuSans-79" x="1556.134766"/>
     </g>
    </g>
   </g>
  </g>
 </g>
 <defs>
  <clipPath id="p3d017a302c">
   <rect x="57.6" y="41.472" width="357.12" height="266.112"/>
  </clipPath>
 </defs>
</svg>
