<?xml version="1.0" encoding="utf-8" standalone="no"?>
<!DOCTYPE svg PUBLIC "-//W3C//DTD SVG 1.1//EN"
  "http://www.w3.org/Graphics/SVG/1.1/DTD/svg11.dtd">
<svg xmlns:xlink="http://www.w3.org/1999/xlink" width="460.8pt" height="345.6pt" viewBox="0 0 460.8 345.6" xmlns="http://www.w3.org/2000/svg" version="1.1">
 <metadata>
  <rdf:RDF xmlns:dc="http://purl.org/dc/elements/1.1/" xmlns:cc="http://creativecommons.org/ns#" xmlns:rdf="http://www.w3.org/1999/02/22-rdf-syntax-ns#">
   <cc:Work>
    <dc:type rdf:resource="http://purl.org/dc/dcmitype/StillImage"/>
    <dc:date>2025-05-07T10:13:12.799343</dc:date>
    <dc:format>image/svg+xml</dc:format>
    <dc:creator>
     <cc:Agent>
      <dc:title>Matplotlib v3.9.1, https://matplotlib.org/</dc:title>
     </cc:Agent>
    </dc:creator>
   </cc:Work>
  </rdf:RDF>
 </metadata>
 <defs>
  <style type="text/css">*{stroke-linejoin: round; stroke-linecap: butt}</style>
 </defs>
 <g id="figure_1">
  <g id="patch_1">
   <path d="M 0 345.6 
L 460.8 345.6 
L 460.8 0 
L 0 0 
z
" style="fill: #ffffff"/>
  </g>
  <g id="axes_1">
   <g id="patch_2">
    <path d="M 57.6 307.584 
L 414.72 307.584 
L 414.72 41.472 
L 57.6 41.472 
z
" style="fill: #ffffff"/>
   </g>
   <g id="matplotlib.axis_1">
    <g id="xtick_1">
     <g id="line2d_1">
      <defs>
       <path id="ma8155f983d" d="M 0 0 
L 0 3.5 
" style="stroke: #000000; stroke-width: 0.8"/>
      </defs>
      <g>
       <use xlink:href="#ma8155f983d" x="73.832727" y="307.584" style="stroke: #000000; stroke-width: 0.8"/>
      </g>
     </g>
     <g id="text_1">
      <!-- 1 -->
      <g transform="translate(70.651477 322.182437) scale(0.1 -0.1)">
       <defs>
        <path id="DejaVuSans-31" d="M 794 531 
L 1825 531 
L 1825 4091 
L 703 3866 
L 703 4441 
L 1819 4666 
L 2450 4666 
L 2450 531 
L 3481 531 
L 3481 0 
L 794 0 
L 794 531 
z
" transform="scale(0.015625)"/>
       </defs>
       <use xlink:href="#DejaVuSans-31"/>
      </g>
     </g>
    </g>
    <g id="xtick_2">
     <g id="line2d_2">
      <g>
       <use xlink:href="#ma8155f983d" x="109.664165" y="307.584" style="stroke: #000000; stroke-width: 0.8"/>
      </g>
     </g>
     <g id="text_2">
      <!-- 34 -->
      <g transform="translate(103.301665 322.182437) scale(0.1 -0.1)">
       <defs>
        <path id="DejaVuSans-33" d="M 2597 2516 
Q 3050 2419 3304 2112 
Q 3559 1806 3559 1356 
Q 3559 666 3084 287 
Q 2609 -91 1734 -91 
Q 1441 -91 1130 -33 
Q 819 25 488 141 
L 488 750 
Q 750 597 1062 519 
Q 1375 441 1716 441 
Q 2309 441 2620 675 
Q 2931 909 2931 1356 
Q 2931 1769 2642 2001 
Q 2353 2234 1838 2234 
L 1294 2234 
L 1294 2753 
L 1863 2753 
Q 2328 2753 2575 2939 
Q 2822 3125 2822 3475 
Q 2822 3834 2567 4026 
Q 2313 4219 1838 4219 
Q 1578 4219 1281 4162 
Q 984 4106 628 3988 
L 628 4550 
Q 988 4650 1302 4700 
Q 1616 4750 1894 4750 
Q 2613 4750 3031 4423 
Q 3450 4097 3450 3541 
Q 3450 3153 3228 2886 
Q 3006 2619 2597 2516 
z
" transform="scale(0.015625)"/>
        <path id="DejaVuSans-34" d="M 2419 4116 
L 825 1625 
L 2419 1625 
L 2419 4116 
z
M 2253 4666 
L 3047 4666 
L 3047 1625 
L 3713 1625 
L 3713 1100 
L 3047 1100 
L 3047 0 
L 2419 0 
L 2419 1100 
L 313 1100 
L 313 1709 
L 2253 4666 
z
" transform="scale(0.015625)"/>
       </defs>
       <use xlink:href="#DejaVuSans-33"/>
       <use xlink:href="#DejaVuSans-34" x="63.623047"/>
      </g>
     </g>
    </g>
    <g id="xtick_3">
     <g id="line2d_3">
      <g>
       <use xlink:href="#ma8155f983d" x="145.495604" y="307.584" style="stroke: #000000; stroke-width: 0.8"/>
      </g>
     </g>
     <g id="text_3">
      <!-- 67 -->
      <g transform="translate(139.133104 322.182437) scale(0.1 -0.1)">
       <defs>
        <path id="DejaVuSans-36" d="M 2113 2584 
Q 1688 2584 1439 2293 
Q 1191 2003 1191 1497 
Q 1191 994 1439 701 
Q 1688 409 2113 409 
Q 2538 409 2786 701 
Q 3034 994 3034 1497 
Q 3034 2003 2786 2293 
Q 2538 2584 2113 2584 
z
M 3366 4563 
L 3366 3988 
Q 3128 4100 2886 4159 
Q 2644 4219 2406 4219 
Q 1781 4219 1451 3797 
Q 1122 3375 1075 2522 
Q 1259 2794 1537 2939 
Q 1816 3084 2150 3084 
Q 2853 3084 3261 2657 
Q 3669 2231 3669 1497 
Q 3669 778 3244 343 
Q 2819 -91 2113 -91 
Q 1303 -91 875 529 
Q 447 1150 447 2328 
Q 447 3434 972 4092 
Q 1497 4750 2381 4750 
Q 2619 4750 2861 4703 
Q 3103 4656 3366 4563 
z
" transform="scale(0.015625)"/>
        <path id="DejaVuSans-37" d="M 525 4666 
L 3525 4666 
L 3525 4397 
L 1831 0 
L 1172 0 
L 2766 4134 
L 525 4134 
L 525 4666 
z
" transform="scale(0.015625)"/>
       </defs>
       <use xlink:href="#DejaVuSans-36"/>
       <use xlink:href="#DejaVuSans-37" x="63.623047"/>
      </g>
     </g>
    </g>
    <g id="xtick_4">
     <g id="line2d_4">
      <g>
       <use xlink:href="#ma8155f983d" x="181.327042" y="307.584" style="stroke: #000000; stroke-width: 0.8"/>
      </g>
     </g>
     <g id="text_4">
      <!-- 100 -->
      <g transform="translate(171.783292 322.182437) scale(0.1 -0.1)">
       <defs>
        <path id="DejaVuSans-30" d="M 2034 4250 
Q 1547 4250 1301 3770 
Q 1056 3291 1056 2328 
Q 1056 1369 1301 889 
Q 1547 409 2034 409 
Q 2525 409 2770 889 
Q 3016 1369 3016 2328 
Q 3016 3291 2770 3770 
Q 2525 4250 2034 4250 
z
M 2034 4750 
Q 2819 4750 3233 4129 
Q 3647 3509 3647 2328 
Q 3647 1150 3233 529 
Q 2819 -91 2034 -91 
Q 1250 -91 836 529 
Q 422 1150 422 2328 
Q 422 3509 836 4129 
Q 1250 4750 2034 4750 
z
" transform="scale(0.015625)"/>
       </defs>
       <use xlink:href="#DejaVuSans-31"/>
       <use xlink:href="#DejaVuSans-30" x="63.623047"/>
       <use xlink:href="#DejaVuSans-30" x="127.246094"/>
      </g>
     </g>
    </g>
    <g id="xtick_5">
     <g id="line2d_5">
      <g>
       <use xlink:href="#ma8155f983d" x="217.15848" y="307.584" style="stroke: #000000; stroke-width: 0.8"/>
      </g>
     </g>
     <g id="text_5">
      <!-- 133 -->
      <g transform="translate(207.61473 322.182437) scale(0.1 -0.1)">
       <use xlink:href="#DejaVuSans-31"/>
       <use xlink:href="#DejaVuSans-33" x="63.623047"/>
       <use xlink:href="#DejaVuSans-33" x="127.246094"/>
      </g>
     </g>
    </g>
    <g id="xtick_6">
     <g id="line2d_6">
      <g>
       <use xlink:href="#ma8155f983d" x="254.075719" y="307.584" style="stroke: #000000; stroke-width: 0.8"/>
      </g>
     </g>
     <g id="text_6">
      <!-- 167 -->
      <g transform="translate(244.531969 322.182437) scale(0.1 -0.1)">
       <use xlink:href="#DejaVuSans-31"/>
       <use xlink:href="#DejaVuSans-36" x="63.623047"/>
       <use xlink:href="#DejaVuSans-37" x="127.246094"/>
      </g>
     </g>
    </g>
    <g id="xtick_7">
     <g id="line2d_7">
      <g>
       <use xlink:href="#ma8155f983d" x="289.907157" y="307.584" style="stroke: #000000; stroke-width: 0.8"/>
      </g>
     </g>
     <g id="text_7">
      <!-- 200 -->
      <g transform="translate(280.363407 322.182437) scale(0.1 -0.1)">
       <defs>
        <path id="DejaVuSans-32" d="M 1228 531 
L 3431 531 
L 3431 0 
L 469 0 
L 469 531 
Q 828 903 1448 1529 
Q 2069 2156 2228 2338 
Q 2531 2678 2651 2914 
Q 2772 3150 2772 3378 
Q 2772 3750 2511 3984 
Q 2250 4219 1831 4219 
Q 1534 4219 1204 4116 
Q 875 4013 500 3803 
L 500 4441 
Q 881 4594 1212 4672 
Q 1544 4750 1819 4750 
Q 2544 4750 2975 4387 
Q 3406 4025 3406 3419 
Q 3406 3131 3298 2873 
Q 3191 2616 2906 2266 
Q 2828 2175 2409 1742 
Q 1991 1309 1228 531 
z
" transform="scale(0.015625)"/>
       </defs>
       <use xlink:href="#DejaVuSans-32"/>
       <use xlink:href="#DejaVuSans-30" x="63.623047"/>
       <use xlink:href="#DejaVuSans-30" x="127.246094"/>
      </g>
     </g>
    </g>
    <g id="xtick_8">
     <g id="line2d_8">
      <g>
       <use xlink:href="#ma8155f983d" x="325.738595" y="307.584" style="stroke: #000000; stroke-width: 0.8"/>
      </g>
     </g>
     <g id="text_8">
      <!-- 233 -->
      <g transform="translate(316.194845 322.182437) scale(0.1 -0.1)">
       <use xlink:href="#DejaVuSans-32"/>
       <use xlink:href="#DejaVuSans-33" x="63.623047"/>
       <use xlink:href="#DejaVuSans-33" x="127.246094"/>
      </g>
     </g>
    </g>
    <g id="xtick_9">
     <g id="line2d_9">
      <g>
       <use xlink:href="#ma8155f983d" x="361.570033" y="307.584" style="stroke: #000000; stroke-width: 0.8"/>
      </g>
     </g>
     <g id="text_9">
      <!-- 266 -->
      <g transform="translate(352.026283 322.182437) scale(0.1 -0.1)">
       <use xlink:href="#DejaVuSans-32"/>
       <use xlink:href="#DejaVuSans-36" x="63.623047"/>
       <use xlink:href="#DejaVuSans-36" x="127.246094"/>
      </g>
     </g>
    </g>
    <g id="xtick_10">
     <g id="line2d_10">
      <g>
       <use xlink:href="#ma8155f983d" x="398.487273" y="307.584" style="stroke: #000000; stroke-width: 0.8"/>
      </g>
     </g>
     <g id="text_10">
      <!-- 300 -->
      <g transform="translate(388.943523 322.182437) scale(0.1 -0.1)">
       <use xlink:href="#DejaVuSans-33"/>
       <use xlink:href="#DejaVuSans-30" x="63.623047"/>
       <use xlink:href="#DejaVuSans-30" x="127.246094"/>
      </g>
     </g>
    </g>
    <g id="text_11">
     <!-- Epochs -->
     <g transform="translate(218.244375 335.860562) scale(0.1 -0.1)">
      <defs>
       <path id="DejaVuSans-45" d="M 628 4666 
L 3578 4666 
L 3578 4134 
L 1259 4134 
L 1259 2753 
L 3481 2753 
L 3481 2222 
L 1259 2222 
L 1259 531 
L 3634 531 
L 3634 0 
L 628 0 
L 628 4666 
z
" transform="scale(0.015625)"/>
       <path id="DejaVuSans-70" d="M 1159 525 
L 1159 -1331 
L 581 -1331 
L 581 3500 
L 1159 3500 
L 1159 2969 
Q 1341 3281 1617 3432 
Q 1894 3584 2278 3584 
Q 2916 3584 3314 3078 
Q 3713 2572 3713 1747 
Q 3713 922 3314 415 
Q 2916 -91 2278 -91 
Q 1894 -91 1617 61 
Q 1341 213 1159 525 
z
M 3116 1747 
Q 3116 2381 2855 2742 
Q 2594 3103 2138 3103 
Q 1681 3103 1420 2742 
Q 1159 2381 1159 1747 
Q 1159 1113 1420 752 
Q 1681 391 2138 391 
Q 2594 391 2855 752 
Q 3116 1113 3116 1747 
z
" transform="scale(0.015625)"/>
       <path id="DejaVuSans-6f" d="M 1959 3097 
Q 1497 3097 1228 2736 
Q 959 2375 959 1747 
Q 959 1119 1226 758 
Q 1494 397 1959 397 
Q 2419 397 2687 759 
Q 2956 1122 2956 1747 
Q 2956 2369 2687 2733 
Q 2419 3097 1959 3097 
z
M 1959 3584 
Q 2709 3584 3137 3096 
Q 3566 2609 3566 1747 
Q 3566 888 3137 398 
Q 2709 -91 1959 -91 
Q 1206 -91 779 398 
Q 353 888 353 1747 
Q 353 2609 779 3096 
Q 1206 3584 1959 3584 
z
" transform="scale(0.015625)"/>
       <path id="DejaVuSans-63" d="M 3122 3366 
L 3122 2828 
Q 2878 2963 2633 3030 
Q 2388 3097 2138 3097 
Q 1578 3097 1268 2742 
Q 959 2388 959 1747 
Q 959 1106 1268 751 
Q 1578 397 2138 397 
Q 2388 397 2633 464 
Q 2878 531 3122 666 
L 3122 134 
Q 2881 22 2623 -34 
Q 2366 -91 2075 -91 
Q 1284 -91 818 406 
Q 353 903 353 1747 
Q 353 2603 823 3093 
Q 1294 3584 2113 3584 
Q 2378 3584 2631 3529 
Q 2884 3475 3122 3366 
z
" transform="scale(0.015625)"/>
       <path id="DejaVuSans-68" d="M 3513 2113 
L 3513 0 
L 2938 0 
L 2938 2094 
Q 2938 2591 2744 2837 
Q 2550 3084 2163 3084 
Q 1697 3084 1428 2787 
Q 1159 2491 1159 1978 
L 1159 0 
L 581 0 
L 581 4863 
L 1159 4863 
L 1159 2956 
Q 1366 3272 1645 3428 
Q 1925 3584 2291 3584 
Q 2894 3584 3203 3211 
Q 3513 2838 3513 2113 
z
" transform="scale(0.015625)"/>
       <path id="DejaVuSans-73" d="M 2834 3397 
L 2834 2853 
Q 2591 2978 2328 3040 
Q 2066 3103 1784 3103 
Q 1356 3103 1142 2972 
Q 928 2841 928 2578 
Q 928 2378 1081 2264 
Q 1234 2150 1697 2047 
L 1894 2003 
Q 2506 1872 2764 1633 
Q 3022 1394 3022 966 
Q 3022 478 2636 193 
Q 2250 -91 1575 -91 
Q 1294 -91 989 -36 
Q 684 19 347 128 
L 347 722 
Q 666 556 975 473 
Q 1284 391 1588 391 
Q 1994 391 2212 530 
Q 2431 669 2431 922 
Q 2431 1156 2273 1281 
Q 2116 1406 1581 1522 
L 1381 1569 
Q 847 1681 609 1914 
Q 372 2147 372 2553 
Q 372 3047 722 3315 
Q 1072 3584 1716 3584 
Q 2034 3584 2315 3537 
Q 2597 3491 2834 3397 
z
" transform="scale(0.015625)"/>
      </defs>
      <use xlink:href="#DejaVuSans-45"/>
      <use xlink:href="#DejaVuSans-70" x="63.183594"/>
      <use xlink:href="#DejaVuSans-6f" x="126.660156"/>
      <use xlink:href="#DejaVuSans-63" x="187.841797"/>
      <use xlink:href="#DejaVuSans-68" x="242.822266"/>
      <use xlink:href="#DejaVuSans-73" x="306.201172"/>
     </g>
    </g>
   </g>
   <g id="matplotlib.axis_2">
    <g id="ytick_1">
     <g id="line2d_11">
      <defs>
       <path id="mfd764752b8" d="M 0 0 
L -3.5 0 
" style="stroke: #000000; stroke-width: 0.8"/>
      </defs>
      <g>
       <use xlink:href="#mfd764752b8" x="57.6" y="278.551697" style="stroke: #000000; stroke-width: 0.8"/>
      </g>
     </g>
     <g id="text_12">
      <!-- 50 -->
      <g transform="translate(37.875 282.350916) scale(0.1 -0.1)">
       <defs>
        <path id="DejaVuSans-35" d="M 691 4666 
L 3169 4666 
L 3169 4134 
L 1269 4134 
L 1269 2991 
Q 1406 3038 1543 3061 
Q 1681 3084 1819 3084 
Q 2600 3084 3056 2656 
Q 3513 2228 3513 1497 
Q 3513 744 3044 326 
Q 2575 -91 1722 -91 
Q 1428 -91 1123 -41 
Q 819 9 494 109 
L 494 744 
Q 775 591 1075 516 
Q 1375 441 1709 441 
Q 2250 441 2565 725 
Q 2881 1009 2881 1497 
Q 2881 1984 2565 2268 
Q 2250 2553 1709 2553 
Q 1456 2553 1204 2497 
Q 953 2441 691 2322 
L 691 4666 
z
" transform="scale(0.015625)"/>
       </defs>
       <use xlink:href="#DejaVuSans-35"/>
       <use xlink:href="#DejaVuSans-30" x="63.623047"/>
      </g>
     </g>
    </g>
    <g id="ytick_2">
     <g id="line2d_12">
      <g>
       <use xlink:href="#mfd764752b8" x="57.6" y="233.243235" style="stroke: #000000; stroke-width: 0.8"/>
      </g>
     </g>
     <g id="text_13">
      <!-- 60 -->
      <g transform="translate(37.875 237.042454) scale(0.1 -0.1)">
       <use xlink:href="#DejaVuSans-36"/>
       <use xlink:href="#DejaVuSans-30" x="63.623047"/>
      </g>
     </g>
    </g>
    <g id="ytick_3">
     <g id="line2d_13">
      <g>
       <use xlink:href="#mfd764752b8" x="57.6" y="187.934774" style="stroke: #000000; stroke-width: 0.8"/>
      </g>
     </g>
     <g id="text_14">
      <!-- 70 -->
      <g transform="translate(37.875 191.733993) scale(0.1 -0.1)">
       <use xlink:href="#DejaVuSans-37"/>
       <use xlink:href="#DejaVuSans-30" x="63.623047"/>
      </g>
     </g>
    </g>
    <g id="ytick_4">
     <g id="line2d_14">
      <g>
       <use xlink:href="#mfd764752b8" x="57.6" y="142.626312" style="stroke: #000000; stroke-width: 0.8"/>
      </g>
     </g>
     <g id="text_15">
      <!-- 80 -->
      <g transform="translate(37.875 146.425531) scale(0.1 -0.1)">
       <defs>
        <path id="DejaVuSans-38" d="M 2034 2216 
Q 1584 2216 1326 1975 
Q 1069 1734 1069 1313 
Q 1069 891 1326 650 
Q 1584 409 2034 409 
Q 2484 409 2743 651 
Q 3003 894 3003 1313 
Q 3003 1734 2745 1975 
Q 2488 2216 2034 2216 
z
M 1403 2484 
Q 997 2584 770 2862 
Q 544 3141 544 3541 
Q 544 4100 942 4425 
Q 1341 4750 2034 4750 
Q 2731 4750 3128 4425 
Q 3525 4100 3525 3541 
Q 3525 3141 3298 2862 
Q 3072 2584 2669 2484 
Q 3125 2378 3379 2068 
Q 3634 1759 3634 1313 
Q 3634 634 3220 271 
Q 2806 -91 2034 -91 
Q 1263 -91 848 271 
Q 434 634 434 1313 
Q 434 1759 690 2068 
Q 947 2378 1403 2484 
z
M 1172 3481 
Q 1172 3119 1398 2916 
Q 1625 2713 2034 2713 
Q 2441 2713 2670 2916 
Q 2900 3119 2900 3481 
Q 2900 3844 2670 4047 
Q 2441 4250 2034 4250 
Q 1625 4250 1398 4047 
Q 1172 3844 1172 3481 
z
" transform="scale(0.015625)"/>
       </defs>
       <use xlink:href="#DejaVuSans-38"/>
       <use xlink:href="#DejaVuSans-30" x="63.623047"/>
      </g>
     </g>
    </g>
    <g id="ytick_5">
     <g id="line2d_15">
      <g>
       <use xlink:href="#mfd764752b8" x="57.6" y="97.317851" style="stroke: #000000; stroke-width: 0.8"/>
      </g>
     </g>
     <g id="text_16">
      <!-- 90 -->
      <g transform="translate(37.875 101.117069) scale(0.1 -0.1)">
       <defs>
        <path id="DejaVuSans-39" d="M 703 97 
L 703 672 
Q 941 559 1184 500 
Q 1428 441 1663 441 
Q 2288 441 2617 861 
Q 2947 1281 2994 2138 
Q 2813 1869 2534 1725 
Q 2256 1581 1919 1581 
Q 1219 1581 811 2004 
Q 403 2428 403 3163 
Q 403 3881 828 4315 
Q 1253 4750 1959 4750 
Q 2769 4750 3195 4129 
Q 3622 3509 3622 2328 
Q 3622 1225 3098 567 
Q 2575 -91 1691 -91 
Q 1453 -91 1209 -44 
Q 966 3 703 97 
z
M 1959 2075 
Q 2384 2075 2632 2365 
Q 2881 2656 2881 3163 
Q 2881 3666 2632 3958 
Q 2384 4250 1959 4250 
Q 1534 4250 1286 3958 
Q 1038 3666 1038 3163 
Q 1038 2656 1286 2365 
Q 1534 2075 1959 2075 
z
" transform="scale(0.015625)"/>
       </defs>
       <use xlink:href="#DejaVuSans-39"/>
       <use xlink:href="#DejaVuSans-30" x="63.623047"/>
      </g>
     </g>
    </g>
    <g id="ytick_6">
     <g id="line2d_16">
      <g>
       <use xlink:href="#mfd764752b8" x="57.6" y="52.009389" style="stroke: #000000; stroke-width: 0.8"/>
      </g>
     </g>
     <g id="text_17">
      <!-- 100 -->
      <g transform="translate(31.5125 55.808608) scale(0.1 -0.1)">
       <use xlink:href="#DejaVuSans-31"/>
       <use xlink:href="#DejaVuSans-30" x="63.623047"/>
       <use xlink:href="#DejaVuSans-30" x="127.246094"/>
      </g>
     </g>
    </g>
    <g id="text_18">
     <!-- Accuracy -->
     <g transform="translate(25.432812 197.356125) rotate(-90) scale(0.1 -0.1)">
      <defs>
       <path id="DejaVuSans-41" d="M 2188 4044 
L 1331 1722 
L 3047 1722 
L 2188 4044 
z
M 1831 4666 
L 2547 4666 
L 4325 0 
L 3669 0 
L 3244 1197 
L 1141 1197 
L 716 0 
L 50 0 
L 1831 4666 
z
" transform="scale(0.015625)"/>
       <path id="DejaVuSans-75" d="M 544 1381 
L 544 3500 
L 1119 3500 
L 1119 1403 
Q 1119 906 1312 657 
Q 1506 409 1894 409 
Q 2359 409 2629 706 
Q 2900 1003 2900 1516 
L 2900 3500 
L 3475 3500 
L 3475 0 
L 2900 0 
L 2900 538 
Q 2691 219 2414 64 
Q 2138 -91 1772 -91 
Q 1169 -91 856 284 
Q 544 659 544 1381 
z
M 1991 3584 
L 1991 3584 
z
" transform="scale(0.015625)"/>
       <path id="DejaVuSans-72" d="M 2631 2963 
Q 2534 3019 2420 3045 
Q 2306 3072 2169 3072 
Q 1681 3072 1420 2755 
Q 1159 2438 1159 1844 
L 1159 0 
L 581 0 
L 581 3500 
L 1159 3500 
L 1159 2956 
Q 1341 3275 1631 3429 
Q 1922 3584 2338 3584 
Q 2397 3584 2469 3576 
Q 2541 3569 2628 3553 
L 2631 2963 
z
" transform="scale(0.015625)"/>
       <path id="DejaVuSans-61" d="M 2194 1759 
Q 1497 1759 1228 1600 
Q 959 1441 959 1056 
Q 959 750 1161 570 
Q 1363 391 1709 391 
Q 2188 391 2477 730 
Q 2766 1069 2766 1631 
L 2766 1759 
L 2194 1759 
z
M 3341 1997 
L 3341 0 
L 2766 0 
L 2766 531 
Q 2569 213 2275 61 
Q 1981 -91 1556 -91 
Q 1019 -91 701 211 
Q 384 513 384 1019 
Q 384 1609 779 1909 
Q 1175 2209 1959 2209 
L 2766 2209 
L 2766 2266 
Q 2766 2663 2505 2880 
Q 2244 3097 1772 3097 
Q 1472 3097 1187 3025 
Q 903 2953 641 2809 
L 641 3341 
Q 956 3463 1253 3523 
Q 1550 3584 1831 3584 
Q 2591 3584 2966 3190 
Q 3341 2797 3341 1997 
z
" transform="scale(0.015625)"/>
       <path id="DejaVuSans-79" d="M 2059 -325 
Q 1816 -950 1584 -1140 
Q 1353 -1331 966 -1331 
L 506 -1331 
L 506 -850 
L 844 -850 
Q 1081 -850 1212 -737 
Q 1344 -625 1503 -206 
L 1606 56 
L 191 3500 
L 800 3500 
L 1894 763 
L 2988 3500 
L 3597 3500 
L 2059 -325 
z
" transform="scale(0.015625)"/>
      </defs>
      <use xlink:href="#DejaVuSans-41"/>
      <use xlink:href="#DejaVuSans-63" x="66.658203"/>
      <use xlink:href="#DejaVuSans-63" x="121.638672"/>
      <use xlink:href="#DejaVuSans-75" x="176.619141"/>
      <use xlink:href="#DejaVuSans-72" x="239.998047"/>
      <use xlink:href="#DejaVuSans-61" x="281.111328"/>
      <use xlink:href="#DejaVuSans-63" x="342.390625"/>
      <use xlink:href="#DejaVuSans-79" x="397.371094"/>
     </g>
    </g>
   </g>
   <g id="line2d_17">
    <path d="M 73.832727 295.488 
L 74.918528 204.236758 
L 76.00433 168.189346 
L 77.090131 150.528108 
L 78.175932 139.282548 
L 79.261733 130.012436 
L 80.347534 122.183134 
L 81.433335 117.60698 
L 82.519137 111.408782 
L 83.604938 107.521316 
L 84.690739 101.576846 
L 85.77654 98.740536 
L 87.948142 89.687906 
L 91.205546 80.780262 
L 92.291347 78.469531 
L 93.377148 76.738747 
L 94.462949 75.397617 
L 95.54875 106.551715 
L 96.634552 106.143939 
L 97.720353 102.727681 
L 99.891955 98.495871 
L 100.977756 95.713931 
L 102.063557 93.312583 
L 103.149358 92.170809 
L 105.320961 88.029616 
L 106.406762 86.733794 
L 107.492563 85.972612 
L 108.578364 83.489708 
L 109.664165 82.828205 
L 110.749967 81.160853 
L 112.921569 78.442345 
L 114.00737 77.309634 
L 115.093171 75.633221 
L 116.178972 74.509571 
L 117.264773 73.802759 
L 118.350575 71.600768 
L 120.522177 69.226604 
L 121.607978 67.532068 
L 122.693779 66.680269 
L 123.77958 65.094473 
L 124.865382 63.717095 
L 125.951183 63.517738 
L 127.036984 62.385027 
L 129.208586 61.007649 
L 130.294387 59.739012 
L 131.380189 59.684642 
L 132.46599 59.014077 
L 133.551791 58.905337 
L 134.637592 58.144155 
L 135.723393 58.189463 
L 136.809194 57.953859 
L 137.894995 57.926674 
L 138.980797 83.806867 
L 140.066598 84.993949 
L 141.152399 83.870299 
L 142.2382 83.208796 
L 143.324001 82.230133 
L 144.409802 80.798385 
L 145.495604 79.620365 
L 147.667206 79.792538 
L 148.753007 77.780842 
L 149.838808 77.998323 
L 150.924609 76.702501 
L 152.01041 75.923195 
L 153.096212 75.959442 
L 154.182013 75.171075 
L 156.353615 74.527694 
L 157.439416 72.479752 
L 158.525217 73.775574 
L 159.611019 72.425382 
L 160.69682 72.081037 
L 161.782621 72.198839 
L 162.868422 71.102375 
L 166.125825 69.697812 
L 167.211627 70.00591 
L 168.297428 68.818828 
L 169.383229 68.565101 
L 170.46903 67.794857 
L 171.554831 67.559253 
L 172.640632 68.021399 
L 173.726434 65.964395 
L 174.812235 66.172814 
L 175.898036 66.145629 
L 176.983837 65.982518 
L 178.069638 64.786375 
L 179.155439 64.052378 
L 180.24124 63.925514 
L 182.412843 62.88342 
L 183.498644 62.647816 
L 184.584445 61.741646 
L 185.670246 61.22513 
L 186.756047 61.11639 
L 187.841849 60.273652 
L 188.92765 60.58175 
L 191.099252 59.267804 
L 193.270854 58.642548 
L 194.356656 58.986892 
L 195.442457 58.33445 
L 196.528258 58.080723 
L 197.614059 57.482651 
L 198.69986 57.546083 
L 199.785661 56.884579 
L 200.871462 56.812086 
L 201.957264 55.996534 
L 205.214667 55.842485 
L 206.300468 55.371277 
L 208.472071 55.208166 
L 209.557872 54.972562 
L 210.643673 54.963501 
L 211.729474 54.782267 
L 212.815275 54.845699 
L 216.072679 54.573848 
L 217.15848 54.247627 
L 218.244281 54.374491 
L 219.330082 54.374491 
L 220.415883 54.646341 
L 221.501684 54.238565 
L 222.587486 54.15701 
L 223.673287 54.374491 
L 224.759088 54.347306 
L 225.844889 75.25263 
L 226.93069 79.32133 
L 228.016491 77.907706 
L 231.273895 74.527694 
L 232.359696 75.261691 
L 233.445497 74.047425 
L 234.531298 73.032515 
L 235.617099 73.630587 
L 236.702901 71.818248 
L 237.788702 72.425382 
L 238.874503 71.945112 
L 239.960304 71.038943 
L 241.046105 71.455781 
L 242.131906 70.449933 
L 243.217708 69.806553 
L 244.303509 69.743121 
L 245.38931 69.435023 
L 246.475111 70.75803 
L 248.646713 68.592286 
L 249.732514 69.271913 
L 250.818316 69.743121 
L 251.904117 67.64987 
L 252.989918 68.45636 
L 254.075719 68.556039 
L 255.16152 67.405204 
L 257.333123 68.030461 
L 258.418924 68.202633 
L 259.504725 66.064074 
L 260.590526 67.015551 
L 262.762128 66.779947 
L 263.847929 66.308739 
L 264.933731 66.734639 
L 266.019532 66.544343 
L 267.105333 66.236246 
L 268.191134 66.607775 
L 271.448538 65.466002 
L 272.534339 65.99158 
L 273.62014 65.094473 
L 275.791742 65.194151 
L 276.877543 65.103534 
L 277.963344 64.33329 
L 279.049146 64.559833 
L 281.220748 64.460154 
L 282.306549 63.291196 
L 283.39235 63.925514 
L 284.478151 63.934576 
L 285.563953 62.620631 
L 286.649754 63.671787 
L 287.735555 63.41806 
L 288.821356 63.028407 
L 289.907157 62.874358 
L 290.992958 63.1009 
L 292.07876 62.629692 
L 293.164561 62.357842 
L 295.336163 62.684062 
L 296.421964 62.058806 
L 297.507765 62.022559 
L 298.593566 61.805078 
L 300.765169 61.161698 
L 301.85097 61.678215 
L 302.936771 61.288562 
L 304.022572 61.22513 
L 305.108373 60.781107 
L 306.194175 61.089205 
L 308.365777 60.201159 
L 309.451578 60.400516 
L 310.537379 60.355208 
L 311.62318 60.056172 
L 312.708981 60.554565 
L 313.794783 59.639334 
L 314.880584 59.059386 
L 315.966385 59.267804 
L 317.052186 59.331236 
L 318.137987 59.177188 
L 319.223788 59.186249 
L 320.30959 58.44319 
L 321.395391 58.524746 
L 323.566993 57.836057 
L 324.652794 58.053538 
L 325.738595 58.089784 
L 326.824396 57.817934 
L 327.910198 57.401096 
L 328.995999 57.663885 
L 330.0818 57.6367 
L 331.167601 57.337664 
L 332.253402 56.793962 
L 333.339203 56.957073 
L 334.425005 56.313693 
L 335.510806 56.694284 
L 336.596607 56.766777 
L 338.768209 55.969348 
L 339.85401 56.059965 
L 340.939811 55.715621 
L 342.025613 55.8153 
L 344.197215 55.615942 
L 345.283016 55.316907 
L 347.454618 55.452832 
L 348.54042 55.054118 
L 352.883624 54.546663 
L 353.969425 55.262536 
L 355.055227 54.555724 
L 356.141028 54.256689 
L 357.226829 54.428861 
L 358.31263 54.338244 
L 359.398431 54.410737 
L 361.570033 53.912344 
L 362.655835 54.193257 
L 364.827437 54.021085 
L 365.913238 53.649555 
L 366.999039 53.568 
L 369.170642 54.111702 
L 370.256443 54.166072 
L 371.342244 54.347306 
L 372.428045 54.945377 
L 373.513846 55.371277 
L 374.599647 55.099426 
L 375.685448 55.289722 
L 376.77125 55.199105 
L 377.857051 55.534387 
L 378.942852 54.972562 
L 380.028653 55.407524 
L 381.114454 55.135673 
L 382.200255 55.525326 
L 383.286057 55.416585 
L 384.371858 55.44377 
L 385.457659 55.298783 
L 386.54346 56.069027 
L 387.629261 55.49814 
L 388.715062 55.842485 
L 389.800863 55.525326 
L 391.972466 55.914978 
L 393.058267 55.507202 
L 394.144068 55.597819 
L 395.229869 56.331816 
L 396.31567 55.824361 
L 398.487273 55.380338 
L 398.487273 55.380338 
" clip-path="url(#p3b177ec3ac)" style="fill: none; stroke: #1f77b4; stroke-width: 1.5; stroke-linecap: square"/>
   </g>
   <g id="line2d_18">
    <path d="M 73.832727 239.677037 
L 74.918528 195.591904 
L 76.00433 169.675464 
L 77.090131 189.339336 
L 78.175932 155.040831 
L 79.261733 154.76898 
L 80.347534 123.188982 
L 81.433335 125.726256 
L 82.519137 117.117648 
L 83.604938 104.70313 
L 84.690739 108.282498 
L 85.77654 109.913603 
L 86.862341 98.22402 
L 87.948142 99.945741 
L 89.033943 95.188353 
L 90.119745 93.829099 
L 91.205546 95.052427 
L 92.291347 91.337134 
L 94.462949 90.612198 
L 95.54875 119.881464 
L 96.634552 115.713086 
L 97.720353 106.968553 
L 98.806154 115.033459 
L 99.891955 109.732369 
L 100.977756 106.515468 
L 102.063557 102.029931 
L 103.149358 103.887577 
L 104.23516 107.784105 
L 105.320961 104.612513 
L 106.406762 96.683532 
L 107.492563 98.495871 
L 108.578364 98.314637 
L 109.664165 92.515154 
L 110.749967 95.097736 
L 111.835768 88.528009 
L 112.921569 93.51194 
L 115.093171 90.113805 
L 116.178972 91.019974 
L 117.264773 87.349989 
L 118.350575 86.942213 
L 119.436376 85.990735 
L 120.522177 86.353203 
L 121.607978 86.036044 
L 122.693779 84.858024 
L 123.77958 85.447034 
L 124.865382 83.906546 
L 125.951183 80.825571 
L 127.036984 82.637909 
L 128.122785 79.421008 
L 129.208586 80.191252 
L 130.294387 79.421008 
L 132.46599 78.469531 
L 133.551791 78.831998 
L 134.637592 77.60867 
L 135.723393 78.016446 
L 137.894995 78.016446 
L 138.980797 107.64818 
L 140.066598 99.900433 
L 141.152399 103.479801 
L 142.2382 103.751652 
L 143.324001 101.803388 
L 144.409802 100.625368 
L 145.495604 94.146258 
L 146.581405 96.139831 
L 147.667206 93.104164 
L 148.753007 90.838741 
L 152.01041 100.126975 
L 153.096212 91.110591 
L 154.182013 91.291825 
L 155.267814 93.602557 
L 156.353615 90.340347 
L 157.439416 97.861552 
L 158.525217 94.418109 
L 159.611019 90.113805 
L 160.69682 92.469845 
L 161.782621 87.848382 
L 162.868422 86.217277 
L 163.954223 89.479487 
L 165.040024 84.133088 
L 166.125825 92.469845 
L 167.211627 91.518367 
L 168.297428 86.670362 
L 169.383229 88.21085 
L 170.46903 83.317536 
L 172.640632 88.754551 
L 173.726434 83.136302 
L 174.812235 83.634695 
L 175.898036 86.217277 
L 176.983837 83.770621 
L 178.069638 85.220491 
L 179.155439 83.680004 
L 180.24124 83.49877 
L 181.327042 84.042471 
L 182.412843 86.036044 
L 183.498644 84.631481 
L 184.584445 82.90976 
L 185.670246 85.492342 
L 186.756047 81.278655 
L 187.841849 81.867665 
L 188.92765 83.226919 
L 190.013451 79.466317 
L 191.099252 81.097421 
L 192.185053 79.919401 
L 193.270854 80.191252 
L 194.356656 80.780262 
L 195.442457 80.145944 
L 196.528258 79.647551 
L 197.614059 78.741381 
L 198.69986 81.006804 
L 199.785661 79.828784 
L 200.871462 77.336819 
L 201.957264 77.01966 
L 203.043065 77.155585 
L 204.128866 77.427436 
L 205.214667 77.518053 
L 206.300468 76.475958 
L 207.386269 76.158799 
L 209.557872 76.113491 
L 210.643673 75.705714 
L 211.729474 75.524481 
L 212.815275 75.116704 
L 214.986877 75.433864 
L 216.072679 74.754237 
L 217.15848 74.66362 
L 218.244281 75.026087 
L 219.330082 74.301152 
L 220.415883 74.799545 
L 221.501684 75.162013 
L 222.587486 74.527694 
L 223.673287 74.708928 
L 224.759088 74.618311 
L 225.844889 94.68996 
L 226.93069 95.86798 
L 228.016491 91.971452 
L 229.102292 93.919716 
L 230.188094 92.33392 
L 231.273895 94.236875 
L 232.359696 90.385656 
L 233.445497 91.019974 
L 234.531298 94.68996 
L 235.617099 90.159114 
L 236.702901 84.903332 
L 237.788702 93.194781 
L 238.874503 92.379228 
L 239.960304 91.382442 
L 241.046105 89.570104 
L 242.131906 88.256158 
L 243.217708 85.039257 
L 244.303509 90.476273 
L 245.38931 89.071711 
L 246.475111 86.987521 
L 247.560912 93.149472 
L 248.646713 85.900118 
L 249.732514 91.110591 
L 250.818316 88.392084 
L 251.904117 88.392084 
L 252.989918 85.718884 
L 254.075719 87.893691 
L 255.16152 91.110591 
L 256.247321 89.071711 
L 257.333123 85.537651 
L 258.418924 84.314322 
L 259.504725 83.815929 
L 260.590526 88.074924 
L 261.676327 89.706029 
L 262.762128 86.896904 
L 263.847929 88.845168 
L 264.933731 88.79986 
L 266.019532 86.262586 
L 267.105333 84.631481 
L 268.191134 85.175183 
L 269.276935 83.997163 
L 270.362736 88.618626 
L 271.448538 87.304681 
L 272.534339 87.62184 
L 273.62014 84.269014 
L 274.705941 87.848382 
L 275.791742 85.084566 
L 276.877543 85.628267 
L 277.963344 83.906546 
L 279.049146 84.495556 
L 280.134947 85.673576 
L 281.220748 89.071711 
L 282.306549 83.045685 
L 283.39235 82.184824 
L 284.478151 84.223705 
L 285.563953 85.220491 
L 286.649754 82.955068 
L 287.735555 83.725312 
L 288.821356 83.680004 
L 289.907157 82.139516 
L 290.992958 82.003591 
L 292.07876 82.230133 
L 293.164561 81.595814 
L 294.250362 82.683217 
L 295.336163 80.916187 
L 296.421964 83.49877 
L 297.507765 82.90976 
L 298.593566 80.508411 
L 299.679368 82.456675 
L 300.765169 81.052113 
L 301.85097 81.14273 
L 302.936771 85.718884 
L 304.022572 81.958282 
L 305.108373 81.278655 
L 306.194175 83.000377 
L 307.279976 82.32075 
L 308.365777 80.281869 
L 309.451578 80.327177 
L 310.537379 81.006804 
L 311.62318 81.459889 
L 312.708981 80.961496 
L 313.794783 81.641123 
L 314.880584 79.285083 
L 315.966385 79.013232 
L 317.052186 80.825571 
L 318.137987 78.922615 
L 319.223788 79.194466 
L 320.30959 82.230133 
L 321.395391 80.417794 
L 322.481192 79.421008 
L 323.566993 79.602242 
L 326.824396 77.653978 
L 327.910198 78.016446 
L 328.995999 79.647551 
L 330.0818 77.110277 
L 331.167601 78.831998 
L 332.253402 77.563361 
L 333.339203 77.110277 
L 334.425005 79.330391 
L 335.510806 76.702501 
L 336.596607 77.246202 
L 337.682408 77.01966 
L 338.768209 76.43065 
L 339.85401 77.336819 
L 342.025613 75.84164 
L 343.111414 76.521267 
L 344.197215 75.524481 
L 345.283016 78.242988 
L 346.368817 76.204107 
L 347.454618 75.162013 
L 348.54042 74.799545 
L 349.626221 74.754237 
L 350.712022 74.844854 
L 351.797823 74.301152 
L 352.883624 75.388555 
L 353.969425 74.482386 
L 355.055227 74.210535 
L 356.141028 75.297938 
L 357.226829 75.071396 
L 358.31263 73.893376 
L 359.398431 75.116704 
L 360.484232 75.026087 
L 361.570033 74.618311 
L 362.655835 74.346461 
L 364.827437 74.799545 
L 365.913238 75.162013 
L 366.999039 73.938684 
L 368.08484 73.712142 
L 369.170642 74.844854 
L 371.342244 74.301152 
L 372.428045 76.249416 
L 373.513846 77.699287 
L 374.599647 74.935471 
L 377.857051 76.747809 
L 378.942852 76.566575 
L 380.028653 77.155585 
L 381.114454 77.064968 
L 382.200255 76.113491 
L 383.286057 76.249416 
L 384.371858 76.702501 
L 385.457659 77.744595 
L 386.54346 76.475958 
L 388.715062 76.249416 
L 389.800863 74.573003 
L 391.972466 76.294724 
L 393.058267 75.162013 
L 395.229869 77.925829 
L 396.31567 78.288297 
L 397.401472 76.566575 
L 398.487273 77.563361 
L 398.487273 77.563361 
" clip-path="url(#p3b177ec3ac)" style="fill: none; stroke: #ff7f0e; stroke-width: 1.5; stroke-linecap: square"/>
   </g>
   <g id="line2d_19">
    <path d="M 73.832727 279.957822 
L 74.918528 258.428491 
L 76.00433 244.648469 
L 77.090131 266.427778 
L 78.175932 216.650964 
L 79.261733 234.305641 
L 80.347534 200.308671 
L 81.433335 205.58945 
L 82.519137 195.621589 
L 83.604938 181.872814 
L 84.690739 178.841834 
L 85.77654 185.653727 
L 86.862341 171.342503 
L 87.948142 178.123148 
L 89.033943 172.811122 
L 90.119745 172.686133 
L 91.205546 167.56159 
L 92.291347 163.249474 
L 93.377148 166.186712 
L 94.462949 161.968338 
L 95.54875 201.652301 
L 96.634552 193.559272 
L 97.720353 188.747201 
L 98.806154 183.060208 
L 99.891955 192.809339 
L 100.977756 179.154306 
L 102.063557 181.81032 
L 103.149358 179.498026 
L 104.23516 187.716043 
L 105.320961 185.466244 
L 106.406762 164.905576 
L 107.492563 171.9362 
L 108.578364 174.592213 
L 109.664165 163.936913 
L 110.749967 168.873973 
L 111.835768 163.905666 
L 112.921569 174.185999 
L 114.00737 168.061545 
L 115.093171 163.061991 
L 116.178972 169.6864 
L 117.264773 164.468115 
L 118.350575 155.750142 
L 119.436376 155.968873 
L 120.522177 162.84326 
L 121.607978 159.0311 
L 122.693779 156.031367 
L 123.77958 154.65649 
L 124.865382 153.969051 
L 125.951183 148.03208 
L 127.036984 150.563105 
L 128.122785 149.500699 
L 129.208586 152.812904 
L 130.294387 147.032169 
L 131.380189 146.094753 
L 132.46599 144.501145 
L 133.551791 143.157515 
L 134.637592 142.063862 
L 135.723393 142.782548 
L 136.809194 141.470165 
L 137.894995 142.063862 
L 138.980797 196.496511 
L 140.066598 176.717024 
L 141.152399 190.184573 
L 142.2382 185.966199 
L 143.324001 176.779518 
L 144.409802 176.404551 
L 145.495604 166.061723 
L 146.581405 175.092168 
L 147.667206 170.748806 
L 148.753007 158.687381 
L 149.838808 167.78032 
L 150.924609 172.529897 
L 152.01041 172.623638 
L 153.096212 166.967893 
L 154.182013 166.311701 
L 155.267814 172.623638 
L 156.353615 166.467937 
L 157.439416 176.31081 
L 158.525217 169.311434 
L 159.611019 163.18698 
L 160.69682 164.405621 
L 161.782621 174.310988 
L 162.868422 151.563016 
L 163.954223 159.093594 
L 165.040024 149.625688 
L 166.125825 170.436333 
L 167.211627 166.905398 
L 168.297428 151.906735 
L 169.383229 157.437492 
L 170.46903 155.78139 
L 171.554831 150.688094 
L 172.640632 159.906022 
L 173.726434 155.031456 
L 174.812235 145.813528 
L 175.898036 149.813172 
L 176.983837 151.313038 
L 178.069638 154.09404 
L 179.155439 150.063149 
L 180.24124 147.188406 
L 181.327042 152.906646 
L 182.412843 162.780766 
L 183.498644 148.532036 
L 184.584445 145.032348 
L 185.670246 151.344285 
L 186.756047 138.189208 
L 187.841849 153.250365 
L 188.92765 148.875755 
L 190.013451 139.595332 
L 191.099252 145.532303 
L 192.185053 138.532927 
L 193.270854 144.563639 
L 194.356656 139.939052 
L 195.442457 141.470165 
L 196.528258 140.595243 
L 197.614059 137.751747 
L 198.69986 143.376245 
L 199.785661 140.439007 
L 200.871462 138.907894 
L 201.957264 134.752014 
L 203.043065 133.033417 
L 204.128866 135.720678 
L 205.214667 137.720499 
L 206.300468 133.470878 
L 207.386269 131.127337 
L 208.472071 131.033595 
L 209.557872 132.377226 
L 210.643673 130.627382 
L 211.729474 133.345889 
L 212.815275 130.314909 
L 213.901076 132.502215 
L 216.072679 127.658896 
L 217.15848 128.471324 
L 218.244281 130.221168 
L 219.330082 128.283841 
L 220.415883 130.564887 
L 221.501684 130.814865 
L 222.587486 128.127604 
L 223.673287 128.908785 
L 224.759088 129.502482 
L 225.844889 160.624708 
L 226.93069 162.030833 
L 228.016491 165.31179 
L 229.102292 162.655777 
L 230.188094 169.842636 
L 231.273895 162.187069 
L 232.359696 165.155554 
L 233.445497 158.031189 
L 234.531298 171.686222 
L 235.617099 160.780944 
L 236.702901 153.87531 
L 237.788702 172.904863 
L 238.874503 161.749608 
L 239.960304 163.749429 
L 241.046105 156.937537 
L 242.131906 155.187693 
L 243.217708 150.531858 
L 244.303509 166.624173 
L 245.38931 157.031278 
L 246.475111 157.9062 
L 247.560912 167.686579 
L 248.646713 150.28188 
L 249.732514 158.156178 
L 250.818316 154.219029 
L 251.904117 164.74934 
L 252.989918 152.875399 
L 254.075719 152.18796 
L 255.16152 166.374196 
L 256.247321 153.250365 
L 257.333123 151.719252 
L 258.418924 154.000298 
L 259.504725 145.719786 
L 260.590526 158.843617 
L 261.676327 166.342948 
L 262.762128 156.875042 
L 263.847929 159.624797 
L 264.933731 152.719163 
L 266.019532 158.843617 
L 267.105333 153.719073 
L 268.191134 156.00012 
L 269.276935 151.000566 
L 270.362736 161.624619 
L 271.448538 153.750321 
L 272.534339 152.219207 
L 273.62014 149.531947 
L 274.705941 150.125644 
L 275.791742 153.156624 
L 276.877543 148.59453 
L 277.963344 150.438116 
L 279.049146 141.657649 
L 280.134947 152.000477 
L 281.220748 154.531501 
L 282.306549 148.563283 
L 283.39235 138.50168 
L 284.478151 146.157247 
L 285.563953 144.063684 
L 286.649754 146.407225 
L 287.735555 146.657203 
L 288.821356 144.344909 
L 289.907157 142.595065 
L 290.992958 145.157337 
L 292.07876 140.064041 
L 293.164561 142.87629 
L 294.250362 145.188584 
L 295.336163 150.750588 
L 296.421964 147.750855 
L 297.507765 141.970121 
L 298.593566 147.219653 
L 299.679368 139.689074 
L 300.765169 144.063684 
L 301.85097 143.376245 
L 302.936771 144.688628 
L 304.022572 144.532392 
L 305.108373 141.376424 
L 306.194175 144.532392 
L 307.279976 140.720232 
L 308.365777 135.970655 
L 309.451578 135.064486 
L 310.537379 139.001635 
L 311.62318 141.001457 
L 312.708981 139.28286 
L 313.794783 138.407938 
L 315.966385 133.56462 
L 317.052186 137.095555 
L 318.137987 133.78335 
L 320.30959 145.001101 
L 321.395391 137.408027 
L 322.481192 136.970566 
L 323.566993 139.28286 
L 324.652794 136.720589 
L 325.738595 126.94021 
L 326.824396 131.783529 
L 328.995999 136.626847 
L 330.0818 133.377137 
L 331.167601 131.564798 
L 332.253402 131.346068 
L 333.339203 136.345622 
L 334.425005 137.595511 
L 335.510806 131.377315 
L 337.682408 126.346513 
L 338.768209 129.127515 
L 339.85401 127.877627 
L 340.939811 126.846469 
L 342.025613 127.50266 
L 343.111414 125.471591 
L 344.197215 122.221881 
L 345.283016 131.502304 
L 346.368817 128.06511 
L 347.454618 125.534086 
L 348.54042 125.440344 
L 349.626221 124.784152 
L 350.712022 123.346781 
L 351.797823 123.409275 
L 352.883624 124.377939 
L 357.226829 121.753173 
L 358.31263 121.503195 
L 359.398431 124.752905 
L 361.570033 119.503373 
L 362.655835 119.472126 
L 363.741636 121.690678 
L 364.827437 120.597026 
L 365.913238 121.471948 
L 366.999039 119.253395 
L 368.08484 124.627916 
L 369.170642 123.565511 
L 370.256443 123.190544 
L 371.342244 123.034308 
L 372.428045 128.408829 
L 373.513846 128.783796 
L 374.599647 127.065199 
L 375.685448 129.877448 
L 376.77125 126.658985 
L 377.857051 130.971101 
L 378.942852 130.627382 
L 380.028653 131.377315 
L 381.114454 129.658718 
L 382.200255 130.53364 
L 383.286057 128.596313 
L 384.371858 127.440166 
L 385.457659 127.658896 
L 386.54346 125.784063 
L 387.629261 126.815221 
L 388.715062 130.189921 
L 389.800863 126.065288 
L 390.886665 130.096179 
L 391.972466 131.533551 
L 393.058267 128.940032 
L 394.144068 133.252148 
L 395.229869 134.783261 
L 396.31567 132.877181 
L 397.401472 129.065021 
L 398.487273 129.721212 
L 398.487273 129.721212 
" clip-path="url(#p3b177ec3ac)" style="fill: none; stroke: #2ca02c; stroke-width: 1.5; stroke-linecap: square"/>
   </g>
   <g id="line2d_20">
    <path d="M 368.08484 73.4856 
L 369.170642 73.530908 
L 370.256443 73.848067 
L 371.342244 73.213749 
L 372.428045 73.666834 
L 373.513846 74.66362 
L 375.685448 74.708928 
L 376.77125 74.165227 
L 377.857051 73.4856 
L 378.942852 72.398197 
L 380.028653 73.032515 
L 381.114454 72.398197 
L 382.200255 72.352888 
L 385.457659 73.077824 
L 386.54346 73.802759 
L 387.629261 72.670047 
L 388.715062 72.851281 
L 389.800863 72.352888 
L 390.886665 71.310794 
L 391.972466 72.443505 
L 393.058267 73.259057 
L 394.144068 72.534122 
L 395.229869 73.032515 
L 396.31567 74.844854 
L 397.401472 74.527694 
L 398.487273 75.207321 
L 398.487273 75.207321 
" clip-path="url(#p3b177ec3ac)" style="fill: none; stroke: #d62728; stroke-width: 1.5; stroke-linecap: square"/>
   </g>
   <g id="line2d_21">
    <path d="M 368.08484 120.722015 
L 369.170642 120.315801 
L 370.256443 122.815578 
L 371.342244 118.034754 
L 372.428045 121.940656 
L 373.513846 124.690411 
L 374.599647 122.315622 
L 375.685448 123.003061 
L 376.77125 121.753173 
L 378.942852 116.722371 
L 380.028653 117.659787 
L 381.114454 115.597471 
L 382.200255 116.722371 
L 383.286057 115.191257 
L 384.371858 117.97226 
L 385.457659 118.534709 
L 386.54346 120.003329 
L 387.629261 115.222505 
L 389.800863 121.284464 
L 390.886665 114.878785 
L 391.972466 118.159743 
L 393.058267 118.815934 
L 394.144068 118.128496 
L 395.229869 114.691302 
L 396.31567 115.534977 
L 397.401472 115.878696 
L 398.487273 116.659877 
L 398.487273 116.659877 
" clip-path="url(#p3b177ec3ac)" style="fill: none; stroke: #9467bd; stroke-width: 1.5; stroke-linecap: square"/>
   </g>
   <g id="patch_3">
    <path d="M 57.6 307.584 
L 57.6 41.472 
" style="fill: none; stroke: #000000; stroke-width: 0.8; stroke-linejoin: miter; stroke-linecap: square"/>
   </g>
   <g id="patch_4">
    <path d="M 414.72 307.584 
L 414.72 41.472 
" style="fill: none; stroke: #000000; stroke-width: 0.8; stroke-linejoin: miter; stroke-linecap: square"/>
   </g>
   <g id="patch_5">
    <path d="M 57.6 307.584 
L 414.72 307.584 
" style="fill: none; stroke: #000000; stroke-width: 0.8; stroke-linejoin: miter; stroke-linecap: square"/>
   </g>
   <g id="patch_6">
    <path d="M 57.6 41.472 
L 414.72 41.472 
" style="fill: none; stroke: #000000; stroke-width: 0.8; stroke-linejoin: miter; stroke-linecap: square"/>
   </g>
   <g id="text_19">
    <!-- Learning Curves -->
    <g transform="translate(187.37625 35.472) scale(0.12 -0.12)">
     <defs>
      <path id="DejaVuSans-4c" d="M 628 4666 
L 1259 4666 
L 1259 531 
L 3531 531 
L 3531 0 
L 628 0 
L 628 4666 
z
" transform="scale(0.015625)"/>
      <path id="DejaVuSans-65" d="M 3597 1894 
L 3597 1613 
L 953 1613 
Q 991 1019 1311 708 
Q 1631 397 2203 397 
Q 2534 397 2845 478 
Q 3156 559 3463 722 
L 3463 178 
Q 3153 47 2828 -22 
Q 2503 -91 2169 -91 
Q 1331 -91 842 396 
Q 353 884 353 1716 
Q 353 2575 817 3079 
Q 1281 3584 2069 3584 
Q 2775 3584 3186 3129 
Q 3597 2675 3597 1894 
z
M 3022 2063 
Q 3016 2534 2758 2815 
Q 2500 3097 2075 3097 
Q 1594 3097 1305 2825 
Q 1016 2553 972 2059 
L 3022 2063 
z
" transform="scale(0.015625)"/>
      <path id="DejaVuSans-6e" d="M 3513 2113 
L 3513 0 
L 2938 0 
L 2938 2094 
Q 2938 2591 2744 2837 
Q 2550 3084 2163 3084 
Q 1697 3084 1428 2787 
Q 1159 2491 1159 1978 
L 1159 0 
L 581 0 
L 581 3500 
L 1159 3500 
L 1159 2956 
Q 1366 3272 1645 3428 
Q 1925 3584 2291 3584 
Q 2894 3584 3203 3211 
Q 3513 2838 3513 2113 
z
" transform="scale(0.015625)"/>
      <path id="DejaVuSans-69" d="M 603 3500 
L 1178 3500 
L 1178 0 
L 603 0 
L 603 3500 
z
M 603 4863 
L 1178 4863 
L 1178 4134 
L 603 4134 
L 603 4863 
z
" transform="scale(0.015625)"/>
      <path id="DejaVuSans-67" d="M 2906 1791 
Q 2906 2416 2648 2759 
Q 2391 3103 1925 3103 
Q 1463 3103 1205 2759 
Q 947 2416 947 1791 
Q 947 1169 1205 825 
Q 1463 481 1925 481 
Q 2391 481 2648 825 
Q 2906 1169 2906 1791 
z
M 3481 434 
Q 3481 -459 3084 -895 
Q 2688 -1331 1869 -1331 
Q 1566 -1331 1297 -1286 
Q 1028 -1241 775 -1147 
L 775 -588 
Q 1028 -725 1275 -790 
Q 1522 -856 1778 -856 
Q 2344 -856 2625 -561 
Q 2906 -266 2906 331 
L 2906 616 
Q 2728 306 2450 153 
Q 2172 0 1784 0 
Q 1141 0 747 490 
Q 353 981 353 1791 
Q 353 2603 747 3093 
Q 1141 3584 1784 3584 
Q 2172 3584 2450 3431 
Q 2728 3278 2906 2969 
L 2906 3500 
L 3481 3500 
L 3481 434 
z
" transform="scale(0.015625)"/>
      <path id="DejaVuSans-20" transform="scale(0.015625)"/>
      <path id="DejaVuSans-43" d="M 4122 4306 
L 4122 3641 
Q 3803 3938 3442 4084 
Q 3081 4231 2675 4231 
Q 1875 4231 1450 3742 
Q 1025 3253 1025 2328 
Q 1025 1406 1450 917 
Q 1875 428 2675 428 
Q 3081 428 3442 575 
Q 3803 722 4122 1019 
L 4122 359 
Q 3791 134 3420 21 
Q 3050 -91 2638 -91 
Q 1578 -91 968 557 
Q 359 1206 359 2328 
Q 359 3453 968 4101 
Q 1578 4750 2638 4750 
Q 3056 4750 3426 4639 
Q 3797 4528 4122 4306 
z
" transform="scale(0.015625)"/>
      <path id="DejaVuSans-76" d="M 191 3500 
L 800 3500 
L 1894 563 
L 2988 3500 
L 3597 3500 
L 2284 0 
L 1503 0 
L 191 3500 
z
" transform="scale(0.015625)"/>
     </defs>
     <use xlink:href="#DejaVuSans-4c"/>
     <use xlink:href="#DejaVuSans-65" x="53.962891"/>
     <use xlink:href="#DejaVuSans-61" x="115.486328"/>
     <use xlink:href="#DejaVuSans-72" x="176.765625"/>
     <use xlink:href="#DejaVuSans-6e" x="216.128906"/>
     <use xlink:href="#DejaVuSans-69" x="279.507812"/>
     <use xlink:href="#DejaVuSans-6e" x="307.291016"/>
     <use xlink:href="#DejaVuSans-67" x="370.669922"/>
     <use xlink:href="#DejaVuSans-20" x="434.146484"/>
     <use xlink:href="#DejaVuSans-43" x="465.933594"/>
     <use xlink:href="#DejaVuSans-75" x="535.757812"/>
     <use xlink:href="#DejaVuSans-72" x="599.136719"/>
     <use xlink:href="#DejaVuSans-76" x="640.25"/>
     <use xlink:href="#DejaVuSans-65" x="699.429688"/>
     <use xlink:href="#DejaVuSans-73" x="760.953125"/>
    </g>
   </g>
   <g id="legend_1">
    <g id="patch_7">
     <path d="M 214.18875 302.584 
L 407.72 302.584 
Q 409.72 302.584 409.72 300.584 
L 409.72 228.193375 
Q 409.72 226.193375 407.72 226.193375 
L 214.18875 226.193375 
Q 212.18875 226.193375 212.18875 228.193375 
L 212.18875 300.584 
Q 212.18875 302.584 214.18875 302.584 
z
" style="fill: #ffffff; opacity: 0.8; stroke: #cccccc; stroke-linejoin: miter"/>
    </g>
    <g id="line2d_22">
     <path d="M 216.18875 234.291812 
L 226.18875 234.291812 
L 236.18875 234.291812 
" style="fill: none; stroke: #1f77b4; stroke-width: 1.5; stroke-linecap: square"/>
    </g>
    <g id="text_20">
     <!-- Train Accuracy -->
     <g transform="translate(244.18875 237.791812) scale(0.1 -0.1)">
      <defs>
       <path id="DejaVuSans-54" d="M -19 4666 
L 3928 4666 
L 3928 4134 
L 2272 4134 
L 2272 0 
L 1638 0 
L 1638 4134 
L -19 4134 
L -19 4666 
z
" transform="scale(0.015625)"/>
      </defs>
      <use xlink:href="#DejaVuSans-54"/>
      <use xlink:href="#DejaVuSans-72" x="46.333984"/>
      <use xlink:href="#DejaVuSans-61" x="87.447266"/>
      <use xlink:href="#DejaVuSans-69" x="148.726562"/>
      <use xlink:href="#DejaVuSans-6e" x="176.509766"/>
      <use xlink:href="#DejaVuSans-20" x="239.888672"/>
      <use xlink:href="#DejaVuSans-41" x="271.675781"/>
      <use xlink:href="#DejaVuSans-63" x="338.333984"/>
      <use xlink:href="#DejaVuSans-63" x="393.314453"/>
      <use xlink:href="#DejaVuSans-75" x="448.294922"/>
      <use xlink:href="#DejaVuSans-72" x="511.673828"/>
      <use xlink:href="#DejaVuSans-61" x="552.787109"/>
      <use xlink:href="#DejaVuSans-63" x="614.066406"/>
      <use xlink:href="#DejaVuSans-79" x="669.046875"/>
     </g>
    </g>
    <g id="line2d_23">
     <path d="M 216.18875 248.969937 
L 226.18875 248.969937 
L 236.18875 248.969937 
" style="fill: none; stroke: #ff7f0e; stroke-width: 1.5; stroke-linecap: square"/>
    </g>
    <g id="text_21">
     <!-- Validation Accuracy -->
     <g transform="translate(244.18875 252.469937) scale(0.1 -0.1)">
      <defs>
       <path id="DejaVuSans-56" d="M 1831 0 
L 50 4666 
L 709 4666 
L 2188 738 
L 3669 4666 
L 4325 4666 
L 2547 0 
L 1831 0 
z
" transform="scale(0.015625)"/>
       <path id="DejaVuSans-6c" d="M 603 4863 
L 1178 4863 
L 1178 0 
L 603 0 
L 603 4863 
z
" transform="scale(0.015625)"/>
       <path id="DejaVuSans-64" d="M 2906 2969 
L 2906 4863 
L 3481 4863 
L 3481 0 
L 2906 0 
L 2906 525 
Q 2725 213 2448 61 
Q 2172 -91 1784 -91 
Q 1150 -91 751 415 
Q 353 922 353 1747 
Q 353 2572 751 3078 
Q 1150 3584 1784 3584 
Q 2172 3584 2448 3432 
Q 2725 3281 2906 2969 
z
M 947 1747 
Q 947 1113 1208 752 
Q 1469 391 1925 391 
Q 2381 391 2643 752 
Q 2906 1113 2906 1747 
Q 2906 2381 2643 2742 
Q 2381 3103 1925 3103 
Q 1469 3103 1208 2742 
Q 947 2381 947 1747 
z
" transform="scale(0.015625)"/>
       <path id="DejaVuSans-74" d="M 1172 4494 
L 1172 3500 
L 2356 3500 
L 2356 3053 
L 1172 3053 
L 1172 1153 
Q 1172 725 1289 603 
Q 1406 481 1766 481 
L 2356 481 
L 2356 0 
L 1766 0 
Q 1100 0 847 248 
Q 594 497 594 1153 
L 594 3053 
L 172 3053 
L 172 3500 
L 594 3500 
L 594 4494 
L 1172 4494 
z
" transform="scale(0.015625)"/>
      </defs>
      <use xlink:href="#DejaVuSans-56"/>
      <use xlink:href="#DejaVuSans-61" x="60.658203"/>
      <use xlink:href="#DejaVuSans-6c" x="121.9375"/>
      <use xlink:href="#DejaVuSans-69" x="149.720703"/>
      <use xlink:href="#DejaVuSans-64" x="177.503906"/>
      <use xlink:href="#DejaVuSans-61" x="240.980469"/>
      <use xlink:href="#DejaVuSans-74" x="302.259766"/>
      <use xlink:href="#DejaVuSans-69" x="341.46875"/>
      <use xlink:href="#DejaVuSans-6f" x="369.251953"/>
      <use xlink:href="#DejaVuSans-6e" x="430.433594"/>
      <use xlink:href="#DejaVuSans-20" x="493.8125"/>
      <use xlink:href="#DejaVuSans-41" x="525.599609"/>
      <use xlink:href="#DejaVuSans-63" x="592.257812"/>
      <use xlink:href="#DejaVuSans-63" x="647.238281"/>
      <use xlink:href="#DejaVuSans-75" x="702.21875"/>
      <use xlink:href="#DejaVuSans-72" x="765.597656"/>
      <use xlink:href="#DejaVuSans-61" x="806.710938"/>
      <use xlink:href="#DejaVuSans-63" x="867.990234"/>
      <use xlink:href="#DejaVuSans-79" x="922.970703"/>
     </g>
    </g>
    <g id="line2d_24">
     <path d="M 216.18875 263.648062 
L 226.18875 263.648062 
L 236.18875 263.648062 
" style="fill: none; stroke: #2ca02c; stroke-width: 1.5; stroke-linecap: square"/>
    </g>
    <g id="text_22">
     <!-- Robust Validation Accuracy -->
     <g transform="translate(244.18875 267.148062) scale(0.1 -0.1)">
      <defs>
       <path id="DejaVuSans-52" d="M 2841 2188 
Q 3044 2119 3236 1894 
Q 3428 1669 3622 1275 
L 4263 0 
L 3584 0 
L 2988 1197 
Q 2756 1666 2539 1819 
Q 2322 1972 1947 1972 
L 1259 1972 
L 1259 0 
L 628 0 
L 628 4666 
L 2053 4666 
Q 2853 4666 3247 4331 
Q 3641 3997 3641 3322 
Q 3641 2881 3436 2590 
Q 3231 2300 2841 2188 
z
M 1259 4147 
L 1259 2491 
L 2053 2491 
Q 2509 2491 2742 2702 
Q 2975 2913 2975 3322 
Q 2975 3731 2742 3939 
Q 2509 4147 2053 4147 
L 1259 4147 
z
" transform="scale(0.015625)"/>
       <path id="DejaVuSans-62" d="M 3116 1747 
Q 3116 2381 2855 2742 
Q 2594 3103 2138 3103 
Q 1681 3103 1420 2742 
Q 1159 2381 1159 1747 
Q 1159 1113 1420 752 
Q 1681 391 2138 391 
Q 2594 391 2855 752 
Q 3116 1113 3116 1747 
z
M 1159 2969 
Q 1341 3281 1617 3432 
Q 1894 3584 2278 3584 
Q 2916 3584 3314 3078 
Q 3713 2572 3713 1747 
Q 3713 922 3314 415 
Q 2916 -91 2278 -91 
Q 1894 -91 1617 61 
Q 1341 213 1159 525 
L 1159 0 
L 581 0 
L 581 4863 
L 1159 4863 
L 1159 2969 
z
" transform="scale(0.015625)"/>
      </defs>
      <use xlink:href="#DejaVuSans-52"/>
      <use xlink:href="#DejaVuSans-6f" x="64.982422"/>
      <use xlink:href="#DejaVuSans-62" x="126.164062"/>
      <use xlink:href="#DejaVuSans-75" x="189.640625"/>
      <use xlink:href="#DejaVuSans-73" x="253.019531"/>
      <use xlink:href="#DejaVuSans-74" x="305.119141"/>
      <use xlink:href="#DejaVuSans-20" x="344.328125"/>
      <use xlink:href="#DejaVuSans-56" x="376.115234"/>
      <use xlink:href="#DejaVuSans-61" x="436.773438"/>
      <use xlink:href="#DejaVuSans-6c" x="498.052734"/>
      <use xlink:href="#DejaVuSans-69" x="525.835938"/>
      <use xlink:href="#DejaVuSans-64" x="553.619141"/>
      <use xlink:href="#DejaVuSans-61" x="617.095703"/>
      <use xlink:href="#DejaVuSans-74" x="678.375"/>
      <use xlink:href="#DejaVuSans-69" x="717.583984"/>
      <use xlink:href="#DejaVuSans-6f" x="745.367188"/>
      <use xlink:href="#DejaVuSans-6e" x="806.548828"/>
      <use xlink:href="#DejaVuSans-20" x="869.927734"/>
      <use xlink:href="#DejaVuSans-41" x="901.714844"/>
      <use xlink:href="#DejaVuSans-63" x="968.373047"/>
      <use xlink:href="#DejaVuSans-63" x="1023.353516"/>
      <use xlink:href="#DejaVuSans-75" x="1078.333984"/>
      <use xlink:href="#DejaVuSans-72" x="1141.712891"/>
      <use xlink:href="#DejaVuSans-61" x="1182.826172"/>
      <use xlink:href="#DejaVuSans-63" x="1244.105469"/>
      <use xlink:href="#DejaVuSans-79" x="1299.085938"/>
     </g>
    </g>
    <g id="line2d_25">
     <path d="M 216.18875 278.326188 
L 226.18875 278.326188 
L 236.18875 278.326188 
" style="fill: none; stroke: #d62728; stroke-width: 1.5; stroke-linecap: square"/>
    </g>
    <g id="text_23">
     <!-- SWA Validation Accuracy -->
     <g transform="translate(244.18875 281.826188) scale(0.1 -0.1)">
      <defs>
       <path id="DejaVuSans-53" d="M 3425 4513 
L 3425 3897 
Q 3066 4069 2747 4153 
Q 2428 4238 2131 4238 
Q 1616 4238 1336 4038 
Q 1056 3838 1056 3469 
Q 1056 3159 1242 3001 
Q 1428 2844 1947 2747 
L 2328 2669 
Q 3034 2534 3370 2195 
Q 3706 1856 3706 1288 
Q 3706 609 3251 259 
Q 2797 -91 1919 -91 
Q 1588 -91 1214 -16 
Q 841 59 441 206 
L 441 856 
Q 825 641 1194 531 
Q 1563 422 1919 422 
Q 2459 422 2753 634 
Q 3047 847 3047 1241 
Q 3047 1584 2836 1778 
Q 2625 1972 2144 2069 
L 1759 2144 
Q 1053 2284 737 2584 
Q 422 2884 422 3419 
Q 422 4038 858 4394 
Q 1294 4750 2059 4750 
Q 2388 4750 2728 4690 
Q 3069 4631 3425 4513 
z
" transform="scale(0.015625)"/>
       <path id="DejaVuSans-57" d="M 213 4666 
L 850 4666 
L 1831 722 
L 2809 4666 
L 3519 4666 
L 4500 722 
L 5478 4666 
L 6119 4666 
L 4947 0 
L 4153 0 
L 3169 4050 
L 2175 0 
L 1381 0 
L 213 4666 
z
" transform="scale(0.015625)"/>
      </defs>
      <use xlink:href="#DejaVuSans-53"/>
      <use xlink:href="#DejaVuSans-57" x="63.476562"/>
      <use xlink:href="#DejaVuSans-41" x="156.853516"/>
      <use xlink:href="#DejaVuSans-20" x="225.261719"/>
      <use xlink:href="#DejaVuSans-56" x="257.048828"/>
      <use xlink:href="#DejaVuSans-61" x="317.707031"/>
      <use xlink:href="#DejaVuSans-6c" x="378.986328"/>
      <use xlink:href="#DejaVuSans-69" x="406.769531"/>
      <use xlink:href="#DejaVuSans-64" x="434.552734"/>
      <use xlink:href="#DejaVuSans-61" x="498.029297"/>
      <use xlink:href="#DejaVuSans-74" x="559.308594"/>
      <use xlink:href="#DejaVuSans-69" x="598.517578"/>
      <use xlink:href="#DejaVuSans-6f" x="626.300781"/>
      <use xlink:href="#DejaVuSans-6e" x="687.482422"/>
      <use xlink:href="#DejaVuSans-20" x="750.861328"/>
      <use xlink:href="#DejaVuSans-41" x="782.648438"/>
      <use xlink:href="#DejaVuSans-63" x="849.306641"/>
      <use xlink:href="#DejaVuSans-63" x="904.287109"/>
      <use xlink:href="#DejaVuSans-75" x="959.267578"/>
      <use xlink:href="#DejaVuSans-72" x="1022.646484"/>
      <use xlink:href="#DejaVuSans-61" x="1063.759766"/>
      <use xlink:href="#DejaVuSans-63" x="1125.039062"/>
      <use xlink:href="#DejaVuSans-79" x="1180.019531"/>
     </g>
    </g>
    <g id="line2d_26">
     <path d="M 216.18875 293.004312 
L 226.18875 293.004312 
L 236.18875 293.004312 
" style="fill: none; stroke: #9467bd; stroke-width: 1.5; stroke-linecap: square"/>
    </g>
    <g id="text_24">
     <!-- SWA Robust Validation Accuracy -->
     <g transform="translate(244.18875 296.504312) scale(0.1 -0.1)">
      <use xlink:href="#DejaVuSans-53"/>
      <use xlink:href="#DejaVuSans-57" x="63.476562"/>
      <use xlink:href="#DejaVuSans-41" x="156.853516"/>
      <use xlink:href="#DejaVuSans-20" x="225.261719"/>
      <use xlink:href="#DejaVuSans-52" x="257.048828"/>
      <use xlink:href="#DejaVuSans-6f" x="322.03125"/>
      <use xlink:href="#DejaVuSans-62" x="383.212891"/>
      <use xlink:href="#DejaVuSans-75" x="446.689453"/>
      <use xlink:href="#DejaVuSans-73" x="510.068359"/>
      <use xlink:href="#DejaVuSans-74" x="562.167969"/>
      <use xlink:href="#DejaVuSans-20" x="601.376953"/>
      <use xlink:href="#DejaVuSans-56" x="633.164062"/>
      <use xlink:href="#DejaVuSans-61" x="693.822266"/>
      <use xlink:href="#DejaVuSans-6c" x="755.101562"/>
      <use xlink:href="#DejaVuSans-69" x="782.884766"/>
      <use xlink:href="#DejaVuSans-64" x="810.667969"/>
      <use xlink:href="#DejaVuSans-61" x="874.144531"/>
      <use xlink:href="#DejaVuSans-74" x="935.423828"/>
      <use xlink:href="#DejaVuSans-69" x="974.632812"/>
      <use xlink:href="#DejaVuSans-6f" x="1002.416016"/>
      <use xlink:href="#DejaVuSans-6e" x="1063.597656"/>
      <use xlink:href="#DejaVuSans-20" x="1126.976562"/>
      <use xlink:href="#DejaVuSans-41" x="1158.763672"/>
      <use xlink:href="#DejaVuSans-63" x="1225.421875"/>
      <use xlink:href="#DejaVuSans-63" x="1280.402344"/>
      <use xlink:href="#DejaVuSans-75" x="1335.382812"/>
      <use xlink:href="#DejaVuSans-72" x="1398.761719"/>
      <use xlink:href="#DejaVuSans-61" x="1439.875"/>
      <use xlink:href="#DejaVuSans-63" x="1501.154297"/>
      <use xlink:href="#DejaVuSans-79" x="1556.134766"/>
     </g>
    </g>
   </g>
  </g>
 </g>
 <defs>
  <clipPath id="p3b177ec3ac">
   <rect x="57.6" y="41.472" width="357.12" height="266.112"/>
  </clipPath>
 </defs>
</svg>
