<?xml version="1.0" encoding="utf-8" standalone="no"?>
<!DOCTYPE svg PUBLIC "-//W3C//DTD SVG 1.1//EN"
  "http://www.w3.org/Graphics/SVG/1.1/DTD/svg11.dtd">
<svg xmlns:xlink="http://www.w3.org/1999/xlink" width="460.8pt" height="345.6pt" viewBox="0 0 460.8 345.6" xmlns="http://www.w3.org/2000/svg" version="1.1">
 <metadata>
  <rdf:RDF xmlns:dc="http://purl.org/dc/elements/1.1/" xmlns:cc="http://creativecommons.org/ns#" xmlns:rdf="http://www.w3.org/1999/02/22-rdf-syntax-ns#">
   <cc:Work>
    <dc:type rdf:resource="http://purl.org/dc/dcmitype/StillImage"/>
    <dc:date>2025-07-17T03:31:50.560994</dc:date>
    <dc:format>image/svg+xml</dc:format>
    <dc:creator>
     <cc:Agent>
      <dc:title>Matplotlib v3.9.1, https://matplotlib.org/</dc:title>
     </cc:Agent>
    </dc:creator>
   </cc:Work>
  </rdf:RDF>
 </metadata>
 <defs>
  <style type="text/css">*{stroke-linejoin: round; stroke-linecap: butt}</style>
 </defs>
 <g id="figure_1">
  <g id="patch_1">
   <path d="M 0 345.6 
L 460.8 345.6 
L 460.8 0 
L 0 0 
z
" style="fill: #ffffff"/>
  </g>
  <g id="axes_1">
   <g id="patch_2">
    <path d="M 57.6 307.584 
L 414.72 307.584 
L 414.72 41.472 
L 57.6 41.472 
z
" style="fill: #ffffff"/>
   </g>
   <g id="matplotlib.axis_1">
    <g id="xtick_1">
     <g id="line2d_1">
      <defs>
       <path id="m3daac46af0" d="M 0 0 
L 0 3.5 
" style="stroke: #000000; stroke-width: 0.8"/>
      </defs>
      <g>
       <use xlink:href="#m3daac46af0" x="73.832727" y="307.584" style="stroke: #000000; stroke-width: 0.8"/>
      </g>
     </g>
     <g id="text_1">
      <!-- 1 -->
      <g transform="translate(70.651477 322.182437) scale(0.1 -0.1)">
       <defs>
        <path id="DejaVuSans-31" d="M 794 531 
L 1825 531 
L 1825 4091 
L 703 3866 
L 703 4441 
L 1819 4666 
L 2450 4666 
L 2450 531 
L 3481 531 
L 3481 0 
L 794 0 
L 794 531 
z
" transform="scale(0.015625)"/>
       </defs>
       <use xlink:href="#DejaVuSans-31"/>
      </g>
     </g>
    </g>
    <g id="xtick_2">
     <g id="line2d_2">
      <g>
       <use xlink:href="#m3daac46af0" x="109.664165" y="307.584" style="stroke: #000000; stroke-width: 0.8"/>
      </g>
     </g>
     <g id="text_2">
      <!-- 34 -->
      <g transform="translate(103.301665 322.182437) scale(0.1 -0.1)">
       <defs>
        <path id="DejaVuSans-33" d="M 2597 2516 
Q 3050 2419 3304 2112 
Q 3559 1806 3559 1356 
Q 3559 666 3084 287 
Q 2609 -91 1734 -91 
Q 1441 -91 1130 -33 
Q 819 25 488 141 
L 488 750 
Q 750 597 1062 519 
Q 1375 441 1716 441 
Q 2309 441 2620 675 
Q 2931 909 2931 1356 
Q 2931 1769 2642 2001 
Q 2353 2234 1838 2234 
L 1294 2234 
L 1294 2753 
L 1863 2753 
Q 2328 2753 2575 2939 
Q 2822 3125 2822 3475 
Q 2822 3834 2567 4026 
Q 2313 4219 1838 4219 
Q 1578 4219 1281 4162 
Q 984 4106 628 3988 
L 628 4550 
Q 988 4650 1302 4700 
Q 1616 4750 1894 4750 
Q 2613 4750 3031 4423 
Q 3450 4097 3450 3541 
Q 3450 3153 3228 2886 
Q 3006 2619 2597 2516 
z
" transform="scale(0.015625)"/>
        <path id="DejaVuSans-34" d="M 2419 4116 
L 825 1625 
L 2419 1625 
L 2419 4116 
z
M 2253 4666 
L 3047 4666 
L 3047 1625 
L 3713 1625 
L 3713 1100 
L 3047 1100 
L 3047 0 
L 2419 0 
L 2419 1100 
L 313 1100 
L 313 1709 
L 2253 4666 
z
" transform="scale(0.015625)"/>
       </defs>
       <use xlink:href="#DejaVuSans-33"/>
       <use xlink:href="#DejaVuSans-34" x="63.623047"/>
      </g>
     </g>
    </g>
    <g id="xtick_3">
     <g id="line2d_3">
      <g>
       <use xlink:href="#m3daac46af0" x="145.495604" y="307.584" style="stroke: #000000; stroke-width: 0.8"/>
      </g>
     </g>
     <g id="text_3">
      <!-- 67 -->
      <g transform="translate(139.133104 322.182437) scale(0.1 -0.1)">
       <defs>
        <path id="DejaVuSans-36" d="M 2113 2584 
Q 1688 2584 1439 2293 
Q 1191 2003 1191 1497 
Q 1191 994 1439 701 
Q 1688 409 2113 409 
Q 2538 409 2786 701 
Q 3034 994 3034 1497 
Q 3034 2003 2786 2293 
Q 2538 2584 2113 2584 
z
M 3366 4563 
L 3366 3988 
Q 3128 4100 2886 4159 
Q 2644 4219 2406 4219 
Q 1781 4219 1451 3797 
Q 1122 3375 1075 2522 
Q 1259 2794 1537 2939 
Q 1816 3084 2150 3084 
Q 2853 3084 3261 2657 
Q 3669 2231 3669 1497 
Q 3669 778 3244 343 
Q 2819 -91 2113 -91 
Q 1303 -91 875 529 
Q 447 1150 447 2328 
Q 447 3434 972 4092 
Q 1497 4750 2381 4750 
Q 2619 4750 2861 4703 
Q 3103 4656 3366 4563 
z
" transform="scale(0.015625)"/>
        <path id="DejaVuSans-37" d="M 525 4666 
L 3525 4666 
L 3525 4397 
L 1831 0 
L 1172 0 
L 2766 4134 
L 525 4134 
L 525 4666 
z
" transform="scale(0.015625)"/>
       </defs>
       <use xlink:href="#DejaVuSans-36"/>
       <use xlink:href="#DejaVuSans-37" x="63.623047"/>
      </g>
     </g>
    </g>
    <g id="xtick_4">
     <g id="line2d_4">
      <g>
       <use xlink:href="#m3daac46af0" x="181.327042" y="307.584" style="stroke: #000000; stroke-width: 0.8"/>
      </g>
     </g>
     <g id="text_4">
      <!-- 100 -->
      <g transform="translate(171.783292 322.182437) scale(0.1 -0.1)">
       <defs>
        <path id="DejaVuSans-30" d="M 2034 4250 
Q 1547 4250 1301 3770 
Q 1056 3291 1056 2328 
Q 1056 1369 1301 889 
Q 1547 409 2034 409 
Q 2525 409 2770 889 
Q 3016 1369 3016 2328 
Q 3016 3291 2770 3770 
Q 2525 4250 2034 4250 
z
M 2034 4750 
Q 2819 4750 3233 4129 
Q 3647 3509 3647 2328 
Q 3647 1150 3233 529 
Q 2819 -91 2034 -91 
Q 1250 -91 836 529 
Q 422 1150 422 2328 
Q 422 3509 836 4129 
Q 1250 4750 2034 4750 
z
" transform="scale(0.015625)"/>
       </defs>
       <use xlink:href="#DejaVuSans-31"/>
       <use xlink:href="#DejaVuSans-30" x="63.623047"/>
       <use xlink:href="#DejaVuSans-30" x="127.246094"/>
      </g>
     </g>
    </g>
    <g id="xtick_5">
     <g id="line2d_5">
      <g>
       <use xlink:href="#m3daac46af0" x="217.15848" y="307.584" style="stroke: #000000; stroke-width: 0.8"/>
      </g>
     </g>
     <g id="text_5">
      <!-- 133 -->
      <g transform="translate(207.61473 322.182437) scale(0.1 -0.1)">
       <use xlink:href="#DejaVuSans-31"/>
       <use xlink:href="#DejaVuSans-33" x="63.623047"/>
       <use xlink:href="#DejaVuSans-33" x="127.246094"/>
      </g>
     </g>
    </g>
    <g id="xtick_6">
     <g id="line2d_6">
      <g>
       <use xlink:href="#m3daac46af0" x="254.075719" y="307.584" style="stroke: #000000; stroke-width: 0.8"/>
      </g>
     </g>
     <g id="text_6">
      <!-- 167 -->
      <g transform="translate(244.531969 322.182437) scale(0.1 -0.1)">
       <use xlink:href="#DejaVuSans-31"/>
       <use xlink:href="#DejaVuSans-36" x="63.623047"/>
       <use xlink:href="#DejaVuSans-37" x="127.246094"/>
      </g>
     </g>
    </g>
    <g id="xtick_7">
     <g id="line2d_7">
      <g>
       <use xlink:href="#m3daac46af0" x="289.907157" y="307.584" style="stroke: #000000; stroke-width: 0.8"/>
      </g>
     </g>
     <g id="text_7">
      <!-- 200 -->
      <g transform="translate(280.363407 322.182437) scale(0.1 -0.1)">
       <defs>
        <path id="DejaVuSans-32" d="M 1228 531 
L 3431 531 
L 3431 0 
L 469 0 
L 469 531 
Q 828 903 1448 1529 
Q 2069 2156 2228 2338 
Q 2531 2678 2651 2914 
Q 2772 3150 2772 3378 
Q 2772 3750 2511 3984 
Q 2250 4219 1831 4219 
Q 1534 4219 1204 4116 
Q 875 4013 500 3803 
L 500 4441 
Q 881 4594 1212 4672 
Q 1544 4750 1819 4750 
Q 2544 4750 2975 4387 
Q 3406 4025 3406 3419 
Q 3406 3131 3298 2873 
Q 3191 2616 2906 2266 
Q 2828 2175 2409 1742 
Q 1991 1309 1228 531 
z
" transform="scale(0.015625)"/>
       </defs>
       <use xlink:href="#DejaVuSans-32"/>
       <use xlink:href="#DejaVuSans-30" x="63.623047"/>
       <use xlink:href="#DejaVuSans-30" x="127.246094"/>
      </g>
     </g>
    </g>
    <g id="xtick_8">
     <g id="line2d_8">
      <g>
       <use xlink:href="#m3daac46af0" x="325.738595" y="307.584" style="stroke: #000000; stroke-width: 0.8"/>
      </g>
     </g>
     <g id="text_8">
      <!-- 233 -->
      <g transform="translate(316.194845 322.182437) scale(0.1 -0.1)">
       <use xlink:href="#DejaVuSans-32"/>
       <use xlink:href="#DejaVuSans-33" x="63.623047"/>
       <use xlink:href="#DejaVuSans-33" x="127.246094"/>
      </g>
     </g>
    </g>
    <g id="xtick_9">
     <g id="line2d_9">
      <g>
       <use xlink:href="#m3daac46af0" x="361.570033" y="307.584" style="stroke: #000000; stroke-width: 0.8"/>
      </g>
     </g>
     <g id="text_9">
      <!-- 266 -->
      <g transform="translate(352.026283 322.182437) scale(0.1 -0.1)">
       <use xlink:href="#DejaVuSans-32"/>
       <use xlink:href="#DejaVuSans-36" x="63.623047"/>
       <use xlink:href="#DejaVuSans-36" x="127.246094"/>
      </g>
     </g>
    </g>
    <g id="xtick_10">
     <g id="line2d_10">
      <g>
       <use xlink:href="#m3daac46af0" x="398.487273" y="307.584" style="stroke: #000000; stroke-width: 0.8"/>
      </g>
     </g>
     <g id="text_10">
      <!-- 300 -->
      <g transform="translate(388.943523 322.182437) scale(0.1 -0.1)">
       <use xlink:href="#DejaVuSans-33"/>
       <use xlink:href="#DejaVuSans-30" x="63.623047"/>
       <use xlink:href="#DejaVuSans-30" x="127.246094"/>
      </g>
     </g>
    </g>
    <g id="text_11">
     <!-- Epochs -->
     <g transform="translate(218.244375 335.860562) scale(0.1 -0.1)">
      <defs>
       <path id="DejaVuSans-45" d="M 628 4666 
L 3578 4666 
L 3578 4134 
L 1259 4134 
L 1259 2753 
L 3481 2753 
L 3481 2222 
L 1259 2222 
L 1259 531 
L 3634 531 
L 3634 0 
L 628 0 
L 628 4666 
z
" transform="scale(0.015625)"/>
       <path id="DejaVuSans-70" d="M 1159 525 
L 1159 -1331 
L 581 -1331 
L 581 3500 
L 1159 3500 
L 1159 2969 
Q 1341 3281 1617 3432 
Q 1894 3584 2278 3584 
Q 2916 3584 3314 3078 
Q 3713 2572 3713 1747 
Q 3713 922 3314 415 
Q 2916 -91 2278 -91 
Q 1894 -91 1617 61 
Q 1341 213 1159 525 
z
M 3116 1747 
Q 3116 2381 2855 2742 
Q 2594 3103 2138 3103 
Q 1681 3103 1420 2742 
Q 1159 2381 1159 1747 
Q 1159 1113 1420 752 
Q 1681 391 2138 391 
Q 2594 391 2855 752 
Q 3116 1113 3116 1747 
z
" transform="scale(0.015625)"/>
       <path id="DejaVuSans-6f" d="M 1959 3097 
Q 1497 3097 1228 2736 
Q 959 2375 959 1747 
Q 959 1119 1226 758 
Q 1494 397 1959 397 
Q 2419 397 2687 759 
Q 2956 1122 2956 1747 
Q 2956 2369 2687 2733 
Q 2419 3097 1959 3097 
z
M 1959 3584 
Q 2709 3584 3137 3096 
Q 3566 2609 3566 1747 
Q 3566 888 3137 398 
Q 2709 -91 1959 -91 
Q 1206 -91 779 398 
Q 353 888 353 1747 
Q 353 2609 779 3096 
Q 1206 3584 1959 3584 
z
" transform="scale(0.015625)"/>
       <path id="DejaVuSans-63" d="M 3122 3366 
L 3122 2828 
Q 2878 2963 2633 3030 
Q 2388 3097 2138 3097 
Q 1578 3097 1268 2742 
Q 959 2388 959 1747 
Q 959 1106 1268 751 
Q 1578 397 2138 397 
Q 2388 397 2633 464 
Q 2878 531 3122 666 
L 3122 134 
Q 2881 22 2623 -34 
Q 2366 -91 2075 -91 
Q 1284 -91 818 406 
Q 353 903 353 1747 
Q 353 2603 823 3093 
Q 1294 3584 2113 3584 
Q 2378 3584 2631 3529 
Q 2884 3475 3122 3366 
z
" transform="scale(0.015625)"/>
       <path id="DejaVuSans-68" d="M 3513 2113 
L 3513 0 
L 2938 0 
L 2938 2094 
Q 2938 2591 2744 2837 
Q 2550 3084 2163 3084 
Q 1697 3084 1428 2787 
Q 1159 2491 1159 1978 
L 1159 0 
L 581 0 
L 581 4863 
L 1159 4863 
L 1159 2956 
Q 1366 3272 1645 3428 
Q 1925 3584 2291 3584 
Q 2894 3584 3203 3211 
Q 3513 2838 3513 2113 
z
" transform="scale(0.015625)"/>
       <path id="DejaVuSans-73" d="M 2834 3397 
L 2834 2853 
Q 2591 2978 2328 3040 
Q 2066 3103 1784 3103 
Q 1356 3103 1142 2972 
Q 928 2841 928 2578 
Q 928 2378 1081 2264 
Q 1234 2150 1697 2047 
L 1894 2003 
Q 2506 1872 2764 1633 
Q 3022 1394 3022 966 
Q 3022 478 2636 193 
Q 2250 -91 1575 -91 
Q 1294 -91 989 -36 
Q 684 19 347 128 
L 347 722 
Q 666 556 975 473 
Q 1284 391 1588 391 
Q 1994 391 2212 530 
Q 2431 669 2431 922 
Q 2431 1156 2273 1281 
Q 2116 1406 1581 1522 
L 1381 1569 
Q 847 1681 609 1914 
Q 372 2147 372 2553 
Q 372 3047 722 3315 
Q 1072 3584 1716 3584 
Q 2034 3584 2315 3537 
Q 2597 3491 2834 3397 
z
" transform="scale(0.015625)"/>
      </defs>
      <use xlink:href="#DejaVuSans-45"/>
      <use xlink:href="#DejaVuSans-70" x="63.183594"/>
      <use xlink:href="#DejaVuSans-6f" x="126.660156"/>
      <use xlink:href="#DejaVuSans-63" x="187.841797"/>
      <use xlink:href="#DejaVuSans-68" x="242.822266"/>
      <use xlink:href="#DejaVuSans-73" x="306.201172"/>
     </g>
    </g>
   </g>
   <g id="matplotlib.axis_2">
    <g id="ytick_1">
     <g id="line2d_11">
      <defs>
       <path id="m991616365a" d="M 0 0 
L -3.5 0 
" style="stroke: #000000; stroke-width: 0.8"/>
      </defs>
      <g>
       <use xlink:href="#m991616365a" x="57.6" y="305.857542" style="stroke: #000000; stroke-width: 0.8"/>
      </g>
     </g>
     <g id="text_12">
      <!-- 20 -->
      <g transform="translate(37.875 309.656761) scale(0.1 -0.1)">
       <use xlink:href="#DejaVuSans-32"/>
       <use xlink:href="#DejaVuSans-30" x="63.623047"/>
      </g>
     </g>
    </g>
    <g id="ytick_2">
     <g id="line2d_12">
      <g>
       <use xlink:href="#m991616365a" x="57.6" y="272.648441" style="stroke: #000000; stroke-width: 0.8"/>
      </g>
     </g>
     <g id="text_13">
      <!-- 30 -->
      <g transform="translate(37.875 276.447659) scale(0.1 -0.1)">
       <use xlink:href="#DejaVuSans-33"/>
       <use xlink:href="#DejaVuSans-30" x="63.623047"/>
      </g>
     </g>
    </g>
    <g id="ytick_3">
     <g id="line2d_13">
      <g>
       <use xlink:href="#m991616365a" x="57.6" y="239.439339" style="stroke: #000000; stroke-width: 0.8"/>
      </g>
     </g>
     <g id="text_14">
      <!-- 40 -->
      <g transform="translate(37.875 243.238558) scale(0.1 -0.1)">
       <use xlink:href="#DejaVuSans-34"/>
       <use xlink:href="#DejaVuSans-30" x="63.623047"/>
      </g>
     </g>
    </g>
    <g id="ytick_4">
     <g id="line2d_14">
      <g>
       <use xlink:href="#m991616365a" x="57.6" y="206.230238" style="stroke: #000000; stroke-width: 0.8"/>
      </g>
     </g>
     <g id="text_15">
      <!-- 50 -->
      <g transform="translate(37.875 210.029457) scale(0.1 -0.1)">
       <defs>
        <path id="DejaVuSans-35" d="M 691 4666 
L 3169 4666 
L 3169 4134 
L 1269 4134 
L 1269 2991 
Q 1406 3038 1543 3061 
Q 1681 3084 1819 3084 
Q 2600 3084 3056 2656 
Q 3513 2228 3513 1497 
Q 3513 744 3044 326 
Q 2575 -91 1722 -91 
Q 1428 -91 1123 -41 
Q 819 9 494 109 
L 494 744 
Q 775 591 1075 516 
Q 1375 441 1709 441 
Q 2250 441 2565 725 
Q 2881 1009 2881 1497 
Q 2881 1984 2565 2268 
Q 2250 2553 1709 2553 
Q 1456 2553 1204 2497 
Q 953 2441 691 2322 
L 691 4666 
z
" transform="scale(0.015625)"/>
       </defs>
       <use xlink:href="#DejaVuSans-35"/>
       <use xlink:href="#DejaVuSans-30" x="63.623047"/>
      </g>
     </g>
    </g>
    <g id="ytick_5">
     <g id="line2d_15">
      <g>
       <use xlink:href="#m991616365a" x="57.6" y="173.021137" style="stroke: #000000; stroke-width: 0.8"/>
      </g>
     </g>
     <g id="text_16">
      <!-- 60 -->
      <g transform="translate(37.875 176.820356) scale(0.1 -0.1)">
       <use xlink:href="#DejaVuSans-36"/>
       <use xlink:href="#DejaVuSans-30" x="63.623047"/>
      </g>
     </g>
    </g>
    <g id="ytick_6">
     <g id="line2d_16">
      <g>
       <use xlink:href="#m991616365a" x="57.6" y="139.812036" style="stroke: #000000; stroke-width: 0.8"/>
      </g>
     </g>
     <g id="text_17">
      <!-- 70 -->
      <g transform="translate(37.875 143.611255) scale(0.1 -0.1)">
       <use xlink:href="#DejaVuSans-37"/>
       <use xlink:href="#DejaVuSans-30" x="63.623047"/>
      </g>
     </g>
    </g>
    <g id="ytick_7">
     <g id="line2d_17">
      <g>
       <use xlink:href="#m991616365a" x="57.6" y="106.602935" style="stroke: #000000; stroke-width: 0.8"/>
      </g>
     </g>
     <g id="text_18">
      <!-- 80 -->
      <g transform="translate(37.875 110.402153) scale(0.1 -0.1)">
       <defs>
        <path id="DejaVuSans-38" d="M 2034 2216 
Q 1584 2216 1326 1975 
Q 1069 1734 1069 1313 
Q 1069 891 1326 650 
Q 1584 409 2034 409 
Q 2484 409 2743 651 
Q 3003 894 3003 1313 
Q 3003 1734 2745 1975 
Q 2488 2216 2034 2216 
z
M 1403 2484 
Q 997 2584 770 2862 
Q 544 3141 544 3541 
Q 544 4100 942 4425 
Q 1341 4750 2034 4750 
Q 2731 4750 3128 4425 
Q 3525 4100 3525 3541 
Q 3525 3141 3298 2862 
Q 3072 2584 2669 2484 
Q 3125 2378 3379 2068 
Q 3634 1759 3634 1313 
Q 3634 634 3220 271 
Q 2806 -91 2034 -91 
Q 1263 -91 848 271 
Q 434 634 434 1313 
Q 434 1759 690 2068 
Q 947 2378 1403 2484 
z
M 1172 3481 
Q 1172 3119 1398 2916 
Q 1625 2713 2034 2713 
Q 2441 2713 2670 2916 
Q 2900 3119 2900 3481 
Q 2900 3844 2670 4047 
Q 2441 4250 2034 4250 
Q 1625 4250 1398 4047 
Q 1172 3844 1172 3481 
z
" transform="scale(0.015625)"/>
       </defs>
       <use xlink:href="#DejaVuSans-38"/>
       <use xlink:href="#DejaVuSans-30" x="63.623047"/>
      </g>
     </g>
    </g>
    <g id="ytick_8">
     <g id="line2d_18">
      <g>
       <use xlink:href="#m991616365a" x="57.6" y="73.393833" style="stroke: #000000; stroke-width: 0.8"/>
      </g>
     </g>
     <g id="text_19">
      <!-- 90 -->
      <g transform="translate(37.875 77.193052) scale(0.1 -0.1)">
       <defs>
        <path id="DejaVuSans-39" d="M 703 97 
L 703 672 
Q 941 559 1184 500 
Q 1428 441 1663 441 
Q 2288 441 2617 861 
Q 2947 1281 2994 2138 
Q 2813 1869 2534 1725 
Q 2256 1581 1919 1581 
Q 1219 1581 811 2004 
Q 403 2428 403 3163 
Q 403 3881 828 4315 
Q 1253 4750 1959 4750 
Q 2769 4750 3195 4129 
Q 3622 3509 3622 2328 
Q 3622 1225 3098 567 
Q 2575 -91 1691 -91 
Q 1453 -91 1209 -44 
Q 966 3 703 97 
z
M 1959 2075 
Q 2384 2075 2632 2365 
Q 2881 2656 2881 3163 
Q 2881 3666 2632 3958 
Q 2384 4250 1959 4250 
Q 1534 4250 1286 3958 
Q 1038 3666 1038 3163 
Q 1038 2656 1286 2365 
Q 1534 2075 1959 2075 
z
" transform="scale(0.015625)"/>
       </defs>
       <use xlink:href="#DejaVuSans-39"/>
       <use xlink:href="#DejaVuSans-30" x="63.623047"/>
      </g>
     </g>
    </g>
    <g id="text_20">
     <!-- Accuracy -->
     <g transform="translate(31.795312 197.356125) rotate(-90) scale(0.1 -0.1)">
      <defs>
       <path id="DejaVuSans-41" d="M 2188 4044 
L 1331 1722 
L 3047 1722 
L 2188 4044 
z
M 1831 4666 
L 2547 4666 
L 4325 0 
L 3669 0 
L 3244 1197 
L 1141 1197 
L 716 0 
L 50 0 
L 1831 4666 
z
" transform="scale(0.015625)"/>
       <path id="DejaVuSans-75" d="M 544 1381 
L 544 3500 
L 1119 3500 
L 1119 1403 
Q 1119 906 1312 657 
Q 1506 409 1894 409 
Q 2359 409 2629 706 
Q 2900 1003 2900 1516 
L 2900 3500 
L 3475 3500 
L 3475 0 
L 2900 0 
L 2900 538 
Q 2691 219 2414 64 
Q 2138 -91 1772 -91 
Q 1169 -91 856 284 
Q 544 659 544 1381 
z
M 1991 3584 
L 1991 3584 
z
" transform="scale(0.015625)"/>
       <path id="DejaVuSans-72" d="M 2631 2963 
Q 2534 3019 2420 3045 
Q 2306 3072 2169 3072 
Q 1681 3072 1420 2755 
Q 1159 2438 1159 1844 
L 1159 0 
L 581 0 
L 581 3500 
L 1159 3500 
L 1159 2956 
Q 1341 3275 1631 3429 
Q 1922 3584 2338 3584 
Q 2397 3584 2469 3576 
Q 2541 3569 2628 3553 
L 2631 2963 
z
" transform="scale(0.015625)"/>
       <path id="DejaVuSans-61" d="M 2194 1759 
Q 1497 1759 1228 1600 
Q 959 1441 959 1056 
Q 959 750 1161 570 
Q 1363 391 1709 391 
Q 2188 391 2477 730 
Q 2766 1069 2766 1631 
L 2766 1759 
L 2194 1759 
z
M 3341 1997 
L 3341 0 
L 2766 0 
L 2766 531 
Q 2569 213 2275 61 
Q 1981 -91 1556 -91 
Q 1019 -91 701 211 
Q 384 513 384 1019 
Q 384 1609 779 1909 
Q 1175 2209 1959 2209 
L 2766 2209 
L 2766 2266 
Q 2766 2663 2505 2880 
Q 2244 3097 1772 3097 
Q 1472 3097 1187 3025 
Q 903 2953 641 2809 
L 641 3341 
Q 956 3463 1253 3523 
Q 1550 3584 1831 3584 
Q 2591 3584 2966 3190 
Q 3341 2797 3341 1997 
z
" transform="scale(0.015625)"/>
       <path id="DejaVuSans-79" d="M 2059 -325 
Q 1816 -950 1584 -1140 
Q 1353 -1331 966 -1331 
L 506 -1331 
L 506 -850 
L 844 -850 
Q 1081 -850 1212 -737 
Q 1344 -625 1503 -206 
L 1606 56 
L 191 3500 
L 800 3500 
L 1894 763 
L 2988 3500 
L 3597 3500 
L 2059 -325 
z
" transform="scale(0.015625)"/>
      </defs>
      <use xlink:href="#DejaVuSans-41"/>
      <use xlink:href="#DejaVuSans-63" x="66.658203"/>
      <use xlink:href="#DejaVuSans-63" x="121.638672"/>
      <use xlink:href="#DejaVuSans-75" x="176.619141"/>
      <use xlink:href="#DejaVuSans-72" x="239.998047"/>
      <use xlink:href="#DejaVuSans-61" x="281.111328"/>
      <use xlink:href="#DejaVuSans-63" x="342.390625"/>
      <use xlink:href="#DejaVuSans-79" x="397.371094"/>
     </g>
    </g>
   </g>
   <g id="line2d_19">
    <path d="M 73.832727 295.488 
L 74.918528 258.252295 
L 76.00433 241.008469 
L 77.090131 225.798701 
L 78.175932 212.855454 
L 79.261733 210.14061 
L 80.347534 199.148397 
L 81.433335 196.674319 
L 82.519137 198.417797 
L 83.604938 186.346289 
L 84.690739 182.909147 
L 85.77654 184.652625 
L 86.862341 176.408465 
L 87.948142 177.512668 
L 90.119745 172.348653 
L 91.205546 169.774947 
L 92.291347 164.1294 
L 93.377148 161.887786 
L 94.462949 162.228179 
L 95.54875 182.801217 
L 96.634552 190.680077 
L 97.720353 185.150761 
L 98.806154 174.814428 
L 99.891955 175.902027 
L 100.977756 172.913207 
L 102.063557 172.855092 
L 104.23516 179.521819 
L 105.320961 172.913207 
L 106.406762 170.995382 
L 107.492563 164.104493 
L 108.578364 164.112796 
L 109.664165 169.774947 
L 110.749967 163.531636 
L 111.835768 163.249359 
L 112.921569 163.241057 
L 114.00737 163.58145 
L 115.093171 159.405406 
L 116.178972 158.957083 
L 117.264773 155.569754 
L 118.350575 157.703439 
L 119.436376 154.772736 
L 120.522177 157.188698 
L 121.607978 160.600933 
L 122.693779 157.155489 
L 123.77958 152.531122 
L 124.865382 153.170397 
L 125.951183 152.564331 
L 127.036984 144.320171 
L 128.122785 140.30187 
L 129.208586 145.905906 
L 130.294387 144.253753 
L 131.380189 142.875575 
L 132.46599 144.245451 
L 133.551791 144.361683 
L 134.637592 146.661413 
L 135.723393 136.673776 
L 136.809194 145.515699 
L 137.894995 140.841518 
L 138.980797 163.199545 
L 140.066598 164.868303 
L 141.152399 159.911844 
L 142.2382 159.961658 
L 143.324001 154.855759 
L 144.409802 162.103645 
L 145.495604 154.739527 
L 146.581405 160.534515 
L 147.667206 158.292901 
L 148.753007 154.133461 
L 149.838808 158.085344 
L 150.924609 153.236815 
L 152.01041 159.870333 
L 153.096212 152.298658 
L 154.182013 156.906421 
L 155.267814 157.703439 
L 156.353615 159.23936 
L 157.439416 147.840336 
L 158.525217 151.003503 
L 159.611019 145.598722 
L 160.69682 147.78222 
L 161.782621 156.258843 
L 162.868422 159.779008 
L 163.954223 149.500791 
L 165.040024 150.928782 
L 166.125825 148.363379 
L 167.211627 149.932509 
L 168.297428 146.528577 
L 169.383229 142.153277 
L 170.46903 147.275781 
L 171.554831 148.504518 
L 172.640632 149.293234 
L 173.726434 149.633628 
L 174.812235 142.726134 
L 175.898036 145.681744 
L 176.983837 138.392347 
L 178.069638 141.480793 
L 179.155439 145.142097 
L 180.24124 146.76104 
L 181.327042 148.006382 
L 182.412843 146.68632 
L 183.498644 142.78425 
L 184.584445 143.830337 
L 185.670246 142.618205 
L 186.756047 140.285266 
L 187.841849 136.349987 
L 188.92765 144.610751 
L 190.013451 137.130401 
L 191.099252 140.509427 
L 192.185053 144.893028 
L 193.270854 136.673776 
L 194.356656 140.210545 
L 195.442457 143.041621 
L 196.528258 133.410982 
L 197.614059 130.795765 
L 198.69986 136.931146 
L 199.785661 136.831519 
L 200.871462 131.866758 
L 201.957264 128.869637 
L 203.043065 132.887938 
L 204.128866 134.041954 
L 205.214667 132.92945 
L 206.300468 128.238664 
L 207.386269 138.284417 
L 208.472071 129.982142 
L 209.557872 126.36235 
L 210.643673 130.978415 
L 211.729474 132.987566 
L 212.815275 130.33914 
L 213.901076 125.70647 
L 214.986877 126.295932 
L 216.072679 129.633446 
L 217.15848 128.313385 
L 218.244281 131.028229 
L 219.330082 123.464856 
L 220.415883 126.843882 
L 221.501684 127.001625 
L 222.587486 120.81643 
L 224.759088 127.292205 
L 225.844889 145.66514 
L 226.93069 147.043318 
L 228.016491 152.016381 
L 229.102292 148.637354 
L 230.188094 142.153277 
L 231.273895 145.042469 
L 232.359696 144.270358 
L 233.445497 148.69547 
L 234.531298 147.699197 
L 235.617099 149.666837 
L 236.702901 141.21512 
L 237.788702 147.292386 
L 238.874503 145.781372 
L 239.960304 145.773069 
L 241.046105 144.112614 
L 242.131906 147.010109 
L 243.217708 147.49164 
L 244.303509 144.75189 
L 245.38931 140.451311 
L 246.475111 146.022138 
L 247.560912 143.124644 
L 248.646713 150.314414 
L 249.732514 147.616175 
L 250.818316 140.683775 
L 251.904117 140.600752 
L 252.989918 139.529758 
L 254.075719 147.101434 
L 255.16152 145.607024 
L 256.247321 145.142097 
L 257.333123 144.917935 
L 258.418924 139.670897 
L 259.504725 142.286114 
L 260.590526 142.460462 
L 261.676327 144.494519 
L 262.762128 137.047378 
L 263.847929 141.065679 
L 264.933731 147.101434 
L 266.019532 136.939449 
L 267.105333 143.98808 
L 268.191134 142.875575 
L 269.276935 140.575845 
L 270.362736 145.175306 
L 271.448538 148.014684 
L 272.534339 143.14955 
L 273.62014 148.761889 
L 274.705941 138.25951 
L 275.791742 143.838639 
L 276.877543 143.763919 
L 277.963344 143.116341 
L 279.049146 138.724438 
L 280.134947 136.150732 
L 281.220748 139.239179 
L 282.306549 143.116341 
L 283.39235 135.088041 
L 284.478151 132.688684 
L 285.563953 140.22715 
L 286.649754 137.23833 
L 287.735555 138.043651 
L 288.821356 132.223756 
L 289.907157 134.838973 
L 290.992958 136.599055 
L 292.07876 138.027047 
L 293.164561 139.147854 
L 294.250362 137.985535 
L 295.336163 134.606509 
L 296.421964 133.726468 
L 297.507765 141.015866 
L 298.593566 136.358289 
L 299.679368 125.681563 
L 300.765169 135.934873 
L 301.85097 132.63887 
L 304.022572 137.371167 
L 305.108373 133.485702 
L 306.194175 138.973506 
L 307.279976 129.39268 
L 308.365777 129.060589 
L 309.451578 142.883878 
L 310.537379 127.184275 
L 311.62318 131.43504 
L 312.708981 129.376076 
L 313.794783 130.056862 
L 314.880584 136.366592 
L 315.966385 135.77713 
L 317.052186 136.61566 
L 318.137987 131.044833 
L 319.223788 127.93148 
L 320.30959 131.775433 
L 321.395391 128.836428 
L 322.481192 127.408437 
L 323.566993 130.671231 
L 324.652794 130.530092 
L 325.738595 129.841003 
L 327.910198 124.070922 
L 328.995999 131.17767 
L 330.0818 141.414375 
L 331.167601 135.635991 
L 332.253402 131.642597 
L 333.339203 128.645476 
L 334.425005 123.307113 
L 335.510806 122.642931 
L 336.596607 127.433343 
L 337.682408 126.503489 
L 338.768209 127.209182 
L 339.85401 128.520941 
L 342.025613 120.368107 
L 343.111414 128.139037 
L 344.197215 120.500943 
L 345.283016 128.454523 
L 346.368817 123.747133 
L 347.454618 127.441646 
L 348.54042 125.092102 
L 350.712022 125.357775 
L 351.797823 120.276782 
L 352.883624 124.710197 
L 353.969425 125.283054 
L 355.055227 124.710197 
L 356.141028 121.605146 
L 357.226829 117.196638 
L 358.31263 124.818127 
L 359.398431 120.226968 
L 361.570033 129.57533 
L 362.655835 118.549909 
L 363.741636 117.786099 
L 364.827437 116.881151 
L 365.913238 120.907755 
L 366.999039 114.664444 
L 368.08484 121.513821 
L 369.170642 125.640052 
L 370.256443 125.075497 
L 371.342244 127.250693 
L 372.428045 124.86794 
L 373.513846 131.003322 
L 374.599647 121.721378 
L 375.685448 115.527881 
L 376.77125 126.320838 
L 377.857051 128.263571 
L 378.942852 124.220363 
L 380.028653 126.096677 
L 381.114454 126.603116 
L 382.200255 117.960447 
L 383.286057 117.835913 
L 384.371858 123.572785 
L 385.457659 126.553302 
L 386.54346 123.730529 
L 387.629261 115.527881 
L 388.715062 121.480612 
L 389.800863 119.205789 
L 390.886665 119.571089 
L 391.972466 123.099556 
L 393.058267 121.970446 
L 394.144068 118.848791 
L 395.229869 124.469431 
L 396.31567 122.319142 
L 397.401472 125.673261 
L 398.487273 129.467401 
L 398.487273 129.467401 
" clip-path="url(#pd1c9f03749)" style="fill: none; stroke: #1f77b4; stroke-width: 1.5; stroke-linecap: square"/>
   </g>
   <g id="line2d_20">
    <path d="M 73.832727 243.988986 
L 74.918528 190.721588 
L 76.00433 167.641263 
L 78.175932 130.214606 
L 79.261733 140.110918 
L 80.347534 137.553817 
L 81.433335 125.963841 
L 82.519137 111.052954 
L 83.604938 108.661899 
L 84.690739 103.680534 
L 85.77654 103.08277 
L 86.862341 102.983143 
L 87.948142 93.584967 
L 89.033943 92.489067 
L 90.119745 87.972629 
L 91.205546 90.363684 
L 92.291347 87.009565 
L 93.377148 85.149855 
L 94.462949 84.950601 
L 95.54875 103.846579 
L 96.634552 119.72053 
L 97.720353 98.499914 
L 98.806154 98.99805 
L 99.891955 101.488733 
L 100.977756 96.474159 
L 102.063557 99.496187 
L 103.149358 92.588694 
L 104.23516 104.17867 
L 105.320961 92.887576 
L 106.406762 91.526003 
L 107.492563 87.540911 
L 108.578364 88.67002 
L 109.664165 91.326748 
L 110.749967 88.105465 
L 111.835768 89.931966 
L 112.921569 83.1241 
L 114.00737 80.965508 
L 115.093171 80.600208 
L 116.178972 80.367745 
L 117.264773 80.334536 
L 118.350575 77.777435 
L 119.436376 77.246089 
L 120.522177 76.913998 
L 121.607978 75.286752 
L 122.693779 77.644598 
L 123.77958 75.120707 
L 124.865382 71.733378 
L 125.951183 71.334869 
L 127.036984 71.401287 
L 128.122785 70.006505 
L 129.208586 69.740832 
L 130.294387 68.943814 
L 131.380189 69.010232 
L 132.46599 68.379259 
L 133.551791 67.316568 
L 134.637592 68.943814 
L 135.723393 67.515823 
L 136.809194 68.279632 
L 137.894995 68.545305 
L 138.980797 86.245756 
L 140.066598 83.422982 
L 141.152399 82.459918 
L 142.2382 79.404681 
L 143.324001 82.493127 
L 145.495604 78.972962 
L 146.581405 80.998718 
L 147.667206 87.640538 
L 148.753007 87.441283 
L 149.838808 79.836399 
L 150.924609 77.312507 
L 153.096212 83.522609 
L 154.182013 73.825552 
L 155.267814 78.175944 
L 156.353615 76.581907 
L 157.439416 78.109526 
L 158.525217 78.508035 
L 159.611019 77.412135 
L 160.69682 74.821825 
L 161.782621 74.456525 
L 162.868422 72.297933 
L 163.954223 75.618843 
L 165.040024 74.290479 
L 166.125825 72.364351 
L 167.211627 69.408741 
L 168.297428 72.928906 
L 169.383229 71.999051 
L 170.46903 69.774041 
L 171.554831 70.338596 
L 172.640632 70.604269 
L 173.726434 69.641205 
L 174.812235 67.61545 
L 175.898036 71.467706 
L 176.983837 69.109859 
L 178.069638 68.246423 
L 179.155439 71.534124 
L 180.24124 68.844187 
L 181.327042 68.213214 
L 182.412843 67.117313 
L 183.498644 68.047168 
L 184.584445 67.781495 
L 185.670246 64.958722 
L 186.756047 65.656113 
L 187.841849 64.991931 
L 188.92765 64.460585 
L 190.013451 64.792676 
L 191.099252 64.128494 
L 192.185053 64.228121 
L 193.270854 65.224395 
L 194.356656 62.833339 
L 195.442457 63.331476 
L 196.528258 61.770648 
L 197.614059 62.733712 
L 198.69986 61.803857 
L 199.785661 62.368412 
L 200.871462 59.977357 
L 201.957264 60.840793 
L 203.043065 61.33893 
L 204.128866 60.840793 
L 205.214667 61.206093 
L 206.300468 61.040048 
L 207.386269 59.678475 
L 208.472071 60.541911 
L 209.557872 58.815038 
L 210.643673 58.815038 
L 211.729474 59.47922 
L 212.815275 58.981083 
L 214.986877 58.881456 
L 216.072679 58.283692 
L 217.15848 58.250483 
L 218.244281 58.715411 
L 219.330082 58.084438 
L 220.415883 58.881456 
L 221.501684 57.851974 
L 222.587486 57.652719 
L 223.673287 57.685929 
L 224.759088 58.416529 
L 225.844889 75.153916 
L 226.93069 73.294206 
L 228.016491 77.279298 
L 229.102292 71.833006 
L 231.273895 75.35317 
L 232.359696 72.962115 
L 233.445497 77.246089 
L 234.531298 73.061742 
L 235.617099 70.604269 
L 236.702901 71.534124 
L 237.788702 71.334869 
L 238.874503 71.766587 
L 239.960304 74.290479 
L 241.046105 69.574787 
L 242.131906 70.969569 
L 243.217708 68.013959 
L 244.303509 72.098678 
L 245.38931 70.305387 
L 246.475111 69.109859 
L 247.560912 70.139342 
L 248.646713 70.670687 
L 249.732514 74.589361 
L 250.818316 66.818431 
L 251.904117 70.737105 
L 252.989918 69.574787 
L 254.075719 67.515823 
L 255.16152 66.320295 
L 256.247321 70.869942 
L 257.333123 69.541578 
L 258.418924 72.264724 
L 259.504725 70.471433 
L 260.590526 69.508369 
L 261.676327 71.268451 
L 262.762128 70.072923 
L 263.847929 65.622904 
L 264.933731 66.12104 
L 267.105333 67.416195 
L 268.191134 64.560212 
L 269.276935 69.707623 
L 270.362736 66.353504 
L 271.448538 66.220668 
L 272.534339 65.689322 
L 273.62014 65.855367 
L 274.705941 67.61545 
L 275.791742 69.674414 
L 276.877543 69.07665 
L 279.049146 64.493794 
L 280.134947 63.89603 
L 281.220748 66.785222 
L 282.306549 64.825885 
L 283.39235 65.191185 
L 284.478151 67.117313 
L 285.563953 65.75574 
L 286.649754 68.047168 
L 287.735555 68.545305 
L 288.821356 64.095285 
L 289.907157 65.490067 
L 290.992958 65.855367 
L 292.07876 63.364685 
L 293.164561 65.589695 
L 294.250362 64.991931 
L 295.336163 63.065803 
L 296.421964 64.360958 
L 297.507765 62.866548 
L 298.593566 62.634085 
L 299.679368 61.903484 
L 300.765169 62.135948 
L 301.85097 65.157976 
L 302.936771 61.372139 
L 304.022572 60.774375 
L 305.108373 62.600876 
L 306.194175 64.892304 
L 307.279976 63.099012 
L 309.451578 62.135948 
L 310.537379 61.604602 
L 311.62318 61.770648 
L 313.794783 63.829612 
L 314.880584 60.043775 
L 315.966385 64.062076 
L 317.052186 62.102739 
L 318.137987 60.641539 
L 319.223788 61.106466 
L 320.30959 60.110193 
L 321.395391 59.877729 
L 322.481192 62.06953 
L 323.566993 60.774375 
L 324.652794 58.881456 
L 325.738595 58.648992 
L 326.824396 59.346384 
L 327.910198 59.246756 
L 328.995999 57.752347 
L 330.0818 60.442284 
L 331.167601 58.648992 
L 332.253402 59.678475 
L 333.339203 57.586301 
L 335.510806 59.744893 
L 336.596607 57.885183 
L 338.768209 58.184065 
L 339.85401 57.187792 
L 340.939811 57.785556 
L 342.025613 57.851974 
L 343.111414 57.61951 
L 344.197215 58.981083 
L 345.283016 57.320628 
L 346.368817 58.615783 
L 347.454618 57.387047 
L 348.54042 57.054956 
L 350.712022 55.660173 
L 352.883624 55.06241 
L 353.969425 55.726592 
L 355.055227 55.859428 
L 356.141028 55.593755 
L 357.226829 56.257937 
L 358.31263 54.962782 
L 359.398431 54.929573 
L 360.484232 56.025473 
L 361.570033 55.42771 
L 362.655835 54.464646 
L 363.741636 55.42771 
L 364.827437 55.892637 
L 365.913238 54.232182 
L 366.999039 54.331809 
L 368.08484 54.564273 
L 369.170642 56.955328 
L 370.256443 55.859428 
L 371.342244 56.125101 
L 372.428045 56.623237 
L 373.513846 56.15831 
L 374.599647 56.324355 
L 375.685448 55.992264 
L 376.77125 56.125101 
L 377.857051 56.756074 
L 378.942852 58.217274 
L 380.028653 57.553092 
L 381.114454 57.453465 
L 382.200255 56.722865 
L 383.286057 57.387047 
L 384.371858 56.224728 
L 385.457659 57.25421 
L 386.54346 56.423983 
L 388.715062 57.685929 
L 389.800863 56.257937 
L 390.886665 56.689656 
L 391.972466 57.785556 
L 393.058267 54.697109 
L 395.229869 56.556819 
L 396.31567 57.951601 
L 397.401472 56.224728 
L 398.487273 57.021747 
L 398.487273 57.021747 
" clip-path="url(#pd1c9f03749)" style="fill: none; stroke: #ff7f0e; stroke-width: 1.5; stroke-linecap: square"/>
   </g>
   <g id="line2d_21">
    <path d="M 73.832727 261.311541 
L 74.918528 214.933313 
L 76.00433 195.694937 
L 77.090131 182.296783 
L 78.175932 163.401949 
L 79.261733 171.761481 
L 80.347534 173.135651 
L 81.433335 162.943893 
L 82.519137 151.492478 
L 83.604938 148.286082 
L 84.690739 141.071691 
L 85.77654 138.094324 
L 86.862341 137.407239 
L 87.948142 127.21548 
L 89.033943 130.650904 
L 90.119745 123.321999 
L 91.205546 124.467141 
L 92.291347 123.665542 
L 93.377148 121.031717 
L 94.462949 122.062344 
L 96.634552 163.860006 
L 97.720353 140.957177 
L 98.806154 137.865295 
L 99.891955 145.423229 
L 100.977756 135.575013 
L 102.063557 132.597645 
L 103.149358 132.941187 
L 104.23516 149.88928 
L 105.320961 132.025074 
L 106.406762 123.89457 
L 107.492563 121.031717 
L 108.578364 128.704164 
L 109.664165 130.421876 
L 110.749967 130.078334 
L 111.835768 128.360622 
L 112.921569 119.19949 
L 114.00737 116.794693 
L 115.093171 118.054349 
L 116.178972 119.084976 
L 118.350575 114.046354 
L 119.436376 112.672184 
L 120.522177 108.778703 
L 121.607978 114.50441 
L 122.693779 116.794693 
L 123.77958 113.359269 
L 124.865382 106.259392 
L 125.951183 107.86259 
L 127.036984 108.091618 
L 128.122785 105.686821 
L 129.208586 105.457793 
L 130.294387 102.709454 
L 131.380189 105.91585 
L 132.46599 103.282025 
L 133.551791 102.136883 
L 134.637592 102.823968 
L 135.723393 101.22077 
L 136.809194 102.59494 
L 137.894995 102.480426 
L 138.980797 119.886575 
L 140.066598 120.917202 
L 141.152399 125.84131 
L 142.2382 115.076981 
L 143.324001 121.260745 
L 144.409802 121.833316 
L 145.495604 119.886575 
L 146.581405 118.168863 
L 147.667206 126.413881 
L 148.753007 123.207485 
L 149.838808 111.641557 
L 150.924609 112.328642 
L 152.01041 119.772061 
L 153.096212 121.375259 
L 154.182013 109.694816 
L 155.267814 112.55767 
L 156.353615 110.725444 
L 157.439416 118.283377 
L 158.525217 117.939835 
L 160.69682 110.038359 
L 161.782621 107.86259 
L 162.868422 106.48842 
L 163.954223 108.893217 
L 165.040024 113.359269 
L 167.211627 106.259392 
L 168.297428 111.527043 
L 169.383229 106.144878 
L 170.46903 104.54168 
L 171.554831 105.801336 
L 172.640632 104.54168 
L 173.726434 103.969109 
L 174.812235 101.22077 
L 175.898036 110.038359 
L 176.983837 105.801336 
L 178.069638 103.625567 
L 179.155439 106.946477 
L 180.24124 102.709454 
L 181.327042 103.16751 
L 182.412843 102.365911 
L 183.498644 102.938482 
L 184.584445 99.617572 
L 185.670246 101.907855 
L 186.756047 94.693464 
L 187.841849 98.243402 
L 188.92765 99.732086 
L 190.013451 98.357916 
L 191.099252 98.815973 
L 192.185053 96.296662 
L 193.270854 99.159515 
L 194.356656 93.777351 
L 195.442457 94.006379 
L 196.528258 97.212775 
L 197.614059 93.433808 
L 198.69986 97.327289 
L 199.785661 94.464436 
L 200.871462 91.029011 
L 201.957264 90.799983 
L 203.043065 91.83061 
L 204.128866 93.548322 
L 205.214667 92.861238 
L 206.300468 94.57895 
L 207.386269 90.112898 
L 208.472071 91.143525 
L 209.557872 88.738728 
L 210.643673 88.5097 
L 211.729474 89.769356 
L 212.815275 87.937129 
L 213.901076 89.082271 
L 214.986877 88.166158 
L 216.072679 87.937129 
L 217.15848 87.13553 
L 218.244281 86.791988 
L 219.330082 87.364559 
L 220.415883 88.395186 
L 221.501684 87.708101 
L 222.587486 85.875875 
L 223.673287 87.13553 
L 224.759088 88.967757 
L 225.844889 105.228765 
L 226.93069 113.244755 
L 228.016491 108.206133 
L 229.102292 109.122246 
L 230.188094 113.244755 
L 231.273895 111.756071 
L 232.359696 111.756071 
L 233.445497 112.443156 
L 234.531298 109.23676 
L 235.617099 107.290019 
L 236.702901 104.999737 
L 237.788702 110.496415 
L 238.874503 106.259392 
L 239.960304 108.435161 
L 241.046105 102.709454 
L 242.131906 109.465788 
L 243.217708 101.793341 
L 244.303509 110.381901 
L 245.38931 105.343279 
L 246.475111 108.320647 
L 247.560912 107.748076 
L 249.732514 109.007732 
L 250.818316 103.740081 
L 251.904117 107.519048 
L 252.989918 109.122246 
L 254.075719 105.228765 
L 255.16152 107.060991 
L 256.247321 108.664189 
L 257.333123 100.648199 
L 258.418924 107.86259 
L 259.504725 107.404534 
L 260.590526 106.030364 
L 261.676327 108.320647 
L 262.762128 106.48842 
L 263.847929 99.617572 
L 264.933731 103.511053 
L 266.019532 103.052996 
L 267.105333 101.564312 
L 268.191134 99.388544 
L 269.276935 103.396539 
L 270.362736 102.823968 
L 271.448538 101.678827 
L 272.534339 101.449798 
L 273.62014 97.89986 
L 274.705941 100.419171 
L 275.791742 107.519048 
L 276.877543 100.762713 
L 277.963344 101.22077 
L 279.049146 105.114251 
L 280.134947 96.52569 
L 281.220748 101.449798 
L 282.306549 103.854595 
L 283.39235 99.961114 
L 284.478151 99.732086 
L 285.563953 100.304657 
L 286.649754 103.282025 
L 287.735555 103.740081 
L 288.821356 98.014374 
L 289.907157 99.388544 
L 290.992958 96.640204 
L 292.07876 96.182148 
L 293.164561 97.441803 
L 294.250362 97.212775 
L 295.336163 97.89986 
L 297.507765 93.548322 
L 298.593566 96.640204 
L 299.679368 96.869233 
L 300.765169 98.472431 
L 301.85097 99.388544 
L 302.936771 93.319294 
L 304.022572 90.914497 
L 305.108373 93.433808 
L 306.194175 102.022369 
L 307.279976 94.120893 
L 308.365777 96.411176 
L 309.451578 95.609577 
L 310.537379 92.517695 
L 311.62318 94.464436 
L 312.708981 94.006379 
L 313.794783 97.441803 
L 314.880584 94.120893 
L 315.966385 96.411176 
L 317.052186 96.754718 
L 318.137987 92.288667 
L 319.223788 94.235407 
L 320.30959 91.25804 
L 321.395391 89.540327 
L 322.481192 95.495063 
L 323.566993 91.143525 
L 324.652794 90.456441 
L 325.738595 90.685469 
L 326.824396 91.945124 
L 327.910198 91.601582 
L 328.995999 87.021016 
L 330.0818 93.548322 
L 331.167601 90.227412 
L 332.253402 89.88387 
L 333.339203 87.021016 
L 334.425005 90.456441 
L 335.510806 96.182148 
L 336.596607 86.219417 
L 337.682408 89.311299 
L 338.768209 89.082271 
L 339.85401 86.791988 
L 340.939811 90.227412 
L 342.025613 91.945124 
L 343.111414 86.219417 
L 344.197215 88.051644 
L 345.283016 88.853243 
L 346.368817 92.174153 
L 347.454618 85.18879 
L 348.54042 87.479073 
L 349.626221 84.501705 
L 350.712022 84.043649 
L 351.797823 82.096908 
L 352.883624 84.845248 
L 353.969425 83.471078 
L 355.055227 83.585592 
L 356.141028 84.501705 
L 357.226829 86.448446 
L 358.31263 80.264682 
L 359.398431 81.753366 
L 360.484232 85.417818 
L 361.570033 84.501705 
L 362.655835 83.013021 
L 363.741636 81.753366 
L 364.827437 83.24205 
L 365.913238 81.066281 
L 366.999039 84.043649 
L 368.08484 83.356564 
L 369.170642 86.333931 
L 370.256443 84.158163 
L 371.342244 84.387191 
L 372.428045 87.479073 
L 373.513846 85.18879 
L 374.599647 89.311299 
L 375.685448 89.425813 
L 376.77125 82.211422 
L 377.857051 87.937129 
L 378.942852 85.875875 
L 380.028653 86.56296 
L 381.114454 85.646847 
L 382.200255 86.104903 
L 383.286057 88.395186 
L 384.371858 85.875875 
L 385.457659 88.624214 
L 386.54346 87.364559 
L 387.629261 85.074276 
L 388.715062 88.166158 
L 389.800863 84.158163 
L 390.886665 88.280672 
L 391.972466 91.25804 
L 393.058267 84.501705 
L 394.144068 86.333931 
L 395.229869 87.937129 
L 396.31567 87.937129 
L 397.401472 85.074276 
L 398.487273 85.417818 
L 398.487273 85.417818 
" clip-path="url(#pd1c9f03749)" style="fill: none; stroke: #2ca02c; stroke-width: 1.5; stroke-linecap: square"/>
   </g>
   <g id="line2d_22">
    <path d="M 368.08484 53.800464 
L 369.170642 54.331809 
L 370.256443 54.2986 
L 371.342244 54.497855 
L 372.428045 54.132555 
L 374.599647 54.531064 
L 375.685448 54.265391 
L 376.77125 53.568 
L 377.857051 54.265391 
L 378.942852 53.634418 
L 380.028653 54.431437 
L 382.200255 54.995991 
L 383.286057 54.730319 
L 384.371858 55.328082 
L 385.457659 54.431437 
L 386.54346 54.597482 
L 388.715062 55.294873 
L 389.800863 54.796737 
L 390.886665 54.630691 
L 391.972466 55.527337 
L 393.058267 55.361291 
L 394.144068 55.06241 
L 395.229869 54.995991 
L 396.31567 56.722865 
L 397.401472 54.995991 
L 398.487273 54.630691 
L 398.487273 54.630691 
" clip-path="url(#pd1c9f03749)" style="fill: none; stroke: #d62728; stroke-width: 1.5; stroke-linecap: square"/>
   </g>
   <g id="line2d_23">
    <path d="M 368.08484 82.554965 
L 369.170642 81.409823 
L 370.256443 81.524338 
L 371.342244 79.692111 
L 372.428045 82.325937 
L 373.513846 82.096908 
L 374.599647 82.898507 
L 375.685448 80.608224 
L 376.77125 81.86788 
L 377.857051 80.951767 
L 378.942852 81.409823 
L 380.028653 82.096908 
L 381.114454 81.524338 
L 382.200255 84.501705 
L 383.286057 81.753366 
L 384.371858 80.722739 
L 385.457659 80.035654 
L 386.54346 79.92114 
L 387.629261 80.837253 
L 388.715062 80.608224 
L 389.800863 81.409823 
L 390.886665 80.951767 
L 391.972466 82.096908 
L 393.058267 82.325937 
L 394.144068 81.180795 
L 395.229869 80.379196 
L 396.31567 80.264682 
L 397.401472 80.837253 
L 398.487273 80.951767 
L 398.487273 80.951767 
" clip-path="url(#pd1c9f03749)" style="fill: none; stroke: #9467bd; stroke-width: 1.5; stroke-linecap: square"/>
   </g>
   <g id="patch_3">
    <path d="M 57.6 307.584 
L 57.6 41.472 
" style="fill: none; stroke: #000000; stroke-width: 0.8; stroke-linejoin: miter; stroke-linecap: square"/>
   </g>
   <g id="patch_4">
    <path d="M 414.72 307.584 
L 414.72 41.472 
" style="fill: none; stroke: #000000; stroke-width: 0.8; stroke-linejoin: miter; stroke-linecap: square"/>
   </g>
   <g id="patch_5">
    <path d="M 57.6 307.584 
L 414.72 307.584 
" style="fill: none; stroke: #000000; stroke-width: 0.8; stroke-linejoin: miter; stroke-linecap: square"/>
   </g>
   <g id="patch_6">
    <path d="M 57.6 41.472 
L 414.72 41.472 
" style="fill: none; stroke: #000000; stroke-width: 0.8; stroke-linejoin: miter; stroke-linecap: square"/>
   </g>
   <g id="text_21">
    <!-- Learning Curves -->
    <g transform="translate(187.37625 35.472) scale(0.12 -0.12)">
     <defs>
      <path id="DejaVuSans-4c" d="M 628 4666 
L 1259 4666 
L 1259 531 
L 3531 531 
L 3531 0 
L 628 0 
L 628 4666 
z
" transform="scale(0.015625)"/>
      <path id="DejaVuSans-65" d="M 3597 1894 
L 3597 1613 
L 953 1613 
Q 991 1019 1311 708 
Q 1631 397 2203 397 
Q 2534 397 2845 478 
Q 3156 559 3463 722 
L 3463 178 
Q 3153 47 2828 -22 
Q 2503 -91 2169 -91 
Q 1331 -91 842 396 
Q 353 884 353 1716 
Q 353 2575 817 3079 
Q 1281 3584 2069 3584 
Q 2775 3584 3186 3129 
Q 3597 2675 3597 1894 
z
M 3022 2063 
Q 3016 2534 2758 2815 
Q 2500 3097 2075 3097 
Q 1594 3097 1305 2825 
Q 1016 2553 972 2059 
L 3022 2063 
z
" transform="scale(0.015625)"/>
      <path id="DejaVuSans-6e" d="M 3513 2113 
L 3513 0 
L 2938 0 
L 2938 2094 
Q 2938 2591 2744 2837 
Q 2550 3084 2163 3084 
Q 1697 3084 1428 2787 
Q 1159 2491 1159 1978 
L 1159 0 
L 581 0 
L 581 3500 
L 1159 3500 
L 1159 2956 
Q 1366 3272 1645 3428 
Q 1925 3584 2291 3584 
Q 2894 3584 3203 3211 
Q 3513 2838 3513 2113 
z
" transform="scale(0.015625)"/>
      <path id="DejaVuSans-69" d="M 603 3500 
L 1178 3500 
L 1178 0 
L 603 0 
L 603 3500 
z
M 603 4863 
L 1178 4863 
L 1178 4134 
L 603 4134 
L 603 4863 
z
" transform="scale(0.015625)"/>
      <path id="DejaVuSans-67" d="M 2906 1791 
Q 2906 2416 2648 2759 
Q 2391 3103 1925 3103 
Q 1463 3103 1205 2759 
Q 947 2416 947 1791 
Q 947 1169 1205 825 
Q 1463 481 1925 481 
Q 2391 481 2648 825 
Q 2906 1169 2906 1791 
z
M 3481 434 
Q 3481 -459 3084 -895 
Q 2688 -1331 1869 -1331 
Q 1566 -1331 1297 -1286 
Q 1028 -1241 775 -1147 
L 775 -588 
Q 1028 -725 1275 -790 
Q 1522 -856 1778 -856 
Q 2344 -856 2625 -561 
Q 2906 -266 2906 331 
L 2906 616 
Q 2728 306 2450 153 
Q 2172 0 1784 0 
Q 1141 0 747 490 
Q 353 981 353 1791 
Q 353 2603 747 3093 
Q 1141 3584 1784 3584 
Q 2172 3584 2450 3431 
Q 2728 3278 2906 2969 
L 2906 3500 
L 3481 3500 
L 3481 434 
z
" transform="scale(0.015625)"/>
      <path id="DejaVuSans-20" transform="scale(0.015625)"/>
      <path id="DejaVuSans-43" d="M 4122 4306 
L 4122 3641 
Q 3803 3938 3442 4084 
Q 3081 4231 2675 4231 
Q 1875 4231 1450 3742 
Q 1025 3253 1025 2328 
Q 1025 1406 1450 917 
Q 1875 428 2675 428 
Q 3081 428 3442 575 
Q 3803 722 4122 1019 
L 4122 359 
Q 3791 134 3420 21 
Q 3050 -91 2638 -91 
Q 1578 -91 968 557 
Q 359 1206 359 2328 
Q 359 3453 968 4101 
Q 1578 4750 2638 4750 
Q 3056 4750 3426 4639 
Q 3797 4528 4122 4306 
z
" transform="scale(0.015625)"/>
      <path id="DejaVuSans-76" d="M 191 3500 
L 800 3500 
L 1894 563 
L 2988 3500 
L 3597 3500 
L 2284 0 
L 1503 0 
L 191 3500 
z
" transform="scale(0.015625)"/>
     </defs>
     <use xlink:href="#DejaVuSans-4c"/>
     <use xlink:href="#DejaVuSans-65" x="53.962891"/>
     <use xlink:href="#DejaVuSans-61" x="115.486328"/>
     <use xlink:href="#DejaVuSans-72" x="176.765625"/>
     <use xlink:href="#DejaVuSans-6e" x="216.128906"/>
     <use xlink:href="#DejaVuSans-69" x="279.507812"/>
     <use xlink:href="#DejaVuSans-6e" x="307.291016"/>
     <use xlink:href="#DejaVuSans-67" x="370.669922"/>
     <use xlink:href="#DejaVuSans-20" x="434.146484"/>
     <use xlink:href="#DejaVuSans-43" x="465.933594"/>
     <use xlink:href="#DejaVuSans-75" x="535.757812"/>
     <use xlink:href="#DejaVuSans-72" x="599.136719"/>
     <use xlink:href="#DejaVuSans-76" x="640.25"/>
     <use xlink:href="#DejaVuSans-65" x="699.429688"/>
     <use xlink:href="#DejaVuSans-73" x="760.953125"/>
    </g>
   </g>
   <g id="legend_1">
    <g id="patch_7">
     <path d="M 214.18875 302.584 
L 407.72 302.584 
Q 409.72 302.584 409.72 300.584 
L 409.72 228.193375 
Q 409.72 226.193375 407.72 226.193375 
L 214.18875 226.193375 
Q 212.18875 226.193375 212.18875 228.193375 
L 212.18875 300.584 
Q 212.18875 302.584 214.18875 302.584 
z
" style="fill: #ffffff; opacity: 0.8; stroke: #cccccc; stroke-linejoin: miter"/>
    </g>
    <g id="line2d_24">
     <path d="M 216.18875 234.291812 
L 226.18875 234.291812 
L 236.18875 234.291812 
" style="fill: none; stroke: #1f77b4; stroke-width: 1.5; stroke-linecap: square"/>
    </g>
    <g id="text_22">
     <!-- Train Accuracy -->
     <g transform="translate(244.18875 237.791812) scale(0.1 -0.1)">
      <defs>
       <path id="DejaVuSans-54" d="M -19 4666 
L 3928 4666 
L 3928 4134 
L 2272 4134 
L 2272 0 
L 1638 0 
L 1638 4134 
L -19 4134 
L -19 4666 
z
" transform="scale(0.015625)"/>
      </defs>
      <use xlink:href="#DejaVuSans-54"/>
      <use xlink:href="#DejaVuSans-72" x="46.333984"/>
      <use xlink:href="#DejaVuSans-61" x="87.447266"/>
      <use xlink:href="#DejaVuSans-69" x="148.726562"/>
      <use xlink:href="#DejaVuSans-6e" x="176.509766"/>
      <use xlink:href="#DejaVuSans-20" x="239.888672"/>
      <use xlink:href="#DejaVuSans-41" x="271.675781"/>
      <use xlink:href="#DejaVuSans-63" x="338.333984"/>
      <use xlink:href="#DejaVuSans-63" x="393.314453"/>
      <use xlink:href="#DejaVuSans-75" x="448.294922"/>
      <use xlink:href="#DejaVuSans-72" x="511.673828"/>
      <use xlink:href="#DejaVuSans-61" x="552.787109"/>
      <use xlink:href="#DejaVuSans-63" x="614.066406"/>
      <use xlink:href="#DejaVuSans-79" x="669.046875"/>
     </g>
    </g>
    <g id="line2d_25">
     <path d="M 216.18875 248.969937 
L 226.18875 248.969937 
L 236.18875 248.969937 
" style="fill: none; stroke: #ff7f0e; stroke-width: 1.5; stroke-linecap: square"/>
    </g>
    <g id="text_23">
     <!-- Validation Accuracy -->
     <g transform="translate(244.18875 252.469937) scale(0.1 -0.1)">
      <defs>
       <path id="DejaVuSans-56" d="M 1831 0 
L 50 4666 
L 709 4666 
L 2188 738 
L 3669 4666 
L 4325 4666 
L 2547 0 
L 1831 0 
z
" transform="scale(0.015625)"/>
       <path id="DejaVuSans-6c" d="M 603 4863 
L 1178 4863 
L 1178 0 
L 603 0 
L 603 4863 
z
" transform="scale(0.015625)"/>
       <path id="DejaVuSans-64" d="M 2906 2969 
L 2906 4863 
L 3481 4863 
L 3481 0 
L 2906 0 
L 2906 525 
Q 2725 213 2448 61 
Q 2172 -91 1784 -91 
Q 1150 -91 751 415 
Q 353 922 353 1747 
Q 353 2572 751 3078 
Q 1150 3584 1784 3584 
Q 2172 3584 2448 3432 
Q 2725 3281 2906 2969 
z
M 947 1747 
Q 947 1113 1208 752 
Q 1469 391 1925 391 
Q 2381 391 2643 752 
Q 2906 1113 2906 1747 
Q 2906 2381 2643 2742 
Q 2381 3103 1925 3103 
Q 1469 3103 1208 2742 
Q 947 2381 947 1747 
z
" transform="scale(0.015625)"/>
       <path id="DejaVuSans-74" d="M 1172 4494 
L 1172 3500 
L 2356 3500 
L 2356 3053 
L 1172 3053 
L 1172 1153 
Q 1172 725 1289 603 
Q 1406 481 1766 481 
L 2356 481 
L 2356 0 
L 1766 0 
Q 1100 0 847 248 
Q 594 497 594 1153 
L 594 3053 
L 172 3053 
L 172 3500 
L 594 3500 
L 594 4494 
L 1172 4494 
z
" transform="scale(0.015625)"/>
      </defs>
      <use xlink:href="#DejaVuSans-56"/>
      <use xlink:href="#DejaVuSans-61" x="60.658203"/>
      <use xlink:href="#DejaVuSans-6c" x="121.9375"/>
      <use xlink:href="#DejaVuSans-69" x="149.720703"/>
      <use xlink:href="#DejaVuSans-64" x="177.503906"/>
      <use xlink:href="#DejaVuSans-61" x="240.980469"/>
      <use xlink:href="#DejaVuSans-74" x="302.259766"/>
      <use xlink:href="#DejaVuSans-69" x="341.46875"/>
      <use xlink:href="#DejaVuSans-6f" x="369.251953"/>
      <use xlink:href="#DejaVuSans-6e" x="430.433594"/>
      <use xlink:href="#DejaVuSans-20" x="493.8125"/>
      <use xlink:href="#DejaVuSans-41" x="525.599609"/>
      <use xlink:href="#DejaVuSans-63" x="592.257812"/>
      <use xlink:href="#DejaVuSans-63" x="647.238281"/>
      <use xlink:href="#DejaVuSans-75" x="702.21875"/>
      <use xlink:href="#DejaVuSans-72" x="765.597656"/>
      <use xlink:href="#DejaVuSans-61" x="806.710938"/>
      <use xlink:href="#DejaVuSans-63" x="867.990234"/>
      <use xlink:href="#DejaVuSans-79" x="922.970703"/>
     </g>
    </g>
    <g id="line2d_26">
     <path d="M 216.18875 263.648062 
L 226.18875 263.648062 
L 236.18875 263.648062 
" style="fill: none; stroke: #2ca02c; stroke-width: 1.5; stroke-linecap: square"/>
    </g>
    <g id="text_24">
     <!-- Robust Validation Accuracy -->
     <g transform="translate(244.18875 267.148062) scale(0.1 -0.1)">
      <defs>
       <path id="DejaVuSans-52" d="M 2841 2188 
Q 3044 2119 3236 1894 
Q 3428 1669 3622 1275 
L 4263 0 
L 3584 0 
L 2988 1197 
Q 2756 1666 2539 1819 
Q 2322 1972 1947 1972 
L 1259 1972 
L 1259 0 
L 628 0 
L 628 4666 
L 2053 4666 
Q 2853 4666 3247 4331 
Q 3641 3997 3641 3322 
Q 3641 2881 3436 2590 
Q 3231 2300 2841 2188 
z
M 1259 4147 
L 1259 2491 
L 2053 2491 
Q 2509 2491 2742 2702 
Q 2975 2913 2975 3322 
Q 2975 3731 2742 3939 
Q 2509 4147 2053 4147 
L 1259 4147 
z
" transform="scale(0.015625)"/>
       <path id="DejaVuSans-62" d="M 3116 1747 
Q 3116 2381 2855 2742 
Q 2594 3103 2138 3103 
Q 1681 3103 1420 2742 
Q 1159 2381 1159 1747 
Q 1159 1113 1420 752 
Q 1681 391 2138 391 
Q 2594 391 2855 752 
Q 3116 1113 3116 1747 
z
M 1159 2969 
Q 1341 3281 1617 3432 
Q 1894 3584 2278 3584 
Q 2916 3584 3314 3078 
Q 3713 2572 3713 1747 
Q 3713 922 3314 415 
Q 2916 -91 2278 -91 
Q 1894 -91 1617 61 
Q 1341 213 1159 525 
L 1159 0 
L 581 0 
L 581 4863 
L 1159 4863 
L 1159 2969 
z
" transform="scale(0.015625)"/>
      </defs>
      <use xlink:href="#DejaVuSans-52"/>
      <use xlink:href="#DejaVuSans-6f" x="64.982422"/>
      <use xlink:href="#DejaVuSans-62" x="126.164062"/>
      <use xlink:href="#DejaVuSans-75" x="189.640625"/>
      <use xlink:href="#DejaVuSans-73" x="253.019531"/>
      <use xlink:href="#DejaVuSans-74" x="305.119141"/>
      <use xlink:href="#DejaVuSans-20" x="344.328125"/>
      <use xlink:href="#DejaVuSans-56" x="376.115234"/>
      <use xlink:href="#DejaVuSans-61" x="436.773438"/>
      <use xlink:href="#DejaVuSans-6c" x="498.052734"/>
      <use xlink:href="#DejaVuSans-69" x="525.835938"/>
      <use xlink:href="#DejaVuSans-64" x="553.619141"/>
      <use xlink:href="#DejaVuSans-61" x="617.095703"/>
      <use xlink:href="#DejaVuSans-74" x="678.375"/>
      <use xlink:href="#DejaVuSans-69" x="717.583984"/>
      <use xlink:href="#DejaVuSans-6f" x="745.367188"/>
      <use xlink:href="#DejaVuSans-6e" x="806.548828"/>
      <use xlink:href="#DejaVuSans-20" x="869.927734"/>
      <use xlink:href="#DejaVuSans-41" x="901.714844"/>
      <use xlink:href="#DejaVuSans-63" x="968.373047"/>
      <use xlink:href="#DejaVuSans-63" x="1023.353516"/>
      <use xlink:href="#DejaVuSans-75" x="1078.333984"/>
      <use xlink:href="#DejaVuSans-72" x="1141.712891"/>
      <use xlink:href="#DejaVuSans-61" x="1182.826172"/>
      <use xlink:href="#DejaVuSans-63" x="1244.105469"/>
      <use xlink:href="#DejaVuSans-79" x="1299.085938"/>
     </g>
    </g>
    <g id="line2d_27">
     <path d="M 216.18875 278.326188 
L 226.18875 278.326188 
L 236.18875 278.326188 
" style="fill: none; stroke: #d62728; stroke-width: 1.5; stroke-linecap: square"/>
    </g>
    <g id="text_25">
     <!-- SWA Validation Accuracy -->
     <g transform="translate(244.18875 281.826188) scale(0.1 -0.1)">
      <defs>
       <path id="DejaVuSans-53" d="M 3425 4513 
L 3425 3897 
Q 3066 4069 2747 4153 
Q 2428 4238 2131 4238 
Q 1616 4238 1336 4038 
Q 1056 3838 1056 3469 
Q 1056 3159 1242 3001 
Q 1428 2844 1947 2747 
L 2328 2669 
Q 3034 2534 3370 2195 
Q 3706 1856 3706 1288 
Q 3706 609 3251 259 
Q 2797 -91 1919 -91 
Q 1588 -91 1214 -16 
Q 841 59 441 206 
L 441 856 
Q 825 641 1194 531 
Q 1563 422 1919 422 
Q 2459 422 2753 634 
Q 3047 847 3047 1241 
Q 3047 1584 2836 1778 
Q 2625 1972 2144 2069 
L 1759 2144 
Q 1053 2284 737 2584 
Q 422 2884 422 3419 
Q 422 4038 858 4394 
Q 1294 4750 2059 4750 
Q 2388 4750 2728 4690 
Q 3069 4631 3425 4513 
z
" transform="scale(0.015625)"/>
       <path id="DejaVuSans-57" d="M 213 4666 
L 850 4666 
L 1831 722 
L 2809 4666 
L 3519 4666 
L 4500 722 
L 5478 4666 
L 6119 4666 
L 4947 0 
L 4153 0 
L 3169 4050 
L 2175 0 
L 1381 0 
L 213 4666 
z
" transform="scale(0.015625)"/>
      </defs>
      <use xlink:href="#DejaVuSans-53"/>
      <use xlink:href="#DejaVuSans-57" x="63.476562"/>
      <use xlink:href="#DejaVuSans-41" x="156.853516"/>
      <use xlink:href="#DejaVuSans-20" x="225.261719"/>
      <use xlink:href="#DejaVuSans-56" x="257.048828"/>
      <use xlink:href="#DejaVuSans-61" x="317.707031"/>
      <use xlink:href="#DejaVuSans-6c" x="378.986328"/>
      <use xlink:href="#DejaVuSans-69" x="406.769531"/>
      <use xlink:href="#DejaVuSans-64" x="434.552734"/>
      <use xlink:href="#DejaVuSans-61" x="498.029297"/>
      <use xlink:href="#DejaVuSans-74" x="559.308594"/>
      <use xlink:href="#DejaVuSans-69" x="598.517578"/>
      <use xlink:href="#DejaVuSans-6f" x="626.300781"/>
      <use xlink:href="#DejaVuSans-6e" x="687.482422"/>
      <use xlink:href="#DejaVuSans-20" x="750.861328"/>
      <use xlink:href="#DejaVuSans-41" x="782.648438"/>
      <use xlink:href="#DejaVuSans-63" x="849.306641"/>
      <use xlink:href="#DejaVuSans-63" x="904.287109"/>
      <use xlink:href="#DejaVuSans-75" x="959.267578"/>
      <use xlink:href="#DejaVuSans-72" x="1022.646484"/>
      <use xlink:href="#DejaVuSans-61" x="1063.759766"/>
      <use xlink:href="#DejaVuSans-63" x="1125.039062"/>
      <use xlink:href="#DejaVuSans-79" x="1180.019531"/>
     </g>
    </g>
    <g id="line2d_28">
     <path d="M 216.18875 293.004312 
L 226.18875 293.004312 
L 236.18875 293.004312 
" style="fill: none; stroke: #9467bd; stroke-width: 1.5; stroke-linecap: square"/>
    </g>
    <g id="text_26">
     <!-- SWA Robust Validation Accuracy -->
     <g transform="translate(244.18875 296.504312) scale(0.1 -0.1)">
      <use xlink:href="#DejaVuSans-53"/>
      <use xlink:href="#DejaVuSans-57" x="63.476562"/>
      <use xlink:href="#DejaVuSans-41" x="156.853516"/>
      <use xlink:href="#DejaVuSans-20" x="225.261719"/>
      <use xlink:href="#DejaVuSans-52" x="257.048828"/>
      <use xlink:href="#DejaVuSans-6f" x="322.03125"/>
      <use xlink:href="#DejaVuSans-62" x="383.212891"/>
      <use xlink:href="#DejaVuSans-75" x="446.689453"/>
      <use xlink:href="#DejaVuSans-73" x="510.068359"/>
      <use xlink:href="#DejaVuSans-74" x="562.167969"/>
      <use xlink:href="#DejaVuSans-20" x="601.376953"/>
      <use xlink:href="#DejaVuSans-56" x="633.164062"/>
      <use xlink:href="#DejaVuSans-61" x="693.822266"/>
      <use xlink:href="#DejaVuSans-6c" x="755.101562"/>
      <use xlink:href="#DejaVuSans-69" x="782.884766"/>
      <use xlink:href="#DejaVuSans-64" x="810.667969"/>
      <use xlink:href="#DejaVuSans-61" x="874.144531"/>
      <use xlink:href="#DejaVuSans-74" x="935.423828"/>
      <use xlink:href="#DejaVuSans-69" x="974.632812"/>
      <use xlink:href="#DejaVuSans-6f" x="1002.416016"/>
      <use xlink:href="#DejaVuSans-6e" x="1063.597656"/>
      <use xlink:href="#DejaVuSans-20" x="1126.976562"/>
      <use xlink:href="#DejaVuSans-41" x="1158.763672"/>
      <use xlink:href="#DejaVuSans-63" x="1225.421875"/>
      <use xlink:href="#DejaVuSans-63" x="1280.402344"/>
      <use xlink:href="#DejaVuSans-75" x="1335.382812"/>
      <use xlink:href="#DejaVuSans-72" x="1398.761719"/>
      <use xlink:href="#DejaVuSans-61" x="1439.875"/>
      <use xlink:href="#DejaVuSans-63" x="1501.154297"/>
      <use xlink:href="#DejaVuSans-79" x="1556.134766"/>
     </g>
    </g>
   </g>
  </g>
 </g>
 <defs>
  <clipPath id="pd1c9f03749">
   <rect x="57.6" y="41.472" width="357.12" height="266.112"/>
  </clipPath>
 </defs>
</svg>
