<?xml version="1.0" encoding="utf-8" standalone="no"?>
<!DOCTYPE svg PUBLIC "-//W3C//DTD SVG 1.1//EN"
  "http://www.w3.org/Graphics/SVG/1.1/DTD/svg11.dtd">
<svg xmlns:xlink="http://www.w3.org/1999/xlink" width="460.8pt" height="345.6pt" viewBox="0 0 460.8 345.6" xmlns="http://www.w3.org/2000/svg" version="1.1">
 <metadata>
  <rdf:RDF xmlns:dc="http://purl.org/dc/elements/1.1/" xmlns:cc="http://creativecommons.org/ns#" xmlns:rdf="http://www.w3.org/1999/02/22-rdf-syntax-ns#">
   <cc:Work>
    <dc:type rdf:resource="http://purl.org/dc/dcmitype/StillImage"/>
    <dc:date>2025-07-17T02:49:58.239039</dc:date>
    <dc:format>image/svg+xml</dc:format>
    <dc:creator>
     <cc:Agent>
      <dc:title>Matplotlib v3.9.1, https://matplotlib.org/</dc:title>
     </cc:Agent>
    </dc:creator>
   </cc:Work>
  </rdf:RDF>
 </metadata>
 <defs>
  <style type="text/css">*{stroke-linejoin: round; stroke-linecap: butt}</style>
 </defs>
 <g id="figure_1">
  <g id="patch_1">
   <path d="M 0 345.6 
L 460.8 345.6 
L 460.8 0 
L 0 0 
z
" style="fill: #ffffff"/>
  </g>
  <g id="axes_1">
   <g id="patch_2">
    <path d="M 57.6 307.584 
L 414.72 307.584 
L 414.72 41.472 
L 57.6 41.472 
z
" style="fill: #ffffff"/>
   </g>
   <g id="matplotlib.axis_1">
    <g id="xtick_1">
     <g id="line2d_1">
      <defs>
       <path id="madc32aaae4" d="M 0 0 
L 0 3.5 
" style="stroke: #000000; stroke-width: 0.8"/>
      </defs>
      <g>
       <use xlink:href="#madc32aaae4" x="73.832727" y="307.584" style="stroke: #000000; stroke-width: 0.8"/>
      </g>
     </g>
     <g id="text_1">
      <!-- 1 -->
      <g transform="translate(70.651477 322.182437) scale(0.1 -0.1)">
       <defs>
        <path id="DejaVuSans-31" d="M 794 531 
L 1825 531 
L 1825 4091 
L 703 3866 
L 703 4441 
L 1819 4666 
L 2450 4666 
L 2450 531 
L 3481 531 
L 3481 0 
L 794 0 
L 794 531 
z
" transform="scale(0.015625)"/>
       </defs>
       <use xlink:href="#DejaVuSans-31"/>
      </g>
     </g>
    </g>
    <g id="xtick_2">
     <g id="line2d_2">
      <g>
       <use xlink:href="#madc32aaae4" x="109.664165" y="307.584" style="stroke: #000000; stroke-width: 0.8"/>
      </g>
     </g>
     <g id="text_2">
      <!-- 34 -->
      <g transform="translate(103.301665 322.182437) scale(0.1 -0.1)">
       <defs>
        <path id="DejaVuSans-33" d="M 2597 2516 
Q 3050 2419 3304 2112 
Q 3559 1806 3559 1356 
Q 3559 666 3084 287 
Q 2609 -91 1734 -91 
Q 1441 -91 1130 -33 
Q 819 25 488 141 
L 488 750 
Q 750 597 1062 519 
Q 1375 441 1716 441 
Q 2309 441 2620 675 
Q 2931 909 2931 1356 
Q 2931 1769 2642 2001 
Q 2353 2234 1838 2234 
L 1294 2234 
L 1294 2753 
L 1863 2753 
Q 2328 2753 2575 2939 
Q 2822 3125 2822 3475 
Q 2822 3834 2567 4026 
Q 2313 4219 1838 4219 
Q 1578 4219 1281 4162 
Q 984 4106 628 3988 
L 628 4550 
Q 988 4650 1302 4700 
Q 1616 4750 1894 4750 
Q 2613 4750 3031 4423 
Q 3450 4097 3450 3541 
Q 3450 3153 3228 2886 
Q 3006 2619 2597 2516 
z
" transform="scale(0.015625)"/>
        <path id="DejaVuSans-34" d="M 2419 4116 
L 825 1625 
L 2419 1625 
L 2419 4116 
z
M 2253 4666 
L 3047 4666 
L 3047 1625 
L 3713 1625 
L 3713 1100 
L 3047 1100 
L 3047 0 
L 2419 0 
L 2419 1100 
L 313 1100 
L 313 1709 
L 2253 4666 
z
" transform="scale(0.015625)"/>
       </defs>
       <use xlink:href="#DejaVuSans-33"/>
       <use xlink:href="#DejaVuSans-34" x="63.623047"/>
      </g>
     </g>
    </g>
    <g id="xtick_3">
     <g id="line2d_3">
      <g>
       <use xlink:href="#madc32aaae4" x="145.495604" y="307.584" style="stroke: #000000; stroke-width: 0.8"/>
      </g>
     </g>
     <g id="text_3">
      <!-- 67 -->
      <g transform="translate(139.133104 322.182437) scale(0.1 -0.1)">
       <defs>
        <path id="DejaVuSans-36" d="M 2113 2584 
Q 1688 2584 1439 2293 
Q 1191 2003 1191 1497 
Q 1191 994 1439 701 
Q 1688 409 2113 409 
Q 2538 409 2786 701 
Q 3034 994 3034 1497 
Q 3034 2003 2786 2293 
Q 2538 2584 2113 2584 
z
M 3366 4563 
L 3366 3988 
Q 3128 4100 2886 4159 
Q 2644 4219 2406 4219 
Q 1781 4219 1451 3797 
Q 1122 3375 1075 2522 
Q 1259 2794 1537 2939 
Q 1816 3084 2150 3084 
Q 2853 3084 3261 2657 
Q 3669 2231 3669 1497 
Q 3669 778 3244 343 
Q 2819 -91 2113 -91 
Q 1303 -91 875 529 
Q 447 1150 447 2328 
Q 447 3434 972 4092 
Q 1497 4750 2381 4750 
Q 2619 4750 2861 4703 
Q 3103 4656 3366 4563 
z
" transform="scale(0.015625)"/>
        <path id="DejaVuSans-37" d="M 525 4666 
L 3525 4666 
L 3525 4397 
L 1831 0 
L 1172 0 
L 2766 4134 
L 525 4134 
L 525 4666 
z
" transform="scale(0.015625)"/>
       </defs>
       <use xlink:href="#DejaVuSans-36"/>
       <use xlink:href="#DejaVuSans-37" x="63.623047"/>
      </g>
     </g>
    </g>
    <g id="xtick_4">
     <g id="line2d_4">
      <g>
       <use xlink:href="#madc32aaae4" x="181.327042" y="307.584" style="stroke: #000000; stroke-width: 0.8"/>
      </g>
     </g>
     <g id="text_4">
      <!-- 100 -->
      <g transform="translate(171.783292 322.182437) scale(0.1 -0.1)">
       <defs>
        <path id="DejaVuSans-30" d="M 2034 4250 
Q 1547 4250 1301 3770 
Q 1056 3291 1056 2328 
Q 1056 1369 1301 889 
Q 1547 409 2034 409 
Q 2525 409 2770 889 
Q 3016 1369 3016 2328 
Q 3016 3291 2770 3770 
Q 2525 4250 2034 4250 
z
M 2034 4750 
Q 2819 4750 3233 4129 
Q 3647 3509 3647 2328 
Q 3647 1150 3233 529 
Q 2819 -91 2034 -91 
Q 1250 -91 836 529 
Q 422 1150 422 2328 
Q 422 3509 836 4129 
Q 1250 4750 2034 4750 
z
" transform="scale(0.015625)"/>
       </defs>
       <use xlink:href="#DejaVuSans-31"/>
       <use xlink:href="#DejaVuSans-30" x="63.623047"/>
       <use xlink:href="#DejaVuSans-30" x="127.246094"/>
      </g>
     </g>
    </g>
    <g id="xtick_5">
     <g id="line2d_5">
      <g>
       <use xlink:href="#madc32aaae4" x="217.15848" y="307.584" style="stroke: #000000; stroke-width: 0.8"/>
      </g>
     </g>
     <g id="text_5">
      <!-- 133 -->
      <g transform="translate(207.61473 322.182437) scale(0.1 -0.1)">
       <use xlink:href="#DejaVuSans-31"/>
       <use xlink:href="#DejaVuSans-33" x="63.623047"/>
       <use xlink:href="#DejaVuSans-33" x="127.246094"/>
      </g>
     </g>
    </g>
    <g id="xtick_6">
     <g id="line2d_6">
      <g>
       <use xlink:href="#madc32aaae4" x="254.075719" y="307.584" style="stroke: #000000; stroke-width: 0.8"/>
      </g>
     </g>
     <g id="text_6">
      <!-- 167 -->
      <g transform="translate(244.531969 322.182437) scale(0.1 -0.1)">
       <use xlink:href="#DejaVuSans-31"/>
       <use xlink:href="#DejaVuSans-36" x="63.623047"/>
       <use xlink:href="#DejaVuSans-37" x="127.246094"/>
      </g>
     </g>
    </g>
    <g id="xtick_7">
     <g id="line2d_7">
      <g>
       <use xlink:href="#madc32aaae4" x="289.907157" y="307.584" style="stroke: #000000; stroke-width: 0.8"/>
      </g>
     </g>
     <g id="text_7">
      <!-- 200 -->
      <g transform="translate(280.363407 322.182437) scale(0.1 -0.1)">
       <defs>
        <path id="DejaVuSans-32" d="M 1228 531 
L 3431 531 
L 3431 0 
L 469 0 
L 469 531 
Q 828 903 1448 1529 
Q 2069 2156 2228 2338 
Q 2531 2678 2651 2914 
Q 2772 3150 2772 3378 
Q 2772 3750 2511 3984 
Q 2250 4219 1831 4219 
Q 1534 4219 1204 4116 
Q 875 4013 500 3803 
L 500 4441 
Q 881 4594 1212 4672 
Q 1544 4750 1819 4750 
Q 2544 4750 2975 4387 
Q 3406 4025 3406 3419 
Q 3406 3131 3298 2873 
Q 3191 2616 2906 2266 
Q 2828 2175 2409 1742 
Q 1991 1309 1228 531 
z
" transform="scale(0.015625)"/>
       </defs>
       <use xlink:href="#DejaVuSans-32"/>
       <use xlink:href="#DejaVuSans-30" x="63.623047"/>
       <use xlink:href="#DejaVuSans-30" x="127.246094"/>
      </g>
     </g>
    </g>
    <g id="xtick_8">
     <g id="line2d_8">
      <g>
       <use xlink:href="#madc32aaae4" x="325.738595" y="307.584" style="stroke: #000000; stroke-width: 0.8"/>
      </g>
     </g>
     <g id="text_8">
      <!-- 233 -->
      <g transform="translate(316.194845 322.182437) scale(0.1 -0.1)">
       <use xlink:href="#DejaVuSans-32"/>
       <use xlink:href="#DejaVuSans-33" x="63.623047"/>
       <use xlink:href="#DejaVuSans-33" x="127.246094"/>
      </g>
     </g>
    </g>
    <g id="xtick_9">
     <g id="line2d_9">
      <g>
       <use xlink:href="#madc32aaae4" x="361.570033" y="307.584" style="stroke: #000000; stroke-width: 0.8"/>
      </g>
     </g>
     <g id="text_9">
      <!-- 266 -->
      <g transform="translate(352.026283 322.182437) scale(0.1 -0.1)">
       <use xlink:href="#DejaVuSans-32"/>
       <use xlink:href="#DejaVuSans-36" x="63.623047"/>
       <use xlink:href="#DejaVuSans-36" x="127.246094"/>
      </g>
     </g>
    </g>
    <g id="xtick_10">
     <g id="line2d_10">
      <g>
       <use xlink:href="#madc32aaae4" x="398.487273" y="307.584" style="stroke: #000000; stroke-width: 0.8"/>
      </g>
     </g>
     <g id="text_10">
      <!-- 300 -->
      <g transform="translate(388.943523 322.182437) scale(0.1 -0.1)">
       <use xlink:href="#DejaVuSans-33"/>
       <use xlink:href="#DejaVuSans-30" x="63.623047"/>
       <use xlink:href="#DejaVuSans-30" x="127.246094"/>
      </g>
     </g>
    </g>
    <g id="text_11">
     <!-- Epochs -->
     <g transform="translate(218.244375 335.860562) scale(0.1 -0.1)">
      <defs>
       <path id="DejaVuSans-45" d="M 628 4666 
L 3578 4666 
L 3578 4134 
L 1259 4134 
L 1259 2753 
L 3481 2753 
L 3481 2222 
L 1259 2222 
L 1259 531 
L 3634 531 
L 3634 0 
L 628 0 
L 628 4666 
z
" transform="scale(0.015625)"/>
       <path id="DejaVuSans-70" d="M 1159 525 
L 1159 -1331 
L 581 -1331 
L 581 3500 
L 1159 3500 
L 1159 2969 
Q 1341 3281 1617 3432 
Q 1894 3584 2278 3584 
Q 2916 3584 3314 3078 
Q 3713 2572 3713 1747 
Q 3713 922 3314 415 
Q 2916 -91 2278 -91 
Q 1894 -91 1617 61 
Q 1341 213 1159 525 
z
M 3116 1747 
Q 3116 2381 2855 2742 
Q 2594 3103 2138 3103 
Q 1681 3103 1420 2742 
Q 1159 2381 1159 1747 
Q 1159 1113 1420 752 
Q 1681 391 2138 391 
Q 2594 391 2855 752 
Q 3116 1113 3116 1747 
z
" transform="scale(0.015625)"/>
       <path id="DejaVuSans-6f" d="M 1959 3097 
Q 1497 3097 1228 2736 
Q 959 2375 959 1747 
Q 959 1119 1226 758 
Q 1494 397 1959 397 
Q 2419 397 2687 759 
Q 2956 1122 2956 1747 
Q 2956 2369 2687 2733 
Q 2419 3097 1959 3097 
z
M 1959 3584 
Q 2709 3584 3137 3096 
Q 3566 2609 3566 1747 
Q 3566 888 3137 398 
Q 2709 -91 1959 -91 
Q 1206 -91 779 398 
Q 353 888 353 1747 
Q 353 2609 779 3096 
Q 1206 3584 1959 3584 
z
" transform="scale(0.015625)"/>
       <path id="DejaVuSans-63" d="M 3122 3366 
L 3122 2828 
Q 2878 2963 2633 3030 
Q 2388 3097 2138 3097 
Q 1578 3097 1268 2742 
Q 959 2388 959 1747 
Q 959 1106 1268 751 
Q 1578 397 2138 397 
Q 2388 397 2633 464 
Q 2878 531 3122 666 
L 3122 134 
Q 2881 22 2623 -34 
Q 2366 -91 2075 -91 
Q 1284 -91 818 406 
Q 353 903 353 1747 
Q 353 2603 823 3093 
Q 1294 3584 2113 3584 
Q 2378 3584 2631 3529 
Q 2884 3475 3122 3366 
z
" transform="scale(0.015625)"/>
       <path id="DejaVuSans-68" d="M 3513 2113 
L 3513 0 
L 2938 0 
L 2938 2094 
Q 2938 2591 2744 2837 
Q 2550 3084 2163 3084 
Q 1697 3084 1428 2787 
Q 1159 2491 1159 1978 
L 1159 0 
L 581 0 
L 581 4863 
L 1159 4863 
L 1159 2956 
Q 1366 3272 1645 3428 
Q 1925 3584 2291 3584 
Q 2894 3584 3203 3211 
Q 3513 2838 3513 2113 
z
" transform="scale(0.015625)"/>
       <path id="DejaVuSans-73" d="M 2834 3397 
L 2834 2853 
Q 2591 2978 2328 3040 
Q 2066 3103 1784 3103 
Q 1356 3103 1142 2972 
Q 928 2841 928 2578 
Q 928 2378 1081 2264 
Q 1234 2150 1697 2047 
L 1894 2003 
Q 2506 1872 2764 1633 
Q 3022 1394 3022 966 
Q 3022 478 2636 193 
Q 2250 -91 1575 -91 
Q 1294 -91 989 -36 
Q 684 19 347 128 
L 347 722 
Q 666 556 975 473 
Q 1284 391 1588 391 
Q 1994 391 2212 530 
Q 2431 669 2431 922 
Q 2431 1156 2273 1281 
Q 2116 1406 1581 1522 
L 1381 1569 
Q 847 1681 609 1914 
Q 372 2147 372 2553 
Q 372 3047 722 3315 
Q 1072 3584 1716 3584 
Q 2034 3584 2315 3537 
Q 2597 3491 2834 3397 
z
" transform="scale(0.015625)"/>
      </defs>
      <use xlink:href="#DejaVuSans-45"/>
      <use xlink:href="#DejaVuSans-70" x="63.183594"/>
      <use xlink:href="#DejaVuSans-6f" x="126.660156"/>
      <use xlink:href="#DejaVuSans-63" x="187.841797"/>
      <use xlink:href="#DejaVuSans-68" x="242.822266"/>
      <use xlink:href="#DejaVuSans-73" x="306.201172"/>
     </g>
    </g>
   </g>
   <g id="matplotlib.axis_2">
    <g id="ytick_1">
     <g id="line2d_11">
      <defs>
       <path id="m80361cd597" d="M 0 0 
L -3.5 0 
" style="stroke: #000000; stroke-width: 0.8"/>
      </defs>
      <g>
       <use xlink:href="#m80361cd597" x="57.6" y="292.217956" style="stroke: #000000; stroke-width: 0.8"/>
      </g>
     </g>
     <g id="text_12">
      <!-- 40 -->
      <g transform="translate(37.875 296.017174) scale(0.1 -0.1)">
       <use xlink:href="#DejaVuSans-34"/>
       <use xlink:href="#DejaVuSans-30" x="63.623047"/>
      </g>
     </g>
    </g>
    <g id="ytick_2">
     <g id="line2d_12">
      <g>
       <use xlink:href="#m80361cd597" x="57.6" y="250.023833" style="stroke: #000000; stroke-width: 0.8"/>
      </g>
     </g>
     <g id="text_13">
      <!-- 50 -->
      <g transform="translate(37.875 253.823052) scale(0.1 -0.1)">
       <defs>
        <path id="DejaVuSans-35" d="M 691 4666 
L 3169 4666 
L 3169 4134 
L 1269 4134 
L 1269 2991 
Q 1406 3038 1543 3061 
Q 1681 3084 1819 3084 
Q 2600 3084 3056 2656 
Q 3513 2228 3513 1497 
Q 3513 744 3044 326 
Q 2575 -91 1722 -91 
Q 1428 -91 1123 -41 
Q 819 9 494 109 
L 494 744 
Q 775 591 1075 516 
Q 1375 441 1709 441 
Q 2250 441 2565 725 
Q 2881 1009 2881 1497 
Q 2881 1984 2565 2268 
Q 2250 2553 1709 2553 
Q 1456 2553 1204 2497 
Q 953 2441 691 2322 
L 691 4666 
z
" transform="scale(0.015625)"/>
       </defs>
       <use xlink:href="#DejaVuSans-35"/>
       <use xlink:href="#DejaVuSans-30" x="63.623047"/>
      </g>
     </g>
    </g>
    <g id="ytick_3">
     <g id="line2d_13">
      <g>
       <use xlink:href="#m80361cd597" x="57.6" y="207.829711" style="stroke: #000000; stroke-width: 0.8"/>
      </g>
     </g>
     <g id="text_14">
      <!-- 60 -->
      <g transform="translate(37.875 211.62893) scale(0.1 -0.1)">
       <use xlink:href="#DejaVuSans-36"/>
       <use xlink:href="#DejaVuSans-30" x="63.623047"/>
      </g>
     </g>
    </g>
    <g id="ytick_4">
     <g id="line2d_14">
      <g>
       <use xlink:href="#m80361cd597" x="57.6" y="165.635589" style="stroke: #000000; stroke-width: 0.8"/>
      </g>
     </g>
     <g id="text_15">
      <!-- 70 -->
      <g transform="translate(37.875 169.434807) scale(0.1 -0.1)">
       <use xlink:href="#DejaVuSans-37"/>
       <use xlink:href="#DejaVuSans-30" x="63.623047"/>
      </g>
     </g>
    </g>
    <g id="ytick_5">
     <g id="line2d_15">
      <g>
       <use xlink:href="#m80361cd597" x="57.6" y="123.441466" style="stroke: #000000; stroke-width: 0.8"/>
      </g>
     </g>
     <g id="text_16">
      <!-- 80 -->
      <g transform="translate(37.875 127.240685) scale(0.1 -0.1)">
       <defs>
        <path id="DejaVuSans-38" d="M 2034 2216 
Q 1584 2216 1326 1975 
Q 1069 1734 1069 1313 
Q 1069 891 1326 650 
Q 1584 409 2034 409 
Q 2484 409 2743 651 
Q 3003 894 3003 1313 
Q 3003 1734 2745 1975 
Q 2488 2216 2034 2216 
z
M 1403 2484 
Q 997 2584 770 2862 
Q 544 3141 544 3541 
Q 544 4100 942 4425 
Q 1341 4750 2034 4750 
Q 2731 4750 3128 4425 
Q 3525 4100 3525 3541 
Q 3525 3141 3298 2862 
Q 3072 2584 2669 2484 
Q 3125 2378 3379 2068 
Q 3634 1759 3634 1313 
Q 3634 634 3220 271 
Q 2806 -91 2034 -91 
Q 1263 -91 848 271 
Q 434 634 434 1313 
Q 434 1759 690 2068 
Q 947 2378 1403 2484 
z
M 1172 3481 
Q 1172 3119 1398 2916 
Q 1625 2713 2034 2713 
Q 2441 2713 2670 2916 
Q 2900 3119 2900 3481 
Q 2900 3844 2670 4047 
Q 2441 4250 2034 4250 
Q 1625 4250 1398 4047 
Q 1172 3844 1172 3481 
z
" transform="scale(0.015625)"/>
       </defs>
       <use xlink:href="#DejaVuSans-38"/>
       <use xlink:href="#DejaVuSans-30" x="63.623047"/>
      </g>
     </g>
    </g>
    <g id="ytick_6">
     <g id="line2d_16">
      <g>
       <use xlink:href="#m80361cd597" x="57.6" y="81.247344" style="stroke: #000000; stroke-width: 0.8"/>
      </g>
     </g>
     <g id="text_17">
      <!-- 90 -->
      <g transform="translate(37.875 85.046563) scale(0.1 -0.1)">
       <defs>
        <path id="DejaVuSans-39" d="M 703 97 
L 703 672 
Q 941 559 1184 500 
Q 1428 441 1663 441 
Q 2288 441 2617 861 
Q 2947 1281 2994 2138 
Q 2813 1869 2534 1725 
Q 2256 1581 1919 1581 
Q 1219 1581 811 2004 
Q 403 2428 403 3163 
Q 403 3881 828 4315 
Q 1253 4750 1959 4750 
Q 2769 4750 3195 4129 
Q 3622 3509 3622 2328 
Q 3622 1225 3098 567 
Q 2575 -91 1691 -91 
Q 1453 -91 1209 -44 
Q 966 3 703 97 
z
M 1959 2075 
Q 2384 2075 2632 2365 
Q 2881 2656 2881 3163 
Q 2881 3666 2632 3958 
Q 2384 4250 1959 4250 
Q 1534 4250 1286 3958 
Q 1038 3666 1038 3163 
Q 1038 2656 1286 2365 
Q 1534 2075 1959 2075 
z
" transform="scale(0.015625)"/>
       </defs>
       <use xlink:href="#DejaVuSans-39"/>
       <use xlink:href="#DejaVuSans-30" x="63.623047"/>
      </g>
     </g>
    </g>
    <g id="text_18">
     <!-- Accuracy -->
     <g transform="translate(31.795312 197.356125) rotate(-90) scale(0.1 -0.1)">
      <defs>
       <path id="DejaVuSans-41" d="M 2188 4044 
L 1331 1722 
L 3047 1722 
L 2188 4044 
z
M 1831 4666 
L 2547 4666 
L 4325 0 
L 3669 0 
L 3244 1197 
L 1141 1197 
L 716 0 
L 50 0 
L 1831 4666 
z
" transform="scale(0.015625)"/>
       <path id="DejaVuSans-75" d="M 544 1381 
L 544 3500 
L 1119 3500 
L 1119 1403 
Q 1119 906 1312 657 
Q 1506 409 1894 409 
Q 2359 409 2629 706 
Q 2900 1003 2900 1516 
L 2900 3500 
L 3475 3500 
L 3475 0 
L 2900 0 
L 2900 538 
Q 2691 219 2414 64 
Q 2138 -91 1772 -91 
Q 1169 -91 856 284 
Q 544 659 544 1381 
z
M 1991 3584 
L 1991 3584 
z
" transform="scale(0.015625)"/>
       <path id="DejaVuSans-72" d="M 2631 2963 
Q 2534 3019 2420 3045 
Q 2306 3072 2169 3072 
Q 1681 3072 1420 2755 
Q 1159 2438 1159 1844 
L 1159 0 
L 581 0 
L 581 3500 
L 1159 3500 
L 1159 2956 
Q 1341 3275 1631 3429 
Q 1922 3584 2338 3584 
Q 2397 3584 2469 3576 
Q 2541 3569 2628 3553 
L 2631 2963 
z
" transform="scale(0.015625)"/>
       <path id="DejaVuSans-61" d="M 2194 1759 
Q 1497 1759 1228 1600 
Q 959 1441 959 1056 
Q 959 750 1161 570 
Q 1363 391 1709 391 
Q 2188 391 2477 730 
Q 2766 1069 2766 1631 
L 2766 1759 
L 2194 1759 
z
M 3341 1997 
L 3341 0 
L 2766 0 
L 2766 531 
Q 2569 213 2275 61 
Q 1981 -91 1556 -91 
Q 1019 -91 701 211 
Q 384 513 384 1019 
Q 384 1609 779 1909 
Q 1175 2209 1959 2209 
L 2766 2209 
L 2766 2266 
Q 2766 2663 2505 2880 
Q 2244 3097 1772 3097 
Q 1472 3097 1187 3025 
Q 903 2953 641 2809 
L 641 3341 
Q 956 3463 1253 3523 
Q 1550 3584 1831 3584 
Q 2591 3584 2966 3190 
Q 3341 2797 3341 1997 
z
" transform="scale(0.015625)"/>
       <path id="DejaVuSans-79" d="M 2059 -325 
Q 1816 -950 1584 -1140 
Q 1353 -1331 966 -1331 
L 506 -1331 
L 506 -850 
L 844 -850 
Q 1081 -850 1212 -737 
Q 1344 -625 1503 -206 
L 1606 56 
L 191 3500 
L 800 3500 
L 1894 763 
L 2988 3500 
L 3597 3500 
L 2059 -325 
z
" transform="scale(0.015625)"/>
      </defs>
      <use xlink:href="#DejaVuSans-41"/>
      <use xlink:href="#DejaVuSans-63" x="66.658203"/>
      <use xlink:href="#DejaVuSans-63" x="121.638672"/>
      <use xlink:href="#DejaVuSans-75" x="176.619141"/>
      <use xlink:href="#DejaVuSans-72" x="239.998047"/>
      <use xlink:href="#DejaVuSans-61" x="281.111328"/>
      <use xlink:href="#DejaVuSans-63" x="342.390625"/>
      <use xlink:href="#DejaVuSans-79" x="397.371094"/>
     </g>
    </g>
   </g>
   <g id="line2d_17">
    <path d="M 73.832727 295.488 
L 74.918528 206.187656 
L 76.00433 169.088474 
L 77.090131 150.772709 
L 78.175932 140.632055 
L 79.261733 131.799419 
L 80.347534 126.542734 
L 81.433335 122.063125 
L 82.519137 118.0582 
L 84.690739 109.376759 
L 85.77654 105.582804 
L 86.862341 103.571551 
L 87.948142 100.452702 
L 89.033943 98.395739 
L 90.119745 95.60741 
L 91.205546 93.550447 
L 92.291347 92.010362 
L 93.377148 90.966057 
L 94.462949 89.387294 
L 95.54875 112.302218 
L 96.634552 111.338786 
L 100.977756 103.603197 
L 102.063557 101.264939 
L 104.23516 100.466767 
L 105.320961 98.255092 
L 106.406762 96.743136 
L 108.578364 95.062403 
L 109.664165 93.357057 
L 110.749967 93.592641 
L 111.835768 91.405579 
L 112.921569 90.821894 
L 114.00737 89.292357 
L 115.093171 88.300795 
L 116.178972 88.019501 
L 118.350575 85.108106 
L 119.436376 84.411903 
L 120.522177 84.418936 
L 121.607978 83.051143 
L 122.693779 81.293055 
L 123.77958 80.744531 
L 124.865382 79.8901 
L 125.951183 79.559579 
L 127.036984 77.390098 
L 128.122785 76.795864 
L 129.208586 76.743122 
L 130.294387 76.166469 
L 131.380189 74.918226 
L 133.551791 74.039182 
L 134.637592 74.113021 
L 135.723393 72.766326 
L 136.809194 73.895018 
L 137.894995 73.52582 
L 138.980797 90.684763 
L 140.066598 93.015988 
L 141.152399 91.043413 
L 142.2382 90.892217 
L 143.324001 91.440741 
L 144.409802 90.888701 
L 145.495604 90.058883 
L 146.581405 89.43652 
L 147.667206 89.222033 
L 148.753007 88.023017 
L 149.838808 88.304311 
L 150.924609 86.250864 
L 152.01041 87.267039 
L 153.096212 87.052552 
L 154.182013 86.08912 
L 155.267814 85.29798 
L 156.353615 85.860568 
L 157.439416 85.164365 
L 158.525217 84.963943 
L 159.611019 84.281805 
L 160.69682 84.79165 
L 161.782621 83.434406 
L 162.868422 83.174209 
L 165.040024 82.140453 
L 166.125825 82.35494 
L 167.211627 81.947063 
L 168.297428 82.214293 
L 169.383229 81.904869 
L 170.46903 81.096149 
L 171.554831 80.459721 
L 172.640632 80.361268 
L 173.726434 79.450578 
L 174.812235 79.116541 
L 175.898036 79.914713 
L 176.983837 78.364079 
L 179.155439 78.202335 
L 180.24124 77.812039 
L 182.412843 76.356342 
L 183.498644 76.511054 
L 184.584445 75.459717 
L 185.670246 75.702333 
L 186.756047 74.805708 
L 187.841849 75.002614 
L 188.92765 74.513866 
L 190.013451 73.648886 
L 191.099252 73.364076 
L 192.185053 72.031445 
L 193.270854 72.147479 
L 194.356656 70.994172 
L 195.442457 71.370403 
L 196.528258 71.264918 
L 197.614059 70.603877 
L 198.69986 70.769137 
L 199.785661 69.573637 
L 200.871462 70.220614 
L 201.957264 68.743819 
L 203.043065 68.684044 
L 205.214667 67.808516 
L 207.386269 67.428769 
L 208.472071 67.333832 
L 209.557872 66.331722 
L 210.643673 66.627081 
L 211.729474 65.800779 
L 212.815275 66.212172 
L 213.901076 66.198107 
L 214.986877 65.515969 
L 216.072679 65.308515 
L 217.15848 65.378838 
L 218.244281 65.878135 
L 219.330082 65.660132 
L 220.415883 64.4576 
L 221.501684 64.876025 
L 222.587486 64.57715 
L 223.673287 64.682635 
L 224.759088 64.914703 
L 225.844889 80.667175 
L 226.93069 83.300791 
L 228.016491 83.575053 
L 229.102292 82.973787 
L 230.188094 83.325405 
L 231.273895 82.045516 
L 232.359696 82.172099 
L 233.445497 82.71359 
L 234.531298 82.126388 
L 235.617099 82.277584 
L 236.702901 81.44425 
L 237.788702 80.885178 
L 238.874503 80.660143 
L 239.960304 81.240312 
L 241.046105 80.691788 
L 242.131906 81.022309 
L 243.217708 80.32259 
L 244.303509 80.748047 
L 245.38931 79.62287 
L 246.475111 80.410494 
L 247.560912 79.517385 
L 248.646713 79.893616 
L 249.732514 79.714291 
L 250.818316 79.707259 
L 251.904117 79.50332 
L 252.989918 78.441435 
L 254.075719 79.851422 
L 255.16152 78.926667 
L 256.247321 78.54692 
L 257.333123 78.6946 
L 258.418924 77.896428 
L 259.504725 78.778988 
L 260.590526 78.466048 
L 261.676327 77.871814 
L 262.762128 77.478003 
L 263.847929 77.249451 
L 264.933731 77.488551 
L 266.019532 76.412601 
L 267.105333 76.932995 
L 269.276935 76.458311 
L 270.362736 77.369001 
L 271.448538 77.583488 
L 272.534339 76.250857 
L 275.791742 76.535667 
L 276.877543 75.649591 
L 277.963344 75.969563 
L 279.049146 75.776173 
L 280.134947 74.826805 
L 281.220748 74.689674 
L 282.306549 75.132713 
L 283.39235 75.185455 
L 284.478151 74.907677 
L 286.649754 74.918226 
L 287.735555 75.157326 
L 288.821356 73.972374 
L 289.907157 74.158732 
L 290.992958 73.771952 
L 292.07876 74.429477 
L 293.164561 73.459012 
L 294.250362 73.262107 
L 295.336163 73.560982 
L 296.421964 73.36056 
L 297.507765 72.805004 
L 299.679368 72.667873 
L 300.765169 72.01738 
L 301.85097 71.975186 
L 302.936771 72.776874 
L 304.022572 72.263512 
L 305.108373 71.49347 
L 306.194175 71.736086 
L 307.279976 71.148884 
L 308.365777 70.705846 
L 309.451578 71.616536 
L 310.537379 70.89572 
L 311.62318 71.103174 
L 313.794783 69.580669 
L 314.880584 70.326099 
L 315.966385 69.401344 
L 317.052186 70.445649 
L 318.137987 70.213581 
L 319.223788 68.972371 
L 320.30959 69.703736 
L 321.395391 68.680528 
L 322.481192 69.134115 
L 323.566993 68.290232 
L 324.652794 68.659431 
L 325.738595 68.08981 
L 326.824396 68.212877 
L 327.910198 68.571527 
L 328.995999 67.590513 
L 331.167601 67.010344 
L 332.253402 67.386575 
L 333.339203 66.6095 
L 334.425005 66.180526 
L 336.596607 66.651694 
L 337.682408 65.811328 
L 338.768209 65.748037 
L 339.85401 66.053944 
L 340.939811 65.558163 
L 342.025613 65.762101 
L 343.111414 64.633409 
L 344.197215 64.506826 
L 345.283016 65.29445 
L 347.454618 64.348598 
L 348.54042 63.775461 
L 349.626221 63.529329 
L 350.712022 64.088401 
L 352.883624 63.525813 
L 353.969425 63.086291 
L 355.055227 62.991354 
L 357.226829 62.604575 
L 358.31263 62.569413 
L 359.398431 62.087697 
L 360.484232 62.400636 
L 361.570033 61.792338 
L 362.655835 62.027922 
L 363.741636 61.616529 
L 364.827437 61.876726 
L 365.913238 61.194588 
L 366.999039 61.746627 
L 368.08484 61.402042 
L 370.256443 62.892901 
L 371.342244 63.202325 
L 373.513846 64.193886 
L 375.685448 63.283197 
L 376.77125 63.364069 
L 378.942852 64.169273 
L 380.028653 63.571523 
L 381.114454 63.367585 
L 382.200255 63.835236 
L 384.371858 63.237486 
L 385.457659 64.401341 
L 386.54346 63.441425 
L 387.629261 63.209357 
L 388.715062 63.093323 
L 389.800863 63.7403 
L 390.886665 63.954786 
L 391.972466 63.198808 
L 393.058267 63.364069 
L 394.144068 63.803591 
L 395.229869 62.857739 
L 396.31567 63.437908 
L 398.487273 63.132001 
L 398.487273 63.132001 
" clip-path="url(#pf5d8cc6c08)" style="fill: none; stroke: #1f77b4; stroke-width: 1.5; stroke-linecap: square"/>
   </g>
   <g id="line2d_18">
    <path d="M 73.832727 231.247449 
L 74.918528 161.711535 
L 76.00433 141.120804 
L 77.090131 125.129231 
L 78.175932 122.175643 
L 79.261733 113.019518 
L 80.347534 109.34863 
L 81.433335 106.943565 
L 82.519137 97.407693 
L 83.604938 90.867604 
L 84.690739 91.627098 
L 86.862341 86.774774 
L 87.948142 82.470974 
L 89.033943 79.348609 
L 90.119745 79.26422 
L 91.205546 77.11232 
L 92.291347 77.492067 
L 93.377148 75.930885 
L 94.462949 75.424555 
L 95.54875 88.209374 
L 96.634552 94.791657 
L 97.720353 92.724145 
L 98.806154 94.876046 
L 99.891955 87.660851 
L 102.063557 84.918233 
L 103.149358 82.977303 
L 104.23516 88.420345 
L 105.320961 80.909791 
L 106.406762 83.441439 
L 107.492563 78.673503 
L 108.578364 78.715697 
L 109.664165 80.108103 
L 110.749967 80.445656 
L 111.835768 77.576456 
L 112.921569 72.724132 
L 114.00737 75.002614 
L 115.093171 75.593332 
L 116.178972 73.272655 
L 117.264773 71.627084 
L 118.350575 70.445649 
L 119.436376 70.403455 
L 120.522177 68.884466 
L 121.607978 68.293749 
L 122.693779 68.71569 
L 123.77958 67.745225 
L 124.865382 67.703031 
L 125.951183 67.829613 
L 128.122785 65.508937 
L 129.208586 64.496278 
L 130.294387 65.635519 
L 131.380189 64.833831 
L 133.551791 63.947754 
L 134.637592 63.778978 
L 135.723393 63.821172 
L 136.809194 63.061678 
L 137.894995 63.483619 
L 138.980797 79.179832 
L 140.066598 83.441439 
L 141.152399 77.027932 
L 142.2382 75.508944 
L 143.324001 78.040591 
L 144.409802 77.449873 
L 145.495604 81.20515 
L 146.581405 77.745232 
L 147.667206 77.703038 
L 148.753007 76.310632 
L 149.838808 74.665061 
L 150.924609 75.930885 
L 152.01041 71.542696 
L 153.096212 71.542696 
L 154.182013 73.568014 
L 155.267814 71.880249 
L 156.353615 69.475184 
L 157.439416 73.188267 
L 158.525217 71.247337 
L 159.611019 67.787419 
L 160.69682 70.783202 
L 161.782621 71.58489 
L 162.868422 72.175608 
L 163.954223 68.335943 
L 165.040024 70.192484 
L 166.125825 69.011049 
L 167.211627 69.222019 
L 168.297428 70.951978 
L 169.383229 69.559572 
L 170.46903 69.390796 
L 171.554831 67.112313 
L 172.640632 66.985731 
L 173.726434 66.226237 
L 174.812235 67.407672 
L 175.898036 65.551131 
L 176.983837 66.901343 
L 178.069638 65.973072 
L 179.155439 66.184043 
L 180.24124 65.12919 
L 181.327042 66.859149 
L 182.412843 66.859149 
L 183.498644 64.918219 
L 184.584445 66.479401 
L 185.670246 64.327501 
L 186.756047 64.707248 
L 187.841849 62.850707 
L 188.92765 62.639736 
L 190.013451 62.766319 
L 192.185053 61.416107 
L 193.270854 62.724125 
L 194.356656 61.331718 
L 195.442457 62.386572 
L 196.528258 60.951971 
L 197.614059 61.289524 
L 198.69986 60.909777 
L 199.785661 60.065895 
L 200.871462 60.023701 
L 201.957264 60.361254 
L 203.043065 60.192477 
L 204.128866 59.264207 
L 205.214667 58.757877 
L 206.300468 58.715683 
L 207.386269 59.222012 
L 208.472071 58.968848 
L 209.557872 57.956189 
L 210.643673 57.787412 
L 212.815275 57.956189 
L 213.901076 58.209353 
L 214.986877 57.492053 
L 216.072679 57.703024 
L 217.15848 57.66083 
L 218.244281 57.449859 
L 219.330082 57.998383 
L 220.415883 57.407665 
L 224.759088 57.618636 
L 225.844889 72.175608 
L 226.93069 69.517378 
L 228.016491 70.487843 
L 229.102292 75.930885 
L 230.188094 71.37392 
L 231.273895 69.222019 
L 232.359696 69.306408 
L 233.445497 70.108096 
L 234.531298 68.504719 
L 235.617099 69.011049 
L 236.702901 69.053243 
L 237.788702 70.319067 
L 238.874503 69.812737 
L 239.960304 70.192484 
L 241.046105 67.745225 
L 242.131906 68.926661 
L 243.217708 68.757884 
L 244.303509 70.909784 
L 245.38931 72.133414 
L 246.475111 66.310625 
L 247.560912 67.914002 
L 248.646713 71.542696 
L 249.732514 67.660837 
L 250.818316 67.745225 
L 251.904117 67.323284 
L 252.989918 67.28109 
L 254.075719 65.888684 
L 255.16152 68.631302 
L 256.247321 66.521596 
L 257.333123 66.648178 
L 258.418924 68.71569 
L 259.504725 67.618643 
L 260.590526 68.040584 
L 261.676327 70.698814 
L 262.762128 66.310625 
L 263.847929 66.985731 
L 264.933731 63.778978 
L 266.019532 68.420331 
L 267.105333 67.956196 
L 268.191134 67.154507 
L 269.276935 65.719907 
L 270.362736 68.082778 
L 271.448538 63.314842 
L 272.534339 64.918219 
L 273.62014 66.310625 
L 274.705941 65.508937 
L 275.791742 65.297966 
L 276.877543 67.154507 
L 277.963344 64.454084 
L 279.049146 63.778978 
L 280.134947 63.947754 
L 281.220748 66.648178 
L 283.39235 63.863366 
L 284.478151 64.918219 
L 285.563953 62.68193 
L 286.649754 65.424548 
L 287.735555 66.56379 
L 288.821356 65.213578 
L 289.907157 62.977289 
L 290.992958 64.411889 
L 292.07876 62.639736 
L 293.164561 61.120748 
L 294.250362 67.238896 
L 295.336163 63.357036 
L 296.421964 63.483619 
L 297.507765 61.838048 
L 298.593566 64.454084 
L 299.679368 64.960413 
L 300.765169 61.795854 
L 301.85097 61.500495 
L 302.936771 63.357036 
L 304.022572 63.019483 
L 305.108373 62.344377 
L 306.194175 62.639736 
L 307.279976 61.669271 
L 308.365777 61.162942 
L 309.451578 63.18826 
L 310.537379 62.892901 
L 311.62318 62.428766 
L 312.708981 61.627077 
L 313.794783 59.728342 
L 314.880584 60.445642 
L 315.966385 60.741001 
L 317.052186 61.458301 
L 319.223788 60.403448 
L 320.30959 59.559565 
L 321.395391 59.179818 
L 322.481192 58.504712 
L 323.566993 60.023701 
L 324.652794 59.179818 
L 325.738595 59.475177 
L 326.824396 58.757877 
L 327.910198 58.631295 
L 328.995999 58.167159 
L 330.0818 59.432983 
L 331.167601 57.027918 
L 332.253402 57.492053 
L 333.339203 58.589101 
L 334.425005 59.179818 
L 335.510806 58.631295 
L 336.596607 58.757877 
L 337.682408 59.559565 
L 338.768209 57.913995 
L 339.85401 57.407665 
L 340.939811 58.124965 
L 342.025613 57.913995 
L 343.111414 58.631295 
L 344.197215 57.956189 
L 345.283016 56.774753 
L 346.368817 57.913995 
L 347.454618 57.027918 
L 348.54042 55.340153 
L 349.626221 56.184036 
L 350.712022 55.50893 
L 351.797823 55.888677 
L 352.883624 55.888677 
L 353.969425 56.774753 
L 356.141028 56.268424 
L 357.226829 56.395006 
L 358.31263 55.593318 
L 359.398431 55.635512 
L 360.484232 55.50893 
L 361.570033 55.50893 
L 362.655835 54.833824 
L 364.827437 54.960406 
L 365.913238 55.382347 
L 366.999039 55.424541 
L 368.08484 55.593318 
L 369.170642 55.551124 
L 370.256443 56.352812 
L 371.342244 55.593318 
L 372.428045 56.352812 
L 373.513846 56.015259 
L 374.599647 55.255765 
L 375.685448 56.732559 
L 376.77125 56.184036 
L 377.857051 56.310618 
L 378.942852 57.1545 
L 380.028653 55.382347 
L 381.114454 57.407665 
L 382.200255 56.605977 
L 383.286057 56.690365 
L 384.371858 57.238889 
L 385.457659 57.492053 
L 386.54346 56.22623 
L 387.629261 56.816947 
L 388.715062 56.521589 
L 389.800863 55.677706 
L 390.886665 56.985724 
L 391.972466 56.22623 
L 393.058267 56.015259 
L 394.144068 58.124965 
L 395.229869 55.297959 
L 396.31567 56.94353 
L 397.401472 56.732559 
L 398.487273 56.648171 
L 398.487273 56.648171 
" clip-path="url(#pf5d8cc6c08)" style="fill: none; stroke: #ff7f0e; stroke-width: 1.5; stroke-linecap: square"/>
   </g>
   <g id="line2d_19">
    <path d="M 73.832727 262.536573 
L 76.00433 188.624111 
L 77.090131 184.404698 
L 78.175932 171.891959 
L 79.261733 165.053601 
L 80.347534 156.760273 
L 81.433335 154.723316 
L 82.519137 149.048934 
L 83.604938 134.644733 
L 84.690739 144.393031 
L 85.77654 135.372218 
L 86.862341 134.935727 
L 87.948142 125.18743 
L 89.033943 124.168951 
L 90.119745 126.787897 
L 91.205546 120.095036 
L 92.291347 122.131994 
L 93.377148 121.695503 
L 94.462949 120.240533 
L 95.54875 138.573152 
L 96.634552 144.684025 
L 97.720353 140.610109 
L 98.806154 145.557006 
L 99.891955 134.644733 
L 100.977756 129.98883 
L 102.063557 129.552339 
L 103.149358 129.843333 
L 104.23516 139.591631 
L 105.320961 132.316782 
L 106.406762 131.4438 
L 107.492563 124.168951 
L 108.578364 123.150473 
L 109.664165 125.769418 
L 110.749967 124.459945 
L 111.835768 126.351406 
L 112.921569 120.677024 
L 114.00737 123.877957 
L 115.093171 125.18743 
L 116.178972 117.912581 
L 117.264773 120.38603 
L 118.350575 119.222054 
L 119.436376 114.857145 
L 120.522177 109.473757 
L 121.607978 108.891769 
L 122.693779 115.293636 
L 123.77958 109.037266 
L 124.865382 109.764751 
L 125.951183 115.148139 
L 127.036984 107.727793 
L 128.122785 107.436799 
L 129.208586 105.108848 
L 130.294387 105.98183 
L 131.380189 107.145805 
L 132.46599 105.108848 
L 133.551791 104.52686 
L 134.637592 104.52686 
L 135.723393 104.817854 
L 136.809194 102.344405 
L 137.894995 103.362884 
L 138.980797 127.515382 
L 140.066598 131.589297 
L 141.152399 120.531527 
L 142.2382 119.076557 
L 143.324001 124.314448 
L 144.409802 125.041933 
L 145.495604 132.171285 
L 146.581405 123.586963 
L 147.667206 128.242867 
L 148.753007 125.914915 
L 149.838808 114.711648 
L 150.924609 122.422988 
L 152.01041 116.166618 
L 153.096212 117.621588 
L 154.182013 120.968018 
L 155.267814 117.912581 
L 156.353615 110.78323 
L 157.439416 119.222054 
L 158.525217 118.640066 
L 159.611019 114.566151 
L 160.69682 116.603109 
L 161.782621 120.240533 
L 162.868422 114.275157 
L 163.954223 114.711648 
L 165.040024 117.476091 
L 166.125825 112.529193 
L 167.211627 115.148139 
L 168.297428 118.058078 
L 169.383229 111.801709 
L 170.46903 108.891769 
L 171.554831 113.838666 
L 172.640632 108.746272 
L 173.726434 111.074224 
L 174.812235 109.619254 
L 175.898036 108.746272 
L 176.983837 111.074224 
L 178.069638 108.891769 
L 179.155439 108.600775 
L 180.24124 105.254345 
L 181.327042 107.291302 
L 182.412843 105.836333 
L 183.498644 104.090369 
L 184.584445 103.07189 
L 185.670246 104.817854 
L 186.756047 106.854812 
L 187.841849 106.709315 
L 188.92765 99.72546 
L 190.013451 105.98183 
L 191.099252 104.381363 
L 192.185053 104.672357 
L 193.270854 102.489902 
L 194.356656 103.362884 
L 195.442457 105.545339 
L 196.528258 102.198908 
L 197.614059 101.907914 
L 198.69986 99.434466 
L 199.785661 99.143472 
L 200.871462 99.143472 
L 201.957264 100.598442 
L 203.043065 100.307448 
L 204.128866 101.61692 
L 205.214667 100.598442 
L 206.300468 98.124993 
L 207.386269 99.579963 
L 208.472071 98.27049 
L 209.557872 99.870957 
L 210.643673 96.961017 
L 211.729474 96.961017 
L 212.815275 98.997975 
L 213.901076 97.979496 
L 214.986877 94.487569 
L 216.072679 98.124993 
L 217.15848 97.252011 
L 218.244281 96.088035 
L 219.330082 96.233532 
L 220.415883 94.196575 
L 221.501684 94.196575 
L 222.587486 95.797042 
L 223.673287 95.069557 
L 224.759088 95.215054 
L 225.844889 121.841 
L 226.93069 117.912581 
L 228.016491 118.494569 
L 229.102292 125.332927 
L 230.188094 119.949539 
L 231.273895 115.58463 
L 232.359696 109.037266 
L 233.445497 115.58463 
L 234.531298 112.820187 
L 235.617099 117.476091 
L 236.702901 112.820187 
L 237.788702 118.203575 
L 238.874503 113.693169 
L 241.046105 112.529193 
L 242.131906 111.656212 
L 243.217708 113.547672 
L 244.303509 117.912581 
L 245.38931 120.677024 
L 246.475111 108.164284 
L 247.560912 111.219721 
L 248.646713 117.0396 
L 249.732514 113.256678 
L 250.818316 109.910248 
L 251.904117 110.055745 
L 252.989918 115.730127 
L 254.075719 109.182763 
L 255.16152 112.2382 
L 256.247321 110.637733 
L 257.333123 107.582296 
L 258.418924 108.600775 
L 259.504725 116.166618 
L 260.590526 110.055745 
L 261.676327 115.58463 
L 262.762128 109.764751 
L 263.847929 111.219721 
L 264.933731 105.690836 
L 266.019532 109.910248 
L 267.105333 109.764751 
L 268.191134 110.78323 
L 269.276935 108.164284 
L 270.362736 112.67469 
L 271.448538 107.582296 
L 272.534339 108.455278 
L 273.62014 104.672357 
L 274.705941 108.164284 
L 275.791742 116.748606 
L 276.877543 110.492236 
L 277.963344 106.563818 
L 279.049146 109.764751 
L 280.134947 104.817854 
L 281.220748 107.000308 
L 282.306549 112.965684 
L 283.39235 106.709315 
L 284.478151 115.002642 
L 285.563953 109.764751 
L 286.649754 106.854812 
L 287.735555 109.32826 
L 288.821356 108.600775 
L 289.907157 104.817854 
L 290.992958 107.291302 
L 292.07876 100.889436 
L 293.164561 108.600775 
L 294.250362 114.12966 
L 295.336163 103.07189 
L 297.507765 104.963351 
L 298.593566 104.963351 
L 299.679368 109.037266 
L 300.765169 102.053411 
L 301.85097 101.907914 
L 304.022572 107.436799 
L 305.108373 100.598442 
L 306.194175 104.963351 
L 307.279976 102.635399 
L 308.365777 101.61692 
L 309.451578 104.672357 
L 310.537379 102.635399 
L 311.62318 106.563818 
L 312.708981 99.870957 
L 313.794783 102.489902 
L 314.880584 98.852478 
L 315.966385 98.415987 
L 317.052186 102.635399 
L 318.137987 98.27049 
L 319.223788 97.543005 
L 320.30959 97.979496 
L 321.395391 100.452945 
L 322.481192 100.016454 
L 323.566993 102.489902 
L 324.652794 98.561484 
L 325.738595 101.907914 
L 326.824396 99.288969 
L 327.910198 98.706981 
L 328.995999 96.379029 
L 330.0818 100.743939 
L 331.167601 98.997975 
L 332.253402 96.379029 
L 333.339203 97.397508 
L 334.425005 101.471423 
L 335.510806 95.651545 
L 336.596607 97.252011 
L 338.768209 96.379029 
L 339.85401 97.252011 
L 342.025613 95.069557 
L 343.111414 99.579963 
L 344.197215 97.252011 
L 345.283016 98.124993 
L 348.54042 94.342072 
L 350.712022 92.01412 
L 351.797823 93.760084 
L 352.883624 93.614587 
L 353.969425 96.81552 
L 355.055227 93.614587 
L 356.141028 93.323593 
L 357.226829 92.01412 
L 358.31263 92.01412 
L 359.398431 93.032599 
L 360.484232 92.450611 
L 361.570033 92.450611 
L 362.655835 92.305114 
L 363.741636 93.032599 
L 364.827437 90.850144 
L 365.913238 93.178096 
L 366.999039 92.450611 
L 368.08484 92.01412 
L 369.170642 92.305114 
L 370.256443 93.614587 
L 371.342244 94.196575 
L 372.428045 94.633066 
L 373.513846 95.360551 
L 374.599647 89.686169 
L 375.685448 95.215054 
L 376.77125 93.178096 
L 377.857051 94.196575 
L 378.942852 97.106514 
L 380.028653 94.051078 
L 381.114454 96.81552 
L 382.200255 93.46909 
L 383.286057 92.305114 
L 384.371858 92.305114 
L 385.457659 94.92406 
L 386.54346 92.741605 
L 387.629261 95.069557 
L 388.715062 94.342072 
L 389.800863 90.995641 
L 390.886665 96.233532 
L 391.972466 93.760084 
L 393.058267 93.323593 
L 394.144068 95.069557 
L 395.229869 96.088035 
L 396.31567 93.905581 
L 397.401472 92.450611 
L 398.487273 92.741605 
L 398.487273 92.741605 
" clip-path="url(#pf5d8cc6c08)" style="fill: none; stroke: #2ca02c; stroke-width: 1.5; stroke-linecap: square"/>
   </g>
   <g id="line2d_20">
    <path d="M 368.08484 54.79163 
L 369.170642 54.665047 
L 370.256443 54.833824 
L 371.342244 55.171377 
L 372.428045 55.762094 
L 373.513846 55.255765 
L 374.599647 55.804288 
L 375.685448 56.774753 
L 376.77125 54.665047 
L 377.857051 55.086988 
L 378.942852 54.327494 
L 380.028653 54.327494 
L 381.114454 53.989941 
L 382.200255 55.171377 
L 383.286057 54.622853 
L 384.371858 54.2853 
L 385.457659 55.255765 
L 386.54346 53.947747 
L 387.629261 54.833824 
L 388.715062 53.947747 
L 389.800863 54.074329 
L 390.886665 54.707241 
L 391.972466 53.568 
L 393.058267 53.863359 
L 394.144068 55.0026 
L 395.229869 54.032135 
L 396.31567 54.074329 
L 397.401472 55.382347 
L 398.487273 54.074329 
L 398.487273 54.074329 
" clip-path="url(#pf5d8cc6c08)" style="fill: none; stroke: #d62728; stroke-width: 1.5; stroke-linecap: square"/>
   </g>
   <g id="line2d_21">
    <path d="M 368.08484 91.868623 
L 369.170642 90.413654 
L 370.256443 90.850144 
L 371.342244 91.141138 
L 372.428045 92.450611 
L 373.513846 90.704647 
L 374.599647 92.305114 
L 375.685448 92.01412 
M 377.857051 91.286635 
L 378.942852 90.413654 
L 380.028653 90.413654 
L 381.114454 91.577629 
L 382.200255 91.577629 
L 383.286057 88.522193 
L 384.371858 90.995641 
L 385.457659 91.141138 
L 386.54346 88.522193 
L 387.629261 88.376696 
L 388.715062 87.358217 
L 389.800863 88.522193 
L 390.886665 88.958684 
L 391.972466 88.66769 
L 393.058267 88.813187 
L 394.144068 89.977163 
L 395.229869 86.048744 
L 396.31567 90.704647 
L 397.401472 89.395175 
L 398.487273 89.249678 
L 398.487273 89.249678 
" clip-path="url(#pf5d8cc6c08)" style="fill: none; stroke: #9467bd; stroke-width: 1.5; stroke-linecap: square"/>
   </g>
   <g id="patch_3">
    <path d="M 57.6 307.584 
L 57.6 41.472 
" style="fill: none; stroke: #000000; stroke-width: 0.8; stroke-linejoin: miter; stroke-linecap: square"/>
   </g>
   <g id="patch_4">
    <path d="M 414.72 307.584 
L 414.72 41.472 
" style="fill: none; stroke: #000000; stroke-width: 0.8; stroke-linejoin: miter; stroke-linecap: square"/>
   </g>
   <g id="patch_5">
    <path d="M 57.6 307.584 
L 414.72 307.584 
" style="fill: none; stroke: #000000; stroke-width: 0.8; stroke-linejoin: miter; stroke-linecap: square"/>
   </g>
   <g id="patch_6">
    <path d="M 57.6 41.472 
L 414.72 41.472 
" style="fill: none; stroke: #000000; stroke-width: 0.8; stroke-linejoin: miter; stroke-linecap: square"/>
   </g>
   <g id="text_19">
    <!-- Learning Curves -->
    <g transform="translate(187.37625 35.472) scale(0.12 -0.12)">
     <defs>
      <path id="DejaVuSans-4c" d="M 628 4666 
L 1259 4666 
L 1259 531 
L 3531 531 
L 3531 0 
L 628 0 
L 628 4666 
z
" transform="scale(0.015625)"/>
      <path id="DejaVuSans-65" d="M 3597 1894 
L 3597 1613 
L 953 1613 
Q 991 1019 1311 708 
Q 1631 397 2203 397 
Q 2534 397 2845 478 
Q 3156 559 3463 722 
L 3463 178 
Q 3153 47 2828 -22 
Q 2503 -91 2169 -91 
Q 1331 -91 842 396 
Q 353 884 353 1716 
Q 353 2575 817 3079 
Q 1281 3584 2069 3584 
Q 2775 3584 3186 3129 
Q 3597 2675 3597 1894 
z
M 3022 2063 
Q 3016 2534 2758 2815 
Q 2500 3097 2075 3097 
Q 1594 3097 1305 2825 
Q 1016 2553 972 2059 
L 3022 2063 
z
" transform="scale(0.015625)"/>
      <path id="DejaVuSans-6e" d="M 3513 2113 
L 3513 0 
L 2938 0 
L 2938 2094 
Q 2938 2591 2744 2837 
Q 2550 3084 2163 3084 
Q 1697 3084 1428 2787 
Q 1159 2491 1159 1978 
L 1159 0 
L 581 0 
L 581 3500 
L 1159 3500 
L 1159 2956 
Q 1366 3272 1645 3428 
Q 1925 3584 2291 3584 
Q 2894 3584 3203 3211 
Q 3513 2838 3513 2113 
z
" transform="scale(0.015625)"/>
      <path id="DejaVuSans-69" d="M 603 3500 
L 1178 3500 
L 1178 0 
L 603 0 
L 603 3500 
z
M 603 4863 
L 1178 4863 
L 1178 4134 
L 603 4134 
L 603 4863 
z
" transform="scale(0.015625)"/>
      <path id="DejaVuSans-67" d="M 2906 1791 
Q 2906 2416 2648 2759 
Q 2391 3103 1925 3103 
Q 1463 3103 1205 2759 
Q 947 2416 947 1791 
Q 947 1169 1205 825 
Q 1463 481 1925 481 
Q 2391 481 2648 825 
Q 2906 1169 2906 1791 
z
M 3481 434 
Q 3481 -459 3084 -895 
Q 2688 -1331 1869 -1331 
Q 1566 -1331 1297 -1286 
Q 1028 -1241 775 -1147 
L 775 -588 
Q 1028 -725 1275 -790 
Q 1522 -856 1778 -856 
Q 2344 -856 2625 -561 
Q 2906 -266 2906 331 
L 2906 616 
Q 2728 306 2450 153 
Q 2172 0 1784 0 
Q 1141 0 747 490 
Q 353 981 353 1791 
Q 353 2603 747 3093 
Q 1141 3584 1784 3584 
Q 2172 3584 2450 3431 
Q 2728 3278 2906 2969 
L 2906 3500 
L 3481 3500 
L 3481 434 
z
" transform="scale(0.015625)"/>
      <path id="DejaVuSans-20" transform="scale(0.015625)"/>
      <path id="DejaVuSans-43" d="M 4122 4306 
L 4122 3641 
Q 3803 3938 3442 4084 
Q 3081 4231 2675 4231 
Q 1875 4231 1450 3742 
Q 1025 3253 1025 2328 
Q 1025 1406 1450 917 
Q 1875 428 2675 428 
Q 3081 428 3442 575 
Q 3803 722 4122 1019 
L 4122 359 
Q 3791 134 3420 21 
Q 3050 -91 2638 -91 
Q 1578 -91 968 557 
Q 359 1206 359 2328 
Q 359 3453 968 4101 
Q 1578 4750 2638 4750 
Q 3056 4750 3426 4639 
Q 3797 4528 4122 4306 
z
" transform="scale(0.015625)"/>
      <path id="DejaVuSans-76" d="M 191 3500 
L 800 3500 
L 1894 563 
L 2988 3500 
L 3597 3500 
L 2284 0 
L 1503 0 
L 191 3500 
z
" transform="scale(0.015625)"/>
     </defs>
     <use xlink:href="#DejaVuSans-4c"/>
     <use xlink:href="#DejaVuSans-65" x="53.962891"/>
     <use xlink:href="#DejaVuSans-61" x="115.486328"/>
     <use xlink:href="#DejaVuSans-72" x="176.765625"/>
     <use xlink:href="#DejaVuSans-6e" x="216.128906"/>
     <use xlink:href="#DejaVuSans-69" x="279.507812"/>
     <use xlink:href="#DejaVuSans-6e" x="307.291016"/>
     <use xlink:href="#DejaVuSans-67" x="370.669922"/>
     <use xlink:href="#DejaVuSans-20" x="434.146484"/>
     <use xlink:href="#DejaVuSans-43" x="465.933594"/>
     <use xlink:href="#DejaVuSans-75" x="535.757812"/>
     <use xlink:href="#DejaVuSans-72" x="599.136719"/>
     <use xlink:href="#DejaVuSans-76" x="640.25"/>
     <use xlink:href="#DejaVuSans-65" x="699.429688"/>
     <use xlink:href="#DejaVuSans-73" x="760.953125"/>
    </g>
   </g>
   <g id="legend_1">
    <g id="patch_7">
     <path d="M 214.18875 302.584 
L 407.72 302.584 
Q 409.72 302.584 409.72 300.584 
L 409.72 228.193375 
Q 409.72 226.193375 407.72 226.193375 
L 214.18875 226.193375 
Q 212.18875 226.193375 212.18875 228.193375 
L 212.18875 300.584 
Q 212.18875 302.584 214.18875 302.584 
z
" style="fill: #ffffff; opacity: 0.8; stroke: #cccccc; stroke-linejoin: miter"/>
    </g>
    <g id="line2d_22">
     <path d="M 216.18875 234.291812 
L 226.18875 234.291812 
L 236.18875 234.291812 
" style="fill: none; stroke: #1f77b4; stroke-width: 1.5; stroke-linecap: square"/>
    </g>
    <g id="text_20">
     <!-- Train Accuracy -->
     <g transform="translate(244.18875 237.791812) scale(0.1 -0.1)">
      <defs>
       <path id="DejaVuSans-54" d="M -19 4666 
L 3928 4666 
L 3928 4134 
L 2272 4134 
L 2272 0 
L 1638 0 
L 1638 4134 
L -19 4134 
L -19 4666 
z
" transform="scale(0.015625)"/>
      </defs>
      <use xlink:href="#DejaVuSans-54"/>
      <use xlink:href="#DejaVuSans-72" x="46.333984"/>
      <use xlink:href="#DejaVuSans-61" x="87.447266"/>
      <use xlink:href="#DejaVuSans-69" x="148.726562"/>
      <use xlink:href="#DejaVuSans-6e" x="176.509766"/>
      <use xlink:href="#DejaVuSans-20" x="239.888672"/>
      <use xlink:href="#DejaVuSans-41" x="271.675781"/>
      <use xlink:href="#DejaVuSans-63" x="338.333984"/>
      <use xlink:href="#DejaVuSans-63" x="393.314453"/>
      <use xlink:href="#DejaVuSans-75" x="448.294922"/>
      <use xlink:href="#DejaVuSans-72" x="511.673828"/>
      <use xlink:href="#DejaVuSans-61" x="552.787109"/>
      <use xlink:href="#DejaVuSans-63" x="614.066406"/>
      <use xlink:href="#DejaVuSans-79" x="669.046875"/>
     </g>
    </g>
    <g id="line2d_23">
     <path d="M 216.18875 248.969937 
L 226.18875 248.969937 
L 236.18875 248.969937 
" style="fill: none; stroke: #ff7f0e; stroke-width: 1.5; stroke-linecap: square"/>
    </g>
    <g id="text_21">
     <!-- Validation Accuracy -->
     <g transform="translate(244.18875 252.469937) scale(0.1 -0.1)">
      <defs>
       <path id="DejaVuSans-56" d="M 1831 0 
L 50 4666 
L 709 4666 
L 2188 738 
L 3669 4666 
L 4325 4666 
L 2547 0 
L 1831 0 
z
" transform="scale(0.015625)"/>
       <path id="DejaVuSans-6c" d="M 603 4863 
L 1178 4863 
L 1178 0 
L 603 0 
L 603 4863 
z
" transform="scale(0.015625)"/>
       <path id="DejaVuSans-64" d="M 2906 2969 
L 2906 4863 
L 3481 4863 
L 3481 0 
L 2906 0 
L 2906 525 
Q 2725 213 2448 61 
Q 2172 -91 1784 -91 
Q 1150 -91 751 415 
Q 353 922 353 1747 
Q 353 2572 751 3078 
Q 1150 3584 1784 3584 
Q 2172 3584 2448 3432 
Q 2725 3281 2906 2969 
z
M 947 1747 
Q 947 1113 1208 752 
Q 1469 391 1925 391 
Q 2381 391 2643 752 
Q 2906 1113 2906 1747 
Q 2906 2381 2643 2742 
Q 2381 3103 1925 3103 
Q 1469 3103 1208 2742 
Q 947 2381 947 1747 
z
" transform="scale(0.015625)"/>
       <path id="DejaVuSans-74" d="M 1172 4494 
L 1172 3500 
L 2356 3500 
L 2356 3053 
L 1172 3053 
L 1172 1153 
Q 1172 725 1289 603 
Q 1406 481 1766 481 
L 2356 481 
L 2356 0 
L 1766 0 
Q 1100 0 847 248 
Q 594 497 594 1153 
L 594 3053 
L 172 3053 
L 172 3500 
L 594 3500 
L 594 4494 
L 1172 4494 
z
" transform="scale(0.015625)"/>
      </defs>
      <use xlink:href="#DejaVuSans-56"/>
      <use xlink:href="#DejaVuSans-61" x="60.658203"/>
      <use xlink:href="#DejaVuSans-6c" x="121.9375"/>
      <use xlink:href="#DejaVuSans-69" x="149.720703"/>
      <use xlink:href="#DejaVuSans-64" x="177.503906"/>
      <use xlink:href="#DejaVuSans-61" x="240.980469"/>
      <use xlink:href="#DejaVuSans-74" x="302.259766"/>
      <use xlink:href="#DejaVuSans-69" x="341.46875"/>
      <use xlink:href="#DejaVuSans-6f" x="369.251953"/>
      <use xlink:href="#DejaVuSans-6e" x="430.433594"/>
      <use xlink:href="#DejaVuSans-20" x="493.8125"/>
      <use xlink:href="#DejaVuSans-41" x="525.599609"/>
      <use xlink:href="#DejaVuSans-63" x="592.257812"/>
      <use xlink:href="#DejaVuSans-63" x="647.238281"/>
      <use xlink:href="#DejaVuSans-75" x="702.21875"/>
      <use xlink:href="#DejaVuSans-72" x="765.597656"/>
      <use xlink:href="#DejaVuSans-61" x="806.710938"/>
      <use xlink:href="#DejaVuSans-63" x="867.990234"/>
      <use xlink:href="#DejaVuSans-79" x="922.970703"/>
     </g>
    </g>
    <g id="line2d_24">
     <path d="M 216.18875 263.648062 
L 226.18875 263.648062 
L 236.18875 263.648062 
" style="fill: none; stroke: #2ca02c; stroke-width: 1.5; stroke-linecap: square"/>
    </g>
    <g id="text_22">
     <!-- Robust Validation Accuracy -->
     <g transform="translate(244.18875 267.148062) scale(0.1 -0.1)">
      <defs>
       <path id="DejaVuSans-52" d="M 2841 2188 
Q 3044 2119 3236 1894 
Q 3428 1669 3622 1275 
L 4263 0 
L 3584 0 
L 2988 1197 
Q 2756 1666 2539 1819 
Q 2322 1972 1947 1972 
L 1259 1972 
L 1259 0 
L 628 0 
L 628 4666 
L 2053 4666 
Q 2853 4666 3247 4331 
Q 3641 3997 3641 3322 
Q 3641 2881 3436 2590 
Q 3231 2300 2841 2188 
z
M 1259 4147 
L 1259 2491 
L 2053 2491 
Q 2509 2491 2742 2702 
Q 2975 2913 2975 3322 
Q 2975 3731 2742 3939 
Q 2509 4147 2053 4147 
L 1259 4147 
z
" transform="scale(0.015625)"/>
       <path id="DejaVuSans-62" d="M 3116 1747 
Q 3116 2381 2855 2742 
Q 2594 3103 2138 3103 
Q 1681 3103 1420 2742 
Q 1159 2381 1159 1747 
Q 1159 1113 1420 752 
Q 1681 391 2138 391 
Q 2594 391 2855 752 
Q 3116 1113 3116 1747 
z
M 1159 2969 
Q 1341 3281 1617 3432 
Q 1894 3584 2278 3584 
Q 2916 3584 3314 3078 
Q 3713 2572 3713 1747 
Q 3713 922 3314 415 
Q 2916 -91 2278 -91 
Q 1894 -91 1617 61 
Q 1341 213 1159 525 
L 1159 0 
L 581 0 
L 581 4863 
L 1159 4863 
L 1159 2969 
z
" transform="scale(0.015625)"/>
      </defs>
      <use xlink:href="#DejaVuSans-52"/>
      <use xlink:href="#DejaVuSans-6f" x="64.982422"/>
      <use xlink:href="#DejaVuSans-62" x="126.164062"/>
      <use xlink:href="#DejaVuSans-75" x="189.640625"/>
      <use xlink:href="#DejaVuSans-73" x="253.019531"/>
      <use xlink:href="#DejaVuSans-74" x="305.119141"/>
      <use xlink:href="#DejaVuSans-20" x="344.328125"/>
      <use xlink:href="#DejaVuSans-56" x="376.115234"/>
      <use xlink:href="#DejaVuSans-61" x="436.773438"/>
      <use xlink:href="#DejaVuSans-6c" x="498.052734"/>
      <use xlink:href="#DejaVuSans-69" x="525.835938"/>
      <use xlink:href="#DejaVuSans-64" x="553.619141"/>
      <use xlink:href="#DejaVuSans-61" x="617.095703"/>
      <use xlink:href="#DejaVuSans-74" x="678.375"/>
      <use xlink:href="#DejaVuSans-69" x="717.583984"/>
      <use xlink:href="#DejaVuSans-6f" x="745.367188"/>
      <use xlink:href="#DejaVuSans-6e" x="806.548828"/>
      <use xlink:href="#DejaVuSans-20" x="869.927734"/>
      <use xlink:href="#DejaVuSans-41" x="901.714844"/>
      <use xlink:href="#DejaVuSans-63" x="968.373047"/>
      <use xlink:href="#DejaVuSans-63" x="1023.353516"/>
      <use xlink:href="#DejaVuSans-75" x="1078.333984"/>
      <use xlink:href="#DejaVuSans-72" x="1141.712891"/>
      <use xlink:href="#DejaVuSans-61" x="1182.826172"/>
      <use xlink:href="#DejaVuSans-63" x="1244.105469"/>
      <use xlink:href="#DejaVuSans-79" x="1299.085938"/>
     </g>
    </g>
    <g id="line2d_25">
     <path d="M 216.18875 278.326188 
L 226.18875 278.326188 
L 236.18875 278.326188 
" style="fill: none; stroke: #d62728; stroke-width: 1.5; stroke-linecap: square"/>
    </g>
    <g id="text_23">
     <!-- SWA Validation Accuracy -->
     <g transform="translate(244.18875 281.826188) scale(0.1 -0.1)">
      <defs>
       <path id="DejaVuSans-53" d="M 3425 4513 
L 3425 3897 
Q 3066 4069 2747 4153 
Q 2428 4238 2131 4238 
Q 1616 4238 1336 4038 
Q 1056 3838 1056 3469 
Q 1056 3159 1242 3001 
Q 1428 2844 1947 2747 
L 2328 2669 
Q 3034 2534 3370 2195 
Q 3706 1856 3706 1288 
Q 3706 609 3251 259 
Q 2797 -91 1919 -91 
Q 1588 -91 1214 -16 
Q 841 59 441 206 
L 441 856 
Q 825 641 1194 531 
Q 1563 422 1919 422 
Q 2459 422 2753 634 
Q 3047 847 3047 1241 
Q 3047 1584 2836 1778 
Q 2625 1972 2144 2069 
L 1759 2144 
Q 1053 2284 737 2584 
Q 422 2884 422 3419 
Q 422 4038 858 4394 
Q 1294 4750 2059 4750 
Q 2388 4750 2728 4690 
Q 3069 4631 3425 4513 
z
" transform="scale(0.015625)"/>
       <path id="DejaVuSans-57" d="M 213 4666 
L 850 4666 
L 1831 722 
L 2809 4666 
L 3519 4666 
L 4500 722 
L 5478 4666 
L 6119 4666 
L 4947 0 
L 4153 0 
L 3169 4050 
L 2175 0 
L 1381 0 
L 213 4666 
z
" transform="scale(0.015625)"/>
      </defs>
      <use xlink:href="#DejaVuSans-53"/>
      <use xlink:href="#DejaVuSans-57" x="63.476562"/>
      <use xlink:href="#DejaVuSans-41" x="156.853516"/>
      <use xlink:href="#DejaVuSans-20" x="225.261719"/>
      <use xlink:href="#DejaVuSans-56" x="257.048828"/>
      <use xlink:href="#DejaVuSans-61" x="317.707031"/>
      <use xlink:href="#DejaVuSans-6c" x="378.986328"/>
      <use xlink:href="#DejaVuSans-69" x="406.769531"/>
      <use xlink:href="#DejaVuSans-64" x="434.552734"/>
      <use xlink:href="#DejaVuSans-61" x="498.029297"/>
      <use xlink:href="#DejaVuSans-74" x="559.308594"/>
      <use xlink:href="#DejaVuSans-69" x="598.517578"/>
      <use xlink:href="#DejaVuSans-6f" x="626.300781"/>
      <use xlink:href="#DejaVuSans-6e" x="687.482422"/>
      <use xlink:href="#DejaVuSans-20" x="750.861328"/>
      <use xlink:href="#DejaVuSans-41" x="782.648438"/>
      <use xlink:href="#DejaVuSans-63" x="849.306641"/>
      <use xlink:href="#DejaVuSans-63" x="904.287109"/>
      <use xlink:href="#DejaVuSans-75" x="959.267578"/>
      <use xlink:href="#DejaVuSans-72" x="1022.646484"/>
      <use xlink:href="#DejaVuSans-61" x="1063.759766"/>
      <use xlink:href="#DejaVuSans-63" x="1125.039062"/>
      <use xlink:href="#DejaVuSans-79" x="1180.019531"/>
     </g>
    </g>
    <g id="line2d_26">
     <path d="M 216.18875 293.004312 
L 226.18875 293.004312 
L 236.18875 293.004312 
" style="fill: none; stroke: #9467bd; stroke-width: 1.5; stroke-linecap: square"/>
    </g>
    <g id="text_24">
     <!-- SWA Robust Validation Accuracy -->
     <g transform="translate(244.18875 296.504312) scale(0.1 -0.1)">
      <use xlink:href="#DejaVuSans-53"/>
      <use xlink:href="#DejaVuSans-57" x="63.476562"/>
      <use xlink:href="#DejaVuSans-41" x="156.853516"/>
      <use xlink:href="#DejaVuSans-20" x="225.261719"/>
      <use xlink:href="#DejaVuSans-52" x="257.048828"/>
      <use xlink:href="#DejaVuSans-6f" x="322.03125"/>
      <use xlink:href="#DejaVuSans-62" x="383.212891"/>
      <use xlink:href="#DejaVuSans-75" x="446.689453"/>
      <use xlink:href="#DejaVuSans-73" x="510.068359"/>
      <use xlink:href="#DejaVuSans-74" x="562.167969"/>
      <use xlink:href="#DejaVuSans-20" x="601.376953"/>
      <use xlink:href="#DejaVuSans-56" x="633.164062"/>
      <use xlink:href="#DejaVuSans-61" x="693.822266"/>
      <use xlink:href="#DejaVuSans-6c" x="755.101562"/>
      <use xlink:href="#DejaVuSans-69" x="782.884766"/>
      <use xlink:href="#DejaVuSans-64" x="810.667969"/>
      <use xlink:href="#DejaVuSans-61" x="874.144531"/>
      <use xlink:href="#DejaVuSans-74" x="935.423828"/>
      <use xlink:href="#DejaVuSans-69" x="974.632812"/>
      <use xlink:href="#DejaVuSans-6f" x="1002.416016"/>
      <use xlink:href="#DejaVuSans-6e" x="1063.597656"/>
      <use xlink:href="#DejaVuSans-20" x="1126.976562"/>
      <use xlink:href="#DejaVuSans-41" x="1158.763672"/>
      <use xlink:href="#DejaVuSans-63" x="1225.421875"/>
      <use xlink:href="#DejaVuSans-63" x="1280.402344"/>
      <use xlink:href="#DejaVuSans-75" x="1335.382812"/>
      <use xlink:href="#DejaVuSans-72" x="1398.761719"/>
      <use xlink:href="#DejaVuSans-61" x="1439.875"/>
      <use xlink:href="#DejaVuSans-63" x="1501.154297"/>
      <use xlink:href="#DejaVuSans-79" x="1556.134766"/>
     </g>
    </g>
   </g>
  </g>
 </g>
 <defs>
  <clipPath id="pf5d8cc6c08">
   <rect x="57.6" y="41.472" width="357.12" height="266.112"/>
  </clipPath>
 </defs>
</svg>
