<?xml version="1.0" encoding="utf-8" standalone="no"?>
<!DOCTYPE svg PUBLIC "-//W3C//DTD SVG 1.1//EN"
  "http://www.w3.org/Graphics/SVG/1.1/DTD/svg11.dtd">
<svg xmlns:xlink="http://www.w3.org/1999/xlink" width="460.8pt" height="345.6pt" viewBox="0 0 460.8 345.6" xmlns="http://www.w3.org/2000/svg" version="1.1">
 <metadata>
  <rdf:RDF xmlns:dc="http://purl.org/dc/elements/1.1/" xmlns:cc="http://creativecommons.org/ns#" xmlns:rdf="http://www.w3.org/1999/02/22-rdf-syntax-ns#">
   <cc:Work>
    <dc:type rdf:resource="http://purl.org/dc/dcmitype/StillImage"/>
    <dc:date>2025-05-04T07:37:03.446622</dc:date>
    <dc:format>image/svg+xml</dc:format>
    <dc:creator>
     <cc:Agent>
      <dc:title>Matplotlib v3.9.1, https://matplotlib.org/</dc:title>
     </cc:Agent>
    </dc:creator>
   </cc:Work>
  </rdf:RDF>
 </metadata>
 <defs>
  <style type="text/css">*{stroke-linejoin: round; stroke-linecap: butt}</style>
 </defs>
 <g id="figure_1">
  <g id="patch_1">
   <path d="M 0 345.6 
L 460.8 345.6 
L 460.8 0 
L 0 0 
z
" style="fill: #ffffff"/>
  </g>
  <g id="axes_1">
   <g id="patch_2">
    <path d="M 57.6 307.584 
L 414.72 307.584 
L 414.72 41.472 
L 57.6 41.472 
z
" style="fill: #ffffff"/>
   </g>
   <g id="matplotlib.axis_1">
    <g id="xtick_1">
     <g id="line2d_1">
      <defs>
       <path id="meef984e3da" d="M 0 0 
L 0 3.5 
" style="stroke: #000000; stroke-width: 0.8"/>
      </defs>
      <g>
       <use xlink:href="#meef984e3da" x="73.832727" y="307.584" style="stroke: #000000; stroke-width: 0.8"/>
      </g>
     </g>
     <g id="text_1">
      <!-- 1 -->
      <g transform="translate(70.651477 322.182437) scale(0.1 -0.1)">
       <defs>
        <path id="DejaVuSans-31" d="M 794 531 
L 1825 531 
L 1825 4091 
L 703 3866 
L 703 4441 
L 1819 4666 
L 2450 4666 
L 2450 531 
L 3481 531 
L 3481 0 
L 794 0 
L 794 531 
z
" transform="scale(0.015625)"/>
       </defs>
       <use xlink:href="#DejaVuSans-31"/>
      </g>
     </g>
    </g>
    <g id="xtick_2">
     <g id="line2d_2">
      <g>
       <use xlink:href="#meef984e3da" x="109.664165" y="307.584" style="stroke: #000000; stroke-width: 0.8"/>
      </g>
     </g>
     <g id="text_2">
      <!-- 34 -->
      <g transform="translate(103.301665 322.182437) scale(0.1 -0.1)">
       <defs>
        <path id="DejaVuSans-33" d="M 2597 2516 
Q 3050 2419 3304 2112 
Q 3559 1806 3559 1356 
Q 3559 666 3084 287 
Q 2609 -91 1734 -91 
Q 1441 -91 1130 -33 
Q 819 25 488 141 
L 488 750 
Q 750 597 1062 519 
Q 1375 441 1716 441 
Q 2309 441 2620 675 
Q 2931 909 2931 1356 
Q 2931 1769 2642 2001 
Q 2353 2234 1838 2234 
L 1294 2234 
L 1294 2753 
L 1863 2753 
Q 2328 2753 2575 2939 
Q 2822 3125 2822 3475 
Q 2822 3834 2567 4026 
Q 2313 4219 1838 4219 
Q 1578 4219 1281 4162 
Q 984 4106 628 3988 
L 628 4550 
Q 988 4650 1302 4700 
Q 1616 4750 1894 4750 
Q 2613 4750 3031 4423 
Q 3450 4097 3450 3541 
Q 3450 3153 3228 2886 
Q 3006 2619 2597 2516 
z
" transform="scale(0.015625)"/>
        <path id="DejaVuSans-34" d="M 2419 4116 
L 825 1625 
L 2419 1625 
L 2419 4116 
z
M 2253 4666 
L 3047 4666 
L 3047 1625 
L 3713 1625 
L 3713 1100 
L 3047 1100 
L 3047 0 
L 2419 0 
L 2419 1100 
L 313 1100 
L 313 1709 
L 2253 4666 
z
" transform="scale(0.015625)"/>
       </defs>
       <use xlink:href="#DejaVuSans-33"/>
       <use xlink:href="#DejaVuSans-34" x="63.623047"/>
      </g>
     </g>
    </g>
    <g id="xtick_3">
     <g id="line2d_3">
      <g>
       <use xlink:href="#meef984e3da" x="145.495604" y="307.584" style="stroke: #000000; stroke-width: 0.8"/>
      </g>
     </g>
     <g id="text_3">
      <!-- 67 -->
      <g transform="translate(139.133104 322.182437) scale(0.1 -0.1)">
       <defs>
        <path id="DejaVuSans-36" d="M 2113 2584 
Q 1688 2584 1439 2293 
Q 1191 2003 1191 1497 
Q 1191 994 1439 701 
Q 1688 409 2113 409 
Q 2538 409 2786 701 
Q 3034 994 3034 1497 
Q 3034 2003 2786 2293 
Q 2538 2584 2113 2584 
z
M 3366 4563 
L 3366 3988 
Q 3128 4100 2886 4159 
Q 2644 4219 2406 4219 
Q 1781 4219 1451 3797 
Q 1122 3375 1075 2522 
Q 1259 2794 1537 2939 
Q 1816 3084 2150 3084 
Q 2853 3084 3261 2657 
Q 3669 2231 3669 1497 
Q 3669 778 3244 343 
Q 2819 -91 2113 -91 
Q 1303 -91 875 529 
Q 447 1150 447 2328 
Q 447 3434 972 4092 
Q 1497 4750 2381 4750 
Q 2619 4750 2861 4703 
Q 3103 4656 3366 4563 
z
" transform="scale(0.015625)"/>
        <path id="DejaVuSans-37" d="M 525 4666 
L 3525 4666 
L 3525 4397 
L 1831 0 
L 1172 0 
L 2766 4134 
L 525 4134 
L 525 4666 
z
" transform="scale(0.015625)"/>
       </defs>
       <use xlink:href="#DejaVuSans-36"/>
       <use xlink:href="#DejaVuSans-37" x="63.623047"/>
      </g>
     </g>
    </g>
    <g id="xtick_4">
     <g id="line2d_4">
      <g>
       <use xlink:href="#meef984e3da" x="181.327042" y="307.584" style="stroke: #000000; stroke-width: 0.8"/>
      </g>
     </g>
     <g id="text_4">
      <!-- 100 -->
      <g transform="translate(171.783292 322.182437) scale(0.1 -0.1)">
       <defs>
        <path id="DejaVuSans-30" d="M 2034 4250 
Q 1547 4250 1301 3770 
Q 1056 3291 1056 2328 
Q 1056 1369 1301 889 
Q 1547 409 2034 409 
Q 2525 409 2770 889 
Q 3016 1369 3016 2328 
Q 3016 3291 2770 3770 
Q 2525 4250 2034 4250 
z
M 2034 4750 
Q 2819 4750 3233 4129 
Q 3647 3509 3647 2328 
Q 3647 1150 3233 529 
Q 2819 -91 2034 -91 
Q 1250 -91 836 529 
Q 422 1150 422 2328 
Q 422 3509 836 4129 
Q 1250 4750 2034 4750 
z
" transform="scale(0.015625)"/>
       </defs>
       <use xlink:href="#DejaVuSans-31"/>
       <use xlink:href="#DejaVuSans-30" x="63.623047"/>
       <use xlink:href="#DejaVuSans-30" x="127.246094"/>
      </g>
     </g>
    </g>
    <g id="xtick_5">
     <g id="line2d_5">
      <g>
       <use xlink:href="#meef984e3da" x="217.15848" y="307.584" style="stroke: #000000; stroke-width: 0.8"/>
      </g>
     </g>
     <g id="text_5">
      <!-- 133 -->
      <g transform="translate(207.61473 322.182437) scale(0.1 -0.1)">
       <use xlink:href="#DejaVuSans-31"/>
       <use xlink:href="#DejaVuSans-33" x="63.623047"/>
       <use xlink:href="#DejaVuSans-33" x="127.246094"/>
      </g>
     </g>
    </g>
    <g id="xtick_6">
     <g id="line2d_6">
      <g>
       <use xlink:href="#meef984e3da" x="254.075719" y="307.584" style="stroke: #000000; stroke-width: 0.8"/>
      </g>
     </g>
     <g id="text_6">
      <!-- 167 -->
      <g transform="translate(244.531969 322.182437) scale(0.1 -0.1)">
       <use xlink:href="#DejaVuSans-31"/>
       <use xlink:href="#DejaVuSans-36" x="63.623047"/>
       <use xlink:href="#DejaVuSans-37" x="127.246094"/>
      </g>
     </g>
    </g>
    <g id="xtick_7">
     <g id="line2d_7">
      <g>
       <use xlink:href="#meef984e3da" x="289.907157" y="307.584" style="stroke: #000000; stroke-width: 0.8"/>
      </g>
     </g>
     <g id="text_7">
      <!-- 200 -->
      <g transform="translate(280.363407 322.182437) scale(0.1 -0.1)">
       <defs>
        <path id="DejaVuSans-32" d="M 1228 531 
L 3431 531 
L 3431 0 
L 469 0 
L 469 531 
Q 828 903 1448 1529 
Q 2069 2156 2228 2338 
Q 2531 2678 2651 2914 
Q 2772 3150 2772 3378 
Q 2772 3750 2511 3984 
Q 2250 4219 1831 4219 
Q 1534 4219 1204 4116 
Q 875 4013 500 3803 
L 500 4441 
Q 881 4594 1212 4672 
Q 1544 4750 1819 4750 
Q 2544 4750 2975 4387 
Q 3406 4025 3406 3419 
Q 3406 3131 3298 2873 
Q 3191 2616 2906 2266 
Q 2828 2175 2409 1742 
Q 1991 1309 1228 531 
z
" transform="scale(0.015625)"/>
       </defs>
       <use xlink:href="#DejaVuSans-32"/>
       <use xlink:href="#DejaVuSans-30" x="63.623047"/>
       <use xlink:href="#DejaVuSans-30" x="127.246094"/>
      </g>
     </g>
    </g>
    <g id="xtick_8">
     <g id="line2d_8">
      <g>
       <use xlink:href="#meef984e3da" x="325.738595" y="307.584" style="stroke: #000000; stroke-width: 0.8"/>
      </g>
     </g>
     <g id="text_8">
      <!-- 233 -->
      <g transform="translate(316.194845 322.182437) scale(0.1 -0.1)">
       <use xlink:href="#DejaVuSans-32"/>
       <use xlink:href="#DejaVuSans-33" x="63.623047"/>
       <use xlink:href="#DejaVuSans-33" x="127.246094"/>
      </g>
     </g>
    </g>
    <g id="xtick_9">
     <g id="line2d_9">
      <g>
       <use xlink:href="#meef984e3da" x="361.570033" y="307.584" style="stroke: #000000; stroke-width: 0.8"/>
      </g>
     </g>
     <g id="text_9">
      <!-- 266 -->
      <g transform="translate(352.026283 322.182437) scale(0.1 -0.1)">
       <use xlink:href="#DejaVuSans-32"/>
       <use xlink:href="#DejaVuSans-36" x="63.623047"/>
       <use xlink:href="#DejaVuSans-36" x="127.246094"/>
      </g>
     </g>
    </g>
    <g id="xtick_10">
     <g id="line2d_10">
      <g>
       <use xlink:href="#meef984e3da" x="398.487273" y="307.584" style="stroke: #000000; stroke-width: 0.8"/>
      </g>
     </g>
     <g id="text_10">
      <!-- 300 -->
      <g transform="translate(388.943523 322.182437) scale(0.1 -0.1)">
       <use xlink:href="#DejaVuSans-33"/>
       <use xlink:href="#DejaVuSans-30" x="63.623047"/>
       <use xlink:href="#DejaVuSans-30" x="127.246094"/>
      </g>
     </g>
    </g>
    <g id="text_11">
     <!-- Epochs -->
     <g transform="translate(218.244375 335.860562) scale(0.1 -0.1)">
      <defs>
       <path id="DejaVuSans-45" d="M 628 4666 
L 3578 4666 
L 3578 4134 
L 1259 4134 
L 1259 2753 
L 3481 2753 
L 3481 2222 
L 1259 2222 
L 1259 531 
L 3634 531 
L 3634 0 
L 628 0 
L 628 4666 
z
" transform="scale(0.015625)"/>
       <path id="DejaVuSans-70" d="M 1159 525 
L 1159 -1331 
L 581 -1331 
L 581 3500 
L 1159 3500 
L 1159 2969 
Q 1341 3281 1617 3432 
Q 1894 3584 2278 3584 
Q 2916 3584 3314 3078 
Q 3713 2572 3713 1747 
Q 3713 922 3314 415 
Q 2916 -91 2278 -91 
Q 1894 -91 1617 61 
Q 1341 213 1159 525 
z
M 3116 1747 
Q 3116 2381 2855 2742 
Q 2594 3103 2138 3103 
Q 1681 3103 1420 2742 
Q 1159 2381 1159 1747 
Q 1159 1113 1420 752 
Q 1681 391 2138 391 
Q 2594 391 2855 752 
Q 3116 1113 3116 1747 
z
" transform="scale(0.015625)"/>
       <path id="DejaVuSans-6f" d="M 1959 3097 
Q 1497 3097 1228 2736 
Q 959 2375 959 1747 
Q 959 1119 1226 758 
Q 1494 397 1959 397 
Q 2419 397 2687 759 
Q 2956 1122 2956 1747 
Q 2956 2369 2687 2733 
Q 2419 3097 1959 3097 
z
M 1959 3584 
Q 2709 3584 3137 3096 
Q 3566 2609 3566 1747 
Q 3566 888 3137 398 
Q 2709 -91 1959 -91 
Q 1206 -91 779 398 
Q 353 888 353 1747 
Q 353 2609 779 3096 
Q 1206 3584 1959 3584 
z
" transform="scale(0.015625)"/>
       <path id="DejaVuSans-63" d="M 3122 3366 
L 3122 2828 
Q 2878 2963 2633 3030 
Q 2388 3097 2138 3097 
Q 1578 3097 1268 2742 
Q 959 2388 959 1747 
Q 959 1106 1268 751 
Q 1578 397 2138 397 
Q 2388 397 2633 464 
Q 2878 531 3122 666 
L 3122 134 
Q 2881 22 2623 -34 
Q 2366 -91 2075 -91 
Q 1284 -91 818 406 
Q 353 903 353 1747 
Q 353 2603 823 3093 
Q 1294 3584 2113 3584 
Q 2378 3584 2631 3529 
Q 2884 3475 3122 3366 
z
" transform="scale(0.015625)"/>
       <path id="DejaVuSans-68" d="M 3513 2113 
L 3513 0 
L 2938 0 
L 2938 2094 
Q 2938 2591 2744 2837 
Q 2550 3084 2163 3084 
Q 1697 3084 1428 2787 
Q 1159 2491 1159 1978 
L 1159 0 
L 581 0 
L 581 4863 
L 1159 4863 
L 1159 2956 
Q 1366 3272 1645 3428 
Q 1925 3584 2291 3584 
Q 2894 3584 3203 3211 
Q 3513 2838 3513 2113 
z
" transform="scale(0.015625)"/>
       <path id="DejaVuSans-73" d="M 2834 3397 
L 2834 2853 
Q 2591 2978 2328 3040 
Q 2066 3103 1784 3103 
Q 1356 3103 1142 2972 
Q 928 2841 928 2578 
Q 928 2378 1081 2264 
Q 1234 2150 1697 2047 
L 1894 2003 
Q 2506 1872 2764 1633 
Q 3022 1394 3022 966 
Q 3022 478 2636 193 
Q 2250 -91 1575 -91 
Q 1294 -91 989 -36 
Q 684 19 347 128 
L 347 722 
Q 666 556 975 473 
Q 1284 391 1588 391 
Q 1994 391 2212 530 
Q 2431 669 2431 922 
Q 2431 1156 2273 1281 
Q 2116 1406 1581 1522 
L 1381 1569 
Q 847 1681 609 1914 
Q 372 2147 372 2553 
Q 372 3047 722 3315 
Q 1072 3584 1716 3584 
Q 2034 3584 2315 3537 
Q 2597 3491 2834 3397 
z
" transform="scale(0.015625)"/>
      </defs>
      <use xlink:href="#DejaVuSans-45"/>
      <use xlink:href="#DejaVuSans-70" x="63.183594"/>
      <use xlink:href="#DejaVuSans-6f" x="126.660156"/>
      <use xlink:href="#DejaVuSans-63" x="187.841797"/>
      <use xlink:href="#DejaVuSans-68" x="242.822266"/>
      <use xlink:href="#DejaVuSans-73" x="306.201172"/>
     </g>
    </g>
   </g>
   <g id="matplotlib.axis_2">
    <g id="ytick_1">
     <g id="line2d_11">
      <defs>
       <path id="m2a37e9b0df" d="M 0 0 
L -3.5 0 
" style="stroke: #000000; stroke-width: 0.8"/>
      </defs>
      <g>
       <use xlink:href="#m2a37e9b0df" x="57.6" y="292.384964" style="stroke: #000000; stroke-width: 0.8"/>
      </g>
     </g>
     <g id="text_12">
      <!-- 30 -->
      <g transform="translate(37.875 296.184182) scale(0.1 -0.1)">
       <use xlink:href="#DejaVuSans-33"/>
       <use xlink:href="#DejaVuSans-30" x="63.623047"/>
      </g>
     </g>
    </g>
    <g id="ytick_2">
     <g id="line2d_12">
      <g>
       <use xlink:href="#m2a37e9b0df" x="57.6" y="256.45643" style="stroke: #000000; stroke-width: 0.8"/>
      </g>
     </g>
     <g id="text_13">
      <!-- 40 -->
      <g transform="translate(37.875 260.255649) scale(0.1 -0.1)">
       <use xlink:href="#DejaVuSans-34"/>
       <use xlink:href="#DejaVuSans-30" x="63.623047"/>
      </g>
     </g>
    </g>
    <g id="ytick_3">
     <g id="line2d_13">
      <g>
       <use xlink:href="#m2a37e9b0df" x="57.6" y="220.527896" style="stroke: #000000; stroke-width: 0.8"/>
      </g>
     </g>
     <g id="text_14">
      <!-- 50 -->
      <g transform="translate(37.875 224.327115) scale(0.1 -0.1)">
       <defs>
        <path id="DejaVuSans-35" d="M 691 4666 
L 3169 4666 
L 3169 4134 
L 1269 4134 
L 1269 2991 
Q 1406 3038 1543 3061 
Q 1681 3084 1819 3084 
Q 2600 3084 3056 2656 
Q 3513 2228 3513 1497 
Q 3513 744 3044 326 
Q 2575 -91 1722 -91 
Q 1428 -91 1123 -41 
Q 819 9 494 109 
L 494 744 
Q 775 591 1075 516 
Q 1375 441 1709 441 
Q 2250 441 2565 725 
Q 2881 1009 2881 1497 
Q 2881 1984 2565 2268 
Q 2250 2553 1709 2553 
Q 1456 2553 1204 2497 
Q 953 2441 691 2322 
L 691 4666 
z
" transform="scale(0.015625)"/>
       </defs>
       <use xlink:href="#DejaVuSans-35"/>
       <use xlink:href="#DejaVuSans-30" x="63.623047"/>
      </g>
     </g>
    </g>
    <g id="ytick_4">
     <g id="line2d_14">
      <g>
       <use xlink:href="#m2a37e9b0df" x="57.6" y="184.599362" style="stroke: #000000; stroke-width: 0.8"/>
      </g>
     </g>
     <g id="text_15">
      <!-- 60 -->
      <g transform="translate(37.875 188.398581) scale(0.1 -0.1)">
       <use xlink:href="#DejaVuSans-36"/>
       <use xlink:href="#DejaVuSans-30" x="63.623047"/>
      </g>
     </g>
    </g>
    <g id="ytick_5">
     <g id="line2d_15">
      <g>
       <use xlink:href="#m2a37e9b0df" x="57.6" y="148.670829" style="stroke: #000000; stroke-width: 0.8"/>
      </g>
     </g>
     <g id="text_16">
      <!-- 70 -->
      <g transform="translate(37.875 152.470047) scale(0.1 -0.1)">
       <use xlink:href="#DejaVuSans-37"/>
       <use xlink:href="#DejaVuSans-30" x="63.623047"/>
      </g>
     </g>
    </g>
    <g id="ytick_6">
     <g id="line2d_16">
      <g>
       <use xlink:href="#m2a37e9b0df" x="57.6" y="112.742295" style="stroke: #000000; stroke-width: 0.8"/>
      </g>
     </g>
     <g id="text_17">
      <!-- 80 -->
      <g transform="translate(37.875 116.541514) scale(0.1 -0.1)">
       <defs>
        <path id="DejaVuSans-38" d="M 2034 2216 
Q 1584 2216 1326 1975 
Q 1069 1734 1069 1313 
Q 1069 891 1326 650 
Q 1584 409 2034 409 
Q 2484 409 2743 651 
Q 3003 894 3003 1313 
Q 3003 1734 2745 1975 
Q 2488 2216 2034 2216 
z
M 1403 2484 
Q 997 2584 770 2862 
Q 544 3141 544 3541 
Q 544 4100 942 4425 
Q 1341 4750 2034 4750 
Q 2731 4750 3128 4425 
Q 3525 4100 3525 3541 
Q 3525 3141 3298 2862 
Q 3072 2584 2669 2484 
Q 3125 2378 3379 2068 
Q 3634 1759 3634 1313 
Q 3634 634 3220 271 
Q 2806 -91 2034 -91 
Q 1263 -91 848 271 
Q 434 634 434 1313 
Q 434 1759 690 2068 
Q 947 2378 1403 2484 
z
M 1172 3481 
Q 1172 3119 1398 2916 
Q 1625 2713 2034 2713 
Q 2441 2713 2670 2916 
Q 2900 3119 2900 3481 
Q 2900 3844 2670 4047 
Q 2441 4250 2034 4250 
Q 1625 4250 1398 4047 
Q 1172 3844 1172 3481 
z
" transform="scale(0.015625)"/>
       </defs>
       <use xlink:href="#DejaVuSans-38"/>
       <use xlink:href="#DejaVuSans-30" x="63.623047"/>
      </g>
     </g>
    </g>
    <g id="ytick_7">
     <g id="line2d_17">
      <g>
       <use xlink:href="#m2a37e9b0df" x="57.6" y="76.813761" style="stroke: #000000; stroke-width: 0.8"/>
      </g>
     </g>
     <g id="text_18">
      <!-- 90 -->
      <g transform="translate(37.875 80.61298) scale(0.1 -0.1)">
       <defs>
        <path id="DejaVuSans-39" d="M 703 97 
L 703 672 
Q 941 559 1184 500 
Q 1428 441 1663 441 
Q 2288 441 2617 861 
Q 2947 1281 2994 2138 
Q 2813 1869 2534 1725 
Q 2256 1581 1919 1581 
Q 1219 1581 811 2004 
Q 403 2428 403 3163 
Q 403 3881 828 4315 
Q 1253 4750 1959 4750 
Q 2769 4750 3195 4129 
Q 3622 3509 3622 2328 
Q 3622 1225 3098 567 
Q 2575 -91 1691 -91 
Q 1453 -91 1209 -44 
Q 966 3 703 97 
z
M 1959 2075 
Q 2384 2075 2632 2365 
Q 2881 2656 2881 3163 
Q 2881 3666 2632 3958 
Q 2384 4250 1959 4250 
Q 1534 4250 1286 3958 
Q 1038 3666 1038 3163 
Q 1038 2656 1286 2365 
Q 1534 2075 1959 2075 
z
" transform="scale(0.015625)"/>
       </defs>
       <use xlink:href="#DejaVuSans-39"/>
       <use xlink:href="#DejaVuSans-30" x="63.623047"/>
      </g>
     </g>
    </g>
    <g id="text_19">
     <!-- Accuracy -->
     <g transform="translate(31.795312 197.356125) rotate(-90) scale(0.1 -0.1)">
      <defs>
       <path id="DejaVuSans-41" d="M 2188 4044 
L 1331 1722 
L 3047 1722 
L 2188 4044 
z
M 1831 4666 
L 2547 4666 
L 4325 0 
L 3669 0 
L 3244 1197 
L 1141 1197 
L 716 0 
L 50 0 
L 1831 4666 
z
" transform="scale(0.015625)"/>
       <path id="DejaVuSans-75" d="M 544 1381 
L 544 3500 
L 1119 3500 
L 1119 1403 
Q 1119 906 1312 657 
Q 1506 409 1894 409 
Q 2359 409 2629 706 
Q 2900 1003 2900 1516 
L 2900 3500 
L 3475 3500 
L 3475 0 
L 2900 0 
L 2900 538 
Q 2691 219 2414 64 
Q 2138 -91 1772 -91 
Q 1169 -91 856 284 
Q 544 659 544 1381 
z
M 1991 3584 
L 1991 3584 
z
" transform="scale(0.015625)"/>
       <path id="DejaVuSans-72" d="M 2631 2963 
Q 2534 3019 2420 3045 
Q 2306 3072 2169 3072 
Q 1681 3072 1420 2755 
Q 1159 2438 1159 1844 
L 1159 0 
L 581 0 
L 581 3500 
L 1159 3500 
L 1159 2956 
Q 1341 3275 1631 3429 
Q 1922 3584 2338 3584 
Q 2397 3584 2469 3576 
Q 2541 3569 2628 3553 
L 2631 2963 
z
" transform="scale(0.015625)"/>
       <path id="DejaVuSans-61" d="M 2194 1759 
Q 1497 1759 1228 1600 
Q 959 1441 959 1056 
Q 959 750 1161 570 
Q 1363 391 1709 391 
Q 2188 391 2477 730 
Q 2766 1069 2766 1631 
L 2766 1759 
L 2194 1759 
z
M 3341 1997 
L 3341 0 
L 2766 0 
L 2766 531 
Q 2569 213 2275 61 
Q 1981 -91 1556 -91 
Q 1019 -91 701 211 
Q 384 513 384 1019 
Q 384 1609 779 1909 
Q 1175 2209 1959 2209 
L 2766 2209 
L 2766 2266 
Q 2766 2663 2505 2880 
Q 2244 3097 1772 3097 
Q 1472 3097 1187 3025 
Q 903 2953 641 2809 
L 641 3341 
Q 956 3463 1253 3523 
Q 1550 3584 1831 3584 
Q 2591 3584 2966 3190 
Q 3341 2797 3341 1997 
z
" transform="scale(0.015625)"/>
       <path id="DejaVuSans-79" d="M 2059 -325 
Q 1816 -950 1584 -1140 
Q 1353 -1331 966 -1331 
L 506 -1331 
L 506 -850 
L 844 -850 
Q 1081 -850 1212 -737 
Q 1344 -625 1503 -206 
L 1606 56 
L 191 3500 
L 800 3500 
L 1894 763 
L 2988 3500 
L 3597 3500 
L 2059 -325 
z
" transform="scale(0.015625)"/>
      </defs>
      <use xlink:href="#DejaVuSans-41"/>
      <use xlink:href="#DejaVuSans-63" x="66.658203"/>
      <use xlink:href="#DejaVuSans-63" x="121.638672"/>
      <use xlink:href="#DejaVuSans-75" x="176.619141"/>
      <use xlink:href="#DejaVuSans-72" x="239.998047"/>
      <use xlink:href="#DejaVuSans-61" x="281.111328"/>
      <use xlink:href="#DejaVuSans-63" x="342.390625"/>
      <use xlink:href="#DejaVuSans-79" x="397.371094"/>
     </g>
    </g>
   </g>
   <g id="line2d_18">
    <path d="M 73.832727 295.488 
L 74.918528 239.082875 
L 76.00433 212.479261 
L 77.090131 195.469332 
L 78.175932 184.380899 
L 79.261733 175.714244 
L 80.347534 170.525748 
L 81.433335 164.640184 
L 82.519137 160.436209 
L 84.690739 150.634121 
L 85.77654 146.013342 
L 86.862341 142.492064 
L 89.033943 136.419656 
L 90.119745 134.019438 
L 91.205546 129.829836 
L 92.291347 129.060903 
L 93.377148 128.715962 
L 94.462949 127.602088 
L 95.54875 152.078563 
L 96.634552 152.150426 
L 97.720353 149.168119 
L 98.806154 146.875696 
L 99.891955 145.639655 
L 100.977756 143.397535 
L 102.063557 142.413015 
L 103.149358 140.724238 
L 104.23516 139.574433 
L 105.320961 137.84254 
L 106.406762 135.356086 
L 107.492563 133.875712 
L 108.578364 131.576102 
L 109.664165 130.296944 
L 110.749967 130.289758 
L 111.835768 127.882353 
L 112.921569 126.437911 
L 114.00737 125.180311 
L 115.093171 124.476056 
L 116.178972 123.426859 
L 117.264773 121.58717 
L 118.350575 120.300826 
L 119.436376 119.28756 
L 120.522177 117.814373 
L 121.607978 116.139969 
L 122.693779 115.572253 
L 123.77958 114.07032 
L 124.865382 111.684474 
L 127.036984 110.671209 
L 129.208586 108.141638 
L 130.294387 106.654077 
L 131.380189 106.186969 
L 133.551791 104.440702 
L 134.637592 104.591614 
L 135.723393 104.48382 
L 136.809194 103.858614 
L 137.894995 102.874093 
L 138.980797 127.44399 
L 140.066598 130.146032 
L 141.152399 128.327903 
L 142.2382 128.694403 
L 143.324001 127.321823 
L 144.409802 127.321823 
L 145.495604 126.085783 
L 146.581405 126.409165 
L 147.667206 124.957537 
L 148.753007 124.181418 
L 149.838808 124.073624 
L 150.924609 122.729789 
L 152.01041 122.621995 
L 153.096212 123.024427 
L 154.182013 120.961964 
L 155.267814 121.191925 
L 156.353615 121.041013 
L 157.439416 119.740296 
L 158.525217 119.359423 
L 159.611019 119.7906 
L 160.69682 117.893422 
L 161.782621 119.201325 
L 162.868422 115.802214 
L 163.954223 116.952019 
L 165.040024 116.693313 
L 166.125825 114.88237 
L 167.211627 115.917194 
L 168.297428 113.969712 
L 169.383229 115.342292 
L 171.554831 112.654622 
L 172.640632 113.071427 
L 173.726434 111.217366 
L 174.812235 111.583866 
L 175.898036 111.260484 
L 176.983837 110.261591 
L 178.069638 108.809962 
L 179.155439 107.861373 
L 180.24124 109.851973 
L 181.327042 108.838707 
L 183.498644 105.748606 
L 184.584445 106.194155 
L 185.670246 105.698302 
L 186.756047 104.189183 
L 187.841849 104.879066 
L 188.92765 104.555683 
L 190.013451 103.92329 
L 191.099252 102.335122 
L 192.185053 102.414171 
L 193.270854 102.011739 
L 194.356656 99.094109 
L 195.442457 100.200796 
L 197.614059 99.115668 
L 198.69986 98.059284 
L 199.785661 98.052098 
L 200.871462 96.542979 
L 201.957264 96.837616 
L 203.043065 95.953704 
L 204.128866 96.176479 
L 205.214667 95.853096 
L 206.300468 95.14884 
L 207.386269 93.646907 
L 208.472071 93.927172 
L 212.815275 92.676759 
L 213.901076 92.992956 
L 214.986877 91.045473 
L 217.15848 91.067032 
L 218.244281 90.829885 
L 219.330082 90.369963 
L 220.415883 91.469464 
L 221.501684 90.075325 
L 222.587486 91.505396 
L 223.673287 90.528061 
L 224.759088 89.98909 
L 225.844889 114.429634 
L 226.93069 117.167607 
L 228.016491 117.843118 
L 229.102292 118.10901 
L 230.188094 118.10901 
L 231.273895 116.880156 
L 232.359696 117.153235 
L 233.445497 116.319626 
L 234.531298 116.132783 
L 236.702901 114.68834 
L 237.788702 114.781762 
L 238.874503 114.027202 
L 239.960304 114.07032 
L 241.046105 113.502604 
L 242.131906 113.545721 
L 243.217708 113.243897 
L 244.303509 112.762417 
L 245.38931 112.668995 
L 246.475111 113.229525 
L 247.560912 111.490445 
L 248.646713 111.562308 
L 249.732514 112.474965 
L 250.818316 110.836493 
L 251.904117 112.07972 
L 252.989918 111.102386 
L 254.075719 111.777896 
L 255.16152 111.713219 
L 256.247321 110.326267 
L 258.418924 110.2041 
L 259.504725 108.982432 
L 260.590526 110.2041 
L 261.676327 109.657943 
L 262.762128 108.975246 
L 263.847929 109.298629 
L 267.105333 107.739206 
L 269.276935 108.515324 
L 270.362736 108.292549 
L 271.448538 108.292549 
L 272.534339 108.012284 
L 273.62014 108.04103 
L 274.705941 107.588294 
L 275.791742 108.357226 
L 276.877543 106.251645 
L 277.963344 106.438489 
L 279.049146 107.200235 
L 280.134947 106.747499 
L 281.220748 105.964194 
L 282.306549 106.697195 
L 283.39235 105.475527 
L 284.478151 105.224007 
L 285.563953 104.455075 
L 286.649754 105.274311 
L 287.735555 105.35336 
L 289.907157 103.952035 
L 290.992958 103.678957 
L 292.07876 104.994046 
L 293.164561 103.175917 
L 294.250362 102.874093 
L 295.336163 103.017819 
L 296.421964 102.148279 
L 297.507765 102.500406 
L 298.593566 102.105161 
L 299.679368 102.284818 
L 300.765169 101.903945 
L 301.85097 101.666798 
L 302.936771 101.68117 
L 304.022572 100.790071 
L 305.108373 100.495434 
L 306.194175 100.660718 
L 307.279976 100.631973 
L 308.365777 100.466689 
L 309.451578 99.719315 
L 310.537379 98.785099 
L 311.62318 98.921638 
L 312.708981 99.934904 
L 313.794783 98.655746 
L 314.880584 97.83651 
L 315.966385 97.786206 
L 317.052186 97.908372 
L 318.137987 97.829323 
L 319.223788 97.02446 
L 320.30959 96.650773 
L 321.395391 96.981342 
L 322.481192 96.499861 
L 323.566993 96.629214 
L 324.652794 95.235076 
L 325.738595 95.378801 
L 326.824396 95.278193 
L 327.910198 95.45785 
L 328.995999 95.062605 
L 330.0818 93.395388 
L 331.167601 93.941545 
L 332.253402 93.690025 
L 333.339203 92.73425 
L 334.425005 92.892348 
L 335.510806 91.720984 
L 336.596607 92.648014 
L 337.682408 92.295886 
L 338.768209 92.259955 
L 339.85401 91.720984 
L 340.939811 92.439612 
L 342.025613 91.663494 
L 343.111414 90.470571 
L 344.197215 89.601031 
L 345.283016 89.471678 
L 346.368817 90.276541 
L 347.454618 88.911148 
L 349.626221 89.342325 
L 350.712022 88.803354 
L 351.797823 89.392629 
L 352.883624 88.408108 
L 353.969425 87.207999 
L 355.055227 86.913362 
L 356.141028 86.798381 
L 357.226829 86.122871 
L 358.31263 86.295341 
L 359.398431 86.237851 
L 360.484232 86.324086 
L 361.570033 85.785115 
L 362.655835 86.000704 
L 363.741636 85.411429 
L 364.827437 85.397056 
L 365.913238 85.102419 
L 366.999039 84.369418 
L 368.08484 84.498771 
L 369.170642 85.533595 
L 370.256443 85.885723 
L 371.342244 86.884616 
L 372.428045 88.091912 
L 373.513846 88.25001 
L 374.599647 87.172068 
L 376.77125 88.975824 
L 377.857051 88.587765 
L 378.942852 88.372177 
L 380.028653 88.472785 
L 381.114454 88.135029 
L 382.200255 88.774608 
L 383.286057 88.034421 
L 384.371858 87.897882 
L 385.457659 87.344538 
L 386.54346 87.660735 
L 387.629261 88.206892 
L 388.715062 88.206892 
L 389.800863 88.566206 
L 390.886665 89.212972 
L 391.972466 89.141109 
L 393.058267 88.048794 
L 394.144068 88.063167 
L 395.229869 87.703853 
L 397.401472 88.084725 
L 398.487273 88.724305 
L 398.487273 88.724305 
" clip-path="url(#p532b2ab069)" style="fill: none; stroke: #1f77b4; stroke-width: 1.5; stroke-linecap: square"/>
   </g>
   <g id="line2d_19">
    <path d="M 73.832727 224.731535 
L 74.918528 224.659678 
L 76.00433 153.664895 
L 78.175932 126.215495 
L 80.347534 112.957866 
L 82.519137 103.975733 
L 83.604938 98.622381 
L 84.690739 93.9876 
L 85.77654 95.065456 
L 86.862341 87.412679 
L 87.948142 85.472538 
L 89.033943 80.729971 
L 90.119745 81.0174 
L 92.291347 79.400616 
L 93.377148 78.107189 
L 94.462949 78.861688 
L 95.54875 97.508597 
L 97.720353 93.053459 
L 98.806154 89.10132 
L 99.891955 93.484601 
L 100.977756 91.436675 
L 102.063557 86.083323 
L 103.149358 84.969538 
L 104.23516 84.286896 
L 105.320961 82.095256 
L 106.406762 81.700042 
L 108.578364 80.334758 
L 109.664165 77.963474 
L 110.749967 77.927546 
L 111.835768 79.149116 
L 112.921569 76.705976 
L 114.00737 77.963474 
L 115.093171 73.759836 
L 116.178972 72.93348 
L 117.264773 71.855624 
L 118.350575 72.250838 
L 119.436376 69.951411 
L 121.607978 69.125055 
L 122.693779 68.154985 
L 123.77958 68.370556 
L 124.865382 67.113057 
L 125.951183 66.035201 
L 127.036984 65.675916 
L 128.122785 64.741774 
L 129.208586 63.484275 
L 130.294387 64.023203 
L 131.380189 63.771704 
L 132.46599 63.089061 
L 134.637592 63.37649 
L 135.723393 62.981276 
L 136.809194 63.412418 
L 137.894995 62.765705 
L 138.980797 77.711975 
L 140.066598 77.244904 
L 141.152399 78.035331 
L 142.2382 76.167048 
L 143.324001 75.12512 
L 144.409802 72.646051 
L 145.495604 81.268899 
L 146.581405 78.610188 
L 147.667206 73.759836 
L 148.753007 76.454476 
L 149.838808 73.113122 
L 150.924609 74.87362 
L 152.01041 72.789766 
L 153.096212 74.047264 
L 154.182013 70.382554 
L 155.267814 72.322695 
L 156.353615 68.586127 
L 157.439416 73.005337 
L 158.525217 70.921482 
L 159.611019 72.322695 
L 160.69682 69.556198 
L 161.782621 70.166983 
L 162.868422 70.023268 
L 163.954223 70.921482 
L 165.040024 68.729841 
L 166.125825 68.837627 
L 167.211627 67.148986 
L 168.297428 71.747838 
L 169.383229 71.065196 
L 170.46903 68.011271 
L 171.554831 66.825629 
L 172.640632 66.394487 
L 173.726434 67.0412 
L 174.812235 65.208845 
L 175.898036 65.891487 
L 176.983837 64.34656 
L 178.069638 67.400485 
L 179.155439 68.119056 
L 180.24124 66.322629 
L 181.327042 64.813631 
L 182.412843 64.633988 
L 183.498644 64.885488 
L 184.584445 65.747773 
L 185.670246 63.37649 
L 186.756047 63.592061 
L 187.841849 62.657919 
L 188.92765 63.340561 
L 190.013451 62.370491 
L 191.099252 61.687849 
L 192.185053 62.406419 
L 193.270854 61.041135 
L 194.356656 60.538136 
L 195.442457 60.538136 
L 196.528258 60.358493 
L 197.614059 61.112992 
L 198.69986 60.035136 
L 199.785661 60.538136 
L 200.871462 60.717778 
L 201.957264 60.394421 
L 203.043065 59.783636 
L 204.128866 59.963279 
L 205.214667 58.454281 
L 206.300468 58.993209 
L 207.386269 58.382424 
L 208.472071 57.520139 
L 210.643673 58.454281 
L 211.729474 58.059067 
L 212.815275 57.448282 
L 213.901076 57.412353 
L 214.986877 57.951281 
L 216.072679 57.053068 
L 217.15848 57.591996 
L 218.244281 57.124925 
L 219.330082 56.873425 
L 220.415883 56.873425 
L 221.501684 57.448282 
L 222.587486 57.017139 
L 224.759088 57.268639 
L 225.844889 70.669982 
L 226.93069 75.161049 
L 228.016491 72.286766 
L 229.102292 70.346625 
L 230.188094 72.322695 
L 231.273895 70.705911 
L 232.359696 75.304763 
L 233.445497 69.879554 
L 234.531298 70.562196 
L 235.617099 69.807697 
L 236.702901 68.909484 
L 237.788702 68.945412 
L 238.874503 68.76577 
L 239.960304 73.220908 
L 241.046105 70.131054 
L 242.131906 67.616057 
L 243.217708 67.723842 
L 244.303509 67.687914 
L 245.38931 69.520269 
L 246.475111 66.502272 
L 247.560912 66.394487 
L 248.646713 67.184914 
L 250.818316 67.005272 
L 251.904117 70.274768 
L 252.989918 65.747773 
L 254.075719 67.5442 
L 255.16152 67.939413 
L 256.247321 66.7897 
L 257.333123 67.616057 
L 258.418924 64.885488 
L 259.504725 67.364557 
L 260.590526 67.616057 
L 261.676327 66.574129 
L 262.762128 67.400485 
L 263.847929 65.711844 
L 264.933731 64.418417 
L 266.019532 65.81963 
L 267.105333 65.711844 
L 268.191134 66.933415 
L 269.276935 64.669917 
L 270.362736 65.316631 
L 271.448538 64.885488 
L 272.534339 66.286701 
L 273.62014 65.855559 
L 274.705941 65.711844 
L 275.791742 66.610058 
L 276.877543 65.352559 
L 277.963344 66.933415 
L 279.049146 64.562131 
L 280.134947 65.029202 
L 281.220748 65.244773 
L 282.306549 63.268704 
L 283.39235 65.065131 
L 284.478151 62.514205 
L 285.563953 64.34656 
L 286.649754 64.777703 
L 287.735555 62.837562 
L 288.821356 62.586062 
L 289.907157 63.592061 
L 290.992958 64.166917 
L 292.07876 63.879489 
L 293.164561 62.406419 
L 294.250362 63.915418 
L 295.336163 64.202846 
L 296.421964 62.478276 
L 297.507765 63.37649 
L 299.679368 63.340561 
L 300.765169 62.118991 
L 301.85097 61.436349 
L 302.936771 63.412418 
L 304.022572 61.472277 
L 305.108373 62.15492 
L 306.194175 60.142922 
L 307.279976 60.789635 
L 308.365777 62.550133 
L 309.451578 60.897421 
L 310.537379 61.580063 
L 311.62318 60.142922 
L 313.794783 61.90342 
L 314.880584 59.891422 
L 315.966385 60.035136 
L 318.137987 61.220778 
L 319.223788 60.17885 
L 320.30959 60.322564 
L 321.395391 58.669852 
L 322.481192 59.999208 
L 323.566993 59.819565 
L 324.652794 58.777637 
L 325.738595 58.238709 
L 327.910198 58.741709 
L 328.995999 57.591996 
L 330.0818 58.777637 
L 331.167601 58.849494 
L 332.253402 58.202781 
L 333.339203 58.454281 
L 334.425005 57.556067 
L 335.510806 57.951281 
L 336.596607 57.160853 
L 337.682408 56.801568 
L 338.768209 57.124925 
L 339.85401 56.442283 
L 340.939811 57.017139 
L 342.025613 57.196782 
L 343.111414 56.801568 
L 344.197215 56.621925 
L 345.283016 57.053068 
L 346.368817 57.663853 
L 347.454618 56.945282 
L 348.54042 55.795569 
L 349.626221 55.759641 
L 350.712022 56.442283 
L 352.883624 56.298569 
L 353.969425 55.436284 
L 355.055227 55.400355 
L 356.141028 55.615926 
L 357.226829 56.190783 
L 358.31263 55.975212 
L 359.398431 54.969213 
L 360.484232 54.53807 
L 361.570033 55.472212 
L 362.655835 54.861427 
L 363.741636 54.609927 
L 364.827437 55.29257 
L 365.913238 54.933284 
L 366.999039 54.250642 
L 368.08484 54.286571 
L 369.170642 54.897356 
L 370.256443 55.687783 
L 371.342244 55.508141 
L 373.513846 55.831498 
L 374.599647 56.298569 
L 375.685448 56.406354 
L 376.77125 55.508141 
L 378.942852 56.442283 
L 380.028653 55.328498 
L 381.114454 55.579998 
L 382.200255 56.118926 
L 383.286057 57.48421 
L 384.371858 55.615926 
L 385.457659 56.226711 
L 386.54346 56.981211 
L 387.629261 56.298569 
L 388.715062 55.795569 
L 389.800863 56.26264 
L 390.886665 55.795569 
L 391.972466 56.154854 
L 393.058267 55.220713 
L 394.144068 56.118926 
L 395.229869 56.801568 
L 396.31567 55.148855 
L 397.401472 55.723712 
L 398.487273 55.795569 
L 398.487273 55.795569 
" clip-path="url(#p532b2ab069)" style="fill: none; stroke: #ff7f0e; stroke-width: 1.5; stroke-linecap: square"/>
   </g>
   <g id="line2d_20">
    <path d="M 73.832727 245.628313 
L 74.918528 251.996336 
L 76.00433 184.549806 
L 77.090131 177.364099 
L 79.261733 156.22821 
L 80.347534 153.725602 
L 81.433335 145.994772 
L 82.519137 146.341669 
L 83.604938 135.563109 
L 84.690739 132.490599 
L 85.77654 131.326019 
L 86.862341 123.050067 
L 87.948142 118.267856 
L 89.033943 115.467908 
L 90.119745 114.699781 
L 91.205546 113.138748 
L 92.291347 113.510422 
L 93.377148 112.345842 
L 94.462949 112.742295 
L 95.54875 135.860448 
L 96.634552 134.621533 
L 97.720353 128.897746 
L 98.806154 127.08893 
L 99.891955 132.763161 
L 100.977756 129.393312 
L 102.063557 124.313761 
L 103.149358 122.628836 
L 104.23516 118.168743 
L 105.320961 116.384705 
L 106.406762 116.384705 
L 107.492563 117.028941 
L 108.578364 117.32628 
L 109.664165 117.945738 
L 110.749967 113.312196 
L 111.835768 119.308544 
L 112.921569 114.798894 
L 114.00737 112.866187 
L 115.093171 108.852102 
L 116.178972 107.960083 
L 118.350575 105.730036 
L 119.436376 106.770725 
L 120.522177 104.441565 
L 121.607978 103.673438 
L 122.693779 99.386792 
L 123.77958 102.731862 
L 124.865382 98.54433 
L 125.951183 98.023985 
L 127.036984 98.24699 
L 128.122785 97.305415 
L 129.208586 94.332019 
L 130.294387 94.629358 
L 131.380189 94.505467 
L 132.46599 92.969212 
L 133.551791 94.827585 
L 134.637592 93.340887 
L 135.723393 92.324977 
L 136.809194 93.192217 
L 137.894995 92.473646 
L 138.980797 113.510422 
L 140.066598 117.797068 
L 141.152399 115.29446 
L 142.2382 111.775941 
L 143.324001 112.9653 
L 144.409802 109.967126 
L 145.495604 114.798894 
L 146.581405 116.186479 
L 147.667206 112.073281 
L 148.753007 112.767073 
L 149.838808 108.306979 
L 150.924609 108.554762 
L 152.01041 106.54772 
L 153.096212 108.306979 
L 154.182013 107.117621 
L 155.267814 109.843234 
L 156.353615 106.919395 
L 157.439416 109.248555 
L 158.525217 107.836192 
L 159.611019 114.675002 
L 160.69682 106.869838 
L 161.782621 103.871664 
L 162.868422 104.342452 
L 163.954223 107.216734 
L 165.040024 104.565456 
L 166.125825 105.23447 
L 167.211627 102.18674 
L 168.297428 106.820282 
L 169.383229 106.299937 
L 170.46903 102.161961 
L 171.554831 100.947825 
L 172.640632 98.866448 
L 173.726434 102.434523 
L 174.812235 99.808023 
L 175.898036 100.923046 
L 176.983837 97.602754 
L 178.069638 98.469995 
L 179.155439 100.823933 
L 180.24124 98.692999 
L 181.327042 97.181523 
L 182.412843 100.600928 
L 183.498644 101.046938 
L 184.584445 99.461127 
L 185.670246 93.73734 
L 186.756047 95.248816 
L 187.841849 93.935566 
L 188.92765 95.91783 
L 190.013451 92.27542 
L 191.099252 91.97808 
L 192.185053 93.73734 
L 193.270854 90.466604 
L 194.356656 91.482514 
L 195.442457 91.606406 
L 196.528258 89.103798 
L 197.614059 91.408179 
L 198.69986 89.401137 
L 199.785661 89.277246 
L 200.871462 91.309066 
L 201.957264 87.988774 
L 203.043065 87.840104 
L 204.128866 88.756901 
L 205.214667 85.089713 
L 206.300468 86.526855 
L 207.386269 86.799416 
L 208.472071 84.569369 
L 209.557872 84.718039 
L 210.643673 85.610057 
L 211.729474 84.916265 
L 213.901076 84.792374 
L 214.986877 84.495034 
L 216.072679 83.925133 
L 217.15848 84.024246 
L 218.244281 83.578237 
L 219.330082 82.859666 
L 220.415883 83.107449 
L 221.501684 83.52868 
L 222.587486 83.181784 
L 223.673287 83.553459 
L 224.759088 82.934001 
L 225.844889 107.538852 
L 226.93069 110.735253 
L 228.016491 111.775941 
L 229.102292 109.570673 
L 230.188094 111.379489 
L 231.273895 103.846886 
L 232.359696 110.611361 
L 233.445497 105.903484 
L 234.531298 107.216734 
L 235.617099 104.937131 
L 236.702901 103.029202 
L 237.788702 109.793677 
L 238.874503 102.484079 
L 239.960304 109.694564 
L 241.046105 107.86097 
L 242.131906 102.75664 
L 243.217708 101.59206 
L 244.303509 102.013292 
L 245.38931 105.036244 
L 246.475111 102.03807 
L 247.560912 102.954867 
L 248.646713 106.869838 
L 249.732514 103.599103 
L 250.818316 103.698216 
L 251.904117 106.225602 
L 252.989918 98.891226 
L 254.075719 102.806197 
L 255.16152 102.484079 
L 256.247321 99.684131 
L 257.333123 104.119447 
L 258.418924 100.328367 
L 259.504725 104.392008 
L 260.590526 102.707084 
L 261.676327 100.278811 
L 262.762128 100.72482 
L 263.847929 100.229254 
L 264.933731 97.776202 
L 266.019532 101.245164 
L 267.105333 100.328367 
L 268.191134 98.990339 
L 269.276935 100.055806 
L 270.362736 100.774377 
L 271.448538 95.62049 
L 272.534339 100.650485 
L 273.62014 99.659353 
L 274.705941 100.57615 
L 275.791742 100.650485 
L 276.877543 96.834627 
L 277.963344 99.039896 
L 279.049146 95.570934 
L 280.134947 99.238122 
L 281.220748 98.916004 
L 282.306549 100.179697 
L 283.39235 97.354971 
L 284.478151 94.976255 
L 285.563953 99.362014 
L 286.649754 98.073542 
L 287.735555 97.999207 
L 288.821356 95.595712 
L 289.907157 95.595712 
L 292.07876 95.347929 
L 293.164561 95.868273 
L 294.250362 98.494773 
L 295.336163 97.08241 
L 296.421964 96.834627 
L 297.507765 94.951476 
L 298.593566 95.967387 
L 299.679368 96.289504 
L 300.765169 97.206301 
L 301.85097 94.778028 
L 302.936771 96.661179 
L 304.022572 92.473646 
L 305.108373 93.762118 
L 306.194175 93.836453 
L 307.279976 92.523203 
L 308.365777 94.208127 
L 309.451578 90.664831 
L 310.537379 92.721429 
L 311.62318 93.464778 
L 312.708981 90.986948 
L 313.794783 91.185175 
L 314.880584 89.202911 
L 315.966385 89.921482 
L 317.052186 92.498425 
L 318.137987 90.491382 
L 319.223788 91.408179 
L 320.30959 91.309066 
L 321.395391 88.236557 
L 322.481192 89.574585 
L 323.566993 91.631184 
L 324.652794 89.64892 
L 325.738595 90.045373 
L 326.824396 87.815326 
L 327.910198 88.434784 
L 328.995999 87.6171 
L 330.0818 91.333845 
L 331.167601 87.022421 
L 332.253402 86.502076 
L 333.339203 87.344538 
L 334.425005 86.650746 
L 335.510806 87.691435 
L 336.596607 85.684392 
L 337.682408 86.328628 
L 338.768209 85.461388 
L 339.85401 85.535723 
L 340.939811 85.981732 
L 342.025613 84.792374 
L 343.111414 85.783506 
L 344.197215 85.709171 
L 345.283016 83.801242 
L 346.368817 83.206562 
L 347.454618 84.470256 
L 348.54042 83.057893 
L 349.626221 83.949911 
L 350.712022 84.420699 
L 351.797823 83.850798 
L 352.883624 83.454345 
L 353.969425 82.463214 
L 355.055227 83.206562 
L 356.141028 82.958779 
L 357.226829 83.033114 
L 358.31263 82.834888 
L 359.398431 81.397747 
L 360.484232 80.580063 
L 361.570033 81.34819 
L 362.655835 79.266813 
L 363.741636 79.911049 
L 364.827437 79.861492 
L 365.913238 80.233167 
L 366.999039 79.514596 
L 368.08484 79.118143 
L 369.170642 80.976516 
L 370.256443 80.307501 
L 371.342244 82.710997 
L 372.428045 82.51277 
L 373.513846 83.875577 
L 374.599647 84.12336 
L 375.685448 82.141096 
L 376.77125 82.934001 
L 377.857051 82.264987 
L 378.942852 85.535723 
L 380.028653 81.868534 
L 381.114454 83.008336 
L 382.200255 83.503902 
L 383.286057 84.941043 
L 384.371858 83.231341 
L 385.457659 83.67735 
L 386.54346 83.503902 
L 387.629261 82.735775 
L 388.715062 83.776463 
L 389.800863 82.587105 
L 390.886665 82.165874 
L 391.972466 82.141096 
L 393.058267 82.438435 
L 394.144068 82.438435 
L 395.229869 83.850798 
L 396.31567 83.52868 
L 397.401472 83.801242 
L 398.487273 84.247251 
L 398.487273 84.247251 
" clip-path="url(#p532b2ab069)" style="fill: none; stroke: #2ca02c; stroke-width: 1.5; stroke-linecap: square"/>
   </g>
   <g id="line2d_21">
    <path d="M 368.08484 54.142857 
L 369.170642 53.568 
L 370.256443 54.573999 
L 371.342244 53.963214 
L 372.428045 53.603929 
L 373.513846 53.568 
L 374.599647 54.645856 
L 375.685448 54.394356 
L 376.77125 53.927285 
L 377.857051 54.035071 
L 378.942852 55.005141 
L 380.028653 54.142857 
L 381.114454 54.070999 
L 382.200255 54.358428 
L 383.286057 54.035071 
L 386.54346 54.035071 
L 387.629261 55.04107 
L 388.715062 54.430285 
L 389.800863 53.675786 
L 390.886665 54.573999 
L 391.972466 54.070999 
L 393.058267 55.328498 
L 394.144068 55.400355 
L 395.229869 54.969213 
L 396.31567 55.328498 
L 397.401472 55.04107 
L 398.487273 54.322499 
L 398.487273 54.322499 
" clip-path="url(#p532b2ab069)" style="fill: none; stroke: #d62728; stroke-width: 1.5; stroke-linecap: square"/>
   </g>
   <g id="line2d_22">
    <path d="M 368.08484 78.87036 
L 369.170642 78.771247 
L 370.256443 78.151789 
L 372.428045 77.85445 
L 373.513846 77.681002 
L 374.599647 78.399572 
L 375.685448 78.72169 
L 376.77125 77.284549 
L 377.857051 77.904006 
L 378.942852 78.919917 
L 380.028653 77.631445 
L 381.114454 77.780115 
L 382.200255 77.606667 
L 383.286057 78.424351 
L 384.371858 77.111101 
L 385.457659 77.829672 
L 386.54346 77.928785 
L 387.629261 77.135879 
L 388.715062 78.374794 
L 389.800863 77.631445 
L 390.886665 79.911049 
L 391.972466 77.086323 
L 393.058267 78.746469 
L 394.144068 78.87036 
L 395.229869 80.208388 
L 396.31567 79.390704 
L 397.401472 78.250903 
L 398.487273 79.142921 
L 398.487273 79.142921 
" clip-path="url(#p532b2ab069)" style="fill: none; stroke: #9467bd; stroke-width: 1.5; stroke-linecap: square"/>
   </g>
   <g id="patch_3">
    <path d="M 57.6 307.584 
L 57.6 41.472 
" style="fill: none; stroke: #000000; stroke-width: 0.8; stroke-linejoin: miter; stroke-linecap: square"/>
   </g>
   <g id="patch_4">
    <path d="M 414.72 307.584 
L 414.72 41.472 
" style="fill: none; stroke: #000000; stroke-width: 0.8; stroke-linejoin: miter; stroke-linecap: square"/>
   </g>
   <g id="patch_5">
    <path d="M 57.6 307.584 
L 414.72 307.584 
" style="fill: none; stroke: #000000; stroke-width: 0.8; stroke-linejoin: miter; stroke-linecap: square"/>
   </g>
   <g id="patch_6">
    <path d="M 57.6 41.472 
L 414.72 41.472 
" style="fill: none; stroke: #000000; stroke-width: 0.8; stroke-linejoin: miter; stroke-linecap: square"/>
   </g>
   <g id="text_20">
    <!-- Learning Curves -->
    <g transform="translate(187.37625 35.472) scale(0.12 -0.12)">
     <defs>
      <path id="DejaVuSans-4c" d="M 628 4666 
L 1259 4666 
L 1259 531 
L 3531 531 
L 3531 0 
L 628 0 
L 628 4666 
z
" transform="scale(0.015625)"/>
      <path id="DejaVuSans-65" d="M 3597 1894 
L 3597 1613 
L 953 1613 
Q 991 1019 1311 708 
Q 1631 397 2203 397 
Q 2534 397 2845 478 
Q 3156 559 3463 722 
L 3463 178 
Q 3153 47 2828 -22 
Q 2503 -91 2169 -91 
Q 1331 -91 842 396 
Q 353 884 353 1716 
Q 353 2575 817 3079 
Q 1281 3584 2069 3584 
Q 2775 3584 3186 3129 
Q 3597 2675 3597 1894 
z
M 3022 2063 
Q 3016 2534 2758 2815 
Q 2500 3097 2075 3097 
Q 1594 3097 1305 2825 
Q 1016 2553 972 2059 
L 3022 2063 
z
" transform="scale(0.015625)"/>
      <path id="DejaVuSans-6e" d="M 3513 2113 
L 3513 0 
L 2938 0 
L 2938 2094 
Q 2938 2591 2744 2837 
Q 2550 3084 2163 3084 
Q 1697 3084 1428 2787 
Q 1159 2491 1159 1978 
L 1159 0 
L 581 0 
L 581 3500 
L 1159 3500 
L 1159 2956 
Q 1366 3272 1645 3428 
Q 1925 3584 2291 3584 
Q 2894 3584 3203 3211 
Q 3513 2838 3513 2113 
z
" transform="scale(0.015625)"/>
      <path id="DejaVuSans-69" d="M 603 3500 
L 1178 3500 
L 1178 0 
L 603 0 
L 603 3500 
z
M 603 4863 
L 1178 4863 
L 1178 4134 
L 603 4134 
L 603 4863 
z
" transform="scale(0.015625)"/>
      <path id="DejaVuSans-67" d="M 2906 1791 
Q 2906 2416 2648 2759 
Q 2391 3103 1925 3103 
Q 1463 3103 1205 2759 
Q 947 2416 947 1791 
Q 947 1169 1205 825 
Q 1463 481 1925 481 
Q 2391 481 2648 825 
Q 2906 1169 2906 1791 
z
M 3481 434 
Q 3481 -459 3084 -895 
Q 2688 -1331 1869 -1331 
Q 1566 -1331 1297 -1286 
Q 1028 -1241 775 -1147 
L 775 -588 
Q 1028 -725 1275 -790 
Q 1522 -856 1778 -856 
Q 2344 -856 2625 -561 
Q 2906 -266 2906 331 
L 2906 616 
Q 2728 306 2450 153 
Q 2172 0 1784 0 
Q 1141 0 747 490 
Q 353 981 353 1791 
Q 353 2603 747 3093 
Q 1141 3584 1784 3584 
Q 2172 3584 2450 3431 
Q 2728 3278 2906 2969 
L 2906 3500 
L 3481 3500 
L 3481 434 
z
" transform="scale(0.015625)"/>
      <path id="DejaVuSans-20" transform="scale(0.015625)"/>
      <path id="DejaVuSans-43" d="M 4122 4306 
L 4122 3641 
Q 3803 3938 3442 4084 
Q 3081 4231 2675 4231 
Q 1875 4231 1450 3742 
Q 1025 3253 1025 2328 
Q 1025 1406 1450 917 
Q 1875 428 2675 428 
Q 3081 428 3442 575 
Q 3803 722 4122 1019 
L 4122 359 
Q 3791 134 3420 21 
Q 3050 -91 2638 -91 
Q 1578 -91 968 557 
Q 359 1206 359 2328 
Q 359 3453 968 4101 
Q 1578 4750 2638 4750 
Q 3056 4750 3426 4639 
Q 3797 4528 4122 4306 
z
" transform="scale(0.015625)"/>
      <path id="DejaVuSans-76" d="M 191 3500 
L 800 3500 
L 1894 563 
L 2988 3500 
L 3597 3500 
L 2284 0 
L 1503 0 
L 191 3500 
z
" transform="scale(0.015625)"/>
     </defs>
     <use xlink:href="#DejaVuSans-4c"/>
     <use xlink:href="#DejaVuSans-65" x="53.962891"/>
     <use xlink:href="#DejaVuSans-61" x="115.486328"/>
     <use xlink:href="#DejaVuSans-72" x="176.765625"/>
     <use xlink:href="#DejaVuSans-6e" x="216.128906"/>
     <use xlink:href="#DejaVuSans-69" x="279.507812"/>
     <use xlink:href="#DejaVuSans-6e" x="307.291016"/>
     <use xlink:href="#DejaVuSans-67" x="370.669922"/>
     <use xlink:href="#DejaVuSans-20" x="434.146484"/>
     <use xlink:href="#DejaVuSans-43" x="465.933594"/>
     <use xlink:href="#DejaVuSans-75" x="535.757812"/>
     <use xlink:href="#DejaVuSans-72" x="599.136719"/>
     <use xlink:href="#DejaVuSans-76" x="640.25"/>
     <use xlink:href="#DejaVuSans-65" x="699.429688"/>
     <use xlink:href="#DejaVuSans-73" x="760.953125"/>
    </g>
   </g>
   <g id="legend_1">
    <g id="patch_7">
     <path d="M 214.18875 302.584 
L 407.72 302.584 
Q 409.72 302.584 409.72 300.584 
L 409.72 228.193375 
Q 409.72 226.193375 407.72 226.193375 
L 214.18875 226.193375 
Q 212.18875 226.193375 212.18875 228.193375 
L 212.18875 300.584 
Q 212.18875 302.584 214.18875 302.584 
z
" style="fill: #ffffff; opacity: 0.8; stroke: #cccccc; stroke-linejoin: miter"/>
    </g>
    <g id="line2d_23">
     <path d="M 216.18875 234.291812 
L 226.18875 234.291812 
L 236.18875 234.291812 
" style="fill: none; stroke: #1f77b4; stroke-width: 1.5; stroke-linecap: square"/>
    </g>
    <g id="text_21">
     <!-- Train Accuracy -->
     <g transform="translate(244.18875 237.791812) scale(0.1 -0.1)">
      <defs>
       <path id="DejaVuSans-54" d="M -19 4666 
L 3928 4666 
L 3928 4134 
L 2272 4134 
L 2272 0 
L 1638 0 
L 1638 4134 
L -19 4134 
L -19 4666 
z
" transform="scale(0.015625)"/>
      </defs>
      <use xlink:href="#DejaVuSans-54"/>
      <use xlink:href="#DejaVuSans-72" x="46.333984"/>
      <use xlink:href="#DejaVuSans-61" x="87.447266"/>
      <use xlink:href="#DejaVuSans-69" x="148.726562"/>
      <use xlink:href="#DejaVuSans-6e" x="176.509766"/>
      <use xlink:href="#DejaVuSans-20" x="239.888672"/>
      <use xlink:href="#DejaVuSans-41" x="271.675781"/>
      <use xlink:href="#DejaVuSans-63" x="338.333984"/>
      <use xlink:href="#DejaVuSans-63" x="393.314453"/>
      <use xlink:href="#DejaVuSans-75" x="448.294922"/>
      <use xlink:href="#DejaVuSans-72" x="511.673828"/>
      <use xlink:href="#DejaVuSans-61" x="552.787109"/>
      <use xlink:href="#DejaVuSans-63" x="614.066406"/>
      <use xlink:href="#DejaVuSans-79" x="669.046875"/>
     </g>
    </g>
    <g id="line2d_24">
     <path d="M 216.18875 248.969937 
L 226.18875 248.969937 
L 236.18875 248.969937 
" style="fill: none; stroke: #ff7f0e; stroke-width: 1.5; stroke-linecap: square"/>
    </g>
    <g id="text_22">
     <!-- Validation Accuracy -->
     <g transform="translate(244.18875 252.469937) scale(0.1 -0.1)">
      <defs>
       <path id="DejaVuSans-56" d="M 1831 0 
L 50 4666 
L 709 4666 
L 2188 738 
L 3669 4666 
L 4325 4666 
L 2547 0 
L 1831 0 
z
" transform="scale(0.015625)"/>
       <path id="DejaVuSans-6c" d="M 603 4863 
L 1178 4863 
L 1178 0 
L 603 0 
L 603 4863 
z
" transform="scale(0.015625)"/>
       <path id="DejaVuSans-64" d="M 2906 2969 
L 2906 4863 
L 3481 4863 
L 3481 0 
L 2906 0 
L 2906 525 
Q 2725 213 2448 61 
Q 2172 -91 1784 -91 
Q 1150 -91 751 415 
Q 353 922 353 1747 
Q 353 2572 751 3078 
Q 1150 3584 1784 3584 
Q 2172 3584 2448 3432 
Q 2725 3281 2906 2969 
z
M 947 1747 
Q 947 1113 1208 752 
Q 1469 391 1925 391 
Q 2381 391 2643 752 
Q 2906 1113 2906 1747 
Q 2906 2381 2643 2742 
Q 2381 3103 1925 3103 
Q 1469 3103 1208 2742 
Q 947 2381 947 1747 
z
" transform="scale(0.015625)"/>
       <path id="DejaVuSans-74" d="M 1172 4494 
L 1172 3500 
L 2356 3500 
L 2356 3053 
L 1172 3053 
L 1172 1153 
Q 1172 725 1289 603 
Q 1406 481 1766 481 
L 2356 481 
L 2356 0 
L 1766 0 
Q 1100 0 847 248 
Q 594 497 594 1153 
L 594 3053 
L 172 3053 
L 172 3500 
L 594 3500 
L 594 4494 
L 1172 4494 
z
" transform="scale(0.015625)"/>
      </defs>
      <use xlink:href="#DejaVuSans-56"/>
      <use xlink:href="#DejaVuSans-61" x="60.658203"/>
      <use xlink:href="#DejaVuSans-6c" x="121.9375"/>
      <use xlink:href="#DejaVuSans-69" x="149.720703"/>
      <use xlink:href="#DejaVuSans-64" x="177.503906"/>
      <use xlink:href="#DejaVuSans-61" x="240.980469"/>
      <use xlink:href="#DejaVuSans-74" x="302.259766"/>
      <use xlink:href="#DejaVuSans-69" x="341.46875"/>
      <use xlink:href="#DejaVuSans-6f" x="369.251953"/>
      <use xlink:href="#DejaVuSans-6e" x="430.433594"/>
      <use xlink:href="#DejaVuSans-20" x="493.8125"/>
      <use xlink:href="#DejaVuSans-41" x="525.599609"/>
      <use xlink:href="#DejaVuSans-63" x="592.257812"/>
      <use xlink:href="#DejaVuSans-63" x="647.238281"/>
      <use xlink:href="#DejaVuSans-75" x="702.21875"/>
      <use xlink:href="#DejaVuSans-72" x="765.597656"/>
      <use xlink:href="#DejaVuSans-61" x="806.710938"/>
      <use xlink:href="#DejaVuSans-63" x="867.990234"/>
      <use xlink:href="#DejaVuSans-79" x="922.970703"/>
     </g>
    </g>
    <g id="line2d_25">
     <path d="M 216.18875 263.648062 
L 226.18875 263.648062 
L 236.18875 263.648062 
" style="fill: none; stroke: #2ca02c; stroke-width: 1.5; stroke-linecap: square"/>
    </g>
    <g id="text_23">
     <!-- Robust Validation Accuracy -->
     <g transform="translate(244.18875 267.148062) scale(0.1 -0.1)">
      <defs>
       <path id="DejaVuSans-52" d="M 2841 2188 
Q 3044 2119 3236 1894 
Q 3428 1669 3622 1275 
L 4263 0 
L 3584 0 
L 2988 1197 
Q 2756 1666 2539 1819 
Q 2322 1972 1947 1972 
L 1259 1972 
L 1259 0 
L 628 0 
L 628 4666 
L 2053 4666 
Q 2853 4666 3247 4331 
Q 3641 3997 3641 3322 
Q 3641 2881 3436 2590 
Q 3231 2300 2841 2188 
z
M 1259 4147 
L 1259 2491 
L 2053 2491 
Q 2509 2491 2742 2702 
Q 2975 2913 2975 3322 
Q 2975 3731 2742 3939 
Q 2509 4147 2053 4147 
L 1259 4147 
z
" transform="scale(0.015625)"/>
       <path id="DejaVuSans-62" d="M 3116 1747 
Q 3116 2381 2855 2742 
Q 2594 3103 2138 3103 
Q 1681 3103 1420 2742 
Q 1159 2381 1159 1747 
Q 1159 1113 1420 752 
Q 1681 391 2138 391 
Q 2594 391 2855 752 
Q 3116 1113 3116 1747 
z
M 1159 2969 
Q 1341 3281 1617 3432 
Q 1894 3584 2278 3584 
Q 2916 3584 3314 3078 
Q 3713 2572 3713 1747 
Q 3713 922 3314 415 
Q 2916 -91 2278 -91 
Q 1894 -91 1617 61 
Q 1341 213 1159 525 
L 1159 0 
L 581 0 
L 581 4863 
L 1159 4863 
L 1159 2969 
z
" transform="scale(0.015625)"/>
      </defs>
      <use xlink:href="#DejaVuSans-52"/>
      <use xlink:href="#DejaVuSans-6f" x="64.982422"/>
      <use xlink:href="#DejaVuSans-62" x="126.164062"/>
      <use xlink:href="#DejaVuSans-75" x="189.640625"/>
      <use xlink:href="#DejaVuSans-73" x="253.019531"/>
      <use xlink:href="#DejaVuSans-74" x="305.119141"/>
      <use xlink:href="#DejaVuSans-20" x="344.328125"/>
      <use xlink:href="#DejaVuSans-56" x="376.115234"/>
      <use xlink:href="#DejaVuSans-61" x="436.773438"/>
      <use xlink:href="#DejaVuSans-6c" x="498.052734"/>
      <use xlink:href="#DejaVuSans-69" x="525.835938"/>
      <use xlink:href="#DejaVuSans-64" x="553.619141"/>
      <use xlink:href="#DejaVuSans-61" x="617.095703"/>
      <use xlink:href="#DejaVuSans-74" x="678.375"/>
      <use xlink:href="#DejaVuSans-69" x="717.583984"/>
      <use xlink:href="#DejaVuSans-6f" x="745.367188"/>
      <use xlink:href="#DejaVuSans-6e" x="806.548828"/>
      <use xlink:href="#DejaVuSans-20" x="869.927734"/>
      <use xlink:href="#DejaVuSans-41" x="901.714844"/>
      <use xlink:href="#DejaVuSans-63" x="968.373047"/>
      <use xlink:href="#DejaVuSans-63" x="1023.353516"/>
      <use xlink:href="#DejaVuSans-75" x="1078.333984"/>
      <use xlink:href="#DejaVuSans-72" x="1141.712891"/>
      <use xlink:href="#DejaVuSans-61" x="1182.826172"/>
      <use xlink:href="#DejaVuSans-63" x="1244.105469"/>
      <use xlink:href="#DejaVuSans-79" x="1299.085938"/>
     </g>
    </g>
    <g id="line2d_26">
     <path d="M 216.18875 278.326188 
L 226.18875 278.326188 
L 236.18875 278.326188 
" style="fill: none; stroke: #d62728; stroke-width: 1.5; stroke-linecap: square"/>
    </g>
    <g id="text_24">
     <!-- SWA Validation Accuracy -->
     <g transform="translate(244.18875 281.826188) scale(0.1 -0.1)">
      <defs>
       <path id="DejaVuSans-53" d="M 3425 4513 
L 3425 3897 
Q 3066 4069 2747 4153 
Q 2428 4238 2131 4238 
Q 1616 4238 1336 4038 
Q 1056 3838 1056 3469 
Q 1056 3159 1242 3001 
Q 1428 2844 1947 2747 
L 2328 2669 
Q 3034 2534 3370 2195 
Q 3706 1856 3706 1288 
Q 3706 609 3251 259 
Q 2797 -91 1919 -91 
Q 1588 -91 1214 -16 
Q 841 59 441 206 
L 441 856 
Q 825 641 1194 531 
Q 1563 422 1919 422 
Q 2459 422 2753 634 
Q 3047 847 3047 1241 
Q 3047 1584 2836 1778 
Q 2625 1972 2144 2069 
L 1759 2144 
Q 1053 2284 737 2584 
Q 422 2884 422 3419 
Q 422 4038 858 4394 
Q 1294 4750 2059 4750 
Q 2388 4750 2728 4690 
Q 3069 4631 3425 4513 
z
" transform="scale(0.015625)"/>
       <path id="DejaVuSans-57" d="M 213 4666 
L 850 4666 
L 1831 722 
L 2809 4666 
L 3519 4666 
L 4500 722 
L 5478 4666 
L 6119 4666 
L 4947 0 
L 4153 0 
L 3169 4050 
L 2175 0 
L 1381 0 
L 213 4666 
z
" transform="scale(0.015625)"/>
      </defs>
      <use xlink:href="#DejaVuSans-53"/>
      <use xlink:href="#DejaVuSans-57" x="63.476562"/>
      <use xlink:href="#DejaVuSans-41" x="156.853516"/>
      <use xlink:href="#DejaVuSans-20" x="225.261719"/>
      <use xlink:href="#DejaVuSans-56" x="257.048828"/>
      <use xlink:href="#DejaVuSans-61" x="317.707031"/>
      <use xlink:href="#DejaVuSans-6c" x="378.986328"/>
      <use xlink:href="#DejaVuSans-69" x="406.769531"/>
      <use xlink:href="#DejaVuSans-64" x="434.552734"/>
      <use xlink:href="#DejaVuSans-61" x="498.029297"/>
      <use xlink:href="#DejaVuSans-74" x="559.308594"/>
      <use xlink:href="#DejaVuSans-69" x="598.517578"/>
      <use xlink:href="#DejaVuSans-6f" x="626.300781"/>
      <use xlink:href="#DejaVuSans-6e" x="687.482422"/>
      <use xlink:href="#DejaVuSans-20" x="750.861328"/>
      <use xlink:href="#DejaVuSans-41" x="782.648438"/>
      <use xlink:href="#DejaVuSans-63" x="849.306641"/>
      <use xlink:href="#DejaVuSans-63" x="904.287109"/>
      <use xlink:href="#DejaVuSans-75" x="959.267578"/>
      <use xlink:href="#DejaVuSans-72" x="1022.646484"/>
      <use xlink:href="#DejaVuSans-61" x="1063.759766"/>
      <use xlink:href="#DejaVuSans-63" x="1125.039062"/>
      <use xlink:href="#DejaVuSans-79" x="1180.019531"/>
     </g>
    </g>
    <g id="line2d_27">
     <path d="M 216.18875 293.004312 
L 226.18875 293.004312 
L 236.18875 293.004312 
" style="fill: none; stroke: #9467bd; stroke-width: 1.5; stroke-linecap: square"/>
    </g>
    <g id="text_25">
     <!-- SWA Robust Validation Accuracy -->
     <g transform="translate(244.18875 296.504312) scale(0.1 -0.1)">
      <use xlink:href="#DejaVuSans-53"/>
      <use xlink:href="#DejaVuSans-57" x="63.476562"/>
      <use xlink:href="#DejaVuSans-41" x="156.853516"/>
      <use xlink:href="#DejaVuSans-20" x="225.261719"/>
      <use xlink:href="#DejaVuSans-52" x="257.048828"/>
      <use xlink:href="#DejaVuSans-6f" x="322.03125"/>
      <use xlink:href="#DejaVuSans-62" x="383.212891"/>
      <use xlink:href="#DejaVuSans-75" x="446.689453"/>
      <use xlink:href="#DejaVuSans-73" x="510.068359"/>
      <use xlink:href="#DejaVuSans-74" x="562.167969"/>
      <use xlink:href="#DejaVuSans-20" x="601.376953"/>
      <use xlink:href="#DejaVuSans-56" x="633.164062"/>
      <use xlink:href="#DejaVuSans-61" x="693.822266"/>
      <use xlink:href="#DejaVuSans-6c" x="755.101562"/>
      <use xlink:href="#DejaVuSans-69" x="782.884766"/>
      <use xlink:href="#DejaVuSans-64" x="810.667969"/>
      <use xlink:href="#DejaVuSans-61" x="874.144531"/>
      <use xlink:href="#DejaVuSans-74" x="935.423828"/>
      <use xlink:href="#DejaVuSans-69" x="974.632812"/>
      <use xlink:href="#DejaVuSans-6f" x="1002.416016"/>
      <use xlink:href="#DejaVuSans-6e" x="1063.597656"/>
      <use xlink:href="#DejaVuSans-20" x="1126.976562"/>
      <use xlink:href="#DejaVuSans-41" x="1158.763672"/>
      <use xlink:href="#DejaVuSans-63" x="1225.421875"/>
      <use xlink:href="#DejaVuSans-63" x="1280.402344"/>
      <use xlink:href="#DejaVuSans-75" x="1335.382812"/>
      <use xlink:href="#DejaVuSans-72" x="1398.761719"/>
      <use xlink:href="#DejaVuSans-61" x="1439.875"/>
      <use xlink:href="#DejaVuSans-63" x="1501.154297"/>
      <use xlink:href="#DejaVuSans-79" x="1556.134766"/>
     </g>
    </g>
   </g>
  </g>
 </g>
 <defs>
  <clipPath id="p532b2ab069">
   <rect x="57.6" y="41.472" width="357.12" height="266.112"/>
  </clipPath>
 </defs>
</svg>
