<?xml version="1.0" encoding="utf-8" standalone="no"?>
<!DOCTYPE svg PUBLIC "-//W3C//DTD SVG 1.1//EN"
  "http://www.w3.org/Graphics/SVG/1.1/DTD/svg11.dtd">
<svg xmlns:xlink="http://www.w3.org/1999/xlink" width="460.8pt" height="345.6pt" viewBox="0 0 460.8 345.6" xmlns="http://www.w3.org/2000/svg" version="1.1">
 <metadata>
  <rdf:RDF xmlns:dc="http://purl.org/dc/elements/1.1/" xmlns:cc="http://creativecommons.org/ns#" xmlns:rdf="http://www.w3.org/1999/02/22-rdf-syntax-ns#">
   <cc:Work>
    <dc:type rdf:resource="http://purl.org/dc/dcmitype/StillImage"/>
    <dc:date>2025-01-23T13:26:09.272408</dc:date>
    <dc:format>image/svg+xml</dc:format>
    <dc:creator>
     <cc:Agent>
      <dc:title>Matplotlib v3.9.1, https://matplotlib.org/</dc:title>
     </cc:Agent>
    </dc:creator>
   </cc:Work>
  </rdf:RDF>
 </metadata>
 <defs>
  <style type="text/css">*{stroke-linejoin: round; stroke-linecap: butt}</style>
 </defs>
 <g id="figure_1">
  <g id="patch_1">
   <path d="M 0 345.6 
L 460.8 345.6 
L 460.8 0 
L 0 0 
z
" style="fill: #ffffff"/>
  </g>
  <g id="axes_1">
   <g id="patch_2">
    <path d="M 57.6 307.584 
L 414.72 307.584 
L 414.72 41.472 
L 57.6 41.472 
z
" style="fill: #ffffff"/>
   </g>
   <g id="matplotlib.axis_1">
    <g id="xtick_1">
     <g id="line2d_1">
      <defs>
       <path id="m1060a8da45" d="M 0 0 
L 0 3.5 
" style="stroke: #000000; stroke-width: 0.8"/>
      </defs>
      <g>
       <use xlink:href="#m1060a8da45" x="73.832727" y="307.584" style="stroke: #000000; stroke-width: 0.8"/>
      </g>
     </g>
     <g id="text_1">
      <!-- 1 -->
      <g transform="translate(70.651477 322.182437) scale(0.1 -0.1)">
       <defs>
        <path id="DejaVuSans-31" d="M 794 531 
L 1825 531 
L 1825 4091 
L 703 3866 
L 703 4441 
L 1819 4666 
L 2450 4666 
L 2450 531 
L 3481 531 
L 3481 0 
L 794 0 
L 794 531 
z
" transform="scale(0.015625)"/>
       </defs>
       <use xlink:href="#DejaVuSans-31"/>
      </g>
     </g>
    </g>
    <g id="xtick_2">
     <g id="line2d_2">
      <g>
       <use xlink:href="#m1060a8da45" x="109.664165" y="307.584" style="stroke: #000000; stroke-width: 0.8"/>
      </g>
     </g>
     <g id="text_2">
      <!-- 34 -->
      <g transform="translate(103.301665 322.182437) scale(0.1 -0.1)">
       <defs>
        <path id="DejaVuSans-33" d="M 2597 2516 
Q 3050 2419 3304 2112 
Q 3559 1806 3559 1356 
Q 3559 666 3084 287 
Q 2609 -91 1734 -91 
Q 1441 -91 1130 -33 
Q 819 25 488 141 
L 488 750 
Q 750 597 1062 519 
Q 1375 441 1716 441 
Q 2309 441 2620 675 
Q 2931 909 2931 1356 
Q 2931 1769 2642 2001 
Q 2353 2234 1838 2234 
L 1294 2234 
L 1294 2753 
L 1863 2753 
Q 2328 2753 2575 2939 
Q 2822 3125 2822 3475 
Q 2822 3834 2567 4026 
Q 2313 4219 1838 4219 
Q 1578 4219 1281 4162 
Q 984 4106 628 3988 
L 628 4550 
Q 988 4650 1302 4700 
Q 1616 4750 1894 4750 
Q 2613 4750 3031 4423 
Q 3450 4097 3450 3541 
Q 3450 3153 3228 2886 
Q 3006 2619 2597 2516 
z
" transform="scale(0.015625)"/>
        <path id="DejaVuSans-34" d="M 2419 4116 
L 825 1625 
L 2419 1625 
L 2419 4116 
z
M 2253 4666 
L 3047 4666 
L 3047 1625 
L 3713 1625 
L 3713 1100 
L 3047 1100 
L 3047 0 
L 2419 0 
L 2419 1100 
L 313 1100 
L 313 1709 
L 2253 4666 
z
" transform="scale(0.015625)"/>
       </defs>
       <use xlink:href="#DejaVuSans-33"/>
       <use xlink:href="#DejaVuSans-34" x="63.623047"/>
      </g>
     </g>
    </g>
    <g id="xtick_3">
     <g id="line2d_3">
      <g>
       <use xlink:href="#m1060a8da45" x="145.495604" y="307.584" style="stroke: #000000; stroke-width: 0.8"/>
      </g>
     </g>
     <g id="text_3">
      <!-- 67 -->
      <g transform="translate(139.133104 322.182437) scale(0.1 -0.1)">
       <defs>
        <path id="DejaVuSans-36" d="M 2113 2584 
Q 1688 2584 1439 2293 
Q 1191 2003 1191 1497 
Q 1191 994 1439 701 
Q 1688 409 2113 409 
Q 2538 409 2786 701 
Q 3034 994 3034 1497 
Q 3034 2003 2786 2293 
Q 2538 2584 2113 2584 
z
M 3366 4563 
L 3366 3988 
Q 3128 4100 2886 4159 
Q 2644 4219 2406 4219 
Q 1781 4219 1451 3797 
Q 1122 3375 1075 2522 
Q 1259 2794 1537 2939 
Q 1816 3084 2150 3084 
Q 2853 3084 3261 2657 
Q 3669 2231 3669 1497 
Q 3669 778 3244 343 
Q 2819 -91 2113 -91 
Q 1303 -91 875 529 
Q 447 1150 447 2328 
Q 447 3434 972 4092 
Q 1497 4750 2381 4750 
Q 2619 4750 2861 4703 
Q 3103 4656 3366 4563 
z
" transform="scale(0.015625)"/>
        <path id="DejaVuSans-37" d="M 525 4666 
L 3525 4666 
L 3525 4397 
L 1831 0 
L 1172 0 
L 2766 4134 
L 525 4134 
L 525 4666 
z
" transform="scale(0.015625)"/>
       </defs>
       <use xlink:href="#DejaVuSans-36"/>
       <use xlink:href="#DejaVuSans-37" x="63.623047"/>
      </g>
     </g>
    </g>
    <g id="xtick_4">
     <g id="line2d_4">
      <g>
       <use xlink:href="#m1060a8da45" x="181.327042" y="307.584" style="stroke: #000000; stroke-width: 0.8"/>
      </g>
     </g>
     <g id="text_4">
      <!-- 100 -->
      <g transform="translate(171.783292 322.182437) scale(0.1 -0.1)">
       <defs>
        <path id="DejaVuSans-30" d="M 2034 4250 
Q 1547 4250 1301 3770 
Q 1056 3291 1056 2328 
Q 1056 1369 1301 889 
Q 1547 409 2034 409 
Q 2525 409 2770 889 
Q 3016 1369 3016 2328 
Q 3016 3291 2770 3770 
Q 2525 4250 2034 4250 
z
M 2034 4750 
Q 2819 4750 3233 4129 
Q 3647 3509 3647 2328 
Q 3647 1150 3233 529 
Q 2819 -91 2034 -91 
Q 1250 -91 836 529 
Q 422 1150 422 2328 
Q 422 3509 836 4129 
Q 1250 4750 2034 4750 
z
" transform="scale(0.015625)"/>
       </defs>
       <use xlink:href="#DejaVuSans-31"/>
       <use xlink:href="#DejaVuSans-30" x="63.623047"/>
       <use xlink:href="#DejaVuSans-30" x="127.246094"/>
      </g>
     </g>
    </g>
    <g id="xtick_5">
     <g id="line2d_5">
      <g>
       <use xlink:href="#m1060a8da45" x="217.15848" y="307.584" style="stroke: #000000; stroke-width: 0.8"/>
      </g>
     </g>
     <g id="text_5">
      <!-- 133 -->
      <g transform="translate(207.61473 322.182437) scale(0.1 -0.1)">
       <use xlink:href="#DejaVuSans-31"/>
       <use xlink:href="#DejaVuSans-33" x="63.623047"/>
       <use xlink:href="#DejaVuSans-33" x="127.246094"/>
      </g>
     </g>
    </g>
    <g id="xtick_6">
     <g id="line2d_6">
      <g>
       <use xlink:href="#m1060a8da45" x="254.075719" y="307.584" style="stroke: #000000; stroke-width: 0.8"/>
      </g>
     </g>
     <g id="text_6">
      <!-- 167 -->
      <g transform="translate(244.531969 322.182437) scale(0.1 -0.1)">
       <use xlink:href="#DejaVuSans-31"/>
       <use xlink:href="#DejaVuSans-36" x="63.623047"/>
       <use xlink:href="#DejaVuSans-37" x="127.246094"/>
      </g>
     </g>
    </g>
    <g id="xtick_7">
     <g id="line2d_7">
      <g>
       <use xlink:href="#m1060a8da45" x="289.907157" y="307.584" style="stroke: #000000; stroke-width: 0.8"/>
      </g>
     </g>
     <g id="text_7">
      <!-- 200 -->
      <g transform="translate(280.363407 322.182437) scale(0.1 -0.1)">
       <defs>
        <path id="DejaVuSans-32" d="M 1228 531 
L 3431 531 
L 3431 0 
L 469 0 
L 469 531 
Q 828 903 1448 1529 
Q 2069 2156 2228 2338 
Q 2531 2678 2651 2914 
Q 2772 3150 2772 3378 
Q 2772 3750 2511 3984 
Q 2250 4219 1831 4219 
Q 1534 4219 1204 4116 
Q 875 4013 500 3803 
L 500 4441 
Q 881 4594 1212 4672 
Q 1544 4750 1819 4750 
Q 2544 4750 2975 4387 
Q 3406 4025 3406 3419 
Q 3406 3131 3298 2873 
Q 3191 2616 2906 2266 
Q 2828 2175 2409 1742 
Q 1991 1309 1228 531 
z
" transform="scale(0.015625)"/>
       </defs>
       <use xlink:href="#DejaVuSans-32"/>
       <use xlink:href="#DejaVuSans-30" x="63.623047"/>
       <use xlink:href="#DejaVuSans-30" x="127.246094"/>
      </g>
     </g>
    </g>
    <g id="xtick_8">
     <g id="line2d_8">
      <g>
       <use xlink:href="#m1060a8da45" x="325.738595" y="307.584" style="stroke: #000000; stroke-width: 0.8"/>
      </g>
     </g>
     <g id="text_8">
      <!-- 233 -->
      <g transform="translate(316.194845 322.182437) scale(0.1 -0.1)">
       <use xlink:href="#DejaVuSans-32"/>
       <use xlink:href="#DejaVuSans-33" x="63.623047"/>
       <use xlink:href="#DejaVuSans-33" x="127.246094"/>
      </g>
     </g>
    </g>
    <g id="xtick_9">
     <g id="line2d_9">
      <g>
       <use xlink:href="#m1060a8da45" x="361.570033" y="307.584" style="stroke: #000000; stroke-width: 0.8"/>
      </g>
     </g>
     <g id="text_9">
      <!-- 266 -->
      <g transform="translate(352.026283 322.182437) scale(0.1 -0.1)">
       <use xlink:href="#DejaVuSans-32"/>
       <use xlink:href="#DejaVuSans-36" x="63.623047"/>
       <use xlink:href="#DejaVuSans-36" x="127.246094"/>
      </g>
     </g>
    </g>
    <g id="xtick_10">
     <g id="line2d_10">
      <g>
       <use xlink:href="#m1060a8da45" x="398.487273" y="307.584" style="stroke: #000000; stroke-width: 0.8"/>
      </g>
     </g>
     <g id="text_10">
      <!-- 300 -->
      <g transform="translate(388.943523 322.182437) scale(0.1 -0.1)">
       <use xlink:href="#DejaVuSans-33"/>
       <use xlink:href="#DejaVuSans-30" x="63.623047"/>
       <use xlink:href="#DejaVuSans-30" x="127.246094"/>
      </g>
     </g>
    </g>
    <g id="text_11">
     <!-- Epochs -->
     <g transform="translate(218.244375 335.860562) scale(0.1 -0.1)">
      <defs>
       <path id="DejaVuSans-45" d="M 628 4666 
L 3578 4666 
L 3578 4134 
L 1259 4134 
L 1259 2753 
L 3481 2753 
L 3481 2222 
L 1259 2222 
L 1259 531 
L 3634 531 
L 3634 0 
L 628 0 
L 628 4666 
z
" transform="scale(0.015625)"/>
       <path id="DejaVuSans-70" d="M 1159 525 
L 1159 -1331 
L 581 -1331 
L 581 3500 
L 1159 3500 
L 1159 2969 
Q 1341 3281 1617 3432 
Q 1894 3584 2278 3584 
Q 2916 3584 3314 3078 
Q 3713 2572 3713 1747 
Q 3713 922 3314 415 
Q 2916 -91 2278 -91 
Q 1894 -91 1617 61 
Q 1341 213 1159 525 
z
M 3116 1747 
Q 3116 2381 2855 2742 
Q 2594 3103 2138 3103 
Q 1681 3103 1420 2742 
Q 1159 2381 1159 1747 
Q 1159 1113 1420 752 
Q 1681 391 2138 391 
Q 2594 391 2855 752 
Q 3116 1113 3116 1747 
z
" transform="scale(0.015625)"/>
       <path id="DejaVuSans-6f" d="M 1959 3097 
Q 1497 3097 1228 2736 
Q 959 2375 959 1747 
Q 959 1119 1226 758 
Q 1494 397 1959 397 
Q 2419 397 2687 759 
Q 2956 1122 2956 1747 
Q 2956 2369 2687 2733 
Q 2419 3097 1959 3097 
z
M 1959 3584 
Q 2709 3584 3137 3096 
Q 3566 2609 3566 1747 
Q 3566 888 3137 398 
Q 2709 -91 1959 -91 
Q 1206 -91 779 398 
Q 353 888 353 1747 
Q 353 2609 779 3096 
Q 1206 3584 1959 3584 
z
" transform="scale(0.015625)"/>
       <path id="DejaVuSans-63" d="M 3122 3366 
L 3122 2828 
Q 2878 2963 2633 3030 
Q 2388 3097 2138 3097 
Q 1578 3097 1268 2742 
Q 959 2388 959 1747 
Q 959 1106 1268 751 
Q 1578 397 2138 397 
Q 2388 397 2633 464 
Q 2878 531 3122 666 
L 3122 134 
Q 2881 22 2623 -34 
Q 2366 -91 2075 -91 
Q 1284 -91 818 406 
Q 353 903 353 1747 
Q 353 2603 823 3093 
Q 1294 3584 2113 3584 
Q 2378 3584 2631 3529 
Q 2884 3475 3122 3366 
z
" transform="scale(0.015625)"/>
       <path id="DejaVuSans-68" d="M 3513 2113 
L 3513 0 
L 2938 0 
L 2938 2094 
Q 2938 2591 2744 2837 
Q 2550 3084 2163 3084 
Q 1697 3084 1428 2787 
Q 1159 2491 1159 1978 
L 1159 0 
L 581 0 
L 581 4863 
L 1159 4863 
L 1159 2956 
Q 1366 3272 1645 3428 
Q 1925 3584 2291 3584 
Q 2894 3584 3203 3211 
Q 3513 2838 3513 2113 
z
" transform="scale(0.015625)"/>
       <path id="DejaVuSans-73" d="M 2834 3397 
L 2834 2853 
Q 2591 2978 2328 3040 
Q 2066 3103 1784 3103 
Q 1356 3103 1142 2972 
Q 928 2841 928 2578 
Q 928 2378 1081 2264 
Q 1234 2150 1697 2047 
L 1894 2003 
Q 2506 1872 2764 1633 
Q 3022 1394 3022 966 
Q 3022 478 2636 193 
Q 2250 -91 1575 -91 
Q 1294 -91 989 -36 
Q 684 19 347 128 
L 347 722 
Q 666 556 975 473 
Q 1284 391 1588 391 
Q 1994 391 2212 530 
Q 2431 669 2431 922 
Q 2431 1156 2273 1281 
Q 2116 1406 1581 1522 
L 1381 1569 
Q 847 1681 609 1914 
Q 372 2147 372 2553 
Q 372 3047 722 3315 
Q 1072 3584 1716 3584 
Q 2034 3584 2315 3537 
Q 2597 3491 2834 3397 
z
" transform="scale(0.015625)"/>
      </defs>
      <use xlink:href="#DejaVuSans-45"/>
      <use xlink:href="#DejaVuSans-70" x="63.183594"/>
      <use xlink:href="#DejaVuSans-6f" x="126.660156"/>
      <use xlink:href="#DejaVuSans-63" x="187.841797"/>
      <use xlink:href="#DejaVuSans-68" x="242.822266"/>
      <use xlink:href="#DejaVuSans-73" x="306.201172"/>
     </g>
    </g>
   </g>
   <g id="matplotlib.axis_2">
    <g id="ytick_1">
     <g id="line2d_11">
      <defs>
       <path id="mc954726ef7" d="M 0 0 
L -3.5 0 
" style="stroke: #000000; stroke-width: 0.8"/>
      </defs>
      <g>
       <use xlink:href="#mc954726ef7" x="57.6" y="278.913341" style="stroke: #000000; stroke-width: 0.8"/>
      </g>
     </g>
     <g id="text_12">
      <!-- 40 -->
      <g transform="translate(37.875 282.71256) scale(0.1 -0.1)">
       <use xlink:href="#DejaVuSans-34"/>
       <use xlink:href="#DejaVuSans-30" x="63.623047"/>
      </g>
     </g>
    </g>
    <g id="ytick_2">
     <g id="line2d_12">
      <g>
       <use xlink:href="#mc954726ef7" x="57.6" y="239.127793" style="stroke: #000000; stroke-width: 0.8"/>
      </g>
     </g>
     <g id="text_13">
      <!-- 50 -->
      <g transform="translate(37.875 242.927012) scale(0.1 -0.1)">
       <defs>
        <path id="DejaVuSans-35" d="M 691 4666 
L 3169 4666 
L 3169 4134 
L 1269 4134 
L 1269 2991 
Q 1406 3038 1543 3061 
Q 1681 3084 1819 3084 
Q 2600 3084 3056 2656 
Q 3513 2228 3513 1497 
Q 3513 744 3044 326 
Q 2575 -91 1722 -91 
Q 1428 -91 1123 -41 
Q 819 9 494 109 
L 494 744 
Q 775 591 1075 516 
Q 1375 441 1709 441 
Q 2250 441 2565 725 
Q 2881 1009 2881 1497 
Q 2881 1984 2565 2268 
Q 2250 2553 1709 2553 
Q 1456 2553 1204 2497 
Q 953 2441 691 2322 
L 691 4666 
z
" transform="scale(0.015625)"/>
       </defs>
       <use xlink:href="#DejaVuSans-35"/>
       <use xlink:href="#DejaVuSans-30" x="63.623047"/>
      </g>
     </g>
    </g>
    <g id="ytick_3">
     <g id="line2d_13">
      <g>
       <use xlink:href="#mc954726ef7" x="57.6" y="199.342246" style="stroke: #000000; stroke-width: 0.8"/>
      </g>
     </g>
     <g id="text_14">
      <!-- 60 -->
      <g transform="translate(37.875 203.141465) scale(0.1 -0.1)">
       <use xlink:href="#DejaVuSans-36"/>
       <use xlink:href="#DejaVuSans-30" x="63.623047"/>
      </g>
     </g>
    </g>
    <g id="ytick_4">
     <g id="line2d_14">
      <g>
       <use xlink:href="#mc954726ef7" x="57.6" y="159.556698" style="stroke: #000000; stroke-width: 0.8"/>
      </g>
     </g>
     <g id="text_15">
      <!-- 70 -->
      <g transform="translate(37.875 163.355917) scale(0.1 -0.1)">
       <use xlink:href="#DejaVuSans-37"/>
       <use xlink:href="#DejaVuSans-30" x="63.623047"/>
      </g>
     </g>
    </g>
    <g id="ytick_5">
     <g id="line2d_15">
      <g>
       <use xlink:href="#mc954726ef7" x="57.6" y="119.771151" style="stroke: #000000; stroke-width: 0.8"/>
      </g>
     </g>
     <g id="text_16">
      <!-- 80 -->
      <g transform="translate(37.875 123.57037) scale(0.1 -0.1)">
       <defs>
        <path id="DejaVuSans-38" d="M 2034 2216 
Q 1584 2216 1326 1975 
Q 1069 1734 1069 1313 
Q 1069 891 1326 650 
Q 1584 409 2034 409 
Q 2484 409 2743 651 
Q 3003 894 3003 1313 
Q 3003 1734 2745 1975 
Q 2488 2216 2034 2216 
z
M 1403 2484 
Q 997 2584 770 2862 
Q 544 3141 544 3541 
Q 544 4100 942 4425 
Q 1341 4750 2034 4750 
Q 2731 4750 3128 4425 
Q 3525 4100 3525 3541 
Q 3525 3141 3298 2862 
Q 3072 2584 2669 2484 
Q 3125 2378 3379 2068 
Q 3634 1759 3634 1313 
Q 3634 634 3220 271 
Q 2806 -91 2034 -91 
Q 1263 -91 848 271 
Q 434 634 434 1313 
Q 434 1759 690 2068 
Q 947 2378 1403 2484 
z
M 1172 3481 
Q 1172 3119 1398 2916 
Q 1625 2713 2034 2713 
Q 2441 2713 2670 2916 
Q 2900 3119 2900 3481 
Q 2900 3844 2670 4047 
Q 2441 4250 2034 4250 
Q 1625 4250 1398 4047 
Q 1172 3844 1172 3481 
z
" transform="scale(0.015625)"/>
       </defs>
       <use xlink:href="#DejaVuSans-38"/>
       <use xlink:href="#DejaVuSans-30" x="63.623047"/>
      </g>
     </g>
    </g>
    <g id="ytick_6">
     <g id="line2d_16">
      <g>
       <use xlink:href="#mc954726ef7" x="57.6" y="79.985604" style="stroke: #000000; stroke-width: 0.8"/>
      </g>
     </g>
     <g id="text_17">
      <!-- 90 -->
      <g transform="translate(37.875 83.784822) scale(0.1 -0.1)">
       <defs>
        <path id="DejaVuSans-39" d="M 703 97 
L 703 672 
Q 941 559 1184 500 
Q 1428 441 1663 441 
Q 2288 441 2617 861 
Q 2947 1281 2994 2138 
Q 2813 1869 2534 1725 
Q 2256 1581 1919 1581 
Q 1219 1581 811 2004 
Q 403 2428 403 3163 
Q 403 3881 828 4315 
Q 1253 4750 1959 4750 
Q 2769 4750 3195 4129 
Q 3622 3509 3622 2328 
Q 3622 1225 3098 567 
Q 2575 -91 1691 -91 
Q 1453 -91 1209 -44 
Q 966 3 703 97 
z
M 1959 2075 
Q 2384 2075 2632 2365 
Q 2881 2656 2881 3163 
Q 2881 3666 2632 3958 
Q 2384 4250 1959 4250 
Q 1534 4250 1286 3958 
Q 1038 3666 1038 3163 
Q 1038 2656 1286 2365 
Q 1534 2075 1959 2075 
z
" transform="scale(0.015625)"/>
       </defs>
       <use xlink:href="#DejaVuSans-39"/>
       <use xlink:href="#DejaVuSans-30" x="63.623047"/>
      </g>
     </g>
    </g>
    <g id="text_18">
     <!-- Accuracy -->
     <g transform="translate(31.795312 197.356125) rotate(-90) scale(0.1 -0.1)">
      <defs>
       <path id="DejaVuSans-41" d="M 2188 4044 
L 1331 1722 
L 3047 1722 
L 2188 4044 
z
M 1831 4666 
L 2547 4666 
L 4325 0 
L 3669 0 
L 3244 1197 
L 1141 1197 
L 716 0 
L 50 0 
L 1831 4666 
z
" transform="scale(0.015625)"/>
       <path id="DejaVuSans-75" d="M 544 1381 
L 544 3500 
L 1119 3500 
L 1119 1403 
Q 1119 906 1312 657 
Q 1506 409 1894 409 
Q 2359 409 2629 706 
Q 2900 1003 2900 1516 
L 2900 3500 
L 3475 3500 
L 3475 0 
L 2900 0 
L 2900 538 
Q 2691 219 2414 64 
Q 2138 -91 1772 -91 
Q 1169 -91 856 284 
Q 544 659 544 1381 
z
M 1991 3584 
L 1991 3584 
z
" transform="scale(0.015625)"/>
       <path id="DejaVuSans-72" d="M 2631 2963 
Q 2534 3019 2420 3045 
Q 2306 3072 2169 3072 
Q 1681 3072 1420 2755 
Q 1159 2438 1159 1844 
L 1159 0 
L 581 0 
L 581 3500 
L 1159 3500 
L 1159 2956 
Q 1341 3275 1631 3429 
Q 1922 3584 2338 3584 
Q 2397 3584 2469 3576 
Q 2541 3569 2628 3553 
L 2631 2963 
z
" transform="scale(0.015625)"/>
       <path id="DejaVuSans-61" d="M 2194 1759 
Q 1497 1759 1228 1600 
Q 959 1441 959 1056 
Q 959 750 1161 570 
Q 1363 391 1709 391 
Q 2188 391 2477 730 
Q 2766 1069 2766 1631 
L 2766 1759 
L 2194 1759 
z
M 3341 1997 
L 3341 0 
L 2766 0 
L 2766 531 
Q 2569 213 2275 61 
Q 1981 -91 1556 -91 
Q 1019 -91 701 211 
Q 384 513 384 1019 
Q 384 1609 779 1909 
Q 1175 2209 1959 2209 
L 2766 2209 
L 2766 2266 
Q 2766 2663 2505 2880 
Q 2244 3097 1772 3097 
Q 1472 3097 1187 3025 
Q 903 2953 641 2809 
L 641 3341 
Q 956 3463 1253 3523 
Q 1550 3584 1831 3584 
Q 2591 3584 2966 3190 
Q 3341 2797 3341 1997 
z
" transform="scale(0.015625)"/>
       <path id="DejaVuSans-79" d="M 2059 -325 
Q 1816 -950 1584 -1140 
Q 1353 -1331 966 -1331 
L 506 -1331 
L 506 -850 
L 844 -850 
Q 1081 -850 1212 -737 
Q 1344 -625 1503 -206 
L 1606 56 
L 191 3500 
L 800 3500 
L 1894 763 
L 2988 3500 
L 3597 3500 
L 2059 -325 
z
" transform="scale(0.015625)"/>
      </defs>
      <use xlink:href="#DejaVuSans-41"/>
      <use xlink:href="#DejaVuSans-63" x="66.658203"/>
      <use xlink:href="#DejaVuSans-63" x="121.638672"/>
      <use xlink:href="#DejaVuSans-75" x="176.619141"/>
      <use xlink:href="#DejaVuSans-72" x="239.998047"/>
      <use xlink:href="#DejaVuSans-61" x="281.111328"/>
      <use xlink:href="#DejaVuSans-63" x="342.390625"/>
      <use xlink:href="#DejaVuSans-79" x="397.371094"/>
     </g>
    </g>
   </g>
   <g id="line2d_17">
    <path d="M 73.832727 295.488 
L 74.918528 224.68564 
L 76.00433 198.785248 
L 77.090131 179.89507 
L 78.175932 168.023063 
L 80.347534 151.798517 
L 81.433335 146.522953 
L 82.519137 140.499421 
L 83.604938 136.282153 
L 84.690739 130.608734 
L 85.77654 127.163306 
L 86.862341 122.906252 
L 89.033943 115.967653 
L 90.119745 113.676005 
L 91.205546 110.278319 
L 92.291347 108.48797 
L 93.377148 105.37674 
L 94.462949 105.273298 
L 95.54875 134.117819 
L 96.634552 133.767707 
L 100.977756 124.187347 
L 102.063557 123.725834 
L 103.149358 120.702133 
L 104.23516 118.991354 
L 105.320961 116.834978 
L 106.406762 116.039267 
L 107.492563 114.010204 
L 108.578364 112.745023 
L 109.664165 110.015735 
L 111.835768 109.156367 
L 112.921569 106.252022 
L 114.00737 105.702981 
L 115.093171 102.480352 
L 116.178972 102.639494 
L 117.264773 100.156876 
L 118.350575 99.965905 
L 119.436376 98.422226 
L 120.522177 96.432949 
L 121.607978 95.120026 
L 122.693779 94.252701 
L 123.77958 92.048582 
L 124.865382 90.9505 
L 125.951183 90.075218 
L 127.036984 87.560772 
L 129.208586 86.287634 
L 132.46599 83.232104 
L 133.551791 83.534474 
L 134.637592 82.245423 
L 135.723393 82.332951 
L 136.809194 82.19768 
L 137.894995 82.492093 
L 138.980797 108.1299 
L 140.066598 110.644346 
L 141.152399 109.013139 
L 142.2382 109.029053 
L 143.324001 107.755916 
L 144.409802 105.989437 
L 145.495604 106.442993 
L 146.581405 104.970927 
L 147.667206 104.207045 
L 148.753007 103.94446 
L 149.838808 103.108964 
L 150.924609 102.973693 
L 152.01041 102.599709 
L 153.096212 100.069348 
L 154.182013 100.920759 
L 155.267814 99.408908 
L 156.353615 99.918163 
L 157.439416 98.446098 
L 158.525217 98.676854 
L 159.611019 97.920928 
L 160.69682 97.403716 
L 161.782621 96.21015 
L 162.868422 96.162407 
L 163.954223 95.573581 
L 165.040024 95.716809 
L 166.125825 94.427757 
L 167.211627 93.528604 
L 168.297428 93.647961 
L 170.46903 92.199767 
L 171.554831 91.809868 
L 172.640632 92.144067 
L 174.812235 89.828548 
L 175.898036 90.011561 
L 176.983837 89.27155 
L 178.069638 88.738424 
L 179.155439 87.584643 
L 180.24124 87.473244 
L 181.327042 86.287634 
L 182.412843 85.643108 
L 183.498644 86.263763 
L 184.584445 85.285038 
L 185.670246 84.735998 
L 186.756047 83.582217 
L 187.841849 83.860716 
L 188.92765 83.916416 
L 190.013451 82.094238 
L 191.099252 81.465626 
L 192.185053 80.46303 
L 193.270854 80.510773 
L 194.356656 78.903437 
L 195.442457 79.850333 
L 196.528258 78.624938 
L 197.614059 78.640852 
L 198.69986 77.471157 
L 199.785661 77.192658 
L 200.871462 76.532218 
L 201.957264 75.529622 
L 203.043065 75.513708 
L 204.128866 75.020367 
L 205.214667 73.763144 
L 206.300468 73.683573 
L 207.386269 73.08679 
L 208.472071 73.58013 
L 209.557872 72.171722 
L 210.643673 71.948923 
L 212.815275 72.322907 
L 213.901076 71.463539 
L 214.986877 70.381372 
L 217.15848 70.667828 
L 218.244281 69.792546 
L 219.330082 70.238144 
L 220.415883 69.705018 
L 222.587486 69.91986 
L 223.673287 69.848246 
L 224.759088 69.641361 
L 225.844889 96.082836 
L 226.93069 98.072113 
L 228.016491 99.106538 
L 229.102292 97.491244 
L 230.188094 98.167599 
L 231.273895 97.037689 
L 232.359696 97.634472 
L 233.445497 96.106707 
L 234.531298 95.279168 
L 235.617099 96.035093 
L 236.702901 94.284529 
L 237.788702 94.244744 
L 239.960304 93.592261 
L 241.046105 93.067092 
L 242.131906 93.170534 
L 243.217708 92.701065 
L 244.303509 91.961053 
L 245.38931 92.335037 
L 246.475111 91.865568 
L 247.560912 92.008796 
L 248.646713 90.727701 
L 249.732514 91.793954 
L 250.818316 90.894801 
L 251.904117 90.687916 
L 252.989918 90.695873 
L 254.075719 90.122961 
L 255.16152 90.624259 
L 256.247321 89.892205 
L 257.333123 89.486392 
L 258.418924 89.876291 
L 259.504725 89.43865 
L 260.590526 89.374993 
L 261.676327 88.022284 
L 262.762128 88.865738 
L 263.847929 88.66681 
L 264.933731 87.791528 
L 266.019532 87.942713 
L 268.191134 87.791528 
L 269.276935 87.863142 
L 270.362736 88.046155 
L 271.448538 87.226573 
L 272.534339 86.582047 
L 273.62014 87.282273 
L 274.705941 86.056878 
L 275.791742 85.61128 
L 276.877543 86.080749 
L 277.963344 85.826122 
L 279.049146 84.815569 
L 280.134947 85.094068 
L 281.220748 85.627194 
L 282.306549 84.89514 
L 283.39235 85.452138 
L 284.478151 84.489328 
L 285.563953 84.608684 
L 286.649754 83.741359 
L 287.735555 83.470817 
L 288.821356 83.765231 
L 289.907157 82.834249 
L 290.992958 83.502646 
L 292.07876 83.391246 
L 294.250362 82.396608 
L 295.336163 81.417883 
L 296.421964 82.062409 
L 297.507765 82.269294 
L 298.593566 81.266698 
L 299.679368 81.958967 
L 300.765169 81.569068 
L 301.85097 81.465626 
L 302.936771 80.558515 
L 304.022572 80.8211 
L 305.108373 80.319802 
L 307.279976 79.74689 
L 308.365777 80.112917 
L 309.451578 79.460434 
L 310.537379 79.062579 
L 311.62318 79.150107 
L 312.708981 78.219125 
L 313.794783 78.258911 
L 314.880584 78.06794 
L 315.966385 77.487071 
L 317.052186 77.622342 
L 318.137987 77.383629 
L 319.223788 77.884927 
L 320.30959 76.906202 
L 321.395391 77.184701 
L 322.481192 76.476518 
L 324.652794 75.760378 
L 325.738595 76.229848 
L 326.824396 75.163595 
L 327.910198 74.988539 
L 328.995999 75.099938 
L 330.0818 74.885096 
L 331.167601 74.145085 
L 333.339203 73.492602 
L 334.425005 73.779058 
L 335.510806 72.943562 
L 336.596607 72.67302 
L 337.682408 72.712805 
L 338.768209 72.458178 
L 339.85401 71.702253 
L 340.939811 71.95688 
L 342.025613 72.354736 
L 343.111414 71.495368 
L 344.197215 71.200955 
L 345.283016 70.27793 
L 346.368817 70.914499 
L 347.454618 70.03126 
L 349.626221 69.752761 
L 350.712022 69.657275 
L 351.797823 69.187806 
L 352.883624 68.972964 
L 353.969425 69.076406 
L 355.055227 68.949093 
L 356.141028 68.996835 
L 357.226829 68.376181 
L 358.31263 68.392095 
L 360.484232 67.142829 
L 361.570033 67.811226 
L 362.655835 67.039386 
L 363.741636 66.848416 
L 364.827437 67.063258 
L 365.913238 66.275504 
L 366.999039 66.020876 
L 368.08484 65.989048 
L 369.170642 67.365628 
L 370.256443 67.715741 
L 372.428045 68.893393 
L 373.513846 69.689104 
L 375.685448 69.458348 
L 376.77125 69.084364 
L 378.942852 69.50609 
L 380.028653 69.872117 
L 381.114454 69.800503 
L 382.200255 70.015345 
L 383.286057 69.219634 
L 385.457659 69.895989 
L 386.54346 69.386734 
L 389.800863 70.158573 
L 393.058267 69.784589 
L 394.144068 69.386734 
L 395.229869 69.418562 
L 397.401472 70.293844 
L 398.487273 69.927817 
L 398.487273 69.927817 
" clip-path="url(#pb8a0297e1c)" style="fill: none; stroke: #1f77b4; stroke-width: 1.5; stroke-linecap: square"/>
   </g>
   <g id="line2d_18">
    <path d="M 73.832727 245.453695 
L 74.918528 184.860307 
L 76.00433 167.633165 
L 77.090131 139.425211 
L 78.175932 143.324195 
L 80.347534 111.933398 
L 81.433335 106.164494 
L 82.519137 113.88289 
L 83.604938 95.860037 
L 84.690739 98.565454 
L 85.77654 93.313762 
L 86.862341 89.971776 
L 87.948142 84.958797 
L 89.033943 83.407161 
L 90.119745 81.338312 
L 91.205546 78.911394 
L 92.291347 77.996326 
L 94.462949 76.762974 
L 95.54875 99.639664 
L 96.634552 93.711617 
L 97.720353 96.894461 
L 98.806154 92.43848 
L 99.891955 91.443841 
L 100.977756 86.470648 
L 102.063557 90.926629 
L 103.149358 88.579282 
L 104.23516 85.635151 
L 105.320961 84.640513 
L 106.406762 86.072792 
L 107.492563 84.242657 
L 108.578364 78.792037 
L 109.664165 75.450051 
L 110.749967 76.166191 
L 111.835768 78.274825 
L 112.921569 76.007049 
L 114.00737 77.87697 
L 115.093171 76.842545 
L 116.178972 71.312354 
L 117.264773 73.818844 
L 118.350575 70.596214 
L 119.436376 70.118788 
L 120.522177 71.113426 
L 121.607978 68.447795 
L 122.693779 70.198359 
L 123.77958 67.970368 
L 124.865382 68.408009 
L 125.951183 66.856373 
L 127.036984 64.668168 
L 128.122785 64.230527 
L 129.208586 65.344522 
L 130.294387 64.230527 
L 131.380189 63.792886 
L 132.46599 63.792886 
L 134.637592 62.838033 
L 135.723393 62.599319 
L 136.809194 63.275674 
L 137.894995 63.076746 
L 138.980797 83.526517 
L 140.066598 82.054452 
L 141.152399 75.847907 
L 142.2382 82.492093 
L 143.324001 77.956541 
L 144.409802 78.752252 
L 145.495604 76.245762 
L 146.581405 75.768335 
L 147.667206 76.08662 
L 148.753007 75.967263 
L 149.838808 73.977986 
L 150.924609 76.08662 
L 152.01041 80.423245 
L 153.096212 77.359757 
L 154.182013 76.166191 
L 155.267814 75.37048 
L 157.439416 73.977986 
L 158.525217 74.65434 
L 159.611019 70.755357 
L 160.69682 71.192998 
L 161.782621 67.612298 
L 162.868422 70.476858 
L 163.954223 73.977986 
L 165.040024 72.466135 
L 166.125825 66.140233 
L 167.211627 70.158573 
L 168.297428 67.652084 
L 169.383229 69.720932 
L 170.46903 70.715571 
L 171.554831 67.055301 
L 172.640632 64.946667 
L 173.726434 70.954284 
L 174.812235 69.442433 
L 175.898036 68.925221 
L 176.983837 66.100447 
L 178.069638 66.458517 
L 179.155439 63.116531 
L 180.24124 65.18538 
L 181.327042 66.060662 
L 182.412843 65.583235 
L 183.498644 65.981091 
L 184.584445 63.116531 
L 185.670246 62.997175 
L 186.756047 64.906881 
L 187.841849 64.071385 
L 188.92765 62.32082 
L 190.013451 61.326182 
L 191.099252 62.917604 
L 192.185053 61.962751 
L 193.270854 61.803608 
L 194.356656 60.968112 
L 195.442457 61.445538 
L 196.528258 61.684252 
L 197.614059 61.604681 
L 198.69986 59.37669 
L 199.785661 59.416475 
L 200.871462 60.331543 
L 201.957264 59.257333 
L 203.043065 59.814331 
L 204.128866 58.222909 
L 205.214667 59.814331 
L 206.300468 57.864839 
L 207.386269 58.103552 
L 208.472071 58.819692 
L 209.557872 57.22827 
L 210.643673 57.94441 
L 211.729474 57.665911 
L 212.815275 57.188485 
L 213.901076 57.387413 
L 214.986877 56.631487 
L 216.072679 57.188485 
L 217.15848 56.034704 
L 218.244281 55.994918 
L 219.330082 56.750844 
L 220.415883 57.029343 
L 221.501684 56.711058 
L 222.587486 56.790629 
L 223.673287 56.591702 
L 224.759088 56.551916 
L 225.844889 70.437072 
L 226.93069 74.694126 
L 228.016491 71.232783 
L 229.102292 71.391925 
L 230.188094 69.084364 
L 231.273895 74.455412 
L 232.359696 70.238144 
L 233.445497 74.932839 
L 234.531298 72.704848 
L 235.617099 72.108065 
L 236.702901 68.84565 
L 237.788702 67.851012 
L 238.874503 74.176914 
L 239.960304 69.959646 
L 241.046105 67.333799 
L 242.131906 70.039217 
L 243.217708 74.336056 
L 244.303509 67.254228 
L 245.38931 67.134872 
L 246.475111 70.795142 
L 247.560912 71.829566 
L 248.646713 68.965007 
L 249.732514 70.954284 
L 250.818316 67.254228 
L 251.904117 69.760718 
L 252.989918 66.935944 
L 254.075719 69.959646 
L 255.16152 65.463879 
L 256.247321 67.612298 
L 257.333123 65.066023 
L 258.418924 69.402648 
L 259.504725 68.606937 
L 260.590526 66.498303 
L 261.676327 69.004792 
L 262.762128 64.946667 
L 263.847929 66.737016 
L 264.933731 66.378946 
L 266.019532 65.782163 
L 267.105333 64.588597 
L 268.191134 67.373585 
L 269.276935 68.447795 
L 270.362736 64.071385 
L 271.448538 66.060662 
L 272.534339 64.230527 
L 273.62014 66.219804 
L 274.705941 63.554172 
L 275.791742 66.896158 
L 276.877543 64.071385 
L 277.963344 64.310098 
L 279.049146 64.389669 
L 280.134947 61.724037 
L 281.220748 65.304737 
L 282.306549 62.838033 
L 283.39235 63.275674 
L 284.478151 64.82731 
L 285.563953 64.986452 
L 286.649754 62.599319 
L 287.735555 64.190741 
L 288.821356 66.538088 
L 289.907157 61.803608 
L 290.992958 67.492942 
L 292.07876 66.060662 
L 293.164561 61.087468 
L 294.250362 65.105809 
L 295.336163 64.031599 
L 296.421964 61.962751 
L 297.507765 64.429454 
L 298.593566 63.39503 
L 299.679368 64.349883 
L 300.765169 66.25959 
L 301.85097 63.554172 
L 302.936771 61.206825 
L 304.022572 60.769184 
L 305.108373 60.968112 
L 306.194175 60.848755 
L 307.279976 61.922965 
L 308.365777 62.32082 
L 309.451578 58.859478 
L 310.537379 59.535832 
L 311.62318 62.440177 
L 312.708981 62.440177 
L 313.794783 61.326182 
L 314.880584 63.633744 
L 315.966385 58.819692 
L 317.052186 60.09283 
L 318.137987 60.212186 
L 319.223788 59.416475 
L 320.30959 60.570256 
L 321.395391 59.416475 
L 322.481192 59.73476 
L 323.566993 58.740121 
L 324.652794 58.939049 
L 325.738595 57.665911 
L 326.824396 61.16704 
L 327.910198 60.729399 
L 328.995999 59.217548 
L 330.0818 60.331543 
L 331.167601 58.700336 
L 332.253402 58.30248 
L 333.339203 59.37669 
L 334.425005 59.336904 
L 335.510806 56.989557 
L 336.596607 59.336904 
L 337.682408 58.580979 
L 338.768209 57.268056 
L 339.85401 57.347627 
L 340.939811 58.461622 
L 342.025613 56.790629 
L 343.111414 56.671273 
L 344.197215 56.233632 
L 345.283016 56.8702 
L 346.368817 56.750844 
L 347.454618 56.233632 
L 348.54042 56.154061 
L 349.626221 56.472345 
L 351.797823 55.71642 
L 352.883624 56.114275 
L 353.969425 55.756205 
L 355.055227 56.8702 
L 356.141028 55.238993 
L 357.226829 55.238993 
L 358.31263 55.875562 
L 359.398431 54.64221 
L 360.484232 56.352988 
L 361.570033 56.034704 
L 362.655835 55.517492 
L 363.741636 54.562639 
L 364.827437 54.801352 
L 366.999039 54.323925 
L 368.08484 54.522853 
L 369.170642 56.432559 
L 370.256443 56.074489 
L 371.342244 55.955133 
L 372.428045 56.114275 
L 373.513846 56.8702 
L 374.599647 57.029343 
L 375.685448 56.591702 
L 376.77125 58.262695 
L 378.942852 56.233632 
L 380.028653 55.71642 
L 382.200255 56.313203 
L 383.286057 56.392774 
L 384.371858 56.591702 
L 385.457659 58.382051 
L 386.54346 58.30248 
L 387.629261 57.148699 
L 388.715062 56.949772 
L 389.800863 56.273417 
L 391.972466 56.909986 
L 393.058267 57.745482 
L 394.144068 56.273417 
L 395.229869 57.148699 
L 396.31567 57.506769 
L 397.401472 58.342266 
L 398.487273 56.432559 
L 398.487273 56.432559 
" clip-path="url(#pb8a0297e1c)" style="fill: none; stroke: #ff7f0e; stroke-width: 1.5; stroke-linecap: square"/>
   </g>
   <g id="line2d_19">
    <path d="M 73.832727 255.837723 
L 74.918528 243.984374 
L 76.00433 240.060696 
L 77.090131 202.168392 
L 78.175932 211.716923 
L 79.261733 190.122974 
L 80.347534 181.617099 
L 81.433335 185.129202 
L 82.519137 181.562222 
L 83.604938 163.699883 
L 84.690739 174.922151 
L 85.77654 161.64201 
L 86.862341 152.093479 
L 87.948142 148.965511 
L 89.033943 151.572151 
L 90.119745 150.090482 
L 91.205546 146.303995 
L 92.291347 140.980964 
L 93.377148 139.471857 
L 94.462949 141.20047 
L 95.54875 178.02268 
L 96.634552 175.855054 
L 97.720353 175.964807 
L 98.806154 168.803408 
L 99.891955 153.355641 
L 100.977756 144.60282 
L 102.063557 160.709107 
L 103.149358 149.239894 
L 104.23516 154.837309 
L 105.320961 149.706346 
L 106.406762 155.79765 
L 107.492563 167.047357 
L 108.578364 150.255112 
L 109.664165 148.197239 
L 110.749967 145.700353 
L 111.835768 145.864982 
L 112.921569 141.584606 
L 114.00737 132.722033 
L 115.093171 138.703584 
L 116.178972 145.974736 
L 117.264773 150.255112 
L 118.350575 144.93208 
L 119.436376 141.831551 
L 120.522177 139.224912 
L 121.607978 135.740247 
L 122.693779 131.651939 
L 123.77958 137.825558 
L 124.865382 137.880435 
L 125.951183 130.00564 
L 127.036984 125.478319 
L 128.122785 123.475323 
L 129.208586 127.426439 
L 130.294387 123.146063 
L 131.380189 120.265041 
L 132.46599 124.216157 
L 133.551791 125.780141 
L 134.637592 121.856462 
L 135.723393 120.018096 
L 136.809194 122.70705 
L 137.894995 120.182726 
L 138.980797 150.556933 
L 140.066598 159.831082 
L 141.152399 150.200235 
L 142.2382 146.38631 
L 143.324001 141.831551 
L 144.409802 138.785899 
L 145.495604 142.490071 
L 146.581405 134.340893 
L 147.667206 138.127379 
L 149.838808 150.913631 
L 150.924609 153.136134 
L 152.01041 151.846534 
L 153.096212 139.279788 
L 154.182013 143.011398 
L 155.267814 142.298002 
L 156.353615 141.941304 
L 157.439416 140.212691 
L 158.525217 136.563396 
L 159.611019 145.288778 
L 160.69682 149.980729 
L 161.782621 145.974736 
L 162.868422 140.240129 
L 163.954223 147.785664 
L 165.040024 144.657697 
L 166.125825 130.609283 
L 167.211627 134.779906 
L 168.297428 133.545182 
L 169.383229 145.09671 
L 170.46903 149.130141 
L 172.640632 128.55141 
L 173.726434 154.782433 
L 174.812235 127.810575 
L 175.898036 140.651704 
L 176.983837 139.444418 
L 178.069638 136.920094 
L 179.155439 127.700822 
L 180.24124 133.353114 
L 181.327042 135.959753 
L 182.412843 124.764923 
L 183.498644 122.37779 
L 184.584445 121.25282 
L 185.670246 126.356345 
L 186.756047 126.548413 
L 187.841849 129.237367 
L 188.92765 122.844242 
L 190.013451 113.323148 
L 191.099252 120.621739 
L 192.185053 126.575852 
L 193.270854 116.807814 
L 194.356656 116.451116 
L 195.442457 119.661398 
L 196.528258 118.618742 
L 197.614059 115.161515 
L 198.69986 110.250058 
L 199.785661 108.933019 
L 200.871462 119.606521 
L 201.957264 112.225616 
L 203.043065 116.121856 
L 204.128866 115.051762 
L 205.214667 115.957226 
L 206.300468 110.112866 
L 207.386269 109.372032 
L 208.472071 114.969447 
L 209.557872 116.066979 
L 210.643673 117.850469 
L 212.815275 111.073207 
L 213.901076 112.637191 
L 214.986877 110.003113 
L 216.072679 107.808048 
L 217.15848 109.811045 
L 218.244281 108.494006 
L 219.330082 110.140305 
L 220.415883 110.332373 
L 221.501684 108.603759 
L 223.673287 108.850704 
L 224.759088 108.987896 
L 225.844889 133.161046 
L 226.93069 142.929083 
L 228.016491 135.328672 
L 229.102292 141.639483 
L 230.188094 141.227908 
L 231.273895 136.590834 
L 232.359696 137.96275 
L 233.445497 140.624266 
L 234.531298 150.995946 
L 235.617099 139.362103 
L 236.702901 129.621504 
L 237.788702 123.777144 
L 238.874503 142.6547 
L 239.960304 128.38678 
L 241.046105 126.411222 
L 242.131906 134.286016 
L 243.217708 134.395769 
L 244.303509 133.40799 
L 245.38931 134.368331 
L 246.475111 130.993419 
L 247.560912 151.462397 
L 248.646713 133.353114 
L 249.732514 138.237133 
L 250.818316 127.261809 
L 251.904117 128.304465 
L 252.989918 135.054289 
L 254.075719 140.240129 
L 255.16152 131.844007 
L 256.247321 132.941539 
L 257.333123 130.225147 
L 258.418924 132.502526 
L 259.504725 120.731492 
L 260.590526 115.655405 
L 261.676327 124.380787 
L 262.762128 124.216157 
L 263.847929 124.874676 
L 264.933731 121.993654 
L 266.019532 121.25282 
L 267.105333 130.417215 
L 268.191134 138.593831 
L 269.276935 134.340893 
L 270.362736 129.182491 
L 271.448538 122.268037 
L 272.534339 126.60329 
L 273.62014 124.627732 
L 274.705941 117.658401 
L 275.791742 121.143066 
L 276.877543 119.579083 
L 277.963344 128.523971 
L 279.049146 112.225616 
L 280.134947 120.868683 
L 281.220748 124.710047 
L 282.306549 120.292479 
L 283.39235 128.71604 
L 284.478151 124.8198 
L 285.563953 124.243595 
L 286.649754 115.024324 
L 287.735555 126.76792 
L 288.821356 133.654935 
L 289.907157 127.645946 
L 290.992958 130.389776 
L 292.07876 123.530199 
L 293.164561 123.475323 
L 294.250362 127.371562 
L 295.336163 117.35658 
L 296.421964 116.999882 
L 297.507765 121.08819 
L 298.593566 124.188719 
L 299.679368 114.228613 
L 300.765169 132.173266 
L 301.85097 111.292714 
L 302.936771 117.35658 
L 304.022572 118.893125 
L 305.108373 119.277261 
L 306.194175 109.344594 
L 307.279976 124.380787 
L 308.365777 132.145828 
L 309.451578 114.942009 
L 310.537379 112.719506 
L 311.62318 122.460105 
L 312.708981 116.945005 
L 313.794783 119.3047 
L 314.880584 120.5943 
L 315.966385 112.143301 
L 317.052186 107.231844 
L 318.137987 121.472326 
L 319.223788 113.213395 
L 320.30959 118.179729 
L 321.395391 118.207167 
L 322.481192 111.978671 
L 323.566993 112.664629 
L 324.652794 115.710281 
L 325.738595 106.106873 
L 326.824396 114.036545 
L 327.910198 110.140305 
L 328.995999 114.118859 
L 330.0818 115.216392 
L 331.167601 105.036779 
L 332.253402 106.545886 
L 333.339203 103.664864 
L 334.425005 102.896591 
L 335.510806 106.820269 
L 336.596607 106.902584 
L 337.682408 111.237837 
L 338.768209 101.552114 
L 339.85401 99.082666 
L 340.939811 105.558107 
L 342.025613 110.195181 
L 343.111414 109.344594 
L 344.197215 103.856932 
L 345.283016 106.518448 
L 346.368817 103.774617 
L 347.454618 105.914805 
L 348.54042 105.366039 
L 349.626221 103.747179 
L 350.712022 105.66786 
L 351.797823 105.228847 
L 352.883624 106.298941 
L 353.969425 101.085663 
L 355.055227 105.201409 
L 356.141028 100.043007 
L 357.226829 101.167978 
L 358.31263 101.167978 
L 359.398431 105.009341 
L 360.484232 100.728965 
L 361.570033 100.948471 
L 362.655835 97.408929 
L 363.741636 104.652643 
L 364.827437 99.19242 
L 365.913238 101.387484 
L 366.999039 99.603994 
L 368.08484 98.5339 
L 369.170642 105.119094 
L 370.256443 104.954464 
L 371.342244 106.737954 
L 372.428045 103.143536 
L 373.513846 103.829494 
L 374.599647 102.896591 
L 375.685448 104.405698 
L 376.77125 103.308166 
L 377.857051 107.176967 
L 378.942852 107.039776 
L 380.028653 104.680081 
L 381.114454 106.847708 
L 382.200255 104.844711 
L 383.286057 106.49101 
L 384.371858 100.344829 
L 385.457659 108.768389 
L 387.629261 109.481785 
L 388.715062 105.805052 
L 389.800863 106.353818 
L 390.886665 105.036779 
L 391.972466 109.207402 
L 393.058267 108.137308 
L 394.144068 108.411691 
L 395.229869 104.158753 
L 396.31567 103.664864 
L 397.401472 97.765628 
L 398.487273 104.241068 
L 398.487273 104.241068 
" clip-path="url(#pb8a0297e1c)" style="fill: none; stroke: #2ca02c; stroke-width: 1.5; stroke-linecap: square"/>
   </g>
   <g id="line2d_20">
    <path d="M 368.08484 54.005641 
L 369.170642 54.045427 
L 370.256443 54.204569 
L 371.342244 53.647571 
L 372.428045 54.124998 
L 373.513846 53.568 
L 374.599647 53.92607 
L 375.685448 55.119636 
L 376.77125 54.562639 
L 377.857051 54.681995 
L 378.942852 55.517492 
L 380.028653 54.841138 
L 381.114454 53.687357 
L 382.200255 54.761566 
L 383.286057 54.443282 
L 384.371858 54.801352 
L 385.457659 54.204569 
L 386.54346 55.159422 
L 387.629261 54.801352 
L 388.715062 57.148699 
L 389.800863 54.721781 
L 390.886665 55.835776 
L 391.972466 54.363711 
L 393.058267 55.915347 
L 394.144068 54.681995 
L 395.229869 54.204569 
L 396.31567 54.761566 
L 397.401472 55.955133 
L 398.487273 55.199207 
L 398.487273 55.199207 
" clip-path="url(#pb8a0297e1c)" style="fill: none; stroke: #d62728; stroke-width: 1.5; stroke-linecap: square"/>
   </g>
   <g id="line2d_21">
    <path d="M 368.08484 97.600998 
L 369.170642 99.19242 
L 370.256443 103.664864 
L 371.342244 96.091891 
L 372.428045 105.558107 
L 373.513846 102.539893 
L 374.599647 97.271738 
L 375.685448 96.366274 
L 376.77125 93.704758 
L 377.857051 93.375498 
L 380.028653 97.052231 
L 381.114454 98.20464 
L 382.200255 101.716744 
L 383.286057 97.408929 
L 384.371858 101.771621 
L 385.457659 100.043007 
L 386.54346 90.247531 
L 387.629261 96.530904 
L 388.715062 98.780845 
L 389.800863 94.582784 
L 390.886665 100.125322 
L 391.972466 97.2443 
L 393.058267 100.674088 
L 394.144068 96.064452 
L 395.229869 95.707754 
L 396.31567 94.80229 
L 397.401472 94.335839 
L 398.487273 90.960927 
L 398.487273 90.960927 
" clip-path="url(#pb8a0297e1c)" style="fill: none; stroke: #9467bd; stroke-width: 1.5; stroke-linecap: square"/>
   </g>
   <g id="patch_3">
    <path d="M 57.6 307.584 
L 57.6 41.472 
" style="fill: none; stroke: #000000; stroke-width: 0.8; stroke-linejoin: miter; stroke-linecap: square"/>
   </g>
   <g id="patch_4">
    <path d="M 414.72 307.584 
L 414.72 41.472 
" style="fill: none; stroke: #000000; stroke-width: 0.8; stroke-linejoin: miter; stroke-linecap: square"/>
   </g>
   <g id="patch_5">
    <path d="M 57.6 307.584 
L 414.72 307.584 
" style="fill: none; stroke: #000000; stroke-width: 0.8; stroke-linejoin: miter; stroke-linecap: square"/>
   </g>
   <g id="patch_6">
    <path d="M 57.6 41.472 
L 414.72 41.472 
" style="fill: none; stroke: #000000; stroke-width: 0.8; stroke-linejoin: miter; stroke-linecap: square"/>
   </g>
   <g id="text_19">
    <!-- Learning Curves -->
    <g transform="translate(187.37625 35.472) scale(0.12 -0.12)">
     <defs>
      <path id="DejaVuSans-4c" d="M 628 4666 
L 1259 4666 
L 1259 531 
L 3531 531 
L 3531 0 
L 628 0 
L 628 4666 
z
" transform="scale(0.015625)"/>
      <path id="DejaVuSans-65" d="M 3597 1894 
L 3597 1613 
L 953 1613 
Q 991 1019 1311 708 
Q 1631 397 2203 397 
Q 2534 397 2845 478 
Q 3156 559 3463 722 
L 3463 178 
Q 3153 47 2828 -22 
Q 2503 -91 2169 -91 
Q 1331 -91 842 396 
Q 353 884 353 1716 
Q 353 2575 817 3079 
Q 1281 3584 2069 3584 
Q 2775 3584 3186 3129 
Q 3597 2675 3597 1894 
z
M 3022 2063 
Q 3016 2534 2758 2815 
Q 2500 3097 2075 3097 
Q 1594 3097 1305 2825 
Q 1016 2553 972 2059 
L 3022 2063 
z
" transform="scale(0.015625)"/>
      <path id="DejaVuSans-6e" d="M 3513 2113 
L 3513 0 
L 2938 0 
L 2938 2094 
Q 2938 2591 2744 2837 
Q 2550 3084 2163 3084 
Q 1697 3084 1428 2787 
Q 1159 2491 1159 1978 
L 1159 0 
L 581 0 
L 581 3500 
L 1159 3500 
L 1159 2956 
Q 1366 3272 1645 3428 
Q 1925 3584 2291 3584 
Q 2894 3584 3203 3211 
Q 3513 2838 3513 2113 
z
" transform="scale(0.015625)"/>
      <path id="DejaVuSans-69" d="M 603 3500 
L 1178 3500 
L 1178 0 
L 603 0 
L 603 3500 
z
M 603 4863 
L 1178 4863 
L 1178 4134 
L 603 4134 
L 603 4863 
z
" transform="scale(0.015625)"/>
      <path id="DejaVuSans-67" d="M 2906 1791 
Q 2906 2416 2648 2759 
Q 2391 3103 1925 3103 
Q 1463 3103 1205 2759 
Q 947 2416 947 1791 
Q 947 1169 1205 825 
Q 1463 481 1925 481 
Q 2391 481 2648 825 
Q 2906 1169 2906 1791 
z
M 3481 434 
Q 3481 -459 3084 -895 
Q 2688 -1331 1869 -1331 
Q 1566 -1331 1297 -1286 
Q 1028 -1241 775 -1147 
L 775 -588 
Q 1028 -725 1275 -790 
Q 1522 -856 1778 -856 
Q 2344 -856 2625 -561 
Q 2906 -266 2906 331 
L 2906 616 
Q 2728 306 2450 153 
Q 2172 0 1784 0 
Q 1141 0 747 490 
Q 353 981 353 1791 
Q 353 2603 747 3093 
Q 1141 3584 1784 3584 
Q 2172 3584 2450 3431 
Q 2728 3278 2906 2969 
L 2906 3500 
L 3481 3500 
L 3481 434 
z
" transform="scale(0.015625)"/>
      <path id="DejaVuSans-20" transform="scale(0.015625)"/>
      <path id="DejaVuSans-43" d="M 4122 4306 
L 4122 3641 
Q 3803 3938 3442 4084 
Q 3081 4231 2675 4231 
Q 1875 4231 1450 3742 
Q 1025 3253 1025 2328 
Q 1025 1406 1450 917 
Q 1875 428 2675 428 
Q 3081 428 3442 575 
Q 3803 722 4122 1019 
L 4122 359 
Q 3791 134 3420 21 
Q 3050 -91 2638 -91 
Q 1578 -91 968 557 
Q 359 1206 359 2328 
Q 359 3453 968 4101 
Q 1578 4750 2638 4750 
Q 3056 4750 3426 4639 
Q 3797 4528 4122 4306 
z
" transform="scale(0.015625)"/>
      <path id="DejaVuSans-76" d="M 191 3500 
L 800 3500 
L 1894 563 
L 2988 3500 
L 3597 3500 
L 2284 0 
L 1503 0 
L 191 3500 
z
" transform="scale(0.015625)"/>
     </defs>
     <use xlink:href="#DejaVuSans-4c"/>
     <use xlink:href="#DejaVuSans-65" x="53.962891"/>
     <use xlink:href="#DejaVuSans-61" x="115.486328"/>
     <use xlink:href="#DejaVuSans-72" x="176.765625"/>
     <use xlink:href="#DejaVuSans-6e" x="216.128906"/>
     <use xlink:href="#DejaVuSans-69" x="279.507812"/>
     <use xlink:href="#DejaVuSans-6e" x="307.291016"/>
     <use xlink:href="#DejaVuSans-67" x="370.669922"/>
     <use xlink:href="#DejaVuSans-20" x="434.146484"/>
     <use xlink:href="#DejaVuSans-43" x="465.933594"/>
     <use xlink:href="#DejaVuSans-75" x="535.757812"/>
     <use xlink:href="#DejaVuSans-72" x="599.136719"/>
     <use xlink:href="#DejaVuSans-76" x="640.25"/>
     <use xlink:href="#DejaVuSans-65" x="699.429688"/>
     <use xlink:href="#DejaVuSans-73" x="760.953125"/>
    </g>
   </g>
   <g id="legend_1">
    <g id="patch_7">
     <path d="M 214.18875 302.584 
L 407.72 302.584 
Q 409.72 302.584 409.72 300.584 
L 409.72 228.193375 
Q 409.72 226.193375 407.72 226.193375 
L 214.18875 226.193375 
Q 212.18875 226.193375 212.18875 228.193375 
L 212.18875 300.584 
Q 212.18875 302.584 214.18875 302.584 
z
" style="fill: #ffffff; opacity: 0.8; stroke: #cccccc; stroke-linejoin: miter"/>
    </g>
    <g id="line2d_22">
     <path d="M 216.18875 234.291812 
L 226.18875 234.291812 
L 236.18875 234.291812 
" style="fill: none; stroke: #1f77b4; stroke-width: 1.5; stroke-linecap: square"/>
    </g>
    <g id="text_20">
     <!-- Train Accuracy -->
     <g transform="translate(244.18875 237.791812) scale(0.1 -0.1)">
      <defs>
       <path id="DejaVuSans-54" d="M -19 4666 
L 3928 4666 
L 3928 4134 
L 2272 4134 
L 2272 0 
L 1638 0 
L 1638 4134 
L -19 4134 
L -19 4666 
z
" transform="scale(0.015625)"/>
      </defs>
      <use xlink:href="#DejaVuSans-54"/>
      <use xlink:href="#DejaVuSans-72" x="46.333984"/>
      <use xlink:href="#DejaVuSans-61" x="87.447266"/>
      <use xlink:href="#DejaVuSans-69" x="148.726562"/>
      <use xlink:href="#DejaVuSans-6e" x="176.509766"/>
      <use xlink:href="#DejaVuSans-20" x="239.888672"/>
      <use xlink:href="#DejaVuSans-41" x="271.675781"/>
      <use xlink:href="#DejaVuSans-63" x="338.333984"/>
      <use xlink:href="#DejaVuSans-63" x="393.314453"/>
      <use xlink:href="#DejaVuSans-75" x="448.294922"/>
      <use xlink:href="#DejaVuSans-72" x="511.673828"/>
      <use xlink:href="#DejaVuSans-61" x="552.787109"/>
      <use xlink:href="#DejaVuSans-63" x="614.066406"/>
      <use xlink:href="#DejaVuSans-79" x="669.046875"/>
     </g>
    </g>
    <g id="line2d_23">
     <path d="M 216.18875 248.969937 
L 226.18875 248.969937 
L 236.18875 248.969937 
" style="fill: none; stroke: #ff7f0e; stroke-width: 1.5; stroke-linecap: square"/>
    </g>
    <g id="text_21">
     <!-- Validation Accuracy -->
     <g transform="translate(244.18875 252.469937) scale(0.1 -0.1)">
      <defs>
       <path id="DejaVuSans-56" d="M 1831 0 
L 50 4666 
L 709 4666 
L 2188 738 
L 3669 4666 
L 4325 4666 
L 2547 0 
L 1831 0 
z
" transform="scale(0.015625)"/>
       <path id="DejaVuSans-6c" d="M 603 4863 
L 1178 4863 
L 1178 0 
L 603 0 
L 603 4863 
z
" transform="scale(0.015625)"/>
       <path id="DejaVuSans-64" d="M 2906 2969 
L 2906 4863 
L 3481 4863 
L 3481 0 
L 2906 0 
L 2906 525 
Q 2725 213 2448 61 
Q 2172 -91 1784 -91 
Q 1150 -91 751 415 
Q 353 922 353 1747 
Q 353 2572 751 3078 
Q 1150 3584 1784 3584 
Q 2172 3584 2448 3432 
Q 2725 3281 2906 2969 
z
M 947 1747 
Q 947 1113 1208 752 
Q 1469 391 1925 391 
Q 2381 391 2643 752 
Q 2906 1113 2906 1747 
Q 2906 2381 2643 2742 
Q 2381 3103 1925 3103 
Q 1469 3103 1208 2742 
Q 947 2381 947 1747 
z
" transform="scale(0.015625)"/>
       <path id="DejaVuSans-74" d="M 1172 4494 
L 1172 3500 
L 2356 3500 
L 2356 3053 
L 1172 3053 
L 1172 1153 
Q 1172 725 1289 603 
Q 1406 481 1766 481 
L 2356 481 
L 2356 0 
L 1766 0 
Q 1100 0 847 248 
Q 594 497 594 1153 
L 594 3053 
L 172 3053 
L 172 3500 
L 594 3500 
L 594 4494 
L 1172 4494 
z
" transform="scale(0.015625)"/>
      </defs>
      <use xlink:href="#DejaVuSans-56"/>
      <use xlink:href="#DejaVuSans-61" x="60.658203"/>
      <use xlink:href="#DejaVuSans-6c" x="121.9375"/>
      <use xlink:href="#DejaVuSans-69" x="149.720703"/>
      <use xlink:href="#DejaVuSans-64" x="177.503906"/>
      <use xlink:href="#DejaVuSans-61" x="240.980469"/>
      <use xlink:href="#DejaVuSans-74" x="302.259766"/>
      <use xlink:href="#DejaVuSans-69" x="341.46875"/>
      <use xlink:href="#DejaVuSans-6f" x="369.251953"/>
      <use xlink:href="#DejaVuSans-6e" x="430.433594"/>
      <use xlink:href="#DejaVuSans-20" x="493.8125"/>
      <use xlink:href="#DejaVuSans-41" x="525.599609"/>
      <use xlink:href="#DejaVuSans-63" x="592.257812"/>
      <use xlink:href="#DejaVuSans-63" x="647.238281"/>
      <use xlink:href="#DejaVuSans-75" x="702.21875"/>
      <use xlink:href="#DejaVuSans-72" x="765.597656"/>
      <use xlink:href="#DejaVuSans-61" x="806.710938"/>
      <use xlink:href="#DejaVuSans-63" x="867.990234"/>
      <use xlink:href="#DejaVuSans-79" x="922.970703"/>
     </g>
    </g>
    <g id="line2d_24">
     <path d="M 216.18875 263.648062 
L 226.18875 263.648062 
L 236.18875 263.648062 
" style="fill: none; stroke: #2ca02c; stroke-width: 1.5; stroke-linecap: square"/>
    </g>
    <g id="text_22">
     <!-- Robust Validation Accuracy -->
     <g transform="translate(244.18875 267.148062) scale(0.1 -0.1)">
      <defs>
       <path id="DejaVuSans-52" d="M 2841 2188 
Q 3044 2119 3236 1894 
Q 3428 1669 3622 1275 
L 4263 0 
L 3584 0 
L 2988 1197 
Q 2756 1666 2539 1819 
Q 2322 1972 1947 1972 
L 1259 1972 
L 1259 0 
L 628 0 
L 628 4666 
L 2053 4666 
Q 2853 4666 3247 4331 
Q 3641 3997 3641 3322 
Q 3641 2881 3436 2590 
Q 3231 2300 2841 2188 
z
M 1259 4147 
L 1259 2491 
L 2053 2491 
Q 2509 2491 2742 2702 
Q 2975 2913 2975 3322 
Q 2975 3731 2742 3939 
Q 2509 4147 2053 4147 
L 1259 4147 
z
" transform="scale(0.015625)"/>
       <path id="DejaVuSans-62" d="M 3116 1747 
Q 3116 2381 2855 2742 
Q 2594 3103 2138 3103 
Q 1681 3103 1420 2742 
Q 1159 2381 1159 1747 
Q 1159 1113 1420 752 
Q 1681 391 2138 391 
Q 2594 391 2855 752 
Q 3116 1113 3116 1747 
z
M 1159 2969 
Q 1341 3281 1617 3432 
Q 1894 3584 2278 3584 
Q 2916 3584 3314 3078 
Q 3713 2572 3713 1747 
Q 3713 922 3314 415 
Q 2916 -91 2278 -91 
Q 1894 -91 1617 61 
Q 1341 213 1159 525 
L 1159 0 
L 581 0 
L 581 4863 
L 1159 4863 
L 1159 2969 
z
" transform="scale(0.015625)"/>
      </defs>
      <use xlink:href="#DejaVuSans-52"/>
      <use xlink:href="#DejaVuSans-6f" x="64.982422"/>
      <use xlink:href="#DejaVuSans-62" x="126.164062"/>
      <use xlink:href="#DejaVuSans-75" x="189.640625"/>
      <use xlink:href="#DejaVuSans-73" x="253.019531"/>
      <use xlink:href="#DejaVuSans-74" x="305.119141"/>
      <use xlink:href="#DejaVuSans-20" x="344.328125"/>
      <use xlink:href="#DejaVuSans-56" x="376.115234"/>
      <use xlink:href="#DejaVuSans-61" x="436.773438"/>
      <use xlink:href="#DejaVuSans-6c" x="498.052734"/>
      <use xlink:href="#DejaVuSans-69" x="525.835938"/>
      <use xlink:href="#DejaVuSans-64" x="553.619141"/>
      <use xlink:href="#DejaVuSans-61" x="617.095703"/>
      <use xlink:href="#DejaVuSans-74" x="678.375"/>
      <use xlink:href="#DejaVuSans-69" x="717.583984"/>
      <use xlink:href="#DejaVuSans-6f" x="745.367188"/>
      <use xlink:href="#DejaVuSans-6e" x="806.548828"/>
      <use xlink:href="#DejaVuSans-20" x="869.927734"/>
      <use xlink:href="#DejaVuSans-41" x="901.714844"/>
      <use xlink:href="#DejaVuSans-63" x="968.373047"/>
      <use xlink:href="#DejaVuSans-63" x="1023.353516"/>
      <use xlink:href="#DejaVuSans-75" x="1078.333984"/>
      <use xlink:href="#DejaVuSans-72" x="1141.712891"/>
      <use xlink:href="#DejaVuSans-61" x="1182.826172"/>
      <use xlink:href="#DejaVuSans-63" x="1244.105469"/>
      <use xlink:href="#DejaVuSans-79" x="1299.085938"/>
     </g>
    </g>
    <g id="line2d_25">
     <path d="M 216.18875 278.326188 
L 226.18875 278.326188 
L 236.18875 278.326188 
" style="fill: none; stroke: #d62728; stroke-width: 1.5; stroke-linecap: square"/>
    </g>
    <g id="text_23">
     <!-- SWA Validation Accuracy -->
     <g transform="translate(244.18875 281.826188) scale(0.1 -0.1)">
      <defs>
       <path id="DejaVuSans-53" d="M 3425 4513 
L 3425 3897 
Q 3066 4069 2747 4153 
Q 2428 4238 2131 4238 
Q 1616 4238 1336 4038 
Q 1056 3838 1056 3469 
Q 1056 3159 1242 3001 
Q 1428 2844 1947 2747 
L 2328 2669 
Q 3034 2534 3370 2195 
Q 3706 1856 3706 1288 
Q 3706 609 3251 259 
Q 2797 -91 1919 -91 
Q 1588 -91 1214 -16 
Q 841 59 441 206 
L 441 856 
Q 825 641 1194 531 
Q 1563 422 1919 422 
Q 2459 422 2753 634 
Q 3047 847 3047 1241 
Q 3047 1584 2836 1778 
Q 2625 1972 2144 2069 
L 1759 2144 
Q 1053 2284 737 2584 
Q 422 2884 422 3419 
Q 422 4038 858 4394 
Q 1294 4750 2059 4750 
Q 2388 4750 2728 4690 
Q 3069 4631 3425 4513 
z
" transform="scale(0.015625)"/>
       <path id="DejaVuSans-57" d="M 213 4666 
L 850 4666 
L 1831 722 
L 2809 4666 
L 3519 4666 
L 4500 722 
L 5478 4666 
L 6119 4666 
L 4947 0 
L 4153 0 
L 3169 4050 
L 2175 0 
L 1381 0 
L 213 4666 
z
" transform="scale(0.015625)"/>
      </defs>
      <use xlink:href="#DejaVuSans-53"/>
      <use xlink:href="#DejaVuSans-57" x="63.476562"/>
      <use xlink:href="#DejaVuSans-41" x="156.853516"/>
      <use xlink:href="#DejaVuSans-20" x="225.261719"/>
      <use xlink:href="#DejaVuSans-56" x="257.048828"/>
      <use xlink:href="#DejaVuSans-61" x="317.707031"/>
      <use xlink:href="#DejaVuSans-6c" x="378.986328"/>
      <use xlink:href="#DejaVuSans-69" x="406.769531"/>
      <use xlink:href="#DejaVuSans-64" x="434.552734"/>
      <use xlink:href="#DejaVuSans-61" x="498.029297"/>
      <use xlink:href="#DejaVuSans-74" x="559.308594"/>
      <use xlink:href="#DejaVuSans-69" x="598.517578"/>
      <use xlink:href="#DejaVuSans-6f" x="626.300781"/>
      <use xlink:href="#DejaVuSans-6e" x="687.482422"/>
      <use xlink:href="#DejaVuSans-20" x="750.861328"/>
      <use xlink:href="#DejaVuSans-41" x="782.648438"/>
      <use xlink:href="#DejaVuSans-63" x="849.306641"/>
      <use xlink:href="#DejaVuSans-63" x="904.287109"/>
      <use xlink:href="#DejaVuSans-75" x="959.267578"/>
      <use xlink:href="#DejaVuSans-72" x="1022.646484"/>
      <use xlink:href="#DejaVuSans-61" x="1063.759766"/>
      <use xlink:href="#DejaVuSans-63" x="1125.039062"/>
      <use xlink:href="#DejaVuSans-79" x="1180.019531"/>
     </g>
    </g>
    <g id="line2d_26">
     <path d="M 216.18875 293.004312 
L 226.18875 293.004312 
L 236.18875 293.004312 
" style="fill: none; stroke: #9467bd; stroke-width: 1.5; stroke-linecap: square"/>
    </g>
    <g id="text_24">
     <!-- SWA Robust Validation Accuracy -->
     <g transform="translate(244.18875 296.504312) scale(0.1 -0.1)">
      <use xlink:href="#DejaVuSans-53"/>
      <use xlink:href="#DejaVuSans-57" x="63.476562"/>
      <use xlink:href="#DejaVuSans-41" x="156.853516"/>
      <use xlink:href="#DejaVuSans-20" x="225.261719"/>
      <use xlink:href="#DejaVuSans-52" x="257.048828"/>
      <use xlink:href="#DejaVuSans-6f" x="322.03125"/>
      <use xlink:href="#DejaVuSans-62" x="383.212891"/>
      <use xlink:href="#DejaVuSans-75" x="446.689453"/>
      <use xlink:href="#DejaVuSans-73" x="510.068359"/>
      <use xlink:href="#DejaVuSans-74" x="562.167969"/>
      <use xlink:href="#DejaVuSans-20" x="601.376953"/>
      <use xlink:href="#DejaVuSans-56" x="633.164062"/>
      <use xlink:href="#DejaVuSans-61" x="693.822266"/>
      <use xlink:href="#DejaVuSans-6c" x="755.101562"/>
      <use xlink:href="#DejaVuSans-69" x="782.884766"/>
      <use xlink:href="#DejaVuSans-64" x="810.667969"/>
      <use xlink:href="#DejaVuSans-61" x="874.144531"/>
      <use xlink:href="#DejaVuSans-74" x="935.423828"/>
      <use xlink:href="#DejaVuSans-69" x="974.632812"/>
      <use xlink:href="#DejaVuSans-6f" x="1002.416016"/>
      <use xlink:href="#DejaVuSans-6e" x="1063.597656"/>
      <use xlink:href="#DejaVuSans-20" x="1126.976562"/>
      <use xlink:href="#DejaVuSans-41" x="1158.763672"/>
      <use xlink:href="#DejaVuSans-63" x="1225.421875"/>
      <use xlink:href="#DejaVuSans-63" x="1280.402344"/>
      <use xlink:href="#DejaVuSans-75" x="1335.382812"/>
      <use xlink:href="#DejaVuSans-72" x="1398.761719"/>
      <use xlink:href="#DejaVuSans-61" x="1439.875"/>
      <use xlink:href="#DejaVuSans-63" x="1501.154297"/>
      <use xlink:href="#DejaVuSans-79" x="1556.134766"/>
     </g>
    </g>
   </g>
  </g>
 </g>
 <defs>
  <clipPath id="pb8a0297e1c">
   <rect x="57.6" y="41.472" width="357.12" height="266.112"/>
  </clipPath>
 </defs>
</svg>
