<?xml version="1.0" encoding="utf-8" standalone="no"?>
<!DOCTYPE svg PUBLIC "-//W3C//DTD SVG 1.1//EN"
  "http://www.w3.org/Graphics/SVG/1.1/DTD/svg11.dtd">
<svg xmlns:xlink="http://www.w3.org/1999/xlink" width="460.8pt" height="345.6pt" viewBox="0 0 460.8 345.6" xmlns="http://www.w3.org/2000/svg" version="1.1">
 <metadata>
  <rdf:RDF xmlns:dc="http://purl.org/dc/elements/1.1/" xmlns:cc="http://creativecommons.org/ns#" xmlns:rdf="http://www.w3.org/1999/02/22-rdf-syntax-ns#">
   <cc:Work>
    <dc:type rdf:resource="http://purl.org/dc/dcmitype/StillImage"/>
    <dc:date>2025-09-09T19:30:03.383441</dc:date>
    <dc:format>image/svg+xml</dc:format>
    <dc:creator>
     <cc:Agent>
      <dc:title>Matplotlib v3.9.1, https://matplotlib.org/</dc:title>
     </cc:Agent>
    </dc:creator>
   </cc:Work>
  </rdf:RDF>
 </metadata>
 <defs>
  <style type="text/css">*{stroke-linejoin: round; stroke-linecap: butt}</style>
 </defs>
 <g id="figure_1">
  <g id="patch_1">
   <path d="M 0 345.6 
L 460.8 345.6 
L 460.8 0 
L 0 0 
z
" style="fill: #ffffff"/>
  </g>
  <g id="axes_1">
   <g id="patch_2">
    <path d="M 57.6 307.584 
L 414.72 307.584 
L 414.72 41.472 
L 57.6 41.472 
z
" style="fill: #ffffff"/>
   </g>
   <g id="matplotlib.axis_1">
    <g id="xtick_1">
     <g id="line2d_1">
      <defs>
       <path id="m9e5116b507" d="M 0 0 
L 0 3.5 
" style="stroke: #000000; stroke-width: 0.8"/>
      </defs>
      <g>
       <use xlink:href="#m9e5116b507" x="73.832727" y="307.584" style="stroke: #000000; stroke-width: 0.8"/>
      </g>
     </g>
     <g id="text_1">
      <!-- 1 -->
      <g transform="translate(70.651477 322.182437) scale(0.1 -0.1)">
       <defs>
        <path id="DejaVuSans-31" d="M 794 531 
L 1825 531 
L 1825 4091 
L 703 3866 
L 703 4441 
L 1819 4666 
L 2450 4666 
L 2450 531 
L 3481 531 
L 3481 0 
L 794 0 
L 794 531 
z
" transform="scale(0.015625)"/>
       </defs>
       <use xlink:href="#DejaVuSans-31"/>
      </g>
     </g>
    </g>
    <g id="xtick_2">
     <g id="line2d_2">
      <g>
       <use xlink:href="#m9e5116b507" x="109.664165" y="307.584" style="stroke: #000000; stroke-width: 0.8"/>
      </g>
     </g>
     <g id="text_2">
      <!-- 34 -->
      <g transform="translate(103.301665 322.182437) scale(0.1 -0.1)">
       <defs>
        <path id="DejaVuSans-33" d="M 2597 2516 
Q 3050 2419 3304 2112 
Q 3559 1806 3559 1356 
Q 3559 666 3084 287 
Q 2609 -91 1734 -91 
Q 1441 -91 1130 -33 
Q 819 25 488 141 
L 488 750 
Q 750 597 1062 519 
Q 1375 441 1716 441 
Q 2309 441 2620 675 
Q 2931 909 2931 1356 
Q 2931 1769 2642 2001 
Q 2353 2234 1838 2234 
L 1294 2234 
L 1294 2753 
L 1863 2753 
Q 2328 2753 2575 2939 
Q 2822 3125 2822 3475 
Q 2822 3834 2567 4026 
Q 2313 4219 1838 4219 
Q 1578 4219 1281 4162 
Q 984 4106 628 3988 
L 628 4550 
Q 988 4650 1302 4700 
Q 1616 4750 1894 4750 
Q 2613 4750 3031 4423 
Q 3450 4097 3450 3541 
Q 3450 3153 3228 2886 
Q 3006 2619 2597 2516 
z
" transform="scale(0.015625)"/>
        <path id="DejaVuSans-34" d="M 2419 4116 
L 825 1625 
L 2419 1625 
L 2419 4116 
z
M 2253 4666 
L 3047 4666 
L 3047 1625 
L 3713 1625 
L 3713 1100 
L 3047 1100 
L 3047 0 
L 2419 0 
L 2419 1100 
L 313 1100 
L 313 1709 
L 2253 4666 
z
" transform="scale(0.015625)"/>
       </defs>
       <use xlink:href="#DejaVuSans-33"/>
       <use xlink:href="#DejaVuSans-34" x="63.623047"/>
      </g>
     </g>
    </g>
    <g id="xtick_3">
     <g id="line2d_3">
      <g>
       <use xlink:href="#m9e5116b507" x="145.495604" y="307.584" style="stroke: #000000; stroke-width: 0.8"/>
      </g>
     </g>
     <g id="text_3">
      <!-- 67 -->
      <g transform="translate(139.133104 322.182437) scale(0.1 -0.1)">
       <defs>
        <path id="DejaVuSans-36" d="M 2113 2584 
Q 1688 2584 1439 2293 
Q 1191 2003 1191 1497 
Q 1191 994 1439 701 
Q 1688 409 2113 409 
Q 2538 409 2786 701 
Q 3034 994 3034 1497 
Q 3034 2003 2786 2293 
Q 2538 2584 2113 2584 
z
M 3366 4563 
L 3366 3988 
Q 3128 4100 2886 4159 
Q 2644 4219 2406 4219 
Q 1781 4219 1451 3797 
Q 1122 3375 1075 2522 
Q 1259 2794 1537 2939 
Q 1816 3084 2150 3084 
Q 2853 3084 3261 2657 
Q 3669 2231 3669 1497 
Q 3669 778 3244 343 
Q 2819 -91 2113 -91 
Q 1303 -91 875 529 
Q 447 1150 447 2328 
Q 447 3434 972 4092 
Q 1497 4750 2381 4750 
Q 2619 4750 2861 4703 
Q 3103 4656 3366 4563 
z
" transform="scale(0.015625)"/>
        <path id="DejaVuSans-37" d="M 525 4666 
L 3525 4666 
L 3525 4397 
L 1831 0 
L 1172 0 
L 2766 4134 
L 525 4134 
L 525 4666 
z
" transform="scale(0.015625)"/>
       </defs>
       <use xlink:href="#DejaVuSans-36"/>
       <use xlink:href="#DejaVuSans-37" x="63.623047"/>
      </g>
     </g>
    </g>
    <g id="xtick_4">
     <g id="line2d_4">
      <g>
       <use xlink:href="#m9e5116b507" x="181.327042" y="307.584" style="stroke: #000000; stroke-width: 0.8"/>
      </g>
     </g>
     <g id="text_4">
      <!-- 100 -->
      <g transform="translate(171.783292 322.182437) scale(0.1 -0.1)">
       <defs>
        <path id="DejaVuSans-30" d="M 2034 4250 
Q 1547 4250 1301 3770 
Q 1056 3291 1056 2328 
Q 1056 1369 1301 889 
Q 1547 409 2034 409 
Q 2525 409 2770 889 
Q 3016 1369 3016 2328 
Q 3016 3291 2770 3770 
Q 2525 4250 2034 4250 
z
M 2034 4750 
Q 2819 4750 3233 4129 
Q 3647 3509 3647 2328 
Q 3647 1150 3233 529 
Q 2819 -91 2034 -91 
Q 1250 -91 836 529 
Q 422 1150 422 2328 
Q 422 3509 836 4129 
Q 1250 4750 2034 4750 
z
" transform="scale(0.015625)"/>
       </defs>
       <use xlink:href="#DejaVuSans-31"/>
       <use xlink:href="#DejaVuSans-30" x="63.623047"/>
       <use xlink:href="#DejaVuSans-30" x="127.246094"/>
      </g>
     </g>
    </g>
    <g id="xtick_5">
     <g id="line2d_5">
      <g>
       <use xlink:href="#m9e5116b507" x="217.15848" y="307.584" style="stroke: #000000; stroke-width: 0.8"/>
      </g>
     </g>
     <g id="text_5">
      <!-- 133 -->
      <g transform="translate(207.61473 322.182437) scale(0.1 -0.1)">
       <use xlink:href="#DejaVuSans-31"/>
       <use xlink:href="#DejaVuSans-33" x="63.623047"/>
       <use xlink:href="#DejaVuSans-33" x="127.246094"/>
      </g>
     </g>
    </g>
    <g id="xtick_6">
     <g id="line2d_6">
      <g>
       <use xlink:href="#m9e5116b507" x="254.075719" y="307.584" style="stroke: #000000; stroke-width: 0.8"/>
      </g>
     </g>
     <g id="text_6">
      <!-- 167 -->
      <g transform="translate(244.531969 322.182437) scale(0.1 -0.1)">
       <use xlink:href="#DejaVuSans-31"/>
       <use xlink:href="#DejaVuSans-36" x="63.623047"/>
       <use xlink:href="#DejaVuSans-37" x="127.246094"/>
      </g>
     </g>
    </g>
    <g id="xtick_7">
     <g id="line2d_7">
      <g>
       <use xlink:href="#m9e5116b507" x="289.907157" y="307.584" style="stroke: #000000; stroke-width: 0.8"/>
      </g>
     </g>
     <g id="text_7">
      <!-- 200 -->
      <g transform="translate(280.363407 322.182437) scale(0.1 -0.1)">
       <defs>
        <path id="DejaVuSans-32" d="M 1228 531 
L 3431 531 
L 3431 0 
L 469 0 
L 469 531 
Q 828 903 1448 1529 
Q 2069 2156 2228 2338 
Q 2531 2678 2651 2914 
Q 2772 3150 2772 3378 
Q 2772 3750 2511 3984 
Q 2250 4219 1831 4219 
Q 1534 4219 1204 4116 
Q 875 4013 500 3803 
L 500 4441 
Q 881 4594 1212 4672 
Q 1544 4750 1819 4750 
Q 2544 4750 2975 4387 
Q 3406 4025 3406 3419 
Q 3406 3131 3298 2873 
Q 3191 2616 2906 2266 
Q 2828 2175 2409 1742 
Q 1991 1309 1228 531 
z
" transform="scale(0.015625)"/>
       </defs>
       <use xlink:href="#DejaVuSans-32"/>
       <use xlink:href="#DejaVuSans-30" x="63.623047"/>
       <use xlink:href="#DejaVuSans-30" x="127.246094"/>
      </g>
     </g>
    </g>
    <g id="xtick_8">
     <g id="line2d_8">
      <g>
       <use xlink:href="#m9e5116b507" x="325.738595" y="307.584" style="stroke: #000000; stroke-width: 0.8"/>
      </g>
     </g>
     <g id="text_8">
      <!-- 233 -->
      <g transform="translate(316.194845 322.182437) scale(0.1 -0.1)">
       <use xlink:href="#DejaVuSans-32"/>
       <use xlink:href="#DejaVuSans-33" x="63.623047"/>
       <use xlink:href="#DejaVuSans-33" x="127.246094"/>
      </g>
     </g>
    </g>
    <g id="xtick_9">
     <g id="line2d_9">
      <g>
       <use xlink:href="#m9e5116b507" x="361.570033" y="307.584" style="stroke: #000000; stroke-width: 0.8"/>
      </g>
     </g>
     <g id="text_9">
      <!-- 266 -->
      <g transform="translate(352.026283 322.182437) scale(0.1 -0.1)">
       <use xlink:href="#DejaVuSans-32"/>
       <use xlink:href="#DejaVuSans-36" x="63.623047"/>
       <use xlink:href="#DejaVuSans-36" x="127.246094"/>
      </g>
     </g>
    </g>
    <g id="xtick_10">
     <g id="line2d_10">
      <g>
       <use xlink:href="#m9e5116b507" x="398.487273" y="307.584" style="stroke: #000000; stroke-width: 0.8"/>
      </g>
     </g>
     <g id="text_10">
      <!-- 300 -->
      <g transform="translate(388.943523 322.182437) scale(0.1 -0.1)">
       <use xlink:href="#DejaVuSans-33"/>
       <use xlink:href="#DejaVuSans-30" x="63.623047"/>
       <use xlink:href="#DejaVuSans-30" x="127.246094"/>
      </g>
     </g>
    </g>
    <g id="text_11">
     <!-- Epochs -->
     <g transform="translate(218.244375 335.860562) scale(0.1 -0.1)">
      <defs>
       <path id="DejaVuSans-45" d="M 628 4666 
L 3578 4666 
L 3578 4134 
L 1259 4134 
L 1259 2753 
L 3481 2753 
L 3481 2222 
L 1259 2222 
L 1259 531 
L 3634 531 
L 3634 0 
L 628 0 
L 628 4666 
z
" transform="scale(0.015625)"/>
       <path id="DejaVuSans-70" d="M 1159 525 
L 1159 -1331 
L 581 -1331 
L 581 3500 
L 1159 3500 
L 1159 2969 
Q 1341 3281 1617 3432 
Q 1894 3584 2278 3584 
Q 2916 3584 3314 3078 
Q 3713 2572 3713 1747 
Q 3713 922 3314 415 
Q 2916 -91 2278 -91 
Q 1894 -91 1617 61 
Q 1341 213 1159 525 
z
M 3116 1747 
Q 3116 2381 2855 2742 
Q 2594 3103 2138 3103 
Q 1681 3103 1420 2742 
Q 1159 2381 1159 1747 
Q 1159 1113 1420 752 
Q 1681 391 2138 391 
Q 2594 391 2855 752 
Q 3116 1113 3116 1747 
z
" transform="scale(0.015625)"/>
       <path id="DejaVuSans-6f" d="M 1959 3097 
Q 1497 3097 1228 2736 
Q 959 2375 959 1747 
Q 959 1119 1226 758 
Q 1494 397 1959 397 
Q 2419 397 2687 759 
Q 2956 1122 2956 1747 
Q 2956 2369 2687 2733 
Q 2419 3097 1959 3097 
z
M 1959 3584 
Q 2709 3584 3137 3096 
Q 3566 2609 3566 1747 
Q 3566 888 3137 398 
Q 2709 -91 1959 -91 
Q 1206 -91 779 398 
Q 353 888 353 1747 
Q 353 2609 779 3096 
Q 1206 3584 1959 3584 
z
" transform="scale(0.015625)"/>
       <path id="DejaVuSans-63" d="M 3122 3366 
L 3122 2828 
Q 2878 2963 2633 3030 
Q 2388 3097 2138 3097 
Q 1578 3097 1268 2742 
Q 959 2388 959 1747 
Q 959 1106 1268 751 
Q 1578 397 2138 397 
Q 2388 397 2633 464 
Q 2878 531 3122 666 
L 3122 134 
Q 2881 22 2623 -34 
Q 2366 -91 2075 -91 
Q 1284 -91 818 406 
Q 353 903 353 1747 
Q 353 2603 823 3093 
Q 1294 3584 2113 3584 
Q 2378 3584 2631 3529 
Q 2884 3475 3122 3366 
z
" transform="scale(0.015625)"/>
       <path id="DejaVuSans-68" d="M 3513 2113 
L 3513 0 
L 2938 0 
L 2938 2094 
Q 2938 2591 2744 2837 
Q 2550 3084 2163 3084 
Q 1697 3084 1428 2787 
Q 1159 2491 1159 1978 
L 1159 0 
L 581 0 
L 581 4863 
L 1159 4863 
L 1159 2956 
Q 1366 3272 1645 3428 
Q 1925 3584 2291 3584 
Q 2894 3584 3203 3211 
Q 3513 2838 3513 2113 
z
" transform="scale(0.015625)"/>
       <path id="DejaVuSans-73" d="M 2834 3397 
L 2834 2853 
Q 2591 2978 2328 3040 
Q 2066 3103 1784 3103 
Q 1356 3103 1142 2972 
Q 928 2841 928 2578 
Q 928 2378 1081 2264 
Q 1234 2150 1697 2047 
L 1894 2003 
Q 2506 1872 2764 1633 
Q 3022 1394 3022 966 
Q 3022 478 2636 193 
Q 2250 -91 1575 -91 
Q 1294 -91 989 -36 
Q 684 19 347 128 
L 347 722 
Q 666 556 975 473 
Q 1284 391 1588 391 
Q 1994 391 2212 530 
Q 2431 669 2431 922 
Q 2431 1156 2273 1281 
Q 2116 1406 1581 1522 
L 1381 1569 
Q 847 1681 609 1914 
Q 372 2147 372 2553 
Q 372 3047 722 3315 
Q 1072 3584 1716 3584 
Q 2034 3584 2315 3537 
Q 2597 3491 2834 3397 
z
" transform="scale(0.015625)"/>
      </defs>
      <use xlink:href="#DejaVuSans-45"/>
      <use xlink:href="#DejaVuSans-70" x="63.183594"/>
      <use xlink:href="#DejaVuSans-6f" x="126.660156"/>
      <use xlink:href="#DejaVuSans-63" x="187.841797"/>
      <use xlink:href="#DejaVuSans-68" x="242.822266"/>
      <use xlink:href="#DejaVuSans-73" x="306.201172"/>
     </g>
    </g>
   </g>
   <g id="matplotlib.axis_2">
    <g id="ytick_1">
     <g id="line2d_11">
      <defs>
       <path id="m836ef43aa8" d="M 0 0 
L -3.5 0 
" style="stroke: #000000; stroke-width: 0.8"/>
      </defs>
      <g>
       <use xlink:href="#m836ef43aa8" x="57.6" y="288.595272" style="stroke: #000000; stroke-width: 0.8"/>
      </g>
     </g>
     <g id="text_12">
      <!-- 30 -->
      <g transform="translate(37.875 292.394491) scale(0.1 -0.1)">
       <use xlink:href="#DejaVuSans-33"/>
       <use xlink:href="#DejaVuSans-30" x="63.623047"/>
      </g>
     </g>
    </g>
    <g id="ytick_2">
     <g id="line2d_12">
      <g>
       <use xlink:href="#m836ef43aa8" x="57.6" y="253.46414" style="stroke: #000000; stroke-width: 0.8"/>
      </g>
     </g>
     <g id="text_13">
      <!-- 40 -->
      <g transform="translate(37.875 257.263359) scale(0.1 -0.1)">
       <use xlink:href="#DejaVuSans-34"/>
       <use xlink:href="#DejaVuSans-30" x="63.623047"/>
      </g>
     </g>
    </g>
    <g id="ytick_3">
     <g id="line2d_13">
      <g>
       <use xlink:href="#m836ef43aa8" x="57.6" y="218.333008" style="stroke: #000000; stroke-width: 0.8"/>
      </g>
     </g>
     <g id="text_14">
      <!-- 50 -->
      <g transform="translate(37.875 222.132227) scale(0.1 -0.1)">
       <defs>
        <path id="DejaVuSans-35" d="M 691 4666 
L 3169 4666 
L 3169 4134 
L 1269 4134 
L 1269 2991 
Q 1406 3038 1543 3061 
Q 1681 3084 1819 3084 
Q 2600 3084 3056 2656 
Q 3513 2228 3513 1497 
Q 3513 744 3044 326 
Q 2575 -91 1722 -91 
Q 1428 -91 1123 -41 
Q 819 9 494 109 
L 494 744 
Q 775 591 1075 516 
Q 1375 441 1709 441 
Q 2250 441 2565 725 
Q 2881 1009 2881 1497 
Q 2881 1984 2565 2268 
Q 2250 2553 1709 2553 
Q 1456 2553 1204 2497 
Q 953 2441 691 2322 
L 691 4666 
z
" transform="scale(0.015625)"/>
       </defs>
       <use xlink:href="#DejaVuSans-35"/>
       <use xlink:href="#DejaVuSans-30" x="63.623047"/>
      </g>
     </g>
    </g>
    <g id="ytick_4">
     <g id="line2d_14">
      <g>
       <use xlink:href="#m836ef43aa8" x="57.6" y="183.201876" style="stroke: #000000; stroke-width: 0.8"/>
      </g>
     </g>
     <g id="text_15">
      <!-- 60 -->
      <g transform="translate(37.875 187.001095) scale(0.1 -0.1)">
       <use xlink:href="#DejaVuSans-36"/>
       <use xlink:href="#DejaVuSans-30" x="63.623047"/>
      </g>
     </g>
    </g>
    <g id="ytick_5">
     <g id="line2d_15">
      <g>
       <use xlink:href="#m836ef43aa8" x="57.6" y="148.070745" style="stroke: #000000; stroke-width: 0.8"/>
      </g>
     </g>
     <g id="text_16">
      <!-- 70 -->
      <g transform="translate(37.875 151.869963) scale(0.1 -0.1)">
       <use xlink:href="#DejaVuSans-37"/>
       <use xlink:href="#DejaVuSans-30" x="63.623047"/>
      </g>
     </g>
    </g>
    <g id="ytick_6">
     <g id="line2d_16">
      <g>
       <use xlink:href="#m836ef43aa8" x="57.6" y="112.939613" style="stroke: #000000; stroke-width: 0.8"/>
      </g>
     </g>
     <g id="text_17">
      <!-- 80 -->
      <g transform="translate(37.875 116.738832) scale(0.1 -0.1)">
       <defs>
        <path id="DejaVuSans-38" d="M 2034 2216 
Q 1584 2216 1326 1975 
Q 1069 1734 1069 1313 
Q 1069 891 1326 650 
Q 1584 409 2034 409 
Q 2484 409 2743 651 
Q 3003 894 3003 1313 
Q 3003 1734 2745 1975 
Q 2488 2216 2034 2216 
z
M 1403 2484 
Q 997 2584 770 2862 
Q 544 3141 544 3541 
Q 544 4100 942 4425 
Q 1341 4750 2034 4750 
Q 2731 4750 3128 4425 
Q 3525 4100 3525 3541 
Q 3525 3141 3298 2862 
Q 3072 2584 2669 2484 
Q 3125 2378 3379 2068 
Q 3634 1759 3634 1313 
Q 3634 634 3220 271 
Q 2806 -91 2034 -91 
Q 1263 -91 848 271 
Q 434 634 434 1313 
Q 434 1759 690 2068 
Q 947 2378 1403 2484 
z
M 1172 3481 
Q 1172 3119 1398 2916 
Q 1625 2713 2034 2713 
Q 2441 2713 2670 2916 
Q 2900 3119 2900 3481 
Q 2900 3844 2670 4047 
Q 2441 4250 2034 4250 
Q 1625 4250 1398 4047 
Q 1172 3844 1172 3481 
z
" transform="scale(0.015625)"/>
       </defs>
       <use xlink:href="#DejaVuSans-38"/>
       <use xlink:href="#DejaVuSans-30" x="63.623047"/>
      </g>
     </g>
    </g>
    <g id="ytick_7">
     <g id="line2d_17">
      <g>
       <use xlink:href="#m836ef43aa8" x="57.6" y="77.808481" style="stroke: #000000; stroke-width: 0.8"/>
      </g>
     </g>
     <g id="text_18">
      <!-- 90 -->
      <g transform="translate(37.875 81.6077) scale(0.1 -0.1)">
       <defs>
        <path id="DejaVuSans-39" d="M 703 97 
L 703 672 
Q 941 559 1184 500 
Q 1428 441 1663 441 
Q 2288 441 2617 861 
Q 2947 1281 2994 2138 
Q 2813 1869 2534 1725 
Q 2256 1581 1919 1581 
Q 1219 1581 811 2004 
Q 403 2428 403 3163 
Q 403 3881 828 4315 
Q 1253 4750 1959 4750 
Q 2769 4750 3195 4129 
Q 3622 3509 3622 2328 
Q 3622 1225 3098 567 
Q 2575 -91 1691 -91 
Q 1453 -91 1209 -44 
Q 966 3 703 97 
z
M 1959 2075 
Q 2384 2075 2632 2365 
Q 2881 2656 2881 3163 
Q 2881 3666 2632 3958 
Q 2384 4250 1959 4250 
Q 1534 4250 1286 3958 
Q 1038 3666 1038 3163 
Q 1038 2656 1286 2365 
Q 1534 2075 1959 2075 
z
" transform="scale(0.015625)"/>
       </defs>
       <use xlink:href="#DejaVuSans-39"/>
       <use xlink:href="#DejaVuSans-30" x="63.623047"/>
      </g>
     </g>
    </g>
    <g id="ytick_8">
     <g id="line2d_18">
      <g>
       <use xlink:href="#m836ef43aa8" x="57.6" y="42.677349" style="stroke: #000000; stroke-width: 0.8"/>
      </g>
     </g>
     <g id="text_19">
      <!-- 100 -->
      <g transform="translate(31.5125 46.476568) scale(0.1 -0.1)">
       <use xlink:href="#DejaVuSans-31"/>
       <use xlink:href="#DejaVuSans-30" x="63.623047"/>
       <use xlink:href="#DejaVuSans-30" x="127.246094"/>
      </g>
     </g>
    </g>
    <g id="text_20">
     <!-- Accuracy -->
     <g transform="translate(25.432812 197.356125) rotate(-90) scale(0.1 -0.1)">
      <defs>
       <path id="DejaVuSans-41" d="M 2188 4044 
L 1331 1722 
L 3047 1722 
L 2188 4044 
z
M 1831 4666 
L 2547 4666 
L 4325 0 
L 3669 0 
L 3244 1197 
L 1141 1197 
L 716 0 
L 50 0 
L 1831 4666 
z
" transform="scale(0.015625)"/>
       <path id="DejaVuSans-75" d="M 544 1381 
L 544 3500 
L 1119 3500 
L 1119 1403 
Q 1119 906 1312 657 
Q 1506 409 1894 409 
Q 2359 409 2629 706 
Q 2900 1003 2900 1516 
L 2900 3500 
L 3475 3500 
L 3475 0 
L 2900 0 
L 2900 538 
Q 2691 219 2414 64 
Q 2138 -91 1772 -91 
Q 1169 -91 856 284 
Q 544 659 544 1381 
z
M 1991 3584 
L 1991 3584 
z
" transform="scale(0.015625)"/>
       <path id="DejaVuSans-72" d="M 2631 2963 
Q 2534 3019 2420 3045 
Q 2306 3072 2169 3072 
Q 1681 3072 1420 2755 
Q 1159 2438 1159 1844 
L 1159 0 
L 581 0 
L 581 3500 
L 1159 3500 
L 1159 2956 
Q 1341 3275 1631 3429 
Q 1922 3584 2338 3584 
Q 2397 3584 2469 3576 
Q 2541 3569 2628 3553 
L 2631 2963 
z
" transform="scale(0.015625)"/>
       <path id="DejaVuSans-61" d="M 2194 1759 
Q 1497 1759 1228 1600 
Q 959 1441 959 1056 
Q 959 750 1161 570 
Q 1363 391 1709 391 
Q 2188 391 2477 730 
Q 2766 1069 2766 1631 
L 2766 1759 
L 2194 1759 
z
M 3341 1997 
L 3341 0 
L 2766 0 
L 2766 531 
Q 2569 213 2275 61 
Q 1981 -91 1556 -91 
Q 1019 -91 701 211 
Q 384 513 384 1019 
Q 384 1609 779 1909 
Q 1175 2209 1959 2209 
L 2766 2209 
L 2766 2266 
Q 2766 2663 2505 2880 
Q 2244 3097 1772 3097 
Q 1472 3097 1187 3025 
Q 903 2953 641 2809 
L 641 3341 
Q 956 3463 1253 3523 
Q 1550 3584 1831 3584 
Q 2591 3584 2966 3190 
Q 3341 2797 3341 1997 
z
" transform="scale(0.015625)"/>
       <path id="DejaVuSans-79" d="M 2059 -325 
Q 1816 -950 1584 -1140 
Q 1353 -1331 966 -1331 
L 506 -1331 
L 506 -850 
L 844 -850 
Q 1081 -850 1212 -737 
Q 1344 -625 1503 -206 
L 1606 56 
L 191 3500 
L 800 3500 
L 1894 763 
L 2988 3500 
L 3597 3500 
L 2059 -325 
z
" transform="scale(0.015625)"/>
      </defs>
      <use xlink:href="#DejaVuSans-41"/>
      <use xlink:href="#DejaVuSans-63" x="66.658203"/>
      <use xlink:href="#DejaVuSans-63" x="121.638672"/>
      <use xlink:href="#DejaVuSans-75" x="176.619141"/>
      <use xlink:href="#DejaVuSans-72" x="239.998047"/>
      <use xlink:href="#DejaVuSans-61" x="281.111328"/>
      <use xlink:href="#DejaVuSans-63" x="342.390625"/>
      <use xlink:href="#DejaVuSans-79" x="397.371094"/>
     </g>
    </g>
   </g>
   <g id="line2d_19">
    <path d="M 73.832727 295.488 
L 74.918528 235.153794 
L 76.00433 207.913115 
L 77.090131 189.279562 
L 78.175932 177.538738 
L 80.347534 162.523692 
L 82.519137 151.373071 
L 83.604938 147.206519 
L 84.690739 141.711307 
L 85.77654 137.24333 
L 87.948142 131.256985 
L 89.033943 123.02014 
L 90.119745 116.81809 
L 91.205546 114.058188 
L 93.377148 112.594976 
L 94.462949 111.096634 
L 95.54875 135.084873 
L 96.634552 135.480801 
L 97.720353 131.067277 
L 98.806154 128.741245 
L 99.891955 128.108533 
L 100.977756 124.889819 
L 102.063557 123.168042 
L 103.149358 121.221426 
L 104.23516 120.026616 
L 105.320961 119.904008 
L 106.406762 118.257764 
L 107.492563 115.8028 
L 108.578364 118.040653 
L 109.664165 114.346615 
L 110.749967 112.081359 
L 111.835768 112.510662 
L 112.921569 109.907796 
L 114.00737 109.232224 
L 115.093171 107.846653 
L 116.178972 106.763209 
L 117.264773 105.954139 
L 118.350575 104.329324 
L 119.436376 103.541332 
L 120.522177 103.11203 
L 122.693779 100.17858 
L 123.77958 97.758748 
L 124.865382 98.230208 
L 125.951183 96.605042 
L 127.036984 96.583963 
L 128.122785 94.888535 
L 129.208586 93.896783 
L 130.294387 93.157975 
L 131.380189 94.276199 
L 132.46599 93.840573 
L 133.551791 93.004101 
L 134.637592 92.849524 
L 135.723393 92.820365 
L 136.809194 92.314125 
L 137.894995 91.202576 
L 138.980797 114.740435 
L 140.066598 116.808604 
L 141.152399 116.070148 
L 142.2382 116.625922 
L 145.495604 113.45323 
L 147.667206 110.95365 
L 148.753007 111.652408 
L 149.838808 109.858261 
L 150.924609 109.689632 
L 153.096212 109.007385 
L 155.267814 107.269799 
L 156.353615 107.290878 
L 159.611019 105.532214 
L 160.69682 105.686791 
L 161.782621 104.716117 
L 162.868422 104.206716 
L 165.040024 102.414677 
L 166.125825 99.617888 
L 167.211627 99.709229 
L 168.297428 95.82232 
L 169.383229 95.611533 
L 170.46903 94.086491 
L 171.554831 96.211222 
L 172.640632 96.188035 
L 173.726434 95.485061 
L 174.812235 94.395645 
L 175.898036 99.552544 
L 176.983837 98.553766 
L 178.069638 94.31133 
L 179.155439 96.793345 
L 182.412843 94.685477 
L 183.498644 94.544952 
L 184.584445 93.167812 
L 186.756047 93.308336 
L 187.841849 91.472032 
L 188.92765 91.380691 
L 191.099252 92.686867 
L 192.185053 91.596396 
L 193.270854 91.371206 
L 195.442457 90.421611 
L 196.528258 90.013739 
L 197.614059 89.746391 
L 198.69986 91.678252 
L 199.785661 90.455688 
L 200.871462 91.193442 
L 201.957264 90.20977 
L 203.043065 89.963853 
L 204.128866 89.851433 
L 206.300468 88.022858 
L 207.386269 87.64309 
L 208.472071 88.409651 
L 209.557872 87.874955 
L 210.643673 87.734431 
L 211.729474 86.151422 
L 212.815275 84.195321 
L 213.901076 84.897943 
L 214.986877 83.696459 
L 216.072679 83.67538 
L 217.15848 82.783049 
L 218.244281 83.626196 
L 219.330082 82.733866 
L 220.415883 85.150888 
L 221.501684 84.342871 
L 222.587486 85.340596 
L 223.673287 85.073599 
L 224.759088 84.279635 
L 225.844889 108.077464 
L 226.93069 109.869152 
L 228.016491 110.557722 
L 229.102292 109.897257 
L 230.188094 108.913585 
L 231.273895 109.124372 
L 232.359696 108.330408 
L 233.445497 108.751982 
L 234.531298 109.307054 
L 235.617099 107.887756 
L 236.702901 110.505377 
L 237.788702 110.006515 
L 238.874503 110.027593 
L 239.960304 110.203249 
L 241.046105 108.516603 
L 242.131906 109.001413 
L 243.217708 107.715613 
L 244.303509 106.835579 
L 245.38931 106.877736 
L 246.475111 101.636874 
L 247.560912 101.840634 
L 248.646713 102.768096 
L 249.732514 101.889818 
L 250.818316 101.489323 
L 251.904117 100.934251 
L 252.989918 100.533405 
L 254.075719 100.737165 
L 255.16152 101.573638 
L 256.247321 100.182094 
L 257.333123 105.470734 
L 258.418924 104.816592 
L 259.504725 102.130466 
L 260.590526 107.740205 
L 261.676327 108.822244 
L 262.762128 107.248369 
L 263.847929 106.616009 
L 264.933731 104.386587 
L 266.019532 104.175801 
L 267.105333 106.784638 
L 268.191134 106.76356 
L 269.276935 105.955544 
L 270.362736 106.257672 
L 271.448538 110.844392 
L 272.534339 111.57512 
L 273.62014 111.329202 
L 274.705941 110.225733 
L 275.791742 111.160572 
L 276.877543 109.368533 
L 277.963344 110.464625 
L 279.049146 110.682438 
L 280.134947 109.059379 
L 281.220748 109.544189 
L 282.306549 109.129642 
L 283.39235 108.209206 
L 284.478151 104.248171 
L 285.563953 103.29963 
L 286.649754 103.461233 
L 287.735555 103.145053 
L 289.907157 95.402152 
L 290.992958 95.514571 
L 292.07876 95.929119 
L 293.164561 94.551978 
L 294.250362 94.1023 
L 295.336163 90.160938 
L 296.421964 89.74604 
L 297.507765 88.902892 
L 298.593566 87.504673 
L 299.679368 94.232988 
L 300.765169 92.932785 
L 301.85097 92.707945 
L 302.936771 96.477164 
L 304.022572 91.394041 
L 305.108373 91.183254 
L 306.194175 87.118231 
L 307.279976 86.773946 
L 308.365777 86.28211 
L 309.451578 86.106454 
L 310.537379 86.261031 
L 311.62318 85.937825 
L 312.708981 87.281239 
L 313.794783 85.774465 
L 314.880584 86.309512 
L 315.966385 90.354511 
L 317.052186 90.558623 
L 318.137987 88.72267 
L 319.223788 89.271418 
L 320.30959 88.131764 
L 321.395391 89.587949 
L 322.481192 89.088385 
L 323.566993 92.160602 
L 324.652794 89.935748 
L 325.738595 88.579686 
L 326.824396 88.748315 
L 327.910198 87.104178 
L 328.995999 88.270532 
L 330.0818 87.588988 
L 331.167601 91.19028 
L 332.253402 95.992355 
L 333.339203 94.123379 
L 334.425005 94.355244 
L 335.510806 93.174838 
L 336.596607 93.870434 
L 337.682408 93.055392 
L 338.768209 92.563556 
L 339.85401 92.830553 
L 340.939811 92.697055 
L 342.025613 91.678252 
L 343.111414 90.877262 
L 344.197215 90.807 
L 345.283016 87.872848 
L 346.368817 87.415089 
L 347.454618 91.184659 
L 348.54042 91.240869 
L 349.626221 90.952443 
L 350.712022 94.280063 
L 351.797823 93.744665 
L 352.883624 97.376521 
L 353.969425 96.259351 
L 355.055227 95.493493 
L 356.141028 95.029762 
L 357.226829 95.774542 
L 359.398431 94.952473 
L 360.484232 95.029762 
L 361.570033 92.644709 
L 362.655835 91.323779 
L 363.741636 86.6545 
L 364.827437 87.321991 
L 365.913238 86.289136 
L 366.999039 86.935549 
L 368.08484 84.627434 
L 369.170642 85.308978 
L 370.256443 86.12402 
L 371.342244 86.166177 
L 372.428045 83.274885 
L 373.513846 83.872817 
L 374.599647 83.3592 
L 375.685448 84.625326 
L 376.77125 83.844712 
L 377.857051 87.789236 
L 378.942852 86.854747 
L 380.028653 87.142823 
L 381.114454 90.470092 
L 382.200255 90.315515 
L 383.286057 89.626242 
L 384.371858 89.865485 
L 385.457659 89.520849 
L 386.54346 86.257491 
L 387.629261 86.285599 
L 388.715062 87.318537 
L 389.800863 86.36992 
L 390.886665 85.948313 
L 391.972466 85.885072 
L 393.058267 86.271545 
L 395.229869 85.990474 
L 396.31567 86.672072 
L 397.401472 86.095875 
L 398.487273 86.861795 
L 398.487273 86.861795 
" clip-path="url(#p8f5d9d5e2b)" style="fill: none; stroke: #1f77b4; stroke-width: 1.5; stroke-linecap: square"/>
   </g>
   <g id="line2d_20">
    <path d="M 73.832727 235.652656 
L 74.918528 180.496779 
L 76.00433 164.828295 
L 77.090131 130.259261 
L 78.175932 146.208795 
L 79.261733 113.888153 
L 80.347534 112.026203 
L 81.433335 107.002452 
L 82.519137 103.981174 
L 83.604938 96.990079 
L 84.690739 97.271128 
L 85.77654 90.350295 
L 86.862341 88.101903 
L 87.948142 83.710511 
L 89.033943 83.324069 
L 90.119745 81.426988 
L 91.205546 80.232529 
L 92.291347 78.72189 
L 93.377148 78.159792 
L 94.462949 78.054399 
L 95.54875 95.409178 
L 96.634552 95.268653 
L 97.720353 93.61749 
L 98.806154 89.190968 
L 99.891955 90.420557 
L 100.977756 90.561082 
L 102.063557 85.607592 
L 103.149358 86.029166 
L 104.23516 88.312689 
L 105.320961 83.499724 
L 106.406762 81.18107 
L 107.492563 81.216201 
L 108.578364 80.092005 
L 109.664165 80.197398 
L 110.749967 79.108333 
L 111.835768 76.824809 
L 112.921569 77.632825 
L 114.00737 77.45717 
L 115.093171 75.314171 
L 116.178972 73.908925 
L 117.264773 76.122187 
L 118.350575 73.030647 
L 119.436376 70.676861 
L 120.522177 71.765926 
L 121.607978 70.430943 
L 122.693779 72.714467 
L 123.77958 68.639256 
L 124.865382 69.552665 
L 125.951183 68.533862 
L 127.036984 66.671912 
L 128.122785 67.304273 
L 129.208586 64.774831 
L 130.294387 65.828765 
L 131.380189 65.336929 
L 132.46599 65.934158 
L 133.551791 64.880224 
L 134.637592 64.7397 
L 136.809194 65.196405 
L 137.894995 64.950487 
L 138.980797 82.164741 
L 140.066598 79.494775 
L 141.152399 81.075676 
L 142.2382 82.375528 
L 143.324001 78.194923 
L 144.409802 77.913874 
L 145.495604 78.054399 
L 146.581405 76.614022 
L 147.667206 75.384433 
L 149.838808 75.665482 
L 150.924609 78.159792 
L 152.01041 73.381958 
L 153.096212 73.13604 
L 154.182013 75.524957 
L 155.267814 74.611548 
L 156.353615 75.314171 
L 157.439416 73.241434 
L 158.525217 74.04945 
L 159.611019 72.117238 
L 160.69682 70.676861 
L 161.782621 73.417089 
L 162.868422 72.328024 
L 163.954223 70.95791 
L 165.040024 68.850042 
L 166.125825 71.133566 
L 167.211627 70.676861 
L 168.297428 72.082106 
L 169.383229 70.395812 
L 170.46903 67.760977 
L 171.554831 68.112289 
L 172.640632 67.585322 
L 173.726434 67.796108 
L 174.812235 66.742174 
L 175.898036 66.777306 
L 176.983837 67.620453 
L 178.069638 67.269141 
L 179.155439 67.128617 
L 180.24124 65.05588 
L 181.327042 67.690715 
L 182.412843 65.723372 
L 183.498644 65.934158 
L 184.584445 66.777306 
L 185.670246 65.301798 
L 186.756047 65.161274 
L 187.841849 65.231536 
L 188.92765 64.388389 
L 190.013451 62.491307 
L 191.099252 63.123668 
L 192.185053 64.318126 
L 193.270854 63.053406 
L 194.356656 63.861422 
L 195.442457 62.315652 
L 196.528258 63.791159 
L 197.614059 62.456176 
L 198.69986 62.596701 
L 199.785661 61.086062 
L 200.871462 61.050931 
L 201.957264 60.69962 
L 203.043065 61.086062 
L 204.128866 60.242915 
L 205.214667 60.137522 
L 207.386269 59.645686 
L 209.557872 59.961866 
L 210.643673 59.15385 
L 211.729474 59.47003 
L 212.815275 59.15385 
L 213.901076 58.135047 
L 216.072679 58.556621 
L 217.15848 58.170178 
L 218.244281 58.310703 
L 219.330082 58.064785 
L 220.415883 58.240441 
L 221.501684 58.170178 
L 223.673287 58.52149 
L 224.759088 58.240441 
L 225.844889 73.557614 
L 226.93069 72.328024 
L 228.016491 70.64173 
L 229.102292 71.730795 
L 230.188094 73.487352 
L 231.273895 73.768401 
L 232.359696 69.763452 
L 233.445497 68.920305 
L 234.531298 73.557614 
L 235.617099 69.271616 
L 236.702901 69.166223 
L 237.788702 70.711992 
L 238.874503 69.763452 
L 239.960304 71.801057 
L 241.046105 68.885173 
L 242.131906 67.901502 
L 243.217708 68.498731 
L 244.303509 71.520008 
L 245.38931 66.425994 
L 246.475111 67.655584 
L 248.646713 68.604124 
L 249.732514 71.27409 
L 250.818316 67.269141 
L 251.904117 66.215207 
L 252.989918 69.306747 
L 254.075719 66.707043 
L 255.16152 66.250339 
L 256.247321 67.304273 
L 257.333123 70.185025 
L 258.418924 67.444797 
L 259.504725 66.60165 
L 260.590526 65.477454 
L 261.676327 67.690715 
L 262.762128 68.990567 
L 263.847929 63.650635 
L 264.933731 65.126142 
L 266.019532 67.409666 
L 267.105333 66.039552 
L 268.191134 65.653109 
L 269.276935 64.950487 
L 270.362736 65.96929 
L 271.448538 64.564044 
L 272.534339 63.966815 
L 273.62014 64.599175 
L 274.705941 65.653109 
L 275.791742 64.950487 
L 276.877543 65.758503 
L 277.963344 66.425994 
L 279.049146 66.707043 
L 280.134947 64.599175 
L 281.220748 69.447272 
L 282.306549 63.369586 
L 283.39235 64.037077 
L 284.478151 63.51011 
L 285.563953 65.05588 
L 286.649754 63.334455 
L 287.735555 63.650635 
L 288.821356 64.7397 
L 289.907157 62.491307 
L 290.992958 63.896553 
L 292.07876 63.053406 
L 293.164561 63.018274 
L 294.250362 62.596701 
L 296.421964 62.87775 
L 297.507765 61.226587 
L 298.593566 64.564044 
L 299.679368 61.402242 
L 300.765169 62.069734 
L 301.85097 62.948012 
L 302.936771 62.210258 
L 305.108373 60.418571 
L 306.194175 61.33198 
L 307.279976 60.172653 
L 308.365777 61.753554 
L 309.451578 59.926735 
L 310.537379 60.488833 
L 311.62318 60.840144 
L 312.708981 61.0158 
L 313.794783 59.47003 
L 314.880584 58.907932 
L 315.966385 61.086062 
L 317.052186 61.542767 
L 318.137987 59.505161 
L 319.223788 59.15385 
L 320.30959 59.821341 
L 321.395391 59.821341 
L 322.481192 61.542767 
L 323.566993 59.575424 
L 324.652794 59.083588 
L 325.738595 59.505161 
L 326.824396 58.029654 
L 328.995999 58.170178 
L 330.0818 58.451227 
L 331.167601 58.556621 
L 332.253402 58.170178 
L 333.339203 57.994523 
L 334.425005 58.416096 
L 335.510806 58.029654 
L 337.682408 57.60808 
L 338.768209 58.978194 
L 339.85401 58.135047 
L 340.939811 56.835195 
L 342.025613 56.554146 
L 343.111414 58.872801 
L 344.197215 57.256769 
L 345.283016 57.010851 
L 346.368817 55.816392 
L 347.454618 57.397293 
L 348.54042 56.589277 
L 349.626221 57.010851 
L 351.797823 56.413622 
L 352.883624 55.921786 
L 353.969425 55.886655 
L 355.055227 56.413622 
L 356.141028 56.343359 
L 357.226829 56.554146 
L 358.31263 55.851524 
L 359.398431 55.289425 
L 361.570033 56.027179 
L 362.655835 55.851524 
L 363.741636 55.500212 
L 364.827437 55.324557 
L 365.913238 55.359688 
L 366.999039 55.148901 
L 368.08484 55.324557 
L 369.170642 54.481409 
L 370.256443 55.886655 
L 371.342244 56.65954 
L 372.428045 56.413622 
L 373.513846 55.886655 
L 374.599647 56.273097 
L 375.685448 56.940589 
L 377.857051 55.640737 
L 378.942852 56.378491 
L 380.028653 56.06231 
L 381.114454 56.273097 
L 382.200255 54.973245 
L 383.286057 56.65954 
L 384.371858 56.273097 
L 385.457659 56.554146 
L 387.629261 56.519015 
L 388.715062 57.362162 
L 389.800863 56.308228 
L 390.886665 56.764933 
L 391.972466 56.800064 
L 393.058267 56.624408 
L 394.144068 56.273097 
L 396.31567 57.537818 
L 397.401472 56.729802 
L 398.487273 56.202835 
L 398.487273 56.202835 
" clip-path="url(#p8f5d9d5e2b)" style="fill: none; stroke: #ff7f0e; stroke-width: 1.5; stroke-linecap: square"/>
   </g>
   <g id="line2d_21">
    <path d="M 73.832727 255.862894 
L 74.918528 211.742759 
L 76.00433 200.428076 
L 77.090131 165.05489 
L 78.175932 191.657589 
L 79.261733 153.473561 
L 81.433335 146.835183 
L 82.519137 145.526899 
L 83.604938 137.894661 
L 84.690739 134.212216 
L 85.77654 128.518513 
L 86.862341 125.320175 
L 87.948142 117.615566 
L 89.033943 121.055958 
L 90.119745 117.470475 
L 91.205546 115.386847 
L 92.291347 115.556179 
L 93.377148 113.593754 
L 94.462949 113.957362 
L 95.54875 138.306749 
L 96.634552 138.33099 
L 97.720353 129.947999 
L 98.806154 127.888612 
L 99.891955 133.33991 
L 100.977756 136.731821 
L 102.063557 122.461203 
L 103.149358 124.593312 
L 104.23516 122.946013 
L 105.320961 126.580329 
L 106.406762 117.470475 
L 107.492563 119.650713 
L 108.578364 122.630887 
L 109.664165 117.664047 
L 110.749967 117.664047 
L 111.835768 118.051895 
L 112.921569 113.666476 
L 114.00737 114.829316 
L 115.093171 111.122631 
L 116.178972 111.267722 
L 117.264773 113.981602 
L 118.350575 106.300883 
L 119.436376 107.972773 
L 120.522177 110.03216 
L 121.607978 108.917801 
L 122.693779 107.633758 
L 123.77958 104.799027 
L 125.951183 101.624929 
L 127.036984 101.600689 
L 128.122785 98.136056 
L 129.208586 97.578877 
L 130.294387 97.966373 
L 131.380189 96.803533 
L 132.46599 96.343315 
L 133.551791 95.495249 
L 134.637592 96.585368 
L 135.723393 95.906986 
L 136.809194 96.003948 
L 137.894995 95.931227 
L 138.980797 120.59574 
L 140.066598 121.395325 
L 141.152399 119.578343 
L 142.2382 119.093533 
L 143.324001 114.078213 
L 144.409802 113.472552 
L 145.495604 116.210321 
L 146.581405 112.988094 
L 147.667206 116.113359 
L 149.838808 112.915372 
L 150.924609 118.318189 
L 152.01041 108.529953 
L 153.096212 111.09839 
L 154.182013 114.587263 
L 155.267814 115.071721 
L 156.353615 111.607089 
L 157.439416 114.102453 
L 158.525217 110.492378 
L 159.611019 104.168774 
L 160.69682 109.862477 
L 161.782621 111.291963 
L 162.868422 109.063244 
L 163.954223 106.397845 
L 165.040024 109.45074 
L 166.125825 108.820839 
L 167.211627 109.935198 
L 168.297428 113.060815 
L 169.383229 108.215178 
L 170.46903 103.975202 
L 171.554831 106.785692 
L 172.640632 106.397845 
L 173.726434 109.063244 
L 175.898036 99.783707 
L 176.983837 103.369541 
L 178.069638 100.946547 
L 179.155439 104.45966 
L 180.24124 103.805519 
L 181.327042 105.961867 
L 182.412843 99.832188 
L 183.498644 97.821282 
L 184.584445 100.825345 
L 185.670246 99.589783 
L 186.756047 99.759466 
L 187.841849 97.578877 
L 188.92765 100.146962 
L 190.013451 96.197872 
L 191.099252 95.180123 
L 192.185053 96.609609 
L 193.270854 96.10091 
L 194.356656 94.065764 
L 195.442457 93.217698 
L 196.528258 95.640692 
L 197.614059 95.471009 
L 198.69986 95.785784 
L 200.871462 91.66701 
L 201.957264 91.521567 
L 203.043065 92.975293 
L 204.128866 91.545807 
L 205.214667 91.158311 
L 206.300468 91.909415 
L 207.386269 90.625372 
L 208.472071 90.867425 
L 209.557872 89.995471 
L 210.643673 89.97123 
L 211.729474 88.565985 
L 212.815275 89.341329 
L 213.901076 88.056935 
L 214.986877 88.129656 
L 216.072679 88.469023 
L 217.15848 87.233461 
L 218.244281 87.523995 
L 219.330082 87.281942 
L 220.415883 87.427034 
L 221.501684 86.627449 
L 222.587486 86.748651 
L 223.673287 87.354312 
L 224.759088 87.039537 
L 225.844889 112.115788 
L 228.016491 106.325123 
L 229.102292 109.232576 
L 230.188094 112.527876 
L 231.273895 114.829316 
L 232.359696 107.997014 
L 233.445497 108.602675 
L 234.531298 109.983679 
L 235.617099 106.688731 
L 236.702901 106.809933 
L 237.788702 108.215178 
L 238.874503 107.609517 
L 239.960304 108.38451 
L 241.046105 105.186523 
L 242.131906 105.065321 
L 243.217708 107.512556 
L 244.303509 110.5651 
L 245.38931 101.988536 
L 246.475111 107.294391 
L 247.560912 105.477409 
L 248.646713 101.285914 
L 249.732514 106.034589 
L 250.818316 105.162283 
L 251.904117 103.127136 
L 252.989918 104.629344 
L 254.075719 104.168774 
L 255.16152 102.448754 
L 256.247321 105.01684 
L 257.333123 108.142457 
L 258.418924 103.32106 
L 259.504725 105.889146 
L 260.590526 101.334395 
L 261.676327 100.801104 
L 262.762128 106.906895 
L 263.847929 98.402702 
L 264.933731 104.072164 
L 266.019532 104.362698 
L 267.105333 100.146962 
L 268.191134 102.157868 
L 269.276935 97.772801 
L 270.362736 101.334395 
L 271.448538 100.922307 
L 272.534339 98.039095 
L 273.62014 99.178046 
L 274.705941 100.655661 
L 275.791742 99.614023 
L 276.877543 97.869411 
L 277.963344 102.860491 
L 279.049146 98.426942 
L 280.134947 98.475423 
L 281.220748 104.120645 
L 282.306549 100.146962 
L 283.39235 96.65809 
L 284.478151 98.233018 
L 285.563953 98.233018 
L 286.649754 97.23951 
L 287.735555 102.23059 
L 288.821356 97.917892 
L 289.907157 94.865348 
L 290.992958 98.136056 
L 292.07876 95.785784 
L 293.164561 96.948976 
L 294.250362 97.215269 
L 295.336163 96.319074 
L 296.421964 96.852014 
L 297.507765 97.627358 
L 298.593566 105.331966 
L 299.679368 98.402702 
L 300.765169 96.343315 
L 301.85097 96.07667 
L 302.936771 94.186966 
L 304.022572 97.942133 
L 305.108373 92.975293 
L 306.194175 100.219684 
L 307.279976 93.968802 
L 308.365777 94.525981 
L 309.451578 94.45326 
L 310.537379 94.041523 
L 311.62318 97.72432 
L 312.708981 93.557065 
L 313.794783 91.473437 
L 314.880584 93.266179 
L 315.966385 94.114244 
L 317.052186 95.204364 
L 318.137987 92.079098 
L 319.223788 91.497678 
L 320.30959 89.026203 
L 321.395391 92.926812 
L 322.481192 97.942133 
L 323.566993 89.898509 
L 324.652794 89.898509 
L 325.738595 91.812453 
L 326.824396 91.182552 
L 327.910198 89.48642 
L 328.995999 91.279513 
L 330.0818 88.226618 
L 331.167601 89.728825 
L 332.253402 86.748651 
L 333.339203 88.178137 
L 334.425005 87.839122 
L 335.510806 88.32358 
L 336.596607 87.136499 
L 337.682408 85.004391 
L 338.768209 86.748651 
L 339.85401 86.482357 
L 340.939811 84.495341 
L 342.025613 85.270685 
L 343.111414 87.523995 
L 344.197215 87.669438 
L 345.283016 86.264193 
L 346.368817 83.647626 
L 347.454618 85.488849 
L 348.54042 84.568062 
L 349.626221 84.471451 
L 350.712022 83.235538 
L 351.797823 82.872282 
L 352.883624 82.702599 
L 353.969425 83.986642 
L 355.055227 84.519581 
L 356.141028 83.090095 
L 357.226829 84.592303 
L 358.31263 84.277528 
L 359.398431 83.380981 
L 360.484232 83.574905 
L 361.570033 83.526424 
L 362.655835 83.696107 
L 363.741636 82.920763 
L 364.827437 81.224632 
L 365.913238 82.460194 
L 366.999039 80.207235 
L 368.08484 81.054949 
L 369.170642 81.394316 
L 370.256443 82.145419 
L 371.342244 82.702599 
L 372.428045 86.385395 
L 373.513846 84.543822 
L 374.599647 85.707013 
L 375.685448 86.579319 
L 376.77125 83.211298 
L 377.857051 83.017725 
L 380.028653 83.768829 
L 381.114454 85.174074 
L 382.200255 84.083604 
L 383.286057 84.640783 
L 384.371858 84.713505 
L 385.457659 82.945004 
L 386.54346 83.817116 
L 387.629261 83.599061 
L 388.715062 85.585787 
L 389.800863 82.339186 
L 390.886665 84.883164 
L 391.972466 83.720202 
L 393.058267 83.574832 
L 394.144068 84.834707 
L 395.229869 83.841344 
L 396.31567 85.779614 
L 397.401472 83.332549 
L 398.487273 84.713565 
L 398.487273 84.713565 
" clip-path="url(#p8f5d9d5e2b)" style="fill: none; stroke: #2ca02c; stroke-width: 1.5; stroke-linecap: square"/>
   </g>
   <g id="line2d_22">
    <path d="M 368.08484 54.79759 
L 369.170642 54.621934 
L 370.256443 54.727327 
L 371.342244 55.078639 
L 372.428045 55.008376 
L 373.513846 55.500212 
L 374.599647 54.727327 
L 375.685448 54.657065 
L 376.77125 54.270623 
L 377.857051 55.078639 
L 378.942852 54.692196 
L 381.114454 54.867852 
L 382.200255 54.20036 
L 383.286057 54.79759 
L 384.371858 54.621934 
L 385.457659 54.305754 
L 386.54346 53.568 
L 388.715062 55.008376 
L 389.800863 55.254294 
L 390.886665 53.813918 
L 391.972466 55.219163 
L 393.058267 55.921786 
L 394.144068 56.413622 
L 395.229869 55.816392 
L 396.31567 55.043508 
L 397.401472 55.324557 
L 397.401472 55.324557 
" clip-path="url(#p8f5d9d5e2b)" style="fill: none; stroke: #d62728; stroke-width: 1.5; stroke-linecap: square"/>
   </g>
   <g id="line2d_23">
    <path d="M 368.08484 79.165245 
L 369.170642 79.359169 
L 370.256443 78.777749 
L 371.342244 79.722425 
L 372.428045 79.601223 
L 373.513846 80.958338 
L 374.599647 81.515518 
L 375.685448 79.98907 
L 376.77125 80.667452 
L 377.857051 82.072698 
L 378.942852 81.442797 
L 380.028653 82.993485 
L 381.114454 80.812895 
L 382.200255 80.982227 
L 383.286057 81.63672 
L 384.371858 82.072698 
L 385.457659 80.400807 
L 386.54346 79.141041 
L 387.629261 80.473601 
L 388.715062 80.812798 
L 390.886665 80.400916 
L 393.058267 83.477919 
L 394.144068 81.442736 
L 395.229869 84.422825 
L 396.31567 81.539649 
L 397.401472 82.339186 
L 398.487273 85.416188 
L 398.487273 85.416188 
" clip-path="url(#p8f5d9d5e2b)" style="fill: none; stroke: #9467bd; stroke-width: 1.5; stroke-linecap: square"/>
   </g>
   <g id="patch_3">
    <path d="M 57.6 307.584 
L 57.6 41.472 
" style="fill: none; stroke: #000000; stroke-width: 0.8; stroke-linejoin: miter; stroke-linecap: square"/>
   </g>
   <g id="patch_4">
    <path d="M 414.72 307.584 
L 414.72 41.472 
" style="fill: none; stroke: #000000; stroke-width: 0.8; stroke-linejoin: miter; stroke-linecap: square"/>
   </g>
   <g id="patch_5">
    <path d="M 57.6 307.584 
L 414.72 307.584 
" style="fill: none; stroke: #000000; stroke-width: 0.8; stroke-linejoin: miter; stroke-linecap: square"/>
   </g>
   <g id="patch_6">
    <path d="M 57.6 41.472 
L 414.72 41.472 
" style="fill: none; stroke: #000000; stroke-width: 0.8; stroke-linejoin: miter; stroke-linecap: square"/>
   </g>
   <g id="text_21">
    <!-- Learning Curves -->
    <g transform="translate(187.37625 35.472) scale(0.12 -0.12)">
     <defs>
      <path id="DejaVuSans-4c" d="M 628 4666 
L 1259 4666 
L 1259 531 
L 3531 531 
L 3531 0 
L 628 0 
L 628 4666 
z
" transform="scale(0.015625)"/>
      <path id="DejaVuSans-65" d="M 3597 1894 
L 3597 1613 
L 953 1613 
Q 991 1019 1311 708 
Q 1631 397 2203 397 
Q 2534 397 2845 478 
Q 3156 559 3463 722 
L 3463 178 
Q 3153 47 2828 -22 
Q 2503 -91 2169 -91 
Q 1331 -91 842 396 
Q 353 884 353 1716 
Q 353 2575 817 3079 
Q 1281 3584 2069 3584 
Q 2775 3584 3186 3129 
Q 3597 2675 3597 1894 
z
M 3022 2063 
Q 3016 2534 2758 2815 
Q 2500 3097 2075 3097 
Q 1594 3097 1305 2825 
Q 1016 2553 972 2059 
L 3022 2063 
z
" transform="scale(0.015625)"/>
      <path id="DejaVuSans-6e" d="M 3513 2113 
L 3513 0 
L 2938 0 
L 2938 2094 
Q 2938 2591 2744 2837 
Q 2550 3084 2163 3084 
Q 1697 3084 1428 2787 
Q 1159 2491 1159 1978 
L 1159 0 
L 581 0 
L 581 3500 
L 1159 3500 
L 1159 2956 
Q 1366 3272 1645 3428 
Q 1925 3584 2291 3584 
Q 2894 3584 3203 3211 
Q 3513 2838 3513 2113 
z
" transform="scale(0.015625)"/>
      <path id="DejaVuSans-69" d="M 603 3500 
L 1178 3500 
L 1178 0 
L 603 0 
L 603 3500 
z
M 603 4863 
L 1178 4863 
L 1178 4134 
L 603 4134 
L 603 4863 
z
" transform="scale(0.015625)"/>
      <path id="DejaVuSans-67" d="M 2906 1791 
Q 2906 2416 2648 2759 
Q 2391 3103 1925 3103 
Q 1463 3103 1205 2759 
Q 947 2416 947 1791 
Q 947 1169 1205 825 
Q 1463 481 1925 481 
Q 2391 481 2648 825 
Q 2906 1169 2906 1791 
z
M 3481 434 
Q 3481 -459 3084 -895 
Q 2688 -1331 1869 -1331 
Q 1566 -1331 1297 -1286 
Q 1028 -1241 775 -1147 
L 775 -588 
Q 1028 -725 1275 -790 
Q 1522 -856 1778 -856 
Q 2344 -856 2625 -561 
Q 2906 -266 2906 331 
L 2906 616 
Q 2728 306 2450 153 
Q 2172 0 1784 0 
Q 1141 0 747 490 
Q 353 981 353 1791 
Q 353 2603 747 3093 
Q 1141 3584 1784 3584 
Q 2172 3584 2450 3431 
Q 2728 3278 2906 2969 
L 2906 3500 
L 3481 3500 
L 3481 434 
z
" transform="scale(0.015625)"/>
      <path id="DejaVuSans-20" transform="scale(0.015625)"/>
      <path id="DejaVuSans-43" d="M 4122 4306 
L 4122 3641 
Q 3803 3938 3442 4084 
Q 3081 4231 2675 4231 
Q 1875 4231 1450 3742 
Q 1025 3253 1025 2328 
Q 1025 1406 1450 917 
Q 1875 428 2675 428 
Q 3081 428 3442 575 
Q 3803 722 4122 1019 
L 4122 359 
Q 3791 134 3420 21 
Q 3050 -91 2638 -91 
Q 1578 -91 968 557 
Q 359 1206 359 2328 
Q 359 3453 968 4101 
Q 1578 4750 2638 4750 
Q 3056 4750 3426 4639 
Q 3797 4528 4122 4306 
z
" transform="scale(0.015625)"/>
      <path id="DejaVuSans-76" d="M 191 3500 
L 800 3500 
L 1894 563 
L 2988 3500 
L 3597 3500 
L 2284 0 
L 1503 0 
L 191 3500 
z
" transform="scale(0.015625)"/>
     </defs>
     <use xlink:href="#DejaVuSans-4c"/>
     <use xlink:href="#DejaVuSans-65" x="53.962891"/>
     <use xlink:href="#DejaVuSans-61" x="115.486328"/>
     <use xlink:href="#DejaVuSans-72" x="176.765625"/>
     <use xlink:href="#DejaVuSans-6e" x="216.128906"/>
     <use xlink:href="#DejaVuSans-69" x="279.507812"/>
     <use xlink:href="#DejaVuSans-6e" x="307.291016"/>
     <use xlink:href="#DejaVuSans-67" x="370.669922"/>
     <use xlink:href="#DejaVuSans-20" x="434.146484"/>
     <use xlink:href="#DejaVuSans-43" x="465.933594"/>
     <use xlink:href="#DejaVuSans-75" x="535.757812"/>
     <use xlink:href="#DejaVuSans-72" x="599.136719"/>
     <use xlink:href="#DejaVuSans-76" x="640.25"/>
     <use xlink:href="#DejaVuSans-65" x="699.429688"/>
     <use xlink:href="#DejaVuSans-73" x="760.953125"/>
    </g>
   </g>
   <g id="legend_1">
    <g id="patch_7">
     <path d="M 214.18875 302.584 
L 407.72 302.584 
Q 409.72 302.584 409.72 300.584 
L 409.72 228.193375 
Q 409.72 226.193375 407.72 226.193375 
L 214.18875 226.193375 
Q 212.18875 226.193375 212.18875 228.193375 
L 212.18875 300.584 
Q 212.18875 302.584 214.18875 302.584 
z
" style="fill: #ffffff; opacity: 0.8; stroke: #cccccc; stroke-linejoin: miter"/>
    </g>
    <g id="line2d_24">
     <path d="M 216.18875 234.291812 
L 226.18875 234.291812 
L 236.18875 234.291812 
" style="fill: none; stroke: #1f77b4; stroke-width: 1.5; stroke-linecap: square"/>
    </g>
    <g id="text_22">
     <!-- Train Accuracy -->
     <g transform="translate(244.18875 237.791812) scale(0.1 -0.1)">
      <defs>
       <path id="DejaVuSans-54" d="M -19 4666 
L 3928 4666 
L 3928 4134 
L 2272 4134 
L 2272 0 
L 1638 0 
L 1638 4134 
L -19 4134 
L -19 4666 
z
" transform="scale(0.015625)"/>
      </defs>
      <use xlink:href="#DejaVuSans-54"/>
      <use xlink:href="#DejaVuSans-72" x="46.333984"/>
      <use xlink:href="#DejaVuSans-61" x="87.447266"/>
      <use xlink:href="#DejaVuSans-69" x="148.726562"/>
      <use xlink:href="#DejaVuSans-6e" x="176.509766"/>
      <use xlink:href="#DejaVuSans-20" x="239.888672"/>
      <use xlink:href="#DejaVuSans-41" x="271.675781"/>
      <use xlink:href="#DejaVuSans-63" x="338.333984"/>
      <use xlink:href="#DejaVuSans-63" x="393.314453"/>
      <use xlink:href="#DejaVuSans-75" x="448.294922"/>
      <use xlink:href="#DejaVuSans-72" x="511.673828"/>
      <use xlink:href="#DejaVuSans-61" x="552.787109"/>
      <use xlink:href="#DejaVuSans-63" x="614.066406"/>
      <use xlink:href="#DejaVuSans-79" x="669.046875"/>
     </g>
    </g>
    <g id="line2d_25">
     <path d="M 216.18875 248.969937 
L 226.18875 248.969937 
L 236.18875 248.969937 
" style="fill: none; stroke: #ff7f0e; stroke-width: 1.5; stroke-linecap: square"/>
    </g>
    <g id="text_23">
     <!-- Validation Accuracy -->
     <g transform="translate(244.18875 252.469937) scale(0.1 -0.1)">
      <defs>
       <path id="DejaVuSans-56" d="M 1831 0 
L 50 4666 
L 709 4666 
L 2188 738 
L 3669 4666 
L 4325 4666 
L 2547 0 
L 1831 0 
z
" transform="scale(0.015625)"/>
       <path id="DejaVuSans-6c" d="M 603 4863 
L 1178 4863 
L 1178 0 
L 603 0 
L 603 4863 
z
" transform="scale(0.015625)"/>
       <path id="DejaVuSans-64" d="M 2906 2969 
L 2906 4863 
L 3481 4863 
L 3481 0 
L 2906 0 
L 2906 525 
Q 2725 213 2448 61 
Q 2172 -91 1784 -91 
Q 1150 -91 751 415 
Q 353 922 353 1747 
Q 353 2572 751 3078 
Q 1150 3584 1784 3584 
Q 2172 3584 2448 3432 
Q 2725 3281 2906 2969 
z
M 947 1747 
Q 947 1113 1208 752 
Q 1469 391 1925 391 
Q 2381 391 2643 752 
Q 2906 1113 2906 1747 
Q 2906 2381 2643 2742 
Q 2381 3103 1925 3103 
Q 1469 3103 1208 2742 
Q 947 2381 947 1747 
z
" transform="scale(0.015625)"/>
       <path id="DejaVuSans-74" d="M 1172 4494 
L 1172 3500 
L 2356 3500 
L 2356 3053 
L 1172 3053 
L 1172 1153 
Q 1172 725 1289 603 
Q 1406 481 1766 481 
L 2356 481 
L 2356 0 
L 1766 0 
Q 1100 0 847 248 
Q 594 497 594 1153 
L 594 3053 
L 172 3053 
L 172 3500 
L 594 3500 
L 594 4494 
L 1172 4494 
z
" transform="scale(0.015625)"/>
      </defs>
      <use xlink:href="#DejaVuSans-56"/>
      <use xlink:href="#DejaVuSans-61" x="60.658203"/>
      <use xlink:href="#DejaVuSans-6c" x="121.9375"/>
      <use xlink:href="#DejaVuSans-69" x="149.720703"/>
      <use xlink:href="#DejaVuSans-64" x="177.503906"/>
      <use xlink:href="#DejaVuSans-61" x="240.980469"/>
      <use xlink:href="#DejaVuSans-74" x="302.259766"/>
      <use xlink:href="#DejaVuSans-69" x="341.46875"/>
      <use xlink:href="#DejaVuSans-6f" x="369.251953"/>
      <use xlink:href="#DejaVuSans-6e" x="430.433594"/>
      <use xlink:href="#DejaVuSans-20" x="493.8125"/>
      <use xlink:href="#DejaVuSans-41" x="525.599609"/>
      <use xlink:href="#DejaVuSans-63" x="592.257812"/>
      <use xlink:href="#DejaVuSans-63" x="647.238281"/>
      <use xlink:href="#DejaVuSans-75" x="702.21875"/>
      <use xlink:href="#DejaVuSans-72" x="765.597656"/>
      <use xlink:href="#DejaVuSans-61" x="806.710938"/>
      <use xlink:href="#DejaVuSans-63" x="867.990234"/>
      <use xlink:href="#DejaVuSans-79" x="922.970703"/>
     </g>
    </g>
    <g id="line2d_26">
     <path d="M 216.18875 263.648062 
L 226.18875 263.648062 
L 236.18875 263.648062 
" style="fill: none; stroke: #2ca02c; stroke-width: 1.5; stroke-linecap: square"/>
    </g>
    <g id="text_24">
     <!-- Robust Validation Accuracy -->
     <g transform="translate(244.18875 267.148062) scale(0.1 -0.1)">
      <defs>
       <path id="DejaVuSans-52" d="M 2841 2188 
Q 3044 2119 3236 1894 
Q 3428 1669 3622 1275 
L 4263 0 
L 3584 0 
L 2988 1197 
Q 2756 1666 2539 1819 
Q 2322 1972 1947 1972 
L 1259 1972 
L 1259 0 
L 628 0 
L 628 4666 
L 2053 4666 
Q 2853 4666 3247 4331 
Q 3641 3997 3641 3322 
Q 3641 2881 3436 2590 
Q 3231 2300 2841 2188 
z
M 1259 4147 
L 1259 2491 
L 2053 2491 
Q 2509 2491 2742 2702 
Q 2975 2913 2975 3322 
Q 2975 3731 2742 3939 
Q 2509 4147 2053 4147 
L 1259 4147 
z
" transform="scale(0.015625)"/>
       <path id="DejaVuSans-62" d="M 3116 1747 
Q 3116 2381 2855 2742 
Q 2594 3103 2138 3103 
Q 1681 3103 1420 2742 
Q 1159 2381 1159 1747 
Q 1159 1113 1420 752 
Q 1681 391 2138 391 
Q 2594 391 2855 752 
Q 3116 1113 3116 1747 
z
M 1159 2969 
Q 1341 3281 1617 3432 
Q 1894 3584 2278 3584 
Q 2916 3584 3314 3078 
Q 3713 2572 3713 1747 
Q 3713 922 3314 415 
Q 2916 -91 2278 -91 
Q 1894 -91 1617 61 
Q 1341 213 1159 525 
L 1159 0 
L 581 0 
L 581 4863 
L 1159 4863 
L 1159 2969 
z
" transform="scale(0.015625)"/>
      </defs>
      <use xlink:href="#DejaVuSans-52"/>
      <use xlink:href="#DejaVuSans-6f" x="64.982422"/>
      <use xlink:href="#DejaVuSans-62" x="126.164062"/>
      <use xlink:href="#DejaVuSans-75" x="189.640625"/>
      <use xlink:href="#DejaVuSans-73" x="253.019531"/>
      <use xlink:href="#DejaVuSans-74" x="305.119141"/>
      <use xlink:href="#DejaVuSans-20" x="344.328125"/>
      <use xlink:href="#DejaVuSans-56" x="376.115234"/>
      <use xlink:href="#DejaVuSans-61" x="436.773438"/>
      <use xlink:href="#DejaVuSans-6c" x="498.052734"/>
      <use xlink:href="#DejaVuSans-69" x="525.835938"/>
      <use xlink:href="#DejaVuSans-64" x="553.619141"/>
      <use xlink:href="#DejaVuSans-61" x="617.095703"/>
      <use xlink:href="#DejaVuSans-74" x="678.375"/>
      <use xlink:href="#DejaVuSans-69" x="717.583984"/>
      <use xlink:href="#DejaVuSans-6f" x="745.367188"/>
      <use xlink:href="#DejaVuSans-6e" x="806.548828"/>
      <use xlink:href="#DejaVuSans-20" x="869.927734"/>
      <use xlink:href="#DejaVuSans-41" x="901.714844"/>
      <use xlink:href="#DejaVuSans-63" x="968.373047"/>
      <use xlink:href="#DejaVuSans-63" x="1023.353516"/>
      <use xlink:href="#DejaVuSans-75" x="1078.333984"/>
      <use xlink:href="#DejaVuSans-72" x="1141.712891"/>
      <use xlink:href="#DejaVuSans-61" x="1182.826172"/>
      <use xlink:href="#DejaVuSans-63" x="1244.105469"/>
      <use xlink:href="#DejaVuSans-79" x="1299.085938"/>
     </g>
    </g>
    <g id="line2d_27">
     <path d="M 216.18875 278.326188 
L 226.18875 278.326188 
L 236.18875 278.326188 
" style="fill: none; stroke: #d62728; stroke-width: 1.5; stroke-linecap: square"/>
    </g>
    <g id="text_25">
     <!-- SWA Validation Accuracy -->
     <g transform="translate(244.18875 281.826188) scale(0.1 -0.1)">
      <defs>
       <path id="DejaVuSans-53" d="M 3425 4513 
L 3425 3897 
Q 3066 4069 2747 4153 
Q 2428 4238 2131 4238 
Q 1616 4238 1336 4038 
Q 1056 3838 1056 3469 
Q 1056 3159 1242 3001 
Q 1428 2844 1947 2747 
L 2328 2669 
Q 3034 2534 3370 2195 
Q 3706 1856 3706 1288 
Q 3706 609 3251 259 
Q 2797 -91 1919 -91 
Q 1588 -91 1214 -16 
Q 841 59 441 206 
L 441 856 
Q 825 641 1194 531 
Q 1563 422 1919 422 
Q 2459 422 2753 634 
Q 3047 847 3047 1241 
Q 3047 1584 2836 1778 
Q 2625 1972 2144 2069 
L 1759 2144 
Q 1053 2284 737 2584 
Q 422 2884 422 3419 
Q 422 4038 858 4394 
Q 1294 4750 2059 4750 
Q 2388 4750 2728 4690 
Q 3069 4631 3425 4513 
z
" transform="scale(0.015625)"/>
       <path id="DejaVuSans-57" d="M 213 4666 
L 850 4666 
L 1831 722 
L 2809 4666 
L 3519 4666 
L 4500 722 
L 5478 4666 
L 6119 4666 
L 4947 0 
L 4153 0 
L 3169 4050 
L 2175 0 
L 1381 0 
L 213 4666 
z
" transform="scale(0.015625)"/>
      </defs>
      <use xlink:href="#DejaVuSans-53"/>
      <use xlink:href="#DejaVuSans-57" x="63.476562"/>
      <use xlink:href="#DejaVuSans-41" x="156.853516"/>
      <use xlink:href="#DejaVuSans-20" x="225.261719"/>
      <use xlink:href="#DejaVuSans-56" x="257.048828"/>
      <use xlink:href="#DejaVuSans-61" x="317.707031"/>
      <use xlink:href="#DejaVuSans-6c" x="378.986328"/>
      <use xlink:href="#DejaVuSans-69" x="406.769531"/>
      <use xlink:href="#DejaVuSans-64" x="434.552734"/>
      <use xlink:href="#DejaVuSans-61" x="498.029297"/>
      <use xlink:href="#DejaVuSans-74" x="559.308594"/>
      <use xlink:href="#DejaVuSans-69" x="598.517578"/>
      <use xlink:href="#DejaVuSans-6f" x="626.300781"/>
      <use xlink:href="#DejaVuSans-6e" x="687.482422"/>
      <use xlink:href="#DejaVuSans-20" x="750.861328"/>
      <use xlink:href="#DejaVuSans-41" x="782.648438"/>
      <use xlink:href="#DejaVuSans-63" x="849.306641"/>
      <use xlink:href="#DejaVuSans-63" x="904.287109"/>
      <use xlink:href="#DejaVuSans-75" x="959.267578"/>
      <use xlink:href="#DejaVuSans-72" x="1022.646484"/>
      <use xlink:href="#DejaVuSans-61" x="1063.759766"/>
      <use xlink:href="#DejaVuSans-63" x="1125.039062"/>
      <use xlink:href="#DejaVuSans-79" x="1180.019531"/>
     </g>
    </g>
    <g id="line2d_28">
     <path d="M 216.18875 293.004312 
L 226.18875 293.004312 
L 236.18875 293.004312 
" style="fill: none; stroke: #9467bd; stroke-width: 1.5; stroke-linecap: square"/>
    </g>
    <g id="text_26">
     <!-- SWA Robust Validation Accuracy -->
     <g transform="translate(244.18875 296.504312) scale(0.1 -0.1)">
      <use xlink:href="#DejaVuSans-53"/>
      <use xlink:href="#DejaVuSans-57" x="63.476562"/>
      <use xlink:href="#DejaVuSans-41" x="156.853516"/>
      <use xlink:href="#DejaVuSans-20" x="225.261719"/>
      <use xlink:href="#DejaVuSans-52" x="257.048828"/>
      <use xlink:href="#DejaVuSans-6f" x="322.03125"/>
      <use xlink:href="#DejaVuSans-62" x="383.212891"/>
      <use xlink:href="#DejaVuSans-75" x="446.689453"/>
      <use xlink:href="#DejaVuSans-73" x="510.068359"/>
      <use xlink:href="#DejaVuSans-74" x="562.167969"/>
      <use xlink:href="#DejaVuSans-20" x="601.376953"/>
      <use xlink:href="#DejaVuSans-56" x="633.164062"/>
      <use xlink:href="#DejaVuSans-61" x="693.822266"/>
      <use xlink:href="#DejaVuSans-6c" x="755.101562"/>
      <use xlink:href="#DejaVuSans-69" x="782.884766"/>
      <use xlink:href="#DejaVuSans-64" x="810.667969"/>
      <use xlink:href="#DejaVuSans-61" x="874.144531"/>
      <use xlink:href="#DejaVuSans-74" x="935.423828"/>
      <use xlink:href="#DejaVuSans-69" x="974.632812"/>
      <use xlink:href="#DejaVuSans-6f" x="1002.416016"/>
      <use xlink:href="#DejaVuSans-6e" x="1063.597656"/>
      <use xlink:href="#DejaVuSans-20" x="1126.976562"/>
      <use xlink:href="#DejaVuSans-41" x="1158.763672"/>
      <use xlink:href="#DejaVuSans-63" x="1225.421875"/>
      <use xlink:href="#DejaVuSans-63" x="1280.402344"/>
      <use xlink:href="#DejaVuSans-75" x="1335.382812"/>
      <use xlink:href="#DejaVuSans-72" x="1398.761719"/>
      <use xlink:href="#DejaVuSans-61" x="1439.875"/>
      <use xlink:href="#DejaVuSans-63" x="1501.154297"/>
      <use xlink:href="#DejaVuSans-79" x="1556.134766"/>
     </g>
    </g>
   </g>
  </g>
 </g>
 <defs>
  <clipPath id="p8f5d9d5e2b">
   <rect x="57.6" y="41.472" width="357.12" height="266.112"/>
  </clipPath>
 </defs>
</svg>
