<?xml version="1.0" encoding="utf-8" standalone="no"?>
<!DOCTYPE svg PUBLIC "-//W3C//DTD SVG 1.1//EN"
  "http://www.w3.org/Graphics/SVG/1.1/DTD/svg11.dtd">
<svg xmlns:xlink="http://www.w3.org/1999/xlink" width="460.8pt" height="345.6pt" viewBox="0 0 460.8 345.6" xmlns="http://www.w3.org/2000/svg" version="1.1">
 <metadata>
  <rdf:RDF xmlns:dc="http://purl.org/dc/elements/1.1/" xmlns:cc="http://creativecommons.org/ns#" xmlns:rdf="http://www.w3.org/1999/02/22-rdf-syntax-ns#">
   <cc:Work>
    <dc:type rdf:resource="http://purl.org/dc/dcmitype/StillImage"/>
    <dc:date>2025-11-03T23:25:58.252556</dc:date>
    <dc:format>image/svg+xml</dc:format>
    <dc:creator>
     <cc:Agent>
      <dc:title>Matplotlib v3.9.1, https://matplotlib.org/</dc:title>
     </cc:Agent>
    </dc:creator>
   </cc:Work>
  </rdf:RDF>
 </metadata>
 <defs>
  <style type="text/css">*{stroke-linejoin: round; stroke-linecap: butt}</style>
 </defs>
 <g id="figure_1">
  <g id="patch_1">
   <path d="M 0 345.6 
L 460.8 345.6 
L 460.8 0 
L 0 0 
z
" style="fill: #ffffff"/>
  </g>
  <g id="axes_1">
   <g id="patch_2">
    <path d="M 57.6 307.584 
L 414.72 307.584 
L 414.72 41.472 
L 57.6 41.472 
z
" style="fill: #ffffff"/>
   </g>
   <g id="matplotlib.axis_1">
    <g id="xtick_1">
     <g id="line2d_1">
      <defs>
       <path id="m183d1c0c97" d="M 0 0 
L 0 3.5 
" style="stroke: #000000; stroke-width: 0.8"/>
      </defs>
      <g>
       <use xlink:href="#m183d1c0c97" x="73.832727" y="307.584" style="stroke: #000000; stroke-width: 0.8"/>
      </g>
     </g>
     <g id="text_1">
      <!-- 1 -->
      <g transform="translate(70.651477 322.182437) scale(0.1 -0.1)">
       <defs>
        <path id="DejaVuSans-31" d="M 794 531 
L 1825 531 
L 1825 4091 
L 703 3866 
L 703 4441 
L 1819 4666 
L 2450 4666 
L 2450 531 
L 3481 531 
L 3481 0 
L 794 0 
L 794 531 
z
" transform="scale(0.015625)"/>
       </defs>
       <use xlink:href="#DejaVuSans-31"/>
      </g>
     </g>
    </g>
    <g id="xtick_2">
     <g id="line2d_2">
      <g>
       <use xlink:href="#m183d1c0c97" x="109.664165" y="307.584" style="stroke: #000000; stroke-width: 0.8"/>
      </g>
     </g>
     <g id="text_2">
      <!-- 34 -->
      <g transform="translate(103.301665 322.182437) scale(0.1 -0.1)">
       <defs>
        <path id="DejaVuSans-33" d="M 2597 2516 
Q 3050 2419 3304 2112 
Q 3559 1806 3559 1356 
Q 3559 666 3084 287 
Q 2609 -91 1734 -91 
Q 1441 -91 1130 -33 
Q 819 25 488 141 
L 488 750 
Q 750 597 1062 519 
Q 1375 441 1716 441 
Q 2309 441 2620 675 
Q 2931 909 2931 1356 
Q 2931 1769 2642 2001 
Q 2353 2234 1838 2234 
L 1294 2234 
L 1294 2753 
L 1863 2753 
Q 2328 2753 2575 2939 
Q 2822 3125 2822 3475 
Q 2822 3834 2567 4026 
Q 2313 4219 1838 4219 
Q 1578 4219 1281 4162 
Q 984 4106 628 3988 
L 628 4550 
Q 988 4650 1302 4700 
Q 1616 4750 1894 4750 
Q 2613 4750 3031 4423 
Q 3450 4097 3450 3541 
Q 3450 3153 3228 2886 
Q 3006 2619 2597 2516 
z
" transform="scale(0.015625)"/>
        <path id="DejaVuSans-34" d="M 2419 4116 
L 825 1625 
L 2419 1625 
L 2419 4116 
z
M 2253 4666 
L 3047 4666 
L 3047 1625 
L 3713 1625 
L 3713 1100 
L 3047 1100 
L 3047 0 
L 2419 0 
L 2419 1100 
L 313 1100 
L 313 1709 
L 2253 4666 
z
" transform="scale(0.015625)"/>
       </defs>
       <use xlink:href="#DejaVuSans-33"/>
       <use xlink:href="#DejaVuSans-34" x="63.623047"/>
      </g>
     </g>
    </g>
    <g id="xtick_3">
     <g id="line2d_3">
      <g>
       <use xlink:href="#m183d1c0c97" x="145.495604" y="307.584" style="stroke: #000000; stroke-width: 0.8"/>
      </g>
     </g>
     <g id="text_3">
      <!-- 67 -->
      <g transform="translate(139.133104 322.182437) scale(0.1 -0.1)">
       <defs>
        <path id="DejaVuSans-36" d="M 2113 2584 
Q 1688 2584 1439 2293 
Q 1191 2003 1191 1497 
Q 1191 994 1439 701 
Q 1688 409 2113 409 
Q 2538 409 2786 701 
Q 3034 994 3034 1497 
Q 3034 2003 2786 2293 
Q 2538 2584 2113 2584 
z
M 3366 4563 
L 3366 3988 
Q 3128 4100 2886 4159 
Q 2644 4219 2406 4219 
Q 1781 4219 1451 3797 
Q 1122 3375 1075 2522 
Q 1259 2794 1537 2939 
Q 1816 3084 2150 3084 
Q 2853 3084 3261 2657 
Q 3669 2231 3669 1497 
Q 3669 778 3244 343 
Q 2819 -91 2113 -91 
Q 1303 -91 875 529 
Q 447 1150 447 2328 
Q 447 3434 972 4092 
Q 1497 4750 2381 4750 
Q 2619 4750 2861 4703 
Q 3103 4656 3366 4563 
z
" transform="scale(0.015625)"/>
        <path id="DejaVuSans-37" d="M 525 4666 
L 3525 4666 
L 3525 4397 
L 1831 0 
L 1172 0 
L 2766 4134 
L 525 4134 
L 525 4666 
z
" transform="scale(0.015625)"/>
       </defs>
       <use xlink:href="#DejaVuSans-36"/>
       <use xlink:href="#DejaVuSans-37" x="63.623047"/>
      </g>
     </g>
    </g>
    <g id="xtick_4">
     <g id="line2d_4">
      <g>
       <use xlink:href="#m183d1c0c97" x="181.327042" y="307.584" style="stroke: #000000; stroke-width: 0.8"/>
      </g>
     </g>
     <g id="text_4">
      <!-- 100 -->
      <g transform="translate(171.783292 322.182437) scale(0.1 -0.1)">
       <defs>
        <path id="DejaVuSans-30" d="M 2034 4250 
Q 1547 4250 1301 3770 
Q 1056 3291 1056 2328 
Q 1056 1369 1301 889 
Q 1547 409 2034 409 
Q 2525 409 2770 889 
Q 3016 1369 3016 2328 
Q 3016 3291 2770 3770 
Q 2525 4250 2034 4250 
z
M 2034 4750 
Q 2819 4750 3233 4129 
Q 3647 3509 3647 2328 
Q 3647 1150 3233 529 
Q 2819 -91 2034 -91 
Q 1250 -91 836 529 
Q 422 1150 422 2328 
Q 422 3509 836 4129 
Q 1250 4750 2034 4750 
z
" transform="scale(0.015625)"/>
       </defs>
       <use xlink:href="#DejaVuSans-31"/>
       <use xlink:href="#DejaVuSans-30" x="63.623047"/>
       <use xlink:href="#DejaVuSans-30" x="127.246094"/>
      </g>
     </g>
    </g>
    <g id="xtick_5">
     <g id="line2d_5">
      <g>
       <use xlink:href="#m183d1c0c97" x="217.15848" y="307.584" style="stroke: #000000; stroke-width: 0.8"/>
      </g>
     </g>
     <g id="text_5">
      <!-- 133 -->
      <g transform="translate(207.61473 322.182437) scale(0.1 -0.1)">
       <use xlink:href="#DejaVuSans-31"/>
       <use xlink:href="#DejaVuSans-33" x="63.623047"/>
       <use xlink:href="#DejaVuSans-33" x="127.246094"/>
      </g>
     </g>
    </g>
    <g id="xtick_6">
     <g id="line2d_6">
      <g>
       <use xlink:href="#m183d1c0c97" x="254.075719" y="307.584" style="stroke: #000000; stroke-width: 0.8"/>
      </g>
     </g>
     <g id="text_6">
      <!-- 167 -->
      <g transform="translate(244.531969 322.182437) scale(0.1 -0.1)">
       <use xlink:href="#DejaVuSans-31"/>
       <use xlink:href="#DejaVuSans-36" x="63.623047"/>
       <use xlink:href="#DejaVuSans-37" x="127.246094"/>
      </g>
     </g>
    </g>
    <g id="xtick_7">
     <g id="line2d_7">
      <g>
       <use xlink:href="#m183d1c0c97" x="289.907157" y="307.584" style="stroke: #000000; stroke-width: 0.8"/>
      </g>
     </g>
     <g id="text_7">
      <!-- 200 -->
      <g transform="translate(280.363407 322.182437) scale(0.1 -0.1)">
       <defs>
        <path id="DejaVuSans-32" d="M 1228 531 
L 3431 531 
L 3431 0 
L 469 0 
L 469 531 
Q 828 903 1448 1529 
Q 2069 2156 2228 2338 
Q 2531 2678 2651 2914 
Q 2772 3150 2772 3378 
Q 2772 3750 2511 3984 
Q 2250 4219 1831 4219 
Q 1534 4219 1204 4116 
Q 875 4013 500 3803 
L 500 4441 
Q 881 4594 1212 4672 
Q 1544 4750 1819 4750 
Q 2544 4750 2975 4387 
Q 3406 4025 3406 3419 
Q 3406 3131 3298 2873 
Q 3191 2616 2906 2266 
Q 2828 2175 2409 1742 
Q 1991 1309 1228 531 
z
" transform="scale(0.015625)"/>
       </defs>
       <use xlink:href="#DejaVuSans-32"/>
       <use xlink:href="#DejaVuSans-30" x="63.623047"/>
       <use xlink:href="#DejaVuSans-30" x="127.246094"/>
      </g>
     </g>
    </g>
    <g id="xtick_8">
     <g id="line2d_8">
      <g>
       <use xlink:href="#m183d1c0c97" x="325.738595" y="307.584" style="stroke: #000000; stroke-width: 0.8"/>
      </g>
     </g>
     <g id="text_8">
      <!-- 233 -->
      <g transform="translate(316.194845 322.182437) scale(0.1 -0.1)">
       <use xlink:href="#DejaVuSans-32"/>
       <use xlink:href="#DejaVuSans-33" x="63.623047"/>
       <use xlink:href="#DejaVuSans-33" x="127.246094"/>
      </g>
     </g>
    </g>
    <g id="xtick_9">
     <g id="line2d_9">
      <g>
       <use xlink:href="#m183d1c0c97" x="361.570033" y="307.584" style="stroke: #000000; stroke-width: 0.8"/>
      </g>
     </g>
     <g id="text_9">
      <!-- 266 -->
      <g transform="translate(352.026283 322.182437) scale(0.1 -0.1)">
       <use xlink:href="#DejaVuSans-32"/>
       <use xlink:href="#DejaVuSans-36" x="63.623047"/>
       <use xlink:href="#DejaVuSans-36" x="127.246094"/>
      </g>
     </g>
    </g>
    <g id="xtick_10">
     <g id="line2d_10">
      <g>
       <use xlink:href="#m183d1c0c97" x="398.487273" y="307.584" style="stroke: #000000; stroke-width: 0.8"/>
      </g>
     </g>
     <g id="text_10">
      <!-- 300 -->
      <g transform="translate(388.943523 322.182437) scale(0.1 -0.1)">
       <use xlink:href="#DejaVuSans-33"/>
       <use xlink:href="#DejaVuSans-30" x="63.623047"/>
       <use xlink:href="#DejaVuSans-30" x="127.246094"/>
      </g>
     </g>
    </g>
    <g id="text_11">
     <!-- Epochs -->
     <g transform="translate(218.244375 335.860562) scale(0.1 -0.1)">
      <defs>
       <path id="DejaVuSans-45" d="M 628 4666 
L 3578 4666 
L 3578 4134 
L 1259 4134 
L 1259 2753 
L 3481 2753 
L 3481 2222 
L 1259 2222 
L 1259 531 
L 3634 531 
L 3634 0 
L 628 0 
L 628 4666 
z
" transform="scale(0.015625)"/>
       <path id="DejaVuSans-70" d="M 1159 525 
L 1159 -1331 
L 581 -1331 
L 581 3500 
L 1159 3500 
L 1159 2969 
Q 1341 3281 1617 3432 
Q 1894 3584 2278 3584 
Q 2916 3584 3314 3078 
Q 3713 2572 3713 1747 
Q 3713 922 3314 415 
Q 2916 -91 2278 -91 
Q 1894 -91 1617 61 
Q 1341 213 1159 525 
z
M 3116 1747 
Q 3116 2381 2855 2742 
Q 2594 3103 2138 3103 
Q 1681 3103 1420 2742 
Q 1159 2381 1159 1747 
Q 1159 1113 1420 752 
Q 1681 391 2138 391 
Q 2594 391 2855 752 
Q 3116 1113 3116 1747 
z
" transform="scale(0.015625)"/>
       <path id="DejaVuSans-6f" d="M 1959 3097 
Q 1497 3097 1228 2736 
Q 959 2375 959 1747 
Q 959 1119 1226 758 
Q 1494 397 1959 397 
Q 2419 397 2687 759 
Q 2956 1122 2956 1747 
Q 2956 2369 2687 2733 
Q 2419 3097 1959 3097 
z
M 1959 3584 
Q 2709 3584 3137 3096 
Q 3566 2609 3566 1747 
Q 3566 888 3137 398 
Q 2709 -91 1959 -91 
Q 1206 -91 779 398 
Q 353 888 353 1747 
Q 353 2609 779 3096 
Q 1206 3584 1959 3584 
z
" transform="scale(0.015625)"/>
       <path id="DejaVuSans-63" d="M 3122 3366 
L 3122 2828 
Q 2878 2963 2633 3030 
Q 2388 3097 2138 3097 
Q 1578 3097 1268 2742 
Q 959 2388 959 1747 
Q 959 1106 1268 751 
Q 1578 397 2138 397 
Q 2388 397 2633 464 
Q 2878 531 3122 666 
L 3122 134 
Q 2881 22 2623 -34 
Q 2366 -91 2075 -91 
Q 1284 -91 818 406 
Q 353 903 353 1747 
Q 353 2603 823 3093 
Q 1294 3584 2113 3584 
Q 2378 3584 2631 3529 
Q 2884 3475 3122 3366 
z
" transform="scale(0.015625)"/>
       <path id="DejaVuSans-68" d="M 3513 2113 
L 3513 0 
L 2938 0 
L 2938 2094 
Q 2938 2591 2744 2837 
Q 2550 3084 2163 3084 
Q 1697 3084 1428 2787 
Q 1159 2491 1159 1978 
L 1159 0 
L 581 0 
L 581 4863 
L 1159 4863 
L 1159 2956 
Q 1366 3272 1645 3428 
Q 1925 3584 2291 3584 
Q 2894 3584 3203 3211 
Q 3513 2838 3513 2113 
z
" transform="scale(0.015625)"/>
       <path id="DejaVuSans-73" d="M 2834 3397 
L 2834 2853 
Q 2591 2978 2328 3040 
Q 2066 3103 1784 3103 
Q 1356 3103 1142 2972 
Q 928 2841 928 2578 
Q 928 2378 1081 2264 
Q 1234 2150 1697 2047 
L 1894 2003 
Q 2506 1872 2764 1633 
Q 3022 1394 3022 966 
Q 3022 478 2636 193 
Q 2250 -91 1575 -91 
Q 1294 -91 989 -36 
Q 684 19 347 128 
L 347 722 
Q 666 556 975 473 
Q 1284 391 1588 391 
Q 1994 391 2212 530 
Q 2431 669 2431 922 
Q 2431 1156 2273 1281 
Q 2116 1406 1581 1522 
L 1381 1569 
Q 847 1681 609 1914 
Q 372 2147 372 2553 
Q 372 3047 722 3315 
Q 1072 3584 1716 3584 
Q 2034 3584 2315 3537 
Q 2597 3491 2834 3397 
z
" transform="scale(0.015625)"/>
      </defs>
      <use xlink:href="#DejaVuSans-45"/>
      <use xlink:href="#DejaVuSans-70" x="63.183594"/>
      <use xlink:href="#DejaVuSans-6f" x="126.660156"/>
      <use xlink:href="#DejaVuSans-63" x="187.841797"/>
      <use xlink:href="#DejaVuSans-68" x="242.822266"/>
      <use xlink:href="#DejaVuSans-73" x="306.201172"/>
     </g>
    </g>
   </g>
   <g id="matplotlib.axis_2">
    <g id="ytick_1">
     <g id="line2d_11">
      <defs>
       <path id="m41611df0f5" d="M 0 0 
L -3.5 0 
" style="stroke: #000000; stroke-width: 0.8"/>
      </defs>
      <g>
       <use xlink:href="#m41611df0f5" x="57.6" y="306.135778" style="stroke: #000000; stroke-width: 0.8"/>
      </g>
     </g>
     <g id="text_12">
      <!-- 10 -->
      <g transform="translate(37.875 309.934997) scale(0.1 -0.1)">
       <use xlink:href="#DejaVuSans-31"/>
       <use xlink:href="#DejaVuSans-30" x="63.623047"/>
      </g>
     </g>
    </g>
    <g id="ytick_2">
     <g id="line2d_12">
      <g>
       <use xlink:href="#m41611df0f5" x="57.6" y="269.323483" style="stroke: #000000; stroke-width: 0.8"/>
      </g>
     </g>
     <g id="text_13">
      <!-- 20 -->
      <g transform="translate(37.875 273.122702) scale(0.1 -0.1)">
       <use xlink:href="#DejaVuSans-32"/>
       <use xlink:href="#DejaVuSans-30" x="63.623047"/>
      </g>
     </g>
    </g>
    <g id="ytick_3">
     <g id="line2d_13">
      <g>
       <use xlink:href="#m41611df0f5" x="57.6" y="232.511188" style="stroke: #000000; stroke-width: 0.8"/>
      </g>
     </g>
     <g id="text_14">
      <!-- 30 -->
      <g transform="translate(37.875 236.310407) scale(0.1 -0.1)">
       <use xlink:href="#DejaVuSans-33"/>
       <use xlink:href="#DejaVuSans-30" x="63.623047"/>
      </g>
     </g>
    </g>
    <g id="ytick_4">
     <g id="line2d_14">
      <g>
       <use xlink:href="#m41611df0f5" x="57.6" y="195.698893" style="stroke: #000000; stroke-width: 0.8"/>
      </g>
     </g>
     <g id="text_15">
      <!-- 40 -->
      <g transform="translate(37.875 199.498112) scale(0.1 -0.1)">
       <use xlink:href="#DejaVuSans-34"/>
       <use xlink:href="#DejaVuSans-30" x="63.623047"/>
      </g>
     </g>
    </g>
    <g id="ytick_5">
     <g id="line2d_15">
      <g>
       <use xlink:href="#m41611df0f5" x="57.6" y="158.886598" style="stroke: #000000; stroke-width: 0.8"/>
      </g>
     </g>
     <g id="text_16">
      <!-- 50 -->
      <g transform="translate(37.875 162.685817) scale(0.1 -0.1)">
       <defs>
        <path id="DejaVuSans-35" d="M 691 4666 
L 3169 4666 
L 3169 4134 
L 1269 4134 
L 1269 2991 
Q 1406 3038 1543 3061 
Q 1681 3084 1819 3084 
Q 2600 3084 3056 2656 
Q 3513 2228 3513 1497 
Q 3513 744 3044 326 
Q 2575 -91 1722 -91 
Q 1428 -91 1123 -41 
Q 819 9 494 109 
L 494 744 
Q 775 591 1075 516 
Q 1375 441 1709 441 
Q 2250 441 2565 725 
Q 2881 1009 2881 1497 
Q 2881 1984 2565 2268 
Q 2250 2553 1709 2553 
Q 1456 2553 1204 2497 
Q 953 2441 691 2322 
L 691 4666 
z
" transform="scale(0.015625)"/>
       </defs>
       <use xlink:href="#DejaVuSans-35"/>
       <use xlink:href="#DejaVuSans-30" x="63.623047"/>
      </g>
     </g>
    </g>
    <g id="ytick_6">
     <g id="line2d_16">
      <g>
       <use xlink:href="#m41611df0f5" x="57.6" y="122.074303" style="stroke: #000000; stroke-width: 0.8"/>
      </g>
     </g>
     <g id="text_17">
      <!-- 60 -->
      <g transform="translate(37.875 125.873522) scale(0.1 -0.1)">
       <use xlink:href="#DejaVuSans-36"/>
       <use xlink:href="#DejaVuSans-30" x="63.623047"/>
      </g>
     </g>
    </g>
    <g id="ytick_7">
     <g id="line2d_17">
      <g>
       <use xlink:href="#m41611df0f5" x="57.6" y="85.262008" style="stroke: #000000; stroke-width: 0.8"/>
      </g>
     </g>
     <g id="text_18">
      <!-- 70 -->
      <g transform="translate(37.875 89.061227) scale(0.1 -0.1)">
       <use xlink:href="#DejaVuSans-37"/>
       <use xlink:href="#DejaVuSans-30" x="63.623047"/>
      </g>
     </g>
    </g>
    <g id="ytick_8">
     <g id="line2d_18">
      <g>
       <use xlink:href="#m41611df0f5" x="57.6" y="48.449713" style="stroke: #000000; stroke-width: 0.8"/>
      </g>
     </g>
     <g id="text_19">
      <!-- 80 -->
      <g transform="translate(37.875 52.248932) scale(0.1 -0.1)">
       <defs>
        <path id="DejaVuSans-38" d="M 2034 2216 
Q 1584 2216 1326 1975 
Q 1069 1734 1069 1313 
Q 1069 891 1326 650 
Q 1584 409 2034 409 
Q 2484 409 2743 651 
Q 3003 894 3003 1313 
Q 3003 1734 2745 1975 
Q 2488 2216 2034 2216 
z
M 1403 2484 
Q 997 2584 770 2862 
Q 544 3141 544 3541 
Q 544 4100 942 4425 
Q 1341 4750 2034 4750 
Q 2731 4750 3128 4425 
Q 3525 4100 3525 3541 
Q 3525 3141 3298 2862 
Q 3072 2584 2669 2484 
Q 3125 2378 3379 2068 
Q 3634 1759 3634 1313 
Q 3634 634 3220 271 
Q 2806 -91 2034 -91 
Q 1263 -91 848 271 
Q 434 634 434 1313 
Q 434 1759 690 2068 
Q 947 2378 1403 2484 
z
M 1172 3481 
Q 1172 3119 1398 2916 
Q 1625 2713 2034 2713 
Q 2441 2713 2670 2916 
Q 2900 3119 2900 3481 
Q 2900 3844 2670 4047 
Q 2441 4250 2034 4250 
Q 1625 4250 1398 4047 
Q 1172 3844 1172 3481 
z
" transform="scale(0.015625)"/>
       </defs>
       <use xlink:href="#DejaVuSans-38"/>
       <use xlink:href="#DejaVuSans-30" x="63.623047"/>
      </g>
     </g>
    </g>
    <g id="text_20">
     <!-- Accuracy -->
     <g transform="translate(31.795312 197.356125) rotate(-90) scale(0.1 -0.1)">
      <defs>
       <path id="DejaVuSans-41" d="M 2188 4044 
L 1331 1722 
L 3047 1722 
L 2188 4044 
z
M 1831 4666 
L 2547 4666 
L 4325 0 
L 3669 0 
L 3244 1197 
L 1141 1197 
L 716 0 
L 50 0 
L 1831 4666 
z
" transform="scale(0.015625)"/>
       <path id="DejaVuSans-75" d="M 544 1381 
L 544 3500 
L 1119 3500 
L 1119 1403 
Q 1119 906 1312 657 
Q 1506 409 1894 409 
Q 2359 409 2629 706 
Q 2900 1003 2900 1516 
L 2900 3500 
L 3475 3500 
L 3475 0 
L 2900 0 
L 2900 538 
Q 2691 219 2414 64 
Q 2138 -91 1772 -91 
Q 1169 -91 856 284 
Q 544 659 544 1381 
z
M 1991 3584 
L 1991 3584 
z
" transform="scale(0.015625)"/>
       <path id="DejaVuSans-72" d="M 2631 2963 
Q 2534 3019 2420 3045 
Q 2306 3072 2169 3072 
Q 1681 3072 1420 2755 
Q 1159 2438 1159 1844 
L 1159 0 
L 581 0 
L 581 3500 
L 1159 3500 
L 1159 2956 
Q 1341 3275 1631 3429 
Q 1922 3584 2338 3584 
Q 2397 3584 2469 3576 
Q 2541 3569 2628 3553 
L 2631 2963 
z
" transform="scale(0.015625)"/>
       <path id="DejaVuSans-61" d="M 2194 1759 
Q 1497 1759 1228 1600 
Q 959 1441 959 1056 
Q 959 750 1161 570 
Q 1363 391 1709 391 
Q 2188 391 2477 730 
Q 2766 1069 2766 1631 
L 2766 1759 
L 2194 1759 
z
M 3341 1997 
L 3341 0 
L 2766 0 
L 2766 531 
Q 2569 213 2275 61 
Q 1981 -91 1556 -91 
Q 1019 -91 701 211 
Q 384 513 384 1019 
Q 384 1609 779 1909 
Q 1175 2209 1959 2209 
L 2766 2209 
L 2766 2266 
Q 2766 2663 2505 2880 
Q 2244 3097 1772 3097 
Q 1472 3097 1187 3025 
Q 903 2953 641 2809 
L 641 3341 
Q 956 3463 1253 3523 
Q 1550 3584 1831 3584 
Q 2591 3584 2966 3190 
Q 3341 2797 3341 1997 
z
" transform="scale(0.015625)"/>
       <path id="DejaVuSans-79" d="M 2059 -325 
Q 1816 -950 1584 -1140 
Q 1353 -1331 966 -1331 
L 506 -1331 
L 506 -850 
L 844 -850 
Q 1081 -850 1212 -737 
Q 1344 -625 1503 -206 
L 1606 56 
L 191 3500 
L 800 3500 
L 1894 763 
L 2988 3500 
L 3597 3500 
L 2059 -325 
z
" transform="scale(0.015625)"/>
      </defs>
      <use xlink:href="#DejaVuSans-41"/>
      <use xlink:href="#DejaVuSans-63" x="66.658203"/>
      <use xlink:href="#DejaVuSans-63" x="121.638672"/>
      <use xlink:href="#DejaVuSans-75" x="176.619141"/>
      <use xlink:href="#DejaVuSans-72" x="239.998047"/>
      <use xlink:href="#DejaVuSans-61" x="281.111328"/>
      <use xlink:href="#DejaVuSans-63" x="342.390625"/>
      <use xlink:href="#DejaVuSans-79" x="397.371094"/>
     </g>
    </g>
   </g>
   <g id="line2d_19">
    <path d="M 73.832727 287.335916 
L 74.918528 245.565281 
L 76.00433 229.693669 
L 77.090131 231.293134 
L 78.175932 230.985545 
L 79.261733 228.401794 
L 80.347534 224.895275 
L 82.519137 204.963485 
L 83.604938 203.856163 
L 84.690739 204.840449 
L 85.77654 203.425538 
L 86.862341 203.117948 
L 87.948142 196.350982 
L 89.033943 196.043393 
L 90.119745 200.411162 
L 91.205546 197.458304 
L 92.291347 199.365358 
L 93.377148 194.751518 
L 94.462949 193.82875 
L 95.54875 204.471342 
L 96.634552 199.919019 
L 97.720353 205.209556 
L 98.806154 199.242322 
L 99.891955 200.964823 
L 100.977756 198.688662 
L 102.063557 198.996251 
L 103.149358 200.903305 
L 104.23516 198.873215 
L 105.320961 193.890268 
L 106.406762 199.119287 
L 107.492563 189.830088 
L 108.578364 191.79866 
L 109.664165 191.244999 
L 110.749967 186.323569 
L 111.835768 190.014642 
L 112.921569 186.631159 
L 114.00737 191.121963 
L 115.093171 187.246337 
L 116.178972 182.694015 
L 117.264773 183.98589 
L 118.350575 185.708391 
L 119.436376 177.03437 
L 120.522177 175.127316 
L 121.607978 178.818389 
L 123.77958 169.959815 
L 124.865382 171.928387 
L 125.951183 164.546242 
L 127.036984 164.853832 
L 128.122785 165.530528 
L 129.208586 161.408831 
L 132.46599 153.596061 
L 133.551791 154.764901 
L 134.637592 151.01231 
L 135.723393 151.073828 
L 136.809194 148.613113 
L 137.894995 150.335614 
L 138.980797 174.266066 
L 140.066598 184.478033 
L 141.152399 176.357674 
L 142.2382 173.958477 
L 143.324001 179.002942 
L 144.409802 175.31187 
L 145.495604 167.129993 
L 146.581405 166.945439 
L 147.667206 174.819727 
L 148.753007 169.467672 
L 150.924609 160.978206 
L 152.01041 162.946778 
L 153.096212 157.348651 
L 154.182013 160.178473 
L 155.267814 153.657579 
L 156.353615 161.224277 
L 157.439416 148.305524 
L 158.525217 153.596061 
L 160.69682 150.704721 
L 161.782621 146.952131 
L 162.868422 139.077843 
L 163.954223 137.847486 
L 165.040024 138.770254 
L 166.125825 141.169451 
L 168.297428 133.172127 
L 169.383229 133.541234 
L 170.46903 131.572663 
L 171.554831 130.096234 
L 172.640632 128.127662 
L 173.726434 127.266411 
L 174.812235 129.234983 
L 175.898036 123.698375 
L 176.983837 120.622481 
L 178.069638 121.791321 
L 179.155439 117.546588 
L 180.24124 115.331944 
L 181.327042 113.978551 
L 182.412843 113.793997 
L 183.498644 113.732479 
L 184.584445 111.948461 
L 185.670246 111.517836 
L 186.756047 112.379086 
L 187.841849 109.364711 
L 188.92765 104.75087 
L 190.013451 103.212923 
L 191.099252 102.228637 
L 192.185053 105.61212 
L 193.270854 105.489085 
L 194.356656 102.167119 
L 195.442457 101.551941 
L 196.528258 99.398815 
L 197.614059 94.35435 
L 198.69986 95.092564 
L 199.785661 94.600421 
L 200.871462 95.400153 
L 201.957264 97.122654 
L 203.043065 101.059798 
L 204.128866 92.570331 
L 205.214667 89.617473 
L 206.300468 91.15542 
L 207.386269 89.986581 
L 208.472071 84.757561 
L 209.557872 88.879259 
L 210.643673 89.986581 
L 211.729474 83.773275 
L 212.815275 85.987919 
L 213.901076 86.172473 
L 214.986877 88.756223 
L 216.072679 84.449972 
L 217.15848 83.404168 
L 218.244281 83.465686 
L 219.330082 79.89765 
L 220.415883 81.681668 
L 221.501684 81.189525 
L 222.587486 81.804704 
L 223.673287 88.079527 
L 224.759088 84.142383 
L 225.844889 119.699713 
L 226.93069 128.373733 
L 228.016491 127.327929 
L 229.102292 123.759893 
L 230.188094 125.482393 
L 231.273895 124.252036 
L 232.359696 124.99025 
L 233.445497 124.005964 
L 234.531298 119.51516 
L 235.617099 116.070159 
L 236.702901 117.854177 
L 237.788702 112.56364 
L 238.874503 115.331944 
L 239.960304 117.48507 
L 241.046105 111.70239 
L 242.131906 116.254712 
L 243.217708 115.331944 
L 244.303509 120.314892 
L 245.38931 111.948461 
L 246.475111 112.809711 
L 247.560912 102.659262 
L 248.646713 118.161766 
L 249.732514 108.564978 
L 250.818316 109.979889 
L 251.904117 108.749532 
L 252.989918 104.135691 
L 255.16152 107.826764 
L 256.247321 105.427567 
L 257.333123 103.458995 
L 258.418924 103.397477 
L 259.504725 103.705066 
L 260.590526 105.119977 
L 261.676327 102.843816 
L 262.762128 104.935424 
L 263.847929 105.858192 
L 264.933731 101.428905 
L 267.105333 97.614797 
L 268.191134 96.07685 
L 269.276935 98.845154 
L 270.362736 97.737833 
L 271.448538 101.490423 
L 272.534339 96.815064 
L 273.62014 93.985242 
L 274.705941 96.568993 
L 275.791742 90.663277 
L 276.877543 93.370064 
L 277.963344 92.754885 
L 279.049146 95.2156 
L 280.134947 91.647563 
L 281.220748 89.248366 
L 282.306549 86.172473 
L 283.39235 92.570331 
L 284.478151 95.707743 
L 285.563953 88.756223 
L 286.649754 96.999618 
L 287.735555 90.724795 
L 288.821356 88.756223 
L 289.907157 83.957829 
L 290.992958 81.743186 
L 292.07876 85.557294 
L 293.164561 82.850507 
L 294.250362 91.093902 
L 295.336163 85.495776 
L 296.421964 80.943453 
L 297.507765 83.465686 
L 299.679368 78.851846 
L 300.765169 79.774614 
L 301.85097 80.020685 
L 302.936771 78.359703 
L 304.022572 79.405507 
L 305.108373 78.052113 
L 306.194175 78.113631 
L 307.279976 80.943453 
L 308.365777 78.482738 
L 309.451578 80.205239 
L 310.537379 79.097917 
L 311.62318 79.774614 
L 312.708981 77.436935 
L 313.794783 81.497114 
L 314.880584 75.83747 
L 315.966385 75.775952 
L 317.052186 77.806042 
L 318.137987 75.160773 
L 319.223788 75.83747 
L 320.30959 74.97622 
L 321.395391 73.868898 
L 322.481192 73.930416 
L 323.566993 71.223629 
L 324.652794 73.130684 
L 325.738595 72.023362 
L 326.824396 68.824432 
L 327.910198 70.362379 
L 328.995999 68.086218 
L 330.0818 74.853184 
L 331.167601 70.793004 
L 332.253402 64.579699 
L 333.339203 66.671307 
L 334.425005 69.747201 
L 335.510806 65.810057 
L 336.596607 69.747201 
L 337.682408 68.393807 
L 338.768209 67.409521 
L 340.939811 60.765591 
L 342.025613 67.840146 
L 343.111414 69.685683 
L 344.197215 65.563985 
L 345.283016 66.671307 
L 346.368817 60.827109 
L 347.454618 65.194878 
L 348.54042 62.426574 
L 349.626221 66.794343 
L 350.712022 64.764253 
L 351.797823 65.13336 
L 352.883624 57.997287 
L 353.969425 66.117646 
L 355.055227 58.120323 
L 356.141028 60.334966 
L 357.226829 59.043091 
L 358.31263 61.134698 
L 359.398431 57.259072 
L 360.484232 57.874251 
L 361.570033 61.872913 
L 363.741636 54.183179 
L 364.827437 54.552286 
L 365.913238 56.889965 
L 366.999039 58.920055 
L 368.08484 58.981573 
L 369.170642 53.568 
L 370.256443 57.074519 
L 371.342244 58.18184 
L 372.428045 58.304876 
L 373.513846 63.10327 
L 374.599647 58.981573 
L 375.685448 62.549609 
L 376.77125 60.827109 
L 377.857051 64.702735 
L 378.942852 63.349342 
L 380.028653 59.535234 
L 381.114454 62.672645 
L 382.200255 59.904341 
L 383.286057 56.582376 
L 384.371858 59.227644 
L 385.457659 60.704073 
L 386.54346 61.07318 
L 387.629261 59.104609 
L 388.715062 59.596752 
L 389.800863 56.582376 
L 390.886665 58.550948 
L 391.972466 59.35068 
L 393.058267 59.781305 
L 394.144068 56.643894 
L 395.229869 55.782643 
L 396.31567 60.51952 
L 397.401472 60.581037 
L 398.487273 62.549609 
L 398.487273 62.549609 
" clip-path="url(#p3e8fa2d7aa)" style="fill: none; stroke: #1f77b4; stroke-width: 1.5; stroke-linecap: square"/>
   </g>
   <g id="line2d_20">
    <path d="M 73.832727 243.601599 
L 74.918528 243.601599 
L 76.00433 224.666751 
L 77.090131 265.241425 
L 78.175932 218.273166 
L 79.261733 245.077042 
L 80.347534 196.141526 
L 81.433335 209.174603 
L 82.519137 176.22305 
L 83.604938 189.256127 
L 84.690739 295.488 
L 85.77654 185.075706 
L 86.862341 191.961105 
L 87.948142 194.91199 
L 89.033943 189.993848 
L 90.119745 196.387433 
L 91.205546 171.550814 
L 92.291347 180.157563 
L 93.377148 174.009886 
L 94.462949 177.452585 
L 95.54875 171.796722 
L 96.634552 188.026591 
L 97.720353 184.583891 
L 98.806154 188.518405 
L 99.891955 272.618638 
L 100.977756 214.584559 
L 102.063557 191.223384 
L 103.149358 207.453253 
L 104.23516 178.436214 
L 105.320961 219.010887 
L 106.406762 217.289538 
L 107.492563 225.65038 
L 108.578364 204.748275 
L 109.664165 216.797723 
L 110.749967 224.912658 
L 111.835768 194.420176 
L 112.921569 217.535445 
L 114.00737 198.108783 
L 115.093171 207.207346 
L 116.178972 163.927694 
L 117.264773 179.419842 
L 118.350575 203.026925 
L 119.436376 181.633006 
L 120.522177 184.337984 
L 121.607978 180.157563 
L 122.693779 182.370727 
L 123.77958 195.157897 
L 124.865382 186.059334 
L 125.951183 145.48466 
L 127.036984 179.665749 
L 128.122785 166.878579 
L 130.294387 150.402803 
L 131.380189 160.484994 
L 132.46599 150.402803 
L 133.551791 145.48466 
L 134.637592 144.992846 
L 135.723393 141.058332 
L 136.809194 144.746939 
L 137.894995 144.992846 
L 138.980797 184.583891 
L 140.066598 205.97781 
L 141.152399 237.208014 
L 142.2382 176.468957 
L 143.324001 142.779682 
L 144.409802 193.19064 
L 145.495604 160.730901 
L 147.667206 188.026591 
L 148.753007 194.91199 
L 149.838808 141.796054 
L 150.924609 183.600263 
L 152.01041 166.878579 
L 153.096212 164.173601 
L 154.182013 170.321279 
L 155.267814 170.321279 
L 156.353615 145.730567 
L 157.439416 149.173267 
L 158.525217 180.649378 
L 159.611019 189.747941 
L 160.69682 192.207012 
L 161.782621 132.451583 
L 162.868422 176.960771 
L 163.954223 143.517403 
L 165.040024 137.123818 
L 166.125825 185.56752 
L 167.211627 147.451917 
L 168.297428 144.746939 
L 169.383229 152.124152 
L 170.46903 145.976475 
L 171.554831 150.402803 
L 172.640632 137.615633 
L 173.726434 142.287868 
L 174.812235 126.303905 
L 175.898036 124.828463 
L 176.983837 131.467955 
L 178.069638 151.632338 
L 180.24124 123.844834 
L 181.327042 128.762977 
L 182.412843 160.239087 
L 184.584445 141.304239 
L 185.670246 140.320611 
L 186.756047 109.090407 
L 187.841849 130.976141 
L 188.92765 130.976141 
L 190.013451 120.156228 
L 191.099252 122.123484 
L 192.185053 114.500364 
L 193.270854 114.500364 
L 194.356656 110.56585 
L 195.442457 111.057664 
L 196.528258 116.713528 
L 197.614059 101.959101 
L 198.69986 97.77868 
L 199.785661 108.106779 
L 200.871462 157.780016 
L 201.957264 103.434544 
L 203.043065 130.484326 
L 204.128866 112.041293 
L 205.214667 107.12315 
L 206.300468 96.795052 
L 207.386269 91.385095 
L 208.472071 93.844166 
L 209.557872 104.909986 
L 210.643673 92.860538 
L 211.729474 98.762309 
L 212.815275 99.254123 
L 213.901076 99.008216 
L 214.986877 99.008216 
L 217.15848 95.565516 
L 218.244281 94.335981 
L 219.330082 96.549145 
L 220.415883 94.827795 
L 221.501684 94.090073 
L 222.587486 96.05733 
L 223.673287 96.05733 
L 224.759088 94.090073 
L 225.844889 197.371061 
L 226.93069 186.305241 
L 228.016491 163.927694 
L 229.102292 201.059668 
L 230.188094 142.041961 
L 231.273895 134.41884 
L 232.359696 181.141192 
L 233.445497 132.69749 
L 234.531298 133.189305 
L 235.617099 127.533441 
L 236.702901 126.549812 
L 237.788702 157.534109 
L 238.874503 127.287534 
L 239.960304 167.616301 
L 241.046105 137.86154 
L 242.131906 118.680785 
L 243.217708 127.533441 
L 244.303509 120.893949 
L 245.38931 129.746605 
L 246.475111 151.878245 
L 247.560912 118.680785 
L 248.646713 125.566184 
L 249.732514 173.518071 
L 250.818316 150.402803 
L 251.904117 124.582556 
L 252.989918 131.713862 
L 254.075719 134.41884 
L 255.16152 138.845168 
L 256.247321 115.483992 
L 257.333123 165.157229 
L 258.418924 130.238419 
L 259.504725 141.796054 
L 260.590526 117.451249 
L 261.676327 155.812759 
L 262.762128 166.386765 
L 263.847929 178.682121 
L 264.933731 116.221714 
L 266.019532 101.467287 
L 267.105333 159.501366 
L 268.191134 137.123818 
L 269.276935 117.697156 
L 270.362736 112.533107 
L 271.448538 129.746605 
L 272.534339 141.304239 
L 273.62014 137.86154 
L 274.705941 118.680785 
L 275.791742 120.648042 
L 276.877543 143.76331 
L 277.963344 143.271496 
L 279.049146 155.320945 
L 280.134947 110.811757 
L 281.220748 123.35302 
L 282.306549 142.779682 
L 283.39235 103.188637 
L 284.478151 140.812425 
L 285.563953 102.94273 
L 286.649754 119.418506 
L 287.735555 94.581888 
L 289.907157 137.123818 
L 290.992958 95.319609 
L 292.07876 99.50003 
L 293.164561 119.172599 
L 294.250362 127.779348 
L 295.336163 99.991844 
L 296.421964 101.22138 
L 297.507765 104.909986 
L 298.593566 130.238419 
L 299.679368 99.991844 
L 300.765169 120.648042 
L 301.85097 119.418506 
L 302.936771 134.910654 
L 304.022572 104.172265 
L 305.108373 116.713528 
L 306.194175 125.07437 
L 307.279976 123.598927 
L 308.365777 111.549479 
L 309.451578 101.22138 
L 310.537379 133.435212 
L 311.62318 117.697156 
L 312.708981 174.993514 
L 313.794783 124.090741 
L 314.880584 128.271162 
L 315.966385 107.614965 
L 317.052186 96.549145 
L 318.137987 100.237751 
L 319.223788 117.451249 
L 320.30959 107.860872 
L 321.395391 99.991844 
L 322.481192 106.877243 
L 323.566993 121.385763 
L 324.652794 88.43421 
L 325.738595 108.352686 
L 326.824396 92.122816 
L 327.910198 104.418172 
L 328.995999 104.909986 
L 330.0818 107.860872 
L 331.167601 88.43421 
L 332.253402 88.188303 
L 333.339203 104.418172 
L 334.425005 90.893281 
L 335.510806 96.303237 
L 336.596607 107.369058 
L 337.682408 91.139188 
L 338.768209 90.893281 
L 339.85401 81.056996 
L 340.939811 92.860538 
L 342.025613 100.975473 
L 343.111414 95.073702 
L 344.197215 91.385095 
L 345.283016 93.598259 
L 346.368817 90.647374 
L 347.454618 91.385095 
L 348.54042 103.680451 
L 349.626221 87.696488 
L 350.712022 91.385095 
L 351.797823 87.696488 
L 352.883624 88.926024 
L 353.969425 97.532773 
L 355.055227 95.565516 
L 356.141028 97.77868 
L 357.226829 85.483324 
L 358.31263 84.745603 
L 359.398431 81.794718 
L 360.484232 86.466953 
L 361.570033 85.729232 
L 362.655835 94.335981 
L 363.741636 89.663745 
L 364.827437 92.122816 
L 365.913238 82.286532 
L 366.999039 87.942396 
L 368.08484 81.056996 
L 369.170642 89.171931 
L 370.256443 83.27016 
L 371.342244 94.090073 
L 372.428045 82.532439 
L 373.513846 87.450581 
L 374.599647 85.237417 
L 375.685448 92.368724 
L 376.77125 92.860538 
L 377.857051 103.680451 
L 378.942852 95.565516 
L 380.028653 94.090073 
L 381.114454 94.090073 
L 382.200255 103.680451 
L 383.286057 92.122816 
L 384.371858 117.943063 
L 386.54346 84.007882 
L 387.629261 90.401467 
L 388.715062 93.844166 
L 389.800863 103.188637 
L 390.886665 86.71286 
L 391.972466 85.975139 
L 393.058267 90.401467 
L 394.144068 93.844166 
L 395.229869 99.991844 
L 396.31567 92.368724 
L 397.401472 98.516401 
L 398.487273 89.417838 
L 398.487273 89.417838 
" clip-path="url(#p3e8fa2d7aa)" style="fill: none; stroke: #ff7f0e; stroke-width: 1.5; stroke-linecap: square"/>
   </g>
   <g id="line2d_21">
    <path d="M 368.08484 83.516067 
L 369.170642 89.417838 
L 370.256443 82.778346 
L 371.342244 95.073702 
L 372.428045 81.302903 
L 373.513846 86.958767 
L 374.599647 84.99151 
L 375.685448 84.499696 
L 376.77125 76.630668 
L 377.857051 82.532439 
L 378.942852 79.581554 
L 380.028653 90.401467 
L 381.114454 91.385095 
L 382.200255 84.007882 
L 383.286057 93.106445 
L 384.371858 94.090073 
L 385.457659 85.237417 
L 386.54346 86.221046 
L 387.629261 95.073702 
L 388.715062 97.77868 
L 389.800863 98.024587 
L 390.886665 110.074036 
L 391.972466 124.336648 
L 393.058267 99.50003 
L 394.144068 89.417838 
L 396.31567 99.254123 
L 397.401472 102.450915 
L 398.487273 95.073702 
L 398.487273 95.073702 
" clip-path="url(#p3e8fa2d7aa)" style="fill: none; stroke: #2ca02c; stroke-width: 1.5; stroke-linecap: square"/>
   </g>
   <g id="patch_3">
    <path d="M 57.6 307.584 
L 57.6 41.472 
" style="fill: none; stroke: #000000; stroke-width: 0.8; stroke-linejoin: miter; stroke-linecap: square"/>
   </g>
   <g id="patch_4">
    <path d="M 414.72 307.584 
L 414.72 41.472 
" style="fill: none; stroke: #000000; stroke-width: 0.8; stroke-linejoin: miter; stroke-linecap: square"/>
   </g>
   <g id="patch_5">
    <path d="M 57.6 307.584 
L 414.72 307.584 
" style="fill: none; stroke: #000000; stroke-width: 0.8; stroke-linejoin: miter; stroke-linecap: square"/>
   </g>
   <g id="patch_6">
    <path d="M 57.6 41.472 
L 414.72 41.472 
" style="fill: none; stroke: #000000; stroke-width: 0.8; stroke-linejoin: miter; stroke-linecap: square"/>
   </g>
   <g id="text_21">
    <!-- Learning Curves -->
    <g transform="translate(187.37625 35.472) scale(0.12 -0.12)">
     <defs>
      <path id="DejaVuSans-4c" d="M 628 4666 
L 1259 4666 
L 1259 531 
L 3531 531 
L 3531 0 
L 628 0 
L 628 4666 
z
" transform="scale(0.015625)"/>
      <path id="DejaVuSans-65" d="M 3597 1894 
L 3597 1613 
L 953 1613 
Q 991 1019 1311 708 
Q 1631 397 2203 397 
Q 2534 397 2845 478 
Q 3156 559 3463 722 
L 3463 178 
Q 3153 47 2828 -22 
Q 2503 -91 2169 -91 
Q 1331 -91 842 396 
Q 353 884 353 1716 
Q 353 2575 817 3079 
Q 1281 3584 2069 3584 
Q 2775 3584 3186 3129 
Q 3597 2675 3597 1894 
z
M 3022 2063 
Q 3016 2534 2758 2815 
Q 2500 3097 2075 3097 
Q 1594 3097 1305 2825 
Q 1016 2553 972 2059 
L 3022 2063 
z
" transform="scale(0.015625)"/>
      <path id="DejaVuSans-6e" d="M 3513 2113 
L 3513 0 
L 2938 0 
L 2938 2094 
Q 2938 2591 2744 2837 
Q 2550 3084 2163 3084 
Q 1697 3084 1428 2787 
Q 1159 2491 1159 1978 
L 1159 0 
L 581 0 
L 581 3500 
L 1159 3500 
L 1159 2956 
Q 1366 3272 1645 3428 
Q 1925 3584 2291 3584 
Q 2894 3584 3203 3211 
Q 3513 2838 3513 2113 
z
" transform="scale(0.015625)"/>
      <path id="DejaVuSans-69" d="M 603 3500 
L 1178 3500 
L 1178 0 
L 603 0 
L 603 3500 
z
M 603 4863 
L 1178 4863 
L 1178 4134 
L 603 4134 
L 603 4863 
z
" transform="scale(0.015625)"/>
      <path id="DejaVuSans-67" d="M 2906 1791 
Q 2906 2416 2648 2759 
Q 2391 3103 1925 3103 
Q 1463 3103 1205 2759 
Q 947 2416 947 1791 
Q 947 1169 1205 825 
Q 1463 481 1925 481 
Q 2391 481 2648 825 
Q 2906 1169 2906 1791 
z
M 3481 434 
Q 3481 -459 3084 -895 
Q 2688 -1331 1869 -1331 
Q 1566 -1331 1297 -1286 
Q 1028 -1241 775 -1147 
L 775 -588 
Q 1028 -725 1275 -790 
Q 1522 -856 1778 -856 
Q 2344 -856 2625 -561 
Q 2906 -266 2906 331 
L 2906 616 
Q 2728 306 2450 153 
Q 2172 0 1784 0 
Q 1141 0 747 490 
Q 353 981 353 1791 
Q 353 2603 747 3093 
Q 1141 3584 1784 3584 
Q 2172 3584 2450 3431 
Q 2728 3278 2906 2969 
L 2906 3500 
L 3481 3500 
L 3481 434 
z
" transform="scale(0.015625)"/>
      <path id="DejaVuSans-20" transform="scale(0.015625)"/>
      <path id="DejaVuSans-43" d="M 4122 4306 
L 4122 3641 
Q 3803 3938 3442 4084 
Q 3081 4231 2675 4231 
Q 1875 4231 1450 3742 
Q 1025 3253 1025 2328 
Q 1025 1406 1450 917 
Q 1875 428 2675 428 
Q 3081 428 3442 575 
Q 3803 722 4122 1019 
L 4122 359 
Q 3791 134 3420 21 
Q 3050 -91 2638 -91 
Q 1578 -91 968 557 
Q 359 1206 359 2328 
Q 359 3453 968 4101 
Q 1578 4750 2638 4750 
Q 3056 4750 3426 4639 
Q 3797 4528 4122 4306 
z
" transform="scale(0.015625)"/>
      <path id="DejaVuSans-76" d="M 191 3500 
L 800 3500 
L 1894 563 
L 2988 3500 
L 3597 3500 
L 2284 0 
L 1503 0 
L 191 3500 
z
" transform="scale(0.015625)"/>
     </defs>
     <use xlink:href="#DejaVuSans-4c"/>
     <use xlink:href="#DejaVuSans-65" x="53.962891"/>
     <use xlink:href="#DejaVuSans-61" x="115.486328"/>
     <use xlink:href="#DejaVuSans-72" x="176.765625"/>
     <use xlink:href="#DejaVuSans-6e" x="216.128906"/>
     <use xlink:href="#DejaVuSans-69" x="279.507812"/>
     <use xlink:href="#DejaVuSans-6e" x="307.291016"/>
     <use xlink:href="#DejaVuSans-67" x="370.669922"/>
     <use xlink:href="#DejaVuSans-20" x="434.146484"/>
     <use xlink:href="#DejaVuSans-43" x="465.933594"/>
     <use xlink:href="#DejaVuSans-75" x="535.757812"/>
     <use xlink:href="#DejaVuSans-72" x="599.136719"/>
     <use xlink:href="#DejaVuSans-76" x="640.25"/>
     <use xlink:href="#DejaVuSans-65" x="699.429688"/>
     <use xlink:href="#DejaVuSans-73" x="760.953125"/>
    </g>
   </g>
   <g id="legend_1">
    <g id="patch_7">
     <path d="M 251.799687 302.584 
L 407.72 302.584 
Q 409.72 302.584 409.72 300.584 
L 409.72 257.549625 
Q 409.72 255.549625 407.72 255.549625 
L 251.799687 255.549625 
Q 249.799687 255.549625 249.799687 257.549625 
L 249.799687 300.584 
Q 249.799687 302.584 251.799687 302.584 
z
" style="fill: #ffffff; opacity: 0.8; stroke: #cccccc; stroke-linejoin: miter"/>
    </g>
    <g id="line2d_22">
     <path d="M 253.799687 263.648062 
L 263.799688 263.648062 
L 273.799688 263.648062 
" style="fill: none; stroke: #1f77b4; stroke-width: 1.5; stroke-linecap: square"/>
    </g>
    <g id="text_22">
     <!-- Train Accuracy -->
     <g transform="translate(281.799688 267.148062) scale(0.1 -0.1)">
      <defs>
       <path id="DejaVuSans-54" d="M -19 4666 
L 3928 4666 
L 3928 4134 
L 2272 4134 
L 2272 0 
L 1638 0 
L 1638 4134 
L -19 4134 
L -19 4666 
z
" transform="scale(0.015625)"/>
      </defs>
      <use xlink:href="#DejaVuSans-54"/>
      <use xlink:href="#DejaVuSans-72" x="46.333984"/>
      <use xlink:href="#DejaVuSans-61" x="87.447266"/>
      <use xlink:href="#DejaVuSans-69" x="148.726562"/>
      <use xlink:href="#DejaVuSans-6e" x="176.509766"/>
      <use xlink:href="#DejaVuSans-20" x="239.888672"/>
      <use xlink:href="#DejaVuSans-41" x="271.675781"/>
      <use xlink:href="#DejaVuSans-63" x="338.333984"/>
      <use xlink:href="#DejaVuSans-63" x="393.314453"/>
      <use xlink:href="#DejaVuSans-75" x="448.294922"/>
      <use xlink:href="#DejaVuSans-72" x="511.673828"/>
      <use xlink:href="#DejaVuSans-61" x="552.787109"/>
      <use xlink:href="#DejaVuSans-63" x="614.066406"/>
      <use xlink:href="#DejaVuSans-79" x="669.046875"/>
     </g>
    </g>
    <g id="line2d_23">
     <path d="M 253.799687 278.326188 
L 263.799688 278.326188 
L 273.799688 278.326188 
" style="fill: none; stroke: #ff7f0e; stroke-width: 1.5; stroke-linecap: square"/>
    </g>
    <g id="text_23">
     <!-- Validation Accuracy -->
     <g transform="translate(281.799688 281.826188) scale(0.1 -0.1)">
      <defs>
       <path id="DejaVuSans-56" d="M 1831 0 
L 50 4666 
L 709 4666 
L 2188 738 
L 3669 4666 
L 4325 4666 
L 2547 0 
L 1831 0 
z
" transform="scale(0.015625)"/>
       <path id="DejaVuSans-6c" d="M 603 4863 
L 1178 4863 
L 1178 0 
L 603 0 
L 603 4863 
z
" transform="scale(0.015625)"/>
       <path id="DejaVuSans-64" d="M 2906 2969 
L 2906 4863 
L 3481 4863 
L 3481 0 
L 2906 0 
L 2906 525 
Q 2725 213 2448 61 
Q 2172 -91 1784 -91 
Q 1150 -91 751 415 
Q 353 922 353 1747 
Q 353 2572 751 3078 
Q 1150 3584 1784 3584 
Q 2172 3584 2448 3432 
Q 2725 3281 2906 2969 
z
M 947 1747 
Q 947 1113 1208 752 
Q 1469 391 1925 391 
Q 2381 391 2643 752 
Q 2906 1113 2906 1747 
Q 2906 2381 2643 2742 
Q 2381 3103 1925 3103 
Q 1469 3103 1208 2742 
Q 947 2381 947 1747 
z
" transform="scale(0.015625)"/>
       <path id="DejaVuSans-74" d="M 1172 4494 
L 1172 3500 
L 2356 3500 
L 2356 3053 
L 1172 3053 
L 1172 1153 
Q 1172 725 1289 603 
Q 1406 481 1766 481 
L 2356 481 
L 2356 0 
L 1766 0 
Q 1100 0 847 248 
Q 594 497 594 1153 
L 594 3053 
L 172 3053 
L 172 3500 
L 594 3500 
L 594 4494 
L 1172 4494 
z
" transform="scale(0.015625)"/>
      </defs>
      <use xlink:href="#DejaVuSans-56"/>
      <use xlink:href="#DejaVuSans-61" x="60.658203"/>
      <use xlink:href="#DejaVuSans-6c" x="121.9375"/>
      <use xlink:href="#DejaVuSans-69" x="149.720703"/>
      <use xlink:href="#DejaVuSans-64" x="177.503906"/>
      <use xlink:href="#DejaVuSans-61" x="240.980469"/>
      <use xlink:href="#DejaVuSans-74" x="302.259766"/>
      <use xlink:href="#DejaVuSans-69" x="341.46875"/>
      <use xlink:href="#DejaVuSans-6f" x="369.251953"/>
      <use xlink:href="#DejaVuSans-6e" x="430.433594"/>
      <use xlink:href="#DejaVuSans-20" x="493.8125"/>
      <use xlink:href="#DejaVuSans-41" x="525.599609"/>
      <use xlink:href="#DejaVuSans-63" x="592.257812"/>
      <use xlink:href="#DejaVuSans-63" x="647.238281"/>
      <use xlink:href="#DejaVuSans-75" x="702.21875"/>
      <use xlink:href="#DejaVuSans-72" x="765.597656"/>
      <use xlink:href="#DejaVuSans-61" x="806.710938"/>
      <use xlink:href="#DejaVuSans-63" x="867.990234"/>
      <use xlink:href="#DejaVuSans-79" x="922.970703"/>
     </g>
    </g>
    <g id="line2d_24">
     <path d="M 253.799687 293.004312 
L 263.799688 293.004312 
L 273.799688 293.004312 
" style="fill: none; stroke: #2ca02c; stroke-width: 1.5; stroke-linecap: square"/>
    </g>
    <g id="text_24">
     <!-- SWA Validation Accuracy -->
     <g transform="translate(281.799688 296.504312) scale(0.1 -0.1)">
      <defs>
       <path id="DejaVuSans-53" d="M 3425 4513 
L 3425 3897 
Q 3066 4069 2747 4153 
Q 2428 4238 2131 4238 
Q 1616 4238 1336 4038 
Q 1056 3838 1056 3469 
Q 1056 3159 1242 3001 
Q 1428 2844 1947 2747 
L 2328 2669 
Q 3034 2534 3370 2195 
Q 3706 1856 3706 1288 
Q 3706 609 3251 259 
Q 2797 -91 1919 -91 
Q 1588 -91 1214 -16 
Q 841 59 441 206 
L 441 856 
Q 825 641 1194 531 
Q 1563 422 1919 422 
Q 2459 422 2753 634 
Q 3047 847 3047 1241 
Q 3047 1584 2836 1778 
Q 2625 1972 2144 2069 
L 1759 2144 
Q 1053 2284 737 2584 
Q 422 2884 422 3419 
Q 422 4038 858 4394 
Q 1294 4750 2059 4750 
Q 2388 4750 2728 4690 
Q 3069 4631 3425 4513 
z
" transform="scale(0.015625)"/>
       <path id="DejaVuSans-57" d="M 213 4666 
L 850 4666 
L 1831 722 
L 2809 4666 
L 3519 4666 
L 4500 722 
L 5478 4666 
L 6119 4666 
L 4947 0 
L 4153 0 
L 3169 4050 
L 2175 0 
L 1381 0 
L 213 4666 
z
" transform="scale(0.015625)"/>
      </defs>
      <use xlink:href="#DejaVuSans-53"/>
      <use xlink:href="#DejaVuSans-57" x="63.476562"/>
      <use xlink:href="#DejaVuSans-41" x="156.853516"/>
      <use xlink:href="#DejaVuSans-20" x="225.261719"/>
      <use xlink:href="#DejaVuSans-56" x="257.048828"/>
      <use xlink:href="#DejaVuSans-61" x="317.707031"/>
      <use xlink:href="#DejaVuSans-6c" x="378.986328"/>
      <use xlink:href="#DejaVuSans-69" x="406.769531"/>
      <use xlink:href="#DejaVuSans-64" x="434.552734"/>
      <use xlink:href="#DejaVuSans-61" x="498.029297"/>
      <use xlink:href="#DejaVuSans-74" x="559.308594"/>
      <use xlink:href="#DejaVuSans-69" x="598.517578"/>
      <use xlink:href="#DejaVuSans-6f" x="626.300781"/>
      <use xlink:href="#DejaVuSans-6e" x="687.482422"/>
      <use xlink:href="#DejaVuSans-20" x="750.861328"/>
      <use xlink:href="#DejaVuSans-41" x="782.648438"/>
      <use xlink:href="#DejaVuSans-63" x="849.306641"/>
      <use xlink:href="#DejaVuSans-63" x="904.287109"/>
      <use xlink:href="#DejaVuSans-75" x="959.267578"/>
      <use xlink:href="#DejaVuSans-72" x="1022.646484"/>
      <use xlink:href="#DejaVuSans-61" x="1063.759766"/>
      <use xlink:href="#DejaVuSans-63" x="1125.039062"/>
      <use xlink:href="#DejaVuSans-79" x="1180.019531"/>
     </g>
    </g>
   </g>
  </g>
 </g>
 <defs>
  <clipPath id="p3e8fa2d7aa">
   <rect x="57.6" y="41.472" width="357.12" height="266.112"/>
  </clipPath>
 </defs>
</svg>
