<?xml version="1.0" encoding="utf-8" standalone="no"?>
<!DOCTYPE svg PUBLIC "-//W3C//DTD SVG 1.1//EN"
  "http://www.w3.org/Graphics/SVG/1.1/DTD/svg11.dtd">
<svg xmlns:xlink="http://www.w3.org/1999/xlink" width="460.8pt" height="345.6pt" viewBox="0 0 460.8 345.6" xmlns="http://www.w3.org/2000/svg" version="1.1">
 <metadata>
  <rdf:RDF xmlns:dc="http://purl.org/dc/elements/1.1/" xmlns:cc="http://creativecommons.org/ns#" xmlns:rdf="http://www.w3.org/1999/02/22-rdf-syntax-ns#">
   <cc:Work>
    <dc:type rdf:resource="http://purl.org/dc/dcmitype/StillImage"/>
    <dc:date>2025-07-16T14:12:52.953476</dc:date>
    <dc:format>image/svg+xml</dc:format>
    <dc:creator>
     <cc:Agent>
      <dc:title>Matplotlib v3.9.1, https://matplotlib.org/</dc:title>
     </cc:Agent>
    </dc:creator>
   </cc:Work>
  </rdf:RDF>
 </metadata>
 <defs>
  <style type="text/css">*{stroke-linejoin: round; stroke-linecap: butt}</style>
 </defs>
 <g id="figure_1">
  <g id="patch_1">
   <path d="M 0 345.6 
L 460.8 345.6 
L 460.8 0 
L 0 0 
z
" style="fill: #ffffff"/>
  </g>
  <g id="axes_1">
   <g id="patch_2">
    <path d="M 57.6 307.584 
L 414.72 307.584 
L 414.72 41.472 
L 57.6 41.472 
z
" style="fill: #ffffff"/>
   </g>
   <g id="matplotlib.axis_1">
    <g id="xtick_1">
     <g id="line2d_1">
      <defs>
       <path id="mc5c0468adf" d="M 0 0 
L 0 3.5 
" style="stroke: #000000; stroke-width: 0.8"/>
      </defs>
      <g>
       <use xlink:href="#mc5c0468adf" x="73.832727" y="307.584" style="stroke: #000000; stroke-width: 0.8"/>
      </g>
     </g>
     <g id="text_1">
      <!-- 1 -->
      <g transform="translate(70.651477 322.182437) scale(0.1 -0.1)">
       <defs>
        <path id="DejaVuSans-31" d="M 794 531 
L 1825 531 
L 1825 4091 
L 703 3866 
L 703 4441 
L 1819 4666 
L 2450 4666 
L 2450 531 
L 3481 531 
L 3481 0 
L 794 0 
L 794 531 
z
" transform="scale(0.015625)"/>
       </defs>
       <use xlink:href="#DejaVuSans-31"/>
      </g>
     </g>
    </g>
    <g id="xtick_2">
     <g id="line2d_2">
      <g>
       <use xlink:href="#mc5c0468adf" x="109.664165" y="307.584" style="stroke: #000000; stroke-width: 0.8"/>
      </g>
     </g>
     <g id="text_2">
      <!-- 34 -->
      <g transform="translate(103.301665 322.182437) scale(0.1 -0.1)">
       <defs>
        <path id="DejaVuSans-33" d="M 2597 2516 
Q 3050 2419 3304 2112 
Q 3559 1806 3559 1356 
Q 3559 666 3084 287 
Q 2609 -91 1734 -91 
Q 1441 -91 1130 -33 
Q 819 25 488 141 
L 488 750 
Q 750 597 1062 519 
Q 1375 441 1716 441 
Q 2309 441 2620 675 
Q 2931 909 2931 1356 
Q 2931 1769 2642 2001 
Q 2353 2234 1838 2234 
L 1294 2234 
L 1294 2753 
L 1863 2753 
Q 2328 2753 2575 2939 
Q 2822 3125 2822 3475 
Q 2822 3834 2567 4026 
Q 2313 4219 1838 4219 
Q 1578 4219 1281 4162 
Q 984 4106 628 3988 
L 628 4550 
Q 988 4650 1302 4700 
Q 1616 4750 1894 4750 
Q 2613 4750 3031 4423 
Q 3450 4097 3450 3541 
Q 3450 3153 3228 2886 
Q 3006 2619 2597 2516 
z
" transform="scale(0.015625)"/>
        <path id="DejaVuSans-34" d="M 2419 4116 
L 825 1625 
L 2419 1625 
L 2419 4116 
z
M 2253 4666 
L 3047 4666 
L 3047 1625 
L 3713 1625 
L 3713 1100 
L 3047 1100 
L 3047 0 
L 2419 0 
L 2419 1100 
L 313 1100 
L 313 1709 
L 2253 4666 
z
" transform="scale(0.015625)"/>
       </defs>
       <use xlink:href="#DejaVuSans-33"/>
       <use xlink:href="#DejaVuSans-34" x="63.623047"/>
      </g>
     </g>
    </g>
    <g id="xtick_3">
     <g id="line2d_3">
      <g>
       <use xlink:href="#mc5c0468adf" x="145.495604" y="307.584" style="stroke: #000000; stroke-width: 0.8"/>
      </g>
     </g>
     <g id="text_3">
      <!-- 67 -->
      <g transform="translate(139.133104 322.182437) scale(0.1 -0.1)">
       <defs>
        <path id="DejaVuSans-36" d="M 2113 2584 
Q 1688 2584 1439 2293 
Q 1191 2003 1191 1497 
Q 1191 994 1439 701 
Q 1688 409 2113 409 
Q 2538 409 2786 701 
Q 3034 994 3034 1497 
Q 3034 2003 2786 2293 
Q 2538 2584 2113 2584 
z
M 3366 4563 
L 3366 3988 
Q 3128 4100 2886 4159 
Q 2644 4219 2406 4219 
Q 1781 4219 1451 3797 
Q 1122 3375 1075 2522 
Q 1259 2794 1537 2939 
Q 1816 3084 2150 3084 
Q 2853 3084 3261 2657 
Q 3669 2231 3669 1497 
Q 3669 778 3244 343 
Q 2819 -91 2113 -91 
Q 1303 -91 875 529 
Q 447 1150 447 2328 
Q 447 3434 972 4092 
Q 1497 4750 2381 4750 
Q 2619 4750 2861 4703 
Q 3103 4656 3366 4563 
z
" transform="scale(0.015625)"/>
        <path id="DejaVuSans-37" d="M 525 4666 
L 3525 4666 
L 3525 4397 
L 1831 0 
L 1172 0 
L 2766 4134 
L 525 4134 
L 525 4666 
z
" transform="scale(0.015625)"/>
       </defs>
       <use xlink:href="#DejaVuSans-36"/>
       <use xlink:href="#DejaVuSans-37" x="63.623047"/>
      </g>
     </g>
    </g>
    <g id="xtick_4">
     <g id="line2d_4">
      <g>
       <use xlink:href="#mc5c0468adf" x="181.327042" y="307.584" style="stroke: #000000; stroke-width: 0.8"/>
      </g>
     </g>
     <g id="text_4">
      <!-- 100 -->
      <g transform="translate(171.783292 322.182437) scale(0.1 -0.1)">
       <defs>
        <path id="DejaVuSans-30" d="M 2034 4250 
Q 1547 4250 1301 3770 
Q 1056 3291 1056 2328 
Q 1056 1369 1301 889 
Q 1547 409 2034 409 
Q 2525 409 2770 889 
Q 3016 1369 3016 2328 
Q 3016 3291 2770 3770 
Q 2525 4250 2034 4250 
z
M 2034 4750 
Q 2819 4750 3233 4129 
Q 3647 3509 3647 2328 
Q 3647 1150 3233 529 
Q 2819 -91 2034 -91 
Q 1250 -91 836 529 
Q 422 1150 422 2328 
Q 422 3509 836 4129 
Q 1250 4750 2034 4750 
z
" transform="scale(0.015625)"/>
       </defs>
       <use xlink:href="#DejaVuSans-31"/>
       <use xlink:href="#DejaVuSans-30" x="63.623047"/>
       <use xlink:href="#DejaVuSans-30" x="127.246094"/>
      </g>
     </g>
    </g>
    <g id="xtick_5">
     <g id="line2d_5">
      <g>
       <use xlink:href="#mc5c0468adf" x="217.15848" y="307.584" style="stroke: #000000; stroke-width: 0.8"/>
      </g>
     </g>
     <g id="text_5">
      <!-- 133 -->
      <g transform="translate(207.61473 322.182437) scale(0.1 -0.1)">
       <use xlink:href="#DejaVuSans-31"/>
       <use xlink:href="#DejaVuSans-33" x="63.623047"/>
       <use xlink:href="#DejaVuSans-33" x="127.246094"/>
      </g>
     </g>
    </g>
    <g id="xtick_6">
     <g id="line2d_6">
      <g>
       <use xlink:href="#mc5c0468adf" x="254.075719" y="307.584" style="stroke: #000000; stroke-width: 0.8"/>
      </g>
     </g>
     <g id="text_6">
      <!-- 167 -->
      <g transform="translate(244.531969 322.182437) scale(0.1 -0.1)">
       <use xlink:href="#DejaVuSans-31"/>
       <use xlink:href="#DejaVuSans-36" x="63.623047"/>
       <use xlink:href="#DejaVuSans-37" x="127.246094"/>
      </g>
     </g>
    </g>
    <g id="xtick_7">
     <g id="line2d_7">
      <g>
       <use xlink:href="#mc5c0468adf" x="289.907157" y="307.584" style="stroke: #000000; stroke-width: 0.8"/>
      </g>
     </g>
     <g id="text_7">
      <!-- 200 -->
      <g transform="translate(280.363407 322.182437) scale(0.1 -0.1)">
       <defs>
        <path id="DejaVuSans-32" d="M 1228 531 
L 3431 531 
L 3431 0 
L 469 0 
L 469 531 
Q 828 903 1448 1529 
Q 2069 2156 2228 2338 
Q 2531 2678 2651 2914 
Q 2772 3150 2772 3378 
Q 2772 3750 2511 3984 
Q 2250 4219 1831 4219 
Q 1534 4219 1204 4116 
Q 875 4013 500 3803 
L 500 4441 
Q 881 4594 1212 4672 
Q 1544 4750 1819 4750 
Q 2544 4750 2975 4387 
Q 3406 4025 3406 3419 
Q 3406 3131 3298 2873 
Q 3191 2616 2906 2266 
Q 2828 2175 2409 1742 
Q 1991 1309 1228 531 
z
" transform="scale(0.015625)"/>
       </defs>
       <use xlink:href="#DejaVuSans-32"/>
       <use xlink:href="#DejaVuSans-30" x="63.623047"/>
       <use xlink:href="#DejaVuSans-30" x="127.246094"/>
      </g>
     </g>
    </g>
    <g id="xtick_8">
     <g id="line2d_8">
      <g>
       <use xlink:href="#mc5c0468adf" x="325.738595" y="307.584" style="stroke: #000000; stroke-width: 0.8"/>
      </g>
     </g>
     <g id="text_8">
      <!-- 233 -->
      <g transform="translate(316.194845 322.182437) scale(0.1 -0.1)">
       <use xlink:href="#DejaVuSans-32"/>
       <use xlink:href="#DejaVuSans-33" x="63.623047"/>
       <use xlink:href="#DejaVuSans-33" x="127.246094"/>
      </g>
     </g>
    </g>
    <g id="xtick_9">
     <g id="line2d_9">
      <g>
       <use xlink:href="#mc5c0468adf" x="361.570033" y="307.584" style="stroke: #000000; stroke-width: 0.8"/>
      </g>
     </g>
     <g id="text_9">
      <!-- 266 -->
      <g transform="translate(352.026283 322.182437) scale(0.1 -0.1)">
       <use xlink:href="#DejaVuSans-32"/>
       <use xlink:href="#DejaVuSans-36" x="63.623047"/>
       <use xlink:href="#DejaVuSans-36" x="127.246094"/>
      </g>
     </g>
    </g>
    <g id="xtick_10">
     <g id="line2d_10">
      <g>
       <use xlink:href="#mc5c0468adf" x="398.487273" y="307.584" style="stroke: #000000; stroke-width: 0.8"/>
      </g>
     </g>
     <g id="text_10">
      <!-- 300 -->
      <g transform="translate(388.943523 322.182437) scale(0.1 -0.1)">
       <use xlink:href="#DejaVuSans-33"/>
       <use xlink:href="#DejaVuSans-30" x="63.623047"/>
       <use xlink:href="#DejaVuSans-30" x="127.246094"/>
      </g>
     </g>
    </g>
    <g id="text_11">
     <!-- Epochs -->
     <g transform="translate(218.244375 335.860562) scale(0.1 -0.1)">
      <defs>
       <path id="DejaVuSans-45" d="M 628 4666 
L 3578 4666 
L 3578 4134 
L 1259 4134 
L 1259 2753 
L 3481 2753 
L 3481 2222 
L 1259 2222 
L 1259 531 
L 3634 531 
L 3634 0 
L 628 0 
L 628 4666 
z
" transform="scale(0.015625)"/>
       <path id="DejaVuSans-70" d="M 1159 525 
L 1159 -1331 
L 581 -1331 
L 581 3500 
L 1159 3500 
L 1159 2969 
Q 1341 3281 1617 3432 
Q 1894 3584 2278 3584 
Q 2916 3584 3314 3078 
Q 3713 2572 3713 1747 
Q 3713 922 3314 415 
Q 2916 -91 2278 -91 
Q 1894 -91 1617 61 
Q 1341 213 1159 525 
z
M 3116 1747 
Q 3116 2381 2855 2742 
Q 2594 3103 2138 3103 
Q 1681 3103 1420 2742 
Q 1159 2381 1159 1747 
Q 1159 1113 1420 752 
Q 1681 391 2138 391 
Q 2594 391 2855 752 
Q 3116 1113 3116 1747 
z
" transform="scale(0.015625)"/>
       <path id="DejaVuSans-6f" d="M 1959 3097 
Q 1497 3097 1228 2736 
Q 959 2375 959 1747 
Q 959 1119 1226 758 
Q 1494 397 1959 397 
Q 2419 397 2687 759 
Q 2956 1122 2956 1747 
Q 2956 2369 2687 2733 
Q 2419 3097 1959 3097 
z
M 1959 3584 
Q 2709 3584 3137 3096 
Q 3566 2609 3566 1747 
Q 3566 888 3137 398 
Q 2709 -91 1959 -91 
Q 1206 -91 779 398 
Q 353 888 353 1747 
Q 353 2609 779 3096 
Q 1206 3584 1959 3584 
z
" transform="scale(0.015625)"/>
       <path id="DejaVuSans-63" d="M 3122 3366 
L 3122 2828 
Q 2878 2963 2633 3030 
Q 2388 3097 2138 3097 
Q 1578 3097 1268 2742 
Q 959 2388 959 1747 
Q 959 1106 1268 751 
Q 1578 397 2138 397 
Q 2388 397 2633 464 
Q 2878 531 3122 666 
L 3122 134 
Q 2881 22 2623 -34 
Q 2366 -91 2075 -91 
Q 1284 -91 818 406 
Q 353 903 353 1747 
Q 353 2603 823 3093 
Q 1294 3584 2113 3584 
Q 2378 3584 2631 3529 
Q 2884 3475 3122 3366 
z
" transform="scale(0.015625)"/>
       <path id="DejaVuSans-68" d="M 3513 2113 
L 3513 0 
L 2938 0 
L 2938 2094 
Q 2938 2591 2744 2837 
Q 2550 3084 2163 3084 
Q 1697 3084 1428 2787 
Q 1159 2491 1159 1978 
L 1159 0 
L 581 0 
L 581 4863 
L 1159 4863 
L 1159 2956 
Q 1366 3272 1645 3428 
Q 1925 3584 2291 3584 
Q 2894 3584 3203 3211 
Q 3513 2838 3513 2113 
z
" transform="scale(0.015625)"/>
       <path id="DejaVuSans-73" d="M 2834 3397 
L 2834 2853 
Q 2591 2978 2328 3040 
Q 2066 3103 1784 3103 
Q 1356 3103 1142 2972 
Q 928 2841 928 2578 
Q 928 2378 1081 2264 
Q 1234 2150 1697 2047 
L 1894 2003 
Q 2506 1872 2764 1633 
Q 3022 1394 3022 966 
Q 3022 478 2636 193 
Q 2250 -91 1575 -91 
Q 1294 -91 989 -36 
Q 684 19 347 128 
L 347 722 
Q 666 556 975 473 
Q 1284 391 1588 391 
Q 1994 391 2212 530 
Q 2431 669 2431 922 
Q 2431 1156 2273 1281 
Q 2116 1406 1581 1522 
L 1381 1569 
Q 847 1681 609 1914 
Q 372 2147 372 2553 
Q 372 3047 722 3315 
Q 1072 3584 1716 3584 
Q 2034 3584 2315 3537 
Q 2597 3491 2834 3397 
z
" transform="scale(0.015625)"/>
      </defs>
      <use xlink:href="#DejaVuSans-45"/>
      <use xlink:href="#DejaVuSans-70" x="63.183594"/>
      <use xlink:href="#DejaVuSans-6f" x="126.660156"/>
      <use xlink:href="#DejaVuSans-63" x="187.841797"/>
      <use xlink:href="#DejaVuSans-68" x="242.822266"/>
      <use xlink:href="#DejaVuSans-73" x="306.201172"/>
     </g>
    </g>
   </g>
   <g id="matplotlib.axis_2">
    <g id="ytick_1">
     <g id="line2d_11">
      <defs>
       <path id="m39ac08676a" d="M 0 0 
L -3.5 0 
" style="stroke: #000000; stroke-width: 0.8"/>
      </defs>
      <g>
       <use xlink:href="#m39ac08676a" x="57.6" y="288.234721" style="stroke: #000000; stroke-width: 0.8"/>
      </g>
     </g>
     <g id="text_12">
      <!-- 10 -->
      <g transform="translate(37.875 292.03394) scale(0.1 -0.1)">
       <use xlink:href="#DejaVuSans-31"/>
       <use xlink:href="#DejaVuSans-30" x="63.623047"/>
      </g>
     </g>
    </g>
    <g id="ytick_2">
     <g id="line2d_12">
      <g>
       <use xlink:href="#m39ac08676a" x="57.6" y="257.369705" style="stroke: #000000; stroke-width: 0.8"/>
      </g>
     </g>
     <g id="text_13">
      <!-- 20 -->
      <g transform="translate(37.875 261.168923) scale(0.1 -0.1)">
       <use xlink:href="#DejaVuSans-32"/>
       <use xlink:href="#DejaVuSans-30" x="63.623047"/>
      </g>
     </g>
    </g>
    <g id="ytick_3">
     <g id="line2d_13">
      <g>
       <use xlink:href="#m39ac08676a" x="57.6" y="226.504688" style="stroke: #000000; stroke-width: 0.8"/>
      </g>
     </g>
     <g id="text_14">
      <!-- 30 -->
      <g transform="translate(37.875 230.303907) scale(0.1 -0.1)">
       <use xlink:href="#DejaVuSans-33"/>
       <use xlink:href="#DejaVuSans-30" x="63.623047"/>
      </g>
     </g>
    </g>
    <g id="ytick_4">
     <g id="line2d_14">
      <g>
       <use xlink:href="#m39ac08676a" x="57.6" y="195.639671" style="stroke: #000000; stroke-width: 0.8"/>
      </g>
     </g>
     <g id="text_15">
      <!-- 40 -->
      <g transform="translate(37.875 199.43889) scale(0.1 -0.1)">
       <use xlink:href="#DejaVuSans-34"/>
       <use xlink:href="#DejaVuSans-30" x="63.623047"/>
      </g>
     </g>
    </g>
    <g id="ytick_5">
     <g id="line2d_15">
      <g>
       <use xlink:href="#m39ac08676a" x="57.6" y="164.774655" style="stroke: #000000; stroke-width: 0.8"/>
      </g>
     </g>
     <g id="text_16">
      <!-- 50 -->
      <g transform="translate(37.875 168.573874) scale(0.1 -0.1)">
       <defs>
        <path id="DejaVuSans-35" d="M 691 4666 
L 3169 4666 
L 3169 4134 
L 1269 4134 
L 1269 2991 
Q 1406 3038 1543 3061 
Q 1681 3084 1819 3084 
Q 2600 3084 3056 2656 
Q 3513 2228 3513 1497 
Q 3513 744 3044 326 
Q 2575 -91 1722 -91 
Q 1428 -91 1123 -41 
Q 819 9 494 109 
L 494 744 
Q 775 591 1075 516 
Q 1375 441 1709 441 
Q 2250 441 2565 725 
Q 2881 1009 2881 1497 
Q 2881 1984 2565 2268 
Q 2250 2553 1709 2553 
Q 1456 2553 1204 2497 
Q 953 2441 691 2322 
L 691 4666 
z
" transform="scale(0.015625)"/>
       </defs>
       <use xlink:href="#DejaVuSans-35"/>
       <use xlink:href="#DejaVuSans-30" x="63.623047"/>
      </g>
     </g>
    </g>
    <g id="ytick_6">
     <g id="line2d_16">
      <g>
       <use xlink:href="#m39ac08676a" x="57.6" y="133.909638" style="stroke: #000000; stroke-width: 0.8"/>
      </g>
     </g>
     <g id="text_17">
      <!-- 60 -->
      <g transform="translate(37.875 137.708857) scale(0.1 -0.1)">
       <use xlink:href="#DejaVuSans-36"/>
       <use xlink:href="#DejaVuSans-30" x="63.623047"/>
      </g>
     </g>
    </g>
    <g id="ytick_7">
     <g id="line2d_17">
      <g>
       <use xlink:href="#m39ac08676a" x="57.6" y="103.044622" style="stroke: #000000; stroke-width: 0.8"/>
      </g>
     </g>
     <g id="text_18">
      <!-- 70 -->
      <g transform="translate(37.875 106.84384) scale(0.1 -0.1)">
       <use xlink:href="#DejaVuSans-37"/>
       <use xlink:href="#DejaVuSans-30" x="63.623047"/>
      </g>
     </g>
    </g>
    <g id="ytick_8">
     <g id="line2d_18">
      <g>
       <use xlink:href="#m39ac08676a" x="57.6" y="72.179605" style="stroke: #000000; stroke-width: 0.8"/>
      </g>
     </g>
     <g id="text_19">
      <!-- 80 -->
      <g transform="translate(37.875 75.978824) scale(0.1 -0.1)">
       <defs>
        <path id="DejaVuSans-38" d="M 2034 2216 
Q 1584 2216 1326 1975 
Q 1069 1734 1069 1313 
Q 1069 891 1326 650 
Q 1584 409 2034 409 
Q 2484 409 2743 651 
Q 3003 894 3003 1313 
Q 3003 1734 2745 1975 
Q 2488 2216 2034 2216 
z
M 1403 2484 
Q 997 2584 770 2862 
Q 544 3141 544 3541 
Q 544 4100 942 4425 
Q 1341 4750 2034 4750 
Q 2731 4750 3128 4425 
Q 3525 4100 3525 3541 
Q 3525 3141 3298 2862 
Q 3072 2584 2669 2484 
Q 3125 2378 3379 2068 
Q 3634 1759 3634 1313 
Q 3634 634 3220 271 
Q 2806 -91 2034 -91 
Q 1263 -91 848 271 
Q 434 634 434 1313 
Q 434 1759 690 2068 
Q 947 2378 1403 2484 
z
M 1172 3481 
Q 1172 3119 1398 2916 
Q 1625 2713 2034 2713 
Q 2441 2713 2670 2916 
Q 2900 3119 2900 3481 
Q 2900 3844 2670 4047 
Q 2441 4250 2034 4250 
Q 1625 4250 1398 4047 
Q 1172 3844 1172 3481 
z
" transform="scale(0.015625)"/>
       </defs>
       <use xlink:href="#DejaVuSans-38"/>
       <use xlink:href="#DejaVuSans-30" x="63.623047"/>
      </g>
     </g>
    </g>
    <g id="text_20">
     <!-- Accuracy -->
     <g transform="translate(31.795312 197.356125) rotate(-90) scale(0.1 -0.1)">
      <defs>
       <path id="DejaVuSans-41" d="M 2188 4044 
L 1331 1722 
L 3047 1722 
L 2188 4044 
z
M 1831 4666 
L 2547 4666 
L 4325 0 
L 3669 0 
L 3244 1197 
L 1141 1197 
L 716 0 
L 50 0 
L 1831 4666 
z
" transform="scale(0.015625)"/>
       <path id="DejaVuSans-75" d="M 544 1381 
L 544 3500 
L 1119 3500 
L 1119 1403 
Q 1119 906 1312 657 
Q 1506 409 1894 409 
Q 2359 409 2629 706 
Q 2900 1003 2900 1516 
L 2900 3500 
L 3475 3500 
L 3475 0 
L 2900 0 
L 2900 538 
Q 2691 219 2414 64 
Q 2138 -91 1772 -91 
Q 1169 -91 856 284 
Q 544 659 544 1381 
z
M 1991 3584 
L 1991 3584 
z
" transform="scale(0.015625)"/>
       <path id="DejaVuSans-72" d="M 2631 2963 
Q 2534 3019 2420 3045 
Q 2306 3072 2169 3072 
Q 1681 3072 1420 2755 
Q 1159 2438 1159 1844 
L 1159 0 
L 581 0 
L 581 3500 
L 1159 3500 
L 1159 2956 
Q 1341 3275 1631 3429 
Q 1922 3584 2338 3584 
Q 2397 3584 2469 3576 
Q 2541 3569 2628 3553 
L 2631 2963 
z
" transform="scale(0.015625)"/>
       <path id="DejaVuSans-61" d="M 2194 1759 
Q 1497 1759 1228 1600 
Q 959 1441 959 1056 
Q 959 750 1161 570 
Q 1363 391 1709 391 
Q 2188 391 2477 730 
Q 2766 1069 2766 1631 
L 2766 1759 
L 2194 1759 
z
M 3341 1997 
L 3341 0 
L 2766 0 
L 2766 531 
Q 2569 213 2275 61 
Q 1981 -91 1556 -91 
Q 1019 -91 701 211 
Q 384 513 384 1019 
Q 384 1609 779 1909 
Q 1175 2209 1959 2209 
L 2766 2209 
L 2766 2266 
Q 2766 2663 2505 2880 
Q 2244 3097 1772 3097 
Q 1472 3097 1187 3025 
Q 903 2953 641 2809 
L 641 3341 
Q 956 3463 1253 3523 
Q 1550 3584 1831 3584 
Q 2591 3584 2966 3190 
Q 3341 2797 3341 1997 
z
" transform="scale(0.015625)"/>
       <path id="DejaVuSans-79" d="M 2059 -325 
Q 1816 -950 1584 -1140 
Q 1353 -1331 966 -1331 
L 506 -1331 
L 506 -850 
L 844 -850 
Q 1081 -850 1212 -737 
Q 1344 -625 1503 -206 
L 1606 56 
L 191 3500 
L 800 3500 
L 1894 763 
L 2988 3500 
L 3597 3500 
L 2059 -325 
z
" transform="scale(0.015625)"/>
      </defs>
      <use xlink:href="#DejaVuSans-41"/>
      <use xlink:href="#DejaVuSans-63" x="66.658203"/>
      <use xlink:href="#DejaVuSans-63" x="121.638672"/>
      <use xlink:href="#DejaVuSans-75" x="176.619141"/>
      <use xlink:href="#DejaVuSans-72" x="239.998047"/>
      <use xlink:href="#DejaVuSans-61" x="281.111328"/>
      <use xlink:href="#DejaVuSans-63" x="342.390625"/>
      <use xlink:href="#DejaVuSans-79" x="397.371094"/>
     </g>
    </g>
   </g>
   <g id="line2d_19">
    <path d="M 73.832727 295.488 
L 76.00433 225.881215 
L 77.090131 201.670696 
L 78.175932 185.040625 
L 79.261733 173.416859 
L 80.347534 165.645048 
L 81.433335 156.052201 
L 82.519137 149.08288 
L 83.604938 145.206234 
L 84.690739 138.656678 
L 85.77654 134.144212 
L 86.862341 128.928024 
L 87.948142 126.792165 
L 89.033943 121.606843 
L 90.119745 120.489529 
L 92.291347 113.902934 
L 93.377148 113.841204 
L 94.462949 111.588058 
L 95.54875 139.292497 
L 96.634552 140.712288 
L 97.720353 136.05167 
L 99.891955 133.465182 
L 100.977756 129.773726 
L 102.063557 128.952717 
L 103.149358 125.989675 
L 104.23516 124.878534 
L 105.320961 122.063645 
L 106.406762 120.063592 
L 107.492563 117.180799 
L 108.578364 116.094351 
L 109.664165 113.106617 
L 110.749967 110.588032 
L 111.835768 110.705319 
L 114.00737 106.180507 
L 115.093171 104.538488 
L 116.178972 103.742171 
L 119.436376 97.038289 
L 120.522177 97.53213 
L 121.607978 94.59378 
L 122.693779 93.038183 
L 123.77958 92.173963 
L 124.865382 89.673896 
L 125.951183 89.198575 
L 127.036984 87.223214 
L 128.122785 85.4886 
L 129.208586 84.716975 
L 130.294387 83.383606 
L 132.46599 81.926777 
L 133.551791 82.420618 
L 134.637592 82.192216 
L 135.723393 79.710669 
L 136.809194 81.402072 
L 137.894995 79.803264 
L 138.980797 106.513849 
L 140.066598 109.594178 
L 141.152399 110.248516 
L 142.2382 109.162068 
L 143.324001 108.69292 
L 144.409802 108.42748 
L 145.495604 108.785515 
L 146.581405 107.044728 
L 147.667206 106.717559 
L 148.753007 107.06942 
L 150.924609 103.155736 
L 152.01041 104.334779 
L 153.096212 101.853232 
L 154.182013 100.137137 
L 155.267814 100.519863 
L 156.353615 100.20504 
L 157.439416 98.612405 
L 158.525217 98.27289 
L 159.611019 99.692681 
L 160.69682 95.637018 
L 161.782621 96.15555 
L 162.868422 95.14935 
L 163.954223 94.822181 
L 165.040024 93.85302 
L 166.125825 93.433255 
L 167.211627 93.248065 
L 168.297428 92.007292 
L 169.383229 92.778917 
L 170.46903 90.322062 
L 171.554831 89.852913 
L 172.640632 89.124499 
L 173.726434 87.309636 
L 174.812235 88.062743 
L 175.898036 87.772611 
L 176.983837 86.704682 
L 178.069638 84.593515 
L 179.155439 83.49472 
L 180.24124 84.179923 
L 181.327042 84.062636 
L 182.412843 82.210735 
L 183.498644 80.772426 
L 184.584445 80.692177 
L 185.670246 79.969935 
L 186.756047 78.692124 
L 187.841849 77.957536 
L 188.92765 78.229148 
L 190.013451 77.45135 
L 191.099252 75.630314 
L 192.185053 74.321637 
L 194.356656 74.037679 
L 195.442457 72.549985 
L 196.528258 72.617888 
L 198.69986 70.111649 
L 199.785661 70.778333 
L 200.871462 70.494375 
L 201.957264 69.14866 
L 203.043065 67.549853 
L 204.128866 66.691805 
L 205.214667 67.086877 
L 206.300468 65.852277 
L 208.472071 64.278161 
L 209.557872 65.22263 
L 210.643673 64.821385 
L 211.729474 63.074425 
L 212.815275 63.734936 
L 213.901076 63.22875 
L 214.986877 63.809013 
L 216.072679 63.648514 
L 217.15848 60.92622 
L 218.244281 62.142302 
L 219.330082 63.136155 
L 220.415883 62.537374 
L 221.501684 62.142302 
L 222.587486 61.444752 
L 224.759088 61.629942 
L 225.844889 89.575128 
L 226.93069 94.59378 
L 228.016491 95.637018 
L 229.102292 96.945694 
L 230.188094 94.766624 
L 232.359696 95.069101 
L 233.445497 95.488866 
L 234.531298 95.050582 
L 235.617099 94.951814 
L 236.702901 95.27281 
L 237.788702 94.198708 
L 238.874503 93.519677 
L 239.960304 94.816008 
L 241.046105 94.396244 
L 242.131906 93.630792 
L 243.217708 93.630792 
L 244.303509 93.223373 
L 245.38931 92.161617 
L 246.475111 92.285077 
L 247.560912 92.29125 
L 248.646713 92.556689 
L 250.818316 90.680096 
L 251.904117 90.525771 
L 252.989918 90.902324 
L 254.075719 91.927043 
L 255.16152 90.710961 
L 256.247321 88.704735 
L 257.333123 90.803556 
L 258.418924 89.038077 
L 259.504725 87.79113 
L 260.590526 89.322035 
L 261.676327 89.47636 
L 263.847929 87.630632 
L 264.933731 87.019505 
L 266.019532 87.389885 
L 268.191134 85.482427 
L 269.276935 86.056516 
L 270.362736 85.754039 
L 271.448538 86.179977 
L 272.534339 85.741693 
L 273.62014 85.963921 
L 274.705941 84.840435 
L 275.791742 84.000906 
L 276.877543 85.352794 
L 277.963344 85.741693 
L 279.049146 83.204589 
L 280.134947 83.136686 
L 281.220748 82.525559 
L 282.306549 83.179897 
L 283.39235 82.377406 
L 284.478151 82.858901 
L 285.563953 81.68603 
L 286.649754 81.951469 
L 288.821356 80.204509 
L 289.907157 81.105768 
L 290.992958 79.618074 
L 292.07876 81.661338 
L 293.164561 79.241521 
L 294.250362 79.241521 
L 295.336163 77.951363 
L 296.421964 78.488414 
L 297.507765 76.976029 
L 298.593566 77.704443 
L 299.679368 76.81553 
L 300.765169 77.846422 
L 301.85097 76.976029 
L 302.936771 77.358755 
L 304.022572 76.105635 
L 305.108373 75.389567 
L 306.194175 76.179711 
L 307.279976 73.593223 
L 308.365777 75.050052 
L 309.451578 74.827823 
L 310.537379 73.52532 
L 311.62318 73.445071 
L 312.708981 74.482135 
L 313.794783 73.21667 
L 314.880584 73.315438 
L 315.966385 71.574651 
L 317.052186 70.852409 
L 318.137987 71.71663 
L 319.223788 70.605489 
L 320.30959 70.877101 
L 321.395391 69.389408 
L 322.481192 70.414126 
L 323.566993 69.370888 
L 324.652794 68.056039 
L 325.738595 67.673313 
L 326.824396 68.006655 
L 327.910198 68.574571 
L 328.995999 67.475776 
L 330.0818 67.481949 
L 331.167601 66.074505 
L 332.253402 65.765855 
L 333.339203 66.117716 
L 334.425005 64.506562 
L 335.510806 64.710271 
L 336.596607 63.86457 
L 337.682408 64.383102 
L 338.768209 63.364556 
L 339.85401 63.944819 
L 340.939811 61.85217 
L 342.025613 61.858343 
L 343.111414 61.123756 
L 344.197215 60.024961 
L 345.283016 60.994123 
L 346.368817 60.932393 
L 347.454618 58.327386 
L 348.54042 59.771868 
L 349.626221 60.339785 
L 350.712022 59.111357 
L 351.797823 58.234791 
L 352.883624 57.629836 
L 353.969425 57.858237 
L 355.055227 57.833545 
L 357.226829 55.06804 
L 358.31263 56.586599 
L 359.398431 56.574253 
L 360.484232 55.00631 
L 361.570033 54.487777 
L 362.655835 54.611238 
L 363.741636 54.858158 
L 365.913238 54.172954 
L 366.999039 53.944553 
L 368.08484 53.568 
L 369.170642 55.142116 
L 370.256443 55.518669 
L 371.342244 56.086585 
L 372.428045 57.321186 
L 373.513846 58.018735 
L 374.599647 57.938486 
L 375.685448 58.259483 
L 376.77125 57.345878 
L 377.857051 56.852038 
L 378.942852 57.358224 
L 380.028653 57.203899 
L 381.114454 58.247137 
L 382.200255 57.963178 
L 384.371858 57.037228 
L 385.457659 56.790308 
L 387.629261 58.598998 
L 388.715062 58.494057 
L 389.800863 57.327359 
L 390.886665 57.580452 
L 391.972466 57.611317 
L 393.058267 57.216245 
L 394.144068 57.210072 
L 395.229869 56.747097 
L 396.31567 57.203899 
L 397.401472 56.747097 
L 398.487273 57.524895 
L 398.487273 57.524895 
" clip-path="url(#pc170d54443)" style="fill: none; stroke: #1f77b4; stroke-width: 1.5; stroke-linecap: square"/>
   </g>
   <g id="line2d_20">
    <path d="M 73.832727 271.289827 
L 74.918528 241.381626 
L 76.00433 227.060258 
L 77.090131 195.732266 
L 78.175932 185.207296 
L 81.433335 158.323866 
L 82.519137 155.052175 
L 83.604938 144.434609 
L 84.690739 140.298697 
L 86.862341 130.020646 
L 87.948142 125.792139 
L 89.033943 123.755048 
L 91.205546 117.551179 
L 92.291347 116.162254 
L 94.462949 115.143708 
L 95.54875 150.082907 
L 96.634552 144.743259 
L 97.720353 143.693848 
L 98.806154 139.866586 
L 99.891955 138.385066 
L 100.977756 135.638079 
L 102.063557 134.310883 
L 103.149358 131.316977 
L 104.23516 126.502034 
L 105.320961 127.21193 
L 106.406762 127.1502 
L 107.492563 122.427852 
L 109.664165 116.656094 
L 110.749967 118.10675 
L 111.835768 119.187025 
L 112.921569 110.421361 
L 114.00737 109.92752 
L 115.093171 107.674374 
L 116.178972 107.766969 
L 117.264773 105.668148 
L 118.350575 102.982892 
L 119.436376 101.069261 
L 120.522177 101.254451 
L 121.607978 99.803795 
L 122.693779 96.377778 
L 123.77958 96.408643 
L 124.865382 94.834527 
L 125.951183 92.457921 
L 127.036984 94.896257 
L 128.122785 91.22332 
L 129.208586 90.05045 
L 130.294387 89.92699 
L 131.380189 88.414604 
L 133.551791 87.920763 
L 134.637592 88.229414 
L 135.723393 87.519518 
L 137.894995 87.272598 
L 138.980797 120.112976 
L 140.066598 116.007929 
L 141.152399 120.884601 
L 142.2382 115.112843 
L 143.324001 113.754782 
L 144.409802 118.29194 
L 145.495604 115.699278 
L 146.581405 115.298033 
L 147.667206 112.983157 
L 148.753007 112.952292 
L 149.838808 106.902749 
L 150.924609 107.365724 
L 152.01041 107.643509 
L 153.096212 108.137349 
L 154.182013 109.55714 
L 156.353615 103.291542 
L 157.439416 106.779289 
L 158.525217 107.458319 
L 159.611019 103.569327 
L 160.69682 103.538462 
L 161.782621 104.557007 
L 162.868422 104.155762 
L 163.954223 102.612511 
L 165.040024 100.297635 
L 166.125825 99.309955 
L 167.211627 98.476599 
L 168.297428 99.21736 
L 169.383229 99.34082 
L 170.46903 97.396324 
L 171.554831 96.346913 
L 172.640632 97.550649 
L 173.726434 96.624698 
L 174.812235 95.451828 
L 175.898036 94.649337 
L 176.983837 93.229546 
L 178.069638 90.698615 
L 179.155439 90.389965 
L 180.24124 91.717161 
L 181.327042 89.186229 
L 182.412843 91.717161 
L 183.498644 91.809756 
L 184.584445 88.414604 
L 185.670246 88.167684 
L 186.756047 87.180003 
L 187.841849 87.797303 
L 188.92765 87.396058 
L 191.099252 85.667617 
L 192.185053 86.130592 
L 193.270854 84.957722 
L 194.356656 84.679937 
L 195.442457 84.247826 
L 196.528258 81.408245 
L 197.614059 80.914405 
L 198.69986 80.729215 
L 199.785661 80.142779 
L 200.871462 79.957589 
L 201.957264 79.185964 
L 203.043065 78.722989 
L 204.128866 78.630393 
L 205.214667 77.982228 
L 206.300468 77.611848 
L 207.386269 77.457523 
L 208.472071 77.580983 
L 209.557872 76.840223 
L 210.643673 76.531572 
L 211.729474 76.408112 
L 212.815275 75.266107 
L 213.901076 75.296972 
L 214.986877 76.130327 
L 216.072679 75.080917 
L 217.15848 75.389567 
L 218.244281 74.864861 
L 219.330082 74.617941 
L 220.415883 74.741401 
L 221.501684 74.340156 
L 222.587486 74.803131 
L 224.759088 74.309291 
L 225.844889 101.130991 
L 226.93069 106.378043 
L 228.016491 108.168214 
L 229.102292 111.439906 
L 230.188094 106.902749 
L 231.273895 106.995344 
L 232.359696 110.976931 
L 233.445497 102.427321 
L 234.531298 107.396589 
L 235.617099 103.538462 
L 236.702901 103.723652 
L 237.788702 104.680467 
L 238.874503 106.347178 
L 239.960304 106.779289 
L 241.046105 103.353272 
L 242.131906 100.791475 
L 243.217708 101.223586 
L 244.303509 102.766836 
L 245.38931 105.143443 
L 246.475111 101.254451 
L 247.560912 101.161856 
L 248.646713 99.7112 
L 249.732514 99.77293 
L 251.904117 100.9458 
L 252.989918 99.865525 
L 254.075719 100.421095 
L 255.16152 98.476599 
L 256.247321 98.816114 
L 257.333123 99.742065 
L 258.418924 96.223453 
L 259.504725 99.34082 
L 260.590526 97.488919 
L 261.676327 102.674241 
L 262.762128 97.211133 
L 263.847929 99.032169 
L 264.933731 98.044489 
L 266.019532 94.309822 
L 267.105333 99.155629 
L 269.276935 95.976533 
L 270.362736 93.785117 
L 271.448538 96.285183 
L 272.534339 96.007398 
L 273.62014 96.223453 
L 274.705941 96.007398 
L 275.791742 93.445601 
L 276.877543 92.982626 
L 277.963344 95.050582 
L 279.049146 92.890031 
L 281.220748 92.920896 
L 282.306549 93.383871 
L 283.39235 91.377645 
L 284.478151 91.624565 
L 285.563953 89.896125 
L 286.649754 88.846714 
L 287.735555 92.303596 
L 288.821356 90.42083 
L 289.907157 93.630792 
L 290.992958 90.698615 
L 292.07876 88.383739 
L 293.164561 87.951628 
L 294.250362 87.920763 
L 295.336163 89.896125 
L 296.421964 88.723254 
L 297.507765 91.007265 
L 298.593566 88.322009 
L 299.679368 88.260279 
L 300.765169 89.402284 
L 301.85097 88.877579 
L 302.936771 87.334328 
L 304.022572 84.000906 
L 305.108373 84.525612 
L 306.194175 86.439243 
L 307.279976 85.976267 
L 309.451578 83.352741 
L 310.537379 84.155231 
L 311.62318 85.204642 
L 312.708981 84.000906 
L 313.794783 83.939176 
L 314.880584 86.254053 
L 315.966385 83.352741 
L 317.052186 83.414471 
L 318.137987 81.778625 
L 319.223788 82.797171 
L 320.30959 82.149005 
L 321.395391 82.36506 
L 322.481192 78.476068 
L 323.566993 81.68603 
L 324.652794 80.729215 
L 325.738595 80.482294 
L 326.824396 79.000774 
L 327.910198 80.389699 
L 328.995999 79.525479 
L 330.0818 79.618074 
L 331.167601 80.544024 
L 332.253402 79.710669 
L 333.339203 78.167418 
L 334.425005 79.648939 
L 335.510806 77.735308 
L 336.596607 78.568663 
L 337.682408 78.969909 
L 338.768209 76.408112 
L 339.85401 75.852542 
L 340.939811 76.624167 
L 342.025613 76.562437 
L 343.111414 74.864861 
L 344.197215 74.247561 
L 345.283016 75.080917 
L 346.368817 75.389567 
L 347.454618 74.340156 
L 348.54042 72.982095 
L 349.626221 73.846316 
L 350.712022 75.296972 
L 351.797823 73.753721 
L 352.883624 72.8895 
L 353.969425 73.290746 
L 355.055227 72.39566 
L 356.141028 72.117875 
L 357.226829 72.08701 
L 358.31263 70.142514 
L 359.398431 70.142514 
L 360.484232 72.056145 
L 361.570033 72.426525 
L 362.655835 71.037599 
L 363.741636 69.401754 
L 364.827437 70.667219 
L 365.913238 70.543759 
L 366.999039 69.154833 
L 368.08484 70.327704 
L 369.170642 71.222789 
L 370.256443 71.809225 
L 371.342244 72.117875 
L 372.428045 72.8895 
L 373.513846 76.130327 
L 375.685448 74.432751 
L 376.77125 73.01296 
L 377.857051 73.445071 
L 378.942852 74.463616 
L 380.028653 75.019187 
L 381.114454 72.982095 
L 382.200255 74.463616 
L 383.286057 75.142647 
L 384.371858 72.982095 
L 385.457659 74.494481 
L 386.54346 75.543892 
L 387.629261 74.710536 
L 388.715062 75.142647 
L 389.800863 73.537666 
L 390.886665 73.938911 
L 391.972466 74.772266 
L 393.058267 73.969776 
L 394.144068 74.216696 
L 395.229869 74.000641 
L 396.31567 76.500707 
L 397.401472 73.815451 
L 398.487273 73.568531 
L 398.487273 73.568531 
" clip-path="url(#pc170d54443)" style="fill: none; stroke: #ff7f0e; stroke-width: 1.5; stroke-linecap: square"/>
   </g>
   <g id="line2d_21">
    <path d="M 73.832727 276.016496 
L 74.918528 254.900503 
L 76.00433 241.596755 
L 77.090131 220.927688 
L 78.175932 206.495515 
L 79.261733 204.558735 
L 80.347534 196.001409 
L 81.433335 189.849703 
L 82.519137 189.274996 
L 84.690739 180.484022 
L 85.77654 173.587234 
L 86.862341 167.669485 
L 87.948142 166.413587 
L 90.119745 159.155061 
L 91.205546 158.81462 
L 92.291347 156.579376 
L 93.377148 156.324122 
L 94.462949 156.217638 
L 95.54875 192.510576 
L 96.634552 181.909986 
L 97.720353 186.231088 
L 98.806154 183.847074 
L 99.891955 177.95093 
L 100.977756 177.801852 
L 102.063557 173.161297 
L 103.149358 174.353304 
L 104.23516 169.053163 
L 105.320961 171.841818 
L 106.406762 168.116719 
L 107.492563 160.070518 
L 108.578364 163.390976 
L 109.664165 163.710429 
L 110.749967 162.582313 
L 111.835768 162.305453 
L 112.921569 156.984016 
L 114.00737 155.472556 
L 115.093171 150.278591 
L 116.178972 155.216994 
L 117.264773 148.15014 
L 118.350575 148.405702 
L 120.522177 146.553801 
L 121.607978 145.021044 
L 122.693779 144.063303 
L 123.77958 143.488287 
L 124.865382 143.062659 
L 125.951183 138.5076 
L 127.036984 140.742536 
L 128.122785 137.251702 
L 129.208586 138.358522 
L 130.294387 138.23074 
L 131.380189 138.528897 
L 132.46599 136.378839 
L 133.551791 134.676017 
L 134.637592 135.293317 
L 135.723393 135.463383 
L 136.809194 134.909973 
L 137.894995 135.82543 
L 138.980797 166.605259 
L 140.066598 164.05087 
L 141.152399 167.563 
L 142.2382 160.645224 
L 143.324001 157.430941 
L 144.409802 165.945365 
L 146.581405 157.068895 
L 147.667206 159.751065 
L 148.753007 159.43192 
L 149.838808 154.876553 
L 150.924609 156.175044 
L 152.01041 154.024987 
L 153.096212 154.770068 
L 154.182013 152.641617 
L 155.267814 156.68586 
L 156.353615 146.958133 
L 157.439416 154.365737 
L 158.525217 156.302825 
L 159.611019 151.215344 
L 160.69682 152.918167 
L 161.782621 147.788402 
L 162.868422 151.321829 
L 163.954223 148.916518 
L 165.040024 150.49156 
L 166.125825 150.789716 
L 167.211627 148.022358 
L 168.297428 148.341811 
L 169.383229 145.042341 
L 170.46903 142.63703 
L 171.554831 143.935522 
L 172.640632 145.53186 
L 173.726434 146.255645 
L 174.812235 141.572804 
L 176.983837 142.658327 
L 178.069638 139.401451 
L 179.155439 137.953881 
L 180.24124 140.189126 
L 181.327042 138.656369 
L 182.412843 142.487952 
L 183.498644 141.189461 
L 184.584445 136.740577 
L 185.670246 139.209779 
L 186.756047 136.123277 
L 187.841849 136.44273 
L 188.92765 134.122607 
L 190.013451 133.632779 
L 191.099252 135.229426 
L 192.185053 133.803154 
L 193.270854 131.546921 
L 194.356656 129.716317 
L 195.442457 131.504327 
L 196.528258 129.056423 
L 197.614059 130.099352 
L 198.69986 126.310362 
L 199.785661 127.459776 
L 200.871462 127.459776 
L 201.957264 125.84214 
L 203.043065 126.246472 
L 205.214667 125.352621 
L 206.300468 126.778893 
L 207.386269 125.203543 
L 208.472071 124.543649 
L 209.557872 123.50072 
L 210.643673 123.15997 
L 211.729474 122.244822 
L 212.815275 122.819529 
L 213.901076 121.265475 
L 214.986877 122.287416 
L 216.072679 121.946666 
L 217.15848 121.946666 
L 218.244281 121.244487 
L 219.330082 121.180597 
L 220.415883 121.691413 
L 221.501684 121.734006 
L 222.587486 121.308069 
L 223.673287 122.308713 
L 224.759088 121.43585 
L 225.844889 152.790386 
L 226.93069 155.919482 
L 228.016491 160.410959 
L 229.102292 159.495811 
L 230.188094 157.452238 
L 231.273895 155.770712 
L 232.359696 160.560037 
L 233.445497 154.536111 
L 234.531298 154.450924 
L 235.617099 152.747792 
L 236.702901 151.555785 
L 237.788702 151.768754 
L 238.874503 156.877532 
L 239.960304 156.388012 
L 241.046105 149.469928 
L 242.131906 147.171101 
L 243.217708 151.194047 
L 244.303509 152.27957 
L 245.38931 155.068224 
L 246.475111 147.341167 
L 247.560912 147.958468 
L 248.646713 151.087563 
L 249.732514 148.895221 
L 250.818316 151.10886 
L 251.904117 144.97845 
L 252.989918 146.851648 
L 254.075719 150.661935 
L 255.16152 151.470907 
L 256.247321 147.022023 
L 257.333123 144.254666 
L 258.418924 142.253687 
L 259.504725 146.021379 
L 260.590526 148.469284 
L 261.676327 150.321185 
L 262.762128 144.97845 
L 263.847929 147.724511 
L 264.933731 146.766461 
L 266.019532 142.807405 
L 267.105333 153.556764 
L 268.191134 148.937815 
L 269.276935 147.490245 
L 270.362736 142.786108 
L 271.448538 148.703549 
L 272.534339 147.192089 
L 273.62014 147.724511 
L 274.705941 144.403744 
L 275.791742 145.084935 
L 276.877543 145.063638 
L 277.963344 145.361485 
L 279.049146 142.849999 
L 280.134947 142.190105 
L 281.220748 142.998768 
L 282.306549 141.317242 
L 283.39235 143.446002 
L 284.478151 145.851313 
L 285.563953 139.976157 
L 286.649754 136.974843 
L 287.735555 136.804468 
L 288.821356 138.294631 
L 289.907157 140.359501 
L 290.992958 138.677666 
L 292.07876 135.208129 
L 293.164561 136.038398 
L 294.250362 135.910617 
L 295.336163 139.912267 
L 296.421964 135.612461 
L 297.507765 139.1249 
L 298.593566 134.122607 
L 299.679368 133.441416 
L 300.765169 136.059695 
L 301.85097 137.017437 
L 302.936771 135.059051 
L 305.108373 131.844769 
L 306.194175 136.655699 
L 307.279976 131.823472 
L 308.365777 131.759581 
L 309.451578 133.505306 
L 310.537379 133.824451 
L 311.62318 133.398822 
L 312.708981 133.675373 
L 313.794783 131.780878 
L 314.880584 130.184539 
L 315.966385 136.549214 
L 317.052186 132.079034 
L 318.137987 132.696334 
L 319.223788 130.31232 
L 320.30959 129.950274 
L 321.395391 128.971236 
L 322.481192 129.035126 
L 323.566993 130.737949 
L 325.738595 125.097059 
L 327.910198 128.311341 
L 328.995999 130.610168 
L 330.0818 125.352621 
L 331.167601 128.886048 
L 332.253402 122.713045 
L 333.339203 125.948624 
L 334.425005 128.353935 
L 335.510806 124.607561 
L 336.596607 125.246147 
L 337.682408 127.779207 
L 338.768209 121.478487 
L 339.85401 123.223957 
L 340.939811 123.798684 
L 343.111414 122.521511 
L 344.197215 122.521511 
L 345.283016 123.479391 
L 346.368817 123.756112 
L 347.454618 122.819518 
L 348.54042 120.414176 
L 349.626221 120.435462 
L 350.712022 123.777398 
L 351.797823 121.308197 
L 352.883624 121.308197 
L 353.969425 119.605299 
L 355.055227 119.498868 
L 356.141028 121.116621 
L 357.226829 119.775589 
L 358.31263 118.987999 
L 359.398431 120.414176 
L 360.484232 116.327222 
L 361.570033 118.13655 
L 362.655835 117.029667 
L 363.741636 117.540536 
L 364.827437 117.306388 
L 365.913238 116.093073 
L 366.999039 116.029215 
L 368.08484 117.668254 
L 369.170642 117.902402 
L 370.256443 117.476678 
L 371.342244 120.797328 
L 372.428045 119.413723 
L 373.513846 121.308197 
L 374.599647 121.670063 
L 375.685448 119.222148 
L 376.77125 121.435914 
L 377.857051 122.010642 
L 378.942852 120.350317 
L 380.028653 120.39289 
L 381.114454 119.733017 
L 382.200255 122.159646 
L 383.286057 119.945879 
L 384.371858 118.668706 
L 385.457659 122.564084 
L 386.54346 120.350317 
L 387.629261 119.456296 
L 388.715062 119.839448 
L 389.800863 119.775589 
L 390.886665 120.8399 
L 393.058267 117.136098 
L 394.144068 121.350769 
L 395.229869 120.66961 
L 396.31567 120.350317 
L 397.401472 120.520607 
L 398.487273 118.860282 
L 398.487273 118.860282 
" clip-path="url(#pc170d54443)" style="fill: none; stroke: #2ca02c; stroke-width: 1.5; stroke-linecap: square"/>
   </g>
   <g id="line2d_22">
    <path d="M 368.08484 69.185698 
L 369.170642 69.772134 
L 370.256443 69.525214 
L 371.342244 71.77836 
L 372.428045 71.870955 
L 373.513846 74.062371 
L 374.599647 72.58085 
L 375.685448 73.630261 
L 376.77125 75.358702 
L 377.857051 76.840223 
L 380.028653 77.550118 
L 381.114454 78.784719 
L 382.200255 81.099595 
L 383.286057 82.550251 
L 384.371858 82.395925 
L 385.457659 84.710802 
L 386.54346 84.155231 
L 387.629261 83.105821 
L 388.715062 90.945535 
L 389.800863 93.939442 
L 390.886665 90.698615 
L 391.972466 96.346913 
L 393.058267 96.038263 
L 394.144068 100.174175 
L 395.229869 106.347178 
L 396.31567 111.223851 
L 397.401472 108.63119 
L 398.487273 111.100391 
L 398.487273 111.100391 
" clip-path="url(#pc170d54443)" style="fill: none; stroke: #d62728; stroke-width: 1.5; stroke-linecap: square"/>
   </g>
   <g id="line2d_23">
    <path d="M 368.08484 115.986642 
L 369.170642 115.560918 
L 370.256443 117.157384 
L 371.342244 118.157837 
L 372.428045 120.520607 
L 373.513846 121.414628 
L 374.599647 118.732565 
L 375.685448 118.13655 
L 376.77125 119.371151 
L 378.942852 124.054119 
L 380.028653 125.416437 
L 381.114454 127.566345 
L 382.200255 129.205384 
L 383.286057 129.098953 
L 384.371858 129.801398 
L 385.457659 132.696324 
L 386.54346 128.183645 
L 387.629261 130.588988 
L 388.715062 139.869779 
L 389.800863 141.125666 
L 390.886665 138.124309 
L 391.972466 143.062712 
L 393.058267 143.978019 
L 394.144068 146.106641 
L 395.229869 150.576747 
L 396.31567 157.409623 
L 397.401472 153.407814 
L 398.487273 155.131998 
L 398.487273 155.131998 
" clip-path="url(#pc170d54443)" style="fill: none; stroke: #9467bd; stroke-width: 1.5; stroke-linecap: square"/>
   </g>
   <g id="patch_3">
    <path d="M 57.6 307.584 
L 57.6 41.472 
" style="fill: none; stroke: #000000; stroke-width: 0.8; stroke-linejoin: miter; stroke-linecap: square"/>
   </g>
   <g id="patch_4">
    <path d="M 414.72 307.584 
L 414.72 41.472 
" style="fill: none; stroke: #000000; stroke-width: 0.8; stroke-linejoin: miter; stroke-linecap: square"/>
   </g>
   <g id="patch_5">
    <path d="M 57.6 307.584 
L 414.72 307.584 
" style="fill: none; stroke: #000000; stroke-width: 0.8; stroke-linejoin: miter; stroke-linecap: square"/>
   </g>
   <g id="patch_6">
    <path d="M 57.6 41.472 
L 414.72 41.472 
" style="fill: none; stroke: #000000; stroke-width: 0.8; stroke-linejoin: miter; stroke-linecap: square"/>
   </g>
   <g id="text_21">
    <!-- Learning Curves -->
    <g transform="translate(187.37625 35.472) scale(0.12 -0.12)">
     <defs>
      <path id="DejaVuSans-4c" d="M 628 4666 
L 1259 4666 
L 1259 531 
L 3531 531 
L 3531 0 
L 628 0 
L 628 4666 
z
" transform="scale(0.015625)"/>
      <path id="DejaVuSans-65" d="M 3597 1894 
L 3597 1613 
L 953 1613 
Q 991 1019 1311 708 
Q 1631 397 2203 397 
Q 2534 397 2845 478 
Q 3156 559 3463 722 
L 3463 178 
Q 3153 47 2828 -22 
Q 2503 -91 2169 -91 
Q 1331 -91 842 396 
Q 353 884 353 1716 
Q 353 2575 817 3079 
Q 1281 3584 2069 3584 
Q 2775 3584 3186 3129 
Q 3597 2675 3597 1894 
z
M 3022 2063 
Q 3016 2534 2758 2815 
Q 2500 3097 2075 3097 
Q 1594 3097 1305 2825 
Q 1016 2553 972 2059 
L 3022 2063 
z
" transform="scale(0.015625)"/>
      <path id="DejaVuSans-6e" d="M 3513 2113 
L 3513 0 
L 2938 0 
L 2938 2094 
Q 2938 2591 2744 2837 
Q 2550 3084 2163 3084 
Q 1697 3084 1428 2787 
Q 1159 2491 1159 1978 
L 1159 0 
L 581 0 
L 581 3500 
L 1159 3500 
L 1159 2956 
Q 1366 3272 1645 3428 
Q 1925 3584 2291 3584 
Q 2894 3584 3203 3211 
Q 3513 2838 3513 2113 
z
" transform="scale(0.015625)"/>
      <path id="DejaVuSans-69" d="M 603 3500 
L 1178 3500 
L 1178 0 
L 603 0 
L 603 3500 
z
M 603 4863 
L 1178 4863 
L 1178 4134 
L 603 4134 
L 603 4863 
z
" transform="scale(0.015625)"/>
      <path id="DejaVuSans-67" d="M 2906 1791 
Q 2906 2416 2648 2759 
Q 2391 3103 1925 3103 
Q 1463 3103 1205 2759 
Q 947 2416 947 1791 
Q 947 1169 1205 825 
Q 1463 481 1925 481 
Q 2391 481 2648 825 
Q 2906 1169 2906 1791 
z
M 3481 434 
Q 3481 -459 3084 -895 
Q 2688 -1331 1869 -1331 
Q 1566 -1331 1297 -1286 
Q 1028 -1241 775 -1147 
L 775 -588 
Q 1028 -725 1275 -790 
Q 1522 -856 1778 -856 
Q 2344 -856 2625 -561 
Q 2906 -266 2906 331 
L 2906 616 
Q 2728 306 2450 153 
Q 2172 0 1784 0 
Q 1141 0 747 490 
Q 353 981 353 1791 
Q 353 2603 747 3093 
Q 1141 3584 1784 3584 
Q 2172 3584 2450 3431 
Q 2728 3278 2906 2969 
L 2906 3500 
L 3481 3500 
L 3481 434 
z
" transform="scale(0.015625)"/>
      <path id="DejaVuSans-20" transform="scale(0.015625)"/>
      <path id="DejaVuSans-43" d="M 4122 4306 
L 4122 3641 
Q 3803 3938 3442 4084 
Q 3081 4231 2675 4231 
Q 1875 4231 1450 3742 
Q 1025 3253 1025 2328 
Q 1025 1406 1450 917 
Q 1875 428 2675 428 
Q 3081 428 3442 575 
Q 3803 722 4122 1019 
L 4122 359 
Q 3791 134 3420 21 
Q 3050 -91 2638 -91 
Q 1578 -91 968 557 
Q 359 1206 359 2328 
Q 359 3453 968 4101 
Q 1578 4750 2638 4750 
Q 3056 4750 3426 4639 
Q 3797 4528 4122 4306 
z
" transform="scale(0.015625)"/>
      <path id="DejaVuSans-76" d="M 191 3500 
L 800 3500 
L 1894 563 
L 2988 3500 
L 3597 3500 
L 2284 0 
L 1503 0 
L 191 3500 
z
" transform="scale(0.015625)"/>
     </defs>
     <use xlink:href="#DejaVuSans-4c"/>
     <use xlink:href="#DejaVuSans-65" x="53.962891"/>
     <use xlink:href="#DejaVuSans-61" x="115.486328"/>
     <use xlink:href="#DejaVuSans-72" x="176.765625"/>
     <use xlink:href="#DejaVuSans-6e" x="216.128906"/>
     <use xlink:href="#DejaVuSans-69" x="279.507812"/>
     <use xlink:href="#DejaVuSans-6e" x="307.291016"/>
     <use xlink:href="#DejaVuSans-67" x="370.669922"/>
     <use xlink:href="#DejaVuSans-20" x="434.146484"/>
     <use xlink:href="#DejaVuSans-43" x="465.933594"/>
     <use xlink:href="#DejaVuSans-75" x="535.757812"/>
     <use xlink:href="#DejaVuSans-72" x="599.136719"/>
     <use xlink:href="#DejaVuSans-76" x="640.25"/>
     <use xlink:href="#DejaVuSans-65" x="699.429688"/>
     <use xlink:href="#DejaVuSans-73" x="760.953125"/>
    </g>
   </g>
   <g id="legend_1">
    <g id="patch_7">
     <path d="M 214.18875 302.584 
L 407.72 302.584 
Q 409.72 302.584 409.72 300.584 
L 409.72 228.193375 
Q 409.72 226.193375 407.72 226.193375 
L 214.18875 226.193375 
Q 212.18875 226.193375 212.18875 228.193375 
L 212.18875 300.584 
Q 212.18875 302.584 214.18875 302.584 
z
" style="fill: #ffffff; opacity: 0.8; stroke: #cccccc; stroke-linejoin: miter"/>
    </g>
    <g id="line2d_24">
     <path d="M 216.18875 234.291812 
L 226.18875 234.291812 
L 236.18875 234.291812 
" style="fill: none; stroke: #1f77b4; stroke-width: 1.5; stroke-linecap: square"/>
    </g>
    <g id="text_22">
     <!-- Train Accuracy -->
     <g transform="translate(244.18875 237.791812) scale(0.1 -0.1)">
      <defs>
       <path id="DejaVuSans-54" d="M -19 4666 
L 3928 4666 
L 3928 4134 
L 2272 4134 
L 2272 0 
L 1638 0 
L 1638 4134 
L -19 4134 
L -19 4666 
z
" transform="scale(0.015625)"/>
      </defs>
      <use xlink:href="#DejaVuSans-54"/>
      <use xlink:href="#DejaVuSans-72" x="46.333984"/>
      <use xlink:href="#DejaVuSans-61" x="87.447266"/>
      <use xlink:href="#DejaVuSans-69" x="148.726562"/>
      <use xlink:href="#DejaVuSans-6e" x="176.509766"/>
      <use xlink:href="#DejaVuSans-20" x="239.888672"/>
      <use xlink:href="#DejaVuSans-41" x="271.675781"/>
      <use xlink:href="#DejaVuSans-63" x="338.333984"/>
      <use xlink:href="#DejaVuSans-63" x="393.314453"/>
      <use xlink:href="#DejaVuSans-75" x="448.294922"/>
      <use xlink:href="#DejaVuSans-72" x="511.673828"/>
      <use xlink:href="#DejaVuSans-61" x="552.787109"/>
      <use xlink:href="#DejaVuSans-63" x="614.066406"/>
      <use xlink:href="#DejaVuSans-79" x="669.046875"/>
     </g>
    </g>
    <g id="line2d_25">
     <path d="M 216.18875 248.969937 
L 226.18875 248.969937 
L 236.18875 248.969937 
" style="fill: none; stroke: #ff7f0e; stroke-width: 1.5; stroke-linecap: square"/>
    </g>
    <g id="text_23">
     <!-- Validation Accuracy -->
     <g transform="translate(244.18875 252.469937) scale(0.1 -0.1)">
      <defs>
       <path id="DejaVuSans-56" d="M 1831 0 
L 50 4666 
L 709 4666 
L 2188 738 
L 3669 4666 
L 4325 4666 
L 2547 0 
L 1831 0 
z
" transform="scale(0.015625)"/>
       <path id="DejaVuSans-6c" d="M 603 4863 
L 1178 4863 
L 1178 0 
L 603 0 
L 603 4863 
z
" transform="scale(0.015625)"/>
       <path id="DejaVuSans-64" d="M 2906 2969 
L 2906 4863 
L 3481 4863 
L 3481 0 
L 2906 0 
L 2906 525 
Q 2725 213 2448 61 
Q 2172 -91 1784 -91 
Q 1150 -91 751 415 
Q 353 922 353 1747 
Q 353 2572 751 3078 
Q 1150 3584 1784 3584 
Q 2172 3584 2448 3432 
Q 2725 3281 2906 2969 
z
M 947 1747 
Q 947 1113 1208 752 
Q 1469 391 1925 391 
Q 2381 391 2643 752 
Q 2906 1113 2906 1747 
Q 2906 2381 2643 2742 
Q 2381 3103 1925 3103 
Q 1469 3103 1208 2742 
Q 947 2381 947 1747 
z
" transform="scale(0.015625)"/>
       <path id="DejaVuSans-74" d="M 1172 4494 
L 1172 3500 
L 2356 3500 
L 2356 3053 
L 1172 3053 
L 1172 1153 
Q 1172 725 1289 603 
Q 1406 481 1766 481 
L 2356 481 
L 2356 0 
L 1766 0 
Q 1100 0 847 248 
Q 594 497 594 1153 
L 594 3053 
L 172 3053 
L 172 3500 
L 594 3500 
L 594 4494 
L 1172 4494 
z
" transform="scale(0.015625)"/>
      </defs>
      <use xlink:href="#DejaVuSans-56"/>
      <use xlink:href="#DejaVuSans-61" x="60.658203"/>
      <use xlink:href="#DejaVuSans-6c" x="121.9375"/>
      <use xlink:href="#DejaVuSans-69" x="149.720703"/>
      <use xlink:href="#DejaVuSans-64" x="177.503906"/>
      <use xlink:href="#DejaVuSans-61" x="240.980469"/>
      <use xlink:href="#DejaVuSans-74" x="302.259766"/>
      <use xlink:href="#DejaVuSans-69" x="341.46875"/>
      <use xlink:href="#DejaVuSans-6f" x="369.251953"/>
      <use xlink:href="#DejaVuSans-6e" x="430.433594"/>
      <use xlink:href="#DejaVuSans-20" x="493.8125"/>
      <use xlink:href="#DejaVuSans-41" x="525.599609"/>
      <use xlink:href="#DejaVuSans-63" x="592.257812"/>
      <use xlink:href="#DejaVuSans-63" x="647.238281"/>
      <use xlink:href="#DejaVuSans-75" x="702.21875"/>
      <use xlink:href="#DejaVuSans-72" x="765.597656"/>
      <use xlink:href="#DejaVuSans-61" x="806.710938"/>
      <use xlink:href="#DejaVuSans-63" x="867.990234"/>
      <use xlink:href="#DejaVuSans-79" x="922.970703"/>
     </g>
    </g>
    <g id="line2d_26">
     <path d="M 216.18875 263.648062 
L 226.18875 263.648062 
L 236.18875 263.648062 
" style="fill: none; stroke: #2ca02c; stroke-width: 1.5; stroke-linecap: square"/>
    </g>
    <g id="text_24">
     <!-- Robust Validation Accuracy -->
     <g transform="translate(244.18875 267.148062) scale(0.1 -0.1)">
      <defs>
       <path id="DejaVuSans-52" d="M 2841 2188 
Q 3044 2119 3236 1894 
Q 3428 1669 3622 1275 
L 4263 0 
L 3584 0 
L 2988 1197 
Q 2756 1666 2539 1819 
Q 2322 1972 1947 1972 
L 1259 1972 
L 1259 0 
L 628 0 
L 628 4666 
L 2053 4666 
Q 2853 4666 3247 4331 
Q 3641 3997 3641 3322 
Q 3641 2881 3436 2590 
Q 3231 2300 2841 2188 
z
M 1259 4147 
L 1259 2491 
L 2053 2491 
Q 2509 2491 2742 2702 
Q 2975 2913 2975 3322 
Q 2975 3731 2742 3939 
Q 2509 4147 2053 4147 
L 1259 4147 
z
" transform="scale(0.015625)"/>
       <path id="DejaVuSans-62" d="M 3116 1747 
Q 3116 2381 2855 2742 
Q 2594 3103 2138 3103 
Q 1681 3103 1420 2742 
Q 1159 2381 1159 1747 
Q 1159 1113 1420 752 
Q 1681 391 2138 391 
Q 2594 391 2855 752 
Q 3116 1113 3116 1747 
z
M 1159 2969 
Q 1341 3281 1617 3432 
Q 1894 3584 2278 3584 
Q 2916 3584 3314 3078 
Q 3713 2572 3713 1747 
Q 3713 922 3314 415 
Q 2916 -91 2278 -91 
Q 1894 -91 1617 61 
Q 1341 213 1159 525 
L 1159 0 
L 581 0 
L 581 4863 
L 1159 4863 
L 1159 2969 
z
" transform="scale(0.015625)"/>
      </defs>
      <use xlink:href="#DejaVuSans-52"/>
      <use xlink:href="#DejaVuSans-6f" x="64.982422"/>
      <use xlink:href="#DejaVuSans-62" x="126.164062"/>
      <use xlink:href="#DejaVuSans-75" x="189.640625"/>
      <use xlink:href="#DejaVuSans-73" x="253.019531"/>
      <use xlink:href="#DejaVuSans-74" x="305.119141"/>
      <use xlink:href="#DejaVuSans-20" x="344.328125"/>
      <use xlink:href="#DejaVuSans-56" x="376.115234"/>
      <use xlink:href="#DejaVuSans-61" x="436.773438"/>
      <use xlink:href="#DejaVuSans-6c" x="498.052734"/>
      <use xlink:href="#DejaVuSans-69" x="525.835938"/>
      <use xlink:href="#DejaVuSans-64" x="553.619141"/>
      <use xlink:href="#DejaVuSans-61" x="617.095703"/>
      <use xlink:href="#DejaVuSans-74" x="678.375"/>
      <use xlink:href="#DejaVuSans-69" x="717.583984"/>
      <use xlink:href="#DejaVuSans-6f" x="745.367188"/>
      <use xlink:href="#DejaVuSans-6e" x="806.548828"/>
      <use xlink:href="#DejaVuSans-20" x="869.927734"/>
      <use xlink:href="#DejaVuSans-41" x="901.714844"/>
      <use xlink:href="#DejaVuSans-63" x="968.373047"/>
      <use xlink:href="#DejaVuSans-63" x="1023.353516"/>
      <use xlink:href="#DejaVuSans-75" x="1078.333984"/>
      <use xlink:href="#DejaVuSans-72" x="1141.712891"/>
      <use xlink:href="#DejaVuSans-61" x="1182.826172"/>
      <use xlink:href="#DejaVuSans-63" x="1244.105469"/>
      <use xlink:href="#DejaVuSans-79" x="1299.085938"/>
     </g>
    </g>
    <g id="line2d_27">
     <path d="M 216.18875 278.326188 
L 226.18875 278.326188 
L 236.18875 278.326188 
" style="fill: none; stroke: #d62728; stroke-width: 1.5; stroke-linecap: square"/>
    </g>
    <g id="text_25">
     <!-- SWA Validation Accuracy -->
     <g transform="translate(244.18875 281.826188) scale(0.1 -0.1)">
      <defs>
       <path id="DejaVuSans-53" d="M 3425 4513 
L 3425 3897 
Q 3066 4069 2747 4153 
Q 2428 4238 2131 4238 
Q 1616 4238 1336 4038 
Q 1056 3838 1056 3469 
Q 1056 3159 1242 3001 
Q 1428 2844 1947 2747 
L 2328 2669 
Q 3034 2534 3370 2195 
Q 3706 1856 3706 1288 
Q 3706 609 3251 259 
Q 2797 -91 1919 -91 
Q 1588 -91 1214 -16 
Q 841 59 441 206 
L 441 856 
Q 825 641 1194 531 
Q 1563 422 1919 422 
Q 2459 422 2753 634 
Q 3047 847 3047 1241 
Q 3047 1584 2836 1778 
Q 2625 1972 2144 2069 
L 1759 2144 
Q 1053 2284 737 2584 
Q 422 2884 422 3419 
Q 422 4038 858 4394 
Q 1294 4750 2059 4750 
Q 2388 4750 2728 4690 
Q 3069 4631 3425 4513 
z
" transform="scale(0.015625)"/>
       <path id="DejaVuSans-57" d="M 213 4666 
L 850 4666 
L 1831 722 
L 2809 4666 
L 3519 4666 
L 4500 722 
L 5478 4666 
L 6119 4666 
L 4947 0 
L 4153 0 
L 3169 4050 
L 2175 0 
L 1381 0 
L 213 4666 
z
" transform="scale(0.015625)"/>
      </defs>
      <use xlink:href="#DejaVuSans-53"/>
      <use xlink:href="#DejaVuSans-57" x="63.476562"/>
      <use xlink:href="#DejaVuSans-41" x="156.853516"/>
      <use xlink:href="#DejaVuSans-20" x="225.261719"/>
      <use xlink:href="#DejaVuSans-56" x="257.048828"/>
      <use xlink:href="#DejaVuSans-61" x="317.707031"/>
      <use xlink:href="#DejaVuSans-6c" x="378.986328"/>
      <use xlink:href="#DejaVuSans-69" x="406.769531"/>
      <use xlink:href="#DejaVuSans-64" x="434.552734"/>
      <use xlink:href="#DejaVuSans-61" x="498.029297"/>
      <use xlink:href="#DejaVuSans-74" x="559.308594"/>
      <use xlink:href="#DejaVuSans-69" x="598.517578"/>
      <use xlink:href="#DejaVuSans-6f" x="626.300781"/>
      <use xlink:href="#DejaVuSans-6e" x="687.482422"/>
      <use xlink:href="#DejaVuSans-20" x="750.861328"/>
      <use xlink:href="#DejaVuSans-41" x="782.648438"/>
      <use xlink:href="#DejaVuSans-63" x="849.306641"/>
      <use xlink:href="#DejaVuSans-63" x="904.287109"/>
      <use xlink:href="#DejaVuSans-75" x="959.267578"/>
      <use xlink:href="#DejaVuSans-72" x="1022.646484"/>
      <use xlink:href="#DejaVuSans-61" x="1063.759766"/>
      <use xlink:href="#DejaVuSans-63" x="1125.039062"/>
      <use xlink:href="#DejaVuSans-79" x="1180.019531"/>
     </g>
    </g>
    <g id="line2d_28">
     <path d="M 216.18875 293.004312 
L 226.18875 293.004312 
L 236.18875 293.004312 
" style="fill: none; stroke: #9467bd; stroke-width: 1.5; stroke-linecap: square"/>
    </g>
    <g id="text_26">
     <!-- SWA Robust Validation Accuracy -->
     <g transform="translate(244.18875 296.504312) scale(0.1 -0.1)">
      <use xlink:href="#DejaVuSans-53"/>
      <use xlink:href="#DejaVuSans-57" x="63.476562"/>
      <use xlink:href="#DejaVuSans-41" x="156.853516"/>
      <use xlink:href="#DejaVuSans-20" x="225.261719"/>
      <use xlink:href="#DejaVuSans-52" x="257.048828"/>
      <use xlink:href="#DejaVuSans-6f" x="322.03125"/>
      <use xlink:href="#DejaVuSans-62" x="383.212891"/>
      <use xlink:href="#DejaVuSans-75" x="446.689453"/>
      <use xlink:href="#DejaVuSans-73" x="510.068359"/>
      <use xlink:href="#DejaVuSans-74" x="562.167969"/>
      <use xlink:href="#DejaVuSans-20" x="601.376953"/>
      <use xlink:href="#DejaVuSans-56" x="633.164062"/>
      <use xlink:href="#DejaVuSans-61" x="693.822266"/>
      <use xlink:href="#DejaVuSans-6c" x="755.101562"/>
      <use xlink:href="#DejaVuSans-69" x="782.884766"/>
      <use xlink:href="#DejaVuSans-64" x="810.667969"/>
      <use xlink:href="#DejaVuSans-61" x="874.144531"/>
      <use xlink:href="#DejaVuSans-74" x="935.423828"/>
      <use xlink:href="#DejaVuSans-69" x="974.632812"/>
      <use xlink:href="#DejaVuSans-6f" x="1002.416016"/>
      <use xlink:href="#DejaVuSans-6e" x="1063.597656"/>
      <use xlink:href="#DejaVuSans-20" x="1126.976562"/>
      <use xlink:href="#DejaVuSans-41" x="1158.763672"/>
      <use xlink:href="#DejaVuSans-63" x="1225.421875"/>
      <use xlink:href="#DejaVuSans-63" x="1280.402344"/>
      <use xlink:href="#DejaVuSans-75" x="1335.382812"/>
      <use xlink:href="#DejaVuSans-72" x="1398.761719"/>
      <use xlink:href="#DejaVuSans-61" x="1439.875"/>
      <use xlink:href="#DejaVuSans-63" x="1501.154297"/>
      <use xlink:href="#DejaVuSans-79" x="1556.134766"/>
     </g>
    </g>
   </g>
  </g>
 </g>
 <defs>
  <clipPath id="pc170d54443">
   <rect x="57.6" y="41.472" width="357.12" height="266.112"/>
  </clipPath>
 </defs>
</svg>
