<?xml version="1.0" encoding="utf-8" standalone="no"?>
<!DOCTYPE svg PUBLIC "-//W3C//DTD SVG 1.1//EN"
  "http://www.w3.org/Graphics/SVG/1.1/DTD/svg11.dtd">
<svg xmlns:xlink="http://www.w3.org/1999/xlink" width="460.8pt" height="345.6pt" viewBox="0 0 460.8 345.6" xmlns="http://www.w3.org/2000/svg" version="1.1">
 <metadata>
  <rdf:RDF xmlns:dc="http://purl.org/dc/elements/1.1/" xmlns:cc="http://creativecommons.org/ns#" xmlns:rdf="http://www.w3.org/1999/02/22-rdf-syntax-ns#">
   <cc:Work>
    <dc:type rdf:resource="http://purl.org/dc/dcmitype/StillImage"/>
    <dc:date>2025-05-07T06:41:09.967728</dc:date>
    <dc:format>image/svg+xml</dc:format>
    <dc:creator>
     <cc:Agent>
      <dc:title>Matplotlib v3.9.1, https://matplotlib.org/</dc:title>
     </cc:Agent>
    </dc:creator>
   </cc:Work>
  </rdf:RDF>
 </metadata>
 <defs>
  <style type="text/css">*{stroke-linejoin: round; stroke-linecap: butt}</style>
 </defs>
 <g id="figure_1">
  <g id="patch_1">
   <path d="M 0 345.6 
L 460.8 345.6 
L 460.8 0 
L 0 0 
z
" style="fill: #ffffff"/>
  </g>
  <g id="axes_1">
   <g id="patch_2">
    <path d="M 57.6 307.584 
L 414.72 307.584 
L 414.72 41.472 
L 57.6 41.472 
z
" style="fill: #ffffff"/>
   </g>
   <g id="matplotlib.axis_1">
    <g id="xtick_1">
     <g id="line2d_1">
      <defs>
       <path id="m0f14e1e756" d="M 0 0 
L 0 3.5 
" style="stroke: #000000; stroke-width: 0.8"/>
      </defs>
      <g>
       <use xlink:href="#m0f14e1e756" x="73.832727" y="307.584" style="stroke: #000000; stroke-width: 0.8"/>
      </g>
     </g>
     <g id="text_1">
      <!-- 1 -->
      <g transform="translate(70.651477 322.182437) scale(0.1 -0.1)">
       <defs>
        <path id="DejaVuSans-31" d="M 794 531 
L 1825 531 
L 1825 4091 
L 703 3866 
L 703 4441 
L 1819 4666 
L 2450 4666 
L 2450 531 
L 3481 531 
L 3481 0 
L 794 0 
L 794 531 
z
" transform="scale(0.015625)"/>
       </defs>
       <use xlink:href="#DejaVuSans-31"/>
      </g>
     </g>
    </g>
    <g id="xtick_2">
     <g id="line2d_2">
      <g>
       <use xlink:href="#m0f14e1e756" x="109.664165" y="307.584" style="stroke: #000000; stroke-width: 0.8"/>
      </g>
     </g>
     <g id="text_2">
      <!-- 34 -->
      <g transform="translate(103.301665 322.182437) scale(0.1 -0.1)">
       <defs>
        <path id="DejaVuSans-33" d="M 2597 2516 
Q 3050 2419 3304 2112 
Q 3559 1806 3559 1356 
Q 3559 666 3084 287 
Q 2609 -91 1734 -91 
Q 1441 -91 1130 -33 
Q 819 25 488 141 
L 488 750 
Q 750 597 1062 519 
Q 1375 441 1716 441 
Q 2309 441 2620 675 
Q 2931 909 2931 1356 
Q 2931 1769 2642 2001 
Q 2353 2234 1838 2234 
L 1294 2234 
L 1294 2753 
L 1863 2753 
Q 2328 2753 2575 2939 
Q 2822 3125 2822 3475 
Q 2822 3834 2567 4026 
Q 2313 4219 1838 4219 
Q 1578 4219 1281 4162 
Q 984 4106 628 3988 
L 628 4550 
Q 988 4650 1302 4700 
Q 1616 4750 1894 4750 
Q 2613 4750 3031 4423 
Q 3450 4097 3450 3541 
Q 3450 3153 3228 2886 
Q 3006 2619 2597 2516 
z
" transform="scale(0.015625)"/>
        <path id="DejaVuSans-34" d="M 2419 4116 
L 825 1625 
L 2419 1625 
L 2419 4116 
z
M 2253 4666 
L 3047 4666 
L 3047 1625 
L 3713 1625 
L 3713 1100 
L 3047 1100 
L 3047 0 
L 2419 0 
L 2419 1100 
L 313 1100 
L 313 1709 
L 2253 4666 
z
" transform="scale(0.015625)"/>
       </defs>
       <use xlink:href="#DejaVuSans-33"/>
       <use xlink:href="#DejaVuSans-34" x="63.623047"/>
      </g>
     </g>
    </g>
    <g id="xtick_3">
     <g id="line2d_3">
      <g>
       <use xlink:href="#m0f14e1e756" x="145.495604" y="307.584" style="stroke: #000000; stroke-width: 0.8"/>
      </g>
     </g>
     <g id="text_3">
      <!-- 67 -->
      <g transform="translate(139.133104 322.182437) scale(0.1 -0.1)">
       <defs>
        <path id="DejaVuSans-36" d="M 2113 2584 
Q 1688 2584 1439 2293 
Q 1191 2003 1191 1497 
Q 1191 994 1439 701 
Q 1688 409 2113 409 
Q 2538 409 2786 701 
Q 3034 994 3034 1497 
Q 3034 2003 2786 2293 
Q 2538 2584 2113 2584 
z
M 3366 4563 
L 3366 3988 
Q 3128 4100 2886 4159 
Q 2644 4219 2406 4219 
Q 1781 4219 1451 3797 
Q 1122 3375 1075 2522 
Q 1259 2794 1537 2939 
Q 1816 3084 2150 3084 
Q 2853 3084 3261 2657 
Q 3669 2231 3669 1497 
Q 3669 778 3244 343 
Q 2819 -91 2113 -91 
Q 1303 -91 875 529 
Q 447 1150 447 2328 
Q 447 3434 972 4092 
Q 1497 4750 2381 4750 
Q 2619 4750 2861 4703 
Q 3103 4656 3366 4563 
z
" transform="scale(0.015625)"/>
        <path id="DejaVuSans-37" d="M 525 4666 
L 3525 4666 
L 3525 4397 
L 1831 0 
L 1172 0 
L 2766 4134 
L 525 4134 
L 525 4666 
z
" transform="scale(0.015625)"/>
       </defs>
       <use xlink:href="#DejaVuSans-36"/>
       <use xlink:href="#DejaVuSans-37" x="63.623047"/>
      </g>
     </g>
    </g>
    <g id="xtick_4">
     <g id="line2d_4">
      <g>
       <use xlink:href="#m0f14e1e756" x="181.327042" y="307.584" style="stroke: #000000; stroke-width: 0.8"/>
      </g>
     </g>
     <g id="text_4">
      <!-- 100 -->
      <g transform="translate(171.783292 322.182437) scale(0.1 -0.1)">
       <defs>
        <path id="DejaVuSans-30" d="M 2034 4250 
Q 1547 4250 1301 3770 
Q 1056 3291 1056 2328 
Q 1056 1369 1301 889 
Q 1547 409 2034 409 
Q 2525 409 2770 889 
Q 3016 1369 3016 2328 
Q 3016 3291 2770 3770 
Q 2525 4250 2034 4250 
z
M 2034 4750 
Q 2819 4750 3233 4129 
Q 3647 3509 3647 2328 
Q 3647 1150 3233 529 
Q 2819 -91 2034 -91 
Q 1250 -91 836 529 
Q 422 1150 422 2328 
Q 422 3509 836 4129 
Q 1250 4750 2034 4750 
z
" transform="scale(0.015625)"/>
       </defs>
       <use xlink:href="#DejaVuSans-31"/>
       <use xlink:href="#DejaVuSans-30" x="63.623047"/>
       <use xlink:href="#DejaVuSans-30" x="127.246094"/>
      </g>
     </g>
    </g>
    <g id="xtick_5">
     <g id="line2d_5">
      <g>
       <use xlink:href="#m0f14e1e756" x="217.15848" y="307.584" style="stroke: #000000; stroke-width: 0.8"/>
      </g>
     </g>
     <g id="text_5">
      <!-- 133 -->
      <g transform="translate(207.61473 322.182437) scale(0.1 -0.1)">
       <use xlink:href="#DejaVuSans-31"/>
       <use xlink:href="#DejaVuSans-33" x="63.623047"/>
       <use xlink:href="#DejaVuSans-33" x="127.246094"/>
      </g>
     </g>
    </g>
    <g id="xtick_6">
     <g id="line2d_6">
      <g>
       <use xlink:href="#m0f14e1e756" x="254.075719" y="307.584" style="stroke: #000000; stroke-width: 0.8"/>
      </g>
     </g>
     <g id="text_6">
      <!-- 167 -->
      <g transform="translate(244.531969 322.182437) scale(0.1 -0.1)">
       <use xlink:href="#DejaVuSans-31"/>
       <use xlink:href="#DejaVuSans-36" x="63.623047"/>
       <use xlink:href="#DejaVuSans-37" x="127.246094"/>
      </g>
     </g>
    </g>
    <g id="xtick_7">
     <g id="line2d_7">
      <g>
       <use xlink:href="#m0f14e1e756" x="289.907157" y="307.584" style="stroke: #000000; stroke-width: 0.8"/>
      </g>
     </g>
     <g id="text_7">
      <!-- 200 -->
      <g transform="translate(280.363407 322.182437) scale(0.1 -0.1)">
       <defs>
        <path id="DejaVuSans-32" d="M 1228 531 
L 3431 531 
L 3431 0 
L 469 0 
L 469 531 
Q 828 903 1448 1529 
Q 2069 2156 2228 2338 
Q 2531 2678 2651 2914 
Q 2772 3150 2772 3378 
Q 2772 3750 2511 3984 
Q 2250 4219 1831 4219 
Q 1534 4219 1204 4116 
Q 875 4013 500 3803 
L 500 4441 
Q 881 4594 1212 4672 
Q 1544 4750 1819 4750 
Q 2544 4750 2975 4387 
Q 3406 4025 3406 3419 
Q 3406 3131 3298 2873 
Q 3191 2616 2906 2266 
Q 2828 2175 2409 1742 
Q 1991 1309 1228 531 
z
" transform="scale(0.015625)"/>
       </defs>
       <use xlink:href="#DejaVuSans-32"/>
       <use xlink:href="#DejaVuSans-30" x="63.623047"/>
       <use xlink:href="#DejaVuSans-30" x="127.246094"/>
      </g>
     </g>
    </g>
    <g id="xtick_8">
     <g id="line2d_8">
      <g>
       <use xlink:href="#m0f14e1e756" x="325.738595" y="307.584" style="stroke: #000000; stroke-width: 0.8"/>
      </g>
     </g>
     <g id="text_8">
      <!-- 233 -->
      <g transform="translate(316.194845 322.182437) scale(0.1 -0.1)">
       <use xlink:href="#DejaVuSans-32"/>
       <use xlink:href="#DejaVuSans-33" x="63.623047"/>
       <use xlink:href="#DejaVuSans-33" x="127.246094"/>
      </g>
     </g>
    </g>
    <g id="xtick_9">
     <g id="line2d_9">
      <g>
       <use xlink:href="#m0f14e1e756" x="361.570033" y="307.584" style="stroke: #000000; stroke-width: 0.8"/>
      </g>
     </g>
     <g id="text_9">
      <!-- 266 -->
      <g transform="translate(352.026283 322.182437) scale(0.1 -0.1)">
       <use xlink:href="#DejaVuSans-32"/>
       <use xlink:href="#DejaVuSans-36" x="63.623047"/>
       <use xlink:href="#DejaVuSans-36" x="127.246094"/>
      </g>
     </g>
    </g>
    <g id="xtick_10">
     <g id="line2d_10">
      <g>
       <use xlink:href="#m0f14e1e756" x="398.487273" y="307.584" style="stroke: #000000; stroke-width: 0.8"/>
      </g>
     </g>
     <g id="text_10">
      <!-- 300 -->
      <g transform="translate(388.943523 322.182437) scale(0.1 -0.1)">
       <use xlink:href="#DejaVuSans-33"/>
       <use xlink:href="#DejaVuSans-30" x="63.623047"/>
       <use xlink:href="#DejaVuSans-30" x="127.246094"/>
      </g>
     </g>
    </g>
    <g id="text_11">
     <!-- Epochs -->
     <g transform="translate(218.244375 335.860562) scale(0.1 -0.1)">
      <defs>
       <path id="DejaVuSans-45" d="M 628 4666 
L 3578 4666 
L 3578 4134 
L 1259 4134 
L 1259 2753 
L 3481 2753 
L 3481 2222 
L 1259 2222 
L 1259 531 
L 3634 531 
L 3634 0 
L 628 0 
L 628 4666 
z
" transform="scale(0.015625)"/>
       <path id="DejaVuSans-70" d="M 1159 525 
L 1159 -1331 
L 581 -1331 
L 581 3500 
L 1159 3500 
L 1159 2969 
Q 1341 3281 1617 3432 
Q 1894 3584 2278 3584 
Q 2916 3584 3314 3078 
Q 3713 2572 3713 1747 
Q 3713 922 3314 415 
Q 2916 -91 2278 -91 
Q 1894 -91 1617 61 
Q 1341 213 1159 525 
z
M 3116 1747 
Q 3116 2381 2855 2742 
Q 2594 3103 2138 3103 
Q 1681 3103 1420 2742 
Q 1159 2381 1159 1747 
Q 1159 1113 1420 752 
Q 1681 391 2138 391 
Q 2594 391 2855 752 
Q 3116 1113 3116 1747 
z
" transform="scale(0.015625)"/>
       <path id="DejaVuSans-6f" d="M 1959 3097 
Q 1497 3097 1228 2736 
Q 959 2375 959 1747 
Q 959 1119 1226 758 
Q 1494 397 1959 397 
Q 2419 397 2687 759 
Q 2956 1122 2956 1747 
Q 2956 2369 2687 2733 
Q 2419 3097 1959 3097 
z
M 1959 3584 
Q 2709 3584 3137 3096 
Q 3566 2609 3566 1747 
Q 3566 888 3137 398 
Q 2709 -91 1959 -91 
Q 1206 -91 779 398 
Q 353 888 353 1747 
Q 353 2609 779 3096 
Q 1206 3584 1959 3584 
z
" transform="scale(0.015625)"/>
       <path id="DejaVuSans-63" d="M 3122 3366 
L 3122 2828 
Q 2878 2963 2633 3030 
Q 2388 3097 2138 3097 
Q 1578 3097 1268 2742 
Q 959 2388 959 1747 
Q 959 1106 1268 751 
Q 1578 397 2138 397 
Q 2388 397 2633 464 
Q 2878 531 3122 666 
L 3122 134 
Q 2881 22 2623 -34 
Q 2366 -91 2075 -91 
Q 1284 -91 818 406 
Q 353 903 353 1747 
Q 353 2603 823 3093 
Q 1294 3584 2113 3584 
Q 2378 3584 2631 3529 
Q 2884 3475 3122 3366 
z
" transform="scale(0.015625)"/>
       <path id="DejaVuSans-68" d="M 3513 2113 
L 3513 0 
L 2938 0 
L 2938 2094 
Q 2938 2591 2744 2837 
Q 2550 3084 2163 3084 
Q 1697 3084 1428 2787 
Q 1159 2491 1159 1978 
L 1159 0 
L 581 0 
L 581 4863 
L 1159 4863 
L 1159 2956 
Q 1366 3272 1645 3428 
Q 1925 3584 2291 3584 
Q 2894 3584 3203 3211 
Q 3513 2838 3513 2113 
z
" transform="scale(0.015625)"/>
       <path id="DejaVuSans-73" d="M 2834 3397 
L 2834 2853 
Q 2591 2978 2328 3040 
Q 2066 3103 1784 3103 
Q 1356 3103 1142 2972 
Q 928 2841 928 2578 
Q 928 2378 1081 2264 
Q 1234 2150 1697 2047 
L 1894 2003 
Q 2506 1872 2764 1633 
Q 3022 1394 3022 966 
Q 3022 478 2636 193 
Q 2250 -91 1575 -91 
Q 1294 -91 989 -36 
Q 684 19 347 128 
L 347 722 
Q 666 556 975 473 
Q 1284 391 1588 391 
Q 1994 391 2212 530 
Q 2431 669 2431 922 
Q 2431 1156 2273 1281 
Q 2116 1406 1581 1522 
L 1381 1569 
Q 847 1681 609 1914 
Q 372 2147 372 2553 
Q 372 3047 722 3315 
Q 1072 3584 1716 3584 
Q 2034 3584 2315 3537 
Q 2597 3491 2834 3397 
z
" transform="scale(0.015625)"/>
      </defs>
      <use xlink:href="#DejaVuSans-45"/>
      <use xlink:href="#DejaVuSans-70" x="63.183594"/>
      <use xlink:href="#DejaVuSans-6f" x="126.660156"/>
      <use xlink:href="#DejaVuSans-63" x="187.841797"/>
      <use xlink:href="#DejaVuSans-68" x="242.822266"/>
      <use xlink:href="#DejaVuSans-73" x="306.201172"/>
     </g>
    </g>
   </g>
   <g id="matplotlib.axis_2">
    <g id="ytick_1">
     <g id="line2d_11">
      <defs>
       <path id="m5a39ddcb8b" d="M 0 0 
L -3.5 0 
" style="stroke: #000000; stroke-width: 0.8"/>
      </defs>
      <g>
       <use xlink:href="#m5a39ddcb8b" x="57.6" y="283.715227" style="stroke: #000000; stroke-width: 0.8"/>
      </g>
     </g>
     <g id="text_12">
      <!-- 20 -->
      <g transform="translate(37.875 287.514446) scale(0.1 -0.1)">
       <use xlink:href="#DejaVuSans-32"/>
       <use xlink:href="#DejaVuSans-30" x="63.623047"/>
      </g>
     </g>
    </g>
    <g id="ytick_2">
     <g id="line2d_12">
      <g>
       <use xlink:href="#m5a39ddcb8b" x="57.6" y="225.961392" style="stroke: #000000; stroke-width: 0.8"/>
      </g>
     </g>
     <g id="text_13">
      <!-- 40 -->
      <g transform="translate(37.875 229.760611) scale(0.1 -0.1)">
       <use xlink:href="#DejaVuSans-34"/>
       <use xlink:href="#DejaVuSans-30" x="63.623047"/>
      </g>
     </g>
    </g>
    <g id="ytick_3">
     <g id="line2d_13">
      <g>
       <use xlink:href="#m5a39ddcb8b" x="57.6" y="168.207557" style="stroke: #000000; stroke-width: 0.8"/>
      </g>
     </g>
     <g id="text_14">
      <!-- 60 -->
      <g transform="translate(37.875 172.006776) scale(0.1 -0.1)">
       <use xlink:href="#DejaVuSans-36"/>
       <use xlink:href="#DejaVuSans-30" x="63.623047"/>
      </g>
     </g>
    </g>
    <g id="ytick_4">
     <g id="line2d_14">
      <g>
       <use xlink:href="#m5a39ddcb8b" x="57.6" y="110.453722" style="stroke: #000000; stroke-width: 0.8"/>
      </g>
     </g>
     <g id="text_15">
      <!-- 80 -->
      <g transform="translate(37.875 114.252941) scale(0.1 -0.1)">
       <defs>
        <path id="DejaVuSans-38" d="M 2034 2216 
Q 1584 2216 1326 1975 
Q 1069 1734 1069 1313 
Q 1069 891 1326 650 
Q 1584 409 2034 409 
Q 2484 409 2743 651 
Q 3003 894 3003 1313 
Q 3003 1734 2745 1975 
Q 2488 2216 2034 2216 
z
M 1403 2484 
Q 997 2584 770 2862 
Q 544 3141 544 3541 
Q 544 4100 942 4425 
Q 1341 4750 2034 4750 
Q 2731 4750 3128 4425 
Q 3525 4100 3525 3541 
Q 3525 3141 3298 2862 
Q 3072 2584 2669 2484 
Q 3125 2378 3379 2068 
Q 3634 1759 3634 1313 
Q 3634 634 3220 271 
Q 2806 -91 2034 -91 
Q 1263 -91 848 271 
Q 434 634 434 1313 
Q 434 1759 690 2068 
Q 947 2378 1403 2484 
z
M 1172 3481 
Q 1172 3119 1398 2916 
Q 1625 2713 2034 2713 
Q 2441 2713 2670 2916 
Q 2900 3119 2900 3481 
Q 2900 3844 2670 4047 
Q 2441 4250 2034 4250 
Q 1625 4250 1398 4047 
Q 1172 3844 1172 3481 
z
" transform="scale(0.015625)"/>
       </defs>
       <use xlink:href="#DejaVuSans-38"/>
       <use xlink:href="#DejaVuSans-30" x="63.623047"/>
      </g>
     </g>
    </g>
    <g id="ytick_5">
     <g id="line2d_15">
      <g>
       <use xlink:href="#m5a39ddcb8b" x="57.6" y="52.699887" style="stroke: #000000; stroke-width: 0.8"/>
      </g>
     </g>
     <g id="text_16">
      <!-- 100 -->
      <g transform="translate(31.5125 56.499106) scale(0.1 -0.1)">
       <use xlink:href="#DejaVuSans-31"/>
       <use xlink:href="#DejaVuSans-30" x="63.623047"/>
       <use xlink:href="#DejaVuSans-30" x="127.246094"/>
      </g>
     </g>
    </g>
    <g id="text_17">
     <!-- Accuracy -->
     <g transform="translate(25.432812 197.356125) rotate(-90) scale(0.1 -0.1)">
      <defs>
       <path id="DejaVuSans-41" d="M 2188 4044 
L 1331 1722 
L 3047 1722 
L 2188 4044 
z
M 1831 4666 
L 2547 4666 
L 4325 0 
L 3669 0 
L 3244 1197 
L 1141 1197 
L 716 0 
L 50 0 
L 1831 4666 
z
" transform="scale(0.015625)"/>
       <path id="DejaVuSans-75" d="M 544 1381 
L 544 3500 
L 1119 3500 
L 1119 1403 
Q 1119 906 1312 657 
Q 1506 409 1894 409 
Q 2359 409 2629 706 
Q 2900 1003 2900 1516 
L 2900 3500 
L 3475 3500 
L 3475 0 
L 2900 0 
L 2900 538 
Q 2691 219 2414 64 
Q 2138 -91 1772 -91 
Q 1169 -91 856 284 
Q 544 659 544 1381 
z
M 1991 3584 
L 1991 3584 
z
" transform="scale(0.015625)"/>
       <path id="DejaVuSans-72" d="M 2631 2963 
Q 2534 3019 2420 3045 
Q 2306 3072 2169 3072 
Q 1681 3072 1420 2755 
Q 1159 2438 1159 1844 
L 1159 0 
L 581 0 
L 581 3500 
L 1159 3500 
L 1159 2956 
Q 1341 3275 1631 3429 
Q 1922 3584 2338 3584 
Q 2397 3584 2469 3576 
Q 2541 3569 2628 3553 
L 2631 2963 
z
" transform="scale(0.015625)"/>
       <path id="DejaVuSans-61" d="M 2194 1759 
Q 1497 1759 1228 1600 
Q 959 1441 959 1056 
Q 959 750 1161 570 
Q 1363 391 1709 391 
Q 2188 391 2477 730 
Q 2766 1069 2766 1631 
L 2766 1759 
L 2194 1759 
z
M 3341 1997 
L 3341 0 
L 2766 0 
L 2766 531 
Q 2569 213 2275 61 
Q 1981 -91 1556 -91 
Q 1019 -91 701 211 
Q 384 513 384 1019 
Q 384 1609 779 1909 
Q 1175 2209 1959 2209 
L 2766 2209 
L 2766 2266 
Q 2766 2663 2505 2880 
Q 2244 3097 1772 3097 
Q 1472 3097 1187 3025 
Q 903 2953 641 2809 
L 641 3341 
Q 956 3463 1253 3523 
Q 1550 3584 1831 3584 
Q 2591 3584 2966 3190 
Q 3341 2797 3341 1997 
z
" transform="scale(0.015625)"/>
       <path id="DejaVuSans-79" d="M 2059 -325 
Q 1816 -950 1584 -1140 
Q 1353 -1331 966 -1331 
L 506 -1331 
L 506 -850 
L 844 -850 
Q 1081 -850 1212 -737 
Q 1344 -625 1503 -206 
L 1606 56 
L 191 3500 
L 800 3500 
L 1894 763 
L 2988 3500 
L 3597 3500 
L 2059 -325 
z
" transform="scale(0.015625)"/>
      </defs>
      <use xlink:href="#DejaVuSans-41"/>
      <use xlink:href="#DejaVuSans-63" x="66.658203"/>
      <use xlink:href="#DejaVuSans-63" x="121.638672"/>
      <use xlink:href="#DejaVuSans-75" x="176.619141"/>
      <use xlink:href="#DejaVuSans-72" x="239.998047"/>
      <use xlink:href="#DejaVuSans-61" x="281.111328"/>
      <use xlink:href="#DejaVuSans-63" x="342.390625"/>
      <use xlink:href="#DejaVuSans-79" x="397.371094"/>
     </g>
    </g>
   </g>
   <g id="line2d_16">
    <path d="M 73.832727 295.488 
L 74.918528 238.047843 
L 76.00433 199.254758 
L 77.090131 176.585428 
L 78.175932 161.104076 
L 79.261733 151.091837 
L 80.347534 142.208145 
L 81.433335 134.308315 
L 84.690739 115.37766 
L 85.77654 111.355402 
L 89.033943 95.376332 
L 90.119745 91.47561 
L 92.291347 85.23677 
L 93.377148 83.025975 
L 94.462949 82.244673 
L 95.54875 118.989011 
L 96.634552 120.227519 
L 97.720353 116.286285 
L 98.806154 114.353286 
L 99.891955 110.886621 
L 100.977756 108.785787 
L 102.063557 107.558854 
L 103.149358 104.080614 
L 105.320961 98.906659 
L 106.406762 97.471378 
L 107.492563 94.890188 
L 108.578364 91.927029 
L 110.749967 88.072606 
L 111.835768 85.375668 
L 114.00737 81.260811 
L 115.093171 78.633322 
L 116.178972 76.515126 
L 117.264773 75.010396 
L 121.607978 67.602497 
L 122.693779 65.438001 
L 123.77958 63.881185 
L 124.865382 62.94941 
L 125.951183 61.247908 
L 127.036984 60.321921 
L 128.122785 59.210736 
L 129.208586 58.585694 
L 130.294387 57.700219 
L 132.46599 56.589034 
L 133.551791 55.92348 
L 134.637592 55.732496 
L 135.723393 55.917693 
L 136.809194 55.628322 
L 137.894995 55.472062 
L 138.980797 83.546843 
L 140.066598 88.981231 
L 141.152399 88.969656 
L 142.2382 87.81796 
L 143.324001 87.505439 
L 144.409802 86.637326 
L 145.495604 85.942835 
L 147.667206 83.662591 
L 148.753007 83.726253 
L 149.838808 82.852352 
L 150.924609 81.677506 
L 152.01041 81.405497 
L 154.182013 79.113678 
L 157.439416 77.510562 
L 158.525217 76.202605 
L 159.611019 75.780123 
L 160.69682 74.952522 
L 161.782621 73.887636 
L 162.868422 73.060035 
L 163.954223 73.245233 
L 165.040024 71.757865 
L 166.125825 71.38747 
L 167.211627 70.588806 
L 168.297428 70.710342 
L 170.46903 68.80628 
L 173.726434 67.405724 
L 174.812235 66.479737 
L 175.898036 66.178791 
L 176.983837 65.281741 
L 178.069638 64.893984 
L 179.155439 64.095319 
L 180.24124 63.829098 
L 181.327042 62.955197 
L 182.412843 62.839449 
L 184.584445 61.44468 
L 185.670246 61.051136 
L 186.756047 60.426094 
L 188.92765 59.911014 
L 190.013451 59.008176 
L 191.099252 58.724592 
L 192.185053 58.151638 
L 193.270854 58.093763 
L 194.356656 57.42821 
L 195.442457 57.324036 
L 196.528258 56.785806 
L 197.614059 56.826318 
L 198.69986 56.3286 
L 199.785661 56.102891 
L 201.957264 55.367888 
L 204.128866 55.147966 
L 206.300468 54.575011 
L 209.557872 54.100443 
L 210.643673 54.268278 
L 211.729474 53.967332 
L 213.901076 53.74741 
L 216.072679 53.840009 
L 217.15848 53.631662 
L 223.673287 53.660599 
L 224.759088 53.735835 
L 225.844889 72.527592 
L 226.93069 77.886745 
L 228.016491 78.789582 
L 229.102292 79.258363 
L 230.188094 77.834658 
L 231.273895 79.217851 
L 232.359696 78.783795 
L 233.445497 77.47005 
L 235.617099 77.284853 
L 236.702901 76.816072 
L 237.788702 76.769772 
L 238.874503 76.01162 
L 239.960304 76.21418 
L 241.046105 75.895872 
L 242.131906 75.201381 
L 243.217708 75.942171 
L 244.303509 75.29398 
L 245.38931 74.356418 
L 246.475111 74.495316 
L 248.646713 73.800825 
L 249.732514 73.731376 
L 250.818316 73.523029 
L 251.904117 73.45358 
L 252.989918 73.256807 
L 254.075719 72.12826 
L 255.16152 72.186134 
L 256.247321 71.728928 
L 257.333123 71.56688 
L 258.418924 72.284521 
L 259.504725 71.38747 
L 260.590526 70.953414 
L 261.676327 71.300659 
L 262.762128 70.964989 
L 263.847929 70.420971 
L 264.933731 70.28786 
L 266.019532 70.316797 
L 267.105333 70.69298 
L 268.191134 69.604945 
L 269.276935 69.141951 
L 270.362736 68.950966 
L 271.448538 69.315574 
L 272.534339 69.026202 
L 273.62014 68.534272 
L 274.705941 68.574784 
L 275.791742 68.048128 
L 276.877543 67.324701 
L 277.963344 68.146514 
L 279.049146 67.538835 
L 280.134947 67.567772 
L 281.220748 67.318913 
L 282.306549 66.647572 
L 285.563953 66.167216 
L 286.649754 65.5306 
L 287.735555 65.536387 
L 290.992958 65.056031 
L 292.07876 64.882409 
L 293.164561 64.96922 
L 294.250362 64.604613 
L 295.336163 64.101107 
L 296.421964 63.991146 
L 299.679368 63.192482 
L 300.765169 63.273506 
L 301.85097 63.018859 
L 302.936771 62.43433 
L 304.022572 62.729488 
L 305.108373 62.046572 
L 307.279976 61.739839 
L 308.365777 61.485192 
L 311.62318 61.253696 
L 312.708981 60.813852 
L 313.794783 60.651804 
L 314.880584 59.772116 
L 315.966385 60.264047 
L 317.052186 59.939951 
L 318.137987 59.980463 
L 320.30959 59.274397 
L 321.395391 59.366996 
L 322.481192 58.944514 
L 323.566993 58.805616 
L 324.652794 58.441009 
L 325.738595 58.452584 
L 326.824396 58.19215 
L 327.910198 58.255811 
L 328.995999 57.711794 
L 330.0818 57.549746 
L 331.167601 57.954865 
L 333.339203 57.167776 
L 334.425005 57.075177 
L 335.510806 56.641121 
L 336.596607 56.994153 
L 337.682408 56.652696 
L 338.768209 56.513797 
L 339.85401 56.756869 
L 340.939811 55.836669 
L 342.025613 56.253364 
L 343.111414 55.894543 
L 344.197215 55.715133 
L 345.283016 55.952418 
L 347.454618 55.275289 
L 348.54042 55.402613 
L 351.797823 54.777571 
L 353.969425 54.829658 
L 356.141028 54.412964 
L 358.31263 54.389814 
L 359.398431 54.169892 
L 360.484232 54.10623 
L 361.570033 54.204616 
L 363.741636 53.787922 
L 369.170642 54.071506 
L 370.256443 54.135167 
L 371.342244 54.51135 
L 372.428045 55.014855 
L 374.599647 55.304226 
L 377.857051 55.443125 
L 380.028653 55.310014 
L 381.114454 55.558873 
L 384.371858 55.333164 
L 385.457659 55.43155 
L 386.54346 55.391038 
L 387.629261 55.466274 
L 388.715062 55.350526 
L 389.800863 55.616747 
L 390.886665 55.43155 
L 393.058267 55.379463 
L 394.144068 55.570448 
L 395.229869 55.425762 
L 396.31567 55.541511 
L 397.401472 55.396825 
L 398.487273 55.61096 
L 398.487273 55.61096 
" clip-path="url(#pf9013259ee)" style="fill: none; stroke: #1f77b4; stroke-width: 1.5; stroke-linecap: square"/>
   </g>
   <g id="line2d_17">
    <path d="M 73.832727 282.531274 
L 74.918528 241.208405 
L 76.00433 227.405238 
L 77.090131 210.021334 
L 78.175932 199.221367 
L 79.261733 185.591462 
L 80.347534 181.664201 
L 81.433335 180.566878 
L 82.519137 169.535895 
L 83.604938 162.143404 
L 84.690739 159.833251 
L 85.77654 153.278191 
L 86.862341 153.711345 
L 87.948142 147.704946 
L 89.033943 146.232223 
L 90.119745 142.247208 
L 91.205546 140.081439 
L 93.377148 137.742409 
L 94.462949 137.771286 
L 95.54875 174.820371 
L 96.634552 174.069571 
L 97.720353 180.364739 
L 98.806154 161.508112 
L 99.891955 162.894204 
L 100.977756 161.739128 
L 102.063557 159.804374 
L 103.149358 159.28459 
L 104.23516 157.03219 
L 105.320961 154.000114 
L 106.406762 155.212944 
L 107.492563 155.415083 
L 108.578364 155.848236 
L 109.664165 145.625808 
L 110.749967 144.499608 
L 111.835768 145.394792 
L 112.921569 144.037577 
L 114.00737 143.517793 
L 115.093171 139.157378 
L 116.178972 141.265393 
L 117.264773 137.569148 
L 118.350575 141.178762 
L 119.436376 135.403379 
L 120.522177 134.45044 
L 121.607978 133.699641 
L 122.693779 134.652579 
L 124.865382 130.263287 
L 125.951183 130.176657 
L 127.036984 128.877195 
L 128.122785 128.010888 
L 130.294387 126.884688 
L 131.380189 126.451534 
L 132.46599 125.816242 
L 134.637592 125.238704 
L 135.723393 124.141381 
L 136.809194 124.112504 
L 137.894995 124.343519 
L 138.980797 155.588344 
L 140.066598 163.182973 
L 141.152399 152.585145 
L 142.2382 148.397992 
L 143.324001 150.650391 
L 144.409802 150.910284 
L 145.495604 150.361622 
L 146.581405 149.957345 
L 147.667206 150.390499 
L 148.753007 148.831145 
L 149.838808 146.867515 
L 150.924609 148.744515 
L 152.01041 145.423669 
L 153.096212 147.09853 
L 154.182013 145.423669 
L 155.267814 143.084639 
L 156.353615 143.286777 
L 157.439416 145.250408 
L 158.525217 144.153085 
L 159.611019 140.081439 
L 160.69682 142.564854 
L 161.782621 139.532778 
L 162.868422 140.976624 
L 163.954223 143.806562 
L 165.040024 139.070747 
L 166.125825 143.113516 
L 167.211627 139.619409 
L 169.383229 139.706039 
L 170.46903 137.82904 
L 171.554831 138.839732 
L 173.726434 139.677163 
L 174.812235 140.832239 
L 175.898036 136.183056 
L 176.983837 135.721025 
L 178.069638 133.728518 
L 179.155439 136.038671 
L 180.24124 133.295364 
L 181.327042 133.122102 
L 183.498644 136.385194 
L 184.584445 134.941348 
L 185.670246 135.287871 
L 186.756047 134.161671 
L 187.841849 132.371302 
L 188.92765 129.339226 
L 190.013451 128.097519 
L 191.099252 130.956333 
L 192.185053 129.194841 
L 193.270854 128.415165 
L 194.356656 126.884688 
L 195.442457 129.656872 
L 196.528258 128.039765 
L 197.614059 126.740303 
L 198.69986 126.018381 
L 199.785661 126.567042 
L 200.871462 124.487904 
L 201.957264 124.834427 
L 203.043065 123.650473 
L 204.128866 123.852612 
L 206.300468 121.455828 
L 207.386269 122.986304 
L 208.472071 121.224812 
L 209.557872 121.975612 
L 210.643673 122.408766 
L 211.729474 121.224812 
L 212.815275 121.253689 
L 213.901076 121.109305 
L 214.986877 120.705028 
L 216.072679 120.531766 
L 217.15848 120.185243 
L 218.244281 119.694336 
L 219.330082 119.492197 
L 220.415883 120.011982 
L 221.501684 120.098612 
L 223.673287 119.723213 
L 224.759088 119.983105 
L 225.844889 151.892099 
L 226.93069 148.109223 
L 228.016491 158.793682 
L 229.102292 151.083545 
L 230.188094 151.199053 
L 231.273895 147.560561 
L 232.359696 145.394792 
L 233.445497 148.455746 
L 234.531298 148.97553 
L 235.617099 147.271792 
L 236.702901 145.337038 
L 237.788702 147.531684 
L 238.874503 148.571253 
L 239.960304 146.318854 
L 241.046105 147.069653 
L 243.217708 142.391593 
L 244.303509 147.935961 
L 245.38931 146.549869 
L 246.475111 151.401191 
L 247.560912 145.452546 
L 248.646713 142.8825 
L 249.732514 144.961638 
L 250.818316 144.701746 
L 251.904117 147.935961 
L 252.989918 143.17127 
L 254.075719 141.467531 
L 255.16152 144.701746 
L 256.247321 141.929562 
L 257.333123 147.300669 
L 258.418924 146.2611 
L 259.504725 141.900685 
L 260.590526 143.402285 
L 261.676327 141.29427 
L 262.762128 141.265393 
L 263.847929 141.900685 
L 264.933731 140.110316 
L 266.019532 145.250408 
L 267.105333 138.608717 
L 268.191134 139.41727 
L 269.276935 139.908178 
L 270.362736 137.569148 
L 271.448538 139.301763 
L 272.534339 140.283578 
L 273.62014 138.781978 
L 274.705941 139.965932 
L 275.791742 136.70284 
L 276.877543 136.904978 
L 277.963344 140.196947 
L 279.049146 141.900685 
L 280.134947 137.164871 
L 281.220748 140.023686 
L 282.306549 137.511394 
L 283.39235 138.291071 
L 284.478151 137.569148 
L 285.563953 137.193748 
L 286.649754 135.432256 
L 287.735555 137.857917 
L 288.821356 138.464332 
L 289.907157 136.587332 
L 290.992958 140.716732 
L 292.07876 138.088932 
L 293.164561 135.894286 
L 294.250362 138.319947 
L 295.336163 135.374502 
L 296.421964 133.064348 
L 297.507765 136.645086 
L 298.593566 135.547763 
L 299.679368 138.406578 
L 300.765169 135.749902 
L 301.85097 132.515687 
L 302.936771 134.392687 
L 304.022572 134.248302 
L 305.108373 132.544564 
L 306.194175 133.61301 
L 307.279976 131.331733 
L 308.365777 134.248302 
L 309.451578 135.95204 
L 310.537379 132.833333 
L 311.62318 131.071841 
L 312.708981 135.085733 
L 313.794783 134.854717 
L 314.880584 131.678256 
L 315.966385 129.714626 
L 317.052186 132.544564 
L 318.137987 133.353118 
L 319.223788 130.783072 
L 321.395391 131.793764 
L 322.481192 129.77238 
L 323.566993 129.599118 
L 324.652794 131.418364 
L 325.738595 130.927457 
L 326.824396 129.339226 
L 327.910198 129.165965 
L 328.995999 128.010888 
L 330.0818 128.328534 
L 331.167601 129.39698 
L 332.253402 127.693242 
L 333.339203 128.097519 
L 334.425005 127.51998 
L 336.596607 127.231211 
L 337.682408 126.047257 
L 338.768209 126.711427 
L 339.85401 126.133888 
L 340.939811 127.635488 
L 342.025613 123.823735 
L 343.111414 124.285765 
L 344.197215 123.621596 
L 345.283016 126.133888 
L 346.368817 123.130689 
L 347.454618 124.401273 
L 348.54042 124.228012 
L 349.626221 124.632289 
L 350.712022 123.419458 
L 351.797823 123.910366 
L 352.883624 122.784166 
L 353.969425 121.946735 
L 355.055227 122.899673 
L 356.141028 121.484704 
L 357.226829 122.755289 
L 358.31263 120.96492 
L 359.398431 121.022674 
L 360.484232 120.791658 
L 361.570033 121.224812 
L 362.655835 122.177751 
L 363.741636 120.040859 
L 364.827437 121.109305 
L 365.913238 119.867597 
L 366.999039 120.185243 
L 368.08484 120.185243 
L 369.170642 121.369197 
L 370.256443 121.369197 
L 371.342244 122.899673 
L 372.428045 124.949935 
L 373.513846 124.80555 
L 374.599647 124.892181 
L 375.685448 123.650473 
L 376.77125 124.949935 
L 377.857051 123.621596 
L 378.942852 124.516781 
L 380.028653 124.978812 
L 382.200255 124.401273 
L 384.371858 125.614104 
L 385.457659 125.55635 
L 386.54346 122.986304 
L 387.629261 125.007688 
L 388.715062 125.065442 
L 389.800863 124.05475 
L 390.886665 125.209827 
L 391.972466 124.863304 
L 393.058267 125.123196 
L 394.144068 122.322135 
L 395.229869 122.813043 
L 396.31567 125.354211 
L 397.401472 125.902873 
L 398.487273 123.910366 
L 398.487273 123.910366 
" clip-path="url(#pf9013259ee)" style="fill: none; stroke: #ff7f0e; stroke-width: 1.5; stroke-linecap: square"/>
   </g>
   <g id="line2d_18">
    <path d="M 73.832727 291.999916 
L 74.918528 269.595411 
L 76.00433 266.249671 
L 77.090131 254.79848 
L 78.175932 250.855287 
L 79.261733 240.937559 
L 80.347534 233.967269 
L 81.433335 244.880752 
L 82.519137 233.708372 
L 83.604938 230.940171 
L 84.690739 226.359695 
L 85.77654 225.622835 
L 86.862341 223.252937 
L 87.948142 219.070762 
L 89.033943 217.597044 
L 90.119745 216.621203 
L 91.205546 215.864429 
L 92.291347 214.171644 
L 93.377148 212.817416 
L 94.462949 213.195803 
L 95.54875 240.399851 
L 96.634552 237.293093 
L 97.720353 246.215065 
L 98.806154 230.203312 
L 99.891955 232.334229 
L 100.977756 236.217677 
L 102.063557 232.41389 
L 103.149358 233.051173 
L 104.23516 231.079577 
L 105.320961 225.383854 
L 106.406762 229.008405 
L 107.492563 231.497794 
L 108.578364 229.585943 
L 109.664165 219.847452 
L 110.749967 223.292767 
L 111.835768 222.535992 
L 112.921569 225.56309 
L 114.00737 223.372427 
L 115.093171 217.955516 
L 116.178972 217.915686 
L 117.264773 218.473309 
L 118.350575 221.500406 
L 119.436376 218.911441 
L 120.522177 217.77628 
L 121.607978 215.525872 
L 122.693779 217.796195 
L 124.865382 211.86149 
L 125.951183 213.195803 
L 127.036984 210.92548 
L 128.122785 209.730573 
L 129.208586 209.810234 
L 130.294387 210.248366 
L 131.380189 208.914053 
L 132.46599 208.117449 
L 133.551791 207.619571 
L 135.723393 207.639486 
L 136.809194 207.281014 
L 137.894995 207.719146 
L 138.980797 229.665604 
L 140.066598 236.157931 
L 141.152399 228.470697 
L 142.2382 226.738082 
L 143.324001 228.2118 
L 144.409802 233.529136 
L 145.495604 227.474941 
L 146.581405 228.331291 
L 147.667206 227.574517 
L 149.838808 231.039747 
L 150.924609 224.646995 
L 152.01041 224.029626 
L 153.096212 224.985552 
L 154.182013 225.52326 
L 156.353615 222.197435 
L 157.439416 225.821987 
L 158.525217 220.504651 
L 159.611019 226.45927 
L 160.69682 222.695313 
L 161.782621 223.133446 
L 162.868422 223.949966 
L 163.954223 224.62708 
L 165.040024 221.380916 
L 166.125825 226.857573 
L 167.211627 216.700864 
L 168.297428 222.894465 
L 169.383229 220.38516 
L 170.46903 219.030932 
L 171.554831 223.631324 
L 172.640632 220.962698 
L 173.726434 222.277096 
L 174.812235 221.161849 
L 175.898036 220.604226 
L 176.983837 220.723717 
L 178.069638 218.75212 
L 179.155439 219.986858 
L 180.24124 216.083495 
L 181.327042 216.800439 
L 182.412843 217.218657 
L 183.498644 221.380916 
L 184.584445 217.636874 
L 185.670246 220.564396 
L 186.756047 215.306805 
L 187.841849 219.60847 
L 188.92765 213.036482 
L 190.013451 214.968249 
L 191.099252 215.744938 
L 192.185053 213.813172 
L 193.270854 214.231389 
L 194.356656 211.562764 
L 195.442457 212.538604 
L 196.528258 209.850064 
L 197.614059 208.734817 
L 198.69986 211.503018 
L 199.785661 215.28689 
L 200.871462 209.830149 
L 201.957264 208.834393 
L 203.043065 210.288196 
L 204.128866 208.137364 
L 205.214667 208.933968 
L 206.300468 208.874223 
L 207.386269 209.611082 
L 209.557872 205.209842 
L 210.643673 208.197109 
L 212.815275 206.504324 
L 213.901076 206.046277 
L 214.986877 206.803051 
L 216.072679 206.325088 
L 217.15848 205.70772 
L 218.244281 205.727635 
L 219.330082 205.150097 
L 220.415883 205.508569 
L 221.501684 204.552643 
L 222.587486 204.85137 
L 223.673287 205.78738 
L 224.759088 204.492898 
L 225.844889 233.887608 
L 226.93069 228.191885 
L 228.016491 233.150749 
L 229.102292 230.103736 
L 230.188094 225.762241 
L 231.273895 229.446538 
L 232.359696 226.698252 
L 233.445497 227.255875 
L 234.531298 227.136384 
L 235.617099 229.247386 
L 236.702901 229.267301 
L 237.788702 231.537625 
L 238.874503 222.874549 
L 239.960304 227.594432 
L 241.046105 227.893159 
L 242.131906 228.032564 
L 243.217708 223.03387 
L 244.303509 226.140628 
L 245.38931 227.096554 
L 246.475111 231.019832 
L 247.560912 227.335535 
L 248.646713 221.20168 
L 249.732514 224.248692 
L 250.818316 225.981307 
L 251.904117 227.952904 
L 252.989918 224.248692 
L 254.075719 222.934295 
L 255.16152 224.408013 
L 256.247321 221.062274 
L 257.333123 232.37406 
L 258.418924 227.773668 
L 259.504725 226.359695 
L 260.590526 223.571578 
L 261.676327 223.352512 
L 262.762128 221.779218 
L 263.847929 228.152055 
L 264.933731 219.389404 
L 266.019532 229.287217 
L 267.105333 224.7864 
L 268.191134 223.432173 
L 269.276935 223.81056 
L 270.362736 216.641118 
L 271.448538 218.373733 
L 272.534339 222.13769 
L 273.62014 220.38516 
L 274.705941 222.755059 
L 276.877543 217.676704 
L 277.963344 224.109287 
L 279.049146 222.834719 
L 280.134947 223.432173 
L 281.220748 222.575823 
L 282.306549 220.644056 
L 283.39235 222.157605 
L 284.478151 220.524566 
L 285.563953 220.186009 
L 286.649754 216.720779 
L 287.735555 219.210168 
L 288.821356 220.186009 
L 289.907157 221.400831 
L 290.992958 221.858879 
L 292.07876 221.799133 
L 293.164561 220.962698 
L 294.250362 218.5928 
L 295.336163 219.050847 
L 296.421964 218.552969 
L 297.507765 221.24151 
L 298.593566 220.46482 
L 299.679368 217.676704 
L 300.765169 217.517383 
L 301.85097 218.572884 
L 302.936771 220.166094 
L 304.022572 215.306805 
L 305.108373 213.853002 
L 306.194175 214.589861 
L 307.279976 213.912747 
L 308.365777 216.900015 
L 309.451578 217.338147 
L 310.537379 218.732205 
L 311.62318 217.497468 
L 312.708981 220.066518 
L 313.794783 218.055091 
L 314.880584 216.820354 
L 315.966385 213.833087 
L 317.052186 213.414869 
L 318.137987 214.609776 
L 319.223788 214.808928 
L 320.30959 216.680948 
L 321.395391 216.820354 
L 322.481192 217.099166 
L 323.566993 212.956822 
L 324.652794 213.295379 
L 325.738595 216.8801 
L 326.824396 214.609776 
L 327.910198 217.636874 
L 328.995999 212.518689 
L 330.0818 209.98947 
L 331.167601 212.936907 
L 332.253402 210.686499 
L 334.425005 210.746244 
L 335.510806 211.044971 
L 336.596607 208.217024 
L 337.682408 210.089045 
L 338.768209 209.192865 
L 339.85401 210.049215 
L 342.025613 210.905565 
L 343.111414 208.874223 
L 344.197215 207.778892 
L 345.283016 212.877161 
L 346.368817 208.037788 
L 347.454618 208.655157 
L 348.54042 209.431846 
L 349.626221 210.945395 
L 350.712022 207.818722 
L 351.797823 207.201353 
L 352.883624 206.305173 
L 353.969425 207.53991 
L 355.055227 209.630998 
L 356.141028 207.320844 
L 357.226829 205.906871 
L 358.31263 208.117449 
L 359.398431 206.962372 
L 360.484232 204.731879 
L 361.570033 205.727635 
L 362.655835 205.588229 
L 363.741636 204.174256 
L 364.827437 203.576802 
L 365.913238 207.042033 
L 366.999039 205.110266 
L 368.08484 206.52424 
L 369.170642 205.946701 
L 370.256443 207.519995 
L 371.342244 207.818722 
L 372.428045 210.686499 
L 373.513846 208.973799 
L 374.599647 205.628059 
L 375.685448 209.889894 
L 376.77125 210.407687 
L 377.857051 209.630998 
L 378.942852 208.575496 
L 380.028653 210.308111 
L 381.114454 209.232695 
L 382.200255 210.686499 
L 383.286057 209.531422 
L 384.371858 212.996652 
L 385.457659 208.834393 
L 388.715062 210.865735 
L 389.800863 209.630998 
L 390.886665 210.825904 
L 391.972466 210.387772 
L 393.058267 207.997958 
L 394.144068 211.064886 
L 395.229869 209.650913 
L 396.31567 211.005141 
L 397.401472 209.332271 
L 398.487273 211.503018 
L 398.487273 211.503018 
" clip-path="url(#pf9013259ee)" style="fill: none; stroke: #2ca02c; stroke-width: 1.5; stroke-linecap: square"/>
   </g>
   <g id="line2d_19">
    <path d="M 368.08484 119.694336 
L 369.170642 119.347813 
L 370.256443 120.242997 
L 371.342244 121.946735 
L 372.428045 122.639781 
L 373.513846 122.55315 
L 374.599647 124.834427 
L 375.685448 122.957427 
L 376.77125 124.199135 
L 377.857051 126.364904 
L 378.942852 125.411965 
L 380.028653 128.357411 
L 381.114454 130.14778 
L 382.200255 130.263287 
L 383.286057 131.158472 
L 384.371858 131.533872 
L 385.457659 140.225824 
L 386.54346 141.554162 
L 387.629261 145.308161 
L 388.715062 147.762699 
L 389.800863 144.470731 
L 390.886665 152.354129 
L 391.972466 152.094237 
L 393.058267 153.913483 
L 394.144068 154.77979 
L 395.229869 165.666388 
L 396.31567 165.83965 
L 397.401472 170.80648 
L 398.487273 179.469555 
L 398.487273 179.469555 
" clip-path="url(#pf9013259ee)" style="fill: none; stroke: #d62728; stroke-width: 1.5; stroke-linecap: square"/>
   </g>
   <g id="line2d_20">
    <path d="M 368.08484 204.97086 
L 369.170642 203.317906 
L 370.256443 204.81154 
L 371.342244 207.898382 
L 372.428045 205.249672 
L 373.513846 206.086107 
L 374.599647 205.428908 
L 376.77125 207.121693 
L 377.857051 206.544155 
L 378.942852 207.380589 
L 380.028653 211.642424 
L 381.114454 210.865735 
L 382.200255 214.749182 
L 383.286057 216.242816 
L 384.371858 215.964004 
L 385.457659 223.511833 
L 386.54346 223.312682 
L 387.629261 224.248692 
L 388.715062 225.543175 
L 389.800863 225.443599 
L 390.886665 229.287217 
L 391.972466 227.972819 
L 393.058267 230.043991 
L 394.144068 232.433805 
L 395.229869 239.762567 
L 396.31567 239.682907 
L 398.487273 246.852349 
L 398.487273 246.852349 
" clip-path="url(#pf9013259ee)" style="fill: none; stroke: #9467bd; stroke-width: 1.5; stroke-linecap: square"/>
   </g>
   <g id="patch_3">
    <path d="M 57.6 307.584 
L 57.6 41.472 
" style="fill: none; stroke: #000000; stroke-width: 0.8; stroke-linejoin: miter; stroke-linecap: square"/>
   </g>
   <g id="patch_4">
    <path d="M 414.72 307.584 
L 414.72 41.472 
" style="fill: none; stroke: #000000; stroke-width: 0.8; stroke-linejoin: miter; stroke-linecap: square"/>
   </g>
   <g id="patch_5">
    <path d="M 57.6 307.584 
L 414.72 307.584 
" style="fill: none; stroke: #000000; stroke-width: 0.8; stroke-linejoin: miter; stroke-linecap: square"/>
   </g>
   <g id="patch_6">
    <path d="M 57.6 41.472 
L 414.72 41.472 
" style="fill: none; stroke: #000000; stroke-width: 0.8; stroke-linejoin: miter; stroke-linecap: square"/>
   </g>
   <g id="text_18">
    <!-- Learning Curves -->
    <g transform="translate(187.37625 35.472) scale(0.12 -0.12)">
     <defs>
      <path id="DejaVuSans-4c" d="M 628 4666 
L 1259 4666 
L 1259 531 
L 3531 531 
L 3531 0 
L 628 0 
L 628 4666 
z
" transform="scale(0.015625)"/>
      <path id="DejaVuSans-65" d="M 3597 1894 
L 3597 1613 
L 953 1613 
Q 991 1019 1311 708 
Q 1631 397 2203 397 
Q 2534 397 2845 478 
Q 3156 559 3463 722 
L 3463 178 
Q 3153 47 2828 -22 
Q 2503 -91 2169 -91 
Q 1331 -91 842 396 
Q 353 884 353 1716 
Q 353 2575 817 3079 
Q 1281 3584 2069 3584 
Q 2775 3584 3186 3129 
Q 3597 2675 3597 1894 
z
M 3022 2063 
Q 3016 2534 2758 2815 
Q 2500 3097 2075 3097 
Q 1594 3097 1305 2825 
Q 1016 2553 972 2059 
L 3022 2063 
z
" transform="scale(0.015625)"/>
      <path id="DejaVuSans-6e" d="M 3513 2113 
L 3513 0 
L 2938 0 
L 2938 2094 
Q 2938 2591 2744 2837 
Q 2550 3084 2163 3084 
Q 1697 3084 1428 2787 
Q 1159 2491 1159 1978 
L 1159 0 
L 581 0 
L 581 3500 
L 1159 3500 
L 1159 2956 
Q 1366 3272 1645 3428 
Q 1925 3584 2291 3584 
Q 2894 3584 3203 3211 
Q 3513 2838 3513 2113 
z
" transform="scale(0.015625)"/>
      <path id="DejaVuSans-69" d="M 603 3500 
L 1178 3500 
L 1178 0 
L 603 0 
L 603 3500 
z
M 603 4863 
L 1178 4863 
L 1178 4134 
L 603 4134 
L 603 4863 
z
" transform="scale(0.015625)"/>
      <path id="DejaVuSans-67" d="M 2906 1791 
Q 2906 2416 2648 2759 
Q 2391 3103 1925 3103 
Q 1463 3103 1205 2759 
Q 947 2416 947 1791 
Q 947 1169 1205 825 
Q 1463 481 1925 481 
Q 2391 481 2648 825 
Q 2906 1169 2906 1791 
z
M 3481 434 
Q 3481 -459 3084 -895 
Q 2688 -1331 1869 -1331 
Q 1566 -1331 1297 -1286 
Q 1028 -1241 775 -1147 
L 775 -588 
Q 1028 -725 1275 -790 
Q 1522 -856 1778 -856 
Q 2344 -856 2625 -561 
Q 2906 -266 2906 331 
L 2906 616 
Q 2728 306 2450 153 
Q 2172 0 1784 0 
Q 1141 0 747 490 
Q 353 981 353 1791 
Q 353 2603 747 3093 
Q 1141 3584 1784 3584 
Q 2172 3584 2450 3431 
Q 2728 3278 2906 2969 
L 2906 3500 
L 3481 3500 
L 3481 434 
z
" transform="scale(0.015625)"/>
      <path id="DejaVuSans-20" transform="scale(0.015625)"/>
      <path id="DejaVuSans-43" d="M 4122 4306 
L 4122 3641 
Q 3803 3938 3442 4084 
Q 3081 4231 2675 4231 
Q 1875 4231 1450 3742 
Q 1025 3253 1025 2328 
Q 1025 1406 1450 917 
Q 1875 428 2675 428 
Q 3081 428 3442 575 
Q 3803 722 4122 1019 
L 4122 359 
Q 3791 134 3420 21 
Q 3050 -91 2638 -91 
Q 1578 -91 968 557 
Q 359 1206 359 2328 
Q 359 3453 968 4101 
Q 1578 4750 2638 4750 
Q 3056 4750 3426 4639 
Q 3797 4528 4122 4306 
z
" transform="scale(0.015625)"/>
      <path id="DejaVuSans-76" d="M 191 3500 
L 800 3500 
L 1894 563 
L 2988 3500 
L 3597 3500 
L 2284 0 
L 1503 0 
L 191 3500 
z
" transform="scale(0.015625)"/>
     </defs>
     <use xlink:href="#DejaVuSans-4c"/>
     <use xlink:href="#DejaVuSans-65" x="53.962891"/>
     <use xlink:href="#DejaVuSans-61" x="115.486328"/>
     <use xlink:href="#DejaVuSans-72" x="176.765625"/>
     <use xlink:href="#DejaVuSans-6e" x="216.128906"/>
     <use xlink:href="#DejaVuSans-69" x="279.507812"/>
     <use xlink:href="#DejaVuSans-6e" x="307.291016"/>
     <use xlink:href="#DejaVuSans-67" x="370.669922"/>
     <use xlink:href="#DejaVuSans-20" x="434.146484"/>
     <use xlink:href="#DejaVuSans-43" x="465.933594"/>
     <use xlink:href="#DejaVuSans-75" x="535.757812"/>
     <use xlink:href="#DejaVuSans-72" x="599.136719"/>
     <use xlink:href="#DejaVuSans-76" x="640.25"/>
     <use xlink:href="#DejaVuSans-65" x="699.429688"/>
     <use xlink:href="#DejaVuSans-73" x="760.953125"/>
    </g>
   </g>
   <g id="legend_1">
    <g id="patch_7">
     <path d="M 214.18875 302.584 
L 407.72 302.584 
Q 409.72 302.584 409.72 300.584 
L 409.72 228.193375 
Q 409.72 226.193375 407.72 226.193375 
L 214.18875 226.193375 
Q 212.18875 226.193375 212.18875 228.193375 
L 212.18875 300.584 
Q 212.18875 302.584 214.18875 302.584 
z
" style="fill: #ffffff; opacity: 0.8; stroke: #cccccc; stroke-linejoin: miter"/>
    </g>
    <g id="line2d_21">
     <path d="M 216.18875 234.291812 
L 226.18875 234.291812 
L 236.18875 234.291812 
" style="fill: none; stroke: #1f77b4; stroke-width: 1.5; stroke-linecap: square"/>
    </g>
    <g id="text_19">
     <!-- Train Accuracy -->
     <g transform="translate(244.18875 237.791812) scale(0.1 -0.1)">
      <defs>
       <path id="DejaVuSans-54" d="M -19 4666 
L 3928 4666 
L 3928 4134 
L 2272 4134 
L 2272 0 
L 1638 0 
L 1638 4134 
L -19 4134 
L -19 4666 
z
" transform="scale(0.015625)"/>
      </defs>
      <use xlink:href="#DejaVuSans-54"/>
      <use xlink:href="#DejaVuSans-72" x="46.333984"/>
      <use xlink:href="#DejaVuSans-61" x="87.447266"/>
      <use xlink:href="#DejaVuSans-69" x="148.726562"/>
      <use xlink:href="#DejaVuSans-6e" x="176.509766"/>
      <use xlink:href="#DejaVuSans-20" x="239.888672"/>
      <use xlink:href="#DejaVuSans-41" x="271.675781"/>
      <use xlink:href="#DejaVuSans-63" x="338.333984"/>
      <use xlink:href="#DejaVuSans-63" x="393.314453"/>
      <use xlink:href="#DejaVuSans-75" x="448.294922"/>
      <use xlink:href="#DejaVuSans-72" x="511.673828"/>
      <use xlink:href="#DejaVuSans-61" x="552.787109"/>
      <use xlink:href="#DejaVuSans-63" x="614.066406"/>
      <use xlink:href="#DejaVuSans-79" x="669.046875"/>
     </g>
    </g>
    <g id="line2d_22">
     <path d="M 216.18875 248.969937 
L 226.18875 248.969937 
L 236.18875 248.969937 
" style="fill: none; stroke: #ff7f0e; stroke-width: 1.5; stroke-linecap: square"/>
    </g>
    <g id="text_20">
     <!-- Validation Accuracy -->
     <g transform="translate(244.18875 252.469937) scale(0.1 -0.1)">
      <defs>
       <path id="DejaVuSans-56" d="M 1831 0 
L 50 4666 
L 709 4666 
L 2188 738 
L 3669 4666 
L 4325 4666 
L 2547 0 
L 1831 0 
z
" transform="scale(0.015625)"/>
       <path id="DejaVuSans-6c" d="M 603 4863 
L 1178 4863 
L 1178 0 
L 603 0 
L 603 4863 
z
" transform="scale(0.015625)"/>
       <path id="DejaVuSans-64" d="M 2906 2969 
L 2906 4863 
L 3481 4863 
L 3481 0 
L 2906 0 
L 2906 525 
Q 2725 213 2448 61 
Q 2172 -91 1784 -91 
Q 1150 -91 751 415 
Q 353 922 353 1747 
Q 353 2572 751 3078 
Q 1150 3584 1784 3584 
Q 2172 3584 2448 3432 
Q 2725 3281 2906 2969 
z
M 947 1747 
Q 947 1113 1208 752 
Q 1469 391 1925 391 
Q 2381 391 2643 752 
Q 2906 1113 2906 1747 
Q 2906 2381 2643 2742 
Q 2381 3103 1925 3103 
Q 1469 3103 1208 2742 
Q 947 2381 947 1747 
z
" transform="scale(0.015625)"/>
       <path id="DejaVuSans-74" d="M 1172 4494 
L 1172 3500 
L 2356 3500 
L 2356 3053 
L 1172 3053 
L 1172 1153 
Q 1172 725 1289 603 
Q 1406 481 1766 481 
L 2356 481 
L 2356 0 
L 1766 0 
Q 1100 0 847 248 
Q 594 497 594 1153 
L 594 3053 
L 172 3053 
L 172 3500 
L 594 3500 
L 594 4494 
L 1172 4494 
z
" transform="scale(0.015625)"/>
      </defs>
      <use xlink:href="#DejaVuSans-56"/>
      <use xlink:href="#DejaVuSans-61" x="60.658203"/>
      <use xlink:href="#DejaVuSans-6c" x="121.9375"/>
      <use xlink:href="#DejaVuSans-69" x="149.720703"/>
      <use xlink:href="#DejaVuSans-64" x="177.503906"/>
      <use xlink:href="#DejaVuSans-61" x="240.980469"/>
      <use xlink:href="#DejaVuSans-74" x="302.259766"/>
      <use xlink:href="#DejaVuSans-69" x="341.46875"/>
      <use xlink:href="#DejaVuSans-6f" x="369.251953"/>
      <use xlink:href="#DejaVuSans-6e" x="430.433594"/>
      <use xlink:href="#DejaVuSans-20" x="493.8125"/>
      <use xlink:href="#DejaVuSans-41" x="525.599609"/>
      <use xlink:href="#DejaVuSans-63" x="592.257812"/>
      <use xlink:href="#DejaVuSans-63" x="647.238281"/>
      <use xlink:href="#DejaVuSans-75" x="702.21875"/>
      <use xlink:href="#DejaVuSans-72" x="765.597656"/>
      <use xlink:href="#DejaVuSans-61" x="806.710938"/>
      <use xlink:href="#DejaVuSans-63" x="867.990234"/>
      <use xlink:href="#DejaVuSans-79" x="922.970703"/>
     </g>
    </g>
    <g id="line2d_23">
     <path d="M 216.18875 263.648062 
L 226.18875 263.648062 
L 236.18875 263.648062 
" style="fill: none; stroke: #2ca02c; stroke-width: 1.5; stroke-linecap: square"/>
    </g>
    <g id="text_21">
     <!-- Robust Validation Accuracy -->
     <g transform="translate(244.18875 267.148062) scale(0.1 -0.1)">
      <defs>
       <path id="DejaVuSans-52" d="M 2841 2188 
Q 3044 2119 3236 1894 
Q 3428 1669 3622 1275 
L 4263 0 
L 3584 0 
L 2988 1197 
Q 2756 1666 2539 1819 
Q 2322 1972 1947 1972 
L 1259 1972 
L 1259 0 
L 628 0 
L 628 4666 
L 2053 4666 
Q 2853 4666 3247 4331 
Q 3641 3997 3641 3322 
Q 3641 2881 3436 2590 
Q 3231 2300 2841 2188 
z
M 1259 4147 
L 1259 2491 
L 2053 2491 
Q 2509 2491 2742 2702 
Q 2975 2913 2975 3322 
Q 2975 3731 2742 3939 
Q 2509 4147 2053 4147 
L 1259 4147 
z
" transform="scale(0.015625)"/>
       <path id="DejaVuSans-62" d="M 3116 1747 
Q 3116 2381 2855 2742 
Q 2594 3103 2138 3103 
Q 1681 3103 1420 2742 
Q 1159 2381 1159 1747 
Q 1159 1113 1420 752 
Q 1681 391 2138 391 
Q 2594 391 2855 752 
Q 3116 1113 3116 1747 
z
M 1159 2969 
Q 1341 3281 1617 3432 
Q 1894 3584 2278 3584 
Q 2916 3584 3314 3078 
Q 3713 2572 3713 1747 
Q 3713 922 3314 415 
Q 2916 -91 2278 -91 
Q 1894 -91 1617 61 
Q 1341 213 1159 525 
L 1159 0 
L 581 0 
L 581 4863 
L 1159 4863 
L 1159 2969 
z
" transform="scale(0.015625)"/>
      </defs>
      <use xlink:href="#DejaVuSans-52"/>
      <use xlink:href="#DejaVuSans-6f" x="64.982422"/>
      <use xlink:href="#DejaVuSans-62" x="126.164062"/>
      <use xlink:href="#DejaVuSans-75" x="189.640625"/>
      <use xlink:href="#DejaVuSans-73" x="253.019531"/>
      <use xlink:href="#DejaVuSans-74" x="305.119141"/>
      <use xlink:href="#DejaVuSans-20" x="344.328125"/>
      <use xlink:href="#DejaVuSans-56" x="376.115234"/>
      <use xlink:href="#DejaVuSans-61" x="436.773438"/>
      <use xlink:href="#DejaVuSans-6c" x="498.052734"/>
      <use xlink:href="#DejaVuSans-69" x="525.835938"/>
      <use xlink:href="#DejaVuSans-64" x="553.619141"/>
      <use xlink:href="#DejaVuSans-61" x="617.095703"/>
      <use xlink:href="#DejaVuSans-74" x="678.375"/>
      <use xlink:href="#DejaVuSans-69" x="717.583984"/>
      <use xlink:href="#DejaVuSans-6f" x="745.367188"/>
      <use xlink:href="#DejaVuSans-6e" x="806.548828"/>
      <use xlink:href="#DejaVuSans-20" x="869.927734"/>
      <use xlink:href="#DejaVuSans-41" x="901.714844"/>
      <use xlink:href="#DejaVuSans-63" x="968.373047"/>
      <use xlink:href="#DejaVuSans-63" x="1023.353516"/>
      <use xlink:href="#DejaVuSans-75" x="1078.333984"/>
      <use xlink:href="#DejaVuSans-72" x="1141.712891"/>
      <use xlink:href="#DejaVuSans-61" x="1182.826172"/>
      <use xlink:href="#DejaVuSans-63" x="1244.105469"/>
      <use xlink:href="#DejaVuSans-79" x="1299.085938"/>
     </g>
    </g>
    <g id="line2d_24">
     <path d="M 216.18875 278.326188 
L 226.18875 278.326188 
L 236.18875 278.326188 
" style="fill: none; stroke: #d62728; stroke-width: 1.5; stroke-linecap: square"/>
    </g>
    <g id="text_22">
     <!-- SWA Validation Accuracy -->
     <g transform="translate(244.18875 281.826188) scale(0.1 -0.1)">
      <defs>
       <path id="DejaVuSans-53" d="M 3425 4513 
L 3425 3897 
Q 3066 4069 2747 4153 
Q 2428 4238 2131 4238 
Q 1616 4238 1336 4038 
Q 1056 3838 1056 3469 
Q 1056 3159 1242 3001 
Q 1428 2844 1947 2747 
L 2328 2669 
Q 3034 2534 3370 2195 
Q 3706 1856 3706 1288 
Q 3706 609 3251 259 
Q 2797 -91 1919 -91 
Q 1588 -91 1214 -16 
Q 841 59 441 206 
L 441 856 
Q 825 641 1194 531 
Q 1563 422 1919 422 
Q 2459 422 2753 634 
Q 3047 847 3047 1241 
Q 3047 1584 2836 1778 
Q 2625 1972 2144 2069 
L 1759 2144 
Q 1053 2284 737 2584 
Q 422 2884 422 3419 
Q 422 4038 858 4394 
Q 1294 4750 2059 4750 
Q 2388 4750 2728 4690 
Q 3069 4631 3425 4513 
z
" transform="scale(0.015625)"/>
       <path id="DejaVuSans-57" d="M 213 4666 
L 850 4666 
L 1831 722 
L 2809 4666 
L 3519 4666 
L 4500 722 
L 5478 4666 
L 6119 4666 
L 4947 0 
L 4153 0 
L 3169 4050 
L 2175 0 
L 1381 0 
L 213 4666 
z
" transform="scale(0.015625)"/>
      </defs>
      <use xlink:href="#DejaVuSans-53"/>
      <use xlink:href="#DejaVuSans-57" x="63.476562"/>
      <use xlink:href="#DejaVuSans-41" x="156.853516"/>
      <use xlink:href="#DejaVuSans-20" x="225.261719"/>
      <use xlink:href="#DejaVuSans-56" x="257.048828"/>
      <use xlink:href="#DejaVuSans-61" x="317.707031"/>
      <use xlink:href="#DejaVuSans-6c" x="378.986328"/>
      <use xlink:href="#DejaVuSans-69" x="406.769531"/>
      <use xlink:href="#DejaVuSans-64" x="434.552734"/>
      <use xlink:href="#DejaVuSans-61" x="498.029297"/>
      <use xlink:href="#DejaVuSans-74" x="559.308594"/>
      <use xlink:href="#DejaVuSans-69" x="598.517578"/>
      <use xlink:href="#DejaVuSans-6f" x="626.300781"/>
      <use xlink:href="#DejaVuSans-6e" x="687.482422"/>
      <use xlink:href="#DejaVuSans-20" x="750.861328"/>
      <use xlink:href="#DejaVuSans-41" x="782.648438"/>
      <use xlink:href="#DejaVuSans-63" x="849.306641"/>
      <use xlink:href="#DejaVuSans-63" x="904.287109"/>
      <use xlink:href="#DejaVuSans-75" x="959.267578"/>
      <use xlink:href="#DejaVuSans-72" x="1022.646484"/>
      <use xlink:href="#DejaVuSans-61" x="1063.759766"/>
      <use xlink:href="#DejaVuSans-63" x="1125.039062"/>
      <use xlink:href="#DejaVuSans-79" x="1180.019531"/>
     </g>
    </g>
    <g id="line2d_25">
     <path d="M 216.18875 293.004312 
L 226.18875 293.004312 
L 236.18875 293.004312 
" style="fill: none; stroke: #9467bd; stroke-width: 1.5; stroke-linecap: square"/>
    </g>
    <g id="text_23">
     <!-- SWA Robust Validation Accuracy -->
     <g transform="translate(244.18875 296.504312) scale(0.1 -0.1)">
      <use xlink:href="#DejaVuSans-53"/>
      <use xlink:href="#DejaVuSans-57" x="63.476562"/>
      <use xlink:href="#DejaVuSans-41" x="156.853516"/>
      <use xlink:href="#DejaVuSans-20" x="225.261719"/>
      <use xlink:href="#DejaVuSans-52" x="257.048828"/>
      <use xlink:href="#DejaVuSans-6f" x="322.03125"/>
      <use xlink:href="#DejaVuSans-62" x="383.212891"/>
      <use xlink:href="#DejaVuSans-75" x="446.689453"/>
      <use xlink:href="#DejaVuSans-73" x="510.068359"/>
      <use xlink:href="#DejaVuSans-74" x="562.167969"/>
      <use xlink:href="#DejaVuSans-20" x="601.376953"/>
      <use xlink:href="#DejaVuSans-56" x="633.164062"/>
      <use xlink:href="#DejaVuSans-61" x="693.822266"/>
      <use xlink:href="#DejaVuSans-6c" x="755.101562"/>
      <use xlink:href="#DejaVuSans-69" x="782.884766"/>
      <use xlink:href="#DejaVuSans-64" x="810.667969"/>
      <use xlink:href="#DejaVuSans-61" x="874.144531"/>
      <use xlink:href="#DejaVuSans-74" x="935.423828"/>
      <use xlink:href="#DejaVuSans-69" x="974.632812"/>
      <use xlink:href="#DejaVuSans-6f" x="1002.416016"/>
      <use xlink:href="#DejaVuSans-6e" x="1063.597656"/>
      <use xlink:href="#DejaVuSans-20" x="1126.976562"/>
      <use xlink:href="#DejaVuSans-41" x="1158.763672"/>
      <use xlink:href="#DejaVuSans-63" x="1225.421875"/>
      <use xlink:href="#DejaVuSans-63" x="1280.402344"/>
      <use xlink:href="#DejaVuSans-75" x="1335.382812"/>
      <use xlink:href="#DejaVuSans-72" x="1398.761719"/>
      <use xlink:href="#DejaVuSans-61" x="1439.875"/>
      <use xlink:href="#DejaVuSans-63" x="1501.154297"/>
      <use xlink:href="#DejaVuSans-79" x="1556.134766"/>
     </g>
    </g>
   </g>
  </g>
 </g>
 <defs>
  <clipPath id="pf9013259ee">
   <rect x="57.6" y="41.472" width="357.12" height="266.112"/>
  </clipPath>
 </defs>
</svg>
