<?xml version="1.0" encoding="utf-8" standalone="no"?>
<!DOCTYPE svg PUBLIC "-//W3C//DTD SVG 1.1//EN"
  "http://www.w3.org/Graphics/SVG/1.1/DTD/svg11.dtd">
<svg xmlns:xlink="http://www.w3.org/1999/xlink" width="460.8pt" height="345.6pt" viewBox="0 0 460.8 345.6" xmlns="http://www.w3.org/2000/svg" version="1.1">
 <metadata>
  <rdf:RDF xmlns:dc="http://purl.org/dc/elements/1.1/" xmlns:cc="http://creativecommons.org/ns#" xmlns:rdf="http://www.w3.org/1999/02/22-rdf-syntax-ns#">
   <cc:Work>
    <dc:type rdf:resource="http://purl.org/dc/dcmitype/StillImage"/>
    <dc:date>2025-01-09T22:14:34.727258</dc:date>
    <dc:format>image/svg+xml</dc:format>
    <dc:creator>
     <cc:Agent>
      <dc:title>Matplotlib v3.9.1, https://matplotlib.org/</dc:title>
     </cc:Agent>
    </dc:creator>
   </cc:Work>
  </rdf:RDF>
 </metadata>
 <defs>
  <style type="text/css">*{stroke-linejoin: round; stroke-linecap: butt}</style>
 </defs>
 <g id="figure_1">
  <g id="patch_1">
   <path d="M 0 345.6 
L 460.8 345.6 
L 460.8 0 
L 0 0 
z
" style="fill: #ffffff"/>
  </g>
  <g id="axes_1">
   <g id="patch_2">
    <path d="M 57.6 307.584 
L 414.72 307.584 
L 414.72 41.472 
L 57.6 41.472 
z
" style="fill: #ffffff"/>
   </g>
   <g id="matplotlib.axis_1">
    <g id="xtick_1">
     <g id="line2d_1">
      <defs>
       <path id="m01f9c0a27d" d="M 0 0 
L 0 3.5 
" style="stroke: #000000; stroke-width: 0.8"/>
      </defs>
      <g>
       <use xlink:href="#m01f9c0a27d" x="73.832727" y="307.584" style="stroke: #000000; stroke-width: 0.8"/>
      </g>
     </g>
     <g id="text_1">
      <!-- 1 -->
      <g transform="translate(70.651477 322.182437) scale(0.1 -0.1)">
       <defs>
        <path id="DejaVuSans-31" d="M 794 531 
L 1825 531 
L 1825 4091 
L 703 3866 
L 703 4441 
L 1819 4666 
L 2450 4666 
L 2450 531 
L 3481 531 
L 3481 0 
L 794 0 
L 794 531 
z
" transform="scale(0.015625)"/>
       </defs>
       <use xlink:href="#DejaVuSans-31"/>
      </g>
     </g>
    </g>
    <g id="xtick_2">
     <g id="line2d_2">
      <g>
       <use xlink:href="#m01f9c0a27d" x="109.664165" y="307.584" style="stroke: #000000; stroke-width: 0.8"/>
      </g>
     </g>
     <g id="text_2">
      <!-- 34 -->
      <g transform="translate(103.301665 322.182437) scale(0.1 -0.1)">
       <defs>
        <path id="DejaVuSans-33" d="M 2597 2516 
Q 3050 2419 3304 2112 
Q 3559 1806 3559 1356 
Q 3559 666 3084 287 
Q 2609 -91 1734 -91 
Q 1441 -91 1130 -33 
Q 819 25 488 141 
L 488 750 
Q 750 597 1062 519 
Q 1375 441 1716 441 
Q 2309 441 2620 675 
Q 2931 909 2931 1356 
Q 2931 1769 2642 2001 
Q 2353 2234 1838 2234 
L 1294 2234 
L 1294 2753 
L 1863 2753 
Q 2328 2753 2575 2939 
Q 2822 3125 2822 3475 
Q 2822 3834 2567 4026 
Q 2313 4219 1838 4219 
Q 1578 4219 1281 4162 
Q 984 4106 628 3988 
L 628 4550 
Q 988 4650 1302 4700 
Q 1616 4750 1894 4750 
Q 2613 4750 3031 4423 
Q 3450 4097 3450 3541 
Q 3450 3153 3228 2886 
Q 3006 2619 2597 2516 
z
" transform="scale(0.015625)"/>
        <path id="DejaVuSans-34" d="M 2419 4116 
L 825 1625 
L 2419 1625 
L 2419 4116 
z
M 2253 4666 
L 3047 4666 
L 3047 1625 
L 3713 1625 
L 3713 1100 
L 3047 1100 
L 3047 0 
L 2419 0 
L 2419 1100 
L 313 1100 
L 313 1709 
L 2253 4666 
z
" transform="scale(0.015625)"/>
       </defs>
       <use xlink:href="#DejaVuSans-33"/>
       <use xlink:href="#DejaVuSans-34" x="63.623047"/>
      </g>
     </g>
    </g>
    <g id="xtick_3">
     <g id="line2d_3">
      <g>
       <use xlink:href="#m01f9c0a27d" x="145.495604" y="307.584" style="stroke: #000000; stroke-width: 0.8"/>
      </g>
     </g>
     <g id="text_3">
      <!-- 67 -->
      <g transform="translate(139.133104 322.182437) scale(0.1 -0.1)">
       <defs>
        <path id="DejaVuSans-36" d="M 2113 2584 
Q 1688 2584 1439 2293 
Q 1191 2003 1191 1497 
Q 1191 994 1439 701 
Q 1688 409 2113 409 
Q 2538 409 2786 701 
Q 3034 994 3034 1497 
Q 3034 2003 2786 2293 
Q 2538 2584 2113 2584 
z
M 3366 4563 
L 3366 3988 
Q 3128 4100 2886 4159 
Q 2644 4219 2406 4219 
Q 1781 4219 1451 3797 
Q 1122 3375 1075 2522 
Q 1259 2794 1537 2939 
Q 1816 3084 2150 3084 
Q 2853 3084 3261 2657 
Q 3669 2231 3669 1497 
Q 3669 778 3244 343 
Q 2819 -91 2113 -91 
Q 1303 -91 875 529 
Q 447 1150 447 2328 
Q 447 3434 972 4092 
Q 1497 4750 2381 4750 
Q 2619 4750 2861 4703 
Q 3103 4656 3366 4563 
z
" transform="scale(0.015625)"/>
        <path id="DejaVuSans-37" d="M 525 4666 
L 3525 4666 
L 3525 4397 
L 1831 0 
L 1172 0 
L 2766 4134 
L 525 4134 
L 525 4666 
z
" transform="scale(0.015625)"/>
       </defs>
       <use xlink:href="#DejaVuSans-36"/>
       <use xlink:href="#DejaVuSans-37" x="63.623047"/>
      </g>
     </g>
    </g>
    <g id="xtick_4">
     <g id="line2d_4">
      <g>
       <use xlink:href="#m01f9c0a27d" x="181.327042" y="307.584" style="stroke: #000000; stroke-width: 0.8"/>
      </g>
     </g>
     <g id="text_4">
      <!-- 100 -->
      <g transform="translate(171.783292 322.182437) scale(0.1 -0.1)">
       <defs>
        <path id="DejaVuSans-30" d="M 2034 4250 
Q 1547 4250 1301 3770 
Q 1056 3291 1056 2328 
Q 1056 1369 1301 889 
Q 1547 409 2034 409 
Q 2525 409 2770 889 
Q 3016 1369 3016 2328 
Q 3016 3291 2770 3770 
Q 2525 4250 2034 4250 
z
M 2034 4750 
Q 2819 4750 3233 4129 
Q 3647 3509 3647 2328 
Q 3647 1150 3233 529 
Q 2819 -91 2034 -91 
Q 1250 -91 836 529 
Q 422 1150 422 2328 
Q 422 3509 836 4129 
Q 1250 4750 2034 4750 
z
" transform="scale(0.015625)"/>
       </defs>
       <use xlink:href="#DejaVuSans-31"/>
       <use xlink:href="#DejaVuSans-30" x="63.623047"/>
       <use xlink:href="#DejaVuSans-30" x="127.246094"/>
      </g>
     </g>
    </g>
    <g id="xtick_5">
     <g id="line2d_5">
      <g>
       <use xlink:href="#m01f9c0a27d" x="217.15848" y="307.584" style="stroke: #000000; stroke-width: 0.8"/>
      </g>
     </g>
     <g id="text_5">
      <!-- 133 -->
      <g transform="translate(207.61473 322.182437) scale(0.1 -0.1)">
       <use xlink:href="#DejaVuSans-31"/>
       <use xlink:href="#DejaVuSans-33" x="63.623047"/>
       <use xlink:href="#DejaVuSans-33" x="127.246094"/>
      </g>
     </g>
    </g>
    <g id="xtick_6">
     <g id="line2d_6">
      <g>
       <use xlink:href="#m01f9c0a27d" x="254.075719" y="307.584" style="stroke: #000000; stroke-width: 0.8"/>
      </g>
     </g>
     <g id="text_6">
      <!-- 167 -->
      <g transform="translate(244.531969 322.182437) scale(0.1 -0.1)">
       <use xlink:href="#DejaVuSans-31"/>
       <use xlink:href="#DejaVuSans-36" x="63.623047"/>
       <use xlink:href="#DejaVuSans-37" x="127.246094"/>
      </g>
     </g>
    </g>
    <g id="xtick_7">
     <g id="line2d_7">
      <g>
       <use xlink:href="#m01f9c0a27d" x="289.907157" y="307.584" style="stroke: #000000; stroke-width: 0.8"/>
      </g>
     </g>
     <g id="text_7">
      <!-- 200 -->
      <g transform="translate(280.363407 322.182437) scale(0.1 -0.1)">
       <defs>
        <path id="DejaVuSans-32" d="M 1228 531 
L 3431 531 
L 3431 0 
L 469 0 
L 469 531 
Q 828 903 1448 1529 
Q 2069 2156 2228 2338 
Q 2531 2678 2651 2914 
Q 2772 3150 2772 3378 
Q 2772 3750 2511 3984 
Q 2250 4219 1831 4219 
Q 1534 4219 1204 4116 
Q 875 4013 500 3803 
L 500 4441 
Q 881 4594 1212 4672 
Q 1544 4750 1819 4750 
Q 2544 4750 2975 4387 
Q 3406 4025 3406 3419 
Q 3406 3131 3298 2873 
Q 3191 2616 2906 2266 
Q 2828 2175 2409 1742 
Q 1991 1309 1228 531 
z
" transform="scale(0.015625)"/>
       </defs>
       <use xlink:href="#DejaVuSans-32"/>
       <use xlink:href="#DejaVuSans-30" x="63.623047"/>
       <use xlink:href="#DejaVuSans-30" x="127.246094"/>
      </g>
     </g>
    </g>
    <g id="xtick_8">
     <g id="line2d_8">
      <g>
       <use xlink:href="#m01f9c0a27d" x="325.738595" y="307.584" style="stroke: #000000; stroke-width: 0.8"/>
      </g>
     </g>
     <g id="text_8">
      <!-- 233 -->
      <g transform="translate(316.194845 322.182437) scale(0.1 -0.1)">
       <use xlink:href="#DejaVuSans-32"/>
       <use xlink:href="#DejaVuSans-33" x="63.623047"/>
       <use xlink:href="#DejaVuSans-33" x="127.246094"/>
      </g>
     </g>
    </g>
    <g id="xtick_9">
     <g id="line2d_9">
      <g>
       <use xlink:href="#m01f9c0a27d" x="361.570033" y="307.584" style="stroke: #000000; stroke-width: 0.8"/>
      </g>
     </g>
     <g id="text_9">
      <!-- 266 -->
      <g transform="translate(352.026283 322.182437) scale(0.1 -0.1)">
       <use xlink:href="#DejaVuSans-32"/>
       <use xlink:href="#DejaVuSans-36" x="63.623047"/>
       <use xlink:href="#DejaVuSans-36" x="127.246094"/>
      </g>
     </g>
    </g>
    <g id="xtick_10">
     <g id="line2d_10">
      <g>
       <use xlink:href="#m01f9c0a27d" x="398.487273" y="307.584" style="stroke: #000000; stroke-width: 0.8"/>
      </g>
     </g>
     <g id="text_10">
      <!-- 300 -->
      <g transform="translate(388.943523 322.182437) scale(0.1 -0.1)">
       <use xlink:href="#DejaVuSans-33"/>
       <use xlink:href="#DejaVuSans-30" x="63.623047"/>
       <use xlink:href="#DejaVuSans-30" x="127.246094"/>
      </g>
     </g>
    </g>
    <g id="text_11">
     <!-- Epochs -->
     <g transform="translate(218.244375 335.860562) scale(0.1 -0.1)">
      <defs>
       <path id="DejaVuSans-45" d="M 628 4666 
L 3578 4666 
L 3578 4134 
L 1259 4134 
L 1259 2753 
L 3481 2753 
L 3481 2222 
L 1259 2222 
L 1259 531 
L 3634 531 
L 3634 0 
L 628 0 
L 628 4666 
z
" transform="scale(0.015625)"/>
       <path id="DejaVuSans-70" d="M 1159 525 
L 1159 -1331 
L 581 -1331 
L 581 3500 
L 1159 3500 
L 1159 2969 
Q 1341 3281 1617 3432 
Q 1894 3584 2278 3584 
Q 2916 3584 3314 3078 
Q 3713 2572 3713 1747 
Q 3713 922 3314 415 
Q 2916 -91 2278 -91 
Q 1894 -91 1617 61 
Q 1341 213 1159 525 
z
M 3116 1747 
Q 3116 2381 2855 2742 
Q 2594 3103 2138 3103 
Q 1681 3103 1420 2742 
Q 1159 2381 1159 1747 
Q 1159 1113 1420 752 
Q 1681 391 2138 391 
Q 2594 391 2855 752 
Q 3116 1113 3116 1747 
z
" transform="scale(0.015625)"/>
       <path id="DejaVuSans-6f" d="M 1959 3097 
Q 1497 3097 1228 2736 
Q 959 2375 959 1747 
Q 959 1119 1226 758 
Q 1494 397 1959 397 
Q 2419 397 2687 759 
Q 2956 1122 2956 1747 
Q 2956 2369 2687 2733 
Q 2419 3097 1959 3097 
z
M 1959 3584 
Q 2709 3584 3137 3096 
Q 3566 2609 3566 1747 
Q 3566 888 3137 398 
Q 2709 -91 1959 -91 
Q 1206 -91 779 398 
Q 353 888 353 1747 
Q 353 2609 779 3096 
Q 1206 3584 1959 3584 
z
" transform="scale(0.015625)"/>
       <path id="DejaVuSans-63" d="M 3122 3366 
L 3122 2828 
Q 2878 2963 2633 3030 
Q 2388 3097 2138 3097 
Q 1578 3097 1268 2742 
Q 959 2388 959 1747 
Q 959 1106 1268 751 
Q 1578 397 2138 397 
Q 2388 397 2633 464 
Q 2878 531 3122 666 
L 3122 134 
Q 2881 22 2623 -34 
Q 2366 -91 2075 -91 
Q 1284 -91 818 406 
Q 353 903 353 1747 
Q 353 2603 823 3093 
Q 1294 3584 2113 3584 
Q 2378 3584 2631 3529 
Q 2884 3475 3122 3366 
z
" transform="scale(0.015625)"/>
       <path id="DejaVuSans-68" d="M 3513 2113 
L 3513 0 
L 2938 0 
L 2938 2094 
Q 2938 2591 2744 2837 
Q 2550 3084 2163 3084 
Q 1697 3084 1428 2787 
Q 1159 2491 1159 1978 
L 1159 0 
L 581 0 
L 581 4863 
L 1159 4863 
L 1159 2956 
Q 1366 3272 1645 3428 
Q 1925 3584 2291 3584 
Q 2894 3584 3203 3211 
Q 3513 2838 3513 2113 
z
" transform="scale(0.015625)"/>
       <path id="DejaVuSans-73" d="M 2834 3397 
L 2834 2853 
Q 2591 2978 2328 3040 
Q 2066 3103 1784 3103 
Q 1356 3103 1142 2972 
Q 928 2841 928 2578 
Q 928 2378 1081 2264 
Q 1234 2150 1697 2047 
L 1894 2003 
Q 2506 1872 2764 1633 
Q 3022 1394 3022 966 
Q 3022 478 2636 193 
Q 2250 -91 1575 -91 
Q 1294 -91 989 -36 
Q 684 19 347 128 
L 347 722 
Q 666 556 975 473 
Q 1284 391 1588 391 
Q 1994 391 2212 530 
Q 2431 669 2431 922 
Q 2431 1156 2273 1281 
Q 2116 1406 1581 1522 
L 1381 1569 
Q 847 1681 609 1914 
Q 372 2147 372 2553 
Q 372 3047 722 3315 
Q 1072 3584 1716 3584 
Q 2034 3584 2315 3537 
Q 2597 3491 2834 3397 
z
" transform="scale(0.015625)"/>
      </defs>
      <use xlink:href="#DejaVuSans-45"/>
      <use xlink:href="#DejaVuSans-70" x="63.183594"/>
      <use xlink:href="#DejaVuSans-6f" x="126.660156"/>
      <use xlink:href="#DejaVuSans-63" x="187.841797"/>
      <use xlink:href="#DejaVuSans-68" x="242.822266"/>
      <use xlink:href="#DejaVuSans-73" x="306.201172"/>
     </g>
    </g>
   </g>
   <g id="matplotlib.axis_2">
    <g id="ytick_1">
     <g id="line2d_11">
      <defs>
       <path id="m9bf86166a1" d="M 0 0 
L -3.5 0 
" style="stroke: #000000; stroke-width: 0.8"/>
      </defs>
      <g>
       <use xlink:href="#m9bf86166a1" x="57.6" y="285.360369" style="stroke: #000000; stroke-width: 0.8"/>
      </g>
     </g>
     <g id="text_12">
      <!-- 10 -->
      <g transform="translate(37.875 289.159588) scale(0.1 -0.1)">
       <use xlink:href="#DejaVuSans-31"/>
       <use xlink:href="#DejaVuSans-30" x="63.623047"/>
      </g>
     </g>
    </g>
    <g id="ytick_2">
     <g id="line2d_12">
      <g>
       <use xlink:href="#m9bf86166a1" x="57.6" y="254.464606" style="stroke: #000000; stroke-width: 0.8"/>
      </g>
     </g>
     <g id="text_13">
      <!-- 20 -->
      <g transform="translate(37.875 258.263825) scale(0.1 -0.1)">
       <use xlink:href="#DejaVuSans-32"/>
       <use xlink:href="#DejaVuSans-30" x="63.623047"/>
      </g>
     </g>
    </g>
    <g id="ytick_3">
     <g id="line2d_13">
      <g>
       <use xlink:href="#m9bf86166a1" x="57.6" y="223.568844" style="stroke: #000000; stroke-width: 0.8"/>
      </g>
     </g>
     <g id="text_14">
      <!-- 30 -->
      <g transform="translate(37.875 227.368063) scale(0.1 -0.1)">
       <use xlink:href="#DejaVuSans-33"/>
       <use xlink:href="#DejaVuSans-30" x="63.623047"/>
      </g>
     </g>
    </g>
    <g id="ytick_4">
     <g id="line2d_14">
      <g>
       <use xlink:href="#m9bf86166a1" x="57.6" y="192.673081" style="stroke: #000000; stroke-width: 0.8"/>
      </g>
     </g>
     <g id="text_15">
      <!-- 40 -->
      <g transform="translate(37.875 196.4723) scale(0.1 -0.1)">
       <use xlink:href="#DejaVuSans-34"/>
       <use xlink:href="#DejaVuSans-30" x="63.623047"/>
      </g>
     </g>
    </g>
    <g id="ytick_5">
     <g id="line2d_15">
      <g>
       <use xlink:href="#m9bf86166a1" x="57.6" y="161.777319" style="stroke: #000000; stroke-width: 0.8"/>
      </g>
     </g>
     <g id="text_16">
      <!-- 50 -->
      <g transform="translate(37.875 165.576538) scale(0.1 -0.1)">
       <defs>
        <path id="DejaVuSans-35" d="M 691 4666 
L 3169 4666 
L 3169 4134 
L 1269 4134 
L 1269 2991 
Q 1406 3038 1543 3061 
Q 1681 3084 1819 3084 
Q 2600 3084 3056 2656 
Q 3513 2228 3513 1497 
Q 3513 744 3044 326 
Q 2575 -91 1722 -91 
Q 1428 -91 1123 -41 
Q 819 9 494 109 
L 494 744 
Q 775 591 1075 516 
Q 1375 441 1709 441 
Q 2250 441 2565 725 
Q 2881 1009 2881 1497 
Q 2881 1984 2565 2268 
Q 2250 2553 1709 2553 
Q 1456 2553 1204 2497 
Q 953 2441 691 2322 
L 691 4666 
z
" transform="scale(0.015625)"/>
       </defs>
       <use xlink:href="#DejaVuSans-35"/>
       <use xlink:href="#DejaVuSans-30" x="63.623047"/>
      </g>
     </g>
    </g>
    <g id="ytick_6">
     <g id="line2d_16">
      <g>
       <use xlink:href="#m9bf86166a1" x="57.6" y="130.881556" style="stroke: #000000; stroke-width: 0.8"/>
      </g>
     </g>
     <g id="text_17">
      <!-- 60 -->
      <g transform="translate(37.875 134.680775) scale(0.1 -0.1)">
       <use xlink:href="#DejaVuSans-36"/>
       <use xlink:href="#DejaVuSans-30" x="63.623047"/>
      </g>
     </g>
    </g>
    <g id="ytick_7">
     <g id="line2d_17">
      <g>
       <use xlink:href="#m9bf86166a1" x="57.6" y="99.985794" style="stroke: #000000; stroke-width: 0.8"/>
      </g>
     </g>
     <g id="text_18">
      <!-- 70 -->
      <g transform="translate(37.875 103.785012) scale(0.1 -0.1)">
       <use xlink:href="#DejaVuSans-37"/>
       <use xlink:href="#DejaVuSans-30" x="63.623047"/>
      </g>
     </g>
    </g>
    <g id="ytick_8">
     <g id="line2d_18">
      <g>
       <use xlink:href="#m9bf86166a1" x="57.6" y="69.090031" style="stroke: #000000; stroke-width: 0.8"/>
      </g>
     </g>
     <g id="text_19">
      <!-- 80 -->
      <g transform="translate(37.875 72.88925) scale(0.1 -0.1)">
       <defs>
        <path id="DejaVuSans-38" d="M 2034 2216 
Q 1584 2216 1326 1975 
Q 1069 1734 1069 1313 
Q 1069 891 1326 650 
Q 1584 409 2034 409 
Q 2484 409 2743 651 
Q 3003 894 3003 1313 
Q 3003 1734 2745 1975 
Q 2488 2216 2034 2216 
z
M 1403 2484 
Q 997 2584 770 2862 
Q 544 3141 544 3541 
Q 544 4100 942 4425 
Q 1341 4750 2034 4750 
Q 2731 4750 3128 4425 
Q 3525 4100 3525 3541 
Q 3525 3141 3298 2862 
Q 3072 2584 2669 2484 
Q 3125 2378 3379 2068 
Q 3634 1759 3634 1313 
Q 3634 634 3220 271 
Q 2806 -91 2034 -91 
Q 1263 -91 848 271 
Q 434 634 434 1313 
Q 434 1759 690 2068 
Q 947 2378 1403 2484 
z
M 1172 3481 
Q 1172 3119 1398 2916 
Q 1625 2713 2034 2713 
Q 2441 2713 2670 2916 
Q 2900 3119 2900 3481 
Q 2900 3844 2670 4047 
Q 2441 4250 2034 4250 
Q 1625 4250 1398 4047 
Q 1172 3844 1172 3481 
z
" transform="scale(0.015625)"/>
       </defs>
       <use xlink:href="#DejaVuSans-38"/>
       <use xlink:href="#DejaVuSans-30" x="63.623047"/>
      </g>
     </g>
    </g>
    <g id="text_20">
     <!-- Accuracy -->
     <g transform="translate(31.795312 197.356125) rotate(-90) scale(0.1 -0.1)">
      <defs>
       <path id="DejaVuSans-41" d="M 2188 4044 
L 1331 1722 
L 3047 1722 
L 2188 4044 
z
M 1831 4666 
L 2547 4666 
L 4325 0 
L 3669 0 
L 3244 1197 
L 1141 1197 
L 716 0 
L 50 0 
L 1831 4666 
z
" transform="scale(0.015625)"/>
       <path id="DejaVuSans-75" d="M 544 1381 
L 544 3500 
L 1119 3500 
L 1119 1403 
Q 1119 906 1312 657 
Q 1506 409 1894 409 
Q 2359 409 2629 706 
Q 2900 1003 2900 1516 
L 2900 3500 
L 3475 3500 
L 3475 0 
L 2900 0 
L 2900 538 
Q 2691 219 2414 64 
Q 2138 -91 1772 -91 
Q 1169 -91 856 284 
Q 544 659 544 1381 
z
M 1991 3584 
L 1991 3584 
z
" transform="scale(0.015625)"/>
       <path id="DejaVuSans-72" d="M 2631 2963 
Q 2534 3019 2420 3045 
Q 2306 3072 2169 3072 
Q 1681 3072 1420 2755 
Q 1159 2438 1159 1844 
L 1159 0 
L 581 0 
L 581 3500 
L 1159 3500 
L 1159 2956 
Q 1341 3275 1631 3429 
Q 1922 3584 2338 3584 
Q 2397 3584 2469 3576 
Q 2541 3569 2628 3553 
L 2631 2963 
z
" transform="scale(0.015625)"/>
       <path id="DejaVuSans-61" d="M 2194 1759 
Q 1497 1759 1228 1600 
Q 959 1441 959 1056 
Q 959 750 1161 570 
Q 1363 391 1709 391 
Q 2188 391 2477 730 
Q 2766 1069 2766 1631 
L 2766 1759 
L 2194 1759 
z
M 3341 1997 
L 3341 0 
L 2766 0 
L 2766 531 
Q 2569 213 2275 61 
Q 1981 -91 1556 -91 
Q 1019 -91 701 211 
Q 384 513 384 1019 
Q 384 1609 779 1909 
Q 1175 2209 1959 2209 
L 2766 2209 
L 2766 2266 
Q 2766 2663 2505 2880 
Q 2244 3097 1772 3097 
Q 1472 3097 1187 3025 
Q 903 2953 641 2809 
L 641 3341 
Q 956 3463 1253 3523 
Q 1550 3584 1831 3584 
Q 2591 3584 2966 3190 
Q 3341 2797 3341 1997 
z
" transform="scale(0.015625)"/>
       <path id="DejaVuSans-79" d="M 2059 -325 
Q 1816 -950 1584 -1140 
Q 1353 -1331 966 -1331 
L 506 -1331 
L 506 -850 
L 844 -850 
Q 1081 -850 1212 -737 
Q 1344 -625 1503 -206 
L 1606 56 
L 191 3500 
L 800 3500 
L 1894 763 
L 2988 3500 
L 3597 3500 
L 2059 -325 
z
" transform="scale(0.015625)"/>
      </defs>
      <use xlink:href="#DejaVuSans-41"/>
      <use xlink:href="#DejaVuSans-63" x="66.658203"/>
      <use xlink:href="#DejaVuSans-63" x="121.638672"/>
      <use xlink:href="#DejaVuSans-75" x="176.619141"/>
      <use xlink:href="#DejaVuSans-72" x="239.998047"/>
      <use xlink:href="#DejaVuSans-61" x="281.111328"/>
      <use xlink:href="#DejaVuSans-63" x="342.390625"/>
      <use xlink:href="#DejaVuSans-79" x="397.371094"/>
     </g>
    </g>
   </g>
   <g id="line2d_19">
    <path d="M 73.832727 295.488 
L 74.918528 272.513911 
L 76.00433 253.525375 
L 77.090131 237.700566 
L 78.175932 223.772756 
L 80.347534 204.450546 
L 82.519137 189.132427 
L 83.604938 182.613421 
L 85.77654 172.646448 
L 86.862341 166.671208 
L 87.948142 162.735087 
L 89.033943 157.402479 
L 90.119745 153.719704 
L 91.205546 151.112102 
L 92.291347 147.645597 
L 93.377148 147.002965 
L 94.462949 145.260444 
L 95.54875 176.42191 
L 96.634552 175.563008 
L 97.720353 174.376611 
L 99.891955 166.325175 
L 100.977756 163.217061 
L 102.063557 159.503391 
L 103.149358 157.797945 
L 104.23516 154.862847 
L 105.320961 151.482851 
L 106.406762 148.78874 
L 107.492563 147.367535 
L 109.664165 141.57149 
L 110.749967 139.557086 
L 112.921569 134.446927 
L 114.00737 132.123566 
L 115.093171 129.237902 
L 117.264773 124.566462 
L 120.522177 116.323473 
L 121.607978 115.958903 
L 122.693779 112.016604 
L 123.77958 110.113425 
L 127.036984 103.112445 
L 128.122785 101.598552 
L 129.208586 99.57797 
L 130.294387 98.614022 
L 131.380189 97.495595 
L 132.46599 95.586237 
L 133.551791 95.159876 
L 134.637592 94.344227 
L 135.723393 94.39984 
L 136.809194 93.911687 
L 137.894995 93.652162 
L 138.980797 130.325433 
L 140.066598 133.946416 
L 141.152399 134.712631 
L 142.2382 133.594204 
L 143.324001 132.840348 
L 144.409802 131.678667 
L 145.495604 130.004117 
L 146.581405 129.157573 
L 147.667206 129.312051 
L 148.753007 127.835234 
L 149.838808 125.827009 
L 150.924609 125.159661 
L 152.01041 124.140101 
L 153.096212 122.805404 
L 154.182013 121.266795 
L 156.353615 119.876486 
L 157.439416 118.863105 
L 159.611019 116.311115 
L 160.69682 115.223584 
L 161.782621 113.709691 
L 162.868422 112.813714 
L 163.954223 111.361613 
L 167.211627 109.761213 
L 168.297428 107.685018 
L 170.46903 104.694308 
L 171.554831 103.773614 
L 172.640632 103.489373 
L 173.726434 101.83336 
L 174.812235 100.603709 
L 175.898036 99.695374 
L 176.983837 99.034204 
L 178.069638 96.920934 
L 179.155439 97.687149 
L 180.24124 94.158853 
L 181.327042 94.39984 
L 182.412843 91.613042 
L 183.498644 90.550228 
L 184.584445 90.062075 
L 185.670246 89.308218 
L 186.756047 87.948805 
L 187.841849 86.780945 
L 188.92765 85.86643 
L 190.013451 85.162007 
L 192.185053 81.763473 
L 193.270854 81.843802 
L 194.356656 80.274297 
L 195.442457 79.372141 
L 197.614059 76.67803 
L 198.69986 75.664649 
L 200.871462 74.033353 
L 201.957264 72.96436 
L 203.043065 72.111637 
L 204.128866 71.808858 
L 205.214667 71.073539 
L 207.386269 68.873761 
L 208.472071 68.144621 
L 209.557872 68.274383 
L 210.643673 67.489631 
L 211.729474 66.939686 
L 212.815275 65.419615 
L 213.901076 64.906745 
L 216.072679 64.474204 
L 217.15848 63.745064 
L 218.244281 64.251755 
L 219.330082 63.114791 
L 220.415883 63.677094 
L 221.501684 63.164224 
L 222.587486 63.256911 
L 223.673287 63.602944 
L 224.759088 64.220859 
L 225.844889 102.377126 
L 226.93069 109.860079 
L 228.016491 112.053679 
L 229.102292 111.479017 
L 230.188094 112.529473 
L 231.273895 111.448122 
L 232.359696 111.60878 
L 233.445497 112.022783 
L 234.531298 111.027939 
L 235.617099 111.855946 
L 237.788702 109.520226 
L 238.874503 110.261724 
L 239.960304 108.797265 
L 241.046105 108.445053 
L 242.131906 108.222604 
L 243.217708 108.364724 
L 244.303509 107.264835 
L 245.38931 107.400777 
L 246.475111 106.103155 
L 247.560912 106.603666 
L 248.646713 106.43065 
L 249.732514 105.355477 
L 250.818316 105.781839 
L 251.904117 103.866301 
L 252.989918 105.40491 
L 254.075719 103.390507 
L 255.16152 103.965168 
L 256.247321 102.673725 
L 257.333123 103.328715 
L 258.418924 101.821002 
L 259.504725 102.5625 
L 260.590526 101.406999 
L 261.676327 102.185572 
L 262.762128 99.540895 
L 263.847929 99.485282 
L 264.933731 100.455409 
L 266.019532 100.418334 
L 267.105333 98.156765 
L 268.191134 99.194862 
L 269.276935 97.841628 
L 270.362736 98.533693 
L 271.448538 97.149563 
L 272.534339 96.642872 
L 273.62014 96.673768 
L 274.705941 95.654208 
L 275.791742 96.00024 
L 276.877543 96.216511 
L 277.963344 95.209309 
L 279.049146 94.585214 
L 280.134947 94.498706 
L 281.220748 93.126934 
L 282.306549 93.003351 
L 283.39235 92.558452 
L 284.478151 92.249495 
L 285.563953 91.681013 
L 286.649754 90.75414 
L 289.907157 90.068254 
L 290.992958 89.617176 
L 292.07876 90.09297 
L 293.164561 87.948805 
L 294.250362 88.004417 
L 295.336163 87.868476 
L 296.421964 86.855095 
L 298.593566 85.106394 
L 299.679368 84.871587 
L 300.765169 83.777877 
L 301.85097 83.635756 
L 302.936771 83.648114 
L 305.108373 82.486434 
L 306.194175 81.627532 
L 307.279976 81.219707 
L 308.365777 81.065229 
L 309.451578 80.719196 
L 310.537379 79.59459 
L 312.708981 78.643001 
L 314.880584 78.673897 
L 315.966385 77.370095 
L 317.052186 75.553425 
L 318.137987 76.31346 
L 319.223788 74.570939 
L 321.395391 73.854158 
L 322.481192 74.923151 
L 323.566993 72.933464 
L 324.652794 73.013793 
L 325.738595 71.555513 
L 326.824396 71.35778 
L 327.910198 70.517415 
L 328.995999 70.968493 
L 330.0818 70.128129 
L 331.167601 68.503012 
L 332.253402 68.601878 
L 333.339203 68.87994 
L 334.425005 68.1508 
L 335.510806 66.989119 
L 336.596607 66.17965 
L 337.682408 65.592631 
L 338.768209 65.932484 
L 339.85401 64.789341 
L 340.939811 64.21468 
L 342.025613 64.227038 
L 343.111414 63.448465 
L 344.197215 63.615302 
L 345.283016 62.577204 
L 346.368817 60.890296 
L 347.454618 61.112745 
L 348.54042 59.969602 
L 349.626221 60.803788 
L 350.712022 60.377426 
L 352.883624 58.122035 
L 353.969425 57.911944 
L 355.055227 57.572091 
L 356.141028 57.751286 
L 358.31263 57.362 
L 359.398431 55.940795 
L 360.484232 55.977869 
L 361.570033 55.724524 
L 362.655835 55.032459 
L 363.741636 55.156042 
L 364.827437 54.068511 
L 366.999039 53.568 
L 368.08484 54.593739 
L 369.170642 54.593739 
L 370.256443 55.613299 
L 371.342244 57.405254 
L 372.428045 58.430993 
L 373.513846 58.387739 
L 374.599647 59.796586 
L 375.685448 58.177648 
L 376.77125 59.660644 
L 377.857051 58.659622 
L 378.942852 58.795563 
L 380.028653 59.574136 
L 381.114454 58.931504 
L 382.200255 58.59783 
L 383.286057 59.18485 
L 384.371858 59.47527 
L 385.457659 59.246641 
L 386.54346 58.74613 
L 388.715062 59.135416 
L 389.800863 59.098341 
L 390.886665 58.634905 
L 391.972466 58.993296 
L 393.058267 58.882071 
L 394.144068 59.1107 
L 395.229869 58.795563 
L 396.31567 59.141596 
L 397.401472 59.018013 
L 398.487273 58.59783 
L 398.487273 58.59783 
" clip-path="url(#p4a4ec9adac)" style="fill: none; stroke: #1f77b4; stroke-width: 1.5; stroke-linecap: square"/>
   </g>
   <g id="line2d_20">
    <path d="M 73.832727 276.555077 
L 74.918528 261.0763 
L 76.00433 239.974494 
L 77.090131 212.539057 
L 78.175932 192.61129 
L 79.261733 188.96559 
L 80.347534 170.95336 
L 82.519137 157.575495 
L 83.604938 154.424127 
L 84.690739 141.540594 
L 85.77654 139.099829 
L 86.862341 131.43768 
L 87.948142 127.266752 
L 89.033943 123.590156 
L 90.119745 121.674619 
L 91.205546 117.689066 
L 92.291347 115.2483 
L 93.377148 114.197844 
L 94.462949 113.981574 
L 95.54875 151.921571 
L 96.634552 146.731082 
L 97.720353 157.513704 
L 98.806154 144.722858 
L 99.891955 135.423233 
L 100.977756 141.725969 
L 102.063557 135.701295 
L 103.149358 132.611719 
L 104.23516 133.693071 
L 105.320961 129.954683 
L 106.406762 122.632388 
L 107.492563 121.52014 
L 108.578364 119.635499 
L 109.664165 116.144277 
L 110.749967 120.624163 
L 111.835768 113.950678 
L 112.921569 111.231851 
L 114.00737 108.111379 
L 115.093171 110.397666 
L 116.178972 105.083594 
L 117.264773 102.920891 
L 118.350575 103.384328 
L 119.436376 99.460566 
L 120.522177 99.2134 
L 121.607978 95.814866 
L 122.693779 95.042472 
L 123.77958 94.887993 
L 124.865382 91.582146 
L 125.951183 91.55125 
L 127.036984 89.913775 
L 128.122785 90.747961 
L 129.208586 87.843759 
L 130.294387 87.967342 
L 131.380189 86.793303 
L 132.46599 87.040469 
L 133.551791 86.391658 
L 134.637592 86.298971 
L 135.723393 85.928222 
L 136.809194 85.711951 
L 137.894995 85.711951 
L 138.980797 115.124717 
L 140.066598 121.025808 
L 141.152399 113.981574 
L 142.2382 120.160727 
L 143.324001 113.147389 
L 144.409802 115.340988 
L 145.495604 111.200955 
L 146.581405 110.397666 
L 147.667206 111.17006 
L 148.753007 115.093822 
L 149.838808 111.417226 
L 150.924609 109.439897 
L 152.01041 108.173171 
L 153.096212 108.883773 
L 154.182013 109.34721 
L 155.267814 104.403888 
L 156.353615 104.774637 
L 157.439416 102.302976 
L 158.525217 107.771526 
L 159.611019 103.013578 
L 160.69682 99.64594 
L 161.782621 100.387439 
L 162.868422 98.101152 
L 163.954223 100.016689 
L 165.040024 96.340094 
L 167.211627 99.367878 
L 168.297428 94.424556 
L 169.383229 97.421445 
L 170.46903 93.528579 
L 171.554831 96.618156 
L 172.640632 94.331869 
L 173.726434 94.239182 
L 174.812235 94.76441 
L 175.898036 96.123823 
L 178.069638 90.469899 
L 179.155439 89.728401 
L 180.24124 90.809752 
L 181.327042 91.056918 
L 182.412843 89.913775 
L 183.498644 89.326756 
L 184.584445 87.658384 
L 185.670246 88.739736 
L 186.756047 88.245404 
L 187.841849 86.855095 
L 188.92765 84.599704 
L 190.013451 84.692391 
L 191.099252 85.65016 
L 192.185053 84.198059 
L 193.270854 83.24029 
L 194.356656 82.838645 
L 195.442457 82.066251 
L 196.528258 81.849981 
L 197.614059 80.706838 
L 198.69986 81.324753 
L 199.785661 80.799525 
L 200.871462 80.923108 
L 201.957264 78.513239 
L 203.043065 79.440112 
L 204.128866 79.563695 
L 205.214667 78.235177 
L 206.300468 77.400991 
L 207.386269 78.204281 
L 208.472071 77.895323 
L 209.557872 76.999346 
L 210.643673 77.030242 
L 211.729474 76.196056 
L 212.815275 75.856203 
L 213.901076 76.999346 
L 214.986877 75.022018 
L 216.072679 74.434998 
L 217.15848 74.991122 
L 219.330082 74.465894 
L 220.415883 75.269184 
L 224.759088 75.238288 
L 225.844889 106.875549 
L 226.93069 110.799311 
L 228.016491 106.751966 
L 229.102292 104.09493 
L 230.188094 107.926005 
L 231.273895 104.187617 
L 232.359696 102.797308 
L 233.445497 115.711737 
L 234.531298 107.647943 
L 235.617099 105.021803 
L 236.702901 107.74063 
L 237.788702 99.553253 
L 238.874503 105.052699 
L 239.960304 98.657276 
L 241.046105 101.283416 
L 242.131906 103.507911 
L 243.217708 103.693285 
L 244.303509 107.091819 
L 245.38931 100.758188 
L 246.475111 100.294751 
L 247.560912 99.275191 
L 248.646713 100.263856 
L 249.732514 99.367878 
L 250.818316 102.828204 
L 251.904117 101.098041 
L 252.989918 96.958009 
L 255.16152 99.120712 
L 256.247321 98.41011 
L 257.333123 97.205175 
L 258.418924 97.328758 
L 259.504725 101.715956 
L 260.590526 101.499686 
L 261.676327 102.241184 
L 262.762128 98.502797 
L 264.933731 94.331869 
L 266.019532 94.857097 
L 267.105333 94.733514 
L 268.191134 97.730403 
L 269.276935 99.058921 
L 270.362736 95.073367 
L 271.448538 96.247406 
L 272.534339 95.660387 
L 273.62014 96.216511 
L 274.705941 96.092928 
L 275.791742 96.185615 
L 276.877543 95.505908 
L 277.963344 93.74485 
L 279.049146 94.795306 
L 280.134947 98.224735 
L 281.220748 93.74485 
L 282.306549 92.447228 
L 283.39235 94.146495 
L 284.478151 94.115599 
L 285.563953 93.528579 
L 286.649754 94.270078 
L 287.735555 91.211397 
L 288.821356 93.837537 
L 289.907157 92.972456 
L 290.992958 89.635713 
L 292.07876 93.559475 
L 293.164561 93.003351 
L 294.250362 92.13827 
L 295.336163 90.593482 
L 296.421964 88.307195 
L 297.507765 91.643938 
L 298.593566 88.770632 
L 299.679368 89.728401 
L 300.765169 87.040469 
L 301.85097 86.916886 
L 302.936771 87.318531 
L 304.022572 89.048694 
L 305.108373 87.68928 
L 306.194175 86.66972 
L 307.279976 87.874655 
L 308.365777 87.627489 
L 309.451578 83.889101 
L 310.537379 86.577033 
L 311.62318 83.703727 
L 312.708981 88.060029 
L 313.794783 86.45345 
L 314.880584 87.164052 
L 315.966385 84.259851 
L 317.052186 83.302082 
L 318.137987 83.487456 
L 319.223788 83.858206 
L 320.30959 83.796414 
L 321.395391 84.537912 
L 322.481192 84.537912 
L 323.566993 81.942668 
L 324.652794 84.074476 
L 325.738595 82.622375 
L 326.824396 80.892212 
L 327.910198 81.880877 
L 328.995999 79.718173 
L 330.0818 80.119818 
L 331.167601 80.645046 
L 332.253402 80.150714 
L 333.339203 79.223841 
L 334.425005 79.532799 
L 335.510806 81.20117 
L 336.596607 79.996235 
L 337.682408 78.266073 
L 338.768209 79.007571 
L 339.85401 78.791301 
L 340.939811 79.656382 
L 342.025613 77.740845 
L 343.111414 78.544134 
L 344.197215 78.14249 
L 345.283016 77.988011 
L 346.368817 77.431887 
L 347.454618 78.235177 
L 348.54042 77.431887 
L 349.626221 76.474118 
L 351.797823 76.875763 
L 352.883624 75.578141 
L 353.969425 76.257848 
L 355.055227 75.887099 
L 356.141028 75.207392 
L 357.226829 75.330975 
L 358.31263 75.238288 
L 359.398431 73.90977 
L 360.484232 75.330975 
L 361.570033 74.311415 
L 362.655835 75.917995 
L 363.741636 74.651268 
L 365.913238 73.446334 
L 366.999039 73.353646 
L 368.08484 74.465894 
L 369.170642 74.064249 
L 370.256443 74.620373 
L 371.342244 76.381431 
L 372.428045 76.75218 
L 373.513846 76.783076 
L 374.599647 76.937555 
L 375.685448 77.864428 
L 376.77125 77.77174 
L 377.857051 76.288744 
L 378.942852 77.092034 
L 381.114454 76.566806 
L 382.200255 80.088923 
L 384.371858 76.999346 
L 386.54346 78.35876 
L 388.715062 75.917995 
L 389.800863 78.513239 
L 390.886665 78.389656 
L 391.972466 76.690389 
L 393.058267 76.412327 
L 394.144068 77.709949 
L 395.229869 77.3392 
L 396.31567 78.482343 
L 397.401472 75.547245 
L 398.487273 77.802636 
L 398.487273 77.802636 
" clip-path="url(#p4a4ec9adac)" style="fill: none; stroke: #ff7f0e; stroke-width: 1.5; stroke-linecap: square"/>
   </g>
   <g id="line2d_21">
    <path d="M 73.832727 281.908694 
L 74.918528 251.779871 
L 76.00433 251.524182 
L 77.090131 221.587254 
L 78.175932 207.289973 
L 79.261733 217.15531 
L 80.347534 207.226051 
L 81.433335 202.090962 
L 82.519137 194.867746 
L 83.604938 190.904565 
L 84.690739 183.766579 
L 85.77654 178.524953 
L 86.862341 167.935164 
L 87.948142 172.814564 
L 90.119745 170.769051 
L 91.205546 165.037354 
L 92.291347 161.4364 
L 93.377148 162.288697 
L 94.462949 161.969086 
L 95.54875 180.059087 
L 96.634552 190.925873 
L 97.720353 190.925873 
L 98.806154 183.468275 
L 99.891955 181.507992 
L 100.977756 183.702656 
L 102.063557 175.797603 
L 103.149358 174.753539 
L 104.23516 179.355942 
L 105.320961 180.144317 
L 107.492563 166.124033 
L 108.578364 172.026189 
L 109.664165 162.0117 
L 110.749967 158.730357 
L 111.835768 160.839792 
L 112.921569 161.287248 
L 114.00737 158.13375 
L 115.093171 150.953148 
L 116.178972 153.318272 
L 117.264773 152.103749 
L 118.350575 153.573961 
L 119.436376 150.100851 
L 120.522177 153.16912 
L 121.607978 147.842265 
L 122.693779 144.90184 
L 123.77958 149.20594 
L 124.865382 142.131875 
L 125.951183 147.224349 
L 127.036984 140.959967 
L 128.122785 144.15608 
L 129.208586 140.959967 
L 130.294387 139.340603 
L 131.380189 139.44714 
L 132.46599 140.150285 
L 133.551791 140.469896 
L 134.637592 140.320744 
L 137.894995 139.020992 
L 138.980797 165.058662 
L 140.066598 168.553079 
L 141.152399 169.682373 
L 142.2382 169.554528 
L 143.324001 169.064457 
L 144.409802 156.940534 
L 145.495604 160.562796 
L 146.581405 160.328414 
L 147.667206 168.21216 
L 148.753007 172.771949 
L 149.838808 165.953574 
L 150.924609 157.473219 
L 152.01041 162.544386 
L 153.096212 159.667884 
L 154.182013 155.960392 
L 155.267814 145.349296 
L 156.353615 147.906187 
L 157.439416 148.417565 
L 158.525217 152.679049 
L 159.611019 150.654844 
L 160.69682 144.667459 
L 161.782621 147.096505 
L 162.868422 152.252901 
L 163.954223 155.214633 
L 165.040024 140.597741 
L 166.125825 147.820957 
L 167.211627 148.225798 
L 168.297428 145.818059 
L 169.383229 145.839367 
L 170.46903 138.978377 
L 171.554831 153.701806 
L 172.640632 146.457282 
L 173.726434 149.12071 
L 174.812235 146.798201 
L 175.898036 142.131875 
L 176.983837 144.262618 
L 178.069638 135.3135 
L 179.155439 134.908659 
L 180.24124 144.731381 
L 181.327042 137.721239 
L 182.412843 134.546433 
L 183.498644 133.672829 
L 184.584445 137.593394 
L 185.670246 134.439896 
L 186.756047 138.850532 
L 187.841849 140.128978 
L 188.92765 132.074772 
L 190.013451 135.22827 
L 191.099252 134.461203 
L 192.185053 137.508165 
L 194.356656 133.971132 
L 195.442457 133.140143 
L 196.528258 132.458305 
L 197.614059 128.53774 
L 198.69986 133.523677 
L 199.785661 130.263641 
L 200.871462 135.39873 
L 201.957264 127.834595 
L 203.043065 130.391486 
L 204.128866 129.11304 
L 205.214667 126.939683 
L 206.300468 127.024913 
L 207.386269 126.492227 
L 208.472071 129.965337 
L 209.557872 126.769224 
L 210.643673 125.874312 
L 211.729474 127.21668 
L 212.815275 126.577457 
L 213.901076 128.111591 
L 214.986877 128.068976 
L 216.072679 127.365832 
L 217.15848 126.172616 
L 220.415883 126.747916 
L 221.501684 126.236538 
L 222.587486 126.96099 
L 223.673287 126.47092 
L 224.759088 125.512086 
L 225.844889 163.694987 
L 226.93069 154.618025 
L 228.016491 157.132301 
L 229.102292 156.961841 
L 230.188094 158.04852 
L 231.273895 149.69601 
L 232.359696 159.923573 
L 233.445497 154.532795 
L 234.531298 152.849509 
L 235.617099 149.845162 
L 236.702901 151.741523 
L 237.788702 139.234066 
L 238.874503 151.251452 
L 239.960304 146.691664 
L 241.046105 158.922124 
L 242.131906 149.546858 
L 243.217708 146.009826 
L 244.303509 166.038803 
L 245.38931 144.454384 
L 246.475111 140.363359 
L 247.560912 147.394809 
L 248.646713 147.032582 
L 249.732514 144.347847 
L 250.818316 150.633537 
L 251.904117 143.836469 
L 252.989918 142.856328 
L 254.075719 148.588024 
L 255.16152 143.772547 
L 256.247321 140.065055 
L 257.333123 154.213184 
L 258.418924 139.638907 
L 259.504725 158.410746 
L 260.590526 136.101875 
L 261.676327 156.919226 
L 262.762128 137.252476 
L 263.847929 142.17449 
L 264.933731 133.90721 
L 266.019532 147.79965 
L 267.105333 138.21131 
L 268.191134 150.676152 
L 269.276935 141.492653 
L 270.362736 141.173041 
L 271.448538 138.466999 
L 272.534339 145.136222 
L 273.62014 147.181734 
L 274.705941 144.32654 
L 275.791742 138.850532 
L 276.877543 141.961416 
L 277.963344 141.492653 
L 279.049146 139.958518 
L 280.134947 143.772547 
L 281.220748 133.033606 
L 282.306549 142.600639 
L 283.39235 140.10767 
L 284.478151 142.472794 
L 285.563953 139.681522 
L 286.649754 138.403076 
L 288.821356 147.266964 
L 289.907157 140.086363 
L 290.992958 148.28972 
L 292.07876 143.474243 
L 293.164561 135.654419 
L 294.250362 143.985621 
L 295.336163 138.594843 
L 296.421964 132.01085 
L 297.507765 134.333359 
L 298.593566 132.223924 
L 299.679368 140.171592 
L 300.765169 129.432652 
L 301.85097 131.92562 
L 302.936771 128.495125 
L 304.022572 141.087812 
L 305.108373 128.963888 
L 307.279976 139.596292 
L 308.365777 135.931415 
L 309.451578 136.016645 
L 310.537379 139.873289 
L 311.62318 133.140143 
L 313.794783 131.883005 
L 314.880584 136.591945 
L 315.966385 130.540637 
L 317.052186 130.838941 
L 318.137987 134.887352 
L 319.223788 132.522228 
L 320.30959 126.449612 
L 321.395391 134.098977 
L 322.481192 131.84039 
L 323.566993 133.523677 
L 324.652794 129.645726 
L 325.738595 128.132899 
L 326.824396 128.729507 
L 327.910198 133.267988 
L 328.995999 128.814736 
L 330.0818 133.41714 
L 331.167601 127.749365 
L 332.253402 132.756609 
L 333.339203 134.226822 
L 334.425005 132.415691 
L 335.510806 130.306256 
L 336.596607 123.892722 
L 337.682408 125.853005 
L 338.768209 128.090284 
L 339.85401 125.703853 
L 340.939811 124.894171 
L 342.025613 122.592969 
L 343.111414 119.226396 
L 344.197215 124.745019 
L 345.283016 124.041874 
L 346.368817 128.196821 
L 347.454618 125.384241 
L 349.626221 126.683994 
L 350.712022 128.175514 
L 351.797823 120.675301 
L 352.883624 120.440919 
L 353.969425 123.445266 
L 355.055227 123.466573 
L 356.141028 120.014771 
L 357.226829 123.935337 
L 358.31263 122.401202 
L 359.398431 118.587173 
L 360.484232 121.761979 
L 361.570033 123.360036 
L 362.655835 121.548905 
L 363.741636 122.976503 
L 364.827437 124.084488 
L 365.913238 122.720813 
L 366.999039 120.994912 
L 368.08484 119.546007 
L 369.170642 120.334382 
L 370.256443 120.547456 
L 371.342244 123.807492 
L 372.428045 125.63993 
L 373.513846 123.615725 
L 374.599647 119.759082 
L 375.685448 124.574559 
L 376.77125 122.486432 
L 377.857051 118.310177 
L 378.942852 122.401202 
L 380.028653 127.067528 
L 381.114454 126.556149 
L 382.200255 124.681096 
L 383.286057 126.556149 
L 384.371858 121.996361 
L 385.457659 123.466573 
L 386.54346 124.148411 
L 387.629261 121.01622 
L 388.715062 125.512086 
L 389.800863 125.767775 
L 390.886665 127.429754 
L 391.972466 124.084488 
L 393.058267 124.702404 
L 394.144068 127.301909 
L 395.229869 124.766326 
L 396.31567 119.503393 
L 398.487273 129.475266 
L 398.487273 129.475266 
" clip-path="url(#p4a4ec9adac)" style="fill: none; stroke: #2ca02c; stroke-width: 1.5; stroke-linecap: square"/>
   </g>
   <g id="line2d_22">
    <path d="M 368.08484 73.539021 
L 370.256443 74.898434 
L 371.342244 74.960226 
L 372.428045 75.825307 
L 373.513846 78.513239 
L 374.599647 76.813972 
L 375.685448 80.861317 
L 376.77125 79.563695 
L 377.857051 83.425665 
L 378.942852 81.41744 
L 380.028653 81.510128 
L 381.114454 81.355649 
L 382.200255 83.456561 
L 383.286057 86.422554 
L 384.371858 94.146495 
L 385.457659 92.848873 
L 386.54346 86.700616 
L 387.629261 86.731512 
L 388.715062 92.292749 
L 389.800863 91.983791 
L 390.886665 92.879768 
L 391.972466 91.674834 
L 393.058267 95.505908 
L 394.144068 98.101152 
L 395.229869 101.932227 
L 396.31567 102.179393 
L 397.401472 105.207178 
L 398.487273 106.5048 
L 398.487273 106.5048 
" clip-path="url(#p4a4ec9adac)" style="fill: none; stroke: #d62728; stroke-width: 1.5; stroke-linecap: square"/>
   </g>
   <g id="line2d_23">
    <path d="M 368.08484 119.908234 
L 369.170642 120.376997 
L 370.256443 119.780389 
L 371.342244 121.953746 
L 372.428045 126.023464 
L 373.513846 125.767775 
L 374.599647 123.807492 
L 375.685448 126.002156 
L 376.77125 127.387139 
L 377.857051 130.157104 
L 378.942852 128.196821 
L 380.028653 123.146962 
L 381.114454 125.789082 
L 382.200255 125.618623 
L 383.286057 128.878659 
L 384.371858 136.655868 
L 385.457659 128.686892 
L 386.54346 129.19827 
L 387.629261 126.769224 
L 388.715062 129.581803 
L 389.800863 130.4341 
L 390.886665 134.461203 
L 391.972466 134.205514 
L 393.058267 128.665584 
L 394.144068 137.29509 
L 395.229869 139.383218 
L 396.31567 145.264066 
L 397.401472 145.434526 
L 398.487273 146.414667 
L 398.487273 146.414667 
" clip-path="url(#p4a4ec9adac)" style="fill: none; stroke: #9467bd; stroke-width: 1.5; stroke-linecap: square"/>
   </g>
   <g id="patch_3">
    <path d="M 57.6 307.584 
L 57.6 41.472 
" style="fill: none; stroke: #000000; stroke-width: 0.8; stroke-linejoin: miter; stroke-linecap: square"/>
   </g>
   <g id="patch_4">
    <path d="M 414.72 307.584 
L 414.72 41.472 
" style="fill: none; stroke: #000000; stroke-width: 0.8; stroke-linejoin: miter; stroke-linecap: square"/>
   </g>
   <g id="patch_5">
    <path d="M 57.6 307.584 
L 414.72 307.584 
" style="fill: none; stroke: #000000; stroke-width: 0.8; stroke-linejoin: miter; stroke-linecap: square"/>
   </g>
   <g id="patch_6">
    <path d="M 57.6 41.472 
L 414.72 41.472 
" style="fill: none; stroke: #000000; stroke-width: 0.8; stroke-linejoin: miter; stroke-linecap: square"/>
   </g>
   <g id="text_21">
    <!-- Learning Curves -->
    <g transform="translate(187.37625 35.472) scale(0.12 -0.12)">
     <defs>
      <path id="DejaVuSans-4c" d="M 628 4666 
L 1259 4666 
L 1259 531 
L 3531 531 
L 3531 0 
L 628 0 
L 628 4666 
z
" transform="scale(0.015625)"/>
      <path id="DejaVuSans-65" d="M 3597 1894 
L 3597 1613 
L 953 1613 
Q 991 1019 1311 708 
Q 1631 397 2203 397 
Q 2534 397 2845 478 
Q 3156 559 3463 722 
L 3463 178 
Q 3153 47 2828 -22 
Q 2503 -91 2169 -91 
Q 1331 -91 842 396 
Q 353 884 353 1716 
Q 353 2575 817 3079 
Q 1281 3584 2069 3584 
Q 2775 3584 3186 3129 
Q 3597 2675 3597 1894 
z
M 3022 2063 
Q 3016 2534 2758 2815 
Q 2500 3097 2075 3097 
Q 1594 3097 1305 2825 
Q 1016 2553 972 2059 
L 3022 2063 
z
" transform="scale(0.015625)"/>
      <path id="DejaVuSans-6e" d="M 3513 2113 
L 3513 0 
L 2938 0 
L 2938 2094 
Q 2938 2591 2744 2837 
Q 2550 3084 2163 3084 
Q 1697 3084 1428 2787 
Q 1159 2491 1159 1978 
L 1159 0 
L 581 0 
L 581 3500 
L 1159 3500 
L 1159 2956 
Q 1366 3272 1645 3428 
Q 1925 3584 2291 3584 
Q 2894 3584 3203 3211 
Q 3513 2838 3513 2113 
z
" transform="scale(0.015625)"/>
      <path id="DejaVuSans-69" d="M 603 3500 
L 1178 3500 
L 1178 0 
L 603 0 
L 603 3500 
z
M 603 4863 
L 1178 4863 
L 1178 4134 
L 603 4134 
L 603 4863 
z
" transform="scale(0.015625)"/>
      <path id="DejaVuSans-67" d="M 2906 1791 
Q 2906 2416 2648 2759 
Q 2391 3103 1925 3103 
Q 1463 3103 1205 2759 
Q 947 2416 947 1791 
Q 947 1169 1205 825 
Q 1463 481 1925 481 
Q 2391 481 2648 825 
Q 2906 1169 2906 1791 
z
M 3481 434 
Q 3481 -459 3084 -895 
Q 2688 -1331 1869 -1331 
Q 1566 -1331 1297 -1286 
Q 1028 -1241 775 -1147 
L 775 -588 
Q 1028 -725 1275 -790 
Q 1522 -856 1778 -856 
Q 2344 -856 2625 -561 
Q 2906 -266 2906 331 
L 2906 616 
Q 2728 306 2450 153 
Q 2172 0 1784 0 
Q 1141 0 747 490 
Q 353 981 353 1791 
Q 353 2603 747 3093 
Q 1141 3584 1784 3584 
Q 2172 3584 2450 3431 
Q 2728 3278 2906 2969 
L 2906 3500 
L 3481 3500 
L 3481 434 
z
" transform="scale(0.015625)"/>
      <path id="DejaVuSans-20" transform="scale(0.015625)"/>
      <path id="DejaVuSans-43" d="M 4122 4306 
L 4122 3641 
Q 3803 3938 3442 4084 
Q 3081 4231 2675 4231 
Q 1875 4231 1450 3742 
Q 1025 3253 1025 2328 
Q 1025 1406 1450 917 
Q 1875 428 2675 428 
Q 3081 428 3442 575 
Q 3803 722 4122 1019 
L 4122 359 
Q 3791 134 3420 21 
Q 3050 -91 2638 -91 
Q 1578 -91 968 557 
Q 359 1206 359 2328 
Q 359 3453 968 4101 
Q 1578 4750 2638 4750 
Q 3056 4750 3426 4639 
Q 3797 4528 4122 4306 
z
" transform="scale(0.015625)"/>
      <path id="DejaVuSans-76" d="M 191 3500 
L 800 3500 
L 1894 563 
L 2988 3500 
L 3597 3500 
L 2284 0 
L 1503 0 
L 191 3500 
z
" transform="scale(0.015625)"/>
     </defs>
     <use xlink:href="#DejaVuSans-4c"/>
     <use xlink:href="#DejaVuSans-65" x="53.962891"/>
     <use xlink:href="#DejaVuSans-61" x="115.486328"/>
     <use xlink:href="#DejaVuSans-72" x="176.765625"/>
     <use xlink:href="#DejaVuSans-6e" x="216.128906"/>
     <use xlink:href="#DejaVuSans-69" x="279.507812"/>
     <use xlink:href="#DejaVuSans-6e" x="307.291016"/>
     <use xlink:href="#DejaVuSans-67" x="370.669922"/>
     <use xlink:href="#DejaVuSans-20" x="434.146484"/>
     <use xlink:href="#DejaVuSans-43" x="465.933594"/>
     <use xlink:href="#DejaVuSans-75" x="535.757812"/>
     <use xlink:href="#DejaVuSans-72" x="599.136719"/>
     <use xlink:href="#DejaVuSans-76" x="640.25"/>
     <use xlink:href="#DejaVuSans-65" x="699.429688"/>
     <use xlink:href="#DejaVuSans-73" x="760.953125"/>
    </g>
   </g>
   <g id="legend_1">
    <g id="patch_7">
     <path d="M 214.18875 302.584 
L 407.72 302.584 
Q 409.72 302.584 409.72 300.584 
L 409.72 228.193375 
Q 409.72 226.193375 407.72 226.193375 
L 214.18875 226.193375 
Q 212.18875 226.193375 212.18875 228.193375 
L 212.18875 300.584 
Q 212.18875 302.584 214.18875 302.584 
z
" style="fill: #ffffff; opacity: 0.8; stroke: #cccccc; stroke-linejoin: miter"/>
    </g>
    <g id="line2d_24">
     <path d="M 216.18875 234.291812 
L 226.18875 234.291812 
L 236.18875 234.291812 
" style="fill: none; stroke: #1f77b4; stroke-width: 1.5; stroke-linecap: square"/>
    </g>
    <g id="text_22">
     <!-- Train Accuracy -->
     <g transform="translate(244.18875 237.791812) scale(0.1 -0.1)">
      <defs>
       <path id="DejaVuSans-54" d="M -19 4666 
L 3928 4666 
L 3928 4134 
L 2272 4134 
L 2272 0 
L 1638 0 
L 1638 4134 
L -19 4134 
L -19 4666 
z
" transform="scale(0.015625)"/>
      </defs>
      <use xlink:href="#DejaVuSans-54"/>
      <use xlink:href="#DejaVuSans-72" x="46.333984"/>
      <use xlink:href="#DejaVuSans-61" x="87.447266"/>
      <use xlink:href="#DejaVuSans-69" x="148.726562"/>
      <use xlink:href="#DejaVuSans-6e" x="176.509766"/>
      <use xlink:href="#DejaVuSans-20" x="239.888672"/>
      <use xlink:href="#DejaVuSans-41" x="271.675781"/>
      <use xlink:href="#DejaVuSans-63" x="338.333984"/>
      <use xlink:href="#DejaVuSans-63" x="393.314453"/>
      <use xlink:href="#DejaVuSans-75" x="448.294922"/>
      <use xlink:href="#DejaVuSans-72" x="511.673828"/>
      <use xlink:href="#DejaVuSans-61" x="552.787109"/>
      <use xlink:href="#DejaVuSans-63" x="614.066406"/>
      <use xlink:href="#DejaVuSans-79" x="669.046875"/>
     </g>
    </g>
    <g id="line2d_25">
     <path d="M 216.18875 248.969937 
L 226.18875 248.969937 
L 236.18875 248.969937 
" style="fill: none; stroke: #ff7f0e; stroke-width: 1.5; stroke-linecap: square"/>
    </g>
    <g id="text_23">
     <!-- Validation Accuracy -->
     <g transform="translate(244.18875 252.469937) scale(0.1 -0.1)">
      <defs>
       <path id="DejaVuSans-56" d="M 1831 0 
L 50 4666 
L 709 4666 
L 2188 738 
L 3669 4666 
L 4325 4666 
L 2547 0 
L 1831 0 
z
" transform="scale(0.015625)"/>
       <path id="DejaVuSans-6c" d="M 603 4863 
L 1178 4863 
L 1178 0 
L 603 0 
L 603 4863 
z
" transform="scale(0.015625)"/>
       <path id="DejaVuSans-64" d="M 2906 2969 
L 2906 4863 
L 3481 4863 
L 3481 0 
L 2906 0 
L 2906 525 
Q 2725 213 2448 61 
Q 2172 -91 1784 -91 
Q 1150 -91 751 415 
Q 353 922 353 1747 
Q 353 2572 751 3078 
Q 1150 3584 1784 3584 
Q 2172 3584 2448 3432 
Q 2725 3281 2906 2969 
z
M 947 1747 
Q 947 1113 1208 752 
Q 1469 391 1925 391 
Q 2381 391 2643 752 
Q 2906 1113 2906 1747 
Q 2906 2381 2643 2742 
Q 2381 3103 1925 3103 
Q 1469 3103 1208 2742 
Q 947 2381 947 1747 
z
" transform="scale(0.015625)"/>
       <path id="DejaVuSans-74" d="M 1172 4494 
L 1172 3500 
L 2356 3500 
L 2356 3053 
L 1172 3053 
L 1172 1153 
Q 1172 725 1289 603 
Q 1406 481 1766 481 
L 2356 481 
L 2356 0 
L 1766 0 
Q 1100 0 847 248 
Q 594 497 594 1153 
L 594 3053 
L 172 3053 
L 172 3500 
L 594 3500 
L 594 4494 
L 1172 4494 
z
" transform="scale(0.015625)"/>
      </defs>
      <use xlink:href="#DejaVuSans-56"/>
      <use xlink:href="#DejaVuSans-61" x="60.658203"/>
      <use xlink:href="#DejaVuSans-6c" x="121.9375"/>
      <use xlink:href="#DejaVuSans-69" x="149.720703"/>
      <use xlink:href="#DejaVuSans-64" x="177.503906"/>
      <use xlink:href="#DejaVuSans-61" x="240.980469"/>
      <use xlink:href="#DejaVuSans-74" x="302.259766"/>
      <use xlink:href="#DejaVuSans-69" x="341.46875"/>
      <use xlink:href="#DejaVuSans-6f" x="369.251953"/>
      <use xlink:href="#DejaVuSans-6e" x="430.433594"/>
      <use xlink:href="#DejaVuSans-20" x="493.8125"/>
      <use xlink:href="#DejaVuSans-41" x="525.599609"/>
      <use xlink:href="#DejaVuSans-63" x="592.257812"/>
      <use xlink:href="#DejaVuSans-63" x="647.238281"/>
      <use xlink:href="#DejaVuSans-75" x="702.21875"/>
      <use xlink:href="#DejaVuSans-72" x="765.597656"/>
      <use xlink:href="#DejaVuSans-61" x="806.710938"/>
      <use xlink:href="#DejaVuSans-63" x="867.990234"/>
      <use xlink:href="#DejaVuSans-79" x="922.970703"/>
     </g>
    </g>
    <g id="line2d_26">
     <path d="M 216.18875 263.648062 
L 226.18875 263.648062 
L 236.18875 263.648062 
" style="fill: none; stroke: #2ca02c; stroke-width: 1.5; stroke-linecap: square"/>
    </g>
    <g id="text_24">
     <!-- Robust Validation Accuracy -->
     <g transform="translate(244.18875 267.148062) scale(0.1 -0.1)">
      <defs>
       <path id="DejaVuSans-52" d="M 2841 2188 
Q 3044 2119 3236 1894 
Q 3428 1669 3622 1275 
L 4263 0 
L 3584 0 
L 2988 1197 
Q 2756 1666 2539 1819 
Q 2322 1972 1947 1972 
L 1259 1972 
L 1259 0 
L 628 0 
L 628 4666 
L 2053 4666 
Q 2853 4666 3247 4331 
Q 3641 3997 3641 3322 
Q 3641 2881 3436 2590 
Q 3231 2300 2841 2188 
z
M 1259 4147 
L 1259 2491 
L 2053 2491 
Q 2509 2491 2742 2702 
Q 2975 2913 2975 3322 
Q 2975 3731 2742 3939 
Q 2509 4147 2053 4147 
L 1259 4147 
z
" transform="scale(0.015625)"/>
       <path id="DejaVuSans-62" d="M 3116 1747 
Q 3116 2381 2855 2742 
Q 2594 3103 2138 3103 
Q 1681 3103 1420 2742 
Q 1159 2381 1159 1747 
Q 1159 1113 1420 752 
Q 1681 391 2138 391 
Q 2594 391 2855 752 
Q 3116 1113 3116 1747 
z
M 1159 2969 
Q 1341 3281 1617 3432 
Q 1894 3584 2278 3584 
Q 2916 3584 3314 3078 
Q 3713 2572 3713 1747 
Q 3713 922 3314 415 
Q 2916 -91 2278 -91 
Q 1894 -91 1617 61 
Q 1341 213 1159 525 
L 1159 0 
L 581 0 
L 581 4863 
L 1159 4863 
L 1159 2969 
z
" transform="scale(0.015625)"/>
      </defs>
      <use xlink:href="#DejaVuSans-52"/>
      <use xlink:href="#DejaVuSans-6f" x="64.982422"/>
      <use xlink:href="#DejaVuSans-62" x="126.164062"/>
      <use xlink:href="#DejaVuSans-75" x="189.640625"/>
      <use xlink:href="#DejaVuSans-73" x="253.019531"/>
      <use xlink:href="#DejaVuSans-74" x="305.119141"/>
      <use xlink:href="#DejaVuSans-20" x="344.328125"/>
      <use xlink:href="#DejaVuSans-56" x="376.115234"/>
      <use xlink:href="#DejaVuSans-61" x="436.773438"/>
      <use xlink:href="#DejaVuSans-6c" x="498.052734"/>
      <use xlink:href="#DejaVuSans-69" x="525.835938"/>
      <use xlink:href="#DejaVuSans-64" x="553.619141"/>
      <use xlink:href="#DejaVuSans-61" x="617.095703"/>
      <use xlink:href="#DejaVuSans-74" x="678.375"/>
      <use xlink:href="#DejaVuSans-69" x="717.583984"/>
      <use xlink:href="#DejaVuSans-6f" x="745.367188"/>
      <use xlink:href="#DejaVuSans-6e" x="806.548828"/>
      <use xlink:href="#DejaVuSans-20" x="869.927734"/>
      <use xlink:href="#DejaVuSans-41" x="901.714844"/>
      <use xlink:href="#DejaVuSans-63" x="968.373047"/>
      <use xlink:href="#DejaVuSans-63" x="1023.353516"/>
      <use xlink:href="#DejaVuSans-75" x="1078.333984"/>
      <use xlink:href="#DejaVuSans-72" x="1141.712891"/>
      <use xlink:href="#DejaVuSans-61" x="1182.826172"/>
      <use xlink:href="#DejaVuSans-63" x="1244.105469"/>
      <use xlink:href="#DejaVuSans-79" x="1299.085938"/>
     </g>
    </g>
    <g id="line2d_27">
     <path d="M 216.18875 278.326188 
L 226.18875 278.326188 
L 236.18875 278.326188 
" style="fill: none; stroke: #d62728; stroke-width: 1.5; stroke-linecap: square"/>
    </g>
    <g id="text_25">
     <!-- SWA Validation Accuracy -->
     <g transform="translate(244.18875 281.826188) scale(0.1 -0.1)">
      <defs>
       <path id="DejaVuSans-53" d="M 3425 4513 
L 3425 3897 
Q 3066 4069 2747 4153 
Q 2428 4238 2131 4238 
Q 1616 4238 1336 4038 
Q 1056 3838 1056 3469 
Q 1056 3159 1242 3001 
Q 1428 2844 1947 2747 
L 2328 2669 
Q 3034 2534 3370 2195 
Q 3706 1856 3706 1288 
Q 3706 609 3251 259 
Q 2797 -91 1919 -91 
Q 1588 -91 1214 -16 
Q 841 59 441 206 
L 441 856 
Q 825 641 1194 531 
Q 1563 422 1919 422 
Q 2459 422 2753 634 
Q 3047 847 3047 1241 
Q 3047 1584 2836 1778 
Q 2625 1972 2144 2069 
L 1759 2144 
Q 1053 2284 737 2584 
Q 422 2884 422 3419 
Q 422 4038 858 4394 
Q 1294 4750 2059 4750 
Q 2388 4750 2728 4690 
Q 3069 4631 3425 4513 
z
" transform="scale(0.015625)"/>
       <path id="DejaVuSans-57" d="M 213 4666 
L 850 4666 
L 1831 722 
L 2809 4666 
L 3519 4666 
L 4500 722 
L 5478 4666 
L 6119 4666 
L 4947 0 
L 4153 0 
L 3169 4050 
L 2175 0 
L 1381 0 
L 213 4666 
z
" transform="scale(0.015625)"/>
      </defs>
      <use xlink:href="#DejaVuSans-53"/>
      <use xlink:href="#DejaVuSans-57" x="63.476562"/>
      <use xlink:href="#DejaVuSans-41" x="156.853516"/>
      <use xlink:href="#DejaVuSans-20" x="225.261719"/>
      <use xlink:href="#DejaVuSans-56" x="257.048828"/>
      <use xlink:href="#DejaVuSans-61" x="317.707031"/>
      <use xlink:href="#DejaVuSans-6c" x="378.986328"/>
      <use xlink:href="#DejaVuSans-69" x="406.769531"/>
      <use xlink:href="#DejaVuSans-64" x="434.552734"/>
      <use xlink:href="#DejaVuSans-61" x="498.029297"/>
      <use xlink:href="#DejaVuSans-74" x="559.308594"/>
      <use xlink:href="#DejaVuSans-69" x="598.517578"/>
      <use xlink:href="#DejaVuSans-6f" x="626.300781"/>
      <use xlink:href="#DejaVuSans-6e" x="687.482422"/>
      <use xlink:href="#DejaVuSans-20" x="750.861328"/>
      <use xlink:href="#DejaVuSans-41" x="782.648438"/>
      <use xlink:href="#DejaVuSans-63" x="849.306641"/>
      <use xlink:href="#DejaVuSans-63" x="904.287109"/>
      <use xlink:href="#DejaVuSans-75" x="959.267578"/>
      <use xlink:href="#DejaVuSans-72" x="1022.646484"/>
      <use xlink:href="#DejaVuSans-61" x="1063.759766"/>
      <use xlink:href="#DejaVuSans-63" x="1125.039062"/>
      <use xlink:href="#DejaVuSans-79" x="1180.019531"/>
     </g>
    </g>
    <g id="line2d_28">
     <path d="M 216.18875 293.004312 
L 226.18875 293.004312 
L 236.18875 293.004312 
" style="fill: none; stroke: #9467bd; stroke-width: 1.5; stroke-linecap: square"/>
    </g>
    <g id="text_26">
     <!-- SWA Robust Validation Accuracy -->
     <g transform="translate(244.18875 296.504312) scale(0.1 -0.1)">
      <use xlink:href="#DejaVuSans-53"/>
      <use xlink:href="#DejaVuSans-57" x="63.476562"/>
      <use xlink:href="#DejaVuSans-41" x="156.853516"/>
      <use xlink:href="#DejaVuSans-20" x="225.261719"/>
      <use xlink:href="#DejaVuSans-52" x="257.048828"/>
      <use xlink:href="#DejaVuSans-6f" x="322.03125"/>
      <use xlink:href="#DejaVuSans-62" x="383.212891"/>
      <use xlink:href="#DejaVuSans-75" x="446.689453"/>
      <use xlink:href="#DejaVuSans-73" x="510.068359"/>
      <use xlink:href="#DejaVuSans-74" x="562.167969"/>
      <use xlink:href="#DejaVuSans-20" x="601.376953"/>
      <use xlink:href="#DejaVuSans-56" x="633.164062"/>
      <use xlink:href="#DejaVuSans-61" x="693.822266"/>
      <use xlink:href="#DejaVuSans-6c" x="755.101562"/>
      <use xlink:href="#DejaVuSans-69" x="782.884766"/>
      <use xlink:href="#DejaVuSans-64" x="810.667969"/>
      <use xlink:href="#DejaVuSans-61" x="874.144531"/>
      <use xlink:href="#DejaVuSans-74" x="935.423828"/>
      <use xlink:href="#DejaVuSans-69" x="974.632812"/>
      <use xlink:href="#DejaVuSans-6f" x="1002.416016"/>
      <use xlink:href="#DejaVuSans-6e" x="1063.597656"/>
      <use xlink:href="#DejaVuSans-20" x="1126.976562"/>
      <use xlink:href="#DejaVuSans-41" x="1158.763672"/>
      <use xlink:href="#DejaVuSans-63" x="1225.421875"/>
      <use xlink:href="#DejaVuSans-63" x="1280.402344"/>
      <use xlink:href="#DejaVuSans-75" x="1335.382812"/>
      <use xlink:href="#DejaVuSans-72" x="1398.761719"/>
      <use xlink:href="#DejaVuSans-61" x="1439.875"/>
      <use xlink:href="#DejaVuSans-63" x="1501.154297"/>
      <use xlink:href="#DejaVuSans-79" x="1556.134766"/>
     </g>
    </g>
   </g>
  </g>
 </g>
 <defs>
  <clipPath id="p4a4ec9adac">
   <rect x="57.6" y="41.472" width="357.12" height="266.112"/>
  </clipPath>
 </defs>
</svg>
