<?xml version="1.0" encoding="utf-8" standalone="no"?>
<!DOCTYPE svg PUBLIC "-//W3C//DTD SVG 1.1//EN"
  "http://www.w3.org/Graphics/SVG/1.1/DTD/svg11.dtd">
<svg xmlns:xlink="http://www.w3.org/1999/xlink" width="460.8pt" height="345.6pt" viewBox="0 0 460.8 345.6" xmlns="http://www.w3.org/2000/svg" version="1.1">
 <metadata>
  <rdf:RDF xmlns:dc="http://purl.org/dc/elements/1.1/" xmlns:cc="http://creativecommons.org/ns#" xmlns:rdf="http://www.w3.org/1999/02/22-rdf-syntax-ns#">
   <cc:Work>
    <dc:type rdf:resource="http://purl.org/dc/dcmitype/StillImage"/>
    <dc:date>2025-01-27T06:22:05.676114</dc:date>
    <dc:format>image/svg+xml</dc:format>
    <dc:creator>
     <cc:Agent>
      <dc:title>Matplotlib v3.9.1, https://matplotlib.org/</dc:title>
     </cc:Agent>
    </dc:creator>
   </cc:Work>
  </rdf:RDF>
 </metadata>
 <defs>
  <style type="text/css">*{stroke-linejoin: round; stroke-linecap: butt}</style>
 </defs>
 <g id="figure_1">
  <g id="patch_1">
   <path d="M 0 345.6 
L 460.8 345.6 
L 460.8 0 
L 0 0 
z
" style="fill: #ffffff"/>
  </g>
  <g id="axes_1">
   <g id="patch_2">
    <path d="M 57.6 307.584 
L 414.72 307.584 
L 414.72 41.472 
L 57.6 41.472 
z
" style="fill: #ffffff"/>
   </g>
   <g id="matplotlib.axis_1">
    <g id="xtick_1">
     <g id="line2d_1">
      <defs>
       <path id="m24c3d55f72" d="M 0 0 
L 0 3.5 
" style="stroke: #000000; stroke-width: 0.8"/>
      </defs>
      <g>
       <use xlink:href="#m24c3d55f72" x="73.832727" y="307.584" style="stroke: #000000; stroke-width: 0.8"/>
      </g>
     </g>
     <g id="text_1">
      <!-- 1 -->
      <g transform="translate(70.651477 322.182437) scale(0.1 -0.1)">
       <defs>
        <path id="DejaVuSans-31" d="M 794 531 
L 1825 531 
L 1825 4091 
L 703 3866 
L 703 4441 
L 1819 4666 
L 2450 4666 
L 2450 531 
L 3481 531 
L 3481 0 
L 794 0 
L 794 531 
z
" transform="scale(0.015625)"/>
       </defs>
       <use xlink:href="#DejaVuSans-31"/>
      </g>
     </g>
    </g>
    <g id="xtick_2">
     <g id="line2d_2">
      <g>
       <use xlink:href="#m24c3d55f72" x="109.664165" y="307.584" style="stroke: #000000; stroke-width: 0.8"/>
      </g>
     </g>
     <g id="text_2">
      <!-- 34 -->
      <g transform="translate(103.301665 322.182437) scale(0.1 -0.1)">
       <defs>
        <path id="DejaVuSans-33" d="M 2597 2516 
Q 3050 2419 3304 2112 
Q 3559 1806 3559 1356 
Q 3559 666 3084 287 
Q 2609 -91 1734 -91 
Q 1441 -91 1130 -33 
Q 819 25 488 141 
L 488 750 
Q 750 597 1062 519 
Q 1375 441 1716 441 
Q 2309 441 2620 675 
Q 2931 909 2931 1356 
Q 2931 1769 2642 2001 
Q 2353 2234 1838 2234 
L 1294 2234 
L 1294 2753 
L 1863 2753 
Q 2328 2753 2575 2939 
Q 2822 3125 2822 3475 
Q 2822 3834 2567 4026 
Q 2313 4219 1838 4219 
Q 1578 4219 1281 4162 
Q 984 4106 628 3988 
L 628 4550 
Q 988 4650 1302 4700 
Q 1616 4750 1894 4750 
Q 2613 4750 3031 4423 
Q 3450 4097 3450 3541 
Q 3450 3153 3228 2886 
Q 3006 2619 2597 2516 
z
" transform="scale(0.015625)"/>
        <path id="DejaVuSans-34" d="M 2419 4116 
L 825 1625 
L 2419 1625 
L 2419 4116 
z
M 2253 4666 
L 3047 4666 
L 3047 1625 
L 3713 1625 
L 3713 1100 
L 3047 1100 
L 3047 0 
L 2419 0 
L 2419 1100 
L 313 1100 
L 313 1709 
L 2253 4666 
z
" transform="scale(0.015625)"/>
       </defs>
       <use xlink:href="#DejaVuSans-33"/>
       <use xlink:href="#DejaVuSans-34" x="63.623047"/>
      </g>
     </g>
    </g>
    <g id="xtick_3">
     <g id="line2d_3">
      <g>
       <use xlink:href="#m24c3d55f72" x="145.495604" y="307.584" style="stroke: #000000; stroke-width: 0.8"/>
      </g>
     </g>
     <g id="text_3">
      <!-- 67 -->
      <g transform="translate(139.133104 322.182437) scale(0.1 -0.1)">
       <defs>
        <path id="DejaVuSans-36" d="M 2113 2584 
Q 1688 2584 1439 2293 
Q 1191 2003 1191 1497 
Q 1191 994 1439 701 
Q 1688 409 2113 409 
Q 2538 409 2786 701 
Q 3034 994 3034 1497 
Q 3034 2003 2786 2293 
Q 2538 2584 2113 2584 
z
M 3366 4563 
L 3366 3988 
Q 3128 4100 2886 4159 
Q 2644 4219 2406 4219 
Q 1781 4219 1451 3797 
Q 1122 3375 1075 2522 
Q 1259 2794 1537 2939 
Q 1816 3084 2150 3084 
Q 2853 3084 3261 2657 
Q 3669 2231 3669 1497 
Q 3669 778 3244 343 
Q 2819 -91 2113 -91 
Q 1303 -91 875 529 
Q 447 1150 447 2328 
Q 447 3434 972 4092 
Q 1497 4750 2381 4750 
Q 2619 4750 2861 4703 
Q 3103 4656 3366 4563 
z
" transform="scale(0.015625)"/>
        <path id="DejaVuSans-37" d="M 525 4666 
L 3525 4666 
L 3525 4397 
L 1831 0 
L 1172 0 
L 2766 4134 
L 525 4134 
L 525 4666 
z
" transform="scale(0.015625)"/>
       </defs>
       <use xlink:href="#DejaVuSans-36"/>
       <use xlink:href="#DejaVuSans-37" x="63.623047"/>
      </g>
     </g>
    </g>
    <g id="xtick_4">
     <g id="line2d_4">
      <g>
       <use xlink:href="#m24c3d55f72" x="181.327042" y="307.584" style="stroke: #000000; stroke-width: 0.8"/>
      </g>
     </g>
     <g id="text_4">
      <!-- 100 -->
      <g transform="translate(171.783292 322.182437) scale(0.1 -0.1)">
       <defs>
        <path id="DejaVuSans-30" d="M 2034 4250 
Q 1547 4250 1301 3770 
Q 1056 3291 1056 2328 
Q 1056 1369 1301 889 
Q 1547 409 2034 409 
Q 2525 409 2770 889 
Q 3016 1369 3016 2328 
Q 3016 3291 2770 3770 
Q 2525 4250 2034 4250 
z
M 2034 4750 
Q 2819 4750 3233 4129 
Q 3647 3509 3647 2328 
Q 3647 1150 3233 529 
Q 2819 -91 2034 -91 
Q 1250 -91 836 529 
Q 422 1150 422 2328 
Q 422 3509 836 4129 
Q 1250 4750 2034 4750 
z
" transform="scale(0.015625)"/>
       </defs>
       <use xlink:href="#DejaVuSans-31"/>
       <use xlink:href="#DejaVuSans-30" x="63.623047"/>
       <use xlink:href="#DejaVuSans-30" x="127.246094"/>
      </g>
     </g>
    </g>
    <g id="xtick_5">
     <g id="line2d_5">
      <g>
       <use xlink:href="#m24c3d55f72" x="217.15848" y="307.584" style="stroke: #000000; stroke-width: 0.8"/>
      </g>
     </g>
     <g id="text_5">
      <!-- 133 -->
      <g transform="translate(207.61473 322.182437) scale(0.1 -0.1)">
       <use xlink:href="#DejaVuSans-31"/>
       <use xlink:href="#DejaVuSans-33" x="63.623047"/>
       <use xlink:href="#DejaVuSans-33" x="127.246094"/>
      </g>
     </g>
    </g>
    <g id="xtick_6">
     <g id="line2d_6">
      <g>
       <use xlink:href="#m24c3d55f72" x="254.075719" y="307.584" style="stroke: #000000; stroke-width: 0.8"/>
      </g>
     </g>
     <g id="text_6">
      <!-- 167 -->
      <g transform="translate(244.531969 322.182437) scale(0.1 -0.1)">
       <use xlink:href="#DejaVuSans-31"/>
       <use xlink:href="#DejaVuSans-36" x="63.623047"/>
       <use xlink:href="#DejaVuSans-37" x="127.246094"/>
      </g>
     </g>
    </g>
    <g id="xtick_7">
     <g id="line2d_7">
      <g>
       <use xlink:href="#m24c3d55f72" x="289.907157" y="307.584" style="stroke: #000000; stroke-width: 0.8"/>
      </g>
     </g>
     <g id="text_7">
      <!-- 200 -->
      <g transform="translate(280.363407 322.182437) scale(0.1 -0.1)">
       <defs>
        <path id="DejaVuSans-32" d="M 1228 531 
L 3431 531 
L 3431 0 
L 469 0 
L 469 531 
Q 828 903 1448 1529 
Q 2069 2156 2228 2338 
Q 2531 2678 2651 2914 
Q 2772 3150 2772 3378 
Q 2772 3750 2511 3984 
Q 2250 4219 1831 4219 
Q 1534 4219 1204 4116 
Q 875 4013 500 3803 
L 500 4441 
Q 881 4594 1212 4672 
Q 1544 4750 1819 4750 
Q 2544 4750 2975 4387 
Q 3406 4025 3406 3419 
Q 3406 3131 3298 2873 
Q 3191 2616 2906 2266 
Q 2828 2175 2409 1742 
Q 1991 1309 1228 531 
z
" transform="scale(0.015625)"/>
       </defs>
       <use xlink:href="#DejaVuSans-32"/>
       <use xlink:href="#DejaVuSans-30" x="63.623047"/>
       <use xlink:href="#DejaVuSans-30" x="127.246094"/>
      </g>
     </g>
    </g>
    <g id="xtick_8">
     <g id="line2d_8">
      <g>
       <use xlink:href="#m24c3d55f72" x="325.738595" y="307.584" style="stroke: #000000; stroke-width: 0.8"/>
      </g>
     </g>
     <g id="text_8">
      <!-- 233 -->
      <g transform="translate(316.194845 322.182437) scale(0.1 -0.1)">
       <use xlink:href="#DejaVuSans-32"/>
       <use xlink:href="#DejaVuSans-33" x="63.623047"/>
       <use xlink:href="#DejaVuSans-33" x="127.246094"/>
      </g>
     </g>
    </g>
    <g id="xtick_9">
     <g id="line2d_9">
      <g>
       <use xlink:href="#m24c3d55f72" x="361.570033" y="307.584" style="stroke: #000000; stroke-width: 0.8"/>
      </g>
     </g>
     <g id="text_9">
      <!-- 266 -->
      <g transform="translate(352.026283 322.182437) scale(0.1 -0.1)">
       <use xlink:href="#DejaVuSans-32"/>
       <use xlink:href="#DejaVuSans-36" x="63.623047"/>
       <use xlink:href="#DejaVuSans-36" x="127.246094"/>
      </g>
     </g>
    </g>
    <g id="xtick_10">
     <g id="line2d_10">
      <g>
       <use xlink:href="#m24c3d55f72" x="398.487273" y="307.584" style="stroke: #000000; stroke-width: 0.8"/>
      </g>
     </g>
     <g id="text_10">
      <!-- 300 -->
      <g transform="translate(388.943523 322.182437) scale(0.1 -0.1)">
       <use xlink:href="#DejaVuSans-33"/>
       <use xlink:href="#DejaVuSans-30" x="63.623047"/>
       <use xlink:href="#DejaVuSans-30" x="127.246094"/>
      </g>
     </g>
    </g>
    <g id="text_11">
     <!-- Epochs -->
     <g transform="translate(218.244375 335.860562) scale(0.1 -0.1)">
      <defs>
       <path id="DejaVuSans-45" d="M 628 4666 
L 3578 4666 
L 3578 4134 
L 1259 4134 
L 1259 2753 
L 3481 2753 
L 3481 2222 
L 1259 2222 
L 1259 531 
L 3634 531 
L 3634 0 
L 628 0 
L 628 4666 
z
" transform="scale(0.015625)"/>
       <path id="DejaVuSans-70" d="M 1159 525 
L 1159 -1331 
L 581 -1331 
L 581 3500 
L 1159 3500 
L 1159 2969 
Q 1341 3281 1617 3432 
Q 1894 3584 2278 3584 
Q 2916 3584 3314 3078 
Q 3713 2572 3713 1747 
Q 3713 922 3314 415 
Q 2916 -91 2278 -91 
Q 1894 -91 1617 61 
Q 1341 213 1159 525 
z
M 3116 1747 
Q 3116 2381 2855 2742 
Q 2594 3103 2138 3103 
Q 1681 3103 1420 2742 
Q 1159 2381 1159 1747 
Q 1159 1113 1420 752 
Q 1681 391 2138 391 
Q 2594 391 2855 752 
Q 3116 1113 3116 1747 
z
" transform="scale(0.015625)"/>
       <path id="DejaVuSans-6f" d="M 1959 3097 
Q 1497 3097 1228 2736 
Q 959 2375 959 1747 
Q 959 1119 1226 758 
Q 1494 397 1959 397 
Q 2419 397 2687 759 
Q 2956 1122 2956 1747 
Q 2956 2369 2687 2733 
Q 2419 3097 1959 3097 
z
M 1959 3584 
Q 2709 3584 3137 3096 
Q 3566 2609 3566 1747 
Q 3566 888 3137 398 
Q 2709 -91 1959 -91 
Q 1206 -91 779 398 
Q 353 888 353 1747 
Q 353 2609 779 3096 
Q 1206 3584 1959 3584 
z
" transform="scale(0.015625)"/>
       <path id="DejaVuSans-63" d="M 3122 3366 
L 3122 2828 
Q 2878 2963 2633 3030 
Q 2388 3097 2138 3097 
Q 1578 3097 1268 2742 
Q 959 2388 959 1747 
Q 959 1106 1268 751 
Q 1578 397 2138 397 
Q 2388 397 2633 464 
Q 2878 531 3122 666 
L 3122 134 
Q 2881 22 2623 -34 
Q 2366 -91 2075 -91 
Q 1284 -91 818 406 
Q 353 903 353 1747 
Q 353 2603 823 3093 
Q 1294 3584 2113 3584 
Q 2378 3584 2631 3529 
Q 2884 3475 3122 3366 
z
" transform="scale(0.015625)"/>
       <path id="DejaVuSans-68" d="M 3513 2113 
L 3513 0 
L 2938 0 
L 2938 2094 
Q 2938 2591 2744 2837 
Q 2550 3084 2163 3084 
Q 1697 3084 1428 2787 
Q 1159 2491 1159 1978 
L 1159 0 
L 581 0 
L 581 4863 
L 1159 4863 
L 1159 2956 
Q 1366 3272 1645 3428 
Q 1925 3584 2291 3584 
Q 2894 3584 3203 3211 
Q 3513 2838 3513 2113 
z
" transform="scale(0.015625)"/>
       <path id="DejaVuSans-73" d="M 2834 3397 
L 2834 2853 
Q 2591 2978 2328 3040 
Q 2066 3103 1784 3103 
Q 1356 3103 1142 2972 
Q 928 2841 928 2578 
Q 928 2378 1081 2264 
Q 1234 2150 1697 2047 
L 1894 2003 
Q 2506 1872 2764 1633 
Q 3022 1394 3022 966 
Q 3022 478 2636 193 
Q 2250 -91 1575 -91 
Q 1294 -91 989 -36 
Q 684 19 347 128 
L 347 722 
Q 666 556 975 473 
Q 1284 391 1588 391 
Q 1994 391 2212 530 
Q 2431 669 2431 922 
Q 2431 1156 2273 1281 
Q 2116 1406 1581 1522 
L 1381 1569 
Q 847 1681 609 1914 
Q 372 2147 372 2553 
Q 372 3047 722 3315 
Q 1072 3584 1716 3584 
Q 2034 3584 2315 3537 
Q 2597 3491 2834 3397 
z
" transform="scale(0.015625)"/>
      </defs>
      <use xlink:href="#DejaVuSans-45"/>
      <use xlink:href="#DejaVuSans-70" x="63.183594"/>
      <use xlink:href="#DejaVuSans-6f" x="126.660156"/>
      <use xlink:href="#DejaVuSans-63" x="187.841797"/>
      <use xlink:href="#DejaVuSans-68" x="242.822266"/>
      <use xlink:href="#DejaVuSans-73" x="306.201172"/>
     </g>
    </g>
   </g>
   <g id="matplotlib.axis_2">
    <g id="ytick_1">
     <g id="line2d_11">
      <defs>
       <path id="mac633cbfb8" d="M 0 0 
L -3.5 0 
" style="stroke: #000000; stroke-width: 0.8"/>
      </defs>
      <g>
       <use xlink:href="#mac633cbfb8" x="57.6" y="283.596139" style="stroke: #000000; stroke-width: 0.8"/>
      </g>
     </g>
     <g id="text_12">
      <!-- 10 -->
      <g transform="translate(37.875 287.395358) scale(0.1 -0.1)">
       <use xlink:href="#DejaVuSans-31"/>
       <use xlink:href="#DejaVuSans-30" x="63.623047"/>
      </g>
     </g>
    </g>
    <g id="ytick_2">
     <g id="line2d_12">
      <g>
       <use xlink:href="#mac633cbfb8" x="57.6" y="252.358461" style="stroke: #000000; stroke-width: 0.8"/>
      </g>
     </g>
     <g id="text_13">
      <!-- 20 -->
      <g transform="translate(37.875 256.157679) scale(0.1 -0.1)">
       <use xlink:href="#DejaVuSans-32"/>
       <use xlink:href="#DejaVuSans-30" x="63.623047"/>
      </g>
     </g>
    </g>
    <g id="ytick_3">
     <g id="line2d_13">
      <g>
       <use xlink:href="#mac633cbfb8" x="57.6" y="221.120782" style="stroke: #000000; stroke-width: 0.8"/>
      </g>
     </g>
     <g id="text_14">
      <!-- 30 -->
      <g transform="translate(37.875 224.920001) scale(0.1 -0.1)">
       <use xlink:href="#DejaVuSans-33"/>
       <use xlink:href="#DejaVuSans-30" x="63.623047"/>
      </g>
     </g>
    </g>
    <g id="ytick_4">
     <g id="line2d_14">
      <g>
       <use xlink:href="#mac633cbfb8" x="57.6" y="189.883104" style="stroke: #000000; stroke-width: 0.8"/>
      </g>
     </g>
     <g id="text_15">
      <!-- 40 -->
      <g transform="translate(37.875 193.682323) scale(0.1 -0.1)">
       <use xlink:href="#DejaVuSans-34"/>
       <use xlink:href="#DejaVuSans-30" x="63.623047"/>
      </g>
     </g>
    </g>
    <g id="ytick_5">
     <g id="line2d_15">
      <g>
       <use xlink:href="#mac633cbfb8" x="57.6" y="158.645425" style="stroke: #000000; stroke-width: 0.8"/>
      </g>
     </g>
     <g id="text_16">
      <!-- 50 -->
      <g transform="translate(37.875 162.444644) scale(0.1 -0.1)">
       <defs>
        <path id="DejaVuSans-35" d="M 691 4666 
L 3169 4666 
L 3169 4134 
L 1269 4134 
L 1269 2991 
Q 1406 3038 1543 3061 
Q 1681 3084 1819 3084 
Q 2600 3084 3056 2656 
Q 3513 2228 3513 1497 
Q 3513 744 3044 326 
Q 2575 -91 1722 -91 
Q 1428 -91 1123 -41 
Q 819 9 494 109 
L 494 744 
Q 775 591 1075 516 
Q 1375 441 1709 441 
Q 2250 441 2565 725 
Q 2881 1009 2881 1497 
Q 2881 1984 2565 2268 
Q 2250 2553 1709 2553 
Q 1456 2553 1204 2497 
Q 953 2441 691 2322 
L 691 4666 
z
" transform="scale(0.015625)"/>
       </defs>
       <use xlink:href="#DejaVuSans-35"/>
       <use xlink:href="#DejaVuSans-30" x="63.623047"/>
      </g>
     </g>
    </g>
    <g id="ytick_6">
     <g id="line2d_16">
      <g>
       <use xlink:href="#mac633cbfb8" x="57.6" y="127.407747" style="stroke: #000000; stroke-width: 0.8"/>
      </g>
     </g>
     <g id="text_17">
      <!-- 60 -->
      <g transform="translate(37.875 131.206966) scale(0.1 -0.1)">
       <use xlink:href="#DejaVuSans-36"/>
       <use xlink:href="#DejaVuSans-30" x="63.623047"/>
      </g>
     </g>
    </g>
    <g id="ytick_7">
     <g id="line2d_17">
      <g>
       <use xlink:href="#mac633cbfb8" x="57.6" y="96.170069" style="stroke: #000000; stroke-width: 0.8"/>
      </g>
     </g>
     <g id="text_18">
      <!-- 70 -->
      <g transform="translate(37.875 99.969287) scale(0.1 -0.1)">
       <use xlink:href="#DejaVuSans-37"/>
       <use xlink:href="#DejaVuSans-30" x="63.623047"/>
      </g>
     </g>
    </g>
    <g id="ytick_8">
     <g id="line2d_18">
      <g>
       <use xlink:href="#mac633cbfb8" x="57.6" y="64.93239" style="stroke: #000000; stroke-width: 0.8"/>
      </g>
     </g>
     <g id="text_19">
      <!-- 80 -->
      <g transform="translate(37.875 68.731609) scale(0.1 -0.1)">
       <defs>
        <path id="DejaVuSans-38" d="M 2034 2216 
Q 1584 2216 1326 1975 
Q 1069 1734 1069 1313 
Q 1069 891 1326 650 
Q 1584 409 2034 409 
Q 2484 409 2743 651 
Q 3003 894 3003 1313 
Q 3003 1734 2745 1975 
Q 2488 2216 2034 2216 
z
M 1403 2484 
Q 997 2584 770 2862 
Q 544 3141 544 3541 
Q 544 4100 942 4425 
Q 1341 4750 2034 4750 
Q 2731 4750 3128 4425 
Q 3525 4100 3525 3541 
Q 3525 3141 3298 2862 
Q 3072 2584 2669 2484 
Q 3125 2378 3379 2068 
Q 3634 1759 3634 1313 
Q 3634 634 3220 271 
Q 2806 -91 2034 -91 
Q 1263 -91 848 271 
Q 434 634 434 1313 
Q 434 1759 690 2068 
Q 947 2378 1403 2484 
z
M 1172 3481 
Q 1172 3119 1398 2916 
Q 1625 2713 2034 2713 
Q 2441 2713 2670 2916 
Q 2900 3119 2900 3481 
Q 2900 3844 2670 4047 
Q 2441 4250 2034 4250 
Q 1625 4250 1398 4047 
Q 1172 3844 1172 3481 
z
" transform="scale(0.015625)"/>
       </defs>
       <use xlink:href="#DejaVuSans-38"/>
       <use xlink:href="#DejaVuSans-30" x="63.623047"/>
      </g>
     </g>
    </g>
    <g id="text_20">
     <!-- Accuracy -->
     <g transform="translate(31.795312 197.356125) rotate(-90) scale(0.1 -0.1)">
      <defs>
       <path id="DejaVuSans-41" d="M 2188 4044 
L 1331 1722 
L 3047 1722 
L 2188 4044 
z
M 1831 4666 
L 2547 4666 
L 4325 0 
L 3669 0 
L 3244 1197 
L 1141 1197 
L 716 0 
L 50 0 
L 1831 4666 
z
" transform="scale(0.015625)"/>
       <path id="DejaVuSans-75" d="M 544 1381 
L 544 3500 
L 1119 3500 
L 1119 1403 
Q 1119 906 1312 657 
Q 1506 409 1894 409 
Q 2359 409 2629 706 
Q 2900 1003 2900 1516 
L 2900 3500 
L 3475 3500 
L 3475 0 
L 2900 0 
L 2900 538 
Q 2691 219 2414 64 
Q 2138 -91 1772 -91 
Q 1169 -91 856 284 
Q 544 659 544 1381 
z
M 1991 3584 
L 1991 3584 
z
" transform="scale(0.015625)"/>
       <path id="DejaVuSans-72" d="M 2631 2963 
Q 2534 3019 2420 3045 
Q 2306 3072 2169 3072 
Q 1681 3072 1420 2755 
Q 1159 2438 1159 1844 
L 1159 0 
L 581 0 
L 581 3500 
L 1159 3500 
L 1159 2956 
Q 1341 3275 1631 3429 
Q 1922 3584 2338 3584 
Q 2397 3584 2469 3576 
Q 2541 3569 2628 3553 
L 2631 2963 
z
" transform="scale(0.015625)"/>
       <path id="DejaVuSans-61" d="M 2194 1759 
Q 1497 1759 1228 1600 
Q 959 1441 959 1056 
Q 959 750 1161 570 
Q 1363 391 1709 391 
Q 2188 391 2477 730 
Q 2766 1069 2766 1631 
L 2766 1759 
L 2194 1759 
z
M 3341 1997 
L 3341 0 
L 2766 0 
L 2766 531 
Q 2569 213 2275 61 
Q 1981 -91 1556 -91 
Q 1019 -91 701 211 
Q 384 513 384 1019 
Q 384 1609 779 1909 
Q 1175 2209 1959 2209 
L 2766 2209 
L 2766 2266 
Q 2766 2663 2505 2880 
Q 2244 3097 1772 3097 
Q 1472 3097 1187 3025 
Q 903 2953 641 2809 
L 641 3341 
Q 956 3463 1253 3523 
Q 1550 3584 1831 3584 
Q 2591 3584 2966 3190 
Q 3341 2797 3341 1997 
z
" transform="scale(0.015625)"/>
       <path id="DejaVuSans-79" d="M 2059 -325 
Q 1816 -950 1584 -1140 
Q 1353 -1331 966 -1331 
L 506 -1331 
L 506 -850 
L 844 -850 
Q 1081 -850 1212 -737 
Q 1344 -625 1503 -206 
L 1606 56 
L 191 3500 
L 800 3500 
L 1894 763 
L 2988 3500 
L 3597 3500 
L 2059 -325 
z
" transform="scale(0.015625)"/>
      </defs>
      <use xlink:href="#DejaVuSans-41"/>
      <use xlink:href="#DejaVuSans-63" x="66.658203"/>
      <use xlink:href="#DejaVuSans-63" x="121.638672"/>
      <use xlink:href="#DejaVuSans-75" x="176.619141"/>
      <use xlink:href="#DejaVuSans-72" x="239.998047"/>
      <use xlink:href="#DejaVuSans-61" x="281.111328"/>
      <use xlink:href="#DejaVuSans-63" x="342.390625"/>
      <use xlink:href="#DejaVuSans-79" x="397.371094"/>
     </g>
    </g>
   </g>
   <g id="line2d_19">
    <path d="M 73.832727 286.870333 
L 74.918528 248.586394 
L 76.00433 223.805414 
L 77.090131 206.315719 
L 78.175932 193.457398 
L 79.261733 183.687702 
L 81.433335 167.362109 
L 82.519137 160.202256 
L 85.77654 142.540448 
L 86.862341 138.807186 
L 87.948142 133.346545 
L 89.033943 130.239144 
L 90.119745 126.020838 
L 91.205546 122.306351 
L 92.291347 120.466319 
L 93.377148 120.55081 
L 94.462949 118.529278 
L 95.54875 151.014611 
L 96.634552 149.428053 
L 99.891955 140.09646 
L 100.977756 137.743221 
L 102.063557 134.607656 
L 103.149358 132.961641 
L 104.23516 131.822573 
L 105.320961 128.67449 
L 106.406762 126.020838 
L 107.492563 124.543806 
L 108.578364 121.251775 
L 109.664165 120.384957 
L 110.749967 118.153761 
L 111.835768 115.606506 
L 112.921569 114.163895 
L 114.00737 112.061001 
L 117.264773 106.800636 
L 118.350575 104.475562 
L 120.522177 100.833049 
L 121.607978 99.243361 
L 122.693779 96.602226 
L 123.77958 96.073373 
L 124.865382 92.906515 
L 125.951183 91.57343 
L 127.036984 88.86658 
L 128.122785 88.553649 
L 129.208586 87.226823 
L 130.294387 85.230325 
L 131.380189 84.651404 
L 132.46599 82.557897 
L 133.551791 82.060338 
L 134.637592 81.73176 
L 136.809194 80.523848 
L 137.894995 80.317314 
L 138.980797 116.861358 
L 140.066598 119.295958 
L 144.409802 116.254272 
L 145.495604 114.332878 
L 146.581405 113.728922 
L 147.667206 112.934078 
L 148.753007 112.727543 
L 149.838808 111.707389 
L 150.924609 110.042598 
L 152.01041 109.635788 
L 153.096212 108.63754 
L 154.182013 106.87574 
L 155.267814 107.448403 
L 156.353615 105.918172 
L 157.439416 106.19668 
L 158.525217 103.996778 
L 159.611019 104.678967 
L 160.69682 103.477313 
L 161.782621 102.607365 
L 162.868422 101.54966 
L 163.954223 101.646668 
L 165.040024 100.360523 
L 166.125825 98.74893 
L 167.211627 98.451646 
L 168.297428 97.246863 
L 169.383229 97.246863 
L 170.46903 95.960718 
L 171.554831 94.896754 
L 172.640632 94.787228 
L 174.812235 93.181894 
L 175.898036 92.02405 
L 178.069638 90.553276 
L 179.155439 90.227828 
L 180.24124 88.947942 
L 181.327042 87.229952 
L 182.412843 87.361383 
L 184.584445 85.098894 
L 185.670246 84.595076 
L 186.756047 83.740775 
L 187.841849 82.557897 
L 188.92765 81.196649 
L 190.013451 80.758546 
L 191.099252 79.494306 
L 192.185053 78.452247 
L 193.270854 77.973463 
L 194.356656 76.640378 
L 196.528258 75.341716 
L 197.614059 73.464132 
L 198.69986 72.869564 
L 199.785661 71.996487 
L 200.871462 70.422446 
L 201.957264 70.434963 
L 203.043065 69.305283 
L 204.128866 68.479146 
L 205.214667 67.865802 
L 206.300468 66.545235 
L 207.386269 66.266727 
L 208.472071 64.379755 
L 209.557872 64.098117 
L 210.643673 62.564757 
L 211.729474 62.239309 
L 212.815275 62.09849 
L 213.901076 61.103371 
L 214.986877 60.993845 
L 217.15848 60.170837 
L 218.244281 59.247692 
L 219.330082 59.372864 
L 220.415883 59.216399 
L 221.501684 58.640606 
L 222.587486 58.518563 
L 223.673287 59.041157 
L 224.759088 58.593667 
L 225.844889 104.488079 
L 226.93069 107.110438 
L 228.016491 106.772473 
L 229.102292 105.761707 
L 230.188094 105.207819 
L 232.359696 104.982509 
L 233.445497 103.946709 
L 234.531298 102.694986 
L 235.617099 102.159875 
L 236.702901 102.141099 
L 238.874503 101.681091 
L 239.960304 100.742299 
L 241.046105 100.23848 
L 242.131906 100.078886 
L 243.217708 99.543774 
L 245.38931 99.105671 
L 246.475111 98.079259 
L 247.560912 97.919664 
L 248.646713 96.984001 
L 249.732514 97.512854 
L 250.818316 96.815019 
L 251.904117 96.789984 
L 252.989918 96.580321 
L 254.075719 96.145347 
L 255.16152 96.952708 
L 256.247321 95.650917 
L 258.418924 94.161367 
L 259.504725 94.19266 
L 260.590526 94.69022 
L 261.676327 94.170755 
L 262.762128 93.817143 
L 263.847929 93.826531 
L 264.933731 93.60435 
L 266.019532 93.250738 
L 267.105333 93.491695 
L 268.191134 92.189903 
L 269.276935 92.330722 
L 270.362736 91.986499 
L 271.448538 92.083507 
L 272.534339 91.069612 
L 273.62014 90.628379 
L 274.705941 90.972603 
L 275.791742 91.069612 
L 276.877543 89.961837 
L 277.963344 89.339105 
L 279.049146 89.567544 
L 280.134947 89.423596 
L 281.220748 88.434735 
L 282.306549 88.059219 
L 283.39235 88.566166 
L 284.478151 87.486555 
L 285.563953 86.876341 
L 286.649754 86.566539 
L 287.735555 86.47266 
L 288.821356 87.017159 
L 289.907157 86.053333 
L 290.992958 85.853057 
L 292.07876 85.217808 
L 293.164561 84.889231 
L 294.250362 85.011274 
L 295.336163 83.894111 
L 296.421964 83.556146 
L 297.507765 84.466774 
L 298.593566 82.385786 
L 299.679368 83.806491 
L 300.765169 82.730009 
L 301.85097 82.939673 
L 302.936771 81.428218 
L 304.022572 81.155968 
L 305.108373 80.686572 
L 306.194175 80.617727 
L 307.279976 79.923021 
L 308.365777 79.650771 
L 309.451578 78.902867 
L 310.537379 78.880962 
L 311.62318 78.57429 
L 312.708981 78.455376 
L 314.880584 77.206783 
L 315.966385 77.657403 
L 317.052186 76.643508 
L 318.137987 76.371258 
L 319.223788 75.854922 
L 321.395391 74.37476 
L 322.481192 74.049312 
L 323.566993 73.949175 
L 326.824396 71.902608 
L 328.995999 70.876195 
L 330.0818 70.106386 
L 331.167601 70.159584 
L 332.253402 69.718352 
L 333.339203 69.4993 
L 334.425005 67.959682 
L 336.596607 68.006621 
L 337.682408 66.833131 
L 339.85401 66.110261 
L 340.939811 65.70971 
L 342.025613 65.068202 
L 343.111414 64.573772 
L 344.197215 63.594299 
L 346.368817 62.5053 
L 347.454618 62.624214 
L 348.54042 61.804335 
L 349.626221 61.701068 
L 350.712022 60.693431 
L 351.797823 60.596423 
L 353.969425 58.75952 
L 355.055227 58.662511 
L 356.141028 57.964676 
L 358.31263 57.648616 
L 359.398431 57.038401 
L 360.484232 56.00573 
L 361.570033 56.011989 
L 362.655835 55.739739 
L 363.741636 55.01374 
L 365.913238 54.171956 
L 366.999039 53.568 
L 368.08484 54.074948 
L 369.170642 55.332929 
L 372.428045 60.925 
L 373.513846 61.275482 
L 374.599647 61.01575 
L 376.77125 61.19412 
L 377.857051 61.629094 
L 378.942852 61.184733 
L 380.028653 61.960801 
L 381.114454 61.541474 
L 383.286057 61.879439 
L 384.371858 62.467748 
L 385.457659 61.794947 
L 386.54346 62.558498 
L 387.629261 62.646119 
L 388.715062 61.388137 
L 389.800863 61.500793 
L 390.886665 62.808843 
L 391.972466 62.09849 
L 393.058267 62.017128 
L 395.229869 62.436455 
L 396.31567 62.283119 
L 397.401472 62.433326 
L 398.487273 62.182981 
L 398.487273 62.182981 
" clip-path="url(#pa4940cab0b)" style="fill: none; stroke: #1f77b4; stroke-width: 1.5; stroke-linecap: square"/>
   </g>
   <g id="line2d_20">
    <path d="M 73.832727 279.41029 
L 74.918528 258.605996 
L 76.00433 235.021549 
L 77.090131 219.8088 
L 78.175932 216.934933 
L 79.261733 202.877978 
L 80.347534 203.846346 
L 81.433335 189.227113 
L 82.519137 180.449325 
L 83.604938 181.542644 
L 84.690739 171.202972 
L 85.77654 169.297474 
L 86.862341 157.739533 
L 87.948142 158.426762 
L 89.033943 153.616159 
L 90.119745 150.180015 
L 91.205546 147.212435 
L 92.291347 143.65134 
L 93.377148 141.90203 
L 94.462949 141.121088 
L 95.54875 173.077233 
L 96.634552 174.482928 
L 97.720353 173.202184 
L 98.806154 176.48214 
L 99.891955 163.768405 
L 100.977756 163.0187 
L 102.063557 168.797671 
L 103.149358 157.302205 
L 104.23516 155.927747 
L 105.320961 156.552501 
L 106.406762 165.548952 
L 107.492563 156.896115 
L 108.578364 149.898875 
L 109.664165 149.461548 
L 110.749967 138.590836 
L 111.835768 138.903213 
L 112.921569 138.965688 
L 114.00737 137.435042 
L 115.093171 134.998503 
L 116.178972 134.342512 
L 117.264773 128.657254 
L 118.350575 128.938393 
L 119.436376 126.97042 
L 120.522177 122.940759 
L 121.607978 123.315611 
L 122.693779 120.597933 
L 124.865382 118.130157 
L 125.951183 117.567878 
L 127.036984 113.788119 
L 128.122785 111.820146 
L 129.208586 111.476531 
L 131.380189 109.039992 
L 132.46599 109.414844 
L 133.551791 107.509346 
L 134.637592 106.478503 
L 135.723393 106.790879 
L 136.809194 105.916224 
L 137.894995 106.540978 
L 138.980797 145.181986 
L 140.066598 145.40065 
L 141.152399 149.461548 
L 142.2382 140.090244 
L 143.324001 144.619708 
L 144.409802 142.589259 
L 145.495604 141.246039 
L 146.581405 142.745447 
L 147.667206 139.527966 
L 148.753007 138.028558 
L 149.838808 144.99456 
L 150.924609 141.058612 
L 152.01041 135.873158 
L 153.096212 134.967265 
L 154.182013 135.560781 
L 155.267814 138.153508 
L 156.353615 137.809894 
L 157.439416 129.813048 
L 158.525217 135.43583 
L 159.611019 140.215195 
L 160.69682 130.968842 
L 161.782621 126.470617 
L 162.868422 130.406564 
L 163.954223 126.314428 
L 165.040024 130.625228 
L 166.125825 127.845075 
L 167.211627 125.658437 
L 168.297428 125.533486 
L 169.383229 131.343695 
L 170.46903 124.471405 
L 171.554831 132.561964 
L 172.640632 123.346849 
L 173.726434 121.035261 
L 174.812235 120.223081 
L 175.898036 118.22387 
L 176.983837 118.286345 
L 178.069638 122.128579 
L 179.155439 115.974757 
L 180.24124 115.818568 
L 181.327042 121.909916 
L 182.412843 117.036838 
L 183.498644 113.10089 
L 184.584445 112.444899 
L 185.670246 110.82054 
L 186.756047 112.194998 
L 187.841849 110.539401 
L 188.92765 108.446476 
L 190.013451 106.947068 
L 191.099252 109.289894 
L 192.185053 106.50974 
L 193.270854 106.978305 
L 194.356656 109.321131 
L 195.442457 107.884198 
L 196.528258 105.260233 
L 197.614059 101.043146 
L 198.69986 102.105228 
L 199.785661 101.13686 
L 200.871462 101.605425 
L 201.957264 102.886169 
L 203.043065 98.669083 
L 204.128866 100.605819 
L 205.214667 98.419181 
L 206.300468 98.231755 
L 207.386269 96.357495 
L 209.557872 94.733135 
L 210.643673 95.107988 
L 211.729474 94.13962 
L 212.815275 94.451996 
L 213.901076 93.108776 
L 214.986877 92.983825 
L 216.072679 92.421547 
L 218.244281 92.702686 
L 219.330082 91.890507 
L 220.415883 92.608973 
L 221.501684 92.10917 
L 222.587486 92.640211 
L 224.759088 91.952982 
L 225.844889 149.680212 
L 226.93069 147.743476 
L 228.016491 143.120299 
L 229.102292 147.27491 
L 230.188094 136.24801 
L 231.273895 141.995743 
L 232.359696 146.681395 
L 233.445497 136.685338 
L 234.531298 136.154297 
L 235.617099 132.124636 
L 236.702901 135.623256 
L 237.788702 134.217561 
L 238.874503 126.439379 
L 239.960304 138.372172 
L 241.046105 136.154297 
L 242.131906 130.375326 
L 243.217708 128.032501 
L 244.303509 134.811077 
L 245.38931 138.372172 
L 246.475111 139.34054 
L 247.560912 134.248799 
L 248.646713 130.219138 
L 249.732514 140.871186 
L 250.818316 126.095765 
L 251.904117 127.50146 
L 252.989918 136.966477 
L 254.075719 123.659226 
L 255.16152 133.249193 
L 256.247321 125.502249 
L 257.333123 128.938393 
L 258.418924 130.219138 
L 259.504725 126.751756 
L 260.590526 127.09537 
L 261.676327 134.811077 
L 262.762128 127.782599 
L 263.847929 134.09261 
L 264.933731 124.346455 
L 266.019532 124.596356 
L 267.105333 127.345272 
L 268.191134 125.533486 
L 269.276935 128.750967 
L 270.362736 123.752939 
L 271.448538 124.971208 
L 272.534339 131.062555 
L 274.705941 119.036049 
L 275.791742 131.374932 
L 276.877543 123.659226 
L 277.963344 118.536246 
L 279.049146 128.407353 
L 280.134947 121.378875 
L 281.220748 123.19066 
L 282.306549 131.156268 
L 283.39235 130.437802 
L 284.478151 124.658831 
L 285.563953 124.971208 
L 286.649754 120.09813 
L 287.735555 125.720912 
L 288.821356 130.344089 
L 289.907157 116.162183 
L 290.992958 119.97318 
L 292.07876 124.440168 
L 293.164561 125.189872 
L 294.250362 123.4718 
L 295.336163 121.503826 
L 296.421964 118.098919 
L 297.507765 120.004417 
L 298.593566 122.940759 
L 299.679368 118.34882 
L 300.765169 117.849017 
L 301.85097 116.255896 
L 302.936771 118.22387 
L 304.022572 133.186718 
L 305.108373 114.537824 
L 306.194175 117.068075 
L 307.279976 115.631142 
L 308.365777 111.695195 
L 309.451578 121.253924 
L 310.537379 118.473771 
L 311.62318 114.787725 
L 312.708981 118.911099 
L 313.794783 116.849412 
L 314.880584 113.132128 
L 315.966385 111.132917 
L 317.052186 107.259444 
L 318.137987 113.881832 
L 319.223788 112.757276 
L 320.30959 109.289894 
L 321.395391 113.600693 
L 322.481192 110.00836 
L 323.566993 113.10089 
L 324.652794 112.382424 
L 325.738595 110.726827 
L 326.824396 111.257867 
L 327.910198 107.977911 
L 328.995999 106.759642 
L 330.0818 108.384001 
L 331.167601 102.948645 
L 332.253402 105.697561 
L 333.339203 104.979094 
L 334.425005 106.759642 
L 335.510806 104.76043 
L 336.596607 101.26181 
L 337.682408 100.355918 
L 338.768209 100.32468 
L 339.85401 99.637451 
L 340.939811 102.761219 
L 342.025613 103.41721 
L 343.111414 100.230967 
L 344.197215 98.544132 
L 345.283016 101.480474 
L 346.368817 102.011515 
L 347.454618 97.169674 
L 348.54042 101.13686 
L 349.626221 99.200123 
L 350.712022 95.920167 
L 351.797823 97.044724 
L 352.883624 97.63824 
L 353.969425 95.732741 
L 355.055227 99.731164 
L 356.141028 94.764373 
L 357.226829 95.545315 
L 358.31263 95.170463 
L 359.398431 96.076356 
L 360.484232 93.73353 
L 361.570033 94.077144 
L 362.655835 93.952193 
L 363.741636 93.546104 
L 364.827437 94.295808 
L 365.913238 93.171252 
L 366.999039 93.889718 
L 368.08484 93.73353 
L 369.170642 92.890112 
L 370.256443 95.795217 
L 371.342244 97.388338 
L 372.428045 101.13686 
L 373.513846 98.325468 
L 374.599647 101.699138 
L 375.685448 102.667506 
L 376.77125 103.229784 
L 377.857051 99.637451 
L 378.942852 98.700321 
L 380.028653 101.168097 
L 381.114454 100.699532 
L 382.200255 98.950222 
L 383.286057 102.542555 
L 384.371858 99.481263 
L 385.457659 99.168886 
L 386.54346 104.073201 
L 387.629261 100.793245 
L 388.715062 100.574581 
L 389.800863 102.448842 
L 390.886665 98.231755 
L 391.972466 99.293836 
L 393.058267 102.948645 
L 394.144068 100.137254 
L 395.229869 98.825271 
L 396.31567 100.387155 
L 397.401472 100.949433 
L 398.487273 102.292654 
L 398.487273 102.292654 
" clip-path="url(#pa4940cab0b)" style="fill: none; stroke: #ff7f0e; stroke-width: 1.5; stroke-linecap: square"/>
   </g>
   <g id="line2d_21">
    <path d="M 73.832727 295.488 
L 74.918528 287.753982 
L 76.00433 280.881692 
L 77.090131 276.314528 
L 78.175932 278.791999 
L 79.261733 274.332552 
L 80.347534 274.117119 
L 81.433335 267.783411 
L 82.519137 264.745816 
L 83.604938 269.140634 
L 84.690739 258.132045 
L 85.77654 259.467725 
L 86.862341 255.008277 
L 87.948142 256.106982 
L 89.033943 251.108953 
L 90.119745 251.992226 
L 92.291347 249.493211 
L 93.377148 248.308334 
L 94.462949 248.825371 
L 95.54875 260.286368 
L 96.634552 262.289888 
L 97.720353 261.492789 
L 98.806154 264.810445 
L 100.977756 257.184143 
L 102.063557 264.314951 
L 103.149358 254.060375 
L 104.23516 251.130497 
L 105.320961 254.361981 
L 106.406762 261.492789 
L 108.578364 248.35142 
L 109.664165 250.764262 
L 110.749967 246.3479 
L 111.835768 243.935059 
L 112.921569 245.163023 
L 114.00737 245.292282 
L 115.093171 248.933088 
L 116.178972 241.629934 
L 117.264773 241.759193 
L 118.350575 242.857898 
L 119.436376 234.563756 
L 120.522177 233.357335 
L 121.607978 239.777216 
L 122.693779 233.917459 
L 123.77958 232.861841 
L 124.865382 235.317768 
L 125.951183 237.342832 
L 127.036984 234.197521 
L 128.122785 233.551224 
L 129.208586 230.039678 
L 130.294387 228.790171 
L 131.380189 227.066713 
L 132.46599 228.682455 
L 133.551791 229.58727 
L 134.637592 227.605293 
L 135.723393 226.528132 
L 136.809194 226.700478 
L 137.894995 227.239059 
L 138.980797 247.489691 
L 140.066598 249.471668 
L 141.152399 250.290311 
L 142.2382 245.766233 
L 143.324001 246.197098 
L 144.409802 250.462657 
L 145.495604 244.882961 
L 146.581405 246.951111 
L 148.753007 245.184566 
L 149.838808 250.915064 
L 150.924609 248.674569 
L 152.01041 236.373387 
L 153.096212 245.119936 
L 154.182013 252.121485 
L 155.267814 239.454068 
L 156.353615 241.974625 
L 157.439416 236.847338 
L 158.525217 239.777216 
L 159.611019 240.940551 
L 160.69682 239.583327 
L 161.782621 234.973077 
L 162.868422 237.924499 
L 163.954223 239.13092 
L 165.040024 243.590367 
L 166.125825 236.39493 
L 167.211627 233.249619 
L 168.297428 235.770176 
L 169.383229 239.626414 
L 170.46903 235.468571 
L 172.640632 235.296225 
L 173.726434 230.858321 
L 174.812235 227.389861 
L 175.898036 230.125851 
L 176.983837 230.98758 
L 178.069638 230.448999 
L 179.155439 234.369866 
L 180.24124 232.689495 
L 181.327042 234.99462 
L 182.412843 230.492086 
L 183.498644 227.066713 
L 184.584445 226.98054 
L 185.670246 225.020106 
L 186.756047 224.352266 
L 187.841849 224.653871 
L 190.013451 221.465474 
L 191.099252 220.862263 
L 192.185053 220.948436 
L 193.270854 225.429428 
L 194.356656 222.564178 
L 195.442457 225.041649 
L 196.528258 220.883807 
L 197.614059 218.858743 
L 198.69986 222.348746 
L 199.785661 220.819177 
L 200.871462 221.336214 
L 201.957264 220.819177 
L 203.043065 221.077696 
L 204.128866 219.56967 
L 205.214667 217.781582 
L 206.300468 212.977443 
L 207.386269 217.975471 
L 208.472071 214.593185 
L 209.557872 213.968431 
L 211.729474 215.131765 
L 212.815275 214.722444 
L 213.901076 214.614728 
L 214.986877 211.55559 
L 216.072679 212.180343 
L 217.15848 212.09417 
L 218.244281 212.546578 
L 219.330082 211.663306 
L 220.415883 212.051084 
L 221.501684 210.543058 
L 222.587486 212.051084 
L 223.673287 211.943368 
L 224.759088 212.09417 
L 225.844889 246.929568 
L 226.93069 246.994197 
L 228.016491 247.618951 
L 229.102292 251.173583 
L 230.188094 242.017712 
L 231.273895 236.99814 
L 232.359696 241.996169 
L 233.445497 244.732158 
L 234.531298 241.091353 
L 235.617099 236.588819 
L 236.702901 246.886481 
L 237.788702 247.985186 
L 238.874503 239.604871 
L 239.960304 241.931539 
L 241.046105 240.768205 
L 242.131906 242.879441 
L 243.217708 236.674992 
L 244.303509 243.870429 
L 245.38931 244.387467 
L 246.475111 248.459137 
L 247.560912 246.326357 
L 248.646713 237.170486 
L 249.732514 241.629934 
L 250.818316 234.477583 
L 251.904117 234.39141 
L 252.989918 240.595859 
L 254.075719 233.486594 
L 255.16152 244.128948 
L 256.247321 237.06277 
L 257.333123 237.687523 
L 258.418924 230.836777 
L 259.504725 236.308757 
L 260.590526 235.619374 
L 261.676327 241.00518 
L 262.762128 238.743141 
L 263.847929 234.843817 
L 264.933731 228.014615 
L 266.019532 235.102336 
L 267.105333 239.992649 
L 268.191134 233.314248 
L 269.276935 236.136411 
L 270.362736 233.745113 
L 271.448538 234.908447 
L 272.534339 236.588819 
L 273.62014 240.208081 
L 274.705941 230.276653 
L 275.791742 240.875921 
L 276.877543 235.274682 
L 277.963344 228.25159 
L 279.049146 233.400421 
L 280.134947 234.456039 
L 281.220748 229.285665 
L 282.306549 235.748633 
L 283.39235 235.296225 
L 284.478151 231.418444 
L 285.563953 233.034186 
L 286.649754 222.822697 
L 287.735555 237.148943 
L 288.821356 236.955054 
L 289.907157 226.571219 
L 290.992958 234.283694 
L 292.07876 232.646408 
L 293.164561 236.007152 
L 294.250362 233.357335 
L 295.336163 230.212024 
L 296.421964 228.790171 
L 297.507765 229.371838 
L 298.593566 233.05573 
L 299.679368 228.25159 
L 300.765169 229.694986 
L 301.85097 221.465474 
L 304.022572 230.212024 
L 305.108373 226.463502 
L 306.194175 225.063193 
L 307.279976 220.711461 
L 308.365777 229.931962 
L 309.451578 225.881835 
L 310.537379 232.474063 
L 311.62318 229.134862 
L 312.708981 228.682455 
L 313.794783 233.292705 
L 314.880584 225.666403 
L 315.966385 225.278625 
L 317.052186 219.289608 
L 318.137987 227.432948 
L 319.223788 225.838749 
L 320.30959 227.605293 
L 321.395391 224.201464 
L 322.481192 224.546155 
L 323.566993 222.779611 
L 324.652794 220.043621 
L 325.738595 229.04869 
L 326.824396 224.91239 
L 327.910198 224.804674 
L 328.995999 224.093747 
L 330.0818 222.025598 
L 331.167601 217.781582 
L 332.253402 219.526583 
L 333.339203 220.409856 
L 334.425005 220.797634 
L 335.510806 214.399296 
L 336.596607 219.612756 
L 337.682408 217.092199 
L 338.768209 218.384792 
L 339.85401 218.90183 
L 340.939811 213.774542 
L 342.025613 215.174852 
L 343.111414 219.655843 
L 344.197215 219.246522 
L 345.283016 221.206955 
L 346.368817 216.704421 
L 347.454618 211.318614 
L 348.54042 216.984483 
L 349.626221 212.697381 
L 350.712022 215.584173 
L 351.797823 212.503492 
L 352.883624 215.56263 
L 353.969425 214.377752 
L 355.055227 217.781582 
L 356.141028 211.060095 
L 357.226829 212.438862 
L 358.31263 210.370712 
L 359.398431 211.964911 
L 360.484232 214.270036 
L 361.570033 212.309603 
L 362.655835 211.684849 
L 363.741636 214.636271 
L 364.827437 214.291579 
L 365.913238 215.928865 
L 366.999039 212.955899 
L 368.08484 212.805097 
L 369.170642 215.024049 
L 370.256443 215.476457 
L 371.342244 214.83016 
L 372.428045 215.217938 
L 373.513846 217.479977 
L 374.599647 223.059673 
L 375.685448 219.828189 
L 376.77125 213.839172 
L 377.857051 219.806645 
L 378.942852 214.507012 
L 380.028653 218.147817 
L 381.114454 218.96646 
L 382.200255 217.975471 
L 383.286057 217.867755 
L 384.371858 218.729484 
L 385.457659 214.636271 
L 386.54346 220.689918 
L 387.629261 216.553618 
L 388.715062 218.772571 
L 389.800863 222.111771 
L 390.886665 214.205407 
L 391.972466 220.517572 
L 393.058267 218.363249 
L 394.144068 210.75849 
L 395.229869 213.257505 
L 396.31567 219.332694 
L 397.401472 219.742016 
L 398.487273 221.723993 
L 398.487273 221.723993 
" clip-path="url(#pa4940cab0b)" style="fill: none; stroke: #2ca02c; stroke-width: 1.5; stroke-linecap: square"/>
   </g>
   <g id="line2d_22">
    <path d="M 368.08484 93.108776 
L 369.170642 96.544921 
L 371.342244 98.887747 
L 372.428045 101.199335 
L 373.513846 106.91583 
L 374.599647 115.25629 
L 375.685448 108.384001 
L 376.77125 106.416027 
L 377.857051 108.415239 
L 378.942852 114.600299 
L 380.028653 107.946673 
L 381.114454 107.821723 
L 383.286057 109.789696 
L 384.371858 102.886169 
L 385.457659 119.723278 
L 386.54346 119.004812 
L 387.629261 110.289499 
L 388.715062 111.195392 
L 389.800863 114.444111 
L 390.886665 114.72525 
L 391.972466 124.596356 
L 393.058267 117.161789 
L 394.144068 120.91031 
L 395.229869 123.565513 
L 396.31567 115.162577 
L 397.401472 119.192238 
L 398.487273 129.094582 
L 398.487273 129.094582 
" clip-path="url(#pa4940cab0b)" style="fill: none; stroke: #d62728; stroke-width: 1.5; stroke-linecap: square"/>
   </g>
   <g id="line2d_23">
    <path d="M 368.08484 215.928865 
L 369.170642 217.652323 
L 370.256443 212.09417 
L 371.342244 213.42985 
L 372.428045 222.84424 
L 373.513846 225.838749 
L 374.599647 234.542212 
L 375.685448 219.526583 
L 376.77125 222.9735 
L 377.857051 218.320163 
L 378.942852 234.477583 
L 380.028653 223.124302 
L 381.114454 221.336214 
L 382.200255 225.343255 
L 383.286057 213.171332 
L 384.371858 208.970402 
L 385.457659 224.029118 
L 386.54346 221.960968 
L 387.629261 215.368741 
L 388.715062 219.138805 
L 389.800863 225.450971 
L 390.886665 225.063193 
L 391.972466 231.978568 
L 393.058267 221.874795 
L 394.144068 224.459982 
L 395.229869 224.136834 
L 396.31567 224.84776 
L 397.401472 218.427879 
L 398.487273 226.420416 
L 398.487273 226.420416 
" clip-path="url(#pa4940cab0b)" style="fill: none; stroke: #9467bd; stroke-width: 1.5; stroke-linecap: square"/>
   </g>
   <g id="patch_3">
    <path d="M 57.6 307.584 
L 57.6 41.472 
" style="fill: none; stroke: #000000; stroke-width: 0.8; stroke-linejoin: miter; stroke-linecap: square"/>
   </g>
   <g id="patch_4">
    <path d="M 414.72 307.584 
L 414.72 41.472 
" style="fill: none; stroke: #000000; stroke-width: 0.8; stroke-linejoin: miter; stroke-linecap: square"/>
   </g>
   <g id="patch_5">
    <path d="M 57.6 307.584 
L 414.72 307.584 
" style="fill: none; stroke: #000000; stroke-width: 0.8; stroke-linejoin: miter; stroke-linecap: square"/>
   </g>
   <g id="patch_6">
    <path d="M 57.6 41.472 
L 414.72 41.472 
" style="fill: none; stroke: #000000; stroke-width: 0.8; stroke-linejoin: miter; stroke-linecap: square"/>
   </g>
   <g id="text_21">
    <!-- Learning Curves -->
    <g transform="translate(187.37625 35.472) scale(0.12 -0.12)">
     <defs>
      <path id="DejaVuSans-4c" d="M 628 4666 
L 1259 4666 
L 1259 531 
L 3531 531 
L 3531 0 
L 628 0 
L 628 4666 
z
" transform="scale(0.015625)"/>
      <path id="DejaVuSans-65" d="M 3597 1894 
L 3597 1613 
L 953 1613 
Q 991 1019 1311 708 
Q 1631 397 2203 397 
Q 2534 397 2845 478 
Q 3156 559 3463 722 
L 3463 178 
Q 3153 47 2828 -22 
Q 2503 -91 2169 -91 
Q 1331 -91 842 396 
Q 353 884 353 1716 
Q 353 2575 817 3079 
Q 1281 3584 2069 3584 
Q 2775 3584 3186 3129 
Q 3597 2675 3597 1894 
z
M 3022 2063 
Q 3016 2534 2758 2815 
Q 2500 3097 2075 3097 
Q 1594 3097 1305 2825 
Q 1016 2553 972 2059 
L 3022 2063 
z
" transform="scale(0.015625)"/>
      <path id="DejaVuSans-6e" d="M 3513 2113 
L 3513 0 
L 2938 0 
L 2938 2094 
Q 2938 2591 2744 2837 
Q 2550 3084 2163 3084 
Q 1697 3084 1428 2787 
Q 1159 2491 1159 1978 
L 1159 0 
L 581 0 
L 581 3500 
L 1159 3500 
L 1159 2956 
Q 1366 3272 1645 3428 
Q 1925 3584 2291 3584 
Q 2894 3584 3203 3211 
Q 3513 2838 3513 2113 
z
" transform="scale(0.015625)"/>
      <path id="DejaVuSans-69" d="M 603 3500 
L 1178 3500 
L 1178 0 
L 603 0 
L 603 3500 
z
M 603 4863 
L 1178 4863 
L 1178 4134 
L 603 4134 
L 603 4863 
z
" transform="scale(0.015625)"/>
      <path id="DejaVuSans-67" d="M 2906 1791 
Q 2906 2416 2648 2759 
Q 2391 3103 1925 3103 
Q 1463 3103 1205 2759 
Q 947 2416 947 1791 
Q 947 1169 1205 825 
Q 1463 481 1925 481 
Q 2391 481 2648 825 
Q 2906 1169 2906 1791 
z
M 3481 434 
Q 3481 -459 3084 -895 
Q 2688 -1331 1869 -1331 
Q 1566 -1331 1297 -1286 
Q 1028 -1241 775 -1147 
L 775 -588 
Q 1028 -725 1275 -790 
Q 1522 -856 1778 -856 
Q 2344 -856 2625 -561 
Q 2906 -266 2906 331 
L 2906 616 
Q 2728 306 2450 153 
Q 2172 0 1784 0 
Q 1141 0 747 490 
Q 353 981 353 1791 
Q 353 2603 747 3093 
Q 1141 3584 1784 3584 
Q 2172 3584 2450 3431 
Q 2728 3278 2906 2969 
L 2906 3500 
L 3481 3500 
L 3481 434 
z
" transform="scale(0.015625)"/>
      <path id="DejaVuSans-20" transform="scale(0.015625)"/>
      <path id="DejaVuSans-43" d="M 4122 4306 
L 4122 3641 
Q 3803 3938 3442 4084 
Q 3081 4231 2675 4231 
Q 1875 4231 1450 3742 
Q 1025 3253 1025 2328 
Q 1025 1406 1450 917 
Q 1875 428 2675 428 
Q 3081 428 3442 575 
Q 3803 722 4122 1019 
L 4122 359 
Q 3791 134 3420 21 
Q 3050 -91 2638 -91 
Q 1578 -91 968 557 
Q 359 1206 359 2328 
Q 359 3453 968 4101 
Q 1578 4750 2638 4750 
Q 3056 4750 3426 4639 
Q 3797 4528 4122 4306 
z
" transform="scale(0.015625)"/>
      <path id="DejaVuSans-76" d="M 191 3500 
L 800 3500 
L 1894 563 
L 2988 3500 
L 3597 3500 
L 2284 0 
L 1503 0 
L 191 3500 
z
" transform="scale(0.015625)"/>
     </defs>
     <use xlink:href="#DejaVuSans-4c"/>
     <use xlink:href="#DejaVuSans-65" x="53.962891"/>
     <use xlink:href="#DejaVuSans-61" x="115.486328"/>
     <use xlink:href="#DejaVuSans-72" x="176.765625"/>
     <use xlink:href="#DejaVuSans-6e" x="216.128906"/>
     <use xlink:href="#DejaVuSans-69" x="279.507812"/>
     <use xlink:href="#DejaVuSans-6e" x="307.291016"/>
     <use xlink:href="#DejaVuSans-67" x="370.669922"/>
     <use xlink:href="#DejaVuSans-20" x="434.146484"/>
     <use xlink:href="#DejaVuSans-43" x="465.933594"/>
     <use xlink:href="#DejaVuSans-75" x="535.757812"/>
     <use xlink:href="#DejaVuSans-72" x="599.136719"/>
     <use xlink:href="#DejaVuSans-76" x="640.25"/>
     <use xlink:href="#DejaVuSans-65" x="699.429688"/>
     <use xlink:href="#DejaVuSans-73" x="760.953125"/>
    </g>
   </g>
   <g id="legend_1">
    <g id="patch_7">
     <path d="M 214.18875 212.723313 
L 407.72 212.723313 
Q 409.72 212.723313 409.72 210.723313 
L 409.72 138.332688 
Q 409.72 136.332688 407.72 136.332688 
L 214.18875 136.332688 
Q 212.18875 136.332688 212.18875 138.332688 
L 212.18875 210.723313 
Q 212.18875 212.723313 214.18875 212.723313 
z
" style="fill: #ffffff; opacity: 0.8; stroke: #cccccc; stroke-linejoin: miter"/>
    </g>
    <g id="line2d_24">
     <path d="M 216.18875 144.431125 
L 226.18875 144.431125 
L 236.18875 144.431125 
" style="fill: none; stroke: #1f77b4; stroke-width: 1.5; stroke-linecap: square"/>
    </g>
    <g id="text_22">
     <!-- Train Accuracy -->
     <g transform="translate(244.18875 147.931125) scale(0.1 -0.1)">
      <defs>
       <path id="DejaVuSans-54" d="M -19 4666 
L 3928 4666 
L 3928 4134 
L 2272 4134 
L 2272 0 
L 1638 0 
L 1638 4134 
L -19 4134 
L -19 4666 
z
" transform="scale(0.015625)"/>
      </defs>
      <use xlink:href="#DejaVuSans-54"/>
      <use xlink:href="#DejaVuSans-72" x="46.333984"/>
      <use xlink:href="#DejaVuSans-61" x="87.447266"/>
      <use xlink:href="#DejaVuSans-69" x="148.726562"/>
      <use xlink:href="#DejaVuSans-6e" x="176.509766"/>
      <use xlink:href="#DejaVuSans-20" x="239.888672"/>
      <use xlink:href="#DejaVuSans-41" x="271.675781"/>
      <use xlink:href="#DejaVuSans-63" x="338.333984"/>
      <use xlink:href="#DejaVuSans-63" x="393.314453"/>
      <use xlink:href="#DejaVuSans-75" x="448.294922"/>
      <use xlink:href="#DejaVuSans-72" x="511.673828"/>
      <use xlink:href="#DejaVuSans-61" x="552.787109"/>
      <use xlink:href="#DejaVuSans-63" x="614.066406"/>
      <use xlink:href="#DejaVuSans-79" x="669.046875"/>
     </g>
    </g>
    <g id="line2d_25">
     <path d="M 216.18875 159.10925 
L 226.18875 159.10925 
L 236.18875 159.10925 
" style="fill: none; stroke: #ff7f0e; stroke-width: 1.5; stroke-linecap: square"/>
    </g>
    <g id="text_23">
     <!-- Validation Accuracy -->
     <g transform="translate(244.18875 162.60925) scale(0.1 -0.1)">
      <defs>
       <path id="DejaVuSans-56" d="M 1831 0 
L 50 4666 
L 709 4666 
L 2188 738 
L 3669 4666 
L 4325 4666 
L 2547 0 
L 1831 0 
z
" transform="scale(0.015625)"/>
       <path id="DejaVuSans-6c" d="M 603 4863 
L 1178 4863 
L 1178 0 
L 603 0 
L 603 4863 
z
" transform="scale(0.015625)"/>
       <path id="DejaVuSans-64" d="M 2906 2969 
L 2906 4863 
L 3481 4863 
L 3481 0 
L 2906 0 
L 2906 525 
Q 2725 213 2448 61 
Q 2172 -91 1784 -91 
Q 1150 -91 751 415 
Q 353 922 353 1747 
Q 353 2572 751 3078 
Q 1150 3584 1784 3584 
Q 2172 3584 2448 3432 
Q 2725 3281 2906 2969 
z
M 947 1747 
Q 947 1113 1208 752 
Q 1469 391 1925 391 
Q 2381 391 2643 752 
Q 2906 1113 2906 1747 
Q 2906 2381 2643 2742 
Q 2381 3103 1925 3103 
Q 1469 3103 1208 2742 
Q 947 2381 947 1747 
z
" transform="scale(0.015625)"/>
       <path id="DejaVuSans-74" d="M 1172 4494 
L 1172 3500 
L 2356 3500 
L 2356 3053 
L 1172 3053 
L 1172 1153 
Q 1172 725 1289 603 
Q 1406 481 1766 481 
L 2356 481 
L 2356 0 
L 1766 0 
Q 1100 0 847 248 
Q 594 497 594 1153 
L 594 3053 
L 172 3053 
L 172 3500 
L 594 3500 
L 594 4494 
L 1172 4494 
z
" transform="scale(0.015625)"/>
      </defs>
      <use xlink:href="#DejaVuSans-56"/>
      <use xlink:href="#DejaVuSans-61" x="60.658203"/>
      <use xlink:href="#DejaVuSans-6c" x="121.9375"/>
      <use xlink:href="#DejaVuSans-69" x="149.720703"/>
      <use xlink:href="#DejaVuSans-64" x="177.503906"/>
      <use xlink:href="#DejaVuSans-61" x="240.980469"/>
      <use xlink:href="#DejaVuSans-74" x="302.259766"/>
      <use xlink:href="#DejaVuSans-69" x="341.46875"/>
      <use xlink:href="#DejaVuSans-6f" x="369.251953"/>
      <use xlink:href="#DejaVuSans-6e" x="430.433594"/>
      <use xlink:href="#DejaVuSans-20" x="493.8125"/>
      <use xlink:href="#DejaVuSans-41" x="525.599609"/>
      <use xlink:href="#DejaVuSans-63" x="592.257812"/>
      <use xlink:href="#DejaVuSans-63" x="647.238281"/>
      <use xlink:href="#DejaVuSans-75" x="702.21875"/>
      <use xlink:href="#DejaVuSans-72" x="765.597656"/>
      <use xlink:href="#DejaVuSans-61" x="806.710938"/>
      <use xlink:href="#DejaVuSans-63" x="867.990234"/>
      <use xlink:href="#DejaVuSans-79" x="922.970703"/>
     </g>
    </g>
    <g id="line2d_26">
     <path d="M 216.18875 173.787375 
L 226.18875 173.787375 
L 236.18875 173.787375 
" style="fill: none; stroke: #2ca02c; stroke-width: 1.5; stroke-linecap: square"/>
    </g>
    <g id="text_24">
     <!-- Robust Validation Accuracy -->
     <g transform="translate(244.18875 177.287375) scale(0.1 -0.1)">
      <defs>
       <path id="DejaVuSans-52" d="M 2841 2188 
Q 3044 2119 3236 1894 
Q 3428 1669 3622 1275 
L 4263 0 
L 3584 0 
L 2988 1197 
Q 2756 1666 2539 1819 
Q 2322 1972 1947 1972 
L 1259 1972 
L 1259 0 
L 628 0 
L 628 4666 
L 2053 4666 
Q 2853 4666 3247 4331 
Q 3641 3997 3641 3322 
Q 3641 2881 3436 2590 
Q 3231 2300 2841 2188 
z
M 1259 4147 
L 1259 2491 
L 2053 2491 
Q 2509 2491 2742 2702 
Q 2975 2913 2975 3322 
Q 2975 3731 2742 3939 
Q 2509 4147 2053 4147 
L 1259 4147 
z
" transform="scale(0.015625)"/>
       <path id="DejaVuSans-62" d="M 3116 1747 
Q 3116 2381 2855 2742 
Q 2594 3103 2138 3103 
Q 1681 3103 1420 2742 
Q 1159 2381 1159 1747 
Q 1159 1113 1420 752 
Q 1681 391 2138 391 
Q 2594 391 2855 752 
Q 3116 1113 3116 1747 
z
M 1159 2969 
Q 1341 3281 1617 3432 
Q 1894 3584 2278 3584 
Q 2916 3584 3314 3078 
Q 3713 2572 3713 1747 
Q 3713 922 3314 415 
Q 2916 -91 2278 -91 
Q 1894 -91 1617 61 
Q 1341 213 1159 525 
L 1159 0 
L 581 0 
L 581 4863 
L 1159 4863 
L 1159 2969 
z
" transform="scale(0.015625)"/>
      </defs>
      <use xlink:href="#DejaVuSans-52"/>
      <use xlink:href="#DejaVuSans-6f" x="64.982422"/>
      <use xlink:href="#DejaVuSans-62" x="126.164062"/>
      <use xlink:href="#DejaVuSans-75" x="189.640625"/>
      <use xlink:href="#DejaVuSans-73" x="253.019531"/>
      <use xlink:href="#DejaVuSans-74" x="305.119141"/>
      <use xlink:href="#DejaVuSans-20" x="344.328125"/>
      <use xlink:href="#DejaVuSans-56" x="376.115234"/>
      <use xlink:href="#DejaVuSans-61" x="436.773438"/>
      <use xlink:href="#DejaVuSans-6c" x="498.052734"/>
      <use xlink:href="#DejaVuSans-69" x="525.835938"/>
      <use xlink:href="#DejaVuSans-64" x="553.619141"/>
      <use xlink:href="#DejaVuSans-61" x="617.095703"/>
      <use xlink:href="#DejaVuSans-74" x="678.375"/>
      <use xlink:href="#DejaVuSans-69" x="717.583984"/>
      <use xlink:href="#DejaVuSans-6f" x="745.367188"/>
      <use xlink:href="#DejaVuSans-6e" x="806.548828"/>
      <use xlink:href="#DejaVuSans-20" x="869.927734"/>
      <use xlink:href="#DejaVuSans-41" x="901.714844"/>
      <use xlink:href="#DejaVuSans-63" x="968.373047"/>
      <use xlink:href="#DejaVuSans-63" x="1023.353516"/>
      <use xlink:href="#DejaVuSans-75" x="1078.333984"/>
      <use xlink:href="#DejaVuSans-72" x="1141.712891"/>
      <use xlink:href="#DejaVuSans-61" x="1182.826172"/>
      <use xlink:href="#DejaVuSans-63" x="1244.105469"/>
      <use xlink:href="#DejaVuSans-79" x="1299.085938"/>
     </g>
    </g>
    <g id="line2d_27">
     <path d="M 216.18875 188.4655 
L 226.18875 188.4655 
L 236.18875 188.4655 
" style="fill: none; stroke: #d62728; stroke-width: 1.5; stroke-linecap: square"/>
    </g>
    <g id="text_25">
     <!-- SWA Validation Accuracy -->
     <g transform="translate(244.18875 191.9655) scale(0.1 -0.1)">
      <defs>
       <path id="DejaVuSans-53" d="M 3425 4513 
L 3425 3897 
Q 3066 4069 2747 4153 
Q 2428 4238 2131 4238 
Q 1616 4238 1336 4038 
Q 1056 3838 1056 3469 
Q 1056 3159 1242 3001 
Q 1428 2844 1947 2747 
L 2328 2669 
Q 3034 2534 3370 2195 
Q 3706 1856 3706 1288 
Q 3706 609 3251 259 
Q 2797 -91 1919 -91 
Q 1588 -91 1214 -16 
Q 841 59 441 206 
L 441 856 
Q 825 641 1194 531 
Q 1563 422 1919 422 
Q 2459 422 2753 634 
Q 3047 847 3047 1241 
Q 3047 1584 2836 1778 
Q 2625 1972 2144 2069 
L 1759 2144 
Q 1053 2284 737 2584 
Q 422 2884 422 3419 
Q 422 4038 858 4394 
Q 1294 4750 2059 4750 
Q 2388 4750 2728 4690 
Q 3069 4631 3425 4513 
z
" transform="scale(0.015625)"/>
       <path id="DejaVuSans-57" d="M 213 4666 
L 850 4666 
L 1831 722 
L 2809 4666 
L 3519 4666 
L 4500 722 
L 5478 4666 
L 6119 4666 
L 4947 0 
L 4153 0 
L 3169 4050 
L 2175 0 
L 1381 0 
L 213 4666 
z
" transform="scale(0.015625)"/>
      </defs>
      <use xlink:href="#DejaVuSans-53"/>
      <use xlink:href="#DejaVuSans-57" x="63.476562"/>
      <use xlink:href="#DejaVuSans-41" x="156.853516"/>
      <use xlink:href="#DejaVuSans-20" x="225.261719"/>
      <use xlink:href="#DejaVuSans-56" x="257.048828"/>
      <use xlink:href="#DejaVuSans-61" x="317.707031"/>
      <use xlink:href="#DejaVuSans-6c" x="378.986328"/>
      <use xlink:href="#DejaVuSans-69" x="406.769531"/>
      <use xlink:href="#DejaVuSans-64" x="434.552734"/>
      <use xlink:href="#DejaVuSans-61" x="498.029297"/>
      <use xlink:href="#DejaVuSans-74" x="559.308594"/>
      <use xlink:href="#DejaVuSans-69" x="598.517578"/>
      <use xlink:href="#DejaVuSans-6f" x="626.300781"/>
      <use xlink:href="#DejaVuSans-6e" x="687.482422"/>
      <use xlink:href="#DejaVuSans-20" x="750.861328"/>
      <use xlink:href="#DejaVuSans-41" x="782.648438"/>
      <use xlink:href="#DejaVuSans-63" x="849.306641"/>
      <use xlink:href="#DejaVuSans-63" x="904.287109"/>
      <use xlink:href="#DejaVuSans-75" x="959.267578"/>
      <use xlink:href="#DejaVuSans-72" x="1022.646484"/>
      <use xlink:href="#DejaVuSans-61" x="1063.759766"/>
      <use xlink:href="#DejaVuSans-63" x="1125.039062"/>
      <use xlink:href="#DejaVuSans-79" x="1180.019531"/>
     </g>
    </g>
    <g id="line2d_28">
     <path d="M 216.18875 203.143625 
L 226.18875 203.143625 
L 236.18875 203.143625 
" style="fill: none; stroke: #9467bd; stroke-width: 1.5; stroke-linecap: square"/>
    </g>
    <g id="text_26">
     <!-- SWA Robust Validation Accuracy -->
     <g transform="translate(244.18875 206.643625) scale(0.1 -0.1)">
      <use xlink:href="#DejaVuSans-53"/>
      <use xlink:href="#DejaVuSans-57" x="63.476562"/>
      <use xlink:href="#DejaVuSans-41" x="156.853516"/>
      <use xlink:href="#DejaVuSans-20" x="225.261719"/>
      <use xlink:href="#DejaVuSans-52" x="257.048828"/>
      <use xlink:href="#DejaVuSans-6f" x="322.03125"/>
      <use xlink:href="#DejaVuSans-62" x="383.212891"/>
      <use xlink:href="#DejaVuSans-75" x="446.689453"/>
      <use xlink:href="#DejaVuSans-73" x="510.068359"/>
      <use xlink:href="#DejaVuSans-74" x="562.167969"/>
      <use xlink:href="#DejaVuSans-20" x="601.376953"/>
      <use xlink:href="#DejaVuSans-56" x="633.164062"/>
      <use xlink:href="#DejaVuSans-61" x="693.822266"/>
      <use xlink:href="#DejaVuSans-6c" x="755.101562"/>
      <use xlink:href="#DejaVuSans-69" x="782.884766"/>
      <use xlink:href="#DejaVuSans-64" x="810.667969"/>
      <use xlink:href="#DejaVuSans-61" x="874.144531"/>
      <use xlink:href="#DejaVuSans-74" x="935.423828"/>
      <use xlink:href="#DejaVuSans-69" x="974.632812"/>
      <use xlink:href="#DejaVuSans-6f" x="1002.416016"/>
      <use xlink:href="#DejaVuSans-6e" x="1063.597656"/>
      <use xlink:href="#DejaVuSans-20" x="1126.976562"/>
      <use xlink:href="#DejaVuSans-41" x="1158.763672"/>
      <use xlink:href="#DejaVuSans-63" x="1225.421875"/>
      <use xlink:href="#DejaVuSans-63" x="1280.402344"/>
      <use xlink:href="#DejaVuSans-75" x="1335.382812"/>
      <use xlink:href="#DejaVuSans-72" x="1398.761719"/>
      <use xlink:href="#DejaVuSans-61" x="1439.875"/>
      <use xlink:href="#DejaVuSans-63" x="1501.154297"/>
      <use xlink:href="#DejaVuSans-79" x="1556.134766"/>
     </g>
    </g>
   </g>
  </g>
 </g>
 <defs>
  <clipPath id="pa4940cab0b">
   <rect x="57.6" y="41.472" width="357.12" height="266.112"/>
  </clipPath>
 </defs>
</svg>
