<?xml version="1.0" encoding="utf-8" standalone="no"?>
<!DOCTYPE svg PUBLIC "-//W3C//DTD SVG 1.1//EN"
  "http://www.w3.org/Graphics/SVG/1.1/DTD/svg11.dtd">
<svg xmlns:xlink="http://www.w3.org/1999/xlink" width="460.8pt" height="345.6pt" viewBox="0 0 460.8 345.6" xmlns="http://www.w3.org/2000/svg" version="1.1">
 <metadata>
  <rdf:RDF xmlns:dc="http://purl.org/dc/elements/1.1/" xmlns:cc="http://creativecommons.org/ns#" xmlns:rdf="http://www.w3.org/1999/02/22-rdf-syntax-ns#">
   <cc:Work>
    <dc:type rdf:resource="http://purl.org/dc/dcmitype/StillImage"/>
    <dc:date>2025-07-14T00:33:32.516431</dc:date>
    <dc:format>image/svg+xml</dc:format>
    <dc:creator>
     <cc:Agent>
      <dc:title>Matplotlib v3.9.1, https://matplotlib.org/</dc:title>
     </cc:Agent>
    </dc:creator>
   </cc:Work>
  </rdf:RDF>
 </metadata>
 <defs>
  <style type="text/css">*{stroke-linejoin: round; stroke-linecap: butt}</style>
 </defs>
 <g id="figure_1">
  <g id="patch_1">
   <path d="M 0 345.6 
L 460.8 345.6 
L 460.8 0 
L 0 0 
z
" style="fill: #ffffff"/>
  </g>
  <g id="axes_1">
   <g id="patch_2">
    <path d="M 57.6 307.584 
L 414.72 307.584 
L 414.72 41.472 
L 57.6 41.472 
z
" style="fill: #ffffff"/>
   </g>
   <g id="matplotlib.axis_1">
    <g id="xtick_1">
     <g id="line2d_1">
      <defs>
       <path id="m5ec8297e13" d="M 0 0 
L 0 3.5 
" style="stroke: #000000; stroke-width: 0.8"/>
      </defs>
      <g>
       <use xlink:href="#m5ec8297e13" x="73.832727" y="307.584" style="stroke: #000000; stroke-width: 0.8"/>
      </g>
     </g>
     <g id="text_1">
      <!-- 1 -->
      <g transform="translate(70.651477 322.182437) scale(0.1 -0.1)">
       <defs>
        <path id="DejaVuSans-31" d="M 794 531 
L 1825 531 
L 1825 4091 
L 703 3866 
L 703 4441 
L 1819 4666 
L 2450 4666 
L 2450 531 
L 3481 531 
L 3481 0 
L 794 0 
L 794 531 
z
" transform="scale(0.015625)"/>
       </defs>
       <use xlink:href="#DejaVuSans-31"/>
      </g>
     </g>
    </g>
    <g id="xtick_2">
     <g id="line2d_2">
      <g>
       <use xlink:href="#m5ec8297e13" x="109.664165" y="307.584" style="stroke: #000000; stroke-width: 0.8"/>
      </g>
     </g>
     <g id="text_2">
      <!-- 34 -->
      <g transform="translate(103.301665 322.182437) scale(0.1 -0.1)">
       <defs>
        <path id="DejaVuSans-33" d="M 2597 2516 
Q 3050 2419 3304 2112 
Q 3559 1806 3559 1356 
Q 3559 666 3084 287 
Q 2609 -91 1734 -91 
Q 1441 -91 1130 -33 
Q 819 25 488 141 
L 488 750 
Q 750 597 1062 519 
Q 1375 441 1716 441 
Q 2309 441 2620 675 
Q 2931 909 2931 1356 
Q 2931 1769 2642 2001 
Q 2353 2234 1838 2234 
L 1294 2234 
L 1294 2753 
L 1863 2753 
Q 2328 2753 2575 2939 
Q 2822 3125 2822 3475 
Q 2822 3834 2567 4026 
Q 2313 4219 1838 4219 
Q 1578 4219 1281 4162 
Q 984 4106 628 3988 
L 628 4550 
Q 988 4650 1302 4700 
Q 1616 4750 1894 4750 
Q 2613 4750 3031 4423 
Q 3450 4097 3450 3541 
Q 3450 3153 3228 2886 
Q 3006 2619 2597 2516 
z
" transform="scale(0.015625)"/>
        <path id="DejaVuSans-34" d="M 2419 4116 
L 825 1625 
L 2419 1625 
L 2419 4116 
z
M 2253 4666 
L 3047 4666 
L 3047 1625 
L 3713 1625 
L 3713 1100 
L 3047 1100 
L 3047 0 
L 2419 0 
L 2419 1100 
L 313 1100 
L 313 1709 
L 2253 4666 
z
" transform="scale(0.015625)"/>
       </defs>
       <use xlink:href="#DejaVuSans-33"/>
       <use xlink:href="#DejaVuSans-34" x="63.623047"/>
      </g>
     </g>
    </g>
    <g id="xtick_3">
     <g id="line2d_3">
      <g>
       <use xlink:href="#m5ec8297e13" x="145.495604" y="307.584" style="stroke: #000000; stroke-width: 0.8"/>
      </g>
     </g>
     <g id="text_3">
      <!-- 67 -->
      <g transform="translate(139.133104 322.182437) scale(0.1 -0.1)">
       <defs>
        <path id="DejaVuSans-36" d="M 2113 2584 
Q 1688 2584 1439 2293 
Q 1191 2003 1191 1497 
Q 1191 994 1439 701 
Q 1688 409 2113 409 
Q 2538 409 2786 701 
Q 3034 994 3034 1497 
Q 3034 2003 2786 2293 
Q 2538 2584 2113 2584 
z
M 3366 4563 
L 3366 3988 
Q 3128 4100 2886 4159 
Q 2644 4219 2406 4219 
Q 1781 4219 1451 3797 
Q 1122 3375 1075 2522 
Q 1259 2794 1537 2939 
Q 1816 3084 2150 3084 
Q 2853 3084 3261 2657 
Q 3669 2231 3669 1497 
Q 3669 778 3244 343 
Q 2819 -91 2113 -91 
Q 1303 -91 875 529 
Q 447 1150 447 2328 
Q 447 3434 972 4092 
Q 1497 4750 2381 4750 
Q 2619 4750 2861 4703 
Q 3103 4656 3366 4563 
z
" transform="scale(0.015625)"/>
        <path id="DejaVuSans-37" d="M 525 4666 
L 3525 4666 
L 3525 4397 
L 1831 0 
L 1172 0 
L 2766 4134 
L 525 4134 
L 525 4666 
z
" transform="scale(0.015625)"/>
       </defs>
       <use xlink:href="#DejaVuSans-36"/>
       <use xlink:href="#DejaVuSans-37" x="63.623047"/>
      </g>
     </g>
    </g>
    <g id="xtick_4">
     <g id="line2d_4">
      <g>
       <use xlink:href="#m5ec8297e13" x="181.327042" y="307.584" style="stroke: #000000; stroke-width: 0.8"/>
      </g>
     </g>
     <g id="text_4">
      <!-- 100 -->
      <g transform="translate(171.783292 322.182437) scale(0.1 -0.1)">
       <defs>
        <path id="DejaVuSans-30" d="M 2034 4250 
Q 1547 4250 1301 3770 
Q 1056 3291 1056 2328 
Q 1056 1369 1301 889 
Q 1547 409 2034 409 
Q 2525 409 2770 889 
Q 3016 1369 3016 2328 
Q 3016 3291 2770 3770 
Q 2525 4250 2034 4250 
z
M 2034 4750 
Q 2819 4750 3233 4129 
Q 3647 3509 3647 2328 
Q 3647 1150 3233 529 
Q 2819 -91 2034 -91 
Q 1250 -91 836 529 
Q 422 1150 422 2328 
Q 422 3509 836 4129 
Q 1250 4750 2034 4750 
z
" transform="scale(0.015625)"/>
       </defs>
       <use xlink:href="#DejaVuSans-31"/>
       <use xlink:href="#DejaVuSans-30" x="63.623047"/>
       <use xlink:href="#DejaVuSans-30" x="127.246094"/>
      </g>
     </g>
    </g>
    <g id="xtick_5">
     <g id="line2d_5">
      <g>
       <use xlink:href="#m5ec8297e13" x="217.15848" y="307.584" style="stroke: #000000; stroke-width: 0.8"/>
      </g>
     </g>
     <g id="text_5">
      <!-- 133 -->
      <g transform="translate(207.61473 322.182437) scale(0.1 -0.1)">
       <use xlink:href="#DejaVuSans-31"/>
       <use xlink:href="#DejaVuSans-33" x="63.623047"/>
       <use xlink:href="#DejaVuSans-33" x="127.246094"/>
      </g>
     </g>
    </g>
    <g id="xtick_6">
     <g id="line2d_6">
      <g>
       <use xlink:href="#m5ec8297e13" x="254.075719" y="307.584" style="stroke: #000000; stroke-width: 0.8"/>
      </g>
     </g>
     <g id="text_6">
      <!-- 167 -->
      <g transform="translate(244.531969 322.182437) scale(0.1 -0.1)">
       <use xlink:href="#DejaVuSans-31"/>
       <use xlink:href="#DejaVuSans-36" x="63.623047"/>
       <use xlink:href="#DejaVuSans-37" x="127.246094"/>
      </g>
     </g>
    </g>
    <g id="xtick_7">
     <g id="line2d_7">
      <g>
       <use xlink:href="#m5ec8297e13" x="289.907157" y="307.584" style="stroke: #000000; stroke-width: 0.8"/>
      </g>
     </g>
     <g id="text_7">
      <!-- 200 -->
      <g transform="translate(280.363407 322.182437) scale(0.1 -0.1)">
       <defs>
        <path id="DejaVuSans-32" d="M 1228 531 
L 3431 531 
L 3431 0 
L 469 0 
L 469 531 
Q 828 903 1448 1529 
Q 2069 2156 2228 2338 
Q 2531 2678 2651 2914 
Q 2772 3150 2772 3378 
Q 2772 3750 2511 3984 
Q 2250 4219 1831 4219 
Q 1534 4219 1204 4116 
Q 875 4013 500 3803 
L 500 4441 
Q 881 4594 1212 4672 
Q 1544 4750 1819 4750 
Q 2544 4750 2975 4387 
Q 3406 4025 3406 3419 
Q 3406 3131 3298 2873 
Q 3191 2616 2906 2266 
Q 2828 2175 2409 1742 
Q 1991 1309 1228 531 
z
" transform="scale(0.015625)"/>
       </defs>
       <use xlink:href="#DejaVuSans-32"/>
       <use xlink:href="#DejaVuSans-30" x="63.623047"/>
       <use xlink:href="#DejaVuSans-30" x="127.246094"/>
      </g>
     </g>
    </g>
    <g id="xtick_8">
     <g id="line2d_8">
      <g>
       <use xlink:href="#m5ec8297e13" x="325.738595" y="307.584" style="stroke: #000000; stroke-width: 0.8"/>
      </g>
     </g>
     <g id="text_8">
      <!-- 233 -->
      <g transform="translate(316.194845 322.182437) scale(0.1 -0.1)">
       <use xlink:href="#DejaVuSans-32"/>
       <use xlink:href="#DejaVuSans-33" x="63.623047"/>
       <use xlink:href="#DejaVuSans-33" x="127.246094"/>
      </g>
     </g>
    </g>
    <g id="xtick_9">
     <g id="line2d_9">
      <g>
       <use xlink:href="#m5ec8297e13" x="361.570033" y="307.584" style="stroke: #000000; stroke-width: 0.8"/>
      </g>
     </g>
     <g id="text_9">
      <!-- 266 -->
      <g transform="translate(352.026283 322.182437) scale(0.1 -0.1)">
       <use xlink:href="#DejaVuSans-32"/>
       <use xlink:href="#DejaVuSans-36" x="63.623047"/>
       <use xlink:href="#DejaVuSans-36" x="127.246094"/>
      </g>
     </g>
    </g>
    <g id="xtick_10">
     <g id="line2d_10">
      <g>
       <use xlink:href="#m5ec8297e13" x="398.487273" y="307.584" style="stroke: #000000; stroke-width: 0.8"/>
      </g>
     </g>
     <g id="text_10">
      <!-- 300 -->
      <g transform="translate(388.943523 322.182437) scale(0.1 -0.1)">
       <use xlink:href="#DejaVuSans-33"/>
       <use xlink:href="#DejaVuSans-30" x="63.623047"/>
       <use xlink:href="#DejaVuSans-30" x="127.246094"/>
      </g>
     </g>
    </g>
    <g id="text_11">
     <!-- Epochs -->
     <g transform="translate(218.244375 335.860562) scale(0.1 -0.1)">
      <defs>
       <path id="DejaVuSans-45" d="M 628 4666 
L 3578 4666 
L 3578 4134 
L 1259 4134 
L 1259 2753 
L 3481 2753 
L 3481 2222 
L 1259 2222 
L 1259 531 
L 3634 531 
L 3634 0 
L 628 0 
L 628 4666 
z
" transform="scale(0.015625)"/>
       <path id="DejaVuSans-70" d="M 1159 525 
L 1159 -1331 
L 581 -1331 
L 581 3500 
L 1159 3500 
L 1159 2969 
Q 1341 3281 1617 3432 
Q 1894 3584 2278 3584 
Q 2916 3584 3314 3078 
Q 3713 2572 3713 1747 
Q 3713 922 3314 415 
Q 2916 -91 2278 -91 
Q 1894 -91 1617 61 
Q 1341 213 1159 525 
z
M 3116 1747 
Q 3116 2381 2855 2742 
Q 2594 3103 2138 3103 
Q 1681 3103 1420 2742 
Q 1159 2381 1159 1747 
Q 1159 1113 1420 752 
Q 1681 391 2138 391 
Q 2594 391 2855 752 
Q 3116 1113 3116 1747 
z
" transform="scale(0.015625)"/>
       <path id="DejaVuSans-6f" d="M 1959 3097 
Q 1497 3097 1228 2736 
Q 959 2375 959 1747 
Q 959 1119 1226 758 
Q 1494 397 1959 397 
Q 2419 397 2687 759 
Q 2956 1122 2956 1747 
Q 2956 2369 2687 2733 
Q 2419 3097 1959 3097 
z
M 1959 3584 
Q 2709 3584 3137 3096 
Q 3566 2609 3566 1747 
Q 3566 888 3137 398 
Q 2709 -91 1959 -91 
Q 1206 -91 779 398 
Q 353 888 353 1747 
Q 353 2609 779 3096 
Q 1206 3584 1959 3584 
z
" transform="scale(0.015625)"/>
       <path id="DejaVuSans-63" d="M 3122 3366 
L 3122 2828 
Q 2878 2963 2633 3030 
Q 2388 3097 2138 3097 
Q 1578 3097 1268 2742 
Q 959 2388 959 1747 
Q 959 1106 1268 751 
Q 1578 397 2138 397 
Q 2388 397 2633 464 
Q 2878 531 3122 666 
L 3122 134 
Q 2881 22 2623 -34 
Q 2366 -91 2075 -91 
Q 1284 -91 818 406 
Q 353 903 353 1747 
Q 353 2603 823 3093 
Q 1294 3584 2113 3584 
Q 2378 3584 2631 3529 
Q 2884 3475 3122 3366 
z
" transform="scale(0.015625)"/>
       <path id="DejaVuSans-68" d="M 3513 2113 
L 3513 0 
L 2938 0 
L 2938 2094 
Q 2938 2591 2744 2837 
Q 2550 3084 2163 3084 
Q 1697 3084 1428 2787 
Q 1159 2491 1159 1978 
L 1159 0 
L 581 0 
L 581 4863 
L 1159 4863 
L 1159 2956 
Q 1366 3272 1645 3428 
Q 1925 3584 2291 3584 
Q 2894 3584 3203 3211 
Q 3513 2838 3513 2113 
z
" transform="scale(0.015625)"/>
       <path id="DejaVuSans-73" d="M 2834 3397 
L 2834 2853 
Q 2591 2978 2328 3040 
Q 2066 3103 1784 3103 
Q 1356 3103 1142 2972 
Q 928 2841 928 2578 
Q 928 2378 1081 2264 
Q 1234 2150 1697 2047 
L 1894 2003 
Q 2506 1872 2764 1633 
Q 3022 1394 3022 966 
Q 3022 478 2636 193 
Q 2250 -91 1575 -91 
Q 1294 -91 989 -36 
Q 684 19 347 128 
L 347 722 
Q 666 556 975 473 
Q 1284 391 1588 391 
Q 1994 391 2212 530 
Q 2431 669 2431 922 
Q 2431 1156 2273 1281 
Q 2116 1406 1581 1522 
L 1381 1569 
Q 847 1681 609 1914 
Q 372 2147 372 2553 
Q 372 3047 722 3315 
Q 1072 3584 1716 3584 
Q 2034 3584 2315 3537 
Q 2597 3491 2834 3397 
z
" transform="scale(0.015625)"/>
      </defs>
      <use xlink:href="#DejaVuSans-45"/>
      <use xlink:href="#DejaVuSans-70" x="63.183594"/>
      <use xlink:href="#DejaVuSans-6f" x="126.660156"/>
      <use xlink:href="#DejaVuSans-63" x="187.841797"/>
      <use xlink:href="#DejaVuSans-68" x="242.822266"/>
      <use xlink:href="#DejaVuSans-73" x="306.201172"/>
     </g>
    </g>
   </g>
   <g id="matplotlib.axis_2">
    <g id="ytick_1">
     <g id="line2d_11">
      <defs>
       <path id="m613e050099" d="M 0 0 
L -3.5 0 
" style="stroke: #000000; stroke-width: 0.8"/>
      </defs>
      <g>
       <use xlink:href="#m613e050099" x="57.6" y="273.358865" style="stroke: #000000; stroke-width: 0.8"/>
      </g>
     </g>
     <g id="text_12">
      <!-- 10 -->
      <g transform="translate(37.875 277.158084) scale(0.1 -0.1)">
       <use xlink:href="#DejaVuSans-31"/>
       <use xlink:href="#DejaVuSans-30" x="63.623047"/>
      </g>
     </g>
    </g>
    <g id="ytick_2">
     <g id="line2d_12">
      <g>
       <use xlink:href="#m613e050099" x="57.6" y="237.330529" style="stroke: #000000; stroke-width: 0.8"/>
      </g>
     </g>
     <g id="text_13">
      <!-- 20 -->
      <g transform="translate(37.875 241.129748) scale(0.1 -0.1)">
       <use xlink:href="#DejaVuSans-32"/>
       <use xlink:href="#DejaVuSans-30" x="63.623047"/>
      </g>
     </g>
    </g>
    <g id="ytick_3">
     <g id="line2d_13">
      <g>
       <use xlink:href="#m613e050099" x="57.6" y="201.302193" style="stroke: #000000; stroke-width: 0.8"/>
      </g>
     </g>
     <g id="text_14">
      <!-- 30 -->
      <g transform="translate(37.875 205.101412) scale(0.1 -0.1)">
       <use xlink:href="#DejaVuSans-33"/>
       <use xlink:href="#DejaVuSans-30" x="63.623047"/>
      </g>
     </g>
    </g>
    <g id="ytick_4">
     <g id="line2d_14">
      <g>
       <use xlink:href="#m613e050099" x="57.6" y="165.273857" style="stroke: #000000; stroke-width: 0.8"/>
      </g>
     </g>
     <g id="text_15">
      <!-- 40 -->
      <g transform="translate(37.875 169.073075) scale(0.1 -0.1)">
       <use xlink:href="#DejaVuSans-34"/>
       <use xlink:href="#DejaVuSans-30" x="63.623047"/>
      </g>
     </g>
    </g>
    <g id="ytick_5">
     <g id="line2d_15">
      <g>
       <use xlink:href="#m613e050099" x="57.6" y="129.24552" style="stroke: #000000; stroke-width: 0.8"/>
      </g>
     </g>
     <g id="text_16">
      <!-- 50 -->
      <g transform="translate(37.875 133.044739) scale(0.1 -0.1)">
       <defs>
        <path id="DejaVuSans-35" d="M 691 4666 
L 3169 4666 
L 3169 4134 
L 1269 4134 
L 1269 2991 
Q 1406 3038 1543 3061 
Q 1681 3084 1819 3084 
Q 2600 3084 3056 2656 
Q 3513 2228 3513 1497 
Q 3513 744 3044 326 
Q 2575 -91 1722 -91 
Q 1428 -91 1123 -41 
Q 819 9 494 109 
L 494 744 
Q 775 591 1075 516 
Q 1375 441 1709 441 
Q 2250 441 2565 725 
Q 2881 1009 2881 1497 
Q 2881 1984 2565 2268 
Q 2250 2553 1709 2553 
Q 1456 2553 1204 2497 
Q 953 2441 691 2322 
L 691 4666 
z
" transform="scale(0.015625)"/>
       </defs>
       <use xlink:href="#DejaVuSans-35"/>
       <use xlink:href="#DejaVuSans-30" x="63.623047"/>
      </g>
     </g>
    </g>
    <g id="ytick_6">
     <g id="line2d_16">
      <g>
       <use xlink:href="#m613e050099" x="57.6" y="93.217184" style="stroke: #000000; stroke-width: 0.8"/>
      </g>
     </g>
     <g id="text_17">
      <!-- 60 -->
      <g transform="translate(37.875 97.016403) scale(0.1 -0.1)">
       <use xlink:href="#DejaVuSans-36"/>
       <use xlink:href="#DejaVuSans-30" x="63.623047"/>
      </g>
     </g>
    </g>
    <g id="ytick_7">
     <g id="line2d_17">
      <g>
       <use xlink:href="#m613e050099" x="57.6" y="57.188848" style="stroke: #000000; stroke-width: 0.8"/>
      </g>
     </g>
     <g id="text_18">
      <!-- 70 -->
      <g transform="translate(37.875 60.988067) scale(0.1 -0.1)">
       <use xlink:href="#DejaVuSans-37"/>
       <use xlink:href="#DejaVuSans-30" x="63.623047"/>
      </g>
     </g>
    </g>
    <g id="text_19">
     <!-- Accuracy -->
     <g transform="translate(31.795312 197.356125) rotate(-90) scale(0.1 -0.1)">
      <defs>
       <path id="DejaVuSans-41" d="M 2188 4044 
L 1331 1722 
L 3047 1722 
L 2188 4044 
z
M 1831 4666 
L 2547 4666 
L 4325 0 
L 3669 0 
L 3244 1197 
L 1141 1197 
L 716 0 
L 50 0 
L 1831 4666 
z
" transform="scale(0.015625)"/>
       <path id="DejaVuSans-75" d="M 544 1381 
L 544 3500 
L 1119 3500 
L 1119 1403 
Q 1119 906 1312 657 
Q 1506 409 1894 409 
Q 2359 409 2629 706 
Q 2900 1003 2900 1516 
L 2900 3500 
L 3475 3500 
L 3475 0 
L 2900 0 
L 2900 538 
Q 2691 219 2414 64 
Q 2138 -91 1772 -91 
Q 1169 -91 856 284 
Q 544 659 544 1381 
z
M 1991 3584 
L 1991 3584 
z
" transform="scale(0.015625)"/>
       <path id="DejaVuSans-72" d="M 2631 2963 
Q 2534 3019 2420 3045 
Q 2306 3072 2169 3072 
Q 1681 3072 1420 2755 
Q 1159 2438 1159 1844 
L 1159 0 
L 581 0 
L 581 3500 
L 1159 3500 
L 1159 2956 
Q 1341 3275 1631 3429 
Q 1922 3584 2338 3584 
Q 2397 3584 2469 3576 
Q 2541 3569 2628 3553 
L 2631 2963 
z
" transform="scale(0.015625)"/>
       <path id="DejaVuSans-61" d="M 2194 1759 
Q 1497 1759 1228 1600 
Q 959 1441 959 1056 
Q 959 750 1161 570 
Q 1363 391 1709 391 
Q 2188 391 2477 730 
Q 2766 1069 2766 1631 
L 2766 1759 
L 2194 1759 
z
M 3341 1997 
L 3341 0 
L 2766 0 
L 2766 531 
Q 2569 213 2275 61 
Q 1981 -91 1556 -91 
Q 1019 -91 701 211 
Q 384 513 384 1019 
Q 384 1609 779 1909 
Q 1175 2209 1959 2209 
L 2766 2209 
L 2766 2266 
Q 2766 2663 2505 2880 
Q 2244 3097 1772 3097 
Q 1472 3097 1187 3025 
Q 903 2953 641 2809 
L 641 3341 
Q 956 3463 1253 3523 
Q 1550 3584 1831 3584 
Q 2591 3584 2966 3190 
Q 3341 2797 3341 1997 
z
" transform="scale(0.015625)"/>
       <path id="DejaVuSans-79" d="M 2059 -325 
Q 1816 -950 1584 -1140 
Q 1353 -1331 966 -1331 
L 506 -1331 
L 506 -850 
L 844 -850 
Q 1081 -850 1212 -737 
Q 1344 -625 1503 -206 
L 1606 56 
L 191 3500 
L 800 3500 
L 1894 763 
L 2988 3500 
L 3597 3500 
L 2059 -325 
z
" transform="scale(0.015625)"/>
      </defs>
      <use xlink:href="#DejaVuSans-41"/>
      <use xlink:href="#DejaVuSans-63" x="66.658203"/>
      <use xlink:href="#DejaVuSans-63" x="121.638672"/>
      <use xlink:href="#DejaVuSans-75" x="176.619141"/>
      <use xlink:href="#DejaVuSans-72" x="239.998047"/>
      <use xlink:href="#DejaVuSans-61" x="281.111328"/>
      <use xlink:href="#DejaVuSans-63" x="342.390625"/>
      <use xlink:href="#DejaVuSans-79" x="397.371094"/>
     </g>
    </g>
   </g>
   <g id="line2d_18">
    <path d="M 73.832727 295.488 
L 76.00433 260.86627 
L 77.090131 246.565696 
L 78.175932 235.426492 
L 79.261733 226.939049 
L 80.347534 216.476315 
L 81.433335 209.725145 
L 83.604938 194.730062 
L 84.690739 190.608106 
L 86.862341 179.983018 
L 87.948142 175.518317 
L 90.119745 168.852833 
L 92.291347 160.8299 
L 93.377148 160.216568 
L 94.462949 159.842254 
L 95.54875 188.005951 
L 96.634552 187.049874 
L 98.806154 179.640274 
L 99.891955 176.13165 
L 100.977756 174.476553 
L 102.063557 170.070479 
L 103.149358 168.009501 
L 104.23516 165.375778 
L 106.406762 159.594215 
L 107.492563 157.118335 
L 108.578364 156.148729 
L 109.664165 152.906183 
L 110.749967 151.106773 
L 111.835768 148.112266 
L 112.921569 146.660111 
L 114.00737 143.575408 
L 115.093171 143.268742 
L 116.178972 138.835609 
L 117.264773 137.879531 
L 118.350575 136.156788 
L 119.436376 132.413654 
L 120.522177 131.538753 
L 122.693779 127.092091 
L 123.77958 124.093075 
L 124.865382 123.556408 
L 127.036984 120.219157 
L 128.122785 117.571905 
L 129.208586 117.522297 
L 130.294387 114.225634 
L 131.380189 112.94936 
L 132.46599 113.278576 
L 133.551791 113.093674 
L 134.637592 110.225441 
L 136.809194 109.80603 
L 137.894995 111.095833 
L 138.980797 144.88325 
L 140.066598 147.093051 
L 141.152399 148.427952 
L 142.2382 146.258738 
L 143.324001 146.22266 
L 144.409802 145.356779 
L 146.581405 142.290115 
L 147.667206 141.401685 
L 148.753007 140.224627 
L 149.838808 138.154629 
L 150.924609 138.280903 
L 152.01041 137.383453 
L 153.096212 135.836592 
L 154.182013 134.569339 
L 155.267814 133.680908 
L 156.353615 133.455418 
L 157.439416 133.581692 
L 158.525217 131.84091 
L 159.611019 130.853264 
L 160.69682 129.044834 
L 161.782621 128.787776 
L 162.868422 127.434836 
L 163.954223 126.375033 
L 165.040024 126.266798 
L 166.125825 125.378367 
L 167.211627 123.808957 
L 168.297428 123.718761 
L 169.383229 123.155036 
L 170.46903 120.764843 
L 172.640632 119.560726 
L 173.726434 119.150334 
L 174.812235 117.193081 
L 175.898036 116.620337 
L 176.983837 115.321515 
L 178.069638 115.262887 
L 179.155439 113.40485 
L 180.24124 113.553673 
L 181.327042 111.659558 
L 182.412843 111.984263 
L 183.498644 110.653872 
L 184.584445 108.926619 
L 186.756047 106.779955 
L 187.841849 104.507016 
L 190.013451 104.63329 
L 191.099252 103.600546 
L 192.185053 102.351332 
L 193.270854 100.867608 
L 194.356656 100.569961 
L 195.442457 99.69055 
L 196.528258 98.55859 
L 197.614059 98.414277 
L 199.785661 94.242712 
L 200.871462 93.39938 
L 201.957264 93.313694 
L 203.043065 92.655263 
L 205.214667 91.753303 
L 206.300468 89.719384 
L 207.386269 89.971932 
L 208.472071 89.173698 
L 209.557872 88.208601 
L 211.729474 85.565858 
L 212.815275 86.508407 
L 213.901076 85.651545 
L 214.986877 84.307624 
L 216.072679 84.898408 
L 217.15848 84.18586 
L 218.244281 83.635664 
L 219.330082 82.323313 
L 220.415883 81.425863 
L 221.501684 82.891547 
L 222.587486 82.778802 
L 223.673287 83.198214 
L 224.759088 81.921941 
L 225.844889 125.301701 
L 226.93069 129.346991 
L 229.102292 129.707775 
L 230.188094 128.616403 
L 231.273895 129.157579 
L 232.359696 127.669345 
L 233.445497 127.903855 
L 234.531298 125.960131 
L 235.617099 126.176602 
L 236.702901 127.042483 
L 237.788702 125.581308 
L 238.874503 126.266798 
L 239.960304 123.691702 
L 241.046105 124.300525 
L 242.131906 122.85288 
L 243.217708 123.795428 
L 244.303509 122.428959 
L 245.38931 122.483076 
L 247.560912 120.701705 
L 248.646713 120.331902 
L 249.732514 120.706215 
L 250.818316 120.480725 
L 252.989918 119.763667 
L 254.075719 117.792885 
L 255.16152 117.788375 
L 256.247321 117.147983 
L 257.333123 116.841317 
L 258.418924 117.432101 
L 260.590526 115.939357 
L 261.676327 116.972101 
L 262.762128 115.997985 
L 264.933731 115.371123 
L 266.019532 113.603281 
L 267.105333 114.861515 
L 268.191134 113.666418 
L 270.362736 113.147791 
L 271.448538 113.134262 
L 272.534339 112.868184 
L 273.62014 112.101518 
L 274.705941 112.841125 
L 275.791742 111.357401 
L 277.963344 110.689951 
L 279.049146 111.691126 
L 280.134947 111.231127 
L 281.220748 110.049559 
L 283.39235 110.067598 
L 284.478151 107.844267 
L 285.563953 108.534267 
L 286.649754 108.480149 
L 287.735555 109.526423 
L 288.821356 107.460934 
L 289.907157 106.856621 
L 290.992958 105.877995 
L 292.07876 106.071916 
L 293.164561 105.512701 
L 294.250362 105.729171 
L 295.336163 104.610741 
L 296.421964 105.034662 
L 297.507765 103.997409 
L 298.593566 103.29839 
L 299.679368 101.747019 
L 300.765169 102.739174 
L 301.85097 102.883488 
L 302.936771 102.779763 
L 304.022572 101.828195 
L 305.108373 101.413293 
L 306.194175 100.36251 
L 307.279976 100.015256 
L 308.365777 98.892316 
L 309.451578 99.099766 
L 310.537379 99.149374 
L 311.62318 98.454865 
L 312.708981 97.246239 
L 313.794783 97.349964 
L 314.880584 96.028593 
L 315.966385 97.327415 
L 318.137987 95.180751 
L 319.223788 94.675653 
L 320.30959 94.702712 
L 321.395391 93.561733 
L 322.481192 95.063496 
L 323.566993 92.542518 
L 324.652794 92.749969 
L 325.738595 91.568401 
L 326.824396 92.204283 
L 327.910198 90.337226 
L 330.0818 90.382324 
L 331.167601 89.728403 
L 332.253402 88.830953 
L 333.339203 88.952718 
L 334.425005 88.8986 
L 335.510806 87.220955 
L 336.596607 87.726052 
L 337.682408 86.156642 
L 338.768209 86.42723 
L 339.85401 84.898408 
L 340.939811 85.344878 
L 342.025613 84.235468 
L 343.111414 83.770958 
L 344.197215 82.305273 
L 345.283016 83.040371 
L 346.368817 82.61194 
L 347.454618 82.472136 
L 348.54042 80.636648 
L 349.626221 80.433707 
L 350.712022 81.074098 
L 351.797823 79.22959 
L 352.883624 78.990571 
L 353.969425 78.034493 
L 355.055227 77.231749 
L 356.141028 76.731161 
L 357.226829 76.501162 
L 358.31263 76.749201 
L 359.398431 76.447044 
L 360.484232 75.878809 
L 361.570033 74.864105 
L 362.655835 74.368027 
L 363.741636 74.566458 
L 364.827437 72.969989 
L 365.913238 73.601361 
L 366.999039 72.884303 
L 368.08484 72.72646 
L 369.170642 74.787438 
L 370.256443 75.229398 
L 371.342244 77.718808 
L 374.599647 79.90155 
L 375.685448 80.934294 
L 376.77125 79.739198 
L 377.857051 81.340176 
L 378.942852 81.164294 
L 380.028653 79.964688 
L 381.114454 80.81253 
L 382.200255 80.032335 
L 383.286057 80.627628 
L 384.371858 80.961353 
L 385.457659 80.857628 
L 386.54346 80.348021 
L 387.629261 80.699785 
L 388.715062 80.875667 
L 389.800863 80.618609 
L 390.886665 81.425863 
L 391.972466 81.71449 
L 393.058267 80.212727 
L 394.144068 80.81253 
L 395.229869 80.393119 
L 396.31567 80.875667 
L 397.401472 80.284883 
L 398.487273 80.325472 
L 398.487273 80.325472 
" clip-path="url(#p49430960da)" style="fill: none; stroke: #1f77b4; stroke-width: 1.5; stroke-linecap: square"/>
   </g>
   <g id="line2d_19">
    <path d="M 73.832727 286.220981 
L 74.918528 256.69576 
L 76.00433 245.815202 
L 77.090131 226.756212 
L 78.175932 212.056651 
L 79.261733 214.740762 
L 80.347534 199.590847 
L 81.433335 189.574969 
L 82.519137 176.874981 
L 83.604938 176.388598 
L 84.690739 167.561656 
L 85.77654 161.040527 
L 86.862341 156.122659 
L 87.948142 155.960532 
L 89.033943 149.583516 
L 90.119745 144.41345 
L 91.205546 144.62962 
L 92.291347 141.711325 
L 93.377148 139.65771 
L 94.462949 139.855865 
L 95.54875 172.155269 
L 96.634552 167.687755 
L 97.720353 155.023795 
L 98.806154 164.138964 
L 99.891955 161.74308 
L 100.977756 149.421389 
L 102.063557 147.962241 
L 103.149358 148.034298 
L 104.23516 144.035152 
L 105.320961 143.76494 
L 106.406762 137.80225 
L 107.492563 141.369055 
L 108.578364 136.757428 
L 110.749967 126.669494 
L 111.835768 126.507367 
L 112.921569 123.589072 
L 114.00737 124.291624 
L 115.093171 116.419433 
L 116.178972 115.158441 
L 117.264773 116.131206 
L 118.350575 110.690927 
L 119.436376 107.088094 
L 120.522177 109.646105 
L 121.607978 106.673768 
L 122.693779 105.719017 
L 123.77958 100.386823 
L 124.865382 99.972497 
L 125.951183 96.495763 
L 127.036984 96.423706 
L 128.122785 95.288813 
L 129.208586 93.235198 
L 130.294387 93.63151 
L 131.380189 91.703994 
L 132.46599 90.04669 
L 133.551791 90.26286 
L 134.637592 88.5335 
L 135.723393 88.785699 
L 136.809194 88.713642 
L 137.894995 88.857755 
L 138.980797 127.588217 
L 140.066598 129.407648 
L 141.152399 124.219567 
L 142.2382 124.075454 
L 143.324001 124.597865 
L 144.409802 121.409357 
L 145.495604 124.417723 
L 146.581405 118.941416 
L 147.667206 116.671631 
L 148.753007 122.057867 
L 150.924609 114.275747 
L 152.01041 114.077591 
L 153.096212 119.73404 
L 154.182013 114.600002 
L 155.267814 110.132488 
L 156.353615 111.339437 
L 157.439416 107.142136 
L 158.525217 111.051211 
L 159.611019 107.844689 
L 160.69682 106.277456 
L 161.782621 101.7559 
L 162.868422 103.142991 
L 163.954223 106.529654 
L 165.040024 103.088948 
L 166.125825 102.710651 
L 167.211627 107.232207 
L 168.297428 99.179874 
L 169.383229 101.431645 
L 170.46903 99.25193 
L 171.554831 95.270799 
L 172.640632 95.847253 
L 173.726434 92.55066 
L 174.812235 96.063423 
L 175.898036 95.541012 
L 176.983837 93.451368 
L 178.069638 92.568674 
L 179.155439 88.569529 
L 180.24124 93.901722 
L 181.327042 91.415767 
L 182.412843 87.290523 
L 183.498644 88.047118 
L 184.584445 86.335772 
L 185.670246 83.597618 
L 186.756047 84.228114 
L 187.841849 86.696055 
L 190.013451 77.544858 
L 191.099252 79.832657 
L 192.185053 79.436345 
L 193.270854 77.508829 
L 194.356656 74.986846 
L 195.442457 74.734648 
L 196.528258 75.509257 
L 197.614059 75.203016 
L 198.69986 73.49167 
L 199.785661 73.599755 
L 200.871462 70.609403 
L 201.957264 69.38444 
L 203.043065 72.032522 
L 204.128866 69.726709 
L 205.214667 69.69068 
L 206.300468 68.807986 
L 207.386269 68.105434 
L 208.472071 67.042598 
L 209.557872 65.493379 
L 210.643673 65.511393 
L 211.729474 64.988983 
L 212.815275 64.016218 
L 213.901076 63.85409 
L 214.986877 62.917353 
L 216.072679 63.764019 
L 218.244281 62.268843 
L 220.415883 63.079481 
L 221.501684 61.962602 
L 222.587486 62.539056 
L 223.673287 61.890546 
L 224.759088 62.070687 
L 225.844889 119.571912 
L 226.93069 111.339437 
L 228.016491 111.051211 
L 229.102292 109.682134 
L 230.188094 108.601284 
L 231.273895 113.591208 
L 232.359696 110.762984 
L 233.445497 109.682134 
L 234.531298 109.087666 
L 235.617099 110.078445 
L 236.702901 110.690927 
L 237.788702 107.178164 
L 238.874503 106.871924 
L 239.960304 100.33278 
L 241.046105 100.45888 
L 242.131906 106.709796 
L 243.217708 101.683843 
L 244.303509 101.485687 
L 245.38931 107.340292 
L 246.475111 102.476466 
L 247.560912 101.809942 
L 248.646713 96.693919 
L 249.732514 108.637312 
L 250.818316 105.178592 
L 251.904117 100.044554 
L 252.989918 96.135479 
L 254.075719 100.530936 
L 255.16152 107.196179 
L 256.247321 97.000159 
L 257.333123 98.243137 
L 258.418924 100.368809 
L 259.504725 98.261151 
L 260.590526 100.368809 
L 261.676327 98.38725 
L 262.762128 100.711078 
L 263.847929 91.631937 
L 264.933731 94.820445 
L 266.019532 98.981718 
L 267.105333 98.459307 
L 268.191134 94.352077 
L 269.276935 95.000587 
L 270.362736 89.632365 
L 271.448538 96.585834 
L 272.534339 92.658745 
L 273.62014 92.082291 
L 274.705941 96.22555 
L 275.791742 91.938178 
L 276.877543 96.117465 
L 277.963344 93.487397 
L 279.049146 91.703994 
L 280.134947 97.018174 
L 281.220748 89.001869 
L 282.306549 93.055057 
L 283.39235 90.424988 
L 284.478151 91.740022 
L 285.563953 91.271654 
L 286.649754 89.866549 
L 287.735555 86.029531 
L 288.821356 88.6596 
L 289.907157 87.560735 
L 290.992958 90.154775 
L 292.07876 87.632792 
L 293.164561 87.470664 
L 294.250362 88.083146 
L 295.336163 92.442575 
L 296.421964 85.777333 
L 297.507765 82.318612 
L 298.593566 90.136761 
L 299.679368 80.571238 
L 300.765169 84.696483 
L 301.85097 82.174499 
L 302.936771 89.488251 
L 304.022572 83.633647 
L 305.108373 80.301026 
L 306.194175 81.003578 
L 307.279976 78.46358 
L 308.365777 80.949536 
L 309.451578 79.508402 
L 310.537379 82.588825 
L 311.62318 77.923155 
L 313.794783 76.73422 
L 314.880584 78.46358 
L 315.966385 77.364716 
L 317.052186 81.471946 
L 318.137987 76.121739 
L 319.223788 77.706985 
L 320.30959 74.608548 
L 321.395391 73.996067 
L 322.481192 76.265852 
L 323.566993 76.031668 
L 324.652794 71.311956 
L 325.738595 75.22103 
L 326.824396 68.73593 
L 327.910198 72.861174 
L 328.995999 70.429261 
L 330.0818 71.420041 
L 331.167601 69.726709 
L 332.253402 69.276355 
L 333.339203 69.924865 
L 334.425005 69.888836 
L 335.510806 66.556215 
L 336.596607 65.853663 
L 337.682408 68.970114 
L 338.768209 66.141889 
L 339.85401 66.141889 
L 340.939811 65.331252 
L 342.025613 65.313238 
L 343.111414 64.520614 
L 344.197215 65.871677 
L 345.283016 62.971396 
L 346.368817 62.142744 
L 347.454618 63.079481 
L 348.54042 62.55707 
L 349.626221 60.863738 
L 350.712022 60.701611 
L 351.797823 60.665582 
L 352.883624 61.854517 
L 353.969425 60.1792 
L 355.055227 59.981044 
L 356.141028 59.584732 
L 357.226829 58.828137 
L 358.31263 57.45906 
L 359.398431 57.224876 
L 360.484232 56.846579 
L 361.570033 55.7297 
L 362.655835 55.801757 
L 363.741636 56.684451 
L 364.827437 55.531544 
L 365.913238 55.207289 
L 366.999039 53.568 
L 368.08484 54.684878 
L 370.256443 58.647995 
L 371.342244 60.521469 
L 372.428045 61.404163 
L 373.513846 63.187566 
L 374.599647 67.492952 
L 375.685448 62.448985 
L 376.77125 63.709977 
L 378.942852 63.63792 
L 380.028653 63.998203 
L 381.114454 63.259622 
L 382.200255 61.079908 
L 383.286057 62.791254 
L 385.457659 60.701611 
L 386.54346 62.430971 
L 387.629261 62.12473 
L 388.715062 64.052246 
L 389.800863 63.782033 
L 390.886665 63.097495 
L 391.972466 62.268843 
L 393.058267 61.242036 
L 394.144068 65.745578 
L 395.229869 66.033804 
L 396.31567 61.296078 
L 397.401472 62.971396 
L 398.487273 62.521042 
L 398.487273 62.521042 
" clip-path="url(#p49430960da)" style="fill: none; stroke: #ff7f0e; stroke-width: 1.5; stroke-linecap: square"/>
   </g>
   <g id="line2d_20">
    <path d="M 73.832727 293.360804 
L 74.918528 278.07982 
L 76.00433 277.707113 
L 77.090131 267.51979 
L 78.175932 258.574824 
L 79.261733 257.456703 
L 80.347534 253.978105 
L 81.433335 240.312185 
L 82.519137 239.069828 
L 83.604938 238.572886 
L 84.690739 232.112632 
L 86.862341 223.167666 
L 87.948142 226.397793 
L 89.033943 221.05566 
L 90.119745 217.577062 
L 91.205546 218.943654 
L 92.291347 217.328591 
L 93.377148 217.080119 
L 94.462949 215.34082 
L 95.54875 241.30607 
L 96.634552 228.385563 
L 97.720353 222.049545 
L 98.806154 227.88862 
L 99.891955 226.522028 
L 100.977756 221.179896 
L 102.063557 219.689068 
L 103.149358 219.689068 
L 104.23516 223.664608 
L 106.406762 212.856108 
L 107.492563 216.458941 
L 108.578364 210.371395 
L 109.664165 205.898912 
L 110.749967 198.569009 
L 111.835768 199.314423 
L 112.921569 202.793021 
L 114.00737 204.780791 
L 115.093171 191.860284 
L 116.178972 192.232991 
L 117.264773 197.699359 
L 118.350575 193.723819 
L 119.436376 186.021209 
L 120.522177 191.736048 
L 121.607978 191.860284 
L 122.693779 182.29414 
L 123.77958 180.430605 
L 124.865382 179.312484 
L 125.951183 178.939777 
L 127.036984 175.958122 
L 128.122785 175.833886 
L 129.208586 174.218823 
L 130.294387 177.821656 
L 131.380189 172.479524 
L 132.46599 174.094587 
L 133.551791 170.243282 
L 134.637592 171.982581 
L 135.723393 170.988696 
L 136.809194 171.982581 
L 137.894995 171.112932 
L 138.980797 207.513975 
L 140.066598 204.159613 
L 141.152399 208.880567 
L 142.2382 203.289963 
L 143.324001 196.332767 
L 144.409802 199.065951 
L 145.495604 200.308308 
L 146.581405 197.947831 
L 147.667206 197.699359 
L 148.753007 202.420314 
L 149.838808 195.835825 
L 150.924609 196.953945 
L 152.01041 194.841939 
L 153.096212 199.190187 
L 154.182013 194.966175 
L 155.267814 186.518151 
L 156.353615 193.351112 
L 157.439416 181.176019 
L 158.525217 192.357227 
L 159.611019 185.772738 
L 160.69682 184.157674 
L 161.782621 181.300254 
L 162.868422 184.033439 
L 163.954223 181.548726 
L 165.040024 175.461179 
L 167.211627 190.493692 
L 168.297428 176.5793 
L 169.383229 178.318599 
L 170.46903 182.418375 
L 171.554831 178.194363 
L 172.640632 171.858346 
L 173.726434 170.615989 
L 174.812235 171.73411 
L 175.898036 174.840001 
L 176.983837 173.597645 
L 178.069638 169.994811 
L 179.155439 165.770799 
L 180.24124 171.112932 
L 181.327042 171.485639 
L 182.412843 171.112932 
L 183.498644 168.752455 
L 184.584445 162.789144 
L 185.670246 157.695482 
L 186.756047 169.74634 
L 187.841849 167.261627 
L 188.92765 161.919494 
L 190.013451 158.689368 
L 191.099252 164.90115 
L 192.185053 156.950069 
L 193.270854 157.943954 
L 194.356656 157.322775 
L 195.442457 156.453126 
L 196.528258 162.167966 
L 197.614059 160.428667 
L 198.69986 156.080419 
L 199.785661 155.086534 
L 200.871462 152.229114 
L 201.957264 149.868637 
L 203.043065 150.986758 
L 204.128866 148.005102 
L 205.214667 152.726057 
L 206.300468 152.35335 
L 207.386269 147.259688 
L 208.472071 151.359465 
L 209.557872 146.762746 
L 210.643673 146.265803 
L 211.729474 145.147683 
L 212.815275 143.284148 
L 213.901076 144.029562 
L 214.986877 144.153797 
L 216.072679 145.147683 
L 217.15848 142.538734 
L 218.244281 141.172142 
L 219.330082 142.787205 
L 221.501684 143.905326 
L 222.587486 142.538734 
L 223.673287 143.159912 
L 224.759088 142.911441 
L 225.844889 193.226876 
L 226.93069 185.772738 
L 228.016491 188.878629 
L 229.102292 186.766623 
L 230.188094 191.736048 
L 231.273895 190.990635 
L 232.359696 193.848054 
L 233.445497 188.754393 
L 234.531298 186.145445 
L 235.617099 196.208532 
L 236.702901 184.778852 
L 237.788702 189.1271 
L 238.874503 190.120985 
L 239.960304 177.076243 
L 241.046105 169.870575 
L 242.131906 189.872514 
L 243.217708 181.42449 
L 244.303509 180.430605 
L 245.38931 189.499807 
L 246.475111 184.28191 
L 247.560912 184.778852 
L 248.646713 170.119047 
L 249.732514 187.015094 
L 250.818316 188.381686 
L 251.904117 183.784967 
L 254.075719 170.367518 
L 255.16152 192.357227 
L 256.247321 178.815542 
L 257.333123 175.585415 
L 258.418924 185.648502 
L 259.504725 177.821656 
L 260.590526 178.56707 
L 261.676327 174.840001 
L 262.762128 177.945892 
L 263.847929 172.60376 
L 264.933731 171.609874 
L 266.019532 180.803312 
L 267.105333 182.169904 
L 268.191134 172.479524 
L 269.276935 167.882805 
L 270.362736 169.125162 
L 271.448538 180.554841 
L 272.534339 175.212708 
L 273.62014 173.473409 
L 274.705941 183.163789 
L 275.791742 175.336944 
L 276.877543 171.609874 
L 277.963344 173.970352 
L 279.049146 174.218823 
L 280.134947 174.840001 
L 281.220748 171.982581 
L 282.306549 172.727995 
L 283.39235 171.982581 
L 284.478151 172.355288 
L 285.563953 178.070128 
L 286.649754 170.119047 
L 287.735555 168.007041 
L 288.821356 176.082357 
L 290.992958 164.404207 
L 292.07876 165.522328 
L 293.164561 165.522328 
L 294.250362 173.100702 
L 295.336163 174.343058 
L 296.421964 162.04373 
L 297.507765 162.664908 
L 298.593566 174.59153 
L 299.679368 161.546787 
L 300.765169 162.540672 
L 301.85097 159.18631 
L 302.936771 172.60376 
L 304.022572 165.770799 
L 305.108373 160.925609 
L 306.194175 162.416437 
L 307.279976 159.931724 
L 308.365777 158.316661 
L 309.451578 157.819718 
L 310.537379 163.783029 
L 311.62318 159.683253 
L 312.708981 156.701597 
L 313.794783 158.813603 
L 314.880584 153.719942 
L 317.052186 163.410322 
L 318.137987 150.862522 
L 319.223788 160.180195 
L 320.30959 152.477585 
L 321.395391 154.216884 
L 322.481192 163.410322 
L 323.566993 159.559017 
L 324.652794 150.241344 
L 325.738595 156.701597 
L 326.824396 147.135453 
L 327.910198 153.098764 
L 328.995999 151.4837 
L 330.0818 148.129338 
L 331.167601 148.750516 
L 332.253402 147.50816 
L 333.339203 150.862522 
L 334.425005 152.35335 
L 335.510806 138.190487 
L 336.596607 147.632395 
L 337.682408 149.247459 
L 338.768209 145.396154 
L 339.85401 140.675199 
L 340.939811 144.278033 
L 342.025613 145.893096 
L 343.111414 143.905326 
L 344.197215 151.359465 
L 345.283016 140.426728 
L 346.368817 140.426728 
L 347.454618 142.166027 
L 348.54042 137.81778 
L 349.626221 141.047906 
L 350.712022 137.569308 
L 351.797823 140.923671 
L 352.883624 139.80555 
L 355.055227 136.202716 
L 356.141028 136.699659 
L 357.226829 134.711889 
L 358.31263 134.836124 
L 359.398431 135.457302 
L 360.484232 132.227176 
L 361.570033 134.587653 
L 362.655835 133.593768 
L 363.741636 131.109055 
L 364.827437 133.345297 
L 365.913238 133.593768 
L 366.999039 130.11517 
L 368.08484 132.227176 
L 369.170642 137.445073 
L 370.256443 135.954245 
L 371.342244 134.96036 
L 372.428045 145.396154 
L 373.513846 143.159912 
L 374.599647 144.278033 
L 375.685448 141.172142 
L 376.77125 145.023447 
L 377.857051 146.886982 
L 378.942852 142.290263 
L 380.028653 147.135453 
L 381.114454 141.544849 
L 382.200255 141.544849 
L 383.286057 136.94813 
L 384.371858 139.432843 
L 385.457659 141.420613 
L 386.54346 143.035677 
L 387.629261 143.408384 
L 388.715062 142.787205 
L 389.800863 140.799435 
L 390.886665 144.278033 
L 391.972466 144.402269 
L 393.058267 139.80555 
L 394.144068 151.235229 
L 395.229869 143.159912 
L 396.31567 143.159912 
L 397.401472 143.78109 
L 398.487273 143.656855 
L 398.487273 143.656855 
" clip-path="url(#p49430960da)" style="fill: none; stroke: #2ca02c; stroke-width: 1.5; stroke-linecap: square"/>
   </g>
   <g id="line2d_21">
    <path d="M 368.08484 55.027148 
L 369.170642 54.720907 
L 370.256443 60.107143 
L 371.342244 59.890973 
L 372.428045 61.512248 
L 373.513846 59.566718 
L 374.599647 62.98941 
L 375.685448 61.602319 
L 376.77125 66.484159 
L 377.857051 60.251256 
L 378.942852 62.521042 
L 380.028653 67.52898 
L 381.114454 63.529835 
L 382.200255 71.275927 
L 383.286057 68.411675 
L 384.371858 68.573802 
L 385.457659 70.447276 
L 386.54346 72.735075 
L 387.629261 68.357632 
L 388.715062 66.538201 
L 389.800863 69.492525 
L 390.886665 75.112945 
L 391.972466 77.688971 
L 393.058267 75.923583 
L 394.144068 80.210955 
L 395.229869 79.32826 
L 396.31567 75.635356 
L 397.401472 70.267134 
L 398.487273 76.752234 
L 398.487273 76.752234 
" clip-path="url(#p49430960da)" style="fill: none; stroke: #d62728; stroke-width: 1.5; stroke-linecap: square"/>
   </g>
   <g id="line2d_22">
    <path d="M 368.08484 127.754693 
L 369.170642 131.978704 
L 370.256443 138.811665 
L 371.342244 135.084596 
L 372.428045 139.681314 
L 373.513846 137.320837 
L 374.599647 146.017332 
L 375.685448 135.457302 
L 376.77125 144.774976 
L 377.857051 136.202716 
L 378.942852 137.569308 
L 380.028653 144.526504 
L 381.114454 137.81778 
L 382.200255 149.371694 
L 383.286057 141.669085 
L 384.371858 144.526504 
L 385.457659 144.526504 
L 386.54346 152.35335 
L 387.629261 148.253574 
L 388.715062 147.632395 
L 389.800863 149.620166 
L 390.886665 149.371694 
L 391.972466 150.489815 
L 393.058267 147.632395 
L 394.144068 156.453126 
L 395.229869 158.316661 
L 397.401472 144.153797 
L 398.487273 154.465356 
L 398.487273 154.465356 
" clip-path="url(#p49430960da)" style="fill: none; stroke: #9467bd; stroke-width: 1.5; stroke-linecap: square"/>
   </g>
   <g id="patch_3">
    <path d="M 57.6 307.584 
L 57.6 41.472 
" style="fill: none; stroke: #000000; stroke-width: 0.8; stroke-linejoin: miter; stroke-linecap: square"/>
   </g>
   <g id="patch_4">
    <path d="M 414.72 307.584 
L 414.72 41.472 
" style="fill: none; stroke: #000000; stroke-width: 0.8; stroke-linejoin: miter; stroke-linecap: square"/>
   </g>
   <g id="patch_5">
    <path d="M 57.6 307.584 
L 414.72 307.584 
" style="fill: none; stroke: #000000; stroke-width: 0.8; stroke-linejoin: miter; stroke-linecap: square"/>
   </g>
   <g id="patch_6">
    <path d="M 57.6 41.472 
L 414.72 41.472 
" style="fill: none; stroke: #000000; stroke-width: 0.8; stroke-linejoin: miter; stroke-linecap: square"/>
   </g>
   <g id="text_20">
    <!-- Learning Curves -->
    <g transform="translate(187.37625 35.472) scale(0.12 -0.12)">
     <defs>
      <path id="DejaVuSans-4c" d="M 628 4666 
L 1259 4666 
L 1259 531 
L 3531 531 
L 3531 0 
L 628 0 
L 628 4666 
z
" transform="scale(0.015625)"/>
      <path id="DejaVuSans-65" d="M 3597 1894 
L 3597 1613 
L 953 1613 
Q 991 1019 1311 708 
Q 1631 397 2203 397 
Q 2534 397 2845 478 
Q 3156 559 3463 722 
L 3463 178 
Q 3153 47 2828 -22 
Q 2503 -91 2169 -91 
Q 1331 -91 842 396 
Q 353 884 353 1716 
Q 353 2575 817 3079 
Q 1281 3584 2069 3584 
Q 2775 3584 3186 3129 
Q 3597 2675 3597 1894 
z
M 3022 2063 
Q 3016 2534 2758 2815 
Q 2500 3097 2075 3097 
Q 1594 3097 1305 2825 
Q 1016 2553 972 2059 
L 3022 2063 
z
" transform="scale(0.015625)"/>
      <path id="DejaVuSans-6e" d="M 3513 2113 
L 3513 0 
L 2938 0 
L 2938 2094 
Q 2938 2591 2744 2837 
Q 2550 3084 2163 3084 
Q 1697 3084 1428 2787 
Q 1159 2491 1159 1978 
L 1159 0 
L 581 0 
L 581 3500 
L 1159 3500 
L 1159 2956 
Q 1366 3272 1645 3428 
Q 1925 3584 2291 3584 
Q 2894 3584 3203 3211 
Q 3513 2838 3513 2113 
z
" transform="scale(0.015625)"/>
      <path id="DejaVuSans-69" d="M 603 3500 
L 1178 3500 
L 1178 0 
L 603 0 
L 603 3500 
z
M 603 4863 
L 1178 4863 
L 1178 4134 
L 603 4134 
L 603 4863 
z
" transform="scale(0.015625)"/>
      <path id="DejaVuSans-67" d="M 2906 1791 
Q 2906 2416 2648 2759 
Q 2391 3103 1925 3103 
Q 1463 3103 1205 2759 
Q 947 2416 947 1791 
Q 947 1169 1205 825 
Q 1463 481 1925 481 
Q 2391 481 2648 825 
Q 2906 1169 2906 1791 
z
M 3481 434 
Q 3481 -459 3084 -895 
Q 2688 -1331 1869 -1331 
Q 1566 -1331 1297 -1286 
Q 1028 -1241 775 -1147 
L 775 -588 
Q 1028 -725 1275 -790 
Q 1522 -856 1778 -856 
Q 2344 -856 2625 -561 
Q 2906 -266 2906 331 
L 2906 616 
Q 2728 306 2450 153 
Q 2172 0 1784 0 
Q 1141 0 747 490 
Q 353 981 353 1791 
Q 353 2603 747 3093 
Q 1141 3584 1784 3584 
Q 2172 3584 2450 3431 
Q 2728 3278 2906 2969 
L 2906 3500 
L 3481 3500 
L 3481 434 
z
" transform="scale(0.015625)"/>
      <path id="DejaVuSans-20" transform="scale(0.015625)"/>
      <path id="DejaVuSans-43" d="M 4122 4306 
L 4122 3641 
Q 3803 3938 3442 4084 
Q 3081 4231 2675 4231 
Q 1875 4231 1450 3742 
Q 1025 3253 1025 2328 
Q 1025 1406 1450 917 
Q 1875 428 2675 428 
Q 3081 428 3442 575 
Q 3803 722 4122 1019 
L 4122 359 
Q 3791 134 3420 21 
Q 3050 -91 2638 -91 
Q 1578 -91 968 557 
Q 359 1206 359 2328 
Q 359 3453 968 4101 
Q 1578 4750 2638 4750 
Q 3056 4750 3426 4639 
Q 3797 4528 4122 4306 
z
" transform="scale(0.015625)"/>
      <path id="DejaVuSans-76" d="M 191 3500 
L 800 3500 
L 1894 563 
L 2988 3500 
L 3597 3500 
L 2284 0 
L 1503 0 
L 191 3500 
z
" transform="scale(0.015625)"/>
     </defs>
     <use xlink:href="#DejaVuSans-4c"/>
     <use xlink:href="#DejaVuSans-65" x="53.962891"/>
     <use xlink:href="#DejaVuSans-61" x="115.486328"/>
     <use xlink:href="#DejaVuSans-72" x="176.765625"/>
     <use xlink:href="#DejaVuSans-6e" x="216.128906"/>
     <use xlink:href="#DejaVuSans-69" x="279.507812"/>
     <use xlink:href="#DejaVuSans-6e" x="307.291016"/>
     <use xlink:href="#DejaVuSans-67" x="370.669922"/>
     <use xlink:href="#DejaVuSans-20" x="434.146484"/>
     <use xlink:href="#DejaVuSans-43" x="465.933594"/>
     <use xlink:href="#DejaVuSans-75" x="535.757812"/>
     <use xlink:href="#DejaVuSans-72" x="599.136719"/>
     <use xlink:href="#DejaVuSans-76" x="640.25"/>
     <use xlink:href="#DejaVuSans-65" x="699.429688"/>
     <use xlink:href="#DejaVuSans-73" x="760.953125"/>
    </g>
   </g>
   <g id="legend_1">
    <g id="patch_7">
     <path d="M 214.18875 302.584 
L 407.72 302.584 
Q 409.72 302.584 409.72 300.584 
L 409.72 228.193375 
Q 409.72 226.193375 407.72 226.193375 
L 214.18875 226.193375 
Q 212.18875 226.193375 212.18875 228.193375 
L 212.18875 300.584 
Q 212.18875 302.584 214.18875 302.584 
z
" style="fill: #ffffff; opacity: 0.8; stroke: #cccccc; stroke-linejoin: miter"/>
    </g>
    <g id="line2d_23">
     <path d="M 216.18875 234.291812 
L 226.18875 234.291812 
L 236.18875 234.291812 
" style="fill: none; stroke: #1f77b4; stroke-width: 1.5; stroke-linecap: square"/>
    </g>
    <g id="text_21">
     <!-- Train Accuracy -->
     <g transform="translate(244.18875 237.791812) scale(0.1 -0.1)">
      <defs>
       <path id="DejaVuSans-54" d="M -19 4666 
L 3928 4666 
L 3928 4134 
L 2272 4134 
L 2272 0 
L 1638 0 
L 1638 4134 
L -19 4134 
L -19 4666 
z
" transform="scale(0.015625)"/>
      </defs>
      <use xlink:href="#DejaVuSans-54"/>
      <use xlink:href="#DejaVuSans-72" x="46.333984"/>
      <use xlink:href="#DejaVuSans-61" x="87.447266"/>
      <use xlink:href="#DejaVuSans-69" x="148.726562"/>
      <use xlink:href="#DejaVuSans-6e" x="176.509766"/>
      <use xlink:href="#DejaVuSans-20" x="239.888672"/>
      <use xlink:href="#DejaVuSans-41" x="271.675781"/>
      <use xlink:href="#DejaVuSans-63" x="338.333984"/>
      <use xlink:href="#DejaVuSans-63" x="393.314453"/>
      <use xlink:href="#DejaVuSans-75" x="448.294922"/>
      <use xlink:href="#DejaVuSans-72" x="511.673828"/>
      <use xlink:href="#DejaVuSans-61" x="552.787109"/>
      <use xlink:href="#DejaVuSans-63" x="614.066406"/>
      <use xlink:href="#DejaVuSans-79" x="669.046875"/>
     </g>
    </g>
    <g id="line2d_24">
     <path d="M 216.18875 248.969937 
L 226.18875 248.969937 
L 236.18875 248.969937 
" style="fill: none; stroke: #ff7f0e; stroke-width: 1.5; stroke-linecap: square"/>
    </g>
    <g id="text_22">
     <!-- Validation Accuracy -->
     <g transform="translate(244.18875 252.469937) scale(0.1 -0.1)">
      <defs>
       <path id="DejaVuSans-56" d="M 1831 0 
L 50 4666 
L 709 4666 
L 2188 738 
L 3669 4666 
L 4325 4666 
L 2547 0 
L 1831 0 
z
" transform="scale(0.015625)"/>
       <path id="DejaVuSans-6c" d="M 603 4863 
L 1178 4863 
L 1178 0 
L 603 0 
L 603 4863 
z
" transform="scale(0.015625)"/>
       <path id="DejaVuSans-64" d="M 2906 2969 
L 2906 4863 
L 3481 4863 
L 3481 0 
L 2906 0 
L 2906 525 
Q 2725 213 2448 61 
Q 2172 -91 1784 -91 
Q 1150 -91 751 415 
Q 353 922 353 1747 
Q 353 2572 751 3078 
Q 1150 3584 1784 3584 
Q 2172 3584 2448 3432 
Q 2725 3281 2906 2969 
z
M 947 1747 
Q 947 1113 1208 752 
Q 1469 391 1925 391 
Q 2381 391 2643 752 
Q 2906 1113 2906 1747 
Q 2906 2381 2643 2742 
Q 2381 3103 1925 3103 
Q 1469 3103 1208 2742 
Q 947 2381 947 1747 
z
" transform="scale(0.015625)"/>
       <path id="DejaVuSans-74" d="M 1172 4494 
L 1172 3500 
L 2356 3500 
L 2356 3053 
L 1172 3053 
L 1172 1153 
Q 1172 725 1289 603 
Q 1406 481 1766 481 
L 2356 481 
L 2356 0 
L 1766 0 
Q 1100 0 847 248 
Q 594 497 594 1153 
L 594 3053 
L 172 3053 
L 172 3500 
L 594 3500 
L 594 4494 
L 1172 4494 
z
" transform="scale(0.015625)"/>
      </defs>
      <use xlink:href="#DejaVuSans-56"/>
      <use xlink:href="#DejaVuSans-61" x="60.658203"/>
      <use xlink:href="#DejaVuSans-6c" x="121.9375"/>
      <use xlink:href="#DejaVuSans-69" x="149.720703"/>
      <use xlink:href="#DejaVuSans-64" x="177.503906"/>
      <use xlink:href="#DejaVuSans-61" x="240.980469"/>
      <use xlink:href="#DejaVuSans-74" x="302.259766"/>
      <use xlink:href="#DejaVuSans-69" x="341.46875"/>
      <use xlink:href="#DejaVuSans-6f" x="369.251953"/>
      <use xlink:href="#DejaVuSans-6e" x="430.433594"/>
      <use xlink:href="#DejaVuSans-20" x="493.8125"/>
      <use xlink:href="#DejaVuSans-41" x="525.599609"/>
      <use xlink:href="#DejaVuSans-63" x="592.257812"/>
      <use xlink:href="#DejaVuSans-63" x="647.238281"/>
      <use xlink:href="#DejaVuSans-75" x="702.21875"/>
      <use xlink:href="#DejaVuSans-72" x="765.597656"/>
      <use xlink:href="#DejaVuSans-61" x="806.710938"/>
      <use xlink:href="#DejaVuSans-63" x="867.990234"/>
      <use xlink:href="#DejaVuSans-79" x="922.970703"/>
     </g>
    </g>
    <g id="line2d_25">
     <path d="M 216.18875 263.648062 
L 226.18875 263.648062 
L 236.18875 263.648062 
" style="fill: none; stroke: #2ca02c; stroke-width: 1.5; stroke-linecap: square"/>
    </g>
    <g id="text_23">
     <!-- Robust Validation Accuracy -->
     <g transform="translate(244.18875 267.148062) scale(0.1 -0.1)">
      <defs>
       <path id="DejaVuSans-52" d="M 2841 2188 
Q 3044 2119 3236 1894 
Q 3428 1669 3622 1275 
L 4263 0 
L 3584 0 
L 2988 1197 
Q 2756 1666 2539 1819 
Q 2322 1972 1947 1972 
L 1259 1972 
L 1259 0 
L 628 0 
L 628 4666 
L 2053 4666 
Q 2853 4666 3247 4331 
Q 3641 3997 3641 3322 
Q 3641 2881 3436 2590 
Q 3231 2300 2841 2188 
z
M 1259 4147 
L 1259 2491 
L 2053 2491 
Q 2509 2491 2742 2702 
Q 2975 2913 2975 3322 
Q 2975 3731 2742 3939 
Q 2509 4147 2053 4147 
L 1259 4147 
z
" transform="scale(0.015625)"/>
       <path id="DejaVuSans-62" d="M 3116 1747 
Q 3116 2381 2855 2742 
Q 2594 3103 2138 3103 
Q 1681 3103 1420 2742 
Q 1159 2381 1159 1747 
Q 1159 1113 1420 752 
Q 1681 391 2138 391 
Q 2594 391 2855 752 
Q 3116 1113 3116 1747 
z
M 1159 2969 
Q 1341 3281 1617 3432 
Q 1894 3584 2278 3584 
Q 2916 3584 3314 3078 
Q 3713 2572 3713 1747 
Q 3713 922 3314 415 
Q 2916 -91 2278 -91 
Q 1894 -91 1617 61 
Q 1341 213 1159 525 
L 1159 0 
L 581 0 
L 581 4863 
L 1159 4863 
L 1159 2969 
z
" transform="scale(0.015625)"/>
      </defs>
      <use xlink:href="#DejaVuSans-52"/>
      <use xlink:href="#DejaVuSans-6f" x="64.982422"/>
      <use xlink:href="#DejaVuSans-62" x="126.164062"/>
      <use xlink:href="#DejaVuSans-75" x="189.640625"/>
      <use xlink:href="#DejaVuSans-73" x="253.019531"/>
      <use xlink:href="#DejaVuSans-74" x="305.119141"/>
      <use xlink:href="#DejaVuSans-20" x="344.328125"/>
      <use xlink:href="#DejaVuSans-56" x="376.115234"/>
      <use xlink:href="#DejaVuSans-61" x="436.773438"/>
      <use xlink:href="#DejaVuSans-6c" x="498.052734"/>
      <use xlink:href="#DejaVuSans-69" x="525.835938"/>
      <use xlink:href="#DejaVuSans-64" x="553.619141"/>
      <use xlink:href="#DejaVuSans-61" x="617.095703"/>
      <use xlink:href="#DejaVuSans-74" x="678.375"/>
      <use xlink:href="#DejaVuSans-69" x="717.583984"/>
      <use xlink:href="#DejaVuSans-6f" x="745.367188"/>
      <use xlink:href="#DejaVuSans-6e" x="806.548828"/>
      <use xlink:href="#DejaVuSans-20" x="869.927734"/>
      <use xlink:href="#DejaVuSans-41" x="901.714844"/>
      <use xlink:href="#DejaVuSans-63" x="968.373047"/>
      <use xlink:href="#DejaVuSans-63" x="1023.353516"/>
      <use xlink:href="#DejaVuSans-75" x="1078.333984"/>
      <use xlink:href="#DejaVuSans-72" x="1141.712891"/>
      <use xlink:href="#DejaVuSans-61" x="1182.826172"/>
      <use xlink:href="#DejaVuSans-63" x="1244.105469"/>
      <use xlink:href="#DejaVuSans-79" x="1299.085938"/>
     </g>
    </g>
    <g id="line2d_26">
     <path d="M 216.18875 278.326188 
L 226.18875 278.326188 
L 236.18875 278.326188 
" style="fill: none; stroke: #d62728; stroke-width: 1.5; stroke-linecap: square"/>
    </g>
    <g id="text_24">
     <!-- SWA Validation Accuracy -->
     <g transform="translate(244.18875 281.826188) scale(0.1 -0.1)">
      <defs>
       <path id="DejaVuSans-53" d="M 3425 4513 
L 3425 3897 
Q 3066 4069 2747 4153 
Q 2428 4238 2131 4238 
Q 1616 4238 1336 4038 
Q 1056 3838 1056 3469 
Q 1056 3159 1242 3001 
Q 1428 2844 1947 2747 
L 2328 2669 
Q 3034 2534 3370 2195 
Q 3706 1856 3706 1288 
Q 3706 609 3251 259 
Q 2797 -91 1919 -91 
Q 1588 -91 1214 -16 
Q 841 59 441 206 
L 441 856 
Q 825 641 1194 531 
Q 1563 422 1919 422 
Q 2459 422 2753 634 
Q 3047 847 3047 1241 
Q 3047 1584 2836 1778 
Q 2625 1972 2144 2069 
L 1759 2144 
Q 1053 2284 737 2584 
Q 422 2884 422 3419 
Q 422 4038 858 4394 
Q 1294 4750 2059 4750 
Q 2388 4750 2728 4690 
Q 3069 4631 3425 4513 
z
" transform="scale(0.015625)"/>
       <path id="DejaVuSans-57" d="M 213 4666 
L 850 4666 
L 1831 722 
L 2809 4666 
L 3519 4666 
L 4500 722 
L 5478 4666 
L 6119 4666 
L 4947 0 
L 4153 0 
L 3169 4050 
L 2175 0 
L 1381 0 
L 213 4666 
z
" transform="scale(0.015625)"/>
      </defs>
      <use xlink:href="#DejaVuSans-53"/>
      <use xlink:href="#DejaVuSans-57" x="63.476562"/>
      <use xlink:href="#DejaVuSans-41" x="156.853516"/>
      <use xlink:href="#DejaVuSans-20" x="225.261719"/>
      <use xlink:href="#DejaVuSans-56" x="257.048828"/>
      <use xlink:href="#DejaVuSans-61" x="317.707031"/>
      <use xlink:href="#DejaVuSans-6c" x="378.986328"/>
      <use xlink:href="#DejaVuSans-69" x="406.769531"/>
      <use xlink:href="#DejaVuSans-64" x="434.552734"/>
      <use xlink:href="#DejaVuSans-61" x="498.029297"/>
      <use xlink:href="#DejaVuSans-74" x="559.308594"/>
      <use xlink:href="#DejaVuSans-69" x="598.517578"/>
      <use xlink:href="#DejaVuSans-6f" x="626.300781"/>
      <use xlink:href="#DejaVuSans-6e" x="687.482422"/>
      <use xlink:href="#DejaVuSans-20" x="750.861328"/>
      <use xlink:href="#DejaVuSans-41" x="782.648438"/>
      <use xlink:href="#DejaVuSans-63" x="849.306641"/>
      <use xlink:href="#DejaVuSans-63" x="904.287109"/>
      <use xlink:href="#DejaVuSans-75" x="959.267578"/>
      <use xlink:href="#DejaVuSans-72" x="1022.646484"/>
      <use xlink:href="#DejaVuSans-61" x="1063.759766"/>
      <use xlink:href="#DejaVuSans-63" x="1125.039062"/>
      <use xlink:href="#DejaVuSans-79" x="1180.019531"/>
     </g>
    </g>
    <g id="line2d_27">
     <path d="M 216.18875 293.004312 
L 226.18875 293.004312 
L 236.18875 293.004312 
" style="fill: none; stroke: #9467bd; stroke-width: 1.5; stroke-linecap: square"/>
    </g>
    <g id="text_25">
     <!-- SWA Robust Validation Accuracy -->
     <g transform="translate(244.18875 296.504312) scale(0.1 -0.1)">
      <use xlink:href="#DejaVuSans-53"/>
      <use xlink:href="#DejaVuSans-57" x="63.476562"/>
      <use xlink:href="#DejaVuSans-41" x="156.853516"/>
      <use xlink:href="#DejaVuSans-20" x="225.261719"/>
      <use xlink:href="#DejaVuSans-52" x="257.048828"/>
      <use xlink:href="#DejaVuSans-6f" x="322.03125"/>
      <use xlink:href="#DejaVuSans-62" x="383.212891"/>
      <use xlink:href="#DejaVuSans-75" x="446.689453"/>
      <use xlink:href="#DejaVuSans-73" x="510.068359"/>
      <use xlink:href="#DejaVuSans-74" x="562.167969"/>
      <use xlink:href="#DejaVuSans-20" x="601.376953"/>
      <use xlink:href="#DejaVuSans-56" x="633.164062"/>
      <use xlink:href="#DejaVuSans-61" x="693.822266"/>
      <use xlink:href="#DejaVuSans-6c" x="755.101562"/>
      <use xlink:href="#DejaVuSans-69" x="782.884766"/>
      <use xlink:href="#DejaVuSans-64" x="810.667969"/>
      <use xlink:href="#DejaVuSans-61" x="874.144531"/>
      <use xlink:href="#DejaVuSans-74" x="935.423828"/>
      <use xlink:href="#DejaVuSans-69" x="974.632812"/>
      <use xlink:href="#DejaVuSans-6f" x="1002.416016"/>
      <use xlink:href="#DejaVuSans-6e" x="1063.597656"/>
      <use xlink:href="#DejaVuSans-20" x="1126.976562"/>
      <use xlink:href="#DejaVuSans-41" x="1158.763672"/>
      <use xlink:href="#DejaVuSans-63" x="1225.421875"/>
      <use xlink:href="#DejaVuSans-63" x="1280.402344"/>
      <use xlink:href="#DejaVuSans-75" x="1335.382812"/>
      <use xlink:href="#DejaVuSans-72" x="1398.761719"/>
      <use xlink:href="#DejaVuSans-61" x="1439.875"/>
      <use xlink:href="#DejaVuSans-63" x="1501.154297"/>
      <use xlink:href="#DejaVuSans-79" x="1556.134766"/>
     </g>
    </g>
   </g>
  </g>
 </g>
 <defs>
  <clipPath id="p49430960da">
   <rect x="57.6" y="41.472" width="357.12" height="266.112"/>
  </clipPath>
 </defs>
</svg>
