<?xml version="1.0" encoding="utf-8" standalone="no"?>
<!DOCTYPE svg PUBLIC "-//W3C//DTD SVG 1.1//EN"
  "http://www.w3.org/Graphics/SVG/1.1/DTD/svg11.dtd">
<svg xmlns:xlink="http://www.w3.org/1999/xlink" width="460.8pt" height="345.6pt" viewBox="0 0 460.8 345.6" xmlns="http://www.w3.org/2000/svg" version="1.1">
 <metadata>
  <rdf:RDF xmlns:dc="http://purl.org/dc/elements/1.1/" xmlns:cc="http://creativecommons.org/ns#" xmlns:rdf="http://www.w3.org/1999/02/22-rdf-syntax-ns#">
   <cc:Work>
    <dc:type rdf:resource="http://purl.org/dc/dcmitype/StillImage"/>
    <dc:date>2025-07-16T08:04:07.608880</dc:date>
    <dc:format>image/svg+xml</dc:format>
    <dc:creator>
     <cc:Agent>
      <dc:title>Matplotlib v3.9.1, https://matplotlib.org/</dc:title>
     </cc:Agent>
    </dc:creator>
   </cc:Work>
  </rdf:RDF>
 </metadata>
 <defs>
  <style type="text/css">*{stroke-linejoin: round; stroke-linecap: butt}</style>
 </defs>
 <g id="figure_1">
  <g id="patch_1">
   <path d="M 0 345.6 
L 460.8 345.6 
L 460.8 0 
L 0 0 
z
" style="fill: #ffffff"/>
  </g>
  <g id="axes_1">
   <g id="patch_2">
    <path d="M 57.6 307.584 
L 414.72 307.584 
L 414.72 41.472 
L 57.6 41.472 
z
" style="fill: #ffffff"/>
   </g>
   <g id="matplotlib.axis_1">
    <g id="xtick_1">
     <g id="line2d_1">
      <defs>
       <path id="m22892a307d" d="M 0 0 
L 0 3.5 
" style="stroke: #000000; stroke-width: 0.8"/>
      </defs>
      <g>
       <use xlink:href="#m22892a307d" x="73.832727" y="307.584" style="stroke: #000000; stroke-width: 0.8"/>
      </g>
     </g>
     <g id="text_1">
      <!-- 1 -->
      <g transform="translate(70.651477 322.182437) scale(0.1 -0.1)">
       <defs>
        <path id="DejaVuSans-31" d="M 794 531 
L 1825 531 
L 1825 4091 
L 703 3866 
L 703 4441 
L 1819 4666 
L 2450 4666 
L 2450 531 
L 3481 531 
L 3481 0 
L 794 0 
L 794 531 
z
" transform="scale(0.015625)"/>
       </defs>
       <use xlink:href="#DejaVuSans-31"/>
      </g>
     </g>
    </g>
    <g id="xtick_2">
     <g id="line2d_2">
      <g>
       <use xlink:href="#m22892a307d" x="109.664165" y="307.584" style="stroke: #000000; stroke-width: 0.8"/>
      </g>
     </g>
     <g id="text_2">
      <!-- 34 -->
      <g transform="translate(103.301665 322.182437) scale(0.1 -0.1)">
       <defs>
        <path id="DejaVuSans-33" d="M 2597 2516 
Q 3050 2419 3304 2112 
Q 3559 1806 3559 1356 
Q 3559 666 3084 287 
Q 2609 -91 1734 -91 
Q 1441 -91 1130 -33 
Q 819 25 488 141 
L 488 750 
Q 750 597 1062 519 
Q 1375 441 1716 441 
Q 2309 441 2620 675 
Q 2931 909 2931 1356 
Q 2931 1769 2642 2001 
Q 2353 2234 1838 2234 
L 1294 2234 
L 1294 2753 
L 1863 2753 
Q 2328 2753 2575 2939 
Q 2822 3125 2822 3475 
Q 2822 3834 2567 4026 
Q 2313 4219 1838 4219 
Q 1578 4219 1281 4162 
Q 984 4106 628 3988 
L 628 4550 
Q 988 4650 1302 4700 
Q 1616 4750 1894 4750 
Q 2613 4750 3031 4423 
Q 3450 4097 3450 3541 
Q 3450 3153 3228 2886 
Q 3006 2619 2597 2516 
z
" transform="scale(0.015625)"/>
        <path id="DejaVuSans-34" d="M 2419 4116 
L 825 1625 
L 2419 1625 
L 2419 4116 
z
M 2253 4666 
L 3047 4666 
L 3047 1625 
L 3713 1625 
L 3713 1100 
L 3047 1100 
L 3047 0 
L 2419 0 
L 2419 1100 
L 313 1100 
L 313 1709 
L 2253 4666 
z
" transform="scale(0.015625)"/>
       </defs>
       <use xlink:href="#DejaVuSans-33"/>
       <use xlink:href="#DejaVuSans-34" x="63.623047"/>
      </g>
     </g>
    </g>
    <g id="xtick_3">
     <g id="line2d_3">
      <g>
       <use xlink:href="#m22892a307d" x="145.495604" y="307.584" style="stroke: #000000; stroke-width: 0.8"/>
      </g>
     </g>
     <g id="text_3">
      <!-- 67 -->
      <g transform="translate(139.133104 322.182437) scale(0.1 -0.1)">
       <defs>
        <path id="DejaVuSans-36" d="M 2113 2584 
Q 1688 2584 1439 2293 
Q 1191 2003 1191 1497 
Q 1191 994 1439 701 
Q 1688 409 2113 409 
Q 2538 409 2786 701 
Q 3034 994 3034 1497 
Q 3034 2003 2786 2293 
Q 2538 2584 2113 2584 
z
M 3366 4563 
L 3366 3988 
Q 3128 4100 2886 4159 
Q 2644 4219 2406 4219 
Q 1781 4219 1451 3797 
Q 1122 3375 1075 2522 
Q 1259 2794 1537 2939 
Q 1816 3084 2150 3084 
Q 2853 3084 3261 2657 
Q 3669 2231 3669 1497 
Q 3669 778 3244 343 
Q 2819 -91 2113 -91 
Q 1303 -91 875 529 
Q 447 1150 447 2328 
Q 447 3434 972 4092 
Q 1497 4750 2381 4750 
Q 2619 4750 2861 4703 
Q 3103 4656 3366 4563 
z
" transform="scale(0.015625)"/>
        <path id="DejaVuSans-37" d="M 525 4666 
L 3525 4666 
L 3525 4397 
L 1831 0 
L 1172 0 
L 2766 4134 
L 525 4134 
L 525 4666 
z
" transform="scale(0.015625)"/>
       </defs>
       <use xlink:href="#DejaVuSans-36"/>
       <use xlink:href="#DejaVuSans-37" x="63.623047"/>
      </g>
     </g>
    </g>
    <g id="xtick_4">
     <g id="line2d_4">
      <g>
       <use xlink:href="#m22892a307d" x="181.327042" y="307.584" style="stroke: #000000; stroke-width: 0.8"/>
      </g>
     </g>
     <g id="text_4">
      <!-- 100 -->
      <g transform="translate(171.783292 322.182437) scale(0.1 -0.1)">
       <defs>
        <path id="DejaVuSans-30" d="M 2034 4250 
Q 1547 4250 1301 3770 
Q 1056 3291 1056 2328 
Q 1056 1369 1301 889 
Q 1547 409 2034 409 
Q 2525 409 2770 889 
Q 3016 1369 3016 2328 
Q 3016 3291 2770 3770 
Q 2525 4250 2034 4250 
z
M 2034 4750 
Q 2819 4750 3233 4129 
Q 3647 3509 3647 2328 
Q 3647 1150 3233 529 
Q 2819 -91 2034 -91 
Q 1250 -91 836 529 
Q 422 1150 422 2328 
Q 422 3509 836 4129 
Q 1250 4750 2034 4750 
z
" transform="scale(0.015625)"/>
       </defs>
       <use xlink:href="#DejaVuSans-31"/>
       <use xlink:href="#DejaVuSans-30" x="63.623047"/>
       <use xlink:href="#DejaVuSans-30" x="127.246094"/>
      </g>
     </g>
    </g>
    <g id="xtick_5">
     <g id="line2d_5">
      <g>
       <use xlink:href="#m22892a307d" x="217.15848" y="307.584" style="stroke: #000000; stroke-width: 0.8"/>
      </g>
     </g>
     <g id="text_5">
      <!-- 133 -->
      <g transform="translate(207.61473 322.182437) scale(0.1 -0.1)">
       <use xlink:href="#DejaVuSans-31"/>
       <use xlink:href="#DejaVuSans-33" x="63.623047"/>
       <use xlink:href="#DejaVuSans-33" x="127.246094"/>
      </g>
     </g>
    </g>
    <g id="xtick_6">
     <g id="line2d_6">
      <g>
       <use xlink:href="#m22892a307d" x="254.075719" y="307.584" style="stroke: #000000; stroke-width: 0.8"/>
      </g>
     </g>
     <g id="text_6">
      <!-- 167 -->
      <g transform="translate(244.531969 322.182437) scale(0.1 -0.1)">
       <use xlink:href="#DejaVuSans-31"/>
       <use xlink:href="#DejaVuSans-36" x="63.623047"/>
       <use xlink:href="#DejaVuSans-37" x="127.246094"/>
      </g>
     </g>
    </g>
    <g id="xtick_7">
     <g id="line2d_7">
      <g>
       <use xlink:href="#m22892a307d" x="289.907157" y="307.584" style="stroke: #000000; stroke-width: 0.8"/>
      </g>
     </g>
     <g id="text_7">
      <!-- 200 -->
      <g transform="translate(280.363407 322.182437) scale(0.1 -0.1)">
       <defs>
        <path id="DejaVuSans-32" d="M 1228 531 
L 3431 531 
L 3431 0 
L 469 0 
L 469 531 
Q 828 903 1448 1529 
Q 2069 2156 2228 2338 
Q 2531 2678 2651 2914 
Q 2772 3150 2772 3378 
Q 2772 3750 2511 3984 
Q 2250 4219 1831 4219 
Q 1534 4219 1204 4116 
Q 875 4013 500 3803 
L 500 4441 
Q 881 4594 1212 4672 
Q 1544 4750 1819 4750 
Q 2544 4750 2975 4387 
Q 3406 4025 3406 3419 
Q 3406 3131 3298 2873 
Q 3191 2616 2906 2266 
Q 2828 2175 2409 1742 
Q 1991 1309 1228 531 
z
" transform="scale(0.015625)"/>
       </defs>
       <use xlink:href="#DejaVuSans-32"/>
       <use xlink:href="#DejaVuSans-30" x="63.623047"/>
       <use xlink:href="#DejaVuSans-30" x="127.246094"/>
      </g>
     </g>
    </g>
    <g id="xtick_8">
     <g id="line2d_8">
      <g>
       <use xlink:href="#m22892a307d" x="325.738595" y="307.584" style="stroke: #000000; stroke-width: 0.8"/>
      </g>
     </g>
     <g id="text_8">
      <!-- 233 -->
      <g transform="translate(316.194845 322.182437) scale(0.1 -0.1)">
       <use xlink:href="#DejaVuSans-32"/>
       <use xlink:href="#DejaVuSans-33" x="63.623047"/>
       <use xlink:href="#DejaVuSans-33" x="127.246094"/>
      </g>
     </g>
    </g>
    <g id="xtick_9">
     <g id="line2d_9">
      <g>
       <use xlink:href="#m22892a307d" x="361.570033" y="307.584" style="stroke: #000000; stroke-width: 0.8"/>
      </g>
     </g>
     <g id="text_9">
      <!-- 266 -->
      <g transform="translate(352.026283 322.182437) scale(0.1 -0.1)">
       <use xlink:href="#DejaVuSans-32"/>
       <use xlink:href="#DejaVuSans-36" x="63.623047"/>
       <use xlink:href="#DejaVuSans-36" x="127.246094"/>
      </g>
     </g>
    </g>
    <g id="xtick_10">
     <g id="line2d_10">
      <g>
       <use xlink:href="#m22892a307d" x="398.487273" y="307.584" style="stroke: #000000; stroke-width: 0.8"/>
      </g>
     </g>
     <g id="text_10">
      <!-- 300 -->
      <g transform="translate(388.943523 322.182437) scale(0.1 -0.1)">
       <use xlink:href="#DejaVuSans-33"/>
       <use xlink:href="#DejaVuSans-30" x="63.623047"/>
       <use xlink:href="#DejaVuSans-30" x="127.246094"/>
      </g>
     </g>
    </g>
    <g id="text_11">
     <!-- Epochs -->
     <g transform="translate(218.244375 335.860562) scale(0.1 -0.1)">
      <defs>
       <path id="DejaVuSans-45" d="M 628 4666 
L 3578 4666 
L 3578 4134 
L 1259 4134 
L 1259 2753 
L 3481 2753 
L 3481 2222 
L 1259 2222 
L 1259 531 
L 3634 531 
L 3634 0 
L 628 0 
L 628 4666 
z
" transform="scale(0.015625)"/>
       <path id="DejaVuSans-70" d="M 1159 525 
L 1159 -1331 
L 581 -1331 
L 581 3500 
L 1159 3500 
L 1159 2969 
Q 1341 3281 1617 3432 
Q 1894 3584 2278 3584 
Q 2916 3584 3314 3078 
Q 3713 2572 3713 1747 
Q 3713 922 3314 415 
Q 2916 -91 2278 -91 
Q 1894 -91 1617 61 
Q 1341 213 1159 525 
z
M 3116 1747 
Q 3116 2381 2855 2742 
Q 2594 3103 2138 3103 
Q 1681 3103 1420 2742 
Q 1159 2381 1159 1747 
Q 1159 1113 1420 752 
Q 1681 391 2138 391 
Q 2594 391 2855 752 
Q 3116 1113 3116 1747 
z
" transform="scale(0.015625)"/>
       <path id="DejaVuSans-6f" d="M 1959 3097 
Q 1497 3097 1228 2736 
Q 959 2375 959 1747 
Q 959 1119 1226 758 
Q 1494 397 1959 397 
Q 2419 397 2687 759 
Q 2956 1122 2956 1747 
Q 2956 2369 2687 2733 
Q 2419 3097 1959 3097 
z
M 1959 3584 
Q 2709 3584 3137 3096 
Q 3566 2609 3566 1747 
Q 3566 888 3137 398 
Q 2709 -91 1959 -91 
Q 1206 -91 779 398 
Q 353 888 353 1747 
Q 353 2609 779 3096 
Q 1206 3584 1959 3584 
z
" transform="scale(0.015625)"/>
       <path id="DejaVuSans-63" d="M 3122 3366 
L 3122 2828 
Q 2878 2963 2633 3030 
Q 2388 3097 2138 3097 
Q 1578 3097 1268 2742 
Q 959 2388 959 1747 
Q 959 1106 1268 751 
Q 1578 397 2138 397 
Q 2388 397 2633 464 
Q 2878 531 3122 666 
L 3122 134 
Q 2881 22 2623 -34 
Q 2366 -91 2075 -91 
Q 1284 -91 818 406 
Q 353 903 353 1747 
Q 353 2603 823 3093 
Q 1294 3584 2113 3584 
Q 2378 3584 2631 3529 
Q 2884 3475 3122 3366 
z
" transform="scale(0.015625)"/>
       <path id="DejaVuSans-68" d="M 3513 2113 
L 3513 0 
L 2938 0 
L 2938 2094 
Q 2938 2591 2744 2837 
Q 2550 3084 2163 3084 
Q 1697 3084 1428 2787 
Q 1159 2491 1159 1978 
L 1159 0 
L 581 0 
L 581 4863 
L 1159 4863 
L 1159 2956 
Q 1366 3272 1645 3428 
Q 1925 3584 2291 3584 
Q 2894 3584 3203 3211 
Q 3513 2838 3513 2113 
z
" transform="scale(0.015625)"/>
       <path id="DejaVuSans-73" d="M 2834 3397 
L 2834 2853 
Q 2591 2978 2328 3040 
Q 2066 3103 1784 3103 
Q 1356 3103 1142 2972 
Q 928 2841 928 2578 
Q 928 2378 1081 2264 
Q 1234 2150 1697 2047 
L 1894 2003 
Q 2506 1872 2764 1633 
Q 3022 1394 3022 966 
Q 3022 478 2636 193 
Q 2250 -91 1575 -91 
Q 1294 -91 989 -36 
Q 684 19 347 128 
L 347 722 
Q 666 556 975 473 
Q 1284 391 1588 391 
Q 1994 391 2212 530 
Q 2431 669 2431 922 
Q 2431 1156 2273 1281 
Q 2116 1406 1581 1522 
L 1381 1569 
Q 847 1681 609 1914 
Q 372 2147 372 2553 
Q 372 3047 722 3315 
Q 1072 3584 1716 3584 
Q 2034 3584 2315 3537 
Q 2597 3491 2834 3397 
z
" transform="scale(0.015625)"/>
      </defs>
      <use xlink:href="#DejaVuSans-45"/>
      <use xlink:href="#DejaVuSans-70" x="63.183594"/>
      <use xlink:href="#DejaVuSans-6f" x="126.660156"/>
      <use xlink:href="#DejaVuSans-63" x="187.841797"/>
      <use xlink:href="#DejaVuSans-68" x="242.822266"/>
      <use xlink:href="#DejaVuSans-73" x="306.201172"/>
     </g>
    </g>
   </g>
   <g id="matplotlib.axis_2">
    <g id="ytick_1">
     <g id="line2d_11">
      <defs>
       <path id="mab58b90f5a" d="M 0 0 
L -3.5 0 
" style="stroke: #000000; stroke-width: 0.8"/>
      </defs>
      <g>
       <use xlink:href="#mab58b90f5a" x="57.6" y="274.049613" style="stroke: #000000; stroke-width: 0.8"/>
      </g>
     </g>
     <g id="text_12">
      <!-- 10 -->
      <g transform="translate(37.875 277.848832) scale(0.1 -0.1)">
       <use xlink:href="#DejaVuSans-31"/>
       <use xlink:href="#DejaVuSans-30" x="63.623047"/>
      </g>
     </g>
    </g>
    <g id="ytick_2">
     <g id="line2d_12">
      <g>
       <use xlink:href="#mab58b90f5a" x="57.6" y="238.390287" style="stroke: #000000; stroke-width: 0.8"/>
      </g>
     </g>
     <g id="text_13">
      <!-- 20 -->
      <g transform="translate(37.875 242.189506) scale(0.1 -0.1)">
       <use xlink:href="#DejaVuSans-32"/>
       <use xlink:href="#DejaVuSans-30" x="63.623047"/>
      </g>
     </g>
    </g>
    <g id="ytick_3">
     <g id="line2d_13">
      <g>
       <use xlink:href="#mab58b90f5a" x="57.6" y="202.730961" style="stroke: #000000; stroke-width: 0.8"/>
      </g>
     </g>
     <g id="text_14">
      <!-- 30 -->
      <g transform="translate(37.875 206.53018) scale(0.1 -0.1)">
       <use xlink:href="#DejaVuSans-33"/>
       <use xlink:href="#DejaVuSans-30" x="63.623047"/>
      </g>
     </g>
    </g>
    <g id="ytick_4">
     <g id="line2d_14">
      <g>
       <use xlink:href="#mab58b90f5a" x="57.6" y="167.071635" style="stroke: #000000; stroke-width: 0.8"/>
      </g>
     </g>
     <g id="text_15">
      <!-- 40 -->
      <g transform="translate(37.875 170.870854) scale(0.1 -0.1)">
       <use xlink:href="#DejaVuSans-34"/>
       <use xlink:href="#DejaVuSans-30" x="63.623047"/>
      </g>
     </g>
    </g>
    <g id="ytick_5">
     <g id="line2d_15">
      <g>
       <use xlink:href="#mab58b90f5a" x="57.6" y="131.412309" style="stroke: #000000; stroke-width: 0.8"/>
      </g>
     </g>
     <g id="text_16">
      <!-- 50 -->
      <g transform="translate(37.875 135.211528) scale(0.1 -0.1)">
       <defs>
        <path id="DejaVuSans-35" d="M 691 4666 
L 3169 4666 
L 3169 4134 
L 1269 4134 
L 1269 2991 
Q 1406 3038 1543 3061 
Q 1681 3084 1819 3084 
Q 2600 3084 3056 2656 
Q 3513 2228 3513 1497 
Q 3513 744 3044 326 
Q 2575 -91 1722 -91 
Q 1428 -91 1123 -41 
Q 819 9 494 109 
L 494 744 
Q 775 591 1075 516 
Q 1375 441 1709 441 
Q 2250 441 2565 725 
Q 2881 1009 2881 1497 
Q 2881 1984 2565 2268 
Q 2250 2553 1709 2553 
Q 1456 2553 1204 2497 
Q 953 2441 691 2322 
L 691 4666 
z
" transform="scale(0.015625)"/>
       </defs>
       <use xlink:href="#DejaVuSans-35"/>
       <use xlink:href="#DejaVuSans-30" x="63.623047"/>
      </g>
     </g>
    </g>
    <g id="ytick_6">
     <g id="line2d_16">
      <g>
       <use xlink:href="#mab58b90f5a" x="57.6" y="95.752983" style="stroke: #000000; stroke-width: 0.8"/>
      </g>
     </g>
     <g id="text_17">
      <!-- 60 -->
      <g transform="translate(37.875 99.552202) scale(0.1 -0.1)">
       <use xlink:href="#DejaVuSans-36"/>
       <use xlink:href="#DejaVuSans-30" x="63.623047"/>
      </g>
     </g>
    </g>
    <g id="ytick_7">
     <g id="line2d_17">
      <g>
       <use xlink:href="#mab58b90f5a" x="57.6" y="60.093657" style="stroke: #000000; stroke-width: 0.8"/>
      </g>
     </g>
     <g id="text_18">
      <!-- 70 -->
      <g transform="translate(37.875 63.892875) scale(0.1 -0.1)">
       <use xlink:href="#DejaVuSans-37"/>
       <use xlink:href="#DejaVuSans-30" x="63.623047"/>
      </g>
     </g>
    </g>
    <g id="text_19">
     <!-- Accuracy -->
     <g transform="translate(31.795312 197.356125) rotate(-90) scale(0.1 -0.1)">
      <defs>
       <path id="DejaVuSans-41" d="M 2188 4044 
L 1331 1722 
L 3047 1722 
L 2188 4044 
z
M 1831 4666 
L 2547 4666 
L 4325 0 
L 3669 0 
L 3244 1197 
L 1141 1197 
L 716 0 
L 50 0 
L 1831 4666 
z
" transform="scale(0.015625)"/>
       <path id="DejaVuSans-75" d="M 544 1381 
L 544 3500 
L 1119 3500 
L 1119 1403 
Q 1119 906 1312 657 
Q 1506 409 1894 409 
Q 2359 409 2629 706 
Q 2900 1003 2900 1516 
L 2900 3500 
L 3475 3500 
L 3475 0 
L 2900 0 
L 2900 538 
Q 2691 219 2414 64 
Q 2138 -91 1772 -91 
Q 1169 -91 856 284 
Q 544 659 544 1381 
z
M 1991 3584 
L 1991 3584 
z
" transform="scale(0.015625)"/>
       <path id="DejaVuSans-72" d="M 2631 2963 
Q 2534 3019 2420 3045 
Q 2306 3072 2169 3072 
Q 1681 3072 1420 2755 
Q 1159 2438 1159 1844 
L 1159 0 
L 581 0 
L 581 3500 
L 1159 3500 
L 1159 2956 
Q 1341 3275 1631 3429 
Q 1922 3584 2338 3584 
Q 2397 3584 2469 3576 
Q 2541 3569 2628 3553 
L 2631 2963 
z
" transform="scale(0.015625)"/>
       <path id="DejaVuSans-61" d="M 2194 1759 
Q 1497 1759 1228 1600 
Q 959 1441 959 1056 
Q 959 750 1161 570 
Q 1363 391 1709 391 
Q 2188 391 2477 730 
Q 2766 1069 2766 1631 
L 2766 1759 
L 2194 1759 
z
M 3341 1997 
L 3341 0 
L 2766 0 
L 2766 531 
Q 2569 213 2275 61 
Q 1981 -91 1556 -91 
Q 1019 -91 701 211 
Q 384 513 384 1019 
Q 384 1609 779 1909 
Q 1175 2209 1959 2209 
L 2766 2209 
L 2766 2266 
Q 2766 2663 2505 2880 
Q 2244 3097 1772 3097 
Q 1472 3097 1187 3025 
Q 903 2953 641 2809 
L 641 3341 
Q 956 3463 1253 3523 
Q 1550 3584 1831 3584 
Q 2591 3584 2966 3190 
Q 3341 2797 3341 1997 
z
" transform="scale(0.015625)"/>
       <path id="DejaVuSans-79" d="M 2059 -325 
Q 1816 -950 1584 -1140 
Q 1353 -1331 966 -1331 
L 506 -1331 
L 506 -850 
L 844 -850 
Q 1081 -850 1212 -737 
Q 1344 -625 1503 -206 
L 1606 56 
L 191 3500 
L 800 3500 
L 1894 763 
L 2988 3500 
L 3597 3500 
L 2059 -325 
z
" transform="scale(0.015625)"/>
      </defs>
      <use xlink:href="#DejaVuSans-41"/>
      <use xlink:href="#DejaVuSans-63" x="66.658203"/>
      <use xlink:href="#DejaVuSans-63" x="121.638672"/>
      <use xlink:href="#DejaVuSans-75" x="176.619141"/>
      <use xlink:href="#DejaVuSans-72" x="239.998047"/>
      <use xlink:href="#DejaVuSans-61" x="281.111328"/>
      <use xlink:href="#DejaVuSans-63" x="342.390625"/>
      <use xlink:href="#DejaVuSans-79" x="397.371094"/>
     </g>
    </g>
   </g>
   <g id="line2d_18">
    <path d="M 73.832727 295.488 
L 74.918528 276.984376 
L 76.00433 261.961102 
L 78.175932 239.003627 
L 79.261733 230.302752 
L 80.347534 222.578942 
L 82.519137 210.06965 
L 83.604938 204.592378 
L 84.690739 200.520083 
L 85.77654 194.882343 
L 87.948142 185.500375 
L 90.119745 179.563097 
L 91.205546 175.793906 
L 92.291347 174.371099 
L 93.377148 173.187209 
L 94.462949 171.001293 
L 95.54875 199.660693 
L 96.634552 197.949045 
L 97.720353 194.443734 
L 98.806154 192.257817 
L 99.891955 189.430032 
L 100.977756 186.117281 
L 102.063557 183.728106 
L 103.149358 181.021563 
L 105.320961 177.345087 
L 106.406762 174.716994 
L 107.492563 172.463325 
L 108.578364 170.516326 
L 110.749967 165.516888 
L 111.835768 163.634076 
L 112.921569 160.820555 
L 114.00737 160.118066 
L 115.093171 157.91432 
L 116.178972 155.314755 
L 117.264773 153.777838 
L 118.350575 150.668345 
L 119.436376 150.09423 
L 120.522177 147.091715 
L 121.607978 146.093253 
L 122.693779 143.543612 
L 123.77958 143.190584 
L 124.865382 140.526833 
L 125.951183 138.89007 
L 127.036984 136.818263 
L 128.122785 133.990478 
L 129.208586 134.807077 
L 130.294387 132.036347 
L 131.380189 130.018029 
L 132.46599 129.340502 
L 133.551791 129.782678 
L 135.723393 127.693041 
L 136.809194 127.432728 
L 137.894995 125.845888 
L 138.980797 162.717631 
L 140.066598 165.720146 
L 142.2382 162.414527 
L 143.324001 163.084922 
L 144.409802 161.091566 
L 146.581405 158.827199 
L 148.753007 158.513397 
L 149.838808 156.070733 
L 150.924609 156.623452 
L 152.01041 155.510881 
L 153.096212 153.931173 
L 154.182013 152.704492 
L 155.267814 152.886355 
L 156.353615 151.87363 
L 157.439416 150.522142 
L 158.525217 148.546615 
L 159.611019 149.117164 
L 160.69682 147.184429 
L 161.782621 147.063187 
L 162.868422 145.729528 
L 163.954223 144.734633 
L 165.040024 145.052001 
L 166.125825 143.390276 
L 167.211627 143.800359 
L 168.297428 142.338326 
L 169.383229 141.550255 
L 172.640632 138.701075 
L 173.726434 138.647586 
L 174.812235 136.504461 
L 175.898036 136.179961 
L 176.983837 135.976703 
L 178.069638 134.272187 
L 179.155439 134.125984 
L 180.24124 132.656819 
L 181.327042 131.447968 
L 182.412843 130.449507 
L 183.498644 129.244222 
L 184.584445 128.887629 
L 185.670246 127.254431 
L 186.756047 126.191783 
L 187.841849 126.027751 
L 188.92765 125.599839 
L 190.013451 123.453147 
L 191.099252 123.40679 
L 192.185053 121.434829 
L 193.270854 121.334983 
L 194.356656 120.332956 
L 195.442457 118.467973 
L 196.528258 118.981468 
L 197.614059 117.533699 
L 198.69986 116.891831 
L 199.785661 114.969794 
L 200.871462 114.873513 
L 201.957264 113.978464 
L 203.043065 112.869459 
L 204.128866 110.334081 
L 205.214667 110.776257 
L 206.300468 109.752834 
L 207.386269 109.767098 
L 208.472071 107.969868 
L 209.557872 106.832335 
L 210.643673 107.235286 
L 211.729474 105.976512 
L 212.815275 104.307655 
L 213.901076 105.195572 
L 214.986877 105.117122 
L 216.072679 103.152293 
L 218.244281 103.145161 
L 219.330082 103.526716 
L 220.415883 102.902678 
L 222.587486 101.283744 
L 223.673287 101.07692 
L 224.759088 101.864991 
L 225.844889 146.592484 
L 226.93069 151.057032 
L 228.016491 150.126323 
L 229.102292 149.545076 
L 230.188094 148.386148 
L 231.273895 148.771269 
L 232.359696 147.943972 
L 233.445497 146.663803 
L 234.531298 147.309236 
L 235.617099 146.80644 
L 236.702901 146.046896 
L 237.788702 144.741765 
L 238.874503 145.301616 
L 239.960304 144.356644 
L 241.046105 143.750436 
L 242.131906 144.078501 
L 243.217708 142.662826 
L 244.303509 142.67709 
L 245.38931 142.327629 
L 246.475111 142.766238 
L 247.560912 141.257849 
L 248.646713 141.275678 
L 249.732514 141.133041 
L 250.818316 141.10808 
L 251.904117 139.638915 
L 252.989918 140.141712 
L 254.075719 139.938454 
L 255.16152 139.40713 
L 256.247321 138.515647 
L 257.333123 138.640454 
L 258.418924 137.620598 
L 259.504725 138.162619 
L 260.590526 137.324625 
L 261.676327 136.087246 
L 263.847929 136.853922 
L 264.933731 135.930345 
L 266.019532 135.905384 
L 267.105333 136.326164 
L 268.191134 134.992505 
L 269.276935 135.281346 
L 270.362736 134.717928 
L 271.448538 134.732192 
L 272.534339 134.318544 
L 273.62014 132.464259 
L 275.791742 132.688913 
L 276.877543 131.950765 
L 277.963344 132.60333 
L 279.049146 131.993556 
L 280.134947 131.023622 
L 281.220748 130.813232 
L 282.306549 131.829523 
L 283.39235 130.923776 
L 284.478151 129.550892 
L 285.563953 129.297711 
L 286.649754 130.132139 
L 287.735555 129.098019 
L 288.821356 128.26359 
L 289.907157 128.441887 
L 290.992958 126.655355 
L 292.07876 127.243734 
L 293.164561 126.15969 
L 294.250362 127.432728 
L 295.336163 125.724646 
L 296.421964 126.198915 
L 297.507765 125.186191 
L 298.593566 124.858125 
L 299.679368 124.736883 
L 300.765169 124.241218 
L 301.85097 125.029289 
L 302.936771 123.232059 
L 304.022572 123.363999 
L 305.108373 122.900428 
L 306.194175 122.593757 
L 307.279976 122.158714 
L 308.365777 121.855609 
L 309.451578 121.017615 
L 310.537379 120.710945 
L 311.62318 119.341627 
L 312.708981 120.57544 
L 313.794783 119.120539 
L 314.880584 119.113407 
L 315.966385 118.685495 
L 317.052186 118.407353 
L 318.137987 117.376798 
L 319.223788 117.205633 
L 320.30959 116.581595 
L 321.395391 115.68298 
L 322.481192 113.900014 
L 323.566993 114.852118 
L 324.652794 114.010558 
L 325.738595 114.335058 
L 326.824396 113.917843 
L 327.910198 112.587751 
L 328.995999 113.240316 
L 330.0818 112.480773 
L 331.167601 111.920921 
L 332.253402 110.679977 
L 333.339203 109.652988 
L 334.425005 110.109427 
L 336.596607 109.096703 
L 337.682408 108.643829 
L 338.768209 107.716687 
L 339.85401 107.891417 
L 340.939811 106.190467 
L 342.025613 105.976512 
L 343.111414 105.263325 
L 344.197215 105.684105 
L 345.283016 104.849677 
L 346.368817 104.999446 
L 347.454618 103.851216 
L 349.626221 101.982667 
L 350.712022 102.342826 
L 351.797823 102.859886 
L 352.883624 101.579717 
L 353.969425 100.599085 
L 355.055227 101.319404 
L 356.141028 99.843107 
L 357.226829 97.771301 
L 359.398431 98.527278 
L 361.570033 96.469735 
L 362.655835 96.972532 
L 363.741636 95.613911 
L 364.827437 96.270043 
L 365.913238 94.51917 
L 366.999039 94.465681 
L 368.08484 95.260884 
L 369.170642 97.728509 
L 370.256443 98.833949 
L 371.342244 101.201728 
L 372.428045 101.807936 
L 373.513846 102.89198 
L 374.599647 102.556782 
L 375.685448 103.148727 
L 376.77125 102.460502 
L 377.857051 104.407501 
L 378.942852 102.68159 
L 380.028653 103.754936 
L 381.114454 103.202216 
L 382.200255 102.949035 
L 383.286057 104.13649 
L 385.457659 102.852755 
L 386.54346 104.475254 
L 387.629261 104.296957 
L 388.715062 103.398342 
L 389.800863 103.530282 
L 390.886665 104.239902 
L 391.972466 104.065172 
L 393.058267 104.414633 
L 394.144068 104.635721 
L 395.229869 103.82982 
L 396.31567 104.247034 
L 397.401472 104.150754 
L 398.487273 104.931693 
L 398.487273 104.931693 
" clip-path="url(#p0b24d882f0)" style="fill: none; stroke: #1f77b4; stroke-width: 1.5; stroke-linecap: square"/>
   </g>
   <g id="line2d_19">
    <path d="M 73.832727 279.683787 
L 74.918528 256.75484 
L 77.090131 226.123479 
L 78.175932 206.546509 
L 79.261733 205.40541 
L 80.347534 191.426955 
L 81.433335 180.729157 
L 82.519137 181.157069 
L 83.604938 170.138337 
L 84.690739 156.837408 
L 85.77654 156.980046 
L 86.862341 150.347411 
L 87.948142 149.099335 
L 89.033943 147.031094 
L 90.119745 137.617032 
L 91.205546 135.655769 
L 92.291347 134.01544 
L 93.377148 130.30687 
L 94.462949 131.804561 
L 95.54875 168.961579 
L 96.634552 164.68246 
L 97.720353 161.259165 
L 98.806154 155.767629 
L 99.891955 147.851258 
L 100.977756 141.682195 
L 102.063557 140.220162 
L 103.149358 137.652691 
L 104.23516 138.151921 
L 105.320961 133.623187 
L 106.406762 133.908462 
L 108.578364 123.246323 
L 109.664165 123.602916 
L 110.749967 124.4944 
L 111.835768 119.965665 
L 112.921569 111.942317 
L 114.00737 116.756326 
L 115.093171 110.337647 
L 116.178972 108.198088 
L 117.264773 109.196549 
L 118.350575 104.632155 
L 119.436376 102.314299 
L 120.522177 101.565453 
L 121.607978 99.711168 
L 123.77958 94.005676 
L 124.865382 92.222709 
L 125.951183 92.686281 
L 127.036984 91.224248 
L 128.122785 88.692436 
L 131.380189 83.414856 
L 132.46599 83.129581 
L 133.551791 82.380735 
L 134.637592 81.774527 
L 135.723393 81.310956 
L 136.809194 81.560571 
L 137.894995 81.667549 
L 138.980797 122.961049 
L 140.066598 116.934622 
L 141.152399 119.823028 
L 142.2382 119.751709 
L 143.324001 118.040062 
L 144.409802 115.187315 
L 145.495604 117.219897 
L 146.581405 115.222975 
L 148.753007 110.444625 
L 149.838808 111.22913 
L 150.924609 107.128308 
L 152.01041 112.584185 
L 153.096212 108.019791 
L 154.182013 109.410505 
L 155.267814 107.55622 
L 156.353615 107.877154 
L 157.439416 104.739133 
L 159.611019 106.664737 
L 160.69682 101.066222 
L 161.782621 101.387156 
L 162.868422 104.88177 
L 163.954223 100.032102 
L 165.040024 97.928202 
L 166.125825 100.210399 
L 167.211627 100.174739 
L 168.297428 93.79172 
L 169.383229 94.362269 
L 170.46903 96.073917 
L 171.554831 91.366886 
L 172.640632 101.244519 
L 173.726434 92.686281 
L 174.812235 94.255291 
L 175.898036 93.934357 
L 176.983837 86.481558 
L 179.155439 92.008754 
L 180.24124 84.912548 
L 181.327042 84.841229 
L 182.412843 86.445899 
L 183.498644 83.521834 
L 184.584445 86.089305 
L 185.670246 82.986944 
L 186.756047 81.203978 
L 187.841849 81.59623 
L 188.92765 78.672166 
L 191.099252 79.563649 
L 192.185053 78.030298 
L 193.270854 74.286068 
L 194.356656 74.17909 
L 195.442457 72.396124 
L 196.528258 73.323267 
L 197.614059 71.57596 
L 198.69986 72.182168 
L 200.871462 70.791454 
L 201.957264 67.439478 
L 203.043065 67.938708 
L 204.128866 67.760412 
L 205.214667 66.191401 
L 206.300468 65.371237 
L 207.386269 64.836347 
L 209.557872 63.124699 
L 210.643673 63.124699 
L 211.729474 62.126238 
L 212.815275 61.840964 
L 213.901076 61.840964 
L 214.986877 61.377392 
L 216.072679 61.947942 
L 217.15848 60.200635 
L 218.244281 60.557228 
L 219.330082 61.377392 
L 220.415883 59.844041 
L 221.501684 59.879701 
L 222.587486 60.200635 
L 223.673287 59.701404 
L 224.759088 60.200635 
L 225.844889 107.591879 
L 226.93069 109.160889 
L 228.016491 112.584185 
L 229.102292 106.48644 
L 230.188094 110.872537 
L 231.273895 101.886387 
L 232.359696 107.270945 
L 233.445497 106.914352 
L 234.531298 109.624461 
L 235.617099 109.196549 
L 236.702901 103.134463 
L 237.788702 100.531332 
L 238.874503 104.418199 
L 241.046105 94.362269 
L 242.131906 104.596496 
L 243.217708 108.875615 
L 244.303509 96.394851 
L 245.38931 99.675509 
L 246.475111 93.684742 
L 247.560912 99.746827 
L 248.646713 95.966939 
L 249.732514 101.20886 
L 250.818316 99.889465 
L 251.904117 98.177817 
L 252.989918 100.317376 
L 254.075719 95.752983 
L 255.16152 93.934357 
L 256.247321 98.997981 
L 257.333123 94.469247 
L 258.418924 100.246058 
L 259.504725 92.151391 
L 260.590526 97.321993 
L 261.676327 91.438204 
L 262.762128 94.219632 
L 263.847929 93.007215 
L 264.933731 92.294028 
L 266.019532 91.402545 
L 267.105333 91.68782 
L 268.191134 93.185511 
L 269.276935 88.906392 
L 270.362736 94.041335 
L 271.448538 95.646005 
L 272.534339 92.18705 
L 273.62014 90.439743 
L 274.705941 94.576225 
L 275.791742 91.509523 
L 276.877543 88.086228 
L 277.963344 92.365347 
L 279.049146 87.586997 
L 280.134947 94.754522 
L 281.220748 89.084689 
L 282.306549 88.228865 
L 283.39235 90.760677 
L 284.478151 85.732712 
L 285.563953 87.301722 
L 286.649754 84.484636 
L 287.735555 83.985405 
L 288.821356 87.480019 
L 289.907157 87.373041 
L 290.992958 79.171396 
L 292.07876 86.588536 
L 293.164561 86.303261 
L 295.336163 82.915625 
L 296.421964 83.2009 
L 297.507765 86.303261 
L 298.593566 86.160624 
L 299.679368 82.095461 
L 300.765169 84.627273 
L 301.85097 81.097 
L 302.936771 81.346615 
L 304.022572 81.310956 
L 305.108373 83.521834 
L 306.194175 81.06134 
L 307.279976 82.594691 
L 308.365777 77.531067 
L 309.451578 76.746562 
L 310.537379 78.42255 
L 311.62318 75.748101 
L 312.708981 78.814803 
L 313.794783 77.35277 
L 314.880584 79.813264 
L 315.966385 74.464365 
L 317.052186 76.960518 
L 318.137987 73.715519 
L 319.223788 74.607002 
L 320.30959 74.357387 
L 321.395391 73.037992 
L 322.481192 72.645739 
L 323.566993 78.886122 
L 324.652794 72.645739 
L 325.738595 70.363543 
L 326.824396 71.183707 
L 327.910198 69.935631 
L 328.995999 71.148048 
L 330.0818 69.222444 
L 331.167601 69.329422 
L 332.253402 70.399202 
L 333.339203 67.689093 
L 334.425005 67.724752 
L 335.510806 66.441017 
L 336.596607 66.868929 
L 337.682408 67.974368 
L 338.768209 67.86739 
L 339.85401 63.802227 
L 340.939811 63.231677 
L 342.025613 63.802227 
L 343.111414 64.123161 
L 344.197215 64.729369 
L 345.283016 63.944864 
L 347.454618 61.020799 
L 348.54042 61.199096 
L 349.626221 62.839425 
L 350.712022 60.592887 
L 351.797823 59.772723 
L 352.883624 59.273492 
L 353.969425 59.095196 
L 355.055227 58.239372 
L 356.141028 59.91536 
L 357.226829 58.275031 
L 358.31263 56.385087 
L 359.398431 56.456405 
L 360.484232 56.349427 
L 361.570033 56.812999 
L 362.655835 55.814538 
L 363.741636 55.992834 
L 364.827437 55.743219 
L 365.913238 54.174209 
L 366.999039 56.420746 
L 368.08484 53.568 
L 370.256443 59.523107 
L 371.342244 58.595965 
L 372.428045 62.126238 
L 373.513846 61.733986 
L 374.599647 62.589809 
L 375.685448 62.625469 
L 376.77125 65.870467 
L 377.857051 63.588271 
L 378.942852 60.485909 
L 380.028653 61.983601 
L 381.114454 59.451789 
L 382.200255 63.944864 
L 383.286057 61.947942 
L 384.371858 62.411513 
L 385.457659 61.48437 
L 386.54346 61.234755 
L 387.629261 62.268876 
L 388.715062 61.270414 
L 389.800863 62.910743 
L 390.886665 63.766567 
L 391.972466 64.872006 
L 393.058267 63.552611 
L 394.144068 63.481293 
L 395.229869 64.408435 
L 396.31567 62.661128 
L 397.401472 62.01926 
L 398.487273 63.659589 
L 398.487273 63.659589 
" clip-path="url(#p0b24d882f0)" style="fill: none; stroke: #ff7f0e; stroke-width: 1.5; stroke-linecap: square"/>
   </g>
   <g id="line2d_20">
    <path d="M 73.832727 292.494043 
L 74.918528 278.008868 
L 77.090131 268.221096 
L 78.175932 257.056161 
L 79.261733 251.178435 
L 80.347534 251.449089 
L 81.433335 241.390663 
L 82.519137 244.169557 
L 83.604938 239.029696 
L 84.690739 231.627311 
L 85.77654 229.905827 
L 86.862341 232.832351 
L 87.948142 226.757969 
L 89.033943 226.069375 
L 90.119745 221.519737 
L 91.205546 221.322996 
L 92.291347 216.871728 
L 93.377148 213.773056 
L 94.462949 214.56002 
L 95.54875 240.628217 
L 96.634552 240.775773 
L 97.720353 232.094572 
L 98.806154 233.422574 
L 99.891955 230.938718 
L 100.977756 223.683889 
L 102.063557 217.953804 
L 103.149358 217.658693 
L 104.23516 219.699882 
L 105.320961 213.059869 
L 106.406762 218.125953 
L 107.492563 211.461348 
L 108.578364 211.731867 
L 109.664165 207.870822 
L 110.749967 215.445355 
L 111.835768 203.739259 
L 112.921569 201.353773 
L 114.00737 209.100454 
L 115.093171 196.976284 
L 116.178972 198.009174 
L 117.264773 198.107545 
L 118.350575 194.713761 
L 119.436376 193.582499 
L 120.522177 192.131534 
L 122.693779 187.926193 
L 123.77958 184.606186 
L 124.865382 183.155221 
L 125.951183 182.614183 
L 127.036984 181.409143 
L 128.122785 183.770037 
L 129.208586 178.851509 
L 130.294387 178.703953 
L 131.380189 176.613579 
L 132.46599 177.130024 
L 133.551791 175.531503 
L 134.637592 177.031654 
L 135.723393 174.400241 
L 137.894995 173.785425 
L 138.980797 211.043273 
L 140.066598 208.461046 
L 141.152399 202.952295 
L 142.2382 202.755554 
L 143.324001 204.698372 
L 144.409802 201.206217 
L 145.495604 203.37037 
L 146.581405 197.492729 
L 147.667206 195.574503 
L 148.753007 196.582801 
L 149.838808 201.476736 
L 150.924609 195.771244 
L 152.01041 193.877611 
L 153.096212 197.763248 
L 154.182013 205.559114 
L 155.267814 192.697164 
L 156.353615 199.386362 
L 157.439416 191.639681 
L 158.525217 196.410653 
L 159.611019 194.738353 
L 160.69682 188.073748 
L 161.782621 187.557303 
L 162.868422 191.885607 
L 163.954223 189.918196 
L 165.040024 182.909294 
L 166.125825 185.171817 
L 167.211627 185.073446 
L 168.297428 188.959083 
L 169.383229 186.622783 
L 170.46903 192.229904 
L 171.554831 183.819222 
L 172.640632 194.074352 
L 173.726434 191.738052 
L 174.812235 186.253893 
L 175.898036 194.074352 
L 176.983837 178.359656 
L 178.069638 180.991068 
L 179.155439 180.130326 
L 180.24124 179.072843 
L 181.327042 178.285878 
L 182.412843 178.162915 
L 183.498644 170.612975 
L 184.584445 180.91729 
L 185.670246 176.170911 
L 186.756047 169.924381 
L 187.841849 178.187508 
L 188.92765 177.64647 
L 190.013451 177.64647 
L 191.099252 173.047646 
L 193.270854 171.645866 
L 194.356656 168.498008 
L 195.442457 169.481714 
L 196.528258 162.374441 
L 197.614059 165.448521 
L 198.69986 163.530295 
L 199.785661 166.899486 
L 200.871462 162.571182 
L 201.957264 163.94837 
L 203.043065 161.882588 
L 204.128866 161.587476 
L 205.214667 160.333252 
L 206.300468 160.972661 
L 207.386269 158.685545 
L 208.472071 158.365841 
L 209.557872 156.004948 
L 210.643673 159.349546 
L 211.729474 155.340946 
L 212.815275 157.062431 
L 213.901076 157.554284 
L 216.072679 154.086722 
L 217.15848 152.881682 
L 219.330082 154.332648 
L 220.415883 155.685243 
L 221.501684 155.709836 
L 222.587486 155.144205 
L 223.673287 155.316354 
L 224.759088 153.693239 
L 225.844889 191.565903 
L 226.93069 194.467834 
L 228.016491 198.845324 
L 229.102292 196.066356 
L 230.188094 204.280297 
L 231.273895 193.090647 
L 232.359696 200.493031 
L 233.445497 197.910804 
L 234.531298 207.182229 
L 235.617099 200.025771 
L 236.702901 196.189319 
L 237.788702 188.909898 
L 238.874503 191.762644 
L 239.960304 194.172723 
L 241.046105 184.802927 
L 242.131906 195.623688 
L 243.217708 202.411257 
L 244.303509 189.30338 
L 245.38931 189.524714 
L 246.475111 187.409747 
L 247.560912 184.778335 
L 248.646713 183.720851 
L 249.732514 187.090043 
L 250.818316 191.885607 
L 251.904117 190.360864 
L 252.989918 188.467231 
L 254.075719 189.844418 
L 255.16152 184.45863 
L 256.247321 187.581896 
L 257.333123 181.433736 
L 258.418924 185.073446 
L 259.504725 185.29478 
L 260.590526 202.780146 
L 261.676327 187.926193 
L 262.762128 186.426042 
L 263.847929 190.336271 
L 264.933731 178.482619 
L 266.019532 180.572994 
L 267.105333 185.639077 
L 268.191134 186.696561 
L 269.276935 181.605884 
L 270.362736 172.850905 
L 271.448538 184.876705 
L 272.534339 185.565299 
L 273.62014 180.523808 
L 274.705941 187.729451 
L 275.791742 185.66367 
L 276.877543 180.671364 
L 277.963344 180.204104 
L 279.049146 181.409143 
L 280.134947 193.21361 
L 281.220748 186.253893 
L 282.306549 176.613579 
L 283.39235 194.197315 
L 284.478151 177.179209 
L 285.563953 182.417441 
L 286.649754 176.761135 
L 287.735555 177.498914 
L 288.821356 180.031955 
L 289.907157 185.393151 
L 290.992958 175.064242 
L 292.07876 185.958781 
L 293.164561 180.179511 
L 294.250362 181.556699 
L 295.336163 176.884098 
L 296.421964 175.359354 
L 297.507765 181.212402 
L 298.593566 189.082047 
L 299.679368 174.621575 
L 300.765169 174.744538 
L 301.85097 177.843211 
L 302.936771 176.44143 
L 304.022572 174.646168 
L 305.108373 184.311075 
L 306.194175 180.400845 
L 307.279976 184.778335 
L 308.365777 167.145413 
L 309.451578 175.703651 
L 310.537379 175.13802 
L 311.62318 166.751931 
L 312.708981 171.203198 
L 313.794783 172.949276 
L 314.880584 173.687055 
L 315.966385 165.620669 
L 317.052186 173.687055 
L 318.137987 166.702745 
L 319.223788 166.506004 
L 320.30959 168.079933 
L 321.395391 167.194598 
L 322.481192 172.482015 
L 323.566993 181.335365 
L 324.652794 160.751327 
L 325.738595 159.275768 
L 326.824396 164.268074 
L 327.910198 162.325256 
L 328.995999 167.047042 
L 330.0818 162.964664 
L 331.167601 164.636964 
L 332.253402 166.038744 
L 333.339203 166.1863 
L 334.425005 167.907785 
L 335.510806 167.440524 
L 336.596607 164.04674 
L 337.682408 166.678153 
L 338.768209 164.095926 
L 339.85401 162.472811 
L 340.939811 154.111314 
L 342.025613 160.087326 
L 343.111414 156.570578 
L 344.197215 159.005249 
L 345.283016 159.177398 
L 346.368817 160.579178 
L 347.454618 158.095322 
L 348.54042 158.562582 
L 349.626221 163.554888 
L 350.712022 156.693541 
L 352.883624 155.291761 
L 353.969425 156.988653 
L 355.055227 157.923173 
L 356.141028 154.72613 
L 357.226829 155.783614 
L 358.31263 152.463608 
L 359.398431 148.627156 
L 360.484232 150.447011 
L 361.570033 151.65205 
L 362.655835 149.807603 
L 363.741636 150.963457 
L 364.827437 147.889377 
L 365.913238 146.659745 
L 366.999039 152.070125 
L 368.08484 150.766715 
L 369.170642 150.815901 
L 370.256443 155.685243 
L 372.428045 156.939468 
L 373.513846 153.889981 
L 374.599647 157.849395 
L 375.685448 157.455913 
L 376.77125 162.571182 
L 377.857051 165.571484 
L 378.942852 157.259172 
L 380.028653 156.914875 
L 381.114454 150.545382 
L 382.200255 161.489106 
L 383.286057 162.448219 
L 384.371858 158.218285 
L 385.457659 162.767923 
L 386.54346 158.63636 
L 387.629261 162.374441 
L 388.715062 156.693541 
L 389.800863 154.012944 
L 390.886665 160.677549 
L 391.972466 157.406728 
L 393.058267 160.898883 
L 394.144068 156.521393 
L 395.229869 157.087024 
L 396.31567 164.932075 
L 397.401472 157.628062 
L 398.487273 158.808508 
L 398.487273 158.808508 
" clip-path="url(#p0b24d882f0)" style="fill: none; stroke: #2ca02c; stroke-width: 1.5; stroke-linecap: square"/>
   </g>
   <g id="line2d_21">
    <path d="M 368.08484 54.887395 
L 369.170642 58.524646 
L 370.256443 59.38047 
L 371.342244 60.913821 
L 372.428045 65.406896 
L 374.599647 59.237833 
L 375.685448 62.090579 
L 376.77125 62.05492 
L 377.857051 63.695249 
L 378.942852 66.940247 
L 380.028653 62.839425 
L 381.114454 61.983601 
L 382.200255 62.126238 
L 384.371858 68.223983 
L 385.457659 68.794532 
L 386.54346 66.904588 
L 387.629261 68.723214 
L 388.715062 68.188324 
L 389.800863 68.687554 
L 390.886665 68.330961 
L 391.972466 62.839425 
L 393.058267 72.289146 
L 394.144068 78.493869 
L 395.229869 70.113927 
L 396.31567 74.321728 
L 397.401472 74.71398 
L 398.487273 72.931014 
L 398.487273 72.931014 
" clip-path="url(#p0b24d882f0)" style="fill: none; stroke: #d62728; stroke-width: 1.5; stroke-linecap: square"/>
   </g>
   <g id="line2d_22">
    <path d="M 368.08484 151.55368 
L 369.170642 161.046438 
L 370.256443 152.906275 
L 371.342244 158.660952 
L 372.428045 161.735032 
L 373.513846 154.996649 
L 374.599647 152.660349 
L 375.685448 152.611163 
L 376.77125 149.660047 
L 377.857051 161.439921 
L 378.942852 158.611767 
M 381.114454 162.915479 
L 382.200255 160.308659 
L 383.286057 165.792818 
L 384.371858 161.439921 
L 385.457659 167.711044 
L 386.54346 169.284972 
L 387.629261 160.5054 
L 388.715062 162.694145 
L 389.800863 162.989257 
L 390.886665 167.366747 
L 391.972466 155.144205 
L 393.058267 161.538291 
L 394.144068 175.50691 
L 395.229869 162.989257 
L 396.31567 166.801116 
L 397.401472 160.136511 
L 398.487273 168.719342 
L 398.487273 168.719342 
" clip-path="url(#p0b24d882f0)" style="fill: none; stroke: #9467bd; stroke-width: 1.5; stroke-linecap: square"/>
   </g>
   <g id="patch_3">
    <path d="M 57.6 307.584 
L 57.6 41.472 
" style="fill: none; stroke: #000000; stroke-width: 0.8; stroke-linejoin: miter; stroke-linecap: square"/>
   </g>
   <g id="patch_4">
    <path d="M 414.72 307.584 
L 414.72 41.472 
" style="fill: none; stroke: #000000; stroke-width: 0.8; stroke-linejoin: miter; stroke-linecap: square"/>
   </g>
   <g id="patch_5">
    <path d="M 57.6 307.584 
L 414.72 307.584 
" style="fill: none; stroke: #000000; stroke-width: 0.8; stroke-linejoin: miter; stroke-linecap: square"/>
   </g>
   <g id="patch_6">
    <path d="M 57.6 41.472 
L 414.72 41.472 
" style="fill: none; stroke: #000000; stroke-width: 0.8; stroke-linejoin: miter; stroke-linecap: square"/>
   </g>
   <g id="text_20">
    <!-- Learning Curves -->
    <g transform="translate(187.37625 35.472) scale(0.12 -0.12)">
     <defs>
      <path id="DejaVuSans-4c" d="M 628 4666 
L 1259 4666 
L 1259 531 
L 3531 531 
L 3531 0 
L 628 0 
L 628 4666 
z
" transform="scale(0.015625)"/>
      <path id="DejaVuSans-65" d="M 3597 1894 
L 3597 1613 
L 953 1613 
Q 991 1019 1311 708 
Q 1631 397 2203 397 
Q 2534 397 2845 478 
Q 3156 559 3463 722 
L 3463 178 
Q 3153 47 2828 -22 
Q 2503 -91 2169 -91 
Q 1331 -91 842 396 
Q 353 884 353 1716 
Q 353 2575 817 3079 
Q 1281 3584 2069 3584 
Q 2775 3584 3186 3129 
Q 3597 2675 3597 1894 
z
M 3022 2063 
Q 3016 2534 2758 2815 
Q 2500 3097 2075 3097 
Q 1594 3097 1305 2825 
Q 1016 2553 972 2059 
L 3022 2063 
z
" transform="scale(0.015625)"/>
      <path id="DejaVuSans-6e" d="M 3513 2113 
L 3513 0 
L 2938 0 
L 2938 2094 
Q 2938 2591 2744 2837 
Q 2550 3084 2163 3084 
Q 1697 3084 1428 2787 
Q 1159 2491 1159 1978 
L 1159 0 
L 581 0 
L 581 3500 
L 1159 3500 
L 1159 2956 
Q 1366 3272 1645 3428 
Q 1925 3584 2291 3584 
Q 2894 3584 3203 3211 
Q 3513 2838 3513 2113 
z
" transform="scale(0.015625)"/>
      <path id="DejaVuSans-69" d="M 603 3500 
L 1178 3500 
L 1178 0 
L 603 0 
L 603 3500 
z
M 603 4863 
L 1178 4863 
L 1178 4134 
L 603 4134 
L 603 4863 
z
" transform="scale(0.015625)"/>
      <path id="DejaVuSans-67" d="M 2906 1791 
Q 2906 2416 2648 2759 
Q 2391 3103 1925 3103 
Q 1463 3103 1205 2759 
Q 947 2416 947 1791 
Q 947 1169 1205 825 
Q 1463 481 1925 481 
Q 2391 481 2648 825 
Q 2906 1169 2906 1791 
z
M 3481 434 
Q 3481 -459 3084 -895 
Q 2688 -1331 1869 -1331 
Q 1566 -1331 1297 -1286 
Q 1028 -1241 775 -1147 
L 775 -588 
Q 1028 -725 1275 -790 
Q 1522 -856 1778 -856 
Q 2344 -856 2625 -561 
Q 2906 -266 2906 331 
L 2906 616 
Q 2728 306 2450 153 
Q 2172 0 1784 0 
Q 1141 0 747 490 
Q 353 981 353 1791 
Q 353 2603 747 3093 
Q 1141 3584 1784 3584 
Q 2172 3584 2450 3431 
Q 2728 3278 2906 2969 
L 2906 3500 
L 3481 3500 
L 3481 434 
z
" transform="scale(0.015625)"/>
      <path id="DejaVuSans-20" transform="scale(0.015625)"/>
      <path id="DejaVuSans-43" d="M 4122 4306 
L 4122 3641 
Q 3803 3938 3442 4084 
Q 3081 4231 2675 4231 
Q 1875 4231 1450 3742 
Q 1025 3253 1025 2328 
Q 1025 1406 1450 917 
Q 1875 428 2675 428 
Q 3081 428 3442 575 
Q 3803 722 4122 1019 
L 4122 359 
Q 3791 134 3420 21 
Q 3050 -91 2638 -91 
Q 1578 -91 968 557 
Q 359 1206 359 2328 
Q 359 3453 968 4101 
Q 1578 4750 2638 4750 
Q 3056 4750 3426 4639 
Q 3797 4528 4122 4306 
z
" transform="scale(0.015625)"/>
      <path id="DejaVuSans-76" d="M 191 3500 
L 800 3500 
L 1894 563 
L 2988 3500 
L 3597 3500 
L 2284 0 
L 1503 0 
L 191 3500 
z
" transform="scale(0.015625)"/>
     </defs>
     <use xlink:href="#DejaVuSans-4c"/>
     <use xlink:href="#DejaVuSans-65" x="53.962891"/>
     <use xlink:href="#DejaVuSans-61" x="115.486328"/>
     <use xlink:href="#DejaVuSans-72" x="176.765625"/>
     <use xlink:href="#DejaVuSans-6e" x="216.128906"/>
     <use xlink:href="#DejaVuSans-69" x="279.507812"/>
     <use xlink:href="#DejaVuSans-6e" x="307.291016"/>
     <use xlink:href="#DejaVuSans-67" x="370.669922"/>
     <use xlink:href="#DejaVuSans-20" x="434.146484"/>
     <use xlink:href="#DejaVuSans-43" x="465.933594"/>
     <use xlink:href="#DejaVuSans-75" x="535.757812"/>
     <use xlink:href="#DejaVuSans-72" x="599.136719"/>
     <use xlink:href="#DejaVuSans-76" x="640.25"/>
     <use xlink:href="#DejaVuSans-65" x="699.429688"/>
     <use xlink:href="#DejaVuSans-73" x="760.953125"/>
    </g>
   </g>
   <g id="legend_1">
    <g id="patch_7">
     <path d="M 214.18875 302.584 
L 407.72 302.584 
Q 409.72 302.584 409.72 300.584 
L 409.72 228.193375 
Q 409.72 226.193375 407.72 226.193375 
L 214.18875 226.193375 
Q 212.18875 226.193375 212.18875 228.193375 
L 212.18875 300.584 
Q 212.18875 302.584 214.18875 302.584 
z
" style="fill: #ffffff; opacity: 0.8; stroke: #cccccc; stroke-linejoin: miter"/>
    </g>
    <g id="line2d_23">
     <path d="M 216.18875 234.291812 
L 226.18875 234.291812 
L 236.18875 234.291812 
" style="fill: none; stroke: #1f77b4; stroke-width: 1.5; stroke-linecap: square"/>
    </g>
    <g id="text_21">
     <!-- Train Accuracy -->
     <g transform="translate(244.18875 237.791812) scale(0.1 -0.1)">
      <defs>
       <path id="DejaVuSans-54" d="M -19 4666 
L 3928 4666 
L 3928 4134 
L 2272 4134 
L 2272 0 
L 1638 0 
L 1638 4134 
L -19 4134 
L -19 4666 
z
" transform="scale(0.015625)"/>
      </defs>
      <use xlink:href="#DejaVuSans-54"/>
      <use xlink:href="#DejaVuSans-72" x="46.333984"/>
      <use xlink:href="#DejaVuSans-61" x="87.447266"/>
      <use xlink:href="#DejaVuSans-69" x="148.726562"/>
      <use xlink:href="#DejaVuSans-6e" x="176.509766"/>
      <use xlink:href="#DejaVuSans-20" x="239.888672"/>
      <use xlink:href="#DejaVuSans-41" x="271.675781"/>
      <use xlink:href="#DejaVuSans-63" x="338.333984"/>
      <use xlink:href="#DejaVuSans-63" x="393.314453"/>
      <use xlink:href="#DejaVuSans-75" x="448.294922"/>
      <use xlink:href="#DejaVuSans-72" x="511.673828"/>
      <use xlink:href="#DejaVuSans-61" x="552.787109"/>
      <use xlink:href="#DejaVuSans-63" x="614.066406"/>
      <use xlink:href="#DejaVuSans-79" x="669.046875"/>
     </g>
    </g>
    <g id="line2d_24">
     <path d="M 216.18875 248.969937 
L 226.18875 248.969937 
L 236.18875 248.969937 
" style="fill: none; stroke: #ff7f0e; stroke-width: 1.5; stroke-linecap: square"/>
    </g>
    <g id="text_22">
     <!-- Validation Accuracy -->
     <g transform="translate(244.18875 252.469937) scale(0.1 -0.1)">
      <defs>
       <path id="DejaVuSans-56" d="M 1831 0 
L 50 4666 
L 709 4666 
L 2188 738 
L 3669 4666 
L 4325 4666 
L 2547 0 
L 1831 0 
z
" transform="scale(0.015625)"/>
       <path id="DejaVuSans-6c" d="M 603 4863 
L 1178 4863 
L 1178 0 
L 603 0 
L 603 4863 
z
" transform="scale(0.015625)"/>
       <path id="DejaVuSans-64" d="M 2906 2969 
L 2906 4863 
L 3481 4863 
L 3481 0 
L 2906 0 
L 2906 525 
Q 2725 213 2448 61 
Q 2172 -91 1784 -91 
Q 1150 -91 751 415 
Q 353 922 353 1747 
Q 353 2572 751 3078 
Q 1150 3584 1784 3584 
Q 2172 3584 2448 3432 
Q 2725 3281 2906 2969 
z
M 947 1747 
Q 947 1113 1208 752 
Q 1469 391 1925 391 
Q 2381 391 2643 752 
Q 2906 1113 2906 1747 
Q 2906 2381 2643 2742 
Q 2381 3103 1925 3103 
Q 1469 3103 1208 2742 
Q 947 2381 947 1747 
z
" transform="scale(0.015625)"/>
       <path id="DejaVuSans-74" d="M 1172 4494 
L 1172 3500 
L 2356 3500 
L 2356 3053 
L 1172 3053 
L 1172 1153 
Q 1172 725 1289 603 
Q 1406 481 1766 481 
L 2356 481 
L 2356 0 
L 1766 0 
Q 1100 0 847 248 
Q 594 497 594 1153 
L 594 3053 
L 172 3053 
L 172 3500 
L 594 3500 
L 594 4494 
L 1172 4494 
z
" transform="scale(0.015625)"/>
      </defs>
      <use xlink:href="#DejaVuSans-56"/>
      <use xlink:href="#DejaVuSans-61" x="60.658203"/>
      <use xlink:href="#DejaVuSans-6c" x="121.9375"/>
      <use xlink:href="#DejaVuSans-69" x="149.720703"/>
      <use xlink:href="#DejaVuSans-64" x="177.503906"/>
      <use xlink:href="#DejaVuSans-61" x="240.980469"/>
      <use xlink:href="#DejaVuSans-74" x="302.259766"/>
      <use xlink:href="#DejaVuSans-69" x="341.46875"/>
      <use xlink:href="#DejaVuSans-6f" x="369.251953"/>
      <use xlink:href="#DejaVuSans-6e" x="430.433594"/>
      <use xlink:href="#DejaVuSans-20" x="493.8125"/>
      <use xlink:href="#DejaVuSans-41" x="525.599609"/>
      <use xlink:href="#DejaVuSans-63" x="592.257812"/>
      <use xlink:href="#DejaVuSans-63" x="647.238281"/>
      <use xlink:href="#DejaVuSans-75" x="702.21875"/>
      <use xlink:href="#DejaVuSans-72" x="765.597656"/>
      <use xlink:href="#DejaVuSans-61" x="806.710938"/>
      <use xlink:href="#DejaVuSans-63" x="867.990234"/>
      <use xlink:href="#DejaVuSans-79" x="922.970703"/>
     </g>
    </g>
    <g id="line2d_25">
     <path d="M 216.18875 263.648062 
L 226.18875 263.648062 
L 236.18875 263.648062 
" style="fill: none; stroke: #2ca02c; stroke-width: 1.5; stroke-linecap: square"/>
    </g>
    <g id="text_23">
     <!-- Robust Validation Accuracy -->
     <g transform="translate(244.18875 267.148062) scale(0.1 -0.1)">
      <defs>
       <path id="DejaVuSans-52" d="M 2841 2188 
Q 3044 2119 3236 1894 
Q 3428 1669 3622 1275 
L 4263 0 
L 3584 0 
L 2988 1197 
Q 2756 1666 2539 1819 
Q 2322 1972 1947 1972 
L 1259 1972 
L 1259 0 
L 628 0 
L 628 4666 
L 2053 4666 
Q 2853 4666 3247 4331 
Q 3641 3997 3641 3322 
Q 3641 2881 3436 2590 
Q 3231 2300 2841 2188 
z
M 1259 4147 
L 1259 2491 
L 2053 2491 
Q 2509 2491 2742 2702 
Q 2975 2913 2975 3322 
Q 2975 3731 2742 3939 
Q 2509 4147 2053 4147 
L 1259 4147 
z
" transform="scale(0.015625)"/>
       <path id="DejaVuSans-62" d="M 3116 1747 
Q 3116 2381 2855 2742 
Q 2594 3103 2138 3103 
Q 1681 3103 1420 2742 
Q 1159 2381 1159 1747 
Q 1159 1113 1420 752 
Q 1681 391 2138 391 
Q 2594 391 2855 752 
Q 3116 1113 3116 1747 
z
M 1159 2969 
Q 1341 3281 1617 3432 
Q 1894 3584 2278 3584 
Q 2916 3584 3314 3078 
Q 3713 2572 3713 1747 
Q 3713 922 3314 415 
Q 2916 -91 2278 -91 
Q 1894 -91 1617 61 
Q 1341 213 1159 525 
L 1159 0 
L 581 0 
L 581 4863 
L 1159 4863 
L 1159 2969 
z
" transform="scale(0.015625)"/>
      </defs>
      <use xlink:href="#DejaVuSans-52"/>
      <use xlink:href="#DejaVuSans-6f" x="64.982422"/>
      <use xlink:href="#DejaVuSans-62" x="126.164062"/>
      <use xlink:href="#DejaVuSans-75" x="189.640625"/>
      <use xlink:href="#DejaVuSans-73" x="253.019531"/>
      <use xlink:href="#DejaVuSans-74" x="305.119141"/>
      <use xlink:href="#DejaVuSans-20" x="344.328125"/>
      <use xlink:href="#DejaVuSans-56" x="376.115234"/>
      <use xlink:href="#DejaVuSans-61" x="436.773438"/>
      <use xlink:href="#DejaVuSans-6c" x="498.052734"/>
      <use xlink:href="#DejaVuSans-69" x="525.835938"/>
      <use xlink:href="#DejaVuSans-64" x="553.619141"/>
      <use xlink:href="#DejaVuSans-61" x="617.095703"/>
      <use xlink:href="#DejaVuSans-74" x="678.375"/>
      <use xlink:href="#DejaVuSans-69" x="717.583984"/>
      <use xlink:href="#DejaVuSans-6f" x="745.367188"/>
      <use xlink:href="#DejaVuSans-6e" x="806.548828"/>
      <use xlink:href="#DejaVuSans-20" x="869.927734"/>
      <use xlink:href="#DejaVuSans-41" x="901.714844"/>
      <use xlink:href="#DejaVuSans-63" x="968.373047"/>
      <use xlink:href="#DejaVuSans-63" x="1023.353516"/>
      <use xlink:href="#DejaVuSans-75" x="1078.333984"/>
      <use xlink:href="#DejaVuSans-72" x="1141.712891"/>
      <use xlink:href="#DejaVuSans-61" x="1182.826172"/>
      <use xlink:href="#DejaVuSans-63" x="1244.105469"/>
      <use xlink:href="#DejaVuSans-79" x="1299.085938"/>
     </g>
    </g>
    <g id="line2d_26">
     <path d="M 216.18875 278.326188 
L 226.18875 278.326188 
L 236.18875 278.326188 
" style="fill: none; stroke: #d62728; stroke-width: 1.5; stroke-linecap: square"/>
    </g>
    <g id="text_24">
     <!-- SWA Validation Accuracy -->
     <g transform="translate(244.18875 281.826188) scale(0.1 -0.1)">
      <defs>
       <path id="DejaVuSans-53" d="M 3425 4513 
L 3425 3897 
Q 3066 4069 2747 4153 
Q 2428 4238 2131 4238 
Q 1616 4238 1336 4038 
Q 1056 3838 1056 3469 
Q 1056 3159 1242 3001 
Q 1428 2844 1947 2747 
L 2328 2669 
Q 3034 2534 3370 2195 
Q 3706 1856 3706 1288 
Q 3706 609 3251 259 
Q 2797 -91 1919 -91 
Q 1588 -91 1214 -16 
Q 841 59 441 206 
L 441 856 
Q 825 641 1194 531 
Q 1563 422 1919 422 
Q 2459 422 2753 634 
Q 3047 847 3047 1241 
Q 3047 1584 2836 1778 
Q 2625 1972 2144 2069 
L 1759 2144 
Q 1053 2284 737 2584 
Q 422 2884 422 3419 
Q 422 4038 858 4394 
Q 1294 4750 2059 4750 
Q 2388 4750 2728 4690 
Q 3069 4631 3425 4513 
z
" transform="scale(0.015625)"/>
       <path id="DejaVuSans-57" d="M 213 4666 
L 850 4666 
L 1831 722 
L 2809 4666 
L 3519 4666 
L 4500 722 
L 5478 4666 
L 6119 4666 
L 4947 0 
L 4153 0 
L 3169 4050 
L 2175 0 
L 1381 0 
L 213 4666 
z
" transform="scale(0.015625)"/>
      </defs>
      <use xlink:href="#DejaVuSans-53"/>
      <use xlink:href="#DejaVuSans-57" x="63.476562"/>
      <use xlink:href="#DejaVuSans-41" x="156.853516"/>
      <use xlink:href="#DejaVuSans-20" x="225.261719"/>
      <use xlink:href="#DejaVuSans-56" x="257.048828"/>
      <use xlink:href="#DejaVuSans-61" x="317.707031"/>
      <use xlink:href="#DejaVuSans-6c" x="378.986328"/>
      <use xlink:href="#DejaVuSans-69" x="406.769531"/>
      <use xlink:href="#DejaVuSans-64" x="434.552734"/>
      <use xlink:href="#DejaVuSans-61" x="498.029297"/>
      <use xlink:href="#DejaVuSans-74" x="559.308594"/>
      <use xlink:href="#DejaVuSans-69" x="598.517578"/>
      <use xlink:href="#DejaVuSans-6f" x="626.300781"/>
      <use xlink:href="#DejaVuSans-6e" x="687.482422"/>
      <use xlink:href="#DejaVuSans-20" x="750.861328"/>
      <use xlink:href="#DejaVuSans-41" x="782.648438"/>
      <use xlink:href="#DejaVuSans-63" x="849.306641"/>
      <use xlink:href="#DejaVuSans-63" x="904.287109"/>
      <use xlink:href="#DejaVuSans-75" x="959.267578"/>
      <use xlink:href="#DejaVuSans-72" x="1022.646484"/>
      <use xlink:href="#DejaVuSans-61" x="1063.759766"/>
      <use xlink:href="#DejaVuSans-63" x="1125.039062"/>
      <use xlink:href="#DejaVuSans-79" x="1180.019531"/>
     </g>
    </g>
    <g id="line2d_27">
     <path d="M 216.18875 293.004312 
L 226.18875 293.004312 
L 236.18875 293.004312 
" style="fill: none; stroke: #9467bd; stroke-width: 1.5; stroke-linecap: square"/>
    </g>
    <g id="text_25">
     <!-- SWA Robust Validation Accuracy -->
     <g transform="translate(244.18875 296.504312) scale(0.1 -0.1)">
      <use xlink:href="#DejaVuSans-53"/>
      <use xlink:href="#DejaVuSans-57" x="63.476562"/>
      <use xlink:href="#DejaVuSans-41" x="156.853516"/>
      <use xlink:href="#DejaVuSans-20" x="225.261719"/>
      <use xlink:href="#DejaVuSans-52" x="257.048828"/>
      <use xlink:href="#DejaVuSans-6f" x="322.03125"/>
      <use xlink:href="#DejaVuSans-62" x="383.212891"/>
      <use xlink:href="#DejaVuSans-75" x="446.689453"/>
      <use xlink:href="#DejaVuSans-73" x="510.068359"/>
      <use xlink:href="#DejaVuSans-74" x="562.167969"/>
      <use xlink:href="#DejaVuSans-20" x="601.376953"/>
      <use xlink:href="#DejaVuSans-56" x="633.164062"/>
      <use xlink:href="#DejaVuSans-61" x="693.822266"/>
      <use xlink:href="#DejaVuSans-6c" x="755.101562"/>
      <use xlink:href="#DejaVuSans-69" x="782.884766"/>
      <use xlink:href="#DejaVuSans-64" x="810.667969"/>
      <use xlink:href="#DejaVuSans-61" x="874.144531"/>
      <use xlink:href="#DejaVuSans-74" x="935.423828"/>
      <use xlink:href="#DejaVuSans-69" x="974.632812"/>
      <use xlink:href="#DejaVuSans-6f" x="1002.416016"/>
      <use xlink:href="#DejaVuSans-6e" x="1063.597656"/>
      <use xlink:href="#DejaVuSans-20" x="1126.976562"/>
      <use xlink:href="#DejaVuSans-41" x="1158.763672"/>
      <use xlink:href="#DejaVuSans-63" x="1225.421875"/>
      <use xlink:href="#DejaVuSans-63" x="1280.402344"/>
      <use xlink:href="#DejaVuSans-75" x="1335.382812"/>
      <use xlink:href="#DejaVuSans-72" x="1398.761719"/>
      <use xlink:href="#DejaVuSans-61" x="1439.875"/>
      <use xlink:href="#DejaVuSans-63" x="1501.154297"/>
      <use xlink:href="#DejaVuSans-79" x="1556.134766"/>
     </g>
    </g>
   </g>
  </g>
 </g>
 <defs>
  <clipPath id="p0b24d882f0">
   <rect x="57.6" y="41.472" width="357.12" height="266.112"/>
  </clipPath>
 </defs>
</svg>
