<?xml version="1.0" encoding="utf-8" standalone="no"?>
<!DOCTYPE svg PUBLIC "-//W3C//DTD SVG 1.1//EN"
  "http://www.w3.org/Graphics/SVG/1.1/DTD/svg11.dtd">
<svg xmlns:xlink="http://www.w3.org/1999/xlink" width="460.8pt" height="345.6pt" viewBox="0 0 460.8 345.6" xmlns="http://www.w3.org/2000/svg" version="1.1">
 <metadata>
  <rdf:RDF xmlns:dc="http://purl.org/dc/elements/1.1/" xmlns:cc="http://creativecommons.org/ns#" xmlns:rdf="http://www.w3.org/1999/02/22-rdf-syntax-ns#">
   <cc:Work>
    <dc:type rdf:resource="http://purl.org/dc/dcmitype/StillImage"/>
    <dc:date>2025-01-13T23:34:12.241565</dc:date>
    <dc:format>image/svg+xml</dc:format>
    <dc:creator>
     <cc:Agent>
      <dc:title>Matplotlib v3.9.1, https://matplotlib.org/</dc:title>
     </cc:Agent>
    </dc:creator>
   </cc:Work>
  </rdf:RDF>
 </metadata>
 <defs>
  <style type="text/css">*{stroke-linejoin: round; stroke-linecap: butt}</style>
 </defs>
 <g id="figure_1">
  <g id="patch_1">
   <path d="M 0 345.6 
L 460.8 345.6 
L 460.8 0 
L 0 0 
z
" style="fill: #ffffff"/>
  </g>
  <g id="axes_1">
   <g id="patch_2">
    <path d="M 57.6 307.584 
L 414.72 307.584 
L 414.72 41.472 
L 57.6 41.472 
z
" style="fill: #ffffff"/>
   </g>
   <g id="matplotlib.axis_1">
    <g id="xtick_1">
     <g id="line2d_1">
      <defs>
       <path id="m0f704f6824" d="M 0 0 
L 0 3.5 
" style="stroke: #000000; stroke-width: 0.8"/>
      </defs>
      <g>
       <use xlink:href="#m0f704f6824" x="73.832727" y="307.584" style="stroke: #000000; stroke-width: 0.8"/>
      </g>
     </g>
     <g id="text_1">
      <!-- 1 -->
      <g transform="translate(70.651477 322.182437) scale(0.1 -0.1)">
       <defs>
        <path id="DejaVuSans-31" d="M 794 531 
L 1825 531 
L 1825 4091 
L 703 3866 
L 703 4441 
L 1819 4666 
L 2450 4666 
L 2450 531 
L 3481 531 
L 3481 0 
L 794 0 
L 794 531 
z
" transform="scale(0.015625)"/>
       </defs>
       <use xlink:href="#DejaVuSans-31"/>
      </g>
     </g>
    </g>
    <g id="xtick_2">
     <g id="line2d_2">
      <g>
       <use xlink:href="#m0f704f6824" x="109.664165" y="307.584" style="stroke: #000000; stroke-width: 0.8"/>
      </g>
     </g>
     <g id="text_2">
      <!-- 34 -->
      <g transform="translate(103.301665 322.182437) scale(0.1 -0.1)">
       <defs>
        <path id="DejaVuSans-33" d="M 2597 2516 
Q 3050 2419 3304 2112 
Q 3559 1806 3559 1356 
Q 3559 666 3084 287 
Q 2609 -91 1734 -91 
Q 1441 -91 1130 -33 
Q 819 25 488 141 
L 488 750 
Q 750 597 1062 519 
Q 1375 441 1716 441 
Q 2309 441 2620 675 
Q 2931 909 2931 1356 
Q 2931 1769 2642 2001 
Q 2353 2234 1838 2234 
L 1294 2234 
L 1294 2753 
L 1863 2753 
Q 2328 2753 2575 2939 
Q 2822 3125 2822 3475 
Q 2822 3834 2567 4026 
Q 2313 4219 1838 4219 
Q 1578 4219 1281 4162 
Q 984 4106 628 3988 
L 628 4550 
Q 988 4650 1302 4700 
Q 1616 4750 1894 4750 
Q 2613 4750 3031 4423 
Q 3450 4097 3450 3541 
Q 3450 3153 3228 2886 
Q 3006 2619 2597 2516 
z
" transform="scale(0.015625)"/>
        <path id="DejaVuSans-34" d="M 2419 4116 
L 825 1625 
L 2419 1625 
L 2419 4116 
z
M 2253 4666 
L 3047 4666 
L 3047 1625 
L 3713 1625 
L 3713 1100 
L 3047 1100 
L 3047 0 
L 2419 0 
L 2419 1100 
L 313 1100 
L 313 1709 
L 2253 4666 
z
" transform="scale(0.015625)"/>
       </defs>
       <use xlink:href="#DejaVuSans-33"/>
       <use xlink:href="#DejaVuSans-34" x="63.623047"/>
      </g>
     </g>
    </g>
    <g id="xtick_3">
     <g id="line2d_3">
      <g>
       <use xlink:href="#m0f704f6824" x="145.495604" y="307.584" style="stroke: #000000; stroke-width: 0.8"/>
      </g>
     </g>
     <g id="text_3">
      <!-- 67 -->
      <g transform="translate(139.133104 322.182437) scale(0.1 -0.1)">
       <defs>
        <path id="DejaVuSans-36" d="M 2113 2584 
Q 1688 2584 1439 2293 
Q 1191 2003 1191 1497 
Q 1191 994 1439 701 
Q 1688 409 2113 409 
Q 2538 409 2786 701 
Q 3034 994 3034 1497 
Q 3034 2003 2786 2293 
Q 2538 2584 2113 2584 
z
M 3366 4563 
L 3366 3988 
Q 3128 4100 2886 4159 
Q 2644 4219 2406 4219 
Q 1781 4219 1451 3797 
Q 1122 3375 1075 2522 
Q 1259 2794 1537 2939 
Q 1816 3084 2150 3084 
Q 2853 3084 3261 2657 
Q 3669 2231 3669 1497 
Q 3669 778 3244 343 
Q 2819 -91 2113 -91 
Q 1303 -91 875 529 
Q 447 1150 447 2328 
Q 447 3434 972 4092 
Q 1497 4750 2381 4750 
Q 2619 4750 2861 4703 
Q 3103 4656 3366 4563 
z
" transform="scale(0.015625)"/>
        <path id="DejaVuSans-37" d="M 525 4666 
L 3525 4666 
L 3525 4397 
L 1831 0 
L 1172 0 
L 2766 4134 
L 525 4134 
L 525 4666 
z
" transform="scale(0.015625)"/>
       </defs>
       <use xlink:href="#DejaVuSans-36"/>
       <use xlink:href="#DejaVuSans-37" x="63.623047"/>
      </g>
     </g>
    </g>
    <g id="xtick_4">
     <g id="line2d_4">
      <g>
       <use xlink:href="#m0f704f6824" x="181.327042" y="307.584" style="stroke: #000000; stroke-width: 0.8"/>
      </g>
     </g>
     <g id="text_4">
      <!-- 100 -->
      <g transform="translate(171.783292 322.182437) scale(0.1 -0.1)">
       <defs>
        <path id="DejaVuSans-30" d="M 2034 4250 
Q 1547 4250 1301 3770 
Q 1056 3291 1056 2328 
Q 1056 1369 1301 889 
Q 1547 409 2034 409 
Q 2525 409 2770 889 
Q 3016 1369 3016 2328 
Q 3016 3291 2770 3770 
Q 2525 4250 2034 4250 
z
M 2034 4750 
Q 2819 4750 3233 4129 
Q 3647 3509 3647 2328 
Q 3647 1150 3233 529 
Q 2819 -91 2034 -91 
Q 1250 -91 836 529 
Q 422 1150 422 2328 
Q 422 3509 836 4129 
Q 1250 4750 2034 4750 
z
" transform="scale(0.015625)"/>
       </defs>
       <use xlink:href="#DejaVuSans-31"/>
       <use xlink:href="#DejaVuSans-30" x="63.623047"/>
       <use xlink:href="#DejaVuSans-30" x="127.246094"/>
      </g>
     </g>
    </g>
    <g id="xtick_5">
     <g id="line2d_5">
      <g>
       <use xlink:href="#m0f704f6824" x="217.15848" y="307.584" style="stroke: #000000; stroke-width: 0.8"/>
      </g>
     </g>
     <g id="text_5">
      <!-- 133 -->
      <g transform="translate(207.61473 322.182437) scale(0.1 -0.1)">
       <use xlink:href="#DejaVuSans-31"/>
       <use xlink:href="#DejaVuSans-33" x="63.623047"/>
       <use xlink:href="#DejaVuSans-33" x="127.246094"/>
      </g>
     </g>
    </g>
    <g id="xtick_6">
     <g id="line2d_6">
      <g>
       <use xlink:href="#m0f704f6824" x="254.075719" y="307.584" style="stroke: #000000; stroke-width: 0.8"/>
      </g>
     </g>
     <g id="text_6">
      <!-- 167 -->
      <g transform="translate(244.531969 322.182437) scale(0.1 -0.1)">
       <use xlink:href="#DejaVuSans-31"/>
       <use xlink:href="#DejaVuSans-36" x="63.623047"/>
       <use xlink:href="#DejaVuSans-37" x="127.246094"/>
      </g>
     </g>
    </g>
    <g id="xtick_7">
     <g id="line2d_7">
      <g>
       <use xlink:href="#m0f704f6824" x="289.907157" y="307.584" style="stroke: #000000; stroke-width: 0.8"/>
      </g>
     </g>
     <g id="text_7">
      <!-- 200 -->
      <g transform="translate(280.363407 322.182437) scale(0.1 -0.1)">
       <defs>
        <path id="DejaVuSans-32" d="M 1228 531 
L 3431 531 
L 3431 0 
L 469 0 
L 469 531 
Q 828 903 1448 1529 
Q 2069 2156 2228 2338 
Q 2531 2678 2651 2914 
Q 2772 3150 2772 3378 
Q 2772 3750 2511 3984 
Q 2250 4219 1831 4219 
Q 1534 4219 1204 4116 
Q 875 4013 500 3803 
L 500 4441 
Q 881 4594 1212 4672 
Q 1544 4750 1819 4750 
Q 2544 4750 2975 4387 
Q 3406 4025 3406 3419 
Q 3406 3131 3298 2873 
Q 3191 2616 2906 2266 
Q 2828 2175 2409 1742 
Q 1991 1309 1228 531 
z
" transform="scale(0.015625)"/>
       </defs>
       <use xlink:href="#DejaVuSans-32"/>
       <use xlink:href="#DejaVuSans-30" x="63.623047"/>
       <use xlink:href="#DejaVuSans-30" x="127.246094"/>
      </g>
     </g>
    </g>
    <g id="xtick_8">
     <g id="line2d_8">
      <g>
       <use xlink:href="#m0f704f6824" x="325.738595" y="307.584" style="stroke: #000000; stroke-width: 0.8"/>
      </g>
     </g>
     <g id="text_8">
      <!-- 233 -->
      <g transform="translate(316.194845 322.182437) scale(0.1 -0.1)">
       <use xlink:href="#DejaVuSans-32"/>
       <use xlink:href="#DejaVuSans-33" x="63.623047"/>
       <use xlink:href="#DejaVuSans-33" x="127.246094"/>
      </g>
     </g>
    </g>
    <g id="xtick_9">
     <g id="line2d_9">
      <g>
       <use xlink:href="#m0f704f6824" x="361.570033" y="307.584" style="stroke: #000000; stroke-width: 0.8"/>
      </g>
     </g>
     <g id="text_9">
      <!-- 266 -->
      <g transform="translate(352.026283 322.182437) scale(0.1 -0.1)">
       <use xlink:href="#DejaVuSans-32"/>
       <use xlink:href="#DejaVuSans-36" x="63.623047"/>
       <use xlink:href="#DejaVuSans-36" x="127.246094"/>
      </g>
     </g>
    </g>
    <g id="xtick_10">
     <g id="line2d_10">
      <g>
       <use xlink:href="#m0f704f6824" x="398.487273" y="307.584" style="stroke: #000000; stroke-width: 0.8"/>
      </g>
     </g>
     <g id="text_10">
      <!-- 300 -->
      <g transform="translate(388.943523 322.182437) scale(0.1 -0.1)">
       <use xlink:href="#DejaVuSans-33"/>
       <use xlink:href="#DejaVuSans-30" x="63.623047"/>
       <use xlink:href="#DejaVuSans-30" x="127.246094"/>
      </g>
     </g>
    </g>
    <g id="text_11">
     <!-- Epochs -->
     <g transform="translate(218.244375 335.860562) scale(0.1 -0.1)">
      <defs>
       <path id="DejaVuSans-45" d="M 628 4666 
L 3578 4666 
L 3578 4134 
L 1259 4134 
L 1259 2753 
L 3481 2753 
L 3481 2222 
L 1259 2222 
L 1259 531 
L 3634 531 
L 3634 0 
L 628 0 
L 628 4666 
z
" transform="scale(0.015625)"/>
       <path id="DejaVuSans-70" d="M 1159 525 
L 1159 -1331 
L 581 -1331 
L 581 3500 
L 1159 3500 
L 1159 2969 
Q 1341 3281 1617 3432 
Q 1894 3584 2278 3584 
Q 2916 3584 3314 3078 
Q 3713 2572 3713 1747 
Q 3713 922 3314 415 
Q 2916 -91 2278 -91 
Q 1894 -91 1617 61 
Q 1341 213 1159 525 
z
M 3116 1747 
Q 3116 2381 2855 2742 
Q 2594 3103 2138 3103 
Q 1681 3103 1420 2742 
Q 1159 2381 1159 1747 
Q 1159 1113 1420 752 
Q 1681 391 2138 391 
Q 2594 391 2855 752 
Q 3116 1113 3116 1747 
z
" transform="scale(0.015625)"/>
       <path id="DejaVuSans-6f" d="M 1959 3097 
Q 1497 3097 1228 2736 
Q 959 2375 959 1747 
Q 959 1119 1226 758 
Q 1494 397 1959 397 
Q 2419 397 2687 759 
Q 2956 1122 2956 1747 
Q 2956 2369 2687 2733 
Q 2419 3097 1959 3097 
z
M 1959 3584 
Q 2709 3584 3137 3096 
Q 3566 2609 3566 1747 
Q 3566 888 3137 398 
Q 2709 -91 1959 -91 
Q 1206 -91 779 398 
Q 353 888 353 1747 
Q 353 2609 779 3096 
Q 1206 3584 1959 3584 
z
" transform="scale(0.015625)"/>
       <path id="DejaVuSans-63" d="M 3122 3366 
L 3122 2828 
Q 2878 2963 2633 3030 
Q 2388 3097 2138 3097 
Q 1578 3097 1268 2742 
Q 959 2388 959 1747 
Q 959 1106 1268 751 
Q 1578 397 2138 397 
Q 2388 397 2633 464 
Q 2878 531 3122 666 
L 3122 134 
Q 2881 22 2623 -34 
Q 2366 -91 2075 -91 
Q 1284 -91 818 406 
Q 353 903 353 1747 
Q 353 2603 823 3093 
Q 1294 3584 2113 3584 
Q 2378 3584 2631 3529 
Q 2884 3475 3122 3366 
z
" transform="scale(0.015625)"/>
       <path id="DejaVuSans-68" d="M 3513 2113 
L 3513 0 
L 2938 0 
L 2938 2094 
Q 2938 2591 2744 2837 
Q 2550 3084 2163 3084 
Q 1697 3084 1428 2787 
Q 1159 2491 1159 1978 
L 1159 0 
L 581 0 
L 581 4863 
L 1159 4863 
L 1159 2956 
Q 1366 3272 1645 3428 
Q 1925 3584 2291 3584 
Q 2894 3584 3203 3211 
Q 3513 2838 3513 2113 
z
" transform="scale(0.015625)"/>
       <path id="DejaVuSans-73" d="M 2834 3397 
L 2834 2853 
Q 2591 2978 2328 3040 
Q 2066 3103 1784 3103 
Q 1356 3103 1142 2972 
Q 928 2841 928 2578 
Q 928 2378 1081 2264 
Q 1234 2150 1697 2047 
L 1894 2003 
Q 2506 1872 2764 1633 
Q 3022 1394 3022 966 
Q 3022 478 2636 193 
Q 2250 -91 1575 -91 
Q 1294 -91 989 -36 
Q 684 19 347 128 
L 347 722 
Q 666 556 975 473 
Q 1284 391 1588 391 
Q 1994 391 2212 530 
Q 2431 669 2431 922 
Q 2431 1156 2273 1281 
Q 2116 1406 1581 1522 
L 1381 1569 
Q 847 1681 609 1914 
Q 372 2147 372 2553 
Q 372 3047 722 3315 
Q 1072 3584 1716 3584 
Q 2034 3584 2315 3537 
Q 2597 3491 2834 3397 
z
" transform="scale(0.015625)"/>
      </defs>
      <use xlink:href="#DejaVuSans-45"/>
      <use xlink:href="#DejaVuSans-70" x="63.183594"/>
      <use xlink:href="#DejaVuSans-6f" x="126.660156"/>
      <use xlink:href="#DejaVuSans-63" x="187.841797"/>
      <use xlink:href="#DejaVuSans-68" x="242.822266"/>
      <use xlink:href="#DejaVuSans-73" x="306.201172"/>
     </g>
    </g>
   </g>
   <g id="matplotlib.axis_2">
    <g id="ytick_1">
     <g id="line2d_11">
      <defs>
       <path id="mcbc9be99a6" d="M 0 0 
L -3.5 0 
" style="stroke: #000000; stroke-width: 0.8"/>
      </defs>
      <g>
       <use xlink:href="#mcbc9be99a6" x="57.6" y="276.158563" style="stroke: #000000; stroke-width: 0.8"/>
      </g>
     </g>
     <g id="text_12">
      <!-- 10 -->
      <g transform="translate(37.875 279.957782) scale(0.1 -0.1)">
       <use xlink:href="#DejaVuSans-31"/>
       <use xlink:href="#DejaVuSans-30" x="63.623047"/>
      </g>
     </g>
    </g>
    <g id="ytick_2">
     <g id="line2d_12">
      <g>
       <use xlink:href="#mcbc9be99a6" x="57.6" y="240.590436" style="stroke: #000000; stroke-width: 0.8"/>
      </g>
     </g>
     <g id="text_13">
      <!-- 20 -->
      <g transform="translate(37.875 244.389655) scale(0.1 -0.1)">
       <use xlink:href="#DejaVuSans-32"/>
       <use xlink:href="#DejaVuSans-30" x="63.623047"/>
      </g>
     </g>
    </g>
    <g id="ytick_3">
     <g id="line2d_13">
      <g>
       <use xlink:href="#mcbc9be99a6" x="57.6" y="205.022309" style="stroke: #000000; stroke-width: 0.8"/>
      </g>
     </g>
     <g id="text_14">
      <!-- 30 -->
      <g transform="translate(37.875 208.821528) scale(0.1 -0.1)">
       <use xlink:href="#DejaVuSans-33"/>
       <use xlink:href="#DejaVuSans-30" x="63.623047"/>
      </g>
     </g>
    </g>
    <g id="ytick_4">
     <g id="line2d_14">
      <g>
       <use xlink:href="#mcbc9be99a6" x="57.6" y="169.454183" style="stroke: #000000; stroke-width: 0.8"/>
      </g>
     </g>
     <g id="text_15">
      <!-- 40 -->
      <g transform="translate(37.875 173.253401) scale(0.1 -0.1)">
       <use xlink:href="#DejaVuSans-34"/>
       <use xlink:href="#DejaVuSans-30" x="63.623047"/>
      </g>
     </g>
    </g>
    <g id="ytick_5">
     <g id="line2d_15">
      <g>
       <use xlink:href="#mcbc9be99a6" x="57.6" y="133.886056" style="stroke: #000000; stroke-width: 0.8"/>
      </g>
     </g>
     <g id="text_16">
      <!-- 50 -->
      <g transform="translate(37.875 137.685275) scale(0.1 -0.1)">
       <defs>
        <path id="DejaVuSans-35" d="M 691 4666 
L 3169 4666 
L 3169 4134 
L 1269 4134 
L 1269 2991 
Q 1406 3038 1543 3061 
Q 1681 3084 1819 3084 
Q 2600 3084 3056 2656 
Q 3513 2228 3513 1497 
Q 3513 744 3044 326 
Q 2575 -91 1722 -91 
Q 1428 -91 1123 -41 
Q 819 9 494 109 
L 494 744 
Q 775 591 1075 516 
Q 1375 441 1709 441 
Q 2250 441 2565 725 
Q 2881 1009 2881 1497 
Q 2881 1984 2565 2268 
Q 2250 2553 1709 2553 
Q 1456 2553 1204 2497 
Q 953 2441 691 2322 
L 691 4666 
z
" transform="scale(0.015625)"/>
       </defs>
       <use xlink:href="#DejaVuSans-35"/>
       <use xlink:href="#DejaVuSans-30" x="63.623047"/>
      </g>
     </g>
    </g>
    <g id="ytick_6">
     <g id="line2d_16">
      <g>
       <use xlink:href="#mcbc9be99a6" x="57.6" y="98.317929" style="stroke: #000000; stroke-width: 0.8"/>
      </g>
     </g>
     <g id="text_17">
      <!-- 60 -->
      <g transform="translate(37.875 102.117148) scale(0.1 -0.1)">
       <use xlink:href="#DejaVuSans-36"/>
       <use xlink:href="#DejaVuSans-30" x="63.623047"/>
      </g>
     </g>
    </g>
    <g id="ytick_7">
     <g id="line2d_17">
      <g>
       <use xlink:href="#mcbc9be99a6" x="57.6" y="62.749802" style="stroke: #000000; stroke-width: 0.8"/>
      </g>
     </g>
     <g id="text_18">
      <!-- 70 -->
      <g transform="translate(37.875 66.549021) scale(0.1 -0.1)">
       <use xlink:href="#DejaVuSans-37"/>
       <use xlink:href="#DejaVuSans-30" x="63.623047"/>
      </g>
     </g>
    </g>
    <g id="text_19">
     <!-- Accuracy -->
     <g transform="translate(31.795312 197.356125) rotate(-90) scale(0.1 -0.1)">
      <defs>
       <path id="DejaVuSans-41" d="M 2188 4044 
L 1331 1722 
L 3047 1722 
L 2188 4044 
z
M 1831 4666 
L 2547 4666 
L 4325 0 
L 3669 0 
L 3244 1197 
L 1141 1197 
L 716 0 
L 50 0 
L 1831 4666 
z
" transform="scale(0.015625)"/>
       <path id="DejaVuSans-75" d="M 544 1381 
L 544 3500 
L 1119 3500 
L 1119 1403 
Q 1119 906 1312 657 
Q 1506 409 1894 409 
Q 2359 409 2629 706 
Q 2900 1003 2900 1516 
L 2900 3500 
L 3475 3500 
L 3475 0 
L 2900 0 
L 2900 538 
Q 2691 219 2414 64 
Q 2138 -91 1772 -91 
Q 1169 -91 856 284 
Q 544 659 544 1381 
z
M 1991 3584 
L 1991 3584 
z
" transform="scale(0.015625)"/>
       <path id="DejaVuSans-72" d="M 2631 2963 
Q 2534 3019 2420 3045 
Q 2306 3072 2169 3072 
Q 1681 3072 1420 2755 
Q 1159 2438 1159 1844 
L 1159 0 
L 581 0 
L 581 3500 
L 1159 3500 
L 1159 2956 
Q 1341 3275 1631 3429 
Q 1922 3584 2338 3584 
Q 2397 3584 2469 3576 
Q 2541 3569 2628 3553 
L 2631 2963 
z
" transform="scale(0.015625)"/>
       <path id="DejaVuSans-61" d="M 2194 1759 
Q 1497 1759 1228 1600 
Q 959 1441 959 1056 
Q 959 750 1161 570 
Q 1363 391 1709 391 
Q 2188 391 2477 730 
Q 2766 1069 2766 1631 
L 2766 1759 
L 2194 1759 
z
M 3341 1997 
L 3341 0 
L 2766 0 
L 2766 531 
Q 2569 213 2275 61 
Q 1981 -91 1556 -91 
Q 1019 -91 701 211 
Q 384 513 384 1019 
Q 384 1609 779 1909 
Q 1175 2209 1959 2209 
L 2766 2209 
L 2766 2266 
Q 2766 2663 2505 2880 
Q 2244 3097 1772 3097 
Q 1472 3097 1187 3025 
Q 903 2953 641 2809 
L 641 3341 
Q 956 3463 1253 3523 
Q 1550 3584 1831 3584 
Q 2591 3584 2966 3190 
Q 3341 2797 3341 1997 
z
" transform="scale(0.015625)"/>
       <path id="DejaVuSans-79" d="M 2059 -325 
Q 1816 -950 1584 -1140 
Q 1353 -1331 966 -1331 
L 506 -1331 
L 506 -850 
L 844 -850 
Q 1081 -850 1212 -737 
Q 1344 -625 1503 -206 
L 1606 56 
L 191 3500 
L 800 3500 
L 1894 763 
L 2988 3500 
L 3597 3500 
L 2059 -325 
z
" transform="scale(0.015625)"/>
      </defs>
      <use xlink:href="#DejaVuSans-41"/>
      <use xlink:href="#DejaVuSans-63" x="66.658203"/>
      <use xlink:href="#DejaVuSans-63" x="121.638672"/>
      <use xlink:href="#DejaVuSans-75" x="176.619141"/>
      <use xlink:href="#DejaVuSans-72" x="239.998047"/>
      <use xlink:href="#DejaVuSans-61" x="281.111328"/>
      <use xlink:href="#DejaVuSans-63" x="342.390625"/>
      <use xlink:href="#DejaVuSans-79" x="397.371094"/>
     </g>
    </g>
   </g>
   <g id="line2d_18">
    <path d="M 73.832727 291.359899 
L 74.918528 262.113815 
L 76.00433 240.792109 
L 77.090131 224.127399 
L 78.175932 210.605361 
L 81.433335 184.074374 
L 83.604938 169.764887 
L 85.77654 158.580255 
L 86.862341 152.747428 
L 87.948142 148.749608 
L 89.033943 143.836067 
L 90.119745 141.153038 
L 91.205546 136.574429 
L 92.291347 135.245386 
L 93.377148 132.847407 
L 94.462949 133.292796 
L 95.54875 165.196968 
L 96.634552 163.208747 
L 97.720353 160.433077 
L 100.977756 150.189109 
L 102.063557 148.151004 
L 104.23516 142.026002 
L 105.320961 140.151801 
L 106.406762 137.882094 
L 107.492563 134.639656 
L 112.921569 123.162848 
L 114.00737 121.313589 
L 115.093171 119.742253 
L 116.178972 115.96891 
L 117.264773 113.506794 
L 118.350575 111.750177 
L 119.436376 110.335618 
L 120.522177 107.039733 
L 121.607978 105.450582 
L 122.693779 103.423167 
L 123.77958 100.775769 
L 124.865382 100.412331 
L 128.122785 94.529621 
L 129.208586 92.067505 
L 130.294387 90.920181 
L 131.380189 90.107789 
L 132.46599 88.746678 
L 133.551791 88.632658 
L 134.637592 86.216863 
L 135.723393 86.277436 
L 136.809194 86.060086 
L 137.894995 85.304704 
L 138.980797 124.819699 
L 140.066598 127.987312 
L 141.152399 127.374455 
L 142.2382 124.926592 
L 143.324001 125.646342 
L 144.409802 123.198479 
L 145.495604 122.161611 
L 146.581405 122.585623 
L 147.667206 120.223275 
L 148.753007 119.642486 
L 149.838808 118.153102 
L 150.924609 117.429789 
L 152.01041 118.060461 
L 153.096212 114.74676 
L 154.182013 115.480763 
L 155.267814 113.567368 
L 156.353615 113.207492 
L 158.525217 110.371249 
L 159.611019 110.552968 
L 160.69682 109.680004 
L 161.782621 107.962581 
L 162.868422 107.47087 
L 163.954223 107.420987 
L 165.040024 105.31162 
L 166.125825 104.855541 
L 167.211627 104.068091 
L 168.297428 103.968324 
L 169.383229 103.013408 
L 170.46903 101.573908 
L 171.554831 99.842232 
L 172.640632 98.76617 
L 173.726434 98.987083 
L 174.812235 98.413421 
L 175.898036 96.26486 
L 176.983837 95.338449 
L 178.069638 95.9228 
L 179.155439 94.141241 
L 180.24124 93.425054 
L 181.327042 91.803834 
L 182.412843 91.187415 
L 183.498644 90.022275 
L 184.584445 90.275256 
L 185.670246 88.42956 
L 186.756047 86.038707 
L 187.841849 85.849862 
L 188.92765 84.44243 
L 190.013451 83.961408 
L 191.099252 83.694174 
L 192.185053 80.950573 
L 193.270854 81.27838 
L 194.356656 80.006346 
L 196.528258 77.889853 
L 197.614059 77.586988 
L 198.69986 75.534631 
L 200.871462 74.626036 
L 201.957264 73.582042 
L 203.043065 72.801718 
L 204.128866 70.767177 
L 205.214667 70.435807 
L 206.300468 69.534338 
L 207.386269 68.183916 
L 208.472071 67.759905 
L 209.557872 66.234889 
L 210.643673 65.703985 
L 211.729474 65.461693 
L 212.815275 64.485398 
L 213.901076 63.28819 
L 214.986877 63.943804 
L 216.072679 62.518556 
L 217.15848 62.411662 
L 218.244281 61.877194 
L 219.330082 61.064803 
L 220.415883 60.865269 
L 221.501684 60.925842 
L 222.587486 60.191839 
L 223.673287 60.943657 
L 224.759088 60.608724 
L 225.844889 108.682331 
L 226.93069 112.320276 
L 228.016491 112.801297 
L 229.102292 111.604089 
L 230.188094 111.91408 
L 231.273895 110.011374 
L 233.445497 108.63601 
L 234.531298 108.856924 
L 235.617099 107.410297 
L 236.702901 107.545696 
L 237.788702 106.555149 
L 238.874503 106.676295 
L 239.960304 105.568164 
L 241.046105 104.987376 
L 242.131906 104.816346 
L 243.217708 104.071654 
L 244.303509 102.835252 
L 245.38931 103.932693 
L 246.475111 102.920767 
L 247.560912 103.287768 
L 248.646713 102.111939 
L 249.732514 102.503882 
L 250.818316 102.012171 
L 251.904117 101.93022 
L 252.989918 100.440836 
L 254.075719 101.385062 
L 255.16152 99.382589 
L 256.247321 100.793584 
L 257.333123 99.906368 
L 258.418924 99.525114 
L 259.504725 98.976394 
L 260.590526 99.072598 
L 262.762128 98.057109 
L 263.847929 97.971594 
L 264.933731 97.540456 
L 266.019532 96.567725 
L 268.191134 96.581977 
L 269.276935 96.25417 
L 270.362736 96.175782 
L 272.534339 94.376406 
L 273.62014 94.64364 
L 274.705941 94.069978 
L 275.791742 94.736282 
L 277.963344 93.48919 
L 279.049146 91.964175 
L 280.134947 92.630478 
L 281.220748 92.726682 
L 282.306549 91.985553 
L 283.39235 91.885786 
L 285.563953 90.478354 
L 287.735555 89.616079 
L 288.821356 90.26813 
L 289.907157 88.796561 
L 290.992958 89.249078 
L 292.07876 87.581538 
L 293.164561 88.340482 
L 295.336163 87.168216 
L 296.421964 87.467518 
L 297.507765 86.619496 
L 298.593566 85.329646 
L 299.679368 86.195484 
L 300.765169 84.866441 
L 301.85097 85.329646 
L 302.936771 84.086118 
L 304.022572 84.48875 
L 305.108373 82.607423 
L 307.279976 83.473261 
L 308.365777 81.869857 
L 310.537379 81.545613 
L 311.62318 80.637018 
L 312.708981 79.967152 
L 313.794783 79.788996 
L 315.966385 78.958789 
L 317.052186 78.299612 
L 318.137987 78.50271 
L 319.223788 78.014562 
L 321.395391 75.409922 
L 322.481192 75.880254 
L 323.566993 75.078552 
L 324.652794 74.975221 
L 325.738595 74.305355 
L 326.824396 74.202024 
L 327.910198 73.845712 
L 328.995999 73.981111 
L 330.0818 72.359892 
L 332.253402 71.301645 
L 333.339203 71.825424 
L 334.425005 70.414429 
L 335.510806 69.509396 
L 336.596607 69.545027 
L 337.682408 68.800335 
L 338.768209 68.811025 
L 339.85401 68.066333 
L 340.939811 66.633959 
L 342.025613 67.139922 
L 344.197215 65.304915 
L 345.283016 65.657664 
L 346.368817 65.155264 
L 348.54042 63.202675 
L 349.626221 63.395083 
L 350.712022 62.646828 
L 351.797823 63.106471 
L 352.883624 62.661081 
L 353.969425 60.484015 
L 355.055227 61.11825 
L 356.141028 58.966126 
L 357.226829 59.628866 
L 358.31263 59.162097 
L 361.570033 56.871012 
L 362.655835 55.976669 
L 363.741636 56.090689 
L 364.827437 55.278297 
L 365.913238 55.34956 
L 366.999039 53.568 
L 368.08484 55.85196 
L 369.170642 56.703545 
L 370.256443 58.991068 
L 371.342244 60.968599 
L 372.428045 61.428241 
L 373.513846 63.077966 
L 374.599647 64.175406 
L 375.685448 63.772774 
L 376.77125 62.682459 
L 378.942852 62.750159 
L 380.028653 63.33451 
L 381.114454 64.086328 
L 382.200255 63.601744 
L 383.286057 64.67068 
L 384.371858 64.011503 
L 385.457659 64.211038 
L 386.54346 63.744269 
L 387.629261 64.659991 
L 388.715062 63.320258 
L 389.800863 64.574476 
L 390.886665 63.844036 
L 391.972466 64.435514 
L 393.058267 64.741942 
L 394.144068 64.635049 
L 395.229869 64.332184 
L 396.31567 64.335747 
L 397.401472 64.104144 
L 398.487273 64.175406 
L 398.487273 64.175406 
" clip-path="url(#p84897723e7)" style="fill: none; stroke: #1f77b4; stroke-width: 1.5; stroke-linecap: square"/>
   </g>
   <g id="line2d_19">
    <path d="M 73.832727 278.541627 
L 74.918528 248.237583 
L 76.00433 239.203279 
L 77.090131 214.518999 
L 78.175932 205.76924 
L 79.261733 194.671984 
L 80.347534 185.033022 
L 82.519137 173.651222 
L 83.604938 158.819313 
L 84.690739 152.843867 
L 86.862341 142.600247 
L 87.948142 140.395023 
L 89.033943 134.846395 
L 90.119745 128.408564 
L 92.291347 126.701294 
L 94.462949 123.820276 
L 95.54875 154.942387 
L 96.634552 158.605904 
L 97.720353 145.552401 
L 98.806154 143.809563 
L 99.891955 147.544217 
L 100.977756 141.035249 
L 102.063557 135.52219 
L 103.149358 135.735598 
L 104.23516 138.296504 
L 105.320961 130.222539 
L 106.406762 124.816184 
L 107.492563 121.152666 
L 108.578364 121.47278 
L 109.664165 123.855844 
L 110.749967 118.342784 
L 111.835768 118.947443 
L 112.921569 112.509612 
L 114.00737 112.331771 
L 115.093171 108.632686 
L 116.178972 105.644963 
L 117.264773 101.447924 
L 118.350575 104.151102 
L 119.436376 101.661333 
L 120.522177 97.713271 
L 121.607978 96.432818 
L 122.693779 96.575091 
L 123.77958 93.053846 
L 124.865382 88.892376 
L 125.951183 88.252149 
L 127.036984 86.758288 
L 128.122785 83.130339 
L 129.208586 85.086586 
L 130.294387 80.996251 
L 131.380189 80.853979 
L 132.46599 80.000344 
L 133.551791 79.431254 
L 135.723393 77.937392 
L 136.809194 76.834781 
L 137.894995 78.399778 
L 138.980797 127.199248 
L 141.152399 118.662898 
L 142.2382 128.124019 
L 143.324001 122.646528 
L 144.409802 116.350969 
L 145.495604 120.548008 
L 146.581405 113.11427 
L 147.667206 116.101992 
L 148.753007 113.185406 
L 149.838808 114.963812 
L 150.924609 112.225067 
L 152.01041 110.695637 
L 153.096212 114.928244 
L 154.182013 106.569735 
L 155.267814 106.534166 
L 156.353615 103.190762 
L 157.439416 109.984275 
L 158.525217 101.234516 
L 159.611019 105.609395 
L 160.69682 101.554629 
L 161.782621 110.411092 
L 162.868422 99.029292 
L 163.954223 98.10452 
L 165.040024 103.724284 
L 166.125825 99.669518 
L 167.211627 99.207132 
L 168.297428 100.843266 
L 169.383229 95.152366 
L 171.554831 95.010093 
L 172.640632 95.25907 
L 173.726434 96.539523 
L 175.898036 90.848623 
L 176.983837 96.006001 
L 178.069638 89.852715 
L 179.155439 87.398514 
L 180.24124 87.398514 
L 181.327042 83.130339 
L 182.412843 85.371131 
L 183.498644 82.241136 
L 184.584445 82.73909 
L 185.670246 85.19329 
L 186.756047 81.20966 
L 187.841849 80.676138 
L 188.92765 78.897732 
L 190.013451 80.889547 
L 191.099252 80.676138 
L 192.185053 75.732169 
L 193.270854 74.914102 
L 194.356656 77.546143 
L 195.442457 77.22603 
L 196.528258 74.665125 
L 197.614059 75.020806 
L 198.69986 71.072744 
L 199.785661 71.001608 
L 200.871462 69.898996 
L 201.957264 67.089114 
L 203.043065 67.053546 
L 204.128866 65.275139 
L 205.214667 66.982409 
L 206.300468 67.551499 
L 207.386269 66.306615 
L 208.472071 63.318892 
L 209.557872 63.283324 
L 210.643673 61.718327 
L 212.815275 60.793555 
L 213.901076 59.76208 
L 214.986877 60.757987 
L 216.072679 59.37083 
L 217.15848 59.619807 
L 218.244281 58.944013 
L 219.330082 58.695036 
L 220.415883 59.050717 
L 221.501684 58.659468 
L 223.673287 58.339355 
L 224.759088 58.908445 
L 225.844889 107.530074 
L 226.93069 115.106085 
L 228.016491 112.011658 
L 229.102292 118.200512 
L 230.188094 109.237344 
L 231.273895 105.253714 
L 232.359696 102.799513 
L 233.445497 114.288018 
L 234.531298 105.253714 
L 235.617099 108.063596 
L 237.788702 106.356326 
L 238.874503 104.328943 
L 239.960304 99.882927 
L 241.046105 107.707915 
L 242.131906 106.427462 
L 243.217708 99.954063 
L 244.303509 97.819975 
L 245.38931 106.427462 
L 246.475111 102.692809 
L 247.560912 102.408264 
L 248.646713 105.573827 
L 249.732514 99.313837 
L 250.818316 104.18667 
L 251.904117 99.207132 
L 252.989918 96.254978 
L 254.075719 104.577919 
L 255.16152 101.554629 
L 256.247321 102.621672 
L 257.333123 97.428726 
L 258.418924 97.073045 
L 259.504725 102.337127 
L 260.590526 98.353497 
L 261.676327 96.112705 
L 262.762128 101.874742 
L 263.847929 102.763945 
L 264.933731 93.694073 
L 266.019532 95.543615 
L 267.105333 104.898033 
L 268.191134 92.235779 
L 269.276935 96.006001 
L 270.362736 97.713271 
L 271.448538 97.393158 
L 272.534339 96.326114 
L 273.62014 102.4794 
L 274.705941 94.298731 
L 275.791742 99.313837 
L 276.877543 90.350669 
L 277.963344 94.654412 
L 279.049146 90.315101 
L 280.134947 99.527245 
L 281.220748 91.595553 
L 282.306549 100.700994 
L 283.39235 85.19329 
L 284.478151 95.401343 
L 285.563953 86.829424 
L 286.649754 94.618844 
L 287.735555 90.990895 
L 288.821356 91.773394 
L 289.907157 89.319193 
L 290.992958 89.852715 
L 292.07876 91.702258 
L 293.164561 92.627029 
L 294.250362 91.062031 
L 295.336163 87.611923 
L 296.421964 85.371131 
L 297.507765 90.564077 
L 298.593566 91.026463 
L 299.679368 79.893639 
L 300.765169 87.256242 
L 301.85097 79.893639 
L 302.936771 81.636478 
L 304.022572 84.126247 
L 305.108373 81.494205 
L 306.194175 81.494205 
L 307.279976 80.07148 
L 308.365777 81.03182 
L 309.451578 82.810226 
L 310.537379 76.799212 
L 311.62318 78.328642 
L 312.708981 78.684323 
L 313.794783 79.253413 
L 314.880584 82.810226 
L 315.966385 75.483192 
L 317.052186 77.439439 
L 318.137987 75.945577 
L 319.223788 79.893639 
L 320.30959 74.878534 
L 321.395391 78.719891 
L 322.481192 75.625464 
L 323.566993 74.487284 
L 324.652794 74.55842 
L 325.738595 73.918194 
L 326.824396 71.570698 
L 327.910198 72.210924 
L 328.995999 70.39695 
L 330.0818 76.016714 
L 331.167601 70.823767 
L 332.253402 73.882626 
L 333.339203 69.578883 
L 334.425005 72.495469 
L 335.510806 66.875705 
L 336.596607 65.950934 
L 337.682408 66.02207 
L 338.768209 70.681495 
L 340.939811 66.840137 
L 342.025613 65.666389 
L 343.111414 63.603437 
L 344.197215 66.804569 
L 345.283016 63.212188 
L 346.368817 61.682759 
L 347.454618 62.002872 
L 348.54042 63.247756 
L 349.626221 60.757987 
L 350.712022 62.465257 
L 351.797823 62.251849 
L 352.883624 59.121853 
L 353.969425 60.864692 
L 355.055227 58.197082 
L 356.141028 57.841401 
L 357.226829 57.734697 
L 358.31263 57.948105 
L 359.398431 58.410491 
L 360.484232 58.695036 
L 361.570033 56.91663 
L 362.655835 57.201175 
L 365.913238 53.964475 
L 366.999039 54.497997 
L 368.08484 54.391293 
L 369.170642 56.845493 
L 370.256443 58.730604 
L 371.342244 61.753895 
L 372.428045 61.682759 
L 373.513846 65.310707 
L 374.599647 62.180712 
L 376.77125 69.721155 
L 377.857051 63.354461 
L 378.942852 62.643098 
L 380.028653 63.994687 
L 381.114454 60.50901 
L 382.200255 63.105484 
L 383.286057 63.390029 
L 384.371858 65.417412 
L 385.457659 62.571962 
L 386.54346 65.381844 
L 387.629261 62.180712 
L 388.715062 66.164343 
L 390.886665 62.963211 
L 391.972466 65.773093 
L 394.144068 63.603437 
L 395.229869 62.109576 
L 396.31567 62.714234 
L 397.401472 60.971396 
L 398.487273 64.955026 
L 398.487273 64.955026 
" clip-path="url(#p84897723e7)" style="fill: none; stroke: #ff7f0e; stroke-width: 1.5; stroke-linecap: square"/>
   </g>
   <g id="line2d_20">
    <path d="M 73.832727 295.488 
L 74.918528 282.438177 
L 76.00433 283.272188 
L 77.090131 267.008969 
L 78.175932 266.984439 
L 79.261733 264.727703 
L 80.347534 260.655766 
L 81.433335 255.210163 
L 82.519137 255.847936 
L 83.604938 245.471855 
L 84.690739 246.771931 
L 85.77654 240.345139 
L 86.862341 240.026252 
L 87.948142 237.794045 
L 89.033943 233.746638 
L 90.119745 228.914279 
L 91.205546 231.931437 
L 92.291347 232.029556 
L 93.377148 229.159576 
L 94.462949 229.036927 
L 95.54875 244.883141 
L 96.634552 254.768627 
L 97.720353 242.699994 
L 98.806154 238.382759 
L 99.891955 246.992699 
L 100.977756 236.935504 
L 102.063557 237.720456 
L 103.149358 228.644451 
L 104.23516 241.743334 
L 105.320961 229.650171 
L 106.406762 228.178386 
L 107.492563 222.045951 
L 108.578364 230.287944 
L 109.664165 224.449865 
L 110.749967 223.174319 
L 111.835768 215.104034 
L 112.921569 217.189062 
L 114.00737 219.887333 
L 115.093171 216.943764 
L 116.178972 216.747526 
L 117.264773 207.401694 
L 118.350575 208.333825 
L 119.436376 205.488374 
L 120.522177 210.615091 
L 121.607978 203.207108 
L 122.693779 205.439315 
L 123.77958 200.901313 
L 124.865382 202.986341 
L 125.951183 199.331409 
L 127.036984 197.565268 
L 128.122785 196.706727 
L 129.208586 192.070605 
L 131.380189 191.383772 
L 132.46599 191.776248 
L 133.551791 189.911988 
L 134.637592 190.378053 
L 135.723393 190.206345 
L 136.809194 189.470453 
L 137.894995 189.102506 
L 138.980797 232.054086 
L 140.066598 222.904492 
L 141.152399 218.243841 
L 142.2382 226.044299 
L 143.324001 226.216007 
L 144.409802 220.966642 
L 145.495604 226.338656 
L 146.581405 223.296968 
L 147.667206 219.24956 
L 148.753007 218.930673 
L 149.838808 211.718929 
L 150.924609 216.477699 
L 152.01041 218.464608 
L 153.096212 216.870175 
L 154.182013 212.086875 
L 155.267814 212.062345 
L 156.353615 200.067301 
L 157.439416 207.720581 
L 158.525217 209.069717 
L 159.611019 204.629833 
L 160.69682 206.518624 
L 161.782621 212.920886 
L 162.868422 197.589797 
L 163.954223 208.088527 
L 165.040024 206.83751 
L 166.125825 203.378817 
L 167.211627 207.745111 
L 168.297428 202.814633 
L 169.383229 198.570987 
L 170.46903 196.265191 
L 171.554831 197.933214 
L 173.726434 203.99206 
L 174.812235 196.584078 
L 176.983837 201.17114 
L 178.069638 202.324038 
L 179.155439 192.512141 
L 180.24124 191.359243 
L 181.327042 191.997016 
L 183.498644 195.725537 
L 184.584445 194.891526 
L 185.670246 190.795059 
L 186.756047 190.132756 
L 187.841849 185.275867 
L 188.92765 189.298744 
L 190.013451 184.760742 
L 191.099252 192.659319 
L 192.185053 186.134408 
L 193.270854 182.234178 
L 194.356656 184.98151 
L 195.442457 185.790991 
L 196.528258 182.896482 
L 197.614059 185.668342 
L 198.69986 182.553065 
L 199.785661 182.773833 
L 200.871462 180.786924 
L 201.957264 176.199862 
L 203.043065 174.777137 
L 204.128866 176.592338 
L 205.214667 176.248921 
L 206.300468 174.041244 
L 207.386269 176.101743 
L 208.472071 174.139363 
L 209.557872 173.722358 
L 210.643673 171.073146 
L 211.729474 173.428001 
L 212.815275 171.073146 
L 213.901076 172.250573 
L 216.072679 167.123857 
L 217.15848 170.778789 
L 218.244281 170.386313 
L 219.330082 168.325814 
L 220.415883 167.83522 
L 221.501684 167.982398 
L 222.587486 168.252225 
L 223.673287 167.491803 
L 224.759088 167.81069 
L 225.844889 212.920886 
L 226.93069 222.929021 
L 228.016491 213.681308 
L 229.102292 218.513668 
L 230.188094 210.026377 
L 231.273895 207.916819 
L 232.359696 202.741043 
L 233.445497 217.875894 
L 234.531298 208.75083 
L 235.617099 210.345263 
L 236.702901 203.893941 
L 238.874503 212.258583 
L 239.960304 195.161353 
L 241.046105 207.180927 
L 242.131906 210.933977 
L 243.217708 206.88657 
L 244.303509 198.521928 
L 245.38931 205.90538 
L 246.475111 209.903728 
L 247.560912 205.586493 
L 248.646713 209.339544 
L 250.818316 202.348567 
L 251.904117 199.797474 
L 252.989918 201.612675 
L 254.075719 205.488374 
L 255.16152 200.729604 
L 256.247321 208.677241 
L 257.333123 206.003499 
L 258.418924 202.765573 
L 259.504725 198.816284 
L 260.590526 197.123732 
L 261.676327 196.36331 
L 262.762128 206.297856 
L 263.847929 200.23901 
L 264.933731 209.290485 
L 266.019532 198.570987 
L 267.105333 202.029681 
L 268.191134 193.885806 
L 269.276935 198.620047 
L 270.362736 201.637205 
L 271.448538 198.914403 
L 272.534339 194.057514 
L 273.62014 210.958507 
L 274.705941 203.599584 
L 275.791742 206.812981 
L 276.877543 195.553829 
L 277.963344 195.161353 
L 279.049146 192.708379 
L 280.134947 202.054211 
L 281.220748 194.621698 
L 282.306549 208.260235 
L 283.39235 188.857209 
L 284.478151 195.210412 
L 285.563953 195.627418 
L 286.649754 200.680545 
L 287.735555 196.38784 
L 288.821356 203.624114 
L 289.907157 188.80815 
L 290.992958 189.298744 
L 292.07876 200.582426 
L 293.164561 198.938933 
L 294.250362 200.435247 
L 295.336163 187.876019 
L 296.421964 190.328994 
L 297.507765 198.153981 
L 298.593566 199.037052 
L 299.679368 187.483543 
L 300.765169 194.49905 
L 301.85097 183.288957 
L 302.936771 188.979858 
L 304.022572 192.414022 
L 305.108373 186.747651 
L 306.194175 182.651184 
L 307.279976 196.804846 
L 308.365777 181.547346 
L 309.451578 187.606192 
L 310.537379 185.594753 
L 311.62318 192.168724 
L 312.708981 188.047727 
L 313.794783 185.790991 
L 314.880584 198.448338 
L 315.966385 184.490915 
L 317.052186 184.564504 
L 318.137987 180.051031 
L 319.223788 183.04366 
L 320.30959 179.903853 
L 321.395391 193.910336 
L 322.481192 176.469689 
L 323.566993 175.071494 
L 324.652794 178.28489 
L 325.738595 182.258708 
L 326.824396 177.254641 
L 327.910198 175.341321 
L 328.995999 174.286542 
L 330.0818 182.675714 
L 331.167601 171.661859 
L 332.253402 181.915292 
L 333.339203 180.541626 
L 334.425005 181.841703 
L 335.510806 173.722358 
L 336.596607 171.342973 
L 337.682408 169.67495 
L 338.768209 177.131992 
L 339.85401 171.784508 
L 340.939811 173.231763 
L 342.025613 177.450879 
L 343.111414 167.933339 
L 344.197215 170.754259 
L 345.283016 169.969307 
L 346.368817 166.093608 
L 347.454618 168.472993 
L 348.54042 173.158174 
L 349.626221 167.982398 
L 350.712022 172.201514 
L 351.797823 172.397752 
L 352.883624 168.252225 
L 353.969425 169.773069 
L 355.055227 167.221976 
L 356.141028 163.95952 
L 357.226829 162.217909 
L 358.31263 168.203166 
L 359.398431 167.099327 
L 360.484232 163.885931 
L 361.570033 161.972611 
L 362.655835 167.320095 
L 363.741636 165.89737 
L 364.827437 164.793532 
L 365.913238 162.021671 
L 366.999039 164.450115 
L 368.08484 167.246506 
L 369.170642 160.476297 
L 370.256443 167.78616 
L 371.342244 172.373222 
L 372.428045 172.56946 
L 373.513846 170.165545 
L 374.599647 171.342973 
L 375.685448 178.456598 
L 376.77125 183.681433 
L 377.857051 171.759978 
L 378.942852 167.737101 
L 380.028653 175.733797 
L 381.114454 171.073146 
L 382.200255 172.495871 
L 383.286057 172.790228 
L 384.371858 170.925967 
L 385.457659 167.638982 
L 386.54346 167.78616 
L 387.629261 173.697828 
L 388.715062 173.084585 
L 389.800863 175.635678 
L 390.886665 168.988117 
L 391.972466 173.820477 
L 393.058267 177.3037 
L 394.144068 170.484432 
L 395.229869 178.775485 
L 396.31567 170.63161 
L 397.401472 177.475408 
L 398.487273 173.452531 
L 398.487273 173.452531 
" clip-path="url(#p84897723e7)" style="fill: none; stroke: #2ca02c; stroke-width: 1.5; stroke-linecap: square"/>
   </g>
   <g id="line2d_21">
    <path d="M 368.08484 56.383108 
L 369.170642 55.280496 
L 370.256443 61.433782 
L 371.342244 62.536394 
L 372.428045 66.235479 
L 373.513846 65.346276 
L 374.599647 62.892075 
L 375.685448 63.069916 
L 376.77125 63.994687 
L 377.857051 67.836044 
L 378.942852 65.026162 
L 380.028653 71.677402 
L 381.114454 69.080929 
L 382.200255 76.123418 
L 383.286057 71.179448 
L 384.371858 74.131603 
L 385.457659 70.361381 
L 386.54346 72.246492 
L 387.629261 79.182277 
L 388.715062 78.257506 
L 389.800863 73.42024 
L 390.886665 78.506483 
L 391.972466 81.20966 
L 393.058267 75.483192 
L 394.144068 81.423069 
L 395.229869 84.766473 
L 396.31567 79.395686 
L 397.401472 72.210924 
L 398.487273 81.707614 
L 398.487273 81.707614 
" clip-path="url(#p84897723e7)" style="fill: none; stroke: #d62728; stroke-width: 1.5; stroke-linecap: square"/>
   </g>
   <g id="line2d_22">
    <path d="M 368.08484 166.265316 
L 369.170642 162.316028 
L 370.256443 177.3037 
L 371.342244 163.665163 
L 372.428045 170.68067 
L 373.513846 171.931687 
L 374.599647 182.013411 
L 375.685448 172.324162 
L 376.77125 171.956216 
L 377.857051 167.467273 
L 378.942852 165.84831 
L 380.028653 181.522816 
L 381.114454 170.876908 
L 382.200255 179.167961 
L 383.286057 177.131992 
L 384.371858 180.811453 
L 385.457659 176.813105 
L 386.54346 172.176984 
L 387.629261 182.454946 
L 388.715062 182.945541 
L 389.800863 176.199862 
L 390.886665 180.271799 
L 391.972466 175.39038 
L 393.058267 174.041244 
L 394.144068 172.986466 
L 395.229869 183.656904 
L 396.31567 177.205581 
L 397.401472 172.103395 
L 398.487273 178.922663 
L 398.487273 178.922663 
" clip-path="url(#p84897723e7)" style="fill: none; stroke: #9467bd; stroke-width: 1.5; stroke-linecap: square"/>
   </g>
   <g id="patch_3">
    <path d="M 57.6 307.584 
L 57.6 41.472 
" style="fill: none; stroke: #000000; stroke-width: 0.8; stroke-linejoin: miter; stroke-linecap: square"/>
   </g>
   <g id="patch_4">
    <path d="M 414.72 307.584 
L 414.72 41.472 
" style="fill: none; stroke: #000000; stroke-width: 0.8; stroke-linejoin: miter; stroke-linecap: square"/>
   </g>
   <g id="patch_5">
    <path d="M 57.6 307.584 
L 414.72 307.584 
" style="fill: none; stroke: #000000; stroke-width: 0.8; stroke-linejoin: miter; stroke-linecap: square"/>
   </g>
   <g id="patch_6">
    <path d="M 57.6 41.472 
L 414.72 41.472 
" style="fill: none; stroke: #000000; stroke-width: 0.8; stroke-linejoin: miter; stroke-linecap: square"/>
   </g>
   <g id="text_20">
    <!-- Learning Curves -->
    <g transform="translate(187.37625 35.472) scale(0.12 -0.12)">
     <defs>
      <path id="DejaVuSans-4c" d="M 628 4666 
L 1259 4666 
L 1259 531 
L 3531 531 
L 3531 0 
L 628 0 
L 628 4666 
z
" transform="scale(0.015625)"/>
      <path id="DejaVuSans-65" d="M 3597 1894 
L 3597 1613 
L 953 1613 
Q 991 1019 1311 708 
Q 1631 397 2203 397 
Q 2534 397 2845 478 
Q 3156 559 3463 722 
L 3463 178 
Q 3153 47 2828 -22 
Q 2503 -91 2169 -91 
Q 1331 -91 842 396 
Q 353 884 353 1716 
Q 353 2575 817 3079 
Q 1281 3584 2069 3584 
Q 2775 3584 3186 3129 
Q 3597 2675 3597 1894 
z
M 3022 2063 
Q 3016 2534 2758 2815 
Q 2500 3097 2075 3097 
Q 1594 3097 1305 2825 
Q 1016 2553 972 2059 
L 3022 2063 
z
" transform="scale(0.015625)"/>
      <path id="DejaVuSans-6e" d="M 3513 2113 
L 3513 0 
L 2938 0 
L 2938 2094 
Q 2938 2591 2744 2837 
Q 2550 3084 2163 3084 
Q 1697 3084 1428 2787 
Q 1159 2491 1159 1978 
L 1159 0 
L 581 0 
L 581 3500 
L 1159 3500 
L 1159 2956 
Q 1366 3272 1645 3428 
Q 1925 3584 2291 3584 
Q 2894 3584 3203 3211 
Q 3513 2838 3513 2113 
z
" transform="scale(0.015625)"/>
      <path id="DejaVuSans-69" d="M 603 3500 
L 1178 3500 
L 1178 0 
L 603 0 
L 603 3500 
z
M 603 4863 
L 1178 4863 
L 1178 4134 
L 603 4134 
L 603 4863 
z
" transform="scale(0.015625)"/>
      <path id="DejaVuSans-67" d="M 2906 1791 
Q 2906 2416 2648 2759 
Q 2391 3103 1925 3103 
Q 1463 3103 1205 2759 
Q 947 2416 947 1791 
Q 947 1169 1205 825 
Q 1463 481 1925 481 
Q 2391 481 2648 825 
Q 2906 1169 2906 1791 
z
M 3481 434 
Q 3481 -459 3084 -895 
Q 2688 -1331 1869 -1331 
Q 1566 -1331 1297 -1286 
Q 1028 -1241 775 -1147 
L 775 -588 
Q 1028 -725 1275 -790 
Q 1522 -856 1778 -856 
Q 2344 -856 2625 -561 
Q 2906 -266 2906 331 
L 2906 616 
Q 2728 306 2450 153 
Q 2172 0 1784 0 
Q 1141 0 747 490 
Q 353 981 353 1791 
Q 353 2603 747 3093 
Q 1141 3584 1784 3584 
Q 2172 3584 2450 3431 
Q 2728 3278 2906 2969 
L 2906 3500 
L 3481 3500 
L 3481 434 
z
" transform="scale(0.015625)"/>
      <path id="DejaVuSans-20" transform="scale(0.015625)"/>
      <path id="DejaVuSans-43" d="M 4122 4306 
L 4122 3641 
Q 3803 3938 3442 4084 
Q 3081 4231 2675 4231 
Q 1875 4231 1450 3742 
Q 1025 3253 1025 2328 
Q 1025 1406 1450 917 
Q 1875 428 2675 428 
Q 3081 428 3442 575 
Q 3803 722 4122 1019 
L 4122 359 
Q 3791 134 3420 21 
Q 3050 -91 2638 -91 
Q 1578 -91 968 557 
Q 359 1206 359 2328 
Q 359 3453 968 4101 
Q 1578 4750 2638 4750 
Q 3056 4750 3426 4639 
Q 3797 4528 4122 4306 
z
" transform="scale(0.015625)"/>
      <path id="DejaVuSans-76" d="M 191 3500 
L 800 3500 
L 1894 563 
L 2988 3500 
L 3597 3500 
L 2284 0 
L 1503 0 
L 191 3500 
z
" transform="scale(0.015625)"/>
     </defs>
     <use xlink:href="#DejaVuSans-4c"/>
     <use xlink:href="#DejaVuSans-65" x="53.962891"/>
     <use xlink:href="#DejaVuSans-61" x="115.486328"/>
     <use xlink:href="#DejaVuSans-72" x="176.765625"/>
     <use xlink:href="#DejaVuSans-6e" x="216.128906"/>
     <use xlink:href="#DejaVuSans-69" x="279.507812"/>
     <use xlink:href="#DejaVuSans-6e" x="307.291016"/>
     <use xlink:href="#DejaVuSans-67" x="370.669922"/>
     <use xlink:href="#DejaVuSans-20" x="434.146484"/>
     <use xlink:href="#DejaVuSans-43" x="465.933594"/>
     <use xlink:href="#DejaVuSans-75" x="535.757812"/>
     <use xlink:href="#DejaVuSans-72" x="599.136719"/>
     <use xlink:href="#DejaVuSans-76" x="640.25"/>
     <use xlink:href="#DejaVuSans-65" x="699.429688"/>
     <use xlink:href="#DejaVuSans-73" x="760.953125"/>
    </g>
   </g>
   <g id="legend_1">
    <g id="patch_7">
     <path d="M 214.18875 302.584 
L 407.72 302.584 
Q 409.72 302.584 409.72 300.584 
L 409.72 228.193375 
Q 409.72 226.193375 407.72 226.193375 
L 214.18875 226.193375 
Q 212.18875 226.193375 212.18875 228.193375 
L 212.18875 300.584 
Q 212.18875 302.584 214.18875 302.584 
z
" style="fill: #ffffff; opacity: 0.8; stroke: #cccccc; stroke-linejoin: miter"/>
    </g>
    <g id="line2d_23">
     <path d="M 216.18875 234.291812 
L 226.18875 234.291812 
L 236.18875 234.291812 
" style="fill: none; stroke: #1f77b4; stroke-width: 1.5; stroke-linecap: square"/>
    </g>
    <g id="text_21">
     <!-- Train Accuracy -->
     <g transform="translate(244.18875 237.791812) scale(0.1 -0.1)">
      <defs>
       <path id="DejaVuSans-54" d="M -19 4666 
L 3928 4666 
L 3928 4134 
L 2272 4134 
L 2272 0 
L 1638 0 
L 1638 4134 
L -19 4134 
L -19 4666 
z
" transform="scale(0.015625)"/>
      </defs>
      <use xlink:href="#DejaVuSans-54"/>
      <use xlink:href="#DejaVuSans-72" x="46.333984"/>
      <use xlink:href="#DejaVuSans-61" x="87.447266"/>
      <use xlink:href="#DejaVuSans-69" x="148.726562"/>
      <use xlink:href="#DejaVuSans-6e" x="176.509766"/>
      <use xlink:href="#DejaVuSans-20" x="239.888672"/>
      <use xlink:href="#DejaVuSans-41" x="271.675781"/>
      <use xlink:href="#DejaVuSans-63" x="338.333984"/>
      <use xlink:href="#DejaVuSans-63" x="393.314453"/>
      <use xlink:href="#DejaVuSans-75" x="448.294922"/>
      <use xlink:href="#DejaVuSans-72" x="511.673828"/>
      <use xlink:href="#DejaVuSans-61" x="552.787109"/>
      <use xlink:href="#DejaVuSans-63" x="614.066406"/>
      <use xlink:href="#DejaVuSans-79" x="669.046875"/>
     </g>
    </g>
    <g id="line2d_24">
     <path d="M 216.18875 248.969937 
L 226.18875 248.969937 
L 236.18875 248.969937 
" style="fill: none; stroke: #ff7f0e; stroke-width: 1.5; stroke-linecap: square"/>
    </g>
    <g id="text_22">
     <!-- Validation Accuracy -->
     <g transform="translate(244.18875 252.469937) scale(0.1 -0.1)">
      <defs>
       <path id="DejaVuSans-56" d="M 1831 0 
L 50 4666 
L 709 4666 
L 2188 738 
L 3669 4666 
L 4325 4666 
L 2547 0 
L 1831 0 
z
" transform="scale(0.015625)"/>
       <path id="DejaVuSans-6c" d="M 603 4863 
L 1178 4863 
L 1178 0 
L 603 0 
L 603 4863 
z
" transform="scale(0.015625)"/>
       <path id="DejaVuSans-64" d="M 2906 2969 
L 2906 4863 
L 3481 4863 
L 3481 0 
L 2906 0 
L 2906 525 
Q 2725 213 2448 61 
Q 2172 -91 1784 -91 
Q 1150 -91 751 415 
Q 353 922 353 1747 
Q 353 2572 751 3078 
Q 1150 3584 1784 3584 
Q 2172 3584 2448 3432 
Q 2725 3281 2906 2969 
z
M 947 1747 
Q 947 1113 1208 752 
Q 1469 391 1925 391 
Q 2381 391 2643 752 
Q 2906 1113 2906 1747 
Q 2906 2381 2643 2742 
Q 2381 3103 1925 3103 
Q 1469 3103 1208 2742 
Q 947 2381 947 1747 
z
" transform="scale(0.015625)"/>
       <path id="DejaVuSans-74" d="M 1172 4494 
L 1172 3500 
L 2356 3500 
L 2356 3053 
L 1172 3053 
L 1172 1153 
Q 1172 725 1289 603 
Q 1406 481 1766 481 
L 2356 481 
L 2356 0 
L 1766 0 
Q 1100 0 847 248 
Q 594 497 594 1153 
L 594 3053 
L 172 3053 
L 172 3500 
L 594 3500 
L 594 4494 
L 1172 4494 
z
" transform="scale(0.015625)"/>
      </defs>
      <use xlink:href="#DejaVuSans-56"/>
      <use xlink:href="#DejaVuSans-61" x="60.658203"/>
      <use xlink:href="#DejaVuSans-6c" x="121.9375"/>
      <use xlink:href="#DejaVuSans-69" x="149.720703"/>
      <use xlink:href="#DejaVuSans-64" x="177.503906"/>
      <use xlink:href="#DejaVuSans-61" x="240.980469"/>
      <use xlink:href="#DejaVuSans-74" x="302.259766"/>
      <use xlink:href="#DejaVuSans-69" x="341.46875"/>
      <use xlink:href="#DejaVuSans-6f" x="369.251953"/>
      <use xlink:href="#DejaVuSans-6e" x="430.433594"/>
      <use xlink:href="#DejaVuSans-20" x="493.8125"/>
      <use xlink:href="#DejaVuSans-41" x="525.599609"/>
      <use xlink:href="#DejaVuSans-63" x="592.257812"/>
      <use xlink:href="#DejaVuSans-63" x="647.238281"/>
      <use xlink:href="#DejaVuSans-75" x="702.21875"/>
      <use xlink:href="#DejaVuSans-72" x="765.597656"/>
      <use xlink:href="#DejaVuSans-61" x="806.710938"/>
      <use xlink:href="#DejaVuSans-63" x="867.990234"/>
      <use xlink:href="#DejaVuSans-79" x="922.970703"/>
     </g>
    </g>
    <g id="line2d_25">
     <path d="M 216.18875 263.648062 
L 226.18875 263.648062 
L 236.18875 263.648062 
" style="fill: none; stroke: #2ca02c; stroke-width: 1.5; stroke-linecap: square"/>
    </g>
    <g id="text_23">
     <!-- Robust Validation Accuracy -->
     <g transform="translate(244.18875 267.148062) scale(0.1 -0.1)">
      <defs>
       <path id="DejaVuSans-52" d="M 2841 2188 
Q 3044 2119 3236 1894 
Q 3428 1669 3622 1275 
L 4263 0 
L 3584 0 
L 2988 1197 
Q 2756 1666 2539 1819 
Q 2322 1972 1947 1972 
L 1259 1972 
L 1259 0 
L 628 0 
L 628 4666 
L 2053 4666 
Q 2853 4666 3247 4331 
Q 3641 3997 3641 3322 
Q 3641 2881 3436 2590 
Q 3231 2300 2841 2188 
z
M 1259 4147 
L 1259 2491 
L 2053 2491 
Q 2509 2491 2742 2702 
Q 2975 2913 2975 3322 
Q 2975 3731 2742 3939 
Q 2509 4147 2053 4147 
L 1259 4147 
z
" transform="scale(0.015625)"/>
       <path id="DejaVuSans-62" d="M 3116 1747 
Q 3116 2381 2855 2742 
Q 2594 3103 2138 3103 
Q 1681 3103 1420 2742 
Q 1159 2381 1159 1747 
Q 1159 1113 1420 752 
Q 1681 391 2138 391 
Q 2594 391 2855 752 
Q 3116 1113 3116 1747 
z
M 1159 2969 
Q 1341 3281 1617 3432 
Q 1894 3584 2278 3584 
Q 2916 3584 3314 3078 
Q 3713 2572 3713 1747 
Q 3713 922 3314 415 
Q 2916 -91 2278 -91 
Q 1894 -91 1617 61 
Q 1341 213 1159 525 
L 1159 0 
L 581 0 
L 581 4863 
L 1159 4863 
L 1159 2969 
z
" transform="scale(0.015625)"/>
      </defs>
      <use xlink:href="#DejaVuSans-52"/>
      <use xlink:href="#DejaVuSans-6f" x="64.982422"/>
      <use xlink:href="#DejaVuSans-62" x="126.164062"/>
      <use xlink:href="#DejaVuSans-75" x="189.640625"/>
      <use xlink:href="#DejaVuSans-73" x="253.019531"/>
      <use xlink:href="#DejaVuSans-74" x="305.119141"/>
      <use xlink:href="#DejaVuSans-20" x="344.328125"/>
      <use xlink:href="#DejaVuSans-56" x="376.115234"/>
      <use xlink:href="#DejaVuSans-61" x="436.773438"/>
      <use xlink:href="#DejaVuSans-6c" x="498.052734"/>
      <use xlink:href="#DejaVuSans-69" x="525.835938"/>
      <use xlink:href="#DejaVuSans-64" x="553.619141"/>
      <use xlink:href="#DejaVuSans-61" x="617.095703"/>
      <use xlink:href="#DejaVuSans-74" x="678.375"/>
      <use xlink:href="#DejaVuSans-69" x="717.583984"/>
      <use xlink:href="#DejaVuSans-6f" x="745.367188"/>
      <use xlink:href="#DejaVuSans-6e" x="806.548828"/>
      <use xlink:href="#DejaVuSans-20" x="869.927734"/>
      <use xlink:href="#DejaVuSans-41" x="901.714844"/>
      <use xlink:href="#DejaVuSans-63" x="968.373047"/>
      <use xlink:href="#DejaVuSans-63" x="1023.353516"/>
      <use xlink:href="#DejaVuSans-75" x="1078.333984"/>
      <use xlink:href="#DejaVuSans-72" x="1141.712891"/>
      <use xlink:href="#DejaVuSans-61" x="1182.826172"/>
      <use xlink:href="#DejaVuSans-63" x="1244.105469"/>
      <use xlink:href="#DejaVuSans-79" x="1299.085938"/>
     </g>
    </g>
    <g id="line2d_26">
     <path d="M 216.18875 278.326188 
L 226.18875 278.326188 
L 236.18875 278.326188 
" style="fill: none; stroke: #d62728; stroke-width: 1.5; stroke-linecap: square"/>
    </g>
    <g id="text_24">
     <!-- SWA Validation Accuracy -->
     <g transform="translate(244.18875 281.826188) scale(0.1 -0.1)">
      <defs>
       <path id="DejaVuSans-53" d="M 3425 4513 
L 3425 3897 
Q 3066 4069 2747 4153 
Q 2428 4238 2131 4238 
Q 1616 4238 1336 4038 
Q 1056 3838 1056 3469 
Q 1056 3159 1242 3001 
Q 1428 2844 1947 2747 
L 2328 2669 
Q 3034 2534 3370 2195 
Q 3706 1856 3706 1288 
Q 3706 609 3251 259 
Q 2797 -91 1919 -91 
Q 1588 -91 1214 -16 
Q 841 59 441 206 
L 441 856 
Q 825 641 1194 531 
Q 1563 422 1919 422 
Q 2459 422 2753 634 
Q 3047 847 3047 1241 
Q 3047 1584 2836 1778 
Q 2625 1972 2144 2069 
L 1759 2144 
Q 1053 2284 737 2584 
Q 422 2884 422 3419 
Q 422 4038 858 4394 
Q 1294 4750 2059 4750 
Q 2388 4750 2728 4690 
Q 3069 4631 3425 4513 
z
" transform="scale(0.015625)"/>
       <path id="DejaVuSans-57" d="M 213 4666 
L 850 4666 
L 1831 722 
L 2809 4666 
L 3519 4666 
L 4500 722 
L 5478 4666 
L 6119 4666 
L 4947 0 
L 4153 0 
L 3169 4050 
L 2175 0 
L 1381 0 
L 213 4666 
z
" transform="scale(0.015625)"/>
      </defs>
      <use xlink:href="#DejaVuSans-53"/>
      <use xlink:href="#DejaVuSans-57" x="63.476562"/>
      <use xlink:href="#DejaVuSans-41" x="156.853516"/>
      <use xlink:href="#DejaVuSans-20" x="225.261719"/>
      <use xlink:href="#DejaVuSans-56" x="257.048828"/>
      <use xlink:href="#DejaVuSans-61" x="317.707031"/>
      <use xlink:href="#DejaVuSans-6c" x="378.986328"/>
      <use xlink:href="#DejaVuSans-69" x="406.769531"/>
      <use xlink:href="#DejaVuSans-64" x="434.552734"/>
      <use xlink:href="#DejaVuSans-61" x="498.029297"/>
      <use xlink:href="#DejaVuSans-74" x="559.308594"/>
      <use xlink:href="#DejaVuSans-69" x="598.517578"/>
      <use xlink:href="#DejaVuSans-6f" x="626.300781"/>
      <use xlink:href="#DejaVuSans-6e" x="687.482422"/>
      <use xlink:href="#DejaVuSans-20" x="750.861328"/>
      <use xlink:href="#DejaVuSans-41" x="782.648438"/>
      <use xlink:href="#DejaVuSans-63" x="849.306641"/>
      <use xlink:href="#DejaVuSans-63" x="904.287109"/>
      <use xlink:href="#DejaVuSans-75" x="959.267578"/>
      <use xlink:href="#DejaVuSans-72" x="1022.646484"/>
      <use xlink:href="#DejaVuSans-61" x="1063.759766"/>
      <use xlink:href="#DejaVuSans-63" x="1125.039062"/>
      <use xlink:href="#DejaVuSans-79" x="1180.019531"/>
     </g>
    </g>
    <g id="line2d_27">
     <path d="M 216.18875 293.004312 
L 226.18875 293.004312 
L 236.18875 293.004312 
" style="fill: none; stroke: #9467bd; stroke-width: 1.5; stroke-linecap: square"/>
    </g>
    <g id="text_25">
     <!-- SWA Robust Validation Accuracy -->
     <g transform="translate(244.18875 296.504312) scale(0.1 -0.1)">
      <use xlink:href="#DejaVuSans-53"/>
      <use xlink:href="#DejaVuSans-57" x="63.476562"/>
      <use xlink:href="#DejaVuSans-41" x="156.853516"/>
      <use xlink:href="#DejaVuSans-20" x="225.261719"/>
      <use xlink:href="#DejaVuSans-52" x="257.048828"/>
      <use xlink:href="#DejaVuSans-6f" x="322.03125"/>
      <use xlink:href="#DejaVuSans-62" x="383.212891"/>
      <use xlink:href="#DejaVuSans-75" x="446.689453"/>
      <use xlink:href="#DejaVuSans-73" x="510.068359"/>
      <use xlink:href="#DejaVuSans-74" x="562.167969"/>
      <use xlink:href="#DejaVuSans-20" x="601.376953"/>
      <use xlink:href="#DejaVuSans-56" x="633.164062"/>
      <use xlink:href="#DejaVuSans-61" x="693.822266"/>
      <use xlink:href="#DejaVuSans-6c" x="755.101562"/>
      <use xlink:href="#DejaVuSans-69" x="782.884766"/>
      <use xlink:href="#DejaVuSans-64" x="810.667969"/>
      <use xlink:href="#DejaVuSans-61" x="874.144531"/>
      <use xlink:href="#DejaVuSans-74" x="935.423828"/>
      <use xlink:href="#DejaVuSans-69" x="974.632812"/>
      <use xlink:href="#DejaVuSans-6f" x="1002.416016"/>
      <use xlink:href="#DejaVuSans-6e" x="1063.597656"/>
      <use xlink:href="#DejaVuSans-20" x="1126.976562"/>
      <use xlink:href="#DejaVuSans-41" x="1158.763672"/>
      <use xlink:href="#DejaVuSans-63" x="1225.421875"/>
      <use xlink:href="#DejaVuSans-63" x="1280.402344"/>
      <use xlink:href="#DejaVuSans-75" x="1335.382812"/>
      <use xlink:href="#DejaVuSans-72" x="1398.761719"/>
      <use xlink:href="#DejaVuSans-61" x="1439.875"/>
      <use xlink:href="#DejaVuSans-63" x="1501.154297"/>
      <use xlink:href="#DejaVuSans-79" x="1556.134766"/>
     </g>
    </g>
   </g>
  </g>
 </g>
 <defs>
  <clipPath id="p84897723e7">
   <rect x="57.6" y="41.472" width="357.12" height="266.112"/>
  </clipPath>
 </defs>
</svg>
