<?xml version="1.0" encoding="utf-8" standalone="no"?>
<!DOCTYPE svg PUBLIC "-//W3C//DTD SVG 1.1//EN"
  "http://www.w3.org/Graphics/SVG/1.1/DTD/svg11.dtd">
<svg xmlns:xlink="http://www.w3.org/1999/xlink" width="460.8pt" height="345.6pt" viewBox="0 0 460.8 345.6" xmlns="http://www.w3.org/2000/svg" version="1.1">
 <metadata>
  <rdf:RDF xmlns:dc="http://purl.org/dc/elements/1.1/" xmlns:cc="http://creativecommons.org/ns#" xmlns:rdf="http://www.w3.org/1999/02/22-rdf-syntax-ns#">
   <cc:Work>
    <dc:type rdf:resource="http://purl.org/dc/dcmitype/StillImage"/>
    <dc:date>2025-11-03T23:00:34.371350</dc:date>
    <dc:format>image/svg+xml</dc:format>
    <dc:creator>
     <cc:Agent>
      <dc:title>Matplotlib v3.9.1, https://matplotlib.org/</dc:title>
     </cc:Agent>
    </dc:creator>
   </cc:Work>
  </rdf:RDF>
 </metadata>
 <defs>
  <style type="text/css">*{stroke-linejoin: round; stroke-linecap: butt}</style>
 </defs>
 <g id="figure_1">
  <g id="patch_1">
   <path d="M 0 345.6 
L 460.8 345.6 
L 460.8 0 
L 0 0 
z
" style="fill: #ffffff"/>
  </g>
  <g id="axes_1">
   <g id="patch_2">
    <path d="M 57.6 307.584 
L 414.72 307.584 
L 414.72 41.472 
L 57.6 41.472 
z
" style="fill: #ffffff"/>
   </g>
   <g id="matplotlib.axis_1">
    <g id="xtick_1">
     <g id="line2d_1">
      <defs>
       <path id="m5cdaf40c23" d="M 0 0 
L 0 3.5 
" style="stroke: #000000; stroke-width: 0.8"/>
      </defs>
      <g>
       <use xlink:href="#m5cdaf40c23" x="73.832727" y="307.584" style="stroke: #000000; stroke-width: 0.8"/>
      </g>
     </g>
     <g id="text_1">
      <!-- 1 -->
      <g transform="translate(70.651477 322.182437) scale(0.1 -0.1)">
       <defs>
        <path id="DejaVuSans-31" d="M 794 531 
L 1825 531 
L 1825 4091 
L 703 3866 
L 703 4441 
L 1819 4666 
L 2450 4666 
L 2450 531 
L 3481 531 
L 3481 0 
L 794 0 
L 794 531 
z
" transform="scale(0.015625)"/>
       </defs>
       <use xlink:href="#DejaVuSans-31"/>
      </g>
     </g>
    </g>
    <g id="xtick_2">
     <g id="line2d_2">
      <g>
       <use xlink:href="#m5cdaf40c23" x="109.664165" y="307.584" style="stroke: #000000; stroke-width: 0.8"/>
      </g>
     </g>
     <g id="text_2">
      <!-- 34 -->
      <g transform="translate(103.301665 322.182437) scale(0.1 -0.1)">
       <defs>
        <path id="DejaVuSans-33" d="M 2597 2516 
Q 3050 2419 3304 2112 
Q 3559 1806 3559 1356 
Q 3559 666 3084 287 
Q 2609 -91 1734 -91 
Q 1441 -91 1130 -33 
Q 819 25 488 141 
L 488 750 
Q 750 597 1062 519 
Q 1375 441 1716 441 
Q 2309 441 2620 675 
Q 2931 909 2931 1356 
Q 2931 1769 2642 2001 
Q 2353 2234 1838 2234 
L 1294 2234 
L 1294 2753 
L 1863 2753 
Q 2328 2753 2575 2939 
Q 2822 3125 2822 3475 
Q 2822 3834 2567 4026 
Q 2313 4219 1838 4219 
Q 1578 4219 1281 4162 
Q 984 4106 628 3988 
L 628 4550 
Q 988 4650 1302 4700 
Q 1616 4750 1894 4750 
Q 2613 4750 3031 4423 
Q 3450 4097 3450 3541 
Q 3450 3153 3228 2886 
Q 3006 2619 2597 2516 
z
" transform="scale(0.015625)"/>
        <path id="DejaVuSans-34" d="M 2419 4116 
L 825 1625 
L 2419 1625 
L 2419 4116 
z
M 2253 4666 
L 3047 4666 
L 3047 1625 
L 3713 1625 
L 3713 1100 
L 3047 1100 
L 3047 0 
L 2419 0 
L 2419 1100 
L 313 1100 
L 313 1709 
L 2253 4666 
z
" transform="scale(0.015625)"/>
       </defs>
       <use xlink:href="#DejaVuSans-33"/>
       <use xlink:href="#DejaVuSans-34" x="63.623047"/>
      </g>
     </g>
    </g>
    <g id="xtick_3">
     <g id="line2d_3">
      <g>
       <use xlink:href="#m5cdaf40c23" x="145.495604" y="307.584" style="stroke: #000000; stroke-width: 0.8"/>
      </g>
     </g>
     <g id="text_3">
      <!-- 67 -->
      <g transform="translate(139.133104 322.182437) scale(0.1 -0.1)">
       <defs>
        <path id="DejaVuSans-36" d="M 2113 2584 
Q 1688 2584 1439 2293 
Q 1191 2003 1191 1497 
Q 1191 994 1439 701 
Q 1688 409 2113 409 
Q 2538 409 2786 701 
Q 3034 994 3034 1497 
Q 3034 2003 2786 2293 
Q 2538 2584 2113 2584 
z
M 3366 4563 
L 3366 3988 
Q 3128 4100 2886 4159 
Q 2644 4219 2406 4219 
Q 1781 4219 1451 3797 
Q 1122 3375 1075 2522 
Q 1259 2794 1537 2939 
Q 1816 3084 2150 3084 
Q 2853 3084 3261 2657 
Q 3669 2231 3669 1497 
Q 3669 778 3244 343 
Q 2819 -91 2113 -91 
Q 1303 -91 875 529 
Q 447 1150 447 2328 
Q 447 3434 972 4092 
Q 1497 4750 2381 4750 
Q 2619 4750 2861 4703 
Q 3103 4656 3366 4563 
z
" transform="scale(0.015625)"/>
        <path id="DejaVuSans-37" d="M 525 4666 
L 3525 4666 
L 3525 4397 
L 1831 0 
L 1172 0 
L 2766 4134 
L 525 4134 
L 525 4666 
z
" transform="scale(0.015625)"/>
       </defs>
       <use xlink:href="#DejaVuSans-36"/>
       <use xlink:href="#DejaVuSans-37" x="63.623047"/>
      </g>
     </g>
    </g>
    <g id="xtick_4">
     <g id="line2d_4">
      <g>
       <use xlink:href="#m5cdaf40c23" x="181.327042" y="307.584" style="stroke: #000000; stroke-width: 0.8"/>
      </g>
     </g>
     <g id="text_4">
      <!-- 100 -->
      <g transform="translate(171.783292 322.182437) scale(0.1 -0.1)">
       <defs>
        <path id="DejaVuSans-30" d="M 2034 4250 
Q 1547 4250 1301 3770 
Q 1056 3291 1056 2328 
Q 1056 1369 1301 889 
Q 1547 409 2034 409 
Q 2525 409 2770 889 
Q 3016 1369 3016 2328 
Q 3016 3291 2770 3770 
Q 2525 4250 2034 4250 
z
M 2034 4750 
Q 2819 4750 3233 4129 
Q 3647 3509 3647 2328 
Q 3647 1150 3233 529 
Q 2819 -91 2034 -91 
Q 1250 -91 836 529 
Q 422 1150 422 2328 
Q 422 3509 836 4129 
Q 1250 4750 2034 4750 
z
" transform="scale(0.015625)"/>
       </defs>
       <use xlink:href="#DejaVuSans-31"/>
       <use xlink:href="#DejaVuSans-30" x="63.623047"/>
       <use xlink:href="#DejaVuSans-30" x="127.246094"/>
      </g>
     </g>
    </g>
    <g id="xtick_5">
     <g id="line2d_5">
      <g>
       <use xlink:href="#m5cdaf40c23" x="217.15848" y="307.584" style="stroke: #000000; stroke-width: 0.8"/>
      </g>
     </g>
     <g id="text_5">
      <!-- 133 -->
      <g transform="translate(207.61473 322.182437) scale(0.1 -0.1)">
       <use xlink:href="#DejaVuSans-31"/>
       <use xlink:href="#DejaVuSans-33" x="63.623047"/>
       <use xlink:href="#DejaVuSans-33" x="127.246094"/>
      </g>
     </g>
    </g>
    <g id="xtick_6">
     <g id="line2d_6">
      <g>
       <use xlink:href="#m5cdaf40c23" x="254.075719" y="307.584" style="stroke: #000000; stroke-width: 0.8"/>
      </g>
     </g>
     <g id="text_6">
      <!-- 167 -->
      <g transform="translate(244.531969 322.182437) scale(0.1 -0.1)">
       <use xlink:href="#DejaVuSans-31"/>
       <use xlink:href="#DejaVuSans-36" x="63.623047"/>
       <use xlink:href="#DejaVuSans-37" x="127.246094"/>
      </g>
     </g>
    </g>
    <g id="xtick_7">
     <g id="line2d_7">
      <g>
       <use xlink:href="#m5cdaf40c23" x="289.907157" y="307.584" style="stroke: #000000; stroke-width: 0.8"/>
      </g>
     </g>
     <g id="text_7">
      <!-- 200 -->
      <g transform="translate(280.363407 322.182437) scale(0.1 -0.1)">
       <defs>
        <path id="DejaVuSans-32" d="M 1228 531 
L 3431 531 
L 3431 0 
L 469 0 
L 469 531 
Q 828 903 1448 1529 
Q 2069 2156 2228 2338 
Q 2531 2678 2651 2914 
Q 2772 3150 2772 3378 
Q 2772 3750 2511 3984 
Q 2250 4219 1831 4219 
Q 1534 4219 1204 4116 
Q 875 4013 500 3803 
L 500 4441 
Q 881 4594 1212 4672 
Q 1544 4750 1819 4750 
Q 2544 4750 2975 4387 
Q 3406 4025 3406 3419 
Q 3406 3131 3298 2873 
Q 3191 2616 2906 2266 
Q 2828 2175 2409 1742 
Q 1991 1309 1228 531 
z
" transform="scale(0.015625)"/>
       </defs>
       <use xlink:href="#DejaVuSans-32"/>
       <use xlink:href="#DejaVuSans-30" x="63.623047"/>
       <use xlink:href="#DejaVuSans-30" x="127.246094"/>
      </g>
     </g>
    </g>
    <g id="xtick_8">
     <g id="line2d_8">
      <g>
       <use xlink:href="#m5cdaf40c23" x="325.738595" y="307.584" style="stroke: #000000; stroke-width: 0.8"/>
      </g>
     </g>
     <g id="text_8">
      <!-- 233 -->
      <g transform="translate(316.194845 322.182437) scale(0.1 -0.1)">
       <use xlink:href="#DejaVuSans-32"/>
       <use xlink:href="#DejaVuSans-33" x="63.623047"/>
       <use xlink:href="#DejaVuSans-33" x="127.246094"/>
      </g>
     </g>
    </g>
    <g id="xtick_9">
     <g id="line2d_9">
      <g>
       <use xlink:href="#m5cdaf40c23" x="361.570033" y="307.584" style="stroke: #000000; stroke-width: 0.8"/>
      </g>
     </g>
     <g id="text_9">
      <!-- 266 -->
      <g transform="translate(352.026283 322.182437) scale(0.1 -0.1)">
       <use xlink:href="#DejaVuSans-32"/>
       <use xlink:href="#DejaVuSans-36" x="63.623047"/>
       <use xlink:href="#DejaVuSans-36" x="127.246094"/>
      </g>
     </g>
    </g>
    <g id="xtick_10">
     <g id="line2d_10">
      <g>
       <use xlink:href="#m5cdaf40c23" x="398.487273" y="307.584" style="stroke: #000000; stroke-width: 0.8"/>
      </g>
     </g>
     <g id="text_10">
      <!-- 300 -->
      <g transform="translate(388.943523 322.182437) scale(0.1 -0.1)">
       <use xlink:href="#DejaVuSans-33"/>
       <use xlink:href="#DejaVuSans-30" x="63.623047"/>
       <use xlink:href="#DejaVuSans-30" x="127.246094"/>
      </g>
     </g>
    </g>
    <g id="text_11">
     <!-- Epochs -->
     <g transform="translate(218.244375 335.860562) scale(0.1 -0.1)">
      <defs>
       <path id="DejaVuSans-45" d="M 628 4666 
L 3578 4666 
L 3578 4134 
L 1259 4134 
L 1259 2753 
L 3481 2753 
L 3481 2222 
L 1259 2222 
L 1259 531 
L 3634 531 
L 3634 0 
L 628 0 
L 628 4666 
z
" transform="scale(0.015625)"/>
       <path id="DejaVuSans-70" d="M 1159 525 
L 1159 -1331 
L 581 -1331 
L 581 3500 
L 1159 3500 
L 1159 2969 
Q 1341 3281 1617 3432 
Q 1894 3584 2278 3584 
Q 2916 3584 3314 3078 
Q 3713 2572 3713 1747 
Q 3713 922 3314 415 
Q 2916 -91 2278 -91 
Q 1894 -91 1617 61 
Q 1341 213 1159 525 
z
M 3116 1747 
Q 3116 2381 2855 2742 
Q 2594 3103 2138 3103 
Q 1681 3103 1420 2742 
Q 1159 2381 1159 1747 
Q 1159 1113 1420 752 
Q 1681 391 2138 391 
Q 2594 391 2855 752 
Q 3116 1113 3116 1747 
z
" transform="scale(0.015625)"/>
       <path id="DejaVuSans-6f" d="M 1959 3097 
Q 1497 3097 1228 2736 
Q 959 2375 959 1747 
Q 959 1119 1226 758 
Q 1494 397 1959 397 
Q 2419 397 2687 759 
Q 2956 1122 2956 1747 
Q 2956 2369 2687 2733 
Q 2419 3097 1959 3097 
z
M 1959 3584 
Q 2709 3584 3137 3096 
Q 3566 2609 3566 1747 
Q 3566 888 3137 398 
Q 2709 -91 1959 -91 
Q 1206 -91 779 398 
Q 353 888 353 1747 
Q 353 2609 779 3096 
Q 1206 3584 1959 3584 
z
" transform="scale(0.015625)"/>
       <path id="DejaVuSans-63" d="M 3122 3366 
L 3122 2828 
Q 2878 2963 2633 3030 
Q 2388 3097 2138 3097 
Q 1578 3097 1268 2742 
Q 959 2388 959 1747 
Q 959 1106 1268 751 
Q 1578 397 2138 397 
Q 2388 397 2633 464 
Q 2878 531 3122 666 
L 3122 134 
Q 2881 22 2623 -34 
Q 2366 -91 2075 -91 
Q 1284 -91 818 406 
Q 353 903 353 1747 
Q 353 2603 823 3093 
Q 1294 3584 2113 3584 
Q 2378 3584 2631 3529 
Q 2884 3475 3122 3366 
z
" transform="scale(0.015625)"/>
       <path id="DejaVuSans-68" d="M 3513 2113 
L 3513 0 
L 2938 0 
L 2938 2094 
Q 2938 2591 2744 2837 
Q 2550 3084 2163 3084 
Q 1697 3084 1428 2787 
Q 1159 2491 1159 1978 
L 1159 0 
L 581 0 
L 581 4863 
L 1159 4863 
L 1159 2956 
Q 1366 3272 1645 3428 
Q 1925 3584 2291 3584 
Q 2894 3584 3203 3211 
Q 3513 2838 3513 2113 
z
" transform="scale(0.015625)"/>
       <path id="DejaVuSans-73" d="M 2834 3397 
L 2834 2853 
Q 2591 2978 2328 3040 
Q 2066 3103 1784 3103 
Q 1356 3103 1142 2972 
Q 928 2841 928 2578 
Q 928 2378 1081 2264 
Q 1234 2150 1697 2047 
L 1894 2003 
Q 2506 1872 2764 1633 
Q 3022 1394 3022 966 
Q 3022 478 2636 193 
Q 2250 -91 1575 -91 
Q 1294 -91 989 -36 
Q 684 19 347 128 
L 347 722 
Q 666 556 975 473 
Q 1284 391 1588 391 
Q 1994 391 2212 530 
Q 2431 669 2431 922 
Q 2431 1156 2273 1281 
Q 2116 1406 1581 1522 
L 1381 1569 
Q 847 1681 609 1914 
Q 372 2147 372 2553 
Q 372 3047 722 3315 
Q 1072 3584 1716 3584 
Q 2034 3584 2315 3537 
Q 2597 3491 2834 3397 
z
" transform="scale(0.015625)"/>
      </defs>
      <use xlink:href="#DejaVuSans-45"/>
      <use xlink:href="#DejaVuSans-70" x="63.183594"/>
      <use xlink:href="#DejaVuSans-6f" x="126.660156"/>
      <use xlink:href="#DejaVuSans-63" x="187.841797"/>
      <use xlink:href="#DejaVuSans-68" x="242.822266"/>
      <use xlink:href="#DejaVuSans-73" x="306.201172"/>
     </g>
    </g>
   </g>
   <g id="matplotlib.axis_2">
    <g id="ytick_1">
     <g id="line2d_11">
      <defs>
       <path id="m50a3f40280" d="M 0 0 
L -3.5 0 
" style="stroke: #000000; stroke-width: 0.8"/>
      </defs>
      <g>
       <use xlink:href="#m50a3f40280" x="57.6" y="252.157749" style="stroke: #000000; stroke-width: 0.8"/>
      </g>
     </g>
     <g id="text_12">
      <!-- 20 -->
      <g transform="translate(37.875 255.956968) scale(0.1 -0.1)">
       <use xlink:href="#DejaVuSans-32"/>
       <use xlink:href="#DejaVuSans-30" x="63.623047"/>
      </g>
     </g>
    </g>
    <g id="ytick_2">
     <g id="line2d_12">
      <g>
       <use xlink:href="#m50a3f40280" x="57.6" y="195.221798" style="stroke: #000000; stroke-width: 0.8"/>
      </g>
     </g>
     <g id="text_13">
      <!-- 40 -->
      <g transform="translate(37.875 199.021017) scale(0.1 -0.1)">
       <use xlink:href="#DejaVuSans-34"/>
       <use xlink:href="#DejaVuSans-30" x="63.623047"/>
      </g>
     </g>
    </g>
    <g id="ytick_3">
     <g id="line2d_13">
      <g>
       <use xlink:href="#m50a3f40280" x="57.6" y="138.285848" style="stroke: #000000; stroke-width: 0.8"/>
      </g>
     </g>
     <g id="text_14">
      <!-- 60 -->
      <g transform="translate(37.875 142.085066) scale(0.1 -0.1)">
       <use xlink:href="#DejaVuSans-36"/>
       <use xlink:href="#DejaVuSans-30" x="63.623047"/>
      </g>
     </g>
    </g>
    <g id="ytick_4">
     <g id="line2d_14">
      <g>
       <use xlink:href="#m50a3f40280" x="57.6" y="81.349897" style="stroke: #000000; stroke-width: 0.8"/>
      </g>
     </g>
     <g id="text_15">
      <!-- 80 -->
      <g transform="translate(37.875 85.149116) scale(0.1 -0.1)">
       <defs>
        <path id="DejaVuSans-38" d="M 2034 2216 
Q 1584 2216 1326 1975 
Q 1069 1734 1069 1313 
Q 1069 891 1326 650 
Q 1584 409 2034 409 
Q 2484 409 2743 651 
Q 3003 894 3003 1313 
Q 3003 1734 2745 1975 
Q 2488 2216 2034 2216 
z
M 1403 2484 
Q 997 2584 770 2862 
Q 544 3141 544 3541 
Q 544 4100 942 4425 
Q 1341 4750 2034 4750 
Q 2731 4750 3128 4425 
Q 3525 4100 3525 3541 
Q 3525 3141 3298 2862 
Q 3072 2584 2669 2484 
Q 3125 2378 3379 2068 
Q 3634 1759 3634 1313 
Q 3634 634 3220 271 
Q 2806 -91 2034 -91 
Q 1263 -91 848 271 
Q 434 634 434 1313 
Q 434 1759 690 2068 
Q 947 2378 1403 2484 
z
M 1172 3481 
Q 1172 3119 1398 2916 
Q 1625 2713 2034 2713 
Q 2441 2713 2670 2916 
Q 2900 3119 2900 3481 
Q 2900 3844 2670 4047 
Q 2441 4250 2034 4250 
Q 1625 4250 1398 4047 
Q 1172 3844 1172 3481 
z
" transform="scale(0.015625)"/>
       </defs>
       <use xlink:href="#DejaVuSans-38"/>
       <use xlink:href="#DejaVuSans-30" x="63.623047"/>
      </g>
     </g>
    </g>
    <g id="text_16">
     <!-- Accuracy -->
     <g transform="translate(31.795312 197.356125) rotate(-90) scale(0.1 -0.1)">
      <defs>
       <path id="DejaVuSans-41" d="M 2188 4044 
L 1331 1722 
L 3047 1722 
L 2188 4044 
z
M 1831 4666 
L 2547 4666 
L 4325 0 
L 3669 0 
L 3244 1197 
L 1141 1197 
L 716 0 
L 50 0 
L 1831 4666 
z
" transform="scale(0.015625)"/>
       <path id="DejaVuSans-75" d="M 544 1381 
L 544 3500 
L 1119 3500 
L 1119 1403 
Q 1119 906 1312 657 
Q 1506 409 1894 409 
Q 2359 409 2629 706 
Q 2900 1003 2900 1516 
L 2900 3500 
L 3475 3500 
L 3475 0 
L 2900 0 
L 2900 538 
Q 2691 219 2414 64 
Q 2138 -91 1772 -91 
Q 1169 -91 856 284 
Q 544 659 544 1381 
z
M 1991 3584 
L 1991 3584 
z
" transform="scale(0.015625)"/>
       <path id="DejaVuSans-72" d="M 2631 2963 
Q 2534 3019 2420 3045 
Q 2306 3072 2169 3072 
Q 1681 3072 1420 2755 
Q 1159 2438 1159 1844 
L 1159 0 
L 581 0 
L 581 3500 
L 1159 3500 
L 1159 2956 
Q 1341 3275 1631 3429 
Q 1922 3584 2338 3584 
Q 2397 3584 2469 3576 
Q 2541 3569 2628 3553 
L 2631 2963 
z
" transform="scale(0.015625)"/>
       <path id="DejaVuSans-61" d="M 2194 1759 
Q 1497 1759 1228 1600 
Q 959 1441 959 1056 
Q 959 750 1161 570 
Q 1363 391 1709 391 
Q 2188 391 2477 730 
Q 2766 1069 2766 1631 
L 2766 1759 
L 2194 1759 
z
M 3341 1997 
L 3341 0 
L 2766 0 
L 2766 531 
Q 2569 213 2275 61 
Q 1981 -91 1556 -91 
Q 1019 -91 701 211 
Q 384 513 384 1019 
Q 384 1609 779 1909 
Q 1175 2209 1959 2209 
L 2766 2209 
L 2766 2266 
Q 2766 2663 2505 2880 
Q 2244 3097 1772 3097 
Q 1472 3097 1187 3025 
Q 903 2953 641 2809 
L 641 3341 
Q 956 3463 1253 3523 
Q 1550 3584 1831 3584 
Q 2591 3584 2966 3190 
Q 3341 2797 3341 1997 
z
" transform="scale(0.015625)"/>
       <path id="DejaVuSans-79" d="M 2059 -325 
Q 1816 -950 1584 -1140 
Q 1353 -1331 966 -1331 
L 506 -1331 
L 506 -850 
L 844 -850 
Q 1081 -850 1212 -737 
Q 1344 -625 1503 -206 
L 1606 56 
L 191 3500 
L 800 3500 
L 1894 763 
L 2988 3500 
L 3597 3500 
L 2059 -325 
z
" transform="scale(0.015625)"/>
      </defs>
      <use xlink:href="#DejaVuSans-41"/>
      <use xlink:href="#DejaVuSans-63" x="66.658203"/>
      <use xlink:href="#DejaVuSans-63" x="121.638672"/>
      <use xlink:href="#DejaVuSans-75" x="176.619141"/>
      <use xlink:href="#DejaVuSans-72" x="239.998047"/>
      <use xlink:href="#DejaVuSans-61" x="281.111328"/>
      <use xlink:href="#DejaVuSans-63" x="342.390625"/>
      <use xlink:href="#DejaVuSans-79" x="397.371094"/>
     </g>
    </g>
   </g>
   <g id="line2d_15">
    <path d="M 73.832727 291.850647 
L 74.918528 267.706957 
L 76.00433 249.888851 
L 77.090131 236.87614 
L 78.175932 225.619902 
L 79.261733 216.93717 
L 81.433335 202.142363 
L 83.604938 190.066248 
L 85.77654 179.422072 
L 86.862341 174.87289 
L 87.948142 169.387111 
L 89.033943 164.766758 
L 90.119745 160.724306 
L 92.291347 154.663474 
L 93.377148 152.676409 
L 94.462949 151.623094 
L 95.54875 185.648018 
L 96.634552 184.802519 
L 97.720353 181.212708 
L 98.806154 178.323208 
L 99.891955 174.830188 
L 102.063557 169.102431 
L 106.406762 158.882428 
L 108.578364 152.898459 
L 109.664165 150.783289 
L 111.835768 145.078307 
L 114.00737 141.050088 
L 115.093171 137.45743 
L 117.264773 132.780141 
L 118.350575 129.557566 
L 120.522177 124.05186 
L 121.607978 120.79797 
L 123.77958 116.180465 
L 125.951183 110.410006 
L 127.036984 107.88205 
L 128.122785 105.863671 
L 129.208586 103.293012 
L 131.380189 99.133841 
L 132.46599 98.15739 
L 133.551791 96.380988 
L 134.637592 95.142631 
L 135.723393 94.419545 
L 136.809194 93.440246 
L 137.894995 93.226736 
L 138.980797 144.85341 
L 140.066598 147.720135 
L 141.152399 146.800619 
L 142.2382 145.038451 
L 143.324001 144.118936 
L 144.409802 142.521882 
L 145.495604 141.912668 
L 146.581405 139.122806 
L 147.667206 138.732795 
L 148.753007 137.167056 
L 149.838808 136.130822 
L 150.924609 134.34588 
L 154.182013 130.952497 
L 155.267814 129.865021 
L 156.353615 128.139861 
L 157.439416 127.194725 
L 159.611019 124.515888 
L 160.69682 122.859052 
L 161.782621 122.042021 
L 162.868422 120.279853 
L 163.954223 119.326176 
L 166.125825 116.843769 
L 168.297428 114.270264 
L 169.383229 113.066068 
L 170.46903 111.494636 
L 172.640632 109.183037 
L 174.812235 106.128423 
L 175.898036 105.151971 
L 176.983837 103.432506 
L 179.155439 100.91309 
L 180.24124 99.2591 
L 181.327042 97.132543 
L 182.412843 96.400916 
L 183.498644 94.399617 
L 184.584445 93.403238 
L 185.670246 92.170574 
L 187.841849 88.822741 
L 188.92765 87.57015 
L 191.099252 84.492762 
L 192.185053 83.550472 
L 193.270854 81.583334 
L 194.356656 80.532866 
L 196.528258 77.150871 
L 197.614059 76.239896 
L 198.69986 74.66277 
L 201.957264 71.055877 
L 205.214667 68.20908 
L 206.300468 66.933714 
L 208.472071 64.892561 
L 209.557872 63.970198 
L 210.643673 63.679825 
L 211.729474 62.586655 
L 212.815275 62.301975 
L 213.901076 61.735462 
L 214.986877 60.995295 
L 217.15848 60.303523 
L 218.244281 59.680074 
L 220.415883 59.244514 
L 221.501684 59.272982 
L 222.587486 58.672308 
L 223.673287 59.065166 
L 224.759088 58.800414 
L 225.844889 123.906673 
L 226.93069 129.008135 
L 228.016491 128.048764 
L 229.102292 126.756318 
L 230.188094 126.252435 
L 231.273895 125.227587 
L 232.359696 123.895286 
L 234.531298 122.067642 
L 235.617099 120.510444 
L 236.702901 120.336789 
L 237.788702 118.722655 
L 238.874503 119.004488 
L 239.960304 117.714889 
L 241.046105 116.954794 
L 242.131906 116.51354 
L 243.217708 115.582637 
L 244.303509 114.221868 
L 245.38931 114.290191 
L 246.475111 113.134392 
L 247.560912 112.946503 
L 248.646713 112.60204 
L 249.732514 111.693912 
L 250.818316 110.999293 
L 251.904117 110.455555 
L 252.989918 109.786558 
L 254.075719 108.969527 
L 255.16152 109.074858 
L 256.247321 108.112641 
L 257.333123 107.665693 
L 258.418924 106.971075 
L 259.504725 106.589604 
L 260.590526 106.805961 
L 261.676327 105.564757 
L 262.762128 105.109269 
L 263.847929 104.289392 
L 264.933731 104.243843 
L 266.019532 103.324327 
L 267.105333 103.540684 
L 268.191134 102.65533 
L 269.276935 102.162834 
L 270.362736 101.026962 
L 271.448538 100.84192 
L 272.534339 100.010655 
L 273.62014 100.010655 
L 274.705941 98.911791 
L 275.791742 98.658426 
L 276.877543 98.67266 
L 277.963344 97.72183 
L 279.049146 97.323278 
L 280.134947 96.480626 
L 281.220748 96.250035 
L 282.306549 95.438698 
L 284.478151 94.758313 
L 285.563953 93.804636 
L 286.649754 93.591126 
L 287.735555 93.246664 
L 288.821356 92.196196 
L 289.907157 91.413326 
L 290.992958 91.552819 
L 292.07876 90.62761 
L 294.250362 89.201365 
L 295.336163 89.434802 
L 296.421964 88.16513 
L 297.507765 87.424963 
L 298.593566 87.128896 
L 299.679368 86.71611 
L 300.765169 86.434277 
L 301.85097 85.526149 
L 302.936771 84.96533 
L 304.022572 84.131218 
L 305.108373 84.310567 
L 306.194175 82.949797 
L 308.365777 81.324276 
L 310.537379 80.632504 
L 311.62318 80.157089 
L 312.708981 79.416922 
L 314.880584 78.588503 
L 315.966385 77.592124 
L 317.052186 77.600665 
L 318.137987 76.678302 
L 319.223788 75.980837 
L 320.30959 75.132491 
L 321.395391 74.119031 
L 322.481192 73.877054 
L 323.566993 73.250758 
L 324.652794 73.4358 
L 326.824396 71.394646 
L 327.910198 71.383259 
L 328.995999 70.734189 
L 330.0818 69.547075 
L 333.339203 68.647487 
L 334.425005 67.821915 
L 335.510806 67.414823 
L 338.768209 65.012126 
L 339.85401 64.858399 
L 340.939811 64.508243 
L 343.111414 63.073457 
L 344.197215 62.854254 
L 345.283016 61.886342 
L 346.368817 61.669986 
L 347.454618 60.45725 
L 348.54042 60.60813 
L 349.626221 60.275055 
L 350.712022 60.183957 
L 351.797823 59.315684 
L 353.969425 58.672308 
L 356.141028 57.140731 
L 357.226829 57.220441 
L 358.31263 56.562831 
L 359.398431 56.363555 
L 360.484232 55.922302 
L 361.570033 55.748647 
L 362.655835 55.358636 
L 363.741636 54.698179 
L 364.827437 55.196368 
L 365.913238 53.977939 
L 366.999039 53.568 
L 368.08484 55.056875 
L 369.170642 56.056101 
L 370.256443 56.9016 
L 371.342244 58.58121 
L 372.428045 60.471484 
L 373.513846 60.613824 
L 374.599647 61.217345 
L 376.77125 60.801713 
L 377.857051 61.282821 
L 378.942852 61.04369 
L 380.028653 61.260047 
L 381.114454 61.638671 
L 382.200255 61.379612 
L 384.371858 61.732615 
L 385.457659 61.482097 
L 386.54346 61.792398 
L 388.715062 61.869262 
L 389.800863 61.860721 
L 390.886665 62.173869 
L 391.972466 62.336136 
L 393.058267 61.783858 
L 394.144068 62.045763 
L 395.229869 62.717607 
L 396.31567 62.196643 
L 398.487273 62.384532 
L 398.487273 62.384532 
" clip-path="url(#pfbbc52f0c5)" style="fill: none; stroke: #1f77b4; stroke-width: 1.5; stroke-linecap: square"/>
   </g>
   <g id="line2d_16">
    <path d="M 73.832727 275.046001 
L 74.918528 254.150507 
L 76.00433 240.514347 
L 77.090131 228.700137 
L 78.175932 224.800025 
L 79.261733 209.797402 
L 80.347534 202.65194 
L 81.433335 198.182468 
L 82.519137 190.55305 
L 83.604938 184.717115 
L 84.690739 181.955722 
L 85.77654 173.329925 
L 86.862341 173.130649 
L 87.948142 169.002793 
L 89.033943 166.440675 
L 90.119745 162.085075 
L 91.205546 160.974824 
L 92.291347 159.352149 
L 93.377148 159.864573 
L 94.462949 159.352149 
L 95.54875 190.41071 
L 96.634552 184.830987 
L 97.720353 176.034383 
L 98.806154 171.137891 
L 99.891955 173.386861 
L 100.977756 171.451039 
L 102.063557 168.234158 
L 103.149358 166.981567 
L 104.23516 163.480006 
L 105.320961 160.775548 
L 106.406762 159.978445 
L 107.492563 157.957219 
L 108.578364 160.576272 
L 109.664165 156.846968 
L 110.749967 157.587135 
L 111.835768 154.768805 
L 112.921569 153.060727 
L 114.00737 151.722732 
L 115.093171 146.114541 
L 116.178972 146.712368 
L 117.264773 146.484625 
L 118.350575 143.865571 
L 119.436376 145.260502 
L 120.522177 142.869192 
L 121.607978 141.616601 
L 122.693779 142.356768 
L 123.77958 140.990305 
L 124.865382 139.339163 
L 125.951183 137.944232 
L 127.036984 137.261001 
L 128.122785 137.517212 
L 129.208586 137.631084 
L 130.294387 134.983563 
L 131.380189 134.101055 
L 132.46599 133.446292 
L 133.551791 133.560164 
L 134.637592 132.734592 
L 136.809194 132.478381 
L 137.894995 132.449913 
L 138.980797 162.312819 
L 140.066598 160.348529 
L 141.152399 157.786411 
L 142.2382 157.900283 
L 143.324001 154.768805 
L 144.409802 154.626465 
L 145.495604 155.82212 
L 146.581405 153.772426 
L 147.667206 153.402343 
L 148.753007 151.836604 
L 149.838808 153.971702 
L 150.924609 153.003791 
L 153.096212 149.92925 
L 154.182013 150.100057 
L 155.267814 152.092816 
L 156.353615 150.498609 
L 157.439416 151.096437 
L 158.525217 149.21755 
L 159.611019 148.107299 
L 160.69682 151.096437 
L 161.782621 152.349027 
L 162.868422 149.274486 
L 163.954223 146.570028 
L 165.040024 146.570028 
L 166.125825 148.733595 
L 167.211627 145.972201 
L 168.297428 146.911644 
L 169.383229 146.740836 
L 170.46903 145.28897 
L 171.554831 147.367132 
L 172.640632 146.199945 
L 173.726434 147.025516 
L 174.812235 145.659053 
L 175.898036 143.922507 
L 176.983837 143.495487 
L 178.069638 147.053984 
L 179.155439 141.104177 
L 180.24124 143.609359 
L 181.327042 139.79465 
L 182.412843 143.267743 
L 183.498644 142.299832 
L 184.584445 139.310695 
L 185.670246 138.285848 
L 187.841849 141.901281 
L 188.92765 140.22167 
L 190.013451 137.887296 
L 191.099252 138.314316 
L 192.185053 137.9727 
L 193.270854 138.769803 
L 194.356656 137.9727 
L 195.442457 136.720109 
L 196.528258 135.86607 
L 197.614059 136.663173 
L 198.69986 135.638326 
L 199.785661 135.097434 
L 200.871462 137.488744 
L 201.957264 137.317937 
L 203.043065 133.958715 
L 204.128866 134.015651 
L 205.214667 134.499607 
L 206.300468 132.819996 
L 207.386269 134.072587 
L 209.557872 130.998046 
L 210.643673 132.165233 
L 211.729474 132.535317 
L 212.815275 132.449913 
L 213.901076 130.827238 
L 214.986877 130.542558 
L 216.072679 131.766681 
L 217.15848 130.457154 
L 218.244281 130.371751 
L 219.330082 129.916263 
L 220.415883 131.254258 
L 224.759088 130.115539 
L 225.844889 160.4624 
L 226.93069 164.334045 
L 228.016491 162.910646 
L 229.102292 156.049864 
L 230.188094 158.583514 
L 231.273895 160.006913 
L 232.359696 153.060727 
L 233.445497 159.152874 
L 234.531298 159.579893 
L 235.617099 156.021396 
L 236.702901 155.224293 
L 237.788702 156.989307 
L 238.874503 154.256382 
L 239.960304 152.491367 
L 241.046105 154.42719 
L 242.131906 155.622845 
L 243.217708 154.911145 
L 244.303509 159.949977 
L 245.38931 154.597998 
L 246.475111 151.124905 
L 247.560912 150.584013 
L 248.646713 154.512594 
L 249.732514 149.50223 
L 250.818316 153.430811 
L 251.904117 150.868693 
L 252.989918 150.100057 
L 254.075719 152.491367 
L 255.16152 152.320559 
L 256.247321 154.882677 
L 257.333123 154.968081 
L 258.418924 149.815378 
L 259.504725 154.085574 
L 260.590526 150.327801 
L 261.676327 149.50223 
L 262.762128 152.405963 
L 263.847929 158.099558 
L 264.933731 153.260003 
L 266.019532 152.349027 
L 267.105333 152.320559 
L 268.191134 153.459279 
L 269.276935 158.697386 
L 270.362736 147.53794 
L 271.448538 151.580392 
L 272.534339 149.92925 
L 273.62014 151.267244 
L 274.705941 149.07521 
L 275.791742 145.829861 
L 276.877543 156.67616 
L 277.963344 150.470141 
L 279.049146 153.402343 
L 280.134947 147.53794 
L 281.220748 147.708747 
L 282.306549 148.448915 
L 283.39235 147.082452 
L 284.478151 146.370753 
L 285.563953 151.096437 
L 286.649754 151.409584 
L 287.735555 148.335043 
L 288.821356 154.085574 
L 289.907157 149.559166 
L 290.992958 149.559166 
L 292.07876 150.612481 
L 293.164561 151.267244 
L 294.250362 148.477383 
L 295.336163 149.388358 
L 296.421964 148.989806 
L 297.507765 149.50223 
L 298.593566 146.626964 
L 299.679368 151.210308 
L 300.765169 149.132146 
L 301.85097 147.3956 
L 302.936771 146.143009 
L 304.022572 146.570028 
L 305.108373 147.224792 
L 306.194175 146.96858 
L 307.279976 145.772925 
L 308.365777 149.900782 
L 309.451578 150.754821 
L 310.537379 145.516713 
L 311.62318 146.171477 
L 312.708981 147.964959 
L 313.794783 142.983064 
L 314.880584 144.634206 
L 315.966385 148.448915 
L 317.052186 143.011532 
L 318.137987 145.175098 
L 319.223788 142.47064 
L 321.395391 143.210807 
L 322.481192 144.947354 
L 323.566993 142.299832 
L 324.652794 143.979443 
L 325.738595 143.324679 
L 326.824396 143.353147 
L 327.910198 144.264122 
L 328.995999 139.424567 
L 330.0818 141.018773 
L 331.167601 144.29259 
L 332.253402 141.588133 
L 333.339203 141.360389 
L 334.425005 142.527576 
L 335.510806 141.559665 
L 336.596607 141.303453 
L 337.682408 139.054483 
L 338.768209 141.502729 
L 340.939811 137.68802 
L 342.025613 138.542059 
L 343.111414 138.371252 
L 344.197215 137.887296 
L 345.283016 137.033257 
L 346.368817 136.862449 
L 347.454618 137.431808 
L 348.54042 140.107798 
L 349.626221 137.261001 
L 351.797823 137.346404 
L 352.883624 134.157991 
L 355.055227 137.033257 
L 356.141028 137.004789 
L 357.226829 135.58139 
L 358.31263 135.012031 
L 359.398431 134.955095 
L 360.484232 135.979942 
L 361.570033 133.588632 
L 362.655835 133.19008 
L 363.741636 133.218548 
L 364.827437 131.567406 
L 365.913238 131.595873 
L 368.08484 132.649189 
L 369.170642 135.638326 
L 370.256443 137.090193 
L 371.342244 136.947853 
L 372.428045 138.542059 
L 373.513846 137.716488 
L 374.599647 136.720109 
L 375.685448 138.855207 
L 376.77125 138.143508 
L 377.857051 136.976321 
L 378.942852 138.598995 
L 380.028653 139.737714 
L 381.114454 138.826739 
L 382.200255 138.200444 
L 383.286057 139.908522 
L 384.371858 138.143508 
L 385.457659 139.196823 
L 386.54346 138.143508 
L 387.629261 139.93699 
L 388.715062 138.428188 
L 389.800863 140.050862 
L 390.886665 138.627463 
L 391.972466 138.171976 
L 393.058267 140.420946 
L 394.144068 137.9727 
L 395.229869 143.922507 
L 396.31567 142.783788 
L 397.401472 137.374872 
L 398.487273 140.164734 
L 398.487273 140.164734 
" clip-path="url(#pfbbc52f0c5)" style="fill: none; stroke: #ff7f0e; stroke-width: 1.5; stroke-linecap: square"/>
   </g>
   <g id="line2d_17">
    <path d="M 73.832727 295.488 
L 74.918528 285.455601 
L 76.00433 282.490946 
L 77.090131 274.264555 
L 78.175932 264.919373 
L 79.261733 267.903386 
L 80.347534 264.350013 
L 81.433335 255.652477 
L 82.519137 257.870987 
L 83.604938 251.588389 
L 84.690739 250.744029 
L 85.77654 251.215459 
L 86.862341 246.326653 
L 87.948142 245.737651 
L 89.033943 244.068858 
L 90.119745 242.831925 
L 91.205546 242.086064 
L 92.291347 240.142271 
L 93.377148 241.575633 
L 94.462949 241.359561 
L 95.54875 253.61047 
L 96.634552 258.204631 
L 97.720353 246.542725 
L 98.806154 251.509818 
L 99.891955 248.211518 
L 100.977756 248.152589 
L 102.063557 246.483797 
L 103.149358 242.910496 
L 104.23516 238.473478 
L 105.320961 236.9029 
L 106.406762 238.768121 
L 107.492563 234.91982 
L 108.578364 239.396125 
L 109.664165 240.3387 
L 110.749967 240.966988 
L 111.835768 234.762962 
L 112.921569 232.033737 
L 114.00737 233.97753 
L 115.093171 232.681668 
L 116.178972 229.992014 
L 117.264773 229.795585 
L 118.350575 228.205364 
L 119.436376 231.11109 
L 120.522177 226.183284 
L 121.607978 227.773456 
L 122.693779 225.476384 
L 123.77958 224.003903 
L 124.865382 221.274904 
L 125.951183 221.88353 
L 127.036984 223.768306 
L 128.122785 223.316745 
L 129.208586 221.628299 
L 130.294387 221.844263 
L 131.380189 220.057653 
L 132.46599 219.566825 
L 133.551791 220.921508 
L 134.637592 220.371782 
L 135.723393 218.70297 
L 136.809194 219.959487 
L 137.894995 219.743523 
L 138.980797 240.731293 
L 140.066598 235.528525 
L 141.152399 234.625403 
L 142.2382 230.777318 
L 143.324001 236.097884 
L 145.495604 235.587424 
L 146.581405 230.522088 
L 148.753007 235.410726 
L 149.838808 232.95659 
L 150.924609 234.03641 
L 152.01041 231.42521 
L 153.096212 226.242075 
L 154.182013 231.169979 
L 155.267814 237.177704 
L 156.353615 225.26042 
L 157.439416 234.311273 
L 158.525217 230.384656 
L 159.611019 227.655657 
L 160.69682 230.404289 
L 161.782621 235.764122 
L 162.868422 231.091447 
L 163.954223 231.091447 
L 165.040024 230.227591 
L 166.125825 228.990707 
L 167.211627 226.831067 
L 168.297428 221.746098 
L 170.46903 227.243362 
L 171.554831 228.087585 
L 172.640632 223.925371 
L 173.726434 228.539146 
L 174.812235 228.539146 
L 175.898036 225.044457 
L 176.983837 229.77603 
L 178.069638 226.379506 
L 179.155439 225.515651 
L 180.24124 219.645358 
L 181.327042 219.252696 
L 182.412843 225.986845 
L 183.498644 219.331228 
L 184.584445 226.772168 
L 185.670246 219.841689 
L 186.756047 221.962062 
L 187.841849 225.142622 
L 188.92765 222.413623 
L 190.013451 218.408473 
L 191.099252 219.409761 
L 192.185053 220.077286 
L 193.270854 221.333803 
L 194.356656 223.257846 
L 195.442457 222.413623 
L 196.528258 216.621862 
L 197.614059 217.348287 
L 198.69986 215.659841 
L 199.785661 216.425532 
L 200.871462 218.015812 
L 201.957264 218.349574 
L 204.128866 212.714878 
L 205.214667 218.860034 
L 206.300468 216.484431 
L 207.386269 215.110115 
L 208.472071 212.518547 
L 209.557872 213.343137 
L 210.643673 216.013237 
L 211.729474 215.71874 
L 212.815275 213.519835 
L 213.901076 215.286813 
L 214.986877 213.559101 
L 217.15848 212.066986 
L 218.244281 213.205705 
L 220.415883 213.460936 
L 221.501684 212.655979 
L 222.587486 212.02772 
L 223.673287 212.498914 
L 224.759088 212.557814 
L 225.844889 241.909278 
L 226.93069 237.079538 
L 228.016491 240.39753 
L 229.102292 235.62669 
L 230.188094 242.949831 
L 231.273895 232.995857 
L 232.359696 233.624115 
L 233.445497 233.506317 
L 234.531298 235.764122 
L 235.617099 240.593861 
L 236.702901 233.035123 
L 237.788702 230.482821 
L 238.874503 238.453855 
L 239.960304 231.955303 
L 241.046105 230.541721 
L 242.131906 233.054756 
L 243.217708 234.448705 
L 244.303509 240.947257 
L 245.38931 232.897691 
L 246.475111 233.054756 
L 247.560912 232.44613 
L 248.646713 235.665956 
L 249.732514 232.328332 
L 250.818316 237.688164 
L 251.904117 231.228879 
L 252.989918 225.790514 
L 254.075719 233.761547 
L 255.16152 235.921186 
L 256.247321 234.311273 
L 257.333123 234.134576 
L 258.418924 230.070527 
L 259.504725 237.138438 
L 260.590526 230.247224 
L 261.676327 232.779893 
L 262.762128 229.128138 
L 263.847929 245.443233 
L 264.933731 237.020639 
L 266.019532 235.469625 
L 267.105333 229.599333 
L 268.191134 225.790514 
L 269.276935 232.799526 
L 270.362736 232.033835 
L 271.448538 228.24465 
L 272.534339 227.459326 
L 273.62014 230.011627 
L 274.705941 233.329619 
L 275.791742 225.496018 
L 276.877543 237.511466 
L 277.963344 237.040272 
L 279.049146 239.828171 
L 280.134947 233.702648 
L 281.220748 235.096597 
L 282.306549 230.895116 
L 283.39235 218.271042 
L 284.478151 224.062802 
L 285.563953 227.93052 
L 286.649754 236.942107 
L 287.735555 224.691061 
L 288.821356 227.596758 
L 289.907157 226.497305 
L 290.992958 222.551055 
L 292.07876 229.383369 
L 293.164561 233.113655 
L 294.250362 230.757685 
L 295.336163 231.346677 
L 296.421964 227.16483 
L 297.507765 229.442268 
L 298.593566 228.971074 
L 299.679368 235.901553 
L 300.765169 225.57455 
L 301.85097 225.82978 
L 302.936771 224.691061 
L 304.022572 224.49473 
L 305.108373 230.109793 
L 306.194175 227.793089 
L 307.279976 226.929233 
L 308.365777 231.268145 
L 309.451578 225.790514 
L 310.537379 223.72904 
L 311.62318 222.747385 
L 312.708981 224.828493 
L 313.794783 222.354724 
L 314.880584 224.867759 
L 315.966385 225.280054 
L 317.052186 224.180601 
L 318.137987 231.189613 
L 319.223788 223.846838 
L 320.30959 229.933095 
L 321.395391 221.039307 
L 322.481192 223.434543 
L 323.566993 220.705544 
L 324.652794 225.810147 
L 325.738595 220.960775 
L 326.824396 221.000041 
L 328.995999 225.82978 
L 330.0818 223.650507 
L 331.167601 226.65437 
L 332.253402 226.791801 
L 333.339203 221.078573 
L 334.425005 222.943716 
L 335.510806 226.202809 
L 336.596607 222.433256 
L 337.682408 222.531421 
L 338.768209 220.627012 
L 339.85401 219.095631 
L 340.939811 217.230488 
L 342.025613 218.722603 
L 343.111414 222.256558 
L 344.197215 222.335091 
L 345.283016 220.096919 
L 346.368817 214.913784 
L 347.454618 216.111402 
L 348.54042 221.667566 
L 349.626221 219.527559 
L 350.712022 216.975258 
L 351.797823 213.912497 
L 352.883624 214.540755 
L 353.969425 221.392702 
L 355.055227 217.976545 
L 356.141028 218.938567 
L 357.226829 217.446452 
L 358.31263 215.424244 
L 359.398431 216.79856 
L 360.484232 219.331228 
L 361.570033 213.009375 
L 362.655835 217.014524 
L 363.741636 215.758007 
L 364.827437 212.616713 
L 365.913238 217.505351 
L 366.999039 214.089194 
L 368.08484 216.327366 
L 369.170642 215.169014 
L 370.256443 216.778927 
L 371.342244 216.170301 
L 372.428045 221.412336 
L 373.513846 218.624437 
L 374.599647 219.488293 
L 375.685448 218.212142 
L 376.77125 221.274904 
L 377.857051 220.352149 
L 378.942852 220.155818 
L 380.028653 218.9582 
L 381.114454 222.688486 
L 382.200255 218.192509 
L 383.286057 221.294537 
L 385.457659 216.189935 
L 386.54346 224.671428 
L 387.629261 222.295824 
L 388.715062 219.21343 
L 389.800863 222.943716 
L 390.886665 222.590321 
L 391.972466 222.040594 
L 393.058267 224.632162 
L 394.144068 221.765731 
L 395.229869 229.540433 
L 396.31567 225.82978 
L 397.401472 220.077286 
L 398.487273 222.531421 
L 398.487273 222.531421 
" clip-path="url(#pfbbc52f0c5)" style="fill: none; stroke: #2ca02c; stroke-width: 1.5; stroke-linecap: square"/>
   </g>
   <g id="line2d_18">
    <path d="M 368.08484 133.360888 
L 369.170642 138.712867 
L 371.342244 141.274985 
L 372.428045 144.463398 
L 373.513846 145.801393 
L 374.599647 139.623843 
L 375.685448 145.175098 
L 376.77125 149.815378 
L 377.857051 148.363511 
L 378.942852 150.441673 
L 380.028653 147.594876 
L 381.114454 152.377495 
L 382.200255 153.402343 
L 383.286057 153.487746 
L 384.371858 154.484126 
L 385.457659 151.808136 
L 386.54346 155.366633 
L 387.629261 150.100057 
L 388.715062 160.206189 
L 389.800863 161.03176 
L 390.886665 156.53382 
L 391.972466 162.284351 
L 393.058267 159.238277 
L 394.144068 166.924631 
L 395.229869 164.704129 
L 397.401472 167.266247 
L 398.487273 175.863575 
L 398.487273 175.863575 
" clip-path="url(#pfbbc52f0c5)" style="fill: none; stroke: #d62728; stroke-width: 1.5; stroke-linecap: square"/>
   </g>
   <g id="line2d_19">
    <path d="M 368.08484 216.307733 
L 369.170642 217.603517 
L 370.256443 216.229201 
L 371.342244 220.057653 
L 372.428045 220.842976 
L 373.513846 226.929233 
L 374.599647 220.607379 
L 375.685448 226.752535 
L 376.77125 230.777318 
L 377.857051 227.066664 
L 378.942852 226.811434 
L 380.028653 223.67014 
L 381.114454 230.541721 
L 382.200255 233.938245 
L 383.286057 229.5208 
L 384.371858 227.616391 
L 385.457659 230.777318 
L 386.54346 229.952728 
L 387.629261 226.438406 
L 389.800863 239.808537 
L 390.886665 235.980086 
L 391.972466 233.309986 
L 393.058267 233.152921 
L 394.144068 237.491833 
L 395.229869 234.54687 
L 396.31567 238.453855 
L 397.401472 236.078251 
L 398.487273 237.040272 
L 398.487273 237.040272 
" clip-path="url(#pfbbc52f0c5)" style="fill: none; stroke: #9467bd; stroke-width: 1.5; stroke-linecap: square"/>
   </g>
   <g id="patch_3">
    <path d="M 57.6 307.584 
L 57.6 41.472 
" style="fill: none; stroke: #000000; stroke-width: 0.8; stroke-linejoin: miter; stroke-linecap: square"/>
   </g>
   <g id="patch_4">
    <path d="M 414.72 307.584 
L 414.72 41.472 
" style="fill: none; stroke: #000000; stroke-width: 0.8; stroke-linejoin: miter; stroke-linecap: square"/>
   </g>
   <g id="patch_5">
    <path d="M 57.6 307.584 
L 414.72 307.584 
" style="fill: none; stroke: #000000; stroke-width: 0.8; stroke-linejoin: miter; stroke-linecap: square"/>
   </g>
   <g id="patch_6">
    <path d="M 57.6 41.472 
L 414.72 41.472 
" style="fill: none; stroke: #000000; stroke-width: 0.8; stroke-linejoin: miter; stroke-linecap: square"/>
   </g>
   <g id="text_17">
    <!-- Learning Curves -->
    <g transform="translate(187.37625 35.472) scale(0.12 -0.12)">
     <defs>
      <path id="DejaVuSans-4c" d="M 628 4666 
L 1259 4666 
L 1259 531 
L 3531 531 
L 3531 0 
L 628 0 
L 628 4666 
z
" transform="scale(0.015625)"/>
      <path id="DejaVuSans-65" d="M 3597 1894 
L 3597 1613 
L 953 1613 
Q 991 1019 1311 708 
Q 1631 397 2203 397 
Q 2534 397 2845 478 
Q 3156 559 3463 722 
L 3463 178 
Q 3153 47 2828 -22 
Q 2503 -91 2169 -91 
Q 1331 -91 842 396 
Q 353 884 353 1716 
Q 353 2575 817 3079 
Q 1281 3584 2069 3584 
Q 2775 3584 3186 3129 
Q 3597 2675 3597 1894 
z
M 3022 2063 
Q 3016 2534 2758 2815 
Q 2500 3097 2075 3097 
Q 1594 3097 1305 2825 
Q 1016 2553 972 2059 
L 3022 2063 
z
" transform="scale(0.015625)"/>
      <path id="DejaVuSans-6e" d="M 3513 2113 
L 3513 0 
L 2938 0 
L 2938 2094 
Q 2938 2591 2744 2837 
Q 2550 3084 2163 3084 
Q 1697 3084 1428 2787 
Q 1159 2491 1159 1978 
L 1159 0 
L 581 0 
L 581 3500 
L 1159 3500 
L 1159 2956 
Q 1366 3272 1645 3428 
Q 1925 3584 2291 3584 
Q 2894 3584 3203 3211 
Q 3513 2838 3513 2113 
z
" transform="scale(0.015625)"/>
      <path id="DejaVuSans-69" d="M 603 3500 
L 1178 3500 
L 1178 0 
L 603 0 
L 603 3500 
z
M 603 4863 
L 1178 4863 
L 1178 4134 
L 603 4134 
L 603 4863 
z
" transform="scale(0.015625)"/>
      <path id="DejaVuSans-67" d="M 2906 1791 
Q 2906 2416 2648 2759 
Q 2391 3103 1925 3103 
Q 1463 3103 1205 2759 
Q 947 2416 947 1791 
Q 947 1169 1205 825 
Q 1463 481 1925 481 
Q 2391 481 2648 825 
Q 2906 1169 2906 1791 
z
M 3481 434 
Q 3481 -459 3084 -895 
Q 2688 -1331 1869 -1331 
Q 1566 -1331 1297 -1286 
Q 1028 -1241 775 -1147 
L 775 -588 
Q 1028 -725 1275 -790 
Q 1522 -856 1778 -856 
Q 2344 -856 2625 -561 
Q 2906 -266 2906 331 
L 2906 616 
Q 2728 306 2450 153 
Q 2172 0 1784 0 
Q 1141 0 747 490 
Q 353 981 353 1791 
Q 353 2603 747 3093 
Q 1141 3584 1784 3584 
Q 2172 3584 2450 3431 
Q 2728 3278 2906 2969 
L 2906 3500 
L 3481 3500 
L 3481 434 
z
" transform="scale(0.015625)"/>
      <path id="DejaVuSans-20" transform="scale(0.015625)"/>
      <path id="DejaVuSans-43" d="M 4122 4306 
L 4122 3641 
Q 3803 3938 3442 4084 
Q 3081 4231 2675 4231 
Q 1875 4231 1450 3742 
Q 1025 3253 1025 2328 
Q 1025 1406 1450 917 
Q 1875 428 2675 428 
Q 3081 428 3442 575 
Q 3803 722 4122 1019 
L 4122 359 
Q 3791 134 3420 21 
Q 3050 -91 2638 -91 
Q 1578 -91 968 557 
Q 359 1206 359 2328 
Q 359 3453 968 4101 
Q 1578 4750 2638 4750 
Q 3056 4750 3426 4639 
Q 3797 4528 4122 4306 
z
" transform="scale(0.015625)"/>
      <path id="DejaVuSans-76" d="M 191 3500 
L 800 3500 
L 1894 563 
L 2988 3500 
L 3597 3500 
L 2284 0 
L 1503 0 
L 191 3500 
z
" transform="scale(0.015625)"/>
     </defs>
     <use xlink:href="#DejaVuSans-4c"/>
     <use xlink:href="#DejaVuSans-65" x="53.962891"/>
     <use xlink:href="#DejaVuSans-61" x="115.486328"/>
     <use xlink:href="#DejaVuSans-72" x="176.765625"/>
     <use xlink:href="#DejaVuSans-6e" x="216.128906"/>
     <use xlink:href="#DejaVuSans-69" x="279.507812"/>
     <use xlink:href="#DejaVuSans-6e" x="307.291016"/>
     <use xlink:href="#DejaVuSans-67" x="370.669922"/>
     <use xlink:href="#DejaVuSans-20" x="434.146484"/>
     <use xlink:href="#DejaVuSans-43" x="465.933594"/>
     <use xlink:href="#DejaVuSans-75" x="535.757812"/>
     <use xlink:href="#DejaVuSans-72" x="599.136719"/>
     <use xlink:href="#DejaVuSans-76" x="640.25"/>
     <use xlink:href="#DejaVuSans-65" x="699.429688"/>
     <use xlink:href="#DejaVuSans-73" x="760.953125"/>
    </g>
   </g>
   <g id="legend_1">
    <g id="patch_7">
     <path d="M 214.18875 302.584 
L 407.72 302.584 
Q 409.72 302.584 409.72 300.584 
L 409.72 228.193375 
Q 409.72 226.193375 407.72 226.193375 
L 214.18875 226.193375 
Q 212.18875 226.193375 212.18875 228.193375 
L 212.18875 300.584 
Q 212.18875 302.584 214.18875 302.584 
z
" style="fill: #ffffff; opacity: 0.8; stroke: #cccccc; stroke-linejoin: miter"/>
    </g>
    <g id="line2d_20">
     <path d="M 216.18875 234.291812 
L 226.18875 234.291812 
L 236.18875 234.291812 
" style="fill: none; stroke: #1f77b4; stroke-width: 1.5; stroke-linecap: square"/>
    </g>
    <g id="text_18">
     <!-- Train Accuracy -->
     <g transform="translate(244.18875 237.791812) scale(0.1 -0.1)">
      <defs>
       <path id="DejaVuSans-54" d="M -19 4666 
L 3928 4666 
L 3928 4134 
L 2272 4134 
L 2272 0 
L 1638 0 
L 1638 4134 
L -19 4134 
L -19 4666 
z
" transform="scale(0.015625)"/>
      </defs>
      <use xlink:href="#DejaVuSans-54"/>
      <use xlink:href="#DejaVuSans-72" x="46.333984"/>
      <use xlink:href="#DejaVuSans-61" x="87.447266"/>
      <use xlink:href="#DejaVuSans-69" x="148.726562"/>
      <use xlink:href="#DejaVuSans-6e" x="176.509766"/>
      <use xlink:href="#DejaVuSans-20" x="239.888672"/>
      <use xlink:href="#DejaVuSans-41" x="271.675781"/>
      <use xlink:href="#DejaVuSans-63" x="338.333984"/>
      <use xlink:href="#DejaVuSans-63" x="393.314453"/>
      <use xlink:href="#DejaVuSans-75" x="448.294922"/>
      <use xlink:href="#DejaVuSans-72" x="511.673828"/>
      <use xlink:href="#DejaVuSans-61" x="552.787109"/>
      <use xlink:href="#DejaVuSans-63" x="614.066406"/>
      <use xlink:href="#DejaVuSans-79" x="669.046875"/>
     </g>
    </g>
    <g id="line2d_21">
     <path d="M 216.18875 248.969937 
L 226.18875 248.969937 
L 236.18875 248.969937 
" style="fill: none; stroke: #ff7f0e; stroke-width: 1.5; stroke-linecap: square"/>
    </g>
    <g id="text_19">
     <!-- Validation Accuracy -->
     <g transform="translate(244.18875 252.469937) scale(0.1 -0.1)">
      <defs>
       <path id="DejaVuSans-56" d="M 1831 0 
L 50 4666 
L 709 4666 
L 2188 738 
L 3669 4666 
L 4325 4666 
L 2547 0 
L 1831 0 
z
" transform="scale(0.015625)"/>
       <path id="DejaVuSans-6c" d="M 603 4863 
L 1178 4863 
L 1178 0 
L 603 0 
L 603 4863 
z
" transform="scale(0.015625)"/>
       <path id="DejaVuSans-64" d="M 2906 2969 
L 2906 4863 
L 3481 4863 
L 3481 0 
L 2906 0 
L 2906 525 
Q 2725 213 2448 61 
Q 2172 -91 1784 -91 
Q 1150 -91 751 415 
Q 353 922 353 1747 
Q 353 2572 751 3078 
Q 1150 3584 1784 3584 
Q 2172 3584 2448 3432 
Q 2725 3281 2906 2969 
z
M 947 1747 
Q 947 1113 1208 752 
Q 1469 391 1925 391 
Q 2381 391 2643 752 
Q 2906 1113 2906 1747 
Q 2906 2381 2643 2742 
Q 2381 3103 1925 3103 
Q 1469 3103 1208 2742 
Q 947 2381 947 1747 
z
" transform="scale(0.015625)"/>
       <path id="DejaVuSans-74" d="M 1172 4494 
L 1172 3500 
L 2356 3500 
L 2356 3053 
L 1172 3053 
L 1172 1153 
Q 1172 725 1289 603 
Q 1406 481 1766 481 
L 2356 481 
L 2356 0 
L 1766 0 
Q 1100 0 847 248 
Q 594 497 594 1153 
L 594 3053 
L 172 3053 
L 172 3500 
L 594 3500 
L 594 4494 
L 1172 4494 
z
" transform="scale(0.015625)"/>
      </defs>
      <use xlink:href="#DejaVuSans-56"/>
      <use xlink:href="#DejaVuSans-61" x="60.658203"/>
      <use xlink:href="#DejaVuSans-6c" x="121.9375"/>
      <use xlink:href="#DejaVuSans-69" x="149.720703"/>
      <use xlink:href="#DejaVuSans-64" x="177.503906"/>
      <use xlink:href="#DejaVuSans-61" x="240.980469"/>
      <use xlink:href="#DejaVuSans-74" x="302.259766"/>
      <use xlink:href="#DejaVuSans-69" x="341.46875"/>
      <use xlink:href="#DejaVuSans-6f" x="369.251953"/>
      <use xlink:href="#DejaVuSans-6e" x="430.433594"/>
      <use xlink:href="#DejaVuSans-20" x="493.8125"/>
      <use xlink:href="#DejaVuSans-41" x="525.599609"/>
      <use xlink:href="#DejaVuSans-63" x="592.257812"/>
      <use xlink:href="#DejaVuSans-63" x="647.238281"/>
      <use xlink:href="#DejaVuSans-75" x="702.21875"/>
      <use xlink:href="#DejaVuSans-72" x="765.597656"/>
      <use xlink:href="#DejaVuSans-61" x="806.710938"/>
      <use xlink:href="#DejaVuSans-63" x="867.990234"/>
      <use xlink:href="#DejaVuSans-79" x="922.970703"/>
     </g>
    </g>
    <g id="line2d_22">
     <path d="M 216.18875 263.648062 
L 226.18875 263.648062 
L 236.18875 263.648062 
" style="fill: none; stroke: #2ca02c; stroke-width: 1.5; stroke-linecap: square"/>
    </g>
    <g id="text_20">
     <!-- Robust Validation Accuracy -->
     <g transform="translate(244.18875 267.148062) scale(0.1 -0.1)">
      <defs>
       <path id="DejaVuSans-52" d="M 2841 2188 
Q 3044 2119 3236 1894 
Q 3428 1669 3622 1275 
L 4263 0 
L 3584 0 
L 2988 1197 
Q 2756 1666 2539 1819 
Q 2322 1972 1947 1972 
L 1259 1972 
L 1259 0 
L 628 0 
L 628 4666 
L 2053 4666 
Q 2853 4666 3247 4331 
Q 3641 3997 3641 3322 
Q 3641 2881 3436 2590 
Q 3231 2300 2841 2188 
z
M 1259 4147 
L 1259 2491 
L 2053 2491 
Q 2509 2491 2742 2702 
Q 2975 2913 2975 3322 
Q 2975 3731 2742 3939 
Q 2509 4147 2053 4147 
L 1259 4147 
z
" transform="scale(0.015625)"/>
       <path id="DejaVuSans-62" d="M 3116 1747 
Q 3116 2381 2855 2742 
Q 2594 3103 2138 3103 
Q 1681 3103 1420 2742 
Q 1159 2381 1159 1747 
Q 1159 1113 1420 752 
Q 1681 391 2138 391 
Q 2594 391 2855 752 
Q 3116 1113 3116 1747 
z
M 1159 2969 
Q 1341 3281 1617 3432 
Q 1894 3584 2278 3584 
Q 2916 3584 3314 3078 
Q 3713 2572 3713 1747 
Q 3713 922 3314 415 
Q 2916 -91 2278 -91 
Q 1894 -91 1617 61 
Q 1341 213 1159 525 
L 1159 0 
L 581 0 
L 581 4863 
L 1159 4863 
L 1159 2969 
z
" transform="scale(0.015625)"/>
      </defs>
      <use xlink:href="#DejaVuSans-52"/>
      <use xlink:href="#DejaVuSans-6f" x="64.982422"/>
      <use xlink:href="#DejaVuSans-62" x="126.164062"/>
      <use xlink:href="#DejaVuSans-75" x="189.640625"/>
      <use xlink:href="#DejaVuSans-73" x="253.019531"/>
      <use xlink:href="#DejaVuSans-74" x="305.119141"/>
      <use xlink:href="#DejaVuSans-20" x="344.328125"/>
      <use xlink:href="#DejaVuSans-56" x="376.115234"/>
      <use xlink:href="#DejaVuSans-61" x="436.773438"/>
      <use xlink:href="#DejaVuSans-6c" x="498.052734"/>
      <use xlink:href="#DejaVuSans-69" x="525.835938"/>
      <use xlink:href="#DejaVuSans-64" x="553.619141"/>
      <use xlink:href="#DejaVuSans-61" x="617.095703"/>
      <use xlink:href="#DejaVuSans-74" x="678.375"/>
      <use xlink:href="#DejaVuSans-69" x="717.583984"/>
      <use xlink:href="#DejaVuSans-6f" x="745.367188"/>
      <use xlink:href="#DejaVuSans-6e" x="806.548828"/>
      <use xlink:href="#DejaVuSans-20" x="869.927734"/>
      <use xlink:href="#DejaVuSans-41" x="901.714844"/>
      <use xlink:href="#DejaVuSans-63" x="968.373047"/>
      <use xlink:href="#DejaVuSans-63" x="1023.353516"/>
      <use xlink:href="#DejaVuSans-75" x="1078.333984"/>
      <use xlink:href="#DejaVuSans-72" x="1141.712891"/>
      <use xlink:href="#DejaVuSans-61" x="1182.826172"/>
      <use xlink:href="#DejaVuSans-63" x="1244.105469"/>
      <use xlink:href="#DejaVuSans-79" x="1299.085938"/>
     </g>
    </g>
    <g id="line2d_23">
     <path d="M 216.18875 278.326188 
L 226.18875 278.326188 
L 236.18875 278.326188 
" style="fill: none; stroke: #d62728; stroke-width: 1.5; stroke-linecap: square"/>
    </g>
    <g id="text_21">
     <!-- SWA Validation Accuracy -->
     <g transform="translate(244.18875 281.826188) scale(0.1 -0.1)">
      <defs>
       <path id="DejaVuSans-53" d="M 3425 4513 
L 3425 3897 
Q 3066 4069 2747 4153 
Q 2428 4238 2131 4238 
Q 1616 4238 1336 4038 
Q 1056 3838 1056 3469 
Q 1056 3159 1242 3001 
Q 1428 2844 1947 2747 
L 2328 2669 
Q 3034 2534 3370 2195 
Q 3706 1856 3706 1288 
Q 3706 609 3251 259 
Q 2797 -91 1919 -91 
Q 1588 -91 1214 -16 
Q 841 59 441 206 
L 441 856 
Q 825 641 1194 531 
Q 1563 422 1919 422 
Q 2459 422 2753 634 
Q 3047 847 3047 1241 
Q 3047 1584 2836 1778 
Q 2625 1972 2144 2069 
L 1759 2144 
Q 1053 2284 737 2584 
Q 422 2884 422 3419 
Q 422 4038 858 4394 
Q 1294 4750 2059 4750 
Q 2388 4750 2728 4690 
Q 3069 4631 3425 4513 
z
" transform="scale(0.015625)"/>
       <path id="DejaVuSans-57" d="M 213 4666 
L 850 4666 
L 1831 722 
L 2809 4666 
L 3519 4666 
L 4500 722 
L 5478 4666 
L 6119 4666 
L 4947 0 
L 4153 0 
L 3169 4050 
L 2175 0 
L 1381 0 
L 213 4666 
z
" transform="scale(0.015625)"/>
      </defs>
      <use xlink:href="#DejaVuSans-53"/>
      <use xlink:href="#DejaVuSans-57" x="63.476562"/>
      <use xlink:href="#DejaVuSans-41" x="156.853516"/>
      <use xlink:href="#DejaVuSans-20" x="225.261719"/>
      <use xlink:href="#DejaVuSans-56" x="257.048828"/>
      <use xlink:href="#DejaVuSans-61" x="317.707031"/>
      <use xlink:href="#DejaVuSans-6c" x="378.986328"/>
      <use xlink:href="#DejaVuSans-69" x="406.769531"/>
      <use xlink:href="#DejaVuSans-64" x="434.552734"/>
      <use xlink:href="#DejaVuSans-61" x="498.029297"/>
      <use xlink:href="#DejaVuSans-74" x="559.308594"/>
      <use xlink:href="#DejaVuSans-69" x="598.517578"/>
      <use xlink:href="#DejaVuSans-6f" x="626.300781"/>
      <use xlink:href="#DejaVuSans-6e" x="687.482422"/>
      <use xlink:href="#DejaVuSans-20" x="750.861328"/>
      <use xlink:href="#DejaVuSans-41" x="782.648438"/>
      <use xlink:href="#DejaVuSans-63" x="849.306641"/>
      <use xlink:href="#DejaVuSans-63" x="904.287109"/>
      <use xlink:href="#DejaVuSans-75" x="959.267578"/>
      <use xlink:href="#DejaVuSans-72" x="1022.646484"/>
      <use xlink:href="#DejaVuSans-61" x="1063.759766"/>
      <use xlink:href="#DejaVuSans-63" x="1125.039062"/>
      <use xlink:href="#DejaVuSans-79" x="1180.019531"/>
     </g>
    </g>
    <g id="line2d_24">
     <path d="M 216.18875 293.004312 
L 226.18875 293.004312 
L 236.18875 293.004312 
" style="fill: none; stroke: #9467bd; stroke-width: 1.5; stroke-linecap: square"/>
    </g>
    <g id="text_22">
     <!-- SWA Robust Validation Accuracy -->
     <g transform="translate(244.18875 296.504312) scale(0.1 -0.1)">
      <use xlink:href="#DejaVuSans-53"/>
      <use xlink:href="#DejaVuSans-57" x="63.476562"/>
      <use xlink:href="#DejaVuSans-41" x="156.853516"/>
      <use xlink:href="#DejaVuSans-20" x="225.261719"/>
      <use xlink:href="#DejaVuSans-52" x="257.048828"/>
      <use xlink:href="#DejaVuSans-6f" x="322.03125"/>
      <use xlink:href="#DejaVuSans-62" x="383.212891"/>
      <use xlink:href="#DejaVuSans-75" x="446.689453"/>
      <use xlink:href="#DejaVuSans-73" x="510.068359"/>
      <use xlink:href="#DejaVuSans-74" x="562.167969"/>
      <use xlink:href="#DejaVuSans-20" x="601.376953"/>
      <use xlink:href="#DejaVuSans-56" x="633.164062"/>
      <use xlink:href="#DejaVuSans-61" x="693.822266"/>
      <use xlink:href="#DejaVuSans-6c" x="755.101562"/>
      <use xlink:href="#DejaVuSans-69" x="782.884766"/>
      <use xlink:href="#DejaVuSans-64" x="810.667969"/>
      <use xlink:href="#DejaVuSans-61" x="874.144531"/>
      <use xlink:href="#DejaVuSans-74" x="935.423828"/>
      <use xlink:href="#DejaVuSans-69" x="974.632812"/>
      <use xlink:href="#DejaVuSans-6f" x="1002.416016"/>
      <use xlink:href="#DejaVuSans-6e" x="1063.597656"/>
      <use xlink:href="#DejaVuSans-20" x="1126.976562"/>
      <use xlink:href="#DejaVuSans-41" x="1158.763672"/>
      <use xlink:href="#DejaVuSans-63" x="1225.421875"/>
      <use xlink:href="#DejaVuSans-63" x="1280.402344"/>
      <use xlink:href="#DejaVuSans-75" x="1335.382812"/>
      <use xlink:href="#DejaVuSans-72" x="1398.761719"/>
      <use xlink:href="#DejaVuSans-61" x="1439.875"/>
      <use xlink:href="#DejaVuSans-63" x="1501.154297"/>
      <use xlink:href="#DejaVuSans-79" x="1556.134766"/>
     </g>
    </g>
   </g>
  </g>
 </g>
 <defs>
  <clipPath id="pfbbc52f0c5">
   <rect x="57.6" y="41.472" width="357.12" height="266.112"/>
  </clipPath>
 </defs>
</svg>
