<?xml version="1.0" encoding="utf-8" standalone="no"?>
<!DOCTYPE svg PUBLIC "-//W3C//DTD SVG 1.1//EN"
  "http://www.w3.org/Graphics/SVG/1.1/DTD/svg11.dtd">
<svg xmlns:xlink="http://www.w3.org/1999/xlink" width="460.8pt" height="345.6pt" viewBox="0 0 460.8 345.6" xmlns="http://www.w3.org/2000/svg" version="1.1">
 <metadata>
  <rdf:RDF xmlns:dc="http://purl.org/dc/elements/1.1/" xmlns:cc="http://creativecommons.org/ns#" xmlns:rdf="http://www.w3.org/1999/02/22-rdf-syntax-ns#">
   <cc:Work>
    <dc:type rdf:resource="http://purl.org/dc/dcmitype/StillImage"/>
    <dc:date>2025-07-15T21:30:11.577771</dc:date>
    <dc:format>image/svg+xml</dc:format>
    <dc:creator>
     <cc:Agent>
      <dc:title>Matplotlib v3.9.1, https://matplotlib.org/</dc:title>
     </cc:Agent>
    </dc:creator>
   </cc:Work>
  </rdf:RDF>
 </metadata>
 <defs>
  <style type="text/css">*{stroke-linejoin: round; stroke-linecap: butt}</style>
 </defs>
 <g id="figure_1">
  <g id="patch_1">
   <path d="M 0 345.6 
L 460.8 345.6 
L 460.8 0 
L 0 0 
z
" style="fill: #ffffff"/>
  </g>
  <g id="axes_1">
   <g id="patch_2">
    <path d="M 57.6 307.584 
L 414.72 307.584 
L 414.72 41.472 
L 57.6 41.472 
z
" style="fill: #ffffff"/>
   </g>
   <g id="matplotlib.axis_1">
    <g id="xtick_1">
     <g id="line2d_1">
      <defs>
       <path id="mc381c0863e" d="M 0 0 
L 0 3.5 
" style="stroke: #000000; stroke-width: 0.8"/>
      </defs>
      <g>
       <use xlink:href="#mc381c0863e" x="73.832727" y="307.584" style="stroke: #000000; stroke-width: 0.8"/>
      </g>
     </g>
     <g id="text_1">
      <!-- 1 -->
      <g transform="translate(70.651477 322.182437) scale(0.1 -0.1)">
       <defs>
        <path id="DejaVuSans-31" d="M 794 531 
L 1825 531 
L 1825 4091 
L 703 3866 
L 703 4441 
L 1819 4666 
L 2450 4666 
L 2450 531 
L 3481 531 
L 3481 0 
L 794 0 
L 794 531 
z
" transform="scale(0.015625)"/>
       </defs>
       <use xlink:href="#DejaVuSans-31"/>
      </g>
     </g>
    </g>
    <g id="xtick_2">
     <g id="line2d_2">
      <g>
       <use xlink:href="#mc381c0863e" x="109.664165" y="307.584" style="stroke: #000000; stroke-width: 0.8"/>
      </g>
     </g>
     <g id="text_2">
      <!-- 34 -->
      <g transform="translate(103.301665 322.182437) scale(0.1 -0.1)">
       <defs>
        <path id="DejaVuSans-33" d="M 2597 2516 
Q 3050 2419 3304 2112 
Q 3559 1806 3559 1356 
Q 3559 666 3084 287 
Q 2609 -91 1734 -91 
Q 1441 -91 1130 -33 
Q 819 25 488 141 
L 488 750 
Q 750 597 1062 519 
Q 1375 441 1716 441 
Q 2309 441 2620 675 
Q 2931 909 2931 1356 
Q 2931 1769 2642 2001 
Q 2353 2234 1838 2234 
L 1294 2234 
L 1294 2753 
L 1863 2753 
Q 2328 2753 2575 2939 
Q 2822 3125 2822 3475 
Q 2822 3834 2567 4026 
Q 2313 4219 1838 4219 
Q 1578 4219 1281 4162 
Q 984 4106 628 3988 
L 628 4550 
Q 988 4650 1302 4700 
Q 1616 4750 1894 4750 
Q 2613 4750 3031 4423 
Q 3450 4097 3450 3541 
Q 3450 3153 3228 2886 
Q 3006 2619 2597 2516 
z
" transform="scale(0.015625)"/>
        <path id="DejaVuSans-34" d="M 2419 4116 
L 825 1625 
L 2419 1625 
L 2419 4116 
z
M 2253 4666 
L 3047 4666 
L 3047 1625 
L 3713 1625 
L 3713 1100 
L 3047 1100 
L 3047 0 
L 2419 0 
L 2419 1100 
L 313 1100 
L 313 1709 
L 2253 4666 
z
" transform="scale(0.015625)"/>
       </defs>
       <use xlink:href="#DejaVuSans-33"/>
       <use xlink:href="#DejaVuSans-34" x="63.623047"/>
      </g>
     </g>
    </g>
    <g id="xtick_3">
     <g id="line2d_3">
      <g>
       <use xlink:href="#mc381c0863e" x="145.495604" y="307.584" style="stroke: #000000; stroke-width: 0.8"/>
      </g>
     </g>
     <g id="text_3">
      <!-- 67 -->
      <g transform="translate(139.133104 322.182437) scale(0.1 -0.1)">
       <defs>
        <path id="DejaVuSans-36" d="M 2113 2584 
Q 1688 2584 1439 2293 
Q 1191 2003 1191 1497 
Q 1191 994 1439 701 
Q 1688 409 2113 409 
Q 2538 409 2786 701 
Q 3034 994 3034 1497 
Q 3034 2003 2786 2293 
Q 2538 2584 2113 2584 
z
M 3366 4563 
L 3366 3988 
Q 3128 4100 2886 4159 
Q 2644 4219 2406 4219 
Q 1781 4219 1451 3797 
Q 1122 3375 1075 2522 
Q 1259 2794 1537 2939 
Q 1816 3084 2150 3084 
Q 2853 3084 3261 2657 
Q 3669 2231 3669 1497 
Q 3669 778 3244 343 
Q 2819 -91 2113 -91 
Q 1303 -91 875 529 
Q 447 1150 447 2328 
Q 447 3434 972 4092 
Q 1497 4750 2381 4750 
Q 2619 4750 2861 4703 
Q 3103 4656 3366 4563 
z
" transform="scale(0.015625)"/>
        <path id="DejaVuSans-37" d="M 525 4666 
L 3525 4666 
L 3525 4397 
L 1831 0 
L 1172 0 
L 2766 4134 
L 525 4134 
L 525 4666 
z
" transform="scale(0.015625)"/>
       </defs>
       <use xlink:href="#DejaVuSans-36"/>
       <use xlink:href="#DejaVuSans-37" x="63.623047"/>
      </g>
     </g>
    </g>
    <g id="xtick_4">
     <g id="line2d_4">
      <g>
       <use xlink:href="#mc381c0863e" x="181.327042" y="307.584" style="stroke: #000000; stroke-width: 0.8"/>
      </g>
     </g>
     <g id="text_4">
      <!-- 100 -->
      <g transform="translate(171.783292 322.182437) scale(0.1 -0.1)">
       <defs>
        <path id="DejaVuSans-30" d="M 2034 4250 
Q 1547 4250 1301 3770 
Q 1056 3291 1056 2328 
Q 1056 1369 1301 889 
Q 1547 409 2034 409 
Q 2525 409 2770 889 
Q 3016 1369 3016 2328 
Q 3016 3291 2770 3770 
Q 2525 4250 2034 4250 
z
M 2034 4750 
Q 2819 4750 3233 4129 
Q 3647 3509 3647 2328 
Q 3647 1150 3233 529 
Q 2819 -91 2034 -91 
Q 1250 -91 836 529 
Q 422 1150 422 2328 
Q 422 3509 836 4129 
Q 1250 4750 2034 4750 
z
" transform="scale(0.015625)"/>
       </defs>
       <use xlink:href="#DejaVuSans-31"/>
       <use xlink:href="#DejaVuSans-30" x="63.623047"/>
       <use xlink:href="#DejaVuSans-30" x="127.246094"/>
      </g>
     </g>
    </g>
    <g id="xtick_5">
     <g id="line2d_5">
      <g>
       <use xlink:href="#mc381c0863e" x="217.15848" y="307.584" style="stroke: #000000; stroke-width: 0.8"/>
      </g>
     </g>
     <g id="text_5">
      <!-- 133 -->
      <g transform="translate(207.61473 322.182437) scale(0.1 -0.1)">
       <use xlink:href="#DejaVuSans-31"/>
       <use xlink:href="#DejaVuSans-33" x="63.623047"/>
       <use xlink:href="#DejaVuSans-33" x="127.246094"/>
      </g>
     </g>
    </g>
    <g id="xtick_6">
     <g id="line2d_6">
      <g>
       <use xlink:href="#mc381c0863e" x="254.075719" y="307.584" style="stroke: #000000; stroke-width: 0.8"/>
      </g>
     </g>
     <g id="text_6">
      <!-- 167 -->
      <g transform="translate(244.531969 322.182437) scale(0.1 -0.1)">
       <use xlink:href="#DejaVuSans-31"/>
       <use xlink:href="#DejaVuSans-36" x="63.623047"/>
       <use xlink:href="#DejaVuSans-37" x="127.246094"/>
      </g>
     </g>
    </g>
    <g id="xtick_7">
     <g id="line2d_7">
      <g>
       <use xlink:href="#mc381c0863e" x="289.907157" y="307.584" style="stroke: #000000; stroke-width: 0.8"/>
      </g>
     </g>
     <g id="text_7">
      <!-- 200 -->
      <g transform="translate(280.363407 322.182437) scale(0.1 -0.1)">
       <defs>
        <path id="DejaVuSans-32" d="M 1228 531 
L 3431 531 
L 3431 0 
L 469 0 
L 469 531 
Q 828 903 1448 1529 
Q 2069 2156 2228 2338 
Q 2531 2678 2651 2914 
Q 2772 3150 2772 3378 
Q 2772 3750 2511 3984 
Q 2250 4219 1831 4219 
Q 1534 4219 1204 4116 
Q 875 4013 500 3803 
L 500 4441 
Q 881 4594 1212 4672 
Q 1544 4750 1819 4750 
Q 2544 4750 2975 4387 
Q 3406 4025 3406 3419 
Q 3406 3131 3298 2873 
Q 3191 2616 2906 2266 
Q 2828 2175 2409 1742 
Q 1991 1309 1228 531 
z
" transform="scale(0.015625)"/>
       </defs>
       <use xlink:href="#DejaVuSans-32"/>
       <use xlink:href="#DejaVuSans-30" x="63.623047"/>
       <use xlink:href="#DejaVuSans-30" x="127.246094"/>
      </g>
     </g>
    </g>
    <g id="xtick_8">
     <g id="line2d_8">
      <g>
       <use xlink:href="#mc381c0863e" x="325.738595" y="307.584" style="stroke: #000000; stroke-width: 0.8"/>
      </g>
     </g>
     <g id="text_8">
      <!-- 233 -->
      <g transform="translate(316.194845 322.182437) scale(0.1 -0.1)">
       <use xlink:href="#DejaVuSans-32"/>
       <use xlink:href="#DejaVuSans-33" x="63.623047"/>
       <use xlink:href="#DejaVuSans-33" x="127.246094"/>
      </g>
     </g>
    </g>
    <g id="xtick_9">
     <g id="line2d_9">
      <g>
       <use xlink:href="#mc381c0863e" x="361.570033" y="307.584" style="stroke: #000000; stroke-width: 0.8"/>
      </g>
     </g>
     <g id="text_9">
      <!-- 266 -->
      <g transform="translate(352.026283 322.182437) scale(0.1 -0.1)">
       <use xlink:href="#DejaVuSans-32"/>
       <use xlink:href="#DejaVuSans-36" x="63.623047"/>
       <use xlink:href="#DejaVuSans-36" x="127.246094"/>
      </g>
     </g>
    </g>
    <g id="xtick_10">
     <g id="line2d_10">
      <g>
       <use xlink:href="#mc381c0863e" x="398.487273" y="307.584" style="stroke: #000000; stroke-width: 0.8"/>
      </g>
     </g>
     <g id="text_10">
      <!-- 300 -->
      <g transform="translate(388.943523 322.182437) scale(0.1 -0.1)">
       <use xlink:href="#DejaVuSans-33"/>
       <use xlink:href="#DejaVuSans-30" x="63.623047"/>
       <use xlink:href="#DejaVuSans-30" x="127.246094"/>
      </g>
     </g>
    </g>
    <g id="text_11">
     <!-- Epochs -->
     <g transform="translate(218.244375 335.860562) scale(0.1 -0.1)">
      <defs>
       <path id="DejaVuSans-45" d="M 628 4666 
L 3578 4666 
L 3578 4134 
L 1259 4134 
L 1259 2753 
L 3481 2753 
L 3481 2222 
L 1259 2222 
L 1259 531 
L 3634 531 
L 3634 0 
L 628 0 
L 628 4666 
z
" transform="scale(0.015625)"/>
       <path id="DejaVuSans-70" d="M 1159 525 
L 1159 -1331 
L 581 -1331 
L 581 3500 
L 1159 3500 
L 1159 2969 
Q 1341 3281 1617 3432 
Q 1894 3584 2278 3584 
Q 2916 3584 3314 3078 
Q 3713 2572 3713 1747 
Q 3713 922 3314 415 
Q 2916 -91 2278 -91 
Q 1894 -91 1617 61 
Q 1341 213 1159 525 
z
M 3116 1747 
Q 3116 2381 2855 2742 
Q 2594 3103 2138 3103 
Q 1681 3103 1420 2742 
Q 1159 2381 1159 1747 
Q 1159 1113 1420 752 
Q 1681 391 2138 391 
Q 2594 391 2855 752 
Q 3116 1113 3116 1747 
z
" transform="scale(0.015625)"/>
       <path id="DejaVuSans-6f" d="M 1959 3097 
Q 1497 3097 1228 2736 
Q 959 2375 959 1747 
Q 959 1119 1226 758 
Q 1494 397 1959 397 
Q 2419 397 2687 759 
Q 2956 1122 2956 1747 
Q 2956 2369 2687 2733 
Q 2419 3097 1959 3097 
z
M 1959 3584 
Q 2709 3584 3137 3096 
Q 3566 2609 3566 1747 
Q 3566 888 3137 398 
Q 2709 -91 1959 -91 
Q 1206 -91 779 398 
Q 353 888 353 1747 
Q 353 2609 779 3096 
Q 1206 3584 1959 3584 
z
" transform="scale(0.015625)"/>
       <path id="DejaVuSans-63" d="M 3122 3366 
L 3122 2828 
Q 2878 2963 2633 3030 
Q 2388 3097 2138 3097 
Q 1578 3097 1268 2742 
Q 959 2388 959 1747 
Q 959 1106 1268 751 
Q 1578 397 2138 397 
Q 2388 397 2633 464 
Q 2878 531 3122 666 
L 3122 134 
Q 2881 22 2623 -34 
Q 2366 -91 2075 -91 
Q 1284 -91 818 406 
Q 353 903 353 1747 
Q 353 2603 823 3093 
Q 1294 3584 2113 3584 
Q 2378 3584 2631 3529 
Q 2884 3475 3122 3366 
z
" transform="scale(0.015625)"/>
       <path id="DejaVuSans-68" d="M 3513 2113 
L 3513 0 
L 2938 0 
L 2938 2094 
Q 2938 2591 2744 2837 
Q 2550 3084 2163 3084 
Q 1697 3084 1428 2787 
Q 1159 2491 1159 1978 
L 1159 0 
L 581 0 
L 581 4863 
L 1159 4863 
L 1159 2956 
Q 1366 3272 1645 3428 
Q 1925 3584 2291 3584 
Q 2894 3584 3203 3211 
Q 3513 2838 3513 2113 
z
" transform="scale(0.015625)"/>
       <path id="DejaVuSans-73" d="M 2834 3397 
L 2834 2853 
Q 2591 2978 2328 3040 
Q 2066 3103 1784 3103 
Q 1356 3103 1142 2972 
Q 928 2841 928 2578 
Q 928 2378 1081 2264 
Q 1234 2150 1697 2047 
L 1894 2003 
Q 2506 1872 2764 1633 
Q 3022 1394 3022 966 
Q 3022 478 2636 193 
Q 2250 -91 1575 -91 
Q 1294 -91 989 -36 
Q 684 19 347 128 
L 347 722 
Q 666 556 975 473 
Q 1284 391 1588 391 
Q 1994 391 2212 530 
Q 2431 669 2431 922 
Q 2431 1156 2273 1281 
Q 2116 1406 1581 1522 
L 1381 1569 
Q 847 1681 609 1914 
Q 372 2147 372 2553 
Q 372 3047 722 3315 
Q 1072 3584 1716 3584 
Q 2034 3584 2315 3537 
Q 2597 3491 2834 3397 
z
" transform="scale(0.015625)"/>
      </defs>
      <use xlink:href="#DejaVuSans-45"/>
      <use xlink:href="#DejaVuSans-70" x="63.183594"/>
      <use xlink:href="#DejaVuSans-6f" x="126.660156"/>
      <use xlink:href="#DejaVuSans-63" x="187.841797"/>
      <use xlink:href="#DejaVuSans-68" x="242.822266"/>
      <use xlink:href="#DejaVuSans-73" x="306.201172"/>
     </g>
    </g>
   </g>
   <g id="matplotlib.axis_2">
    <g id="ytick_1">
     <g id="line2d_11">
      <defs>
       <path id="mbdececb09f" d="M 0 0 
L -3.5 0 
" style="stroke: #000000; stroke-width: 0.8"/>
      </defs>
      <g>
       <use xlink:href="#mbdececb09f" x="57.6" y="284.486139" style="stroke: #000000; stroke-width: 0.8"/>
      </g>
     </g>
     <g id="text_12">
      <!-- 10 -->
      <g transform="translate(37.875 288.285358) scale(0.1 -0.1)">
       <use xlink:href="#DejaVuSans-31"/>
       <use xlink:href="#DejaVuSans-30" x="63.623047"/>
      </g>
     </g>
    </g>
    <g id="ytick_2">
     <g id="line2d_12">
      <g>
       <use xlink:href="#mbdececb09f" x="57.6" y="250.03103" style="stroke: #000000; stroke-width: 0.8"/>
      </g>
     </g>
     <g id="text_13">
      <!-- 20 -->
      <g transform="translate(37.875 253.830249) scale(0.1 -0.1)">
       <use xlink:href="#DejaVuSans-32"/>
       <use xlink:href="#DejaVuSans-30" x="63.623047"/>
      </g>
     </g>
    </g>
    <g id="ytick_3">
     <g id="line2d_13">
      <g>
       <use xlink:href="#mbdececb09f" x="57.6" y="215.575922" style="stroke: #000000; stroke-width: 0.8"/>
      </g>
     </g>
     <g id="text_14">
      <!-- 30 -->
      <g transform="translate(37.875 219.37514) scale(0.1 -0.1)">
       <use xlink:href="#DejaVuSans-33"/>
       <use xlink:href="#DejaVuSans-30" x="63.623047"/>
      </g>
     </g>
    </g>
    <g id="ytick_4">
     <g id="line2d_14">
      <g>
       <use xlink:href="#mbdececb09f" x="57.6" y="181.120813" style="stroke: #000000; stroke-width: 0.8"/>
      </g>
     </g>
     <g id="text_15">
      <!-- 40 -->
      <g transform="translate(37.875 184.920032) scale(0.1 -0.1)">
       <use xlink:href="#DejaVuSans-34"/>
       <use xlink:href="#DejaVuSans-30" x="63.623047"/>
      </g>
     </g>
    </g>
    <g id="ytick_5">
     <g id="line2d_15">
      <g>
       <use xlink:href="#mbdececb09f" x="57.6" y="146.665704" style="stroke: #000000; stroke-width: 0.8"/>
      </g>
     </g>
     <g id="text_16">
      <!-- 50 -->
      <g transform="translate(37.875 150.464923) scale(0.1 -0.1)">
       <defs>
        <path id="DejaVuSans-35" d="M 691 4666 
L 3169 4666 
L 3169 4134 
L 1269 4134 
L 1269 2991 
Q 1406 3038 1543 3061 
Q 1681 3084 1819 3084 
Q 2600 3084 3056 2656 
Q 3513 2228 3513 1497 
Q 3513 744 3044 326 
Q 2575 -91 1722 -91 
Q 1428 -91 1123 -41 
Q 819 9 494 109 
L 494 744 
Q 775 591 1075 516 
Q 1375 441 1709 441 
Q 2250 441 2565 725 
Q 2881 1009 2881 1497 
Q 2881 1984 2565 2268 
Q 2250 2553 1709 2553 
Q 1456 2553 1204 2497 
Q 953 2441 691 2322 
L 691 4666 
z
" transform="scale(0.015625)"/>
       </defs>
       <use xlink:href="#DejaVuSans-35"/>
       <use xlink:href="#DejaVuSans-30" x="63.623047"/>
      </g>
     </g>
    </g>
    <g id="ytick_6">
     <g id="line2d_16">
      <g>
       <use xlink:href="#mbdececb09f" x="57.6" y="112.210595" style="stroke: #000000; stroke-width: 0.8"/>
      </g>
     </g>
     <g id="text_17">
      <!-- 60 -->
      <g transform="translate(37.875 116.009814) scale(0.1 -0.1)">
       <use xlink:href="#DejaVuSans-36"/>
       <use xlink:href="#DejaVuSans-30" x="63.623047"/>
      </g>
     </g>
    </g>
    <g id="ytick_7">
     <g id="line2d_17">
      <g>
       <use xlink:href="#mbdececb09f" x="57.6" y="77.755486" style="stroke: #000000; stroke-width: 0.8"/>
      </g>
     </g>
     <g id="text_18">
      <!-- 70 -->
      <g transform="translate(37.875 81.554705) scale(0.1 -0.1)">
       <use xlink:href="#DejaVuSans-37"/>
       <use xlink:href="#DejaVuSans-30" x="63.623047"/>
      </g>
     </g>
    </g>
    <g id="ytick_8">
     <g id="line2d_18">
      <g>
       <use xlink:href="#mbdececb09f" x="57.6" y="43.300378" style="stroke: #000000; stroke-width: 0.8"/>
      </g>
     </g>
     <g id="text_19">
      <!-- 80 -->
      <g transform="translate(37.875 47.099596) scale(0.1 -0.1)">
       <defs>
        <path id="DejaVuSans-38" d="M 2034 2216 
Q 1584 2216 1326 1975 
Q 1069 1734 1069 1313 
Q 1069 891 1326 650 
Q 1584 409 2034 409 
Q 2484 409 2743 651 
Q 3003 894 3003 1313 
Q 3003 1734 2745 1975 
Q 2488 2216 2034 2216 
z
M 1403 2484 
Q 997 2584 770 2862 
Q 544 3141 544 3541 
Q 544 4100 942 4425 
Q 1341 4750 2034 4750 
Q 2731 4750 3128 4425 
Q 3525 4100 3525 3541 
Q 3525 3141 3298 2862 
Q 3072 2584 2669 2484 
Q 3125 2378 3379 2068 
Q 3634 1759 3634 1313 
Q 3634 634 3220 271 
Q 2806 -91 2034 -91 
Q 1263 -91 848 271 
Q 434 634 434 1313 
Q 434 1759 690 2068 
Q 947 2378 1403 2484 
z
M 1172 3481 
Q 1172 3119 1398 2916 
Q 1625 2713 2034 2713 
Q 2441 2713 2670 2916 
Q 2900 3119 2900 3481 
Q 2900 3844 2670 4047 
Q 2441 4250 2034 4250 
Q 1625 4250 1398 4047 
Q 1172 3844 1172 3481 
z
" transform="scale(0.015625)"/>
       </defs>
       <use xlink:href="#DejaVuSans-38"/>
       <use xlink:href="#DejaVuSans-30" x="63.623047"/>
      </g>
     </g>
    </g>
    <g id="text_20">
     <!-- Accuracy -->
     <g transform="translate(31.795312 197.356125) rotate(-90) scale(0.1 -0.1)">
      <defs>
       <path id="DejaVuSans-41" d="M 2188 4044 
L 1331 1722 
L 3047 1722 
L 2188 4044 
z
M 1831 4666 
L 2547 4666 
L 4325 0 
L 3669 0 
L 3244 1197 
L 1141 1197 
L 716 0 
L 50 0 
L 1831 4666 
z
" transform="scale(0.015625)"/>
       <path id="DejaVuSans-75" d="M 544 1381 
L 544 3500 
L 1119 3500 
L 1119 1403 
Q 1119 906 1312 657 
Q 1506 409 1894 409 
Q 2359 409 2629 706 
Q 2900 1003 2900 1516 
L 2900 3500 
L 3475 3500 
L 3475 0 
L 2900 0 
L 2900 538 
Q 2691 219 2414 64 
Q 2138 -91 1772 -91 
Q 1169 -91 856 284 
Q 544 659 544 1381 
z
M 1991 3584 
L 1991 3584 
z
" transform="scale(0.015625)"/>
       <path id="DejaVuSans-72" d="M 2631 2963 
Q 2534 3019 2420 3045 
Q 2306 3072 2169 3072 
Q 1681 3072 1420 2755 
Q 1159 2438 1159 1844 
L 1159 0 
L 581 0 
L 581 3500 
L 1159 3500 
L 1159 2956 
Q 1341 3275 1631 3429 
Q 1922 3584 2338 3584 
Q 2397 3584 2469 3576 
Q 2541 3569 2628 3553 
L 2631 2963 
z
" transform="scale(0.015625)"/>
       <path id="DejaVuSans-61" d="M 2194 1759 
Q 1497 1759 1228 1600 
Q 959 1441 959 1056 
Q 959 750 1161 570 
Q 1363 391 1709 391 
Q 2188 391 2477 730 
Q 2766 1069 2766 1631 
L 2766 1759 
L 2194 1759 
z
M 3341 1997 
L 3341 0 
L 2766 0 
L 2766 531 
Q 2569 213 2275 61 
Q 1981 -91 1556 -91 
Q 1019 -91 701 211 
Q 384 513 384 1019 
Q 384 1609 779 1909 
Q 1175 2209 1959 2209 
L 2766 2209 
L 2766 2266 
Q 2766 2663 2505 2880 
Q 2244 3097 1772 3097 
Q 1472 3097 1187 3025 
Q 903 2953 641 2809 
L 641 3341 
Q 956 3463 1253 3523 
Q 1550 3584 1831 3584 
Q 2591 3584 2966 3190 
Q 3341 2797 3341 1997 
z
" transform="scale(0.015625)"/>
       <path id="DejaVuSans-79" d="M 2059 -325 
Q 1816 -950 1584 -1140 
Q 1353 -1331 966 -1331 
L 506 -1331 
L 506 -850 
L 844 -850 
Q 1081 -850 1212 -737 
Q 1344 -625 1503 -206 
L 1606 56 
L 191 3500 
L 800 3500 
L 1894 763 
L 2988 3500 
L 3597 3500 
L 2059 -325 
z
" transform="scale(0.015625)"/>
      </defs>
      <use xlink:href="#DejaVuSans-41"/>
      <use xlink:href="#DejaVuSans-63" x="66.658203"/>
      <use xlink:href="#DejaVuSans-63" x="121.638672"/>
      <use xlink:href="#DejaVuSans-75" x="176.619141"/>
      <use xlink:href="#DejaVuSans-72" x="239.998047"/>
      <use xlink:href="#DejaVuSans-61" x="281.111328"/>
      <use xlink:href="#DejaVuSans-63" x="342.390625"/>
      <use xlink:href="#DejaVuSans-79" x="397.371094"/>
     </g>
    </g>
   </g>
   <g id="line2d_19">
    <path d="M 73.832727 294.695188 
L 74.918528 260.901617 
L 76.00433 237.616855 
L 77.090131 220.799316 
L 78.175932 206.979372 
L 79.261733 196.356862 
L 80.347534 187.874014 
L 82.519137 172.827468 
L 83.604938 166.084603 
L 84.690739 161.464173 
L 85.77654 154.807446 
L 86.862341 149.480686 
L 87.948142 145.635496 
L 89.033943 140.73598 
L 90.119745 137.817632 
L 91.205546 133.875968 
L 92.291347 130.578614 
L 93.377148 129.896403 
L 94.462949 128.828294 
L 95.54875 162.504718 
L 96.634552 160.726834 
L 97.720353 157.195185 
L 100.977756 148.150719 
L 102.063557 146.417627 
L 103.149358 142.916988 
L 104.23516 140.263945 
L 105.320961 138.67901 
L 106.406762 135.657297 
L 107.492563 134.282538 
L 108.578364 132.166994 
L 109.664165 128.573326 
L 110.749967 127.512109 
L 111.835768 125.465476 
L 112.921569 122.557464 
L 114.00737 121.575494 
L 116.178972 116.073013 
L 118.350575 112.462117 
L 120.522177 107.156031 
L 121.607978 105.956993 
L 122.693779 103.321177 
L 123.77958 102.25996 
L 124.865382 99.575907 
L 125.951183 97.935844 
L 127.036984 95.98913 
L 128.122785 93.15692 
L 129.208586 92.626311 
L 130.294387 91.161969 
L 131.380189 89.48056 
L 132.46599 88.126474 
L 133.551791 87.99899 
L 134.637592 86.562212 
L 135.723393 85.449312 
L 136.809194 85.766299 
L 137.894995 84.494906 
L 138.980797 125.76868 
L 140.066598 129.472605 
L 141.152399 127.171003 
L 142.2382 126.540475 
L 144.409802 124.321566 
L 145.495604 122.640157 
L 146.581405 122.212913 
L 147.667206 120.469485 
L 148.753007 120.724453 
L 149.838808 117.564919 
L 150.924609 118.939678 
L 152.01041 118.333268 
L 153.096212 116.379663 
L 154.182013 115.035914 
L 155.267814 114.140081 
L 156.353615 114.395049 
L 157.439416 113.016845 
L 158.525217 111.207952 
L 159.611019 110.498176 
L 160.69682 109.440404 
L 161.782621 109.788401 
L 163.954223 107.197377 
L 165.040024 106.194733 
L 166.125825 105.443612 
L 167.211627 105.753708 
L 169.383229 103.283276 
L 170.46903 102.773341 
L 171.554831 100.816291 
L 172.640632 100.082397 
L 173.726434 100.554432 
L 174.812235 97.498264 
L 175.898036 97.787687 
L 178.069638 95.399948 
L 179.155439 95.138089 
L 180.24124 93.704756 
L 181.327042 92.629757 
L 182.412843 91.727033 
L 183.498644 90.534886 
L 184.584445 89.790656 
L 185.670246 88.694983 
L 186.756047 87.334007 
L 188.92765 85.649152 
L 190.013451 83.991861 
L 191.099252 83.826477 
L 192.185053 81.99691 
L 193.270854 81.169988 
L 195.442457 78.809813 
L 197.614059 77.369589 
L 199.785661 74.695873 
L 200.871462 74.923276 
L 201.957264 72.659576 
L 203.043065 72.242669 
L 204.128866 69.668872 
L 205.214667 69.737783 
L 206.300468 68.783376 
L 207.386269 68.345796 
L 208.472071 66.244035 
L 209.557872 65.896038 
L 210.643673 64.779692 
L 211.729474 65.286183 
L 212.815275 63.687465 
L 213.901076 63.336023 
L 214.986877 63.68402 
L 216.072679 61.561585 
L 217.15848 60.910384 
L 218.244281 61.554694 
L 219.330082 61.79588 
L 220.415883 60.555496 
L 221.501684 60.44524 
L 222.587486 58.581218 
L 223.673287 59.080817 
L 224.759088 60.10758 
L 225.844889 109.908994 
L 226.93069 114.036716 
L 228.016491 113.433752 
L 229.102292 113.027181 
L 230.188094 111.63864 
L 231.273895 111.893608 
L 232.359696 110.622215 
L 234.531298 110.043369 
L 235.617099 109.502424 
L 236.702901 108.765084 
L 237.788702 108.365405 
L 238.874503 108.244812 
L 239.960304 107.951944 
L 241.046105 106.422137 
L 242.131906 105.726144 
L 243.217708 105.733035 
L 244.303509 104.799301 
L 245.38931 105.247218 
L 246.475111 104.506433 
L 247.560912 104.261802 
L 248.646713 104.182555 
L 249.732514 103.968933 
L 250.818316 102.707876 
L 254.075719 102.545937 
L 255.16152 101.474383 
L 256.247321 102.049784 
L 257.333123 100.861082 
L 258.418924 101.160842 
L 259.504725 101.009239 
L 260.590526 99.031516 
L 261.676327 99.462205 
L 262.762128 99.679272 
L 263.847929 98.99017 
L 264.933731 97.770459 
L 266.019532 98.535363 
L 267.105333 98.917814 
L 268.191134 97.164049 
L 269.276935 97.515491 
L 270.362736 97.453472 
L 272.534339 96.629995 
L 273.62014 95.348265 
L 275.791742 95.754835 
L 276.877543 94.066535 
L 277.963344 94.686727 
L 279.049146 94.145782 
L 280.134947 93.846022 
L 281.220748 93.184484 
L 282.306549 93.091455 
L 283.39235 92.35067 
L 284.478151 92.199068 
L 285.563953 91.482402 
L 286.649754 92.58152 
L 287.735555 91.182642 
L 288.821356 89.997387 
L 289.907157 90.438412 
L 290.992958 89.738973 
L 292.07876 90.08697 
L 293.164561 88.588173 
L 295.336163 88.123029 
L 296.421964 88.119583 
L 297.507765 87.775032 
L 298.593566 86.762052 
L 299.679368 85.983366 
L 300.765169 86.352036 
L 301.85097 85.507886 
L 302.936771 85.724953 
L 304.022572 84.481124 
L 305.108373 83.840259 
L 306.194175 83.957406 
L 307.279976 83.20973 
L 308.365777 82.706686 
L 309.451578 82.062375 
L 310.537379 81.917664 
L 311.62318 81.280244 
L 312.708981 81.455965 
L 313.794783 80.977039 
L 314.880584 79.888258 
L 315.966385 78.95797 
L 317.052186 78.572072 
L 318.137987 79.047553 
L 320.30959 77.235214 
L 321.395391 76.084414 
L 322.481192 75.722635 
L 323.566993 76.060295 
L 324.652794 75.071433 
L 325.738595 75.28161 
L 327.910198 73.376242 
L 328.995999 73.241867 
L 330.0818 72.41839 
L 331.167601 72.659576 
L 332.253402 71.774079 
L 333.339203 70.523359 
L 334.425005 69.95485 
L 335.510806 70.120234 
L 336.596607 68.97977 
L 337.682408 69.351885 
L 338.768209 68.54219 
L 339.85401 67.990909 
L 343.111414 65.589387 
L 344.197215 64.72801 
L 345.283016 64.79692 
L 348.54042 62.488428 
L 349.626221 61.423765 
L 350.712022 61.86479 
L 351.797823 61.654614 
L 352.883624 61.092996 
L 353.969425 59.814711 
L 355.055227 60.376329 
L 356.141028 58.233222 
L 357.226829 57.71295 
L 358.31263 57.854216 
L 359.398431 56.724088 
L 360.484232 56.699969 
L 361.570033 55.821364 
L 362.655835 55.969521 
L 363.741636 54.332903 
L 364.827437 54.432823 
L 365.913238 53.568 
L 368.08484 53.857423 
L 369.170642 56.679296 
L 370.256443 57.71295 
L 371.342244 60.589951 
L 372.428045 61.644278 
L 373.513846 62.285143 
L 374.599647 62.061184 
L 375.685448 62.247242 
L 376.77125 61.554694 
L 377.857051 62.753732 
L 378.942852 62.615912 
L 380.028653 62.750286 
L 381.114454 62.767514 
L 382.200255 62.157659 
L 383.286057 62.719277 
L 385.457659 63.311905 
L 386.54346 63.07761 
L 387.629261 63.470398 
L 388.715062 62.316152 
L 389.800863 63.356696 
L 390.886665 62.733059 
L 391.972466 63.711584 
L 393.058267 63.577209 
L 394.144068 63.987225 
L 395.229869 62.946681 
L 396.31567 63.721921 
L 397.401472 64.100927 
L 398.487273 64.069917 
L 398.487273 64.069917 
" clip-path="url(#pa96ee70f67)" style="fill: none; stroke: #1f77b4; stroke-width: 1.5; stroke-linecap: square"/>
   </g>
   <g id="line2d_20">
    <path d="M 73.832727 275.941272 
L 74.918528 259.678461 
L 76.00433 233.630399 
L 77.090131 212.543872 
L 78.175932 205.51503 
L 79.261733 194.213754 
L 80.347534 188.494206 
L 81.433335 174.091971 
L 82.519137 170.543094 
L 83.604938 165.202553 
L 84.690739 156.037494 
L 85.77654 150.317946 
L 86.862341 145.976602 
L 87.948142 143.73702 
L 89.033943 140.808335 
L 90.119745 135.261063 
L 91.205546 131.367636 
L 92.291347 130.575168 
L 93.377148 128.301131 
L 94.462949 128.301131 
L 95.54875 159.930921 
L 96.634552 158.17371 
L 97.720353 157.208967 
L 98.806154 154.624834 
L 99.891955 146.217788 
L 100.977756 145.735416 
L 102.063557 146.941345 
L 103.149358 144.632853 
L 104.23516 135.812345 
L 105.320961 139.120035 
L 106.406762 139.08558 
L 107.492563 131.333181 
L 108.578364 130.575168 
L 109.664165 130.506258 
L 110.749967 124.85562 
L 111.835768 125.716998 
L 112.921569 120.789917 
L 114.00737 119.721809 
L 115.093171 120.307546 
L 116.178972 116.000657 
L 117.264773 114.346812 
L 118.350575 113.829985 
L 119.436376 110.315564 
L 120.522177 110.246654 
L 121.607978 105.801945 
L 122.693779 106.146496 
L 123.77958 102.253069 
L 124.865382 102.700985 
L 125.951183 102.59762 
L 127.036984 98.325186 
L 128.122785 98.290731 
L 129.208586 96.809162 
L 130.294387 95.051951 
L 131.380189 93.708202 
L 132.46599 93.501471 
L 133.551791 93.983843 
L 134.637592 92.571183 
L 135.723393 92.088812 
L 136.809194 92.019901 
L 137.894995 91.813171 
L 138.980797 135.433339 
L 140.066598 134.537506 
L 141.152399 132.297924 
L 142.2382 128.370041 
L 143.324001 134.916512 
L 144.409802 125.682543 
L 145.495604 126.233824 
L 146.581405 124.85562 
L 147.667206 119.308348 
L 149.838808 126.027094 
L 150.924609 121.479019 
L 152.01041 123.201775 
L 153.096212 123.408506 
L 154.182013 117.688957 
L 155.267814 123.270685 
L 156.353615 115.104824 
L 157.439416 118.619245 
L 158.525217 120.06636 
L 159.611019 116.724214 
L 160.69682 117.172131 
L 161.782621 112.417326 
L 162.868422 111.728224 
L 163.954223 111.487038 
L 165.040024 111.073577 
L 166.125825 111.142487 
L 167.211627 112.589601 
L 168.297428 112.279505 
L 169.383229 109.419731 
L 170.46903 108.248258 
L 171.554831 108.351623 
L 172.640632 105.939765 
L 173.726434 107.24906 
L 174.812235 106.215406 
L 175.898036 104.320375 
L 176.983837 101.667332 
L 178.069638 101.288326 
L 179.155439 101.563967 
L 180.24124 104.768292 
L 181.327042 99.668936 
L 182.412843 97.463809 
L 183.498644 97.153713 
L 184.584445 98.635282 
L 185.670246 94.983041 
L 186.756047 95.327592 
L 187.841849 92.123267 
L 188.92765 92.915734 
L 190.013451 94.63849 
L 192.185053 90.986248 
L 193.270854 92.019901 
L 194.356656 91.67535 
L 195.442457 88.781121 
L 196.528258 87.781923 
L 197.614059 87.265096 
L 198.69986 86.88609 
L 199.785661 87.161731 
L 200.871462 84.060771 
L 201.957264 83.681765 
L 203.043065 85.301155 
L 204.128866 82.131285 
L 205.214667 81.338818 
L 206.300468 79.409332 
L 207.386269 80.374075 
L 208.472071 78.85805 
L 209.557872 78.685774 
L 210.643673 77.273115 
L 211.729474 77.617666 
L 212.815275 78.444589 
L 213.901076 76.963019 
L 214.986877 76.618468 
L 216.072679 76.136096 
L 217.15848 76.618468 
L 218.244281 76.136096 
L 219.330082 75.860455 
L 220.415883 76.756288 
L 221.501684 76.411737 
L 222.587486 76.205006 
L 223.673287 76.170551 
L 224.759088 75.446994 
L 225.844889 126.027094 
L 226.93069 123.063954 
L 228.016491 125.992639 
L 229.102292 118.171329 
L 230.188094 118.757066 
L 231.273895 120.721007 
L 232.359696 118.37806 
L 233.445497 126.33719 
L 234.531298 118.963797 
L 235.617099 124.235428 
L 236.702901 114.725818 
L 237.788702 112.934152 
L 238.874503 111.797134 
L 239.960304 112.865242 
L 241.046105 111.349217 
L 242.131906 116.069567 
L 243.217708 117.172131 
L 244.303509 116.620849 
L 245.38931 114.174536 
L 246.475111 119.377258 
L 247.560912 120.652097 
L 248.646713 111.900499 
L 249.732514 110.281109 
L 250.818316 110.55675 
L 251.904117 115.725016 
L 252.989918 108.007072 
L 254.075719 108.075982 
L 255.16152 109.178546 
L 256.247321 109.040725 
L 257.333123 112.348416 
L 258.418924 114.484632 
L 259.504725 107.076784 
L 260.590526 109.109635 
L 261.676327 110.177744 
L 262.762128 104.871657 
L 263.847929 110.315564 
L 266.019532 107.31797 
L 267.105333 108.765084 
L 268.191134 108.179347 
L 269.276935 114.312357 
L 270.362736 105.216208 
L 271.448538 103.838004 
L 272.534339 103.045536 
L 273.62014 113.175338 
L 274.705941 103.355632 
L 275.791742 105.285118 
L 276.877543 103.390087 
L 277.963344 108.420533 
L 279.049146 106.249861 
L 280.134947 101.322781 
L 281.220748 106.008676 
L 282.306549 103.941369 
L 283.39235 100.185762 
L 284.478151 102.080793 
L 285.563953 98.497462 
L 286.649754 98.945378 
L 287.735555 101.253871 
L 288.821356 101.460601 
L 289.907157 99.462205 
L 290.992958 97.704994 
L 292.07876 107.042329 
L 293.164561 98.945378 
L 294.250362 102.218614 
L 295.336163 98.187366 
L 296.421964 103.872459 
L 297.507765 96.361245 
L 298.593566 97.360443 
L 299.679368 96.3957 
L 300.765169 103.148902 
L 301.85097 95.430957 
L 302.936771 98.290731 
L 304.022572 96.25788 
L 305.108373 100.530313 
L 306.194175 99.737846 
L 307.279976 97.394898 
L 308.365777 91.365254 
L 309.451578 93.983843 
L 310.537379 93.363651 
L 311.62318 94.466214 
L 312.708981 96.567976 
L 313.794783 93.777112 
L 314.880584 93.570381 
L 315.966385 91.192979 
L 317.052186 95.775508 
L 318.137987 90.400511 
L 319.223788 89.332403 
L 320.30959 92.571183 
L 321.395391 88.50548 
L 322.481192 91.882081 
L 323.566993 88.471025 
L 324.652794 90.745062 
L 325.738595 87.230641 
L 326.824396 87.471827 
L 327.910198 88.092019 
L 328.995999 87.437372 
L 330.0818 90.469422 
L 331.167601 87.471827 
L 332.253402 85.370065 
L 333.339203 87.437372 
L 334.425005 87.265096 
L 335.510806 85.542341 
L 336.596607 83.302759 
L 337.682408 83.819586 
L 338.768209 84.715418 
L 339.85401 84.474233 
L 340.939811 84.749873 
L 342.025613 82.02792 
L 343.111414 82.200195 
L 344.197215 81.648914 
L 345.283016 82.131285 
L 346.368817 81.028722 
L 347.454618 81.717824 
L 348.54042 82.200195 
L 349.626221 80.821991 
L 350.712022 78.651319 
L 351.797823 76.825198 
L 352.883624 78.651319 
L 353.969425 81.304363 
L 355.055227 79.133691 
L 356.141028 78.92696 
L 357.226829 77.479846 
L 358.31263 76.377282 
L 359.398431 76.515102 
L 360.484232 76.136096 
L 361.570033 73.000681 
L 362.655835 75.343629 
L 363.741636 74.757892 
L 364.827437 76.377282 
L 365.913238 75.378084 
L 366.999039 73.862059 
L 368.08484 75.309174 
L 369.170642 75.75709 
L 370.256443 78.203403 
L 371.342244 78.85805 
L 372.428045 81.752279 
L 373.513846 82.062375 
L 374.599647 85.232245 
L 375.685448 81.097632 
L 376.77125 86.369264 
L 377.857051 85.749072 
L 378.942852 82.131285 
L 380.028653 80.718626 
L 381.114454 83.475034 
L 382.200255 79.857248 
L 383.286057 84.336412 
L 384.371858 81.786734 
L 385.457659 80.167344 
L 386.54346 84.784329 
L 387.629261 82.854842 
L 388.715062 82.579202 
L 389.800863 82.441381 
L 390.886665 85.611251 
L 391.972466 82.200195 
L 393.058267 82.958208 
L 394.144068 79.512697 
L 395.229869 80.787536 
L 396.31567 84.818784 
L 397.401472 86.403719 
L 398.487273 85.2667 
L 398.487273 85.2667 
" clip-path="url(#pa96ee70f67)" style="fill: none; stroke: #ff7f0e; stroke-width: 1.5; stroke-linecap: square"/>
   </g>
   <g id="line2d_21">
    <path d="M 73.832727 295.488 
L 74.918528 288.977018 
L 76.00433 284.391091 
L 77.090131 268.898173 
L 78.175932 267.662541 
L 79.261733 260.153704 
L 80.347534 266.09424 
L 81.433335 260.343801 
L 82.519137 251.765667 
L 83.604938 248.70035 
L 84.690739 248.201345 
L 85.77654 241.595469 
L 86.862341 244.945932 
L 87.948142 239.147968 
L 89.033943 242.498431 
L 90.119745 235.227215 
L 91.205546 236.272749 
L 92.291347 235.346025 
L 93.377148 234.134156 
L 94.462949 233.920297 
L 95.54875 251.836953 
L 96.634552 251.836953 
L 97.720353 250.815181 
L 98.806154 246.58552 
L 99.891955 238.245007 
L 100.977756 244.280592 
L 102.063557 243.258819 
L 103.149358 235.916317 
L 104.23516 234.134156 
L 105.320961 243.092484 
L 106.406762 243.330106 
L 107.492563 236.51037 
L 108.578364 236.629181 
L 109.664165 237.033138 
L 110.749967 226.601556 
L 111.835768 233.326243 
L 112.921569 225.460974 
L 114.00737 225.983741 
L 115.093171 231.995563 
L 116.178972 223.773861 
L 117.264773 223.274856 
L 118.350575 218.99767 
L 119.436376 224.249104 
L 120.522177 222.039225 
L 121.607978 222.8709 
L 122.693779 218.783811 
L 123.77958 213.603664 
L 124.865382 210.799731 
L 125.951183 213.437329 
L 127.036984 212.843275 
L 128.122785 214.791771 
L 129.208586 214.078907 
L 130.294387 210.728444 
L 131.380189 209.231429 
L 132.46599 210.775969 
L 133.551791 209.754196 
L 134.637592 209.01757 
L 135.723393 208.613613 
L 136.809194 208.661138 
L 137.894995 208.090846 
L 138.980797 235.72622 
L 140.066598 233.967821 
L 141.152399 228.455004 
L 142.2382 228.954009 
L 143.324001 241.833091 
L 144.409802 227.148086 
L 145.495604 233.611389 
L 146.581405 231.163888 
L 147.667206 221.896652 
L 148.753007 228.85896 
L 149.838808 229.999543 
L 150.924609 223.060997 
L 152.01041 231.449034 
L 153.096212 223.702575 
L 154.182013 231.282699 
L 155.267814 232.256947 
L 156.353615 226.173838 
L 157.439416 223.393667 
L 158.525217 227.575804 
L 159.611019 225.104541 
L 160.69682 219.472913 
L 161.782621 218.902622 
L 162.868422 217.00165 
L 163.954223 216.360072 
L 165.040024 218.87886 
L 166.125825 219.710535 
L 167.211627 226.102551 
L 168.297428 220.233302 
L 169.383229 211.607644 
L 170.46903 218.308568 
L 171.554831 216.621456 
L 172.640632 214.245242 
L 173.726434 216.478883 
L 174.812235 213.057134 
L 175.898036 214.981868 
L 176.983837 217.33432 
L 178.069638 211.393784 
L 179.155439 215.837305 
L 180.24124 211.179925 
L 181.327042 210.633396 
L 182.412843 208.35223 
L 183.498644 202.530505 
L 184.584445 212.558129 
L 185.670246 211.773979 
L 186.756047 206.760166 
L 187.841849 208.613613 
L 188.92765 207.876987 
L 190.013451 206.593831 
L 191.099252 201.009727 
L 192.185053 205.3582 
L 193.270854 212.249221 
L 194.356656 203.100796 
L 195.442457 202.340407 
L 196.528258 205.02553 
L 198.69986 194.807808 
L 199.785661 198.467178 
L 200.871462 195.188002 
L 201.957264 195.948391 
L 203.043065 195.758294 
L 204.128866 194.997905 
L 205.214667 193.904846 
L 206.300468 196.49492 
L 207.386269 192.954361 
L 208.472071 195.805818 
L 209.557872 192.431593 
L 210.643673 193.762273 
L 211.729474 190.245476 
L 212.815275 190.744481 
L 213.901076 191.433583 
L 214.986877 190.126665 
L 216.072679 190.887054 
L 217.15848 188.582126 
L 218.244281 188.558364 
L 220.415883 187.774213 
L 221.501684 188.249456 
L 222.587486 187.916786 
L 223.673287 188.534602 
L 224.759088 186.63363 
L 225.844889 230.047067 
L 226.93069 222.823376 
L 228.016491 230.308451 
L 229.102292 231.900515 
L 230.188094 219.092719 
L 231.273895 228.787674 
L 232.359696 225.057017 
L 233.445497 229.548062 
L 234.531298 230.023305 
L 235.617099 218.950146 
L 236.702901 222.8709 
L 237.788702 220.114491 
L 238.874503 220.090729 
L 239.960304 212.34427 
L 241.046105 213.270994 
L 242.131906 220.851118 
L 243.217708 222.633278 
L 244.303509 225.793644 
L 245.38931 218.736287 
L 246.475111 227.005513 
L 247.560912 230.355975 
L 248.646713 215.623446 
L 249.732514 212.296746 
L 250.818316 220.969928 
L 251.904117 231.472796 
L 252.989918 224.653061 
L 254.075719 215.884829 
L 256.247321 218.617476 
L 257.333123 222.32437 
L 258.418924 214.649198 
L 259.504725 223.346143 
L 260.590526 225.318401 
L 261.676327 219.354102 
L 262.762128 214.245242 
L 263.847929 218.688762 
L 264.933731 220.922404 
L 266.019532 210.276963 
L 267.105333 209.540337 
L 268.191134 221.87289 
L 269.276935 225.413449 
L 270.362736 215.552159 
L 271.448538 218.87886 
L 272.534339 217.191747 
L 273.62014 226.340173 
L 274.705941 217.00165 
L 275.791742 217.191747 
L 276.877543 209.777958 
L 277.963344 221.563982 
L 279.049146 212.130411 
L 280.134947 209.754196 
L 281.220748 215.694732 
L 283.39235 209.160143 
L 284.478151 216.383834 
L 286.649754 205.714632 
L 287.735555 209.611623 
L 288.821356 197.991935 
L 289.907157 209.968056 
L 290.992958 213.318518 
L 292.07876 209.635386 
L 293.164561 201.81764 
L 294.250362 212.534367 
L 295.336163 213.960096 
L 296.421964 214.055144 
L 297.507765 206.80769 
L 298.593566 216.88284 
L 299.679368 212.130411 
L 300.765169 211.227449 
L 301.85097 202.601791 
L 302.936771 210.324488 
L 304.022572 196.589969 
L 305.108373 205.239389 
L 306.194175 204.407714 
L 307.279976 210.01558 
L 308.365777 202.720602 
L 309.451578 200.81963 
L 310.537379 203.766136 
L 311.62318 203.385942 
L 312.708981 210.609634 
L 313.794783 210.086866 
L 314.880584 211.251211 
L 315.966385 206.166113 
L 317.052186 208.162133 
L 318.137987 196.780066 
L 319.223788 204.502762 
L 320.30959 203.69485 
L 321.395391 200.106766 
L 322.481192 206.308685 
L 323.566993 200.677057 
L 324.652794 198.300843 
L 325.738595 198.776086 
L 327.910198 209.801721 
L 328.995999 197.730551 
L 330.0818 210.467061 
L 331.167601 202.459218 
L 332.253402 200.296863 
L 333.339203 208.661138 
L 334.425005 200.415674 
L 335.510806 202.221597 
L 336.596607 198.776086 
L 337.682408 196.281061 
L 338.768209 203.956233 
L 339.85401 198.942421 
L 340.939811 197.374119 
L 342.025613 198.300843 
L 343.111414 195.615721 
L 344.197215 194.403851 
L 345.283016 196.019677 
L 346.368817 200.510722 
L 347.454618 192.193972 
L 348.54042 194.023657 
L 349.626221 192.764263 
L 350.712022 191.077151 
L 351.797823 191.766253 
L 352.883624 190.293 
L 353.969425 198.015697 
L 355.055227 189.580136 
L 356.141028 193.049409 
L 357.226829 194.855332 
L 358.31263 191.053389 
L 359.398431 185.017804 
L 360.484232 192.407831 
L 361.570033 191.148438 
L 362.655835 186.799965 
L 363.741636 192.645453 
L 364.827437 193.429603 
L 365.913238 187.322732 
L 366.999039 189.223704 
L 368.08484 192.217734 
L 369.170642 185.825717 
L 370.256443 191.813778 
L 371.342244 195.639483 
L 372.428045 194.522662 
L 373.513846 199.346377 
L 374.599647 198.514702 
L 375.685448 192.906836 
L 376.77125 196.851352 
L 377.857051 201.69883 
L 378.942852 197.16026 
L 380.028653 191.457345 
L 381.114454 192.906836 
L 382.200255 189.461325 
L 383.286057 197.302833 
L 384.371858 197.730551 
L 385.457659 195.425623 
L 386.54346 205.595821 
L 387.629261 195.948391 
L 388.715062 197.350357 
L 389.800863 186.015814 
L 390.886665 190.388049 
L 391.972466 195.330575 
L 393.058267 197.635503 
L 394.144068 196.946401 
L 395.229869 194.736521 
L 396.31567 195.82958 
L 397.401472 202.197835 
L 398.487273 193.239506 
L 398.487273 193.239506 
" clip-path="url(#pa96ee70f67)" style="fill: none; stroke: #2ca02c; stroke-width: 1.5; stroke-linecap: square"/>
   </g>
   <g id="line2d_22">
    <path d="M 368.08484 74.757892 
L 369.170642 75.550359 
L 370.256443 79.995068 
L 371.342244 79.478242 
L 372.428045 86.403719 
L 373.513846 84.129682 
L 374.599647 80.649716 
L 376.77125 87.816378 
L 377.857051 86.128078 
L 378.942852 87.299552 
L 380.028653 89.745864 
L 381.114454 85.507886 
L 382.200255 88.987852 
L 383.286057 89.194583 
L 384.371858 89.091217 
L 385.457659 85.301155 
L 386.54346 90.848428 
L 387.629261 90.228236 
L 389.800863 96.32679 
L 390.886665 96.602431 
L 391.972466 95.258682 
L 393.058267 96.016694 
L 394.144068 96.120059 
L 395.229869 109.936558 
L 396.31567 95.189771 
L 397.401472 107.352425 
L 398.487273 109.936558 
L 398.487273 109.936558 
" clip-path="url(#pa96ee70f67)" style="fill: none; stroke: #d62728; stroke-width: 1.5; stroke-linecap: square"/>
   </g>
   <g id="line2d_23">
    <path d="M 368.08484 189.603898 
L 369.170642 189.817757 
L 370.256443 197.659265 
L 371.342244 190.863292 
L 372.428045 192.83555 
L 374.599647 205.643345 
L 375.685448 200.15429 
L 376.77125 205.429486 
L 377.857051 197.255309 
L 378.942852 206.308685 
L 380.028653 203.124558 
L 381.114454 208.01956 
L 382.200255 205.857205 
L 383.286057 205.952253 
L 384.371858 204.740384 
L 385.457659 198.443416 
L 386.54346 200.273101 
L 387.629261 196.471158 
L 388.715062 216.645218 
L 389.800863 210.205677 
L 390.886665 215.932354 
L 391.972466 202.578029 
L 393.058267 206.189875 
L 394.144068 214.934344 
L 395.229869 224.676823 
L 396.31567 212.629416 
L 397.401472 214.292766 
L 398.487273 225.247114 
L 398.487273 225.247114 
" clip-path="url(#pa96ee70f67)" style="fill: none; stroke: #9467bd; stroke-width: 1.5; stroke-linecap: square"/>
   </g>
   <g id="patch_3">
    <path d="M 57.6 307.584 
L 57.6 41.472 
" style="fill: none; stroke: #000000; stroke-width: 0.8; stroke-linejoin: miter; stroke-linecap: square"/>
   </g>
   <g id="patch_4">
    <path d="M 414.72 307.584 
L 414.72 41.472 
" style="fill: none; stroke: #000000; stroke-width: 0.8; stroke-linejoin: miter; stroke-linecap: square"/>
   </g>
   <g id="patch_5">
    <path d="M 57.6 307.584 
L 414.72 307.584 
" style="fill: none; stroke: #000000; stroke-width: 0.8; stroke-linejoin: miter; stroke-linecap: square"/>
   </g>
   <g id="patch_6">
    <path d="M 57.6 41.472 
L 414.72 41.472 
" style="fill: none; stroke: #000000; stroke-width: 0.8; stroke-linejoin: miter; stroke-linecap: square"/>
   </g>
   <g id="text_21">
    <!-- Learning Curves -->
    <g transform="translate(187.37625 35.472) scale(0.12 -0.12)">
     <defs>
      <path id="DejaVuSans-4c" d="M 628 4666 
L 1259 4666 
L 1259 531 
L 3531 531 
L 3531 0 
L 628 0 
L 628 4666 
z
" transform="scale(0.015625)"/>
      <path id="DejaVuSans-65" d="M 3597 1894 
L 3597 1613 
L 953 1613 
Q 991 1019 1311 708 
Q 1631 397 2203 397 
Q 2534 397 2845 478 
Q 3156 559 3463 722 
L 3463 178 
Q 3153 47 2828 -22 
Q 2503 -91 2169 -91 
Q 1331 -91 842 396 
Q 353 884 353 1716 
Q 353 2575 817 3079 
Q 1281 3584 2069 3584 
Q 2775 3584 3186 3129 
Q 3597 2675 3597 1894 
z
M 3022 2063 
Q 3016 2534 2758 2815 
Q 2500 3097 2075 3097 
Q 1594 3097 1305 2825 
Q 1016 2553 972 2059 
L 3022 2063 
z
" transform="scale(0.015625)"/>
      <path id="DejaVuSans-6e" d="M 3513 2113 
L 3513 0 
L 2938 0 
L 2938 2094 
Q 2938 2591 2744 2837 
Q 2550 3084 2163 3084 
Q 1697 3084 1428 2787 
Q 1159 2491 1159 1978 
L 1159 0 
L 581 0 
L 581 3500 
L 1159 3500 
L 1159 2956 
Q 1366 3272 1645 3428 
Q 1925 3584 2291 3584 
Q 2894 3584 3203 3211 
Q 3513 2838 3513 2113 
z
" transform="scale(0.015625)"/>
      <path id="DejaVuSans-69" d="M 603 3500 
L 1178 3500 
L 1178 0 
L 603 0 
L 603 3500 
z
M 603 4863 
L 1178 4863 
L 1178 4134 
L 603 4134 
L 603 4863 
z
" transform="scale(0.015625)"/>
      <path id="DejaVuSans-67" d="M 2906 1791 
Q 2906 2416 2648 2759 
Q 2391 3103 1925 3103 
Q 1463 3103 1205 2759 
Q 947 2416 947 1791 
Q 947 1169 1205 825 
Q 1463 481 1925 481 
Q 2391 481 2648 825 
Q 2906 1169 2906 1791 
z
M 3481 434 
Q 3481 -459 3084 -895 
Q 2688 -1331 1869 -1331 
Q 1566 -1331 1297 -1286 
Q 1028 -1241 775 -1147 
L 775 -588 
Q 1028 -725 1275 -790 
Q 1522 -856 1778 -856 
Q 2344 -856 2625 -561 
Q 2906 -266 2906 331 
L 2906 616 
Q 2728 306 2450 153 
Q 2172 0 1784 0 
Q 1141 0 747 490 
Q 353 981 353 1791 
Q 353 2603 747 3093 
Q 1141 3584 1784 3584 
Q 2172 3584 2450 3431 
Q 2728 3278 2906 2969 
L 2906 3500 
L 3481 3500 
L 3481 434 
z
" transform="scale(0.015625)"/>
      <path id="DejaVuSans-20" transform="scale(0.015625)"/>
      <path id="DejaVuSans-43" d="M 4122 4306 
L 4122 3641 
Q 3803 3938 3442 4084 
Q 3081 4231 2675 4231 
Q 1875 4231 1450 3742 
Q 1025 3253 1025 2328 
Q 1025 1406 1450 917 
Q 1875 428 2675 428 
Q 3081 428 3442 575 
Q 3803 722 4122 1019 
L 4122 359 
Q 3791 134 3420 21 
Q 3050 -91 2638 -91 
Q 1578 -91 968 557 
Q 359 1206 359 2328 
Q 359 3453 968 4101 
Q 1578 4750 2638 4750 
Q 3056 4750 3426 4639 
Q 3797 4528 4122 4306 
z
" transform="scale(0.015625)"/>
      <path id="DejaVuSans-76" d="M 191 3500 
L 800 3500 
L 1894 563 
L 2988 3500 
L 3597 3500 
L 2284 0 
L 1503 0 
L 191 3500 
z
" transform="scale(0.015625)"/>
     </defs>
     <use xlink:href="#DejaVuSans-4c"/>
     <use xlink:href="#DejaVuSans-65" x="53.962891"/>
     <use xlink:href="#DejaVuSans-61" x="115.486328"/>
     <use xlink:href="#DejaVuSans-72" x="176.765625"/>
     <use xlink:href="#DejaVuSans-6e" x="216.128906"/>
     <use xlink:href="#DejaVuSans-69" x="279.507812"/>
     <use xlink:href="#DejaVuSans-6e" x="307.291016"/>
     <use xlink:href="#DejaVuSans-67" x="370.669922"/>
     <use xlink:href="#DejaVuSans-20" x="434.146484"/>
     <use xlink:href="#DejaVuSans-43" x="465.933594"/>
     <use xlink:href="#DejaVuSans-75" x="535.757812"/>
     <use xlink:href="#DejaVuSans-72" x="599.136719"/>
     <use xlink:href="#DejaVuSans-76" x="640.25"/>
     <use xlink:href="#DejaVuSans-65" x="699.429688"/>
     <use xlink:href="#DejaVuSans-73" x="760.953125"/>
    </g>
   </g>
   <g id="legend_1">
    <g id="patch_7">
     <path d="M 214.18875 302.584 
L 407.72 302.584 
Q 409.72 302.584 409.72 300.584 
L 409.72 228.193375 
Q 409.72 226.193375 407.72 226.193375 
L 214.18875 226.193375 
Q 212.18875 226.193375 212.18875 228.193375 
L 212.18875 300.584 
Q 212.18875 302.584 214.18875 302.584 
z
" style="fill: #ffffff; opacity: 0.8; stroke: #cccccc; stroke-linejoin: miter"/>
    </g>
    <g id="line2d_24">
     <path d="M 216.18875 234.291812 
L 226.18875 234.291812 
L 236.18875 234.291812 
" style="fill: none; stroke: #1f77b4; stroke-width: 1.5; stroke-linecap: square"/>
    </g>
    <g id="text_22">
     <!-- Train Accuracy -->
     <g transform="translate(244.18875 237.791812) scale(0.1 -0.1)">
      <defs>
       <path id="DejaVuSans-54" d="M -19 4666 
L 3928 4666 
L 3928 4134 
L 2272 4134 
L 2272 0 
L 1638 0 
L 1638 4134 
L -19 4134 
L -19 4666 
z
" transform="scale(0.015625)"/>
      </defs>
      <use xlink:href="#DejaVuSans-54"/>
      <use xlink:href="#DejaVuSans-72" x="46.333984"/>
      <use xlink:href="#DejaVuSans-61" x="87.447266"/>
      <use xlink:href="#DejaVuSans-69" x="148.726562"/>
      <use xlink:href="#DejaVuSans-6e" x="176.509766"/>
      <use xlink:href="#DejaVuSans-20" x="239.888672"/>
      <use xlink:href="#DejaVuSans-41" x="271.675781"/>
      <use xlink:href="#DejaVuSans-63" x="338.333984"/>
      <use xlink:href="#DejaVuSans-63" x="393.314453"/>
      <use xlink:href="#DejaVuSans-75" x="448.294922"/>
      <use xlink:href="#DejaVuSans-72" x="511.673828"/>
      <use xlink:href="#DejaVuSans-61" x="552.787109"/>
      <use xlink:href="#DejaVuSans-63" x="614.066406"/>
      <use xlink:href="#DejaVuSans-79" x="669.046875"/>
     </g>
    </g>
    <g id="line2d_25">
     <path d="M 216.18875 248.969937 
L 226.18875 248.969937 
L 236.18875 248.969937 
" style="fill: none; stroke: #ff7f0e; stroke-width: 1.5; stroke-linecap: square"/>
    </g>
    <g id="text_23">
     <!-- Validation Accuracy -->
     <g transform="translate(244.18875 252.469937) scale(0.1 -0.1)">
      <defs>
       <path id="DejaVuSans-56" d="M 1831 0 
L 50 4666 
L 709 4666 
L 2188 738 
L 3669 4666 
L 4325 4666 
L 2547 0 
L 1831 0 
z
" transform="scale(0.015625)"/>
       <path id="DejaVuSans-6c" d="M 603 4863 
L 1178 4863 
L 1178 0 
L 603 0 
L 603 4863 
z
" transform="scale(0.015625)"/>
       <path id="DejaVuSans-64" d="M 2906 2969 
L 2906 4863 
L 3481 4863 
L 3481 0 
L 2906 0 
L 2906 525 
Q 2725 213 2448 61 
Q 2172 -91 1784 -91 
Q 1150 -91 751 415 
Q 353 922 353 1747 
Q 353 2572 751 3078 
Q 1150 3584 1784 3584 
Q 2172 3584 2448 3432 
Q 2725 3281 2906 2969 
z
M 947 1747 
Q 947 1113 1208 752 
Q 1469 391 1925 391 
Q 2381 391 2643 752 
Q 2906 1113 2906 1747 
Q 2906 2381 2643 2742 
Q 2381 3103 1925 3103 
Q 1469 3103 1208 2742 
Q 947 2381 947 1747 
z
" transform="scale(0.015625)"/>
       <path id="DejaVuSans-74" d="M 1172 4494 
L 1172 3500 
L 2356 3500 
L 2356 3053 
L 1172 3053 
L 1172 1153 
Q 1172 725 1289 603 
Q 1406 481 1766 481 
L 2356 481 
L 2356 0 
L 1766 0 
Q 1100 0 847 248 
Q 594 497 594 1153 
L 594 3053 
L 172 3053 
L 172 3500 
L 594 3500 
L 594 4494 
L 1172 4494 
z
" transform="scale(0.015625)"/>
      </defs>
      <use xlink:href="#DejaVuSans-56"/>
      <use xlink:href="#DejaVuSans-61" x="60.658203"/>
      <use xlink:href="#DejaVuSans-6c" x="121.9375"/>
      <use xlink:href="#DejaVuSans-69" x="149.720703"/>
      <use xlink:href="#DejaVuSans-64" x="177.503906"/>
      <use xlink:href="#DejaVuSans-61" x="240.980469"/>
      <use xlink:href="#DejaVuSans-74" x="302.259766"/>
      <use xlink:href="#DejaVuSans-69" x="341.46875"/>
      <use xlink:href="#DejaVuSans-6f" x="369.251953"/>
      <use xlink:href="#DejaVuSans-6e" x="430.433594"/>
      <use xlink:href="#DejaVuSans-20" x="493.8125"/>
      <use xlink:href="#DejaVuSans-41" x="525.599609"/>
      <use xlink:href="#DejaVuSans-63" x="592.257812"/>
      <use xlink:href="#DejaVuSans-63" x="647.238281"/>
      <use xlink:href="#DejaVuSans-75" x="702.21875"/>
      <use xlink:href="#DejaVuSans-72" x="765.597656"/>
      <use xlink:href="#DejaVuSans-61" x="806.710938"/>
      <use xlink:href="#DejaVuSans-63" x="867.990234"/>
      <use xlink:href="#DejaVuSans-79" x="922.970703"/>
     </g>
    </g>
    <g id="line2d_26">
     <path d="M 216.18875 263.648062 
L 226.18875 263.648062 
L 236.18875 263.648062 
" style="fill: none; stroke: #2ca02c; stroke-width: 1.5; stroke-linecap: square"/>
    </g>
    <g id="text_24">
     <!-- Robust Validation Accuracy -->
     <g transform="translate(244.18875 267.148062) scale(0.1 -0.1)">
      <defs>
       <path id="DejaVuSans-52" d="M 2841 2188 
Q 3044 2119 3236 1894 
Q 3428 1669 3622 1275 
L 4263 0 
L 3584 0 
L 2988 1197 
Q 2756 1666 2539 1819 
Q 2322 1972 1947 1972 
L 1259 1972 
L 1259 0 
L 628 0 
L 628 4666 
L 2053 4666 
Q 2853 4666 3247 4331 
Q 3641 3997 3641 3322 
Q 3641 2881 3436 2590 
Q 3231 2300 2841 2188 
z
M 1259 4147 
L 1259 2491 
L 2053 2491 
Q 2509 2491 2742 2702 
Q 2975 2913 2975 3322 
Q 2975 3731 2742 3939 
Q 2509 4147 2053 4147 
L 1259 4147 
z
" transform="scale(0.015625)"/>
       <path id="DejaVuSans-62" d="M 3116 1747 
Q 3116 2381 2855 2742 
Q 2594 3103 2138 3103 
Q 1681 3103 1420 2742 
Q 1159 2381 1159 1747 
Q 1159 1113 1420 752 
Q 1681 391 2138 391 
Q 2594 391 2855 752 
Q 3116 1113 3116 1747 
z
M 1159 2969 
Q 1341 3281 1617 3432 
Q 1894 3584 2278 3584 
Q 2916 3584 3314 3078 
Q 3713 2572 3713 1747 
Q 3713 922 3314 415 
Q 2916 -91 2278 -91 
Q 1894 -91 1617 61 
Q 1341 213 1159 525 
L 1159 0 
L 581 0 
L 581 4863 
L 1159 4863 
L 1159 2969 
z
" transform="scale(0.015625)"/>
      </defs>
      <use xlink:href="#DejaVuSans-52"/>
      <use xlink:href="#DejaVuSans-6f" x="64.982422"/>
      <use xlink:href="#DejaVuSans-62" x="126.164062"/>
      <use xlink:href="#DejaVuSans-75" x="189.640625"/>
      <use xlink:href="#DejaVuSans-73" x="253.019531"/>
      <use xlink:href="#DejaVuSans-74" x="305.119141"/>
      <use xlink:href="#DejaVuSans-20" x="344.328125"/>
      <use xlink:href="#DejaVuSans-56" x="376.115234"/>
      <use xlink:href="#DejaVuSans-61" x="436.773438"/>
      <use xlink:href="#DejaVuSans-6c" x="498.052734"/>
      <use xlink:href="#DejaVuSans-69" x="525.835938"/>
      <use xlink:href="#DejaVuSans-64" x="553.619141"/>
      <use xlink:href="#DejaVuSans-61" x="617.095703"/>
      <use xlink:href="#DejaVuSans-74" x="678.375"/>
      <use xlink:href="#DejaVuSans-69" x="717.583984"/>
      <use xlink:href="#DejaVuSans-6f" x="745.367188"/>
      <use xlink:href="#DejaVuSans-6e" x="806.548828"/>
      <use xlink:href="#DejaVuSans-20" x="869.927734"/>
      <use xlink:href="#DejaVuSans-41" x="901.714844"/>
      <use xlink:href="#DejaVuSans-63" x="968.373047"/>
      <use xlink:href="#DejaVuSans-63" x="1023.353516"/>
      <use xlink:href="#DejaVuSans-75" x="1078.333984"/>
      <use xlink:href="#DejaVuSans-72" x="1141.712891"/>
      <use xlink:href="#DejaVuSans-61" x="1182.826172"/>
      <use xlink:href="#DejaVuSans-63" x="1244.105469"/>
      <use xlink:href="#DejaVuSans-79" x="1299.085938"/>
     </g>
    </g>
    <g id="line2d_27">
     <path d="M 216.18875 278.326188 
L 226.18875 278.326188 
L 236.18875 278.326188 
" style="fill: none; stroke: #d62728; stroke-width: 1.5; stroke-linecap: square"/>
    </g>
    <g id="text_25">
     <!-- SWA Validation Accuracy -->
     <g transform="translate(244.18875 281.826188) scale(0.1 -0.1)">
      <defs>
       <path id="DejaVuSans-53" d="M 3425 4513 
L 3425 3897 
Q 3066 4069 2747 4153 
Q 2428 4238 2131 4238 
Q 1616 4238 1336 4038 
Q 1056 3838 1056 3469 
Q 1056 3159 1242 3001 
Q 1428 2844 1947 2747 
L 2328 2669 
Q 3034 2534 3370 2195 
Q 3706 1856 3706 1288 
Q 3706 609 3251 259 
Q 2797 -91 1919 -91 
Q 1588 -91 1214 -16 
Q 841 59 441 206 
L 441 856 
Q 825 641 1194 531 
Q 1563 422 1919 422 
Q 2459 422 2753 634 
Q 3047 847 3047 1241 
Q 3047 1584 2836 1778 
Q 2625 1972 2144 2069 
L 1759 2144 
Q 1053 2284 737 2584 
Q 422 2884 422 3419 
Q 422 4038 858 4394 
Q 1294 4750 2059 4750 
Q 2388 4750 2728 4690 
Q 3069 4631 3425 4513 
z
" transform="scale(0.015625)"/>
       <path id="DejaVuSans-57" d="M 213 4666 
L 850 4666 
L 1831 722 
L 2809 4666 
L 3519 4666 
L 4500 722 
L 5478 4666 
L 6119 4666 
L 4947 0 
L 4153 0 
L 3169 4050 
L 2175 0 
L 1381 0 
L 213 4666 
z
" transform="scale(0.015625)"/>
      </defs>
      <use xlink:href="#DejaVuSans-53"/>
      <use xlink:href="#DejaVuSans-57" x="63.476562"/>
      <use xlink:href="#DejaVuSans-41" x="156.853516"/>
      <use xlink:href="#DejaVuSans-20" x="225.261719"/>
      <use xlink:href="#DejaVuSans-56" x="257.048828"/>
      <use xlink:href="#DejaVuSans-61" x="317.707031"/>
      <use xlink:href="#DejaVuSans-6c" x="378.986328"/>
      <use xlink:href="#DejaVuSans-69" x="406.769531"/>
      <use xlink:href="#DejaVuSans-64" x="434.552734"/>
      <use xlink:href="#DejaVuSans-61" x="498.029297"/>
      <use xlink:href="#DejaVuSans-74" x="559.308594"/>
      <use xlink:href="#DejaVuSans-69" x="598.517578"/>
      <use xlink:href="#DejaVuSans-6f" x="626.300781"/>
      <use xlink:href="#DejaVuSans-6e" x="687.482422"/>
      <use xlink:href="#DejaVuSans-20" x="750.861328"/>
      <use xlink:href="#DejaVuSans-41" x="782.648438"/>
      <use xlink:href="#DejaVuSans-63" x="849.306641"/>
      <use xlink:href="#DejaVuSans-63" x="904.287109"/>
      <use xlink:href="#DejaVuSans-75" x="959.267578"/>
      <use xlink:href="#DejaVuSans-72" x="1022.646484"/>
      <use xlink:href="#DejaVuSans-61" x="1063.759766"/>
      <use xlink:href="#DejaVuSans-63" x="1125.039062"/>
      <use xlink:href="#DejaVuSans-79" x="1180.019531"/>
     </g>
    </g>
    <g id="line2d_28">
     <path d="M 216.18875 293.004312 
L 226.18875 293.004312 
L 236.18875 293.004312 
" style="fill: none; stroke: #9467bd; stroke-width: 1.5; stroke-linecap: square"/>
    </g>
    <g id="text_26">
     <!-- SWA Robust Validation Accuracy -->
     <g transform="translate(244.18875 296.504312) scale(0.1 -0.1)">
      <use xlink:href="#DejaVuSans-53"/>
      <use xlink:href="#DejaVuSans-57" x="63.476562"/>
      <use xlink:href="#DejaVuSans-41" x="156.853516"/>
      <use xlink:href="#DejaVuSans-20" x="225.261719"/>
      <use xlink:href="#DejaVuSans-52" x="257.048828"/>
      <use xlink:href="#DejaVuSans-6f" x="322.03125"/>
      <use xlink:href="#DejaVuSans-62" x="383.212891"/>
      <use xlink:href="#DejaVuSans-75" x="446.689453"/>
      <use xlink:href="#DejaVuSans-73" x="510.068359"/>
      <use xlink:href="#DejaVuSans-74" x="562.167969"/>
      <use xlink:href="#DejaVuSans-20" x="601.376953"/>
      <use xlink:href="#DejaVuSans-56" x="633.164062"/>
      <use xlink:href="#DejaVuSans-61" x="693.822266"/>
      <use xlink:href="#DejaVuSans-6c" x="755.101562"/>
      <use xlink:href="#DejaVuSans-69" x="782.884766"/>
      <use xlink:href="#DejaVuSans-64" x="810.667969"/>
      <use xlink:href="#DejaVuSans-61" x="874.144531"/>
      <use xlink:href="#DejaVuSans-74" x="935.423828"/>
      <use xlink:href="#DejaVuSans-69" x="974.632812"/>
      <use xlink:href="#DejaVuSans-6f" x="1002.416016"/>
      <use xlink:href="#DejaVuSans-6e" x="1063.597656"/>
      <use xlink:href="#DejaVuSans-20" x="1126.976562"/>
      <use xlink:href="#DejaVuSans-41" x="1158.763672"/>
      <use xlink:href="#DejaVuSans-63" x="1225.421875"/>
      <use xlink:href="#DejaVuSans-63" x="1280.402344"/>
      <use xlink:href="#DejaVuSans-75" x="1335.382812"/>
      <use xlink:href="#DejaVuSans-72" x="1398.761719"/>
      <use xlink:href="#DejaVuSans-61" x="1439.875"/>
      <use xlink:href="#DejaVuSans-63" x="1501.154297"/>
      <use xlink:href="#DejaVuSans-79" x="1556.134766"/>
     </g>
    </g>
   </g>
  </g>
 </g>
 <defs>
  <clipPath id="pa96ee70f67">
   <rect x="57.6" y="41.472" width="357.12" height="266.112"/>
  </clipPath>
 </defs>
</svg>
