<?xml version="1.0" encoding="utf-8" standalone="no"?>
<!DOCTYPE svg PUBLIC "-//W3C//DTD SVG 1.1//EN"
  "http://www.w3.org/Graphics/SVG/1.1/DTD/svg11.dtd">
<svg xmlns:xlink="http://www.w3.org/1999/xlink" width="460.8pt" height="345.6pt" viewBox="0 0 460.8 345.6" xmlns="http://www.w3.org/2000/svg" version="1.1">
 <metadata>
  <rdf:RDF xmlns:dc="http://purl.org/dc/elements/1.1/" xmlns:cc="http://creativecommons.org/ns#" xmlns:rdf="http://www.w3.org/1999/02/22-rdf-syntax-ns#">
   <cc:Work>
    <dc:type rdf:resource="http://purl.org/dc/dcmitype/StillImage"/>
    <dc:date>2025-07-16T00:52:54.356050</dc:date>
    <dc:format>image/svg+xml</dc:format>
    <dc:creator>
     <cc:Agent>
      <dc:title>Matplotlib v3.9.1, https://matplotlib.org/</dc:title>
     </cc:Agent>
    </dc:creator>
   </cc:Work>
  </rdf:RDF>
 </metadata>
 <defs>
  <style type="text/css">*{stroke-linejoin: round; stroke-linecap: butt}</style>
 </defs>
 <g id="figure_1">
  <g id="patch_1">
   <path d="M 0 345.6 
L 460.8 345.6 
L 460.8 0 
L 0 0 
z
" style="fill: #ffffff"/>
  </g>
  <g id="axes_1">
   <g id="patch_2">
    <path d="M 57.6 307.584 
L 414.72 307.584 
L 414.72 41.472 
L 57.6 41.472 
z
" style="fill: #ffffff"/>
   </g>
   <g id="matplotlib.axis_1">
    <g id="xtick_1">
     <g id="line2d_1">
      <defs>
       <path id="ma06b062fc6" d="M 0 0 
L 0 3.5 
" style="stroke: #000000; stroke-width: 0.8"/>
      </defs>
      <g>
       <use xlink:href="#ma06b062fc6" x="73.832727" y="307.584" style="stroke: #000000; stroke-width: 0.8"/>
      </g>
     </g>
     <g id="text_1">
      <!-- 1 -->
      <g transform="translate(70.651477 322.182437) scale(0.1 -0.1)">
       <defs>
        <path id="DejaVuSans-31" d="M 794 531 
L 1825 531 
L 1825 4091 
L 703 3866 
L 703 4441 
L 1819 4666 
L 2450 4666 
L 2450 531 
L 3481 531 
L 3481 0 
L 794 0 
L 794 531 
z
" transform="scale(0.015625)"/>
       </defs>
       <use xlink:href="#DejaVuSans-31"/>
      </g>
     </g>
    </g>
    <g id="xtick_2">
     <g id="line2d_2">
      <g>
       <use xlink:href="#ma06b062fc6" x="109.664165" y="307.584" style="stroke: #000000; stroke-width: 0.8"/>
      </g>
     </g>
     <g id="text_2">
      <!-- 34 -->
      <g transform="translate(103.301665 322.182437) scale(0.1 -0.1)">
       <defs>
        <path id="DejaVuSans-33" d="M 2597 2516 
Q 3050 2419 3304 2112 
Q 3559 1806 3559 1356 
Q 3559 666 3084 287 
Q 2609 -91 1734 -91 
Q 1441 -91 1130 -33 
Q 819 25 488 141 
L 488 750 
Q 750 597 1062 519 
Q 1375 441 1716 441 
Q 2309 441 2620 675 
Q 2931 909 2931 1356 
Q 2931 1769 2642 2001 
Q 2353 2234 1838 2234 
L 1294 2234 
L 1294 2753 
L 1863 2753 
Q 2328 2753 2575 2939 
Q 2822 3125 2822 3475 
Q 2822 3834 2567 4026 
Q 2313 4219 1838 4219 
Q 1578 4219 1281 4162 
Q 984 4106 628 3988 
L 628 4550 
Q 988 4650 1302 4700 
Q 1616 4750 1894 4750 
Q 2613 4750 3031 4423 
Q 3450 4097 3450 3541 
Q 3450 3153 3228 2886 
Q 3006 2619 2597 2516 
z
" transform="scale(0.015625)"/>
        <path id="DejaVuSans-34" d="M 2419 4116 
L 825 1625 
L 2419 1625 
L 2419 4116 
z
M 2253 4666 
L 3047 4666 
L 3047 1625 
L 3713 1625 
L 3713 1100 
L 3047 1100 
L 3047 0 
L 2419 0 
L 2419 1100 
L 313 1100 
L 313 1709 
L 2253 4666 
z
" transform="scale(0.015625)"/>
       </defs>
       <use xlink:href="#DejaVuSans-33"/>
       <use xlink:href="#DejaVuSans-34" x="63.623047"/>
      </g>
     </g>
    </g>
    <g id="xtick_3">
     <g id="line2d_3">
      <g>
       <use xlink:href="#ma06b062fc6" x="145.495604" y="307.584" style="stroke: #000000; stroke-width: 0.8"/>
      </g>
     </g>
     <g id="text_3">
      <!-- 67 -->
      <g transform="translate(139.133104 322.182437) scale(0.1 -0.1)">
       <defs>
        <path id="DejaVuSans-36" d="M 2113 2584 
Q 1688 2584 1439 2293 
Q 1191 2003 1191 1497 
Q 1191 994 1439 701 
Q 1688 409 2113 409 
Q 2538 409 2786 701 
Q 3034 994 3034 1497 
Q 3034 2003 2786 2293 
Q 2538 2584 2113 2584 
z
M 3366 4563 
L 3366 3988 
Q 3128 4100 2886 4159 
Q 2644 4219 2406 4219 
Q 1781 4219 1451 3797 
Q 1122 3375 1075 2522 
Q 1259 2794 1537 2939 
Q 1816 3084 2150 3084 
Q 2853 3084 3261 2657 
Q 3669 2231 3669 1497 
Q 3669 778 3244 343 
Q 2819 -91 2113 -91 
Q 1303 -91 875 529 
Q 447 1150 447 2328 
Q 447 3434 972 4092 
Q 1497 4750 2381 4750 
Q 2619 4750 2861 4703 
Q 3103 4656 3366 4563 
z
" transform="scale(0.015625)"/>
        <path id="DejaVuSans-37" d="M 525 4666 
L 3525 4666 
L 3525 4397 
L 1831 0 
L 1172 0 
L 2766 4134 
L 525 4134 
L 525 4666 
z
" transform="scale(0.015625)"/>
       </defs>
       <use xlink:href="#DejaVuSans-36"/>
       <use xlink:href="#DejaVuSans-37" x="63.623047"/>
      </g>
     </g>
    </g>
    <g id="xtick_4">
     <g id="line2d_4">
      <g>
       <use xlink:href="#ma06b062fc6" x="181.327042" y="307.584" style="stroke: #000000; stroke-width: 0.8"/>
      </g>
     </g>
     <g id="text_4">
      <!-- 100 -->
      <g transform="translate(171.783292 322.182437) scale(0.1 -0.1)">
       <defs>
        <path id="DejaVuSans-30" d="M 2034 4250 
Q 1547 4250 1301 3770 
Q 1056 3291 1056 2328 
Q 1056 1369 1301 889 
Q 1547 409 2034 409 
Q 2525 409 2770 889 
Q 3016 1369 3016 2328 
Q 3016 3291 2770 3770 
Q 2525 4250 2034 4250 
z
M 2034 4750 
Q 2819 4750 3233 4129 
Q 3647 3509 3647 2328 
Q 3647 1150 3233 529 
Q 2819 -91 2034 -91 
Q 1250 -91 836 529 
Q 422 1150 422 2328 
Q 422 3509 836 4129 
Q 1250 4750 2034 4750 
z
" transform="scale(0.015625)"/>
       </defs>
       <use xlink:href="#DejaVuSans-31"/>
       <use xlink:href="#DejaVuSans-30" x="63.623047"/>
       <use xlink:href="#DejaVuSans-30" x="127.246094"/>
      </g>
     </g>
    </g>
    <g id="xtick_5">
     <g id="line2d_5">
      <g>
       <use xlink:href="#ma06b062fc6" x="217.15848" y="307.584" style="stroke: #000000; stroke-width: 0.8"/>
      </g>
     </g>
     <g id="text_5">
      <!-- 133 -->
      <g transform="translate(207.61473 322.182437) scale(0.1 -0.1)">
       <use xlink:href="#DejaVuSans-31"/>
       <use xlink:href="#DejaVuSans-33" x="63.623047"/>
       <use xlink:href="#DejaVuSans-33" x="127.246094"/>
      </g>
     </g>
    </g>
    <g id="xtick_6">
     <g id="line2d_6">
      <g>
       <use xlink:href="#ma06b062fc6" x="254.075719" y="307.584" style="stroke: #000000; stroke-width: 0.8"/>
      </g>
     </g>
     <g id="text_6">
      <!-- 167 -->
      <g transform="translate(244.531969 322.182437) scale(0.1 -0.1)">
       <use xlink:href="#DejaVuSans-31"/>
       <use xlink:href="#DejaVuSans-36" x="63.623047"/>
       <use xlink:href="#DejaVuSans-37" x="127.246094"/>
      </g>
     </g>
    </g>
    <g id="xtick_7">
     <g id="line2d_7">
      <g>
       <use xlink:href="#ma06b062fc6" x="289.907157" y="307.584" style="stroke: #000000; stroke-width: 0.8"/>
      </g>
     </g>
     <g id="text_7">
      <!-- 200 -->
      <g transform="translate(280.363407 322.182437) scale(0.1 -0.1)">
       <defs>
        <path id="DejaVuSans-32" d="M 1228 531 
L 3431 531 
L 3431 0 
L 469 0 
L 469 531 
Q 828 903 1448 1529 
Q 2069 2156 2228 2338 
Q 2531 2678 2651 2914 
Q 2772 3150 2772 3378 
Q 2772 3750 2511 3984 
Q 2250 4219 1831 4219 
Q 1534 4219 1204 4116 
Q 875 4013 500 3803 
L 500 4441 
Q 881 4594 1212 4672 
Q 1544 4750 1819 4750 
Q 2544 4750 2975 4387 
Q 3406 4025 3406 3419 
Q 3406 3131 3298 2873 
Q 3191 2616 2906 2266 
Q 2828 2175 2409 1742 
Q 1991 1309 1228 531 
z
" transform="scale(0.015625)"/>
       </defs>
       <use xlink:href="#DejaVuSans-32"/>
       <use xlink:href="#DejaVuSans-30" x="63.623047"/>
       <use xlink:href="#DejaVuSans-30" x="127.246094"/>
      </g>
     </g>
    </g>
    <g id="xtick_8">
     <g id="line2d_8">
      <g>
       <use xlink:href="#ma06b062fc6" x="325.738595" y="307.584" style="stroke: #000000; stroke-width: 0.8"/>
      </g>
     </g>
     <g id="text_8">
      <!-- 233 -->
      <g transform="translate(316.194845 322.182437) scale(0.1 -0.1)">
       <use xlink:href="#DejaVuSans-32"/>
       <use xlink:href="#DejaVuSans-33" x="63.623047"/>
       <use xlink:href="#DejaVuSans-33" x="127.246094"/>
      </g>
     </g>
    </g>
    <g id="xtick_9">
     <g id="line2d_9">
      <g>
       <use xlink:href="#ma06b062fc6" x="361.570033" y="307.584" style="stroke: #000000; stroke-width: 0.8"/>
      </g>
     </g>
     <g id="text_9">
      <!-- 266 -->
      <g transform="translate(352.026283 322.182437) scale(0.1 -0.1)">
       <use xlink:href="#DejaVuSans-32"/>
       <use xlink:href="#DejaVuSans-36" x="63.623047"/>
       <use xlink:href="#DejaVuSans-36" x="127.246094"/>
      </g>
     </g>
    </g>
    <g id="xtick_10">
     <g id="line2d_10">
      <g>
       <use xlink:href="#ma06b062fc6" x="398.487273" y="307.584" style="stroke: #000000; stroke-width: 0.8"/>
      </g>
     </g>
     <g id="text_10">
      <!-- 300 -->
      <g transform="translate(388.943523 322.182437) scale(0.1 -0.1)">
       <use xlink:href="#DejaVuSans-33"/>
       <use xlink:href="#DejaVuSans-30" x="63.623047"/>
       <use xlink:href="#DejaVuSans-30" x="127.246094"/>
      </g>
     </g>
    </g>
    <g id="text_11">
     <!-- Epochs -->
     <g transform="translate(218.244375 335.860562) scale(0.1 -0.1)">
      <defs>
       <path id="DejaVuSans-45" d="M 628 4666 
L 3578 4666 
L 3578 4134 
L 1259 4134 
L 1259 2753 
L 3481 2753 
L 3481 2222 
L 1259 2222 
L 1259 531 
L 3634 531 
L 3634 0 
L 628 0 
L 628 4666 
z
" transform="scale(0.015625)"/>
       <path id="DejaVuSans-70" d="M 1159 525 
L 1159 -1331 
L 581 -1331 
L 581 3500 
L 1159 3500 
L 1159 2969 
Q 1341 3281 1617 3432 
Q 1894 3584 2278 3584 
Q 2916 3584 3314 3078 
Q 3713 2572 3713 1747 
Q 3713 922 3314 415 
Q 2916 -91 2278 -91 
Q 1894 -91 1617 61 
Q 1341 213 1159 525 
z
M 3116 1747 
Q 3116 2381 2855 2742 
Q 2594 3103 2138 3103 
Q 1681 3103 1420 2742 
Q 1159 2381 1159 1747 
Q 1159 1113 1420 752 
Q 1681 391 2138 391 
Q 2594 391 2855 752 
Q 3116 1113 3116 1747 
z
" transform="scale(0.015625)"/>
       <path id="DejaVuSans-6f" d="M 1959 3097 
Q 1497 3097 1228 2736 
Q 959 2375 959 1747 
Q 959 1119 1226 758 
Q 1494 397 1959 397 
Q 2419 397 2687 759 
Q 2956 1122 2956 1747 
Q 2956 2369 2687 2733 
Q 2419 3097 1959 3097 
z
M 1959 3584 
Q 2709 3584 3137 3096 
Q 3566 2609 3566 1747 
Q 3566 888 3137 398 
Q 2709 -91 1959 -91 
Q 1206 -91 779 398 
Q 353 888 353 1747 
Q 353 2609 779 3096 
Q 1206 3584 1959 3584 
z
" transform="scale(0.015625)"/>
       <path id="DejaVuSans-63" d="M 3122 3366 
L 3122 2828 
Q 2878 2963 2633 3030 
Q 2388 3097 2138 3097 
Q 1578 3097 1268 2742 
Q 959 2388 959 1747 
Q 959 1106 1268 751 
Q 1578 397 2138 397 
Q 2388 397 2633 464 
Q 2878 531 3122 666 
L 3122 134 
Q 2881 22 2623 -34 
Q 2366 -91 2075 -91 
Q 1284 -91 818 406 
Q 353 903 353 1747 
Q 353 2603 823 3093 
Q 1294 3584 2113 3584 
Q 2378 3584 2631 3529 
Q 2884 3475 3122 3366 
z
" transform="scale(0.015625)"/>
       <path id="DejaVuSans-68" d="M 3513 2113 
L 3513 0 
L 2938 0 
L 2938 2094 
Q 2938 2591 2744 2837 
Q 2550 3084 2163 3084 
Q 1697 3084 1428 2787 
Q 1159 2491 1159 1978 
L 1159 0 
L 581 0 
L 581 4863 
L 1159 4863 
L 1159 2956 
Q 1366 3272 1645 3428 
Q 1925 3584 2291 3584 
Q 2894 3584 3203 3211 
Q 3513 2838 3513 2113 
z
" transform="scale(0.015625)"/>
       <path id="DejaVuSans-73" d="M 2834 3397 
L 2834 2853 
Q 2591 2978 2328 3040 
Q 2066 3103 1784 3103 
Q 1356 3103 1142 2972 
Q 928 2841 928 2578 
Q 928 2378 1081 2264 
Q 1234 2150 1697 2047 
L 1894 2003 
Q 2506 1872 2764 1633 
Q 3022 1394 3022 966 
Q 3022 478 2636 193 
Q 2250 -91 1575 -91 
Q 1294 -91 989 -36 
Q 684 19 347 128 
L 347 722 
Q 666 556 975 473 
Q 1284 391 1588 391 
Q 1994 391 2212 530 
Q 2431 669 2431 922 
Q 2431 1156 2273 1281 
Q 2116 1406 1581 1522 
L 1381 1569 
Q 847 1681 609 1914 
Q 372 2147 372 2553 
Q 372 3047 722 3315 
Q 1072 3584 1716 3584 
Q 2034 3584 2315 3537 
Q 2597 3491 2834 3397 
z
" transform="scale(0.015625)"/>
      </defs>
      <use xlink:href="#DejaVuSans-45"/>
      <use xlink:href="#DejaVuSans-70" x="63.183594"/>
      <use xlink:href="#DejaVuSans-6f" x="126.660156"/>
      <use xlink:href="#DejaVuSans-63" x="187.841797"/>
      <use xlink:href="#DejaVuSans-68" x="242.822266"/>
      <use xlink:href="#DejaVuSans-73" x="306.201172"/>
     </g>
    </g>
   </g>
   <g id="matplotlib.axis_2">
    <g id="ytick_1">
     <g id="line2d_11">
      <defs>
       <path id="m07881499d9" d="M 0 0 
L -3.5 0 
" style="stroke: #000000; stroke-width: 0.8"/>
      </defs>
      <g>
       <use xlink:href="#m07881499d9" x="57.6" y="283.085295" style="stroke: #000000; stroke-width: 0.8"/>
      </g>
     </g>
     <g id="text_12">
      <!-- 10 -->
      <g transform="translate(37.875 286.884514) scale(0.1 -0.1)">
       <use xlink:href="#DejaVuSans-31"/>
       <use xlink:href="#DejaVuSans-30" x="63.623047"/>
      </g>
     </g>
    </g>
    <g id="ytick_2">
     <g id="line2d_12">
      <g>
       <use xlink:href="#m07881499d9" x="57.6" y="246.232807" style="stroke: #000000; stroke-width: 0.8"/>
      </g>
     </g>
     <g id="text_13">
      <!-- 20 -->
      <g transform="translate(37.875 250.032026) scale(0.1 -0.1)">
       <use xlink:href="#DejaVuSans-32"/>
       <use xlink:href="#DejaVuSans-30" x="63.623047"/>
      </g>
     </g>
    </g>
    <g id="ytick_3">
     <g id="line2d_13">
      <g>
       <use xlink:href="#m07881499d9" x="57.6" y="209.380319" style="stroke: #000000; stroke-width: 0.8"/>
      </g>
     </g>
     <g id="text_14">
      <!-- 30 -->
      <g transform="translate(37.875 213.179538) scale(0.1 -0.1)">
       <use xlink:href="#DejaVuSans-33"/>
       <use xlink:href="#DejaVuSans-30" x="63.623047"/>
      </g>
     </g>
    </g>
    <g id="ytick_4">
     <g id="line2d_14">
      <g>
       <use xlink:href="#m07881499d9" x="57.6" y="172.527831" style="stroke: #000000; stroke-width: 0.8"/>
      </g>
     </g>
     <g id="text_15">
      <!-- 40 -->
      <g transform="translate(37.875 176.32705) scale(0.1 -0.1)">
       <use xlink:href="#DejaVuSans-34"/>
       <use xlink:href="#DejaVuSans-30" x="63.623047"/>
      </g>
     </g>
    </g>
    <g id="ytick_5">
     <g id="line2d_15">
      <g>
       <use xlink:href="#m07881499d9" x="57.6" y="135.675343" style="stroke: #000000; stroke-width: 0.8"/>
      </g>
     </g>
     <g id="text_16">
      <!-- 50 -->
      <g transform="translate(37.875 139.474562) scale(0.1 -0.1)">
       <defs>
        <path id="DejaVuSans-35" d="M 691 4666 
L 3169 4666 
L 3169 4134 
L 1269 4134 
L 1269 2991 
Q 1406 3038 1543 3061 
Q 1681 3084 1819 3084 
Q 2600 3084 3056 2656 
Q 3513 2228 3513 1497 
Q 3513 744 3044 326 
Q 2575 -91 1722 -91 
Q 1428 -91 1123 -41 
Q 819 9 494 109 
L 494 744 
Q 775 591 1075 516 
Q 1375 441 1709 441 
Q 2250 441 2565 725 
Q 2881 1009 2881 1497 
Q 2881 1984 2565 2268 
Q 2250 2553 1709 2553 
Q 1456 2553 1204 2497 
Q 953 2441 691 2322 
L 691 4666 
z
" transform="scale(0.015625)"/>
       </defs>
       <use xlink:href="#DejaVuSans-35"/>
       <use xlink:href="#DejaVuSans-30" x="63.623047"/>
      </g>
     </g>
    </g>
    <g id="ytick_6">
     <g id="line2d_16">
      <g>
       <use xlink:href="#m07881499d9" x="57.6" y="98.822855" style="stroke: #000000; stroke-width: 0.8"/>
      </g>
     </g>
     <g id="text_17">
      <!-- 60 -->
      <g transform="translate(37.875 102.622074) scale(0.1 -0.1)">
       <use xlink:href="#DejaVuSans-36"/>
       <use xlink:href="#DejaVuSans-30" x="63.623047"/>
      </g>
     </g>
    </g>
    <g id="ytick_7">
     <g id="line2d_17">
      <g>
       <use xlink:href="#m07881499d9" x="57.6" y="61.970367" style="stroke: #000000; stroke-width: 0.8"/>
      </g>
     </g>
     <g id="text_18">
      <!-- 70 -->
      <g transform="translate(37.875 65.769586) scale(0.1 -0.1)">
       <use xlink:href="#DejaVuSans-37"/>
       <use xlink:href="#DejaVuSans-30" x="63.623047"/>
      </g>
     </g>
    </g>
    <g id="text_19">
     <!-- Accuracy -->
     <g transform="translate(31.795312 197.356125) rotate(-90) scale(0.1 -0.1)">
      <defs>
       <path id="DejaVuSans-41" d="M 2188 4044 
L 1331 1722 
L 3047 1722 
L 2188 4044 
z
M 1831 4666 
L 2547 4666 
L 4325 0 
L 3669 0 
L 3244 1197 
L 1141 1197 
L 716 0 
L 50 0 
L 1831 4666 
z
" transform="scale(0.015625)"/>
       <path id="DejaVuSans-75" d="M 544 1381 
L 544 3500 
L 1119 3500 
L 1119 1403 
Q 1119 906 1312 657 
Q 1506 409 1894 409 
Q 2359 409 2629 706 
Q 2900 1003 2900 1516 
L 2900 3500 
L 3475 3500 
L 3475 0 
L 2900 0 
L 2900 538 
Q 2691 219 2414 64 
Q 2138 -91 1772 -91 
Q 1169 -91 856 284 
Q 544 659 544 1381 
z
M 1991 3584 
L 1991 3584 
z
" transform="scale(0.015625)"/>
       <path id="DejaVuSans-72" d="M 2631 2963 
Q 2534 3019 2420 3045 
Q 2306 3072 2169 3072 
Q 1681 3072 1420 2755 
Q 1159 2438 1159 1844 
L 1159 0 
L 581 0 
L 581 3500 
L 1159 3500 
L 1159 2956 
Q 1341 3275 1631 3429 
Q 1922 3584 2338 3584 
Q 2397 3584 2469 3576 
Q 2541 3569 2628 3553 
L 2631 2963 
z
" transform="scale(0.015625)"/>
       <path id="DejaVuSans-61" d="M 2194 1759 
Q 1497 1759 1228 1600 
Q 959 1441 959 1056 
Q 959 750 1161 570 
Q 1363 391 1709 391 
Q 2188 391 2477 730 
Q 2766 1069 2766 1631 
L 2766 1759 
L 2194 1759 
z
M 3341 1997 
L 3341 0 
L 2766 0 
L 2766 531 
Q 2569 213 2275 61 
Q 1981 -91 1556 -91 
Q 1019 -91 701 211 
Q 384 513 384 1019 
Q 384 1609 779 1909 
Q 1175 2209 1959 2209 
L 2766 2209 
L 2766 2266 
Q 2766 2663 2505 2880 
Q 2244 3097 1772 3097 
Q 1472 3097 1187 3025 
Q 903 2953 641 2809 
L 641 3341 
Q 956 3463 1253 3523 
Q 1550 3584 1831 3584 
Q 2591 3584 2966 3190 
Q 3341 2797 3341 1997 
z
" transform="scale(0.015625)"/>
       <path id="DejaVuSans-79" d="M 2059 -325 
Q 1816 -950 1584 -1140 
Q 1353 -1331 966 -1331 
L 506 -1331 
L 506 -850 
L 844 -850 
Q 1081 -850 1212 -737 
Q 1344 -625 1503 -206 
L 1606 56 
L 191 3500 
L 800 3500 
L 1894 763 
L 2988 3500 
L 3597 3500 
L 2059 -325 
z
" transform="scale(0.015625)"/>
      </defs>
      <use xlink:href="#DejaVuSans-41"/>
      <use xlink:href="#DejaVuSans-63" x="66.658203"/>
      <use xlink:href="#DejaVuSans-63" x="121.638672"/>
      <use xlink:href="#DejaVuSans-75" x="176.619141"/>
      <use xlink:href="#DejaVuSans-72" x="239.998047"/>
      <use xlink:href="#DejaVuSans-61" x="281.111328"/>
      <use xlink:href="#DejaVuSans-63" x="342.390625"/>
      <use xlink:href="#DejaVuSans-79" x="397.371094"/>
     </g>
    </g>
   </g>
   <g id="line2d_18">
    <path d="M 73.832727 291.503509 
L 74.918528 253.445945 
L 76.00433 229.361738 
L 77.090131 212.114774 
L 78.175932 198.124464 
L 79.261733 187.319314 
L 80.347534 178.541052 
L 82.519137 165.039406 
L 83.604938 158.67019 
L 84.690739 153.574597 
L 85.77654 147.722422 
L 86.862341 142.882584 
L 89.033943 135.170464 
L 90.119745 131.946977 
L 91.205546 128.249567 
L 92.291347 125.352961 
L 94.462949 123.687229 
L 95.54875 155.375578 
L 96.634552 153.155584 
L 100.977756 141.395955 
L 102.063557 139.69595 
L 103.149358 136.521845 
L 104.23516 133.870677 
L 105.320961 132.535511 
L 106.406762 129.310919 
L 107.492563 128.329537 
L 108.578364 125.864105 
L 109.664165 122.9675 
L 110.749967 121.568211 
L 111.835768 119.48236 
L 112.921569 116.861043 
L 114.00737 115.79232 
L 115.093171 114.273998 
L 116.178972 111.205291 
L 117.264773 109.337976 
L 118.350575 107.881197 
L 119.436376 105.77692 
L 121.607978 102.264878 
L 122.693779 100.207403 
L 123.77958 99.063502 
L 124.865382 96.651138 
L 125.951183 95.32666 
L 128.122785 91.317109 
L 129.208586 90.554263 
L 130.294387 89.033729 
L 131.380189 86.764721 
L 132.46599 86.179872 
L 133.551791 86.395091 
L 134.637592 84.720514 
L 136.809194 84.372995 
L 137.894995 83.340019 
L 138.980797 119.894002 
L 140.066598 122.951285 
L 141.152399 121.558261 
L 143.324001 119.69721 
L 144.409802 118.546307 
L 145.495604 117.131171 
L 146.581405 116.101881 
L 148.753007 114.938448 
L 149.838808 112.934778 
L 150.924609 114.309376 
L 152.01041 112.131394 
L 153.096212 111.758079 
L 154.182013 110.814655 
L 155.267814 109.546929 
L 156.353615 109.180984 
L 157.439416 108.178596 
L 158.525217 106.795154 
L 159.611019 106.597625 
L 160.69682 104.893566 
L 161.782621 104.807699 
L 162.868422 103.925819 
L 163.954223 102.700843 
L 165.040024 103.26616 
L 168.297428 100.879224 
L 169.383229 99.277246 
L 170.46903 99.255135 
L 171.554831 97.846264 
L 172.640632 96.707522 
L 173.726434 97.049145 
L 174.812235 95.184409 
L 175.898036 94.839101 
L 176.983837 94.28742 
L 178.069638 92.716398 
L 179.155439 93.379743 
L 180.24124 91.516112 
L 181.327042 90.622071 
L 182.412843 89.526078 
L 183.498644 88.780552 
L 184.584445 88.669995 
L 186.756047 85.976078 
L 188.92765 84.901091 
L 190.013451 83.282161 
L 191.099252 83.26484 
L 192.185053 81.465333 
L 193.270854 81.078382 
L 194.356656 79.439552 
L 195.442457 78.719823 
L 196.528258 77.736967 
L 197.614059 77.060356 
L 198.69986 76.52452 
L 199.785661 75.121915 
L 200.871462 75.318338 
L 201.957264 73.500405 
L 203.043065 73.616859 
L 204.128866 71.095043 
L 205.214667 71.27562 
L 207.386269 69.584091 
L 209.557872 67.548728 
L 210.643673 66.842266 
L 211.729474 66.804308 
L 212.815275 65.800446 
L 213.901076 65.2823 
L 214.986877 65.252818 
L 216.072679 64.056218 
L 217.15848 63.325433 
L 218.244281 64.036686 
L 219.330082 63.923549 
L 220.415883 63.062306 
L 222.587486 62.415177 
L 223.673287 62.404121 
L 224.759088 62.90642 
L 225.844889 105.855416 
L 226.93069 109.470645 
L 228.016491 109.210466 
L 230.188094 107.313668 
L 231.273895 106.919347 
L 232.359696 106.910871 
L 233.445497 105.579022 
L 234.531298 105.509002 
L 235.617099 104.118558 
L 236.702901 104.697142 
L 237.788702 103.79315 
L 238.874503 103.769565 
L 239.960304 102.837197 
L 241.046105 102.482307 
L 242.131906 101.984799 
L 243.217708 101.860606 
L 244.303509 101.379312 
L 245.38931 101.381523 
L 246.475111 99.885312 
L 247.560912 100.029037 
L 248.646713 100.040093 
L 249.732514 99.735691 
L 250.818316 99.306728 
L 251.904117 99.013383 
L 252.989918 99.057606 
L 254.075719 98.215895 
L 255.16152 98.221054 
L 256.247321 98.00731 
L 257.333123 96.971755 
L 258.418924 97.332909 
L 261.676327 96.162106 
L 262.762128 96.664405 
L 263.847929 95.170774 
L 266.019532 94.581134 
L 267.105333 94.65963 
L 268.191134 94.134113 
L 270.362736 94.29479 
L 271.448538 93.663507 
L 272.534339 93.416595 
L 273.62014 92.398361 
L 274.705941 92.637902 
L 276.877543 91.655046 
L 277.963344 91.363912 
L 279.049146 91.376073 
L 280.134947 90.720099 
L 281.220748 90.37258 
L 282.306549 90.377371 
L 283.39235 89.816107 
L 284.478151 89.754564 
L 285.563953 89.477064 
L 286.649754 89.93772 
L 287.735555 88.138213 
L 288.821356 87.583952 
L 289.907157 88.297785 
L 290.992958 87.847079 
L 292.07876 87.063226 
L 295.336163 86.004454 
L 296.421964 85.851885 
L 297.507765 85.122206 
L 298.593566 85.086827 
L 299.679368 83.956562 
L 300.765169 84.623592 
L 301.85097 84.497188 
L 302.936771 83.495905 
L 304.022572 82.800499 
L 305.108373 82.916216 
L 306.194175 82.854672 
L 307.279976 82.009645 
L 309.451578 80.694011 
L 310.537379 81.600582 
L 311.62318 80.172917 
L 312.708981 80.594509 
L 313.794783 80.052778 
L 314.880584 79.264134 
L 317.052186 78.517134 
L 318.137987 78.050213 
L 319.223788 77.187865 
L 320.30959 77.691639 
L 321.395391 76.259182 
L 322.481192 75.763148 
L 323.566993 75.861176 
L 324.652794 75.314653 
L 325.738595 75.239843 
L 326.824396 74.374915 
L 327.910198 73.981699 
L 328.995999 74.165961 
L 330.0818 72.941353 
L 331.167601 72.851801 
L 332.253402 72.610786 
L 333.339203 71.63788 
L 334.425005 71.469833 
L 336.596607 70.662764 
L 337.682408 69.910973 
L 338.768209 69.389879 
L 339.85401 69.442823 
L 340.939811 67.850796 
L 342.025613 67.822542 
L 343.111414 67.90976 
L 344.197215 66.771018 
L 346.368817 66.425833 
L 347.454618 66.076963 
L 348.54042 64.710964 
L 349.626221 63.908808 
L 350.712022 64.685167 
L 351.797823 64.462824 
L 352.883624 63.117708 
L 355.055227 62.197624 
L 356.141028 61.09205 
L 357.226829 60.535577 
L 358.31263 60.642449 
L 359.398431 61.024487 
L 360.484232 59.902943 
L 361.570033 59.335414 
L 362.655835 59.206431 
L 363.741636 58.319514 
L 364.827437 58.255636 
L 366.999039 57.478049 
L 368.08484 57.339238 
L 369.170642 60.307092 
L 370.256443 60.899188 
L 371.342244 63.001009 
L 372.428045 64.542671 
L 373.513846 64.406317 
L 374.599647 64.661827 
L 375.685448 64.595493 
L 376.77125 64.669198 
L 377.857051 65.564713 
L 378.942852 64.704822 
L 380.028653 65.113884 
L 381.114454 64.707279 
L 382.200255 64.753959 
L 384.371858 65.303061 
L 385.457659 65.336228 
L 386.54346 65.705981 
L 387.629261 65.919726 
L 388.715062 64.991043 
L 389.800863 65.780915 
L 390.886665 65.341141 
L 393.058267 65.81531 
L 394.144068 65.564713 
L 395.229869 65.432044 
L 397.401472 66.176465 
L 398.487273 66.28825 
L 398.487273 66.28825 
" clip-path="url(#p21bad536a8)" style="fill: none; stroke: #1f77b4; stroke-width: 1.5; stroke-linecap: square"/>
   </g>
   <g id="line2d_19">
    <path d="M 73.832727 266.907053 
L 74.918528 231.970894 
L 76.00433 216.124325 
L 77.090131 191.285748 
L 78.175932 183.03079 
L 79.261733 171.459109 
L 80.347534 164.751956 
L 81.433335 160.07169 
L 82.519137 144.409383 
L 84.690739 134.201244 
L 85.77654 128.636518 
L 86.862341 128.636518 
L 87.948142 119.202281 
L 89.033943 116.843722 
L 90.119745 112.753096 
L 91.205546 110.652504 
L 92.291347 109.731192 
L 93.377148 107.262075 
L 94.462949 108.588765 
L 95.54875 137.775935 
L 96.634552 136.633508 
L 97.720353 134.864588 
L 98.806154 127.899468 
L 99.891955 128.046878 
L 100.977756 126.425369 
L 102.063557 125.135532 
L 103.149358 117.986149 
L 104.23516 114.116638 
L 105.320961 118.612641 
L 106.406762 116.290935 
L 107.492563 115.33277 
L 108.578364 109.841749 
L 110.749967 103.908499 
L 111.835768 106.414468 
L 112.921569 101.402529 
L 114.00737 99.265085 
L 115.093171 101.439382 
L 116.178972 96.132624 
L 117.264773 93.774064 
L 118.350575 90.825865 
L 119.436376 88.909536 
L 120.522177 90.015111 
L 121.607978 88.025076 
L 122.693779 86.845797 
L 123.77958 83.013138 
L 124.865382 83.63963 
L 127.036984 78.296019 
L 128.122785 79.954381 
L 130.294387 75.016148 
L 131.380189 75.64264 
L 132.46599 74.905591 
L 133.551791 74.831886 
L 134.637592 74.573918 
L 135.723393 73.394639 
L 136.809194 73.099819 
L 137.894995 72.362769 
L 138.980797 109.067847 
L 140.066598 104.313876 
L 141.152399 108.22024 
L 142.2382 110.099717 
L 143.324001 110.431389 
L 144.409802 104.203318 
L 145.495604 103.097744 
L 146.581405 101.549939 
L 147.667206 103.797941 
L 149.838808 96.280034 
L 150.924609 96.427444 
L 152.01041 106.525025 
L 153.096212 102.766071 
L 154.182013 99.412495 
L 155.267814 94.068884 
L 156.353615 102.213284 
L 157.439416 98.675445 
L 158.525217 99.744167 
L 159.611019 100.260102 
L 160.69682 93.700359 
L 162.868422 91.48921 
L 163.954223 92.07885 
L 165.040024 90.567898 
L 166.125825 94.511114 
L 167.211627 91.19439 
L 168.297428 89.167503 
L 169.383229 92.07885 
L 170.46903 87.656551 
L 171.554831 87.619699 
L 173.726434 86.182452 
L 174.812235 82.091826 
L 175.898036 90.75216 
L 176.983837 84.37668 
L 178.069638 86.403567 
L 180.24124 81.833858 
L 181.327042 80.544021 
L 182.412843 76.711362 
L 183.498644 80.212349 
L 184.584445 79.401594 
L 185.670246 75.20041 
L 186.756047 76.563953 
L 187.841849 77.006182 
L 188.92765 72.289064 
L 190.013451 76.711362 
L 191.099252 73.210376 
L 192.185053 71.883687 
L 193.270854 71.994244 
L 194.356656 70.446439 
L 195.442457 70.630702 
L 196.528258 69.8568 
L 197.614059 68.124733 
L 198.69986 66.871748 
L 199.785661 68.861783 
L 200.871462 65.581911 
L 201.957264 67.277126 
L 203.043065 62.891679 
L 204.128866 64.697451 
L 205.214667 61.085908 
L 206.300468 60.717383 
L 207.386269 61.196465 
L 208.472071 59.280136 
L 209.557872 61.85981 
L 210.643673 59.722365 
L 211.729474 59.169578 
L 213.901076 59.906628 
L 214.986877 58.911611 
L 216.072679 58.985316 
L 219.330082 57.990299 
L 220.415883 57.032134 
L 221.501684 57.216396 
L 222.587486 57.179544 
L 223.673287 56.774166 
L 224.759088 57.584921 
L 225.844889 116.880574 
L 226.93069 105.050926 
L 228.016491 100.112692 
L 229.102292 98.380625 
L 230.188094 103.060891 
L 231.273895 101.402529 
L 232.359696 98.528035 
L 233.445497 99.412495 
L 234.531298 101.218267 
L 235.617099 102.286989 
L 236.702901 94.363704 
L 237.788702 97.790986 
L 238.874503 92.852752 
L 239.960304 97.164493 
L 241.046105 93.847769 
L 242.131906 101.255119 
L 243.217708 93.147572 
L 244.303509 99.744167 
L 245.38931 98.786003 
L 246.475111 91.968292 
L 247.560912 89.572881 
L 248.646713 96.280034 
L 249.732514 94.326852 
L 250.818316 91.78403 
L 251.904117 89.572881 
L 252.989918 88.541011 
L 254.075719 91.452358 
L 256.247321 95.542984 
L 257.333123 96.464296 
L 258.418924 89.867701 
L 259.504725 90.862718 
L 260.590526 86.845797 
L 261.676327 99.670462 
L 262.762128 88.135634 
L 263.847929 85.445402 
L 264.933731 93.774064 
L 266.019532 93.589802 
L 267.105333 88.983241 
L 268.191134 94.584819 
L 269.276935 86.993207 
L 270.362736 90.051963 
L 271.448538 84.008155 
L 272.534339 88.356749 
L 273.62014 86.477272 
L 274.705941 85.26114 
L 275.791742 84.597795 
L 276.877543 86.293009 
L 277.963344 88.614716 
L 279.049146 83.455368 
L 280.134947 83.971303 
L 281.220748 86.698387 
L 282.306549 81.281071 
L 283.39235 82.976285 
L 284.478151 83.04999 
L 285.563953 90.45734 
L 286.649754 78.185462 
L 287.735555 88.246191 
L 288.821356 81.059956 
L 289.907157 82.312941 
L 290.992958 77.632675 
L 292.07876 85.592812 
L 293.164561 83.04999 
L 294.250362 80.875694 
L 295.336163 75.64264 
L 296.421964 85.55596 
L 297.507765 75.49523 
L 298.593566 79.180479 
L 299.679368 79.143627 
L 300.765169 85.076877 
L 301.85097 77.522117 
L 302.936771 73.726311 
L 304.022572 75.20041 
L 305.108373 78.701397 
L 306.194175 76.895625 
L 307.279976 76.121723 
L 308.365777 70.925522 
L 309.451578 78.148609 
L 310.537379 83.78704 
L 311.62318 73.505196 
L 312.708981 74.500213 
L 313.794783 79.180479 
L 314.880584 77.780085 
L 315.966385 70.225325 
L 317.052186 69.451422 
L 318.137987 71.330899 
L 319.223788 71.662572 
L 320.30959 66.908601 
L 321.395391 70.704407 
L 322.481192 73.873721 
L 323.566993 71.809982 
L 324.652794 68.67752 
L 325.738595 70.114767 
L 326.824396 69.56198 
L 327.910198 69.41457 
L 328.995999 68.014175 
L 330.0818 71.588867 
L 331.167601 67.313978 
L 332.253402 65.950436 
L 333.339203 68.640668 
L 334.425005 67.866765 
L 335.510806 63.223352 
L 336.596607 64.550041 
L 337.682408 67.313978 
L 338.768209 64.844861 
L 339.85401 61.233318 
L 340.939811 63.849844 
L 342.025613 62.59686 
L 343.111414 67.350831 
L 344.197215 61.12276 
L 345.283016 64.918566 
L 346.368817 61.933515 
L 347.454618 58.395676 
L 348.54042 59.427546 
L 349.626221 60.09089 
L 350.712022 61.27017 
L 351.797823 61.675547 
L 352.883624 61.12276 
L 353.969425 59.353841 
L 355.055227 58.874758 
L 356.141028 63.002237 
L 357.226829 60.017185 
L 358.31263 56.700461 
L 359.398431 55.447477 
L 360.484232 58.948463 
L 361.570033 57.916594 
L 362.655835 56.295084 
L 363.741636 56.995281 
L 364.827437 56.258232 
L 365.913238 53.568 
L 366.999039 55.152657 
L 368.08484 56.000264 
L 369.170642 58.027151 
L 370.256443 60.38571 
L 371.342244 61.896662 
L 372.428045 60.717383 
L 373.513846 61.454432 
L 374.599647 58.764201 
L 375.685448 61.970367 
L 376.77125 66.540076 
L 377.857051 64.365779 
L 378.942852 64.365779 
L 380.028653 64.144664 
L 381.114454 62.117777 
L 382.200255 63.407614 
L 384.371858 61.749252 
L 385.457659 62.781122 
L 386.54346 62.375745 
L 387.629261 61.233318 
L 388.715062 59.869775 
L 389.800863 62.854827 
L 390.886665 63.776139 
L 391.972466 63.518172 
L 393.058267 63.849844 
L 394.144068 63.333909 
L 395.229869 64.144664 
L 396.31567 67.903618 
L 397.401472 64.218369 
L 398.487273 68.456405 
L 398.487273 68.456405 
" clip-path="url(#p21bad536a8)" style="fill: none; stroke: #ff7f0e; stroke-width: 1.5; stroke-linecap: square"/>
   </g>
   <g id="line2d_20">
    <path d="M 73.832727 295.488 
L 74.918528 282.271961 
L 76.00433 274.444124 
L 77.090131 263.362949 
L 78.175932 259.575988 
L 79.261733 249.13015 
L 80.347534 253.98436 
L 81.433335 248.3931 
L 82.519137 233.982672 
L 83.604938 231.085329 
L 84.690739 228.619898 
L 85.77654 224.273884 
L 86.862341 223.816176 
L 87.948142 219.419305 
L 89.033943 213.853474 
L 90.119745 212.074236 
L 91.205546 209.863087 
L 92.291347 208.109645 
L 94.462949 207.75365 
L 95.54875 231.923723 
L 96.634552 229.331519 
L 97.720353 231.923723 
L 98.806154 223.917889 
L 99.891955 224.350168 
L 100.977756 222.342076 
L 102.063557 215.403858 
L 103.149358 213.116424 
L 104.23516 213.650048 
L 105.320961 214.514239 
L 106.406762 213.726333 
L 108.578364 207.829935 
L 109.664165 201.425341 
L 110.749967 202.823156 
L 111.835768 205.720499 
L 112.921569 207.525165 
L 114.00737 194.029415 
L 115.093171 201.120203 
L 116.178972 196.291421 
L 117.264773 195.122092 
L 118.350575 190.776078 
L 119.436376 194.563039 
L 120.522177 192.402747 
L 121.607978 189.683401 
L 122.693779 189.835971 
L 123.77958 188.844639 
L 124.865382 186.608061 
L 125.951183 183.380152 
L 127.036984 182.744815 
L 128.122785 185.006821 
L 129.208586 179.974613 
L 130.294387 180.889661 
L 131.380189 181.169003 
L 132.46599 178.602227 
L 133.551791 179.517274 
L 134.637592 178.830712 
L 135.723393 178.449658 
L 136.809194 177.432897 
L 137.894995 176.822989 
L 138.980797 208.262215 
L 140.066598 209.9648 
L 141.152399 201.831824 
L 142.2382 203.839916 
L 143.324001 212.785858 
L 144.409802 201.653827 
L 145.495604 201.399913 
L 146.581405 204.729167 
L 148.753007 197.663808 
L 149.838808 200.434009 
L 150.924609 197.816377 
L 152.01041 205.822211 
L 153.096212 206.177838 
L 154.182013 211.667753 
L 155.267814 194.232841 
L 156.353615 208.744982 
L 157.439416 188.564928 
L 158.525217 200.434009 
L 159.611019 198.705628 
L 160.69682 195.656084 
L 161.782621 188.615785 
L 162.868422 190.547592 
L 163.954223 190.750649 
L 165.040024 192.961799 
L 166.125825 195.88457 
L 167.211627 194.995319 
L 168.297428 186.63349 
L 169.383229 190.395023 
L 170.46903 191.157501 
L 171.554831 193.063512 
L 172.640632 192.6316 
L 173.726434 187.675309 
L 174.812235 188.107589 
L 175.898036 196.138852 
L 176.983837 189.225694 
L 178.069638 193.724277 
L 179.155439 187.751594 
L 180.24124 186.099865 
L 181.327042 181.219859 
L 182.412843 182.948241 
L 183.498644 187.573965 
L 184.584445 184.752539 
L 185.670246 185.15939 
L 186.756047 172.349834 
L 187.841849 177.051843 
L 188.92765 178.144519 
L 190.013451 186.760631 
L 191.099252 175.19632 
L 192.185053 176.772132 
L 193.270854 182.693959 
L 194.356656 176.314793 
L 195.442457 174.713552 
L 196.528258 175.018691 
L 197.614059 171.409727 
L 198.69986 171.155445 
L 199.785661 172.629544 
L 200.871462 170.977447 
L 201.957264 172.527831 
L 203.043065 167.952963 
L 204.128866 172.553259 
L 205.214667 169.376206 
L 206.300468 165.437044 
L 207.386269 166.784002 
L 208.472071 166.046953 
L 209.557872 167.419339 
L 210.643673 167.978392 
L 211.729474 164.953908 
L 212.815275 166.097809 
L 213.901076 166.300866 
L 214.986877 164.674566 
L 216.072679 166.046953 
L 217.15848 164.521997 
L 218.244281 165.462472 
L 219.330082 164.776279 
L 220.415883 164.776279 
L 222.587486 164.445712 
L 223.673287 165.055621 
L 224.759088 164.521997 
L 225.844889 211.28633 
L 228.016491 193.775133 
L 229.102292 197.765521 
L 230.188094 199.468106 
L 231.273895 200.179727 
L 232.359696 200.103811 
L 233.445497 200.256012 
L 234.531298 206.381264 
L 235.617099 200.332296 
L 236.702901 204.398968 
L 237.788702 198.985338 
L 238.874503 194.919034 
L 239.960304 191.462271 
L 241.046105 191.081216 
L 242.131906 206.000209 
L 243.217708 203.433065 
L 244.303509 207.042029 
L 245.38931 197.740092 
L 246.475111 192.6316 
L 247.560912 189.225694 
L 248.646713 191.869122 
L 249.732514 200.154667 
L 250.818316 191.61484 
L 251.904117 199.315905 
L 252.989918 185.769299 
L 255.16152 199.595247 
L 256.247321 197.765521 
L 258.418924 187.141685 
L 259.504725 186.48092 
L 260.590526 194.537611 
L 261.676327 200.205155 
L 262.762128 188.615785 
L 263.847929 188.793782 
L 264.933731 194.919034 
L 266.019532 191.76741 
L 267.105333 190.59808 
L 268.191134 202.03525 
L 269.276935 192.428175 
L 270.362736 197.587523 
L 271.448538 191.208357 
L 272.534339 191.919979 
L 273.62014 188.23473 
L 274.705941 192.529888 
L 275.791742 190.344167 
L 276.877543 178.500514 
L 277.963344 186.989116 
L 279.049146 190.776078 
L 280.134947 184.803395 
L 281.220748 193.343222 
L 282.306549 181.880624 
L 283.39235 197.663808 
L 284.478151 193.52122 
L 285.563953 194.715609 
L 286.649754 192.402747 
L 287.735555 194.054844 
L 288.821356 179.135851 
L 289.907157 184.600338 
L 290.992958 188.361871 
L 292.07876 187.904163 
L 293.164561 195.300089 
L 294.250362 184.168058 
L 295.336163 176.111367 
L 296.421964 195.401802 
L 297.507765 180.965945 
L 298.593566 181.219859 
L 299.679368 190.725221 
L 300.765169 191.818266 
L 301.85097 185.718442 
L 302.936771 180.355668 
L 305.108373 188.488644 
L 306.194175 181.753483 
L 307.279976 185.057677 
L 308.365777 178.830712 
L 309.451578 178.017746 
L 310.537379 191.03036 
L 311.62318 171.002875 
L 313.794783 188.641213 
L 314.880584 183.68529 
L 315.966385 171.409727 
L 317.052186 181.677567 
L 318.137987 177.585467 
L 319.223788 175.450602 
L 320.30959 175.069547 
L 321.395391 182.744815 
L 322.481192 185.337388 
L 323.566993 182.185763 
L 324.652794 175.6286 
L 325.738595 175.450602 
L 326.824396 178.322516 
L 327.910198 180.127183 
L 328.995999 170.164113 
L 330.0818 174.993263 
L 331.167601 176.95013 
L 332.253402 171.689069 
L 333.339203 177.000986 
L 334.425005 172.553259 
L 335.510806 179.440989 
L 336.596607 173.849361 
L 337.682408 174.230785 
L 338.768209 175.374317 
L 339.85401 169.172984 
L 340.939811 169.910034 
L 342.025613 173.874853 
L 343.111414 169.071322 
L 344.197215 170.189604 
L 345.283016 177.915919 
L 346.368817 170.977485 
L 347.454618 165.081087 
L 348.54042 167.800547 
L 349.626221 163.886558 
L 350.712022 171.587457 
L 351.797823 165.818137 
L 352.883624 170.875823 
L 353.969425 171.307887 
L 355.055227 164.928594 
L 356.141028 171.257056 
L 357.226829 165.563982 
L 358.31263 166.98725 
L 359.398431 160.811282 
L 360.484232 166.173954 
L 361.570033 167.21599 
L 362.655835 166.021461 
L 364.827437 162.387043 
L 365.913238 162.158304 
L 366.999039 166.428109 
L 368.08484 163.47991 
L 369.170642 168.334272 
L 370.256443 167.673469 
L 371.342244 170.342097 
L 372.428045 171.028316 
L 373.513846 168.690089 
L 374.599647 167.444729 
L 375.685448 171.206225 
L 376.77125 175.882678 
L 377.857051 169.782956 
L 378.942852 177.96675 
L 380.028653 172.324507 
L 381.114454 175.47603 
L 382.200255 167.825962 
L 383.286057 167.49556 
L 384.371858 177.077207 
L 385.457659 172.959895 
L 386.54346 174.306917 
L 387.629261 171.917859 
L 388.715062 167.978455 
L 389.800863 174.713565 
L 390.886665 173.747776 
L 391.972466 167.114328 
L 393.058267 172.451585 
L 394.144068 175.094798 
L 395.229869 168.791751 
L 396.31567 170.621668 
L 397.401472 174.764396 
L 398.487273 173.315712 
L 398.487273 173.315712 
" clip-path="url(#p21bad536a8)" style="fill: none; stroke: #2ca02c; stroke-width: 1.5; stroke-linecap: square"/>
   </g>
   <g id="line2d_21">
    <path d="M 368.08484 56.037117 
L 369.170642 55.889707 
L 370.256443 58.616791 
L 371.342244 57.879741 
L 372.428045 60.864793 
L 373.513846 70.409587 
L 374.599647 63.886697 
L 375.685448 61.528137 
L 376.77125 63.812992 
L 377.857051 62.74427 
L 378.942852 58.801053 
L 380.028653 61.380727 
L 381.114454 63.518172 
L 382.200255 65.102829 
L 383.286057 63.923549 
L 384.371858 61.491285 
L 385.457659 64.734304 
L 386.54346 74.168541 
L 387.629261 64.365779 
L 388.715062 63.960402 
L 389.800863 68.861783 
L 390.886665 72.768146 
L 391.972466 71.625719 
L 393.058267 71.552014 
L 394.144068 71.662572 
L 395.229869 79.364742 
L 396.31567 73.800016 
L 397.401472 81.760153 
L 398.487273 81.207366 
L 398.487273 81.207366 
" clip-path="url(#p21bad536a8)" style="fill: none; stroke: #d62728; stroke-width: 1.5; stroke-linecap: square"/>
   </g>
   <g id="line2d_22">
    <path d="M 368.08484 164.420284 
L 369.170642 175.018551 
L 370.256443 171.206225 
L 371.342244 165.996045 
L 372.428045 168.486765 
L 373.513846 176.365573 
L 374.599647 173.646114 
L 375.685448 163.683234 
L 376.77125 171.536626 
L 377.857051 167.571807 
L 378.942852 161.777071 
L 380.028653 170.596253 
L 381.114454 168.512181 
L 382.200255 176.390989 
L 383.286057 169.98628 
L 384.371858 165.487735 
L 385.457659 165.996045 
L 386.54346 179.771251 
L 387.629261 167.927624 
L 388.715062 173.569867 
L 389.800863 176.823052 
L 390.886665 175.70477 
L 391.972466 170.265851 
L 393.058267 177.255116 
L 394.144068 173.620698 
L 396.31567 182.999021 
L 397.401472 181.779076 
L 398.487273 190.750751 
L 398.487273 190.750751 
" clip-path="url(#p21bad536a8)" style="fill: none; stroke: #9467bd; stroke-width: 1.5; stroke-linecap: square"/>
   </g>
   <g id="patch_3">
    <path d="M 57.6 307.584 
L 57.6 41.472 
" style="fill: none; stroke: #000000; stroke-width: 0.8; stroke-linejoin: miter; stroke-linecap: square"/>
   </g>
   <g id="patch_4">
    <path d="M 414.72 307.584 
L 414.72 41.472 
" style="fill: none; stroke: #000000; stroke-width: 0.8; stroke-linejoin: miter; stroke-linecap: square"/>
   </g>
   <g id="patch_5">
    <path d="M 57.6 307.584 
L 414.72 307.584 
" style="fill: none; stroke: #000000; stroke-width: 0.8; stroke-linejoin: miter; stroke-linecap: square"/>
   </g>
   <g id="patch_6">
    <path d="M 57.6 41.472 
L 414.72 41.472 
" style="fill: none; stroke: #000000; stroke-width: 0.8; stroke-linejoin: miter; stroke-linecap: square"/>
   </g>
   <g id="text_20">
    <!-- Learning Curves -->
    <g transform="translate(187.37625 35.472) scale(0.12 -0.12)">
     <defs>
      <path id="DejaVuSans-4c" d="M 628 4666 
L 1259 4666 
L 1259 531 
L 3531 531 
L 3531 0 
L 628 0 
L 628 4666 
z
" transform="scale(0.015625)"/>
      <path id="DejaVuSans-65" d="M 3597 1894 
L 3597 1613 
L 953 1613 
Q 991 1019 1311 708 
Q 1631 397 2203 397 
Q 2534 397 2845 478 
Q 3156 559 3463 722 
L 3463 178 
Q 3153 47 2828 -22 
Q 2503 -91 2169 -91 
Q 1331 -91 842 396 
Q 353 884 353 1716 
Q 353 2575 817 3079 
Q 1281 3584 2069 3584 
Q 2775 3584 3186 3129 
Q 3597 2675 3597 1894 
z
M 3022 2063 
Q 3016 2534 2758 2815 
Q 2500 3097 2075 3097 
Q 1594 3097 1305 2825 
Q 1016 2553 972 2059 
L 3022 2063 
z
" transform="scale(0.015625)"/>
      <path id="DejaVuSans-6e" d="M 3513 2113 
L 3513 0 
L 2938 0 
L 2938 2094 
Q 2938 2591 2744 2837 
Q 2550 3084 2163 3084 
Q 1697 3084 1428 2787 
Q 1159 2491 1159 1978 
L 1159 0 
L 581 0 
L 581 3500 
L 1159 3500 
L 1159 2956 
Q 1366 3272 1645 3428 
Q 1925 3584 2291 3584 
Q 2894 3584 3203 3211 
Q 3513 2838 3513 2113 
z
" transform="scale(0.015625)"/>
      <path id="DejaVuSans-69" d="M 603 3500 
L 1178 3500 
L 1178 0 
L 603 0 
L 603 3500 
z
M 603 4863 
L 1178 4863 
L 1178 4134 
L 603 4134 
L 603 4863 
z
" transform="scale(0.015625)"/>
      <path id="DejaVuSans-67" d="M 2906 1791 
Q 2906 2416 2648 2759 
Q 2391 3103 1925 3103 
Q 1463 3103 1205 2759 
Q 947 2416 947 1791 
Q 947 1169 1205 825 
Q 1463 481 1925 481 
Q 2391 481 2648 825 
Q 2906 1169 2906 1791 
z
M 3481 434 
Q 3481 -459 3084 -895 
Q 2688 -1331 1869 -1331 
Q 1566 -1331 1297 -1286 
Q 1028 -1241 775 -1147 
L 775 -588 
Q 1028 -725 1275 -790 
Q 1522 -856 1778 -856 
Q 2344 -856 2625 -561 
Q 2906 -266 2906 331 
L 2906 616 
Q 2728 306 2450 153 
Q 2172 0 1784 0 
Q 1141 0 747 490 
Q 353 981 353 1791 
Q 353 2603 747 3093 
Q 1141 3584 1784 3584 
Q 2172 3584 2450 3431 
Q 2728 3278 2906 2969 
L 2906 3500 
L 3481 3500 
L 3481 434 
z
" transform="scale(0.015625)"/>
      <path id="DejaVuSans-20" transform="scale(0.015625)"/>
      <path id="DejaVuSans-43" d="M 4122 4306 
L 4122 3641 
Q 3803 3938 3442 4084 
Q 3081 4231 2675 4231 
Q 1875 4231 1450 3742 
Q 1025 3253 1025 2328 
Q 1025 1406 1450 917 
Q 1875 428 2675 428 
Q 3081 428 3442 575 
Q 3803 722 4122 1019 
L 4122 359 
Q 3791 134 3420 21 
Q 3050 -91 2638 -91 
Q 1578 -91 968 557 
Q 359 1206 359 2328 
Q 359 3453 968 4101 
Q 1578 4750 2638 4750 
Q 3056 4750 3426 4639 
Q 3797 4528 4122 4306 
z
" transform="scale(0.015625)"/>
      <path id="DejaVuSans-76" d="M 191 3500 
L 800 3500 
L 1894 563 
L 2988 3500 
L 3597 3500 
L 2284 0 
L 1503 0 
L 191 3500 
z
" transform="scale(0.015625)"/>
     </defs>
     <use xlink:href="#DejaVuSans-4c"/>
     <use xlink:href="#DejaVuSans-65" x="53.962891"/>
     <use xlink:href="#DejaVuSans-61" x="115.486328"/>
     <use xlink:href="#DejaVuSans-72" x="176.765625"/>
     <use xlink:href="#DejaVuSans-6e" x="216.128906"/>
     <use xlink:href="#DejaVuSans-69" x="279.507812"/>
     <use xlink:href="#DejaVuSans-6e" x="307.291016"/>
     <use xlink:href="#DejaVuSans-67" x="370.669922"/>
     <use xlink:href="#DejaVuSans-20" x="434.146484"/>
     <use xlink:href="#DejaVuSans-43" x="465.933594"/>
     <use xlink:href="#DejaVuSans-75" x="535.757812"/>
     <use xlink:href="#DejaVuSans-72" x="599.136719"/>
     <use xlink:href="#DejaVuSans-76" x="640.25"/>
     <use xlink:href="#DejaVuSans-65" x="699.429688"/>
     <use xlink:href="#DejaVuSans-73" x="760.953125"/>
    </g>
   </g>
   <g id="legend_1">
    <g id="patch_7">
     <path d="M 214.18875 302.584 
L 407.72 302.584 
Q 409.72 302.584 409.72 300.584 
L 409.72 228.193375 
Q 409.72 226.193375 407.72 226.193375 
L 214.18875 226.193375 
Q 212.18875 226.193375 212.18875 228.193375 
L 212.18875 300.584 
Q 212.18875 302.584 214.18875 302.584 
z
" style="fill: #ffffff; opacity: 0.8; stroke: #cccccc; stroke-linejoin: miter"/>
    </g>
    <g id="line2d_23">
     <path d="M 216.18875 234.291812 
L 226.18875 234.291812 
L 236.18875 234.291812 
" style="fill: none; stroke: #1f77b4; stroke-width: 1.5; stroke-linecap: square"/>
    </g>
    <g id="text_21">
     <!-- Train Accuracy -->
     <g transform="translate(244.18875 237.791812) scale(0.1 -0.1)">
      <defs>
       <path id="DejaVuSans-54" d="M -19 4666 
L 3928 4666 
L 3928 4134 
L 2272 4134 
L 2272 0 
L 1638 0 
L 1638 4134 
L -19 4134 
L -19 4666 
z
" transform="scale(0.015625)"/>
      </defs>
      <use xlink:href="#DejaVuSans-54"/>
      <use xlink:href="#DejaVuSans-72" x="46.333984"/>
      <use xlink:href="#DejaVuSans-61" x="87.447266"/>
      <use xlink:href="#DejaVuSans-69" x="148.726562"/>
      <use xlink:href="#DejaVuSans-6e" x="176.509766"/>
      <use xlink:href="#DejaVuSans-20" x="239.888672"/>
      <use xlink:href="#DejaVuSans-41" x="271.675781"/>
      <use xlink:href="#DejaVuSans-63" x="338.333984"/>
      <use xlink:href="#DejaVuSans-63" x="393.314453"/>
      <use xlink:href="#DejaVuSans-75" x="448.294922"/>
      <use xlink:href="#DejaVuSans-72" x="511.673828"/>
      <use xlink:href="#DejaVuSans-61" x="552.787109"/>
      <use xlink:href="#DejaVuSans-63" x="614.066406"/>
      <use xlink:href="#DejaVuSans-79" x="669.046875"/>
     </g>
    </g>
    <g id="line2d_24">
     <path d="M 216.18875 248.969937 
L 226.18875 248.969937 
L 236.18875 248.969937 
" style="fill: none; stroke: #ff7f0e; stroke-width: 1.5; stroke-linecap: square"/>
    </g>
    <g id="text_22">
     <!-- Validation Accuracy -->
     <g transform="translate(244.18875 252.469937) scale(0.1 -0.1)">
      <defs>
       <path id="DejaVuSans-56" d="M 1831 0 
L 50 4666 
L 709 4666 
L 2188 738 
L 3669 4666 
L 4325 4666 
L 2547 0 
L 1831 0 
z
" transform="scale(0.015625)"/>
       <path id="DejaVuSans-6c" d="M 603 4863 
L 1178 4863 
L 1178 0 
L 603 0 
L 603 4863 
z
" transform="scale(0.015625)"/>
       <path id="DejaVuSans-64" d="M 2906 2969 
L 2906 4863 
L 3481 4863 
L 3481 0 
L 2906 0 
L 2906 525 
Q 2725 213 2448 61 
Q 2172 -91 1784 -91 
Q 1150 -91 751 415 
Q 353 922 353 1747 
Q 353 2572 751 3078 
Q 1150 3584 1784 3584 
Q 2172 3584 2448 3432 
Q 2725 3281 2906 2969 
z
M 947 1747 
Q 947 1113 1208 752 
Q 1469 391 1925 391 
Q 2381 391 2643 752 
Q 2906 1113 2906 1747 
Q 2906 2381 2643 2742 
Q 2381 3103 1925 3103 
Q 1469 3103 1208 2742 
Q 947 2381 947 1747 
z
" transform="scale(0.015625)"/>
       <path id="DejaVuSans-74" d="M 1172 4494 
L 1172 3500 
L 2356 3500 
L 2356 3053 
L 1172 3053 
L 1172 1153 
Q 1172 725 1289 603 
Q 1406 481 1766 481 
L 2356 481 
L 2356 0 
L 1766 0 
Q 1100 0 847 248 
Q 594 497 594 1153 
L 594 3053 
L 172 3053 
L 172 3500 
L 594 3500 
L 594 4494 
L 1172 4494 
z
" transform="scale(0.015625)"/>
      </defs>
      <use xlink:href="#DejaVuSans-56"/>
      <use xlink:href="#DejaVuSans-61" x="60.658203"/>
      <use xlink:href="#DejaVuSans-6c" x="121.9375"/>
      <use xlink:href="#DejaVuSans-69" x="149.720703"/>
      <use xlink:href="#DejaVuSans-64" x="177.503906"/>
      <use xlink:href="#DejaVuSans-61" x="240.980469"/>
      <use xlink:href="#DejaVuSans-74" x="302.259766"/>
      <use xlink:href="#DejaVuSans-69" x="341.46875"/>
      <use xlink:href="#DejaVuSans-6f" x="369.251953"/>
      <use xlink:href="#DejaVuSans-6e" x="430.433594"/>
      <use xlink:href="#DejaVuSans-20" x="493.8125"/>
      <use xlink:href="#DejaVuSans-41" x="525.599609"/>
      <use xlink:href="#DejaVuSans-63" x="592.257812"/>
      <use xlink:href="#DejaVuSans-63" x="647.238281"/>
      <use xlink:href="#DejaVuSans-75" x="702.21875"/>
      <use xlink:href="#DejaVuSans-72" x="765.597656"/>
      <use xlink:href="#DejaVuSans-61" x="806.710938"/>
      <use xlink:href="#DejaVuSans-63" x="867.990234"/>
      <use xlink:href="#DejaVuSans-79" x="922.970703"/>
     </g>
    </g>
    <g id="line2d_25">
     <path d="M 216.18875 263.648062 
L 226.18875 263.648062 
L 236.18875 263.648062 
" style="fill: none; stroke: #2ca02c; stroke-width: 1.5; stroke-linecap: square"/>
    </g>
    <g id="text_23">
     <!-- Robust Validation Accuracy -->
     <g transform="translate(244.18875 267.148062) scale(0.1 -0.1)">
      <defs>
       <path id="DejaVuSans-52" d="M 2841 2188 
Q 3044 2119 3236 1894 
Q 3428 1669 3622 1275 
L 4263 0 
L 3584 0 
L 2988 1197 
Q 2756 1666 2539 1819 
Q 2322 1972 1947 1972 
L 1259 1972 
L 1259 0 
L 628 0 
L 628 4666 
L 2053 4666 
Q 2853 4666 3247 4331 
Q 3641 3997 3641 3322 
Q 3641 2881 3436 2590 
Q 3231 2300 2841 2188 
z
M 1259 4147 
L 1259 2491 
L 2053 2491 
Q 2509 2491 2742 2702 
Q 2975 2913 2975 3322 
Q 2975 3731 2742 3939 
Q 2509 4147 2053 4147 
L 1259 4147 
z
" transform="scale(0.015625)"/>
       <path id="DejaVuSans-62" d="M 3116 1747 
Q 3116 2381 2855 2742 
Q 2594 3103 2138 3103 
Q 1681 3103 1420 2742 
Q 1159 2381 1159 1747 
Q 1159 1113 1420 752 
Q 1681 391 2138 391 
Q 2594 391 2855 752 
Q 3116 1113 3116 1747 
z
M 1159 2969 
Q 1341 3281 1617 3432 
Q 1894 3584 2278 3584 
Q 2916 3584 3314 3078 
Q 3713 2572 3713 1747 
Q 3713 922 3314 415 
Q 2916 -91 2278 -91 
Q 1894 -91 1617 61 
Q 1341 213 1159 525 
L 1159 0 
L 581 0 
L 581 4863 
L 1159 4863 
L 1159 2969 
z
" transform="scale(0.015625)"/>
      </defs>
      <use xlink:href="#DejaVuSans-52"/>
      <use xlink:href="#DejaVuSans-6f" x="64.982422"/>
      <use xlink:href="#DejaVuSans-62" x="126.164062"/>
      <use xlink:href="#DejaVuSans-75" x="189.640625"/>
      <use xlink:href="#DejaVuSans-73" x="253.019531"/>
      <use xlink:href="#DejaVuSans-74" x="305.119141"/>
      <use xlink:href="#DejaVuSans-20" x="344.328125"/>
      <use xlink:href="#DejaVuSans-56" x="376.115234"/>
      <use xlink:href="#DejaVuSans-61" x="436.773438"/>
      <use xlink:href="#DejaVuSans-6c" x="498.052734"/>
      <use xlink:href="#DejaVuSans-69" x="525.835938"/>
      <use xlink:href="#DejaVuSans-64" x="553.619141"/>
      <use xlink:href="#DejaVuSans-61" x="617.095703"/>
      <use xlink:href="#DejaVuSans-74" x="678.375"/>
      <use xlink:href="#DejaVuSans-69" x="717.583984"/>
      <use xlink:href="#DejaVuSans-6f" x="745.367188"/>
      <use xlink:href="#DejaVuSans-6e" x="806.548828"/>
      <use xlink:href="#DejaVuSans-20" x="869.927734"/>
      <use xlink:href="#DejaVuSans-41" x="901.714844"/>
      <use xlink:href="#DejaVuSans-63" x="968.373047"/>
      <use xlink:href="#DejaVuSans-63" x="1023.353516"/>
      <use xlink:href="#DejaVuSans-75" x="1078.333984"/>
      <use xlink:href="#DejaVuSans-72" x="1141.712891"/>
      <use xlink:href="#DejaVuSans-61" x="1182.826172"/>
      <use xlink:href="#DejaVuSans-63" x="1244.105469"/>
      <use xlink:href="#DejaVuSans-79" x="1299.085938"/>
     </g>
    </g>
    <g id="line2d_26">
     <path d="M 216.18875 278.326188 
L 226.18875 278.326188 
L 236.18875 278.326188 
" style="fill: none; stroke: #d62728; stroke-width: 1.5; stroke-linecap: square"/>
    </g>
    <g id="text_24">
     <!-- SWA Validation Accuracy -->
     <g transform="translate(244.18875 281.826188) scale(0.1 -0.1)">
      <defs>
       <path id="DejaVuSans-53" d="M 3425 4513 
L 3425 3897 
Q 3066 4069 2747 4153 
Q 2428 4238 2131 4238 
Q 1616 4238 1336 4038 
Q 1056 3838 1056 3469 
Q 1056 3159 1242 3001 
Q 1428 2844 1947 2747 
L 2328 2669 
Q 3034 2534 3370 2195 
Q 3706 1856 3706 1288 
Q 3706 609 3251 259 
Q 2797 -91 1919 -91 
Q 1588 -91 1214 -16 
Q 841 59 441 206 
L 441 856 
Q 825 641 1194 531 
Q 1563 422 1919 422 
Q 2459 422 2753 634 
Q 3047 847 3047 1241 
Q 3047 1584 2836 1778 
Q 2625 1972 2144 2069 
L 1759 2144 
Q 1053 2284 737 2584 
Q 422 2884 422 3419 
Q 422 4038 858 4394 
Q 1294 4750 2059 4750 
Q 2388 4750 2728 4690 
Q 3069 4631 3425 4513 
z
" transform="scale(0.015625)"/>
       <path id="DejaVuSans-57" d="M 213 4666 
L 850 4666 
L 1831 722 
L 2809 4666 
L 3519 4666 
L 4500 722 
L 5478 4666 
L 6119 4666 
L 4947 0 
L 4153 0 
L 3169 4050 
L 2175 0 
L 1381 0 
L 213 4666 
z
" transform="scale(0.015625)"/>
      </defs>
      <use xlink:href="#DejaVuSans-53"/>
      <use xlink:href="#DejaVuSans-57" x="63.476562"/>
      <use xlink:href="#DejaVuSans-41" x="156.853516"/>
      <use xlink:href="#DejaVuSans-20" x="225.261719"/>
      <use xlink:href="#DejaVuSans-56" x="257.048828"/>
      <use xlink:href="#DejaVuSans-61" x="317.707031"/>
      <use xlink:href="#DejaVuSans-6c" x="378.986328"/>
      <use xlink:href="#DejaVuSans-69" x="406.769531"/>
      <use xlink:href="#DejaVuSans-64" x="434.552734"/>
      <use xlink:href="#DejaVuSans-61" x="498.029297"/>
      <use xlink:href="#DejaVuSans-74" x="559.308594"/>
      <use xlink:href="#DejaVuSans-69" x="598.517578"/>
      <use xlink:href="#DejaVuSans-6f" x="626.300781"/>
      <use xlink:href="#DejaVuSans-6e" x="687.482422"/>
      <use xlink:href="#DejaVuSans-20" x="750.861328"/>
      <use xlink:href="#DejaVuSans-41" x="782.648438"/>
      <use xlink:href="#DejaVuSans-63" x="849.306641"/>
      <use xlink:href="#DejaVuSans-63" x="904.287109"/>
      <use xlink:href="#DejaVuSans-75" x="959.267578"/>
      <use xlink:href="#DejaVuSans-72" x="1022.646484"/>
      <use xlink:href="#DejaVuSans-61" x="1063.759766"/>
      <use xlink:href="#DejaVuSans-63" x="1125.039062"/>
      <use xlink:href="#DejaVuSans-79" x="1180.019531"/>
     </g>
    </g>
    <g id="line2d_27">
     <path d="M 216.18875 293.004312 
L 226.18875 293.004312 
L 236.18875 293.004312 
" style="fill: none; stroke: #9467bd; stroke-width: 1.5; stroke-linecap: square"/>
    </g>
    <g id="text_25">
     <!-- SWA Robust Validation Accuracy -->
     <g transform="translate(244.18875 296.504312) scale(0.1 -0.1)">
      <use xlink:href="#DejaVuSans-53"/>
      <use xlink:href="#DejaVuSans-57" x="63.476562"/>
      <use xlink:href="#DejaVuSans-41" x="156.853516"/>
      <use xlink:href="#DejaVuSans-20" x="225.261719"/>
      <use xlink:href="#DejaVuSans-52" x="257.048828"/>
      <use xlink:href="#DejaVuSans-6f" x="322.03125"/>
      <use xlink:href="#DejaVuSans-62" x="383.212891"/>
      <use xlink:href="#DejaVuSans-75" x="446.689453"/>
      <use xlink:href="#DejaVuSans-73" x="510.068359"/>
      <use xlink:href="#DejaVuSans-74" x="562.167969"/>
      <use xlink:href="#DejaVuSans-20" x="601.376953"/>
      <use xlink:href="#DejaVuSans-56" x="633.164062"/>
      <use xlink:href="#DejaVuSans-61" x="693.822266"/>
      <use xlink:href="#DejaVuSans-6c" x="755.101562"/>
      <use xlink:href="#DejaVuSans-69" x="782.884766"/>
      <use xlink:href="#DejaVuSans-64" x="810.667969"/>
      <use xlink:href="#DejaVuSans-61" x="874.144531"/>
      <use xlink:href="#DejaVuSans-74" x="935.423828"/>
      <use xlink:href="#DejaVuSans-69" x="974.632812"/>
      <use xlink:href="#DejaVuSans-6f" x="1002.416016"/>
      <use xlink:href="#DejaVuSans-6e" x="1063.597656"/>
      <use xlink:href="#DejaVuSans-20" x="1126.976562"/>
      <use xlink:href="#DejaVuSans-41" x="1158.763672"/>
      <use xlink:href="#DejaVuSans-63" x="1225.421875"/>
      <use xlink:href="#DejaVuSans-63" x="1280.402344"/>
      <use xlink:href="#DejaVuSans-75" x="1335.382812"/>
      <use xlink:href="#DejaVuSans-72" x="1398.761719"/>
      <use xlink:href="#DejaVuSans-61" x="1439.875"/>
      <use xlink:href="#DejaVuSans-63" x="1501.154297"/>
      <use xlink:href="#DejaVuSans-79" x="1556.134766"/>
     </g>
    </g>
   </g>
  </g>
 </g>
 <defs>
  <clipPath id="p21bad536a8">
   <rect x="57.6" y="41.472" width="357.12" height="266.112"/>
  </clipPath>
 </defs>
</svg>
