<?xml version="1.0" encoding="utf-8" standalone="no"?>
<!DOCTYPE svg PUBLIC "-//W3C//DTD SVG 1.1//EN"
  "http://www.w3.org/Graphics/SVG/1.1/DTD/svg11.dtd">
<svg xmlns:xlink="http://www.w3.org/1999/xlink" width="460.8pt" height="345.6pt" viewBox="0 0 460.8 345.6" xmlns="http://www.w3.org/2000/svg" version="1.1">
 <metadata>
  <rdf:RDF xmlns:dc="http://purl.org/dc/elements/1.1/" xmlns:cc="http://creativecommons.org/ns#" xmlns:rdf="http://www.w3.org/1999/02/22-rdf-syntax-ns#">
   <cc:Work>
    <dc:type rdf:resource="http://purl.org/dc/dcmitype/StillImage"/>
    <dc:date>2025-05-06T22:17:13.429480</dc:date>
    <dc:format>image/svg+xml</dc:format>
    <dc:creator>
     <cc:Agent>
      <dc:title>Matplotlib v3.9.1, https://matplotlib.org/</dc:title>
     </cc:Agent>
    </dc:creator>
   </cc:Work>
  </rdf:RDF>
 </metadata>
 <defs>
  <style type="text/css">*{stroke-linejoin: round; stroke-linecap: butt}</style>
 </defs>
 <g id="figure_1">
  <g id="patch_1">
   <path d="M 0 345.6 
L 460.8 345.6 
L 460.8 0 
L 0 0 
z
" style="fill: #ffffff"/>
  </g>
  <g id="axes_1">
   <g id="patch_2">
    <path d="M 57.6 307.584 
L 414.72 307.584 
L 414.72 41.472 
L 57.6 41.472 
z
" style="fill: #ffffff"/>
   </g>
   <g id="matplotlib.axis_1">
    <g id="xtick_1">
     <g id="line2d_1">
      <defs>
       <path id="m88fedc6a3f" d="M 0 0 
L 0 3.5 
" style="stroke: #000000; stroke-width: 0.8"/>
      </defs>
      <g>
       <use xlink:href="#m88fedc6a3f" x="73.832727" y="307.584" style="stroke: #000000; stroke-width: 0.8"/>
      </g>
     </g>
     <g id="text_1">
      <!-- 1 -->
      <g transform="translate(70.651477 322.182437) scale(0.1 -0.1)">
       <defs>
        <path id="DejaVuSans-31" d="M 794 531 
L 1825 531 
L 1825 4091 
L 703 3866 
L 703 4441 
L 1819 4666 
L 2450 4666 
L 2450 531 
L 3481 531 
L 3481 0 
L 794 0 
L 794 531 
z
" transform="scale(0.015625)"/>
       </defs>
       <use xlink:href="#DejaVuSans-31"/>
      </g>
     </g>
    </g>
    <g id="xtick_2">
     <g id="line2d_2">
      <g>
       <use xlink:href="#m88fedc6a3f" x="109.604347" y="307.584" style="stroke: #000000; stroke-width: 0.8"/>
      </g>
     </g>
     <g id="text_2">
      <!-- 67 -->
      <g transform="translate(103.241847 322.182437) scale(0.1 -0.1)">
       <defs>
        <path id="DejaVuSans-36" d="M 2113 2584 
Q 1688 2584 1439 2293 
Q 1191 2003 1191 1497 
Q 1191 994 1439 701 
Q 1688 409 2113 409 
Q 2538 409 2786 701 
Q 3034 994 3034 1497 
Q 3034 2003 2786 2293 
Q 2538 2584 2113 2584 
z
M 3366 4563 
L 3366 3988 
Q 3128 4100 2886 4159 
Q 2644 4219 2406 4219 
Q 1781 4219 1451 3797 
Q 1122 3375 1075 2522 
Q 1259 2794 1537 2939 
Q 1816 3084 2150 3084 
Q 2853 3084 3261 2657 
Q 3669 2231 3669 1497 
Q 3669 778 3244 343 
Q 2819 -91 2113 -91 
Q 1303 -91 875 529 
Q 447 1150 447 2328 
Q 447 3434 972 4092 
Q 1497 4750 2381 4750 
Q 2619 4750 2861 4703 
Q 3103 4656 3366 4563 
z
" transform="scale(0.015625)"/>
        <path id="DejaVuSans-37" d="M 525 4666 
L 3525 4666 
L 3525 4397 
L 1831 0 
L 1172 0 
L 2766 4134 
L 525 4134 
L 525 4666 
z
" transform="scale(0.015625)"/>
       </defs>
       <use xlink:href="#DejaVuSans-36"/>
       <use xlink:href="#DejaVuSans-37" x="63.623047"/>
      </g>
     </g>
    </g>
    <g id="xtick_3">
     <g id="line2d_3">
      <g>
       <use xlink:href="#m88fedc6a3f" x="145.91796" y="307.584" style="stroke: #000000; stroke-width: 0.8"/>
      </g>
     </g>
     <g id="text_3">
      <!-- 134 -->
      <g transform="translate(136.37421 322.182437) scale(0.1 -0.1)">
       <defs>
        <path id="DejaVuSans-33" d="M 2597 2516 
Q 3050 2419 3304 2112 
Q 3559 1806 3559 1356 
Q 3559 666 3084 287 
Q 2609 -91 1734 -91 
Q 1441 -91 1130 -33 
Q 819 25 488 141 
L 488 750 
Q 750 597 1062 519 
Q 1375 441 1716 441 
Q 2309 441 2620 675 
Q 2931 909 2931 1356 
Q 2931 1769 2642 2001 
Q 2353 2234 1838 2234 
L 1294 2234 
L 1294 2753 
L 1863 2753 
Q 2328 2753 2575 2939 
Q 2822 3125 2822 3475 
Q 2822 3834 2567 4026 
Q 2313 4219 1838 4219 
Q 1578 4219 1281 4162 
Q 984 4106 628 3988 
L 628 4550 
Q 988 4650 1302 4700 
Q 1616 4750 1894 4750 
Q 2613 4750 3031 4423 
Q 3450 4097 3450 3541 
Q 3450 3153 3228 2886 
Q 3006 2619 2597 2516 
z
" transform="scale(0.015625)"/>
        <path id="DejaVuSans-34" d="M 2419 4116 
L 825 1625 
L 2419 1625 
L 2419 4116 
z
M 2253 4666 
L 3047 4666 
L 3047 1625 
L 3713 1625 
L 3713 1100 
L 3047 1100 
L 3047 0 
L 2419 0 
L 2419 1100 
L 313 1100 
L 313 1709 
L 2253 4666 
z
" transform="scale(0.015625)"/>
       </defs>
       <use xlink:href="#DejaVuSans-31"/>
       <use xlink:href="#DejaVuSans-33" x="63.623047"/>
       <use xlink:href="#DejaVuSans-34" x="127.246094"/>
      </g>
     </g>
    </g>
    <g id="xtick_4">
     <g id="line2d_4">
      <g>
       <use xlink:href="#m88fedc6a3f" x="181.68958" y="307.584" style="stroke: #000000; stroke-width: 0.8"/>
      </g>
     </g>
     <g id="text_4">
      <!-- 200 -->
      <g transform="translate(172.14583 322.182437) scale(0.1 -0.1)">
       <defs>
        <path id="DejaVuSans-32" d="M 1228 531 
L 3431 531 
L 3431 0 
L 469 0 
L 469 531 
Q 828 903 1448 1529 
Q 2069 2156 2228 2338 
Q 2531 2678 2651 2914 
Q 2772 3150 2772 3378 
Q 2772 3750 2511 3984 
Q 2250 4219 1831 4219 
Q 1534 4219 1204 4116 
Q 875 4013 500 3803 
L 500 4441 
Q 881 4594 1212 4672 
Q 1544 4750 1819 4750 
Q 2544 4750 2975 4387 
Q 3406 4025 3406 3419 
Q 3406 3131 3298 2873 
Q 3191 2616 2906 2266 
Q 2828 2175 2409 1742 
Q 1991 1309 1228 531 
z
" transform="scale(0.015625)"/>
        <path id="DejaVuSans-30" d="M 2034 4250 
Q 1547 4250 1301 3770 
Q 1056 3291 1056 2328 
Q 1056 1369 1301 889 
Q 1547 409 2034 409 
Q 2525 409 2770 889 
Q 3016 1369 3016 2328 
Q 3016 3291 2770 3770 
Q 2525 4250 2034 4250 
z
M 2034 4750 
Q 2819 4750 3233 4129 
Q 3647 3509 3647 2328 
Q 3647 1150 3233 529 
Q 2819 -91 2034 -91 
Q 1250 -91 836 529 
Q 422 1150 422 2328 
Q 422 3509 836 4129 
Q 1250 4750 2034 4750 
z
" transform="scale(0.015625)"/>
       </defs>
       <use xlink:href="#DejaVuSans-32"/>
       <use xlink:href="#DejaVuSans-30" x="63.623047"/>
       <use xlink:href="#DejaVuSans-30" x="127.246094"/>
      </g>
     </g>
    </g>
    <g id="xtick_5">
     <g id="line2d_5">
      <g>
       <use xlink:href="#m88fedc6a3f" x="218.003193" y="307.584" style="stroke: #000000; stroke-width: 0.8"/>
      </g>
     </g>
     <g id="text_5">
      <!-- 267 -->
      <g transform="translate(208.459443 322.182437) scale(0.1 -0.1)">
       <use xlink:href="#DejaVuSans-32"/>
       <use xlink:href="#DejaVuSans-36" x="63.623047"/>
       <use xlink:href="#DejaVuSans-37" x="127.246094"/>
      </g>
     </g>
    </g>
    <g id="xtick_6">
     <g id="line2d_6">
      <g>
       <use xlink:href="#m88fedc6a3f" x="253.774813" y="307.584" style="stroke: #000000; stroke-width: 0.8"/>
      </g>
     </g>
     <g id="text_6">
      <!-- 333 -->
      <g transform="translate(244.231063 322.182437) scale(0.1 -0.1)">
       <use xlink:href="#DejaVuSans-33"/>
       <use xlink:href="#DejaVuSans-33" x="63.623047"/>
       <use xlink:href="#DejaVuSans-33" x="127.246094"/>
      </g>
     </g>
    </g>
    <g id="xtick_7">
     <g id="line2d_7">
      <g>
       <use xlink:href="#m88fedc6a3f" x="290.088426" y="307.584" style="stroke: #000000; stroke-width: 0.8"/>
      </g>
     </g>
     <g id="text_7">
      <!-- 400 -->
      <g transform="translate(280.544676 322.182437) scale(0.1 -0.1)">
       <use xlink:href="#DejaVuSans-34"/>
       <use xlink:href="#DejaVuSans-30" x="63.623047"/>
       <use xlink:href="#DejaVuSans-30" x="127.246094"/>
      </g>
     </g>
    </g>
    <g id="xtick_8">
     <g id="line2d_8">
      <g>
       <use xlink:href="#m88fedc6a3f" x="325.860046" y="307.584" style="stroke: #000000; stroke-width: 0.8"/>
      </g>
     </g>
     <g id="text_8">
      <!-- 466 -->
      <g transform="translate(316.316296 322.182437) scale(0.1 -0.1)">
       <use xlink:href="#DejaVuSans-34"/>
       <use xlink:href="#DejaVuSans-36" x="63.623047"/>
       <use xlink:href="#DejaVuSans-36" x="127.246094"/>
      </g>
     </g>
    </g>
    <g id="xtick_9">
     <g id="line2d_9">
      <g>
       <use xlink:href="#m88fedc6a3f" x="362.173659" y="307.584" style="stroke: #000000; stroke-width: 0.8"/>
      </g>
     </g>
     <g id="text_9">
      <!-- 533 -->
      <g transform="translate(352.629909 322.182437) scale(0.1 -0.1)">
       <defs>
        <path id="DejaVuSans-35" d="M 691 4666 
L 3169 4666 
L 3169 4134 
L 1269 4134 
L 1269 2991 
Q 1406 3038 1543 3061 
Q 1681 3084 1819 3084 
Q 2600 3084 3056 2656 
Q 3513 2228 3513 1497 
Q 3513 744 3044 326 
Q 2575 -91 1722 -91 
Q 1428 -91 1123 -41 
Q 819 9 494 109 
L 494 744 
Q 775 591 1075 516 
Q 1375 441 1709 441 
Q 2250 441 2565 725 
Q 2881 1009 2881 1497 
Q 2881 1984 2565 2268 
Q 2250 2553 1709 2553 
Q 1456 2553 1204 2497 
Q 953 2441 691 2322 
L 691 4666 
z
" transform="scale(0.015625)"/>
       </defs>
       <use xlink:href="#DejaVuSans-35"/>
       <use xlink:href="#DejaVuSans-33" x="63.623047"/>
       <use xlink:href="#DejaVuSans-33" x="127.246094"/>
      </g>
     </g>
    </g>
    <g id="xtick_10">
     <g id="line2d_10">
      <g>
       <use xlink:href="#m88fedc6a3f" x="398.487273" y="307.584" style="stroke: #000000; stroke-width: 0.8"/>
      </g>
     </g>
     <g id="text_10">
      <!-- 600 -->
      <g transform="translate(388.943523 322.182437) scale(0.1 -0.1)">
       <use xlink:href="#DejaVuSans-36"/>
       <use xlink:href="#DejaVuSans-30" x="63.623047"/>
       <use xlink:href="#DejaVuSans-30" x="127.246094"/>
      </g>
     </g>
    </g>
    <g id="text_11">
     <!-- Epochs -->
     <g transform="translate(218.244375 335.860562) scale(0.1 -0.1)">
      <defs>
       <path id="DejaVuSans-45" d="M 628 4666 
L 3578 4666 
L 3578 4134 
L 1259 4134 
L 1259 2753 
L 3481 2753 
L 3481 2222 
L 1259 2222 
L 1259 531 
L 3634 531 
L 3634 0 
L 628 0 
L 628 4666 
z
" transform="scale(0.015625)"/>
       <path id="DejaVuSans-70" d="M 1159 525 
L 1159 -1331 
L 581 -1331 
L 581 3500 
L 1159 3500 
L 1159 2969 
Q 1341 3281 1617 3432 
Q 1894 3584 2278 3584 
Q 2916 3584 3314 3078 
Q 3713 2572 3713 1747 
Q 3713 922 3314 415 
Q 2916 -91 2278 -91 
Q 1894 -91 1617 61 
Q 1341 213 1159 525 
z
M 3116 1747 
Q 3116 2381 2855 2742 
Q 2594 3103 2138 3103 
Q 1681 3103 1420 2742 
Q 1159 2381 1159 1747 
Q 1159 1113 1420 752 
Q 1681 391 2138 391 
Q 2594 391 2855 752 
Q 3116 1113 3116 1747 
z
" transform="scale(0.015625)"/>
       <path id="DejaVuSans-6f" d="M 1959 3097 
Q 1497 3097 1228 2736 
Q 959 2375 959 1747 
Q 959 1119 1226 758 
Q 1494 397 1959 397 
Q 2419 397 2687 759 
Q 2956 1122 2956 1747 
Q 2956 2369 2687 2733 
Q 2419 3097 1959 3097 
z
M 1959 3584 
Q 2709 3584 3137 3096 
Q 3566 2609 3566 1747 
Q 3566 888 3137 398 
Q 2709 -91 1959 -91 
Q 1206 -91 779 398 
Q 353 888 353 1747 
Q 353 2609 779 3096 
Q 1206 3584 1959 3584 
z
" transform="scale(0.015625)"/>
       <path id="DejaVuSans-63" d="M 3122 3366 
L 3122 2828 
Q 2878 2963 2633 3030 
Q 2388 3097 2138 3097 
Q 1578 3097 1268 2742 
Q 959 2388 959 1747 
Q 959 1106 1268 751 
Q 1578 397 2138 397 
Q 2388 397 2633 464 
Q 2878 531 3122 666 
L 3122 134 
Q 2881 22 2623 -34 
Q 2366 -91 2075 -91 
Q 1284 -91 818 406 
Q 353 903 353 1747 
Q 353 2603 823 3093 
Q 1294 3584 2113 3584 
Q 2378 3584 2631 3529 
Q 2884 3475 3122 3366 
z
" transform="scale(0.015625)"/>
       <path id="DejaVuSans-68" d="M 3513 2113 
L 3513 0 
L 2938 0 
L 2938 2094 
Q 2938 2591 2744 2837 
Q 2550 3084 2163 3084 
Q 1697 3084 1428 2787 
Q 1159 2491 1159 1978 
L 1159 0 
L 581 0 
L 581 4863 
L 1159 4863 
L 1159 2956 
Q 1366 3272 1645 3428 
Q 1925 3584 2291 3584 
Q 2894 3584 3203 3211 
Q 3513 2838 3513 2113 
z
" transform="scale(0.015625)"/>
       <path id="DejaVuSans-73" d="M 2834 3397 
L 2834 2853 
Q 2591 2978 2328 3040 
Q 2066 3103 1784 3103 
Q 1356 3103 1142 2972 
Q 928 2841 928 2578 
Q 928 2378 1081 2264 
Q 1234 2150 1697 2047 
L 1894 2003 
Q 2506 1872 2764 1633 
Q 3022 1394 3022 966 
Q 3022 478 2636 193 
Q 2250 -91 1575 -91 
Q 1294 -91 989 -36 
Q 684 19 347 128 
L 347 722 
Q 666 556 975 473 
Q 1284 391 1588 391 
Q 1994 391 2212 530 
Q 2431 669 2431 922 
Q 2431 1156 2273 1281 
Q 2116 1406 1581 1522 
L 1381 1569 
Q 847 1681 609 1914 
Q 372 2147 372 2553 
Q 372 3047 722 3315 
Q 1072 3584 1716 3584 
Q 2034 3584 2315 3537 
Q 2597 3491 2834 3397 
z
" transform="scale(0.015625)"/>
      </defs>
      <use xlink:href="#DejaVuSans-45"/>
      <use xlink:href="#DejaVuSans-70" x="63.183594"/>
      <use xlink:href="#DejaVuSans-6f" x="126.660156"/>
      <use xlink:href="#DejaVuSans-63" x="187.841797"/>
      <use xlink:href="#DejaVuSans-68" x="242.822266"/>
      <use xlink:href="#DejaVuSans-73" x="306.201172"/>
     </g>
    </g>
   </g>
   <g id="matplotlib.axis_2">
    <g id="ytick_1">
     <g id="line2d_11">
      <defs>
       <path id="m3c1e5d22a9" d="M 0 0 
L -3.5 0 
" style="stroke: #000000; stroke-width: 0.8"/>
      </defs>
      <g>
       <use xlink:href="#m3c1e5d22a9" x="57.6" y="306.567475" style="stroke: #000000; stroke-width: 0.8"/>
      </g>
     </g>
     <g id="text_12">
      <!-- 0 -->
      <g transform="translate(44.2375 310.366694) scale(0.1 -0.1)">
       <use xlink:href="#DejaVuSans-30"/>
      </g>
     </g>
    </g>
    <g id="ytick_2">
     <g id="line2d_12">
      <g>
       <use xlink:href="#m3c1e5d22a9" x="57.6" y="271.472528" style="stroke: #000000; stroke-width: 0.8"/>
      </g>
     </g>
     <g id="text_13">
      <!-- 10 -->
      <g transform="translate(37.875 275.271746) scale(0.1 -0.1)">
       <use xlink:href="#DejaVuSans-31"/>
       <use xlink:href="#DejaVuSans-30" x="63.623047"/>
      </g>
     </g>
    </g>
    <g id="ytick_3">
     <g id="line2d_13">
      <g>
       <use xlink:href="#m3c1e5d22a9" x="57.6" y="236.37758" style="stroke: #000000; stroke-width: 0.8"/>
      </g>
     </g>
     <g id="text_14">
      <!-- 20 -->
      <g transform="translate(37.875 240.176799) scale(0.1 -0.1)">
       <use xlink:href="#DejaVuSans-32"/>
       <use xlink:href="#DejaVuSans-30" x="63.623047"/>
      </g>
     </g>
    </g>
    <g id="ytick_4">
     <g id="line2d_14">
      <g>
       <use xlink:href="#m3c1e5d22a9" x="57.6" y="201.282633" style="stroke: #000000; stroke-width: 0.8"/>
      </g>
     </g>
     <g id="text_15">
      <!-- 30 -->
      <g transform="translate(37.875 205.081852) scale(0.1 -0.1)">
       <use xlink:href="#DejaVuSans-33"/>
       <use xlink:href="#DejaVuSans-30" x="63.623047"/>
      </g>
     </g>
    </g>
    <g id="ytick_5">
     <g id="line2d_15">
      <g>
       <use xlink:href="#m3c1e5d22a9" x="57.6" y="166.187686" style="stroke: #000000; stroke-width: 0.8"/>
      </g>
     </g>
     <g id="text_16">
      <!-- 40 -->
      <g transform="translate(37.875 169.986905) scale(0.1 -0.1)">
       <use xlink:href="#DejaVuSans-34"/>
       <use xlink:href="#DejaVuSans-30" x="63.623047"/>
      </g>
     </g>
    </g>
    <g id="ytick_6">
     <g id="line2d_16">
      <g>
       <use xlink:href="#m3c1e5d22a9" x="57.6" y="131.092739" style="stroke: #000000; stroke-width: 0.8"/>
      </g>
     </g>
     <g id="text_17">
      <!-- 50 -->
      <g transform="translate(37.875 134.891957) scale(0.1 -0.1)">
       <use xlink:href="#DejaVuSans-35"/>
       <use xlink:href="#DejaVuSans-30" x="63.623047"/>
      </g>
     </g>
    </g>
    <g id="ytick_7">
     <g id="line2d_17">
      <g>
       <use xlink:href="#m3c1e5d22a9" x="57.6" y="95.997791" style="stroke: #000000; stroke-width: 0.8"/>
      </g>
     </g>
     <g id="text_18">
      <!-- 60 -->
      <g transform="translate(37.875 99.79701) scale(0.1 -0.1)">
       <use xlink:href="#DejaVuSans-36"/>
       <use xlink:href="#DejaVuSans-30" x="63.623047"/>
      </g>
     </g>
    </g>
    <g id="ytick_8">
     <g id="line2d_18">
      <g>
       <use xlink:href="#m3c1e5d22a9" x="57.6" y="60.902844" style="stroke: #000000; stroke-width: 0.8"/>
      </g>
     </g>
     <g id="text_19">
      <!-- 70 -->
      <g transform="translate(37.875 64.702063) scale(0.1 -0.1)">
       <use xlink:href="#DejaVuSans-37"/>
       <use xlink:href="#DejaVuSans-30" x="63.623047"/>
      </g>
     </g>
    </g>
    <g id="text_20">
     <!-- Accuracy -->
     <g transform="translate(31.795312 197.356125) rotate(-90) scale(0.1 -0.1)">
      <defs>
       <path id="DejaVuSans-41" d="M 2188 4044 
L 1331 1722 
L 3047 1722 
L 2188 4044 
z
M 1831 4666 
L 2547 4666 
L 4325 0 
L 3669 0 
L 3244 1197 
L 1141 1197 
L 716 0 
L 50 0 
L 1831 4666 
z
" transform="scale(0.015625)"/>
       <path id="DejaVuSans-75" d="M 544 1381 
L 544 3500 
L 1119 3500 
L 1119 1403 
Q 1119 906 1312 657 
Q 1506 409 1894 409 
Q 2359 409 2629 706 
Q 2900 1003 2900 1516 
L 2900 3500 
L 3475 3500 
L 3475 0 
L 2900 0 
L 2900 538 
Q 2691 219 2414 64 
Q 2138 -91 1772 -91 
Q 1169 -91 856 284 
Q 544 659 544 1381 
z
M 1991 3584 
L 1991 3584 
z
" transform="scale(0.015625)"/>
       <path id="DejaVuSans-72" d="M 2631 2963 
Q 2534 3019 2420 3045 
Q 2306 3072 2169 3072 
Q 1681 3072 1420 2755 
Q 1159 2438 1159 1844 
L 1159 0 
L 581 0 
L 581 3500 
L 1159 3500 
L 1159 2956 
Q 1341 3275 1631 3429 
Q 1922 3584 2338 3584 
Q 2397 3584 2469 3576 
Q 2541 3569 2628 3553 
L 2631 2963 
z
" transform="scale(0.015625)"/>
       <path id="DejaVuSans-61" d="M 2194 1759 
Q 1497 1759 1228 1600 
Q 959 1441 959 1056 
Q 959 750 1161 570 
Q 1363 391 1709 391 
Q 2188 391 2477 730 
Q 2766 1069 2766 1631 
L 2766 1759 
L 2194 1759 
z
M 3341 1997 
L 3341 0 
L 2766 0 
L 2766 531 
Q 2569 213 2275 61 
Q 1981 -91 1556 -91 
Q 1019 -91 701 211 
Q 384 513 384 1019 
Q 384 1609 779 1909 
Q 1175 2209 1959 2209 
L 2766 2209 
L 2766 2266 
Q 2766 2663 2505 2880 
Q 2244 3097 1772 3097 
Q 1472 3097 1187 3025 
Q 903 2953 641 2809 
L 641 3341 
Q 956 3463 1253 3523 
Q 1550 3584 1831 3584 
Q 2591 3584 2966 3190 
Q 3341 2797 3341 1997 
z
" transform="scale(0.015625)"/>
       <path id="DejaVuSans-79" d="M 2059 -325 
Q 1816 -950 1584 -1140 
Q 1353 -1331 966 -1331 
L 506 -1331 
L 506 -850 
L 844 -850 
Q 1081 -850 1212 -737 
Q 1344 -625 1503 -206 
L 1606 56 
L 191 3500 
L 800 3500 
L 1894 763 
L 2988 3500 
L 3597 3500 
L 2059 -325 
z
" transform="scale(0.015625)"/>
      </defs>
      <use xlink:href="#DejaVuSans-41"/>
      <use xlink:href="#DejaVuSans-63" x="66.658203"/>
      <use xlink:href="#DejaVuSans-63" x="121.638672"/>
      <use xlink:href="#DejaVuSans-75" x="176.619141"/>
      <use xlink:href="#DejaVuSans-72" x="239.998047"/>
      <use xlink:href="#DejaVuSans-61" x="281.111328"/>
      <use xlink:href="#DejaVuSans-63" x="342.390625"/>
      <use xlink:href="#DejaVuSans-79" x="397.371094"/>
     </g>
    </g>
   </g>
   <g id="line2d_19">
    <path d="M 73.832727 295.488 
L 74.916716 266.267947 
L 76.000704 244.702102 
L 78.168681 217.703559 
L 79.25267 208.424455 
L 80.336658 202.230197 
L 80.878652 197.90299 
L 81.420647 195.653404 
L 81.962641 191.677146 
L 82.504635 188.701094 
L 83.046629 184.742384 
L 83.588623 183.24734 
L 84.130618 180.429215 
L 84.672612 178.477936 
L 85.7566 173.441811 
L 86.298595 171.78182 
L 86.840589 168.525009 
L 87.382583 167.879262 
L 89.008566 159.775839 
L 89.55056 160.151355 
L 90.634548 155.67324 
L 91.176543 154.823942 
L 92.260531 151.468865 
L 92.802525 151.419732 
L 93.34452 149.854497 
L 93.886514 150.475678 
L 94.428508 149.0052 
L 94.970502 148.910443 
L 95.512497 181.952336 
L 96.054491 183.812368 
L 97.138479 180.959149 
L 98.222468 177.842718 
L 98.764462 176.944287 
L 99.306456 174.606964 
L 99.84845 173.754156 
L 100.390445 172.543381 
L 100.932439 170.971127 
L 101.474433 171.216792 
L 102.016427 169.251475 
L 102.558422 168.433762 
L 103.100416 166.868528 
L 103.64241 164.738264 
L 104.184404 165.282236 
L 104.726399 163.738058 
L 105.268393 162.657134 
L 105.810387 161.151561 
L 106.352381 159.049374 
L 106.894375 158.873899 
L 107.978364 156.884015 
L 108.520358 157.666633 
L 109.604347 154.262423 
L 110.146341 154.265932 
L 110.688335 152.798963 
L 111.230329 152.514694 
L 111.772324 151.64083 
L 112.856312 148.959576 
L 113.940301 147.141658 
L 114.482295 147.864614 
L 115.024289 145.130717 
L 115.566283 145.653632 
L 116.108277 143.151362 
L 116.650272 143.046078 
L 117.192266 140.764906 
L 117.73426 140.838605 
L 118.276254 139.708548 
L 118.818249 139.392694 
L 119.360243 138.185427 
L 119.902237 137.932744 
L 120.444231 137.841497 
L 120.986226 135.262018 
L 121.52822 135.128657 
L 122.612208 133.212473 
L 123.154202 131.029568 
L 123.696197 131.08221 
L 124.780185 128.436051 
L 125.322179 129.955662 
L 125.864174 126.923459 
L 126.406168 125.291544 
L 127.490156 124.231676 
L 128.032151 123.087581 
L 128.574145 121.504799 
L 129.116139 120.283495 
L 129.658133 120.11153 
L 130.200127 119.578086 
L 130.742122 119.406121 
L 131.284116 118.212893 
L 131.82611 117.861943 
L 132.368104 117.732092 
L 132.910099 116.226519 
L 133.994087 115.693076 
L 134.536081 115.791342 
L 135.078076 114.787626 
L 135.62007 114.348939 
L 136.162064 114.41562 
L 136.704058 113.801458 
L 137.246053 114.699889 
L 137.788047 113.990971 
L 138.330041 114.240145 
L 138.872035 156.168078 
L 139.414029 159.877614 
L 139.956024 160.74095 
L 140.498018 160.344377 
L 141.040012 159.365228 
L 141.582006 157.487648 
L 142.124001 157.926335 
L 142.665995 157.006848 
L 143.207989 155.452141 
L 144.291978 155.220515 
L 144.833972 153.318369 
L 145.375966 154.153628 
L 145.91796 152.795454 
L 146.459954 153.016552 
L 147.543943 151.7777 
L 148.085937 150.693267 
L 148.627931 150.87576 
L 149.169926 150.854703 
L 149.71192 150.401979 
L 150.253914 150.289675 
L 150.795908 149.791326 
L 151.879897 149.538643 
L 152.421891 147.836538 
L 152.963885 148.317339 
L 153.505879 147.001278 
L 154.047874 148.092731 
L 154.589868 146.49942 
L 155.131862 146.281832 
L 155.673856 146.752104 
L 156.757845 145.467629 
L 157.299839 146.453797 
L 157.841833 144.242815 
L 158.383828 144.737654 
L 158.925822 143.397027 
L 159.467816 144.007679 
L 160.00981 143.618125 
L 160.551805 142.846036 
L 161.093799 143.267176 
L 161.635793 142.596862 
L 162.177787 142.726714 
L 163.261776 140.800001 
L 163.80377 141.937077 
L 164.345764 140.982495 
L 164.887758 141.094798 
L 165.971747 139.947194 
L 167.055735 139.620811 
L 167.59773 137.553718 
L 168.139724 137.002728 
L 168.681718 138.143313 
L 169.223712 137.873082 
L 169.765706 136.767591 
L 170.307701 137.96082 
L 170.849695 136.097278 
L 171.391689 137.430886 
L 171.933683 135.17779 
L 172.475678 135.346246 
L 173.017672 134.886502 
L 173.559666 134.718047 
L 174.10166 135.054958 
L 174.643655 134.581176 
L 175.185649 133.117717 
L 175.727643 133.921391 
L 176.269637 133.022961 
L 176.811632 132.657973 
L 177.353626 131.699881 
L 177.89562 131.180476 
L 178.437614 131.531425 
L 178.979608 130.24695 
L 179.521603 131.699881 
L 180.063597 130.299593 
L 181.147585 128.825605 
L 181.68958 128.79051 
L 182.231574 128.611526 
L 182.773568 127.130519 
L 183.315562 127.249842 
L 183.857557 125.884648 
L 184.399551 127.309503 
L 186.025533 123.993031 
L 186.567528 124.645797 
L 187.109522 124.084278 
L 188.19351 124.375566 
L 188.735505 122.589233 
L 189.277499 122.294435 
L 190.903482 121.929448 
L 191.445476 120.644973 
L 191.98747 120.8029 
L 192.529464 118.665618 
L 193.071458 120.03783 
L 193.613453 118.258516 
L 194.155447 118.395387 
L 194.697441 117.883 
L 195.239435 116.573959 
L 195.78143 116.556411 
L 196.865418 115.370202 
L 197.407412 115.250879 
L 197.949407 113.043407 
L 198.491401 114.138369 
L 199.033395 113.959385 
L 199.575389 112.320451 
L 200.117384 113.001293 
L 200.659378 111.608024 
L 201.201372 111.365869 
L 201.743366 110.906125 
L 202.827355 108.919751 
L 203.369349 108.631972 
L 203.911343 108.7162 
L 204.453337 107.291345 
L 204.995332 108.330156 
L 205.537326 106.91232 
L 206.07932 106.684203 
L 206.621314 106.259554 
L 207.163309 106.227968 
L 208.247297 104.947003 
L 208.789291 105.224253 
L 209.331285 104.518844 
L 209.87328 103.497581 
L 210.415274 104.567977 
L 210.957268 102.560546 
L 211.499262 102.272768 
L 212.041257 102.53247 
L 212.583251 102.104312 
L 213.125245 101.153239 
L 213.667239 100.900555 
L 214.209234 100.525039 
L 214.751228 99.865254 
L 215.293222 100.163561 
L 215.835216 99.724875 
L 216.377211 100.584701 
L 216.919205 99.208979 
L 217.461199 98.510589 
L 218.003193 98.640441 
L 218.545187 98.278963 
L 219.087182 98.405305 
L 219.629176 98.865048 
L 220.17117 97.040111 
L 220.713164 97.875371 
L 221.255159 97.299814 
L 221.797153 97.384042 
L 222.339147 97.040111 
L 222.881141 96.966412 
L 223.423136 96.625991 
L 224.507124 97.155925 
L 225.049118 97.233133 
L 225.591112 152.563827 
L 226.133107 154.564239 
L 226.675101 153.679847 
L 227.217095 153.929021 
L 227.759089 152.904248 
L 228.301084 151.57415 
L 228.843078 151.167048 
L 229.385072 149.324564 
L 229.927066 148.966595 
L 230.469061 149.356149 
L 231.011055 148.324358 
L 231.553049 147.769857 
L 232.095043 148.366472 
L 233.179032 146.632781 
L 233.721026 145.453591 
L 234.26302 145.478157 
L 234.805014 145.846654 
L 235.347009 145.453591 
L 235.889003 144.516556 
L 236.430997 145.699256 
L 237.514986 143.193476 
L 238.05698 144.435837 
L 238.598974 143.16891 
L 239.140968 143.684806 
L 240.224957 142.656524 
L 240.766951 143.081173 
L 241.308945 142.705657 
L 241.850939 141.631751 
L 242.392934 142.312593 
L 242.934928 142.61441 
L 243.476922 142.024815 
L 244.018916 141.203593 
L 244.560911 140.768415 
L 245.102905 141.551033 
L 245.644899 140.199877 
L 246.186893 141.652808 
L 247.270882 140.04546 
L 247.812876 140.003346 
L 248.35487 140.234972 
L 248.896864 140.119159 
L 249.438859 140.133197 
L 249.980853 139.652396 
L 250.522847 139.894551 
L 251.064841 139.424279 
L 251.606836 139.357599 
L 252.14883 139.968251 
L 252.690824 138.939969 
L 253.774813 137.827459 
L 254.316807 138.831174 
L 254.858801 138.213503 
L 255.400795 139.111934 
L 255.942789 138.318788 
L 256.484784 138.841703 
L 257.026778 138.44513 
L 257.568772 137.908177 
L 258.110766 137.578285 
L 258.652761 138.645171 
L 259.194755 138.908383 
L 259.736749 137.283487 
L 260.820738 137.925725 
L 261.362732 137.150126 
L 262.44672 136.904462 
L 262.988715 136.539474 
L 263.530709 137.199259 
L 264.072703 136.978161 
L 264.614697 136.185015 
L 265.156691 135.855123 
L 265.698686 136.504379 
L 266.24068 136.364 
L 266.782674 135.749838 
L 267.324668 135.963917 
L 267.866663 134.823331 
L 268.408657 136.195544 
L 268.950651 136.42717 
L 269.492645 136.174487 
L 270.576634 134.363588 
L 271.118628 134.237246 
L 271.660622 136.332414 
L 272.202616 134.075809 
L 272.744611 134.170565 
L 273.286605 134.619781 
L 273.828599 135.38836 
L 274.370593 135.465569 
L 274.912588 135.377832 
L 275.454582 134.665404 
L 275.996576 134.711028 
L 276.53857 133.686255 
L 277.080565 134.314455 
L 277.622559 133.756445 
L 278.164553 133.759955 
L 279.248542 133.468666 
L 279.790536 132.900128 
L 280.33253 134.033695 
L 280.874524 133.310739 
L 281.416518 131.373498 
L 281.958513 132.324571 
L 282.500507 132.875562 
L 283.042501 132.219286 
L 283.584495 132.285967 
L 284.12649 131.812185 
L 284.668484 131.787618 
L 285.210478 132.822919 
L 285.752472 131.552482 
L 286.294467 130.857602 
L 286.836461 131.629691 
L 287.378455 131.815694 
L 287.920449 130.892697 
L 289.546432 130.152194 
L 290.088426 130.208346 
L 290.63042 129.888982 
L 291.172415 129.127421 
L 291.714409 130.559295 
L 292.256403 130.124118 
L 292.798397 129.397653 
L 293.340392 130.10657 
L 293.882386 129.239725 
L 294.42438 130.17676 
L 294.966374 128.278124 
L 295.508368 128.562393 
L 296.050363 128.639602 
L 296.592357 128.057026 
L 297.134351 127.95876 
L 297.676345 126.793607 
L 298.21834 128.85719 
L 298.760334 127.077877 
L 299.302328 127.513054 
L 299.844322 125.982914 
L 300.386317 127.920155 
L 301.470305 127.295465 
L 302.012299 126.060123 
L 302.554294 126.856778 
L 303.638282 126.505829 
L 304.180276 126.488281 
L 304.72227 125.516151 
L 305.264265 125.049389 
L 305.806259 125.052898 
L 306.348253 124.740553 
L 306.890247 125.66706 
L 307.432242 124.508926 
L 307.974236 124.315904 
L 308.51623 124.905499 
L 309.058224 123.452568 
L 309.600219 125.010784 
L 310.142213 124.842328 
L 310.684207 124.326433 
L 311.768195 122.038242 
L 312.31019 122.698027 
L 312.852184 122.26285 
L 313.394178 122.905087 
L 313.936172 122.915616 
L 314.478167 121.36091 
L 315.020161 121.655707 
L 315.562155 121.336343 
L 316.104149 121.732916 
L 317.188138 120.444932 
L 317.730132 120.922223 
L 318.272126 120.564254 
L 318.814121 120.353685 
L 319.356115 120.557235 
L 319.898109 119.823751 
L 320.440103 119.504387 
L 320.982097 118.865659 
L 321.524092 118.953396 
L 322.066086 118.746336 
L 322.60808 118.377839 
L 323.150074 119.048153 
L 323.692069 118.209383 
L 324.234063 117.630317 
L 324.776057 119.086757 
L 325.318051 118.037418 
L 325.860046 117.233744 
L 326.40204 117.802282 
L 326.944034 117.409219 
L 327.486028 116.342332 
L 328.028022 117.630317 
L 328.570017 116.619582 
L 329.112011 116.314256 
L 329.654005 116.447617 
L 330.195999 115.738699 
L 330.737994 114.359468 
L 331.279988 115.408807 
L 331.821982 115.619376 
L 332.363976 114.169955 
L 332.905971 114.310335 
L 333.447965 114.120822 
L 333.989959 113.145182 
L 335.073947 113.011822 
L 335.615942 112.731062 
L 336.157936 113.973423 
L 336.69993 113.633002 
L 337.241924 112.366075 
L 337.783919 111.650138 
L 338.325913 111.874745 
L 338.867907 111.400964 
L 339.409901 111.639609 
L 339.951896 110.951748 
L 340.49389 110.965786 
L 341.035884 110.379701 
L 341.577878 110.600799 
L 342.119873 109.983128 
L 342.661867 109.13734 
L 343.203861 109.291757 
L 343.745855 110.52008 
L 344.287849 108.891675 
L 344.829844 109.102245 
L 345.913832 107.831807 
L 346.455826 108.64601 
L 346.997821 108.1617 
L 347.539815 107.845845 
L 348.081809 107.375573 
L 348.623803 107.575614 
L 349.165798 105.515541 
L 349.707792 106.21393 
L 350.249786 107.179041 
L 350.79178 105.013683 
L 351.333774 105.420785 
L 351.875769 104.992626 
L 352.417763 105.557655 
L 352.959757 104.553939 
L 353.501751 104.862775 
L 354.58574 103.480034 
L 355.127734 102.367524 
L 355.669728 104.62062 
L 356.211723 103.757284 
L 356.753717 102.146426 
L 357.295711 101.967442 
L 357.837705 102.855344 
L 358.379699 102.023594 
L 358.921694 100.960217 
L 359.463688 101.28309 
L 360.005682 100.440812 
L 360.547676 101.335733 
L 361.089671 99.819631 
L 361.631665 100.542587 
L 362.173659 101.49015 
L 362.715653 99.714346 
L 363.257648 99.802084 
L 363.799642 99.300226 
L 364.341636 97.896428 
L 364.88363 98.85452 
L 365.425625 97.892918 
L 365.967619 98.601836 
L 366.509613 98.149112 
L 367.051607 99.089656 
L 367.593601 101.290109 
L 368.135596 102.658812 
L 369.219584 108.165209 
L 369.761578 108.551254 
L 370.303573 108.252947 
L 370.845567 109.214548 
L 371.387561 109.021526 
L 371.929555 109.028545 
L 372.47155 108.460007 
L 373.013544 108.624953 
L 373.555538 109.663764 
L 374.097532 110.302492 
L 375.181521 108.944317 
L 375.723515 109.807653 
L 376.265509 109.06715 
L 376.807503 109.614631 
L 377.349498 108.582839 
L 377.891492 109.600593 
L 378.433486 110.148074 
L 378.97548 109.41459 
L 379.517475 111.267603 
L 380.059469 110.077884 
L 380.601463 109.888371 
L 381.143457 108.902203 
L 381.685452 109.309305 
L 382.227446 110.330568 
L 382.76944 109.860295 
L 383.311434 110.727141 
L 383.853428 111.186884 
L 384.395423 110.330568 
L 384.937417 111.741385 
L 385.479411 111.169337 
L 386.021405 111.158808 
L 386.5634 110.320039 
L 387.105394 110.986843 
L 387.647388 110.864011 
L 388.189382 111.243036 
L 389.273371 111.018429 
L 389.815365 111.162318 
L 390.357359 110.702574 
L 390.899353 111.365869 
L 391.441348 111.106166 
L 391.983342 111.393945 
L 392.525336 110.93771 
L 393.06733 112.036182 
L 393.609325 111.165827 
L 394.151319 111.615043 
L 394.693313 111.306207 
L 395.235307 111.646628 
L 395.777302 111.264093 
L 396.319296 111.120204 
L 396.86129 111.351831 
L 397.403284 110.818387 
L 397.945278 110.895596 
L 398.487273 111.113185 
L 398.487273 111.113185 
" clip-path="url(#p17970978bd)" style="fill: none; stroke: #1f77b4; stroke-width: 1.5; stroke-linecap: square"/>
   </g>
   <g id="line2d_20">
    <path d="M 73.832727 279.71984 
L 74.374722 253.960149 
L 75.45871 221.707892 
L 76.000704 213.17982 
L 76.542698 208.792952 
L 77.084693 200.686019 
L 78.168681 174.680663 
L 78.710675 172.750441 
L 79.25267 167.100154 
L 79.794664 160.081165 
L 80.336658 162.923856 
L 80.878652 150.816099 
L 81.420647 148.815687 
L 81.962641 144.218249 
L 83.046629 140.568374 
L 83.588623 136.98869 
L 84.130618 130.496124 
L 84.672612 131.092739 
L 85.214606 128.039478 
L 85.7566 120.704634 
L 86.298595 123.37185 
L 86.840589 120.704634 
L 87.382583 116.949475 
L 87.924577 116.317766 
L 88.466572 114.808683 
L 89.008566 112.597701 
L 89.55056 111.053524 
L 90.092554 107.544029 
L 90.634548 107.368554 
L 91.176543 104.210009 
L 91.718537 105.157572 
L 92.260531 103.78887 
L 92.802525 102.104312 
L 93.886514 100.981274 
L 94.428508 100.595229 
L 94.970502 100.03371 
L 95.512497 139.620811 
L 96.054491 140.006855 
L 96.596485 133.51429 
L 97.138479 140.603469 
L 97.680474 133.689765 
L 98.222468 134.882993 
L 98.764462 133.58448 
L 99.306456 124.775648 
L 99.84845 122.108432 
L 100.390445 125.196787 
L 101.474433 120.2484 
L 102.016427 121.757483 
L 102.558422 121.652198 
L 103.100416 119.406121 
L 103.64241 115.124538 
L 104.184404 115.440392 
L 104.726399 117.195139 
L 105.268393 113.264505 
L 105.810387 116.212481 
L 106.352381 110.351625 
L 106.894375 108.631972 
L 107.43637 108.491592 
L 107.978364 106.456086 
L 108.520358 106.070041 
L 109.062352 105.403237 
L 109.604347 108.035358 
L 110.146341 104.560958 
L 110.688335 102.595641 
L 111.230329 99.82314 
L 111.772324 102.946591 
L 112.314318 96.98045 
L 112.856312 103.613395 
L 113.398306 98.770292 
L 114.482295 94.874753 
L 115.024289 95.787222 
L 115.566283 93.400765 
L 116.108277 92.137347 
L 116.650272 91.224878 
L 117.192266 90.663359 
L 117.73426 92.698866 
L 118.276254 88.101428 
L 118.818249 88.241808 
L 119.360243 89.013897 
L 119.902237 87.680289 
L 120.986226 82.240572 
L 121.52822 82.486237 
L 122.070214 83.57418 
L 122.612208 79.994495 
L 123.154202 80.134875 
L 123.696197 79.713736 
L 124.238191 77.397469 
L 124.780185 79.257501 
L 125.322179 75.537437 
L 125.864174 74.765348 
L 126.406168 75.221582 
L 126.948162 75.502342 
L 127.490156 73.080791 
L 128.032151 73.7125 
L 128.574145 74.063449 
L 129.116139 72.273607 
L 129.658133 71.992847 
L 130.200127 70.939999 
L 130.742122 70.659239 
L 131.284116 68.799207 
L 131.82611 68.202593 
L 132.368104 68.518448 
L 132.910099 66.658415 
L 133.452093 67.641074 
L 133.994087 67.886738 
L 134.536081 67.079555 
L 135.078076 66.588225 
L 135.62007 66.272371 
L 136.704058 66.237276 
L 137.246053 67.04446 
L 137.788047 65.605567 
L 138.330041 66.026706 
L 138.872035 110.351625 
L 139.956024 116.247576 
L 140.498018 110.807859 
L 141.040012 109.790106 
L 141.582006 109.404061 
L 142.124001 107.544029 
L 142.665995 106.77194 
L 143.207989 106.947415 
L 143.749983 107.684409 
L 144.291978 110.562194 
L 144.833972 103.5783 
L 145.375966 106.070041 
L 145.91796 102.279787 
L 146.459954 100.068805 
L 147.001949 107.438744 
L 147.543943 99.542381 
L 148.085937 106.105136 
L 148.627931 102.279787 
L 149.71192 102.665831 
L 150.253914 104.490768 
L 150.795908 100.595229 
L 151.337903 101.928837 
L 151.879897 96.804975 
L 152.421891 94.874753 
L 152.963885 97.541969 
L 153.505879 97.612159 
L 154.047874 100.17409 
L 154.589868 99.788046 
L 155.131862 98.454438 
L 155.673856 97.577064 
L 156.215851 96.243456 
L 156.757845 97.366494 
L 157.299839 94.664183 
L 157.841833 94.980038 
L 158.383828 97.857823 
L 158.925822 96.278551 
L 159.467816 95.260797 
L 160.00981 92.944531 
L 160.551805 98.875577 
L 161.093799 93.681525 
L 161.635793 92.418107 
L 162.177787 96.418931 
L 162.719781 93.50605 
L 163.261776 91.786398 
L 163.80377 94.313234 
L 164.345764 91.610923 
L 164.887758 94.453614 
L 165.429753 94.839658 
L 165.971747 91.154689 
L 166.513741 91.400353 
L 167.59773 87.610099 
L 168.139724 94.839658 
L 168.681718 90.733549 
L 169.223712 91.295068 
L 169.765706 87.11877 
L 170.307701 89.154277 
L 170.849695 87.083675 
L 171.391689 88.347093 
L 171.933683 88.347093 
L 172.475678 85.644782 
L 173.017672 86.943295 
L 174.10166 83.258325 
L 174.643655 83.890034 
L 175.185649 82.907376 
L 175.727643 83.047756 
L 176.269637 84.240984 
L 176.811632 84.030414 
L 177.353626 82.416047 
L 177.89562 81.222818 
L 178.437614 85.118358 
L 178.979608 81.714148 
L 179.521603 80.485825 
L 180.063597 82.661711 
L 180.605591 80.661299 
L 181.147585 77.783514 
L 181.68958 80.275255 
L 182.773568 78.064273 
L 183.315562 80.31035 
L 183.857557 76.83595 
L 184.399551 76.800855 
L 184.941545 75.993671 
L 185.483539 76.134051 
L 186.025533 78.134463 
L 186.567528 76.97633 
L 187.109522 74.835538 
L 187.651516 74.870633 
L 188.19351 74.028354 
L 188.735505 75.256677 
L 189.277499 71.817373 
L 190.361487 74.098544 
L 190.903482 71.080379 
L 191.445476 71.922657 
L 193.071458 70.273195 
L 194.155447 69.88715 
L 194.697441 68.729017 
L 195.239435 68.974682 
L 195.78143 68.448258 
L 196.323424 71.045284 
L 196.865418 67.641074 
L 197.407412 66.7637 
L 197.949407 67.676169 
L 198.491401 67.781454 
L 199.575389 64.798383 
L 200.117384 63.956104 
L 200.659378 63.42968 
L 201.201372 64.236864 
L 201.743366 64.728193 
L 202.28536 63.605155 
L 202.827355 61.674933 
L 203.369349 61.499458 
L 203.911343 63.71044 
L 204.453337 62.060977 
L 204.995332 60.902844 
L 205.537326 60.692274 
L 206.07932 61.113414 
L 206.621314 61.183604 
L 207.163309 60.937939 
L 207.705303 59.253381 
L 208.247297 58.551483 
L 208.789291 59.393761 
L 209.331285 58.200533 
L 209.87328 58.551483 
L 210.415274 58.656767 
L 210.957268 59.463951 
L 211.499262 57.779394 
L 212.041257 58.376008 
L 212.583251 57.463539 
L 213.125245 58.165438 
L 213.667239 56.726545 
L 214.209234 56.937115 
L 214.751228 55.849172 
L 215.293222 55.919361 
L 215.835216 54.515564 
L 216.377211 55.533317 
L 216.919205 55.006893 
L 217.461199 55.217463 
L 218.003193 54.269899 
L 218.545187 54.234804 
L 219.087182 55.357842 
L 220.17117 54.234804 
L 220.713164 53.77857 
L 221.255159 54.445374 
L 221.797153 53.954044 
L 222.339147 53.84876 
L 222.881141 53.954044 
L 223.423136 53.63819 
L 223.96513 53.568 
L 224.507124 53.883855 
L 225.049118 53.70838 
L 225.591112 111.334283 
L 226.133107 106.70175 
L 226.675101 108.526687 
L 227.217095 118.142703 
L 227.759089 105.859471 
L 228.301084 100.209185 
L 228.843078 102.525451 
L 229.385072 102.700926 
L 229.927066 105.438332 
L 230.469061 102.771116 
L 231.011055 103.43792 
L 231.553049 103.71868 
L 232.095043 99.82314 
L 232.637037 94.944943 
L 233.179032 100.805799 
L 233.721026 101.648078 
L 234.26302 99.89333 
L 234.805014 102.034122 
L 235.347009 95.611747 
L 235.889003 94.699278 
L 236.430997 95.120418 
L 236.972991 94.067569 
L 237.514986 99.928425 
L 238.05698 97.191019 
L 238.598974 95.611747 
L 239.140968 97.612159 
L 239.682963 96.945355 
L 240.224957 102.034122 
L 240.766951 96.664595 
L 241.308945 98.349153 
L 241.850939 93.400765 
L 242.392934 95.787222 
L 242.934928 96.489121 
L 243.476922 91.786398 
L 244.018916 92.593581 
L 244.560911 99.156337 
L 245.102905 94.313234 
L 245.644899 90.979214 
L 246.186893 94.348329 
L 246.728888 96.489121 
L 247.270882 90.45279 
L 247.812876 93.962284 
L 248.35487 95.611747 
L 248.896864 89.435036 
L 249.438859 85.048168 
L 249.980853 92.207537 
L 250.522847 90.3826 
L 251.064841 89.89127 
L 251.606836 90.3826 
L 252.14883 91.996967 
L 252.690824 88.978802 
L 253.232818 92.032062 
L 253.774813 88.136523 
L 254.316807 93.892094 
L 254.858801 88.522567 
L 255.400795 91.259973 
L 255.942789 98.243868 
L 256.484784 90.593169 
L 257.026778 91.996967 
L 257.568772 88.873517 
L 258.110766 96.489121 
L 258.652761 90.768644 
L 259.194755 91.470543 
L 259.736749 89.575416 
L 260.278743 95.120418 
L 260.820738 89.750891 
L 261.362732 90.487885 
L 261.904726 89.259561 
L 262.44672 90.347505 
L 262.988715 86.346681 
L 263.530709 88.803327 
L 264.072703 89.189371 
L 264.614697 90.10184 
L 265.156691 91.681113 
L 265.698686 88.943707 
L 266.24068 89.119182 
L 266.782674 89.821081 
L 267.324668 85.925541 
L 267.866663 94.593993 
L 268.408657 88.592757 
L 268.950651 85.434212 
L 269.492645 89.364846 
L 270.03464 87.645194 
L 270.576634 89.048992 
L 271.118628 89.435036 
L 271.660622 87.294244 
L 272.202616 92.172442 
L 272.744611 86.206301 
L 273.286605 87.469719 
L 273.828599 84.521743 
L 274.370593 86.83801 
L 274.912588 87.013485 
L 275.454582 87.575004 
L 275.996576 87.785574 
L 276.53857 84.872693 
L 277.080565 88.382188 
L 277.622559 86.101016 
L 278.164553 86.69763 
L 278.706547 86.62744 
L 279.248542 87.399529 
L 279.790536 86.76782 
L 280.33253 87.04858 
L 280.874524 83.258325 
L 281.416518 84.732313 
L 281.958513 91.505638 
L 283.042501 83.36361 
L 283.584495 80.766584 
L 284.12649 81.293008 
L 284.668484 80.626204 
L 285.210478 86.662535 
L 285.752472 83.398705 
L 286.294467 83.468895 
L 286.836461 85.469307 
L 287.378455 81.047344 
L 287.920449 81.012249 
L 289.004438 85.293832 
L 289.546432 82.240572 
L 290.088426 85.785162 
L 290.63042 84.486649 
L 291.172415 80.064685 
L 291.714409 82.556426 
L 292.256403 81.643958 
L 293.340392 82.135287 
L 293.882386 79.082027 
L 294.42438 81.573768 
L 294.966374 79.468071 
L 295.508368 80.801679 
L 296.050363 81.608863 
L 296.592357 84.486649 
L 297.134351 79.046932 
L 297.676345 82.556426 
L 298.21834 82.661711 
L 298.760334 81.187723 
L 299.302328 78.064273 
L 299.844322 80.345445 
L 300.386317 79.187312 
L 300.928311 77.608039 
L 301.470305 79.538261 
L 302.012299 77.783514 
L 302.554294 80.064685 
L 303.096288 76.449906 
L 303.638282 77.432564 
L 304.180276 81.328103 
L 304.72227 78.099368 
L 305.264265 78.941647 
L 305.806259 76.730665 
L 306.348253 79.046932 
L 306.890247 75.467247 
L 307.432242 83.71456 
L 307.974236 77.608039 
L 308.51623 74.238924 
L 309.600219 80.02959 
L 310.142213 75.923481 
L 310.684207 77.853704 
L 311.226201 76.76576 
L 311.768195 75.291772 
L 312.31019 74.905728 
L 312.852184 74.975918 
L 313.394178 76.660475 
L 313.936172 75.291772 
L 314.478167 74.309114 
L 315.020161 78.239748 
L 315.562155 74.870633 
L 316.104149 74.800443 
L 316.646144 75.818197 
L 317.188138 75.853292 
L 317.730132 73.29136 
L 318.272126 74.519684 
L 319.356115 70.37848 
L 319.898109 73.50193 
L 320.440103 71.922657 
L 320.982097 70.694334 
L 321.524092 75.502342 
L 322.066086 71.115474 
L 322.60808 72.098132 
L 323.150074 71.852468 
L 323.692069 69.922245 
L 324.234063 73.43174 
L 324.776057 71.010189 
L 325.318051 71.992847 
L 325.860046 71.115474 
L 326.40204 71.185664 
L 326.944034 70.413575 
L 327.486028 68.729017 
L 328.028022 71.326043 
L 328.570017 69.536201 
L 329.112011 66.658415 
L 329.654005 68.834302 
L 330.195999 71.992847 
L 330.737994 70.203005 
L 331.279988 67.500694 
L 331.821982 68.904492 
L 332.363976 69.185252 
L 332.905971 70.02753 
L 333.447965 68.974682 
L 333.989959 68.939587 
L 334.531953 67.18484 
L 335.073947 68.378068 
L 335.615942 65.430092 
L 336.157936 66.83389 
L 336.69993 66.90408 
L 337.241924 63.71044 
L 337.783919 65.710852 
L 338.325913 65.114238 
L 338.867907 65.114238 
L 339.409901 64.903668 
L 339.951896 65.289712 
L 340.49389 64.517624 
L 341.035884 65.184428 
L 341.577878 65.465187 
L 342.119873 64.131579 
L 342.661867 65.500282 
L 343.203861 64.587813 
L 343.745855 64.833478 
L 344.287849 61.780218 
L 344.829844 63.64025 
L 345.371838 63.991199 
L 345.913832 60.973034 
L 346.455826 64.131579 
L 346.997821 63.745535 
L 347.539815 61.815313 
L 348.081809 62.411927 
L 348.623803 60.657179 
L 349.165798 60.657179 
L 349.707792 60.30623 
L 350.249786 60.30623 
L 350.79178 60.832654 
L 351.333774 60.973034 
L 352.417763 60.060565 
L 352.959757 58.762052 
L 353.501751 60.09566 
L 354.043746 58.270723 
L 354.58574 59.183192 
L 355.127734 61.534553 
L 355.669728 58.516388 
L 356.211723 58.551483 
L 356.753717 58.340913 
L 357.295711 57.077495 
L 357.837705 57.358254 
L 358.379699 57.288064 
L 358.921694 57.884679 
L 359.463688 57.18278 
L 360.005682 56.270311 
L 360.547676 55.743887 
L 361.089671 56.97221 
L 361.631665 55.568412 
L 362.173659 56.83183 
L 362.715653 54.761228 
L 363.257648 54.936703 
L 363.799642 55.568412 
L 364.341636 54.971798 
L 364.88363 54.831418 
L 365.425625 55.954456 
L 365.967619 55.533317 
L 366.509613 53.84876 
L 367.051607 56.726545 
L 367.593601 57.463539 
L 368.135596 58.902432 
L 368.67759 61.394173 
L 369.219584 64.517624 
L 369.761578 61.780218 
L 370.845567 66.342561 
L 371.387561 65.008953 
L 371.929555 65.640662 
L 372.47155 64.166674 
L 373.013544 62.025882 
L 373.555538 66.026706 
L 374.097532 63.043636 
L 374.639526 61.429268 
L 375.181521 65.079143 
L 375.723515 64.307054 
L 376.265509 62.306642 
L 376.807503 64.693098 
L 377.349498 63.605155 
L 377.891492 63.324395 
L 378.433486 63.991199 
L 378.97548 64.903668 
L 379.517475 63.885914 
L 380.059469 61.429268 
L 380.601463 61.745123 
L 381.143457 65.359902 
L 381.685452 66.342561 
L 382.227446 64.973858 
L 382.76944 62.341737 
L 383.311434 64.447434 
L 383.853428 64.868573 
L 384.395423 64.973858 
L 384.937417 63.008541 
L 385.479411 66.096896 
L 386.021405 64.763288 
L 386.5634 65.465187 
L 387.105394 63.254205 
L 387.647388 61.955692 
L 388.189382 65.745947 
L 388.731377 65.219522 
L 389.273371 63.815725 
L 389.815365 63.78063 
L 390.357359 64.482529 
L 390.899353 62.657591 
L 391.441348 66.307466 
L 391.983342 61.955692 
L 392.525336 65.991611 
L 393.06733 64.728193 
L 393.609325 66.237276 
L 394.151319 64.342149 
L 394.693313 64.096484 
L 395.235307 65.816137 
L 395.777302 65.781042 
L 396.319296 63.148921 
L 396.86129 65.675757 
L 397.403284 63.254205 
L 397.945278 68.764112 
L 398.487273 66.83389 
L 398.487273 66.83389 
" clip-path="url(#p17970978bd)" style="fill: none; stroke: #ff7f0e; stroke-width: 1.5; stroke-linecap: square"/>
   </g>
   <g id="line2d_21">
    <path d="M 73.832727 290.157428 
L 74.374722 275.514413 
L 74.916716 268.56807 
L 75.45871 257.870077 
L 76.000704 258.112232 
L 76.542698 254.264071 
L 77.084693 257.652488 
L 77.626687 250.342913 
L 78.168681 233.569985 
L 78.710675 238.120395 
L 79.25267 226.647857 
L 79.794664 229.769904 
L 80.336658 228.850416 
L 81.420647 217.886053 
L 81.962641 218.612167 
L 82.504635 217.039212 
L 83.046629 210.697906 
L 83.588623 218.055561 
L 84.130618 209.802282 
L 84.672612 211.69004 
L 85.214606 208.325838 
L 85.7566 202.10561 
L 86.298595 203.944936 
L 86.840589 204.792128 
L 87.382583 204.646835 
L 87.924577 200.556519 
L 88.466572 203.38833 
L 89.008566 197.748923 
L 89.55056 197.143886 
L 90.092554 197.410257 
L 90.634548 196.345125 
L 91.176543 189.713233 
L 91.718537 194.650741 
L 92.802525 189.568291 
L 93.34452 191.480263 
L 93.886514 190.27019 
L 94.428508 189.83431 
L 94.970502 189.059765 
L 95.512497 214.788222 
L 96.054491 213.408639 
L 96.596485 207.13998 
L 97.138479 213.72309 
L 97.680474 207.381784 
L 98.222468 220.354982 
L 98.764462 209.802282 
L 99.306456 202.032963 
L 99.84845 209.197246 
L 100.390445 202.032963 
L 100.932439 206.38965 
L 101.474433 209.100384 
L 102.016427 202.662215 
L 102.558422 202.395845 
L 103.100416 205.227656 
L 103.64241 204.187091 
L 104.184404 202.589569 
L 104.726399 203.703132 
L 105.268393 198.910566 
L 105.810387 200.967831 
L 106.352381 194.166782 
L 106.894375 193.31959 
L 107.43637 196.708358 
L 107.978364 188.261355 
L 108.520358 192.012654 
L 109.062352 187.341516 
L 109.604347 198.644546 
L 110.146341 192.83563 
L 110.688335 191.33497 
L 111.230329 187.244654 
L 111.772324 189.83431 
L 112.314318 188.76953 
L 112.856312 196.441987 
L 113.398306 186.615402 
L 113.940301 187.777044 
L 114.482295 189.616722 
L 115.024289 185.308466 
L 115.566283 182.476655 
L 116.108277 182.258715 
L 116.650272 178.555496 
L 117.192266 180.782271 
L 117.73426 180.153018 
L 118.276254 177.006756 
L 118.818249 178.410554 
L 119.360243 176.353288 
L 119.902237 175.554527 
L 120.444231 176.232211 
L 120.986226 178.531281 
L 121.52822 173.71485 
L 122.070214 175.554527 
L 122.612208 171.19784 
L 123.154202 172.43213 
L 123.696197 169.672965 
L 124.238191 169.745612 
L 124.780185 172.891874 
L 125.864174 164.421006 
L 126.406168 166.550568 
L 127.490156 162.460251 
L 128.032151 165.534218 
L 128.574145 165.026043 
L 129.116139 164.856534 
L 129.658133 162.242663 
L 130.200127 162.62976 
L 130.742122 159.459282 
L 131.284116 161.734137 
L 131.82611 162.896131 
L 132.368104 162.750838 
L 132.910099 159.507714 
L 133.452093 159.435067 
L 133.994087 157.86176 
L 134.536081 160.088535 
L 135.078076 160.281908 
L 135.62007 157.571174 
L 136.162064 158.321504 
L 136.704058 157.425881 
L 137.246053 156.772413 
L 137.788047 157.619605 
L 138.330041 157.402017 
L 138.872035 191.81893 
L 139.414029 197.410257 
L 139.956024 193.8039 
L 140.498018 194.796034 
L 141.040012 195.30456 
L 141.582006 200.532303 
L 142.124001 199.975697 
L 142.665995 189.737448 
L 143.207989 191.795065 
L 143.749983 187.631751 
L 144.291978 198.571899 
L 144.833972 191.093166 
L 145.375966 191.698203 
L 145.91796 188.0192 
L 146.459954 188.261355 
L 147.001949 188.76953 
L 147.543943 186.954068 
L 148.085937 191.383401 
L 148.627931 185.090526 
L 149.169926 191.189677 
L 149.71192 190.80258 
L 150.253914 192.666122 
L 150.795908 187.099361 
L 151.337903 184.776076 
L 151.879897 183.614082 
L 152.421891 188.237139 
L 152.963885 184.921018 
L 153.505879 187.777044 
L 154.047874 188.406297 
L 154.589868 187.147792 
L 155.131862 185.332681 
L 155.673856 186.688048 
L 156.215851 183.928884 
L 156.757845 185.598701 
L 157.299839 181.338876 
L 157.841833 185.574486 
L 158.383828 184.219119 
L 158.925822 182.28293 
L 159.467816 183.759375 
L 160.00981 172.311052 
L 160.551805 189.979603 
L 161.093799 179.886647 
L 161.635793 184.170688 
L 162.177787 184.896802 
L 162.719781 188.914823 
L 163.261776 180.346742 
L 163.80377 177.68444 
L 164.345764 177.175914 
L 164.887758 178.386339 
L 165.429753 187.438378 
L 165.971747 174.489396 
L 166.513741 182.210284 
L 167.055735 180.612762 
L 167.59773 178.628143 
L 168.139724 181.823187 
L 168.681718 176.449799 
L 169.223712 184.921018 
L 169.765706 170.253786 
L 170.307701 175.409234 
L 170.849695 172.189975 
L 171.391689 173.666419 
L 171.933683 168.801557 
L 172.475678 169.745612 
L 173.017672 169.890905 
L 173.559666 176.232211 
L 174.10166 173.061382 
L 174.643655 168.89842 
L 175.185649 173.158244 
L 175.727643 173.255106 
L 176.269637 169.285868 
L 176.811632 173.497261 
L 177.353626 169.261652 
L 177.89562 171.125194 
L 178.437614 174.319887 
L 178.979608 174.223376 
L 179.521603 169.866689 
L 180.063597 167.107524 
L 180.605591 171.125194 
L 181.147585 165.582649 
L 181.68958 167.639915 
L 182.231574 179.088237 
L 182.773568 164.033558 
L 183.315562 170.592804 
L 183.857557 165.727942 
L 184.399551 165.558433 
L 184.941545 165.8971 
L 185.483539 164.735457 
L 186.025533 158.587875 
L 186.567528 165.8971 
L 187.109522 163.549599 
L 187.651516 162.460251 
L 188.19351 166.066608 
L 188.735505 167.88207 
L 189.277499 164.106204 
L 190.361487 159.676871 
L 190.903482 169.261652 
L 191.445476 157.813329 
L 191.98747 159.652656 
L 192.529464 158.515228 
L 193.613453 155.513909 
L 194.155447 158.902326 
L 194.697441 155.683417 
L 195.239435 157.910192 
L 195.78143 154.134326 
L 196.323424 159.313989 
L 196.865418 152.996899 
L 197.407412 157.062999 
L 197.949407 158.0797 
L 198.491401 157.062999 
L 199.033395 155.07838 
L 199.575389 156.820844 
L 200.117384 152.367646 
L 200.659378 150.915418 
L 201.201372 150.358812 
L 201.743366 150.988064 
L 202.28536 149.801855 
L 202.827355 147.212199 
L 203.369349 149.632697 
L 203.911343 150.527969 
L 204.453337 149.704993 
L 204.995332 149.317896 
L 205.537326 146.800886 
L 206.07932 147.478569 
L 206.621314 146.147418 
L 207.163309 148.615997 
L 207.705303 147.551216 
L 208.247297 150.383027 
L 208.789291 146.413438 
L 209.331285 144.47725 
L 209.87328 146.486084 
L 210.415274 143.267176 
L 210.957268 143.847997 
L 211.499262 143.339822 
L 212.041257 144.089801 
L 212.583251 141.330637 
L 213.125245 144.356172 
L 213.667239 142.75865 
L 214.209234 145.00964 
L 214.751228 143.557411 
L 215.293222 142.49263 
L 215.835216 144.864347 
L 216.377211 143.315607 
L 216.919205 140.45958 
L 217.461199 143.460549 
L 218.003193 142.97659 
L 218.545187 141.379068 
L 219.629176 142.831296 
L 220.17117 140.943539 
L 220.713164 142.202044 
L 221.255159 141.863378 
L 221.797153 142.202044 
L 222.881141 140.919324 
L 223.423136 141.47593 
L 223.96513 140.99197 
L 224.507124 141.451714 
L 225.049118 141.088832 
L 225.591112 194.917112 
L 226.133107 195.812735 
L 226.675101 192.012654 
L 227.217095 202.468491 
L 227.759089 186.881772 
L 228.301084 184.53392 
L 228.843078 188.963254 
L 229.385072 180.540466 
L 229.927066 183.807806 
L 230.469061 184.558136 
L 231.011055 182.258715 
L 231.553049 190.149112 
L 232.095043 187.583671 
L 232.637037 179.838567 
L 233.179032 185.719779 
L 233.721026 183.856237 
L 234.26302 186.712264 
L 235.347009 174.029652 
L 235.889003 180.854917 
L 236.430997 180.540466 
L 236.972991 184.315981 
L 237.514986 180.104587 
L 238.05698 178.48285 
L 238.598974 173.18246 
L 239.140968 181.532601 
L 239.682963 184.630782 
L 240.224957 194.045704 
L 240.766951 185.356897 
L 241.308945 187.002499 
L 241.850939 181.484169 
L 242.392934 179.765921 
L 242.934928 179.23318 
L 243.476922 178.168399 
L 244.018916 178.676574 
L 244.560911 180.903348 
L 245.102905 177.611793 
L 245.644899 177.272776 
L 246.186893 174.828413 
L 246.728888 178.96716 
L 247.270882 172.165759 
L 247.812876 180.758055 
L 248.35487 191.431832 
L 248.896864 179.088237 
L 249.438859 170.156924 
L 249.980853 179.862783 
L 250.522847 172.407914 
L 251.064841 173.908574 
L 251.606836 178.725005 
L 252.14883 180.903348 
L 252.690824 181.193934 
L 253.232818 189.568291 
L 253.774813 173.521477 
L 254.316807 184.654998 
L 254.858801 181.605247 
L 255.400795 173.085598 
L 255.942789 175.43345 
L 256.484784 186.03458 
L 257.026778 176.909894 
L 257.568772 177.99889 
L 258.110766 182.646163 
L 258.652761 173.835928 
L 259.194755 178.241045 
L 259.736749 179.257395 
L 260.278743 178.846082 
L 260.820738 178.918729 
L 261.362732 172.504776 
L 261.904726 179.572197 
L 262.44672 182.428224 
L 262.988715 173.884359 
L 263.530709 174.102298 
L 264.072703 168.293383 
L 264.614697 179.644843 
L 265.156691 169.890905 
L 265.698686 176.570877 
L 266.24068 172.504776 
L 266.782674 184.388627 
L 267.324668 178.047321 
L 267.866663 190.560425 
L 268.408657 180.951779 
L 268.950651 175.796331 
L 269.492645 172.601638 
L 270.03464 175.554527 
L 270.576634 173.376184 
L 271.118628 172.504776 
L 271.660622 172.722716 
L 272.202616 179.862783 
L 272.744611 169.140575 
L 273.286605 178.458985 
L 273.828599 171.536507 
L 274.370593 169.721396 
L 274.912588 175.893193 
L 275.454582 175.142863 
L 275.996576 168.559753 
L 276.53857 168.002796 
L 277.080565 177.563362 
L 278.164553 168.874204 
L 278.706547 172.069248 
L 279.248542 176.982541 
L 279.790536 185.260035 
L 280.33253 174.126514 
L 280.874524 168.366029 
L 281.416518 172.456345 
L 281.958513 183.202769 
L 282.500507 174.634689 
L 283.042501 167.954365 
L 283.584495 176.958325 
L 284.12649 168.874204 
L 284.668484 166.332979 
L 285.210478 176.764601 
L 285.752472 170.108493 
L 286.294467 175.167079 
L 286.836461 171.923955 
L 287.378455 167.059093 
L 287.920449 172.093464 
L 288.462443 166.429841 
L 289.004438 171.052547 
L 289.546432 165.510002 
L 290.088426 173.400399 
L 290.63042 169.672965 
L 291.172415 166.841154 
L 291.714409 173.473046 
L 292.256403 167.954365 
L 292.798397 163.670676 
L 293.340392 178.192614 
L 293.882386 165.074474 
L 294.42438 172.165759 
L 294.966374 165.727942 
L 295.508368 167.059093 
L 296.050363 178.168399 
L 296.592357 170.979901 
L 297.134351 165.993962 
L 297.676345 163.694892 
L 298.21834 168.777342 
L 298.760334 169.818258 
L 299.302328 162.775053 
L 299.844322 166.865369 
L 300.386317 160.306124 
L 300.928311 169.067928 
L 301.470305 170.834608 
L 302.012299 158.829679 
L 302.554294 162.871915 
L 303.096288 168.293383 
L 303.638282 163.646461 
L 304.180276 169.697181 
L 304.72227 166.139255 
L 305.264265 166.502487 
L 305.806259 163.622245 
L 306.890247 164.638595 
L 307.432242 178.289476 
L 307.974236 162.218447 
L 308.51623 162.436036 
L 309.058224 160.548279 
L 309.600219 173.061382 
L 310.684207 158.902326 
L 311.226201 168.317598 
L 311.768195 163.767187 
L 312.31019 163.91248 
L 312.852184 159.459282 
L 313.394178 167.155955 
L 313.936172 162.09737 
L 314.478167 160.451417 
L 315.020161 168.269167 
L 315.562155 163.719107 
L 316.104149 165.776373 
L 316.646144 162.508682 
L 317.188138 160.790434 
L 317.730132 162.871915 
L 318.272126 162.387605 
L 318.814121 162.8477 
L 319.356115 155.852926 
L 319.898109 166.744292 
L 320.440103 158.055485 
L 320.982097 160.185397 
L 321.524092 159.725302 
L 322.066086 161.250178 
L 322.60808 154.54599 
L 323.150074 163.307443 
L 323.692069 158.757384 
L 324.234063 159.749518 
L 324.776057 161.516548 
L 325.318051 157.425881 
L 325.860046 162.750838 
L 326.40204 162.436036 
L 326.944034 158.466797 
L 327.486028 163.259012 
L 328.028022 155.659202 
L 328.570017 158.805815 
L 329.654005 153.844091 
L 330.195999 160.209612 
L 330.737994 159.313989 
L 331.279988 156.482178 
L 331.821982 161.274393 
L 332.363976 150.721693 
L 332.905971 158.103916 
L 333.447965 154.231188 
L 333.989959 153.771444 
L 334.531953 155.877141 
L 335.073947 157.184077 
L 335.615942 152.440293 
L 336.157936 154.449128 
L 336.69993 153.601936 
L 337.241924 149.29368 
L 337.783919 154.376481 
L 338.325913 151.931767 
L 338.867907 150.455323 
L 339.409901 152.391862 
L 339.951896 160.766218 
L 340.49389 154.449128 
L 341.035884 150.842771 
L 341.577878 151.01228 
L 342.119873 154.957303 
L 342.661867 151.157222 
L 343.203861 155.489693 
L 343.745855 150.624831 
L 344.287849 148.785505 
L 344.829844 151.931767 
L 345.371838 153.456643 
L 345.913832 153.04533 
L 346.455826 156.869275 
L 346.997821 151.205653 
L 347.539815 154.981518 
L 348.081809 150.697478 
L 348.623803 148.494919 
L 349.165798 154.521774 
L 349.707792 152.948468 
L 350.249786 149.82607 
L 350.79178 151.714179 
L 351.333774 150.866987 
L 351.875769 146.219714 
L 352.959757 149.632697 
L 354.043746 144.574112 
L 354.58574 152.900037 
L 355.127734 154.739363 
L 355.669728 147.599296 
L 356.211723 148.591781 
L 356.753717 148.979229 
L 357.295711 142.177829 
L 357.837705 147.187983 
L 358.379699 149.245249 
L 359.463688 142.032535 
L 360.547676 146.534515 
L 361.631665 143.170314 
L 362.173659 146.413498 
L 362.715653 143.94475 
L 363.257648 143.751123 
L 363.799642 142.492546 
L 364.341636 142.008477 
L 364.88363 140.048001 
L 365.967619 144.235191 
L 366.509613 142.081088 
L 367.051607 144.574039 
L 368.135596 145.711599 
L 369.219584 151.399401 
L 369.761578 153.190454 
L 370.303573 149.874586 
L 370.845567 150.649095 
L 371.387561 153.311471 
L 371.929555 153.601912 
L 372.47155 149.632552 
L 373.555538 156.893576 
L 374.097532 149.9714 
L 374.639526 149.947196 
L 375.181521 152.415944 
L 375.723515 150.334451 
L 376.265509 150.165027 
L 376.807503 151.375198 
L 377.349498 157.861712 
L 377.891492 156.240083 
L 378.433486 150.189231 
L 378.97548 157.595475 
L 379.517475 151.665639 
L 380.059469 152.657979 
L 380.601463 155.102523 
L 381.143457 155.368761 
L 381.685452 157.377644 
L 382.227446 157.014593 
L 382.76944 153.577708 
L 383.311434 153.626115 
L 383.853428 157.595475 
L 384.395423 151.907673 
L 384.937417 149.075874 
L 385.479411 160.548291 
L 386.021405 152.222317 
L 386.5634 150.915333 
L 387.105394 153.601912 
L 387.647388 148.519195 
L 388.189382 154.739472 
L 388.731377 153.456691 
L 389.273371 158.20056 
L 389.815365 153.214657 
L 390.357359 157.087203 
L 390.899353 154.812082 
L 391.441348 155.731812 
L 391.983342 154.739472 
L 392.525336 152.657979 
L 393.06733 151.835063 
L 393.609325 154.110183 
L 394.151319 154.642658 
L 394.693313 152.972623 
L 395.235307 155.683405 
L 395.777302 157.28083 
L 396.319296 155.804422 
L 396.86129 155.368761 
L 397.403284 151.714045 
L 397.945278 159.822188 
L 398.487273 155.22354 
L 398.487273 155.22354 
" clip-path="url(#p17970978bd)" style="fill: none; stroke: #2ca02c; stroke-width: 1.5; stroke-linecap: square"/>
   </g>
   <g id="line2d_22">
    <path d="M 367.051607 55.533317 
L 367.593601 57.358254 
L 368.67759 62.306642 
L 369.219584 63.148921 
L 369.761578 64.412339 
L 370.303573 61.850408 
L 370.845567 62.657591 
L 371.387561 61.008129 
L 371.929555 58.516388 
L 372.47155 60.937939 
L 373.013544 62.166262 
L 373.555538 63.815725 
L 374.097532 61.253793 
L 374.639526 64.236864 
L 375.181521 60.37642 
L 375.723515 60.5168 
L 376.807503 62.657591 
L 377.349498 62.587401 
L 377.891492 61.253793 
L 378.433486 63.49987 
L 378.97548 59.499046 
L 379.517475 59.604331 
M 380.601463 63.605155 
L 381.143457 61.815313 
L 381.685452 63.2893 
L 382.227446 63.254205 
L 382.76944 62.376832 
L 383.311434 62.762876 
L 383.853428 62.201357 
L 384.395423 64.026294 
L 384.937417 61.043224 
L 385.479411 62.903256 
L 386.021405 61.639838 
L 386.5634 62.727781 
L 387.105394 62.025882 
L 387.647388 64.201769 
L 388.189382 61.359078 
L 388.731377 65.675757 
L 389.273371 64.377244 
L 389.815365 64.131579 
L 390.357359 65.359902 
L 391.441348 61.710028 
L 391.983342 62.692686 
L 392.525336 60.692274 
L 393.06733 61.078319 
L 393.609325 62.903256 
L 394.151319 61.850408 
L 394.693313 67.18484 
L 395.235307 65.149333 
L 395.777302 61.955692 
L 396.319296 67.360314 
L 396.86129 66.202181 
L 397.403284 66.131991 
L 397.945278 61.464363 
L 398.487273 61.850408 
L 398.487273 61.850408 
" clip-path="url(#p17970978bd)" style="fill: none; stroke: #d62728; stroke-width: 1.5; stroke-linecap: square"/>
   </g>
   <g id="line2d_23">
    <path d="M 367.051607 142.323122 
L 367.593601 145.058107 
L 368.135596 148.543399 
L 368.67759 153.384081 
L 369.219584 148.204551 
L 369.761578 154.182793 
L 370.303573 147.623669 
L 370.845567 147.212211 
L 371.387561 150.503875 
L 372.47155 145.590582 
L 373.013544 153.069437 
L 373.555538 149.075874 
L 374.097532 147.647872 
L 374.639526 155.852829 
L 375.181521 150.165027 
L 375.723515 149.245297 
L 376.265509 152.536961 
L 376.807503 151.95608 
L 377.349498 149.172687 
L 377.891492 148.519195 
L 378.433486 150.04401 
L 378.97548 146.123057 
L 379.517475 148.156144 
L 380.059469 150.673299 
L 380.601463 153.964963 
L 381.143457 147.720482 
L 381.685452 151.786656 
L 382.227446 147.260618 
L 383.311434 153.069437 
L 383.853428 149.245297 
L 384.395423 158.248967 
L 384.937417 150.939536 
L 385.479411 147.817296 
L 386.021405 148.833839 
L 386.5634 154.545845 
L 387.105394 148.930653 
L 387.647388 150.576485 
L 388.189382 148.640212 
L 388.731377 155.925439 
L 389.273371 153.263064 
L 389.815365 152.803199 
L 390.357359 153.069437 
L 390.899353 149.390518 
L 391.441348 151.520418 
L 391.983342 149.729366 
L 392.525336 144.622446 
L 393.06733 150.697502 
L 393.609325 150.455468 
L 394.151319 155.054116 
L 394.693313 157.789102 
L 395.235307 149.511535 
L 395.777302 150.431265 
L 396.86129 159.071883 
L 397.403284 161.734258 
L 397.945278 151.254181 
L 398.487273 149.559942 
L 398.487273 149.559942 
" clip-path="url(#p17970978bd)" style="fill: none; stroke: #9467bd; stroke-width: 1.5; stroke-linecap: square"/>
   </g>
   <g id="patch_3">
    <path d="M 57.6 307.584 
L 57.6 41.472 
" style="fill: none; stroke: #000000; stroke-width: 0.8; stroke-linejoin: miter; stroke-linecap: square"/>
   </g>
   <g id="patch_4">
    <path d="M 414.72 307.584 
L 414.72 41.472 
" style="fill: none; stroke: #000000; stroke-width: 0.8; stroke-linejoin: miter; stroke-linecap: square"/>
   </g>
   <g id="patch_5">
    <path d="M 57.6 307.584 
L 414.72 307.584 
" style="fill: none; stroke: #000000; stroke-width: 0.8; stroke-linejoin: miter; stroke-linecap: square"/>
   </g>
   <g id="patch_6">
    <path d="M 57.6 41.472 
L 414.72 41.472 
" style="fill: none; stroke: #000000; stroke-width: 0.8; stroke-linejoin: miter; stroke-linecap: square"/>
   </g>
   <g id="text_21">
    <!-- Learning Curves -->
    <g transform="translate(187.37625 35.472) scale(0.12 -0.12)">
     <defs>
      <path id="DejaVuSans-4c" d="M 628 4666 
L 1259 4666 
L 1259 531 
L 3531 531 
L 3531 0 
L 628 0 
L 628 4666 
z
" transform="scale(0.015625)"/>
      <path id="DejaVuSans-65" d="M 3597 1894 
L 3597 1613 
L 953 1613 
Q 991 1019 1311 708 
Q 1631 397 2203 397 
Q 2534 397 2845 478 
Q 3156 559 3463 722 
L 3463 178 
Q 3153 47 2828 -22 
Q 2503 -91 2169 -91 
Q 1331 -91 842 396 
Q 353 884 353 1716 
Q 353 2575 817 3079 
Q 1281 3584 2069 3584 
Q 2775 3584 3186 3129 
Q 3597 2675 3597 1894 
z
M 3022 2063 
Q 3016 2534 2758 2815 
Q 2500 3097 2075 3097 
Q 1594 3097 1305 2825 
Q 1016 2553 972 2059 
L 3022 2063 
z
" transform="scale(0.015625)"/>
      <path id="DejaVuSans-6e" d="M 3513 2113 
L 3513 0 
L 2938 0 
L 2938 2094 
Q 2938 2591 2744 2837 
Q 2550 3084 2163 3084 
Q 1697 3084 1428 2787 
Q 1159 2491 1159 1978 
L 1159 0 
L 581 0 
L 581 3500 
L 1159 3500 
L 1159 2956 
Q 1366 3272 1645 3428 
Q 1925 3584 2291 3584 
Q 2894 3584 3203 3211 
Q 3513 2838 3513 2113 
z
" transform="scale(0.015625)"/>
      <path id="DejaVuSans-69" d="M 603 3500 
L 1178 3500 
L 1178 0 
L 603 0 
L 603 3500 
z
M 603 4863 
L 1178 4863 
L 1178 4134 
L 603 4134 
L 603 4863 
z
" transform="scale(0.015625)"/>
      <path id="DejaVuSans-67" d="M 2906 1791 
Q 2906 2416 2648 2759 
Q 2391 3103 1925 3103 
Q 1463 3103 1205 2759 
Q 947 2416 947 1791 
Q 947 1169 1205 825 
Q 1463 481 1925 481 
Q 2391 481 2648 825 
Q 2906 1169 2906 1791 
z
M 3481 434 
Q 3481 -459 3084 -895 
Q 2688 -1331 1869 -1331 
Q 1566 -1331 1297 -1286 
Q 1028 -1241 775 -1147 
L 775 -588 
Q 1028 -725 1275 -790 
Q 1522 -856 1778 -856 
Q 2344 -856 2625 -561 
Q 2906 -266 2906 331 
L 2906 616 
Q 2728 306 2450 153 
Q 2172 0 1784 0 
Q 1141 0 747 490 
Q 353 981 353 1791 
Q 353 2603 747 3093 
Q 1141 3584 1784 3584 
Q 2172 3584 2450 3431 
Q 2728 3278 2906 2969 
L 2906 3500 
L 3481 3500 
L 3481 434 
z
" transform="scale(0.015625)"/>
      <path id="DejaVuSans-20" transform="scale(0.015625)"/>
      <path id="DejaVuSans-43" d="M 4122 4306 
L 4122 3641 
Q 3803 3938 3442 4084 
Q 3081 4231 2675 4231 
Q 1875 4231 1450 3742 
Q 1025 3253 1025 2328 
Q 1025 1406 1450 917 
Q 1875 428 2675 428 
Q 3081 428 3442 575 
Q 3803 722 4122 1019 
L 4122 359 
Q 3791 134 3420 21 
Q 3050 -91 2638 -91 
Q 1578 -91 968 557 
Q 359 1206 359 2328 
Q 359 3453 968 4101 
Q 1578 4750 2638 4750 
Q 3056 4750 3426 4639 
Q 3797 4528 4122 4306 
z
" transform="scale(0.015625)"/>
      <path id="DejaVuSans-76" d="M 191 3500 
L 800 3500 
L 1894 563 
L 2988 3500 
L 3597 3500 
L 2284 0 
L 1503 0 
L 191 3500 
z
" transform="scale(0.015625)"/>
     </defs>
     <use xlink:href="#DejaVuSans-4c"/>
     <use xlink:href="#DejaVuSans-65" x="53.962891"/>
     <use xlink:href="#DejaVuSans-61" x="115.486328"/>
     <use xlink:href="#DejaVuSans-72" x="176.765625"/>
     <use xlink:href="#DejaVuSans-6e" x="216.128906"/>
     <use xlink:href="#DejaVuSans-69" x="279.507812"/>
     <use xlink:href="#DejaVuSans-6e" x="307.291016"/>
     <use xlink:href="#DejaVuSans-67" x="370.669922"/>
     <use xlink:href="#DejaVuSans-20" x="434.146484"/>
     <use xlink:href="#DejaVuSans-43" x="465.933594"/>
     <use xlink:href="#DejaVuSans-75" x="535.757812"/>
     <use xlink:href="#DejaVuSans-72" x="599.136719"/>
     <use xlink:href="#DejaVuSans-76" x="640.25"/>
     <use xlink:href="#DejaVuSans-65" x="699.429688"/>
     <use xlink:href="#DejaVuSans-73" x="760.953125"/>
    </g>
   </g>
   <g id="legend_1">
    <g id="patch_7">
     <path d="M 214.18875 302.584 
L 407.72 302.584 
Q 409.72 302.584 409.72 300.584 
L 409.72 228.193375 
Q 409.72 226.193375 407.72 226.193375 
L 214.18875 226.193375 
Q 212.18875 226.193375 212.18875 228.193375 
L 212.18875 300.584 
Q 212.18875 302.584 214.18875 302.584 
z
" style="fill: #ffffff; opacity: 0.8; stroke: #cccccc; stroke-linejoin: miter"/>
    </g>
    <g id="line2d_24">
     <path d="M 216.18875 234.291812 
L 226.18875 234.291812 
L 236.18875 234.291812 
" style="fill: none; stroke: #1f77b4; stroke-width: 1.5; stroke-linecap: square"/>
    </g>
    <g id="text_22">
     <!-- Train Accuracy -->
     <g transform="translate(244.18875 237.791812) scale(0.1 -0.1)">
      <defs>
       <path id="DejaVuSans-54" d="M -19 4666 
L 3928 4666 
L 3928 4134 
L 2272 4134 
L 2272 0 
L 1638 0 
L 1638 4134 
L -19 4134 
L -19 4666 
z
" transform="scale(0.015625)"/>
      </defs>
      <use xlink:href="#DejaVuSans-54"/>
      <use xlink:href="#DejaVuSans-72" x="46.333984"/>
      <use xlink:href="#DejaVuSans-61" x="87.447266"/>
      <use xlink:href="#DejaVuSans-69" x="148.726562"/>
      <use xlink:href="#DejaVuSans-6e" x="176.509766"/>
      <use xlink:href="#DejaVuSans-20" x="239.888672"/>
      <use xlink:href="#DejaVuSans-41" x="271.675781"/>
      <use xlink:href="#DejaVuSans-63" x="338.333984"/>
      <use xlink:href="#DejaVuSans-63" x="393.314453"/>
      <use xlink:href="#DejaVuSans-75" x="448.294922"/>
      <use xlink:href="#DejaVuSans-72" x="511.673828"/>
      <use xlink:href="#DejaVuSans-61" x="552.787109"/>
      <use xlink:href="#DejaVuSans-63" x="614.066406"/>
      <use xlink:href="#DejaVuSans-79" x="669.046875"/>
     </g>
    </g>
    <g id="line2d_25">
     <path d="M 216.18875 248.969937 
L 226.18875 248.969937 
L 236.18875 248.969937 
" style="fill: none; stroke: #ff7f0e; stroke-width: 1.5; stroke-linecap: square"/>
    </g>
    <g id="text_23">
     <!-- Validation Accuracy -->
     <g transform="translate(244.18875 252.469937) scale(0.1 -0.1)">
      <defs>
       <path id="DejaVuSans-56" d="M 1831 0 
L 50 4666 
L 709 4666 
L 2188 738 
L 3669 4666 
L 4325 4666 
L 2547 0 
L 1831 0 
z
" transform="scale(0.015625)"/>
       <path id="DejaVuSans-6c" d="M 603 4863 
L 1178 4863 
L 1178 0 
L 603 0 
L 603 4863 
z
" transform="scale(0.015625)"/>
       <path id="DejaVuSans-64" d="M 2906 2969 
L 2906 4863 
L 3481 4863 
L 3481 0 
L 2906 0 
L 2906 525 
Q 2725 213 2448 61 
Q 2172 -91 1784 -91 
Q 1150 -91 751 415 
Q 353 922 353 1747 
Q 353 2572 751 3078 
Q 1150 3584 1784 3584 
Q 2172 3584 2448 3432 
Q 2725 3281 2906 2969 
z
M 947 1747 
Q 947 1113 1208 752 
Q 1469 391 1925 391 
Q 2381 391 2643 752 
Q 2906 1113 2906 1747 
Q 2906 2381 2643 2742 
Q 2381 3103 1925 3103 
Q 1469 3103 1208 2742 
Q 947 2381 947 1747 
z
" transform="scale(0.015625)"/>
       <path id="DejaVuSans-74" d="M 1172 4494 
L 1172 3500 
L 2356 3500 
L 2356 3053 
L 1172 3053 
L 1172 1153 
Q 1172 725 1289 603 
Q 1406 481 1766 481 
L 2356 481 
L 2356 0 
L 1766 0 
Q 1100 0 847 248 
Q 594 497 594 1153 
L 594 3053 
L 172 3053 
L 172 3500 
L 594 3500 
L 594 4494 
L 1172 4494 
z
" transform="scale(0.015625)"/>
      </defs>
      <use xlink:href="#DejaVuSans-56"/>
      <use xlink:href="#DejaVuSans-61" x="60.658203"/>
      <use xlink:href="#DejaVuSans-6c" x="121.9375"/>
      <use xlink:href="#DejaVuSans-69" x="149.720703"/>
      <use xlink:href="#DejaVuSans-64" x="177.503906"/>
      <use xlink:href="#DejaVuSans-61" x="240.980469"/>
      <use xlink:href="#DejaVuSans-74" x="302.259766"/>
      <use xlink:href="#DejaVuSans-69" x="341.46875"/>
      <use xlink:href="#DejaVuSans-6f" x="369.251953"/>
      <use xlink:href="#DejaVuSans-6e" x="430.433594"/>
      <use xlink:href="#DejaVuSans-20" x="493.8125"/>
      <use xlink:href="#DejaVuSans-41" x="525.599609"/>
      <use xlink:href="#DejaVuSans-63" x="592.257812"/>
      <use xlink:href="#DejaVuSans-63" x="647.238281"/>
      <use xlink:href="#DejaVuSans-75" x="702.21875"/>
      <use xlink:href="#DejaVuSans-72" x="765.597656"/>
      <use xlink:href="#DejaVuSans-61" x="806.710938"/>
      <use xlink:href="#DejaVuSans-63" x="867.990234"/>
      <use xlink:href="#DejaVuSans-79" x="922.970703"/>
     </g>
    </g>
    <g id="line2d_26">
     <path d="M 216.18875 263.648062 
L 226.18875 263.648062 
L 236.18875 263.648062 
" style="fill: none; stroke: #2ca02c; stroke-width: 1.5; stroke-linecap: square"/>
    </g>
    <g id="text_24">
     <!-- Robust Validation Accuracy -->
     <g transform="translate(244.18875 267.148062) scale(0.1 -0.1)">
      <defs>
       <path id="DejaVuSans-52" d="M 2841 2188 
Q 3044 2119 3236 1894 
Q 3428 1669 3622 1275 
L 4263 0 
L 3584 0 
L 2988 1197 
Q 2756 1666 2539 1819 
Q 2322 1972 1947 1972 
L 1259 1972 
L 1259 0 
L 628 0 
L 628 4666 
L 2053 4666 
Q 2853 4666 3247 4331 
Q 3641 3997 3641 3322 
Q 3641 2881 3436 2590 
Q 3231 2300 2841 2188 
z
M 1259 4147 
L 1259 2491 
L 2053 2491 
Q 2509 2491 2742 2702 
Q 2975 2913 2975 3322 
Q 2975 3731 2742 3939 
Q 2509 4147 2053 4147 
L 1259 4147 
z
" transform="scale(0.015625)"/>
       <path id="DejaVuSans-62" d="M 3116 1747 
Q 3116 2381 2855 2742 
Q 2594 3103 2138 3103 
Q 1681 3103 1420 2742 
Q 1159 2381 1159 1747 
Q 1159 1113 1420 752 
Q 1681 391 2138 391 
Q 2594 391 2855 752 
Q 3116 1113 3116 1747 
z
M 1159 2969 
Q 1341 3281 1617 3432 
Q 1894 3584 2278 3584 
Q 2916 3584 3314 3078 
Q 3713 2572 3713 1747 
Q 3713 922 3314 415 
Q 2916 -91 2278 -91 
Q 1894 -91 1617 61 
Q 1341 213 1159 525 
L 1159 0 
L 581 0 
L 581 4863 
L 1159 4863 
L 1159 2969 
z
" transform="scale(0.015625)"/>
      </defs>
      <use xlink:href="#DejaVuSans-52"/>
      <use xlink:href="#DejaVuSans-6f" x="64.982422"/>
      <use xlink:href="#DejaVuSans-62" x="126.164062"/>
      <use xlink:href="#DejaVuSans-75" x="189.640625"/>
      <use xlink:href="#DejaVuSans-73" x="253.019531"/>
      <use xlink:href="#DejaVuSans-74" x="305.119141"/>
      <use xlink:href="#DejaVuSans-20" x="344.328125"/>
      <use xlink:href="#DejaVuSans-56" x="376.115234"/>
      <use xlink:href="#DejaVuSans-61" x="436.773438"/>
      <use xlink:href="#DejaVuSans-6c" x="498.052734"/>
      <use xlink:href="#DejaVuSans-69" x="525.835938"/>
      <use xlink:href="#DejaVuSans-64" x="553.619141"/>
      <use xlink:href="#DejaVuSans-61" x="617.095703"/>
      <use xlink:href="#DejaVuSans-74" x="678.375"/>
      <use xlink:href="#DejaVuSans-69" x="717.583984"/>
      <use xlink:href="#DejaVuSans-6f" x="745.367188"/>
      <use xlink:href="#DejaVuSans-6e" x="806.548828"/>
      <use xlink:href="#DejaVuSans-20" x="869.927734"/>
      <use xlink:href="#DejaVuSans-41" x="901.714844"/>
      <use xlink:href="#DejaVuSans-63" x="968.373047"/>
      <use xlink:href="#DejaVuSans-63" x="1023.353516"/>
      <use xlink:href="#DejaVuSans-75" x="1078.333984"/>
      <use xlink:href="#DejaVuSans-72" x="1141.712891"/>
      <use xlink:href="#DejaVuSans-61" x="1182.826172"/>
      <use xlink:href="#DejaVuSans-63" x="1244.105469"/>
      <use xlink:href="#DejaVuSans-79" x="1299.085938"/>
     </g>
    </g>
    <g id="line2d_27">
     <path d="M 216.18875 278.326188 
L 226.18875 278.326188 
L 236.18875 278.326188 
" style="fill: none; stroke: #d62728; stroke-width: 1.5; stroke-linecap: square"/>
    </g>
    <g id="text_25">
     <!-- SWA Validation Accuracy -->
     <g transform="translate(244.18875 281.826188) scale(0.1 -0.1)">
      <defs>
       <path id="DejaVuSans-53" d="M 3425 4513 
L 3425 3897 
Q 3066 4069 2747 4153 
Q 2428 4238 2131 4238 
Q 1616 4238 1336 4038 
Q 1056 3838 1056 3469 
Q 1056 3159 1242 3001 
Q 1428 2844 1947 2747 
L 2328 2669 
Q 3034 2534 3370 2195 
Q 3706 1856 3706 1288 
Q 3706 609 3251 259 
Q 2797 -91 1919 -91 
Q 1588 -91 1214 -16 
Q 841 59 441 206 
L 441 856 
Q 825 641 1194 531 
Q 1563 422 1919 422 
Q 2459 422 2753 634 
Q 3047 847 3047 1241 
Q 3047 1584 2836 1778 
Q 2625 1972 2144 2069 
L 1759 2144 
Q 1053 2284 737 2584 
Q 422 2884 422 3419 
Q 422 4038 858 4394 
Q 1294 4750 2059 4750 
Q 2388 4750 2728 4690 
Q 3069 4631 3425 4513 
z
" transform="scale(0.015625)"/>
       <path id="DejaVuSans-57" d="M 213 4666 
L 850 4666 
L 1831 722 
L 2809 4666 
L 3519 4666 
L 4500 722 
L 5478 4666 
L 6119 4666 
L 4947 0 
L 4153 0 
L 3169 4050 
L 2175 0 
L 1381 0 
L 213 4666 
z
" transform="scale(0.015625)"/>
      </defs>
      <use xlink:href="#DejaVuSans-53"/>
      <use xlink:href="#DejaVuSans-57" x="63.476562"/>
      <use xlink:href="#DejaVuSans-41" x="156.853516"/>
      <use xlink:href="#DejaVuSans-20" x="225.261719"/>
      <use xlink:href="#DejaVuSans-56" x="257.048828"/>
      <use xlink:href="#DejaVuSans-61" x="317.707031"/>
      <use xlink:href="#DejaVuSans-6c" x="378.986328"/>
      <use xlink:href="#DejaVuSans-69" x="406.769531"/>
      <use xlink:href="#DejaVuSans-64" x="434.552734"/>
      <use xlink:href="#DejaVuSans-61" x="498.029297"/>
      <use xlink:href="#DejaVuSans-74" x="559.308594"/>
      <use xlink:href="#DejaVuSans-69" x="598.517578"/>
      <use xlink:href="#DejaVuSans-6f" x="626.300781"/>
      <use xlink:href="#DejaVuSans-6e" x="687.482422"/>
      <use xlink:href="#DejaVuSans-20" x="750.861328"/>
      <use xlink:href="#DejaVuSans-41" x="782.648438"/>
      <use xlink:href="#DejaVuSans-63" x="849.306641"/>
      <use xlink:href="#DejaVuSans-63" x="904.287109"/>
      <use xlink:href="#DejaVuSans-75" x="959.267578"/>
      <use xlink:href="#DejaVuSans-72" x="1022.646484"/>
      <use xlink:href="#DejaVuSans-61" x="1063.759766"/>
      <use xlink:href="#DejaVuSans-63" x="1125.039062"/>
      <use xlink:href="#DejaVuSans-79" x="1180.019531"/>
     </g>
    </g>
    <g id="line2d_28">
     <path d="M 216.18875 293.004312 
L 226.18875 293.004312 
L 236.18875 293.004312 
" style="fill: none; stroke: #9467bd; stroke-width: 1.5; stroke-linecap: square"/>
    </g>
    <g id="text_26">
     <!-- SWA Robust Validation Accuracy -->
     <g transform="translate(244.18875 296.504312) scale(0.1 -0.1)">
      <use xlink:href="#DejaVuSans-53"/>
      <use xlink:href="#DejaVuSans-57" x="63.476562"/>
      <use xlink:href="#DejaVuSans-41" x="156.853516"/>
      <use xlink:href="#DejaVuSans-20" x="225.261719"/>
      <use xlink:href="#DejaVuSans-52" x="257.048828"/>
      <use xlink:href="#DejaVuSans-6f" x="322.03125"/>
      <use xlink:href="#DejaVuSans-62" x="383.212891"/>
      <use xlink:href="#DejaVuSans-75" x="446.689453"/>
      <use xlink:href="#DejaVuSans-73" x="510.068359"/>
      <use xlink:href="#DejaVuSans-74" x="562.167969"/>
      <use xlink:href="#DejaVuSans-20" x="601.376953"/>
      <use xlink:href="#DejaVuSans-56" x="633.164062"/>
      <use xlink:href="#DejaVuSans-61" x="693.822266"/>
      <use xlink:href="#DejaVuSans-6c" x="755.101562"/>
      <use xlink:href="#DejaVuSans-69" x="782.884766"/>
      <use xlink:href="#DejaVuSans-64" x="810.667969"/>
      <use xlink:href="#DejaVuSans-61" x="874.144531"/>
      <use xlink:href="#DejaVuSans-74" x="935.423828"/>
      <use xlink:href="#DejaVuSans-69" x="974.632812"/>
      <use xlink:href="#DejaVuSans-6f" x="1002.416016"/>
      <use xlink:href="#DejaVuSans-6e" x="1063.597656"/>
      <use xlink:href="#DejaVuSans-20" x="1126.976562"/>
      <use xlink:href="#DejaVuSans-41" x="1158.763672"/>
      <use xlink:href="#DejaVuSans-63" x="1225.421875"/>
      <use xlink:href="#DejaVuSans-63" x="1280.402344"/>
      <use xlink:href="#DejaVuSans-75" x="1335.382812"/>
      <use xlink:href="#DejaVuSans-72" x="1398.761719"/>
      <use xlink:href="#DejaVuSans-61" x="1439.875"/>
      <use xlink:href="#DejaVuSans-63" x="1501.154297"/>
      <use xlink:href="#DejaVuSans-79" x="1556.134766"/>
     </g>
    </g>
   </g>
  </g>
 </g>
 <defs>
  <clipPath id="p17970978bd">
   <rect x="57.6" y="41.472" width="357.12" height="266.112"/>
  </clipPath>
 </defs>
</svg>
