<?xml version="1.0" encoding="utf-8" standalone="no"?>
<!DOCTYPE svg PUBLIC "-//W3C//DTD SVG 1.1//EN"
  "http://www.w3.org/Graphics/SVG/1.1/DTD/svg11.dtd">
<svg xmlns:xlink="http://www.w3.org/1999/xlink" width="460.8pt" height="345.6pt" viewBox="0 0 460.8 345.6" xmlns="http://www.w3.org/2000/svg" version="1.1">
 <metadata>
  <rdf:RDF xmlns:dc="http://purl.org/dc/elements/1.1/" xmlns:cc="http://creativecommons.org/ns#" xmlns:rdf="http://www.w3.org/1999/02/22-rdf-syntax-ns#">
   <cc:Work>
    <dc:type rdf:resource="http://purl.org/dc/dcmitype/StillImage"/>
    <dc:date>2025-07-13T18:08:52.891799</dc:date>
    <dc:format>image/svg+xml</dc:format>
    <dc:creator>
     <cc:Agent>
      <dc:title>Matplotlib v3.9.1, https://matplotlib.org/</dc:title>
     </cc:Agent>
    </dc:creator>
   </cc:Work>
  </rdf:RDF>
 </metadata>
 <defs>
  <style type="text/css">*{stroke-linejoin: round; stroke-linecap: butt}</style>
 </defs>
 <g id="figure_1">
  <g id="patch_1">
   <path d="M 0 345.6 
L 460.8 345.6 
L 460.8 0 
L 0 0 
z
" style="fill: #ffffff"/>
  </g>
  <g id="axes_1">
   <g id="patch_2">
    <path d="M 57.6 307.584 
L 414.72 307.584 
L 414.72 41.472 
L 57.6 41.472 
z
" style="fill: #ffffff"/>
   </g>
   <g id="matplotlib.axis_1">
    <g id="xtick_1">
     <g id="line2d_1">
      <defs>
       <path id="m668244c6be" d="M 0 0 
L 0 3.5 
" style="stroke: #000000; stroke-width: 0.8"/>
      </defs>
      <g>
       <use xlink:href="#m668244c6be" x="73.832727" y="307.584" style="stroke: #000000; stroke-width: 0.8"/>
      </g>
     </g>
     <g id="text_1">
      <!-- 1 -->
      <g transform="translate(70.651477 322.182437) scale(0.1 -0.1)">
       <defs>
        <path id="DejaVuSans-31" d="M 794 531 
L 1825 531 
L 1825 4091 
L 703 3866 
L 703 4441 
L 1819 4666 
L 2450 4666 
L 2450 531 
L 3481 531 
L 3481 0 
L 794 0 
L 794 531 
z
" transform="scale(0.015625)"/>
       </defs>
       <use xlink:href="#DejaVuSans-31"/>
      </g>
     </g>
    </g>
    <g id="xtick_2">
     <g id="line2d_2">
      <g>
       <use xlink:href="#m668244c6be" x="109.664165" y="307.584" style="stroke: #000000; stroke-width: 0.8"/>
      </g>
     </g>
     <g id="text_2">
      <!-- 34 -->
      <g transform="translate(103.301665 322.182437) scale(0.1 -0.1)">
       <defs>
        <path id="DejaVuSans-33" d="M 2597 2516 
Q 3050 2419 3304 2112 
Q 3559 1806 3559 1356 
Q 3559 666 3084 287 
Q 2609 -91 1734 -91 
Q 1441 -91 1130 -33 
Q 819 25 488 141 
L 488 750 
Q 750 597 1062 519 
Q 1375 441 1716 441 
Q 2309 441 2620 675 
Q 2931 909 2931 1356 
Q 2931 1769 2642 2001 
Q 2353 2234 1838 2234 
L 1294 2234 
L 1294 2753 
L 1863 2753 
Q 2328 2753 2575 2939 
Q 2822 3125 2822 3475 
Q 2822 3834 2567 4026 
Q 2313 4219 1838 4219 
Q 1578 4219 1281 4162 
Q 984 4106 628 3988 
L 628 4550 
Q 988 4650 1302 4700 
Q 1616 4750 1894 4750 
Q 2613 4750 3031 4423 
Q 3450 4097 3450 3541 
Q 3450 3153 3228 2886 
Q 3006 2619 2597 2516 
z
" transform="scale(0.015625)"/>
        <path id="DejaVuSans-34" d="M 2419 4116 
L 825 1625 
L 2419 1625 
L 2419 4116 
z
M 2253 4666 
L 3047 4666 
L 3047 1625 
L 3713 1625 
L 3713 1100 
L 3047 1100 
L 3047 0 
L 2419 0 
L 2419 1100 
L 313 1100 
L 313 1709 
L 2253 4666 
z
" transform="scale(0.015625)"/>
       </defs>
       <use xlink:href="#DejaVuSans-33"/>
       <use xlink:href="#DejaVuSans-34" x="63.623047"/>
      </g>
     </g>
    </g>
    <g id="xtick_3">
     <g id="line2d_3">
      <g>
       <use xlink:href="#m668244c6be" x="145.495604" y="307.584" style="stroke: #000000; stroke-width: 0.8"/>
      </g>
     </g>
     <g id="text_3">
      <!-- 67 -->
      <g transform="translate(139.133104 322.182437) scale(0.1 -0.1)">
       <defs>
        <path id="DejaVuSans-36" d="M 2113 2584 
Q 1688 2584 1439 2293 
Q 1191 2003 1191 1497 
Q 1191 994 1439 701 
Q 1688 409 2113 409 
Q 2538 409 2786 701 
Q 3034 994 3034 1497 
Q 3034 2003 2786 2293 
Q 2538 2584 2113 2584 
z
M 3366 4563 
L 3366 3988 
Q 3128 4100 2886 4159 
Q 2644 4219 2406 4219 
Q 1781 4219 1451 3797 
Q 1122 3375 1075 2522 
Q 1259 2794 1537 2939 
Q 1816 3084 2150 3084 
Q 2853 3084 3261 2657 
Q 3669 2231 3669 1497 
Q 3669 778 3244 343 
Q 2819 -91 2113 -91 
Q 1303 -91 875 529 
Q 447 1150 447 2328 
Q 447 3434 972 4092 
Q 1497 4750 2381 4750 
Q 2619 4750 2861 4703 
Q 3103 4656 3366 4563 
z
" transform="scale(0.015625)"/>
        <path id="DejaVuSans-37" d="M 525 4666 
L 3525 4666 
L 3525 4397 
L 1831 0 
L 1172 0 
L 2766 4134 
L 525 4134 
L 525 4666 
z
" transform="scale(0.015625)"/>
       </defs>
       <use xlink:href="#DejaVuSans-36"/>
       <use xlink:href="#DejaVuSans-37" x="63.623047"/>
      </g>
     </g>
    </g>
    <g id="xtick_4">
     <g id="line2d_4">
      <g>
       <use xlink:href="#m668244c6be" x="181.327042" y="307.584" style="stroke: #000000; stroke-width: 0.8"/>
      </g>
     </g>
     <g id="text_4">
      <!-- 100 -->
      <g transform="translate(171.783292 322.182437) scale(0.1 -0.1)">
       <defs>
        <path id="DejaVuSans-30" d="M 2034 4250 
Q 1547 4250 1301 3770 
Q 1056 3291 1056 2328 
Q 1056 1369 1301 889 
Q 1547 409 2034 409 
Q 2525 409 2770 889 
Q 3016 1369 3016 2328 
Q 3016 3291 2770 3770 
Q 2525 4250 2034 4250 
z
M 2034 4750 
Q 2819 4750 3233 4129 
Q 3647 3509 3647 2328 
Q 3647 1150 3233 529 
Q 2819 -91 2034 -91 
Q 1250 -91 836 529 
Q 422 1150 422 2328 
Q 422 3509 836 4129 
Q 1250 4750 2034 4750 
z
" transform="scale(0.015625)"/>
       </defs>
       <use xlink:href="#DejaVuSans-31"/>
       <use xlink:href="#DejaVuSans-30" x="63.623047"/>
       <use xlink:href="#DejaVuSans-30" x="127.246094"/>
      </g>
     </g>
    </g>
    <g id="xtick_5">
     <g id="line2d_5">
      <g>
       <use xlink:href="#m668244c6be" x="217.15848" y="307.584" style="stroke: #000000; stroke-width: 0.8"/>
      </g>
     </g>
     <g id="text_5">
      <!-- 133 -->
      <g transform="translate(207.61473 322.182437) scale(0.1 -0.1)">
       <use xlink:href="#DejaVuSans-31"/>
       <use xlink:href="#DejaVuSans-33" x="63.623047"/>
       <use xlink:href="#DejaVuSans-33" x="127.246094"/>
      </g>
     </g>
    </g>
    <g id="xtick_6">
     <g id="line2d_6">
      <g>
       <use xlink:href="#m668244c6be" x="254.075719" y="307.584" style="stroke: #000000; stroke-width: 0.8"/>
      </g>
     </g>
     <g id="text_6">
      <!-- 167 -->
      <g transform="translate(244.531969 322.182437) scale(0.1 -0.1)">
       <use xlink:href="#DejaVuSans-31"/>
       <use xlink:href="#DejaVuSans-36" x="63.623047"/>
       <use xlink:href="#DejaVuSans-37" x="127.246094"/>
      </g>
     </g>
    </g>
    <g id="xtick_7">
     <g id="line2d_7">
      <g>
       <use xlink:href="#m668244c6be" x="289.907157" y="307.584" style="stroke: #000000; stroke-width: 0.8"/>
      </g>
     </g>
     <g id="text_7">
      <!-- 200 -->
      <g transform="translate(280.363407 322.182437) scale(0.1 -0.1)">
       <defs>
        <path id="DejaVuSans-32" d="M 1228 531 
L 3431 531 
L 3431 0 
L 469 0 
L 469 531 
Q 828 903 1448 1529 
Q 2069 2156 2228 2338 
Q 2531 2678 2651 2914 
Q 2772 3150 2772 3378 
Q 2772 3750 2511 3984 
Q 2250 4219 1831 4219 
Q 1534 4219 1204 4116 
Q 875 4013 500 3803 
L 500 4441 
Q 881 4594 1212 4672 
Q 1544 4750 1819 4750 
Q 2544 4750 2975 4387 
Q 3406 4025 3406 3419 
Q 3406 3131 3298 2873 
Q 3191 2616 2906 2266 
Q 2828 2175 2409 1742 
Q 1991 1309 1228 531 
z
" transform="scale(0.015625)"/>
       </defs>
       <use xlink:href="#DejaVuSans-32"/>
       <use xlink:href="#DejaVuSans-30" x="63.623047"/>
       <use xlink:href="#DejaVuSans-30" x="127.246094"/>
      </g>
     </g>
    </g>
    <g id="xtick_8">
     <g id="line2d_8">
      <g>
       <use xlink:href="#m668244c6be" x="325.738595" y="307.584" style="stroke: #000000; stroke-width: 0.8"/>
      </g>
     </g>
     <g id="text_8">
      <!-- 233 -->
      <g transform="translate(316.194845 322.182437) scale(0.1 -0.1)">
       <use xlink:href="#DejaVuSans-32"/>
       <use xlink:href="#DejaVuSans-33" x="63.623047"/>
       <use xlink:href="#DejaVuSans-33" x="127.246094"/>
      </g>
     </g>
    </g>
    <g id="xtick_9">
     <g id="line2d_9">
      <g>
       <use xlink:href="#m668244c6be" x="361.570033" y="307.584" style="stroke: #000000; stroke-width: 0.8"/>
      </g>
     </g>
     <g id="text_9">
      <!-- 266 -->
      <g transform="translate(352.026283 322.182437) scale(0.1 -0.1)">
       <use xlink:href="#DejaVuSans-32"/>
       <use xlink:href="#DejaVuSans-36" x="63.623047"/>
       <use xlink:href="#DejaVuSans-36" x="127.246094"/>
      </g>
     </g>
    </g>
    <g id="xtick_10">
     <g id="line2d_10">
      <g>
       <use xlink:href="#m668244c6be" x="398.487273" y="307.584" style="stroke: #000000; stroke-width: 0.8"/>
      </g>
     </g>
     <g id="text_10">
      <!-- 300 -->
      <g transform="translate(388.943523 322.182437) scale(0.1 -0.1)">
       <use xlink:href="#DejaVuSans-33"/>
       <use xlink:href="#DejaVuSans-30" x="63.623047"/>
       <use xlink:href="#DejaVuSans-30" x="127.246094"/>
      </g>
     </g>
    </g>
    <g id="text_11">
     <!-- Epochs -->
     <g transform="translate(218.244375 335.860562) scale(0.1 -0.1)">
      <defs>
       <path id="DejaVuSans-45" d="M 628 4666 
L 3578 4666 
L 3578 4134 
L 1259 4134 
L 1259 2753 
L 3481 2753 
L 3481 2222 
L 1259 2222 
L 1259 531 
L 3634 531 
L 3634 0 
L 628 0 
L 628 4666 
z
" transform="scale(0.015625)"/>
       <path id="DejaVuSans-70" d="M 1159 525 
L 1159 -1331 
L 581 -1331 
L 581 3500 
L 1159 3500 
L 1159 2969 
Q 1341 3281 1617 3432 
Q 1894 3584 2278 3584 
Q 2916 3584 3314 3078 
Q 3713 2572 3713 1747 
Q 3713 922 3314 415 
Q 2916 -91 2278 -91 
Q 1894 -91 1617 61 
Q 1341 213 1159 525 
z
M 3116 1747 
Q 3116 2381 2855 2742 
Q 2594 3103 2138 3103 
Q 1681 3103 1420 2742 
Q 1159 2381 1159 1747 
Q 1159 1113 1420 752 
Q 1681 391 2138 391 
Q 2594 391 2855 752 
Q 3116 1113 3116 1747 
z
" transform="scale(0.015625)"/>
       <path id="DejaVuSans-6f" d="M 1959 3097 
Q 1497 3097 1228 2736 
Q 959 2375 959 1747 
Q 959 1119 1226 758 
Q 1494 397 1959 397 
Q 2419 397 2687 759 
Q 2956 1122 2956 1747 
Q 2956 2369 2687 2733 
Q 2419 3097 1959 3097 
z
M 1959 3584 
Q 2709 3584 3137 3096 
Q 3566 2609 3566 1747 
Q 3566 888 3137 398 
Q 2709 -91 1959 -91 
Q 1206 -91 779 398 
Q 353 888 353 1747 
Q 353 2609 779 3096 
Q 1206 3584 1959 3584 
z
" transform="scale(0.015625)"/>
       <path id="DejaVuSans-63" d="M 3122 3366 
L 3122 2828 
Q 2878 2963 2633 3030 
Q 2388 3097 2138 3097 
Q 1578 3097 1268 2742 
Q 959 2388 959 1747 
Q 959 1106 1268 751 
Q 1578 397 2138 397 
Q 2388 397 2633 464 
Q 2878 531 3122 666 
L 3122 134 
Q 2881 22 2623 -34 
Q 2366 -91 2075 -91 
Q 1284 -91 818 406 
Q 353 903 353 1747 
Q 353 2603 823 3093 
Q 1294 3584 2113 3584 
Q 2378 3584 2631 3529 
Q 2884 3475 3122 3366 
z
" transform="scale(0.015625)"/>
       <path id="DejaVuSans-68" d="M 3513 2113 
L 3513 0 
L 2938 0 
L 2938 2094 
Q 2938 2591 2744 2837 
Q 2550 3084 2163 3084 
Q 1697 3084 1428 2787 
Q 1159 2491 1159 1978 
L 1159 0 
L 581 0 
L 581 4863 
L 1159 4863 
L 1159 2956 
Q 1366 3272 1645 3428 
Q 1925 3584 2291 3584 
Q 2894 3584 3203 3211 
Q 3513 2838 3513 2113 
z
" transform="scale(0.015625)"/>
       <path id="DejaVuSans-73" d="M 2834 3397 
L 2834 2853 
Q 2591 2978 2328 3040 
Q 2066 3103 1784 3103 
Q 1356 3103 1142 2972 
Q 928 2841 928 2578 
Q 928 2378 1081 2264 
Q 1234 2150 1697 2047 
L 1894 2003 
Q 2506 1872 2764 1633 
Q 3022 1394 3022 966 
Q 3022 478 2636 193 
Q 2250 -91 1575 -91 
Q 1294 -91 989 -36 
Q 684 19 347 128 
L 347 722 
Q 666 556 975 473 
Q 1284 391 1588 391 
Q 1994 391 2212 530 
Q 2431 669 2431 922 
Q 2431 1156 2273 1281 
Q 2116 1406 1581 1522 
L 1381 1569 
Q 847 1681 609 1914 
Q 372 2147 372 2553 
Q 372 3047 722 3315 
Q 1072 3584 1716 3584 
Q 2034 3584 2315 3537 
Q 2597 3491 2834 3397 
z
" transform="scale(0.015625)"/>
      </defs>
      <use xlink:href="#DejaVuSans-45"/>
      <use xlink:href="#DejaVuSans-70" x="63.183594"/>
      <use xlink:href="#DejaVuSans-6f" x="126.660156"/>
      <use xlink:href="#DejaVuSans-63" x="187.841797"/>
      <use xlink:href="#DejaVuSans-68" x="242.822266"/>
      <use xlink:href="#DejaVuSans-73" x="306.201172"/>
     </g>
    </g>
   </g>
   <g id="matplotlib.axis_2">
    <g id="ytick_1">
     <g id="line2d_11">
      <defs>
       <path id="m049cb59087" d="M 0 0 
L -3.5 0 
" style="stroke: #000000; stroke-width: 0.8"/>
      </defs>
      <g>
       <use xlink:href="#m049cb59087" x="57.6" y="272.91908" style="stroke: #000000; stroke-width: 0.8"/>
      </g>
     </g>
     <g id="text_12">
      <!-- 10 -->
      <g transform="translate(37.875 276.718298) scale(0.1 -0.1)">
       <use xlink:href="#DejaVuSans-31"/>
       <use xlink:href="#DejaVuSans-30" x="63.623047"/>
      </g>
     </g>
    </g>
    <g id="ytick_2">
     <g id="line2d_12">
      <g>
       <use xlink:href="#m049cb59087" x="57.6" y="236.596662" style="stroke: #000000; stroke-width: 0.8"/>
      </g>
     </g>
     <g id="text_13">
      <!-- 20 -->
      <g transform="translate(37.875 240.395881) scale(0.1 -0.1)">
       <use xlink:href="#DejaVuSans-32"/>
       <use xlink:href="#DejaVuSans-30" x="63.623047"/>
      </g>
     </g>
    </g>
    <g id="ytick_3">
     <g id="line2d_13">
      <g>
       <use xlink:href="#m049cb59087" x="57.6" y="200.274244" style="stroke: #000000; stroke-width: 0.8"/>
      </g>
     </g>
     <g id="text_14">
      <!-- 30 -->
      <g transform="translate(37.875 204.073463) scale(0.1 -0.1)">
       <use xlink:href="#DejaVuSans-33"/>
       <use xlink:href="#DejaVuSans-30" x="63.623047"/>
      </g>
     </g>
    </g>
    <g id="ytick_4">
     <g id="line2d_14">
      <g>
       <use xlink:href="#m049cb59087" x="57.6" y="163.951827" style="stroke: #000000; stroke-width: 0.8"/>
      </g>
     </g>
     <g id="text_15">
      <!-- 40 -->
      <g transform="translate(37.875 167.751046) scale(0.1 -0.1)">
       <use xlink:href="#DejaVuSans-34"/>
       <use xlink:href="#DejaVuSans-30" x="63.623047"/>
      </g>
     </g>
    </g>
    <g id="ytick_5">
     <g id="line2d_15">
      <g>
       <use xlink:href="#m049cb59087" x="57.6" y="127.629409" style="stroke: #000000; stroke-width: 0.8"/>
      </g>
     </g>
     <g id="text_16">
      <!-- 50 -->
      <g transform="translate(37.875 131.428628) scale(0.1 -0.1)">
       <defs>
        <path id="DejaVuSans-35" d="M 691 4666 
L 3169 4666 
L 3169 4134 
L 1269 4134 
L 1269 2991 
Q 1406 3038 1543 3061 
Q 1681 3084 1819 3084 
Q 2600 3084 3056 2656 
Q 3513 2228 3513 1497 
Q 3513 744 3044 326 
Q 2575 -91 1722 -91 
Q 1428 -91 1123 -41 
Q 819 9 494 109 
L 494 744 
Q 775 591 1075 516 
Q 1375 441 1709 441 
Q 2250 441 2565 725 
Q 2881 1009 2881 1497 
Q 2881 1984 2565 2268 
Q 2250 2553 1709 2553 
Q 1456 2553 1204 2497 
Q 953 2441 691 2322 
L 691 4666 
z
" transform="scale(0.015625)"/>
       </defs>
       <use xlink:href="#DejaVuSans-35"/>
       <use xlink:href="#DejaVuSans-30" x="63.623047"/>
      </g>
     </g>
    </g>
    <g id="ytick_6">
     <g id="line2d_16">
      <g>
       <use xlink:href="#m049cb59087" x="57.6" y="91.306992" style="stroke: #000000; stroke-width: 0.8"/>
      </g>
     </g>
     <g id="text_17">
      <!-- 60 -->
      <g transform="translate(37.875 95.106211) scale(0.1 -0.1)">
       <use xlink:href="#DejaVuSans-36"/>
       <use xlink:href="#DejaVuSans-30" x="63.623047"/>
      </g>
     </g>
    </g>
    <g id="ytick_7">
     <g id="line2d_17">
      <g>
       <use xlink:href="#m049cb59087" x="57.6" y="54.984574" style="stroke: #000000; stroke-width: 0.8"/>
      </g>
     </g>
     <g id="text_18">
      <!-- 70 -->
      <g transform="translate(37.875 58.783793) scale(0.1 -0.1)">
       <use xlink:href="#DejaVuSans-37"/>
       <use xlink:href="#DejaVuSans-30" x="63.623047"/>
      </g>
     </g>
    </g>
    <g id="text_19">
     <!-- Accuracy -->
     <g transform="translate(31.795312 197.356125) rotate(-90) scale(0.1 -0.1)">
      <defs>
       <path id="DejaVuSans-41" d="M 2188 4044 
L 1331 1722 
L 3047 1722 
L 2188 4044 
z
M 1831 4666 
L 2547 4666 
L 4325 0 
L 3669 0 
L 3244 1197 
L 1141 1197 
L 716 0 
L 50 0 
L 1831 4666 
z
" transform="scale(0.015625)"/>
       <path id="DejaVuSans-75" d="M 544 1381 
L 544 3500 
L 1119 3500 
L 1119 1403 
Q 1119 906 1312 657 
Q 1506 409 1894 409 
Q 2359 409 2629 706 
Q 2900 1003 2900 1516 
L 2900 3500 
L 3475 3500 
L 3475 0 
L 2900 0 
L 2900 538 
Q 2691 219 2414 64 
Q 2138 -91 1772 -91 
Q 1169 -91 856 284 
Q 544 659 544 1381 
z
M 1991 3584 
L 1991 3584 
z
" transform="scale(0.015625)"/>
       <path id="DejaVuSans-72" d="M 2631 2963 
Q 2534 3019 2420 3045 
Q 2306 3072 2169 3072 
Q 1681 3072 1420 2755 
Q 1159 2438 1159 1844 
L 1159 0 
L 581 0 
L 581 3500 
L 1159 3500 
L 1159 2956 
Q 1341 3275 1631 3429 
Q 1922 3584 2338 3584 
Q 2397 3584 2469 3576 
Q 2541 3569 2628 3553 
L 2631 2963 
z
" transform="scale(0.015625)"/>
       <path id="DejaVuSans-61" d="M 2194 1759 
Q 1497 1759 1228 1600 
Q 959 1441 959 1056 
Q 959 750 1161 570 
Q 1363 391 1709 391 
Q 2188 391 2477 730 
Q 2766 1069 2766 1631 
L 2766 1759 
L 2194 1759 
z
M 3341 1997 
L 3341 0 
L 2766 0 
L 2766 531 
Q 2569 213 2275 61 
Q 1981 -91 1556 -91 
Q 1019 -91 701 211 
Q 384 513 384 1019 
Q 384 1609 779 1909 
Q 1175 2209 1959 2209 
L 2766 2209 
L 2766 2266 
Q 2766 2663 2505 2880 
Q 2244 3097 1772 3097 
Q 1472 3097 1187 3025 
Q 903 2953 641 2809 
L 641 3341 
Q 956 3463 1253 3523 
Q 1550 3584 1831 3584 
Q 2591 3584 2966 3190 
Q 3341 2797 3341 1997 
z
" transform="scale(0.015625)"/>
       <path id="DejaVuSans-79" d="M 2059 -325 
Q 1816 -950 1584 -1140 
Q 1353 -1331 966 -1331 
L 506 -1331 
L 506 -850 
L 844 -850 
Q 1081 -850 1212 -737 
Q 1344 -625 1503 -206 
L 1606 56 
L 191 3500 
L 800 3500 
L 1894 763 
L 2988 3500 
L 3597 3500 
L 2059 -325 
z
" transform="scale(0.015625)"/>
      </defs>
      <use xlink:href="#DejaVuSans-41"/>
      <use xlink:href="#DejaVuSans-63" x="66.658203"/>
      <use xlink:href="#DejaVuSans-63" x="121.638672"/>
      <use xlink:href="#DejaVuSans-75" x="176.619141"/>
      <use xlink:href="#DejaVuSans-72" x="239.998047"/>
      <use xlink:href="#DejaVuSans-61" x="281.111328"/>
      <use xlink:href="#DejaVuSans-63" x="342.390625"/>
      <use xlink:href="#DejaVuSans-79" x="397.371094"/>
     </g>
    </g>
   </g>
   <g id="line2d_18">
    <path d="M 73.832727 295.488 
L 74.918528 275.428354 
L 76.00433 258.042115 
L 77.090131 243.479321 
L 78.175932 234.395193 
L 79.261733 223.556073 
L 80.347534 215.090284 
L 81.433335 208.643191 
L 82.519137 199.818219 
L 83.604938 193.416592 
L 84.690739 186.178388 
L 85.77654 182.277396 
L 86.862341 176.944221 
L 87.948142 173.711581 
L 89.033943 168.364767 
L 90.119745 165.795932 
L 91.205546 162.599665 
L 92.291347 160.626436 
L 93.377148 156.420821 
L 94.462949 155.184143 
L 95.54875 187.969752 
L 96.634552 183.932362 
L 97.720353 182.495633 
L 98.806154 177.817171 
L 99.891955 174.793675 
L 100.977756 172.674954 
L 102.063557 168.278382 
L 103.149358 165.995983 
L 104.23516 163.313483 
L 105.320961 159.7353 
L 107.492563 155.620618 
L 109.664165 151.383177 
L 110.749967 148.055058 
L 111.835768 147.191202 
L 112.921569 143.608472 
L 114.00737 143.658485 
L 115.093171 141.37154 
L 116.178972 137.479641 
L 117.264773 135.665544 
L 118.350575 132.737526 
L 119.436376 130.309636 
L 120.522177 130.491501 
L 121.607978 127.063356 
L 122.693779 124.244458 
L 123.77958 123.667038 
L 124.865382 121.530131 
L 125.951183 120.652635 
L 127.036984 118.442983 
L 128.122785 116.910775 
L 129.208586 116.387915 
L 130.294387 114.173715 
L 131.380189 112.764266 
L 132.46599 112.382351 
L 133.551791 109.822609 
L 135.723393 108.622304 
L 136.809194 107.794821 
L 137.894995 107.758448 
L 138.980797 143.144718 
L 140.066598 146.986604 
L 141.152399 146.759274 
L 142.2382 144.613273 
L 143.324001 143.990388 
L 144.409802 142.862828 
L 145.495604 142.226303 
L 146.581405 141.044184 
L 147.667206 140.362192 
L 148.753007 138.311671 
L 149.838808 136.852209 
L 150.924609 138.607201 
L 153.096212 134.196988 
L 154.182013 133.142175 
L 156.353615 132.223759 
L 157.439416 129.98228 
L 158.525217 130.068666 
L 159.611019 128.877454 
L 160.69682 128.368234 
L 161.782621 126.426831 
L 162.868422 126.317712 
L 163.954223 125.503869 
L 165.040024 123.744331 
L 166.125825 124.326297 
L 167.211627 122.316695 
L 168.297428 121.575597 
L 169.383229 121.439199 
L 170.46903 118.438436 
L 171.554831 119.188627 
L 172.640632 117.742805 
L 175.898036 114.537444 
L 176.983837 114.737495 
L 178.069638 114.505618 
L 179.155439 110.741024 
L 180.24124 111.277524 
L 181.327042 109.44524 
L 182.412843 109.44524 
L 183.498644 108.876914 
L 184.584445 105.762486 
L 185.670246 106.994617 
L 186.756047 104.798604 
L 187.841849 104.171172 
L 188.92765 102.893574 
L 190.013451 101.843307 
L 191.099252 101.811481 
L 192.185053 99.792786 
L 195.442457 97.742264 
L 196.528258 97.437642 
L 197.614059 94.764235 
L 198.69986 94.418692 
L 199.785661 93.500277 
L 200.871462 93.391158 
L 201.957264 91.895323 
L 203.043065 91.545234 
L 204.128866 89.799336 
L 205.214667 89.040052 
L 207.386269 86.639441 
L 208.472071 85.90289 
L 209.557872 85.357297 
L 210.643673 84.266111 
L 211.729474 84.475255 
L 212.815275 83.711424 
L 213.901076 84.357043 
L 214.986877 82.051911 
L 216.072679 82.897581 
L 217.15848 81.324454 
L 218.244281 82.897581 
L 219.330082 81.551784 
L 221.501684 80.378759 
L 222.587486 80.487877 
L 223.673287 81.815488 
L 224.759088 80.51061 
L 225.844889 125.390204 
L 226.93069 127.708975 
L 228.016491 127.936306 
L 229.102292 128.89564 
L 230.188094 126.572322 
L 231.273895 125.494776 
L 232.359696 126.581416 
L 233.445497 125.431123 
L 234.531298 124.653653 
L 235.617099 125.253805 
L 236.702901 124.376309 
L 237.788702 124.058047 
L 238.874503 121.539224 
L 239.960304 123.039606 
L 242.131906 122.662237 
L 243.217708 120.870873 
L 244.303509 121.193682 
L 245.38931 120.939072 
L 246.475111 119.979737 
L 247.560912 119.50689 
L 248.646713 119.947911 
L 249.732514 118.670313 
L 250.818316 118.538461 
L 251.904117 118.556648 
L 252.989918 117.783724 
L 254.075719 116.319715 
L 255.16152 116.583419 
L 256.247321 115.842321 
L 257.333123 116.674351 
L 258.418924 115.97872 
L 259.504725 115.605898 
L 260.590526 115.396754 
L 261.676327 114.510164 
L 262.762128 115.033025 
L 263.847929 113.350779 
L 264.933731 113.414431 
L 266.019532 113.359872 
L 267.105333 111.654893 
L 268.191134 112.14138 
L 269.276935 112.036808 
L 270.362736 111.713999 
L 272.534339 110.927435 
L 273.62014 109.963554 
L 274.705941 111.036554 
L 275.791742 110.777397 
L 276.877543 108.576838 
L 277.963344 109.477066 
L 279.049146 108.190376 
L 280.134947 107.840287 
L 281.220748 108.976939 
L 282.306549 107.658422 
L 283.39235 107.05827 
L 284.478151 107.517477 
L 285.563953 106.849126 
L 286.649754 106.403558 
L 287.735555 106.344452 
L 288.821356 104.930456 
L 290.992958 104.680392 
L 292.07876 104.725858 
L 293.164561 103.361875 
L 294.250362 102.902668 
L 295.336163 103.561926 
L 296.421964 101.725095 
L 297.507765 102.420727 
L 298.593566 100.706655 
L 299.679368 101.452299 
L 300.765169 99.838252 
L 301.85097 99.788239 
L 302.936771 99.219913 
L 304.022572 100.292913 
L 305.108373 98.67432 
L 306.194175 97.987781 
L 307.279976 97.792277 
L 308.365777 98.756159 
L 309.451578 97.53312 
L 310.537379 96.719277 
L 311.62318 95.296188 
L 312.708981 96.278256 
L 313.794783 95.14615 
L 314.880584 94.273201 
L 315.966385 94.873353 
L 317.052186 93.641222 
L 318.137987 93.391158 
L 319.223788 93.532103 
L 320.30959 93.209294 
L 321.395391 91.877137 
L 322.481192 91.763472 
L 323.566993 90.949628 
L 324.652794 91.649806 
L 325.738595 90.181251 
L 327.910198 90.226717 
L 328.995999 88.521738 
L 330.0818 88.580844 
L 331.167601 87.275967 
L 332.253402 87.04409 
L 333.339203 86.302992 
L 334.425005 85.784679 
L 335.510806 85.511882 
L 336.596607 84.566187 
L 337.682408 84.32067 
L 338.768209 85.034488 
L 339.85401 83.906928 
L 340.939811 81.85186 
L 343.111414 82.097377 
L 344.197215 81.283534 
L 345.283016 80.992551 
L 346.368817 79.74678 
L 347.454618 80.406038 
L 348.54042 79.328492 
L 349.626221 77.54622 
L 350.712022 78.528288 
L 351.797823 78.651047 
L 352.883624 76.050385 
L 353.969425 77.105199 
L 355.055227 75.3593 
L 358.31263 73.877105 
L 359.398431 73.613402 
L 360.484232 73.745254 
L 361.570033 72.872304 
L 362.655835 73.022343 
L 363.741636 71.10822 
L 364.827437 71.91297 
L 365.913238 70.626279 
L 366.999039 71.180965 
L 368.08484 70.985461 
L 369.170642 72.876851 
L 370.256443 73.649775 
L 371.342244 75.109237 
L 372.428045 78.019068 
L 373.513846 77.58714 
L 374.599647 77.582593 
L 375.685448 78.569208 
L 376.77125 77.687165 
L 378.942852 79.023869 
L 380.028653 77.687165 
L 381.114454 77.928135 
L 382.200255 78.787445 
L 383.286057 78.105453 
L 384.371858 78.973856 
L 385.457659 78.687419 
L 386.54346 77.809924 
L 387.629261 79.178453 
L 388.715062 79.242106 
L 389.800863 79.023869 
L 391.972466 78.910203 
L 393.058267 80.119602 
L 394.144068 78.264585 
L 395.229869 79.21028 
L 396.31567 78.273678 
L 397.401472 79.237559 
L 398.487273 79.132987 
L 398.487273 79.132987 
" clip-path="url(#pc3836c6766)" style="fill: none; stroke: #1f77b4; stroke-width: 1.5; stroke-linecap: square"/>
   </g>
   <g id="line2d_19">
    <path d="M 73.832727 279.402631 
L 74.918528 257.318601 
L 76.00433 243.080214 
L 77.090131 223.484269 
L 78.175932 216.346914 
L 79.261733 204.342355 
L 80.347534 194.571625 
L 81.433335 183.783867 
L 82.519137 186.671499 
L 83.604938 169.164094 
L 84.690739 165.20495 
L 85.77654 164.1516 
L 86.862341 153.109585 
L 87.948142 150.875757 
L 89.033943 147.080064 
L 90.119745 148.914346 
L 91.205546 138.344523 
L 92.291347 138.072104 
L 93.377148 135.729308 
L 94.462949 135.021021 
L 95.54875 171.942759 
L 96.634552 168.437645 
L 97.720353 160.918905 
L 98.806154 157.377469 
L 99.891955 161.645353 
L 100.977756 144.410366 
L 102.063557 148.187898 
L 103.149358 143.901852 
L 104.23516 144.392205 
L 105.320961 140.360417 
L 106.406762 142.485278 
L 107.492563 134.0948 
L 108.578364 127.593087 
L 109.664165 128.955178 
L 110.749967 128.864372 
L 111.835768 124.850744 
L 112.921569 118.16742 
L 114.00737 121.963112 
L 115.093171 115.279787 
L 116.178972 112.428478 
L 117.264773 114.335405 
L 118.350575 112.083415 
L 119.436376 108.977848 
L 121.607978 103.257067 
L 122.693779 99.879082 
L 123.77958 102.149233 
L 124.865382 98.625959 
L 125.951183 94.721299 
L 127.036984 92.687244 
L 128.122785 92.796211 
L 129.208586 90.362609 
L 130.294387 91.633894 
L 131.380189 88.927873 
L 132.46599 87.565783 
L 133.551791 87.36601 
L 134.637592 86.003919 
L 135.723393 86.02208 
L 136.809194 86.367143 
L 137.894995 85.858629 
L 138.980797 124.759938 
L 140.066598 126.812155 
L 141.152399 128.337697 
L 142.2382 121.055052 
L 143.324001 125.032357 
L 144.409802 121.672533 
L 145.495604 116.750845 
L 146.581405 116.496588 
L 147.667206 113.899536 
L 148.753007 114.952886 
L 149.838808 114.008503 
L 150.924609 112.482961 
L 152.01041 117.949485 
L 153.096212 111.829158 
L 154.182013 108.85072 
L 155.267814 112.882508 
L 156.353615 106.834825 
L 157.439416 107.05276 
L 158.525217 107.034599 
L 159.611019 105.726992 
L 160.69682 106.689536 
L 161.782621 104.837092 
L 162.868422 102.439813 
L 163.954223 105.345606 
L 165.040024 105.817798 
L 166.125825 99.24344 
L 167.211627 106.199183 
L 168.297428 96.918805 
L 169.383229 97.481803 
L 170.46903 98.607798 
L 171.554831 102.421652 
L 172.640632 95.066362 
L 173.726434 101.622558 
L 174.812235 92.977823 
L 175.898036 93.994851 
L 176.983837 93.341047 
L 178.069638 90.090191 
L 179.155439 93.922206 
L 180.24124 88.982357 
L 181.327042 91.070896 
L 182.412843 88.492004 
L 183.498644 84.532861 
L 184.584445 86.984624 
L 185.670246 84.078831 
L 186.756047 82.916513 
L 187.841849 82.208226 
L 188.92765 78.430695 
L 190.013451 79.756463 
L 191.099252 77.831375 
L 192.185053 78.121954 
L 193.270854 77.976665 
L 194.356656 73.781425 
L 195.442457 77.286539 
L 196.528258 74.689486 
L 197.614059 75.906287 
L 198.69986 73.835909 
L 199.785661 71.238856 
L 200.871462 71.00276 
L 201.957264 70.639536 
L 203.043065 67.733743 
L 204.128866 66.807521 
L 205.214667 67.552131 
L 206.300468 67.588453 
L 208.472071 66.371652 
L 209.557872 64.246791 
L 210.643673 62.957345 
L 211.729474 64.101501 
L 212.815275 61.83135 
L 213.901076 61.849511 
L 214.986877 62.358025 
L 216.072679 61.903995 
L 217.15848 61.667899 
L 218.244281 61.068579 
L 219.330082 61.468126 
L 220.415883 60.723516 
L 221.501684 60.995934 
L 222.587486 61.104902 
L 223.673287 60.995934 
L 224.759088 60.432937 
L 225.844889 107.670241 
L 226.93069 119.638478 
L 228.016491 115.207143 
L 229.102292 107.143566 
L 230.188094 110.939259 
L 231.273895 111.211677 
L 232.359696 108.650946 
L 233.445497 113.045959 
L 234.531298 109.341072 
L 235.617099 103.093616 
L 236.702901 105.672508 
L 237.788702 103.129939 
L 238.874503 104.292256 
L 239.960304 97.972155 
L 241.046105 98.64412 
L 242.131906 108.305883 
L 243.217708 105.091349 
L 244.303509 100.224145 
L 245.38931 110.848452 
L 246.475111 100.877949 
L 247.560912 97.826866 
L 248.646713 93.97669 
L 249.732514 103.184422 
L 250.818316 101.368301 
L 251.904117 97.263868 
L 252.989918 94.993717 
L 254.075719 99.24344 
L 255.16152 99.261601 
L 256.247321 96.246841 
L 257.333123 98.498831 
L 258.418924 99.497697 
L 259.504725 95.266135 
L 260.590526 97.154901 
L 261.676327 100.151501 
L 262.762128 99.751954 
L 263.847929 91.252508 
L 264.933731 98.880216 
L 266.019532 94.866589 
L 267.105333 91.452282 
L 268.191134 92.669082 
L 269.276935 92.759889 
L 270.362736 89.890418 
L 271.448538 88.001652 
L 272.534339 91.597571 
L 273.62014 89.944901 
L 274.705941 93.141274 
L 275.791742 89.509032 
L 276.877543 93.504498 
L 277.963344 91.070896 
L 279.049146 87.602105 
L 280.134947 92.723566 
L 281.220748 83.061803 
L 282.306549 90.52606 
L 283.39235 93.958528 
L 284.478151 87.874523 
L 285.563953 88.7281 
L 286.649754 90.435254 
L 287.735555 84.460216 
L 288.821356 86.439788 
L 289.907157 89.726967 
L 292.07876 84.896085 
L 293.164561 84.36941 
L 294.250362 87.36601 
L 295.336163 81.009586 
L 296.421964 87.620266 
L 297.507765 88.27407 
L 298.593566 89.073163 
L 299.679368 82.026614 
L 300.765169 85.56805 
L 301.85097 85.71334 
L 302.936771 81.154876 
L 304.022572 81.863163 
L 305.108373 75.65203 
L 306.194175 80.628201 
L 307.279976 79.738302 
L 308.365777 80.210493 
L 309.451578 79.429561 
L 310.537379 75.198 
L 311.62318 81.100393 
L 312.708981 80.737168 
L 313.794783 81.354649 
L 314.880584 77.577118 
L 315.966385 74.271778 
L 317.052186 73.799587 
L 318.137987 75.415934 
L 319.223788 81.100393 
L 320.30959 78.557823 
L 321.395391 74.271778 
L 322.481192 74.980065 
L 323.566993 75.924448 
L 324.652794 70.857471 
L 325.738595 69.749637 
L 326.824396 73.454524 
L 327.910198 72.274045 
L 330.0818 70.421602 
L 331.167601 69.767798 
L 332.253402 68.805254 
L 333.339203 68.678126 
L 334.425005 69.005027 
L 335.510806 69.931249 
L 336.596607 66.099234 
L 337.682408 65.300141 
L 339.85401 66.444297 
L 342.025613 61.395481 
L 343.111414 61.104902 
L 344.197215 62.448831 
L 345.283016 63.211602 
L 346.368817 61.649738 
L 347.454618 61.758705 
L 348.54042 59.488554 
L 349.626221 58.816589 
L 350.712022 59.978907 
L 352.883624 57.763239 
L 353.969425 57.127597 
L 355.055227 58.362559 
L 356.141028 57.454499 
L 357.226829 57.436337 
L 358.31263 55.093542 
L 359.398431 56.909662 
L 360.484232 56.401149 
L 361.570033 56.510116 
L 362.655835 54.566866 
L 363.741636 56.364826 
L 364.827437 54.730317 
L 365.913238 53.568 
L 366.999039 53.568 
L 368.08484 54.966413 
L 369.170642 55.275154 
L 370.256443 55.96528 
L 371.342244 58.598655 
L 372.428045 58.253592 
L 373.513846 58.453365 
L 374.599647 59.506715 
L 375.685448 60.124196 
L 376.77125 58.6713 
L 377.857051 60.106035 
L 378.942852 60.669033 
L 380.028653 58.816589 
L 381.114454 61.177546 
L 382.200255 61.922156 
L 383.286057 62.43067 
L 384.371858 60.196841 
L 385.457659 62.43067 
L 386.54346 61.340997 
L 387.629261 60.723516 
L 388.715062 59.016363 
L 389.800863 60.287647 
L 390.886665 63.774599 
L 391.972466 60.414776 
L 393.058267 61.068579 
L 394.144068 61.37732 
L 395.229869 61.141224 
L 396.31567 62.485154 
L 397.401472 63.520342 
L 398.487273 59.415909 
L 398.487273 59.415909 
" clip-path="url(#pc3836c6766)" style="fill: none; stroke: #ff7f0e; stroke-width: 1.5; stroke-linecap: square"/>
   </g>
   <g id="line2d_20">
    <path d="M 73.832727 288.324795 
L 74.918528 279.181565 
L 76.00433 271.666582 
L 77.090131 262.147604 
L 78.175932 257.012366 
L 79.261733 248.871134 
L 80.347534 249.873132 
L 81.433335 236.972411 
L 82.519137 239.602655 
L 83.604938 234.342167 
L 84.690739 232.713921 
L 85.77654 230.083677 
L 86.862341 217.934454 
L 87.948142 220.940448 
L 89.033943 218.310204 
L 90.119745 221.817196 
L 91.205546 209.793223 
L 93.377148 208.164977 
L 94.462949 208.164977 
L 95.54875 234.467417 
L 96.634552 227.829182 
L 97.720353 228.330181 
L 98.806154 224.572689 
L 99.891955 230.334176 
L 100.977756 212.047718 
L 102.063557 217.182956 
L 103.149358 214.051713 
L 104.23516 214.302213 
L 105.320961 206.53673 
L 106.406762 214.552712 
L 107.492563 207.914477 
L 108.578364 204.031736 
L 109.664165 199.522746 
L 110.749967 202.15299 
L 111.835768 202.02774 
L 112.921569 198.01975 
L 114.00737 198.520748 
L 115.093171 196.141004 
L 116.178972 190.755266 
L 117.264773 192.007763 
L 118.350575 189.753268 
L 119.436376 190.504767 
L 120.522177 185.620028 
L 121.607978 185.494778 
L 122.693779 179.482792 
L 123.77958 179.983791 
L 124.865382 176.977797 
L 125.951183 173.095056 
L 127.036984 173.470805 
L 128.122785 174.973802 
L 129.208586 174.848552 
L 130.294387 173.095056 
L 132.46599 171.46681 
L 133.551791 172.468808 
L 135.723393 168.836566 
L 137.894995 171.091061 
L 138.980797 204.156986 
L 140.066598 202.904489 
L 141.152399 205.409483 
L 142.2382 194.763257 
L 143.324001 201.902491 
L 144.409802 199.146997 
L 145.495604 192.759262 
L 146.581405 192.884511 
L 147.667206 193.51076 
L 148.753007 191.757264 
L 149.838808 187.999772 
L 150.924609 191.005766 
L 152.01041 191.882514 
L 153.096212 184.367531 
L 154.182013 187.373524 
L 155.267814 194.262258 
L 156.353615 186.246276 
L 157.439416 188.751271 
L 158.525217 184.367531 
L 159.611019 184.117031 
L 161.782621 184.61803 
L 162.868422 178.355544 
L 163.954223 189.00177 
L 166.125825 174.222304 
L 167.211627 180.35954 
L 168.297428 173.721305 
L 169.383229 175.349551 
L 170.46903 184.993779 
L 171.554831 182.739284 
L 172.640632 174.723302 
L 173.726434 184.868529 
L 174.812235 173.596055 
L 175.898036 170.840561 
L 176.983837 175.474801 
L 178.069638 174.723302 
L 179.155439 174.723302 
L 180.24124 170.840561 
L 182.412843 169.713314 
L 183.498644 162.949829 
L 184.584445 167.584069 
L 185.670246 164.828575 
L 186.756047 163.701327 
L 187.841849 166.206322 
L 188.92765 159.442837 
L 190.013451 162.073081 
L 191.099252 163.325578 
L 192.185053 162.198331 
L 193.270854 156.186345 
L 194.356656 158.691339 
L 195.442457 160.570085 
L 196.528258 157.313592 
L 197.614059 159.067088 
L 198.69986 154.307599 
L 199.785661 153.430851 
L 200.871462 154.808598 
L 201.957264 152.929852 
L 203.043065 150.174358 
L 204.128866 151.301606 
L 205.214667 147.919863 
L 206.300468 153.430851 
L 207.386269 153.055102 
L 209.557872 146.917866 
L 210.643673 146.291617 
L 211.729474 148.546112 
L 212.815275 145.03912 
L 213.901076 144.037122 
L 214.986877 141.156379 
L 216.072679 144.162372 
L 218.244281 143.410874 
L 219.330082 142.659375 
L 220.415883 142.534126 
L 221.501684 141.657378 
L 222.587486 143.160374 
L 223.673287 142.534126 
L 224.759088 143.536123 
L 225.844889 183.991781 
L 226.93069 202.904489 
L 228.016491 189.252269 
L 229.102292 180.735289 
L 230.188094 188.751271 
L 231.273895 189.377519 
L 232.359696 187.624023 
L 233.445497 188.626021 
L 234.531298 182.238285 
L 235.617099 181.737287 
L 236.702901 177.353547 
L 237.788702 180.610039 
L 238.874503 187.498773 
L 239.960304 179.983791 
L 241.046105 175.85055 
L 242.131906 186.121027 
L 243.217708 182.864534 
L 244.303509 177.604046 
L 245.38931 188.125022 
L 246.475111 172.343558 
L 247.560912 180.484789 
L 248.646713 171.21631 
L 249.732514 182.864534 
L 250.818316 180.484789 
L 251.904117 174.347553 
L 252.989918 174.472803 
L 254.075719 173.095056 
L 255.16152 172.218308 
L 256.247321 174.222304 
L 257.333123 175.60005 
L 258.418924 182.739284 
L 259.504725 175.7253 
L 260.590526 183.115033 
L 261.676327 181.612037 
L 262.762128 184.868529 
L 263.847929 174.222304 
L 264.933731 179.107043 
L 266.019532 180.484789 
L 267.105333 173.721305 
L 268.191134 173.095056 
L 269.276935 171.59206 
L 271.448538 166.081072 
L 273.62014 167.08307 
L 274.705941 170.590062 
L 275.791742 163.826577 
L 276.877543 171.59206 
L 277.963344 166.206322 
L 279.049146 161.446833 
L 280.134947 167.458819 
L 281.220748 168.085068 
L 282.306549 171.21631 
L 283.39235 180.23429 
L 284.478151 162.824579 
L 285.563953 163.450828 
L 286.649754 174.472803 
L 287.735555 165.830573 
L 288.821356 167.08307 
L 289.907157 174.598053 
L 290.992958 166.456821 
L 292.07876 164.953825 
L 293.164561 160.945834 
L 294.250362 163.450828 
L 295.336163 161.321583 
L 296.421964 170.089063 
L 297.507765 167.458819 
L 298.593566 169.963813 
L 299.679368 165.079074 
L 300.765169 166.456821 
L 301.85097 165.079074 
L 302.936771 161.446833 
L 304.022572 160.945834 
L 305.108373 151.426855 
L 306.194175 164.327576 
L 307.279976 161.446833 
L 308.365777 160.069086 
L 309.451578 164.202326 
L 310.537379 150.299608 
L 311.62318 163.450828 
L 312.708981 159.192338 
L 313.794783 165.580073 
L 314.880584 156.562094 
L 315.966385 151.301606 
L 317.052186 150.800607 
L 318.137987 153.8066 
L 319.223788 163.075079 
L 320.30959 163.450828 
L 321.395391 151.426855 
L 322.481192 152.929852 
L 323.566993 155.560096 
L 324.652794 150.299608 
L 325.738595 150.299608 
L 326.824396 155.685346 
L 327.910198 151.426855 
L 328.995999 152.554103 
L 330.0818 150.800607 
L 331.167601 142.408876 
L 332.253402 152.303603 
L 333.339203 148.546112 
L 334.425005 147.669364 
L 335.510806 151.426855 
L 336.596607 146.291617 
L 337.682408 145.289619 
L 338.768209 147.544114 
L 339.85401 141.657378 
L 340.939811 139.653382 
L 342.025613 140.905879 
L 343.111414 140.53013 
L 344.197215 143.285624 
L 346.368817 141.907877 
L 347.454618 143.786623 
L 348.54042 136.27164 
L 349.626221 134.893893 
L 350.712022 139.528132 
L 351.797823 136.396889 
L 352.883624 135.895891 
L 353.969425 132.388899 
L 355.055227 140.029131 
L 356.141028 132.388899 
L 357.226829 132.514148 
L 359.398431 136.14639 
L 360.484232 134.768643 
L 361.570033 134.017145 
L 362.655835 132.263649 
L 363.741636 136.647389 
L 365.913238 127.879909 
L 366.999039 133.641396 
L 368.08484 133.140397 
L 369.170642 134.017145 
L 370.256443 133.140397 
L 371.342244 136.772639 
L 372.428045 139.903882 
L 373.513846 133.140397 
L 374.599647 139.152383 
L 375.685448 137.023138 
L 376.77125 139.653382 
L 377.857051 140.154381 
L 378.942852 137.524137 
L 380.028653 140.029131 
L 381.114454 143.410874 
L 383.286057 138.776634 
L 384.371858 138.526135 
L 385.457659 142.909875 
L 386.54346 143.911872 
L 387.629261 141.406878 
L 388.715062 136.396889 
L 389.800863 141.281628 
L 390.886665 147.418864 
L 391.972466 141.156379 
L 393.058267 140.905879 
L 394.144068 140.78063 
L 395.229869 141.281628 
L 396.31567 143.410874 
L 397.401472 144.287622 
L 398.487273 137.774636 
L 398.487273 137.774636 
" clip-path="url(#pc3836c6766)" style="fill: none; stroke: #2ca02c; stroke-width: 1.5; stroke-linecap: square"/>
   </g>
   <g id="line2d_21">
    <path d="M 368.08484 54.494222 
L 369.170642 56.455632 
L 370.256443 58.126463 
L 371.342244 57.581627 
L 372.428045 58.017496 
L 373.513846 57.745078 
L 374.599647 60.669033 
L 375.685448 58.834751 
L 376.77125 62.194574 
L 377.857051 64.446564 
L 378.942852 64.264952 
L 380.028653 65.064045 
L 381.114454 61.885834 
L 382.200255 63.919889 
L 383.286057 66.64407 
L 384.371858 64.955078 
L 385.457659 65.499914 
L 386.54346 66.698554 
L 387.629261 65.917622 
L 388.715062 76.469284 
L 389.800863 69.113995 
L 390.886665 69.440896 
L 391.972466 72.419335 
L 393.058267 73.127622 
L 394.144068 71.456791 
L 395.229869 75.161677 
L 396.31567 79.284272 
L 397.401472 73.690619 
L 398.487273 82.952836 
L 398.487273 82.952836 
" clip-path="url(#pc3836c6766)" style="fill: none; stroke: #d62728; stroke-width: 1.5; stroke-linecap: square"/>
   </g>
   <g id="line2d_22">
    <path d="M 368.08484 133.891895 
L 369.170642 134.893893 
L 370.256443 134.392894 
L 371.342244 142.659375 
L 372.428045 136.27164 
L 373.513846 135.895891 
L 374.599647 137.774636 
L 375.685448 137.148388 
L 376.77125 137.774636 
L 377.857051 142.408876 
L 378.942852 148.295612 
L 380.028653 143.911872 
L 381.114454 144.162372 
L 382.200255 146.416867 
L 383.286057 144.78862 
L 384.371858 141.782627 
L 385.457659 144.663371 
L 386.54346 139.277633 
L 387.629261 140.78063 
L 388.715062 158.691339 
L 389.800863 147.544114 
L 390.886665 150.424858 
L 391.972466 150.550107 
L 393.058267 155.184347 
L 394.144068 150.424858 
L 395.229869 151.677355 
L 396.31567 165.955822 
L 397.401472 155.810595 
L 398.487273 167.08307 
L 398.487273 167.08307 
" clip-path="url(#pc3836c6766)" style="fill: none; stroke: #9467bd; stroke-width: 1.5; stroke-linecap: square"/>
   </g>
   <g id="patch_3">
    <path d="M 57.6 307.584 
L 57.6 41.472 
" style="fill: none; stroke: #000000; stroke-width: 0.8; stroke-linejoin: miter; stroke-linecap: square"/>
   </g>
   <g id="patch_4">
    <path d="M 414.72 307.584 
L 414.72 41.472 
" style="fill: none; stroke: #000000; stroke-width: 0.8; stroke-linejoin: miter; stroke-linecap: square"/>
   </g>
   <g id="patch_5">
    <path d="M 57.6 307.584 
L 414.72 307.584 
" style="fill: none; stroke: #000000; stroke-width: 0.8; stroke-linejoin: miter; stroke-linecap: square"/>
   </g>
   <g id="patch_6">
    <path d="M 57.6 41.472 
L 414.72 41.472 
" style="fill: none; stroke: #000000; stroke-width: 0.8; stroke-linejoin: miter; stroke-linecap: square"/>
   </g>
   <g id="text_20">
    <!-- Learning Curves -->
    <g transform="translate(187.37625 35.472) scale(0.12 -0.12)">
     <defs>
      <path id="DejaVuSans-4c" d="M 628 4666 
L 1259 4666 
L 1259 531 
L 3531 531 
L 3531 0 
L 628 0 
L 628 4666 
z
" transform="scale(0.015625)"/>
      <path id="DejaVuSans-65" d="M 3597 1894 
L 3597 1613 
L 953 1613 
Q 991 1019 1311 708 
Q 1631 397 2203 397 
Q 2534 397 2845 478 
Q 3156 559 3463 722 
L 3463 178 
Q 3153 47 2828 -22 
Q 2503 -91 2169 -91 
Q 1331 -91 842 396 
Q 353 884 353 1716 
Q 353 2575 817 3079 
Q 1281 3584 2069 3584 
Q 2775 3584 3186 3129 
Q 3597 2675 3597 1894 
z
M 3022 2063 
Q 3016 2534 2758 2815 
Q 2500 3097 2075 3097 
Q 1594 3097 1305 2825 
Q 1016 2553 972 2059 
L 3022 2063 
z
" transform="scale(0.015625)"/>
      <path id="DejaVuSans-6e" d="M 3513 2113 
L 3513 0 
L 2938 0 
L 2938 2094 
Q 2938 2591 2744 2837 
Q 2550 3084 2163 3084 
Q 1697 3084 1428 2787 
Q 1159 2491 1159 1978 
L 1159 0 
L 581 0 
L 581 3500 
L 1159 3500 
L 1159 2956 
Q 1366 3272 1645 3428 
Q 1925 3584 2291 3584 
Q 2894 3584 3203 3211 
Q 3513 2838 3513 2113 
z
" transform="scale(0.015625)"/>
      <path id="DejaVuSans-69" d="M 603 3500 
L 1178 3500 
L 1178 0 
L 603 0 
L 603 3500 
z
M 603 4863 
L 1178 4863 
L 1178 4134 
L 603 4134 
L 603 4863 
z
" transform="scale(0.015625)"/>
      <path id="DejaVuSans-67" d="M 2906 1791 
Q 2906 2416 2648 2759 
Q 2391 3103 1925 3103 
Q 1463 3103 1205 2759 
Q 947 2416 947 1791 
Q 947 1169 1205 825 
Q 1463 481 1925 481 
Q 2391 481 2648 825 
Q 2906 1169 2906 1791 
z
M 3481 434 
Q 3481 -459 3084 -895 
Q 2688 -1331 1869 -1331 
Q 1566 -1331 1297 -1286 
Q 1028 -1241 775 -1147 
L 775 -588 
Q 1028 -725 1275 -790 
Q 1522 -856 1778 -856 
Q 2344 -856 2625 -561 
Q 2906 -266 2906 331 
L 2906 616 
Q 2728 306 2450 153 
Q 2172 0 1784 0 
Q 1141 0 747 490 
Q 353 981 353 1791 
Q 353 2603 747 3093 
Q 1141 3584 1784 3584 
Q 2172 3584 2450 3431 
Q 2728 3278 2906 2969 
L 2906 3500 
L 3481 3500 
L 3481 434 
z
" transform="scale(0.015625)"/>
      <path id="DejaVuSans-20" transform="scale(0.015625)"/>
      <path id="DejaVuSans-43" d="M 4122 4306 
L 4122 3641 
Q 3803 3938 3442 4084 
Q 3081 4231 2675 4231 
Q 1875 4231 1450 3742 
Q 1025 3253 1025 2328 
Q 1025 1406 1450 917 
Q 1875 428 2675 428 
Q 3081 428 3442 575 
Q 3803 722 4122 1019 
L 4122 359 
Q 3791 134 3420 21 
Q 3050 -91 2638 -91 
Q 1578 -91 968 557 
Q 359 1206 359 2328 
Q 359 3453 968 4101 
Q 1578 4750 2638 4750 
Q 3056 4750 3426 4639 
Q 3797 4528 4122 4306 
z
" transform="scale(0.015625)"/>
      <path id="DejaVuSans-76" d="M 191 3500 
L 800 3500 
L 1894 563 
L 2988 3500 
L 3597 3500 
L 2284 0 
L 1503 0 
L 191 3500 
z
" transform="scale(0.015625)"/>
     </defs>
     <use xlink:href="#DejaVuSans-4c"/>
     <use xlink:href="#DejaVuSans-65" x="53.962891"/>
     <use xlink:href="#DejaVuSans-61" x="115.486328"/>
     <use xlink:href="#DejaVuSans-72" x="176.765625"/>
     <use xlink:href="#DejaVuSans-6e" x="216.128906"/>
     <use xlink:href="#DejaVuSans-69" x="279.507812"/>
     <use xlink:href="#DejaVuSans-6e" x="307.291016"/>
     <use xlink:href="#DejaVuSans-67" x="370.669922"/>
     <use xlink:href="#DejaVuSans-20" x="434.146484"/>
     <use xlink:href="#DejaVuSans-43" x="465.933594"/>
     <use xlink:href="#DejaVuSans-75" x="535.757812"/>
     <use xlink:href="#DejaVuSans-72" x="599.136719"/>
     <use xlink:href="#DejaVuSans-76" x="640.25"/>
     <use xlink:href="#DejaVuSans-65" x="699.429688"/>
     <use xlink:href="#DejaVuSans-73" x="760.953125"/>
    </g>
   </g>
   <g id="legend_1">
    <g id="patch_7">
     <path d="M 214.18875 302.584 
L 407.72 302.584 
Q 409.72 302.584 409.72 300.584 
L 409.72 228.193375 
Q 409.72 226.193375 407.72 226.193375 
L 214.18875 226.193375 
Q 212.18875 226.193375 212.18875 228.193375 
L 212.18875 300.584 
Q 212.18875 302.584 214.18875 302.584 
z
" style="fill: #ffffff; opacity: 0.8; stroke: #cccccc; stroke-linejoin: miter"/>
    </g>
    <g id="line2d_23">
     <path d="M 216.18875 234.291812 
L 226.18875 234.291812 
L 236.18875 234.291812 
" style="fill: none; stroke: #1f77b4; stroke-width: 1.5; stroke-linecap: square"/>
    </g>
    <g id="text_21">
     <!-- Train Accuracy -->
     <g transform="translate(244.18875 237.791812) scale(0.1 -0.1)">
      <defs>
       <path id="DejaVuSans-54" d="M -19 4666 
L 3928 4666 
L 3928 4134 
L 2272 4134 
L 2272 0 
L 1638 0 
L 1638 4134 
L -19 4134 
L -19 4666 
z
" transform="scale(0.015625)"/>
      </defs>
      <use xlink:href="#DejaVuSans-54"/>
      <use xlink:href="#DejaVuSans-72" x="46.333984"/>
      <use xlink:href="#DejaVuSans-61" x="87.447266"/>
      <use xlink:href="#DejaVuSans-69" x="148.726562"/>
      <use xlink:href="#DejaVuSans-6e" x="176.509766"/>
      <use xlink:href="#DejaVuSans-20" x="239.888672"/>
      <use xlink:href="#DejaVuSans-41" x="271.675781"/>
      <use xlink:href="#DejaVuSans-63" x="338.333984"/>
      <use xlink:href="#DejaVuSans-63" x="393.314453"/>
      <use xlink:href="#DejaVuSans-75" x="448.294922"/>
      <use xlink:href="#DejaVuSans-72" x="511.673828"/>
      <use xlink:href="#DejaVuSans-61" x="552.787109"/>
      <use xlink:href="#DejaVuSans-63" x="614.066406"/>
      <use xlink:href="#DejaVuSans-79" x="669.046875"/>
     </g>
    </g>
    <g id="line2d_24">
     <path d="M 216.18875 248.969937 
L 226.18875 248.969937 
L 236.18875 248.969937 
" style="fill: none; stroke: #ff7f0e; stroke-width: 1.5; stroke-linecap: square"/>
    </g>
    <g id="text_22">
     <!-- Validation Accuracy -->
     <g transform="translate(244.18875 252.469937) scale(0.1 -0.1)">
      <defs>
       <path id="DejaVuSans-56" d="M 1831 0 
L 50 4666 
L 709 4666 
L 2188 738 
L 3669 4666 
L 4325 4666 
L 2547 0 
L 1831 0 
z
" transform="scale(0.015625)"/>
       <path id="DejaVuSans-6c" d="M 603 4863 
L 1178 4863 
L 1178 0 
L 603 0 
L 603 4863 
z
" transform="scale(0.015625)"/>
       <path id="DejaVuSans-64" d="M 2906 2969 
L 2906 4863 
L 3481 4863 
L 3481 0 
L 2906 0 
L 2906 525 
Q 2725 213 2448 61 
Q 2172 -91 1784 -91 
Q 1150 -91 751 415 
Q 353 922 353 1747 
Q 353 2572 751 3078 
Q 1150 3584 1784 3584 
Q 2172 3584 2448 3432 
Q 2725 3281 2906 2969 
z
M 947 1747 
Q 947 1113 1208 752 
Q 1469 391 1925 391 
Q 2381 391 2643 752 
Q 2906 1113 2906 1747 
Q 2906 2381 2643 2742 
Q 2381 3103 1925 3103 
Q 1469 3103 1208 2742 
Q 947 2381 947 1747 
z
" transform="scale(0.015625)"/>
       <path id="DejaVuSans-74" d="M 1172 4494 
L 1172 3500 
L 2356 3500 
L 2356 3053 
L 1172 3053 
L 1172 1153 
Q 1172 725 1289 603 
Q 1406 481 1766 481 
L 2356 481 
L 2356 0 
L 1766 0 
Q 1100 0 847 248 
Q 594 497 594 1153 
L 594 3053 
L 172 3053 
L 172 3500 
L 594 3500 
L 594 4494 
L 1172 4494 
z
" transform="scale(0.015625)"/>
      </defs>
      <use xlink:href="#DejaVuSans-56"/>
      <use xlink:href="#DejaVuSans-61" x="60.658203"/>
      <use xlink:href="#DejaVuSans-6c" x="121.9375"/>
      <use xlink:href="#DejaVuSans-69" x="149.720703"/>
      <use xlink:href="#DejaVuSans-64" x="177.503906"/>
      <use xlink:href="#DejaVuSans-61" x="240.980469"/>
      <use xlink:href="#DejaVuSans-74" x="302.259766"/>
      <use xlink:href="#DejaVuSans-69" x="341.46875"/>
      <use xlink:href="#DejaVuSans-6f" x="369.251953"/>
      <use xlink:href="#DejaVuSans-6e" x="430.433594"/>
      <use xlink:href="#DejaVuSans-20" x="493.8125"/>
      <use xlink:href="#DejaVuSans-41" x="525.599609"/>
      <use xlink:href="#DejaVuSans-63" x="592.257812"/>
      <use xlink:href="#DejaVuSans-63" x="647.238281"/>
      <use xlink:href="#DejaVuSans-75" x="702.21875"/>
      <use xlink:href="#DejaVuSans-72" x="765.597656"/>
      <use xlink:href="#DejaVuSans-61" x="806.710938"/>
      <use xlink:href="#DejaVuSans-63" x="867.990234"/>
      <use xlink:href="#DejaVuSans-79" x="922.970703"/>
     </g>
    </g>
    <g id="line2d_25">
     <path d="M 216.18875 263.648062 
L 226.18875 263.648062 
L 236.18875 263.648062 
" style="fill: none; stroke: #2ca02c; stroke-width: 1.5; stroke-linecap: square"/>
    </g>
    <g id="text_23">
     <!-- Robust Validation Accuracy -->
     <g transform="translate(244.18875 267.148062) scale(0.1 -0.1)">
      <defs>
       <path id="DejaVuSans-52" d="M 2841 2188 
Q 3044 2119 3236 1894 
Q 3428 1669 3622 1275 
L 4263 0 
L 3584 0 
L 2988 1197 
Q 2756 1666 2539 1819 
Q 2322 1972 1947 1972 
L 1259 1972 
L 1259 0 
L 628 0 
L 628 4666 
L 2053 4666 
Q 2853 4666 3247 4331 
Q 3641 3997 3641 3322 
Q 3641 2881 3436 2590 
Q 3231 2300 2841 2188 
z
M 1259 4147 
L 1259 2491 
L 2053 2491 
Q 2509 2491 2742 2702 
Q 2975 2913 2975 3322 
Q 2975 3731 2742 3939 
Q 2509 4147 2053 4147 
L 1259 4147 
z
" transform="scale(0.015625)"/>
       <path id="DejaVuSans-62" d="M 3116 1747 
Q 3116 2381 2855 2742 
Q 2594 3103 2138 3103 
Q 1681 3103 1420 2742 
Q 1159 2381 1159 1747 
Q 1159 1113 1420 752 
Q 1681 391 2138 391 
Q 2594 391 2855 752 
Q 3116 1113 3116 1747 
z
M 1159 2969 
Q 1341 3281 1617 3432 
Q 1894 3584 2278 3584 
Q 2916 3584 3314 3078 
Q 3713 2572 3713 1747 
Q 3713 922 3314 415 
Q 2916 -91 2278 -91 
Q 1894 -91 1617 61 
Q 1341 213 1159 525 
L 1159 0 
L 581 0 
L 581 4863 
L 1159 4863 
L 1159 2969 
z
" transform="scale(0.015625)"/>
      </defs>
      <use xlink:href="#DejaVuSans-52"/>
      <use xlink:href="#DejaVuSans-6f" x="64.982422"/>
      <use xlink:href="#DejaVuSans-62" x="126.164062"/>
      <use xlink:href="#DejaVuSans-75" x="189.640625"/>
      <use xlink:href="#DejaVuSans-73" x="253.019531"/>
      <use xlink:href="#DejaVuSans-74" x="305.119141"/>
      <use xlink:href="#DejaVuSans-20" x="344.328125"/>
      <use xlink:href="#DejaVuSans-56" x="376.115234"/>
      <use xlink:href="#DejaVuSans-61" x="436.773438"/>
      <use xlink:href="#DejaVuSans-6c" x="498.052734"/>
      <use xlink:href="#DejaVuSans-69" x="525.835938"/>
      <use xlink:href="#DejaVuSans-64" x="553.619141"/>
      <use xlink:href="#DejaVuSans-61" x="617.095703"/>
      <use xlink:href="#DejaVuSans-74" x="678.375"/>
      <use xlink:href="#DejaVuSans-69" x="717.583984"/>
      <use xlink:href="#DejaVuSans-6f" x="745.367188"/>
      <use xlink:href="#DejaVuSans-6e" x="806.548828"/>
      <use xlink:href="#DejaVuSans-20" x="869.927734"/>
      <use xlink:href="#DejaVuSans-41" x="901.714844"/>
      <use xlink:href="#DejaVuSans-63" x="968.373047"/>
      <use xlink:href="#DejaVuSans-63" x="1023.353516"/>
      <use xlink:href="#DejaVuSans-75" x="1078.333984"/>
      <use xlink:href="#DejaVuSans-72" x="1141.712891"/>
      <use xlink:href="#DejaVuSans-61" x="1182.826172"/>
      <use xlink:href="#DejaVuSans-63" x="1244.105469"/>
      <use xlink:href="#DejaVuSans-79" x="1299.085938"/>
     </g>
    </g>
    <g id="line2d_26">
     <path d="M 216.18875 278.326188 
L 226.18875 278.326188 
L 236.18875 278.326188 
" style="fill: none; stroke: #d62728; stroke-width: 1.5; stroke-linecap: square"/>
    </g>
    <g id="text_24">
     <!-- SWA Validation Accuracy -->
     <g transform="translate(244.18875 281.826188) scale(0.1 -0.1)">
      <defs>
       <path id="DejaVuSans-53" d="M 3425 4513 
L 3425 3897 
Q 3066 4069 2747 4153 
Q 2428 4238 2131 4238 
Q 1616 4238 1336 4038 
Q 1056 3838 1056 3469 
Q 1056 3159 1242 3001 
Q 1428 2844 1947 2747 
L 2328 2669 
Q 3034 2534 3370 2195 
Q 3706 1856 3706 1288 
Q 3706 609 3251 259 
Q 2797 -91 1919 -91 
Q 1588 -91 1214 -16 
Q 841 59 441 206 
L 441 856 
Q 825 641 1194 531 
Q 1563 422 1919 422 
Q 2459 422 2753 634 
Q 3047 847 3047 1241 
Q 3047 1584 2836 1778 
Q 2625 1972 2144 2069 
L 1759 2144 
Q 1053 2284 737 2584 
Q 422 2884 422 3419 
Q 422 4038 858 4394 
Q 1294 4750 2059 4750 
Q 2388 4750 2728 4690 
Q 3069 4631 3425 4513 
z
" transform="scale(0.015625)"/>
       <path id="DejaVuSans-57" d="M 213 4666 
L 850 4666 
L 1831 722 
L 2809 4666 
L 3519 4666 
L 4500 722 
L 5478 4666 
L 6119 4666 
L 4947 0 
L 4153 0 
L 3169 4050 
L 2175 0 
L 1381 0 
L 213 4666 
z
" transform="scale(0.015625)"/>
      </defs>
      <use xlink:href="#DejaVuSans-53"/>
      <use xlink:href="#DejaVuSans-57" x="63.476562"/>
      <use xlink:href="#DejaVuSans-41" x="156.853516"/>
      <use xlink:href="#DejaVuSans-20" x="225.261719"/>
      <use xlink:href="#DejaVuSans-56" x="257.048828"/>
      <use xlink:href="#DejaVuSans-61" x="317.707031"/>
      <use xlink:href="#DejaVuSans-6c" x="378.986328"/>
      <use xlink:href="#DejaVuSans-69" x="406.769531"/>
      <use xlink:href="#DejaVuSans-64" x="434.552734"/>
      <use xlink:href="#DejaVuSans-61" x="498.029297"/>
      <use xlink:href="#DejaVuSans-74" x="559.308594"/>
      <use xlink:href="#DejaVuSans-69" x="598.517578"/>
      <use xlink:href="#DejaVuSans-6f" x="626.300781"/>
      <use xlink:href="#DejaVuSans-6e" x="687.482422"/>
      <use xlink:href="#DejaVuSans-20" x="750.861328"/>
      <use xlink:href="#DejaVuSans-41" x="782.648438"/>
      <use xlink:href="#DejaVuSans-63" x="849.306641"/>
      <use xlink:href="#DejaVuSans-63" x="904.287109"/>
      <use xlink:href="#DejaVuSans-75" x="959.267578"/>
      <use xlink:href="#DejaVuSans-72" x="1022.646484"/>
      <use xlink:href="#DejaVuSans-61" x="1063.759766"/>
      <use xlink:href="#DejaVuSans-63" x="1125.039062"/>
      <use xlink:href="#DejaVuSans-79" x="1180.019531"/>
     </g>
    </g>
    <g id="line2d_27">
     <path d="M 216.18875 293.004312 
L 226.18875 293.004312 
L 236.18875 293.004312 
" style="fill: none; stroke: #9467bd; stroke-width: 1.5; stroke-linecap: square"/>
    </g>
    <g id="text_25">
     <!-- SWA Robust Validation Accuracy -->
     <g transform="translate(244.18875 296.504312) scale(0.1 -0.1)">
      <use xlink:href="#DejaVuSans-53"/>
      <use xlink:href="#DejaVuSans-57" x="63.476562"/>
      <use xlink:href="#DejaVuSans-41" x="156.853516"/>
      <use xlink:href="#DejaVuSans-20" x="225.261719"/>
      <use xlink:href="#DejaVuSans-52" x="257.048828"/>
      <use xlink:href="#DejaVuSans-6f" x="322.03125"/>
      <use xlink:href="#DejaVuSans-62" x="383.212891"/>
      <use xlink:href="#DejaVuSans-75" x="446.689453"/>
      <use xlink:href="#DejaVuSans-73" x="510.068359"/>
      <use xlink:href="#DejaVuSans-74" x="562.167969"/>
      <use xlink:href="#DejaVuSans-20" x="601.376953"/>
      <use xlink:href="#DejaVuSans-56" x="633.164062"/>
      <use xlink:href="#DejaVuSans-61" x="693.822266"/>
      <use xlink:href="#DejaVuSans-6c" x="755.101562"/>
      <use xlink:href="#DejaVuSans-69" x="782.884766"/>
      <use xlink:href="#DejaVuSans-64" x="810.667969"/>
      <use xlink:href="#DejaVuSans-61" x="874.144531"/>
      <use xlink:href="#DejaVuSans-74" x="935.423828"/>
      <use xlink:href="#DejaVuSans-69" x="974.632812"/>
      <use xlink:href="#DejaVuSans-6f" x="1002.416016"/>
      <use xlink:href="#DejaVuSans-6e" x="1063.597656"/>
      <use xlink:href="#DejaVuSans-20" x="1126.976562"/>
      <use xlink:href="#DejaVuSans-41" x="1158.763672"/>
      <use xlink:href="#DejaVuSans-63" x="1225.421875"/>
      <use xlink:href="#DejaVuSans-63" x="1280.402344"/>
      <use xlink:href="#DejaVuSans-75" x="1335.382812"/>
      <use xlink:href="#DejaVuSans-72" x="1398.761719"/>
      <use xlink:href="#DejaVuSans-61" x="1439.875"/>
      <use xlink:href="#DejaVuSans-63" x="1501.154297"/>
      <use xlink:href="#DejaVuSans-79" x="1556.134766"/>
     </g>
    </g>
   </g>
  </g>
 </g>
 <defs>
  <clipPath id="pc3836c6766">
   <rect x="57.6" y="41.472" width="357.12" height="266.112"/>
  </clipPath>
 </defs>
</svg>
