<?xml version="1.0" encoding="utf-8" standalone="no"?>
<!DOCTYPE svg PUBLIC "-//W3C//DTD SVG 1.1//EN"
  "http://www.w3.org/Graphics/SVG/1.1/DTD/svg11.dtd">
<svg xmlns:xlink="http://www.w3.org/1999/xlink" width="460.8pt" height="345.6pt" viewBox="0 0 460.8 345.6" xmlns="http://www.w3.org/2000/svg" version="1.1">
 <metadata>
  <rdf:RDF xmlns:dc="http://purl.org/dc/elements/1.1/" xmlns:cc="http://creativecommons.org/ns#" xmlns:rdf="http://www.w3.org/1999/02/22-rdf-syntax-ns#">
   <cc:Work>
    <dc:type rdf:resource="http://purl.org/dc/dcmitype/StillImage"/>
    <dc:date>2025-07-15T23:37:32.137852</dc:date>
    <dc:format>image/svg+xml</dc:format>
    <dc:creator>
     <cc:Agent>
      <dc:title>Matplotlib v3.9.1, https://matplotlib.org/</dc:title>
     </cc:Agent>
    </dc:creator>
   </cc:Work>
  </rdf:RDF>
 </metadata>
 <defs>
  <style type="text/css">*{stroke-linejoin: round; stroke-linecap: butt}</style>
 </defs>
 <g id="figure_1">
  <g id="patch_1">
   <path d="M 0 345.6 
L 460.8 345.6 
L 460.8 0 
L 0 0 
z
" style="fill: #ffffff"/>
  </g>
  <g id="axes_1">
   <g id="patch_2">
    <path d="M 57.6 307.584 
L 414.72 307.584 
L 414.72 41.472 
L 57.6 41.472 
z
" style="fill: #ffffff"/>
   </g>
   <g id="matplotlib.axis_1">
    <g id="xtick_1">
     <g id="line2d_1">
      <defs>
       <path id="m930e41a169" d="M 0 0 
L 0 3.5 
" style="stroke: #000000; stroke-width: 0.8"/>
      </defs>
      <g>
       <use xlink:href="#m930e41a169" x="73.832727" y="307.584" style="stroke: #000000; stroke-width: 0.8"/>
      </g>
     </g>
     <g id="text_1">
      <!-- 1 -->
      <g transform="translate(70.651477 322.182437) scale(0.1 -0.1)">
       <defs>
        <path id="DejaVuSans-31" d="M 794 531 
L 1825 531 
L 1825 4091 
L 703 3866 
L 703 4441 
L 1819 4666 
L 2450 4666 
L 2450 531 
L 3481 531 
L 3481 0 
L 794 0 
L 794 531 
z
" transform="scale(0.015625)"/>
       </defs>
       <use xlink:href="#DejaVuSans-31"/>
      </g>
     </g>
    </g>
    <g id="xtick_2">
     <g id="line2d_2">
      <g>
       <use xlink:href="#m930e41a169" x="109.664165" y="307.584" style="stroke: #000000; stroke-width: 0.8"/>
      </g>
     </g>
     <g id="text_2">
      <!-- 34 -->
      <g transform="translate(103.301665 322.182437) scale(0.1 -0.1)">
       <defs>
        <path id="DejaVuSans-33" d="M 2597 2516 
Q 3050 2419 3304 2112 
Q 3559 1806 3559 1356 
Q 3559 666 3084 287 
Q 2609 -91 1734 -91 
Q 1441 -91 1130 -33 
Q 819 25 488 141 
L 488 750 
Q 750 597 1062 519 
Q 1375 441 1716 441 
Q 2309 441 2620 675 
Q 2931 909 2931 1356 
Q 2931 1769 2642 2001 
Q 2353 2234 1838 2234 
L 1294 2234 
L 1294 2753 
L 1863 2753 
Q 2328 2753 2575 2939 
Q 2822 3125 2822 3475 
Q 2822 3834 2567 4026 
Q 2313 4219 1838 4219 
Q 1578 4219 1281 4162 
Q 984 4106 628 3988 
L 628 4550 
Q 988 4650 1302 4700 
Q 1616 4750 1894 4750 
Q 2613 4750 3031 4423 
Q 3450 4097 3450 3541 
Q 3450 3153 3228 2886 
Q 3006 2619 2597 2516 
z
" transform="scale(0.015625)"/>
        <path id="DejaVuSans-34" d="M 2419 4116 
L 825 1625 
L 2419 1625 
L 2419 4116 
z
M 2253 4666 
L 3047 4666 
L 3047 1625 
L 3713 1625 
L 3713 1100 
L 3047 1100 
L 3047 0 
L 2419 0 
L 2419 1100 
L 313 1100 
L 313 1709 
L 2253 4666 
z
" transform="scale(0.015625)"/>
       </defs>
       <use xlink:href="#DejaVuSans-33"/>
       <use xlink:href="#DejaVuSans-34" x="63.623047"/>
      </g>
     </g>
    </g>
    <g id="xtick_3">
     <g id="line2d_3">
      <g>
       <use xlink:href="#m930e41a169" x="145.495604" y="307.584" style="stroke: #000000; stroke-width: 0.8"/>
      </g>
     </g>
     <g id="text_3">
      <!-- 67 -->
      <g transform="translate(139.133104 322.182437) scale(0.1 -0.1)">
       <defs>
        <path id="DejaVuSans-36" d="M 2113 2584 
Q 1688 2584 1439 2293 
Q 1191 2003 1191 1497 
Q 1191 994 1439 701 
Q 1688 409 2113 409 
Q 2538 409 2786 701 
Q 3034 994 3034 1497 
Q 3034 2003 2786 2293 
Q 2538 2584 2113 2584 
z
M 3366 4563 
L 3366 3988 
Q 3128 4100 2886 4159 
Q 2644 4219 2406 4219 
Q 1781 4219 1451 3797 
Q 1122 3375 1075 2522 
Q 1259 2794 1537 2939 
Q 1816 3084 2150 3084 
Q 2853 3084 3261 2657 
Q 3669 2231 3669 1497 
Q 3669 778 3244 343 
Q 2819 -91 2113 -91 
Q 1303 -91 875 529 
Q 447 1150 447 2328 
Q 447 3434 972 4092 
Q 1497 4750 2381 4750 
Q 2619 4750 2861 4703 
Q 3103 4656 3366 4563 
z
" transform="scale(0.015625)"/>
        <path id="DejaVuSans-37" d="M 525 4666 
L 3525 4666 
L 3525 4397 
L 1831 0 
L 1172 0 
L 2766 4134 
L 525 4134 
L 525 4666 
z
" transform="scale(0.015625)"/>
       </defs>
       <use xlink:href="#DejaVuSans-36"/>
       <use xlink:href="#DejaVuSans-37" x="63.623047"/>
      </g>
     </g>
    </g>
    <g id="xtick_4">
     <g id="line2d_4">
      <g>
       <use xlink:href="#m930e41a169" x="181.327042" y="307.584" style="stroke: #000000; stroke-width: 0.8"/>
      </g>
     </g>
     <g id="text_4">
      <!-- 100 -->
      <g transform="translate(171.783292 322.182437) scale(0.1 -0.1)">
       <defs>
        <path id="DejaVuSans-30" d="M 2034 4250 
Q 1547 4250 1301 3770 
Q 1056 3291 1056 2328 
Q 1056 1369 1301 889 
Q 1547 409 2034 409 
Q 2525 409 2770 889 
Q 3016 1369 3016 2328 
Q 3016 3291 2770 3770 
Q 2525 4250 2034 4250 
z
M 2034 4750 
Q 2819 4750 3233 4129 
Q 3647 3509 3647 2328 
Q 3647 1150 3233 529 
Q 2819 -91 2034 -91 
Q 1250 -91 836 529 
Q 422 1150 422 2328 
Q 422 3509 836 4129 
Q 1250 4750 2034 4750 
z
" transform="scale(0.015625)"/>
       </defs>
       <use xlink:href="#DejaVuSans-31"/>
       <use xlink:href="#DejaVuSans-30" x="63.623047"/>
       <use xlink:href="#DejaVuSans-30" x="127.246094"/>
      </g>
     </g>
    </g>
    <g id="xtick_5">
     <g id="line2d_5">
      <g>
       <use xlink:href="#m930e41a169" x="217.15848" y="307.584" style="stroke: #000000; stroke-width: 0.8"/>
      </g>
     </g>
     <g id="text_5">
      <!-- 133 -->
      <g transform="translate(207.61473 322.182437) scale(0.1 -0.1)">
       <use xlink:href="#DejaVuSans-31"/>
       <use xlink:href="#DejaVuSans-33" x="63.623047"/>
       <use xlink:href="#DejaVuSans-33" x="127.246094"/>
      </g>
     </g>
    </g>
    <g id="xtick_6">
     <g id="line2d_6">
      <g>
       <use xlink:href="#m930e41a169" x="254.075719" y="307.584" style="stroke: #000000; stroke-width: 0.8"/>
      </g>
     </g>
     <g id="text_6">
      <!-- 167 -->
      <g transform="translate(244.531969 322.182437) scale(0.1 -0.1)">
       <use xlink:href="#DejaVuSans-31"/>
       <use xlink:href="#DejaVuSans-36" x="63.623047"/>
       <use xlink:href="#DejaVuSans-37" x="127.246094"/>
      </g>
     </g>
    </g>
    <g id="xtick_7">
     <g id="line2d_7">
      <g>
       <use xlink:href="#m930e41a169" x="289.907157" y="307.584" style="stroke: #000000; stroke-width: 0.8"/>
      </g>
     </g>
     <g id="text_7">
      <!-- 200 -->
      <g transform="translate(280.363407 322.182437) scale(0.1 -0.1)">
       <defs>
        <path id="DejaVuSans-32" d="M 1228 531 
L 3431 531 
L 3431 0 
L 469 0 
L 469 531 
Q 828 903 1448 1529 
Q 2069 2156 2228 2338 
Q 2531 2678 2651 2914 
Q 2772 3150 2772 3378 
Q 2772 3750 2511 3984 
Q 2250 4219 1831 4219 
Q 1534 4219 1204 4116 
Q 875 4013 500 3803 
L 500 4441 
Q 881 4594 1212 4672 
Q 1544 4750 1819 4750 
Q 2544 4750 2975 4387 
Q 3406 4025 3406 3419 
Q 3406 3131 3298 2873 
Q 3191 2616 2906 2266 
Q 2828 2175 2409 1742 
Q 1991 1309 1228 531 
z
" transform="scale(0.015625)"/>
       </defs>
       <use xlink:href="#DejaVuSans-32"/>
       <use xlink:href="#DejaVuSans-30" x="63.623047"/>
       <use xlink:href="#DejaVuSans-30" x="127.246094"/>
      </g>
     </g>
    </g>
    <g id="xtick_8">
     <g id="line2d_8">
      <g>
       <use xlink:href="#m930e41a169" x="325.738595" y="307.584" style="stroke: #000000; stroke-width: 0.8"/>
      </g>
     </g>
     <g id="text_8">
      <!-- 233 -->
      <g transform="translate(316.194845 322.182437) scale(0.1 -0.1)">
       <use xlink:href="#DejaVuSans-32"/>
       <use xlink:href="#DejaVuSans-33" x="63.623047"/>
       <use xlink:href="#DejaVuSans-33" x="127.246094"/>
      </g>
     </g>
    </g>
    <g id="xtick_9">
     <g id="line2d_9">
      <g>
       <use xlink:href="#m930e41a169" x="361.570033" y="307.584" style="stroke: #000000; stroke-width: 0.8"/>
      </g>
     </g>
     <g id="text_9">
      <!-- 266 -->
      <g transform="translate(352.026283 322.182437) scale(0.1 -0.1)">
       <use xlink:href="#DejaVuSans-32"/>
       <use xlink:href="#DejaVuSans-36" x="63.623047"/>
       <use xlink:href="#DejaVuSans-36" x="127.246094"/>
      </g>
     </g>
    </g>
    <g id="xtick_10">
     <g id="line2d_10">
      <g>
       <use xlink:href="#m930e41a169" x="398.487273" y="307.584" style="stroke: #000000; stroke-width: 0.8"/>
      </g>
     </g>
     <g id="text_10">
      <!-- 300 -->
      <g transform="translate(388.943523 322.182437) scale(0.1 -0.1)">
       <use xlink:href="#DejaVuSans-33"/>
       <use xlink:href="#DejaVuSans-30" x="63.623047"/>
       <use xlink:href="#DejaVuSans-30" x="127.246094"/>
      </g>
     </g>
    </g>
    <g id="text_11">
     <!-- Epochs -->
     <g transform="translate(218.244375 335.860562) scale(0.1 -0.1)">
      <defs>
       <path id="DejaVuSans-45" d="M 628 4666 
L 3578 4666 
L 3578 4134 
L 1259 4134 
L 1259 2753 
L 3481 2753 
L 3481 2222 
L 1259 2222 
L 1259 531 
L 3634 531 
L 3634 0 
L 628 0 
L 628 4666 
z
" transform="scale(0.015625)"/>
       <path id="DejaVuSans-70" d="M 1159 525 
L 1159 -1331 
L 581 -1331 
L 581 3500 
L 1159 3500 
L 1159 2969 
Q 1341 3281 1617 3432 
Q 1894 3584 2278 3584 
Q 2916 3584 3314 3078 
Q 3713 2572 3713 1747 
Q 3713 922 3314 415 
Q 2916 -91 2278 -91 
Q 1894 -91 1617 61 
Q 1341 213 1159 525 
z
M 3116 1747 
Q 3116 2381 2855 2742 
Q 2594 3103 2138 3103 
Q 1681 3103 1420 2742 
Q 1159 2381 1159 1747 
Q 1159 1113 1420 752 
Q 1681 391 2138 391 
Q 2594 391 2855 752 
Q 3116 1113 3116 1747 
z
" transform="scale(0.015625)"/>
       <path id="DejaVuSans-6f" d="M 1959 3097 
Q 1497 3097 1228 2736 
Q 959 2375 959 1747 
Q 959 1119 1226 758 
Q 1494 397 1959 397 
Q 2419 397 2687 759 
Q 2956 1122 2956 1747 
Q 2956 2369 2687 2733 
Q 2419 3097 1959 3097 
z
M 1959 3584 
Q 2709 3584 3137 3096 
Q 3566 2609 3566 1747 
Q 3566 888 3137 398 
Q 2709 -91 1959 -91 
Q 1206 -91 779 398 
Q 353 888 353 1747 
Q 353 2609 779 3096 
Q 1206 3584 1959 3584 
z
" transform="scale(0.015625)"/>
       <path id="DejaVuSans-63" d="M 3122 3366 
L 3122 2828 
Q 2878 2963 2633 3030 
Q 2388 3097 2138 3097 
Q 1578 3097 1268 2742 
Q 959 2388 959 1747 
Q 959 1106 1268 751 
Q 1578 397 2138 397 
Q 2388 397 2633 464 
Q 2878 531 3122 666 
L 3122 134 
Q 2881 22 2623 -34 
Q 2366 -91 2075 -91 
Q 1284 -91 818 406 
Q 353 903 353 1747 
Q 353 2603 823 3093 
Q 1294 3584 2113 3584 
Q 2378 3584 2631 3529 
Q 2884 3475 3122 3366 
z
" transform="scale(0.015625)"/>
       <path id="DejaVuSans-68" d="M 3513 2113 
L 3513 0 
L 2938 0 
L 2938 2094 
Q 2938 2591 2744 2837 
Q 2550 3084 2163 3084 
Q 1697 3084 1428 2787 
Q 1159 2491 1159 1978 
L 1159 0 
L 581 0 
L 581 4863 
L 1159 4863 
L 1159 2956 
Q 1366 3272 1645 3428 
Q 1925 3584 2291 3584 
Q 2894 3584 3203 3211 
Q 3513 2838 3513 2113 
z
" transform="scale(0.015625)"/>
       <path id="DejaVuSans-73" d="M 2834 3397 
L 2834 2853 
Q 2591 2978 2328 3040 
Q 2066 3103 1784 3103 
Q 1356 3103 1142 2972 
Q 928 2841 928 2578 
Q 928 2378 1081 2264 
Q 1234 2150 1697 2047 
L 1894 2003 
Q 2506 1872 2764 1633 
Q 3022 1394 3022 966 
Q 3022 478 2636 193 
Q 2250 -91 1575 -91 
Q 1294 -91 989 -36 
Q 684 19 347 128 
L 347 722 
Q 666 556 975 473 
Q 1284 391 1588 391 
Q 1994 391 2212 530 
Q 2431 669 2431 922 
Q 2431 1156 2273 1281 
Q 2116 1406 1581 1522 
L 1381 1569 
Q 847 1681 609 1914 
Q 372 2147 372 2553 
Q 372 3047 722 3315 
Q 1072 3584 1716 3584 
Q 2034 3584 2315 3537 
Q 2597 3491 2834 3397 
z
" transform="scale(0.015625)"/>
      </defs>
      <use xlink:href="#DejaVuSans-45"/>
      <use xlink:href="#DejaVuSans-70" x="63.183594"/>
      <use xlink:href="#DejaVuSans-6f" x="126.660156"/>
      <use xlink:href="#DejaVuSans-63" x="187.841797"/>
      <use xlink:href="#DejaVuSans-68" x="242.822266"/>
      <use xlink:href="#DejaVuSans-73" x="306.201172"/>
     </g>
    </g>
   </g>
   <g id="matplotlib.axis_2">
    <g id="ytick_1">
     <g id="line2d_11">
      <defs>
       <path id="m98c67a65c9" d="M 0 0 
L -3.5 0 
" style="stroke: #000000; stroke-width: 0.8"/>
      </defs>
      <g>
       <use xlink:href="#m98c67a65c9" x="57.6" y="306.403242" style="stroke: #000000; stroke-width: 0.8"/>
      </g>
     </g>
     <g id="text_12">
      <!-- 0 -->
      <g transform="translate(44.2375 310.202461) scale(0.1 -0.1)">
       <use xlink:href="#DejaVuSans-30"/>
      </g>
     </g>
    </g>
    <g id="ytick_2">
     <g id="line2d_12">
      <g>
       <use xlink:href="#m98c67a65c9" x="57.6" y="270.05545" style="stroke: #000000; stroke-width: 0.8"/>
      </g>
     </g>
     <g id="text_13">
      <!-- 10 -->
      <g transform="translate(37.875 273.854669) scale(0.1 -0.1)">
       <use xlink:href="#DejaVuSans-31"/>
       <use xlink:href="#DejaVuSans-30" x="63.623047"/>
      </g>
     </g>
    </g>
    <g id="ytick_3">
     <g id="line2d_13">
      <g>
       <use xlink:href="#m98c67a65c9" x="57.6" y="233.707658" style="stroke: #000000; stroke-width: 0.8"/>
      </g>
     </g>
     <g id="text_14">
      <!-- 20 -->
      <g transform="translate(37.875 237.506876) scale(0.1 -0.1)">
       <use xlink:href="#DejaVuSans-32"/>
       <use xlink:href="#DejaVuSans-30" x="63.623047"/>
      </g>
     </g>
    </g>
    <g id="ytick_4">
     <g id="line2d_14">
      <g>
       <use xlink:href="#m98c67a65c9" x="57.6" y="197.359866" style="stroke: #000000; stroke-width: 0.8"/>
      </g>
     </g>
     <g id="text_15">
      <!-- 30 -->
      <g transform="translate(37.875 201.159084) scale(0.1 -0.1)">
       <use xlink:href="#DejaVuSans-33"/>
       <use xlink:href="#DejaVuSans-30" x="63.623047"/>
      </g>
     </g>
    </g>
    <g id="ytick_5">
     <g id="line2d_15">
      <g>
       <use xlink:href="#m98c67a65c9" x="57.6" y="161.012074" style="stroke: #000000; stroke-width: 0.8"/>
      </g>
     </g>
     <g id="text_16">
      <!-- 40 -->
      <g transform="translate(37.875 164.811292) scale(0.1 -0.1)">
       <use xlink:href="#DejaVuSans-34"/>
       <use xlink:href="#DejaVuSans-30" x="63.623047"/>
      </g>
     </g>
    </g>
    <g id="ytick_6">
     <g id="line2d_16">
      <g>
       <use xlink:href="#m98c67a65c9" x="57.6" y="124.664281" style="stroke: #000000; stroke-width: 0.8"/>
      </g>
     </g>
     <g id="text_17">
      <!-- 50 -->
      <g transform="translate(37.875 128.4635) scale(0.1 -0.1)">
       <defs>
        <path id="DejaVuSans-35" d="M 691 4666 
L 3169 4666 
L 3169 4134 
L 1269 4134 
L 1269 2991 
Q 1406 3038 1543 3061 
Q 1681 3084 1819 3084 
Q 2600 3084 3056 2656 
Q 3513 2228 3513 1497 
Q 3513 744 3044 326 
Q 2575 -91 1722 -91 
Q 1428 -91 1123 -41 
Q 819 9 494 109 
L 494 744 
Q 775 591 1075 516 
Q 1375 441 1709 441 
Q 2250 441 2565 725 
Q 2881 1009 2881 1497 
Q 2881 1984 2565 2268 
Q 2250 2553 1709 2553 
Q 1456 2553 1204 2497 
Q 953 2441 691 2322 
L 691 4666 
z
" transform="scale(0.015625)"/>
       </defs>
       <use xlink:href="#DejaVuSans-35"/>
       <use xlink:href="#DejaVuSans-30" x="63.623047"/>
      </g>
     </g>
    </g>
    <g id="ytick_7">
     <g id="line2d_17">
      <g>
       <use xlink:href="#m98c67a65c9" x="57.6" y="88.316489" style="stroke: #000000; stroke-width: 0.8"/>
      </g>
     </g>
     <g id="text_18">
      <!-- 60 -->
      <g transform="translate(37.875 92.115708) scale(0.1 -0.1)">
       <use xlink:href="#DejaVuSans-36"/>
       <use xlink:href="#DejaVuSans-30" x="63.623047"/>
      </g>
     </g>
    </g>
    <g id="ytick_8">
     <g id="line2d_18">
      <g>
       <use xlink:href="#m98c67a65c9" x="57.6" y="51.968697" style="stroke: #000000; stroke-width: 0.8"/>
      </g>
     </g>
     <g id="text_19">
      <!-- 70 -->
      <g transform="translate(37.875 55.767916) scale(0.1 -0.1)">
       <use xlink:href="#DejaVuSans-37"/>
       <use xlink:href="#DejaVuSans-30" x="63.623047"/>
      </g>
     </g>
    </g>
    <g id="text_20">
     <!-- Accuracy -->
     <g transform="translate(31.795312 197.356125) rotate(-90) scale(0.1 -0.1)">
      <defs>
       <path id="DejaVuSans-41" d="M 2188 4044 
L 1331 1722 
L 3047 1722 
L 2188 4044 
z
M 1831 4666 
L 2547 4666 
L 4325 0 
L 3669 0 
L 3244 1197 
L 1141 1197 
L 716 0 
L 50 0 
L 1831 4666 
z
" transform="scale(0.015625)"/>
       <path id="DejaVuSans-75" d="M 544 1381 
L 544 3500 
L 1119 3500 
L 1119 1403 
Q 1119 906 1312 657 
Q 1506 409 1894 409 
Q 2359 409 2629 706 
Q 2900 1003 2900 1516 
L 2900 3500 
L 3475 3500 
L 3475 0 
L 2900 0 
L 2900 538 
Q 2691 219 2414 64 
Q 2138 -91 1772 -91 
Q 1169 -91 856 284 
Q 544 659 544 1381 
z
M 1991 3584 
L 1991 3584 
z
" transform="scale(0.015625)"/>
       <path id="DejaVuSans-72" d="M 2631 2963 
Q 2534 3019 2420 3045 
Q 2306 3072 2169 3072 
Q 1681 3072 1420 2755 
Q 1159 2438 1159 1844 
L 1159 0 
L 581 0 
L 581 3500 
L 1159 3500 
L 1159 2956 
Q 1341 3275 1631 3429 
Q 1922 3584 2338 3584 
Q 2397 3584 2469 3576 
Q 2541 3569 2628 3553 
L 2631 2963 
z
" transform="scale(0.015625)"/>
       <path id="DejaVuSans-61" d="M 2194 1759 
Q 1497 1759 1228 1600 
Q 959 1441 959 1056 
Q 959 750 1161 570 
Q 1363 391 1709 391 
Q 2188 391 2477 730 
Q 2766 1069 2766 1631 
L 2766 1759 
L 2194 1759 
z
M 3341 1997 
L 3341 0 
L 2766 0 
L 2766 531 
Q 2569 213 2275 61 
Q 1981 -91 1556 -91 
Q 1019 -91 701 211 
Q 384 513 384 1019 
Q 384 1609 779 1909 
Q 1175 2209 1959 2209 
L 2766 2209 
L 2766 2266 
Q 2766 2663 2505 2880 
Q 2244 3097 1772 3097 
Q 1472 3097 1187 3025 
Q 903 2953 641 2809 
L 641 3341 
Q 956 3463 1253 3523 
Q 1550 3584 1831 3584 
Q 2591 3584 2966 3190 
Q 3341 2797 3341 1997 
z
" transform="scale(0.015625)"/>
       <path id="DejaVuSans-79" d="M 2059 -325 
Q 1816 -950 1584 -1140 
Q 1353 -1331 966 -1331 
L 506 -1331 
L 506 -850 
L 844 -850 
Q 1081 -850 1212 -737 
Q 1344 -625 1503 -206 
L 1606 56 
L 191 3500 
L 800 3500 
L 1894 763 
L 2988 3500 
L 3597 3500 
L 2059 -325 
z
" transform="scale(0.015625)"/>
      </defs>
      <use xlink:href="#DejaVuSans-41"/>
      <use xlink:href="#DejaVuSans-63" x="66.658203"/>
      <use xlink:href="#DejaVuSans-63" x="121.638672"/>
      <use xlink:href="#DejaVuSans-75" x="176.619141"/>
      <use xlink:href="#DejaVuSans-72" x="239.998047"/>
      <use xlink:href="#DejaVuSans-61" x="281.111328"/>
      <use xlink:href="#DejaVuSans-63" x="342.390625"/>
      <use xlink:href="#DejaVuSans-79" x="397.371094"/>
     </g>
    </g>
   </g>
   <g id="line2d_19">
    <path d="M 73.832727 295.488 
L 74.918528 283.634985 
L 76.00433 274.315411 
L 78.175932 258.151548 
L 79.261733 252.077832 
L 80.347534 248.275853 
L 81.433335 241.602398 
L 82.519137 237.117081 
L 83.604938 230.672617 
L 85.77654 226.961508 
L 86.862341 221.472991 
L 87.948142 219.179445 
L 89.033943 213.603694 
L 90.119745 210.917592 
L 92.291347 206.810292 
L 93.377148 208.169699 
L 94.462949 207.366413 
L 95.54875 228.429958 
L 96.634552 228.935193 
L 97.720353 225.507596 
L 98.806154 220.905965 
L 99.891955 219.204889 
L 100.977756 213.716372 
L 102.063557 213.570981 
L 103.149358 209.572724 
L 104.23516 210.826723 
L 105.320961 208.416864 
L 106.406762 205.730762 
L 107.492563 204.324103 
L 108.578364 203.608051 
L 109.664165 199.569811 
L 110.749967 197.534335 
L 111.835768 196.04771 
L 112.921569 194.121277 
L 114.00737 192.51834 
L 115.093171 188.774517 
L 116.178972 189.465125 
L 117.264773 186.898971 
L 118.350575 182.475445 
L 119.436376 186.044798 
L 120.522177 183.540435 
L 121.607978 185.397807 
L 122.693779 180.552647 
L 123.77958 179.934734 
L 124.865382 175.522112 
L 125.951183 177.673901 
L 127.036984 174.271748 
L 128.122785 174.969626 
L 129.208586 172.327141 
L 130.294387 171.894602 
L 131.380189 171.941855 
L 132.46599 170.956829 
L 133.551791 167.227546 
L 134.637592 164.265201 
L 135.723393 166.253425 
L 136.809194 167.681893 
L 137.894995 165.664591 
L 138.980797 194.917294 
L 140.066598 196.273067 
L 141.152399 197.025466 
L 142.2382 191.784114 
L 143.324001 191.922236 
L 144.409802 193.027209 
L 145.495604 191.693245 
L 146.581405 193.852304 
L 147.667206 189.752273 
L 149.838808 186.262885 
L 150.924609 187.65137 
L 152.01041 184.398243 
L 153.096212 186.709963 
L 154.182013 185.099755 
L 155.267814 183.04974 
L 156.353615 184.427321 
L 157.439416 181.381376 
L 158.525217 185.666781 
L 159.611019 178.586231 
L 160.69682 177.993762 
L 161.782621 179.040578 
L 162.868422 180.450873 
L 163.954223 175.311295 
L 165.040024 178.004666 
L 166.125825 174.918739 
L 168.297428 175.63479 
L 169.383229 175.427608 
L 170.46903 173.308532 
L 171.554831 173.602949 
L 172.640632 173.134062 
L 173.726434 173.083175 
L 174.812235 171.589281 
L 175.898036 168.481545 
L 176.983837 172.374393 
L 178.069638 169.361161 
L 179.155439 168.354328 
L 180.24124 169.790065 
L 181.327042 169.001318 
L 182.412843 167.856363 
L 183.498644 162.949411 
L 184.584445 163.603671 
L 185.670246 163.847201 
L 186.756047 163.556419 
L 187.841849 158.922075 
L 188.92765 162.124316 
L 190.013451 157.119225 
L 191.099252 160.5759 
L 192.185053 159.023849 
L 193.270854 157.246442 
L 194.356656 156.228704 
L 195.442457 155.825244 
L 196.528258 154.040567 
L 197.614059 156.326843 
L 198.69986 152.855629 
L 199.785661 152.466708 
L 200.871462 157.515416 
L 201.957264 150.20224 
L 203.043065 151.1073 
L 204.128866 144.746437 
L 205.214667 151.957838 
L 206.300468 147.003634 
L 207.386269 148.904624 
L 208.472071 148.388485 
L 209.557872 146.294852 
L 210.643673 142.420178 
L 211.729474 145.43341 
L 212.815275 142.845447 
L 213.901076 146.360278 
L 214.986877 145.935009 
L 217.15848 141.442422 
L 218.244281 144.070368 
L 219.330082 143.62329 
L 220.415883 146.869148 
L 221.501684 142.565569 
L 222.587486 140.119363 
L 223.673287 142.289326 
L 224.759088 145.644227 
L 225.844889 177.950145 
L 226.93069 180.788907 
L 228.016491 179.782073 
L 229.102292 181.81755 
L 230.188094 183.144244 
L 231.273895 176.416268 
L 232.359696 179.738456 
L 233.445497 178.640753 
L 234.531298 177.815658 
L 235.617099 179.462213 
L 236.702901 175.747468 
L 237.788702 180.163725 
L 238.874503 173.097714 
L 239.960304 175.344008 
L 242.131906 175.881955 
L 243.217708 175.416704 
L 244.303509 175.522112 
L 245.38931 172.603384 
L 246.475111 175.413069 
L 247.560912 173.279453 
L 248.646713 174.489835 
L 249.732514 173.711992 
L 250.818316 177.306789 
L 251.904117 168.052641 
L 252.989918 170.262587 
L 254.075719 169.266657 
L 255.16152 172.850549 
L 256.247321 167.420189 
L 257.333123 173.90827 
L 258.418924 171.102221 
L 259.504725 171.120394 
L 260.590526 168.009023 
L 261.676327 169.721004 
L 262.762128 169.433857 
L 263.847929 168.943162 
L 264.933731 167.64918 
L 266.019532 172.421645 
L 267.105333 167.929058 
L 268.191134 167.532867 
L 269.276935 165.272035 
L 270.362736 168.263458 
L 271.448538 169.092188 
L 272.534339 166.318851 
L 273.62014 164.817687 
L 274.705941 170.920482 
L 275.791742 166.162556 
L 276.877543 166.893146 
L 277.963344 164.777705 
L 279.049146 165.439235 
L 280.134947 163.392854 
L 281.220748 161.64089 
L 282.306549 164.228853 
L 283.39235 166.209808 
L 284.478151 162.407829 
L 285.563953 165.613704 
L 286.649754 163.62548 
L 287.735555 162.847637 
L 288.821356 161.117482 
L 289.907157 160.812161 
L 290.992958 166.224347 
L 292.07876 160.365083 
L 293.164561 161.608177 
L 294.250362 161.542751 
L 295.336163 158.467728 
L 296.421964 160.114283 
L 297.507765 158.762145 
L 298.593566 158.936615 
L 299.679368 158.067902 
L 300.765169 160.197883 
L 301.85097 158.209659 
L 302.936771 159.696283 
L 304.022572 155.14554 
L 305.108373 157.377294 
L 306.194175 157.424546 
L 308.365777 160.019779 
L 309.451578 159.198319 
L 310.537379 156.653973 
L 311.62318 155.367261 
L 312.708981 156.352287 
L 313.794783 153.179124 
L 314.880584 155.676218 
L 315.966385 153.713437 
L 317.052186 155.141905 
L 318.137987 155.163714 
L 319.223788 153.593489 
L 320.30959 149.366241 
L 321.395391 152.808377 
L 322.481192 143.307064 
L 323.566993 145.673305 
L 324.652794 151.590726 
L 325.738595 151.972378 
L 326.824396 149.95871 
L 327.910198 154.200497 
L 328.995999 152.081421 
L 330.0818 150.936466 
L 331.167601 146.149461 
L 332.253402 148.588398 
L 333.339203 148.900989 
L 334.425005 146.472957 
L 335.510806 149.115441 
L 336.596607 145.048123 
L 337.682408 147.138121 
L 338.768209 146.138557 
L 339.85401 147.15266 
L 340.939811 144.190315 
L 342.025613 148.014103 
L 343.111414 147.272608 
L 344.197215 144.139428 
L 345.283016 146.883687 
L 346.368817 141.609622 
L 347.454618 138.312877 
L 348.54042 139.697728 
L 349.626221 140.308371 
L 350.712022 139.279729 
L 351.797823 142.227535 
L 352.883624 139.079816 
L 353.969425 136.45187 
L 355.055227 141.769552 
L 356.141028 134.80895 
L 357.226829 133.845734 
L 359.398431 140.122997 
L 360.484232 138.007556 
L 361.570033 139.795867 
L 362.655835 137.753121 
L 363.741636 134.765333 
L 364.827437 137.396913 
L 365.913238 135.161524 
L 366.999039 131.286849 
L 368.08484 132.231892 
L 369.170642 135.924827 
L 370.256443 135.430497 
L 371.342244 138.581851 
L 372.428045 142.761847 
L 373.513846 142.002178 
L 374.599647 139.712267 
L 375.685448 141.413344 
L 376.77125 143.903168 
L 377.857051 136.397349 
L 378.942852 142.609186 
L 380.028653 142.30023 
L 381.114454 138.272895 
L 382.200255 141.020788 
L 383.286057 142.445621 
L 384.371858 142.420178 
L 385.457659 138.211104 
L 386.54346 143.321603 
L 387.629261 143.267081 
L 388.715062 140.929918 
L 389.800863 142.979934 
L 390.886665 143.459725 
L 391.972466 146.029514 
L 393.058267 139.955798 
L 394.144068 143.801394 
L 395.229869 140.998979 
L 396.31567 144.542889 
L 397.401472 140.584614 
L 398.487273 141.515118 
L 398.487273 141.515118 
" clip-path="url(#p183182dd67)" style="fill: none; stroke: #1f77b4; stroke-width: 1.5; stroke-linecap: square"/>
   </g>
   <g id="line2d_20">
    <path d="M 73.832727 281.868482 
L 74.918528 264.530585 
L 77.090131 234.507309 
L 78.175932 223.057755 
L 79.261733 224.220884 
L 80.347534 215.751848 
L 81.433335 196.560214 
L 82.519137 194.015869 
L 83.604938 189.363351 
L 84.690739 185.619529 
L 85.77654 171.225803 
L 86.862341 177.768406 
L 87.948142 161.375551 
L 90.119745 154.578514 
L 91.205546 152.83382 
L 92.291347 153.451733 
L 93.377148 150.652953 
L 94.462949 148.762868 
L 95.54875 181.366837 
L 96.634552 173.697453 
L 97.720353 169.335718 
L 98.806154 165.737286 
L 99.891955 159.812596 
L 100.977756 160.830335 
L 102.063557 150.689301 
L 103.149358 149.962345 
L 104.23516 143.092612 
L 105.320961 145.091741 
L 106.406762 141.493309 
L 107.492563 138.440095 
L 108.578364 127.717496 
L 109.664165 132.333666 
L 110.749967 129.78932 
L 111.835768 133.533143 
L 112.921569 128.008278 
L 114.00737 123.719239 
L 115.093171 120.447937 
L 116.178972 119.466547 
L 117.264773 120.266199 
L 118.350575 119.393852 
L 119.436376 110.452295 
L 120.522177 112.66951 
L 121.607978 107.217341 
L 122.693779 107.653515 
L 123.77958 104.672996 
L 124.865382 100.202217 
L 125.951183 103.146388 
L 127.036984 101.692477 
L 128.122785 97.258046 
L 130.294387 94.968135 
L 131.380189 92.023964 
L 132.46599 93.150746 
L 133.551791 91.151617 
L 134.637592 92.023964 
L 135.723393 92.714572 
L 136.809194 91.333356 
L 137.894995 91.369704 
L 138.980797 136.36827 
L 140.066598 128.335408 
L 141.152399 122.955935 
L 142.2382 125.463933 
L 143.324001 129.207755 
L 144.409802 121.356632 
L 145.495604 121.611067 
L 146.581405 122.519762 
L 147.667206 120.193503 
L 148.753007 124.264456 
L 149.838808 118.230722 
L 150.924609 114.087074 
L 152.01041 119.720982 
L 153.096212 117.93994 
L 154.182013 118.485157 
L 155.267814 112.524119 
L 156.353615 114.377856 
L 157.439416 113.759944 
L 158.525217 105.290908 
L 159.611019 116.086202 
L 160.69682 111.470033 
L 161.782621 103.727953 
L 162.868422 107.653515 
L 163.954223 102.601172 
L 165.040024 107.72621 
L 166.125825 103.691605 
L 167.211627 103.219084 
L 168.297428 99.875087 
L 169.383229 102.019607 
L 170.46903 102.019607 
L 171.554831 99.111784 
L 172.640632 100.565695 
L 173.726434 99.184479 
L 174.812235 96.240308 
L 175.898036 100.747434 
L 176.983837 92.932659 
L 178.069638 95.186222 
L 179.155439 92.859963 
L 180.24124 91.26066 
L 181.327042 87.989359 
L 182.412843 88.716315 
L 183.498644 88.643619 
L 185.670246 83.809363 
L 186.756047 84.281884 
L 187.841849 83.554928 
L 188.92765 85.226927 
L 190.013451 80.756149 
L 191.099252 79.374932 
L 192.185053 79.483976 
L 193.270854 79.374932 
L 194.356656 78.393542 
L 195.442457 75.812849 
L 196.528258 78.248151 
L 197.614059 76.721544 
L 198.69986 73.48659 
L 199.785661 75.122241 
L 200.871462 73.050417 
L 201.957264 71.778244 
L 203.043065 72.396156 
L 204.128866 70.215289 
L 205.214667 70.506071 
L 206.300468 71.01494 
L 207.386269 66.871292 
L 208.472071 67.198422 
L 209.557872 66.544162 
L 210.643673 64.290599 
L 211.729474 63.200165 
L 212.815275 65.271989 
L 213.901076 63.163817 
L 214.986877 62.873035 
L 216.072679 64.072512 
L 217.15848 62.909383 
L 218.244281 62.909383 
L 219.330082 62.364166 
L 220.415883 63.054774 
L 221.501684 62.800339 
L 223.673287 62.727644 
L 224.759088 62.182427 
L 225.844889 114.595943 
L 226.93069 117.212984 
L 228.016491 114.959421 
L 229.102292 115.940811 
L 230.188094 105.218213 
L 231.273895 107.471776 
L 232.359696 116.267941 
L 233.445497 106.563081 
L 234.531298 110.161512 
L 235.617099 114.81403 
L 236.702901 108.198732 
L 237.788702 105.181865 
L 238.874503 104.018735 
L 239.960304 103.364475 
L 241.046105 102.346737 
L 242.131906 104.309518 
L 243.217708 104.27317 
L 244.303509 105.472647 
L 246.475111 102.928302 
L 247.560912 103.29178 
L 248.646713 107.144646 
L 249.732514 104.091431 
L 250.818316 105.908821 
L 251.904117 103.146388 
L 252.989918 103.400823 
L 254.075719 101.656129 
L 255.16152 104.92743 
L 256.247321 102.164998 
L 257.333123 106.853863 
L 258.418924 99.657 
L 259.504725 96.422047 
L 260.590526 101.14726 
L 261.676327 109.21647 
L 262.762128 97.003612 
L 263.847929 97.330742 
L 264.933731 94.786396 
L 266.019532 103.255432 
L 267.105333 94.89544 
L 268.191134 98.457523 
L 269.276935 96.094917 
L 270.362736 100.129522 
L 271.448538 95.5497 
L 272.534339 91.805877 
L 273.62014 98.530219 
L 274.705941 93.332485 
L 275.791742 93.332485 
L 276.877543 91.078921 
L 277.963344 92.932659 
L 279.049146 95.040831 
L 280.134947 89.479619 
L 281.220748 96.167612 
L 282.306549 92.532833 
L 283.39235 90.570052 
L 284.478151 90.642748 
L 285.563953 92.169355 
L 286.649754 87.953011 
L 287.735555 98.094045 
L 288.821356 87.335099 
L 289.907157 85.590405 
L 290.992958 87.15336 
L 292.07876 89.734053 
L 293.164561 82.028321 
L 294.250362 87.625881 
L 295.336163 85.190579 
L 296.421964 90.351966 
L 297.507765 86.353708 
L 298.593566 84.245537 
L 299.679368 81.301365 
L 300.765169 93.187093 
L 301.85097 85.33597 
L 302.936771 86.281013 
L 304.022572 87.80762 
L 305.108373 78.829716 
L 306.194175 80.283627 
L 307.279976 79.156846 
L 308.365777 80.538062 
L 309.451578 83.882059 
L 310.537379 79.593019 
L 311.62318 79.156846 
L 312.708981 80.174584 
L 313.794783 79.011454 
L 314.880584 78.030064 
L 315.966385 78.320846 
L 317.052186 76.539805 
L 318.137987 76.685196 
L 319.223788 77.557543 
L 320.30959 76.830587 
L 321.395391 74.904154 
L 322.481192 75.049545 
L 323.566993 72.723286 
L 324.652794 73.522938 
L 325.738595 71.269375 
L 326.824396 74.431633 
L 327.910198 71.778244 
L 328.995999 70.324332 
L 330.0818 69.633724 
L 331.167601 71.487462 
L 332.253402 72.032678 
L 333.339203 69.561029 
L 334.425005 69.960854 
L 335.510806 69.015812 
L 336.596607 70.251637 
L 337.682408 69.70642 
L 338.768209 66.943987 
L 339.85401 66.834944 
L 340.939811 67.5619 
L 342.025613 63.490947 
L 343.111414 65.562771 
L 344.197215 66.180684 
L 345.283016 64.799468 
L 346.368817 62.873035 
L 347.454618 64.76312 
L 348.54042 65.635467 
L 350.712022 60.001559 
L 351.797823 60.728515 
L 352.883624 59.419995 
L 353.969425 61.709905 
L 355.055227 59.49269 
L 356.141028 59.201908 
L 357.226829 57.929735 
L 358.31263 59.201908 
L 359.398431 56.69391 
L 360.484232 56.439476 
L 361.570033 54.949216 
L 362.655835 54.22226 
L 363.741636 55.530781 
L 364.827437 53.568 
L 365.913238 55.058259 
L 368.08484 54.694782 
L 369.170642 56.802953 
L 370.256443 63.636338 
L 371.342244 57.711648 
L 372.428045 65.053902 
L 373.513846 63.418252 
L 374.599647 65.526424 
L 375.685448 62.727644 
L 377.857051 62.691296 
L 378.942852 61.019297 
L 380.028653 58.947473 
L 381.114454 64.290599 
L 382.200255 61.237384 
L 383.286057 63.454599 
L 384.371858 63.78173 
L 385.457659 62.800339 
L 386.54346 61.600862 
L 387.629261 61.237384 
L 388.715062 61.055645 
L 389.800863 64.43599 
L 390.886665 63.309208 
L 391.972466 65.381032 
L 393.058267 61.346428 
L 394.144068 64.399642 
L 395.229869 65.671815 
L 396.31567 65.562771 
L 397.401472 63.854425 
L 398.487273 66.58051 
L 398.487273 66.58051 
" clip-path="url(#p183182dd67)" style="fill: none; stroke: #ff7f0e; stroke-width: 1.5; stroke-linecap: square"/>
   </g>
   <g id="line2d_21">
    <path d="M 73.832727 292.892041 
L 74.918528 284.745047 
L 76.00433 275.068901 
L 77.090131 267.473666 
L 78.175932 263.362367 
L 79.261733 263.537927 
L 80.347534 262.510012 
L 81.433335 255.666813 
L 82.519137 254.689057 
L 83.604938 247.093823 
L 84.690739 248.447414 
L 85.77654 241.854652 
L 86.862341 247.544899 
L 87.948142 239.573464 
L 89.033943 234.233974 
L 90.119745 232.128346 
L 91.205546 231.40139 
L 92.291347 232.404226 
L 93.377148 230.649355 
L 94.462949 229.571642 
L 95.54875 251.355238 
L 96.634552 247.745539 
L 97.720353 237.191957 
L 98.806154 233.156262 
L 99.891955 234.509854 
L 100.977756 237.191957 
L 102.063557 232.930542 
L 103.149358 231.35123 
L 104.23516 228.243131 
L 106.406762 224.658148 
L 107.492563 226.638739 
L 108.578364 221.524968 
L 109.664165 220.271333 
L 110.749967 220.747852 
L 111.835768 220.171376 
L 112.921569 216.060078 
L 114.00737 212.550698 
L 115.093171 212.851658 
L 116.178972 212.225022 
L 117.264773 215.433442 
L 118.350575 205.932856 
L 119.436376 205.3313 
L 120.522177 210.545391 
L 121.607978 200.317849 
L 122.693779 203.877388 
L 123.77958 196.231994 
L 124.865382 197.660825 
L 125.951183 197.635745 
L 127.036984 198.738537 
L 128.122785 193.750166 
L 129.208586 191.845179 
L 130.294387 192.396575 
L 131.380189 192.622294 
L 132.46599 190.416347 
L 133.551791 190.716943 
L 134.637592 190.391267 
L 135.723393 189.614151 
L 136.809194 189.413511 
L 137.894995 188.05992 
L 138.980797 220.471973 
L 140.066598 214.00461 
L 141.152399 215.257882 
L 142.2382 217.238473 
L 143.324001 213.82905 
L 144.409802 208.339443 
L 145.495604 212.250102 
L 146.581405 217.890189 
L 147.667206 204.278304 
L 148.753007 210.746031 
L 149.838808 210.470151 
L 150.924609 202.247917 
L 152.01041 207.336608 
L 153.096212 205.23098 
L 154.182013 204.980544 
L 155.267814 208.314363 
L 156.353615 198.287461 
L 157.439416 195.730394 
L 158.525217 203.751988 
L 159.611019 204.880224 
L 160.69682 199.590893 
L 161.782621 193.524447 
L 162.868422 198.487738 
L 163.954223 197.785862 
L 165.040024 195.103758 
L 166.125825 193.800326 
L 167.211627 197.936342 
L 168.297428 190.716943 
L 169.383229 189.563991 
L 170.46903 195.304398 
L 171.554831 191.418819 
L 172.640632 193.574607 
L 173.726434 195.178998 
L 174.812235 191.820099 
L 175.898036 197.058906 
L 176.983837 184.45022 
L 178.069638 189.989987 
L 179.155439 188.210399 
L 180.24124 178.233294 
L 181.327042 187.98468 
L 182.412843 182.620109 
L 183.498644 182.870909 
L 184.584445 180.815441 
L 185.670246 179.13581 
L 186.756047 179.912925 
L 187.841849 180.088485 
L 188.92765 181.642717 
L 190.013451 173.019203 
L 191.099252 176.453706 
L 192.185053 177.230822 
L 193.270854 178.734893 
L 194.356656 178.408854 
L 195.442457 174.774075 
L 196.528258 175.60135 
L 197.614059 173.721442 
L 198.69986 165.273489 
L 199.785661 172.217371 
L 200.871462 170.086663 
L 201.957264 167.680076 
L 203.043065 164.772253 
L 204.128866 166.87788 
L 205.214667 165.449048 
L 206.300468 167.228636 
L 207.386269 165.975365 
L 208.472071 165.148089 
L 209.557872 161.814269 
L 210.643673 165.148089 
L 211.729474 159.207042 
L 212.815275 163.468821 
L 213.901076 161.588549 
L 214.986877 160.360358 
L 216.072679 161.237793 
L 217.15848 162.716785 
L 218.244281 160.761274 
L 219.330082 161.43807 
L 220.415883 161.51331 
L 221.501684 160.586077 
L 222.587486 160.059398 
L 223.673287 161.688869 
L 224.759088 160.761274 
L 225.844889 195.730394 
L 226.93069 206.835372 
L 228.016491 199.766453 
L 229.102292 195.931034 
L 231.273895 199.741373 
L 232.359696 205.03034 
L 233.445497 200.944485 
L 234.531298 202.699356 
L 235.617099 202.222837 
L 236.702901 195.981194 
L 237.788702 200.016889 
L 238.874503 191.619459 
L 239.960304 194.251402 
L 241.046105 188.837035 
L 243.217708 200.543569 
L 244.303509 195.354558 
L 245.38931 192.973051 
L 246.475111 194.477122 
L 247.560912 201.9724 
L 248.646713 197.058906 
L 249.732514 196.50751 
L 250.818316 198.262381 
L 251.904117 194.226322 
L 252.989918 197.485266 
L 254.075719 184.675577 
L 255.16152 194.100923 
L 256.247321 185.553012 
L 257.333123 194.827878 
L 258.418924 185.252416 
L 259.504725 186.279968 
L 260.590526 197.836022 
L 261.676327 197.535425 
L 262.762128 188.711635 
L 263.847929 192.897811 
L 264.933731 184.55054 
L 266.019532 194.326642 
L 267.105333 179.08565 
L 268.191134 192.195935 
L 269.276935 181.291597 
L 270.362736 180.564641 
L 271.448538 186.906604 
L 272.534339 180.163725 
L 273.62014 182.018553 
L 274.705941 188.385596 
L 275.791742 181.015717 
L 276.877543 184.099101 
L 277.963344 183.698184 
L 279.049146 187.8342 
L 280.134947 185.628252 
L 281.220748 191.494059 
L 282.306549 178.233294 
L 283.39235 182.670269 
L 284.478151 182.494709 
L 285.563953 185.051776 
L 286.649754 183.622945 
L 287.735555 188.661475 
L 288.821356 176.453706 
L 289.907157 185.127016 
L 290.992958 181.216357 
L 292.07876 185.026696 
L 293.164561 174.874394 
L 294.250362 180.313842 
L 295.336163 179.712286 
L 296.421964 188.837035 
L 297.507765 177.380938 
L 298.593566 178.358694 
L 299.679368 181.266517 
L 300.765169 182.319513 
L 301.85097 176.554026 
L 302.936771 183.121708 
L 304.022572 181.266517 
L 305.108373 168.557512 
L 306.194175 175.87723 
L 307.279976 174.673755 
L 308.365777 174.398238 
L 309.451578 172.919247 
L 310.537379 172.217371 
L 311.62318 169.209228 
L 312.708981 173.270003 
L 313.794783 170.38726 
L 314.880584 175.75183 
L 315.966385 168.356872 
L 317.052186 167.604836 
L 318.137987 175.82707 
L 319.223788 170.13646 
L 320.30959 173.545883 
L 321.395391 171.390095 
L 322.481192 167.529596 
L 323.566993 172.016731 
L 324.652794 164.997972 
L 325.738595 164.421133 
L 326.824396 165.875045 
L 327.910198 169.860943 
L 328.995999 162.365665 
L 330.0818 159.683562 
L 331.167601 163.669097 
L 332.253402 166.70232 
L 333.339203 166.92804 
L 334.425005 161.48823 
L 335.510806 168.908268 
L 336.596607 164.847493 
L 337.682408 168.432112 
L 338.768209 161.839349 
L 339.85401 163.017381 
L 340.939811 160.260038 
L 342.025613 158.906446 
L 343.111414 164.421133 
L 344.197215 160.686034 
L 345.283016 162.541225 
L 346.368817 158.25473 
L 347.454618 158.10425 
L 348.54042 162.516145 
L 349.626221 158.45537 
L 350.712022 157.82837 
L 351.797823 153.466635 
L 352.883624 154.494551 
L 353.969425 158.680726 
L 355.055227 156.249422 
L 356.141028 151.285768 
L 357.226829 151.335928 
L 358.31263 154.118351 
L 359.398431 151.386088 
L 360.484232 151.661967 
L 361.570033 149.982399 
L 363.741636 149.781859 
L 364.827437 147.275115 
L 365.913238 149.029836 
L 366.999039 149.656522 
L 368.08484 150.684287 
L 369.170642 152.012862 
L 370.256443 155.572438 
L 371.342244 157.452497 
L 372.428045 163.318278 
L 373.513846 157.12662 
L 374.599647 154.77028 
L 375.685448 158.430127 
L 376.77125 158.329857 
L 377.857051 158.354925 
L 378.942852 158.254655 
L 380.028653 157.703171 
L 381.114454 159.18215 
L 382.200255 156.625271 
L 383.286057 155.196427 
L 384.371858 162.766794 
L 385.457659 156.650338 
L 386.54346 159.482959 
L 387.629261 160.811534 
L 388.715062 157.22689 
L 389.800863 152.764885 
L 390.886665 153.241166 
L 391.972466 152.464075 
L 393.058267 155.447101 
L 394.144068 159.583229 
L 395.229869 158.10425 
L 396.31567 156.951148 
L 397.401472 159.583229 
L 398.487273 158.756004 
L 398.487273 158.756004 
" clip-path="url(#p183182dd67)" style="fill: none; stroke: #2ca02c; stroke-width: 1.5; stroke-linecap: square"/>
   </g>
   <g id="line2d_22">
    <path d="M 368.08484 55.021912 
L 369.170642 54.367651 
L 370.256443 60.365037 
L 371.342244 59.965211 
L 372.428045 61.528166 
L 373.513846 62.037036 
L 374.599647 64.254251 
L 375.685448 74.322589 
L 376.77125 66.725901 
L 377.857051 69.37929 
L 380.028653 58.693039 
L 381.114454 62.218775 
L 382.200255 60.619472 
L 383.286057 64.472338 
L 384.371858 71.123984 
L 385.457659 64.617729 
L 386.54346 67.307465 
L 387.629261 64.690424 
L 388.715062 72.069026 
L 389.800863 74.177198 
L 390.886665 68.797725 
L 391.972466 73.959111 
L 393.058267 75.994588 
L 394.144068 73.595633 
L 395.229869 77.702934 
L 396.31567 74.686067 
L 397.401472 75.740153 
L 398.487273 80.719801 
L 398.487273 80.719801 
" clip-path="url(#p183182dd67)" style="fill: none; stroke: #d62728; stroke-width: 1.5; stroke-linecap: square"/>
   </g>
   <g id="line2d_23">
    <path d="M 368.08484 150.759489 
L 369.170642 150.584017 
L 370.256443 157.302092 
L 371.342244 157.627969 
L 372.428045 155.747911 
L 373.513846 157.978913 
L 374.599647 160.861669 
L 375.685448 175.400786 
L 376.77125 160.209915 
L 377.857051 157.552766 
L 378.942852 160.836601 
L 380.028653 150.483748 
L 381.114454 153.191031 
L 382.200255 158.505329 
L 383.286057 159.332555 
L 384.371858 159.808836 
L 385.457659 157.903711 
L 386.54346 160.987006 
L 387.629261 154.67001 
L 388.715062 159.733634 
L 389.800863 167.379204 
L 390.886665 162.165176 
L 391.972466 165.273539 
L 393.058267 163.142806 
L 394.144068 161.33795 
L 395.229869 166.752518 
L 396.31567 170.111555 
L 397.401472 166.401574 
L 398.487273 172.041748 
L 398.487273 172.041748 
" clip-path="url(#p183182dd67)" style="fill: none; stroke: #9467bd; stroke-width: 1.5; stroke-linecap: square"/>
   </g>
   <g id="patch_3">
    <path d="M 57.6 307.584 
L 57.6 41.472 
" style="fill: none; stroke: #000000; stroke-width: 0.8; stroke-linejoin: miter; stroke-linecap: square"/>
   </g>
   <g id="patch_4">
    <path d="M 414.72 307.584 
L 414.72 41.472 
" style="fill: none; stroke: #000000; stroke-width: 0.8; stroke-linejoin: miter; stroke-linecap: square"/>
   </g>
   <g id="patch_5">
    <path d="M 57.6 307.584 
L 414.72 307.584 
" style="fill: none; stroke: #000000; stroke-width: 0.8; stroke-linejoin: miter; stroke-linecap: square"/>
   </g>
   <g id="patch_6">
    <path d="M 57.6 41.472 
L 414.72 41.472 
" style="fill: none; stroke: #000000; stroke-width: 0.8; stroke-linejoin: miter; stroke-linecap: square"/>
   </g>
   <g id="text_21">
    <!-- Learning Curves -->
    <g transform="translate(187.37625 35.472) scale(0.12 -0.12)">
     <defs>
      <path id="DejaVuSans-4c" d="M 628 4666 
L 1259 4666 
L 1259 531 
L 3531 531 
L 3531 0 
L 628 0 
L 628 4666 
z
" transform="scale(0.015625)"/>
      <path id="DejaVuSans-65" d="M 3597 1894 
L 3597 1613 
L 953 1613 
Q 991 1019 1311 708 
Q 1631 397 2203 397 
Q 2534 397 2845 478 
Q 3156 559 3463 722 
L 3463 178 
Q 3153 47 2828 -22 
Q 2503 -91 2169 -91 
Q 1331 -91 842 396 
Q 353 884 353 1716 
Q 353 2575 817 3079 
Q 1281 3584 2069 3584 
Q 2775 3584 3186 3129 
Q 3597 2675 3597 1894 
z
M 3022 2063 
Q 3016 2534 2758 2815 
Q 2500 3097 2075 3097 
Q 1594 3097 1305 2825 
Q 1016 2553 972 2059 
L 3022 2063 
z
" transform="scale(0.015625)"/>
      <path id="DejaVuSans-6e" d="M 3513 2113 
L 3513 0 
L 2938 0 
L 2938 2094 
Q 2938 2591 2744 2837 
Q 2550 3084 2163 3084 
Q 1697 3084 1428 2787 
Q 1159 2491 1159 1978 
L 1159 0 
L 581 0 
L 581 3500 
L 1159 3500 
L 1159 2956 
Q 1366 3272 1645 3428 
Q 1925 3584 2291 3584 
Q 2894 3584 3203 3211 
Q 3513 2838 3513 2113 
z
" transform="scale(0.015625)"/>
      <path id="DejaVuSans-69" d="M 603 3500 
L 1178 3500 
L 1178 0 
L 603 0 
L 603 3500 
z
M 603 4863 
L 1178 4863 
L 1178 4134 
L 603 4134 
L 603 4863 
z
" transform="scale(0.015625)"/>
      <path id="DejaVuSans-67" d="M 2906 1791 
Q 2906 2416 2648 2759 
Q 2391 3103 1925 3103 
Q 1463 3103 1205 2759 
Q 947 2416 947 1791 
Q 947 1169 1205 825 
Q 1463 481 1925 481 
Q 2391 481 2648 825 
Q 2906 1169 2906 1791 
z
M 3481 434 
Q 3481 -459 3084 -895 
Q 2688 -1331 1869 -1331 
Q 1566 -1331 1297 -1286 
Q 1028 -1241 775 -1147 
L 775 -588 
Q 1028 -725 1275 -790 
Q 1522 -856 1778 -856 
Q 2344 -856 2625 -561 
Q 2906 -266 2906 331 
L 2906 616 
Q 2728 306 2450 153 
Q 2172 0 1784 0 
Q 1141 0 747 490 
Q 353 981 353 1791 
Q 353 2603 747 3093 
Q 1141 3584 1784 3584 
Q 2172 3584 2450 3431 
Q 2728 3278 2906 2969 
L 2906 3500 
L 3481 3500 
L 3481 434 
z
" transform="scale(0.015625)"/>
      <path id="DejaVuSans-20" transform="scale(0.015625)"/>
      <path id="DejaVuSans-43" d="M 4122 4306 
L 4122 3641 
Q 3803 3938 3442 4084 
Q 3081 4231 2675 4231 
Q 1875 4231 1450 3742 
Q 1025 3253 1025 2328 
Q 1025 1406 1450 917 
Q 1875 428 2675 428 
Q 3081 428 3442 575 
Q 3803 722 4122 1019 
L 4122 359 
Q 3791 134 3420 21 
Q 3050 -91 2638 -91 
Q 1578 -91 968 557 
Q 359 1206 359 2328 
Q 359 3453 968 4101 
Q 1578 4750 2638 4750 
Q 3056 4750 3426 4639 
Q 3797 4528 4122 4306 
z
" transform="scale(0.015625)"/>
      <path id="DejaVuSans-76" d="M 191 3500 
L 800 3500 
L 1894 563 
L 2988 3500 
L 3597 3500 
L 2284 0 
L 1503 0 
L 191 3500 
z
" transform="scale(0.015625)"/>
     </defs>
     <use xlink:href="#DejaVuSans-4c"/>
     <use xlink:href="#DejaVuSans-65" x="53.962891"/>
     <use xlink:href="#DejaVuSans-61" x="115.486328"/>
     <use xlink:href="#DejaVuSans-72" x="176.765625"/>
     <use xlink:href="#DejaVuSans-6e" x="216.128906"/>
     <use xlink:href="#DejaVuSans-69" x="279.507812"/>
     <use xlink:href="#DejaVuSans-6e" x="307.291016"/>
     <use xlink:href="#DejaVuSans-67" x="370.669922"/>
     <use xlink:href="#DejaVuSans-20" x="434.146484"/>
     <use xlink:href="#DejaVuSans-43" x="465.933594"/>
     <use xlink:href="#DejaVuSans-75" x="535.757812"/>
     <use xlink:href="#DejaVuSans-72" x="599.136719"/>
     <use xlink:href="#DejaVuSans-76" x="640.25"/>
     <use xlink:href="#DejaVuSans-65" x="699.429688"/>
     <use xlink:href="#DejaVuSans-73" x="760.953125"/>
    </g>
   </g>
   <g id="legend_1">
    <g id="patch_7">
     <path d="M 214.18875 302.584 
L 407.72 302.584 
Q 409.72 302.584 409.72 300.584 
L 409.72 228.193375 
Q 409.72 226.193375 407.72 226.193375 
L 214.18875 226.193375 
Q 212.18875 226.193375 212.18875 228.193375 
L 212.18875 300.584 
Q 212.18875 302.584 214.18875 302.584 
z
" style="fill: #ffffff; opacity: 0.8; stroke: #cccccc; stroke-linejoin: miter"/>
    </g>
    <g id="line2d_24">
     <path d="M 216.18875 234.291812 
L 226.18875 234.291812 
L 236.18875 234.291812 
" style="fill: none; stroke: #1f77b4; stroke-width: 1.5; stroke-linecap: square"/>
    </g>
    <g id="text_22">
     <!-- Train Accuracy -->
     <g transform="translate(244.18875 237.791812) scale(0.1 -0.1)">
      <defs>
       <path id="DejaVuSans-54" d="M -19 4666 
L 3928 4666 
L 3928 4134 
L 2272 4134 
L 2272 0 
L 1638 0 
L 1638 4134 
L -19 4134 
L -19 4666 
z
" transform="scale(0.015625)"/>
      </defs>
      <use xlink:href="#DejaVuSans-54"/>
      <use xlink:href="#DejaVuSans-72" x="46.333984"/>
      <use xlink:href="#DejaVuSans-61" x="87.447266"/>
      <use xlink:href="#DejaVuSans-69" x="148.726562"/>
      <use xlink:href="#DejaVuSans-6e" x="176.509766"/>
      <use xlink:href="#DejaVuSans-20" x="239.888672"/>
      <use xlink:href="#DejaVuSans-41" x="271.675781"/>
      <use xlink:href="#DejaVuSans-63" x="338.333984"/>
      <use xlink:href="#DejaVuSans-63" x="393.314453"/>
      <use xlink:href="#DejaVuSans-75" x="448.294922"/>
      <use xlink:href="#DejaVuSans-72" x="511.673828"/>
      <use xlink:href="#DejaVuSans-61" x="552.787109"/>
      <use xlink:href="#DejaVuSans-63" x="614.066406"/>
      <use xlink:href="#DejaVuSans-79" x="669.046875"/>
     </g>
    </g>
    <g id="line2d_25">
     <path d="M 216.18875 248.969937 
L 226.18875 248.969937 
L 236.18875 248.969937 
" style="fill: none; stroke: #ff7f0e; stroke-width: 1.5; stroke-linecap: square"/>
    </g>
    <g id="text_23">
     <!-- Validation Accuracy -->
     <g transform="translate(244.18875 252.469937) scale(0.1 -0.1)">
      <defs>
       <path id="DejaVuSans-56" d="M 1831 0 
L 50 4666 
L 709 4666 
L 2188 738 
L 3669 4666 
L 4325 4666 
L 2547 0 
L 1831 0 
z
" transform="scale(0.015625)"/>
       <path id="DejaVuSans-6c" d="M 603 4863 
L 1178 4863 
L 1178 0 
L 603 0 
L 603 4863 
z
" transform="scale(0.015625)"/>
       <path id="DejaVuSans-64" d="M 2906 2969 
L 2906 4863 
L 3481 4863 
L 3481 0 
L 2906 0 
L 2906 525 
Q 2725 213 2448 61 
Q 2172 -91 1784 -91 
Q 1150 -91 751 415 
Q 353 922 353 1747 
Q 353 2572 751 3078 
Q 1150 3584 1784 3584 
Q 2172 3584 2448 3432 
Q 2725 3281 2906 2969 
z
M 947 1747 
Q 947 1113 1208 752 
Q 1469 391 1925 391 
Q 2381 391 2643 752 
Q 2906 1113 2906 1747 
Q 2906 2381 2643 2742 
Q 2381 3103 1925 3103 
Q 1469 3103 1208 2742 
Q 947 2381 947 1747 
z
" transform="scale(0.015625)"/>
       <path id="DejaVuSans-74" d="M 1172 4494 
L 1172 3500 
L 2356 3500 
L 2356 3053 
L 1172 3053 
L 1172 1153 
Q 1172 725 1289 603 
Q 1406 481 1766 481 
L 2356 481 
L 2356 0 
L 1766 0 
Q 1100 0 847 248 
Q 594 497 594 1153 
L 594 3053 
L 172 3053 
L 172 3500 
L 594 3500 
L 594 4494 
L 1172 4494 
z
" transform="scale(0.015625)"/>
      </defs>
      <use xlink:href="#DejaVuSans-56"/>
      <use xlink:href="#DejaVuSans-61" x="60.658203"/>
      <use xlink:href="#DejaVuSans-6c" x="121.9375"/>
      <use xlink:href="#DejaVuSans-69" x="149.720703"/>
      <use xlink:href="#DejaVuSans-64" x="177.503906"/>
      <use xlink:href="#DejaVuSans-61" x="240.980469"/>
      <use xlink:href="#DejaVuSans-74" x="302.259766"/>
      <use xlink:href="#DejaVuSans-69" x="341.46875"/>
      <use xlink:href="#DejaVuSans-6f" x="369.251953"/>
      <use xlink:href="#DejaVuSans-6e" x="430.433594"/>
      <use xlink:href="#DejaVuSans-20" x="493.8125"/>
      <use xlink:href="#DejaVuSans-41" x="525.599609"/>
      <use xlink:href="#DejaVuSans-63" x="592.257812"/>
      <use xlink:href="#DejaVuSans-63" x="647.238281"/>
      <use xlink:href="#DejaVuSans-75" x="702.21875"/>
      <use xlink:href="#DejaVuSans-72" x="765.597656"/>
      <use xlink:href="#DejaVuSans-61" x="806.710938"/>
      <use xlink:href="#DejaVuSans-63" x="867.990234"/>
      <use xlink:href="#DejaVuSans-79" x="922.970703"/>
     </g>
    </g>
    <g id="line2d_26">
     <path d="M 216.18875 263.648062 
L 226.18875 263.648062 
L 236.18875 263.648062 
" style="fill: none; stroke: #2ca02c; stroke-width: 1.5; stroke-linecap: square"/>
    </g>
    <g id="text_24">
     <!-- Robust Validation Accuracy -->
     <g transform="translate(244.18875 267.148062) scale(0.1 -0.1)">
      <defs>
       <path id="DejaVuSans-52" d="M 2841 2188 
Q 3044 2119 3236 1894 
Q 3428 1669 3622 1275 
L 4263 0 
L 3584 0 
L 2988 1197 
Q 2756 1666 2539 1819 
Q 2322 1972 1947 1972 
L 1259 1972 
L 1259 0 
L 628 0 
L 628 4666 
L 2053 4666 
Q 2853 4666 3247 4331 
Q 3641 3997 3641 3322 
Q 3641 2881 3436 2590 
Q 3231 2300 2841 2188 
z
M 1259 4147 
L 1259 2491 
L 2053 2491 
Q 2509 2491 2742 2702 
Q 2975 2913 2975 3322 
Q 2975 3731 2742 3939 
Q 2509 4147 2053 4147 
L 1259 4147 
z
" transform="scale(0.015625)"/>
       <path id="DejaVuSans-62" d="M 3116 1747 
Q 3116 2381 2855 2742 
Q 2594 3103 2138 3103 
Q 1681 3103 1420 2742 
Q 1159 2381 1159 1747 
Q 1159 1113 1420 752 
Q 1681 391 2138 391 
Q 2594 391 2855 752 
Q 3116 1113 3116 1747 
z
M 1159 2969 
Q 1341 3281 1617 3432 
Q 1894 3584 2278 3584 
Q 2916 3584 3314 3078 
Q 3713 2572 3713 1747 
Q 3713 922 3314 415 
Q 2916 -91 2278 -91 
Q 1894 -91 1617 61 
Q 1341 213 1159 525 
L 1159 0 
L 581 0 
L 581 4863 
L 1159 4863 
L 1159 2969 
z
" transform="scale(0.015625)"/>
      </defs>
      <use xlink:href="#DejaVuSans-52"/>
      <use xlink:href="#DejaVuSans-6f" x="64.982422"/>
      <use xlink:href="#DejaVuSans-62" x="126.164062"/>
      <use xlink:href="#DejaVuSans-75" x="189.640625"/>
      <use xlink:href="#DejaVuSans-73" x="253.019531"/>
      <use xlink:href="#DejaVuSans-74" x="305.119141"/>
      <use xlink:href="#DejaVuSans-20" x="344.328125"/>
      <use xlink:href="#DejaVuSans-56" x="376.115234"/>
      <use xlink:href="#DejaVuSans-61" x="436.773438"/>
      <use xlink:href="#DejaVuSans-6c" x="498.052734"/>
      <use xlink:href="#DejaVuSans-69" x="525.835938"/>
      <use xlink:href="#DejaVuSans-64" x="553.619141"/>
      <use xlink:href="#DejaVuSans-61" x="617.095703"/>
      <use xlink:href="#DejaVuSans-74" x="678.375"/>
      <use xlink:href="#DejaVuSans-69" x="717.583984"/>
      <use xlink:href="#DejaVuSans-6f" x="745.367188"/>
      <use xlink:href="#DejaVuSans-6e" x="806.548828"/>
      <use xlink:href="#DejaVuSans-20" x="869.927734"/>
      <use xlink:href="#DejaVuSans-41" x="901.714844"/>
      <use xlink:href="#DejaVuSans-63" x="968.373047"/>
      <use xlink:href="#DejaVuSans-63" x="1023.353516"/>
      <use xlink:href="#DejaVuSans-75" x="1078.333984"/>
      <use xlink:href="#DejaVuSans-72" x="1141.712891"/>
      <use xlink:href="#DejaVuSans-61" x="1182.826172"/>
      <use xlink:href="#DejaVuSans-63" x="1244.105469"/>
      <use xlink:href="#DejaVuSans-79" x="1299.085938"/>
     </g>
    </g>
    <g id="line2d_27">
     <path d="M 216.18875 278.326188 
L 226.18875 278.326188 
L 236.18875 278.326188 
" style="fill: none; stroke: #d62728; stroke-width: 1.5; stroke-linecap: square"/>
    </g>
    <g id="text_25">
     <!-- SWA Validation Accuracy -->
     <g transform="translate(244.18875 281.826188) scale(0.1 -0.1)">
      <defs>
       <path id="DejaVuSans-53" d="M 3425 4513 
L 3425 3897 
Q 3066 4069 2747 4153 
Q 2428 4238 2131 4238 
Q 1616 4238 1336 4038 
Q 1056 3838 1056 3469 
Q 1056 3159 1242 3001 
Q 1428 2844 1947 2747 
L 2328 2669 
Q 3034 2534 3370 2195 
Q 3706 1856 3706 1288 
Q 3706 609 3251 259 
Q 2797 -91 1919 -91 
Q 1588 -91 1214 -16 
Q 841 59 441 206 
L 441 856 
Q 825 641 1194 531 
Q 1563 422 1919 422 
Q 2459 422 2753 634 
Q 3047 847 3047 1241 
Q 3047 1584 2836 1778 
Q 2625 1972 2144 2069 
L 1759 2144 
Q 1053 2284 737 2584 
Q 422 2884 422 3419 
Q 422 4038 858 4394 
Q 1294 4750 2059 4750 
Q 2388 4750 2728 4690 
Q 3069 4631 3425 4513 
z
" transform="scale(0.015625)"/>
       <path id="DejaVuSans-57" d="M 213 4666 
L 850 4666 
L 1831 722 
L 2809 4666 
L 3519 4666 
L 4500 722 
L 5478 4666 
L 6119 4666 
L 4947 0 
L 4153 0 
L 3169 4050 
L 2175 0 
L 1381 0 
L 213 4666 
z
" transform="scale(0.015625)"/>
      </defs>
      <use xlink:href="#DejaVuSans-53"/>
      <use xlink:href="#DejaVuSans-57" x="63.476562"/>
      <use xlink:href="#DejaVuSans-41" x="156.853516"/>
      <use xlink:href="#DejaVuSans-20" x="225.261719"/>
      <use xlink:href="#DejaVuSans-56" x="257.048828"/>
      <use xlink:href="#DejaVuSans-61" x="317.707031"/>
      <use xlink:href="#DejaVuSans-6c" x="378.986328"/>
      <use xlink:href="#DejaVuSans-69" x="406.769531"/>
      <use xlink:href="#DejaVuSans-64" x="434.552734"/>
      <use xlink:href="#DejaVuSans-61" x="498.029297"/>
      <use xlink:href="#DejaVuSans-74" x="559.308594"/>
      <use xlink:href="#DejaVuSans-69" x="598.517578"/>
      <use xlink:href="#DejaVuSans-6f" x="626.300781"/>
      <use xlink:href="#DejaVuSans-6e" x="687.482422"/>
      <use xlink:href="#DejaVuSans-20" x="750.861328"/>
      <use xlink:href="#DejaVuSans-41" x="782.648438"/>
      <use xlink:href="#DejaVuSans-63" x="849.306641"/>
      <use xlink:href="#DejaVuSans-63" x="904.287109"/>
      <use xlink:href="#DejaVuSans-75" x="959.267578"/>
      <use xlink:href="#DejaVuSans-72" x="1022.646484"/>
      <use xlink:href="#DejaVuSans-61" x="1063.759766"/>
      <use xlink:href="#DejaVuSans-63" x="1125.039062"/>
      <use xlink:href="#DejaVuSans-79" x="1180.019531"/>
     </g>
    </g>
    <g id="line2d_28">
     <path d="M 216.18875 293.004312 
L 226.18875 293.004312 
L 236.18875 293.004312 
" style="fill: none; stroke: #9467bd; stroke-width: 1.5; stroke-linecap: square"/>
    </g>
    <g id="text_26">
     <!-- SWA Robust Validation Accuracy -->
     <g transform="translate(244.18875 296.504312) scale(0.1 -0.1)">
      <use xlink:href="#DejaVuSans-53"/>
      <use xlink:href="#DejaVuSans-57" x="63.476562"/>
      <use xlink:href="#DejaVuSans-41" x="156.853516"/>
      <use xlink:href="#DejaVuSans-20" x="225.261719"/>
      <use xlink:href="#DejaVuSans-52" x="257.048828"/>
      <use xlink:href="#DejaVuSans-6f" x="322.03125"/>
      <use xlink:href="#DejaVuSans-62" x="383.212891"/>
      <use xlink:href="#DejaVuSans-75" x="446.689453"/>
      <use xlink:href="#DejaVuSans-73" x="510.068359"/>
      <use xlink:href="#DejaVuSans-74" x="562.167969"/>
      <use xlink:href="#DejaVuSans-20" x="601.376953"/>
      <use xlink:href="#DejaVuSans-56" x="633.164062"/>
      <use xlink:href="#DejaVuSans-61" x="693.822266"/>
      <use xlink:href="#DejaVuSans-6c" x="755.101562"/>
      <use xlink:href="#DejaVuSans-69" x="782.884766"/>
      <use xlink:href="#DejaVuSans-64" x="810.667969"/>
      <use xlink:href="#DejaVuSans-61" x="874.144531"/>
      <use xlink:href="#DejaVuSans-74" x="935.423828"/>
      <use xlink:href="#DejaVuSans-69" x="974.632812"/>
      <use xlink:href="#DejaVuSans-6f" x="1002.416016"/>
      <use xlink:href="#DejaVuSans-6e" x="1063.597656"/>
      <use xlink:href="#DejaVuSans-20" x="1126.976562"/>
      <use xlink:href="#DejaVuSans-41" x="1158.763672"/>
      <use xlink:href="#DejaVuSans-63" x="1225.421875"/>
      <use xlink:href="#DejaVuSans-63" x="1280.402344"/>
      <use xlink:href="#DejaVuSans-75" x="1335.382812"/>
      <use xlink:href="#DejaVuSans-72" x="1398.761719"/>
      <use xlink:href="#DejaVuSans-61" x="1439.875"/>
      <use xlink:href="#DejaVuSans-63" x="1501.154297"/>
      <use xlink:href="#DejaVuSans-79" x="1556.134766"/>
     </g>
    </g>
   </g>
  </g>
 </g>
 <defs>
  <clipPath id="p183182dd67">
   <rect x="57.6" y="41.472" width="357.12" height="266.112"/>
  </clipPath>
 </defs>
</svg>
