<?xml version="1.0" encoding="utf-8" standalone="no"?>
<!DOCTYPE svg PUBLIC "-//W3C//DTD SVG 1.1//EN"
  "http://www.w3.org/Graphics/SVG/1.1/DTD/svg11.dtd">
<svg xmlns:xlink="http://www.w3.org/1999/xlink" width="460.8pt" height="345.6pt" viewBox="0 0 460.8 345.6" xmlns="http://www.w3.org/2000/svg" version="1.1">
 <metadata>
  <rdf:RDF xmlns:dc="http://purl.org/dc/elements/1.1/" xmlns:cc="http://creativecommons.org/ns#" xmlns:rdf="http://www.w3.org/1999/02/22-rdf-syntax-ns#">
   <cc:Work>
    <dc:type rdf:resource="http://purl.org/dc/dcmitype/StillImage"/>
    <dc:date>2025-11-04T04:45:53.831510</dc:date>
    <dc:format>image/svg+xml</dc:format>
    <dc:creator>
     <cc:Agent>
      <dc:title>Matplotlib v3.9.1, https://matplotlib.org/</dc:title>
     </cc:Agent>
    </dc:creator>
   </cc:Work>
  </rdf:RDF>
 </metadata>
 <defs>
  <style type="text/css">*{stroke-linejoin: round; stroke-linecap: butt}</style>
 </defs>
 <g id="figure_1">
  <g id="patch_1">
   <path d="M 0 345.6 
L 460.8 345.6 
L 460.8 0 
L 0 0 
z
" style="fill: #ffffff"/>
  </g>
  <g id="axes_1">
   <g id="patch_2">
    <path d="M 57.6 307.584 
L 414.72 307.584 
L 414.72 41.472 
L 57.6 41.472 
z
" style="fill: #ffffff"/>
   </g>
   <g id="matplotlib.axis_1">
    <g id="xtick_1">
     <g id="line2d_1">
      <defs>
       <path id="m4e38836023" d="M 0 0 
L 0 3.5 
" style="stroke: #000000; stroke-width: 0.8"/>
      </defs>
      <g>
       <use xlink:href="#m4e38836023" x="73.832727" y="307.584" style="stroke: #000000; stroke-width: 0.8"/>
      </g>
     </g>
     <g id="text_1">
      <!-- 1 -->
      <g transform="translate(70.651477 322.182437) scale(0.1 -0.1)">
       <defs>
        <path id="DejaVuSans-31" d="M 794 531 
L 1825 531 
L 1825 4091 
L 703 3866 
L 703 4441 
L 1819 4666 
L 2450 4666 
L 2450 531 
L 3481 531 
L 3481 0 
L 794 0 
L 794 531 
z
" transform="scale(0.015625)"/>
       </defs>
       <use xlink:href="#DejaVuSans-31"/>
      </g>
     </g>
    </g>
    <g id="xtick_2">
     <g id="line2d_2">
      <g>
       <use xlink:href="#m4e38836023" x="109.664165" y="307.584" style="stroke: #000000; stroke-width: 0.8"/>
      </g>
     </g>
     <g id="text_2">
      <!-- 34 -->
      <g transform="translate(103.301665 322.182437) scale(0.1 -0.1)">
       <defs>
        <path id="DejaVuSans-33" d="M 2597 2516 
Q 3050 2419 3304 2112 
Q 3559 1806 3559 1356 
Q 3559 666 3084 287 
Q 2609 -91 1734 -91 
Q 1441 -91 1130 -33 
Q 819 25 488 141 
L 488 750 
Q 750 597 1062 519 
Q 1375 441 1716 441 
Q 2309 441 2620 675 
Q 2931 909 2931 1356 
Q 2931 1769 2642 2001 
Q 2353 2234 1838 2234 
L 1294 2234 
L 1294 2753 
L 1863 2753 
Q 2328 2753 2575 2939 
Q 2822 3125 2822 3475 
Q 2822 3834 2567 4026 
Q 2313 4219 1838 4219 
Q 1578 4219 1281 4162 
Q 984 4106 628 3988 
L 628 4550 
Q 988 4650 1302 4700 
Q 1616 4750 1894 4750 
Q 2613 4750 3031 4423 
Q 3450 4097 3450 3541 
Q 3450 3153 3228 2886 
Q 3006 2619 2597 2516 
z
" transform="scale(0.015625)"/>
        <path id="DejaVuSans-34" d="M 2419 4116 
L 825 1625 
L 2419 1625 
L 2419 4116 
z
M 2253 4666 
L 3047 4666 
L 3047 1625 
L 3713 1625 
L 3713 1100 
L 3047 1100 
L 3047 0 
L 2419 0 
L 2419 1100 
L 313 1100 
L 313 1709 
L 2253 4666 
z
" transform="scale(0.015625)"/>
       </defs>
       <use xlink:href="#DejaVuSans-33"/>
       <use xlink:href="#DejaVuSans-34" x="63.623047"/>
      </g>
     </g>
    </g>
    <g id="xtick_3">
     <g id="line2d_3">
      <g>
       <use xlink:href="#m4e38836023" x="145.495604" y="307.584" style="stroke: #000000; stroke-width: 0.8"/>
      </g>
     </g>
     <g id="text_3">
      <!-- 67 -->
      <g transform="translate(139.133104 322.182437) scale(0.1 -0.1)">
       <defs>
        <path id="DejaVuSans-36" d="M 2113 2584 
Q 1688 2584 1439 2293 
Q 1191 2003 1191 1497 
Q 1191 994 1439 701 
Q 1688 409 2113 409 
Q 2538 409 2786 701 
Q 3034 994 3034 1497 
Q 3034 2003 2786 2293 
Q 2538 2584 2113 2584 
z
M 3366 4563 
L 3366 3988 
Q 3128 4100 2886 4159 
Q 2644 4219 2406 4219 
Q 1781 4219 1451 3797 
Q 1122 3375 1075 2522 
Q 1259 2794 1537 2939 
Q 1816 3084 2150 3084 
Q 2853 3084 3261 2657 
Q 3669 2231 3669 1497 
Q 3669 778 3244 343 
Q 2819 -91 2113 -91 
Q 1303 -91 875 529 
Q 447 1150 447 2328 
Q 447 3434 972 4092 
Q 1497 4750 2381 4750 
Q 2619 4750 2861 4703 
Q 3103 4656 3366 4563 
z
" transform="scale(0.015625)"/>
        <path id="DejaVuSans-37" d="M 525 4666 
L 3525 4666 
L 3525 4397 
L 1831 0 
L 1172 0 
L 2766 4134 
L 525 4134 
L 525 4666 
z
" transform="scale(0.015625)"/>
       </defs>
       <use xlink:href="#DejaVuSans-36"/>
       <use xlink:href="#DejaVuSans-37" x="63.623047"/>
      </g>
     </g>
    </g>
    <g id="xtick_4">
     <g id="line2d_4">
      <g>
       <use xlink:href="#m4e38836023" x="181.327042" y="307.584" style="stroke: #000000; stroke-width: 0.8"/>
      </g>
     </g>
     <g id="text_4">
      <!-- 100 -->
      <g transform="translate(171.783292 322.182437) scale(0.1 -0.1)">
       <defs>
        <path id="DejaVuSans-30" d="M 2034 4250 
Q 1547 4250 1301 3770 
Q 1056 3291 1056 2328 
Q 1056 1369 1301 889 
Q 1547 409 2034 409 
Q 2525 409 2770 889 
Q 3016 1369 3016 2328 
Q 3016 3291 2770 3770 
Q 2525 4250 2034 4250 
z
M 2034 4750 
Q 2819 4750 3233 4129 
Q 3647 3509 3647 2328 
Q 3647 1150 3233 529 
Q 2819 -91 2034 -91 
Q 1250 -91 836 529 
Q 422 1150 422 2328 
Q 422 3509 836 4129 
Q 1250 4750 2034 4750 
z
" transform="scale(0.015625)"/>
       </defs>
       <use xlink:href="#DejaVuSans-31"/>
       <use xlink:href="#DejaVuSans-30" x="63.623047"/>
       <use xlink:href="#DejaVuSans-30" x="127.246094"/>
      </g>
     </g>
    </g>
    <g id="xtick_5">
     <g id="line2d_5">
      <g>
       <use xlink:href="#m4e38836023" x="217.15848" y="307.584" style="stroke: #000000; stroke-width: 0.8"/>
      </g>
     </g>
     <g id="text_5">
      <!-- 133 -->
      <g transform="translate(207.61473 322.182437) scale(0.1 -0.1)">
       <use xlink:href="#DejaVuSans-31"/>
       <use xlink:href="#DejaVuSans-33" x="63.623047"/>
       <use xlink:href="#DejaVuSans-33" x="127.246094"/>
      </g>
     </g>
    </g>
    <g id="xtick_6">
     <g id="line2d_6">
      <g>
       <use xlink:href="#m4e38836023" x="254.075719" y="307.584" style="stroke: #000000; stroke-width: 0.8"/>
      </g>
     </g>
     <g id="text_6">
      <!-- 167 -->
      <g transform="translate(244.531969 322.182437) scale(0.1 -0.1)">
       <use xlink:href="#DejaVuSans-31"/>
       <use xlink:href="#DejaVuSans-36" x="63.623047"/>
       <use xlink:href="#DejaVuSans-37" x="127.246094"/>
      </g>
     </g>
    </g>
    <g id="xtick_7">
     <g id="line2d_7">
      <g>
       <use xlink:href="#m4e38836023" x="289.907157" y="307.584" style="stroke: #000000; stroke-width: 0.8"/>
      </g>
     </g>
     <g id="text_7">
      <!-- 200 -->
      <g transform="translate(280.363407 322.182437) scale(0.1 -0.1)">
       <defs>
        <path id="DejaVuSans-32" d="M 1228 531 
L 3431 531 
L 3431 0 
L 469 0 
L 469 531 
Q 828 903 1448 1529 
Q 2069 2156 2228 2338 
Q 2531 2678 2651 2914 
Q 2772 3150 2772 3378 
Q 2772 3750 2511 3984 
Q 2250 4219 1831 4219 
Q 1534 4219 1204 4116 
Q 875 4013 500 3803 
L 500 4441 
Q 881 4594 1212 4672 
Q 1544 4750 1819 4750 
Q 2544 4750 2975 4387 
Q 3406 4025 3406 3419 
Q 3406 3131 3298 2873 
Q 3191 2616 2906 2266 
Q 2828 2175 2409 1742 
Q 1991 1309 1228 531 
z
" transform="scale(0.015625)"/>
       </defs>
       <use xlink:href="#DejaVuSans-32"/>
       <use xlink:href="#DejaVuSans-30" x="63.623047"/>
       <use xlink:href="#DejaVuSans-30" x="127.246094"/>
      </g>
     </g>
    </g>
    <g id="xtick_8">
     <g id="line2d_8">
      <g>
       <use xlink:href="#m4e38836023" x="325.738595" y="307.584" style="stroke: #000000; stroke-width: 0.8"/>
      </g>
     </g>
     <g id="text_8">
      <!-- 233 -->
      <g transform="translate(316.194845 322.182437) scale(0.1 -0.1)">
       <use xlink:href="#DejaVuSans-32"/>
       <use xlink:href="#DejaVuSans-33" x="63.623047"/>
       <use xlink:href="#DejaVuSans-33" x="127.246094"/>
      </g>
     </g>
    </g>
    <g id="xtick_9">
     <g id="line2d_9">
      <g>
       <use xlink:href="#m4e38836023" x="361.570033" y="307.584" style="stroke: #000000; stroke-width: 0.8"/>
      </g>
     </g>
     <g id="text_9">
      <!-- 266 -->
      <g transform="translate(352.026283 322.182437) scale(0.1 -0.1)">
       <use xlink:href="#DejaVuSans-32"/>
       <use xlink:href="#DejaVuSans-36" x="63.623047"/>
       <use xlink:href="#DejaVuSans-36" x="127.246094"/>
      </g>
     </g>
    </g>
    <g id="xtick_10">
     <g id="line2d_10">
      <g>
       <use xlink:href="#m4e38836023" x="398.487273" y="307.584" style="stroke: #000000; stroke-width: 0.8"/>
      </g>
     </g>
     <g id="text_10">
      <!-- 300 -->
      <g transform="translate(388.943523 322.182437) scale(0.1 -0.1)">
       <use xlink:href="#DejaVuSans-33"/>
       <use xlink:href="#DejaVuSans-30" x="63.623047"/>
       <use xlink:href="#DejaVuSans-30" x="127.246094"/>
      </g>
     </g>
    </g>
    <g id="text_11">
     <!-- Epochs -->
     <g transform="translate(218.244375 335.860562) scale(0.1 -0.1)">
      <defs>
       <path id="DejaVuSans-45" d="M 628 4666 
L 3578 4666 
L 3578 4134 
L 1259 4134 
L 1259 2753 
L 3481 2753 
L 3481 2222 
L 1259 2222 
L 1259 531 
L 3634 531 
L 3634 0 
L 628 0 
L 628 4666 
z
" transform="scale(0.015625)"/>
       <path id="DejaVuSans-70" d="M 1159 525 
L 1159 -1331 
L 581 -1331 
L 581 3500 
L 1159 3500 
L 1159 2969 
Q 1341 3281 1617 3432 
Q 1894 3584 2278 3584 
Q 2916 3584 3314 3078 
Q 3713 2572 3713 1747 
Q 3713 922 3314 415 
Q 2916 -91 2278 -91 
Q 1894 -91 1617 61 
Q 1341 213 1159 525 
z
M 3116 1747 
Q 3116 2381 2855 2742 
Q 2594 3103 2138 3103 
Q 1681 3103 1420 2742 
Q 1159 2381 1159 1747 
Q 1159 1113 1420 752 
Q 1681 391 2138 391 
Q 2594 391 2855 752 
Q 3116 1113 3116 1747 
z
" transform="scale(0.015625)"/>
       <path id="DejaVuSans-6f" d="M 1959 3097 
Q 1497 3097 1228 2736 
Q 959 2375 959 1747 
Q 959 1119 1226 758 
Q 1494 397 1959 397 
Q 2419 397 2687 759 
Q 2956 1122 2956 1747 
Q 2956 2369 2687 2733 
Q 2419 3097 1959 3097 
z
M 1959 3584 
Q 2709 3584 3137 3096 
Q 3566 2609 3566 1747 
Q 3566 888 3137 398 
Q 2709 -91 1959 -91 
Q 1206 -91 779 398 
Q 353 888 353 1747 
Q 353 2609 779 3096 
Q 1206 3584 1959 3584 
z
" transform="scale(0.015625)"/>
       <path id="DejaVuSans-63" d="M 3122 3366 
L 3122 2828 
Q 2878 2963 2633 3030 
Q 2388 3097 2138 3097 
Q 1578 3097 1268 2742 
Q 959 2388 959 1747 
Q 959 1106 1268 751 
Q 1578 397 2138 397 
Q 2388 397 2633 464 
Q 2878 531 3122 666 
L 3122 134 
Q 2881 22 2623 -34 
Q 2366 -91 2075 -91 
Q 1284 -91 818 406 
Q 353 903 353 1747 
Q 353 2603 823 3093 
Q 1294 3584 2113 3584 
Q 2378 3584 2631 3529 
Q 2884 3475 3122 3366 
z
" transform="scale(0.015625)"/>
       <path id="DejaVuSans-68" d="M 3513 2113 
L 3513 0 
L 2938 0 
L 2938 2094 
Q 2938 2591 2744 2837 
Q 2550 3084 2163 3084 
Q 1697 3084 1428 2787 
Q 1159 2491 1159 1978 
L 1159 0 
L 581 0 
L 581 4863 
L 1159 4863 
L 1159 2956 
Q 1366 3272 1645 3428 
Q 1925 3584 2291 3584 
Q 2894 3584 3203 3211 
Q 3513 2838 3513 2113 
z
" transform="scale(0.015625)"/>
       <path id="DejaVuSans-73" d="M 2834 3397 
L 2834 2853 
Q 2591 2978 2328 3040 
Q 2066 3103 1784 3103 
Q 1356 3103 1142 2972 
Q 928 2841 928 2578 
Q 928 2378 1081 2264 
Q 1234 2150 1697 2047 
L 1894 2003 
Q 2506 1872 2764 1633 
Q 3022 1394 3022 966 
Q 3022 478 2636 193 
Q 2250 -91 1575 -91 
Q 1294 -91 989 -36 
Q 684 19 347 128 
L 347 722 
Q 666 556 975 473 
Q 1284 391 1588 391 
Q 1994 391 2212 530 
Q 2431 669 2431 922 
Q 2431 1156 2273 1281 
Q 2116 1406 1581 1522 
L 1381 1569 
Q 847 1681 609 1914 
Q 372 2147 372 2553 
Q 372 3047 722 3315 
Q 1072 3584 1716 3584 
Q 2034 3584 2315 3537 
Q 2597 3491 2834 3397 
z
" transform="scale(0.015625)"/>
      </defs>
      <use xlink:href="#DejaVuSans-45"/>
      <use xlink:href="#DejaVuSans-70" x="63.183594"/>
      <use xlink:href="#DejaVuSans-6f" x="126.660156"/>
      <use xlink:href="#DejaVuSans-63" x="187.841797"/>
      <use xlink:href="#DejaVuSans-68" x="242.822266"/>
      <use xlink:href="#DejaVuSans-73" x="306.201172"/>
     </g>
    </g>
   </g>
   <g id="matplotlib.axis_2">
    <g id="ytick_1">
     <g id="line2d_11">
      <defs>
       <path id="mf15083a41c" d="M 0 0 
L -3.5 0 
" style="stroke: #000000; stroke-width: 0.8"/>
      </defs>
      <g>
       <use xlink:href="#mf15083a41c" x="57.6" y="254.262952" style="stroke: #000000; stroke-width: 0.8"/>
      </g>
     </g>
     <g id="text_12">
      <!-- 20 -->
      <g transform="translate(37.875 258.062171) scale(0.1 -0.1)">
       <use xlink:href="#DejaVuSans-32"/>
       <use xlink:href="#DejaVuSans-30" x="63.623047"/>
      </g>
     </g>
    </g>
    <g id="ytick_2">
     <g id="line2d_12">
      <g>
       <use xlink:href="#mf15083a41c" x="57.6" y="196.563803" style="stroke: #000000; stroke-width: 0.8"/>
      </g>
     </g>
     <g id="text_13">
      <!-- 40 -->
      <g transform="translate(37.875 200.363021) scale(0.1 -0.1)">
       <use xlink:href="#DejaVuSans-34"/>
       <use xlink:href="#DejaVuSans-30" x="63.623047"/>
      </g>
     </g>
    </g>
    <g id="ytick_3">
     <g id="line2d_13">
      <g>
       <use xlink:href="#mf15083a41c" x="57.6" y="138.864653" style="stroke: #000000; stroke-width: 0.8"/>
      </g>
     </g>
     <g id="text_14">
      <!-- 60 -->
      <g transform="translate(37.875 142.663872) scale(0.1 -0.1)">
       <use xlink:href="#DejaVuSans-36"/>
       <use xlink:href="#DejaVuSans-30" x="63.623047"/>
      </g>
     </g>
    </g>
    <g id="ytick_4">
     <g id="line2d_14">
      <g>
       <use xlink:href="#mf15083a41c" x="57.6" y="81.165503" style="stroke: #000000; stroke-width: 0.8"/>
      </g>
     </g>
     <g id="text_15">
      <!-- 80 -->
      <g transform="translate(37.875 84.964722) scale(0.1 -0.1)">
       <defs>
        <path id="DejaVuSans-38" d="M 2034 2216 
Q 1584 2216 1326 1975 
Q 1069 1734 1069 1313 
Q 1069 891 1326 650 
Q 1584 409 2034 409 
Q 2484 409 2743 651 
Q 3003 894 3003 1313 
Q 3003 1734 2745 1975 
Q 2488 2216 2034 2216 
z
M 1403 2484 
Q 997 2584 770 2862 
Q 544 3141 544 3541 
Q 544 4100 942 4425 
Q 1341 4750 2034 4750 
Q 2731 4750 3128 4425 
Q 3525 4100 3525 3541 
Q 3525 3141 3298 2862 
Q 3072 2584 2669 2484 
Q 3125 2378 3379 2068 
Q 3634 1759 3634 1313 
Q 3634 634 3220 271 
Q 2806 -91 2034 -91 
Q 1263 -91 848 271 
Q 434 634 434 1313 
Q 434 1759 690 2068 
Q 947 2378 1403 2484 
z
M 1172 3481 
Q 1172 3119 1398 2916 
Q 1625 2713 2034 2713 
Q 2441 2713 2670 2916 
Q 2900 3119 2900 3481 
Q 2900 3844 2670 4047 
Q 2441 4250 2034 4250 
Q 1625 4250 1398 4047 
Q 1172 3844 1172 3481 
z
" transform="scale(0.015625)"/>
       </defs>
       <use xlink:href="#DejaVuSans-38"/>
       <use xlink:href="#DejaVuSans-30" x="63.623047"/>
      </g>
     </g>
    </g>
    <g id="text_16">
     <!-- Accuracy -->
     <g transform="translate(31.795312 197.356125) rotate(-90) scale(0.1 -0.1)">
      <defs>
       <path id="DejaVuSans-41" d="M 2188 4044 
L 1331 1722 
L 3047 1722 
L 2188 4044 
z
M 1831 4666 
L 2547 4666 
L 4325 0 
L 3669 0 
L 3244 1197 
L 1141 1197 
L 716 0 
L 50 0 
L 1831 4666 
z
" transform="scale(0.015625)"/>
       <path id="DejaVuSans-75" d="M 544 1381 
L 544 3500 
L 1119 3500 
L 1119 1403 
Q 1119 906 1312 657 
Q 1506 409 1894 409 
Q 2359 409 2629 706 
Q 2900 1003 2900 1516 
L 2900 3500 
L 3475 3500 
L 3475 0 
L 2900 0 
L 2900 538 
Q 2691 219 2414 64 
Q 2138 -91 1772 -91 
Q 1169 -91 856 284 
Q 544 659 544 1381 
z
M 1991 3584 
L 1991 3584 
z
" transform="scale(0.015625)"/>
       <path id="DejaVuSans-72" d="M 2631 2963 
Q 2534 3019 2420 3045 
Q 2306 3072 2169 3072 
Q 1681 3072 1420 2755 
Q 1159 2438 1159 1844 
L 1159 0 
L 581 0 
L 581 3500 
L 1159 3500 
L 1159 2956 
Q 1341 3275 1631 3429 
Q 1922 3584 2338 3584 
Q 2397 3584 2469 3576 
Q 2541 3569 2628 3553 
L 2631 2963 
z
" transform="scale(0.015625)"/>
       <path id="DejaVuSans-61" d="M 2194 1759 
Q 1497 1759 1228 1600 
Q 959 1441 959 1056 
Q 959 750 1161 570 
Q 1363 391 1709 391 
Q 2188 391 2477 730 
Q 2766 1069 2766 1631 
L 2766 1759 
L 2194 1759 
z
M 3341 1997 
L 3341 0 
L 2766 0 
L 2766 531 
Q 2569 213 2275 61 
Q 1981 -91 1556 -91 
Q 1019 -91 701 211 
Q 384 513 384 1019 
Q 384 1609 779 1909 
Q 1175 2209 1959 2209 
L 2766 2209 
L 2766 2266 
Q 2766 2663 2505 2880 
Q 2244 3097 1772 3097 
Q 1472 3097 1187 3025 
Q 903 2953 641 2809 
L 641 3341 
Q 956 3463 1253 3523 
Q 1550 3584 1831 3584 
Q 2591 3584 2966 3190 
Q 3341 2797 3341 1997 
z
" transform="scale(0.015625)"/>
       <path id="DejaVuSans-79" d="M 2059 -325 
Q 1816 -950 1584 -1140 
Q 1353 -1331 966 -1331 
L 506 -1331 
L 506 -850 
L 844 -850 
Q 1081 -850 1212 -737 
Q 1344 -625 1503 -206 
L 1606 56 
L 191 3500 
L 800 3500 
L 1894 763 
L 2988 3500 
L 3597 3500 
L 2059 -325 
z
" transform="scale(0.015625)"/>
      </defs>
      <use xlink:href="#DejaVuSans-41"/>
      <use xlink:href="#DejaVuSans-63" x="66.658203"/>
      <use xlink:href="#DejaVuSans-63" x="121.638672"/>
      <use xlink:href="#DejaVuSans-75" x="176.619141"/>
      <use xlink:href="#DejaVuSans-72" x="239.998047"/>
      <use xlink:href="#DejaVuSans-61" x="281.111328"/>
      <use xlink:href="#DejaVuSans-63" x="342.390625"/>
      <use xlink:href="#DejaVuSans-79" x="397.371094"/>
     </g>
    </g>
   </g>
   <g id="line2d_15">
    <path d="M 73.832727 293.567613 
L 74.918528 269.486873 
L 76.00433 252.084809 
L 77.090131 238.646677 
L 79.261733 217.450895 
L 81.433335 202.85301 
L 83.604938 190.698684 
L 84.690739 185.748097 
L 86.862341 174.964126 
L 89.033943 165.282209 
L 91.205546 157.925567 
L 92.291347 156.289796 
L 93.377148 152.960555 
L 94.462949 152.539351 
L 95.54875 186.616469 
L 96.634552 185.352858 
L 97.720353 181.82744 
L 99.891955 175.69979 
L 100.977756 173.357205 
L 103.149358 167.610369 
L 104.23516 165.446651 
L 105.320961 161.508684 
L 106.406762 159.255532 
L 108.578364 154.01645 
L 109.664165 151.823882 
L 110.749967 148.630234 
L 114.00737 141.368796 
L 115.093171 138.296316 
L 117.264773 133.677499 
L 118.350575 130.010718 
L 119.436376 127.671018 
L 123.77958 116.621631 
L 124.865382 113.119292 
L 129.208586 103.495074 
L 130.294387 101.288082 
L 131.380189 99.467674 
L 132.46599 98.149248 
L 133.551791 96.279796 
L 134.637592 95.786468 
L 135.723393 94.395918 
L 136.809194 94.026644 
L 137.894995 93.469847 
L 138.980797 146.215525 
L 140.066598 148.734093 
L 141.152399 147.91188 
L 142.2382 146.077047 
L 143.324001 144.741311 
L 144.409802 143.720036 
L 145.495604 141.689026 
L 146.581405 140.436955 
L 147.667206 140.292707 
L 148.753007 138.01936 
L 149.838808 136.810563 
L 150.924609 135.368085 
L 152.01041 134.465093 
L 153.096212 132.959145 
L 154.182013 131.738808 
L 155.267814 130.705993 
L 157.439416 127.947974 
L 158.525217 127.512345 
L 159.611019 125.458256 
L 160.69682 124.627388 
L 163.954223 119.971066 
L 165.040024 119.503703 
L 167.211627 116.090799 
L 168.297428 115.014709 
L 170.46903 111.971079 
L 172.640632 109.149591 
L 173.726434 107.995608 
L 174.812235 107.167625 
L 175.898036 105.670332 
L 176.983837 103.44026 
L 178.069638 102.583428 
L 179.155439 100.950542 
L 180.24124 99.669621 
L 182.412843 96.67792 
L 183.498644 94.765193 
L 184.584445 93.651599 
L 185.670246 91.955244 
L 186.756047 91.072447 
L 187.841849 89.142411 
L 188.92765 88.285578 
L 190.013451 86.12763 
L 192.185053 82.899363 
L 193.270854 81.214548 
L 194.356656 80.969326 
L 195.442457 78.921006 
L 196.528258 77.386209 
L 197.614059 76.330315 
L 198.69986 75.095553 
L 199.785661 73.402083 
L 200.871462 72.473126 
L 201.957264 71.024878 
L 203.043065 69.847815 
L 204.128866 69.083301 
L 205.214667 67.937973 
L 206.300468 66.954203 
L 207.386269 66.377211 
L 209.557872 64.199068 
L 210.643673 63.469174 
L 212.815275 61.570872 
L 213.901076 61.420854 
L 214.986877 61.094854 
L 216.072679 60.362075 
L 218.244281 59.571597 
L 219.330082 59.594676 
L 220.415883 58.587826 
L 221.501684 59.285986 
L 223.673287 58.270481 
L 224.759088 58.65995 
L 225.844889 124.13983 
L 226.93069 129.292364 
L 230.188094 126.909389 
L 231.273895 125.230344 
L 232.359696 124.393706 
L 233.445497 123.759016 
L 234.531298 122.893528 
L 235.617099 121.488554 
L 236.702901 120.732695 
L 237.788702 119.835473 
L 238.874503 118.72765 
L 239.960304 118.38434 
L 241.046105 117.654446 
L 242.131906 117.665985 
L 243.217708 115.735949 
L 244.303509 115.291665 
L 245.38931 114.486762 
L 247.560912 113.644355 
L 248.646713 113.012549 
L 249.732514 112.074938 
L 250.818316 111.999929 
L 251.904117 111.495061 
L 252.989918 110.055468 
L 254.075719 109.412122 
L 255.16152 109.086122 
L 256.247321 109.149591 
L 257.333123 108.408157 
L 258.418924 107.825395 
L 259.504725 107.510935 
L 260.590526 106.916634 
L 261.676327 106.039607 
L 262.762128 105.82035 
L 264.933731 104.998137 
L 267.105333 104.077836 
L 268.191134 102.866153 
L 269.276935 103.258508 
L 270.362736 101.614082 
L 271.448538 101.813144 
L 272.534339 100.950542 
L 273.62014 100.979391 
L 274.705941 100.624542 
L 275.791742 99.822523 
L 276.877543 99.505178 
L 277.963344 98.01077 
L 279.049146 97.785743 
L 280.134947 97.834788 
L 281.220748 97.084699 
L 282.306549 96.193247 
L 283.39235 96.155742 
L 284.478151 95.218131 
L 285.563953 94.456502 
L 286.649754 94.514202 
L 287.735555 93.746803 
L 289.907157 92.731298 
L 290.992958 91.450377 
L 292.07876 91.473456 
L 293.164561 89.999243 
L 294.250362 89.872305 
L 295.336163 89.422252 
L 296.421964 88.626003 
L 297.507765 88.100941 
L 298.593566 87.798021 
L 300.765169 85.908373 
L 301.85097 86.015117 
L 304.022572 85.14963 
L 305.108373 84.12547 
L 306.194175 83.857169 
L 307.279976 83.265752 
L 309.451578 81.364565 
L 310.537379 81.344371 
L 311.62318 80.268282 
L 312.708981 79.783609 
L 313.794783 78.831573 
L 314.880584 79.223927 
L 315.966385 78.309395 
L 318.137987 77.086173 
L 319.223788 76.739979 
L 320.30959 75.539836 
L 321.395391 75.011889 
L 322.481192 74.253145 
L 323.566993 73.852136 
L 324.652794 73.292454 
L 325.738595 72.995304 
L 326.824396 72.542365 
L 327.910198 71.261444 
L 328.995999 70.595019 
L 330.0818 70.479621 
L 331.167601 69.394877 
L 332.253402 69.412187 
L 333.339203 67.966823 
L 334.425005 67.874504 
L 335.510806 67.006132 
L 337.682408 66.472415 
L 338.768209 65.500184 
L 339.85401 64.74721 
L 342.025613 63.881723 
L 343.111414 63.166254 
L 345.283016 62.972961 
L 346.368817 61.992076 
L 347.454618 61.288146 
L 348.54042 60.408234 
L 349.626221 60.448624 
L 352.883624 59.0148 
L 353.969425 58.215667 
L 355.055227 57.684834 
L 356.141028 57.748303 
L 357.226829 56.836657 
L 360.484232 55.922125 
L 361.570033 55.394178 
L 362.655835 55.348019 
L 363.741636 55.022019 
L 364.827437 54.23731 
L 365.913238 54.133452 
L 366.999039 53.568 
L 369.170642 55.495152 
L 371.342244 58.397419 
L 372.428045 60.506323 
L 374.599647 60.771739 
L 375.685448 60.575562 
L 376.77125 60.630376 
L 377.857051 61.490093 
L 378.942852 61.441049 
L 380.028653 61.518943 
L 381.114454 61.262182 
L 382.200255 61.666076 
L 383.286057 61.34296 
L 384.371858 61.533368 
L 385.457659 61.856483 
L 386.54346 61.435279 
L 387.629261 61.816093 
L 389.800863 61.989191 
L 390.886665 61.963226 
L 391.972466 62.110359 
L 393.058267 62.0642 
L 394.144068 62.447899 
L 395.229869 61.968996 
L 396.31567 61.801669 
L 397.401472 62.41328 
L 398.487273 62.332501 
L 398.487273 62.332501 
" clip-path="url(#p1e0d34d6e9)" style="fill: none; stroke: #1f77b4; stroke-width: 1.5; stroke-linecap: square"/>
   </g>
   <g id="line2d_16">
    <path d="M 73.832727 278.265799 
L 76.00433 237.732146 
L 77.090131 230.952496 
L 78.175932 215.864168 
L 79.261733 209.719209 
L 80.347534 201.208584 
L 81.433335 200.602743 
L 82.519137 192.66911 
L 83.604938 186.408752 
L 84.690739 181.388926 
L 85.77654 177.72503 
L 86.862341 176.542198 
L 87.948142 168.839361 
L 89.033943 167.56998 
L 90.119745 163.963783 
L 91.205546 162.203959 
L 92.291347 162.550154 
L 93.377148 160.963427 
L 94.462949 160.040241 
L 95.54875 183.668043 
L 96.634552 182.023617 
L 97.720353 181.619723 
L 98.806154 178.965562 
L 99.891955 174.263081 
L 100.977756 168.723963 
L 102.063557 170.743433 
L 103.149358 166.589094 
L 104.23516 164.19458 
L 105.320961 167.166086 
L 106.406762 161.800065 
L 107.492563 162.579004 
L 109.664165 155.828203 
L 110.749967 155.510858 
L 111.835768 156.462894 
L 114.00737 151.010324 
L 115.093171 152.827847 
L 116.178972 150.289085 
L 117.264773 150.087138 
L 118.350575 144.374922 
L 119.436376 144.634568 
L 120.522177 145.500055 
L 121.607978 141.374566 
L 122.693779 143.307488 
L 123.77958 141.836159 
L 124.865382 139.672441 
L 125.951183 139.643592 
L 127.036984 139.412795 
L 128.122785 137.768369 
L 129.208586 138.40306 
L 130.294387 137.652971 
L 131.380189 136.643236 
L 132.46599 135.287306 
L 133.551791 135.345005 
L 134.637592 136.268191 
L 135.723393 135.373854 
L 136.809194 135.575801 
L 137.894995 135.604651 
L 138.980797 161.828915 
L 140.066598 157.126434 
L 141.152399 163.069446 
L 142.2382 158.71316 
L 143.324001 158.857408 
L 144.409802 158.799709 
L 145.495604 161.857764 
L 146.581405 154.847317 
L 147.667206 156.635991 
L 148.753007 159.319002 
L 149.838808 152.077758 
L 150.924609 153.202892 
L 152.01041 154.962716 
L 153.096212 156.174398 
L 154.182013 152.6259 
L 155.267814 156.347495 
L 156.353615 153.491387 
L 157.439416 152.885546 
L 158.525217 150.923775 
L 159.611019 156.145548 
L 160.69682 151.904661 
L 161.782621 151.99121 
L 162.868422 152.539351 
L 163.954223 149.683244 
L 165.040024 150.144837 
L 166.125825 151.212271 
L 167.211627 153.924131 
L 168.297428 146.50979 
L 169.383229 152.6259 
L 170.46903 149.683244 
L 171.554831 148.183066 
L 172.640632 144.461471 
L 173.726434 146.855985 
L 174.812235 150.289085 
L 175.898036 150.087138 
L 176.983837 147.490676 
L 178.069638 146.365542 
L 179.155439 148.760057 
L 180.24124 146.480941 
L 181.327042 145.18271 
L 182.412843 145.932799 
L 183.498644 143.365187 
L 184.584445 144.51917 
L 185.670246 141.893858 
L 186.756047 144.317223 
L 187.841849 139.09545 
L 188.92765 140.047486 
L 190.013451 142.182354 
L 191.099252 138.316511 
L 192.185053 138.547308 
L 193.270854 140.739875 
L 194.356656 139.09545 
L 195.442457 140.335981 
L 196.528258 139.787839 
L 197.614059 137.075979 
L 198.69986 137.277926 
L 199.785661 136.874032 
L 200.871462 135.258456 
L 201.957264 136.441289 
L 203.043065 136.729784 
L 204.128866 134.912261 
L 206.300468 135.835448 
L 207.386269 133.037039 
L 208.472071 133.527482 
L 209.557872 133.64288 
L 211.729474 133.498632 
L 212.815275 131.565711 
L 213.901076 132.315799 
L 214.986877 131.709958 
L 216.072679 131.681109 
L 217.15848 131.825357 
L 218.244281 132.200401 
L 219.330082 131.508011 
L 220.415883 131.132967 
L 221.501684 131.681109 
L 222.587486 131.883056 
L 223.673287 131.363764 
L 224.759088 131.911905 
L 225.844889 164.396527 
L 226.93069 162.8098 
L 229.102292 158.886258 
L 230.188094 165.435111 
L 231.273895 159.376701 
L 232.359696 163.675287 
L 233.445497 155.020415 
L 234.531298 154.472273 
L 235.617099 162.14626 
L 236.702901 162.550154 
L 237.788702 160.588383 
L 238.874503 164.656173 
L 239.960304 155.251211 
L 241.046105 155.568557 
L 242.131906 157.299531 
L 243.217708 162.982898 
L 244.303509 162.780951 
L 245.38931 153.635635 
L 246.475111 156.318646 
L 247.560912 152.798998 
L 248.646713 154.299176 
L 249.732514 157.818824 
L 250.818316 165.896705 
L 251.904117 156.809089 
L 252.989918 156.982186 
L 254.075719 150.664129 
L 255.16152 169.358654 
L 256.247321 154.126078 
L 257.333123 155.799353 
L 258.418924 161.569268 
L 259.504725 153.202892 
L 260.590526 161.511569 
L 261.676327 154.328025 
L 262.762128 156.578292 
L 263.847929 152.135457 
L 264.933731 157.270682 
L 266.019532 151.068023 
L 267.105333 155.712805 
L 268.191134 149.91404 
L 269.276935 161.569268 
L 270.362736 149.163951 
L 271.448538 157.126434 
L 272.534339 153.375989 
L 273.62014 151.93351 
L 274.705941 155.482008 
L 275.791742 154.64537 
L 276.877543 154.414574 
L 277.963344 154.501123 
L 279.049146 153.952981 
L 280.134947 151.212271 
L 281.220748 151.443068 
L 282.306549 150.173686 
L 283.39235 155.33776 
L 284.478151 151.241121 
L 285.563953 153.751034 
L 286.649754 154.385724 
L 287.735555 152.885546 
L 288.821356 154.299176 
L 289.907157 151.443068 
L 290.992958 157.789974 
L 292.07876 150.60643 
L 294.250362 152.712449 
L 295.336163 150.923775 
L 296.421964 151.183421 
L 297.507765 154.328025 
L 298.593566 149.885191 
L 299.679368 149.885191 
L 300.765169 151.096873 
L 301.85097 148.933155 
L 302.936771 152.481652 
L 304.022572 148.183066 
L 305.108373 149.856341 
L 306.194175 152.914396 
L 307.279976 146.163595 
L 308.365777 150.087138 
L 309.451578 147.663773 
L 310.537379 147.173331 
L 311.62318 147.288729 
L 312.708981 146.048197 
L 313.794783 145.557754 
L 314.880584 145.528905 
L 315.966385 145.067312 
L 317.052186 147.836871 
L 318.137987 148.009968 
L 319.223788 147.086782 
L 320.30959 145.730852 
L 321.395391 146.971384 
L 322.481192 146.53864 
L 323.566993 141.720761 
L 324.652794 145.009612 
L 325.738595 145.298108 
L 326.824396 143.82678 
L 327.910198 143.047841 
L 328.995999 146.278994 
L 330.0818 144.259523 
L 331.167601 144.057576 
L 332.253402 142.586248 
L 333.339203 143.220939 
L 334.425005 144.461471 
L 335.510806 141.432265 
L 336.596607 144.576869 
L 337.682408 144.605718 
L 338.768209 141.547663 
L 339.85401 145.961648 
L 340.939811 139.557043 
L 342.025613 139.03775 
L 343.111414 139.845539 
L 344.197215 139.470494 
L 345.283016 140.191733 
L 346.368817 139.672441 
L 347.454618 139.355096 
L 348.54042 139.499344 
L 349.626221 136.931731 
L 350.712022 136.787484 
L 351.797823 136.845183 
L 352.883624 137.826068 
L 356.141028 138.576157 
L 357.226829 136.729784 
L 358.31263 136.152793 
L 359.398431 138.547308 
L 360.484232 135.6912 
L 361.570033 134.854562 
L 362.655835 137.624121 
L 363.741636 135.229607 
L 364.827437 134.046774 
L 365.913238 134.96996 
L 366.999039 134.941111 
L 368.08484 135.171907 
L 369.170642 136.181643 
L 371.342244 139.528193 
L 372.428045 139.355096 
L 373.513846 141.634212 
L 374.599647 140.855274 
L 375.685448 138.287661 
L 376.77125 141.028371 
L 377.857051 140.220583 
L 378.942852 141.316867 
L 380.028653 143.855629 
L 381.114454 141.432265 
L 382.200255 140.653327 
L 383.286057 139.268547 
L 384.371858 140.682176 
L 385.457659 139.528193 
L 386.54346 141.316867 
L 387.629261 141.489964 
L 388.715062 138.864653 
L 389.800863 141.518814 
L 390.886665 141.720761 
L 391.972466 142.643947 
L 393.058267 141.057221 
L 394.144068 141.634212 
L 395.229869 143.538284 
L 396.31567 141.11492 
L 397.401472 139.412795 
L 398.487273 139.557043 
L 398.487273 139.557043 
" clip-path="url(#p1e0d34d6e9)" style="fill: none; stroke: #ff7f0e; stroke-width: 1.5; stroke-linecap: square"/>
   </g>
   <g id="line2d_17">
    <path d="M 73.832727 295.488 
L 76.00433 280.526014 
L 77.090131 279.192964 
L 78.175932 272.169585 
L 79.261733 266.897077 
L 80.347534 263.992223 
L 81.433335 260.092556 
L 82.519137 258.500855 
L 83.604938 260.192037 
L 84.690739 253.506895 
L 86.862341 247.239573 
L 87.948142 240.435053 
L 89.033943 243.47918 
L 90.119745 241.370177 
L 93.377148 236.19715 
L 94.462949 235.381403 
L 95.54875 253.228347 
L 96.634552 254.442019 
L 97.720353 249.567435 
L 98.806154 250.383182 
L 99.891955 249.348577 
L 100.977756 245.747354 
L 102.063557 246.045798 
L 103.149358 242.146131 
L 104.23516 244.374512 
L 105.320961 242.006857 
L 106.406762 239.91775 
L 107.492563 241.88748 
L 108.578364 235.321714 
L 109.664165 231.640906 
L 110.749967 230.486923 
L 111.835768 236.595075 
L 112.921569 230.944537 
L 114.00737 226.527568 
L 115.093171 231.62101 
L 116.178972 230.029309 
L 117.264773 229.313044 
L 118.350575 228.298335 
L 119.436376 222.21008 
L 120.522177 225.592444 
L 121.607978 223.821677 
L 122.693779 223.602818 
L 123.77958 221.075993 
L 124.865382 220.260247 
L 125.951183 219.76284 
L 127.036984 222.806968 
L 128.122785 218.608857 
L 129.208586 222.249872 
L 130.294387 217.574252 
L 131.380189 217.434978 
L 132.46599 218.80782 
L 133.551791 217.952281 
L 134.637592 217.793111 
L 135.723393 216.798298 
L 136.809194 216.479957 
L 137.894995 216.559542 
L 138.980797 238.783663 
L 140.066598 231.78018 
L 141.152399 241.151318 
L 142.2382 238.10719 
L 143.324001 236.614971 
L 144.409802 233.133126 
L 145.495604 237.967917 
L 146.581405 229.671177 
L 147.667206 224.518046 
L 148.753007 237.072585 
L 149.838808 230.606301 
L 150.924609 227.542277 
L 152.01041 226.507672 
L 153.096212 233.690221 
L 154.182013 230.287961 
L 155.267814 231.720491 
L 156.353615 232.217898 
L 157.439416 230.725679 
L 158.525217 225.274104 
L 159.611019 239.75858 
L 161.782621 227.482588 
L 162.868422 232.735201 
L 163.954223 231.839869 
L 165.040024 227.641758 
L 166.125825 227.024974 
L 167.211627 233.849391 
L 168.297428 226.487775 
L 169.383229 230.34765 
L 170.46903 221.354541 
L 171.554831 231.760284 
L 172.640632 222.448835 
L 173.726434 227.323418 
L 174.812235 225.294 
L 175.898036 229.512007 
L 176.983837 227.363211 
L 178.069638 227.820825 
L 179.155439 225.214415 
L 180.24124 223.801781 
L 181.327042 223.304374 
L 182.412843 225.413378 
L 183.498644 222.866656 
L 184.584445 221.175474 
L 186.756047 220.578587 
L 187.841849 220.817342 
L 188.92765 218.270621 
L 190.013451 217.852799 
L 191.099252 218.768027 
L 192.185053 215.604522 
L 193.270854 224.378772 
L 194.356656 222.966138 
L 195.442457 216.67892 
L 196.528258 223.662507 
L 197.614059 222.667694 
L 198.69986 217.614044 
L 199.785661 220.08118 
L 200.871462 214.092406 
L 201.957264 213.873548 
L 203.043065 216.559542 
L 204.128866 218.668546 
L 205.214667 214.291369 
L 206.300468 215.783588 
L 207.386269 213.316452 
L 208.472071 214.311265 
L 209.557872 214.609709 
L 211.729474 213.415934 
L 212.815275 213.216971 
L 213.901076 211.943611 
L 214.986877 211.088071 
L 216.072679 211.187553 
L 217.15848 211.78444 
L 218.244281 210.889109 
L 219.330082 210.869213 
L 220.415883 211.068175 
L 221.501684 211.4661 
L 222.587486 210.82942 
L 223.673287 211.724752 
L 224.759088 211.127864 
L 225.844889 237.47051 
L 226.93069 235.122752 
L 228.016491 233.928976 
L 229.102292 237.848539 
L 230.188094 236.873622 
L 231.273895 238.982626 
L 232.359696 244.275031 
L 233.445497 240.435053 
L 234.531298 239.738684 
L 235.617099 240.057024 
L 236.702901 248.692 
L 237.788702 237.729162 
L 238.874503 233.630532 
L 239.960304 233.053541 
L 241.046105 227.144352 
L 242.131906 241.469658 
L 243.217708 236.416008 
L 244.303509 240.136609 
L 245.38931 231.382255 
L 246.475111 230.108895 
L 247.560912 230.606301 
L 248.646713 227.90041 
L 249.732514 230.546612 
L 250.818316 227.781032 
L 251.904117 228.039684 
L 252.989918 232.735201 
L 254.075719 227.960099 
L 255.16152 242.086442 
L 256.247321 225.990369 
L 257.333123 230.407338 
L 258.418924 232.954059 
L 259.504725 232.058728 
L 260.590526 238.584701 
L 261.676327 228.397816 
L 262.762128 225.910784 
L 263.847929 226.109747 
L 264.933731 231.839869 
L 266.019532 228.875326 
L 267.105333 227.661655 
L 268.191134 223.901262 
L 269.276935 228.716156 
L 270.362736 226.08985 
L 271.448538 236.376216 
L 272.534339 231.800076 
L 273.62014 234.187628 
L 274.705941 232.237794 
L 275.791742 231.959247 
L 276.877543 224.358876 
L 277.963344 237.609784 
L 280.134947 231.541425 
L 281.220748 231.819973 
L 282.306549 230.606301 
L 283.39235 235.242129 
L 284.478151 233.730014 
L 285.563953 224.33898 
L 286.649754 232.854578 
L 287.735555 231.859765 
L 288.821356 225.214415 
L 289.907157 231.760284 
L 290.992958 230.367546 
L 292.07876 227.721344 
L 293.164561 231.700595 
L 294.250362 236.754245 
L 295.336163 229.452318 
L 296.421964 228.795741 
L 297.507765 229.0146 
L 298.593566 228.676364 
L 299.679368 228.676364 
L 300.765169 223.722196 
L 301.85097 229.492111 
L 302.936771 229.989517 
L 304.022572 227.164248 
L 305.108373 228.497298 
L 306.194175 226.08985 
L 307.279976 232.735201 
L 308.365777 230.626197 
L 309.451578 227.601966 
L 310.537379 229.710969 
L 311.62318 226.865804 
L 312.708981 217.454874 
L 313.794783 223.204893 
L 314.880584 224.179809 
L 315.966385 225.731718 
L 317.052186 228.21875 
L 318.137987 221.991221 
L 320.30959 226.706634 
L 321.395391 226.826012 
L 322.481192 226.149539 
L 323.566993 222.946241 
L 324.652794 217.653837 
L 325.738595 220.817342 
L 326.824396 222.68759 
L 327.910198 219.723048 
L 328.995999 219.981699 
L 330.0818 220.638275 
L 331.167601 222.986034 
L 332.253402 217.375289 
L 333.339203 226.607153 
L 334.425005 224.458357 
L 335.510806 217.594148 
L 336.596607 221.851947 
L 337.682408 217.653837 
L 339.85401 224.438461 
L 340.939811 220.041388 
L 342.025613 219.504189 
L 343.111414 219.782736 
L 344.197215 215.644315 
L 345.283016 219.404707 
L 346.368817 219.006782 
L 347.454618 216.857986 
L 348.54042 219.205745 
L 349.626221 213.694481 
L 350.712022 217.733422 
L 351.797823 214.132199 
L 352.883624 215.803485 
L 353.969425 216.002447 
L 355.055227 218.250724 
L 356.141028 212.938423 
L 357.226829 213.097593 
L 359.398431 219.842425 
L 360.484232 211.963507 
L 361.570033 214.848464 
L 362.655835 215.544833 
L 363.741636 212.95832 
L 364.827437 212.580291 
L 365.913238 213.137386 
L 366.999039 212.719565 
L 368.08484 214.052614 
L 369.170642 218.250724 
L 370.256443 214.748983 
L 371.342244 214.928049 
L 372.428045 215.584626 
L 373.513846 221.434126 
L 375.685448 215.027531 
L 376.77125 217.494667 
L 377.857051 216.957468 
L 378.942852 220.459209 
L 380.028653 218.011969 
L 381.114454 217.47477 
L 382.200255 218.64865 
L 383.286057 215.246389 
L 384.371858 219.822529 
L 385.457659 220.777549 
L 386.54346 217.136534 
L 387.629261 221.115786 
L 388.715062 218.867508 
L 389.800863 217.932384 
L 390.886665 217.415082 
L 391.972466 215.982551 
L 393.058267 221.155578 
L 394.144068 217.136534 
L 395.229869 218.350206 
L 396.31567 216.062136 
L 397.401472 217.494667 
L 398.487273 217.713525 
L 398.487273 217.713525 
" clip-path="url(#p1e0d34d6e9)" style="fill: none; stroke: #2ca02c; stroke-width: 1.5; stroke-linecap: square"/>
   </g>
   <g id="line2d_18">
    <path d="M 368.08484 137.191378 
L 369.170642 139.326246 
L 370.256443 143.624833 
L 371.342244 142.009257 
L 372.428045 147.808021 
L 373.513846 144.49032 
L 374.599647 154.876167 
L 375.685448 150.260235 
L 376.77125 148.067667 
L 377.857051 151.010324 
L 378.942852 157.270682 
L 380.028653 162.607853 
L 381.114454 155.078114 
L 382.200255 154.414574 
L 383.286057 154.905017 
L 384.371858 166.012103 
L 385.457659 163.213694 
L 386.54346 164.771571 
L 387.629261 162.088561 
L 388.715062 168.031573 
L 389.800863 156.549442 
L 390.886665 171.493522 
L 391.972466 166.387147 
L 393.058267 163.357942 
L 394.144068 163.011747 
L 395.229869 175.445914 
L 396.31567 177.465384 
L 397.401472 184.620079 
L 398.487273 185.110521 
L 398.487273 185.110521 
" clip-path="url(#p1e0d34d6e9)" style="fill: none; stroke: #d62728; stroke-width: 1.5; stroke-linecap: square"/>
   </g>
   <g id="line2d_19">
    <path d="M 368.08484 218.091554 
L 369.170642 217.236015 
L 370.256443 221.792258 
L 371.342244 216.698816 
L 373.513846 225.254207 
L 374.599647 233.491258 
L 375.685448 227.562173 
L 376.77125 224.358876 
L 377.857051 225.970473 
L 378.942852 228.994704 
L 380.028653 229.17377 
L 381.114454 223.841573 
L 382.200255 225.990369 
L 383.286057 227.184145 
L 384.371858 230.407338 
L 385.457659 231.203189 
L 386.54346 228.477401 
L 387.629261 234.54576 
L 388.715062 243.558765 
L 389.800863 230.725679 
L 390.886665 242.882292 
L 391.972466 240.733497 
L 394.144068 227.343315 
L 395.229869 241.390073 
L 396.31567 241.151318 
L 397.401472 246.025901 
L 398.487273 244.573474 
L 398.487273 244.573474 
" clip-path="url(#p1e0d34d6e9)" style="fill: none; stroke: #9467bd; stroke-width: 1.5; stroke-linecap: square"/>
   </g>
   <g id="patch_3">
    <path d="M 57.6 307.584 
L 57.6 41.472 
" style="fill: none; stroke: #000000; stroke-width: 0.8; stroke-linejoin: miter; stroke-linecap: square"/>
   </g>
   <g id="patch_4">
    <path d="M 414.72 307.584 
L 414.72 41.472 
" style="fill: none; stroke: #000000; stroke-width: 0.8; stroke-linejoin: miter; stroke-linecap: square"/>
   </g>
   <g id="patch_5">
    <path d="M 57.6 307.584 
L 414.72 307.584 
" style="fill: none; stroke: #000000; stroke-width: 0.8; stroke-linejoin: miter; stroke-linecap: square"/>
   </g>
   <g id="patch_6">
    <path d="M 57.6 41.472 
L 414.72 41.472 
" style="fill: none; stroke: #000000; stroke-width: 0.8; stroke-linejoin: miter; stroke-linecap: square"/>
   </g>
   <g id="text_17">
    <!-- Learning Curves -->
    <g transform="translate(187.37625 35.472) scale(0.12 -0.12)">
     <defs>
      <path id="DejaVuSans-4c" d="M 628 4666 
L 1259 4666 
L 1259 531 
L 3531 531 
L 3531 0 
L 628 0 
L 628 4666 
z
" transform="scale(0.015625)"/>
      <path id="DejaVuSans-65" d="M 3597 1894 
L 3597 1613 
L 953 1613 
Q 991 1019 1311 708 
Q 1631 397 2203 397 
Q 2534 397 2845 478 
Q 3156 559 3463 722 
L 3463 178 
Q 3153 47 2828 -22 
Q 2503 -91 2169 -91 
Q 1331 -91 842 396 
Q 353 884 353 1716 
Q 353 2575 817 3079 
Q 1281 3584 2069 3584 
Q 2775 3584 3186 3129 
Q 3597 2675 3597 1894 
z
M 3022 2063 
Q 3016 2534 2758 2815 
Q 2500 3097 2075 3097 
Q 1594 3097 1305 2825 
Q 1016 2553 972 2059 
L 3022 2063 
z
" transform="scale(0.015625)"/>
      <path id="DejaVuSans-6e" d="M 3513 2113 
L 3513 0 
L 2938 0 
L 2938 2094 
Q 2938 2591 2744 2837 
Q 2550 3084 2163 3084 
Q 1697 3084 1428 2787 
Q 1159 2491 1159 1978 
L 1159 0 
L 581 0 
L 581 3500 
L 1159 3500 
L 1159 2956 
Q 1366 3272 1645 3428 
Q 1925 3584 2291 3584 
Q 2894 3584 3203 3211 
Q 3513 2838 3513 2113 
z
" transform="scale(0.015625)"/>
      <path id="DejaVuSans-69" d="M 603 3500 
L 1178 3500 
L 1178 0 
L 603 0 
L 603 3500 
z
M 603 4863 
L 1178 4863 
L 1178 4134 
L 603 4134 
L 603 4863 
z
" transform="scale(0.015625)"/>
      <path id="DejaVuSans-67" d="M 2906 1791 
Q 2906 2416 2648 2759 
Q 2391 3103 1925 3103 
Q 1463 3103 1205 2759 
Q 947 2416 947 1791 
Q 947 1169 1205 825 
Q 1463 481 1925 481 
Q 2391 481 2648 825 
Q 2906 1169 2906 1791 
z
M 3481 434 
Q 3481 -459 3084 -895 
Q 2688 -1331 1869 -1331 
Q 1566 -1331 1297 -1286 
Q 1028 -1241 775 -1147 
L 775 -588 
Q 1028 -725 1275 -790 
Q 1522 -856 1778 -856 
Q 2344 -856 2625 -561 
Q 2906 -266 2906 331 
L 2906 616 
Q 2728 306 2450 153 
Q 2172 0 1784 0 
Q 1141 0 747 490 
Q 353 981 353 1791 
Q 353 2603 747 3093 
Q 1141 3584 1784 3584 
Q 2172 3584 2450 3431 
Q 2728 3278 2906 2969 
L 2906 3500 
L 3481 3500 
L 3481 434 
z
" transform="scale(0.015625)"/>
      <path id="DejaVuSans-20" transform="scale(0.015625)"/>
      <path id="DejaVuSans-43" d="M 4122 4306 
L 4122 3641 
Q 3803 3938 3442 4084 
Q 3081 4231 2675 4231 
Q 1875 4231 1450 3742 
Q 1025 3253 1025 2328 
Q 1025 1406 1450 917 
Q 1875 428 2675 428 
Q 3081 428 3442 575 
Q 3803 722 4122 1019 
L 4122 359 
Q 3791 134 3420 21 
Q 3050 -91 2638 -91 
Q 1578 -91 968 557 
Q 359 1206 359 2328 
Q 359 3453 968 4101 
Q 1578 4750 2638 4750 
Q 3056 4750 3426 4639 
Q 3797 4528 4122 4306 
z
" transform="scale(0.015625)"/>
      <path id="DejaVuSans-76" d="M 191 3500 
L 800 3500 
L 1894 563 
L 2988 3500 
L 3597 3500 
L 2284 0 
L 1503 0 
L 191 3500 
z
" transform="scale(0.015625)"/>
     </defs>
     <use xlink:href="#DejaVuSans-4c"/>
     <use xlink:href="#DejaVuSans-65" x="53.962891"/>
     <use xlink:href="#DejaVuSans-61" x="115.486328"/>
     <use xlink:href="#DejaVuSans-72" x="176.765625"/>
     <use xlink:href="#DejaVuSans-6e" x="216.128906"/>
     <use xlink:href="#DejaVuSans-69" x="279.507812"/>
     <use xlink:href="#DejaVuSans-6e" x="307.291016"/>
     <use xlink:href="#DejaVuSans-67" x="370.669922"/>
     <use xlink:href="#DejaVuSans-20" x="434.146484"/>
     <use xlink:href="#DejaVuSans-43" x="465.933594"/>
     <use xlink:href="#DejaVuSans-75" x="535.757812"/>
     <use xlink:href="#DejaVuSans-72" x="599.136719"/>
     <use xlink:href="#DejaVuSans-76" x="640.25"/>
     <use xlink:href="#DejaVuSans-65" x="699.429688"/>
     <use xlink:href="#DejaVuSans-73" x="760.953125"/>
    </g>
   </g>
   <g id="legend_1">
    <g id="patch_7">
     <path d="M 214.18875 302.584 
L 407.72 302.584 
Q 409.72 302.584 409.72 300.584 
L 409.72 228.193375 
Q 409.72 226.193375 407.72 226.193375 
L 214.18875 226.193375 
Q 212.18875 226.193375 212.18875 228.193375 
L 212.18875 300.584 
Q 212.18875 302.584 214.18875 302.584 
z
" style="fill: #ffffff; opacity: 0.8; stroke: #cccccc; stroke-linejoin: miter"/>
    </g>
    <g id="line2d_20">
     <path d="M 216.18875 234.291812 
L 226.18875 234.291812 
L 236.18875 234.291812 
" style="fill: none; stroke: #1f77b4; stroke-width: 1.5; stroke-linecap: square"/>
    </g>
    <g id="text_18">
     <!-- Train Accuracy -->
     <g transform="translate(244.18875 237.791812) scale(0.1 -0.1)">
      <defs>
       <path id="DejaVuSans-54" d="M -19 4666 
L 3928 4666 
L 3928 4134 
L 2272 4134 
L 2272 0 
L 1638 0 
L 1638 4134 
L -19 4134 
L -19 4666 
z
" transform="scale(0.015625)"/>
      </defs>
      <use xlink:href="#DejaVuSans-54"/>
      <use xlink:href="#DejaVuSans-72" x="46.333984"/>
      <use xlink:href="#DejaVuSans-61" x="87.447266"/>
      <use xlink:href="#DejaVuSans-69" x="148.726562"/>
      <use xlink:href="#DejaVuSans-6e" x="176.509766"/>
      <use xlink:href="#DejaVuSans-20" x="239.888672"/>
      <use xlink:href="#DejaVuSans-41" x="271.675781"/>
      <use xlink:href="#DejaVuSans-63" x="338.333984"/>
      <use xlink:href="#DejaVuSans-63" x="393.314453"/>
      <use xlink:href="#DejaVuSans-75" x="448.294922"/>
      <use xlink:href="#DejaVuSans-72" x="511.673828"/>
      <use xlink:href="#DejaVuSans-61" x="552.787109"/>
      <use xlink:href="#DejaVuSans-63" x="614.066406"/>
      <use xlink:href="#DejaVuSans-79" x="669.046875"/>
     </g>
    </g>
    <g id="line2d_21">
     <path d="M 216.18875 248.969937 
L 226.18875 248.969937 
L 236.18875 248.969937 
" style="fill: none; stroke: #ff7f0e; stroke-width: 1.5; stroke-linecap: square"/>
    </g>
    <g id="text_19">
     <!-- Validation Accuracy -->
     <g transform="translate(244.18875 252.469937) scale(0.1 -0.1)">
      <defs>
       <path id="DejaVuSans-56" d="M 1831 0 
L 50 4666 
L 709 4666 
L 2188 738 
L 3669 4666 
L 4325 4666 
L 2547 0 
L 1831 0 
z
" transform="scale(0.015625)"/>
       <path id="DejaVuSans-6c" d="M 603 4863 
L 1178 4863 
L 1178 0 
L 603 0 
L 603 4863 
z
" transform="scale(0.015625)"/>
       <path id="DejaVuSans-64" d="M 2906 2969 
L 2906 4863 
L 3481 4863 
L 3481 0 
L 2906 0 
L 2906 525 
Q 2725 213 2448 61 
Q 2172 -91 1784 -91 
Q 1150 -91 751 415 
Q 353 922 353 1747 
Q 353 2572 751 3078 
Q 1150 3584 1784 3584 
Q 2172 3584 2448 3432 
Q 2725 3281 2906 2969 
z
M 947 1747 
Q 947 1113 1208 752 
Q 1469 391 1925 391 
Q 2381 391 2643 752 
Q 2906 1113 2906 1747 
Q 2906 2381 2643 2742 
Q 2381 3103 1925 3103 
Q 1469 3103 1208 2742 
Q 947 2381 947 1747 
z
" transform="scale(0.015625)"/>
       <path id="DejaVuSans-74" d="M 1172 4494 
L 1172 3500 
L 2356 3500 
L 2356 3053 
L 1172 3053 
L 1172 1153 
Q 1172 725 1289 603 
Q 1406 481 1766 481 
L 2356 481 
L 2356 0 
L 1766 0 
Q 1100 0 847 248 
Q 594 497 594 1153 
L 594 3053 
L 172 3053 
L 172 3500 
L 594 3500 
L 594 4494 
L 1172 4494 
z
" transform="scale(0.015625)"/>
      </defs>
      <use xlink:href="#DejaVuSans-56"/>
      <use xlink:href="#DejaVuSans-61" x="60.658203"/>
      <use xlink:href="#DejaVuSans-6c" x="121.9375"/>
      <use xlink:href="#DejaVuSans-69" x="149.720703"/>
      <use xlink:href="#DejaVuSans-64" x="177.503906"/>
      <use xlink:href="#DejaVuSans-61" x="240.980469"/>
      <use xlink:href="#DejaVuSans-74" x="302.259766"/>
      <use xlink:href="#DejaVuSans-69" x="341.46875"/>
      <use xlink:href="#DejaVuSans-6f" x="369.251953"/>
      <use xlink:href="#DejaVuSans-6e" x="430.433594"/>
      <use xlink:href="#DejaVuSans-20" x="493.8125"/>
      <use xlink:href="#DejaVuSans-41" x="525.599609"/>
      <use xlink:href="#DejaVuSans-63" x="592.257812"/>
      <use xlink:href="#DejaVuSans-63" x="647.238281"/>
      <use xlink:href="#DejaVuSans-75" x="702.21875"/>
      <use xlink:href="#DejaVuSans-72" x="765.597656"/>
      <use xlink:href="#DejaVuSans-61" x="806.710938"/>
      <use xlink:href="#DejaVuSans-63" x="867.990234"/>
      <use xlink:href="#DejaVuSans-79" x="922.970703"/>
     </g>
    </g>
    <g id="line2d_22">
     <path d="M 216.18875 263.648062 
L 226.18875 263.648062 
L 236.18875 263.648062 
" style="fill: none; stroke: #2ca02c; stroke-width: 1.5; stroke-linecap: square"/>
    </g>
    <g id="text_20">
     <!-- Robust Validation Accuracy -->
     <g transform="translate(244.18875 267.148062) scale(0.1 -0.1)">
      <defs>
       <path id="DejaVuSans-52" d="M 2841 2188 
Q 3044 2119 3236 1894 
Q 3428 1669 3622 1275 
L 4263 0 
L 3584 0 
L 2988 1197 
Q 2756 1666 2539 1819 
Q 2322 1972 1947 1972 
L 1259 1972 
L 1259 0 
L 628 0 
L 628 4666 
L 2053 4666 
Q 2853 4666 3247 4331 
Q 3641 3997 3641 3322 
Q 3641 2881 3436 2590 
Q 3231 2300 2841 2188 
z
M 1259 4147 
L 1259 2491 
L 2053 2491 
Q 2509 2491 2742 2702 
Q 2975 2913 2975 3322 
Q 2975 3731 2742 3939 
Q 2509 4147 2053 4147 
L 1259 4147 
z
" transform="scale(0.015625)"/>
       <path id="DejaVuSans-62" d="M 3116 1747 
Q 3116 2381 2855 2742 
Q 2594 3103 2138 3103 
Q 1681 3103 1420 2742 
Q 1159 2381 1159 1747 
Q 1159 1113 1420 752 
Q 1681 391 2138 391 
Q 2594 391 2855 752 
Q 3116 1113 3116 1747 
z
M 1159 2969 
Q 1341 3281 1617 3432 
Q 1894 3584 2278 3584 
Q 2916 3584 3314 3078 
Q 3713 2572 3713 1747 
Q 3713 922 3314 415 
Q 2916 -91 2278 -91 
Q 1894 -91 1617 61 
Q 1341 213 1159 525 
L 1159 0 
L 581 0 
L 581 4863 
L 1159 4863 
L 1159 2969 
z
" transform="scale(0.015625)"/>
      </defs>
      <use xlink:href="#DejaVuSans-52"/>
      <use xlink:href="#DejaVuSans-6f" x="64.982422"/>
      <use xlink:href="#DejaVuSans-62" x="126.164062"/>
      <use xlink:href="#DejaVuSans-75" x="189.640625"/>
      <use xlink:href="#DejaVuSans-73" x="253.019531"/>
      <use xlink:href="#DejaVuSans-74" x="305.119141"/>
      <use xlink:href="#DejaVuSans-20" x="344.328125"/>
      <use xlink:href="#DejaVuSans-56" x="376.115234"/>
      <use xlink:href="#DejaVuSans-61" x="436.773438"/>
      <use xlink:href="#DejaVuSans-6c" x="498.052734"/>
      <use xlink:href="#DejaVuSans-69" x="525.835938"/>
      <use xlink:href="#DejaVuSans-64" x="553.619141"/>
      <use xlink:href="#DejaVuSans-61" x="617.095703"/>
      <use xlink:href="#DejaVuSans-74" x="678.375"/>
      <use xlink:href="#DejaVuSans-69" x="717.583984"/>
      <use xlink:href="#DejaVuSans-6f" x="745.367188"/>
      <use xlink:href="#DejaVuSans-6e" x="806.548828"/>
      <use xlink:href="#DejaVuSans-20" x="869.927734"/>
      <use xlink:href="#DejaVuSans-41" x="901.714844"/>
      <use xlink:href="#DejaVuSans-63" x="968.373047"/>
      <use xlink:href="#DejaVuSans-63" x="1023.353516"/>
      <use xlink:href="#DejaVuSans-75" x="1078.333984"/>
      <use xlink:href="#DejaVuSans-72" x="1141.712891"/>
      <use xlink:href="#DejaVuSans-61" x="1182.826172"/>
      <use xlink:href="#DejaVuSans-63" x="1244.105469"/>
      <use xlink:href="#DejaVuSans-79" x="1299.085938"/>
     </g>
    </g>
    <g id="line2d_23">
     <path d="M 216.18875 278.326188 
L 226.18875 278.326188 
L 236.18875 278.326188 
" style="fill: none; stroke: #d62728; stroke-width: 1.5; stroke-linecap: square"/>
    </g>
    <g id="text_21">
     <!-- SWA Validation Accuracy -->
     <g transform="translate(244.18875 281.826188) scale(0.1 -0.1)">
      <defs>
       <path id="DejaVuSans-53" d="M 3425 4513 
L 3425 3897 
Q 3066 4069 2747 4153 
Q 2428 4238 2131 4238 
Q 1616 4238 1336 4038 
Q 1056 3838 1056 3469 
Q 1056 3159 1242 3001 
Q 1428 2844 1947 2747 
L 2328 2669 
Q 3034 2534 3370 2195 
Q 3706 1856 3706 1288 
Q 3706 609 3251 259 
Q 2797 -91 1919 -91 
Q 1588 -91 1214 -16 
Q 841 59 441 206 
L 441 856 
Q 825 641 1194 531 
Q 1563 422 1919 422 
Q 2459 422 2753 634 
Q 3047 847 3047 1241 
Q 3047 1584 2836 1778 
Q 2625 1972 2144 2069 
L 1759 2144 
Q 1053 2284 737 2584 
Q 422 2884 422 3419 
Q 422 4038 858 4394 
Q 1294 4750 2059 4750 
Q 2388 4750 2728 4690 
Q 3069 4631 3425 4513 
z
" transform="scale(0.015625)"/>
       <path id="DejaVuSans-57" d="M 213 4666 
L 850 4666 
L 1831 722 
L 2809 4666 
L 3519 4666 
L 4500 722 
L 5478 4666 
L 6119 4666 
L 4947 0 
L 4153 0 
L 3169 4050 
L 2175 0 
L 1381 0 
L 213 4666 
z
" transform="scale(0.015625)"/>
      </defs>
      <use xlink:href="#DejaVuSans-53"/>
      <use xlink:href="#DejaVuSans-57" x="63.476562"/>
      <use xlink:href="#DejaVuSans-41" x="156.853516"/>
      <use xlink:href="#DejaVuSans-20" x="225.261719"/>
      <use xlink:href="#DejaVuSans-56" x="257.048828"/>
      <use xlink:href="#DejaVuSans-61" x="317.707031"/>
      <use xlink:href="#DejaVuSans-6c" x="378.986328"/>
      <use xlink:href="#DejaVuSans-69" x="406.769531"/>
      <use xlink:href="#DejaVuSans-64" x="434.552734"/>
      <use xlink:href="#DejaVuSans-61" x="498.029297"/>
      <use xlink:href="#DejaVuSans-74" x="559.308594"/>
      <use xlink:href="#DejaVuSans-69" x="598.517578"/>
      <use xlink:href="#DejaVuSans-6f" x="626.300781"/>
      <use xlink:href="#DejaVuSans-6e" x="687.482422"/>
      <use xlink:href="#DejaVuSans-20" x="750.861328"/>
      <use xlink:href="#DejaVuSans-41" x="782.648438"/>
      <use xlink:href="#DejaVuSans-63" x="849.306641"/>
      <use xlink:href="#DejaVuSans-63" x="904.287109"/>
      <use xlink:href="#DejaVuSans-75" x="959.267578"/>
      <use xlink:href="#DejaVuSans-72" x="1022.646484"/>
      <use xlink:href="#DejaVuSans-61" x="1063.759766"/>
      <use xlink:href="#DejaVuSans-63" x="1125.039062"/>
      <use xlink:href="#DejaVuSans-79" x="1180.019531"/>
     </g>
    </g>
    <g id="line2d_24">
     <path d="M 216.18875 293.004312 
L 226.18875 293.004312 
L 236.18875 293.004312 
" style="fill: none; stroke: #9467bd; stroke-width: 1.5; stroke-linecap: square"/>
    </g>
    <g id="text_22">
     <!-- SWA Robust Validation Accuracy -->
     <g transform="translate(244.18875 296.504312) scale(0.1 -0.1)">
      <use xlink:href="#DejaVuSans-53"/>
      <use xlink:href="#DejaVuSans-57" x="63.476562"/>
      <use xlink:href="#DejaVuSans-41" x="156.853516"/>
      <use xlink:href="#DejaVuSans-20" x="225.261719"/>
      <use xlink:href="#DejaVuSans-52" x="257.048828"/>
      <use xlink:href="#DejaVuSans-6f" x="322.03125"/>
      <use xlink:href="#DejaVuSans-62" x="383.212891"/>
      <use xlink:href="#DejaVuSans-75" x="446.689453"/>
      <use xlink:href="#DejaVuSans-73" x="510.068359"/>
      <use xlink:href="#DejaVuSans-74" x="562.167969"/>
      <use xlink:href="#DejaVuSans-20" x="601.376953"/>
      <use xlink:href="#DejaVuSans-56" x="633.164062"/>
      <use xlink:href="#DejaVuSans-61" x="693.822266"/>
      <use xlink:href="#DejaVuSans-6c" x="755.101562"/>
      <use xlink:href="#DejaVuSans-69" x="782.884766"/>
      <use xlink:href="#DejaVuSans-64" x="810.667969"/>
      <use xlink:href="#DejaVuSans-61" x="874.144531"/>
      <use xlink:href="#DejaVuSans-74" x="935.423828"/>
      <use xlink:href="#DejaVuSans-69" x="974.632812"/>
      <use xlink:href="#DejaVuSans-6f" x="1002.416016"/>
      <use xlink:href="#DejaVuSans-6e" x="1063.597656"/>
      <use xlink:href="#DejaVuSans-20" x="1126.976562"/>
      <use xlink:href="#DejaVuSans-41" x="1158.763672"/>
      <use xlink:href="#DejaVuSans-63" x="1225.421875"/>
      <use xlink:href="#DejaVuSans-63" x="1280.402344"/>
      <use xlink:href="#DejaVuSans-75" x="1335.382812"/>
      <use xlink:href="#DejaVuSans-72" x="1398.761719"/>
      <use xlink:href="#DejaVuSans-61" x="1439.875"/>
      <use xlink:href="#DejaVuSans-63" x="1501.154297"/>
      <use xlink:href="#DejaVuSans-79" x="1556.134766"/>
     </g>
    </g>
   </g>
  </g>
 </g>
 <defs>
  <clipPath id="p1e0d34d6e9">
   <rect x="57.6" y="41.472" width="357.12" height="266.112"/>
  </clipPath>
 </defs>
</svg>
