<?xml version="1.0" encoding="utf-8" standalone="no"?>
<!DOCTYPE svg PUBLIC "-//W3C//DTD SVG 1.1//EN"
  "http://www.w3.org/Graphics/SVG/1.1/DTD/svg11.dtd">
<svg xmlns:xlink="http://www.w3.org/1999/xlink" width="460.8pt" height="345.6pt" viewBox="0 0 460.8 345.6" xmlns="http://www.w3.org/2000/svg" version="1.1">
 <metadata>
  <rdf:RDF xmlns:dc="http://purl.org/dc/elements/1.1/" xmlns:cc="http://creativecommons.org/ns#" xmlns:rdf="http://www.w3.org/1999/02/22-rdf-syntax-ns#">
   <cc:Work>
    <dc:type rdf:resource="http://purl.org/dc/dcmitype/StillImage"/>
    <dc:date>2025-07-09T20:59:15.368345</dc:date>
    <dc:format>image/svg+xml</dc:format>
    <dc:creator>
     <cc:Agent>
      <dc:title>Matplotlib v3.9.1, https://matplotlib.org/</dc:title>
     </cc:Agent>
    </dc:creator>
   </cc:Work>
  </rdf:RDF>
 </metadata>
 <defs>
  <style type="text/css">*{stroke-linejoin: round; stroke-linecap: butt}</style>
 </defs>
 <g id="figure_1">
  <g id="patch_1">
   <path d="M 0 345.6 
L 460.8 345.6 
L 460.8 0 
L 0 0 
z
" style="fill: #ffffff"/>
  </g>
  <g id="axes_1">
   <g id="patch_2">
    <path d="M 57.6 307.584 
L 414.72 307.584 
L 414.72 41.472 
L 57.6 41.472 
z
" style="fill: #ffffff"/>
   </g>
   <g id="matplotlib.axis_1">
    <g id="xtick_1">
     <g id="line2d_1">
      <defs>
       <path id="me57b57590a" d="M 0 0 
L 0 3.5 
" style="stroke: #000000; stroke-width: 0.8"/>
      </defs>
      <g>
       <use xlink:href="#me57b57590a" x="73.832727" y="307.584" style="stroke: #000000; stroke-width: 0.8"/>
      </g>
     </g>
     <g id="text_1">
      <!-- 1 -->
      <g transform="translate(70.651477 322.182437) scale(0.1 -0.1)">
       <defs>
        <path id="DejaVuSans-31" d="M 794 531 
L 1825 531 
L 1825 4091 
L 703 3866 
L 703 4441 
L 1819 4666 
L 2450 4666 
L 2450 531 
L 3481 531 
L 3481 0 
L 794 0 
L 794 531 
z
" transform="scale(0.015625)"/>
       </defs>
       <use xlink:href="#DejaVuSans-31"/>
      </g>
     </g>
    </g>
    <g id="xtick_2">
     <g id="line2d_2">
      <g>
       <use xlink:href="#me57b57590a" x="109.664165" y="307.584" style="stroke: #000000; stroke-width: 0.8"/>
      </g>
     </g>
     <g id="text_2">
      <!-- 34 -->
      <g transform="translate(103.301665 322.182437) scale(0.1 -0.1)">
       <defs>
        <path id="DejaVuSans-33" d="M 2597 2516 
Q 3050 2419 3304 2112 
Q 3559 1806 3559 1356 
Q 3559 666 3084 287 
Q 2609 -91 1734 -91 
Q 1441 -91 1130 -33 
Q 819 25 488 141 
L 488 750 
Q 750 597 1062 519 
Q 1375 441 1716 441 
Q 2309 441 2620 675 
Q 2931 909 2931 1356 
Q 2931 1769 2642 2001 
Q 2353 2234 1838 2234 
L 1294 2234 
L 1294 2753 
L 1863 2753 
Q 2328 2753 2575 2939 
Q 2822 3125 2822 3475 
Q 2822 3834 2567 4026 
Q 2313 4219 1838 4219 
Q 1578 4219 1281 4162 
Q 984 4106 628 3988 
L 628 4550 
Q 988 4650 1302 4700 
Q 1616 4750 1894 4750 
Q 2613 4750 3031 4423 
Q 3450 4097 3450 3541 
Q 3450 3153 3228 2886 
Q 3006 2619 2597 2516 
z
" transform="scale(0.015625)"/>
        <path id="DejaVuSans-34" d="M 2419 4116 
L 825 1625 
L 2419 1625 
L 2419 4116 
z
M 2253 4666 
L 3047 4666 
L 3047 1625 
L 3713 1625 
L 3713 1100 
L 3047 1100 
L 3047 0 
L 2419 0 
L 2419 1100 
L 313 1100 
L 313 1709 
L 2253 4666 
z
" transform="scale(0.015625)"/>
       </defs>
       <use xlink:href="#DejaVuSans-33"/>
       <use xlink:href="#DejaVuSans-34" x="63.623047"/>
      </g>
     </g>
    </g>
    <g id="xtick_3">
     <g id="line2d_3">
      <g>
       <use xlink:href="#me57b57590a" x="145.495604" y="307.584" style="stroke: #000000; stroke-width: 0.8"/>
      </g>
     </g>
     <g id="text_3">
      <!-- 67 -->
      <g transform="translate(139.133104 322.182437) scale(0.1 -0.1)">
       <defs>
        <path id="DejaVuSans-36" d="M 2113 2584 
Q 1688 2584 1439 2293 
Q 1191 2003 1191 1497 
Q 1191 994 1439 701 
Q 1688 409 2113 409 
Q 2538 409 2786 701 
Q 3034 994 3034 1497 
Q 3034 2003 2786 2293 
Q 2538 2584 2113 2584 
z
M 3366 4563 
L 3366 3988 
Q 3128 4100 2886 4159 
Q 2644 4219 2406 4219 
Q 1781 4219 1451 3797 
Q 1122 3375 1075 2522 
Q 1259 2794 1537 2939 
Q 1816 3084 2150 3084 
Q 2853 3084 3261 2657 
Q 3669 2231 3669 1497 
Q 3669 778 3244 343 
Q 2819 -91 2113 -91 
Q 1303 -91 875 529 
Q 447 1150 447 2328 
Q 447 3434 972 4092 
Q 1497 4750 2381 4750 
Q 2619 4750 2861 4703 
Q 3103 4656 3366 4563 
z
" transform="scale(0.015625)"/>
        <path id="DejaVuSans-37" d="M 525 4666 
L 3525 4666 
L 3525 4397 
L 1831 0 
L 1172 0 
L 2766 4134 
L 525 4134 
L 525 4666 
z
" transform="scale(0.015625)"/>
       </defs>
       <use xlink:href="#DejaVuSans-36"/>
       <use xlink:href="#DejaVuSans-37" x="63.623047"/>
      </g>
     </g>
    </g>
    <g id="xtick_4">
     <g id="line2d_4">
      <g>
       <use xlink:href="#me57b57590a" x="181.327042" y="307.584" style="stroke: #000000; stroke-width: 0.8"/>
      </g>
     </g>
     <g id="text_4">
      <!-- 100 -->
      <g transform="translate(171.783292 322.182437) scale(0.1 -0.1)">
       <defs>
        <path id="DejaVuSans-30" d="M 2034 4250 
Q 1547 4250 1301 3770 
Q 1056 3291 1056 2328 
Q 1056 1369 1301 889 
Q 1547 409 2034 409 
Q 2525 409 2770 889 
Q 3016 1369 3016 2328 
Q 3016 3291 2770 3770 
Q 2525 4250 2034 4250 
z
M 2034 4750 
Q 2819 4750 3233 4129 
Q 3647 3509 3647 2328 
Q 3647 1150 3233 529 
Q 2819 -91 2034 -91 
Q 1250 -91 836 529 
Q 422 1150 422 2328 
Q 422 3509 836 4129 
Q 1250 4750 2034 4750 
z
" transform="scale(0.015625)"/>
       </defs>
       <use xlink:href="#DejaVuSans-31"/>
       <use xlink:href="#DejaVuSans-30" x="63.623047"/>
       <use xlink:href="#DejaVuSans-30" x="127.246094"/>
      </g>
     </g>
    </g>
    <g id="xtick_5">
     <g id="line2d_5">
      <g>
       <use xlink:href="#me57b57590a" x="217.15848" y="307.584" style="stroke: #000000; stroke-width: 0.8"/>
      </g>
     </g>
     <g id="text_5">
      <!-- 133 -->
      <g transform="translate(207.61473 322.182437) scale(0.1 -0.1)">
       <use xlink:href="#DejaVuSans-31"/>
       <use xlink:href="#DejaVuSans-33" x="63.623047"/>
       <use xlink:href="#DejaVuSans-33" x="127.246094"/>
      </g>
     </g>
    </g>
    <g id="xtick_6">
     <g id="line2d_6">
      <g>
       <use xlink:href="#me57b57590a" x="254.075719" y="307.584" style="stroke: #000000; stroke-width: 0.8"/>
      </g>
     </g>
     <g id="text_6">
      <!-- 167 -->
      <g transform="translate(244.531969 322.182437) scale(0.1 -0.1)">
       <use xlink:href="#DejaVuSans-31"/>
       <use xlink:href="#DejaVuSans-36" x="63.623047"/>
       <use xlink:href="#DejaVuSans-37" x="127.246094"/>
      </g>
     </g>
    </g>
    <g id="xtick_7">
     <g id="line2d_7">
      <g>
       <use xlink:href="#me57b57590a" x="289.907157" y="307.584" style="stroke: #000000; stroke-width: 0.8"/>
      </g>
     </g>
     <g id="text_7">
      <!-- 200 -->
      <g transform="translate(280.363407 322.182437) scale(0.1 -0.1)">
       <defs>
        <path id="DejaVuSans-32" d="M 1228 531 
L 3431 531 
L 3431 0 
L 469 0 
L 469 531 
Q 828 903 1448 1529 
Q 2069 2156 2228 2338 
Q 2531 2678 2651 2914 
Q 2772 3150 2772 3378 
Q 2772 3750 2511 3984 
Q 2250 4219 1831 4219 
Q 1534 4219 1204 4116 
Q 875 4013 500 3803 
L 500 4441 
Q 881 4594 1212 4672 
Q 1544 4750 1819 4750 
Q 2544 4750 2975 4387 
Q 3406 4025 3406 3419 
Q 3406 3131 3298 2873 
Q 3191 2616 2906 2266 
Q 2828 2175 2409 1742 
Q 1991 1309 1228 531 
z
" transform="scale(0.015625)"/>
       </defs>
       <use xlink:href="#DejaVuSans-32"/>
       <use xlink:href="#DejaVuSans-30" x="63.623047"/>
       <use xlink:href="#DejaVuSans-30" x="127.246094"/>
      </g>
     </g>
    </g>
    <g id="xtick_8">
     <g id="line2d_8">
      <g>
       <use xlink:href="#me57b57590a" x="325.738595" y="307.584" style="stroke: #000000; stroke-width: 0.8"/>
      </g>
     </g>
     <g id="text_8">
      <!-- 233 -->
      <g transform="translate(316.194845 322.182437) scale(0.1 -0.1)">
       <use xlink:href="#DejaVuSans-32"/>
       <use xlink:href="#DejaVuSans-33" x="63.623047"/>
       <use xlink:href="#DejaVuSans-33" x="127.246094"/>
      </g>
     </g>
    </g>
    <g id="xtick_9">
     <g id="line2d_9">
      <g>
       <use xlink:href="#me57b57590a" x="361.570033" y="307.584" style="stroke: #000000; stroke-width: 0.8"/>
      </g>
     </g>
     <g id="text_9">
      <!-- 266 -->
      <g transform="translate(352.026283 322.182437) scale(0.1 -0.1)">
       <use xlink:href="#DejaVuSans-32"/>
       <use xlink:href="#DejaVuSans-36" x="63.623047"/>
       <use xlink:href="#DejaVuSans-36" x="127.246094"/>
      </g>
     </g>
    </g>
    <g id="xtick_10">
     <g id="line2d_10">
      <g>
       <use xlink:href="#me57b57590a" x="398.487273" y="307.584" style="stroke: #000000; stroke-width: 0.8"/>
      </g>
     </g>
     <g id="text_10">
      <!-- 300 -->
      <g transform="translate(388.943523 322.182437) scale(0.1 -0.1)">
       <use xlink:href="#DejaVuSans-33"/>
       <use xlink:href="#DejaVuSans-30" x="63.623047"/>
       <use xlink:href="#DejaVuSans-30" x="127.246094"/>
      </g>
     </g>
    </g>
    <g id="text_11">
     <!-- Epochs -->
     <g transform="translate(218.244375 335.860562) scale(0.1 -0.1)">
      <defs>
       <path id="DejaVuSans-45" d="M 628 4666 
L 3578 4666 
L 3578 4134 
L 1259 4134 
L 1259 2753 
L 3481 2753 
L 3481 2222 
L 1259 2222 
L 1259 531 
L 3634 531 
L 3634 0 
L 628 0 
L 628 4666 
z
" transform="scale(0.015625)"/>
       <path id="DejaVuSans-70" d="M 1159 525 
L 1159 -1331 
L 581 -1331 
L 581 3500 
L 1159 3500 
L 1159 2969 
Q 1341 3281 1617 3432 
Q 1894 3584 2278 3584 
Q 2916 3584 3314 3078 
Q 3713 2572 3713 1747 
Q 3713 922 3314 415 
Q 2916 -91 2278 -91 
Q 1894 -91 1617 61 
Q 1341 213 1159 525 
z
M 3116 1747 
Q 3116 2381 2855 2742 
Q 2594 3103 2138 3103 
Q 1681 3103 1420 2742 
Q 1159 2381 1159 1747 
Q 1159 1113 1420 752 
Q 1681 391 2138 391 
Q 2594 391 2855 752 
Q 3116 1113 3116 1747 
z
" transform="scale(0.015625)"/>
       <path id="DejaVuSans-6f" d="M 1959 3097 
Q 1497 3097 1228 2736 
Q 959 2375 959 1747 
Q 959 1119 1226 758 
Q 1494 397 1959 397 
Q 2419 397 2687 759 
Q 2956 1122 2956 1747 
Q 2956 2369 2687 2733 
Q 2419 3097 1959 3097 
z
M 1959 3584 
Q 2709 3584 3137 3096 
Q 3566 2609 3566 1747 
Q 3566 888 3137 398 
Q 2709 -91 1959 -91 
Q 1206 -91 779 398 
Q 353 888 353 1747 
Q 353 2609 779 3096 
Q 1206 3584 1959 3584 
z
" transform="scale(0.015625)"/>
       <path id="DejaVuSans-63" d="M 3122 3366 
L 3122 2828 
Q 2878 2963 2633 3030 
Q 2388 3097 2138 3097 
Q 1578 3097 1268 2742 
Q 959 2388 959 1747 
Q 959 1106 1268 751 
Q 1578 397 2138 397 
Q 2388 397 2633 464 
Q 2878 531 3122 666 
L 3122 134 
Q 2881 22 2623 -34 
Q 2366 -91 2075 -91 
Q 1284 -91 818 406 
Q 353 903 353 1747 
Q 353 2603 823 3093 
Q 1294 3584 2113 3584 
Q 2378 3584 2631 3529 
Q 2884 3475 3122 3366 
z
" transform="scale(0.015625)"/>
       <path id="DejaVuSans-68" d="M 3513 2113 
L 3513 0 
L 2938 0 
L 2938 2094 
Q 2938 2591 2744 2837 
Q 2550 3084 2163 3084 
Q 1697 3084 1428 2787 
Q 1159 2491 1159 1978 
L 1159 0 
L 581 0 
L 581 4863 
L 1159 4863 
L 1159 2956 
Q 1366 3272 1645 3428 
Q 1925 3584 2291 3584 
Q 2894 3584 3203 3211 
Q 3513 2838 3513 2113 
z
" transform="scale(0.015625)"/>
       <path id="DejaVuSans-73" d="M 2834 3397 
L 2834 2853 
Q 2591 2978 2328 3040 
Q 2066 3103 1784 3103 
Q 1356 3103 1142 2972 
Q 928 2841 928 2578 
Q 928 2378 1081 2264 
Q 1234 2150 1697 2047 
L 1894 2003 
Q 2506 1872 2764 1633 
Q 3022 1394 3022 966 
Q 3022 478 2636 193 
Q 2250 -91 1575 -91 
Q 1294 -91 989 -36 
Q 684 19 347 128 
L 347 722 
Q 666 556 975 473 
Q 1284 391 1588 391 
Q 1994 391 2212 530 
Q 2431 669 2431 922 
Q 2431 1156 2273 1281 
Q 2116 1406 1581 1522 
L 1381 1569 
Q 847 1681 609 1914 
Q 372 2147 372 2553 
Q 372 3047 722 3315 
Q 1072 3584 1716 3584 
Q 2034 3584 2315 3537 
Q 2597 3491 2834 3397 
z
" transform="scale(0.015625)"/>
      </defs>
      <use xlink:href="#DejaVuSans-45"/>
      <use xlink:href="#DejaVuSans-70" x="63.183594"/>
      <use xlink:href="#DejaVuSans-6f" x="126.660156"/>
      <use xlink:href="#DejaVuSans-63" x="187.841797"/>
      <use xlink:href="#DejaVuSans-68" x="242.822266"/>
      <use xlink:href="#DejaVuSans-73" x="306.201172"/>
     </g>
    </g>
   </g>
   <g id="matplotlib.axis_2">
    <g id="ytick_1">
     <g id="line2d_11">
      <defs>
       <path id="m5381545047" d="M 0 0 
L -3.5 0 
" style="stroke: #000000; stroke-width: 0.8"/>
      </defs>
      <g>
       <use xlink:href="#m5381545047" x="57.6" y="273.003397" style="stroke: #000000; stroke-width: 0.8"/>
      </g>
     </g>
     <g id="text_12">
      <!-- 10 -->
      <g transform="translate(37.875 276.802615) scale(0.1 -0.1)">
       <use xlink:href="#DejaVuSans-31"/>
       <use xlink:href="#DejaVuSans-30" x="63.623047"/>
      </g>
     </g>
    </g>
    <g id="ytick_2">
     <g id="line2d_12">
      <g>
       <use xlink:href="#m5381545047" x="57.6" y="237.171359" style="stroke: #000000; stroke-width: 0.8"/>
      </g>
     </g>
     <g id="text_13">
      <!-- 20 -->
      <g transform="translate(37.875 240.970578) scale(0.1 -0.1)">
       <use xlink:href="#DejaVuSans-32"/>
       <use xlink:href="#DejaVuSans-30" x="63.623047"/>
      </g>
     </g>
    </g>
    <g id="ytick_3">
     <g id="line2d_13">
      <g>
       <use xlink:href="#m5381545047" x="57.6" y="201.339322" style="stroke: #000000; stroke-width: 0.8"/>
      </g>
     </g>
     <g id="text_14">
      <!-- 30 -->
      <g transform="translate(37.875 205.138541) scale(0.1 -0.1)">
       <use xlink:href="#DejaVuSans-33"/>
       <use xlink:href="#DejaVuSans-30" x="63.623047"/>
      </g>
     </g>
    </g>
    <g id="ytick_4">
     <g id="line2d_14">
      <g>
       <use xlink:href="#m5381545047" x="57.6" y="165.507285" style="stroke: #000000; stroke-width: 0.8"/>
      </g>
     </g>
     <g id="text_15">
      <!-- 40 -->
      <g transform="translate(37.875 169.306503) scale(0.1 -0.1)">
       <use xlink:href="#DejaVuSans-34"/>
       <use xlink:href="#DejaVuSans-30" x="63.623047"/>
      </g>
     </g>
    </g>
    <g id="ytick_5">
     <g id="line2d_15">
      <g>
       <use xlink:href="#m5381545047" x="57.6" y="129.675247" style="stroke: #000000; stroke-width: 0.8"/>
      </g>
     </g>
     <g id="text_16">
      <!-- 50 -->
      <g transform="translate(37.875 133.474466) scale(0.1 -0.1)">
       <defs>
        <path id="DejaVuSans-35" d="M 691 4666 
L 3169 4666 
L 3169 4134 
L 1269 4134 
L 1269 2991 
Q 1406 3038 1543 3061 
Q 1681 3084 1819 3084 
Q 2600 3084 3056 2656 
Q 3513 2228 3513 1497 
Q 3513 744 3044 326 
Q 2575 -91 1722 -91 
Q 1428 -91 1123 -41 
Q 819 9 494 109 
L 494 744 
Q 775 591 1075 516 
Q 1375 441 1709 441 
Q 2250 441 2565 725 
Q 2881 1009 2881 1497 
Q 2881 1984 2565 2268 
Q 2250 2553 1709 2553 
Q 1456 2553 1204 2497 
Q 953 2441 691 2322 
L 691 4666 
z
" transform="scale(0.015625)"/>
       </defs>
       <use xlink:href="#DejaVuSans-35"/>
       <use xlink:href="#DejaVuSans-30" x="63.623047"/>
      </g>
     </g>
    </g>
    <g id="ytick_6">
     <g id="line2d_16">
      <g>
       <use xlink:href="#m5381545047" x="57.6" y="93.84321" style="stroke: #000000; stroke-width: 0.8"/>
      </g>
     </g>
     <g id="text_17">
      <!-- 60 -->
      <g transform="translate(37.875 97.642429) scale(0.1 -0.1)">
       <use xlink:href="#DejaVuSans-36"/>
       <use xlink:href="#DejaVuSans-30" x="63.623047"/>
      </g>
     </g>
    </g>
    <g id="ytick_7">
     <g id="line2d_17">
      <g>
       <use xlink:href="#m5381545047" x="57.6" y="58.011173" style="stroke: #000000; stroke-width: 0.8"/>
      </g>
     </g>
     <g id="text_18">
      <!-- 70 -->
      <g transform="translate(37.875 61.810391) scale(0.1 -0.1)">
       <use xlink:href="#DejaVuSans-37"/>
       <use xlink:href="#DejaVuSans-30" x="63.623047"/>
      </g>
     </g>
    </g>
    <g id="text_19">
     <!-- Accuracy -->
     <g transform="translate(31.795312 197.356125) rotate(-90) scale(0.1 -0.1)">
      <defs>
       <path id="DejaVuSans-41" d="M 2188 4044 
L 1331 1722 
L 3047 1722 
L 2188 4044 
z
M 1831 4666 
L 2547 4666 
L 4325 0 
L 3669 0 
L 3244 1197 
L 1141 1197 
L 716 0 
L 50 0 
L 1831 4666 
z
" transform="scale(0.015625)"/>
       <path id="DejaVuSans-75" d="M 544 1381 
L 544 3500 
L 1119 3500 
L 1119 1403 
Q 1119 906 1312 657 
Q 1506 409 1894 409 
Q 2359 409 2629 706 
Q 2900 1003 2900 1516 
L 2900 3500 
L 3475 3500 
L 3475 0 
L 2900 0 
L 2900 538 
Q 2691 219 2414 64 
Q 2138 -91 1772 -91 
Q 1169 -91 856 284 
Q 544 659 544 1381 
z
M 1991 3584 
L 1991 3584 
z
" transform="scale(0.015625)"/>
       <path id="DejaVuSans-72" d="M 2631 2963 
Q 2534 3019 2420 3045 
Q 2306 3072 2169 3072 
Q 1681 3072 1420 2755 
Q 1159 2438 1159 1844 
L 1159 0 
L 581 0 
L 581 3500 
L 1159 3500 
L 1159 2956 
Q 1341 3275 1631 3429 
Q 1922 3584 2338 3584 
Q 2397 3584 2469 3576 
Q 2541 3569 2628 3553 
L 2631 2963 
z
" transform="scale(0.015625)"/>
       <path id="DejaVuSans-61" d="M 2194 1759 
Q 1497 1759 1228 1600 
Q 959 1441 959 1056 
Q 959 750 1161 570 
Q 1363 391 1709 391 
Q 2188 391 2477 730 
Q 2766 1069 2766 1631 
L 2766 1759 
L 2194 1759 
z
M 3341 1997 
L 3341 0 
L 2766 0 
L 2766 531 
Q 2569 213 2275 61 
Q 1981 -91 1556 -91 
Q 1019 -91 701 211 
Q 384 513 384 1019 
Q 384 1609 779 1909 
Q 1175 2209 1959 2209 
L 2766 2209 
L 2766 2266 
Q 2766 2663 2505 2880 
Q 2244 3097 1772 3097 
Q 1472 3097 1187 3025 
Q 903 2953 641 2809 
L 641 3341 
Q 956 3463 1253 3523 
Q 1550 3584 1831 3584 
Q 2591 3584 2966 3190 
Q 3341 2797 3341 1997 
z
" transform="scale(0.015625)"/>
       <path id="DejaVuSans-79" d="M 2059 -325 
Q 1816 -950 1584 -1140 
Q 1353 -1331 966 -1331 
L 506 -1331 
L 506 -850 
L 844 -850 
Q 1081 -850 1212 -737 
Q 1344 -625 1503 -206 
L 1606 56 
L 191 3500 
L 800 3500 
L 1894 763 
L 2988 3500 
L 3597 3500 
L 2059 -325 
z
" transform="scale(0.015625)"/>
      </defs>
      <use xlink:href="#DejaVuSans-41"/>
      <use xlink:href="#DejaVuSans-63" x="66.658203"/>
      <use xlink:href="#DejaVuSans-63" x="121.638672"/>
      <use xlink:href="#DejaVuSans-75" x="176.619141"/>
      <use xlink:href="#DejaVuSans-72" x="239.998047"/>
      <use xlink:href="#DejaVuSans-61" x="281.111328"/>
      <use xlink:href="#DejaVuSans-63" x="342.390625"/>
      <use xlink:href="#DejaVuSans-79" x="397.371094"/>
     </g>
    </g>
   </g>
   <g id="line2d_18">
    <path d="M 73.832727 295.488 
L 74.918528 275.650488 
L 77.090131 247.007253 
L 79.261733 226.945792 
L 80.347534 218.22517 
L 81.433335 210.503365 
L 84.690739 192.748591 
L 85.77654 186.751204 
L 87.948142 179.123459 
L 89.033943 173.914376 
L 90.119745 170.765636 
L 91.205546 168.172292 
L 92.291347 165.081779 
L 93.377148 163.084143 
L 94.462949 162.600411 
L 95.54875 191.525823 
L 96.634552 191.257082 
L 97.720353 188.171048 
L 98.806154 184.148902 
L 99.891955 179.069711 
L 100.977756 177.116865 
L 102.063557 174.541437 
L 103.149358 170.850737 
L 104.23516 167.621375 
L 105.320961 166.631515 
L 106.406762 163.415589 
L 107.492563 160.867036 
L 108.578364 158.000473 
L 109.664165 157.310706 
L 110.749967 153.982806 
L 112.921569 148.437798 
L 114.00737 147.237425 
L 115.093171 144.536585 
L 116.178972 143.600473 
L 117.264773 140.536834 
L 118.350575 138.010675 
L 119.436376 136.622184 
L 120.522177 133.374905 
L 121.607978 132.63139 
L 122.693779 129.921593 
L 123.77958 128.53758 
L 124.865382 127.740317 
L 125.951183 124.148156 
L 128.122785 121.151701 
L 129.208586 119.928933 
L 130.294387 118.406072 
L 131.380189 116.332292 
L 132.46599 115.920224 
L 133.551791 115.790333 
L 134.637592 115.266289 
L 135.723393 113.591142 
L 136.809194 113.573226 
L 137.894995 114.684019 
L 138.980797 148.764765 
L 140.066598 151.873194 
L 141.152399 151.501437 
L 143.324001 149.678482 
L 144.409802 147.967502 
L 145.495604 147.371795 
L 146.581405 145.374159 
L 147.667206 144.200659 
L 148.753007 144.563459 
L 149.838808 143.833381 
L 150.924609 140.971297 
L 152.01041 140.639851 
L 153.096212 139.220006 
L 154.182013 139.349897 
L 155.267814 137.199975 
L 156.353615 135.995123 
L 158.525217 135.403894 
L 159.611019 133.53167 
L 160.69682 132.962837 
L 161.782621 132.071515 
L 162.868422 130.208249 
L 165.040024 129.464734 
L 166.125825 128.08968 
L 167.211627 127.36856 
L 169.383229 125.496336 
L 170.46903 123.610675 
L 171.554831 122.696958 
L 172.640632 121.501064 
L 173.726434 121.975838 
L 174.812235 120.170799 
L 175.898036 119.745294 
L 176.983837 118.630022 
L 178.069638 118.701686 
L 179.155439 117.026538 
L 180.24124 115.069213 
L 181.327042 115.239415 
L 182.412843 113.071577 
L 183.498644 112.368373 
L 184.584445 112.211608 
L 186.756047 109.479415 
L 187.841849 108.709026 
L 188.92765 108.090924 
L 190.013451 107.248871 
L 191.099252 106.017145 
L 192.185053 103.853785 
L 193.270854 103.222246 
L 194.356656 103.074439 
L 195.442457 102.39363 
L 196.528258 99.91674 
L 197.614059 98.470022 
L 198.69986 99.218016 
L 199.785661 95.818451 
L 200.871462 96.311142 
L 201.957264 95.997611 
L 204.128866 92.575652 
L 205.214667 92.929493 
L 206.300468 91.075185 
L 207.386269 91.214034 
L 208.472071 89.83898 
L 209.557872 88.163832 
L 210.643673 88.66996 
L 211.729474 87.088871 
L 212.815275 86.936585 
L 213.901076 85.669026 
L 214.986877 85.677984 
L 216.072679 84.710519 
L 217.15848 84.491048 
L 218.244281 84.647813 
L 219.330082 84.558233 
L 220.415883 83.953568 
L 221.501684 84.719477 
L 222.587486 83.53702 
L 223.673287 84.356678 
L 224.759088 83.519104 
L 225.844889 127.135652 
L 226.93069 132.335776 
L 228.016491 131.928187 
L 229.102292 132.823988 
L 230.188094 131.964019 
L 231.273895 130.906974 
L 232.359696 130.656149 
L 233.445497 130.226165 
L 234.531298 130.83083 
L 235.617099 128.591328 
L 236.702901 128.837673 
L 237.788702 127.579073 
L 238.874503 127.216274 
L 239.960304 126.360784 
L 242.131906 126.217456 
L 243.217708 126.168187 
L 244.303509 125.29926 
L 245.38931 124.985729 
L 246.475111 125.281344 
L 247.560912 124.434812 
L 248.646713 122.871639 
L 249.732514 123.435994 
L 251.904117 121.142743 
L 252.989918 122.195309 
L 254.075719 121.106911 
L 255.16152 120.770986 
L 256.247321 121.281593 
L 257.333123 120.466414 
L 258.418924 119.068964 
L 259.504725 120.049866 
L 260.590526 119.969244 
L 261.676327 117.51475 
L 262.762128 117.958171 
L 263.847929 118.00744 
L 264.933731 116.79363 
L 266.019532 116.820504 
L 267.105333 116.484579 
L 268.191134 117.223614 
L 269.276935 116.121779 
L 270.362736 115.956056 
L 271.448538 116.036678 
L 272.534339 114.643708 
L 273.62014 114.804952 
L 275.791742 113.067098 
L 276.877543 114.477984 
L 277.963344 113.089493 
L 279.049146 111.960784 
L 280.134947 112.256398 
L 281.220748 111.512883 
L 282.306549 112.51618 
L 283.39235 110.44688 
L 284.478151 111.508404 
L 285.563953 109.936274 
L 286.649754 109.95419 
L 287.735555 110.128871 
L 288.821356 109.336087 
L 289.907157 109.242028 
L 292.07876 107.508653 
L 293.164561 108.426849 
L 294.250362 106.536709 
L 295.336163 106.626289 
L 296.421964 106.102246 
L 297.507765 107.495216 
L 298.593566 106.021624 
L 299.679368 104.892914 
L 300.765169 105.018327 
L 301.85097 104.543552 
L 302.936771 103.47307 
L 304.022572 101.67251 
L 305.108373 103.078918 
L 306.194175 102.792261 
L 307.279976 102.666849 
L 308.365777 102.411546 
L 309.451578 100.736398 
L 310.537379 101.305232 
L 311.62318 99.728622 
L 312.708981 99.052292 
L 313.794783 99.020939 
L 314.880584 99.204579 
L 315.966385 97.995247 
L 317.052186 97.520473 
L 318.137987 96.467907 
L 319.223788 96.391764 
L 320.30959 95.285449 
L 321.395391 94.87786 
L 322.481192 94.273194 
L 323.566993 94.407565 
L 324.652794 93.731235 
L 325.738595 92.6294 
L 326.824396 93.502806 
L 327.910198 91.836616 
L 328.995999 92.320348 
L 330.0818 91.008 
L 331.167601 90.022619 
L 332.253402 88.732666 
L 333.339203 89.426911 
L 334.425005 88.477362 
L 335.510806 88.822246 
L 336.596607 87.321779 
L 337.682408 87.079913 
L 338.768209 86.197549 
L 339.85401 86.381188 
L 340.939811 86.41702 
L 342.025613 85.404765 
L 343.111414 83.931173 
L 344.197215 84.199913 
L 345.283016 83.192137 
L 346.368817 82.72632 
L 347.454618 83.40265 
L 348.54042 81.548342 
L 349.626221 80.670457 
L 350.712022 80.464423 
L 351.797823 79.895589 
L 352.883624 79.644765 
L 353.969425 79.694034 
L 355.055227 78.981872 
L 357.226829 76.415403 
L 358.31263 76.370613 
L 359.398431 75.192635 
L 360.484232 75.519602 
L 361.570033 74.516305 
L 362.655835 75.174719 
L 363.741636 74.037051 
L 364.827437 73.759353 
L 365.913238 73.194998 
L 366.999039 72.912821 
L 369.170642 74.870146 
L 370.256443 75.873443 
L 371.342244 77.785978 
L 372.428045 79.461126 
L 374.599647 80.276305 
L 375.685448 80.997425 
L 376.77125 81.118358 
L 377.857051 80.970551 
L 378.942852 80.661499 
L 380.028653 81.172106 
L 381.114454 80.012044 
L 382.200255 81.136274 
L 383.286057 81.449804 
L 384.371858 79.864236 
L 385.457659 80.47786 
L 386.54346 80.867533 
L 387.629261 81.46772 
L 388.715062 80.889928 
L 389.800863 81.024299 
L 390.886665 80.934719 
L 391.972466 80.710768 
L 393.058267 81.73646 
L 394.144068 81.472199 
L 395.229869 80.858575 
L 396.31567 81.391577 
L 397.401472 80.777953 
L 398.487273 81.01982 
L 398.487273 81.01982 
" clip-path="url(#pa07b5f79f5)" style="fill: none; stroke: #1f77b4; stroke-width: 1.5; stroke-linecap: square"/>
   </g>
   <g id="line2d_19">
    <path d="M 73.832727 281.495589 
L 74.918528 261.125076 
L 76.00433 242.904485 
L 77.090131 237.207191 
L 78.175932 217.857891 
L 79.261733 203.23842 
L 80.347534 193.47419 
L 81.433335 188.368124 
L 83.604938 169.627969 
L 84.690739 163.464858 
L 85.77654 158.699198 
L 86.862341 161.798669 
L 87.948142 151.71195 
L 89.033943 146.623801 
L 90.119745 146.229649 
L 91.205546 142.091048 
L 92.291347 139.600722 
L 93.377148 137.970364 
L 94.462949 136.913319 
L 95.54875 180.55674 
L 96.634552 163.554439 
L 97.720353 167.746787 
L 98.806154 159.989151 
L 99.891955 155.420566 
L 100.977756 161.440348 
L 102.063557 148.092914 
L 103.149358 148.845387 
L 104.23516 140.890675 
L 105.320961 138.07786 
L 106.406762 140.317362 
L 107.492563 130.266476 
L 108.578364 135.497953 
L 109.664165 130.481468 
L 110.749967 130.033568 
L 111.835768 119.767689 
L 112.921569 124.121281 
L 114.00737 117.420691 
L 115.093171 115.03786 
L 116.178972 117.402774 
L 117.264773 114.231639 
L 118.350575 110.003459 
L 119.436376 111.114252 
L 120.522177 104.754065 
L 121.607978 102.926631 
L 122.693779 100.418389 
L 123.77958 103.894096 
L 124.865382 99.056771 
L 125.951183 97.820566 
L 127.036984 94.577767 
L 128.122785 97.695154 
L 129.208586 93.520722 
L 130.294387 93.251981 
L 131.380189 92.284516 
L 132.46599 90.725823 
L 134.637592 89.70461 
L 135.723393 88.862557 
L 136.809194 89.023801 
L 137.894995 88.737145 
L 138.980797 125.429151 
L 140.066598 123.888373 
L 141.152399 122.043023 
L 142.2382 122.186351 
L 143.324001 122.204267 
L 144.409802 119.821437 
L 145.495604 118.406072 
L 146.581405 118.244827 
L 147.667206 126.683272 
L 148.753007 113.801655 
L 149.838808 115.736585 
L 150.924609 116.417393 
L 152.01041 118.011919 
L 153.096212 113.962899 
L 154.182013 112.081717 
L 155.267814 112.83419 
L 156.353615 107.889369 
L 157.439416 109.071826 
L 158.525217 107.978949 
L 159.611019 103.983677 
L 160.69682 100.740877 
L 161.782621 105.434874 
L 162.868422 101.923334 
L 163.954223 100.776709 
L 165.040024 101.350022 
L 166.125825 103.356616 
L 167.211627 98.823863 
L 168.297428 101.923334 
L 169.383229 96.494781 
L 170.46903 95.921468 
L 171.554831 96.620193 
L 172.640632 93.592386 
L 173.726434 94.02237 
L 174.812235 95.348156 
L 175.898036 91.962028 
L 176.983837 92.248684 
L 178.069638 94.040286 
L 179.155439 91.048311 
L 180.24124 92.35618 
L 181.327042 89.561281 
L 182.412843 87.966756 
L 183.498644 86.999291 
L 184.584445 84.723956 
L 185.670246 85.440597 
L 186.756047 84.580628 
L 187.841849 81.087005 
L 188.92765 83.147347 
L 190.013451 83.147347 
L 191.099252 79.331235 
L 192.185053 76.930488 
L 193.270854 78.883334 
L 194.356656 75.533039 
L 195.442457 74.278918 
L 196.528258 72.684392 
L 197.614059 73.920597 
L 198.69986 73.866849 
L 199.785661 71.125698 
L 200.871462 72.397736 
L 201.957264 71.573599 
L 203.043065 69.423677 
L 204.128866 69.244516 
L 207.386269 67.058762 
L 208.472071 67.363334 
L 209.557872 65.804641 
L 210.643673 65.195496 
L 211.729474 64.765512 
L 212.815275 65.17758 
L 213.901076 64.6401 
L 217.15848 62.687253 
L 218.244281 62.615589 
L 219.330082 62.741002 
L 220.415883 62.651421 
L 221.501684 61.791453 
L 222.587486 62.113941 
L 223.673287 62.311017 
L 224.759088 61.863117 
L 225.844889 109.358482 
L 226.93069 118.81814 
L 228.016491 113.300006 
L 229.102292 115.467844 
L 230.188094 105.058638 
L 231.273895 115.736585 
L 232.359696 103.410364 
L 233.445497 111.400908 
L 234.531298 109.573474 
L 235.617099 108.713505 
L 236.702901 106.599415 
L 237.788702 100.776709 
L 238.874503 102.209991 
L 239.960304 99.2001 
L 241.046105 106.241095 
L 242.131906 99.934656 
L 243.217708 101.708342 
L 244.303509 98.608871 
L 245.38931 104.288249 
L 246.475111 100.543801 
L 247.560912 100.848373 
L 248.646713 98.196802 
L 249.732514 102.424983 
L 250.818316 102.138327 
L 251.904117 99.809244 
L 252.989918 103.016212 
L 254.075719 101.063365 
L 255.16152 94.756927 
L 256.247321 99.880908 
L 257.333123 95.831888 
L 258.418924 106.402339 
L 259.504725 94.810675 
L 260.590526 94.685263 
L 261.676327 99.433008 
L 262.762128 91.800784 
L 263.847929 96.13646 
L 264.933731 90.51083 
L 266.019532 90.904983 
L 267.105333 90.045014 
L 268.191134 91.72912 
L 269.276935 92.839913 
L 270.362736 95.168995 
L 271.448538 93.377393 
L 273.62014 87.966756 
L 274.705941 91.066227 
L 275.791742 89.220877 
L 276.877543 93.48489 
L 277.963344 95.133163 
L 279.049146 90.940815 
L 280.134947 87.268031 
L 281.220748 86.533474 
L 282.306549 88.557984 
L 283.39235 86.981375 
L 284.478151 89.220877 
L 285.563953 82.627782 
L 286.649754 91.012479 
L 287.735555 93.072821 
L 288.821356 87.232199 
L 289.907157 85.655589 
L 290.992958 87.214283 
L 292.07876 82.968187 
L 293.164561 87.357611 
L 294.250362 80.92576 
L 295.336163 80.818264 
L 296.421964 84.293972 
L 297.507765 81.857393 
L 298.593566 85.136025 
L 299.679368 81.767813 
L 300.765169 86.157238 
L 301.85097 85.530177 
L 302.936771 81.857393 
L 304.022572 81.284081 
L 305.108373 86.408062 
L 306.194175 80.38828 
L 307.279976 78.417518 
L 308.365777 82.32321 
L 309.451578 89.525449 
L 310.537379 76.51842 
L 311.62318 79.779135 
L 312.708981 76.267596 
L 313.794783 75.891359 
L 314.880584 74.063925 
L 315.966385 76.267596 
L 317.052186 76.42884 
L 318.137987 76.948404 
L 319.223788 72.29024 
L 321.395391 73.741437 
L 322.481192 72.630644 
L 323.566993 76.231764 
L 324.652794 76.303428 
L 325.738595 72.451484 
L 326.824396 73.329369 
L 327.910198 70.946538 
L 328.995999 69.996989 
L 330.0818 70.301561 
L 331.167601 69.298264 
L 332.253402 66.682526 
L 333.339203 69.531173 
L 334.425005 70.373226 
L 335.510806 67.596243 
L 336.596607 71.537767 
L 337.682408 66.66461 
L 338.768209 66.395869 
L 339.85401 67.345418 
L 340.939811 63.869711 
L 342.025613 66.718358 
L 343.111414 63.583054 
L 344.197215 64.747596 
L 345.283016 68.079975 
L 346.368817 64.407191 
L 347.454618 63.995123 
L 348.54042 62.293101 
L 349.626221 62.472261 
L 350.712022 60.017767 
L 352.883624 58.92489 
L 353.969425 58.082837 
L 355.055227 61.074812 
L 356.141028 56.864547 
L 357.226829 59.910271 
L 358.31263 59.28321 
L 359.398431 56.918295 
L 360.484232 56.792883 
L 361.570033 56.273319 
L 362.655835 56.309151 
L 363.741636 55.395434 
L 364.827437 55.717922 
L 365.913238 57.151204 
L 366.999039 53.800908 
L 368.08484 55.252106 
L 369.170642 58.136585 
L 370.256443 58.853226 
L 371.342244 62.776834 
L 372.428045 62.526009 
L 373.513846 62.687253 
L 374.599647 60.394003 
L 375.685448 62.203521 
L 376.77125 61.3973 
L 377.857051 66.485449 
L 378.942852 63.547222 
L 380.028653 65.786725 
L 381.114454 64.6401 
L 382.200255 62.776834 
L 383.286057 62.293101 
L 384.371858 64.335527 
L 385.457659 63.368062 
L 386.54346 62.561841 
L 387.629261 63.260566 
L 388.715062 60.429835 
L 389.800863 64.622184 
L 390.886665 65.697145 
L 391.972466 63.995123 
L 393.058267 60.411919 
L 394.144068 62.902246 
L 395.229869 62.561841 
L 396.31567 61.630208 
L 397.401472 64.496771 
L 398.487273 62.042277 
L 398.487273 62.042277 
" clip-path="url(#pa07b5f79f5)" style="fill: none; stroke: #ff7f0e; stroke-width: 1.5; stroke-linecap: square"/>
   </g>
   <g id="line2d_20">
    <path d="M 73.832727 292.525679 
L 74.918528 277.57507 
L 76.00433 270.902898 
L 77.090131 270.902898 
L 78.175932 260.894639 
L 79.261733 247.426735 
L 80.347534 241.495915 
L 81.433335 238.406947 
L 82.519137 228.769364 
L 83.604938 227.410218 
L 84.690739 223.332779 
L 85.77654 217.649077 
L 86.862341 224.568367 
L 87.948142 213.448079 
L 89.033943 211.100463 
L 90.119745 214.436549 
L 91.205546 208.876406 
L 92.291347 209.247082 
L 93.377148 204.922526 
L 94.462949 205.046084 
L 95.54875 233.588156 
L 96.634552 222.838544 
L 97.720353 232.846803 
L 98.806154 221.973633 
L 99.891955 215.548578 
L 100.977756 224.074132 
L 102.063557 217.772636 
L 103.149358 215.301461 
L 104.23516 203.192703 
L 105.320961 209.123523 
L 106.406762 211.718257 
L 107.492563 204.922526 
L 108.578364 204.922526 
L 109.664165 200.968646 
L 110.749967 195.284943 
L 111.835768 198.126794 
L 112.921569 198.991706 
L 115.093171 187.377183 
L 116.178972 192.566651 
L 118.350575 179.469423 
L 119.436376 191.825298 
L 120.522177 178.110277 
L 121.607978 175.021308 
L 122.693779 176.133337 
L 123.77958 180.334335 
L 124.865382 173.167927 
L 125.951183 174.032838 
L 127.036984 167.854901 
L 128.122785 173.90928 
L 129.208586 172.92081 
L 130.294387 172.426575 
L 131.380189 166.495755 
L 132.46599 164.765932 
L 133.551791 166.742872 
L 134.637592 164.148138 
L 135.723393 165.01305 
L 136.809194 164.518815 
L 137.894995 163.777462 
L 138.980797 196.026296 
L 140.066598 192.319533 
L 141.152399 195.655619 
L 142.2382 197.014766 
L 143.324001 191.454622 
L 144.409802 189.477682 
L 145.495604 190.589711 
L 146.581405 197.385442 
L 147.667206 201.709998 
L 148.753007 190.219034 
L 149.838808 188.612771 
L 150.924609 187.624301 
L 152.01041 185.894478 
L 153.096212 190.713269 
L 154.182013 187.994977 
L 155.267814 187.500742 
L 156.353615 182.681951 
L 157.439416 185.153126 
L 158.525217 188.612771 
L 159.611019 178.604512 
L 160.69682 177.492483 
L 161.782621 182.311275 
L 162.868422 178.975188 
L 163.954223 174.527073 
L 165.040024 179.469423 
L 166.125825 176.627572 
L 167.211627 176.627572 
L 168.297428 172.303016 
L 169.383229 175.762661 
L 170.46903 171.808781 
L 171.554831 171.808781 
L 172.640632 168.349136 
L 173.726434 173.90928 
L 174.812235 172.426575 
L 175.898036 167.854901 
L 176.983837 168.472695 
L 178.069638 169.708282 
L 179.155439 169.090488 
L 180.24124 172.426575 
L 181.327042 164.889491 
L 182.412843 172.550133 
L 183.498644 162.294757 
L 184.584445 160.564935 
L 185.670246 159.08223 
L 186.756047 158.09376 
L 188.92765 167.113548 
L 190.013451 162.541875 
L 191.099252 157.352407 
L 192.185053 156.240378 
L 193.270854 154.510556 
L 194.356656 153.274968 
L 195.442457 156.487496 
L 196.528258 151.668705 
L 197.614059 152.286498 
L 199.785661 152.533616 
L 200.871462 149.815323 
L 201.957264 149.19753 
L 203.043065 149.691765 
L 204.128866 141.166211 
L 205.214667 143.513827 
L 206.300468 144.872973 
L 207.386269 143.019592 
L 208.472071 143.884503 
L 209.557872 142.772475 
L 210.643673 144.996532 
L 211.729474 145.490767 
L 212.815275 143.884503 
L 213.901076 141.536887 
L 214.986877 140.671976 
L 216.072679 143.143151 
L 217.15848 139.559947 
L 218.244281 141.28977 
L 219.330082 141.660446 
L 220.415883 140.054182 
L 221.501684 140.795535 
L 222.587486 139.807065 
L 223.673287 139.189271 
L 224.759088 140.3013 
L 225.844889 183.423303 
L 226.93069 188.859888 
L 228.016491 187.747859 
L 229.102292 198.991706 
L 230.188094 176.751131 
L 231.273895 193.431562 
L 232.359696 181.693481 
L 233.445497 190.713269 
L 234.531298 183.299745 
L 235.617099 180.087217 
L 236.702901 184.411773 
L 237.788702 173.167927 
L 238.874503 183.176186 
L 239.960304 175.515543 
L 241.046105 175.268426 
L 242.131906 174.527073 
L 243.217708 173.538603 
L 245.38931 182.929068 
L 246.475111 173.538603 
L 247.560912 176.133337 
L 248.646713 177.492483 
L 249.732514 177.86316 
L 250.818316 181.569922 
L 251.904117 175.144867 
L 252.989918 179.716541 
L 254.075719 176.256896 
L 255.16152 172.055898 
L 256.247321 179.345865 
L 257.333123 166.372196 
L 258.418924 184.041097 
L 259.504725 171.438105 
L 260.590526 170.078958 
L 261.676327 177.121807 
L 262.762128 172.303016 
L 263.847929 170.449635 
L 264.933731 168.102018 
L 266.019532 168.225577 
L 267.105333 165.630843 
L 268.191134 167.97846 
L 269.276935 175.268426 
L 271.448538 171.190987 
L 272.534339 168.102018 
L 273.62014 163.653903 
L 274.705941 167.854901 
L 275.791742 169.214047 
L 276.877543 163.653903 
L 277.963344 172.055898 
L 279.049146 163.159668 
L 280.134947 168.596253 
L 281.220748 163.777462 
L 282.306549 162.171198 
L 284.478151 167.484225 
L 285.563953 159.700023 
L 286.649754 172.797251 
L 287.735555 177.492483 
L 289.907157 156.611055 
L 290.992958 158.835112 
L 292.07876 157.10529 
L 293.164561 166.495755 
L 294.250362 162.04764 
L 295.336163 161.924081 
L 296.421964 162.912551 
L 297.507765 159.452906 
L 298.593566 162.04764 
L 299.679368 156.487496 
L 300.765169 161.05917 
L 301.85097 162.788992 
L 302.936771 158.217318 
L 304.022572 157.970201 
L 305.108373 170.326076 
L 306.194175 158.587995 
L 307.279976 156.487496 
L 308.365777 164.271697 
L 309.451578 174.403515 
L 310.537379 153.274968 
L 311.62318 161.800522 
L 312.708981 156.11682 
L 313.794783 156.858172 
L 314.880584 151.421587 
L 315.966385 162.418316 
L 317.052186 151.915822 
L 318.137987 153.398527 
L 319.223788 150.803793 
L 320.30959 156.240378 
L 321.395391 156.363937 
L 322.481192 152.410057 
L 323.566993 160.441376 
L 324.652794 154.016321 
L 325.738595 149.19753 
L 326.824396 148.332618 
L 327.910198 146.849913 
L 328.995999 150.680235 
L 330.0818 148.703295 
L 331.167601 145.24365 
L 332.253402 143.884503 
L 333.339203 147.714825 
L 334.425005 147.838383 
L 335.510806 146.355678 
L 336.596607 149.938882 
L 337.682408 145.614326 
L 338.768209 145.120091 
L 339.85401 150.062441 
L 340.939811 144.25518 
L 342.025613 145.120091 
L 343.111414 139.930623 
L 344.197215 143.884503 
L 345.283016 148.332618 
L 346.368817 144.378738 
L 348.54042 140.548417 
L 349.626221 137.706566 
L 350.712022 136.100302 
L 351.797823 141.28977 
L 353.969425 135.729626 
L 355.055227 139.31283 
L 356.141028 135.606067 
L 357.226829 133.876245 
L 358.31263 138.695036 
L 359.398431 136.594537 
L 360.484232 135.729626 
L 361.570033 135.976743 
L 362.655835 135.729626 
L 363.741636 133.876245 
L 364.827437 133.629127 
L 365.913238 137.088772 
L 366.999039 132.887775 
L 368.08484 132.39354 
L 369.170642 136.841655 
L 370.256443 138.447918 
L 371.342244 139.559947 
L 372.428045 144.008062 
L 373.513846 140.919093 
L 374.599647 138.695036 
L 375.685448 145.614326 
L 376.77125 140.424858 
L 377.857051 145.24365 
L 378.942852 142.896033 
L 380.028653 146.108561 
L 381.114454 142.27824 
L 382.200255 145.24365 
L 383.286057 143.637386 
L 384.371858 146.849913 
L 385.457659 145.737885 
L 386.54346 140.548417 
L 387.629261 144.378738 
L 388.715062 137.706566 
L 389.800863 145.614326 
L 390.886665 146.726355 
L 391.972466 142.525357 
L 393.058267 134.988274 
L 394.144068 143.019592 
L 395.229869 144.25518 
L 396.31567 137.830125 
L 397.401472 145.120091 
L 398.487273 143.26671 
L 398.487273 143.26671 
" clip-path="url(#pa07b5f79f5)" style="fill: none; stroke: #2ca02c; stroke-width: 1.5; stroke-linecap: square"/>
   </g>
   <g id="line2d_21">
    <path d="M 368.08484 53.568 
L 370.256443 59.426538 
L 371.342244 58.781561 
L 372.428045 61.863117 
L 373.513846 63.027658 
L 374.599647 63.06349 
L 375.685448 59.605698 
L 376.77125 62.400597 
L 377.857051 62.113941 
L 378.942852 62.561841 
L 380.028653 65.661313 
L 381.114454 64.658016 
L 382.200255 66.93335 
L 383.286057 64.317611 
L 384.371858 63.350146 
L 385.457659 63.905543 
L 386.54346 69.190768 
L 387.629261 68.223303 
L 388.715062 71.000286 
L 389.800863 70.319477 
L 390.886665 70.391142 
L 391.972466 71.018202 
L 393.058267 75.174719 
L 394.144068 74.386414 
L 395.229869 72.236491 
L 396.31567 80.012044 
L 397.401472 77.324641 
L 398.487273 75.318047 
L 398.487273 75.318047 
" clip-path="url(#pa07b5f79f5)" style="fill: none; stroke: #d62728; stroke-width: 1.5; stroke-linecap: square"/>
   </g>
   <g id="line2d_22">
    <path d="M 368.08484 132.517099 
L 369.170642 135.606067 
L 370.256443 143.26671 
L 371.342244 135.976743 
L 372.428045 140.054182 
L 373.513846 139.31283 
L 374.599647 136.594537 
L 375.685448 138.447918 
L 376.77125 141.166211 
L 377.857051 149.321088 
L 378.942852 143.019592 
L 380.028653 145.367208 
L 381.114454 145.985002 
L 382.200255 147.591266 
L 383.286057 143.884503 
L 384.371858 135.35895 
L 385.457659 144.625856 
L 386.54346 152.039381 
L 387.629261 144.996532 
L 388.715062 147.714825 
M 390.886665 150.927352 
L 391.972466 144.749415 
L 393.058267 147.467707 
L 394.144068 148.703295 
L 395.229869 151.17447 
L 396.31567 156.240378 
L 397.401472 152.904292 
L 398.487273 151.050911 
L 398.487273 151.050911 
" clip-path="url(#pa07b5f79f5)" style="fill: none; stroke: #9467bd; stroke-width: 1.5; stroke-linecap: square"/>
   </g>
   <g id="patch_3">
    <path d="M 57.6 307.584 
L 57.6 41.472 
" style="fill: none; stroke: #000000; stroke-width: 0.8; stroke-linejoin: miter; stroke-linecap: square"/>
   </g>
   <g id="patch_4">
    <path d="M 414.72 307.584 
L 414.72 41.472 
" style="fill: none; stroke: #000000; stroke-width: 0.8; stroke-linejoin: miter; stroke-linecap: square"/>
   </g>
   <g id="patch_5">
    <path d="M 57.6 307.584 
L 414.72 307.584 
" style="fill: none; stroke: #000000; stroke-width: 0.8; stroke-linejoin: miter; stroke-linecap: square"/>
   </g>
   <g id="patch_6">
    <path d="M 57.6 41.472 
L 414.72 41.472 
" style="fill: none; stroke: #000000; stroke-width: 0.8; stroke-linejoin: miter; stroke-linecap: square"/>
   </g>
   <g id="text_20">
    <!-- Learning Curves -->
    <g transform="translate(187.37625 35.472) scale(0.12 -0.12)">
     <defs>
      <path id="DejaVuSans-4c" d="M 628 4666 
L 1259 4666 
L 1259 531 
L 3531 531 
L 3531 0 
L 628 0 
L 628 4666 
z
" transform="scale(0.015625)"/>
      <path id="DejaVuSans-65" d="M 3597 1894 
L 3597 1613 
L 953 1613 
Q 991 1019 1311 708 
Q 1631 397 2203 397 
Q 2534 397 2845 478 
Q 3156 559 3463 722 
L 3463 178 
Q 3153 47 2828 -22 
Q 2503 -91 2169 -91 
Q 1331 -91 842 396 
Q 353 884 353 1716 
Q 353 2575 817 3079 
Q 1281 3584 2069 3584 
Q 2775 3584 3186 3129 
Q 3597 2675 3597 1894 
z
M 3022 2063 
Q 3016 2534 2758 2815 
Q 2500 3097 2075 3097 
Q 1594 3097 1305 2825 
Q 1016 2553 972 2059 
L 3022 2063 
z
" transform="scale(0.015625)"/>
      <path id="DejaVuSans-6e" d="M 3513 2113 
L 3513 0 
L 2938 0 
L 2938 2094 
Q 2938 2591 2744 2837 
Q 2550 3084 2163 3084 
Q 1697 3084 1428 2787 
Q 1159 2491 1159 1978 
L 1159 0 
L 581 0 
L 581 3500 
L 1159 3500 
L 1159 2956 
Q 1366 3272 1645 3428 
Q 1925 3584 2291 3584 
Q 2894 3584 3203 3211 
Q 3513 2838 3513 2113 
z
" transform="scale(0.015625)"/>
      <path id="DejaVuSans-69" d="M 603 3500 
L 1178 3500 
L 1178 0 
L 603 0 
L 603 3500 
z
M 603 4863 
L 1178 4863 
L 1178 4134 
L 603 4134 
L 603 4863 
z
" transform="scale(0.015625)"/>
      <path id="DejaVuSans-67" d="M 2906 1791 
Q 2906 2416 2648 2759 
Q 2391 3103 1925 3103 
Q 1463 3103 1205 2759 
Q 947 2416 947 1791 
Q 947 1169 1205 825 
Q 1463 481 1925 481 
Q 2391 481 2648 825 
Q 2906 1169 2906 1791 
z
M 3481 434 
Q 3481 -459 3084 -895 
Q 2688 -1331 1869 -1331 
Q 1566 -1331 1297 -1286 
Q 1028 -1241 775 -1147 
L 775 -588 
Q 1028 -725 1275 -790 
Q 1522 -856 1778 -856 
Q 2344 -856 2625 -561 
Q 2906 -266 2906 331 
L 2906 616 
Q 2728 306 2450 153 
Q 2172 0 1784 0 
Q 1141 0 747 490 
Q 353 981 353 1791 
Q 353 2603 747 3093 
Q 1141 3584 1784 3584 
Q 2172 3584 2450 3431 
Q 2728 3278 2906 2969 
L 2906 3500 
L 3481 3500 
L 3481 434 
z
" transform="scale(0.015625)"/>
      <path id="DejaVuSans-20" transform="scale(0.015625)"/>
      <path id="DejaVuSans-43" d="M 4122 4306 
L 4122 3641 
Q 3803 3938 3442 4084 
Q 3081 4231 2675 4231 
Q 1875 4231 1450 3742 
Q 1025 3253 1025 2328 
Q 1025 1406 1450 917 
Q 1875 428 2675 428 
Q 3081 428 3442 575 
Q 3803 722 4122 1019 
L 4122 359 
Q 3791 134 3420 21 
Q 3050 -91 2638 -91 
Q 1578 -91 968 557 
Q 359 1206 359 2328 
Q 359 3453 968 4101 
Q 1578 4750 2638 4750 
Q 3056 4750 3426 4639 
Q 3797 4528 4122 4306 
z
" transform="scale(0.015625)"/>
      <path id="DejaVuSans-76" d="M 191 3500 
L 800 3500 
L 1894 563 
L 2988 3500 
L 3597 3500 
L 2284 0 
L 1503 0 
L 191 3500 
z
" transform="scale(0.015625)"/>
     </defs>
     <use xlink:href="#DejaVuSans-4c"/>
     <use xlink:href="#DejaVuSans-65" x="53.962891"/>
     <use xlink:href="#DejaVuSans-61" x="115.486328"/>
     <use xlink:href="#DejaVuSans-72" x="176.765625"/>
     <use xlink:href="#DejaVuSans-6e" x="216.128906"/>
     <use xlink:href="#DejaVuSans-69" x="279.507812"/>
     <use xlink:href="#DejaVuSans-6e" x="307.291016"/>
     <use xlink:href="#DejaVuSans-67" x="370.669922"/>
     <use xlink:href="#DejaVuSans-20" x="434.146484"/>
     <use xlink:href="#DejaVuSans-43" x="465.933594"/>
     <use xlink:href="#DejaVuSans-75" x="535.757812"/>
     <use xlink:href="#DejaVuSans-72" x="599.136719"/>
     <use xlink:href="#DejaVuSans-76" x="640.25"/>
     <use xlink:href="#DejaVuSans-65" x="699.429688"/>
     <use xlink:href="#DejaVuSans-73" x="760.953125"/>
    </g>
   </g>
   <g id="legend_1">
    <g id="patch_7">
     <path d="M 214.18875 302.584 
L 407.72 302.584 
Q 409.72 302.584 409.72 300.584 
L 409.72 228.193375 
Q 409.72 226.193375 407.72 226.193375 
L 214.18875 226.193375 
Q 212.18875 226.193375 212.18875 228.193375 
L 212.18875 300.584 
Q 212.18875 302.584 214.18875 302.584 
z
" style="fill: #ffffff; opacity: 0.8; stroke: #cccccc; stroke-linejoin: miter"/>
    </g>
    <g id="line2d_23">
     <path d="M 216.18875 234.291812 
L 226.18875 234.291812 
L 236.18875 234.291812 
" style="fill: none; stroke: #1f77b4; stroke-width: 1.5; stroke-linecap: square"/>
    </g>
    <g id="text_21">
     <!-- Train Accuracy -->
     <g transform="translate(244.18875 237.791812) scale(0.1 -0.1)">
      <defs>
       <path id="DejaVuSans-54" d="M -19 4666 
L 3928 4666 
L 3928 4134 
L 2272 4134 
L 2272 0 
L 1638 0 
L 1638 4134 
L -19 4134 
L -19 4666 
z
" transform="scale(0.015625)"/>
      </defs>
      <use xlink:href="#DejaVuSans-54"/>
      <use xlink:href="#DejaVuSans-72" x="46.333984"/>
      <use xlink:href="#DejaVuSans-61" x="87.447266"/>
      <use xlink:href="#DejaVuSans-69" x="148.726562"/>
      <use xlink:href="#DejaVuSans-6e" x="176.509766"/>
      <use xlink:href="#DejaVuSans-20" x="239.888672"/>
      <use xlink:href="#DejaVuSans-41" x="271.675781"/>
      <use xlink:href="#DejaVuSans-63" x="338.333984"/>
      <use xlink:href="#DejaVuSans-63" x="393.314453"/>
      <use xlink:href="#DejaVuSans-75" x="448.294922"/>
      <use xlink:href="#DejaVuSans-72" x="511.673828"/>
      <use xlink:href="#DejaVuSans-61" x="552.787109"/>
      <use xlink:href="#DejaVuSans-63" x="614.066406"/>
      <use xlink:href="#DejaVuSans-79" x="669.046875"/>
     </g>
    </g>
    <g id="line2d_24">
     <path d="M 216.18875 248.969937 
L 226.18875 248.969937 
L 236.18875 248.969937 
" style="fill: none; stroke: #ff7f0e; stroke-width: 1.5; stroke-linecap: square"/>
    </g>
    <g id="text_22">
     <!-- Validation Accuracy -->
     <g transform="translate(244.18875 252.469937) scale(0.1 -0.1)">
      <defs>
       <path id="DejaVuSans-56" d="M 1831 0 
L 50 4666 
L 709 4666 
L 2188 738 
L 3669 4666 
L 4325 4666 
L 2547 0 
L 1831 0 
z
" transform="scale(0.015625)"/>
       <path id="DejaVuSans-6c" d="M 603 4863 
L 1178 4863 
L 1178 0 
L 603 0 
L 603 4863 
z
" transform="scale(0.015625)"/>
       <path id="DejaVuSans-64" d="M 2906 2969 
L 2906 4863 
L 3481 4863 
L 3481 0 
L 2906 0 
L 2906 525 
Q 2725 213 2448 61 
Q 2172 -91 1784 -91 
Q 1150 -91 751 415 
Q 353 922 353 1747 
Q 353 2572 751 3078 
Q 1150 3584 1784 3584 
Q 2172 3584 2448 3432 
Q 2725 3281 2906 2969 
z
M 947 1747 
Q 947 1113 1208 752 
Q 1469 391 1925 391 
Q 2381 391 2643 752 
Q 2906 1113 2906 1747 
Q 2906 2381 2643 2742 
Q 2381 3103 1925 3103 
Q 1469 3103 1208 2742 
Q 947 2381 947 1747 
z
" transform="scale(0.015625)"/>
       <path id="DejaVuSans-74" d="M 1172 4494 
L 1172 3500 
L 2356 3500 
L 2356 3053 
L 1172 3053 
L 1172 1153 
Q 1172 725 1289 603 
Q 1406 481 1766 481 
L 2356 481 
L 2356 0 
L 1766 0 
Q 1100 0 847 248 
Q 594 497 594 1153 
L 594 3053 
L 172 3053 
L 172 3500 
L 594 3500 
L 594 4494 
L 1172 4494 
z
" transform="scale(0.015625)"/>
      </defs>
      <use xlink:href="#DejaVuSans-56"/>
      <use xlink:href="#DejaVuSans-61" x="60.658203"/>
      <use xlink:href="#DejaVuSans-6c" x="121.9375"/>
      <use xlink:href="#DejaVuSans-69" x="149.720703"/>
      <use xlink:href="#DejaVuSans-64" x="177.503906"/>
      <use xlink:href="#DejaVuSans-61" x="240.980469"/>
      <use xlink:href="#DejaVuSans-74" x="302.259766"/>
      <use xlink:href="#DejaVuSans-69" x="341.46875"/>
      <use xlink:href="#DejaVuSans-6f" x="369.251953"/>
      <use xlink:href="#DejaVuSans-6e" x="430.433594"/>
      <use xlink:href="#DejaVuSans-20" x="493.8125"/>
      <use xlink:href="#DejaVuSans-41" x="525.599609"/>
      <use xlink:href="#DejaVuSans-63" x="592.257812"/>
      <use xlink:href="#DejaVuSans-63" x="647.238281"/>
      <use xlink:href="#DejaVuSans-75" x="702.21875"/>
      <use xlink:href="#DejaVuSans-72" x="765.597656"/>
      <use xlink:href="#DejaVuSans-61" x="806.710938"/>
      <use xlink:href="#DejaVuSans-63" x="867.990234"/>
      <use xlink:href="#DejaVuSans-79" x="922.970703"/>
     </g>
    </g>
    <g id="line2d_25">
     <path d="M 216.18875 263.648062 
L 226.18875 263.648062 
L 236.18875 263.648062 
" style="fill: none; stroke: #2ca02c; stroke-width: 1.5; stroke-linecap: square"/>
    </g>
    <g id="text_23">
     <!-- Robust Validation Accuracy -->
     <g transform="translate(244.18875 267.148062) scale(0.1 -0.1)">
      <defs>
       <path id="DejaVuSans-52" d="M 2841 2188 
Q 3044 2119 3236 1894 
Q 3428 1669 3622 1275 
L 4263 0 
L 3584 0 
L 2988 1197 
Q 2756 1666 2539 1819 
Q 2322 1972 1947 1972 
L 1259 1972 
L 1259 0 
L 628 0 
L 628 4666 
L 2053 4666 
Q 2853 4666 3247 4331 
Q 3641 3997 3641 3322 
Q 3641 2881 3436 2590 
Q 3231 2300 2841 2188 
z
M 1259 4147 
L 1259 2491 
L 2053 2491 
Q 2509 2491 2742 2702 
Q 2975 2913 2975 3322 
Q 2975 3731 2742 3939 
Q 2509 4147 2053 4147 
L 1259 4147 
z
" transform="scale(0.015625)"/>
       <path id="DejaVuSans-62" d="M 3116 1747 
Q 3116 2381 2855 2742 
Q 2594 3103 2138 3103 
Q 1681 3103 1420 2742 
Q 1159 2381 1159 1747 
Q 1159 1113 1420 752 
Q 1681 391 2138 391 
Q 2594 391 2855 752 
Q 3116 1113 3116 1747 
z
M 1159 2969 
Q 1341 3281 1617 3432 
Q 1894 3584 2278 3584 
Q 2916 3584 3314 3078 
Q 3713 2572 3713 1747 
Q 3713 922 3314 415 
Q 2916 -91 2278 -91 
Q 1894 -91 1617 61 
Q 1341 213 1159 525 
L 1159 0 
L 581 0 
L 581 4863 
L 1159 4863 
L 1159 2969 
z
" transform="scale(0.015625)"/>
      </defs>
      <use xlink:href="#DejaVuSans-52"/>
      <use xlink:href="#DejaVuSans-6f" x="64.982422"/>
      <use xlink:href="#DejaVuSans-62" x="126.164062"/>
      <use xlink:href="#DejaVuSans-75" x="189.640625"/>
      <use xlink:href="#DejaVuSans-73" x="253.019531"/>
      <use xlink:href="#DejaVuSans-74" x="305.119141"/>
      <use xlink:href="#DejaVuSans-20" x="344.328125"/>
      <use xlink:href="#DejaVuSans-56" x="376.115234"/>
      <use xlink:href="#DejaVuSans-61" x="436.773438"/>
      <use xlink:href="#DejaVuSans-6c" x="498.052734"/>
      <use xlink:href="#DejaVuSans-69" x="525.835938"/>
      <use xlink:href="#DejaVuSans-64" x="553.619141"/>
      <use xlink:href="#DejaVuSans-61" x="617.095703"/>
      <use xlink:href="#DejaVuSans-74" x="678.375"/>
      <use xlink:href="#DejaVuSans-69" x="717.583984"/>
      <use xlink:href="#DejaVuSans-6f" x="745.367188"/>
      <use xlink:href="#DejaVuSans-6e" x="806.548828"/>
      <use xlink:href="#DejaVuSans-20" x="869.927734"/>
      <use xlink:href="#DejaVuSans-41" x="901.714844"/>
      <use xlink:href="#DejaVuSans-63" x="968.373047"/>
      <use xlink:href="#DejaVuSans-63" x="1023.353516"/>
      <use xlink:href="#DejaVuSans-75" x="1078.333984"/>
      <use xlink:href="#DejaVuSans-72" x="1141.712891"/>
      <use xlink:href="#DejaVuSans-61" x="1182.826172"/>
      <use xlink:href="#DejaVuSans-63" x="1244.105469"/>
      <use xlink:href="#DejaVuSans-79" x="1299.085938"/>
     </g>
    </g>
    <g id="line2d_26">
     <path d="M 216.18875 278.326188 
L 226.18875 278.326188 
L 236.18875 278.326188 
" style="fill: none; stroke: #d62728; stroke-width: 1.5; stroke-linecap: square"/>
    </g>
    <g id="text_24">
     <!-- SWA Validation Accuracy -->
     <g transform="translate(244.18875 281.826188) scale(0.1 -0.1)">
      <defs>
       <path id="DejaVuSans-53" d="M 3425 4513 
L 3425 3897 
Q 3066 4069 2747 4153 
Q 2428 4238 2131 4238 
Q 1616 4238 1336 4038 
Q 1056 3838 1056 3469 
Q 1056 3159 1242 3001 
Q 1428 2844 1947 2747 
L 2328 2669 
Q 3034 2534 3370 2195 
Q 3706 1856 3706 1288 
Q 3706 609 3251 259 
Q 2797 -91 1919 -91 
Q 1588 -91 1214 -16 
Q 841 59 441 206 
L 441 856 
Q 825 641 1194 531 
Q 1563 422 1919 422 
Q 2459 422 2753 634 
Q 3047 847 3047 1241 
Q 3047 1584 2836 1778 
Q 2625 1972 2144 2069 
L 1759 2144 
Q 1053 2284 737 2584 
Q 422 2884 422 3419 
Q 422 4038 858 4394 
Q 1294 4750 2059 4750 
Q 2388 4750 2728 4690 
Q 3069 4631 3425 4513 
z
" transform="scale(0.015625)"/>
       <path id="DejaVuSans-57" d="M 213 4666 
L 850 4666 
L 1831 722 
L 2809 4666 
L 3519 4666 
L 4500 722 
L 5478 4666 
L 6119 4666 
L 4947 0 
L 4153 0 
L 3169 4050 
L 2175 0 
L 1381 0 
L 213 4666 
z
" transform="scale(0.015625)"/>
      </defs>
      <use xlink:href="#DejaVuSans-53"/>
      <use xlink:href="#DejaVuSans-57" x="63.476562"/>
      <use xlink:href="#DejaVuSans-41" x="156.853516"/>
      <use xlink:href="#DejaVuSans-20" x="225.261719"/>
      <use xlink:href="#DejaVuSans-56" x="257.048828"/>
      <use xlink:href="#DejaVuSans-61" x="317.707031"/>
      <use xlink:href="#DejaVuSans-6c" x="378.986328"/>
      <use xlink:href="#DejaVuSans-69" x="406.769531"/>
      <use xlink:href="#DejaVuSans-64" x="434.552734"/>
      <use xlink:href="#DejaVuSans-61" x="498.029297"/>
      <use xlink:href="#DejaVuSans-74" x="559.308594"/>
      <use xlink:href="#DejaVuSans-69" x="598.517578"/>
      <use xlink:href="#DejaVuSans-6f" x="626.300781"/>
      <use xlink:href="#DejaVuSans-6e" x="687.482422"/>
      <use xlink:href="#DejaVuSans-20" x="750.861328"/>
      <use xlink:href="#DejaVuSans-41" x="782.648438"/>
      <use xlink:href="#DejaVuSans-63" x="849.306641"/>
      <use xlink:href="#DejaVuSans-63" x="904.287109"/>
      <use xlink:href="#DejaVuSans-75" x="959.267578"/>
      <use xlink:href="#DejaVuSans-72" x="1022.646484"/>
      <use xlink:href="#DejaVuSans-61" x="1063.759766"/>
      <use xlink:href="#DejaVuSans-63" x="1125.039062"/>
      <use xlink:href="#DejaVuSans-79" x="1180.019531"/>
     </g>
    </g>
    <g id="line2d_27">
     <path d="M 216.18875 293.004312 
L 226.18875 293.004312 
L 236.18875 293.004312 
" style="fill: none; stroke: #9467bd; stroke-width: 1.5; stroke-linecap: square"/>
    </g>
    <g id="text_25">
     <!-- SWA Robust Validation Accuracy -->
     <g transform="translate(244.18875 296.504312) scale(0.1 -0.1)">
      <use xlink:href="#DejaVuSans-53"/>
      <use xlink:href="#DejaVuSans-57" x="63.476562"/>
      <use xlink:href="#DejaVuSans-41" x="156.853516"/>
      <use xlink:href="#DejaVuSans-20" x="225.261719"/>
      <use xlink:href="#DejaVuSans-52" x="257.048828"/>
      <use xlink:href="#DejaVuSans-6f" x="322.03125"/>
      <use xlink:href="#DejaVuSans-62" x="383.212891"/>
      <use xlink:href="#DejaVuSans-75" x="446.689453"/>
      <use xlink:href="#DejaVuSans-73" x="510.068359"/>
      <use xlink:href="#DejaVuSans-74" x="562.167969"/>
      <use xlink:href="#DejaVuSans-20" x="601.376953"/>
      <use xlink:href="#DejaVuSans-56" x="633.164062"/>
      <use xlink:href="#DejaVuSans-61" x="693.822266"/>
      <use xlink:href="#DejaVuSans-6c" x="755.101562"/>
      <use xlink:href="#DejaVuSans-69" x="782.884766"/>
      <use xlink:href="#DejaVuSans-64" x="810.667969"/>
      <use xlink:href="#DejaVuSans-61" x="874.144531"/>
      <use xlink:href="#DejaVuSans-74" x="935.423828"/>
      <use xlink:href="#DejaVuSans-69" x="974.632812"/>
      <use xlink:href="#DejaVuSans-6f" x="1002.416016"/>
      <use xlink:href="#DejaVuSans-6e" x="1063.597656"/>
      <use xlink:href="#DejaVuSans-20" x="1126.976562"/>
      <use xlink:href="#DejaVuSans-41" x="1158.763672"/>
      <use xlink:href="#DejaVuSans-63" x="1225.421875"/>
      <use xlink:href="#DejaVuSans-63" x="1280.402344"/>
      <use xlink:href="#DejaVuSans-75" x="1335.382812"/>
      <use xlink:href="#DejaVuSans-72" x="1398.761719"/>
      <use xlink:href="#DejaVuSans-61" x="1439.875"/>
      <use xlink:href="#DejaVuSans-63" x="1501.154297"/>
      <use xlink:href="#DejaVuSans-79" x="1556.134766"/>
     </g>
    </g>
   </g>
  </g>
 </g>
 <defs>
  <clipPath id="pa07b5f79f5">
   <rect x="57.6" y="41.472" width="357.12" height="266.112"/>
  </clipPath>
 </defs>
</svg>
