<?xml version="1.0" encoding="utf-8" standalone="no"?>
<!DOCTYPE svg PUBLIC "-//W3C//DTD SVG 1.1//EN"
  "http://www.w3.org/Graphics/SVG/1.1/DTD/svg11.dtd">
<svg xmlns:xlink="http://www.w3.org/1999/xlink" width="460.8pt" height="345.6pt" viewBox="0 0 460.8 345.6" xmlns="http://www.w3.org/2000/svg" version="1.1">
 <metadata>
  <rdf:RDF xmlns:dc="http://purl.org/dc/elements/1.1/" xmlns:cc="http://creativecommons.org/ns#" xmlns:rdf="http://www.w3.org/1999/02/22-rdf-syntax-ns#">
   <cc:Work>
    <dc:type rdf:resource="http://purl.org/dc/dcmitype/StillImage"/>
    <dc:date>2025-07-21T16:47:48.478759</dc:date>
    <dc:format>image/svg+xml</dc:format>
    <dc:creator>
     <cc:Agent>
      <dc:title>Matplotlib v3.9.1, https://matplotlib.org/</dc:title>
     </cc:Agent>
    </dc:creator>
   </cc:Work>
  </rdf:RDF>
 </metadata>
 <defs>
  <style type="text/css">*{stroke-linejoin: round; stroke-linecap: butt}</style>
 </defs>
 <g id="figure_1">
  <g id="patch_1">
   <path d="M 0 345.6 
L 460.8 345.6 
L 460.8 0 
L 0 0 
z
" style="fill: #ffffff"/>
  </g>
  <g id="axes_1">
   <g id="patch_2">
    <path d="M 57.6 307.584 
L 414.72 307.584 
L 414.72 41.472 
L 57.6 41.472 
z
" style="fill: #ffffff"/>
   </g>
   <g id="matplotlib.axis_1">
    <g id="xtick_1">
     <g id="line2d_1">
      <defs>
       <path id="mdb31b2d7a0" d="M 0 0 
L 0 3.5 
" style="stroke: #000000; stroke-width: 0.8"/>
      </defs>
      <g>
       <use xlink:href="#mdb31b2d7a0" x="73.832727" y="307.584" style="stroke: #000000; stroke-width: 0.8"/>
      </g>
     </g>
     <g id="text_1">
      <!-- 1 -->
      <g transform="translate(70.651477 322.182437) scale(0.1 -0.1)">
       <defs>
        <path id="DejaVuSans-31" d="M 794 531 
L 1825 531 
L 1825 4091 
L 703 3866 
L 703 4441 
L 1819 4666 
L 2450 4666 
L 2450 531 
L 3481 531 
L 3481 0 
L 794 0 
L 794 531 
z
" transform="scale(0.015625)"/>
       </defs>
       <use xlink:href="#DejaVuSans-31"/>
      </g>
     </g>
    </g>
    <g id="xtick_2">
     <g id="line2d_2">
      <g>
       <use xlink:href="#mdb31b2d7a0" x="109.671216" y="307.584" style="stroke: #000000; stroke-width: 0.8"/>
      </g>
     </g>
     <g id="text_2">
      <!-- 35 -->
      <g transform="translate(103.308716 322.182437) scale(0.1 -0.1)">
       <defs>
        <path id="DejaVuSans-33" d="M 2597 2516 
Q 3050 2419 3304 2112 
Q 3559 1806 3559 1356 
Q 3559 666 3084 287 
Q 2609 -91 1734 -91 
Q 1441 -91 1130 -33 
Q 819 25 488 141 
L 488 750 
Q 750 597 1062 519 
Q 1375 441 1716 441 
Q 2309 441 2620 675 
Q 2931 909 2931 1356 
Q 2931 1769 2642 2001 
Q 2353 2234 1838 2234 
L 1294 2234 
L 1294 2753 
L 1863 2753 
Q 2328 2753 2575 2939 
Q 2822 3125 2822 3475 
Q 2822 3834 2567 4026 
Q 2313 4219 1838 4219 
Q 1578 4219 1281 4162 
Q 984 4106 628 3988 
L 628 4550 
Q 988 4650 1302 4700 
Q 1616 4750 1894 4750 
Q 2613 4750 3031 4423 
Q 3450 4097 3450 3541 
Q 3450 3153 3228 2886 
Q 3006 2619 2597 2516 
z
" transform="scale(0.015625)"/>
        <path id="DejaVuSans-35" d="M 691 4666 
L 3169 4666 
L 3169 4134 
L 1269 4134 
L 1269 2991 
Q 1406 3038 1543 3061 
Q 1681 3084 1819 3084 
Q 2600 3084 3056 2656 
Q 3513 2228 3513 1497 
Q 3513 744 3044 326 
Q 2575 -91 1722 -91 
Q 1428 -91 1123 -41 
Q 819 9 494 109 
L 494 744 
Q 775 591 1075 516 
Q 1375 441 1709 441 
Q 2250 441 2565 725 
Q 2881 1009 2881 1497 
Q 2881 1984 2565 2268 
Q 2250 2553 1709 2553 
Q 1456 2553 1204 2497 
Q 953 2441 691 2322 
L 691 4666 
z
" transform="scale(0.015625)"/>
       </defs>
       <use xlink:href="#DejaVuSans-33"/>
       <use xlink:href="#DejaVuSans-35" x="63.623047"/>
      </g>
     </g>
    </g>
    <g id="xtick_3">
     <g id="line2d_3">
      <g>
       <use xlink:href="#mdb31b2d7a0" x="145.509705" y="307.584" style="stroke: #000000; stroke-width: 0.8"/>
      </g>
     </g>
     <g id="text_3">
      <!-- 69 -->
      <g transform="translate(139.147205 322.182437) scale(0.1 -0.1)">
       <defs>
        <path id="DejaVuSans-36" d="M 2113 2584 
Q 1688 2584 1439 2293 
Q 1191 2003 1191 1497 
Q 1191 994 1439 701 
Q 1688 409 2113 409 
Q 2538 409 2786 701 
Q 3034 994 3034 1497 
Q 3034 2003 2786 2293 
Q 2538 2584 2113 2584 
z
M 3366 4563 
L 3366 3988 
Q 3128 4100 2886 4159 
Q 2644 4219 2406 4219 
Q 1781 4219 1451 3797 
Q 1122 3375 1075 2522 
Q 1259 2794 1537 2939 
Q 1816 3084 2150 3084 
Q 2853 3084 3261 2657 
Q 3669 2231 3669 1497 
Q 3669 778 3244 343 
Q 2819 -91 2113 -91 
Q 1303 -91 875 529 
Q 447 1150 447 2328 
Q 447 3434 972 4092 
Q 1497 4750 2381 4750 
Q 2619 4750 2861 4703 
Q 3103 4656 3366 4563 
z
" transform="scale(0.015625)"/>
        <path id="DejaVuSans-39" d="M 703 97 
L 703 672 
Q 941 559 1184 500 
Q 1428 441 1663 441 
Q 2288 441 2617 861 
Q 2947 1281 2994 2138 
Q 2813 1869 2534 1725 
Q 2256 1581 1919 1581 
Q 1219 1581 811 2004 
Q 403 2428 403 3163 
Q 403 3881 828 4315 
Q 1253 4750 1959 4750 
Q 2769 4750 3195 4129 
Q 3622 3509 3622 2328 
Q 3622 1225 3098 567 
Q 2575 -91 1691 -91 
Q 1453 -91 1209 -44 
Q 966 3 703 97 
z
M 1959 2075 
Q 2384 2075 2632 2365 
Q 2881 2656 2881 3163 
Q 2881 3666 2632 3958 
Q 2384 4250 1959 4250 
Q 1534 4250 1286 3958 
Q 1038 3666 1038 3163 
Q 1038 2656 1286 2365 
Q 1534 2075 1959 2075 
z
" transform="scale(0.015625)"/>
       </defs>
       <use xlink:href="#DejaVuSans-36"/>
       <use xlink:href="#DejaVuSans-39" x="63.623047"/>
      </g>
     </g>
    </g>
    <g id="xtick_4">
     <g id="line2d_4">
      <g>
       <use xlink:href="#mdb31b2d7a0" x="181.348194" y="307.584" style="stroke: #000000; stroke-width: 0.8"/>
      </g>
     </g>
     <g id="text_4">
      <!-- 103 -->
      <g transform="translate(171.804444 322.182437) scale(0.1 -0.1)">
       <defs>
        <path id="DejaVuSans-30" d="M 2034 4250 
Q 1547 4250 1301 3770 
Q 1056 3291 1056 2328 
Q 1056 1369 1301 889 
Q 1547 409 2034 409 
Q 2525 409 2770 889 
Q 3016 1369 3016 2328 
Q 3016 3291 2770 3770 
Q 2525 4250 2034 4250 
z
M 2034 4750 
Q 2819 4750 3233 4129 
Q 3647 3509 3647 2328 
Q 3647 1150 3233 529 
Q 2819 -91 2034 -91 
Q 1250 -91 836 529 
Q 422 1150 422 2328 
Q 422 3509 836 4129 
Q 1250 4750 2034 4750 
z
" transform="scale(0.015625)"/>
       </defs>
       <use xlink:href="#DejaVuSans-31"/>
       <use xlink:href="#DejaVuSans-30" x="63.623047"/>
       <use xlink:href="#DejaVuSans-33" x="127.246094"/>
      </g>
     </g>
    </g>
    <g id="xtick_5">
     <g id="line2d_5">
      <g>
       <use xlink:href="#mdb31b2d7a0" x="217.186682" y="307.584" style="stroke: #000000; stroke-width: 0.8"/>
      </g>
     </g>
     <g id="text_5">
      <!-- 137 -->
      <g transform="translate(207.642932 322.182437) scale(0.1 -0.1)">
       <defs>
        <path id="DejaVuSans-37" d="M 525 4666 
L 3525 4666 
L 3525 4397 
L 1831 0 
L 1172 0 
L 2766 4134 
L 525 4134 
L 525 4666 
z
" transform="scale(0.015625)"/>
       </defs>
       <use xlink:href="#DejaVuSans-31"/>
       <use xlink:href="#DejaVuSans-33" x="63.623047"/>
       <use xlink:href="#DejaVuSans-37" x="127.246094"/>
      </g>
     </g>
    </g>
    <g id="xtick_6">
     <g id="line2d_6">
      <g>
       <use xlink:href="#mdb31b2d7a0" x="254.079244" y="307.584" style="stroke: #000000; stroke-width: 0.8"/>
      </g>
     </g>
     <g id="text_6">
      <!-- 172 -->
      <g transform="translate(244.535494 322.182437) scale(0.1 -0.1)">
       <defs>
        <path id="DejaVuSans-32" d="M 1228 531 
L 3431 531 
L 3431 0 
L 469 0 
L 469 531 
Q 828 903 1448 1529 
Q 2069 2156 2228 2338 
Q 2531 2678 2651 2914 
Q 2772 3150 2772 3378 
Q 2772 3750 2511 3984 
Q 2250 4219 1831 4219 
Q 1534 4219 1204 4116 
Q 875 4013 500 3803 
L 500 4441 
Q 881 4594 1212 4672 
Q 1544 4750 1819 4750 
Q 2544 4750 2975 4387 
Q 3406 4025 3406 3419 
Q 3406 3131 3298 2873 
Q 3191 2616 2906 2266 
Q 2828 2175 2409 1742 
Q 1991 1309 1228 531 
z
" transform="scale(0.015625)"/>
       </defs>
       <use xlink:href="#DejaVuSans-31"/>
       <use xlink:href="#DejaVuSans-37" x="63.623047"/>
       <use xlink:href="#DejaVuSans-32" x="127.246094"/>
      </g>
     </g>
    </g>
    <g id="xtick_7">
     <g id="line2d_7">
      <g>
       <use xlink:href="#mdb31b2d7a0" x="289.917733" y="307.584" style="stroke: #000000; stroke-width: 0.8"/>
      </g>
     </g>
     <g id="text_7">
      <!-- 206 -->
      <g transform="translate(280.373983 322.182437) scale(0.1 -0.1)">
       <use xlink:href="#DejaVuSans-32"/>
       <use xlink:href="#DejaVuSans-30" x="63.623047"/>
       <use xlink:href="#DejaVuSans-36" x="127.246094"/>
      </g>
     </g>
    </g>
    <g id="xtick_8">
     <g id="line2d_8">
      <g>
       <use xlink:href="#mdb31b2d7a0" x="325.756222" y="307.584" style="stroke: #000000; stroke-width: 0.8"/>
      </g>
     </g>
     <g id="text_8">
      <!-- 240 -->
      <g transform="translate(316.212472 322.182437) scale(0.1 -0.1)">
       <defs>
        <path id="DejaVuSans-34" d="M 2419 4116 
L 825 1625 
L 2419 1625 
L 2419 4116 
z
M 2253 4666 
L 3047 4666 
L 3047 1625 
L 3713 1625 
L 3713 1100 
L 3047 1100 
L 3047 0 
L 2419 0 
L 2419 1100 
L 313 1100 
L 313 1709 
L 2253 4666 
z
" transform="scale(0.015625)"/>
       </defs>
       <use xlink:href="#DejaVuSans-32"/>
       <use xlink:href="#DejaVuSans-34" x="63.623047"/>
       <use xlink:href="#DejaVuSans-30" x="127.246094"/>
      </g>
     </g>
    </g>
    <g id="xtick_9">
     <g id="line2d_9">
      <g>
       <use xlink:href="#mdb31b2d7a0" x="361.594711" y="307.584" style="stroke: #000000; stroke-width: 0.8"/>
      </g>
     </g>
     <g id="text_9">
      <!-- 274 -->
      <g transform="translate(352.050961 322.182437) scale(0.1 -0.1)">
       <use xlink:href="#DejaVuSans-32"/>
       <use xlink:href="#DejaVuSans-37" x="63.623047"/>
       <use xlink:href="#DejaVuSans-34" x="127.246094"/>
      </g>
     </g>
    </g>
    <g id="xtick_10">
     <g id="line2d_10">
      <g>
       <use xlink:href="#mdb31b2d7a0" x="398.487273" y="307.584" style="stroke: #000000; stroke-width: 0.8"/>
      </g>
     </g>
     <g id="text_10">
      <!-- 309 -->
      <g transform="translate(388.943523 322.182437) scale(0.1 -0.1)">
       <use xlink:href="#DejaVuSans-33"/>
       <use xlink:href="#DejaVuSans-30" x="63.623047"/>
       <use xlink:href="#DejaVuSans-39" x="127.246094"/>
      </g>
     </g>
    </g>
    <g id="text_11">
     <!-- Epochs -->
     <g transform="translate(218.244375 335.860562) scale(0.1 -0.1)">
      <defs>
       <path id="DejaVuSans-45" d="M 628 4666 
L 3578 4666 
L 3578 4134 
L 1259 4134 
L 1259 2753 
L 3481 2753 
L 3481 2222 
L 1259 2222 
L 1259 531 
L 3634 531 
L 3634 0 
L 628 0 
L 628 4666 
z
" transform="scale(0.015625)"/>
       <path id="DejaVuSans-70" d="M 1159 525 
L 1159 -1331 
L 581 -1331 
L 581 3500 
L 1159 3500 
L 1159 2969 
Q 1341 3281 1617 3432 
Q 1894 3584 2278 3584 
Q 2916 3584 3314 3078 
Q 3713 2572 3713 1747 
Q 3713 922 3314 415 
Q 2916 -91 2278 -91 
Q 1894 -91 1617 61 
Q 1341 213 1159 525 
z
M 3116 1747 
Q 3116 2381 2855 2742 
Q 2594 3103 2138 3103 
Q 1681 3103 1420 2742 
Q 1159 2381 1159 1747 
Q 1159 1113 1420 752 
Q 1681 391 2138 391 
Q 2594 391 2855 752 
Q 3116 1113 3116 1747 
z
" transform="scale(0.015625)"/>
       <path id="DejaVuSans-6f" d="M 1959 3097 
Q 1497 3097 1228 2736 
Q 959 2375 959 1747 
Q 959 1119 1226 758 
Q 1494 397 1959 397 
Q 2419 397 2687 759 
Q 2956 1122 2956 1747 
Q 2956 2369 2687 2733 
Q 2419 3097 1959 3097 
z
M 1959 3584 
Q 2709 3584 3137 3096 
Q 3566 2609 3566 1747 
Q 3566 888 3137 398 
Q 2709 -91 1959 -91 
Q 1206 -91 779 398 
Q 353 888 353 1747 
Q 353 2609 779 3096 
Q 1206 3584 1959 3584 
z
" transform="scale(0.015625)"/>
       <path id="DejaVuSans-63" d="M 3122 3366 
L 3122 2828 
Q 2878 2963 2633 3030 
Q 2388 3097 2138 3097 
Q 1578 3097 1268 2742 
Q 959 2388 959 1747 
Q 959 1106 1268 751 
Q 1578 397 2138 397 
Q 2388 397 2633 464 
Q 2878 531 3122 666 
L 3122 134 
Q 2881 22 2623 -34 
Q 2366 -91 2075 -91 
Q 1284 -91 818 406 
Q 353 903 353 1747 
Q 353 2603 823 3093 
Q 1294 3584 2113 3584 
Q 2378 3584 2631 3529 
Q 2884 3475 3122 3366 
z
" transform="scale(0.015625)"/>
       <path id="DejaVuSans-68" d="M 3513 2113 
L 3513 0 
L 2938 0 
L 2938 2094 
Q 2938 2591 2744 2837 
Q 2550 3084 2163 3084 
Q 1697 3084 1428 2787 
Q 1159 2491 1159 1978 
L 1159 0 
L 581 0 
L 581 4863 
L 1159 4863 
L 1159 2956 
Q 1366 3272 1645 3428 
Q 1925 3584 2291 3584 
Q 2894 3584 3203 3211 
Q 3513 2838 3513 2113 
z
" transform="scale(0.015625)"/>
       <path id="DejaVuSans-73" d="M 2834 3397 
L 2834 2853 
Q 2591 2978 2328 3040 
Q 2066 3103 1784 3103 
Q 1356 3103 1142 2972 
Q 928 2841 928 2578 
Q 928 2378 1081 2264 
Q 1234 2150 1697 2047 
L 1894 2003 
Q 2506 1872 2764 1633 
Q 3022 1394 3022 966 
Q 3022 478 2636 193 
Q 2250 -91 1575 -91 
Q 1294 -91 989 -36 
Q 684 19 347 128 
L 347 722 
Q 666 556 975 473 
Q 1284 391 1588 391 
Q 1994 391 2212 530 
Q 2431 669 2431 922 
Q 2431 1156 2273 1281 
Q 2116 1406 1581 1522 
L 1381 1569 
Q 847 1681 609 1914 
Q 372 2147 372 2553 
Q 372 3047 722 3315 
Q 1072 3584 1716 3584 
Q 2034 3584 2315 3537 
Q 2597 3491 2834 3397 
z
" transform="scale(0.015625)"/>
      </defs>
      <use xlink:href="#DejaVuSans-45"/>
      <use xlink:href="#DejaVuSans-70" x="63.183594"/>
      <use xlink:href="#DejaVuSans-6f" x="126.660156"/>
      <use xlink:href="#DejaVuSans-63" x="187.841797"/>
      <use xlink:href="#DejaVuSans-68" x="242.822266"/>
      <use xlink:href="#DejaVuSans-73" x="306.201172"/>
     </g>
    </g>
   </g>
   <g id="matplotlib.axis_2">
    <g id="ytick_1">
     <g id="line2d_11">
      <defs>
       <path id="m3bc5e25c6a" d="M 0 0 
L -3.5 0 
" style="stroke: #000000; stroke-width: 0.8"/>
      </defs>
      <g>
       <use xlink:href="#m3bc5e25c6a" x="57.6" y="276.508195" style="stroke: #000000; stroke-width: 0.8"/>
      </g>
     </g>
     <g id="text_12">
      <!-- 10 -->
      <g transform="translate(37.875 280.307414) scale(0.1 -0.1)">
       <use xlink:href="#DejaVuSans-31"/>
       <use xlink:href="#DejaVuSans-30" x="63.623047"/>
      </g>
     </g>
    </g>
    <g id="ytick_2">
     <g id="line2d_12">
      <g>
       <use xlink:href="#m3bc5e25c6a" x="57.6" y="241.137706" style="stroke: #000000; stroke-width: 0.8"/>
      </g>
     </g>
     <g id="text_13">
      <!-- 20 -->
      <g transform="translate(37.875 244.936925) scale(0.1 -0.1)">
       <use xlink:href="#DejaVuSans-32"/>
       <use xlink:href="#DejaVuSans-30" x="63.623047"/>
      </g>
     </g>
    </g>
    <g id="ytick_3">
     <g id="line2d_13">
      <g>
       <use xlink:href="#m3bc5e25c6a" x="57.6" y="205.767216" style="stroke: #000000; stroke-width: 0.8"/>
      </g>
     </g>
     <g id="text_14">
      <!-- 30 -->
      <g transform="translate(37.875 209.566435) scale(0.1 -0.1)">
       <use xlink:href="#DejaVuSans-33"/>
       <use xlink:href="#DejaVuSans-30" x="63.623047"/>
      </g>
     </g>
    </g>
    <g id="ytick_4">
     <g id="line2d_14">
      <g>
       <use xlink:href="#m3bc5e25c6a" x="57.6" y="170.396727" style="stroke: #000000; stroke-width: 0.8"/>
      </g>
     </g>
     <g id="text_15">
      <!-- 40 -->
      <g transform="translate(37.875 174.195946) scale(0.1 -0.1)">
       <use xlink:href="#DejaVuSans-34"/>
       <use xlink:href="#DejaVuSans-30" x="63.623047"/>
      </g>
     </g>
    </g>
    <g id="ytick_5">
     <g id="line2d_15">
      <g>
       <use xlink:href="#m3bc5e25c6a" x="57.6" y="135.026237" style="stroke: #000000; stroke-width: 0.8"/>
      </g>
     </g>
     <g id="text_16">
      <!-- 50 -->
      <g transform="translate(37.875 138.825456) scale(0.1 -0.1)">
       <use xlink:href="#DejaVuSans-35"/>
       <use xlink:href="#DejaVuSans-30" x="63.623047"/>
      </g>
     </g>
    </g>
    <g id="ytick_6">
     <g id="line2d_16">
      <g>
       <use xlink:href="#m3bc5e25c6a" x="57.6" y="99.655748" style="stroke: #000000; stroke-width: 0.8"/>
      </g>
     </g>
     <g id="text_17">
      <!-- 60 -->
      <g transform="translate(37.875 103.454967) scale(0.1 -0.1)">
       <use xlink:href="#DejaVuSans-36"/>
       <use xlink:href="#DejaVuSans-30" x="63.623047"/>
      </g>
     </g>
    </g>
    <g id="ytick_7">
     <g id="line2d_17">
      <g>
       <use xlink:href="#m3bc5e25c6a" x="57.6" y="64.285258" style="stroke: #000000; stroke-width: 0.8"/>
      </g>
     </g>
     <g id="text_18">
      <!-- 70 -->
      <g transform="translate(37.875 68.084477) scale(0.1 -0.1)">
       <use xlink:href="#DejaVuSans-37"/>
       <use xlink:href="#DejaVuSans-30" x="63.623047"/>
      </g>
     </g>
    </g>
    <g id="text_19">
     <!-- Accuracy -->
     <g transform="translate(31.795312 197.356125) rotate(-90) scale(0.1 -0.1)">
      <defs>
       <path id="DejaVuSans-41" d="M 2188 4044 
L 1331 1722 
L 3047 1722 
L 2188 4044 
z
M 1831 4666 
L 2547 4666 
L 4325 0 
L 3669 0 
L 3244 1197 
L 1141 1197 
L 716 0 
L 50 0 
L 1831 4666 
z
" transform="scale(0.015625)"/>
       <path id="DejaVuSans-75" d="M 544 1381 
L 544 3500 
L 1119 3500 
L 1119 1403 
Q 1119 906 1312 657 
Q 1506 409 1894 409 
Q 2359 409 2629 706 
Q 2900 1003 2900 1516 
L 2900 3500 
L 3475 3500 
L 3475 0 
L 2900 0 
L 2900 538 
Q 2691 219 2414 64 
Q 2138 -91 1772 -91 
Q 1169 -91 856 284 
Q 544 659 544 1381 
z
M 1991 3584 
L 1991 3584 
z
" transform="scale(0.015625)"/>
       <path id="DejaVuSans-72" d="M 2631 2963 
Q 2534 3019 2420 3045 
Q 2306 3072 2169 3072 
Q 1681 3072 1420 2755 
Q 1159 2438 1159 1844 
L 1159 0 
L 581 0 
L 581 3500 
L 1159 3500 
L 1159 2956 
Q 1341 3275 1631 3429 
Q 1922 3584 2338 3584 
Q 2397 3584 2469 3576 
Q 2541 3569 2628 3553 
L 2631 2963 
z
" transform="scale(0.015625)"/>
       <path id="DejaVuSans-61" d="M 2194 1759 
Q 1497 1759 1228 1600 
Q 959 1441 959 1056 
Q 959 750 1161 570 
Q 1363 391 1709 391 
Q 2188 391 2477 730 
Q 2766 1069 2766 1631 
L 2766 1759 
L 2194 1759 
z
M 3341 1997 
L 3341 0 
L 2766 0 
L 2766 531 
Q 2569 213 2275 61 
Q 1981 -91 1556 -91 
Q 1019 -91 701 211 
Q 384 513 384 1019 
Q 384 1609 779 1909 
Q 1175 2209 1959 2209 
L 2766 2209 
L 2766 2266 
Q 2766 2663 2505 2880 
Q 2244 3097 1772 3097 
Q 1472 3097 1187 3025 
Q 903 2953 641 2809 
L 641 3341 
Q 956 3463 1253 3523 
Q 1550 3584 1831 3584 
Q 2591 3584 2966 3190 
Q 3341 2797 3341 1997 
z
" transform="scale(0.015625)"/>
       <path id="DejaVuSans-79" d="M 2059 -325 
Q 1816 -950 1584 -1140 
Q 1353 -1331 966 -1331 
L 506 -1331 
L 506 -850 
L 844 -850 
Q 1081 -850 1212 -737 
Q 1344 -625 1503 -206 
L 1606 56 
L 191 3500 
L 800 3500 
L 1894 763 
L 2988 3500 
L 3597 3500 
L 2059 -325 
z
" transform="scale(0.015625)"/>
      </defs>
      <use xlink:href="#DejaVuSans-41"/>
      <use xlink:href="#DejaVuSans-63" x="66.658203"/>
      <use xlink:href="#DejaVuSans-63" x="121.638672"/>
      <use xlink:href="#DejaVuSans-75" x="176.619141"/>
      <use xlink:href="#DejaVuSans-72" x="239.998047"/>
      <use xlink:href="#DejaVuSans-61" x="281.111328"/>
      <use xlink:href="#DejaVuSans-63" x="342.390625"/>
      <use xlink:href="#DejaVuSans-79" x="397.371094"/>
     </g>
    </g>
   </g>
   <g id="line2d_18">
    <path d="M 73.832727 295.488 
L 74.8868 272.574997 
L 75.940874 255.285902 
L 76.994947 241.470188 
L 78.04902 230.063206 
L 79.103093 221.139231 
L 80.157166 213.294056 
L 81.21124 207.079461 
L 82.265313 200.051345 
L 83.319386 194.013603 
L 84.373459 189.549847 
L 85.427532 186.200262 
L 86.481606 180.997263 
L 87.535679 177.347028 
L 88.589752 174.188443 
L 89.643825 171.496749 
L 90.697898 167.121419 
L 91.751972 164.323614 
L 94.914191 156.867515 
L 95.968264 153.270336 
L 97.022338 150.610475 
L 98.076411 149.245174 
L 100.184557 143.6531 
L 101.23863 142.086187 
L 103.346777 137.45619 
L 104.40085 135.960018 
L 105.454923 133.96866 
L 106.508996 132.8651 
L 108.617143 128.977884 
L 109.671216 128.503919 
L 110.725289 127.669176 
L 111.779362 126.646968 
L 113.887509 126.148244 
L 114.941582 125.094204 
L 115.995655 162.144792 
L 117.049728 163.21298 
L 118.103802 162.494959 
L 119.157875 160.291378 
L 120.211948 158.650187 
L 121.266021 157.514795 
L 122.320094 156.54918 
L 123.374168 154.603803 
L 124.428241 153.351688 
L 125.482314 151.077365 
L 126.536387 149.213341 
L 127.59046 150.086992 
L 128.644534 147.533242 
L 129.698607 146.323572 
L 130.75268 144.788492 
L 131.806753 144.519677 
L 132.860826 143.451488 
L 133.9149 141.80676 
L 134.968973 141.010924 
L 136.023046 139.574882 
L 137.077119 139.076158 
L 138.131192 138.3546 
L 140.239339 135.436535 
L 141.293412 134.810477 
L 143.401558 132.713007 
L 144.455632 132.143542 
L 145.509705 130.661519 
L 146.563778 130.297203 
L 147.617851 129.027402 
L 148.671924 129.045088 
L 149.725998 127.216433 
L 150.780071 126.682339 
L 151.834144 124.627313 
L 152.888217 124.514128 
L 153.94229 124.549498 
L 154.996364 122.200898 
L 156.050437 121.284802 
L 157.10451 119.625926 
L 158.158583 118.295996 
L 159.212656 119.205017 
L 160.26673 117.054492 
L 161.320803 115.40269 
L 162.374876 115.86958 
L 163.428949 114.01263 
L 164.483022 113.786258 
L 165.537096 112.544754 
L 166.591169 111.660492 
L 168.699315 109.20578 
L 169.753388 107.493848 
L 170.807462 107.16844 
L 171.861535 105.668731 
L 172.915608 105.364545 
L 173.969681 104.572246 
L 175.023754 102.916907 
L 176.077828 102.803721 
L 177.131901 101.183753 
L 179.240047 98.881134 
L 180.29412 97.370814 
L 181.348194 96.939294 
L 182.402267 95.839272 
L 183.45634 95.025751 
L 184.510413 95.029288 
L 185.564486 94.459823 
L 186.61856 93.409319 
L 187.672633 92.967188 
L 188.726706 92.118297 
L 189.780779 91.746906 
L 190.834852 90.477106 
L 191.888926 91.081941 
L 193.997072 90.551384 
L 195.051145 90.721162 
L 196.105218 89.801529 
L 197.159292 90.650421 
L 198.213365 89.599918 
L 199.267438 89.861659 
L 200.321511 134.891829 
L 201.375584 138.722453 
L 202.429658 139.019566 
L 203.483731 138.227267 
L 204.537804 136.68865 
L 205.591877 136.129797 
L 206.64595 135.921111 
L 207.700024 134.895367 
L 208.754097 133.544214 
L 209.80817 133.784733 
L 210.862243 133.869622 
L 211.916316 132.73423 
L 212.97039 130.859594 
L 214.024463 131.559929 
L 215.078536 131.492725 
L 216.132609 130.831297 
L 217.186682 129.073384 
L 218.240756 128.284622 
L 219.294829 128.801031 
L 220.348902 129.002643 
L 221.402975 127.959214 
L 222.457048 127.789435 
L 223.511122 128.068862 
L 224.565195 126.448894 
L 225.619268 125.638909 
L 226.673341 126.222522 
L 227.727414 125.847595 
L 228.781488 124.680369 
L 229.835561 125.366557 
L 230.889634 124.807703 
L 231.943707 124.443387 
L 232.99778 123.629866 
L 234.051854 123.884533 
L 235.105927 123.905755 
L 236.16 123.088697 
L 237.214073 123.003808 
L 238.268146 121.447506 
L 239.32222 121.196376 
L 240.376293 121.443969 
L 241.430366 120.248447 
L 243.538512 121.10795 
L 244.592586 120.163558 
L 245.646659 120.446522 
L 246.700732 119.562259 
L 247.754805 119.434926 
L 248.808878 119.940724 
L 249.862952 118.98572 
L 250.917025 118.430404 
L 251.971098 117.69116 
L 253.025171 118.250014 
L 254.079244 117.524919 
L 255.133318 116.042896 
L 256.187391 115.452208 
L 257.241464 116.509786 
L 258.295537 116.32586 
L 259.34961 115.370856 
L 260.403684 115.954469 
L 261.457757 115.112652 
L 262.51183 113.984333 
L 263.565903 114.196556 
L 264.619976 113.79687 
L 265.67405 113.620017 
L 266.728123 113.627091 
L 267.782196 111.872715 
L 268.836269 112.092012 
L 269.890342 111.780752 
L 270.944416 110.411914 
L 271.998489 110.058209 
L 273.052562 110.341173 
L 275.160708 109.074909 
L 277.268855 109.67267 
L 278.322928 107.614108 
L 279.377001 108.176499 
L 280.431074 107.730831 
L 281.485148 105.417601 
L 282.539221 105.732398 
L 283.593294 105.665194 
L 284.647367 105.350397 
L 285.70144 104.360023 
L 286.755514 104.161948 
L 287.809587 104.812765 
L 288.86366 103.59602 
L 290.971806 102.994722 
L 292.02588 101.862866 
L 293.079953 101.017512 
L 294.134026 100.840659 
L 295.188099 100.791141 
L 296.242172 100.306565 
L 297.296246 99.606229 
L 298.350319 99.36571 
L 299.404392 99.814915 
L 300.458465 98.138354 
L 301.512538 98.59817 
L 302.566612 97.469852 
L 303.620685 96.631571 
L 304.674758 95.464345 
L 305.728831 96.023199 
L 306.782904 95.294566 
L 307.836978 94.944399 
L 308.891051 93.830228 
L 309.945124 93.165263 
L 310.999197 93.098059 
L 312.05327 91.810573 
L 313.107344 91.810573 
L 314.161417 91.248182 
L 315.21549 89.670659 
L 316.269563 89.904104 
L 317.323636 89.246213 
L 320.485856 88.277061 
L 321.539929 87.438781 
L 322.594002 86.904686 
L 323.648076 87.233632 
L 324.702149 86.239721 
L 325.756222 84.701105 
L 326.810295 85.061884 
L 327.864368 84.517178 
L 328.918442 84.099807 
L 329.972515 83.558638 
L 331.026588 83.286285 
L 332.080661 83.459601 
L 333.134734 81.35152 
L 334.188808 81.259556 
L 335.242881 80.605202 
L 336.296954 79.777533 
L 337.351027 80.223201 
L 338.4051 80.357609 
L 340.513247 77.814471 
L 341.56732 77.290987 
L 342.621393 78.139879 
L 343.675466 78.39101 
L 345.783613 76.530522 
L 346.837686 76.944357 
L 348.945832 74.323403 
L 349.999906 74.570997 
L 351.053979 75.122776 
L 352.108052 74.99898 
L 353.162125 74.539163 
L 355.270272 72.961639 
L 356.324345 74.022754 
L 357.378418 73.202159 
L 358.432491 73.566475 
L 359.486564 72.381563 
L 360.540638 73.707957 
L 361.594711 73.30827 
L 362.648784 73.591234 
L 364.75693 72.466453 
L 365.811004 72.869676 
L 366.865077 73.067751 
L 367.91915 72.537194 
L 368.973223 131.694337 
L 370.027296 135.026237 
L 371.08137 134.566421 
L 372.135443 131.376003 
L 374.243589 130.817149 
L 375.297662 129.324514 
L 376.351736 128.709068 
L 377.405809 128.387196 
L 378.459882 127.83188 
L 379.513955 126.013837 
L 380.568028 126.332171 
L 381.622102 125.260445 
L 382.676175 126.063355 
L 383.730248 124.47522 
L 384.784321 124.81124 
L 385.838394 123.686458 
L 386.892468 123.934052 
L 387.946541 123.223105 
L 389.000614 123.453013 
L 390.054687 123.350439 
L 391.10876 122.572288 
L 392.162834 122.752677 
L 393.216907 121.221135 
L 394.27098 121.518247 
L 397.4332 120.73656 
L 398.487273 120.407614 
L 398.487273 120.407614 
" clip-path="url(#p4007a073ad)" style="fill: none; stroke: #1f77b4; stroke-width: 1.5; stroke-linecap: square"/>
   </g>
   <g id="line2d_19">
    <path d="M 73.832727 280.611172 
L 74.8868 260.874439 
L 75.940874 232.118231 
L 76.994947 224.230612 
L 78.04902 209.764082 
L 79.103093 202.017944 
L 80.157166 192.786247 
L 81.21124 179.982129 
L 82.265313 179.628425 
L 83.319386 168.45135 
L 84.373459 165.692452 
L 85.427532 160.033173 
L 86.481606 161.801698 
L 87.535679 155.894826 
L 88.589752 147.087574 
L 89.643825 145.708125 
L 90.697898 144.823863 
L 91.751972 134.849385 
L 92.806045 133.469936 
L 93.860118 128.801031 
L 94.914191 126.112874 
L 95.968264 123.000271 
L 97.022338 122.752677 
L 98.076411 117.977661 
L 99.130484 117.305622 
L 100.184557 115.607839 
L 101.23863 110.585229 
L 102.292704 108.675223 
L 103.346777 109.771708 
L 104.40085 107.437256 
L 105.454923 103.40502 
L 106.508996 105.279656 
L 107.56307 101.9902 
L 108.617143 102.343905 
L 109.671216 99.8326 
L 110.725289 100.186305 
L 112.833436 98.665374 
L 113.887509 97.568889 
L 114.941582 98.38241 
L 115.995655 146.06183 
L 117.049728 142.489411 
L 118.103802 139.376808 
L 119.157875 142.524781 
L 120.211948 131.878264 
L 121.266021 130.85252 
L 122.320094 127.669176 
L 123.374168 135.379942 
L 124.428241 128.73029 
L 125.482314 134.955496 
L 126.536387 125.228612 
L 127.59046 122.080638 
L 128.644534 122.858789 
L 129.698607 114.29913 
L 130.75268 117.977661 
L 131.806753 113.55635 
L 132.860826 118.154514 
L 133.9149 117.836179 
L 134.968973 114.122278 
L 136.023046 112.919681 
L 137.077119 112.707458 
L 138.131192 107.01281 
L 139.185266 104.501505 
L 140.239339 103.511131 
L 141.293412 106.128547 
L 142.347485 109.382632 
L 143.401558 103.758725 
L 144.455632 105.173544 
L 146.563778 96.719997 
L 147.617851 100.186305 
L 148.671924 98.134817 
L 149.725998 104.961321 
L 150.780071 99.691118 
L 151.834144 96.366292 
L 152.888217 100.681492 
L 153.94229 95.906476 
L 154.996364 95.764994 
L 156.050437 91.060719 
L 157.10451 90.742384 
L 158.158583 89.044601 
L 159.212656 93.99647 
L 161.320803 87.417558 
L 162.374876 89.362935 
L 163.428949 86.144221 
L 164.483022 86.568667 
L 165.537096 84.269585 
L 166.591169 83.279211 
L 167.645242 84.411067 
L 168.699315 82.960877 
L 169.753388 81.899762 
L 170.807462 79.423828 
L 171.861535 79.56531 
L 172.915608 81.121611 
L 173.969681 77.336969 
L 175.023754 74.684182 
L 176.077828 77.372339 
L 177.131901 73.976772 
L 178.185974 73.587697 
L 179.240047 73.587697 
L 180.29412 72.314359 
L 181.348194 73.623068 
L 182.402267 70.722687 
L 183.45634 69.661573 
L 184.510413 69.873796 
L 185.564486 69.201756 
L 186.61856 67.716196 
L 187.672633 67.893048 
L 188.726706 67.503973 
L 189.780779 67.680825 
L 190.834852 66.513599 
L 191.888926 66.867304 
L 193.997072 64.815816 
L 195.051145 65.487855 
L 198.213365 64.992668 
L 199.267438 65.664707 
L 200.321511 112.601347 
L 201.375584 115.501727 
L 202.429658 108.816705 
L 203.483731 121.231746 
L 204.537804 110.6206 
L 205.591877 107.366515 
L 206.64595 105.315026 
L 207.700024 102.520757 
L 208.754097 106.552993 
L 209.80817 104.713728 
L 210.862243 103.475761 
L 211.916316 107.04818 
L 212.97039 106.022436 
L 214.024463 106.977439 
L 215.078536 102.450016 
L 216.132609 108.109295 
L 217.186682 103.723354 
L 218.240756 103.086685 
L 219.294829 103.475761 
L 220.348902 103.652613 
L 221.402975 107.578737 
L 222.457048 99.337413 
L 223.511122 105.421138 
L 224.565195 101.95483 
L 225.619268 100.186305 
L 226.673341 101.353531 
L 227.727414 95.871105 
L 228.781488 103.228167 
L 229.835561 102.768351 
L 230.889634 102.131682 
L 234.051854 93.465912 
L 235.105927 93.182948 
L 236.16 94.880732 
L 237.214073 95.694253 
L 238.268146 96.967591 
L 239.32222 93.501283 
L 240.376293 98.064076 
L 241.430366 90.919237 
L 242.484439 94.420915 
L 243.538512 96.649256 
L 244.592586 97.285925 
L 245.646659 94.668509 
L 246.700732 91.202201 
L 247.754805 94.951473 
L 248.808878 91.379053 
L 249.862952 94.279433 
L 250.917025 96.22481 
L 251.971098 93.819617 
L 253.025171 87.983486 
L 254.079244 89.68127 
L 255.133318 91.16683 
L 256.187391 92.970725 
L 258.295537 86.179591 
L 259.34961 91.237571 
L 260.403684 94.420915 
L 261.457757 87.028483 
L 262.51183 92.263316 
L 263.565903 90.38868 
L 264.619976 88.054227 
L 265.67405 88.549414 
L 266.728123 86.285703 
L 267.782196 86.10885 
L 268.836269 87.55904 
L 269.890342 85.118477 
L 270.944416 89.150712 
L 271.998489 88.514044 
L 273.052562 83.774398 
L 274.106635 84.446437 
L 275.160708 81.652169 
L 276.214782 85.153847 
L 277.268855 85.578293 
L 278.322928 83.420693 
L 279.377001 85.719775 
L 280.431074 77.478451 
L 281.485148 95.128325 
L 282.539221 80.697165 
L 283.593294 82.50106 
L 284.647367 82.677913 
L 285.70144 84.941624 
L 286.755514 78.999382 
L 287.809587 80.520313 
L 288.86366 78.221231 
L 289.917733 79.671421 
L 290.971806 78.964011 
L 292.02588 81.652169 
L 293.079953 75.037887 
L 294.134026 76.275854 
L 295.188099 73.446215 
L 296.242172 75.886779 
L 297.296246 76.240484 
L 298.350319 74.224366 
L 299.404392 74.754923 
L 300.458465 73.76455 
L 301.512538 70.15676 
L 302.566612 72.951028 
L 303.620685 72.526582 
L 304.674758 71.783802 
L 305.728831 71.253245 
L 306.782904 69.307868 
L 307.836978 70.333612 
L 308.891051 71.147133 
L 309.945124 70.368983 
L 310.999197 67.751566 
L 312.05327 68.848051 
L 313.107344 67.503973 
L 314.161417 68.635829 
L 315.21549 67.786937 
L 317.323636 66.902675 
L 318.37771 66.195265 
L 319.431783 64.249888 
L 320.485856 64.214517 
L 321.539929 63.790071 
L 322.594002 66.266006 
L 323.648076 63.436367 
L 324.702149 62.304511 
L 325.756222 63.365626 
L 326.810295 62.835068 
L 327.864368 62.905809 
L 328.918442 60.712839 
L 329.972515 63.71933 
L 331.026588 59.863947 
L 332.080661 60.535986 
L 333.134734 60.288393 
L 334.188808 58.767462 
L 335.242881 58.413757 
L 336.296954 60.005429 
L 337.351027 59.085796 
L 338.4051 58.838203 
L 339.459174 57.8832 
L 340.513247 59.439501 
L 341.56732 57.034308 
L 342.621393 57.670977 
L 343.675466 57.564865 
L 344.72954 56.256157 
L 345.783613 56.715974 
L 346.837686 54.735226 
L 347.891759 55.619488 
L 348.945832 55.371895 
L 349.999906 55.548747 
L 351.053979 54.947449 
L 352.108052 54.558374 
L 353.162125 54.805967 
L 354.216198 54.523003 
L 355.270272 53.815593 
L 356.324345 54.523003 
L 357.378418 53.850964 
L 358.432491 54.346151 
L 359.486564 53.957075 
L 360.540638 54.416892 
L 361.594711 53.638741 
L 362.648784 53.60337 
L 363.702857 53.921705 
L 364.75693 53.568 
L 365.811004 54.912079 
L 366.865077 53.780223 
L 367.91915 53.709482 
L 368.973223 105.59799 
L 370.027296 108.675223 
L 371.08137 109.665596 
L 372.135443 105.421138 
L 373.189516 108.675223 
L 374.243589 102.909833 
L 375.297662 101.424272 
L 376.351736 100.54001 
L 377.405809 101.565754 
L 378.459882 105.491879 
L 379.513955 95.092955 
L 380.568028 100.575381 
L 381.622102 101.212049 
L 382.676175 99.761859 
L 383.730248 95.977217 
L 384.784321 99.231302 
L 385.838394 94.668509 
L 386.892468 100.292417 
L 387.946541 99.974082 
L 389.000614 95.48203 
L 390.054687 96.472404 
L 391.10876 98.453151 
L 392.162834 95.128325 
L 393.216907 101.105938 
L 394.27098 94.314804 
L 395.325053 99.443525 
L 396.379126 97.392036 
L 397.4332 92.227945 
L 398.487273 94.456286 
L 398.487273 94.456286 
" clip-path="url(#p4007a073ad)" style="fill: none; stroke: #ff7f0e; stroke-width: 1.5; stroke-linecap: square"/>
   </g>
   <g id="line2d_20">
    <path d="M 73.832727 294.486161 
L 74.8868 286.899801 
L 75.940874 270.507409 
L 76.994947 269.678032 
L 78.04902 256.871475 
L 79.103093 254.13941 
L 80.157166 256.286033 
L 81.21124 246.650624 
L 82.265313 250.38282 
L 83.319386 242.040263 
L 84.373459 245.040656 
L 85.427532 240.283935 
L 86.481606 242.747673 
L 87.535679 240.52787 
L 88.589752 222.159609 
L 89.643825 231.258362 
L 90.697898 227.355412 
L 91.751972 220.500855 
L 92.806045 219.647084 
L 93.860118 215.524593 
L 94.914191 215.963675 
L 95.968264 214.622035 
L 97.022338 211.621642 
L 98.076411 212.499806 
L 99.130484 211.987544 
L 100.184557 211.255741 
L 101.23863 204.498757 
L 102.292704 201.473971 
L 103.346777 206.5722 
L 105.454923 200.986102 
L 106.508996 201.425184 
L 107.56307 199.05902 
L 108.617143 199.229774 
L 109.671216 196.473315 
L 110.725289 197.083151 
L 111.779362 197.278299 
L 112.833436 196.302561 
L 113.887509 195.643938 
L 114.941582 195.180463 
L 115.995655 235.28328 
L 117.049728 224.72092 
L 118.103802 228.379936 
L 119.157875 227.404199 
L 120.211948 217.671216 
L 121.266021 222.159609 
L 122.320094 214.744003 
L 123.374168 217.720002 
L 124.428241 212.231478 
L 125.482314 221.74492 
L 126.536387 213.573117 
L 127.59046 208.962757 
L 128.644534 215.548986 
L 129.698607 207.694298 
L 130.75268 210.280003 
L 131.806753 203.376659 
L 132.860826 208.548069 
L 133.9149 215.792921 
L 134.968973 200.156725 
L 136.023046 204.30361 
L 137.077119 201.595938 
L 138.131192 202.425315 
L 139.185266 193.546102 
L 140.239339 192.375217 
L 141.293412 202.059413 
L 142.347485 202.571676 
L 143.401558 197.863741 
L 144.455632 198.888266 
L 145.509705 191.009185 
L 146.563778 186.8623 
L 147.617851 190.033447 
L 148.671924 193.594889 
L 149.725998 196.302561 
L 150.780071 195.619545 
L 151.834144 191.521447 
L 152.888217 196.644069 
L 153.94229 194.302299 
L 154.996364 182.642234 
L 156.050437 190.301775 
L 157.10451 185.715808 
L 158.158583 181.642103 
L 159.212656 187.984398 
L 160.26673 187.130627 
L 161.320803 175.299808 
L 162.374876 182.032398 
L 163.428949 176.421907 
L 164.483022 181.910431 
L 165.537096 181.593316 
L 166.591169 175.934038 
L 167.645242 180.641972 
L 168.699315 177.104923 
L 169.753388 174.836333 
L 170.807462 180.593185 
L 171.861535 173.177579 
L 172.915608 175.59253 
L 173.969681 170.640661 
L 175.023754 169.982038 
L 176.077828 171.640792 
L 177.131901 167.884202 
L 178.185974 167.884202 
L 179.240047 168.372071 
L 180.29412 166.59135 
L 181.348194 168.713579 
L 183.45634 162.712793 
L 184.510413 167.323153 
L 185.564486 165.054563 
L 186.61856 164.493514 
L 187.672633 163.517776 
L 188.726706 163.761711 
L 189.780779 163.859285 
L 190.834852 160.980859 
L 191.888926 161.907809 
L 192.942999 160.541777 
L 193.997072 160.663744 
L 195.051145 160.663744 
L 196.105218 161.761449 
L 197.159292 162.273711 
L 198.213365 160.980859 
L 199.267438 162.102957 
L 200.321511 205.108593 
L 201.375584 204.37679 
L 202.429658 196.79043 
L 203.483731 208.889577 
L 204.537804 205.132987 
L 205.591877 193.546102 
L 206.64595 195.180463 
L 207.700024 193.277775 
L 208.754097 194.473053 
L 209.80817 199.473709 
L 210.862243 196.546496 
L 211.916316 208.328528 
L 212.97039 206.084331 
L 214.024463 201.96184 
L 215.078536 193.472922 
L 216.132609 203.181512 
L 217.186682 191.131152 
L 218.240756 199.302954 
L 219.294829 195.643938 
L 220.348902 198.571151 
L 221.402975 202.083807 
L 222.457048 190.350562 
L 223.511122 195.961053 
L 224.565195 198.034496 
L 225.619268 188.716201 
L 226.673341 195.643938 
L 227.727414 190.374955 
L 228.781488 193.009447 
L 229.835561 197.57102 
L 230.889634 193.424135 
L 231.943707 195.009709 
L 232.99778 195.034102 
L 234.051854 190.496922 
L 235.105927 184.325382 
L 236.16 185.935349 
L 237.214073 194.033971 
L 238.268146 192.25325 
L 239.32222 184.398562 
L 240.376293 192.350824 
L 241.430366 185.130365 
L 242.484439 187.08184 
L 243.538512 187.325775 
L 244.592586 189.033316 
L 245.646659 188.081972 
L 246.700732 189.326037 
L 247.754805 185.788988 
L 248.808878 180.641972 
L 249.862952 188.691808 
L 250.917025 191.131152 
L 251.971098 183.25207 
L 253.025171 181.154234 
L 254.079244 180.641972 
L 255.133318 185.691414 
L 256.187391 181.666497 
L 257.241464 188.155152 
L 258.295537 183.95948 
L 259.34961 184.715677 
L 260.403684 194.326692 
L 261.457757 181.910431 
L 262.51183 191.619021 
L 263.565903 183.496005 
L 264.619976 183.837513 
L 265.67405 185.618234 
L 266.728123 182.959349 
L 267.782196 181.154234 
L 268.836269 184.959611 
L 269.890342 179.007612 
L 270.944416 190.228594 
L 271.998489 178.397775 
L 273.052562 176.348726 
L 274.106635 177.15371 
L 275.160708 180.715152 
L 276.214782 183.422824 
L 277.268855 183.276464 
L 278.322928 179.617448 
L 279.377001 178.470956 
L 280.431074 171.006563 
L 281.485148 193.546102 
L 282.539221 175.080268 
L 283.593294 176.787808 
L 284.647367 178.910038 
L 285.70144 177.885513 
L 286.755514 174.9583 
L 287.809587 181.324988 
L 288.86366 170.567481 
L 289.917733 174.519218 
L 290.971806 171.20171 
L 292.02588 181.520136 
L 293.079953 168.07935 
L 294.134026 172.933645 
L 295.188099 167.347547 
L 296.242172 172.933645 
L 297.296246 171.933514 
L 298.350319 169.908858 
L 299.404392 170.860202 
L 300.458465 170.957776 
L 301.512538 167.176793 
L 302.566612 168.689186 
L 303.620685 169.811284 
L 304.674758 168.494038 
L 305.728831 161.322367 
L 306.782904 163.932465 
L 307.836978 167.323153 
L 308.891051 167.054825 
L 309.945124 166.225448 
L 310.999197 161.810236 
L 312.05327 163.639744 
L 313.107344 164.225186 
L 314.161417 168.07935 
L 315.21549 162.932334 
L 316.269563 165.591219 
L 317.323636 162.298104 
L 318.37771 162.76158 
L 319.431783 160.102695 
L 320.485856 163.444596 
L 321.539929 160.102695 
L 322.594002 160.932072 
L 323.648076 161.615088 
L 324.702149 161.371154 
L 325.756222 158.248793 
L 326.810295 158.590301 
L 327.864368 161.224793 
L 328.918442 153.68722 
L 329.972515 159.175744 
L 331.026588 157.053515 
L 332.080661 161.005252 
L 333.134734 158.809842 
L 334.188808 156.88276 
L 335.242881 153.931154 
L 336.296954 156.077777 
L 337.351027 153.955548 
L 338.4051 155.028859 
L 339.459174 154.638564 
L 340.513247 156.516859 
L 341.56732 154.784925 
L 342.621393 155.028859 
L 343.675466 153.028597 
L 344.72954 155.467941 
L 345.783613 154.516597 
L 346.837686 152.735876 
L 347.891759 154.223875 
L 348.945832 153.68722 
L 349.999906 151.955285 
L 351.053979 152.394367 
L 352.108052 151.760138 
L 353.162125 152.613908 
L 354.216198 152.34558 
L 355.270272 151.857712 
L 356.324345 152.296794 
L 357.378418 151.028335 
L 358.432491 151.662564 
L 359.486564 150.881974 
L 360.540638 151.613777 
L 361.594711 150.101384 
L 362.648784 150.760007 
L 363.702857 150.662433 
L 364.75693 150.955154 
L 365.811004 151.711351 
L 366.865077 151.540597 
L 367.91915 151.833318 
L 368.973223 204.815872 
L 370.027296 200.181118 
L 371.08137 204.596331 
L 372.135443 196.936791 
L 373.189516 200.181118 
L 374.243589 196.229381 
L 375.297662 188.49666 
L 376.351736 192.228857 
L 377.405809 194.838955 
L 378.459882 203.840134 
L 379.513955 189.740726 
L 380.568028 196.107414 
L 381.622102 195.180463 
L 382.676175 186.22807 
L 383.730248 184.496136 
L 384.784321 193.10702 
L 385.838394 186.667152 
L 386.892468 189.765119 
L 387.946541 193.546102 
L 389.000614 189.033316 
L 390.054687 186.593972 
L 391.10876 196.595282 
L 392.162834 185.081578 
L 393.216907 191.326299 
L 394.27098 183.861906 
L 395.325053 198.766299 
L 396.379126 187.618496 
L 397.4332 183.081316 
L 398.487273 179.812595 
L 398.487273 179.812595 
" clip-path="url(#p4007a073ad)" style="fill: none; stroke: #2ca02c; stroke-width: 1.5; stroke-linecap: square"/>
   </g>
   <g id="line2d_21">
    <path d="M 0 0 
" clip-path="url(#p4007a073ad)" style="fill: none; stroke: #d62728; stroke-width: 1.5; stroke-linecap: square"/>
   </g>
   <g id="line2d_22">
    <path d="M 0 0 
" clip-path="url(#p4007a073ad)" style="fill: none; stroke: #9467bd; stroke-width: 1.5; stroke-linecap: square"/>
   </g>
   <g id="patch_3">
    <path d="M 57.6 307.584 
L 57.6 41.472 
" style="fill: none; stroke: #000000; stroke-width: 0.8; stroke-linejoin: miter; stroke-linecap: square"/>
   </g>
   <g id="patch_4">
    <path d="M 414.72 307.584 
L 414.72 41.472 
" style="fill: none; stroke: #000000; stroke-width: 0.8; stroke-linejoin: miter; stroke-linecap: square"/>
   </g>
   <g id="patch_5">
    <path d="M 57.6 307.584 
L 414.72 307.584 
" style="fill: none; stroke: #000000; stroke-width: 0.8; stroke-linejoin: miter; stroke-linecap: square"/>
   </g>
   <g id="patch_6">
    <path d="M 57.6 41.472 
L 414.72 41.472 
" style="fill: none; stroke: #000000; stroke-width: 0.8; stroke-linejoin: miter; stroke-linecap: square"/>
   </g>
   <g id="text_20">
    <!-- Learning Curves -->
    <g transform="translate(187.37625 35.472) scale(0.12 -0.12)">
     <defs>
      <path id="DejaVuSans-4c" d="M 628 4666 
L 1259 4666 
L 1259 531 
L 3531 531 
L 3531 0 
L 628 0 
L 628 4666 
z
" transform="scale(0.015625)"/>
      <path id="DejaVuSans-65" d="M 3597 1894 
L 3597 1613 
L 953 1613 
Q 991 1019 1311 708 
Q 1631 397 2203 397 
Q 2534 397 2845 478 
Q 3156 559 3463 722 
L 3463 178 
Q 3153 47 2828 -22 
Q 2503 -91 2169 -91 
Q 1331 -91 842 396 
Q 353 884 353 1716 
Q 353 2575 817 3079 
Q 1281 3584 2069 3584 
Q 2775 3584 3186 3129 
Q 3597 2675 3597 1894 
z
M 3022 2063 
Q 3016 2534 2758 2815 
Q 2500 3097 2075 3097 
Q 1594 3097 1305 2825 
Q 1016 2553 972 2059 
L 3022 2063 
z
" transform="scale(0.015625)"/>
      <path id="DejaVuSans-6e" d="M 3513 2113 
L 3513 0 
L 2938 0 
L 2938 2094 
Q 2938 2591 2744 2837 
Q 2550 3084 2163 3084 
Q 1697 3084 1428 2787 
Q 1159 2491 1159 1978 
L 1159 0 
L 581 0 
L 581 3500 
L 1159 3500 
L 1159 2956 
Q 1366 3272 1645 3428 
Q 1925 3584 2291 3584 
Q 2894 3584 3203 3211 
Q 3513 2838 3513 2113 
z
" transform="scale(0.015625)"/>
      <path id="DejaVuSans-69" d="M 603 3500 
L 1178 3500 
L 1178 0 
L 603 0 
L 603 3500 
z
M 603 4863 
L 1178 4863 
L 1178 4134 
L 603 4134 
L 603 4863 
z
" transform="scale(0.015625)"/>
      <path id="DejaVuSans-67" d="M 2906 1791 
Q 2906 2416 2648 2759 
Q 2391 3103 1925 3103 
Q 1463 3103 1205 2759 
Q 947 2416 947 1791 
Q 947 1169 1205 825 
Q 1463 481 1925 481 
Q 2391 481 2648 825 
Q 2906 1169 2906 1791 
z
M 3481 434 
Q 3481 -459 3084 -895 
Q 2688 -1331 1869 -1331 
Q 1566 -1331 1297 -1286 
Q 1028 -1241 775 -1147 
L 775 -588 
Q 1028 -725 1275 -790 
Q 1522 -856 1778 -856 
Q 2344 -856 2625 -561 
Q 2906 -266 2906 331 
L 2906 616 
Q 2728 306 2450 153 
Q 2172 0 1784 0 
Q 1141 0 747 490 
Q 353 981 353 1791 
Q 353 2603 747 3093 
Q 1141 3584 1784 3584 
Q 2172 3584 2450 3431 
Q 2728 3278 2906 2969 
L 2906 3500 
L 3481 3500 
L 3481 434 
z
" transform="scale(0.015625)"/>
      <path id="DejaVuSans-20" transform="scale(0.015625)"/>
      <path id="DejaVuSans-43" d="M 4122 4306 
L 4122 3641 
Q 3803 3938 3442 4084 
Q 3081 4231 2675 4231 
Q 1875 4231 1450 3742 
Q 1025 3253 1025 2328 
Q 1025 1406 1450 917 
Q 1875 428 2675 428 
Q 3081 428 3442 575 
Q 3803 722 4122 1019 
L 4122 359 
Q 3791 134 3420 21 
Q 3050 -91 2638 -91 
Q 1578 -91 968 557 
Q 359 1206 359 2328 
Q 359 3453 968 4101 
Q 1578 4750 2638 4750 
Q 3056 4750 3426 4639 
Q 3797 4528 4122 4306 
z
" transform="scale(0.015625)"/>
      <path id="DejaVuSans-76" d="M 191 3500 
L 800 3500 
L 1894 563 
L 2988 3500 
L 3597 3500 
L 2284 0 
L 1503 0 
L 191 3500 
z
" transform="scale(0.015625)"/>
     </defs>
     <use xlink:href="#DejaVuSans-4c"/>
     <use xlink:href="#DejaVuSans-65" x="53.962891"/>
     <use xlink:href="#DejaVuSans-61" x="115.486328"/>
     <use xlink:href="#DejaVuSans-72" x="176.765625"/>
     <use xlink:href="#DejaVuSans-6e" x="216.128906"/>
     <use xlink:href="#DejaVuSans-69" x="279.507812"/>
     <use xlink:href="#DejaVuSans-6e" x="307.291016"/>
     <use xlink:href="#DejaVuSans-67" x="370.669922"/>
     <use xlink:href="#DejaVuSans-20" x="434.146484"/>
     <use xlink:href="#DejaVuSans-43" x="465.933594"/>
     <use xlink:href="#DejaVuSans-75" x="535.757812"/>
     <use xlink:href="#DejaVuSans-72" x="599.136719"/>
     <use xlink:href="#DejaVuSans-76" x="640.25"/>
     <use xlink:href="#DejaVuSans-65" x="699.429688"/>
     <use xlink:href="#DejaVuSans-73" x="760.953125"/>
    </g>
   </g>
   <g id="legend_1">
    <g id="patch_7">
     <path d="M 214.18875 302.584 
L 407.72 302.584 
Q 409.72 302.584 409.72 300.584 
L 409.72 228.193375 
Q 409.72 226.193375 407.72 226.193375 
L 214.18875 226.193375 
Q 212.18875 226.193375 212.18875 228.193375 
L 212.18875 300.584 
Q 212.18875 302.584 214.18875 302.584 
z
" style="fill: #ffffff; opacity: 0.8; stroke: #cccccc; stroke-linejoin: miter"/>
    </g>
    <g id="line2d_23">
     <path d="M 216.18875 234.291812 
L 226.18875 234.291812 
L 236.18875 234.291812 
" style="fill: none; stroke: #1f77b4; stroke-width: 1.5; stroke-linecap: square"/>
    </g>
    <g id="text_21">
     <!-- Train Accuracy -->
     <g transform="translate(244.18875 237.791812) scale(0.1 -0.1)">
      <defs>
       <path id="DejaVuSans-54" d="M -19 4666 
L 3928 4666 
L 3928 4134 
L 2272 4134 
L 2272 0 
L 1638 0 
L 1638 4134 
L -19 4134 
L -19 4666 
z
" transform="scale(0.015625)"/>
      </defs>
      <use xlink:href="#DejaVuSans-54"/>
      <use xlink:href="#DejaVuSans-72" x="46.333984"/>
      <use xlink:href="#DejaVuSans-61" x="87.447266"/>
      <use xlink:href="#DejaVuSans-69" x="148.726562"/>
      <use xlink:href="#DejaVuSans-6e" x="176.509766"/>
      <use xlink:href="#DejaVuSans-20" x="239.888672"/>
      <use xlink:href="#DejaVuSans-41" x="271.675781"/>
      <use xlink:href="#DejaVuSans-63" x="338.333984"/>
      <use xlink:href="#DejaVuSans-63" x="393.314453"/>
      <use xlink:href="#DejaVuSans-75" x="448.294922"/>
      <use xlink:href="#DejaVuSans-72" x="511.673828"/>
      <use xlink:href="#DejaVuSans-61" x="552.787109"/>
      <use xlink:href="#DejaVuSans-63" x="614.066406"/>
      <use xlink:href="#DejaVuSans-79" x="669.046875"/>
     </g>
    </g>
    <g id="line2d_24">
     <path d="M 216.18875 248.969937 
L 226.18875 248.969937 
L 236.18875 248.969937 
" style="fill: none; stroke: #ff7f0e; stroke-width: 1.5; stroke-linecap: square"/>
    </g>
    <g id="text_22">
     <!-- Validation Accuracy -->
     <g transform="translate(244.18875 252.469937) scale(0.1 -0.1)">
      <defs>
       <path id="DejaVuSans-56" d="M 1831 0 
L 50 4666 
L 709 4666 
L 2188 738 
L 3669 4666 
L 4325 4666 
L 2547 0 
L 1831 0 
z
" transform="scale(0.015625)"/>
       <path id="DejaVuSans-6c" d="M 603 4863 
L 1178 4863 
L 1178 0 
L 603 0 
L 603 4863 
z
" transform="scale(0.015625)"/>
       <path id="DejaVuSans-64" d="M 2906 2969 
L 2906 4863 
L 3481 4863 
L 3481 0 
L 2906 0 
L 2906 525 
Q 2725 213 2448 61 
Q 2172 -91 1784 -91 
Q 1150 -91 751 415 
Q 353 922 353 1747 
Q 353 2572 751 3078 
Q 1150 3584 1784 3584 
Q 2172 3584 2448 3432 
Q 2725 3281 2906 2969 
z
M 947 1747 
Q 947 1113 1208 752 
Q 1469 391 1925 391 
Q 2381 391 2643 752 
Q 2906 1113 2906 1747 
Q 2906 2381 2643 2742 
Q 2381 3103 1925 3103 
Q 1469 3103 1208 2742 
Q 947 2381 947 1747 
z
" transform="scale(0.015625)"/>
       <path id="DejaVuSans-74" d="M 1172 4494 
L 1172 3500 
L 2356 3500 
L 2356 3053 
L 1172 3053 
L 1172 1153 
Q 1172 725 1289 603 
Q 1406 481 1766 481 
L 2356 481 
L 2356 0 
L 1766 0 
Q 1100 0 847 248 
Q 594 497 594 1153 
L 594 3053 
L 172 3053 
L 172 3500 
L 594 3500 
L 594 4494 
L 1172 4494 
z
" transform="scale(0.015625)"/>
      </defs>
      <use xlink:href="#DejaVuSans-56"/>
      <use xlink:href="#DejaVuSans-61" x="60.658203"/>
      <use xlink:href="#DejaVuSans-6c" x="121.9375"/>
      <use xlink:href="#DejaVuSans-69" x="149.720703"/>
      <use xlink:href="#DejaVuSans-64" x="177.503906"/>
      <use xlink:href="#DejaVuSans-61" x="240.980469"/>
      <use xlink:href="#DejaVuSans-74" x="302.259766"/>
      <use xlink:href="#DejaVuSans-69" x="341.46875"/>
      <use xlink:href="#DejaVuSans-6f" x="369.251953"/>
      <use xlink:href="#DejaVuSans-6e" x="430.433594"/>
      <use xlink:href="#DejaVuSans-20" x="493.8125"/>
      <use xlink:href="#DejaVuSans-41" x="525.599609"/>
      <use xlink:href="#DejaVuSans-63" x="592.257812"/>
      <use xlink:href="#DejaVuSans-63" x="647.238281"/>
      <use xlink:href="#DejaVuSans-75" x="702.21875"/>
      <use xlink:href="#DejaVuSans-72" x="765.597656"/>
      <use xlink:href="#DejaVuSans-61" x="806.710938"/>
      <use xlink:href="#DejaVuSans-63" x="867.990234"/>
      <use xlink:href="#DejaVuSans-79" x="922.970703"/>
     </g>
    </g>
    <g id="line2d_25">
     <path d="M 216.18875 263.648062 
L 226.18875 263.648062 
L 236.18875 263.648062 
" style="fill: none; stroke: #2ca02c; stroke-width: 1.5; stroke-linecap: square"/>
    </g>
    <g id="text_23">
     <!-- Robust Validation Accuracy -->
     <g transform="translate(244.18875 267.148062) scale(0.1 -0.1)">
      <defs>
       <path id="DejaVuSans-52" d="M 2841 2188 
Q 3044 2119 3236 1894 
Q 3428 1669 3622 1275 
L 4263 0 
L 3584 0 
L 2988 1197 
Q 2756 1666 2539 1819 
Q 2322 1972 1947 1972 
L 1259 1972 
L 1259 0 
L 628 0 
L 628 4666 
L 2053 4666 
Q 2853 4666 3247 4331 
Q 3641 3997 3641 3322 
Q 3641 2881 3436 2590 
Q 3231 2300 2841 2188 
z
M 1259 4147 
L 1259 2491 
L 2053 2491 
Q 2509 2491 2742 2702 
Q 2975 2913 2975 3322 
Q 2975 3731 2742 3939 
Q 2509 4147 2053 4147 
L 1259 4147 
z
" transform="scale(0.015625)"/>
       <path id="DejaVuSans-62" d="M 3116 1747 
Q 3116 2381 2855 2742 
Q 2594 3103 2138 3103 
Q 1681 3103 1420 2742 
Q 1159 2381 1159 1747 
Q 1159 1113 1420 752 
Q 1681 391 2138 391 
Q 2594 391 2855 752 
Q 3116 1113 3116 1747 
z
M 1159 2969 
Q 1341 3281 1617 3432 
Q 1894 3584 2278 3584 
Q 2916 3584 3314 3078 
Q 3713 2572 3713 1747 
Q 3713 922 3314 415 
Q 2916 -91 2278 -91 
Q 1894 -91 1617 61 
Q 1341 213 1159 525 
L 1159 0 
L 581 0 
L 581 4863 
L 1159 4863 
L 1159 2969 
z
" transform="scale(0.015625)"/>
      </defs>
      <use xlink:href="#DejaVuSans-52"/>
      <use xlink:href="#DejaVuSans-6f" x="64.982422"/>
      <use xlink:href="#DejaVuSans-62" x="126.164062"/>
      <use xlink:href="#DejaVuSans-75" x="189.640625"/>
      <use xlink:href="#DejaVuSans-73" x="253.019531"/>
      <use xlink:href="#DejaVuSans-74" x="305.119141"/>
      <use xlink:href="#DejaVuSans-20" x="344.328125"/>
      <use xlink:href="#DejaVuSans-56" x="376.115234"/>
      <use xlink:href="#DejaVuSans-61" x="436.773438"/>
      <use xlink:href="#DejaVuSans-6c" x="498.052734"/>
      <use xlink:href="#DejaVuSans-69" x="525.835938"/>
      <use xlink:href="#DejaVuSans-64" x="553.619141"/>
      <use xlink:href="#DejaVuSans-61" x="617.095703"/>
      <use xlink:href="#DejaVuSans-74" x="678.375"/>
      <use xlink:href="#DejaVuSans-69" x="717.583984"/>
      <use xlink:href="#DejaVuSans-6f" x="745.367188"/>
      <use xlink:href="#DejaVuSans-6e" x="806.548828"/>
      <use xlink:href="#DejaVuSans-20" x="869.927734"/>
      <use xlink:href="#DejaVuSans-41" x="901.714844"/>
      <use xlink:href="#DejaVuSans-63" x="968.373047"/>
      <use xlink:href="#DejaVuSans-63" x="1023.353516"/>
      <use xlink:href="#DejaVuSans-75" x="1078.333984"/>
      <use xlink:href="#DejaVuSans-72" x="1141.712891"/>
      <use xlink:href="#DejaVuSans-61" x="1182.826172"/>
      <use xlink:href="#DejaVuSans-63" x="1244.105469"/>
      <use xlink:href="#DejaVuSans-79" x="1299.085938"/>
     </g>
    </g>
    <g id="line2d_26">
     <path d="M 216.18875 278.326188 
L 226.18875 278.326188 
L 236.18875 278.326188 
" style="fill: none; stroke: #d62728; stroke-width: 1.5; stroke-linecap: square"/>
    </g>
    <g id="text_24">
     <!-- SWA Validation Accuracy -->
     <g transform="translate(244.18875 281.826188) scale(0.1 -0.1)">
      <defs>
       <path id="DejaVuSans-53" d="M 3425 4513 
L 3425 3897 
Q 3066 4069 2747 4153 
Q 2428 4238 2131 4238 
Q 1616 4238 1336 4038 
Q 1056 3838 1056 3469 
Q 1056 3159 1242 3001 
Q 1428 2844 1947 2747 
L 2328 2669 
Q 3034 2534 3370 2195 
Q 3706 1856 3706 1288 
Q 3706 609 3251 259 
Q 2797 -91 1919 -91 
Q 1588 -91 1214 -16 
Q 841 59 441 206 
L 441 856 
Q 825 641 1194 531 
Q 1563 422 1919 422 
Q 2459 422 2753 634 
Q 3047 847 3047 1241 
Q 3047 1584 2836 1778 
Q 2625 1972 2144 2069 
L 1759 2144 
Q 1053 2284 737 2584 
Q 422 2884 422 3419 
Q 422 4038 858 4394 
Q 1294 4750 2059 4750 
Q 2388 4750 2728 4690 
Q 3069 4631 3425 4513 
z
" transform="scale(0.015625)"/>
       <path id="DejaVuSans-57" d="M 213 4666 
L 850 4666 
L 1831 722 
L 2809 4666 
L 3519 4666 
L 4500 722 
L 5478 4666 
L 6119 4666 
L 4947 0 
L 4153 0 
L 3169 4050 
L 2175 0 
L 1381 0 
L 213 4666 
z
" transform="scale(0.015625)"/>
      </defs>
      <use xlink:href="#DejaVuSans-53"/>
      <use xlink:href="#DejaVuSans-57" x="63.476562"/>
      <use xlink:href="#DejaVuSans-41" x="156.853516"/>
      <use xlink:href="#DejaVuSans-20" x="225.261719"/>
      <use xlink:href="#DejaVuSans-56" x="257.048828"/>
      <use xlink:href="#DejaVuSans-61" x="317.707031"/>
      <use xlink:href="#DejaVuSans-6c" x="378.986328"/>
      <use xlink:href="#DejaVuSans-69" x="406.769531"/>
      <use xlink:href="#DejaVuSans-64" x="434.552734"/>
      <use xlink:href="#DejaVuSans-61" x="498.029297"/>
      <use xlink:href="#DejaVuSans-74" x="559.308594"/>
      <use xlink:href="#DejaVuSans-69" x="598.517578"/>
      <use xlink:href="#DejaVuSans-6f" x="626.300781"/>
      <use xlink:href="#DejaVuSans-6e" x="687.482422"/>
      <use xlink:href="#DejaVuSans-20" x="750.861328"/>
      <use xlink:href="#DejaVuSans-41" x="782.648438"/>
      <use xlink:href="#DejaVuSans-63" x="849.306641"/>
      <use xlink:href="#DejaVuSans-63" x="904.287109"/>
      <use xlink:href="#DejaVuSans-75" x="959.267578"/>
      <use xlink:href="#DejaVuSans-72" x="1022.646484"/>
      <use xlink:href="#DejaVuSans-61" x="1063.759766"/>
      <use xlink:href="#DejaVuSans-63" x="1125.039062"/>
      <use xlink:href="#DejaVuSans-79" x="1180.019531"/>
     </g>
    </g>
    <g id="line2d_27">
     <path d="M 216.18875 293.004312 
L 226.18875 293.004312 
L 236.18875 293.004312 
" style="fill: none; stroke: #9467bd; stroke-width: 1.5; stroke-linecap: square"/>
    </g>
    <g id="text_25">
     <!-- SWA Robust Validation Accuracy -->
     <g transform="translate(244.18875 296.504312) scale(0.1 -0.1)">
      <use xlink:href="#DejaVuSans-53"/>
      <use xlink:href="#DejaVuSans-57" x="63.476562"/>
      <use xlink:href="#DejaVuSans-41" x="156.853516"/>
      <use xlink:href="#DejaVuSans-20" x="225.261719"/>
      <use xlink:href="#DejaVuSans-52" x="257.048828"/>
      <use xlink:href="#DejaVuSans-6f" x="322.03125"/>
      <use xlink:href="#DejaVuSans-62" x="383.212891"/>
      <use xlink:href="#DejaVuSans-75" x="446.689453"/>
      <use xlink:href="#DejaVuSans-73" x="510.068359"/>
      <use xlink:href="#DejaVuSans-74" x="562.167969"/>
      <use xlink:href="#DejaVuSans-20" x="601.376953"/>
      <use xlink:href="#DejaVuSans-56" x="633.164062"/>
      <use xlink:href="#DejaVuSans-61" x="693.822266"/>
      <use xlink:href="#DejaVuSans-6c" x="755.101562"/>
      <use xlink:href="#DejaVuSans-69" x="782.884766"/>
      <use xlink:href="#DejaVuSans-64" x="810.667969"/>
      <use xlink:href="#DejaVuSans-61" x="874.144531"/>
      <use xlink:href="#DejaVuSans-74" x="935.423828"/>
      <use xlink:href="#DejaVuSans-69" x="974.632812"/>
      <use xlink:href="#DejaVuSans-6f" x="1002.416016"/>
      <use xlink:href="#DejaVuSans-6e" x="1063.597656"/>
      <use xlink:href="#DejaVuSans-20" x="1126.976562"/>
      <use xlink:href="#DejaVuSans-41" x="1158.763672"/>
      <use xlink:href="#DejaVuSans-63" x="1225.421875"/>
      <use xlink:href="#DejaVuSans-63" x="1280.402344"/>
      <use xlink:href="#DejaVuSans-75" x="1335.382812"/>
      <use xlink:href="#DejaVuSans-72" x="1398.761719"/>
      <use xlink:href="#DejaVuSans-61" x="1439.875"/>
      <use xlink:href="#DejaVuSans-63" x="1501.154297"/>
      <use xlink:href="#DejaVuSans-79" x="1556.134766"/>
     </g>
    </g>
   </g>
  </g>
 </g>
 <defs>
  <clipPath id="p4007a073ad">
   <rect x="57.6" y="41.472" width="357.12" height="266.112"/>
  </clipPath>
 </defs>
</svg>
