<?xml version="1.0" encoding="utf-8" standalone="no"?>
<!DOCTYPE svg PUBLIC "-//W3C//DTD SVG 1.1//EN"
  "http://www.w3.org/Graphics/SVG/1.1/DTD/svg11.dtd">
<svg xmlns:xlink="http://www.w3.org/1999/xlink" width="460.8pt" height="345.6pt" viewBox="0 0 460.8 345.6" xmlns="http://www.w3.org/2000/svg" version="1.1">
 <metadata>
  <rdf:RDF xmlns:dc="http://purl.org/dc/elements/1.1/" xmlns:cc="http://creativecommons.org/ns#" xmlns:rdf="http://www.w3.org/1999/02/22-rdf-syntax-ns#">
   <cc:Work>
    <dc:type rdf:resource="http://purl.org/dc/dcmitype/StillImage"/>
    <dc:date>2025-01-27T00:44:30.519170</dc:date>
    <dc:format>image/svg+xml</dc:format>
    <dc:creator>
     <cc:Agent>
      <dc:title>Matplotlib v3.9.1, https://matplotlib.org/</dc:title>
     </cc:Agent>
    </dc:creator>
   </cc:Work>
  </rdf:RDF>
 </metadata>
 <defs>
  <style type="text/css">*{stroke-linejoin: round; stroke-linecap: butt}</style>
 </defs>
 <g id="figure_1">
  <g id="patch_1">
   <path d="M 0 345.6 
L 460.8 345.6 
L 460.8 0 
L 0 0 
z
" style="fill: #ffffff"/>
  </g>
  <g id="axes_1">
   <g id="patch_2">
    <path d="M 57.6 307.584 
L 414.72 307.584 
L 414.72 41.472 
L 57.6 41.472 
z
" style="fill: #ffffff"/>
   </g>
   <g id="matplotlib.axis_1">
    <g id="xtick_1">
     <g id="line2d_1">
      <defs>
       <path id="maee2159e9d" d="M 0 0 
L 0 3.5 
" style="stroke: #000000; stroke-width: 0.8"/>
      </defs>
      <g>
       <use xlink:href="#maee2159e9d" x="73.832727" y="307.584" style="stroke: #000000; stroke-width: 0.8"/>
      </g>
     </g>
     <g id="text_1">
      <!-- 1 -->
      <g transform="translate(70.651477 322.182437) scale(0.1 -0.1)">
       <defs>
        <path id="DejaVuSans-31" d="M 794 531 
L 1825 531 
L 1825 4091 
L 703 3866 
L 703 4441 
L 1819 4666 
L 2450 4666 
L 2450 531 
L 3481 531 
L 3481 0 
L 794 0 
L 794 531 
z
" transform="scale(0.015625)"/>
       </defs>
       <use xlink:href="#DejaVuSans-31"/>
      </g>
     </g>
    </g>
    <g id="xtick_2">
     <g id="line2d_2">
      <g>
       <use xlink:href="#maee2159e9d" x="109.664165" y="307.584" style="stroke: #000000; stroke-width: 0.8"/>
      </g>
     </g>
     <g id="text_2">
      <!-- 34 -->
      <g transform="translate(103.301665 322.182437) scale(0.1 -0.1)">
       <defs>
        <path id="DejaVuSans-33" d="M 2597 2516 
Q 3050 2419 3304 2112 
Q 3559 1806 3559 1356 
Q 3559 666 3084 287 
Q 2609 -91 1734 -91 
Q 1441 -91 1130 -33 
Q 819 25 488 141 
L 488 750 
Q 750 597 1062 519 
Q 1375 441 1716 441 
Q 2309 441 2620 675 
Q 2931 909 2931 1356 
Q 2931 1769 2642 2001 
Q 2353 2234 1838 2234 
L 1294 2234 
L 1294 2753 
L 1863 2753 
Q 2328 2753 2575 2939 
Q 2822 3125 2822 3475 
Q 2822 3834 2567 4026 
Q 2313 4219 1838 4219 
Q 1578 4219 1281 4162 
Q 984 4106 628 3988 
L 628 4550 
Q 988 4650 1302 4700 
Q 1616 4750 1894 4750 
Q 2613 4750 3031 4423 
Q 3450 4097 3450 3541 
Q 3450 3153 3228 2886 
Q 3006 2619 2597 2516 
z
" transform="scale(0.015625)"/>
        <path id="DejaVuSans-34" d="M 2419 4116 
L 825 1625 
L 2419 1625 
L 2419 4116 
z
M 2253 4666 
L 3047 4666 
L 3047 1625 
L 3713 1625 
L 3713 1100 
L 3047 1100 
L 3047 0 
L 2419 0 
L 2419 1100 
L 313 1100 
L 313 1709 
L 2253 4666 
z
" transform="scale(0.015625)"/>
       </defs>
       <use xlink:href="#DejaVuSans-33"/>
       <use xlink:href="#DejaVuSans-34" x="63.623047"/>
      </g>
     </g>
    </g>
    <g id="xtick_3">
     <g id="line2d_3">
      <g>
       <use xlink:href="#maee2159e9d" x="145.495604" y="307.584" style="stroke: #000000; stroke-width: 0.8"/>
      </g>
     </g>
     <g id="text_3">
      <!-- 67 -->
      <g transform="translate(139.133104 322.182437) scale(0.1 -0.1)">
       <defs>
        <path id="DejaVuSans-36" d="M 2113 2584 
Q 1688 2584 1439 2293 
Q 1191 2003 1191 1497 
Q 1191 994 1439 701 
Q 1688 409 2113 409 
Q 2538 409 2786 701 
Q 3034 994 3034 1497 
Q 3034 2003 2786 2293 
Q 2538 2584 2113 2584 
z
M 3366 4563 
L 3366 3988 
Q 3128 4100 2886 4159 
Q 2644 4219 2406 4219 
Q 1781 4219 1451 3797 
Q 1122 3375 1075 2522 
Q 1259 2794 1537 2939 
Q 1816 3084 2150 3084 
Q 2853 3084 3261 2657 
Q 3669 2231 3669 1497 
Q 3669 778 3244 343 
Q 2819 -91 2113 -91 
Q 1303 -91 875 529 
Q 447 1150 447 2328 
Q 447 3434 972 4092 
Q 1497 4750 2381 4750 
Q 2619 4750 2861 4703 
Q 3103 4656 3366 4563 
z
" transform="scale(0.015625)"/>
        <path id="DejaVuSans-37" d="M 525 4666 
L 3525 4666 
L 3525 4397 
L 1831 0 
L 1172 0 
L 2766 4134 
L 525 4134 
L 525 4666 
z
" transform="scale(0.015625)"/>
       </defs>
       <use xlink:href="#DejaVuSans-36"/>
       <use xlink:href="#DejaVuSans-37" x="63.623047"/>
      </g>
     </g>
    </g>
    <g id="xtick_4">
     <g id="line2d_4">
      <g>
       <use xlink:href="#maee2159e9d" x="181.327042" y="307.584" style="stroke: #000000; stroke-width: 0.8"/>
      </g>
     </g>
     <g id="text_4">
      <!-- 100 -->
      <g transform="translate(171.783292 322.182437) scale(0.1 -0.1)">
       <defs>
        <path id="DejaVuSans-30" d="M 2034 4250 
Q 1547 4250 1301 3770 
Q 1056 3291 1056 2328 
Q 1056 1369 1301 889 
Q 1547 409 2034 409 
Q 2525 409 2770 889 
Q 3016 1369 3016 2328 
Q 3016 3291 2770 3770 
Q 2525 4250 2034 4250 
z
M 2034 4750 
Q 2819 4750 3233 4129 
Q 3647 3509 3647 2328 
Q 3647 1150 3233 529 
Q 2819 -91 2034 -91 
Q 1250 -91 836 529 
Q 422 1150 422 2328 
Q 422 3509 836 4129 
Q 1250 4750 2034 4750 
z
" transform="scale(0.015625)"/>
       </defs>
       <use xlink:href="#DejaVuSans-31"/>
       <use xlink:href="#DejaVuSans-30" x="63.623047"/>
       <use xlink:href="#DejaVuSans-30" x="127.246094"/>
      </g>
     </g>
    </g>
    <g id="xtick_5">
     <g id="line2d_5">
      <g>
       <use xlink:href="#maee2159e9d" x="217.15848" y="307.584" style="stroke: #000000; stroke-width: 0.8"/>
      </g>
     </g>
     <g id="text_5">
      <!-- 133 -->
      <g transform="translate(207.61473 322.182437) scale(0.1 -0.1)">
       <use xlink:href="#DejaVuSans-31"/>
       <use xlink:href="#DejaVuSans-33" x="63.623047"/>
       <use xlink:href="#DejaVuSans-33" x="127.246094"/>
      </g>
     </g>
    </g>
    <g id="xtick_6">
     <g id="line2d_6">
      <g>
       <use xlink:href="#maee2159e9d" x="254.075719" y="307.584" style="stroke: #000000; stroke-width: 0.8"/>
      </g>
     </g>
     <g id="text_6">
      <!-- 167 -->
      <g transform="translate(244.531969 322.182437) scale(0.1 -0.1)">
       <use xlink:href="#DejaVuSans-31"/>
       <use xlink:href="#DejaVuSans-36" x="63.623047"/>
       <use xlink:href="#DejaVuSans-37" x="127.246094"/>
      </g>
     </g>
    </g>
    <g id="xtick_7">
     <g id="line2d_7">
      <g>
       <use xlink:href="#maee2159e9d" x="289.907157" y="307.584" style="stroke: #000000; stroke-width: 0.8"/>
      </g>
     </g>
     <g id="text_7">
      <!-- 200 -->
      <g transform="translate(280.363407 322.182437) scale(0.1 -0.1)">
       <defs>
        <path id="DejaVuSans-32" d="M 1228 531 
L 3431 531 
L 3431 0 
L 469 0 
L 469 531 
Q 828 903 1448 1529 
Q 2069 2156 2228 2338 
Q 2531 2678 2651 2914 
Q 2772 3150 2772 3378 
Q 2772 3750 2511 3984 
Q 2250 4219 1831 4219 
Q 1534 4219 1204 4116 
Q 875 4013 500 3803 
L 500 4441 
Q 881 4594 1212 4672 
Q 1544 4750 1819 4750 
Q 2544 4750 2975 4387 
Q 3406 4025 3406 3419 
Q 3406 3131 3298 2873 
Q 3191 2616 2906 2266 
Q 2828 2175 2409 1742 
Q 1991 1309 1228 531 
z
" transform="scale(0.015625)"/>
       </defs>
       <use xlink:href="#DejaVuSans-32"/>
       <use xlink:href="#DejaVuSans-30" x="63.623047"/>
       <use xlink:href="#DejaVuSans-30" x="127.246094"/>
      </g>
     </g>
    </g>
    <g id="xtick_8">
     <g id="line2d_8">
      <g>
       <use xlink:href="#maee2159e9d" x="325.738595" y="307.584" style="stroke: #000000; stroke-width: 0.8"/>
      </g>
     </g>
     <g id="text_8">
      <!-- 233 -->
      <g transform="translate(316.194845 322.182437) scale(0.1 -0.1)">
       <use xlink:href="#DejaVuSans-32"/>
       <use xlink:href="#DejaVuSans-33" x="63.623047"/>
       <use xlink:href="#DejaVuSans-33" x="127.246094"/>
      </g>
     </g>
    </g>
    <g id="xtick_9">
     <g id="line2d_9">
      <g>
       <use xlink:href="#maee2159e9d" x="361.570033" y="307.584" style="stroke: #000000; stroke-width: 0.8"/>
      </g>
     </g>
     <g id="text_9">
      <!-- 266 -->
      <g transform="translate(352.026283 322.182437) scale(0.1 -0.1)">
       <use xlink:href="#DejaVuSans-32"/>
       <use xlink:href="#DejaVuSans-36" x="63.623047"/>
       <use xlink:href="#DejaVuSans-36" x="127.246094"/>
      </g>
     </g>
    </g>
    <g id="xtick_10">
     <g id="line2d_10">
      <g>
       <use xlink:href="#maee2159e9d" x="398.487273" y="307.584" style="stroke: #000000; stroke-width: 0.8"/>
      </g>
     </g>
     <g id="text_10">
      <!-- 300 -->
      <g transform="translate(388.943523 322.182437) scale(0.1 -0.1)">
       <use xlink:href="#DejaVuSans-33"/>
       <use xlink:href="#DejaVuSans-30" x="63.623047"/>
       <use xlink:href="#DejaVuSans-30" x="127.246094"/>
      </g>
     </g>
    </g>
    <g id="text_11">
     <!-- Epochs -->
     <g transform="translate(218.244375 335.860562) scale(0.1 -0.1)">
      <defs>
       <path id="DejaVuSans-45" d="M 628 4666 
L 3578 4666 
L 3578 4134 
L 1259 4134 
L 1259 2753 
L 3481 2753 
L 3481 2222 
L 1259 2222 
L 1259 531 
L 3634 531 
L 3634 0 
L 628 0 
L 628 4666 
z
" transform="scale(0.015625)"/>
       <path id="DejaVuSans-70" d="M 1159 525 
L 1159 -1331 
L 581 -1331 
L 581 3500 
L 1159 3500 
L 1159 2969 
Q 1341 3281 1617 3432 
Q 1894 3584 2278 3584 
Q 2916 3584 3314 3078 
Q 3713 2572 3713 1747 
Q 3713 922 3314 415 
Q 2916 -91 2278 -91 
Q 1894 -91 1617 61 
Q 1341 213 1159 525 
z
M 3116 1747 
Q 3116 2381 2855 2742 
Q 2594 3103 2138 3103 
Q 1681 3103 1420 2742 
Q 1159 2381 1159 1747 
Q 1159 1113 1420 752 
Q 1681 391 2138 391 
Q 2594 391 2855 752 
Q 3116 1113 3116 1747 
z
" transform="scale(0.015625)"/>
       <path id="DejaVuSans-6f" d="M 1959 3097 
Q 1497 3097 1228 2736 
Q 959 2375 959 1747 
Q 959 1119 1226 758 
Q 1494 397 1959 397 
Q 2419 397 2687 759 
Q 2956 1122 2956 1747 
Q 2956 2369 2687 2733 
Q 2419 3097 1959 3097 
z
M 1959 3584 
Q 2709 3584 3137 3096 
Q 3566 2609 3566 1747 
Q 3566 888 3137 398 
Q 2709 -91 1959 -91 
Q 1206 -91 779 398 
Q 353 888 353 1747 
Q 353 2609 779 3096 
Q 1206 3584 1959 3584 
z
" transform="scale(0.015625)"/>
       <path id="DejaVuSans-63" d="M 3122 3366 
L 3122 2828 
Q 2878 2963 2633 3030 
Q 2388 3097 2138 3097 
Q 1578 3097 1268 2742 
Q 959 2388 959 1747 
Q 959 1106 1268 751 
Q 1578 397 2138 397 
Q 2388 397 2633 464 
Q 2878 531 3122 666 
L 3122 134 
Q 2881 22 2623 -34 
Q 2366 -91 2075 -91 
Q 1284 -91 818 406 
Q 353 903 353 1747 
Q 353 2603 823 3093 
Q 1294 3584 2113 3584 
Q 2378 3584 2631 3529 
Q 2884 3475 3122 3366 
z
" transform="scale(0.015625)"/>
       <path id="DejaVuSans-68" d="M 3513 2113 
L 3513 0 
L 2938 0 
L 2938 2094 
Q 2938 2591 2744 2837 
Q 2550 3084 2163 3084 
Q 1697 3084 1428 2787 
Q 1159 2491 1159 1978 
L 1159 0 
L 581 0 
L 581 4863 
L 1159 4863 
L 1159 2956 
Q 1366 3272 1645 3428 
Q 1925 3584 2291 3584 
Q 2894 3584 3203 3211 
Q 3513 2838 3513 2113 
z
" transform="scale(0.015625)"/>
       <path id="DejaVuSans-73" d="M 2834 3397 
L 2834 2853 
Q 2591 2978 2328 3040 
Q 2066 3103 1784 3103 
Q 1356 3103 1142 2972 
Q 928 2841 928 2578 
Q 928 2378 1081 2264 
Q 1234 2150 1697 2047 
L 1894 2003 
Q 2506 1872 2764 1633 
Q 3022 1394 3022 966 
Q 3022 478 2636 193 
Q 2250 -91 1575 -91 
Q 1294 -91 989 -36 
Q 684 19 347 128 
L 347 722 
Q 666 556 975 473 
Q 1284 391 1588 391 
Q 1994 391 2212 530 
Q 2431 669 2431 922 
Q 2431 1156 2273 1281 
Q 2116 1406 1581 1522 
L 1381 1569 
Q 847 1681 609 1914 
Q 372 2147 372 2553 
Q 372 3047 722 3315 
Q 1072 3584 1716 3584 
Q 2034 3584 2315 3537 
Q 2597 3491 2834 3397 
z
" transform="scale(0.015625)"/>
      </defs>
      <use xlink:href="#DejaVuSans-45"/>
      <use xlink:href="#DejaVuSans-70" x="63.183594"/>
      <use xlink:href="#DejaVuSans-6f" x="126.660156"/>
      <use xlink:href="#DejaVuSans-63" x="187.841797"/>
      <use xlink:href="#DejaVuSans-68" x="242.822266"/>
      <use xlink:href="#DejaVuSans-73" x="306.201172"/>
     </g>
    </g>
   </g>
   <g id="matplotlib.axis_2">
    <g id="ytick_1">
     <g id="line2d_11">
      <defs>
       <path id="m522521b3df" d="M 0 0 
L -3.5 0 
" style="stroke: #000000; stroke-width: 0.8"/>
      </defs>
      <g>
       <use xlink:href="#m522521b3df" x="57.6" y="281.299392" style="stroke: #000000; stroke-width: 0.8"/>
      </g>
     </g>
     <g id="text_12">
      <!-- 10 -->
      <g transform="translate(37.875 285.098611) scale(0.1 -0.1)">
       <use xlink:href="#DejaVuSans-31"/>
       <use xlink:href="#DejaVuSans-30" x="63.623047"/>
      </g>
     </g>
    </g>
    <g id="ytick_2">
     <g id="line2d_12">
      <g>
       <use xlink:href="#m522521b3df" x="57.6" y="250.361826" style="stroke: #000000; stroke-width: 0.8"/>
      </g>
     </g>
     <g id="text_13">
      <!-- 20 -->
      <g transform="translate(37.875 254.161045) scale(0.1 -0.1)">
       <use xlink:href="#DejaVuSans-32"/>
       <use xlink:href="#DejaVuSans-30" x="63.623047"/>
      </g>
     </g>
    </g>
    <g id="ytick_3">
     <g id="line2d_13">
      <g>
       <use xlink:href="#m522521b3df" x="57.6" y="219.42426" style="stroke: #000000; stroke-width: 0.8"/>
      </g>
     </g>
     <g id="text_14">
      <!-- 30 -->
      <g transform="translate(37.875 223.223479) scale(0.1 -0.1)">
       <use xlink:href="#DejaVuSans-33"/>
       <use xlink:href="#DejaVuSans-30" x="63.623047"/>
      </g>
     </g>
    </g>
    <g id="ytick_4">
     <g id="line2d_14">
      <g>
       <use xlink:href="#m522521b3df" x="57.6" y="188.486694" style="stroke: #000000; stroke-width: 0.8"/>
      </g>
     </g>
     <g id="text_15">
      <!-- 40 -->
      <g transform="translate(37.875 192.285913) scale(0.1 -0.1)">
       <use xlink:href="#DejaVuSans-34"/>
       <use xlink:href="#DejaVuSans-30" x="63.623047"/>
      </g>
     </g>
    </g>
    <g id="ytick_5">
     <g id="line2d_15">
      <g>
       <use xlink:href="#m522521b3df" x="57.6" y="157.549128" style="stroke: #000000; stroke-width: 0.8"/>
      </g>
     </g>
     <g id="text_16">
      <!-- 50 -->
      <g transform="translate(37.875 161.348346) scale(0.1 -0.1)">
       <defs>
        <path id="DejaVuSans-35" d="M 691 4666 
L 3169 4666 
L 3169 4134 
L 1269 4134 
L 1269 2991 
Q 1406 3038 1543 3061 
Q 1681 3084 1819 3084 
Q 2600 3084 3056 2656 
Q 3513 2228 3513 1497 
Q 3513 744 3044 326 
Q 2575 -91 1722 -91 
Q 1428 -91 1123 -41 
Q 819 9 494 109 
L 494 744 
Q 775 591 1075 516 
Q 1375 441 1709 441 
Q 2250 441 2565 725 
Q 2881 1009 2881 1497 
Q 2881 1984 2565 2268 
Q 2250 2553 1709 2553 
Q 1456 2553 1204 2497 
Q 953 2441 691 2322 
L 691 4666 
z
" transform="scale(0.015625)"/>
       </defs>
       <use xlink:href="#DejaVuSans-35"/>
       <use xlink:href="#DejaVuSans-30" x="63.623047"/>
      </g>
     </g>
    </g>
    <g id="ytick_6">
     <g id="line2d_16">
      <g>
       <use xlink:href="#m522521b3df" x="57.6" y="126.611562" style="stroke: #000000; stroke-width: 0.8"/>
      </g>
     </g>
     <g id="text_17">
      <!-- 60 -->
      <g transform="translate(37.875 130.41078) scale(0.1 -0.1)">
       <use xlink:href="#DejaVuSans-36"/>
       <use xlink:href="#DejaVuSans-30" x="63.623047"/>
      </g>
     </g>
    </g>
    <g id="ytick_7">
     <g id="line2d_17">
      <g>
       <use xlink:href="#m522521b3df" x="57.6" y="95.673996" style="stroke: #000000; stroke-width: 0.8"/>
      </g>
     </g>
     <g id="text_18">
      <!-- 70 -->
      <g transform="translate(37.875 99.473214) scale(0.1 -0.1)">
       <use xlink:href="#DejaVuSans-37"/>
       <use xlink:href="#DejaVuSans-30" x="63.623047"/>
      </g>
     </g>
    </g>
    <g id="ytick_8">
     <g id="line2d_18">
      <g>
       <use xlink:href="#m522521b3df" x="57.6" y="64.736429" style="stroke: #000000; stroke-width: 0.8"/>
      </g>
     </g>
     <g id="text_19">
      <!-- 80 -->
      <g transform="translate(37.875 68.535648) scale(0.1 -0.1)">
       <defs>
        <path id="DejaVuSans-38" d="M 2034 2216 
Q 1584 2216 1326 1975 
Q 1069 1734 1069 1313 
Q 1069 891 1326 650 
Q 1584 409 2034 409 
Q 2484 409 2743 651 
Q 3003 894 3003 1313 
Q 3003 1734 2745 1975 
Q 2488 2216 2034 2216 
z
M 1403 2484 
Q 997 2584 770 2862 
Q 544 3141 544 3541 
Q 544 4100 942 4425 
Q 1341 4750 2034 4750 
Q 2731 4750 3128 4425 
Q 3525 4100 3525 3541 
Q 3525 3141 3298 2862 
Q 3072 2584 2669 2484 
Q 3125 2378 3379 2068 
Q 3634 1759 3634 1313 
Q 3634 634 3220 271 
Q 2806 -91 2034 -91 
Q 1263 -91 848 271 
Q 434 634 434 1313 
Q 434 1759 690 2068 
Q 947 2378 1403 2484 
z
M 1172 3481 
Q 1172 3119 1398 2916 
Q 1625 2713 2034 2713 
Q 2441 2713 2670 2916 
Q 2900 3119 2900 3481 
Q 2900 3844 2670 4047 
Q 2441 4250 2034 4250 
Q 1625 4250 1398 4047 
Q 1172 3844 1172 3481 
z
" transform="scale(0.015625)"/>
       </defs>
       <use xlink:href="#DejaVuSans-38"/>
       <use xlink:href="#DejaVuSans-30" x="63.623047"/>
      </g>
     </g>
    </g>
    <g id="text_20">
     <!-- Accuracy -->
     <g transform="translate(31.795312 197.356125) rotate(-90) scale(0.1 -0.1)">
      <defs>
       <path id="DejaVuSans-41" d="M 2188 4044 
L 1331 1722 
L 3047 1722 
L 2188 4044 
z
M 1831 4666 
L 2547 4666 
L 4325 0 
L 3669 0 
L 3244 1197 
L 1141 1197 
L 716 0 
L 50 0 
L 1831 4666 
z
" transform="scale(0.015625)"/>
       <path id="DejaVuSans-75" d="M 544 1381 
L 544 3500 
L 1119 3500 
L 1119 1403 
Q 1119 906 1312 657 
Q 1506 409 1894 409 
Q 2359 409 2629 706 
Q 2900 1003 2900 1516 
L 2900 3500 
L 3475 3500 
L 3475 0 
L 2900 0 
L 2900 538 
Q 2691 219 2414 64 
Q 2138 -91 1772 -91 
Q 1169 -91 856 284 
Q 544 659 544 1381 
z
M 1991 3584 
L 1991 3584 
z
" transform="scale(0.015625)"/>
       <path id="DejaVuSans-72" d="M 2631 2963 
Q 2534 3019 2420 3045 
Q 2306 3072 2169 3072 
Q 1681 3072 1420 2755 
Q 1159 2438 1159 1844 
L 1159 0 
L 581 0 
L 581 3500 
L 1159 3500 
L 1159 2956 
Q 1341 3275 1631 3429 
Q 1922 3584 2338 3584 
Q 2397 3584 2469 3576 
Q 2541 3569 2628 3553 
L 2631 2963 
z
" transform="scale(0.015625)"/>
       <path id="DejaVuSans-61" d="M 2194 1759 
Q 1497 1759 1228 1600 
Q 959 1441 959 1056 
Q 959 750 1161 570 
Q 1363 391 1709 391 
Q 2188 391 2477 730 
Q 2766 1069 2766 1631 
L 2766 1759 
L 2194 1759 
z
M 3341 1997 
L 3341 0 
L 2766 0 
L 2766 531 
Q 2569 213 2275 61 
Q 1981 -91 1556 -91 
Q 1019 -91 701 211 
Q 384 513 384 1019 
Q 384 1609 779 1909 
Q 1175 2209 1959 2209 
L 2766 2209 
L 2766 2266 
Q 2766 2663 2505 2880 
Q 2244 3097 1772 3097 
Q 1472 3097 1187 3025 
Q 903 2953 641 2809 
L 641 3341 
Q 956 3463 1253 3523 
Q 1550 3584 1831 3584 
Q 2591 3584 2966 3190 
Q 3341 2797 3341 1997 
z
" transform="scale(0.015625)"/>
       <path id="DejaVuSans-79" d="M 2059 -325 
Q 1816 -950 1584 -1140 
Q 1353 -1331 966 -1331 
L 506 -1331 
L 506 -850 
L 844 -850 
Q 1081 -850 1212 -737 
Q 1344 -625 1503 -206 
L 1606 56 
L 191 3500 
L 800 3500 
L 1894 763 
L 2988 3500 
L 3597 3500 
L 2059 -325 
z
" transform="scale(0.015625)"/>
      </defs>
      <use xlink:href="#DejaVuSans-41"/>
      <use xlink:href="#DejaVuSans-63" x="66.658203"/>
      <use xlink:href="#DejaVuSans-63" x="121.638672"/>
      <use xlink:href="#DejaVuSans-75" x="176.619141"/>
      <use xlink:href="#DejaVuSans-72" x="239.998047"/>
      <use xlink:href="#DejaVuSans-61" x="281.111328"/>
      <use xlink:href="#DejaVuSans-63" x="342.390625"/>
      <use xlink:href="#DejaVuSans-79" x="397.371094"/>
     </g>
    </g>
   </g>
   <g id="line2d_19">
    <path d="M 73.832727 282.174308 
L 74.918528 244.586698 
L 76.00433 221.785573 
L 77.090131 204.773832 
L 78.175932 192.779764 
L 79.261733 182.130768 
L 80.347534 173.505577 
L 81.433335 166.597366 
L 82.519137 158.914344 
L 83.604938 153.738609 
L 85.77654 142.61233 
L 86.862341 137.560565 
L 87.948142 133.28361 
L 91.205546 123.13979 
L 93.377148 118.410347 
L 94.462949 117.409291 
L 95.54875 149.762282 
L 96.634552 149.108341 
L 98.806154 142.345795 
L 99.891955 140.498646 
L 100.977756 137.771313 
L 102.063557 135.449981 
L 103.149358 132.490204 
L 104.23516 130.240154 
L 105.320961 129.52113 
L 106.406762 126.270025 
L 107.492563 124.317503 
L 108.578364 123.114997 
L 109.664165 119.522975 
L 110.749967 117.917567 
L 111.835768 115.475364 
L 112.921569 114.145789 
L 114.00737 111.300685 
L 115.093171 110.383309 
L 116.178972 108.384298 
L 117.264773 105.877011 
L 118.350575 104.606322 
L 119.436376 103.10009 
L 120.522177 100.428543 
L 121.607978 99.759107 
L 122.693779 97.273514 
L 123.77958 95.150534 
L 125.951183 92.038894 
L 127.036984 90.610144 
L 128.122785 88.629728 
L 129.208586 87.811528 
L 130.294387 85.570776 
L 131.380189 84.399262 
L 132.46599 82.880633 
L 133.551791 82.468434 
L 134.637592 81.727715 
L 135.723393 81.312417 
L 136.809194 80.020033 
L 137.894995 80.494217 
L 138.980797 117.427887 
L 140.066598 119.058088 
L 141.152399 118.258484 
L 142.2382 118.401049 
L 144.409802 116.011533 
L 145.495604 115.196433 
L 146.581405 114.074507 
L 147.667206 113.278002 
L 148.753007 112.797619 
L 149.838808 111.226303 
L 150.924609 110.894684 
L 153.096212 108.715917 
L 154.182013 108.04958 
L 156.353615 105.864614 
L 157.439416 105.393529 
L 158.525217 105.1053 
L 159.611019 104.051557 
L 160.69682 103.564976 
L 161.782621 102.102134 
L 162.868422 102.002958 
L 163.954223 99.66303 
L 165.040024 100.372757 
L 166.125825 99.117564 
L 167.211627 98.857227 
L 168.297428 98.448127 
L 169.383229 97.289011 
L 170.46903 96.830323 
L 171.554831 95.339587 
L 172.640632 94.750731 
L 173.726434 93.777569 
L 174.812235 92.649445 
L 175.898036 91.81265 
L 176.983837 91.558512 
L 178.069638 90.129761 
L 179.155439 89.491317 
L 180.24124 89.178294 
L 181.327042 87.204076 
L 182.412843 86.667907 
L 183.498644 86.500548 
L 184.584445 84.950927 
L 185.670246 84.805263 
L 186.756047 83.283535 
L 187.841849 82.545915 
L 188.92765 82.068632 
L 190.013451 81.101668 
L 191.099252 79.799987 
L 192.185053 78.210075 
L 193.270854 77.667708 
L 196.528258 75.541628 
L 198.69986 73.32257 
L 199.785661 72.863882 
L 200.871462 70.818382 
L 203.043065 69.569388 
L 204.128866 68.20882 
L 205.214667 68.022866 
L 206.300468 66.234603 
L 207.386269 65.896786 
L 208.472071 64.917425 
L 209.557872 64.36576 
L 210.643673 63.519667 
L 211.729474 63.277926 
L 212.815275 62.273772 
L 213.901076 61.647725 
L 214.986877 61.192136 
L 216.072679 61.003082 
L 217.15848 60.389432 
L 218.244281 60.064012 
L 219.330082 59.317094 
L 220.415883 59.143537 
L 221.501684 59.382178 
L 222.587486 58.864605 
L 223.673287 58.954483 
L 224.759088 58.768529 
L 225.844889 104.160031 
L 226.93069 107.43593 
L 228.016491 106.366691 
L 229.102292 106.258218 
L 230.188094 105.164185 
L 231.273895 105.337743 
L 232.359696 103.955481 
L 233.445497 104.175527 
L 234.531298 103.884198 
L 235.617099 102.613509 
L 236.702901 102.195111 
L 237.788702 101.940973 
L 238.874503 101.482285 
L 239.960304 100.499826 
L 242.131906 100.791154 
L 243.217708 99.839687 
L 245.38931 98.27457 
L 246.475111 98.339654 
L 247.560912 98.156799 
L 248.646713 97.248721 
L 249.732514 97.543149 
L 250.818316 97.326202 
L 251.904117 96.948094 
L 252.989918 97.013178 
L 254.075719 95.965634 
L 255.16152 96.071008 
L 256.247321 95.497649 
L 257.333123 95.308595 
L 258.418924 94.694945 
L 259.504725 95.240412 
L 260.590526 95.029663 
L 261.676327 94.01931 
L 262.762128 93.89844 
L 263.847929 93.235202 
L 264.933731 93.393263 
L 266.019532 92.674239 
L 268.191134 92.522376 
L 269.276935 92.317826 
L 270.362736 91.790955 
L 271.448538 91.995505 
L 272.534339 90.644235 
L 273.62014 91.059534 
L 274.705941 91.152511 
L 275.791742 89.39834 
L 276.877543 90.876678 
L 277.963344 89.84773 
L 279.049146 89.447928 
L 280.134947 89.429332 
L 281.220748 87.994383 
L 282.306549 88.577041 
L 283.39235 88.025376 
L 284.478151 87.734047 
L 285.563953 87.039816 
L 286.649754 86.516045 
L 287.735555 86.968534 
L 288.821356 86.810473 
L 289.907157 86.432365 
L 290.992958 85.704043 
L 292.07876 85.586272 
L 293.164561 84.904439 
L 294.250362 84.746377 
L 295.336163 84.802164 
L 296.421964 83.87549 
L 297.507765 83.584161 
L 298.593566 83.091382 
L 299.679368 82.257686 
L 300.765169 82.273182 
L 301.85097 81.706021 
L 302.936771 81.891975 
L 304.022572 81.541761 
L 305.108373 81.981853 
L 306.194175 80.742156 
L 307.279976 80.075819 
L 308.365777 80.339255 
L 309.451578 79.527253 
L 310.537379 79.691513 
L 311.62318 78.309251 
L 312.708981 78.092304 
L 313.794783 78.417725 
L 314.880584 77.212119 
L 315.966385 77.522043 
L 317.052186 76.75963 
L 318.137987 76.691447 
L 319.223788 74.583962 
L 320.30959 75.371169 
L 321.395391 74.134572 
L 322.481192 73.688281 
L 323.566993 73.843243 
L 324.652794 72.885577 
L 326.824396 72.553958 
L 327.910198 71.624185 
L 328.995999 71.881423 
L 331.167601 69.959892 
L 332.253402 70.05287 
L 333.339203 69.504304 
L 334.425005 69.27496 
L 335.510806 68.273905 
L 336.596607 68.156133 
L 337.682408 67.511491 
L 338.768209 66.594115 
L 339.85401 66.671596 
L 340.939811 65.546571 
L 343.111414 64.942219 
L 344.197215 64.220096 
L 345.283016 63.863683 
L 347.454618 62.162199 
L 348.54042 62.208687 
L 349.626221 61.185937 
L 351.797823 60.733448 
L 352.883624 60.101203 
L 353.969425 59.698301 
L 355.055227 59.168331 
L 356.141028 58.278848 
L 357.226829 58.554681 
L 358.31263 57.972023 
L 359.398431 56.747823 
L 361.570033 55.644492 
L 362.655835 55.988508 
L 363.741636 55.086629 
L 364.827437 54.410994 
L 365.913238 53.568 
L 369.170642 55.526721 
L 370.256443 56.899685 
L 371.342244 58.8832 
L 372.428045 60.501005 
L 373.513846 61.505159 
L 374.599647 61.409083 
L 375.685448 61.588839 
L 376.77125 61.343999 
L 377.857051 61.390487 
L 378.942852 61.635328 
L 380.028653 61.601236 
L 381.114454 62.019634 
L 382.200255 62.007237 
L 383.286057 62.354352 
L 384.371858 61.58574 
L 385.457659 62.543406 
L 386.54346 63.05788 
L 387.629261 61.963847 
L 388.715062 62.633284 
L 389.800863 62.456627 
L 390.886665 61.629129 
L 391.972466 61.892565 
L 393.058267 62.661177 
L 394.144068 63.153956 
L 395.229869 62.072321 
L 398.487273 63.135361 
L 398.487273 63.135361 
" clip-path="url(#p4a068a5ffb)" style="fill: none; stroke: #1f77b4; stroke-width: 1.5; stroke-linecap: square"/>
   </g>
   <g id="line2d_20">
    <path d="M 73.832727 272.853437 
L 74.918528 248.072446 
L 76.00433 240.64743 
L 77.090131 213.948311 
L 78.175932 209.586114 
L 79.261733 199.407655 
L 80.347534 191.240137 
L 81.433335 181.525741 
L 82.519137 181.216366 
L 83.604938 170.419155 
L 84.690739 168.934152 
L 86.862341 161.756637 
L 87.948142 155.940374 
L 89.033943 149.474423 
L 90.119745 149.319735 
L 91.205546 146.380666 
L 92.291347 142.296908 
L 93.377148 141.523468 
L 94.462949 141.24503 
L 95.54875 177.875109 
L 96.634552 172.584785 
L 97.720353 168.439151 
L 98.806154 170.419155 
L 99.891955 163.025077 
L 100.977756 161.632886 
L 102.063557 163.48914 
L 103.149358 159.591007 
L 104.23516 153.248806 
L 105.320961 155.352561 
L 106.406762 151.640053 
L 107.492563 146.628167 
L 108.578364 145.916603 
L 109.664165 148.515358 
L 110.749967 143.658161 
L 111.835768 141.028467 
L 112.921569 141.770969 
L 114.00737 134.438766 
L 115.093171 137.903773 
L 116.178972 133.355951 
L 117.264773 128.03469 
L 118.350575 127.725314 
L 120.522177 123.45593 
L 121.607978 121.785301 
L 122.693779 118.691545 
L 123.77958 118.691545 
L 124.865382 115.814351 
L 127.036984 113.215596 
L 128.122785 112.132781 
L 129.208586 110.524027 
L 130.294387 109.967151 
L 131.380189 107.987147 
L 132.46599 107.770584 
L 133.551791 106.316518 
L 134.637592 106.471206 
L 135.723393 105.697767 
L 136.809194 105.821517 
L 137.894995 105.388391 
L 138.980797 144.895663 
L 140.066598 145.730977 
L 141.152399 143.53441 
L 142.2382 141.709094 
L 143.324001 143.441598 
L 144.409802 147.432544 
L 145.495604 147.556294 
L 146.581405 143.503473 
L 147.667206 136.944709 
L 148.753007 139.295964 
L 149.838808 134.315016 
L 150.924609 130.44782 
L 152.01041 134.25314 
L 153.096212 130.850008 
L 154.182013 143.812848 
L 155.267814 130.664383 
L 156.353615 134.871892 
L 157.439416 126.642499 
L 158.525217 137.903773 
L 159.611019 130.540633 
L 160.69682 134.25314 
L 161.782621 129.395943 
L 162.868422 132.242199 
L 163.954223 130.045631 
L 165.040024 125.250309 
L 166.125825 128.096565 
L 167.211627 122.18749 
L 168.297428 125.095621 
L 169.383229 123.517805 
L 170.46903 126.209373 
L 171.554831 121.661551 
L 173.726434 120.980925 
L 174.812235 122.063739 
L 175.898036 123.394055 
L 176.983837 120.857174 
L 178.069638 118.010918 
L 179.155439 119.557797 
L 180.24124 113.277471 
L 181.327042 119.434046 
L 182.412843 116.185602 
L 183.498644 114.762474 
L 184.584445 113.803409 
L 185.670246 111.142779 
L 186.756047 116.773416 
L 187.841849 112.658719 
L 188.92765 111.514029 
L 190.013451 106.007143 
L 191.099252 108.513085 
L 192.185053 107.275583 
L 193.270854 107.05902 
L 194.356656 103.099011 
L 195.442457 104.986203 
L 196.528258 104.058076 
L 197.614059 103.7487 
L 198.69986 103.655888 
L 199.785661 102.325572 
L 200.871462 100.531193 
L 201.957264 101.861509 
L 203.043065 97.561187 
L 204.128866 98.953378 
L 205.214667 98.241814 
L 206.300468 99.881505 
L 207.386269 96.602123 
L 208.472071 96.50931 
L 209.557872 95.209932 
L 210.643673 96.571185 
L 211.729474 94.405555 
L 212.815275 94.683993 
L 213.901076 95.673996 
L 214.986877 93.693991 
L 216.072679 93.508366 
L 217.15848 94.498368 
L 218.244281 93.879617 
L 220.415883 93.353678 
L 222.587486 93.539303 
L 223.673287 93.291803 
L 224.759088 93.477428 
L 225.844889 138.95565 
L 226.93069 142.637221 
L 228.016491 139.543464 
L 229.102292 132.86095 
L 230.188094 140.409716 
L 231.273895 142.977534 
L 232.359696 139.698152 
L 233.445497 135.521581 
L 235.617099 130.045631 
L 236.702901 131.870948 
L 237.788702 132.520637 
L 238.874503 131.375947 
L 239.960304 128.591566 
L 242.131906 139.543464 
L 243.217708 140.935655 
L 244.303509 131.901885 
L 245.38931 125.961873 
L 246.475111 151.021301 
L 247.560912 130.880946 
L 248.646713 125.652497 
L 249.732514 125.86906 
L 250.818316 132.118448 
L 251.904117 134.222203 
L 252.989918 134.469703 
L 254.075719 126.704374 
L 255.16152 131.252197 
L 256.247321 129.612506 
L 257.333123 126.054685 
L 258.418924 121.785301 
L 259.504725 125.219371 
L 260.590526 126.735312 
L 261.676327 124.47687 
L 262.762128 126.766249 
L 263.847929 123.672493 
L 264.933731 126.456874 
L 266.019532 120.795299 
L 267.105333 130.540633 
L 268.191134 125.930935 
L 269.276935 127.1375 
L 270.362736 120.826237 
L 271.448538 128.096565 
L 272.534339 122.713428 
L 273.62014 125.528747 
L 274.705941 122.899054 
L 275.791742 117.949043 
L 276.877543 116.556853 
L 277.963344 127.01375 
L 279.049146 121.661551 
L 280.134947 125.807185 
L 281.220748 119.89811 
L 282.306549 126.271248 
L 283.39235 116.742478 
L 284.478151 117.361229 
L 285.563953 123.517805 
L 286.649754 116.216539 
L 287.735555 122.929991 
L 288.821356 118.784357 
L 289.907157 122.960929 
L 290.992958 118.75342 
L 292.07876 127.477813 
L 293.164561 123.394055 
L 294.250362 127.941877 
L 295.336163 120.207485 
L 296.421964 115.474038 
L 297.507765 115.504975 
L 298.593566 118.072793 
L 299.679368 110.86434 
L 301.85097 118.474982 
L 302.936771 118.815295 
L 304.022572 110.49309 
L 305.108373 111.204654 
L 306.194175 109.812463 
L 307.279976 115.381225 
L 308.365777 110.554965 
L 309.451578 111.730592 
L 310.537379 114.607786 
L 311.62318 110.245589 
L 312.708981 106.904332 
L 313.794783 107.708709 
L 314.880584 109.441212 
L 315.966385 108.636836 
L 317.052186 107.523083 
L 318.137987 108.977149 
L 319.223788 110.771528 
L 320.30959 106.285581 
L 321.395391 106.316518 
L 322.481192 106.564019 
L 323.566993 110.833403 
L 324.652794 104.398389 
L 325.738595 103.099011 
L 326.824396 105.202766 
L 327.910198 108.946211 
L 328.995999 103.841513 
L 330.0818 109.688713 
L 332.253402 104.181826 
L 333.339203 104.522139 
L 334.425005 106.966207 
L 335.510806 103.532137 
L 336.596607 99.572129 
L 337.682408 99.634004 
L 338.768209 108.420273 
L 339.85401 101.675883 
L 340.939811 104.738702 
L 342.025613 105.264641 
L 343.111414 98.644002 
L 344.197215 100.31463 
L 345.283016 97.499312 
L 346.368817 97.406499 
L 348.54042 98.551189 
L 349.626221 95.704933 
L 350.712022 94.34368 
L 352.883624 94.683993 
L 353.969425 97.004311 
L 355.055227 94.374618 
L 356.141028 92.085238 
L 357.226829 94.065242 
L 358.31263 95.673996 
L 359.398431 95.333682 
L 360.484232 91.961488 
L 361.570033 93.229928 
L 362.655835 92.95149 
L 364.827437 92.765864 
L 365.913238 93.384616 
L 366.999039 90.90961 
L 368.08484 92.920552 
L 369.170642 91.435549 
L 370.256443 95.673996 
L 371.342244 97.004311 
L 372.428045 100.778694 
L 373.513846 95.890558 
L 374.599647 99.881505 
L 375.685448 99.94338 
L 376.77125 100.809632 
L 377.857051 97.623062 
L 378.942852 97.994313 
L 380.028653 100.624006 
L 381.114454 99.788692 
L 382.200255 103.006199 
L 383.286057 100.562131 
L 384.371858 102.758698 
L 385.457659 100.778694 
L 386.54346 99.664942 
L 387.629261 100.06713 
L 388.715062 99.262753 
L 389.800863 100.624006 
L 390.886665 99.262753 
L 391.972466 101.614008 
L 393.058267 99.974317 
L 394.144068 97.870563 
L 395.229869 99.664942 
L 396.31567 102.573073 
L 397.401472 100.31463 
L 398.487273 105.295579 
L 398.487273 105.295579 
" clip-path="url(#p4a068a5ffb)" style="fill: none; stroke: #ff7f0e; stroke-width: 1.5; stroke-linecap: square"/>
   </g>
   <g id="line2d_21">
    <path d="M 73.832727 295.488 
L 74.918528 285.69466 
L 76.00433 281.192711 
L 78.175932 271.122 
L 79.261733 273.212952 
L 80.347534 266.876085 
L 81.433335 263.825001 
L 82.519137 268.006907 
L 83.604938 262.950215 
L 84.690739 256.826711 
L 85.77654 257.338781 
L 86.862341 259.749777 
L 87.948142 255.567872 
L 89.033943 252.431442 
L 90.119745 253.5836 
L 91.205546 252.858168 
L 92.291347 250.404499 
L 93.377148 251.471311 
L 94.462949 251.129931 
L 95.54875 264.977159 
L 96.634552 262.160774 
L 97.720353 259.984476 
L 98.806154 262.651507 
L 100.977756 253.775626 
L 102.063557 260.411201 
L 103.149358 257.040073 
L 104.23516 254.223688 
L 105.320961 256.207959 
L 106.406762 253.306229 
L 107.492563 247.076043 
L 108.578364 252.858168 
L 109.664165 260.98728 
L 110.749967 245.475824 
L 111.835768 247.033371 
L 112.921569 253.327565 
L 114.00737 245.987894 
L 115.093171 247.801476 
L 116.178972 243.27819 
L 117.264773 240.099089 
L 118.350575 243.427544 
L 119.436376 242.25405 
L 121.607978 238.434861 
L 122.693779 237.154686 
L 123.77958 236.535934 
L 124.865382 232.823426 
L 127.036984 231.009845 
L 128.122785 234.359637 
L 129.208586 232.183339 
L 130.294387 230.455102 
L 131.380189 229.2176 
L 132.46599 229.964369 
L 133.551791 228.982901 
L 134.637592 229.345617 
L 135.723393 229.964369 
L 136.809194 229.72967 
L 137.894995 229.72967 
L 138.980797 247.502768 
L 140.066598 247.374751 
L 141.152399 251.065922 
L 142.2382 246.371947 
L 143.324001 253.135539 
L 144.409802 250.895232 
L 145.495604 251.770019 
L 146.581405 244.98509 
L 147.667206 247.204061 
L 148.753007 250.895232 
L 149.838808 243.61957 
L 150.924609 232.567391 
L 152.01041 248.612253 
L 153.096212 239.52301 
L 154.182013 249.764411 
L 155.267814 242.104696 
L 156.353615 243.086164 
L 157.439416 238.861586 
L 158.525217 248.398891 
L 159.611019 237.026668 
L 160.69682 243.854269 
L 161.782621 234.829034 
L 162.868422 241.848661 
L 163.954223 240.824521 
L 165.040024 240.71784 
L 166.125825 238.925595 
L 167.211627 232.738081 
L 168.297428 239.138957 
L 169.383229 234.487654 
L 170.46903 231.799286 
L 171.554831 231.223208 
L 172.640632 239.437665 
L 173.726434 238.754905 
L 174.812235 232.951444 
L 175.898036 237.922791 
L 176.983837 239.480337 
L 178.069638 228.150787 
L 179.155439 232.311356 
L 180.24124 220.768444 
L 181.327042 231.308553 
L 182.412843 229.068246 
L 183.498644 230.497775 
L 184.584445 232.908771 
L 185.670246 229.793679 
L 186.756047 229.238936 
L 187.841849 230.07105 
L 188.92765 231.073854 
L 190.013451 222.475344 
L 191.099252 224.096899 
L 192.185053 221.728575 
L 193.270854 227.34001 
L 194.356656 220.384391 
L 195.442457 226.593241 
L 196.528258 221.64323 
L 197.614059 223.755519 
L 198.69986 220.363055 
L 199.785661 218.634819 
L 200.871462 221.685903 
L 203.043065 215.114337 
L 204.128866 218.933526 
L 205.214667 213.919507 
L 206.300468 222.987414 
L 207.386269 216.287831 
L 208.472071 214.239551 
L 209.557872 212.617995 
L 210.643673 211.84989 
L 211.729474 210.676396 
L 212.815275 214.218214 
L 213.901076 215.093001 
L 214.986877 212.19127 
L 216.072679 209.780274 
L 217.15848 210.249671 
L 218.244281 211.6792 
L 219.330082 211.444501 
L 220.415883 210.911095 
L 221.501684 210.612388 
L 222.587486 211.636528 
L 223.673287 210.697733 
L 224.759088 210.612388 
L 225.844889 241.763316 
L 226.93069 246.755999 
L 228.016491 246.457292 
L 229.102292 239.907062 
L 230.188094 244.899745 
L 231.273895 244.409012 
L 232.359696 243.043491 
L 233.445497 238.648223 
L 234.531298 231.564588 
L 235.617099 233.740885 
L 236.702901 233.420842 
L 237.788702 239.288311 
L 238.874503 240.312451 
L 239.960304 235.533131 
L 242.131906 249.551048 
L 243.217708 249.337686 
L 244.303509 239.053612 
L 245.38931 230.028377 
L 246.475111 255.546535 
L 247.560912 241.848661 
L 248.646713 232.503383 
L 249.732514 238.114817 
L 250.818316 245.027763 
L 251.904117 243.470216 
L 252.989918 242.382068 
L 254.075719 235.874511 
L 255.16152 247.950829 
L 256.247321 235.213087 
L 257.333123 235.725157 
L 258.418924 236.983996 
L 259.504725 236.386581 
L 260.590526 234.85037 
L 261.676327 240.440469 
L 262.762128 238.434861 
L 263.847929 231.052518 
L 264.933731 241.336591 
L 266.019532 232.908771 
L 267.105333 241.549954 
L 268.191134 236.407917 
L 269.276935 233.548859 
L 270.362736 232.033985 
L 271.448538 244.259658 
L 272.534339 232.546055 
L 273.62014 232.503383 
L 274.705941 234.039593 
L 275.791742 228.428158 
L 276.877543 229.04691 
L 277.963344 230.284412 
L 279.049146 236.343908 
L 281.220748 237.688092 
L 282.306549 239.202966 
L 283.39235 231.564588 
L 284.478151 235.02106 
L 285.563953 230.263076 
L 286.649754 229.665661 
L 287.735555 239.629691 
L 288.821356 229.985705 
L 289.907157 233.762222 
L 290.992958 223.819528 
L 292.07876 238.413525 
L 294.250362 242.552758 
L 295.336163 236.578607 
L 296.421964 224.160908 
L 297.507765 230.049714 
L 298.593566 230.967173 
L 299.679368 217.269298 
L 300.765169 225.483756 
L 301.85097 228.19346 
L 302.936771 232.524719 
L 304.022572 224.800996 
L 305.108373 223.328794 
L 306.194175 223.392803 
L 307.279976 227.233328 
L 308.365777 227.638717 
L 309.451578 225.803799 
L 310.537379 225.291729 
L 311.62318 230.668465 
L 312.708981 215.989123 
L 313.794783 220.4484 
L 314.880584 228.214796 
L 315.966385 225.227721 
L 317.052186 230.58312 
L 318.137987 229.153591 
L 319.223788 226.273197 
L 320.30959 222.027283 
L 321.395391 228.278805 
L 322.481192 226.251861 
L 323.566993 227.211992 
L 324.652794 219.061544 
L 325.738595 217.525333 
L 326.824396 221.536549 
L 327.910198 222.603362 
L 328.995999 218.848181 
L 330.0818 226.849276 
L 331.167601 223.52082 
L 332.253402 222.539353 
L 333.339203 224.886341 
L 334.425005 223.499484 
L 335.510806 224.608969 
L 336.596607 220.043011 
L 337.682408 210.463034 
L 338.768209 226.593241 
L 339.85401 219.872321 
L 340.939811 223.00875 
L 342.025613 220.917798 
L 343.111414 215.818433 
L 344.197215 217.866713 
L 345.283016 216.394512 
L 346.368817 218.613482 
L 348.54042 213.599463 
L 349.626221 213.55679 
L 350.712022 210.99644 
L 351.797823 210.761741 
L 352.883624 218.186757 
L 356.141028 210.633724 
L 358.31263 214.282223 
L 359.398431 214.004852 
L 360.484232 209.780274 
L 361.570033 210.014973 
L 362.655835 208.841479 
L 363.741636 210.868423 
L 364.827437 211.956572 
L 365.913238 213.514118 
L 366.999039 208.628116 
L 368.08484 209.588248 
L 369.170642 209.652256 
L 370.256443 212.319288 
L 371.342244 212.639332 
L 372.428045 218.634819 
L 373.513846 209.758938 
L 374.599647 212.767349 
L 376.77125 217.247962 
L 377.857051 212.212607 
L 378.942852 215.541062 
L 380.028653 213.919507 
L 381.114454 214.815629 
L 382.200255 221.024479 
L 383.286057 219.722967 
L 384.371858 222.859397 
L 385.457659 219.08288 
L 386.54346 217.952058 
L 387.629261 213.258083 
L 388.715062 216.266495 
L 389.800863 214.410241 
L 390.886665 216.906582 
L 391.972466 226.273197 
L 393.058267 212.852694 
L 394.144068 216.501193 
L 395.229869 222.66737 
L 396.31567 216.714556 
L 397.401472 216.266495 
L 398.487273 222.197973 
L 398.487273 222.197973 
" clip-path="url(#p4a068a5ffb)" style="fill: none; stroke: #2ca02c; stroke-width: 1.5; stroke-linecap: square"/>
   </g>
   <g id="line2d_22">
    <path d="M 368.08484 93.106178 
L 369.170642 95.302745 
L 370.256443 93.415553 
L 371.342244 95.859621 
L 372.428045 99.417441 
L 374.599647 96.725873 
L 375.685448 98.118063 
L 376.77125 98.210876 
L 377.857051 102.882448 
L 378.942852 103.841513 
L 380.028653 102.727761 
L 381.114454 102.789636 
L 382.200255 104.150889 
L 383.286057 108.296522 
L 384.371858 107.646834 
L 385.457659 104.707765 
L 386.54346 123.208429 
L 387.629261 110.183714 
L 388.715062 111.019028 
L 389.800863 110.678715 
L 390.886665 113.772472 
L 391.972466 113.958097 
L 393.058267 125.86906 
L 394.144068 117.48498 
L 395.229869 130.540633 
L 396.31567 125.219371 
L 397.401472 134.191265 
L 398.487273 133.789077 
L 398.487273 133.789077 
" clip-path="url(#p4a068a5ffb)" style="fill: none; stroke: #d62728; stroke-width: 1.5; stroke-linecap: square"/>
   </g>
   <g id="line2d_23">
    <path d="M 368.08484 209.502903 
L 369.170642 213.172738 
L 370.256443 209.950964 
L 371.342244 211.16713 
L 372.428045 214.495586 
L 373.513846 212.682004 
L 374.599647 212.895367 
L 375.685448 211.551183 
L 376.77125 210.633724 
L 377.857051 212.319288 
L 378.942852 212.831358 
L 380.028653 217.930722 
L 381.114454 218.250766 
L 382.200255 217.674687 
L 383.286057 225.099703 
L 384.371858 217.055936 
L 385.457659 216.479857 
L 386.54346 236.941323 
L 387.629261 226.934621 
L 388.715062 220.320383 
L 389.800863 225.419747 
L 390.886665 223.456812 
L 391.972466 219.914994 
L 393.058267 235.405113 
L 394.144068 225.355738 
L 395.229869 234.914379 
L 396.31567 230.455102 
L 397.401472 242.232714 
L 398.487273 237.64542 
L 398.487273 237.64542 
" clip-path="url(#p4a068a5ffb)" style="fill: none; stroke: #9467bd; stroke-width: 1.5; stroke-linecap: square"/>
   </g>
   <g id="patch_3">
    <path d="M 57.6 307.584 
L 57.6 41.472 
" style="fill: none; stroke: #000000; stroke-width: 0.8; stroke-linejoin: miter; stroke-linecap: square"/>
   </g>
   <g id="patch_4">
    <path d="M 414.72 307.584 
L 414.72 41.472 
" style="fill: none; stroke: #000000; stroke-width: 0.8; stroke-linejoin: miter; stroke-linecap: square"/>
   </g>
   <g id="patch_5">
    <path d="M 57.6 307.584 
L 414.72 307.584 
" style="fill: none; stroke: #000000; stroke-width: 0.8; stroke-linejoin: miter; stroke-linecap: square"/>
   </g>
   <g id="patch_6">
    <path d="M 57.6 41.472 
L 414.72 41.472 
" style="fill: none; stroke: #000000; stroke-width: 0.8; stroke-linejoin: miter; stroke-linecap: square"/>
   </g>
   <g id="text_21">
    <!-- Learning Curves -->
    <g transform="translate(187.37625 35.472) scale(0.12 -0.12)">
     <defs>
      <path id="DejaVuSans-4c" d="M 628 4666 
L 1259 4666 
L 1259 531 
L 3531 531 
L 3531 0 
L 628 0 
L 628 4666 
z
" transform="scale(0.015625)"/>
      <path id="DejaVuSans-65" d="M 3597 1894 
L 3597 1613 
L 953 1613 
Q 991 1019 1311 708 
Q 1631 397 2203 397 
Q 2534 397 2845 478 
Q 3156 559 3463 722 
L 3463 178 
Q 3153 47 2828 -22 
Q 2503 -91 2169 -91 
Q 1331 -91 842 396 
Q 353 884 353 1716 
Q 353 2575 817 3079 
Q 1281 3584 2069 3584 
Q 2775 3584 3186 3129 
Q 3597 2675 3597 1894 
z
M 3022 2063 
Q 3016 2534 2758 2815 
Q 2500 3097 2075 3097 
Q 1594 3097 1305 2825 
Q 1016 2553 972 2059 
L 3022 2063 
z
" transform="scale(0.015625)"/>
      <path id="DejaVuSans-6e" d="M 3513 2113 
L 3513 0 
L 2938 0 
L 2938 2094 
Q 2938 2591 2744 2837 
Q 2550 3084 2163 3084 
Q 1697 3084 1428 2787 
Q 1159 2491 1159 1978 
L 1159 0 
L 581 0 
L 581 3500 
L 1159 3500 
L 1159 2956 
Q 1366 3272 1645 3428 
Q 1925 3584 2291 3584 
Q 2894 3584 3203 3211 
Q 3513 2838 3513 2113 
z
" transform="scale(0.015625)"/>
      <path id="DejaVuSans-69" d="M 603 3500 
L 1178 3500 
L 1178 0 
L 603 0 
L 603 3500 
z
M 603 4863 
L 1178 4863 
L 1178 4134 
L 603 4134 
L 603 4863 
z
" transform="scale(0.015625)"/>
      <path id="DejaVuSans-67" d="M 2906 1791 
Q 2906 2416 2648 2759 
Q 2391 3103 1925 3103 
Q 1463 3103 1205 2759 
Q 947 2416 947 1791 
Q 947 1169 1205 825 
Q 1463 481 1925 481 
Q 2391 481 2648 825 
Q 2906 1169 2906 1791 
z
M 3481 434 
Q 3481 -459 3084 -895 
Q 2688 -1331 1869 -1331 
Q 1566 -1331 1297 -1286 
Q 1028 -1241 775 -1147 
L 775 -588 
Q 1028 -725 1275 -790 
Q 1522 -856 1778 -856 
Q 2344 -856 2625 -561 
Q 2906 -266 2906 331 
L 2906 616 
Q 2728 306 2450 153 
Q 2172 0 1784 0 
Q 1141 0 747 490 
Q 353 981 353 1791 
Q 353 2603 747 3093 
Q 1141 3584 1784 3584 
Q 2172 3584 2450 3431 
Q 2728 3278 2906 2969 
L 2906 3500 
L 3481 3500 
L 3481 434 
z
" transform="scale(0.015625)"/>
      <path id="DejaVuSans-20" transform="scale(0.015625)"/>
      <path id="DejaVuSans-43" d="M 4122 4306 
L 4122 3641 
Q 3803 3938 3442 4084 
Q 3081 4231 2675 4231 
Q 1875 4231 1450 3742 
Q 1025 3253 1025 2328 
Q 1025 1406 1450 917 
Q 1875 428 2675 428 
Q 3081 428 3442 575 
Q 3803 722 4122 1019 
L 4122 359 
Q 3791 134 3420 21 
Q 3050 -91 2638 -91 
Q 1578 -91 968 557 
Q 359 1206 359 2328 
Q 359 3453 968 4101 
Q 1578 4750 2638 4750 
Q 3056 4750 3426 4639 
Q 3797 4528 4122 4306 
z
" transform="scale(0.015625)"/>
      <path id="DejaVuSans-76" d="M 191 3500 
L 800 3500 
L 1894 563 
L 2988 3500 
L 3597 3500 
L 2284 0 
L 1503 0 
L 191 3500 
z
" transform="scale(0.015625)"/>
     </defs>
     <use xlink:href="#DejaVuSans-4c"/>
     <use xlink:href="#DejaVuSans-65" x="53.962891"/>
     <use xlink:href="#DejaVuSans-61" x="115.486328"/>
     <use xlink:href="#DejaVuSans-72" x="176.765625"/>
     <use xlink:href="#DejaVuSans-6e" x="216.128906"/>
     <use xlink:href="#DejaVuSans-69" x="279.507812"/>
     <use xlink:href="#DejaVuSans-6e" x="307.291016"/>
     <use xlink:href="#DejaVuSans-67" x="370.669922"/>
     <use xlink:href="#DejaVuSans-20" x="434.146484"/>
     <use xlink:href="#DejaVuSans-43" x="465.933594"/>
     <use xlink:href="#DejaVuSans-75" x="535.757812"/>
     <use xlink:href="#DejaVuSans-72" x="599.136719"/>
     <use xlink:href="#DejaVuSans-76" x="640.25"/>
     <use xlink:href="#DejaVuSans-65" x="699.429688"/>
     <use xlink:href="#DejaVuSans-73" x="760.953125"/>
    </g>
   </g>
   <g id="legend_1">
    <g id="patch_7">
     <path d="M 139.394375 212.723313 
L 332.925625 212.723313 
Q 334.925625 212.723313 334.925625 210.723313 
L 334.925625 138.332688 
Q 334.925625 136.332688 332.925625 136.332688 
L 139.394375 136.332688 
Q 137.394375 136.332688 137.394375 138.332688 
L 137.394375 210.723313 
Q 137.394375 212.723313 139.394375 212.723313 
z
" style="fill: #ffffff; opacity: 0.8; stroke: #cccccc; stroke-linejoin: miter"/>
    </g>
    <g id="line2d_24">
     <path d="M 141.394375 144.431125 
L 151.394375 144.431125 
L 161.394375 144.431125 
" style="fill: none; stroke: #1f77b4; stroke-width: 1.5; stroke-linecap: square"/>
    </g>
    <g id="text_22">
     <!-- Train Accuracy -->
     <g transform="translate(169.394375 147.931125) scale(0.1 -0.1)">
      <defs>
       <path id="DejaVuSans-54" d="M -19 4666 
L 3928 4666 
L 3928 4134 
L 2272 4134 
L 2272 0 
L 1638 0 
L 1638 4134 
L -19 4134 
L -19 4666 
z
" transform="scale(0.015625)"/>
      </defs>
      <use xlink:href="#DejaVuSans-54"/>
      <use xlink:href="#DejaVuSans-72" x="46.333984"/>
      <use xlink:href="#DejaVuSans-61" x="87.447266"/>
      <use xlink:href="#DejaVuSans-69" x="148.726562"/>
      <use xlink:href="#DejaVuSans-6e" x="176.509766"/>
      <use xlink:href="#DejaVuSans-20" x="239.888672"/>
      <use xlink:href="#DejaVuSans-41" x="271.675781"/>
      <use xlink:href="#DejaVuSans-63" x="338.333984"/>
      <use xlink:href="#DejaVuSans-63" x="393.314453"/>
      <use xlink:href="#DejaVuSans-75" x="448.294922"/>
      <use xlink:href="#DejaVuSans-72" x="511.673828"/>
      <use xlink:href="#DejaVuSans-61" x="552.787109"/>
      <use xlink:href="#DejaVuSans-63" x="614.066406"/>
      <use xlink:href="#DejaVuSans-79" x="669.046875"/>
     </g>
    </g>
    <g id="line2d_25">
     <path d="M 141.394375 159.10925 
L 151.394375 159.10925 
L 161.394375 159.10925 
" style="fill: none; stroke: #ff7f0e; stroke-width: 1.5; stroke-linecap: square"/>
    </g>
    <g id="text_23">
     <!-- Validation Accuracy -->
     <g transform="translate(169.394375 162.60925) scale(0.1 -0.1)">
      <defs>
       <path id="DejaVuSans-56" d="M 1831 0 
L 50 4666 
L 709 4666 
L 2188 738 
L 3669 4666 
L 4325 4666 
L 2547 0 
L 1831 0 
z
" transform="scale(0.015625)"/>
       <path id="DejaVuSans-6c" d="M 603 4863 
L 1178 4863 
L 1178 0 
L 603 0 
L 603 4863 
z
" transform="scale(0.015625)"/>
       <path id="DejaVuSans-64" d="M 2906 2969 
L 2906 4863 
L 3481 4863 
L 3481 0 
L 2906 0 
L 2906 525 
Q 2725 213 2448 61 
Q 2172 -91 1784 -91 
Q 1150 -91 751 415 
Q 353 922 353 1747 
Q 353 2572 751 3078 
Q 1150 3584 1784 3584 
Q 2172 3584 2448 3432 
Q 2725 3281 2906 2969 
z
M 947 1747 
Q 947 1113 1208 752 
Q 1469 391 1925 391 
Q 2381 391 2643 752 
Q 2906 1113 2906 1747 
Q 2906 2381 2643 2742 
Q 2381 3103 1925 3103 
Q 1469 3103 1208 2742 
Q 947 2381 947 1747 
z
" transform="scale(0.015625)"/>
       <path id="DejaVuSans-74" d="M 1172 4494 
L 1172 3500 
L 2356 3500 
L 2356 3053 
L 1172 3053 
L 1172 1153 
Q 1172 725 1289 603 
Q 1406 481 1766 481 
L 2356 481 
L 2356 0 
L 1766 0 
Q 1100 0 847 248 
Q 594 497 594 1153 
L 594 3053 
L 172 3053 
L 172 3500 
L 594 3500 
L 594 4494 
L 1172 4494 
z
" transform="scale(0.015625)"/>
      </defs>
      <use xlink:href="#DejaVuSans-56"/>
      <use xlink:href="#DejaVuSans-61" x="60.658203"/>
      <use xlink:href="#DejaVuSans-6c" x="121.9375"/>
      <use xlink:href="#DejaVuSans-69" x="149.720703"/>
      <use xlink:href="#DejaVuSans-64" x="177.503906"/>
      <use xlink:href="#DejaVuSans-61" x="240.980469"/>
      <use xlink:href="#DejaVuSans-74" x="302.259766"/>
      <use xlink:href="#DejaVuSans-69" x="341.46875"/>
      <use xlink:href="#DejaVuSans-6f" x="369.251953"/>
      <use xlink:href="#DejaVuSans-6e" x="430.433594"/>
      <use xlink:href="#DejaVuSans-20" x="493.8125"/>
      <use xlink:href="#DejaVuSans-41" x="525.599609"/>
      <use xlink:href="#DejaVuSans-63" x="592.257812"/>
      <use xlink:href="#DejaVuSans-63" x="647.238281"/>
      <use xlink:href="#DejaVuSans-75" x="702.21875"/>
      <use xlink:href="#DejaVuSans-72" x="765.597656"/>
      <use xlink:href="#DejaVuSans-61" x="806.710938"/>
      <use xlink:href="#DejaVuSans-63" x="867.990234"/>
      <use xlink:href="#DejaVuSans-79" x="922.970703"/>
     </g>
    </g>
    <g id="line2d_26">
     <path d="M 141.394375 173.787375 
L 151.394375 173.787375 
L 161.394375 173.787375 
" style="fill: none; stroke: #2ca02c; stroke-width: 1.5; stroke-linecap: square"/>
    </g>
    <g id="text_24">
     <!-- Robust Validation Accuracy -->
     <g transform="translate(169.394375 177.287375) scale(0.1 -0.1)">
      <defs>
       <path id="DejaVuSans-52" d="M 2841 2188 
Q 3044 2119 3236 1894 
Q 3428 1669 3622 1275 
L 4263 0 
L 3584 0 
L 2988 1197 
Q 2756 1666 2539 1819 
Q 2322 1972 1947 1972 
L 1259 1972 
L 1259 0 
L 628 0 
L 628 4666 
L 2053 4666 
Q 2853 4666 3247 4331 
Q 3641 3997 3641 3322 
Q 3641 2881 3436 2590 
Q 3231 2300 2841 2188 
z
M 1259 4147 
L 1259 2491 
L 2053 2491 
Q 2509 2491 2742 2702 
Q 2975 2913 2975 3322 
Q 2975 3731 2742 3939 
Q 2509 4147 2053 4147 
L 1259 4147 
z
" transform="scale(0.015625)"/>
       <path id="DejaVuSans-62" d="M 3116 1747 
Q 3116 2381 2855 2742 
Q 2594 3103 2138 3103 
Q 1681 3103 1420 2742 
Q 1159 2381 1159 1747 
Q 1159 1113 1420 752 
Q 1681 391 2138 391 
Q 2594 391 2855 752 
Q 3116 1113 3116 1747 
z
M 1159 2969 
Q 1341 3281 1617 3432 
Q 1894 3584 2278 3584 
Q 2916 3584 3314 3078 
Q 3713 2572 3713 1747 
Q 3713 922 3314 415 
Q 2916 -91 2278 -91 
Q 1894 -91 1617 61 
Q 1341 213 1159 525 
L 1159 0 
L 581 0 
L 581 4863 
L 1159 4863 
L 1159 2969 
z
" transform="scale(0.015625)"/>
      </defs>
      <use xlink:href="#DejaVuSans-52"/>
      <use xlink:href="#DejaVuSans-6f" x="64.982422"/>
      <use xlink:href="#DejaVuSans-62" x="126.164062"/>
      <use xlink:href="#DejaVuSans-75" x="189.640625"/>
      <use xlink:href="#DejaVuSans-73" x="253.019531"/>
      <use xlink:href="#DejaVuSans-74" x="305.119141"/>
      <use xlink:href="#DejaVuSans-20" x="344.328125"/>
      <use xlink:href="#DejaVuSans-56" x="376.115234"/>
      <use xlink:href="#DejaVuSans-61" x="436.773438"/>
      <use xlink:href="#DejaVuSans-6c" x="498.052734"/>
      <use xlink:href="#DejaVuSans-69" x="525.835938"/>
      <use xlink:href="#DejaVuSans-64" x="553.619141"/>
      <use xlink:href="#DejaVuSans-61" x="617.095703"/>
      <use xlink:href="#DejaVuSans-74" x="678.375"/>
      <use xlink:href="#DejaVuSans-69" x="717.583984"/>
      <use xlink:href="#DejaVuSans-6f" x="745.367188"/>
      <use xlink:href="#DejaVuSans-6e" x="806.548828"/>
      <use xlink:href="#DejaVuSans-20" x="869.927734"/>
      <use xlink:href="#DejaVuSans-41" x="901.714844"/>
      <use xlink:href="#DejaVuSans-63" x="968.373047"/>
      <use xlink:href="#DejaVuSans-63" x="1023.353516"/>
      <use xlink:href="#DejaVuSans-75" x="1078.333984"/>
      <use xlink:href="#DejaVuSans-72" x="1141.712891"/>
      <use xlink:href="#DejaVuSans-61" x="1182.826172"/>
      <use xlink:href="#DejaVuSans-63" x="1244.105469"/>
      <use xlink:href="#DejaVuSans-79" x="1299.085938"/>
     </g>
    </g>
    <g id="line2d_27">
     <path d="M 141.394375 188.4655 
L 151.394375 188.4655 
L 161.394375 188.4655 
" style="fill: none; stroke: #d62728; stroke-width: 1.5; stroke-linecap: square"/>
    </g>
    <g id="text_25">
     <!-- SWA Validation Accuracy -->
     <g transform="translate(169.394375 191.9655) scale(0.1 -0.1)">
      <defs>
       <path id="DejaVuSans-53" d="M 3425 4513 
L 3425 3897 
Q 3066 4069 2747 4153 
Q 2428 4238 2131 4238 
Q 1616 4238 1336 4038 
Q 1056 3838 1056 3469 
Q 1056 3159 1242 3001 
Q 1428 2844 1947 2747 
L 2328 2669 
Q 3034 2534 3370 2195 
Q 3706 1856 3706 1288 
Q 3706 609 3251 259 
Q 2797 -91 1919 -91 
Q 1588 -91 1214 -16 
Q 841 59 441 206 
L 441 856 
Q 825 641 1194 531 
Q 1563 422 1919 422 
Q 2459 422 2753 634 
Q 3047 847 3047 1241 
Q 3047 1584 2836 1778 
Q 2625 1972 2144 2069 
L 1759 2144 
Q 1053 2284 737 2584 
Q 422 2884 422 3419 
Q 422 4038 858 4394 
Q 1294 4750 2059 4750 
Q 2388 4750 2728 4690 
Q 3069 4631 3425 4513 
z
" transform="scale(0.015625)"/>
       <path id="DejaVuSans-57" d="M 213 4666 
L 850 4666 
L 1831 722 
L 2809 4666 
L 3519 4666 
L 4500 722 
L 5478 4666 
L 6119 4666 
L 4947 0 
L 4153 0 
L 3169 4050 
L 2175 0 
L 1381 0 
L 213 4666 
z
" transform="scale(0.015625)"/>
      </defs>
      <use xlink:href="#DejaVuSans-53"/>
      <use xlink:href="#DejaVuSans-57" x="63.476562"/>
      <use xlink:href="#DejaVuSans-41" x="156.853516"/>
      <use xlink:href="#DejaVuSans-20" x="225.261719"/>
      <use xlink:href="#DejaVuSans-56" x="257.048828"/>
      <use xlink:href="#DejaVuSans-61" x="317.707031"/>
      <use xlink:href="#DejaVuSans-6c" x="378.986328"/>
      <use xlink:href="#DejaVuSans-69" x="406.769531"/>
      <use xlink:href="#DejaVuSans-64" x="434.552734"/>
      <use xlink:href="#DejaVuSans-61" x="498.029297"/>
      <use xlink:href="#DejaVuSans-74" x="559.308594"/>
      <use xlink:href="#DejaVuSans-69" x="598.517578"/>
      <use xlink:href="#DejaVuSans-6f" x="626.300781"/>
      <use xlink:href="#DejaVuSans-6e" x="687.482422"/>
      <use xlink:href="#DejaVuSans-20" x="750.861328"/>
      <use xlink:href="#DejaVuSans-41" x="782.648438"/>
      <use xlink:href="#DejaVuSans-63" x="849.306641"/>
      <use xlink:href="#DejaVuSans-63" x="904.287109"/>
      <use xlink:href="#DejaVuSans-75" x="959.267578"/>
      <use xlink:href="#DejaVuSans-72" x="1022.646484"/>
      <use xlink:href="#DejaVuSans-61" x="1063.759766"/>
      <use xlink:href="#DejaVuSans-63" x="1125.039062"/>
      <use xlink:href="#DejaVuSans-79" x="1180.019531"/>
     </g>
    </g>
    <g id="line2d_28">
     <path d="M 141.394375 203.143625 
L 151.394375 203.143625 
L 161.394375 203.143625 
" style="fill: none; stroke: #9467bd; stroke-width: 1.5; stroke-linecap: square"/>
    </g>
    <g id="text_26">
     <!-- SWA Robust Validation Accuracy -->
     <g transform="translate(169.394375 206.643625) scale(0.1 -0.1)">
      <use xlink:href="#DejaVuSans-53"/>
      <use xlink:href="#DejaVuSans-57" x="63.476562"/>
      <use xlink:href="#DejaVuSans-41" x="156.853516"/>
      <use xlink:href="#DejaVuSans-20" x="225.261719"/>
      <use xlink:href="#DejaVuSans-52" x="257.048828"/>
      <use xlink:href="#DejaVuSans-6f" x="322.03125"/>
      <use xlink:href="#DejaVuSans-62" x="383.212891"/>
      <use xlink:href="#DejaVuSans-75" x="446.689453"/>
      <use xlink:href="#DejaVuSans-73" x="510.068359"/>
      <use xlink:href="#DejaVuSans-74" x="562.167969"/>
      <use xlink:href="#DejaVuSans-20" x="601.376953"/>
      <use xlink:href="#DejaVuSans-56" x="633.164062"/>
      <use xlink:href="#DejaVuSans-61" x="693.822266"/>
      <use xlink:href="#DejaVuSans-6c" x="755.101562"/>
      <use xlink:href="#DejaVuSans-69" x="782.884766"/>
      <use xlink:href="#DejaVuSans-64" x="810.667969"/>
      <use xlink:href="#DejaVuSans-61" x="874.144531"/>
      <use xlink:href="#DejaVuSans-74" x="935.423828"/>
      <use xlink:href="#DejaVuSans-69" x="974.632812"/>
      <use xlink:href="#DejaVuSans-6f" x="1002.416016"/>
      <use xlink:href="#DejaVuSans-6e" x="1063.597656"/>
      <use xlink:href="#DejaVuSans-20" x="1126.976562"/>
      <use xlink:href="#DejaVuSans-41" x="1158.763672"/>
      <use xlink:href="#DejaVuSans-63" x="1225.421875"/>
      <use xlink:href="#DejaVuSans-63" x="1280.402344"/>
      <use xlink:href="#DejaVuSans-75" x="1335.382812"/>
      <use xlink:href="#DejaVuSans-72" x="1398.761719"/>
      <use xlink:href="#DejaVuSans-61" x="1439.875"/>
      <use xlink:href="#DejaVuSans-63" x="1501.154297"/>
      <use xlink:href="#DejaVuSans-79" x="1556.134766"/>
     </g>
    </g>
   </g>
  </g>
 </g>
 <defs>
  <clipPath id="p4a068a5ffb">
   <rect x="57.6" y="41.472" width="357.12" height="266.112"/>
  </clipPath>
 </defs>
</svg>
