<?xml version="1.0" encoding="utf-8" standalone="no"?>
<!DOCTYPE svg PUBLIC "-//W3C//DTD SVG 1.1//EN"
  "http://www.w3.org/Graphics/SVG/1.1/DTD/svg11.dtd">
<svg xmlns:xlink="http://www.w3.org/1999/xlink" width="460.8pt" height="345.6pt" viewBox="0 0 460.8 345.6" xmlns="http://www.w3.org/2000/svg" version="1.1">
 <metadata>
  <rdf:RDF xmlns:dc="http://purl.org/dc/elements/1.1/" xmlns:cc="http://creativecommons.org/ns#" xmlns:rdf="http://www.w3.org/1999/02/22-rdf-syntax-ns#">
   <cc:Work>
    <dc:type rdf:resource="http://purl.org/dc/dcmitype/StillImage"/>
    <dc:date>2025-05-05T09:14:00.181551</dc:date>
    <dc:format>image/svg+xml</dc:format>
    <dc:creator>
     <cc:Agent>
      <dc:title>Matplotlib v3.9.1, https://matplotlib.org/</dc:title>
     </cc:Agent>
    </dc:creator>
   </cc:Work>
  </rdf:RDF>
 </metadata>
 <defs>
  <style type="text/css">*{stroke-linejoin: round; stroke-linecap: butt}</style>
 </defs>
 <g id="figure_1">
  <g id="patch_1">
   <path d="M 0 345.6 
L 460.8 345.6 
L 460.8 0 
L 0 0 
z
" style="fill: #ffffff"/>
  </g>
  <g id="axes_1">
   <g id="patch_2">
    <path d="M 57.6 307.584 
L 414.72 307.584 
L 414.72 41.472 
L 57.6 41.472 
z
" style="fill: #ffffff"/>
   </g>
   <g id="matplotlib.axis_1">
    <g id="xtick_1">
     <g id="line2d_1">
      <defs>
       <path id="m59e3a2b911" d="M 0 0 
L 0 3.5 
" style="stroke: #000000; stroke-width: 0.8"/>
      </defs>
      <g>
       <use xlink:href="#m59e3a2b911" x="73.832727" y="307.584" style="stroke: #000000; stroke-width: 0.8"/>
      </g>
     </g>
     <g id="text_1">
      <!-- 1 -->
      <g transform="translate(70.651477 322.182437) scale(0.1 -0.1)">
       <defs>
        <path id="DejaVuSans-31" d="M 794 531 
L 1825 531 
L 1825 4091 
L 703 3866 
L 703 4441 
L 1819 4666 
L 2450 4666 
L 2450 531 
L 3481 531 
L 3481 0 
L 794 0 
L 794 531 
z
" transform="scale(0.015625)"/>
       </defs>
       <use xlink:href="#DejaVuSans-31"/>
      </g>
     </g>
    </g>
    <g id="xtick_2">
     <g id="line2d_2">
      <g>
       <use xlink:href="#m59e3a2b911" x="109.664165" y="307.584" style="stroke: #000000; stroke-width: 0.8"/>
      </g>
     </g>
     <g id="text_2">
      <!-- 34 -->
      <g transform="translate(103.301665 322.182437) scale(0.1 -0.1)">
       <defs>
        <path id="DejaVuSans-33" d="M 2597 2516 
Q 3050 2419 3304 2112 
Q 3559 1806 3559 1356 
Q 3559 666 3084 287 
Q 2609 -91 1734 -91 
Q 1441 -91 1130 -33 
Q 819 25 488 141 
L 488 750 
Q 750 597 1062 519 
Q 1375 441 1716 441 
Q 2309 441 2620 675 
Q 2931 909 2931 1356 
Q 2931 1769 2642 2001 
Q 2353 2234 1838 2234 
L 1294 2234 
L 1294 2753 
L 1863 2753 
Q 2328 2753 2575 2939 
Q 2822 3125 2822 3475 
Q 2822 3834 2567 4026 
Q 2313 4219 1838 4219 
Q 1578 4219 1281 4162 
Q 984 4106 628 3988 
L 628 4550 
Q 988 4650 1302 4700 
Q 1616 4750 1894 4750 
Q 2613 4750 3031 4423 
Q 3450 4097 3450 3541 
Q 3450 3153 3228 2886 
Q 3006 2619 2597 2516 
z
" transform="scale(0.015625)"/>
        <path id="DejaVuSans-34" d="M 2419 4116 
L 825 1625 
L 2419 1625 
L 2419 4116 
z
M 2253 4666 
L 3047 4666 
L 3047 1625 
L 3713 1625 
L 3713 1100 
L 3047 1100 
L 3047 0 
L 2419 0 
L 2419 1100 
L 313 1100 
L 313 1709 
L 2253 4666 
z
" transform="scale(0.015625)"/>
       </defs>
       <use xlink:href="#DejaVuSans-33"/>
       <use xlink:href="#DejaVuSans-34" x="63.623047"/>
      </g>
     </g>
    </g>
    <g id="xtick_3">
     <g id="line2d_3">
      <g>
       <use xlink:href="#m59e3a2b911" x="145.495604" y="307.584" style="stroke: #000000; stroke-width: 0.8"/>
      </g>
     </g>
     <g id="text_3">
      <!-- 67 -->
      <g transform="translate(139.133104 322.182437) scale(0.1 -0.1)">
       <defs>
        <path id="DejaVuSans-36" d="M 2113 2584 
Q 1688 2584 1439 2293 
Q 1191 2003 1191 1497 
Q 1191 994 1439 701 
Q 1688 409 2113 409 
Q 2538 409 2786 701 
Q 3034 994 3034 1497 
Q 3034 2003 2786 2293 
Q 2538 2584 2113 2584 
z
M 3366 4563 
L 3366 3988 
Q 3128 4100 2886 4159 
Q 2644 4219 2406 4219 
Q 1781 4219 1451 3797 
Q 1122 3375 1075 2522 
Q 1259 2794 1537 2939 
Q 1816 3084 2150 3084 
Q 2853 3084 3261 2657 
Q 3669 2231 3669 1497 
Q 3669 778 3244 343 
Q 2819 -91 2113 -91 
Q 1303 -91 875 529 
Q 447 1150 447 2328 
Q 447 3434 972 4092 
Q 1497 4750 2381 4750 
Q 2619 4750 2861 4703 
Q 3103 4656 3366 4563 
z
" transform="scale(0.015625)"/>
        <path id="DejaVuSans-37" d="M 525 4666 
L 3525 4666 
L 3525 4397 
L 1831 0 
L 1172 0 
L 2766 4134 
L 525 4134 
L 525 4666 
z
" transform="scale(0.015625)"/>
       </defs>
       <use xlink:href="#DejaVuSans-36"/>
       <use xlink:href="#DejaVuSans-37" x="63.623047"/>
      </g>
     </g>
    </g>
    <g id="xtick_4">
     <g id="line2d_4">
      <g>
       <use xlink:href="#m59e3a2b911" x="181.327042" y="307.584" style="stroke: #000000; stroke-width: 0.8"/>
      </g>
     </g>
     <g id="text_4">
      <!-- 100 -->
      <g transform="translate(171.783292 322.182437) scale(0.1 -0.1)">
       <defs>
        <path id="DejaVuSans-30" d="M 2034 4250 
Q 1547 4250 1301 3770 
Q 1056 3291 1056 2328 
Q 1056 1369 1301 889 
Q 1547 409 2034 409 
Q 2525 409 2770 889 
Q 3016 1369 3016 2328 
Q 3016 3291 2770 3770 
Q 2525 4250 2034 4250 
z
M 2034 4750 
Q 2819 4750 3233 4129 
Q 3647 3509 3647 2328 
Q 3647 1150 3233 529 
Q 2819 -91 2034 -91 
Q 1250 -91 836 529 
Q 422 1150 422 2328 
Q 422 3509 836 4129 
Q 1250 4750 2034 4750 
z
" transform="scale(0.015625)"/>
       </defs>
       <use xlink:href="#DejaVuSans-31"/>
       <use xlink:href="#DejaVuSans-30" x="63.623047"/>
       <use xlink:href="#DejaVuSans-30" x="127.246094"/>
      </g>
     </g>
    </g>
    <g id="xtick_5">
     <g id="line2d_5">
      <g>
       <use xlink:href="#m59e3a2b911" x="217.15848" y="307.584" style="stroke: #000000; stroke-width: 0.8"/>
      </g>
     </g>
     <g id="text_5">
      <!-- 133 -->
      <g transform="translate(207.61473 322.182437) scale(0.1 -0.1)">
       <use xlink:href="#DejaVuSans-31"/>
       <use xlink:href="#DejaVuSans-33" x="63.623047"/>
       <use xlink:href="#DejaVuSans-33" x="127.246094"/>
      </g>
     </g>
    </g>
    <g id="xtick_6">
     <g id="line2d_6">
      <g>
       <use xlink:href="#m59e3a2b911" x="254.075719" y="307.584" style="stroke: #000000; stroke-width: 0.8"/>
      </g>
     </g>
     <g id="text_6">
      <!-- 167 -->
      <g transform="translate(244.531969 322.182437) scale(0.1 -0.1)">
       <use xlink:href="#DejaVuSans-31"/>
       <use xlink:href="#DejaVuSans-36" x="63.623047"/>
       <use xlink:href="#DejaVuSans-37" x="127.246094"/>
      </g>
     </g>
    </g>
    <g id="xtick_7">
     <g id="line2d_7">
      <g>
       <use xlink:href="#m59e3a2b911" x="289.907157" y="307.584" style="stroke: #000000; stroke-width: 0.8"/>
      </g>
     </g>
     <g id="text_7">
      <!-- 200 -->
      <g transform="translate(280.363407 322.182437) scale(0.1 -0.1)">
       <defs>
        <path id="DejaVuSans-32" d="M 1228 531 
L 3431 531 
L 3431 0 
L 469 0 
L 469 531 
Q 828 903 1448 1529 
Q 2069 2156 2228 2338 
Q 2531 2678 2651 2914 
Q 2772 3150 2772 3378 
Q 2772 3750 2511 3984 
Q 2250 4219 1831 4219 
Q 1534 4219 1204 4116 
Q 875 4013 500 3803 
L 500 4441 
Q 881 4594 1212 4672 
Q 1544 4750 1819 4750 
Q 2544 4750 2975 4387 
Q 3406 4025 3406 3419 
Q 3406 3131 3298 2873 
Q 3191 2616 2906 2266 
Q 2828 2175 2409 1742 
Q 1991 1309 1228 531 
z
" transform="scale(0.015625)"/>
       </defs>
       <use xlink:href="#DejaVuSans-32"/>
       <use xlink:href="#DejaVuSans-30" x="63.623047"/>
       <use xlink:href="#DejaVuSans-30" x="127.246094"/>
      </g>
     </g>
    </g>
    <g id="xtick_8">
     <g id="line2d_8">
      <g>
       <use xlink:href="#m59e3a2b911" x="325.738595" y="307.584" style="stroke: #000000; stroke-width: 0.8"/>
      </g>
     </g>
     <g id="text_8">
      <!-- 233 -->
      <g transform="translate(316.194845 322.182437) scale(0.1 -0.1)">
       <use xlink:href="#DejaVuSans-32"/>
       <use xlink:href="#DejaVuSans-33" x="63.623047"/>
       <use xlink:href="#DejaVuSans-33" x="127.246094"/>
      </g>
     </g>
    </g>
    <g id="xtick_9">
     <g id="line2d_9">
      <g>
       <use xlink:href="#m59e3a2b911" x="361.570033" y="307.584" style="stroke: #000000; stroke-width: 0.8"/>
      </g>
     </g>
     <g id="text_9">
      <!-- 266 -->
      <g transform="translate(352.026283 322.182437) scale(0.1 -0.1)">
       <use xlink:href="#DejaVuSans-32"/>
       <use xlink:href="#DejaVuSans-36" x="63.623047"/>
       <use xlink:href="#DejaVuSans-36" x="127.246094"/>
      </g>
     </g>
    </g>
    <g id="xtick_10">
     <g id="line2d_10">
      <g>
       <use xlink:href="#m59e3a2b911" x="398.487273" y="307.584" style="stroke: #000000; stroke-width: 0.8"/>
      </g>
     </g>
     <g id="text_10">
      <!-- 300 -->
      <g transform="translate(388.943523 322.182437) scale(0.1 -0.1)">
       <use xlink:href="#DejaVuSans-33"/>
       <use xlink:href="#DejaVuSans-30" x="63.623047"/>
       <use xlink:href="#DejaVuSans-30" x="127.246094"/>
      </g>
     </g>
    </g>
    <g id="text_11">
     <!-- Epochs -->
     <g transform="translate(218.244375 335.860562) scale(0.1 -0.1)">
      <defs>
       <path id="DejaVuSans-45" d="M 628 4666 
L 3578 4666 
L 3578 4134 
L 1259 4134 
L 1259 2753 
L 3481 2753 
L 3481 2222 
L 1259 2222 
L 1259 531 
L 3634 531 
L 3634 0 
L 628 0 
L 628 4666 
z
" transform="scale(0.015625)"/>
       <path id="DejaVuSans-70" d="M 1159 525 
L 1159 -1331 
L 581 -1331 
L 581 3500 
L 1159 3500 
L 1159 2969 
Q 1341 3281 1617 3432 
Q 1894 3584 2278 3584 
Q 2916 3584 3314 3078 
Q 3713 2572 3713 1747 
Q 3713 922 3314 415 
Q 2916 -91 2278 -91 
Q 1894 -91 1617 61 
Q 1341 213 1159 525 
z
M 3116 1747 
Q 3116 2381 2855 2742 
Q 2594 3103 2138 3103 
Q 1681 3103 1420 2742 
Q 1159 2381 1159 1747 
Q 1159 1113 1420 752 
Q 1681 391 2138 391 
Q 2594 391 2855 752 
Q 3116 1113 3116 1747 
z
" transform="scale(0.015625)"/>
       <path id="DejaVuSans-6f" d="M 1959 3097 
Q 1497 3097 1228 2736 
Q 959 2375 959 1747 
Q 959 1119 1226 758 
Q 1494 397 1959 397 
Q 2419 397 2687 759 
Q 2956 1122 2956 1747 
Q 2956 2369 2687 2733 
Q 2419 3097 1959 3097 
z
M 1959 3584 
Q 2709 3584 3137 3096 
Q 3566 2609 3566 1747 
Q 3566 888 3137 398 
Q 2709 -91 1959 -91 
Q 1206 -91 779 398 
Q 353 888 353 1747 
Q 353 2609 779 3096 
Q 1206 3584 1959 3584 
z
" transform="scale(0.015625)"/>
       <path id="DejaVuSans-63" d="M 3122 3366 
L 3122 2828 
Q 2878 2963 2633 3030 
Q 2388 3097 2138 3097 
Q 1578 3097 1268 2742 
Q 959 2388 959 1747 
Q 959 1106 1268 751 
Q 1578 397 2138 397 
Q 2388 397 2633 464 
Q 2878 531 3122 666 
L 3122 134 
Q 2881 22 2623 -34 
Q 2366 -91 2075 -91 
Q 1284 -91 818 406 
Q 353 903 353 1747 
Q 353 2603 823 3093 
Q 1294 3584 2113 3584 
Q 2378 3584 2631 3529 
Q 2884 3475 3122 3366 
z
" transform="scale(0.015625)"/>
       <path id="DejaVuSans-68" d="M 3513 2113 
L 3513 0 
L 2938 0 
L 2938 2094 
Q 2938 2591 2744 2837 
Q 2550 3084 2163 3084 
Q 1697 3084 1428 2787 
Q 1159 2491 1159 1978 
L 1159 0 
L 581 0 
L 581 4863 
L 1159 4863 
L 1159 2956 
Q 1366 3272 1645 3428 
Q 1925 3584 2291 3584 
Q 2894 3584 3203 3211 
Q 3513 2838 3513 2113 
z
" transform="scale(0.015625)"/>
       <path id="DejaVuSans-73" d="M 2834 3397 
L 2834 2853 
Q 2591 2978 2328 3040 
Q 2066 3103 1784 3103 
Q 1356 3103 1142 2972 
Q 928 2841 928 2578 
Q 928 2378 1081 2264 
Q 1234 2150 1697 2047 
L 1894 2003 
Q 2506 1872 2764 1633 
Q 3022 1394 3022 966 
Q 3022 478 2636 193 
Q 2250 -91 1575 -91 
Q 1294 -91 989 -36 
Q 684 19 347 128 
L 347 722 
Q 666 556 975 473 
Q 1284 391 1588 391 
Q 1994 391 2212 530 
Q 2431 669 2431 922 
Q 2431 1156 2273 1281 
Q 2116 1406 1581 1522 
L 1381 1569 
Q 847 1681 609 1914 
Q 372 2147 372 2553 
Q 372 3047 722 3315 
Q 1072 3584 1716 3584 
Q 2034 3584 2315 3537 
Q 2597 3491 2834 3397 
z
" transform="scale(0.015625)"/>
      </defs>
      <use xlink:href="#DejaVuSans-45"/>
      <use xlink:href="#DejaVuSans-70" x="63.183594"/>
      <use xlink:href="#DejaVuSans-6f" x="126.660156"/>
      <use xlink:href="#DejaVuSans-63" x="187.841797"/>
      <use xlink:href="#DejaVuSans-68" x="242.822266"/>
      <use xlink:href="#DejaVuSans-73" x="306.201172"/>
     </g>
    </g>
   </g>
   <g id="matplotlib.axis_2">
    <g id="ytick_1">
     <g id="line2d_11">
      <defs>
       <path id="mb4cc6876b3" d="M 0 0 
L -3.5 0 
" style="stroke: #000000; stroke-width: 0.8"/>
      </defs>
      <g>
       <use xlink:href="#mb4cc6876b3" x="57.6" y="276.574116" style="stroke: #000000; stroke-width: 0.8"/>
      </g>
     </g>
     <g id="text_12">
      <!-- 10 -->
      <g transform="translate(37.875 280.373335) scale(0.1 -0.1)">
       <use xlink:href="#DejaVuSans-31"/>
       <use xlink:href="#DejaVuSans-30" x="63.623047"/>
      </g>
     </g>
    </g>
    <g id="ytick_2">
     <g id="line2d_12">
      <g>
       <use xlink:href="#mb4cc6876b3" x="57.6" y="241.002981" style="stroke: #000000; stroke-width: 0.8"/>
      </g>
     </g>
     <g id="text_13">
      <!-- 20 -->
      <g transform="translate(37.875 244.8022) scale(0.1 -0.1)">
       <use xlink:href="#DejaVuSans-32"/>
       <use xlink:href="#DejaVuSans-30" x="63.623047"/>
      </g>
     </g>
    </g>
    <g id="ytick_3">
     <g id="line2d_13">
      <g>
       <use xlink:href="#mb4cc6876b3" x="57.6" y="205.431846" style="stroke: #000000; stroke-width: 0.8"/>
      </g>
     </g>
     <g id="text_14">
      <!-- 30 -->
      <g transform="translate(37.875 209.231065) scale(0.1 -0.1)">
       <use xlink:href="#DejaVuSans-33"/>
       <use xlink:href="#DejaVuSans-30" x="63.623047"/>
      </g>
     </g>
    </g>
    <g id="ytick_4">
     <g id="line2d_14">
      <g>
       <use xlink:href="#mb4cc6876b3" x="57.6" y="169.860711" style="stroke: #000000; stroke-width: 0.8"/>
      </g>
     </g>
     <g id="text_15">
      <!-- 40 -->
      <g transform="translate(37.875 173.65993) scale(0.1 -0.1)">
       <use xlink:href="#DejaVuSans-34"/>
       <use xlink:href="#DejaVuSans-30" x="63.623047"/>
      </g>
     </g>
    </g>
    <g id="ytick_5">
     <g id="line2d_15">
      <g>
       <use xlink:href="#mb4cc6876b3" x="57.6" y="134.289576" style="stroke: #000000; stroke-width: 0.8"/>
      </g>
     </g>
     <g id="text_16">
      <!-- 50 -->
      <g transform="translate(37.875 138.088795) scale(0.1 -0.1)">
       <defs>
        <path id="DejaVuSans-35" d="M 691 4666 
L 3169 4666 
L 3169 4134 
L 1269 4134 
L 1269 2991 
Q 1406 3038 1543 3061 
Q 1681 3084 1819 3084 
Q 2600 3084 3056 2656 
Q 3513 2228 3513 1497 
Q 3513 744 3044 326 
Q 2575 -91 1722 -91 
Q 1428 -91 1123 -41 
Q 819 9 494 109 
L 494 744 
Q 775 591 1075 516 
Q 1375 441 1709 441 
Q 2250 441 2565 725 
Q 2881 1009 2881 1497 
Q 2881 1984 2565 2268 
Q 2250 2553 1709 2553 
Q 1456 2553 1204 2497 
Q 953 2441 691 2322 
L 691 4666 
z
" transform="scale(0.015625)"/>
       </defs>
       <use xlink:href="#DejaVuSans-35"/>
       <use xlink:href="#DejaVuSans-30" x="63.623047"/>
      </g>
     </g>
    </g>
    <g id="ytick_6">
     <g id="line2d_16">
      <g>
       <use xlink:href="#mb4cc6876b3" x="57.6" y="98.718442" style="stroke: #000000; stroke-width: 0.8"/>
      </g>
     </g>
     <g id="text_17">
      <!-- 60 -->
      <g transform="translate(37.875 102.51766) scale(0.1 -0.1)">
       <use xlink:href="#DejaVuSans-36"/>
       <use xlink:href="#DejaVuSans-30" x="63.623047"/>
      </g>
     </g>
    </g>
    <g id="ytick_7">
     <g id="line2d_17">
      <g>
       <use xlink:href="#mb4cc6876b3" x="57.6" y="63.147307" style="stroke: #000000; stroke-width: 0.8"/>
      </g>
     </g>
     <g id="text_18">
      <!-- 70 -->
      <g transform="translate(37.875 66.946525) scale(0.1 -0.1)">
       <use xlink:href="#DejaVuSans-37"/>
       <use xlink:href="#DejaVuSans-30" x="63.623047"/>
      </g>
     </g>
    </g>
    <g id="text_19">
     <!-- Accuracy -->
     <g transform="translate(31.795312 197.356125) rotate(-90) scale(0.1 -0.1)">
      <defs>
       <path id="DejaVuSans-41" d="M 2188 4044 
L 1331 1722 
L 3047 1722 
L 2188 4044 
z
M 1831 4666 
L 2547 4666 
L 4325 0 
L 3669 0 
L 3244 1197 
L 1141 1197 
L 716 0 
L 50 0 
L 1831 4666 
z
" transform="scale(0.015625)"/>
       <path id="DejaVuSans-75" d="M 544 1381 
L 544 3500 
L 1119 3500 
L 1119 1403 
Q 1119 906 1312 657 
Q 1506 409 1894 409 
Q 2359 409 2629 706 
Q 2900 1003 2900 1516 
L 2900 3500 
L 3475 3500 
L 3475 0 
L 2900 0 
L 2900 538 
Q 2691 219 2414 64 
Q 2138 -91 1772 -91 
Q 1169 -91 856 284 
Q 544 659 544 1381 
z
M 1991 3584 
L 1991 3584 
z
" transform="scale(0.015625)"/>
       <path id="DejaVuSans-72" d="M 2631 2963 
Q 2534 3019 2420 3045 
Q 2306 3072 2169 3072 
Q 1681 3072 1420 2755 
Q 1159 2438 1159 1844 
L 1159 0 
L 581 0 
L 581 3500 
L 1159 3500 
L 1159 2956 
Q 1341 3275 1631 3429 
Q 1922 3584 2338 3584 
Q 2397 3584 2469 3576 
Q 2541 3569 2628 3553 
L 2631 2963 
z
" transform="scale(0.015625)"/>
       <path id="DejaVuSans-61" d="M 2194 1759 
Q 1497 1759 1228 1600 
Q 959 1441 959 1056 
Q 959 750 1161 570 
Q 1363 391 1709 391 
Q 2188 391 2477 730 
Q 2766 1069 2766 1631 
L 2766 1759 
L 2194 1759 
z
M 3341 1997 
L 3341 0 
L 2766 0 
L 2766 531 
Q 2569 213 2275 61 
Q 1981 -91 1556 -91 
Q 1019 -91 701 211 
Q 384 513 384 1019 
Q 384 1609 779 1909 
Q 1175 2209 1959 2209 
L 2766 2209 
L 2766 2266 
Q 2766 2663 2505 2880 
Q 2244 3097 1772 3097 
Q 1472 3097 1187 3025 
Q 903 2953 641 2809 
L 641 3341 
Q 956 3463 1253 3523 
Q 1550 3584 1831 3584 
Q 2591 3584 2966 3190 
Q 3341 2797 3341 1997 
z
" transform="scale(0.015625)"/>
       <path id="DejaVuSans-79" d="M 2059 -325 
Q 1816 -950 1584 -1140 
Q 1353 -1331 966 -1331 
L 506 -1331 
L 506 -850 
L 844 -850 
Q 1081 -850 1212 -737 
Q 1344 -625 1503 -206 
L 1606 56 
L 191 3500 
L 800 3500 
L 1894 763 
L 2988 3500 
L 3597 3500 
L 2059 -325 
z
" transform="scale(0.015625)"/>
      </defs>
      <use xlink:href="#DejaVuSans-41"/>
      <use xlink:href="#DejaVuSans-63" x="66.658203"/>
      <use xlink:href="#DejaVuSans-63" x="121.638672"/>
      <use xlink:href="#DejaVuSans-75" x="176.619141"/>
      <use xlink:href="#DejaVuSans-72" x="239.998047"/>
      <use xlink:href="#DejaVuSans-61" x="281.111328"/>
      <use xlink:href="#DejaVuSans-63" x="342.390625"/>
      <use xlink:href="#DejaVuSans-79" x="397.371094"/>
     </g>
    </g>
   </g>
   <g id="line2d_18">
    <path d="M 73.832727 291.01244 
L 74.918528 266.799168 
L 76.00433 252.695213 
L 77.090131 240.049675 
L 79.261733 223.299227 
L 80.347534 213.285953 
L 81.433335 207.310002 
L 82.519137 202.625284 
L 83.604938 195.27273 
L 84.690739 193.583101 
L 85.77654 189.979745 
L 86.862341 179.144778 
L 87.948142 178.924237 
L 89.033943 173.791322 
L 90.119745 172.539218 
L 91.205546 163.105753 
L 92.291347 161.127998 
L 93.377148 161.953248 
L 94.462949 161.917677 
L 95.54875 194.810305 
L 96.634552 188.571128 
L 98.806154 185.803694 
L 99.891955 182.143424 
L 100.977756 177.778846 
L 102.063557 175.722834 
L 103.149358 172.40049 
L 104.23516 170.077695 
L 105.320961 164.528598 
L 106.406762 167.015021 
L 107.492563 164.115973 
L 108.578364 161.971034 
L 109.664165 157.784311 
L 110.749967 152.626497 
L 111.835768 154.785664 
L 112.921569 150.125846 
L 115.093171 145.419785 
L 116.178972 143.868883 
L 117.264773 142.598994 
L 118.350575 135.104155 
L 119.436376 138.821339 
L 120.522177 131.685769 
L 121.607978 136.381159 
L 122.693779 130.330509 
L 123.77958 133.332713 
L 124.865382 120.640932 
L 125.951183 123.870791 
L 127.036984 118.663177 
L 128.122785 120.932615 
L 129.208586 117.339931 
L 130.294387 109.930463 
L 131.380189 115.973999 
L 132.46599 115.326604 
L 133.551791 108.030965 
L 134.637592 106.593891 
L 135.723393 105.647699 
L 136.809194 110.158119 
L 137.894995 111.730363 
L 138.980797 148.233461 
L 140.066598 154.590023 
L 141.152399 151.580705 
L 142.2382 150.84794 
L 143.324001 148.503802 
L 144.409802 146.65766 
L 145.495604 149.720335 
L 147.667206 146.148993 
L 148.753007 144.936017 
L 149.838808 137.522993 
L 150.924609 143.349545 
L 152.01041 144.996488 
L 153.096212 139.653704 
L 154.182013 140.920036 
L 155.267814 140.116128 
L 156.353615 131.351401 
L 157.439416 135.214426 
L 158.525217 132.560819 
L 159.611019 132.653304 
L 160.69682 137.437622 
L 161.782621 127.563075 
L 162.868422 132.130409 
L 163.954223 129.587072 
L 165.040024 127.619989 
L 167.211627 128.647994 
L 168.297428 126.830309 
L 169.383229 119.655612 
L 170.46903 125.307865 
L 171.554831 124.407915 
L 172.640632 126.257614 
L 173.726434 115.856614 
L 174.812235 116.920191 
L 175.898036 115.027807 
L 176.983837 118.858818 
L 178.069638 113.708118 
L 179.155439 116.67475 
L 180.24124 116.390181 
L 181.327042 112.28883 
L 182.412843 107.120344 
L 183.498644 103.250204 
L 184.584445 106.956716 
L 185.670246 108.265734 
L 186.756047 103.246647 
L 187.841849 100.788682 
L 188.92765 105.558771 
L 191.099252 98.586828 
L 192.185053 100.970094 
L 193.270854 102.115485 
L 194.356656 99.824704 
L 195.442457 99.380065 
L 196.528258 98.031919 
L 197.614059 88.91148 
L 198.69986 96.498803 
L 199.785661 83.878164 
L 200.871462 89.220949 
L 201.957264 85.976861 
L 203.043065 91.426359 
L 204.128866 91.109776 
L 205.214667 86.147602 
L 206.300468 83.255669 
L 207.386269 84.738986 
L 208.472071 78.030269 
L 209.557872 81.124958 
L 210.643673 73.377565 
L 211.729474 76.447354 
L 212.815275 80.979117 
L 213.901076 82.433976 
L 214.986877 74.626112 
L 216.072679 71.076113 
L 217.15848 74.668797 
L 218.244281 76.411783 
L 219.330082 65.825813 
L 220.415883 75.611432 
L 221.501684 72.883126 
L 222.587486 75.522504 
L 223.673287 74.085431 
L 224.759088 73.893346 
L 225.844889 133.603054 
L 226.93069 134.819586 
L 228.016491 134.229106 
L 229.102292 135.065027 
L 230.188094 130.899647 
L 231.273895 132.489677 
L 232.359696 131.938324 
L 233.445497 129.416331 
L 234.531298 127.60576 
L 235.617099 130.536822 
L 236.702901 123.507965 
L 237.788702 126.75561 
L 238.874503 119.765882 
L 239.960304 125.595991 
L 241.046105 125.660019 
L 242.131906 126.286071 
L 243.217708 123.863677 
L 245.38931 123.99529 
L 246.475111 120.665832 
L 247.560912 119.246544 
L 248.646713 120.484419 
L 249.732514 123.906362 
L 250.818316 117.485772 
L 251.904117 117.418187 
L 252.989918 121.971292 
L 254.075719 119.221644 
L 255.16152 114.078058 
L 256.247321 122.608016 
L 257.333123 115.675202 
L 258.418924 114.579611 
L 259.504725 118.76989 
L 260.590526 113.352406 
L 261.676327 118.307466 
L 262.762128 113.861074 
L 263.847929 117.09449 
L 264.933731 111.011826 
L 266.019532 116.820592 
L 267.105333 112.068288 
L 268.191134 111.837076 
L 269.276935 113.775703 
L 270.362736 111.246595 
L 271.448538 110.00872 
L 272.534339 115.276805 
L 273.62014 109.788179 
L 274.705941 109.336425 
L 275.791742 107.934923 
L 276.877543 114.874851 
L 277.963344 108.482718 
L 279.049146 108.592989 
L 280.134947 109.172798 
L 281.220748 111.036726 
L 282.306549 109.546295 
L 283.39235 106.135023 
L 284.478151 103.200405 
L 285.563953 102.090585 
L 286.649754 102.627709 
L 287.735555 107.049201 
L 288.821356 101.926958 
L 289.907157 108.678359 
L 290.992958 104.470294 
L 292.07876 108.30842 
L 293.164561 106.857117 
L 294.250362 104.484523 
L 295.336163 100.354714 
L 296.421964 100.219543 
L 297.507765 99.81759 
L 298.593566 98.309373 
L 299.679368 103.495645 
L 300.765169 99.419193 
L 301.85097 99.597049 
L 302.936771 99.454764 
L 304.022572 97.750907 
L 305.108373 100.93808 
L 306.194175 100.464984 
L 307.279976 95.60241 
L 309.451578 94.585076 
L 310.537379 91.180918 
L 311.62318 91.728714 
L 312.708981 93.631769 
L 313.794783 99.806918 
L 314.880584 91.234275 
L 315.966385 88.72651 
L 317.052186 90.330768 
L 318.137987 91.045748 
L 319.223788 92.031068 
L 320.30959 89.718944 
L 321.395391 87.997301 
L 322.481192 86.990638 
L 323.566993 83.269898 
L 324.652794 86.090689 
L 325.738595 81.13563 
L 326.824396 82.757673 
L 327.910198 84.685629 
L 328.995999 84.034677 
L 330.0818 91.700257 
L 331.167601 76.642995 
L 332.253402 81.889738 
L 333.339203 81.441541 
L 334.425005 83.920849 
L 335.510806 76.490039 
L 336.596607 73.448707 
L 337.682408 75.504719 
L 338.768209 76.891993 
L 339.85401 77.471803 
L 340.939811 71.39981 
L 342.025613 67.824911 
L 343.111414 69.617696 
L 344.197215 77.542945 
L 345.283016 80.911531 
L 346.368817 72.146804 
L 347.454618 75.376663 
L 348.54042 70.410932 
L 349.626221 70.318447 
L 350.712022 66.88939 
L 351.797823 64.267797 
L 352.883624 66.686635 
L 353.969425 69.781323 
L 355.055227 66.942747 
L 356.141028 72.80487 
L 357.226829 62.108629 
L 358.31263 66.441194 
L 359.398431 63.54926 
L 360.484232 61.68889 
L 361.570033 65.270903 
L 362.655835 64.15397 
L 363.741636 63.225563 
L 364.827437 53.568 
L 365.913238 56.812088 
L 366.999039 58.444803 
L 368.08484 57.857879 
L 369.170642 62.542597 
L 370.256443 64.968549 
L 371.342244 61.905874 
L 372.428045 66.263338 
L 373.513846 68.120151 
L 374.599647 74.405571 
L 375.685448 68.603919 
L 376.77125 75.19525 
L 377.857051 69.745752 
L 378.942852 68.120151 
L 380.028653 67.668398 
L 381.114454 70.240191 
L 382.200255 69.1446 
L 383.286057 74.651012 
L 384.371858 70.595902 
L 385.457659 67.518999 
L 386.54346 67.298458 
L 387.629261 69.418498 
L 388.715062 74.82531 
L 389.800863 69.976965 
L 390.886665 69.1446 
L 391.972466 63.296705 
L 394.144068 74.615441 
L 395.229869 71.570551 
L 396.31567 68.860031 
L 397.401472 68.582576 
L 398.487273 77.044949 
L 398.487273 77.044949 
" clip-path="url(#p607529de20)" style="fill: none; stroke: #1f77b4; stroke-width: 1.5; stroke-linecap: square"/>
   </g>
   <g id="line2d_19">
    <path d="M 73.832727 277.498966 
L 74.918528 247.263501 
L 76.00433 237.19687 
L 77.090131 212.225933 
L 78.175932 206.036556 
L 79.261733 193.94237 
L 80.347534 191.879244 
L 81.433335 183.128745 
L 82.519137 168.722435 
L 83.604938 170.42985 
L 84.690739 162.248489 
L 85.77654 161.821635 
L 86.862341 151.541577 
L 87.948142 148.055606 
L 90.119745 139.340678 
L 91.205546 138.202401 
L 92.291347 133.542583 
L 94.462949 133.009016 
L 95.54875 166.410311 
L 96.634552 160.220934 
L 97.720353 160.434361 
L 98.806154 158.691375 
L 99.891955 151.32815 
L 100.977756 163.564621 
L 102.063557 142.54208 
L 103.149358 144.285065 
L 104.23516 140.550096 
L 105.320961 150.581156 
L 106.406762 136.672843 
L 107.492563 136.494987 
L 108.578364 128.064628 
L 109.664165 129.202904 
L 110.749967 132.653304 
L 111.835768 120.452405 
L 112.921569 125.290079 
L 114.00737 116.041584 
L 115.093171 123.191382 
L 116.178972 114.97445 
L 117.264773 115.045592 
L 118.350575 109.496495 
L 119.436376 109.354211 
L 120.522177 111.773048 
L 121.607978 107.113229 
L 122.693779 106.935374 
L 123.77958 104.018541 
L 124.865382 102.453411 
L 125.951183 97.509023 
L 127.036984 99.252009 
L 128.122785 97.758021 
L 129.208586 97.366738 
L 130.294387 96.192891 
L 131.380189 94.307621 
L 132.46599 94.200907 
L 133.551791 94.343192 
L 134.637592 94.307621 
L 135.723393 92.635777 
L 136.809194 93.845196 
L 137.894995 93.489485 
L 138.980797 130.696892 
L 140.066598 128.527053 
L 141.152399 129.736471 
L 142.2382 135.96142 
L 143.324001 125.894789 
L 144.409802 133.293585 
L 145.495604 123.724949 
L 146.581405 123.724949 
L 147.667206 125.290079 
L 148.753007 123.404809 
L 149.838808 116.753007 
L 150.924609 121.199399 
L 152.01041 128.953906 
L 153.096212 123.618236 
L 154.182013 113.871745 
L 155.267814 114.156314 
L 156.353615 117.037576 
L 157.439416 120.523547 
L 158.525217 114.867737 
L 159.611019 112.733469 
L 160.69682 123.653807 
L 162.868422 111.737477 
L 163.954223 109.709922 
L 165.040024 110.065634 
L 167.211627 109.247497 
L 168.297428 106.18838 
L 169.383229 108.856215 
L 170.46903 105.156817 
L 171.554831 105.014532 
L 172.640632 105.299102 
L 173.726434 103.093691 
L 174.812235 103.733972 
L 175.898036 100.496998 
L 176.983837 96.406318 
L 178.069638 103.520545 
L 179.155439 97.900305 
L 180.24124 103.307118 
L 181.327042 95.766037 
L 182.412843 99.572149 
L 183.498644 101.066136 
L 184.584445 97.260025 
L 185.670246 89.043093 
L 186.756047 93.845196 
L 187.841849 91.853213 
L 190.013451 93.311629 
L 191.099252 91.959926 
L 192.185053 90.110227 
L 193.270854 91.284074 
L 194.356656 86.339687 
L 195.442457 92.635777 
L 196.528258 85.485979 
L 197.614059 84.383274 
L 198.69986 85.485979 
L 199.785661 82.426862 
L 200.871462 81.644297 
L 201.957264 82.284577 
L 203.043065 80.755018 
L 204.128866 81.466441 
L 206.300468 79.403315 
L 207.386269 78.834177 
L 208.472071 80.648305 
L 209.557872 76.806622 
L 210.643673 77.873756 
L 211.729474 75.881773 
L 212.815275 78.336181 
L 213.901076 77.197905 
L 214.986877 76.593196 
L 216.072679 77.731472 
L 217.15848 76.344198 
L 218.244281 77.340189 
L 219.330082 75.952915 
L 220.415883 77.05562 
L 221.501684 75.739488 
L 222.587486 76.024057 
L 223.673287 75.383777 
L 224.759088 75.810631 
L 225.844889 131.017032 
L 226.93069 123.013527 
L 228.016491 112.840182 
L 229.102292 115.614731 
L 230.188094 114.227456 
L 231.273895 116.397296 
L 232.359696 117.286574 
L 233.445497 118.887275 
L 234.531298 122.551102 
L 235.617099 110.350203 
L 236.702901 109.994491 
L 237.788702 112.804611 
L 238.874503 108.9985 
L 239.960304 120.879259 
L 241.046105 118.460421 
L 242.131906 117.286574 
L 243.217708 113.551605 
L 244.303509 120.772545 
L 245.38931 117.571143 
L 246.475111 114.938879 
L 247.560912 111.773048 
L 248.646713 114.120743 
L 250.818316 108.927357 
L 251.904117 115.863729 
L 252.989918 116.575151 
L 254.075719 108.785073 
L 255.16152 105.156817 
L 256.247321 112.946896 
L 257.333123 103.98297 
L 258.418924 110.741485 
L 259.504725 99.963431 
L 260.590526 109.496495 
L 261.676327 113.516034 
L 262.762128 113.800603 
L 263.847929 121.057114 
L 264.933731 117.855712 
L 266.019532 107.43337 
L 267.105333 109.709922 
L 268.191134 117.78457 
L 269.276935 122.515531 
L 270.362736 100.888281 
L 271.448538 123.404809 
L 272.534339 125.290079 
L 273.62014 110.777056 
L 274.705941 105.903811 
L 275.791742 108.07365 
L 277.963344 101.386277 
L 279.049146 118.389279 
L 280.134947 109.816636 
L 281.220748 107.646796 
L 282.306549 111.20391 
L 283.39235 100.070145 
L 284.478151 106.650805 
L 285.563953 103.911827 
L 286.649754 101.528561 
L 287.735555 102.880264 
L 288.821356 97.651308 
L 289.907157 110.27906 
L 290.992958 98.576157 
L 292.07876 96.762029 
L 293.164561 99.038582 
L 294.250362 99.180866 
L 295.336163 103.271547 
L 296.421964 99.109724 
L 297.507765 106.081666 
L 298.593566 102.809122 
L 299.679368 107.646796 
L 300.765169 101.208421 
L 301.85097 93.774054 
L 302.936771 99.60772 
L 304.022572 108.358219 
L 305.108373 95.943893 
L 306.194175 100.141287 
L 307.279976 98.469444 
L 308.365777 98.078161 
L 309.451578 97.437881 
L 310.537379 97.864734 
L 311.62318 96.299604 
L 312.708981 91.746499 
L 313.794783 98.398301 
L 314.880584 101.030565 
L 315.966385 98.149303 
L 317.052186 96.833171 
L 318.137987 100.390285 
L 319.223788 90.857221 
L 320.30959 94.094194 
L 321.395391 93.774054 
L 323.566993 94.200907 
L 324.652794 95.908322 
L 325.738595 92.457922 
L 326.824396 92.137782 
L 327.910198 87.264536 
L 328.995999 92.600206 
L 330.0818 88.900808 
L 331.167601 89.078664 
L 332.253402 90.750507 
L 333.339203 97.509023 
L 334.425005 95.303613 
L 335.510806 86.268544 
L 336.596607 88.189386 
L 337.682408 84.952412 
L 338.768209 83.529567 
L 339.85401 87.228965 
L 340.939811 87.513534 
L 342.025613 87.228965 
L 343.111414 87.69139 
L 344.197215 82.569146 
L 345.283016 90.857221 
L 346.368817 83.244998 
L 347.454618 84.027563 
L 348.54042 82.106722 
L 349.626221 84.703414 
L 350.712022 81.679868 
L 351.797823 83.529567 
L 352.883624 81.11073 
L 353.969425 80.079167 
L 355.055227 83.458425 
L 356.141028 79.581171 
L 357.226829 77.909328 
L 358.31263 82.533575 
L 359.398431 77.197905 
L 360.484232 79.332173 
L 361.570033 78.549608 
L 362.655835 74.743497 
L 363.741636 79.901311 
L 364.827437 77.944899 
L 365.913238 80.755018 
L 366.999039 77.269047 
L 368.08484 76.593196 
L 369.170642 82.106722 
L 370.256443 86.161831 
L 371.342244 83.458425 
L 372.428045 88.438384 
L 373.513846 83.280569 
L 374.599647 86.695398 
L 375.685448 84.987983 
L 376.77125 85.379266 
L 377.857051 85.485979 
L 378.942852 84.667843 
L 380.028653 90.430367 
L 381.114454 91.070648 
L 382.200255 86.197402 
L 383.286057 86.730969 
L 384.371858 84.24099 
L 385.457659 93.453914 
L 386.54346 84.134276 
L 387.629261 85.343695 
L 388.715062 85.983975 
L 389.800863 87.940388 
L 390.886665 85.094697 
L 391.972466 86.12626 
L 393.058267 89.754516 
L 394.144068 89.790087 
L 395.229869 88.509526 
L 396.31567 86.908825 
L 397.401472 87.584676 
L 398.487273 87.904817 
L 398.487273 87.904817 
" clip-path="url(#p607529de20)" style="fill: none; stroke: #ff7f0e; stroke-width: 1.5; stroke-linecap: square"/>
   </g>
   <g id="line2d_20">
    <path d="M 73.832727 295.488 
L 74.918528 288.0796 
L 76.00433 286.926384 
L 78.175932 275.298535 
L 79.261733 272.575565 
L 80.347534 268.797555 
L 81.433335 271.103631 
L 82.519137 262.713468 
L 83.604938 269.558065 
L 84.690739 263.32707 
L 85.77654 266.295125 
L 86.862341 264.013948 
L 87.948142 260.260482 
L 89.033943 258.298023 
L 90.119745 254.520012 
L 91.205546 256.01649 
L 92.291347 254.667277 
L 93.377148 254.691821 
L 94.462949 254.44638 
L 95.54875 265.117721 
L 96.634552 264.651739 
L 97.720353 261.609695 
L 98.806154 261.75696 
L 99.891955 257.46388 
L 100.977756 269.631698 
L 102.063557 255.771049 
L 103.149358 255.697417 
L 104.23516 253.784046 
L 105.320961 262.983453 
L 106.406762 250.128756 
L 107.492563 255.108715 
L 108.578364 248.06812 
L 109.664165 248.509558 
L 110.749967 252.410288 
L 111.835768 240.929349 
L 112.921569 246.007484 
L 114.00737 241.567139 
L 115.093171 244.731903 
L 116.178972 238.770537 
L 117.264773 239.874665 
L 118.350575 235.188879 
L 119.436376 240.732996 
L 120.522177 239.801033 
L 121.607978 235.679405 
L 122.693779 239.432871 
L 123.77958 233.839666 
L 124.865382 236.219375 
L 125.951183 230.20892 
L 127.036984 231.999927 
L 128.122785 232.784982 
L 129.208586 232.367733 
L 130.294387 230.969431 
L 132.46599 233.030067 
L 133.551791 231.214872 
L 134.637592 231.926295 
L 135.723393 230.037112 
L 136.809194 230.72399 
L 137.894995 231.239416 
L 138.980797 248.779543 
L 140.066598 244.486462 
L 141.152399 241.370787 
L 142.2382 249.687318 
L 143.324001 249.417333 
L 144.409802 246.424378 
L 145.495604 238.451819 
L 146.581405 245.124253 
L 147.667206 247.528506 
L 148.753007 247.67577 
L 149.838808 234.722897 
L 152.01041 250.325109 
L 153.096212 245.835676 
L 154.182013 237.102251 
L 155.267814 235.82667 
L 156.353615 239.555592 
L 157.439416 241.984389 
L 158.525217 237.323147 
L 159.611019 233.569681 
L 160.69682 243.946848 
L 161.782621 237.838217 
L 162.868422 239.114154 
L 163.954223 235.041615 
L 165.040024 236.439916 
L 166.125825 236.660813 
L 167.211627 237.323147 
L 168.297428 233.520949 
L 170.46903 226.823615 
L 171.554831 228.957884 
L 172.640632 228.320093 
L 173.726434 233.103699 
L 174.812235 227.0936 
L 175.898036 227.559582 
L 176.983837 223.438311 
L 178.069638 238.329099 
L 179.155439 219.856653 
L 180.24124 232.392277 
L 181.327042 225.204417 
L 182.412843 228.050108 
L 183.498644 233.937842 
L 184.584445 221.328587 
L 185.670246 219.954829 
L 186.756047 218.163823 
L 187.841849 220.813161 
L 188.92765 222.334182 
L 190.013451 227.436862 
L 191.099252 220.17537 
L 192.185053 218.703437 
L 193.270854 225.572579 
L 194.356656 217.305135 
L 195.442457 226.700895 
L 196.528258 218.139279 
L 197.614059 218.360175 
L 198.69986 221.279498 
L 199.785661 215.416308 
L 200.871462 212.619706 
L 201.957264 214.72943 
L 203.043065 218.850701 
L 204.128866 214.631253 
L 205.214667 215.931378 
L 206.300468 214.312536 
L 207.386269 213.67439 
L 208.472071 217.599664 
L 209.557872 210.902331 
L 210.643673 212.300632 
L 211.729474 211.19686 
L 212.815275 212.595161 
L 213.901076 213.355672 
L 214.986877 213.232952 
L 216.072679 214.85215 
L 217.15848 212.88969 
L 218.244281 213.552025 
L 219.330082 212.423353 
L 220.415883 214.018007 
L 221.501684 212.570617 
L 222.587486 213.036599 
L 223.673287 212.840602 
L 224.759088 212.865146 
L 225.844889 240.953893 
L 226.93069 237.936394 
L 228.016491 233.496405 
L 229.102292 239.555592 
L 230.188094 232.882803 
L 231.273895 237.274059 
L 232.359696 233.545137 
L 233.445497 233.373684 
L 234.531298 234.575633 
L 235.617099 226.627263 
L 236.702901 225.572579 
L 237.788702 229.374777 
L 238.874503 231.926295 
L 239.960304 241.027525 
L 241.046105 238.623272 
L 242.131906 226.921792 
L 243.217708 236.538092 
L 244.303509 238.083658 
L 245.38931 236.023022 
L 246.475111 235.360688 
L 247.560912 230.675258 
L 248.646713 227.976476 
L 249.732514 231.975383 
L 250.818316 225.032609 
L 251.904117 237.224971 
L 252.989918 237.764941 
L 254.075719 235.55704 
L 255.16152 229.006972 
L 256.247321 229.767483 
L 257.333123 225.52349 
L 258.418924 233.716946 
L 259.504725 224.198821 
L 260.590526 231.65631 
L 261.676327 237.102251 
L 262.762128 227.265053 
L 263.847929 237.102251 
L 264.933731 232.637717 
L 266.019532 227.584126 
L 267.105333 228.025564 
L 269.276935 246.866171 
L 270.362736 223.977925 
L 271.448538 242.352194 
L 272.534339 236.88171 
L 273.62014 236.047566 
L 274.705941 230.601626 
L 275.791742 221.279498 
L 276.877543 231.558133 
L 277.963344 227.240509 
L 279.049146 236.317551 
L 280.134947 235.924846 
L 281.220748 228.835163 
L 282.306549 237.175883 
L 283.39235 224.861156 
L 284.478151 229.865659 
L 285.563953 230.356185 
L 286.649754 222.064553 
L 287.735555 221.500039 
L 288.821356 220.445355 
L 289.907157 236.219375 
L 290.992958 214.189815 
L 292.07876 218.777069 
L 293.164561 221.205866 
L 294.250362 221.647304 
L 295.336163 227.289597 
L 296.421964 223.806116 
L 297.507765 227.706847 
L 298.593566 230.037112 
L 299.679368 234.526545 
L 301.85097 216.618257 
L 304.022572 233.324596 
L 305.108373 219.365771 
L 306.194175 230.552537 
L 308.365777 221.549128 
L 309.451578 222.751432 
L 310.537379 226.185825 
L 311.62318 217.06005 
L 312.708981 226.087649 
L 313.794783 225.817664 
L 314.880584 229.57113 
L 315.966385 221.990921 
L 318.137987 227.387774 
L 319.223788 221.917289 
L 320.30959 232.17138 
L 321.395391 222.064553 
L 322.481192 224.615715 
L 323.566993 221.573672 
L 324.652794 224.861046 
L 325.738595 220.960487 
L 326.824396 221.205805 
L 327.910198 217.354309 
L 328.995999 218.752623 
L 330.0818 221.671909 
L 331.167601 210.681655 
L 332.253402 212.693264 
L 333.339203 228.761604 
L 334.425005 222.604118 
L 335.510806 221.377527 
L 336.596607 216.667419 
L 337.682408 210.289146 
L 339.85401 217.452437 
L 340.939811 213.919855 
L 342.025613 215.710678 
L 343.111414 221.966291 
L 344.197215 218.703559 
L 345.283016 223.658986 
L 346.368817 214.53315 
L 347.454618 212.76686 
L 348.54042 215.170978 
L 349.626221 210.730719 
L 350.712022 216.127719 
L 351.797823 213.870791 
L 352.883624 208.130346 
L 353.969425 212.349819 
L 355.055227 215.686146 
L 356.141028 210.509932 
L 357.226829 208.400196 
L 358.31263 212.815923 
L 359.398431 213.650005 
L 360.484232 211.442142 
L 361.570033 214.901128 
L 362.655835 211.736523 
L 364.827437 210.60806 
L 365.913238 214.508619 
L 366.999039 212.472478 
L 368.08484 208.670046 
L 369.170642 218.556368 
L 370.256443 221.181273 
L 371.342244 212.619669 
L 372.428045 213.282028 
L 373.513846 213.625473 
L 374.599647 218.335582 
L 375.685448 210.926973 
L 376.77125 215.538955 
L 377.857051 209.136151 
L 378.942852 215.931464 
L 380.028653 216.176782 
L 381.114454 219.733896 
L 382.200255 216.348505 
L 383.286057 211.589332 
L 384.371858 214.680341 
L 385.457659 222.579587 
L 386.54346 215.269105 
L 387.629261 219.611237 
L 388.715062 217.77135 
L 389.800863 220.101873 
L 390.886665 213.625473 
L 391.972466 215.637082 
L 393.058267 221.941759 
L 394.144068 219.464046 
L 395.229869 216.446632 
L 396.31567 216.00506 
L 397.401472 219.292323 
L 398.487273 217.256182 
L 398.487273 217.256182 
" clip-path="url(#p607529de20)" style="fill: none; stroke: #2ca02c; stroke-width: 1.5; stroke-linecap: square"/>
   </g>
   <g id="line2d_21">
    <path d="M 368.08484 80.292594 
L 369.170642 82.249006 
L 370.256443 83.707423 
L 371.342244 89.718944 
L 372.428045 87.940388 
L 373.513846 97.224454 
L 374.599647 94.023052 
L 375.685448 94.307621 
L 376.77125 95.303613 
L 378.942852 99.714433 
L 380.028653 103.733972 
L 381.114454 102.844693 
L 382.200255 98.36273 
L 384.371858 108.71393 
L 385.457659 106.330664 
L 386.54346 105.192388 
L 387.629261 105.26353 
L 388.715062 110.741485 
L 389.800863 113.622747 
L 390.886665 114.97445 
L 391.972466 114.938879 
L 393.058267 117.144289 
L 394.144068 126.428356 
L 395.229869 133.329156 
L 396.31567 129.096191 
L 397.401472 137.704405 
L 398.487273 122.124248 
L 398.487273 122.124248 
" clip-path="url(#p607529de20)" style="fill: none; stroke: #d62728; stroke-width: 1.5; stroke-linecap: square"/>
   </g>
   <g id="line2d_22">
    <path d="M 368.08484 211.123228 
L 369.170642 216.127719 
L 370.256443 219.684832 
L 371.342244 218.531837 
L 372.428045 213.30656 
L 374.599647 231.411041 
L 375.685448 225.646064 
L 376.77125 220.862359 
L 377.857051 230.380704 
L 378.942852 230.675086 
L 380.028653 232.514972 
L 381.114454 227.927523 
L 382.200255 221.696441 
L 383.286057 224.296814 
L 384.371858 239.138563 
L 385.457659 232.024336 
L 386.54346 229.791941 
L 387.629261 229.890068 
L 388.715062 234.134072 
L 389.800863 236.096618 
L 390.886665 239.678263 
L 391.972466 240.487813 
L 393.058267 238.108227 
L 394.144068 243.775077 
L 395.229869 245.860281 
L 396.31567 249.49099 
L 397.401472 253.80859 
L 398.487273 241.12564 
L 398.487273 241.12564 
" clip-path="url(#p607529de20)" style="fill: none; stroke: #9467bd; stroke-width: 1.5; stroke-linecap: square"/>
   </g>
   <g id="patch_3">
    <path d="M 57.6 307.584 
L 57.6 41.472 
" style="fill: none; stroke: #000000; stroke-width: 0.8; stroke-linejoin: miter; stroke-linecap: square"/>
   </g>
   <g id="patch_4">
    <path d="M 414.72 307.584 
L 414.72 41.472 
" style="fill: none; stroke: #000000; stroke-width: 0.8; stroke-linejoin: miter; stroke-linecap: square"/>
   </g>
   <g id="patch_5">
    <path d="M 57.6 307.584 
L 414.72 307.584 
" style="fill: none; stroke: #000000; stroke-width: 0.8; stroke-linejoin: miter; stroke-linecap: square"/>
   </g>
   <g id="patch_6">
    <path d="M 57.6 41.472 
L 414.72 41.472 
" style="fill: none; stroke: #000000; stroke-width: 0.8; stroke-linejoin: miter; stroke-linecap: square"/>
   </g>
   <g id="text_20">
    <!-- Learning Curves -->
    <g transform="translate(187.37625 35.472) scale(0.12 -0.12)">
     <defs>
      <path id="DejaVuSans-4c" d="M 628 4666 
L 1259 4666 
L 1259 531 
L 3531 531 
L 3531 0 
L 628 0 
L 628 4666 
z
" transform="scale(0.015625)"/>
      <path id="DejaVuSans-65" d="M 3597 1894 
L 3597 1613 
L 953 1613 
Q 991 1019 1311 708 
Q 1631 397 2203 397 
Q 2534 397 2845 478 
Q 3156 559 3463 722 
L 3463 178 
Q 3153 47 2828 -22 
Q 2503 -91 2169 -91 
Q 1331 -91 842 396 
Q 353 884 353 1716 
Q 353 2575 817 3079 
Q 1281 3584 2069 3584 
Q 2775 3584 3186 3129 
Q 3597 2675 3597 1894 
z
M 3022 2063 
Q 3016 2534 2758 2815 
Q 2500 3097 2075 3097 
Q 1594 3097 1305 2825 
Q 1016 2553 972 2059 
L 3022 2063 
z
" transform="scale(0.015625)"/>
      <path id="DejaVuSans-6e" d="M 3513 2113 
L 3513 0 
L 2938 0 
L 2938 2094 
Q 2938 2591 2744 2837 
Q 2550 3084 2163 3084 
Q 1697 3084 1428 2787 
Q 1159 2491 1159 1978 
L 1159 0 
L 581 0 
L 581 3500 
L 1159 3500 
L 1159 2956 
Q 1366 3272 1645 3428 
Q 1925 3584 2291 3584 
Q 2894 3584 3203 3211 
Q 3513 2838 3513 2113 
z
" transform="scale(0.015625)"/>
      <path id="DejaVuSans-69" d="M 603 3500 
L 1178 3500 
L 1178 0 
L 603 0 
L 603 3500 
z
M 603 4863 
L 1178 4863 
L 1178 4134 
L 603 4134 
L 603 4863 
z
" transform="scale(0.015625)"/>
      <path id="DejaVuSans-67" d="M 2906 1791 
Q 2906 2416 2648 2759 
Q 2391 3103 1925 3103 
Q 1463 3103 1205 2759 
Q 947 2416 947 1791 
Q 947 1169 1205 825 
Q 1463 481 1925 481 
Q 2391 481 2648 825 
Q 2906 1169 2906 1791 
z
M 3481 434 
Q 3481 -459 3084 -895 
Q 2688 -1331 1869 -1331 
Q 1566 -1331 1297 -1286 
Q 1028 -1241 775 -1147 
L 775 -588 
Q 1028 -725 1275 -790 
Q 1522 -856 1778 -856 
Q 2344 -856 2625 -561 
Q 2906 -266 2906 331 
L 2906 616 
Q 2728 306 2450 153 
Q 2172 0 1784 0 
Q 1141 0 747 490 
Q 353 981 353 1791 
Q 353 2603 747 3093 
Q 1141 3584 1784 3584 
Q 2172 3584 2450 3431 
Q 2728 3278 2906 2969 
L 2906 3500 
L 3481 3500 
L 3481 434 
z
" transform="scale(0.015625)"/>
      <path id="DejaVuSans-20" transform="scale(0.015625)"/>
      <path id="DejaVuSans-43" d="M 4122 4306 
L 4122 3641 
Q 3803 3938 3442 4084 
Q 3081 4231 2675 4231 
Q 1875 4231 1450 3742 
Q 1025 3253 1025 2328 
Q 1025 1406 1450 917 
Q 1875 428 2675 428 
Q 3081 428 3442 575 
Q 3803 722 4122 1019 
L 4122 359 
Q 3791 134 3420 21 
Q 3050 -91 2638 -91 
Q 1578 -91 968 557 
Q 359 1206 359 2328 
Q 359 3453 968 4101 
Q 1578 4750 2638 4750 
Q 3056 4750 3426 4639 
Q 3797 4528 4122 4306 
z
" transform="scale(0.015625)"/>
      <path id="DejaVuSans-76" d="M 191 3500 
L 800 3500 
L 1894 563 
L 2988 3500 
L 3597 3500 
L 2284 0 
L 1503 0 
L 191 3500 
z
" transform="scale(0.015625)"/>
     </defs>
     <use xlink:href="#DejaVuSans-4c"/>
     <use xlink:href="#DejaVuSans-65" x="53.962891"/>
     <use xlink:href="#DejaVuSans-61" x="115.486328"/>
     <use xlink:href="#DejaVuSans-72" x="176.765625"/>
     <use xlink:href="#DejaVuSans-6e" x="216.128906"/>
     <use xlink:href="#DejaVuSans-69" x="279.507812"/>
     <use xlink:href="#DejaVuSans-6e" x="307.291016"/>
     <use xlink:href="#DejaVuSans-67" x="370.669922"/>
     <use xlink:href="#DejaVuSans-20" x="434.146484"/>
     <use xlink:href="#DejaVuSans-43" x="465.933594"/>
     <use xlink:href="#DejaVuSans-75" x="535.757812"/>
     <use xlink:href="#DejaVuSans-72" x="599.136719"/>
     <use xlink:href="#DejaVuSans-76" x="640.25"/>
     <use xlink:href="#DejaVuSans-65" x="699.429688"/>
     <use xlink:href="#DejaVuSans-73" x="760.953125"/>
    </g>
   </g>
   <g id="legend_1">
    <g id="patch_7">
     <path d="M 214.18875 212.723313 
L 407.72 212.723313 
Q 409.72 212.723313 409.72 210.723313 
L 409.72 138.332688 
Q 409.72 136.332688 407.72 136.332688 
L 214.18875 136.332688 
Q 212.18875 136.332688 212.18875 138.332688 
L 212.18875 210.723313 
Q 212.18875 212.723313 214.18875 212.723313 
z
" style="fill: #ffffff; opacity: 0.8; stroke: #cccccc; stroke-linejoin: miter"/>
    </g>
    <g id="line2d_23">
     <path d="M 216.18875 144.431125 
L 226.18875 144.431125 
L 236.18875 144.431125 
" style="fill: none; stroke: #1f77b4; stroke-width: 1.5; stroke-linecap: square"/>
    </g>
    <g id="text_21">
     <!-- Train Accuracy -->
     <g transform="translate(244.18875 147.931125) scale(0.1 -0.1)">
      <defs>
       <path id="DejaVuSans-54" d="M -19 4666 
L 3928 4666 
L 3928 4134 
L 2272 4134 
L 2272 0 
L 1638 0 
L 1638 4134 
L -19 4134 
L -19 4666 
z
" transform="scale(0.015625)"/>
      </defs>
      <use xlink:href="#DejaVuSans-54"/>
      <use xlink:href="#DejaVuSans-72" x="46.333984"/>
      <use xlink:href="#DejaVuSans-61" x="87.447266"/>
      <use xlink:href="#DejaVuSans-69" x="148.726562"/>
      <use xlink:href="#DejaVuSans-6e" x="176.509766"/>
      <use xlink:href="#DejaVuSans-20" x="239.888672"/>
      <use xlink:href="#DejaVuSans-41" x="271.675781"/>
      <use xlink:href="#DejaVuSans-63" x="338.333984"/>
      <use xlink:href="#DejaVuSans-63" x="393.314453"/>
      <use xlink:href="#DejaVuSans-75" x="448.294922"/>
      <use xlink:href="#DejaVuSans-72" x="511.673828"/>
      <use xlink:href="#DejaVuSans-61" x="552.787109"/>
      <use xlink:href="#DejaVuSans-63" x="614.066406"/>
      <use xlink:href="#DejaVuSans-79" x="669.046875"/>
     </g>
    </g>
    <g id="line2d_24">
     <path d="M 216.18875 159.10925 
L 226.18875 159.10925 
L 236.18875 159.10925 
" style="fill: none; stroke: #ff7f0e; stroke-width: 1.5; stroke-linecap: square"/>
    </g>
    <g id="text_22">
     <!-- Validation Accuracy -->
     <g transform="translate(244.18875 162.60925) scale(0.1 -0.1)">
      <defs>
       <path id="DejaVuSans-56" d="M 1831 0 
L 50 4666 
L 709 4666 
L 2188 738 
L 3669 4666 
L 4325 4666 
L 2547 0 
L 1831 0 
z
" transform="scale(0.015625)"/>
       <path id="DejaVuSans-6c" d="M 603 4863 
L 1178 4863 
L 1178 0 
L 603 0 
L 603 4863 
z
" transform="scale(0.015625)"/>
       <path id="DejaVuSans-64" d="M 2906 2969 
L 2906 4863 
L 3481 4863 
L 3481 0 
L 2906 0 
L 2906 525 
Q 2725 213 2448 61 
Q 2172 -91 1784 -91 
Q 1150 -91 751 415 
Q 353 922 353 1747 
Q 353 2572 751 3078 
Q 1150 3584 1784 3584 
Q 2172 3584 2448 3432 
Q 2725 3281 2906 2969 
z
M 947 1747 
Q 947 1113 1208 752 
Q 1469 391 1925 391 
Q 2381 391 2643 752 
Q 2906 1113 2906 1747 
Q 2906 2381 2643 2742 
Q 2381 3103 1925 3103 
Q 1469 3103 1208 2742 
Q 947 2381 947 1747 
z
" transform="scale(0.015625)"/>
       <path id="DejaVuSans-74" d="M 1172 4494 
L 1172 3500 
L 2356 3500 
L 2356 3053 
L 1172 3053 
L 1172 1153 
Q 1172 725 1289 603 
Q 1406 481 1766 481 
L 2356 481 
L 2356 0 
L 1766 0 
Q 1100 0 847 248 
Q 594 497 594 1153 
L 594 3053 
L 172 3053 
L 172 3500 
L 594 3500 
L 594 4494 
L 1172 4494 
z
" transform="scale(0.015625)"/>
      </defs>
      <use xlink:href="#DejaVuSans-56"/>
      <use xlink:href="#DejaVuSans-61" x="60.658203"/>
      <use xlink:href="#DejaVuSans-6c" x="121.9375"/>
      <use xlink:href="#DejaVuSans-69" x="149.720703"/>
      <use xlink:href="#DejaVuSans-64" x="177.503906"/>
      <use xlink:href="#DejaVuSans-61" x="240.980469"/>
      <use xlink:href="#DejaVuSans-74" x="302.259766"/>
      <use xlink:href="#DejaVuSans-69" x="341.46875"/>
      <use xlink:href="#DejaVuSans-6f" x="369.251953"/>
      <use xlink:href="#DejaVuSans-6e" x="430.433594"/>
      <use xlink:href="#DejaVuSans-20" x="493.8125"/>
      <use xlink:href="#DejaVuSans-41" x="525.599609"/>
      <use xlink:href="#DejaVuSans-63" x="592.257812"/>
      <use xlink:href="#DejaVuSans-63" x="647.238281"/>
      <use xlink:href="#DejaVuSans-75" x="702.21875"/>
      <use xlink:href="#DejaVuSans-72" x="765.597656"/>
      <use xlink:href="#DejaVuSans-61" x="806.710938"/>
      <use xlink:href="#DejaVuSans-63" x="867.990234"/>
      <use xlink:href="#DejaVuSans-79" x="922.970703"/>
     </g>
    </g>
    <g id="line2d_25">
     <path d="M 216.18875 173.787375 
L 226.18875 173.787375 
L 236.18875 173.787375 
" style="fill: none; stroke: #2ca02c; stroke-width: 1.5; stroke-linecap: square"/>
    </g>
    <g id="text_23">
     <!-- Robust Validation Accuracy -->
     <g transform="translate(244.18875 177.287375) scale(0.1 -0.1)">
      <defs>
       <path id="DejaVuSans-52" d="M 2841 2188 
Q 3044 2119 3236 1894 
Q 3428 1669 3622 1275 
L 4263 0 
L 3584 0 
L 2988 1197 
Q 2756 1666 2539 1819 
Q 2322 1972 1947 1972 
L 1259 1972 
L 1259 0 
L 628 0 
L 628 4666 
L 2053 4666 
Q 2853 4666 3247 4331 
Q 3641 3997 3641 3322 
Q 3641 2881 3436 2590 
Q 3231 2300 2841 2188 
z
M 1259 4147 
L 1259 2491 
L 2053 2491 
Q 2509 2491 2742 2702 
Q 2975 2913 2975 3322 
Q 2975 3731 2742 3939 
Q 2509 4147 2053 4147 
L 1259 4147 
z
" transform="scale(0.015625)"/>
       <path id="DejaVuSans-62" d="M 3116 1747 
Q 3116 2381 2855 2742 
Q 2594 3103 2138 3103 
Q 1681 3103 1420 2742 
Q 1159 2381 1159 1747 
Q 1159 1113 1420 752 
Q 1681 391 2138 391 
Q 2594 391 2855 752 
Q 3116 1113 3116 1747 
z
M 1159 2969 
Q 1341 3281 1617 3432 
Q 1894 3584 2278 3584 
Q 2916 3584 3314 3078 
Q 3713 2572 3713 1747 
Q 3713 922 3314 415 
Q 2916 -91 2278 -91 
Q 1894 -91 1617 61 
Q 1341 213 1159 525 
L 1159 0 
L 581 0 
L 581 4863 
L 1159 4863 
L 1159 2969 
z
" transform="scale(0.015625)"/>
      </defs>
      <use xlink:href="#DejaVuSans-52"/>
      <use xlink:href="#DejaVuSans-6f" x="64.982422"/>
      <use xlink:href="#DejaVuSans-62" x="126.164062"/>
      <use xlink:href="#DejaVuSans-75" x="189.640625"/>
      <use xlink:href="#DejaVuSans-73" x="253.019531"/>
      <use xlink:href="#DejaVuSans-74" x="305.119141"/>
      <use xlink:href="#DejaVuSans-20" x="344.328125"/>
      <use xlink:href="#DejaVuSans-56" x="376.115234"/>
      <use xlink:href="#DejaVuSans-61" x="436.773438"/>
      <use xlink:href="#DejaVuSans-6c" x="498.052734"/>
      <use xlink:href="#DejaVuSans-69" x="525.835938"/>
      <use xlink:href="#DejaVuSans-64" x="553.619141"/>
      <use xlink:href="#DejaVuSans-61" x="617.095703"/>
      <use xlink:href="#DejaVuSans-74" x="678.375"/>
      <use xlink:href="#DejaVuSans-69" x="717.583984"/>
      <use xlink:href="#DejaVuSans-6f" x="745.367188"/>
      <use xlink:href="#DejaVuSans-6e" x="806.548828"/>
      <use xlink:href="#DejaVuSans-20" x="869.927734"/>
      <use xlink:href="#DejaVuSans-41" x="901.714844"/>
      <use xlink:href="#DejaVuSans-63" x="968.373047"/>
      <use xlink:href="#DejaVuSans-63" x="1023.353516"/>
      <use xlink:href="#DejaVuSans-75" x="1078.333984"/>
      <use xlink:href="#DejaVuSans-72" x="1141.712891"/>
      <use xlink:href="#DejaVuSans-61" x="1182.826172"/>
      <use xlink:href="#DejaVuSans-63" x="1244.105469"/>
      <use xlink:href="#DejaVuSans-79" x="1299.085938"/>
     </g>
    </g>
    <g id="line2d_26">
     <path d="M 216.18875 188.4655 
L 226.18875 188.4655 
L 236.18875 188.4655 
" style="fill: none; stroke: #d62728; stroke-width: 1.5; stroke-linecap: square"/>
    </g>
    <g id="text_24">
     <!-- SWA Validation Accuracy -->
     <g transform="translate(244.18875 191.9655) scale(0.1 -0.1)">
      <defs>
       <path id="DejaVuSans-53" d="M 3425 4513 
L 3425 3897 
Q 3066 4069 2747 4153 
Q 2428 4238 2131 4238 
Q 1616 4238 1336 4038 
Q 1056 3838 1056 3469 
Q 1056 3159 1242 3001 
Q 1428 2844 1947 2747 
L 2328 2669 
Q 3034 2534 3370 2195 
Q 3706 1856 3706 1288 
Q 3706 609 3251 259 
Q 2797 -91 1919 -91 
Q 1588 -91 1214 -16 
Q 841 59 441 206 
L 441 856 
Q 825 641 1194 531 
Q 1563 422 1919 422 
Q 2459 422 2753 634 
Q 3047 847 3047 1241 
Q 3047 1584 2836 1778 
Q 2625 1972 2144 2069 
L 1759 2144 
Q 1053 2284 737 2584 
Q 422 2884 422 3419 
Q 422 4038 858 4394 
Q 1294 4750 2059 4750 
Q 2388 4750 2728 4690 
Q 3069 4631 3425 4513 
z
" transform="scale(0.015625)"/>
       <path id="DejaVuSans-57" d="M 213 4666 
L 850 4666 
L 1831 722 
L 2809 4666 
L 3519 4666 
L 4500 722 
L 5478 4666 
L 6119 4666 
L 4947 0 
L 4153 0 
L 3169 4050 
L 2175 0 
L 1381 0 
L 213 4666 
z
" transform="scale(0.015625)"/>
      </defs>
      <use xlink:href="#DejaVuSans-53"/>
      <use xlink:href="#DejaVuSans-57" x="63.476562"/>
      <use xlink:href="#DejaVuSans-41" x="156.853516"/>
      <use xlink:href="#DejaVuSans-20" x="225.261719"/>
      <use xlink:href="#DejaVuSans-56" x="257.048828"/>
      <use xlink:href="#DejaVuSans-61" x="317.707031"/>
      <use xlink:href="#DejaVuSans-6c" x="378.986328"/>
      <use xlink:href="#DejaVuSans-69" x="406.769531"/>
      <use xlink:href="#DejaVuSans-64" x="434.552734"/>
      <use xlink:href="#DejaVuSans-61" x="498.029297"/>
      <use xlink:href="#DejaVuSans-74" x="559.308594"/>
      <use xlink:href="#DejaVuSans-69" x="598.517578"/>
      <use xlink:href="#DejaVuSans-6f" x="626.300781"/>
      <use xlink:href="#DejaVuSans-6e" x="687.482422"/>
      <use xlink:href="#DejaVuSans-20" x="750.861328"/>
      <use xlink:href="#DejaVuSans-41" x="782.648438"/>
      <use xlink:href="#DejaVuSans-63" x="849.306641"/>
      <use xlink:href="#DejaVuSans-63" x="904.287109"/>
      <use xlink:href="#DejaVuSans-75" x="959.267578"/>
      <use xlink:href="#DejaVuSans-72" x="1022.646484"/>
      <use xlink:href="#DejaVuSans-61" x="1063.759766"/>
      <use xlink:href="#DejaVuSans-63" x="1125.039062"/>
      <use xlink:href="#DejaVuSans-79" x="1180.019531"/>
     </g>
    </g>
    <g id="line2d_27">
     <path d="M 216.18875 203.143625 
L 226.18875 203.143625 
L 236.18875 203.143625 
" style="fill: none; stroke: #9467bd; stroke-width: 1.5; stroke-linecap: square"/>
    </g>
    <g id="text_25">
     <!-- SWA Robust Validation Accuracy -->
     <g transform="translate(244.18875 206.643625) scale(0.1 -0.1)">
      <use xlink:href="#DejaVuSans-53"/>
      <use xlink:href="#DejaVuSans-57" x="63.476562"/>
      <use xlink:href="#DejaVuSans-41" x="156.853516"/>
      <use xlink:href="#DejaVuSans-20" x="225.261719"/>
      <use xlink:href="#DejaVuSans-52" x="257.048828"/>
      <use xlink:href="#DejaVuSans-6f" x="322.03125"/>
      <use xlink:href="#DejaVuSans-62" x="383.212891"/>
      <use xlink:href="#DejaVuSans-75" x="446.689453"/>
      <use xlink:href="#DejaVuSans-73" x="510.068359"/>
      <use xlink:href="#DejaVuSans-74" x="562.167969"/>
      <use xlink:href="#DejaVuSans-20" x="601.376953"/>
      <use xlink:href="#DejaVuSans-56" x="633.164062"/>
      <use xlink:href="#DejaVuSans-61" x="693.822266"/>
      <use xlink:href="#DejaVuSans-6c" x="755.101562"/>
      <use xlink:href="#DejaVuSans-69" x="782.884766"/>
      <use xlink:href="#DejaVuSans-64" x="810.667969"/>
      <use xlink:href="#DejaVuSans-61" x="874.144531"/>
      <use xlink:href="#DejaVuSans-74" x="935.423828"/>
      <use xlink:href="#DejaVuSans-69" x="974.632812"/>
      <use xlink:href="#DejaVuSans-6f" x="1002.416016"/>
      <use xlink:href="#DejaVuSans-6e" x="1063.597656"/>
      <use xlink:href="#DejaVuSans-20" x="1126.976562"/>
      <use xlink:href="#DejaVuSans-41" x="1158.763672"/>
      <use xlink:href="#DejaVuSans-63" x="1225.421875"/>
      <use xlink:href="#DejaVuSans-63" x="1280.402344"/>
      <use xlink:href="#DejaVuSans-75" x="1335.382812"/>
      <use xlink:href="#DejaVuSans-72" x="1398.761719"/>
      <use xlink:href="#DejaVuSans-61" x="1439.875"/>
      <use xlink:href="#DejaVuSans-63" x="1501.154297"/>
      <use xlink:href="#DejaVuSans-79" x="1556.134766"/>
     </g>
    </g>
   </g>
  </g>
 </g>
 <defs>
  <clipPath id="p607529de20">
   <rect x="57.6" y="41.472" width="357.12" height="266.112"/>
  </clipPath>
 </defs>
</svg>
