<?xml version="1.0" encoding="utf-8" standalone="no"?>
<!DOCTYPE svg PUBLIC "-//W3C//DTD SVG 1.1//EN"
  "http://www.w3.org/Graphics/SVG/1.1/DTD/svg11.dtd">
<svg xmlns:xlink="http://www.w3.org/1999/xlink" width="460.8pt" height="345.6pt" viewBox="0 0 460.8 345.6" xmlns="http://www.w3.org/2000/svg" version="1.1">
 <metadata>
  <rdf:RDF xmlns:dc="http://purl.org/dc/elements/1.1/" xmlns:cc="http://creativecommons.org/ns#" xmlns:rdf="http://www.w3.org/1999/02/22-rdf-syntax-ns#">
   <cc:Work>
    <dc:type rdf:resource="http://purl.org/dc/dcmitype/StillImage"/>
    <dc:date>2025-09-10T01:16:25.888616</dc:date>
    <dc:format>image/svg+xml</dc:format>
    <dc:creator>
     <cc:Agent>
      <dc:title>Matplotlib v3.9.1, https://matplotlib.org/</dc:title>
     </cc:Agent>
    </dc:creator>
   </cc:Work>
  </rdf:RDF>
 </metadata>
 <defs>
  <style type="text/css">*{stroke-linejoin: round; stroke-linecap: butt}</style>
 </defs>
 <g id="figure_1">
  <g id="patch_1">
   <path d="M 0 345.6 
L 460.8 345.6 
L 460.8 0 
L 0 0 
z
" style="fill: #ffffff"/>
  </g>
  <g id="axes_1">
   <g id="patch_2">
    <path d="M 57.6 307.584 
L 414.72 307.584 
L 414.72 41.472 
L 57.6 41.472 
z
" style="fill: #ffffff"/>
   </g>
   <g id="matplotlib.axis_1">
    <g id="xtick_1">
     <g id="line2d_1">
      <defs>
       <path id="ma945195962" d="M 0 0 
L 0 3.5 
" style="stroke: #000000; stroke-width: 0.8"/>
      </defs>
      <g>
       <use xlink:href="#ma945195962" x="73.832727" y="307.584" style="stroke: #000000; stroke-width: 0.8"/>
      </g>
     </g>
     <g id="text_1">
      <!-- 1 -->
      <g transform="translate(70.651477 322.182437) scale(0.1 -0.1)">
       <defs>
        <path id="DejaVuSans-31" d="M 794 531 
L 1825 531 
L 1825 4091 
L 703 3866 
L 703 4441 
L 1819 4666 
L 2450 4666 
L 2450 531 
L 3481 531 
L 3481 0 
L 794 0 
L 794 531 
z
" transform="scale(0.015625)"/>
       </defs>
       <use xlink:href="#DejaVuSans-31"/>
      </g>
     </g>
    </g>
    <g id="xtick_2">
     <g id="line2d_2">
      <g>
       <use xlink:href="#ma945195962" x="109.664165" y="307.584" style="stroke: #000000; stroke-width: 0.8"/>
      </g>
     </g>
     <g id="text_2">
      <!-- 34 -->
      <g transform="translate(103.301665 322.182437) scale(0.1 -0.1)">
       <defs>
        <path id="DejaVuSans-33" d="M 2597 2516 
Q 3050 2419 3304 2112 
Q 3559 1806 3559 1356 
Q 3559 666 3084 287 
Q 2609 -91 1734 -91 
Q 1441 -91 1130 -33 
Q 819 25 488 141 
L 488 750 
Q 750 597 1062 519 
Q 1375 441 1716 441 
Q 2309 441 2620 675 
Q 2931 909 2931 1356 
Q 2931 1769 2642 2001 
Q 2353 2234 1838 2234 
L 1294 2234 
L 1294 2753 
L 1863 2753 
Q 2328 2753 2575 2939 
Q 2822 3125 2822 3475 
Q 2822 3834 2567 4026 
Q 2313 4219 1838 4219 
Q 1578 4219 1281 4162 
Q 984 4106 628 3988 
L 628 4550 
Q 988 4650 1302 4700 
Q 1616 4750 1894 4750 
Q 2613 4750 3031 4423 
Q 3450 4097 3450 3541 
Q 3450 3153 3228 2886 
Q 3006 2619 2597 2516 
z
" transform="scale(0.015625)"/>
        <path id="DejaVuSans-34" d="M 2419 4116 
L 825 1625 
L 2419 1625 
L 2419 4116 
z
M 2253 4666 
L 3047 4666 
L 3047 1625 
L 3713 1625 
L 3713 1100 
L 3047 1100 
L 3047 0 
L 2419 0 
L 2419 1100 
L 313 1100 
L 313 1709 
L 2253 4666 
z
" transform="scale(0.015625)"/>
       </defs>
       <use xlink:href="#DejaVuSans-33"/>
       <use xlink:href="#DejaVuSans-34" x="63.623047"/>
      </g>
     </g>
    </g>
    <g id="xtick_3">
     <g id="line2d_3">
      <g>
       <use xlink:href="#ma945195962" x="145.495604" y="307.584" style="stroke: #000000; stroke-width: 0.8"/>
      </g>
     </g>
     <g id="text_3">
      <!-- 67 -->
      <g transform="translate(139.133104 322.182437) scale(0.1 -0.1)">
       <defs>
        <path id="DejaVuSans-36" d="M 2113 2584 
Q 1688 2584 1439 2293 
Q 1191 2003 1191 1497 
Q 1191 994 1439 701 
Q 1688 409 2113 409 
Q 2538 409 2786 701 
Q 3034 994 3034 1497 
Q 3034 2003 2786 2293 
Q 2538 2584 2113 2584 
z
M 3366 4563 
L 3366 3988 
Q 3128 4100 2886 4159 
Q 2644 4219 2406 4219 
Q 1781 4219 1451 3797 
Q 1122 3375 1075 2522 
Q 1259 2794 1537 2939 
Q 1816 3084 2150 3084 
Q 2853 3084 3261 2657 
Q 3669 2231 3669 1497 
Q 3669 778 3244 343 
Q 2819 -91 2113 -91 
Q 1303 -91 875 529 
Q 447 1150 447 2328 
Q 447 3434 972 4092 
Q 1497 4750 2381 4750 
Q 2619 4750 2861 4703 
Q 3103 4656 3366 4563 
z
" transform="scale(0.015625)"/>
        <path id="DejaVuSans-37" d="M 525 4666 
L 3525 4666 
L 3525 4397 
L 1831 0 
L 1172 0 
L 2766 4134 
L 525 4134 
L 525 4666 
z
" transform="scale(0.015625)"/>
       </defs>
       <use xlink:href="#DejaVuSans-36"/>
       <use xlink:href="#DejaVuSans-37" x="63.623047"/>
      </g>
     </g>
    </g>
    <g id="xtick_4">
     <g id="line2d_4">
      <g>
       <use xlink:href="#ma945195962" x="181.327042" y="307.584" style="stroke: #000000; stroke-width: 0.8"/>
      </g>
     </g>
     <g id="text_4">
      <!-- 100 -->
      <g transform="translate(171.783292 322.182437) scale(0.1 -0.1)">
       <defs>
        <path id="DejaVuSans-30" d="M 2034 4250 
Q 1547 4250 1301 3770 
Q 1056 3291 1056 2328 
Q 1056 1369 1301 889 
Q 1547 409 2034 409 
Q 2525 409 2770 889 
Q 3016 1369 3016 2328 
Q 3016 3291 2770 3770 
Q 2525 4250 2034 4250 
z
M 2034 4750 
Q 2819 4750 3233 4129 
Q 3647 3509 3647 2328 
Q 3647 1150 3233 529 
Q 2819 -91 2034 -91 
Q 1250 -91 836 529 
Q 422 1150 422 2328 
Q 422 3509 836 4129 
Q 1250 4750 2034 4750 
z
" transform="scale(0.015625)"/>
       </defs>
       <use xlink:href="#DejaVuSans-31"/>
       <use xlink:href="#DejaVuSans-30" x="63.623047"/>
       <use xlink:href="#DejaVuSans-30" x="127.246094"/>
      </g>
     </g>
    </g>
    <g id="xtick_5">
     <g id="line2d_5">
      <g>
       <use xlink:href="#ma945195962" x="217.15848" y="307.584" style="stroke: #000000; stroke-width: 0.8"/>
      </g>
     </g>
     <g id="text_5">
      <!-- 133 -->
      <g transform="translate(207.61473 322.182437) scale(0.1 -0.1)">
       <use xlink:href="#DejaVuSans-31"/>
       <use xlink:href="#DejaVuSans-33" x="63.623047"/>
       <use xlink:href="#DejaVuSans-33" x="127.246094"/>
      </g>
     </g>
    </g>
    <g id="xtick_6">
     <g id="line2d_6">
      <g>
       <use xlink:href="#ma945195962" x="254.075719" y="307.584" style="stroke: #000000; stroke-width: 0.8"/>
      </g>
     </g>
     <g id="text_6">
      <!-- 167 -->
      <g transform="translate(244.531969 322.182437) scale(0.1 -0.1)">
       <use xlink:href="#DejaVuSans-31"/>
       <use xlink:href="#DejaVuSans-36" x="63.623047"/>
       <use xlink:href="#DejaVuSans-37" x="127.246094"/>
      </g>
     </g>
    </g>
    <g id="xtick_7">
     <g id="line2d_7">
      <g>
       <use xlink:href="#ma945195962" x="289.907157" y="307.584" style="stroke: #000000; stroke-width: 0.8"/>
      </g>
     </g>
     <g id="text_7">
      <!-- 200 -->
      <g transform="translate(280.363407 322.182437) scale(0.1 -0.1)">
       <defs>
        <path id="DejaVuSans-32" d="M 1228 531 
L 3431 531 
L 3431 0 
L 469 0 
L 469 531 
Q 828 903 1448 1529 
Q 2069 2156 2228 2338 
Q 2531 2678 2651 2914 
Q 2772 3150 2772 3378 
Q 2772 3750 2511 3984 
Q 2250 4219 1831 4219 
Q 1534 4219 1204 4116 
Q 875 4013 500 3803 
L 500 4441 
Q 881 4594 1212 4672 
Q 1544 4750 1819 4750 
Q 2544 4750 2975 4387 
Q 3406 4025 3406 3419 
Q 3406 3131 3298 2873 
Q 3191 2616 2906 2266 
Q 2828 2175 2409 1742 
Q 1991 1309 1228 531 
z
" transform="scale(0.015625)"/>
       </defs>
       <use xlink:href="#DejaVuSans-32"/>
       <use xlink:href="#DejaVuSans-30" x="63.623047"/>
       <use xlink:href="#DejaVuSans-30" x="127.246094"/>
      </g>
     </g>
    </g>
    <g id="xtick_8">
     <g id="line2d_8">
      <g>
       <use xlink:href="#ma945195962" x="325.738595" y="307.584" style="stroke: #000000; stroke-width: 0.8"/>
      </g>
     </g>
     <g id="text_8">
      <!-- 233 -->
      <g transform="translate(316.194845 322.182437) scale(0.1 -0.1)">
       <use xlink:href="#DejaVuSans-32"/>
       <use xlink:href="#DejaVuSans-33" x="63.623047"/>
       <use xlink:href="#DejaVuSans-33" x="127.246094"/>
      </g>
     </g>
    </g>
    <g id="xtick_9">
     <g id="line2d_9">
      <g>
       <use xlink:href="#ma945195962" x="361.570033" y="307.584" style="stroke: #000000; stroke-width: 0.8"/>
      </g>
     </g>
     <g id="text_9">
      <!-- 266 -->
      <g transform="translate(352.026283 322.182437) scale(0.1 -0.1)">
       <use xlink:href="#DejaVuSans-32"/>
       <use xlink:href="#DejaVuSans-36" x="63.623047"/>
       <use xlink:href="#DejaVuSans-36" x="127.246094"/>
      </g>
     </g>
    </g>
    <g id="xtick_10">
     <g id="line2d_10">
      <g>
       <use xlink:href="#ma945195962" x="398.487273" y="307.584" style="stroke: #000000; stroke-width: 0.8"/>
      </g>
     </g>
     <g id="text_10">
      <!-- 300 -->
      <g transform="translate(388.943523 322.182437) scale(0.1 -0.1)">
       <use xlink:href="#DejaVuSans-33"/>
       <use xlink:href="#DejaVuSans-30" x="63.623047"/>
       <use xlink:href="#DejaVuSans-30" x="127.246094"/>
      </g>
     </g>
    </g>
    <g id="text_11">
     <!-- Epochs -->
     <g transform="translate(218.244375 335.860562) scale(0.1 -0.1)">
      <defs>
       <path id="DejaVuSans-45" d="M 628 4666 
L 3578 4666 
L 3578 4134 
L 1259 4134 
L 1259 2753 
L 3481 2753 
L 3481 2222 
L 1259 2222 
L 1259 531 
L 3634 531 
L 3634 0 
L 628 0 
L 628 4666 
z
" transform="scale(0.015625)"/>
       <path id="DejaVuSans-70" d="M 1159 525 
L 1159 -1331 
L 581 -1331 
L 581 3500 
L 1159 3500 
L 1159 2969 
Q 1341 3281 1617 3432 
Q 1894 3584 2278 3584 
Q 2916 3584 3314 3078 
Q 3713 2572 3713 1747 
Q 3713 922 3314 415 
Q 2916 -91 2278 -91 
Q 1894 -91 1617 61 
Q 1341 213 1159 525 
z
M 3116 1747 
Q 3116 2381 2855 2742 
Q 2594 3103 2138 3103 
Q 1681 3103 1420 2742 
Q 1159 2381 1159 1747 
Q 1159 1113 1420 752 
Q 1681 391 2138 391 
Q 2594 391 2855 752 
Q 3116 1113 3116 1747 
z
" transform="scale(0.015625)"/>
       <path id="DejaVuSans-6f" d="M 1959 3097 
Q 1497 3097 1228 2736 
Q 959 2375 959 1747 
Q 959 1119 1226 758 
Q 1494 397 1959 397 
Q 2419 397 2687 759 
Q 2956 1122 2956 1747 
Q 2956 2369 2687 2733 
Q 2419 3097 1959 3097 
z
M 1959 3584 
Q 2709 3584 3137 3096 
Q 3566 2609 3566 1747 
Q 3566 888 3137 398 
Q 2709 -91 1959 -91 
Q 1206 -91 779 398 
Q 353 888 353 1747 
Q 353 2609 779 3096 
Q 1206 3584 1959 3584 
z
" transform="scale(0.015625)"/>
       <path id="DejaVuSans-63" d="M 3122 3366 
L 3122 2828 
Q 2878 2963 2633 3030 
Q 2388 3097 2138 3097 
Q 1578 3097 1268 2742 
Q 959 2388 959 1747 
Q 959 1106 1268 751 
Q 1578 397 2138 397 
Q 2388 397 2633 464 
Q 2878 531 3122 666 
L 3122 134 
Q 2881 22 2623 -34 
Q 2366 -91 2075 -91 
Q 1284 -91 818 406 
Q 353 903 353 1747 
Q 353 2603 823 3093 
Q 1294 3584 2113 3584 
Q 2378 3584 2631 3529 
Q 2884 3475 3122 3366 
z
" transform="scale(0.015625)"/>
       <path id="DejaVuSans-68" d="M 3513 2113 
L 3513 0 
L 2938 0 
L 2938 2094 
Q 2938 2591 2744 2837 
Q 2550 3084 2163 3084 
Q 1697 3084 1428 2787 
Q 1159 2491 1159 1978 
L 1159 0 
L 581 0 
L 581 4863 
L 1159 4863 
L 1159 2956 
Q 1366 3272 1645 3428 
Q 1925 3584 2291 3584 
Q 2894 3584 3203 3211 
Q 3513 2838 3513 2113 
z
" transform="scale(0.015625)"/>
       <path id="DejaVuSans-73" d="M 2834 3397 
L 2834 2853 
Q 2591 2978 2328 3040 
Q 2066 3103 1784 3103 
Q 1356 3103 1142 2972 
Q 928 2841 928 2578 
Q 928 2378 1081 2264 
Q 1234 2150 1697 2047 
L 1894 2003 
Q 2506 1872 2764 1633 
Q 3022 1394 3022 966 
Q 3022 478 2636 193 
Q 2250 -91 1575 -91 
Q 1294 -91 989 -36 
Q 684 19 347 128 
L 347 722 
Q 666 556 975 473 
Q 1284 391 1588 391 
Q 1994 391 2212 530 
Q 2431 669 2431 922 
Q 2431 1156 2273 1281 
Q 2116 1406 1581 1522 
L 1381 1569 
Q 847 1681 609 1914 
Q 372 2147 372 2553 
Q 372 3047 722 3315 
Q 1072 3584 1716 3584 
Q 2034 3584 2315 3537 
Q 2597 3491 2834 3397 
z
" transform="scale(0.015625)"/>
      </defs>
      <use xlink:href="#DejaVuSans-45"/>
      <use xlink:href="#DejaVuSans-70" x="63.183594"/>
      <use xlink:href="#DejaVuSans-6f" x="126.660156"/>
      <use xlink:href="#DejaVuSans-63" x="187.841797"/>
      <use xlink:href="#DejaVuSans-68" x="242.822266"/>
      <use xlink:href="#DejaVuSans-73" x="306.201172"/>
     </g>
    </g>
   </g>
   <g id="matplotlib.axis_2">
    <g id="ytick_1">
     <g id="line2d_11">
      <defs>
       <path id="m5ba0b80de9" d="M 0 0 
L -3.5 0 
" style="stroke: #000000; stroke-width: 0.8"/>
      </defs>
      <g>
       <use xlink:href="#m5ba0b80de9" x="57.6" y="273.563659" style="stroke: #000000; stroke-width: 0.8"/>
      </g>
     </g>
     <g id="text_12">
      <!-- 10 -->
      <g transform="translate(37.875 277.362878) scale(0.1 -0.1)">
       <use xlink:href="#DejaVuSans-31"/>
       <use xlink:href="#DejaVuSans-30" x="63.623047"/>
      </g>
     </g>
    </g>
    <g id="ytick_2">
     <g id="line2d_12">
      <g>
       <use xlink:href="#m5ba0b80de9" x="57.6" y="235.951134" style="stroke: #000000; stroke-width: 0.8"/>
      </g>
     </g>
     <g id="text_13">
      <!-- 20 -->
      <g transform="translate(37.875 239.750353) scale(0.1 -0.1)">
       <use xlink:href="#DejaVuSans-32"/>
       <use xlink:href="#DejaVuSans-30" x="63.623047"/>
      </g>
     </g>
    </g>
    <g id="ytick_3">
     <g id="line2d_13">
      <g>
       <use xlink:href="#m5ba0b80de9" x="57.6" y="198.338609" style="stroke: #000000; stroke-width: 0.8"/>
      </g>
     </g>
     <g id="text_14">
      <!-- 30 -->
      <g transform="translate(37.875 202.137828) scale(0.1 -0.1)">
       <use xlink:href="#DejaVuSans-33"/>
       <use xlink:href="#DejaVuSans-30" x="63.623047"/>
      </g>
     </g>
    </g>
    <g id="ytick_4">
     <g id="line2d_14">
      <g>
       <use xlink:href="#m5ba0b80de9" x="57.6" y="160.726084" style="stroke: #000000; stroke-width: 0.8"/>
      </g>
     </g>
     <g id="text_15">
      <!-- 40 -->
      <g transform="translate(37.875 164.525303) scale(0.1 -0.1)">
       <use xlink:href="#DejaVuSans-34"/>
       <use xlink:href="#DejaVuSans-30" x="63.623047"/>
      </g>
     </g>
    </g>
    <g id="ytick_5">
     <g id="line2d_15">
      <g>
       <use xlink:href="#m5ba0b80de9" x="57.6" y="123.113559" style="stroke: #000000; stroke-width: 0.8"/>
      </g>
     </g>
     <g id="text_16">
      <!-- 50 -->
      <g transform="translate(37.875 126.912778) scale(0.1 -0.1)">
       <defs>
        <path id="DejaVuSans-35" d="M 691 4666 
L 3169 4666 
L 3169 4134 
L 1269 4134 
L 1269 2991 
Q 1406 3038 1543 3061 
Q 1681 3084 1819 3084 
Q 2600 3084 3056 2656 
Q 3513 2228 3513 1497 
Q 3513 744 3044 326 
Q 2575 -91 1722 -91 
Q 1428 -91 1123 -41 
Q 819 9 494 109 
L 494 744 
Q 775 591 1075 516 
Q 1375 441 1709 441 
Q 2250 441 2565 725 
Q 2881 1009 2881 1497 
Q 2881 1984 2565 2268 
Q 2250 2553 1709 2553 
Q 1456 2553 1204 2497 
Q 953 2441 691 2322 
L 691 4666 
z
" transform="scale(0.015625)"/>
       </defs>
       <use xlink:href="#DejaVuSans-35"/>
       <use xlink:href="#DejaVuSans-30" x="63.623047"/>
      </g>
     </g>
    </g>
    <g id="ytick_6">
     <g id="line2d_16">
      <g>
       <use xlink:href="#m5ba0b80de9" x="57.6" y="85.501034" style="stroke: #000000; stroke-width: 0.8"/>
      </g>
     </g>
     <g id="text_17">
      <!-- 60 -->
      <g transform="translate(37.875 89.300253) scale(0.1 -0.1)">
       <use xlink:href="#DejaVuSans-36"/>
       <use xlink:href="#DejaVuSans-30" x="63.623047"/>
      </g>
     </g>
    </g>
    <g id="ytick_7">
     <g id="line2d_17">
      <g>
       <use xlink:href="#m5ba0b80de9" x="57.6" y="47.888509" style="stroke: #000000; stroke-width: 0.8"/>
      </g>
     </g>
     <g id="text_18">
      <!-- 70 -->
      <g transform="translate(37.875 51.687727) scale(0.1 -0.1)">
       <use xlink:href="#DejaVuSans-37"/>
       <use xlink:href="#DejaVuSans-30" x="63.623047"/>
      </g>
     </g>
    </g>
    <g id="text_19">
     <!-- Accuracy -->
     <g transform="translate(31.795312 197.356125) rotate(-90) scale(0.1 -0.1)">
      <defs>
       <path id="DejaVuSans-41" d="M 2188 4044 
L 1331 1722 
L 3047 1722 
L 2188 4044 
z
M 1831 4666 
L 2547 4666 
L 4325 0 
L 3669 0 
L 3244 1197 
L 1141 1197 
L 716 0 
L 50 0 
L 1831 4666 
z
" transform="scale(0.015625)"/>
       <path id="DejaVuSans-75" d="M 544 1381 
L 544 3500 
L 1119 3500 
L 1119 1403 
Q 1119 906 1312 657 
Q 1506 409 1894 409 
Q 2359 409 2629 706 
Q 2900 1003 2900 1516 
L 2900 3500 
L 3475 3500 
L 3475 0 
L 2900 0 
L 2900 538 
Q 2691 219 2414 64 
Q 2138 -91 1772 -91 
Q 1169 -91 856 284 
Q 544 659 544 1381 
z
M 1991 3584 
L 1991 3584 
z
" transform="scale(0.015625)"/>
       <path id="DejaVuSans-72" d="M 2631 2963 
Q 2534 3019 2420 3045 
Q 2306 3072 2169 3072 
Q 1681 3072 1420 2755 
Q 1159 2438 1159 1844 
L 1159 0 
L 581 0 
L 581 3500 
L 1159 3500 
L 1159 2956 
Q 1341 3275 1631 3429 
Q 1922 3584 2338 3584 
Q 2397 3584 2469 3576 
Q 2541 3569 2628 3553 
L 2631 2963 
z
" transform="scale(0.015625)"/>
       <path id="DejaVuSans-61" d="M 2194 1759 
Q 1497 1759 1228 1600 
Q 959 1441 959 1056 
Q 959 750 1161 570 
Q 1363 391 1709 391 
Q 2188 391 2477 730 
Q 2766 1069 2766 1631 
L 2766 1759 
L 2194 1759 
z
M 3341 1997 
L 3341 0 
L 2766 0 
L 2766 531 
Q 2569 213 2275 61 
Q 1981 -91 1556 -91 
Q 1019 -91 701 211 
Q 384 513 384 1019 
Q 384 1609 779 1909 
Q 1175 2209 1959 2209 
L 2766 2209 
L 2766 2266 
Q 2766 2663 2505 2880 
Q 2244 3097 1772 3097 
Q 1472 3097 1187 3025 
Q 903 2953 641 2809 
L 641 3341 
Q 956 3463 1253 3523 
Q 1550 3584 1831 3584 
Q 2591 3584 2966 3190 
Q 3341 2797 3341 1997 
z
" transform="scale(0.015625)"/>
       <path id="DejaVuSans-79" d="M 2059 -325 
Q 1816 -950 1584 -1140 
Q 1353 -1331 966 -1331 
L 506 -1331 
L 506 -850 
L 844 -850 
Q 1081 -850 1212 -737 
Q 1344 -625 1503 -206 
L 1606 56 
L 191 3500 
L 800 3500 
L 1894 763 
L 2988 3500 
L 3597 3500 
L 2059 -325 
z
" transform="scale(0.015625)"/>
      </defs>
      <use xlink:href="#DejaVuSans-41"/>
      <use xlink:href="#DejaVuSans-63" x="66.658203"/>
      <use xlink:href="#DejaVuSans-63" x="121.638672"/>
      <use xlink:href="#DejaVuSans-75" x="176.619141"/>
      <use xlink:href="#DejaVuSans-72" x="239.998047"/>
      <use xlink:href="#DejaVuSans-61" x="281.111328"/>
      <use xlink:href="#DejaVuSans-63" x="342.390625"/>
      <use xlink:href="#DejaVuSans-79" x="397.371094"/>
     </g>
    </g>
   </g>
   <g id="line2d_18">
    <path d="M 73.832727 295.488 
L 74.918528 272.969381 
L 77.090131 236.786132 
L 78.175932 221.088921 
L 79.261733 215.746062 
L 80.347534 207.359597 
L 81.433335 197.911707 
L 82.519137 192.073867 
L 83.604938 180.458743 
L 84.690739 173.831416 
L 85.77654 169.342737 
L 89.033943 153.523285 
L 90.119745 149.385155 
L 91.205546 146.118884 
L 92.291347 143.606743 
L 93.377148 141.580933 
L 94.462949 140.204314 
L 95.54875 172.758331 
L 96.634552 170.629462 
L 97.720353 167.676879 
L 100.977756 155.874068 
L 102.063557 155.095865 
L 103.149358 153.023791 
L 104.23516 150.091895 
L 105.320961 147.931807 
L 106.406762 145.048807 
L 107.492563 135.204481 
L 108.578364 139.535563 
L 109.664165 136.054148 
L 110.749967 133.434812 
L 111.835768 130.21706 
L 112.921569 128.211184 
L 114.00737 125.712208 
L 115.093171 123.552121 
L 116.178972 120.827093 
L 118.350575 116.446739 
L 119.436376 113.021742 
L 120.522177 110.955686 
L 121.607978 107.937281 
L 122.693779 105.442066 
L 123.77958 102.589532 
L 124.865382 100.737868 
L 125.951183 104.303159 
L 127.036984 101.549922 
L 128.122785 105.84264 
L 129.208586 96.163809 
L 130.294387 94.477639 
L 131.380189 84.493018 
L 132.46599 82.364149 
L 133.551791 88.242987 
L 134.637592 87.475691 
L 135.723393 85.813218 
L 136.809194 91.786087 
L 137.894995 91.094016 
L 138.980797 139.787191 
L 140.066598 141.82579 
L 141.152399 141.716714 
L 142.2382 139.90379 
L 143.324001 137.748592 
L 144.409802 136.221524 
L 145.495604 135.811547 
L 146.581405 134.694455 
L 147.667206 132.287254 
L 148.753007 131.01595 
L 149.838808 129.176698 
L 150.924609 128.650123 
L 152.01041 126.679226 
L 153.096212 125.445535 
L 154.182013 124.535312 
L 155.267814 124.4977 
L 156.353615 121.73694 
L 157.439416 119.957868 
L 158.525217 119.87512 
L 159.611019 118.769312 
L 160.69682 118.159989 
L 162.868422 114.274615 
L 163.954223 114.04894 
L 165.040024 111.491289 
L 166.125825 110.754083 
L 167.211627 116.520083 
L 168.297428 115.54968 
L 169.383229 114.428827 
L 170.46903 107.493077 
L 171.554831 105.838126 
L 172.640632 103.652838 
L 173.726434 103.622748 
L 174.812235 101.877527 
L 175.898036 100.989872 
L 176.983837 98.966318 
L 178.069638 98.624044 
L 179.155439 96.72085 
L 180.24124 87.776592 
L 181.327042 93.441038 
L 182.412843 92.019284 
L 183.498644 89.991969 
L 185.670246 86.557946 
L 186.756047 86.178059 
L 187.841849 90.217644 
L 188.92765 88.904967 
L 190.013451 86.971684 
L 191.099252 85.328016 
L 192.185053 84.959413 
L 194.356656 81.412552 
L 195.442457 80.118681 
L 196.528258 84.872905 
L 198.69986 83.767096 
L 199.785661 81.43512 
L 200.871462 79.765124 
L 201.957264 77.794227 
L 203.043065 77.19995 
L 204.128866 76.064051 
L 205.214667 74.356443 
L 207.386269 71.930435 
L 208.472071 64.964595 
L 209.557872 63.399914 
L 210.643673 62.271538 
L 211.729474 61.350031 
L 212.815275 60.199088 
L 213.901076 59.428031 
L 214.986877 57.596301 
L 216.072679 57.882157 
L 217.15848 56.577002 
L 218.244281 56.208399 
L 220.415883 55.204145 
L 221.501684 61.58699 
L 222.587486 61.312419 
L 223.673287 69.105734 
L 224.759088 73.844912 
L 225.844889 141.032166 
L 226.93069 145.763821 
L 228.016491 145.395219 
L 229.102292 144.154005 
L 230.188094 143.35662 
L 231.273895 142.058988 
L 232.359696 137.511633 
L 234.531298 135.194702 
L 235.617099 129.989128 
L 236.702901 134.081371 
L 238.874503 132.746127 
L 239.960304 132.520451 
L 241.046105 131.072369 
L 242.131906 131.809575 
L 243.217708 130.68496 
L 244.303509 130.711289 
L 245.38931 134.401078 
L 246.475111 134.401078 
L 247.560912 133.314076 
L 248.646713 132.72732 
L 249.732514 132.351195 
L 250.818316 132.291015 
L 251.904117 131.587661 
L 252.989918 130.741379 
L 254.075719 125.0995 
L 255.16152 124.4977 
L 256.247321 124.147903 
L 257.333123 124.685762 
L 258.418924 124.264502 
L 259.504725 122.959348 
L 261.676327 121.973899 
L 262.762128 122.39516 
L 263.847929 121.37586 
L 264.933731 120.025571 
L 266.019532 119.920255 
L 267.105333 120.063183 
L 268.191134 119.510279 
L 269.276935 118.7317 
L 270.362736 118.562443 
L 271.448538 116.651727 
L 272.534339 117.358843 
L 273.62014 116.734475 
L 275.791742 116.189093 
L 276.877543 114.846326 
L 277.963344 115.075762 
L 280.134947 113.221465 
L 282.306549 112.627187 
L 283.39235 112.09685 
L 284.478151 111.329555 
L 285.563953 111.280658 
L 286.649754 110.900772 
L 287.735555 103.634032 
L 288.821356 103.344416 
L 289.907157 102.178427 
L 290.992958 101.88505 
L 292.07876 100.666404 
L 293.164561 99.639582 
L 294.250362 98.970079 
L 295.336163 99.357488 
L 297.507765 97.518236 
L 299.679368 96.337202 
L 300.765169 95.122318 
L 301.85097 94.968106 
L 304.022572 94.174482 
L 305.108373 97.209813 
L 306.194175 97.296322 
L 307.279976 97.104498 
L 308.365777 96.02878 
L 310.537379 95.979883 
L 311.62318 87.769069 
L 312.708981 86.68959 
L 313.794783 86.907742 
L 314.880584 84.940607 
L 317.052186 83.586556 
L 318.137987 82.96595 
L 319.223788 82.12719 
L 320.30959 81.751065 
L 321.395391 80.607644 
L 322.481192 80.919828 
L 323.566993 79.471746 
L 324.652794 84.583288 
L 325.738595 84.609617 
L 326.824396 83.605363 
L 327.910198 91.881623 
L 328.995999 91.372349 
L 330.0818 90.67426 
L 331.167601 96.783663 
L 332.253402 96.086327 
L 333.339203 95.596236 
L 334.425005 92.80012 
L 335.510806 91.15382 
L 336.596607 90.694571 
L 337.682408 91.485563 
L 338.768209 89.153962 
L 339.85401 88.381777 
L 340.939811 87.764179 
L 342.025613 94.238423 
L 343.111414 92.898665 
L 344.197215 85.715049 
L 345.283016 84.856355 
L 346.368817 85.146348 
L 347.454618 87.938325 
L 348.54042 92.338991 
L 349.626221 99.040791 
L 350.712022 98.037665 
L 351.797823 97.45279 
L 352.883624 97.275635 
L 353.969425 95.853505 
L 355.055227 95.732769 
L 356.141028 94.348628 
L 357.226829 90.104431 
L 358.31263 88.913242 
L 359.398431 89.829107 
L 360.484232 88.883152 
L 361.570033 87.149591 
L 362.655835 87.432061 
L 363.741636 83.904006 
L 364.827437 82.870414 
L 365.913238 83.059229 
L 366.999039 81.440762 
L 368.08484 82.840324 
L 369.170642 84.978972 
L 370.256443 88.73195 
L 371.342244 89.818576 
L 373.513846 91.136895 
L 375.685448 93.56027 
L 376.77125 92.813285 
L 378.942852 99.316114 
L 380.028653 99.006939 
L 381.114454 95.257723 
L 382.200255 95.637609 
L 383.286057 95.426979 
L 384.371858 94.723625 
L 385.457659 94.990674 
L 386.54346 95.893374 
L 388.715062 95.987406 
L 389.800863 96.002451 
L 390.886665 100.519339 
L 391.972466 100.760811 
L 393.058267 105.804275 
L 394.144068 105.465762 
L 395.229869 105.796752 
L 396.31567 110.218105 
L 397.401472 110.078938 
L 398.487273 106.296999 
L 398.487273 106.296999 
" clip-path="url(#p25255be67a)" style="fill: none; stroke: #1f77b4; stroke-width: 1.5; stroke-linecap: square"/>
   </g>
   <g id="line2d_19">
    <path d="M 73.832727 272.849021 
L 74.918528 256.713248 
L 77.090131 213.759744 
L 78.175932 199.128472 
L 79.261733 188.07039 
L 80.347534 186.001701 
L 81.433335 172.574029 
L 83.604938 156.701544 
L 84.690739 154.444792 
L 85.77654 143.612385 
L 86.862341 136.917356 
L 87.948142 131.012189 
L 89.033943 129.394851 
L 90.119745 121.571445 
L 91.205546 123.151171 
L 92.291347 120.819195 
L 93.377148 116.945105 
L 94.462949 116.757042 
L 95.54875 155.272268 
L 96.634552 153.542092 
L 97.720353 143.198647 
L 98.806154 137.331093 
L 99.891955 132.629528 
L 100.977756 130.485614 
L 102.063557 133.419391 
L 103.149358 128.153637 
L 104.23516 122.173246 
L 105.320961 114.349841 
L 106.406762 113.59759 
L 107.492563 113.860878 
L 108.578364 114.914028 
L 109.664165 110.663813 
L 110.749967 106.977786 
L 111.835768 101.900095 
L 112.921569 102.42667 
L 114.00737 96.483891 
L 115.093171 94.52804 
L 116.178972 98.627805 
L 118.350575 89.864087 
L 119.436376 90.428275 
L 120.522177 89.074224 
L 121.607978 84.635946 
L 122.693779 82.341582 
L 123.77958 81.626944 
L 124.865382 77.940916 
L 125.951183 79.33258 
L 127.036984 77.339116 
L 128.122785 72.750388 
L 129.208586 74.894302 
L 130.294387 75.232814 
L 131.380189 70.192736 
L 133.551791 69.967061 
L 134.637592 69.365261 
L 135.723393 68.31211 
L 136.809194 68.876298 
L 137.894995 68.91391 
L 138.980797 108.670349 
L 140.066598 107.579586 
L 141.152399 107.654811 
L 142.2382 112.168314 
L 143.324001 108.670349 
L 144.409802 114.237003 
L 145.495604 104.909097 
L 146.581405 99.041543 
L 147.667206 98.063617 
L 148.753007 100.658881 
L 149.838808 103.818333 
L 150.924609 99.342443 
L 152.01041 102.012932 
L 153.096212 93.362052 
L 154.182013 105.924635 
L 155.267814 95.694028 
L 156.353615 95.43074 
L 157.439416 97.198529 
L 158.525217 95.054615 
L 159.611019 90.992462 
L 161.782621 98.966318 
L 162.868422 86.817472 
L 163.954223 86.704635 
L 165.040024 89.788862 
L 166.125825 88.171523 
L 167.211627 89.187061 
L 168.297428 85.463421 
L 169.383229 83.545182 
L 170.46903 83.05622 
L 171.554831 81.363656 
L 172.640632 83.319507 
L 173.726434 81.852619 
L 174.812235 78.053754 
L 175.898036 83.432345 
L 176.983837 81.965456 
L 178.069638 77.527178 
L 179.155439 83.883695 
L 180.24124 77.978529 
L 181.327042 82.153519 
L 182.412843 74.593402 
L 183.498644 79.520642 
L 184.584445 82.115907 
L 185.670246 73.389801 
L 186.756047 79.671092 
L 187.841849 73.728313 
L 188.92765 73.728313 
L 190.013451 69.252423 
L 191.099252 69.402873 
L 192.185053 70.531249 
L 193.270854 69.816611 
L 197.614059 65.716846 
L 198.69986 65.265495 
L 199.785661 68.048822 
L 200.871462 65.115045 
L 201.957264 65.453558 
L 203.043065 64.964595 
L 204.128866 63.046356 
L 205.214667 62.068431 
L 206.300468 62.294106 
L 207.386269 61.278568 
L 208.472071 58.796141 
L 209.557872 58.796141 
L 210.643673 59.924517 
L 211.729474 60.074967 
L 212.815275 59.247491 
L 213.901076 58.119116 
L 214.986877 59.209879 
L 216.072679 57.705378 
L 217.15848 57.931053 
L 219.330082 57.517315 
L 220.415883 57.254027 
L 221.501684 57.818215 
L 222.587486 57.065965 
L 223.673287 57.254027 
L 224.759088 58.081503 
L 225.844889 107.654811 
L 226.93069 110.062013 
L 228.016491 114.801191 
L 229.102292 105.285222 
L 230.188094 98.740643 
L 231.273895 100.809331 
L 232.359696 106.564048 
L 233.445497 104.608197 
L 234.531298 97.762717 
L 235.617099 100.846944 
L 236.702901 99.530506 
L 237.788702 96.295828 
L 238.874503 97.424204 
L 239.960304 97.160917 
L 241.046105 92.008001 
L 242.131906 94.791327 
L 243.217708 95.28029 
L 244.303509 96.220603 
L 245.38931 94.37759 
L 246.475111 102.351445 
L 247.560912 89.864087 
L 248.646713 90.691562 
L 249.732514 96.559116 
L 250.818316 95.167453 
L 251.904117 91.293363 
L 252.989918 87.945848 
L 254.075719 94.039077 
L 255.16152 92.008001 
L 256.247321 87.419273 
L 257.333123 89.563186 
L 258.418924 92.797864 
L 259.504725 97.085692 
L 260.590526 87.53211 
L 261.676327 88.133911 
L 262.762128 91.293363 
L 263.847929 93.963852 
L 264.933731 90.089762 
L 266.019532 89.788862 
L 267.105333 88.359586 
L 268.191134 98.138842 
L 270.362736 88.923774 
L 271.448538 88.660486 
L 272.534339 87.569723 
L 273.62014 88.171523 
L 274.705941 89.375124 
L 275.791742 91.895163 
L 276.877543 97.123304 
L 277.963344 87.68256 
L 279.049146 85.501034 
L 281.220748 92.008001 
L 282.306549 88.510036 
L 283.39235 86.253284 
L 284.478151 85.689096 
L 285.563953 83.846083 
L 286.649754 91.1053 
L 287.735555 90.465887 
L 288.821356 84.899233 
L 289.907157 78.392267 
L 290.992958 83.319507 
L 292.07876 79.78393 
L 293.164561 79.671092 
L 294.250362 80.08483 
L 295.336163 77.489566 
L 296.421964 84.372658 
L 297.507765 90.315437 
L 298.593566 76.474028 
L 299.679368 80.23528 
L 300.765169 79.595867 
L 301.85097 76.135515 
L 302.936771 76.925378 
L 304.022572 84.034145 
L 305.108373 79.031679 
L 306.194175 81.062756 
L 307.279976 79.069292 
L 308.365777 80.08483 
L 309.451578 75.571327 
L 310.537379 75.496102 
L 311.62318 72.675163 
L 312.708981 73.088901 
L 313.794783 78.693167 
L 314.880584 76.022677 
L 315.966385 76.248353 
L 317.052186 75.420877 
L 318.137987 74.292501 
L 319.223788 72.1862 
L 320.30959 70.644086 
L 321.395391 77.865691 
L 322.481192 71.471562 
L 323.566993 71.546787 
L 324.652794 73.690701 
L 325.738595 74.292501 
L 326.824396 73.653088 
L 327.910198 73.540251 
L 328.995999 73.916376 
L 330.0818 71.998137 
L 331.167601 73.352188 
L 332.253402 75.533715 
L 333.339203 69.891836 
L 334.425005 69.854223 
L 335.510806 68.537785 
L 336.596607 68.537785 
L 337.682408 69.929448 
L 338.768209 66.769996 
L 339.85401 66.055358 
L 340.939811 72.073362 
L 342.025613 63.083969 
L 343.111414 64.212345 
L 344.197215 65.829683 
L 345.283016 61.955593 
L 346.368817 64.43802 
L 347.454618 59.510779 
L 348.54042 59.698842 
L 349.626221 61.654693 
L 351.797823 61.504243 
L 352.883624 65.152658 
L 353.969425 59.097041 
L 355.055227 57.89344 
L 356.141028 60.676767 
L 357.226829 57.517315 
L 358.31263 57.44209 
L 359.398431 55.674301 
L 360.484232 57.630153 
L 361.570033 56.539389 
L 362.655835 56.953127 
L 363.741636 55.787139 
L 364.827437 56.501777 
L 365.913238 54.621151 
L 366.999039 53.568 
L 368.08484 54.583538 
L 369.170642 56.68984 
L 370.256443 56.953127 
L 371.342244 59.285104 
L 372.428045 62.218881 
L 373.513846 58.081503 
L 374.599647 63.798607 
L 375.685448 67.296572 
L 376.77125 64.663695 
L 377.857051 57.554928 
L 378.942852 60.789605 
L 380.028653 60.074967 
L 381.114454 61.052892 
L 382.200255 63.272031 
L 384.371858 58.758528 
L 385.457659 60.187804 
L 386.54346 59.962129 
L 387.629261 60.676767 
L 388.715062 56.68984 
L 389.800863 62.595006 
L 391.972466 61.880368 
L 393.058267 62.143656 
L 394.144068 61.692305 
L 395.229869 59.548391 
L 396.31567 63.648157 
L 397.401472 63.535319 
L 398.487273 65.604008 
L 398.487273 65.604008 
" clip-path="url(#p25255be67a)" style="fill: none; stroke: #ff7f0e; stroke-width: 1.5; stroke-linecap: square"/>
   </g>
   <g id="line2d_20">
    <path d="M 73.832727 288.972006 
L 74.918528 279.659521 
L 76.00433 273.537706 
L 77.090131 261.371935 
L 78.175932 262.046328 
L 79.261733 254.731444 
L 80.347534 253.693714 
L 81.433335 252.059826 
L 82.519137 241.164982 
L 83.604938 241.476414 
L 84.690739 242.072949 
L 86.862341 228.921353 
L 87.948142 228.947306 
L 89.033943 222.825491 
L 90.119745 218.311988 
L 91.205546 222.903349 
L 92.291347 220.309589 
L 93.377148 219.064239 
L 94.462949 218.260459 
L 95.54875 231.6193 
L 96.634552 240.957361 
L 97.720353 237.196109 
L 98.806154 234.05772 
L 99.891955 222.618246 
L 100.977756 225.653201 
L 102.063557 233.331046 
L 103.149358 222.644199 
L 104.23516 219.842442 
L 105.320961 215.847992 
L 107.492563 212.112692 
L 108.578364 215.147646 
L 109.664165 208.169771 
L 110.749967 208.429297 
L 111.835768 199.531678 
L 112.921569 207.287757 
L 114.00737 203.811984 
L 115.093171 205.575635 
L 116.178972 201.78843 
L 117.264773 199.324433 
L 119.436376 196.081857 
L 120.522177 197.638264 
L 122.693779 192.242747 
L 123.77958 188.377684 
L 124.865382 187.859007 
L 125.951183 191.412639 
L 127.036984 183.838228 
L 128.122785 180.544123 
L 129.208586 186.562127 
L 130.294387 183.916086 
L 131.380189 180.41436 
L 132.46599 180.051023 
L 133.551791 178.183561 
L 134.637592 178.52057 
L 135.723393 177.742366 
L 136.809194 177.846177 
L 137.894995 177.3275 
L 138.980797 215.588465 
L 140.066598 208.922021 
L 141.152399 207.41752 
L 142.2382 208.896069 
L 143.324001 204.252802 
L 144.409802 216.28881 
L 145.495604 211.412347 
L 146.581405 197.871838 
L 147.667206 201.970098 
L 148.753007 199.739299 
L 149.838808 208.688448 
L 150.924609 205.472201 
L 152.01041 206.535507 
L 153.096212 196.522676 
L 154.182013 206.639317 
L 155.267814 200.361787 
L 156.353615 195.199844 
L 157.439416 195.511275 
L 158.525217 195.563181 
L 159.611019 194.992223 
L 160.69682 196.834108 
L 161.782621 200.569408 
L 162.868422 192.657989 
L 163.954223 193.228571 
L 165.040024 192.657989 
L 166.125825 191.853834 
L 167.211627 195.018175 
L 168.297428 192.061079 
L 169.383229 187.443765 
L 170.46903 186.380459 
L 171.554831 184.538574 
L 172.640632 183.00812 
L 173.726434 187.340331 
L 174.812235 179.532346 
L 175.898036 187.106757 
L 176.983837 192.216794 
L 178.069638 181.010895 
L 179.155439 186.09498 
L 180.24124 181.010895 
L 181.327042 187.443765 
L 182.412843 179.584252 
L 183.498644 186.146885 
L 184.584445 191.775976 
L 185.670246 172.83995 
L 186.756047 186.120932 
L 187.841849 184.045849 
L 188.92765 175.589425 
L 190.013451 171.983889 
L 191.099252 173.514342 
L 192.185053 170.116427 
L 193.270854 169.286319 
L 194.356656 171.205686 
L 195.442457 166.329222 
L 196.528258 169.415706 
L 197.614059 168.404305 
L 198.69986 166.977662 
L 199.785661 171.906031 
L 200.871462 163.346172 
L 201.957264 165.602924 
L 203.043065 170.972112 
L 204.128866 167.885252 
L 205.214667 163.164504 
L 206.300468 163.735086 
L 207.386269 167.184907 
L 208.472071 157.872798 
L 209.557872 159.895975 
L 210.643673 160.959658 
L 211.729474 160.777989 
L 212.815275 161.919153 
L 213.901076 161.14095 
L 214.986877 161.089421 
L 216.072679 159.58492 
L 217.15848 161.867248 
L 218.244281 160.23336 
L 219.330082 160.777989 
L 221.501684 160.855847 
L 222.587486 159.74026 
L 223.673287 160.33717 
L 224.759088 160.544415 
L 225.844889 208.662495 
L 226.93069 212.19055 
L 228.016491 213.539335 
L 229.102292 199.038954 
L 230.188094 202.904017 
L 231.273895 189.052077 
L 232.359696 208.117866 
L 233.445497 207.754529 
L 234.531298 189.519224 
L 235.617099 204.252802 
L 236.702901 189.207792 
L 237.788702 190.115759 
L 238.874503 188.63721 
L 239.960304 193.954869 
L 241.046105 188.403637 
L 242.131906 193.539627 
L 243.217708 196.341384 
L 244.303509 186.172838 
L 245.38931 187.781149 
L 246.475111 207.780481 
L 247.560912 187.521623 
L 248.646713 185.991169 
L 249.732514 189.597082 
L 250.818316 199.064907 
L 251.904117 185.498445 
L 252.989918 185.783924 
L 254.075719 198.15694 
L 255.16152 188.922689 
L 256.247321 191.750023 
L 257.333123 190.738246 
L 258.418924 188.092581 
L 259.504725 195.251749 
L 260.590526 178.079751 
L 261.676327 192.346558 
L 262.762128 190.945867 
L 263.847929 199.84311 
L 264.933731 192.891187 
L 266.019532 188.118534 
L 267.105333 189.960043 
L 268.191134 196.263526 
L 269.276935 198.286704 
L 270.362736 195.485323 
L 272.534339 186.354506 
L 274.705941 193.66939 
L 275.791742 191.490497 
L 276.877543 199.713347 
L 277.963344 188.455542 
L 279.049146 190.816104 
L 280.134947 186.510222 
L 281.220748 188.351731 
L 282.306549 183.734418 
L 283.39235 180.67351 
L 284.478151 186.302601 
L 285.563953 183.527173 
L 286.649754 191.308828 
L 287.735555 190.530625 
L 288.821356 183.682512 
L 289.907157 184.357281 
L 290.992958 175.200512 
L 292.07876 181.192563 
L 293.164561 178.235467 
L 294.250362 173.644106 
L 295.336163 174.552072 
L 296.421964 185.809877 
L 297.507765 189.026124 
L 298.593566 175.407757 
L 299.679368 185.55035 
L 300.765169 183.553125 
L 301.85097 183.11193 
L 302.936771 177.587027 
L 304.022572 188.792926 
L 305.108373 187.625433 
L 306.194175 184.175613 
L 307.279976 174.655506 
L 308.365777 182.333727 
L 309.451578 172.45066 
L 310.537379 175.27837 
L 311.62318 175.92681 
L 312.708981 177.87213 
L 313.794783 175.719189 
L 314.880584 180.362455 
L 315.966385 175.693236 
L 317.052186 173.151005 
L 318.137987 175.848952 
L 319.223788 168.793218 
L 320.30959 172.347226 
L 321.395391 183.319552 
L 322.481192 172.502566 
L 323.566993 174.058972 
L 324.652794 177.379406 
L 325.738595 174.500167 
L 326.824396 179.869731 
L 327.910198 173.825774 
L 328.995999 174.759317 
L 330.0818 173.021618 
L 331.167601 175.43371 
L 332.253402 184.538574 
L 333.339203 166.329222 
L 334.425005 173.566248 
L 335.510806 168.326447 
L 336.596607 168.689408 
L 337.682408 177.249642 
L 338.768209 169.208461 
L 339.85401 165.057918 
L 340.939811 172.19151 
L 342.025613 164.850673 
L 343.111414 168.897029 
L 344.197215 162.100822 
L 345.283016 163.942707 
L 346.368817 164.279715 
L 347.454618 166.199459 
L 348.54042 157.302216 
L 349.626221 169.727137 
L 350.712022 160.051691 
L 351.797823 159.688354 
L 352.883624 161.166903 
L 353.969425 157.379698 
L 355.055227 163.112599 
L 356.141028 159.636449 
L 357.226829 157.846845 
L 358.31263 157.379698 
L 359.398431 157.172453 
L 360.484232 158.884199 
L 361.570033 154.267261 
L 362.655835 157.016737 
L 363.741636 159.19563 
L 364.827437 160.570368 
L 365.913238 158.988009 
L 366.999039 155.200804 
L 368.08484 154.241308 
L 369.170642 155.071417 
L 371.342244 161.14095 
L 372.428045 160.362747 
L 373.513846 161.971059 
L 374.599647 168.637502 
L 375.685448 170.531293 
L 376.77125 167.262765 
L 377.857051 158.339569 
L 378.942852 164.175905 
L 380.028653 162.593922 
L 381.114454 162.17868 
L 382.200255 168.560021 
L 383.286057 158.54719 
L 384.371858 154.578317 
L 385.457659 160.155502 
L 386.54346 161.971059 
L 387.629261 157.613271 
L 388.715062 158.469332 
L 389.800863 166.355174 
L 390.886665 158.44338 
L 391.972466 158.599096 
L 393.058267 166.640277 
L 394.144068 161.685956 
L 395.229869 161.192855 
L 396.31567 159.662402 
L 397.401472 162.879025 
L 398.487273 168.17077 
L 398.487273 168.17077 
" clip-path="url(#p25255be67a)" style="fill: none; stroke: #2ca02c; stroke-width: 1.5; stroke-linecap: square"/>
   </g>
   <g id="line2d_21">
    <path d="M 368.08484 55.335789 
L 369.170642 58.269566 
L 370.256443 61.76753 
L 371.342244 63.121581 
L 372.428045 62.068431 
L 373.513846 62.858294 
L 374.599647 62.143656 
L 375.685448 64.851758 
L 376.77125 63.384869 
L 377.857051 60.977667 
L 378.942852 60.300642 
L 380.028653 62.181268 
L 381.114454 63.196806 
L 382.200255 63.234419 
L 383.286057 71.5844 
L 384.371858 64.701307 
L 385.457659 71.057824 
L 386.54346 66.469096 
L 387.629261 71.622012 
L 388.715062 70.117511 
L 389.800863 69.327648 
L 390.886665 72.750388 
L 391.972466 75.496102 
L 393.058267 90.8044 
L 394.144068 81.100368 
L 395.229869 82.115907 
L 396.31567 86.403734 
L 397.401472 83.093832 
L 398.487273 81.551719 
L 398.487273 81.551719 
" clip-path="url(#p25255be67a)" style="fill: none; stroke: #d62728; stroke-width: 1.5; stroke-linecap: square"/>
   </g>
   <g id="line2d_22">
    <path d="M 368.08484 155.849244 
L 369.170642 160.311218 
L 370.256443 160.311218 
L 371.342244 162.022964 
L 372.428045 167.107425 
L 373.513846 159.09182 
L 374.599647 163.916754 
L 375.685448 164.643052 
L 376.77125 166.614325 
L 377.857051 164.279715 
L 378.942852 163.371749 
L 380.028653 167.133001 
L 381.114454 162.801167 
L 382.200255 167.236812 
L 383.286057 173.48839 
L 384.371858 163.060693 
L 385.457659 173.151005 
L 386.54346 170.583198 
L 387.629261 171.075922 
L 388.715062 170.297719 
L 389.800863 174.78527 
L 390.886665 181.036847 
L 391.972466 177.638932 
L 393.058267 193.384287 
L 394.144068 183.864181 
L 395.229869 186.069027 
L 396.31567 191.827881 
L 397.401472 186.74342 
L 398.487273 182.281952 
L 398.487273 182.281952 
" clip-path="url(#p25255be67a)" style="fill: none; stroke: #9467bd; stroke-width: 1.5; stroke-linecap: square"/>
   </g>
   <g id="patch_3">
    <path d="M 57.6 307.584 
L 57.6 41.472 
" style="fill: none; stroke: #000000; stroke-width: 0.8; stroke-linejoin: miter; stroke-linecap: square"/>
   </g>
   <g id="patch_4">
    <path d="M 414.72 307.584 
L 414.72 41.472 
" style="fill: none; stroke: #000000; stroke-width: 0.8; stroke-linejoin: miter; stroke-linecap: square"/>
   </g>
   <g id="patch_5">
    <path d="M 57.6 307.584 
L 414.72 307.584 
" style="fill: none; stroke: #000000; stroke-width: 0.8; stroke-linejoin: miter; stroke-linecap: square"/>
   </g>
   <g id="patch_6">
    <path d="M 57.6 41.472 
L 414.72 41.472 
" style="fill: none; stroke: #000000; stroke-width: 0.8; stroke-linejoin: miter; stroke-linecap: square"/>
   </g>
   <g id="text_20">
    <!-- Learning Curves -->
    <g transform="translate(187.37625 35.472) scale(0.12 -0.12)">
     <defs>
      <path id="DejaVuSans-4c" d="M 628 4666 
L 1259 4666 
L 1259 531 
L 3531 531 
L 3531 0 
L 628 0 
L 628 4666 
z
" transform="scale(0.015625)"/>
      <path id="DejaVuSans-65" d="M 3597 1894 
L 3597 1613 
L 953 1613 
Q 991 1019 1311 708 
Q 1631 397 2203 397 
Q 2534 397 2845 478 
Q 3156 559 3463 722 
L 3463 178 
Q 3153 47 2828 -22 
Q 2503 -91 2169 -91 
Q 1331 -91 842 396 
Q 353 884 353 1716 
Q 353 2575 817 3079 
Q 1281 3584 2069 3584 
Q 2775 3584 3186 3129 
Q 3597 2675 3597 1894 
z
M 3022 2063 
Q 3016 2534 2758 2815 
Q 2500 3097 2075 3097 
Q 1594 3097 1305 2825 
Q 1016 2553 972 2059 
L 3022 2063 
z
" transform="scale(0.015625)"/>
      <path id="DejaVuSans-6e" d="M 3513 2113 
L 3513 0 
L 2938 0 
L 2938 2094 
Q 2938 2591 2744 2837 
Q 2550 3084 2163 3084 
Q 1697 3084 1428 2787 
Q 1159 2491 1159 1978 
L 1159 0 
L 581 0 
L 581 3500 
L 1159 3500 
L 1159 2956 
Q 1366 3272 1645 3428 
Q 1925 3584 2291 3584 
Q 2894 3584 3203 3211 
Q 3513 2838 3513 2113 
z
" transform="scale(0.015625)"/>
      <path id="DejaVuSans-69" d="M 603 3500 
L 1178 3500 
L 1178 0 
L 603 0 
L 603 3500 
z
M 603 4863 
L 1178 4863 
L 1178 4134 
L 603 4134 
L 603 4863 
z
" transform="scale(0.015625)"/>
      <path id="DejaVuSans-67" d="M 2906 1791 
Q 2906 2416 2648 2759 
Q 2391 3103 1925 3103 
Q 1463 3103 1205 2759 
Q 947 2416 947 1791 
Q 947 1169 1205 825 
Q 1463 481 1925 481 
Q 2391 481 2648 825 
Q 2906 1169 2906 1791 
z
M 3481 434 
Q 3481 -459 3084 -895 
Q 2688 -1331 1869 -1331 
Q 1566 -1331 1297 -1286 
Q 1028 -1241 775 -1147 
L 775 -588 
Q 1028 -725 1275 -790 
Q 1522 -856 1778 -856 
Q 2344 -856 2625 -561 
Q 2906 -266 2906 331 
L 2906 616 
Q 2728 306 2450 153 
Q 2172 0 1784 0 
Q 1141 0 747 490 
Q 353 981 353 1791 
Q 353 2603 747 3093 
Q 1141 3584 1784 3584 
Q 2172 3584 2450 3431 
Q 2728 3278 2906 2969 
L 2906 3500 
L 3481 3500 
L 3481 434 
z
" transform="scale(0.015625)"/>
      <path id="DejaVuSans-20" transform="scale(0.015625)"/>
      <path id="DejaVuSans-43" d="M 4122 4306 
L 4122 3641 
Q 3803 3938 3442 4084 
Q 3081 4231 2675 4231 
Q 1875 4231 1450 3742 
Q 1025 3253 1025 2328 
Q 1025 1406 1450 917 
Q 1875 428 2675 428 
Q 3081 428 3442 575 
Q 3803 722 4122 1019 
L 4122 359 
Q 3791 134 3420 21 
Q 3050 -91 2638 -91 
Q 1578 -91 968 557 
Q 359 1206 359 2328 
Q 359 3453 968 4101 
Q 1578 4750 2638 4750 
Q 3056 4750 3426 4639 
Q 3797 4528 4122 4306 
z
" transform="scale(0.015625)"/>
      <path id="DejaVuSans-76" d="M 191 3500 
L 800 3500 
L 1894 563 
L 2988 3500 
L 3597 3500 
L 2284 0 
L 1503 0 
L 191 3500 
z
" transform="scale(0.015625)"/>
     </defs>
     <use xlink:href="#DejaVuSans-4c"/>
     <use xlink:href="#DejaVuSans-65" x="53.962891"/>
     <use xlink:href="#DejaVuSans-61" x="115.486328"/>
     <use xlink:href="#DejaVuSans-72" x="176.765625"/>
     <use xlink:href="#DejaVuSans-6e" x="216.128906"/>
     <use xlink:href="#DejaVuSans-69" x="279.507812"/>
     <use xlink:href="#DejaVuSans-6e" x="307.291016"/>
     <use xlink:href="#DejaVuSans-67" x="370.669922"/>
     <use xlink:href="#DejaVuSans-20" x="434.146484"/>
     <use xlink:href="#DejaVuSans-43" x="465.933594"/>
     <use xlink:href="#DejaVuSans-75" x="535.757812"/>
     <use xlink:href="#DejaVuSans-72" x="599.136719"/>
     <use xlink:href="#DejaVuSans-76" x="640.25"/>
     <use xlink:href="#DejaVuSans-65" x="699.429688"/>
     <use xlink:href="#DejaVuSans-73" x="760.953125"/>
    </g>
   </g>
   <g id="legend_1">
    <g id="patch_7">
     <path d="M 214.18875 302.584 
L 407.72 302.584 
Q 409.72 302.584 409.72 300.584 
L 409.72 228.193375 
Q 409.72 226.193375 407.72 226.193375 
L 214.18875 226.193375 
Q 212.18875 226.193375 212.18875 228.193375 
L 212.18875 300.584 
Q 212.18875 302.584 214.18875 302.584 
z
" style="fill: #ffffff; opacity: 0.8; stroke: #cccccc; stroke-linejoin: miter"/>
    </g>
    <g id="line2d_23">
     <path d="M 216.18875 234.291812 
L 226.18875 234.291812 
L 236.18875 234.291812 
" style="fill: none; stroke: #1f77b4; stroke-width: 1.5; stroke-linecap: square"/>
    </g>
    <g id="text_21">
     <!-- Train Accuracy -->
     <g transform="translate(244.18875 237.791812) scale(0.1 -0.1)">
      <defs>
       <path id="DejaVuSans-54" d="M -19 4666 
L 3928 4666 
L 3928 4134 
L 2272 4134 
L 2272 0 
L 1638 0 
L 1638 4134 
L -19 4134 
L -19 4666 
z
" transform="scale(0.015625)"/>
      </defs>
      <use xlink:href="#DejaVuSans-54"/>
      <use xlink:href="#DejaVuSans-72" x="46.333984"/>
      <use xlink:href="#DejaVuSans-61" x="87.447266"/>
      <use xlink:href="#DejaVuSans-69" x="148.726562"/>
      <use xlink:href="#DejaVuSans-6e" x="176.509766"/>
      <use xlink:href="#DejaVuSans-20" x="239.888672"/>
      <use xlink:href="#DejaVuSans-41" x="271.675781"/>
      <use xlink:href="#DejaVuSans-63" x="338.333984"/>
      <use xlink:href="#DejaVuSans-63" x="393.314453"/>
      <use xlink:href="#DejaVuSans-75" x="448.294922"/>
      <use xlink:href="#DejaVuSans-72" x="511.673828"/>
      <use xlink:href="#DejaVuSans-61" x="552.787109"/>
      <use xlink:href="#DejaVuSans-63" x="614.066406"/>
      <use xlink:href="#DejaVuSans-79" x="669.046875"/>
     </g>
    </g>
    <g id="line2d_24">
     <path d="M 216.18875 248.969937 
L 226.18875 248.969937 
L 236.18875 248.969937 
" style="fill: none; stroke: #ff7f0e; stroke-width: 1.5; stroke-linecap: square"/>
    </g>
    <g id="text_22">
     <!-- Validation Accuracy -->
     <g transform="translate(244.18875 252.469937) scale(0.1 -0.1)">
      <defs>
       <path id="DejaVuSans-56" d="M 1831 0 
L 50 4666 
L 709 4666 
L 2188 738 
L 3669 4666 
L 4325 4666 
L 2547 0 
L 1831 0 
z
" transform="scale(0.015625)"/>
       <path id="DejaVuSans-6c" d="M 603 4863 
L 1178 4863 
L 1178 0 
L 603 0 
L 603 4863 
z
" transform="scale(0.015625)"/>
       <path id="DejaVuSans-64" d="M 2906 2969 
L 2906 4863 
L 3481 4863 
L 3481 0 
L 2906 0 
L 2906 525 
Q 2725 213 2448 61 
Q 2172 -91 1784 -91 
Q 1150 -91 751 415 
Q 353 922 353 1747 
Q 353 2572 751 3078 
Q 1150 3584 1784 3584 
Q 2172 3584 2448 3432 
Q 2725 3281 2906 2969 
z
M 947 1747 
Q 947 1113 1208 752 
Q 1469 391 1925 391 
Q 2381 391 2643 752 
Q 2906 1113 2906 1747 
Q 2906 2381 2643 2742 
Q 2381 3103 1925 3103 
Q 1469 3103 1208 2742 
Q 947 2381 947 1747 
z
" transform="scale(0.015625)"/>
       <path id="DejaVuSans-74" d="M 1172 4494 
L 1172 3500 
L 2356 3500 
L 2356 3053 
L 1172 3053 
L 1172 1153 
Q 1172 725 1289 603 
Q 1406 481 1766 481 
L 2356 481 
L 2356 0 
L 1766 0 
Q 1100 0 847 248 
Q 594 497 594 1153 
L 594 3053 
L 172 3053 
L 172 3500 
L 594 3500 
L 594 4494 
L 1172 4494 
z
" transform="scale(0.015625)"/>
      </defs>
      <use xlink:href="#DejaVuSans-56"/>
      <use xlink:href="#DejaVuSans-61" x="60.658203"/>
      <use xlink:href="#DejaVuSans-6c" x="121.9375"/>
      <use xlink:href="#DejaVuSans-69" x="149.720703"/>
      <use xlink:href="#DejaVuSans-64" x="177.503906"/>
      <use xlink:href="#DejaVuSans-61" x="240.980469"/>
      <use xlink:href="#DejaVuSans-74" x="302.259766"/>
      <use xlink:href="#DejaVuSans-69" x="341.46875"/>
      <use xlink:href="#DejaVuSans-6f" x="369.251953"/>
      <use xlink:href="#DejaVuSans-6e" x="430.433594"/>
      <use xlink:href="#DejaVuSans-20" x="493.8125"/>
      <use xlink:href="#DejaVuSans-41" x="525.599609"/>
      <use xlink:href="#DejaVuSans-63" x="592.257812"/>
      <use xlink:href="#DejaVuSans-63" x="647.238281"/>
      <use xlink:href="#DejaVuSans-75" x="702.21875"/>
      <use xlink:href="#DejaVuSans-72" x="765.597656"/>
      <use xlink:href="#DejaVuSans-61" x="806.710938"/>
      <use xlink:href="#DejaVuSans-63" x="867.990234"/>
      <use xlink:href="#DejaVuSans-79" x="922.970703"/>
     </g>
    </g>
    <g id="line2d_25">
     <path d="M 216.18875 263.648062 
L 226.18875 263.648062 
L 236.18875 263.648062 
" style="fill: none; stroke: #2ca02c; stroke-width: 1.5; stroke-linecap: square"/>
    </g>
    <g id="text_23">
     <!-- Robust Validation Accuracy -->
     <g transform="translate(244.18875 267.148062) scale(0.1 -0.1)">
      <defs>
       <path id="DejaVuSans-52" d="M 2841 2188 
Q 3044 2119 3236 1894 
Q 3428 1669 3622 1275 
L 4263 0 
L 3584 0 
L 2988 1197 
Q 2756 1666 2539 1819 
Q 2322 1972 1947 1972 
L 1259 1972 
L 1259 0 
L 628 0 
L 628 4666 
L 2053 4666 
Q 2853 4666 3247 4331 
Q 3641 3997 3641 3322 
Q 3641 2881 3436 2590 
Q 3231 2300 2841 2188 
z
M 1259 4147 
L 1259 2491 
L 2053 2491 
Q 2509 2491 2742 2702 
Q 2975 2913 2975 3322 
Q 2975 3731 2742 3939 
Q 2509 4147 2053 4147 
L 1259 4147 
z
" transform="scale(0.015625)"/>
       <path id="DejaVuSans-62" d="M 3116 1747 
Q 3116 2381 2855 2742 
Q 2594 3103 2138 3103 
Q 1681 3103 1420 2742 
Q 1159 2381 1159 1747 
Q 1159 1113 1420 752 
Q 1681 391 2138 391 
Q 2594 391 2855 752 
Q 3116 1113 3116 1747 
z
M 1159 2969 
Q 1341 3281 1617 3432 
Q 1894 3584 2278 3584 
Q 2916 3584 3314 3078 
Q 3713 2572 3713 1747 
Q 3713 922 3314 415 
Q 2916 -91 2278 -91 
Q 1894 -91 1617 61 
Q 1341 213 1159 525 
L 1159 0 
L 581 0 
L 581 4863 
L 1159 4863 
L 1159 2969 
z
" transform="scale(0.015625)"/>
      </defs>
      <use xlink:href="#DejaVuSans-52"/>
      <use xlink:href="#DejaVuSans-6f" x="64.982422"/>
      <use xlink:href="#DejaVuSans-62" x="126.164062"/>
      <use xlink:href="#DejaVuSans-75" x="189.640625"/>
      <use xlink:href="#DejaVuSans-73" x="253.019531"/>
      <use xlink:href="#DejaVuSans-74" x="305.119141"/>
      <use xlink:href="#DejaVuSans-20" x="344.328125"/>
      <use xlink:href="#DejaVuSans-56" x="376.115234"/>
      <use xlink:href="#DejaVuSans-61" x="436.773438"/>
      <use xlink:href="#DejaVuSans-6c" x="498.052734"/>
      <use xlink:href="#DejaVuSans-69" x="525.835938"/>
      <use xlink:href="#DejaVuSans-64" x="553.619141"/>
      <use xlink:href="#DejaVuSans-61" x="617.095703"/>
      <use xlink:href="#DejaVuSans-74" x="678.375"/>
      <use xlink:href="#DejaVuSans-69" x="717.583984"/>
      <use xlink:href="#DejaVuSans-6f" x="745.367188"/>
      <use xlink:href="#DejaVuSans-6e" x="806.548828"/>
      <use xlink:href="#DejaVuSans-20" x="869.927734"/>
      <use xlink:href="#DejaVuSans-41" x="901.714844"/>
      <use xlink:href="#DejaVuSans-63" x="968.373047"/>
      <use xlink:href="#DejaVuSans-63" x="1023.353516"/>
      <use xlink:href="#DejaVuSans-75" x="1078.333984"/>
      <use xlink:href="#DejaVuSans-72" x="1141.712891"/>
      <use xlink:href="#DejaVuSans-61" x="1182.826172"/>
      <use xlink:href="#DejaVuSans-63" x="1244.105469"/>
      <use xlink:href="#DejaVuSans-79" x="1299.085938"/>
     </g>
    </g>
    <g id="line2d_26">
     <path d="M 216.18875 278.326188 
L 226.18875 278.326188 
L 236.18875 278.326188 
" style="fill: none; stroke: #d62728; stroke-width: 1.5; stroke-linecap: square"/>
    </g>
    <g id="text_24">
     <!-- SWA Validation Accuracy -->
     <g transform="translate(244.18875 281.826188) scale(0.1 -0.1)">
      <defs>
       <path id="DejaVuSans-53" d="M 3425 4513 
L 3425 3897 
Q 3066 4069 2747 4153 
Q 2428 4238 2131 4238 
Q 1616 4238 1336 4038 
Q 1056 3838 1056 3469 
Q 1056 3159 1242 3001 
Q 1428 2844 1947 2747 
L 2328 2669 
Q 3034 2534 3370 2195 
Q 3706 1856 3706 1288 
Q 3706 609 3251 259 
Q 2797 -91 1919 -91 
Q 1588 -91 1214 -16 
Q 841 59 441 206 
L 441 856 
Q 825 641 1194 531 
Q 1563 422 1919 422 
Q 2459 422 2753 634 
Q 3047 847 3047 1241 
Q 3047 1584 2836 1778 
Q 2625 1972 2144 2069 
L 1759 2144 
Q 1053 2284 737 2584 
Q 422 2884 422 3419 
Q 422 4038 858 4394 
Q 1294 4750 2059 4750 
Q 2388 4750 2728 4690 
Q 3069 4631 3425 4513 
z
" transform="scale(0.015625)"/>
       <path id="DejaVuSans-57" d="M 213 4666 
L 850 4666 
L 1831 722 
L 2809 4666 
L 3519 4666 
L 4500 722 
L 5478 4666 
L 6119 4666 
L 4947 0 
L 4153 0 
L 3169 4050 
L 2175 0 
L 1381 0 
L 213 4666 
z
" transform="scale(0.015625)"/>
      </defs>
      <use xlink:href="#DejaVuSans-53"/>
      <use xlink:href="#DejaVuSans-57" x="63.476562"/>
      <use xlink:href="#DejaVuSans-41" x="156.853516"/>
      <use xlink:href="#DejaVuSans-20" x="225.261719"/>
      <use xlink:href="#DejaVuSans-56" x="257.048828"/>
      <use xlink:href="#DejaVuSans-61" x="317.707031"/>
      <use xlink:href="#DejaVuSans-6c" x="378.986328"/>
      <use xlink:href="#DejaVuSans-69" x="406.769531"/>
      <use xlink:href="#DejaVuSans-64" x="434.552734"/>
      <use xlink:href="#DejaVuSans-61" x="498.029297"/>
      <use xlink:href="#DejaVuSans-74" x="559.308594"/>
      <use xlink:href="#DejaVuSans-69" x="598.517578"/>
      <use xlink:href="#DejaVuSans-6f" x="626.300781"/>
      <use xlink:href="#DejaVuSans-6e" x="687.482422"/>
      <use xlink:href="#DejaVuSans-20" x="750.861328"/>
      <use xlink:href="#DejaVuSans-41" x="782.648438"/>
      <use xlink:href="#DejaVuSans-63" x="849.306641"/>
      <use xlink:href="#DejaVuSans-63" x="904.287109"/>
      <use xlink:href="#DejaVuSans-75" x="959.267578"/>
      <use xlink:href="#DejaVuSans-72" x="1022.646484"/>
      <use xlink:href="#DejaVuSans-61" x="1063.759766"/>
      <use xlink:href="#DejaVuSans-63" x="1125.039062"/>
      <use xlink:href="#DejaVuSans-79" x="1180.019531"/>
     </g>
    </g>
    <g id="line2d_27">
     <path d="M 216.18875 293.004312 
L 226.18875 293.004312 
L 236.18875 293.004312 
" style="fill: none; stroke: #9467bd; stroke-width: 1.5; stroke-linecap: square"/>
    </g>
    <g id="text_25">
     <!-- SWA Robust Validation Accuracy -->
     <g transform="translate(244.18875 296.504312) scale(0.1 -0.1)">
      <use xlink:href="#DejaVuSans-53"/>
      <use xlink:href="#DejaVuSans-57" x="63.476562"/>
      <use xlink:href="#DejaVuSans-41" x="156.853516"/>
      <use xlink:href="#DejaVuSans-20" x="225.261719"/>
      <use xlink:href="#DejaVuSans-52" x="257.048828"/>
      <use xlink:href="#DejaVuSans-6f" x="322.03125"/>
      <use xlink:href="#DejaVuSans-62" x="383.212891"/>
      <use xlink:href="#DejaVuSans-75" x="446.689453"/>
      <use xlink:href="#DejaVuSans-73" x="510.068359"/>
      <use xlink:href="#DejaVuSans-74" x="562.167969"/>
      <use xlink:href="#DejaVuSans-20" x="601.376953"/>
      <use xlink:href="#DejaVuSans-56" x="633.164062"/>
      <use xlink:href="#DejaVuSans-61" x="693.822266"/>
      <use xlink:href="#DejaVuSans-6c" x="755.101562"/>
      <use xlink:href="#DejaVuSans-69" x="782.884766"/>
      <use xlink:href="#DejaVuSans-64" x="810.667969"/>
      <use xlink:href="#DejaVuSans-61" x="874.144531"/>
      <use xlink:href="#DejaVuSans-74" x="935.423828"/>
      <use xlink:href="#DejaVuSans-69" x="974.632812"/>
      <use xlink:href="#DejaVuSans-6f" x="1002.416016"/>
      <use xlink:href="#DejaVuSans-6e" x="1063.597656"/>
      <use xlink:href="#DejaVuSans-20" x="1126.976562"/>
      <use xlink:href="#DejaVuSans-41" x="1158.763672"/>
      <use xlink:href="#DejaVuSans-63" x="1225.421875"/>
      <use xlink:href="#DejaVuSans-63" x="1280.402344"/>
      <use xlink:href="#DejaVuSans-75" x="1335.382812"/>
      <use xlink:href="#DejaVuSans-72" x="1398.761719"/>
      <use xlink:href="#DejaVuSans-61" x="1439.875"/>
      <use xlink:href="#DejaVuSans-63" x="1501.154297"/>
      <use xlink:href="#DejaVuSans-79" x="1556.134766"/>
     </g>
    </g>
   </g>
  </g>
 </g>
 <defs>
  <clipPath id="p25255be67a">
   <rect x="57.6" y="41.472" width="357.12" height="266.112"/>
  </clipPath>
 </defs>
</svg>
