<?xml version="1.0" encoding="utf-8" standalone="no"?>
<!DOCTYPE svg PUBLIC "-//W3C//DTD SVG 1.1//EN"
  "http://www.w3.org/Graphics/SVG/1.1/DTD/svg11.dtd">
<svg xmlns:xlink="http://www.w3.org/1999/xlink" width="460.8pt" height="345.6pt" viewBox="0 0 460.8 345.6" xmlns="http://www.w3.org/2000/svg" version="1.1">
 <metadata>
  <rdf:RDF xmlns:dc="http://purl.org/dc/elements/1.1/" xmlns:cc="http://creativecommons.org/ns#" xmlns:rdf="http://www.w3.org/1999/02/22-rdf-syntax-ns#">
   <cc:Work>
    <dc:type rdf:resource="http://purl.org/dc/dcmitype/StillImage"/>
    <dc:date>2025-09-19T23:29:21.310234</dc:date>
    <dc:format>image/svg+xml</dc:format>
    <dc:creator>
     <cc:Agent>
      <dc:title>Matplotlib v3.9.1, https://matplotlib.org/</dc:title>
     </cc:Agent>
    </dc:creator>
   </cc:Work>
  </rdf:RDF>
 </metadata>
 <defs>
  <style type="text/css">*{stroke-linejoin: round; stroke-linecap: butt}</style>
 </defs>
 <g id="figure_1">
  <g id="patch_1">
   <path d="M 0 345.6 
L 460.8 345.6 
L 460.8 0 
L 0 0 
z
" style="fill: #ffffff"/>
  </g>
  <g id="axes_1">
   <g id="patch_2">
    <path d="M 57.6 307.584 
L 414.72 307.584 
L 414.72 41.472 
L 57.6 41.472 
z
" style="fill: #ffffff"/>
   </g>
   <g id="matplotlib.axis_1">
    <g id="xtick_1">
     <g id="line2d_1">
      <defs>
       <path id="mb0def6057f" d="M 0 0 
L 0 3.5 
" style="stroke: #000000; stroke-width: 0.8"/>
      </defs>
      <g>
       <use xlink:href="#mb0def6057f" x="73.832727" y="307.584" style="stroke: #000000; stroke-width: 0.8"/>
      </g>
     </g>
     <g id="text_1">
      <!-- 1 -->
      <g transform="translate(70.651477 322.182437) scale(0.1 -0.1)">
       <defs>
        <path id="DejaVuSans-31" d="M 794 531 
L 1825 531 
L 1825 4091 
L 703 3866 
L 703 4441 
L 1819 4666 
L 2450 4666 
L 2450 531 
L 3481 531 
L 3481 0 
L 794 0 
L 794 531 
z
" transform="scale(0.015625)"/>
       </defs>
       <use xlink:href="#DejaVuSans-31"/>
      </g>
     </g>
    </g>
    <g id="xtick_2">
     <g id="line2d_2">
      <g>
       <use xlink:href="#mb0def6057f" x="109.664165" y="307.584" style="stroke: #000000; stroke-width: 0.8"/>
      </g>
     </g>
     <g id="text_2">
      <!-- 34 -->
      <g transform="translate(103.301665 322.182437) scale(0.1 -0.1)">
       <defs>
        <path id="DejaVuSans-33" d="M 2597 2516 
Q 3050 2419 3304 2112 
Q 3559 1806 3559 1356 
Q 3559 666 3084 287 
Q 2609 -91 1734 -91 
Q 1441 -91 1130 -33 
Q 819 25 488 141 
L 488 750 
Q 750 597 1062 519 
Q 1375 441 1716 441 
Q 2309 441 2620 675 
Q 2931 909 2931 1356 
Q 2931 1769 2642 2001 
Q 2353 2234 1838 2234 
L 1294 2234 
L 1294 2753 
L 1863 2753 
Q 2328 2753 2575 2939 
Q 2822 3125 2822 3475 
Q 2822 3834 2567 4026 
Q 2313 4219 1838 4219 
Q 1578 4219 1281 4162 
Q 984 4106 628 3988 
L 628 4550 
Q 988 4650 1302 4700 
Q 1616 4750 1894 4750 
Q 2613 4750 3031 4423 
Q 3450 4097 3450 3541 
Q 3450 3153 3228 2886 
Q 3006 2619 2597 2516 
z
" transform="scale(0.015625)"/>
        <path id="DejaVuSans-34" d="M 2419 4116 
L 825 1625 
L 2419 1625 
L 2419 4116 
z
M 2253 4666 
L 3047 4666 
L 3047 1625 
L 3713 1625 
L 3713 1100 
L 3047 1100 
L 3047 0 
L 2419 0 
L 2419 1100 
L 313 1100 
L 313 1709 
L 2253 4666 
z
" transform="scale(0.015625)"/>
       </defs>
       <use xlink:href="#DejaVuSans-33"/>
       <use xlink:href="#DejaVuSans-34" x="63.623047"/>
      </g>
     </g>
    </g>
    <g id="xtick_3">
     <g id="line2d_3">
      <g>
       <use xlink:href="#mb0def6057f" x="145.495604" y="307.584" style="stroke: #000000; stroke-width: 0.8"/>
      </g>
     </g>
     <g id="text_3">
      <!-- 67 -->
      <g transform="translate(139.133104 322.182437) scale(0.1 -0.1)">
       <defs>
        <path id="DejaVuSans-36" d="M 2113 2584 
Q 1688 2584 1439 2293 
Q 1191 2003 1191 1497 
Q 1191 994 1439 701 
Q 1688 409 2113 409 
Q 2538 409 2786 701 
Q 3034 994 3034 1497 
Q 3034 2003 2786 2293 
Q 2538 2584 2113 2584 
z
M 3366 4563 
L 3366 3988 
Q 3128 4100 2886 4159 
Q 2644 4219 2406 4219 
Q 1781 4219 1451 3797 
Q 1122 3375 1075 2522 
Q 1259 2794 1537 2939 
Q 1816 3084 2150 3084 
Q 2853 3084 3261 2657 
Q 3669 2231 3669 1497 
Q 3669 778 3244 343 
Q 2819 -91 2113 -91 
Q 1303 -91 875 529 
Q 447 1150 447 2328 
Q 447 3434 972 4092 
Q 1497 4750 2381 4750 
Q 2619 4750 2861 4703 
Q 3103 4656 3366 4563 
z
" transform="scale(0.015625)"/>
        <path id="DejaVuSans-37" d="M 525 4666 
L 3525 4666 
L 3525 4397 
L 1831 0 
L 1172 0 
L 2766 4134 
L 525 4134 
L 525 4666 
z
" transform="scale(0.015625)"/>
       </defs>
       <use xlink:href="#DejaVuSans-36"/>
       <use xlink:href="#DejaVuSans-37" x="63.623047"/>
      </g>
     </g>
    </g>
    <g id="xtick_4">
     <g id="line2d_4">
      <g>
       <use xlink:href="#mb0def6057f" x="181.327042" y="307.584" style="stroke: #000000; stroke-width: 0.8"/>
      </g>
     </g>
     <g id="text_4">
      <!-- 100 -->
      <g transform="translate(171.783292 322.182437) scale(0.1 -0.1)">
       <defs>
        <path id="DejaVuSans-30" d="M 2034 4250 
Q 1547 4250 1301 3770 
Q 1056 3291 1056 2328 
Q 1056 1369 1301 889 
Q 1547 409 2034 409 
Q 2525 409 2770 889 
Q 3016 1369 3016 2328 
Q 3016 3291 2770 3770 
Q 2525 4250 2034 4250 
z
M 2034 4750 
Q 2819 4750 3233 4129 
Q 3647 3509 3647 2328 
Q 3647 1150 3233 529 
Q 2819 -91 2034 -91 
Q 1250 -91 836 529 
Q 422 1150 422 2328 
Q 422 3509 836 4129 
Q 1250 4750 2034 4750 
z
" transform="scale(0.015625)"/>
       </defs>
       <use xlink:href="#DejaVuSans-31"/>
       <use xlink:href="#DejaVuSans-30" x="63.623047"/>
       <use xlink:href="#DejaVuSans-30" x="127.246094"/>
      </g>
     </g>
    </g>
    <g id="xtick_5">
     <g id="line2d_5">
      <g>
       <use xlink:href="#mb0def6057f" x="217.15848" y="307.584" style="stroke: #000000; stroke-width: 0.8"/>
      </g>
     </g>
     <g id="text_5">
      <!-- 133 -->
      <g transform="translate(207.61473 322.182437) scale(0.1 -0.1)">
       <use xlink:href="#DejaVuSans-31"/>
       <use xlink:href="#DejaVuSans-33" x="63.623047"/>
       <use xlink:href="#DejaVuSans-33" x="127.246094"/>
      </g>
     </g>
    </g>
    <g id="xtick_6">
     <g id="line2d_6">
      <g>
       <use xlink:href="#mb0def6057f" x="254.075719" y="307.584" style="stroke: #000000; stroke-width: 0.8"/>
      </g>
     </g>
     <g id="text_6">
      <!-- 167 -->
      <g transform="translate(244.531969 322.182437) scale(0.1 -0.1)">
       <use xlink:href="#DejaVuSans-31"/>
       <use xlink:href="#DejaVuSans-36" x="63.623047"/>
       <use xlink:href="#DejaVuSans-37" x="127.246094"/>
      </g>
     </g>
    </g>
    <g id="xtick_7">
     <g id="line2d_7">
      <g>
       <use xlink:href="#mb0def6057f" x="289.907157" y="307.584" style="stroke: #000000; stroke-width: 0.8"/>
      </g>
     </g>
     <g id="text_7">
      <!-- 200 -->
      <g transform="translate(280.363407 322.182437) scale(0.1 -0.1)">
       <defs>
        <path id="DejaVuSans-32" d="M 1228 531 
L 3431 531 
L 3431 0 
L 469 0 
L 469 531 
Q 828 903 1448 1529 
Q 2069 2156 2228 2338 
Q 2531 2678 2651 2914 
Q 2772 3150 2772 3378 
Q 2772 3750 2511 3984 
Q 2250 4219 1831 4219 
Q 1534 4219 1204 4116 
Q 875 4013 500 3803 
L 500 4441 
Q 881 4594 1212 4672 
Q 1544 4750 1819 4750 
Q 2544 4750 2975 4387 
Q 3406 4025 3406 3419 
Q 3406 3131 3298 2873 
Q 3191 2616 2906 2266 
Q 2828 2175 2409 1742 
Q 1991 1309 1228 531 
z
" transform="scale(0.015625)"/>
       </defs>
       <use xlink:href="#DejaVuSans-32"/>
       <use xlink:href="#DejaVuSans-30" x="63.623047"/>
       <use xlink:href="#DejaVuSans-30" x="127.246094"/>
      </g>
     </g>
    </g>
    <g id="xtick_8">
     <g id="line2d_8">
      <g>
       <use xlink:href="#mb0def6057f" x="325.738595" y="307.584" style="stroke: #000000; stroke-width: 0.8"/>
      </g>
     </g>
     <g id="text_8">
      <!-- 233 -->
      <g transform="translate(316.194845 322.182437) scale(0.1 -0.1)">
       <use xlink:href="#DejaVuSans-32"/>
       <use xlink:href="#DejaVuSans-33" x="63.623047"/>
       <use xlink:href="#DejaVuSans-33" x="127.246094"/>
      </g>
     </g>
    </g>
    <g id="xtick_9">
     <g id="line2d_9">
      <g>
       <use xlink:href="#mb0def6057f" x="361.570033" y="307.584" style="stroke: #000000; stroke-width: 0.8"/>
      </g>
     </g>
     <g id="text_9">
      <!-- 266 -->
      <g transform="translate(352.026283 322.182437) scale(0.1 -0.1)">
       <use xlink:href="#DejaVuSans-32"/>
       <use xlink:href="#DejaVuSans-36" x="63.623047"/>
       <use xlink:href="#DejaVuSans-36" x="127.246094"/>
      </g>
     </g>
    </g>
    <g id="xtick_10">
     <g id="line2d_10">
      <g>
       <use xlink:href="#mb0def6057f" x="398.487273" y="307.584" style="stroke: #000000; stroke-width: 0.8"/>
      </g>
     </g>
     <g id="text_10">
      <!-- 300 -->
      <g transform="translate(388.943523 322.182437) scale(0.1 -0.1)">
       <use xlink:href="#DejaVuSans-33"/>
       <use xlink:href="#DejaVuSans-30" x="63.623047"/>
       <use xlink:href="#DejaVuSans-30" x="127.246094"/>
      </g>
     </g>
    </g>
    <g id="text_11">
     <!-- Epochs -->
     <g transform="translate(218.244375 335.860562) scale(0.1 -0.1)">
      <defs>
       <path id="DejaVuSans-45" d="M 628 4666 
L 3578 4666 
L 3578 4134 
L 1259 4134 
L 1259 2753 
L 3481 2753 
L 3481 2222 
L 1259 2222 
L 1259 531 
L 3634 531 
L 3634 0 
L 628 0 
L 628 4666 
z
" transform="scale(0.015625)"/>
       <path id="DejaVuSans-70" d="M 1159 525 
L 1159 -1331 
L 581 -1331 
L 581 3500 
L 1159 3500 
L 1159 2969 
Q 1341 3281 1617 3432 
Q 1894 3584 2278 3584 
Q 2916 3584 3314 3078 
Q 3713 2572 3713 1747 
Q 3713 922 3314 415 
Q 2916 -91 2278 -91 
Q 1894 -91 1617 61 
Q 1341 213 1159 525 
z
M 3116 1747 
Q 3116 2381 2855 2742 
Q 2594 3103 2138 3103 
Q 1681 3103 1420 2742 
Q 1159 2381 1159 1747 
Q 1159 1113 1420 752 
Q 1681 391 2138 391 
Q 2594 391 2855 752 
Q 3116 1113 3116 1747 
z
" transform="scale(0.015625)"/>
       <path id="DejaVuSans-6f" d="M 1959 3097 
Q 1497 3097 1228 2736 
Q 959 2375 959 1747 
Q 959 1119 1226 758 
Q 1494 397 1959 397 
Q 2419 397 2687 759 
Q 2956 1122 2956 1747 
Q 2956 2369 2687 2733 
Q 2419 3097 1959 3097 
z
M 1959 3584 
Q 2709 3584 3137 3096 
Q 3566 2609 3566 1747 
Q 3566 888 3137 398 
Q 2709 -91 1959 -91 
Q 1206 -91 779 398 
Q 353 888 353 1747 
Q 353 2609 779 3096 
Q 1206 3584 1959 3584 
z
" transform="scale(0.015625)"/>
       <path id="DejaVuSans-63" d="M 3122 3366 
L 3122 2828 
Q 2878 2963 2633 3030 
Q 2388 3097 2138 3097 
Q 1578 3097 1268 2742 
Q 959 2388 959 1747 
Q 959 1106 1268 751 
Q 1578 397 2138 397 
Q 2388 397 2633 464 
Q 2878 531 3122 666 
L 3122 134 
Q 2881 22 2623 -34 
Q 2366 -91 2075 -91 
Q 1284 -91 818 406 
Q 353 903 353 1747 
Q 353 2603 823 3093 
Q 1294 3584 2113 3584 
Q 2378 3584 2631 3529 
Q 2884 3475 3122 3366 
z
" transform="scale(0.015625)"/>
       <path id="DejaVuSans-68" d="M 3513 2113 
L 3513 0 
L 2938 0 
L 2938 2094 
Q 2938 2591 2744 2837 
Q 2550 3084 2163 3084 
Q 1697 3084 1428 2787 
Q 1159 2491 1159 1978 
L 1159 0 
L 581 0 
L 581 4863 
L 1159 4863 
L 1159 2956 
Q 1366 3272 1645 3428 
Q 1925 3584 2291 3584 
Q 2894 3584 3203 3211 
Q 3513 2838 3513 2113 
z
" transform="scale(0.015625)"/>
       <path id="DejaVuSans-73" d="M 2834 3397 
L 2834 2853 
Q 2591 2978 2328 3040 
Q 2066 3103 1784 3103 
Q 1356 3103 1142 2972 
Q 928 2841 928 2578 
Q 928 2378 1081 2264 
Q 1234 2150 1697 2047 
L 1894 2003 
Q 2506 1872 2764 1633 
Q 3022 1394 3022 966 
Q 3022 478 2636 193 
Q 2250 -91 1575 -91 
Q 1294 -91 989 -36 
Q 684 19 347 128 
L 347 722 
Q 666 556 975 473 
Q 1284 391 1588 391 
Q 1994 391 2212 530 
Q 2431 669 2431 922 
Q 2431 1156 2273 1281 
Q 2116 1406 1581 1522 
L 1381 1569 
Q 847 1681 609 1914 
Q 372 2147 372 2553 
Q 372 3047 722 3315 
Q 1072 3584 1716 3584 
Q 2034 3584 2315 3537 
Q 2597 3491 2834 3397 
z
" transform="scale(0.015625)"/>
      </defs>
      <use xlink:href="#DejaVuSans-45"/>
      <use xlink:href="#DejaVuSans-70" x="63.183594"/>
      <use xlink:href="#DejaVuSans-6f" x="126.660156"/>
      <use xlink:href="#DejaVuSans-63" x="187.841797"/>
      <use xlink:href="#DejaVuSans-68" x="242.822266"/>
      <use xlink:href="#DejaVuSans-73" x="306.201172"/>
     </g>
    </g>
   </g>
   <g id="matplotlib.axis_2">
    <g id="ytick_1">
     <g id="line2d_11">
      <defs>
       <path id="mf156caaecf" d="M 0 0 
L -3.5 0 
" style="stroke: #000000; stroke-width: 0.8"/>
      </defs>
      <g>
       <use xlink:href="#mf156caaecf" x="57.6" y="274.089319" style="stroke: #000000; stroke-width: 0.8"/>
      </g>
     </g>
     <g id="text_12">
      <!-- 10 -->
      <g transform="translate(37.875 277.888538) scale(0.1 -0.1)">
       <use xlink:href="#DejaVuSans-31"/>
       <use xlink:href="#DejaVuSans-30" x="63.623047"/>
      </g>
     </g>
    </g>
    <g id="ytick_2">
     <g id="line2d_12">
      <g>
       <use xlink:href="#mf156caaecf" x="57.6" y="237.378595" style="stroke: #000000; stroke-width: 0.8"/>
      </g>
     </g>
     <g id="text_13">
      <!-- 20 -->
      <g transform="translate(37.875 241.177814) scale(0.1 -0.1)">
       <use xlink:href="#DejaVuSans-32"/>
       <use xlink:href="#DejaVuSans-30" x="63.623047"/>
      </g>
     </g>
    </g>
    <g id="ytick_3">
     <g id="line2d_13">
      <g>
       <use xlink:href="#mf156caaecf" x="57.6" y="200.667871" style="stroke: #000000; stroke-width: 0.8"/>
      </g>
     </g>
     <g id="text_14">
      <!-- 30 -->
      <g transform="translate(37.875 204.46709) scale(0.1 -0.1)">
       <use xlink:href="#DejaVuSans-33"/>
       <use xlink:href="#DejaVuSans-30" x="63.623047"/>
      </g>
     </g>
    </g>
    <g id="ytick_4">
     <g id="line2d_14">
      <g>
       <use xlink:href="#mf156caaecf" x="57.6" y="163.957147" style="stroke: #000000; stroke-width: 0.8"/>
      </g>
     </g>
     <g id="text_15">
      <!-- 40 -->
      <g transform="translate(37.875 167.756366) scale(0.1 -0.1)">
       <use xlink:href="#DejaVuSans-34"/>
       <use xlink:href="#DejaVuSans-30" x="63.623047"/>
      </g>
     </g>
    </g>
    <g id="ytick_5">
     <g id="line2d_15">
      <g>
       <use xlink:href="#mf156caaecf" x="57.6" y="127.246423" style="stroke: #000000; stroke-width: 0.8"/>
      </g>
     </g>
     <g id="text_16">
      <!-- 50 -->
      <g transform="translate(37.875 131.045642) scale(0.1 -0.1)">
       <defs>
        <path id="DejaVuSans-35" d="M 691 4666 
L 3169 4666 
L 3169 4134 
L 1269 4134 
L 1269 2991 
Q 1406 3038 1543 3061 
Q 1681 3084 1819 3084 
Q 2600 3084 3056 2656 
Q 3513 2228 3513 1497 
Q 3513 744 3044 326 
Q 2575 -91 1722 -91 
Q 1428 -91 1123 -41 
Q 819 9 494 109 
L 494 744 
Q 775 591 1075 516 
Q 1375 441 1709 441 
Q 2250 441 2565 725 
Q 2881 1009 2881 1497 
Q 2881 1984 2565 2268 
Q 2250 2553 1709 2553 
Q 1456 2553 1204 2497 
Q 953 2441 691 2322 
L 691 4666 
z
" transform="scale(0.015625)"/>
       </defs>
       <use xlink:href="#DejaVuSans-35"/>
       <use xlink:href="#DejaVuSans-30" x="63.623047"/>
      </g>
     </g>
    </g>
    <g id="ytick_6">
     <g id="line2d_16">
      <g>
       <use xlink:href="#mf156caaecf" x="57.6" y="90.535699" style="stroke: #000000; stroke-width: 0.8"/>
      </g>
     </g>
     <g id="text_17">
      <!-- 60 -->
      <g transform="translate(37.875 94.334918) scale(0.1 -0.1)">
       <use xlink:href="#DejaVuSans-36"/>
       <use xlink:href="#DejaVuSans-30" x="63.623047"/>
      </g>
     </g>
    </g>
    <g id="ytick_7">
     <g id="line2d_17">
      <g>
       <use xlink:href="#mf156caaecf" x="57.6" y="53.824975" style="stroke: #000000; stroke-width: 0.8"/>
      </g>
     </g>
     <g id="text_18">
      <!-- 70 -->
      <g transform="translate(37.875 57.624194) scale(0.1 -0.1)">
       <use xlink:href="#DejaVuSans-37"/>
       <use xlink:href="#DejaVuSans-30" x="63.623047"/>
      </g>
     </g>
    </g>
    <g id="text_19">
     <!-- Accuracy -->
     <g transform="translate(31.795312 197.356125) rotate(-90) scale(0.1 -0.1)">
      <defs>
       <path id="DejaVuSans-41" d="M 2188 4044 
L 1331 1722 
L 3047 1722 
L 2188 4044 
z
M 1831 4666 
L 2547 4666 
L 4325 0 
L 3669 0 
L 3244 1197 
L 1141 1197 
L 716 0 
L 50 0 
L 1831 4666 
z
" transform="scale(0.015625)"/>
       <path id="DejaVuSans-75" d="M 544 1381 
L 544 3500 
L 1119 3500 
L 1119 1403 
Q 1119 906 1312 657 
Q 1506 409 1894 409 
Q 2359 409 2629 706 
Q 2900 1003 2900 1516 
L 2900 3500 
L 3475 3500 
L 3475 0 
L 2900 0 
L 2900 538 
Q 2691 219 2414 64 
Q 2138 -91 1772 -91 
Q 1169 -91 856 284 
Q 544 659 544 1381 
z
M 1991 3584 
L 1991 3584 
z
" transform="scale(0.015625)"/>
       <path id="DejaVuSans-72" d="M 2631 2963 
Q 2534 3019 2420 3045 
Q 2306 3072 2169 3072 
Q 1681 3072 1420 2755 
Q 1159 2438 1159 1844 
L 1159 0 
L 581 0 
L 581 3500 
L 1159 3500 
L 1159 2956 
Q 1341 3275 1631 3429 
Q 1922 3584 2338 3584 
Q 2397 3584 2469 3576 
Q 2541 3569 2628 3553 
L 2631 2963 
z
" transform="scale(0.015625)"/>
       <path id="DejaVuSans-61" d="M 2194 1759 
Q 1497 1759 1228 1600 
Q 959 1441 959 1056 
Q 959 750 1161 570 
Q 1363 391 1709 391 
Q 2188 391 2477 730 
Q 2766 1069 2766 1631 
L 2766 1759 
L 2194 1759 
z
M 3341 1997 
L 3341 0 
L 2766 0 
L 2766 531 
Q 2569 213 2275 61 
Q 1981 -91 1556 -91 
Q 1019 -91 701 211 
Q 384 513 384 1019 
Q 384 1609 779 1909 
Q 1175 2209 1959 2209 
L 2766 2209 
L 2766 2266 
Q 2766 2663 2505 2880 
Q 2244 3097 1772 3097 
Q 1472 3097 1187 3025 
Q 903 2953 641 2809 
L 641 3341 
Q 956 3463 1253 3523 
Q 1550 3584 1831 3584 
Q 2591 3584 2966 3190 
Q 3341 2797 3341 1997 
z
" transform="scale(0.015625)"/>
       <path id="DejaVuSans-79" d="M 2059 -325 
Q 1816 -950 1584 -1140 
Q 1353 -1331 966 -1331 
L 506 -1331 
L 506 -850 
L 844 -850 
Q 1081 -850 1212 -737 
Q 1344 -625 1503 -206 
L 1606 56 
L 191 3500 
L 800 3500 
L 1894 763 
L 2988 3500 
L 3597 3500 
L 2059 -325 
z
" transform="scale(0.015625)"/>
      </defs>
      <use xlink:href="#DejaVuSans-41"/>
      <use xlink:href="#DejaVuSans-63" x="66.658203"/>
      <use xlink:href="#DejaVuSans-63" x="121.638672"/>
      <use xlink:href="#DejaVuSans-75" x="176.619141"/>
      <use xlink:href="#DejaVuSans-72" x="239.998047"/>
      <use xlink:href="#DejaVuSans-61" x="281.111328"/>
      <use xlink:href="#DejaVuSans-63" x="342.390625"/>
      <use xlink:href="#DejaVuSans-79" x="397.371094"/>
     </g>
    </g>
   </g>
   <g id="line2d_18">
    <path d="M 73.832727 295.488 
L 74.918528 273.50929 
L 76.00433 256.005616 
L 77.090131 241.971107 
L 78.175932 229.526171 
L 81.433335 204.489457 
L 82.519137 198.927783 
L 83.604938 191.897679 
L 84.690739 186.769925 
L 85.77654 183.682186 
L 86.862341 178.323522 
L 87.948142 174.570952 
L 89.033943 170.373814 
L 90.119745 167.082331 
L 91.205546 161.974401 
L 92.291347 155.748629 
L 93.377148 153.300024 
L 94.462949 151.956411 
L 95.54875 184.50781 
L 96.634552 181.508544 
L 97.720353 178.171539 
L 98.806154 175.590775 
L 99.891955 170.700907 
L 102.063557 165.957881 
L 103.149358 161.736148 
L 104.23516 159.838204 
L 105.320961 156.74349 
L 107.492563 151.192828 
L 108.578364 150.197968 
L 109.664165 147.026161 
L 110.749967 144.852886 
L 111.835768 141.666395 
L 112.921569 138.913091 
L 114.00737 136.934383 
L 115.093171 134.140697 
L 117.264773 129.570212 
L 118.350575 122.320578 
L 119.436376 119.195027 
L 120.522177 117.523588 
L 121.607978 114.537905 
L 123.77958 110.672265 
L 124.865382 107.833792 
L 125.951183 105.521751 
L 127.036984 108.722192 
L 128.122785 108.307361 
L 130.294387 102.815436 
L 131.380189 102.297815 
L 132.46599 99.937315 
L 133.551791 99.254496 
L 134.637592 99.074613 
L 135.723393 97.793409 
L 136.809194 97.264775 
L 137.894995 96.934378 
L 138.980797 140.04011 
L 140.066598 143.347747 
L 141.152399 141.934384 
L 142.2382 141.519553 
L 143.324001 140.572416 
L 144.409802 138.197232 
L 145.495604 136.934383 
L 146.581405 136.666395 
L 147.667206 139.171535 
L 148.753007 137.907952 
L 149.838808 135.751931 
L 150.924609 130.190623 
L 152.01041 128.413824 
L 153.096212 127.044514 
L 154.182013 127.007803 
L 155.267814 125.021753 
L 156.353615 124.849213 
L 157.439416 122.686951 
L 158.525217 122.995321 
L 159.611019 120.719256 
L 160.69682 119.584895 
L 161.782621 112.936216 
L 162.868422 112.483572 
L 163.954223 110.657581 
L 165.040024 105.275055 
L 167.211627 102.606185 
L 168.297428 102.04084 
L 169.383229 100.084158 
L 170.46903 99.573879 
L 171.554831 97.25009 
L 172.640632 92.176301 
L 173.726434 95.12454 
L 174.812235 99.717418 
L 175.898036 99.551853 
L 176.983837 96.888857 
L 178.069638 102.9241 
L 179.155439 101.982837 
L 180.24124 100.854349 
L 182.412843 97.549283 
L 183.498644 100.477697 
L 184.584445 99.30222 
L 185.670246 98.74385 
L 186.756047 96.786067 
L 187.841849 97.2857 
L 188.92765 95.489444 
L 190.013451 93.454569 
L 191.099252 91.830853 
L 192.185053 91.121969 
L 193.270854 89.652806 
L 194.356656 89.641793 
L 195.442457 82.415287 
L 196.528258 80.950529 
L 197.614059 79.225125 
L 198.69986 83.830118 
L 199.785661 82.055522 
L 200.871462 81.661616 
L 201.957264 80.071307 
L 203.043065 79.467416 
L 204.128866 84.041572 
L 206.300468 82.775052 
L 207.386269 80.634817 
L 208.472071 74.01881 
L 209.557872 77.653906 
L 210.643673 77.015139 
L 211.729474 75.495315 
L 212.815275 74.489442 
L 213.901076 73.913083 
L 214.986877 73.49091 
L 216.072679 79.757063 
L 217.15848 78.048913 
L 218.244281 78.34627 
L 219.330082 82.191351 
L 220.415883 76.285697 
L 221.501684 76.153539 
L 222.587486 75.683274 
L 223.673287 75.66859 
L 224.759088 71.047077 
L 225.844889 129.077187 
L 226.93069 128.331959 
L 228.016491 126.991284 
L 229.102292 126.579756 
L 230.188094 121.905013 
L 231.273895 121.534234 
L 232.359696 121.031297 
L 233.445497 118.935115 
L 234.531298 118.358757 
L 235.617099 118.847009 
L 236.702901 117.932912 
L 237.788702 123.431812 
L 238.874503 122.039741 
L 239.960304 122.271019 
L 241.046105 115.765511 
L 242.131906 117.315805 
L 243.217708 123.384455 
L 244.303509 122.345541 
L 245.38931 122.051856 
L 246.475111 116.573881 
L 247.560912 115.490181 
L 248.646713 112.418962 
L 249.732514 112.301487 
L 250.818316 111.534233 
L 251.904117 107.453102 
L 252.989918 106.005965 
L 254.075719 107.085995 
L 255.16152 99.78313 
L 256.247321 99.309562 
L 257.333123 98.990179 
L 258.418924 98.824981 
L 259.504725 97.903541 
L 260.590526 100.532763 
L 261.676327 100.499724 
L 263.847929 99.570575 
L 264.933731 99.614628 
L 266.019532 98.604349 
L 267.105333 97.866096 
L 269.276935 97.649136 
L 270.362736 91.748254 
L 271.448538 90.358386 
L 272.534339 98.347374 
L 273.62014 97.359121 
L 274.705941 96.877844 
L 275.791742 102.369034 
L 276.877543 101.232837 
L 277.963344 100.604349 
L 279.049146 100.655744 
L 280.134947 108.026156 
L 281.220748 108.724027 
L 282.306549 107.732471 
L 284.478151 106.813968 
L 285.563953 111.38739 
L 286.649754 103.680708 
L 287.735555 102.931442 
L 288.821356 103.478799 
L 289.907157 102.505231 
L 290.992958 108.149504 
L 292.07876 108.707507 
L 293.164561 108.869035 
L 294.250362 104.792676 
L 295.336163 104.33269 
L 296.421964 110.190621 
L 297.507765 108.344071 
L 298.593566 107.72366 
L 299.679368 108.388124 
L 300.765169 107.055525 
L 301.85097 107.099578 
L 302.936771 105.693557 
L 304.022572 106.413087 
L 305.108373 105.484306 
L 307.279976 104.327918 
L 308.365777 104.09664 
L 309.451578 103.560664 
L 310.537379 103.263307 
L 311.62318 102.077551 
L 312.708981 101.457139 
L 313.794783 95.650971 
L 314.880584 98.674099 
L 315.966385 97.200164 
L 317.052186 95.957506 
L 318.137987 101.219621 
L 320.30959 99.353615 
L 321.395391 99.320575 
L 322.481192 98.898035 
L 323.566993 105.554056 
L 325.738595 104.687683 
L 326.824396 103.289005 
L 327.910198 103.421163 
L 328.995999 99.311031 
L 330.0818 99.815436 
L 331.167601 98.957506 
L 332.253402 98.953835 
L 333.339203 98.30222 
L 334.425005 98.044511 
L 335.510806 96.770648 
L 336.596607 96.078651 
L 337.682408 98.773218 
L 338.768209 98.659048 
L 339.85401 98.126008 
L 340.939811 97.890325 
L 342.025613 96.591867 
L 343.111414 95.812131 
L 344.197215 94.833791 
L 345.283016 94.506331 
L 346.368817 94.609121 
L 347.454618 92.630046 
L 348.54042 92.898768 
L 349.626221 92.578651 
L 350.712022 91.56727 
L 351.797823 91.059561 
L 352.883624 90.228063 
L 355.055227 88.024686 
L 356.141028 87.987975 
L 357.226829 90.843335 
L 358.31263 86.938048 
L 359.398431 87.734671 
L 360.484232 85.122336 
L 361.570033 83.748988 
L 362.655835 79.718884 
L 363.741636 71.265139 
L 365.913238 69.453832 
L 366.999039 69.715212 
L 368.08484 70.106915 
L 369.170642 70.662349 
L 370.256443 80.175566 
L 371.342244 84.750823 
L 372.428045 86.689517 
L 373.513846 87.918224 
L 374.599647 88.392527 
L 375.685448 88.135185 
L 376.77125 85.269546 
L 377.857051 85.295243 
L 378.942852 92.772116 
L 380.028653 98.865362 
L 381.114454 99.801486 
L 382.200255 99.78313 
L 383.286057 102.136655 
L 384.371858 108.090767 
L 385.457659 109.132618 
L 386.54346 109.804424 
L 388.715062 109.147302 
L 389.800863 107.363895 
L 390.886665 113.083793 
L 391.972466 112.977332 
L 393.058267 110.192456 
L 394.144068 109.85435 
L 395.229869 109.795613 
L 396.31567 110.405746 
L 397.401472 109.876377 
L 398.487273 105.195858 
L 398.487273 105.195858 
" clip-path="url(#p27b2f9f2d4)" style="fill: none; stroke: #1f77b4; stroke-width: 1.5; stroke-linecap: square"/>
   </g>
   <g id="line2d_19">
    <path d="M 73.832727 273.391815 
L 74.918528 257.642915 
L 76.00433 230.807375 
L 77.090131 213.590046 
L 78.175932 203.788283 
L 79.261733 196.813245 
L 81.433335 172.033506 
L 82.519137 171.592978 
L 83.604938 164.214122 
L 84.690739 164.654651 
L 85.77654 146.409421 
L 86.862341 143.619406 
L 87.948142 140.27873 
L 89.033943 132.385924 
L 90.119745 127.429977 
L 91.205546 126.402076 
L 93.377148 121.335996 
L 94.462949 121.446129 
L 95.54875 155.733945 
L 96.634552 150.557733 
L 97.720353 143.656117 
L 98.806154 146.446132 
L 99.891955 137.268451 
L 100.977756 136.607658 
L 102.063557 132.789742 
L 103.149358 127.943927 
L 104.23516 127.173002 
L 105.320961 125.153912 
L 106.406762 126.512209 
L 107.492563 118.582692 
L 108.578364 121.51955 
L 109.664165 121.189154 
L 111.835768 106.541575 
L 112.921569 107.092236 
L 114.00737 105.440253 
L 115.093171 102.723659 
L 116.178972 99.603248 
L 117.264773 98.134819 
L 118.350575 96.299283 
L 119.436376 95.932175 
L 120.522177 95.418225 
L 121.607978 88.773584 
L 122.693779 89.397667 
L 123.77958 88.479899 
L 124.865382 84.625272 
L 125.951183 82.569472 
L 127.036984 82.275786 
L 128.122785 78.237607 
L 129.208586 78.788267 
L 130.294387 76.291938 
L 131.380189 76.071674 
L 132.46599 76.218517 
L 133.551791 75.153906 
L 135.723393 74.089295 
L 136.809194 74.272848 
L 137.894995 74.309559 
L 138.980797 113.186216 
L 140.066598 117.48137 
L 141.152399 110.065804 
L 142.2382 114.507802 
L 143.324001 109.551854 
L 145.495604 104.963014 
L 146.581405 114.507802 
L 147.667206 107.3125 
L 148.753007 102.136288 
L 149.838808 105.513674 
L 150.924609 111.644365 
L 152.01041 106.945393 
L 153.096212 105.550385 
L 154.182013 107.716318 
L 155.267814 99.529826 
L 156.353615 106.835261 
L 158.525217 93.178871 
L 159.611019 98.024687 
L 160.69682 98.979166 
L 161.782621 89.801485 
L 162.868422 91.306624 
L 163.954223 95.565068 
L 165.040024 90.939517 
L 166.125825 90.352145 
L 167.211627 83.230265 
L 168.297428 90.682542 
L 169.383229 85.800016 
L 170.46903 84.405008 
L 171.554831 82.642893 
L 172.640632 84.148033 
L 173.726434 82.97329 
L 174.812235 84.588562 
L 175.898036 80.623804 
L 176.983837 77.797078 
L 178.069638 86.387387 
L 179.155439 81.651704 
L 180.24124 79.485771 
L 181.327042 79.375639 
L 182.412843 78.237607 
L 183.498644 78.384449 
L 184.584445 78.127474 
L 185.670246 74.933641 
L 186.756047 77.209706 
L 187.841849 76.40207 
L 188.92765 72.694287 
L 190.013451 70.197958 
L 191.099252 69.059926 
L 192.185053 71.482833 
L 193.270854 67.481364 
L 194.356656 68.729529 
L 195.442457 66.343332 
L 196.528258 66.783861 
L 197.614059 64.324242 
L 198.69986 63.590028 
L 199.785661 62.70897 
L 200.871462 64.21411 
L 201.957264 61.791202 
L 203.043065 61.901334 
L 204.128866 58.780923 
L 205.214667 58.523948 
L 206.300468 57.496047 
L 207.386269 61.16712 
L 208.472071 58.744212 
L 209.557872 59.735402 
L 210.643673 57.312494 
L 211.729474 56.798544 
L 212.815275 57.569469 
L 213.901076 56.174461 
L 214.986877 56.174461 
L 216.072679 55.990908 
L 218.244281 56.137751 
L 219.330082 55.58709 
L 220.415883 55.403536 
L 221.501684 54.338925 
L 223.673287 54.632611 
L 224.759088 55.330115 
L 225.844889 111.313969 
L 226.93069 104.926303 
L 228.016491 108.120136 
L 229.102292 101.879313 
L 230.188094 98.722191 
L 231.273895 103.678138 
L 232.359696 96.262572 
L 233.445497 101.622338 
L 234.531298 97.070208 
L 235.617099 91.637021 
L 236.702901 96.886654 
L 237.788702 100.484305 
L 238.874503 91.380046 
L 239.960304 100.190619 
L 241.046105 93.289003 
L 242.131906 102.907213 
L 243.217708 96.739811 
L 244.303509 92.11426 
L 245.38931 96.739811 
L 246.475111 99.052587 
L 247.560912 89.691352 
L 248.646713 91.08636 
L 249.732514 92.150971 
L 250.818316 86.056991 
L 251.904117 97.106919 
L 252.989918 87.745684 
L 254.075719 87.231734 
L 255.16152 91.306624 
L 256.247321 88.847006 
L 257.333123 94.096639 
L 258.418924 94.757432 
L 259.504725 83.340397 
L 260.590526 84.405008 
L 261.676327 87.488709 
L 262.762128 89.58122 
L 263.847929 80.880779 
L 264.933731 82.422629 
L 266.019532 86.424098 
L 267.105333 93.215582 
L 268.191134 88.55332 
L 269.276935 80.513671 
L 270.362736 89.911617 
L 271.448538 88.443188 
L 272.534339 88.736874 
L 273.62014 80.660514 
L 274.705941 85.02909 
L 275.791742 92.775053 
L 276.877543 88.700163 
L 277.963344 91.343335 
L 279.049146 84.51514 
L 280.134947 87.672263 
L 281.220748 84.441719 
L 282.306549 90.278724 
L 283.39235 86.791205 
L 284.478151 81.46815 
L 285.563953 80.513671 
L 286.649754 81.027622 
L 287.735555 84.918958 
L 288.821356 78.824978 
L 289.907157 79.41235 
L 290.992958 84.00119 
L 292.07876 87.01147 
L 293.164561 83.964479 
L 294.250362 78.824978 
L 295.336163 79.852878 
L 296.421964 80.073143 
L 297.507765 80.733936 
L 298.593566 80.917489 
L 299.679368 77.980631 
L 300.765169 78.531292 
L 301.85097 80.513671 
L 302.936771 80.403539 
L 304.022572 74.089295 
L 305.108373 73.942452 
L 307.279976 76.989442 
L 308.365777 75.080484 
L 309.451578 74.015873 
L 311.62318 80.036432 
L 312.708981 71.996783 
L 313.794783 75.37417 
L 314.880584 78.054053 
L 315.966385 76.218517 
L 317.052186 73.86903 
L 318.137987 74.639956 
L 319.223788 73.428502 
L 320.30959 73.31837 
L 321.395391 69.940983 
L 322.481192 73.465212 
L 323.566993 71.005594 
L 324.652794 71.372701 
L 326.824396 69.243479 
L 327.910198 70.051115 
L 328.995999 68.729529 
L 330.0818 67.995315 
L 331.167601 69.243479 
L 332.253402 68.325711 
L 333.339203 66.453464 
L 334.425005 67.995315 
L 335.510806 66.453464 
L 336.596607 66.857282 
L 337.682408 67.664918 
L 338.768209 66.012935 
L 339.85401 63.259631 
L 340.939811 64.360953 
L 342.025613 61.350673 
L 343.111414 62.415284 
L 344.197215 64.21411 
L 345.283016 61.130409 
L 346.368817 59.955666 
L 347.454618 61.387384 
L 348.54042 60.102509 
L 349.626221 61.717781 
L 350.712022 59.037898 
L 351.797823 58.891055 
L 352.883624 59.918955 
L 353.969425 61.240541 
L 355.055227 61.534227 
L 357.226829 55.10985 
L 358.31263 55.880776 
L 359.398431 58.854344 
L 360.484232 54.485768 
L 362.655835 57.202362 
L 363.741636 54.926297 
L 364.827437 54.5959 
L 365.913238 55.403536 
L 366.999039 53.568 
L 368.08484 55.917486 
L 369.170642 56.211172 
L 370.256443 55.58709 
L 371.342244 58.083419 
L 372.428045 63.18621 
L 373.513846 58.927766 
L 374.599647 59.882245 
L 375.685448 61.093698 
L 376.77125 59.478427 
L 377.857051 60.396195 
L 378.942852 59.478427 
L 380.028653 62.965945 
L 381.114454 62.19502 
L 382.200255 62.121599 
L 383.286057 59.808823 
L 385.457659 64.030556 
L 386.54346 60.432905 
L 387.629261 62.305152 
L 388.715062 63.002656 
L 389.800863 61.827913 
L 390.886665 65.609117 
L 391.972466 63.406474 
L 393.058267 59.625269 
L 394.144068 60.543038 
L 395.229869 64.250821 
L 396.31567 61.864624 
L 397.401472 65.609117 
L 398.487273 61.350673 
L 398.487273 61.350673 
" clip-path="url(#p27b2f9f2d4)" style="fill: none; stroke: #ff7f0e; stroke-width: 1.5; stroke-linecap: square"/>
   </g>
   <g id="line2d_20">
    <path d="M 73.832727 287.882272 
L 74.918528 279.294533 
L 77.090131 259.004883 
L 78.175932 258.306277 
L 79.261733 251.804808 
L 80.347534 247.135938 
L 81.433335 245.627128 
L 83.604938 237.520298 
L 84.690739 241.006716 
L 85.77654 225.811046 
L 86.862341 224.468902 
L 87.948142 225.91971 
L 89.033943 219.638505 
L 90.119745 215.428152 
L 91.205546 216.286449 
L 92.291347 211.918974 
L 93.377148 212.78241 
L 94.462949 212.514055 
L 95.54875 233.689901 
L 96.634552 233.175951 
L 98.806154 228.669343 
L 99.891955 224.155025 
L 100.977756 220.856199 
L 102.063557 217.025803 
L 103.149358 215.139606 
L 104.23516 219.39291 
L 105.320961 211.78241 
L 106.406762 221.85106 
L 107.492563 207.906124 
L 108.578364 217.033145 
L 109.664165 211.486154 
L 110.749967 211.554436 
L 111.835768 199.242394 
L 112.921569 203.587108 
L 114.00737 201.878224 
L 115.093171 201.65025 
L 116.178972 195.50047 
L 117.264773 195.328296 
L 118.350575 195.424478 
L 119.436376 195.254875 
L 120.522177 198.756344 
L 121.607978 191.728076 
L 122.693779 191.343347 
L 123.77958 191.538281 
L 124.865382 185.771026 
L 125.951183 188.360968 
L 127.036984 179.712288 
L 128.122785 178.286811 
L 129.208586 179.418603 
L 130.294387 178.443933 
L 131.380189 176.033874 
L 132.46599 177.892171 
L 133.551791 176.241289 
L 135.723393 175.529836 
L 136.809194 175.714858 
L 137.894995 176.676679 
L 138.980797 213.574994 
L 140.066598 211.648049 
L 141.152399 201.366476 
L 142.2382 208.693569 
L 143.324001 210.987256 
L 144.409802 204.412365 
L 145.495604 204.442835 
L 146.581405 208.678518 
L 147.667206 198.174112 
L 148.753007 197.217063 
L 149.838808 203.761851 
L 150.924609 212.007814 
L 152.01041 206.326462 
L 153.096212 204.73909 
L 154.182013 211.977344 
L 155.267814 196.077929 
L 156.353615 201.343715 
L 157.439416 200.936226 
L 158.525217 195.877856 
L 159.611019 197.64511 
L 160.69682 198.209354 
L 161.782621 192.117943 
L 163.954223 197.877856 
L 165.040024 192.512951 
L 166.125825 189.933288 
L 167.211627 178.398412 
L 168.297428 192.733215 
L 169.383229 183.072054 
L 170.46903 187.333068 
L 171.554831 182.993493 
L 172.640632 189.502671 
L 173.726434 184.654286 
L 174.812235 189.51809 
L 175.898036 181.570585 
L 176.983837 180.482112 
L 178.069638 187.581232 
L 179.155439 180.474403 
L 180.24124 182.224036 
L 181.327042 177.24129 
L 182.412843 182.097384 
L 183.498644 176.167868 
L 184.584445 178.747898 
L 185.670246 173.798191 
L 186.756047 178.454212 
L 187.841849 178.980644 
L 188.92765 175.253771 
L 190.013451 168.337104 
L 191.099252 173.684388 
L 192.185053 174.962655 
L 193.270854 172.063976 
L 194.356656 170.271392 
L 195.442457 167.154651 
L 196.528258 173.17521 
L 197.614059 167.757441 
L 198.69986 166.1675 
L 199.785661 162.5012 
L 201.957264 162.926677 
L 203.043065 162.271023 
L 204.128866 160.481009 
L 205.214667 160.98468 
L 206.300468 158.620142 
L 207.386269 159.706412 
L 208.472071 157.761845 
L 209.557872 159.673373 
L 210.643673 157.903549 
L 211.729474 158.994958 
L 212.815275 159.336735 
L 213.901076 156.728805 
L 214.986877 157.088571 
L 216.072679 156.273225 
L 217.15848 155.779466 
L 218.244281 154.883357 
L 219.330082 154.769187 
L 220.415883 156.675942 
L 221.501684 154.650244 
L 222.587486 154.728805 
L 223.673287 155.351786 
L 224.759088 155.392168 
L 225.844889 206.625287 
L 226.93069 201.65282 
L 228.016491 208.845552 
L 229.102292 201.060309 
L 230.188094 200.017357 
L 231.273895 205.609869 
L 232.359696 194.761116 
L 233.445497 202.1921 
L 234.531298 192.363538 
L 235.617099 185.821687 
L 236.702901 195.100323 
L 237.788702 188.948339 
L 238.874503 185.014051 
L 239.960304 201.381895 
L 241.046105 188.573523 
L 242.131906 198.809574 
L 243.217708 187.34298 
L 244.303509 186.87969 
L 245.38931 190.219265 
L 246.475111 195.561409 
L 247.560912 191.199074 
L 248.646713 187.677414 
L 249.732514 189.981379 
L 250.818316 184.82389 
L 251.904117 193.98138 
L 252.989918 195.503039 
L 254.075719 176.78314 
L 255.16152 192.588942 
L 256.247321 180.170805 
L 257.333123 200.202012 
L 258.418924 190.659793 
L 259.504725 185.674844 
L 260.590526 182.93549 
L 261.676327 186.289749 
L 262.762128 190.897679 
L 263.847929 182.074624 
L 266.019532 189.272495 
L 267.105333 196.016989 
L 268.191134 187.768457 
L 269.276935 180.750468 
L 270.362736 189.507811 
L 271.448538 190.388868 
L 272.534339 185.515153 
L 273.62014 184.33784 
L 274.705941 184.986151 
L 275.791742 194.629691 
L 276.877543 192.5537 
L 277.963344 187.644375 
L 279.049146 179.735049 
L 280.134947 187.533141 
L 281.220748 175.507075 
L 282.306549 186.520292 
L 283.39235 185.819117 
L 284.478151 181.441731 
L 285.563953 180.879689 
L 286.649754 183.39107 
L 287.735555 182.396209 
L 288.821356 186.45715 
L 289.907157 179.000835 
L 290.992958 182.396209 
L 292.07876 177.595915 
L 293.164561 179.803698 
L 294.250362 174.005606 
L 295.336163 175.221098 
L 296.421964 177.033874 
L 297.507765 177.800761 
L 298.593566 172.889233 
L 299.679368 173.909424 
L 300.765169 168.833432 
L 301.85097 173.853991 
L 302.936771 175.408323 
L 304.022572 170.496795 
L 305.108373 177.200908 
L 306.194175 178.041583 
L 307.279976 180.292318 
L 308.365777 169.648411 
L 309.451578 167.954945 
L 310.537379 174.486884 
L 311.62318 173.134828 
L 312.708981 175.340041 
L 313.794783 172.28681 
L 314.880584 177.433654 
L 315.966385 170.276531 
L 317.052186 173.301862 
L 318.137987 173.436223 
L 319.223788 175.043786 
L 320.30959 170.846281 
L 321.395391 162.296354 
L 322.481192 169.068748 
L 323.566993 163.992756 
L 324.652794 162.460818 
L 325.738595 165.430715 
L 326.824396 164.13189 
L 327.910198 167.261112 
L 328.995999 165.572419 
L 330.0818 162.716692 
L 331.167601 170.160158 
L 332.253402 163.174841 
L 333.339203 160.356926 
L 334.425005 168.772493 
L 336.596607 159.374547 
L 337.682408 163.415297 
L 338.768209 160.131522 
L 339.85401 162.387396 
L 340.939811 158.57976 
L 342.025613 159.473299 
L 343.111414 158.295986 
L 344.197215 158.630421 
L 345.283016 156.298556 
L 346.368817 154.746426 
L 347.454618 151.159054 
L 348.54042 152.465589 
L 349.626221 162.843344 
L 350.712022 155.298556 
L 351.797823 151.055163 
L 352.883624 160.055531 
L 353.969425 155.559202 
L 355.055227 154.468159 
L 356.141028 152.141433 
L 357.226829 152.951639 
L 358.31263 149.331227 
L 359.398431 159.789746 
L 360.484232 149.799289 
L 361.570033 149.207145 
L 362.655835 151.328658 
L 363.741636 150.48064 
L 364.827437 152.295618 
L 365.913238 148.402079 
L 366.999039 152.475501 
L 368.08484 155.070582 
L 369.170642 152.817278 
L 370.256443 153.404649 
L 371.342244 156.908688 
L 372.428045 159.891067 
L 373.513846 156.43512 
L 374.599647 160.265884 
L 375.685448 156.739084 
L 376.77125 157.346647 
L 377.857051 156.572051 
L 378.942852 156.718894 
L 380.028653 160.271023 
L 381.114454 158.275795 
L 382.200255 159.693564 
L 383.286057 153.599583 
L 385.457659 160.55186 
L 386.54346 154.379319 
L 387.629261 153.262946 
L 388.715062 159.924107 
L 389.800863 154.110964 
L 390.886665 161.022859 
L 391.972466 155.230274 
L 393.058267 155.377117 
L 394.144068 153.880788 
L 395.229869 160.445399 
L 396.31567 154.680714 
L 397.401472 159.362066 
L 398.487273 154.376914 
L 398.487273 154.376914 
" clip-path="url(#p27b2f9f2d4)" style="fill: none; stroke: #2ca02c; stroke-width: 1.5; stroke-linecap: square"/>
   </g>
   <g id="line2d_21">
    <path d="M 368.08484 55.476958 
L 369.170642 62.084888 
L 370.256443 56.908676 
L 371.342244 63.149499 
L 372.428045 65.462275 
L 373.513846 63.369763 
L 374.599647 65.792671 
L 375.685448 60.579748 
L 376.77125 63.663449 
L 377.857051 66.26991 
L 378.942852 76.769178 
L 380.028653 69.353611 
L 381.114454 73.098105 
L 382.200255 75.924831 
L 383.286057 77.760367 
L 384.371858 77.723656 
L 385.457659 72.106916 
L 386.54346 79.669325 
L 388.715062 74.309559 
L 389.800863 76.732467 
L 390.886665 74.052584 
L 391.972466 74.603245 
L 393.058267 90.425567 
L 394.144068 90.09517 
L 396.31567 76.475492 
L 397.401472 86.827916 
L 398.487273 82.716315 
L 398.487273 82.716315 
" clip-path="url(#p27b2f9f2d4)" style="fill: none; stroke: #d62728; stroke-width: 1.5; stroke-linecap: square"/>
   </g>
   <g id="line2d_22">
    <path d="M 368.08484 152.004502 
L 369.170642 170.886663 
L 370.256443 153.627484 
L 371.342244 166.506707 
L 372.428045 165.797823 
L 373.513846 158.384826 
L 374.599647 164.878586 
L 375.685448 154.617572 
L 376.77125 157.338938 
L 377.857051 161.546721 
L 378.942852 175.425944 
L 380.028653 171.982846 
L 381.114454 173.524696 
L 382.200255 174.800761 
L 383.286057 175.456414 
L 384.371858 173.998264 
L 385.457659 169.205679 
L 386.54346 178.026165 
L 387.629261 171.494226 
L 388.715062 172.20568 
L 389.800863 175.929983 
L 390.886665 171.304431 
L 391.972466 169.820584 
L 393.058267 180.519924 
L 394.144068 181.89988 
L 395.229869 179.183287 
L 396.31567 172.780202 
L 397.401472 186.173376 
L 398.487273 178.937654 
L 398.487273 178.937654 
" clip-path="url(#p27b2f9f2d4)" style="fill: none; stroke: #9467bd; stroke-width: 1.5; stroke-linecap: square"/>
   </g>
   <g id="patch_3">
    <path d="M 57.6 307.584 
L 57.6 41.472 
" style="fill: none; stroke: #000000; stroke-width: 0.8; stroke-linejoin: miter; stroke-linecap: square"/>
   </g>
   <g id="patch_4">
    <path d="M 414.72 307.584 
L 414.72 41.472 
" style="fill: none; stroke: #000000; stroke-width: 0.8; stroke-linejoin: miter; stroke-linecap: square"/>
   </g>
   <g id="patch_5">
    <path d="M 57.6 307.584 
L 414.72 307.584 
" style="fill: none; stroke: #000000; stroke-width: 0.8; stroke-linejoin: miter; stroke-linecap: square"/>
   </g>
   <g id="patch_6">
    <path d="M 57.6 41.472 
L 414.72 41.472 
" style="fill: none; stroke: #000000; stroke-width: 0.8; stroke-linejoin: miter; stroke-linecap: square"/>
   </g>
   <g id="text_20">
    <!-- Learning Curves -->
    <g transform="translate(187.37625 35.472) scale(0.12 -0.12)">
     <defs>
      <path id="DejaVuSans-4c" d="M 628 4666 
L 1259 4666 
L 1259 531 
L 3531 531 
L 3531 0 
L 628 0 
L 628 4666 
z
" transform="scale(0.015625)"/>
      <path id="DejaVuSans-65" d="M 3597 1894 
L 3597 1613 
L 953 1613 
Q 991 1019 1311 708 
Q 1631 397 2203 397 
Q 2534 397 2845 478 
Q 3156 559 3463 722 
L 3463 178 
Q 3153 47 2828 -22 
Q 2503 -91 2169 -91 
Q 1331 -91 842 396 
Q 353 884 353 1716 
Q 353 2575 817 3079 
Q 1281 3584 2069 3584 
Q 2775 3584 3186 3129 
Q 3597 2675 3597 1894 
z
M 3022 2063 
Q 3016 2534 2758 2815 
Q 2500 3097 2075 3097 
Q 1594 3097 1305 2825 
Q 1016 2553 972 2059 
L 3022 2063 
z
" transform="scale(0.015625)"/>
      <path id="DejaVuSans-6e" d="M 3513 2113 
L 3513 0 
L 2938 0 
L 2938 2094 
Q 2938 2591 2744 2837 
Q 2550 3084 2163 3084 
Q 1697 3084 1428 2787 
Q 1159 2491 1159 1978 
L 1159 0 
L 581 0 
L 581 3500 
L 1159 3500 
L 1159 2956 
Q 1366 3272 1645 3428 
Q 1925 3584 2291 3584 
Q 2894 3584 3203 3211 
Q 3513 2838 3513 2113 
z
" transform="scale(0.015625)"/>
      <path id="DejaVuSans-69" d="M 603 3500 
L 1178 3500 
L 1178 0 
L 603 0 
L 603 3500 
z
M 603 4863 
L 1178 4863 
L 1178 4134 
L 603 4134 
L 603 4863 
z
" transform="scale(0.015625)"/>
      <path id="DejaVuSans-67" d="M 2906 1791 
Q 2906 2416 2648 2759 
Q 2391 3103 1925 3103 
Q 1463 3103 1205 2759 
Q 947 2416 947 1791 
Q 947 1169 1205 825 
Q 1463 481 1925 481 
Q 2391 481 2648 825 
Q 2906 1169 2906 1791 
z
M 3481 434 
Q 3481 -459 3084 -895 
Q 2688 -1331 1869 -1331 
Q 1566 -1331 1297 -1286 
Q 1028 -1241 775 -1147 
L 775 -588 
Q 1028 -725 1275 -790 
Q 1522 -856 1778 -856 
Q 2344 -856 2625 -561 
Q 2906 -266 2906 331 
L 2906 616 
Q 2728 306 2450 153 
Q 2172 0 1784 0 
Q 1141 0 747 490 
Q 353 981 353 1791 
Q 353 2603 747 3093 
Q 1141 3584 1784 3584 
Q 2172 3584 2450 3431 
Q 2728 3278 2906 2969 
L 2906 3500 
L 3481 3500 
L 3481 434 
z
" transform="scale(0.015625)"/>
      <path id="DejaVuSans-20" transform="scale(0.015625)"/>
      <path id="DejaVuSans-43" d="M 4122 4306 
L 4122 3641 
Q 3803 3938 3442 4084 
Q 3081 4231 2675 4231 
Q 1875 4231 1450 3742 
Q 1025 3253 1025 2328 
Q 1025 1406 1450 917 
Q 1875 428 2675 428 
Q 3081 428 3442 575 
Q 3803 722 4122 1019 
L 4122 359 
Q 3791 134 3420 21 
Q 3050 -91 2638 -91 
Q 1578 -91 968 557 
Q 359 1206 359 2328 
Q 359 3453 968 4101 
Q 1578 4750 2638 4750 
Q 3056 4750 3426 4639 
Q 3797 4528 4122 4306 
z
" transform="scale(0.015625)"/>
      <path id="DejaVuSans-76" d="M 191 3500 
L 800 3500 
L 1894 563 
L 2988 3500 
L 3597 3500 
L 2284 0 
L 1503 0 
L 191 3500 
z
" transform="scale(0.015625)"/>
     </defs>
     <use xlink:href="#DejaVuSans-4c"/>
     <use xlink:href="#DejaVuSans-65" x="53.962891"/>
     <use xlink:href="#DejaVuSans-61" x="115.486328"/>
     <use xlink:href="#DejaVuSans-72" x="176.765625"/>
     <use xlink:href="#DejaVuSans-6e" x="216.128906"/>
     <use xlink:href="#DejaVuSans-69" x="279.507812"/>
     <use xlink:href="#DejaVuSans-6e" x="307.291016"/>
     <use xlink:href="#DejaVuSans-67" x="370.669922"/>
     <use xlink:href="#DejaVuSans-20" x="434.146484"/>
     <use xlink:href="#DejaVuSans-43" x="465.933594"/>
     <use xlink:href="#DejaVuSans-75" x="535.757812"/>
     <use xlink:href="#DejaVuSans-72" x="599.136719"/>
     <use xlink:href="#DejaVuSans-76" x="640.25"/>
     <use xlink:href="#DejaVuSans-65" x="699.429688"/>
     <use xlink:href="#DejaVuSans-73" x="760.953125"/>
    </g>
   </g>
   <g id="legend_1">
    <g id="patch_7">
     <path d="M 214.18875 302.584 
L 407.72 302.584 
Q 409.72 302.584 409.72 300.584 
L 409.72 228.193375 
Q 409.72 226.193375 407.72 226.193375 
L 214.18875 226.193375 
Q 212.18875 226.193375 212.18875 228.193375 
L 212.18875 300.584 
Q 212.18875 302.584 214.18875 302.584 
z
" style="fill: #ffffff; opacity: 0.8; stroke: #cccccc; stroke-linejoin: miter"/>
    </g>
    <g id="line2d_23">
     <path d="M 216.18875 234.291812 
L 226.18875 234.291812 
L 236.18875 234.291812 
" style="fill: none; stroke: #1f77b4; stroke-width: 1.5; stroke-linecap: square"/>
    </g>
    <g id="text_21">
     <!-- Train Accuracy -->
     <g transform="translate(244.18875 237.791812) scale(0.1 -0.1)">
      <defs>
       <path id="DejaVuSans-54" d="M -19 4666 
L 3928 4666 
L 3928 4134 
L 2272 4134 
L 2272 0 
L 1638 0 
L 1638 4134 
L -19 4134 
L -19 4666 
z
" transform="scale(0.015625)"/>
      </defs>
      <use xlink:href="#DejaVuSans-54"/>
      <use xlink:href="#DejaVuSans-72" x="46.333984"/>
      <use xlink:href="#DejaVuSans-61" x="87.447266"/>
      <use xlink:href="#DejaVuSans-69" x="148.726562"/>
      <use xlink:href="#DejaVuSans-6e" x="176.509766"/>
      <use xlink:href="#DejaVuSans-20" x="239.888672"/>
      <use xlink:href="#DejaVuSans-41" x="271.675781"/>
      <use xlink:href="#DejaVuSans-63" x="338.333984"/>
      <use xlink:href="#DejaVuSans-63" x="393.314453"/>
      <use xlink:href="#DejaVuSans-75" x="448.294922"/>
      <use xlink:href="#DejaVuSans-72" x="511.673828"/>
      <use xlink:href="#DejaVuSans-61" x="552.787109"/>
      <use xlink:href="#DejaVuSans-63" x="614.066406"/>
      <use xlink:href="#DejaVuSans-79" x="669.046875"/>
     </g>
    </g>
    <g id="line2d_24">
     <path d="M 216.18875 248.969937 
L 226.18875 248.969937 
L 236.18875 248.969937 
" style="fill: none; stroke: #ff7f0e; stroke-width: 1.5; stroke-linecap: square"/>
    </g>
    <g id="text_22">
     <!-- Validation Accuracy -->
     <g transform="translate(244.18875 252.469937) scale(0.1 -0.1)">
      <defs>
       <path id="DejaVuSans-56" d="M 1831 0 
L 50 4666 
L 709 4666 
L 2188 738 
L 3669 4666 
L 4325 4666 
L 2547 0 
L 1831 0 
z
" transform="scale(0.015625)"/>
       <path id="DejaVuSans-6c" d="M 603 4863 
L 1178 4863 
L 1178 0 
L 603 0 
L 603 4863 
z
" transform="scale(0.015625)"/>
       <path id="DejaVuSans-64" d="M 2906 2969 
L 2906 4863 
L 3481 4863 
L 3481 0 
L 2906 0 
L 2906 525 
Q 2725 213 2448 61 
Q 2172 -91 1784 -91 
Q 1150 -91 751 415 
Q 353 922 353 1747 
Q 353 2572 751 3078 
Q 1150 3584 1784 3584 
Q 2172 3584 2448 3432 
Q 2725 3281 2906 2969 
z
M 947 1747 
Q 947 1113 1208 752 
Q 1469 391 1925 391 
Q 2381 391 2643 752 
Q 2906 1113 2906 1747 
Q 2906 2381 2643 2742 
Q 2381 3103 1925 3103 
Q 1469 3103 1208 2742 
Q 947 2381 947 1747 
z
" transform="scale(0.015625)"/>
       <path id="DejaVuSans-74" d="M 1172 4494 
L 1172 3500 
L 2356 3500 
L 2356 3053 
L 1172 3053 
L 1172 1153 
Q 1172 725 1289 603 
Q 1406 481 1766 481 
L 2356 481 
L 2356 0 
L 1766 0 
Q 1100 0 847 248 
Q 594 497 594 1153 
L 594 3053 
L 172 3053 
L 172 3500 
L 594 3500 
L 594 4494 
L 1172 4494 
z
" transform="scale(0.015625)"/>
      </defs>
      <use xlink:href="#DejaVuSans-56"/>
      <use xlink:href="#DejaVuSans-61" x="60.658203"/>
      <use xlink:href="#DejaVuSans-6c" x="121.9375"/>
      <use xlink:href="#DejaVuSans-69" x="149.720703"/>
      <use xlink:href="#DejaVuSans-64" x="177.503906"/>
      <use xlink:href="#DejaVuSans-61" x="240.980469"/>
      <use xlink:href="#DejaVuSans-74" x="302.259766"/>
      <use xlink:href="#DejaVuSans-69" x="341.46875"/>
      <use xlink:href="#DejaVuSans-6f" x="369.251953"/>
      <use xlink:href="#DejaVuSans-6e" x="430.433594"/>
      <use xlink:href="#DejaVuSans-20" x="493.8125"/>
      <use xlink:href="#DejaVuSans-41" x="525.599609"/>
      <use xlink:href="#DejaVuSans-63" x="592.257812"/>
      <use xlink:href="#DejaVuSans-63" x="647.238281"/>
      <use xlink:href="#DejaVuSans-75" x="702.21875"/>
      <use xlink:href="#DejaVuSans-72" x="765.597656"/>
      <use xlink:href="#DejaVuSans-61" x="806.710938"/>
      <use xlink:href="#DejaVuSans-63" x="867.990234"/>
      <use xlink:href="#DejaVuSans-79" x="922.970703"/>
     </g>
    </g>
    <g id="line2d_25">
     <path d="M 216.18875 263.648062 
L 226.18875 263.648062 
L 236.18875 263.648062 
" style="fill: none; stroke: #2ca02c; stroke-width: 1.5; stroke-linecap: square"/>
    </g>
    <g id="text_23">
     <!-- Robust Validation Accuracy -->
     <g transform="translate(244.18875 267.148062) scale(0.1 -0.1)">
      <defs>
       <path id="DejaVuSans-52" d="M 2841 2188 
Q 3044 2119 3236 1894 
Q 3428 1669 3622 1275 
L 4263 0 
L 3584 0 
L 2988 1197 
Q 2756 1666 2539 1819 
Q 2322 1972 1947 1972 
L 1259 1972 
L 1259 0 
L 628 0 
L 628 4666 
L 2053 4666 
Q 2853 4666 3247 4331 
Q 3641 3997 3641 3322 
Q 3641 2881 3436 2590 
Q 3231 2300 2841 2188 
z
M 1259 4147 
L 1259 2491 
L 2053 2491 
Q 2509 2491 2742 2702 
Q 2975 2913 2975 3322 
Q 2975 3731 2742 3939 
Q 2509 4147 2053 4147 
L 1259 4147 
z
" transform="scale(0.015625)"/>
       <path id="DejaVuSans-62" d="M 3116 1747 
Q 3116 2381 2855 2742 
Q 2594 3103 2138 3103 
Q 1681 3103 1420 2742 
Q 1159 2381 1159 1747 
Q 1159 1113 1420 752 
Q 1681 391 2138 391 
Q 2594 391 2855 752 
Q 3116 1113 3116 1747 
z
M 1159 2969 
Q 1341 3281 1617 3432 
Q 1894 3584 2278 3584 
Q 2916 3584 3314 3078 
Q 3713 2572 3713 1747 
Q 3713 922 3314 415 
Q 2916 -91 2278 -91 
Q 1894 -91 1617 61 
Q 1341 213 1159 525 
L 1159 0 
L 581 0 
L 581 4863 
L 1159 4863 
L 1159 2969 
z
" transform="scale(0.015625)"/>
      </defs>
      <use xlink:href="#DejaVuSans-52"/>
      <use xlink:href="#DejaVuSans-6f" x="64.982422"/>
      <use xlink:href="#DejaVuSans-62" x="126.164062"/>
      <use xlink:href="#DejaVuSans-75" x="189.640625"/>
      <use xlink:href="#DejaVuSans-73" x="253.019531"/>
      <use xlink:href="#DejaVuSans-74" x="305.119141"/>
      <use xlink:href="#DejaVuSans-20" x="344.328125"/>
      <use xlink:href="#DejaVuSans-56" x="376.115234"/>
      <use xlink:href="#DejaVuSans-61" x="436.773438"/>
      <use xlink:href="#DejaVuSans-6c" x="498.052734"/>
      <use xlink:href="#DejaVuSans-69" x="525.835938"/>
      <use xlink:href="#DejaVuSans-64" x="553.619141"/>
      <use xlink:href="#DejaVuSans-61" x="617.095703"/>
      <use xlink:href="#DejaVuSans-74" x="678.375"/>
      <use xlink:href="#DejaVuSans-69" x="717.583984"/>
      <use xlink:href="#DejaVuSans-6f" x="745.367188"/>
      <use xlink:href="#DejaVuSans-6e" x="806.548828"/>
      <use xlink:href="#DejaVuSans-20" x="869.927734"/>
      <use xlink:href="#DejaVuSans-41" x="901.714844"/>
      <use xlink:href="#DejaVuSans-63" x="968.373047"/>
      <use xlink:href="#DejaVuSans-63" x="1023.353516"/>
      <use xlink:href="#DejaVuSans-75" x="1078.333984"/>
      <use xlink:href="#DejaVuSans-72" x="1141.712891"/>
      <use xlink:href="#DejaVuSans-61" x="1182.826172"/>
      <use xlink:href="#DejaVuSans-63" x="1244.105469"/>
      <use xlink:href="#DejaVuSans-79" x="1299.085938"/>
     </g>
    </g>
    <g id="line2d_26">
     <path d="M 216.18875 278.326188 
L 226.18875 278.326188 
L 236.18875 278.326188 
" style="fill: none; stroke: #d62728; stroke-width: 1.5; stroke-linecap: square"/>
    </g>
    <g id="text_24">
     <!-- SWA Validation Accuracy -->
     <g transform="translate(244.18875 281.826188) scale(0.1 -0.1)">
      <defs>
       <path id="DejaVuSans-53" d="M 3425 4513 
L 3425 3897 
Q 3066 4069 2747 4153 
Q 2428 4238 2131 4238 
Q 1616 4238 1336 4038 
Q 1056 3838 1056 3469 
Q 1056 3159 1242 3001 
Q 1428 2844 1947 2747 
L 2328 2669 
Q 3034 2534 3370 2195 
Q 3706 1856 3706 1288 
Q 3706 609 3251 259 
Q 2797 -91 1919 -91 
Q 1588 -91 1214 -16 
Q 841 59 441 206 
L 441 856 
Q 825 641 1194 531 
Q 1563 422 1919 422 
Q 2459 422 2753 634 
Q 3047 847 3047 1241 
Q 3047 1584 2836 1778 
Q 2625 1972 2144 2069 
L 1759 2144 
Q 1053 2284 737 2584 
Q 422 2884 422 3419 
Q 422 4038 858 4394 
Q 1294 4750 2059 4750 
Q 2388 4750 2728 4690 
Q 3069 4631 3425 4513 
z
" transform="scale(0.015625)"/>
       <path id="DejaVuSans-57" d="M 213 4666 
L 850 4666 
L 1831 722 
L 2809 4666 
L 3519 4666 
L 4500 722 
L 5478 4666 
L 6119 4666 
L 4947 0 
L 4153 0 
L 3169 4050 
L 2175 0 
L 1381 0 
L 213 4666 
z
" transform="scale(0.015625)"/>
      </defs>
      <use xlink:href="#DejaVuSans-53"/>
      <use xlink:href="#DejaVuSans-57" x="63.476562"/>
      <use xlink:href="#DejaVuSans-41" x="156.853516"/>
      <use xlink:href="#DejaVuSans-20" x="225.261719"/>
      <use xlink:href="#DejaVuSans-56" x="257.048828"/>
      <use xlink:href="#DejaVuSans-61" x="317.707031"/>
      <use xlink:href="#DejaVuSans-6c" x="378.986328"/>
      <use xlink:href="#DejaVuSans-69" x="406.769531"/>
      <use xlink:href="#DejaVuSans-64" x="434.552734"/>
      <use xlink:href="#DejaVuSans-61" x="498.029297"/>
      <use xlink:href="#DejaVuSans-74" x="559.308594"/>
      <use xlink:href="#DejaVuSans-69" x="598.517578"/>
      <use xlink:href="#DejaVuSans-6f" x="626.300781"/>
      <use xlink:href="#DejaVuSans-6e" x="687.482422"/>
      <use xlink:href="#DejaVuSans-20" x="750.861328"/>
      <use xlink:href="#DejaVuSans-41" x="782.648438"/>
      <use xlink:href="#DejaVuSans-63" x="849.306641"/>
      <use xlink:href="#DejaVuSans-63" x="904.287109"/>
      <use xlink:href="#DejaVuSans-75" x="959.267578"/>
      <use xlink:href="#DejaVuSans-72" x="1022.646484"/>
      <use xlink:href="#DejaVuSans-61" x="1063.759766"/>
      <use xlink:href="#DejaVuSans-63" x="1125.039062"/>
      <use xlink:href="#DejaVuSans-79" x="1180.019531"/>
     </g>
    </g>
    <g id="line2d_27">
     <path d="M 216.18875 293.004312 
L 226.18875 293.004312 
L 236.18875 293.004312 
" style="fill: none; stroke: #9467bd; stroke-width: 1.5; stroke-linecap: square"/>
    </g>
    <g id="text_25">
     <!-- SWA Robust Validation Accuracy -->
     <g transform="translate(244.18875 296.504312) scale(0.1 -0.1)">
      <use xlink:href="#DejaVuSans-53"/>
      <use xlink:href="#DejaVuSans-57" x="63.476562"/>
      <use xlink:href="#DejaVuSans-41" x="156.853516"/>
      <use xlink:href="#DejaVuSans-20" x="225.261719"/>
      <use xlink:href="#DejaVuSans-52" x="257.048828"/>
      <use xlink:href="#DejaVuSans-6f" x="322.03125"/>
      <use xlink:href="#DejaVuSans-62" x="383.212891"/>
      <use xlink:href="#DejaVuSans-75" x="446.689453"/>
      <use xlink:href="#DejaVuSans-73" x="510.068359"/>
      <use xlink:href="#DejaVuSans-74" x="562.167969"/>
      <use xlink:href="#DejaVuSans-20" x="601.376953"/>
      <use xlink:href="#DejaVuSans-56" x="633.164062"/>
      <use xlink:href="#DejaVuSans-61" x="693.822266"/>
      <use xlink:href="#DejaVuSans-6c" x="755.101562"/>
      <use xlink:href="#DejaVuSans-69" x="782.884766"/>
      <use xlink:href="#DejaVuSans-64" x="810.667969"/>
      <use xlink:href="#DejaVuSans-61" x="874.144531"/>
      <use xlink:href="#DejaVuSans-74" x="935.423828"/>
      <use xlink:href="#DejaVuSans-69" x="974.632812"/>
      <use xlink:href="#DejaVuSans-6f" x="1002.416016"/>
      <use xlink:href="#DejaVuSans-6e" x="1063.597656"/>
      <use xlink:href="#DejaVuSans-20" x="1126.976562"/>
      <use xlink:href="#DejaVuSans-41" x="1158.763672"/>
      <use xlink:href="#DejaVuSans-63" x="1225.421875"/>
      <use xlink:href="#DejaVuSans-63" x="1280.402344"/>
      <use xlink:href="#DejaVuSans-75" x="1335.382812"/>
      <use xlink:href="#DejaVuSans-72" x="1398.761719"/>
      <use xlink:href="#DejaVuSans-61" x="1439.875"/>
      <use xlink:href="#DejaVuSans-63" x="1501.154297"/>
      <use xlink:href="#DejaVuSans-79" x="1556.134766"/>
     </g>
    </g>
   </g>
  </g>
 </g>
 <defs>
  <clipPath id="p27b2f9f2d4">
   <rect x="57.6" y="41.472" width="357.12" height="266.112"/>
  </clipPath>
 </defs>
</svg>
